<?xml version="1.0" encoding="UTF-8" standalone="no"?>
<!DOCTYPE svg PUBLIC "-//W3C//DTD SVG 1.1//EN"
 "http://www.w3.org/Graphics/SVG/1.1/DTD/svg11.dtd">
<!-- Generated by graphviz version 2.38.0 (20140413.2041)
 -->
<!-- Title: include/ClonesArrays.hh Pages: 1 -->
<svg width="244pt" height="140pt"
 viewBox="0.00 0.00 243.50 140.00" xmlns="http://www.w3.org/2000/svg" xmlns:xlink="http://www.w3.org/1999/xlink">
<g id="graph0" class="graph" transform="scale(1 1) rotate(0) translate(4 136)">
<title>include/ClonesArrays.hh</title>
<polygon fill="white" stroke="none" points="-4,4 -4,-136 239.5,-136 239.5,4 -4,4"/>
<!-- Node1 -->
<g id="node1" class="node"><title>Node1</title>
<polygon fill="#bfbfbf" stroke="black" points="47.5,-112.5 47.5,-131.5 170.5,-131.5 170.5,-112.5 47.5,-112.5"/>
<text text-anchor="middle" x="109" y="-119.5" font-family="Helvetica,sans-Serif" font-size="10.00">include/ClonesArrays.hh</text>
</g>
<!-- Node2 -->
<g id="node2" class="node"><title>Node2</title>
<g id="a_node2"><a xlink:href="../../d1/d24/Trees_8hh.html" target="_top" xlink:title="include/Trees.hh">
<polygon fill="white" stroke="black" points="1.5,-56.5 1.5,-75.5 90.5,-75.5 90.5,-56.5 1.5,-56.5"/>
<text text-anchor="middle" x="46" y="-63.5" font-family="Helvetica,sans-Serif" font-size="10.00">include/Trees.hh</text>
</a>
</g>
</g>
<!-- Node1&#45;&gt;Node2 -->
<g id="edge1" class="edge"><title>Node1&#45;&gt;Node2</title>
<path fill="none" stroke="midnightblue" d="M90.9601,-105.537C79.7269,-95.9087 65.6809,-83.8694 56.3062,-75.8339"/>
<polygon fill="midnightblue" stroke="midnightblue" points="89.0076,-108.473 98.878,-112.324 93.5632,-103.159 89.0076,-108.473"/>
</g>
<!-- Node4 -->
<g id="node4" class="node"><title>Node4</title>
<g id="a_node4"><a xlink:href="../../d6/da6/ClonesArrays_8cpp.html" target="_top" xlink:title="source/ClonesArrays.cpp">
<polygon fill="white" stroke="black" points="108.5,-56.5 108.5,-75.5 235.5,-75.5 235.5,-56.5 108.5,-56.5"/>
<text text-anchor="middle" x="172" y="-63.5" font-family="Helvetica,sans-Serif" font-size="10.00">source/ClonesArrays.cpp</text>
</a>
</g>
</g>
<!-- Node1&#45;&gt;Node4 -->
<g id="edge3" class="edge"><title>Node1&#45;&gt;Node4</title>
<path fill="none" stroke="midnightblue" d="M127.04,-105.537C138.273,-95.9087 152.319,-83.8694 161.694,-75.8339"/>
<polygon fill="midnightblue" stroke="midnightblue" points="124.437,-103.159 119.122,-112.324 128.992,-108.473 124.437,-103.159"/>
</g>
<!-- Node3 -->
<g id="node3" class="node"><title>Node3</title>
<g id="a_node3"><a xlink:href="../../da/d88/Trees_8cpp.html" target="_top" xlink:title="source/Trees.cpp">
<polygon fill="white" stroke="black" points="0,-0.5 0,-19.5 92,-19.5 92,-0.5 0,-0.5"/>
<text text-anchor="middle" x="46" y="-7.5" font-family="Helvetica,sans-Serif" font-size="10.00">source/Trees.cpp</text>
</a>
</g>
</g>
<!-- Node2&#45;&gt;Node3 -->
<g id="edge2" class="edge"><title>Node2&#45;&gt;Node3</title>
<path fill="none" stroke="midnightblue" d="M46,-45.8045C46,-36.9102 46,-26.7798 46,-19.7511"/>
<polygon fill="midnightblue" stroke="midnightblue" points="42.5001,-46.083 46,-56.083 49.5001,-46.083 42.5001,-46.083"/>
</g>
</g>
</svg>
