<?xml version="1.0" encoding="UTF-8" standalone="no"?>
<!DOCTYPE svg PUBLIC "-//W3C//DTD SVG 1.1//EN"
 "http://www.w3.org/Graphics/SVG/1.1/DTD/svg11.dtd">
<!-- Generated by graphviz version 2.38.0 (20140413.2041)
 -->
<!-- Title: include/exroot/ExRootAnalysis.hh Pages: 1 -->
<svg width="4553pt" height="285pt"
 viewBox="0.00 0.00 4553.00 285.00" xmlns="http://www.w3.org/2000/svg" xmlns:xlink="http://www.w3.org/1999/xlink">
<g id="graph0" class="graph" transform="scale(1 1) rotate(0) translate(4 281)">
<title>include/exroot/ExRootAnalysis.hh</title>
<polygon fill="white" stroke="none" points="-4,4 -4,-281 4549,-281 4549,4 -4,4"/>
<!-- Node1 -->
<g id="node1" class="node"><title>Node1</title>
<polygon fill="#bfbfbf" stroke="black" points="3439.5,-257.5 3439.5,-276.5 3603.5,-276.5 3603.5,-257.5 3439.5,-257.5"/>
<text text-anchor="middle" x="3521.5" y="-264.5" font-family="Helvetica,sans-Serif" font-size="10.00">include/exroot/ExRootAnalysis.hh</text>
</g>
<!-- Node2 -->
<g id="node2" class="node"><title>Node2</title>
<g id="a_node2"><a xlink:href="../../d0/d02/Analysis_8hh.html" target="_top" xlink:title="include/Analysis.hh">
<polygon fill="white" stroke="black" points="1184,-201.5 1184,-220.5 1285,-220.5 1285,-201.5 1184,-201.5"/>
<text text-anchor="middle" x="1234.5" y="-208.5" font-family="Helvetica,sans-Serif" font-size="10.00">include/Analysis.hh</text>
</a>
</g>
</g>
<!-- Node1&#45;&gt;Node2 -->
<g id="edge1" class="edge"><title>Node1&#45;&gt;Node2</title>
<path fill="none" stroke="midnightblue" d="M3429.19,-263.82C3044.78,-254.744 1577.53,-220.099 1285.3,-213.199"/>
<polygon fill="midnightblue" stroke="midnightblue" points="3429.35,-267.325 3439.43,-264.062 3429.52,-260.327 3429.35,-267.325"/>
</g>
<!-- Node26 -->
<g id="node26" class="node"><title>Node26</title>
<g id="a_node26"><a xlink:href="../../d4/d34/Selector_8hh.html" target="_top" xlink:title="include/Selector.hh">
<polygon fill="white" stroke="black" points="2917.5,-201.5 2917.5,-220.5 3017.5,-220.5 3017.5,-201.5 2917.5,-201.5"/>
<text text-anchor="middle" x="2967.5" y="-208.5" font-family="Helvetica,sans-Serif" font-size="10.00">include/Selector.hh</text>
</a>
</g>
</g>
<!-- Node1&#45;&gt;Node26 -->
<g id="edge25" class="edge"><title>Node1&#45;&gt;Node26</title>
<path fill="none" stroke="midnightblue" d="M3429.12,-258.533C3331.27,-250.369 3172.33,-236.384 3035.5,-221 3029.7,-220.348 3023.63,-219.616 3017.61,-218.858"/>
<polygon fill="midnightblue" stroke="midnightblue" points="3429.02,-262.036 3439.28,-259.377 3429.6,-255.061 3429.02,-262.036"/>
</g>
<!-- Node28 -->
<g id="node28" class="node"><title>Node28</title>
<g id="a_node28"><a xlink:href="../../db/db5/TaggerTemplate_8hh.html" target="_top" xlink:title="include/TaggerTemplate.hh">
<polygon fill="white" stroke="black" points="2509.5,-201.5 2509.5,-220.5 2643.5,-220.5 2643.5,-201.5 2509.5,-201.5"/>
<text text-anchor="middle" x="2576.5" y="-208.5" font-family="Helvetica,sans-Serif" font-size="10.00">include/TaggerTemplate.hh</text>
</a>
</g>
</g>
<!-- Node1&#45;&gt;Node28 -->
<g id="edge27" class="edge"><title>Node1&#45;&gt;Node28</title>
<path fill="none" stroke="midnightblue" d="M3429.06,-260.718C3239.28,-249.873 2809.62,-225.321 2643.66,-215.838"/>
<polygon fill="midnightblue" stroke="midnightblue" points="3429.11,-264.226 3439.29,-261.302 3429.51,-257.237 3429.11,-264.226"/>
</g>
<!-- Node37 -->
<g id="node37" class="node"><title>Node37</title>
<g id="a_node37"><a xlink:href="../../d5/d96/Trainer_8hh.html" target="_top" xlink:title="include/Trainer.hh">
<polygon fill="white" stroke="black" points="3044.5,-201.5 3044.5,-220.5 3138.5,-220.5 3138.5,-201.5 3044.5,-201.5"/>
<text text-anchor="middle" x="3091.5" y="-208.5" font-family="Helvetica,sans-Serif" font-size="10.00">include/Trainer.hh</text>
</a>
</g>
</g>
<!-- Node1&#45;&gt;Node37 -->
<g id="edge49" class="edge"><title>Node1&#45;&gt;Node37</title>
<path fill="none" stroke="midnightblue" d="M3436.91,-256.297C3362.07,-247.565 3249.93,-234.127 3152.5,-221 3148.04,-220.4 3143.41,-219.754 3138.77,-219.094"/>
<polygon fill="midnightblue" stroke="midnightblue" points="3436.88,-259.817 3447.22,-257.497 3437.69,-252.864 3436.88,-259.817"/>
</g>
<!-- Node39 -->
<g id="node39" class="node"><title>Node39</title>
<g id="a_node39"><a xlink:href="../../dc/d26/Trainer_8cpp.html" target="_top" xlink:title="source/Trainer.cpp">
<polygon fill="white" stroke="black" points="3178.5,-140 3178.5,-159 3276.5,-159 3276.5,-140 3178.5,-140"/>
<text text-anchor="middle" x="3227.5" y="-147" font-family="Helvetica,sans-Serif" font-size="10.00">source/Trainer.cpp</text>
</a>
</g>
</g>
<!-- Node1&#45;&gt;Node39 -->
<g id="edge62" class="edge"><title>Node1&#45;&gt;Node39</title>
<path fill="none" stroke="midnightblue" d="M3429.2,-266.727C3340.87,-265.214 3216.61,-256.558 3185.5,-221 3168.14,-201.164 3197.81,-173.18 3215.6,-159.183"/>
<polygon fill="midnightblue" stroke="midnightblue" points="3429.19,-270.227 3439.24,-266.871 3429.29,-263.227 3429.19,-270.227"/>
</g>
<!-- Node40 -->
<g id="node40" class="node"><title>Node40</title>
<g id="a_node40"><a xlink:href="../../db/d0e/TreeReaderArray_8hh.html" target="_top" xlink:title="include/TreeReaderArray.hh">
<polygon fill="white" stroke="black" points="3194.5,-201.5 3194.5,-220.5 3332.5,-220.5 3332.5,-201.5 3194.5,-201.5"/>
<text text-anchor="middle" x="3263.5" y="-208.5" font-family="Helvetica,sans-Serif" font-size="10.00">include/TreeReaderArray.hh</text>
</a>
</g>
</g>
<!-- Node1&#45;&gt;Node40 -->
<g id="edge52" class="edge"><title>Node1&#45;&gt;Node40</title>
<path fill="none" stroke="midnightblue" d="M3470.6,-255.346C3421.84,-245.141 3349.21,-229.94 3304.19,-220.516"/>
<polygon fill="midnightblue" stroke="midnightblue" points="3470.11,-258.821 3480.62,-257.444 3471.55,-251.969 3470.11,-258.821"/>
</g>
<!-- Node41 -->
<g id="node41" class="node"><title>Node41</title>
<g id="a_node41"><a xlink:href="../../d1/d24/Trees_8hh.html" target="_top" xlink:title="include/Trees.hh">
<polygon fill="white" stroke="black" points="3351,-201.5 3351,-220.5 3440,-220.5 3440,-201.5 3351,-201.5"/>
<text text-anchor="middle" x="3395.5" y="-208.5" font-family="Helvetica,sans-Serif" font-size="10.00">include/Trees.hh</text>
</a>
</g>
</g>
<!-- Node1&#45;&gt;Node41 -->
<g id="edge53" class="edge"><title>Node1&#45;&gt;Node41</title>
<path fill="none" stroke="midnightblue" d="M3492.34,-253.503C3468.72,-243.38 3436.07,-229.388 3415.37,-220.516"/>
<polygon fill="midnightblue" stroke="midnightblue" points="3490.96,-256.721 3501.53,-257.444 3493.72,-250.287 3490.96,-256.721"/>
</g>
<!-- Node43 -->
<g id="node43" class="node"><title>Node43</title>
<g id="a_node43"><a xlink:href="../../d6/da6/ClonesArrays_8cpp.html" target="_top" xlink:title="source/ClonesArrays.cpp">
<polygon fill="white" stroke="black" points="3458,-201.5 3458,-220.5 3585,-220.5 3585,-201.5 3458,-201.5"/>
<text text-anchor="middle" x="3521.5" y="-208.5" font-family="Helvetica,sans-Serif" font-size="10.00">source/ClonesArrays.cpp</text>
</a>
</g>
</g>
<!-- Node1&#45;&gt;Node43 -->
<g id="edge55" class="edge"><title>Node1&#45;&gt;Node43</title>
<path fill="none" stroke="midnightblue" d="M3521.5,-246.805C3521.5,-237.91 3521.5,-227.78 3521.5,-220.751"/>
<polygon fill="midnightblue" stroke="midnightblue" points="3518,-247.083 3521.5,-257.083 3525,-247.083 3518,-247.083"/>
</g>
<!-- Node44 -->
<g id="node44" class="node"><title>Node44</title>
<g id="a_node44"><a xlink:href="../../d2/deb/exroot_2Hadrons_8cpp.html" target="_top" xlink:title="source/exroot/Hadrons.cpp">
<polygon fill="white" stroke="black" points="3603.5,-201.5 3603.5,-220.5 3737.5,-220.5 3737.5,-201.5 3603.5,-201.5"/>
<text text-anchor="middle" x="3670.5" y="-208.5" font-family="Helvetica,sans-Serif" font-size="10.00">source/exroot/Hadrons.cpp</text>
</a>
</g>
</g>
<!-- Node1&#45;&gt;Node44 -->
<g id="edge56" class="edge"><title>Node1&#45;&gt;Node44</title>
<path fill="none" stroke="midnightblue" d="M3554.87,-253.906C3582.88,-243.754 3622.2,-229.506 3647,-220.516"/>
<polygon fill="midnightblue" stroke="midnightblue" points="3553.32,-250.746 3545.11,-257.444 3555.7,-257.327 3553.32,-250.746"/>
</g>
<!-- Node45 -->
<g id="node45" class="node"><title>Node45</title>
<g id="a_node45"><a xlink:href="../../d9/dbe/exroot_2Leptons_8cpp.html" target="_top" xlink:title="source/exroot/Leptons.cpp">
<polygon fill="white" stroke="black" points="3755.5,-201.5 3755.5,-220.5 3887.5,-220.5 3887.5,-201.5 3755.5,-201.5"/>
<text text-anchor="middle" x="3821.5" y="-208.5" font-family="Helvetica,sans-Serif" font-size="10.00">source/exroot/Leptons.cpp</text>
</a>
</g>
</g>
<!-- Node1&#45;&gt;Node45 -->
<g id="edge57" class="edge"><title>Node1&#45;&gt;Node45</title>
<path fill="none" stroke="midnightblue" d="M3578.92,-255.664C3635.62,-245.459 3721.29,-230.039 3774.19,-220.516"/>
<polygon fill="midnightblue" stroke="midnightblue" points="3578.26,-252.227 3569.04,-257.444 3579.5,-259.117 3578.26,-252.227"/>
</g>
<!-- Node46 -->
<g id="node46" class="node"><title>Node46</title>
<g id="a_node46"><a xlink:href="../../d4/d47/exroot_2Partons_8cpp.html" target="_top" xlink:title="source/exroot/Partons.cpp">
<polygon fill="white" stroke="black" points="3906,-201.5 3906,-220.5 4037,-220.5 4037,-201.5 3906,-201.5"/>
<text text-anchor="middle" x="3971.5" y="-208.5" font-family="Helvetica,sans-Serif" font-size="10.00">source/exroot/Partons.cpp</text>
</a>
</g>
</g>
<!-- Node1&#45;&gt;Node46 -->
<g id="edge58" class="edge"><title>Node1&#45;&gt;Node46</title>
<path fill="none" stroke="midnightblue" d="M3602.87,-256.235C3689.63,-245.824 3825.35,-229.537 3905.65,-219.902"/>
<polygon fill="midnightblue" stroke="midnightblue" points="3602.32,-252.777 3592.8,-257.444 3603.15,-259.727 3602.32,-252.777"/>
</g>
<!-- Node47 -->
<g id="node47" class="node"><title>Node47</title>
<g id="a_node47"><a xlink:href="../../d0/d3a/FourVector_8cpp.html" target="_top" xlink:title="source/FourVector.cpp">
<polygon fill="white" stroke="black" points="4055.5,-201.5 4055.5,-220.5 4171.5,-220.5 4171.5,-201.5 4055.5,-201.5"/>
<text text-anchor="middle" x="4113.5" y="-208.5" font-family="Helvetica,sans-Serif" font-size="10.00">source/FourVector.cpp</text>
</a>
</g>
</g>
<!-- Node1&#45;&gt;Node47 -->
<g id="edge59" class="edge"><title>Node1&#45;&gt;Node47</title>
<path fill="none" stroke="midnightblue" d="M3614.16,-259.41C3719.16,-251.628 3895.36,-237.619 4046.5,-221 4049.42,-220.679 4052.4,-220.335 4055.42,-219.976"/>
<polygon fill="midnightblue" stroke="midnightblue" points="3613.63,-255.939 3603.91,-260.166 3614.14,-262.92 3613.63,-255.939"/>
</g>
<!-- Node48 -->
<g id="node48" class="node"><title>Node48</title>
<g id="a_node48"><a xlink:href="../../d8/d1c/Plotting_8cpp.html" target="_top" xlink:title="source/Plotting.cpp">
<polygon fill="white" stroke="black" points="4190,-201.5 4190,-220.5 4291,-220.5 4291,-201.5 4190,-201.5"/>
<text text-anchor="middle" x="4240.5" y="-208.5" font-family="Helvetica,sans-Serif" font-size="10.00">source/Plotting.cpp</text>
</a>
</g>
</g>
<!-- Node1&#45;&gt;Node48 -->
<g id="edge60" class="edge"><title>Node1&#45;&gt;Node48</title>
<path fill="none" stroke="midnightblue" d="M3613.74,-262.054C3741.37,-256.058 3978.9,-242.966 4180.5,-221 4183.54,-220.669 4186.66,-220.298 4189.8,-219.899"/>
<polygon fill="midnightblue" stroke="midnightblue" points="3613.45,-258.564 3603.62,-262.525 3613.77,-265.556 3613.45,-258.564"/>
</g>
<!-- Node49 -->
<g id="node49" class="node"><title>Node49</title>
<g id="a_node49"><a xlink:href="../../d2/d35/Tagger_8cpp.html" target="_top" xlink:title="source/Tagger.cpp">
<polygon fill="white" stroke="black" points="4309.5,-201.5 4309.5,-220.5 4407.5,-220.5 4407.5,-201.5 4309.5,-201.5"/>
<text text-anchor="middle" x="4358.5" y="-208.5" font-family="Helvetica,sans-Serif" font-size="10.00">source/Tagger.cpp</text>
</a>
</g>
</g>
<!-- Node1&#45;&gt;Node49 -->
<g id="edge61" class="edge"><title>Node1&#45;&gt;Node49</title>
<path fill="none" stroke="midnightblue" d="M3613.85,-263.541C3759.94,-259.005 4053.18,-247.27 4300.5,-221 4303.44,-220.688 4306.46,-220.331 4309.5,-219.943"/>
<polygon fill="midnightblue" stroke="midnightblue" points="3613.47,-260.051 3603.58,-263.856 3613.69,-267.048 3613.47,-260.051"/>
</g>
<!-- Node50 -->
<g id="node50" class="node"><title>Node50</title>
<g id="a_node50"><a xlink:href="../../d3/da7/TreeReader_8cpp.html" target="_top" xlink:title="source/TreeReader.cpp">
<polygon fill="white" stroke="black" points="4426,-201.5 4426,-220.5 4545,-220.5 4545,-201.5 4426,-201.5"/>
<text text-anchor="middle" x="4485.5" y="-208.5" font-family="Helvetica,sans-Serif" font-size="10.00">source/TreeReader.cpp</text>
</a>
</g>
</g>
<!-- Node1&#45;&gt;Node50 -->
<g id="edge63" class="edge"><title>Node1&#45;&gt;Node50</title>
<path fill="none" stroke="midnightblue" d="M3614.16,-263.768C3776.82,-259.307 4124.25,-247.365 4416.5,-221 4419.51,-220.729 4422.59,-220.424 4425.69,-220.096"/>
<polygon fill="midnightblue" stroke="midnightblue" points="3613.61,-260.281 3603.71,-264.051 3613.8,-267.278 3613.61,-260.281"/>
</g>
<!-- Node3 -->
<g id="node3" class="node"><title>Node3</title>
<g id="a_node3"><a xlink:href="../../d7/d26/AnalysisHeavyHiggs_8hh.html" target="_top" xlink:title="HeavyHiggs/include\l/AnalysisHeavyHiggs.hh">
<polygon fill="white" stroke="black" points="537,-134.5 537,-164.5 662,-164.5 662,-134.5 537,-134.5"/>
<text text-anchor="start" x="545" y="-152.5" font-family="Helvetica,sans-Serif" font-size="10.00">HeavyHiggs/include</text>
<text text-anchor="middle" x="599.5" y="-141.5" font-family="Helvetica,sans-Serif" font-size="10.00">/AnalysisHeavyHiggs.hh</text>
</a>
</g>
</g>
<!-- Node2&#45;&gt;Node3 -->
<g id="edge2" class="edge"><title>Node2&#45;&gt;Node3</title>
<path fill="none" stroke="midnightblue" d="M1173.71,-204.304C1053.06,-192.999 784.49,-167.834 662.255,-156.38"/>
<polygon fill="midnightblue" stroke="midnightblue" points="1173.59,-207.808 1183.88,-205.256 1174.25,-200.839 1173.59,-207.808"/>
</g>
<!-- Node9 -->
<g id="node9" class="node"><title>Node9</title>
<g id="a_node9"><a xlink:href="../../d8/d92/AnalysisPair_8hh.html" target="_top" xlink:title="HeavyHiggs/include\l/AnalysisPair.hh">
<polygon fill="white" stroke="black" points="119.5,-134.5 119.5,-164.5 223.5,-164.5 223.5,-134.5 119.5,-134.5"/>
<text text-anchor="start" x="127.5" y="-152.5" font-family="Helvetica,sans-Serif" font-size="10.00">HeavyHiggs/include</text>
<text text-anchor="middle" x="171.5" y="-141.5" font-family="Helvetica,sans-Serif" font-size="10.00">/AnalysisPair.hh</text>
</a>
</g>
</g>
<!-- Node2&#45;&gt;Node9 -->
<g id="edge8" class="edge"><title>Node2&#45;&gt;Node9</title>
<path fill="none" stroke="midnightblue" d="M1173.85,-206.605C983.724,-195.963 401.426,-163.37 223.613,-153.417"/>
<polygon fill="midnightblue" stroke="midnightblue" points="1173.76,-210.106 1183.94,-207.17 1174.16,-203.117 1173.76,-210.106"/>
</g>
<!-- Node12 -->
<g id="node12" class="node"><title>Node12</title>
<g id="a_node12"><a xlink:href="../../dc/d70/AnalysisHiggsCpv_8hh.html" target="_top" xlink:title="HiggsCpv/include/Analysis\lHiggsCpv.hh">
<polygon fill="white" stroke="black" points="1292.5,-134.5 1292.5,-164.5 1426.5,-164.5 1426.5,-134.5 1292.5,-134.5"/>
<text text-anchor="start" x="1300.5" y="-152.5" font-family="Helvetica,sans-Serif" font-size="10.00">HiggsCpv/include/Analysis</text>
<text text-anchor="middle" x="1359.5" y="-141.5" font-family="Helvetica,sans-Serif" font-size="10.00">HiggsCpv.hh</text>
</a>
</g>
</g>
<!-- Node2&#45;&gt;Node12 -->
<g id="edge11" class="edge"><title>Node2&#45;&gt;Node12</title>
<path fill="none" stroke="midnightblue" d="M1261.66,-197.07C1281.84,-187.465 1309.34,-174.378 1330.04,-164.523"/>
<polygon fill="midnightblue" stroke="midnightblue" points="1259.93,-194.017 1252.41,-201.475 1262.94,-200.337 1259.93,-194.017"/>
</g>
<!-- Node14 -->
<g id="node14" class="node"><title>Node14</title>
<g id="a_node14"><a xlink:href="../../df/d04/AnalysisStandardModel_8hh.html" target="_top" xlink:title="StandardModel/include\l/AnalysisStandardModel.hh">
<polygon fill="white" stroke="black" points="1710.5,-134.5 1710.5,-164.5 1846.5,-164.5 1846.5,-134.5 1710.5,-134.5"/>
<text text-anchor="start" x="1718.5" y="-152.5" font-family="Helvetica,sans-Serif" font-size="10.00">StandardModel/include</text>
<text text-anchor="middle" x="1778.5" y="-141.5" font-family="Helvetica,sans-Serif" font-size="10.00">/AnalysisStandardModel.hh</text>
</a>
</g>
</g>
<!-- Node2&#45;&gt;Node14 -->
<g id="edge13" class="edge"><title>Node2&#45;&gt;Node14</title>
<path fill="none" stroke="midnightblue" d="M1295.36,-203.344C1397.7,-192.15 1603.52,-169.639 1710.47,-157.94"/>
<polygon fill="midnightblue" stroke="midnightblue" points="1294.75,-199.889 1285.19,-204.456 1295.51,-206.848 1294.75,-199.889"/>
</g>
<!-- Node22 -->
<g id="node22" class="node"><title>Node22</title>
<g id="a_node22"><a xlink:href="../../d4/df2/AnalysisTopPartner_8hh.html" target="_top" xlink:title="TopPartner/include\l/AnalysisTopPartner.hh">
<polygon fill="white" stroke="red" points="1051,-134.5 1051,-164.5 1170,-164.5 1170,-134.5 1051,-134.5"/>
<text text-anchor="start" x="1059" y="-152.5" font-family="Helvetica,sans-Serif" font-size="10.00">TopPartner/include</text>
<text text-anchor="middle" x="1110.5" y="-141.5" font-family="Helvetica,sans-Serif" font-size="10.00">/AnalysisTopPartner.hh</text>
</a>
</g>
</g>
<!-- Node2&#45;&gt;Node22 -->
<g id="edge21" class="edge"><title>Node2&#45;&gt;Node22</title>
<path fill="none" stroke="midnightblue" d="M1207.55,-197.07C1187.54,-187.465 1160.26,-174.378 1139.72,-164.523"/>
<polygon fill="midnightblue" stroke="midnightblue" points="1206.2,-200.304 1216.73,-201.475 1209.23,-193.993 1206.2,-200.304"/>
</g>
<!-- Node4 -->
<g id="node4" class="node"><title>Node4</title>
<g id="a_node4"><a xlink:href="../../d1/da2/AnalysisCharged_8hh.html" target="_top" xlink:title="HeavyHiggs/include\l/AnalysisCharged.hh">
<polygon fill="white" stroke="red" points="361,-67.5 361,-97.5 468,-97.5 468,-67.5 361,-67.5"/>
<text text-anchor="start" x="369" y="-85.5" font-family="Helvetica,sans-Serif" font-size="10.00">HeavyHiggs/include</text>
<text text-anchor="middle" x="414.5" y="-74.5" font-family="Helvetica,sans-Serif" font-size="10.00">/AnalysisCharged.hh</text>
</a>
</g>
</g>
<!-- Node3&#45;&gt;Node4 -->
<g id="edge3" class="edge"><title>Node3&#45;&gt;Node4</title>
<path fill="none" stroke="midnightblue" d="M549.565,-130.955C519.764,-120.485 482.425,-107.366 454.564,-97.5765"/>
<polygon fill="midnightblue" stroke="midnightblue" points="548.763,-134.383 559.358,-134.396 551.083,-127.779 548.763,-134.383"/>
</g>
<!-- Node5 -->
<g id="node5" class="node"><title>Node5</title>
<g id="a_node5"><a xlink:href="../../d2/d73/AnalysisFusion_8hh.html" target="_top" xlink:title="HeavyHiggs/include\l/AnalysisFusion.hh">
<polygon fill="white" stroke="red" points="486.5,-67.5 486.5,-97.5 590.5,-97.5 590.5,-67.5 486.5,-67.5"/>
<text text-anchor="start" x="494.5" y="-85.5" font-family="Helvetica,sans-Serif" font-size="10.00">HeavyHiggs/include</text>
<text text-anchor="middle" x="538.5" y="-74.5" font-family="Helvetica,sans-Serif" font-size="10.00">/AnalysisFusion.hh</text>
</a>
</g>
</g>
<!-- Node3&#45;&gt;Node5 -->
<g id="edge4" class="edge"><title>Node3&#45;&gt;Node5</title>
<path fill="none" stroke="midnightblue" d="M579.346,-127.024C570.257,-117.34 559.779,-106.174 551.71,-97.5765"/>
<polygon fill="midnightblue" stroke="midnightblue" points="576.869,-129.499 586.264,-134.396 581.973,-124.709 576.869,-129.499"/>
</g>
<!-- Node6 -->
<g id="node6" class="node"><title>Node6</title>
<g id="a_node6"><a xlink:href="../../d4/de1/AnalysisNeutral_8hh.html" target="_top" xlink:title="HeavyHiggs/include\l/AnalysisNeutral.hh">
<polygon fill="white" stroke="red" points="608.5,-67.5 608.5,-97.5 712.5,-97.5 712.5,-67.5 608.5,-67.5"/>
<text text-anchor="start" x="616.5" y="-85.5" font-family="Helvetica,sans-Serif" font-size="10.00">HeavyHiggs/include</text>
<text text-anchor="middle" x="660.5" y="-74.5" font-family="Helvetica,sans-Serif" font-size="10.00">/AnalysisNeutral.hh</text>
</a>
</g>
</g>
<!-- Node3&#45;&gt;Node6 -->
<g id="edge5" class="edge"><title>Node3&#45;&gt;Node6</title>
<path fill="none" stroke="midnightblue" d="M619.654,-127.024C628.743,-117.34 639.221,-106.174 647.29,-97.5765"/>
<polygon fill="midnightblue" stroke="midnightblue" points="617.027,-124.709 612.736,-134.396 622.131,-129.499 617.027,-124.709"/>
</g>
<!-- Node7 -->
<g id="node7" class="node"><title>Node7</title>
<g id="a_node7"><a xlink:href="../../d6/d4e/AnalysisNeutralFourTop_8hh.html" target="_top" xlink:title="HeavyHiggs/include\l/AnalysisNeutralFourTop.hh">
<polygon fill="white" stroke="red" points="1270.5,-0.5 1270.5,-30.5 1408.5,-30.5 1408.5,-0.5 1270.5,-0.5"/>
<text text-anchor="start" x="1278.5" y="-18.5" font-family="Helvetica,sans-Serif" font-size="10.00">HeavyHiggs/include</text>
<text text-anchor="middle" x="1339.5" y="-7.5" font-family="Helvetica,sans-Serif" font-size="10.00">/AnalysisNeutralFourTop.hh</text>
</a>
</g>
</g>
<!-- Node3&#45;&gt;Node7 -->
<g id="edge6" class="edge"><title>Node3&#45;&gt;Node7</title>
<path fill="none" stroke="midnightblue" d="M651.517,-130.821C673.787,-122.287 699.642,-111.054 721.5,-98 740.213,-86.8243 739.304,-75.1972 759.5,-67 805.801,-48.2071 1126.65,-28.3146 1270.27,-20.235"/>
<polygon fill="midnightblue" stroke="midnightblue" points="650.026,-127.642 641.89,-134.43 652.483,-134.197 650.026,-127.642"/>
</g>
<!-- Node8 -->
<g id="node8" class="node"><title>Node8</title>
<g id="a_node8"><a xlink:href="../../da/dd2/AnalysisHeavyHiggs_8cpp.html" target="_top" xlink:title="HeavyHiggs/source/Analysis\lHeavyHiggs.cpp">
<polygon fill="white" stroke="black" points="200,-67.5 200,-97.5 343,-97.5 343,-67.5 200,-67.5"/>
<text text-anchor="start" x="208" y="-85.5" font-family="Helvetica,sans-Serif" font-size="10.00">HeavyHiggs/source/Analysis</text>
<text text-anchor="middle" x="271.5" y="-74.5" font-family="Helvetica,sans-Serif" font-size="10.00">HeavyHiggs.cpp</text>
</a>
</g>
</g>
<!-- Node3&#45;&gt;Node8 -->
<g id="edge7" class="edge"><title>Node3&#45;&gt;Node8</title>
<path fill="none" stroke="midnightblue" d="M526.634,-134.06C471.719,-123.178 396.828,-108.336 342.398,-97.5499"/>
<polygon fill="midnightblue" stroke="midnightblue" points="526.157,-137.534 536.646,-136.044 527.518,-130.667 526.157,-137.534"/>
</g>
<!-- Node10 -->
<g id="node10" class="node"><title>Node10</title>
<g id="a_node10"><a xlink:href="../../d5/d34/AnalysisPair_8cpp.html" target="_top" xlink:title="HeavyHiggs/source/Analysis\lPair.cpp">
<polygon fill="white" stroke="black" points="0,-67.5 0,-97.5 143,-97.5 143,-67.5 0,-67.5"/>
<text text-anchor="start" x="8" y="-85.5" font-family="Helvetica,sans-Serif" font-size="10.00">HeavyHiggs/source/Analysis</text>
<text text-anchor="middle" x="71.5" y="-74.5" font-family="Helvetica,sans-Serif" font-size="10.00">Pair.cpp</text>
</a>
</g>
</g>
<!-- Node9&#45;&gt;Node10 -->
<g id="edge9" class="edge"><title>Node9&#45;&gt;Node10</title>
<path fill="none" stroke="midnightblue" d="M141.09,-128.734C125.616,-118.676 107.169,-106.685 93.1562,-97.5765"/>
<polygon fill="midnightblue" stroke="midnightblue" points="139.51,-131.881 149.801,-134.396 143.325,-126.011 139.51,-131.881"/>
</g>
<!-- Node11 -->
<g id="node11" class="node"><title>Node11</title>
<g id="a_node11"><a xlink:href="../../d1/d87/HeavyHiggs_2source_2MainPair_8cpp.html" target="_top" xlink:title="HeavyHiggs/source/MainPair.cpp">
<polygon fill="white" stroke="black" points="889,-6 889,-25 1052,-25 1052,-6 889,-6"/>
<text text-anchor="middle" x="970.5" y="-13" font-family="Helvetica,sans-Serif" font-size="10.00">HeavyHiggs/source/MainPair.cpp</text>
</a>
</g>
</g>
<!-- Node9&#45;&gt;Node11 -->
<g id="edge10" class="edge"><title>Node9&#45;&gt;Node11</title>
<path fill="none" stroke="midnightblue" d="M170.039,-124.315C170.356,-105.676 174.195,-80.8227 190.5,-67 242.836,-22.63 699.323,-16.8479 888.705,-16.3759"/>
<polygon fill="midnightblue" stroke="midnightblue" points="166.542,-124.496 170.193,-134.442 173.541,-124.39 166.542,-124.496"/>
</g>
<!-- Node13 -->
<g id="node13" class="node"><title>Node13</title>
<g id="a_node13"><a xlink:href="../../df/d0a/main_8cpp.html" target="_top" xlink:title="HiggsCpv/source/main.cpp">
<polygon fill="white" stroke="black" points="1302,-73 1302,-92 1437,-92 1437,-73 1302,-73"/>
<text text-anchor="middle" x="1369.5" y="-80" font-family="Helvetica,sans-Serif" font-size="10.00">HiggsCpv/source/main.cpp</text>
</a>
</g>
</g>
<!-- Node12&#45;&gt;Node13 -->
<g id="edge12" class="edge"><title>Node12&#45;&gt;Node13</title>
<path fill="none" stroke="midnightblue" d="M1363.23,-124.25C1364.96,-113.017 1366.9,-100.377 1368.16,-92.1945"/>
<polygon fill="midnightblue" stroke="midnightblue" points="1359.73,-123.98 1361.67,-134.396 1366.65,-125.044 1359.73,-123.98"/>
</g>
<!-- Node15 -->
<g id="node15" class="node"><title>Node15</title>
<g id="a_node15"><a xlink:href="../../d4/d6b/AnalysisBoson_8hh.html" target="_top" xlink:title="StandardModel/include\l/AnalysisBoson.hh">
<polygon fill="white" stroke="red" points="1825.5,-67.5 1825.5,-97.5 1941.5,-97.5 1941.5,-67.5 1825.5,-67.5"/>
<text text-anchor="start" x="1833.5" y="-85.5" font-family="Helvetica,sans-Serif" font-size="10.00">StandardModel/include</text>
<text text-anchor="middle" x="1883.5" y="-74.5" font-family="Helvetica,sans-Serif" font-size="10.00">/AnalysisBoson.hh</text>
</a>
</g>
</g>
<!-- Node14&#45;&gt;Node15 -->
<g id="edge14" class="edge"><title>Node14&#45;&gt;Node15</title>
<path fill="none" stroke="midnightblue" d="M1809.98,-129.015C1826.32,-118.9 1845.91,-106.77 1860.76,-97.5765"/>
<polygon fill="midnightblue" stroke="midnightblue" points="1807.94,-126.156 1801.28,-134.396 1811.63,-132.108 1807.94,-126.156"/>
</g>
<!-- Node16 -->
<g id="node16" class="node"><title>Node16</title>
<g id="a_node16"><a xlink:href="../../d6/dbe/AnalysisBottom_8hh.html" target="_top" xlink:title="StandardModel/include\l/AnalysisBottom.hh">
<polygon fill="white" stroke="red" points="1455.5,-67.5 1455.5,-97.5 1571.5,-97.5 1571.5,-67.5 1455.5,-67.5"/>
<text text-anchor="start" x="1463.5" y="-85.5" font-family="Helvetica,sans-Serif" font-size="10.00">StandardModel/include</text>
<text text-anchor="middle" x="1513.5" y="-74.5" font-family="Helvetica,sans-Serif" font-size="10.00">/AnalysisBottom.hh</text>
</a>
</g>
</g>
<!-- Node14&#45;&gt;Node16 -->
<g id="edge15" class="edge"><title>Node14&#45;&gt;Node16</title>
<path fill="none" stroke="midnightblue" d="M1711.44,-132.052C1668.12,-121.425 1612.33,-107.741 1571.03,-97.6109"/>
<polygon fill="midnightblue" stroke="midnightblue" points="1710.78,-135.493 1721.33,-134.476 1712.45,-128.694 1710.78,-135.493"/>
</g>
<!-- Node17 -->
<g id="node17" class="node"><title>Node17</title>
<g id="a_node17"><a xlink:href="../../d7/db6/AnalysisHiggs_8hh.html" target="_top" xlink:title="StandardModel/include\l/AnalysisHiggs.hh">
<polygon fill="white" stroke="red" points="1959.5,-67.5 1959.5,-97.5 2075.5,-97.5 2075.5,-67.5 1959.5,-67.5"/>
<text text-anchor="start" x="1967.5" y="-85.5" font-family="Helvetica,sans-Serif" font-size="10.00">StandardModel/include</text>
<text text-anchor="middle" x="2017.5" y="-74.5" font-family="Helvetica,sans-Serif" font-size="10.00">/AnalysisHiggs.hh</text>
</a>
</g>
</g>
<!-- Node14&#45;&gt;Node17 -->
<g id="edge16" class="edge"><title>Node14&#45;&gt;Node17</title>
<path fill="none" stroke="midnightblue" d="M1839.72,-131.85C1878.69,-121.252 1928.6,-107.677 1965.62,-97.6109"/>
<polygon fill="midnightblue" stroke="midnightblue" points="1838.8,-128.474 1830.07,-134.476 1840.63,-135.229 1838.8,-128.474"/>
</g>
<!-- Node18 -->
<g id="node18" class="node"><title>Node18</title>
<g id="a_node18"><a xlink:href="../../d0/dda/AnalysisTop_8hh.html" target="_top" xlink:title="StandardModel/include\l/AnalysisTop.hh">
<polygon fill="white" stroke="red" points="2751.5,-0.5 2751.5,-30.5 2867.5,-30.5 2867.5,-0.5 2751.5,-0.5"/>
<text text-anchor="start" x="2759.5" y="-18.5" font-family="Helvetica,sans-Serif" font-size="10.00">StandardModel/include</text>
<text text-anchor="middle" x="2809.5" y="-7.5" font-family="Helvetica,sans-Serif" font-size="10.00">/AnalysisTop.hh</text>
</a>
</g>
</g>
<!-- Node14&#45;&gt;Node18 -->
<g id="edge17" class="edge"><title>Node14&#45;&gt;Node18</title>
<path fill="none" stroke="midnightblue" d="M1782.72,-124.63C1787.45,-105.588 1797.16,-80.0231 1816.5,-67 1855.4,-40.8011 2544.2,-22.6834 2751.16,-17.8127"/>
<polygon fill="midnightblue" stroke="midnightblue" points="1779.3,-123.898 1780.57,-134.416 1786.14,-125.398 1779.3,-123.898"/>
</g>
<!-- Node19 -->
<g id="node19" class="node"><title>Node19</title>
<g id="a_node19"><a xlink:href="../../da/dd8/AnalysisW_8hh.html" target="_top" xlink:title="StandardModel/include\l/AnalysisW.hh">
<polygon fill="white" stroke="red" points="2093.5,-67.5 2093.5,-97.5 2209.5,-97.5 2209.5,-67.5 2093.5,-67.5"/>
<text text-anchor="start" x="2101.5" y="-85.5" font-family="Helvetica,sans-Serif" font-size="10.00">StandardModel/include</text>
<text text-anchor="middle" x="2151.5" y="-74.5" font-family="Helvetica,sans-Serif" font-size="10.00">/AnalysisW.hh</text>
</a>
</g>
</g>
<!-- Node14&#45;&gt;Node19 -->
<g id="edge18" class="edge"><title>Node14&#45;&gt;Node19</title>
<path fill="none" stroke="midnightblue" d="M1856.82,-136.67C1918.76,-127.051 2007.34,-112.706 2084.5,-98 2087.42,-97.4429 2090.41,-96.8564 2093.43,-96.2514"/>
<polygon fill="midnightblue" stroke="midnightblue" points="1856.08,-133.243 1846.73,-138.232 1857.15,-140.161 1856.08,-133.243"/>
</g>
<!-- Node20 -->
<g id="node20" class="node"><title>Node20</title>
<g id="a_node20"><a xlink:href="../../d0/d88/AnalysisZ_8hh.html" target="_top" xlink:title="StandardModel/include\l/AnalysisZ.hh">
<polygon fill="white" stroke="red" points="2025.5,-0.5 2025.5,-30.5 2141.5,-30.5 2141.5,-0.5 2025.5,-0.5"/>
<text text-anchor="start" x="2033.5" y="-18.5" font-family="Helvetica,sans-Serif" font-size="10.00">StandardModel/include</text>
<text text-anchor="middle" x="2083.5" y="-7.5" font-family="Helvetica,sans-Serif" font-size="10.00">/AnalysisZ.hh</text>
</a>
</g>
</g>
<!-- Node14&#45;&gt;Node20 -->
<g id="edge19" class="edge"><title>Node14&#45;&gt;Node20</title>
<path fill="none" stroke="midnightblue" d="M1772.74,-124.354C1769.97,-106.322 1769.77,-82.2569 1783.5,-67 1814.9,-32.1044 1947.32,-21.3211 2025.35,-17.9894"/>
<polygon fill="midnightblue" stroke="midnightblue" points="1769.34,-125.236 1774.63,-134.415 1776.22,-123.94 1769.34,-125.236"/>
</g>
<!-- Node21 -->
<g id="node21" class="node"><title>Node21</title>
<g id="a_node21"><a xlink:href="../../df/d46/AnalysisStandardModel_8cpp.html" target="_top" xlink:title="StandardModel/source\l/AnalysisStandardModel.cpp">
<polygon fill="white" stroke="black" points="1590,-67.5 1590,-97.5 1731,-97.5 1731,-67.5 1590,-67.5"/>
<text text-anchor="start" x="1598" y="-85.5" font-family="Helvetica,sans-Serif" font-size="10.00">StandardModel/source</text>
<text text-anchor="middle" x="1660.5" y="-74.5" font-family="Helvetica,sans-Serif" font-size="10.00">/AnalysisStandardModel.cpp</text>
</a>
</g>
</g>
<!-- Node14&#45;&gt;Node21 -->
<g id="edge20" class="edge"><title>Node14&#45;&gt;Node21</title>
<path fill="none" stroke="midnightblue" d="M1743.89,-129.435C1725.38,-119.237 1702.98,-106.897 1686.05,-97.5765"/>
<polygon fill="midnightblue" stroke="midnightblue" points="1742.45,-132.637 1752.9,-134.396 1745.83,-126.505 1742.45,-132.637"/>
</g>
<!-- Node23 -->
<g id="node23" class="node"><title>Node23</title>
<g id="a_node23"><a xlink:href="../../d1/dbf/AnalysisTopPartnerEffective_8hh.html" target="_top" xlink:title="TopPartner/include\l/AnalysisTopPartnerEffective.hh">
<polygon fill="white" stroke="red" points="1125.5,-67.5 1125.5,-97.5 1283.5,-97.5 1283.5,-67.5 1125.5,-67.5"/>
<text text-anchor="start" x="1133.5" y="-85.5" font-family="Helvetica,sans-Serif" font-size="10.00">TopPartner/include</text>
<text text-anchor="middle" x="1204.5" y="-74.5" font-family="Helvetica,sans-Serif" font-size="10.00">/AnalysisTopPartnerEffective.hh</text>
</a>
</g>
</g>
<!-- Node22&#45;&gt;Node23 -->
<g id="edge22" class="edge"><title>Node22&#45;&gt;Node23</title>
<path fill="none" stroke="midnightblue" d="M1139.49,-128.451C1153.95,-118.452 1171.09,-106.6 1184.14,-97.5765"/>
<polygon fill="midnightblue" stroke="midnightblue" points="1137.13,-125.83 1130.9,-134.396 1141.11,-131.587 1137.13,-125.83"/>
</g>
<!-- Node24 -->
<g id="node24" class="node"><title>Node24</title>
<g id="a_node24"><a xlink:href="../../da/dd2/AnalysisTopPartnerPair_8hh.html" target="_top" xlink:title="TopPartner/include\l/AnalysisTopPartnerPair.hh">
<polygon fill="white" stroke="red" points="768.5,-67.5 768.5,-97.5 904.5,-97.5 904.5,-67.5 768.5,-67.5"/>
<text text-anchor="start" x="776.5" y="-85.5" font-family="Helvetica,sans-Serif" font-size="10.00">TopPartner/include</text>
<text text-anchor="middle" x="836.5" y="-74.5" font-family="Helvetica,sans-Serif" font-size="10.00">/AnalysisTopPartnerPair.hh</text>
</a>
</g>
</g>
<!-- Node22&#45;&gt;Node24 -->
<g id="edge23" class="edge"><title>Node22&#45;&gt;Node24</title>
<path fill="none" stroke="midnightblue" d="M1041.45,-132.119C996.611,-121.483 938.777,-107.763 895.983,-97.6109"/>
<polygon fill="midnightblue" stroke="midnightblue" points="1040.85,-135.573 1051.38,-134.476 1042.46,-128.762 1040.85,-135.573"/>
</g>
<!-- Node25 -->
<g id="node25" class="node"><title>Node25</title>
<g id="a_node25"><a xlink:href="../../d9/de2/AnalysisTopPartnerSingleHadronic_8hh.html" target="_top" xlink:title="TopPartner/include\l/AnalysisTopPartnerSingleHadronic.hh">
<polygon fill="white" stroke="red" points="923,-67.5 923,-97.5 1108,-97.5 1108,-67.5 923,-67.5"/>
<text text-anchor="start" x="931" y="-85.5" font-family="Helvetica,sans-Serif" font-size="10.00">TopPartner/include</text>
<text text-anchor="middle" x="1015.5" y="-74.5" font-family="Helvetica,sans-Serif" font-size="10.00">/AnalysisTopPartnerSingleHadronic.hh</text>
</a>
</g>
</g>
<!-- Node22&#45;&gt;Node25 -->
<g id="edge24" class="edge"><title>Node22&#45;&gt;Node25</title>
<path fill="none" stroke="midnightblue" d="M1081.61,-128.734C1066.91,-118.676 1049.39,-106.685 1036.07,-97.5765"/>
<polygon fill="midnightblue" stroke="midnightblue" points="1079.66,-131.638 1089.89,-134.396 1083.61,-125.861 1079.66,-131.638"/>
</g>
<!-- Node27 -->
<g id="node27" class="node"><title>Node27</title>
<g id="a_node27"><a xlink:href="../../de/d6d/Selector_8cpp.html" target="_top" xlink:title="source/Selector.cpp">
<polygon fill="white" stroke="black" points="2910.5,-140 2910.5,-159 3014.5,-159 3014.5,-140 2910.5,-140"/>
<text text-anchor="middle" x="2962.5" y="-147" font-family="Helvetica,sans-Serif" font-size="10.00">source/Selector.cpp</text>
</a>
</g>
</g>
<!-- Node26&#45;&gt;Node27 -->
<g id="edge26" class="edge"><title>Node26&#45;&gt;Node27</title>
<path fill="none" stroke="midnightblue" d="M2965.93,-191.317C2965.02,-180.496 2963.92,-167.398 2963.22,-159.009"/>
<polygon fill="midnightblue" stroke="midnightblue" points="2962.46,-191.803 2966.78,-201.475 2969.43,-191.217 2962.46,-191.803"/>
</g>
<!-- Node29 -->
<g id="node29" class="node"><title>Node29</title>
<g id="a_node29"><a xlink:href="../../d7/da1/JetPairTagger_8hh.html" target="_top" xlink:title="HeavyHiggs/include\l/JetPairTagger.hh">
<polygon fill="white" stroke="red" points="2227.5,-67.5 2227.5,-97.5 2331.5,-97.5 2331.5,-67.5 2227.5,-67.5"/>
<text text-anchor="start" x="2235.5" y="-85.5" font-family="Helvetica,sans-Serif" font-size="10.00">HeavyHiggs/include</text>
<text text-anchor="middle" x="2279.5" y="-74.5" font-family="Helvetica,sans-Serif" font-size="10.00">/JetPairTagger.hh</text>
</a>
</g>
</g>
<!-- Node28&#45;&gt;Node29 -->
<g id="edge28" class="edge"><title>Node28&#45;&gt;Node29</title>
<path fill="none" stroke="midnightblue" d="M2499.06,-209.253C2450.32,-205.547 2387.89,-194.604 2340.5,-165 2314.12,-148.521 2295.18,-116.179 2285.92,-97.5747"/>
<polygon fill="midnightblue" stroke="midnightblue" points="2499.03,-212.759 2509.24,-209.938 2499.5,-205.775 2499.03,-212.759"/>
</g>
<!-- Node30 -->
<g id="node30" class="node"><title>Node30</title>
<g id="a_node30"><a xlink:href="../../de/dbb/BottomTagger_8hh.html" target="_top" xlink:title="StandardModel/include\l/BottomTagger.hh">
<polygon fill="white" stroke="red" points="2349.5,-134.5 2349.5,-164.5 2465.5,-164.5 2465.5,-134.5 2349.5,-134.5"/>
<text text-anchor="start" x="2357.5" y="-152.5" font-family="Helvetica,sans-Serif" font-size="10.00">StandardModel/include</text>
<text text-anchor="middle" x="2407.5" y="-141.5" font-family="Helvetica,sans-Serif" font-size="10.00">/BottomTagger.hh</text>
</a>
</g>
</g>
<!-- Node28&#45;&gt;Node30 -->
<g id="edge31" class="edge"><title>Node28&#45;&gt;Node30</title>
<path fill="none" stroke="midnightblue" d="M2542.71,-198.103C2515.21,-188.422 2476.34,-174.737 2447.33,-164.523"/>
<polygon fill="midnightblue" stroke="midnightblue" points="2541.69,-201.456 2552.29,-201.475 2544.02,-194.853 2541.69,-201.456"/>
</g>
<!-- Node31 -->
<g id="node31" class="node"><title>Node31</title>
<g id="a_node31"><a xlink:href="../../db/d94/WHadronicTagger_8hh.html" target="_top" xlink:title="StandardModel/include\l/WHadronicTagger.hh">
<polygon fill="white" stroke="red" points="2751.5,-67.5 2751.5,-97.5 2867.5,-97.5 2867.5,-67.5 2751.5,-67.5"/>
<text text-anchor="start" x="2759.5" y="-85.5" font-family="Helvetica,sans-Serif" font-size="10.00">StandardModel/include</text>
<text text-anchor="middle" x="2809.5" y="-74.5" font-family="Helvetica,sans-Serif" font-size="10.00">/WHadronicTagger.hh</text>
</a>
</g>
</g>
<!-- Node28&#45;&gt;Node31 -->
<g id="edge42" class="edge"><title>Node28&#45;&gt;Node31</title>
<path fill="none" stroke="midnightblue" d="M2638.8,-199.221C2667.79,-192.365 2701.89,-181.564 2729.5,-165 2744.97,-155.718 2778.88,-118.441 2797.19,-97.666"/>
<polygon fill="midnightblue" stroke="midnightblue" points="2637.76,-195.868 2628.78,-201.485 2639.3,-202.696 2637.76,-195.868"/>
</g>
<!-- Node32 -->
<g id="node32" class="node"><title>Node32</title>
<g id="a_node32"><a xlink:href="../../d8/daf/ZHadronicTagger_8hh.html" target="_top" xlink:title="StandardModel/include\l/ZHadronicTagger.hh">
<polygon fill="white" stroke="red" points="2349.5,-67.5 2349.5,-97.5 2465.5,-97.5 2465.5,-67.5 2349.5,-67.5"/>
<text text-anchor="start" x="2357.5" y="-85.5" font-family="Helvetica,sans-Serif" font-size="10.00">StandardModel/include</text>
<text text-anchor="middle" x="2407.5" y="-74.5" font-family="Helvetica,sans-Serif" font-size="10.00">/ZHadronicTagger.hh</text>
</a>
</g>
</g>
<!-- Node28&#45;&gt;Node32 -->
<g id="edge45" class="edge"><title>Node28&#45;&gt;Node32</title>
<path fill="none" stroke="midnightblue" d="M2556.52,-195.045C2523.65,-170.444 2458.63,-121.768 2426.45,-97.6821"/>
<polygon fill="midnightblue" stroke="midnightblue" points="2554.78,-198.115 2564.88,-201.305 2558.98,-192.511 2554.78,-198.115"/>
</g>
<!-- Node33 -->
<g id="node33" class="node"><title>Node33</title>
<g id="a_node33"><a xlink:href="../../dc/d06/BosonTagger_8hh.html" target="_top" xlink:title="StandardModel/include\l/BosonTagger.hh">
<polygon fill="white" stroke="red" points="2483.5,-67.5 2483.5,-97.5 2599.5,-97.5 2599.5,-67.5 2483.5,-67.5"/>
<text text-anchor="start" x="2491.5" y="-85.5" font-family="Helvetica,sans-Serif" font-size="10.00">StandardModel/include</text>
<text text-anchor="middle" x="2541.5" y="-74.5" font-family="Helvetica,sans-Serif" font-size="10.00">/BosonTagger.hh</text>
</a>
</g>
</g>
<!-- Node28&#45;&gt;Node33 -->
<g id="edge46" class="edge"><title>Node28&#45;&gt;Node33</title>
<path fill="none" stroke="midnightblue" d="M2570.62,-191.81C2568.03,-183.641 2565.02,-173.865 2562.5,-165 2555.83,-141.528 2548.93,-113.997 2544.93,-97.6916"/>
<polygon fill="midnightblue" stroke="midnightblue" points="2567.31,-192.954 2573.69,-201.411 2573.97,-190.82 2567.31,-192.954"/>
</g>
<!-- Node34 -->
<g id="node34" class="node"><title>Node34</title>
<g id="a_node34"><a xlink:href="../../d1/d1b/HiggsTagger_8hh.html" target="_top" xlink:title="StandardModel/include\l/HiggsTagger.hh">
<polygon fill="white" stroke="red" points="2617.5,-67.5 2617.5,-97.5 2733.5,-97.5 2733.5,-67.5 2617.5,-67.5"/>
<text text-anchor="start" x="2625.5" y="-85.5" font-family="Helvetica,sans-Serif" font-size="10.00">StandardModel/include</text>
<text text-anchor="middle" x="2675.5" y="-74.5" font-family="Helvetica,sans-Serif" font-size="10.00">/HiggsTagger.hh</text>
</a>
</g>
</g>
<!-- Node28&#45;&gt;Node34 -->
<g id="edge47" class="edge"><title>Node28&#45;&gt;Node34</title>
<path fill="none" stroke="midnightblue" d="M2577.34,-191.098C2578.91,-174.635 2583.32,-150.831 2595.5,-134 2607.05,-118.032 2625.35,-105.938 2641.54,-97.5942"/>
<polygon fill="midnightblue" stroke="midnightblue" points="2573.84,-190.928 2576.64,-201.147 2580.82,-191.414 2573.84,-190.928"/>
</g>
<!-- Node35 -->
<g id="node35" class="node"><title>Node35</title>
<g id="a_node35"><a xlink:href="../../d2/dd8/WLeptonicTagger_8hh.html" target="_top" xlink:title="StandardModel/include\l/WLeptonicTagger.hh">
<polygon fill="white" stroke="red" points="2776.5,-134.5 2776.5,-164.5 2892.5,-164.5 2892.5,-134.5 2776.5,-134.5"/>
<text text-anchor="start" x="2784.5" y="-152.5" font-family="Helvetica,sans-Serif" font-size="10.00">StandardModel/include</text>
<text text-anchor="middle" x="2834.5" y="-141.5" font-family="Helvetica,sans-Serif" font-size="10.00">/WLeptonicTagger.hh</text>
</a>
</g>
</g>
<!-- Node28&#45;&gt;Node35 -->
<g id="edge43" class="edge"><title>Node28&#45;&gt;Node35</title>
<path fill="none" stroke="midnightblue" d="M2623.37,-199.191C2666.29,-189.294 2729.97,-174.607 2776.16,-163.953"/>
<polygon fill="midnightblue" stroke="midnightblue" points="2622.42,-195.817 2613.47,-201.475 2624,-202.638 2622.42,-195.817"/>
</g>
<!-- Node36 -->
<g id="node36" class="node"><title>Node36</title>
<g id="a_node36"><a xlink:href="../../de/d57/TauTagger_8hh.html" target="_top" xlink:title="StandardModel/include\l/TauTagger.hh">
<polygon fill="white" stroke="red" points="2604.5,-134.5 2604.5,-164.5 2720.5,-164.5 2720.5,-134.5 2604.5,-134.5"/>
<text text-anchor="start" x="2612.5" y="-152.5" font-family="Helvetica,sans-Serif" font-size="10.00">StandardModel/include</text>
<text text-anchor="middle" x="2662.5" y="-141.5" font-family="Helvetica,sans-Serif" font-size="10.00">/TauTagger.hh</text>
</a>
</g>
</g>
<!-- Node28&#45;&gt;Node36 -->
<g id="edge48" class="edge"><title>Node28&#45;&gt;Node36</title>
<path fill="none" stroke="midnightblue" d="M2597.11,-195.739C2610.78,-186.282 2628.63,-173.93 2642.23,-164.523"/>
<polygon fill="midnightblue" stroke="midnightblue" points="2595.05,-192.907 2588.82,-201.475 2599.04,-198.664 2595.05,-192.907"/>
</g>
<!-- Node29&#45;&gt;Node7 -->
<g id="edge29" class="edge"><title>Node29&#45;&gt;Node7</title>
<path fill="none" stroke="midnightblue" d="M2217.42,-67.0259C1911.48,-23.0486 1555.84,-16.9248 1408.58,-16.3513"/>
<polygon fill="midnightblue" stroke="midnightblue" points="2216.97,-70.4971 2227.37,-68.472 2217.98,-63.5699 2216.97,-70.4971"/>
</g>
<!-- Node29&#45;&gt;Node11 -->
<g id="edge30" class="edge"><title>Node29&#45;&gt;Node11</title>
<path fill="none" stroke="midnightblue" d="M2217.35,-67.0406C1795.03,-10.1312 1683.41,-49.4462 1261.5,-31 1190.75,-27.9068 1110.35,-23.8602 1052.02,-20.8281"/>
<polygon fill="midnightblue" stroke="midnightblue" points="2217,-70.5256 2227.38,-68.4028 2217.94,-63.5893 2217,-70.5256"/>
</g>
<!-- Node30&#45;&gt;Node15 -->
<g id="edge33" class="edge"><title>Node30&#45;&gt;Node15</title>
<path fill="none" stroke="midnightblue" d="M2339.13,-143.159C2249.52,-135.653 2087.62,-120.352 1950.5,-98 1947.56,-97.5213 1944.56,-96.9978 1941.53,-96.4428"/>
<polygon fill="midnightblue" stroke="midnightblue" points="2338.91,-146.653 2349.17,-143.992 2339.49,-139.677 2338.91,-146.653"/>
</g>
<!-- Node30&#45;&gt;Node17 -->
<g id="edge34" class="edge"><title>Node30&#45;&gt;Node17</title>
<path fill="none" stroke="midnightblue" d="M2339.07,-138.978C2273.56,-129.584 2172.02,-114.299 2084.5,-98 2081.57,-97.4553 2078.58,-96.8787 2075.56,-96.2816"/>
<polygon fill="midnightblue" stroke="midnightblue" points="2338.88,-142.485 2349.27,-140.434 2339.87,-135.556 2338.88,-142.485"/>
</g>
<!-- Node30&#45;&gt;Node19 -->
<g id="edge37" class="edge"><title>Node30&#45;&gt;Node19</title>
<path fill="none" stroke="midnightblue" d="M2342.45,-131.984C2300.64,-121.367 2246.89,-107.72 2207.08,-97.6109"/>
<polygon fill="midnightblue" stroke="midnightblue" points="2341.71,-135.407 2352.27,-134.476 2343.44,-128.623 2341.71,-135.407"/>
</g>
<!-- Node30&#45;&gt;Node29 -->
<g id="edge32" class="edge"><title>Node30&#45;&gt;Node29</title>
<path fill="none" stroke="midnightblue" d="M2370.78,-129.853C2350.54,-119.576 2325.83,-107.025 2307.22,-97.5765"/>
<polygon fill="midnightblue" stroke="midnightblue" points="2369.22,-132.989 2379.73,-134.396 2372.39,-126.747 2369.22,-132.989"/>
</g>
<!-- Node30&#45;&gt;Node31 -->
<g id="edge35" class="edge"><title>Node30&#45;&gt;Node31</title>
<path fill="none" stroke="midnightblue" d="M2475.92,-139.482C2543.77,-130.235 2650.6,-114.853 2742.5,-98 2745.43,-97.4633 2748.42,-96.8932 2751.44,-96.3012"/>
<polygon fill="midnightblue" stroke="midnightblue" points="2475.22,-136.045 2465.78,-140.857 2476.16,-142.981 2475.22,-136.045"/>
</g>
<!-- Node30&#45;&gt;Node32 -->
<g id="edge38" class="edge"><title>Node30&#45;&gt;Node32</title>
<path fill="none" stroke="midnightblue" d="M2407.5,-124.108C2407.5,-115.154 2407.5,-105.323 2407.5,-97.5765"/>
<polygon fill="midnightblue" stroke="midnightblue" points="2404,-124.396 2407.5,-134.396 2411,-124.396 2404,-124.396"/>
</g>
<!-- Node30&#45;&gt;Node33 -->
<g id="edge40" class="edge"><title>Node30&#45;&gt;Node33</title>
<path fill="none" stroke="midnightblue" d="M2445.65,-129.992C2466.89,-119.689 2492.91,-107.068 2512.48,-97.5765"/>
<polygon fill="midnightblue" stroke="midnightblue" points="2444.05,-126.882 2436.58,-134.396 2447.1,-133.181 2444.05,-126.882"/>
</g>
<!-- Node30&#45;&gt;Node34 -->
<g id="edge41" class="edge"><title>Node30&#45;&gt;Node34</title>
<path fill="none" stroke="midnightblue" d="M2475.04,-132.119C2518.89,-121.483 2575.46,-107.763 2617.32,-97.6109"/>
<polygon fill="midnightblue" stroke="midnightblue" points="2474.22,-128.717 2465.32,-134.476 2475.87,-135.52 2474.22,-128.717"/>
</g>
<!-- Node31&#45;&gt;Node18 -->
<g id="edge36" class="edge"><title>Node31&#45;&gt;Node18</title>
<path fill="none" stroke="midnightblue" d="M2809.5,-57.1081C2809.5,-48.1539 2809.5,-38.3227 2809.5,-30.5765"/>
<polygon fill="midnightblue" stroke="midnightblue" points="2806,-57.3959 2809.5,-67.396 2813,-57.396 2806,-57.3959"/>
</g>
<!-- Node32&#45;&gt;Node20 -->
<g id="edge39" class="edge"><title>Node32&#45;&gt;Node20</title>
<path fill="none" stroke="midnightblue" d="M2339.47,-66.8085C2265.67,-51.6301 2191.63,-37.2125 2141.74,-27.6158"/>
<polygon fill="midnightblue" stroke="midnightblue" points="2338.91,-70.2659 2349.41,-68.8572 2340.32,-63.4101 2338.91,-70.2659"/>
</g>
<!-- Node35&#45;&gt;Node18 -->
<g id="edge44" class="edge"><title>Node35&#45;&gt;Node18</title>
<path fill="none" stroke="midnightblue" d="M2857.6,-126.965C2872.26,-110.58 2886.69,-87.4447 2876.5,-67 2868.64,-51.2264 2853.24,-39.0819 2839.19,-30.6598"/>
<polygon fill="midnightblue" stroke="midnightblue" points="2854.86,-124.769 2850.5,-134.424 2859.93,-129.596 2854.86,-124.769"/>
</g>
<!-- Node38 -->
<g id="node38" class="node"><title>Node38</title>
<g id="a_node38"><a xlink:href="../../d1/de1/AnalysisBase_8cpp.html" target="_top" xlink:title="source/AnalysisBase.cpp">
<polygon fill="white" stroke="black" points="3032.5,-140 3032.5,-159 3160.5,-159 3160.5,-140 3032.5,-140"/>
<text text-anchor="middle" x="3096.5" y="-147" font-family="Helvetica,sans-Serif" font-size="10.00">source/AnalysisBase.cpp</text>
</a>
</g>
</g>
<!-- Node37&#45;&gt;Node38 -->
<g id="edge50" class="edge"><title>Node37&#45;&gt;Node38</title>
<path fill="none" stroke="midnightblue" d="M3093.07,-191.317C3093.98,-180.496 3095.08,-167.398 3095.78,-159.009"/>
<polygon fill="midnightblue" stroke="midnightblue" points="3089.57,-191.217 3092.22,-201.475 3096.54,-191.803 3089.57,-191.217"/>
</g>
<!-- Node37&#45;&gt;Node39 -->
<g id="edge51" class="edge"><title>Node37&#45;&gt;Node39</title>
<path fill="none" stroke="midnightblue" d="M3120.47,-197.327C3146.87,-185.776 3185.14,-169.032 3208.05,-159.009"/>
<polygon fill="midnightblue" stroke="midnightblue" points="3118.74,-194.26 3110.99,-201.475 3121.55,-200.673 3118.74,-194.26"/>
</g>
<!-- Node42 -->
<g id="node42" class="node"><title>Node42</title>
<g id="a_node42"><a xlink:href="../../da/d88/Trees_8cpp.html" target="_top" xlink:title="source/Trees.cpp">
<polygon fill="white" stroke="black" points="3349.5,-140 3349.5,-159 3441.5,-159 3441.5,-140 3349.5,-140"/>
<text text-anchor="middle" x="3395.5" y="-147" font-family="Helvetica,sans-Serif" font-size="10.00">source/Trees.cpp</text>
</a>
</g>
</g>
<!-- Node41&#45;&gt;Node42 -->
<g id="edge54" class="edge"><title>Node41&#45;&gt;Node42</title>
<path fill="none" stroke="midnightblue" d="M3395.5,-191.317C3395.5,-180.496 3395.5,-167.398 3395.5,-159.009"/>
<polygon fill="midnightblue" stroke="midnightblue" points="3392,-191.475 3395.5,-201.475 3399,-191.475 3392,-191.475"/>
</g>
</g>
</svg>
