<?xml version="1.0" encoding="UTF-8" standalone="no"?>
<!DOCTYPE svg PUBLIC "-//W3C//DTD SVG 1.1//EN"
 "http://www.w3.org/Graphics/SVG/1.1/DTD/svg11.dtd">
<!-- Generated by graphviz version 2.38.0 (20140413.2041)
 -->
<!-- Title: include/exroot/ExRootAnalysis.hh Pages: 1 -->
<svg width="4190pt" height="285pt"
 viewBox="0.00 0.00 4190.00 285.00" xmlns="http://www.w3.org/2000/svg" xmlns:xlink="http://www.w3.org/1999/xlink">
<g id="graph0" class="graph" transform="scale(1 1) rotate(0) translate(4 281)">
<title>include/exroot/ExRootAnalysis.hh</title>
<polygon fill="white" stroke="none" points="-4,4 -4,-281 4186,-281 4186,4 -4,4"/>
<!-- Node1 -->
<g id="node1" class="node"><title>Node1</title>
<polygon fill="#bfbfbf" stroke="black" points="3076.5,-257.5 3076.5,-276.5 3240.5,-276.5 3240.5,-257.5 3076.5,-257.5"/>
<text text-anchor="middle" x="3158.5" y="-264.5" font-family="Helvetica,sans-Serif" font-size="10.00">include/exroot/ExRootAnalysis.hh</text>
</g>
<!-- Node2 -->
<g id="node2" class="node"><title>Node2</title>
<g id="a_node2"><a xlink:href="../../d0/d02/Analysis_8hh.html" target="_top" xlink:title="include/Analysis.hh">
<polygon fill="white" stroke="black" points="1237,-140 1237,-159 1338,-159 1338,-140 1237,-140"/>
<text text-anchor="middle" x="1287.5" y="-147" font-family="Helvetica,sans-Serif" font-size="10.00">include/Analysis.hh</text>
</a>
</g>
</g>
<!-- Node1&#45;&gt;Node2 -->
<g id="edge1" class="edge"><title>Node1&#45;&gt;Node2</title>
<path fill="none" stroke="midnightblue" d="M3066.37,-262.726C2893.56,-256.366 2509.01,-241.175 2185.5,-221 1862.42,-200.852 1474.69,-167.192 1338.09,-155.045"/>
<polygon fill="midnightblue" stroke="midnightblue" points="3066.32,-266.227 3076.44,-263.096 3066.58,-259.231 3066.32,-266.227"/>
</g>
<!-- Node26 -->
<g id="node26" class="node"><title>Node26</title>
<g id="a_node26"><a xlink:href="../../d4/d34/Selector_8hh.html" target="_top" xlink:title="include/Selector.hh">
<polygon fill="white" stroke="black" points="2554.5,-201.5 2554.5,-220.5 2654.5,-220.5 2654.5,-201.5 2554.5,-201.5"/>
<text text-anchor="middle" x="2604.5" y="-208.5" font-family="Helvetica,sans-Serif" font-size="10.00">include/Selector.hh</text>
</a>
</g>
</g>
<!-- Node1&#45;&gt;Node26 -->
<g id="edge25" class="edge"><title>Node1&#45;&gt;Node26</title>
<path fill="none" stroke="midnightblue" d="M3066.12,-258.533C2968.27,-250.369 2809.33,-236.384 2672.5,-221 2666.7,-220.348 2660.63,-219.616 2654.61,-218.858"/>
<polygon fill="midnightblue" stroke="midnightblue" points="3066.02,-262.036 3076.28,-259.377 3066.6,-255.061 3066.02,-262.036"/>
</g>
<!-- Node28 -->
<g id="node28" class="node"><title>Node28</title>
<g id="a_node28"><a xlink:href="../../db/db5/TaggerTemplate_8hh.html" target="_top" xlink:title="include/TaggerTemplate.hh">
<polygon fill="white" stroke="black" points="2194.5,-201.5 2194.5,-220.5 2328.5,-220.5 2328.5,-201.5 2194.5,-201.5"/>
<text text-anchor="middle" x="2261.5" y="-208.5" font-family="Helvetica,sans-Serif" font-size="10.00">include/TaggerTemplate.hh</text>
</a>
</g>
</g>
<!-- Node1&#45;&gt;Node28 -->
<g id="edge27" class="edge"><title>Node1&#45;&gt;Node28</title>
<path fill="none" stroke="midnightblue" d="M3066.08,-260.436C2884.94,-249.531 2487.07,-225.58 2328.58,-216.038"/>
<polygon fill="midnightblue" stroke="midnightblue" points="3065.93,-263.933 3076.12,-261.041 3066.35,-256.946 3065.93,-263.933"/>
</g>
<!-- Node37 -->
<g id="node37" class="node"><title>Node37</title>
<g id="a_node37"><a xlink:href="../../d5/d96/Trainer_8hh.html" target="_top" xlink:title="include/Trainer.hh">
<polygon fill="white" stroke="black" points="2681.5,-201.5 2681.5,-220.5 2775.5,-220.5 2775.5,-201.5 2681.5,-201.5"/>
<text text-anchor="middle" x="2728.5" y="-208.5" font-family="Helvetica,sans-Serif" font-size="10.00">include/Trainer.hh</text>
</a>
</g>
</g>
<!-- Node1&#45;&gt;Node37 -->
<g id="edge49" class="edge"><title>Node1&#45;&gt;Node37</title>
<path fill="none" stroke="midnightblue" d="M3073.91,-256.297C2999.07,-247.565 2886.93,-234.127 2789.5,-221 2785.04,-220.4 2780.41,-219.754 2775.77,-219.094"/>
<polygon fill="midnightblue" stroke="midnightblue" points="3073.88,-259.817 3084.22,-257.497 3074.69,-252.864 3073.88,-259.817"/>
</g>
<!-- Node39 -->
<g id="node39" class="node"><title>Node39</title>
<g id="a_node39"><a xlink:href="../../dc/d26/Trainer_8cpp.html" target="_top" xlink:title="source/Trainer.cpp">
<polygon fill="white" stroke="black" points="2815.5,-140 2815.5,-159 2913.5,-159 2913.5,-140 2815.5,-140"/>
<text text-anchor="middle" x="2864.5" y="-147" font-family="Helvetica,sans-Serif" font-size="10.00">source/Trainer.cpp</text>
</a>
</g>
</g>
<!-- Node1&#45;&gt;Node39 -->
<g id="edge62" class="edge"><title>Node1&#45;&gt;Node39</title>
<path fill="none" stroke="midnightblue" d="M3066.2,-266.727C2977.87,-265.214 2853.61,-256.558 2822.5,-221 2805.14,-201.164 2834.81,-173.18 2852.6,-159.183"/>
<polygon fill="midnightblue" stroke="midnightblue" points="3066.19,-270.227 3076.24,-266.871 3066.29,-263.227 3066.19,-270.227"/>
</g>
<!-- Node40 -->
<g id="node40" class="node"><title>Node40</title>
<g id="a_node40"><a xlink:href="../../db/d0e/TreeReaderArray_8hh.html" target="_top" xlink:title="include/TreeReaderArray.hh">
<polygon fill="white" stroke="black" points="2831.5,-201.5 2831.5,-220.5 2969.5,-220.5 2969.5,-201.5 2831.5,-201.5"/>
<text text-anchor="middle" x="2900.5" y="-208.5" font-family="Helvetica,sans-Serif" font-size="10.00">include/TreeReaderArray.hh</text>
</a>
</g>
</g>
<!-- Node1&#45;&gt;Node40 -->
<g id="edge52" class="edge"><title>Node1&#45;&gt;Node40</title>
<path fill="none" stroke="midnightblue" d="M3107.6,-255.346C3058.84,-245.141 2986.21,-229.94 2941.19,-220.516"/>
<polygon fill="midnightblue" stroke="midnightblue" points="3107.11,-258.821 3117.62,-257.444 3108.55,-251.969 3107.11,-258.821"/>
</g>
<!-- Node41 -->
<g id="node41" class="node"><title>Node41</title>
<g id="a_node41"><a xlink:href="../../d1/d24/Trees_8hh.html" target="_top" xlink:title="include/Trees.hh">
<polygon fill="white" stroke="black" points="2988,-201.5 2988,-220.5 3077,-220.5 3077,-201.5 2988,-201.5"/>
<text text-anchor="middle" x="3032.5" y="-208.5" font-family="Helvetica,sans-Serif" font-size="10.00">include/Trees.hh</text>
</a>
</g>
</g>
<!-- Node1&#45;&gt;Node41 -->
<g id="edge53" class="edge"><title>Node1&#45;&gt;Node41</title>
<path fill="none" stroke="midnightblue" d="M3129.34,-253.503C3105.72,-243.38 3073.07,-229.388 3052.37,-220.516"/>
<polygon fill="midnightblue" stroke="midnightblue" points="3127.96,-256.721 3138.53,-257.444 3130.72,-250.287 3127.96,-256.721"/>
</g>
<!-- Node43 -->
<g id="node43" class="node"><title>Node43</title>
<g id="a_node43"><a xlink:href="../../d6/da6/ClonesArrays_8cpp.html" target="_top" xlink:title="source/ClonesArrays.cpp">
<polygon fill="white" stroke="black" points="3095,-201.5 3095,-220.5 3222,-220.5 3222,-201.5 3095,-201.5"/>
<text text-anchor="middle" x="3158.5" y="-208.5" font-family="Helvetica,sans-Serif" font-size="10.00">source/ClonesArrays.cpp</text>
</a>
</g>
</g>
<!-- Node1&#45;&gt;Node43 -->
<g id="edge55" class="edge"><title>Node1&#45;&gt;Node43</title>
<path fill="none" stroke="midnightblue" d="M3158.5,-246.805C3158.5,-237.91 3158.5,-227.78 3158.5,-220.751"/>
<polygon fill="midnightblue" stroke="midnightblue" points="3155,-247.083 3158.5,-257.083 3162,-247.083 3155,-247.083"/>
</g>
<!-- Node44 -->
<g id="node44" class="node"><title>Node44</title>
<g id="a_node44"><a xlink:href="../../d2/deb/exroot_2Hadrons_8cpp.html" target="_top" xlink:title="source/exroot/Hadrons.cpp">
<polygon fill="white" stroke="black" points="3240.5,-201.5 3240.5,-220.5 3374.5,-220.5 3374.5,-201.5 3240.5,-201.5"/>
<text text-anchor="middle" x="3307.5" y="-208.5" font-family="Helvetica,sans-Serif" font-size="10.00">source/exroot/Hadrons.cpp</text>
</a>
</g>
</g>
<!-- Node1&#45;&gt;Node44 -->
<g id="edge56" class="edge"><title>Node1&#45;&gt;Node44</title>
<path fill="none" stroke="midnightblue" d="M3191.87,-253.906C3219.88,-243.754 3259.2,-229.506 3284,-220.516"/>
<polygon fill="midnightblue" stroke="midnightblue" points="3190.32,-250.746 3182.11,-257.444 3192.7,-257.327 3190.32,-250.746"/>
</g>
<!-- Node45 -->
<g id="node45" class="node"><title>Node45</title>
<g id="a_node45"><a xlink:href="../../d9/dbe/exroot_2Leptons_8cpp.html" target="_top" xlink:title="source/exroot/Leptons.cpp">
<polygon fill="white" stroke="black" points="3392.5,-201.5 3392.5,-220.5 3524.5,-220.5 3524.5,-201.5 3392.5,-201.5"/>
<text text-anchor="middle" x="3458.5" y="-208.5" font-family="Helvetica,sans-Serif" font-size="10.00">source/exroot/Leptons.cpp</text>
</a>
</g>
</g>
<!-- Node1&#45;&gt;Node45 -->
<g id="edge57" class="edge"><title>Node1&#45;&gt;Node45</title>
<path fill="none" stroke="midnightblue" d="M3215.92,-255.664C3272.62,-245.459 3358.29,-230.039 3411.19,-220.516"/>
<polygon fill="midnightblue" stroke="midnightblue" points="3215.26,-252.227 3206.04,-257.444 3216.5,-259.117 3215.26,-252.227"/>
</g>
<!-- Node46 -->
<g id="node46" class="node"><title>Node46</title>
<g id="a_node46"><a xlink:href="../../d4/d47/exroot_2Partons_8cpp.html" target="_top" xlink:title="source/exroot/Partons.cpp">
<polygon fill="white" stroke="black" points="3543,-201.5 3543,-220.5 3674,-220.5 3674,-201.5 3543,-201.5"/>
<text text-anchor="middle" x="3608.5" y="-208.5" font-family="Helvetica,sans-Serif" font-size="10.00">source/exroot/Partons.cpp</text>
</a>
</g>
</g>
<!-- Node1&#45;&gt;Node46 -->
<g id="edge58" class="edge"><title>Node1&#45;&gt;Node46</title>
<path fill="none" stroke="midnightblue" d="M3239.87,-256.235C3326.63,-245.824 3462.35,-229.537 3542.65,-219.902"/>
<polygon fill="midnightblue" stroke="midnightblue" points="3239.32,-252.777 3229.8,-257.444 3240.15,-259.727 3239.32,-252.777"/>
</g>
<!-- Node47 -->
<g id="node47" class="node"><title>Node47</title>
<g id="a_node47"><a xlink:href="../../d0/d3a/FourVector_8cpp.html" target="_top" xlink:title="source/FourVector.cpp">
<polygon fill="white" stroke="black" points="3692.5,-201.5 3692.5,-220.5 3808.5,-220.5 3808.5,-201.5 3692.5,-201.5"/>
<text text-anchor="middle" x="3750.5" y="-208.5" font-family="Helvetica,sans-Serif" font-size="10.00">source/FourVector.cpp</text>
</a>
</g>
</g>
<!-- Node1&#45;&gt;Node47 -->
<g id="edge59" class="edge"><title>Node1&#45;&gt;Node47</title>
<path fill="none" stroke="midnightblue" d="M3250.98,-259.349C3355.77,-251.512 3531.63,-237.454 3682.5,-221 3685.7,-220.651 3688.97,-220.276 3692.28,-219.884"/>
<polygon fill="midnightblue" stroke="midnightblue" points="3250.46,-255.877 3240.75,-260.111 3250.98,-262.858 3250.46,-255.877"/>
</g>
<!-- Node48 -->
<g id="node48" class="node"><title>Node48</title>
<g id="a_node48"><a xlink:href="../../d8/d1c/Plotting_8cpp.html" target="_top" xlink:title="source/Plotting.cpp">
<polygon fill="white" stroke="black" points="3827,-201.5 3827,-220.5 3928,-220.5 3928,-201.5 3827,-201.5"/>
<text text-anchor="middle" x="3877.5" y="-208.5" font-family="Helvetica,sans-Serif" font-size="10.00">source/Plotting.cpp</text>
</a>
</g>
</g>
<!-- Node1&#45;&gt;Node48 -->
<g id="edge60" class="edge"><title>Node1&#45;&gt;Node48</title>
<path fill="none" stroke="midnightblue" d="M3250.74,-262.054C3378.37,-256.058 3615.9,-242.966 3817.5,-221 3820.54,-220.669 3823.66,-220.298 3826.8,-219.899"/>
<polygon fill="midnightblue" stroke="midnightblue" points="3250.45,-258.564 3240.62,-262.525 3250.77,-265.556 3250.45,-258.564"/>
</g>
<!-- Node49 -->
<g id="node49" class="node"><title>Node49</title>
<g id="a_node49"><a xlink:href="../../d2/d35/Tagger_8cpp.html" target="_top" xlink:title="source/Tagger.cpp">
<polygon fill="white" stroke="black" points="3946.5,-201.5 3946.5,-220.5 4044.5,-220.5 4044.5,-201.5 3946.5,-201.5"/>
<text text-anchor="middle" x="3995.5" y="-208.5" font-family="Helvetica,sans-Serif" font-size="10.00">source/Tagger.cpp</text>
</a>
</g>
</g>
<!-- Node1&#45;&gt;Node49 -->
<g id="edge61" class="edge"><title>Node1&#45;&gt;Node49</title>
<path fill="none" stroke="midnightblue" d="M3250.85,-263.541C3396.94,-259.005 3690.18,-247.27 3937.5,-221 3940.44,-220.688 3943.46,-220.331 3946.5,-219.943"/>
<polygon fill="midnightblue" stroke="midnightblue" points="3250.47,-260.051 3240.58,-263.856 3250.69,-267.048 3250.47,-260.051"/>
</g>
<!-- Node50 -->
<g id="node50" class="node"><title>Node50</title>
<g id="a_node50"><a xlink:href="../../d3/da7/TreeReader_8cpp.html" target="_top" xlink:title="source/TreeReader.cpp">
<polygon fill="white" stroke="black" points="4063,-201.5 4063,-220.5 4182,-220.5 4182,-201.5 4063,-201.5"/>
<text text-anchor="middle" x="4122.5" y="-208.5" font-family="Helvetica,sans-Serif" font-size="10.00">source/TreeReader.cpp</text>
</a>
</g>
</g>
<!-- Node1&#45;&gt;Node50 -->
<g id="edge63" class="edge"><title>Node1&#45;&gt;Node50</title>
<path fill="none" stroke="midnightblue" d="M3251.16,-263.768C3413.82,-259.307 3761.25,-247.365 4053.5,-221 4056.51,-220.729 4059.59,-220.424 4062.69,-220.096"/>
<polygon fill="midnightblue" stroke="midnightblue" points="3250.61,-260.281 3240.71,-264.051 3250.8,-267.278 3250.61,-260.281"/>
</g>
<!-- Node3 -->
<g id="node3" class="node"><title>Node3</title>
<g id="a_node3"><a xlink:href="../../d7/d26/AnalysisHeavyHiggs_8hh.html" target="_top" xlink:title="HeavyHiggs/include\l/AnalysisHeavyHiggs.hh">
<polygon fill="white" stroke="black" points="995,-67.5 995,-97.5 1120,-97.5 1120,-67.5 995,-67.5"/>
<text text-anchor="start" x="1003" y="-85.5" font-family="Helvetica,sans-Serif" font-size="10.00">HeavyHiggs/include</text>
<text text-anchor="middle" x="1057.5" y="-74.5" font-family="Helvetica,sans-Serif" font-size="10.00">/AnalysisHeavyHiggs.hh</text>
</a>
</g>
</g>
<!-- Node2&#45;&gt;Node3 -->
<g id="edge2" class="edge"><title>Node2&#45;&gt;Node3</title>
<path fill="none" stroke="midnightblue" d="M1247.01,-137.058C1208.02,-126.037 1148.95,-109.344 1107.14,-97.5281"/>
<polygon fill="midnightblue" stroke="midnightblue" points="1246.38,-140.517 1256.96,-139.869 1248.29,-133.781 1246.38,-140.517"/>
</g>
<!-- Node9 -->
<g id="node9" class="node"><title>Node9</title>
<g id="a_node9"><a xlink:href="../../d8/d92/AnalysisPair_8hh.html" target="_top" xlink:title="HeavyHiggs/include\l/AnalysisPair.hh">
<polygon fill="white" stroke="black" points="1394.5,-67.5 1394.5,-97.5 1498.5,-97.5 1498.5,-67.5 1394.5,-67.5"/>
<text text-anchor="start" x="1402.5" y="-85.5" font-family="Helvetica,sans-Serif" font-size="10.00">HeavyHiggs/include</text>
<text text-anchor="middle" x="1446.5" y="-74.5" font-family="Helvetica,sans-Serif" font-size="10.00">/AnalysisPair.hh</text>
</a>
</g>
</g>
<!-- Node2&#45;&gt;Node9 -->
<g id="edge8" class="edge"><title>Node2&#45;&gt;Node9</title>
<path fill="none" stroke="midnightblue" d="M1317.94,-136.058C1344.87,-125.047 1384.14,-108.992 1412.19,-97.5281"/>
<polygon fill="midnightblue" stroke="midnightblue" points="1316.55,-132.845 1308.61,-139.869 1319.19,-139.324 1316.55,-132.845"/>
</g>
<!-- Node12 -->
<g id="node12" class="node"><title>Node12</title>
<g id="a_node12"><a xlink:href="../../dc/d70/AnalysisHiggsCpv_8hh.html" target="_top" xlink:title="HiggsCpv/include/Analysis\lHiggsCpv.hh">
<polygon fill="white" stroke="black" points="93.5,-67.5 93.5,-97.5 227.5,-97.5 227.5,-67.5 93.5,-67.5"/>
<text text-anchor="start" x="101.5" y="-85.5" font-family="Helvetica,sans-Serif" font-size="10.00">HiggsCpv/include/Analysis</text>
<text text-anchor="middle" x="160.5" y="-74.5" font-family="Helvetica,sans-Serif" font-size="10.00">HiggsCpv.hh</text>
</a>
</g>
</g>
<!-- Node2&#45;&gt;Node12 -->
<g id="edge11" class="edge"><title>Node2&#45;&gt;Node12</title>
<path fill="none" stroke="midnightblue" d="M1226.89,-145.004C1033.26,-133.837 430.466,-99.0703 227.771,-87.3799"/>
<polygon fill="midnightblue" stroke="midnightblue" points="1226.7,-148.499 1236.89,-145.581 1227.1,-141.511 1226.7,-148.499"/>
</g>
<!-- Node14 -->
<g id="node14" class="node"><title>Node14</title>
<g id="a_node14"><a xlink:href="../../df/d04/AnalysisStandardModel_8hh.html" target="_top" xlink:title="StandardModel/include\l/AnalysisStandardModel.hh">
<polygon fill="white" stroke="black" points="1963.5,-67.5 1963.5,-97.5 2099.5,-97.5 2099.5,-67.5 1963.5,-67.5"/>
<text text-anchor="start" x="1971.5" y="-85.5" font-family="Helvetica,sans-Serif" font-size="10.00">StandardModel/include</text>
<text text-anchor="middle" x="2031.5" y="-74.5" font-family="Helvetica,sans-Serif" font-size="10.00">/AnalysisStandardModel.hh</text>
</a>
</g>
</g>
<!-- Node2&#45;&gt;Node14 -->
<g id="edge13" class="edge"><title>Node2&#45;&gt;Node14</title>
<path fill="none" stroke="midnightblue" d="M1348.56,-146.138C1466.22,-141.086 1732.37,-127.233 1954.5,-98 1957.33,-97.6273 1960.22,-97.2181 1963.13,-96.781"/>
<polygon fill="midnightblue" stroke="midnightblue" points="1348.16,-142.651 1338.32,-146.571 1348.46,-149.645 1348.16,-142.651"/>
</g>
<!-- Node22 -->
<g id="node22" class="node"><title>Node22</title>
<g id="a_node22"><a xlink:href="../../d4/df2/AnalysisTopPartner_8hh.html" target="_top" xlink:title="TopPartner/include\l/AnalysisTopPartner.hh">
<polygon fill="white" stroke="red" points="428,-67.5 428,-97.5 547,-97.5 547,-67.5 428,-67.5"/>
<text text-anchor="start" x="436" y="-85.5" font-family="Helvetica,sans-Serif" font-size="10.00">TopPartner/include</text>
<text text-anchor="middle" x="487.5" y="-74.5" font-family="Helvetica,sans-Serif" font-size="10.00">/AnalysisTopPartner.hh</text>
</a>
</g>
</g>
<!-- Node2&#45;&gt;Node22 -->
<g id="edge21" class="edge"><title>Node2&#45;&gt;Node22</title>
<path fill="none" stroke="midnightblue" d="M1226.51,-143.545C1077.3,-131.421 695.22,-100.377 547.272,-88.3565"/>
<polygon fill="midnightblue" stroke="midnightblue" points="1226.6,-147.063 1236.85,-144.385 1227.17,-140.086 1226.6,-147.063"/>
</g>
<!-- Node4 -->
<g id="node4" class="node"><title>Node4</title>
<g id="a_node4"><a xlink:href="../../d1/da2/AnalysisCharged_8hh.html" target="_top" xlink:title="HeavyHiggs/include\l/AnalysisCharged.hh">
<polygon fill="white" stroke="red" points="687,-0.5 687,-30.5 794,-30.5 794,-0.5 687,-0.5"/>
<text text-anchor="start" x="695" y="-18.5" font-family="Helvetica,sans-Serif" font-size="10.00">HeavyHiggs/include</text>
<text text-anchor="middle" x="740.5" y="-7.5" font-family="Helvetica,sans-Serif" font-size="10.00">/AnalysisCharged.hh</text>
</a>
</g>
</g>
<!-- Node3&#45;&gt;Node4 -->
<g id="edge3" class="edge"><title>Node3&#45;&gt;Node4</title>
<path fill="none" stroke="midnightblue" d="M984.847,-67.6548C933.987,-57.816 864.496,-44.0798 803.5,-31 800.427,-30.3411 797.273,-29.6529 794.092,-28.9496"/>
<polygon fill="midnightblue" stroke="midnightblue" points="984.28,-71.1099 994.762,-69.5692 985.607,-64.2368 984.28,-71.1099"/>
</g>
<!-- Node5 -->
<g id="node5" class="node"><title>Node5</title>
<g id="a_node5"><a xlink:href="../../d2/d73/AnalysisFusion_8hh.html" target="_top" xlink:title="HeavyHiggs/include\l/AnalysisFusion.hh">
<polygon fill="white" stroke="red" points="812.5,-0.5 812.5,-30.5 916.5,-30.5 916.5,-0.5 812.5,-0.5"/>
<text text-anchor="start" x="820.5" y="-18.5" font-family="Helvetica,sans-Serif" font-size="10.00">HeavyHiggs/include</text>
<text text-anchor="middle" x="864.5" y="-7.5" font-family="Helvetica,sans-Serif" font-size="10.00">/AnalysisFusion.hh</text>
</a>
</g>
</g>
<!-- Node3&#45;&gt;Node5 -->
<g id="edge4" class="edge"><title>Node3&#45;&gt;Node5</title>
<path fill="none" stroke="midnightblue" d="M1005.81,-64.0917C974.655,-53.5988 935.489,-40.4082 906.296,-30.5765"/>
<polygon fill="midnightblue" stroke="midnightblue" points="1005.03,-67.5211 1015.62,-67.396 1007.26,-60.8872 1005.03,-67.5211"/>
</g>
<!-- Node6 -->
<g id="node6" class="node"><title>Node6</title>
<g id="a_node6"><a xlink:href="../../d4/de1/AnalysisNeutral_8hh.html" target="_top" xlink:title="HeavyHiggs/include\l/AnalysisNeutral.hh">
<polygon fill="white" stroke="red" points="934.5,-0.5 934.5,-30.5 1038.5,-30.5 1038.5,-0.5 934.5,-0.5"/>
<text text-anchor="start" x="942.5" y="-18.5" font-family="Helvetica,sans-Serif" font-size="10.00">HeavyHiggs/include</text>
<text text-anchor="middle" x="986.5" y="-7.5" font-family="Helvetica,sans-Serif" font-size="10.00">/AnalysisNeutral.hh</text>
</a>
</g>
</g>
<!-- Node3&#45;&gt;Node6 -->
<g id="edge5" class="edge"><title>Node3&#45;&gt;Node6</title>
<path fill="none" stroke="midnightblue" d="M1034.67,-60.5978C1023.95,-50.7831 1011.45,-39.3442 1001.88,-30.5765"/>
<polygon fill="midnightblue" stroke="midnightblue" points="1032.35,-63.225 1042.09,-67.396 1037.08,-58.0618 1032.35,-63.225"/>
</g>
<!-- Node7 -->
<g id="node7" class="node"><title>Node7</title>
<g id="a_node7"><a xlink:href="../../d6/d4e/AnalysisNeutralFourTop_8hh.html" target="_top" xlink:title="HeavyHiggs/include\l/AnalysisNeutralFourTop.hh">
<polygon fill="white" stroke="red" points="1218.5,-0.5 1218.5,-30.5 1356.5,-30.5 1356.5,-0.5 1218.5,-0.5"/>
<text text-anchor="start" x="1226.5" y="-18.5" font-family="Helvetica,sans-Serif" font-size="10.00">HeavyHiggs/include</text>
<text text-anchor="middle" x="1287.5" y="-7.5" font-family="Helvetica,sans-Serif" font-size="10.00">/AnalysisNeutralFourTop.hh</text>
</a>
</g>
</g>
<!-- Node3&#45;&gt;Node7 -->
<g id="edge6" class="edge"><title>Node3&#45;&gt;Node7</title>
<path fill="none" stroke="midnightblue" d="M1116.89,-64.7149C1154.32,-54.1373 1202.1,-40.6348 1237.57,-30.6109"/>
<polygon fill="midnightblue" stroke="midnightblue" points="1115.79,-61.3883 1107.12,-67.476 1117.7,-68.1244 1115.79,-61.3883"/>
</g>
<!-- Node8 -->
<g id="node8" class="node"><title>Node8</title>
<g id="a_node8"><a xlink:href="../../da/dd2/AnalysisHeavyHiggs_8cpp.html" target="_top" xlink:title="HeavyHiggs/source/Analysis\lHeavyHiggs.cpp">
<polygon fill="white" stroke="black" points="1057,-0.5 1057,-30.5 1200,-30.5 1200,-0.5 1057,-0.5"/>
<text text-anchor="start" x="1065" y="-18.5" font-family="Helvetica,sans-Serif" font-size="10.00">HeavyHiggs/source/Analysis</text>
<text text-anchor="middle" x="1128.5" y="-7.5" font-family="Helvetica,sans-Serif" font-size="10.00">HeavyHiggs.cpp</text>
</a>
</g>
</g>
<!-- Node3&#45;&gt;Node8 -->
<g id="edge7" class="edge"><title>Node3&#45;&gt;Node8</title>
<path fill="none" stroke="midnightblue" d="M1080.33,-60.5978C1091.05,-50.7831 1103.55,-39.3442 1113.12,-30.5765"/>
<polygon fill="midnightblue" stroke="midnightblue" points="1077.92,-58.0618 1072.91,-67.396 1082.65,-63.225 1077.92,-58.0618"/>
</g>
<!-- Node10 -->
<g id="node10" class="node"><title>Node10</title>
<g id="a_node10"><a xlink:href="../../d5/d34/AnalysisPair_8cpp.html" target="_top" xlink:title="HeavyHiggs/source/Analysis\lPair.cpp">
<polygon fill="white" stroke="black" points="1375,-0.5 1375,-30.5 1518,-30.5 1518,-0.5 1375,-0.5"/>
<text text-anchor="start" x="1383" y="-18.5" font-family="Helvetica,sans-Serif" font-size="10.00">HeavyHiggs/source/Analysis</text>
<text text-anchor="middle" x="1446.5" y="-7.5" font-family="Helvetica,sans-Serif" font-size="10.00">Pair.cpp</text>
</a>
</g>
</g>
<!-- Node9&#45;&gt;Node10 -->
<g id="edge9" class="edge"><title>Node9&#45;&gt;Node10</title>
<path fill="none" stroke="midnightblue" d="M1446.5,-57.1081C1446.5,-48.1539 1446.5,-38.3227 1446.5,-30.5765"/>
<polygon fill="midnightblue" stroke="midnightblue" points="1443,-57.3959 1446.5,-67.396 1450,-57.396 1443,-57.3959"/>
</g>
<!-- Node11 -->
<g id="node11" class="node"><title>Node11</title>
<g id="a_node11"><a xlink:href="../../d1/d87/HeavyHiggs_2source_2MainPair_8cpp.html" target="_top" xlink:title="HeavyHiggs/source/MainPair.cpp">
<polygon fill="white" stroke="black" points="1536,-6 1536,-25 1699,-25 1699,-6 1536,-6"/>
<text text-anchor="middle" x="1617.5" y="-13" font-family="Helvetica,sans-Serif" font-size="10.00">HeavyHiggs/source/MainPair.cpp</text>
</a>
</g>
</g>
<!-- Node9&#45;&gt;Node11 -->
<g id="edge10" class="edge"><title>Node9&#45;&gt;Node11</title>
<path fill="none" stroke="midnightblue" d="M1493.11,-63.7838C1526.26,-51.1807 1569.34,-34.8082 1595.12,-25.007"/>
<polygon fill="midnightblue" stroke="midnightblue" points="1491.71,-60.5712 1483.6,-67.396 1494.2,-67.1144 1491.71,-60.5712"/>
</g>
<!-- Node13 -->
<g id="node13" class="node"><title>Node13</title>
<g id="a_node13"><a xlink:href="../../df/d0a/main_8cpp.html" target="_top" xlink:title="HiggsCpv/source/main.cpp">
<polygon fill="white" stroke="black" points="0,-6 0,-25 135,-25 135,-6 0,-6"/>
<text text-anchor="middle" x="67.5" y="-13" font-family="Helvetica,sans-Serif" font-size="10.00">HiggsCpv/source/main.cpp</text>
</a>
</g>
</g>
<!-- Node12&#45;&gt;Node13 -->
<g id="edge12" class="edge"><title>Node12&#45;&gt;Node13</title>
<path fill="none" stroke="midnightblue" d="M132.086,-61.6409C114.535,-49.3742 92.9124,-34.2613 79.6716,-25.007"/>
<polygon fill="midnightblue" stroke="midnightblue" points="130.119,-64.536 140.32,-67.396 134.129,-58.7985 130.119,-64.536"/>
</g>
<!-- Node15 -->
<g id="node15" class="node"><title>Node15</title>
<g id="a_node15"><a xlink:href="../../d4/d6b/AnalysisBoson_8hh.html" target="_top" xlink:title="StandardModel/include\l/AnalysisBoson.hh">
<polygon fill="white" stroke="red" points="2279.5,-0.5 2279.5,-30.5 2395.5,-30.5 2395.5,-0.5 2279.5,-0.5"/>
<text text-anchor="start" x="2287.5" y="-18.5" font-family="Helvetica,sans-Serif" font-size="10.00">StandardModel/include</text>
<text text-anchor="middle" x="2337.5" y="-7.5" font-family="Helvetica,sans-Serif" font-size="10.00">/AnalysisBoson.hh</text>
</a>
</g>
</g>
<!-- Node14&#45;&gt;Node15 -->
<g id="edge14" class="edge"><title>Node14&#45;&gt;Node15</title>
<path fill="none" stroke="midnightblue" d="M2108.3,-65.3712C2155.18,-55.503 2216.31,-42.5884 2270.5,-31 2273.41,-30.3778 2276.39,-29.7388 2279.4,-29.0923"/>
<polygon fill="midnightblue" stroke="midnightblue" points="2107.29,-62.008 2098.22,-67.4925 2108.73,-68.8579 2107.29,-62.008"/>
</g>
<!-- Node16 -->
<g id="node16" class="node"><title>Node16</title>
<g id="a_node16"><a xlink:href="../../d6/dbe/AnalysisBottom_8hh.html" target="_top" xlink:title="StandardModel/include\l/AnalysisBottom.hh">
<polygon fill="white" stroke="red" points="1851.5,-0.5 1851.5,-30.5 1967.5,-30.5 1967.5,-0.5 1851.5,-0.5"/>
<text text-anchor="start" x="1859.5" y="-18.5" font-family="Helvetica,sans-Serif" font-size="10.00">StandardModel/include</text>
<text text-anchor="middle" x="1909.5" y="-7.5" font-family="Helvetica,sans-Serif" font-size="10.00">/AnalysisBottom.hh</text>
</a>
</g>
</g>
<!-- Node14&#45;&gt;Node16 -->
<g id="edge15" class="edge"><title>Node14&#45;&gt;Node16</title>
<path fill="none" stroke="midnightblue" d="M1995.98,-62.575C1976.79,-52.3502 1953.5,-39.94 1935.92,-30.5765"/>
<polygon fill="midnightblue" stroke="midnightblue" points="1994.56,-65.7827 2005.03,-67.396 1997.85,-59.6048 1994.56,-65.7827"/>
</g>
<!-- Node17 -->
<g id="node17" class="node"><title>Node17</title>
<g id="a_node17"><a xlink:href="../../d7/db6/AnalysisHiggs_8hh.html" target="_top" xlink:title="StandardModel/include\l/AnalysisHiggs.hh">
<polygon fill="white" stroke="red" points="2145.5,-0.5 2145.5,-30.5 2261.5,-30.5 2261.5,-0.5 2145.5,-0.5"/>
<text text-anchor="start" x="2153.5" y="-18.5" font-family="Helvetica,sans-Serif" font-size="10.00">StandardModel/include</text>
<text text-anchor="middle" x="2203.5" y="-7.5" font-family="Helvetica,sans-Serif" font-size="10.00">/AnalysisHiggs.hh</text>
</a>
</g>
</g>
<!-- Node14&#45;&gt;Node17 -->
<g id="edge16" class="edge"><title>Node14&#45;&gt;Node17</title>
<path fill="none" stroke="midnightblue" d="M2078.29,-63.8185C2105.93,-53.3707 2140.46,-40.3231 2166.25,-30.5765"/>
<polygon fill="midnightblue" stroke="midnightblue" points="2076.94,-60.5868 2068.82,-67.396 2079.41,-67.1349 2076.94,-60.5868"/>
</g>
<!-- Node18 -->
<g id="node18" class="node"><title>Node18</title>
<g id="a_node18"><a xlink:href="../../d0/dda/AnalysisTop_8hh.html" target="_top" xlink:title="StandardModel/include\l/AnalysisTop.hh">
<polygon fill="white" stroke="red" points="2547.5,-0.5 2547.5,-30.5 2663.5,-30.5 2663.5,-0.5 2547.5,-0.5"/>
<text text-anchor="start" x="2555.5" y="-18.5" font-family="Helvetica,sans-Serif" font-size="10.00">StandardModel/include</text>
<text text-anchor="middle" x="2605.5" y="-7.5" font-family="Helvetica,sans-Serif" font-size="10.00">/AnalysisTop.hh</text>
</a>
</g>
</g>
<!-- Node14&#45;&gt;Node18 -->
<g id="edge17" class="edge"><title>Node14&#45;&gt;Node18</title>
<path fill="none" stroke="midnightblue" d="M2109.93,-66.9009C2300.3,-41.8266 2352.07,-58.8579 2538.5,-31 2541.44,-30.5603 2544.45,-30.0682 2547.48,-29.5381"/>
<polygon fill="midnightblue" stroke="midnightblue" points="2109.32,-63.4512 2099.87,-68.2474 2110.25,-70.3893 2109.32,-63.4512"/>
</g>
<!-- Node19 -->
<g id="node19" class="node"><title>Node19</title>
<g id="a_node19"><a xlink:href="../../da/dd8/AnalysisW_8hh.html" target="_top" xlink:title="StandardModel/include\l/AnalysisW.hh">
<polygon fill="white" stroke="red" points="2413.5,-0.5 2413.5,-30.5 2529.5,-30.5 2529.5,-0.5 2413.5,-0.5"/>
<text text-anchor="start" x="2421.5" y="-18.5" font-family="Helvetica,sans-Serif" font-size="10.00">StandardModel/include</text>
<text text-anchor="middle" x="2471.5" y="-7.5" font-family="Helvetica,sans-Serif" font-size="10.00">/AnalysisW.hh</text>
</a>
</g>
</g>
<!-- Node14&#45;&gt;Node19 -->
<g id="edge18" class="edge"><title>Node14&#45;&gt;Node19</title>
<path fill="none" stroke="midnightblue" d="M2109.93,-66.8446C2241.2,-47.0181 2277.01,-52.5012 2404.5,-31 2407.43,-30.5052 2410.43,-29.9688 2413.46,-29.4035"/>
<polygon fill="midnightblue" stroke="midnightblue" points="2109.25,-63.4082 2099.89,-68.3814 2110.31,-70.3275 2109.25,-63.4082"/>
</g>
<!-- Node20 -->
<g id="node20" class="node"><title>Node20</title>
<g id="a_node20"><a xlink:href="../../d0/d88/AnalysisZ_8hh.html" target="_top" xlink:title="StandardModel/include\l/AnalysisZ.hh">
<polygon fill="white" stroke="red" points="1717.5,-0.5 1717.5,-30.5 1833.5,-30.5 1833.5,-0.5 1717.5,-0.5"/>
<text text-anchor="start" x="1725.5" y="-18.5" font-family="Helvetica,sans-Serif" font-size="10.00">StandardModel/include</text>
<text text-anchor="middle" x="1775.5" y="-7.5" font-family="Helvetica,sans-Serif" font-size="10.00">/AnalysisZ.hh</text>
</a>
</g>
</g>
<!-- Node14&#45;&gt;Node20 -->
<g id="edge19" class="edge"><title>Node14&#45;&gt;Node20</title>
<path fill="none" stroke="midnightblue" d="M1966.45,-64.9844C1924.64,-54.3674 1870.89,-40.7201 1831.08,-30.6109"/>
<polygon fill="midnightblue" stroke="midnightblue" points="1965.71,-68.4073 1976.27,-67.476 1967.44,-61.6226 1965.71,-68.4073"/>
</g>
<!-- Node21 -->
<g id="node21" class="node"><title>Node21</title>
<g id="a_node21"><a xlink:href="../../df/d46/AnalysisStandardModel_8cpp.html" target="_top" xlink:title="StandardModel/source\l/AnalysisStandardModel.cpp">
<polygon fill="white" stroke="black" points="1986,-0.5 1986,-30.5 2127,-30.5 2127,-0.5 1986,-0.5"/>
<text text-anchor="start" x="1994" y="-18.5" font-family="Helvetica,sans-Serif" font-size="10.00">StandardModel/source</text>
<text text-anchor="middle" x="2056.5" y="-7.5" font-family="Helvetica,sans-Serif" font-size="10.00">/AnalysisStandardModel.cpp</text>
</a>
</g>
</g>
<!-- Node14&#45;&gt;Node21 -->
<g id="edge20" class="edge"><title>Node14&#45;&gt;Node21</title>
<path fill="none" stroke="midnightblue" d="M2040.54,-57.9907C2044.08,-48.8044 2048.01,-38.5781 2051.09,-30.5765"/>
<polygon fill="midnightblue" stroke="midnightblue" points="2037.25,-56.8061 2036.92,-67.396 2043.78,-59.319 2037.25,-56.8061"/>
</g>
<!-- Node23 -->
<g id="node23" class="node"><title>Node23</title>
<g id="a_node23"><a xlink:href="../../d1/dbf/AnalysisTopPartnerEffective_8hh.html" target="_top" xlink:title="TopPartner/include\l/AnalysisTopPartnerEffective.hh">
<polygon fill="white" stroke="red" points="153.5,-0.5 153.5,-30.5 311.5,-30.5 311.5,-0.5 153.5,-0.5"/>
<text text-anchor="start" x="161.5" y="-18.5" font-family="Helvetica,sans-Serif" font-size="10.00">TopPartner/include</text>
<text text-anchor="middle" x="232.5" y="-7.5" font-family="Helvetica,sans-Serif" font-size="10.00">/AnalysisTopPartnerEffective.hh</text>
</a>
</g>
</g>
<!-- Node22&#45;&gt;Node23 -->
<g id="edge22" class="edge"><title>Node22&#45;&gt;Node23</title>
<path fill="none" stroke="midnightblue" d="M422.708,-64.9844C381.057,-54.3674 327.517,-40.7201 287.858,-30.6109"/>
<polygon fill="midnightblue" stroke="midnightblue" points="421.928,-68.3974 432.483,-67.476 423.657,-61.6143 421.928,-68.3974"/>
</g>
<!-- Node24 -->
<g id="node24" class="node"><title>Node24</title>
<g id="a_node24"><a xlink:href="../../da/dd2/AnalysisTopPartnerPair_8hh.html" target="_top" xlink:title="TopPartner/include\l/AnalysisTopPartnerPair.hh">
<polygon fill="white" stroke="red" points="329.5,-0.5 329.5,-30.5 465.5,-30.5 465.5,-0.5 329.5,-0.5"/>
<text text-anchor="start" x="337.5" y="-18.5" font-family="Helvetica,sans-Serif" font-size="10.00">TopPartner/include</text>
<text text-anchor="middle" x="397.5" y="-7.5" font-family="Helvetica,sans-Serif" font-size="10.00">/AnalysisTopPartnerPair.hh</text>
</a>
</g>
</g>
<!-- Node22&#45;&gt;Node24 -->
<g id="edge23" class="edge"><title>Node22&#45;&gt;Node24</title>
<path fill="none" stroke="midnightblue" d="M459.74,-61.4511C445.895,-51.4517 429.484,-39.5995 416.991,-30.5765"/>
<polygon fill="midnightblue" stroke="midnightblue" points="457.815,-64.3784 467.971,-67.396 461.914,-58.7036 457.815,-64.3784"/>
</g>
<!-- Node25 -->
<g id="node25" class="node"><title>Node25</title>
<g id="a_node25"><a xlink:href="../../d9/de2/AnalysisTopPartnerSingleHadronic_8hh.html" target="_top" xlink:title="TopPartner/include\l/AnalysisTopPartnerSingleHadronic.hh">
<polygon fill="white" stroke="red" points="484,-0.5 484,-30.5 669,-30.5 669,-0.5 484,-0.5"/>
<text text-anchor="start" x="492" y="-18.5" font-family="Helvetica,sans-Serif" font-size="10.00">TopPartner/include</text>
<text text-anchor="middle" x="576.5" y="-7.5" font-family="Helvetica,sans-Serif" font-size="10.00">/AnalysisTopPartnerSingleHadronic.hh</text>
</a>
</g>
</g>
<!-- Node22&#45;&gt;Node25 -->
<g id="edge24" class="edge"><title>Node22&#45;&gt;Node25</title>
<path fill="none" stroke="midnightblue" d="M514.952,-61.4511C528.643,-51.4517 544.871,-39.5995 557.226,-30.5765"/>
<polygon fill="midnightblue" stroke="midnightblue" points="512.823,-58.6716 506.812,-67.396 516.952,-64.3245 512.823,-58.6716"/>
</g>
<!-- Node27 -->
<g id="node27" class="node"><title>Node27</title>
<g id="a_node27"><a xlink:href="../../de/d6d/Selector_8cpp.html" target="_top" xlink:title="source/Selector.cpp">
<polygon fill="white" stroke="black" points="2547.5,-140 2547.5,-159 2651.5,-159 2651.5,-140 2547.5,-140"/>
<text text-anchor="middle" x="2599.5" y="-147" font-family="Helvetica,sans-Serif" font-size="10.00">source/Selector.cpp</text>
</a>
</g>
</g>
<!-- Node26&#45;&gt;Node27 -->
<g id="edge26" class="edge"><title>Node26&#45;&gt;Node27</title>
<path fill="none" stroke="midnightblue" d="M2602.93,-191.317C2602.02,-180.496 2600.92,-167.398 2600.22,-159.009"/>
<polygon fill="midnightblue" stroke="midnightblue" points="2599.46,-191.803 2603.78,-201.475 2606.43,-191.217 2599.46,-191.803"/>
</g>
<!-- Node29 -->
<g id="node29" class="node"><title>Node29</title>
<g id="a_node29"><a xlink:href="../../d7/da1/JetPairTagger_8hh.html" target="_top" xlink:title="HeavyHiggs/include\l/JetPairTagger.hh">
<polygon fill="white" stroke="red" points="1636.5,-67.5 1636.5,-97.5 1740.5,-97.5 1740.5,-67.5 1636.5,-67.5"/>
<text text-anchor="start" x="1644.5" y="-85.5" font-family="Helvetica,sans-Serif" font-size="10.00">HeavyHiggs/include</text>
<text text-anchor="middle" x="1688.5" y="-74.5" font-family="Helvetica,sans-Serif" font-size="10.00">/JetPairTagger.hh</text>
</a>
</g>
</g>
<!-- Node28&#45;&gt;Node29 -->
<g id="edge28" class="edge"><title>Node28&#45;&gt;Node29</title>
<path fill="none" stroke="midnightblue" d="M2204.41,-199.117C2175.83,-192.097 2141.47,-181.186 2113.5,-165 2096.08,-154.92 2098.7,-142.592 2080.5,-134 2065.3,-126.822 1843.59,-101.033 1740.5,-89.3389"/>
<polygon fill="midnightblue" stroke="midnightblue" points="2203.72,-202.55 2214.26,-201.44 2205.33,-195.737 2203.72,-202.55"/>
</g>
<!-- Node30 -->
<g id="node30" class="node"><title>Node30</title>
<g id="a_node30"><a xlink:href="../../de/dbb/BottomTagger_8hh.html" target="_top" xlink:title="StandardModel/include\l/BottomTagger.hh">
<polygon fill="white" stroke="red" points="2203.5,-134.5 2203.5,-164.5 2319.5,-164.5 2319.5,-134.5 2203.5,-134.5"/>
<text text-anchor="start" x="2211.5" y="-152.5" font-family="Helvetica,sans-Serif" font-size="10.00">StandardModel/include</text>
<text text-anchor="middle" x="2261.5" y="-141.5" font-family="Helvetica,sans-Serif" font-size="10.00">/BottomTagger.hh</text>
</a>
</g>
</g>
<!-- Node28&#45;&gt;Node30 -->
<g id="edge31" class="edge"><title>Node28&#45;&gt;Node30</title>
<path fill="none" stroke="midnightblue" d="M2261.5,-191.235C2261.5,-182.586 2261.5,-172.497 2261.5,-164.523"/>
<polygon fill="midnightblue" stroke="midnightblue" points="2258,-191.475 2261.5,-201.475 2265,-191.475 2258,-191.475"/>
</g>
<!-- Node31 -->
<g id="node31" class="node"><title>Node31</title>
<g id="a_node31"><a xlink:href="../../db/d94/WHadronicTagger_8hh.html" target="_top" xlink:title="StandardModel/include\l/WHadronicTagger.hh">
<polygon fill="white" stroke="red" points="2327.5,-67.5 2327.5,-97.5 2443.5,-97.5 2443.5,-67.5 2327.5,-67.5"/>
<text text-anchor="start" x="2335.5" y="-85.5" font-family="Helvetica,sans-Serif" font-size="10.00">StandardModel/include</text>
<text text-anchor="middle" x="2385.5" y="-74.5" font-family="Helvetica,sans-Serif" font-size="10.00">/WHadronicTagger.hh</text>
</a>
</g>
</g>
<!-- Node28&#45;&gt;Node31 -->
<g id="edge42" class="edge"><title>Node28&#45;&gt;Node31</title>
<path fill="none" stroke="midnightblue" d="M2286.32,-196.37C2299.7,-188.306 2315.99,-177.28 2328.5,-165 2349.57,-144.32 2367.93,-114.903 2377.79,-97.6488"/>
<polygon fill="midnightblue" stroke="midnightblue" points="2284.47,-193.395 2277.6,-201.459 2288,-199.441 2284.47,-193.395"/>
</g>
<!-- Node32 -->
<g id="node32" class="node"><title>Node32</title>
<g id="a_node32"><a xlink:href="../../d8/daf/ZHadronicTagger_8hh.html" target="_top" xlink:title="StandardModel/include\l/ZHadronicTagger.hh">
<polygon fill="white" stroke="red" points="1829.5,-67.5 1829.5,-97.5 1945.5,-97.5 1945.5,-67.5 1829.5,-67.5"/>
<text text-anchor="start" x="1837.5" y="-85.5" font-family="Helvetica,sans-Serif" font-size="10.00">StandardModel/include</text>
<text text-anchor="middle" x="1887.5" y="-74.5" font-family="Helvetica,sans-Serif" font-size="10.00">/ZHadronicTagger.hh</text>
</a>
</g>
</g>
<!-- Node28&#45;&gt;Node32 -->
<g id="edge45" class="edge"><title>Node28&#45;&gt;Node32</title>
<path fill="none" stroke="midnightblue" d="M2236.62,-196.243C2201.23,-176.851 2137.95,-142.847 2113.5,-134 2105.53,-131.115 2009.86,-110.09 1945.58,-96.0942"/>
<polygon fill="midnightblue" stroke="midnightblue" points="2235.35,-199.542 2245.8,-201.293 2238.73,-193.408 2235.35,-199.542"/>
</g>
<!-- Node33 -->
<g id="node33" class="node"><title>Node33</title>
<g id="a_node33"><a xlink:href="../../dc/d06/BosonTagger_8hh.html" target="_top" xlink:title="StandardModel/include\l/BosonTagger.hh">
<polygon fill="white" stroke="red" points="2461.5,-67.5 2461.5,-97.5 2577.5,-97.5 2577.5,-67.5 2461.5,-67.5"/>
<text text-anchor="start" x="2469.5" y="-85.5" font-family="Helvetica,sans-Serif" font-size="10.00">StandardModel/include</text>
<text text-anchor="middle" x="2519.5" y="-74.5" font-family="Helvetica,sans-Serif" font-size="10.00">/BosonTagger.hh</text>
</a>
</g>
</g>
<!-- Node28&#45;&gt;Node33 -->
<g id="edge46" class="edge"><title>Node28&#45;&gt;Node33</title>
<path fill="none" stroke="midnightblue" d="M2290.51,-197.182C2309.32,-188.611 2334.2,-176.784 2355.5,-165 2378.05,-152.526 2381.75,-146.104 2404.5,-134 2430.39,-120.225 2460.82,-106.985 2483.87,-97.5197"/>
<polygon fill="midnightblue" stroke="midnightblue" points="2288.96,-194.044 2281.28,-201.349 2291.84,-200.425 2288.96,-194.044"/>
</g>
<!-- Node34 -->
<g id="node34" class="node"><title>Node34</title>
<g id="a_node34"><a xlink:href="../../d1/d1b/HiggsTagger_8hh.html" target="_top" xlink:title="StandardModel/include\l/HiggsTagger.hh">
<polygon fill="white" stroke="red" points="2117.5,-67.5 2117.5,-97.5 2233.5,-97.5 2233.5,-67.5 2117.5,-67.5"/>
<text text-anchor="start" x="2125.5" y="-85.5" font-family="Helvetica,sans-Serif" font-size="10.00">StandardModel/include</text>
<text text-anchor="middle" x="2175.5" y="-74.5" font-family="Helvetica,sans-Serif" font-size="10.00">/HiggsTagger.hh</text>
</a>
</g>
</g>
<!-- Node28&#45;&gt;Node34 -->
<g id="edge47" class="edge"><title>Node28&#45;&gt;Node34</title>
<path fill="none" stroke="midnightblue" d="M2232.21,-196.695C2218.81,-189.197 2203.88,-178.585 2194.5,-165 2180.39,-144.554 2176.65,-115.059 2175.72,-97.7262"/>
<polygon fill="midnightblue" stroke="midnightblue" points="2230.66,-199.838 2241.14,-201.387 2233.92,-193.64 2230.66,-199.838"/>
</g>
<!-- Node35 -->
<g id="node35" class="node"><title>Node35</title>
<g id="a_node35"><a xlink:href="../../d2/dd8/WLeptonicTagger_8hh.html" target="_top" xlink:title="StandardModel/include\l/WLeptonicTagger.hh">
<polygon fill="white" stroke="red" points="2413.5,-134.5 2413.5,-164.5 2529.5,-164.5 2529.5,-134.5 2413.5,-134.5"/>
<text text-anchor="start" x="2421.5" y="-152.5" font-family="Helvetica,sans-Serif" font-size="10.00">StandardModel/include</text>
<text text-anchor="middle" x="2471.5" y="-141.5" font-family="Helvetica,sans-Serif" font-size="10.00">/WLeptonicTagger.hh</text>
</a>
</g>
</g>
<!-- Node28&#45;&gt;Node35 -->
<g id="edge43" class="edge"><title>Node28&#45;&gt;Node35</title>
<path fill="none" stroke="midnightblue" d="M2301.26,-198.734C2335.53,-189.023 2385.17,-174.961 2422.01,-164.523"/>
<polygon fill="midnightblue" stroke="midnightblue" points="2300.26,-195.382 2291.59,-201.475 2302.16,-202.116 2300.26,-195.382"/>
</g>
<!-- Node36 -->
<g id="node36" class="node"><title>Node36</title>
<g id="a_node36"><a xlink:href="../../de/d57/TauTagger_8hh.html" target="_top" xlink:title="StandardModel/include\l/TauTagger.hh">
<polygon fill="white" stroke="red" points="1955.5,-134.5 1955.5,-164.5 2071.5,-164.5 2071.5,-134.5 1955.5,-134.5"/>
<text text-anchor="start" x="1963.5" y="-152.5" font-family="Helvetica,sans-Serif" font-size="10.00">StandardModel/include</text>
<text text-anchor="middle" x="2013.5" y="-141.5" font-family="Helvetica,sans-Serif" font-size="10.00">/TauTagger.hh</text>
</a>
</g>
</g>
<!-- Node28&#45;&gt;Node36 -->
<g id="edge48" class="edge"><title>Node28&#45;&gt;Node36</title>
<path fill="none" stroke="midnightblue" d="M2216.1,-199.107C2175.58,-189.386 2116.01,-175.095 2071.95,-164.523"/>
<polygon fill="midnightblue" stroke="midnightblue" points="2215.43,-202.545 2225.97,-201.475 2217.06,-195.739 2215.43,-202.545"/>
</g>
<!-- Node29&#45;&gt;Node7 -->
<g id="edge29" class="edge"><title>Node29&#45;&gt;Node7</title>
<path fill="none" stroke="midnightblue" d="M1626.3,-72.3171C1561.2,-62.5783 1456.04,-46.4905 1365.5,-31 1362.65,-30.5122 1359.74,-30.0069 1356.8,-29.4902"/>
<polygon fill="midnightblue" stroke="midnightblue" points="1625.99,-75.8094 1636.4,-73.8245 1627.02,-68.8862 1625.99,-75.8094"/>
</g>
<!-- Node29&#45;&gt;Node11 -->
<g id="edge30" class="edge"><title>Node29&#45;&gt;Node11</title>
<path fill="none" stroke="midnightblue" d="M1665.38,-60.335C1652.35,-48.401 1636.76,-34.1359 1627,-25.1945"/>
<polygon fill="midnightblue" stroke="midnightblue" points="1663.35,-63.225 1673.09,-67.396 1668.08,-58.0618 1663.35,-63.225"/>
</g>
<!-- Node30&#45;&gt;Node15 -->
<g id="edge33" class="edge"><title>Node30&#45;&gt;Node15</title>
<path fill="none" stroke="midnightblue" d="M2274.76,-125.476C2290.53,-98.0734 2316.38,-53.1852 2329.43,-30.5247"/>
<polygon fill="midnightblue" stroke="midnightblue" points="2271.59,-123.961 2269.63,-134.374 2277.66,-127.454 2271.59,-123.961"/>
</g>
<!-- Node30&#45;&gt;Node17 -->
<g id="edge34" class="edge"><title>Node30&#45;&gt;Node17</title>
<path fill="none" stroke="midnightblue" d="M2258.63,-124.289C2255.99,-107.584 2251.14,-85.1945 2242.5,-67 2236.13,-53.5911 2225.75,-40.3833 2217.29,-30.8399"/>
<polygon fill="midnightblue" stroke="midnightblue" points="2255.19,-124.936 2260.06,-134.344 2262.12,-123.952 2255.19,-124.936"/>
</g>
<!-- Node30&#45;&gt;Node29 -->
<g id="edge32" class="edge"><title>Node30&#45;&gt;Node29</title>
<path fill="none" stroke="midnightblue" d="M2193.24,-140.757C2077.44,-127.62 1844.92,-101.244 1740.89,-89.4436"/>
<polygon fill="midnightblue" stroke="midnightblue" points="2193.07,-144.26 2203.4,-141.91 2193.86,-137.305 2193.07,-144.26"/>
</g>
<!-- Node30&#45;&gt;Node31 -->
<g id="edge35" class="edge"><title>Node30&#45;&gt;Node31</title>
<path fill="none" stroke="midnightblue" d="M2297.34,-129.714C2316.89,-119.463 2340.7,-106.983 2358.65,-97.5765"/>
<polygon fill="midnightblue" stroke="midnightblue" points="2295.64,-126.653 2288.41,-134.396 2298.89,-132.853 2295.64,-126.653"/>
</g>
<!-- Node30&#45;&gt;Node32 -->
<g id="edge38" class="edge"><title>Node30&#45;&gt;Node32</title>
<path fill="none" stroke="midnightblue" d="M2193.25,-138.276C2130.92,-128.702 2036.3,-113.57 1954.5,-98 1951.58,-97.4437 1948.59,-96.8577 1945.57,-96.2533"/>
<polygon fill="midnightblue" stroke="midnightblue" points="2192.93,-141.769 2203.35,-139.823 2193.99,-134.85 2192.93,-141.769"/>
</g>
<!-- Node30&#45;&gt;Node33 -->
<g id="edge40" class="edge"><title>Node30&#45;&gt;Node33</title>
<path fill="none" stroke="midnightblue" d="M2327.05,-131.984C2369.2,-121.367 2423.36,-107.72 2463.49,-97.6109"/>
<polygon fill="midnightblue" stroke="midnightblue" points="2326.01,-128.639 2317.16,-134.476 2327.72,-135.427 2326.01,-128.639"/>
</g>
<!-- Node30&#45;&gt;Node34 -->
<g id="edge41" class="edge"><title>Node30&#45;&gt;Node34</title>
<path fill="none" stroke="midnightblue" d="M2234.6,-128.168C2221.45,-118.228 2205.95,-106.514 2194.12,-97.5765"/>
<polygon fill="midnightblue" stroke="midnightblue" points="2232.75,-131.158 2242.84,-134.396 2236.97,-125.574 2232.75,-131.158"/>
</g>
<!-- Node31&#45;&gt;Node18 -->
<g id="edge36" class="edge"><title>Node31&#45;&gt;Node18</title>
<path fill="none" stroke="midnightblue" d="M2442.77,-64.5797C2478.5,-54.0225 2523.96,-40.5921 2557.74,-30.6109"/>
<polygon fill="midnightblue" stroke="midnightblue" points="2441.56,-61.2859 2432.97,-67.476 2443.55,-67.999 2441.56,-61.2859"/>
</g>
<!-- Node31&#45;&gt;Node19 -->
<g id="edge37" class="edge"><title>Node31&#45;&gt;Node19</title>
<path fill="none" stroke="midnightblue" d="M2412.4,-61.1677C2425.55,-51.2283 2441.05,-39.5144 2452.88,-30.5765"/>
<polygon fill="midnightblue" stroke="midnightblue" points="2410.03,-58.5741 2404.16,-67.396 2414.25,-64.1585 2410.03,-58.5741"/>
</g>
<!-- Node32&#45;&gt;Node20 -->
<g id="edge39" class="edge"><title>Node32&#45;&gt;Node20</title>
<path fill="none" stroke="midnightblue" d="M1854.41,-62.2956C1836.88,-52.1248 1815.74,-39.8549 1799.75,-30.5765"/>
<polygon fill="midnightblue" stroke="midnightblue" points="1852.79,-65.4036 1863.2,-67.396 1856.31,-59.3493 1852.79,-65.4036"/>
</g>
<!-- Node35&#45;&gt;Node18 -->
<g id="edge44" class="edge"><title>Node35&#45;&gt;Node18</title>
<path fill="none" stroke="midnightblue" d="M2539.39,-130.808C2556.92,-123.283 2574.28,-112.72 2586.5,-98 2602.56,-78.6635 2605.59,-48.2421 2605.87,-30.5482"/>
<polygon fill="midnightblue" stroke="midnightblue" points="2537.65,-127.731 2529.66,-134.683 2540.24,-134.234 2537.65,-127.731"/>
</g>
<!-- Node38 -->
<g id="node38" class="node"><title>Node38</title>
<g id="a_node38"><a xlink:href="../../d1/de1/AnalysisBase_8cpp.html" target="_top" xlink:title="source/AnalysisBase.cpp">
<polygon fill="white" stroke="black" points="2669.5,-140 2669.5,-159 2797.5,-159 2797.5,-140 2669.5,-140"/>
<text text-anchor="middle" x="2733.5" y="-147" font-family="Helvetica,sans-Serif" font-size="10.00">source/AnalysisBase.cpp</text>
</a>
</g>
</g>
<!-- Node37&#45;&gt;Node38 -->
<g id="edge50" class="edge"><title>Node37&#45;&gt;Node38</title>
<path fill="none" stroke="midnightblue" d="M2730.07,-191.317C2730.98,-180.496 2732.08,-167.398 2732.78,-159.009"/>
<polygon fill="midnightblue" stroke="midnightblue" points="2726.57,-191.217 2729.22,-201.475 2733.54,-191.803 2726.57,-191.217"/>
</g>
<!-- Node37&#45;&gt;Node39 -->
<g id="edge51" class="edge"><title>Node37&#45;&gt;Node39</title>
<path fill="none" stroke="midnightblue" d="M2757.47,-197.327C2783.87,-185.776 2822.14,-169.032 2845.05,-159.009"/>
<polygon fill="midnightblue" stroke="midnightblue" points="2755.74,-194.26 2747.99,-201.475 2758.55,-200.673 2755.74,-194.26"/>
</g>
<!-- Node42 -->
<g id="node42" class="node"><title>Node42</title>
<g id="a_node42"><a xlink:href="../../da/d88/Trees_8cpp.html" target="_top" xlink:title="source/Trees.cpp">
<polygon fill="white" stroke="black" points="2986.5,-140 2986.5,-159 3078.5,-159 3078.5,-140 2986.5,-140"/>
<text text-anchor="middle" x="3032.5" y="-147" font-family="Helvetica,sans-Serif" font-size="10.00">source/Trees.cpp</text>
</a>
</g>
</g>
<!-- Node41&#45;&gt;Node42 -->
<g id="edge54" class="edge"><title>Node41&#45;&gt;Node42</title>
<path fill="none" stroke="midnightblue" d="M3032.5,-191.317C3032.5,-180.496 3032.5,-167.398 3032.5,-159.009"/>
<polygon fill="midnightblue" stroke="midnightblue" points="3029,-191.475 3032.5,-201.475 3036,-191.475 3029,-191.475"/>
</g>
</g>
</svg>
