<?xml version="1.0" encoding="UTF-8" standalone="no"?>
<!DOCTYPE svg PUBLIC "-//W3C//DTD SVG 1.1//EN"
 "http://www.w3.org/Graphics/SVG/1.1/DTD/svg11.dtd">
<!-- Generated by graphviz version 2.38.0 (20140413.2041)
 -->
<!-- Title: StandardModel/source/MainW.cpp Pages: 1 -->
<svg width="1847pt" height="442pt"
 viewBox="0.00 0.00 1846.58 442.00" xmlns="http://www.w3.org/2000/svg" xmlns:xlink="http://www.w3.org/1999/xlink">
<g id="graph0" class="graph" transform="scale(1 1) rotate(0) translate(4 438)">
<title>StandardModel/source/MainW.cpp</title>
<polygon fill="white" stroke="none" points="-4,4 -4,-438 1842.58,-438 1842.58,4 -4,4"/>
<!-- Node1 -->
<g id="node1" class="node"><title>Node1</title>
<polygon fill="#bfbfbf" stroke="black" points="967.5,-403.5 967.5,-433.5 1081.5,-433.5 1081.5,-403.5 967.5,-403.5"/>
<text text-anchor="start" x="975.5" y="-421.5" font-family="Helvetica,sans-Serif" font-size="10.00">StandardModel/source</text>
<text text-anchor="middle" x="1024.5" y="-410.5" font-family="Helvetica,sans-Serif" font-size="10.00">/MainW.cpp</text>
</g>
<!-- Node2 -->
<g id="node2" class="node"><title>Node2</title>
<g id="a_node2"><a xlink:href="../../da/dd8/AnalysisW_8hh.html" target="_top" xlink:title="AnalysisW.hh">
<polygon fill="white" stroke="black" points="919,-347.5 919,-366.5 996,-366.5 996,-347.5 919,-347.5"/>
<text text-anchor="middle" x="957.5" y="-354.5" font-family="Helvetica,sans-Serif" font-size="10.00">AnalysisW.hh</text>
</a>
</g>
</g>
<!-- Node1&#45;&gt;Node2 -->
<g id="edge1" class="edge"><title>Node1&#45;&gt;Node2</title>
<path fill="none" stroke="midnightblue" d="M1008.62,-403.399C998.485,-394.397 985.338,-382.721 974.915,-373.465"/>
<polygon fill="midnightblue" stroke="midnightblue" points="977.05,-370.681 967.249,-366.658 972.402,-375.915 977.05,-370.681"/>
</g>
<!-- Node38 -->
<g id="node38" class="node"><title>Node38</title>
<g id="a_node38"><a xlink:href="../../db/d94/WHadronicTagger_8hh.html" target="_top" xlink:title="WHadronicTagger.hh">
<polygon fill="white" stroke="black" points="945,-291.5 945,-310.5 1054,-310.5 1054,-291.5 945,-291.5"/>
<text text-anchor="middle" x="999.5" y="-298.5" font-family="Helvetica,sans-Serif" font-size="10.00">WHadronicTagger.hh</text>
</a>
</g>
</g>
<!-- Node1&#45;&gt;Node38 -->
<g id="edge70" class="edge"><title>Node1&#45;&gt;Node38</title>
<path fill="none" stroke="midnightblue" d="M1021.43,-403.337C1016.93,-382.527 1008.52,-343.663 1003.52,-320.583"/>
<polygon fill="midnightblue" stroke="midnightblue" points="1006.91,-319.703 1001.38,-310.669 1000.07,-321.184 1006.91,-319.703"/>
</g>
<!-- Node50 -->
<g id="node50" class="node"><title>Node50</title>
<g id="a_node50"><a xlink:href="../../d2/dd8/WLeptonicTagger_8hh.html" target="_top" xlink:title="WLeptonicTagger.hh">
<polygon fill="white" stroke="black" points="1084,-291.5 1084,-310.5 1191,-310.5 1191,-291.5 1084,-291.5"/>
<text text-anchor="middle" x="1137.5" y="-298.5" font-family="Helvetica,sans-Serif" font-size="10.00">WLeptonicTagger.hh</text>
</a>
</g>
</g>
<!-- Node1&#45;&gt;Node50 -->
<g id="edge71" class="edge"><title>Node1&#45;&gt;Node50</title>
<path fill="none" stroke="midnightblue" d="M1038.36,-403.337C1059.55,-381.676 1099.88,-340.453 1122.01,-317.832"/>
<polygon fill="midnightblue" stroke="midnightblue" points="1124.53,-320.265 1129.02,-310.669 1119.52,-315.37 1124.53,-320.265"/>
</g>
<!-- Node3 -->
<g id="node3" class="node"><title>Node3</title>
<g id="a_node3"><a xlink:href="../../df/d04/AnalysisStandardModel_8hh.html" target="_top" xlink:title="AnalysisStandardModel.hh">
<polygon fill="white" stroke="black" points="183,-291.5 183,-310.5 316,-310.5 316,-291.5 183,-291.5"/>
<text text-anchor="middle" x="249.5" y="-298.5" font-family="Helvetica,sans-Serif" font-size="10.00">AnalysisStandardModel.hh</text>
</a>
</g>
</g>
<!-- Node2&#45;&gt;Node3 -->
<g id="edge2" class="edge"><title>Node2&#45;&gt;Node3</title>
<path fill="none" stroke="midnightblue" d="M918.932,-353.058C806.382,-344.474 476.821,-319.338 326.2,-307.85"/>
<polygon fill="midnightblue" stroke="midnightblue" points="326.343,-304.351 316.106,-307.08 325.811,-311.331 326.343,-304.351"/>
</g>
<!-- Node2&#45;&gt;Node38 -->
<g id="edge48" class="edge"><title>Node2&#45;&gt;Node38</title>
<path fill="none" stroke="midnightblue" d="M964.435,-347.083C970.429,-339.377 979.252,-328.033 986.548,-318.653"/>
<polygon fill="midnightblue" stroke="midnightblue" points="989.317,-320.793 992.694,-310.751 983.791,-316.496 989.317,-320.793"/>
</g>
<!-- Node4 -->
<g id="node4" class="node"><title>Node4</title>
<g id="a_node4"><a xlink:href="../../d0/d02/Analysis_8hh.html" target="_top" xlink:title="Analysis.hh">
<polygon fill="white" stroke="black" points="407.5,-235.5 407.5,-254.5 475.5,-254.5 475.5,-235.5 407.5,-235.5"/>
<text text-anchor="middle" x="441.5" y="-242.5" font-family="Helvetica,sans-Serif" font-size="10.00">Analysis.hh</text>
</a>
</g>
</g>
<!-- Node3&#45;&gt;Node4 -->
<g id="edge3" class="edge"><title>Node3&#45;&gt;Node4</title>
<path fill="none" stroke="midnightblue" d="M279.923,-291.444C312.785,-282.201 365.285,-267.436 401.474,-257.257"/>
<polygon fill="midnightblue" stroke="midnightblue" points="402.54,-260.593 411.219,-254.516 400.645,-253.855 402.54,-260.593"/>
</g>
<!-- Node30 -->
<g id="node30" class="node"><title>Node30</title>
<g id="a_node30"><a xlink:href="../../d8/de8/Debug_8hh.html" target="_top" xlink:title="Debug.hh">
<polygon fill="white" stroke="black" points="255,-123.5 255,-142.5 314,-142.5 314,-123.5 255,-123.5"/>
<text text-anchor="middle" x="284.5" y="-130.5" font-family="Helvetica,sans-Serif" font-size="10.00">Debug.hh</text>
</a>
</g>
</g>
<!-- Node3&#45;&gt;Node30 -->
<g id="edge47" class="edge"><title>Node3&#45;&gt;Node30</title>
<path fill="none" stroke="midnightblue" d="M251.382,-291.075C256.891,-264.945 273.07,-188.211 280.583,-152.577"/>
<polygon fill="midnightblue" stroke="midnightblue" points="284.055,-153.075 282.693,-142.568 277.206,-151.631 284.055,-153.075"/>
</g>
<!-- Node33 -->
<g id="node33" class="node"><title>Node33</title>
<g id="a_node33"><a xlink:href="../../db/d66/DetectorGeometry_8hh.html" target="_top" xlink:title="DetectorGeometry.hh">
<polygon fill="white" stroke="black" points="73.5,-235.5 73.5,-254.5 183.5,-254.5 183.5,-235.5 73.5,-235.5"/>
<text text-anchor="middle" x="128.5" y="-242.5" font-family="Helvetica,sans-Serif" font-size="10.00">DetectorGeometry.hh</text>
</a>
</g>
</g>
<!-- Node3&#45;&gt;Node33 -->
<g id="edge41" class="edge"><title>Node3&#45;&gt;Node33</title>
<path fill="none" stroke="midnightblue" d="M230.327,-291.444C210.591,-282.636 179.615,-268.812 157.007,-258.722"/>
<polygon fill="midnightblue" stroke="midnightblue" points="158.141,-255.396 147.583,-254.516 155.289,-261.788 158.141,-255.396"/>
</g>
<!-- Node35 -->
<g id="node35" class="node"><title>Node35</title>
<g id="a_node35"><a xlink:href="../../dc/d45/Units_8hh.html" target="_top" xlink:title="physics/Units.hh">
<polygon fill="white" stroke="black" points="131.5,-179.5 131.5,-198.5 221.5,-198.5 221.5,-179.5 131.5,-179.5"/>
<text text-anchor="middle" x="176.5" y="-186.5" font-family="Helvetica,sans-Serif" font-size="10.00">physics/Units.hh</text>
</a>
</g>
</g>
<!-- Node3&#45;&gt;Node35 -->
<g id="edge46" class="edge"><title>Node3&#45;&gt;Node35</title>
<path fill="none" stroke="midnightblue" d="M243.772,-291.368C231.725,-273.215 203.577,-230.802 187.775,-206.99"/>
<polygon fill="midnightblue" stroke="midnightblue" points="190.647,-204.988 182.202,-198.591 184.815,-208.859 190.647,-204.988"/>
</g>
<!-- Node5 -->
<g id="node5" class="node"><title>Node5</title>
<polygon fill="white" stroke="#bfbfbf" points="416,-179.5 416,-198.5 467,-198.5 467,-179.5 416,-179.5"/>
<text text-anchor="middle" x="441.5" y="-186.5" font-family="Helvetica,sans-Serif" font-size="10.00">typeinfo</text>
</g>
<!-- Node4&#45;&gt;Node5 -->
<g id="edge4" class="edge"><title>Node4&#45;&gt;Node5</title>
<path fill="none" stroke="midnightblue" d="M441.5,-235.083C441.5,-228.006 441.5,-217.861 441.5,-208.986"/>
<polygon fill="midnightblue" stroke="midnightblue" points="445,-208.751 441.5,-198.751 438,-208.751 445,-208.751"/>
</g>
<!-- Node6 -->
<g id="node6" class="node"><title>Node6</title>
<polygon fill="white" stroke="#bfbfbf" points="358.5,-62 358.5,-81 402.5,-81 402.5,-62 358.5,-62"/>
<text text-anchor="middle" x="380.5" y="-69" font-family="Helvetica,sans-Serif" font-size="10.00">mutex</text>
</g>
<!-- Node4&#45;&gt;Node6 -->
<g id="edge5" class="edge"><title>Node4&#45;&gt;Node6</title>
<path fill="none" stroke="midnightblue" d="M432.609,-235.184C424.546,-226.665 412.963,-213.022 406.5,-199 389.979,-163.155 383.885,-116.79 381.69,-91.3234"/>
<polygon fill="midnightblue" stroke="midnightblue" points="385.169,-90.9166 380.932,-81.2059 378.189,-91.4394 385.169,-90.9166"/>
</g>
<!-- Node7 -->
<g id="node7" class="node"><title>Node7</title>
<polygon fill="white" stroke="#bfbfbf" points="315.5,-179.5 315.5,-198.5 359.5,-198.5 359.5,-179.5 315.5,-179.5"/>
<text text-anchor="middle" x="337.5" y="-186.5" font-family="Helvetica,sans-Serif" font-size="10.00">thread</text>
</g>
<!-- Node4&#45;&gt;Node7 -->
<g id="edge6" class="edge"><title>Node4&#45;&gt;Node7</title>
<path fill="none" stroke="midnightblue" d="M424.791,-235.324C408.188,-226.703 382.498,-213.364 363.28,-203.386"/>
<polygon fill="midnightblue" stroke="midnightblue" points="364.656,-200.156 354.168,-198.655 361.43,-206.369 364.656,-200.156"/>
</g>
<!-- Node8 -->
<g id="node8" class="node"><title>Node8</title>
<g id="a_node8"><a xlink:href="../../d3/d96/ExRootAnalysis_8hh.html" target="_top" xlink:title="exroot/ExRootAnalysis.hh">
<polygon fill="white" stroke="black" points="956,-123.5 956,-142.5 1087,-142.5 1087,-123.5 956,-123.5"/>
<text text-anchor="middle" x="1021.5" y="-130.5" font-family="Helvetica,sans-Serif" font-size="10.00">exroot/ExRootAnalysis.hh</text>
</a>
</g>
</g>
<!-- Node4&#45;&gt;Node8 -->
<g id="edge7" class="edge"><title>Node4&#45;&gt;Node8</title>
<path fill="none" stroke="midnightblue" d="M475.853,-241.218C538.605,-235.768 675.782,-222.156 789.5,-199 860.186,-184.606 940.921,-160.107 986.087,-145.65"/>
<polygon fill="midnightblue" stroke="midnightblue" points="987.261,-148.95 995.705,-142.551 985.114,-142.287 987.261,-148.95"/>
</g>
<!-- Node16 -->
<g id="node16" class="node"><title>Node16</title>
<g id="a_node16"><a xlink:href="../../de/d83/File_8hh.html" target="_top" xlink:title="File.hh">
<polygon fill="white" stroke="red" points="415.5,-123.5 415.5,-142.5 461.5,-142.5 461.5,-123.5 415.5,-123.5"/>
<text text-anchor="middle" x="438.5" y="-130.5" font-family="Helvetica,sans-Serif" font-size="10.00">File.hh</text>
</a>
</g>
</g>
<!-- Node4&#45;&gt;Node16 -->
<g id="edge15" class="edge"><title>Node4&#45;&gt;Node16</title>
<path fill="none" stroke="midnightblue" d="M451.601,-235.106C464.155,-222.91 483.061,-200.1 475.5,-179 471.559,-168.003 463.643,-157.769 456.14,-149.848"/>
<polygon fill="midnightblue" stroke="midnightblue" points="458.519,-147.278 448.938,-142.755 453.608,-152.266 458.519,-147.278"/>
</g>
<!-- Node17 -->
<g id="node17" class="node"><title>Node17</title>
<g id="a_node17"><a xlink:href="../../df/d2c/Reader_8hh.html" target="_top" xlink:title="Reader.hh">
<polygon fill="white" stroke="black" points="718.5,-179.5 718.5,-198.5 780.5,-198.5 780.5,-179.5 718.5,-179.5"/>
<text text-anchor="middle" x="749.5" y="-186.5" font-family="Helvetica,sans-Serif" font-size="10.00">Reader.hh</text>
</a>
</g>
</g>
<!-- Node4&#45;&gt;Node17 -->
<g id="edge16" class="edge"><title>Node4&#45;&gt;Node17</title>
<path fill="none" stroke="midnightblue" d="M475.638,-238.015C532.641,-228.021 646.982,-207.974 708.343,-197.216"/>
<polygon fill="midnightblue" stroke="midnightblue" points="709.194,-200.62 718.44,-195.446 707.985,-193.725 709.194,-200.62"/>
</g>
<!-- Node29 -->
<g id="node29" class="node"><title>Node29</title>
<g id="a_node29"><a xlink:href="../../d1/dcf/AnalysisBase_8hh.html" target="_top" xlink:title="AnalysisBase.hh">
<polygon fill="white" stroke="black" points="583.5,-179.5 583.5,-198.5 673.5,-198.5 673.5,-179.5 583.5,-179.5"/>
<text text-anchor="middle" x="628.5" y="-186.5" font-family="Helvetica,sans-Serif" font-size="10.00">AnalysisBase.hh</text>
</a>
</g>
</g>
<!-- Node4&#45;&gt;Node29 -->
<g id="edge30" class="edge"><title>Node4&#45;&gt;Node29</title>
<path fill="none" stroke="midnightblue" d="M471.131,-235.444C503,-226.241 553.833,-211.562 589.064,-201.388"/>
<polygon fill="midnightblue" stroke="midnightblue" points="590.372,-204.653 599.008,-198.516 588.429,-197.928 590.372,-204.653"/>
</g>
<!-- Node4&#45;&gt;Node30 -->
<g id="edge34" class="edge"><title>Node4&#45;&gt;Node30</title>
<path fill="none" stroke="midnightblue" d="M407.42,-241.087C377.123,-236.743 333.552,-225.928 306.5,-199 294.241,-186.797 288.811,-167.529 286.407,-153.134"/>
<polygon fill="midnightblue" stroke="midnightblue" points="289.83,-152.321 285.055,-142.863 282.89,-153.234 289.83,-152.321"/>
</g>
<!-- Node9 -->
<g id="node9" class="node"><title>Node9</title>
<polygon fill="white" stroke="#bfbfbf" points="997,-62 997,-81 1164,-81 1164,-62 997,-62"/>
<text text-anchor="middle" x="1080.5" y="-69" font-family="Helvetica,sans-Serif" font-size="10.00">ExRootAnalysis/ExRootClasses.h</text>
</g>
<!-- Node8&#45;&gt;Node9 -->
<g id="edge8" class="edge"><title>Node8&#45;&gt;Node9</title>
<path fill="none" stroke="midnightblue" d="M1029.95,-123.475C1039.07,-114.285 1053.77,-99.4563 1064.98,-88.156"/>
<polygon fill="midnightblue" stroke="midnightblue" points="1067.51,-90.5744 1072.06,-81.0091 1062.54,-85.6455 1067.51,-90.5744"/>
</g>
<!-- Node10 -->
<g id="node10" class="node"><title>Node10</title>
<polygon fill="white" stroke="#bfbfbf" points="1182,-56.5 1182,-86.5 1325,-86.5 1325,-56.5 1182,-56.5"/>
<text text-anchor="start" x="1190" y="-74.5" font-family="Helvetica,sans-Serif" font-size="10.00">ExRootAnalysis/ExRootTree</text>
<text text-anchor="middle" x="1253.5" y="-63.5" font-family="Helvetica,sans-Serif" font-size="10.00">Writer.h</text>
</g>
<!-- Node8&#45;&gt;Node10 -->
<g id="edge9" class="edge"><title>Node8&#45;&gt;Node10</title>
<path fill="none" stroke="midnightblue" d="M1054.74,-123.475C1089.61,-114.532 1145.3,-100.249 1188.88,-89.0738"/>
<polygon fill="midnightblue" stroke="midnightblue" points="1190.01,-92.3976 1198.82,-86.523 1188.27,-85.617 1190.01,-92.3976"/>
</g>
<!-- Node11 -->
<g id="node11" class="node"><title>Node11</title>
<polygon fill="white" stroke="#bfbfbf" points="1343,-56.5 1343,-86.5 1486,-86.5 1486,-56.5 1343,-56.5"/>
<text text-anchor="start" x="1351" y="-74.5" font-family="Helvetica,sans-Serif" font-size="10.00">ExRootAnalysis/ExRootTree</text>
<text text-anchor="middle" x="1414.5" y="-63.5" font-family="Helvetica,sans-Serif" font-size="10.00">Reader.h</text>
</g>
<!-- Node8&#45;&gt;Node11 -->
<g id="edge10" class="edge"><title>Node8&#45;&gt;Node11</title>
<path fill="none" stroke="midnightblue" d="M1084.94,-123.492C1145.83,-115.18 1240.64,-101.857 1332.9,-87.0634"/>
<polygon fill="midnightblue" stroke="midnightblue" points="1333.65,-90.4867 1342.97,-85.4406 1332.54,-83.5759 1333.65,-90.4867"/>
</g>
<!-- Node12 -->
<g id="node12" class="node"><title>Node12</title>
<polygon fill="white" stroke="#bfbfbf" points="655,-56.5 655,-86.5 798,-86.5 798,-56.5 655,-56.5"/>
<text text-anchor="start" x="663" y="-74.5" font-family="Helvetica,sans-Serif" font-size="10.00">ExRootAnalysis/ExRootTree</text>
<text text-anchor="middle" x="726.5" y="-63.5" font-family="Helvetica,sans-Serif" font-size="10.00">Branch.h</text>
</g>
<!-- Node8&#45;&gt;Node12 -->
<g id="edge11" class="edge"><title>Node8&#45;&gt;Node12</title>
<path fill="none" stroke="midnightblue" d="M979.234,-123.475C934.146,-114.381 861.684,-99.766 805.886,-88.5118"/>
<polygon fill="midnightblue" stroke="midnightblue" points="806.52,-85.0693 796.026,-86.523 805.136,-91.9311 806.52,-85.0693"/>
</g>
<!-- Node13 -->
<g id="node13" class="node"><title>Node13</title>
<polygon fill="white" stroke="#bfbfbf" points="816.5,-56.5 816.5,-86.5 978.5,-86.5 978.5,-56.5 816.5,-56.5"/>
<text text-anchor="start" x="824.5" y="-74.5" font-family="Helvetica,sans-Serif" font-size="10.00">ExRootAnalysis/ExRootProgress</text>
<text text-anchor="middle" x="897.5" y="-63.5" font-family="Helvetica,sans-Serif" font-size="10.00">Bar.h</text>
</g>
<!-- Node8&#45;&gt;Node13 -->
<g id="edge12" class="edge"><title>Node8&#45;&gt;Node13</title>
<path fill="none" stroke="midnightblue" d="M1003.73,-123.475C986.077,-115.002 958.432,-101.737 935.769,-90.8628"/>
<polygon fill="midnightblue" stroke="midnightblue" points="937.254,-87.6936 926.724,-86.523 934.226,-94.0047 937.254,-87.6936"/>
</g>
<!-- Node14 -->
<g id="node14" class="node"><title>Node14</title>
<g id="a_node14"><a xlink:href="../../d6/dd8/Types_8hh.html" target="_top" xlink:title="Types.hh">
<polygon fill="white" stroke="black" points="580,-62 580,-81 637,-81 637,-62 580,-62"/>
<text text-anchor="middle" x="608.5" y="-69" font-family="Helvetica,sans-Serif" font-size="10.00">Types.hh</text>
</a>
</g>
</g>
<!-- Node8&#45;&gt;Node14 -->
<g id="edge13" class="edge"><title>Node8&#45;&gt;Node14</title>
<path fill="none" stroke="midnightblue" d="M955.861,-124.582C852.095,-112.793 660.324,-90.7269 645.5,-87 642.832,-86.3292 640.097,-85.5156 637.382,-84.6199"/>
<polygon fill="midnightblue" stroke="midnightblue" points="638.376,-81.2573 627.782,-81.1252 635.982,-87.835 638.376,-81.2573"/>
</g>
<!-- Node15 -->
<g id="node15" class="node"><title>Node15</title>
<polygon fill="white" stroke="#bfbfbf" points="475,-0.5 475,-19.5 516,-19.5 516,-0.5 475,-0.5"/>
<text text-anchor="middle" x="495.5" y="-7.5" font-family="Helvetica,sans-Serif" font-size="10.00">string</text>
</g>
<!-- Node14&#45;&gt;Node15 -->
<g id="edge14" class="edge"><title>Node14&#45;&gt;Node15</title>
<path fill="none" stroke="midnightblue" d="M592.31,-61.9751C573.598,-52.1222 542.577,-35.7883 520.701,-24.2697"/>
<polygon fill="midnightblue" stroke="midnightblue" points="522.139,-21.0713 511.66,-19.5091 518.878,-27.2651 522.139,-21.0713"/>
</g>
<!-- Node18 -->
<g id="node18" class="node"><title>Node18</title>
<polygon fill="white" stroke="#bfbfbf" points="765.5,-123.5 765.5,-142.5 817.5,-142.5 817.5,-123.5 765.5,-123.5"/>
<text text-anchor="middle" x="791.5" y="-130.5" font-family="Helvetica,sans-Serif" font-size="10.00">memory</text>
</g>
<!-- Node17&#45;&gt;Node18 -->
<g id="edge17" class="edge"><title>Node17&#45;&gt;Node18</title>
<path fill="none" stroke="midnightblue" d="M756.435,-179.083C762.429,-171.377 771.252,-160.033 778.548,-150.653"/>
<polygon fill="midnightblue" stroke="midnightblue" points="781.317,-152.793 784.694,-142.751 775.791,-148.496 781.317,-152.793"/>
</g>
<!-- Node19 -->
<g id="node19" class="node"><title>Node19</title>
<polygon fill="white" stroke="#bfbfbf" points="480,-123.5 480,-142.5 567,-142.5 567,-123.5 480,-123.5"/>
<text text-anchor="middle" x="523.5" y="-130.5" font-family="Helvetica,sans-Serif" font-size="10.00">TMVA/Reader.h</text>
</g>
<!-- Node17&#45;&gt;Node19 -->
<g id="edge18" class="edge"><title>Node17&#45;&gt;Node19</title>
<path fill="none" stroke="midnightblue" d="M718.076,-180.492C679.368,-171.243 613.317,-155.461 569.048,-144.883"/>
<polygon fill="midnightblue" stroke="midnightblue" points="569.663,-141.432 559.123,-142.512 568.036,-148.24 569.663,-141.432"/>
</g>
<!-- Node20 -->
<g id="node20" class="node"><title>Node20</title>
<g id="a_node20"><a xlink:href="../../d5/d85/ReaderBase_8hh.html" target="_top" xlink:title="ReaderBase.hh">
<polygon fill="white" stroke="black" points="585.5,-123.5 585.5,-142.5 669.5,-142.5 669.5,-123.5 585.5,-123.5"/>
<text text-anchor="middle" x="627.5" y="-130.5" font-family="Helvetica,sans-Serif" font-size="10.00">ReaderBase.hh</text>
</a>
</g>
</g>
<!-- Node17&#45;&gt;Node20 -->
<g id="edge19" class="edge"><title>Node17&#45;&gt;Node20</title>
<path fill="none" stroke="midnightblue" d="M730.169,-179.444C710.18,-170.596 678.757,-156.687 655.936,-146.586"/>
<polygon fill="midnightblue" stroke="midnightblue" points="657.302,-143.363 646.741,-142.516 654.468,-149.764 657.302,-143.363"/>
</g>
<!-- Node21 -->
<g id="node21" class="node"><title>Node21</title>
<g id="a_node21"><a xlink:href="../../da/d59/PreCuts_8hh.html" target="_top" xlink:title="PreCuts.hh">
<polygon fill="white" stroke="red" points="1105.5,-123.5 1105.5,-142.5 1171.5,-142.5 1171.5,-123.5 1105.5,-123.5"/>
<text text-anchor="middle" x="1138.5" y="-130.5" font-family="Helvetica,sans-Serif" font-size="10.00">PreCuts.hh</text>
</a>
</g>
</g>
<!-- Node17&#45;&gt;Node21 -->
<g id="edge21" class="edge"><title>Node17&#45;&gt;Node21</title>
<path fill="none" stroke="midnightblue" d="M780.635,-184.764C839.791,-178.441 972.682,-163.4 1095.28,-142.908"/>
<polygon fill="midnightblue" stroke="midnightblue" points="1095.94,-146.346 1105.21,-141.231 1094.77,-139.444 1095.94,-146.346"/>
</g>
<!-- Node23 -->
<g id="node23" class="node"><title>Node23</title>
<g id="a_node23"><a xlink:href="../../d1/d8c/Tagger_8hh.html" target="_top" xlink:title="Tagger.hh">
<polygon fill="white" stroke="red" points="687.5,-123.5 687.5,-142.5 747.5,-142.5 747.5,-123.5 687.5,-123.5"/>
<text text-anchor="middle" x="717.5" y="-130.5" font-family="Helvetica,sans-Serif" font-size="10.00">Tagger.hh</text>
</a>
</g>
</g>
<!-- Node17&#45;&gt;Node23 -->
<g id="edge23" class="edge"><title>Node17&#45;&gt;Node23</title>
<path fill="none" stroke="midnightblue" d="M744.216,-179.083C739.789,-171.613 733.337,-160.724 727.882,-151.52"/>
<polygon fill="midnightblue" stroke="midnightblue" points="730.795,-149.57 722.686,-142.751 724.773,-153.138 730.795,-149.57"/>
</g>
<!-- Node27 -->
<g id="node27" class="node"><title>Node27</title>
<g id="a_node27"><a xlink:href="../../dc/d76/Options_8hh.html" target="_top" xlink:title="Options.hh">
<polygon fill="white" stroke="black" points="835.5,-123.5 835.5,-142.5 899.5,-142.5 899.5,-123.5 835.5,-123.5"/>
<text text-anchor="middle" x="867.5" y="-130.5" font-family="Helvetica,sans-Serif" font-size="10.00">Options.hh</text>
</a>
</g>
</g>
<!-- Node17&#45;&gt;Node27 -->
<g id="edge28" class="edge"><title>Node17&#45;&gt;Node27</title>
<path fill="none" stroke="midnightblue" d="M768.197,-179.444C787.444,-170.636 817.652,-156.812 839.7,-146.722"/>
<polygon fill="midnightblue" stroke="midnightblue" points="841.253,-149.86 848.89,-142.516 838.34,-143.495 841.253,-149.86"/>
</g>
<!-- Node20&#45;&gt;Node6 -->
<g id="edge20" class="edge"><title>Node20&#45;&gt;Node6</title>
<path fill="none" stroke="midnightblue" d="M585.404,-124.432C532.051,-114.632 443.209,-97.5593 411.5,-87 409.833,-86.445 408.138,-85.8249 406.444,-85.162"/>
<polygon fill="midnightblue" stroke="midnightblue" points="407.509,-81.8097 396.941,-81.0545 404.732,-88.2351 407.509,-81.8097"/>
</g>
<!-- Node22 -->
<g id="node22" class="node"><title>Node22</title>
<g id="a_node22"><a xlink:href="../../dd/df7/Jet_8hh.html" target="_top" xlink:title="Jet.hh">
<polygon fill="white" stroke="red" points="1504.5,-62 1504.5,-81 1548.5,-81 1548.5,-62 1504.5,-62"/>
<text text-anchor="middle" x="1526.5" y="-69" font-family="Helvetica,sans-Serif" font-size="10.00">Jet.hh</text>
</a>
</g>
</g>
<!-- Node21&#45;&gt;Node22 -->
<g id="edge22" class="edge"><title>Node21&#45;&gt;Node22</title>
<path fill="none" stroke="midnightblue" d="M1171.91,-124.533C1174.81,-123.979 1177.7,-123.458 1180.5,-123 1319.56,-100.211 1359.91,-125.352 1495.5,-87 1497.43,-86.4542 1499.39,-85.8003 1501.34,-85.0763"/>
<polygon fill="midnightblue" stroke="midnightblue" points="1502.96,-88.1879 1510.79,-81.0478 1500.22,-81.7482 1502.96,-88.1879"/>
</g>
<!-- Node24 -->
<g id="node24" class="node"><title>Node24</title>
<g id="a_node24"><a xlink:href="../../d0/d79/Branches_8hh.html" target="_top" xlink:title="Branches.hh">
<polygon fill="white" stroke="red" points="491,-62 491,-81 562,-81 562,-62 491,-62"/>
<text text-anchor="middle" x="526.5" y="-69" font-family="Helvetica,sans-Serif" font-size="10.00">Branches.hh</text>
</a>
</g>
</g>
<!-- Node23&#45;&gt;Node24 -->
<g id="edge24" class="edge"><title>Node23&#45;&gt;Node24</title>
<path fill="none" stroke="midnightblue" d="M688.989,-123.468C659.332,-114.547 611.58,-100.055 570.5,-87 567.604,-86.0797 564.604,-85.1152 561.595,-84.1396"/>
<polygon fill="midnightblue" stroke="midnightblue" points="562.656,-80.8042 552.063,-81.0262 560.482,-87.4582 562.656,-80.8042"/>
</g>
<!-- Node24&#45;&gt;Node15 -->
<g id="edge26" class="edge"><title>Node24&#45;&gt;Node15</title>
<path fill="none" stroke="midnightblue" d="M522.058,-61.9751C517.547,-53.3152 510.426,-39.6486 504.693,-28.6453"/>
<polygon fill="midnightblue" stroke="midnightblue" points="507.658,-26.7604 499.933,-19.5091 501.45,-29.9948 507.658,-26.7604"/>
</g>
<!-- Node25 -->
<g id="node25" class="node"><title>Node25</title>
<polygon fill="white" stroke="#bfbfbf" points="534.5,-0.5 534.5,-19.5 578.5,-19.5 578.5,-0.5 534.5,-0.5"/>
<text text-anchor="middle" x="556.5" y="-7.5" font-family="Helvetica,sans-Serif" font-size="10.00">vector</text>
</g>
<!-- Node24&#45;&gt;Node25 -->
<g id="edge25" class="edge"><title>Node24&#45;&gt;Node25</title>
<path fill="none" stroke="midnightblue" d="M530.798,-61.9751C535.165,-53.3152 542.055,-39.6486 547.603,-28.6453"/>
<polygon fill="midnightblue" stroke="midnightblue" points="550.833,-30.0141 552.21,-19.5091 544.582,-26.8625 550.833,-30.0141"/>
</g>
<!-- Node26 -->
<g id="node26" class="node"><title>Node26</title>
<polygon fill="white" stroke="#bfbfbf" points="349.5,-0.5 349.5,-19.5 403.5,-19.5 403.5,-0.5 349.5,-0.5"/>
<text text-anchor="middle" x="376.5" y="-7.5" font-family="Helvetica,sans-Serif" font-size="10.00">iostream</text>
</g>
<!-- Node24&#45;&gt;Node26 -->
<g id="edge27" class="edge"><title>Node24&#45;&gt;Node26</title>
<path fill="none" stroke="midnightblue" d="M505.009,-61.9751C479.39,-51.8129 436.39,-34.7564 407.255,-23.1996"/>
<polygon fill="midnightblue" stroke="midnightblue" points="408.537,-19.9429 397.951,-19.5091 405.956,-26.4497 408.537,-19.9429"/>
</g>
<!-- Node28 -->
<g id="node28" class="node"><title>Node28</title>
<polygon fill="white" stroke="#bfbfbf" points="420.5,-62 420.5,-81 472.5,-81 472.5,-62 420.5,-62"/>
<text text-anchor="middle" x="446.5" y="-69" font-family="Helvetica,sans-Serif" font-size="10.00">sstream</text>
</g>
<!-- Node27&#45;&gt;Node28 -->
<g id="edge29" class="edge"><title>Node27&#45;&gt;Node28</title>
<path fill="none" stroke="midnightblue" d="M835.336,-124.583C832.357,-124.004 829.378,-123.464 826.5,-123 674.304,-98.4343 630.935,-124.897 481.5,-87 478.99,-86.3634 476.424,-85.5796 473.878,-84.7089"/>
<polygon fill="midnightblue" stroke="midnightblue" points="474.917,-81.3586 464.326,-81.0481 472.411,-87.895 474.917,-81.3586"/>
</g>
<!-- Node29&#45;&gt;Node16 -->
<g id="edge33" class="edge"><title>Node29&#45;&gt;Node16</title>
<path fill="none" stroke="midnightblue" d="M598.394,-179.444C563.823,-169.618 507.289,-153.551 471.533,-143.388"/>
<polygon fill="midnightblue" stroke="midnightblue" points="472.168,-139.93 461.592,-140.563 470.254,-146.664 472.168,-139.93"/>
</g>
<!-- Node29&#45;&gt;Node21 -->
<g id="edge32" class="edge"><title>Node29&#45;&gt;Node21</title>
<path fill="none" stroke="midnightblue" d="M673.896,-182.813C685.499,-181.527 697.958,-180.179 709.5,-179 877.643,-161.819 923.396,-168.425 1095.09,-142.876"/>
<polygon fill="midnightblue" stroke="midnightblue" points="1095.86,-146.299 1105.23,-141.351 1094.82,-139.377 1095.86,-146.299"/>
</g>
<!-- Node29&#45;&gt;Node23 -->
<g id="edge31" class="edge"><title>Node29&#45;&gt;Node23</title>
<path fill="none" stroke="midnightblue" d="M642.799,-179.324C656.683,-170.9 677.992,-157.971 694.304,-148.074"/>
<polygon fill="midnightblue" stroke="midnightblue" points="696.502,-150.834 703.236,-142.655 692.871,-144.85 696.502,-150.834"/>
</g>
<!-- Node30&#45;&gt;Node15 -->
<g id="edge35" class="edge"><title>Node30&#45;&gt;Node15</title>
<path fill="none" stroke="midnightblue" d="M254.667,-125.51C198.411,-113.256 82.1849,-87.8534 81.5,-87 72.8761,-76.255 72.2991,-66.2552 81.5,-56 81.5,-56 368.857,-24.7655 464.762,-14.3411"/>
<polygon fill="midnightblue" stroke="midnightblue" points="465.406,-17.7917 474.97,-13.2316 464.65,-10.8327 465.406,-17.7917"/>
</g>
<!-- Node30&#45;&gt;Node25 -->
<g id="edge36" class="edge"><title>Node30&#45;&gt;Node25</title>
<path fill="none" stroke="midnightblue" d="M290.718,-123.409C303.909,-105.422 334.697,-64.7348 349.5,-56 415.217,-17.2236 444.981,-37.0524 524.255,-19.7933"/>
<polygon fill="midnightblue" stroke="midnightblue" points="525.22,-23.1626 534.174,-17.4983 523.642,-16.3427 525.22,-23.1626"/>
</g>
<!-- Node30&#45;&gt;Node26 -->
<g id="edge39" class="edge"><title>Node30&#45;&gt;Node26</title>
<path fill="none" stroke="midnightblue" d="M286.568,-123.252C290.443,-108.257 299.936,-77.2143 316.5,-56 326.206,-43.5688 340.159,-32.8272 352.168,-24.9592"/>
<polygon fill="midnightblue" stroke="midnightblue" points="354.243,-27.7895 360.869,-19.5223 350.534,-21.8531 354.243,-27.7895"/>
</g>
<!-- Node30&#45;&gt;Node28 -->
<g id="edge37" class="edge"><title>Node30&#45;&gt;Node28</title>
<path fill="none" stroke="midnightblue" d="M309.944,-123.422C335.686,-114.641 376.561,-100.417 411.5,-87 413.146,-86.3678 414.832,-85.709 416.53,-85.036"/>
<polygon fill="midnightblue" stroke="midnightblue" points="418.259,-88.1121 426.214,-81.1146 415.631,-81.6239 418.259,-88.1121"/>
</g>
<!-- Node31 -->
<g id="node31" class="node"><title>Node31</title>
<polygon fill="white" stroke="#bfbfbf" points="90.5,-62 90.5,-81 140.5,-81 140.5,-62 90.5,-62"/>
<text text-anchor="middle" x="115.5" y="-69" font-family="Helvetica,sans-Serif" font-size="10.00">iomanip</text>
</g>
<!-- Node30&#45;&gt;Node31 -->
<g id="edge38" class="edge"><title>Node30&#45;&gt;Node31</title>
<path fill="none" stroke="midnightblue" d="M256.602,-123.431C229.14,-114.825 186.114,-100.883 149.5,-87 147.85,-86.3743 146.162,-85.7157 144.463,-85.0385"/>
<polygon fill="midnightblue" stroke="midnightblue" points="145.387,-81.6334 134.808,-81.056 142.718,-88.1046 145.387,-81.6334"/>
</g>
<!-- Node32 -->
<g id="node32" class="node"><title>Node32</title>
<polygon fill="white" stroke="#bfbfbf" points="159,-56.5 159,-86.5 264,-86.5 264,-56.5 159,-56.5"/>
<text text-anchor="start" x="167" y="-74.5" font-family="Helvetica,sans-Serif" font-size="10.00">boost/units/systems</text>
<text text-anchor="middle" x="211.5" y="-63.5" font-family="Helvetica,sans-Serif" font-size="10.00">/si/io.hpp</text>
</g>
<!-- Node30&#45;&gt;Node32 -->
<g id="edge40" class="edge"><title>Node30&#45;&gt;Node32</title>
<path fill="none" stroke="midnightblue" d="M274.041,-123.475C264.339,-115.567 249.515,-103.485 236.734,-93.0675"/>
<polygon fill="midnightblue" stroke="midnightblue" points="238.667,-90.1279 228.705,-86.523 234.245,-95.5539 238.667,-90.1279"/>
</g>
<!-- Node34 -->
<g id="node34" class="node"><title>Node34</title>
<g id="a_node34"><a xlink:href="../../df/de2/InfoRecombiner_8hh.html" target="_top" xlink:title="InfoRecombiner.hh">
<polygon fill="white" stroke="red" points="14,-179.5 14,-198.5 113,-198.5 113,-179.5 14,-179.5"/>
<text text-anchor="middle" x="63.5" y="-186.5" font-family="Helvetica,sans-Serif" font-size="10.00">InfoRecombiner.hh</text>
</a>
</g>
</g>
<!-- Node33&#45;&gt;Node34 -->
<g id="edge42" class="edge"><title>Node33&#45;&gt;Node34</title>
<path fill="none" stroke="midnightblue" d="M118.057,-235.324C108.354,-227.263 93.6847,-215.077 82.0003,-205.369"/>
<polygon fill="midnightblue" stroke="midnightblue" points="84.0619,-202.532 74.1334,-198.834 79.5887,-207.916 84.0619,-202.532"/>
</g>
<!-- Node33&#45;&gt;Node35 -->
<g id="edge43" class="edge"><title>Node33&#45;&gt;Node35</title>
<path fill="none" stroke="midnightblue" d="M136.426,-235.083C143.346,-227.298 153.565,-215.801 161.952,-206.367"/>
<polygon fill="midnightblue" stroke="midnightblue" points="164.694,-208.55 168.721,-198.751 159.462,-203.9 164.694,-208.55"/>
</g>
<!-- Node36 -->
<g id="node36" class="node"><title>Node36</title>
<polygon fill="white" stroke="#bfbfbf" points="0,-123.5 0,-142.5 113,-142.5 113,-123.5 0,-123.5"/>
<text text-anchor="middle" x="56.5" y="-130.5" font-family="Helvetica,sans-Serif" font-size="10.00">boost/units/cmath.hpp</text>
</g>
<!-- Node35&#45;&gt;Node36 -->
<g id="edge44" class="edge"><title>Node35&#45;&gt;Node36</title>
<path fill="none" stroke="midnightblue" d="M157.486,-179.444C137.912,-170.636 107.192,-156.812 84.7711,-146.722"/>
<polygon fill="midnightblue" stroke="midnightblue" points="85.9809,-143.428 75.4254,-142.516 83.1083,-149.812 85.9809,-143.428"/>
</g>
<!-- Node37 -->
<g id="node37" class="node"><title>Node37</title>
<g id="a_node37"><a xlink:href="../../dc/d6c/Prefixes_8hh.html" target="_top" xlink:title="physics/Prefixes.hh">
<polygon fill="white" stroke="red" points="131,-123.5 131,-142.5 234,-142.5 234,-123.5 131,-123.5"/>
<text text-anchor="middle" x="182.5" y="-130.5" font-family="Helvetica,sans-Serif" font-size="10.00">physics/Prefixes.hh</text>
</a>
</g>
</g>
<!-- Node35&#45;&gt;Node37 -->
<g id="edge45" class="edge"><title>Node35&#45;&gt;Node37</title>
<path fill="none" stroke="midnightblue" d="M177.491,-179.083C178.286,-171.927 179.429,-161.635 180.423,-152.691"/>
<polygon fill="midnightblue" stroke="midnightblue" points="183.902,-153.076 181.528,-142.751 176.945,-152.303 183.902,-153.076"/>
</g>
<!-- Node38&#45;&gt;Node17 -->
<g id="edge69" class="edge"><title>Node38&#45;&gt;Node17</title>
<path fill="none" stroke="midnightblue" d="M969.332,-291.497C941.984,-283.391 900.827,-270.193 866.5,-255 832.324,-239.874 794.908,-218.097 771.814,-203.997"/>
<polygon fill="midnightblue" stroke="midnightblue" points="773.479,-200.912 763.13,-198.644 769.806,-206.871 773.479,-200.912"/>
</g>
<!-- Node39 -->
<g id="node39" class="node"><title>Node39</title>
<polygon fill="white" stroke="#bfbfbf" points="876,-235.5 876,-254.5 935,-254.5 935,-235.5 876,-235.5"/>
<text text-anchor="middle" x="905.5" y="-242.5" font-family="Helvetica,sans-Serif" font-size="10.00">functional</text>
</g>
<!-- Node38&#45;&gt;Node39 -->
<g id="edge49" class="edge"><title>Node38&#45;&gt;Node39</title>
<path fill="none" stroke="midnightblue" d="M984.397,-291.324C969.597,-282.822 946.806,-269.729 929.518,-259.797"/>
<polygon fill="midnightblue" stroke="midnightblue" points="930.98,-256.601 920.565,-254.655 927.493,-262.671 930.98,-256.601"/>
</g>
<!-- Node40 -->
<g id="node40" class="node"><title>Node40</title>
<g id="a_node40"><a xlink:href="../../de/dbb/BottomTagger_8hh.html" target="_top" xlink:title="BottomTagger.hh">
<polygon fill="white" stroke="black" points="953.5,-235.5 953.5,-254.5 1045.5,-254.5 1045.5,-235.5 953.5,-235.5"/>
<text text-anchor="middle" x="999.5" y="-242.5" font-family="Helvetica,sans-Serif" font-size="10.00">BottomTagger.hh</text>
</a>
</g>
</g>
<!-- Node38&#45;&gt;Node40 -->
<g id="edge50" class="edge"><title>Node38&#45;&gt;Node40</title>
<path fill="none" stroke="midnightblue" d="M999.5,-291.083C999.5,-284.006 999.5,-273.861 999.5,-264.986"/>
<polygon fill="midnightblue" stroke="midnightblue" points="1003,-264.751 999.5,-254.751 996,-264.751 1003,-264.751"/>
</g>
<!-- Node42 -->
<g id="node42" class="node"><title>Node42</title>
<g id="a_node42"><a xlink:href="../../db/db5/TaggerTemplate_8hh.html" target="_top" xlink:title="TaggerTemplate.hh">
<polygon fill="white" stroke="black" points="1088,-179.5 1088,-198.5 1189,-198.5 1189,-179.5 1088,-179.5"/>
<text text-anchor="middle" x="1138.5" y="-186.5" font-family="Helvetica,sans-Serif" font-size="10.00">TaggerTemplate.hh</text>
</a>
</g>
</g>
<!-- Node38&#45;&gt;Node42 -->
<g id="edge64" class="edge"><title>Node38&#45;&gt;Node42</title>
<path fill="none" stroke="midnightblue" d="M1010.41,-291.368C1034.06,-272.653 1090.29,-228.151 1119.76,-204.832"/>
<polygon fill="midnightblue" stroke="midnightblue" points="1121.97,-207.542 1127.64,-198.591 1117.63,-202.052 1121.97,-207.542"/>
</g>
<!-- Node48 -->
<g id="node48" class="node"><title>Node48</title>
<g id="a_node48"><a xlink:href="../../df/d3a/Doublet_8hh.html" target="_top" xlink:title="multiplets/Doublet.hh">
<polygon fill="white" stroke="black" points="1200,-235.5 1200,-254.5 1309,-254.5 1309,-235.5 1200,-235.5"/>
<text text-anchor="middle" x="1254.5" y="-242.5" font-family="Helvetica,sans-Serif" font-size="10.00">multiplets/Doublet.hh</text>
</a>
</g>
</g>
<!-- Node38&#45;&gt;Node48 -->
<g id="edge65" class="edge"><title>Node38&#45;&gt;Node48</title>
<path fill="none" stroke="midnightblue" d="M1039.91,-291.444C1084.48,-282.004 1156.27,-266.802 1204.39,-256.611"/>
<polygon fill="midnightblue" stroke="midnightblue" points="1205.23,-260.012 1214.28,-254.516 1203.78,-253.164 1205.23,-260.012"/>
</g>
<!-- Node41 -->
<g id="node41" class="node"><title>Node41</title>
<g id="a_node41"><a xlink:href="../../de/d63/BranchesSm_8hh.html" target="_top" xlink:title="BranchesSm.hh">
<polygon fill="white" stroke="black" points="956.5,-179.5 956.5,-198.5 1042.5,-198.5 1042.5,-179.5 956.5,-179.5"/>
<text text-anchor="middle" x="999.5" y="-186.5" font-family="Helvetica,sans-Serif" font-size="10.00">BranchesSm.hh</text>
</a>
</g>
</g>
<!-- Node40&#45;&gt;Node41 -->
<g id="edge51" class="edge"><title>Node40&#45;&gt;Node41</title>
<path fill="none" stroke="midnightblue" d="M999.5,-235.083C999.5,-228.006 999.5,-217.861 999.5,-208.986"/>
<polygon fill="midnightblue" stroke="midnightblue" points="1003,-208.751 999.5,-198.751 996,-208.751 1003,-208.751"/>
</g>
<!-- Node40&#45;&gt;Node42 -->
<g id="edge53" class="edge"><title>Node40&#45;&gt;Node42</title>
<path fill="none" stroke="midnightblue" d="M1021.52,-235.444C1044.6,-226.478 1081.06,-212.314 1107.14,-202.183"/>
<polygon fill="midnightblue" stroke="midnightblue" points="1108.52,-205.4 1116.58,-198.516 1105.99,-198.875 1108.52,-205.4"/>
</g>
<!-- Node41&#45;&gt;Node24 -->
<g id="edge52" class="edge"><title>Node41&#45;&gt;Node24</title>
<path fill="none" stroke="midnightblue" d="M990.871,-179.423C975.703,-164.943 942.619,-135.967 908.5,-123 767.282,-69.332 718.183,-118.821 570.5,-87 566.824,-86.208 563.024,-85.2217 559.266,-84.1385"/>
<polygon fill="midnightblue" stroke="midnightblue" points="560.126,-80.7404 549.537,-81.1117 558.046,-87.4244 560.126,-80.7404"/>
</g>
<!-- Node42&#45;&gt;Node8 -->
<g id="edge55" class="edge"><title>Node42&#45;&gt;Node8</title>
<path fill="none" stroke="midnightblue" d="M1119.96,-179.444C1100.88,-170.636 1070.93,-156.812 1049.06,-146.722"/>
<polygon fill="midnightblue" stroke="midnightblue" points="1050.5,-143.529 1039.95,-142.516 1047.57,-149.885 1050.5,-143.529"/>
</g>
<!-- Node42&#45;&gt;Node21 -->
<g id="edge63" class="edge"><title>Node42&#45;&gt;Node21</title>
<path fill="none" stroke="midnightblue" d="M1138.5,-179.083C1138.5,-172.006 1138.5,-161.861 1138.5,-152.986"/>
<polygon fill="midnightblue" stroke="midnightblue" points="1142,-152.751 1138.5,-142.751 1135,-152.751 1142,-152.751"/>
</g>
<!-- Node42&#45;&gt;Node23 -->
<g id="edge61" class="edge"><title>Node42&#45;&gt;Node23</title>
<path fill="none" stroke="midnightblue" d="M1087.88,-182.735C1003.14,-173.807 835.003,-155.594 757.921,-143.038"/>
<polygon fill="midnightblue" stroke="midnightblue" points="758.111,-139.52 747.667,-141.305 756.944,-146.423 758.111,-139.52"/>
</g>
<!-- Node43 -->
<g id="node43" class="node"><title>Node43</title>
<polygon fill="white" stroke="#bfbfbf" points="1190,-123.5 1190,-142.5 1275,-142.5 1275,-123.5 1190,-123.5"/>
<text text-anchor="middle" x="1232.5" y="-130.5" font-family="Helvetica,sans-Serif" font-size="10.00">TClonesArray.h</text>
</g>
<!-- Node42&#45;&gt;Node43 -->
<g id="edge54" class="edge"><title>Node42&#45;&gt;Node43</title>
<path fill="none" stroke="midnightblue" d="M1153.6,-179.324C1168.4,-170.822 1191.19,-157.729 1208.48,-147.797"/>
<polygon fill="midnightblue" stroke="midnightblue" points="1210.51,-150.671 1217.43,-142.655 1207.02,-144.601 1210.51,-150.671"/>
</g>
<!-- Node44 -->
<g id="node44" class="node"><title>Node44</title>
<g id="a_node44"><a xlink:href="../../db/d31/Sort_8hh.html" target="_top" xlink:title="Sort.hh">
<polygon fill="white" stroke="red" points="1401.5,-123.5 1401.5,-142.5 1449.5,-142.5 1449.5,-123.5 1401.5,-123.5"/>
<text text-anchor="middle" x="1425.5" y="-130.5" font-family="Helvetica,sans-Serif" font-size="10.00">Sort.hh</text>
</a>
</g>
</g>
<!-- Node42&#45;&gt;Node44 -->
<g id="edge56" class="edge"><title>Node42&#45;&gt;Node44</title>
<path fill="none" stroke="midnightblue" d="M1183.98,-179.444C1241.65,-168.593 1339.78,-150.129 1391.41,-140.414"/>
<polygon fill="midnightblue" stroke="midnightblue" points="1392.22,-143.824 1401.4,-138.535 1390.92,-136.945 1392.22,-143.824"/>
</g>
<!-- Node47 -->
<g id="node47" class="node"><title>Node47</title>
<g id="a_node47"><a xlink:href="../../db/d60/Singlet_8hh.html" target="_top" xlink:title="multiplets/Singlet.hh">
<polygon fill="white" stroke="red" points="1468,-123.5 1468,-142.5 1573,-142.5 1573,-123.5 1468,-123.5"/>
<text text-anchor="middle" x="1520.5" y="-130.5" font-family="Helvetica,sans-Serif" font-size="10.00">multiplets/Singlet.hh</text>
</a>
</g>
</g>
<!-- Node42&#45;&gt;Node47 -->
<g id="edge62" class="edge"><title>Node42&#45;&gt;Node47</title>
<path fill="none" stroke="midnightblue" d="M1189.22,-180.938C1250.3,-172.419 1356.28,-157.585 1457.63,-143.119"/>
<polygon fill="midnightblue" stroke="midnightblue" points="1458.33,-146.554 1467.74,-141.675 1457.34,-139.625 1458.33,-146.554"/>
</g>
<!-- Node44&#45;&gt;Node22 -->
<g id="edge59" class="edge"><title>Node44&#45;&gt;Node22</title>
<path fill="none" stroke="midnightblue" d="M1439.97,-123.475C1456.47,-113.755 1483.68,-97.7266 1503.18,-86.2372"/>
<polygon fill="midnightblue" stroke="midnightblue" points="1505.22,-89.1005 1512.06,-81.0091 1501.66,-83.0693 1505.22,-89.1005"/>
</g>
<!-- Node44&#45;&gt;Node25 -->
<g id="edge57" class="edge"><title>Node44&#45;&gt;Node25</title>
<path fill="none" stroke="midnightblue" d="M1449.54,-125.121C1452.87,-124.32 1456.25,-123.583 1459.5,-123 1541.25,-108.325 1775.67,-148.491 1831.5,-87 1840.76,-76.7992 1841.07,-65.9127 1831.5,-56 1787.03,-9.93535 782.491,-10.3737 588.693,-10.8889"/>
<polygon fill="midnightblue" stroke="midnightblue" points="588.573,-7.38909 578.583,-10.9178 588.593,-14.3891 588.573,-7.38909"/>
</g>
<!-- Node45 -->
<g id="node45" class="node"><title>Node45</title>
<polygon fill="white" stroke="#bfbfbf" points="1712.5,-56.5 1712.5,-86.5 1822.5,-86.5 1822.5,-56.5 1712.5,-56.5"/>
<text text-anchor="start" x="1720.5" y="-74.5" font-family="Helvetica,sans-Serif" font-size="10.00">boost/range/algorithm</text>
<text text-anchor="middle" x="1767.5" y="-63.5" font-family="Helvetica,sans-Serif" font-size="10.00">/sort.hpp</text>
</g>
<!-- Node44&#45;&gt;Node45 -->
<g id="edge58" class="edge"><title>Node44&#45;&gt;Node45</title>
<path fill="none" stroke="midnightblue" d="M1449.57,-125.272C1452.89,-124.448 1456.27,-123.664 1459.5,-123 1563.73,-101.586 1593.99,-106.787 1702.37,-87.1153"/>
<polygon fill="midnightblue" stroke="midnightblue" points="1703.2,-90.521 1712.4,-85.2648 1701.93,-83.6372 1703.2,-90.521"/>
</g>
<!-- Node46 -->
<g id="node46" class="node"><title>Node46</title>
<g id="a_node46"><a xlink:href="../../d6/dc8/LorentzVector_8hh.html" target="_top" xlink:title="physics/LorentzVector.hh">
<polygon fill="white" stroke="red" points="1566.5,-62 1566.5,-81 1694.5,-81 1694.5,-62 1566.5,-62"/>
<text text-anchor="middle" x="1630.5" y="-69" font-family="Helvetica,sans-Serif" font-size="10.00">physics/LorentzVector.hh</text>
</a>
</g>
</g>
<!-- Node44&#45;&gt;Node46 -->
<g id="edge60" class="edge"><title>Node44&#45;&gt;Node46</title>
<path fill="none" stroke="midnightblue" d="M1449.82,-124.941C1484.7,-114.817 1549.32,-96.0614 1591.08,-83.9406"/>
<polygon fill="midnightblue" stroke="midnightblue" points="1592.29,-87.235 1600.92,-81.0863 1590.34,-80.5125 1592.29,-87.235"/>
</g>
<!-- Node48&#45;&gt;Node47 -->
<g id="edge68" class="edge"><title>Node48&#45;&gt;Node47</title>
<path fill="none" stroke="midnightblue" d="M1275.37,-235.368C1322.18,-216.01 1435.71,-169.065 1490.25,-146.507"/>
<polygon fill="midnightblue" stroke="midnightblue" points="1491.82,-149.647 1499.72,-142.591 1489.15,-143.179 1491.82,-149.647"/>
</g>
<!-- Node49 -->
<g id="node49" class="node"><title>Node49</title>
<g id="a_node49"><a xlink:href="../../d0/d32/TwoBody_8hh.html" target="_top" xlink:title="multiplets/TwoBody.hh">
<polygon fill="white" stroke="red" points="1237.5,-179.5 1237.5,-198.5 1353.5,-198.5 1353.5,-179.5 1237.5,-179.5"/>
<text text-anchor="middle" x="1295.5" y="-186.5" font-family="Helvetica,sans-Serif" font-size="10.00">multiplets/TwoBody.hh</text>
</a>
</g>
</g>
<!-- Node48&#45;&gt;Node49 -->
<g id="edge66" class="edge"><title>Node48&#45;&gt;Node49</title>
<path fill="none" stroke="midnightblue" d="M1261.27,-235.083C1267.06,-227.455 1275.56,-216.264 1282.64,-206.941"/>
<polygon fill="midnightblue" stroke="midnightblue" points="1285.6,-208.832 1288.86,-198.751 1280.02,-204.599 1285.6,-208.832"/>
</g>
<!-- Node49&#45;&gt;Node47 -->
<g id="edge67" class="edge"><title>Node49&#45;&gt;Node47</title>
<path fill="none" stroke="midnightblue" d="M1331.15,-179.444C1370.16,-170.083 1432.77,-155.056 1475.22,-144.868"/>
<polygon fill="midnightblue" stroke="midnightblue" points="1476.11,-148.254 1485.01,-142.516 1474.47,-141.447 1476.11,-148.254"/>
</g>
<!-- Node50&#45;&gt;Node41 -->
<g id="edge73" class="edge"><title>Node50&#45;&gt;Node41</title>
<path fill="none" stroke="midnightblue" d="M1126.67,-291.368C1103.19,-272.653 1047.36,-228.151 1018.11,-204.832"/>
<polygon fill="midnightblue" stroke="midnightblue" points="1020.28,-202.088 1010.28,-198.591 1015.92,-207.561 1020.28,-202.088"/>
</g>
<!-- Node50&#45;&gt;Node42 -->
<g id="edge74" class="edge"><title>Node50&#45;&gt;Node42</title>
<path fill="none" stroke="midnightblue" d="M1137.58,-291.368C1137.74,-273.617 1138.11,-232.666 1138.33,-208.597"/>
<polygon fill="midnightblue" stroke="midnightblue" points="1141.83,-208.623 1138.42,-198.591 1134.83,-208.559 1141.83,-208.623"/>
</g>
<!-- Node50&#45;&gt;Node48 -->
<g id="edge72" class="edge"><title>Node50&#45;&gt;Node48</title>
<path fill="none" stroke="midnightblue" d="M1156.04,-291.444C1175.12,-282.636 1205.07,-268.812 1226.94,-258.722"/>
<polygon fill="midnightblue" stroke="midnightblue" points="1228.43,-261.885 1236.05,-254.516 1225.5,-255.529 1228.43,-261.885"/>
</g>
</g>
</svg>
