<?xml version="1.0" encoding="UTF-8" standalone="no"?>
<!DOCTYPE svg PUBLIC "-//W3C//DTD SVG 1.1//EN"
 "http://www.w3.org/Graphics/SVG/1.1/DTD/svg11.dtd">
<!-- Generated by graphviz version 2.38.0 (20140413.2041)
 -->
<!-- Title: include/BosonTagger.hh Pages: 1 -->
<svg width="745pt" height="363pt"
 viewBox="0.00 0.00 744.50 363.00" xmlns="http://www.w3.org/2000/svg" xmlns:xlink="http://www.w3.org/1999/xlink">
<g id="graph0" class="graph" transform="scale(1 1) rotate(0) translate(4 359)">
<title>include/BosonTagger.hh</title>
<polygon fill="white" stroke="none" points="-4,4 -4,-359 740.5,-359 740.5,4 -4,4"/>
<!-- Node1 -->
<g id="node1" class="node"><title>Node1</title>
<polygon fill="#bfbfbf" stroke="black" points="357,-335.5 357,-354.5 479,-354.5 479,-335.5 357,-335.5"/>
<text text-anchor="middle" x="418" y="-342.5" font-family="Helvetica,sans-Serif" font-size="10.00">include/BosonTagger.hh</text>
</g>
<!-- Node2 -->
<g id="node2" class="node"><title>Node2</title>
<g id="a_node2"><a xlink:href="../../da/dca/BosonTagger_8cpp.html" target="_top" xlink:title="source/BosonTagger.cpp">
<polygon fill="white" stroke="black" points="217.5,-274 217.5,-293 342.5,-293 342.5,-274 217.5,-274"/>
<text text-anchor="middle" x="280" y="-281" font-family="Helvetica,sans-Serif" font-size="10.00">source/BosonTagger.cpp</text>
</a>
</g>
</g>
<!-- Node1&#45;&gt;Node2 -->
<g id="edge1" class="edge"><title>Node1&#45;&gt;Node2</title>
<path fill="none" stroke="midnightblue" d="M388.961,-331.48C362.159,-319.924 323.083,-303.076 299.735,-293.009"/>
<polygon fill="midnightblue" stroke="midnightblue" points="387.659,-334.73 398.228,-335.475 390.431,-328.302 387.659,-334.73"/>
</g>
<!-- Node3 -->
<g id="node3" class="node"><title>Node3</title>
<g id="a_node3"><a xlink:href="../../de/d28/MainBoson_8cpp.html" target="_top" xlink:title="StandardModel/source\l/MainBoson.cpp">
<polygon fill="white" stroke="black" points="361,-268.5 361,-298.5 475,-298.5 475,-268.5 361,-268.5"/>
<text text-anchor="start" x="369" y="-286.5" font-family="Helvetica,sans-Serif" font-size="10.00">StandardModel/source</text>
<text text-anchor="middle" x="418" y="-275.5" font-family="Helvetica,sans-Serif" font-size="10.00">/MainBoson.cpp</text>
</a>
</g>
</g>
<!-- Node1&#45;&gt;Node3 -->
<g id="edge2" class="edge"><title>Node1&#45;&gt;Node3</title>
<path fill="none" stroke="midnightblue" d="M418,-325.235C418,-316.586 418,-306.497 418,-298.523"/>
<polygon fill="midnightblue" stroke="midnightblue" points="414.5,-325.475 418,-335.475 421.5,-325.475 414.5,-325.475"/>
</g>
<!-- Node4 -->
<g id="node4" class="node"><title>Node4</title>
<g id="a_node4"><a xlink:href="../../d5/da4/TopPartnerHadronicTagger_8hh.html" target="_top" xlink:title="TopPartner/include\l/TopPartnerHadronicTagger.hh">
<polygon fill="white" stroke="black" points="493,-268.5 493,-298.5 643,-298.5 643,-268.5 493,-268.5"/>
<text text-anchor="start" x="501" y="-286.5" font-family="Helvetica,sans-Serif" font-size="10.00">TopPartner/include</text>
<text text-anchor="middle" x="568" y="-275.5" font-family="Helvetica,sans-Serif" font-size="10.00">/TopPartnerHadronicTagger.hh</text>
</a>
</g>
</g>
<!-- Node1&#45;&gt;Node4 -->
<g id="edge3" class="edge"><title>Node1&#45;&gt;Node4</title>
<path fill="none" stroke="midnightblue" d="M448.961,-331.719C473.306,-322.062 507.238,-308.602 532.648,-298.523"/>
<polygon fill="midnightblue" stroke="midnightblue" points="447.496,-328.534 439.491,-335.475 450.077,-335.041 447.496,-328.534"/>
</g>
<!-- Node5 -->
<g id="node5" class="node"><title>Node5</title>
<g id="a_node5"><a xlink:href="../../d9/ddc/TopPartnerPairTagger_8hh.html" target="_top" xlink:title="TopPartner/include\l/TopPartnerPairTagger.hh">
<polygon fill="white" stroke="black" points="426,-201.5 426,-231.5 554,-231.5 554,-201.5 426,-201.5"/>
<text text-anchor="start" x="434" y="-219.5" font-family="Helvetica,sans-Serif" font-size="10.00">TopPartner/include</text>
<text text-anchor="middle" x="490" y="-208.5" font-family="Helvetica,sans-Serif" font-size="10.00">/TopPartnerPairTagger.hh</text>
</a>
</g>
</g>
<!-- Node4&#45;&gt;Node5 -->
<g id="edge4" class="edge"><title>Node4&#45;&gt;Node5</title>
<path fill="none" stroke="midnightblue" d="M543.26,-261.883C531.407,-252.005 517.515,-240.429 506.892,-231.577"/>
<polygon fill="midnightblue" stroke="midnightblue" points="541.152,-264.683 551.075,-268.396 545.634,-259.305 541.152,-264.683"/>
</g>
<!-- Node15 -->
<g id="node15" class="node"><title>Node15</title>
<g id="a_node15"><a xlink:href="../../de/d70/TopPartnerHadronicTagger_8cpp.html" target="_top" xlink:title="TopPartner/source/TopPartner\lHadronicTagger.cpp">
<polygon fill="white" stroke="black" points="572,-201.5 572,-231.5 720,-231.5 720,-201.5 572,-201.5"/>
<text text-anchor="start" x="580" y="-219.5" font-family="Helvetica,sans-Serif" font-size="10.00">TopPartner/source/TopPartner</text>
<text text-anchor="middle" x="646" y="-208.5" font-family="Helvetica,sans-Serif" font-size="10.00">HadronicTagger.cpp</text>
</a>
</g>
</g>
<!-- Node4&#45;&gt;Node15 -->
<g id="edge14" class="edge"><title>Node4&#45;&gt;Node15</title>
<path fill="none" stroke="midnightblue" d="M592.74,-261.883C604.593,-252.005 618.485,-240.429 629.108,-231.577"/>
<polygon fill="midnightblue" stroke="midnightblue" points="590.366,-259.305 584.925,-268.396 594.848,-264.683 590.366,-259.305"/>
</g>
<!-- Node6 -->
<g id="node6" class="node"><title>Node6</title>
<g id="a_node6"><a xlink:href="../../d2/d61/SignatureEffectiveTagger_8hh.html" target="_top" xlink:title="TopPartner/include\l/SignatureEffectiveTagger.hh">
<polygon fill="white" stroke="black" points="258.5,-134.5 258.5,-164.5 401.5,-164.5 401.5,-134.5 258.5,-134.5"/>
<text text-anchor="start" x="266.5" y="-152.5" font-family="Helvetica,sans-Serif" font-size="10.00">TopPartner/include</text>
<text text-anchor="middle" x="330" y="-141.5" font-family="Helvetica,sans-Serif" font-size="10.00">/SignatureEffectiveTagger.hh</text>
</a>
</g>
</g>
<!-- Node5&#45;&gt;Node6 -->
<g id="edge5" class="edge"><title>Node5&#45;&gt;Node6</title>
<path fill="none" stroke="midnightblue" d="M445.801,-197.544C420.198,-187.143 388.432,-174.238 364.65,-164.577"/>
<polygon fill="midnightblue" stroke="midnightblue" points="444.7,-200.875 455.282,-201.396 447.335,-194.39 444.7,-200.875"/>
</g>
<!-- Node11 -->
<g id="node11" class="node"><title>Node11</title>
<g id="a_node11"><a xlink:href="../../de/d78/EventPairTagger_8hh.html" target="_top" xlink:title="TopPartner/include\l/EventPairTagger.hh">
<polygon fill="white" stroke="black" points="437,-134.5 437,-164.5 543,-164.5 543,-134.5 437,-134.5"/>
<text text-anchor="start" x="445" y="-152.5" font-family="Helvetica,sans-Serif" font-size="10.00">TopPartner/include</text>
<text text-anchor="middle" x="490" y="-141.5" font-family="Helvetica,sans-Serif" font-size="10.00">/EventPairTagger.hh</text>
</a>
</g>
</g>
<!-- Node5&#45;&gt;Node11 -->
<g id="edge10" class="edge"><title>Node5&#45;&gt;Node11</title>
<path fill="none" stroke="midnightblue" d="M490,-191.108C490,-182.154 490,-172.323 490,-164.577"/>
<polygon fill="midnightblue" stroke="midnightblue" points="486.5,-191.396 490,-201.396 493.5,-191.396 486.5,-191.396"/>
</g>
<!-- Node14 -->
<g id="node14" class="node"><title>Node14</title>
<g id="a_node14"><a xlink:href="../../d7/dc7/TopPartnerPairTagger_8cpp.html" target="_top" xlink:title="TopPartner/source/TopPartner\lPairTagger.cpp">
<polygon fill="white" stroke="black" points="561,-134.5 561,-164.5 709,-164.5 709,-134.5 561,-134.5"/>
<text text-anchor="start" x="569" y="-152.5" font-family="Helvetica,sans-Serif" font-size="10.00">TopPartner/source/TopPartner</text>
<text text-anchor="middle" x="635" y="-141.5" font-family="Helvetica,sans-Serif" font-size="10.00">PairTagger.cpp</text>
</a>
</g>
</g>
<!-- Node5&#45;&gt;Node14 -->
<g id="edge13" class="edge"><title>Node5&#45;&gt;Node14</title>
<path fill="none" stroke="midnightblue" d="M530.67,-197.269C553.765,-186.916 582.236,-174.153 603.599,-164.577"/>
<polygon fill="midnightblue" stroke="midnightblue" points="529.156,-194.112 521.463,-201.396 532.02,-200.499 529.156,-194.112"/>
</g>
<!-- Node7 -->
<g id="node7" class="node"><title>Node7</title>
<g id="a_node7"><a xlink:href="../../d7/d67/EventEffectiveTagger_8hh.html" target="_top" xlink:title="TopPartner/include\l/EventEffectiveTagger.hh">
<polygon fill="white" stroke="black" points="113,-67.5 113,-97.5 241,-97.5 241,-67.5 113,-67.5"/>
<text text-anchor="start" x="121" y="-85.5" font-family="Helvetica,sans-Serif" font-size="10.00">TopPartner/include</text>
<text text-anchor="middle" x="177" y="-74.5" font-family="Helvetica,sans-Serif" font-size="10.00">/EventEffectiveTagger.hh</text>
</a>
</g>
</g>
<!-- Node6&#45;&gt;Node7 -->
<g id="edge6" class="edge"><title>Node6&#45;&gt;Node7</title>
<path fill="none" stroke="midnightblue" d="M287.411,-130.407C262.985,-120.029 232.775,-107.195 210.134,-97.5765"/>
<polygon fill="midnightblue" stroke="midnightblue" points="286.229,-133.707 296.801,-134.396 288.966,-127.264 286.229,-133.707"/>
</g>
<!-- Node10 -->
<g id="node10" class="node"><title>Node10</title>
<g id="a_node10"><a xlink:href="../../dc/d01/SignatureEffectiveTagger_8cpp.html" target="_top" xlink:title="TopPartner/source/Signature\lEffectiveTagger.cpp">
<polygon fill="white" stroke="black" points="259.5,-67.5 259.5,-97.5 400.5,-97.5 400.5,-67.5 259.5,-67.5"/>
<text text-anchor="start" x="267.5" y="-85.5" font-family="Helvetica,sans-Serif" font-size="10.00">TopPartner/source/Signature</text>
<text text-anchor="middle" x="330" y="-74.5" font-family="Helvetica,sans-Serif" font-size="10.00">EffectiveTagger.cpp</text>
</a>
</g>
</g>
<!-- Node6&#45;&gt;Node10 -->
<g id="edge9" class="edge"><title>Node6&#45;&gt;Node10</title>
<path fill="none" stroke="midnightblue" d="M330,-124.108C330,-115.154 330,-105.323 330,-97.5765"/>
<polygon fill="midnightblue" stroke="midnightblue" points="326.5,-124.396 330,-134.396 333.5,-124.396 326.5,-124.396"/>
</g>
<!-- Node8 -->
<g id="node8" class="node"><title>Node8</title>
<g id="a_node8"><a xlink:href="../../d6/def/EventEffectiveTagger_8cpp.html" target="_top" xlink:title="TopPartner/source/EventEffective\lTagger.cpp">
<polygon fill="white" stroke="black" points="0,-0.5 0,-30.5 164,-30.5 164,-0.5 0,-0.5"/>
<text text-anchor="start" x="8" y="-18.5" font-family="Helvetica,sans-Serif" font-size="10.00">TopPartner/source/EventEffective</text>
<text text-anchor="middle" x="82" y="-7.5" font-family="Helvetica,sans-Serif" font-size="10.00">Tagger.cpp</text>
</a>
</g>
</g>
<!-- Node7&#45;&gt;Node8 -->
<g id="edge7" class="edge"><title>Node7&#45;&gt;Node8</title>
<path fill="none" stroke="midnightblue" d="M148.111,-61.7337C133.41,-51.6755 115.885,-39.6847 102.573,-30.5765"/>
<polygon fill="midnightblue" stroke="midnightblue" points="146.157,-64.6377 156.386,-67.396 150.11,-58.8605 146.157,-64.6377"/>
</g>
<!-- Node9 -->
<g id="node9" class="node"><title>Node9</title>
<g id="a_node9"><a xlink:href="../../d9/d4c/MainEffective_8cpp.html" target="_top" xlink:title="TopPartner/source/MainEffective.cpp">
<polygon fill="white" stroke="black" points="182.5,-6 182.5,-25 361.5,-25 361.5,-6 182.5,-6"/>
<text text-anchor="middle" x="272" y="-13" font-family="Helvetica,sans-Serif" font-size="10.00">TopPartner/source/MainEffective.cpp</text>
</a>
</g>
</g>
<!-- Node7&#45;&gt;Node9 -->
<g id="edge8" class="edge"><title>Node7&#45;&gt;Node9</title>
<path fill="none" stroke="midnightblue" d="M206.025,-61.6409C223.953,-49.3742 246.041,-34.2613 259.567,-25.007"/>
<polygon fill="midnightblue" stroke="midnightblue" points="203.89,-58.8605 197.614,-67.396 207.843,-64.6377 203.89,-58.8605"/>
</g>
<!-- Node12 -->
<g id="node12" class="node"><title>Node12</title>
<g id="a_node12"><a xlink:href="../../dc/dfe/EventPairTagger_8cpp.html" target="_top" xlink:title="TopPartner/source/EventPair\lTagger.cpp">
<polygon fill="white" stroke="black" points="418.5,-67.5 418.5,-97.5 561.5,-97.5 561.5,-67.5 418.5,-67.5"/>
<text text-anchor="start" x="426.5" y="-85.5" font-family="Helvetica,sans-Serif" font-size="10.00">TopPartner/source/EventPair</text>
<text text-anchor="middle" x="490" y="-74.5" font-family="Helvetica,sans-Serif" font-size="10.00">Tagger.cpp</text>
</a>
</g>
</g>
<!-- Node11&#45;&gt;Node12 -->
<g id="edge11" class="edge"><title>Node11&#45;&gt;Node12</title>
<path fill="none" stroke="midnightblue" d="M490,-124.108C490,-115.154 490,-105.323 490,-97.5765"/>
<polygon fill="midnightblue" stroke="midnightblue" points="486.5,-124.396 490,-134.396 493.5,-124.396 486.5,-124.396"/>
</g>
<!-- Node13 -->
<g id="node13" class="node"><title>Node13</title>
<g id="a_node13"><a xlink:href="../../d5/d52/MainPair_8cpp.html" target="_top" xlink:title="TopPartner/source/MainPair.cpp">
<polygon fill="white" stroke="black" points="579.5,-73 579.5,-92 736.5,-92 736.5,-73 579.5,-73"/>
<text text-anchor="middle" x="658" y="-80" font-family="Helvetica,sans-Serif" font-size="10.00">TopPartner/source/MainPair.cpp</text>
</a>
</g>
</g>
<!-- Node11&#45;&gt;Node13 -->
<g id="edge12" class="edge"><title>Node11&#45;&gt;Node13</title>
<path fill="none" stroke="midnightblue" d="M535.789,-130.784C568.364,-118.181 610.68,-101.808 636.013,-92.007"/>
<polygon fill="midnightblue" stroke="midnightblue" points="534.517,-127.523 526.453,-134.396 537.043,-134.052 534.517,-127.523"/>
</g>
</g>
</svg>
