<?xml version="1.0" encoding="UTF-8" standalone="no"?>
<!DOCTYPE svg PUBLIC "-//W3C//DTD SVG 1.1//EN"
 "http://www.w3.org/Graphics/SVG/1.1/DTD/svg11.dtd">
<!-- Generated by graphviz version 2.38.0 (20140413.2041)
 -->
<!-- Title: boca/analysis/BranchWriter.hh Pages: 1 -->
<svg width="1870pt" height="442pt"
 viewBox="0.00 0.00 1870.20 442.00" xmlns="http://www.w3.org/2000/svg" xmlns:xlink="http://www.w3.org/1999/xlink">
<g id="graph0" class="graph" transform="scale(1 1) rotate(0) translate(4 438)">
<title>boca/analysis/BranchWriter.hh</title>
<polygon fill="white" stroke="none" points="-4,4 -4,-438 1866.2,-438 1866.2,4 -4,4"/>
<!-- Node1 -->
<g id="node1" class="node"><title>Node1</title>
<polygon fill="#bfbfbf" stroke="black" points="753.5,-414.5 753.5,-433.5 903.5,-433.5 903.5,-414.5 753.5,-414.5"/>
<text text-anchor="middle" x="828.5" y="-421.5" font-family="Helvetica,sans-Serif" font-size="10.00">boca/analysis/BranchWriter.hh</text>
</g>
<!-- Node2 -->
<g id="node2" class="node"><title>Node2</title>
<polygon fill="white" stroke="#bfbfbf" points="267.5,-358.5 267.5,-377.5 311.5,-377.5 311.5,-358.5 267.5,-358.5"/>
<text text-anchor="middle" x="289.5" y="-365.5" font-family="Helvetica,sans-Serif" font-size="10.00">mutex</text>
</g>
<!-- Node1&#45;&gt;Node2 -->
<g id="edge1" class="edge"><title>Node1&#45;&gt;Node2</title>
<path fill="none" stroke="midnightblue" d="M753.235,-421.118C655.363,-417.609 479.154,-407.669 321.53,-378.079"/>
<polygon fill="midnightblue" stroke="midnightblue" points="322.134,-374.631 311.655,-376.194 320.822,-381.507 322.134,-374.631"/>
</g>
<!-- Node3 -->
<g id="node3" class="node"><title>Node3</title>
<g id="a_node3"><a xlink:href="../../d0/d9f/FileWriter_8hh.html" target="_top" xlink:title="boca/io/FileWriter.hh">
<polygon fill="white" stroke="black" points="329,-358.5 329,-377.5 436,-377.5 436,-358.5 329,-358.5"/>
<text text-anchor="middle" x="382.5" y="-365.5" font-family="Helvetica,sans-Serif" font-size="10.00">boca/io/FileWriter.hh</text>
</a>
</g>
</g>
<!-- Node1&#45;&gt;Node3 -->
<g id="edge2" class="edge"><title>Node1&#45;&gt;Node3</title>
<path fill="none" stroke="midnightblue" d="M757.83,-414.444C672.002,-404.052 528.508,-386.678 446.034,-376.692"/>
<polygon fill="midnightblue" stroke="midnightblue" points="446.39,-373.21 436.042,-375.483 445.549,-380.159 446.39,-373.21"/>
</g>
<!-- Node10 -->
<g id="node10" class="node"><title>Node10</title>
<g id="a_node10"><a xlink:href="../../df/d2c/Reader_8hh.html" target="_top" xlink:title="boca/multivariant/Reader.hh">
<polygon fill="white" stroke="black" points="605,-358.5 605,-377.5 744,-377.5 744,-358.5 605,-358.5"/>
<text text-anchor="middle" x="674.5" y="-365.5" font-family="Helvetica,sans-Serif" font-size="10.00">boca/multivariant/Reader.hh</text>
</a>
</g>
</g>
<!-- Node1&#45;&gt;Node10 -->
<g id="edge9" class="edge"><title>Node1&#45;&gt;Node10</title>
<path fill="none" stroke="midnightblue" d="M804.098,-414.444C778.303,-405.399 737.423,-391.064 708.482,-380.916"/>
<polygon fill="midnightblue" stroke="midnightblue" points="709.382,-377.523 698.788,-377.516 707.066,-384.128 709.382,-377.523"/>
</g>
<!-- Node40 -->
<g id="node40" class="node"><title>Node40</title>
<g id="a_node40"><a xlink:href="../../d2/d1f/Info_8hh.html" target="_top" xlink:title="boca/branch/Info.hh">
<polygon fill="white" stroke="black" points="1566,-302.5 1566,-321.5 1669,-321.5 1669,-302.5 1566,-302.5"/>
<text text-anchor="middle" x="1617.5" y="-309.5" font-family="Helvetica,sans-Serif" font-size="10.00">boca/branch/Info.hh</text>
</a>
</g>
</g>
<!-- Node1&#45;&gt;Node40 -->
<g id="edge47" class="edge"><title>Node1&#45;&gt;Node40</title>
<path fill="none" stroke="midnightblue" d="M903.575,-420.551C1007.2,-416.287 1199.63,-405.193 1361.5,-378 1440.61,-364.709 1531.15,-339.228 1580.55,-324.425"/>
<polygon fill="midnightblue" stroke="midnightblue" points="1581.6,-327.765 1590.16,-321.525 1579.58,-321.064 1581.6,-327.765"/>
</g>
<!-- Node45 -->
<g id="node45" class="node"><title>Node45</title>
<g id="a_node45"><a xlink:href="../../de/d83/File_8hh.html" target="_top" xlink:title="boca/File.hh">
<polygon fill="white" stroke="black" points="1187.5,-302.5 1187.5,-321.5 1257.5,-321.5 1257.5,-302.5 1187.5,-302.5"/>
<text text-anchor="middle" x="1222.5" y="-309.5" font-family="Helvetica,sans-Serif" font-size="10.00">boca/File.hh</text>
</a>
</g>
</g>
<!-- Node1&#45;&gt;Node45 -->
<g id="edge55" class="edge"><title>Node1&#45;&gt;Node45</title>
<path fill="none" stroke="midnightblue" d="M859.089,-414.46C929.428,-394.822 1102.69,-346.45 1181.85,-324.348"/>
<polygon fill="midnightblue" stroke="midnightblue" points="1183.24,-327.595 1191.93,-321.535 1181.36,-320.853 1183.24,-327.595"/>
</g>
<!-- Node48 -->
<g id="node48" class="node"><title>Node48</title>
<g id="a_node48"><a xlink:href="../../d8/de8/Debug_8hh.html" target="_top" xlink:title="boca/generic/Debug.hh">
<polygon fill="white" stroke="black" points="1540,-246.5 1540,-265.5 1657,-265.5 1657,-246.5 1540,-246.5"/>
<text text-anchor="middle" x="1598.5" y="-253.5" font-family="Helvetica,sans-Serif" font-size="10.00">boca/generic/Debug.hh</text>
</a>
</g>
</g>
<!-- Node1&#45;&gt;Node48 -->
<g id="edge61" class="edge"><title>Node1&#45;&gt;Node48</title>
<path fill="none" stroke="midnightblue" d="M869.153,-414.426C911.838,-405.411 980.903,-390.787 1040.5,-378 1228.65,-337.631 1452.32,-288.906 1549.45,-267.713"/>
<polygon fill="midnightblue" stroke="midnightblue" points="1550.25,-271.119 1559.27,-265.568 1548.76,-264.28 1550.25,-271.119"/>
</g>
<!-- Node4 -->
<g id="node4" class="node"><title>Node4</title>
<polygon fill="white" stroke="#bfbfbf" points="59,-302.5 59,-321.5 106,-321.5 106,-302.5 59,-302.5"/>
<text text-anchor="middle" x="82.5" y="-309.5" font-family="Helvetica,sans-Serif" font-size="10.00">TFile.h</text>
</g>
<!-- Node3&#45;&gt;Node4 -->
<g id="edge3" class="edge"><title>Node3&#45;&gt;Node4</title>
<path fill="none" stroke="midnightblue" d="M328.737,-358.587C266.989,-348.818 168.456,-332.879 116.062,-321.899"/>
<polygon fill="midnightblue" stroke="midnightblue" points="116.737,-318.464 106.223,-319.773 115.258,-325.306 116.737,-318.464"/>
</g>
<!-- Node5 -->
<g id="node5" class="node"><title>Node5</title>
<g id="a_node5"><a xlink:href="../../dc/d65/TreeWriter_8hh.html" target="_top" xlink:title="boca/io/TreeWriter.hh">
<polygon fill="white" stroke="black" points="124.5,-302.5 124.5,-321.5 234.5,-321.5 234.5,-302.5 124.5,-302.5"/>
<text text-anchor="middle" x="179.5" y="-309.5" font-family="Helvetica,sans-Serif" font-size="10.00">boca/io/TreeWriter.hh</text>
</a>
</g>
</g>
<!-- Node3&#45;&gt;Node5 -->
<g id="edge4" class="edge"><title>Node3&#45;&gt;Node5</title>
<path fill="none" stroke="midnightblue" d="M350.334,-358.444C315.441,-349.162 259.607,-334.309 221.329,-324.127"/>
<polygon fill="midnightblue" stroke="midnightblue" points="222.079,-320.705 211.515,-321.516 220.28,-327.47 222.079,-320.705"/>
</g>
<!-- Node6 -->
<g id="node6" class="node"><title>Node6</title>
<polygon fill="white" stroke="#bfbfbf" points="0,-246.5 0,-265.5 29,-265.5 29,-246.5 0,-246.5"/>
<text text-anchor="middle" x="14.5" y="-253.5" font-family="Helvetica,sans-Serif" font-size="10.00">list</text>
</g>
<!-- Node5&#45;&gt;Node6 -->
<g id="edge5" class="edge"><title>Node5&#45;&gt;Node6</title>
<path fill="none" stroke="midnightblue" d="M151.274,-302.445C124.607,-294.264 83.2943,-281.335 38.7348,-265.956"/>
<polygon fill="midnightblue" stroke="midnightblue" points="39.776,-262.612 29.1811,-262.638 37.4792,-269.225 39.776,-262.612"/>
</g>
<!-- Node7 -->
<g id="node7" class="node"><title>Node7</title>
<polygon fill="white" stroke="#bfbfbf" points="47.5,-246.5 47.5,-265.5 97.5,-265.5 97.5,-246.5 47.5,-246.5"/>
<text text-anchor="middle" x="72.5" y="-253.5" font-family="Helvetica,sans-Serif" font-size="10.00">TTree.h</text>
</g>
<!-- Node5&#45;&gt;Node7 -->
<g id="edge6" class="edge"><title>Node5&#45;&gt;Node7</title>
<path fill="none" stroke="midnightblue" d="M162.309,-302.324C145.149,-293.664 118.554,-280.242 98.7527,-270.249"/>
<polygon fill="midnightblue" stroke="midnightblue" points="100.153,-267.035 89.6487,-265.655 96.9993,-273.285 100.153,-267.035"/>
</g>
<!-- Node8 -->
<g id="node8" class="node"><title>Node8</title>
<g id="a_node8"><a xlink:href="../../d8/d9e/TreeBranch_8hh.html" target="_top" xlink:title="boca/io/TreeBranch.hh">
<polygon fill="white" stroke="red" points="29,-185 29,-204 144,-204 144,-185 29,-185"/>
<text text-anchor="middle" x="86.5" y="-192" font-family="Helvetica,sans-Serif" font-size="10.00">boca/io/TreeBranch.hh</text>
</a>
</g>
</g>
<!-- Node5&#45;&gt;Node8 -->
<g id="edge7" class="edge"><title>Node5&#45;&gt;Node8</title>
<path fill="none" stroke="midnightblue" d="M172.51,-302.319C157.093,-283.172 119.951,-237.044 99.8909,-212.131"/>
<polygon fill="midnightblue" stroke="midnightblue" points="102.569,-209.876 93.5712,-204.282 97.1167,-214.266 102.569,-209.876"/>
</g>
<!-- Node9 -->
<g id="node9" class="node"><title>Node9</title>
<polygon fill="white" stroke="#bfbfbf" points="483,-123.5 483,-142.5 524,-142.5 524,-123.5 483,-123.5"/>
<text text-anchor="middle" x="503.5" y="-130.5" font-family="Helvetica,sans-Serif" font-size="10.00">string</text>
</g>
<!-- Node8&#45;&gt;Node9 -->
<g id="edge8" class="edge"><title>Node8&#45;&gt;Node9</title>
<path fill="none" stroke="midnightblue" d="M144.044,-185.289C233.542,-172.519 403.021,-148.337 472.551,-138.416"/>
<polygon fill="midnightblue" stroke="midnightblue" points="473.419,-141.828 482.824,-136.95 472.43,-134.898 473.419,-141.828"/>
</g>
<!-- Node10&#45;&gt;Node5 -->
<g id="edge13" class="edge"><title>Node10&#45;&gt;Node5</title>
<path fill="none" stroke="midnightblue" d="M604.89,-359.406C509.154,-348.962 338.119,-330.304 244.739,-320.117"/>
<polygon fill="midnightblue" stroke="midnightblue" points="244.894,-316.613 234.573,-319.008 244.134,-323.572 244.894,-316.613"/>
</g>
<!-- Node11 -->
<g id="node11" class="node"><title>Node11</title>
<polygon fill="white" stroke="#bfbfbf" points="682,-302.5 682,-321.5 769,-321.5 769,-302.5 682,-302.5"/>
<text text-anchor="middle" x="725.5" y="-309.5" font-family="Helvetica,sans-Serif" font-size="10.00">TMVA/Reader.h</text>
</g>
<!-- Node10&#45;&gt;Node11 -->
<g id="edge10" class="edge"><title>Node10&#45;&gt;Node11</title>
<path fill="none" stroke="midnightblue" d="M682.922,-358.083C690.348,-350.22 701.352,-338.569 710.312,-329.081"/>
<polygon fill="midnightblue" stroke="midnightblue" points="712.913,-331.424 717.235,-321.751 707.824,-326.618 712.913,-331.424"/>
</g>
<!-- Node12 -->
<g id="node12" class="node"><title>Node12</title>
<g id="a_node12"><a xlink:href="../../dc/d76/Options_8hh.html" target="_top" xlink:title="boca/generic/Options.hh">
<polygon fill="white" stroke="black" points="1016.5,-302.5 1016.5,-321.5 1138.5,-321.5 1138.5,-302.5 1016.5,-302.5"/>
<text text-anchor="middle" x="1077.5" y="-309.5" font-family="Helvetica,sans-Serif" font-size="10.00">boca/generic/Options.hh</text>
</a>
</g>
</g>
<!-- Node10&#45;&gt;Node12 -->
<g id="edge11" class="edge"><title>Node10&#45;&gt;Node12</title>
<path fill="none" stroke="midnightblue" d="M738.357,-358.444C811.318,-348.667 930.4,-332.711 1006.3,-322.541"/>
<polygon fill="midnightblue" stroke="midnightblue" points="1006.81,-326.004 1016.25,-321.207 1005.88,-319.066 1006.81,-326.004"/>
</g>
<!-- Node14 -->
<g id="node14" class="node"><title>Node14</title>
<g id="a_node14"><a xlink:href="../../db/d31/Sort_8hh.html" target="_top" xlink:title="boca/multiplets/Sort.hh">
<polygon fill="white" stroke="black" points="154,-246.5 154,-265.5 271,-265.5 271,-246.5 154,-246.5"/>
<text text-anchor="middle" x="212.5" y="-253.5" font-family="Helvetica,sans-Serif" font-size="10.00">boca/multiplets/Sort.hh</text>
</a>
</g>
</g>
<!-- Node10&#45;&gt;Node14 -->
<g id="edge14" class="edge"><title>Node10&#45;&gt;Node14</title>
<path fill="none" stroke="midnightblue" d="M637.874,-358.417C599.417,-349.394 537.193,-334.764 483.5,-322 404.123,-303.13 311.731,-280.916 257.912,-267.951"/>
<polygon fill="midnightblue" stroke="midnightblue" points="258.543,-264.503 248.001,-265.563 256.903,-271.308 258.543,-264.503"/>
</g>
<!-- Node20 -->
<g id="node20" class="node"><title>Node20</title>
<g id="a_node20"><a xlink:href="../../df/d31/Phase_8hh.html" target="_top" xlink:title="boca/multivariant/Phase.hh">
<polygon fill="white" stroke="black" points="289,-246.5 289,-265.5 424,-265.5 424,-246.5 289,-246.5"/>
<text text-anchor="middle" x="356.5" y="-253.5" font-family="Helvetica,sans-Serif" font-size="10.00">boca/multivariant/Phase.hh</text>
</a>
</g>
</g>
<!-- Node10&#45;&gt;Node20 -->
<g id="edge21" class="edge"><title>Node10&#45;&gt;Node20</title>
<path fill="none" stroke="midnightblue" d="M649.812,-358.46C593.573,-339.006 455.818,-291.355 391.124,-268.977"/>
<polygon fill="midnightblue" stroke="midnightblue" points="391.987,-265.572 381.392,-265.61 389.698,-272.187 391.987,-265.572"/>
</g>
<!-- Node23 -->
<g id="node23" class="node"><title>Node23</title>
<g id="a_node23"><a xlink:href="../../da/d59/PreCuts_8hh.html" target="_top" xlink:title="boca/PreCuts.hh">
<polygon fill="white" stroke="black" points="887.5,-302.5 887.5,-321.5 977.5,-321.5 977.5,-302.5 887.5,-302.5"/>
<text text-anchor="middle" x="932.5" y="-309.5" font-family="Helvetica,sans-Serif" font-size="10.00">boca/PreCuts.hh</text>
</a>
</g>
</g>
<!-- Node10&#45;&gt;Node23 -->
<g id="edge26" class="edge"><title>Node10&#45;&gt;Node23</title>
<path fill="none" stroke="midnightblue" d="M715.381,-358.444C760.483,-349.004 833.112,-333.802 881.802,-323.611"/>
<polygon fill="midnightblue" stroke="midnightblue" points="882.74,-326.991 891.81,-321.516 881.305,-320.139 882.74,-326.991"/>
</g>
<!-- Node36 -->
<g id="node36" class="node"><title>Node36</title>
<g id="a_node36"><a xlink:href="../../d1/d43/boca_2Event_8hh.html" target="_top" xlink:title="boca/Event.hh">
<polygon fill="white" stroke="black" points="583.5,-302.5 583.5,-321.5 663.5,-321.5 663.5,-302.5 583.5,-302.5"/>
<text text-anchor="middle" x="623.5" y="-309.5" font-family="Helvetica,sans-Serif" font-size="10.00">boca/Event.hh</text>
</a>
</g>
</g>
<!-- Node10&#45;&gt;Node36 -->
<g id="edge43" class="edge"><title>Node10&#45;&gt;Node36</title>
<path fill="none" stroke="midnightblue" d="M666.078,-358.083C658.652,-350.22 647.648,-338.569 638.688,-329.081"/>
<polygon fill="midnightblue" stroke="midnightblue" points="641.176,-326.618 631.765,-321.751 636.087,-331.424 641.176,-326.618"/>
</g>
<!-- Node13 -->
<g id="node13" class="node"><title>Node13</title>
<polygon fill="white" stroke="#bfbfbf" points="1117.5,-185 1117.5,-204 1169.5,-204 1169.5,-185 1117.5,-185"/>
<text text-anchor="middle" x="1143.5" y="-192" font-family="Helvetica,sans-Serif" font-size="10.00">sstream</text>
</g>
<!-- Node12&#45;&gt;Node13 -->
<g id="edge12" class="edge"><title>Node12&#45;&gt;Node13</title>
<path fill="none" stroke="midnightblue" d="M1082.46,-302.319C1093.26,-283.422 1119.07,-238.248 1133.43,-213.121"/>
<polygon fill="midnightblue" stroke="midnightblue" points="1136.56,-214.701 1138.48,-204.282 1130.48,-211.228 1136.56,-214.701"/>
</g>
<!-- Node15 -->
<g id="node15" class="node"><title>Node15</title>
<polygon fill="white" stroke="#bfbfbf" points="200.5,-179.5 200.5,-209.5 310.5,-209.5 310.5,-179.5 200.5,-179.5"/>
<text text-anchor="start" x="208.5" y="-197.5" font-family="Helvetica,sans-Serif" font-size="10.00">boost/range/algorithm</text>
<text text-anchor="middle" x="255.5" y="-186.5" font-family="Helvetica,sans-Serif" font-size="10.00">/sort.hpp</text>
</g>
<!-- Node14&#45;&gt;Node15 -->
<g id="edge15" class="edge"><title>Node14&#45;&gt;Node15</title>
<path fill="none" stroke="midnightblue" d="M218.661,-246.475C224.049,-239.019 232.12,-227.852 239.335,-217.869"/>
<polygon fill="midnightblue" stroke="midnightblue" points="242.345,-219.678 245.366,-209.523 236.672,-215.578 242.345,-219.678"/>
</g>
<!-- Node16 -->
<g id="node16" class="node"><title>Node16</title>
<polygon fill="white" stroke="#bfbfbf" points="251,-123.5 251,-142.5 364,-142.5 364,-123.5 251,-123.5"/>
<text text-anchor="middle" x="307.5" y="-130.5" font-family="Helvetica,sans-Serif" font-size="10.00">boost/units/cmath.hpp</text>
</g>
<!-- Node14&#45;&gt;Node16 -->
<g id="edge16" class="edge"><title>Node14&#45;&gt;Node16</title>
<path fill="none" stroke="midnightblue" d="M205.765,-246.257C195.102,-231.268 176.961,-200.235 191.5,-179 203.036,-162.151 221.869,-151.61 241.037,-145.015"/>
<polygon fill="midnightblue" stroke="midnightblue" points="242.236,-148.308 250.748,-141.999 240.16,-141.623 242.236,-148.308"/>
</g>
<!-- Node17 -->
<g id="node17" class="node"><title>Node17</title>
<g id="a_node17"><a xlink:href="../../d2/d29/Id_8hh.html" target="_top" xlink:title="boca/physics/Id.hh">
<polygon fill="white" stroke="black" points="569,-185 569,-204 668,-204 668,-185 569,-185"/>
<text text-anchor="middle" x="618.5" y="-192" font-family="Helvetica,sans-Serif" font-size="10.00">boca/physics/Id.hh</text>
</a>
</g>
</g>
<!-- Node14&#45;&gt;Node17 -->
<g id="edge17" class="edge"><title>Node14&#45;&gt;Node17</title>
<path fill="none" stroke="midnightblue" d="M271.324,-247.079C274.087,-246.713 276.824,-246.352 279.5,-246 403.899,-229.648 436.159,-233.009 559.5,-210 565.009,-208.972 570.772,-207.747 576.446,-206.45"/>
<polygon fill="midnightblue" stroke="midnightblue" points="577.57,-209.78 586.491,-204.065 575.953,-202.97 577.57,-209.78"/>
</g>
<!-- Node17&#45;&gt;Node9 -->
<g id="edge18" class="edge"><title>Node17&#45;&gt;Node9</title>
<path fill="none" stroke="midnightblue" d="M602.023,-184.975C582.895,-175.078 551.127,-158.642 528.848,-147.115"/>
<polygon fill="midnightblue" stroke="midnightblue" points="530.436,-143.996 519.946,-142.509 527.219,-150.213 530.436,-143.996"/>
</g>
<!-- Node18 -->
<g id="node18" class="node"><title>Node18</title>
<polygon fill="white" stroke="#bfbfbf" points="1459.5,-0.5 1459.5,-19.5 1503.5,-19.5 1503.5,-0.5 1459.5,-0.5"/>
<text text-anchor="middle" x="1481.5" y="-7.5" font-family="Helvetica,sans-Serif" font-size="10.00">vector</text>
</g>
<!-- Node17&#45;&gt;Node18 -->
<g id="edge19" class="edge"><title>Node17&#45;&gt;Node18</title>
<path fill="none" stroke="midnightblue" d="M610.347,-184.82C588.961,-161.025 535.324,-94.0095 571.5,-56 602.382,-23.5536 1291.24,-13.2931 1449.36,-11.3615"/>
<polygon fill="midnightblue" stroke="midnightblue" points="1449.44,-14.8608 1459.4,-11.2414 1449.36,-7.86131 1449.44,-14.8608"/>
</g>
<!-- Node19 -->
<g id="node19" class="node"><title>Node19</title>
<g id="a_node19"><a xlink:href="../../d5/d40/ElectronVolt_8hh.html" target="_top" xlink:title="boca/physics/ElectronVolt.hh">
<polygon fill="white" stroke="red" points="580.5,-62 580.5,-81 724.5,-81 724.5,-62 580.5,-62"/>
<text text-anchor="middle" x="652.5" y="-69" font-family="Helvetica,sans-Serif" font-size="10.00">boca/physics/ElectronVolt.hh</text>
</a>
</g>
</g>
<!-- Node17&#45;&gt;Node19 -->
<g id="edge20" class="edge"><title>Node17&#45;&gt;Node19</title>
<path fill="none" stroke="midnightblue" d="M620.945,-184.798C626.434,-165.263 639.837,-117.565 647.288,-91.0471"/>
<polygon fill="midnightblue" stroke="midnightblue" points="650.741,-91.6972 650.077,-81.1232 644.002,-89.8035 650.741,-91.6972"/>
</g>
<!-- Node21 -->
<g id="node21" class="node"><title>Node21</title>
<g id="a_node21"><a xlink:href="../../dd/d9c/Tag_8hh.html" target="_top" xlink:title="boca/Tag.hh">
<polygon fill="white" stroke="black" points="480,-185 480,-204 551,-204 551,-185 480,-185"/>
<text text-anchor="middle" x="515.5" y="-192" font-family="Helvetica,sans-Serif" font-size="10.00">boca/Tag.hh</text>
</a>
</g>
</g>
<!-- Node20&#45;&gt;Node21 -->
<g id="edge22" class="edge"><title>Node20&#45;&gt;Node21</title>
<path fill="none" stroke="midnightblue" d="M379.281,-246.475C406.555,-236.269 452.413,-219.108 483.301,-207.549"/>
<polygon fill="midnightblue" stroke="midnightblue" points="484.622,-210.792 492.761,-204.009 482.169,-204.236 484.622,-210.792"/>
</g>
<!-- Node22 -->
<g id="node22" class="node"><title>Node22</title>
<g id="a_node22"><a xlink:href="../../da/df8/Stage_8hh.html" target="_top" xlink:title="boca/multivariant/Stage.hh">
<polygon fill="white" stroke="black" points="329,-185 329,-204 462,-204 462,-185 329,-185"/>
<text text-anchor="middle" x="395.5" y="-192" font-family="Helvetica,sans-Serif" font-size="10.00">boca/multivariant/Stage.hh</text>
</a>
</g>
</g>
<!-- Node20&#45;&gt;Node22 -->
<g id="edge24" class="edge"><title>Node20&#45;&gt;Node22</title>
<path fill="none" stroke="midnightblue" d="M362.088,-246.475C367.88,-237.638 377.089,-223.589 384.374,-212.475"/>
<polygon fill="midnightblue" stroke="midnightblue" points="387.368,-214.291 389.923,-204.009 381.513,-210.454 387.368,-214.291"/>
</g>
<!-- Node21&#45;&gt;Node9 -->
<g id="edge23" class="edge"><title>Node21&#45;&gt;Node9</title>
<path fill="none" stroke="midnightblue" d="M513.781,-184.975C512.07,-176.492 509.39,-163.204 507.195,-152.322"/>
<polygon fill="midnightblue" stroke="midnightblue" points="510.624,-151.62 505.216,-142.509 503.762,-153.004 510.624,-151.62"/>
</g>
<!-- Node22&#45;&gt;Node9 -->
<g id="edge25" class="edge"><title>Node22&#45;&gt;Node9</title>
<path fill="none" stroke="midnightblue" d="M410.974,-184.975C428.778,-175.166 458.241,-158.935 479.132,-147.425"/>
<polygon fill="midnightblue" stroke="midnightblue" points="480.985,-150.4 488.055,-142.509 477.607,-144.269 480.985,-150.4"/>
</g>
<!-- Node24 -->
<g id="node24" class="node"><title>Node24</title>
<g id="a_node24"><a xlink:href="../../d6/dcd/Range_8hh.html" target="_top" xlink:title="boca/physics/Range.hh">
<polygon fill="white" stroke="red" points="1260,-246.5 1260,-265.5 1379,-265.5 1379,-246.5 1260,-246.5"/>
<text text-anchor="middle" x="1319.5" y="-253.5" font-family="Helvetica,sans-Serif" font-size="10.00">boca/physics/Range.hh</text>
</a>
</g>
</g>
<!-- Node23&#45;&gt;Node24 -->
<g id="edge27" class="edge"><title>Node23&#45;&gt;Node24</title>
<path fill="none" stroke="midnightblue" d="M977.651,-304.7C1044.53,-295.367 1170.51,-277.789 1249.44,-266.776"/>
<polygon fill="midnightblue" stroke="midnightblue" points="1250.36,-270.182 1259.78,-265.333 1249.39,-263.249 1250.36,-270.182"/>
</g>
<!-- Node34 -->
<g id="node34" class="node"><title>Node34</title>
<g id="a_node34"><a xlink:href="../../d4/d5f/PreCut_8hh.html" target="_top" xlink:title="boca/PreCut.hh">
<polygon fill="white" stroke="red" points="849,-246.5 849,-265.5 934,-265.5 934,-246.5 849,-246.5"/>
<text text-anchor="middle" x="891.5" y="-253.5" font-family="Helvetica,sans-Serif" font-size="10.00">boca/PreCut.hh</text>
</a>
</g>
</g>
<!-- Node23&#45;&gt;Node34 -->
<g id="edge40" class="edge"><title>Node23&#45;&gt;Node34</title>
<path fill="none" stroke="midnightblue" d="M925.73,-302.083C919.938,-294.455 911.442,-283.264 904.362,-273.941"/>
<polygon fill="midnightblue" stroke="midnightblue" points="906.979,-271.599 898.144,-265.751 901.404,-275.832 906.979,-271.599"/>
</g>
<!-- Node35 -->
<g id="node35" class="node"><title>Node35</title>
<g id="a_node35"><a xlink:href="../../d3/d7e/Vector_8hh.html" target="_top" xlink:title="boca/generic/Vector.hh">
<polygon fill="white" stroke="red" points="952,-246.5 952,-265.5 1069,-265.5 1069,-246.5 952,-246.5"/>
<text text-anchor="middle" x="1010.5" y="-253.5" font-family="Helvetica,sans-Serif" font-size="10.00">boca/generic/Vector.hh</text>
</a>
</g>
</g>
<!-- Node23&#45;&gt;Node35 -->
<g id="edge42" class="edge"><title>Node23&#45;&gt;Node35</title>
<path fill="none" stroke="midnightblue" d="M945.032,-302.324C957.086,-293.979 975.527,-281.212 989.769,-271.352"/>
<polygon fill="midnightblue" stroke="midnightblue" points="991.769,-274.224 997.999,-265.655 987.785,-268.469 991.769,-274.224"/>
</g>
<!-- Node25 -->
<g id="node25" class="node"><title>Node25</title>
<polygon fill="white" stroke="#bfbfbf" points="1187.5,-185 1187.5,-204 1241.5,-204 1241.5,-185 1187.5,-185"/>
<text text-anchor="middle" x="1214.5" y="-192" font-family="Helvetica,sans-Serif" font-size="10.00">iostream</text>
</g>
<!-- Node24&#45;&gt;Node25 -->
<g id="edge28" class="edge"><title>Node24&#45;&gt;Node25</title>
<path fill="none" stroke="midnightblue" d="M1304.46,-246.475C1287.22,-236.711 1258.76,-220.581 1238.47,-209.081"/>
<polygon fill="midnightblue" stroke="midnightblue" points="1239.94,-205.894 1229.52,-204.009 1236.49,-211.984 1239.94,-205.894"/>
</g>
<!-- Node26 -->
<g id="node26" class="node"><title>Node26</title>
<g id="a_node26"><a xlink:href="../../dc/d45/Units_8hh.html" target="_top" xlink:title="boca/physics/Units.hh">
<polygon fill="white" stroke="black" points="1259.5,-185 1259.5,-204 1373.5,-204 1373.5,-185 1259.5,-185"/>
<text text-anchor="middle" x="1316.5" y="-192" font-family="Helvetica,sans-Serif" font-size="10.00">boca/physics/Units.hh</text>
</a>
</g>
</g>
<!-- Node24&#45;&gt;Node26 -->
<g id="edge29" class="edge"><title>Node24&#45;&gt;Node26</title>
<path fill="none" stroke="midnightblue" d="M1319.07,-246.475C1318.65,-238.08 1317.99,-224.981 1317.44,-214.163"/>
<polygon fill="midnightblue" stroke="midnightblue" points="1320.93,-213.82 1316.93,-204.009 1313.94,-214.173 1320.93,-213.82"/>
</g>
<!-- Node26&#45;&gt;Node16 -->
<g id="edge30" class="edge"><title>Node26&#45;&gt;Node16</title>
<path fill="none" stroke="midnightblue" d="M1282.78,-184.936C1272.48,-182.634 1261.08,-180.397 1250.5,-179 907.771,-133.746 818.768,-160.358 473.5,-143 440.869,-141.36 404.637,-139.41 374.369,-137.746"/>
<polygon fill="midnightblue" stroke="midnightblue" points="374.525,-134.249 364.347,-137.193 374.139,-141.238 374.525,-134.249"/>
</g>
<!-- Node27 -->
<g id="node27" class="node"><title>Node27</title>
<g id="a_node27"><a xlink:href="../../dc/d6c/Prefixes_8hh.html" target="_top" xlink:title="boca/physics/Prefixes.hh">
<polygon fill="white" stroke="black" points="1104,-123.5 1104,-142.5 1231,-142.5 1231,-123.5 1104,-123.5"/>
<text text-anchor="middle" x="1167.5" y="-130.5" font-family="Helvetica,sans-Serif" font-size="10.00">boca/physics/Prefixes.hh</text>
</a>
</g>
</g>
<!-- Node26&#45;&gt;Node27 -->
<g id="edge31" class="edge"><title>Node26&#45;&gt;Node27</title>
<path fill="none" stroke="midnightblue" d="M1295.15,-184.975C1269.81,-174.857 1227.36,-157.905 1198.43,-146.351"/>
<polygon fill="midnightblue" stroke="midnightblue" points="1199.39,-142.967 1188.81,-142.509 1196.8,-149.468 1199.39,-142.967"/>
</g>
<!-- Node27&#45;&gt;Node19 -->
<g id="edge39" class="edge"><title>Node27&#45;&gt;Node19</title>
<path fill="none" stroke="midnightblue" d="M1103.71,-126.87C1018.93,-119.713 864.576,-105.502 733.5,-87 724.867,-85.7814 715.746,-84.3197 706.861,-82.8001"/>
<polygon fill="midnightblue" stroke="midnightblue" points="707.422,-79.3451 696.968,-81.0696 706.216,-86.2404 707.422,-79.3451"/>
</g>
<!-- Node28 -->
<g id="node28" class="node"><title>Node28</title>
<polygon fill="white" stroke="#bfbfbf" points="1112.5,-62 1112.5,-81 1222.5,-81 1222.5,-62 1112.5,-62"/>
<text text-anchor="middle" x="1167.5" y="-69" font-family="Helvetica,sans-Serif" font-size="10.00">boost/units/scale.hpp</text>
</g>
<!-- Node27&#45;&gt;Node28 -->
<g id="edge32" class="edge"><title>Node27&#45;&gt;Node28</title>
<path fill="none" stroke="midnightblue" d="M1167.5,-123.475C1167.5,-115.08 1167.5,-101.981 1167.5,-91.1631"/>
<polygon fill="midnightblue" stroke="midnightblue" points="1171,-91.0091 1167.5,-81.0091 1164,-91.0091 1171,-91.0091"/>
</g>
<!-- Node29 -->
<g id="node29" class="node"><title>Node29</title>
<polygon fill="white" stroke="#bfbfbf" points="1241,-56.5 1241,-86.5 1366,-86.5 1366,-56.5 1241,-56.5"/>
<text text-anchor="start" x="1249" y="-74.5" font-family="Helvetica,sans-Serif" font-size="10.00">boost/units/make_scaled</text>
<text text-anchor="middle" x="1303.5" y="-63.5" font-family="Helvetica,sans-Serif" font-size="10.00">_unit.hpp</text>
</g>
<!-- Node27&#45;&gt;Node29 -->
<g id="edge33" class="edge"><title>Node27&#45;&gt;Node29</title>
<path fill="none" stroke="midnightblue" d="M1186.99,-123.475C1206.52,-114.927 1237.21,-101.501 1262.19,-90.5734"/>
<polygon fill="midnightblue" stroke="midnightblue" points="1263.69,-93.7378 1271.45,-86.523 1260.88,-87.3247 1263.69,-93.7378"/>
</g>
<!-- Node30 -->
<g id="node30" class="node"><title>Node30</title>
<polygon fill="white" stroke="#bfbfbf" points="743,-56.5 743,-86.5 854,-86.5 854,-56.5 743,-56.5"/>
<text text-anchor="start" x="751" y="-74.5" font-family="Helvetica,sans-Serif" font-size="10.00">boost/units/systems</text>
<text text-anchor="middle" x="798.5" y="-63.5" font-family="Helvetica,sans-Serif" font-size="10.00">/si/dimensionless.hpp</text>
</g>
<!-- Node27&#45;&gt;Node30 -->
<g id="edge34" class="edge"><title>Node27&#45;&gt;Node30</title>
<path fill="none" stroke="midnightblue" d="M1103.81,-123.94C1044.38,-116.108 953.019,-103.279 864.102,-87.0269"/>
<polygon fill="midnightblue" stroke="midnightblue" points="864.584,-83.5567 854.115,-85.1848 863.314,-90.4406 864.584,-83.5567"/>
</g>
<!-- Node31 -->
<g id="node31" class="node"><title>Node31</title>
<polygon fill="white" stroke="#bfbfbf" points="872.5,-62 872.5,-81 976.5,-81 976.5,-62 872.5,-62"/>
<text text-anchor="middle" x="924.5" y="-69" font-family="Helvetica,sans-Serif" font-size="10.00">boost/units/pow.hpp</text>
</g>
<!-- Node27&#45;&gt;Node31 -->
<g id="edge35" class="edge"><title>Node27&#45;&gt;Node31</title>
<path fill="none" stroke="midnightblue" d="M1132.68,-123.475C1089.65,-112.937 1016.33,-94.9863 969.185,-83.4415"/>
<polygon fill="midnightblue" stroke="midnightblue" points="969.797,-79.9879 959.251,-81.0091 968.132,-86.787 969.797,-79.9879"/>
</g>
<!-- Node32 -->
<g id="node32" class="node"><title>Node32</title>
<g id="a_node32"><a xlink:href="../../d6/d2c/Si_8hh.html" target="_top" xlink:title="boca/physics/Si.hh">
<polygon fill="white" stroke="red" points="994.5,-62 994.5,-81 1094.5,-81 1094.5,-62 994.5,-62"/>
<text text-anchor="middle" x="1044.5" y="-69" font-family="Helvetica,sans-Serif" font-size="10.00">boca/physics/Si.hh</text>
</a>
</g>
</g>
<!-- Node27&#45;&gt;Node32 -->
<g id="edge36" class="edge"><title>Node27&#45;&gt;Node32</title>
<path fill="none" stroke="midnightblue" d="M1149.88,-123.475C1129.33,-113.534 1095.14,-96.9947 1071.29,-85.461"/>
<polygon fill="midnightblue" stroke="midnightblue" points="1072.62,-82.2131 1062.09,-81.0091 1069.57,-88.5145 1072.62,-82.2131"/>
</g>
<!-- Node33 -->
<g id="node33" class="node"><title>Node33</title>
<g id="a_node33"><a xlink:href="../../d5/d2d/Barn_8hh.html" target="_top" xlink:title="boca/physics/Barn.hh">
<polygon fill="white" stroke="red" points="1384,-62 1384,-81 1495,-81 1495,-62 1384,-62"/>
<text text-anchor="middle" x="1439.5" y="-69" font-family="Helvetica,sans-Serif" font-size="10.00">boca/physics/Barn.hh</text>
</a>
</g>
</g>
<!-- Node27&#45;&gt;Node33 -->
<g id="edge37" class="edge"><title>Node27&#45;&gt;Node33</title>
<path fill="none" stroke="midnightblue" d="M1207.4,-123.488C1249.29,-114.524 1317.06,-99.941 1375.5,-87 1380.85,-85.8146 1386.46,-84.5624 1392.02,-83.3105"/>
<polygon fill="midnightblue" stroke="midnightblue" points="1392.96,-86.6863 1401.95,-81.0718 1391.42,-79.8578 1392.96,-86.6863"/>
</g>
<!-- Node33&#45;&gt;Node18 -->
<g id="edge38" class="edge"><title>Node33&#45;&gt;Node18</title>
<path fill="none" stroke="midnightblue" d="M1445.52,-61.9751C1451.76,-53.1384 1461.67,-39.0886 1469.52,-27.975"/>
<polygon fill="midnightblue" stroke="midnightblue" points="1472.59,-29.6972 1475.49,-19.5091 1466.87,-25.6604 1472.59,-29.6972"/>
</g>
<!-- Node34&#45;&gt;Node17 -->
<g id="edge41" class="edge"><title>Node34&#45;&gt;Node17</title>
<path fill="none" stroke="midnightblue" d="M852.386,-246.475C803.631,-235.849 720.289,-217.685 667.376,-206.152"/>
<polygon fill="midnightblue" stroke="midnightblue" points="668.058,-202.719 657.542,-204.009 666.567,-209.558 668.058,-202.719"/>
</g>
<!-- Node37 -->
<g id="node37" class="node"><title>Node37</title>
<g id="a_node37"><a xlink:href="../../d0/d5f/Flag_8hh.html" target="_top" xlink:title="boca/generic/Flag.hh">
<polygon fill="white" stroke="red" points="442,-246.5 442,-265.5 549,-265.5 549,-246.5 442,-246.5"/>
<text text-anchor="middle" x="495.5" y="-253.5" font-family="Helvetica,sans-Serif" font-size="10.00">boca/generic/Flag.hh</text>
</a>
</g>
</g>
<!-- Node36&#45;&gt;Node37 -->
<g id="edge44" class="edge"><title>Node36&#45;&gt;Node37</title>
<path fill="none" stroke="midnightblue" d="M603.218,-302.444C582.153,-293.557 548.983,-279.563 525.014,-269.451"/>
<polygon fill="midnightblue" stroke="midnightblue" points="526.261,-266.179 515.687,-265.516 523.54,-272.628 526.261,-266.179"/>
</g>
<!-- Node38 -->
<g id="node38" class="node"><title>Node38</title>
<g id="a_node38"><a xlink:href="../../dd/df7/Jet_8hh.html" target="_top" xlink:title="boca/multiplets/Jet.hh">
<polygon fill="white" stroke="red" points="567,-246.5 567,-265.5 680,-265.5 680,-246.5 567,-246.5"/>
<text text-anchor="middle" x="623.5" y="-253.5" font-family="Helvetica,sans-Serif" font-size="10.00">boca/multiplets/Jet.hh</text>
</a>
</g>
</g>
<!-- Node36&#45;&gt;Node38 -->
<g id="edge45" class="edge"><title>Node36&#45;&gt;Node38</title>
<path fill="none" stroke="midnightblue" d="M623.5,-302.083C623.5,-295.006 623.5,-284.861 623.5,-275.986"/>
<polygon fill="midnightblue" stroke="midnightblue" points="627,-275.751 623.5,-265.751 620,-275.751 627,-275.751"/>
</g>
<!-- Node39 -->
<g id="node39" class="node"><title>Node39</title>
<g id="a_node39"><a xlink:href="../../d1/d9b/multiplets_2Particle_8hh.html" target="_top" xlink:title="boca/multiplets/Particle.hh">
<polygon fill="white" stroke="red" points="698.5,-246.5 698.5,-265.5 830.5,-265.5 830.5,-246.5 698.5,-246.5"/>
<text text-anchor="middle" x="764.5" y="-253.5" font-family="Helvetica,sans-Serif" font-size="10.00">boca/multiplets/Particle.hh</text>
</a>
</g>
</g>
<!-- Node36&#45;&gt;Node39 -->
<g id="edge46" class="edge"><title>Node36&#45;&gt;Node39</title>
<path fill="none" stroke="midnightblue" d="M645.842,-302.444C669.253,-293.478 706.236,-279.314 732.69,-269.183"/>
<polygon fill="midnightblue" stroke="midnightblue" points="734.176,-272.361 742.263,-265.516 731.672,-265.824 734.176,-272.361"/>
</g>
<!-- Node40&#45;&gt;Node27 -->
<g id="edge48" class="edge"><title>Node40&#45;&gt;Node27</title>
<path fill="none" stroke="midnightblue" d="M1669.12,-305.015C1722.12,-297.96 1800.08,-284.772 1823.5,-266 1854.99,-240.763 1877.08,-208.461 1849.5,-179 1808.64,-135.357 1409.46,-132.54 1241.44,-133.317"/>
<polygon fill="midnightblue" stroke="midnightblue" points="1241.18,-129.819 1231.19,-133.371 1241.21,-136.818 1241.18,-129.819"/>
</g>
<!-- Node41 -->
<g id="node41" class="node"><title>Node41</title>
<g id="a_node41"><a xlink:href="../../d0/ddf/branch_2Base_8hh.html" target="_top" xlink:title="boca/branch/Base.hh">
<polygon fill="white" stroke="black" points="1705,-246.5 1705,-265.5 1814,-265.5 1814,-246.5 1705,-246.5"/>
<text text-anchor="middle" x="1759.5" y="-253.5" font-family="Helvetica,sans-Serif" font-size="10.00">boca/branch/Base.hh</text>
</a>
</g>
</g>
<!-- Node40&#45;&gt;Node41 -->
<g id="edge49" class="edge"><title>Node40&#45;&gt;Node41</title>
<path fill="none" stroke="midnightblue" d="M1640,-302.444C1663.58,-293.478 1700.82,-279.314 1727.46,-269.183"/>
<polygon fill="midnightblue" stroke="midnightblue" points="1729,-272.342 1737.1,-265.516 1726.51,-265.8 1729,-272.342"/>
</g>
<!-- Node43 -->
<g id="node43" class="node"><title>Node43</title>
<g id="a_node43"><a xlink:href="../../d1/d9b/Names_8hh.html" target="_top" xlink:title="boca/Names.hh">
<polygon fill="white" stroke="black" points="1435.5,-246.5 1435.5,-265.5 1521.5,-265.5 1521.5,-246.5 1435.5,-246.5"/>
<text text-anchor="middle" x="1478.5" y="-253.5" font-family="Helvetica,sans-Serif" font-size="10.00">boca/Names.hh</text>
</a>
</g>
</g>
<!-- Node40&#45;&gt;Node43 -->
<g id="edge51" class="edge"><title>Node40&#45;&gt;Node43</title>
<path fill="none" stroke="midnightblue" d="M1595.48,-302.444C1572.4,-293.478 1535.94,-279.314 1509.86,-269.183"/>
<polygon fill="midnightblue" stroke="midnightblue" points="1511.01,-265.875 1500.42,-265.516 1508.48,-272.4 1511.01,-265.875"/>
</g>
<!-- Node42 -->
<g id="node42" class="node"><title>Node42</title>
<polygon fill="white" stroke="#bfbfbf" points="1781,-185 1781,-204 1840,-204 1840,-185 1781,-185"/>
<text text-anchor="middle" x="1810.5" y="-192" font-family="Helvetica,sans-Serif" font-size="10.00">TObject.h</text>
</g>
<!-- Node41&#45;&gt;Node42 -->
<g id="edge50" class="edge"><title>Node41&#45;&gt;Node42</title>
<path fill="none" stroke="midnightblue" d="M1766.81,-246.475C1774.53,-237.462 1786.91,-223.025 1796.52,-211.812"/>
<polygon fill="midnightblue" stroke="midnightblue" points="1799.36,-213.879 1803.21,-204.009 1794.04,-209.324 1799.36,-213.879"/>
</g>
<!-- Node44 -->
<g id="node44" class="node"><title>Node44</title>
<g id="a_node44"><a xlink:href="../../dd/deb/String_8hh.html" target="_top" xlink:title="boca/latex/String.hh">
<polygon fill="white" stroke="red" points="1429.5,-185 1429.5,-204 1533.5,-204 1533.5,-185 1429.5,-185"/>
<text text-anchor="middle" x="1481.5" y="-192" font-family="Helvetica,sans-Serif" font-size="10.00">boca/latex/String.hh</text>
</a>
</g>
</g>
<!-- Node43&#45;&gt;Node44 -->
<g id="edge52" class="edge"><title>Node43&#45;&gt;Node44</title>
<path fill="none" stroke="midnightblue" d="M1478.93,-246.475C1479.35,-238.08 1480.01,-224.981 1480.56,-214.163"/>
<polygon fill="midnightblue" stroke="midnightblue" points="1484.06,-214.173 1481.07,-204.009 1477.07,-213.82 1484.06,-214.173"/>
</g>
<!-- Node44&#45;&gt;Node9 -->
<g id="edge53" class="edge"><title>Node44&#45;&gt;Node9</title>
<path fill="none" stroke="midnightblue" d="M1447.78,-184.955C1437.48,-182.654 1426.08,-180.413 1415.5,-179 1072.24,-133.152 650.714,-132.783 534.449,-133.661"/>
<polygon fill="midnightblue" stroke="midnightblue" points="534.133,-130.164 524.163,-133.749 534.192,-137.164 534.133,-130.164"/>
</g>
<!-- Node44&#45;&gt;Node18 -->
<g id="edge54" class="edge"><title>Node44&#45;&gt;Node18</title>
<path fill="none" stroke="midnightblue" d="M1485.39,-184.727C1494.59,-162.815 1516.06,-104.003 1504.5,-56 1502.19,-46.4183 1497.48,-36.5813 1492.92,-28.5579"/>
<polygon fill="midnightblue" stroke="midnightblue" points="1495.79,-26.537 1487.6,-19.8095 1489.81,-30.1727 1495.79,-26.537"/>
</g>
<!-- Node45&#45;&gt;Node26 -->
<g id="edge57" class="edge"><title>Node45&#45;&gt;Node26</title>
<path fill="none" stroke="midnightblue" d="M1257.83,-306.458C1301.7,-300.007 1372.72,-286.633 1388.5,-266 1405.52,-243.751 1373.08,-221.754 1346.4,-208.397"/>
<polygon fill="midnightblue" stroke="midnightblue" points="1347.82,-205.198 1337.29,-204.047 1344.8,-211.515 1347.82,-205.198"/>
</g>
<!-- Node45&#45;&gt;Node43 -->
<g id="edge56" class="edge"><title>Node45&#45;&gt;Node43</title>
<path fill="none" stroke="midnightblue" d="M1257.56,-303.605C1301.63,-294.309 1377.59,-278.285 1427.94,-267.665"/>
<polygon fill="midnightblue" stroke="midnightblue" points="1428.9,-271.04 1437.96,-265.551 1427.46,-264.19 1428.9,-271.04"/>
</g>
<!-- Node46 -->
<g id="node46" class="node"><title>Node46</title>
<g id="a_node46"><a xlink:href="../../d6/d74/TreeReader_8hh.html" target="_top" xlink:title="boca/io/TreeReader.hh">
<polygon fill="white" stroke="red" points="1125.5,-246.5 1125.5,-265.5 1241.5,-265.5 1241.5,-246.5 1125.5,-246.5"/>
<text text-anchor="middle" x="1183.5" y="-253.5" font-family="Helvetica,sans-Serif" font-size="10.00">boca/io/TreeReader.hh</text>
</a>
</g>
</g>
<!-- Node45&#45;&gt;Node46 -->
<g id="edge58" class="edge"><title>Node45&#45;&gt;Node46</title>
<path fill="none" stroke="midnightblue" d="M1216.06,-302.083C1210.55,-294.455 1202.47,-283.264 1195.74,-273.941"/>
<polygon fill="midnightblue" stroke="midnightblue" points="1198.51,-271.809 1189.82,-265.751 1192.84,-275.907 1198.51,-271.809"/>
</g>
<!-- Node46&#45;&gt;Node25 -->
<g id="edge60" class="edge"><title>Node46&#45;&gt;Node25</title>
<path fill="none" stroke="midnightblue" d="M1187.94,-246.475C1192.45,-237.815 1199.57,-224.149 1205.31,-213.145"/>
<polygon fill="midnightblue" stroke="midnightblue" points="1208.55,-214.495 1210.07,-204.009 1202.34,-211.26 1208.55,-214.495"/>
</g>
<!-- Node47 -->
<g id="node47" class="node"><title>Node47</title>
<polygon fill="white" stroke="#bfbfbf" points="1047.5,-185 1047.5,-204 1099.5,-204 1099.5,-185 1047.5,-185"/>
<text text-anchor="middle" x="1073.5" y="-192" font-family="Helvetica,sans-Serif" font-size="10.00">memory</text>
</g>
<!-- Node46&#45;&gt;Node47 -->
<g id="edge59" class="edge"><title>Node46&#45;&gt;Node47</title>
<path fill="none" stroke="midnightblue" d="M1167.74,-246.475C1149.52,-236.622 1119.33,-220.288 1098.03,-208.77"/>
<polygon fill="midnightblue" stroke="midnightblue" points="1099.69,-205.688 1089.23,-204.009 1096.36,-211.845 1099.69,-205.688"/>
</g>
<!-- Node48&#45;&gt;Node9 -->
<g id="edge62" class="edge"><title>Node48&#45;&gt;Node9</title>
<path fill="none" stroke="midnightblue" d="M1539.72,-246.785C1503.89,-240.191 1457.95,-228.832 1420.5,-210 1401.03,-200.208 1402.84,-186.835 1382.5,-179 1302.08,-148.018 680.744,-136.694 534.332,-134.442"/>
<polygon fill="midnightblue" stroke="midnightblue" points="534.299,-130.941 524.248,-134.29 534.194,-137.941 534.299,-130.941"/>
</g>
<!-- Node48&#45;&gt;Node13 -->
<g id="edge64" class="edge"><title>Node48&#45;&gt;Node13</title>
<path fill="none" stroke="midnightblue" d="M1539.91,-247.133C1536.73,-246.741 1533.58,-246.361 1530.5,-246 1374.31,-227.681 1330.97,-248.501 1178.5,-210 1175.99,-209.366 1173.42,-208.584 1170.88,-207.714"/>
<polygon fill="midnightblue" stroke="midnightblue" points="1171.91,-204.364 1161.32,-204.056 1169.41,-210.901 1171.91,-204.364"/>
</g>
<!-- Node48&#45;&gt;Node18 -->
<g id="edge63" class="edge"><title>Node48&#45;&gt;Node18</title>
<path fill="none" stroke="midnightblue" d="M1595.04,-246.377C1591.41,-237.321 1585.54,-222.665 1580.5,-210 1553.27,-141.601 1557.3,-119.173 1519.5,-56 1513.28,-45.6021 1504.67,-35.1883 1497.23,-27.0013"/>
<polygon fill="midnightblue" stroke="midnightblue" points="1499.7,-24.5211 1490.3,-19.6396 1494.6,-29.3197 1499.7,-24.5211"/>
</g>
<!-- Node48&#45;&gt;Node25 -->
<g id="edge66" class="edge"><title>Node48&#45;&gt;Node25</title>
<path fill="none" stroke="midnightblue" d="M1539.9,-247.23C1536.72,-246.813 1533.57,-246.401 1530.5,-246 1406.09,-229.769 1371.9,-241.696 1250.5,-210 1247.99,-209.345 1245.42,-208.559 1242.87,-207.696"/>
<polygon fill="midnightblue" stroke="midnightblue" points="1243.84,-204.324 1233.25,-204.103 1241.39,-210.881 1243.84,-204.324"/>
</g>
<!-- Node49 -->
<g id="node49" class="node"><title>Node49</title>
<polygon fill="white" stroke="#bfbfbf" points="1589.5,-185 1589.5,-204 1639.5,-204 1639.5,-185 1589.5,-185"/>
<text text-anchor="middle" x="1614.5" y="-192" font-family="Helvetica,sans-Serif" font-size="10.00">iomanip</text>
</g>
<!-- Node48&#45;&gt;Node49 -->
<g id="edge65" class="edge"><title>Node48&#45;&gt;Node49</title>
<path fill="none" stroke="midnightblue" d="M1600.79,-246.475C1603.07,-237.992 1606.65,-224.704 1609.57,-213.822"/>
<polygon fill="midnightblue" stroke="midnightblue" points="1612.99,-214.575 1612.21,-204.009 1606.24,-212.757 1612.99,-214.575"/>
</g>
<!-- Node50 -->
<g id="node50" class="node"><title>Node50</title>
<polygon fill="white" stroke="#bfbfbf" points="1658,-179.5 1658,-209.5 1763,-209.5 1763,-179.5 1658,-179.5"/>
<text text-anchor="start" x="1666" y="-197.5" font-family="Helvetica,sans-Serif" font-size="10.00">boost/units/systems</text>
<text text-anchor="middle" x="1710.5" y="-186.5" font-family="Helvetica,sans-Serif" font-size="10.00">/si/io.hpp</text>
</g>
<!-- Node48&#45;&gt;Node50 -->
<g id="edge67" class="edge"><title>Node48&#45;&gt;Node50</title>
<path fill="none" stroke="midnightblue" d="M1614.55,-246.475C1630.28,-238.115 1654.8,-225.09 1675.11,-214.299"/>
<polygon fill="midnightblue" stroke="midnightblue" points="1676.91,-217.305 1684.1,-209.523 1673.63,-211.124 1676.91,-217.305"/>
</g>
</g>
</svg>
