<?xml version="1.0" encoding="UTF-8" standalone="no"?>
<!DOCTYPE svg PUBLIC "-//W3C//DTD SVG 1.1//EN"
 "http://www.w3.org/Graphics/SVG/1.1/DTD/svg11.dtd">
<!-- Generated by graphviz version 2.38.0 (20140413.2041)
 -->
<!-- Title: boca::Reader&lt; Tagger_ &gt; Pages: 1 -->
<svg width="499pt" height="1801pt"
 viewBox="0.00 0.00 499.00 1801.33" xmlns="http://www.w3.org/2000/svg" xmlns:xlink="http://www.w3.org/1999/xlink">
<g id="graph0" class="graph" transform="scale(1 1) rotate(0) translate(4 1797.33)">
<title>boca::Reader&lt; Tagger_ &gt;</title>
<polygon fill="white" stroke="none" points="-4,4 -4,-1797.33 495,-1797.33 495,4 -4,4"/>
<!-- Node1 -->
<g id="node1" class="node"><title>Node1</title>
<polygon fill="#bfbfbf" stroke="black" points="0,-871.832 0,-890.832 128,-890.832 128,-871.832 0,-871.832"/>
<text text-anchor="middle" x="64" y="-878.832" font-family="Helvetica,sans-Serif" font-size="10.00">boca::Reader&lt; Tagger_ &gt;</text>
</g>
<!-- Node2 -->
<g id="node2" class="node"><title>Node2</title>
<g id="a_node2"><a xlink:href="../../de/d69/classboca_1_1Reader.html" target="_top" xlink:title="boca::Reader\&lt; heavyhiggs\l::tagger::JetPair \&gt;">
<polygon fill="white" stroke="black" points="330,-1737.33 330,-1767.33 464,-1767.33 464,-1737.33 330,-1737.33"/>
<text text-anchor="start" x="338" y="-1755.33" font-family="Helvetica,sans-Serif" font-size="10.00">boca::Reader&lt; heavyhiggs</text>
<text text-anchor="middle" x="397" y="-1744.33" font-family="Helvetica,sans-Serif" font-size="10.00">::tagger::JetPair &gt;</text>
</a>
</g>
</g>
<!-- Node1&#45;&gt;Node2 -->
<g id="edge1" class="edge"><title>Node1&#45;&gt;Node2</title>
<path fill="none" stroke="orange" stroke-dasharray="5,2" d="M65.4031,-901.08C68.0812,-1022.98 85.1122,-1669.89 146,-1730.33 193.233,-1777.22 273.107,-1775.99 329.853,-1767.36"/>
<polygon fill="orange" stroke="orange" points="68.8998,-900.882 65.1877,-890.959 61.9013,-901.031 68.8998,-900.882"/>
<text text-anchor="start" x="168" y="-1785.33" font-family="Helvetica,sans-Serif" font-size="10.00"> &lt; heavyhiggs::tagger</text>
<text text-anchor="middle" x="215.5" y="-1774.33" font-family="Helvetica,sans-Serif" font-size="10.00">::JetPair &gt;</text>
</g>
<!-- Node3 -->
<g id="node3" class="node"><title>Node3</title>
<g id="a_node3"><a xlink:href="../../de/d69/classboca_1_1Reader.html" target="_top" xlink:title="boca::Reader\&lt; toppartner\l::tagger::TopPartnerLeptonicNeutral \&gt;">
<polygon fill="white" stroke="black" points="306.5,-1688.33 306.5,-1718.33 487.5,-1718.33 487.5,-1688.33 306.5,-1688.33"/>
<text text-anchor="start" x="314.5" y="-1706.33" font-family="Helvetica,sans-Serif" font-size="10.00">boca::Reader&lt; toppartner</text>
<text text-anchor="middle" x="397" y="-1695.33" font-family="Helvetica,sans-Serif" font-size="10.00">::tagger::TopPartnerLeptonicNeutral &gt;</text>
</a>
</g>
</g>
<!-- Node1&#45;&gt;Node3 -->
<g id="edge2" class="edge"><title>Node1&#45;&gt;Node3</title>
<path fill="none" stroke="orange" stroke-dasharray="5,2" d="M65.5225,-901.025C68.8314,-1018.6 88.6072,-1624.69 146,-1681.33 168.25,-1703.29 244.109,-1707.55 306.485,-1707.04"/>
<polygon fill="orange" stroke="orange" points="69.0189,-900.843 65.246,-890.943 62.0216,-901.035 69.0189,-900.843"/>
<text text-anchor="start" x="149.5" y="-1720.33" font-family="Helvetica,sans-Serif" font-size="10.00"> &lt; toppartner::tagger</text>
<text text-anchor="middle" x="215.5" y="-1709.33" font-family="Helvetica,sans-Serif" font-size="10.00">::TopPartnerLeptonicNeutral &gt;</text>
</g>
<!-- Node4 -->
<g id="node4" class="node"><title>Node4</title>
<g id="a_node4"><a xlink:href="../../de/d69/classboca_1_1Reader.html" target="_top" xlink:title="boca::Reader\&lt; toppartner\l::tagger::VetoTopPartnerLeptonic \&gt;">
<polygon fill="white" stroke="black" points="312,-1639.33 312,-1669.33 482,-1669.33 482,-1639.33 312,-1639.33"/>
<text text-anchor="start" x="320" y="-1657.33" font-family="Helvetica,sans-Serif" font-size="10.00">boca::Reader&lt; toppartner</text>
<text text-anchor="middle" x="397" y="-1646.33" font-family="Helvetica,sans-Serif" font-size="10.00">::tagger::VetoTopPartnerLeptonic &gt;</text>
</a>
</g>
</g>
<!-- Node1&#45;&gt;Node4 -->
<g id="edge3" class="edge"><title>Node1&#45;&gt;Node4</title>
<path fill="none" stroke="orange" stroke-dasharray="5,2" d="M65.692,-901.071C69.8357,-1013.94 92.9943,-1574.36 146,-1627.33 168.811,-1650.13 248.566,-1655.61 311.937,-1656.16"/>
<polygon fill="orange" stroke="orange" points="69.1893,-900.933 65.3319,-891.065 62.1939,-901.185 69.1893,-900.933"/>
<text text-anchor="start" x="155" y="-1669.33" font-family="Helvetica,sans-Serif" font-size="10.00"> &lt; toppartner::tagger</text>
<text text-anchor="middle" x="215.5" y="-1658.33" font-family="Helvetica,sans-Serif" font-size="10.00">::VetoTopPartnerLeptonic &gt;</text>
</g>
<!-- Node5 -->
<g id="node5" class="node"><title>Node5</title>
<g id="a_node5"><a xlink:href="../../de/d69/classboca_1_1Reader.html" target="_top" xlink:title="boca::Reader\&lt; tagger\l::boca::standardmodel\l::tagger::WHadronic \&gt;">
<polygon fill="white" stroke="black" points="340.5,-1579.83 340.5,-1620.83 453.5,-1620.83 453.5,-1579.83 340.5,-1579.83"/>
<text text-anchor="start" x="348.5" y="-1608.83" font-family="Helvetica,sans-Serif" font-size="10.00">boca::Reader&lt; tagger</text>
<text text-anchor="start" x="348.5" y="-1597.83" font-family="Helvetica,sans-Serif" font-size="10.00">::boca::standardmodel</text>
<text text-anchor="middle" x="397" y="-1586.83" font-family="Helvetica,sans-Serif" font-size="10.00">::tagger::WHadronic &gt;</text>
</a>
</g>
</g>
<!-- Node1&#45;&gt;Node5 -->
<g id="edge4" class="edge"><title>Node1&#45;&gt;Node5</title>
<path fill="none" stroke="orange" stroke-dasharray="5,2" d="M65.8512,-901.025C70.7076,-1009.05 96.4574,-1526.6 146,-1575.33 172.588,-1601.48 275.202,-1603.85 340.412,-1602.54"/>
<polygon fill="orange" stroke="orange" points="69.3415,-900.726 65.4034,-890.89 62.3483,-901.035 69.3415,-900.726"/>
<text text-anchor="start" x="147.5" y="-1615.33" font-family="Helvetica,sans-Serif" font-size="10.00"> &lt; tagger::boca::standardmodel</text>
<text text-anchor="middle" x="215.5" y="-1604.33" font-family="Helvetica,sans-Serif" font-size="10.00">::tagger::WHadronic &gt;</text>
</g>
<!-- Node6 -->
<g id="node6" class="node"><title>Node6</title>
<g id="a_node6"><a xlink:href="../../de/d69/classboca_1_1Reader.html" target="_top" xlink:title="boca::Reader\&lt; standardmodel\l::tagger::Tau \&gt;">
<polygon fill="white" stroke="black" points="323,-1531.33 323,-1561.33 471,-1561.33 471,-1531.33 323,-1531.33"/>
<text text-anchor="start" x="331" y="-1549.33" font-family="Helvetica,sans-Serif" font-size="10.00">boca::Reader&lt; standardmodel</text>
<text text-anchor="middle" x="397" y="-1538.33" font-family="Helvetica,sans-Serif" font-size="10.00">::tagger::Tau &gt;</text>
</a>
</g>
</g>
<!-- Node1&#45;&gt;Node6 -->
<g id="edge5" class="edge"><title>Node1&#45;&gt;Node6</title>
<path fill="none" stroke="orange" stroke-dasharray="5,2" d="M66.0406,-901.191C71.6565,-1004.75 99.8171,-1479.85 146,-1524.33 170.517,-1547.95 258.238,-1550.93 322.877,-1549.67"/>
<polygon fill="orange" stroke="orange" points="69.5329,-900.952 65.5043,-891.153 62.5429,-901.325 69.5329,-900.952"/>
<text text-anchor="start" x="161" y="-1563.33" font-family="Helvetica,sans-Serif" font-size="10.00"> &lt; standardmodel::tagger</text>
<text text-anchor="middle" x="215.5" y="-1552.33" font-family="Helvetica,sans-Serif" font-size="10.00">::Tau &gt;</text>
</g>
<!-- Node7 -->
<g id="node7" class="node"><title>Node7</title>
<g id="a_node7"><a xlink:href="../../de/d69/classboca_1_1Reader.html" target="_top" xlink:title="boca::Reader\&lt; standardmodel\l::tagger::Bottom \&gt;">
<polygon fill="white" stroke="black" points="323,-1482.33 323,-1512.33 471,-1512.33 471,-1482.33 323,-1482.33"/>
<text text-anchor="start" x="331" y="-1500.33" font-family="Helvetica,sans-Serif" font-size="10.00">boca::Reader&lt; standardmodel</text>
<text text-anchor="middle" x="397" y="-1489.33" font-family="Helvetica,sans-Serif" font-size="10.00">::tagger::Bottom &gt;</text>
</a>
</g>
</g>
<!-- Node1&#45;&gt;Node7 -->
<g id="edge6" class="edge"><title>Node1&#45;&gt;Node7</title>
<path fill="none" stroke="orange" stroke-dasharray="5,2" d="M64.6303,-901.1C63.3276,-994.254 62.8603,-1388.27 146,-1469.33 170.431,-1493.15 258.171,-1498.33 322.838,-1498.74"/>
<polygon fill="orange" stroke="orange" points="68.1339,-900.902 64.7956,-890.847 61.1348,-900.789 68.1339,-900.902"/>
<text text-anchor="start" x="161" y="-1512.33" font-family="Helvetica,sans-Serif" font-size="10.00"> &lt; standardmodel::tagger</text>
<text text-anchor="middle" x="215.5" y="-1501.33" font-family="Helvetica,sans-Serif" font-size="10.00">::Bottom &gt;</text>
</g>
<!-- Node8 -->
<g id="node8" class="node"><title>Node8</title>
<g id="a_node8"><a xlink:href="../../de/d69/classboca_1_1Reader.html" target="_top" xlink:title="boca::Reader\&lt; tagger\l::boca::standardmodel\l::tagger::Bottom \&gt;">
<polygon fill="white" stroke="black" points="340.5,-1422.83 340.5,-1463.83 453.5,-1463.83 453.5,-1422.83 340.5,-1422.83"/>
<text text-anchor="start" x="348.5" y="-1451.83" font-family="Helvetica,sans-Serif" font-size="10.00">boca::Reader&lt; tagger</text>
<text text-anchor="start" x="348.5" y="-1440.83" font-family="Helvetica,sans-Serif" font-size="10.00">::boca::standardmodel</text>
<text text-anchor="middle" x="397" y="-1429.83" font-family="Helvetica,sans-Serif" font-size="10.00">::tagger::Bottom &gt;</text>
</a>
</g>
</g>
<!-- Node1&#45;&gt;Node8 -->
<g id="edge7" class="edge"><title>Node1&#45;&gt;Node8</title>
<path fill="none" stroke="orange" stroke-dasharray="5,2" d="M64.9464,-901.449C65.155,-989.734 70.7565,-1341.7 146,-1414.33 172.839,-1440.24 275.095,-1444.49 340.223,-1444.45"/>
<polygon fill="orange" stroke="orange" points="68.4465,-901.201 64.9451,-891.202 61.4465,-901.202 68.4465,-901.201"/>
<text text-anchor="start" x="147.5" y="-1457.33" font-family="Helvetica,sans-Serif" font-size="10.00"> &lt; tagger::boca::standardmodel</text>
<text text-anchor="middle" x="215.5" y="-1446.33" font-family="Helvetica,sans-Serif" font-size="10.00">::tagger::Bottom &gt;</text>
</g>
<!-- Node9 -->
<g id="node9" class="node"><title>Node9</title>
<g id="a_node9"><a xlink:href="../../de/d69/classboca_1_1Reader.html" target="_top" xlink:title="boca::Reader\&lt; higgscpv\l::tagger::Signature \&gt;">
<polygon fill="white" stroke="black" points="335.5,-1374.33 335.5,-1404.33 458.5,-1404.33 458.5,-1374.33 335.5,-1374.33"/>
<text text-anchor="start" x="343.5" y="-1392.33" font-family="Helvetica,sans-Serif" font-size="10.00">boca::Reader&lt; higgscpv</text>
<text text-anchor="middle" x="397" y="-1381.33" font-family="Helvetica,sans-Serif" font-size="10.00">::tagger::Signature &gt;</text>
</a>
</g>
</g>
<!-- Node1&#45;&gt;Node9 -->
<g id="edge8" class="edge"><title>Node1&#45;&gt;Node9</title>
<path fill="none" stroke="orange" stroke-dasharray="5,2" d="M65.3507,-901.371C67.2275,-983.623 78.7306,-1294.01 146,-1358.33 172.316,-1383.49 270.153,-1389.04 335.345,-1389.84"/>
<polygon fill="orange" stroke="orange" points="68.8414,-900.873 65.1382,-890.947 61.8428,-901.016 68.8414,-900.873"/>
<text text-anchor="start" x="173" y="-1402.33" font-family="Helvetica,sans-Serif" font-size="10.00"> &lt; higgscpv::tagger</text>
<text text-anchor="middle" x="215.5" y="-1391.33" font-family="Helvetica,sans-Serif" font-size="10.00">::Signature &gt;</text>
</g>
<!-- Node10 -->
<g id="node10" class="node"><title>Node10</title>
<g id="a_node10"><a xlink:href="../../de/d69/classboca_1_1Reader.html" target="_top" xlink:title="boca::Reader\&lt; TopPartner\lPair \&gt;">
<polygon fill="white" stroke="black" points="331,-1325.33 331,-1355.33 463,-1355.33 463,-1325.33 331,-1325.33"/>
<text text-anchor="start" x="339" y="-1343.33" font-family="Helvetica,sans-Serif" font-size="10.00">boca::Reader&lt; TopPartner</text>
<text text-anchor="middle" x="397" y="-1332.33" font-family="Helvetica,sans-Serif" font-size="10.00">Pair &gt;</text>
</a>
</g>
</g>
<!-- Node1&#45;&gt;Node10 -->
<g id="edge9" class="edge"><title>Node1&#45;&gt;Node10</title>
<path fill="none" stroke="orange" stroke-dasharray="5,2" d="M65.6208,-901.232C68.4871,-979.039 83.131,-1261.2 146,-1318.33 172.199,-1342.14 265.869,-1344.59 330.798,-1343.2"/>
<polygon fill="orange" stroke="orange" points="69.108,-900.797 65.2675,-890.923 62.1121,-901.037 69.108,-900.797"/>
<text text-anchor="middle" x="215.5" y="-1346.33" font-family="Helvetica,sans-Serif" font-size="10.00"> &lt; TopPartnerPair &gt;</text>
</g>
<!-- Node11 -->
<g id="node11" class="node"><title>Node11</title>
<g id="a_node11"><a xlink:href="../../de/d69/classboca_1_1Reader.html" target="_top" xlink:title="boca::Reader\&lt; toppartner\l::tagger::NewPartnerPair \&gt;">
<polygon fill="white" stroke="black" points="330,-1276.33 330,-1306.33 464,-1306.33 464,-1276.33 330,-1276.33"/>
<text text-anchor="start" x="338" y="-1294.33" font-family="Helvetica,sans-Serif" font-size="10.00">boca::Reader&lt; toppartner</text>
<text text-anchor="middle" x="397" y="-1283.33" font-family="Helvetica,sans-Serif" font-size="10.00">::tagger::NewPartnerPair &gt;</text>
</a>
</g>
</g>
<!-- Node1&#45;&gt;Node11 -->
<g id="edge10" class="edge"><title>Node1&#45;&gt;Node11</title>
<path fill="none" stroke="orange" stroke-dasharray="5,2" d="M66.1258,-901.276C70.6382,-973.473 89.9596,-1219.54 146,-1269.33 172.302,-1292.7 264.914,-1295.34 329.704,-1294.1"/>
<polygon fill="orange" stroke="orange" points="69.5961,-900.673 65.5061,-890.899 62.6086,-901.09 69.5961,-900.673"/>
<text text-anchor="start" x="171" y="-1308.33" font-family="Helvetica,sans-Serif" font-size="10.00"> &lt; toppartner::tagger</text>
<text text-anchor="middle" x="215.5" y="-1297.33" font-family="Helvetica,sans-Serif" font-size="10.00">::NewPartnerPair &gt;</text>
</g>
<!-- Node12 -->
<g id="node12" class="node"><title>Node12</title>
<g id="a_node12"><a xlink:href="../../de/d69/classboca_1_1Reader.html" target="_top" xlink:title="boca::Reader\&lt; standardmodel\l::tagger::Boson \&gt;">
<polygon fill="white" stroke="black" points="323,-1227.33 323,-1257.33 471,-1257.33 471,-1227.33 323,-1227.33"/>
<text text-anchor="start" x="331" y="-1245.33" font-family="Helvetica,sans-Serif" font-size="10.00">boca::Reader&lt; standardmodel</text>
<text text-anchor="middle" x="397" y="-1234.33" font-family="Helvetica,sans-Serif" font-size="10.00">::tagger::Boson &gt;</text>
</a>
</g>
</g>
<!-- Node1&#45;&gt;Node12 -->
<g id="edge11" class="edge"><title>Node1&#45;&gt;Node12</title>
<path fill="none" stroke="orange" stroke-dasharray="5,2" d="M66.7705,-901.283C73.0749,-967.441 96.735,-1177.81 146,-1220.33 171.687,-1242.5 258.655,-1245.84 322.83,-1245.05"/>
<polygon fill="orange" stroke="orange" points="70.2251,-900.63 65.8208,-890.994 63.2547,-901.273 70.2251,-900.63"/>
<text text-anchor="start" x="161" y="-1259.33" font-family="Helvetica,sans-Serif" font-size="10.00"> &lt; standardmodel::tagger</text>
<text text-anchor="middle" x="215.5" y="-1248.33" font-family="Helvetica,sans-Serif" font-size="10.00">::Boson &gt;</text>
</g>
<!-- Node13 -->
<g id="node13" class="node"><title>Node13</title>
<g id="a_node13"><a xlink:href="../../de/d69/classboca_1_1Reader.html" target="_top" xlink:title="boca::Reader\&lt; toppartner\l::tagger::NewPartnerLeptonic \&gt;">
<polygon fill="white" stroke="black" points="320.5,-1178.33 320.5,-1208.33 473.5,-1208.33 473.5,-1178.33 320.5,-1178.33"/>
<text text-anchor="start" x="328.5" y="-1196.33" font-family="Helvetica,sans-Serif" font-size="10.00">boca::Reader&lt; toppartner</text>
<text text-anchor="middle" x="397" y="-1185.33" font-family="Helvetica,sans-Serif" font-size="10.00">::tagger::NewPartnerLeptonic &gt;</text>
</a>
</g>
</g>
<!-- Node1&#45;&gt;Node13 -->
<g id="edge12" class="edge"><title>Node1&#45;&gt;Node13</title>
<path fill="none" stroke="orange" stroke-dasharray="5,2" d="M67.5962,-901.079C75.8382,-960.537 103.405,-1135.95 146,-1171.33 171.725,-1192.7 256.483,-1196.35 320.231,-1195.85"/>
<polygon fill="orange" stroke="orange" points="71.0548,-900.537 66.2446,-891.097 64.118,-901.476 71.0548,-900.537"/>
<text text-anchor="start" x="163.5" y="-1210.33" font-family="Helvetica,sans-Serif" font-size="10.00"> &lt; toppartner::tagger</text>
<text text-anchor="middle" x="215.5" y="-1199.33" font-family="Helvetica,sans-Serif" font-size="10.00">::NewPartnerLeptonic &gt;</text>
</g>
<!-- Node14 -->
<g id="node14" class="node"><title>Node14</title>
<g id="a_node14"><a xlink:href="../../de/d69/classboca_1_1Reader.html" target="_top" xlink:title="boca::Reader\&lt; heavyhiggs\l::tagger::TripletJetPair \&gt;">
<polygon fill="white" stroke="black" points="330,-1129.33 330,-1159.33 464,-1159.33 464,-1129.33 330,-1129.33"/>
<text text-anchor="start" x="338" y="-1147.33" font-family="Helvetica,sans-Serif" font-size="10.00">boca::Reader&lt; heavyhiggs</text>
<text text-anchor="middle" x="397" y="-1136.33" font-family="Helvetica,sans-Serif" font-size="10.00">::tagger::TripletJetPair &gt;</text>
</a>
</g>
</g>
<!-- Node1&#45;&gt;Node14 -->
<g id="edge13" class="edge"><title>Node1&#45;&gt;Node14</title>
<path fill="none" stroke="orange" stroke-dasharray="5,2" d="M64.9298,-901.068C65.9418,-948.092 75.6847,-1066.95 146,-1122.33 173.596,-1144.07 265.616,-1147.15 329.952,-1146.45"/>
<polygon fill="orange" stroke="orange" points="68.4288,-900.941 64.8285,-890.977 61.4292,-901.011 68.4288,-900.941"/>
<text text-anchor="start" x="168" y="-1160.33" font-family="Helvetica,sans-Serif" font-size="10.00"> &lt; heavyhiggs::tagger</text>
<text text-anchor="middle" x="215.5" y="-1149.33" font-family="Helvetica,sans-Serif" font-size="10.00">::TripletJetPair &gt;</text>
</g>
<!-- Node15 -->
<g id="node15" class="node"><title>Node15</title>
<g id="a_node15"><a xlink:href="../../de/d69/classboca_1_1Reader.html" target="_top" xlink:title="boca::Reader\&lt; heavyhiggs\l::tagger::SignatureCharged \&gt;">
<polygon fill="white" stroke="black" points="325.5,-1080.33 325.5,-1110.33 468.5,-1110.33 468.5,-1080.33 325.5,-1080.33"/>
<text text-anchor="start" x="333.5" y="-1098.33" font-family="Helvetica,sans-Serif" font-size="10.00">boca::Reader&lt; heavyhiggs</text>
<text text-anchor="middle" x="397" y="-1087.33" font-family="Helvetica,sans-Serif" font-size="10.00">::tagger::SignatureCharged &gt;</text>
</a>
</g>
</g>
<!-- Node1&#45;&gt;Node15 -->
<g id="edge14" class="edge"><title>Node1&#45;&gt;Node15</title>
<path fill="none" stroke="orange" stroke-dasharray="5,2" d="M66.8106,-901.084C71.6371,-941.116 88.6594,-1031.55 146,-1073.33 173.687,-1093.51 261.689,-1097.2 325.46,-1097.04"/>
<polygon fill="orange" stroke="orange" points="70.2761,-900.574 65.7299,-891.004 63.316,-901.321 70.2761,-900.574"/>
<text text-anchor="start" x="168" y="-1111.33" font-family="Helvetica,sans-Serif" font-size="10.00"> &lt; heavyhiggs::tagger</text>
<text text-anchor="middle" x="215.5" y="-1100.33" font-family="Helvetica,sans-Serif" font-size="10.00">::SignatureCharged &gt;</text>
</g>
<!-- Node16 -->
<g id="node16" class="node"><title>Node16</title>
<g id="a_node16"><a xlink:href="../../de/d69/classboca_1_1Reader.html" target="_top" xlink:title="boca::Reader\&lt; standardmodel\l::tagger::Higgs \&gt;">
<polygon fill="white" stroke="black" points="323,-1031.33 323,-1061.33 471,-1061.33 471,-1031.33 323,-1031.33"/>
<text text-anchor="start" x="331" y="-1049.33" font-family="Helvetica,sans-Serif" font-size="10.00">boca::Reader&lt; standardmodel</text>
<text text-anchor="middle" x="397" y="-1038.33" font-family="Helvetica,sans-Serif" font-size="10.00">::tagger::Higgs &gt;</text>
</a>
</g>
</g>
<!-- Node1&#45;&gt;Node16 -->
<g id="edge15" class="edge"><title>Node1&#45;&gt;Node16</title>
<path fill="none" stroke="orange" stroke-dasharray="5,2" d="M69.836,-901.089C78.8162,-933.101 101.351,-995.613 146,-1024.33 174.354,-1042.57 259.781,-1046.8 322.92,-1047.29"/>
<polygon fill="orange" stroke="orange" points="73.147,-899.918 67.2108,-891.143 66.3788,-901.705 73.147,-899.918"/>
<text text-anchor="start" x="161" y="-1061.33" font-family="Helvetica,sans-Serif" font-size="10.00"> &lt; standardmodel::tagger</text>
<text text-anchor="middle" x="215.5" y="-1050.33" font-family="Helvetica,sans-Serif" font-size="10.00">::Higgs &gt;</text>
</g>
<!-- Node17 -->
<g id="node17" class="node"><title>Node17</title>
<g id="a_node17"><a xlink:href="../../de/d69/classboca_1_1Reader.html" target="_top" xlink:title="boca::Reader\&lt; standardmodel\l::tagger::TopHadronic \&gt;">
<polygon fill="white" stroke="black" points="323,-982.332 323,-1012.33 471,-1012.33 471,-982.332 323,-982.332"/>
<text text-anchor="start" x="331" y="-1000.33" font-family="Helvetica,sans-Serif" font-size="10.00">boca::Reader&lt; standardmodel</text>
<text text-anchor="middle" x="397" y="-989.332" font-family="Helvetica,sans-Serif" font-size="10.00">::tagger::TopHadronic &gt;</text>
</a>
</g>
</g>
<!-- Node1&#45;&gt;Node17 -->
<g id="edge16" class="edge"><title>Node1&#45;&gt;Node17</title>
<path fill="none" stroke="orange" stroke-dasharray="5,2" d="M77.0404,-899.193C91.1245,-918.505 116.33,-948.508 146,-963.332 201.053,-990.839 270.98,-998.394 322.872,-999.612"/>
<polygon fill="orange" stroke="orange" points="79.8343,-897.082 71.212,-890.925 74.1129,-901.115 79.8343,-897.082"/>
<text text-anchor="start" x="161" y="-1012.33" font-family="Helvetica,sans-Serif" font-size="10.00"> &lt; standardmodel::tagger</text>
<text text-anchor="middle" x="215.5" y="-1001.33" font-family="Helvetica,sans-Serif" font-size="10.00">::TopHadronic &gt;</text>
</g>
<!-- Node18 -->
<g id="node18" class="node"><title>Node18</title>
<g id="a_node18"><a xlink:href="../../de/d69/classboca_1_1Reader.html" target="_top" xlink:title="boca::Reader\&lt; higgscpv\l::tagger::TopLeptonicPair \&gt;">
<polygon fill="white" stroke="black" points="329.5,-933.332 329.5,-963.332 464.5,-963.332 464.5,-933.332 329.5,-933.332"/>
<text text-anchor="start" x="337.5" y="-951.332" font-family="Helvetica,sans-Serif" font-size="10.00">boca::Reader&lt; higgscpv</text>
<text text-anchor="middle" x="397" y="-940.332" font-family="Helvetica,sans-Serif" font-size="10.00">::tagger::TopLeptonicPair &gt;</text>
</a>
</g>
</g>
<!-- Node1&#45;&gt;Node18 -->
<g id="edge17" class="edge"><title>Node1&#45;&gt;Node18</title>
<path fill="none" stroke="orange" stroke-dasharray="5,2" d="M96.6142,-894.781C111.389,-900.613 129.358,-907.068 146,-911.332 207.204,-927.014 278.655,-936.76 329.46,-942.287"/>
<polygon fill="orange" stroke="orange" points="97.5342,-891.378 86.9512,-890.878 94.9125,-897.868 97.5342,-891.378"/>
<text text-anchor="start" x="172.5" y="-951.332" font-family="Helvetica,sans-Serif" font-size="10.00"> &lt; higgscpv::tagger</text>
<text text-anchor="middle" x="215.5" y="-940.332" font-family="Helvetica,sans-Serif" font-size="10.00">::TopLeptonicPair &gt;</text>
</g>
<!-- Node19 -->
<g id="node19" class="node"><title>Node19</title>
<g id="a_node19"><a xlink:href="../../de/d69/classboca_1_1Reader.html" target="_top" xlink:title="boca::Reader\&lt; Signature_ \&gt;">
<polygon fill="white" stroke="black" points="327,-894.832 327,-913.832 467,-913.832 467,-894.832 327,-894.832"/>
<text text-anchor="middle" x="397" y="-901.832" font-family="Helvetica,sans-Serif" font-size="10.00">boca::Reader&lt; Signature_ &gt;</text>
</a>
</g>
</g>
<!-- Node1&#45;&gt;Node19 -->
<g id="edge18" class="edge"><title>Node1&#45;&gt;Node19</title>
<path fill="none" stroke="orange" stroke-dasharray="5,2" d="M138.291,-886.425C194.562,-890.335 271.719,-895.696 326.912,-899.532"/>
<polygon fill="orange" stroke="orange" points="138.256,-882.914 128.038,-885.713 137.771,-889.897 138.256,-882.914"/>
<text text-anchor="middle" x="215.5" y="-899.332" font-family="Helvetica,sans-Serif" font-size="10.00"> &lt; Signature_ &gt;</text>
</g>
<!-- Node20 -->
<g id="node20" class="node"><title>Node20</title>
<g id="a_node20"><a xlink:href="../../de/d69/classboca_1_1Reader.html" target="_top" xlink:title="boca::Reader\&lt; heavyhiggs\l::tagger::HeavyHiggsSemi \&gt;">
<polygon fill="white" stroke="black" points="326.5,-845.332 326.5,-875.332 467.5,-875.332 467.5,-845.332 326.5,-845.332"/>
<text text-anchor="start" x="334.5" y="-863.332" font-family="Helvetica,sans-Serif" font-size="10.00">boca::Reader&lt; heavyhiggs</text>
<text text-anchor="middle" x="397" y="-852.332" font-family="Helvetica,sans-Serif" font-size="10.00">::tagger::HeavyHiggsSemi &gt;</text>
</a>
</g>
</g>
<!-- Node1&#45;&gt;Node20 -->
<g id="edge19" class="edge"><title>Node1&#45;&gt;Node20</title>
<path fill="none" stroke="orange" stroke-dasharray="5,2" d="M103.986,-869.091C117.186,-865.52 132.105,-862.104 146,-860.332 206.599,-852.605 276.134,-853.374 326.461,-855.634"/>
<polygon fill="orange" stroke="orange" points="102.948,-865.747 94.2717,-871.827 104.846,-872.485 102.948,-865.747"/>
<text text-anchor="start" x="168" y="-874.332" font-family="Helvetica,sans-Serif" font-size="10.00"> &lt; heavyhiggs::tagger</text>
<text text-anchor="middle" x="215.5" y="-863.332" font-family="Helvetica,sans-Serif" font-size="10.00">::HeavyHiggsSemi &gt;</text>
</g>
<!-- Node21 -->
<g id="node21" class="node"><title>Node21</title>
<g id="a_node21"><a xlink:href="../../de/d69/classboca_1_1Reader.html" target="_top" xlink:title="boca::Reader\&lt; heavyhiggs\l::tagger::SignatureNeutral \&gt;">
<polygon fill="white" stroke="black" points="328.5,-796.332 328.5,-826.332 465.5,-826.332 465.5,-796.332 328.5,-796.332"/>
<text text-anchor="start" x="336.5" y="-814.332" font-family="Helvetica,sans-Serif" font-size="10.00">boca::Reader&lt; heavyhiggs</text>
<text text-anchor="middle" x="397" y="-803.332" font-family="Helvetica,sans-Serif" font-size="10.00">::tagger::SignatureNeutral &gt;</text>
</a>
</g>
</g>
<!-- Node1&#45;&gt;Node21 -->
<g id="edge20" class="edge"><title>Node1&#45;&gt;Node21</title>
<path fill="none" stroke="orange" stroke-dasharray="5,2" d="M83.3374,-865.343C98.8734,-852.832 122.34,-836.269 146,-828.332 205.392,-808.409 277.069,-805.521 328.419,-806.807"/>
<polygon fill="orange" stroke="orange" points="81.0258,-862.713 75.5713,-871.796 85.4994,-868.097 81.0258,-862.713"/>
<text text-anchor="start" x="168" y="-842.332" font-family="Helvetica,sans-Serif" font-size="10.00"> &lt; heavyhiggs::tagger</text>
<text text-anchor="middle" x="215.5" y="-831.332" font-family="Helvetica,sans-Serif" font-size="10.00">::SignatureNeutral &gt;</text>
</g>
<!-- Node22 -->
<g id="node22" class="node"><title>Node22</title>
<g id="a_node22"><a xlink:href="../../de/d69/classboca_1_1Reader.html" target="_top" xlink:title="boca::Reader\&lt; toppartner\l::tagger::TopPartnerLeptonicCharged \&gt;">
<polygon fill="white" stroke="black" points="304,-747.332 304,-777.332 490,-777.332 490,-747.332 304,-747.332"/>
<text text-anchor="start" x="312" y="-765.332" font-family="Helvetica,sans-Serif" font-size="10.00">boca::Reader&lt; toppartner</text>
<text text-anchor="middle" x="397" y="-754.332" font-family="Helvetica,sans-Serif" font-size="10.00">::tagger::TopPartnerLeptonicCharged &gt;</text>
</a>
</g>
</g>
<!-- Node1&#45;&gt;Node22 -->
<g id="edge21" class="edge"><title>Node1&#45;&gt;Node22</title>
<path fill="none" stroke="orange" stroke-dasharray="5,2" d="M73.9835,-862.732C86.4878,-839.152 111.546,-799.398 146,-781.332 193.995,-756.167 254.436,-750.985 303.866,-752.302"/>
<polygon fill="orange" stroke="orange" points="70.817,-861.238 69.4024,-871.738 77.0561,-864.412 70.817,-861.238"/>
<text text-anchor="start" x="147" y="-795.332" font-family="Helvetica,sans-Serif" font-size="10.00"> &lt; toppartner::tagger</text>
<text text-anchor="middle" x="215.5" y="-784.332" font-family="Helvetica,sans-Serif" font-size="10.00">::TopPartnerLeptonicCharged &gt;</text>
</g>
<!-- Node23 -->
<g id="node23" class="node"><title>Node23</title>
<g id="a_node23"><a xlink:href="../../de/d69/classboca_1_1Reader.html" target="_top" xlink:title="boca::Reader\&lt; tagger\l::boca::standardmodel\l::tagger::WLeptonic \&gt;">
<polygon fill="white" stroke="black" points="340.5,-687.832 340.5,-728.832 453.5,-728.832 453.5,-687.832 340.5,-687.832"/>
<text text-anchor="start" x="348.5" y="-716.832" font-family="Helvetica,sans-Serif" font-size="10.00">boca::Reader&lt; tagger</text>
<text text-anchor="start" x="348.5" y="-705.832" font-family="Helvetica,sans-Serif" font-size="10.00">::boca::standardmodel</text>
<text text-anchor="middle" x="397" y="-694.832" font-family="Helvetica,sans-Serif" font-size="10.00">::tagger::WLeptonic &gt;</text>
</a>
</g>
</g>
<!-- Node1&#45;&gt;Node23 -->
<g id="edge22" class="edge"><title>Node1&#45;&gt;Node23</title>
<path fill="none" stroke="orange" stroke-dasharray="5,2" d="M68.9215,-861.328C76.8081,-827.051 98.1003,-757.753 146,-726.332 203.853,-688.382 286.281,-690.63 340.44,-697.781"/>
<polygon fill="orange" stroke="orange" points="65.4139,-860.993 66.7418,-871.505 72.2587,-862.459 65.4139,-860.993"/>
<text text-anchor="start" x="147.5" y="-740.332" font-family="Helvetica,sans-Serif" font-size="10.00"> &lt; tagger::boca::standardmodel</text>
<text text-anchor="middle" x="215.5" y="-729.332" font-family="Helvetica,sans-Serif" font-size="10.00">::tagger::WLeptonic &gt;</text>
</g>
<!-- Node24 -->
<g id="node24" class="node"><title>Node24</title>
<g id="a_node24"><a xlink:href="../../de/d69/classboca_1_1Reader.html" target="_top" xlink:title="boca::Reader\&lt; SignatureEffective \&gt;">
<polygon fill="white" stroke="black" points="310.5,-649.832 310.5,-668.832 483.5,-668.832 483.5,-649.832 310.5,-649.832"/>
<text text-anchor="middle" x="397" y="-656.832" font-family="Helvetica,sans-Serif" font-size="10.00">boca::Reader&lt; SignatureEffective &gt;</text>
</a>
</g>
</g>
<!-- Node1&#45;&gt;Node24 -->
<g id="edge23" class="edge"><title>Node1&#45;&gt;Node24</title>
<path fill="none" stroke="orange" stroke-dasharray="5,2" d="M66.3459,-861.4C70.3352,-819.72 85.9258,-723.561 146,-679.332 205.783,-635.318 296.828,-641.06 350.974,-649.806"/>
<polygon fill="orange" stroke="orange" points="62.8366,-861.368 65.501,-871.622 69.8128,-861.945 62.8366,-861.368"/>
<text text-anchor="middle" x="215.5" y="-682.332" font-family="Helvetica,sans-Serif" font-size="10.00"> &lt; SignatureEffective &gt;</text>
</g>
<!-- Node25 -->
<g id="node25" class="node"><title>Node25</title>
<g id="a_node25"><a xlink:href="../../de/d69/classboca_1_1Reader.html" target="_top" xlink:title="boca::Reader\&lt; tagger\l::boca::tagger::Global \&gt;">
<polygon fill="white" stroke="black" points="337.5,-600.332 337.5,-630.332 456.5,-630.332 456.5,-600.332 337.5,-600.332"/>
<text text-anchor="start" x="345.5" y="-618.332" font-family="Helvetica,sans-Serif" font-size="10.00">boca::Reader&lt; tagger</text>
<text text-anchor="middle" x="397" y="-607.332" font-family="Helvetica,sans-Serif" font-size="10.00">::boca::tagger::Global &gt;</text>
</a>
</g>
</g>
<!-- Node1&#45;&gt;Node25 -->
<g id="edge24" class="edge"><title>Node1&#45;&gt;Node25</title>
<path fill="none" stroke="orange" stroke-dasharray="5,2" d="M68.0105,-861.843C77.0473,-806.149 105.818,-648.376 146,-618.332 175.114,-596.564 273.156,-601.997 337.463,-608.355"/>
<polygon fill="orange" stroke="orange" points="64.537,-861.4 66.4265,-871.825 71.4505,-862.497 64.537,-861.4"/>
<text text-anchor="start" x="165.5" y="-632.332" font-family="Helvetica,sans-Serif" font-size="10.00"> &lt; tagger::boca::tagger</text>
<text text-anchor="middle" x="215.5" y="-621.332" font-family="Helvetica,sans-Serif" font-size="10.00">::Global &gt;</text>
</g>
<!-- Node26 -->
<g id="node26" class="node"><title>Node26</title>
<g id="a_node26"><a xlink:href="../../de/d69/classboca_1_1Reader.html" target="_top" xlink:title="boca::Reader\&lt; toppartner\l::tagger::VetoTopPartnerHadronic \&gt;">
<polygon fill="white" stroke="black" points="311,-551.332 311,-581.332 483,-581.332 483,-551.332 311,-551.332"/>
<text text-anchor="start" x="319" y="-569.332" font-family="Helvetica,sans-Serif" font-size="10.00">boca::Reader&lt; toppartner</text>
<text text-anchor="middle" x="397" y="-558.332" font-family="Helvetica,sans-Serif" font-size="10.00">::tagger::VetoTopPartnerHadronic &gt;</text>
</a>
</g>
</g>
<!-- Node1&#45;&gt;Node26 -->
<g id="edge25" class="edge"><title>Node1&#45;&gt;Node26</title>
<path fill="none" stroke="orange" stroke-dasharray="5,2" d="M67.2736,-861.382C74.7485,-799.655 100.712,-613.745 146,-577.332 170.717,-557.46 248.555,-556.677 310.884,-559.672"/>
<polygon fill="orange" stroke="orange" points="63.7526,-861.355 66.0585,-871.696 70.7045,-862.174 63.7526,-861.355"/>
<text text-anchor="start" x="154" y="-591.332" font-family="Helvetica,sans-Serif" font-size="10.00"> &lt; toppartner::tagger</text>
<text text-anchor="middle" x="215.5" y="-580.332" font-family="Helvetica,sans-Serif" font-size="10.00">::VetoTopPartnerHadronic &gt;</text>
</g>
<!-- Node27 -->
<g id="node27" class="node"><title>Node27</title>
<g id="a_node27"><a xlink:href="../../de/d69/classboca_1_1Reader.html" target="_top" xlink:title="boca::Reader\&lt; higgscpv\l::tagger::SignatureT \&gt;">
<polygon fill="white" stroke="black" points="335.5,-502.332 335.5,-532.332 458.5,-532.332 458.5,-502.332 335.5,-502.332"/>
<text text-anchor="start" x="343.5" y="-520.332" font-family="Helvetica,sans-Serif" font-size="10.00">boca::Reader&lt; higgscpv</text>
<text text-anchor="middle" x="397" y="-509.332" font-family="Helvetica,sans-Serif" font-size="10.00">::tagger::SignatureT &gt;</text>
</a>
</g>
</g>
<!-- Node1&#45;&gt;Node27 -->
<g id="edge26" class="edge"><title>Node1&#45;&gt;Node27</title>
<path fill="none" stroke="orange" stroke-dasharray="5,2" d="M66.5709,-861.675C72.3623,-794.622 94.8893,-576.646 146,-533.332 197.843,-489.398 279.534,-493.134 335.323,-502.716"/>
<polygon fill="orange" stroke="orange" points="63.0753,-861.478 65.7315,-871.734 70.0511,-862.06 63.0753,-861.478"/>
<text text-anchor="start" x="173" y="-547.332" font-family="Helvetica,sans-Serif" font-size="10.00"> &lt; higgscpv::tagger</text>
<text text-anchor="middle" x="215.5" y="-536.332" font-family="Helvetica,sans-Serif" font-size="10.00">::SignatureT &gt;</text>
</g>
<!-- Node28 -->
<g id="node28" class="node"><title>Node28</title>
<g id="a_node28"><a xlink:href="../../de/d69/classboca_1_1Reader.html" target="_top" xlink:title="boca::Reader\&lt; higgscpv\l::tagger::SignatureLeptonT \&gt;">
<polygon fill="white" stroke="black" points="326.5,-453.332 326.5,-483.332 467.5,-483.332 467.5,-453.332 326.5,-453.332"/>
<text text-anchor="start" x="334.5" y="-471.332" font-family="Helvetica,sans-Serif" font-size="10.00">boca::Reader&lt; higgscpv</text>
<text text-anchor="middle" x="397" y="-460.332" font-family="Helvetica,sans-Serif" font-size="10.00">::tagger::SignatureLeptonT &gt;</text>
</a>
</g>
</g>
<!-- Node1&#45;&gt;Node28 -->
<g id="edge27" class="edge"><title>Node1&#45;&gt;Node28</title>
<path fill="none" stroke="orange" stroke-dasharray="5,2" d="M65.7687,-861.086C69.0962,-785.574 84.9786,-522.094 146,-471.332 172.445,-449.333 261.978,-453.425 326.34,-459.733"/>
<polygon fill="orange" stroke="orange" points="62.253,-861.394 65.3374,-871.53 69.2471,-861.683 62.253,-861.394"/>
<text text-anchor="start" x="169.5" y="-485.332" font-family="Helvetica,sans-Serif" font-size="10.00"> &lt; higgscpv::tagger</text>
<text text-anchor="middle" x="215.5" y="-474.332" font-family="Helvetica,sans-Serif" font-size="10.00">::SignatureLeptonT &gt;</text>
</g>
<!-- Node29 -->
<g id="node29" class="node"><title>Node29</title>
<g id="a_node29"><a xlink:href="../../de/d69/classboca_1_1Reader.html" target="_top" xlink:title="boca::Reader\&lt; toppartner\l::tagger::Resonance \&gt;">
<polygon fill="white" stroke="black" points="333,-404.332 333,-434.332 461,-434.332 461,-404.332 333,-404.332"/>
<text text-anchor="start" x="341" y="-422.332" font-family="Helvetica,sans-Serif" font-size="10.00">boca::Reader&lt; toppartner</text>
<text text-anchor="middle" x="397" y="-411.332" font-family="Helvetica,sans-Serif" font-size="10.00">::tagger::Resonance &gt;</text>
</a>
</g>
</g>
<!-- Node1&#45;&gt;Node29 -->
<g id="edge28" class="edge"><title>Node1&#45;&gt;Node29</title>
<path fill="none" stroke="orange" stroke-dasharray="5,2" d="M65.4002,-861.676C67.4593,-782.345 79.5437,-487.235 146,-429.332 172.855,-405.934 267.902,-408.41 332.749,-413.213"/>
<polygon fill="orange" stroke="orange" points="61.8992,-861.682 65.1638,-871.761 68.8972,-861.846 61.8992,-861.682"/>
<text text-anchor="start" x="171" y="-443.332" font-family="Helvetica,sans-Serif" font-size="10.00"> &lt; toppartner::tagger</text>
<text text-anchor="middle" x="215.5" y="-432.332" font-family="Helvetica,sans-Serif" font-size="10.00">::Resonance &gt;</text>
</g>
<!-- Node30 -->
<g id="node30" class="node"><title>Node30</title>
<g id="a_node30"><a xlink:href="../../de/d69/classboca_1_1Reader.html" target="_top" xlink:title="boca::Reader\&lt; heavyhiggs\l::tagger::ChargedHiggsSemi \&gt;">
<polygon fill="white" stroke="black" points="322.5,-355.332 322.5,-385.332 471.5,-385.332 471.5,-355.332 322.5,-355.332"/>
<text text-anchor="start" x="330.5" y="-373.332" font-family="Helvetica,sans-Serif" font-size="10.00">boca::Reader&lt; heavyhiggs</text>
<text text-anchor="middle" x="397" y="-362.332" font-family="Helvetica,sans-Serif" font-size="10.00">::tagger::ChargedHiggsSemi &gt;</text>
</a>
</g>
</g>
<!-- Node1&#45;&gt;Node30 -->
<g id="edge29" class="edge"><title>Node1&#45;&gt;Node30</title>
<path fill="none" stroke="orange" stroke-dasharray="5,2" d="M65.0808,-861.665C65.8701,-777.56 73.6091,-449.455 146,-384.332 171.127,-361.728 257.969,-361.419 322.281,-364.66"/>
<polygon fill="orange" stroke="orange" points="61.581,-861.643 65.0104,-871.667 68.5808,-861.692 61.581,-861.643"/>
<text text-anchor="start" x="165.5" y="-398.332" font-family="Helvetica,sans-Serif" font-size="10.00"> &lt; heavyhiggs::tagger</text>
<text text-anchor="middle" x="215.5" y="-387.332" font-family="Helvetica,sans-Serif" font-size="10.00">::ChargedHiggsSemi &gt;</text>
</g>
<!-- Node31 -->
<g id="node31" class="node"><title>Node31</title>
<g id="a_node31"><a xlink:href="../../de/d69/classboca_1_1Reader.html" target="_top" xlink:title="boca::Reader\&lt; toppartner\l::tagger::TopPartnerHadronicCharged \&gt;">
<polygon fill="white" stroke="black" points="303,-306.332 303,-336.332 491,-336.332 491,-306.332 303,-306.332"/>
<text text-anchor="start" x="311" y="-324.332" font-family="Helvetica,sans-Serif" font-size="10.00">boca::Reader&lt; toppartner</text>
<text text-anchor="middle" x="397" y="-313.332" font-family="Helvetica,sans-Serif" font-size="10.00">::tagger::TopPartnerHadronicCharged &gt;</text>
</a>
</g>
</g>
<!-- Node1&#45;&gt;Node31 -->
<g id="edge30" class="edge"><title>Node1&#45;&gt;Node31</title>
<path fill="none" stroke="orange" stroke-dasharray="5,2" d="M64.7913,-861.558C64.2984,-772.49 67.2134,-409.771 146,-337.332 196.905,-290.528 281.016,-295.692 337.448,-306.324"/>
<polygon fill="orange" stroke="orange" points="61.292,-861.673 64.8697,-871.645 68.2918,-861.618 61.292,-861.673"/>
<text text-anchor="start" x="146" y="-351.332" font-family="Helvetica,sans-Serif" font-size="10.00"> &lt; toppartner::tagger</text>
<text text-anchor="middle" x="215.5" y="-340.332" font-family="Helvetica,sans-Serif" font-size="10.00">::TopPartnerHadronicCharged &gt;</text>
</g>
<!-- Node32 -->
<g id="node32" class="node"><title>Node32</title>
<g id="a_node32"><a xlink:href="../../de/d69/classboca_1_1Reader.html" target="_top" xlink:title="boca::Reader\&lt; toppartner\l::tagger::NewPartnerHadronic \&gt;">
<polygon fill="white" stroke="black" points="319.5,-257.332 319.5,-287.332 474.5,-287.332 474.5,-257.332 319.5,-257.332"/>
<text text-anchor="start" x="327.5" y="-275.332" font-family="Helvetica,sans-Serif" font-size="10.00">boca::Reader&lt; toppartner</text>
<text text-anchor="middle" x="397" y="-264.332" font-family="Helvetica,sans-Serif" font-size="10.00">::tagger::NewPartnerHadronic &gt;</text>
</a>
</g>
</g>
<!-- Node1&#45;&gt;Node32 -->
<g id="edge31" class="edge"><title>Node1&#45;&gt;Node32</title>
<path fill="none" stroke="orange" stroke-dasharray="5,2" d="M66.1168,-861.551C71.9683,-761.379 100.565,-313.276 146,-273.332 170.937,-251.409 255.365,-255.334 319.266,-262.041"/>
<polygon fill="orange" stroke="orange" points="62.6224,-861.354 65.5419,-871.539 69.6108,-861.757 62.6224,-861.354"/>
<text text-anchor="start" x="162.5" y="-287.332" font-family="Helvetica,sans-Serif" font-size="10.00"> &lt; toppartner::tagger</text>
<text text-anchor="middle" x="215.5" y="-276.332" font-family="Helvetica,sans-Serif" font-size="10.00">::NewPartnerHadronic &gt;</text>
</g>
<!-- Node33 -->
<g id="node33" class="node"><title>Node33</title>
<g id="a_node33"><a xlink:href="../../de/d69/classboca_1_1Reader.html" target="_top" xlink:title="boca::Reader\&lt; toppartner\l::tagger::HiggsPair \&gt;">
<polygon fill="white" stroke="black" points="333,-208.332 333,-238.332 461,-238.332 461,-208.332 333,-208.332"/>
<text text-anchor="start" x="341" y="-226.332" font-family="Helvetica,sans-Serif" font-size="10.00">boca::Reader&lt; toppartner</text>
<text text-anchor="middle" x="397" y="-215.332" font-family="Helvetica,sans-Serif" font-size="10.00">::tagger::HiggsPair &gt;</text>
</a>
</g>
</g>
<!-- Node1&#45;&gt;Node33 -->
<g id="edge32" class="edge"><title>Node1&#45;&gt;Node33</title>
<path fill="none" stroke="orange" stroke-dasharray="5,2" d="M65.9793,-861.211C71.2837,-756.284 98.1157,-275.003 146,-231.332 172.35,-207.301 267.801,-210.813 332.835,-216.418"/>
<polygon fill="orange" stroke="orange" points="62.4746,-861.22 65.4736,-871.381 69.466,-861.567 62.4746,-861.22"/>
<text text-anchor="start" x="171" y="-245.332" font-family="Helvetica,sans-Serif" font-size="10.00"> &lt; toppartner::tagger</text>
<text text-anchor="middle" x="215.5" y="-234.332" font-family="Helvetica,sans-Serif" font-size="10.00">::HiggsPair &gt;</text>
</g>
<!-- Node34 -->
<g id="node34" class="node"><title>Node34</title>
<g id="a_node34"><a xlink:href="../../de/d69/classboca_1_1Reader.html" target="_top" xlink:title="boca::Reader\&lt; toppartner\l::tagger::TopPartnerHadronicNeutral \&gt;">
<polygon fill="white" stroke="black" points="305.5,-159.332 305.5,-189.332 488.5,-189.332 488.5,-159.332 305.5,-159.332"/>
<text text-anchor="start" x="313.5" y="-177.332" font-family="Helvetica,sans-Serif" font-size="10.00">boca::Reader&lt; toppartner</text>
<text text-anchor="middle" x="397" y="-166.332" font-family="Helvetica,sans-Serif" font-size="10.00">::tagger::TopPartnerHadronicNeutral &gt;</text>
</a>
</g>
</g>
<!-- Node1&#45;&gt;Node34 -->
<g id="edge33" class="edge"><title>Node1&#45;&gt;Node34</title>
<path fill="none" stroke="orange" stroke-dasharray="5,2" d="M65.8079,-861.568C70.4325,-753.157 95.146,-233.838 146,-186.332 198.472,-137.315 287.372,-146.58 343.807,-159.308"/>
<polygon fill="orange" stroke="orange" points="62.3035,-861.602 65.3821,-871.74 69.2974,-861.895 62.3035,-861.602"/>
<text text-anchor="start" x="148.5" y="-200.332" font-family="Helvetica,sans-Serif" font-size="10.00"> &lt; toppartner::tagger</text>
<text text-anchor="middle" x="215.5" y="-189.332" font-family="Helvetica,sans-Serif" font-size="10.00">::TopPartnerHadronicNeutral &gt;</text>
</g>
<!-- Node35 -->
<g id="node35" class="node"><title>Node35</title>
<g id="a_node35"><a xlink:href="../../de/d69/classboca_1_1Reader.html" target="_top" xlink:title="boca::Reader\&lt; SignatureSingle\lLeptonic \&gt;">
<polygon fill="white" stroke="black" points="321,-110.332 321,-140.332 473,-140.332 473,-110.332 321,-110.332"/>
<text text-anchor="start" x="329" y="-128.332" font-family="Helvetica,sans-Serif" font-size="10.00">boca::Reader&lt; SignatureSingle</text>
<text text-anchor="middle" x="397" y="-117.332" font-family="Helvetica,sans-Serif" font-size="10.00">Leptonic &gt;</text>
</a>
</g>
</g>
<!-- Node1&#45;&gt;Node35 -->
<g id="edge34" class="edge"><title>Node1&#45;&gt;Node35</title>
<path fill="none" stroke="orange" stroke-dasharray="5,2" d="M65.6322,-861.521C69.4432,-748.203 91.061,-185.45 146,-134.332 170.562,-111.478 256.535,-112.932 320.847,-117.677"/>
<polygon fill="orange" stroke="orange" points="62.1242,-861.71 65.2938,-871.82 69.1204,-861.94 62.1242,-861.71"/>
<text text-anchor="middle" x="215.5" y="-137.332" font-family="Helvetica,sans-Serif" font-size="10.00"> &lt; SignatureSingleLeptonic &gt;</text>
</g>
<!-- Node36 -->
<g id="node36" class="node"><title>Node36</title>
<g id="a_node36"><a xlink:href="../../de/d69/classboca_1_1Reader.html" target="_top" xlink:title="boca::Reader\&lt; standardmodel\l::tagger::TopLeptonic \&gt;">
<polygon fill="white" stroke="black" points="323,-61.3322 323,-91.3322 471,-91.3322 471,-61.3322 323,-61.3322"/>
<text text-anchor="start" x="331" y="-79.3322" font-family="Helvetica,sans-Serif" font-size="10.00">boca::Reader&lt; standardmodel</text>
<text text-anchor="middle" x="397" y="-68.3322" font-family="Helvetica,sans-Serif" font-size="10.00">::tagger::TopLeptonic &gt;</text>
</a>
</g>
</g>
<!-- Node1&#45;&gt;Node36 -->
<g id="edge35" class="edge"><title>Node1&#45;&gt;Node36</title>
<path fill="none" stroke="orange" stroke-dasharray="5,2" d="M65.5096,-861.807C68.7428,-745.234 88.1521,-144.36 146,-89.3322 197.88,-39.9821 286.525,-48.7668 343.128,-61.2995"/>
<polygon fill="orange" stroke="orange" points="62.0109,-861.712 65.2396,-871.803 69.0084,-861.901 62.0109,-861.712"/>
<text text-anchor="start" x="161" y="-103.332" font-family="Helvetica,sans-Serif" font-size="10.00"> &lt; standardmodel::tagger</text>
<text text-anchor="middle" x="215.5" y="-92.3322" font-family="Helvetica,sans-Serif" font-size="10.00">::TopLeptonic &gt;</text>
</g>
<!-- Node37 -->
<g id="node37" class="node"><title>Node37</title>
<g id="a_node37"><a xlink:href="../../de/d69/classboca_1_1Reader.html" target="_top" xlink:title="boca::Reader\&lt; SignatureSingle\lHadronic \&gt;">
<polygon fill="white" stroke="black" points="321,-12.3322 321,-42.3322 473,-42.3322 473,-12.3322 321,-12.3322"/>
<text text-anchor="start" x="329" y="-30.3322" font-family="Helvetica,sans-Serif" font-size="10.00">boca::Reader&lt; SignatureSingle</text>
<text text-anchor="middle" x="397" y="-19.3322" font-family="Helvetica,sans-Serif" font-size="10.00">Hadronic &gt;</text>
</a>
</g>
</g>
<!-- Node1&#45;&gt;Node37 -->
<g id="edge36" class="edge"><title>Node1&#45;&gt;Node37</title>
<path fill="none" stroke="orange" stroke-dasharray="5,2" d="M65.3741,-861.661C67.8769,-740.24 84.0325,-95.9408 146,-37.3322 199.018,12.8119 290.116,1.44853 346.481,-12.2891"/>
<polygon fill="orange" stroke="orange" points="61.8732,-861.675 65.1734,-871.742 68.8718,-861.814 61.8732,-861.675"/>
<text text-anchor="middle" x="215.5" y="-40.3322" font-family="Helvetica,sans-Serif" font-size="10.00"> &lt; SignatureSingleHadronic &gt;</text>
</g>
</g>
</svg>
