<?xml version="1.0" encoding="UTF-8" standalone="no"?>
<!DOCTYPE svg PUBLIC "-//W3C//DTD SVG 1.1//EN"
 "http://www.w3.org/Graphics/SVG/1.1/DTD/svg11.dtd">
<!-- Generated by graphviz version 2.38.0 (20140413.2041)
 -->
<!-- Title: examples/heavyhiggs/source/MainCutNeutral.cpp Pages: 1 -->
<svg width="2273pt" height="576pt"
 viewBox="0.00 0.00 2272.50 576.00" xmlns="http://www.w3.org/2000/svg" xmlns:xlink="http://www.w3.org/1999/xlink">
<g id="graph0" class="graph" transform="scale(1 1) rotate(0) translate(4 572)">
<title>examples/heavyhiggs/source/MainCutNeutral.cpp</title>
<polygon fill="white" stroke="none" points="-4,4 -4,-572 2268.5,-572 2268.5,4 -4,4"/>
<!-- Node1 -->
<g id="node1" class="node"><title>Node1</title>
<polygon fill="#bfbfbf" stroke="black" points="992,-537.5 992,-567.5 1131,-567.5 1131,-537.5 992,-537.5"/>
<text text-anchor="start" x="1000" y="-555.5" font-family="Helvetica,sans-Serif" font-size="10.00">examples/heavyhiggs</text>
<text text-anchor="middle" x="1061.5" y="-544.5" font-family="Helvetica,sans-Serif" font-size="10.00">/source/MainCutNeutral.cpp</text>
</g>
<!-- Node2 -->
<g id="node2" class="node"><title>Node2</title>
<g id="a_node2"><a xlink:href="../../d8/dc1/Neutral_8hh.html" target="_top" xlink:title="include/analysis/Neutral.hh">
<polygon fill="white" stroke="black" points="802.5,-481.5 802.5,-500.5 936.5,-500.5 936.5,-481.5 802.5,-481.5"/>
<text text-anchor="middle" x="869.5" y="-488.5" font-family="Helvetica,sans-Serif" font-size="10.00">include/analysis/Neutral.hh</text>
</a>
</g>
</g>
<!-- Node1&#45;&gt;Node2 -->
<g id="edge1" class="edge"><title>Node1&#45;&gt;Node2</title>
<path fill="none" stroke="midnightblue" d="M1016,-537.399C982.678,-527.073 938.01,-513.231 906.79,-503.556"/>
<polygon fill="midnightblue" stroke="midnightblue" points="907.745,-500.188 897.157,-500.571 905.673,-506.874 907.745,-500.188"/>
</g>
<!-- Node27 -->
<g id="node27" class="node"><title>Node27</title>
<g id="a_node27"><a xlink:href="../../d8/d46/tagger_2CutNeutral_8hh.html" target="_top" xlink:title="include/tagger/CutNeutral.hh">
<polygon fill="white" stroke="black" points="1328,-425.5 1328,-444.5 1469,-444.5 1469,-425.5 1328,-425.5"/>
<text text-anchor="middle" x="1398.5" y="-432.5" font-family="Helvetica,sans-Serif" font-size="10.00">include/tagger/CutNeutral.hh</text>
</a>
</g>
</g>
<!-- Node1&#45;&gt;Node27 -->
<g id="edge33" class="edge"><title>Node1&#45;&gt;Node27</title>
<path fill="none" stroke="midnightblue" d="M1102.49,-537.453C1169.45,-514.503 1301.12,-469.376 1363.78,-447.901"/>
<polygon fill="midnightblue" stroke="midnightblue" points="1365.25,-451.095 1373.58,-444.542 1362.98,-444.474 1365.25,-451.095"/>
</g>
<!-- Node3 -->
<g id="node3" class="node"><title>Node3</title>
<g id="a_node3"><a xlink:href="../../df/d4c/HeavyHiggs_8hh.html" target="_top" xlink:title="include/analysis/HeavyHiggs.hh">
<polygon fill="white" stroke="black" points="212,-425.5 212,-444.5 369,-444.5 369,-425.5 212,-425.5"/>
<text text-anchor="middle" x="290.5" y="-432.5" font-family="Helvetica,sans-Serif" font-size="10.00">include/analysis/HeavyHiggs.hh</text>
</a>
</g>
</g>
<!-- Node2&#45;&gt;Node3 -->
<g id="edge2" class="edge"><title>Node2&#45;&gt;Node3</title>
<path fill="none" stroke="midnightblue" d="M802.232,-483.726C697.558,-473.964 495.649,-455.133 379.19,-444.272"/>
<polygon fill="midnightblue" stroke="midnightblue" points="379.511,-440.786 369.229,-443.343 378.861,-447.756 379.511,-440.786"/>
</g>
<!-- Node4 -->
<g id="node4" class="node"><title>Node4</title>
<g id="a_node4"><a xlink:href="../../d4/d12/boca_2analysis_2Analysis_8hh.html" target="_top" xlink:title="boca/analysis/Analysis.hh">
<polygon fill="white" stroke="black" points="428,-364 428,-383 559,-383 559,-364 428,-364"/>
<text text-anchor="middle" x="493.5" y="-371" font-family="Helvetica,sans-Serif" font-size="10.00">boca/analysis/Analysis.hh</text>
</a>
</g>
</g>
<!-- Node3&#45;&gt;Node4 -->
<g id="edge3" class="edge"><title>Node3&#45;&gt;Node4</title>
<path fill="none" stroke="midnightblue" d="M319.585,-425.475C355.085,-415.07 415.245,-397.437 454.674,-385.88"/>
<polygon fill="midnightblue" stroke="midnightblue" points="455.857,-389.181 464.469,-383.009 453.888,-382.463 455.857,-389.181"/>
</g>
<!-- Node19 -->
<g id="node19" class="node"><title>Node19</title>
<g id="a_node19"><a xlink:href="../../d2/ddc/Settings_8hh.html" target="_top" xlink:title="boca/Settings.hh">
<polygon fill="white" stroke="black" points="284.5,-112.5 284.5,-131.5 374.5,-131.5 374.5,-112.5 284.5,-112.5"/>
<text text-anchor="middle" x="329.5" y="-119.5" font-family="Helvetica,sans-Serif" font-size="10.00">boca/Settings.hh</text>
</a>
</g>
</g>
<!-- Node3&#45;&gt;Node19 -->
<g id="edge29" class="edge"><title>Node3&#45;&gt;Node19</title>
<path fill="none" stroke="midnightblue" d="M265.574,-425.388C224.116,-409.294 145.5,-370.472 145.5,-307.5 145.5,-307.5 145.5,-307.5 145.5,-244 145.5,-181.013 221.702,-148.984 276.029,-134.153"/>
<polygon fill="midnightblue" stroke="midnightblue" points="277.101,-137.491 285.895,-131.58 275.335,-130.717 277.101,-137.491"/>
</g>
<!-- Node25 -->
<g id="node25" class="node"><title>Node25</title>
<g id="a_node25"><a xlink:href="../../d3/dcd/DEBUG__MACROS_8hh.html" target="_top" xlink:title="boca/generic/DEBUG\l_MACROS.hh">
<polygon fill="white" stroke="black" points="5,-358.5 5,-388.5 116,-388.5 116,-358.5 5,-358.5"/>
<text text-anchor="start" x="13" y="-376.5" font-family="Helvetica,sans-Serif" font-size="10.00">boca/generic/DEBUG</text>
<text text-anchor="middle" x="60.5" y="-365.5" font-family="Helvetica,sans-Serif" font-size="10.00">_MACROS.hh</text>
</a>
</g>
</g>
<!-- Node3&#45;&gt;Node25 -->
<g id="edge30" class="edge"><title>Node3&#45;&gt;Node25</title>
<path fill="none" stroke="midnightblue" d="M257.547,-425.475C222.976,-416.532 167.764,-402.249 124.567,-391.074"/>
<polygon fill="midnightblue" stroke="midnightblue" points="125.264,-387.639 114.706,-388.523 123.511,-394.416 125.264,-387.639"/>
</g>
<!-- Node5 -->
<g id="node5" class="node"><title>Node5</title>
<polygon fill="white" stroke="#bfbfbf" points="446.5,-297 446.5,-316 490.5,-316 490.5,-297 446.5,-297"/>
<text text-anchor="middle" x="468.5" y="-304" font-family="Helvetica,sans-Serif" font-size="10.00">thread</text>
</g>
<!-- Node4&#45;&gt;Node5 -->
<g id="edge4" class="edge"><title>Node4&#45;&gt;Node5</title>
<path fill="none" stroke="midnightblue" d="M490.128,-363.734C486.38,-353.988 480.223,-337.981 475.435,-325.532"/>
<polygon fill="midnightblue" stroke="midnightblue" points="478.675,-324.204 471.818,-316.127 472.141,-326.717 478.675,-324.204"/>
</g>
<!-- Node6 -->
<g id="node6" class="node"><title>Node6</title>
<g id="a_node6"><a xlink:href="../../d6/dd8/Types_8hh.html" target="_top" xlink:title="boca/generic/Types.hh">
<polygon fill="white" stroke="black" points="323.5,-235.5 323.5,-254.5 439.5,-254.5 439.5,-235.5 323.5,-235.5"/>
<text text-anchor="middle" x="381.5" y="-242.5" font-family="Helvetica,sans-Serif" font-size="10.00">boca/generic/Types.hh</text>
</a>
</g>
</g>
<!-- Node4&#45;&gt;Node6 -->
<g id="edge5" class="edge"><title>Node4&#45;&gt;Node6</title>
<path fill="none" stroke="midnightblue" d="M497.335,-363.972C503.852,-348.06 514.954,-313.432 499.5,-291 487.742,-273.932 468.578,-263.333 449.08,-256.753"/>
<polygon fill="midnightblue" stroke="midnightblue" points="450.099,-253.405 439.513,-253.835 448.057,-260.1 450.099,-253.405"/>
</g>
<!-- Node9 -->
<g id="node9" class="node"><title>Node9</title>
<g id="a_node9"><a xlink:href="../../d5/dd5/Io_8hh.html" target="_top" xlink:title="boca/io/Io.hh">
<polygon fill="white" stroke="black" points="608,-112.5 608,-131.5 681,-131.5 681,-112.5 608,-112.5"/>
<text text-anchor="middle" x="644.5" y="-119.5" font-family="Helvetica,sans-Serif" font-size="10.00">boca/io/Io.hh</text>
</a>
</g>
</g>
<!-- Node4&#45;&gt;Node9 -->
<g id="edge8" class="edge"><title>Node4&#45;&gt;Node9</title>
<path fill="none" stroke="midnightblue" d="M498.212,-363.759C513.716,-335.146 564.873,-241.885 612.5,-168 618.603,-158.532 625.845,-148.276 631.895,-139.949"/>
<polygon fill="midnightblue" stroke="midnightblue" points="634.782,-141.931 637.881,-131.799 629.14,-137.787 634.782,-141.931"/>
</g>
<!-- Node10 -->
<g id="node10" class="node"><title>Node10</title>
<g id="a_node10"><a xlink:href="../../da/d1e/Plotting_8hh.html" target="_top" xlink:title="boca/plotting/Plotting.hh">
<polygon fill="white" stroke="red" points="173.5,-297 173.5,-316 295.5,-316 295.5,-297 173.5,-297"/>
<text text-anchor="middle" x="234.5" y="-304" font-family="Helvetica,sans-Serif" font-size="10.00">boca/plotting/Plotting.hh</text>
</a>
</g>
</g>
<!-- Node4&#45;&gt;Node10 -->
<g id="edge10" class="edge"><title>Node4&#45;&gt;Node10</title>
<path fill="none" stroke="midnightblue" d="M459.374,-363.936C412.885,-352.268 329.6,-331.367 278.477,-318.537"/>
<polygon fill="midnightblue" stroke="midnightblue" points="279.253,-315.123 268.702,-316.083 277.549,-321.912 279.253,-315.123"/>
</g>
<!-- Node11 -->
<g id="node11" class="node"><title>Node11</title>
<g id="a_node11"><a xlink:href="../../d2/d11/Third_8hh.html" target="_top" xlink:title="boca/analysis/Third.hh">
<polygon fill="white" stroke="red" points="314,-297 314,-316 429,-316 429,-297 314,-297"/>
<text text-anchor="middle" x="371.5" y="-304" font-family="Helvetica,sans-Serif" font-size="10.00">boca/analysis/Third.hh</text>
</a>
</g>
</g>
<!-- Node4&#45;&gt;Node11 -->
<g id="edge12" class="edge"><title>Node4&#45;&gt;Node11</title>
<path fill="none" stroke="midnightblue" d="M477.299,-363.869C456.7,-352.893 420.909,-333.824 396.723,-320.938"/>
<polygon fill="midnightblue" stroke="midnightblue" points="398.239,-317.78 387.768,-316.167 394.947,-323.958 398.239,-317.78"/>
</g>
<!-- Node12 -->
<g id="node12" class="node"><title>Node12</title>
<g id="a_node12"><a xlink:href="../../d1/dcf/AnalysisBase_8hh.html" target="_top" xlink:title="boca/analysis/AnalysisBase.hh">
<polygon fill="white" stroke="red" points="587,-297 587,-316 740,-316 740,-297 587,-297"/>
<text text-anchor="middle" x="663.5" y="-304" font-family="Helvetica,sans-Serif" font-size="10.00">boca/analysis/AnalysisBase.hh</text>
</a>
</g>
</g>
<!-- Node4&#45;&gt;Node12 -->
<g id="edge13" class="edge"><title>Node4&#45;&gt;Node12</title>
<path fill="none" stroke="midnightblue" d="M516.075,-363.869C545.75,-352.522 598.051,-332.525 631.717,-319.652"/>
<polygon fill="midnightblue" stroke="midnightblue" points="633.012,-322.904 641.103,-316.064 630.512,-316.366 633.012,-322.904"/>
</g>
<!-- Node23 -->
<g id="node23" class="node"><title>Node23</title>
<g id="a_node23"><a xlink:href="../../d1/d43/boca_2Event_8hh.html" target="_top" xlink:title="boca/Event.hh">
<polygon fill="white" stroke="red" points="1035.5,-297 1035.5,-316 1115.5,-316 1115.5,-297 1035.5,-297"/>
<text text-anchor="middle" x="1075.5" y="-304" font-family="Helvetica,sans-Serif" font-size="10.00">boca/Event.hh</text>
</a>
</g>
</g>
<!-- Node4&#45;&gt;Node23 -->
<g id="edge27" class="edge"><title>Node4&#45;&gt;Node23</title>
<path fill="none" stroke="midnightblue" d="M559.314,-367.124C654.3,-359.062 835.247,-342.567 988.5,-322 1000.48,-320.393 1013.33,-318.399 1025.39,-316.409"/>
<polygon fill="midnightblue" stroke="midnightblue" points="1026.02,-319.854 1035.3,-314.748 1024.86,-312.95 1026.02,-319.854"/>
</g>
<!-- Node7 -->
<g id="node7" class="node"><title>Node7</title>
<polygon fill="white" stroke="#bfbfbf" points="642,-0.5 642,-19.5 683,-19.5 683,-0.5 642,-0.5"/>
<text text-anchor="middle" x="662.5" y="-7.5" font-family="Helvetica,sans-Serif" font-size="10.00">string</text>
</g>
<!-- Node6&#45;&gt;Node7 -->
<g id="edge6" class="edge"><title>Node6&#45;&gt;Node7</title>
<path fill="none" stroke="midnightblue" d="M381.334,-235.404C381.491,-220.089 383.931,-187.83 400.5,-168 464.273,-91.6763 524.307,-134.834 604.5,-76 622.906,-62.4965 639.77,-42.3205 650.512,-28.0344"/>
<polygon fill="midnightblue" stroke="midnightblue" points="653.579,-29.7688 656.642,-19.6263 647.922,-25.6451 653.579,-29.7688"/>
</g>
<!-- Node8 -->
<g id="node8" class="node"><title>Node8</title>
<polygon fill="white" stroke="#bfbfbf" points="237.5,-174 237.5,-193 353.5,-193 353.5,-174 237.5,-174"/>
<text text-anchor="middle" x="295.5" y="-181" font-family="Helvetica,sans-Serif" font-size="10.00">boost/range/irange.hpp</text>
</g>
<!-- Node6&#45;&gt;Node8 -->
<g id="edge7" class="edge"><title>Node6&#45;&gt;Node8</title>
<path fill="none" stroke="midnightblue" d="M369.178,-235.475C355.384,-225.931 332.801,-210.307 316.268,-198.868"/>
<polygon fill="midnightblue" stroke="midnightblue" points="318.014,-195.82 307.799,-193.009 314.031,-201.577 318.014,-195.82"/>
</g>
<!-- Node9&#45;&gt;Node7 -->
<g id="edge9" class="edge"><title>Node9&#45;&gt;Node7</title>
<path fill="none" stroke="midnightblue" d="M645.912,-112.368C648.817,-94.617 655.518,-53.6664 659.457,-29.5974"/>
<polygon fill="midnightblue" stroke="midnightblue" points="662.933,-30.0254 661.094,-19.5914 656.025,-28.8949 662.933,-30.0254"/>
</g>
<!-- Node10&#45;&gt;Node6 -->
<g id="edge11" class="edge"><title>Node10&#45;&gt;Node6</title>
<path fill="none" stroke="midnightblue" d="M255.562,-296.975C280.559,-286.857 322.442,-269.905 350.987,-258.351"/>
<polygon fill="midnightblue" stroke="midnightblue" points="352.521,-261.505 360.478,-254.509 349.895,-255.017 352.521,-261.505"/>
</g>
<!-- Node13 -->
<g id="node13" class="node"><title>Node13</title>
<g id="a_node13"><a xlink:href="../../da/d59/PreCuts_8hh.html" target="_top" xlink:title="boca/PreCuts.hh">
<polygon fill="white" stroke="black" points="618.5,-235.5 618.5,-254.5 708.5,-254.5 708.5,-235.5 618.5,-235.5"/>
<text text-anchor="middle" x="663.5" y="-242.5" font-family="Helvetica,sans-Serif" font-size="10.00">boca/PreCuts.hh</text>
</a>
</g>
</g>
<!-- Node12&#45;&gt;Node13 -->
<g id="edge14" class="edge"><title>Node12&#45;&gt;Node13</title>
<path fill="none" stroke="midnightblue" d="M663.5,-296.975C663.5,-288.58 663.5,-275.481 663.5,-264.663"/>
<polygon fill="midnightblue" stroke="midnightblue" points="667,-264.509 663.5,-254.509 660,-264.509 667,-264.509"/>
</g>
<!-- Node14 -->
<g id="node14" class="node"><title>Node14</title>
<g id="a_node14"><a xlink:href="../../d6/dcd/Range_8hh.html" target="_top" xlink:title="boca/physics/Range.hh">
<polygon fill="white" stroke="red" points="477,-56.5 477,-75.5 596,-75.5 596,-56.5 477,-56.5"/>
<text text-anchor="middle" x="536.5" y="-63.5" font-family="Helvetica,sans-Serif" font-size="10.00">boca/physics/Range.hh</text>
</a>
</g>
</g>
<!-- Node13&#45;&gt;Node14 -->
<g id="edge15" class="edge"><title>Node13&#45;&gt;Node14</title>
<path fill="none" stroke="midnightblue" d="M651.569,-235.295C640.544,-226.854 624.156,-213.264 612.5,-199 582.218,-161.942 556.769,-111.311 544.454,-84.8174"/>
<polygon fill="midnightblue" stroke="midnightblue" points="547.598,-83.2765 540.263,-75.6312 541.229,-86.1819 547.598,-83.2765"/>
</g>
<!-- Node15 -->
<g id="node15" class="node"><title>Node15</title>
<g id="a_node15"><a xlink:href="../../d4/d5f/PreCut_8hh.html" target="_top" xlink:title="boca/PreCut.hh">
<polygon fill="white" stroke="black" points="622,-174 622,-193 707,-193 707,-174 622,-174"/>
<text text-anchor="middle" x="664.5" y="-181" font-family="Helvetica,sans-Serif" font-size="10.00">boca/PreCut.hh</text>
</a>
</g>
</g>
<!-- Node13&#45;&gt;Node15 -->
<g id="edge16" class="edge"><title>Node13&#45;&gt;Node15</title>
<path fill="none" stroke="midnightblue" d="M663.643,-235.475C663.784,-227.08 664.005,-213.981 664.186,-203.163"/>
<polygon fill="midnightblue" stroke="midnightblue" points="667.688,-203.067 664.357,-193.009 660.689,-202.949 667.688,-203.067"/>
</g>
<!-- Node18 -->
<g id="node18" class="node"><title>Node18</title>
<g id="a_node18"><a xlink:href="../../d3/d7e/Vector_8hh.html" target="_top" xlink:title="boca/generic/Vector.hh">
<polygon fill="white" stroke="red" points="410,-174 410,-193 527,-193 527,-174 410,-174"/>
<text text-anchor="middle" x="468.5" y="-181" font-family="Helvetica,sans-Serif" font-size="10.00">boca/generic/Vector.hh</text>
</a>
</g>
</g>
<!-- Node13&#45;&gt;Node18 -->
<g id="edge20" class="edge"><title>Node13&#45;&gt;Node18</title>
<path fill="none" stroke="midnightblue" d="M635.561,-235.475C601.533,-225.092 543.916,-207.512 506.038,-195.954"/>
<polygon fill="midnightblue" stroke="midnightblue" points="506.973,-192.58 496.387,-193.009 504.93,-199.275 506.973,-192.58"/>
</g>
<!-- Node16 -->
<g id="node16" class="node"><title>Node16</title>
<polygon fill="white" stroke="#bfbfbf" points="862,-112.5 862,-131.5 897,-131.5 897,-112.5 862,-112.5"/>
<text text-anchor="middle" x="879.5" y="-119.5" font-family="Helvetica,sans-Serif" font-size="10.00">map</text>
</g>
<!-- Node15&#45;&gt;Node16 -->
<g id="edge17" class="edge"><title>Node15&#45;&gt;Node16</title>
<path fill="none" stroke="midnightblue" d="M695.304,-173.975C737.389,-162.328 812.196,-141.626 852.307,-130.526"/>
<polygon fill="midnightblue" stroke="midnightblue" points="853.244,-133.898 861.948,-127.857 851.377,-127.151 853.244,-133.898"/>
</g>
<!-- Node17 -->
<g id="node17" class="node"><title>Node17</title>
<g id="a_node17"><a xlink:href="../../d2/d29/Id_8hh.html" target="_top" xlink:title="boca/physics/Id.hh">
<polygon fill="white" stroke="red" points="699,-112.5 699,-131.5 798,-131.5 798,-112.5 699,-112.5"/>
<text text-anchor="middle" x="748.5" y="-119.5" font-family="Helvetica,sans-Serif" font-size="10.00">boca/physics/Id.hh</text>
</a>
</g>
</g>
<!-- Node15&#45;&gt;Node17 -->
<g id="edge18" class="edge"><title>Node15&#45;&gt;Node17</title>
<path fill="none" stroke="midnightblue" d="M676.535,-173.975C690.008,-164.431 712.066,-148.807 728.215,-137.368"/>
<polygon fill="midnightblue" stroke="midnightblue" points="730.35,-140.145 736.487,-131.509 726.304,-134.433 730.35,-140.145"/>
</g>
<!-- Node17&#45;&gt;Node7 -->
<g id="edge19" class="edge"><title>Node17&#45;&gt;Node7</title>
<path fill="none" stroke="midnightblue" d="M741.752,-112.368C727.496,-94.135 694.106,-51.4257 675.537,-27.6752"/>
<polygon fill="midnightblue" stroke="midnightblue" points="678.134,-25.3138 669.217,-19.5914 672.619,-29.6253 678.134,-25.3138"/>
</g>
<!-- Node18&#45;&gt;Node19 -->
<g id="edge21" class="edge"><title>Node18&#45;&gt;Node19</title>
<path fill="none" stroke="midnightblue" d="M448.585,-173.975C425.051,-163.901 385.69,-147.053 358.707,-135.502"/>
<polygon fill="midnightblue" stroke="midnightblue" points="359.949,-132.227 349.378,-131.509 357.194,-138.662 359.949,-132.227"/>
</g>
<!-- Node19&#45;&gt;Node14 -->
<g id="edge23" class="edge"><title>Node19&#45;&gt;Node14</title>
<path fill="none" stroke="midnightblue" d="M362.3,-112.444C397.88,-103.162 454.814,-88.3093 493.847,-78.127"/>
<polygon fill="midnightblue" stroke="midnightblue" points="495.061,-81.4274 503.854,-75.5164 493.294,-74.6541 495.061,-81.4274"/>
</g>
<!-- Node20 -->
<g id="node20" class="node"><title>Node20</title>
<g id="a_node20"><a xlink:href="../../df/de2/InfoRecombiner_8hh.html" target="_top" xlink:title="boca/fastjet/InfoRecombiner.hh">
<polygon fill="white" stroke="red" points="195,-56.5 195,-75.5 348,-75.5 348,-56.5 195,-56.5"/>
<text text-anchor="middle" x="271.5" y="-63.5" font-family="Helvetica,sans-Serif" font-size="10.00">boca/fastjet/InfoRecombiner.hh</text>
</a>
</g>
</g>
<!-- Node19&#45;&gt;Node20 -->
<g id="edge22" class="edge"><title>Node19&#45;&gt;Node20</title>
<path fill="none" stroke="midnightblue" d="M320.181,-112.324C311.607,-104.341 298.688,-92.3128 288.312,-82.6529"/>
<polygon fill="midnightblue" stroke="midnightblue" points="290.692,-80.0865 280.988,-75.8339 285.922,-85.2098 290.692,-80.0865"/>
</g>
<!-- Node21 -->
<g id="node21" class="node"><title>Node21</title>
<g id="a_node21"><a xlink:href="../../d5/d48/Souce_8hh.html" target="_top" xlink:title="boca/io/Souce.hh">
<polygon fill="white" stroke="black" points="366.5,-56.5 366.5,-75.5 458.5,-75.5 458.5,-56.5 366.5,-56.5"/>
<text text-anchor="middle" x="412.5" y="-63.5" font-family="Helvetica,sans-Serif" font-size="10.00">boca/io/Souce.hh</text>
</a>
</g>
</g>
<!-- Node19&#45;&gt;Node21 -->
<g id="edge24" class="edge"><title>Node19&#45;&gt;Node21</title>
<path fill="none" stroke="midnightblue" d="M342.835,-112.324C355.662,-103.979 375.285,-91.2122 390.44,-81.3524"/>
<polygon fill="midnightblue" stroke="midnightblue" points="392.724,-84.0417 399.198,-75.6545 388.907,-78.1742 392.724,-84.0417"/>
</g>
<!-- Node22 -->
<g id="node22" class="node"><title>Node22</title>
<g id="a_node22"><a xlink:href="../../da/dc5/Font_8hh.html" target="_top" xlink:title="boca/plotting/Font.hh">
<polygon fill="white" stroke="red" points="68.5,-56.5 68.5,-75.5 176.5,-75.5 176.5,-56.5 68.5,-56.5"/>
<text text-anchor="middle" x="122.5" y="-63.5" font-family="Helvetica,sans-Serif" font-size="10.00">boca/plotting/Font.hh</text>
</a>
</g>
</g>
<!-- Node19&#45;&gt;Node22 -->
<g id="edge26" class="edge"><title>Node19&#45;&gt;Node22</title>
<path fill="none" stroke="midnightblue" d="M296.7,-112.444C261.12,-103.162 204.186,-88.3093 165.153,-78.127"/>
<polygon fill="midnightblue" stroke="midnightblue" points="165.706,-74.6541 155.146,-75.5164 163.939,-81.4274 165.706,-74.6541"/>
</g>
<!-- Node21&#45;&gt;Node7 -->
<g id="edge25" class="edge"><title>Node21&#45;&gt;Node7</title>
<path fill="none" stroke="midnightblue" d="M452.113,-56.4435C502.057,-45.6558 586.835,-27.3435 632.02,-17.5837"/>
<polygon fill="midnightblue" stroke="midnightblue" points="632.787,-20.9987 641.823,-15.4662 631.309,-14.1565 632.787,-20.9987"/>
</g>
<!-- Node24 -->
<g id="node24" class="node"><title>Node24</title>
<g id="a_node24"><a xlink:href="../../dd/df7/Jet_8hh.html" target="_top" xlink:title="boca/multiplets/Jet.hh">
<polygon fill="white" stroke="red" points="1630,-235.5 1630,-254.5 1743,-254.5 1743,-235.5 1630,-235.5"/>
<text text-anchor="middle" x="1686.5" y="-242.5" font-family="Helvetica,sans-Serif" font-size="10.00">boca/multiplets/Jet.hh</text>
</a>
</g>
</g>
<!-- Node23&#45;&gt;Node24 -->
<g id="edge28" class="edge"><title>Node23&#45;&gt;Node24</title>
<path fill="none" stroke="midnightblue" d="M1115.68,-298.118C1130.38,-295.599 1147.16,-292.934 1162.5,-291 1326.11,-270.373 1519.68,-256.453 1619.5,-250.043"/>
<polygon fill="midnightblue" stroke="midnightblue" points="1619.98,-253.519 1629.74,-249.391 1619.54,-246.533 1619.98,-253.519"/>
</g>
<!-- Node26 -->
<g id="node26" class="node"><title>Node26</title>
<g id="a_node26"><a xlink:href="../../d8/de8/Debug_8hh.html" target="_top" xlink:title="boca/generic/Debug.hh">
<polygon fill="white" stroke="red" points="0,-235.5 0,-254.5 117,-254.5 117,-235.5 0,-235.5"/>
<text text-anchor="middle" x="58.5" y="-242.5" font-family="Helvetica,sans-Serif" font-size="10.00">boca/generic/Debug.hh</text>
</a>
</g>
</g>
<!-- Node25&#45;&gt;Node26 -->
<g id="edge31" class="edge"><title>Node25&#45;&gt;Node26</title>
<path fill="none" stroke="midnightblue" d="M60.2783,-358.479C59.9185,-335.719 59.2068,-290.702 58.8013,-265.058"/>
<polygon fill="midnightblue" stroke="midnightblue" points="62.2967,-264.732 58.6389,-254.789 55.2976,-264.843 62.2967,-264.732"/>
</g>
<!-- Node26&#45;&gt;Node7 -->
<g id="edge32" class="edge"><title>Node26&#45;&gt;Node7</title>
<path fill="none" stroke="midnightblue" d="M55.0428,-235.44C43.7574,-205.948 11.4018,-107.546 59.5,-56 98.8271,-13.8541 514.557,-10.903 631.848,-10.9149"/>
<polygon fill="midnightblue" stroke="midnightblue" points="631.936,-14.4149 641.939,-10.9236 631.942,-7.41488 631.936,-14.4149"/>
</g>
<!-- Node28 -->
<g id="node28" class="node"><title>Node28</title>
<g id="a_node28"><a xlink:href="../../d4/dee/boca_2tagger_2Tagger_8hh.html" target="_top" xlink:title="boca/tagger/Tagger.hh">
<polygon fill="white" stroke="black" points="865.5,-297 865.5,-316 979.5,-316 979.5,-297 865.5,-297"/>
<text text-anchor="middle" x="922.5" y="-304" font-family="Helvetica,sans-Serif" font-size="10.00">boca/tagger/Tagger.hh</text>
</a>
</g>
</g>
<!-- Node27&#45;&gt;Node28 -->
<g id="edge34" class="edge"><title>Node27&#45;&gt;Node28</title>
<path fill="none" stroke="midnightblue" d="M1327.75,-428.367C1267.9,-422.36 1180.34,-410.627 1106.5,-389 1047.04,-371.585 981.67,-339.191 947.106,-320.926"/>
<polygon fill="midnightblue" stroke="midnightblue" points="948.674,-317.796 938.204,-316.173 945.377,-323.971 948.674,-317.796"/>
</g>
<!-- Node39 -->
<g id="node39" class="node"><title>Node39</title>
<g id="a_node39"><a xlink:href="../../db/d40/tagger_2Bottom_8hh.html" target="_top" xlink:title="boca/standardmodel\l/tagger/Bottom.hh">
<polygon fill="white" stroke="black" points="1560.5,-358.5 1560.5,-388.5 1664.5,-388.5 1664.5,-358.5 1560.5,-358.5"/>
<text text-anchor="start" x="1568.5" y="-376.5" font-family="Helvetica,sans-Serif" font-size="10.00">boca/standardmodel</text>
<text text-anchor="middle" x="1612.5" y="-365.5" font-family="Helvetica,sans-Serif" font-size="10.00">/tagger/Bottom.hh</text>
</a>
</g>
</g>
<!-- Node27&#45;&gt;Node39 -->
<g id="edge52" class="edge"><title>Node27&#45;&gt;Node39</title>
<path fill="none" stroke="midnightblue" d="M1429.16,-425.475C1461.19,-416.569 1512.27,-402.369 1552.38,-391.215"/>
<polygon fill="midnightblue" stroke="midnightblue" points="1553.37,-394.574 1562.06,-388.523 1551.49,-387.83 1553.37,-394.574"/>
</g>
<!-- Node43 -->
<g id="node43" class="node"><title>Node43</title>
<g id="a_node43"><a xlink:href="../../df/d2c/Reader_8hh.html" target="_top" xlink:title="boca/multivariant/Reader.hh">
<polygon fill="white" stroke="black" points="1115,-364 1115,-383 1254,-383 1254,-364 1115,-364"/>
<text text-anchor="middle" x="1184.5" y="-371" font-family="Helvetica,sans-Serif" font-size="10.00">boca/multivariant/Reader.hh</text>
</a>
</g>
</g>
<!-- Node27&#45;&gt;Node43 -->
<g id="edge59" class="edge"><title>Node27&#45;&gt;Node43</title>
<path fill="none" stroke="midnightblue" d="M1367.84,-425.475C1330.26,-415.026 1266.46,-397.287 1224.9,-385.733"/>
<polygon fill="midnightblue" stroke="midnightblue" points="1225.68,-382.316 1215.1,-383.009 1223.8,-389.06 1225.68,-382.316"/>
</g>
<!-- Node47 -->
<g id="node47" class="node"><title>Node47</title>
<g id="a_node47"><a xlink:href="../../de/db5/CutVariables_8hh.html" target="_top" xlink:title="include/CutVariables.hh">
<polygon fill="white" stroke="black" points="2144.5,-364 2144.5,-383 2264.5,-383 2264.5,-364 2144.5,-364"/>
<text text-anchor="middle" x="2204.5" y="-371" font-family="Helvetica,sans-Serif" font-size="10.00">include/CutVariables.hh</text>
</a>
</g>
</g>
<!-- Node27&#45;&gt;Node47 -->
<g id="edge68" class="edge"><title>Node27&#45;&gt;Node47</title>
<path fill="none" stroke="midnightblue" d="M1469.18,-431.135C1595.64,-425.636 1868.88,-412.055 2098.5,-389 2111.19,-387.726 2124.69,-386.093 2137.66,-384.384"/>
<polygon fill="midnightblue" stroke="midnightblue" points="2138.48,-387.806 2147.93,-383.004 2137.55,-380.868 2138.48,-387.806"/>
</g>
<!-- Node48 -->
<g id="node48" class="node"><title>Node48</title>
<g id="a_node48"><a xlink:href="../../d1/db9/branch_2CutNeutral_8hh.html" target="_top" xlink:title="include/branch/CutNeutral.hh">
<polygon fill="white" stroke="black" points="1946,-364 1946,-383 2089,-383 2089,-364 1946,-364"/>
<text text-anchor="middle" x="2017.5" y="-371" font-family="Helvetica,sans-Serif" font-size="10.00">include/branch/CutNeutral.hh</text>
</a>
</g>
</g>
<!-- Node27&#45;&gt;Node48 -->
<g id="edge70" class="edge"><title>Node27&#45;&gt;Node48</title>
<path fill="none" stroke="midnightblue" d="M1469.21,-427.204C1584.76,-416.097 1813.41,-394.118 1935.75,-382.358"/>
<polygon fill="midnightblue" stroke="midnightblue" points="1936.19,-385.832 1945.81,-381.391 1935.52,-378.864 1936.19,-385.832"/>
</g>
<!-- Node28&#45;&gt;Node6 -->
<g id="edge35" class="edge"><title>Node28&#45;&gt;Node6</title>
<path fill="none" stroke="midnightblue" d="M865.371,-299.217C764.988,-288.177 557.408,-265.347 449.69,-253.5"/>
<polygon fill="midnightblue" stroke="midnightblue" points="449.907,-250.003 439.585,-252.388 449.142,-256.961 449.907,-250.003"/>
</g>
<!-- Node28&#45;&gt;Node13 -->
<g id="edge47" class="edge"><title>Node28&#45;&gt;Node13</title>
<path fill="none" stroke="midnightblue" d="M885.392,-296.975C839.329,-286.393 760.726,-268.336 710.497,-256.797"/>
<polygon fill="midnightblue" stroke="midnightblue" points="711.069,-253.337 700.54,-254.509 709.502,-260.159 711.069,-253.337"/>
</g>
<!-- Node28&#45;&gt;Node26 -->
<g id="edge51" class="edge"><title>Node28&#45;&gt;Node26</title>
<path fill="none" stroke="midnightblue" d="M865.312,-300.473C831.374,-297.555 787.496,-293.896 748.5,-291 521.145,-274.115 251.387,-257.517 127.257,-250.073"/>
<polygon fill="midnightblue" stroke="midnightblue" points="127.33,-246.571 117.138,-249.467 126.911,-253.558 127.33,-246.571"/>
</g>
<!-- Node29 -->
<g id="node29" class="node"><title>Node29</title>
<g id="a_node29"><a xlink:href="../../db/d31/Sort_8hh.html" target="_top" xlink:title="boca/multiplets/Sort.hh">
<polygon fill="white" stroke="black" points="849,-235.5 849,-254.5 966,-254.5 966,-235.5 849,-235.5"/>
<text text-anchor="middle" x="907.5" y="-242.5" font-family="Helvetica,sans-Serif" font-size="10.00">boca/multiplets/Sort.hh</text>
</a>
</g>
</g>
<!-- Node28&#45;&gt;Node29 -->
<g id="edge36" class="edge"><title>Node28&#45;&gt;Node29</title>
<path fill="none" stroke="midnightblue" d="M920.351,-296.975C918.212,-288.492 914.862,-275.204 912.119,-264.322"/>
<polygon fill="midnightblue" stroke="midnightblue" points="915.484,-263.35 909.645,-254.509 908.696,-265.061 915.484,-263.35"/>
</g>
<!-- Node32 -->
<g id="node32" class="node"><title>Node32</title>
<g id="a_node32"><a xlink:href="../../d8/d9e/TreeBranch_8hh.html" target="_top" xlink:title="boca/io/TreeBranch.hh">
<polygon fill="white" stroke="black" points="1372,-235.5 1372,-254.5 1487,-254.5 1487,-235.5 1372,-235.5"/>
<text text-anchor="middle" x="1429.5" y="-242.5" font-family="Helvetica,sans-Serif" font-size="10.00">boca/io/TreeBranch.hh</text>
</a>
</g>
</g>
<!-- Node28&#45;&gt;Node32 -->
<g id="edge40" class="edge"><title>Node28&#45;&gt;Node32</title>
<path fill="none" stroke="midnightblue" d="M979.68,-297.242C994.886,-295.124 1011.31,-292.907 1026.5,-291 1144.23,-276.223 1281.62,-261.398 1361.75,-252.994"/>
<polygon fill="midnightblue" stroke="midnightblue" points="1362.13,-256.473 1371.71,-251.951 1361.4,-249.511 1362.13,-256.473"/>
</g>
<!-- Node34 -->
<g id="node34" class="node"><title>Node34</title>
<g id="a_node34"><a xlink:href="../../dd/d01/tagger_2Base_8hh.html" target="_top" xlink:title="boca/tagger/Base.hh">
<polygon fill="white" stroke="black" points="1023,-235.5 1023,-254.5 1130,-254.5 1130,-235.5 1023,-235.5"/>
<text text-anchor="middle" x="1076.5" y="-242.5" font-family="Helvetica,sans-Serif" font-size="10.00">boca/tagger/Base.hh</text>
</a>
</g>
</g>
<!-- Node28&#45;&gt;Node34 -->
<g id="edge43" class="edge"><title>Node28&#45;&gt;Node34</title>
<path fill="none" stroke="midnightblue" d="M944.564,-296.975C970.867,-286.813 1015.01,-269.756 1044.92,-258.2"/>
<polygon fill="midnightblue" stroke="midnightblue" points="1046.41,-261.378 1054.48,-254.509 1043.89,-254.848 1046.41,-261.378"/>
</g>
<!-- Node38 -->
<g id="node38" class="node"><title>Node38</title>
<g id="a_node38"><a xlink:href="../../de/df0/Filter_8hh.html" target="_top" xlink:title="boca/Filter.hh">
<polygon fill="white" stroke="red" points="1023.5,-174 1023.5,-193 1099.5,-193 1099.5,-174 1023.5,-174"/>
<text text-anchor="middle" x="1061.5" y="-181" font-family="Helvetica,sans-Serif" font-size="10.00">boca/Filter.hh</text>
</a>
</g>
</g>
<!-- Node28&#45;&gt;Node38 -->
<g id="edge48" class="edge"><title>Node28&#45;&gt;Node38</title>
<path fill="none" stroke="midnightblue" d="M932.497,-296.798C955.839,-276.478 1014.19,-225.686 1043.74,-199.957"/>
<polygon fill="midnightblue" stroke="midnightblue" points="1046.35,-202.329 1051.59,-193.123 1041.75,-197.049 1046.35,-202.329"/>
</g>
<!-- Node29&#45;&gt;Node17 -->
<g id="edge39" class="edge"><title>Node29&#45;&gt;Node17</title>
<path fill="none" stroke="midnightblue" d="M848.896,-242.289C815.982,-238.029 777.095,-226.84 754.5,-199 741.624,-183.135 742.096,-158.767 744.499,-141.921"/>
<polygon fill="midnightblue" stroke="midnightblue" points="748.019,-142.116 746.331,-131.656 741.128,-140.886 748.019,-142.116"/>
</g>
<!-- Node30 -->
<g id="node30" class="node"><title>Node30</title>
<polygon fill="white" stroke="#bfbfbf" points="763.5,-168.5 763.5,-198.5 873.5,-198.5 873.5,-168.5 763.5,-168.5"/>
<text text-anchor="start" x="771.5" y="-186.5" font-family="Helvetica,sans-Serif" font-size="10.00">boost/range/algorithm</text>
<text text-anchor="middle" x="818.5" y="-175.5" font-family="Helvetica,sans-Serif" font-size="10.00">/sort.hpp</text>
</g>
<!-- Node29&#45;&gt;Node30 -->
<g id="edge37" class="edge"><title>Node29&#45;&gt;Node30</title>
<path fill="none" stroke="midnightblue" d="M894.748,-235.475C882.582,-227.341 863.809,-214.791 847.935,-204.179"/>
<polygon fill="midnightblue" stroke="midnightblue" points="849.734,-201.171 839.476,-198.523 845.844,-206.99 849.734,-201.171"/>
</g>
<!-- Node31 -->
<g id="node31" class="node"><title>Node31</title>
<polygon fill="white" stroke="#bfbfbf" points="892,-174 892,-193 1005,-193 1005,-174 892,-174"/>
<text text-anchor="middle" x="948.5" y="-181" font-family="Helvetica,sans-Serif" font-size="10.00">boost/units/cmath.hpp</text>
</g>
<!-- Node29&#45;&gt;Node31 -->
<g id="edge38" class="edge"><title>Node29&#45;&gt;Node31</title>
<path fill="none" stroke="midnightblue" d="M913.374,-235.475C919.463,-226.638 929.145,-212.589 936.803,-201.475"/>
<polygon fill="midnightblue" stroke="midnightblue" points="939.844,-203.229 942.637,-193.009 934.08,-199.258 939.844,-203.229"/>
</g>
<!-- Node32&#45;&gt;Node7 -->
<g id="edge41" class="edge"><title>Node32&#45;&gt;Node7</title>
<path fill="none" stroke="midnightblue" d="M1447,-235.465C1460.29,-227.917 1477.58,-215.533 1485.5,-199 1491.45,-186.576 1494.28,-178.616 1485.5,-168 1381.8,-42.6452 830.947,-16.4869 693.56,-11.8809"/>
<polygon fill="midnightblue" stroke="midnightblue" points="693.433,-8.37509 683.325,-11.5526 693.208,-15.3715 693.433,-8.37509"/>
</g>
<!-- Node33 -->
<g id="node33" class="node"><title>Node33</title>
<polygon fill="white" stroke="#bfbfbf" points="1533,-174 1533,-193 1618,-193 1618,-174 1533,-174"/>
<text text-anchor="middle" x="1575.5" y="-181" font-family="Helvetica,sans-Serif" font-size="10.00">TClonesArray.h</text>
</g>
<!-- Node32&#45;&gt;Node33 -->
<g id="edge42" class="edge"><title>Node32&#45;&gt;Node33</title>
<path fill="none" stroke="midnightblue" d="M1450.42,-235.475C1475.25,-225.357 1516.84,-208.405 1545.19,-196.851"/>
<polygon fill="midnightblue" stroke="midnightblue" points="1546.68,-200.024 1554.62,-193.009 1544.04,-193.542 1546.68,-200.024"/>
</g>
<!-- Node35 -->
<g id="node35" class="node"><title>Node35</title>
<polygon fill="white" stroke="#bfbfbf" points="1240,-174 1240,-193 1323,-193 1323,-174 1240,-174"/>
<text text-anchor="middle" x="1281.5" y="-181" font-family="Helvetica,sans-Serif" font-size="10.00">TMVA/Types.h</text>
</g>
<!-- Node34&#45;&gt;Node35 -->
<g id="edge44" class="edge"><title>Node34&#45;&gt;Node35</title>
<path fill="none" stroke="midnightblue" d="M1105.87,-235.475C1141.8,-225.048 1202.73,-207.362 1242.54,-195.807"/>
<polygon fill="midnightblue" stroke="midnightblue" points="1243.55,-199.158 1252.18,-193.009 1241.6,-192.435 1243.55,-199.158"/>
</g>
<!-- Node36 -->
<g id="node36" class="node"><title>Node36</title>
<g id="a_node36"><a xlink:href="../../de/d1f/Observable_8hh.html" target="_top" xlink:title="boca/Observable.hh">
<polygon fill="white" stroke="red" points="1117.5,-174 1117.5,-193 1221.5,-193 1221.5,-174 1117.5,-174"/>
<text text-anchor="middle" x="1169.5" y="-181" font-family="Helvetica,sans-Serif" font-size="10.00">boca/Observable.hh</text>
</a>
</g>
</g>
<!-- Node34&#45;&gt;Node36 -->
<g id="edge45" class="edge"><title>Node34&#45;&gt;Node36</title>
<path fill="none" stroke="midnightblue" d="M1089.82,-235.475C1104.88,-225.843 1129.62,-210.017 1147.54,-198.552"/>
<polygon fill="midnightblue" stroke="midnightblue" points="1149.66,-201.347 1156.2,-193.009 1145.89,-195.45 1149.66,-201.347"/>
</g>
<!-- Node37 -->
<g id="node37" class="node"><title>Node37</title>
<g id="a_node37"><a xlink:href="../../df/d31/Phase_8hh.html" target="_top" xlink:title="boca/multivariant/Phase.hh">
<polygon fill="white" stroke="red" points="1341,-174 1341,-193 1476,-193 1476,-174 1341,-174"/>
<text text-anchor="middle" x="1408.5" y="-181" font-family="Helvetica,sans-Serif" font-size="10.00">boca/multivariant/Phase.hh</text>
</a>
</g>
</g>
<!-- Node34&#45;&gt;Node37 -->
<g id="edge46" class="edge"><title>Node34&#45;&gt;Node37</title>
<path fill="none" stroke="midnightblue" d="M1126.57,-235.419C1178.21,-226.519 1261.04,-212.097 1332.5,-199 1339.59,-197.701 1347.04,-196.311 1354.39,-194.923"/>
<polygon fill="midnightblue" stroke="midnightblue" points="1355.14,-198.344 1364.31,-193.043 1353.84,-191.466 1355.14,-198.344"/>
</g>
<!-- Node38&#45;&gt;Node7 -->
<g id="edge49" class="edge"><title>Node38&#45;&gt;Node7</title>
<path fill="none" stroke="midnightblue" d="M1042.85,-173.85C1013.67,-160.367 955.399,-133.639 905.5,-112 829.158,-78.8935 738.442,-41.7706 692.449,-23.1044"/>
<polygon fill="midnightblue" stroke="midnightblue" points="693.653,-19.8158 683.071,-19.3025 691.023,-26.3031 693.653,-19.8158"/>
</g>
<!-- Node38&#45;&gt;Node16 -->
<g id="edge50" class="edge"><title>Node38&#45;&gt;Node16</title>
<path fill="none" stroke="midnightblue" d="M1035.42,-173.975C1001.31,-162.822 941.789,-143.364 906.989,-131.987"/>
<polygon fill="midnightblue" stroke="midnightblue" points="907.63,-128.514 897.037,-128.733 905.455,-135.168 907.63,-128.514"/>
</g>
<!-- Node39&#45;&gt;Node28 -->
<g id="edge55" class="edge"><title>Node39&#45;&gt;Node28</title>
<path fill="none" stroke="midnightblue" d="M1560.28,-368.925C1457.77,-361.704 1223.1,-344.161 1026.5,-322 1014.61,-320.66 1001.98,-319.054 989.778,-317.407"/>
<polygon fill="midnightblue" stroke="midnightblue" points="990.032,-313.909 979.649,-316.018 989.081,-320.844 990.032,-313.909"/>
</g>
<!-- Node40 -->
<g id="node40" class="node"><title>Node40</title>
<g id="a_node40"><a xlink:href="../../db/d60/Singlet_8hh.html" target="_top" xlink:title="boca/multiplets/Singlet.hh">
<polygon fill="white" stroke="red" points="1697,-297 1697,-316 1826,-316 1826,-297 1697,-297"/>
<text text-anchor="middle" x="1761.5" y="-304" font-family="Helvetica,sans-Serif" font-size="10.00">boca/multiplets/Singlet.hh</text>
</a>
</g>
</g>
<!-- Node39&#45;&gt;Node40 -->
<g id="edge53" class="edge"><title>Node39&#45;&gt;Node40</title>
<path fill="none" stroke="midnightblue" d="M1644.83,-358.396C1670.97,-346.991 1707.45,-331.079 1732.62,-320.098"/>
<polygon fill="midnightblue" stroke="midnightblue" points="1734.23,-323.214 1742,-316.007 1731.43,-316.798 1734.23,-323.214"/>
</g>
<!-- Node41 -->
<g id="node41" class="node"><title>Node41</title>
<g id="a_node41"><a xlink:href="../../dc/d97/branch_2Bottom_8hh.html" target="_top" xlink:title="boca/standardmodel\l/branch/Bottom.hh">
<polygon fill="white" stroke="red" points="1844.5,-291.5 1844.5,-321.5 1948.5,-321.5 1948.5,-291.5 1844.5,-291.5"/>
<text text-anchor="start" x="1852.5" y="-309.5" font-family="Helvetica,sans-Serif" font-size="10.00">boca/standardmodel</text>
<text text-anchor="middle" x="1896.5" y="-298.5" font-family="Helvetica,sans-Serif" font-size="10.00">/branch/Bottom.hh</text>
</a>
</g>
</g>
<!-- Node39&#45;&gt;Node41 -->
<g id="edge56" class="edge"><title>Node39&#45;&gt;Node41</title>
<path fill="none" stroke="midnightblue" d="M1664.8,-360.821C1707.81,-351.18 1770.61,-337.017 1834.43,-322.236"/>
<polygon fill="midnightblue" stroke="midnightblue" points="1835.31,-325.624 1844.27,-319.955 1833.73,-318.805 1835.31,-325.624"/>
</g>
<!-- Node42 -->
<g id="node42" class="node"><title>Node42</title>
<g id="a_node42"><a xlink:href="../../d1/d7d/MuXboostedBTagging_8hh.html" target="_top" xlink:title="boca/external/MuXboosted\lBTagging.hh">
<polygon fill="white" stroke="black" points="1546,-291.5 1546,-321.5 1679,-321.5 1679,-291.5 1546,-291.5"/>
<text text-anchor="start" x="1554" y="-309.5" font-family="Helvetica,sans-Serif" font-size="10.00">boca/external/MuXboosted</text>
<text text-anchor="middle" x="1612.5" y="-298.5" font-family="Helvetica,sans-Serif" font-size="10.00">BTagging.hh</text>
</a>
</g>
</g>
<!-- Node39&#45;&gt;Node42 -->
<g id="edge57" class="edge"><title>Node39&#45;&gt;Node42</title>
<path fill="none" stroke="midnightblue" d="M1612.5,-358.396C1612.5,-350.645 1612.5,-340.812 1612.5,-331.86"/>
<polygon fill="midnightblue" stroke="midnightblue" points="1616,-331.576 1612.5,-321.577 1609,-331.577 1616,-331.576"/>
</g>
<!-- Node40&#45;&gt;Node24 -->
<g id="edge54" class="edge"><title>Node40&#45;&gt;Node24</title>
<path fill="none" stroke="midnightblue" d="M1750.75,-296.975C1738.95,-287.608 1719.76,-272.384 1705.42,-261.008"/>
<polygon fill="midnightblue" stroke="midnightblue" points="1707.24,-257.982 1697.23,-254.509 1702.88,-263.466 1707.24,-257.982"/>
</g>
<!-- Node42&#45;&gt;Node24 -->
<g id="edge58" class="edge"><title>Node42&#45;&gt;Node24</title>
<path fill="none" stroke="midnightblue" d="M1630.04,-291.399C1641.34,-282.308 1656.04,-270.49 1667.61,-261.191"/>
<polygon fill="midnightblue" stroke="midnightblue" points="1670.13,-263.652 1675.73,-254.658 1665.75,-258.196 1670.13,-263.652"/>
</g>
<!-- Node43&#45;&gt;Node13 -->
<g id="edge66" class="edge"><title>Node43&#45;&gt;Node13</title>
<path fill="none" stroke="midnightblue" d="M1114.78,-366.306C1047.73,-359.29 943.962,-345.637 856.5,-322 795.388,-305.484 727.199,-275.814 690.469,-258.843"/>
<polygon fill="midnightblue" stroke="midnightblue" points="691.945,-255.67 681.403,-254.616 688.987,-262.014 691.945,-255.67"/>
</g>
<!-- Node43&#45;&gt;Node23 -->
<g id="edge67" class="edge"><title>Node43&#45;&gt;Node23</title>
<path fill="none" stroke="midnightblue" d="M1169.8,-363.734C1151.58,-352.867 1120.3,-334.216 1098.8,-321.393"/>
<polygon fill="midnightblue" stroke="midnightblue" points="1100.35,-318.243 1089.97,-316.127 1096.76,-324.255 1100.35,-318.243"/>
</g>
<!-- Node43&#45;&gt;Node29 -->
<g id="edge64" class="edge"><title>Node43&#45;&gt;Node29</title>
<path fill="none" stroke="midnightblue" d="M1143.87,-363.966C1110.92,-356.019 1063.97,-342.315 1026.5,-322 1007.34,-311.611 1006.54,-303.229 988.5,-291 971.024,-279.154 950.178,-267.627 934.01,-259.205"/>
<polygon fill="midnightblue" stroke="midnightblue" points="935.587,-256.08 925.092,-254.626 932.389,-262.308 935.587,-256.08"/>
</g>
<!-- Node43&#45;&gt;Node37 -->
<g id="edge65" class="edge"><title>Node43&#45;&gt;Node37</title>
<path fill="none" stroke="midnightblue" d="M1177.99,-363.931C1166.94,-348.249 1147.13,-314.398 1162.5,-291 1186.27,-254.814 1305.42,-214.975 1368.76,-195.905"/>
<polygon fill="midnightblue" stroke="midnightblue" points="1369.84,-199.235 1378.42,-193.026 1367.84,-192.527 1369.84,-199.235"/>
</g>
<!-- Node44 -->
<g id="node44" class="node"><title>Node44</title>
<polygon fill="white" stroke="#bfbfbf" points="1300,-297 1300,-316 1387,-316 1387,-297 1300,-297"/>
<text text-anchor="middle" x="1343.5" y="-304" font-family="Helvetica,sans-Serif" font-size="10.00">TMVA/Reader.h</text>
</g>
<!-- Node43&#45;&gt;Node44 -->
<g id="edge60" class="edge"><title>Node43&#45;&gt;Node44</title>
<path fill="none" stroke="midnightblue" d="M1205.61,-363.869C1233.13,-352.619 1281.45,-332.867 1312.96,-319.985"/>
<polygon fill="midnightblue" stroke="midnightblue" points="1314.62,-323.088 1322.55,-316.064 1311.97,-316.608 1314.62,-323.088"/>
</g>
<!-- Node45 -->
<g id="node45" class="node"><title>Node45</title>
<g id="a_node45"><a xlink:href="../../dc/d76/Options_8hh.html" target="_top" xlink:title="boca/generic/Options.hh">
<polygon fill="white" stroke="red" points="1405.5,-297 1405.5,-316 1527.5,-316 1527.5,-297 1405.5,-297"/>
<text text-anchor="middle" x="1466.5" y="-304" font-family="Helvetica,sans-Serif" font-size="10.00">boca/generic/Options.hh</text>
</a>
</g>
</g>
<!-- Node43&#45;&gt;Node45 -->
<g id="edge61" class="edge"><title>Node43&#45;&gt;Node45</title>
<path fill="none" stroke="midnightblue" d="M1221.66,-363.936C1272.48,-352.22 1363.71,-331.193 1419.31,-318.377"/>
<polygon fill="midnightblue" stroke="midnightblue" points="1420.3,-321.74 1429.26,-316.083 1418.73,-314.919 1420.3,-321.74"/>
</g>
<!-- Node46 -->
<g id="node46" class="node"><title>Node46</title>
<g id="a_node46"><a xlink:href="../../dc/d65/TreeWriter_8hh.html" target="_top" xlink:title="boca/io/TreeWriter.hh">
<polygon fill="white" stroke="red" points="1171.5,-297 1171.5,-316 1281.5,-316 1281.5,-297 1171.5,-297"/>
<text text-anchor="middle" x="1226.5" y="-304" font-family="Helvetica,sans-Serif" font-size="10.00">boca/io/TreeWriter.hh</text>
</a>
</g>
</g>
<!-- Node43&#45;&gt;Node46 -->
<g id="edge62" class="edge"><title>Node43&#45;&gt;Node46</title>
<path fill="none" stroke="midnightblue" d="M1190.16,-363.734C1196.59,-353.793 1207.22,-337.338 1215.33,-324.789"/>
<polygon fill="midnightblue" stroke="midnightblue" points="1218.44,-326.426 1220.93,-316.127 1212.56,-322.627 1218.44,-326.426"/>
</g>
<!-- Node46&#45;&gt;Node32 -->
<g id="edge63" class="edge"><title>Node46&#45;&gt;Node32</title>
<path fill="none" stroke="midnightblue" d="M1255.58,-296.975C1291.08,-286.57 1351.25,-268.937 1390.67,-257.38"/>
<polygon fill="midnightblue" stroke="midnightblue" points="1391.86,-260.681 1400.47,-254.509 1389.89,-253.963 1391.86,-260.681"/>
</g>
<!-- Node47&#45;&gt;Node24 -->
<g id="edge69" class="edge"><title>Node47&#45;&gt;Node24</title>
<path fill="none" stroke="midnightblue" d="M2211.01,-363.615C2222.25,-347.11 2242.38,-311.532 2223.5,-291 2192.29,-257.066 1890.77,-248.71 1753.71,-246.661"/>
<polygon fill="midnightblue" stroke="midnightblue" points="1753.39,-243.156 1743.34,-246.514 1753.29,-250.156 1753.39,-243.156"/>
</g>
<!-- Node49 -->
<g id="node49" class="node"><title>Node49</title>
<g id="a_node49"><a xlink:href="../../da/d82/boca_2branch_2Cut_8hh.html" target="_top" xlink:title="boca/branch/Cut.hh">
<polygon fill="white" stroke="red" points="1966.5,-297 1966.5,-316 2068.5,-316 2068.5,-297 1966.5,-297"/>
<text text-anchor="middle" x="2017.5" y="-304" font-family="Helvetica,sans-Serif" font-size="10.00">boca/branch/Cut.hh</text>
</a>
</g>
</g>
<!-- Node48&#45;&gt;Node49 -->
<g id="edge71" class="edge"><title>Node48&#45;&gt;Node49</title>
<path fill="none" stroke="midnightblue" d="M2017.5,-363.734C2017.5,-354.183 2017.5,-338.618 2017.5,-326.283"/>
<polygon fill="midnightblue" stroke="midnightblue" points="2021,-326.127 2017.5,-316.127 2014,-326.127 2021,-326.127"/>
</g>
<!-- Node50 -->
<g id="node50" class="node"><title>Node50</title>
<g id="a_node50"><a xlink:href="../../dc/d6c/Prefixes_8hh.html" target="_top" xlink:title="boca/physics/Prefixes.hh">
<polygon fill="white" stroke="red" points="2087,-297 2087,-316 2214,-316 2214,-297 2087,-297"/>
<text text-anchor="middle" x="2150.5" y="-304" font-family="Helvetica,sans-Serif" font-size="10.00">boca/physics/Prefixes.hh</text>
</a>
</g>
</g>
<!-- Node48&#45;&gt;Node50 -->
<g id="edge72" class="edge"><title>Node48&#45;&gt;Node50</title>
<path fill="none" stroke="midnightblue" d="M2035.16,-363.869C2057.82,-352.796 2097.33,-333.486 2123.7,-320.598"/>
<polygon fill="midnightblue" stroke="midnightblue" points="2125.32,-323.703 2132.77,-316.167 2122.24,-317.414 2125.32,-323.703"/>
</g>
</g>
</svg>
