<?xml version="1.0" encoding="UTF-8" standalone="no"?>
<!DOCTYPE svg PUBLIC "-//W3C//DTD SVG 1.1//EN"
 "http://www.w3.org/Graphics/SVG/1.1/DTD/svg11.dtd">
<!-- Generated by graphviz version 2.38.0 (20140413.2041)
 -->
<!-- Title: boca::Result Pages: 1 -->
<svg width="116pt" height="209pt"
 viewBox="0.00 0.00 115.50 209.00" xmlns="http://www.w3.org/2000/svg" xmlns:xlink="http://www.w3.org/1999/xlink">
<g id="graph0" class="graph" transform="scale(1 1) rotate(0) translate(4 205)">
<title>boca::Result</title>
<polygon fill="white" stroke="none" points="-4,4 -4,-205 111.5,-205 111.5,4 -4,4"/>
<!-- Node1 -->
<g id="node1" class="node"><title>Node1</title>
<polygon fill="#bfbfbf" stroke="black" points="12.5,-0.5 12.5,-19.5 84.5,-19.5 84.5,-0.5 12.5,-0.5"/>
<text text-anchor="middle" x="48.5" y="-7.5" font-family="Helvetica,sans-Serif" font-size="10.00">boca::Result</text>
</g>
<!-- Node2 -->
<g id="node2" class="node"><title>Node2</title>
<g id="a_node2"><a xlink:href="../../d0/de6/classboca_1_1InfoBranch.html" target="_top" xlink:title="Basic tree branches. ">
<polygon fill="white" stroke="black" points="3,-67.5 3,-86.5 94,-86.5 94,-67.5 3,-67.5"/>
<text text-anchor="middle" x="48.5" y="-74.5" font-family="Helvetica,sans-Serif" font-size="10.00">boca::InfoBranch</text>
</a>
</g>
</g>
<!-- Node2&#45;&gt;Node1 -->
<g id="edge1" class="edge"><title>Node2&#45;&gt;Node1</title>
<path fill="none" stroke="#9a32cd" stroke-dasharray="5,2" d="M48.5,-57.037C48.5,-44.6703 48.5,-29.1198 48.5,-19.6273"/>
<polygon fill="#9a32cd" stroke="#9a32cd" points="45.0001,-57.2338 48.5,-67.2338 52.0001,-57.2338 45.0001,-57.2338"/>
<text text-anchor="middle" x="78" y="-41" font-family="Helvetica,sans-Serif" font-size="10.00"> info_branch_</text>
</g>
<!-- Node3 -->
<g id="node3" class="node"><title>Node3</title>
<g id="a_node3"><a xlink:href="../../dc/d87/classboca_1_1BaseBranch.html" target="_top" xlink:title="Basic tree branches. ">
<polygon fill="white" stroke="black" points="-7.10543e-15,-124.5 -7.10543e-15,-143.5 97,-143.5 97,-124.5 -7.10543e-15,-124.5"/>
<text text-anchor="middle" x="48.5" y="-131.5" font-family="Helvetica,sans-Serif" font-size="10.00">boca::BaseBranch</text>
</a>
</g>
</g>
<!-- Node3&#45;&gt;Node2 -->
<g id="edge2" class="edge"><title>Node3&#45;&gt;Node2</title>
<path fill="none" stroke="midnightblue" d="M48.5,-114.117C48.5,-104.817 48.5,-94.0557 48.5,-86.7149"/>
<polygon fill="midnightblue" stroke="midnightblue" points="45.0001,-114.406 48.5,-124.406 52.0001,-114.406 45.0001,-114.406"/>
</g>
<!-- Node4 -->
<g id="node4" class="node"><title>Node4</title>
<polygon fill="white" stroke="#bfbfbf" points="23,-181.5 23,-200.5 74,-200.5 74,-181.5 23,-181.5"/>
<text text-anchor="middle" x="48.5" y="-188.5" font-family="Helvetica,sans-Serif" font-size="10.00">TObject</text>
</g>
<!-- Node4&#45;&gt;Node3 -->
<g id="edge3" class="edge"><title>Node4&#45;&gt;Node3</title>
<path fill="none" stroke="midnightblue" d="M48.5,-171.117C48.5,-161.817 48.5,-151.056 48.5,-143.715"/>
<polygon fill="midnightblue" stroke="midnightblue" points="45.0001,-171.406 48.5,-181.406 52.0001,-171.406 45.0001,-171.406"/>
</g>
</g>
</svg>
