<?xml version="1.0" encoding="UTF-8" standalone="no"?>
<!DOCTYPE svg PUBLIC "-//W3C//DTD SVG 1.1//EN"
 "http://www.w3.org/Graphics/SVG/1.1/DTD/svg11.dtd">
<!-- Generated by graphviz version 2.38.0 (20140413.2041)
 -->
<!-- Title: higgscpv::tagger::TopSemiPair Pages: 1 -->
<svg width="2338pt" height="544pt"
 viewBox="0.00 0.00 2338.00 543.61" xmlns="http://www.w3.org/2000/svg" xmlns:xlink="http://www.w3.org/1999/xlink">
<g id="graph0" class="graph" transform="scale(1 1) rotate(0) translate(4 539.615)">
<title>higgscpv::tagger::TopSemiPair</title>
<polygon fill="white" stroke="none" points="-4,4 -4,-539.615 2334,-539.615 2334,4 -4,4"/>
<!-- Node1 -->
<g id="node1" class="node"><title>Node1</title>
<polygon fill="#bfbfbf" stroke="black" points="2179,-196.88 2179,-215.88 2330,-215.88 2330,-196.88 2179,-196.88"/>
<text text-anchor="middle" x="2254.5" y="-203.88" font-family="Helvetica,sans-Serif" font-size="10.00">higgscpv::tagger::TopSemiPair</text>
</g>
<!-- Node2 -->
<g id="node2" class="node"><title>Node2</title>
<g id="a_node2"><a xlink:href="../../da/d42/classboca_1_1Tagger.html" target="_top" xlink:title="boca::Tagger\&lt; Sextet,\l branch::TripletTwoBody \&gt;">
<polygon fill="white" stroke="black" points="1438,-408.38 1438,-438.38 1570,-438.38 1570,-408.38 1438,-408.38"/>
<text text-anchor="start" x="1446" y="-426.38" font-family="Helvetica,sans-Serif" font-size="10.00">boca::Tagger&lt; Sextet,</text>
<text text-anchor="middle" x="1504" y="-415.38" font-family="Helvetica,sans-Serif" font-size="10.00"> branch::TripletTwoBody &gt;</text>
</a>
</g>
</g>
<!-- Node2&#45;&gt;Node1 -->
<g id="edge1" class="edge"><title>Node2&#45;&gt;Node1</title>
<path fill="none" stroke="midnightblue" d="M1566.37,-405.587C1717.84,-361.674 2105.51,-249.283 2220.73,-215.88"/>
<polygon fill="midnightblue" stroke="midnightblue" points="1565.37,-402.233 1556.74,-408.379 1567.32,-408.956 1565.37,-402.233"/>
</g>
<!-- Node3 -->
<g id="node3" class="node"><title>Node3</title>
<g id="a_node3"><a xlink:href="../../d8/d02/classboca_1_1tagger_1_1Base.html" target="_top" xlink:title="Prepares multivariant analysis. ">
<polygon fill="white" stroke="black" points="872.5,-448.88 872.5,-467.88 971.5,-467.88 971.5,-448.88 872.5,-448.88"/>
<text text-anchor="middle" x="922" y="-455.88" font-family="Helvetica,sans-Serif" font-size="10.00">boca::tagger::Base</text>
</a>
</g>
</g>
<!-- Node3&#45;&gt;Node2 -->
<g id="edge2" class="edge"><title>Node3&#45;&gt;Node2</title>
<path fill="none" stroke="midnightblue" d="M946.167,-473.229C960.028,-481.22 978.333,-490.261 996,-494.38 1179.52,-537.172 1243.23,-559.672 1420,-494.38 1450.06,-483.276 1476.6,-455.891 1491.17,-438.56"/>
<polygon fill="midnightblue" stroke="midnightblue" points="947.72,-470.08 937.344,-467.939 944.12,-476.083 947.72,-470.08"/>
</g>
<!-- Node12 -->
<g id="node12" class="node"><title>Node12</title>
<g id="a_node12"><a xlink:href="../../da/d42/classboca_1_1Tagger.html" target="_top" xlink:title="Tagger base class using Branch template. ">
<polygon fill="white" stroke="black" points="1142.5,-380.38 1142.5,-410.38 1261.5,-410.38 1261.5,-380.38 1142.5,-380.38"/>
<text text-anchor="start" x="1150.5" y="-398.38" font-family="Helvetica,sans-Serif" font-size="10.00">boca::Tagger&lt; Multiplet</text>
<text text-anchor="middle" x="1202" y="-387.38" font-family="Helvetica,sans-Serif" font-size="10.00">_, Branch_ &gt;</text>
</a>
</g>
</g>
<!-- Node3&#45;&gt;Node12 -->
<g id="edge12" class="edge"><title>Node3&#45;&gt;Node12</title>
<path fill="none" stroke="midnightblue" d="M952.161,-444.59C965.309,-438.847 981.182,-432.557 996,-428.38 1044.4,-414.736 1100.93,-406.163 1142.35,-401.186"/>
<polygon fill="midnightblue" stroke="midnightblue" points="950.394,-441.546 942.701,-448.831 953.258,-447.934 950.394,-441.546"/>
</g>
<!-- Node16 -->
<g id="node16" class="node"><title>Node16</title>
<g id="a_node16"><a xlink:href="../../da/d42/classboca_1_1Tagger.html" target="_top" xlink:title="boca::Tagger\&lt; Triplet,\l branch::TopHadronic \&gt;">
<polygon fill="white" stroke="black" points="1444.5,-340.38 1444.5,-370.38 1563.5,-370.38 1563.5,-340.38 1444.5,-340.38"/>
<text text-anchor="start" x="1452.5" y="-358.38" font-family="Helvetica,sans-Serif" font-size="10.00">boca::Tagger&lt; Triplet,</text>
<text text-anchor="middle" x="1504" y="-347.38" font-family="Helvetica,sans-Serif" font-size="10.00"> branch::TopHadronic &gt;</text>
</a>
</g>
</g>
<!-- Node3&#45;&gt;Node16 -->
<g id="edge17" class="edge"><title>Node3&#45;&gt;Node16</title>
<path fill="none" stroke="midnightblue" d="M982.041,-466.377C1098.45,-480.829 1352.17,-505.406 1420,-455.38 1441.38,-439.611 1422,-419.591 1438,-398.38 1446.64,-386.929 1459.26,-377.588 1471.1,-370.574"/>
<polygon fill="midnightblue" stroke="midnightblue" points="982.244,-462.875 971.885,-465.099 981.37,-469.82 982.244,-462.875"/>
</g>
<!-- Node27 -->
<g id="node27" class="node"><title>Node27</title>
<g id="a_node27"><a xlink:href="../../da/d42/classboca_1_1Tagger.html" target="_top" xlink:title="boca::Tagger\&lt; Triplet,\l branch::TopLeptonic \&gt;">
<polygon fill="white" stroke="black" points="1445.5,-252.38 1445.5,-282.38 1562.5,-282.38 1562.5,-252.38 1445.5,-252.38"/>
<text text-anchor="start" x="1453.5" y="-270.38" font-family="Helvetica,sans-Serif" font-size="10.00">boca::Tagger&lt; Triplet,</text>
<text text-anchor="middle" x="1504" y="-259.38" font-family="Helvetica,sans-Serif" font-size="10.00"> branch::TopLeptonic &gt;</text>
</a>
</g>
</g>
<!-- Node3&#45;&gt;Node27 -->
<g id="edge33" class="edge"><title>Node3&#45;&gt;Node27</title>
<path fill="none" stroke="midnightblue" d="M981.911,-458.543C1067.82,-457.656 1222.04,-451.469 1266,-419.38 1281.75,-407.886 1269.69,-392.624 1284,-379.38 1331.15,-335.733 1363.54,-361.043 1420,-330.38 1444.8,-316.911 1470.2,-296.463 1486.25,-282.543"/>
<polygon fill="midnightblue" stroke="midnightblue" points="981.756,-455.044 971.785,-458.626 981.814,-462.044 981.756,-455.044"/>
</g>
<!-- Node4 -->
<g id="node4" class="node"><title>Node4</title>
<g id="a_node4"><a xlink:href="../../db/db3/classboca_1_1TreeBranch.html" target="_top" xlink:title="boca::TreeBranch">
<polygon fill="white" stroke="black" points="663,-448.88 663,-467.88 757,-467.88 757,-448.88 663,-448.88"/>
<text text-anchor="middle" x="710" y="-455.88" font-family="Helvetica,sans-Serif" font-size="10.00">boca::TreeBranch</text>
</a>
</g>
</g>
<!-- Node4&#45;&gt;Node3 -->
<g id="edge3" class="edge"><title>Node4&#45;&gt;Node3</title>
<path fill="none" stroke="#9a32cd" stroke-dasharray="5,2" d="M767.425,-458.38C800.219,-458.38 841.121,-458.38 872.466,-458.38"/>
<polygon fill="#9a32cd" stroke="#9a32cd" points="767.085,-454.88 757.085,-458.38 767.085,-461.88 767.085,-454.88"/>
<text text-anchor="middle" x="818" y="-461.38" font-family="Helvetica,sans-Serif" font-size="10.00"> tree_branch_</text>
</g>
<!-- Node5 -->
<g id="node5" class="node"><title>Node5</title>
<g id="a_node5"><a xlink:href="../../dd/ded/classhiggscpv_1_1branch_1_1TripletTwoBody.html" target="_top" xlink:title="Higgs tagger root tree structure. ">
<polygon fill="white" stroke="black" points="996,-328.38 996,-358.38 1120,-358.38 1120,-328.38 996,-328.38"/>
<text text-anchor="start" x="1004" y="-346.38" font-family="Helvetica,sans-Serif" font-size="10.00">higgscpv::branch::Triplet</text>
<text text-anchor="middle" x="1058" y="-335.38" font-family="Helvetica,sans-Serif" font-size="10.00">TwoBody</text>
</a>
</g>
</g>
<!-- Node5&#45;&gt;Node2 -->
<g id="edge4" class="edge"><title>Node5&#45;&gt;Node2</title>
<path fill="none" stroke="#9a32cd" stroke-dasharray="5,2" d="M1130.41,-333.891C1205.51,-326.929 1325.64,-324.482 1420,-363.38 1429.9,-367.459 1429.55,-372.81 1438,-379.38 1451.12,-389.584 1466.5,-400.056 1479,-408.222"/>
<polygon fill="#9a32cd" stroke="#9a32cd" points="1129.73,-330.441 1120.12,-334.9 1130.41,-337.408 1129.73,-330.441"/>
<text text-anchor="middle" x="1202" y="-336.38" font-family="Helvetica,sans-Serif" font-size="10.00"> branch_</text>
</g>
<!-- Node6 -->
<g id="node6" class="node"><title>Node6</title>
<g id="a_node6"><a xlink:href="../../d0/d51/classboca_1_1branch_1_1TwoBody.html" target="_top" xlink:title="boca::branch::TwoBody">
<polygon fill="white" stroke="black" points="650,-252.88 650,-271.88 770,-271.88 770,-252.88 650,-252.88"/>
<text text-anchor="middle" x="710" y="-259.88" font-family="Helvetica,sans-Serif" font-size="10.00">boca::branch::TwoBody</text>
</a>
</g>
</g>
<!-- Node6&#45;&gt;Node5 -->
<g id="edge5" class="edge"><title>Node6&#45;&gt;Node5</title>
<path fill="none" stroke="midnightblue" d="M736.446,-276.837C766.386,-293.054 818.102,-318.624 866,-330.38 908.607,-340.838 958.057,-343.967 995.965,-344.546"/>
<polygon fill="midnightblue" stroke="midnightblue" points="737.972,-273.682 727.523,-271.93 734.599,-279.816 737.972,-273.682"/>
</g>
<!-- Node18 -->
<g id="node18" class="node"><title>Node18</title>
<g id="a_node18"><a xlink:href="../../d2/dfe/classboca_1_1branch_1_1Multi.html" target="_top" xlink:title="boca::branch::Multi">
<polygon fill="white" stroke="black" points="872,-252.88 872,-271.88 972,-271.88 972,-252.88 872,-252.88"/>
<text text-anchor="middle" x="922" y="-259.88" font-family="Helvetica,sans-Serif" font-size="10.00">boca::branch::Multi</text>
</a>
</g>
</g>
<!-- Node6&#45;&gt;Node18 -->
<g id="edge20" class="edge"><title>Node6&#45;&gt;Node18</title>
<path fill="none" stroke="midnightblue" d="M780.448,-262.38C810.396,-262.38 844.72,-262.38 871.952,-262.38"/>
<polygon fill="midnightblue" stroke="midnightblue" points="780.056,-258.88 770.056,-262.38 780.056,-265.88 780.056,-258.88"/>
</g>
<!-- Node28 -->
<g id="node28" class="node"><title>Node28</title>
<g id="a_node28"><a xlink:href="../../d5/d4b/classboca_1_1standardmodel_1_1branch_1_1TopLeptonic.html" target="_top" xlink:title="Top tagger root tree structure. ">
<polygon fill="white" stroke="black" points="1146.5,-203.38 1146.5,-233.38 1257.5,-233.38 1257.5,-203.38 1146.5,-203.38"/>
<text text-anchor="start" x="1154.5" y="-221.38" font-family="Helvetica,sans-Serif" font-size="10.00">boca::standardmodel</text>
<text text-anchor="middle" x="1202" y="-210.38" font-family="Helvetica,sans-Serif" font-size="10.00">::branch::TopLeptonic</text>
</a>
</g>
</g>
<!-- Node6&#45;&gt;Node28 -->
<g id="edge35" class="edge"><title>Node6&#45;&gt;Node28</title>
<path fill="none" stroke="midnightblue" d="M735.329,-247.668C764.96,-230.687 817.123,-203.768 866,-193.38 963.266,-172.708 1079.57,-190.661 1146.41,-204.959"/>
<polygon fill="midnightblue" stroke="midnightblue" points="733.408,-244.736 726.533,-252.798 736.935,-250.783 733.408,-244.736"/>
</g>
<!-- Node7 -->
<g id="node7" class="node"><title>Node7</title>
<g id="a_node7"><a xlink:href="../../d6/d92/classboca_1_1branch_1_1Particle.html" target="_top" xlink:title="Class for saving event informations to root. ">
<polygon fill="white" stroke="black" points="501,-252.88 501,-271.88 613,-271.88 613,-252.88 501,-252.88"/>
<text text-anchor="middle" x="557" y="-259.88" font-family="Helvetica,sans-Serif" font-size="10.00">boca::branch::Particle</text>
</a>
</g>
</g>
<!-- Node7&#45;&gt;Node6 -->
<g id="edge6" class="edge"><title>Node7&#45;&gt;Node6</title>
<path fill="none" stroke="midnightblue" d="M623.524,-262.38C632.27,-262.38 641.198,-262.38 649.827,-262.38"/>
<polygon fill="midnightblue" stroke="midnightblue" points="623.369,-258.88 613.369,-262.38 623.369,-265.88 623.369,-258.88"/>
</g>
<!-- Node8 -->
<g id="node8" class="node"><title>Node8</title>
<g id="a_node8"><a xlink:href="../../d0/d6b/classboca_1_1branch_1_1Bdt.html" target="_top" xlink:title="boca::branch::Bdt">
<polygon fill="white" stroke="black" points="370,-252.88 370,-271.88 464,-271.88 464,-252.88 370,-252.88"/>
<text text-anchor="middle" x="417" y="-259.88" font-family="Helvetica,sans-Serif" font-size="10.00">boca::branch::Bdt</text>
</a>
</g>
</g>
<!-- Node8&#45;&gt;Node7 -->
<g id="edge7" class="edge"><title>Node8&#45;&gt;Node7</title>
<path fill="none" stroke="midnightblue" d="M474.445,-262.38C483.195,-262.38 492.224,-262.38 500.943,-262.38"/>
<polygon fill="midnightblue" stroke="midnightblue" points="474.336,-258.88 464.336,-262.38 474.336,-265.88 474.336,-258.88"/>
</g>
<!-- Node9 -->
<g id="node9" class="node"><title>Node9</title>
<g id="a_node9"><a xlink:href="../../d3/d39/classboca_1_1branch_1_1Result.html" target="_top" xlink:title="boca::branch::Result">
<polygon fill="white" stroke="black" points="226,-252.88 226,-271.88 333,-271.88 333,-252.88 226,-252.88"/>
<text text-anchor="middle" x="279.5" y="-259.88" font-family="Helvetica,sans-Serif" font-size="10.00">boca::branch::Result</text>
</a>
</g>
</g>
<!-- Node9&#45;&gt;Node8 -->
<g id="edge8" class="edge"><title>Node9&#45;&gt;Node8</title>
<path fill="none" stroke="midnightblue" d="M343.554,-262.38C352.383,-262.38 361.318,-262.38 369.756,-262.38"/>
<polygon fill="midnightblue" stroke="midnightblue" points="343.276,-258.88 333.276,-262.38 343.276,-265.88 343.276,-258.88"/>
</g>
<!-- Node10 -->
<g id="node10" class="node"><title>Node10</title>
<g id="a_node10"><a xlink:href="../../df/d34/classboca_1_1branch_1_1Base.html" target="_top" xlink:title="Basic tree branches. ">
<polygon fill="white" stroke="black" points="88,-252.88 88,-271.88 189,-271.88 189,-252.88 88,-252.88"/>
<text text-anchor="middle" x="138.5" y="-259.88" font-family="Helvetica,sans-Serif" font-size="10.00">boca::branch::Base</text>
</a>
</g>
</g>
<!-- Node10&#45;&gt;Node9 -->
<g id="edge9" class="edge"><title>Node10&#45;&gt;Node9</title>
<path fill="none" stroke="midnightblue" d="M199.443,-262.38C208.203,-262.38 217.169,-262.38 225.77,-262.38"/>
<polygon fill="midnightblue" stroke="midnightblue" points="199.29,-258.88 189.29,-262.38 199.29,-265.88 199.29,-258.88"/>
</g>
<!-- Node11 -->
<g id="node11" class="node"><title>Node11</title>
<polygon fill="white" stroke="#bfbfbf" points="0,-252.88 0,-271.88 51,-271.88 51,-252.88 0,-252.88"/>
<text text-anchor="middle" x="25.5" y="-259.88" font-family="Helvetica,sans-Serif" font-size="10.00">TObject</text>
</g>
<!-- Node11&#45;&gt;Node10 -->
<g id="edge10" class="edge"><title>Node11&#45;&gt;Node10</title>
<path fill="none" stroke="midnightblue" d="M61.3444,-262.38C69.7744,-262.38 78.946,-262.38 87.9096,-262.38"/>
<polygon fill="midnightblue" stroke="midnightblue" points="61.1345,-258.88 51.1345,-262.38 61.1345,-265.88 61.1345,-258.88"/>
</g>
<!-- Node12&#45;&gt;Node2 -->
<g id="edge11" class="edge"><title>Node12&#45;&gt;Node2</title>
<path fill="none" stroke="orange" stroke-dasharray="5,2" d="M1251.79,-413.645C1262.27,-416.832 1273.39,-419.67 1284,-421.38 1335.24,-429.642 1394.1,-429.662 1437.89,-427.88"/>
<polygon fill="orange" stroke="orange" points="1252.56,-410.217 1241.97,-410.509 1250.43,-416.885 1252.56,-410.217"/>
<text text-anchor="start" x="1297.5" y="-443.38" font-family="Helvetica,sans-Serif" font-size="10.00"> &lt; Sextet, branch::Triplet</text>
<text text-anchor="middle" x="1352" y="-432.38" font-family="Helvetica,sans-Serif" font-size="10.00">TwoBody &gt;</text>
</g>
<!-- Node12&#45;&gt;Node16 -->
<g id="edge23" class="edge"><title>Node12&#45;&gt;Node16</title>
<path fill="none" stroke="orange" stroke-dasharray="5,2" d="M1271.72,-386.217C1323.89,-379.262 1394.83,-369.803 1444.34,-363.202"/>
<polygon fill="orange" stroke="orange" points="1271,-382.782 1261.56,-387.573 1271.93,-389.72 1271,-382.782"/>
<text text-anchor="start" x="1311.5" y="-398.38" font-family="Helvetica,sans-Serif" font-size="10.00"> &lt; Triplet, branch::</text>
<text text-anchor="middle" x="1352" y="-387.38" font-family="Helvetica,sans-Serif" font-size="10.00">TopHadronic &gt;</text>
</g>
<!-- Node12&#45;&gt;Node27 -->
<g id="edge37" class="edge"><title>Node12&#45;&gt;Node27</title>
<path fill="none" stroke="orange" stroke-dasharray="5,2" d="M1245.88,-374.814C1253.55,-369.438 1260.75,-362.973 1266,-355.38 1288.44,-322.893 1253.44,-293.382 1284,-268.38 1307.8,-248.91 1388.95,-253.644 1445.48,-259.769"/>
<polygon fill="orange" stroke="orange" points="1243.98,-371.877 1237.45,-380.222 1247.76,-377.768 1243.98,-371.877"/>
<text text-anchor="start" x="1311.5" y="-282.38" font-family="Helvetica,sans-Serif" font-size="10.00"> &lt; Triplet, branch::</text>
<text text-anchor="middle" x="1352" y="-271.38" font-family="Helvetica,sans-Serif" font-size="10.00">TopLeptonic &gt;</text>
</g>
<!-- Node13 -->
<g id="node13" class="node"><title>Node13</title>
<polygon fill="white" stroke="#bfbfbf" points="895.5,-378.88 895.5,-397.88 948.5,-397.88 948.5,-378.88 895.5,-378.88"/>
<text text-anchor="middle" x="922" y="-385.88" font-family="Helvetica,sans-Serif" font-size="10.00">Branch_</text>
</g>
<!-- Node13&#45;&gt;Node12 -->
<g id="edge13" class="edge"><title>Node13&#45;&gt;Node12</title>
<path fill="none" stroke="#9a32cd" stroke-dasharray="5,2" d="M958.689,-387.823C998.166,-387.38 1063.65,-387.153 1120,-389.38 1127.19,-389.664 1134.72,-390.073 1142.19,-390.546"/>
<polygon fill="#9a32cd" stroke="#9a32cd" points="958.47,-384.326 948.514,-387.949 958.556,-391.325 958.47,-384.326"/>
<text text-anchor="middle" x="1058" y="-392.38" font-family="Helvetica,sans-Serif" font-size="10.00"> branch_</text>
</g>
<!-- Node14 -->
<g id="node14" class="node"><title>Node14</title>
<g id="a_node14"><a xlink:href="../../de/d69/classboca_1_1Reader.html" target="_top" xlink:title="boca::Reader\&lt; standardmodel\l::tagger::TopHadronic \&gt;">
<polygon fill="white" stroke="black" points="1898,-191.38 1898,-221.38 2046,-221.38 2046,-191.38 1898,-191.38"/>
<text text-anchor="start" x="1906" y="-209.38" font-family="Helvetica,sans-Serif" font-size="10.00">boca::Reader&lt; standardmodel</text>
<text text-anchor="middle" x="1972" y="-198.38" font-family="Helvetica,sans-Serif" font-size="10.00">::tagger::TopHadronic &gt;</text>
</a>
</g>
</g>
<!-- Node14&#45;&gt;Node1 -->
<g id="edge14" class="edge"><title>Node14&#45;&gt;Node1</title>
<path fill="none" stroke="#9a32cd" stroke-dasharray="5,2" d="M2056.55,-206.38C2095.31,-206.38 2141.02,-206.38 2178.64,-206.38"/>
<polygon fill="#9a32cd" stroke="#9a32cd" points="2056.33,-202.88 2046.33,-206.38 2056.33,-209.88 2056.33,-202.88"/>
<text text-anchor="middle" x="2112.5" y="-209.38" font-family="Helvetica,sans-Serif" font-size="10.00"> top_hadronic_reader_</text>
</g>
<!-- Node15 -->
<g id="node15" class="node"><title>Node15</title>
<g id="a_node15"><a xlink:href="../../da/d57/classboca_1_1standardmodel_1_1tagger_1_1TopHadronic.html" target="_top" xlink:title="BDT tagger for hadronically decaying top quarks. ">
<polygon fill="white" stroke="black" points="1715,-159.38 1715,-189.38 1826,-189.38 1826,-159.38 1715,-159.38"/>
<text text-anchor="start" x="1723" y="-177.38" font-family="Helvetica,sans-Serif" font-size="10.00">boca::standardmodel</text>
<text text-anchor="middle" x="1770.5" y="-166.38" font-family="Helvetica,sans-Serif" font-size="10.00">::tagger::TopHadronic</text>
</a>
</g>
</g>
<!-- Node15&#45;&gt;Node14 -->
<g id="edge15" class="edge"><title>Node15&#45;&gt;Node14</title>
<path fill="none" stroke="#9a32cd" stroke-dasharray="5,2" d="M1836.11,-184.743C1855.81,-187.904 1877.62,-191.401 1897.85,-194.646"/>
<polygon fill="#9a32cd" stroke="#9a32cd" points="1836.44,-181.252 1826.01,-183.124 1835.33,-188.164 1836.44,-181.252"/>
<text text-anchor="middle" x="1862" y="-194.38" font-family="Helvetica,sans-Serif" font-size="10.00"> tagger_</text>
</g>
<!-- Node16&#45;&gt;Node15 -->
<g id="edge16" class="edge"><title>Node16&#45;&gt;Node15</title>
<path fill="none" stroke="midnightblue" d="M1533.59,-333.801C1546.59,-322.536 1561.04,-307.704 1570,-291.38 1588.38,-257.912 1560.58,-233.953 1588,-207.38 1605.77,-190.161 1668.2,-181.706 1714.91,-177.709"/>
<polygon fill="midnightblue" stroke="midnightblue" points="1531.19,-331.246 1525.75,-340.336 1535.67,-336.625 1531.19,-331.246"/>
</g>
<!-- Node17 -->
<g id="node17" class="node"><title>Node17</title>
<g id="a_node17"><a xlink:href="../../dd/d7a/classboca_1_1standardmodel_1_1branch_1_1TopHadronic.html" target="_top" xlink:title="Top tagger root tree structure. ">
<polygon fill="white" stroke="black" points="1145.5,-269.38 1145.5,-299.38 1258.5,-299.38 1258.5,-269.38 1145.5,-269.38"/>
<text text-anchor="start" x="1153.5" y="-287.38" font-family="Helvetica,sans-Serif" font-size="10.00">boca::standardmodel</text>
<text text-anchor="middle" x="1202" y="-276.38" font-family="Helvetica,sans-Serif" font-size="10.00">::branch::TopHadronic</text>
</a>
</g>
</g>
<!-- Node17&#45;&gt;Node16 -->
<g id="edge18" class="edge"><title>Node17&#45;&gt;Node16</title>
<path fill="none" stroke="#9a32cd" stroke-dasharray="5,2" d="M1268.68,-291.522C1321.94,-297.729 1392.51,-307.012 1420,-315.38 1439.89,-321.436 1460.99,-331.656 1476.93,-340.25"/>
<polygon fill="#9a32cd" stroke="#9a32cd" points="1268.95,-288.03 1258.61,-290.362 1268.15,-294.984 1268.95,-288.03"/>
<text text-anchor="middle" x="1352" y="-318.38" font-family="Helvetica,sans-Serif" font-size="10.00"> branch_</text>
</g>
<!-- Node18&#45;&gt;Node17 -->
<g id="edge19" class="edge"><title>Node18&#45;&gt;Node17</title>
<path fill="none" stroke="midnightblue" d="M982.043,-267.052C1030.27,-270.869 1097.96,-276.226 1145.27,-279.969"/>
<polygon fill="midnightblue" stroke="midnightblue" points="982.306,-263.562 972.061,-266.263 981.754,-270.541 982.306,-263.562"/>
</g>
<!-- Node19 -->
<g id="node19" class="node"><title>Node19</title>
<g id="a_node19"><a xlink:href="../../dd/d50/classboca_1_1standardmodel_1_1branch_1_1BottomBase.html" target="_top" xlink:title="Bottom tagger root tree structure base class. ">
<polygon fill="white" stroke="black" points="866,-203.38 866,-233.38 978,-233.38 978,-203.38 866,-203.38"/>
<text text-anchor="start" x="874" y="-221.38" font-family="Helvetica,sans-Serif" font-size="10.00">boca::standardmodel</text>
<text text-anchor="middle" x="922" y="-210.38" font-family="Helvetica,sans-Serif" font-size="10.00">::branch::BottomBase</text>
</a>
</g>
</g>
<!-- Node19&#45;&gt;Node17 -->
<g id="edge21" class="edge"><title>Node19&#45;&gt;Node17</title>
<path fill="none" stroke="midnightblue" d="M988.253,-233.398C1026.64,-242.288 1076.11,-253.838 1120,-264.38 1128.17,-266.342 1136.79,-268.442 1145.25,-270.516"/>
<polygon fill="midnightblue" stroke="midnightblue" points="988.771,-229.926 978.24,-231.081 987.193,-236.745 988.771,-229.926"/>
</g>
<!-- Node19&#45;&gt;Node28 -->
<g id="edge36" class="edge"><title>Node19&#45;&gt;Node28</title>
<path fill="none" stroke="midnightblue" d="M988.551,-218.38C1036.59,-218.38 1101.05,-218.38 1146.32,-218.38"/>
<polygon fill="midnightblue" stroke="midnightblue" points="988.256,-214.88 978.256,-218.38 988.256,-221.88 988.256,-214.88"/>
</g>
<!-- Node20 -->
<g id="node20" class="node"><title>Node20</title>
<g id="a_node20"><a xlink:href="../../d8/d90/classboca_1_1standardmodel_1_1branch_1_1LeptonVeto.html" target="_top" xlink:title="LeptonVeto tagger root tree structure. ">
<polygon fill="white" stroke="black" points="868.5,-291.38 868.5,-321.38 975.5,-321.38 975.5,-291.38 868.5,-291.38"/>
<text text-anchor="start" x="876.5" y="-309.38" font-family="Helvetica,sans-Serif" font-size="10.00">boca::standardmodel</text>
<text text-anchor="middle" x="922" y="-298.38" font-family="Helvetica,sans-Serif" font-size="10.00">::branch::LeptonVeto</text>
</a>
</g>
</g>
<!-- Node20&#45;&gt;Node17 -->
<g id="edge22" class="edge"><title>Node20&#45;&gt;Node17</title>
<path fill="none" stroke="midnightblue" d="M985.87,-301.405C1033.8,-297.612 1099.19,-292.437 1145.26,-288.791"/>
<polygon fill="midnightblue" stroke="midnightblue" points="985.309,-297.938 975.616,-302.216 985.861,-304.916 985.309,-297.938"/>
</g>
<!-- Node21 -->
<g id="node21" class="node"><title>Node21</title>
<g id="a_node21"><a xlink:href="../../de/d69/classboca_1_1Reader.html" target="_top" xlink:title="boca::Reader\&lt; tagger\l::boca::standardmodel\l::tagger::WHadronic \&gt;">
<polygon fill="white" stroke="black" points="1447.5,-145.88 1447.5,-186.88 1560.5,-186.88 1560.5,-145.88 1447.5,-145.88"/>
<text text-anchor="start" x="1455.5" y="-174.88" font-family="Helvetica,sans-Serif" font-size="10.00">boca::Reader&lt; tagger</text>
<text text-anchor="start" x="1455.5" y="-163.88" font-family="Helvetica,sans-Serif" font-size="10.00">::boca::standardmodel</text>
<text text-anchor="middle" x="1504" y="-152.88" font-family="Helvetica,sans-Serif" font-size="10.00">::tagger::WHadronic &gt;</text>
</a>
</g>
</g>
<!-- Node21&#45;&gt;Node15 -->
<g id="edge24" class="edge"><title>Node21&#45;&gt;Node15</title>
<path fill="none" stroke="#9a32cd" stroke-dasharray="5,2" d="M1571.07,-165.893C1608.11,-165.915 1655.15,-166.433 1697,-168.38 1702.8,-168.65 1708.86,-169.017 1714.9,-169.437"/>
<polygon fill="#9a32cd" stroke="#9a32cd" points="1570.9,-162.393 1560.9,-165.9 1570.9,-169.393 1570.9,-162.393"/>
<text text-anchor="middle" x="1642.5" y="-171.38" font-family="Helvetica,sans-Serif" font-size="10.00"> w_hadronic_reader_</text>
</g>
<!-- Node22 -->
<g id="node22" class="node"><title>Node22</title>
<g id="a_node22"><a xlink:href="../../de/d69/classboca_1_1Reader.html" target="_top" xlink:title="read results of multivariant analysis wrapper for TMVA::Reader ">
<polygon fill="white" stroke="black" points="1138,-96.88 1138,-115.88 1266,-115.88 1266,-96.88 1138,-96.88"/>
<text text-anchor="middle" x="1202" y="-103.88" font-family="Helvetica,sans-Serif" font-size="10.00">boca::Reader&lt; Tagger_ &gt;</text>
</a>
</g>
</g>
<!-- Node22&#45;&gt;Node14 -->
<g id="edge29" class="edge"><title>Node22&#45;&gt;Node14</title>
<path fill="none" stroke="orange" stroke-dasharray="5,2" d="M1215.81,-124.257C1230.11,-142.653 1255.1,-170.4 1284,-183.38 1391.77,-231.787 1743.8,-219.073 1897.78,-210.827"/>
<polygon fill="orange" stroke="orange" points="1218.47,-121.979 1209.67,-116.083 1212.87,-126.182 1218.47,-121.979"/>
<text text-anchor="start" x="1588" y="-233.38" font-family="Helvetica,sans-Serif" font-size="10.00"> &lt; standardmodel::tagger</text>
<text text-anchor="middle" x="1642.5" y="-222.38" font-family="Helvetica,sans-Serif" font-size="10.00">::TopHadronic &gt;</text>
</g>
<!-- Node22&#45;&gt;Node21 -->
<g id="edge25" class="edge"><title>Node22&#45;&gt;Node21</title>
<path fill="none" stroke="orange" stroke-dasharray="5,2" d="M1239.03,-119.28C1252.94,-123.908 1269.08,-128.85 1284,-132.38 1338.85,-145.357 1402.65,-154.616 1447.18,-160.163"/>
<polygon fill="orange" stroke="orange" points="1239.93,-115.89 1229.34,-115.989 1237.68,-122.519 1239.93,-115.89"/>
<text text-anchor="start" x="1284" y="-171.38" font-family="Helvetica,sans-Serif" font-size="10.00"> &lt; tagger::boca::standardmodel</text>
<text text-anchor="middle" x="1352" y="-160.38" font-family="Helvetica,sans-Serif" font-size="10.00">::tagger::WHadronic &gt;</text>
</g>
<!-- Node24 -->
<g id="node24" class="node"><title>Node24</title>
<g id="a_node24"><a xlink:href="../../de/d69/classboca_1_1Reader.html" target="_top" xlink:title="boca::Reader\&lt; tagger\l::boca::standardmodel\l::tagger::Bottom \&gt;">
<polygon fill="white" stroke="black" points="1447.5,-85.88 1447.5,-126.88 1560.5,-126.88 1560.5,-85.88 1447.5,-85.88"/>
<text text-anchor="start" x="1455.5" y="-114.88" font-family="Helvetica,sans-Serif" font-size="10.00">boca::Reader&lt; tagger</text>
<text text-anchor="start" x="1455.5" y="-103.88" font-family="Helvetica,sans-Serif" font-size="10.00">::boca::standardmodel</text>
<text text-anchor="middle" x="1504" y="-92.88" font-family="Helvetica,sans-Serif" font-size="10.00">::tagger::Bottom &gt;</text>
</a>
</g>
</g>
<!-- Node22&#45;&gt;Node24 -->
<g id="edge28" class="edge"><title>Node22&#45;&gt;Node24</title>
<path fill="none" stroke="orange" stroke-dasharray="5,2" d="M1276.56,-106.38C1329.32,-106.38 1399.28,-106.38 1447.4,-106.38"/>
<polygon fill="orange" stroke="orange" points="1276.26,-102.88 1266.26,-106.38 1276.26,-109.88 1276.26,-102.88"/>
<text text-anchor="start" x="1284" y="-120.38" font-family="Helvetica,sans-Serif" font-size="10.00"> &lt; tagger::boca::standardmodel</text>
<text text-anchor="middle" x="1352" y="-109.38" font-family="Helvetica,sans-Serif" font-size="10.00">::tagger::Bottom &gt;</text>
</g>
<!-- Node25 -->
<g id="node25" class="node"><title>Node25</title>
<g id="a_node25"><a xlink:href="../../de/d69/classboca_1_1Reader.html" target="_top" xlink:title="boca::Reader\&lt; standardmodel\l::tagger::TopLeptonic \&gt;">
<polygon fill="white" stroke="black" points="1898,-59.38 1898,-89.38 2046,-89.38 2046,-59.38 1898,-59.38"/>
<text text-anchor="start" x="1906" y="-77.38" font-family="Helvetica,sans-Serif" font-size="10.00">boca::Reader&lt; standardmodel</text>
<text text-anchor="middle" x="1972" y="-66.38" font-family="Helvetica,sans-Serif" font-size="10.00">::tagger::TopLeptonic &gt;</text>
</a>
</g>
</g>
<!-- Node22&#45;&gt;Node25 -->
<g id="edge41" class="edge"><title>Node22&#45;&gt;Node25</title>
<path fill="none" stroke="orange" stroke-dasharray="5,2" d="M1222.5,-90.5018C1238.23,-78.4265 1261.39,-62.2567 1284,-52.38 1348.5,-24.1986 1368.31,-25.2872 1438,-15.38 1552.01,0.826975 1582.65,5.19788 1697,-8.38001 1777.9,-17.9861 1869.47,-43.0153 1923.61,-59.342"/>
<polygon fill="orange" stroke="orange" points="1220.28,-87.7955 1214.57,-96.7231 1224.6,-93.3018 1220.28,-87.7955"/>
<text text-anchor="start" x="1588" y="-22.38" font-family="Helvetica,sans-Serif" font-size="10.00"> &lt; standardmodel::tagger</text>
<text text-anchor="middle" x="1642.5" y="-11.38" font-family="Helvetica,sans-Serif" font-size="10.00">::TopLeptonic &gt;</text>
</g>
<!-- Node29 -->
<g id="node29" class="node"><title>Node29</title>
<g id="a_node29"><a xlink:href="../../de/d69/classboca_1_1Reader.html" target="_top" xlink:title="boca::Reader\&lt; tagger\l::boca::standardmodel\l::tagger::WLeptonic \&gt;">
<polygon fill="white" stroke="black" points="1447.5,-24.88 1447.5,-65.88 1560.5,-65.88 1560.5,-24.88 1447.5,-24.88"/>
<text text-anchor="start" x="1455.5" y="-53.88" font-family="Helvetica,sans-Serif" font-size="10.00">boca::Reader&lt; tagger</text>
<text text-anchor="start" x="1455.5" y="-42.88" font-family="Helvetica,sans-Serif" font-size="10.00">::boca::standardmodel</text>
<text text-anchor="middle" x="1504" y="-31.88" font-family="Helvetica,sans-Serif" font-size="10.00">::tagger::WLeptonic &gt;</text>
</a>
</g>
</g>
<!-- Node22&#45;&gt;Node29 -->
<g id="edge40" class="edge"><title>Node22&#45;&gt;Node29</title>
<path fill="none" stroke="orange" stroke-dasharray="5,2" d="M1239.04,-93.5157C1252.95,-88.8912 1269.09,-83.9429 1284,-80.38 1338.86,-67.2713 1402.65,-57.7038 1447.19,-51.9175"/>
<polygon fill="orange" stroke="orange" points="1237.69,-90.2759 1229.34,-96.8014 1239.94,-96.9053 1237.69,-90.2759"/>
<text text-anchor="start" x="1284" y="-94.38" font-family="Helvetica,sans-Serif" font-size="10.00"> &lt; tagger::boca::standardmodel</text>
<text text-anchor="middle" x="1352" y="-83.38" font-family="Helvetica,sans-Serif" font-size="10.00">::tagger::WLeptonic &gt;</text>
</g>
<!-- Node23 -->
<g id="node23" class="node"><title>Node23</title>
<polygon fill="white" stroke="#bfbfbf" points="896,-96.88 896,-115.88 948,-115.88 948,-96.88 896,-96.88"/>
<text text-anchor="middle" x="922" y="-103.88" font-family="Helvetica,sans-Serif" font-size="10.00">Tagger_</text>
</g>
<!-- Node23&#45;&gt;Node22 -->
<g id="edge26" class="edge"><title>Node23&#45;&gt;Node22</title>
<path fill="none" stroke="#9a32cd" stroke-dasharray="5,2" d="M958.334,-106.38C1003.46,-106.38 1082.36,-106.38 1137.91,-106.38"/>
<polygon fill="#9a32cd" stroke="#9a32cd" points="958.161,-102.88 948.161,-106.38 958.161,-109.88 958.161,-102.88"/>
<text text-anchor="middle" x="1058" y="-109.38" font-family="Helvetica,sans-Serif" font-size="10.00"> tagger_</text>
</g>
<!-- Node24&#45;&gt;Node15 -->
<g id="edge27" class="edge"><title>Node24&#45;&gt;Node15</title>
<path fill="none" stroke="#9a32cd" stroke-dasharray="5,2" d="M1570.95,-120.52C1608.14,-128.823 1655.36,-139.915 1697,-151.38 1705.78,-153.799 1715.1,-156.585 1724.02,-159.364"/>
<polygon fill="#9a32cd" stroke="#9a32cd" points="1571.26,-117.003 1560.74,-118.254 1569.74,-123.837 1571.26,-117.003"/>
<text text-anchor="middle" x="1642.5" y="-154.38" font-family="Helvetica,sans-Serif" font-size="10.00"> bottom_reader_</text>
</g>
<!-- Node26 -->
<g id="node26" class="node"><title>Node26</title>
<g id="a_node26"><a xlink:href="../../df/dfe/classboca_1_1standardmodel_1_1tagger_1_1TopLeptonic.html" target="_top" xlink:title="BDT tagger for leptonically decaying top quarks. ">
<polygon fill="white" stroke="black" points="1716,-59.38 1716,-89.38 1825,-89.38 1825,-59.38 1716,-59.38"/>
<text text-anchor="start" x="1724" y="-77.38" font-family="Helvetica,sans-Serif" font-size="10.00">boca::standardmodel</text>
<text text-anchor="middle" x="1770.5" y="-66.38" font-family="Helvetica,sans-Serif" font-size="10.00">::tagger::TopLeptonic</text>
</a>
</g>
</g>
<!-- Node24&#45;&gt;Node26 -->
<g id="edge38" class="edge"><title>Node24&#45;&gt;Node26</title>
<path fill="none" stroke="#9a32cd" stroke-dasharray="5,2" d="M1560.73,-82.5428C1569.7,-79.5891 1579,-77.0314 1588,-75.38 1630.46,-67.5885 1679.46,-67.8499 1715.83,-69.7766"/>
<polygon fill="#9a32cd" stroke="#9a32cd" points="1559.44,-79.2846 1551.15,-85.8791 1561.74,-85.8951 1559.44,-79.2846"/>
<text text-anchor="middle" x="1642.5" y="-78.38" font-family="Helvetica,sans-Serif" font-size="10.00"> bottom_reader_</text>
</g>
<!-- Node25&#45;&gt;Node1 -->
<g id="edge30" class="edge"><title>Node25&#45;&gt;Node1</title>
<path fill="none" stroke="#9a32cd" stroke-dasharray="5,2" d="M2014.24,-93.7856C2075.23,-122.488 2187.21,-175.186 2233.09,-196.773"/>
<polygon fill="#9a32cd" stroke="#9a32cd" points="2015.44,-90.4847 2004.9,-89.3936 2012.46,-96.8185 2015.44,-90.4847"/>
<text text-anchor="middle" x="2112.5" y="-163.38" font-family="Helvetica,sans-Serif" font-size="10.00"> top_leptonic_reader_</text>
</g>
<!-- Node26&#45;&gt;Node25 -->
<g id="edge31" class="edge"><title>Node26&#45;&gt;Node25</title>
<path fill="none" stroke="#9a32cd" stroke-dasharray="5,2" d="M1835.38,-74.38C1855.23,-74.38 1877.26,-74.38 1897.69,-74.38"/>
<polygon fill="#9a32cd" stroke="#9a32cd" points="1835.22,-70.8801 1825.22,-74.38 1835.22,-77.8801 1835.22,-70.8801"/>
<text text-anchor="middle" x="1862" y="-77.38" font-family="Helvetica,sans-Serif" font-size="10.00"> tagger_</text>
</g>
<!-- Node27&#45;&gt;Node26 -->
<g id="edge32" class="edge"><title>Node27&#45;&gt;Node26</title>
<path fill="none" stroke="midnightblue" d="M1528.29,-244.96C1541.45,-231.585 1557.68,-213.849 1570,-196.38 1579.85,-182.406 1575.21,-173.729 1588,-162.38 1626.83,-127.92 1650.63,-143.734 1697,-120.38 1714.97,-111.327 1734.15,-99.0303 1748.27,-89.428"/>
<polygon fill="midnightblue" stroke="midnightblue" points="1525.54,-242.753 1520.94,-252.297 1530.49,-247.704 1525.54,-242.753"/>
</g>
<!-- Node28&#45;&gt;Node27 -->
<g id="edge34" class="edge"><title>Node28&#45;&gt;Node27</title>
<path fill="none" stroke="#9a32cd" stroke-dasharray="5,2" d="M1267.74,-219.118C1311.25,-220.741 1369.62,-225.109 1420,-236.38 1436.51,-240.074 1454.16,-246.317 1468.92,-252.237"/>
<polygon fill="#9a32cd" stroke="#9a32cd" points="1267.69,-215.615 1257.57,-218.779 1267.45,-222.611 1267.69,-215.615"/>
<text text-anchor="middle" x="1352" y="-239.38" font-family="Helvetica,sans-Serif" font-size="10.00"> branch_</text>
</g>
<!-- Node29&#45;&gt;Node26 -->
<g id="edge39" class="edge"><title>Node29&#45;&gt;Node26</title>
<path fill="none" stroke="#9a32cd" stroke-dasharray="5,2" d="M1570.96,-36.4897C1608.34,-33.314 1655.75,-32.4338 1697,-41.38 1713.22,-44.8974 1730.16,-52.3682 1743.59,-59.3133"/>
<polygon fill="#9a32cd" stroke="#9a32cd" points="1570.33,-33.033 1560.69,-37.44 1570.97,-40.0032 1570.33,-33.033"/>
<text text-anchor="middle" x="1642.5" y="-44.38" font-family="Helvetica,sans-Serif" font-size="10.00"> w_leptonic_reader_</text>
</g>
</g>
</svg>
