<?xml version="1.0" encoding="UTF-8" standalone="no"?>
<!DOCTYPE svg PUBLIC "-//W3C//DTD SVG 1.1//EN"
 "http://www.w3.org/Graphics/SVG/1.1/DTD/svg11.dtd">
<!-- Generated by graphviz version 2.38.0 (20140413.2041)
 -->
<!-- Title: boca/tagger/Event.hh Pages: 1 -->
<svg width="2556pt" height="397pt"
 viewBox="0.00 0.00 2555.50 397.00" xmlns="http://www.w3.org/2000/svg" xmlns:xlink="http://www.w3.org/1999/xlink">
<g id="graph0" class="graph" transform="scale(1 1) rotate(0) translate(4 393)">
<title>boca/tagger/Event.hh</title>
<polygon fill="white" stroke="none" points="-4,4 -4,-393 2551.5,-393 2551.5,4 -4,4"/>
<!-- Node1 -->
<g id="node1" class="node"><title>Node1</title>
<polygon fill="#bfbfbf" stroke="black" points="1507,-369.5 1507,-388.5 1617,-388.5 1617,-369.5 1507,-369.5"/>
<text text-anchor="middle" x="1562" y="-376.5" font-family="Helvetica,sans-Serif" font-size="10.00">boca/tagger/Event.hh</text>
</g>
<!-- Node2 -->
<g id="node2" class="node"><title>Node2</title>
<g id="a_node2"><a xlink:href="EventMultiplet_8hh.html" target="_top" xlink:title="boca/multiplets/EventMultiplet.hh">
<polygon fill="white" stroke="black" points="891.5,-313.5 891.5,-332.5 1052.5,-332.5 1052.5,-313.5 891.5,-313.5"/>
<text text-anchor="middle" x="972" y="-320.5" font-family="Helvetica,sans-Serif" font-size="10.00">boca/multiplets/EventMultiplet.hh</text>
</a>
</g>
</g>
<!-- Node1&#45;&gt;Node2 -->
<g id="edge1" class="edge"><title>Node1&#45;&gt;Node2</title>
<path fill="none" stroke="midnightblue" d="M1506.76,-372.944C1404.92,-363.623 1186.69,-343.649 1062.79,-332.31"/>
<polygon fill="midnightblue" stroke="midnightblue" points="1062.85,-328.801 1052.57,-331.375 1062.21,-335.772 1062.85,-328.801"/>
</g>
<!-- Node31 -->
<g id="node31" class="node"><title>Node31</title>
<g id="a_node31"><a xlink:href="boca_2branch_2Event_8hh.html" target="_top" xlink:title="boca/branch/Event.hh">
<polygon fill="white" stroke="black" points="2362,-257.5 2362,-276.5 2474,-276.5 2474,-257.5 2362,-257.5"/>
<text text-anchor="middle" x="2418" y="-264.5" font-family="Helvetica,sans-Serif" font-size="10.00">boca/branch/Event.hh</text>
</a>
</g>
</g>
<!-- Node1&#45;&gt;Node31 -->
<g id="edge36" class="edge"><title>Node1&#45;&gt;Node31</title>
<path fill="none" stroke="midnightblue" d="M1617.17,-371.16C1744.52,-355.326 2069.1,-314.718 2351.94,-277.13"/>
<polygon fill="midnightblue" stroke="midnightblue" points="2352.53,-280.582 2361.99,-275.794 2351.61,-273.643 2352.53,-280.582"/>
</g>
<!-- Node37 -->
<g id="node37" class="node"><title>Node37</title>
<g id="a_node37"><a xlink:href="boca_2tagger_2Global_8hh.html" target="_top" xlink:title="boca/tagger/Global.hh">
<polygon fill="white" stroke="black" points="1506,-313.5 1506,-332.5 1618,-332.5 1618,-313.5 1506,-313.5"/>
<text text-anchor="middle" x="1562" y="-320.5" font-family="Helvetica,sans-Serif" font-size="10.00">boca/tagger/Global.hh</text>
</a>
</g>
</g>
<!-- Node1&#45;&gt;Node37 -->
<g id="edge44" class="edge"><title>Node1&#45;&gt;Node37</title>
<path fill="none" stroke="midnightblue" d="M1562,-369.083C1562,-362.006 1562,-351.861 1562,-342.986"/>
<polygon fill="midnightblue" stroke="midnightblue" points="1565.5,-342.751 1562,-332.751 1558.5,-342.751 1565.5,-342.751"/>
</g>
<!-- Node3 -->
<g id="node3" class="node"><title>Node3</title>
<g id="a_node3"><a xlink:href="boca_2multiplets_2Global_8hh.html" target="_top" xlink:title="boca/multiplets/Global.hh">
<polygon fill="white" stroke="black" points="756.5,-257.5 756.5,-276.5 883.5,-276.5 883.5,-257.5 756.5,-257.5"/>
<text text-anchor="middle" x="820" y="-264.5" font-family="Helvetica,sans-Serif" font-size="10.00">boca/multiplets/Global.hh</text>
</a>
</g>
</g>
<!-- Node2&#45;&gt;Node3 -->
<g id="edge2" class="edge"><title>Node2&#45;&gt;Node3</title>
<path fill="none" stroke="midnightblue" d="M947.915,-313.444C922.455,-304.399 882.106,-290.064 853.541,-279.916"/>
<polygon fill="midnightblue" stroke="midnightblue" points="854.567,-276.566 843.972,-276.516 852.223,-283.162 854.567,-276.566"/>
</g>
<!-- Node9 -->
<g id="node9" class="node"><title>Node9</title>
<g id="a_node9"><a xlink:href="multiplets_2TwoBody_8hh.html" target="_top" xlink:title="boca/multiplets/TwoBody.hh">
<polygon fill="white" stroke="black" points="902,-257.5 902,-276.5 1042,-276.5 1042,-257.5 902,-257.5"/>
<text text-anchor="middle" x="972" y="-264.5" font-family="Helvetica,sans-Serif" font-size="10.00">boca/multiplets/TwoBody.hh</text>
</a>
</g>
</g>
<!-- Node2&#45;&gt;Node9 -->
<g id="edge8" class="edge"><title>Node2&#45;&gt;Node9</title>
<path fill="none" stroke="midnightblue" d="M972,-313.083C972,-306.006 972,-295.861 972,-286.986"/>
<polygon fill="midnightblue" stroke="midnightblue" points="975.5,-286.751 972,-276.751 968.5,-286.751 975.5,-286.751"/>
</g>
<!-- Node4 -->
<g id="node4" class="node"><title>Node4</title>
<g id="a_node4"><a xlink:href="Singlet_8hh.html" target="_top" xlink:title="boca/multiplets/Singlet.hh">
<polygon fill="white" stroke="black" points="498.5,-129 498.5,-148 627.5,-148 627.5,-129 498.5,-129"/>
<text text-anchor="middle" x="563" y="-136" font-family="Helvetica,sans-Serif" font-size="10.00">boca/multiplets/Singlet.hh</text>
</a>
</g>
</g>
<!-- Node3&#45;&gt;Node4 -->
<g id="edge3" class="edge"><title>Node3&#45;&gt;Node4</title>
<path fill="none" stroke="midnightblue" d="M756.316,-264.356C686.015,-261.039 579.394,-251.05 554,-221 539.184,-203.467 546.604,-175.686 554.125,-157.524"/>
<polygon fill="midnightblue" stroke="midnightblue" points="557.356,-158.874 558.286,-148.32 550.977,-155.99 557.356,-158.874"/>
</g>
<!-- Node5 -->
<g id="node5" class="node"><title>Node5</title>
<g id="a_node5"><a xlink:href="Mutable_8hh.html" target="_top" xlink:title="boca/generic/Mutable.hh">
<polygon fill="white" stroke="red" points="894.5,-62 894.5,-81 1017.5,-81 1017.5,-62 894.5,-62"/>
<text text-anchor="middle" x="956" y="-69" font-family="Helvetica,sans-Serif" font-size="10.00">boca/generic/Mutable.hh</text>
</a>
</g>
</g>
<!-- Node4&#45;&gt;Node5 -->
<g id="edge4" class="edge"><title>Node4&#45;&gt;Node5</title>
<path fill="none" stroke="midnightblue" d="M622.781,-128.963C687.535,-119.52 793.813,-103.453 885,-87 891.738,-85.7843 898.82,-84.4301 905.795,-83.0514"/>
<polygon fill="midnightblue" stroke="midnightblue" points="906.769,-86.4258 915.885,-81.027 905.392,-79.5626 906.769,-86.4258"/>
</g>
<!-- Node7 -->
<g id="node7" class="node"><title>Node7</title>
<g id="a_node7"><a xlink:href="Line2_8hh.html" target="_top" xlink:title="boca/math/Line2.hh">
<polygon fill="white" stroke="red" points="467,-62 467,-81 569,-81 569,-62 467,-62"/>
<text text-anchor="middle" x="518" y="-69" font-family="Helvetica,sans-Serif" font-size="10.00">boca/math/Line2.hh</text>
</a>
</g>
</g>
<!-- Node4&#45;&gt;Node7 -->
<g id="edge6" class="edge"><title>Node4&#45;&gt;Node7</title>
<path fill="none" stroke="midnightblue" d="M556.931,-128.734C549.981,-118.695 538.433,-102.014 529.715,-89.4213"/>
<polygon fill="midnightblue" stroke="midnightblue" points="532.543,-87.357 523.973,-81.1273 526.787,-91.3415 532.543,-87.357"/>
</g>
<!-- Node8 -->
<g id="node8" class="node"><title>Node8</title>
<g id="a_node8"><a xlink:href="Jet_8hh.html" target="_top" xlink:title="boca/fastjet/Jet.hh">
<polygon fill="white" stroke="red" points="351,-62 351,-81 449,-81 449,-62 351,-62"/>
<text text-anchor="middle" x="400" y="-69" font-family="Helvetica,sans-Serif" font-size="10.00">boca/fastjet/Jet.hh</text>
</a>
</g>
</g>
<!-- Node4&#45;&gt;Node8 -->
<g id="edge7" class="edge"><title>Node4&#45;&gt;Node8</title>
<path fill="none" stroke="midnightblue" d="M541.355,-128.869C513.023,-117.571 463.184,-97.6961 430.891,-84.8183"/>
<polygon fill="midnightblue" stroke="midnightblue" points="432.06,-81.5168 421.475,-81.0637 429.467,-88.0189 432.06,-81.5168"/>
</g>
<!-- Node6 -->
<g id="node6" class="node"><title>Node6</title>
<g id="a_node6"><a xlink:href="Debug_8hh.html" target="_top" xlink:title="boca/generic/Debug.hh">
<polygon fill="white" stroke="red" points="1344.5,-0.5 1344.5,-19.5 1461.5,-19.5 1461.5,-0.5 1344.5,-0.5"/>
<text text-anchor="middle" x="1403" y="-7.5" font-family="Helvetica,sans-Serif" font-size="10.00">boca/generic/Debug.hh</text>
</a>
</g>
</g>
<!-- Node5&#45;&gt;Node6 -->
<g id="edge5" class="edge"><title>Node5&#45;&gt;Node6</title>
<path fill="none" stroke="midnightblue" d="M994.956,-61.9431C1005.34,-59.8276 1016.57,-57.6866 1027,-56 1133.77,-38.7383 1258.59,-25.0787 1334.17,-17.5201"/>
<polygon fill="midnightblue" stroke="midnightblue" points="1334.89,-20.9654 1344.5,-16.4943 1334.2,-13.9996 1334.89,-20.9654"/>
</g>
<!-- Node10 -->
<g id="node10" class="node"><title>Node10</title>
<polygon fill="white" stroke="#bfbfbf" points="563,-190.5 563,-220.5 673,-220.5 673,-190.5 563,-190.5"/>
<text text-anchor="start" x="571" y="-208.5" font-family="Helvetica,sans-Serif" font-size="10.00">boost/range/algorithm</text>
<text text-anchor="middle" x="618" y="-197.5" font-family="Helvetica,sans-Serif" font-size="10.00">/unique.hpp</text>
</g>
<!-- Node9&#45;&gt;Node10 -->
<g id="edge9" class="edge"><title>Node9&#45;&gt;Node10</title>
<path fill="none" stroke="midnightblue" d="M912.353,-257.478C854.587,-249.014 764.594,-235.269 687,-221 685.747,-220.77 684.482,-220.534 683.208,-220.294"/>
<polygon fill="midnightblue" stroke="midnightblue" points="683.796,-216.843 673.313,-218.38 682.467,-223.715 683.796,-216.843"/>
</g>
<!-- Node11 -->
<g id="node11" class="node"><title>Node11</title>
<polygon fill="white" stroke="#bfbfbf" points="1219,-123.5 1219,-153.5 1329,-153.5 1329,-123.5 1219,-123.5"/>
<text text-anchor="start" x="1227" y="-141.5" font-family="Helvetica,sans-Serif" font-size="10.00">boost/range/algorithm</text>
<text text-anchor="middle" x="1274" y="-130.5" font-family="Helvetica,sans-Serif" font-size="10.00">_ext/erase.hpp</text>
</g>
<!-- Node9&#45;&gt;Node11 -->
<g id="edge10" class="edge"><title>Node9&#45;&gt;Node11</title>
<path fill="none" stroke="midnightblue" d="M988.962,-257.401C1005.77,-248.717 1032.09,-234.668 1054,-221 1074.3,-208.337 1076.42,-200.332 1098,-190 1133.1,-173.193 1174.87,-160.912 1208.92,-152.672"/>
<polygon fill="midnightblue" stroke="midnightblue" points="1209.83,-156.053 1218.76,-150.35 1208.22,-149.24 1209.83,-156.053"/>
</g>
<!-- Node12 -->
<g id="node12" class="node"><title>Node12</title>
<g id="a_node12"><a xlink:href="ClusterSequence_8hh.html" target="_top" xlink:title="boca/fastjet/ClusterSequence.hh">
<polygon fill="white" stroke="black" points="586.5,-62 586.5,-81 745.5,-81 745.5,-62 586.5,-62"/>
<text text-anchor="middle" x="666" y="-69" font-family="Helvetica,sans-Serif" font-size="10.00">boca/fastjet/ClusterSequence.hh</text>
</a>
</g>
</g>
<!-- Node9&#45;&gt;Node12 -->
<g id="edge11" class="edge"><title>Node9&#45;&gt;Node12</title>
<path fill="none" stroke="midnightblue" d="M925.485,-257.456C892.276,-250.322 847.103,-238.474 810,-221 762.928,-198.832 749.346,-192.181 714,-154 696.189,-134.76 681.923,-107.817 673.709,-90.264"/>
<polygon fill="midnightblue" stroke="midnightblue" points="676.896,-88.8168 669.591,-81.1431 670.516,-91.6974 676.896,-88.8168"/>
</g>
<!-- Node14 -->
<g id="node14" class="node"><title>Node14</title>
<g id="a_node14"><a xlink:href="generic_2Vector_8hh.html" target="_top" xlink:title="boca/generic/Vector.hh">
<polygon fill="white" stroke="black" points="1376.5,-129 1376.5,-148 1493.5,-148 1493.5,-129 1376.5,-129"/>
<text text-anchor="middle" x="1435" y="-136" font-family="Helvetica,sans-Serif" font-size="10.00">boca/generic/Vector.hh</text>
</a>
</g>
</g>
<!-- Node9&#45;&gt;Node14 -->
<g id="edge14" class="edge"><title>Node9&#45;&gt;Node14</title>
<path fill="none" stroke="midnightblue" d="M999.955,-257.354C1024.37,-249.336 1060.42,-236.35 1090,-221 1111.88,-209.645 1113.11,-199.148 1136,-190 1146.85,-185.665 1286.45,-163.056 1371.01,-149.603"/>
<polygon fill="midnightblue" stroke="midnightblue" points="1371.71,-153.036 1381.03,-148.01 1370.61,-146.123 1371.71,-153.036"/>
</g>
<!-- Node20 -->
<g id="node20" class="node"><title>Node20</title>
<g id="a_node20"><a xlink:href="Multiplet_8hh.html" target="_top" xlink:title="boca/multiplets/Multiplet.hh">
<polygon fill="white" stroke="black" points="357,-196 357,-215 493,-215 493,-196 357,-196"/>
<text text-anchor="middle" x="425" y="-203" font-family="Helvetica,sans-Serif" font-size="10.00">boca/multiplets/Multiplet.hh</text>
</a>
</g>
</g>
<!-- Node9&#45;&gt;Node20 -->
<g id="edge20" class="edge"><title>Node9&#45;&gt;Node20</title>
<path fill="none" stroke="midnightblue" d="M901.763,-258.074C898.463,-257.71 895.195,-257.35 892,-257 741.826,-240.555 704.175,-237.437 554,-221 537.674,-219.213 520.189,-217.268 503.528,-215.401"/>
<polygon fill="midnightblue" stroke="midnightblue" points="503.607,-211.888 493.279,-214.25 502.826,-218.844 503.607,-211.888"/>
</g>
<!-- Node25 -->
<g id="node25" class="node"><title>Node25</title>
<g id="a_node25"><a xlink:href="Sort_8hh.html" target="_top" xlink:title="boca/fastjet/Sort.hh">
<polygon fill="white" stroke="black" points="819,-196 819,-215 921,-215 921,-196 819,-196"/>
<text text-anchor="middle" x="870" y="-203" font-family="Helvetica,sans-Serif" font-size="10.00">boca/fastjet/Sort.hh</text>
</a>
</g>
</g>
<!-- Node9&#45;&gt;Node25 -->
<g id="edge28" class="edge"><title>Node9&#45;&gt;Node25</title>
<path fill="none" stroke="midnightblue" d="M957.386,-257.475C940.647,-247.711 912.996,-231.581 893.281,-220.081"/>
<polygon fill="midnightblue" stroke="midnightblue" points="894.988,-217.025 884.587,-215.009 891.461,-223.071 894.988,-217.025"/>
</g>
<!-- Node29 -->
<g id="node29" class="node"><title>Node29</title>
<g id="a_node29"><a xlink:href="Settings_8hh.html" target="_top" xlink:title="boca/Settings.hh">
<polygon fill="white" stroke="red" points="1526,-129 1526,-148 1616,-148 1616,-129 1526,-129"/>
<text text-anchor="middle" x="1571" y="-136" font-family="Helvetica,sans-Serif" font-size="10.00">boca/Settings.hh</text>
</a>
</g>
</g>
<!-- Node9&#45;&gt;Node29 -->
<g id="edge33" class="edge"><title>Node9&#45;&gt;Node29</title>
<path fill="none" stroke="midnightblue" d="M1016.63,-257.441C1048.47,-250.3 1091.71,-238.45 1127,-221 1147.8,-210.717 1147.38,-198.428 1169,-190 1307.69,-135.924 1354.98,-177.336 1502,-154 1509.15,-152.865 1516.67,-151.482 1524.02,-150.024"/>
<polygon fill="midnightblue" stroke="midnightblue" points="1524.79,-153.44 1533.88,-148.007 1523.38,-146.582 1524.79,-153.44"/>
</g>
<!-- Node12&#45;&gt;Node12 -->
<g id="edge12" class="edge"><title>Node12&#45;&gt;Node12</title>
<path fill="none" stroke="midnightblue" d="M702.001,-81.0334C732.075,-85.1075 763.5,-81.9297 763.5,-71.5 763.5,-62.2518 738.792,-58.7055 712.226,-60.8612"/>
<polygon fill="midnightblue" stroke="midnightblue" points="711.566,-57.412 702.001,-61.9666 712.319,-64.3715 711.566,-57.412"/>
</g>
<!-- Node13 -->
<g id="node13" class="node"><title>Node13</title>
<g id="a_node13"><a xlink:href="ElectronVolt_8hh.html" target="_top" xlink:title="boca/units/ElectronVolt.hh">
<polygon fill="white" stroke="red" points="763.5,-0.5 763.5,-19.5 894.5,-19.5 894.5,-0.5 763.5,-0.5"/>
<text text-anchor="middle" x="829" y="-7.5" font-family="Helvetica,sans-Serif" font-size="10.00">boca/units/ElectronVolt.hh</text>
</a>
</g>
</g>
<!-- Node12&#45;&gt;Node13 -->
<g id="edge13" class="edge"><title>Node12&#45;&gt;Node13</title>
<path fill="none" stroke="midnightblue" d="M689.354,-61.9751C717.314,-51.7687 764.326,-34.608 795.991,-23.0492"/>
<polygon fill="midnightblue" stroke="midnightblue" points="797.496,-26.2259 805.689,-19.5091 795.095,-19.6503 797.496,-26.2259"/>
</g>
<!-- Node15 -->
<g id="node15" class="node"><title>Node15</title>
<polygon fill="white" stroke="#bfbfbf" points="1036,-56.5 1036,-86.5 1146,-86.5 1146,-56.5 1036,-56.5"/>
<text text-anchor="start" x="1044" y="-74.5" font-family="Helvetica,sans-Serif" font-size="10.00">boost/range/algorithm</text>
<text text-anchor="middle" x="1091" y="-63.5" font-family="Helvetica,sans-Serif" font-size="10.00">/find.hpp</text>
</g>
<!-- Node14&#45;&gt;Node15 -->
<g id="edge15" class="edge"><title>Node14&#45;&gt;Node15</title>
<path fill="none" stroke="midnightblue" d="M1383.78,-128.963C1329.62,-119.781 1241.47,-104.388 1155.99,-87.1529"/>
<polygon fill="midnightblue" stroke="midnightblue" points="1156.62,-83.709 1146.12,-85.1523 1155.23,-90.5694 1156.62,-83.709"/>
</g>
<!-- Node16 -->
<g id="node16" class="node"><title>Node16</title>
<polygon fill="white" stroke="#bfbfbf" points="1164,-56.5 1164,-86.5 1274,-86.5 1274,-56.5 1164,-56.5"/>
<text text-anchor="start" x="1172" y="-74.5" font-family="Helvetica,sans-Serif" font-size="10.00">boost/range/algorithm</text>
<text text-anchor="middle" x="1219" y="-63.5" font-family="Helvetica,sans-Serif" font-size="10.00">/min_element.hpp</text>
</g>
<!-- Node14&#45;&gt;Node16 -->
<g id="edge16" class="edge"><title>Node14&#45;&gt;Node16</title>
<path fill="none" stroke="midnightblue" d="M1406.32,-128.869C1373.06,-118.862 1317.45,-102.127 1275.44,-89.4841"/>
<polygon fill="midnightblue" stroke="midnightblue" points="1276.2,-86.0582 1265.62,-86.5281 1274.18,-92.7613 1276.2,-86.0582"/>
</g>
<!-- Node17 -->
<g id="node17" class="node"><title>Node17</title>
<polygon fill="white" stroke="#bfbfbf" points="1292,-56.5 1292,-86.5 1402,-86.5 1402,-56.5 1292,-56.5"/>
<text text-anchor="start" x="1300" y="-74.5" font-family="Helvetica,sans-Serif" font-size="10.00">boost/range/algorithm</text>
<text text-anchor="middle" x="1347" y="-63.5" font-family="Helvetica,sans-Serif" font-size="10.00">_ext/push_back.hpp</text>
</g>
<!-- Node14&#45;&gt;Node17 -->
<g id="edge17" class="edge"><title>Node14&#45;&gt;Node17</title>
<path fill="none" stroke="midnightblue" d="M1423.13,-128.734C1410.67,-119.527 1390.64,-104.733 1374.25,-92.6293"/>
<polygon fill="midnightblue" stroke="midnightblue" points="1376.2,-89.7151 1366.07,-86.589 1372.04,-95.3457 1376.2,-89.7151"/>
</g>
<!-- Node18 -->
<g id="node18" class="node"><title>Node18</title>
<polygon fill="white" stroke="#bfbfbf" points="1420,-56.5 1420,-86.5 1530,-86.5 1530,-56.5 1420,-56.5"/>
<text text-anchor="start" x="1428" y="-74.5" font-family="Helvetica,sans-Serif" font-size="10.00">boost/range/algorithm</text>
<text text-anchor="middle" x="1475" y="-63.5" font-family="Helvetica,sans-Serif" font-size="10.00">/transform.hpp</text>
</g>
<!-- Node14&#45;&gt;Node18 -->
<g id="edge18" class="edge"><title>Node14&#45;&gt;Node18</title>
<path fill="none" stroke="midnightblue" d="M1440.39,-128.734C1445.64,-120.203 1453.85,-106.874 1460.95,-95.3345"/>
<polygon fill="midnightblue" stroke="midnightblue" points="1464.07,-96.94 1466.33,-86.589 1458.11,-93.2713 1464.07,-96.94"/>
</g>
<!-- Node19 -->
<g id="node19" class="node"><title>Node19</title>
<polygon fill="white" stroke="#bfbfbf" points="1548.5,-62 1548.5,-81 1675.5,-81 1675.5,-62 1548.5,-62"/>
<text text-anchor="middle" x="1612" y="-69" font-family="Helvetica,sans-Serif" font-size="10.00">boost/range/adaptors.hpp</text>
</g>
<!-- Node14&#45;&gt;Node19 -->
<g id="edge19" class="edge"><title>Node14&#45;&gt;Node19</title>
<path fill="none" stroke="midnightblue" d="M1458.5,-128.869C1489.4,-117.522 1543.86,-97.5246 1578.91,-84.6522"/>
<polygon fill="midnightblue" stroke="midnightblue" points="1580.5,-87.7964 1588.68,-81.0637 1578.09,-81.2255 1580.5,-87.7964"/>
</g>
<!-- Node20&#45;&gt;Node4 -->
<g id="edge21" class="edge"><title>Node20&#45;&gt;Node4</title>
<path fill="none" stroke="midnightblue" d="M443.325,-195.869C466.936,-184.748 508.189,-165.317 535.552,-152.429"/>
<polygon fill="midnightblue" stroke="midnightblue" points="537.044,-155.595 544.599,-148.167 534.061,-149.262 537.044,-155.595"/>
</g>
<!-- Node21 -->
<g id="node21" class="node"><title>Node21</title>
<g id="a_node21"><a xlink:href="fastjet_2Particle_8hh.html" target="_top" xlink:title="boca/fastjet/Particle.hh">
<polygon fill="white" stroke="red" points="992.5,-129 992.5,-148 1109.5,-148 1109.5,-129 992.5,-129"/>
<text text-anchor="middle" x="1051" y="-136" font-family="Helvetica,sans-Serif" font-size="10.00">boca/fastjet/Particle.hh</text>
</a>
</g>
</g>
<!-- Node20&#45;&gt;Node21 -->
<g id="edge22" class="edge"><title>Node20&#45;&gt;Node21</title>
<path fill="none" stroke="midnightblue" d="M493.249,-196.465C512.851,-194.256 534.262,-191.937 554,-190 744.422,-171.312 793.724,-182.007 983,-154 990.224,-152.931 997.832,-151.557 1005.24,-150.083"/>
<polygon fill="midnightblue" stroke="midnightblue" points="1006.08,-153.484 1015.16,-148.029 1004.66,-146.629 1006.08,-153.484"/>
</g>
<!-- Node22 -->
<g id="node22" class="node"><title>Node22</title>
<g id="a_node22"><a xlink:href="ClosestLepton_8hh.html" target="_top" xlink:title="boca/multiplets/ClosestLepton.hh">
<polygon fill="white" stroke="black" points="0,-129 0,-148 162,-148 162,-129 0,-129"/>
<text text-anchor="middle" x="81" y="-136" font-family="Helvetica,sans-Serif" font-size="10.00">boca/multiplets/ClosestLepton.hh</text>
</a>
</g>
</g>
<!-- Node20&#45;&gt;Node22 -->
<g id="edge23" class="edge"><title>Node20&#45;&gt;Node22</title>
<path fill="none" stroke="midnightblue" d="M379.674,-195.936C316.941,-184.082 203.761,-162.696 136.186,-149.928"/>
<polygon fill="midnightblue" stroke="midnightblue" points="136.629,-146.449 126.153,-148.032 135.329,-153.328 136.629,-146.449"/>
</g>
<!-- Node23 -->
<g id="node23" class="node"><title>Node23</title>
<g id="a_node23"><a xlink:href="SubJettiness_8hh.html" target="_top" xlink:title="boca/fastjet/SubJettiness.hh">
<polygon fill="white" stroke="red" points="180.5,-129 180.5,-148 321.5,-148 321.5,-129 180.5,-129"/>
<text text-anchor="middle" x="251" y="-136" font-family="Helvetica,sans-Serif" font-size="10.00">boca/fastjet/SubJettiness.hh</text>
</a>
</g>
</g>
<!-- Node20&#45;&gt;Node23 -->
<g id="edge25" class="edge"><title>Node20&#45;&gt;Node23</title>
<path fill="none" stroke="midnightblue" d="M401.894,-195.869C371.52,-184.522 317.989,-164.525 283.531,-151.652"/>
<polygon fill="midnightblue" stroke="midnightblue" points="284.517,-148.284 273.924,-148.064 282.067,-154.842 284.517,-148.284"/>
</g>
<!-- Node24 -->
<g id="node24" class="node"><title>Node24</title>
<g id="a_node24"><a xlink:href="EventShapes_8hh.html" target="_top" xlink:title="boca/event/EventShapes.hh">
<polygon fill="white" stroke="red" points="340,-129 340,-148 480,-148 480,-129 340,-129"/>
<text text-anchor="middle" x="410" y="-136" font-family="Helvetica,sans-Serif" font-size="10.00">boca/event/EventShapes.hh</text>
</a>
</g>
</g>
<!-- Node20&#45;&gt;Node24 -->
<g id="edge26" class="edge"><title>Node20&#45;&gt;Node24</title>
<path fill="none" stroke="midnightblue" d="M422.977,-195.734C420.75,-186.085 417.108,-170.3 414.248,-157.906"/>
<polygon fill="midnightblue" stroke="midnightblue" points="417.65,-157.084 411.991,-148.127 410.829,-158.658 417.65,-157.084"/>
</g>
<!-- Node22&#45;&gt;Node8 -->
<g id="edge24" class="edge"><title>Node22&#45;&gt;Node8</title>
<path fill="none" stroke="midnightblue" d="M123.032,-128.936C180.967,-117.131 285.299,-95.8716 348.051,-83.0853"/>
<polygon fill="midnightblue" stroke="midnightblue" points="349.029,-86.4579 358.129,-81.0317 347.631,-79.5989 349.029,-86.4579"/>
</g>
<!-- Node24&#45;&gt;Node8 -->
<g id="edge27" class="edge"><title>Node24&#45;&gt;Node8</title>
<path fill="none" stroke="midnightblue" d="M408.651,-128.734C407.182,-119.183 404.787,-103.618 402.89,-91.2829"/>
<polygon fill="midnightblue" stroke="midnightblue" points="406.307,-90.4788 401.327,-81.1273 399.389,-91.5432 406.307,-90.4788"/>
</g>
<!-- Node26 -->
<g id="node26" class="node"><title>Node26</title>
<polygon fill="white" stroke="#bfbfbf" points="864,-123.5 864,-153.5 974,-153.5 974,-123.5 864,-123.5"/>
<text text-anchor="start" x="872" y="-141.5" font-family="Helvetica,sans-Serif" font-size="10.00">boost/range/algorithm</text>
<text text-anchor="middle" x="919" y="-130.5" font-family="Helvetica,sans-Serif" font-size="10.00">/sort.hpp</text>
</g>
<!-- Node25&#45;&gt;Node26 -->
<g id="edge29" class="edge"><title>Node25&#45;&gt;Node26</title>
<path fill="none" stroke="midnightblue" d="M876.608,-195.734C883.167,-187.034 893.486,-173.345 902.301,-161.651"/>
<polygon fill="midnightblue" stroke="midnightblue" points="905.154,-163.681 908.379,-153.589 899.565,-159.467 905.154,-163.681"/>
</g>
<!-- Node27 -->
<g id="node27" class="node"><title>Node27</title>
<polygon fill="white" stroke="#bfbfbf" points="732.5,-129 732.5,-148 845.5,-148 845.5,-129 732.5,-129"/>
<text text-anchor="middle" x="789" y="-136" font-family="Helvetica,sans-Serif" font-size="10.00">boost/units/cmath.hpp</text>
</g>
<!-- Node25&#45;&gt;Node27 -->
<g id="edge30" class="edge"><title>Node25&#45;&gt;Node27</title>
<path fill="none" stroke="midnightblue" d="M859.076,-195.734C845.959,-185.208 823.742,-167.379 807.839,-154.617"/>
<polygon fill="midnightblue" stroke="midnightblue" points="809.741,-151.656 799.751,-148.127 805.36,-157.116 809.741,-151.656"/>
</g>
<!-- Node28 -->
<g id="node28" class="node"><title>Node28</title>
<g id="a_node28"><a xlink:href="Id_8hh.html" target="_top" xlink:title="boca/identification\l/Id.hh">
<polygon fill="white" stroke="red" points="781.5,-56.5 781.5,-86.5 876.5,-86.5 876.5,-56.5 781.5,-56.5"/>
<text text-anchor="start" x="789.5" y="-74.5" font-family="Helvetica,sans-Serif" font-size="10.00">boca/identification</text>
<text text-anchor="middle" x="829" y="-63.5" font-family="Helvetica,sans-Serif" font-size="10.00">/Id.hh</text>
</a>
</g>
</g>
<!-- Node25&#45;&gt;Node28 -->
<g id="edge31" class="edge"><title>Node25&#45;&gt;Node28</title>
<path fill="none" stroke="midnightblue" d="M818.886,-201.522C785.662,-196.616 744.636,-184.309 723,-154 714.995,-142.786 715.645,-134.651 723,-123 729.772,-112.272 755.02,-100.037 779.175,-90.2971"/>
<polygon fill="midnightblue" stroke="midnightblue" points="780.662,-93.4732 788.691,-86.5596 778.103,-86.9578 780.662,-93.4732"/>
</g>
<!-- Node28&#45;&gt;Node13 -->
<g id="edge32" class="edge"><title>Node28&#45;&gt;Node13</title>
<path fill="none" stroke="midnightblue" d="M829,-56.3993C829,-48.4664 829,-38.458 829,-29.8583"/>
<polygon fill="midnightblue" stroke="midnightblue" points="832.5,-29.6577 829,-19.6578 825.5,-29.6578 832.5,-29.6577"/>
</g>
<!-- Node30 -->
<g id="node30" class="node"><title>Node30</title>
<g id="a_node30"><a xlink:href="Prefixes_8hh.html" target="_top" xlink:title="boca/units/Prefixes.hh">
<polygon fill="white" stroke="red" points="1694,-62 1694,-81 1808,-81 1808,-62 1694,-62"/>
<text text-anchor="middle" x="1751" y="-69" font-family="Helvetica,sans-Serif" font-size="10.00">boca/units/Prefixes.hh</text>
</a>
</g>
</g>
<!-- Node29&#45;&gt;Node30 -->
<g id="edge34" class="edge"><title>Node29&#45;&gt;Node30</title>
<path fill="none" stroke="midnightblue" d="M1594.9,-128.869C1626.46,-117.473 1682.18,-97.3528 1717.81,-84.4869"/>
<polygon fill="midnightblue" stroke="midnightblue" points="1719.07,-87.7521 1727.29,-81.0637 1716.69,-81.1682 1719.07,-87.7521"/>
</g>
<!-- Node30&#45;&gt;Node13 -->
<g id="edge35" class="edge"><title>Node30&#45;&gt;Node13</title>
<path fill="none" stroke="midnightblue" d="M1716.76,-61.9819C1706.3,-59.6815 1694.73,-57.4346 1684,-56 1398.11,-17.7928 1054.4,-11.6521 904.767,-10.9178"/>
<polygon fill="midnightblue" stroke="midnightblue" points="904.778,-7.41788 894.763,-10.8754 904.748,-14.4178 904.778,-7.41788"/>
</g>
<!-- Node32 -->
<g id="node32" class="node"><title>Node32</title>
<g id="a_node32"><a xlink:href="Bdt_8hh.html" target="_top" xlink:title="boca/branch/Bdt.hh">
<polygon fill="white" stroke="black" points="2439.5,-196 2439.5,-215 2540.5,-215 2540.5,-196 2439.5,-196"/>
<text text-anchor="middle" x="2490" y="-203" font-family="Helvetica,sans-Serif" font-size="10.00">boca/branch/Bdt.hh</text>
</a>
</g>
</g>
<!-- Node31&#45;&gt;Node32 -->
<g id="edge37" class="edge"><title>Node31&#45;&gt;Node32</title>
<path fill="none" stroke="midnightblue" d="M2428.32,-257.475C2439.65,-248.108 2458.07,-232.884 2471.84,-221.508"/>
<polygon fill="midnightblue" stroke="midnightblue" points="2474.22,-224.077 2479.7,-215.009 2469.77,-218.681 2474.22,-224.077"/>
</g>
<!-- Node35 -->
<g id="node35" class="node"><title>Node35</title>
<g id="a_node35"><a xlink:href="GlobalBase_8hh.html" target="_top" xlink:title="boca/branch/GlobalBase.hh">
<polygon fill="white" stroke="black" points="2284.5,-196 2284.5,-215 2421.5,-215 2421.5,-196 2284.5,-196"/>
<text text-anchor="middle" x="2353" y="-203" font-family="Helvetica,sans-Serif" font-size="10.00">boca/branch/GlobalBase.hh</text>
</a>
</g>
</g>
<!-- Node31&#45;&gt;Node35 -->
<g id="edge40" class="edge"><title>Node31&#45;&gt;Node35</title>
<path fill="none" stroke="midnightblue" d="M2408.69,-257.475C2398.55,-248.197 2382.14,-233.171 2369.75,-221.831"/>
<polygon fill="midnightblue" stroke="midnightblue" points="2372.04,-219.18 2362.3,-215.009 2367.31,-224.343 2372.04,-219.18"/>
</g>
<!-- Node33 -->
<g id="node33" class="node"><title>Node33</title>
<g id="a_node33"><a xlink:href="branch_2Result_8hh.html" target="_top" xlink:title="boca/branch/Result.hh">
<polygon fill="white" stroke="red" points="2432.5,-129 2432.5,-148 2547.5,-148 2547.5,-129 2432.5,-129"/>
<text text-anchor="middle" x="2490" y="-136" font-family="Helvetica,sans-Serif" font-size="10.00">boca/branch/Result.hh</text>
</a>
</g>
</g>
<!-- Node32&#45;&gt;Node33 -->
<g id="edge38" class="edge"><title>Node32&#45;&gt;Node33</title>
<path fill="none" stroke="midnightblue" d="M2490,-195.734C2490,-186.183 2490,-170.618 2490,-158.283"/>
<polygon fill="midnightblue" stroke="midnightblue" points="2493.5,-158.127 2490,-148.127 2486.5,-158.127 2493.5,-158.127"/>
</g>
<!-- Node34 -->
<g id="node34" class="node"><title>Node34</title>
<g id="a_node34"><a xlink:href="boca_2multivariant_2Observables_8hh.html" target="_top" xlink:title="boca/multivariant/Observables.hh">
<polygon fill="white" stroke="red" points="2366,-62 2366,-81 2528,-81 2528,-62 2366,-62"/>
<text text-anchor="middle" x="2447" y="-69" font-family="Helvetica,sans-Serif" font-size="10.00">boca/multivariant/Observables.hh</text>
</a>
</g>
</g>
<!-- Node33&#45;&gt;Node34 -->
<g id="edge39" class="edge"><title>Node33&#45;&gt;Node34</title>
<path fill="none" stroke="midnightblue" d="M2484.2,-128.734C2477.62,-118.793 2466.74,-102.338 2458.44,-89.7892"/>
<polygon fill="midnightblue" stroke="midnightblue" points="2461.14,-87.5364 2452.71,-81.1273 2455.31,-91.3986 2461.14,-87.5364"/>
</g>
<!-- Node35&#45;&gt;Node30 -->
<g id="edge42" class="edge"><title>Node35&#45;&gt;Node30</title>
<path fill="none" stroke="midnightblue" d="M2313.96,-195.941C2208.25,-172.76 1916.53,-108.795 1800.01,-83.2459"/>
<polygon fill="midnightblue" stroke="midnightblue" points="1800.46,-79.7629 1789.95,-81.0398 1798.96,-86.6004 1800.46,-79.7629"/>
</g>
<!-- Node35&#45;&gt;Node34 -->
<g id="edge43" class="edge"><title>Node35&#45;&gt;Node34</title>
<path fill="none" stroke="midnightblue" d="M2359.17,-195.839C2374.51,-174.299 2414.6,-118 2434.88,-89.5221"/>
<polygon fill="midnightblue" stroke="midnightblue" points="2437.98,-91.1971 2440.93,-81.0212 2432.28,-87.1366 2437.98,-91.1971"/>
</g>
<!-- Node36 -->
<g id="node36" class="node"><title>Node36</title>
<polygon fill="white" stroke="#bfbfbf" points="2320,-129 2320,-148 2376,-148 2376,-129 2320,-129"/>
<text text-anchor="middle" x="2348" y="-136" font-family="Helvetica,sans-Serif" font-size="10.00">Rtypes.h</text>
</g>
<!-- Node35&#45;&gt;Node36 -->
<g id="edge41" class="edge"><title>Node35&#45;&gt;Node36</title>
<path fill="none" stroke="midnightblue" d="M2352.33,-195.734C2351.59,-186.183 2350.39,-170.618 2349.44,-158.283"/>
<polygon fill="midnightblue" stroke="midnightblue" points="2352.92,-157.829 2348.66,-148.127 2345.94,-158.366 2352.92,-157.829"/>
</g>
<!-- Node37&#45;&gt;Node3 -->
<g id="edge58" class="edge"><title>Node37&#45;&gt;Node3</title>
<path fill="none" stroke="midnightblue" d="M1505.97,-319.284C1392.56,-313.558 1127.49,-299.016 893.731,-277.015"/>
<polygon fill="midnightblue" stroke="midnightblue" points="893.964,-273.521 883.678,-276.062 893.304,-280.49 893.964,-273.521"/>
</g>
<!-- Node38 -->
<g id="node38" class="node"><title>Node38</title>
<g id="a_node38"><a xlink:href="Reader_8hh.html" target="_top" xlink:title="boca/multivariant/Reader.hh">
<polygon fill="white" stroke="black" points="1338.5,-257.5 1338.5,-276.5 1477.5,-276.5 1477.5,-257.5 1338.5,-257.5"/>
<text text-anchor="middle" x="1408" y="-264.5" font-family="Helvetica,sans-Serif" font-size="10.00">boca/multivariant/Reader.hh</text>
</a>
</g>
</g>
<!-- Node37&#45;&gt;Node38 -->
<g id="edge45" class="edge"><title>Node37&#45;&gt;Node38</title>
<path fill="none" stroke="midnightblue" d="M1537.6,-313.444C1511.8,-304.399 1470.92,-290.064 1441.98,-279.916"/>
<polygon fill="midnightblue" stroke="midnightblue" points="1442.88,-276.523 1432.29,-276.516 1440.57,-283.128 1442.88,-276.523"/>
</g>
<!-- Node44 -->
<g id="node44" class="node"><title>Node44</title>
<g id="a_node44"><a xlink:href="boca_2branch_2Global_8hh.html" target="_top" xlink:title="boca/branch/Global.hh">
<polygon fill="white" stroke="black" points="2230,-257.5 2230,-276.5 2344,-276.5 2344,-257.5 2230,-257.5"/>
<text text-anchor="middle" x="2287" y="-264.5" font-family="Helvetica,sans-Serif" font-size="10.00">boca/branch/Global.hh</text>
</a>
</g>
</g>
<!-- Node37&#45;&gt;Node44 -->
<g id="edge55" class="edge"><title>Node37&#45;&gt;Node44</title>
<path fill="none" stroke="midnightblue" d="M1618.29,-317.808C1749.98,-307.998 2077.75,-283.585 2219.7,-273.013"/>
<polygon fill="midnightblue" stroke="midnightblue" points="2220.29,-276.479 2230,-272.246 2219.77,-269.498 2220.29,-276.479"/>
</g>
<!-- Node45 -->
<g id="node45" class="node"><title>Node45</title>
<g id="a_node45"><a xlink:href="boca_2tagger_2Tagger_8hh.html" target="_top" xlink:title="boca/tagger/Tagger.hh">
<polygon fill="white" stroke="black" points="1660,-257.5 1660,-276.5 1774,-276.5 1774,-257.5 1660,-257.5"/>
<text text-anchor="middle" x="1717" y="-264.5" font-family="Helvetica,sans-Serif" font-size="10.00">boca/tagger/Tagger.hh</text>
</a>
</g>
</g>
<!-- Node37&#45;&gt;Node45 -->
<g id="edge59" class="edge"><title>Node37&#45;&gt;Node45</title>
<path fill="none" stroke="midnightblue" d="M1586.56,-313.444C1612.52,-304.399 1653.67,-290.064 1682.8,-279.916"/>
<polygon fill="midnightblue" stroke="midnightblue" points="1684.26,-283.112 1692.55,-276.516 1681.96,-276.501 1684.26,-283.112"/>
</g>
<!-- Node39 -->
<g id="node39" class="node"><title>Node39</title>
<polygon fill="white" stroke="#bfbfbf" points="1178.5,-196 1178.5,-215 1265.5,-215 1265.5,-196 1178.5,-196"/>
<text text-anchor="middle" x="1222" y="-203" font-family="Helvetica,sans-Serif" font-size="10.00">TMVA/Reader.h</text>
</g>
<!-- Node38&#45;&gt;Node39 -->
<g id="edge46" class="edge"><title>Node38&#45;&gt;Node39</title>
<path fill="none" stroke="midnightblue" d="M1381.35,-257.475C1349.03,-247.136 1294.4,-229.661 1258.27,-218.102"/>
<polygon fill="midnightblue" stroke="midnightblue" points="1259.19,-214.722 1248.6,-215.009 1257.06,-221.39 1259.19,-214.722"/>
</g>
<!-- Node40 -->
<g id="node40" class="node"><title>Node40</title>
<g id="a_node40"><a xlink:href="Options_8hh.html" target="_top" xlink:title="boca/generic/Options.hh">
<polygon fill="white" stroke="red" points="1284,-196 1284,-215 1406,-215 1406,-196 1284,-196"/>
<text text-anchor="middle" x="1345" y="-203" font-family="Helvetica,sans-Serif" font-size="10.00">boca/generic/Options.hh</text>
</a>
</g>
</g>
<!-- Node38&#45;&gt;Node40 -->
<g id="edge47" class="edge"><title>Node38&#45;&gt;Node40</title>
<path fill="none" stroke="midnightblue" d="M1398.97,-257.475C1389.24,-248.285 1373.54,-233.456 1361.58,-222.156"/>
<polygon fill="midnightblue" stroke="midnightblue" points="1363.68,-219.331 1354.01,-215.009 1358.88,-224.42 1363.68,-219.331"/>
</g>
<!-- Node41 -->
<g id="node41" class="node"><title>Node41</title>
<g id="a_node41"><a xlink:href="Phase_8hh.html" target="_top" xlink:title="boca/multivariant/Phase.hh">
<polygon fill="white" stroke="red" points="1634.5,-129 1634.5,-148 1769.5,-148 1769.5,-129 1634.5,-129"/>
<text text-anchor="middle" x="1702" y="-136" font-family="Helvetica,sans-Serif" font-size="10.00">boca/multivariant/Phase.hh</text>
</a>
</g>
</g>
<!-- Node38&#45;&gt;Node41 -->
<g id="edge48" class="edge"><title>Node38&#45;&gt;Node41</title>
<path fill="none" stroke="midnightblue" d="M1477.77,-260.341C1541.77,-253.946 1630.77,-241.643 1659,-221 1680.05,-205.608 1691.73,-176.773 1697.43,-157.856"/>
<polygon fill="midnightblue" stroke="midnightblue" points="1700.86,-158.61 1700.13,-148.041 1694.11,-156.757 1700.86,-158.61"/>
</g>
<!-- Node42 -->
<g id="node42" class="node"><title>Node42</title>
<g id="a_node42"><a xlink:href="PreCuts_8hh.html" target="_top" xlink:title="boca/identification\l/PreCuts.hh">
<polygon fill="white" stroke="red" points="1424.5,-190.5 1424.5,-220.5 1519.5,-220.5 1519.5,-190.5 1424.5,-190.5"/>
<text text-anchor="start" x="1432.5" y="-208.5" font-family="Helvetica,sans-Serif" font-size="10.00">boca/identification</text>
<text text-anchor="middle" x="1472" y="-197.5" font-family="Helvetica,sans-Serif" font-size="10.00">/PreCuts.hh</text>
</a>
</g>
</g>
<!-- Node38&#45;&gt;Node42 -->
<g id="edge49" class="edge"><title>Node38&#45;&gt;Node42</title>
<path fill="none" stroke="midnightblue" d="M1417.17,-257.475C1425.59,-249.643 1438.42,-237.714 1449.56,-227.366"/>
<polygon fill="midnightblue" stroke="midnightblue" points="1451.98,-229.895 1456.92,-220.523 1447.21,-224.769 1451.98,-229.895"/>
</g>
<!-- Node43 -->
<g id="node43" class="node"><title>Node43</title>
<g id="a_node43"><a xlink:href="boca_2event_2Event_8hh.html" target="_top" xlink:title="boca/event/Event.hh">
<polygon fill="white" stroke="red" points="938.5,-196 938.5,-215 1045.5,-215 1045.5,-196 938.5,-196"/>
<text text-anchor="middle" x="992" y="-203" font-family="Helvetica,sans-Serif" font-size="10.00">boca/event/Event.hh</text>
</a>
</g>
</g>
<!-- Node38&#45;&gt;Node43 -->
<g id="edge51" class="edge"><title>Node38&#45;&gt;Node43</title>
<path fill="none" stroke="midnightblue" d="M1348.4,-257.475C1270.62,-246.351 1135.08,-226.965 1055.45,-215.575"/>
<polygon fill="midnightblue" stroke="midnightblue" points="1055.94,-212.11 1045.55,-214.159 1054.95,-219.04 1055.94,-212.11"/>
</g>
<!-- Node42&#45;&gt;Node14 -->
<g id="edge50" class="edge"><title>Node42&#45;&gt;Node14</title>
<path fill="none" stroke="midnightblue" d="M1463.97,-190.396C1458.37,-180.562 1450.87,-167.378 1444.9,-156.892"/>
<polygon fill="midnightblue" stroke="midnightblue" points="1447.94,-155.154 1439.95,-148.195 1441.85,-158.617 1447.94,-155.154"/>
</g>
<!-- Node43&#45;&gt;Node5 -->
<g id="edge52" class="edge"><title>Node43&#45;&gt;Node5</title>
<path fill="none" stroke="midnightblue" d="M1026.51,-195.913C1071.23,-184.443 1144.4,-164.366 1152,-154 1160.15,-142.888 1160.44,-133.89 1152,-123 1147.37,-117.023 1060.32,-96.2453 1003.8,-83.2776"/>
<polygon fill="midnightblue" stroke="midnightblue" points="1004.51,-79.8481 993.978,-81.0312 1002.95,-86.6721 1004.51,-79.8481"/>
</g>
<!-- Node43&#45;&gt;Node8 -->
<g id="edge53" class="edge"><title>Node43&#45;&gt;Node8</title>
<path fill="none" stroke="midnightblue" d="M1028.44,-195.898C1076.1,-183.068 1149.97,-156.766 1118,-123 1067.5,-69.673 530.621,-97.9558 458,-87 452.017,-86.0974 445.751,-84.8539 439.641,-83.4716"/>
<polygon fill="midnightblue" stroke="midnightblue" points="440.126,-79.9883 429.585,-81.05 438.487,-86.7938 440.126,-79.9883"/>
</g>
<!-- Node43&#45;&gt;Node21 -->
<g id="edge54" class="edge"><title>Node43&#45;&gt;Node21</title>
<path fill="none" stroke="midnightblue" d="M999.957,-195.734C1009.25,-185.5 1024.8,-168.364 1036.3,-155.692"/>
<polygon fill="midnightblue" stroke="midnightblue" points="1039.04,-157.884 1043.17,-148.127 1033.86,-153.179 1039.04,-157.884"/>
</g>
<!-- Node44&#45;&gt;Node32 -->
<g id="edge56" class="edge"><title>Node44&#45;&gt;Node32</title>
<path fill="none" stroke="midnightblue" d="M2316.08,-257.475C2351.58,-247.07 2411.75,-229.437 2451.17,-217.88"/>
<polygon fill="midnightblue" stroke="midnightblue" points="2452.36,-221.181 2460.97,-215.009 2450.39,-214.463 2452.36,-221.181"/>
</g>
<!-- Node44&#45;&gt;Node35 -->
<g id="edge57" class="edge"><title>Node44&#45;&gt;Node35</title>
<path fill="none" stroke="midnightblue" d="M2296.46,-257.475C2306.75,-248.197 2323.42,-233.171 2335.99,-221.831"/>
<polygon fill="midnightblue" stroke="midnightblue" points="2338.48,-224.305 2343.56,-215.009 2333.79,-219.105 2338.48,-224.305"/>
</g>
<!-- Node45&#45;&gt;Node6 -->
<g id="edge71" class="edge"><title>Node45&#45;&gt;Node6</title>
<path fill="none" stroke="midnightblue" d="M1717.46,-257.366C1718.61,-242.542 1722.56,-211.75 1736,-190 1748.93,-169.086 1762.26,-172.888 1778,-154 1800.06,-127.529 1808.02,-120.265 1817,-87 1820.59,-73.698 1826.2,-66.2552 1817,-56 1794.41,-30.8208 1583.57,-18.4061 1471.81,-13.5499"/>
<polygon fill="midnightblue" stroke="midnightblue" points="1471.78,-10.0456 1461.65,-13.117 1471.49,-17.0392 1471.78,-10.0456"/>
</g>
<!-- Node45&#45;&gt;Node25 -->
<g id="edge61" class="edge"><title>Node45&#45;&gt;Node25</title>
<path fill="none" stroke="midnightblue" d="M1659.74,-263.34C1490.61,-255.399 1000.57,-231.744 929,-221 922.771,-220.065 916.237,-218.777 909.88,-217.352"/>
<polygon fill="midnightblue" stroke="midnightblue" points="910.643,-213.936 900.105,-215.03 909.026,-220.746 910.643,-213.936"/>
</g>
<!-- Node45&#45;&gt;Node42 -->
<g id="edge69" class="edge"><title>Node45&#45;&gt;Node42</title>
<path fill="none" stroke="midnightblue" d="M1680.01,-257.419C1643.95,-249.005 1587.32,-235.657 1529.66,-221.389"/>
<polygon fill="midnightblue" stroke="midnightblue" points="1530.19,-217.915 1519.64,-218.904 1528.51,-224.709 1530.19,-217.915"/>
</g>
<!-- Node46 -->
<g id="node46" class="node"><title>Node46</title>
<g id="a_node46"><a xlink:href="Types_8hh.html" target="_top" xlink:title="boca/generic/Types.hh">
<polygon fill="white" stroke="red" points="1745,-196 1745,-215 1861,-215 1861,-196 1745,-196"/>
<text text-anchor="middle" x="1803" y="-203" font-family="Helvetica,sans-Serif" font-size="10.00">boca/generic/Types.hh</text>
</a>
</g>
</g>
<!-- Node45&#45;&gt;Node46 -->
<g id="edge60" class="edge"><title>Node45&#45;&gt;Node46</title>
<path fill="none" stroke="midnightblue" d="M1729.32,-257.475C1743.12,-247.931 1765.7,-232.307 1782.23,-220.868"/>
<polygon fill="midnightblue" stroke="midnightblue" points="1784.47,-223.577 1790.7,-215.009 1780.49,-217.82 1784.47,-223.577"/>
</g>
<!-- Node47 -->
<g id="node47" class="node"><title>Node47</title>
<g id="a_node47"><a xlink:href="TreeBranch_8hh.html" target="_top" xlink:title="boca/io/TreeBranch.hh">
<polygon fill="white" stroke="red" points="1879.5,-196 1879.5,-215 1994.5,-215 1994.5,-196 1879.5,-196"/>
<text text-anchor="middle" x="1937" y="-203" font-family="Helvetica,sans-Serif" font-size="10.00">boca/io/TreeBranch.hh</text>
</a>
</g>
</g>
<!-- Node45&#45;&gt;Node47 -->
<g id="edge62" class="edge"><title>Node45&#45;&gt;Node47</title>
<path fill="none" stroke="midnightblue" d="M1748.52,-257.475C1787.24,-247.004 1853.02,-229.212 1895.74,-217.66"/>
<polygon fill="midnightblue" stroke="midnightblue" points="1896.8,-220.999 1905.54,-215.009 1894.97,-214.241 1896.8,-220.999"/>
</g>
<!-- Node48 -->
<g id="node48" class="node"><title>Node48</title>
<g id="a_node48"><a xlink:href="fastjet_2Vector_8hh.html" target="_top" xlink:title="boca/fastjet/Vector.hh">
<polygon fill="white" stroke="red" points="1537.5,-196 1537.5,-215 1650.5,-215 1650.5,-196 1537.5,-196"/>
<text text-anchor="middle" x="1594" y="-203" font-family="Helvetica,sans-Serif" font-size="10.00">boca/fastjet/Vector.hh</text>
</a>
</g>
</g>
<!-- Node45&#45;&gt;Node48 -->
<g id="edge63" class="edge"><title>Node45&#45;&gt;Node48</title>
<path fill="none" stroke="midnightblue" d="M1699.38,-257.475C1678.83,-247.534 1644.64,-230.995 1620.79,-219.461"/>
<polygon fill="midnightblue" stroke="midnightblue" points="1622.12,-216.213 1611.59,-215.009 1619.07,-222.515 1622.12,-216.213"/>
</g>
<!-- Node49 -->
<g id="node49" class="node"><title>Node49</title>
<g id="a_node49"><a xlink:href="tagger_2Base_8hh.html" target="_top" xlink:title="boca/tagger/Base.hh">
<polygon fill="white" stroke="red" points="2012.5,-196 2012.5,-215 2119.5,-215 2119.5,-196 2012.5,-196"/>
<text text-anchor="middle" x="2066" y="-203" font-family="Helvetica,sans-Serif" font-size="10.00">boca/tagger/Base.hh</text>
</a>
</g>
</g>
<!-- Node45&#45;&gt;Node49 -->
<g id="edge67" class="edge"><title>Node45&#45;&gt;Node49</title>
<path fill="none" stroke="midnightblue" d="M1774.18,-258.207C1832.06,-250.037 1924.04,-236.278 2003,-221 2008.79,-219.88 2014.85,-218.609 2020.84,-217.296"/>
<polygon fill="midnightblue" stroke="midnightblue" points="2021.78,-220.672 2030.77,-215.067 2020.25,-213.842 2021.78,-220.672"/>
</g>
<!-- Node50 -->
<g id="node50" class="node"><title>Node50</title>
<g id="a_node50"><a xlink:href="Filter_8hh.html" target="_top" xlink:title="boca/multivariant/Filter.hh">
<polygon fill="white" stroke="red" points="2137.5,-196 2137.5,-215 2266.5,-215 2266.5,-196 2137.5,-196"/>
<text text-anchor="middle" x="2202" y="-203" font-family="Helvetica,sans-Serif" font-size="10.00">boca/multivariant/Filter.hh</text>
</a>
</g>
</g>
<!-- Node45&#45;&gt;Node50 -->
<g id="edge70" class="edge"><title>Node45&#45;&gt;Node50</title>
<path fill="none" stroke="midnightblue" d="M1774.04,-261.288C1853.59,-254.369 2002.22,-240.173 2128,-221 2135.73,-219.821 2143.89,-218.402 2151.85,-216.92"/>
<polygon fill="midnightblue" stroke="midnightblue" points="2152.62,-220.337 2161.78,-215.021 2151.3,-213.461 2152.62,-220.337"/>
</g>
<!-- Node48&#45;&gt;Node11 -->
<g id="edge64" class="edge"><title>Node48&#45;&gt;Node11</title>
<path fill="none" stroke="midnightblue" d="M1555.64,-195.936C1546.58,-193.952 1536.96,-191.874 1528,-190 1463.85,-176.577 1390.39,-162.065 1339.03,-152.058"/>
<polygon fill="midnightblue" stroke="midnightblue" points="1339.55,-148.593 1329.06,-150.118 1338.21,-155.464 1339.55,-148.593"/>
</g>
<!-- Node48&#45;&gt;Node14 -->
<g id="edge65" class="edge"><title>Node48&#45;&gt;Node14</title>
<path fill="none" stroke="midnightblue" d="M1572.89,-195.869C1545.37,-184.619 1497.05,-164.867 1465.54,-151.985"/>
<polygon fill="midnightblue" stroke="midnightblue" points="1466.53,-148.608 1455.95,-148.064 1463.88,-155.088 1466.53,-148.608"/>
</g>
<!-- Node48&#45;&gt;Node29 -->
<g id="edge66" class="edge"><title>Node48&#45;&gt;Node29</title>
<path fill="none" stroke="midnightblue" d="M1590.9,-195.734C1587.48,-186.085 1581.9,-170.3 1577.51,-157.906"/>
<polygon fill="midnightblue" stroke="midnightblue" points="1580.69,-156.387 1574.05,-148.127 1574.09,-158.722 1580.69,-156.387"/>
</g>
<!-- Node49&#45;&gt;Node41 -->
<g id="edge68" class="edge"><title>Node49&#45;&gt;Node41</title>
<path fill="none" stroke="midnightblue" d="M2030.76,-195.976C2021.74,-193.907 2012.03,-191.779 2003,-190 1906.22,-170.928 1881.23,-170.588 1784,-154 1776.1,-152.652 1767.77,-151.207 1759.57,-149.772"/>
<polygon fill="midnightblue" stroke="midnightblue" points="1760.13,-146.316 1749.68,-148.032 1758.92,-153.211 1760.13,-146.316"/>
</g>
</g>
</svg>
