<?xml version="1.0" encoding="UTF-8" standalone="no"?>
<!DOCTYPE svg PUBLIC "-//W3C//DTD SVG 1.1//EN"
 "http://www.w3.org/Graphics/SVG/1.1/DTD/svg11.dtd">
<!-- Generated by graphviz version 2.38.0 (20140413.2041)
 -->
<!-- Title: boca/Event.hh Pages: 1 -->
<svg width="1479pt" height="800pt"
 viewBox="0.00 0.00 1479.00 800.00" xmlns="http://www.w3.org/2000/svg" xmlns:xlink="http://www.w3.org/1999/xlink">
<g id="graph0" class="graph" transform="scale(1 1) rotate(0) translate(4 796)">
<title>boca/Event.hh</title>
<polygon fill="white" stroke="none" points="-4,4 -4,-796 1475,-796 1475,4 -4,4"/>
<!-- Node1 -->
<g id="node1" class="node"><title>Node1</title>
<polygon fill="#bfbfbf" stroke="black" points="1127.5,-772.5 1127.5,-791.5 1207.5,-791.5 1207.5,-772.5 1127.5,-772.5"/>
<text text-anchor="middle" x="1167.5" y="-779.5" font-family="Helvetica,sans-Serif" font-size="10.00">boca/Event.hh</text>
</g>
<!-- Node2 -->
<g id="node2" class="node"><title>Node2</title>
<g id="a_node2"><a xlink:href="Flag_8hh.html" target="_top" xlink:title="boca/generic/Flag.hh">
<polygon fill="white" stroke="black" points="1364,-425.5 1364,-444.5 1471,-444.5 1471,-425.5 1364,-425.5"/>
<text text-anchor="middle" x="1417.5" y="-432.5" font-family="Helvetica,sans-Serif" font-size="10.00">boca/generic/Flag.hh</text>
</a>
</g>
</g>
<!-- Node1&#45;&gt;Node2 -->
<g id="edge1" class="edge"><title>Node1&#45;&gt;Node2</title>
<path fill="none" stroke="midnightblue" d="M1207.68,-780.689C1280.43,-777.779 1426.5,-760.152 1426.5,-665.5 1426.5,-665.5 1426.5,-665.5 1426.5,-546 1426.5,-513.841 1422.63,-476.569 1419.97,-454.711"/>
<polygon fill="midnightblue" stroke="midnightblue" points="1423.41,-454.018 1418.68,-444.538 1416.46,-454.899 1423.41,-454.018"/>
</g>
<!-- Node4 -->
<g id="node4" class="node"><title>Node4</title>
<g id="a_node4"><a xlink:href="Jet_8hh.html" target="_top" xlink:title="boca/multiplets/Jet.hh">
<polygon fill="white" stroke="black" points="1111,-716.5 1111,-735.5 1224,-735.5 1224,-716.5 1111,-716.5"/>
<text text-anchor="middle" x="1167.5" y="-723.5" font-family="Helvetica,sans-Serif" font-size="10.00">boca/multiplets/Jet.hh</text>
</a>
</g>
</g>
<!-- Node1&#45;&gt;Node4 -->
<g id="edge3" class="edge"><title>Node1&#45;&gt;Node4</title>
<path fill="none" stroke="midnightblue" d="M1167.5,-772.083C1167.5,-765.006 1167.5,-754.861 1167.5,-745.986"/>
<polygon fill="midnightblue" stroke="midnightblue" points="1171,-745.751 1167.5,-735.751 1164,-745.751 1171,-745.751"/>
</g>
<!-- Node49 -->
<g id="node49" class="node"><title>Node49</title>
<g id="a_node49"><a xlink:href="multiplets_2Particle_8hh.html" target="_top" xlink:title="boca/multiplets/Particle.hh">
<polygon fill="white" stroke="black" points="958.5,-716.5 958.5,-735.5 1090.5,-735.5 1090.5,-716.5 958.5,-716.5"/>
<text text-anchor="middle" x="1024.5" y="-723.5" font-family="Helvetica,sans-Serif" font-size="10.00">boca/multiplets/Particle.hh</text>
</a>
</g>
</g>
<!-- Node1&#45;&gt;Node49 -->
<g id="edge59" class="edge"><title>Node1&#45;&gt;Node49</title>
<path fill="none" stroke="midnightblue" d="M1144.84,-772.444C1121.1,-763.478 1083.59,-749.314 1056.76,-739.183"/>
<polygon fill="midnightblue" stroke="midnightblue" points="1057.64,-735.775 1047.05,-735.516 1055.17,-742.324 1057.64,-735.775"/>
</g>
<!-- Node3 -->
<g id="node3" class="node"><title>Node3</title>
<polygon fill="white" stroke="#bfbfbf" points="1046.5,-73 1046.5,-92 1108.5,-92 1108.5,-73 1046.5,-73"/>
<text text-anchor="middle" x="1077.5" y="-80" font-family="Helvetica,sans-Serif" font-size="10.00">type_traits</text>
</g>
<!-- Node2&#45;&gt;Node3 -->
<g id="edge2" class="edge"><title>Node2&#45;&gt;Node3</title>
<path fill="none" stroke="midnightblue" d="M1416.19,-425.466C1413.48,-407.007 1407.5,-361.968 1407.5,-324 1407.5,-324 1407.5,-324 1407.5,-210 1407.5,-174.003 1407.22,-156.962 1379.5,-134 1340.48,-101.681 1192.12,-89.4923 1118.89,-85.3749"/>
<polygon fill="midnightblue" stroke="midnightblue" points="1118.83,-81.8665 1108.65,-84.8245 1118.45,-88.8564 1118.83,-81.8665"/>
</g>
<!-- Node5 -->
<g id="node5" class="node"><title>Node5</title>
<g id="a_node5"><a xlink:href="PseudoJet_8hh.html" target="_top" xlink:title="boca/fastjet/PseudoJet.hh">
<polygon fill="white" stroke="black" points="953,-593.5 953,-612.5 1084,-612.5 1084,-593.5 953,-593.5"/>
<text text-anchor="middle" x="1018.5" y="-600.5" font-family="Helvetica,sans-Serif" font-size="10.00">boca/fastjet/PseudoJet.hh</text>
</a>
</g>
</g>
<!-- Node4&#45;&gt;Node5 -->
<g id="edge4" class="edge"><title>Node4&#45;&gt;Node5</title>
<path fill="none" stroke="midnightblue" d="M1151.92,-716.388C1137.11,-707.911 1114.48,-694.204 1096.5,-680 1072.75,-661.235 1048.2,-636.218 1033.14,-620.107"/>
<polygon fill="midnightblue" stroke="midnightblue" points="1035.54,-617.546 1026.18,-612.574 1030.4,-622.295 1035.54,-617.546"/>
</g>
<!-- Node42 -->
<g id="node42" class="node"><title>Node42</title>
<g id="a_node42"><a xlink:href="JetInfo_8hh.html" target="_top" xlink:title="boca/multiplets/JetInfo.hh">
<polygon fill="white" stroke="black" points="1106,-655 1106,-674 1235,-674 1235,-655 1106,-655"/>
<text text-anchor="middle" x="1170.5" y="-662" font-family="Helvetica,sans-Serif" font-size="10.00">boca/multiplets/JetInfo.hh</text>
</a>
</g>
</g>
<!-- Node4&#45;&gt;Node42 -->
<g id="edge49" class="edge"><title>Node4&#45;&gt;Node42</title>
<path fill="none" stroke="midnightblue" d="M1167.93,-716.475C1168.35,-708.08 1169.01,-694.981 1169.56,-684.163"/>
<polygon fill="midnightblue" stroke="midnightblue" points="1173.06,-684.173 1170.07,-674.009 1166.07,-683.82 1173.06,-684.173"/>
</g>
<!-- Node5&#45;&gt;Node5 -->
<g id="edge6" class="edge"><title>Node5&#45;&gt;Node5</title>
<path fill="none" stroke="midnightblue" d="M1054.11,-612.525C1078.31,-615.308 1102,-612.133 1102,-603 1102,-595.151 1084.51,-591.703 1064.23,-592.654"/>
<polygon fill="midnightblue" stroke="midnightblue" points="1063.8,-589.178 1054.11,-593.475 1064.36,-596.155 1063.8,-589.178"/>
</g>
<!-- Node6 -->
<g id="node6" class="node"><title>Node6</title>
<polygon fill="white" stroke="#bfbfbf" points="1268,-140 1268,-159 1371,-159 1371,-140 1268,-140"/>
<text text-anchor="middle" x="1319.5" y="-147" font-family="Helvetica,sans-Serif" font-size="10.00">boost/operators.hpp</text>
</g>
<!-- Node5&#45;&gt;Node6 -->
<g id="edge5" class="edge"><title>Node5&#45;&gt;Node6</title>
<path fill="none" stroke="midnightblue" d="M1084.36,-596.251C1121.81,-590.585 1168.31,-579.335 1204.5,-557 1236.7,-537.125 1259.5,-529.843 1259.5,-492 1259.5,-492 1259.5,-492 1259.5,-322 1259.5,-262.769 1291.78,-198.16 1308.99,-167.93"/>
<polygon fill="midnightblue" stroke="midnightblue" points="1312.15,-169.453 1314.18,-159.053 1306.11,-165.92 1312.15,-169.453"/>
</g>
<!-- Node7 -->
<g id="node7" class="node"><title>Node7</title>
<g id="a_node7"><a xlink:href="LorentzVector_8hh.html" target="_top" xlink:title="boca/math/LorentzVector.hh">
<polygon fill="white" stroke="black" points="943.5,-425.5 943.5,-444.5 1083.5,-444.5 1083.5,-425.5 943.5,-425.5"/>
<text text-anchor="middle" x="1013.5" y="-432.5" font-family="Helvetica,sans-Serif" font-size="10.00">boca/math/LorentzVector.hh</text>
</a>
</g>
</g>
<!-- Node5&#45;&gt;Node7 -->
<g id="edge7" class="edge"><title>Node5&#45;&gt;Node7</title>
<path fill="none" stroke="midnightblue" d="M1018.23,-593.075C1017.44,-566.945 1015.13,-490.211 1014.06,-454.577"/>
<polygon fill="midnightblue" stroke="midnightblue" points="1017.56,-454.458 1013.76,-444.568 1010.56,-454.669 1017.56,-454.458"/>
</g>
<!-- Node8 -->
<g id="node8" class="node"><title>Node8</title>
<g id="a_node8"><a xlink:href="delphes_2Forward_8hh.html" target="_top" xlink:title="boca/delphes/Forward.hh">
<polygon fill="white" stroke="black" points="778.5,-369.5 778.5,-388.5 904.5,-388.5 904.5,-369.5 778.5,-369.5"/>
<text text-anchor="middle" x="841.5" y="-376.5" font-family="Helvetica,sans-Serif" font-size="10.00">boca/delphes/Forward.hh</text>
</a>
</g>
</g>
<!-- Node7&#45;&gt;Node8 -->
<g id="edge8" class="edge"><title>Node7&#45;&gt;Node8</title>
<path fill="none" stroke="midnightblue" d="M986.246,-425.444C957.059,-416.28 910.579,-401.688 878.191,-391.519"/>
<polygon fill="midnightblue" stroke="midnightblue" points="879.216,-388.173 868.626,-388.516 877.119,-394.851 879.216,-388.173"/>
</g>
<!-- Node10 -->
<g id="node10" class="node"><title>Node10</title>
<g id="a_node10"><a xlink:href="exroot_2Forward_8hh.html" target="_top" xlink:title="boca/exroot/Forward.hh">
<polygon fill="white" stroke="black" points="1111,-369.5 1111,-388.5 1230,-388.5 1230,-369.5 1111,-369.5"/>
<text text-anchor="middle" x="1170.5" y="-376.5" font-family="Helvetica,sans-Serif" font-size="10.00">boca/exroot/Forward.hh</text>
</a>
</g>
</g>
<!-- Node7&#45;&gt;Node10 -->
<g id="edge10" class="edge"><title>Node7&#45;&gt;Node10</title>
<path fill="none" stroke="midnightblue" d="M1038.38,-425.444C1064.79,-416.359 1106.72,-401.939 1136.24,-391.783"/>
<polygon fill="midnightblue" stroke="midnightblue" points="1137.42,-395.079 1145.74,-388.516 1135.14,-388.459 1137.42,-395.079"/>
</g>
<!-- Node12 -->
<g id="node12" class="node"><title>Node12</title>
<g id="a_node12"><a xlink:href="LorentzVectorBase_8hh.html" target="_top" xlink:title="boca/math/LorentzVectorBase.hh">
<polygon fill="white" stroke="black" points="930.5,-369.5 930.5,-388.5 1092.5,-388.5 1092.5,-369.5 930.5,-369.5"/>
<text text-anchor="middle" x="1011.5" y="-376.5" font-family="Helvetica,sans-Serif" font-size="10.00">boca/math/LorentzVectorBase.hh</text>
</a>
</g>
</g>
<!-- Node7&#45;&gt;Node12 -->
<g id="edge12" class="edge"><title>Node7&#45;&gt;Node12</title>
<path fill="none" stroke="midnightblue" d="M1013.17,-425.083C1012.91,-418.006 1012.53,-407.861 1012.2,-398.986"/>
<polygon fill="midnightblue" stroke="midnightblue" points="1015.69,-398.615 1011.82,-388.751 1008.7,-398.874 1015.69,-398.615"/>
</g>
<!-- Node9 -->
<g id="node9" class="node"><title>Node9</title>
<g id="a_node9"><a xlink:href="delphes_2TypeDef_8hh.html" target="_top" xlink:title="boca/delphes/TypeDef.hh">
<polygon fill="white" stroke="black" points="768.5,-313.5 768.5,-332.5 896.5,-332.5 896.5,-313.5 768.5,-313.5"/>
<text text-anchor="middle" x="832.5" y="-320.5" font-family="Helvetica,sans-Serif" font-size="10.00">boca/delphes/TypeDef.hh</text>
</a>
</g>
</g>
<!-- Node8&#45;&gt;Node9 -->
<g id="edge9" class="edge"><title>Node8&#45;&gt;Node9</title>
<path fill="none" stroke="midnightblue" d="M840.014,-369.083C838.821,-361.927 837.106,-351.635 835.615,-342.691"/>
<polygon fill="midnightblue" stroke="midnightblue" points="839.055,-342.04 833.959,-332.751 832.15,-343.19 839.055,-342.04"/>
</g>
<!-- Node11 -->
<g id="node11" class="node"><title>Node11</title>
<g id="a_node11"><a xlink:href="exroot_2TypeDef_8hh.html" target="_top" xlink:title="boca/exroot/TypeDef.hh">
<polygon fill="white" stroke="black" points="1109.5,-313.5 1109.5,-332.5 1231.5,-332.5 1231.5,-313.5 1109.5,-313.5"/>
<text text-anchor="middle" x="1170.5" y="-320.5" font-family="Helvetica,sans-Serif" font-size="10.00">boca/exroot/TypeDef.hh</text>
</a>
</g>
</g>
<!-- Node10&#45;&gt;Node11 -->
<g id="edge11" class="edge"><title>Node10&#45;&gt;Node11</title>
<path fill="none" stroke="midnightblue" d="M1170.5,-369.083C1170.5,-362.006 1170.5,-351.861 1170.5,-342.986"/>
<polygon fill="midnightblue" stroke="midnightblue" points="1174,-342.751 1170.5,-332.751 1167,-342.751 1174,-342.751"/>
</g>
<!-- Node13 -->
<g id="node13" class="node"><title>Node13</title>
<polygon fill="white" stroke="#bfbfbf" points="1046,-313.5 1046,-332.5 1091,-332.5 1091,-313.5 1046,-313.5"/>
<text text-anchor="middle" x="1068.5" y="-320.5" font-family="Helvetica,sans-Serif" font-size="10.00">climits</text>
</g>
<!-- Node12&#45;&gt;Node13 -->
<g id="edge13" class="edge"><title>Node12&#45;&gt;Node13</title>
<path fill="none" stroke="midnightblue" d="M1020.66,-369.324C1029,-361.42 1041.53,-349.548 1051.68,-339.938"/>
<polygon fill="midnightblue" stroke="midnightblue" points="1054.32,-342.252 1059.18,-332.834 1049.51,-337.171 1054.32,-342.252"/>
</g>
<!-- Node14 -->
<g id="node14" class="node"><title>Node14</title>
<g id="a_node14"><a xlink:href="Vector3_8hh.html" target="_top" xlink:title="boca/math/Vector3.hh">
<polygon fill="white" stroke="black" points="915,-313.5 915,-332.5 1028,-332.5 1028,-313.5 915,-313.5"/>
<text text-anchor="middle" x="971.5" y="-320.5" font-family="Helvetica,sans-Serif" font-size="10.00">boca/math/Vector3.hh</text>
</a>
</g>
</g>
<!-- Node12&#45;&gt;Node14 -->
<g id="edge14" class="edge"><title>Node12&#45;&gt;Node14</title>
<path fill="none" stroke="midnightblue" d="M1004.89,-369.083C999.245,-361.455 990.955,-350.264 984.049,-340.941"/>
<polygon fill="midnightblue" stroke="midnightblue" points="986.747,-338.703 977.982,-332.751 981.122,-342.87 986.747,-338.703"/>
</g>
<!-- Node15 -->
<g id="node15" class="node"><title>Node15</title>
<polygon fill="white" stroke="#bfbfbf" points="1046,-257.5 1046,-276.5 1111,-276.5 1111,-257.5 1046,-257.5"/>
<text text-anchor="middle" x="1078.5" y="-264.5" font-family="Helvetica,sans-Serif" font-size="10.00">TVector3.h</text>
</g>
<!-- Node14&#45;&gt;Node15 -->
<g id="edge15" class="edge"><title>Node14&#45;&gt;Node15</title>
<path fill="none" stroke="midnightblue" d="M988.691,-313.324C1005.85,-304.664 1032.45,-291.242 1052.25,-281.249"/>
<polygon fill="midnightblue" stroke="midnightblue" points="1054,-284.285 1061.35,-276.655 1050.85,-278.035 1054,-284.285"/>
</g>
<!-- Node16 -->
<g id="node16" class="node"><title>Node16</title>
<g id="a_node16"><a xlink:href="Vector2_8hh.html" target="_top" xlink:title="boca/math/Vector2.hh">
<polygon fill="white" stroke="black" points="915,-257.5 915,-276.5 1028,-276.5 1028,-257.5 915,-257.5"/>
<text text-anchor="middle" x="971.5" y="-264.5" font-family="Helvetica,sans-Serif" font-size="10.00">boca/math/Vector2.hh</text>
</a>
</g>
</g>
<!-- Node14&#45;&gt;Node16 -->
<g id="edge16" class="edge"><title>Node14&#45;&gt;Node16</title>
<path fill="none" stroke="midnightblue" d="M971.5,-313.083C971.5,-306.006 971.5,-295.861 971.5,-286.986"/>
<polygon fill="midnightblue" stroke="midnightblue" points="975,-286.751 971.5,-276.751 968,-286.751 975,-286.751"/>
</g>
<!-- Node16&#45;&gt;Node6 -->
<g id="edge17" class="edge"><title>Node16&#45;&gt;Node6</title>
<path fill="none" stroke="midnightblue" d="M1027.26,-257.473C1096.2,-246.713 1206.68,-228.686 1224.5,-221 1255.29,-207.718 1285.45,-182.699 1303.26,-166.318"/>
<polygon fill="midnightblue" stroke="midnightblue" points="1306.08,-168.466 1310.96,-159.06 1301.28,-163.373 1306.08,-168.466"/>
</g>
<!-- Node17 -->
<g id="node17" class="node"><title>Node17</title>
<g id="a_node17"><a xlink:href="Debug_8hh.html" target="_top" xlink:title="boca/generic/Debug.hh">
<polygon fill="white" stroke="black" points="928,-201.5 928,-220.5 1045,-220.5 1045,-201.5 928,-201.5"/>
<text text-anchor="middle" x="986.5" y="-208.5" font-family="Helvetica,sans-Serif" font-size="10.00">boca/generic/Debug.hh</text>
</a>
</g>
</g>
<!-- Node16&#45;&gt;Node17 -->
<g id="edge18" class="edge"><title>Node16&#45;&gt;Node17</title>
<path fill="none" stroke="midnightblue" d="M973.977,-257.083C975.986,-249.849 978.886,-239.409 981.39,-230.397"/>
<polygon fill="midnightblue" stroke="midnightblue" points="984.765,-231.323 984.069,-220.751 978.02,-229.449 984.765,-231.323"/>
</g>
<!-- Node24 -->
<g id="node24" class="node"><title>Node24</title>
<g id="a_node24"><a xlink:href="Iterator_8hh.html" target="_top" xlink:title="boca/generic/Iterator.hh">
<polygon fill="white" stroke="black" points="739,-201.5 739,-220.5 858,-220.5 858,-201.5 739,-201.5"/>
<text text-anchor="middle" x="798.5" y="-208.5" font-family="Helvetica,sans-Serif" font-size="10.00">boca/generic/Iterator.hh</text>
</a>
</g>
</g>
<!-- Node16&#45;&gt;Node24 -->
<g id="edge25" class="edge"><title>Node16&#45;&gt;Node24</title>
<path fill="none" stroke="midnightblue" d="M944.088,-257.444C914.731,-248.28 867.981,-233.688 835.404,-223.519"/>
<polygon fill="midnightblue" stroke="midnightblue" points="836.373,-220.155 825.784,-220.516 834.287,-226.837 836.373,-220.155"/>
</g>
<!-- Node27 -->
<g id="node27" class="node"><title>Node27</title>
<g id="a_node27"><a xlink:href="GradedContainer_8hh.html" target="_top" xlink:title="boca/math/GradedContainer.hh">
<polygon fill="white" stroke="black" points="1063.5,-201.5 1063.5,-220.5 1215.5,-220.5 1215.5,-201.5 1063.5,-201.5"/>
<text text-anchor="middle" x="1139.5" y="-208.5" font-family="Helvetica,sans-Serif" font-size="10.00">boca/math/GradedContainer.hh</text>
</a>
</g>
</g>
<!-- Node16&#45;&gt;Node27 -->
<g id="edge29" class="edge"><title>Node16&#45;&gt;Node27</title>
<path fill="none" stroke="midnightblue" d="M998.12,-257.444C1026.51,-248.32 1071.64,-233.813 1103.25,-223.651"/>
<polygon fill="midnightblue" stroke="midnightblue" points="1104.56,-226.909 1113,-220.516 1102.41,-220.244 1104.56,-226.909"/>
</g>
<!-- Node28 -->
<g id="node28" class="node"><title>Node28</title>
<g id="a_node28"><a xlink:href="Units_8hh.html" target="_top" xlink:title="boca/physics/Units.hh">
<polygon fill="white" stroke="black" points="542.5,-201.5 542.5,-220.5 656.5,-220.5 656.5,-201.5 542.5,-201.5"/>
<text text-anchor="middle" x="599.5" y="-208.5" font-family="Helvetica,sans-Serif" font-size="10.00">boca/physics/Units.hh</text>
</a>
</g>
</g>
<!-- Node16&#45;&gt;Node28 -->
<g id="edge31" class="edge"><title>Node16&#45;&gt;Node28</title>
<path fill="none" stroke="midnightblue" d="M914.596,-257.74C847.96,-248.067 737.703,-232.062 666.859,-221.778"/>
<polygon fill="midnightblue" stroke="midnightblue" points="667.102,-218.277 656.703,-220.304 666.096,-225.204 667.102,-218.277"/>
</g>
<!-- Node18 -->
<g id="node18" class="node"><title>Node18</title>
<polygon fill="white" stroke="#bfbfbf" points="1209,-140 1209,-159 1250,-159 1250,-140 1209,-140"/>
<text text-anchor="middle" x="1229.5" y="-147" font-family="Helvetica,sans-Serif" font-size="10.00">string</text>
</g>
<!-- Node17&#45;&gt;Node18 -->
<g id="edge19" class="edge"><title>Node17&#45;&gt;Node18</title>
<path fill="none" stroke="midnightblue" d="M1038.46,-201.44C1080.94,-193.803 1142.31,-181.311 1194.5,-165 1196.64,-164.33 1198.84,-163.582 1201.03,-162.787"/>
<polygon fill="midnightblue" stroke="midnightblue" points="1202.42,-165.999 1210.47,-159.109 1199.88,-159.476 1202.42,-165.999"/>
</g>
<!-- Node19 -->
<g id="node19" class="node"><title>Node19</title>
<polygon fill="white" stroke="#bfbfbf" points="859.5,-6 859.5,-25 903.5,-25 903.5,-6 859.5,-6"/>
<text text-anchor="middle" x="881.5" y="-13" font-family="Helvetica,sans-Serif" font-size="10.00">vector</text>
</g>
<!-- Node17&#45;&gt;Node19 -->
<g id="edge20" class="edge"><title>Node17&#45;&gt;Node19</title>
<path fill="none" stroke="midnightblue" d="M1031.02,-201.482C1080.15,-191.634 1153.4,-175.443 1161.5,-165 1169.94,-154.112 1165.45,-147.2 1161.5,-134 1151.29,-99.8681 1146.9,-87.123 1117.5,-67 1054.82,-24.0937 962.562,-16.6312 914.053,-15.9298"/>
<polygon fill="midnightblue" stroke="midnightblue" points="913.848,-12.4287 903.829,-15.8743 913.81,-19.4286 913.848,-12.4287"/>
</g>
<!-- Node20 -->
<g id="node20" class="node"><title>Node20</title>
<polygon fill="white" stroke="#bfbfbf" points="960.5,-140 960.5,-159 1012.5,-159 1012.5,-140 960.5,-140"/>
<text text-anchor="middle" x="986.5" y="-147" font-family="Helvetica,sans-Serif" font-size="10.00">sstream</text>
</g>
<!-- Node17&#45;&gt;Node20 -->
<g id="edge21" class="edge"><title>Node17&#45;&gt;Node20</title>
<path fill="none" stroke="midnightblue" d="M986.5,-201.475C986.5,-193.08 986.5,-179.981 986.5,-169.163"/>
<polygon fill="midnightblue" stroke="midnightblue" points="990,-169.009 986.5,-159.009 983,-169.009 990,-169.009"/>
</g>
<!-- Node21 -->
<g id="node21" class="node"><title>Node21</title>
<polygon fill="white" stroke="#bfbfbf" points="1030.5,-140 1030.5,-159 1080.5,-159 1080.5,-140 1030.5,-140"/>
<text text-anchor="middle" x="1055.5" y="-147" font-family="Helvetica,sans-Serif" font-size="10.00">iomanip</text>
</g>
<!-- Node17&#45;&gt;Node21 -->
<g id="edge22" class="edge"><title>Node17&#45;&gt;Node21</title>
<path fill="none" stroke="midnightblue" d="M996.386,-201.475C1007.15,-192.197 1024.57,-177.171 1037.72,-165.831"/>
<polygon fill="midnightblue" stroke="midnightblue" points="1040.34,-168.19 1045.63,-159.009 1035.77,-162.889 1040.34,-168.19"/>
</g>
<!-- Node22 -->
<g id="node22" class="node"><title>Node22</title>
<polygon fill="white" stroke="#bfbfbf" points="1098.5,-140 1098.5,-159 1152.5,-159 1152.5,-140 1098.5,-140"/>
<text text-anchor="middle" x="1125.5" y="-147" font-family="Helvetica,sans-Serif" font-size="10.00">iostream</text>
</g>
<!-- Node17&#45;&gt;Node22 -->
<g id="edge23" class="edge"><title>Node17&#45;&gt;Node22</title>
<path fill="none" stroke="midnightblue" d="M1006.42,-201.475C1029.95,-191.401 1069.31,-174.553 1096.29,-163.002"/>
<polygon fill="midnightblue" stroke="midnightblue" points="1097.81,-166.162 1105.62,-159.009 1095.05,-159.727 1097.81,-166.162"/>
</g>
<!-- Node23 -->
<g id="node23" class="node"><title>Node23</title>
<polygon fill="white" stroke="#bfbfbf" points="837,-134.5 837,-164.5 942,-164.5 942,-134.5 837,-134.5"/>
<text text-anchor="start" x="845" y="-152.5" font-family="Helvetica,sans-Serif" font-size="10.00">boost/units/systems</text>
<text text-anchor="middle" x="889.5" y="-141.5" font-family="Helvetica,sans-Serif" font-size="10.00">/si/io.hpp</text>
</g>
<!-- Node17&#45;&gt;Node23 -->
<g id="edge24" class="edge"><title>Node17&#45;&gt;Node23</title>
<path fill="none" stroke="midnightblue" d="M972.602,-201.475C959.219,-193.266 938.502,-180.558 921.102,-169.885"/>
<polygon fill="midnightblue" stroke="midnightblue" points="922.715,-166.768 912.361,-164.523 919.055,-172.735 922.715,-166.768"/>
</g>
<!-- Node25 -->
<g id="node25" class="node"><title>Node25</title>
<g id="a_node25"><a xlink:href="EnumIterator_8hh.html" target="_top" xlink:title="boca/generic/EnumIterator.hh">
<polygon fill="white" stroke="black" points="674,-140 674,-159 819,-159 819,-140 674,-140"/>
<text text-anchor="middle" x="746.5" y="-147" font-family="Helvetica,sans-Serif" font-size="10.00">boca/generic/EnumIterator.hh</text>
</a>
</g>
</g>
<!-- Node24&#45;&gt;Node25 -->
<g id="edge26" class="edge"><title>Node24&#45;&gt;Node25</title>
<path fill="none" stroke="midnightblue" d="M791.05,-201.475C783.172,-192.462 770.555,-178.025 760.756,-166.812"/>
<polygon fill="midnightblue" stroke="midnightblue" points="763.153,-164.236 753.937,-159.009 757.882,-168.842 763.153,-164.236"/>
</g>
<!-- Node25&#45;&gt;Node3 -->
<g id="edge28" class="edge"><title>Node25&#45;&gt;Node3</title>
<path fill="none" stroke="midnightblue" d="M790.113,-139.936C854.301,-127.331 973.38,-103.947 1036.21,-91.6079"/>
<polygon fill="midnightblue" stroke="midnightblue" points="1037.03,-95.0151 1046.16,-89.6537 1035.68,-88.1463 1037.03,-95.0151"/>
</g>
<!-- Node26 -->
<g id="node26" class="node"><title>Node26</title>
<polygon fill="white" stroke="#bfbfbf" points="936,-73 936,-92 983,-92 983,-73 936,-73"/>
<text text-anchor="middle" x="959.5" y="-80" font-family="Helvetica,sans-Serif" font-size="10.00">iterator</text>
</g>
<!-- Node25&#45;&gt;Node26 -->
<g id="edge27" class="edge"><title>Node25&#45;&gt;Node26</title>
<path fill="none" stroke="midnightblue" d="M782.483,-139.99C819.155,-130.949 877.455,-115.557 926.5,-98 928.161,-97.4055 929.856,-96.7661 931.558,-96.099"/>
<polygon fill="midnightblue" stroke="midnightblue" points="933.296,-99.1665 941.184,-92.0931 930.607,-92.7037 933.296,-99.1665"/>
</g>
<!-- Node27&#45;&gt;Node6 -->
<g id="edge30" class="edge"><title>Node27&#45;&gt;Node6</title>
<path fill="none" stroke="midnightblue" d="M1165.29,-201.475C1196.43,-191.18 1248.98,-173.81 1283.95,-162.25"/>
<polygon fill="midnightblue" stroke="midnightblue" points="1285.36,-165.471 1293.76,-159.009 1283.16,-158.825 1285.36,-165.471"/>
</g>
<!-- Node29 -->
<g id="node29" class="node"><title>Node29</title>
<polygon fill="white" stroke="#bfbfbf" points="543,-140 543,-159 656,-159 656,-140 543,-140"/>
<text text-anchor="middle" x="599.5" y="-147" font-family="Helvetica,sans-Serif" font-size="10.00">boost/units/cmath.hpp</text>
</g>
<!-- Node28&#45;&gt;Node29 -->
<g id="edge32" class="edge"><title>Node28&#45;&gt;Node29</title>
<path fill="none" stroke="midnightblue" d="M599.5,-201.475C599.5,-193.08 599.5,-179.981 599.5,-169.163"/>
<polygon fill="midnightblue" stroke="midnightblue" points="603,-169.009 599.5,-159.009 596,-169.009 603,-169.009"/>
</g>
<!-- Node30 -->
<g id="node30" class="node"><title>Node30</title>
<g id="a_node30"><a xlink:href="Prefixes_8hh.html" target="_top" xlink:title="boca/physics/Prefixes.hh">
<polygon fill="white" stroke="black" points="398,-140 398,-159 525,-159 525,-140 398,-140"/>
<text text-anchor="middle" x="461.5" y="-147" font-family="Helvetica,sans-Serif" font-size="10.00">boca/physics/Prefixes.hh</text>
</a>
</g>
</g>
<!-- Node28&#45;&gt;Node30 -->
<g id="edge33" class="edge"><title>Node28&#45;&gt;Node30</title>
<path fill="none" stroke="midnightblue" d="M579.728,-201.475C556.364,-191.401 517.286,-174.553 490.497,-163.002"/>
<polygon fill="midnightblue" stroke="midnightblue" points="491.804,-159.754 481.235,-159.009 489.032,-166.182 491.804,-159.754"/>
</g>
<!-- Node31 -->
<g id="node31" class="node"><title>Node31</title>
<polygon fill="white" stroke="#bfbfbf" points="535.5,-73 535.5,-92 645.5,-92 645.5,-73 535.5,-73"/>
<text text-anchor="middle" x="590.5" y="-80" font-family="Helvetica,sans-Serif" font-size="10.00">boost/units/scale.hpp</text>
</g>
<!-- Node30&#45;&gt;Node31 -->
<g id="edge34" class="edge"><title>Node30&#45;&gt;Node31</title>
<path fill="none" stroke="midnightblue" d="M478.63,-139.869C500.508,-128.845 538.592,-109.655 564.169,-96.7678"/>
<polygon fill="midnightblue" stroke="midnightblue" points="565.944,-99.7927 573.299,-92.1672 562.794,-93.5414 565.944,-99.7927"/>
</g>
<!-- Node32 -->
<g id="node32" class="node"><title>Node32</title>
<polygon fill="white" stroke="#bfbfbf" points="664,-67.5 664,-97.5 789,-97.5 789,-67.5 664,-67.5"/>
<text text-anchor="start" x="672" y="-85.5" font-family="Helvetica,sans-Serif" font-size="10.00">boost/units/make_scaled</text>
<text text-anchor="middle" x="726.5" y="-74.5" font-family="Helvetica,sans-Serif" font-size="10.00">_unit.hpp</text>
</g>
<!-- Node30&#45;&gt;Node32 -->
<g id="edge35" class="edge"><title>Node30&#45;&gt;Node32</title>
<path fill="none" stroke="midnightblue" d="M496.417,-139.936C537.744,-129.799 607.491,-112.691 659.384,-99.9625"/>
<polygon fill="midnightblue" stroke="midnightblue" points="660.304,-103.341 669.182,-97.5592 658.636,-96.5422 660.304,-103.341"/>
</g>
<!-- Node33 -->
<g id="node33" class="node"><title>Node33</title>
<polygon fill="white" stroke="#bfbfbf" points="807,-67.5 807,-97.5 918,-97.5 918,-67.5 807,-67.5"/>
<text text-anchor="start" x="815" y="-85.5" font-family="Helvetica,sans-Serif" font-size="10.00">boost/units/systems</text>
<text text-anchor="middle" x="862.5" y="-74.5" font-family="Helvetica,sans-Serif" font-size="10.00">/si/dimensionless.hpp</text>
</g>
<!-- Node30&#45;&gt;Node33 -->
<g id="edge36" class="edge"><title>Node30&#45;&gt;Node33</title>
<path fill="none" stroke="midnightblue" d="M501.405,-139.996C511.827,-137.904 523.064,-135.761 533.5,-134 647.076,-114.839 679.2,-118.676 796.771,-98.0274"/>
<polygon fill="midnightblue" stroke="midnightblue" points="797.66,-101.424 806.893,-96.2269 796.434,-94.5324 797.66,-101.424"/>
</g>
<!-- Node34 -->
<g id="node34" class="node"><title>Node34</title>
<polygon fill="white" stroke="#bfbfbf" points="3.5,-73 3.5,-92 107.5,-92 107.5,-73 3.5,-73"/>
<text text-anchor="middle" x="55.5" y="-80" font-family="Helvetica,sans-Serif" font-size="10.00">boost/units/pow.hpp</text>
</g>
<!-- Node30&#45;&gt;Node34 -->
<g id="edge37" class="edge"><title>Node30&#45;&gt;Node34</title>
<path fill="none" stroke="midnightblue" d="M397.949,-140.901C328.515,-132.203 214.15,-116.715 116.5,-98 110.747,-96.8974 104.717,-95.6177 98.7814,-94.284"/>
<polygon fill="midnightblue" stroke="midnightblue" points="99.477,-90.8525 88.9456,-92.0102 97.9003,-97.6727 99.477,-90.8525"/>
</g>
<!-- Node35 -->
<g id="node35" class="node"><title>Node35</title>
<g id="a_node35"><a xlink:href="Si_8hh.html" target="_top" xlink:title="boca/physics/Si.hh">
<polygon fill="white" stroke="black" points="125.5,-73 125.5,-92 225.5,-92 225.5,-73 125.5,-73"/>
<text text-anchor="middle" x="175.5" y="-80" font-family="Helvetica,sans-Serif" font-size="10.00">boca/physics/Si.hh</text>
</a>
</g>
</g>
<!-- Node30&#45;&gt;Node35 -->
<g id="edge38" class="edge"><title>Node30&#45;&gt;Node35</title>
<path fill="none" stroke="midnightblue" d="M421.664,-139.917C376.288,-130.075 299.952,-113.321 234.5,-98 229.744,-96.8866 224.777,-95.7015 219.832,-94.5071"/>
<polygon fill="midnightblue" stroke="midnightblue" points="220.331,-91.0264 209.787,-92.0622 218.676,-97.8278 220.331,-91.0264"/>
</g>
<!-- Node39 -->
<g id="node39" class="node"><title>Node39</title>
<g id="a_node39"><a xlink:href="Barn_8hh.html" target="_top" xlink:title="boca/physics/Barn.hh">
<polygon fill="white" stroke="red" points="406,-73 406,-92 517,-92 517,-73 406,-73"/>
<text text-anchor="middle" x="461.5" y="-80" font-family="Helvetica,sans-Serif" font-size="10.00">boca/physics/Barn.hh</text>
</a>
</g>
</g>
<!-- Node30&#45;&gt;Node39 -->
<g id="edge42" class="edge"><title>Node30&#45;&gt;Node39</title>
<path fill="none" stroke="midnightblue" d="M461.5,-139.734C461.5,-130.183 461.5,-114.618 461.5,-102.283"/>
<polygon fill="midnightblue" stroke="midnightblue" points="465,-102.127 461.5,-92.1273 458,-102.127 465,-102.127"/>
</g>
<!-- Node41 -->
<g id="node41" class="node"><title>Node41</title>
<g id="a_node41"><a xlink:href="ElectronVolt_8hh.html" target="_top" xlink:title="boca/physics/ElectronVolt.hh">
<polygon fill="white" stroke="red" points="243.5,-73 243.5,-92 387.5,-92 387.5,-73 243.5,-73"/>
<text text-anchor="middle" x="315.5" y="-80" font-family="Helvetica,sans-Serif" font-size="10.00">boca/physics/ElectronVolt.hh</text>
</a>
</g>
</g>
<!-- Node30&#45;&gt;Node41 -->
<g id="edge46" class="edge"><title>Node30&#45;&gt;Node41</title>
<path fill="none" stroke="midnightblue" d="M442.112,-139.869C417.024,-128.699 373.107,-109.147 344.161,-96.2602"/>
<polygon fill="midnightblue" stroke="midnightblue" points="345.527,-93.037 334.968,-92.1672 342.68,-99.4319 345.527,-93.037"/>
</g>
<!-- Node36 -->
<g id="node36" class="node"><title>Node36</title>
<polygon fill="white" stroke="#bfbfbf" points="246,-6 246,-25 367,-25 367,-6 246,-6"/>
<text text-anchor="middle" x="306.5" y="-13" font-family="Helvetica,sans-Serif" font-size="10.00">boost/units/quantity.hpp</text>
</g>
<!-- Node35&#45;&gt;Node36 -->
<g id="edge39" class="edge"><title>Node35&#45;&gt;Node36</title>
<path fill="none" stroke="midnightblue" d="M192.896,-72.8685C215.113,-61.8447 253.787,-42.6554 279.76,-29.7678"/>
<polygon fill="midnightblue" stroke="midnightblue" points="281.63,-32.7473 289.032,-25.1672 278.519,-26.4767 281.63,-32.7473"/>
</g>
<!-- Node37 -->
<g id="node37" class="node"><title>Node37</title>
<polygon fill="white" stroke="#bfbfbf" points="0,-0.5 0,-30.5 105,-30.5 105,-0.5 0,-0.5"/>
<text text-anchor="start" x="8" y="-18.5" font-family="Helvetica,sans-Serif" font-size="10.00">boost/units/systems</text>
<text text-anchor="middle" x="52.5" y="-7.5" font-family="Helvetica,sans-Serif" font-size="10.00">/si/plane_angle.hpp</text>
</g>
<!-- Node35&#45;&gt;Node37 -->
<g id="edge40" class="edge"><title>Node35&#45;&gt;Node37</title>
<path fill="none" stroke="midnightblue" d="M159.167,-72.8685C141.167,-63.3566 111.664,-47.7655 88.2433,-35.3888"/>
<polygon fill="midnightblue" stroke="midnightblue" points="89.7559,-32.2295 79.2792,-30.6516 86.4853,-38.4184 89.7559,-32.2295"/>
</g>
<!-- Node38 -->
<g id="node38" class="node"><title>Node38</title>
<polygon fill="white" stroke="#bfbfbf" points="123,-0.5 123,-30.5 228,-30.5 228,-0.5 123,-0.5"/>
<text text-anchor="start" x="131" y="-18.5" font-family="Helvetica,sans-Serif" font-size="10.00">boost/units/systems</text>
<text text-anchor="middle" x="175.5" y="-7.5" font-family="Helvetica,sans-Serif" font-size="10.00">/si/length.hpp</text>
</g>
<!-- Node35&#45;&gt;Node38 -->
<g id="edge41" class="edge"><title>Node35&#45;&gt;Node38</title>
<path fill="none" stroke="midnightblue" d="M175.5,-72.7338C175.5,-64.5406 175.5,-51.9225 175.5,-40.7136"/>
<polygon fill="midnightblue" stroke="midnightblue" points="179,-40.589 175.5,-30.589 172,-40.5891 179,-40.589"/>
</g>
<!-- Node39&#45;&gt;Node19 -->
<g id="edge43" class="edge"><title>Node39&#45;&gt;Node19</title>
<path fill="none" stroke="midnightblue" d="M497.498,-72.9432C506.907,-70.8513 517.059,-68.7218 526.5,-67 644.891,-45.4082 786.913,-27.629 849.365,-20.2169"/>
<polygon fill="midnightblue" stroke="midnightblue" points="849.864,-23.6824 859.385,-19.0358 849.044,-16.7306 849.864,-23.6824"/>
</g>
<!-- Node39&#45;&gt;Node36 -->
<g id="edge45" class="edge"><title>Node39&#45;&gt;Node36</title>
<path fill="none" stroke="midnightblue" d="M440.917,-72.8685C414.166,-61.6504 367.252,-41.9766 336.528,-29.0925"/>
<polygon fill="midnightblue" stroke="midnightblue" points="337.743,-25.8068 327.168,-25.1672 335.036,-32.2622 337.743,-25.8068"/>
</g>
<!-- Node40 -->
<g id="node40" class="node"><title>Node40</title>
<polygon fill="white" stroke="#bfbfbf" points="385,-6 385,-25 542,-25 542,-6 385,-6"/>
<text text-anchor="middle" x="463.5" y="-13" font-family="Helvetica,sans-Serif" font-size="10.00">boost/units/base_dimension.hpp</text>
</g>
<!-- Node39&#45;&gt;Node40 -->
<g id="edge44" class="edge"><title>Node39&#45;&gt;Node40</title>
<path fill="none" stroke="midnightblue" d="M461.77,-72.7338C462.064,-63.1826 462.543,-47.6183 462.922,-35.2829"/>
<polygon fill="midnightblue" stroke="midnightblue" points="466.425,-35.2302 463.235,-25.1273 459.429,-35.0149 466.425,-35.2302"/>
</g>
<!-- Node41&#45;&gt;Node36 -->
<g id="edge48" class="edge"><title>Node41&#45;&gt;Node36</title>
<path fill="none" stroke="midnightblue" d="M314.286,-72.7338C312.964,-63.1826 310.809,-47.6183 309.101,-35.2829"/>
<polygon fill="midnightblue" stroke="midnightblue" points="312.533,-34.5527 307.695,-25.1273 305.599,-35.5129 312.533,-34.5527"/>
</g>
<!-- Node41&#45;&gt;Node40 -->
<g id="edge47" class="edge"><title>Node41&#45;&gt;Node40</title>
<path fill="none" stroke="midnightblue" d="M335.153,-72.8685C360.585,-61.699 405.104,-42.1468 434.446,-29.2602"/>
<polygon fill="midnightblue" stroke="midnightblue" points="436.017,-32.393 443.765,-25.1672 433.202,-25.9839 436.017,-32.393"/>
</g>
<!-- Node42&#45;&gt;Node5 -->
<g id="edge50" class="edge"><title>Node42&#45;&gt;Node5</title>
<path fill="none" stroke="midnightblue" d="M1148.72,-654.975C1122.76,-644.813 1079.19,-627.756 1049.67,-616.2"/>
<polygon fill="midnightblue" stroke="midnightblue" points="1050.83,-612.895 1040.24,-612.509 1048.27,-619.413 1050.83,-612.895"/>
</g>
<!-- Node43 -->
<g id="node43" class="node"><title>Node43</title>
<g id="a_node43"><a xlink:href="Constituent_8hh.html" target="_top" xlink:title="boca/Constituent.hh">
<polygon fill="white" stroke="black" points="1120.5,-593.5 1120.5,-612.5 1224.5,-612.5 1224.5,-593.5 1120.5,-593.5"/>
<text text-anchor="middle" x="1172.5" y="-600.5" font-family="Helvetica,sans-Serif" font-size="10.00">boca/Constituent.hh</text>
</a>
</g>
</g>
<!-- Node42&#45;&gt;Node43 -->
<g id="edge51" class="edge"><title>Node42&#45;&gt;Node43</title>
<path fill="none" stroke="midnightblue" d="M1170.79,-654.975C1171.07,-646.58 1171.51,-633.481 1171.87,-622.663"/>
<polygon fill="midnightblue" stroke="midnightblue" points="1175.38,-622.621 1172.21,-612.509 1168.38,-622.386 1175.38,-622.621"/>
</g>
<!-- Node47 -->
<g id="node47" class="node"><title>Node47</title>
<g id="a_node47"><a xlink:href="Identification_8hh.html" target="_top" xlink:title="boca/multiplets/Identification.hh">
<polygon fill="white" stroke="black" points="1243,-593.5 1243,-612.5 1398,-612.5 1398,-593.5 1243,-593.5"/>
<text text-anchor="middle" x="1320.5" y="-600.5" font-family="Helvetica,sans-Serif" font-size="10.00">boca/multiplets/Identification.hh</text>
</a>
</g>
</g>
<!-- Node42&#45;&gt;Node47 -->
<g id="edge56" class="edge"><title>Node42&#45;&gt;Node47</title>
<path fill="none" stroke="midnightblue" d="M1191.99,-654.975C1217.61,-644.813 1260.61,-627.756 1289.74,-616.2"/>
<polygon fill="midnightblue" stroke="midnightblue" points="1291.04,-619.45 1299.05,-612.509 1288.46,-612.943 1291.04,-619.45"/>
</g>
<!-- Node44 -->
<g id="node44" class="node"><title>Node44</title>
<g id="a_node44"><a xlink:href="Family_8hh.html" target="_top" xlink:title="boca/physics/Family.hh">
<polygon fill="white" stroke="black" points="1075.5,-537.5 1075.5,-556.5 1195.5,-556.5 1195.5,-537.5 1075.5,-537.5"/>
<text text-anchor="middle" x="1135.5" y="-544.5" font-family="Helvetica,sans-Serif" font-size="10.00">boca/physics/Family.hh</text>
</a>
</g>
</g>
<!-- Node43&#45;&gt;Node44 -->
<g id="edge52" class="edge"><title>Node43&#45;&gt;Node44</title>
<path fill="none" stroke="midnightblue" d="M1166.39,-593.083C1161.22,-585.534 1153.65,-574.495 1147.31,-565.23"/>
<polygon fill="midnightblue" stroke="midnightblue" points="1150.04,-563.022 1141.5,-556.751 1144.26,-566.979 1150.04,-563.022"/>
</g>
<!-- Node45 -->
<g id="node45" class="node"><title>Node45</title>
<polygon fill="white" stroke="#bfbfbf" points="1186,-481.5 1186,-500.5 1221,-500.5 1221,-481.5 1186,-481.5"/>
<text text-anchor="middle" x="1203.5" y="-488.5" font-family="Helvetica,sans-Serif" font-size="10.00">map</text>
</g>
<!-- Node44&#45;&gt;Node45 -->
<g id="edge53" class="edge"><title>Node44&#45;&gt;Node45</title>
<path fill="none" stroke="midnightblue" d="M1146.43,-537.324C1156.67,-529.185 1172.22,-516.839 1184.5,-507.087"/>
<polygon fill="midnightblue" stroke="midnightblue" points="1186.72,-509.794 1192.38,-500.834 1182.37,-504.312 1186.72,-509.794"/>
</g>
<!-- Node46 -->
<g id="node46" class="node"><title>Node46</title>
<g id="a_node46"><a xlink:href="Member_8hh.html" target="_top" xlink:title="boca/physics/Member.hh">
<polygon fill="white" stroke="black" points="1041.5,-481.5 1041.5,-500.5 1167.5,-500.5 1167.5,-481.5 1041.5,-481.5"/>
<text text-anchor="middle" x="1104.5" y="-488.5" font-family="Helvetica,sans-Serif" font-size="10.00">boca/physics/Member.hh</text>
</a>
</g>
</g>
<!-- Node44&#45;&gt;Node46 -->
<g id="edge54" class="edge"><title>Node44&#45;&gt;Node46</title>
<path fill="none" stroke="midnightblue" d="M1130.38,-537.083C1126.09,-529.613 1119.84,-518.724 1114.56,-509.52"/>
<polygon fill="midnightblue" stroke="midnightblue" points="1117.54,-507.681 1109.52,-500.751 1111.47,-511.166 1117.54,-507.681"/>
</g>
<!-- Node46&#45;&gt;Node7 -->
<g id="edge55" class="edge"><title>Node46&#45;&gt;Node7</title>
<path fill="none" stroke="midnightblue" d="M1089.88,-481.324C1075.55,-472.822 1053.49,-459.729 1036.75,-449.797"/>
<polygon fill="midnightblue" stroke="midnightblue" points="1038.47,-446.748 1028.08,-444.655 1034.9,-452.768 1038.47,-446.748"/>
</g>
<!-- Node48 -->
<g id="node48" class="node"><title>Node48</title>
<g id="a_node48"><a xlink:href="Tag_8hh.html" target="_top" xlink:title="boca/Tag.hh">
<polygon fill="white" stroke="black" points="1288,-537.5 1288,-556.5 1359,-556.5 1359,-537.5 1288,-537.5"/>
<text text-anchor="middle" x="1323.5" y="-544.5" font-family="Helvetica,sans-Serif" font-size="10.00">boca/Tag.hh</text>
</a>
</g>
</g>
<!-- Node47&#45;&gt;Node48 -->
<g id="edge57" class="edge"><title>Node47&#45;&gt;Node48</title>
<path fill="none" stroke="midnightblue" d="M1321,-593.083C1321.39,-586.006 1321.95,-575.861 1322.45,-566.986"/>
<polygon fill="midnightblue" stroke="midnightblue" points="1325.95,-566.93 1323.01,-556.751 1318.96,-566.542 1325.95,-566.93"/>
</g>
<!-- Node48&#45;&gt;Node18 -->
<g id="edge58" class="edge"><title>Node48&#45;&gt;Node18</title>
<path fill="none" stroke="midnightblue" d="M1319.99,-537.325C1312.9,-518.959 1297.5,-474.658 1297.5,-436 1297.5,-436 1297.5,-436 1297.5,-322 1297.5,-261.885 1260.95,-197.733 1241.44,-167.777"/>
<polygon fill="midnightblue" stroke="midnightblue" points="1244.24,-165.669 1235.78,-159.3 1238.42,-169.559 1244.24,-165.669"/>
</g>
<!-- Node49&#45;&gt;Node5 -->
<g id="edge60" class="edge"><title>Node49&#45;&gt;Node5</title>
<path fill="none" stroke="midnightblue" d="M1024.07,-716.298C1023.1,-696.85 1020.76,-649.49 1019.44,-622.904"/>
<polygon fill="midnightblue" stroke="midnightblue" points="1022.92,-622.438 1018.93,-612.623 1015.93,-622.784 1022.92,-622.438"/>
</g>
<!-- Node50 -->
<g id="node50" class="node"><title>Node50</title>
<g id="a_node50"><a xlink:href="ParticleInfo_8hh.html" target="_top" xlink:title="boca/multiplets/Particle\lInfo.hh">
<polygon fill="white" stroke="black" points="877,-649.5 877,-679.5 996,-679.5 996,-649.5 877,-649.5"/>
<text text-anchor="start" x="885" y="-667.5" font-family="Helvetica,sans-Serif" font-size="10.00">boca/multiplets/Particle</text>
<text text-anchor="middle" x="936.5" y="-656.5" font-family="Helvetica,sans-Serif" font-size="10.00">Info.hh</text>
</a>
</g>
</g>
<!-- Node49&#45;&gt;Node50 -->
<g id="edge61" class="edge"><title>Node49&#45;&gt;Node50</title>
<path fill="none" stroke="midnightblue" d="M1011.89,-716.475C999.862,-708.341 981.3,-695.791 965.605,-685.179"/>
<polygon fill="midnightblue" stroke="midnightblue" points="967.484,-682.225 957.24,-679.523 963.564,-688.024 967.484,-682.225"/>
</g>
<!-- Node50&#45;&gt;Node5 -->
<g id="edge62" class="edge"><title>Node50&#45;&gt;Node5</title>
<path fill="none" stroke="midnightblue" d="M955.933,-649.399C968.708,-640.129 985.389,-628.025 998.314,-618.647"/>
<polygon fill="midnightblue" stroke="midnightblue" points="1000.53,-621.364 1006.57,-612.658 996.419,-615.698 1000.53,-621.364"/>
</g>
<!-- Node50&#45;&gt;Node44 -->
<g id="edge63" class="edge"><title>Node50&#45;&gt;Node44</title>
<path fill="none" stroke="midnightblue" d="M933.54,-649.462C931.106,-633.741 929.959,-608.446 943.5,-593 959.566,-574.673 1017.15,-562.813 1065.1,-555.895"/>
<polygon fill="midnightblue" stroke="midnightblue" points="1065.74,-559.339 1075.16,-554.493 1064.78,-552.406 1065.74,-559.339"/>
</g>
</g>
</svg>
