<?xml version="1.0" encoding="UTF-8" standalone="no"?>
<!DOCTYPE svg PUBLIC "-//W3C//DTD SVG 1.1//EN"
 "http://www.w3.org/Graphics/SVG/1.1/DTD/svg11.dtd">
<!-- Generated by graphviz version 2.38.0 (20140413.2041)
 -->
<!-- Title: build/examples/tthh/source/branch/BranchtthhDict.cxx Pages: 1 -->
<svg width="2124pt" height="542pt"
 viewBox="0.00 0.00 2124.00 542.00" xmlns="http://www.w3.org/2000/svg" xmlns:xlink="http://www.w3.org/1999/xlink">
<g id="graph0" class="graph" transform="scale(1 1) rotate(0) translate(4 538)">
<title>build/examples/tthh/source/branch/BranchtthhDict.cxx</title>
<polygon fill="white" stroke="none" points="-4,4 -4,-538 2120,-538 2120,4 -4,4"/>
<!-- Node1 -->
<g id="node1" class="node"><title>Node1</title>
<polygon fill="#bfbfbf" stroke="black" points="756,-503.5 756,-533.5 924,-533.5 924,-503.5 756,-503.5"/>
<text text-anchor="start" x="764" y="-521.5" font-family="Helvetica,sans-Serif" font-size="10.00">build/examples/tthh</text>
<text text-anchor="middle" x="840" y="-510.5" font-family="Helvetica,sans-Serif" font-size="10.00">/source/branch/BranchtthhDict.cxx</text>
</g>
<!-- Node2 -->
<g id="node2" class="node"><title>Node2</title>
<polygon fill="white" stroke="#bfbfbf" points="0,-431 0,-450 52,-450 52,-431 0,-431"/>
<text text-anchor="middle" x="26" y="-438" font-family="Helvetica,sans-Serif" font-size="10.00">stddef.h</text>
</g>
<!-- Node1&#45;&gt;Node2 -->
<g id="edge1" class="edge"><title>Node1&#45;&gt;Node2</title>
<path fill="none" stroke="midnightblue" d="M755.939,-517.928C581.667,-517.862 186.768,-512.509 61,-467 54.4121,-464.616 47.9827,-460.589 42.4693,-456.431"/>
<polygon fill="midnightblue" stroke="midnightblue" points="44.6124,-453.661 34.6682,-450.006 40.1621,-459.065 44.6124,-453.661"/>
</g>
<!-- Node3 -->
<g id="node3" class="node"><title>Node3</title>
<polygon fill="white" stroke="#bfbfbf" points="70,-431 70,-450 116,-450 116,-431 70,-431"/>
<text text-anchor="middle" x="93" y="-438" font-family="Helvetica,sans-Serif" font-size="10.00">stdio.h</text>
</g>
<!-- Node1&#45;&gt;Node3 -->
<g id="edge2" class="edge"><title>Node1&#45;&gt;Node3</title>
<path fill="none" stroke="midnightblue" d="M755.87,-517.767C592.36,-517.276 237.828,-510.979 125,-467 119.209,-464.743 113.638,-461.049 108.813,-457.165"/>
<polygon fill="midnightblue" stroke="midnightblue" points="110.841,-454.284 101.049,-450.237 106.18,-459.507 110.841,-454.284"/>
</g>
<!-- Node4 -->
<g id="node4" class="node"><title>Node4</title>
<polygon fill="white" stroke="#bfbfbf" points="134,-431 134,-450 182,-450 182,-431 134,-431"/>
<text text-anchor="middle" x="158" y="-438" font-family="Helvetica,sans-Serif" font-size="10.00">stdlib.h</text>
</g>
<!-- Node1&#45;&gt;Node4 -->
<g id="edge3" class="edge"><title>Node1&#45;&gt;Node4</title>
<path fill="none" stroke="midnightblue" d="M755.983,-516.75C604.731,-514.446 292.963,-505.076 192,-467 185.808,-464.665 179.782,-460.836 174.565,-456.847"/>
<polygon fill="midnightblue" stroke="midnightblue" points="176.573,-453.963 166.663,-450.217 172.074,-459.326 176.573,-453.963"/>
</g>
<!-- Node5 -->
<g id="node5" class="node"><title>Node5</title>
<polygon fill="white" stroke="#bfbfbf" points="200.5,-431 200.5,-450 247.5,-450 247.5,-431 200.5,-431"/>
<text text-anchor="middle" x="224" y="-438" font-family="Helvetica,sans-Serif" font-size="10.00">math.h</text>
</g>
<!-- Node1&#45;&gt;Node5 -->
<g id="edge4" class="edge"><title>Node1&#45;&gt;Node5</title>
<path fill="none" stroke="midnightblue" d="M755.893,-516.02C616.865,-512.609 345.666,-501.609 257,-467 250.951,-464.639 245.09,-460.802 240.028,-456.814"/>
<polygon fill="midnightblue" stroke="midnightblue" points="242.224,-454.086 232.37,-450.192 237.645,-459.38 242.224,-454.086"/>
</g>
<!-- Node6 -->
<g id="node6" class="node"><title>Node6</title>
<polygon fill="white" stroke="#bfbfbf" points="265.5,-431 265.5,-450 314.5,-450 314.5,-431 265.5,-431"/>
<text text-anchor="middle" x="290" y="-438" font-family="Helvetica,sans-Serif" font-size="10.00">string.h</text>
</g>
<!-- Node1&#45;&gt;Node6 -->
<g id="edge5" class="edge"><title>Node1&#45;&gt;Node6</title>
<path fill="none" stroke="midnightblue" d="M755.753,-514.757C630.201,-509.743 400.561,-496.742 324,-467 317.832,-464.604 311.812,-460.757 306.594,-456.769"/>
<polygon fill="midnightblue" stroke="midnightblue" points="308.603,-453.886 298.685,-450.158 304.113,-459.257 308.603,-453.886"/>
</g>
<!-- Node7 -->
<g id="node7" class="node"><title>Node7</title>
<polygon fill="white" stroke="#bfbfbf" points="333,-431 333,-450 385,-450 385,-431 333,-431"/>
<text text-anchor="middle" x="359" y="-438" font-family="Helvetica,sans-Serif" font-size="10.00">assert.h</text>
</g>
<!-- Node1&#45;&gt;Node7 -->
<g id="edge6" class="edge"><title>Node1&#45;&gt;Node7</title>
<path fill="none" stroke="midnightblue" d="M755.986,-512.965C645.814,-506.161 459.014,-491.436 395,-467 388.426,-464.491 381.934,-460.498 376.311,-456.41"/>
<polygon fill="midnightblue" stroke="midnightblue" points="378.328,-453.543 368.306,-450.107 373.998,-459.043 378.328,-453.543"/>
</g>
<!-- Node8 -->
<g id="node8" class="node"><title>Node8</title>
<polygon fill="white" stroke="#bfbfbf" points="403.5,-431 403.5,-450 464.5,-450 464.5,-431 403.5,-431"/>
<text text-anchor="middle" x="434" y="-438" font-family="Helvetica,sans-Serif" font-size="10.00">RConfig.h</text>
</g>
<!-- Node1&#45;&gt;Node8 -->
<g id="edge7" class="edge"><title>Node1&#45;&gt;Node8</title>
<path fill="none" stroke="midnightblue" d="M755.777,-516.054C679.959,-512.401 566.563,-501.032 474,-467 466.729,-464.327 459.401,-460.175 453.04,-455.993"/>
<polygon fill="midnightblue" stroke="midnightblue" points="454.724,-452.899 444.53,-450.012 450.699,-458.625 454.724,-452.899"/>
</g>
<!-- Node9 -->
<g id="node9" class="node"><title>Node9</title>
<polygon fill="white" stroke="#bfbfbf" points="483,-431 483,-450 539,-450 539,-431 483,-431"/>
<text text-anchor="middle" x="511" y="-438" font-family="Helvetica,sans-Serif" font-size="10.00">TClass.h</text>
</g>
<!-- Node1&#45;&gt;Node9 -->
<g id="edge8" class="edge"><title>Node1&#45;&gt;Node9</title>
<path fill="none" stroke="midnightblue" d="M755.87,-512.579C696.056,-506.804 614.809,-494.255 548,-467 541.458,-464.331 534.915,-460.36 529.189,-456.341"/>
<polygon fill="midnightblue" stroke="midnightblue" points="531.078,-453.382 520.983,-450.167 526.87,-458.976 531.078,-453.382"/>
</g>
<!-- Node10 -->
<g id="node10" class="node"><title>Node10</title>
<polygon fill="white" stroke="#bfbfbf" points="557,-431 557,-450 661,-450 661,-431 557,-431"/>
<text text-anchor="middle" x="609" y="-438" font-family="Helvetica,sans-Serif" font-size="10.00">TDictAttributeMap.h</text>
</g>
<!-- Node1&#45;&gt;Node10 -->
<g id="edge9" class="edge"><title>Node1&#45;&gt;Node10</title>
<path fill="none" stroke="midnightblue" d="M788.168,-503.461C754.504,-493.988 709.825,-480.746 671,-467 660.025,-463.114 648.161,-458.372 637.778,-454.035"/>
<polygon fill="midnightblue" stroke="midnightblue" points="638.927,-450.721 628.354,-450.043 636.197,-457.167 638.927,-450.721"/>
</g>
<!-- Node11 -->
<g id="node11" class="node"><title>Node11</title>
<polygon fill="white" stroke="#bfbfbf" points="679.5,-431 679.5,-450 754.5,-450 754.5,-431 679.5,-431"/>
<text text-anchor="middle" x="717" y="-438" font-family="Helvetica,sans-Serif" font-size="10.00">TInterpreter.h</text>
</g>
<!-- Node1&#45;&gt;Node11 -->
<g id="edge10" class="edge"><title>Node1&#45;&gt;Node11</title>
<path fill="none" stroke="midnightblue" d="M817.153,-503.383C795.025,-489.711 761.671,-469.102 739.621,-455.477"/>
<polygon fill="midnightblue" stroke="midnightblue" points="741.275,-452.385 730.928,-450.106 737.596,-458.34 741.275,-452.385"/>
</g>
<!-- Node12 -->
<g id="node12" class="node"><title>Node12</title>
<polygon fill="white" stroke="#bfbfbf" points="772.5,-431 772.5,-450 831.5,-450 831.5,-431 772.5,-431"/>
<text text-anchor="middle" x="802" y="-438" font-family="Helvetica,sans-Serif" font-size="10.00">TROOT.h</text>
</g>
<!-- Node1&#45;&gt;Node12 -->
<g id="edge11" class="edge"><title>Node1&#45;&gt;Node12</title>
<path fill="none" stroke="midnightblue" d="M832.852,-503.205C826.616,-490.733 817.544,-472.588 810.85,-459.201"/>
<polygon fill="midnightblue" stroke="midnightblue" points="813.884,-457.443 806.282,-450.064 807.623,-460.573 813.884,-457.443"/>
</g>
<!-- Node13 -->
<g id="node13" class="node"><title>Node13</title>
<polygon fill="white" stroke="#bfbfbf" points="849.5,-431 849.5,-450 906.5,-450 906.5,-431 849.5,-431"/>
<text text-anchor="middle" x="878" y="-438" font-family="Helvetica,sans-Serif" font-size="10.00">TBuffer.h</text>
</g>
<!-- Node1&#45;&gt;Node13 -->
<g id="edge12" class="edge"><title>Node1&#45;&gt;Node13</title>
<path fill="none" stroke="midnightblue" d="M847.148,-503.205C853.384,-490.733 862.456,-472.588 869.15,-459.201"/>
<polygon fill="midnightblue" stroke="midnightblue" points="872.377,-460.573 873.718,-450.064 866.116,-457.443 872.377,-460.573"/>
</g>
<!-- Node14 -->
<g id="node14" class="node"><title>Node14</title>
<polygon fill="white" stroke="#bfbfbf" points="924.5,-431 924.5,-450 1031.5,-450 1031.5,-431 924.5,-431"/>
<text text-anchor="middle" x="978" y="-438" font-family="Helvetica,sans-Serif" font-size="10.00">TMemberInspector.h</text>
</g>
<!-- Node1&#45;&gt;Node14 -->
<g id="edge13" class="edge"><title>Node1&#45;&gt;Node14</title>
<path fill="none" stroke="midnightblue" d="M865.633,-503.383C890.792,-489.528 928.886,-468.549 953.608,-454.933"/>
<polygon fill="midnightblue" stroke="midnightblue" points="955.302,-457.996 962.373,-450.106 951.925,-451.864 955.302,-457.996"/>
</g>
<!-- Node15 -->
<g id="node15" class="node"><title>Node15</title>
<polygon fill="white" stroke="#bfbfbf" points="1050,-431 1050,-450 1136,-450 1136,-431 1050,-431"/>
<text text-anchor="middle" x="1093" y="-438" font-family="Helvetica,sans-Serif" font-size="10.00">TVirtualMutex.h</text>
</g>
<!-- Node1&#45;&gt;Node15 -->
<g id="edge14" class="edge"><title>Node1&#45;&gt;Node15</title>
<path fill="none" stroke="midnightblue" d="M911.324,-503.408C950.247,-494.769 998.936,-482.404 1041,-467 1050.19,-463.634 1059.91,-459.14 1068.43,-454.863"/>
<polygon fill="midnightblue" stroke="midnightblue" points="1070.17,-457.902 1077.45,-450.197 1066.96,-451.685 1070.17,-457.902"/>
</g>
<!-- Node16 -->
<g id="node16" class="node"><title>Node16</title>
<polygon fill="white" stroke="#bfbfbf" points="1154,-431 1154,-450 1206,-450 1206,-431 1154,-431"/>
<text text-anchor="middle" x="1180" y="-438" font-family="Helvetica,sans-Serif" font-size="10.00">TError.h</text>
</g>
<!-- Node1&#45;&gt;Node16 -->
<g id="edge15" class="edge"><title>Node1&#45;&gt;Node16</title>
<path fill="none" stroke="midnightblue" d="M924.111,-514.035C987.037,-508.99 1074.09,-496.719 1145,-467 1151.13,-464.431 1157.2,-460.595 1162.52,-456.674"/>
<polygon fill="midnightblue" stroke="midnightblue" points="1165,-459.171 1170.65,-450.203 1160.64,-453.695 1165,-459.171"/>
</g>
<!-- Node17 -->
<g id="node17" class="node"><title>Node17</title>
<polygon fill="white" stroke="#bfbfbf" points="1224.5,-431 1224.5,-450 1297.5,-450 1297.5,-431 1224.5,-431"/>
<text text-anchor="middle" x="1261" y="-438" font-family="Helvetica,sans-Serif" font-size="10.00">RtypesImp.h</text>
</g>
<!-- Node1&#45;&gt;Node17 -->
<g id="edge16" class="edge"><title>Node1&#45;&gt;Node17</title>
<path fill="none" stroke="midnightblue" d="M924.295,-515.058C1001.64,-510.75 1118.5,-498.98 1215,-467 1223.41,-464.213 1232.05,-459.875 1239.54,-455.563"/>
<polygon fill="midnightblue" stroke="midnightblue" points="1241.59,-458.417 1248.31,-450.232 1237.95,-452.436 1241.59,-458.417"/>
</g>
<!-- Node18 -->
<g id="node18" class="node"><title>Node18</title>
<polygon fill="white" stroke="#bfbfbf" points="1315.5,-431 1315.5,-450 1386.5,-450 1386.5,-431 1315.5,-431"/>
<text text-anchor="middle" x="1351" y="-438" font-family="Helvetica,sans-Serif" font-size="10.00">TIsAProxy.h</text>
</g>
<!-- Node1&#45;&gt;Node18 -->
<g id="edge17" class="edge"><title>Node1&#45;&gt;Node18</title>
<path fill="none" stroke="midnightblue" d="M924.433,-512.583C1039.19,-505.179 1238.03,-489.588 1307,-467 1315.26,-464.295 1323.67,-459.9 1330.9,-455.515"/>
<polygon fill="midnightblue" stroke="midnightblue" points="1332.81,-458.449 1339.32,-450.093 1329.02,-452.564 1332.81,-458.449"/>
</g>
<!-- Node19 -->
<g id="node19" class="node"><title>Node19</title>
<polygon fill="white" stroke="#bfbfbf" points="1405,-431 1405,-450 1495,-450 1495,-431 1405,-431"/>
<text text-anchor="middle" x="1450" y="-438" font-family="Helvetica,sans-Serif" font-size="10.00">TFileMergeInfo.h</text>
</g>
<!-- Node1&#45;&gt;Node19 -->
<g id="edge18" class="edge"><title>Node1&#45;&gt;Node19</title>
<path fill="none" stroke="midnightblue" d="M924.079,-513.466C1056.97,-506.483 1309.38,-490.59 1396,-467 1406.39,-464.169 1417.25,-459.436 1426.47,-454.81"/>
<polygon fill="midnightblue" stroke="midnightblue" points="1428.19,-457.863 1435.41,-450.113 1424.93,-451.666 1428.19,-457.863"/>
</g>
<!-- Node20 -->
<g id="node20" class="node"><title>Node20</title>
<polygon fill="white" stroke="#bfbfbf" points="1513,-431 1513,-450 1569,-450 1569,-431 1513,-431"/>
<text text-anchor="middle" x="1541" y="-438" font-family="Helvetica,sans-Serif" font-size="10.00">algorithm</text>
</g>
<!-- Node1&#45;&gt;Node20 -->
<g id="edge19" class="edge"><title>Node1&#45;&gt;Node20</title>
<path fill="none" stroke="midnightblue" d="M924.129,-516.543C1078.18,-513.895 1399.35,-503.978 1504,-467 1510.76,-464.612 1517.43,-460.654 1523.21,-456.56"/>
<polygon fill="midnightblue" stroke="midnightblue" points="1525.65,-459.096 1531.44,-450.221 1521.38,-453.551 1525.65,-459.096"/>
</g>
<!-- Node21 -->
<g id="node21" class="node"><title>Node21</title>
<polygon fill="white" stroke="#bfbfbf" points="1587,-431 1587,-450 1703,-450 1703,-431 1587,-431"/>
<text text-anchor="middle" x="1645" y="-438" font-family="Helvetica,sans-Serif" font-size="10.00">TCollectionProxyInfo.h</text>
</g>
<!-- Node1&#45;&gt;Node21 -->
<g id="edge20" class="edge"><title>Node1&#45;&gt;Node21</title>
<path fill="none" stroke="midnightblue" d="M924.265,-514.858C1090.58,-509.129 1455.54,-493.87 1578,-467 1591.39,-464.062 1605.66,-458.931 1617.58,-454.038"/>
<polygon fill="midnightblue" stroke="midnightblue" points="1619.14,-457.179 1626.96,-450.037 1616.39,-450.74 1619.14,-457.179"/>
</g>
<!-- Node22 -->
<g id="node22" class="node"><title>Node22</title>
<polygon fill="white" stroke="#bfbfbf" points="1721.5,-431 1721.5,-450 1808.5,-450 1808.5,-431 1721.5,-431"/>
<text text-anchor="middle" x="1765" y="-438" font-family="Helvetica,sans-Serif" font-size="10.00">TDataMember.h</text>
</g>
<!-- Node1&#45;&gt;Node22 -->
<g id="edge21" class="edge"><title>Node1&#45;&gt;Node22</title>
<path fill="none" stroke="midnightblue" d="M924.078,-516.781C1112.73,-514.497 1564.73,-505.097 1712,-467 1722.42,-464.305 1733.24,-459.507 1742.37,-454.794"/>
<polygon fill="midnightblue" stroke="midnightblue" points="1744.07,-457.856 1751.18,-450.006 1740.72,-451.706 1744.07,-457.856"/>
</g>
<!-- Node23 -->
<g id="node23" class="node"><title>Node23</title>
<g id="a_node23"><a xlink:href="examples_2tthh_2tthh_2branch_2Global_8hh.html" target="_top" xlink:title="/home/hajer/Projects\l/BoCA/examples/tthh/source\l/branch/../../tthh/branch\l/Global.hh">
<polygon fill="white" stroke="black" points="1826.5,-414.5 1826.5,-466.5 1969.5,-466.5 1969.5,-414.5 1826.5,-414.5"/>
<text text-anchor="start" x="1834.5" y="-454.5" font-family="Helvetica,sans-Serif" font-size="10.00">/home/hajer/Projects</text>
<text text-anchor="start" x="1834.5" y="-443.5" font-family="Helvetica,sans-Serif" font-size="10.00">/BoCA/examples/tthh/source</text>
<text text-anchor="start" x="1834.5" y="-432.5" font-family="Helvetica,sans-Serif" font-size="10.00">/branch/../../tthh/branch</text>
<text text-anchor="middle" x="1898" y="-421.5" font-family="Helvetica,sans-Serif" font-size="10.00">/Global.hh</text>
</a>
</g>
</g>
<!-- Node1&#45;&gt;Node23 -->
<g id="edge22" class="edge"><title>Node1&#45;&gt;Node23</title>
<path fill="none" stroke="midnightblue" d="M924.296,-515.925C1125.23,-511.73 1628.96,-498.512 1816.25,-467.078"/>
<polygon fill="midnightblue" stroke="midnightblue" points="1817.02,-470.497 1826.26,-465.324 1815.81,-463.602 1817.02,-470.497"/>
</g>
<!-- Node24 -->
<g id="node24" class="node"><title>Node24</title>
<g id="a_node24"><a xlink:href="Prefixes_8hh.html" target="_top" xlink:title="boca/units/Prefixes.hh">
<polygon fill="white" stroke="black" points="1221,-358.5 1221,-377.5 1335,-377.5 1335,-358.5 1221,-358.5"/>
<text text-anchor="middle" x="1278" y="-365.5" font-family="Helvetica,sans-Serif" font-size="10.00">boca/units/Prefixes.hh</text>
</a>
</g>
</g>
<!-- Node23&#45;&gt;Node24 -->
<g id="edge23" class="edge"><title>Node23&#45;&gt;Node24</title>
<path fill="none" stroke="midnightblue" d="M1826.24,-415.786C1823.47,-415.138 1820.72,-414.539 1818,-414 1650.28,-380.725 1448.51,-372.016 1345.59,-369.763"/>
<polygon fill="midnightblue" stroke="midnightblue" points="1345.41,-366.259 1335.34,-369.553 1345.27,-373.257 1345.41,-366.259"/>
</g>
<!-- Node41 -->
<g id="node41" class="node"><title>Node41</title>
<g id="a_node41"><a xlink:href="Bdt_8hh.html" target="_top" xlink:title="boca/branch/Bdt.hh">
<polygon fill="white" stroke="black" points="1847.5,-358.5 1847.5,-377.5 1948.5,-377.5 1948.5,-358.5 1847.5,-358.5"/>
<text text-anchor="middle" x="1898" y="-365.5" font-family="Helvetica,sans-Serif" font-size="10.00">boca/branch/Bdt.hh</text>
</a>
</g>
</g>
<!-- Node23&#45;&gt;Node41 -->
<g id="edge44" class="edge"><title>Node23&#45;&gt;Node41</title>
<path fill="none" stroke="midnightblue" d="M1898,-414.446C1898,-405.73 1898,-396.104 1898,-387.964"/>
<polygon fill="midnightblue" stroke="midnightblue" points="1901.5,-387.695 1898,-377.695 1894.5,-387.696 1901.5,-387.695"/>
</g>
<!-- Node45 -->
<g id="node45" class="node"><title>Node45</title>
<g id="a_node45"><a xlink:href="boca_2multivariant_2Observables_8hh.html" target="_top" xlink:title="boca/multivariant/Observables.hh">
<polygon fill="white" stroke="black" points="1954,-230 1954,-249 2116,-249 2116,-230 1954,-230"/>
<text text-anchor="middle" x="2035" y="-237" font-family="Helvetica,sans-Serif" font-size="10.00">boca/multivariant/Observables.hh</text>
</a>
</g>
</g>
<!-- Node23&#45;&gt;Node45 -->
<g id="edge54" class="edge"><title>Node23&#45;&gt;Node45</title>
<path fill="none" stroke="midnightblue" d="M1925.61,-414.244C1936.4,-403.627 1948.45,-390.785 1958,-378 1987.78,-338.143 2014.11,-285.525 2026.86,-258.389"/>
<polygon fill="midnightblue" stroke="midnightblue" points="2030.17,-259.565 2031.2,-249.02 2023.82,-256.625 2030.17,-259.565"/>
</g>
<!-- Node25 -->
<g id="node25" class="node"><title>Node25</title>
<polygon fill="white" stroke="#bfbfbf" points="888,-297 888,-316 998,-316 998,-297 888,-297"/>
<text text-anchor="middle" x="943" y="-304" font-family="Helvetica,sans-Serif" font-size="10.00">boost/units/scale.hpp</text>
</g>
<!-- Node24&#45;&gt;Node25 -->
<g id="edge24" class="edge"><title>Node24&#45;&gt;Node25</title>
<path fill="none" stroke="midnightblue" d="M1221.47,-358.494C1166.73,-350.042 1081.47,-336.306 1008,-322 1002.11,-320.853 995.939,-319.576 989.84,-318.267"/>
<polygon fill="midnightblue" stroke="midnightblue" points="990.225,-314.769 979.709,-316.054 988.731,-321.608 990.225,-314.769"/>
</g>
<!-- Node26 -->
<g id="node26" class="node"><title>Node26</title>
<polygon fill="white" stroke="#bfbfbf" points="1016.5,-291.5 1016.5,-321.5 1141.5,-321.5 1141.5,-291.5 1016.5,-291.5"/>
<text text-anchor="start" x="1024.5" y="-309.5" font-family="Helvetica,sans-Serif" font-size="10.00">boost/units/make_scaled</text>
<text text-anchor="middle" x="1079" y="-298.5" font-family="Helvetica,sans-Serif" font-size="10.00">_unit.hpp</text>
</g>
<!-- Node24&#45;&gt;Node26 -->
<g id="edge25" class="edge"><title>Node24&#45;&gt;Node26</title>
<path fill="none" stroke="midnightblue" d="M1249.49,-358.475C1219.89,-349.626 1172.81,-335.549 1135.62,-324.428"/>
<polygon fill="midnightblue" stroke="midnightblue" points="1136.48,-321.034 1125.9,-321.523 1134.48,-327.741 1136.48,-321.034"/>
</g>
<!-- Node27 -->
<g id="node27" class="node"><title>Node27</title>
<polygon fill="white" stroke="#bfbfbf" points="1159.5,-291.5 1159.5,-321.5 1270.5,-321.5 1270.5,-291.5 1159.5,-291.5"/>
<text text-anchor="start" x="1167.5" y="-309.5" font-family="Helvetica,sans-Serif" font-size="10.00">boost/units/systems</text>
<text text-anchor="middle" x="1215" y="-298.5" font-family="Helvetica,sans-Serif" font-size="10.00">/si/dimensionless.hpp</text>
</g>
<!-- Node24&#45;&gt;Node27 -->
<g id="edge26" class="edge"><title>Node24&#45;&gt;Node27</title>
<path fill="none" stroke="midnightblue" d="M1268.97,-358.475C1260.76,-350.718 1248.29,-338.943 1237.41,-328.665"/>
<polygon fill="midnightblue" stroke="midnightblue" points="1239.52,-325.845 1229.85,-321.523 1234.71,-330.934 1239.52,-325.845"/>
</g>
<!-- Node28 -->
<g id="node28" class="node"><title>Node28</title>
<polygon fill="white" stroke="#bfbfbf" points="1289,-297 1289,-316 1393,-316 1393,-297 1289,-297"/>
<text text-anchor="middle" x="1341" y="-304" font-family="Helvetica,sans-Serif" font-size="10.00">boost/units/pow.hpp</text>
</g>
<!-- Node24&#45;&gt;Node28 -->
<g id="edge27" class="edge"><title>Node24&#45;&gt;Node28</title>
<path fill="none" stroke="midnightblue" d="M1287.03,-358.475C1296.76,-349.285 1312.46,-334.456 1324.42,-323.156"/>
<polygon fill="midnightblue" stroke="midnightblue" points="1327.12,-325.42 1331.99,-316.009 1322.32,-320.331 1327.12,-325.42"/>
</g>
<!-- Node29 -->
<g id="node29" class="node"><title>Node29</title>
<g id="a_node29"><a xlink:href="units_2Si_8hh.html" target="_top" xlink:title="boca/units/Si.hh">
<polygon fill="white" stroke="black" points="782.5,-297 782.5,-316 869.5,-316 869.5,-297 782.5,-297"/>
<text text-anchor="middle" x="826" y="-304" font-family="Helvetica,sans-Serif" font-size="10.00">boca/units/Si.hh</text>
</a>
</g>
</g>
<!-- Node24&#45;&gt;Node29 -->
<g id="edge28" class="edge"><title>Node24&#45;&gt;Node29</title>
<path fill="none" stroke="midnightblue" d="M1220.76,-363.34C1142.9,-357.727 999.489,-345.132 879,-322 874.161,-321.071 869.116,-319.926 864.147,-318.691"/>
<polygon fill="midnightblue" stroke="midnightblue" points="864.701,-315.218 854.141,-316.068 862.927,-321.99 864.701,-315.218"/>
</g>
<!-- Node35 -->
<g id="node35" class="node"><title>Node35</title>
<g id="a_node35"><a xlink:href="Barn_8hh.html" target="_top" xlink:title="boca/units/Barn.hh">
<polygon fill="white" stroke="black" points="1411,-297 1411,-316 1509,-316 1509,-297 1411,-297"/>
<text text-anchor="middle" x="1460" y="-304" font-family="Helvetica,sans-Serif" font-size="10.00">boca/units/Barn.hh</text>
</a>
</g>
</g>
<!-- Node24&#45;&gt;Node35 -->
<g id="edge34" class="edge"><title>Node24&#45;&gt;Node35</title>
<path fill="none" stroke="midnightblue" d="M1304.08,-358.475C1335.57,-348.18 1388.7,-330.81 1424.06,-319.25"/>
<polygon fill="midnightblue" stroke="midnightblue" points="1425.55,-322.443 1433.97,-316.009 1423.38,-315.79 1425.55,-322.443"/>
</g>
<!-- Node39 -->
<g id="node39" class="node"><title>Node39</title>
<g id="a_node39"><a xlink:href="ElectronVolt_8hh.html" target="_top" xlink:title="boca/units/ElectronVolt.hh">
<polygon fill="white" stroke="black" points="1527.5,-297 1527.5,-316 1658.5,-316 1658.5,-297 1527.5,-297"/>
<text text-anchor="middle" x="1593" y="-304" font-family="Helvetica,sans-Serif" font-size="10.00">boca/units/ElectronVolt.hh</text>
</a>
</g>
</g>
<!-- Node24&#45;&gt;Node39 -->
<g id="edge39" class="edge"><title>Node24&#45;&gt;Node39</title>
<path fill="none" stroke="midnightblue" d="M1324.02,-358.45C1372.35,-349.454 1450.54,-334.846 1518,-322 1524.74,-320.717 1531.82,-319.36 1538.82,-318.012"/>
<polygon fill="midnightblue" stroke="midnightblue" points="1539.83,-321.382 1548.99,-316.052 1538.51,-314.509 1539.83,-321.382"/>
</g>
<!-- Node30 -->
<g id="node30" class="node"><title>Node30</title>
<polygon fill="white" stroke="#bfbfbf" points="1109.5,-230 1109.5,-249 1230.5,-249 1230.5,-230 1109.5,-230"/>
<text text-anchor="middle" x="1170" y="-237" font-family="Helvetica,sans-Serif" font-size="10.00">boost/units/quantity.hpp</text>
</g>
<!-- Node29&#45;&gt;Node30 -->
<g id="edge29" class="edge"><title>Node29&#45;&gt;Node30</title>
<path fill="none" stroke="midnightblue" d="M855.311,-296.946C862.984,-294.854 871.272,-292.724 879,-291 954.459,-274.17 1041.98,-259.647 1101.17,-250.552"/>
<polygon fill="midnightblue" stroke="midnightblue" points="1101.8,-253.997 1111.15,-249.028 1100.74,-247.077 1101.8,-253.997"/>
</g>
<!-- Node31 -->
<g id="node31" class="node"><title>Node31</title>
<polygon fill="white" stroke="#bfbfbf" points="563.5,-224.5 563.5,-254.5 668.5,-254.5 668.5,-224.5 563.5,-224.5"/>
<text text-anchor="start" x="571.5" y="-242.5" font-family="Helvetica,sans-Serif" font-size="10.00">boost/units/systems</text>
<text text-anchor="middle" x="616" y="-231.5" font-family="Helvetica,sans-Serif" font-size="10.00">/si/plane_angle.hpp</text>
</g>
<!-- Node29&#45;&gt;Node31 -->
<g id="edge30" class="edge"><title>Node29&#45;&gt;Node31</title>
<path fill="none" stroke="midnightblue" d="M798.114,-296.869C765.852,-286.883 711.944,-270.197 671.131,-257.564"/>
<polygon fill="midnightblue" stroke="midnightblue" points="671.909,-254.141 661.321,-254.528 669.839,-260.828 671.909,-254.141"/>
</g>
<!-- Node32 -->
<g id="node32" class="node"><title>Node32</title>
<polygon fill="white" stroke="#bfbfbf" points="686.5,-224.5 686.5,-254.5 791.5,-254.5 791.5,-224.5 686.5,-224.5"/>
<text text-anchor="start" x="694.5" y="-242.5" font-family="Helvetica,sans-Serif" font-size="10.00">boost/units/systems</text>
<text text-anchor="middle" x="739" y="-231.5" font-family="Helvetica,sans-Serif" font-size="10.00">/si/length.hpp</text>
</g>
<!-- Node29&#45;&gt;Node32 -->
<g id="edge31" class="edge"><title>Node29&#45;&gt;Node32</title>
<path fill="none" stroke="midnightblue" d="M814.267,-296.734C801.944,-287.527 782.142,-272.733 765.942,-260.629"/>
<polygon fill="midnightblue" stroke="midnightblue" points="767.964,-257.77 757.858,-254.589 763.774,-263.378 767.964,-257.77"/>
</g>
<!-- Node33 -->
<g id="node33" class="node"><title>Node33</title>
<polygon fill="white" stroke="#bfbfbf" points="809.5,-230 809.5,-249 922.5,-249 922.5,-230 809.5,-230"/>
<text text-anchor="middle" x="866" y="-237" font-family="Helvetica,sans-Serif" font-size="10.00">boost/units/cmath.hpp</text>
</g>
<!-- Node29&#45;&gt;Node33 -->
<g id="edge32" class="edge"><title>Node29&#45;&gt;Node33</title>
<path fill="none" stroke="midnightblue" d="M831.395,-296.734C837.512,-286.793 847.638,-270.338 855.36,-257.789"/>
<polygon fill="midnightblue" stroke="midnightblue" points="858.431,-259.478 860.691,-249.127 852.469,-255.81 858.431,-259.478"/>
</g>
<!-- Node34 -->
<g id="node34" class="node"><title>Node34</title>
<polygon fill="white" stroke="#bfbfbf" points="940.5,-224.5 940.5,-254.5 1051.5,-254.5 1051.5,-224.5 940.5,-224.5"/>
<text text-anchor="start" x="948.5" y="-242.5" font-family="Helvetica,sans-Serif" font-size="10.00">boost/math/constants</text>
<text text-anchor="middle" x="996" y="-231.5" font-family="Helvetica,sans-Serif" font-size="10.00">/constants.hpp</text>
</g>
<!-- Node29&#45;&gt;Node34 -->
<g id="edge33" class="edge"><title>Node29&#45;&gt;Node34</title>
<path fill="none" stroke="midnightblue" d="M848.575,-296.869C874.305,-287.031 917.043,-270.689 949.897,-258.128"/>
<polygon fill="midnightblue" stroke="midnightblue" points="951.221,-261.369 959.311,-254.528 948.721,-254.83 951.221,-261.369"/>
</g>
<!-- Node35&#45;&gt;Node30 -->
<g id="edge37" class="edge"><title>Node35&#45;&gt;Node30</title>
<path fill="none" stroke="midnightblue" d="M1426.61,-296.967C1418.56,-294.962 1409.98,-292.867 1402,-291 1339.92,-276.488 1268.18,-261.08 1221.11,-251.154"/>
<polygon fill="midnightblue" stroke="midnightblue" points="1221.66,-247.695 1211.16,-249.061 1220.22,-254.545 1221.66,-247.695"/>
</g>
<!-- Node36 -->
<g id="node36" class="node"><title>Node36</title>
<polygon fill="white" stroke="#bfbfbf" points="1528.5,-230 1528.5,-249 1685.5,-249 1685.5,-230 1528.5,-230"/>
<text text-anchor="middle" x="1607" y="-237" font-family="Helvetica,sans-Serif" font-size="10.00">boost/units/base_dimension.hpp</text>
</g>
<!-- Node35&#45;&gt;Node36 -->
<g id="edge35" class="edge"><title>Node35&#45;&gt;Node36</title>
<path fill="none" stroke="midnightblue" d="M1479.52,-296.869C1504.78,-285.699 1549,-266.147 1578.14,-253.26"/>
<polygon fill="midnightblue" stroke="midnightblue" points="1579.67,-256.412 1587.4,-249.167 1576.84,-250.01 1579.67,-256.412"/>
</g>
<!-- Node37 -->
<g id="node37" class="node"><title>Node37</title>
<polygon fill="white" stroke="#bfbfbf" points="1382,-230 1382,-249 1510,-249 1510,-230 1382,-230"/>
<text text-anchor="middle" x="1446" y="-237" font-family="Helvetica,sans-Serif" font-size="10.00">boost/units/base_unit.hpp</text>
</g>
<!-- Node35&#45;&gt;Node37 -->
<g id="edge36" class="edge"><title>Node35&#45;&gt;Node37</title>
<path fill="none" stroke="midnightblue" d="M1458.11,-296.734C1456.03,-287.085 1452.63,-271.3 1449.96,-258.906"/>
<polygon fill="midnightblue" stroke="midnightblue" points="1453.39,-258.166 1447.86,-249.127 1446.54,-259.64 1453.39,-258.166"/>
</g>
<!-- Node38 -->
<g id="node38" class="node"><title>Node38</title>
<polygon fill="white" stroke="#bfbfbf" points="1248.5,-224.5 1248.5,-254.5 1363.5,-254.5 1363.5,-224.5 1248.5,-224.5"/>
<text text-anchor="start" x="1256.5" y="-242.5" font-family="Helvetica,sans-Serif" font-size="10.00">boost/units/base_units</text>
<text text-anchor="middle" x="1306" y="-231.5" font-family="Helvetica,sans-Serif" font-size="10.00">/metric/barn.hpp</text>
</g>
<!-- Node35&#45;&gt;Node38 -->
<g id="edge38" class="edge"><title>Node35&#45;&gt;Node38</title>
<path fill="none" stroke="midnightblue" d="M1439.55,-296.869C1416.44,-287.115 1378.19,-270.97 1348.53,-258.452"/>
<polygon fill="midnightblue" stroke="midnightblue" points="1349.81,-255.192 1339.24,-254.528 1347.09,-261.641 1349.81,-255.192"/>
</g>
<!-- Node39&#45;&gt;Node30 -->
<g id="edge42" class="edge"><title>Node39&#45;&gt;Node30</title>
<path fill="none" stroke="midnightblue" d="M1551.43,-296.985C1540.57,-294.893 1528.87,-292.752 1518,-291 1395,-271.166 1362.86,-275.65 1240,-255 1233.09,-253.839 1225.83,-252.485 1218.7,-251.08"/>
<polygon fill="midnightblue" stroke="midnightblue" points="1218.91,-247.551 1208.41,-249.001 1217.52,-254.413 1218.91,-247.551"/>
</g>
<!-- Node39&#45;&gt;Node36 -->
<g id="edge40" class="edge"><title>Node39&#45;&gt;Node36</title>
<path fill="none" stroke="midnightblue" d="M1594.89,-296.734C1596.97,-287.085 1600.37,-271.3 1603.04,-258.906"/>
<polygon fill="midnightblue" stroke="midnightblue" points="1606.46,-259.64 1605.14,-249.127 1599.61,-258.166 1606.46,-259.64"/>
</g>
<!-- Node39&#45;&gt;Node37 -->
<g id="edge41" class="edge"><title>Node39&#45;&gt;Node37</title>
<path fill="none" stroke="midnightblue" d="M1573.48,-296.869C1548.22,-285.699 1504,-266.147 1474.86,-253.26"/>
<polygon fill="midnightblue" stroke="midnightblue" points="1476.16,-250.01 1465.6,-249.167 1473.33,-256.412 1476.16,-250.01"/>
</g>
<!-- Node40 -->
<g id="node40" class="node"><title>Node40</title>
<polygon fill="white" stroke="#bfbfbf" points="1703.5,-224.5 1703.5,-254.5 1808.5,-254.5 1808.5,-224.5 1703.5,-224.5"/>
<text text-anchor="start" x="1711.5" y="-242.5" font-family="Helvetica,sans-Serif" font-size="10.00">boost/units/systems</text>
<text text-anchor="middle" x="1756" y="-231.5" font-family="Helvetica,sans-Serif" font-size="10.00">/si/energy.hpp</text>
</g>
<!-- Node39&#45;&gt;Node40 -->
<g id="edge43" class="edge"><title>Node39&#45;&gt;Node40</title>
<path fill="none" stroke="midnightblue" d="M1614.65,-296.869C1639.21,-287.073 1679.94,-270.83 1711.39,-258.29"/>
<polygon fill="midnightblue" stroke="midnightblue" points="1712.83,-261.483 1720.82,-254.528 1710.24,-254.981 1712.83,-261.483"/>
</g>
<!-- Node42 -->
<g id="node42" class="node"><title>Node42</title>
<g id="a_node42"><a xlink:href="branch_2Result_8hh.html" target="_top" xlink:title="boca/branch/Result.hh">
<polygon fill="white" stroke="black" points="1840.5,-297 1840.5,-316 1955.5,-316 1955.5,-297 1840.5,-297"/>
<text text-anchor="middle" x="1898" y="-304" font-family="Helvetica,sans-Serif" font-size="10.00">boca/branch/Result.hh</text>
</a>
</g>
</g>
<!-- Node41&#45;&gt;Node42 -->
<g id="edge45" class="edge"><title>Node41&#45;&gt;Node42</title>
<path fill="none" stroke="midnightblue" d="M1898,-358.475C1898,-350.08 1898,-336.981 1898,-326.163"/>
<polygon fill="midnightblue" stroke="midnightblue" points="1901.5,-326.009 1898,-316.009 1894.5,-326.009 1901.5,-326.009"/>
</g>
<!-- Node43 -->
<g id="node43" class="node"><title>Node43</title>
<g id="a_node43"><a xlink:href="branch_2Base_8hh.html" target="_top" xlink:title="boca/branch/Base.hh">
<polygon fill="white" stroke="black" points="1826.5,-230 1826.5,-249 1935.5,-249 1935.5,-230 1826.5,-230"/>
<text text-anchor="middle" x="1881" y="-237" font-family="Helvetica,sans-Serif" font-size="10.00">boca/branch/Base.hh</text>
</a>
</g>
</g>
<!-- Node42&#45;&gt;Node43 -->
<g id="edge46" class="edge"><title>Node42&#45;&gt;Node43</title>
<path fill="none" stroke="midnightblue" d="M1895.71,-296.734C1893.18,-287.085 1889.06,-271.3 1885.81,-258.906"/>
<polygon fill="midnightblue" stroke="midnightblue" points="1889.17,-257.916 1883.26,-249.127 1882.4,-259.688 1889.17,-257.916"/>
</g>
<!-- Node42&#45;&gt;Node45 -->
<g id="edge48" class="edge"><title>Node42&#45;&gt;Node45</title>
<path fill="none" stroke="midnightblue" d="M1916.19,-296.869C1939.53,-285.796 1980.23,-266.486 2007.39,-253.598"/>
<polygon fill="midnightblue" stroke="midnightblue" points="2009.2,-256.616 2016.73,-249.167 2006.2,-250.292 2009.2,-256.616"/>
</g>
<!-- Node44 -->
<g id="node44" class="node"><title>Node44</title>
<polygon fill="white" stroke="#bfbfbf" points="1851.5,-168.5 1851.5,-187.5 1910.5,-187.5 1910.5,-168.5 1851.5,-168.5"/>
<text text-anchor="middle" x="1881" y="-175.5" font-family="Helvetica,sans-Serif" font-size="10.00">TObject.h</text>
</g>
<!-- Node43&#45;&gt;Node44 -->
<g id="edge47" class="edge"><title>Node43&#45;&gt;Node44</title>
<path fill="none" stroke="midnightblue" d="M1881,-229.975C1881,-221.58 1881,-208.481 1881,-197.663"/>
<polygon fill="midnightblue" stroke="midnightblue" points="1884.5,-197.509 1881,-187.509 1877.5,-197.509 1884.5,-197.509"/>
</g>
<!-- Node46 -->
<g id="node46" class="node"><title>Node46</title>
<g id="a_node46"><a xlink:href="Observable_8hh.html" target="_top" xlink:title="boca/multivariant/Observable.hh">
<polygon fill="white" stroke="black" points="1956.5,-168.5 1956.5,-187.5 2113.5,-187.5 2113.5,-168.5 1956.5,-168.5"/>
<text text-anchor="middle" x="2035" y="-175.5" font-family="Helvetica,sans-Serif" font-size="10.00">boca/multivariant/Observable.hh</text>
</a>
</g>
</g>
<!-- Node45&#45;&gt;Node46 -->
<g id="edge49" class="edge"><title>Node45&#45;&gt;Node46</title>
<path fill="none" stroke="midnightblue" d="M2035,-229.975C2035,-221.58 2035,-208.481 2035,-197.663"/>
<polygon fill="midnightblue" stroke="midnightblue" points="2038.5,-197.509 2035,-187.509 2031.5,-197.509 2038.5,-197.509"/>
</g>
<!-- Node47 -->
<g id="node47" class="node"><title>Node47</title>
<g id="a_node47"><a xlink:href="Names_8hh.html" target="_top" xlink:title="boca/Names.hh">
<polygon fill="white" stroke="black" points="1992,-112.5 1992,-131.5 2078,-131.5 2078,-112.5 1992,-112.5"/>
<text text-anchor="middle" x="2035" y="-119.5" font-family="Helvetica,sans-Serif" font-size="10.00">boca/Names.hh</text>
</a>
</g>
</g>
<!-- Node46&#45;&gt;Node47 -->
<g id="edge50" class="edge"><title>Node46&#45;&gt;Node47</title>
<path fill="none" stroke="midnightblue" d="M2035,-168.083C2035,-161.006 2035,-150.861 2035,-141.986"/>
<polygon fill="midnightblue" stroke="midnightblue" points="2038.5,-141.751 2035,-131.751 2031.5,-141.751 2038.5,-141.751"/>
</g>
<!-- Node48 -->
<g id="node48" class="node"><title>Node48</title>
<g id="a_node48"><a xlink:href="String_8hh.html" target="_top" xlink:title="boca/latex/String.hh">
<polygon fill="white" stroke="red" points="1983,-56.5 1983,-75.5 2087,-75.5 2087,-56.5 1983,-56.5"/>
<text text-anchor="middle" x="2035" y="-63.5" font-family="Helvetica,sans-Serif" font-size="10.00">boca/latex/String.hh</text>
</a>
</g>
</g>
<!-- Node47&#45;&gt;Node48 -->
<g id="edge51" class="edge"><title>Node47&#45;&gt;Node48</title>
<path fill="none" stroke="midnightblue" d="M2035,-112.083C2035,-105.006 2035,-94.8611 2035,-85.9865"/>
<polygon fill="midnightblue" stroke="midnightblue" points="2038.5,-85.751 2035,-75.7511 2031.5,-85.7511 2038.5,-85.751"/>
</g>
<!-- Node49 -->
<g id="node49" class="node"><title>Node49</title>
<polygon fill="white" stroke="#bfbfbf" points="1984.5,-0.5 1984.5,-19.5 2025.5,-19.5 2025.5,-0.5 1984.5,-0.5"/>
<text text-anchor="middle" x="2005" y="-7.5" font-family="Helvetica,sans-Serif" font-size="10.00">string</text>
</g>
<!-- Node48&#45;&gt;Node49 -->
<g id="edge52" class="edge"><title>Node48&#45;&gt;Node49</title>
<path fill="none" stroke="midnightblue" d="M2030.05,-56.083C2025.9,-48.6127 2019.85,-37.7244 2014.73,-28.5199"/>
<polygon fill="midnightblue" stroke="midnightblue" points="2017.78,-26.7929 2009.86,-19.7511 2011.66,-30.1924 2017.78,-26.7929"/>
</g>
<!-- Node50 -->
<g id="node50" class="node"><title>Node50</title>
<polygon fill="white" stroke="#bfbfbf" points="2043.5,-0.5 2043.5,-19.5 2086.5,-19.5 2086.5,-0.5 2043.5,-0.5"/>
<text text-anchor="middle" x="2065" y="-7.5" font-family="Helvetica,sans-Serif" font-size="10.00">deque</text>
</g>
<!-- Node48&#45;&gt;Node50 -->
<g id="edge53" class="edge"><title>Node48&#45;&gt;Node50</title>
<path fill="none" stroke="midnightblue" d="M2039.95,-56.083C2044.1,-48.6127 2050.15,-37.7244 2055.27,-28.5199"/>
<polygon fill="midnightblue" stroke="midnightblue" points="2058.34,-30.1924 2060.14,-19.7511 2052.22,-26.7929 2058.34,-30.1924"/>
</g>
</g>
</svg>
