<?xml version="1.0" encoding="UTF-8" standalone="no"?>
<!DOCTYPE svg PUBLIC "-//W3C//DTD SVG 1.1//EN"
 "http://www.w3.org/Graphics/SVG/1.1/DTD/svg11.dtd">
<!-- Generated by graphviz version 2.38.0 (20140413.2041)
 -->
<!-- Title: source/branch/Particle.cpp Pages: 1 -->
<svg width="1617pt" height="520pt"
 viewBox="0.00 0.00 1617.00 520.00" xmlns="http://www.w3.org/2000/svg" xmlns:xlink="http://www.w3.org/1999/xlink">
<g id="graph0" class="graph" transform="scale(1 1) rotate(0) translate(4 516)">
<title>source/branch/Particle.cpp</title>
<polygon fill="white" stroke="none" points="-4,4 -4,-516 1613,-516 1613,4 -4,4"/>
<!-- Node1 -->
<g id="node1" class="node"><title>Node1</title>
<polygon fill="#bfbfbf" stroke="black" points="1308,-492.5 1308,-511.5 1441,-511.5 1441,-492.5 1308,-492.5"/>
<text text-anchor="middle" x="1374.5" y="-499.5" font-family="Helvetica,sans-Serif" font-size="10.00">source/branch/Particle.cpp</text>
</g>
<!-- Node2 -->
<g id="node2" class="node"><title>Node2</title>
<g id="a_node2"><a xlink:href="branch_2Particle_8hh.html" target="_top" xlink:title="boca/branch/Particle.hh">
<polygon fill="white" stroke="black" points="1015,-431 1015,-450 1134,-450 1134,-431 1015,-431"/>
<text text-anchor="middle" x="1074.5" y="-438" font-family="Helvetica,sans-Serif" font-size="10.00">boca/branch/Particle.hh</text>
</a>
</g>
</g>
<!-- Node1&#45;&gt;Node2 -->
<g id="edge1" class="edge"><title>Node1&#45;&gt;Node2</title>
<path fill="none" stroke="midnightblue" d="M1331.52,-492.475C1277.72,-481.805 1185.59,-463.534 1127.49,-452.009"/>
<polygon fill="midnightblue" stroke="midnightblue" points="1127.89,-448.521 1117.4,-450.009 1126.53,-455.388 1127.89,-448.521"/>
</g>
<!-- Node31 -->
<g id="node31" class="node"><title>Node31</title>
<g id="a_node31"><a xlink:href="OBSERVABLE__MACROS_8hh.html" target="_top" xlink:title="boca/multivariant/OBSERVABLE\l_MACROS.hh">
<polygon fill="white" stroke="black" points="1448,-425.5 1448,-455.5 1609,-455.5 1609,-425.5 1448,-425.5"/>
<text text-anchor="start" x="1456" y="-443.5" font-family="Helvetica,sans-Serif" font-size="10.00">boca/multivariant/OBSERVABLE</text>
<text text-anchor="middle" x="1528.5" y="-432.5" font-family="Helvetica,sans-Serif" font-size="10.00">_MACROS.hh</text>
</a>
</g>
</g>
<!-- Node1&#45;&gt;Node31 -->
<g id="edge34" class="edge"><title>Node1&#45;&gt;Node31</title>
<path fill="none" stroke="midnightblue" d="M1396.56,-492.475C1418.98,-483.814 1454.36,-470.145 1482.84,-459.141"/>
<polygon fill="midnightblue" stroke="midnightblue" points="1484.14,-462.392 1492.21,-455.523 1481.62,-455.862 1484.14,-462.392"/>
</g>
<!-- Node32 -->
<g id="node32" class="node"><title>Node32</title>
<g id="a_node32"><a xlink:href="DEBUG__MACROS_8hh.html" target="_top" xlink:title="boca/generic/DEBUG\l_MACROS.hh">
<polygon fill="white" stroke="black" points="1319,-425.5 1319,-455.5 1430,-455.5 1430,-425.5 1319,-425.5"/>
<text text-anchor="start" x="1327" y="-443.5" font-family="Helvetica,sans-Serif" font-size="10.00">boca/generic/DEBUG</text>
<text text-anchor="middle" x="1374.5" y="-432.5" font-family="Helvetica,sans-Serif" font-size="10.00">_MACROS.hh</text>
</a>
</g>
</g>
<!-- Node1&#45;&gt;Node32 -->
<g id="edge35" class="edge"><title>Node1&#45;&gt;Node32</title>
<path fill="none" stroke="midnightblue" d="M1374.5,-492.475C1374.5,-485.471 1374.5,-475.192 1374.5,-465.696"/>
<polygon fill="midnightblue" stroke="midnightblue" points="1378,-465.523 1374.5,-455.523 1371,-465.523 1378,-465.523"/>
</g>
<!-- Node3 -->
<g id="node3" class="node"><title>Node3</title>
<g id="a_node3"><a xlink:href="Prefixes_8hh.html" target="_top" xlink:title="boca/units/Prefixes.hh">
<polygon fill="white" stroke="black" points="1017.5,-369.5 1017.5,-388.5 1131.5,-388.5 1131.5,-369.5 1017.5,-369.5"/>
<text text-anchor="middle" x="1074.5" y="-376.5" font-family="Helvetica,sans-Serif" font-size="10.00">boca/units/Prefixes.hh</text>
</a>
</g>
</g>
<!-- Node2&#45;&gt;Node3 -->
<g id="edge2" class="edge"><title>Node2&#45;&gt;Node3</title>
<path fill="none" stroke="midnightblue" d="M1074.5,-430.975C1074.5,-422.58 1074.5,-409.481 1074.5,-398.663"/>
<polygon fill="midnightblue" stroke="midnightblue" points="1078,-398.509 1074.5,-388.509 1071,-398.509 1078,-398.509"/>
</g>
<!-- Node20 -->
<g id="node20" class="node"><title>Node20</title>
<g id="a_node20"><a xlink:href="Bdt_8hh.html" target="_top" xlink:title="boca/branch/Bdt.hh">
<polygon fill="white" stroke="black" points="528,-369.5 528,-388.5 629,-388.5 629,-369.5 528,-369.5"/>
<text text-anchor="middle" x="578.5" y="-376.5" font-family="Helvetica,sans-Serif" font-size="10.00">boca/branch/Bdt.hh</text>
</a>
</g>
</g>
<!-- Node2&#45;&gt;Node20 -->
<g id="edge23" class="edge"><title>Node2&#45;&gt;Node20</title>
<path fill="none" stroke="midnightblue" d="M1014.67,-432.323C919.581,-420.916 734.957,-398.768 639.276,-387.291"/>
<polygon fill="midnightblue" stroke="midnightblue" points="639.526,-383.796 629.18,-386.08 638.692,-390.746 639.526,-383.796"/>
</g>
<!-- Node4 -->
<g id="node4" class="node"><title>Node4</title>
<polygon fill="white" stroke="#bfbfbf" points="883.5,-308 883.5,-327 993.5,-327 993.5,-308 883.5,-308"/>
<text text-anchor="middle" x="938.5" y="-315" font-family="Helvetica,sans-Serif" font-size="10.00">boost/units/scale.hpp</text>
</g>
<!-- Node3&#45;&gt;Node4 -->
<g id="edge3" class="edge"><title>Node3&#45;&gt;Node4</title>
<path fill="none" stroke="midnightblue" d="M1055.01,-369.475C1032.09,-359.445 993.815,-342.7 967.425,-331.155"/>
<polygon fill="midnightblue" stroke="midnightblue" points="968.514,-327.811 957.949,-327.009 965.708,-334.224 968.514,-327.811"/>
</g>
<!-- Node5 -->
<g id="node5" class="node"><title>Node5</title>
<polygon fill="white" stroke="#bfbfbf" points="1012,-302.5 1012,-332.5 1137,-332.5 1137,-302.5 1012,-302.5"/>
<text text-anchor="start" x="1020" y="-320.5" font-family="Helvetica,sans-Serif" font-size="10.00">boost/units/make_scaled</text>
<text text-anchor="middle" x="1074.5" y="-309.5" font-family="Helvetica,sans-Serif" font-size="10.00">_unit.hpp</text>
</g>
<!-- Node3&#45;&gt;Node5 -->
<g id="edge4" class="edge"><title>Node3&#45;&gt;Node5</title>
<path fill="none" stroke="midnightblue" d="M1074.5,-369.475C1074.5,-362.471 1074.5,-352.192 1074.5,-342.696"/>
<polygon fill="midnightblue" stroke="midnightblue" points="1078,-342.523 1074.5,-332.523 1071,-342.523 1078,-342.523"/>
</g>
<!-- Node6 -->
<g id="node6" class="node"><title>Node6</title>
<polygon fill="white" stroke="#bfbfbf" points="1155,-302.5 1155,-332.5 1266,-332.5 1266,-302.5 1155,-302.5"/>
<text text-anchor="start" x="1163" y="-320.5" font-family="Helvetica,sans-Serif" font-size="10.00">boost/units/systems</text>
<text text-anchor="middle" x="1210.5" y="-309.5" font-family="Helvetica,sans-Serif" font-size="10.00">/si/dimensionless.hpp</text>
</g>
<!-- Node3&#45;&gt;Node6 -->
<g id="edge5" class="edge"><title>Node3&#45;&gt;Node6</title>
<path fill="none" stroke="midnightblue" d="M1093.99,-369.475C1113.52,-360.927 1144.21,-347.501 1169.19,-336.573"/>
<polygon fill="midnightblue" stroke="midnightblue" points="1170.69,-339.738 1178.45,-332.523 1167.88,-333.325 1170.69,-339.738"/>
</g>
<!-- Node7 -->
<g id="node7" class="node"><title>Node7</title>
<polygon fill="white" stroke="#bfbfbf" points="1284.5,-308 1284.5,-327 1388.5,-327 1388.5,-308 1284.5,-308"/>
<text text-anchor="middle" x="1336.5" y="-315" font-family="Helvetica,sans-Serif" font-size="10.00">boost/units/pow.hpp</text>
</g>
<!-- Node3&#45;&gt;Node7 -->
<g id="edge6" class="edge"><title>Node3&#45;&gt;Node7</title>
<path fill="none" stroke="midnightblue" d="M1112.86,-369.469C1153.14,-360.489 1218.3,-345.893 1274.5,-333 1279.56,-331.84 1284.84,-330.618 1290.1,-329.396"/>
<polygon fill="midnightblue" stroke="midnightblue" points="1291.18,-332.74 1300.12,-327.062 1289.59,-325.922 1291.18,-332.74"/>
</g>
<!-- Node8 -->
<g id="node8" class="node"><title>Node8</title>
<g id="a_node8"><a xlink:href="Si_8hh.html" target="_top" xlink:title="boca/units/Si.hh">
<polygon fill="white" stroke="black" points="601,-308 601,-327 688,-327 688,-308 601,-308"/>
<text text-anchor="middle" x="644.5" y="-315" font-family="Helvetica,sans-Serif" font-size="10.00">boca/units/Si.hh</text>
</a>
</g>
</g>
<!-- Node3&#45;&gt;Node8 -->
<g id="edge7" class="edge"><title>Node3&#45;&gt;Node8</title>
<path fill="none" stroke="midnightblue" d="M1017.39,-371.571C947.994,-363.549 827.423,-348.933 724.5,-333 715.885,-331.666 706.771,-330.132 697.9,-328.572"/>
<polygon fill="midnightblue" stroke="midnightblue" points="698.487,-325.122 688.027,-326.809 697.256,-332.013 698.487,-325.122"/>
</g>
<!-- Node14 -->
<g id="node14" class="node"><title>Node14</title>
<g id="a_node14"><a xlink:href="Barn_8hh.html" target="_top" xlink:title="boca/units/Barn.hh">
<polygon fill="white" stroke="black" points="1406.5,-308 1406.5,-327 1504.5,-327 1504.5,-308 1406.5,-308"/>
<text text-anchor="middle" x="1455.5" y="-315" font-family="Helvetica,sans-Serif" font-size="10.00">boca/units/Barn.hh</text>
</a>
</g>
</g>
<!-- Node3&#45;&gt;Node14 -->
<g id="edge13" class="edge"><title>Node3&#45;&gt;Node14</title>
<path fill="none" stroke="midnightblue" d="M1131.69,-371.898C1196.49,-364.553 1305.1,-350.934 1397.5,-333 1402.91,-331.949 1408.58,-330.71 1414.16,-329.406"/>
<polygon fill="midnightblue" stroke="midnightblue" points="1415.13,-332.771 1424.03,-327.016 1413.49,-325.967 1415.13,-332.771"/>
</g>
<!-- Node18 -->
<g id="node18" class="node"><title>Node18</title>
<g id="a_node18"><a xlink:href="ElectronVolt_8hh.html" target="_top" xlink:title="boca/units/ElectronVolt.hh">
<polygon fill="white" stroke="black" points="734,-308 734,-327 865,-327 865,-308 734,-308"/>
<text text-anchor="middle" x="799.5" y="-315" font-family="Helvetica,sans-Serif" font-size="10.00">boca/units/ElectronVolt.hh</text>
</a>
</g>
</g>
<!-- Node3&#45;&gt;Node18 -->
<g id="edge18" class="edge"><title>Node3&#45;&gt;Node18</title>
<path fill="none" stroke="midnightblue" d="M1035.1,-369.475C985.987,-358.849 902.034,-340.685 848.734,-329.152"/>
<polygon fill="midnightblue" stroke="midnightblue" points="849.342,-325.703 838.828,-327.009 847.861,-332.545 849.342,-325.703"/>
</g>
<!-- Node9 -->
<g id="node9" class="node"><title>Node9</title>
<polygon fill="white" stroke="#bfbfbf" points="937,-241 937,-260 1058,-260 1058,-241 937,-241"/>
<text text-anchor="middle" x="997.5" y="-248" font-family="Helvetica,sans-Serif" font-size="10.00">boost/units/quantity.hpp</text>
</g>
<!-- Node8&#45;&gt;Node9 -->
<g id="edge8" class="edge"><title>Node8&#45;&gt;Node9</title>
<path fill="none" stroke="midnightblue" d="M688.09,-308.568C699.904,-306.427 712.69,-304.117 724.5,-302 814.692,-285.829 837.517,-283.295 927.5,-266 933.819,-264.786 940.449,-263.468 947.005,-262.14"/>
<polygon fill="midnightblue" stroke="midnightblue" points="948.097,-265.489 957.192,-260.056 946.694,-258.631 948.097,-265.489"/>
</g>
<!-- Node10 -->
<g id="node10" class="node"><title>Node10</title>
<polygon fill="white" stroke="#bfbfbf" points="691,-235.5 691,-265.5 796,-265.5 796,-235.5 691,-235.5"/>
<text text-anchor="start" x="699" y="-253.5" font-family="Helvetica,sans-Serif" font-size="10.00">boost/units/systems</text>
<text text-anchor="middle" x="743.5" y="-242.5" font-family="Helvetica,sans-Serif" font-size="10.00">/si/plane_angle.hpp</text>
</g>
<!-- Node8&#45;&gt;Node10 -->
<g id="edge9" class="edge"><title>Node8&#45;&gt;Node10</title>
<path fill="none" stroke="midnightblue" d="M657.852,-307.734C672.067,-298.4 695.029,-283.325 713.6,-271.131"/>
<polygon fill="midnightblue" stroke="midnightblue" points="715.603,-274.003 722.041,-265.589 711.761,-268.152 715.603,-274.003"/>
</g>
<!-- Node11 -->
<g id="node11" class="node"><title>Node11</title>
<polygon fill="white" stroke="#bfbfbf" points="308,-235.5 308,-265.5 413,-265.5 413,-235.5 308,-235.5"/>
<text text-anchor="start" x="316" y="-253.5" font-family="Helvetica,sans-Serif" font-size="10.00">boost/units/systems</text>
<text text-anchor="middle" x="360.5" y="-242.5" font-family="Helvetica,sans-Serif" font-size="10.00">/si/length.hpp</text>
</g>
<!-- Node8&#45;&gt;Node11 -->
<g id="edge10" class="edge"><title>Node8&#45;&gt;Node11</title>
<path fill="none" stroke="midnightblue" d="M606.196,-307.956C563.745,-298.459 492.988,-282.543 422.94,-266.322"/>
<polygon fill="midnightblue" stroke="midnightblue" points="423.596,-262.882 413.064,-264.032 422.015,-269.701 423.596,-262.882"/>
</g>
<!-- Node12 -->
<g id="node12" class="node"><title>Node12</title>
<polygon fill="white" stroke="#bfbfbf" points="431,-241 431,-260 544,-260 544,-241 431,-241"/>
<text text-anchor="middle" x="487.5" y="-248" font-family="Helvetica,sans-Serif" font-size="10.00">boost/units/cmath.hpp</text>
</g>
<!-- Node8&#45;&gt;Node12 -->
<g id="edge11" class="edge"><title>Node8&#45;&gt;Node12</title>
<path fill="none" stroke="midnightblue" d="M623.652,-307.869C596.556,-296.65 549.036,-276.977 517.916,-264.092"/>
<polygon fill="midnightblue" stroke="midnightblue" points="519.013,-260.759 508.435,-260.167 516.335,-267.226 519.013,-260.759"/>
</g>
<!-- Node13 -->
<g id="node13" class="node"><title>Node13</title>
<polygon fill="white" stroke="#bfbfbf" points="562,-235.5 562,-265.5 673,-265.5 673,-235.5 562,-235.5"/>
<text text-anchor="start" x="570" y="-253.5" font-family="Helvetica,sans-Serif" font-size="10.00">boost/math/constants</text>
<text text-anchor="middle" x="617.5" y="-242.5" font-family="Helvetica,sans-Serif" font-size="10.00">/constants.hpp</text>
</g>
<!-- Node8&#45;&gt;Node13 -->
<g id="edge12" class="edge"><title>Node8&#45;&gt;Node13</title>
<path fill="none" stroke="midnightblue" d="M640.859,-307.734C637.385,-299.372 631.997,-286.4 627.271,-275.022"/>
<polygon fill="midnightblue" stroke="midnightblue" points="630.421,-273.481 623.352,-265.589 623.956,-276.167 630.421,-273.481"/>
</g>
<!-- Node14&#45;&gt;Node9 -->
<g id="edge16" class="edge"><title>Node14&#45;&gt;Node9</title>
<path fill="none" stroke="midnightblue" d="M1424.66,-307.962C1415.94,-305.772 1406.39,-303.588 1397.5,-302 1252.26,-276.048 1213.23,-288.989 1067.5,-266 1060.34,-264.87 1052.8,-263.5 1045.42,-262.059"/>
<polygon fill="midnightblue" stroke="midnightblue" points="1046.02,-258.609 1035.53,-260.066 1044.64,-265.471 1046.02,-258.609"/>
</g>
<!-- Node15 -->
<g id="node15" class="node"><title>Node15</title>
<polygon fill="white" stroke="#bfbfbf" points="1223,-241 1223,-260 1380,-260 1380,-241 1223,-241"/>
<text text-anchor="middle" x="1301.5" y="-248" font-family="Helvetica,sans-Serif" font-size="10.00">boost/units/base_dimension.hpp</text>
</g>
<!-- Node14&#45;&gt;Node15 -->
<g id="edge14" class="edge"><title>Node14&#45;&gt;Node15</title>
<path fill="none" stroke="midnightblue" d="M1435.05,-307.869C1408.47,-296.65 1361.86,-276.977 1331.33,-264.092"/>
<polygon fill="midnightblue" stroke="midnightblue" points="1332.61,-260.831 1322.03,-260.167 1329.89,-267.28 1332.61,-260.831"/>
</g>
<!-- Node16 -->
<g id="node16" class="node"><title>Node16</title>
<polygon fill="white" stroke="#bfbfbf" points="1076.5,-241 1076.5,-260 1204.5,-260 1204.5,-241 1076.5,-241"/>
<text text-anchor="middle" x="1140.5" y="-248" font-family="Helvetica,sans-Serif" font-size="10.00">boost/units/base_unit.hpp</text>
</g>
<!-- Node14&#45;&gt;Node16 -->
<g id="edge15" class="edge"><title>Node14&#45;&gt;Node16</title>
<path fill="none" stroke="midnightblue" d="M1422.75,-307.998C1414.53,-305.95 1405.71,-303.827 1397.5,-302 1316.16,-283.889 1295.25,-282.117 1213.5,-266 1206.94,-264.707 1200.05,-263.345 1193.23,-261.993"/>
<polygon fill="midnightblue" stroke="midnightblue" points="1193.83,-258.544 1183.34,-260.031 1192.47,-265.41 1193.83,-258.544"/>
</g>
<!-- Node17 -->
<g id="node17" class="node"><title>Node17</title>
<polygon fill="white" stroke="#bfbfbf" points="1398,-235.5 1398,-265.5 1513,-265.5 1513,-235.5 1398,-235.5"/>
<text text-anchor="start" x="1406" y="-253.5" font-family="Helvetica,sans-Serif" font-size="10.00">boost/units/base_units</text>
<text text-anchor="middle" x="1455.5" y="-242.5" font-family="Helvetica,sans-Serif" font-size="10.00">/metric/barn.hpp</text>
</g>
<!-- Node14&#45;&gt;Node17 -->
<g id="edge17" class="edge"><title>Node14&#45;&gt;Node17</title>
<path fill="none" stroke="midnightblue" d="M1455.5,-307.734C1455.5,-299.541 1455.5,-286.923 1455.5,-275.714"/>
<polygon fill="midnightblue" stroke="midnightblue" points="1459,-275.589 1455.5,-265.589 1452,-275.589 1459,-275.589"/>
</g>
<!-- Node18&#45;&gt;Node9 -->
<g id="edge21" class="edge"><title>Node18&#45;&gt;Node9</title>
<path fill="none" stroke="midnightblue" d="M825.793,-307.869C860.727,-296.4 922.581,-276.094 961.737,-263.24"/>
<polygon fill="midnightblue" stroke="midnightblue" points="963.004,-266.508 971.414,-260.064 960.821,-259.857 963.004,-266.508"/>
</g>
<!-- Node18&#45;&gt;Node15 -->
<g id="edge19" class="edge"><title>Node18&#45;&gt;Node15</title>
<path fill="none" stroke="midnightblue" d="M840.262,-307.965C851.338,-305.825 863.351,-303.667 874.5,-302 1024.35,-279.6 1063.36,-286.325 1213.5,-266 1222.95,-264.72 1232.95,-263.217 1242.69,-261.672"/>
<polygon fill="midnightblue" stroke="midnightblue" points="1243.39,-265.104 1252.7,-260.054 1242.27,-258.194 1243.39,-265.104"/>
</g>
<!-- Node18&#45;&gt;Node16 -->
<g id="edge20" class="edge"><title>Node18&#45;&gt;Node16</title>
<path fill="none" stroke="midnightblue" d="M843.513,-307.948C853.686,-305.983 864.469,-303.91 874.5,-302 959.788,-285.76 981.233,-282.347 1066.5,-266 1073.15,-264.725 1080.14,-263.373 1087.05,-262.027"/>
<polygon fill="midnightblue" stroke="midnightblue" points="1087.93,-265.421 1097.08,-260.07 1086.59,-258.55 1087.93,-265.421"/>
</g>
<!-- Node19 -->
<g id="node19" class="node"><title>Node19</title>
<polygon fill="white" stroke="#bfbfbf" points="814,-235.5 814,-265.5 919,-265.5 919,-235.5 814,-235.5"/>
<text text-anchor="start" x="822" y="-253.5" font-family="Helvetica,sans-Serif" font-size="10.00">boost/units/systems</text>
<text text-anchor="middle" x="866.5" y="-242.5" font-family="Helvetica,sans-Serif" font-size="10.00">/si/energy.hpp</text>
</g>
<!-- Node18&#45;&gt;Node19 -->
<g id="edge22" class="edge"><title>Node18&#45;&gt;Node19</title>
<path fill="none" stroke="midnightblue" d="M808.536,-307.734C817.765,-298.78 832.44,-284.543 844.715,-272.635"/>
<polygon fill="midnightblue" stroke="midnightblue" points="847.237,-275.064 851.977,-265.589 842.363,-270.04 847.237,-275.064"/>
</g>
<!-- Node21 -->
<g id="node21" class="node"><title>Node21</title>
<g id="a_node21"><a xlink:href="branch_2Result_8hh.html" target="_top" xlink:title="boca/branch/Result.hh">
<polygon fill="white" stroke="black" points="151,-308 151,-327 266,-327 266,-308 151,-308"/>
<text text-anchor="middle" x="208.5" y="-315" font-family="Helvetica,sans-Serif" font-size="10.00">boca/branch/Result.hh</text>
</a>
</g>
</g>
<!-- Node20&#45;&gt;Node21 -->
<g id="edge24" class="edge"><title>Node20&#45;&gt;Node21</title>
<path fill="none" stroke="midnightblue" d="M527.829,-369.852C461.103,-359.121 343.792,-340.256 271.447,-328.623"/>
<polygon fill="midnightblue" stroke="midnightblue" points="271.976,-325.163 261.547,-327.031 270.865,-332.074 271.976,-325.163"/>
</g>
<!-- Node22 -->
<g id="node22" class="node"><title>Node22</title>
<g id="a_node22"><a xlink:href="branch_2Base_8hh.html" target="_top" xlink:title="boca/branch/Base.hh">
<polygon fill="white" stroke="black" points="0,-241 0,-260 109,-260 109,-241 0,-241"/>
<text text-anchor="middle" x="54.5" y="-248" font-family="Helvetica,sans-Serif" font-size="10.00">boca/branch/Base.hh</text>
</a>
</g>
</g>
<!-- Node21&#45;&gt;Node22 -->
<g id="edge25" class="edge"><title>Node21&#45;&gt;Node22</title>
<path fill="none" stroke="midnightblue" d="M188.05,-307.869C161.472,-296.65 114.86,-276.977 84.3345,-264.092"/>
<polygon fill="midnightblue" stroke="midnightblue" points="85.6086,-260.831 75.0346,-260.167 82.8865,-267.28 85.6086,-260.831"/>
</g>
<!-- Node24 -->
<g id="node24" class="node"><title>Node24</title>
<g id="a_node24"><a xlink:href="boca_2multivariant_2Observables_8hh.html" target="_top" xlink:title="boca/multivariant/Observables.hh">
<polygon fill="white" stroke="black" points="127.5,-241 127.5,-260 289.5,-260 289.5,-241 127.5,-241"/>
<text text-anchor="middle" x="208.5" y="-248" font-family="Helvetica,sans-Serif" font-size="10.00">boca/multivariant/Observables.hh</text>
</a>
</g>
</g>
<!-- Node21&#45;&gt;Node24 -->
<g id="edge27" class="edge"><title>Node21&#45;&gt;Node24</title>
<path fill="none" stroke="midnightblue" d="M208.5,-307.734C208.5,-298.183 208.5,-282.618 208.5,-270.283"/>
<polygon fill="midnightblue" stroke="midnightblue" points="212,-270.127 208.5,-260.127 205,-270.127 212,-270.127"/>
</g>
<!-- Node23 -->
<g id="node23" class="node"><title>Node23</title>
<polygon fill="white" stroke="#bfbfbf" points="25,-179.5 25,-198.5 84,-198.5 84,-179.5 25,-179.5"/>
<text text-anchor="middle" x="54.5" y="-186.5" font-family="Helvetica,sans-Serif" font-size="10.00">TObject.h</text>
</g>
<!-- Node22&#45;&gt;Node23 -->
<g id="edge26" class="edge"><title>Node22&#45;&gt;Node23</title>
<path fill="none" stroke="midnightblue" d="M54.5,-240.975C54.5,-232.58 54.5,-219.481 54.5,-208.663"/>
<polygon fill="midnightblue" stroke="midnightblue" points="58.0001,-208.509 54.5,-198.509 51.0001,-208.509 58.0001,-208.509"/>
</g>
<!-- Node25 -->
<g id="node25" class="node"><title>Node25</title>
<g id="a_node25"><a xlink:href="Observable_8hh.html" target="_top" xlink:title="boca/multivariant/Observable.hh">
<polygon fill="white" stroke="black" points="296,-179.5 296,-198.5 453,-198.5 453,-179.5 296,-179.5"/>
<text text-anchor="middle" x="374.5" y="-186.5" font-family="Helvetica,sans-Serif" font-size="10.00">boca/multivariant/Observable.hh</text>
</a>
</g>
</g>
<!-- Node24&#45;&gt;Node25 -->
<g id="edge28" class="edge"><title>Node24&#45;&gt;Node25</title>
<path fill="none" stroke="midnightblue" d="M232.284,-240.975C260.882,-230.725 309.051,-213.459 341.302,-201.899"/>
<polygon fill="midnightblue" stroke="midnightblue" points="342.528,-205.178 350.76,-198.509 340.166,-198.589 342.528,-205.178"/>
</g>
<!-- Node26 -->
<g id="node26" class="node"><title>Node26</title>
<g id="a_node26"><a xlink:href="Names_8hh.html" target="_top" xlink:title="boca/Names.hh">
<polygon fill="white" stroke="black" points="869.5,-123.5 869.5,-142.5 955.5,-142.5 955.5,-123.5 869.5,-123.5"/>
<text text-anchor="middle" x="912.5" y="-130.5" font-family="Helvetica,sans-Serif" font-size="10.00">boca/Names.hh</text>
</a>
</g>
</g>
<!-- Node25&#45;&gt;Node26 -->
<g id="edge29" class="edge"><title>Node25&#45;&gt;Node26</title>
<path fill="none" stroke="midnightblue" d="M453.018,-180.119C564.028,-168.977 763.927,-148.913 859.199,-139.35"/>
<polygon fill="midnightblue" stroke="midnightblue" points="859.587,-142.829 869.188,-138.347 858.888,-135.864 859.587,-142.829"/>
</g>
<!-- Node27 -->
<g id="node27" class="node"><title>Node27</title>
<g id="a_node27"><a xlink:href="String_8hh.html" target="_top" xlink:title="boca/latex/String.hh">
<polygon fill="white" stroke="black" points="994.5,-67.5 994.5,-86.5 1098.5,-86.5 1098.5,-67.5 994.5,-67.5"/>
<text text-anchor="middle" x="1046.5" y="-74.5" font-family="Helvetica,sans-Serif" font-size="10.00">boca/latex/String.hh</text>
</a>
</g>
</g>
<!-- Node26&#45;&gt;Node27 -->
<g id="edge30" class="edge"><title>Node26&#45;&gt;Node27</title>
<path fill="none" stroke="midnightblue" d="M933.733,-123.444C955.884,-114.517 990.819,-100.439 1015.94,-90.3168"/>
<polygon fill="midnightblue" stroke="midnightblue" points="1017.4,-93.5006 1025.37,-86.5164 1014.78,-87.0079 1017.4,-93.5006"/>
</g>
<!-- Node28 -->
<g id="node28" class="node"><title>Node28</title>
<polygon fill="white" stroke="#bfbfbf" points="1118,-6 1118,-25 1159,-25 1159,-6 1118,-6"/>
<text text-anchor="middle" x="1138.5" y="-13" font-family="Helvetica,sans-Serif" font-size="10.00">string</text>
</g>
<!-- Node27&#45;&gt;Node28 -->
<g id="edge31" class="edge"><title>Node27&#45;&gt;Node28</title>
<path fill="none" stroke="midnightblue" d="M1059.68,-67.4751C1074.57,-57.8431 1099.04,-42.0175 1116.77,-30.5517"/>
<polygon fill="midnightblue" stroke="midnightblue" points="1118.85,-33.3787 1125.34,-25.0091 1115.05,-27.5008 1118.85,-33.3787"/>
</g>
<!-- Node29 -->
<g id="node29" class="node"><title>Node29</title>
<polygon fill="white" stroke="#bfbfbf" points="994,-6 994,-25 1037,-25 1037,-6 994,-6"/>
<text text-anchor="middle" x="1015.5" y="-13" font-family="Helvetica,sans-Serif" font-size="10.00">deque</text>
</g>
<!-- Node27&#45;&gt;Node29 -->
<g id="edge32" class="edge"><title>Node27&#45;&gt;Node29</title>
<path fill="none" stroke="midnightblue" d="M1042.06,-67.4751C1037.55,-58.8152 1030.43,-45.1486 1024.69,-34.1453"/>
<polygon fill="midnightblue" stroke="midnightblue" points="1027.66,-32.2604 1019.93,-25.0091 1021.45,-35.4948 1027.66,-32.2604"/>
</g>
<!-- Node30 -->
<g id="node30" class="node"><title>Node30</title>
<polygon fill="white" stroke="#bfbfbf" points="1055.5,-6 1055.5,-25 1099.5,-25 1099.5,-6 1055.5,-6"/>
<text text-anchor="middle" x="1077.5" y="-13" font-family="Helvetica,sans-Serif" font-size="10.00">vector</text>
</g>
<!-- Node27&#45;&gt;Node30 -->
<g id="edge33" class="edge"><title>Node27&#45;&gt;Node30</title>
<path fill="none" stroke="midnightblue" d="M1050.94,-67.4751C1055.45,-58.8152 1062.57,-45.1486 1068.31,-34.1453"/>
<polygon fill="midnightblue" stroke="midnightblue" points="1071.55,-35.4948 1073.07,-25.0091 1065.34,-32.2604 1071.55,-35.4948"/>
</g>
<!-- Node33 -->
<g id="node33" class="node"><title>Node33</title>
<g id="a_node33"><a xlink:href="Debug_8hh.html" target="_top" xlink:title="boca/generic/Debug.hh">
<polygon fill="white" stroke="black" points="1214,-67.5 1214,-86.5 1331,-86.5 1331,-67.5 1214,-67.5"/>
<text text-anchor="middle" x="1272.5" y="-74.5" font-family="Helvetica,sans-Serif" font-size="10.00">boca/generic/Debug.hh</text>
</a>
</g>
</g>
<!-- Node32&#45;&gt;Node33 -->
<g id="edge36" class="edge"><title>Node32&#45;&gt;Node33</title>
<path fill="none" stroke="midnightblue" d="M1427.34,-425.382C1476.27,-408.73 1541.5,-375.786 1541.5,-318.5 1541.5,-318.5 1541.5,-318.5 1541.5,-188 1541.5,-142.067 1405.43,-105.828 1326.84,-88.7296"/>
<polygon fill="midnightblue" stroke="midnightblue" points="1327.13,-85.2127 1316.62,-86.5431 1325.67,-92.0578 1327.13,-85.2127"/>
</g>
<!-- Node33&#45;&gt;Node28 -->
<g id="edge37" class="edge"><title>Node33&#45;&gt;Node28</title>
<path fill="none" stroke="midnightblue" d="M1252.06,-67.455C1231.01,-58.5833 1197.3,-44.1837 1168.5,-31 1167.35,-30.4718 1166.17,-29.9276 1164.98,-29.3741"/>
<polygon fill="midnightblue" stroke="midnightblue" points="1166.43,-26.1849 1155.89,-25.058 1163.42,-32.5085 1166.43,-26.1849"/>
</g>
<!-- Node33&#45;&gt;Node30 -->
<g id="edge38" class="edge"><title>Node33&#45;&gt;Node30</title>
<path fill="none" stroke="midnightblue" d="M1234.14,-67.4284C1200.54,-59.4582 1150.62,-46.5002 1108.5,-31 1106.89,-30.4074 1105.25,-29.7641 1103.6,-29.0889"/>
<polygon fill="midnightblue" stroke="midnightblue" points="1104.9,-25.834 1094.33,-25.0066 1102.08,-32.2403 1104.9,-25.834"/>
</g>
<!-- Node34 -->
<g id="node34" class="node"><title>Node34</title>
<polygon fill="white" stroke="#bfbfbf" points="1441.5,-6 1441.5,-25 1493.5,-25 1493.5,-6 1441.5,-6"/>
<text text-anchor="middle" x="1467.5" y="-13" font-family="Helvetica,sans-Serif" font-size="10.00">sstream</text>
</g>
<!-- Node33&#45;&gt;Node34 -->
<g id="edge39" class="edge"><title>Node33&#45;&gt;Node34</title>
<path fill="none" stroke="midnightblue" d="M1306.63,-67.4714C1339.05,-59.1054 1389.02,-45.5212 1431.5,-31 1433.62,-30.274 1435.8,-29.4915 1437.99,-28.6794"/>
<polygon fill="midnightblue" stroke="midnightblue" points="1439.4,-31.8878 1447.46,-25.0133 1436.87,-25.36 1439.4,-31.8878"/>
</g>
<!-- Node35 -->
<g id="node35" class="node"><title>Node35</title>
<polygon fill="white" stroke="#bfbfbf" points="1177.5,-6 1177.5,-25 1227.5,-25 1227.5,-6 1177.5,-6"/>
<text text-anchor="middle" x="1202.5" y="-13" font-family="Helvetica,sans-Serif" font-size="10.00">iomanip</text>
</g>
<!-- Node33&#45;&gt;Node35 -->
<g id="edge40" class="edge"><title>Node33&#45;&gt;Node35</title>
<path fill="none" stroke="midnightblue" d="M1262.47,-67.4751C1251.45,-58.1082 1233.54,-42.8839 1220.16,-31.5081"/>
<polygon fill="midnightblue" stroke="midnightblue" points="1222.4,-28.8188 1212.51,-25.0091 1217.86,-34.1524 1222.4,-28.8188"/>
</g>
<!-- Node36 -->
<g id="node36" class="node"><title>Node36</title>
<polygon fill="white" stroke="#bfbfbf" points="1245.5,-6 1245.5,-25 1299.5,-25 1299.5,-6 1245.5,-6"/>
<text text-anchor="middle" x="1272.5" y="-13" font-family="Helvetica,sans-Serif" font-size="10.00">iostream</text>
</g>
<!-- Node33&#45;&gt;Node36 -->
<g id="edge41" class="edge"><title>Node33&#45;&gt;Node36</title>
<path fill="none" stroke="midnightblue" d="M1272.5,-67.4751C1272.5,-59.0803 1272.5,-45.9806 1272.5,-35.1631"/>
<polygon fill="midnightblue" stroke="midnightblue" points="1276,-35.0091 1272.5,-25.0091 1269,-35.0091 1276,-35.0091"/>
</g>
<!-- Node37 -->
<g id="node37" class="node"><title>Node37</title>
<polygon fill="white" stroke="#bfbfbf" points="1318,-0.5 1318,-30.5 1423,-30.5 1423,-0.5 1318,-0.5"/>
<text text-anchor="start" x="1326" y="-18.5" font-family="Helvetica,sans-Serif" font-size="10.00">boost/units/systems</text>
<text text-anchor="middle" x="1370.5" y="-7.5" font-family="Helvetica,sans-Serif" font-size="10.00">/si/io.hpp</text>
</g>
<!-- Node33&#45;&gt;Node37 -->
<g id="edge42" class="edge"><title>Node33&#45;&gt;Node37</title>
<path fill="none" stroke="midnightblue" d="M1286.54,-67.4751C1300.06,-59.266 1320.99,-46.5581 1338.57,-35.8845"/>
<polygon fill="midnightblue" stroke="midnightblue" points="1340.67,-38.7046 1347.4,-30.523 1337.04,-32.721 1340.67,-38.7046"/>
</g>
</g>
</svg>
