<?xml version="1.0" encoding="UTF-8" standalone="no"?>
<!DOCTYPE svg PUBLIC "-//W3C//DTD SVG 1.1//EN"
 "http://www.w3.org/Graphics/SVG/1.1/DTD/svg11.dtd">
<!-- Generated by graphviz version 2.38.0 (20140413.2041)
 -->
<!-- Title: toppartner::tagger::EventNewPair Pages: 1 -->
<svg width="154pt" height="173pt"
 viewBox="0.00 0.00 154.00 173.00" xmlns="http://www.w3.org/2000/svg" xmlns:xlink="http://www.w3.org/1999/xlink">
<g id="graph0" class="graph" transform="scale(1 1) rotate(0) translate(4 169)">
<title>toppartner::tagger::EventNewPair</title>
<polygon fill="white" stroke="none" points="-4,4 -4,-169 150,-169 150,4 -4,4"/>
<!-- Node1 -->
<g id="node1" class="node"><title>Node1</title>
<polygon fill="#bfbfbf" stroke="black" points="26.5,-0.5 26.5,-30.5 119.5,-30.5 119.5,-0.5 26.5,-0.5"/>
<text text-anchor="start" x="34.5" y="-18.5" font-family="Helvetica,sans-Serif" font-size="10.00">toppartner::tagger</text>
<text text-anchor="middle" x="73" y="-7.5" font-family="Helvetica,sans-Serif" font-size="10.00">::EventNewPair</text>
</g>
<!-- Node2 -->
<g id="node2" class="node"><title>Node2</title>
<g id="a_node2"><a xlink:href="classboca_1_1Tagger.html" target="_top" xlink:title="boca::Tagger\&lt; EventMultiplet\l\&lt; Decuplet55 \&gt;, boca::branch\l::Event \&gt;">
<polygon fill="white" stroke="black" points="0,-67.5 0,-108.5 146,-108.5 146,-67.5 0,-67.5"/>
<text text-anchor="start" x="8" y="-96.5" font-family="Helvetica,sans-Serif" font-size="10.00">boca::Tagger&lt; EventMultiplet</text>
<text text-anchor="start" x="8" y="-85.5" font-family="Helvetica,sans-Serif" font-size="10.00">&lt; Decuplet55 &gt;, boca::branch</text>
<text text-anchor="middle" x="73" y="-74.5" font-family="Helvetica,sans-Serif" font-size="10.00">::Event &gt;</text>
</a>
</g>
</g>
<!-- Node2&#45;&gt;Node1 -->
<g id="edge1" class="edge"><title>Node2&#45;&gt;Node1</title>
<path fill="none" stroke="midnightblue" d="M73,-57.08C73,-48.0061 73,-38.4498 73,-30.8916"/>
<polygon fill="midnightblue" stroke="midnightblue" points="69.5001,-57.3618 73,-67.3618 76.5001,-57.3619 69.5001,-57.3618"/>
</g>
<!-- Node3 -->
<g id="node3" class="node"><title>Node3</title>
<g id="a_node3"><a xlink:href="classboca_1_1tagger_1_1Base.html" target="_top" xlink:title="Prepares multivariant analysis. ">
<polygon fill="white" stroke="black" points="23.5,-145.5 23.5,-164.5 122.5,-164.5 122.5,-145.5 23.5,-145.5"/>
<text text-anchor="middle" x="73" y="-152.5" font-family="Helvetica,sans-Serif" font-size="10.00">boca::tagger::Base</text>
</a>
</g>
</g>
<!-- Node3&#45;&gt;Node2 -->
<g id="edge2" class="edge"><title>Node3&#45;&gt;Node2</title>
<path fill="none" stroke="midnightblue" d="M73,-135.037C73,-126.708 73,-116.936 73,-108.542"/>
<polygon fill="midnightblue" stroke="midnightblue" points="69.5001,-135.234 73,-145.234 76.5001,-135.234 69.5001,-135.234"/>
</g>
</g>
</svg>
