<?xml version="1.0" encoding="UTF-8" standalone="no"?>
<!DOCTYPE svg PUBLIC "-//W3C//DTD SVG 1.1//EN"
 "http://www.w3.org/Graphics/SVG/1.1/DTD/svg11.dtd">
<!-- Generated by graphviz version 2.38.0 (20140413.2041)
 -->
<!-- Title: toppartner::branch::SignatureSingle Pages: 1 -->
<svg width="312pt" height="431pt"
 viewBox="0.00 0.00 312.00 431.00" xmlns="http://www.w3.org/2000/svg" xmlns:xlink="http://www.w3.org/1999/xlink">
<g id="graph0" class="graph" transform="scale(1 1) rotate(0) translate(4 427)">
<title>toppartner::branch::SignatureSingle</title>
<polygon fill="white" stroke="none" points="-4,4 -4,-427 308,-427 308,4 -4,4"/>
<!-- Node1 -->
<g id="node1" class="node"><title>Node1</title>
<polygon fill="#bfbfbf" stroke="black" points="95.5,-0.5 95.5,-30.5 190.5,-30.5 190.5,-0.5 95.5,-0.5"/>
<text text-anchor="start" x="103.5" y="-18.5" font-family="Helvetica,sans-Serif" font-size="10.00">toppartner::branch</text>
<text text-anchor="middle" x="143" y="-7.5" font-family="Helvetica,sans-Serif" font-size="10.00">::SignatureSingle</text>
</g>
<!-- Node2 -->
<g id="node2" class="node"><title>Node2</title>
<g id="a_node2"><a xlink:href="classboca_1_1branch_1_1Signature.html" target="_top" xlink:title="Signature tree branch ">
<polygon fill="white" stroke="black" points="83,-67.5 83,-86.5 203,-86.5 203,-67.5 83,-67.5"/>
<text text-anchor="middle" x="143" y="-74.5" font-family="Helvetica,sans-Serif" font-size="10.00">boca::branch::Signature</text>
</a>
</g>
</g>
<!-- Node2&#45;&gt;Node1 -->
<g id="edge1" class="edge"><title>Node2&#45;&gt;Node1</title>
<path fill="none" stroke="midnightblue" d="M143,-57.2349C143,-48.5864 143,-38.4969 143,-30.523"/>
<polygon fill="midnightblue" stroke="midnightblue" points="139.5,-57.4751 143,-67.4751 146.5,-57.4751 139.5,-57.4751"/>
</g>
<!-- Node3 -->
<g id="node3" class="node"><title>Node3</title>
<g id="a_node3"><a xlink:href="classboca_1_1branch_1_1ThreeBody.html" target="_top" xlink:title="Three body tree branch. ">
<polygon fill="white" stroke="black" points="0,-123.5 0,-142.5 126,-142.5 126,-123.5 0,-123.5"/>
<text text-anchor="middle" x="63" y="-130.5" font-family="Helvetica,sans-Serif" font-size="10.00">boca::branch::ThreeBody</text>
</a>
</g>
</g>
<!-- Node3&#45;&gt;Node2 -->
<g id="edge2" class="edge"><title>Node3&#45;&gt;Node2</title>
<path fill="none" stroke="midnightblue" d="M84.3006,-117.622C98.915,-107.757 117.827,-94.9919 130.179,-86.6545"/>
<polygon fill="midnightblue" stroke="midnightblue" points="82.1837,-114.828 75.8534,-123.324 86.1001,-120.63 82.1837,-114.828"/>
</g>
<!-- Node4 -->
<g id="node4" class="node"><title>Node4</title>
<g id="a_node4"><a xlink:href="classboca_1_1branch_1_1Particle.html" target="_top" xlink:title="Particle tree branch ">
<polygon fill="white" stroke="black" points="7,-179.5 7,-198.5 119,-198.5 119,-179.5 7,-179.5"/>
<text text-anchor="middle" x="63" y="-186.5" font-family="Helvetica,sans-Serif" font-size="10.00">boca::branch::Particle</text>
</a>
</g>
</g>
<!-- Node4&#45;&gt;Node3 -->
<g id="edge3" class="edge"><title>Node4&#45;&gt;Node3</title>
<path fill="none" stroke="midnightblue" d="M63,-168.805C63,-159.91 63,-149.78 63,-142.751"/>
<polygon fill="midnightblue" stroke="midnightblue" points="59.5001,-169.083 63,-179.083 66.5001,-169.083 59.5001,-169.083"/>
</g>
<!-- Node5 -->
<g id="node5" class="node"><title>Node5</title>
<g id="a_node5"><a xlink:href="classboca_1_1branch_1_1Bdt.html" target="_top" xlink:title="Bdt base tree branch ">
<polygon fill="white" stroke="black" points="16,-235.5 16,-254.5 110,-254.5 110,-235.5 16,-235.5"/>
<text text-anchor="middle" x="63" y="-242.5" font-family="Helvetica,sans-Serif" font-size="10.00">boca::branch::Bdt</text>
</a>
</g>
</g>
<!-- Node5&#45;&gt;Node4 -->
<g id="edge4" class="edge"><title>Node5&#45;&gt;Node4</title>
<path fill="none" stroke="midnightblue" d="M63,-224.805C63,-215.91 63,-205.78 63,-198.751"/>
<polygon fill="midnightblue" stroke="midnightblue" points="59.5001,-225.083 63,-235.083 66.5001,-225.083 59.5001,-225.083"/>
</g>
<!-- Node6 -->
<g id="node6" class="node"><title>Node6</title>
<g id="a_node6"><a xlink:href="classboca_1_1branch_1_1Result.html" target="_top" xlink:title="Result tree branch ">
<polygon fill="white" stroke="black" points="9.5,-291.5 9.5,-310.5 116.5,-310.5 116.5,-291.5 9.5,-291.5"/>
<text text-anchor="middle" x="63" y="-298.5" font-family="Helvetica,sans-Serif" font-size="10.00">boca::branch::Result</text>
</a>
</g>
</g>
<!-- Node6&#45;&gt;Node5 -->
<g id="edge5" class="edge"><title>Node6&#45;&gt;Node5</title>
<path fill="none" stroke="midnightblue" d="M63,-280.805C63,-271.91 63,-261.78 63,-254.751"/>
<polygon fill="midnightblue" stroke="midnightblue" points="59.5001,-281.083 63,-291.083 66.5001,-281.083 59.5001,-281.083"/>
</g>
<!-- Node7 -->
<g id="node7" class="node"><title>Node7</title>
<g id="a_node7"><a xlink:href="classboca_1_1branch_1_1Base.html" target="_top" xlink:title="Base tree branch ">
<polygon fill="white" stroke="black" points="12.5,-347.5 12.5,-366.5 113.5,-366.5 113.5,-347.5 12.5,-347.5"/>
<text text-anchor="middle" x="63" y="-354.5" font-family="Helvetica,sans-Serif" font-size="10.00">boca::branch::Base</text>
</a>
</g>
</g>
<!-- Node7&#45;&gt;Node6 -->
<g id="edge6" class="edge"><title>Node7&#45;&gt;Node6</title>
<path fill="none" stroke="midnightblue" d="M63,-336.805C63,-327.91 63,-317.78 63,-310.751"/>
<polygon fill="midnightblue" stroke="midnightblue" points="59.5001,-337.083 63,-347.083 66.5001,-337.083 59.5001,-337.083"/>
</g>
<!-- Node8 -->
<g id="node8" class="node"><title>Node8</title>
<polygon fill="white" stroke="#bfbfbf" points="37.5,-403.5 37.5,-422.5 88.5,-422.5 88.5,-403.5 37.5,-403.5"/>
<text text-anchor="middle" x="63" y="-410.5" font-family="Helvetica,sans-Serif" font-size="10.00">TObject</text>
</g>
<!-- Node8&#45;&gt;Node7 -->
<g id="edge7" class="edge"><title>Node8&#45;&gt;Node7</title>
<path fill="none" stroke="midnightblue" d="M63,-392.805C63,-383.91 63,-373.78 63,-366.751"/>
<polygon fill="midnightblue" stroke="midnightblue" points="59.5001,-393.083 63,-403.083 66.5001,-393.083 59.5001,-393.083"/>
</g>
<!-- Node9 -->
<g id="node9" class="node"><title>Node9</title>
<g id="a_node9"><a xlink:href="classboca_1_1branch_1_1EventShapesBase.html" target="_top" xlink:title="EventShapes base tree branch ">
<polygon fill="white" stroke="black" points="144,-123.5 144,-142.5 304,-142.5 304,-123.5 144,-123.5"/>
<text text-anchor="middle" x="224" y="-130.5" font-family="Helvetica,sans-Serif" font-size="10.00">boca::branch::EventShapesBase</text>
</a>
</g>
</g>
<!-- Node9&#45;&gt;Node2 -->
<g id="edge8" class="edge"><title>Node9&#45;&gt;Node2</title>
<path fill="none" stroke="midnightblue" d="M202.433,-117.622C187.636,-107.757 168.488,-94.9919 155.982,-86.6545"/>
<polygon fill="midnightblue" stroke="midnightblue" points="200.724,-120.689 210.986,-123.324 204.607,-114.865 200.724,-120.689"/>
</g>
</g>
</svg>
