<?xml version="1.0" encoding="UTF-8" standalone="no"?>
<!DOCTYPE svg PUBLIC "-//W3C//DTD SVG 1.1//EN"
 "http://www.w3.org/Graphics/SVG/1.1/DTD/svg11.dtd">
<!-- Generated by graphviz version 2.38.0 (20140413.2041)
 -->
<!-- Title: boca::Problematic Pages: 1 -->
<svg width="204pt" height="163pt"
 viewBox="0.00 0.00 204.00 163.00" xmlns="http://www.w3.org/2000/svg" xmlns:xlink="http://www.w3.org/1999/xlink">
<g id="graph0" class="graph" transform="scale(1 1) rotate(0) translate(4 159)">
<title>boca::Problematic</title>
<polygon fill="white" stroke="none" points="-4,4 -4,-159 200,-159 200,4 -4,4"/>
<!-- Node1 -->
<g id="node1" class="node"><title>Node1</title>
<polygon fill="#bfbfbf" stroke="black" points="56,-0.5 56,-19.5 151,-19.5 151,-0.5 56,-0.5"/>
<text text-anchor="middle" x="103.5" y="-7.5" font-family="Helvetica,sans-Serif" font-size="10.00">boca::Problematic</text>
</g>
<!-- Node2 -->
<g id="node2" class="node"><title>Node2</title>
<g id="a_node2"><a xlink:title="STL class. ">
<polygon fill="white" stroke="#bfbfbf" points="0,-67.5 0,-86.5 93,-86.5 93,-67.5 0,-67.5"/>
<text text-anchor="middle" x="46.5" y="-74.5" font-family="Helvetica,sans-Serif" font-size="10.00">std::runtime_error</text>
</a>
</g>
</g>
<!-- Node2&#45;&gt;Node1 -->
<g id="edge1" class="edge"><title>Node2&#45;&gt;Node1</title>
<path fill="none" stroke="midnightblue" d="M60.851,-59.6348C71.9985,-46.9228 87.0158,-29.7978 95.9345,-19.6273"/>
<polygon fill="midnightblue" stroke="midnightblue" points="58.149,-57.4075 54.1873,-67.2338 63.4121,-62.0228 58.149,-57.4075"/>
</g>
<!-- Node3 -->
<g id="node3" class="node"><title>Node3</title>
<g id="a_node3"><a xlink:title="STL class. ">
<polygon fill="white" stroke="#bfbfbf" points="4.5,-130 4.5,-149 82.5,-149 82.5,-130 4.5,-130"/>
<text text-anchor="middle" x="43.5" y="-137" font-family="Helvetica,sans-Serif" font-size="10.00">std::exception</text>
</a>
</g>
</g>
<!-- Node3&#45;&gt;Node2 -->
<g id="edge2" class="edge"><title>Node3&#45;&gt;Node2</title>
<path fill="none" stroke="midnightblue" d="M44.442,-119.503C44.9876,-108.5 45.648,-95.182 46.071,-86.6521"/>
<polygon fill="midnightblue" stroke="midnightblue" points="40.9295,-119.671 43.9298,-129.832 47.9209,-120.017 40.9295,-119.671"/>
</g>
<!-- Node4 -->
<g id="node4" class="node"><title>Node4</title>
<g id="a_node4"><a xlink:title="STL class. ">
<polygon fill="white" stroke="#bfbfbf" points="115.5,-67.5 115.5,-86.5 175.5,-86.5 175.5,-67.5 115.5,-67.5"/>
<text text-anchor="middle" x="145.5" y="-74.5" font-family="Helvetica,sans-Serif" font-size="10.00">std::string</text>
</a>
</g>
</g>
<!-- Node4&#45;&gt;Node1 -->
<g id="edge3" class="edge"><title>Node4&#45;&gt;Node1</title>
<path fill="none" stroke="#9a32cd" stroke-dasharray="5,2" d="M134.215,-58.5347C126.083,-45.9499 115.459,-29.5072 109.075,-19.6273"/>
<polygon fill="#9a32cd" stroke="#9a32cd" points="131.469,-60.7341 139.836,-67.2338 137.348,-56.9351 131.469,-60.7341"/>
<text text-anchor="middle" x="138.5" y="-41" font-family="Helvetica,sans-Serif" font-size="10.00"> arg_</text>
</g>
<!-- Node5 -->
<g id="node5" class="node"><title>Node5</title>
<g id="a_node5"><a xlink:title="STL class. ">
<polygon fill="white" stroke="#bfbfbf" points="101,-124.5 101,-154.5 196,-154.5 196,-124.5 101,-124.5"/>
<text text-anchor="start" x="109" y="-142.5" font-family="Helvetica,sans-Serif" font-size="10.00">std::basic_string&lt;</text>
<text text-anchor="middle" x="148.5" y="-131.5" font-family="Helvetica,sans-Serif" font-size="10.00"> char &gt;</text>
</a>
</g>
</g>
<!-- Node5&#45;&gt;Node4 -->
<g id="edge4" class="edge"><title>Node5&#45;&gt;Node4</title>
<path fill="none" stroke="midnightblue" d="M147.303,-114.352C146.815,-104.513 146.282,-93.7753 145.923,-86.5399"/>
<polygon fill="midnightblue" stroke="midnightblue" points="143.813,-114.654 147.804,-124.468 150.805,-114.307 143.813,-114.654"/>
</g>
</g>
</svg>
