<?xml version="1.0" encoding="UTF-8" standalone="no"?>
<!DOCTYPE svg PUBLIC "-//W3C//DTD SVG 1.1//EN"
 "http://www.w3.org/Graphics/SVG/1.1/DTD/svg11.dtd">
<!-- Generated by graphviz version 2.38.0 (20140413.2041)
 -->
<!-- Title: standardmodel::tagger::Event&lt; Signature_, Multiplet_, Branch_ &gt; Pages: 1 -->
<svg width="153pt" height="173pt"
 viewBox="0.00 0.00 153.00 173.00" xmlns="http://www.w3.org/2000/svg" xmlns:xlink="http://www.w3.org/1999/xlink">
<g id="graph0" class="graph" transform="scale(1 1) rotate(0) translate(4 169)">
<title>standardmodel::tagger::Event&lt; Signature_, Multiplet_, Branch_ &gt;</title>
<polygon fill="white" stroke="none" points="-4,4 -4,-169 149,-169 149,4 -4,4"/>
<!-- Node1 -->
<g id="node1" class="node"><title>Node1</title>
<polygon fill="#bfbfbf" stroke="black" points="16,-0.5 16,-41.5 129,-41.5 129,-0.5 16,-0.5"/>
<text text-anchor="start" x="24" y="-29.5" font-family="Helvetica,sans-Serif" font-size="10.00">standardmodel::tagger</text>
<text text-anchor="start" x="24" y="-18.5" font-family="Helvetica,sans-Serif" font-size="10.00">::Event&lt; Signature_,</text>
<text text-anchor="middle" x="72.5" y="-7.5" font-family="Helvetica,sans-Serif" font-size="10.00"> Multiplet_, Branch_ &gt;</text>
</g>
<!-- Node2 -->
<g id="node2" class="node"><title>Node2</title>
<g id="a_node2"><a xlink:href="classboca_1_1Tagger.html" target="_top" xlink:title="boca::Tagger\&lt; EventMultiplet\l\&lt; Multiplet_ \&gt;, Branch_ \&gt;">
<polygon fill="white" stroke="black" points="0,-78.5 0,-108.5 145,-108.5 145,-78.5 0,-78.5"/>
<text text-anchor="start" x="8" y="-96.5" font-family="Helvetica,sans-Serif" font-size="10.00">boca::Tagger&lt; EventMultiplet</text>
<text text-anchor="middle" x="72.5" y="-85.5" font-family="Helvetica,sans-Serif" font-size="10.00">&lt; Multiplet_ &gt;, Branch_ &gt;</text>
</a>
</g>
</g>
<!-- Node2&#45;&gt;Node1 -->
<g id="edge1" class="edge"><title>Node2&#45;&gt;Node1</title>
<path fill="none" stroke="midnightblue" d="M72.5,-67.9815C72.5,-59.3468 72.5,-49.7625 72.5,-41.5884"/>
<polygon fill="midnightblue" stroke="midnightblue" points="69.0001,-68.2332 72.5,-78.2333 76.0001,-68.2333 69.0001,-68.2332"/>
</g>
<!-- Node3 -->
<g id="node3" class="node"><title>Node3</title>
<g id="a_node3"><a xlink:href="classboca_1_1tagger_1_1Base.html" target="_top" xlink:title="Prepares multivariant analysis. ">
<polygon fill="white" stroke="black" points="23,-145.5 23,-164.5 122,-164.5 122,-145.5 23,-145.5"/>
<text text-anchor="middle" x="72.5" y="-152.5" font-family="Helvetica,sans-Serif" font-size="10.00">boca::tagger::Base</text>
</a>
</g>
</g>
<!-- Node3&#45;&gt;Node2 -->
<g id="edge2" class="edge"><title>Node3&#45;&gt;Node2</title>
<path fill="none" stroke="midnightblue" d="M72.5,-135.235C72.5,-126.586 72.5,-116.497 72.5,-108.523"/>
<polygon fill="midnightblue" stroke="midnightblue" points="69.0001,-135.475 72.5,-145.475 76.0001,-135.475 69.0001,-135.475"/>
</g>
</g>
</svg>
