<?xml version="1.0" encoding="UTF-8" standalone="no"?>
<!DOCTYPE svg PUBLIC "-//W3C//DTD SVG 1.1//EN"
 "http://www.w3.org/Graphics/SVG/1.1/DTD/svg11.dtd">
<!-- Generated by graphviz version 2.38.0 (20140413.2041)
 -->
<!-- Title: standardmodel::branch::Bottom Pages: 1 -->
<svg width="254pt" height="330pt"
 viewBox="0.00 0.00 254.00 330.00" xmlns="http://www.w3.org/2000/svg" xmlns:xlink="http://www.w3.org/1999/xlink">
<g id="graph0" class="graph" transform="scale(1 1) rotate(0) translate(4 326)">
<title>standardmodel::branch::Bottom</title>
<polygon fill="white" stroke="none" points="-4,4 -4,-326 250,-326 250,4 -4,4"/>
<!-- Node1 -->
<g id="node1" class="node"><title>Node1</title>
<polygon fill="#bfbfbf" stroke="black" points="64,-0.5 64,-30.5 180,-30.5 180,-0.5 64,-0.5"/>
<text text-anchor="start" x="72" y="-18.5" font-family="Helvetica,sans-Serif" font-size="10.00">standardmodel::branch</text>
<text text-anchor="middle" x="122" y="-7.5" font-family="Helvetica,sans-Serif" font-size="10.00">::Bottom</text>
</g>
<!-- Node2 -->
<g id="node2" class="node"><title>Node2</title>
<g id="a_node2"><a xlink:href="classboca_1_1branch_1_1Particle.html" target="_top" xlink:title="Particle tree branch ">
<polygon fill="white" stroke="black" points="0,-73 0,-92 112,-92 112,-73 0,-73"/>
<text text-anchor="middle" x="56" y="-80" font-family="Helvetica,sans-Serif" font-size="10.00">boca::branch::Particle</text>
</a>
</g>
</g>
<!-- Node2&#45;&gt;Node1 -->
<g id="edge1" class="edge"><title>Node2&#45;&gt;Node1</title>
<path fill="none" stroke="midnightblue" d="M72.1274,-65.617C83.0026,-54.9065 97.2223,-40.9022 107.694,-30.589"/>
<polygon fill="midnightblue" stroke="midnightblue" points="69.57,-63.2232 64.9011,-72.7338 74.4818,-68.2106 69.57,-63.2232"/>
</g>
<!-- Node3 -->
<g id="node3" class="node"><title>Node3</title>
<g id="a_node3"><a xlink:href="classboca_1_1branch_1_1Bdt.html" target="_top" xlink:title="Bdt base tree branch ">
<polygon fill="white" stroke="black" points="9,-134.5 9,-153.5 103,-153.5 103,-134.5 9,-134.5"/>
<text text-anchor="middle" x="56" y="-141.5" font-family="Helvetica,sans-Serif" font-size="10.00">boca::branch::Bdt</text>
</a>
</g>
</g>
<!-- Node3&#45;&gt;Node2 -->
<g id="edge2" class="edge"><title>Node3&#45;&gt;Node2</title>
<path fill="none" stroke="midnightblue" d="M56,-124.317C56,-113.496 56,-100.398 56,-92.0091"/>
<polygon fill="midnightblue" stroke="midnightblue" points="52.5001,-124.475 56,-134.475 59.5001,-124.475 52.5001,-124.475"/>
</g>
<!-- Node4 -->
<g id="node4" class="node"><title>Node4</title>
<g id="a_node4"><a xlink:href="classboca_1_1branch_1_1Result.html" target="_top" xlink:title="Result tree branch ">
<polygon fill="white" stroke="black" points="2.5,-190.5 2.5,-209.5 109.5,-209.5 109.5,-190.5 2.5,-190.5"/>
<text text-anchor="middle" x="56" y="-197.5" font-family="Helvetica,sans-Serif" font-size="10.00">boca::branch::Result</text>
</a>
</g>
</g>
<!-- Node4&#45;&gt;Node3 -->
<g id="edge3" class="edge"><title>Node4&#45;&gt;Node3</title>
<path fill="none" stroke="midnightblue" d="M56,-179.805C56,-170.91 56,-160.78 56,-153.751"/>
<polygon fill="midnightblue" stroke="midnightblue" points="52.5001,-180.083 56,-190.083 59.5001,-180.083 52.5001,-180.083"/>
</g>
<!-- Node5 -->
<g id="node5" class="node"><title>Node5</title>
<g id="a_node5"><a xlink:href="classboca_1_1branch_1_1Base.html" target="_top" xlink:title="Base tree branch ">
<polygon fill="white" stroke="black" points="5.5,-246.5 5.5,-265.5 106.5,-265.5 106.5,-246.5 5.5,-246.5"/>
<text text-anchor="middle" x="56" y="-253.5" font-family="Helvetica,sans-Serif" font-size="10.00">boca::branch::Base</text>
</a>
</g>
</g>
<!-- Node5&#45;&gt;Node4 -->
<g id="edge4" class="edge"><title>Node5&#45;&gt;Node4</title>
<path fill="none" stroke="midnightblue" d="M56,-235.805C56,-226.91 56,-216.78 56,-209.751"/>
<polygon fill="midnightblue" stroke="midnightblue" points="52.5001,-236.083 56,-246.083 59.5001,-236.083 52.5001,-236.083"/>
</g>
<!-- Node6 -->
<g id="node6" class="node"><title>Node6</title>
<polygon fill="white" stroke="#bfbfbf" points="30.5,-302.5 30.5,-321.5 81.5,-321.5 81.5,-302.5 30.5,-302.5"/>
<text text-anchor="middle" x="56" y="-309.5" font-family="Helvetica,sans-Serif" font-size="10.00">TObject</text>
</g>
<!-- Node6&#45;&gt;Node5 -->
<g id="edge5" class="edge"><title>Node6&#45;&gt;Node5</title>
<path fill="none" stroke="midnightblue" d="M56,-291.805C56,-282.91 56,-272.78 56,-265.751"/>
<polygon fill="midnightblue" stroke="midnightblue" points="52.5001,-292.083 56,-302.083 59.5001,-292.083 52.5001,-292.083"/>
</g>
<!-- Node7 -->
<g id="node7" class="node"><title>Node7</title>
<g id="a_node7"><a xlink:href="classstandardmodel_1_1branch_1_1BottomBase.html" target="_top" xlink:title="Bottom tagger base tree branch ">
<polygon fill="white" stroke="black" points="130,-67.5 130,-97.5 246,-97.5 246,-67.5 130,-67.5"/>
<text text-anchor="start" x="138" y="-85.5" font-family="Helvetica,sans-Serif" font-size="10.00">standardmodel::branch</text>
<text text-anchor="middle" x="188" y="-74.5" font-family="Helvetica,sans-Serif" font-size="10.00">::BottomBase</text>
</a>
</g>
</g>
<!-- Node7&#45;&gt;Node1 -->
<g id="edge6" class="edge"><title>Node7&#45;&gt;Node1</title>
<path fill="none" stroke="midnightblue" d="M166.485,-60.3115C156.585,-50.5612 145.109,-39.259 136.293,-30.5765"/>
<polygon fill="midnightblue" stroke="midnightblue" points="164.098,-62.8728 173.679,-67.396 169.01,-57.8853 164.098,-62.8728"/>
</g>
</g>
</svg>
