<?xml version="1.0" encoding="UTF-8" standalone="no"?>
<!DOCTYPE svg PUBLIC "-//W3C//DTD SVG 1.1//EN"
 "http://www.w3.org/Graphics/SVG/1.1/DTD/svg11.dtd">
<!-- Generated by graphviz version 2.38.0 (20140413.2041)
 -->
<!-- Title: toppartner::tagger::TopPartnerLeptonicCharged Pages: 1 -->
<svg width="152pt" height="229pt"
 viewBox="0.00 0.00 152.00 229.00" xmlns="http://www.w3.org/2000/svg" xmlns:xlink="http://www.w3.org/1999/xlink">
<g id="graph0" class="graph" transform="scale(1 1) rotate(0) translate(4 225)">
<title>toppartner::tagger::TopPartnerLeptonicCharged</title>
<polygon fill="white" stroke="none" points="-4,4 -4,-225 148,-225 148,4 -4,4"/>
<!-- Node1 -->
<g id="node1" class="node"><title>Node1</title>
<polygon fill="#bfbfbf" stroke="black" points="0,-0.5 0,-30.5 144,-30.5 144,-0.5 0,-0.5"/>
<text text-anchor="start" x="8" y="-18.5" font-family="Helvetica,sans-Serif" font-size="10.00">toppartner::tagger</text>
<text text-anchor="middle" x="72" y="-7.5" font-family="Helvetica,sans-Serif" font-size="10.00">::TopPartnerLeptonicCharged</text>
</g>
<!-- Node2 -->
<g id="node2" class="node"><title>Node2</title>
<g id="a_node2"><a xlink:href="classstandardmodel_1_1tagger_1_1TopLeptonic.html" target="_top" xlink:title="BDT tagger for leptonically decaying top quarks. ">
<polygon fill="white" stroke="black" points="15.5,-67.5 15.5,-97.5 128.5,-97.5 128.5,-67.5 15.5,-67.5"/>
<text text-anchor="start" x="23.5" y="-85.5" font-family="Helvetica,sans-Serif" font-size="10.00">standardmodel::tagger</text>
<text text-anchor="middle" x="72" y="-74.5" font-family="Helvetica,sans-Serif" font-size="10.00">::TopLeptonic</text>
</a>
</g>
</g>
<!-- Node2&#45;&gt;Node1 -->
<g id="edge1" class="edge"><title>Node2&#45;&gt;Node1</title>
<path fill="none" stroke="midnightblue" d="M72,-57.1081C72,-48.1539 72,-38.3227 72,-30.5765"/>
<polygon fill="midnightblue" stroke="midnightblue" points="68.5001,-57.3959 72,-67.396 75.5001,-57.396 68.5001,-57.3959"/>
</g>
<!-- Node3 -->
<g id="node3" class="node"><title>Node3</title>
<g id="a_node3"><a xlink:href="classboca_1_1Tagger.html" target="_top" xlink:title="boca::Tagger\&lt; Triplet,\l branch::TopLeptonic \&gt;">
<polygon fill="white" stroke="black" points="13.5,-134.5 13.5,-164.5 130.5,-164.5 130.5,-134.5 13.5,-134.5"/>
<text text-anchor="start" x="21.5" y="-152.5" font-family="Helvetica,sans-Serif" font-size="10.00">boca::Tagger&lt; Triplet,</text>
<text text-anchor="middle" x="72" y="-141.5" font-family="Helvetica,sans-Serif" font-size="10.00"> branch::TopLeptonic &gt;</text>
</a>
</g>
</g>
<!-- Node3&#45;&gt;Node2 -->
<g id="edge2" class="edge"><title>Node3&#45;&gt;Node2</title>
<path fill="none" stroke="midnightblue" d="M72,-124.108C72,-115.154 72,-105.323 72,-97.5765"/>
<polygon fill="midnightblue" stroke="midnightblue" points="68.5001,-124.396 72,-134.396 75.5001,-124.396 68.5001,-124.396"/>
</g>
<!-- Node4 -->
<g id="node4" class="node"><title>Node4</title>
<g id="a_node4"><a xlink:href="classboca_1_1tagger_1_1Base.html" target="_top" xlink:title="Prepares multivariant analysis. ">
<polygon fill="white" stroke="black" points="22.5,-201.5 22.5,-220.5 121.5,-220.5 121.5,-201.5 22.5,-201.5"/>
<text text-anchor="middle" x="72" y="-208.5" font-family="Helvetica,sans-Serif" font-size="10.00">boca::tagger::Base</text>
</a>
</g>
</g>
<!-- Node4&#45;&gt;Node3 -->
<g id="edge3" class="edge"><title>Node4&#45;&gt;Node3</title>
<path fill="none" stroke="midnightblue" d="M72,-191.235C72,-182.586 72,-172.497 72,-164.523"/>
<polygon fill="midnightblue" stroke="midnightblue" points="68.5001,-191.475 72,-201.475 75.5001,-191.475 68.5001,-191.475"/>
</g>
</g>
</svg>
