<?xml version="1.0" encoding="UTF-8" standalone="no"?>
<!DOCTYPE svg PUBLIC "-//W3C//DTD SVG 1.1//EN"
 "http://www.w3.org/Graphics/SVG/1.1/DTD/svg11.dtd">
<!-- Generated by graphviz version 2.38.0 (20140413.2041)
 -->
<!-- Title: toppartner::tagger::EventSubDom Pages: 1 -->
<svg width="605pt" height="61pt"
 viewBox="0.00 0.00 605.00 61.00" xmlns="http://www.w3.org/2000/svg" xmlns:xlink="http://www.w3.org/1999/xlink">
<g id="graph0" class="graph" transform="scale(1 1) rotate(0) translate(4 57)">
<title>toppartner::tagger::EventSubDom</title>
<polygon fill="white" stroke="none" points="-4,4 -4,-57 601,-57 601,4 -4,4"/>
<!-- Node1 -->
<g id="node1" class="node"><title>Node1</title>
<polygon fill="#bfbfbf" stroke="black" points="504,-11.5 504,-41.5 597,-41.5 597,-11.5 504,-11.5"/>
<text text-anchor="start" x="512" y="-29.5" font-family="Helvetica,sans-Serif" font-size="10.00">toppartner::tagger</text>
<text text-anchor="middle" x="550.5" y="-18.5" font-family="Helvetica,sans-Serif" font-size="10.00">::EventSubDom</text>
</g>
<!-- Node2 -->
<g id="node2" class="node"><title>Node2</title>
<g id="a_node2"><a xlink:href="classstandardmodel_1_1tagger_1_1Event.html" target="_top" xlink:title="standardmodel::tagger\l::Event\&lt; SignatureSubDom,\l Duodecuplet552, boca::branch\l::Event \&gt;">
<polygon fill="white" stroke="black" points="316,-0.5 316,-52.5 468,-52.5 468,-0.5 316,-0.5"/>
<text text-anchor="start" x="324" y="-40.5" font-family="Helvetica,sans-Serif" font-size="10.00">standardmodel::tagger</text>
<text text-anchor="start" x="324" y="-29.5" font-family="Helvetica,sans-Serif" font-size="10.00">::Event&lt; SignatureSubDom,</text>
<text text-anchor="start" x="324" y="-18.5" font-family="Helvetica,sans-Serif" font-size="10.00"> Duodecuplet552, boca::branch</text>
<text text-anchor="middle" x="392" y="-7.5" font-family="Helvetica,sans-Serif" font-size="10.00">::Event &gt;</text>
</a>
</g>
</g>
<!-- Node2&#45;&gt;Node1 -->
<g id="edge1" class="edge"><title>Node2&#45;&gt;Node1</title>
<path fill="none" stroke="midnightblue" d="M478.079,-26.5C486.947,-26.5 495.697,-26.5 503.869,-26.5"/>
<polygon fill="midnightblue" stroke="midnightblue" points="478.041,-23.0001 468.041,-26.5 478.041,-30.0001 478.041,-23.0001"/>
</g>
<!-- Node3 -->
<g id="node3" class="node"><title>Node3</title>
<g id="a_node3"><a xlink:href="classboca_1_1Tagger.html" target="_top" xlink:title="boca::Tagger\&lt; EventMultiplet\l\&lt; Duodecuplet552 \&gt;, boca\l::branch::Event \&gt;">
<polygon fill="white" stroke="black" points="135,-6 135,-47 280,-47 280,-6 135,-6"/>
<text text-anchor="start" x="143" y="-35" font-family="Helvetica,sans-Serif" font-size="10.00">boca::Tagger&lt; EventMultiplet</text>
<text text-anchor="start" x="143" y="-24" font-family="Helvetica,sans-Serif" font-size="10.00">&lt; Duodecuplet552 &gt;, boca</text>
<text text-anchor="middle" x="207.5" y="-13" font-family="Helvetica,sans-Serif" font-size="10.00">::branch::Event &gt;</text>
</a>
</g>
</g>
<!-- Node3&#45;&gt;Node2 -->
<g id="edge2" class="edge"><title>Node3&#45;&gt;Node2</title>
<path fill="none" stroke="midnightblue" d="M290.138,-26.5C298.745,-26.5 307.468,-26.5 315.995,-26.5"/>
<polygon fill="midnightblue" stroke="midnightblue" points="290.105,-23.0001 280.105,-26.5 290.105,-30.0001 290.105,-23.0001"/>
</g>
<!-- Node4 -->
<g id="node4" class="node"><title>Node4</title>
<g id="a_node4"><a xlink:href="classboca_1_1tagger_1_1Base.html" target="_top" xlink:title="Prepares multivariant analysis. ">
<polygon fill="white" stroke="black" points="0,-17 0,-36 99,-36 99,-17 0,-17"/>
<text text-anchor="middle" x="49.5" y="-24" font-family="Helvetica,sans-Serif" font-size="10.00">boca::tagger::Base</text>
</a>
</g>
</g>
<!-- Node4&#45;&gt;Node3 -->
<g id="edge3" class="edge"><title>Node4&#45;&gt;Node3</title>
<path fill="none" stroke="midnightblue" d="M109.071,-26.5C117.479,-26.5 126.208,-26.5 134.833,-26.5"/>
<polygon fill="midnightblue" stroke="midnightblue" points="109.004,-23.0001 99.0042,-26.5 109.004,-30.0001 109.004,-23.0001"/>
</g>
</g>
</svg>
