<?xml version="1.0" encoding="UTF-8" standalone="no"?>
<!DOCTYPE svg PUBLIC "-//W3C//DTD SVG 1.1//EN"
 "http://www.w3.org/Graphics/SVG/1.1/DTD/svg11.dtd">
<!-- Generated by graphviz version 2.38.0 (20140413.2041)
 -->
<!-- Title: boca::branch::Cut Pages: 1 -->
<svg width="232pt" height="209pt"
 viewBox="0.00 0.00 232.00 209.00" xmlns="http://www.w3.org/2000/svg" xmlns:xlink="http://www.w3.org/1999/xlink">
<g id="graph0" class="graph" transform="scale(1 1) rotate(0) translate(4 205)">
<title>boca::branch::Cut</title>
<polygon fill="white" stroke="none" points="-4,4 -4,-205 228,-205 228,4 -4,4"/>
<!-- Node1 -->
<g id="node1" class="node"><title>Node1</title>
<polygon fill="#bfbfbf" stroke="black" points="96,-0.5 96,-19.5 191,-19.5 191,-0.5 96,-0.5"/>
<text text-anchor="middle" x="143.5" y="-7.5" font-family="Helvetica,sans-Serif" font-size="10.00">boca::branch::Cut</text>
</g>
<!-- Node2 -->
<g id="node2" class="node"><title>Node2</title>
<g id="a_node2"><a xlink:href="classboca_1_1branch_1_1Result.html" target="_top" xlink:title="Result tree branch ">
<polygon fill="white" stroke="black" points="0,-67.5 0,-86.5 107,-86.5 107,-67.5 0,-67.5"/>
<text text-anchor="middle" x="53.5" y="-74.5" font-family="Helvetica,sans-Serif" font-size="10.00">boca::branch::Result</text>
</a>
</g>
</g>
<!-- Node2&#45;&gt;Node1 -->
<g id="edge1" class="edge"><title>Node2&#45;&gt;Node1</title>
<path fill="none" stroke="midnightblue" d="M74.1753,-61.0678C91.9402,-48.2376 116.936,-30.1853 131.555,-19.6273"/>
<polygon fill="midnightblue" stroke="midnightblue" points="71.6954,-58.5415 65.6378,-67.2338 75.7938,-64.2162 71.6954,-58.5415"/>
</g>
<!-- Node3 -->
<g id="node3" class="node"><title>Node3</title>
<g id="a_node3"><a xlink:href="classboca_1_1branch_1_1Base.html" target="_top" xlink:title="Base tree branch ">
<polygon fill="white" stroke="black" points="3,-124.5 3,-143.5 104,-143.5 104,-124.5 3,-124.5"/>
<text text-anchor="middle" x="53.5" y="-131.5" font-family="Helvetica,sans-Serif" font-size="10.00">boca::branch::Base</text>
</a>
</g>
</g>
<!-- Node3&#45;&gt;Node2 -->
<g id="edge2" class="edge"><title>Node3&#45;&gt;Node2</title>
<path fill="none" stroke="midnightblue" d="M53.5,-114.117C53.5,-104.817 53.5,-94.0557 53.5,-86.7149"/>
<polygon fill="midnightblue" stroke="midnightblue" points="50.0001,-114.406 53.5,-124.406 57.0001,-114.406 50.0001,-114.406"/>
</g>
<!-- Node4 -->
<g id="node4" class="node"><title>Node4</title>
<polygon fill="white" stroke="#bfbfbf" points="28,-181.5 28,-200.5 79,-200.5 79,-181.5 28,-181.5"/>
<text text-anchor="middle" x="53.5" y="-188.5" font-family="Helvetica,sans-Serif" font-size="10.00">TObject</text>
</g>
<!-- Node4&#45;&gt;Node3 -->
<g id="edge3" class="edge"><title>Node4&#45;&gt;Node3</title>
<path fill="none" stroke="midnightblue" d="M53.5,-171.117C53.5,-161.817 53.5,-151.056 53.5,-143.715"/>
<polygon fill="midnightblue" stroke="midnightblue" points="50.0001,-171.406 53.5,-181.406 57.0001,-171.406 50.0001,-171.406"/>
</g>
<!-- Node5 -->
<g id="node5" class="node"><title>Node5</title>
<polygon fill="white" stroke="#bfbfbf" points="125,-67.5 125,-86.5 224,-86.5 224,-67.5 125,-67.5"/>
<text text-anchor="middle" x="174.5" y="-74.5" font-family="Helvetica,sans-Serif" font-size="10.00">std::vector&lt; bool &gt;</text>
</g>
<!-- Node5&#45;&gt;Node1 -->
<g id="edge4" class="edge"><title>Node5&#45;&gt;Node1</title>
<path fill="none" stroke="#9a32cd" stroke-dasharray="5,2" d="M165.993,-58.1635C160.015,-45.6281 152.28,-29.4104 147.615,-19.6273"/>
<polygon fill="#9a32cd" stroke="#9a32cd" points="162.855,-59.7144 170.319,-67.2338 169.174,-56.7011 162.855,-59.7144"/>
<text text-anchor="middle" x="178" y="-41" font-family="Helvetica,sans-Serif" font-size="10.00"> passed</text>
</g>
</g>
</svg>
