<?xml version="1.0" encoding="UTF-8" standalone="no"?>
<!DOCTYPE svg PUBLIC "-//W3C//DTD SVG 1.1//EN"
 "http://www.w3.org/Graphics/SVG/1.1/DTD/svg11.dtd">
<!-- Generated by graphviz version 2.38.0 (20140413.2041)
 -->
<!-- Title: boca::branch::Base Pages: 1 -->
<svg width="1195pt" height="997pt"
 viewBox="0.00 0.00 1195.00 996.50" xmlns="http://www.w3.org/2000/svg" xmlns:xlink="http://www.w3.org/1999/xlink">
<g id="graph0" class="graph" transform="scale(1 1) rotate(0) translate(4 992.5)">
<title>boca::branch::Base</title>
<polygon fill="white" stroke="none" points="-4,4 -4,-992.5 1191,-992.5 1191,4 -4,4"/>
<!-- Node1 -->
<g id="node1" class="node"><title>Node1</title>
<polygon fill="#bfbfbf" stroke="black" points="87,-206.5 87,-225.5 188,-225.5 188,-206.5 87,-206.5"/>
<text text-anchor="middle" x="137.5" y="-213.5" font-family="Helvetica,sans-Serif" font-size="10.00">boca::branch::Base</text>
</g>
<!-- Node3 -->
<g id="node3" class="node"><title>Node3</title>
<g id="a_node3"><a xlink:href="classboca_1_1branch_1_1Info.html" target="_top" xlink:title="Info tree branch ">
<polygon fill="white" stroke="black" points="230,-225.5 230,-244.5 325,-244.5 325,-225.5 230,-225.5"/>
<text text-anchor="middle" x="277.5" y="-232.5" font-family="Helvetica,sans-Serif" font-size="10.00">boca::branch::Info</text>
</a>
</g>
</g>
<!-- Node1&#45;&gt;Node3 -->
<g id="edge2" class="edge"><title>Node1&#45;&gt;Node3</title>
<path fill="none" stroke="midnightblue" d="M198.35,-224.24C208.938,-225.698 219.819,-227.196 229.972,-228.594"/>
<polygon fill="midnightblue" stroke="midnightblue" points="198.705,-220.756 188.321,-222.859 197.75,-227.691 198.705,-220.756"/>
</g>
<!-- Node4 -->
<g id="node4" class="node"><title>Node4</title>
<g id="a_node4"><a xlink:href="classboca_1_1branch_1_1Result.html" target="_top" xlink:title="Result tree branch ">
<polygon fill="white" stroke="black" points="224,-187.5 224,-206.5 331,-206.5 331,-187.5 224,-187.5"/>
<text text-anchor="middle" x="277.5" y="-194.5" font-family="Helvetica,sans-Serif" font-size="10.00">boca::branch::Result</text>
</a>
</g>
</g>
<!-- Node1&#45;&gt;Node4 -->
<g id="edge3" class="edge"><title>Node1&#45;&gt;Node4</title>
<path fill="none" stroke="midnightblue" d="M198.246,-207.774C206.803,-206.596 215.554,-205.391 223.959,-204.234"/>
<polygon fill="midnightblue" stroke="midnightblue" points="197.75,-204.309 188.321,-209.141 198.705,-211.244 197.75,-204.309"/>
</g>
<!-- Node2 -->
<g id="node2" class="node"><title>Node2</title>
<polygon fill="white" stroke="#bfbfbf" points="0,-206.5 0,-225.5 51,-225.5 51,-206.5 0,-206.5"/>
<text text-anchor="middle" x="25.5" y="-213.5" font-family="Helvetica,sans-Serif" font-size="10.00">TObject</text>
</g>
<!-- Node2&#45;&gt;Node1 -->
<g id="edge1" class="edge"><title>Node2&#45;&gt;Node1</title>
<path fill="none" stroke="midnightblue" d="M61.3255,-216C69.3862,-216 78.118,-216 86.6809,-216"/>
<polygon fill="midnightblue" stroke="midnightblue" points="61.1862,-212.5 51.1861,-216 61.1861,-219.5 61.1862,-212.5"/>
</g>
<!-- Node5 -->
<g id="node5" class="node"><title>Node5</title>
<g id="a_node5"><a xlink:href="classboca_1_1branch_1_1Bdt.html" target="_top" xlink:title="Bdt base tree branch ">
<polygon fill="white" stroke="black" points="378,-313.5 378,-332.5 472,-332.5 472,-313.5 378,-313.5"/>
<text text-anchor="middle" x="425" y="-320.5" font-family="Helvetica,sans-Serif" font-size="10.00">boca::branch::Bdt</text>
</a>
</g>
</g>
<!-- Node4&#45;&gt;Node5 -->
<g id="edge4" class="edge"><title>Node4&#45;&gt;Node5</title>
<path fill="none" stroke="midnightblue" d="M321.915,-210.662C325.089,-212.274 328.156,-214.049 331,-216 371.186,-243.567 404.842,-292.499 418.03,-313.257"/>
<polygon fill="midnightblue" stroke="midnightblue" points="323.34,-207.466 312.785,-206.547 320.464,-213.847 323.34,-207.466"/>
</g>
<!-- Node46 -->
<g id="node46" class="node"><title>Node46</title>
<g id="a_node46"><a xlink:href="classboca_1_1branch_1_1Cut.html" target="_top" xlink:title="Cut base tree branch ">
<polygon fill="white" stroke="black" points="377.5,-187.5 377.5,-206.5 472.5,-206.5 472.5,-187.5 377.5,-187.5"/>
<text text-anchor="middle" x="425" y="-194.5" font-family="Helvetica,sans-Serif" font-size="10.00">boca::branch::Cut</text>
</a>
</g>
</g>
<!-- Node4&#45;&gt;Node46 -->
<g id="edge45" class="edge"><title>Node4&#45;&gt;Node46</title>
<path fill="none" stroke="midnightblue" d="M341.116,-197C353.269,-197 365.807,-197 377.337,-197"/>
<polygon fill="midnightblue" stroke="midnightblue" points="341.029,-193.5 331.029,-197 341.029,-200.5 341.029,-193.5"/>
</g>
<!-- Node49 -->
<g id="node49" class="node"><title>Node49</title>
<g id="a_node49"><a xlink:href="classstandardmodel_1_1branch_1_1Truth.html" target="_top" xlink:title="Truth tagger tree branch ">
<polygon fill="white" stroke="black" points="367,-138 367,-168 483,-168 483,-138 367,-138"/>
<text text-anchor="start" x="375" y="-156" font-family="Helvetica,sans-Serif" font-size="10.00">standardmodel::branch</text>
<text text-anchor="middle" x="425" y="-145" font-family="Helvetica,sans-Serif" font-size="10.00">::Truth</text>
</a>
</g>
</g>
<!-- Node4&#45;&gt;Node49 -->
<g id="edge48" class="edge"><title>Node4&#45;&gt;Node49</title>
<path fill="none" stroke="midnightblue" d="M319.687,-184.545C336.638,-179.419 356.425,-173.435 374.182,-168.065"/>
<polygon fill="midnightblue" stroke="midnightblue" points="318.63,-181.208 310.071,-187.453 320.656,-187.908 318.63,-181.208"/>
</g>
<!-- Node6 -->
<g id="node6" class="node"><title>Node6</title>
<g id="a_node6"><a xlink:href="classboca_1_1branch_1_1Event.html" target="_top" xlink:title="Event tree branch ">
<polygon fill="white" stroke="black" points="528.5,-816.5 528.5,-835.5 632.5,-835.5 632.5,-816.5 528.5,-816.5"/>
<text text-anchor="middle" x="580.5" y="-823.5" font-family="Helvetica,sans-Serif" font-size="10.00">boca::branch::Event</text>
</a>
</g>
</g>
<!-- Node5&#45;&gt;Node6 -->
<g id="edge5" class="edge"><title>Node5&#45;&gt;Node6</title>
<path fill="none" stroke="midnightblue" d="M431.901,-342.337C457.436,-426.013 557.964,-755.43 576.54,-816.3"/>
<polygon fill="midnightblue" stroke="midnightblue" points="435.196,-341.142 428.929,-332.599 428.501,-343.185 435.196,-341.142"/>
</g>
<!-- Node13 -->
<g id="node13" class="node"><title>Node13</title>
<g id="a_node13"><a xlink:href="classboca_1_1branch_1_1Global.html" target="_top" xlink:title="Global tree branch ">
<polygon fill="white" stroke="black" points="527,-389.5 527,-408.5 634,-408.5 634,-389.5 527,-389.5"/>
<text text-anchor="middle" x="580.5" y="-396.5" font-family="Helvetica,sans-Serif" font-size="10.00">boca::branch::Global</text>
</a>
</g>
</g>
<!-- Node5&#45;&gt;Node13 -->
<g id="edge12" class="edge"><title>Node5&#45;&gt;Node13</title>
<path fill="none" stroke="midnightblue" d="M447.504,-338.29C465.832,-350.797 493.226,-368.271 519,-380 526.916,-383.603 535.708,-386.791 544.081,-389.478"/>
<polygon fill="midnightblue" stroke="midnightblue" points="449.495,-335.412 439.281,-332.597 445.511,-341.167 449.495,-335.412"/>
</g>
<!-- Node14 -->
<g id="node14" class="node"><title>Node14</title>
<g id="a_node14"><a xlink:href="classboca_1_1branch_1_1Particle.html" target="_top" xlink:title="Particle tree branch ">
<polygon fill="white" stroke="black" points="524.5,-351.5 524.5,-370.5 636.5,-370.5 636.5,-351.5 524.5,-351.5"/>
<text text-anchor="middle" x="580.5" y="-358.5" font-family="Helvetica,sans-Serif" font-size="10.00">boca::branch::Particle</text>
</a>
</g>
</g>
<!-- Node5&#45;&gt;Node14 -->
<g id="edge13" class="edge"><title>Node5&#45;&gt;Node14</title>
<path fill="none" stroke="midnightblue" d="M474.635,-335.04C496.08,-340.349 520.923,-346.499 541.044,-351.48"/>
<polygon fill="midnightblue" stroke="midnightblue" points="475.283,-331.595 464.735,-332.589 473.6,-338.39 475.283,-331.595"/>
</g>
<!-- Node43 -->
<g id="node43" class="node"><title>Node43</title>
<g id="a_node43"><a xlink:href="classsimple_1_1Branch.html" target="_top" xlink:title="simple::Branch">
<polygon fill="white" stroke="black" points="539.5,-313.5 539.5,-332.5 621.5,-332.5 621.5,-313.5 539.5,-313.5"/>
<text text-anchor="middle" x="580.5" y="-320.5" font-family="Helvetica,sans-Serif" font-size="10.00">simple::Branch</text>
</a>
</g>
</g>
<!-- Node5&#45;&gt;Node43 -->
<g id="edge42" class="edge"><title>Node5&#45;&gt;Node43</title>
<path fill="none" stroke="midnightblue" d="M482.099,-323C501.113,-323 521.953,-323 539.459,-323"/>
<polygon fill="midnightblue" stroke="midnightblue" points="482.055,-319.5 472.055,-323 482.055,-326.5 482.055,-319.5"/>
</g>
<!-- Node44 -->
<g id="node44" class="node"><title>Node44</title>
<g id="a_node44"><a xlink:href="classtoppartner_1_1branch_1_1Truth.html" target="_top" xlink:title="Top tagger root tree structure. ">
<polygon fill="white" stroke="black" points="533,-264 533,-294 628,-294 628,-264 533,-264"/>
<text text-anchor="start" x="541" y="-282" font-family="Helvetica,sans-Serif" font-size="10.00">toppartner::branch</text>
<text text-anchor="middle" x="580.5" y="-271" font-family="Helvetica,sans-Serif" font-size="10.00">::Truth</text>
</a>
</g>
</g>
<!-- Node5&#45;&gt;Node44 -->
<g id="edge43" class="edge"><title>Node5&#45;&gt;Node44</title>
<path fill="none" stroke="midnightblue" d="M469.027,-310.666C488.909,-304.968 512.558,-298.188 532.865,-292.368"/>
<polygon fill="midnightblue" stroke="midnightblue" points="467.956,-307.333 459.307,-313.453 469.885,-314.062 467.956,-307.333"/>
</g>
<!-- Node45 -->
<g id="node45" class="node"><title>Node45</title>
<g id="a_node45"><a xlink:href="classtthh_1_1branch_1_1Global.html" target="_top" xlink:title="tthh::branch::Global">
<polygon fill="white" stroke="black" points="529.5,-225.5 529.5,-244.5 631.5,-244.5 631.5,-225.5 529.5,-225.5"/>
<text text-anchor="middle" x="580.5" y="-232.5" font-family="Helvetica,sans-Serif" font-size="10.00">tthh::branch::Global</text>
</a>
</g>
</g>
<!-- Node5&#45;&gt;Node45 -->
<g id="edge44" class="edge"><title>Node5&#45;&gt;Node45</title>
<path fill="none" stroke="midnightblue" d="M444.259,-306.532C462.173,-291.113 490.83,-268.356 519,-254 526.259,-250.301 534.376,-247.153 542.249,-244.546"/>
<polygon fill="midnightblue" stroke="midnightblue" points="441.589,-304.219 436.377,-313.443 446.204,-309.482 441.589,-304.219"/>
</g>
<!-- Node7 -->
<g id="node7" class="node"><title>Node7</title>
<g id="a_node7"><a xlink:href="classheavyhiggs_1_1branch_1_1EventCharged.html" target="_top" xlink:title="Higgs cpv tagger root tree structure. ">
<polygon fill="white" stroke="black" points="696.5,-958 696.5,-988 797.5,-988 797.5,-958 696.5,-958"/>
<text text-anchor="start" x="704.5" y="-976" font-family="Helvetica,sans-Serif" font-size="10.00">heavyhiggs::branch</text>
<text text-anchor="middle" x="747" y="-965" font-family="Helvetica,sans-Serif" font-size="10.00">::EventCharged</text>
</a>
</g>
</g>
<!-- Node6&#45;&gt;Node7 -->
<g id="edge6" class="edge"><title>Node6&#45;&gt;Node7</title>
<path fill="none" stroke="midnightblue" d="M591.784,-844.723C607.23,-871.23 638.828,-919.622 678,-948 683.602,-952.059 689.936,-955.527 696.429,-958.472"/>
<polygon fill="midnightblue" stroke="midnightblue" points="594.655,-842.69 586.673,-835.723 588.568,-846.147 594.655,-842.69"/>
</g>
<!-- Node8 -->
<g id="node8" class="node"><title>Node8</title>
<g id="a_node8"><a xlink:href="classheavyhiggs_1_1branch_1_1EventFusion.html" target="_top" xlink:title="Higgs cpv tagger root tree structure. ">
<polygon fill="white" stroke="black" points="696.5,-909 696.5,-939 797.5,-939 797.5,-909 696.5,-909"/>
<text text-anchor="start" x="704.5" y="-927" font-family="Helvetica,sans-Serif" font-size="10.00">heavyhiggs::branch</text>
<text text-anchor="middle" x="747" y="-916" font-family="Helvetica,sans-Serif" font-size="10.00">::EventFusion</text>
</a>
</g>
</g>
<!-- Node6&#45;&gt;Node8 -->
<g id="edge7" class="edge"><title>Node6&#45;&gt;Node8</title>
<path fill="none" stroke="midnightblue" d="M599.742,-842.432C618.348,-858.533 648.583,-882.931 678,-899 684.733,-902.678 692.119,-906.023 699.463,-908.984"/>
<polygon fill="midnightblue" stroke="midnightblue" points="601.878,-839.65 592.056,-835.678 597.257,-844.908 601.878,-839.65"/>
</g>
<!-- Node9 -->
<g id="node9" class="node"><title>Node9</title>
<g id="a_node9"><a xlink:href="classheavyhiggs_1_1branch_1_1EventNeutral.html" target="_top" xlink:title="Higgs cpv tagger root tree structure. ">
<polygon fill="white" stroke="black" points="696.5,-860 696.5,-890 797.5,-890 797.5,-860 696.5,-860"/>
<text text-anchor="start" x="704.5" y="-878" font-family="Helvetica,sans-Serif" font-size="10.00">heavyhiggs::branch</text>
<text text-anchor="middle" x="747" y="-867" font-family="Helvetica,sans-Serif" font-size="10.00">::EventNeutral</text>
</a>
</g>
</g>
<!-- Node6&#45;&gt;Node9 -->
<g id="edge8" class="edge"><title>Node6&#45;&gt;Node9</title>
<path fill="none" stroke="midnightblue" d="M623.432,-838.49C645.689,-845.12 673.179,-853.309 696.481,-860.25"/>
<polygon fill="midnightblue" stroke="midnightblue" points="624.191,-835.064 613.608,-835.564 622.192,-841.773 624.191,-835.064"/>
</g>
<!-- Node10 -->
<g id="node10" class="node"><title>Node10</title>
<g id="a_node10"><a xlink:href="classheavyhiggs_1_1branch_1_1EventNeutralFourTop.html" target="_top" xlink:title="heavyhiggs::branch\l::EventNeutralFourTop">
<polygon fill="white" stroke="black" points="689,-811 689,-841 805,-841 805,-811 689,-811"/>
<text text-anchor="start" x="697" y="-829" font-family="Helvetica,sans-Serif" font-size="10.00">heavyhiggs::branch</text>
<text text-anchor="middle" x="747" y="-818" font-family="Helvetica,sans-Serif" font-size="10.00">::EventNeutralFourTop</text>
</a>
</g>
</g>
<!-- Node6&#45;&gt;Node10 -->
<g id="edge9" class="edge"><title>Node6&#45;&gt;Node10</title>
<path fill="none" stroke="midnightblue" d="M642.888,-826C657.95,-826 674.012,-826 688.864,-826"/>
<polygon fill="midnightblue" stroke="midnightblue" points="642.647,-822.5 632.647,-826 642.647,-829.5 642.647,-822.5"/>
</g>
<!-- Node11 -->
<g id="node11" class="node"><title>Node11</title>
<g id="a_node11"><a xlink:href="classhiggscpv_1_1branch_1_1Event.html" target="_top" xlink:title="Higgs cpv tagger root tree structure. ">
<polygon fill="white" stroke="black" points="686,-772.5 686,-791.5 808,-791.5 808,-772.5 686,-772.5"/>
<text text-anchor="middle" x="747" y="-779.5" font-family="Helvetica,sans-Serif" font-size="10.00">higgscpv::branch::Event</text>
</a>
</g>
</g>
<!-- Node6&#45;&gt;Node11 -->
<g id="edge10" class="edge"><title>Node6&#45;&gt;Node11</title>
<path fill="none" stroke="midnightblue" d="M626.942,-813.845C653.265,-806.805 685.925,-798.069 710.376,-791.529"/>
<polygon fill="midnightblue" stroke="midnightblue" points="625.95,-810.488 617.194,-816.453 627.759,-817.25 625.95,-810.488"/>
</g>
<!-- Node12 -->
<g id="node12" class="node"><title>Node12</title>
<g id="a_node12"><a xlink:href="classtoppartner_1_1branch_1_1Event.html" target="_top" xlink:title="Class for saving event informations to root. ">
<polygon fill="white" stroke="black" points="699.5,-723 699.5,-753 794.5,-753 794.5,-723 699.5,-723"/>
<text text-anchor="start" x="707.5" y="-741" font-family="Helvetica,sans-Serif" font-size="10.00">toppartner::branch</text>
<text text-anchor="middle" x="747" y="-730" font-family="Helvetica,sans-Serif" font-size="10.00">::Event</text>
</a>
</g>
</g>
<!-- Node6&#45;&gt;Node12 -->
<g id="edge11" class="edge"><title>Node6&#45;&gt;Node12</title>
<path fill="none" stroke="midnightblue" d="M602.261,-810.46C621.264,-796.729 650.525,-776.796 678,-763 685.082,-759.444 692.796,-756.124 700.403,-753.14"/>
<polygon fill="midnightblue" stroke="midnightblue" points="600.055,-807.738 594.053,-816.469 604.189,-813.387 600.055,-807.738"/>
</g>
<!-- Node15 -->
<g id="node15" class="node"><title>Node15</title>
<g id="a_node15"><a xlink:href="classboca_1_1branch_1_1ThreeBody.html" target="_top" xlink:title="Three body tree branch. ">
<polygon fill="white" stroke="black" points="684,-684.5 684,-703.5 810,-703.5 810,-684.5 684,-684.5"/>
<text text-anchor="middle" x="747" y="-691.5" font-family="Helvetica,sans-Serif" font-size="10.00">boca::branch::ThreeBody</text>
</a>
</g>
</g>
<!-- Node14&#45;&gt;Node15 -->
<g id="edge14" class="edge"><title>Node14&#45;&gt;Node15</title>
<path fill="none" stroke="midnightblue" d="M637.284,-375.978C638.949,-377.214 640.529,-378.552 642,-380 733.458,-470.047 744.492,-642.198 745.819,-684.457"/>
<polygon fill="midnightblue" stroke="midnightblue" points="638.731,-372.764 628.358,-370.607 635.122,-378.761 638.731,-372.764"/>
</g>
<!-- Node24 -->
<g id="node24" class="node"><title>Node24</title>
<g id="a_node24"><a xlink:href="classboca_1_1branch_1_1TwoBody.html" target="_top" xlink:title="Two body tree branch. ">
<polygon fill="white" stroke="black" points="687,-351.5 687,-370.5 807,-370.5 807,-351.5 687,-351.5"/>
<text text-anchor="middle" x="747" y="-358.5" font-family="Helvetica,sans-Serif" font-size="10.00">boca::branch::TwoBody</text>
</a>
</g>
</g>
<!-- Node14&#45;&gt;Node24 -->
<g id="edge23" class="edge"><title>Node14&#45;&gt;Node24</title>
<path fill="none" stroke="midnightblue" d="M646.743,-361C660.021,-361 673.917,-361 686.965,-361"/>
<polygon fill="midnightblue" stroke="midnightblue" points="646.734,-357.5 636.734,-361 646.734,-364.5 646.734,-357.5"/>
</g>
<!-- Node41 -->
<g id="node41" class="node"><title>Node41</title>
<g id="a_node41"><a xlink:href="classstandardmodel_1_1branch_1_1Bottom.html" target="_top" xlink:title="Bottom tagger tree branch ">
<polygon fill="white" stroke="black" points="689,-302 689,-332 805,-332 805,-302 689,-302"/>
<text text-anchor="start" x="697" y="-320" font-family="Helvetica,sans-Serif" font-size="10.00">standardmodel::branch</text>
<text text-anchor="middle" x="747" y="-309" font-family="Helvetica,sans-Serif" font-size="10.00">::Bottom</text>
</a>
</g>
</g>
<!-- Node14&#45;&gt;Node41 -->
<g id="edge40" class="edge"><title>Node14&#45;&gt;Node41</title>
<path fill="none" stroke="midnightblue" d="M626.994,-348.831C646.393,-343.643 669.226,-337.535 689.676,-332.065"/>
<polygon fill="midnightblue" stroke="midnightblue" points="625.95,-345.488 617.194,-351.453 627.759,-352.25 625.95,-345.488"/>
</g>
<!-- Node42 -->
<g id="node42" class="node"><title>Node42</title>
<g id="a_node42"><a xlink:href="classstandardmodel_1_1branch_1_1Tau.html" target="_top" xlink:title="Tau tagger tree branch ">
<polygon fill="white" stroke="black" points="678,-263.5 678,-282.5 816,-282.5 816,-263.5 678,-263.5"/>
<text text-anchor="middle" x="747" y="-270.5" font-family="Helvetica,sans-Serif" font-size="10.00">standardmodel::branch::Tau</text>
</a>
</g>
</g>
<!-- Node14&#45;&gt;Node42 -->
<g id="edge41" class="edge"><title>Node14&#45;&gt;Node42</title>
<path fill="none" stroke="midnightblue" d="M633.442,-347.243C636.442,-345.675 639.323,-343.934 642,-342 664.198,-325.966 655.55,-307.678 678,-292 683.527,-288.14 689.818,-285.062 696.29,-282.607"/>
<polygon fill="midnightblue" stroke="midnightblue" points="631.835,-344.129 624.171,-351.443 634.724,-350.505 631.835,-344.129"/>
</g>
<!-- Node16 -->
<g id="node16" class="node"><title>Node16</title>
<g id="a_node16"><a xlink:href="classboca_1_1branch_1_1Signature.html" target="_top" xlink:title="Signature tree branch ">
<polygon fill="white" stroke="black" points="872.5,-794.5 872.5,-813.5 992.5,-813.5 992.5,-794.5 872.5,-794.5"/>
<text text-anchor="middle" x="932.5" y="-801.5" font-family="Helvetica,sans-Serif" font-size="10.00">boca::branch::Signature</text>
</a>
</g>
</g>
<!-- Node15&#45;&gt;Node16 -->
<g id="edge15" class="edge"><title>Node15&#45;&gt;Node16</title>
<path fill="none" stroke="midnightblue" d="M809.369,-708.371C811.694,-709.773 813.917,-711.311 816,-713 842.87,-734.782 825.103,-760.252 852,-782 858.57,-787.312 866.335,-791.345 874.394,-794.405"/>
<polygon fill="midnightblue" stroke="midnightblue" points="810.484,-705.012 799.983,-703.612 807.319,-711.256 810.484,-705.012"/>
</g>
<!-- Node19 -->
<g id="node19" class="node"><title>Node19</title>
<g id="a_node19"><a xlink:href="classhiggscpv_1_1branch_1_1SignatureT.html" target="_top" xlink:title="Higgs cpv tagger root tree structure. ">
<polygon fill="white" stroke="black" points="860.5,-753.5 860.5,-772.5 1004.5,-772.5 1004.5,-753.5 860.5,-753.5"/>
<text text-anchor="middle" x="932.5" y="-760.5" font-family="Helvetica,sans-Serif" font-size="10.00">higgscpv::branch::SignatureT</text>
</a>
</g>
</g>
<!-- Node15&#45;&gt;Node19 -->
<g id="edge18" class="edge"><title>Node15&#45;&gt;Node19</title>
<path fill="none" stroke="midnightblue" d="M802.345,-706.914C807.065,-708.711 811.683,-710.733 816,-713 834.439,-722.684 833.437,-733.556 852,-743 860.499,-747.324 869.995,-750.754 879.383,-753.463"/>
<polygon fill="midnightblue" stroke="midnightblue" points="803.17,-703.496 792.576,-703.533 800.881,-710.111 803.17,-703.496"/>
</g>
<!-- Node21 -->
<g id="node21" class="node"><title>Node21</title>
<g id="a_node21"><a xlink:href="classtoppartner_1_1branch_1_1SignatureEffectiveBranch.html" target="_top" xlink:title="toppartner::branch\l::SignatureEffectiveBranch">
<polygon fill="white" stroke="black" points="865.5,-704 865.5,-734 999.5,-734 999.5,-704 865.5,-704"/>
<text text-anchor="start" x="873.5" y="-722" font-family="Helvetica,sans-Serif" font-size="10.00">toppartner::branch</text>
<text text-anchor="middle" x="932.5" y="-711" font-family="Helvetica,sans-Serif" font-size="10.00">::SignatureEffectiveBranch</text>
</a>
</g>
</g>
<!-- Node15&#45;&gt;Node21 -->
<g id="edge20" class="edge"><title>Node15&#45;&gt;Node21</title>
<path fill="none" stroke="midnightblue" d="M820.281,-703.848C835.145,-705.873 850.724,-707.995 865.358,-709.989"/>
<polygon fill="midnightblue" stroke="midnightblue" points="820.506,-700.346 810.125,-702.464 819.561,-707.282 820.506,-700.346"/>
</g>
<!-- Node22 -->
<g id="node22" class="node"><title>Node22</title>
<g id="a_node22"><a xlink:href="classtoppartner_1_1branch_1_1SignatureSingleHadronicBranch.html" target="_top" xlink:title="toppartner::branch\l::SignatureSingleHadronicBranch">
<polygon fill="white" stroke="black" points="852,-655 852,-685 1013,-685 1013,-655 852,-655"/>
<text text-anchor="start" x="860" y="-673" font-family="Helvetica,sans-Serif" font-size="10.00">toppartner::branch</text>
<text text-anchor="middle" x="932.5" y="-662" font-family="Helvetica,sans-Serif" font-size="10.00">::SignatureSingleHadronicBranch</text>
</a>
</g>
</g>
<!-- Node15&#45;&gt;Node22 -->
<g id="edge21" class="edge"><title>Node15&#45;&gt;Node22</title>
<path fill="none" stroke="midnightblue" d="M820.341,-684.539C830.693,-683.185 841.39,-681.785 851.873,-680.414"/>
<polygon fill="midnightblue" stroke="midnightblue" points="819.586,-681.107 810.125,-685.875 820.494,-688.048 819.586,-681.107"/>
</g>
<!-- Node17 -->
<g id="node17" class="node"><title>Node17</title>
<g id="a_node17"><a xlink:href="classtoppartner_1_1branch_1_1SignatureSingle.html" target="_top" xlink:title="toppartner::branch\l::SignatureSingle">
<polygon fill="white" stroke="black" points="1070.5,-833 1070.5,-863 1165.5,-863 1165.5,-833 1070.5,-833"/>
<text text-anchor="start" x="1078.5" y="-851" font-family="Helvetica,sans-Serif" font-size="10.00">toppartner::branch</text>
<text text-anchor="middle" x="1118" y="-840" font-family="Helvetica,sans-Serif" font-size="10.00">::SignatureSingle</text>
</a>
</g>
</g>
<!-- Node16&#45;&gt;Node17 -->
<g id="edge16" class="edge"><title>Node16&#45;&gt;Node17</title>
<path fill="none" stroke="midnightblue" d="M983.383,-815.961C1010.51,-822.466 1043.86,-830.462 1070.45,-836.839"/>
<polygon fill="midnightblue" stroke="midnightblue" points="983.857,-812.476 973.317,-813.547 982.225,-819.283 983.857,-812.476"/>
</g>
<!-- Node18 -->
<g id="node18" class="node"><title>Node18</title>
<g id="a_node18"><a xlink:href="classtthh_1_1branch_1_1Signature.html" target="_top" xlink:title="tthh::branch::Signature">
<polygon fill="white" stroke="black" points="1060,-794.5 1060,-813.5 1176,-813.5 1176,-794.5 1060,-794.5"/>
<text text-anchor="middle" x="1118" y="-801.5" font-family="Helvetica,sans-Serif" font-size="10.00">tthh::branch::Signature</text>
</a>
</g>
</g>
<!-- Node16&#45;&gt;Node18 -->
<g id="edge17" class="edge"><title>Node16&#45;&gt;Node18</title>
<path fill="none" stroke="midnightblue" d="M1002.61,-804C1021.51,-804 1041.77,-804 1059.92,-804"/>
<polygon fill="midnightblue" stroke="midnightblue" points="1002.57,-800.5 992.571,-804 1002.57,-807.5 1002.57,-800.5"/>
</g>
<!-- Node20 -->
<g id="node20" class="node"><title>Node20</title>
<g id="a_node20"><a xlink:href="classhiggscpv_1_1branch_1_1SignatureLeptonT.html" target="_top" xlink:title="higgscpv::branch::Signature\lLeptonT">
<polygon fill="white" stroke="black" points="1049,-745 1049,-775 1187,-775 1187,-745 1049,-745"/>
<text text-anchor="start" x="1057" y="-763" font-family="Helvetica,sans-Serif" font-size="10.00">higgscpv::branch::Signature</text>
<text text-anchor="middle" x="1118" y="-752" font-family="Helvetica,sans-Serif" font-size="10.00">LeptonT</text>
</a>
</g>
</g>
<!-- Node19&#45;&gt;Node20 -->
<g id="edge19" class="edge"><title>Node19&#45;&gt;Node20</title>
<path fill="none" stroke="midnightblue" d="M1015.01,-761.667C1026.31,-761.483 1037.82,-761.295 1048.84,-761.114"/>
<polygon fill="midnightblue" stroke="midnightblue" points="1014.65,-758.173 1004.71,-761.836 1014.76,-765.172 1014.65,-758.173"/>
</g>
<!-- Node23 -->
<g id="node23" class="node"><title>Node23</title>
<g id="a_node23"><a xlink:href="classtoppartner_1_1branch_1_1Complete.html" target="_top" xlink:title="Class for saving event informations to root. ">
<polygon fill="white" stroke="black" points="1070.5,-660 1070.5,-690 1165.5,-690 1165.5,-660 1070.5,-660"/>
<text text-anchor="start" x="1078.5" y="-678" font-family="Helvetica,sans-Serif" font-size="10.00">toppartner::branch</text>
<text text-anchor="middle" x="1118" y="-667" font-family="Helvetica,sans-Serif" font-size="10.00">::Complete</text>
</a>
</g>
</g>
<!-- Node22&#45;&gt;Node23 -->
<g id="edge22" class="edge"><title>Node22&#45;&gt;Node23</title>
<path fill="none" stroke="midnightblue" d="M1023.31,-672.447C1039.61,-672.891 1055.99,-673.338 1070.4,-673.73"/>
<polygon fill="midnightblue" stroke="midnightblue" points="1023.28,-668.945 1013.19,-672.171 1023.09,-675.942 1023.28,-668.945"/>
</g>
<!-- Node25 -->
<g id="node25" class="node"><title>Node25</title>
<g id="a_node25"><a xlink:href="classboca_1_1branch_1_1Multi.html" target="_top" xlink:title="Multi obejct tree branch ">
<polygon fill="white" stroke="red" points="882.5,-616.5 882.5,-635.5 982.5,-635.5 982.5,-616.5 882.5,-616.5"/>
<text text-anchor="middle" x="932.5" y="-623.5" font-family="Helvetica,sans-Serif" font-size="10.00">boca::branch::Multi</text>
</a>
</g>
</g>
<!-- Node24&#45;&gt;Node25 -->
<g id="edge24" class="edge"><title>Node24&#45;&gt;Node25</title>
<path fill="none" stroke="midnightblue" d="M750.432,-380.782C757.256,-427.482 780.975,-545.21 852,-606 860.542,-613.311 871.383,-618.014 882.29,-621.023"/>
<polygon fill="midnightblue" stroke="midnightblue" points="753.884,-380.189 749.071,-370.751 746.947,-381.13 753.884,-380.189"/>
</g>
<!-- Node28 -->
<g id="node28" class="node"><title>Node28</title>
<g id="a_node28"><a xlink:href="classheavyhiggs_1_1branch_1_1HeavyHiggsLeptonic.html" target="_top" xlink:title="Higgs tagger root tree structure. ">
<polygon fill="white" stroke="black" points="876,-567 876,-597 989,-597 989,-567 876,-567"/>
<text text-anchor="start" x="884" y="-585" font-family="Helvetica,sans-Serif" font-size="10.00">heavyhiggs::branch</text>
<text text-anchor="middle" x="932.5" y="-574" font-family="Helvetica,sans-Serif" font-size="10.00">::HeavyHiggsLeptonic</text>
</a>
</g>
</g>
<!-- Node24&#45;&gt;Node28 -->
<g id="edge27" class="edge"><title>Node24&#45;&gt;Node28</title>
<path fill="none" stroke="midnightblue" d="M752.961,-380.531C763.948,-419.832 794.069,-508.815 852,-557 858.897,-562.736 867.116,-567.161 875.612,-570.572"/>
<polygon fill="midnightblue" stroke="midnightblue" points="756.332,-379.591 750.362,-370.839 749.571,-381.404 756.332,-379.591"/>
</g>
<!-- Node29 -->
<g id="node29" class="node"><title>Node29</title>
<g id="a_node29"><a xlink:href="classheavyhiggs_1_1branch_1_1HeavyHiggsTau.html" target="_top" xlink:title="Top tagger root tree structure. ">
<polygon fill="white" stroke="black" points="882,-518 882,-548 983,-548 983,-518 882,-518"/>
<text text-anchor="start" x="890" y="-536" font-family="Helvetica,sans-Serif" font-size="10.00">heavyhiggs::branch</text>
<text text-anchor="middle" x="932.5" y="-525" font-family="Helvetica,sans-Serif" font-size="10.00">::HeavyHiggsTau</text>
</a>
</g>
</g>
<!-- Node24&#45;&gt;Node29 -->
<g id="edge28" class="edge"><title>Node24&#45;&gt;Node29</title>
<path fill="none" stroke="midnightblue" d="M756.327,-379.838C771.086,-411.084 804.79,-473.588 852,-508 860.769,-514.392 871.223,-519.184 881.623,-522.766"/>
<polygon fill="midnightblue" stroke="midnightblue" points="759.406,-378.157 752.056,-370.526 753.043,-381.075 759.406,-378.157"/>
</g>
<!-- Node30 -->
<g id="node30" class="node"><title>Node30</title>
<g id="a_node30"><a xlink:href="classheavyhiggs_1_1branch_1_1JetPair.html" target="_top" xlink:title="Higgs tagger root tree structure. ">
<polygon fill="white" stroke="black" points="882,-469 882,-499 983,-499 983,-469 882,-469"/>
<text text-anchor="start" x="890" y="-487" font-family="Helvetica,sans-Serif" font-size="10.00">heavyhiggs::branch</text>
<text text-anchor="middle" x="932.5" y="-476" font-family="Helvetica,sans-Serif" font-size="10.00">::JetPair</text>
</a>
</g>
</g>
<!-- Node24&#45;&gt;Node30 -->
<g id="edge29" class="edge"><title>Node24&#45;&gt;Node30</title>
<path fill="none" stroke="midnightblue" d="M762.021,-378.368C780.483,-400.158 814.966,-437.292 852,-459 861.112,-464.341 871.492,-468.669 881.675,-472.127"/>
<polygon fill="midnightblue" stroke="midnightblue" points="764.629,-376.031 755.548,-370.574 759.245,-380.503 764.629,-376.031"/>
</g>
<!-- Node31 -->
<g id="node31" class="node"><title>Node31</title>
<g id="a_node31"><a xlink:href="classheavyhiggs_1_1branch_1_1TripletJetPair.html" target="_top" xlink:title="Higgs tagger root tree structure. ">
<polygon fill="white" stroke="black" points="882,-420 882,-450 983,-450 983,-420 882,-420"/>
<text text-anchor="start" x="890" y="-438" font-family="Helvetica,sans-Serif" font-size="10.00">heavyhiggs::branch</text>
<text text-anchor="middle" x="932.5" y="-427" font-family="Helvetica,sans-Serif" font-size="10.00">::TripletJetPair</text>
</a>
</g>
</g>
<!-- Node24&#45;&gt;Node31 -->
<g id="edge30" class="edge"><title>Node24&#45;&gt;Node31</title>
<path fill="none" stroke="midnightblue" d="M775.605,-375.264C796.309,-385.65 825.519,-399.653 852,-410 861.568,-413.739 871.944,-417.326 881.944,-420.559"/>
<polygon fill="midnightblue" stroke="midnightblue" points="776.956,-372.024 766.453,-370.629 773.794,-378.269 776.956,-372.024"/>
</g>
<!-- Node32 -->
<g id="node32" class="node"><title>Node32</title>
<g id="a_node32"><a xlink:href="classhiggscpv_1_1branch_1_1QuartetTwoBody.html" target="_top" xlink:title="Higgs tagger root tree structure. ">
<polygon fill="white" stroke="black" points="868,-371 868,-401 997,-401 997,-371 868,-371"/>
<text text-anchor="start" x="876" y="-389" font-family="Helvetica,sans-Serif" font-size="10.00">higgscpv::branch::Quartet</text>
<text text-anchor="middle" x="932.5" y="-378" font-family="Helvetica,sans-Serif" font-size="10.00">TwoBody</text>
</a>
</g>
</g>
<!-- Node24&#45;&gt;Node32 -->
<g id="edge31" class="edge"><title>Node24&#45;&gt;Node32</title>
<path fill="none" stroke="midnightblue" d="M817.242,-370.434C833.829,-372.693 851.462,-375.096 867.785,-377.32"/>
<polygon fill="midnightblue" stroke="midnightblue" points="817.452,-366.93 807.071,-369.048 816.507,-373.866 817.452,-366.93"/>
</g>
<!-- Node33 -->
<g id="node33" class="node"><title>Node33</title>
<g id="a_node33"><a xlink:href="classhiggscpv_1_1branch_1_1TripletTwoBody.html" target="_top" xlink:title="Higgs tagger root tree structure. ">
<polygon fill="white" stroke="black" points="870.5,-322 870.5,-352 994.5,-352 994.5,-322 870.5,-322"/>
<text text-anchor="start" x="878.5" y="-340" font-family="Helvetica,sans-Serif" font-size="10.00">higgscpv::branch::Triplet</text>
<text text-anchor="middle" x="932.5" y="-329" font-family="Helvetica,sans-Serif" font-size="10.00">TwoBody</text>
</a>
</g>
</g>
<!-- Node24&#45;&gt;Node33 -->
<g id="edge32" class="edge"><title>Node24&#45;&gt;Node33</title>
<path fill="none" stroke="midnightblue" d="M817.199,-351.949C834.665,-349.665 853.292,-347.229 870.331,-345"/>
<polygon fill="midnightblue" stroke="midnightblue" points="816.532,-348.507 807.071,-353.274 817.44,-355.448 816.532,-348.507"/>
</g>
<!-- Node34 -->
<g id="node34" class="node"><title>Node34</title>
<g id="a_node34"><a xlink:href="classstandardmodel_1_1branch_1_1Higgs.html" target="_top" xlink:title="Higgs tagger tree branch ">
<polygon fill="white" stroke="black" points="874.5,-273 874.5,-303 990.5,-303 990.5,-273 874.5,-273"/>
<text text-anchor="start" x="882.5" y="-291" font-family="Helvetica,sans-Serif" font-size="10.00">standardmodel::branch</text>
<text text-anchor="middle" x="932.5" y="-280" font-family="Helvetica,sans-Serif" font-size="10.00">::Higgs</text>
</a>
</g>
</g>
<!-- Node24&#45;&gt;Node34 -->
<g id="edge33" class="edge"><title>Node24&#45;&gt;Node34</title>
<path fill="none" stroke="midnightblue" d="M799.573,-348.191C805.245,-346.093 810.831,-343.705 816,-341 834.204,-331.474 833.83,-321.59 852,-312 859.013,-308.299 866.682,-305.08 874.401,-302.307"/>
<polygon fill="midnightblue" stroke="midnightblue" points="798.343,-344.912 790.005,-351.449 800.6,-351.538 798.343,-344.912"/>
</g>
<!-- Node35 -->
<g id="node35" class="node"><title>Node35</title>
<g id="a_node35"><a xlink:href="classstandardmodel_1_1branch_1_1TopLeptonic.html" target="_top" xlink:title="Top leptonic tagger tree branch. ">
<polygon fill="white" stroke="black" points="874.5,-224 874.5,-254 990.5,-254 990.5,-224 874.5,-224"/>
<text text-anchor="start" x="882.5" y="-242" font-family="Helvetica,sans-Serif" font-size="10.00">standardmodel::branch</text>
<text text-anchor="middle" x="932.5" y="-231" font-family="Helvetica,sans-Serif" font-size="10.00">::TopLeptonic</text>
</a>
</g>
</g>
<!-- Node24&#45;&gt;Node35 -->
<g id="edge34" class="edge"><title>Node24&#45;&gt;Node35</title>
<path fill="none" stroke="midnightblue" d="M807.853,-346.833C810.744,-345.107 813.485,-343.171 816,-341 844.9,-316.048 823.19,-288.055 852,-263 858.419,-257.418 866.101,-253.134 874.125,-249.847"/>
<polygon fill="midnightblue" stroke="midnightblue" points="806.151,-343.771 798.805,-351.406 809.308,-350.019 806.151,-343.771"/>
</g>
<!-- Node36 -->
<g id="node36" class="node"><title>Node36</title>
<g id="a_node36"><a xlink:href="classstandardmodel_1_1branch_1_1WHadronic.html" target="_top" xlink:title="W hadronic tagger tree branch. ">
<polygon fill="white" stroke="black" points="874.5,-175 874.5,-205 990.5,-205 990.5,-175 874.5,-175"/>
<text text-anchor="start" x="882.5" y="-193" font-family="Helvetica,sans-Serif" font-size="10.00">standardmodel::branch</text>
<text text-anchor="middle" x="932.5" y="-182" font-family="Helvetica,sans-Serif" font-size="10.00">::WHadronic</text>
</a>
</g>
</g>
<!-- Node24&#45;&gt;Node36 -->
<g id="edge35" class="edge"><title>Node24&#45;&gt;Node36</title>
<path fill="none" stroke="midnightblue" d="M809.843,-346.213C812.039,-344.645 814.106,-342.913 816,-341 857.28,-299.312 810.869,-255.835 852,-214 858.166,-207.729 865.907,-203.084 874.123,-199.645"/>
<polygon fill="midnightblue" stroke="midnightblue" points="807.69,-343.417 800.821,-351.484 811.221,-349.461 807.69,-343.417"/>
</g>
<!-- Node37 -->
<g id="node37" class="node"><title>Node37</title>
<g id="a_node37"><a xlink:href="classstandardmodel_1_1branch_1_1WLeptonic.html" target="_top" xlink:title="W leptonic tagger tree branch. ">
<polygon fill="white" stroke="black" points="874.5,-126 874.5,-156 990.5,-156 990.5,-126 874.5,-126"/>
<text text-anchor="start" x="882.5" y="-144" font-family="Helvetica,sans-Serif" font-size="10.00">standardmodel::branch</text>
<text text-anchor="middle" x="932.5" y="-133" font-family="Helvetica,sans-Serif" font-size="10.00">::WLeptonic</text>
</a>
</g>
</g>
<!-- Node24&#45;&gt;Node37 -->
<g id="edge36" class="edge"><title>Node24&#45;&gt;Node37</title>
<path fill="none" stroke="midnightblue" d="M810.719,-345.854C812.605,-344.38 814.376,-342.767 816,-341 870.028,-282.215 798.182,-223.978 852,-165 858.025,-158.397 865.795,-153.585 874.111,-150.083"/>
<polygon fill="midnightblue" stroke="midnightblue" points="808.41,-343.172 801.809,-351.459 812.137,-349.097 808.41,-343.172"/>
</g>
<!-- Node38 -->
<g id="node38" class="node"><title>Node38</title>
<g id="a_node38"><a xlink:href="classstandardmodel_1_1branch_1_1ZHadronic.html" target="_top" xlink:title="Z hadronic tagger tree branch. ">
<polygon fill="white" stroke="black" points="874.5,-77 874.5,-107 990.5,-107 990.5,-77 874.5,-77"/>
<text text-anchor="start" x="882.5" y="-95" font-family="Helvetica,sans-Serif" font-size="10.00">standardmodel::branch</text>
<text text-anchor="middle" x="932.5" y="-84" font-family="Helvetica,sans-Serif" font-size="10.00">::ZHadronic</text>
</a>
</g>
</g>
<!-- Node24&#45;&gt;Node38 -->
<g id="edge37" class="edge"><title>Node24&#45;&gt;Node38</title>
<path fill="none" stroke="midnightblue" d="M810.933,-345.849C812.749,-344.376 814.448,-342.764 816,-341 882.906,-264.977 785.365,-192.261 852,-116 857.976,-109.16 865.826,-104.233 874.265,-100.692"/>
<polygon fill="midnightblue" stroke="midnightblue" points="808.794,-343.065 802.325,-351.456 812.615,-348.931 808.794,-343.065"/>
</g>
<!-- Node39 -->
<g id="node39" class="node"><title>Node39</title>
<g id="a_node39"><a xlink:href="classtthh_1_1branch_1_1Higgs.html" target="_top" xlink:title="Higgs tagger tree branch ">
<polygon fill="white" stroke="black" points="882.5,-38.5 882.5,-57.5 982.5,-57.5 982.5,-38.5 882.5,-38.5"/>
<text text-anchor="middle" x="932.5" y="-45.5" font-family="Helvetica,sans-Serif" font-size="10.00">tthh::branch::Higgs</text>
</a>
</g>
</g>
<!-- Node24&#45;&gt;Node39 -->
<g id="edge38" class="edge"><title>Node24&#45;&gt;Node39</title>
<path fill="none" stroke="midnightblue" d="M811.112,-345.809C812.866,-344.346 814.505,-342.747 816,-341 895.846,-247.67 769.78,-158.245 852,-67 859.885,-58.25 871.013,-53.1766 882.454,-50.3155"/>
<polygon fill="midnightblue" stroke="midnightblue" points="809.138,-342.918 802.774,-351.388 813.031,-348.736 809.138,-342.918"/>
</g>
<!-- Node40 -->
<g id="node40" class="node"><title>Node40</title>
<g id="a_node40"><a xlink:href="classtthh_1_1branch_1_1HiggsSemiLeptonic.html" target="_top" xlink:title="Higgs tagger tree branch ">
<polygon fill="white" stroke="black" points="853,-0.5 853,-19.5 1012,-19.5 1012,-0.5 853,-0.5"/>
<text text-anchor="middle" x="932.5" y="-7.5" font-family="Helvetica,sans-Serif" font-size="10.00">tthh::branch::HiggsSemiLeptonic</text>
</a>
</g>
</g>
<!-- Node24&#45;&gt;Node40 -->
<g id="edge39" class="edge"><title>Node24&#45;&gt;Node40</title>
<path fill="none" stroke="midnightblue" d="M811.148,-345.839C812.892,-344.368 814.519,-342.759 816,-341 905.904,-234.221 759.379,-133.431 852,-29 855.39,-25.178 859.398,-22.0552 863.785,-19.5105"/>
<polygon fill="midnightblue" stroke="midnightblue" points="809.172,-342.95 802.842,-351.447 813.089,-348.752 809.172,-342.95"/>
</g>
<!-- Node26 -->
<g id="node26" class="node"><title>Node26</title>
<g id="a_node26"><a xlink:href="classheavyhiggs_1_1branch_1_1ChargedHiggsLeptonic.html" target="_top" xlink:title="Higgs tagger root tree structure. ">
<polygon fill="white" stroke="black" points="1057,-611 1057,-641 1179,-641 1179,-611 1057,-611"/>
<text text-anchor="start" x="1065" y="-629" font-family="Helvetica,sans-Serif" font-size="10.00">heavyhiggs::branch</text>
<text text-anchor="middle" x="1118" y="-618" font-family="Helvetica,sans-Serif" font-size="10.00">::ChargedHiggsLeptonic</text>
</a>
</g>
</g>
<!-- Node25&#45;&gt;Node26 -->
<g id="edge25" class="edge"><title>Node25&#45;&gt;Node26</title>
<path fill="none" stroke="midnightblue" d="M992.831,-626C1013.33,-626 1036.32,-626 1056.88,-626"/>
<polygon fill="midnightblue" stroke="midnightblue" points="992.675,-622.5 982.675,-626 992.675,-629.5 992.675,-622.5"/>
</g>
<!-- Node27 -->
<g id="node27" class="node"><title>Node27</title>
<g id="a_node27"><a xlink:href="classheavyhiggs_1_1branch_1_1ChargedHiggsSemi.html" target="_top" xlink:title="Charged Higgs semi tagger root tree structure. ">
<polygon fill="white" stroke="black" points="1064.5,-562 1064.5,-592 1171.5,-592 1171.5,-562 1064.5,-562"/>
<text text-anchor="start" x="1072.5" y="-580" font-family="Helvetica,sans-Serif" font-size="10.00">heavyhiggs::branch</text>
<text text-anchor="middle" x="1118" y="-569" font-family="Helvetica,sans-Serif" font-size="10.00">::ChargedHiggsSemi</text>
</a>
</g>
</g>
<!-- Node25&#45;&gt;Node27 -->
<g id="edge26" class="edge"><title>Node25&#45;&gt;Node27</title>
<path fill="none" stroke="midnightblue" d="M982.321,-613.927C992.473,-611.357 1003.1,-608.626 1013,-606 1029.76,-601.556 1047.99,-596.537 1064.43,-591.939"/>
<polygon fill="midnightblue" stroke="midnightblue" points="981.212,-610.596 972.369,-616.432 982.921,-617.385 981.212,-610.596"/>
</g>
<!-- Node47 -->
<g id="node47" class="node"><title>Node47</title>
<g id="a_node47"><a xlink:href="classheavyhiggs_1_1branch_1_1Cut.html" target="_top" xlink:title="heavyhiggs::branch::Cut">
<polygon fill="white" stroke="black" points="519,-187.5 519,-206.5 642,-206.5 642,-187.5 519,-187.5"/>
<text text-anchor="middle" x="580.5" y="-194.5" font-family="Helvetica,sans-Serif" font-size="10.00">heavyhiggs::branch::Cut</text>
</a>
</g>
</g>
<!-- Node46&#45;&gt;Node47 -->
<g id="edge46" class="edge"><title>Node46&#45;&gt;Node47</title>
<path fill="none" stroke="midnightblue" d="M482.945,-197C494.614,-197 506.939,-197 518.736,-197"/>
<polygon fill="midnightblue" stroke="midnightblue" points="482.889,-193.5 472.889,-197 482.889,-200.5 482.889,-193.5"/>
</g>
<!-- Node48 -->
<g id="node48" class="node"><title>Node48</title>
<g id="a_node48"><a xlink:href="classheavyhiggs_1_1branch_1_1CutNeutral.html" target="_top" xlink:title="heavyhiggs::branch\l::CutNeutral">
<polygon fill="white" stroke="black" points="530,-138 530,-168 631,-168 631,-138 530,-138"/>
<text text-anchor="start" x="538" y="-156" font-family="Helvetica,sans-Serif" font-size="10.00">heavyhiggs::branch</text>
<text text-anchor="middle" x="580.5" y="-145" font-family="Helvetica,sans-Serif" font-size="10.00">::CutNeutral</text>
</a>
</g>
</g>
<!-- Node46&#45;&gt;Node48 -->
<g id="edge47" class="edge"><title>Node46&#45;&gt;Node48</title>
<path fill="none" stroke="midnightblue" d="M469.137,-184.635C488.042,-179.216 510.339,-172.825 529.925,-167.211"/>
<polygon fill="midnightblue" stroke="midnightblue" points="467.956,-181.333 459.307,-187.453 469.885,-188.062 467.956,-181.333"/>
</g>
</g>
</svg>
