<?xml version="1.0" encoding="UTF-8" standalone="no"?>
<!DOCTYPE svg PUBLIC "-//W3C//DTD SVG 1.1//EN"
 "http://www.w3.org/Graphics/SVG/1.1/DTD/svg11.dtd">
<!-- Generated by graphviz version 2.38.0 (20140413.2041)
 -->
<!-- Title: source/fastjet/ClusterSequence.cpp Pages: 1 -->
<svg width="1439pt" height="856pt"
 viewBox="0.00 0.00 1438.50 856.00" xmlns="http://www.w3.org/2000/svg" xmlns:xlink="http://www.w3.org/1999/xlink">
<g id="graph0" class="graph" transform="scale(1 1) rotate(0) translate(4 852)">
<title>source/fastjet/ClusterSequence.cpp</title>
<polygon fill="white" stroke="none" points="-4,4 -4,-852 1434.5,-852 1434.5,4 -4,4"/>
<!-- Node1 -->
<g id="node1" class="node"><title>Node1</title>
<polygon fill="#bfbfbf" stroke="black" points="922,-828.5 922,-847.5 1095,-847.5 1095,-828.5 922,-828.5"/>
<text text-anchor="middle" x="1008.5" y="-835.5" font-family="Helvetica,sans-Serif" font-size="10.00">source/fastjet/ClusterSequence.cpp</text>
</g>
<!-- Node2 -->
<g id="node2" class="node"><title>Node2</title>
<g id="a_node2"><a xlink:href="ClusterSequence_8hh.html" target="_top" xlink:title="fastjet/ClusterSequence.hh">
<polygon fill="white" stroke="black" points="881,-772.5 881,-791.5 1016,-791.5 1016,-772.5 881,-772.5"/>
<text text-anchor="middle" x="948.5" y="-779.5" font-family="Helvetica,sans-Serif" font-size="10.00">fastjet/ClusterSequence.hh</text>
</a>
</g>
</g>
<!-- Node1&#45;&gt;Node2 -->
<g id="edge1" class="edge"><title>Node1&#45;&gt;Node2</title>
<path fill="none" stroke="midnightblue" d="M998.86,-828.324C989.99,-820.341 976.625,-808.313 965.892,-798.653"/>
<polygon fill="midnightblue" stroke="midnightblue" points="968.09,-795.922 958.315,-791.834 963.407,-801.125 968.09,-795.922"/>
</g>
<!-- Node50 -->
<g id="node50" class="node"><title>Node50</title>
<g id="a_node50"><a xlink:href="DEBUG__MACROS_8hh.html" target="_top" xlink:title="boca/generic/DEBUG\l_MACROS.hh">
<polygon fill="white" stroke="black" points="1037,-705.5 1037,-735.5 1148,-735.5 1148,-705.5 1037,-705.5"/>
<text text-anchor="start" x="1045" y="-723.5" font-family="Helvetica,sans-Serif" font-size="10.00">boca/generic/DEBUG</text>
<text text-anchor="middle" x="1092.5" y="-712.5" font-family="Helvetica,sans-Serif" font-size="10.00">_MACROS.hh</text>
</a>
</g>
</g>
<!-- Node1&#45;&gt;Node50 -->
<g id="edge59" class="edge"><title>Node1&#45;&gt;Node50</title>
<path fill="none" stroke="midnightblue" d="M1014.81,-828.319C1027.71,-810.579 1057.46,-769.682 1076.17,-743.951"/>
<polygon fill="midnightblue" stroke="midnightblue" points="1079.23,-745.691 1082.29,-735.545 1073.57,-741.574 1079.23,-745.691"/>
</g>
<!-- Node3 -->
<g id="node3" class="node"><title>Node3</title>
<g id="a_node3"><a xlink:href="Jet_8hh.html" target="_top" xlink:title="boca/multiplets/Jet.hh">
<polygon fill="white" stroke="black" points="844,-711 844,-730 957,-730 957,-711 844,-711"/>
<text text-anchor="middle" x="900.5" y="-718" font-family="Helvetica,sans-Serif" font-size="10.00">boca/multiplets/Jet.hh</text>
</a>
</g>
</g>
<!-- Node2&#45;&gt;Node3 -->
<g id="edge2" class="edge"><title>Node2&#45;&gt;Node3</title>
<path fill="none" stroke="midnightblue" d="M941.623,-772.475C934.351,-763.462 922.705,-749.025 913.659,-737.812"/>
<polygon fill="midnightblue" stroke="midnightblue" points="916.367,-735.595 907.364,-730.009 910.919,-739.99 916.367,-735.595"/>
</g>
<!-- Node4 -->
<g id="node4" class="node"><title>Node4</title>
<g id="a_node4"><a xlink:href="PseudoJet_8hh.html" target="_top" xlink:title="boca/fastjet/PseudoJet.hh">
<polygon fill="white" stroke="black" points="678,-537.5 678,-556.5 809,-556.5 809,-537.5 678,-537.5"/>
<text text-anchor="middle" x="743.5" y="-544.5" font-family="Helvetica,sans-Serif" font-size="10.00">boca/fastjet/PseudoJet.hh</text>
</a>
</g>
</g>
<!-- Node3&#45;&gt;Node4 -->
<g id="edge3" class="edge"><title>Node3&#45;&gt;Node4</title>
<path fill="none" stroke="midnightblue" d="M884.519,-710.936C868.62,-701.908 844.118,-686.576 826.5,-669 794.323,-636.9 766.682,-590.77 752.883,-565.759"/>
<polygon fill="midnightblue" stroke="midnightblue" points="755.828,-563.846 747.992,-556.715 749.67,-567.176 755.828,-563.846"/>
</g>
<!-- Node43 -->
<g id="node43" class="node"><title>Node43</title>
<g id="a_node43"><a xlink:href="JetInfo_8hh.html" target="_top" xlink:title="boca/multiplets/JetInfo.hh">
<polygon fill="white" stroke="black" points="836,-649.5 836,-668.5 965,-668.5 965,-649.5 836,-649.5"/>
<text text-anchor="middle" x="900.5" y="-656.5" font-family="Helvetica,sans-Serif" font-size="10.00">boca/multiplets/JetInfo.hh</text>
</a>
</g>
</g>
<!-- Node3&#45;&gt;Node43 -->
<g id="edge49" class="edge"><title>Node3&#45;&gt;Node43</title>
<path fill="none" stroke="midnightblue" d="M900.5,-710.975C900.5,-702.58 900.5,-689.481 900.5,-678.663"/>
<polygon fill="midnightblue" stroke="midnightblue" points="904,-678.509 900.5,-668.509 897,-678.509 904,-678.509"/>
</g>
<!-- Node4&#45;&gt;Node4 -->
<g id="edge5" class="edge"><title>Node4&#45;&gt;Node4</title>
<path fill="none" stroke="midnightblue" d="M779.113,-556.525C803.311,-559.308 827,-556.133 827,-547 827,-539.151 809.505,-535.703 789.227,-536.654"/>
<polygon fill="midnightblue" stroke="midnightblue" points="788.797,-533.178 779.113,-537.475 789.363,-540.155 788.797,-533.178"/>
</g>
<!-- Node5 -->
<g id="node5" class="node"><title>Node5</title>
<polygon fill="white" stroke="#bfbfbf" points="484,-201.5 484,-220.5 587,-220.5 587,-201.5 484,-201.5"/>
<text text-anchor="middle" x="535.5" y="-208.5" font-family="Helvetica,sans-Serif" font-size="10.00">boost/operators.hpp</text>
</g>
<!-- Node4&#45;&gt;Node5 -->
<g id="edge4" class="edge"><title>Node4&#45;&gt;Node5</title>
<path fill="none" stroke="midnightblue" d="M677.874,-539.426C615.611,-529.137 531.5,-502.862 531.5,-436 531.5,-436 531.5,-436 531.5,-322 531.5,-289.927 533.219,-252.628 534.404,-230.741"/>
<polygon fill="midnightblue" stroke="midnightblue" points="537.909,-230.735 534.977,-220.554 530.92,-230.341 537.909,-230.735"/>
</g>
<!-- Node6 -->
<g id="node6" class="node"><title>Node6</title>
<g id="a_node6"><a xlink:href="LorentzVector_8hh.html" target="_top" xlink:title="boca/math/LorentzVector.hh">
<polygon fill="white" stroke="black" points="695.5,-425.5 695.5,-444.5 835.5,-444.5 835.5,-425.5 695.5,-425.5"/>
<text text-anchor="middle" x="765.5" y="-432.5" font-family="Helvetica,sans-Serif" font-size="10.00">boca/math/LorentzVector.hh</text>
</a>
</g>
</g>
<!-- Node4&#45;&gt;Node6 -->
<g id="edge6" class="edge"><title>Node4&#45;&gt;Node6</title>
<path fill="none" stroke="midnightblue" d="M745.226,-537.368C748.777,-519.617 756.967,-478.666 761.781,-454.597"/>
<polygon fill="midnightblue" stroke="midnightblue" points="765.253,-455.084 763.782,-444.591 758.388,-453.711 765.253,-455.084"/>
</g>
<!-- Node7 -->
<g id="node7" class="node"><title>Node7</title>
<g id="a_node7"><a xlink:href="delphes_2Forward_8hh.html" target="_top" xlink:title="boca/delphes/Forward.hh">
<polygon fill="white" stroke="black" points="560.5,-369.5 560.5,-388.5 686.5,-388.5 686.5,-369.5 560.5,-369.5"/>
<text text-anchor="middle" x="623.5" y="-376.5" font-family="Helvetica,sans-Serif" font-size="10.00">boca/delphes/Forward.hh</text>
</a>
</g>
</g>
<!-- Node6&#45;&gt;Node7 -->
<g id="edge7" class="edge"><title>Node6&#45;&gt;Node7</title>
<path fill="none" stroke="midnightblue" d="M743,-425.444C719.423,-416.478 682.178,-402.314 655.536,-392.183"/>
<polygon fill="midnightblue" stroke="midnightblue" points="656.486,-388.8 645.895,-388.516 653.998,-395.342 656.486,-388.8"/>
</g>
<!-- Node9 -->
<g id="node9" class="node"><title>Node9</title>
<g id="a_node9"><a xlink:href="exroot_2Forward_8hh.html" target="_top" xlink:title="boca/exroot/Forward.hh">
<polygon fill="white" stroke="black" points="706,-369.5 706,-388.5 825,-388.5 825,-369.5 706,-369.5"/>
<text text-anchor="middle" x="765.5" y="-376.5" font-family="Helvetica,sans-Serif" font-size="10.00">boca/exroot/Forward.hh</text>
</a>
</g>
</g>
<!-- Node6&#45;&gt;Node9 -->
<g id="edge9" class="edge"><title>Node6&#45;&gt;Node9</title>
<path fill="none" stroke="midnightblue" d="M765.5,-425.083C765.5,-418.006 765.5,-407.861 765.5,-398.986"/>
<polygon fill="midnightblue" stroke="midnightblue" points="769,-398.751 765.5,-388.751 762,-398.751 769,-398.751"/>
</g>
<!-- Node11 -->
<g id="node11" class="node"><title>Node11</title>
<g id="a_node11"><a xlink:href="LorentzVectorBase_8hh.html" target="_top" xlink:title="boca/math/LorentzVectorBase.hh">
<polygon fill="white" stroke="black" points="843.5,-369.5 843.5,-388.5 1005.5,-388.5 1005.5,-369.5 843.5,-369.5"/>
<text text-anchor="middle" x="924.5" y="-376.5" font-family="Helvetica,sans-Serif" font-size="10.00">boca/math/LorentzVectorBase.hh</text>
</a>
</g>
</g>
<!-- Node6&#45;&gt;Node11 -->
<g id="edge11" class="edge"><title>Node6&#45;&gt;Node11</title>
<path fill="none" stroke="midnightblue" d="M790.694,-425.444C817.443,-416.359 859.903,-401.939 889.805,-391.783"/>
<polygon fill="midnightblue" stroke="midnightblue" points="891.081,-395.046 899.424,-388.516 888.829,-388.418 891.081,-395.046"/>
</g>
<!-- Node8 -->
<g id="node8" class="node"><title>Node8</title>
<g id="a_node8"><a xlink:href="delphes_2TypeDef_8hh.html" target="_top" xlink:title="boca/delphes/TypeDef.hh">
<polygon fill="white" stroke="black" points="559.5,-313.5 559.5,-332.5 687.5,-332.5 687.5,-313.5 559.5,-313.5"/>
<text text-anchor="middle" x="623.5" y="-320.5" font-family="Helvetica,sans-Serif" font-size="10.00">boca/delphes/TypeDef.hh</text>
</a>
</g>
</g>
<!-- Node7&#45;&gt;Node8 -->
<g id="edge8" class="edge"><title>Node7&#45;&gt;Node8</title>
<path fill="none" stroke="midnightblue" d="M623.5,-369.083C623.5,-362.006 623.5,-351.861 623.5,-342.986"/>
<polygon fill="midnightblue" stroke="midnightblue" points="627,-342.751 623.5,-332.751 620,-342.751 627,-342.751"/>
</g>
<!-- Node10 -->
<g id="node10" class="node"><title>Node10</title>
<g id="a_node10"><a xlink:href="exroot_2TypeDef_8hh.html" target="_top" xlink:title="boca/exroot/TypeDef.hh">
<polygon fill="white" stroke="black" points="705.5,-313.5 705.5,-332.5 827.5,-332.5 827.5,-313.5 705.5,-313.5"/>
<text text-anchor="middle" x="766.5" y="-320.5" font-family="Helvetica,sans-Serif" font-size="10.00">boca/exroot/TypeDef.hh</text>
</a>
</g>
</g>
<!-- Node9&#45;&gt;Node10 -->
<g id="edge10" class="edge"><title>Node9&#45;&gt;Node10</title>
<path fill="none" stroke="midnightblue" d="M765.665,-369.083C765.796,-362.006 765.984,-351.861 766.148,-342.986"/>
<polygon fill="midnightblue" stroke="midnightblue" points="769.652,-342.814 766.338,-332.751 762.653,-342.685 769.652,-342.814"/>
</g>
<!-- Node12 -->
<g id="node12" class="node"><title>Node12</title>
<polygon fill="white" stroke="#bfbfbf" points="846,-313.5 846,-332.5 891,-332.5 891,-313.5 846,-313.5"/>
<text text-anchor="middle" x="868.5" y="-320.5" font-family="Helvetica,sans-Serif" font-size="10.00">climits</text>
</g>
<!-- Node11&#45;&gt;Node12 -->
<g id="edge12" class="edge"><title>Node11&#45;&gt;Node12</title>
<path fill="none" stroke="midnightblue" d="M915.503,-369.324C907.306,-361.42 894.994,-349.548 885.028,-339.938"/>
<polygon fill="midnightblue" stroke="midnightblue" points="887.289,-337.256 877.661,-332.834 882.43,-342.295 887.289,-337.256"/>
</g>
<!-- Node13 -->
<g id="node13" class="node"><title>Node13</title>
<g id="a_node13"><a xlink:href="Vector3_8hh.html" target="_top" xlink:title="boca/math/Vector3.hh">
<polygon fill="white" stroke="black" points="909,-313.5 909,-332.5 1022,-332.5 1022,-313.5 909,-313.5"/>
<text text-anchor="middle" x="965.5" y="-320.5" font-family="Helvetica,sans-Serif" font-size="10.00">boca/math/Vector3.hh</text>
</a>
</g>
</g>
<!-- Node11&#45;&gt;Node13 -->
<g id="edge13" class="edge"><title>Node11&#45;&gt;Node13</title>
<path fill="none" stroke="midnightblue" d="M931.27,-369.083C937.062,-361.455 945.558,-350.264 952.638,-340.941"/>
<polygon fill="midnightblue" stroke="midnightblue" points="955.596,-342.832 958.856,-332.751 950.021,-338.599 955.596,-342.832"/>
</g>
<!-- Node14 -->
<g id="node14" class="node"><title>Node14</title>
<polygon fill="white" stroke="#bfbfbf" points="824,-257.5 824,-276.5 889,-276.5 889,-257.5 824,-257.5"/>
<text text-anchor="middle" x="856.5" y="-264.5" font-family="Helvetica,sans-Serif" font-size="10.00">TVector3.h</text>
</g>
<!-- Node13&#45;&gt;Node14 -->
<g id="edge14" class="edge"><title>Node13&#45;&gt;Node14</title>
<path fill="none" stroke="midnightblue" d="M947.987,-313.324C930.428,-304.625 903.169,-291.12 882.969,-281.113"/>
<polygon fill="midnightblue" stroke="midnightblue" points="884.484,-277.958 873.969,-276.655 881.376,-284.23 884.484,-277.958"/>
</g>
<!-- Node15 -->
<g id="node15" class="node"><title>Node15</title>
<g id="a_node15"><a xlink:href="Vector2_8hh.html" target="_top" xlink:title="boca/math/Vector2.hh">
<polygon fill="white" stroke="black" points="907,-257.5 907,-276.5 1020,-276.5 1020,-257.5 907,-257.5"/>
<text text-anchor="middle" x="963.5" y="-264.5" font-family="Helvetica,sans-Serif" font-size="10.00">boca/math/Vector2.hh</text>
</a>
</g>
</g>
<!-- Node13&#45;&gt;Node15 -->
<g id="edge15" class="edge"><title>Node13&#45;&gt;Node15</title>
<path fill="none" stroke="midnightblue" d="M965.17,-313.083C964.908,-306.006 964.532,-295.861 964.203,-286.986"/>
<polygon fill="midnightblue" stroke="midnightblue" points="967.692,-286.615 963.824,-276.751 960.697,-286.874 967.692,-286.615"/>
</g>
<!-- Node15&#45;&gt;Node5 -->
<g id="edge16" class="edge"><title>Node15&#45;&gt;Node5</title>
<path fill="none" stroke="midnightblue" d="M906.981,-258.243C903.774,-257.818 900.596,-257.401 897.5,-257 767.387,-240.136 734.662,-237.485 604.5,-221 602.124,-220.699 599.701,-220.391 597.255,-220.078"/>
<polygon fill="midnightblue" stroke="midnightblue" points="597.478,-216.578 587.113,-218.775 596.586,-223.521 597.478,-216.578"/>
</g>
<!-- Node16 -->
<g id="node16" class="node"><title>Node16</title>
<g id="a_node16"><a xlink:href="Debug_8hh.html" target="_top" xlink:title="boca/generic/Debug.hh">
<polygon fill="white" stroke="black" points="1096,-201.5 1096,-220.5 1213,-220.5 1213,-201.5 1096,-201.5"/>
<text text-anchor="middle" x="1154.5" y="-208.5" font-family="Helvetica,sans-Serif" font-size="10.00">boca/generic/Debug.hh</text>
</a>
</g>
</g>
<!-- Node15&#45;&gt;Node16 -->
<g id="edge17" class="edge"><title>Node15&#45;&gt;Node16</title>
<path fill="none" stroke="midnightblue" d="M993.765,-257.444C1026.46,-248.201 1078.68,-233.436 1114.68,-223.257"/>
<polygon fill="midnightblue" stroke="midnightblue" points="1115.71,-226.605 1124.38,-220.516 1113.8,-219.869 1115.71,-226.605"/>
</g>
<!-- Node23 -->
<g id="node23" class="node"><title>Node23</title>
<g id="a_node23"><a xlink:href="Iterator_8hh.html" target="_top" xlink:title="boca/generic/Iterator.hh">
<polygon fill="white" stroke="black" points="750,-201.5 750,-220.5 869,-220.5 869,-201.5 750,-201.5"/>
<text text-anchor="middle" x="809.5" y="-208.5" font-family="Helvetica,sans-Serif" font-size="10.00">boca/generic/Iterator.hh</text>
</a>
</g>
</g>
<!-- Node15&#45;&gt;Node23 -->
<g id="edge24" class="edge"><title>Node15&#45;&gt;Node23</title>
<path fill="none" stroke="midnightblue" d="M939.098,-257.444C913.303,-248.399 872.423,-234.064 843.482,-223.916"/>
<polygon fill="midnightblue" stroke="midnightblue" points="844.382,-220.523 833.788,-220.516 842.066,-227.128 844.382,-220.523"/>
</g>
<!-- Node27 -->
<g id="node27" class="node"><title>Node27</title>
<g id="a_node27"><a xlink:href="GradedContainer_8hh.html" target="_top" xlink:title="boca/math/GradedContainer.hh">
<polygon fill="white" stroke="black" points="887.5,-201.5 887.5,-220.5 1039.5,-220.5 1039.5,-201.5 887.5,-201.5"/>
<text text-anchor="middle" x="963.5" y="-208.5" font-family="Helvetica,sans-Serif" font-size="10.00">boca/math/GradedContainer.hh</text>
</a>
</g>
</g>
<!-- Node15&#45;&gt;Node27 -->
<g id="edge28" class="edge"><title>Node15&#45;&gt;Node27</title>
<path fill="none" stroke="midnightblue" d="M963.5,-257.083C963.5,-250.006 963.5,-239.861 963.5,-230.986"/>
<polygon fill="midnightblue" stroke="midnightblue" points="967,-230.751 963.5,-220.751 960,-230.751 967,-230.751"/>
</g>
<!-- Node28 -->
<g id="node28" class="node"><title>Node28</title>
<g id="a_node28"><a xlink:href="Units_8hh.html" target="_top" xlink:title="boca/physics/Units.hh">
<polygon fill="white" stroke="black" points="613.5,-201.5 613.5,-220.5 727.5,-220.5 727.5,-201.5 613.5,-201.5"/>
<text text-anchor="middle" x="670.5" y="-208.5" font-family="Helvetica,sans-Serif" font-size="10.00">boca/physics/Units.hh</text>
</a>
</g>
</g>
<!-- Node15&#45;&gt;Node28 -->
<g id="edge29" class="edge"><title>Node15&#45;&gt;Node28</title>
<path fill="none" stroke="midnightblue" d="M917.073,-257.444C865.424,-247.925 781.988,-232.547 726.693,-222.356"/>
<polygon fill="midnightblue" stroke="midnightblue" points="727.178,-218.887 716.71,-220.516 725.909,-225.771 727.178,-218.887"/>
</g>
<!-- Node17 -->
<g id="node17" class="node"><title>Node17</title>
<polygon fill="white" stroke="#bfbfbf" points="1017,-140 1017,-159 1058,-159 1058,-140 1017,-140"/>
<text text-anchor="middle" x="1037.5" y="-147" font-family="Helvetica,sans-Serif" font-size="10.00">string</text>
</g>
<!-- Node16&#45;&gt;Node17 -->
<g id="edge18" class="edge"><title>Node16&#45;&gt;Node17</title>
<path fill="none" stroke="midnightblue" d="M1137.74,-201.475C1118.28,-191.578 1085.95,-175.142 1063.29,-163.615"/>
<polygon fill="midnightblue" stroke="midnightblue" points="1064.73,-160.422 1054.23,-159.009 1061.56,-166.662 1064.73,-160.422"/>
</g>
<!-- Node18 -->
<g id="node18" class="node"><title>Node18</title>
<polygon fill="white" stroke="#bfbfbf" points="1058.5,-6 1058.5,-25 1102.5,-25 1102.5,-6 1058.5,-6"/>
<text text-anchor="middle" x="1080.5" y="-13" font-family="Helvetica,sans-Serif" font-size="10.00">vector</text>
</g>
<!-- Node16&#45;&gt;Node18 -->
<g id="edge19" class="edge"><title>Node16&#45;&gt;Node18</title>
<path fill="none" stroke="midnightblue" d="M1155.11,-201.358C1156.37,-178.155 1157.38,-113.128 1133.5,-67 1126.14,-52.7891 1113.2,-40.3413 1101.95,-31.3598"/>
<polygon fill="midnightblue" stroke="midnightblue" points="1103.88,-28.4333 1093.8,-25.1954 1099.66,-34.0176 1103.88,-28.4333"/>
</g>
<!-- Node19 -->
<g id="node19" class="node"><title>Node19</title>
<polygon fill="white" stroke="#bfbfbf" points="1378.5,-140 1378.5,-159 1430.5,-159 1430.5,-140 1378.5,-140"/>
<text text-anchor="middle" x="1404.5" y="-147" font-family="Helvetica,sans-Serif" font-size="10.00">sstream</text>
</g>
<!-- Node16&#45;&gt;Node19 -->
<g id="edge20" class="edge"><title>Node16&#45;&gt;Node19</title>
<path fill="none" stroke="midnightblue" d="M1207.92,-201.455C1251.62,-193.828 1314.74,-181.341 1368.5,-165 1370.78,-164.306 1373.13,-163.526 1375.47,-162.697"/>
<polygon fill="midnightblue" stroke="midnightblue" points="1376.81,-165.931 1384.92,-159.112 1374.33,-159.386 1376.81,-165.931"/>
</g>
<!-- Node20 -->
<g id="node20" class="node"><title>Node20</title>
<polygon fill="white" stroke="#bfbfbf" points="1076.5,-140 1076.5,-159 1126.5,-159 1126.5,-140 1076.5,-140"/>
<text text-anchor="middle" x="1101.5" y="-147" font-family="Helvetica,sans-Serif" font-size="10.00">iomanip</text>
</g>
<!-- Node16&#45;&gt;Node20 -->
<g id="edge21" class="edge"><title>Node16&#45;&gt;Node20</title>
<path fill="none" stroke="midnightblue" d="M1146.91,-201.475C1138.8,-192.373 1125.77,-177.741 1115.74,-166.483"/>
<polygon fill="midnightblue" stroke="midnightblue" points="1118.34,-164.148 1109.08,-159.009 1113.12,-168.804 1118.34,-164.148"/>
</g>
<!-- Node21 -->
<g id="node21" class="node"><title>Node21</title>
<polygon fill="white" stroke="#bfbfbf" points="1182.5,-140 1182.5,-159 1236.5,-159 1236.5,-140 1182.5,-140"/>
<text text-anchor="middle" x="1209.5" y="-147" font-family="Helvetica,sans-Serif" font-size="10.00">iostream</text>
</g>
<!-- Node16&#45;&gt;Node21 -->
<g id="edge22" class="edge"><title>Node16&#45;&gt;Node21</title>
<path fill="none" stroke="midnightblue" d="M1162.38,-201.475C1170.79,-192.373 1184.32,-177.741 1194.73,-166.483"/>
<polygon fill="midnightblue" stroke="midnightblue" points="1197.42,-168.728 1201.63,-159.009 1192.28,-163.977 1197.42,-168.728"/>
</g>
<!-- Node22 -->
<g id="node22" class="node"><title>Node22</title>
<polygon fill="white" stroke="#bfbfbf" points="1255,-134.5 1255,-164.5 1360,-164.5 1360,-134.5 1255,-134.5"/>
<text text-anchor="start" x="1263" y="-152.5" font-family="Helvetica,sans-Serif" font-size="10.00">boost/units/systems</text>
<text text-anchor="middle" x="1307.5" y="-141.5" font-family="Helvetica,sans-Serif" font-size="10.00">/si/io.hpp</text>
</g>
<!-- Node16&#45;&gt;Node22 -->
<g id="edge23" class="edge"><title>Node16&#45;&gt;Node22</title>
<path fill="none" stroke="midnightblue" d="M1176.42,-201.475C1198.6,-192.852 1233.54,-179.264 1261.77,-168.285"/>
<polygon fill="midnightblue" stroke="midnightblue" points="1263.39,-171.41 1271.44,-164.523 1260.85,-164.885 1263.39,-171.41"/>
</g>
<!-- Node24 -->
<g id="node24" class="node"><title>Node24</title>
<g id="a_node24"><a xlink:href="EnumIterator_8hh.html" target="_top" xlink:title="boca/generic/EnumIterator.hh">
<polygon fill="white" stroke="black" points="854,-140 854,-159 999,-159 999,-140 854,-140"/>
<text text-anchor="middle" x="926.5" y="-147" font-family="Helvetica,sans-Serif" font-size="10.00">boca/generic/EnumIterator.hh</text>
</a>
</g>
</g>
<!-- Node23&#45;&gt;Node24 -->
<g id="edge25" class="edge"><title>Node23&#45;&gt;Node24</title>
<path fill="none" stroke="midnightblue" d="M826.263,-201.475C845.725,-191.578 878.045,-175.142 900.711,-163.615"/>
<polygon fill="midnightblue" stroke="midnightblue" points="902.441,-166.662 909.768,-159.009 899.268,-160.422 902.441,-166.662"/>
</g>
<!-- Node25 -->
<g id="node25" class="node"><title>Node25</title>
<polygon fill="white" stroke="#bfbfbf" points="997,-73 997,-92 1044,-92 1044,-73 997,-73"/>
<text text-anchor="middle" x="1020.5" y="-80" font-family="Helvetica,sans-Serif" font-size="10.00">iterator</text>
</g>
<!-- Node24&#45;&gt;Node25 -->
<g id="edge26" class="edge"><title>Node24&#45;&gt;Node25</title>
<path fill="none" stroke="midnightblue" d="M939.177,-139.734C954.681,-129.013 981.141,-110.716 999.656,-97.9137"/>
<polygon fill="midnightblue" stroke="midnightblue" points="1001.79,-100.694 1008.02,-92.1273 997.808,-94.9361 1001.79,-100.694"/>
</g>
<!-- Node26 -->
<g id="node26" class="node"><title>Node26</title>
<polygon fill="white" stroke="#bfbfbf" points="1062.5,-73 1062.5,-92 1124.5,-92 1124.5,-73 1062.5,-73"/>
<text text-anchor="middle" x="1093.5" y="-80" font-family="Helvetica,sans-Serif" font-size="10.00">type_traits</text>
</g>
<!-- Node24&#45;&gt;Node26 -->
<g id="edge27" class="edge"><title>Node24&#45;&gt;Node26</title>
<path fill="none" stroke="midnightblue" d="M948.676,-139.869C977.703,-128.571 1028.77,-108.696 1061.85,-95.8183"/>
<polygon fill="midnightblue" stroke="midnightblue" points="1063.45,-98.9525 1071.5,-92.0637 1060.91,-92.4292 1063.45,-98.9525"/>
</g>
<!-- Node29 -->
<g id="node29" class="node"><title>Node29</title>
<polygon fill="white" stroke="#bfbfbf" points="476,-140 476,-159 589,-159 589,-140 476,-140"/>
<text text-anchor="middle" x="532.5" y="-147" font-family="Helvetica,sans-Serif" font-size="10.00">boost/units/cmath.hpp</text>
</g>
<!-- Node28&#45;&gt;Node29 -->
<g id="edge30" class="edge"><title>Node28&#45;&gt;Node29</title>
<path fill="none" stroke="midnightblue" d="M650.728,-201.475C627.364,-191.401 588.286,-174.553 561.497,-163.002"/>
<polygon fill="midnightblue" stroke="midnightblue" points="562.804,-159.754 552.235,-159.009 560.032,-166.182 562.804,-159.754"/>
</g>
<!-- Node30 -->
<g id="node30" class="node"><title>Node30</title>
<g id="a_node30"><a xlink:href="Prefixes_8hh.html" target="_top" xlink:title="boca/physics/Prefixes.hh">
<polygon fill="white" stroke="black" points="607,-140 607,-159 734,-159 734,-140 607,-140"/>
<text text-anchor="middle" x="670.5" y="-147" font-family="Helvetica,sans-Serif" font-size="10.00">boca/physics/Prefixes.hh</text>
</a>
</g>
</g>
<!-- Node28&#45;&gt;Node30 -->
<g id="edge31" class="edge"><title>Node28&#45;&gt;Node30</title>
<path fill="none" stroke="midnightblue" d="M670.5,-201.475C670.5,-193.08 670.5,-179.981 670.5,-169.163"/>
<polygon fill="midnightblue" stroke="midnightblue" points="674,-169.009 670.5,-159.009 667,-169.009 674,-169.009"/>
</g>
<!-- Node31 -->
<g id="node31" class="node"><title>Node31</title>
<polygon fill="white" stroke="#bfbfbf" points="181.5,-73 181.5,-92 291.5,-92 291.5,-73 181.5,-73"/>
<text text-anchor="middle" x="236.5" y="-80" font-family="Helvetica,sans-Serif" font-size="10.00">boost/units/scale.hpp</text>
</g>
<!-- Node30&#45;&gt;Node31 -->
<g id="edge32" class="edge"><title>Node30&#45;&gt;Node31</title>
<path fill="none" stroke="midnightblue" d="M630.436,-139.977C619.762,-137.861 608.218,-135.712 597.5,-134 466.197,-113.033 431.511,-120.72 300.5,-98 294.238,-96.9141 287.667,-95.613 281.218,-94.242"/>
<polygon fill="midnightblue" stroke="midnightblue" points="281.765,-90.7788 271.247,-92.051 280.263,-97.6157 281.765,-90.7788"/>
</g>
<!-- Node32 -->
<g id="node32" class="node"><title>Node32</title>
<polygon fill="white" stroke="#bfbfbf" points="310,-67.5 310,-97.5 435,-97.5 435,-67.5 310,-67.5"/>
<text text-anchor="start" x="318" y="-85.5" font-family="Helvetica,sans-Serif" font-size="10.00">boost/units/make_scaled</text>
<text text-anchor="middle" x="372.5" y="-74.5" font-family="Helvetica,sans-Serif" font-size="10.00">_unit.hpp</text>
</g>
<!-- Node30&#45;&gt;Node32 -->
<g id="edge33" class="edge"><title>Node30&#45;&gt;Node32</title>
<path fill="none" stroke="midnightblue" d="M631.235,-139.936C584.024,-129.638 503.829,-112.146 445.209,-99.3595"/>
<polygon fill="midnightblue" stroke="midnightblue" points="445.779,-95.9015 435.263,-97.1899 444.287,-102.741 445.779,-95.9015"/>
</g>
<!-- Node33 -->
<g id="node33" class="node"><title>Node33</title>
<polygon fill="white" stroke="#bfbfbf" points="616,-67.5 616,-97.5 727,-97.5 727,-67.5 616,-67.5"/>
<text text-anchor="start" x="624" y="-85.5" font-family="Helvetica,sans-Serif" font-size="10.00">boost/units/systems</text>
<text text-anchor="middle" x="671.5" y="-74.5" font-family="Helvetica,sans-Serif" font-size="10.00">/si/dimensionless.hpp</text>
</g>
<!-- Node30&#45;&gt;Node33 -->
<g id="edge34" class="edge"><title>Node30&#45;&gt;Node33</title>
<path fill="none" stroke="midnightblue" d="M670.635,-139.734C670.761,-131.541 670.955,-118.923 671.127,-107.714"/>
<polygon fill="midnightblue" stroke="midnightblue" points="674.629,-107.642 671.283,-97.589 667.63,-107.534 674.629,-107.642"/>
</g>
<!-- Node34 -->
<g id="node34" class="node"><title>Node34</title>
<polygon fill="white" stroke="#bfbfbf" points="745.5,-73 745.5,-92 849.5,-92 849.5,-73 745.5,-73"/>
<text text-anchor="middle" x="797.5" y="-80" font-family="Helvetica,sans-Serif" font-size="10.00">boost/units/pow.hpp</text>
</g>
<!-- Node30&#45;&gt;Node34 -->
<g id="edge35" class="edge"><title>Node30&#45;&gt;Node34</title>
<path fill="none" stroke="midnightblue" d="M687.365,-139.869C708.903,-128.845 746.396,-109.655 771.577,-96.7678"/>
<polygon fill="midnightblue" stroke="midnightblue" points="773.258,-99.8389 780.566,-92.1672 770.069,-93.6077 773.258,-99.8389"/>
</g>
<!-- Node35 -->
<g id="node35" class="node"><title>Node35</title>
<g id="a_node35"><a xlink:href="Si_8hh.html" target="_top" xlink:title="boca/physics/Si.hh">
<polygon fill="white" stroke="black" points="63.5,-73 63.5,-92 163.5,-92 163.5,-73 63.5,-73"/>
<text text-anchor="middle" x="113.5" y="-80" font-family="Helvetica,sans-Serif" font-size="10.00">boca/physics/Si.hh</text>
</a>
</g>
</g>
<!-- Node30&#45;&gt;Node35 -->
<g id="edge36" class="edge"><title>Node30&#45;&gt;Node35</title>
<path fill="none" stroke="midnightblue" d="M631.616,-139.941C620.627,-137.75 608.631,-135.572 597.5,-134 409.797,-107.493 359.56,-128.715 172.5,-98 166.566,-97.0256 160.348,-95.766 154.268,-94.3965"/>
<polygon fill="midnightblue" stroke="midnightblue" points="154.777,-90.9202 144.239,-92.0191 153.162,-97.7314 154.777,-90.9202"/>
</g>
<!-- Node39 -->
<g id="node39" class="node"><title>Node39</title>
<g id="a_node39"><a xlink:href="Barn_8hh.html" target="_top" xlink:title="boca/physics/Barn.hh">
<polygon fill="white" stroke="red" points="868,-73 868,-92 979,-92 979,-73 868,-73"/>
<text text-anchor="middle" x="923.5" y="-80" font-family="Helvetica,sans-Serif" font-size="10.00">boca/physics/Barn.hh</text>
</a>
</g>
</g>
<!-- Node30&#45;&gt;Node39 -->
<g id="edge40" class="edge"><title>Node30&#45;&gt;Node39</title>
<path fill="none" stroke="midnightblue" d="M703.835,-139.936C749.153,-128.293 830.264,-107.454 880.229,-94.617"/>
<polygon fill="midnightblue" stroke="midnightblue" points="881.276,-97.9618 890.091,-92.0834 879.534,-91.1819 881.276,-97.9618"/>
</g>
<!-- Node42 -->
<g id="node42" class="node"><title>Node42</title>
<g id="a_node42"><a xlink:href="ElectronVolt_8hh.html" target="_top" xlink:title="boca/physics/ElectronVolt.hh">
<polygon fill="white" stroke="red" points="453.5,-73 453.5,-92 597.5,-92 597.5,-73 453.5,-73"/>
<text text-anchor="middle" x="525.5" y="-80" font-family="Helvetica,sans-Serif" font-size="10.00">boca/physics/ElectronVolt.hh</text>
</a>
</g>
</g>
<!-- Node30&#45;&gt;Node42 -->
<g id="edge45" class="edge"><title>Node30&#45;&gt;Node42</title>
<path fill="none" stroke="midnightblue" d="M651.245,-139.869C626.329,-128.699 582.712,-109.147 553.965,-96.2602"/>
<polygon fill="midnightblue" stroke="midnightblue" points="555.391,-93.064 544.835,-92.1672 552.528,-99.4516 555.391,-93.064"/>
</g>
<!-- Node36 -->
<g id="node36" class="node"><title>Node36</title>
<polygon fill="white" stroke="#bfbfbf" points="465,-6 465,-25 586,-25 586,-6 465,-6"/>
<text text-anchor="middle" x="525.5" y="-13" font-family="Helvetica,sans-Serif" font-size="10.00">boost/units/quantity.hpp</text>
</g>
<!-- Node35&#45;&gt;Node36 -->
<g id="edge37" class="edge"><title>Node35&#45;&gt;Node36</title>
<path fill="none" stroke="midnightblue" d="M145.832,-72.9432C154.46,-70.8277 163.802,-68.6867 172.5,-67 269.674,-48.1563 383.162,-33.1519 454.681,-24.5415"/>
<polygon fill="midnightblue" stroke="midnightblue" points="455.407,-27.9797 464.921,-23.3178 454.577,-21.0291 455.407,-27.9797"/>
</g>
<!-- Node37 -->
<g id="node37" class="node"><title>Node37</title>
<polygon fill="white" stroke="#bfbfbf" points="0,-0.5 0,-30.5 105,-30.5 105,-0.5 0,-0.5"/>
<text text-anchor="start" x="8" y="-18.5" font-family="Helvetica,sans-Serif" font-size="10.00">boost/units/systems</text>
<text text-anchor="middle" x="52.5" y="-7.5" font-family="Helvetica,sans-Serif" font-size="10.00">/si/plane_angle.hpp</text>
</g>
<!-- Node35&#45;&gt;Node37 -->
<g id="edge38" class="edge"><title>Node35&#45;&gt;Node37</title>
<path fill="none" stroke="midnightblue" d="M105.273,-72.7338C96.9501,-63.8649 83.7612,-49.8111 72.6509,-37.9722"/>
<polygon fill="midnightblue" stroke="midnightblue" points="75.1173,-35.4858 65.722,-30.589 70.013,-40.276 75.1173,-35.4858"/>
</g>
<!-- Node38 -->
<g id="node38" class="node"><title>Node38</title>
<polygon fill="white" stroke="#bfbfbf" points="123,-0.5 123,-30.5 228,-30.5 228,-0.5 123,-0.5"/>
<text text-anchor="start" x="131" y="-18.5" font-family="Helvetica,sans-Serif" font-size="10.00">boost/units/systems</text>
<text text-anchor="middle" x="175.5" y="-7.5" font-family="Helvetica,sans-Serif" font-size="10.00">/si/length.hpp</text>
</g>
<!-- Node35&#45;&gt;Node38 -->
<g id="edge39" class="edge"><title>Node35&#45;&gt;Node38</title>
<path fill="none" stroke="midnightblue" d="M121.862,-72.7338C130.321,-63.8649 143.726,-49.8111 155.019,-37.9722"/>
<polygon fill="midnightblue" stroke="midnightblue" points="157.692,-40.2409 162.061,-30.589 152.626,-35.4094 157.692,-40.2409"/>
</g>
<!-- Node39&#45;&gt;Node18 -->
<g id="edge41" class="edge"><title>Node39&#45;&gt;Node18</title>
<path fill="none" stroke="midnightblue" d="M944.348,-72.8685C971.444,-61.6504 1018.96,-41.9766 1050.08,-29.0925"/>
<polygon fill="midnightblue" stroke="midnightblue" points="1051.66,-32.2263 1059.57,-25.1672 1048.99,-25.7587 1051.66,-32.2263"/>
</g>
<!-- Node39&#45;&gt;Node36 -->
<g id="edge44" class="edge"><title>Node39&#45;&gt;Node36</title>
<path fill="none" stroke="midnightblue" d="M887.15,-72.927C877.837,-70.8584 867.819,-68.7439 858.5,-67 768.432,-50.1453 663.854,-35.0026 596.279,-25.7915"/>
<polygon fill="midnightblue" stroke="midnightblue" points="596.552,-22.2965 586.172,-24.4204 595.611,-29.2329 596.552,-22.2965"/>
</g>
<!-- Node40 -->
<g id="node40" class="node"><title>Node40</title>
<polygon fill="white" stroke="#bfbfbf" points="644,-6 644,-25 801,-25 801,-6 644,-6"/>
<text text-anchor="middle" x="722.5" y="-13" font-family="Helvetica,sans-Serif" font-size="10.00">boost/units/base_dimension.hpp</text>
</g>
<!-- Node39&#45;&gt;Node40 -->
<g id="edge42" class="edge"><title>Node39&#45;&gt;Node40</title>
<path fill="none" stroke="midnightblue" d="M896.809,-72.8685C861.27,-61.3758 798.287,-41.0082 758.552,-28.1586"/>
<polygon fill="midnightblue" stroke="midnightblue" points="759.573,-24.8105 748.982,-25.0637 757.419,-31.4709 759.573,-24.8105"/>
</g>
<!-- Node41 -->
<g id="node41" class="node"><title>Node41</title>
<polygon fill="white" stroke="#bfbfbf" points="839.5,-6 839.5,-25 967.5,-25 967.5,-6 839.5,-6"/>
<text text-anchor="middle" x="903.5" y="-13" font-family="Helvetica,sans-Serif" font-size="10.00">boost/units/base_unit.hpp</text>
</g>
<!-- Node39&#45;&gt;Node41 -->
<g id="edge43" class="edge"><title>Node39&#45;&gt;Node41</title>
<path fill="none" stroke="midnightblue" d="M920.803,-72.7338C917.834,-63.0852 912.977,-47.3001 909.163,-34.9063"/>
<polygon fill="midnightblue" stroke="midnightblue" points="912.441,-33.6558 906.155,-25.1273 905.75,-35.7144 912.441,-33.6558"/>
</g>
<!-- Node42&#45;&gt;Node36 -->
<g id="edge48" class="edge"><title>Node42&#45;&gt;Node36</title>
<path fill="none" stroke="midnightblue" d="M525.5,-72.7338C525.5,-63.1826 525.5,-47.6183 525.5,-35.2829"/>
<polygon fill="midnightblue" stroke="midnightblue" points="529,-35.1273 525.5,-25.1273 522,-35.1273 529,-35.1273"/>
</g>
<!-- Node42&#45;&gt;Node40 -->
<g id="edge46" class="edge"><title>Node42&#45;&gt;Node40</title>
<path fill="none" stroke="midnightblue" d="M551.66,-72.8685C586.344,-61.4245 647.699,-41.1807 686.669,-28.3223"/>
<polygon fill="midnightblue" stroke="midnightblue" points="688.146,-31.5208 696.545,-25.0637 685.952,-24.8733 688.146,-31.5208"/>
</g>
<!-- Node42&#45;&gt;Node41 -->
<g id="edge47" class="edge"><title>Node42&#45;&gt;Node41</title>
<path fill="none" stroke="midnightblue" d="M572.602,-72.9966C583.715,-71.0102 595.523,-68.9157 606.5,-67 688.083,-52.7622 782.366,-36.8177 842.428,-26.7245"/>
<polygon fill="midnightblue" stroke="midnightblue" points="843.217,-30.1411 852.499,-25.033 842.058,-23.2377 843.217,-30.1411"/>
</g>
<!-- Node43&#45;&gt;Node4 -->
<g id="edge50" class="edge"><title>Node43&#45;&gt;Node4</title>
<path fill="none" stroke="midnightblue" d="M888.18,-649.368C861.354,-630.573 797.406,-585.768 764.243,-562.533"/>
<polygon fill="midnightblue" stroke="midnightblue" points="765.961,-559.463 755.762,-556.591 761.944,-565.196 765.961,-559.463"/>
</g>
<!-- Node44 -->
<g id="node44" class="node"><title>Node44</title>
<g id="a_node44"><a xlink:href="Constituent_8hh.html" target="_top" xlink:title="boca/Constituent.hh">
<polygon fill="white" stroke="black" points="848.5,-593.5 848.5,-612.5 952.5,-612.5 952.5,-593.5 848.5,-593.5"/>
<text text-anchor="middle" x="900.5" y="-600.5" font-family="Helvetica,sans-Serif" font-size="10.00">boca/Constituent.hh</text>
</a>
</g>
</g>
<!-- Node43&#45;&gt;Node44 -->
<g id="edge51" class="edge"><title>Node43&#45;&gt;Node44</title>
<path fill="none" stroke="midnightblue" d="M900.5,-649.083C900.5,-642.006 900.5,-631.861 900.5,-622.986"/>
<polygon fill="midnightblue" stroke="midnightblue" points="904,-622.751 900.5,-612.751 897,-622.751 904,-622.751"/>
</g>
<!-- Node48 -->
<g id="node48" class="node"><title>Node48</title>
<g id="a_node48"><a xlink:href="Identification_8hh.html" target="_top" xlink:title="boca/multiplets/Identification.hh">
<polygon fill="white" stroke="black" points="971,-593.5 971,-612.5 1126,-612.5 1126,-593.5 971,-593.5"/>
<text text-anchor="middle" x="1048.5" y="-600.5" font-family="Helvetica,sans-Serif" font-size="10.00">boca/multiplets/Identification.hh</text>
</a>
</g>
</g>
<!-- Node43&#45;&gt;Node48 -->
<g id="edge56" class="edge"><title>Node43&#45;&gt;Node48</title>
<path fill="none" stroke="midnightblue" d="M923.951,-649.444C948.633,-640.438 987.685,-626.189 1015.48,-616.049"/>
<polygon fill="midnightblue" stroke="midnightblue" points="1016.96,-619.232 1025.16,-612.516 1014.56,-612.656 1016.96,-619.232"/>
</g>
<!-- Node45 -->
<g id="node45" class="node"><title>Node45</title>
<g id="a_node45"><a xlink:href="Family_8hh.html" target="_top" xlink:title="boca/physics/Family.hh">
<polygon fill="white" stroke="black" points="845.5,-537.5 845.5,-556.5 965.5,-556.5 965.5,-537.5 845.5,-537.5"/>
<text text-anchor="middle" x="905.5" y="-544.5" font-family="Helvetica,sans-Serif" font-size="10.00">boca/physics/Family.hh</text>
</a>
</g>
</g>
<!-- Node44&#45;&gt;Node45 -->
<g id="edge52" class="edge"><title>Node44&#45;&gt;Node45</title>
<path fill="none" stroke="midnightblue" d="M901.326,-593.083C901.981,-586.006 902.92,-575.861 903.742,-566.986"/>
<polygon fill="midnightblue" stroke="midnightblue" points="907.253,-567.031 904.69,-556.751 900.283,-566.386 907.253,-567.031"/>
</g>
<!-- Node46 -->
<g id="node46" class="node"><title>Node46</title>
<polygon fill="white" stroke="#bfbfbf" points="789,-481.5 789,-500.5 824,-500.5 824,-481.5 789,-481.5"/>
<text text-anchor="middle" x="806.5" y="-488.5" font-family="Helvetica,sans-Serif" font-size="10.00">map</text>
</g>
<!-- Node45&#45;&gt;Node46 -->
<g id="edge53" class="edge"><title>Node45&#45;&gt;Node46</title>
<path fill="none" stroke="midnightblue" d="M889.594,-537.324C873.862,-528.743 849.558,-515.486 831.291,-505.522"/>
<polygon fill="midnightblue" stroke="midnightblue" points="832.822,-502.37 822.367,-500.655 829.47,-508.516 832.822,-502.37"/>
</g>
<!-- Node47 -->
<g id="node47" class="node"><title>Node47</title>
<g id="a_node47"><a xlink:href="Member_8hh.html" target="_top" xlink:title="boca/physics/Member.hh">
<polygon fill="white" stroke="black" points="842.5,-481.5 842.5,-500.5 968.5,-500.5 968.5,-481.5 842.5,-481.5"/>
<text text-anchor="middle" x="905.5" y="-488.5" font-family="Helvetica,sans-Serif" font-size="10.00">boca/physics/Member.hh</text>
</a>
</g>
</g>
<!-- Node45&#45;&gt;Node47 -->
<g id="edge54" class="edge"><title>Node45&#45;&gt;Node47</title>
<path fill="none" stroke="midnightblue" d="M905.5,-537.083C905.5,-530.006 905.5,-519.861 905.5,-510.986"/>
<polygon fill="midnightblue" stroke="midnightblue" points="909,-510.751 905.5,-500.751 902,-510.751 909,-510.751"/>
</g>
<!-- Node47&#45;&gt;Node6 -->
<g id="edge55" class="edge"><title>Node47&#45;&gt;Node6</title>
<path fill="none" stroke="midnightblue" d="M883.317,-481.444C860.072,-472.478 823.351,-458.314 797.085,-448.183"/>
<polygon fill="midnightblue" stroke="midnightblue" points="798.169,-444.85 787.58,-444.516 795.65,-451.381 798.169,-444.85"/>
</g>
<!-- Node49 -->
<g id="node49" class="node"><title>Node49</title>
<g id="a_node49"><a xlink:href="Tag_8hh.html" target="_top" xlink:title="boca/Tag.hh">
<polygon fill="white" stroke="black" points="1023,-425.5 1023,-444.5 1094,-444.5 1094,-425.5 1023,-425.5"/>
<text text-anchor="middle" x="1058.5" y="-432.5" font-family="Helvetica,sans-Serif" font-size="10.00">boca/Tag.hh</text>
</a>
</g>
</g>
<!-- Node48&#45;&gt;Node49 -->
<g id="edge57" class="edge"><title>Node48&#45;&gt;Node49</title>
<path fill="none" stroke="midnightblue" d="M1049.04,-593.075C1050.61,-566.945 1055.23,-490.211 1057.38,-454.577"/>
<polygon fill="midnightblue" stroke="midnightblue" points="1060.88,-454.761 1057.98,-444.568 1053.89,-454.34 1060.88,-454.761"/>
</g>
<!-- Node49&#45;&gt;Node17 -->
<g id="edge58" class="edge"><title>Node49&#45;&gt;Node17</title>
<path fill="none" stroke="midnightblue" d="M1059.68,-425.462C1062.12,-406.994 1067.5,-361.939 1067.5,-324 1067.5,-324 1067.5,-324 1067.5,-266 1067.5,-230.588 1054.13,-190.973 1045.24,-168.555"/>
<polygon fill="midnightblue" stroke="midnightblue" points="1048.46,-167.199 1041.42,-159.283 1041.99,-169.862 1048.46,-167.199"/>
</g>
<!-- Node50&#45;&gt;Node16 -->
<g id="edge60" class="edge"><title>Node50&#45;&gt;Node16</title>
<path fill="none" stroke="midnightblue" d="M1105.95,-705.495C1124.19,-684.975 1154.5,-644.738 1154.5,-604 1154.5,-604 1154.5,-604 1154.5,-322 1154.5,-289.948 1154.5,-252.643 1154.5,-230.749"/>
<polygon fill="midnightblue" stroke="midnightblue" points="1158,-230.558 1154.5,-220.558 1151,-230.558 1158,-230.558"/>
</g>
</g>
</svg>
