<?xml version="1.0" encoding="UTF-8" standalone="no"?>
<!DOCTYPE svg PUBLIC "-//W3C//DTD SVG 1.1//EN"
 "http://www.w3.org/Graphics/SVG/1.1/DTD/svg11.dtd">
<!-- Generated by graphviz version 2.38.0 (20140413.2041)
 -->
<!-- Title: examples/heavyhiggs/source/CutVariables.cpp Pages: 1 -->
<svg width="1675pt" height="631pt"
 viewBox="0.00 0.00 1675.00 631.00" xmlns="http://www.w3.org/2000/svg" xmlns:xlink="http://www.w3.org/1999/xlink">
<g id="graph0" class="graph" transform="scale(1 1) rotate(0) translate(4 627)">
<title>examples/heavyhiggs/source/CutVariables.cpp</title>
<polygon fill="white" stroke="none" points="-4,4 -4,-627 1671,-627 1671,4 -4,4"/>
<!-- Node1 -->
<g id="node1" class="node"><title>Node1</title>
<polygon fill="#bfbfbf" stroke="black" points="1024,-592.5 1024,-622.5 1151,-622.5 1151,-592.5 1024,-592.5"/>
<text text-anchor="start" x="1032" y="-610.5" font-family="Helvetica,sans-Serif" font-size="10.00">examples/heavyhiggs</text>
<text text-anchor="middle" x="1087.5" y="-599.5" font-family="Helvetica,sans-Serif" font-size="10.00">/source/CutVariables.cpp</text>
</g>
<!-- Node2 -->
<g id="node2" class="node"><title>Node2</title>
<polygon fill="white" stroke="#bfbfbf" points="889.5,-525.5 889.5,-555.5 999.5,-555.5 999.5,-525.5 889.5,-525.5"/>
<text text-anchor="start" x="897.5" y="-543.5" font-family="Helvetica,sans-Serif" font-size="10.00">boost/range/algorithm</text>
<text text-anchor="middle" x="944.5" y="-532.5" font-family="Helvetica,sans-Serif" font-size="10.00">/sort.hpp</text>
</g>
<!-- Node1&#45;&gt;Node2 -->
<g id="edge1" class="edge"><title>Node1&#45;&gt;Node2</title>
<path fill="none" stroke="midnightblue" d="M1056.47,-592.396C1035.48,-582.856 1007.56,-570.163 984.847,-559.84"/>
<polygon fill="midnightblue" stroke="midnightblue" points="986.02,-556.528 975.468,-555.577 983.124,-562.901 986.02,-556.528"/>
</g>
<!-- Node3 -->
<g id="node3" class="node"><title>Node3</title>
<g id="a_node3"><a xlink:href="CutVariables_8hh.html" target="_top" xlink:title="heavyhiggs/CutVariables.hh">
<polygon fill="white" stroke="black" points="1018,-531 1018,-550 1157,-550 1157,-531 1018,-531"/>
<text text-anchor="middle" x="1087.5" y="-538" font-family="Helvetica,sans-Serif" font-size="10.00">heavyhiggs/CutVariables.hh</text>
</a>
</g>
</g>
<!-- Node1&#45;&gt;Node3 -->
<g id="edge2" class="edge"><title>Node1&#45;&gt;Node3</title>
<path fill="none" stroke="midnightblue" d="M1087.5,-592.396C1087.5,-583.064 1087.5,-570.714 1087.5,-560.517"/>
<polygon fill="midnightblue" stroke="midnightblue" points="1091,-560.195 1087.5,-550.195 1084,-560.195 1091,-560.195"/>
</g>
<!-- Node50 -->
<g id="node50" class="node"><title>Node50</title>
<g id="a_node50"><a xlink:href="DEBUG__MACROS_8hh.html" target="_top" xlink:title="boca/generic/DEBUG\l_MACROS.hh">
<polygon fill="white" stroke="black" points="1148,-458.5 1148,-488.5 1259,-488.5 1259,-458.5 1148,-458.5"/>
<text text-anchor="start" x="1156" y="-476.5" font-family="Helvetica,sans-Serif" font-size="10.00">boca/generic/DEBUG</text>
<text text-anchor="middle" x="1203.5" y="-465.5" font-family="Helvetica,sans-Serif" font-size="10.00">_MACROS.hh</text>
</a>
</g>
</g>
<!-- Node1&#45;&gt;Node50 -->
<g id="edge59" class="edge"><title>Node1&#45;&gt;Node50</title>
<path fill="none" stroke="midnightblue" d="M1117.92,-592.442C1134.03,-583.777 1153.17,-571.376 1166.5,-556 1181,-539.274 1190.82,-515.93 1196.67,-498.51"/>
<polygon fill="midnightblue" stroke="midnightblue" points="1200.15,-499.132 1199.82,-488.542 1193.47,-497.027 1200.15,-499.132"/>
</g>
<!-- Node4 -->
<g id="node4" class="node"><title>Node4</title>
<g id="a_node4"><a xlink:href="Jet_8hh.html" target="_top" xlink:title="boca/fastjet/Jet.hh">
<polygon fill="white" stroke="black" points="992.5,-464 992.5,-483 1090.5,-483 1090.5,-464 992.5,-464"/>
<text text-anchor="middle" x="1041.5" y="-471" font-family="Helvetica,sans-Serif" font-size="10.00">boca/fastjet/Jet.hh</text>
</a>
</g>
</g>
<!-- Node3&#45;&gt;Node4 -->
<g id="edge3" class="edge"><title>Node3&#45;&gt;Node4</title>
<path fill="none" stroke="midnightblue" d="M1081.3,-530.734C1074.19,-520.695 1062.39,-504.014 1053.48,-491.421"/>
<polygon fill="midnightblue" stroke="midnightblue" points="1056.24,-489.268 1047.61,-483.127 1050.53,-493.312 1056.24,-489.268"/>
</g>
<!-- Node5 -->
<g id="node5" class="node"><title>Node5</title>
<g id="a_node5"><a xlink:href="PseudoJet_8hh.html" target="_top" xlink:title="boca/fastjet/PseudoJet.hh">
<polygon fill="white" stroke="black" points="793,-341 793,-360 924,-360 924,-341 793,-341"/>
<text text-anchor="middle" x="858.5" y="-348" font-family="Helvetica,sans-Serif" font-size="10.00">boca/fastjet/PseudoJet.hh</text>
</a>
</g>
</g>
<!-- Node4&#45;&gt;Node5 -->
<g id="edge4" class="edge"><title>Node4&#45;&gt;Node5</title>
<path fill="none" stroke="midnightblue" d="M1028.63,-463.992C997.601,-443.474 918.385,-391.096 879.998,-365.715"/>
<polygon fill="midnightblue" stroke="midnightblue" points="881.871,-362.757 871.599,-360.161 878.01,-368.596 881.871,-362.757"/>
</g>
<!-- Node24 -->
<g id="node24" class="node"><title>Node24</title>
<g id="a_node24"><a xlink:href="JetInfo_8hh.html" target="_top" xlink:title="boca/fastjet/JetInfo.hh">
<polygon fill="white" stroke="black" points="984.5,-402.5 984.5,-421.5 1098.5,-421.5 1098.5,-402.5 984.5,-402.5"/>
<text text-anchor="middle" x="1041.5" y="-409.5" font-family="Helvetica,sans-Serif" font-size="10.00">boca/fastjet/JetInfo.hh</text>
</a>
</g>
</g>
<!-- Node4&#45;&gt;Node24 -->
<g id="edge28" class="edge"><title>Node4&#45;&gt;Node24</title>
<path fill="none" stroke="midnightblue" d="M1041.5,-463.975C1041.5,-455.58 1041.5,-442.481 1041.5,-431.663"/>
<polygon fill="midnightblue" stroke="midnightblue" points="1045,-431.509 1041.5,-421.509 1038,-431.509 1045,-431.509"/>
</g>
<!-- Node5&#45;&gt;Node5 -->
<g id="edge6" class="edge"><title>Node5&#45;&gt;Node5</title>
<path fill="none" stroke="midnightblue" d="M889.331,-360.033C915.087,-364.107 942,-360.93 942,-350.5 942,-341.415 921.579,-337.832 899.289,-339.753"/>
<polygon fill="midnightblue" stroke="midnightblue" points="898.834,-336.282 889.331,-340.967 899.681,-343.231 898.834,-336.282"/>
</g>
<!-- Node6 -->
<g id="node6" class="node"><title>Node6</title>
<polygon fill="white" stroke="#bfbfbf" points="727,-274 727,-293 830,-293 830,-274 727,-274"/>
<text text-anchor="middle" x="778.5" y="-281" font-family="Helvetica,sans-Serif" font-size="10.00">boost/operators.hpp</text>
</g>
<!-- Node5&#45;&gt;Node6 -->
<g id="edge5" class="edge"><title>Node5&#45;&gt;Node6</title>
<path fill="none" stroke="midnightblue" d="M847.711,-340.734C834.756,-330.208 812.813,-312.379 797.106,-299.617"/>
<polygon fill="midnightblue" stroke="midnightblue" points="799.086,-296.717 789.118,-293.127 794.672,-302.15 799.086,-296.717"/>
</g>
<!-- Node7 -->
<g id="node7" class="node"><title>Node7</title>
<g id="a_node7"><a xlink:href="Prefixes_8hh.html" target="_top" xlink:title="boca/units/Prefixes.hh">
<polygon fill="white" stroke="black" points="617.5,-207 617.5,-226 731.5,-226 731.5,-207 617.5,-207"/>
<text text-anchor="middle" x="674.5" y="-214" font-family="Helvetica,sans-Serif" font-size="10.00">boca/units/Prefixes.hh</text>
</a>
</g>
</g>
<!-- Node5&#45;&gt;Node7 -->
<g id="edge7" class="edge"><title>Node5&#45;&gt;Node7</title>
<path fill="none" stroke="midnightblue" d="M858.974,-340.58C859.349,-324.017 857.697,-288.346 838.5,-268 813.579,-241.588 775.21,-228.879 741.849,-222.811"/>
<polygon fill="midnightblue" stroke="midnightblue" points="742.113,-219.308 731.676,-221.134 740.974,-226.215 742.113,-219.308"/>
</g>
<!-- Node8 -->
<g id="node8" class="node"><title>Node8</title>
<polygon fill="white" stroke="#bfbfbf" points="680.5,-140 680.5,-159 790.5,-159 790.5,-140 680.5,-140"/>
<text text-anchor="middle" x="735.5" y="-147" font-family="Helvetica,sans-Serif" font-size="10.00">boost/units/scale.hpp</text>
</g>
<!-- Node7&#45;&gt;Node8 -->
<g id="edge8" class="edge"><title>Node7&#45;&gt;Node8</title>
<path fill="none" stroke="midnightblue" d="M682.727,-206.734C692.33,-196.5 708.412,-179.364 720.304,-166.692"/>
<polygon fill="midnightblue" stroke="midnightblue" points="723.113,-168.814 727.404,-159.127 718.008,-164.024 723.113,-168.814"/>
</g>
<!-- Node9 -->
<g id="node9" class="node"><title>Node9</title>
<polygon fill="white" stroke="#bfbfbf" points="809,-134.5 809,-164.5 934,-164.5 934,-134.5 809,-134.5"/>
<text text-anchor="start" x="817" y="-152.5" font-family="Helvetica,sans-Serif" font-size="10.00">boost/units/make_scaled</text>
<text text-anchor="middle" x="871.5" y="-141.5" font-family="Helvetica,sans-Serif" font-size="10.00">_unit.hpp</text>
</g>
<!-- Node7&#45;&gt;Node9 -->
<g id="edge9" class="edge"><title>Node7&#45;&gt;Node9</title>
<path fill="none" stroke="midnightblue" d="M700.66,-206.869C730.733,-196.946 780.854,-180.408 819.052,-167.805"/>
<polygon fill="midnightblue" stroke="midnightblue" points="820.584,-170.985 828.984,-164.528 818.391,-164.338 820.584,-170.985"/>
</g>
<!-- Node10 -->
<g id="node10" class="node"><title>Node10</title>
<polygon fill="white" stroke="#bfbfbf" points="174,-134.5 174,-164.5 285,-164.5 285,-134.5 174,-134.5"/>
<text text-anchor="start" x="182" y="-152.5" font-family="Helvetica,sans-Serif" font-size="10.00">boost/units/systems</text>
<text text-anchor="middle" x="229.5" y="-141.5" font-family="Helvetica,sans-Serif" font-size="10.00">/si/dimensionless.hpp</text>
</g>
<!-- Node7&#45;&gt;Node10 -->
<g id="edge10" class="edge"><title>Node7&#45;&gt;Node10</title>
<path fill="none" stroke="midnightblue" d="M617.285,-209.474C544.745,-201.483 415.655,-186.095 295.239,-165.03"/>
<polygon fill="midnightblue" stroke="midnightblue" points="295.561,-161.532 285.105,-163.239 294.344,-168.426 295.561,-161.532"/>
</g>
<!-- Node11 -->
<g id="node11" class="node"><title>Node11</title>
<polygon fill="white" stroke="#bfbfbf" points="303.5,-140 303.5,-159 407.5,-159 407.5,-140 303.5,-140"/>
<text text-anchor="middle" x="355.5" y="-147" font-family="Helvetica,sans-Serif" font-size="10.00">boost/units/pow.hpp</text>
</g>
<!-- Node7&#45;&gt;Node11 -->
<g id="edge11" class="edge"><title>Node7&#45;&gt;Node11</title>
<path fill="none" stroke="midnightblue" d="M627.776,-206.937C576.005,-197.314 490.102,-180.944 416.5,-165 411.181,-163.848 405.612,-162.592 400.095,-161.318"/>
<polygon fill="midnightblue" stroke="midnightblue" points="400.818,-157.893 390.284,-159.023 399.224,-164.709 400.818,-157.893"/>
</g>
<!-- Node12 -->
<g id="node12" class="node"><title>Node12</title>
<g id="a_node12"><a xlink:href="Si_8hh.html" target="_top" xlink:title="boca/units/Si.hh">
<polygon fill="white" stroke="black" points="426,-140 426,-159 513,-159 513,-140 426,-140"/>
<text text-anchor="middle" x="469.5" y="-147" font-family="Helvetica,sans-Serif" font-size="10.00">boca/units/Si.hh</text>
</a>
</g>
</g>
<!-- Node7&#45;&gt;Node12 -->
<g id="edge12" class="edge"><title>Node7&#45;&gt;Node12</title>
<path fill="none" stroke="midnightblue" d="M647.278,-206.869C611.031,-195.376 546.795,-175.008 506.269,-162.159"/>
<polygon fill="midnightblue" stroke="midnightblue" points="507.099,-158.75 496.508,-159.064 504.983,-165.422 507.099,-158.75"/>
</g>
<!-- Node18 -->
<g id="node18" class="node"><title>Node18</title>
<g id="a_node18"><a xlink:href="Barn_8hh.html" target="_top" xlink:title="boca/units/Barn.hh">
<polygon fill="white" stroke="black" points="564.5,-140 564.5,-159 662.5,-159 662.5,-140 564.5,-140"/>
<text text-anchor="middle" x="613.5" y="-147" font-family="Helvetica,sans-Serif" font-size="10.00">boca/units/Barn.hh</text>
</a>
</g>
</g>
<!-- Node7&#45;&gt;Node18 -->
<g id="edge18" class="edge"><title>Node7&#45;&gt;Node18</title>
<path fill="none" stroke="midnightblue" d="M666.273,-206.734C656.67,-196.5 640.588,-179.364 628.696,-166.692"/>
<polygon fill="midnightblue" stroke="midnightblue" points="630.992,-164.024 621.596,-159.127 625.887,-168.814 630.992,-164.024"/>
</g>
<!-- Node22 -->
<g id="node22" class="node"><title>Node22</title>
<g id="a_node22"><a xlink:href="ElectronVolt_8hh.html" target="_top" xlink:title="boca/units/ElectronVolt.hh">
<polygon fill="white" stroke="black" points="952,-140 952,-159 1083,-159 1083,-140 952,-140"/>
<text text-anchor="middle" x="1017.5" y="-147" font-family="Helvetica,sans-Serif" font-size="10.00">boca/units/ElectronVolt.hh</text>
</a>
</g>
</g>
<!-- Node7&#45;&gt;Node22 -->
<g id="edge23" class="edge"><title>Node7&#45;&gt;Node22</title>
<path fill="none" stroke="midnightblue" d="M720.035,-206.988C773.367,-197.002 864.368,-179.914 942.5,-165 949.239,-163.714 956.318,-162.355 963.323,-161.006"/>
<polygon fill="midnightblue" stroke="midnightblue" points="964.33,-164.376 973.486,-159.045 963.004,-157.503 964.33,-164.376"/>
</g>
<!-- Node13 -->
<g id="node13" class="node"><title>Node13</title>
<polygon fill="white" stroke="#bfbfbf" points="639,-73 639,-92 760,-92 760,-73 639,-73"/>
<text text-anchor="middle" x="699.5" y="-80" font-family="Helvetica,sans-Serif" font-size="10.00">boost/units/quantity.hpp</text>
</g>
<!-- Node12&#45;&gt;Node13 -->
<g id="edge13" class="edge"><title>Node12&#45;&gt;Node13</title>
<path fill="none" stroke="midnightblue" d="M500.042,-139.869C541.053,-128.278 614.002,-107.662 659.397,-94.8335"/>
<polygon fill="midnightblue" stroke="midnightblue" points="660.527,-98.1514 669.198,-92.0637 658.623,-91.4152 660.527,-98.1514"/>
</g>
<!-- Node14 -->
<g id="node14" class="node"><title>Node14</title>
<polygon fill="white" stroke="#bfbfbf" points="260,-67.5 260,-97.5 365,-97.5 365,-67.5 260,-67.5"/>
<text text-anchor="start" x="268" y="-85.5" font-family="Helvetica,sans-Serif" font-size="10.00">boost/units/systems</text>
<text text-anchor="middle" x="312.5" y="-74.5" font-family="Helvetica,sans-Serif" font-size="10.00">/si/plane_angle.hpp</text>
</g>
<!-- Node12&#45;&gt;Node14 -->
<g id="edge14" class="edge"><title>Node12&#45;&gt;Node14</title>
<path fill="none" stroke="midnightblue" d="M448.652,-139.869C425.093,-130.115 386.096,-113.97 355.861,-101.452"/>
<polygon fill="midnightblue" stroke="midnightblue" points="356.961,-98.1196 346.383,-97.5281 354.284,-104.587 356.961,-98.1196"/>
</g>
<!-- Node15 -->
<g id="node15" class="node"><title>Node15</title>
<polygon fill="white" stroke="#bfbfbf" points="383,-67.5 383,-97.5 488,-97.5 488,-67.5 383,-67.5"/>
<text text-anchor="start" x="391" y="-85.5" font-family="Helvetica,sans-Serif" font-size="10.00">boost/units/systems</text>
<text text-anchor="middle" x="435.5" y="-74.5" font-family="Helvetica,sans-Serif" font-size="10.00">/si/length.hpp</text>
</g>
<!-- Node12&#45;&gt;Node15 -->
<g id="edge15" class="edge"><title>Node12&#45;&gt;Node15</title>
<path fill="none" stroke="midnightblue" d="M464.915,-139.734C460.496,-131.287 453.618,-118.138 447.624,-106.678"/>
<polygon fill="midnightblue" stroke="midnightblue" points="450.606,-104.828 442.87,-97.589 444.403,-108.072 450.606,-104.828"/>
</g>
<!-- Node16 -->
<g id="node16" class="node"><title>Node16</title>
<polygon fill="white" stroke="#bfbfbf" points="0,-73 0,-92 113,-92 113,-73 0,-73"/>
<text text-anchor="middle" x="56.5" y="-80" font-family="Helvetica,sans-Serif" font-size="10.00">boost/units/cmath.hpp</text>
</g>
<!-- Node12&#45;&gt;Node16 -->
<g id="edge16" class="edge"><title>Node12&#45;&gt;Node16</title>
<path fill="none" stroke="midnightblue" d="M441.35,-139.98C433.373,-137.79 424.643,-135.602 416.5,-134 286.9,-108.505 251.669,-120.406 121.5,-98 115.144,-96.9059 108.472,-95.6002 101.923,-94.227"/>
<polygon fill="midnightblue" stroke="midnightblue" points="102.311,-90.73 91.7966,-92.0344 100.829,-97.5715 102.311,-90.73"/>
</g>
<!-- Node17 -->
<g id="node17" class="node"><title>Node17</title>
<polygon fill="white" stroke="#bfbfbf" points="131,-67.5 131,-97.5 242,-97.5 242,-67.5 131,-67.5"/>
<text text-anchor="start" x="139" y="-85.5" font-family="Helvetica,sans-Serif" font-size="10.00">boost/math/constants</text>
<text text-anchor="middle" x="186.5" y="-74.5" font-family="Helvetica,sans-Serif" font-size="10.00">/constants.hpp</text>
</g>
<!-- Node12&#45;&gt;Node17 -->
<g id="edge17" class="edge"><title>Node12&#45;&gt;Node17</title>
<path fill="none" stroke="midnightblue" d="M439.303,-139.939C431.868,-137.913 423.912,-135.816 416.5,-134 346.327,-116.805 325.934,-114.516 252.554,-98.4354"/>
<polygon fill="midnightblue" stroke="midnightblue" points="252.86,-94.9187 242.341,-96.1834 251.353,-101.755 252.86,-94.9187"/>
</g>
<!-- Node18&#45;&gt;Node13 -->
<g id="edge21" class="edge"><title>Node18&#45;&gt;Node13</title>
<path fill="none" stroke="midnightblue" d="M625.098,-139.734C639.154,-129.111 663.051,-111.049 679.966,-98.2642"/>
<polygon fill="midnightblue" stroke="midnightblue" points="682.218,-100.949 688.085,-92.1273 677.997,-95.3648 682.218,-100.949"/>
</g>
<!-- Node19 -->
<g id="node19" class="node"><title>Node19</title>
<polygon fill="white" stroke="#bfbfbf" points="778,-73 778,-92 935,-92 935,-73 778,-73"/>
<text text-anchor="middle" x="856.5" y="-80" font-family="Helvetica,sans-Serif" font-size="10.00">boost/units/base_dimension.hpp</text>
</g>
<!-- Node18&#45;&gt;Node19 -->
<g id="edge19" class="edge"><title>Node18&#45;&gt;Node19</title>
<path fill="none" stroke="midnightblue" d="M645.518,-139.936C688.953,-128.317 766.624,-107.541 814.639,-94.6975"/>
<polygon fill="midnightblue" stroke="midnightblue" points="815.655,-98.0487 824.411,-92.0834 813.846,-91.2864 815.655,-98.0487"/>
</g>
<!-- Node20 -->
<g id="node20" class="node"><title>Node20</title>
<polygon fill="white" stroke="#bfbfbf" points="953.5,-73 953.5,-92 1081.5,-92 1081.5,-73 953.5,-73"/>
<text text-anchor="middle" x="1017.5" y="-80" font-family="Helvetica,sans-Serif" font-size="10.00">boost/units/base_unit.hpp</text>
</g>
<!-- Node18&#45;&gt;Node20 -->
<g id="edge20" class="edge"><title>Node18&#45;&gt;Node20</title>
<path fill="none" stroke="midnightblue" d="M644.963,-139.944C653.528,-137.805 662.833,-135.651 671.5,-134 791.288,-111.176 823.164,-117.734 943.5,-98 950.956,-96.7774 958.811,-95.3691 966.506,-93.921"/>
<polygon fill="midnightblue" stroke="midnightblue" points="967.321,-97.3284 976.483,-92.0066 966.002,-90.4538 967.321,-97.3284"/>
</g>
<!-- Node21 -->
<g id="node21" class="node"><title>Node21</title>
<polygon fill="white" stroke="#bfbfbf" points="506,-67.5 506,-97.5 621,-97.5 621,-67.5 506,-67.5"/>
<text text-anchor="start" x="514" y="-85.5" font-family="Helvetica,sans-Serif" font-size="10.00">boost/units/base_units</text>
<text text-anchor="middle" x="563.5" y="-74.5" font-family="Helvetica,sans-Serif" font-size="10.00">/metric/barn.hpp</text>
</g>
<!-- Node18&#45;&gt;Node21 -->
<g id="edge22" class="edge"><title>Node18&#45;&gt;Node21</title>
<path fill="none" stroke="midnightblue" d="M606.757,-139.734C600.064,-131.034 589.534,-117.345 580.539,-105.651"/>
<polygon fill="midnightblue" stroke="midnightblue" points="583.209,-103.381 574.338,-97.589 577.661,-107.649 583.209,-103.381"/>
</g>
<!-- Node22&#45;&gt;Node13 -->
<g id="edge26" class="edge"><title>Node22&#45;&gt;Node13</title>
<path fill="none" stroke="midnightblue" d="M974.743,-139.923C925.126,-129.949 840.857,-112.94 768.5,-98 762.442,-96.7492 756.088,-95.4273 749.789,-94.111"/>
<polygon fill="midnightblue" stroke="midnightblue" points="750.494,-90.6828 739.989,-92.0583 749.059,-97.5341 750.494,-90.6828"/>
</g>
<!-- Node22&#45;&gt;Node19 -->
<g id="edge24" class="edge"><title>Node22&#45;&gt;Node19</title>
<path fill="none" stroke="midnightblue" d="M996.12,-139.869C968.136,-128.571 918.909,-108.696 887.012,-95.8183"/>
<polygon fill="midnightblue" stroke="midnightblue" points="888.295,-92.5619 877.712,-92.0637 885.674,-99.0529 888.295,-92.5619"/>
</g>
<!-- Node22&#45;&gt;Node20 -->
<g id="edge25" class="edge"><title>Node22&#45;&gt;Node20</title>
<path fill="none" stroke="midnightblue" d="M1017.5,-139.734C1017.5,-130.183 1017.5,-114.618 1017.5,-102.283"/>
<polygon fill="midnightblue" stroke="midnightblue" points="1021,-102.127 1017.5,-92.1273 1014,-102.127 1021,-102.127"/>
</g>
<!-- Node23 -->
<g id="node23" class="node"><title>Node23</title>
<polygon fill="white" stroke="#bfbfbf" points="1100,-67.5 1100,-97.5 1205,-97.5 1205,-67.5 1100,-67.5"/>
<text text-anchor="start" x="1108" y="-85.5" font-family="Helvetica,sans-Serif" font-size="10.00">boost/units/systems</text>
<text text-anchor="middle" x="1152.5" y="-74.5" font-family="Helvetica,sans-Serif" font-size="10.00">/si/energy.hpp</text>
</g>
<!-- Node22&#45;&gt;Node23 -->
<g id="edge27" class="edge"><title>Node22&#45;&gt;Node23</title>
<path fill="none" stroke="midnightblue" d="M1035.43,-139.869C1055.42,-130.242 1088.35,-114.388 1114.2,-101.942"/>
<polygon fill="midnightblue" stroke="midnightblue" points="1115.87,-105.02 1123.36,-97.5281 1112.84,-98.7128 1115.87,-105.02"/>
</g>
<!-- Node24&#45;&gt;Node5 -->
<g id="edge29" class="edge"><title>Node24&#45;&gt;Node5</title>
<path fill="none" stroke="midnightblue" d="M1015.28,-402.475C983.482,-392.136 929.735,-374.661 894.183,-363.102"/>
<polygon fill="midnightblue" stroke="midnightblue" points="895.263,-359.773 884.671,-360.009 893.099,-366.43 895.263,-359.773"/>
</g>
<!-- Node25 -->
<g id="node25" class="node"><title>Node25</title>
<g id="a_node25"><a xlink:href="Mutable_8hh.html" target="_top" xlink:title="boca/generic/Mutable.hh">
<polygon fill="white" stroke="black" points="960,-341 960,-360 1083,-360 1083,-341 960,-341"/>
<text text-anchor="middle" x="1021.5" y="-348" font-family="Helvetica,sans-Serif" font-size="10.00">boca/generic/Mutable.hh</text>
</a>
</g>
</g>
<!-- Node24&#45;&gt;Node25 -->
<g id="edge30" class="edge"><title>Node24&#45;&gt;Node25</title>
<path fill="none" stroke="midnightblue" d="M1038.63,-402.475C1035.78,-393.992 1031.32,-380.704 1027.66,-369.822"/>
<polygon fill="midnightblue" stroke="midnightblue" points="1030.86,-368.373 1024.36,-360.009 1024.23,-370.603 1030.86,-368.373"/>
</g>
<!-- Node35 -->
<g id="node35" class="node"><title>Node35</title>
<g id="a_node35"><a xlink:href="Identification_8hh.html" target="_top" xlink:title="boca/identification\l/Identification.hh">
<polygon fill="white" stroke="black" points="1339,-335.5 1339,-365.5 1434,-365.5 1434,-335.5 1339,-335.5"/>
<text text-anchor="start" x="1347" y="-353.5" font-family="Helvetica,sans-Serif" font-size="10.00">boca/identification</text>
<text text-anchor="middle" x="1386.5" y="-342.5" font-family="Helvetica,sans-Serif" font-size="10.00">/Identification.hh</text>
</a>
</g>
</g>
<!-- Node24&#45;&gt;Node35 -->
<g id="edge40" class="edge"><title>Node24&#45;&gt;Node35</title>
<path fill="none" stroke="midnightblue" d="M1090.93,-402.475C1153.84,-391.625 1262.33,-372.915 1328.92,-361.431"/>
<polygon fill="midnightblue" stroke="midnightblue" points="1329.57,-364.871 1338.83,-359.722 1328.38,-357.973 1329.57,-364.871"/>
</g>
<!-- Node37 -->
<g id="node37" class="node"><title>Node37</title>
<g id="a_node37"><a xlink:href="Constituent_8hh.html" target="_top" xlink:title="boca/identification\l/Constituent.hh">
<polygon fill="white" stroke="black" points="1101,-335.5 1101,-365.5 1196,-365.5 1196,-335.5 1101,-335.5"/>
<text text-anchor="start" x="1109" y="-353.5" font-family="Helvetica,sans-Serif" font-size="10.00">boca/identification</text>
<text text-anchor="middle" x="1148.5" y="-342.5" font-family="Helvetica,sans-Serif" font-size="10.00">/Constituent.hh</text>
</a>
</g>
</g>
<!-- Node24&#45;&gt;Node37 -->
<g id="edge43" class="edge"><title>Node24&#45;&gt;Node37</title>
<path fill="none" stroke="midnightblue" d="M1056.83,-402.475C1071.8,-394.153 1095.08,-381.207 1114.43,-370.445"/>
<polygon fill="midnightblue" stroke="midnightblue" points="1116.24,-373.442 1123.28,-365.523 1112.84,-367.324 1116.24,-373.442"/>
</g>
<!-- Node26 -->
<g id="node26" class="node"><title>Node26</title>
<polygon fill="white" stroke="#bfbfbf" points="992,-274 992,-293 1051,-293 1051,-274 992,-274"/>
<text text-anchor="middle" x="1021.5" y="-281" font-family="Helvetica,sans-Serif" font-size="10.00">functional</text>
</g>
<!-- Node25&#45;&gt;Node26 -->
<g id="edge31" class="edge"><title>Node25&#45;&gt;Node26</title>
<path fill="none" stroke="midnightblue" d="M1021.5,-340.734C1021.5,-331.183 1021.5,-315.618 1021.5,-303.283"/>
<polygon fill="midnightblue" stroke="midnightblue" points="1025,-303.127 1021.5,-293.127 1018,-303.127 1025,-303.127"/>
</g>
<!-- Node27 -->
<g id="node27" class="node"><title>Node27</title>
<g id="a_node27"><a xlink:href="Debug_8hh.html" target="_top" xlink:title="boca/generic/Debug.hh">
<polygon fill="white" stroke="black" points="1289,-274 1289,-293 1406,-293 1406,-274 1289,-274"/>
<text text-anchor="middle" x="1347.5" y="-281" font-family="Helvetica,sans-Serif" font-size="10.00">boca/generic/Debug.hh</text>
</a>
</g>
</g>
<!-- Node25&#45;&gt;Node27 -->
<g id="edge32" class="edge"><title>Node25&#45;&gt;Node27</title>
<path fill="none" stroke="midnightblue" d="M1063.16,-340.948C1072.8,-338.983 1083,-336.91 1092.5,-335 1161.98,-321.026 1242.17,-305.194 1293.78,-295.041"/>
<polygon fill="midnightblue" stroke="midnightblue" points="1294.58,-298.452 1303.72,-293.089 1293.23,-291.584 1294.58,-298.452"/>
</g>
<!-- Node34 -->
<g id="node34" class="node"><title>Node34</title>
<polygon fill="white" stroke="#bfbfbf" points="935.5,-274 935.5,-293 973.5,-293 973.5,-274 935.5,-274"/>
<text text-anchor="middle" x="954.5" y="-281" font-family="Helvetica,sans-Serif" font-size="10.00">array</text>
</g>
<!-- Node25&#45;&gt;Node34 -->
<g id="edge39" class="edge"><title>Node25&#45;&gt;Node34</title>
<path fill="none" stroke="midnightblue" d="M1012.46,-340.734C1001.82,-330.403 983.915,-313.037 970.819,-300.332"/>
<polygon fill="midnightblue" stroke="midnightblue" points="973.007,-297.578 963.393,-293.127 968.133,-302.603 973.007,-297.578"/>
</g>
<!-- Node28 -->
<g id="node28" class="node"><title>Node28</title>
<polygon fill="white" stroke="#bfbfbf" points="1544,-140 1544,-159 1585,-159 1585,-140 1544,-140"/>
<text text-anchor="middle" x="1564.5" y="-147" font-family="Helvetica,sans-Serif" font-size="10.00">string</text>
</g>
<!-- Node27&#45;&gt;Node28 -->
<g id="edge33" class="edge"><title>Node27&#45;&gt;Node28</title>
<path fill="none" stroke="midnightblue" d="M1406.16,-274.372C1457.29,-266.103 1526.2,-251.704 1545.5,-232 1561.75,-215.411 1565.11,-187.769 1565.35,-169.341"/>
<polygon fill="midnightblue" stroke="midnightblue" points="1568.85,-169.178 1565.18,-159.239 1561.85,-169.296 1568.85,-169.178"/>
</g>
<!-- Node29 -->
<g id="node29" class="node"><title>Node29</title>
<polygon fill="white" stroke="#bfbfbf" points="1366.5,-140 1366.5,-159 1410.5,-159 1410.5,-140 1366.5,-140"/>
<text text-anchor="middle" x="1388.5" y="-147" font-family="Helvetica,sans-Serif" font-size="10.00">vector</text>
</g>
<!-- Node27&#45;&gt;Node29 -->
<g id="edge34" class="edge"><title>Node27&#45;&gt;Node29</title>
<path fill="none" stroke="midnightblue" d="M1351.89,-273.751C1356.74,-263.829 1364.51,-247.069 1369.5,-232 1376.48,-210.934 1381.89,-185.991 1385.13,-169.298"/>
<polygon fill="midnightblue" stroke="midnightblue" points="1388.62,-169.68 1387.01,-159.208 1381.73,-168.397 1388.62,-169.68"/>
</g>
<!-- Node30 -->
<g id="node30" class="node"><title>Node30</title>
<polygon fill="white" stroke="#bfbfbf" points="1416.5,-207 1416.5,-226 1468.5,-226 1468.5,-207 1416.5,-207"/>
<text text-anchor="middle" x="1442.5" y="-214" font-family="Helvetica,sans-Serif" font-size="10.00">sstream</text>
</g>
<!-- Node27&#45;&gt;Node30 -->
<g id="edge35" class="edge"><title>Node27&#45;&gt;Node30</title>
<path fill="none" stroke="midnightblue" d="M1360.31,-273.734C1375.98,-263.013 1402.72,-244.716 1421.43,-231.914"/>
<polygon fill="midnightblue" stroke="midnightblue" points="1423.61,-234.663 1429.89,-226.127 1419.66,-228.886 1423.61,-234.663"/>
</g>
<!-- Node31 -->
<g id="node31" class="node"><title>Node31</title>
<polygon fill="white" stroke="#bfbfbf" points="1486.5,-207 1486.5,-226 1536.5,-226 1536.5,-207 1486.5,-207"/>
<text text-anchor="middle" x="1511.5" y="-214" font-family="Helvetica,sans-Serif" font-size="10.00">iomanip</text>
</g>
<!-- Node27&#45;&gt;Node31 -->
<g id="edge36" class="edge"><title>Node27&#45;&gt;Node31</title>
<path fill="none" stroke="midnightblue" d="M1370.13,-273.964C1396.14,-264.097 1440.05,-247.254 1477.5,-232 1479.09,-231.351 1480.73,-230.679 1482.37,-229.995"/>
<polygon fill="midnightblue" stroke="midnightblue" points="1483.91,-233.147 1491.77,-226.043 1481.19,-226.694 1483.91,-233.147"/>
</g>
<!-- Node32 -->
<g id="node32" class="node"><title>Node32</title>
<polygon fill="white" stroke="#bfbfbf" points="1182.5,-207 1182.5,-226 1236.5,-226 1236.5,-207 1182.5,-207"/>
<text text-anchor="middle" x="1209.5" y="-214" font-family="Helvetica,sans-Serif" font-size="10.00">iostream</text>
</g>
<!-- Node27&#45;&gt;Node32 -->
<g id="edge37" class="edge"><title>Node27&#45;&gt;Node32</title>
<path fill="none" stroke="midnightblue" d="M1329.17,-273.869C1305.56,-262.748 1264.31,-243.317 1236.95,-230.429"/>
<polygon fill="midnightblue" stroke="midnightblue" points="1238.44,-227.262 1227.9,-226.167 1235.46,-233.595 1238.44,-227.262"/>
</g>
<!-- Node33 -->
<g id="node33" class="node"><title>Node33</title>
<polygon fill="white" stroke="#bfbfbf" points="1255,-201.5 1255,-231.5 1360,-231.5 1360,-201.5 1255,-201.5"/>
<text text-anchor="start" x="1263" y="-219.5" font-family="Helvetica,sans-Serif" font-size="10.00">boost/units/systems</text>
<text text-anchor="middle" x="1307.5" y="-208.5" font-family="Helvetica,sans-Serif" font-size="10.00">/si/io.hpp</text>
</g>
<!-- Node27&#45;&gt;Node33 -->
<g id="edge38" class="edge"><title>Node27&#45;&gt;Node33</title>
<path fill="none" stroke="midnightblue" d="M1342.11,-273.734C1336.86,-265.203 1328.65,-251.874 1321.55,-240.334"/>
<polygon fill="midnightblue" stroke="midnightblue" points="1324.39,-238.271 1316.17,-231.589 1318.43,-241.94 1324.39,-238.271"/>
</g>
<!-- Node36 -->
<g id="node36" class="node"><title>Node36</title>
<g id="a_node36"><a xlink:href="Tag_8hh.html" target="_top" xlink:title="boca/identification\l/Tag.hh">
<polygon fill="white" stroke="black" points="1509,-268.5 1509,-298.5 1604,-298.5 1604,-268.5 1509,-268.5"/>
<text text-anchor="start" x="1517" y="-286.5" font-family="Helvetica,sans-Serif" font-size="10.00">boca/identification</text>
<text text-anchor="middle" x="1556.5" y="-275.5" font-family="Helvetica,sans-Serif" font-size="10.00">/Tag.hh</text>
</a>
</g>
</g>
<!-- Node35&#45;&gt;Node36 -->
<g id="edge41" class="edge"><title>Node35&#45;&gt;Node36</title>
<path fill="none" stroke="midnightblue" d="M1423.39,-335.396C1448.89,-325.643 1483.02,-312.595 1510.33,-302.152"/>
<polygon fill="midnightblue" stroke="midnightblue" points="1511.59,-305.417 1519.68,-298.577 1509.09,-298.879 1511.59,-305.417"/>
</g>
<!-- Node36&#45;&gt;Node28 -->
<g id="edge42" class="edge"><title>Node36&#45;&gt;Node28</title>
<path fill="none" stroke="midnightblue" d="M1564.5,-268.438C1569.63,-258.585 1575.81,-244.92 1578.5,-232 1583.02,-210.325 1577.01,-185.188 1571.52,-168.626"/>
<polygon fill="midnightblue" stroke="midnightblue" points="1574.78,-167.334 1568.1,-159.103 1568.19,-169.698 1574.78,-167.334"/>
</g>
<!-- Node38 -->
<g id="node38" class="node"><title>Node38</title>
<g id="a_node38"><a xlink:href="Family_8hh.html" target="_top" xlink:title="boca/identification\l/Family.hh">
<polygon fill="white" stroke="black" points="1069,-268.5 1069,-298.5 1164,-298.5 1164,-268.5 1069,-268.5"/>
<text text-anchor="start" x="1077" y="-286.5" font-family="Helvetica,sans-Serif" font-size="10.00">boca/identification</text>
<text text-anchor="middle" x="1116.5" y="-275.5" font-family="Helvetica,sans-Serif" font-size="10.00">/Family.hh</text>
</a>
</g>
</g>
<!-- Node37&#45;&gt;Node38 -->
<g id="edge44" class="edge"><title>Node37&#45;&gt;Node38</title>
<path fill="none" stroke="midnightblue" d="M1141.56,-335.396C1137.57,-327.304 1132.47,-316.944 1127.91,-307.685"/>
<polygon fill="midnightblue" stroke="midnightblue" points="1130.99,-306.002 1123.43,-298.577 1124.71,-309.094 1130.99,-306.002"/>
</g>
<!-- Node39 -->
<g id="node39" class="node"><title>Node39</title>
<polygon fill="white" stroke="#bfbfbf" points="841.5,-207 841.5,-226 937.5,-226 937.5,-207 841.5,-207"/>
<text text-anchor="middle" x="889.5" y="-214" font-family="Helvetica,sans-Serif" font-size="10.00">boost/optional.hpp</text>
</g>
<!-- Node38&#45;&gt;Node39 -->
<g id="edge45" class="edge"><title>Node38&#45;&gt;Node39</title>
<path fill="none" stroke="midnightblue" d="M1068.91,-268.874C1027.5,-257.016 968.174,-240.028 929.252,-228.883"/>
<polygon fill="midnightblue" stroke="midnightblue" points="929.911,-225.431 919.334,-226.043 927.984,-232.16 929.911,-225.431"/>
</g>
<!-- Node40 -->
<g id="node40" class="node"><title>Node40</title>
<g id="a_node40"><a xlink:href="Id_8hh.html" target="_top" xlink:title="boca/identification\l/Id.hh">
<polygon fill="white" stroke="black" points="1069,-201.5 1069,-231.5 1164,-231.5 1164,-201.5 1069,-201.5"/>
<text text-anchor="start" x="1077" y="-219.5" font-family="Helvetica,sans-Serif" font-size="10.00">boca/identification</text>
<text text-anchor="middle" x="1116.5" y="-208.5" font-family="Helvetica,sans-Serif" font-size="10.00">/Id.hh</text>
</a>
</g>
</g>
<!-- Node38&#45;&gt;Node40 -->
<g id="edge46" class="edge"><title>Node38&#45;&gt;Node40</title>
<path fill="none" stroke="midnightblue" d="M1116.5,-268.396C1116.5,-260.645 1116.5,-250.812 1116.5,-241.86"/>
<polygon fill="midnightblue" stroke="midnightblue" points="1120,-241.576 1116.5,-231.577 1113,-241.577 1120,-241.576"/>
</g>
<!-- Node41 -->
<g id="node41" class="node"><title>Node41</title>
<g id="a_node41"><a xlink:href="Member_8hh.html" target="_top" xlink:title="boca/identification\l/Member.hh">
<polygon fill="white" stroke="black" points="956,-201.5 956,-231.5 1051,-231.5 1051,-201.5 956,-201.5"/>
<text text-anchor="start" x="964" y="-219.5" font-family="Helvetica,sans-Serif" font-size="10.00">boca/identification</text>
<text text-anchor="middle" x="1003.5" y="-208.5" font-family="Helvetica,sans-Serif" font-size="10.00">/Member.hh</text>
</a>
</g>
</g>
<!-- Node38&#45;&gt;Node41 -->
<g id="edge50" class="edge"><title>Node38&#45;&gt;Node41</title>
<path fill="none" stroke="midnightblue" d="M1091.98,-268.396C1075.84,-259.112 1054.51,-246.841 1036.83,-236.674"/>
<polygon fill="midnightblue" stroke="midnightblue" points="1038.38,-233.529 1027.97,-231.577 1034.89,-239.597 1038.38,-233.529"/>
</g>
<!-- Node40&#45;&gt;Node22 -->
<g id="edge49" class="edge"><title>Node40&#45;&gt;Node22</title>
<path fill="none" stroke="midnightblue" d="M1095.02,-201.396C1078.42,-190.496 1055.54,-175.479 1038.95,-164.584"/>
<polygon fill="midnightblue" stroke="midnightblue" points="1040.74,-161.57 1030.46,-159.007 1036.9,-167.421 1040.74,-161.57"/>
</g>
<!-- Node40&#45;&gt;Node28 -->
<g id="edge47" class="edge"><title>Node40&#45;&gt;Node28</title>
<path fill="none" stroke="midnightblue" d="M1164.3,-202.895C1167.4,-202.214 1170.49,-201.575 1173.5,-201 1306.28,-175.632 1466.91,-159.349 1533.38,-153.232"/>
<polygon fill="midnightblue" stroke="midnightblue" points="1533.95,-156.695 1543.59,-152.305 1533.31,-149.724 1533.95,-156.695"/>
</g>
<!-- Node40&#45;&gt;Node29 -->
<g id="edge48" class="edge"><title>Node40&#45;&gt;Node29</title>
<path fill="none" stroke="midnightblue" d="M1164.04,-203.196C1167.24,-202.433 1170.41,-201.694 1173.5,-201 1254.8,-182.721 1278.28,-190.845 1357.5,-165 1359.17,-164.455 1360.87,-163.843 1362.56,-163.186"/>
<polygon fill="midnightblue" stroke="midnightblue" points="1364.27,-166.262 1372.07,-159.094 1361.5,-159.832 1364.27,-166.262"/>
</g>
<!-- Node42 -->
<g id="node42" class="node"><title>Node42</title>
<g id="a_node42"><a xlink:href="LorentzVector_8hh.html" target="_top" xlink:title="boca/math/LorentzVector.hh">
<polygon fill="white" stroke="black" points="1208.5,-140 1208.5,-159 1348.5,-159 1348.5,-140 1208.5,-140"/>
<text text-anchor="middle" x="1278.5" y="-147" font-family="Helvetica,sans-Serif" font-size="10.00">boca/math/LorentzVector.hh</text>
</a>
</g>
</g>
<!-- Node41&#45;&gt;Node42 -->
<g id="edge51" class="edge"><title>Node41&#45;&gt;Node42</title>
<path fill="none" stroke="midnightblue" d="M1051.07,-203.318C1054.26,-202.526 1057.42,-201.747 1060.5,-201 1118.99,-186.788 1186.53,-171.282 1230.74,-161.253"/>
<polygon fill="midnightblue" stroke="midnightblue" points="1231.65,-164.635 1240.63,-159.012 1230.11,-157.808 1231.65,-164.635"/>
</g>
<!-- Node43 -->
<g id="node43" class="node"><title>Node43</title>
<g id="a_node43"><a xlink:href="delphes_2delphes_2Forward_8hh.html" target="_top" xlink:title="external/delphes/delphes\l/Forward.hh">
<polygon fill="white" stroke="black" points="1539,-67.5 1539,-97.5 1664,-97.5 1664,-67.5 1539,-67.5"/>
<text text-anchor="start" x="1547" y="-85.5" font-family="Helvetica,sans-Serif" font-size="10.00">external/delphes/delphes</text>
<text text-anchor="middle" x="1601.5" y="-74.5" font-family="Helvetica,sans-Serif" font-size="10.00">/Forward.hh</text>
</a>
</g>
</g>
<!-- Node42&#45;&gt;Node43 -->
<g id="edge52" class="edge"><title>Node42&#45;&gt;Node43</title>
<path fill="none" stroke="midnightblue" d="M1321.06,-139.936C1373.91,-129.301 1464.88,-110.993 1528.85,-98.1195"/>
<polygon fill="midnightblue" stroke="midnightblue" points="1529.76,-101.506 1538.88,-96.102 1528.38,-94.6437 1529.76,-101.506"/>
</g>
<!-- Node45 -->
<g id="node45" class="node"><title>Node45</title>
<g id="a_node45"><a xlink:href="exroot_2exroot_2Forward_8hh.html" target="_top" xlink:title="external/exroot/exroot\l/Forward.hh">
<polygon fill="white" stroke="black" points="1223,-67.5 1223,-97.5 1334,-97.5 1334,-67.5 1223,-67.5"/>
<text text-anchor="start" x="1231" y="-85.5" font-family="Helvetica,sans-Serif" font-size="10.00">external/exroot/exroot</text>
<text text-anchor="middle" x="1278.5" y="-74.5" font-family="Helvetica,sans-Serif" font-size="10.00">/Forward.hh</text>
</a>
</g>
</g>
<!-- Node42&#45;&gt;Node45 -->
<g id="edge54" class="edge"><title>Node42&#45;&gt;Node45</title>
<path fill="none" stroke="midnightblue" d="M1278.5,-139.734C1278.5,-131.541 1278.5,-118.923 1278.5,-107.714"/>
<polygon fill="midnightblue" stroke="midnightblue" points="1282,-107.589 1278.5,-97.589 1275,-107.589 1282,-107.589"/>
</g>
<!-- Node47 -->
<g id="node47" class="node"><title>Node47</title>
<g id="a_node47"><a xlink:href="LorentzVectorBase_8hh.html" target="_top" xlink:title="boca/math/LorentzVectorBase.hh">
<polygon fill="white" stroke="black" points="1352.5,-73 1352.5,-92 1514.5,-92 1514.5,-73 1352.5,-73"/>
<text text-anchor="middle" x="1433.5" y="-80" font-family="Helvetica,sans-Serif" font-size="10.00">boca/math/LorentzVectorBase.hh</text>
</a>
</g>
</g>
<!-- Node42&#45;&gt;Node47 -->
<g id="edge56" class="edge"><title>Node42&#45;&gt;Node47</title>
<path fill="none" stroke="midnightblue" d="M1299.08,-139.869C1325.83,-128.65 1372.75,-108.977 1403.47,-96.0925"/>
<polygon fill="midnightblue" stroke="midnightblue" points="1404.96,-99.2622 1412.83,-92.1672 1402.26,-92.8068 1404.96,-99.2622"/>
</g>
<!-- Node44 -->
<g id="node44" class="node"><title>Node44</title>
<g id="a_node44"><a xlink:href="delphes_2delphes_2TypeDef_8hh.html" target="_top" xlink:title="external/delphes/delphes\l/TypeDef.hh">
<polygon fill="white" stroke="black" points="1542,-0.5 1542,-30.5 1667,-30.5 1667,-0.5 1542,-0.5"/>
<text text-anchor="start" x="1550" y="-18.5" font-family="Helvetica,sans-Serif" font-size="10.00">external/delphes/delphes</text>
<text text-anchor="middle" x="1604.5" y="-7.5" font-family="Helvetica,sans-Serif" font-size="10.00">/TypeDef.hh</text>
</a>
</g>
</g>
<!-- Node43&#45;&gt;Node44 -->
<g id="edge53" class="edge"><title>Node43&#45;&gt;Node44</title>
<path fill="none" stroke="midnightblue" d="M1602.15,-67.396C1602.51,-59.6448 1602.96,-49.8122 1603.38,-40.8601"/>
<polygon fill="midnightblue" stroke="midnightblue" points="1606.89,-40.7273 1603.85,-30.5765 1599.89,-40.4045 1606.89,-40.7273"/>
</g>
<!-- Node46 -->
<g id="node46" class="node"><title>Node46</title>
<g id="a_node46"><a xlink:href="exroot_2exroot_2TypeDef_8hh.html" target="_top" xlink:title="external/exroot/exroot\l/TypeDef.hh">
<polygon fill="white" stroke="black" points="1219,-0.5 1219,-30.5 1330,-30.5 1330,-0.5 1219,-0.5"/>
<text text-anchor="start" x="1227" y="-18.5" font-family="Helvetica,sans-Serif" font-size="10.00">external/exroot/exroot</text>
<text text-anchor="middle" x="1274.5" y="-7.5" font-family="Helvetica,sans-Serif" font-size="10.00">/TypeDef.hh</text>
</a>
</g>
</g>
<!-- Node45&#45;&gt;Node46 -->
<g id="edge55" class="edge"><title>Node45&#45;&gt;Node46</title>
<path fill="none" stroke="midnightblue" d="M1277.63,-67.396C1277.15,-59.5597 1276.54,-49.5958 1275.98,-40.5653"/>
<polygon fill="midnightblue" stroke="midnightblue" points="1279.47,-40.3426 1275.37,-30.5765 1272.49,-40.7726 1279.47,-40.3426"/>
</g>
<!-- Node48 -->
<g id="node48" class="node"><title>Node48</title>
<polygon fill="white" stroke="#bfbfbf" points="1479,-6 1479,-25 1524,-25 1524,-6 1479,-6"/>
<text text-anchor="middle" x="1501.5" y="-13" font-family="Helvetica,sans-Serif" font-size="10.00">climits</text>
</g>
<!-- Node47&#45;&gt;Node48 -->
<g id="edge57" class="edge"><title>Node47&#45;&gt;Node48</title>
<path fill="none" stroke="midnightblue" d="M1442.67,-72.7338C1453.48,-62.403 1471.65,-45.0371 1484.94,-32.3315"/>
<polygon fill="midnightblue" stroke="midnightblue" points="1487.66,-34.5672 1492.47,-25.1273 1482.83,-29.5071 1487.66,-34.5672"/>
</g>
<!-- Node49 -->
<g id="node49" class="node"><title>Node49</title>
<g id="a_node49"><a xlink:href="Vector3_8hh.html" target="_top" xlink:title="boca/math/Vector3.hh">
<polygon fill="white" stroke="red" points="1348,-6 1348,-25 1461,-25 1461,-6 1348,-6"/>
<text text-anchor="middle" x="1404.5" y="-13" font-family="Helvetica,sans-Serif" font-size="10.00">boca/math/Vector3.hh</text>
</a>
</g>
</g>
<!-- Node47&#45;&gt;Node49 -->
<g id="edge58" class="edge"><title>Node47&#45;&gt;Node49</title>
<path fill="none" stroke="midnightblue" d="M1429.59,-72.7338C1425.24,-62.9877 1418.1,-46.9805 1412.54,-34.5318"/>
<polygon fill="midnightblue" stroke="midnightblue" points="1415.62,-32.8336 1408.35,-25.1273 1409.23,-35.6857 1415.62,-32.8336"/>
</g>
<!-- Node50&#45;&gt;Node27 -->
<g id="edge60" class="edge"><title>Node50&#45;&gt;Node27</title>
<path fill="none" stroke="midnightblue" d="M1214.32,-458.369C1240.37,-424.361 1306.47,-338.064 1334.56,-301.397"/>
<polygon fill="midnightblue" stroke="midnightblue" points="1337.53,-303.273 1340.83,-293.206 1331.97,-299.017 1337.53,-303.273"/>
</g>
</g>
</svg>
