<?xml version="1.0" encoding="UTF-8" standalone="no"?>
<!DOCTYPE svg PUBLIC "-//W3C//DTD SVG 1.1//EN"
 "http://www.w3.org/Graphics/SVG/1.1/DTD/svg11.dtd">
<!-- Generated by graphviz version 2.38.0 (20140413.2041)
 -->
<!-- Title: examples/higgscpv/source Pages: 1 -->
<svg width="254pt" height="231pt"
 viewBox="0.00 0.00 254.00 231.00" xmlns="http://www.w3.org/2000/svg" xmlns:xlink="http://www.w3.org/1999/xlink">
<g id="graph0" class="graph" transform="scale(1 1) rotate(0) translate(4 227)">
<title>examples/higgscpv/source</title>
<polygon fill="white" stroke="none" points="-4,4 -4,-227 250,-227 250,4 -4,4"/>
<g id="clust1" class="cluster"><title>clusterdir_8d00d367031bb2ea52845b36f38a122a</title>
<g id="a_clust1"><a xlink:href="dir_8d00d367031bb2ea52845b36f38a122a.html" target="_top" xlink:title="higgscpv">
<polygon fill="#ddddee" stroke="black" points="8,-128 8,-215 238,-215 238,-128 8,-128"/>
<text text-anchor="middle" x="123" y="-203" font-family="Helvetica,sans-Serif" font-size="10.00">higgscpv</text>
</a>
</g>
</g>
<g id="clust2" class="cluster"><title>clusterdir_4e201f32d40ce260a40f2838eabbc4a3</title>
<g id="a_clust2"><a xlink:href="dir_4e201f32d40ce260a40f2838eabbc4a3.html" target="_top">
<polygon fill="#eeeeff" stroke="black" points="16,-136 16,-188 230,-188 230,-136 16,-136"/>
</a>
</g>
</g>
<!-- dir_4e201f32d40ce260a40f2838eabbc4a3 -->
<g id="node1" class="node"><title>dir_4e201f32d40ce260a40f2838eabbc4a3</title>
<text text-anchor="middle" x="195" y="-159.5" font-family="Helvetica,sans-Serif" font-size="10.00">source</text>
</g>
<!-- dir_c5b2d0527e3b5e2cef27889b0ea27b19 -->
<g id="node2" class="node"><title>dir_c5b2d0527e3b5e2cef27889b0ea27b19</title>
<g id="a_node2"><a xlink:href="dir_c5b2d0527e3b5e2cef27889b0ea27b19.html" target="_top" xlink:title="branch">
<polygon fill="white" stroke="black" points="78,-180 24,-180 24,-144 78,-144 78,-180"/>
<text text-anchor="middle" x="51" y="-159.5" font-family="Helvetica,sans-Serif" font-size="10.00">branch</text>
</a>
</g>
</g>
<!-- dir_56e94a32706ec4e1941727147bfeb478 -->
<g id="node4" class="node"><title>dir_56e94a32706ec4e1941727147bfeb478</title>
<g id="a_node4"><a xlink:href="dir_56e94a32706ec4e1941727147bfeb478.html" target="_top" xlink:title="higgscpv">
<polygon fill="white" stroke="red" points="115,-108 59,-108 59,-72 115,-72 115,-108"/>
<text text-anchor="middle" x="87" y="-87.5" font-family="Helvetica,sans-Serif" font-size="10.00">higgscpv</text>
</a>
</g>
</g>
<!-- dir_c5b2d0527e3b5e2cef27889b0ea27b19&#45;&gt;dir_56e94a32706ec4e1941727147bfeb478 -->
<g id="edge4" class="edge"><title>dir_c5b2d0527e3b5e2cef27889b0ea27b19&#45;&gt;dir_56e94a32706ec4e1941727147bfeb478</title>
<path fill="none" stroke="black" d="M59.8989,-143.697C63.9968,-135.728 68.9488,-126.1 73.4927,-117.264"/>
<polygon fill="black" stroke="black" points="76.7425,-118.598 78.2035,-108.104 70.5174,-115.396 76.7425,-118.598"/>
<g id="a_edge4&#45;headlabel"><a xlink:href="dir_000057_000006.html" target="_top" xlink:title="10">
<text text-anchor="middle" x="77.6235" y="-120.593" font-family="Helvetica,sans-Serif" font-size="10.00">10</text>
</a>
</g>
</g>
<!-- dir_73d39a1d0a5c40ea18275712d785386a -->
<g id="node5" class="node"><title>dir_73d39a1d0a5c40ea18275712d785386a</title>
<g id="a_node5"><a xlink:href="dir_73d39a1d0a5c40ea18275712d785386a.html" target="_top" xlink:title="boca">
<polygon fill="white" stroke="red" points="114,-36 60,-36 60,-0 114,-0 114,-36"/>
<text text-anchor="middle" x="87" y="-15.5" font-family="Helvetica,sans-Serif" font-size="10.00">boca</text>
</a>
</g>
</g>
<!-- dir_c5b2d0527e3b5e2cef27889b0ea27b19&#45;&gt;dir_73d39a1d0a5c40ea18275712d785386a -->
<g id="edge5" class="edge"><title>dir_c5b2d0527e3b5e2cef27889b0ea27b19&#45;&gt;dir_73d39a1d0a5c40ea18275712d785386a</title>
<path fill="none" stroke="black" d="M47.708,-143.81C44.9147,-125.539 42.4429,-96.0269 50,-72 53.0986,-62.1483 58.7512,-52.5302 64.7209,-44.2511"/>
<polygon fill="black" stroke="black" points="67.6293,-46.2111 70.9631,-36.1544 62.0855,-41.9371 67.6293,-46.2111"/>
<g id="a_edge5&#45;headlabel"><a xlink:href="dir_000057_000000.html" target="_top" xlink:title="12">
<text text-anchor="middle" x="67.6832" y="-48.2914" font-family="Helvetica,sans-Serif" font-size="10.00">12</text>
</a>
</g>
</g>
<!-- dir_5765dab87d41b20bee48700eed9afb9e -->
<g id="node3" class="node"><title>dir_5765dab87d41b20bee48700eed9afb9e</title>
<g id="a_node3"><a xlink:href="dir_5765dab87d41b20bee48700eed9afb9e.html" target="_top" xlink:title="tagger">
<polygon fill="white" stroke="black" points="150,-180 96,-180 96,-144 150,-144 150,-180"/>
<text text-anchor="middle" x="123" y="-159.5" font-family="Helvetica,sans-Serif" font-size="10.00">tagger</text>
</a>
</g>
</g>
<!-- dir_5765dab87d41b20bee48700eed9afb9e&#45;&gt;dir_56e94a32706ec4e1941727147bfeb478 -->
<g id="edge2" class="edge"><title>dir_5765dab87d41b20bee48700eed9afb9e&#45;&gt;dir_56e94a32706ec4e1941727147bfeb478</title>
<path fill="none" stroke="black" d="M114.101,-143.697C110.003,-135.728 105.051,-126.1 100.507,-117.264"/>
<polygon fill="black" stroke="black" points="103.483,-115.396 95.7965,-108.104 97.2575,-118.598 103.483,-115.396"/>
<g id="a_edge2&#45;headlabel"><a xlink:href="dir_000064_000006.html" target="_top" xlink:title="8">
<text text-anchor="middle" x="107.651" y="-114.795" font-family="Helvetica,sans-Serif" font-size="10.00">8</text>
</a>
</g>
</g>
<!-- dir_5765dab87d41b20bee48700eed9afb9e&#45;&gt;dir_73d39a1d0a5c40ea18275712d785386a -->
<g id="edge3" class="edge"><title>dir_5765dab87d41b20bee48700eed9afb9e&#45;&gt;dir_73d39a1d0a5c40ea18275712d785386a</title>
<path fill="none" stroke="black" d="M126.292,-143.81C129.085,-125.539 131.557,-96.0269 124,-72 120.901,-62.1483 115.249,-52.5302 109.279,-44.2511"/>
<polygon fill="black" stroke="black" points="111.914,-41.9371 103.037,-36.1544 106.371,-46.2111 111.914,-41.9371"/>
<g id="a_edge3&#45;headlabel"><a xlink:href="dir_000064_000000.html" target="_top" xlink:title="31">
<text text-anchor="middle" x="116.358" y="-40.5503" font-family="Helvetica,sans-Serif" font-size="10.00">31</text>
</a>
</g>
</g>
<!-- dir_56e94a32706ec4e1941727147bfeb478&#45;&gt;dir_73d39a1d0a5c40ea18275712d785386a -->
<g id="edge1" class="edge"><title>dir_56e94a32706ec4e1941727147bfeb478&#45;&gt;dir_73d39a1d0a5c40ea18275712d785386a</title>
<path fill="none" stroke="black" d="M87,-71.6966C87,-63.9827 87,-54.7125 87,-46.1124"/>
<polygon fill="black" stroke="black" points="90.5001,-46.1043 87,-36.1043 83.5001,-46.1044 90.5001,-46.1043"/>
<g id="a_edge1&#45;headlabel"><a xlink:href="dir_000006_000000.html" target="_top" xlink:title="20">
<text text-anchor="middle" x="93.3393" y="-47.199" font-family="Helvetica,sans-Serif" font-size="10.00">20</text>
</a>
</g>
</g>
</g>
</svg>
