<?xml version="1.0" encoding="UTF-8" standalone="no"?>
<!DOCTYPE svg PUBLIC "-//W3C//DTD SVG 1.1//EN"
 "http://www.w3.org/Graphics/SVG/1.1/DTD/svg11.dtd">
<!-- Generated by graphviz version 2.38.0 (20140413.2041)
 -->
<!-- Title: examples/cut Pages: 1 -->
<svg width="182pt" height="231pt"
 viewBox="0.00 0.00 182.00 231.00" xmlns="http://www.w3.org/2000/svg" xmlns:xlink="http://www.w3.org/1999/xlink">
<g id="graph0" class="graph" transform="scale(1 1) rotate(0) translate(4 227)">
<title>examples/cut</title>
<polygon fill="white" stroke="none" points="-4,4 -4,-227 178,-227 178,4 -4,4"/>
<g id="clust1" class="cluster"><title>clusterdir_d28a4824dc47e487b107a5db32ef43c4</title>
<g id="a_clust1"><a xlink:href="dir_d28a4824dc47e487b107a5db32ef43c4.html" target="_top" xlink:title="examples">
<polygon fill="#ddddee" stroke="black" points="8,-56 8,-215 166,-215 166,-56 8,-56"/>
<text text-anchor="middle" x="87" y="-203" font-family="Helvetica,sans-Serif" font-size="10.00">examples</text>
</a>
</g>
</g>
<g id="clust2" class="cluster"><title>clusterdir_5eea23dc08758a19f579a6e3646cb90a</title>
<g id="a_clust2"><a xlink:href="dir_5eea23dc08758a19f579a6e3646cb90a.html" target="_top">
<polygon fill="#eeeeff" stroke="black" points="16,-64 16,-188 158,-188 158,-64 16,-64"/>
</a>
</g>
</g>
<!-- dir_5eea23dc08758a19f579a6e3646cb90a -->
<g id="node1" class="node"><title>dir_5eea23dc08758a19f579a6e3646cb90a</title>
<text text-anchor="middle" x="123" y="-159.5" font-family="Helvetica,sans-Serif" font-size="10.00">cut</text>
</g>
<!-- dir_74656afce6fc50b6d45358dad3e7c88f -->
<g id="node2" class="node"><title>dir_74656afce6fc50b6d45358dad3e7c88f</title>
<g id="a_node2"><a xlink:href="dir_74656afce6fc50b6d45358dad3e7c88f.html" target="_top" xlink:title="cut">
<polygon fill="white" stroke="black" points="78,-108 24,-108 24,-72 78,-72 78,-108"/>
<text text-anchor="middle" x="51" y="-87.5" font-family="Helvetica,sans-Serif" font-size="10.00">cut</text>
</a>
</g>
</g>
<!-- dir_73d39a1d0a5c40ea18275712d785386a -->
<g id="node4" class="node"><title>dir_73d39a1d0a5c40ea18275712d785386a</title>
<g id="a_node4"><a xlink:href="dir_73d39a1d0a5c40ea18275712d785386a.html" target="_top" xlink:title="boca">
<polygon fill="white" stroke="red" points="78,-36 24,-36 24,-0 78,-0 78,-36"/>
<text text-anchor="middle" x="51" y="-15.5" font-family="Helvetica,sans-Serif" font-size="10.00">boca</text>
</a>
</g>
</g>
<!-- dir_74656afce6fc50b6d45358dad3e7c88f&#45;&gt;dir_73d39a1d0a5c40ea18275712d785386a -->
<g id="edge1" class="edge"><title>dir_74656afce6fc50b6d45358dad3e7c88f&#45;&gt;dir_73d39a1d0a5c40ea18275712d785386a</title>
<path fill="none" stroke="black" d="M51,-71.6966C51,-63.9827 51,-54.7125 51,-46.1124"/>
<polygon fill="black" stroke="black" points="54.5001,-46.1043 51,-36.1043 47.5001,-46.1044 54.5001,-46.1043"/>
<g id="a_edge1&#45;headlabel"><a xlink:href="dir_000004_000000.html" target="_top" xlink:title="1">
<text text-anchor="middle" x="57.3393" y="-47.199" font-family="Helvetica,sans-Serif" font-size="10.00">1</text>
</a>
</g>
</g>
<!-- dir_23a0189d341a4876fe0ade272db91713 -->
<g id="node3" class="node"><title>dir_23a0189d341a4876fe0ade272db91713</title>
<g id="a_node3"><a xlink:href="dir_23a0189d341a4876fe0ade272db91713.html" target="_top" xlink:title="source">
<polygon fill="white" stroke="black" points="78,-180 24,-180 24,-144 78,-144 78,-180"/>
<text text-anchor="middle" x="51" y="-159.5" font-family="Helvetica,sans-Serif" font-size="10.00">source</text>
</a>
</g>
</g>
<!-- dir_23a0189d341a4876fe0ade272db91713&#45;&gt;dir_74656afce6fc50b6d45358dad3e7c88f -->
<g id="edge2" class="edge"><title>dir_23a0189d341a4876fe0ade272db91713&#45;&gt;dir_74656afce6fc50b6d45358dad3e7c88f</title>
<path fill="none" stroke="black" d="M51,-143.697C51,-135.983 51,-126.712 51,-118.112"/>
<polygon fill="black" stroke="black" points="54.5001,-118.104 51,-108.104 47.5001,-118.104 54.5001,-118.104"/>
<g id="a_edge2&#45;headlabel"><a xlink:href="dir_000045_000004.html" target="_top" xlink:title="1">
<text text-anchor="middle" x="57.3393" y="-119.199" font-family="Helvetica,sans-Serif" font-size="10.00">1</text>
</a>
</g>
</g>
</g>
</svg>
