<?xml version="1.0" encoding="UTF-8" standalone="no"?>
<!DOCTYPE svg PUBLIC "-//W3C//DTD SVG 1.1//EN"
 "http://www.w3.org/Graphics/SVG/1.1/DTD/svg11.dtd">
<!-- Generated by graphviz version 2.38.0 (20140413.2041)
 -->
<!-- Title: boca/io Pages: 1 -->
<svg width="190pt" height="295pt"
 viewBox="0.00 0.00 189.54 295.00" xmlns="http://www.w3.org/2000/svg" xmlns:xlink="http://www.w3.org/1999/xlink">
<g id="graph0" class="graph" transform="scale(1 1) rotate(0) translate(4 291)">
<title>boca/io</title>
<polygon fill="white" stroke="none" points="-4,4 -4,-291 185.544,-291 185.544,4 -4,4"/>
<g id="clust1" class="cluster"><title>clusterdir_73d39a1d0a5c40ea18275712d785386a</title>
<g id="a_clust1"><a xlink:href="dir_73d39a1d0a5c40ea18275712d785386a.html" target="_top" xlink:title="boca">
<polygon fill="#ddddee" stroke="black" points="36.5442,-208 36.5442,-279 106.544,-279 106.544,-208 36.5442,-208"/>
<text text-anchor="middle" x="71.5442" y="-267" font-family="Helvetica,sans-Serif" font-size="10.00">boca</text>
</a>
</g>
</g>
<!-- dir_99df501f38d560940cf60a48318fda3d -->
<g id="node1" class="node"><title>dir_99df501f38d560940cf60a48318fda3d</title>
<g id="a_node1"><a xlink:href="dir_99df501f38d560940cf60a48318fda3d.html" target="_top" xlink:title="io">
<polygon fill="#eeeeff" stroke="black" points="98.5442,-252 44.5442,-252 44.5442,-216 98.5442,-216 98.5442,-252"/>
<text text-anchor="middle" x="71.5442" y="-231.5" font-family="Helvetica,sans-Serif" font-size="10.00">io</text>
</a>
</g>
</g>
<!-- dir_fae10df2d0cc5fc10b20f40d19484449 -->
<g id="node2" class="node"><title>dir_fae10df2d0cc5fc10b20f40d19484449</title>
<g id="a_node2"><a xlink:href="dir_fae10df2d0cc5fc10b20f40d19484449.html" target="_top" xlink:title="units">
<polygon fill="none" stroke="black" points="71.5442,-36 17.5442,-36 17.5442,-0 71.5442,-0 71.5442,-36"/>
<text text-anchor="middle" x="44.5442" y="-15.5" font-family="Helvetica,sans-Serif" font-size="10.00">units</text>
</a>
</g>
</g>
<!-- dir_99df501f38d560940cf60a48318fda3d&#45;&gt;dir_fae10df2d0cc5fc10b20f40d19484449 -->
<g id="edge3" class="edge"><title>dir_99df501f38d560940cf60a48318fda3d&#45;&gt;dir_fae10df2d0cc5fc10b20f40d19484449</title>
<path fill="none" stroke="black" d="M44.5343,-218.074C31.039,-209.005 16.0243,-196.068 8.54421,-180 -12.2494,-135.334 11.1562,-78.0001 28.7503,-45.1904"/>
<polygon fill="black" stroke="black" points="31.9345,-46.6664 33.7426,-36.2269 25.819,-43.2603 31.9345,-46.6664"/>
<g id="a_edge3&#45;headlabel"><a xlink:href="dir_000039_000044.html" target="_top" xlink:title="1">
<text text-anchor="middle" x="32.666" y="-48.6883" font-family="Helvetica,sans-Serif" font-size="10.00">1</text>
</a>
</g>
</g>
<!-- dir_750b4655bc22b2195e74dcaf094d1ef0 -->
<g id="node3" class="node"><title>dir_750b4655bc22b2195e74dcaf094d1ef0</title>
<g id="a_node3"><a xlink:href="dir_750b4655bc22b2195e74dcaf094d1ef0.html" target="_top" xlink:title="latex">
<polygon fill="none" stroke="black" points="71.5442,-180 17.5442,-180 17.5442,-144 71.5442,-144 71.5442,-180"/>
<text text-anchor="middle" x="44.5442" y="-159.5" font-family="Helvetica,sans-Serif" font-size="10.00">latex</text>
</a>
</g>
</g>
<!-- dir_99df501f38d560940cf60a48318fda3d&#45;&gt;dir_750b4655bc22b2195e74dcaf094d1ef0 -->
<g id="edge4" class="edge"><title>dir_99df501f38d560940cf60a48318fda3d&#45;&gt;dir_750b4655bc22b2195e74dcaf094d1ef0</title>
<path fill="none" stroke="black" d="M64.87,-215.697C61.8293,-207.813 58.1615,-198.304 54.7835,-189.546"/>
<polygon fill="black" stroke="black" points="58.0059,-188.175 51.1416,-180.104 51.4749,-190.694 58.0059,-188.175"/>
<g id="a_edge4&#45;headlabel"><a xlink:href="dir_000039_000040.html" target="_top" xlink:title="1">
<text text-anchor="middle" x="61.9485" y="-188.007" font-family="Helvetica,sans-Serif" font-size="10.00">1</text>
</a>
</g>
</g>
<!-- dir_2337fac8b5365dc59b1c5921b67f43d4 -->
<g id="node4" class="node"><title>dir_2337fac8b5365dc59b1c5921b67f43d4</title>
<g id="a_node4"><a xlink:href="dir_2337fac8b5365dc59b1c5921b67f43d4.html" target="_top" xlink:title="math">
<polygon fill="none" stroke="black" points="126.544,-108 72.5442,-108 72.5442,-72 126.544,-72 126.544,-108"/>
<text text-anchor="middle" x="99.5442" y="-87.5" font-family="Helvetica,sans-Serif" font-size="10.00">math</text>
</a>
</g>
</g>
<!-- dir_99df501f38d560940cf60a48318fda3d&#45;&gt;dir_2337fac8b5365dc59b1c5921b67f43d4 -->
<g id="edge5" class="edge"><title>dir_99df501f38d560940cf60a48318fda3d&#45;&gt;dir_2337fac8b5365dc59b1c5921b67f43d4</title>
<path fill="none" stroke="black" d="M74.9217,-215.871C79.7148,-191.564 88.5377,-146.819 94.2177,-118.013"/>
<polygon fill="black" stroke="black" points="97.654,-118.677 96.1548,-108.189 90.7862,-117.323 97.654,-118.677"/>
<g id="a_edge5&#45;headlabel"><a xlink:href="dir_000039_000041.html" target="_top" xlink:title="1">
<text text-anchor="middle" x="99.7443" y="-120.253" font-family="Helvetica,sans-Serif" font-size="10.00">1</text>
</a>
</g>
</g>
<!-- dir_68de08403bb78c7adb656b489378aa60 -->
<g id="node5" class="node"><title>dir_68de08403bb78c7adb656b489378aa60</title>
<g id="a_node5"><a xlink:href="dir_68de08403bb78c7adb656b489378aa60.html" target="_top" xlink:title="event">
<polygon fill="none" stroke="black" points="181.544,-180 127.544,-180 127.544,-144 181.544,-144 181.544,-180"/>
<text text-anchor="middle" x="154.544" y="-159.5" font-family="Helvetica,sans-Serif" font-size="10.00">event</text>
</a>
</g>
</g>
<!-- dir_99df501f38d560940cf60a48318fda3d&#45;&gt;dir_68de08403bb78c7adb656b489378aa60 -->
<g id="edge6" class="edge"><title>dir_99df501f38d560940cf60a48318fda3d&#45;&gt;dir_68de08403bb78c7adb656b489378aa60</title>
<path fill="none" stroke="black" d="M92.0611,-215.697C102.414,-206.965 115.13,-196.24 126.383,-186.75"/>
<polygon fill="black" stroke="black" points="128.875,-189.227 134.263,-180.104 124.363,-183.876 128.875,-189.227"/>
<g id="a_edge6&#45;headlabel"><a xlink:href="dir_000039_000017.html" target="_top" xlink:title="2">
<text text-anchor="middle" x="127.958" y="-191.215" font-family="Helvetica,sans-Serif" font-size="10.00">2</text>
</a>
</g>
</g>
<!-- dir_750b4655bc22b2195e74dcaf094d1ef0&#45;&gt;dir_fae10df2d0cc5fc10b20f40d19484449 -->
<g id="edge1" class="edge"><title>dir_750b4655bc22b2195e74dcaf094d1ef0&#45;&gt;dir_fae10df2d0cc5fc10b20f40d19484449</title>
<path fill="none" stroke="black" d="M44.5442,-143.871C44.5442,-119.67 44.5442,-75.2108 44.5442,-46.3932"/>
<polygon fill="black" stroke="black" points="48.0443,-46.1892 44.5442,-36.1893 41.0443,-46.1893 48.0443,-46.1892"/>
<g id="a_edge1&#45;headlabel"><a xlink:href="dir_000040_000044.html" target="_top" xlink:title="1">
<text text-anchor="middle" x="50.8835" y="-47.2839" font-family="Helvetica,sans-Serif" font-size="10.00">1</text>
</a>
</g>
</g>
<!-- dir_2337fac8b5365dc59b1c5921b67f43d4&#45;&gt;dir_fae10df2d0cc5fc10b20f40d19484449 -->
<g id="edge2" class="edge"><title>dir_2337fac8b5365dc59b1c5921b67f43d4&#45;&gt;dir_fae10df2d0cc5fc10b20f40d19484449</title>
<path fill="none" stroke="black" d="M85.9487,-71.6966C79.4215,-63.3893 71.4762,-53.2771 64.2976,-44.1407"/>
<polygon fill="black" stroke="black" points="66.9137,-41.8051 57.9833,-36.1043 61.4095,-46.1299 66.9137,-41.8051"/>
<g id="a_edge2&#45;headlabel"><a xlink:href="dir_000041_000044.html" target="_top" xlink:title="2">
<text text-anchor="middle" x="71.3671" y="-40.3775" font-family="Helvetica,sans-Serif" font-size="10.00">2</text>
</a>
</g>
</g>
<!-- dir_68de08403bb78c7adb656b489378aa60&#45;&gt;dir_2337fac8b5365dc59b1c5921b67f43d4 -->
<g id="edge7" class="edge"><title>dir_68de08403bb78c7adb656b489378aa60&#45;&gt;dir_2337fac8b5365dc59b1c5921b67f43d4</title>
<path fill="none" stroke="black" d="M140.949,-143.697C134.422,-135.389 126.476,-125.277 119.298,-116.141"/>
<polygon fill="black" stroke="black" points="121.914,-113.805 112.983,-108.104 116.409,-118.13 121.914,-113.805"/>
<g id="a_edge7&#45;headlabel"><a xlink:href="dir_000017_000041.html" target="_top" xlink:title="3">
<text text-anchor="middle" x="126.367" y="-112.377" font-family="Helvetica,sans-Serif" font-size="10.00">3</text>
</a>
</g>
</g>
</g>
</svg>
