<?xml version="1.0" encoding="UTF-8" standalone="no"?>
<!DOCTYPE svg PUBLIC "-//W3C//DTD SVG 1.1//EN"
 "http://www.w3.org/Graphics/SVG/1.1/DTD/svg11.dtd">
<!-- Generated by graphviz version 2.38.0 (20140413.2041)
 -->
<!-- Title: build Pages: 1 -->
<svg width="172pt" height="132pt"
 viewBox="0.00 0.00 172.00 132.00" xmlns="http://www.w3.org/2000/svg" xmlns:xlink="http://www.w3.org/1999/xlink">
<g id="graph0" class="graph" transform="scale(1 1) rotate(0) translate(4 128)">
<title>build</title>
<polygon fill="white" stroke="none" points="-4,4 -4,-128 168,-128 168,4 -4,4"/>
<g id="clust1" class="cluster"><title>clusterdir_4fef79e7177ba769987a8da36c892c5f</title>
<g id="a_clust1"><a xlink:href="dir_4fef79e7177ba769987a8da36c892c5f.html" target="_top">
<polygon fill="#eeeeff" stroke="black" points="8,-64 8,-116 156,-116 156,-64 8,-64"/>
</a>
</g>
</g>
<!-- dir_4fef79e7177ba769987a8da36c892c5f -->
<g id="node1" class="node"><title>dir_4fef79e7177ba769987a8da36c892c5f</title>
<text text-anchor="middle" x="121" y="-87.5" font-family="Helvetica,sans-Serif" font-size="10.00">build</text>
</g>
<!-- dir_7d0b9e2f0546c3d910b5684554a584b4 -->
<g id="node2" class="node"><title>dir_7d0b9e2f0546c3d910b5684554a584b4</title>
<g id="a_node2"><a xlink:href="dir_7d0b9e2f0546c3d910b5684554a584b4.html" target="_top" xlink:title="examples">
<polygon fill="white" stroke="red" points="75.5,-108 16.5,-108 16.5,-72 75.5,-72 75.5,-108"/>
<text text-anchor="middle" x="46" y="-87.5" font-family="Helvetica,sans-Serif" font-size="10.00">examples</text>
</a>
</g>
</g>
<!-- dir_d28a4824dc47e487b107a5db32ef43c4 -->
<g id="node3" class="node"><title>dir_d28a4824dc47e487b107a5db32ef43c4</title>
<g id="a_node3"><a xlink:href="dir_d28a4824dc47e487b107a5db32ef43c4.html" target="_top" xlink:title="examples">
<polygon fill="white" stroke="red" points="75.5,-36 16.5,-36 16.5,-0 75.5,-0 75.5,-36"/>
<text text-anchor="middle" x="46" y="-15.5" font-family="Helvetica,sans-Serif" font-size="10.00">examples</text>
</a>
</g>
</g>
<!-- dir_7d0b9e2f0546c3d910b5684554a584b4&#45;&gt;dir_d28a4824dc47e487b107a5db32ef43c4 -->
<g id="edge1" class="edge"><title>dir_7d0b9e2f0546c3d910b5684554a584b4&#45;&gt;dir_d28a4824dc47e487b107a5db32ef43c4</title>
<path fill="none" stroke="black" d="M46,-71.6966C46,-63.9827 46,-54.7125 46,-46.1124"/>
<polygon fill="black" stroke="black" points="49.5001,-46.1043 46,-36.1043 42.5001,-46.1044 49.5001,-46.1043"/>
<g id="a_edge1&#45;headlabel"><a xlink:href="dir_000035_000002.html" target="_top" xlink:title="1">
<text text-anchor="middle" x="52.3393" y="-47.199" font-family="Helvetica,sans-Serif" font-size="10.00">1</text>
</a>
</g>
</g>
</g>
</svg>
