<?xml version="1.0" encoding="UTF-8" standalone="no"?>
<!DOCTYPE svg PUBLIC "-//W3C//DTD SVG 1.1//EN"
 "http://www.w3.org/Graphics/SVG/1.1/DTD/svg11.dtd">
<!-- Generated by graphviz version 2.38.0 (20140413.2041)
 -->
<!-- Title: boca/multiplets/Doublet.hh Pages: 1 -->
<svg width="2257pt" height="453pt"
 viewBox="0.00 0.00 2257.00 453.00" xmlns="http://www.w3.org/2000/svg" xmlns:xlink="http://www.w3.org/1999/xlink">
<g id="graph0" class="graph" transform="scale(1 1) rotate(0) translate(4 449)">
<title>boca/multiplets/Doublet.hh</title>
<polygon fill="white" stroke="none" points="-4,4 -4,-449 2253,-449 2253,4 -4,4"/>
<!-- Node1 -->
<g id="node1" class="node"><title>Node1</title>
<polygon fill="#bfbfbf" stroke="black" points="1235.5,-425.5 1235.5,-444.5 1368.5,-444.5 1368.5,-425.5 1235.5,-425.5"/>
<text text-anchor="middle" x="1302" y="-432.5" font-family="Helvetica,sans-Serif" font-size="10.00">boca/multiplets/Doublet.hh</text>
</g>
<!-- Node2 -->
<g id="node2" class="node"><title>Node2</title>
<g id="a_node2"><a xlink:href="multiplets_2TwoBody_8hh.html" target="_top" xlink:title="boca/multiplets/TwoBody.hh">
<polygon fill="white" stroke="black" points="1232,-369.5 1232,-388.5 1372,-388.5 1372,-369.5 1232,-369.5"/>
<text text-anchor="middle" x="1302" y="-376.5" font-family="Helvetica,sans-Serif" font-size="10.00">boca/multiplets/TwoBody.hh</text>
</a>
</g>
</g>
<!-- Node1&#45;&gt;Node2 -->
<g id="edge1" class="edge"><title>Node1&#45;&gt;Node2</title>
<path fill="none" stroke="midnightblue" d="M1302,-425.083C1302,-418.006 1302,-407.861 1302,-398.986"/>
<polygon fill="midnightblue" stroke="midnightblue" points="1305.5,-398.751 1302,-388.751 1298.5,-398.751 1305.5,-398.751"/>
</g>
<!-- Node3 -->
<g id="node3" class="node"><title>Node3</title>
<polygon fill="white" stroke="#bfbfbf" points="1126,-302.5 1126,-332.5 1236,-332.5 1236,-302.5 1126,-302.5"/>
<text text-anchor="start" x="1134" y="-320.5" font-family="Helvetica,sans-Serif" font-size="10.00">boost/range/algorithm</text>
<text text-anchor="middle" x="1181" y="-309.5" font-family="Helvetica,sans-Serif" font-size="10.00">/unique.hpp</text>
</g>
<!-- Node2&#45;&gt;Node3 -->
<g id="edge2" class="edge"><title>Node2&#45;&gt;Node3</title>
<path fill="none" stroke="midnightblue" d="M1284.66,-369.475C1267.51,-361.04 1240.7,-347.855 1218.64,-337.008"/>
<polygon fill="midnightblue" stroke="midnightblue" points="1220.04,-333.795 1209.52,-332.523 1216.95,-340.077 1220.04,-333.795"/>
</g>
<!-- Node4 -->
<g id="node4" class="node"><title>Node4</title>
<g id="a_node4"><a xlink:href="Vector_8hh.html" target="_top" xlink:title="boca/generic/Vector.hh">
<polygon fill="white" stroke="black" points="508.5,-246.5 508.5,-265.5 625.5,-265.5 625.5,-246.5 508.5,-246.5"/>
<text text-anchor="middle" x="567" y="-253.5" font-family="Helvetica,sans-Serif" font-size="10.00">boca/generic/Vector.hh</text>
</a>
</g>
</g>
<!-- Node2&#45;&gt;Node4 -->
<g id="edge3" class="edge"><title>Node2&#45;&gt;Node4</title>
<path fill="none" stroke="midnightblue" d="M1298.54,-369.469C1291.36,-353.032 1273.13,-317.25 1245,-302 1192.42,-273.495 797.67,-261.913 635.865,-258.329"/>
<polygon fill="midnightblue" stroke="midnightblue" points="635.624,-254.823 625.55,-258.105 635.472,-261.822 635.624,-254.823"/>
</g>
<!-- Node26 -->
<g id="node26" class="node"><title>Node26</title>
<g id="a_node26"><a xlink:href="ClusterSequence_8hh.html" target="_top" xlink:title="boca/fastjet/ClusterSequence.hh">
<polygon fill="white" stroke="black" points="1837.5,-308 1837.5,-327 1996.5,-327 1996.5,-308 1837.5,-308"/>
<text text-anchor="middle" x="1917" y="-315" font-family="Helvetica,sans-Serif" font-size="10.00">boca/fastjet/ClusterSequence.hh</text>
</a>
</g>
</g>
<!-- Node2&#45;&gt;Node26 -->
<g id="edge25" class="edge"><title>Node2&#45;&gt;Node26</title>
<path fill="none" stroke="midnightblue" d="M1372.25,-371.204C1484.29,-360.364 1703.38,-339.168 1826.84,-327.223"/>
<polygon fill="midnightblue" stroke="midnightblue" points="1827.4,-330.685 1837.02,-326.238 1826.73,-323.718 1827.4,-330.685"/>
</g>
<!-- Node34 -->
<g id="node34" class="node"><title>Node34</title>
<g id="a_node34"><a xlink:href="Multiplet_8hh.html" target="_top" xlink:title="boca/multiplets/Multiplet.hh">
<polygon fill="white" stroke="black" points="1577,-308 1577,-327 1713,-327 1713,-308 1577,-308"/>
<text text-anchor="middle" x="1645" y="-315" font-family="Helvetica,sans-Serif" font-size="10.00">boca/multiplets/Multiplet.hh</text>
</a>
</g>
</g>
<!-- Node2&#45;&gt;Node34 -->
<g id="edge35" class="edge"><title>Node2&#45;&gt;Node34</title>
<path fill="none" stroke="midnightblue" d="M1351.14,-369.475C1413.16,-358.716 1519.73,-340.23 1586.06,-328.724"/>
<polygon fill="midnightblue" stroke="midnightblue" points="1586.69,-332.167 1595.95,-327.009 1585.5,-325.27 1586.69,-332.167"/>
</g>
<!-- Node47 -->
<g id="node47" class="node"><title>Node47</title>
<g id="a_node47"><a xlink:href="Sort_8hh.html" target="_top" xlink:title="boca/multiplets/Sort.hh">
<polygon fill="white" stroke="black" points="1133.5,-185 1133.5,-204 1250.5,-204 1250.5,-185 1133.5,-185"/>
<text text-anchor="middle" x="1192" y="-192" font-family="Helvetica,sans-Serif" font-size="10.00">boca/multiplets/Sort.hh</text>
</a>
</g>
</g>
<!-- Node2&#45;&gt;Node47 -->
<g id="edge55" class="edge"><title>Node2&#45;&gt;Node47</title>
<path fill="none" stroke="midnightblue" d="M1299.7,-369.196C1295.7,-354.641 1286.64,-324.895 1274,-302 1254.85,-267.325 1225.04,-231.809 1207.13,-211.813"/>
<polygon fill="midnightblue" stroke="midnightblue" points="1209.56,-209.287 1200.25,-204.241 1204.38,-213.995 1209.56,-209.287"/>
</g>
<!-- Node5 -->
<g id="node5" class="node"><title>Node5</title>
<polygon fill="white" stroke="#bfbfbf" points="0,-179.5 0,-209.5 110,-209.5 110,-179.5 0,-179.5"/>
<text text-anchor="start" x="8" y="-197.5" font-family="Helvetica,sans-Serif" font-size="10.00">boost/range/algorithm</text>
<text text-anchor="middle" x="55" y="-186.5" font-family="Helvetica,sans-Serif" font-size="10.00">_ext/erase.hpp</text>
</g>
<!-- Node4&#45;&gt;Node5 -->
<g id="edge4" class="edge"><title>Node4&#45;&gt;Node5</title>
<path fill="none" stroke="midnightblue" d="M508.352,-251.413C424.411,-245.771 265.045,-233.17 120.045,-210.04"/>
<polygon fill="midnightblue" stroke="midnightblue" points="120.504,-206.569 110.074,-208.429 119.388,-213.479 120.504,-206.569"/>
</g>
<!-- Node6 -->
<g id="node6" class="node"><title>Node6</title>
<polygon fill="white" stroke="#bfbfbf" points="128,-179.5 128,-209.5 238,-209.5 238,-179.5 128,-179.5"/>
<text text-anchor="start" x="136" y="-197.5" font-family="Helvetica,sans-Serif" font-size="10.00">boost/range/algorithm</text>
<text text-anchor="middle" x="183" y="-186.5" font-family="Helvetica,sans-Serif" font-size="10.00">/find.hpp</text>
</g>
<!-- Node4&#45;&gt;Node6 -->
<g id="edge5" class="edge"><title>Node4&#45;&gt;Node6</title>
<path fill="none" stroke="midnightblue" d="M508.373,-248.239C446.158,-240.731 344.785,-227.548 248.047,-210.101"/>
<polygon fill="midnightblue" stroke="midnightblue" points="248.564,-206.638 238.098,-208.289 247.309,-213.524 248.564,-206.638"/>
</g>
<!-- Node7 -->
<g id="node7" class="node"><title>Node7</title>
<polygon fill="white" stroke="#bfbfbf" points="256,-179.5 256,-209.5 366,-209.5 366,-179.5 256,-179.5"/>
<text text-anchor="start" x="264" y="-197.5" font-family="Helvetica,sans-Serif" font-size="10.00">boost/range/algorithm</text>
<text text-anchor="middle" x="311" y="-186.5" font-family="Helvetica,sans-Serif" font-size="10.00">/min_element.hpp</text>
</g>
<!-- Node4&#45;&gt;Node7 -->
<g id="edge6" class="edge"><title>Node4&#45;&gt;Node7</title>
<path fill="none" stroke="midnightblue" d="M530.321,-246.475C490.225,-237.156 425.182,-222.038 376.32,-210.682"/>
<polygon fill="midnightblue" stroke="midnightblue" points="376.997,-207.246 366.464,-208.391 375.412,-214.064 376.997,-207.246"/>
</g>
<!-- Node8 -->
<g id="node8" class="node"><title>Node8</title>
<polygon fill="white" stroke="#bfbfbf" points="384,-179.5 384,-209.5 494,-209.5 494,-179.5 384,-179.5"/>
<text text-anchor="start" x="392" y="-197.5" font-family="Helvetica,sans-Serif" font-size="10.00">boost/range/algorithm</text>
<text text-anchor="middle" x="439" y="-186.5" font-family="Helvetica,sans-Serif" font-size="10.00">/copy.hpp</text>
</g>
<!-- Node4&#45;&gt;Node8 -->
<g id="edge7" class="edge"><title>Node4&#45;&gt;Node8</title>
<path fill="none" stroke="midnightblue" d="M548.661,-246.475C530.434,-238.002 501.897,-224.737 478.503,-213.863"/>
<polygon fill="midnightblue" stroke="midnightblue" points="479.711,-210.564 469.167,-209.523 476.76,-216.912 479.711,-210.564"/>
</g>
<!-- Node9 -->
<g id="node9" class="node"><title>Node9</title>
<polygon fill="white" stroke="#bfbfbf" points="512,-179.5 512,-209.5 622,-209.5 622,-179.5 512,-179.5"/>
<text text-anchor="start" x="520" y="-197.5" font-family="Helvetica,sans-Serif" font-size="10.00">boost/range/algorithm</text>
<text text-anchor="middle" x="567" y="-186.5" font-family="Helvetica,sans-Serif" font-size="10.00">_ext/push_back.hpp</text>
</g>
<!-- Node4&#45;&gt;Node9 -->
<g id="edge8" class="edge"><title>Node4&#45;&gt;Node9</title>
<path fill="none" stroke="midnightblue" d="M567,-246.475C567,-239.471 567,-229.192 567,-219.696"/>
<polygon fill="midnightblue" stroke="midnightblue" points="570.5,-219.523 567,-209.523 563.5,-219.523 570.5,-219.523"/>
</g>
<!-- Node10 -->
<g id="node10" class="node"><title>Node10</title>
<polygon fill="white" stroke="#bfbfbf" points="640,-179.5 640,-209.5 750,-209.5 750,-179.5 640,-179.5"/>
<text text-anchor="start" x="648" y="-197.5" font-family="Helvetica,sans-Serif" font-size="10.00">boost/range/algorithm</text>
<text text-anchor="middle" x="695" y="-186.5" font-family="Helvetica,sans-Serif" font-size="10.00">/transform.hpp</text>
</g>
<!-- Node4&#45;&gt;Node10 -->
<g id="edge9" class="edge"><title>Node4&#45;&gt;Node10</title>
<path fill="none" stroke="midnightblue" d="M585.339,-246.475C603.566,-238.002 632.103,-224.737 655.497,-213.863"/>
<polygon fill="midnightblue" stroke="midnightblue" points="657.24,-216.912 664.833,-209.523 654.289,-210.564 657.24,-216.912"/>
</g>
<!-- Node11 -->
<g id="node11" class="node"><title>Node11</title>
<polygon fill="white" stroke="#bfbfbf" points="768.5,-185 768.5,-204 895.5,-204 895.5,-185 768.5,-185"/>
<text text-anchor="middle" x="832" y="-192" font-family="Helvetica,sans-Serif" font-size="10.00">boost/range/adaptors.hpp</text>
</g>
<!-- Node4&#45;&gt;Node11 -->
<g id="edge10" class="edge"><title>Node4&#45;&gt;Node11</title>
<path fill="none" stroke="midnightblue" d="M604.968,-246.475C652.196,-235.871 732.858,-217.76 784.236,-206.224"/>
<polygon fill="midnightblue" stroke="midnightblue" points="785.112,-209.615 794.102,-204.009 783.579,-202.785 785.112,-209.615"/>
</g>
<!-- Node12 -->
<g id="node12" class="node"><title>Node12</title>
<g id="a_node12"><a xlink:href="Settings_8hh.html" target="_top" xlink:title="boca/Settings.hh">
<polygon fill="white" stroke="black" points="914,-185 914,-204 1004,-204 1004,-185 914,-185"/>
<text text-anchor="middle" x="959" y="-192" font-family="Helvetica,sans-Serif" font-size="10.00">boca/Settings.hh</text>
</a>
</g>
</g>
<!-- Node4&#45;&gt;Node12 -->
<g id="edge11" class="edge"><title>Node4&#45;&gt;Node12</title>
<path fill="none" stroke="midnightblue" d="M625.507,-249.431C693.01,-242.488 807.155,-229.154 904,-210 909.077,-208.996 914.38,-207.795 919.604,-206.521"/>
<polygon fill="midnightblue" stroke="midnightblue" points="920.643,-209.868 929.472,-204.01 918.918,-203.084 920.643,-209.868"/>
</g>
<!-- Node13 -->
<g id="node13" class="node"><title>Node13</title>
<g id="a_node13"><a xlink:href="InfoRecombiner_8hh.html" target="_top" xlink:title="boca/fastjet/InfoRecombiner.hh">
<polygon fill="white" stroke="black" points="741.5,-118 741.5,-137 894.5,-137 894.5,-118 741.5,-118"/>
<text text-anchor="middle" x="818" y="-125" font-family="Helvetica,sans-Serif" font-size="10.00">boca/fastjet/InfoRecombiner.hh</text>
</a>
</g>
</g>
<!-- Node12&#45;&gt;Node13 -->
<g id="edge12" class="edge"><title>Node12&#45;&gt;Node13</title>
<path fill="none" stroke="midnightblue" d="M940.276,-184.869C916.152,-173.748 874.002,-154.317 846.045,-141.429"/>
<polygon fill="midnightblue" stroke="midnightblue" points="847.348,-138.175 836.801,-137.167 844.417,-144.532 847.348,-138.175"/>
</g>
<!-- Node15 -->
<g id="node15" class="node"><title>Node15</title>
<g id="a_node15"><a xlink:href="Range_8hh.html" target="_top" xlink:title="boca/physics/Range.hh">
<polygon fill="white" stroke="black" points="1276.5,-118 1276.5,-137 1395.5,-137 1395.5,-118 1276.5,-118"/>
<text text-anchor="middle" x="1336" y="-125" font-family="Helvetica,sans-Serif" font-size="10.00">boca/physics/Range.hh</text>
</a>
</g>
</g>
<!-- Node12&#45;&gt;Node15 -->
<g id="edge14" class="edge"><title>Node12&#45;&gt;Node15</title>
<path fill="none" stroke="midnightblue" d="M1004.18,-186.242C1063.11,-176.701 1169.38,-159.245 1260,-143 1267.18,-141.713 1274.74,-140.319 1282.18,-138.922"/>
<polygon fill="midnightblue" stroke="midnightblue" points="1283.05,-142.32 1292.23,-137.024 1281.75,-135.442 1283.05,-142.32"/>
</g>
<!-- Node22 -->
<g id="node22" class="node"><title>Node22</title>
<g id="a_node22"><a xlink:href="Souce_8hh.html" target="_top" xlink:title="boca/io/Souce.hh">
<polygon fill="white" stroke="black" points="913,-118 913,-137 1005,-137 1005,-118 913,-118"/>
<text text-anchor="middle" x="959" y="-125" font-family="Helvetica,sans-Serif" font-size="10.00">boca/io/Souce.hh</text>
</a>
</g>
</g>
<!-- Node12&#45;&gt;Node22 -->
<g id="edge21" class="edge"><title>Node12&#45;&gt;Node22</title>
<path fill="none" stroke="midnightblue" d="M959,-184.734C959,-175.183 959,-159.618 959,-147.283"/>
<polygon fill="midnightblue" stroke="midnightblue" points="962.5,-147.127 959,-137.127 955.5,-147.127 962.5,-147.127"/>
</g>
<!-- Node24 -->
<g id="node24" class="node"><title>Node24</title>
<g id="a_node24"><a xlink:href="Font_8hh.html" target="_top" xlink:title="boca/plotting/Font.hh">
<polygon fill="white" stroke="black" points="615,-118 615,-137 723,-137 723,-118 615,-118"/>
<text text-anchor="middle" x="669" y="-125" font-family="Helvetica,sans-Serif" font-size="10.00">boca/plotting/Font.hh</text>
</a>
</g>
</g>
<!-- Node12&#45;&gt;Node24 -->
<g id="edge23" class="edge"><title>Node12&#45;&gt;Node24</title>
<path fill="none" stroke="midnightblue" d="M927.658,-184.939C919.942,-182.914 911.688,-180.817 904,-179 827.992,-161.039 808.282,-159.76 732,-143 726.656,-141.826 721.063,-140.573 715.509,-139.314"/>
<polygon fill="midnightblue" stroke="midnightblue" points="716.145,-135.87 705.617,-137.057 714.588,-142.694 716.145,-135.87"/>
</g>
<!-- Node14 -->
<g id="node14" class="node"><title>Node14</title>
<polygon fill="white" stroke="#bfbfbf" points="760.5,-56.5 760.5,-75.5 875.5,-75.5 875.5,-56.5 760.5,-56.5"/>
<text text-anchor="middle" x="818" y="-63.5" font-family="Helvetica,sans-Serif" font-size="10.00">fastjet/JetDefinition.hh</text>
</g>
<!-- Node13&#45;&gt;Node14 -->
<g id="edge13" class="edge"><title>Node13&#45;&gt;Node14</title>
<path fill="none" stroke="midnightblue" d="M818,-117.975C818,-109.58 818,-96.4806 818,-85.6631"/>
<polygon fill="midnightblue" stroke="midnightblue" points="821.5,-85.5091 818,-75.5091 814.5,-85.5091 821.5,-85.5091"/>
</g>
<!-- Node16 -->
<g id="node16" class="node"><title>Node16</title>
<polygon fill="white" stroke="#bfbfbf" points="1494,-56.5 1494,-75.5 1548,-75.5 1548,-56.5 1494,-56.5"/>
<text text-anchor="middle" x="1521" y="-63.5" font-family="Helvetica,sans-Serif" font-size="10.00">iostream</text>
</g>
<!-- Node15&#45;&gt;Node16 -->
<g id="edge15" class="edge"><title>Node15&#45;&gt;Node16</title>
<path fill="none" stroke="midnightblue" d="M1362.51,-117.975C1394.65,-107.636 1448.99,-90.1611 1484.93,-78.6017"/>
<polygon fill="midnightblue" stroke="midnightblue" points="1486.1,-81.9028 1494.54,-75.5091 1483.95,-75.239 1486.1,-81.9028"/>
</g>
<!-- Node17 -->
<g id="node17" class="node"><title>Node17</title>
<polygon fill="white" stroke="#bfbfbf" points="1304,-56.5 1304,-75.5 1344,-75.5 1344,-56.5 1304,-56.5"/>
<text text-anchor="middle" x="1324" y="-63.5" font-family="Helvetica,sans-Serif" font-size="10.00">utility</text>
</g>
<!-- Node15&#45;&gt;Node17 -->
<g id="edge16" class="edge"><title>Node15&#45;&gt;Node17</title>
<path fill="none" stroke="midnightblue" d="M1334.28,-117.975C1332.57,-109.492 1329.89,-96.2043 1327.7,-85.3222"/>
<polygon fill="midnightblue" stroke="midnightblue" points="1331.12,-84.6197 1325.72,-75.5091 1324.26,-86.0037 1331.12,-84.6197"/>
</g>
<!-- Node18 -->
<g id="node18" class="node"><title>Node18</title>
<g id="a_node18"><a xlink:href="Units_8hh.html" target="_top" xlink:title="boca/physics/Units.hh">
<polygon fill="white" stroke="red" points="1362,-56.5 1362,-75.5 1476,-75.5 1476,-56.5 1362,-56.5"/>
<text text-anchor="middle" x="1419" y="-63.5" font-family="Helvetica,sans-Serif" font-size="10.00">boca/physics/Units.hh</text>
</a>
</g>
</g>
<!-- Node15&#45;&gt;Node18 -->
<g id="edge17" class="edge"><title>Node15&#45;&gt;Node18</title>
<path fill="none" stroke="midnightblue" d="M1347.89,-117.975C1361.2,-108.431 1383,-92.8073 1398.96,-81.3683"/>
<polygon fill="midnightblue" stroke="midnightblue" points="1401.04,-84.18 1407.13,-75.5091 1396.96,-78.4908 1401.04,-84.18"/>
</g>
<!-- Node20 -->
<g id="node20" class="node"><title>Node20</title>
<g id="a_node20"><a xlink:href="Math_8hh.html" target="_top" xlink:title="boca/math/Math.hh">
<polygon fill="white" stroke="red" points="1184.5,-56.5 1184.5,-75.5 1285.5,-75.5 1285.5,-56.5 1184.5,-56.5"/>
<text text-anchor="middle" x="1235" y="-63.5" font-family="Helvetica,sans-Serif" font-size="10.00">boca/math/Math.hh</text>
</a>
</g>
</g>
<!-- Node15&#45;&gt;Node20 -->
<g id="edge19" class="edge"><title>Node15&#45;&gt;Node20</title>
<path fill="none" stroke="midnightblue" d="M1321.53,-117.975C1305.03,-108.255 1277.82,-92.2266 1258.32,-80.7372"/>
<polygon fill="midnightblue" stroke="midnightblue" points="1259.84,-77.5693 1249.44,-75.5091 1256.28,-83.6005 1259.84,-77.5693"/>
</g>
<!-- Node19 -->
<g id="node19" class="node"><title>Node19</title>
<polygon fill="white" stroke="#bfbfbf" points="1430.5,-0.5 1430.5,-19.5 1543.5,-19.5 1543.5,-0.5 1430.5,-0.5"/>
<text text-anchor="middle" x="1487" y="-7.5" font-family="Helvetica,sans-Serif" font-size="10.00">boost/units/cmath.hpp</text>
</g>
<!-- Node18&#45;&gt;Node19 -->
<g id="edge18" class="edge"><title>Node18&#45;&gt;Node19</title>
<path fill="none" stroke="midnightblue" d="M1429.93,-56.324C1440.17,-48.1849 1455.72,-35.8395 1468,-26.0874"/>
<polygon fill="midnightblue" stroke="midnightblue" points="1470.22,-28.7937 1475.88,-19.8339 1465.87,-23.3119 1470.22,-28.7937"/>
</g>
<!-- Node21 -->
<g id="node21" class="node"><title>Node21</title>
<polygon fill="white" stroke="#bfbfbf" points="1093,-0.5 1093,-19.5 1137,-19.5 1137,-0.5 1093,-0.5"/>
<text text-anchor="middle" x="1115" y="-7.5" font-family="Helvetica,sans-Serif" font-size="10.00">vector</text>
</g>
<!-- Node20&#45;&gt;Node21 -->
<g id="edge20" class="edge"><title>Node20&#45;&gt;Node21</title>
<path fill="none" stroke="midnightblue" d="M1215.99,-56.4435C1196.41,-47.6356 1165.69,-33.8116 1143.27,-23.722"/>
<polygon fill="midnightblue" stroke="midnightblue" points="1144.48,-20.4284 1133.93,-19.5164 1141.61,-26.8119 1144.48,-20.4284"/>
</g>
<!-- Node23 -->
<g id="node23" class="node"><title>Node23</title>
<polygon fill="white" stroke="#bfbfbf" points="924.5,-56.5 924.5,-75.5 965.5,-75.5 965.5,-56.5 924.5,-56.5"/>
<text text-anchor="middle" x="945" y="-63.5" font-family="Helvetica,sans-Serif" font-size="10.00">string</text>
</g>
<!-- Node22&#45;&gt;Node23 -->
<g id="edge22" class="edge"><title>Node22&#45;&gt;Node23</title>
<path fill="none" stroke="midnightblue" d="M956.994,-117.975C954.998,-109.492 951.872,-96.2043 949.311,-85.3222"/>
<polygon fill="midnightblue" stroke="midnightblue" points="952.7,-84.4416 947.002,-75.5091 945.886,-86.0449 952.7,-84.4416"/>
</g>
<!-- Node25 -->
<g id="node25" class="node"><title>Node25</title>
<g id="a_node25"><a xlink:href="Flag_8hh.html" target="_top" xlink:title="boca/generic/Flag.hh">
<polygon fill="white" stroke="red" points="615.5,-56.5 615.5,-75.5 722.5,-75.5 722.5,-56.5 615.5,-56.5"/>
<text text-anchor="middle" x="669" y="-63.5" font-family="Helvetica,sans-Serif" font-size="10.00">boca/generic/Flag.hh</text>
</a>
</g>
</g>
<!-- Node24&#45;&gt;Node25 -->
<g id="edge24" class="edge"><title>Node24&#45;&gt;Node25</title>
<path fill="none" stroke="midnightblue" d="M669,-117.975C669,-109.58 669,-96.4806 669,-85.6631"/>
<polygon fill="midnightblue" stroke="midnightblue" points="672.5,-85.5091 669,-75.5091 665.5,-85.5091 672.5,-85.5091"/>
</g>
<!-- Node27 -->
<g id="node27" class="node"><title>Node27</title>
<g id="a_node27"><a xlink:href="Jet_8hh.html" target="_top" xlink:title="boca/multiplets/Jet.hh">
<polygon fill="white" stroke="black" points="1874.5,-185 1874.5,-204 1987.5,-204 1987.5,-185 1874.5,-185"/>
<text text-anchor="middle" x="1931" y="-192" font-family="Helvetica,sans-Serif" font-size="10.00">boca/multiplets/Jet.hh</text>
</a>
</g>
</g>
<!-- Node26&#45;&gt;Node27 -->
<g id="edge26" class="edge"><title>Node26&#45;&gt;Node27</title>
<path fill="none" stroke="midnightblue" d="M1926.33,-307.893C1935.65,-298.603 1949.37,-282.858 1955,-266 1961.06,-247.867 1952.11,-227.159 1943.47,-212.901"/>
<polygon fill="midnightblue" stroke="midnightblue" points="1946.15,-210.602 1937.73,-204.172 1940.3,-214.45 1946.15,-210.602"/>
</g>
<!-- Node28 -->
<g id="node28" class="node"><title>Node28</title>
<g id="a_node28"><a xlink:href="PseudoJet_8hh.html" target="_top" xlink:title="boca/fastjet/PseudoJet.hh">
<polygon fill="white" stroke="black" points="1686.5,-56.5 1686.5,-75.5 1817.5,-75.5 1817.5,-56.5 1686.5,-56.5"/>
<text text-anchor="middle" x="1752" y="-63.5" font-family="Helvetica,sans-Serif" font-size="10.00">boca/fastjet/PseudoJet.hh</text>
</a>
</g>
</g>
<!-- Node27&#45;&gt;Node28 -->
<g id="edge27" class="edge"><title>Node27&#45;&gt;Node28</title>
<path fill="none" stroke="midnightblue" d="M1918.56,-184.985C1903.99,-174.998 1879.17,-157.908 1858,-143 1828.03,-121.893 1793.58,-97.0917 1772.3,-81.7072"/>
<polygon fill="midnightblue" stroke="midnightblue" points="1774.19,-78.7547 1764.03,-75.7286 1770.08,-84.426 1774.19,-78.7547"/>
</g>
<!-- Node31 -->
<g id="node31" class="node"><title>Node31</title>
<g id="a_node31"><a xlink:href="JetInfo_8hh.html" target="_top" xlink:title="boca/multiplets/JetInfo.hh">
<polygon fill="white" stroke="black" points="1866.5,-118 1866.5,-137 1995.5,-137 1995.5,-118 1866.5,-118"/>
<text text-anchor="middle" x="1931" y="-125" font-family="Helvetica,sans-Serif" font-size="10.00">boca/multiplets/JetInfo.hh</text>
</a>
</g>
</g>
<!-- Node27&#45;&gt;Node31 -->
<g id="edge31" class="edge"><title>Node27&#45;&gt;Node31</title>
<path fill="none" stroke="midnightblue" d="M1931,-184.734C1931,-175.183 1931,-159.618 1931,-147.283"/>
<polygon fill="midnightblue" stroke="midnightblue" points="1934.5,-147.127 1931,-137.127 1927.5,-147.127 1934.5,-147.127"/>
</g>
<!-- Node28&#45;&gt;Node28 -->
<g id="edge29" class="edge"><title>Node28&#45;&gt;Node28</title>
<path fill="none" stroke="midnightblue" d="M1787.61,-75.5252C1811.81,-78.3079 1835.5,-75.1328 1835.5,-66 1835.5,-58.1515 1818.01,-54.7029 1797.73,-55.6543"/>
<polygon fill="midnightblue" stroke="midnightblue" points="1797.3,-52.1775 1787.61,-56.4748 1797.86,-59.1546 1797.3,-52.1775"/>
</g>
<!-- Node29 -->
<g id="node29" class="node"><title>Node29</title>
<polygon fill="white" stroke="#bfbfbf" points="1630.5,-0.5 1630.5,-19.5 1733.5,-19.5 1733.5,-0.5 1630.5,-0.5"/>
<text text-anchor="middle" x="1682" y="-7.5" font-family="Helvetica,sans-Serif" font-size="10.00">boost/operators.hpp</text>
</g>
<!-- Node28&#45;&gt;Node29 -->
<g id="edge28" class="edge"><title>Node28&#45;&gt;Node29</title>
<path fill="none" stroke="midnightblue" d="M1740.75,-56.324C1730.2,-48.1849 1714.2,-35.8395 1701.56,-26.0874"/>
<polygon fill="midnightblue" stroke="midnightblue" points="1703.51,-23.1707 1693.45,-19.8339 1699.23,-28.7132 1703.51,-23.1707"/>
</g>
<!-- Node30 -->
<g id="node30" class="node"><title>Node30</title>
<g id="a_node30"><a xlink:href="LorentzVector_8hh.html" target="_top" xlink:title="boca/math/LorentzVector.hh">
<polygon fill="white" stroke="red" points="1752,-0.5 1752,-19.5 1892,-19.5 1892,-0.5 1752,-0.5"/>
<text text-anchor="middle" x="1822" y="-7.5" font-family="Helvetica,sans-Serif" font-size="10.00">boca/math/LorentzVector.hh</text>
</a>
</g>
</g>
<!-- Node28&#45;&gt;Node30 -->
<g id="edge30" class="edge"><title>Node28&#45;&gt;Node30</title>
<path fill="none" stroke="midnightblue" d="M1763.25,-56.324C1773.8,-48.1849 1789.8,-35.8395 1802.44,-26.0874"/>
<polygon fill="midnightblue" stroke="midnightblue" points="1804.77,-28.7132 1810.55,-19.8339 1800.49,-23.1707 1804.77,-28.7132"/>
</g>
<!-- Node31&#45;&gt;Node28 -->
<g id="edge32" class="edge"><title>Node31&#45;&gt;Node28</title>
<path fill="none" stroke="midnightblue" d="M1905.35,-117.975C1874.38,-107.68 1822.13,-90.3103 1787.35,-78.7502"/>
<polygon fill="midnightblue" stroke="midnightblue" points="1788.19,-75.3422 1777.6,-75.5091 1785.98,-81.9848 1788.19,-75.3422"/>
</g>
<!-- Node32 -->
<g id="node32" class="node"><title>Node32</title>
<g id="a_node32"><a xlink:href="Constituent_8hh.html" target="_top" xlink:title="boca/Constituent.hh">
<polygon fill="white" stroke="red" points="2027,-56.5 2027,-75.5 2131,-75.5 2131,-56.5 2027,-56.5"/>
<text text-anchor="middle" x="2079" y="-63.5" font-family="Helvetica,sans-Serif" font-size="10.00">boca/Constituent.hh</text>
</a>
</g>
</g>
<!-- Node31&#45;&gt;Node32 -->
<g id="edge33" class="edge"><title>Node31&#45;&gt;Node32</title>
<path fill="none" stroke="midnightblue" d="M1952.2,-117.975C1977.37,-107.857 2019.54,-90.9046 2048.28,-79.3507"/>
<polygon fill="midnightblue" stroke="midnightblue" points="2049.86,-82.4867 2057.83,-75.5091 2047.25,-75.9919 2049.86,-82.4867"/>
</g>
<!-- Node33 -->
<g id="node33" class="node"><title>Node33</title>
<g id="a_node33"><a xlink:href="Identification_8hh.html" target="_top" xlink:title="boca/multiplets/Identification.hh">
<polygon fill="white" stroke="red" points="1853.5,-56.5 1853.5,-75.5 2008.5,-75.5 2008.5,-56.5 1853.5,-56.5"/>
<text text-anchor="middle" x="1931" y="-63.5" font-family="Helvetica,sans-Serif" font-size="10.00">boca/multiplets/Identification.hh</text>
</a>
</g>
</g>
<!-- Node31&#45;&gt;Node33 -->
<g id="edge34" class="edge"><title>Node31&#45;&gt;Node33</title>
<path fill="none" stroke="midnightblue" d="M1931,-117.975C1931,-109.58 1931,-96.4806 1931,-85.6631"/>
<polygon fill="midnightblue" stroke="midnightblue" points="1934.5,-85.5091 1931,-75.5091 1927.5,-85.5091 1934.5,-85.5091"/>
</g>
<!-- Node35 -->
<g id="node35" class="node"><title>Node35</title>
<g id="a_node35"><a xlink:href="Singlet_8hh.html" target="_top" xlink:title="boca/multiplets/Singlet.hh">
<polygon fill="white" stroke="black" points="2002.5,-246.5 2002.5,-265.5 2131.5,-265.5 2131.5,-246.5 2002.5,-246.5"/>
<text text-anchor="middle" x="2067" y="-253.5" font-family="Helvetica,sans-Serif" font-size="10.00">boca/multiplets/Singlet.hh</text>
</a>
</g>
</g>
<!-- Node34&#45;&gt;Node35 -->
<g id="edge36" class="edge"><title>Node34&#45;&gt;Node35</title>
<path fill="none" stroke="midnightblue" d="M1705.46,-307.975C1782.39,-297.128 1915.04,-278.426 1996.49,-266.942"/>
<polygon fill="midnightblue" stroke="midnightblue" points="1997.24,-270.371 2006.65,-265.509 1996.26,-263.44 1997.24,-270.371"/>
</g>
<!-- Node39 -->
<g id="node39" class="node"><title>Node39</title>
<g id="a_node39"><a xlink:href="multiplets_2Particle_8hh.html" target="_top" xlink:title="boca/multiplets/Particle.hh">
<polygon fill="white" stroke="black" points="1557,-185 1557,-204 1689,-204 1689,-185 1557,-185"/>
<text text-anchor="middle" x="1623" y="-192" font-family="Helvetica,sans-Serif" font-size="10.00">boca/multiplets/Particle.hh</text>
</a>
</g>
</g>
<!-- Node34&#45;&gt;Node39 -->
<g id="edge41" class="edge"><title>Node34&#45;&gt;Node39</title>
<path fill="none" stroke="midnightblue" d="M1638.11,-307.829C1630.97,-298.24 1620.27,-282.021 1616,-266 1611.4,-248.764 1614.26,-228.43 1617.6,-214.04"/>
<polygon fill="midnightblue" stroke="midnightblue" points="1620.99,-214.905 1620.14,-204.345 1614.22,-213.135 1620.99,-214.905"/>
</g>
<!-- Node41 -->
<g id="node41" class="node"><title>Node41</title>
<g id="a_node41"><a xlink:href="ClosestLepton_8hh.html" target="_top" xlink:title="boca/multiplets/ClosestLepton.hh">
<polygon fill="white" stroke="black" points="1784,-246.5 1784,-265.5 1946,-265.5 1946,-246.5 1784,-246.5"/>
<text text-anchor="middle" x="1865" y="-253.5" font-family="Helvetica,sans-Serif" font-size="10.00">boca/multiplets/ClosestLepton.hh</text>
</a>
</g>
</g>
<!-- Node34&#45;&gt;Node41 -->
<g id="edge45" class="edge"><title>Node34&#45;&gt;Node41</title>
<path fill="none" stroke="midnightblue" d="M1676.52,-307.975C1715.24,-297.504 1781.02,-279.712 1823.74,-268.16"/>
<polygon fill="midnightblue" stroke="midnightblue" points="1824.8,-271.499 1833.54,-265.509 1822.97,-264.741 1824.8,-271.499"/>
</g>
<!-- Node42 -->
<g id="node42" class="node"><title>Node42</title>
<g id="a_node42"><a xlink:href="SubJettiness_8hh.html" target="_top" xlink:title="boca/fastjet/SubJettiness.hh">
<polygon fill="white" stroke="black" points="1624.5,-246.5 1624.5,-265.5 1765.5,-265.5 1765.5,-246.5 1624.5,-246.5"/>
<text text-anchor="middle" x="1695" y="-253.5" font-family="Helvetica,sans-Serif" font-size="10.00">boca/fastjet/SubJettiness.hh</text>
</a>
</g>
</g>
<!-- Node34&#45;&gt;Node42 -->
<g id="edge47" class="edge"><title>Node34&#45;&gt;Node42</title>
<path fill="none" stroke="midnightblue" d="M1652.16,-307.975C1659.74,-298.962 1671.87,-284.525 1681.29,-273.312"/>
<polygon fill="midnightblue" stroke="midnightblue" points="1684.1,-275.417 1687.85,-265.509 1678.74,-270.913 1684.1,-275.417"/>
</g>
<!-- Node44 -->
<g id="node44" class="node"><title>Node44</title>
<g id="a_node44"><a xlink:href="EventShapes_8hh.html" target="_top" xlink:title="boca/EventShapes.hh">
<polygon fill="white" stroke="black" points="1440.5,-246.5 1440.5,-265.5 1553.5,-265.5 1553.5,-246.5 1440.5,-246.5"/>
<text text-anchor="middle" x="1497" y="-253.5" font-family="Helvetica,sans-Serif" font-size="10.00">boca/EventShapes.hh</text>
</a>
</g>
</g>
<!-- Node34&#45;&gt;Node44 -->
<g id="edge50" class="edge"><title>Node34&#45;&gt;Node44</title>
<path fill="none" stroke="midnightblue" d="M1623.8,-307.975C1598.63,-297.857 1556.46,-280.905 1527.72,-269.351"/>
<polygon fill="midnightblue" stroke="midnightblue" points="1528.75,-265.992 1518.17,-265.509 1526.14,-272.487 1528.75,-265.992"/>
</g>
<!-- Node35&#45;&gt;Node27 -->
<g id="edge40" class="edge"><title>Node35&#45;&gt;Node27</title>
<path fill="none" stroke="midnightblue" d="M2047.51,-246.475C2024.59,-236.445 1986.31,-219.7 1959.92,-208.155"/>
<polygon fill="midnightblue" stroke="midnightblue" points="1961.01,-204.811 1950.45,-204.009 1958.21,-211.224 1961.01,-204.811"/>
</g>
<!-- Node36 -->
<g id="node36" class="node"><title>Node36</title>
<g id="a_node36"><a xlink:href="Mutable_8hh.html" target="_top" xlink:title="boca/generic/Mutable.hh">
<polygon fill="white" stroke="red" points="2005.5,-185 2005.5,-204 2128.5,-204 2128.5,-185 2005.5,-185"/>
<text text-anchor="middle" x="2067" y="-192" font-family="Helvetica,sans-Serif" font-size="10.00">boca/generic/Mutable.hh</text>
</a>
</g>
</g>
<!-- Node35&#45;&gt;Node36 -->
<g id="edge37" class="edge"><title>Node35&#45;&gt;Node36</title>
<path fill="none" stroke="midnightblue" d="M2067,-246.475C2067,-238.08 2067,-224.981 2067,-214.163"/>
<polygon fill="midnightblue" stroke="midnightblue" points="2070.5,-214.009 2067,-204.009 2063.5,-214.009 2070.5,-214.009"/>
</g>
<!-- Node38 -->
<g id="node38" class="node"><title>Node38</title>
<g id="a_node38"><a xlink:href="Line2_8hh.html" target="_top" xlink:title="boca/math/Line2.hh">
<polygon fill="white" stroke="red" points="2147,-185 2147,-204 2249,-204 2249,-185 2147,-185"/>
<text text-anchor="middle" x="2198" y="-192" font-family="Helvetica,sans-Serif" font-size="10.00">boca/math/Line2.hh</text>
</a>
</g>
</g>
<!-- Node35&#45;&gt;Node38 -->
<g id="edge39" class="edge"><title>Node35&#45;&gt;Node38</title>
<path fill="none" stroke="midnightblue" d="M2085.77,-246.475C2107.85,-236.445 2144.72,-219.7 2170.14,-208.155"/>
<polygon fill="midnightblue" stroke="midnightblue" points="2171.61,-211.331 2179.27,-204.009 2168.71,-204.958 2171.61,-211.331"/>
</g>
<!-- Node37 -->
<g id="node37" class="node"><title>Node37</title>
<polygon fill="white" stroke="#bfbfbf" points="2037.5,-118 2037.5,-137 2096.5,-137 2096.5,-118 2037.5,-118"/>
<text text-anchor="middle" x="2067" y="-125" font-family="Helvetica,sans-Serif" font-size="10.00">functional</text>
</g>
<!-- Node36&#45;&gt;Node37 -->
<g id="edge38" class="edge"><title>Node36&#45;&gt;Node37</title>
<path fill="none" stroke="midnightblue" d="M2067,-184.734C2067,-175.183 2067,-159.618 2067,-147.283"/>
<polygon fill="midnightblue" stroke="midnightblue" points="2070.5,-147.127 2067,-137.127 2063.5,-147.127 2070.5,-147.127"/>
</g>
<!-- Node39&#45;&gt;Node28 -->
<g id="edge42" class="edge"><title>Node39&#45;&gt;Node28</title>
<path fill="none" stroke="midnightblue" d="M1661.35,-184.95C1685.28,-177.68 1714.88,-164.83 1733,-143 1746.41,-126.843 1750.55,-102.536 1751.73,-85.7828"/>
<polygon fill="midnightblue" stroke="midnightblue" points="1755.24,-85.7201 1752.15,-75.5847 1748.24,-85.4323 1755.24,-85.7201"/>
</g>
<!-- Node40 -->
<g id="node40" class="node"><title>Node40</title>
<g id="a_node40"><a xlink:href="ParticleInfo_8hh.html" target="_top" xlink:title="boca/multiplets/Particle\lInfo.hh">
<polygon fill="white" stroke="red" points="1604.5,-112.5 1604.5,-142.5 1723.5,-142.5 1723.5,-112.5 1604.5,-112.5"/>
<text text-anchor="start" x="1612.5" y="-130.5" font-family="Helvetica,sans-Serif" font-size="10.00">boca/multiplets/Particle</text>
<text text-anchor="middle" x="1664" y="-119.5" font-family="Helvetica,sans-Serif" font-size="10.00">Info.hh</text>
</a>
</g>
</g>
<!-- Node39&#45;&gt;Node40 -->
<g id="edge43" class="edge"><title>Node39&#45;&gt;Node40</title>
<path fill="none" stroke="midnightblue" d="M1628.53,-184.734C1633.91,-176.203 1642.32,-162.874 1649.6,-151.334"/>
<polygon fill="midnightblue" stroke="midnightblue" points="1652.74,-152.914 1655.11,-142.589 1646.82,-149.18 1652.74,-152.914"/>
</g>
<!-- Node40&#45;&gt;Node28 -->
<g id="edge44" class="edge"><title>Node40&#45;&gt;Node28</title>
<path fill="none" stroke="midnightblue" d="M1684.85,-112.399C1698.7,-103.04 1716.81,-90.7924 1730.74,-81.3771"/>
<polygon fill="midnightblue" stroke="midnightblue" points="1732.87,-84.1585 1739.2,-75.6578 1728.95,-78.3596 1732.87,-84.1585"/>
</g>
<!-- Node41&#45;&gt;Node27 -->
<g id="edge46" class="edge"><title>Node41&#45;&gt;Node27</title>
<path fill="none" stroke="midnightblue" d="M1874.46,-246.475C1884.75,-237.197 1901.42,-222.171 1913.99,-210.831"/>
<polygon fill="midnightblue" stroke="midnightblue" points="1916.48,-213.305 1921.56,-204.009 1911.79,-208.105 1916.48,-213.305"/>
</g>
<!-- Node42&#45;&gt;Node27 -->
<g id="edge48" class="edge"><title>Node42&#45;&gt;Node27</title>
<path fill="none" stroke="midnightblue" d="M1728.81,-246.475C1770.52,-235.959 1841.51,-218.062 1887.31,-206.514"/>
<polygon fill="midnightblue" stroke="midnightblue" points="1888.41,-209.848 1897.25,-204.009 1886.7,-203.06 1888.41,-209.848"/>
</g>
<!-- Node43 -->
<g id="node43" class="node"><title>Node43</title>
<g id="a_node43"><a xlink:href="NSubJettiness_8hh.html" target="_top" xlink:title="boca/fastjet/NSubJettiness.hh">
<polygon fill="white" stroke="black" points="1707.5,-185 1707.5,-204 1856.5,-204 1856.5,-185 1707.5,-185"/>
<text text-anchor="middle" x="1782" y="-192" font-family="Helvetica,sans-Serif" font-size="10.00">boca/fastjet/NSubJettiness.hh</text>
</a>
</g>
</g>
<!-- Node42&#45;&gt;Node43 -->
<g id="edge49" class="edge"><title>Node42&#45;&gt;Node43</title>
<path fill="none" stroke="midnightblue" d="M1707.46,-246.475C1721.42,-236.931 1744.26,-221.307 1760.99,-209.868"/>
<polygon fill="midnightblue" stroke="midnightblue" points="1763.28,-212.543 1769.56,-204.009 1759.33,-206.765 1763.28,-212.543"/>
</g>
<!-- Node44&#45;&gt;Node27 -->
<g id="edge52" class="edge"><title>Node44&#45;&gt;Node27</title>
<path fill="none" stroke="midnightblue" d="M1553.51,-249.848C1626.14,-242.829 1755.97,-228.935 1866,-210 1872.36,-208.906 1879.03,-207.601 1885.58,-206.228"/>
<polygon fill="midnightblue" stroke="midnightblue" points="1886.67,-209.572 1895.7,-204.035 1885.19,-202.73 1886.67,-209.572"/>
</g>
<!-- Node45 -->
<g id="node45" class="node"><title>Node45</title>
<g id="a_node45"><a xlink:href="Matrix3_8hh.html" target="_top" xlink:title="boca/math/Matrix3.hh">
<polygon fill="white" stroke="red" points="1427.5,-185 1427.5,-204 1538.5,-204 1538.5,-185 1427.5,-185"/>
<text text-anchor="middle" x="1483" y="-192" font-family="Helvetica,sans-Serif" font-size="10.00">boca/math/Matrix3.hh</text>
</a>
</g>
</g>
<!-- Node44&#45;&gt;Node45 -->
<g id="edge51" class="edge"><title>Node44&#45;&gt;Node45</title>
<path fill="none" stroke="midnightblue" d="M1494.99,-246.475C1493,-237.992 1489.87,-224.704 1487.31,-213.822"/>
<polygon fill="midnightblue" stroke="midnightblue" points="1490.7,-212.942 1485,-204.009 1483.89,-214.545 1490.7,-212.942"/>
</g>
<!-- Node46 -->
<g id="node46" class="node"><title>Node46</title>
<g id="a_node46"><a xlink:href="HemisphereMasses_8hh.html" target="_top" xlink:title="boca/HemisphereMasses.hh">
<polygon fill="white" stroke="black" points="1268.5,-185 1268.5,-204 1409.5,-204 1409.5,-185 1268.5,-185"/>
<text text-anchor="middle" x="1339" y="-192" font-family="Helvetica,sans-Serif" font-size="10.00">boca/HemisphereMasses.hh</text>
</a>
</g>
</g>
<!-- Node44&#45;&gt;Node46 -->
<g id="edge53" class="edge"><title>Node44&#45;&gt;Node46</title>
<path fill="none" stroke="midnightblue" d="M1474.36,-246.475C1447.26,-236.269 1401.69,-219.108 1371,-207.549"/>
<polygon fill="midnightblue" stroke="midnightblue" points="1372.19,-204.258 1361.6,-204.009 1369.72,-210.809 1372.19,-204.258"/>
</g>
<!-- Node46&#45;&gt;Node15 -->
<g id="edge54" class="edge"><title>Node46&#45;&gt;Node15</title>
<path fill="none" stroke="midnightblue" d="M1338.6,-184.734C1338.15,-175.183 1337.44,-159.618 1336.87,-147.283"/>
<polygon fill="midnightblue" stroke="midnightblue" points="1340.36,-146.955 1336.4,-137.127 1333.36,-147.278 1340.36,-146.955"/>
</g>
<!-- Node47&#45;&gt;Node19 -->
<g id="edge57" class="edge"><title>Node47&#45;&gt;Node19</title>
<path fill="none" stroke="midnightblue" d="M1232.11,-184.906C1284.51,-173.523 1373.3,-153.647 1405,-143 1474.99,-119.498 1516.68,-137.842 1557,-76 1570.82,-54.8127 1543.32,-35.7999 1518.84,-23.8907"/>
<polygon fill="midnightblue" stroke="midnightblue" points="1520.24,-20.6839 1509.7,-19.6845 1517.32,-27.0434 1520.24,-20.6839"/>
</g>
<!-- Node48 -->
<g id="node48" class="node"><title>Node48</title>
<polygon fill="white" stroke="#bfbfbf" points="1141,-112.5 1141,-142.5 1251,-142.5 1251,-112.5 1141,-112.5"/>
<text text-anchor="start" x="1149" y="-130.5" font-family="Helvetica,sans-Serif" font-size="10.00">boost/range/algorithm</text>
<text text-anchor="middle" x="1196" y="-119.5" font-family="Helvetica,sans-Serif" font-size="10.00">/sort.hpp</text>
</g>
<!-- Node47&#45;&gt;Node48 -->
<g id="edge56" class="edge"><title>Node47&#45;&gt;Node48</title>
<path fill="none" stroke="midnightblue" d="M1192.54,-184.734C1193.04,-176.541 1193.82,-163.923 1194.51,-152.714"/>
<polygon fill="midnightblue" stroke="midnightblue" points="1198.01,-152.785 1195.13,-142.589 1191.03,-152.355 1198.01,-152.785"/>
</g>
<!-- Node49 -->
<g id="node49" class="node"><title>Node49</title>
<g id="a_node49"><a xlink:href="Id_8hh.html" target="_top" xlink:title="boca/physics/Id.hh">
<polygon fill="white" stroke="black" points="1023.5,-118 1023.5,-137 1122.5,-137 1122.5,-118 1023.5,-118"/>
<text text-anchor="middle" x="1073" y="-125" font-family="Helvetica,sans-Serif" font-size="10.00">boca/physics/Id.hh</text>
</a>
</g>
</g>
<!-- Node47&#45;&gt;Node49 -->
<g id="edge58" class="edge"><title>Node47&#45;&gt;Node49</title>
<path fill="none" stroke="midnightblue" d="M1175.95,-184.734C1155.88,-173.769 1121.3,-154.881 1097.81,-142.049"/>
<polygon fill="midnightblue" stroke="midnightblue" points="1099.25,-138.849 1088.79,-137.127 1095.89,-144.993 1099.25,-138.849"/>
</g>
<!-- Node49&#45;&gt;Node21 -->
<g id="edge60" class="edge"><title>Node49&#45;&gt;Node21</title>
<path fill="none" stroke="midnightblue" d="M1056.1,-117.957C1033.28,-105.244 997.203,-80.2359 1013,-56 1028.38,-32.4121 1059.21,-21.1009 1082.98,-15.7308"/>
<polygon fill="midnightblue" stroke="midnightblue" points="1083.87,-19.1203 1092.99,-13.7165 1082.49,-12.2578 1083.87,-19.1203"/>
</g>
<!-- Node49&#45;&gt;Node23 -->
<g id="edge59" class="edge"><title>Node49&#45;&gt;Node23</title>
<path fill="none" stroke="midnightblue" d="M1054.66,-117.975C1033.18,-107.99 997.378,-91.3476 972.552,-79.8075"/>
<polygon fill="midnightblue" stroke="midnightblue" points="973.849,-76.5506 963.305,-75.5091 970.898,-82.8983 973.849,-76.5506"/>
</g>
<!-- Node50 -->
<g id="node50" class="node"><title>Node50</title>
<g id="a_node50"><a xlink:href="ElectronVolt_8hh.html" target="_top" xlink:title="boca/physics/ElectronVolt.hh">
<polygon fill="white" stroke="red" points="1022,-56.5 1022,-75.5 1166,-75.5 1166,-56.5 1022,-56.5"/>
<text text-anchor="middle" x="1094" y="-63.5" font-family="Helvetica,sans-Serif" font-size="10.00">boca/physics/ElectronVolt.hh</text>
</a>
</g>
</g>
<!-- Node49&#45;&gt;Node50 -->
<g id="edge61" class="edge"><title>Node49&#45;&gt;Node50</title>
<path fill="none" stroke="midnightblue" d="M1076.01,-117.975C1079.03,-109.404 1083.79,-95.9269 1087.65,-84.983"/>
<polygon fill="midnightblue" stroke="midnightblue" points="1090.97,-86.1039 1091,-75.5091 1084.37,-83.7741 1090.97,-86.1039"/>
</g>
</g>
</svg>
