<?xml version="1.0" encoding="UTF-8" standalone="no"?>
<!DOCTYPE svg PUBLIC "-//W3C//DTD SVG 1.1//EN"
 "http://www.w3.org/Graphics/SVG/1.1/DTD/svg11.dtd">
<!-- Generated by graphviz version 2.38.0 (20140413.2041)
 -->
<!-- Title: examples/higgscpv/higgscpv/branch/Event.hh Pages: 1 -->
<svg width="528pt" height="173pt"
 viewBox="0.00 0.00 528.00 173.00" xmlns="http://www.w3.org/2000/svg" xmlns:xlink="http://www.w3.org/1999/xlink">
<g id="graph0" class="graph" transform="scale(1 1) rotate(0) translate(4 169)">
<title>examples/higgscpv/higgscpv/branch/Event.hh</title>
<polygon fill="white" stroke="none" points="-4,4 -4,-169 524,-169 524,4 -4,4"/>
<!-- Node1 -->
<g id="node1" class="node"><title>Node1</title>
<polygon fill="#bfbfbf" stroke="black" points="226,-134.5 226,-164.5 369,-164.5 369,-134.5 226,-134.5"/>
<text text-anchor="start" x="234" y="-152.5" font-family="Helvetica,sans-Serif" font-size="10.00">examples/higgscpv/higgscpv</text>
<text text-anchor="middle" x="297.5" y="-141.5" font-family="Helvetica,sans-Serif" font-size="10.00">/branch/Event.hh</text>
</g>
<!-- Node2 -->
<g id="node2" class="node"><title>Node2</title>
<g id="a_node2"><a xlink:href="EventLeptonT_8hh.html" target="_top" xlink:title="examples/higgscpv/higgscpv\l/tagger/EventLeptonT.hh">
<polygon fill="white" stroke="black" points="65,-67.5 65,-97.5 208,-97.5 208,-67.5 65,-67.5"/>
<text text-anchor="start" x="73" y="-85.5" font-family="Helvetica,sans-Serif" font-size="10.00">examples/higgscpv/higgscpv</text>
<text text-anchor="middle" x="136.5" y="-74.5" font-family="Helvetica,sans-Serif" font-size="10.00">/tagger/EventLeptonT.hh</text>
</a>
</g>
</g>
<!-- Node1&#45;&gt;Node2 -->
<g id="edge1" class="edge"><title>Node1&#45;&gt;Node2</title>
<path fill="none" stroke="midnightblue" d="M253.025,-130.544C227.262,-120.143 195.297,-107.238 171.366,-97.5765"/>
<polygon fill="midnightblue" stroke="midnightblue" points="251.982,-133.898 262.565,-134.396 254.603,-127.407 251.982,-133.898"/>
</g>
<!-- Node5 -->
<g id="node5" class="node"><title>Node5</title>
<g id="a_node5"><a xlink:href="EventT_8hh.html" target="_top" xlink:title="examples/higgscpv/higgscpv\l/tagger/EventT.hh">
<polygon fill="white" stroke="black" points="226,-67.5 226,-97.5 369,-97.5 369,-67.5 226,-67.5"/>
<text text-anchor="start" x="234" y="-85.5" font-family="Helvetica,sans-Serif" font-size="10.00">examples/higgscpv/higgscpv</text>
<text text-anchor="middle" x="297.5" y="-74.5" font-family="Helvetica,sans-Serif" font-size="10.00">/tagger/EventT.hh</text>
</a>
</g>
</g>
<!-- Node1&#45;&gt;Node5 -->
<g id="edge4" class="edge"><title>Node1&#45;&gt;Node5</title>
<path fill="none" stroke="midnightblue" d="M297.5,-124.108C297.5,-115.154 297.5,-105.323 297.5,-97.5765"/>
<polygon fill="midnightblue" stroke="midnightblue" points="294,-124.396 297.5,-134.396 301,-124.396 294,-124.396"/>
</g>
<!-- Node7 -->
<g id="node7" class="node"><title>Node7</title>
<g id="a_node7"><a xlink:href="examples_2higgscpv_2source_2branch_2Event_8cpp.html" target="_top" xlink:title="examples/higgscpv/source\l/branch/Event.cpp">
<polygon fill="white" stroke="black" points="387,-67.5 387,-97.5 520,-97.5 520,-67.5 387,-67.5"/>
<text text-anchor="start" x="395" y="-85.5" font-family="Helvetica,sans-Serif" font-size="10.00">examples/higgscpv/source</text>
<text text-anchor="middle" x="453.5" y="-74.5" font-family="Helvetica,sans-Serif" font-size="10.00">/branch/Event.cpp</text>
</a>
</g>
</g>
<!-- Node1&#45;&gt;Node7 -->
<g id="edge7" class="edge"><title>Node1&#45;&gt;Node7</title>
<path fill="none" stroke="midnightblue" d="M340.594,-130.544C365.557,-120.143 396.529,-107.238 419.716,-97.5765"/>
<polygon fill="midnightblue" stroke="midnightblue" points="339.234,-127.319 331.35,-134.396 341.927,-133.781 339.234,-127.319"/>
</g>
<!-- Node3 -->
<g id="node3" class="node"><title>Node3</title>
<g id="a_node3"><a xlink:href="main_8cpp.html" target="_top" xlink:title="examples/higgscpv/source\l/main.cpp">
<polygon fill="white" stroke="black" points="151,-0.5 151,-30.5 284,-30.5 284,-0.5 151,-0.5"/>
<text text-anchor="start" x="159" y="-18.5" font-family="Helvetica,sans-Serif" font-size="10.00">examples/higgscpv/source</text>
<text text-anchor="middle" x="217.5" y="-7.5" font-family="Helvetica,sans-Serif" font-size="10.00">/main.cpp</text>
</a>
</g>
</g>
<!-- Node2&#45;&gt;Node3 -->
<g id="edge2" class="edge"><title>Node2&#45;&gt;Node3</title>
<path fill="none" stroke="midnightblue" d="M162.192,-60.8832C174.501,-51.0054 188.927,-39.4293 199.959,-30.5765"/>
<polygon fill="midnightblue" stroke="midnightblue" points="159.685,-58.4075 154.076,-67.396 164.066,-63.867 159.685,-58.4075"/>
</g>
<!-- Node4 -->
<g id="node4" class="node"><title>Node4</title>
<g id="a_node4"><a xlink:href="EventLeptonT_8cpp.html" target="_top" xlink:title="examples/higgscpv/source\l/tagger/EventLeptonT.cpp">
<polygon fill="white" stroke="black" points="0,-0.5 0,-30.5 133,-30.5 133,-0.5 0,-0.5"/>
<text text-anchor="start" x="8" y="-18.5" font-family="Helvetica,sans-Serif" font-size="10.00">examples/higgscpv/source</text>
<text text-anchor="middle" x="66.5" y="-7.5" font-family="Helvetica,sans-Serif" font-size="10.00">/tagger/EventLeptonT.cpp</text>
</a>
</g>
</g>
<!-- Node2&#45;&gt;Node4 -->
<g id="edge3" class="edge"><title>Node2&#45;&gt;Node4</title>
<path fill="none" stroke="midnightblue" d="M113.682,-60.3115C103.181,-50.5612 91.0097,-39.259 81.6593,-30.5765"/>
<polygon fill="midnightblue" stroke="midnightblue" points="111.601,-63.1562 121.311,-67.396 116.365,-58.0266 111.601,-63.1562"/>
</g>
<!-- Node5&#45;&gt;Node3 -->
<g id="edge5" class="edge"><title>Node5&#45;&gt;Node3</title>
<path fill="none" stroke="midnightblue" d="M272.125,-60.8832C259.968,-51.0054 245.721,-39.4293 234.825,-30.5765"/>
<polygon fill="midnightblue" stroke="midnightblue" points="270.173,-63.8064 280.141,-67.396 274.587,-58.3736 270.173,-63.8064"/>
</g>
<!-- Node6 -->
<g id="node6" class="node"><title>Node6</title>
<g id="a_node6"><a xlink:href="EventT_8cpp.html" target="_top" xlink:title="examples/higgscpv/source\l/tagger/EventT.cpp">
<polygon fill="white" stroke="black" points="302,-0.5 302,-30.5 435,-30.5 435,-0.5 302,-0.5"/>
<text text-anchor="start" x="310" y="-18.5" font-family="Helvetica,sans-Serif" font-size="10.00">examples/higgscpv/source</text>
<text text-anchor="middle" x="368.5" y="-7.5" font-family="Helvetica,sans-Serif" font-size="10.00">/tagger/EventT.cpp</text>
</a>
</g>
</g>
<!-- Node5&#45;&gt;Node6 -->
<g id="edge6" class="edge"><title>Node5&#45;&gt;Node6</title>
<path fill="none" stroke="midnightblue" d="M320.332,-60.5978C331.052,-50.7831 343.547,-39.3442 353.124,-30.5765"/>
<polygon fill="midnightblue" stroke="midnightblue" points="317.918,-58.0618 312.906,-67.396 322.645,-63.225 317.918,-58.0618"/>
</g>
</g>
</svg>
