<?xml version="1.0" encoding="UTF-8" standalone="no"?>
<!DOCTYPE svg PUBLIC "-//W3C//DTD SVG 1.1//EN"
 "http://www.w3.org/Graphics/SVG/1.1/DTD/svg11.dtd">
<!-- Generated by graphviz version 2.38.0 (20140413.2041)
 -->
<!-- Title: examples/standardmodel/standardmodel/tagger/Global.hh Pages: 1 -->
<svg width="1967pt" height="441pt"
 viewBox="0.00 0.00 1967.00 441.00" xmlns="http://www.w3.org/2000/svg" xmlns:xlink="http://www.w3.org/1999/xlink">
<g id="graph0" class="graph" transform="scale(1 1) rotate(0) translate(4 437)">
<title>examples/standardmodel/standardmodel/tagger/Global.hh</title>
<polygon fill="white" stroke="none" points="-4,4 -4,-437 1963,-437 1963,4 -4,4"/>
<!-- Node1 -->
<g id="node1" class="node"><title>Node1</title>
<polygon fill="#bfbfbf" stroke="black" points="736,-391.5 736,-432.5 861,-432.5 861,-391.5 736,-391.5"/>
<text text-anchor="start" x="744" y="-420.5" font-family="Helvetica,sans-Serif" font-size="10.00">examples/standardmodel</text>
<text text-anchor="start" x="744" y="-409.5" font-family="Helvetica,sans-Serif" font-size="10.00">/standardmodel/tagger</text>
<text text-anchor="middle" x="798.5" y="-398.5" font-family="Helvetica,sans-Serif" font-size="10.00">/Global.hh</text>
</g>
<!-- Node2 -->
<g id="node2" class="node"><title>Node2</title>
<g id="a_node2"><a xlink:href="Reader_8hh.html" target="_top" xlink:title="boca/multivariant/Reader.hh">
<polygon fill="white" stroke="black" points="259,-330 259,-349 398,-349 398,-330 259,-330"/>
<text text-anchor="middle" x="328.5" y="-337" font-family="Helvetica,sans-Serif" font-size="10.00">boca/multivariant/Reader.hh</text>
</a>
</g>
</g>
<!-- Node1&#45;&gt;Node2 -->
<g id="edge1" class="edge"><title>Node1&#45;&gt;Node2</title>
<path fill="none" stroke="midnightblue" d="M735.601,-401.565C646.997,-388.275 486.137,-364.146 395.41,-350.537"/>
<polygon fill="midnightblue" stroke="midnightblue" points="395.918,-347.074 385.51,-349.051 394.88,-353.996 395.918,-347.074"/>
</g>
<!-- Node30 -->
<g id="node30" class="node"><title>Node30</title>
<g id="a_node30"><a xlink:href="boca_2branch_2Global_8hh.html" target="_top" xlink:title="boca/branch/Global.hh">
<polygon fill="white" stroke="black" points="1733.5,-196 1733.5,-215 1847.5,-215 1847.5,-196 1733.5,-196"/>
<text text-anchor="middle" x="1790.5" y="-203" font-family="Helvetica,sans-Serif" font-size="10.00">boca/branch/Global.hh</text>
</a>
</g>
</g>
<!-- Node1&#45;&gt;Node30 -->
<g id="edge35" class="edge"><title>Node1&#45;&gt;Node30</title>
<path fill="none" stroke="midnightblue" d="M861.12,-408.841C1002.3,-402.465 1354.81,-378.051 1633.5,-288 1684.92,-271.385 1739.83,-239.107 1769.13,-220.547"/>
<polygon fill="midnightblue" stroke="midnightblue" points="1771.19,-223.388 1777.71,-215.041 1767.41,-217.497 1771.19,-223.388"/>
</g>
<!-- Node36 -->
<g id="node36" class="node"><title>Node36</title>
<g id="a_node36"><a xlink:href="boca_2multiplets_2Global_8hh.html" target="_top" xlink:title="boca/multiplets/Global.hh">
<polygon fill="white" stroke="black" points="660,-330 660,-349 787,-349 787,-330 660,-330"/>
<text text-anchor="middle" x="723.5" y="-337" font-family="Helvetica,sans-Serif" font-size="10.00">boca/multiplets/Global.hh</text>
</a>
</g>
</g>
<!-- Node1&#45;&gt;Node36 -->
<g id="edge43" class="edge"><title>Node1&#45;&gt;Node36</title>
<path fill="none" stroke="midnightblue" d="M777.608,-391.362C765.75,-380.215 751.114,-366.458 740.056,-356.063"/>
<polygon fill="midnightblue" stroke="midnightblue" points="742.411,-353.472 732.727,-349.173 737.616,-358.573 742.411,-353.472"/>
</g>
<!-- Node39 -->
<g id="node39" class="node"><title>Node39</title>
<g id="a_node39"><a xlink:href="tagger_2Bottom_8hh.html" target="_top" xlink:title="standardmodel/tagger\l/Bottom.hh">
<polygon fill="white" stroke="black" points="818.5,-324.5 818.5,-354.5 928.5,-354.5 928.5,-324.5 818.5,-324.5"/>
<text text-anchor="start" x="826.5" y="-342.5" font-family="Helvetica,sans-Serif" font-size="10.00">standardmodel/tagger</text>
<text text-anchor="middle" x="873.5" y="-331.5" font-family="Helvetica,sans-Serif" font-size="10.00">/Bottom.hh</text>
</a>
</g>
</g>
<!-- Node1&#45;&gt;Node39 -->
<g id="edge48" class="edge"><title>Node1&#45;&gt;Node39</title>
<path fill="none" stroke="midnightblue" d="M819.392,-391.362C829.105,-382.232 840.681,-371.35 850.628,-362"/>
<polygon fill="midnightblue" stroke="midnightblue" points="853.301,-364.291 858.19,-354.892 848.506,-359.191 853.301,-364.291"/>
</g>
<!-- Node3 -->
<g id="node3" class="node"><title>Node3</title>
<polygon fill="white" stroke="#bfbfbf" points="0,-263 0,-282 87,-282 87,-263 0,-263"/>
<text text-anchor="middle" x="43.5" y="-270" font-family="Helvetica,sans-Serif" font-size="10.00">TMVA/Reader.h</text>
</g>
<!-- Node2&#45;&gt;Node3 -->
<g id="edge2" class="edge"><title>Node2&#45;&gt;Node3</title>
<path fill="none" stroke="midnightblue" d="M288.652,-329.964C243.267,-320.166 166.921,-303.452 101.5,-288 96.7618,-286.881 91.8128,-285.685 86.8892,-284.478"/>
<polygon fill="midnightblue" stroke="midnightblue" points="87.4422,-281.01 76.8944,-282.007 85.7618,-287.805 87.4422,-281.01"/>
</g>
<!-- Node4 -->
<g id="node4" class="node"><title>Node4</title>
<g id="a_node4"><a xlink:href="Options_8hh.html" target="_top" xlink:title="boca/generic/Options.hh">
<polygon fill="white" stroke="black" points="200.5,-263 200.5,-282 322.5,-282 322.5,-263 200.5,-263"/>
<text text-anchor="middle" x="261.5" y="-270" font-family="Helvetica,sans-Serif" font-size="10.00">boca/generic/Options.hh</text>
</a>
</g>
</g>
<!-- Node2&#45;&gt;Node4 -->
<g id="edge3" class="edge"><title>Node2&#45;&gt;Node4</title>
<path fill="none" stroke="midnightblue" d="M319.464,-329.734C308.815,-319.403 290.915,-302.037 277.819,-289.332"/>
<polygon fill="midnightblue" stroke="midnightblue" points="280.007,-286.578 270.393,-282.127 275.133,-291.603 280.007,-286.578"/>
</g>
<!-- Node6 -->
<g id="node6" class="node"><title>Node6</title>
<g id="a_node6"><a xlink:href="Phase_8hh.html" target="_top" xlink:title="boca/multivariant/Phase.hh">
<polygon fill="white" stroke="black" points="51,-129 51,-148 186,-148 186,-129 51,-129"/>
<text text-anchor="middle" x="118.5" y="-136" font-family="Helvetica,sans-Serif" font-size="10.00">boca/multivariant/Phase.hh</text>
</a>
</g>
</g>
<!-- Node2&#45;&gt;Node6 -->
<g id="edge5" class="edge"><title>Node2&#45;&gt;Node6</title>
<path fill="none" stroke="midnightblue" d="M288.166,-329.946C259.245,-322.383 220.441,-309.189 191.5,-288 161.086,-265.733 156.102,-254.841 139.5,-221 129.67,-200.962 124.094,-175.821 121.195,-158.8"/>
<polygon fill="midnightblue" stroke="midnightblue" points="124.586,-157.823 119.597,-148.476 117.668,-158.894 124.586,-157.823"/>
</g>
<!-- Node10 -->
<g id="node10" class="node"><title>Node10</title>
<g id="a_node10"><a xlink:href="PreCuts_8hh.html" target="_top" xlink:title="boca/identification\l/PreCuts.hh">
<polygon fill="white" stroke="black" points="1136,-190.5 1136,-220.5 1231,-220.5 1231,-190.5 1136,-190.5"/>
<text text-anchor="start" x="1144" y="-208.5" font-family="Helvetica,sans-Serif" font-size="10.00">boca/identification</text>
<text text-anchor="middle" x="1183.5" y="-197.5" font-family="Helvetica,sans-Serif" font-size="10.00">/PreCuts.hh</text>
</a>
</g>
</g>
<!-- Node2&#45;&gt;Node10 -->
<g id="edge10" class="edge"><title>Node2&#45;&gt;Node10</title>
<path fill="none" stroke="midnightblue" d="M398.189,-335.006C591.249,-325.214 1119.86,-297.598 1135.5,-288 1156.5,-275.112 1169.37,-249.336 1176.43,-230.207"/>
<polygon fill="midnightblue" stroke="midnightblue" points="1179.77,-231.244 1179.68,-220.65 1173.15,-228.987 1179.77,-231.244"/>
</g>
<!-- Node24 -->
<g id="node24" class="node"><title>Node24</title>
<g id="a_node24"><a xlink:href="boca_2event_2Event_8hh.html" target="_top" xlink:title="boca/event/Event.hh">
<polygon fill="white" stroke="black" points="370,-263 370,-282 477,-282 477,-263 370,-263"/>
<text text-anchor="middle" x="423.5" y="-270" font-family="Helvetica,sans-Serif" font-size="10.00">boca/event/Event.hh</text>
</a>
</g>
</g>
<!-- Node2&#45;&gt;Node24 -->
<g id="edge25" class="edge"><title>Node2&#45;&gt;Node24</title>
<path fill="none" stroke="midnightblue" d="M341.312,-329.734C356.981,-319.013 383.722,-300.716 402.434,-287.914"/>
<polygon fill="midnightblue" stroke="midnightblue" points="404.614,-290.663 410.891,-282.127 400.661,-284.886 404.614,-290.663"/>
</g>
<!-- Node5 -->
<g id="node5" class="node"><title>Node5</title>
<polygon fill="white" stroke="#bfbfbf" points="581.5,-62 581.5,-81 633.5,-81 633.5,-62 581.5,-62"/>
<text text-anchor="middle" x="607.5" y="-69" font-family="Helvetica,sans-Serif" font-size="10.00">sstream</text>
</g>
<!-- Node4&#45;&gt;Node5 -->
<g id="edge4" class="edge"><title>Node4&#45;&gt;Node5</title>
<path fill="none" stroke="midnightblue" d="M239.249,-262.976C205.032,-248.687 146.076,-218.642 172.5,-190 239.922,-116.916 551.078,-227.084 618.5,-154 634.265,-136.911 625.523,-108.585 617.072,-90.2331"/>
<polygon fill="midnightblue" stroke="midnightblue" points="620.161,-88.5843 612.565,-81.1983 613.897,-91.7091 620.161,-88.5843"/>
</g>
<!-- Node7 -->
<g id="node7" class="node"><title>Node7</title>
<g id="a_node7"><a xlink:href="Tag_8hh.html" target="_top" xlink:title="boca/identification\l/Tag.hh">
<polygon fill="white" stroke="black" points="70,-56.5 70,-86.5 165,-86.5 165,-56.5 70,-56.5"/>
<text text-anchor="start" x="78" y="-74.5" font-family="Helvetica,sans-Serif" font-size="10.00">boca/identification</text>
<text text-anchor="middle" x="117.5" y="-63.5" font-family="Helvetica,sans-Serif" font-size="10.00">/Tag.hh</text>
</a>
</g>
</g>
<!-- Node6&#45;&gt;Node7 -->
<g id="edge6" class="edge"><title>Node6&#45;&gt;Node7</title>
<path fill="none" stroke="midnightblue" d="M118.365,-128.734C118.239,-120.541 118.045,-107.923 117.873,-96.7136"/>
<polygon fill="midnightblue" stroke="midnightblue" points="121.37,-96.534 117.717,-86.589 114.371,-96.6417 121.37,-96.534"/>
</g>
<!-- Node9 -->
<g id="node9" class="node"><title>Node9</title>
<g id="a_node9"><a xlink:href="Stage_8hh.html" target="_top" xlink:title="boca/multivariant/Stage.hh">
<polygon fill="white" stroke="black" points="183,-62 183,-81 316,-81 316,-62 183,-62"/>
<text text-anchor="middle" x="249.5" y="-69" font-family="Helvetica,sans-Serif" font-size="10.00">boca/multivariant/Stage.hh</text>
</a>
</g>
</g>
<!-- Node6&#45;&gt;Node9 -->
<g id="edge8" class="edge"><title>Node6&#45;&gt;Node9</title>
<path fill="none" stroke="midnightblue" d="M135.896,-128.869C158.113,-117.845 196.787,-98.6554 222.76,-85.7678"/>
<polygon fill="midnightblue" stroke="midnightblue" points="224.63,-88.7473 232.032,-81.1672 221.519,-82.4767 224.63,-88.7473"/>
</g>
<!-- Node8 -->
<g id="node8" class="node"><title>Node8</title>
<polygon fill="white" stroke="#bfbfbf" points="525,-0.5 525,-19.5 566,-19.5 566,-0.5 525,-0.5"/>
<text text-anchor="middle" x="545.5" y="-7.5" font-family="Helvetica,sans-Serif" font-size="10.00">string</text>
</g>
<!-- Node7&#45;&gt;Node8 -->
<g id="edge7" class="edge"><title>Node7&#45;&gt;Node8</title>
<path fill="none" stroke="midnightblue" d="M165.062,-57.7256C167.908,-57.104 170.737,-56.5224 173.5,-56 298.884,-32.2925 450.523,-18.4961 514.571,-13.3412"/>
<polygon fill="midnightblue" stroke="midnightblue" points="515.092,-16.811 524.785,-12.533 514.54,-9.83277 515.092,-16.811"/>
</g>
<!-- Node9&#45;&gt;Node8 -->
<g id="edge9" class="edge"><title>Node9&#45;&gt;Node8</title>
<path fill="none" stroke="midnightblue" d="M291.91,-61.9751C352.305,-49.8347 461.652,-27.8546 514.82,-17.1672"/>
<polygon fill="midnightblue" stroke="midnightblue" points="515.559,-20.5887 524.673,-15.1865 514.179,-13.7259 515.559,-20.5887"/>
</g>
<!-- Node11 -->
<g id="node11" class="node"><title>Node11</title>
<g id="a_node11"><a xlink:href="Range_8hh.html" target="_top" xlink:title="boca/math/Range.hh">
<polygon fill="white" stroke="black" points="848,-129 848,-148 955,-148 955,-129 848,-129"/>
<text text-anchor="middle" x="901.5" y="-136" font-family="Helvetica,sans-Serif" font-size="10.00">boca/math/Range.hh</text>
</a>
</g>
</g>
<!-- Node10&#45;&gt;Node11 -->
<g id="edge11" class="edge"><title>Node10&#45;&gt;Node11</title>
<path fill="none" stroke="midnightblue" d="M1135.98,-193.547C1083.74,-181.506 1000.34,-162.282 948.361,-150.301"/>
<polygon fill="midnightblue" stroke="midnightblue" points="948.934,-146.842 938.403,-148.006 947.362,-153.663 948.934,-146.842"/>
</g>
<!-- Node17 -->
<g id="node17" class="node"><title>Node17</title>
<g id="a_node17"><a xlink:href="PreCut_8hh.html" target="_top" xlink:title="boca/identification\l/PreCut.hh">
<polygon fill="white" stroke="black" points="329,-123.5 329,-153.5 424,-153.5 424,-123.5 329,-123.5"/>
<text text-anchor="start" x="337" y="-141.5" font-family="Helvetica,sans-Serif" font-size="10.00">boca/identification</text>
<text text-anchor="middle" x="376.5" y="-130.5" font-family="Helvetica,sans-Serif" font-size="10.00">/PreCut.hh</text>
</a>
</g>
</g>
<!-- Node10&#45;&gt;Node17 -->
<g id="edge17" class="edge"><title>Node10&#45;&gt;Node17</title>
<path fill="none" stroke="midnightblue" d="M1135.71,-200.366C1100.32,-197.352 1050.91,-193.246 1007.5,-190 769.406,-172.197 708.835,-180.036 471.5,-154 459.45,-152.678 446.588,-150.939 434.345,-149.125"/>
<polygon fill="midnightblue" stroke="midnightblue" points="434.65,-145.631 424.238,-147.592 433.6,-152.552 434.65,-145.631"/>
</g>
<!-- Node20 -->
<g id="node20" class="node"><title>Node20</title>
<g id="a_node20"><a xlink:href="generic_2Vector_8hh.html" target="_top" xlink:title="boca/generic/Vector.hh">
<polygon fill="white" stroke="red" points="1222,-129 1222,-148 1339,-148 1339,-129 1222,-129"/>
<text text-anchor="middle" x="1280.5" y="-136" font-family="Helvetica,sans-Serif" font-size="10.00">boca/generic/Vector.hh</text>
</a>
</g>
</g>
<!-- Node10&#45;&gt;Node20 -->
<g id="edge21" class="edge"><title>Node10&#45;&gt;Node20</title>
<path fill="none" stroke="midnightblue" d="M1204.55,-190.396C1220.81,-179.496 1243.22,-164.479 1259.48,-153.584"/>
<polygon fill="midnightblue" stroke="midnightblue" points="1261.45,-156.481 1267.8,-148.007 1257.55,-150.666 1261.45,-156.481"/>
</g>
<!-- Node12 -->
<g id="node12" class="node"><title>Node12</title>
<polygon fill="white" stroke="#bfbfbf" points="689.5,-62 689.5,-81 743.5,-81 743.5,-62 689.5,-62"/>
<text text-anchor="middle" x="716.5" y="-69" font-family="Helvetica,sans-Serif" font-size="10.00">iostream</text>
</g>
<!-- Node11&#45;&gt;Node12 -->
<g id="edge12" class="edge"><title>Node11&#45;&gt;Node12</title>
<path fill="none" stroke="midnightblue" d="M874.695,-128.917C844.743,-119.21 794.888,-102.705 752.5,-87 750.652,-86.3153 748.756,-85.5977 746.848,-84.8637"/>
<polygon fill="midnightblue" stroke="midnightblue" points="747.95,-81.5363 737.363,-81.1336 745.388,-88.0506 747.95,-81.5363"/>
</g>
<!-- Node13 -->
<g id="node13" class="node"><title>Node13</title>
<polygon fill="white" stroke="#bfbfbf" points="881.5,-62 881.5,-81 921.5,-81 921.5,-62 881.5,-62"/>
<text text-anchor="middle" x="901.5" y="-69" font-family="Helvetica,sans-Serif" font-size="10.00">utility</text>
</g>
<!-- Node11&#45;&gt;Node13 -->
<g id="edge13" class="edge"><title>Node11&#45;&gt;Node13</title>
<path fill="none" stroke="midnightblue" d="M901.5,-128.734C901.5,-119.183 901.5,-103.618 901.5,-91.2829"/>
<polygon fill="midnightblue" stroke="midnightblue" points="905,-91.1273 901.5,-81.1273 898,-91.1273 905,-91.1273"/>
</g>
<!-- Node14 -->
<g id="node14" class="node"><title>Node14</title>
<g id="a_node14"><a xlink:href="Units_8hh.html" target="_top" xlink:title="boca/units/Units.hh">
<polygon fill="white" stroke="red" points="978,-62 978,-81 1079,-81 1079,-62 978,-62"/>
<text text-anchor="middle" x="1028.5" y="-69" font-family="Helvetica,sans-Serif" font-size="10.00">boca/units/Units.hh</text>
</a>
</g>
</g>
<!-- Node11&#45;&gt;Node14 -->
<g id="edge14" class="edge"><title>Node11&#45;&gt;Node14</title>
<path fill="none" stroke="midnightblue" d="M918.365,-128.869C939.903,-117.845 977.396,-98.6554 1002.58,-85.7678"/>
<polygon fill="midnightblue" stroke="midnightblue" points="1004.26,-88.8389 1011.57,-81.1672 1001.07,-82.6077 1004.26,-88.8389"/>
</g>
<!-- Node16 -->
<g id="node16" class="node"><title>Node16</title>
<g id="a_node16"><a xlink:href="Math_8hh.html" target="_top" xlink:title="boca/math/Math.hh">
<polygon fill="white" stroke="red" points="762,-62 762,-81 863,-81 863,-62 762,-62"/>
<text text-anchor="middle" x="812.5" y="-69" font-family="Helvetica,sans-Serif" font-size="10.00">boca/math/Math.hh</text>
</a>
</g>
</g>
<!-- Node11&#45;&gt;Node16 -->
<g id="edge16" class="edge"><title>Node11&#45;&gt;Node16</title>
<path fill="none" stroke="midnightblue" d="M889.497,-128.734C874.951,-118.111 850.22,-100.049 832.716,-87.2642"/>
<polygon fill="midnightblue" stroke="midnightblue" points="834.453,-84.1988 824.313,-81.1273 830.324,-89.8517 834.453,-84.1988"/>
</g>
<!-- Node15 -->
<g id="node15" class="node"><title>Node15</title>
<g id="a_node15"><a xlink:href="Prefixes_8hh.html" target="_top" xlink:title="boca/units/Prefixes.hh">
<polygon fill="white" stroke="red" points="1502.5,-0.5 1502.5,-19.5 1616.5,-19.5 1616.5,-0.5 1502.5,-0.5"/>
<text text-anchor="middle" x="1559.5" y="-7.5" font-family="Helvetica,sans-Serif" font-size="10.00">boca/units/Prefixes.hh</text>
</a>
</g>
</g>
<!-- Node14&#45;&gt;Node15 -->
<g id="edge15" class="edge"><title>Node14&#45;&gt;Node15</title>
<path fill="none" stroke="midnightblue" d="M1060.09,-61.9777C1069.2,-59.7609 1079.2,-57.56 1088.5,-56 1231.2,-32.0646 1400.52,-19.7628 1492.26,-14.4172"/>
<polygon fill="midnightblue" stroke="midnightblue" points="1492.46,-17.9114 1502.25,-13.8451 1492.06,-10.9229 1492.46,-17.9114"/>
</g>
<!-- Node18 -->
<g id="node18" class="node"><title>Node18</title>
<polygon fill="white" stroke="#bfbfbf" points="447,-62 447,-81 482,-81 482,-62 447,-62"/>
<text text-anchor="middle" x="464.5" y="-69" font-family="Helvetica,sans-Serif" font-size="10.00">map</text>
</g>
<!-- Node17&#45;&gt;Node18 -->
<g id="edge18" class="edge"><title>Node17&#45;&gt;Node18</title>
<path fill="none" stroke="midnightblue" d="M395.595,-123.396C410.079,-112.697 429.932,-98.0334 444.608,-87.193"/>
<polygon fill="midnightblue" stroke="midnightblue" points="447.019,-89.7637 452.983,-81.007 442.86,-84.1331 447.019,-89.7637"/>
</g>
<!-- Node19 -->
<g id="node19" class="node"><title>Node19</title>
<g id="a_node19"><a xlink:href="Id_8hh.html" target="_top" xlink:title="boca/identification\l/Id.hh">
<polygon fill="white" stroke="red" points="334,-56.5 334,-86.5 429,-86.5 429,-56.5 334,-56.5"/>
<text text-anchor="start" x="342" y="-74.5" font-family="Helvetica,sans-Serif" font-size="10.00">boca/identification</text>
<text text-anchor="middle" x="381.5" y="-63.5" font-family="Helvetica,sans-Serif" font-size="10.00">/Id.hh</text>
</a>
</g>
</g>
<!-- Node17&#45;&gt;Node19 -->
<g id="edge19" class="edge"><title>Node17&#45;&gt;Node19</title>
<path fill="none" stroke="midnightblue" d="M377.585,-123.396C378.188,-115.56 378.954,-105.596 379.649,-96.5653"/>
<polygon fill="midnightblue" stroke="midnightblue" points="383.14,-96.8155 380.417,-86.5765 376.16,-96.2786 383.14,-96.8155"/>
</g>
<!-- Node19&#45;&gt;Node8 -->
<g id="edge20" class="edge"><title>Node19&#45;&gt;Node8</title>
<path fill="none" stroke="midnightblue" d="M420.366,-56.3993C449.426,-45.8559 488.592,-31.6466 515.317,-21.9507"/>
<polygon fill="midnightblue" stroke="midnightblue" points="516.696,-25.1734 524.903,-18.4726 514.309,-18.5931 516.696,-25.1734"/>
</g>
<!-- Node21 -->
<g id="node21" class="node"><title>Node21</title>
<polygon fill="white" stroke="#bfbfbf" points="1097.5,-56.5 1097.5,-86.5 1207.5,-86.5 1207.5,-56.5 1097.5,-56.5"/>
<text text-anchor="start" x="1105.5" y="-74.5" font-family="Helvetica,sans-Serif" font-size="10.00">boost/range/algorithm</text>
<text text-anchor="middle" x="1152.5" y="-63.5" font-family="Helvetica,sans-Serif" font-size="10.00">/find.hpp</text>
</g>
<!-- Node20&#45;&gt;Node21 -->
<g id="edge22" class="edge"><title>Node20&#45;&gt;Node21</title>
<path fill="none" stroke="midnightblue" d="M1263.5,-128.869C1244.69,-119.315 1213.8,-103.627 1189.37,-91.2246"/>
<polygon fill="midnightblue" stroke="midnightblue" points="1190.87,-88.0588 1180.37,-86.6516 1187.7,-94.3001 1190.87,-88.0588"/>
</g>
<!-- Node22 -->
<g id="node22" class="node"><title>Node22</title>
<polygon fill="white" stroke="#bfbfbf" points="1225.5,-56.5 1225.5,-86.5 1335.5,-86.5 1335.5,-56.5 1225.5,-56.5"/>
<text text-anchor="start" x="1233.5" y="-74.5" font-family="Helvetica,sans-Serif" font-size="10.00">boost/range/algorithm</text>
<text text-anchor="middle" x="1280.5" y="-63.5" font-family="Helvetica,sans-Serif" font-size="10.00">/min_element.hpp</text>
</g>
<!-- Node20&#45;&gt;Node22 -->
<g id="edge23" class="edge"><title>Node20&#45;&gt;Node22</title>
<path fill="none" stroke="midnightblue" d="M1280.5,-128.734C1280.5,-120.541 1280.5,-107.923 1280.5,-96.7136"/>
<polygon fill="midnightblue" stroke="midnightblue" points="1284,-96.589 1280.5,-86.589 1277,-96.5891 1284,-96.589"/>
</g>
<!-- Node23 -->
<g id="node23" class="node"><title>Node23</title>
<polygon fill="white" stroke="#bfbfbf" points="1353.5,-56.5 1353.5,-86.5 1463.5,-86.5 1463.5,-56.5 1353.5,-56.5"/>
<text text-anchor="start" x="1361.5" y="-74.5" font-family="Helvetica,sans-Serif" font-size="10.00">boost/range/algorithm</text>
<text text-anchor="middle" x="1408.5" y="-63.5" font-family="Helvetica,sans-Serif" font-size="10.00">_ext/push_back.hpp</text>
</g>
<!-- Node20&#45;&gt;Node23 -->
<g id="edge24" class="edge"><title>Node20&#45;&gt;Node23</title>
<path fill="none" stroke="midnightblue" d="M1297.5,-128.869C1316.31,-119.315 1347.2,-103.627 1371.63,-91.2246"/>
<polygon fill="midnightblue" stroke="midnightblue" points="1373.3,-94.3001 1380.63,-86.6516 1370.13,-88.0588 1373.3,-94.3001"/>
</g>
<!-- Node24&#45;&gt;Node18 -->
<g id="edge26" class="edge"><title>Node24&#45;&gt;Node18</title>
<path fill="none" stroke="midnightblue" d="M425.262,-262.949C431.411,-233.101 452.018,-133.084 460.647,-91.1989"/>
<polygon fill="midnightblue" stroke="midnightblue" points="464.109,-91.7436 462.699,-81.243 457.253,-90.331 464.109,-91.7436"/>
</g>
<!-- Node25 -->
<g id="node25" class="node"><title>Node25</title>
<g id="a_node25"><a xlink:href="Mutable_8hh.html" target="_top" xlink:title="boca/generic/Mutable.hh">
<polygon fill="white" stroke="red" points="481,-196 481,-215 604,-215 604,-196 481,-196"/>
<text text-anchor="middle" x="542.5" y="-203" font-family="Helvetica,sans-Serif" font-size="10.00">boca/generic/Mutable.hh</text>
</a>
</g>
</g>
<!-- Node24&#45;&gt;Node25 -->
<g id="edge27" class="edge"><title>Node24&#45;&gt;Node25</title>
<path fill="none" stroke="midnightblue" d="M439.549,-262.734C459.622,-251.769 494.203,-232.881 517.694,-220.049"/>
<polygon fill="midnightblue" stroke="midnightblue" points="519.607,-222.993 526.705,-215.127 516.251,-216.849 519.607,-222.993"/>
</g>
<!-- Node27 -->
<g id="node27" class="node"><title>Node27</title>
<g id="a_node27"><a xlink:href="Flag_8hh.html" target="_top" xlink:title="boca/generic/Flag.hh">
<polygon fill="white" stroke="red" points="182,-196 182,-215 289,-215 289,-196 182,-196"/>
<text text-anchor="middle" x="235.5" y="-203" font-family="Helvetica,sans-Serif" font-size="10.00">boca/generic/Flag.hh</text>
</a>
</g>
</g>
<!-- Node24&#45;&gt;Node27 -->
<g id="edge32" class="edge"><title>Node24&#45;&gt;Node27</title>
<path fill="none" stroke="midnightblue" d="M398.535,-262.869C365.576,-251.473 307.382,-231.353 270.17,-218.487"/>
<polygon fill="midnightblue" stroke="midnightblue" points="270.864,-215.024 260.269,-215.064 268.576,-221.639 270.864,-215.024"/>
</g>
<!-- Node28 -->
<g id="node28" class="node"><title>Node28</title>
<g id="a_node28"><a xlink:href="Jet_8hh.html" target="_top" xlink:title="boca/fastjet/Jet.hh">
<polygon fill="white" stroke="red" points="622.5,-196 622.5,-215 720.5,-215 720.5,-196 622.5,-196"/>
<text text-anchor="middle" x="671.5" y="-203" font-family="Helvetica,sans-Serif" font-size="10.00">boca/fastjet/Jet.hh</text>
</a>
</g>
</g>
<!-- Node24&#45;&gt;Node28 -->
<g id="edge33" class="edge"><title>Node24&#45;&gt;Node28</title>
<path fill="none" stroke="midnightblue" d="M456.177,-262.936C500.505,-251.317 579.775,-230.541 628.777,-217.698"/>
<polygon fill="midnightblue" stroke="midnightblue" points="629.965,-221.004 638.751,-215.083 628.19,-214.233 629.965,-221.004"/>
</g>
<!-- Node29 -->
<g id="node29" class="node"><title>Node29</title>
<g id="a_node29"><a xlink:href="fastjet_2Particle_8hh.html" target="_top" xlink:title="boca/fastjet/Particle.hh">
<polygon fill="white" stroke="red" points="307,-196 307,-215 424,-215 424,-196 307,-196"/>
<text text-anchor="middle" x="365.5" y="-203" font-family="Helvetica,sans-Serif" font-size="10.00">boca/fastjet/Particle.hh</text>
</a>
</g>
</g>
<!-- Node24&#45;&gt;Node29 -->
<g id="edge34" class="edge"><title>Node24&#45;&gt;Node29</title>
<path fill="none" stroke="midnightblue" d="M415.678,-262.734C406.547,-252.5 391.256,-235.364 379.949,-222.692"/>
<polygon fill="midnightblue" stroke="midnightblue" points="382.468,-220.258 373.198,-215.127 377.245,-224.919 382.468,-220.258"/>
</g>
<!-- Node26 -->
<g id="node26" class="node"><title>Node26</title>
<g id="a_node26"><a xlink:href="Debug_8hh.html" target="_top" xlink:title="boca/generic/Debug.hh">
<polygon fill="white" stroke="red" points="667,-129 667,-148 784,-148 784,-129 667,-129"/>
<text text-anchor="middle" x="725.5" y="-136" font-family="Helvetica,sans-Serif" font-size="10.00">boca/generic/Debug.hh</text>
</a>
</g>
</g>
<!-- Node25&#45;&gt;Node26 -->
<g id="edge28" class="edge"><title>Node25&#45;&gt;Node26</title>
<path fill="none" stroke="midnightblue" d="M566.801,-195.869C598.883,-184.473 655.53,-164.353 691.752,-151.487"/>
<polygon fill="midnightblue" stroke="midnightblue" points="693.138,-154.709 701.39,-148.064 690.795,-148.113 693.138,-154.709"/>
</g>
<!-- Node26&#45;&gt;Node5 -->
<g id="edge30" class="edge"><title>Node26&#45;&gt;Node5</title>
<path fill="none" stroke="midnightblue" d="M709.586,-128.734C689.681,-117.769 655.391,-98.8809 632.097,-86.0495"/>
<polygon fill="midnightblue" stroke="midnightblue" points="633.61,-82.8866 623.162,-81.1273 630.232,-89.0179 633.61,-82.8866"/>
</g>
<!-- Node26&#45;&gt;Node8 -->
<g id="edge29" class="edge"><title>Node26&#45;&gt;Node8</title>
<path fill="none" stroke="midnightblue" d="M718.51,-128.903C705.13,-112.876 674.385,-78.0639 642.5,-56 621.736,-41.6315 595.653,-29.8279 575.765,-21.9199"/>
<polygon fill="midnightblue" stroke="midnightblue" points="576.86,-18.591 566.271,-18.2518 574.338,-25.1206 576.86,-18.591"/>
</g>
<!-- Node26&#45;&gt;Node12 -->
<g id="edge31" class="edge"><title>Node26&#45;&gt;Node12</title>
<path fill="none" stroke="midnightblue" d="M724.286,-128.734C722.964,-119.183 720.809,-103.618 719.101,-91.2829"/>
<polygon fill="midnightblue" stroke="midnightblue" points="722.533,-90.5527 717.695,-81.1273 715.599,-91.5129 722.533,-90.5527"/>
</g>
<!-- Node31 -->
<g id="node31" class="node"><title>Node31</title>
<g id="a_node31"><a xlink:href="Bdt_8hh.html" target="_top" xlink:title="boca/branch/Bdt.hh">
<polygon fill="white" stroke="black" points="1696,-129 1696,-148 1797,-148 1797,-129 1696,-129"/>
<text text-anchor="middle" x="1746.5" y="-136" font-family="Helvetica,sans-Serif" font-size="10.00">boca/branch/Bdt.hh</text>
</a>
</g>
</g>
<!-- Node30&#45;&gt;Node31 -->
<g id="edge36" class="edge"><title>Node30&#45;&gt;Node31</title>
<path fill="none" stroke="midnightblue" d="M1784.57,-195.734C1777.77,-185.695 1766.48,-169.014 1757.95,-156.421"/>
<polygon fill="midnightblue" stroke="midnightblue" points="1760.84,-154.446 1752.34,-148.127 1755.05,-158.37 1760.84,-154.446"/>
</g>
<!-- Node34 -->
<g id="node34" class="node"><title>Node34</title>
<g id="a_node34"><a xlink:href="GlobalBase_8hh.html" target="_top" xlink:title="boca/branch/GlobalBase.hh">
<polygon fill="white" stroke="black" points="1822,-62 1822,-81 1959,-81 1959,-62 1822,-62"/>
<text text-anchor="middle" x="1890.5" y="-69" font-family="Helvetica,sans-Serif" font-size="10.00">boca/branch/GlobalBase.hh</text>
</a>
</g>
</g>
<!-- Node30&#45;&gt;Node34 -->
<g id="edge39" class="edge"><title>Node30&#45;&gt;Node34</title>
<path fill="none" stroke="midnightblue" d="M1797.06,-195.839C1813.45,-174.205 1856.4,-117.51 1877.88,-89.1523"/>
<polygon fill="midnightblue" stroke="midnightblue" points="1880.8,-91.1056 1884.04,-81.0212 1875.22,-86.8786 1880.8,-91.1056"/>
</g>
<!-- Node32 -->
<g id="node32" class="node"><title>Node32</title>
<g id="a_node32"><a xlink:href="branch_2Result_8hh.html" target="_top" xlink:title="boca/branch/Result.hh">
<polygon fill="white" stroke="red" points="1689,-62 1689,-81 1804,-81 1804,-62 1689,-62"/>
<text text-anchor="middle" x="1746.5" y="-69" font-family="Helvetica,sans-Serif" font-size="10.00">boca/branch/Result.hh</text>
</a>
</g>
</g>
<!-- Node31&#45;&gt;Node32 -->
<g id="edge37" class="edge"><title>Node31&#45;&gt;Node32</title>
<path fill="none" stroke="midnightblue" d="M1746.5,-128.734C1746.5,-119.183 1746.5,-103.618 1746.5,-91.2829"/>
<polygon fill="midnightblue" stroke="midnightblue" points="1750,-91.1273 1746.5,-81.1273 1743,-91.1273 1750,-91.1273"/>
</g>
<!-- Node33 -->
<g id="node33" class="node"><title>Node33</title>
<g id="a_node33"><a xlink:href="boca_2multivariant_2Observables_8hh.html" target="_top" xlink:title="boca/multivariant/Observables.hh">
<polygon fill="white" stroke="red" points="1665.5,-0.5 1665.5,-19.5 1827.5,-19.5 1827.5,-0.5 1665.5,-0.5"/>
<text text-anchor="middle" x="1746.5" y="-7.5" font-family="Helvetica,sans-Serif" font-size="10.00">boca/multivariant/Observables.hh</text>
</a>
</g>
</g>
<!-- Node32&#45;&gt;Node33 -->
<g id="edge38" class="edge"><title>Node32&#45;&gt;Node33</title>
<path fill="none" stroke="midnightblue" d="M1746.5,-61.9751C1746.5,-53.5803 1746.5,-40.4806 1746.5,-29.6631"/>
<polygon fill="midnightblue" stroke="midnightblue" points="1750,-29.5091 1746.5,-19.5091 1743,-29.5091 1750,-29.5091"/>
</g>
<!-- Node34&#45;&gt;Node15 -->
<g id="edge41" class="edge"><title>Node34&#45;&gt;Node15</title>
<path fill="none" stroke="midnightblue" d="M1845.73,-61.9843C1835.16,-59.9984 1823.94,-57.9073 1813.5,-56 1746.8,-43.8115 1670.15,-30.2997 1618.65,-21.2934"/>
<polygon fill="midnightblue" stroke="midnightblue" points="1619.15,-17.8276 1608.7,-19.5539 1617.94,-24.7232 1619.15,-17.8276"/>
</g>
<!-- Node34&#45;&gt;Node33 -->
<g id="edge42" class="edge"><title>Node34&#45;&gt;Node33</title>
<path fill="none" stroke="midnightblue" d="M1869.87,-61.9751C1845.38,-51.8571 1804.35,-34.9046 1776.39,-23.3507"/>
<polygon fill="midnightblue" stroke="midnightblue" points="1777.67,-20.0932 1767.09,-19.5091 1775,-26.5627 1777.67,-20.0932"/>
</g>
<!-- Node35 -->
<g id="node35" class="node"><title>Node35</title>
<polygon fill="white" stroke="#bfbfbf" points="1862.5,-0.5 1862.5,-19.5 1918.5,-19.5 1918.5,-0.5 1862.5,-0.5"/>
<text text-anchor="middle" x="1890.5" y="-7.5" font-family="Helvetica,sans-Serif" font-size="10.00">Rtypes.h</text>
</g>
<!-- Node34&#45;&gt;Node35 -->
<g id="edge40" class="edge"><title>Node34&#45;&gt;Node35</title>
<path fill="none" stroke="midnightblue" d="M1890.5,-61.9751C1890.5,-53.5803 1890.5,-40.4806 1890.5,-29.6631"/>
<polygon fill="midnightblue" stroke="midnightblue" points="1894,-29.5091 1890.5,-19.5091 1887,-29.5091 1894,-29.5091"/>
</g>
<!-- Node37 -->
<g id="node37" class="node"><title>Node37</title>
<g id="a_node37"><a xlink:href="Singlet_8hh.html" target="_top" xlink:title="boca/multiplets/Singlet.hh">
<polygon fill="white" stroke="black" points="646,-263 646,-282 775,-282 775,-263 646,-263"/>
<text text-anchor="middle" x="710.5" y="-270" font-family="Helvetica,sans-Serif" font-size="10.00">boca/multiplets/Singlet.hh</text>
</a>
</g>
</g>
<!-- Node36&#45;&gt;Node37 -->
<g id="edge44" class="edge"><title>Node36&#45;&gt;Node37</title>
<path fill="none" stroke="midnightblue" d="M721.747,-329.734C719.837,-320.183 716.724,-304.618 714.257,-292.283"/>
<polygon fill="midnightblue" stroke="midnightblue" points="717.619,-291.247 712.225,-282.127 710.755,-292.62 717.619,-291.247"/>
</g>
<!-- Node37&#45;&gt;Node25 -->
<g id="edge45" class="edge"><title>Node37&#45;&gt;Node25</title>
<path fill="none" stroke="midnightblue" d="M688.191,-262.869C658.99,-251.571 607.622,-231.696 574.338,-218.818"/>
<polygon fill="midnightblue" stroke="midnightblue" points="575.223,-215.408 564.634,-215.064 572.697,-221.936 575.223,-215.408"/>
</g>
<!-- Node37&#45;&gt;Node28 -->
<g id="edge47" class="edge"><title>Node37&#45;&gt;Node28</title>
<path fill="none" stroke="midnightblue" d="M705.24,-262.734C699.276,-252.793 689.403,-236.338 681.874,-223.789"/>
<polygon fill="midnightblue" stroke="midnightblue" points="684.823,-221.901 676.676,-215.127 678.82,-225.503 684.823,-221.901"/>
</g>
<!-- Node38 -->
<g id="node38" class="node"><title>Node38</title>
<g id="a_node38"><a xlink:href="Line2_8hh.html" target="_top" xlink:title="boca/math/Line2.hh">
<polygon fill="white" stroke="red" points="738.5,-196 738.5,-215 840.5,-215 840.5,-196 738.5,-196"/>
<text text-anchor="middle" x="789.5" y="-203" font-family="Helvetica,sans-Serif" font-size="10.00">boca/math/Line2.hh</text>
</a>
</g>
</g>
<!-- Node37&#45;&gt;Node38 -->
<g id="edge46" class="edge"><title>Node37&#45;&gt;Node38</title>
<path fill="none" stroke="midnightblue" d="M721.154,-262.734C733.947,-252.208 755.616,-234.379 771.127,-221.617"/>
<polygon fill="midnightblue" stroke="midnightblue" points="773.516,-224.184 779.015,-215.127 769.069,-218.778 773.516,-224.184"/>
</g>
<!-- Node39&#45;&gt;Node37 -->
<g id="edge67" class="edge"><title>Node39&#45;&gt;Node37</title>
<path fill="none" stroke="midnightblue" d="M838.131,-324.396C809.278,-312.89 768.923,-296.797 741.363,-285.807"/>
<polygon fill="midnightblue" stroke="midnightblue" points="742.418,-282.46 731.833,-282.007 739.825,-288.962 742.418,-282.46"/>
</g>
<!-- Node40 -->
<g id="node40" class="node"><title>Node40</title>
<g id="a_node40"><a xlink:href="MuXboostedBTagging_8hh.html" target="_top" xlink:title="mubtag/MuXboostedBTagging.hh">
<polygon fill="white" stroke="black" points="793,-263 793,-282 954,-282 954,-263 793,-263"/>
<text text-anchor="middle" x="873.5" y="-270" font-family="Helvetica,sans-Serif" font-size="10.00">mubtag/MuXboostedBTagging.hh</text>
</a>
</g>
</g>
<!-- Node39&#45;&gt;Node40 -->
<g id="edge49" class="edge"><title>Node39&#45;&gt;Node40</title>
<path fill="none" stroke="midnightblue" d="M873.5,-324.396C873.5,-315.064 873.5,-302.714 873.5,-292.517"/>
<polygon fill="midnightblue" stroke="midnightblue" points="877,-292.195 873.5,-282.195 870,-292.195 877,-292.195"/>
</g>
<!-- Node41 -->
<g id="node41" class="node"><title>Node41</title>
<g id="a_node41"><a xlink:href="boca_2tagger_2Tagger_8hh.html" target="_top" xlink:title="boca/tagger/Tagger.hh">
<polygon fill="white" stroke="black" points="1012.5,-263 1012.5,-282 1126.5,-282 1126.5,-263 1012.5,-263"/>
<text text-anchor="middle" x="1069.5" y="-270" font-family="Helvetica,sans-Serif" font-size="10.00">boca/tagger/Tagger.hh</text>
</a>
</g>
</g>
<!-- Node39&#45;&gt;Node41 -->
<g id="edge51" class="edge"><title>Node39&#45;&gt;Node41</title>
<path fill="none" stroke="midnightblue" d="M916.029,-324.396C951.333,-312.688 1000.96,-296.231 1034.12,-285.234"/>
<polygon fill="midnightblue" stroke="midnightblue" points="1035.46,-288.477 1043.85,-282.007 1033.25,-281.833 1035.46,-288.477"/>
</g>
<!-- Node48 -->
<g id="node48" class="node"><title>Node48</title>
<g id="a_node48"><a xlink:href="branch_2Bottom_8hh.html" target="_top" xlink:title="standardmodel/branch\l/Bottom.hh">
<polygon fill="white" stroke="black" points="1511,-257.5 1511,-287.5 1624,-287.5 1624,-257.5 1511,-257.5"/>
<text text-anchor="start" x="1519" y="-275.5" font-family="Helvetica,sans-Serif" font-size="10.00">standardmodel/branch</text>
<text text-anchor="middle" x="1567.5" y="-264.5" font-family="Helvetica,sans-Serif" font-size="10.00">/Bottom.hh</text>
</a>
</g>
</g>
<!-- Node39&#45;&gt;Node48 -->
<g id="edge68" class="edge"><title>Node39&#45;&gt;Node48</title>
<path fill="none" stroke="midnightblue" d="M928.537,-333.345C1054.46,-321.552 1363.2,-292.635 1500.17,-279.806"/>
<polygon fill="midnightblue" stroke="midnightblue" points="1500.89,-283.254 1510.52,-278.837 1500.24,-276.285 1500.89,-283.254"/>
</g>
<!-- Node40&#45;&gt;Node28 -->
<g id="edge50" class="edge"><title>Node40&#45;&gt;Node28</title>
<path fill="none" stroke="midnightblue" d="M846.676,-262.869C810.96,-251.376 747.664,-231.008 707.731,-218.159"/>
<polygon fill="midnightblue" stroke="midnightblue" points="708.705,-214.795 698.113,-215.064 706.56,-221.459 708.705,-214.795"/>
</g>
<!-- Node41&#45;&gt;Node10 -->
<g id="edge62" class="edge"><title>Node41&#45;&gt;Node10</title>
<path fill="none" stroke="midnightblue" d="M1084.87,-262.734C1101.47,-253.274 1128.4,-237.914 1149.94,-225.636"/>
<polygon fill="midnightblue" stroke="midnightblue" points="1151.84,-228.583 1158.79,-220.589 1148.37,-222.502 1151.84,-228.583"/>
</g>
<!-- Node41&#45;&gt;Node26 -->
<g id="edge66" class="edge"><title>Node41&#45;&gt;Node26</title>
<path fill="none" stroke="midnightblue" d="M1069.74,-262.796C1069.7,-245.948 1067,-208.878 1045.5,-190 1036.1,-181.752 885.345,-160.594 794.155,-148.442"/>
<polygon fill="midnightblue" stroke="midnightblue" points="794.535,-144.962 784.162,-147.115 793.614,-151.901 794.535,-144.962"/>
</g>
<!-- Node42 -->
<g id="node42" class="node"><title>Node42</title>
<g id="a_node42"><a xlink:href="Types_8hh.html" target="_top" xlink:title="boca/generic/Types.hh">
<polygon fill="white" stroke="red" points="1007.5,-129 1007.5,-148 1123.5,-148 1123.5,-129 1007.5,-129"/>
<text text-anchor="middle" x="1065.5" y="-136" font-family="Helvetica,sans-Serif" font-size="10.00">boca/generic/Types.hh</text>
</a>
</g>
</g>
<!-- Node41&#45;&gt;Node42 -->
<g id="edge52" class="edge"><title>Node41&#45;&gt;Node42</title>
<path fill="none" stroke="midnightblue" d="M1072.91,-262.933C1078.39,-248.082 1088.1,-216.596 1083.5,-190 1081.59,-178.938 1077.48,-167.09 1073.67,-157.652"/>
<polygon fill="midnightblue" stroke="midnightblue" points="1076.78,-156.013 1069.63,-148.191 1070.34,-158.762 1076.78,-156.013"/>
</g>
<!-- Node43 -->
<g id="node43" class="node"><title>Node43</title>
<g id="a_node43"><a xlink:href="Sort_8hh.html" target="_top" xlink:title="boca/fastjet/Sort.hh">
<polygon fill="white" stroke="red" points="208.5,-129 208.5,-148 310.5,-148 310.5,-129 208.5,-129"/>
<text text-anchor="middle" x="259.5" y="-136" font-family="Helvetica,sans-Serif" font-size="10.00">boca/fastjet/Sort.hh</text>
</a>
</g>
</g>
<!-- Node41&#45;&gt;Node43 -->
<g id="edge54" class="edge"><title>Node41&#45;&gt;Node43</title>
<path fill="none" stroke="midnightblue" d="M1058.37,-262.743C1045.84,-252.813 1024.96,-236.046 1007.5,-221 992.011,-207.649 992.358,-197.909 973.5,-190 839.275,-133.703 463.504,-175.183 319.5,-154 313.168,-153.069 306.526,-151.783 300.062,-150.358"/>
<polygon fill="midnightblue" stroke="midnightblue" points="300.655,-146.903 290.121,-148.037 299.063,-153.719 300.655,-146.903"/>
</g>
<!-- Node44 -->
<g id="node44" class="node"><title>Node44</title>
<g id="a_node44"><a xlink:href="TreeBranch_8hh.html" target="_top" xlink:title="boca/io/TreeBranch.hh">
<polygon fill="white" stroke="red" points="1371,-129 1371,-148 1486,-148 1486,-129 1371,-129"/>
<text text-anchor="middle" x="1428.5" y="-136" font-family="Helvetica,sans-Serif" font-size="10.00">boca/io/TreeBranch.hh</text>
</a>
</g>
</g>
<!-- Node41&#45;&gt;Node44 -->
<g id="edge56" class="edge"><title>Node41&#45;&gt;Node44</title>
<path fill="none" stroke="midnightblue" d="M1126.77,-267.12C1202.44,-260.455 1330.81,-245.845 1370.5,-221 1394.72,-205.84 1411.77,-176.502 1420.85,-157.473"/>
<polygon fill="midnightblue" stroke="midnightblue" points="1424.15,-158.671 1425.08,-148.117 1417.77,-155.789 1424.15,-158.671"/>
</g>
<!-- Node45 -->
<g id="node45" class="node"><title>Node45</title>
<g id="a_node45"><a xlink:href="fastjet_2Vector_8hh.html" target="_top" xlink:title="boca/fastjet/Vector.hh">
<polygon fill="white" stroke="red" points="1249,-196 1249,-215 1362,-215 1362,-196 1249,-196"/>
<text text-anchor="middle" x="1305.5" y="-203" font-family="Helvetica,sans-Serif" font-size="10.00">boca/fastjet/Vector.hh</text>
</a>
</g>
</g>
<!-- Node41&#45;&gt;Node45 -->
<g id="edge58" class="edge"><title>Node41&#45;&gt;Node45</title>
<path fill="none" stroke="midnightblue" d="M1100.84,-262.869C1143.01,-251.254 1218.09,-230.576 1264.64,-217.753"/>
<polygon fill="midnightblue" stroke="midnightblue" points="1265.7,-221.093 1274.41,-215.064 1263.84,-214.345 1265.7,-221.093"/>
</g>
<!-- Node46 -->
<g id="node46" class="node"><title>Node46</title>
<g id="a_node46"><a xlink:href="tagger_2Base_8hh.html" target="_top" xlink:title="boca/tagger/Base.hh">
<polygon fill="white" stroke="red" points="858,-196 858,-215 965,-215 965,-196 858,-196"/>
<text text-anchor="middle" x="911.5" y="-203" font-family="Helvetica,sans-Serif" font-size="10.00">boca/tagger/Base.hh</text>
</a>
</g>
</g>
<!-- Node41&#45;&gt;Node46 -->
<g id="edge60" class="edge"><title>Node41&#45;&gt;Node46</title>
<path fill="none" stroke="midnightblue" d="M1048.52,-262.869C1021.25,-251.65 973.428,-231.977 942.109,-219.092"/>
<polygon fill="midnightblue" stroke="midnightblue" points="943.148,-215.735 932.568,-215.167 940.484,-222.209 943.148,-215.735"/>
</g>
<!-- Node47 -->
<g id="node47" class="node"><title>Node47</title>
<g id="a_node47"><a xlink:href="Filter_8hh.html" target="_top" xlink:title="boca/multivariant/Filter.hh">
<polygon fill="white" stroke="red" points="481,-129 481,-148 610,-148 610,-129 481,-129"/>
<text text-anchor="middle" x="545.5" y="-136" font-family="Helvetica,sans-Serif" font-size="10.00">boca/multivariant/Filter.hh</text>
</a>
</g>
</g>
<!-- Node41&#45;&gt;Node47 -->
<g id="edge63" class="edge"><title>Node41&#45;&gt;Node47</title>
<path fill="none" stroke="midnightblue" d="M1065.89,-262.978C1058.09,-245.769 1037.89,-207.056 1007.5,-190 939.318,-151.73 735.166,-163.02 657.5,-154 645.129,-152.563 632.002,-150.947 619.255,-149.328"/>
<polygon fill="midnightblue" stroke="midnightblue" points="619.5,-145.831 609.136,-148.033 618.611,-152.774 619.5,-145.831"/>
</g>
<!-- Node42&#45;&gt;Node8 -->
<g id="edge53" class="edge"><title>Node42&#45;&gt;Node8</title>
<path fill="none" stroke="midnightblue" d="M1046.26,-128.914C1026.21,-119.642 994.191,-103.911 968.5,-87 950.294,-75.0161 950.573,-64.4943 930.5,-56 866.722,-29.0107 656.638,-16.3318 576.728,-12.3982"/>
<polygon fill="midnightblue" stroke="midnightblue" points="576.501,-8.88344 566.345,-11.9007 576.166,-15.8754 576.501,-8.88344"/>
</g>
<!-- Node43&#45;&gt;Node19 -->
<g id="edge55" class="edge"><title>Node43&#45;&gt;Node19</title>
<path fill="none" stroke="midnightblue" d="M275.701,-128.869C293.554,-119.357 322.817,-103.765 346.047,-91.3888"/>
<polygon fill="midnightblue" stroke="midnightblue" points="347.759,-94.4427 354.939,-86.6516 344.467,-88.2649 347.759,-94.4427"/>
</g>
<!-- Node44&#45;&gt;Node8 -->
<g id="edge57" class="edge"><title>Node44&#45;&gt;Node8</title>
<path fill="none" stroke="midnightblue" d="M1439.37,-128.957C1458.4,-113.02 1493.79,-78.3534 1472.5,-56 1440.92,-22.8537 734.651,-13.0925 576.661,-11.3202"/>
<polygon fill="midnightblue" stroke="midnightblue" points="576.287,-7.81603 566.25,-11.2062 576.211,-14.8156 576.287,-7.81603"/>
</g>
<!-- Node45&#45;&gt;Node20 -->
<g id="edge59" class="edge"><title>Node45&#45;&gt;Node20</title>
<path fill="none" stroke="midnightblue" d="M1302.13,-195.734C1298.38,-185.988 1292.22,-169.981 1287.44,-157.532"/>
<polygon fill="midnightblue" stroke="midnightblue" points="1290.67,-156.204 1283.82,-148.127 1284.14,-158.717 1290.67,-156.204"/>
</g>
<!-- Node46&#45;&gt;Node6 -->
<g id="edge61" class="edge"><title>Node46&#45;&gt;Node6</title>
<path fill="none" stroke="midnightblue" d="M879.843,-195.975C870.17,-193.674 859.457,-191.429 849.5,-190 563.102,-148.9 486.879,-187.554 199.5,-154 190.022,-152.893 179.975,-151.377 170.302,-149.74"/>
<polygon fill="midnightblue" stroke="midnightblue" points="170.851,-146.283 160.396,-148.003 169.641,-153.178 170.851,-146.283"/>
</g>
<!-- Node47&#45;&gt;Node8 -->
<g id="edge64" class="edge"><title>Node47&#45;&gt;Node8</title>
<path fill="none" stroke="midnightblue" d="M545.5,-128.805C545.5,-108.494 545.5,-57.5532 545.5,-29.7768"/>
<polygon fill="midnightblue" stroke="midnightblue" points="549,-29.7557 545.5,-19.7557 542,-29.7557 549,-29.7557"/>
</g>
<!-- Node47&#45;&gt;Node18 -->
<g id="edge65" class="edge"><title>Node47&#45;&gt;Node18</title>
<path fill="none" stroke="midnightblue" d="M534.576,-128.734C521.459,-118.208 499.242,-100.379 483.339,-87.6174"/>
<polygon fill="midnightblue" stroke="midnightblue" points="485.241,-84.6563 475.251,-81.1273 480.86,-90.1158 485.241,-84.6563"/>
</g>
<!-- Node49 -->
<g id="node49" class="node"><title>Node49</title>
<g id="a_node49"><a xlink:href="branch_2Particle_8hh.html" target="_top" xlink:title="boca/branch/Particle.hh">
<polygon fill="white" stroke="black" points="1596,-196 1596,-215 1715,-215 1715,-196 1596,-196"/>
<text text-anchor="middle" x="1655.5" y="-203" font-family="Helvetica,sans-Serif" font-size="10.00">boca/branch/Particle.hh</text>
</a>
</g>
</g>
<!-- Node48&#45;&gt;Node49 -->
<g id="edge69" class="edge"><title>Node48&#45;&gt;Node49</title>
<path fill="none" stroke="midnightblue" d="M1586.59,-257.396C1601.08,-246.697 1620.93,-232.033 1635.61,-221.193"/>
<polygon fill="midnightblue" stroke="midnightblue" points="1638.02,-223.764 1643.98,-215.007 1633.86,-218.133 1638.02,-223.764"/>
</g>
<!-- Node50 -->
<g id="node50" class="node"><title>Node50</title>
<g id="a_node50"><a xlink:href="BottomBase_8hh.html" target="_top" xlink:title="standardmodel/branch\l/BottomBase.hh">
<polygon fill="white" stroke="red" points="1558,-56.5 1558,-86.5 1671,-86.5 1671,-56.5 1558,-56.5"/>
<text text-anchor="start" x="1566" y="-74.5" font-family="Helvetica,sans-Serif" font-size="10.00">standardmodel/branch</text>
<text text-anchor="middle" x="1614.5" y="-63.5" font-family="Helvetica,sans-Serif" font-size="10.00">/BottomBase.hh</text>
</a>
</g>
</g>
<!-- Node48&#45;&gt;Node50 -->
<g id="edge72" class="edge"><title>Node48&#45;&gt;Node50</title>
<path fill="none" stroke="midnightblue" d="M1570.88,-257.188C1578.86,-223.412 1598.93,-138.438 1608.81,-96.5727"/>
<polygon fill="midnightblue" stroke="midnightblue" points="1612.26,-97.2187 1611.15,-86.6819 1605.45,-95.6096 1612.26,-97.2187"/>
</g>
<!-- Node49&#45;&gt;Node15 -->
<g id="edge70" class="edge"><title>Node49&#45;&gt;Node15</title>
<path fill="none" stroke="midnightblue" d="M1643.22,-195.917C1619.64,-178.575 1568.62,-136.749 1549.5,-87 1542.28,-68.2273 1547.07,-45.1335 1552.21,-29.3624"/>
<polygon fill="midnightblue" stroke="midnightblue" points="1555.57,-30.3514 1555.67,-19.757 1548.99,-27.975 1555.57,-30.3514"/>
</g>
<!-- Node49&#45;&gt;Node31 -->
<g id="edge71" class="edge"><title>Node49&#45;&gt;Node31</title>
<path fill="none" stroke="midnightblue" d="M1667.77,-195.734C1682.65,-185.111 1707.93,-167.049 1725.83,-154.264"/>
<polygon fill="midnightblue" stroke="midnightblue" points="1728.32,-156.788 1734.42,-148.127 1724.25,-151.092 1728.32,-156.788"/>
</g>
<!-- Node50&#45;&gt;Node15 -->
<g id="edge73" class="edge"><title>Node50&#45;&gt;Node15</title>
<path fill="none" stroke="midnightblue" d="M1601.47,-56.3993C1593.31,-47.575 1582.78,-36.1827 1574.31,-27.0178"/>
<polygon fill="midnightblue" stroke="midnightblue" points="1576.86,-24.6253 1567.5,-19.6578 1571.72,-29.3769 1576.86,-24.6253"/>
</g>
<!-- Node50&#45;&gt;Node33 -->
<g id="edge74" class="edge"><title>Node50&#45;&gt;Node33</title>
<path fill="none" stroke="midnightblue" d="M1645.78,-56.3993C1667.73,-46.5054 1696.84,-33.3832 1718.12,-23.7919"/>
<polygon fill="midnightblue" stroke="midnightblue" points="1719.61,-26.958 1727.29,-19.6578 1716.74,-20.5764 1719.61,-26.958"/>
</g>
</g>
</svg>
