<?xml version="1.0" encoding="UTF-8" standalone="no"?>
<!DOCTYPE svg PUBLIC "-//W3C//DTD SVG 1.1//EN"
 "http://www.w3.org/Graphics/SVG/1.1/DTD/svg11.dtd">
<!-- Generated by graphviz version 2.38.0 (20140413.2041)
 -->
<!-- Title: examples/cut/cut/Analysis.hh Pages: 1 -->
<svg width="1661pt" height="532pt"
 viewBox="0.00 0.00 1660.50 532.00" xmlns="http://www.w3.org/2000/svg" xmlns:xlink="http://www.w3.org/1999/xlink">
<g id="graph0" class="graph" transform="scale(1 1) rotate(0) translate(4 528)">
<title>examples/cut/cut/Analysis.hh</title>
<polygon fill="white" stroke="none" points="-4,4 -4,-528 1656.5,-528 1656.5,4 -4,4"/>
<!-- Node1 -->
<g id="node1" class="node"><title>Node1</title>
<polygon fill="#bfbfbf" stroke="black" points="748,-504.5 748,-523.5 894,-523.5 894,-504.5 748,-504.5"/>
<text text-anchor="middle" x="821" y="-511.5" font-family="Helvetica,sans-Serif" font-size="10.00">examples/cut/cut/Analysis.hh</text>
</g>
<!-- Node2 -->
<g id="node2" class="node"><title>Node2</title>
<g id="a_node2"><a xlink:href="boca_2analysis_2Cut_8hh.html" target="_top" xlink:title="boca/analysis/Cut.hh">
<polygon fill="white" stroke="black" points="766.5,-448.5 766.5,-467.5 875.5,-467.5 875.5,-448.5 766.5,-448.5"/>
<text text-anchor="middle" x="821" y="-455.5" font-family="Helvetica,sans-Serif" font-size="10.00">boca/analysis/Cut.hh</text>
</a>
</g>
</g>
<!-- Node1&#45;&gt;Node2 -->
<g id="edge1" class="edge"><title>Node1&#45;&gt;Node2</title>
<path fill="none" stroke="midnightblue" d="M821,-504.083C821,-497.006 821,-486.861 821,-477.986"/>
<polygon fill="midnightblue" stroke="midnightblue" points="824.5,-477.751 821,-467.751 817.5,-477.751 824.5,-477.751"/>
</g>
<!-- Node3 -->
<g id="node3" class="node"><title>Node3</title>
<g id="a_node3"><a xlink:href="boca_2analysis_2Analysis_8hh.html" target="_top" xlink:title="boca/analysis/Analysis.hh">
<polygon fill="white" stroke="black" points="541.5,-336.5 541.5,-355.5 672.5,-355.5 672.5,-336.5 541.5,-336.5"/>
<text text-anchor="middle" x="607" y="-343.5" font-family="Helvetica,sans-Serif" font-size="10.00">boca/analysis/Analysis.hh</text>
</a>
</g>
</g>
<!-- Node2&#45;&gt;Node3 -->
<g id="edge2" class="edge"><title>Node2&#45;&gt;Node3</title>
<path fill="none" stroke="midnightblue" d="M804.208,-448.368C766.938,-429.211 677.105,-383.036 632.713,-360.217"/>
<polygon fill="midnightblue" stroke="midnightblue" points="634.208,-357.05 623.714,-355.591 631.008,-363.276 634.208,-357.05"/>
</g>
<!-- Node40 -->
<g id="node40" class="node"><title>Node40</title>
<g id="a_node40"><a xlink:href="Dummy_8hh.html" target="_top" xlink:title="boca/tagger/Dummy.hh">
<polygon fill="white" stroke="black" points="840.5,-392.5 840.5,-411.5 959.5,-411.5 959.5,-392.5 840.5,-392.5"/>
<text text-anchor="middle" x="900" y="-399.5" font-family="Helvetica,sans-Serif" font-size="10.00">boca/tagger/Dummy.hh</text>
</a>
</g>
</g>
<!-- Node2&#45;&gt;Node40 -->
<g id="edge53" class="edge"><title>Node2&#45;&gt;Node40</title>
<path fill="none" stroke="midnightblue" d="M833.693,-448.324C845.901,-439.979 864.578,-427.212 879.003,-417.352"/>
<polygon fill="midnightblue" stroke="midnightblue" points="881.058,-420.187 887.339,-411.655 877.108,-414.408 881.058,-420.187"/>
</g>
<!-- Node4 -->
<g id="node4" class="node"><title>Node4</title>
<polygon fill="white" stroke="#bfbfbf" points="368,-280.5 368,-299.5 412,-299.5 412,-280.5 368,-280.5"/>
<text text-anchor="middle" x="390" y="-287.5" font-family="Helvetica,sans-Serif" font-size="10.00">thread</text>
</g>
<!-- Node3&#45;&gt;Node4 -->
<g id="edge3" class="edge"><title>Node3&#45;&gt;Node4</title>
<path fill="none" stroke="midnightblue" d="M569.467,-336.444C533.87,-328.214 478.664,-315.149 422.137,-300.219"/>
<polygon fill="midnightblue" stroke="midnightblue" points="422.881,-296.795 412.317,-297.61 421.083,-303.561 422.881,-296.795"/>
</g>
<!-- Node5 -->
<g id="node5" class="node"><title>Node5</title>
<g id="a_node5"><a xlink:href="Types_8hh.html" target="_top" xlink:title="boca/generic/Types.hh">
<polygon fill="white" stroke="black" points="568,-224.5 568,-243.5 684,-243.5 684,-224.5 568,-224.5"/>
<text text-anchor="middle" x="626" y="-231.5" font-family="Helvetica,sans-Serif" font-size="10.00">boca/generic/Types.hh</text>
</a>
</g>
</g>
<!-- Node3&#45;&gt;Node5 -->
<g id="edge4" class="edge"><title>Node3&#45;&gt;Node5</title>
<path fill="none" stroke="midnightblue" d="M608.491,-336.368C611.557,-318.617 618.63,-277.666 622.788,-253.597"/>
<polygon fill="midnightblue" stroke="midnightblue" points="626.263,-254.041 624.516,-243.591 619.365,-252.85 626.263,-254.041"/>
</g>
<!-- Node8 -->
<g id="node8" class="node"><title>Node8</title>
<g id="a_node8"><a xlink:href="Io_8hh.html" target="_top" xlink:title="boca/io/Io.hh">
<polygon fill="white" stroke="black" points="37.5,-56.5 37.5,-75.5 110.5,-75.5 110.5,-56.5 37.5,-56.5"/>
<text text-anchor="middle" x="74" y="-63.5" font-family="Helvetica,sans-Serif" font-size="10.00">boca/io/Io.hh</text>
</a>
</g>
</g>
<!-- Node3&#45;&gt;Node8 -->
<g id="edge7" class="edge"><title>Node3&#45;&gt;Node8</title>
<path fill="none" stroke="midnightblue" d="M541.464,-339.941C384.507,-326.949 0,-289.553 0,-235 0,-235 0,-235 0,-177 0,-137.61 33.0703,-101.726 54.9957,-82.264"/>
<polygon fill="midnightblue" stroke="midnightblue" points="57.4273,-84.7902 62.761,-75.6358 52.8827,-79.466 57.4273,-84.7902"/>
</g>
<!-- Node9 -->
<g id="node9" class="node"><title>Node9</title>
<g id="a_node9"><a xlink:href="Plotting_8hh.html" target="_top" xlink:title="boca/plotting/Plotting.hh">
<polygon fill="white" stroke="black" points="698,-280.5 698,-299.5 820,-299.5 820,-280.5 698,-280.5"/>
<text text-anchor="middle" x="759" y="-287.5" font-family="Helvetica,sans-Serif" font-size="10.00">boca/plotting/Plotting.hh</text>
</a>
</g>
</g>
<!-- Node3&#45;&gt;Node9 -->
<g id="edge9" class="edge"><title>Node3&#45;&gt;Node9</title>
<path fill="none" stroke="midnightblue" d="M631.085,-336.444C656.545,-327.399 696.894,-313.064 725.459,-302.916"/>
<polygon fill="midnightblue" stroke="midnightblue" points="726.777,-306.162 735.028,-299.516 724.433,-299.566 726.777,-306.162"/>
</g>
<!-- Node25 -->
<g id="node25" class="node"><title>Node25</title>
<g id="a_node25"><a xlink:href="analysis_2Base_8hh.html" target="_top" xlink:title="boca/analysis/Base.hh">
<polygon fill="white" stroke="black" points="1284,-224.5 1284,-243.5 1400,-243.5 1400,-224.5 1284,-224.5"/>
<text text-anchor="middle" x="1342" y="-231.5" font-family="Helvetica,sans-Serif" font-size="10.00">boca/analysis/Base.hh</text>
</a>
</g>
</g>
<!-- Node3&#45;&gt;Node25 -->
<g id="edge30" class="edge"><title>Node3&#45;&gt;Node25</title>
<path fill="none" stroke="midnightblue" d="M672.845,-340.888C760.316,-334.851 919.467,-321.87 1054,-300 1142.35,-285.637 1244.18,-260.623 1299.99,-246.173"/>
<polygon fill="midnightblue" stroke="midnightblue" points="1301.06,-249.509 1309.86,-243.602 1299.3,-242.735 1301.06,-249.509"/>
</g>
<!-- Node30 -->
<g id="node30" class="node"><title>Node30</title>
<g id="a_node30"><a xlink:href="Data_8hh.html" target="_top" xlink:title="boca/analysis/Data.hh">
<polygon fill="white" stroke="black" points="436,-224.5 436,-243.5 550,-243.5 550,-224.5 436,-224.5"/>
<text text-anchor="middle" x="493" y="-231.5" font-family="Helvetica,sans-Serif" font-size="10.00">boca/analysis/Data.hh</text>
</a>
</g>
</g>
<!-- Node3&#45;&gt;Node30 -->
<g id="edge40" class="edge"><title>Node3&#45;&gt;Node30</title>
<path fill="none" stroke="midnightblue" d="M603.353,-336.092C597.503,-322.644 584.936,-296.936 568,-280 554.876,-266.876 537.188,-256.026 522.285,-248.27"/>
<polygon fill="midnightblue" stroke="midnightblue" points="523.481,-244.956 512.97,-243.628 520.358,-251.221 523.481,-244.956"/>
</g>
<!-- Node36 -->
<g id="node36" class="node"><title>Node36</title>
<g id="a_node36"><a xlink:href="boca_2Event_8hh.html" target="_top" xlink:title="boca/Event.hh">
<polygon fill="white" stroke="black" points="225,-280.5 225,-299.5 305,-299.5 305,-280.5 225,-280.5"/>
<text text-anchor="middle" x="265" y="-287.5" font-family="Helvetica,sans-Serif" font-size="10.00">boca/Event.hh</text>
</a>
</g>
</g>
<!-- Node3&#45;&gt;Node36 -->
<g id="edge49" class="edge"><title>Node3&#45;&gt;Node36</title>
<path fill="none" stroke="midnightblue" d="M552.809,-336.444C487.509,-326.133 378.676,-308.949 315.208,-298.928"/>
<polygon fill="midnightblue" stroke="midnightblue" points="315.469,-295.426 305.045,-297.323 314.377,-302.34 315.469,-295.426"/>
</g>
<!-- Node6 -->
<g id="node6" class="node"><title>Node6</title>
<polygon fill="white" stroke="#bfbfbf" points="1047.5,-0.5 1047.5,-19.5 1088.5,-19.5 1088.5,-0.5 1047.5,-0.5"/>
<text text-anchor="middle" x="1068" y="-7.5" font-family="Helvetica,sans-Serif" font-size="10.00">string</text>
</g>
<!-- Node5&#45;&gt;Node6 -->
<g id="edge5" class="edge"><title>Node5&#45;&gt;Node6</title>
<path fill="none" stroke="midnightblue" d="M575.238,-224.427C536.594,-216.744 488.05,-204.196 476,-188 470.694,-180.869 472.068,-175.972 476,-168 512.176,-94.6537 545.975,-86.1421 622,-56 697.959,-25.8841 949.398,-14.8965 1037.32,-11.9198"/>
<polygon fill="midnightblue" stroke="midnightblue" points="1037.57,-15.4138 1047.45,-11.5883 1037.34,-8.41755 1037.57,-15.4138"/>
</g>
<!-- Node7 -->
<g id="node7" class="node"><title>Node7</title>
<polygon fill="white" stroke="#bfbfbf" points="485,-168.5 485,-187.5 601,-187.5 601,-168.5 485,-168.5"/>
<text text-anchor="middle" x="543" y="-175.5" font-family="Helvetica,sans-Serif" font-size="10.00">boost/range/irange.hpp</text>
</g>
<!-- Node5&#45;&gt;Node7 -->
<g id="edge6" class="edge"><title>Node5&#45;&gt;Node7</title>
<path fill="none" stroke="midnightblue" d="M612.665,-224.324C599.838,-215.979 580.215,-203.212 565.06,-193.352"/>
<polygon fill="midnightblue" stroke="midnightblue" points="566.593,-190.174 556.302,-187.655 562.776,-196.042 566.593,-190.174"/>
</g>
<!-- Node8&#45;&gt;Node6 -->
<g id="edge8" class="edge"><title>Node8&#45;&gt;Node6</title>
<path fill="none" stroke="midnightblue" d="M110.748,-62.0199C134.492,-60.1498 166.061,-57.7667 194,-56 523.815,-35.1441 924.11,-17.2434 1037.03,-12.3317"/>
<polygon fill="midnightblue" stroke="midnightblue" points="1037.5,-15.8146 1047.34,-11.8846 1037.2,-8.82112 1037.5,-15.8146"/>
</g>
<!-- Node9&#45;&gt;Node5 -->
<g id="edge10" class="edge"><title>Node9&#45;&gt;Node5</title>
<path fill="none" stroke="midnightblue" d="M737.926,-280.444C715.94,-271.517 681.266,-257.439 656.336,-247.317"/>
<polygon fill="midnightblue" stroke="midnightblue" points="657.558,-244.035 646.976,-243.516 654.924,-250.521 657.558,-244.035"/>
</g>
<!-- Node10 -->
<g id="node10" class="node"><title>Node10</title>
<g id="a_node10"><a xlink:href="Vector3_8hh.html" target="_top" xlink:title="boca/math/Vector3.hh">
<polygon fill="white" stroke="black" points="702.5,-224.5 702.5,-243.5 815.5,-243.5 815.5,-224.5 702.5,-224.5"/>
<text text-anchor="middle" x="759" y="-231.5" font-family="Helvetica,sans-Serif" font-size="10.00">boca/math/Vector3.hh</text>
</a>
</g>
</g>
<!-- Node9&#45;&gt;Node10 -->
<g id="edge11" class="edge"><title>Node9&#45;&gt;Node10</title>
<path fill="none" stroke="midnightblue" d="M759,-280.083C759,-273.006 759,-262.861 759,-253.986"/>
<polygon fill="midnightblue" stroke="midnightblue" points="762.5,-253.751 759,-243.751 755.5,-253.751 762.5,-253.751"/>
</g>
<!-- Node15 -->
<g id="node15" class="node"><title>Node15</title>
<g id="a_node15"><a xlink:href="PlottingBase_8hh.html" target="_top" xlink:title="boca/plotting/PlottingBase.hh">
<polygon fill="white" stroke="black" points="910,-224.5 910,-243.5 1054,-243.5 1054,-224.5 910,-224.5"/>
<text text-anchor="middle" x="982" y="-231.5" font-family="Helvetica,sans-Serif" font-size="10.00">boca/plotting/PlottingBase.hh</text>
</a>
</g>
</g>
<!-- Node9&#45;&gt;Node15 -->
<g id="edge17" class="edge"><title>Node9&#45;&gt;Node15</title>
<path fill="none" stroke="midnightblue" d="M794.335,-280.444C832.911,-271.102 894.785,-256.119 936.853,-245.933"/>
<polygon fill="midnightblue" stroke="midnightblue" points="937.935,-249.272 946.83,-243.516 936.287,-242.468 937.935,-249.272"/>
</g>
<!-- Node21 -->
<g id="node21" class="node"><title>Node21</title>
<g id="a_node21"><a xlink:href="boca_2Observables_8hh.html" target="_top" xlink:title="boca/Observables.hh">
<polygon fill="white" stroke="black" points="1543.5,-224.5 1543.5,-243.5 1652.5,-243.5 1652.5,-224.5 1543.5,-224.5"/>
<text text-anchor="middle" x="1598" y="-231.5" font-family="Helvetica,sans-Serif" font-size="10.00">boca/Observables.hh</text>
</a>
</g>
</g>
<!-- Node9&#45;&gt;Node21 -->
<g id="edge25" class="edge"><title>Node9&#45;&gt;Node21</title>
<path fill="none" stroke="midnightblue" d="M820.163,-285.594C988.186,-276.219 1449.45,-250.358 1533.29,-243.943"/>
<polygon fill="midnightblue" stroke="midnightblue" points="1533.73,-247.418 1543.4,-243.086 1533.14,-240.443 1533.73,-247.418"/>
</g>
<!-- Node11 -->
<g id="node11" class="node"><title>Node11</title>
<polygon fill="white" stroke="#bfbfbf" points="619.5,-168.5 619.5,-187.5 684.5,-187.5 684.5,-168.5 619.5,-168.5"/>
<text text-anchor="middle" x="652" y="-175.5" font-family="Helvetica,sans-Serif" font-size="10.00">TVector3.h</text>
</g>
<!-- Node10&#45;&gt;Node11 -->
<g id="edge12" class="edge"><title>Node10&#45;&gt;Node11</title>
<path fill="none" stroke="midnightblue" d="M741.809,-224.324C724.649,-215.664 698.054,-202.242 678.253,-192.249"/>
<polygon fill="midnightblue" stroke="midnightblue" points="679.653,-189.035 669.149,-187.655 676.499,-195.285 679.653,-189.035"/>
</g>
<!-- Node12 -->
<g id="node12" class="node"><title>Node12</title>
<g id="a_node12"><a xlink:href="Vector2_8hh.html" target="_top" xlink:title="boca/math/Vector2.hh">
<polygon fill="white" stroke="red" points="702.5,-168.5 702.5,-187.5 815.5,-187.5 815.5,-168.5 702.5,-168.5"/>
<text text-anchor="middle" x="759" y="-175.5" font-family="Helvetica,sans-Serif" font-size="10.00">boca/math/Vector2.hh</text>
</a>
</g>
</g>
<!-- Node10&#45;&gt;Node12 -->
<g id="edge13" class="edge"><title>Node10&#45;&gt;Node12</title>
<path fill="none" stroke="midnightblue" d="M759,-224.083C759,-217.006 759,-206.861 759,-197.986"/>
<polygon fill="midnightblue" stroke="midnightblue" points="762.5,-197.751 759,-187.751 755.5,-197.751 762.5,-197.751"/>
</g>
<!-- Node13 -->
<g id="node13" class="node"><title>Node13</title>
<g id="a_node13"><a xlink:href="Debug_8hh.html" target="_top" xlink:title="boca/generic/Debug.hh">
<polygon fill="white" stroke="red" points="599.5,-112.5 599.5,-131.5 716.5,-131.5 716.5,-112.5 599.5,-112.5"/>
<text text-anchor="middle" x="658" y="-119.5" font-family="Helvetica,sans-Serif" font-size="10.00">boca/generic/Debug.hh</text>
</a>
</g>
</g>
<!-- Node12&#45;&gt;Node13 -->
<g id="edge14" class="edge"><title>Node12&#45;&gt;Node13</title>
<path fill="none" stroke="midnightblue" d="M742.773,-168.324C726.649,-159.703 701.7,-146.364 683.036,-136.386"/>
<polygon fill="midnightblue" stroke="midnightblue" points="684.656,-133.283 674.187,-131.655 681.356,-139.456 684.656,-133.283"/>
</g>
<!-- Node13&#45;&gt;Node6 -->
<g id="edge15" class="edge"><title>Node13&#45;&gt;Node6</title>
<path fill="none" stroke="midnightblue" d="M687.598,-112.446C731.632,-99.7795 817.044,-75.4386 890,-56 941.721,-42.2192 1002.18,-27.1552 1037.66,-18.4209"/>
<polygon fill="midnightblue" stroke="midnightblue" points="1038.52,-21.8119 1047.4,-16.0267 1036.85,-15.0141 1038.52,-21.8119"/>
</g>
<!-- Node14 -->
<g id="node14" class="node"><title>Node14</title>
<polygon fill="white" stroke="#bfbfbf" points="631,-56.5 631,-75.5 685,-75.5 685,-56.5 631,-56.5"/>
<text text-anchor="middle" x="658" y="-63.5" font-family="Helvetica,sans-Serif" font-size="10.00">iostream</text>
</g>
<!-- Node13&#45;&gt;Node14 -->
<g id="edge16" class="edge"><title>Node13&#45;&gt;Node14</title>
<path fill="none" stroke="midnightblue" d="M658,-112.083C658,-105.006 658,-94.8611 658,-85.9865"/>
<polygon fill="midnightblue" stroke="midnightblue" points="661.5,-85.751 658,-75.7511 654.5,-85.7511 661.5,-85.751"/>
</g>
<!-- Node16 -->
<g id="node16" class="node"><title>Node16</title>
<g id="a_node16"><a xlink:href="plotting_2Result_8hh.html" target="_top" xlink:title="boca/plotting/Result.hh">
<polygon fill="white" stroke="red" points="910.5,-168.5 910.5,-187.5 1027.5,-187.5 1027.5,-168.5 910.5,-168.5"/>
<text text-anchor="middle" x="969" y="-175.5" font-family="Helvetica,sans-Serif" font-size="10.00">boca/plotting/Result.hh</text>
</a>
</g>
</g>
<!-- Node15&#45;&gt;Node16 -->
<g id="edge18" class="edge"><title>Node15&#45;&gt;Node16</title>
<path fill="none" stroke="midnightblue" d="M979.853,-224.083C978.131,-216.927 975.653,-206.635 973.5,-197.691"/>
<polygon fill="midnightblue" stroke="midnightblue" points="976.85,-196.654 971.107,-187.751 970.045,-198.293 976.85,-196.654"/>
</g>
<!-- Node18 -->
<g id="node18" class="node"><title>Node18</title>
<g id="a_node18"><a xlink:href="Phase_8hh.html" target="_top" xlink:title="boca/multivariant/Phase.hh">
<polygon fill="white" stroke="black" points="1304.5,-168.5 1304.5,-187.5 1439.5,-187.5 1439.5,-168.5 1304.5,-168.5"/>
<text text-anchor="middle" x="1372" y="-175.5" font-family="Helvetica,sans-Serif" font-size="10.00">boca/multivariant/Phase.hh</text>
</a>
</g>
</g>
<!-- Node15&#45;&gt;Node18 -->
<g id="edge20" class="edge"><title>Node15&#45;&gt;Node18</title>
<path fill="none" stroke="midnightblue" d="M1043.8,-224.444C1113.54,-214.786 1226.84,-199.099 1300.39,-188.916"/>
<polygon fill="midnightblue" stroke="midnightblue" points="1301.07,-192.355 1310.49,-187.516 1300.11,-185.421 1301.07,-192.355"/>
</g>
<!-- Node17 -->
<g id="node17" class="node"><title>Node17</title>
<polygon fill="white" stroke="#bfbfbf" points="1070.5,-56.5 1070.5,-75.5 1105.5,-75.5 1105.5,-56.5 1070.5,-56.5"/>
<text text-anchor="middle" x="1088" y="-63.5" font-family="Helvetica,sans-Serif" font-size="10.00">map</text>
</g>
<!-- Node16&#45;&gt;Node17 -->
<g id="edge19" class="edge"><title>Node16&#45;&gt;Node17</title>
<path fill="none" stroke="midnightblue" d="M959.549,-168.399C946.366,-155.352 925.514,-130.16 939,-112 953.505,-92.4673 1021.33,-78.1485 1060.28,-71.3729"/>
<polygon fill="midnightblue" stroke="midnightblue" points="1061.15,-74.7752 1070.43,-69.6638 1059.99,-67.8723 1061.15,-74.7752"/>
</g>
<!-- Node19 -->
<g id="node19" class="node"><title>Node19</title>
<g id="a_node19"><a xlink:href="Tag_8hh.html" target="_top" xlink:title="boca/Tag.hh">
<polygon fill="white" stroke="black" points="1432.5,-112.5 1432.5,-131.5 1503.5,-131.5 1503.5,-112.5 1432.5,-112.5"/>
<text text-anchor="middle" x="1468" y="-119.5" font-family="Helvetica,sans-Serif" font-size="10.00">boca/Tag.hh</text>
</a>
</g>
</g>
<!-- Node18&#45;&gt;Node19 -->
<g id="edge21" class="edge"><title>Node18&#45;&gt;Node19</title>
<path fill="none" stroke="midnightblue" d="M1387.42,-168.324C1402.54,-159.822 1425.82,-146.729 1443.47,-136.797"/>
<polygon fill="midnightblue" stroke="midnightblue" points="1445.61,-139.608 1452.61,-131.655 1442.18,-133.507 1445.61,-139.608"/>
</g>
<!-- Node20 -->
<g id="node20" class="node"><title>Node20</title>
<g id="a_node20"><a xlink:href="Stage_8hh.html" target="_top" xlink:title="boca/multivariant/Stage.hh">
<polygon fill="white" stroke="black" points="1281.5,-112.5 1281.5,-131.5 1414.5,-131.5 1414.5,-112.5 1281.5,-112.5"/>
<text text-anchor="middle" x="1348" y="-119.5" font-family="Helvetica,sans-Serif" font-size="10.00">boca/multivariant/Stage.hh</text>
</a>
</g>
</g>
<!-- Node18&#45;&gt;Node20 -->
<g id="edge23" class="edge"><title>Node18&#45;&gt;Node20</title>
<path fill="none" stroke="midnightblue" d="M1368.04,-168.083C1364.79,-160.77 1360.08,-150.181 1356.05,-141.103"/>
<polygon fill="midnightblue" stroke="midnightblue" points="1359.15,-139.468 1351.89,-131.751 1352.75,-142.311 1359.15,-139.468"/>
</g>
<!-- Node19&#45;&gt;Node6 -->
<g id="edge22" class="edge"><title>Node19&#45;&gt;Node6</title>
<path fill="none" stroke="midnightblue" d="M1436.95,-112.46C1362.09,-91.874 1172.41,-39.7116 1098.31,-19.3359"/>
<polygon fill="midnightblue" stroke="midnightblue" points="1099.22,-15.9553 1088.65,-16.6784 1097.36,-22.7048 1099.22,-15.9553"/>
</g>
<!-- Node20&#45;&gt;Node6 -->
<g id="edge24" class="edge"><title>Node20&#45;&gt;Node6</title>
<path fill="none" stroke="midnightblue" d="M1326.03,-112.368C1276.29,-92.827 1154.98,-45.172 1098.22,-22.8725"/>
<polygon fill="midnightblue" stroke="midnightblue" points="1099.31,-19.5406 1088.72,-19.1416 1096.75,-26.0558 1099.31,-19.5406"/>
</g>
<!-- Node22 -->
<g id="node22" class="node"><title>Node22</title>
<g id="a_node22"><a xlink:href="Observable_8hh.html" target="_top" xlink:title="boca/Observable.hh">
<polygon fill="white" stroke="black" points="1534,-168.5 1534,-187.5 1638,-187.5 1638,-168.5 1534,-168.5"/>
<text text-anchor="middle" x="1586" y="-175.5" font-family="Helvetica,sans-Serif" font-size="10.00">boca/Observable.hh</text>
</a>
</g>
</g>
<!-- Node21&#45;&gt;Node22 -->
<g id="edge26" class="edge"><title>Node21&#45;&gt;Node22</title>
<path fill="none" stroke="midnightblue" d="M1596.02,-224.083C1594.43,-216.927 1592.14,-206.635 1590.15,-197.691"/>
<polygon fill="midnightblue" stroke="midnightblue" points="1593.53,-196.754 1587.94,-187.751 1586.7,-198.272 1593.53,-196.754"/>
</g>
<!-- Node23 -->
<g id="node23" class="node"><title>Node23</title>
<g id="a_node23"><a xlink:href="Names_8hh.html" target="_top" xlink:title="boca/Names.hh">
<polygon fill="white" stroke="black" points="1522,-112.5 1522,-131.5 1608,-131.5 1608,-112.5 1522,-112.5"/>
<text text-anchor="middle" x="1565" y="-119.5" font-family="Helvetica,sans-Serif" font-size="10.00">boca/Names.hh</text>
</a>
</g>
</g>
<!-- Node22&#45;&gt;Node23 -->
<g id="edge27" class="edge"><title>Node22&#45;&gt;Node23</title>
<path fill="none" stroke="midnightblue" d="M1582.53,-168.083C1579.69,-160.77 1575.57,-150.181 1572.04,-141.103"/>
<polygon fill="midnightblue" stroke="midnightblue" points="1575.29,-139.803 1568.4,-131.751 1568.77,-142.34 1575.29,-139.803"/>
</g>
<!-- Node24 -->
<g id="node24" class="node"><title>Node24</title>
<g id="a_node24"><a xlink:href="String_8hh.html" target="_top" xlink:title="boca/latex/String.hh">
<polygon fill="white" stroke="red" points="1467,-56.5 1467,-75.5 1571,-75.5 1571,-56.5 1467,-56.5"/>
<text text-anchor="middle" x="1519" y="-63.5" font-family="Helvetica,sans-Serif" font-size="10.00">boca/latex/String.hh</text>
</a>
</g>
</g>
<!-- Node23&#45;&gt;Node24 -->
<g id="edge28" class="edge"><title>Node23&#45;&gt;Node24</title>
<path fill="none" stroke="midnightblue" d="M1557.4,-112.083C1550.77,-104.298 1540.98,-92.8015 1532.94,-83.3665"/>
<polygon fill="midnightblue" stroke="midnightblue" points="1535.6,-81.0939 1526.45,-75.7511 1530.27,-85.6332 1535.6,-81.0939"/>
</g>
<!-- Node24&#45;&gt;Node6 -->
<g id="edge29" class="edge"><title>Node24&#45;&gt;Node6</title>
<path fill="none" stroke="midnightblue" d="M1466.82,-58.7528C1372.24,-47.4273 1175.19,-23.8349 1099.01,-14.7125"/>
<polygon fill="midnightblue" stroke="midnightblue" points="1099.01,-11.1885 1088.67,-13.4748 1098.18,-18.1389 1099.01,-11.1885"/>
</g>
<!-- Node25&#45;&gt;Node19 -->
<g id="edge39" class="edge"><title>Node25&#45;&gt;Node19</title>
<path fill="none" stroke="midnightblue" d="M1384.21,-224.475C1406.32,-217.965 1432.23,-206.796 1449,-188 1460.36,-175.264 1464.95,-156.067 1466.79,-141.834"/>
<polygon fill="midnightblue" stroke="midnightblue" points="1470.29,-141.989 1467.75,-131.702 1463.32,-141.326 1470.29,-141.989"/>
</g>
<!-- Node25&#45;&gt;Node20 -->
<g id="edge31" class="edge"><title>Node25&#45;&gt;Node20</title>
<path fill="none" stroke="midnightblue" d="M1328.08,-224.441C1310.78,-212.625 1284.71,-190.243 1295,-168 1300.92,-155.207 1312.47,-144.722 1323.28,-137.1"/>
<polygon fill="midnightblue" stroke="midnightblue" points="1325.21,-140.016 1331.67,-131.613 1321.38,-134.158 1325.21,-140.016"/>
</g>
<!-- Node25&#45;&gt;Node23 -->
<g id="edge38" class="edge"><title>Node25&#45;&gt;Node23</title>
<path fill="none" stroke="midnightblue" d="M1372.39,-224.464C1398.47,-216.602 1436.68,-203.782 1468,-188 1496.76,-173.512 1527.17,-151.978 1546.12,-137.72"/>
<polygon fill="midnightblue" stroke="midnightblue" points="1548.38,-140.399 1554.2,-131.55 1544.13,-134.834 1548.38,-140.399"/>
</g>
<!-- Node26 -->
<g id="node26" class="node"><title>Node26</title>
<g id="a_node26"><a xlink:href="PreCuts_8hh.html" target="_top" xlink:title="boca/PreCuts.hh">
<polygon fill="white" stroke="black" points="1046,-168.5 1046,-187.5 1136,-187.5 1136,-168.5 1046,-168.5"/>
<text text-anchor="middle" x="1091" y="-175.5" font-family="Helvetica,sans-Serif" font-size="10.00">boca/PreCuts.hh</text>
</a>
</g>
</g>
<!-- Node25&#45;&gt;Node26 -->
<g id="edge32" class="edge"><title>Node25&#45;&gt;Node26</title>
<path fill="none" stroke="midnightblue" d="M1302.23,-224.444C1258.44,-215.023 1187.99,-199.866 1140.62,-189.675"/>
<polygon fill="midnightblue" stroke="midnightblue" points="1141.1,-186.198 1130.59,-187.516 1139.63,-193.041 1141.1,-186.198"/>
</g>
<!-- Node27 -->
<g id="node27" class="node"><title>Node27</title>
<g id="a_node27"><a xlink:href="Range_8hh.html" target="_top" xlink:title="boca/physics/Range.hh">
<polygon fill="white" stroke="red" points="734.5,-112.5 734.5,-131.5 853.5,-131.5 853.5,-112.5 734.5,-112.5"/>
<text text-anchor="middle" x="794" y="-119.5" font-family="Helvetica,sans-Serif" font-size="10.00">boca/physics/Range.hh</text>
</a>
</g>
</g>
<!-- Node26&#45;&gt;Node27 -->
<g id="edge33" class="edge"><title>Node26&#45;&gt;Node27</title>
<path fill="none" stroke="midnightblue" d="M1045.89,-168.799C993.691,-159.307 907.65,-143.664 850.899,-133.345"/>
<polygon fill="midnightblue" stroke="midnightblue" points="851.472,-129.892 841.007,-131.547 850.219,-136.779 851.472,-129.892"/>
</g>
<!-- Node28 -->
<g id="node28" class="node"><title>Node28</title>
<g id="a_node28"><a xlink:href="PreCut_8hh.html" target="_top" xlink:title="boca/PreCut.hh">
<polygon fill="white" stroke="red" points="1083.5,-112.5 1083.5,-131.5 1168.5,-131.5 1168.5,-112.5 1083.5,-112.5"/>
<text text-anchor="middle" x="1126" y="-119.5" font-family="Helvetica,sans-Serif" font-size="10.00">boca/PreCut.hh</text>
</a>
</g>
</g>
<!-- Node26&#45;&gt;Node28 -->
<g id="edge35" class="edge"><title>Node26&#45;&gt;Node28</title>
<path fill="none" stroke="midnightblue" d="M1096.78,-168.083C1101.67,-160.534 1108.83,-149.495 1114.83,-140.23"/>
<polygon fill="midnightblue" stroke="midnightblue" points="1117.83,-142.046 1120.33,-131.751 1111.95,-138.239 1117.83,-142.046"/>
</g>
<!-- Node29 -->
<g id="node29" class="node"><title>Node29</title>
<g id="a_node29"><a xlink:href="Vector_8hh.html" target="_top" xlink:title="boca/generic/Vector.hh">
<polygon fill="white" stroke="red" points="948.5,-112.5 948.5,-131.5 1065.5,-131.5 1065.5,-112.5 948.5,-112.5"/>
<text text-anchor="middle" x="1007" y="-119.5" font-family="Helvetica,sans-Serif" font-size="10.00">boca/generic/Vector.hh</text>
</a>
</g>
</g>
<!-- Node26&#45;&gt;Node29 -->
<g id="edge37" class="edge"><title>Node26&#45;&gt;Node29</title>
<path fill="none" stroke="midnightblue" d="M1077.5,-168.324C1064.4,-159.9 1044.29,-146.971 1028.89,-137.074"/>
<polygon fill="midnightblue" stroke="midnightblue" points="1030.77,-134.118 1020.46,-131.655 1026.98,-140.006 1030.77,-134.118"/>
</g>
<!-- Node27&#45;&gt;Node14 -->
<g id="edge34" class="edge"><title>Node27&#45;&gt;Node14</title>
<path fill="none" stroke="midnightblue" d="M772.45,-112.444C749.969,-103.517 714.512,-89.4387 689.02,-79.3168"/>
<polygon fill="midnightblue" stroke="midnightblue" points="690.035,-75.9539 679.449,-75.5164 687.451,-82.4598 690.035,-75.9539"/>
</g>
<!-- Node28&#45;&gt;Node17 -->
<g id="edge36" class="edge"><title>Node28&#45;&gt;Node17</title>
<path fill="none" stroke="midnightblue" d="M1119.73,-112.083C1114.36,-104.455 1106.48,-93.2645 1099.92,-83.9408"/>
<polygon fill="midnightblue" stroke="midnightblue" points="1102.78,-81.9149 1094.16,-75.7511 1097.05,-85.9434 1102.78,-81.9149"/>
</g>
<!-- Node31 -->
<g id="node31" class="node"><title>Node31</title>
<g id="a_node31"><a xlink:href="TreeReader_8hh.html" target="_top" xlink:title="boca/io/TreeReader.hh">
<polygon fill="white" stroke="red" points="278,-112.5 278,-131.5 394,-131.5 394,-112.5 278,-112.5"/>
<text text-anchor="middle" x="336" y="-119.5" font-family="Helvetica,sans-Serif" font-size="10.00">boca/io/TreeReader.hh</text>
</a>
</g>
</g>
<!-- Node30&#45;&gt;Node31 -->
<g id="edge41" class="edge"><title>Node30&#45;&gt;Node31</title>
<path fill="none" stroke="midnightblue" d="M444.039,-224.436C391.577,-214.764 314.628,-198.951 306,-188 294.297,-173.147 307.1,-152.991 319.415,-139.081"/>
<polygon fill="midnightblue" stroke="midnightblue" points="322.075,-141.363 326.42,-131.7 316.997,-136.544 322.075,-141.363"/>
</g>
<!-- Node35 -->
<g id="node35" class="node"><title>Node35</title>
<g id="a_node35"><a xlink:href="Files_8hh.html" target="_top" xlink:title="boca/analysis/Files.hh">
<polygon fill="white" stroke="red" points="315,-168.5 315,-187.5 429,-187.5 429,-168.5 315,-168.5"/>
<text text-anchor="middle" x="372" y="-175.5" font-family="Helvetica,sans-Serif" font-size="10.00">boca/analysis/Files.hh</text>
</a>
</g>
</g>
<!-- Node30&#45;&gt;Node35 -->
<g id="edge47" class="edge"><title>Node30&#45;&gt;Node35</title>
<path fill="none" stroke="midnightblue" d="M473.827,-224.444C454.091,-215.636 423.115,-201.812 400.507,-191.722"/>
<polygon fill="midnightblue" stroke="midnightblue" points="401.641,-188.396 391.083,-187.516 398.789,-194.788 401.641,-188.396"/>
</g>
<!-- Node31&#45;&gt;Node14 -->
<g id="edge44" class="edge"><title>Node31&#45;&gt;Node14</title>
<path fill="none" stroke="midnightblue" d="M387.022,-112.444C452.13,-101.525 563.202,-82.8977 620.839,-73.232"/>
<polygon fill="midnightblue" stroke="midnightblue" points="621.672,-76.6412 630.956,-71.5354 620.515,-69.7376 621.672,-76.6412"/>
</g>
<!-- Node31&#45;&gt;Node17 -->
<g id="edge43" class="edge"><title>Node31&#45;&gt;Node17</title>
<path fill="none" stroke="midnightblue" d="M394.022,-118.615C512.466,-113.435 790.528,-99.6767 1023,-76 1035.32,-74.745 1048.9,-72.9328 1060.45,-71.263"/>
<polygon fill="midnightblue" stroke="midnightblue" points="1061.01,-74.7184 1070.39,-69.7895 1059.98,-67.7941 1061.01,-74.7184"/>
</g>
<!-- Node32 -->
<g id="node32" class="node"><title>Node32</title>
<polygon fill="white" stroke="#bfbfbf" points="203,-56.5 203,-75.5 255,-75.5 255,-56.5 203,-56.5"/>
<text text-anchor="middle" x="229" y="-63.5" font-family="Helvetica,sans-Serif" font-size="10.00">memory</text>
</g>
<!-- Node31&#45;&gt;Node32 -->
<g id="edge42" class="edge"><title>Node31&#45;&gt;Node32</title>
<path fill="none" stroke="midnightblue" d="M318.809,-112.324C301.649,-103.664 275.054,-90.2424 255.253,-80.249"/>
<polygon fill="midnightblue" stroke="midnightblue" points="256.653,-77.0354 246.149,-75.6545 253.499,-83.2847 256.653,-77.0354"/>
</g>
<!-- Node33 -->
<g id="node33" class="node"><title>Node33</title>
<polygon fill="white" stroke="#bfbfbf" points="273,-56.5 273,-75.5 329,-75.5 329,-56.5 273,-56.5"/>
<text text-anchor="middle" x="301" y="-63.5" font-family="Helvetica,sans-Serif" font-size="10.00">TChain.h</text>
</g>
<!-- Node31&#45;&gt;Node33 -->
<g id="edge45" class="edge"><title>Node31&#45;&gt;Node33</title>
<path fill="none" stroke="midnightblue" d="M330.22,-112.083C325.328,-104.534 318.173,-93.4948 312.167,-84.2298"/>
<polygon fill="midnightblue" stroke="midnightblue" points="315.048,-82.239 306.672,-75.7511 309.174,-86.0463 315.048,-82.239"/>
</g>
<!-- Node34 -->
<g id="node34" class="node"><title>Node34</title>
<polygon fill="white" stroke="#bfbfbf" points="347,-56.5 347,-75.5 429,-75.5 429,-56.5 347,-56.5"/>
<text text-anchor="middle" x="388" y="-63.5" font-family="Helvetica,sans-Serif" font-size="10.00">TTreeReader.h</text>
</g>
<!-- Node31&#45;&gt;Node34 -->
<g id="edge46" class="edge"><title>Node31&#45;&gt;Node34</title>
<path fill="none" stroke="midnightblue" d="M344.587,-112.083C352.159,-104.22 363.378,-92.5688 372.514,-83.0813"/>
<polygon fill="midnightblue" stroke="midnightblue" points="375.158,-85.3821 379.573,-75.7511 370.115,-80.5266 375.158,-85.3821"/>
</g>
<!-- Node35&#45;&gt;Node13 -->
<g id="edge48" class="edge"><title>Node35&#45;&gt;Node13</title>
<path fill="none" stroke="midnightblue" d="M417.318,-168.444C467.628,-158.944 548.838,-143.611 602.813,-133.42"/>
<polygon fill="midnightblue" stroke="midnightblue" points="603.717,-136.811 612.894,-131.516 602.419,-129.933 603.717,-136.811"/>
</g>
<!-- Node37 -->
<g id="node37" class="node"><title>Node37</title>
<g id="a_node37"><a xlink:href="Flag_8hh.html" target="_top" xlink:title="boca/generic/Flag.hh">
<polygon fill="white" stroke="red" points="28.5,-224.5 28.5,-243.5 135.5,-243.5 135.5,-224.5 28.5,-224.5"/>
<text text-anchor="middle" x="82" y="-231.5" font-family="Helvetica,sans-Serif" font-size="10.00">boca/generic/Flag.hh</text>
</a>
</g>
</g>
<!-- Node36&#45;&gt;Node37 -->
<g id="edge50" class="edge"><title>Node36&#45;&gt;Node37</title>
<path fill="none" stroke="midnightblue" d="M236.003,-280.444C204.815,-271.241 155.07,-256.562 120.592,-246.388"/>
<polygon fill="midnightblue" stroke="midnightblue" points="121.443,-242.99 110.861,-243.516 119.462,-249.704 121.443,-242.99"/>
</g>
<!-- Node38 -->
<g id="node38" class="node"><title>Node38</title>
<g id="a_node38"><a xlink:href="Jet_8hh.html" target="_top" xlink:title="boca/multiplets/Jet.hh">
<polygon fill="white" stroke="red" points="304.5,-224.5 304.5,-243.5 417.5,-243.5 417.5,-224.5 304.5,-224.5"/>
<text text-anchor="middle" x="361" y="-231.5" font-family="Helvetica,sans-Serif" font-size="10.00">boca/multiplets/Jet.hh</text>
</a>
</g>
</g>
<!-- Node36&#45;&gt;Node38 -->
<g id="edge51" class="edge"><title>Node36&#45;&gt;Node38</title>
<path fill="none" stroke="midnightblue" d="M280.424,-280.324C295.54,-271.822 318.815,-258.729 336.471,-248.797"/>
<polygon fill="midnightblue" stroke="midnightblue" points="338.614,-251.608 345.614,-243.655 335.183,-245.507 338.614,-251.608"/>
</g>
<!-- Node39 -->
<g id="node39" class="node"><title>Node39</title>
<g id="a_node39"><a xlink:href="multiplets_2Particle_8hh.html" target="_top" xlink:title="boca/multiplets/Particle.hh">
<polygon fill="white" stroke="red" points="154,-224.5 154,-243.5 286,-243.5 286,-224.5 154,-224.5"/>
<text text-anchor="middle" x="220" y="-231.5" font-family="Helvetica,sans-Serif" font-size="10.00">boca/multiplets/Particle.hh</text>
</a>
</g>
</g>
<!-- Node36&#45;&gt;Node39 -->
<g id="edge52" class="edge"><title>Node36&#45;&gt;Node39</title>
<path fill="none" stroke="midnightblue" d="M257.569,-280.083C251.147,-272.377 241.694,-261.033 233.878,-251.653"/>
<polygon fill="midnightblue" stroke="midnightblue" points="236.383,-249.193 227.293,-243.751 231.006,-253.674 236.383,-249.193"/>
</g>
<!-- Node41 -->
<g id="node41" class="node"><title>Node41</title>
<g id="a_node41"><a xlink:href="boca_2tagger_2Tagger_8hh.html" target="_top" xlink:title="boca/tagger/Tagger.hh">
<polygon fill="white" stroke="black" points="931,-280.5 931,-299.5 1045,-299.5 1045,-280.5 931,-280.5"/>
<text text-anchor="middle" x="988" y="-287.5" font-family="Helvetica,sans-Serif" font-size="10.00">boca/tagger/Tagger.hh</text>
</a>
</g>
</g>
<!-- Node40&#45;&gt;Node41 -->
<g id="edge54" class="edge"><title>Node40&#45;&gt;Node41</title>
<path fill="none" stroke="midnightblue" d="M906.905,-392.368C921.492,-374.135 955.659,-331.426 974.66,-307.675"/>
<polygon fill="midnightblue" stroke="midnightblue" points="977.613,-309.587 981.127,-299.591 972.147,-305.214 977.613,-309.587"/>
</g>
<!-- Node46 -->
<g id="node46" class="node"><title>Node46</title>
<g id="a_node46"><a xlink:href="boca_2branch_2Global_8hh.html" target="_top" xlink:title="boca/branch/Global.hh">
<polygon fill="white" stroke="black" points="1316,-336.5 1316,-355.5 1430,-355.5 1430,-336.5 1316,-336.5"/>
<text text-anchor="middle" x="1373" y="-343.5" font-family="Helvetica,sans-Serif" font-size="10.00">boca/branch/Global.hh</text>
</a>
</g>
</g>
<!-- Node40&#45;&gt;Node46 -->
<g id="edge67" class="edge"><title>Node40&#45;&gt;Node46</title>
<path fill="none" stroke="midnightblue" d="M959.906,-394.161C1048.32,-384.067 1213.24,-365.239 1305.71,-354.682"/>
<polygon fill="midnightblue" stroke="midnightblue" points="1306.26,-358.143 1315.79,-353.531 1305.46,-351.188 1306.26,-358.143"/>
</g>
<!-- Node49 -->
<g id="node49" class="node"><title>Node49</title>
<g id="a_node49"><a xlink:href="boca_2multiplets_2Global_8hh.html" target="_top" xlink:title="boca/multiplets/Global.hh">
<polygon fill="white" stroke="black" points="770.5,-336.5 770.5,-355.5 897.5,-355.5 897.5,-336.5 770.5,-336.5"/>
<text text-anchor="middle" x="834" y="-343.5" font-family="Helvetica,sans-Serif" font-size="10.00">boca/multiplets/Global.hh</text>
</a>
</g>
</g>
<!-- Node40&#45;&gt;Node49 -->
<g id="edge71" class="edge"><title>Node40&#45;&gt;Node49</title>
<path fill="none" stroke="midnightblue" d="M889.396,-392.324C879.544,-384.263 864.649,-372.077 852.785,-362.369"/>
<polygon fill="midnightblue" stroke="midnightblue" points="854.753,-359.457 844.797,-355.834 850.32,-364.875 854.753,-359.457"/>
</g>
<!-- Node41&#45;&gt;Node5 -->
<g id="edge55" class="edge"><title>Node41&#45;&gt;Node5</title>
<path fill="none" stroke="midnightblue" d="M930.64,-280.444C866.166,-270.826 761.599,-255.228 693.311,-245.041"/>
<polygon fill="midnightblue" stroke="midnightblue" points="693.499,-241.53 683.092,-243.516 692.466,-248.454 693.499,-241.53"/>
</g>
<!-- Node41&#45;&gt;Node13 -->
<g id="edge66" class="edge"><title>Node41&#45;&gt;Node13</title>
<path fill="none" stroke="midnightblue" d="M944.879,-280.454C920.208,-273.825 889.909,-262.543 868,-244 838.208,-218.785 854.944,-191.787 824,-168 806.832,-154.803 755.832,-142.115 714.847,-133.595"/>
<polygon fill="midnightblue" stroke="midnightblue" points="715.436,-130.144 704.938,-131.575 714.037,-137.002 715.436,-130.144"/>
</g>
<!-- Node41&#45;&gt;Node26 -->
<g id="edge62" class="edge"><title>Node41&#45;&gt;Node26</title>
<path fill="none" stroke="midnightblue" d="M1009.56,-280.458C1026.06,-272.978 1048.41,-260.688 1063,-244 1074.62,-230.717 1082.01,-211.882 1086.27,-197.904"/>
<polygon fill="midnightblue" stroke="midnightblue" points="1089.73,-198.505 1089.02,-187.934 1082.98,-196.638 1089.73,-198.505"/>
</g>
<!-- Node42 -->
<g id="node42" class="node"><title>Node42</title>
<g id="a_node42"><a xlink:href="Sort_8hh.html" target="_top" xlink:title="boca/multiplets/Sort.hh">
<polygon fill="white" stroke="red" points="1148.5,-224.5 1148.5,-243.5 1265.5,-243.5 1265.5,-224.5 1148.5,-224.5"/>
<text text-anchor="middle" x="1207" y="-231.5" font-family="Helvetica,sans-Serif" font-size="10.00">boca/multiplets/Sort.hh</text>
</a>
</g>
</g>
<!-- Node41&#45;&gt;Node42 -->
<g id="edge56" class="edge"><title>Node41&#45;&gt;Node42</title>
<path fill="none" stroke="midnightblue" d="M1022.7,-280.444C1060.58,-271.102 1121.35,-256.119 1162.66,-245.933"/>
<polygon fill="midnightblue" stroke="midnightblue" points="1163.59,-249.309 1172.46,-243.516 1161.91,-242.512 1163.59,-249.309"/>
</g>
<!-- Node43 -->
<g id="node43" class="node"><title>Node43</title>
<g id="a_node43"><a xlink:href="TreeBranch_8hh.html" target="_top" xlink:title="boca/io/TreeBranch.hh">
<polygon fill="white" stroke="red" points="899.5,-56.5 899.5,-75.5 1014.5,-75.5 1014.5,-56.5 899.5,-56.5"/>
<text text-anchor="middle" x="957" y="-63.5" font-family="Helvetica,sans-Serif" font-size="10.00">boca/io/TreeBranch.hh</text>
</a>
</g>
</g>
<!-- Node41&#45;&gt;Node43 -->
<g id="edge57" class="edge"><title>Node41&#45;&gt;Node43</title>
<path fill="none" stroke="midnightblue" d="M952.987,-280.445C934.066,-273.844 912.316,-262.594 901,-244 868.529,-190.648 917.304,-116.648 942.93,-83.8292"/>
<polygon fill="midnightblue" stroke="midnightblue" points="945.916,-85.7015 949.458,-75.7161 940.462,-81.3135 945.916,-85.7015"/>
</g>
<!-- Node44 -->
<g id="node44" class="node"><title>Node44</title>
<g id="a_node44"><a xlink:href="tagger_2Base_8hh.html" target="_top" xlink:title="boca/tagger/Base.hh">
<polygon fill="white" stroke="red" points="1418.5,-224.5 1418.5,-243.5 1525.5,-243.5 1525.5,-224.5 1418.5,-224.5"/>
<text text-anchor="middle" x="1472" y="-231.5" font-family="Helvetica,sans-Serif" font-size="10.00">boca/tagger/Base.hh</text>
</a>
</g>
</g>
<!-- Node41&#45;&gt;Node44 -->
<g id="edge59" class="edge"><title>Node41&#45;&gt;Node44</title>
<path fill="none" stroke="midnightblue" d="M1045.27,-283.527C1124.37,-275.825 1271.75,-260.956 1408.18,-244.061"/>
<polygon fill="midnightblue" stroke="midnightblue" points="1408.91,-247.497 1418.4,-242.789 1408.05,-240.551 1408.91,-247.497"/>
</g>
<!-- Node45 -->
<g id="node45" class="node"><title>Node45</title>
<g id="a_node45"><a xlink:href="Filter_8hh.html" target="_top" xlink:title="boca/Filter.hh">
<polygon fill="white" stroke="red" points="1187,-112.5 1187,-131.5 1263,-131.5 1263,-112.5 1187,-112.5"/>
<text text-anchor="middle" x="1225" y="-119.5" font-family="Helvetica,sans-Serif" font-size="10.00">boca/Filter.hh</text>
</a>
</g>
</g>
<!-- Node41&#45;&gt;Node45 -->
<g id="edge63" class="edge"><title>Node41&#45;&gt;Node45</title>
<path fill="none" stroke="midnightblue" d="M1010.63,-280.432C1030.68,-272.375 1060.35,-259.287 1084,-244 1133.87,-211.769 1184.92,-163.328 1209.67,-138.653"/>
<polygon fill="midnightblue" stroke="midnightblue" points="1212.19,-141.09 1216.75,-131.528 1207.22,-136.157 1212.19,-141.09"/>
</g>
<!-- Node43&#45;&gt;Node6 -->
<g id="edge58" class="edge"><title>Node43&#45;&gt;Node6</title>
<path fill="none" stroke="midnightblue" d="M974.834,-56.324C992.716,-47.6247 1020.48,-34.1202 1041.05,-24.113"/>
<polygon fill="midnightblue" stroke="midnightblue" points="1042.75,-27.1765 1050.21,-19.6545 1039.69,-20.8819 1042.75,-27.1765"/>
</g>
<!-- Node44&#45;&gt;Node18 -->
<g id="edge61" class="edge"><title>Node44&#45;&gt;Node18</title>
<path fill="none" stroke="midnightblue" d="M1455.93,-224.324C1440.04,-215.743 1415.49,-202.486 1397.04,-192.522"/>
<polygon fill="midnightblue" stroke="midnightblue" points="1398.49,-189.326 1388.03,-187.655 1395.16,-195.486 1398.49,-189.326"/>
</g>
<!-- Node44&#45;&gt;Node22 -->
<g id="edge60" class="edge"><title>Node44&#45;&gt;Node22</title>
<path fill="none" stroke="midnightblue" d="M1490.06,-224.444C1508.57,-215.675 1537.58,-201.935 1558.86,-191.858"/>
<polygon fill="midnightblue" stroke="midnightblue" points="1560.48,-194.96 1568.02,-187.516 1557.49,-188.634 1560.48,-194.96"/>
</g>
<!-- Node45&#45;&gt;Node6 -->
<g id="edge64" class="edge"><title>Node45&#45;&gt;Node6</title>
<path fill="none" stroke="midnightblue" d="M1212.68,-112.368C1185.85,-93.5728 1121.91,-48.7684 1088.74,-25.5334"/>
<polygon fill="midnightblue" stroke="midnightblue" points="1090.46,-22.4631 1080.26,-19.5914 1086.44,-28.196 1090.46,-22.4631"/>
</g>
<!-- Node45&#45;&gt;Node17 -->
<g id="edge65" class="edge"><title>Node45&#45;&gt;Node17</title>
<path fill="none" stroke="midnightblue" d="M1203.29,-112.444C1179.45,-103.045 1141.11,-87.9336 1115.26,-77.7438"/>
<polygon fill="midnightblue" stroke="midnightblue" points="1116.27,-74.3819 1105.69,-73.971 1113.71,-80.8943 1116.27,-74.3819"/>
</g>
<!-- Node47 -->
<g id="node47" class="node"><title>Node47</title>
<g id="a_node47"><a xlink:href="Bdt_8hh.html" target="_top" xlink:title="boca/branch/Bdt.hh">
<polygon fill="white" stroke="red" points="1322.5,-280.5 1322.5,-299.5 1423.5,-299.5 1423.5,-280.5 1322.5,-280.5"/>
<text text-anchor="middle" x="1373" y="-287.5" font-family="Helvetica,sans-Serif" font-size="10.00">boca/branch/Bdt.hh</text>
</a>
</g>
</g>
<!-- Node46&#45;&gt;Node47 -->
<g id="edge68" class="edge"><title>Node46&#45;&gt;Node47</title>
<path fill="none" stroke="midnightblue" d="M1373,-336.083C1373,-329.006 1373,-318.861 1373,-309.986"/>
<polygon fill="midnightblue" stroke="midnightblue" points="1376.5,-309.751 1373,-299.751 1369.5,-309.751 1376.5,-309.751"/>
</g>
<!-- Node48 -->
<g id="node48" class="node"><title>Node48</title>
<g id="a_node48"><a xlink:href="GlobalBase_8hh.html" target="_top" xlink:title="boca/branch/GlobalBase.hh">
<polygon fill="white" stroke="red" points="1485.5,-280.5 1485.5,-299.5 1622.5,-299.5 1622.5,-280.5 1485.5,-280.5"/>
<text text-anchor="middle" x="1554" y="-287.5" font-family="Helvetica,sans-Serif" font-size="10.00">boca/branch/GlobalBase.hh</text>
</a>
</g>
</g>
<!-- Node46&#45;&gt;Node48 -->
<g id="edge69" class="edge"><title>Node46&#45;&gt;Node48</title>
<path fill="none" stroke="midnightblue" d="M1401.68,-336.444C1432.53,-327.241 1481.73,-312.562 1515.83,-302.388"/>
<polygon fill="midnightblue" stroke="midnightblue" points="1516.87,-305.729 1525.45,-299.516 1514.87,-299.021 1516.87,-305.729"/>
</g>
<!-- Node48&#45;&gt;Node21 -->
<g id="edge70" class="edge"><title>Node48&#45;&gt;Node21</title>
<path fill="none" stroke="midnightblue" d="M1561.27,-280.083C1567.54,-272.377 1576.79,-261.033 1584.43,-251.653"/>
<polygon fill="midnightblue" stroke="midnightblue" points="1587.27,-253.714 1590.87,-243.751 1581.84,-249.293 1587.27,-253.714"/>
</g>
<!-- Node50 -->
<g id="node50" class="node"><title>Node50</title>
<g id="a_node50"><a xlink:href="Singlet_8hh.html" target="_top" xlink:title="boca/multiplets/Singlet.hh">
<polygon fill="white" stroke="red" points="430.5,-280.5 430.5,-299.5 559.5,-299.5 559.5,-280.5 430.5,-280.5"/>
<text text-anchor="middle" x="495" y="-287.5" font-family="Helvetica,sans-Serif" font-size="10.00">boca/multiplets/Singlet.hh</text>
</a>
</g>
</g>
<!-- Node49&#45;&gt;Node50 -->
<g id="edge72" class="edge"><title>Node49&#45;&gt;Node50</title>
<path fill="none" stroke="midnightblue" d="M780.284,-336.444C720.031,-326.846 622.386,-311.292 558.429,-301.104"/>
<polygon fill="midnightblue" stroke="midnightblue" points="558.89,-297.633 548.464,-299.516 557.789,-304.546 558.89,-297.633"/>
</g>
<!-- Node50&#45;&gt;Node38 -->
<g id="edge73" class="edge"><title>Node50&#45;&gt;Node38</title>
<path fill="none" stroke="midnightblue" d="M473.767,-280.444C451.616,-271.517 416.681,-257.439 391.564,-247.317"/>
<polygon fill="midnightblue" stroke="midnightblue" points="392.717,-244.008 382.133,-243.516 390.1,-250.501 392.717,-244.008"/>
</g>
</g>
</svg>
