<?xml version="1.0" encoding="UTF-8" standalone="no"?>
<!DOCTYPE svg PUBLIC "-//W3C//DTD SVG 1.1//EN"
 "http://www.w3.org/Graphics/SVG/1.1/DTD/svg11.dtd">
<!-- Generated by graphviz version 2.38.0 (20140413.2041)
 -->
<!-- Title: external/exroot/exroot/ExRootClasses.h Pages: 1 -->
<svg width="594pt" height="162pt"
 viewBox="0.00 0.00 593.50 162.00" xmlns="http://www.w3.org/2000/svg" xmlns:xlink="http://www.w3.org/1999/xlink">
<g id="graph0" class="graph" transform="scale(1 1) rotate(0) translate(4 158)">
<title>external/exroot/exroot/ExRootClasses.h</title>
<polygon fill="white" stroke="none" points="-4,4 -4,-158 589.5,-158 589.5,4 -4,4"/>
<!-- Node1 -->
<g id="node1" class="node"><title>Node1</title>
<polygon fill="#bfbfbf" stroke="black" points="294,-123.5 294,-153.5 405,-153.5 405,-123.5 294,-123.5"/>
<text text-anchor="start" x="302" y="-141.5" font-family="Helvetica,sans-Serif" font-size="10.00">external/exroot/exroot</text>
<text text-anchor="middle" x="349.5" y="-130.5" font-family="Helvetica,sans-Serif" font-size="10.00">/ExRootClasses.h</text>
</g>
<!-- Node2 -->
<g id="node2" class="node"><title>Node2</title>
<g id="a_node2"><a xlink:href="exroot_2exroot_2Classes_8hh.html" target="_top" xlink:title="external/exroot/exroot\l/Classes.hh">
<polygon fill="white" stroke="black" points="229,-56.5 229,-86.5 340,-86.5 340,-56.5 229,-56.5"/>
<text text-anchor="start" x="237" y="-74.5" font-family="Helvetica,sans-Serif" font-size="10.00">external/exroot/exroot</text>
<text text-anchor="middle" x="284.5" y="-63.5" font-family="Helvetica,sans-Serif" font-size="10.00">/Classes.hh</text>
</a>
</g>
</g>
<!-- Node1&#45;&gt;Node2 -->
<g id="edge1" class="edge"><title>Node1&#45;&gt;Node2</title>
<path fill="none" stroke="midnightblue" d="M328.311,-116.311C318.561,-106.561 307.259,-95.259 298.577,-86.5765"/>
<polygon fill="midnightblue" stroke="midnightblue" points="325.85,-118.8 335.396,-123.396 330.8,-113.85 325.85,-118.8"/>
</g>
<!-- Node7 -->
<g id="node7" class="node"><title>Node7</title>
<g id="a_node7"><a xlink:href="ExRootClasses_8cc.html" target="_top" xlink:title="external/exroot/source\l/ExRootClasses.cc">
<polygon fill="white" stroke="black" points="358,-56.5 358,-86.5 471,-86.5 471,-56.5 358,-56.5"/>
<text text-anchor="start" x="366" y="-74.5" font-family="Helvetica,sans-Serif" font-size="10.00">external/exroot/source</text>
<text text-anchor="middle" x="414.5" y="-63.5" font-family="Helvetica,sans-Serif" font-size="10.00">/ExRootClasses.cc</text>
</a>
</g>
</g>
<!-- Node1&#45;&gt;Node7 -->
<g id="edge6" class="edge"><title>Node1&#45;&gt;Node7</title>
<path fill="none" stroke="midnightblue" d="M370.689,-116.311C380.439,-106.561 391.741,-95.259 400.423,-86.5765"/>
<polygon fill="midnightblue" stroke="midnightblue" points="368.2,-113.85 363.604,-123.396 373.15,-118.8 368.2,-113.85"/>
</g>
<!-- Node3 -->
<g id="node3" class="node"><title>Node3</title>
<g id="a_node3"><a xlink:href="source_2exroot_2Event_8cpp.html" target="_top" xlink:title="source/exroot/Event.cpp">
<polygon fill="white" stroke="black" points="0,-0.5 0,-19.5 123,-19.5 123,-0.5 0,-0.5"/>
<text text-anchor="middle" x="61.5" y="-7.5" font-family="Helvetica,sans-Serif" font-size="10.00">source/exroot/Event.cpp</text>
</a>
</g>
</g>
<!-- Node2&#45;&gt;Node3 -->
<g id="edge2" class="edge"><title>Node2&#45;&gt;Node3</title>
<path fill="none" stroke="midnightblue" d="M222.103,-53.8516C180.234,-42.6801 126.821,-28.4286 93.381,-19.5064"/>
<polygon fill="midnightblue" stroke="midnightblue" points="221.37,-57.2783 231.934,-56.4747 223.175,-50.5149 221.37,-57.2783"/>
</g>
<!-- Node4 -->
<g id="node4" class="node"><title>Node4</title>
<g id="a_node4"><a xlink:href="TreeReader_8cpp.html" target="_top" xlink:title="source/io/TreeReader.cpp">
<polygon fill="white" stroke="black" points="141,-0.5 141,-19.5 270,-19.5 270,-0.5 141,-0.5"/>
<text text-anchor="middle" x="205.5" y="-7.5" font-family="Helvetica,sans-Serif" font-size="10.00">source/io/TreeReader.cpp</text>
</a>
</g>
</g>
<!-- Node2&#45;&gt;Node4 -->
<g id="edge3" class="edge"><title>Node2&#45;&gt;Node4</title>
<path fill="none" stroke="midnightblue" d="M257.532,-50.1886C243.701,-39.7719 227.584,-27.6329 216.995,-19.6578"/>
<polygon fill="midnightblue" stroke="midnightblue" points="255.685,-53.1789 265.778,-56.3993 259.896,-47.5874 255.685,-53.1789"/>
</g>
<!-- Node5 -->
<g id="node5" class="node"><title>Node5</title>
<g id="a_node5"><a xlink:href="LorentzVector_8cpp.html" target="_top" xlink:title="source/math/LorentzVector.cpp">
<polygon fill="white" stroke="black" points="288,-0.5 288,-19.5 441,-19.5 441,-0.5 288,-0.5"/>
<text text-anchor="middle" x="364.5" y="-7.5" font-family="Helvetica,sans-Serif" font-size="10.00">source/math/LorentzVector.cpp</text>
</a>
</g>
</g>
<!-- Node2&#45;&gt;Node5 -->
<g id="edge4" class="edge"><title>Node2&#45;&gt;Node5</title>
<path fill="none" stroke="midnightblue" d="M311.809,-50.1886C325.815,-39.7719 342.136,-27.6329 352.859,-19.6578"/>
<polygon fill="midnightblue" stroke="midnightblue" points="309.394,-47.623 303.459,-56.3993 313.572,-53.2398 309.394,-47.623"/>
</g>
<!-- Node6 -->
<g id="node6" class="node"><title>Node6</title>
<g id="a_node6"><a xlink:href="Jet_8cpp.html" target="_top" xlink:title="source/multiplets/Jet.cpp">
<polygon fill="white" stroke="black" points="459.5,-0.5 459.5,-19.5 585.5,-19.5 585.5,-0.5 459.5,-0.5"/>
<text text-anchor="middle" x="522.5" y="-7.5" font-family="Helvetica,sans-Serif" font-size="10.00">source/multiplets/Jet.cpp</text>
</a>
</g>
</g>
<!-- Node2&#45;&gt;Node6 -->
<g id="edge5" class="edge"><title>Node2&#45;&gt;Node6</title>
<path fill="none" stroke="midnightblue" d="M349.927,-54.1434C394.71,-42.9475 452.286,-28.5535 488.299,-19.5504"/>
<polygon fill="midnightblue" stroke="midnightblue" points="348.853,-50.8041 340,-56.625 350.55,-57.5951 348.853,-50.8041"/>
</g>
</g>
</svg>
