<?xml version="1.0" encoding="UTF-8" standalone="no"?>
<!DOCTYPE svg PUBLIC "-//W3C//DTD SVG 1.1//EN"
 "http://www.w3.org/Graphics/SVG/1.1/DTD/svg11.dtd">
<!-- Generated by graphviz version 2.38.0 (20140413.2041)
 -->
<!-- Title: boca/plotting/Font.hh Pages: 1 -->
<svg width="5041pt" height="318pt"
 viewBox="0.00 0.00 5041.00 318.00" xmlns="http://www.w3.org/2000/svg" xmlns:xlink="http://www.w3.org/1999/xlink">
<g id="graph0" class="graph" transform="scale(1 1) rotate(0) translate(4 314)">
<title>boca/plotting/Font.hh</title>
<polygon fill="white" stroke="none" points="-4,4 -4,-314 5037,-314 5037,4 -4,4"/>
<!-- Node1 -->
<g id="node1" class="node"><title>Node1</title>
<polygon fill="#bfbfbf" stroke="black" points="4127,-290.5 4127,-309.5 4235,-309.5 4235,-290.5 4127,-290.5"/>
<text text-anchor="middle" x="4181" y="-297.5" font-family="Helvetica,sans-Serif" font-size="10.00">boca/plotting/Font.hh</text>
</g>
<!-- Node2 -->
<g id="node2" class="node"><title>Node2</title>
<g id="a_node2"><a xlink:href="Settings_8hh.html" target="_top" xlink:title="boca/Settings.hh">
<polygon fill="white" stroke="black" points="3149,-223.5 3149,-242.5 3239,-242.5 3239,-223.5 3149,-223.5"/>
<text text-anchor="middle" x="3194" y="-230.5" font-family="Helvetica,sans-Serif" font-size="10.00">boca/Settings.hh</text>
</a>
</g>
</g>
<!-- Node1&#45;&gt;Node2 -->
<g id="edge1" class="edge"><title>Node1&#45;&gt;Node2</title>
<path fill="none" stroke="midnightblue" d="M4116.74,-294.768C3931.18,-282.548 3397.74,-247.417 3239.05,-236.967"/>
<polygon fill="midnightblue" stroke="midnightblue" points="4116.67,-298.271 4126.88,-295.436 4117.13,-291.286 4116.67,-298.271"/>
</g>
<!-- Node9 -->
<g id="node9" class="node"><title>Node9</title>
<g id="a_node9"><a xlink:href="tagger_2TopHadronic_8cpp.html" target="_top" xlink:title="examples/standardmodel\l/source/tagger/TopHadronic.cpp">
<polygon fill="white" stroke="black" points="0,-0.5 0,-30.5 156,-30.5 156,-0.5 0,-0.5"/>
<text text-anchor="start" x="8" y="-18.5" font-family="Helvetica,sans-Serif" font-size="10.00">examples/standardmodel</text>
<text text-anchor="middle" x="78" y="-7.5" font-family="Helvetica,sans-Serif" font-size="10.00">/source/tagger/TopHadronic.cpp</text>
</a>
</g>
</g>
<!-- Node1&#45;&gt;Node9 -->
<g id="edge54" class="edge"><title>Node1&#45;&gt;Node9</title>
<path fill="none" stroke="midnightblue" d="M4116.63,-298.739C3599.14,-296.592 134.989,-281.208 90,-254 14.7095,-208.466 -9.65095,-147.879 25,-67 31.4066,-52.0464 44.6566,-39.4214 56.3049,-30.5348"/>
<polygon fill="midnightblue" stroke="midnightblue" points="4116.88,-302.24 4126.9,-298.782 4116.91,-295.241 4116.88,-302.24"/>
</g>
<!-- Node32 -->
<g id="node32" class="node"><title>Node32</title>
<g id="a_node32"><a xlink:href="Histogram2Dim_8cpp.html" target="_top" xlink:title="source/plotting/Histogram2\lDim.cpp">
<polygon fill="white" stroke="black" points="43,-67.5 43,-97.5 177,-97.5 177,-67.5 43,-67.5"/>
<text text-anchor="start" x="51" y="-85.5" font-family="Helvetica,sans-Serif" font-size="10.00">source/plotting/Histogram2</text>
<text text-anchor="middle" x="110" y="-74.5" font-family="Helvetica,sans-Serif" font-size="10.00">Dim.cpp</text>
</a>
</g>
</g>
<!-- Node1&#45;&gt;Node32 -->
<g id="edge60" class="edge"><title>Node1&#45;&gt;Node32</title>
<path fill="none" stroke="midnightblue" d="M4116.62,-299.017C3650.37,-299.037 798.415,-297.377 417,-254 255.199,-235.599 161.159,-302.814 59,-176 47.2896,-161.463 51.8141,-151.228 59,-134 65.1878,-119.165 78.0895,-106.458 89.3674,-97.5009"/>
<polygon fill="midnightblue" stroke="midnightblue" points="4116.87,-302.517 4126.87,-299.016 4116.87,-295.517 4116.87,-302.517"/>
</g>
<!-- Node33 -->
<g id="node33" class="node"><title>Node33</title>
<g id="a_node33"><a xlink:href="PlottingBase_8cpp.html" target="_top" xlink:title="source/plotting/Plotting\lBase.cpp">
<polygon fill="white" stroke="black" points="195,-67.5 195,-97.5 311,-97.5 311,-67.5 195,-67.5"/>
<text text-anchor="start" x="203" y="-85.5" font-family="Helvetica,sans-Serif" font-size="10.00">source/plotting/Plotting</text>
<text text-anchor="middle" x="253" y="-74.5" font-family="Helvetica,sans-Serif" font-size="10.00">Base.cpp</text>
</a>
</g>
</g>
<!-- Node1&#45;&gt;Node33 -->
<g id="edge62" class="edge"><title>Node1&#45;&gt;Node33</title>
<path fill="none" stroke="midnightblue" d="M4116.42,-298.308C3599.02,-292.614 145.565,-251.8 72,-176 58.9996,-162.605 60.7128,-148.868 72,-134 79.6688,-123.899 144.803,-107.436 194.762,-96.0676"/>
<polygon fill="midnightblue" stroke="midnightblue" points="4116.65,-301.81 4126.68,-298.42 4116.72,-294.811 4116.65,-301.81"/>
</g>
<!-- Node36 -->
<g id="node36" class="node"><title>Node36</title>
<g id="a_node36"><a xlink:href="Style_8cpp.html" target="_top" xlink:title="source/plotting/Style.cpp">
<polygon fill="white" stroke="black" points="3952.5,-73 3952.5,-92 4077.5,-92 4077.5,-73 3952.5,-73"/>
<text text-anchor="middle" x="4015" y="-80" font-family="Helvetica,sans-Serif" font-size="10.00">source/plotting/Style.cpp</text>
</a>
</g>
</g>
<!-- Node1&#45;&gt;Node36 -->
<g id="edge64" class="edge"><title>Node1&#45;&gt;Node36</title>
<path fill="none" stroke="midnightblue" d="M4186.35,-280.443C4192.24,-261.996 4202.9,-233.435 4218,-212 4231.59,-192.716 4247.54,-197.609 4257,-176 4264.49,-158.9 4268.77,-148.485 4257,-134 4234.8,-106.691 4141.73,-93.6462 4077.7,-87.7975"/>
<polygon fill="midnightblue" stroke="midnightblue" points="4182.94,-279.651 4183.38,-290.237 4189.63,-281.686 4182.94,-279.651"/>
</g>
<!-- Node42 -->
<g id="node42" class="node"><title>Node42</title>
<g id="a_node42"><a xlink:href="String_8cpp.html" target="_top" xlink:title="source/latex/String.cpp">
<polygon fill="white" stroke="black" points="3990.5,-145.5 3990.5,-164.5 4107.5,-164.5 4107.5,-145.5 3990.5,-145.5"/>
<text text-anchor="middle" x="4049" y="-152.5" font-family="Helvetica,sans-Serif" font-size="10.00">source/latex/String.cpp</text>
</a>
</g>
</g>
<!-- Node1&#45;&gt;Node42 -->
<g id="edge57" class="edge"><title>Node1&#45;&gt;Node42</title>
<path fill="none" stroke="midnightblue" d="M4166.14,-282.907C4138.17,-252.599 4078.55,-188.008 4056.99,-164.653"/>
<polygon fill="midnightblue" stroke="midnightblue" points="4163.78,-285.509 4173.14,-290.483 4168.93,-280.761 4163.78,-285.509"/>
</g>
<!-- Node43 -->
<g id="node43" class="node"><title>Node43</title>
<g id="a_node43"><a xlink:href="Font_8cpp.html" target="_top" xlink:title="source/plotting/Font.cpp">
<polygon fill="white" stroke="black" points="4126,-145.5 4126,-164.5 4248,-164.5 4248,-145.5 4126,-145.5"/>
<text text-anchor="middle" x="4187" y="-152.5" font-family="Helvetica,sans-Serif" font-size="10.00">source/plotting/Font.cpp</text>
</a>
</g>
</g>
<!-- Node1&#45;&gt;Node43 -->
<g id="edge59" class="edge"><title>Node1&#45;&gt;Node43</title>
<path fill="none" stroke="midnightblue" d="M4181.79,-280.097C4183.11,-248.772 4185.69,-187.309 4186.64,-164.653"/>
<polygon fill="midnightblue" stroke="midnightblue" points="4178.28,-280.345 4181.36,-290.483 4185.27,-280.638 4178.28,-280.345"/>
</g>
<!-- Node46 -->
<g id="node46" class="node"><title>Node46</title>
<g id="a_node46"><a xlink:href="TopPartnerLeptonicNeutral_8cpp.html" target="_top" xlink:title="examples/toppartner\l/source/tagger/TopPartnerLeptonic\lNeutral.cpp">
<polygon fill="white" stroke="black" points="4227.5,-212.5 4227.5,-253.5 4394.5,-253.5 4394.5,-212.5 4227.5,-212.5"/>
<text text-anchor="start" x="4235.5" y="-241.5" font-family="Helvetica,sans-Serif" font-size="10.00">examples/toppartner</text>
<text text-anchor="start" x="4235.5" y="-230.5" font-family="Helvetica,sans-Serif" font-size="10.00">/source/tagger/TopPartnerLeptonic</text>
<text text-anchor="middle" x="4311" y="-219.5" font-family="Helvetica,sans-Serif" font-size="10.00">Neutral.cpp</text>
</a>
</g>
</g>
<!-- Node1&#45;&gt;Node46 -->
<g id="edge55" class="edge"><title>Node1&#45;&gt;Node46</title>
<path fill="none" stroke="midnightblue" d="M4207.28,-285.859C4225.79,-276.606 4250.88,-264.06 4271.75,-253.625"/>
<polygon fill="midnightblue" stroke="midnightblue" points="4205.64,-282.766 4198.26,-290.369 4208.77,-289.027 4205.64,-282.766"/>
</g>
<!-- Node47 -->
<g id="node47" class="node"><title>Node47</title>
<g id="a_node47"><a xlink:href="TopPartnerPair_8cpp.html" target="_top" xlink:title="examples/toppartner\l/source/tagger/TopPartnerPair.cpp">
<polygon fill="white" stroke="black" points="4413,-218 4413,-248 4579,-248 4579,-218 4413,-218"/>
<text text-anchor="start" x="4421" y="-236" font-family="Helvetica,sans-Serif" font-size="10.00">examples/toppartner</text>
<text text-anchor="middle" x="4496" y="-225" font-family="Helvetica,sans-Serif" font-size="10.00">/source/tagger/TopPartnerPair.cpp</text>
</a>
</g>
</g>
<!-- Node1&#45;&gt;Node47 -->
<g id="edge56" class="edge"><title>Node1&#45;&gt;Node47</title>
<path fill="none" stroke="midnightblue" d="M4233.84,-288.473C4278.84,-279.463 4345.2,-266.072 4403,-254 4412.13,-252.092 4421.77,-250.052 4431.23,-248.032"/>
<polygon fill="midnightblue" stroke="midnightblue" points="4233.12,-285.046 4224,-290.44 4234.5,-291.91 4233.12,-285.046"/>
</g>
<!-- Node48 -->
<g id="node48" class="node"><title>Node48</title>
<g id="a_node48"><a xlink:href="Canvas_8cpp.html" target="_top" xlink:title="source/plotting/Canvas.cpp">
<polygon fill="white" stroke="black" points="4597,-223.5 4597,-242.5 4733,-242.5 4733,-223.5 4597,-223.5"/>
<text text-anchor="middle" x="4665" y="-230.5" font-family="Helvetica,sans-Serif" font-size="10.00">source/plotting/Canvas.cpp</text>
</a>
</g>
</g>
<!-- Node1&#45;&gt;Node48 -->
<g id="edge58" class="edge"><title>Node1&#45;&gt;Node48</title>
<path fill="none" stroke="midnightblue" d="M4245.01,-294.787C4325.53,-288.832 4467.82,-276.133 4588,-254 4604.03,-251.048 4621.64,-246.568 4635.97,-242.596"/>
<polygon fill="midnightblue" stroke="midnightblue" points="4244.74,-291.297 4235.02,-295.514 4245.25,-298.279 4244.74,-291.297"/>
</g>
<!-- Node49 -->
<g id="node49" class="node"><title>Node49</title>
<g id="a_node49"><a xlink:href="Legend_8cpp.html" target="_top" xlink:title="source/plotting/Legend.cpp">
<polygon fill="white" stroke="black" points="4751,-223.5 4751,-242.5 4885,-242.5 4885,-223.5 4751,-223.5"/>
<text text-anchor="middle" x="4818" y="-230.5" font-family="Helvetica,sans-Serif" font-size="10.00">source/plotting/Legend.cpp</text>
</a>
</g>
</g>
<!-- Node1&#45;&gt;Node49 -->
<g id="edge61" class="edge"><title>Node1&#45;&gt;Node49</title>
<path fill="none" stroke="midnightblue" d="M4245.25,-297.543C4349.98,-294.343 4563.72,-284.361 4742,-254 4758.27,-251.228 4776.14,-246.609 4790.46,-242.507"/>
<polygon fill="midnightblue" stroke="midnightblue" points="4245.05,-294.048 4235.16,-297.841 4245.26,-301.044 4245.05,-294.048"/>
</g>
<!-- Node50 -->
<g id="node50" class="node"><title>Node50</title>
<g id="a_node50"><a xlink:href="Profile_8cpp.html" target="_top" xlink:title="source/plotting/Profile.cpp">
<polygon fill="white" stroke="black" points="4903,-223.5 4903,-242.5 5033,-242.5 5033,-223.5 4903,-223.5"/>
<text text-anchor="middle" x="4968" y="-230.5" font-family="Helvetica,sans-Serif" font-size="10.00">source/plotting/Profile.cpp</text>
</a>
</g>
</g>
<!-- Node1&#45;&gt;Node50 -->
<g id="edge63" class="edge"><title>Node1&#45;&gt;Node50</title>
<path fill="none" stroke="midnightblue" d="M4245.29,-299.249C4370.85,-298.788 4657.13,-293.076 4894,-254 4910.02,-251.357 4927.58,-246.691 4941.57,-242.53"/>
<polygon fill="midnightblue" stroke="midnightblue" points="4245.07,-295.749 4235.08,-299.276 4245.09,-302.749 4245.07,-295.749"/>
</g>
<!-- Node3 -->
<g id="node3" class="node"><title>Node3</title>
<g id="a_node3"><a xlink:href="Vector_8hh.html" target="_top" xlink:title="boca/generic/Vector.hh">
<polygon fill="white" stroke="red" points="2053.5,-145.5 2053.5,-164.5 2170.5,-164.5 2170.5,-145.5 2053.5,-145.5"/>
<text text-anchor="middle" x="2112" y="-152.5" font-family="Helvetica,sans-Serif" font-size="10.00">boca/generic/Vector.hh</text>
</a>
</g>
</g>
<!-- Node2&#45;&gt;Node3 -->
<g id="edge2" class="edge"><title>Node2&#45;&gt;Node3</title>
<path fill="none" stroke="midnightblue" d="M3138.87,-228.128C2954.49,-215.177 2360.29,-173.44 2170.71,-160.124"/>
<polygon fill="midnightblue" stroke="midnightblue" points="3138.66,-231.622 3148.89,-228.831 3139.16,-224.639 3138.66,-231.622"/>
</g>
<!-- Node5 -->
<g id="node5" class="node"><title>Node5</title>
<g id="a_node5"><a xlink:href="tagger_2TopHadronicHep_8cpp.html" target="_top" xlink:title="examples/standardmodel\l/source/tagger/TopHadronicHep.cpp">
<polygon fill="white" stroke="black" points="3430,-0.5 3430,-30.5 3604,-30.5 3604,-0.5 3430,-0.5"/>
<text text-anchor="start" x="3438" y="-18.5" font-family="Helvetica,sans-Serif" font-size="10.00">examples/standardmodel</text>
<text text-anchor="middle" x="3517" y="-7.5" font-family="Helvetica,sans-Serif" font-size="10.00">/source/tagger/TopHadronicHep.cpp</text>
</a>
</g>
</g>
<!-- Node2&#45;&gt;Node5 -->
<g id="edge37" class="edge"><title>Node2&#45;&gt;Node5</title>
<path fill="none" stroke="midnightblue" d="M3249.2,-231.857C3408.54,-230.872 3860.77,-223.851 3905,-176 3937.88,-140.425 3936.97,-103.399 3905,-67 3885.47,-44.7662 3712.77,-29.403 3604.46,-21.8584"/>
<polygon fill="midnightblue" stroke="midnightblue" points="3249.11,-228.357 3239.13,-231.913 3249.15,-235.357 3249.11,-228.357"/>
</g>
<!-- Node6 -->
<g id="node6" class="node"><title>Node6</title>
<g id="a_node6"><a xlink:href="TopHadronicHep2_8cpp.html" target="_top" xlink:title="examples/standardmodel\l/source/tagger/TopHadronicHep2.cpp">
<polygon fill="white" stroke="black" points="3884.5,-0.5 3884.5,-30.5 4063.5,-30.5 4063.5,-0.5 3884.5,-0.5"/>
<text text-anchor="start" x="3892.5" y="-18.5" font-family="Helvetica,sans-Serif" font-size="10.00">examples/standardmodel</text>
<text text-anchor="middle" x="3974" y="-7.5" font-family="Helvetica,sans-Serif" font-size="10.00">/source/tagger/TopHadronicHep2.cpp</text>
</a>
</g>
</g>
<!-- Node2&#45;&gt;Node6 -->
<g id="edge38" class="edge"><title>Node2&#45;&gt;Node6</title>
<path fill="none" stroke="midnightblue" d="M3249.49,-232.146C3399.06,-231.855 3807.57,-226.34 3931,-176 3957.87,-165.04 3955.73,-148.281 3981,-134 4023.95,-109.724 4057.33,-138.144 4086,-98 4094.01,-86.7886 4093.48,-78.5727 4086,-67 4074.71,-49.532 4055.78,-38.0445 4036.66,-30.5158"/>
<polygon fill="midnightblue" stroke="midnightblue" points="3249.17,-228.647 3239.18,-232.159 3249.18,-235.647 3249.17,-228.647"/>
</g>
<!-- Node7 -->
<g id="node7" class="node"><title>Node7</title>
<g id="a_node7"><a xlink:href="PreCuts_8cpp.html" target="_top" xlink:title="source/PreCuts.cpp">
<polygon fill="white" stroke="black" points="1958,-6 1958,-25 2062,-25 2062,-6 1958,-6"/>
<text text-anchor="middle" x="2010" y="-13" font-family="Helvetica,sans-Serif" font-size="10.00">source/PreCuts.cpp</text>
</a>
</g>
</g>
<!-- Node2&#45;&gt;Node7 -->
<g id="edge51" class="edge"><title>Node2&#45;&gt;Node7</title>
<path fill="none" stroke="midnightblue" d="M3138.61,-231.806C2725.5,-230.265 139.284,-218.909 72,-176 39.4869,-155.266 42.6661,-135.575 34,-98 30.9037,-84.5747 24.3829,-76.866 34,-67 68.5737,-31.5314 1648.81,-18.9591 1957.89,-16.8374"/>
<polygon fill="midnightblue" stroke="midnightblue" points="3138.79,-235.307 3148.81,-231.844 3138.82,-228.307 3138.79,-235.307"/>
</g>
<!-- Node10 -->
<g id="node10" class="node"><title>Node10</title>
<g id="a_node10"><a xlink:href="MomentumRange_8cpp.html" target="_top" xlink:title="source/MomentumRange.cpp">
<polygon fill="white" stroke="black" points="313.5,-6 313.5,-25 458.5,-25 458.5,-6 313.5,-6"/>
<text text-anchor="middle" x="386" y="-13" font-family="Helvetica,sans-Serif" font-size="10.00">source/MomentumRange.cpp</text>
</a>
</g>
</g>
<!-- Node2&#45;&gt;Node10 -->
<g id="edge46" class="edge"><title>Node2&#45;&gt;Node10</title>
<path fill="none" stroke="midnightblue" d="M3138.69,-231.642C2811.88,-229.397 1130.14,-216.046 615,-176 582.531,-173.476 55.4419,-122.513 34,-98 24.9289,-87.6297 24.9759,-77.4112 34,-67 52.0194,-46.211 215.601,-29.889 313.303,-21.8922"/>
<polygon fill="midnightblue" stroke="midnightblue" points="3138.83,-235.143 3148.86,-231.711 3138.88,-228.143 3138.83,-235.143"/>
</g>
<!-- Node19 -->
<g id="node19" class="node"><title>Node19</title>
<g id="a_node19"><a xlink:href="source_2Event_8cpp.html" target="_top" xlink:title="source/Event.cpp">
<polygon fill="white" stroke="black" points="328.5,-73 328.5,-92 421.5,-92 421.5,-73 328.5,-73"/>
<text text-anchor="middle" x="375" y="-80" font-family="Helvetica,sans-Serif" font-size="10.00">source/Event.cpp</text>
</a>
</g>
</g>
<!-- Node2&#45;&gt;Node19 -->
<g id="edge41" class="edge"><title>Node2&#45;&gt;Node19</title>
<path fill="none" stroke="midnightblue" d="M3138.4,-231.545C2836.86,-228.938 1394.92,-214.623 951,-176 717.745,-155.706 659.32,-145.247 430,-98 421.876,-96.3261 413.161,-94.1896 405.119,-92.0742"/>
<polygon fill="midnightblue" stroke="midnightblue" points="3138.61,-235.047 3148.64,-231.633 3138.67,-228.048 3138.61,-235.047"/>
</g>
<!-- Node21 -->
<g id="node21" class="node"><title>Node21</title>
<g id="a_node21"><a xlink:href="MuXboostedBTagging_8cpp.html" target="_top" xlink:title="source/external/MuXboosted\lBTagging.cpp">
<polygon fill="white" stroke="black" points="439.5,-67.5 439.5,-97.5 580.5,-97.5 580.5,-67.5 439.5,-67.5"/>
<text text-anchor="start" x="447.5" y="-85.5" font-family="Helvetica,sans-Serif" font-size="10.00">source/external/MuXboosted</text>
<text text-anchor="middle" x="510" y="-74.5" font-family="Helvetica,sans-Serif" font-size="10.00">BTagging.cpp</text>
</a>
</g>
</g>
<!-- Node2&#45;&gt;Node21 -->
<g id="edge42" class="edge"><title>Node2&#45;&gt;Node21</title>
<path fill="none" stroke="midnightblue" d="M3138.34,-229.386C2972.11,-221.56 2464.71,-197.52 2044,-176 1397.25,-142.918 1232.13,-173.943 589,-98 586.23,-97.6729 583.411,-97.3085 580.567,-96.9145"/>
<polygon fill="midnightblue" stroke="midnightblue" points="3138.64,-232.904 3148.79,-229.878 3138.97,-225.912 3138.64,-232.904"/>
</g>
<!-- Node28 -->
<g id="node28" class="node"><title>Node28</title>
<g id="a_node28"><a xlink:href="Singlet_8cpp.html" target="_top" xlink:title="source/multiplets/Singlet.cpp">
<polygon fill="white" stroke="black" points="3449.5,-73 3449.5,-92 3592.5,-92 3592.5,-73 3449.5,-73"/>
<text text-anchor="middle" x="3521" y="-80" font-family="Helvetica,sans-Serif" font-size="10.00">source/multiplets/Singlet.cpp</text>
</a>
</g>
</g>
<!-- Node2&#45;&gt;Node28 -->
<g id="edge47" class="edge"><title>Node2&#45;&gt;Node28</title>
<path fill="none" stroke="midnightblue" d="M3138.39,-225.009C3062.73,-213.387 2941.95,-186.044 2990,-134 3024.02,-97.1446 3390.25,-104.427 3440,-98 3452.33,-96.4075 3465.63,-94.2227 3477.82,-92.0322"/>
<polygon fill="midnightblue" stroke="midnightblue" points="3138.34,-228.54 3148.75,-226.546 3139.37,-221.616 3138.34,-228.54"/>
</g>
<!-- Node34 -->
<g id="node34" class="node"><title>Node34</title>
<g id="a_node34"><a xlink:href="plotting_2Result_8cpp.html" target="_top" xlink:title="source/plotting/Result.cpp">
<polygon fill="white" stroke="black" points="3610.5,-73 3610.5,-92 3741.5,-92 3741.5,-73 3610.5,-73"/>
<text text-anchor="middle" x="3676" y="-80" font-family="Helvetica,sans-Serif" font-size="10.00">source/plotting/Result.cpp</text>
</a>
</g>
</g>
<!-- Node2&#45;&gt;Node34 -->
<g id="edge49" class="edge"><title>Node2&#45;&gt;Node34</title>
<path fill="none" stroke="midnightblue" d="M3138.55,-229.315C3100.67,-224.241 3052.97,-210.778 3028,-176 3017.11,-160.837 3015.22,-147.607 3028,-134 3071.67,-87.4994 3537.72,-106.071 3601,-98 3612.71,-96.5067 3625.34,-94.2991 3636.84,-92.0545"/>
<polygon fill="midnightblue" stroke="midnightblue" points="3138.61,-232.846 3148.95,-230.534 3139.43,-225.893 3138.61,-232.846"/>
</g>
<!-- Node35 -->
<g id="node35" class="node"><title>Node35</title>
<g id="a_node35"><a xlink:href="Results_8cpp.html" target="_top" xlink:title="source/plotting/Results.cpp">
<polygon fill="white" stroke="black" points="3760,-73 3760,-92 3896,-92 3896,-73 3760,-73"/>
<text text-anchor="middle" x="3828" y="-80" font-family="Helvetica,sans-Serif" font-size="10.00">source/plotting/Results.cpp</text>
</a>
</g>
</g>
<!-- Node2&#45;&gt;Node35 -->
<g id="edge50" class="edge"><title>Node2&#45;&gt;Node35</title>
<path fill="none" stroke="midnightblue" d="M3138.93,-223.553C3110.56,-216.105 3078.36,-202.139 3061,-176 3050.67,-160.449 3048.15,-147.539 3061,-134 3113.77,-78.397 3673.87,-107.025 3750,-98 3762.31,-96.5406 3775.61,-94.3152 3787.67,-92.0428"/>
<polygon fill="midnightblue" stroke="midnightblue" points="3138.23,-226.985 3148.77,-225.925 3139.87,-220.18 3138.23,-226.985"/>
</g>
<!-- Node37 -->
<g id="node37" class="node"><title>Node37</title>
<g id="a_node37"><a xlink:href="HeavyHiggs_8hh.html" target="_top" xlink:title="examples/heavyhiggs\l/heavyhiggs/analysis\l/HeavyHiggs.hh">
<polygon fill="white" stroke="red" points="3070.5,-134.5 3070.5,-175.5 3181.5,-175.5 3181.5,-134.5 3070.5,-134.5"/>
<text text-anchor="start" x="3078.5" y="-163.5" font-family="Helvetica,sans-Serif" font-size="10.00">examples/heavyhiggs</text>
<text text-anchor="start" x="3078.5" y="-152.5" font-family="Helvetica,sans-Serif" font-size="10.00">/heavyhiggs/analysis</text>
<text text-anchor="middle" x="3126" y="-141.5" font-family="Helvetica,sans-Serif" font-size="10.00">/HeavyHiggs.hh</text>
</a>
</g>
</g>
<!-- Node2&#45;&gt;Node37 -->
<g id="edge36" class="edge"><title>Node2&#45;&gt;Node37</title>
<path fill="none" stroke="midnightblue" d="M3179.31,-215.581C3168.82,-203.863 3154.68,-188.049 3143.59,-175.658"/>
<polygon fill="midnightblue" stroke="midnightblue" points="3176.92,-218.163 3186.2,-223.282 3182.14,-213.496 3176.92,-218.163"/>
</g>
<!-- Node38 -->
<g id="node38" class="node"><title>Node38</title>
<g id="a_node38"><a xlink:href="StandardModel_8hh.html" target="_top" xlink:title="examples/standardmodel\l/standardmodel/analysis\l/StandardModel.hh">
<polygon fill="white" stroke="red" points="3199.5,-134.5 3199.5,-175.5 3324.5,-175.5 3324.5,-134.5 3199.5,-134.5"/>
<text text-anchor="start" x="3207.5" y="-163.5" font-family="Helvetica,sans-Serif" font-size="10.00">examples/standardmodel</text>
<text text-anchor="start" x="3207.5" y="-152.5" font-family="Helvetica,sans-Serif" font-size="10.00">/standardmodel/analysis</text>
<text text-anchor="middle" x="3262" y="-141.5" font-family="Helvetica,sans-Serif" font-size="10.00">/StandardModel.hh</text>
</a>
</g>
</g>
<!-- Node2&#45;&gt;Node38 -->
<g id="edge39" class="edge"><title>Node2&#45;&gt;Node38</title>
<path fill="none" stroke="midnightblue" d="M3208.69,-215.581C3219.18,-203.863 3233.32,-188.049 3244.41,-175.658"/>
<polygon fill="midnightblue" stroke="midnightblue" points="3205.86,-213.496 3201.8,-223.282 3211.08,-218.163 3205.86,-213.496"/>
</g>
<!-- Node39 -->
<g id="node39" class="node"><title>Node39</title>
<g id="a_node39"><a xlink:href="analysis_2TopPartner_8hh.html" target="_top" xlink:title="examples/toppartner\l/toppartner/analysis\l/TopPartner.hh">
<polygon fill="white" stroke="red" points="3342.5,-134.5 3342.5,-175.5 3447.5,-175.5 3447.5,-134.5 3342.5,-134.5"/>
<text text-anchor="start" x="3350.5" y="-163.5" font-family="Helvetica,sans-Serif" font-size="10.00">examples/toppartner</text>
<text text-anchor="start" x="3350.5" y="-152.5" font-family="Helvetica,sans-Serif" font-size="10.00">/toppartner/analysis</text>
<text text-anchor="middle" x="3395" y="-141.5" font-family="Helvetica,sans-Serif" font-size="10.00">/TopPartner.hh</text>
</a>
</g>
</g>
<!-- Node2&#45;&gt;Node39 -->
<g id="edge40" class="edge"><title>Node2&#45;&gt;Node39</title>
<path fill="none" stroke="midnightblue" d="M3226.27,-219.799C3257.79,-207.88 3306.28,-189.546 3343.2,-175.585"/>
<polygon fill="midnightblue" stroke="midnightblue" points="3224.78,-216.619 3216.67,-223.43 3227.26,-223.167 3224.78,-216.619"/>
</g>
<!-- Node40 -->
<g id="node40" class="node"><title>Node40</title>
<g id="a_node40"><a xlink:href="TopTagger2_8cpp.html" target="_top" xlink:title="source/external/TopTagger2.cpp">
<polygon fill="white" stroke="black" points="3465.5,-145.5 3465.5,-164.5 3622.5,-164.5 3622.5,-145.5 3465.5,-145.5"/>
<text text-anchor="middle" x="3544" y="-152.5" font-family="Helvetica,sans-Serif" font-size="10.00">source/external/TopTagger2.cpp</text>
</a>
</g>
</g>
<!-- Node2&#45;&gt;Node40 -->
<g id="edge43" class="edge"><title>Node2&#45;&gt;Node40</title>
<path fill="none" stroke="midnightblue" d="M3244.67,-221.371C3297.48,-210.248 3382.6,-192.184 3456,-176 3472.68,-172.323 3491.11,-168.151 3506.77,-164.573"/>
<polygon fill="midnightblue" stroke="midnightblue" points="3243.94,-217.948 3234.88,-223.433 3245.39,-224.798 3243.94,-217.948"/>
</g>
<!-- Node41 -->
<g id="node41" class="node"><title>Node41</title>
<g id="a_node41"><a xlink:href="TopTaggerFixedR_8cpp.html" target="_top" xlink:title="source/external/TopTagger\lFixedR.cpp">
<polygon fill="white" stroke="black" points="3640.5,-140 3640.5,-170 3773.5,-170 3773.5,-140 3640.5,-140"/>
<text text-anchor="start" x="3648.5" y="-158" font-family="Helvetica,sans-Serif" font-size="10.00">source/external/TopTagger</text>
<text text-anchor="middle" x="3707" y="-147" font-family="Helvetica,sans-Serif" font-size="10.00">FixedR.cpp</text>
</a>
</g>
</g>
<!-- Node2&#45;&gt;Node41 -->
<g id="edge44" class="edge"><title>Node2&#45;&gt;Node41</title>
<path fill="none" stroke="midnightblue" d="M3249.29,-227.237C3332.58,-219.541 3494.97,-202.499 3631,-176 3639.57,-174.33 3648.61,-172.246 3657.34,-170.058"/>
<polygon fill="midnightblue" stroke="midnightblue" points="3248.93,-223.756 3239.29,-228.152 3249.57,-230.727 3248.93,-223.756"/>
</g>
<!-- Node2&#45;&gt;Node42 -->
<g id="edge45" class="edge"><title>Node2&#45;&gt;Node42</title>
<path fill="none" stroke="midnightblue" d="M3249.72,-231.742C3378.53,-230.335 3706.53,-222.104 3976,-176 3991.67,-173.319 4008.84,-168.704 4022.58,-164.582"/>
<polygon fill="midnightblue" stroke="midnightblue" points="3249.3,-228.246 3239.33,-231.845 3249.37,-235.245 3249.3,-228.246"/>
</g>
<!-- Node2&#45;&gt;Node43 -->
<g id="edge48" class="edge"><title>Node2&#45;&gt;Node43</title>
<path fill="none" stroke="midnightblue" d="M3249.33,-232.739C3393.28,-233.78 3790.9,-231.008 4116,-176 4131.4,-173.393 4148.25,-168.729 4161.67,-164.56"/>
<polygon fill="midnightblue" stroke="midnightblue" points="3249.03,-229.237 3239,-232.655 3248.97,-236.236 3249.03,-229.237"/>
</g>
<!-- Node44 -->
<g id="node44" class="node"><title>Node44</title>
<g id="a_node44"><a xlink:href="Settings_8cpp.html" target="_top" xlink:title="source/Settings.cpp">
<polygon fill="white" stroke="black" points="3792,-145.5 3792,-164.5 3896,-164.5 3896,-145.5 3792,-145.5"/>
<text text-anchor="middle" x="3844" y="-152.5" font-family="Helvetica,sans-Serif" font-size="10.00">source/Settings.cpp</text>
</a>
</g>
</g>
<!-- Node2&#45;&gt;Node44 -->
<g id="edge52" class="edge"><title>Node2&#45;&gt;Node44</title>
<path fill="none" stroke="midnightblue" d="M3249.16,-230.728C3354,-227.437 3588.83,-215.861 3782,-176 3795.4,-173.234 3809.99,-168.615 3821.64,-164.512"/>
<polygon fill="midnightblue" stroke="midnightblue" points="3249.01,-227.231 3239.12,-231.03 3249.22,-234.228 3249.01,-227.231"/>
</g>
<!-- Node45 -->
<g id="node45" class="node"><title>Node45</title>
<g id="a_node45"><a xlink:href="tagger_2Base_8cpp.html" target="_top" xlink:title="source/tagger/Base.cpp">
<polygon fill="white" stroke="black" points="81,-145.5 81,-164.5 201,-164.5 201,-145.5 81,-145.5"/>
<text text-anchor="middle" x="141" y="-152.5" font-family="Helvetica,sans-Serif" font-size="10.00">source/tagger/Base.cpp</text>
</a>
</g>
</g>
<!-- Node2&#45;&gt;Node45 -->
<g id="edge53" class="edge"><title>Node2&#45;&gt;Node45</title>
<path fill="none" stroke="midnightblue" d="M3138.7,-231.776C2756.59,-230.123 514.663,-218.651 215,-176 198.531,-173.656 180.502,-168.833 166.363,-164.51"/>
<polygon fill="midnightblue" stroke="midnightblue" points="3138.93,-235.277 3148.94,-231.82 3138.96,-228.277 3138.93,-235.277"/>
</g>
<!-- Node4 -->
<g id="node4" class="node"><title>Node4</title>
<g id="a_node4"><a xlink:href="PreCuts_8hh.html" target="_top" xlink:title="boca/PreCuts.hh">
<polygon fill="white" stroke="red" points="3341,-73 3341,-92 3431,-92 3431,-73 3341,-73"/>
<text text-anchor="middle" x="3386" y="-80" font-family="Helvetica,sans-Serif" font-size="10.00">boca/PreCuts.hh</text>
</a>
</g>
</g>
<!-- Node3&#45;&gt;Node4 -->
<g id="edge3" class="edge"><title>Node3&#45;&gt;Node4</title>
<path fill="none" stroke="midnightblue" d="M2180.93,-152.798C2404.44,-148.591 3107.58,-132.859 3332,-98 3340.82,-96.6292 3350.28,-94.371 3358.77,-92.0403"/>
<polygon fill="midnightblue" stroke="midnightblue" points="2180.59,-149.303 2170.66,-152.989 2180.72,-156.302 2180.59,-149.303"/>
</g>
<!-- Node8 -->
<g id="node8" class="node"><title>Node8</title>
<g id="a_node8"><a xlink:href="MomentumRange_8hh.html" target="_top" xlink:title="boca/MomentumRange.hh">
<polygon fill="white" stroke="red" points="598.5,-73 598.5,-92 729.5,-92 729.5,-73 598.5,-73"/>
<text text-anchor="middle" x="664" y="-80" font-family="Helvetica,sans-Serif" font-size="10.00">boca/MomentumRange.hh</text>
</a>
</g>
</g>
<!-- Node3&#45;&gt;Node8 -->
<g id="edge7" class="edge"><title>Node3&#45;&gt;Node8</title>
<path fill="none" stroke="midnightblue" d="M2043.3,-151.073C1950.78,-147.14 1780.97,-139.955 1636,-134 1237.35,-117.625 1135.33,-143.998 739,-98 727.012,-96.6087 714.07,-94.3743 702.367,-92.072"/>
<polygon fill="midnightblue" stroke="midnightblue" points="2043.24,-154.573 2053.38,-151.501 2043.54,-147.58 2043.24,-154.573"/>
</g>
<!-- Node11 -->
<g id="node11" class="node"><title>Node11</title>
<g id="a_node11"><a xlink:href="multiplets_2TwoBody_8hh.html" target="_top" xlink:title="boca/multiplets/TwoBody.hh">
<polygon fill="white" stroke="red" points="2042,-73 2042,-92 2182,-92 2182,-73 2042,-73"/>
<text text-anchor="middle" x="2112" y="-80" font-family="Helvetica,sans-Serif" font-size="10.00">boca/multiplets/TwoBody.hh</text>
</a>
</g>
</g>
<!-- Node3&#45;&gt;Node11 -->
<g id="edge10" class="edge"><title>Node3&#45;&gt;Node11</title>
<path fill="none" stroke="midnightblue" d="M2112,-134.942C2112,-121.03 2112,-102.82 2112,-92.2154"/>
<polygon fill="midnightblue" stroke="midnightblue" points="2108.5,-135.355 2112,-145.355 2115.5,-135.355 2108.5,-135.355"/>
</g>
<!-- Node12 -->
<g id="node12" class="node"><title>Node12</title>
<g id="a_node12"><a xlink:href="examples_2heavyhiggs_2source_2tagger_2Cut_8cpp.html" target="_top" xlink:title="examples/heavyhiggs\l/source/tagger/Cut.cpp">
<polygon fill="white" stroke="black" points="2200,-67.5 2200,-97.5 2316,-97.5 2316,-67.5 2200,-67.5"/>
<text text-anchor="start" x="2208" y="-85.5" font-family="Helvetica,sans-Serif" font-size="10.00">examples/heavyhiggs</text>
<text text-anchor="middle" x="2258" y="-74.5" font-family="Helvetica,sans-Serif" font-size="10.00">/source/tagger/Cut.cpp</text>
</a>
</g>
</g>
<!-- Node3&#45;&gt;Node12 -->
<g id="edge11" class="edge"><title>Node3&#45;&gt;Node12</title>
<path fill="none" stroke="midnightblue" d="M2138.72,-141.096C2164.28,-128.757 2202.71,-110.2 2228.99,-97.5059"/>
<polygon fill="midnightblue" stroke="midnightblue" points="2137.09,-137.996 2129.61,-145.496 2140.14,-144.299 2137.09,-137.996"/>
</g>
<!-- Node13 -->
<g id="node13" class="node"><title>Node13</title>
<g id="a_node13"><a xlink:href="tagger_2SignatureLeptonT_8cpp.html" target="_top" xlink:title="examples/higgscpv/source\l/tagger/SignatureLeptonT.cpp">
<polygon fill="white" stroke="black" points="2334.5,-67.5 2334.5,-97.5 2479.5,-97.5 2479.5,-67.5 2334.5,-67.5"/>
<text text-anchor="start" x="2342.5" y="-85.5" font-family="Helvetica,sans-Serif" font-size="10.00">examples/higgscpv/source</text>
<text text-anchor="middle" x="2407" y="-74.5" font-family="Helvetica,sans-Serif" font-size="10.00">/tagger/SignatureLeptonT.cpp</text>
</a>
</g>
</g>
<!-- Node3&#45;&gt;Node13 -->
<g id="edge12" class="edge"><title>Node3&#45;&gt;Node13</title>
<path fill="none" stroke="midnightblue" d="M2157.39,-143.153C2208.65,-130.901 2292.23,-110.927 2348.39,-97.5059"/>
<polygon fill="midnightblue" stroke="midnightblue" points="2156.5,-139.767 2147.58,-145.496 2158.12,-146.576 2156.5,-139.767"/>
</g>
<!-- Node14 -->
<g id="node14" class="node"><title>Node14</title>
<g id="a_node14"><a xlink:href="TopLeptonicPair_8cpp.html" target="_top" xlink:title="examples/higgscpv/source\l/tagger/TopLeptonicPair.cpp">
<polygon fill="white" stroke="black" points="2497.5,-67.5 2497.5,-97.5 2636.5,-97.5 2636.5,-67.5 2497.5,-67.5"/>
<text text-anchor="start" x="2505.5" y="-85.5" font-family="Helvetica,sans-Serif" font-size="10.00">examples/higgscpv/source</text>
<text text-anchor="middle" x="2567" y="-74.5" font-family="Helvetica,sans-Serif" font-size="10.00">/tagger/TopLeptonicPair.cpp</text>
</a>
</g>
</g>
<!-- Node3&#45;&gt;Node14 -->
<g id="edge13" class="edge"><title>Node3&#45;&gt;Node14</title>
<path fill="none" stroke="midnightblue" d="M2181.03,-144.429C2256.53,-133.796 2381.05,-115.774 2488,-98 2491.03,-97.4971 2494.12,-96.9735 2497.24,-96.4365"/>
<polygon fill="midnightblue" stroke="midnightblue" points="2180.13,-141.022 2170.71,-145.88 2181.1,-147.954 2180.13,-141.022"/>
</g>
<!-- Node15 -->
<g id="node15" class="node"><title>Node15</title>
<g id="a_node15"><a xlink:href="TruthVariables_8cpp.html" target="_top" xlink:title="examples/toppartner\l/source/TruthVariables.cpp">
<polygon fill="white" stroke="black" points="2655,-67.5 2655,-97.5 2789,-97.5 2789,-67.5 2655,-67.5"/>
<text text-anchor="start" x="2663" y="-85.5" font-family="Helvetica,sans-Serif" font-size="10.00">examples/toppartner</text>
<text text-anchor="middle" x="2722" y="-74.5" font-family="Helvetica,sans-Serif" font-size="10.00">/source/TruthVariables.cpp</text>
</a>
</g>
</g>
<!-- Node3&#45;&gt;Node15 -->
<g id="edge14" class="edge"><title>Node3&#45;&gt;Node15</title>
<path fill="none" stroke="midnightblue" d="M2180.7,-148.583C2282.43,-140.155 2479,-122.308 2645,-98 2648.23,-97.527 2651.53,-97.0152 2654.86,-96.4761"/>
<polygon fill="midnightblue" stroke="midnightblue" points="2180.24,-145.109 2170.56,-149.418 2180.81,-152.086 2180.24,-145.109"/>
</g>
<!-- Node16 -->
<g id="node16" class="node"><title>Node16</title>
<g id="a_node16"><a xlink:href="examples_2tthh_2source_2Observables_8cpp.html" target="_top" xlink:title="examples/tthh/source\l/Observables.cpp">
<polygon fill="white" stroke="black" points="2807,-67.5 2807,-97.5 2917,-97.5 2917,-67.5 2807,-67.5"/>
<text text-anchor="start" x="2815" y="-85.5" font-family="Helvetica,sans-Serif" font-size="10.00">examples/tthh/source</text>
<text text-anchor="middle" x="2862" y="-74.5" font-family="Helvetica,sans-Serif" font-size="10.00">/Observables.cpp</text>
</a>
</g>
</g>
<!-- Node3&#45;&gt;Node16 -->
<g id="edge15" class="edge"><title>Node3&#45;&gt;Node16</title>
<path fill="none" stroke="midnightblue" d="M2180.7,-151.606C2304.66,-146.574 2573.69,-132.389 2798,-98 2800.93,-97.5511 2803.92,-97.0439 2806.94,-96.4947"/>
<polygon fill="midnightblue" stroke="midnightblue" points="2180.45,-148.113 2170.6,-152.009 2180.73,-155.108 2180.45,-148.113"/>
</g>
<!-- Node17 -->
<g id="node17" class="node"><title>Node17</title>
<g id="a_node17"><a xlink:href="Colors_8cpp.html" target="_top" xlink:title="source/Colors.cpp">
<polygon fill="white" stroke="black" points="2935,-73 2935,-92 3031,-92 3031,-73 2935,-73"/>
<text text-anchor="middle" x="2983" y="-80" font-family="Helvetica,sans-Serif" font-size="10.00">source/Colors.cpp</text>
</a>
</g>
</g>
<!-- Node3&#45;&gt;Node17 -->
<g id="edge16" class="edge"><title>Node3&#45;&gt;Node17</title>
<path fill="none" stroke="midnightblue" d="M2180.86,-153.441C2321.68,-151.38 2652.41,-141.842 2926,-98 2935.07,-96.5459 2944.81,-94.3221 2953.63,-92.0495"/>
<polygon fill="midnightblue" stroke="midnightblue" points="2180.6,-149.944 2170.65,-153.582 2180.69,-156.943 2180.6,-149.944"/>
</g>
<!-- Node18 -->
<g id="node18" class="node"><title>Node18</title>
<g id="a_node18"><a xlink:href="source_2delphes_2Event_8cpp.html" target="_top" xlink:title="source/delphes/Event.cpp">
<polygon fill="white" stroke="black" points="3049,-73 3049,-92 3179,-92 3179,-73 3049,-73"/>
<text text-anchor="middle" x="3114" y="-80" font-family="Helvetica,sans-Serif" font-size="10.00">source/delphes/Event.cpp</text>
</a>
</g>
</g>
<!-- Node3&#45;&gt;Node18 -->
<g id="edge17" class="edge"><title>Node3&#45;&gt;Node18</title>
<path fill="none" stroke="midnightblue" d="M2180.89,-152.977C2335.28,-150 2720.52,-138.755 3040,-98 3051.69,-96.509 3064.3,-94.2742 3075.75,-92.0029"/>
<polygon fill="midnightblue" stroke="midnightblue" points="2180.55,-149.483 2170.61,-153.169 2180.68,-156.481 2180.55,-149.483"/>
</g>
<!-- Node3&#45;&gt;Node19 -->
<g id="edge18" class="edge"><title>Node3&#45;&gt;Node19</title>
<path fill="none" stroke="midnightblue" d="M2042.93,-153.766C1767.75,-152.512 748.954,-144.747 430,-98 420.913,-96.6683 411.17,-94.3905 402.447,-92.0298"/>
<polygon fill="midnightblue" stroke="midnightblue" points="2043.16,-157.267 2053.18,-153.811 2043.19,-150.267 2043.16,-157.267"/>
</g>
<!-- Node20 -->
<g id="node20" class="node"><title>Node20</title>
<g id="a_node20"><a xlink:href="EventShapes_8cpp.html" target="_top" xlink:title="source/EventShapes.cpp">
<polygon fill="white" stroke="black" points="3197,-73 3197,-92 3323,-92 3323,-73 3197,-73"/>
<text text-anchor="middle" x="3260" y="-80" font-family="Helvetica,sans-Serif" font-size="10.00">source/EventShapes.cpp</text>
</a>
</g>
</g>
<!-- Node3&#45;&gt;Node20 -->
<g id="edge19" class="edge"><title>Node3&#45;&gt;Node20</title>
<path fill="none" stroke="midnightblue" d="M2180.7,-153.911C2351.66,-152.933 2809.7,-145.675 3188,-98 3199.39,-96.5651 3211.66,-94.347 3222.8,-92.0737"/>
<polygon fill="midnightblue" stroke="midnightblue" points="2180.57,-150.411 2170.58,-153.963 2180.6,-157.411 2180.57,-150.411"/>
</g>
<!-- Node3&#45;&gt;Node21 -->
<g id="edge20" class="edge"><title>Node3&#45;&gt;Node21</title>
<path fill="none" stroke="midnightblue" d="M2043.31,-150.949C1950.79,-146.878 1780.99,-139.539 1636,-134 1170.73,-116.227 1051.9,-148.164 589,-98 586.227,-97.6995 583.406,-97.3575 580.56,-96.9823"/>
<polygon fill="midnightblue" stroke="midnightblue" points="2043.24,-154.449 2053.38,-151.393 2043.55,-147.456 2043.24,-154.449"/>
</g>
<!-- Node22 -->
<g id="node22" class="node"><title>Node22</title>
<g id="a_node22"><a xlink:href="FileInfo_8cpp.html" target="_top" xlink:title="source/FileInfo.cpp">
<polygon fill="white" stroke="black" points="748,-73 748,-92 848,-92 848,-73 748,-73"/>
<text text-anchor="middle" x="798" y="-80" font-family="Helvetica,sans-Serif" font-size="10.00">source/FileInfo.cpp</text>
</a>
</g>
</g>
<!-- Node3&#45;&gt;Node22 -->
<g id="edge21" class="edge"><title>Node3&#45;&gt;Node22</title>
<path fill="none" stroke="midnightblue" d="M2043.09,-151.108C1784.71,-140.241 886.56,-102.25 857,-98 847.395,-96.6191 837.073,-94.358 827.791,-92.0277"/>
<polygon fill="midnightblue" stroke="midnightblue" points="2043.33,-154.621 2053.47,-151.544 2043.62,-147.627 2043.33,-154.621"/>
</g>
<!-- Node23 -->
<g id="node23" class="node"><title>Node23</title>
<g id="a_node23"><a xlink:href="ClosestLepton_8cpp.html" target="_top" xlink:title="source/multiplets/Closest\lLepton.cpp">
<polygon fill="white" stroke="black" points="866,-67.5 866,-97.5 994,-97.5 994,-67.5 866,-67.5"/>
<text text-anchor="start" x="874" y="-85.5" font-family="Helvetica,sans-Serif" font-size="10.00">source/multiplets/Closest</text>
<text text-anchor="middle" x="930" y="-74.5" font-family="Helvetica,sans-Serif" font-size="10.00">Lepton.cpp</text>
</a>
</g>
</g>
<!-- Node3&#45;&gt;Node23 -->
<g id="edge22" class="edge"><title>Node3&#45;&gt;Node23</title>
<path fill="none" stroke="midnightblue" d="M2043.13,-151.108C1816.99,-141.529 1105.75,-110.73 1003,-98 1000.05,-97.6346 997.042,-97.2178 994.009,-96.7618"/>
<polygon fill="midnightblue" stroke="midnightblue" points="2043.07,-154.608 2053.21,-151.534 2043.37,-147.614 2043.07,-154.608"/>
</g>
<!-- Node24 -->
<g id="node24" class="node"><title>Node24</title>
<g id="a_node24"><a xlink:href="source_2multiplets_2Global_8cpp.html" target="_top" xlink:title="source/multiplets/Global.cpp">
<polygon fill="white" stroke="black" points="1012,-73 1012,-92 1152,-92 1152,-73 1012,-73"/>
<text text-anchor="middle" x="1082" y="-80" font-family="Helvetica,sans-Serif" font-size="10.00">source/multiplets/Global.cpp</text>
</a>
</g>
</g>
<!-- Node3&#45;&gt;Node24 -->
<g id="edge23" class="edge"><title>Node3&#45;&gt;Node24</title>
<path fill="none" stroke="midnightblue" d="M2043.38,-151.056C1854.93,-142.798 1332.11,-118.662 1161,-98 1148.68,-96.5122 1135.38,-94.3064 1123.26,-92.0615"/>
<polygon fill="midnightblue" stroke="midnightblue" points="2043.29,-154.556 2053.44,-151.496 2043.6,-147.563 2043.29,-154.556"/>
</g>
<!-- Node25 -->
<g id="node25" class="node"><title>Node25</title>
<g id="a_node25"><a xlink:href="Jet_8cpp.html" target="_top" xlink:title="source/multiplets/Jet.cpp">
<polygon fill="white" stroke="black" points="1170,-73 1170,-92 1296,-92 1296,-73 1170,-73"/>
<text text-anchor="middle" x="1233" y="-80" font-family="Helvetica,sans-Serif" font-size="10.00">source/multiplets/Jet.cpp</text>
</a>
</g>
</g>
<!-- Node3&#45;&gt;Node25 -->
<g id="edge24" class="edge"><title>Node3&#45;&gt;Node25</title>
<path fill="none" stroke="midnightblue" d="M2042.86,-152.217C1902.97,-147.945 1576.57,-134.611 1305,-98 1293.75,-96.4838 1281.62,-94.2693 1270.59,-92.0253"/>
<polygon fill="midnightblue" stroke="midnightblue" points="2042.91,-155.72 2053.01,-152.521 2043.12,-148.723 2042.91,-155.72"/>
</g>
<!-- Node26 -->
<g id="node26" class="node"><title>Node26</title>
<g id="a_node26"><a xlink:href="JetInfo_8cpp.html" target="_top" xlink:title="source/multiplets/JetInfo.cpp">
<polygon fill="white" stroke="black" points="1314.5,-73 1314.5,-92 1457.5,-92 1457.5,-73 1314.5,-73"/>
<text text-anchor="middle" x="1386" y="-80" font-family="Helvetica,sans-Serif" font-size="10.00">source/multiplets/JetInfo.cpp</text>
</a>
</g>
</g>
<!-- Node3&#45;&gt;Node26 -->
<g id="edge25" class="edge"><title>Node3&#45;&gt;Node26</title>
<path fill="none" stroke="midnightblue" d="M2043.11,-150.073C1924.9,-142.877 1675.96,-125.716 1467,-98 1454.82,-96.3845 1441.68,-94.2181 1429.61,-92.0531"/>
<polygon fill="midnightblue" stroke="midnightblue" points="2042.92,-153.568 2053.11,-150.677 2043.34,-146.581 2042.92,-153.568"/>
</g>
<!-- Node27 -->
<g id="node27" class="node"><title>Node27</title>
<g id="a_node27"><a xlink:href="multiplets_2Particle_8cpp.html" target="_top" xlink:title="source/multiplets/Particle.cpp">
<polygon fill="white" stroke="black" points="1476,-73 1476,-92 1622,-92 1622,-73 1476,-73"/>
<text text-anchor="middle" x="1549" y="-80" font-family="Helvetica,sans-Serif" font-size="10.00">source/multiplets/Particle.cpp</text>
</a>
</g>
</g>
<!-- Node3&#45;&gt;Node27 -->
<g id="edge26" class="edge"><title>Node3&#45;&gt;Node27</title>
<path fill="none" stroke="midnightblue" d="M2043.18,-147.28C1949.66,-137.854 1777.32,-119.436 1631,-98 1619.13,-96.2607 1606.33,-94.125 1594.46,-92.0328"/>
<polygon fill="midnightblue" stroke="midnightblue" points="2043.06,-150.785 2053.36,-148.302 2043.76,-143.82 2043.06,-150.785"/>
</g>
<!-- Node3&#45;&gt;Node28 -->
<g id="edge27" class="edge"><title>Node3&#45;&gt;Node28</title>
<path fill="none" stroke="midnightblue" d="M2180.86,-152.326C2416.89,-146.397 3192.23,-125.275 3440,-98 3452.92,-96.5775 3466.89,-94.3341 3479.53,-92.0332"/>
<polygon fill="midnightblue" stroke="midnightblue" points="2180.61,-148.831 2170.7,-152.58 2180.78,-155.829 2180.61,-148.831"/>
</g>
<!-- Node29 -->
<g id="node29" class="node"><title>Node29</title>
<g id="a_node29"><a xlink:href="Trainer_8cpp.html" target="_top" xlink:title="source/multivariant\l/Trainer.cpp">
<polygon fill="white" stroke="black" points="1640.5,-67.5 1640.5,-97.5 1739.5,-97.5 1739.5,-67.5 1640.5,-67.5"/>
<text text-anchor="start" x="1648.5" y="-85.5" font-family="Helvetica,sans-Serif" font-size="10.00">source/multivariant</text>
<text text-anchor="middle" x="1690" y="-74.5" font-family="Helvetica,sans-Serif" font-size="10.00">/Trainer.cpp</text>
</a>
</g>
</g>
<!-- Node3&#45;&gt;Node29 -->
<g id="edge28" class="edge"><title>Node3&#45;&gt;Node29</title>
<path fill="none" stroke="midnightblue" d="M2043.23,-145.225C1969.99,-135.452 1850.83,-118.327 1749,-98 1745.9,-97.3806 1742.71,-96.7072 1739.5,-96.001"/>
<polygon fill="midnightblue" stroke="midnightblue" points="2042.88,-148.709 2053.25,-146.555 2043.8,-141.77 2042.88,-148.709"/>
</g>
<!-- Node30 -->
<g id="node30" class="node"><title>Node30</title>
<g id="a_node30"><a xlink:href="source_2Observables_8cpp.html" target="_top" xlink:title="source/Observables.cpp">
<polygon fill="white" stroke="black" points="1758,-73 1758,-92 1880,-92 1880,-73 1758,-73"/>
<text text-anchor="middle" x="1819" y="-80" font-family="Helvetica,sans-Serif" font-size="10.00">source/Observables.cpp</text>
</a>
</g>
</g>
<!-- Node3&#45;&gt;Node30 -->
<g id="edge29" class="edge"><title>Node3&#45;&gt;Node30</title>
<path fill="none" stroke="midnightblue" d="M2066.6,-143.075C2008.11,-129.003 1907.67,-104.835 1854.47,-92.0341"/>
<polygon fill="midnightblue" stroke="midnightblue" points="2066.12,-146.559 2076.66,-145.496 2067.75,-139.754 2066.12,-146.559"/>
</g>
<!-- Node31 -->
<g id="node31" class="node"><title>Node31</title>
<g id="a_node31"><a xlink:href="Barn_8cpp.html" target="_top" xlink:title="source/physics/Barn.cpp">
<polygon fill="white" stroke="black" points="1898.5,-73 1898.5,-92 2023.5,-92 2023.5,-73 1898.5,-73"/>
<text text-anchor="middle" x="1961" y="-80" font-family="Helvetica,sans-Serif" font-size="10.00">source/physics/Barn.cpp</text>
</a>
</g>
</g>
<!-- Node3&#45;&gt;Node31 -->
<g id="edge30" class="edge"><title>Node3&#45;&gt;Node31</title>
<path fill="none" stroke="midnightblue" d="M2084.55,-141.184C2054,-126.922 2005.5,-104.278 1979.28,-92.0341"/>
<polygon fill="midnightblue" stroke="midnightblue" points="2083.24,-144.437 2093.79,-145.496 2086.21,-138.094 2083.24,-144.437"/>
</g>
<!-- Node3&#45;&gt;Node32 -->
<g id="edge31" class="edge"><title>Node3&#45;&gt;Node32</title>
<path fill="none" stroke="midnightblue" d="M2043.14,-153.471C1744.16,-150.946 556.954,-138.518 186,-98 183.062,-97.6791 180.068,-97.3063 177.049,-96.8929"/>
<polygon fill="midnightblue" stroke="midnightblue" points="2043.37,-156.973 2053.4,-153.556 2043.43,-149.973 2043.37,-156.973"/>
</g>
<!-- Node3&#45;&gt;Node33 -->
<g id="edge32" class="edge"><title>Node3&#45;&gt;Node33</title>
<path fill="none" stroke="midnightblue" d="M2043.22,-153.554C1757.33,-151.435 661.87,-140.645 319,-98 316.439,-97.6814 313.83,-97.3106 311.202,-96.8987"/>
<polygon fill="midnightblue" stroke="midnightblue" points="2043.42,-157.055 2053.45,-153.628 2043.47,-150.055 2043.42,-157.055"/>
</g>
<!-- Node3&#45;&gt;Node34 -->
<g id="edge33" class="edge"><title>Node3&#45;&gt;Node34</title>
<path fill="none" stroke="midnightblue" d="M2180.95,-152.812C2435.25,-148.212 3320.42,-130.206 3601,-98 3613.12,-96.6087 3626.22,-94.3447 3638.02,-92.0149"/>
<polygon fill="midnightblue" stroke="midnightblue" points="2180.67,-149.316 2170.74,-152.996 2180.8,-156.315 2180.67,-149.316"/>
</g>
<!-- Node3&#45;&gt;Node35 -->
<g id="edge34" class="edge"><title>Node3&#45;&gt;Node35</title>
<path fill="none" stroke="midnightblue" d="M2181.21,-152.246C2472.71,-144.776 3592.75,-115.206 3750,-98 3762.6,-96.6217 3776.21,-94.3613 3788.49,-92.031"/>
<polygon fill="midnightblue" stroke="midnightblue" points="2180.69,-148.758 2170.78,-152.513 2180.87,-155.756 2180.69,-148.758"/>
</g>
<!-- Node3&#45;&gt;Node36 -->
<g id="edge35" class="edge"><title>Node3&#45;&gt;Node36</title>
<path fill="none" stroke="midnightblue" d="M2181.18,-152.765C2467.49,-147.509 3560.82,-125.989 3905,-98 3922.47,-96.5792 3941.42,-94.3363 3958.59,-92.0353"/>
<polygon fill="midnightblue" stroke="midnightblue" points="2180.87,-149.27 2170.93,-152.952 2181,-156.268 2180.87,-149.27"/>
</g>
<!-- Node4&#45;&gt;Node5 -->
<g id="edge4" class="edge"><title>Node4&#45;&gt;Node5</title>
<path fill="none" stroke="midnightblue" d="M3412.52,-68.3419C3434.57,-57.4 3465.89,-41.8604 3488.48,-30.6516"/>
<polygon fill="midnightblue" stroke="midnightblue" points="3410.8,-65.2884 3403.4,-72.8685 3413.91,-71.559 3410.8,-65.2884"/>
</g>
<!-- Node4&#45;&gt;Node6 -->
<g id="edge5" class="edge"><title>Node4&#45;&gt;Node6</title>
<path fill="none" stroke="midnightblue" d="M3424.1,-70.4167C3429.41,-69.1227 3434.82,-67.9338 3440,-67 3594.65,-39.1281 3777.45,-26.0582 3884.09,-20.3868"/>
<polygon fill="midnightblue" stroke="midnightblue" points="3422.91,-67.1086 3414.1,-72.9953 3424.66,-73.8868 3422.91,-67.1086"/>
</g>
<!-- Node4&#45;&gt;Node7 -->
<g id="edge6" class="edge"><title>Node4&#45;&gt;Node7</title>
<path fill="none" stroke="midnightblue" d="M3349.09,-70.4169C3343.41,-69.0532 3337.58,-67.8446 3332,-67 3080.64,-28.9443 2275.43,-18.9424 2062.22,-16.933"/>
<polygon fill="midnightblue" stroke="midnightblue" points="3348.5,-73.8803 3359.06,-72.994 3350.25,-67.103 3348.5,-73.8803"/>
</g>
<!-- Node8&#45;&gt;Node9 -->
<g id="edge8" class="edge"><title>Node8&#45;&gt;Node9</title>
<path fill="none" stroke="midnightblue" d="M613.737,-71.119C605.493,-69.6075 597.024,-68.1695 589,-67 436.388,-44.7551 256.677,-29.5132 156.188,-21.9681"/>
<polygon fill="midnightblue" stroke="midnightblue" points="613.161,-74.5719 623.636,-72.986 614.458,-67.6932 613.161,-74.5719"/>
</g>
<!-- Node8&#45;&gt;Node10 -->
<g id="edge9" class="edge"><title>Node8&#45;&gt;Node10</title>
<path fill="none" stroke="midnightblue" d="M617.57,-70.644C562.795,-57.8371 472.861,-36.8091 422.711,-25.0834"/>
<polygon fill="midnightblue" stroke="midnightblue" points="616.836,-74.0668 627.37,-72.9355 618.43,-67.2507 616.836,-74.0668"/>
</g>
</g>
</svg>
