<?xml version="1.0" encoding="UTF-8" standalone="no"?>
<!DOCTYPE svg PUBLIC "-//W3C//DTD SVG 1.1//EN"
 "http://www.w3.org/Graphics/SVG/1.1/DTD/svg11.dtd">
<!-- Generated by graphviz version 2.38.0 (20140413.2041)
 -->
<!-- Title: boca/multiplets/GlobalObservables.hh Pages: 1 -->
<svg width="1421pt" height="845pt"
 viewBox="0.00 0.00 1420.69 845.00" xmlns="http://www.w3.org/2000/svg" xmlns:xlink="http://www.w3.org/1999/xlink">
<g id="graph0" class="graph" transform="scale(1 1) rotate(0) translate(4 841)">
<title>boca/multiplets/GlobalObservables.hh</title>
<polygon fill="white" stroke="none" points="-4,4 -4,-841 1416.69,-841 1416.69,4 -4,4"/>
<!-- Node1 -->
<g id="node1" class="node"><title>Node1</title>
<polygon fill="#bfbfbf" stroke="black" points="171.193,-817.5 171.193,-836.5 353.193,-836.5 353.193,-817.5 171.193,-817.5"/>
<text text-anchor="middle" x="262.193" y="-824.5" font-family="Helvetica,sans-Serif" font-size="10.00">boca/multiplets/GlobalObservables.hh</text>
</g>
<!-- Node2 -->
<g id="node2" class="node"><title>Node2</title>
<g id="a_node2"><a xlink:href="Singlet_8hh.html" target="_top" xlink:title="boca/multiplets/Singlet.hh">
<polygon fill="white" stroke="black" points="197.693,-761.5 197.693,-780.5 326.693,-780.5 326.693,-761.5 197.693,-761.5"/>
<text text-anchor="middle" x="262.193" y="-768.5" font-family="Helvetica,sans-Serif" font-size="10.00">boca/multiplets/Singlet.hh</text>
</a>
</g>
</g>
<!-- Node1&#45;&gt;Node2 -->
<g id="edge1" class="edge"><title>Node1&#45;&gt;Node2</title>
<path fill="none" stroke="midnightblue" d="M262.193,-817.083C262.193,-810.006 262.193,-799.861 262.193,-790.986"/>
<polygon fill="midnightblue" stroke="midnightblue" points="265.693,-790.751 262.193,-780.751 258.693,-790.751 265.693,-790.751"/>
</g>
<!-- Node3 -->
<g id="node3" class="node"><title>Node3</title>
<g id="a_node3"><a xlink:href="Mutable_8hh.html" target="_top" xlink:title="boca/generic/Mutable.hh">
<polygon fill="white" stroke="black" points="110.693,-705.5 110.693,-724.5 233.693,-724.5 233.693,-705.5 110.693,-705.5"/>
<text text-anchor="middle" x="172.193" y="-712.5" font-family="Helvetica,sans-Serif" font-size="10.00">boca/generic/Mutable.hh</text>
</a>
</g>
</g>
<!-- Node2&#45;&gt;Node3 -->
<g id="edge2" class="edge"><title>Node2&#45;&gt;Node3</title>
<path fill="none" stroke="midnightblue" d="M247.733,-761.324C233.693,-752.9 212.144,-739.971 195.65,-730.074"/>
<polygon fill="midnightblue" stroke="midnightblue" points="196.993,-726.798 186.617,-724.655 193.391,-732.801 196.993,-726.798"/>
</g>
<!-- Node12 -->
<g id="node12" class="node"><title>Node12</title>
<g id="a_node12"><a xlink:href="Line2_8hh.html" target="_top" xlink:title="boca/math/Line2.hh">
<polygon fill="white" stroke="black" points="208.193,-649.5 208.193,-668.5 310.193,-668.5 310.193,-649.5 208.193,-649.5"/>
<text text-anchor="middle" x="259.193" y="-656.5" font-family="Helvetica,sans-Serif" font-size="10.00">boca/math/Line2.hh</text>
</a>
</g>
</g>
<!-- Node2&#45;&gt;Node12 -->
<g id="edge11" class="edge"><title>Node2&#45;&gt;Node12</title>
<path fill="none" stroke="midnightblue" d="M261.958,-761.368C261.473,-743.617 260.357,-702.666 259.7,-678.597"/>
<polygon fill="midnightblue" stroke="midnightblue" points="263.199,-678.492 259.427,-668.591 256.201,-678.683 263.199,-678.492"/>
</g>
<!-- Node34 -->
<g id="node34" class="node"><title>Node34</title>
<g id="a_node34"><a xlink:href="Jet_8hh.html" target="_top" xlink:title="boca/multiplets/Jet.hh">
<polygon fill="white" stroke="black" points="366.693,-705.5 366.693,-724.5 479.693,-724.5 479.693,-705.5 366.693,-705.5"/>
<text text-anchor="middle" x="423.193" y="-712.5" font-family="Helvetica,sans-Serif" font-size="10.00">boca/multiplets/Jet.hh</text>
</a>
</g>
</g>
<!-- Node2&#45;&gt;Node34 -->
<g id="edge38" class="edge"><title>Node2&#45;&gt;Node34</title>
<path fill="none" stroke="midnightblue" d="M287.704,-761.444C314.789,-752.359 357.783,-737.939 388.062,-727.783"/>
<polygon fill="midnightblue" stroke="midnightblue" points="389.433,-731.015 397.801,-724.516 387.207,-724.378 389.433,-731.015"/>
</g>
<!-- Node4 -->
<g id="node4" class="node"><title>Node4</title>
<polygon fill="white" stroke="#bfbfbf" points="87.6929,-649.5 87.6929,-668.5 146.693,-668.5 146.693,-649.5 87.6929,-649.5"/>
<text text-anchor="middle" x="117.193" y="-656.5" font-family="Helvetica,sans-Serif" font-size="10.00">functional</text>
</g>
<!-- Node3&#45;&gt;Node4 -->
<g id="edge3" class="edge"><title>Node3&#45;&gt;Node4</title>
<path fill="none" stroke="midnightblue" d="M163.111,-705.083C155.022,-697.141 142.998,-685.335 133.283,-675.797"/>
<polygon fill="midnightblue" stroke="midnightblue" points="135.694,-673.26 126.106,-668.751 130.79,-678.254 135.694,-673.26"/>
</g>
<!-- Node5 -->
<g id="node5" class="node"><title>Node5</title>
<g id="a_node5"><a xlink:href="Debug_8hh.html" target="_top" xlink:title="boca/generic/Debug.hh">
<polygon fill="white" stroke="black" points="116.693,-201.5 116.693,-220.5 233.693,-220.5 233.693,-201.5 116.693,-201.5"/>
<text text-anchor="middle" x="175.193" y="-208.5" font-family="Helvetica,sans-Serif" font-size="10.00">boca/generic/Debug.hh</text>
</a>
</g>
</g>
<!-- Node3&#45;&gt;Node5 -->
<g id="edge4" class="edge"><title>Node3&#45;&gt;Node5</title>
<path fill="none" stroke="midnightblue" d="M172.585,-705.444C173.398,-686.943 175.193,-641.827 175.193,-604 175.193,-604 175.193,-604 175.193,-322 175.193,-289.948 175.193,-252.643 175.193,-230.749"/>
<polygon fill="midnightblue" stroke="midnightblue" points="178.693,-230.558 175.193,-220.558 171.693,-230.558 178.693,-230.558"/>
</g>
<!-- Node6 -->
<g id="node6" class="node"><title>Node6</title>
<polygon fill="white" stroke="#bfbfbf" points="350.693,-140 350.693,-159 391.693,-159 391.693,-140 350.693,-140"/>
<text text-anchor="middle" x="371.193" y="-147" font-family="Helvetica,sans-Serif" font-size="10.00">string</text>
</g>
<!-- Node5&#45;&gt;Node6 -->
<g id="edge5" class="edge"><title>Node5&#45;&gt;Node6</title>
<path fill="none" stroke="midnightblue" d="M214.746,-201.461C248.791,-193.598 298.955,-180.777 341.193,-165 342.615,-164.469 344.062,-163.894 345.512,-163.29"/>
<polygon fill="midnightblue" stroke="midnightblue" points="347.254,-166.344 354.928,-159.038 344.373,-159.964 347.254,-166.344"/>
</g>
<!-- Node7 -->
<g id="node7" class="node"><title>Node7</title>
<polygon fill="white" stroke="#bfbfbf" points="314.193,-6 314.193,-25 358.193,-25 358.193,-6 314.193,-6"/>
<text text-anchor="middle" x="336.193" y="-13" font-family="Helvetica,sans-Serif" font-size="10.00">vector</text>
</g>
<!-- Node5&#45;&gt;Node7 -->
<g id="edge6" class="edge"><title>Node5&#45;&gt;Node7</title>
<path fill="none" stroke="midnightblue" d="M116.69,-204.603C56.7897,-196.613 -23.5107,-177.569 7.19294,-134 76.3399,-35.8802 235.208,-19.2453 303.743,-16.748"/>
<polygon fill="midnightblue" stroke="midnightblue" points="304.043,-20.241 313.94,-16.4583 303.844,-13.2439 304.043,-20.241"/>
</g>
<!-- Node8 -->
<g id="node8" class="node"><title>Node8</title>
<polygon fill="white" stroke="#bfbfbf" points="140.193,-140 140.193,-159 192.193,-159 192.193,-140 140.193,-140"/>
<text text-anchor="middle" x="166.193" y="-147" font-family="Helvetica,sans-Serif" font-size="10.00">sstream</text>
</g>
<!-- Node5&#45;&gt;Node8 -->
<g id="edge7" class="edge"><title>Node5&#45;&gt;Node8</title>
<path fill="none" stroke="midnightblue" d="M173.903,-201.475C172.634,-193.08 170.652,-179.981 169.016,-169.163"/>
<polygon fill="midnightblue" stroke="midnightblue" points="172.436,-168.373 167.48,-159.009 165.515,-169.42 172.436,-168.373"/>
</g>
<!-- Node9 -->
<g id="node9" class="node"><title>Node9</title>
<polygon fill="white" stroke="#bfbfbf" points="210.193,-140 210.193,-159 260.193,-159 260.193,-140 210.193,-140"/>
<text text-anchor="middle" x="235.193" y="-147" font-family="Helvetica,sans-Serif" font-size="10.00">iomanip</text>
</g>
<!-- Node5&#45;&gt;Node9 -->
<g id="edge8" class="edge"><title>Node5&#45;&gt;Node9</title>
<path fill="none" stroke="midnightblue" d="M183.789,-201.475C193.057,-192.285 208.01,-177.456 219.405,-166.156"/>
<polygon fill="midnightblue" stroke="midnightblue" points="221.976,-168.536 226.612,-159.009 217.047,-163.565 221.976,-168.536"/>
</g>
<!-- Node10 -->
<g id="node10" class="node"><title>Node10</title>
<polygon fill="white" stroke="#bfbfbf" points="278.193,-140 278.193,-159 332.193,-159 332.193,-140 278.193,-140"/>
<text text-anchor="middle" x="305.193" y="-147" font-family="Helvetica,sans-Serif" font-size="10.00">iostream</text>
</g>
<!-- Node5&#45;&gt;Node10 -->
<g id="edge9" class="edge"><title>Node5&#45;&gt;Node10</title>
<path fill="none" stroke="midnightblue" d="M193.819,-201.475C215.636,-191.49 251.996,-174.848 277.21,-163.307"/>
<polygon fill="midnightblue" stroke="midnightblue" points="278.965,-166.353 286.602,-159.009 276.052,-159.988 278.965,-166.353"/>
</g>
<!-- Node11 -->
<g id="node11" class="node"><title>Node11</title>
<polygon fill="white" stroke="#bfbfbf" points="16.6929,-134.5 16.6929,-164.5 121.693,-164.5 121.693,-134.5 16.6929,-134.5"/>
<text text-anchor="start" x="24.6929" y="-152.5" font-family="Helvetica,sans-Serif" font-size="10.00">boost/units/systems</text>
<text text-anchor="middle" x="69.1929" y="-141.5" font-family="Helvetica,sans-Serif" font-size="10.00">/si/io.hpp</text>
</g>
<!-- Node5&#45;&gt;Node11 -->
<g id="edge10" class="edge"><title>Node5&#45;&gt;Node11</title>
<path fill="none" stroke="midnightblue" d="M160.006,-201.475C145.18,-193.153 122.117,-180.207 102.944,-169.445"/>
<polygon fill="midnightblue" stroke="midnightblue" points="104.608,-166.366 94.175,-164.523 101.182,-172.47 104.608,-166.366"/>
</g>
<!-- Node13 -->
<g id="node13" class="node"><title>Node13</title>
<g id="a_node13"><a xlink:href="Vector2_8hh.html" target="_top" xlink:title="boca/math/Vector2.hh">
<polygon fill="white" stroke="black" points="279.693,-257.5 279.693,-276.5 392.693,-276.5 392.693,-257.5 279.693,-257.5"/>
<text text-anchor="middle" x="336.193" y="-264.5" font-family="Helvetica,sans-Serif" font-size="10.00">boca/math/Vector2.hh</text>
</a>
</g>
</g>
<!-- Node12&#45;&gt;Node13 -->
<g id="edge12" class="edge"><title>Node12&#45;&gt;Node13</title>
<path fill="none" stroke="midnightblue" d="M258.147,-649.458C255.979,-630.982 251.193,-585.912 251.193,-548 251.193,-548 251.193,-548 251.193,-378 251.193,-347.902 252.5,-337.349 270.193,-313 279.93,-299.6 294.947,-288.909 308.199,-281.315"/>
<polygon fill="midnightblue" stroke="midnightblue" points="309.87,-284.39 317.004,-276.557 306.543,-278.232 309.87,-284.39"/>
</g>
<!-- Node13&#45;&gt;Node5 -->
<g id="edge14" class="edge"><title>Node13&#45;&gt;Node5</title>
<path fill="none" stroke="midnightblue" d="M310.682,-257.444C283.597,-248.359 240.603,-233.939 210.324,-223.783"/>
<polygon fill="midnightblue" stroke="midnightblue" points="211.178,-220.378 200.585,-220.516 208.952,-227.015 211.178,-220.378"/>
</g>
<!-- Node14 -->
<g id="node14" class="node"><title>Node14</title>
<polygon fill="white" stroke="#bfbfbf" points="559.693,-201.5 559.693,-220.5 662.693,-220.5 662.693,-201.5 559.693,-201.5"/>
<text text-anchor="middle" x="611.193" y="-208.5" font-family="Helvetica,sans-Serif" font-size="10.00">boost/operators.hpp</text>
</g>
<!-- Node13&#45;&gt;Node14 -->
<g id="edge13" class="edge"><title>Node13&#45;&gt;Node14</title>
<path fill="none" stroke="midnightblue" d="M379.768,-257.444C428.042,-247.964 505.905,-232.675 557.805,-222.483"/>
<polygon fill="midnightblue" stroke="midnightblue" points="558.684,-225.878 567.822,-220.516 557.335,-219.009 558.684,-225.878"/>
</g>
<!-- Node15 -->
<g id="node15" class="node"><title>Node15</title>
<g id="a_node15"><a xlink:href="Iterator_8hh.html" target="_top" xlink:title="boca/generic/Iterator.hh">
<polygon fill="white" stroke="black" points="422.693,-201.5 422.693,-220.5 541.693,-220.5 541.693,-201.5 422.693,-201.5"/>
<text text-anchor="middle" x="482.193" y="-208.5" font-family="Helvetica,sans-Serif" font-size="10.00">boca/generic/Iterator.hh</text>
</a>
</g>
</g>
<!-- Node13&#45;&gt;Node15 -->
<g id="edge15" class="edge"><title>Node13&#45;&gt;Node15</title>
<path fill="none" stroke="midnightblue" d="M359.327,-257.444C383.675,-248.438 422.2,-234.189 449.616,-224.049"/>
<polygon fill="midnightblue" stroke="midnightblue" points="451.002,-227.268 459.167,-220.516 448.574,-220.703 451.002,-227.268"/>
</g>
<!-- Node19 -->
<g id="node19" class="node"><title>Node19</title>
<g id="a_node19"><a xlink:href="GradedContainer_8hh.html" target="_top" xlink:title="boca/math/GradedContainer.hh">
<polygon fill="white" stroke="black" points="252.193,-201.5 252.193,-220.5 404.193,-220.5 404.193,-201.5 252.193,-201.5"/>
<text text-anchor="middle" x="328.193" y="-208.5" font-family="Helvetica,sans-Serif" font-size="10.00">boca/math/GradedContainer.hh</text>
</a>
</g>
</g>
<!-- Node13&#45;&gt;Node19 -->
<g id="edge19" class="edge"><title>Node13&#45;&gt;Node19</title>
<path fill="none" stroke="midnightblue" d="M334.872,-257.083C333.812,-249.927 332.287,-239.635 330.962,-230.691"/>
<polygon fill="midnightblue" stroke="midnightblue" points="334.417,-230.13 329.489,-220.751 327.493,-231.156 334.417,-230.13"/>
</g>
<!-- Node20 -->
<g id="node20" class="node"><title>Node20</title>
<g id="a_node20"><a xlink:href="Units_8hh.html" target="_top" xlink:title="boca/physics/Units.hh">
<polygon fill="white" stroke="black" points="862.193,-201.5 862.193,-220.5 976.193,-220.5 976.193,-201.5 862.193,-201.5"/>
<text text-anchor="middle" x="919.193" y="-208.5" font-family="Helvetica,sans-Serif" font-size="10.00">boca/physics/Units.hh</text>
</a>
</g>
</g>
<!-- Node13&#45;&gt;Node20 -->
<g id="edge20" class="edge"><title>Node13&#45;&gt;Node20</title>
<path fill="none" stroke="midnightblue" d="M392.889,-260.749C500.937,-250.741 735.878,-228.979 851.774,-218.245"/>
<polygon fill="midnightblue" stroke="midnightblue" points="852.301,-221.711 861.936,-217.303 851.655,-214.741 852.301,-221.711"/>
</g>
<!-- Node16 -->
<g id="node16" class="node"><title>Node16</title>
<g id="a_node16"><a xlink:href="EnumIterator_8hh.html" target="_top" xlink:title="boca/generic/EnumIterator.hh">
<polygon fill="white" stroke="black" points="409.693,-140 409.693,-159 554.693,-159 554.693,-140 409.693,-140"/>
<text text-anchor="middle" x="482.193" y="-147" font-family="Helvetica,sans-Serif" font-size="10.00">boca/generic/EnumIterator.hh</text>
</a>
</g>
</g>
<!-- Node15&#45;&gt;Node16 -->
<g id="edge16" class="edge"><title>Node15&#45;&gt;Node16</title>
<path fill="none" stroke="midnightblue" d="M482.193,-201.475C482.193,-193.08 482.193,-179.981 482.193,-169.163"/>
<polygon fill="midnightblue" stroke="midnightblue" points="485.693,-169.009 482.193,-159.009 478.693,-169.009 485.693,-169.009"/>
</g>
<!-- Node17 -->
<g id="node17" class="node"><title>Node17</title>
<polygon fill="white" stroke="#bfbfbf" points="352.693,-73 352.693,-92 399.693,-92 399.693,-73 352.693,-73"/>
<text text-anchor="middle" x="376.193" y="-80" font-family="Helvetica,sans-Serif" font-size="10.00">iterator</text>
</g>
<!-- Node16&#45;&gt;Node17 -->
<g id="edge17" class="edge"><title>Node16&#45;&gt;Node17</title>
<path fill="none" stroke="midnightblue" d="M467.897,-139.734C450.176,-128.867 419.761,-110.216 398.849,-97.3931"/>
<polygon fill="midnightblue" stroke="midnightblue" points="400.617,-94.3712 390.262,-92.1273 396.957,-100.339 400.617,-94.3712"/>
</g>
<!-- Node18 -->
<g id="node18" class="node"><title>Node18</title>
<polygon fill="white" stroke="#bfbfbf" points="418.193,-73 418.193,-92 480.193,-92 480.193,-73 418.193,-73"/>
<text text-anchor="middle" x="449.193" y="-80" font-family="Helvetica,sans-Serif" font-size="10.00">type_traits</text>
</g>
<!-- Node16&#45;&gt;Node18 -->
<g id="edge18" class="edge"><title>Node16&#45;&gt;Node18</title>
<path fill="none" stroke="midnightblue" d="M477.742,-139.734C472.745,-129.89 464.505,-113.66 458.158,-101.159"/>
<polygon fill="midnightblue" stroke="midnightblue" points="461.221,-99.4595 453.573,-92.1273 454.979,-102.628 461.221,-99.4595"/>
</g>
<!-- Node21 -->
<g id="node21" class="node"><title>Node21</title>
<polygon fill="white" stroke="#bfbfbf" points="1000.69,-140 1000.69,-159 1113.69,-159 1113.69,-140 1000.69,-140"/>
<text text-anchor="middle" x="1057.19" y="-147" font-family="Helvetica,sans-Serif" font-size="10.00">boost/units/cmath.hpp</text>
</g>
<!-- Node20&#45;&gt;Node21 -->
<g id="edge21" class="edge"><title>Node20&#45;&gt;Node21</title>
<path fill="none" stroke="midnightblue" d="M938.965,-201.475C962.329,-191.401 1001.41,-174.553 1028.2,-163.002"/>
<polygon fill="midnightblue" stroke="midnightblue" points="1029.66,-166.182 1037.46,-159.009 1026.89,-159.754 1029.66,-166.182"/>
</g>
<!-- Node22 -->
<g id="node22" class="node"><title>Node22</title>
<g id="a_node22"><a xlink:href="Prefixes_8hh.html" target="_top" xlink:title="boca/physics/Prefixes.hh">
<polygon fill="white" stroke="black" points="855.693,-140 855.693,-159 982.693,-159 982.693,-140 855.693,-140"/>
<text text-anchor="middle" x="919.193" y="-147" font-family="Helvetica,sans-Serif" font-size="10.00">boca/physics/Prefixes.hh</text>
</a>
</g>
</g>
<!-- Node20&#45;&gt;Node22 -->
<g id="edge22" class="edge"><title>Node20&#45;&gt;Node22</title>
<path fill="none" stroke="midnightblue" d="M919.193,-201.475C919.193,-193.08 919.193,-179.981 919.193,-169.163"/>
<polygon fill="midnightblue" stroke="midnightblue" points="922.693,-169.009 919.193,-159.009 915.693,-169.009 922.693,-169.009"/>
</g>
<!-- Node23 -->
<g id="node23" class="node"><title>Node23</title>
<polygon fill="white" stroke="#bfbfbf" points="1159.19,-73 1159.19,-92 1269.19,-92 1269.19,-73 1159.19,-73"/>
<text text-anchor="middle" x="1214.19" y="-80" font-family="Helvetica,sans-Serif" font-size="10.00">boost/units/scale.hpp</text>
</g>
<!-- Node22&#45;&gt;Node23 -->
<g id="edge23" class="edge"><title>Node22&#45;&gt;Node23</title>
<path fill="none" stroke="midnightblue" d="M958.862,-139.923C1004.89,-129.949 1083.07,-112.94 1150.19,-98 1155.54,-96.8088 1161.15,-95.553 1166.71,-94.299"/>
<polygon fill="midnightblue" stroke="midnightblue" points="1167.66,-97.6746 1176.64,-92.0582 1166.11,-90.8465 1167.66,-97.6746"/>
</g>
<!-- Node24 -->
<g id="node24" class="node"><title>Node24</title>
<polygon fill="white" stroke="#bfbfbf" points="1287.69,-67.5 1287.69,-97.5 1412.69,-97.5 1412.69,-67.5 1287.69,-67.5"/>
<text text-anchor="start" x="1295.69" y="-85.5" font-family="Helvetica,sans-Serif" font-size="10.00">boost/units/make_scaled</text>
<text text-anchor="middle" x="1350.19" y="-74.5" font-family="Helvetica,sans-Serif" font-size="10.00">_unit.hpp</text>
</g>
<!-- Node22&#45;&gt;Node24 -->
<g id="edge24" class="edge"><title>Node22&#45;&gt;Node24</title>
<path fill="none" stroke="midnightblue" d="M959.644,-139.935C970.211,-137.843 981.606,-135.715 992.193,-134 1115.45,-114.028 1150.01,-118.415 1277.28,-98.0672"/>
<polygon fill="midnightblue" stroke="midnightblue" points="1278.1,-101.479 1287.41,-96.4256 1276.98,-94.5691 1278.1,-101.479"/>
</g>
<!-- Node25 -->
<g id="node25" class="node"><title>Node25</title>
<polygon fill="white" stroke="#bfbfbf" points="497.693,-67.5 497.693,-97.5 608.693,-97.5 608.693,-67.5 497.693,-67.5"/>
<text text-anchor="start" x="505.693" y="-85.5" font-family="Helvetica,sans-Serif" font-size="10.00">boost/units/systems</text>
<text text-anchor="middle" x="553.193" y="-74.5" font-family="Helvetica,sans-Serif" font-size="10.00">/si/dimensionless.hpp</text>
</g>
<!-- Node22&#45;&gt;Node25 -->
<g id="edge25" class="edge"><title>Node22&#45;&gt;Node25</title>
<path fill="none" stroke="midnightblue" d="M863.001,-139.989C804.547,-130.928 710.148,-115.721 618.793,-98.0546"/>
<polygon fill="midnightblue" stroke="midnightblue" points="619.306,-94.5887 608.821,-96.1138 617.968,-101.46 619.306,-94.5887"/>
</g>
<!-- Node26 -->
<g id="node26" class="node"><title>Node26</title>
<polygon fill="white" stroke="#bfbfbf" points="627.193,-73 627.193,-92 731.193,-92 731.193,-73 627.193,-73"/>
<text text-anchor="middle" x="679.193" y="-80" font-family="Helvetica,sans-Serif" font-size="10.00">boost/units/pow.hpp</text>
</g>
<!-- Node22&#45;&gt;Node26 -->
<g id="edge26" class="edge"><title>Node22&#45;&gt;Node26</title>
<path fill="none" stroke="midnightblue" d="M887.323,-139.869C844.439,-128.254 768.088,-107.576 720.742,-94.7528"/>
<polygon fill="midnightblue" stroke="midnightblue" points="721.38,-91.2996 710.813,-92.0637 719.55,-98.0562 721.38,-91.2996"/>
</g>
<!-- Node27 -->
<g id="node27" class="node"><title>Node27</title>
<g id="a_node27"><a xlink:href="Si_8hh.html" target="_top" xlink:title="boca/physics/Si.hh">
<polygon fill="white" stroke="black" points="1041.19,-73 1041.19,-92 1141.19,-92 1141.19,-73 1041.19,-73"/>
<text text-anchor="middle" x="1091.19" y="-80" font-family="Helvetica,sans-Serif" font-size="10.00">boca/physics/Si.hh</text>
</a>
</g>
</g>
<!-- Node22&#45;&gt;Node27 -->
<g id="edge27" class="edge"><title>Node22&#45;&gt;Node27</title>
<path fill="none" stroke="midnightblue" d="M942.033,-139.869C972.058,-128.522 1024.97,-108.525 1059.04,-95.6522"/>
<polygon fill="midnightblue" stroke="midnightblue" points="1060.42,-98.8728 1068.53,-92.0637 1057.94,-92.3248 1060.42,-98.8728"/>
</g>
<!-- Node31 -->
<g id="node31" class="node"><title>Node31</title>
<g id="a_node31"><a xlink:href="Barn_8hh.html" target="_top" xlink:title="boca/physics/Barn.hh">
<polygon fill="white" stroke="red" points="749.693,-73 749.693,-92 860.693,-92 860.693,-73 749.693,-73"/>
<text text-anchor="middle" x="805.193" y="-80" font-family="Helvetica,sans-Serif" font-size="10.00">boca/physics/Barn.hh</text>
</a>
</g>
</g>
<!-- Node22&#45;&gt;Node31 -->
<g id="edge31" class="edge"><title>Node22&#45;&gt;Node31</title>
<path fill="none" stroke="midnightblue" d="M903.818,-139.734C884.674,-128.818 851.755,-110.049 829.257,-97.2209"/>
<polygon fill="midnightblue" stroke="midnightblue" points="830.745,-94.04 820.324,-92.1273 827.277,-100.121 830.745,-94.04"/>
</g>
<!-- Node33 -->
<g id="node33" class="node"><title>Node33</title>
<g id="a_node33"><a xlink:href="ElectronVolt_8hh.html" target="_top" xlink:title="boca/physics/ElectronVolt.hh">
<polygon fill="white" stroke="red" points="879.193,-73 879.193,-92 1023.19,-92 1023.19,-73 879.193,-73"/>
<text text-anchor="middle" x="951.193" y="-80" font-family="Helvetica,sans-Serif" font-size="10.00">boca/physics/ElectronVolt.hh</text>
</a>
</g>
</g>
<!-- Node22&#45;&gt;Node33 -->
<g id="edge35" class="edge"><title>Node22&#45;&gt;Node33</title>
<path fill="none" stroke="midnightblue" d="M923.509,-139.734C928.355,-129.89 936.345,-113.66 942.499,-101.159"/>
<polygon fill="midnightblue" stroke="midnightblue" points="945.669,-102.645 946.946,-92.1273 939.389,-99.5531 945.669,-102.645"/>
</g>
<!-- Node28 -->
<g id="node28" class="node"><title>Node28</title>
<polygon fill="white" stroke="#bfbfbf" points="899.693,-6 899.693,-25 1020.69,-25 1020.69,-6 899.693,-6"/>
<text text-anchor="middle" x="960.193" y="-13" font-family="Helvetica,sans-Serif" font-size="10.00">boost/units/quantity.hpp</text>
</g>
<!-- Node27&#45;&gt;Node28 -->
<g id="edge28" class="edge"><title>Node27&#45;&gt;Node28</title>
<path fill="none" stroke="midnightblue" d="M1073.8,-72.8685C1051.58,-61.8447 1012.91,-42.6554 986.933,-29.7678"/>
<polygon fill="midnightblue" stroke="midnightblue" points="988.174,-26.4767 977.661,-25.1672 985.063,-32.7473 988.174,-26.4767"/>
</g>
<!-- Node29 -->
<g id="node29" class="node"><title>Node29</title>
<polygon fill="white" stroke="#bfbfbf" points="1038.69,-0.5 1038.69,-30.5 1143.69,-30.5 1143.69,-0.5 1038.69,-0.5"/>
<text text-anchor="start" x="1046.69" y="-18.5" font-family="Helvetica,sans-Serif" font-size="10.00">boost/units/systems</text>
<text text-anchor="middle" x="1091.19" y="-7.5" font-family="Helvetica,sans-Serif" font-size="10.00">/si/plane_angle.hpp</text>
</g>
<!-- Node27&#45;&gt;Node29 -->
<g id="edge29" class="edge"><title>Node27&#45;&gt;Node29</title>
<path fill="none" stroke="midnightblue" d="M1091.19,-72.7338C1091.19,-64.5406 1091.19,-51.9225 1091.19,-40.7136"/>
<polygon fill="midnightblue" stroke="midnightblue" points="1094.69,-40.589 1091.19,-30.589 1087.69,-40.5891 1094.69,-40.589"/>
</g>
<!-- Node30 -->
<g id="node30" class="node"><title>Node30</title>
<polygon fill="white" stroke="#bfbfbf" points="1161.69,-0.5 1161.69,-30.5 1266.69,-30.5 1266.69,-0.5 1161.69,-0.5"/>
<text text-anchor="start" x="1169.69" y="-18.5" font-family="Helvetica,sans-Serif" font-size="10.00">boost/units/systems</text>
<text text-anchor="middle" x="1214.19" y="-7.5" font-family="Helvetica,sans-Serif" font-size="10.00">/si/length.hpp</text>
</g>
<!-- Node27&#45;&gt;Node30 -->
<g id="edge30" class="edge"><title>Node27&#45;&gt;Node30</title>
<path fill="none" stroke="midnightblue" d="M1107.53,-72.8685C1125.53,-63.3566 1155.03,-47.7655 1178.45,-35.3888"/>
<polygon fill="midnightblue" stroke="midnightblue" points="1180.21,-38.4184 1187.41,-30.6516 1176.94,-32.2295 1180.21,-38.4184"/>
</g>
<!-- Node31&#45;&gt;Node7 -->
<g id="edge32" class="edge"><title>Node31&#45;&gt;Node7</title>
<path fill="none" stroke="midnightblue" d="M769.893,-72.9846C760.295,-70.8446 749.876,-68.6813 740.193,-67 602.692,-43.1253 436.98,-26.0389 368.359,-19.4709"/>
<polygon fill="midnightblue" stroke="midnightblue" points="368.484,-15.9672 358.198,-18.5077 367.823,-22.9359 368.484,-15.9672"/>
</g>
<!-- Node31&#45;&gt;Node28 -->
<g id="edge34" class="edge"><title>Node31&#45;&gt;Node28</title>
<path fill="none" stroke="midnightblue" d="M825.776,-72.8685C852.527,-61.6504 899.441,-41.9766 930.165,-29.0925"/>
<polygon fill="midnightblue" stroke="midnightblue" points="931.657,-32.2622 939.525,-25.1672 928.949,-25.8068 931.657,-32.2622"/>
</g>
<!-- Node32 -->
<g id="node32" class="node"><title>Node32</title>
<polygon fill="white" stroke="#bfbfbf" points="724.693,-6 724.693,-25 881.693,-25 881.693,-6 724.693,-6"/>
<text text-anchor="middle" x="803.193" y="-13" font-family="Helvetica,sans-Serif" font-size="10.00">boost/units/base_dimension.hpp</text>
</g>
<!-- Node31&#45;&gt;Node32 -->
<g id="edge33" class="edge"><title>Node31&#45;&gt;Node32</title>
<path fill="none" stroke="midnightblue" d="M804.923,-72.7338C804.629,-63.1826 804.15,-47.6183 803.771,-35.2829"/>
<polygon fill="midnightblue" stroke="midnightblue" points="807.264,-35.0149 803.458,-25.1273 800.268,-35.2302 807.264,-35.0149"/>
</g>
<!-- Node33&#45;&gt;Node28 -->
<g id="edge37" class="edge"><title>Node33&#45;&gt;Node28</title>
<path fill="none" stroke="midnightblue" d="M952.407,-72.7338C953.729,-63.1826 955.884,-47.6183 957.592,-35.2829"/>
<polygon fill="midnightblue" stroke="midnightblue" points="961.094,-35.5129 958.998,-25.1273 954.16,-34.5527 961.094,-35.5129"/>
</g>
<!-- Node33&#45;&gt;Node32 -->
<g id="edge36" class="edge"><title>Node33&#45;&gt;Node32</title>
<path fill="none" stroke="midnightblue" d="M931.54,-72.8685C906.108,-61.699 861.589,-42.1468 832.247,-29.2602"/>
<polygon fill="midnightblue" stroke="midnightblue" points="833.491,-25.9839 822.927,-25.1672 830.676,-32.393 833.491,-25.9839"/>
</g>
<!-- Node35 -->
<g id="node35" class="node"><title>Node35</title>
<g id="a_node35"><a xlink:href="PseudoJet_8hh.html" target="_top" xlink:title="boca/fastjet/PseudoJet.hh">
<polygon fill="white" stroke="black" points="357.693,-593.5 357.693,-612.5 488.693,-612.5 488.693,-593.5 357.693,-593.5"/>
<text text-anchor="middle" x="423.193" y="-600.5" font-family="Helvetica,sans-Serif" font-size="10.00">boca/fastjet/PseudoJet.hh</text>
</a>
</g>
</g>
<!-- Node34&#45;&gt;Node35 -->
<g id="edge39" class="edge"><title>Node34&#45;&gt;Node35</title>
<path fill="none" stroke="midnightblue" d="M423.193,-705.368C423.193,-687.617 423.193,-646.666 423.193,-622.597"/>
<polygon fill="midnightblue" stroke="midnightblue" points="426.693,-622.591 423.193,-612.591 419.693,-622.591 426.693,-622.591"/>
</g>
<!-- Node44 -->
<g id="node44" class="node"><title>Node44</title>
<g id="a_node44"><a xlink:href="JetInfo_8hh.html" target="_top" xlink:title="boca/multiplets/JetInfo.hh">
<polygon fill="white" stroke="black" points="481.693,-649.5 481.693,-668.5 610.693,-668.5 610.693,-649.5 481.693,-649.5"/>
<text text-anchor="middle" x="546.193" y="-656.5" font-family="Helvetica,sans-Serif" font-size="10.00">boca/multiplets/JetInfo.hh</text>
</a>
</g>
</g>
<!-- Node34&#45;&gt;Node44 -->
<g id="edge50" class="edge"><title>Node34&#45;&gt;Node44</title>
<path fill="none" stroke="midnightblue" d="M442.683,-705.444C462.835,-696.596 494.516,-682.687 517.524,-672.586"/>
<polygon fill="midnightblue" stroke="midnightblue" points="519.045,-675.741 526.794,-668.516 516.231,-669.332 519.045,-675.741"/>
</g>
<!-- Node35&#45;&gt;Node35 -->
<g id="edge40" class="edge"><title>Node35&#45;&gt;Node35</title>
<path fill="none" stroke="midnightblue" d="M458.806,-612.525C483.004,-615.308 506.693,-612.133 506.693,-603 506.693,-595.151 489.198,-591.703 468.92,-592.654"/>
<polygon fill="midnightblue" stroke="midnightblue" points="468.49,-589.178 458.806,-593.475 469.056,-596.155 468.49,-589.178"/>
</g>
<!-- Node36 -->
<g id="node36" class="node"><title>Node36</title>
<g id="a_node36"><a xlink:href="LorentzVector_8hh.html" target="_top" xlink:title="boca/math/LorentzVector.hh">
<polygon fill="white" stroke="black" points="466.193,-425.5 466.193,-444.5 606.193,-444.5 606.193,-425.5 466.193,-425.5"/>
<text text-anchor="middle" x="536.193" y="-432.5" font-family="Helvetica,sans-Serif" font-size="10.00">boca/math/LorentzVector.hh</text>
</a>
</g>
</g>
<!-- Node35&#45;&gt;Node36 -->
<g id="edge41" class="edge"><title>Node35&#45;&gt;Node36</title>
<path fill="none" stroke="midnightblue" d="M422.681,-593.362C421.87,-571.984 422.577,-515.826 449.193,-481 460.759,-465.865 478.861,-455.36 495.564,-448.33"/>
<polygon fill="midnightblue" stroke="midnightblue" points="497.13,-451.476 505.177,-444.584 494.588,-444.954 497.13,-451.476"/>
</g>
<!-- Node37 -->
<g id="node37" class="node"><title>Node37</title>
<g id="a_node37"><a xlink:href="delphes_2Forward_8hh.html" target="_top" xlink:title="boca/delphes/Forward.hh">
<polygon fill="white" stroke="black" points="615.193,-369.5 615.193,-388.5 741.193,-388.5 741.193,-369.5 615.193,-369.5"/>
<text text-anchor="middle" x="678.193" y="-376.5" font-family="Helvetica,sans-Serif" font-size="10.00">boca/delphes/Forward.hh</text>
</a>
</g>
</g>
<!-- Node36&#45;&gt;Node37 -->
<g id="edge42" class="edge"><title>Node36&#45;&gt;Node37</title>
<path fill="none" stroke="midnightblue" d="M558.693,-425.444C582.27,-416.478 619.515,-402.314 646.157,-392.183"/>
<polygon fill="midnightblue" stroke="midnightblue" points="647.695,-395.342 655.798,-388.516 645.207,-388.8 647.695,-395.342"/>
</g>
<!-- Node39 -->
<g id="node39" class="node"><title>Node39</title>
<g id="a_node39"><a xlink:href="exroot_2Forward_8hh.html" target="_top" xlink:title="boca/exroot/Forward.hh">
<polygon fill="white" stroke="black" points="476.693,-369.5 476.693,-388.5 595.693,-388.5 595.693,-369.5 476.693,-369.5"/>
<text text-anchor="middle" x="536.193" y="-376.5" font-family="Helvetica,sans-Serif" font-size="10.00">boca/exroot/Forward.hh</text>
</a>
</g>
</g>
<!-- Node36&#45;&gt;Node39 -->
<g id="edge44" class="edge"><title>Node36&#45;&gt;Node39</title>
<path fill="none" stroke="midnightblue" d="M536.193,-425.083C536.193,-418.006 536.193,-407.861 536.193,-398.986"/>
<polygon fill="midnightblue" stroke="midnightblue" points="539.693,-398.751 536.193,-388.751 532.693,-398.751 539.693,-398.751"/>
</g>
<!-- Node41 -->
<g id="node41" class="node"><title>Node41</title>
<g id="a_node41"><a xlink:href="LorentzVectorBase_8hh.html" target="_top" xlink:title="boca/math/LorentzVectorBase.hh">
<polygon fill="white" stroke="black" points="296.193,-369.5 296.193,-388.5 458.193,-388.5 458.193,-369.5 296.193,-369.5"/>
<text text-anchor="middle" x="377.193" y="-376.5" font-family="Helvetica,sans-Serif" font-size="10.00">boca/math/LorentzVectorBase.hh</text>
</a>
</g>
</g>
<!-- Node36&#45;&gt;Node41 -->
<g id="edge46" class="edge"><title>Node36&#45;&gt;Node41</title>
<path fill="none" stroke="midnightblue" d="M510.999,-425.444C484.25,-416.359 441.79,-401.939 411.888,-391.783"/>
<polygon fill="midnightblue" stroke="midnightblue" points="412.863,-388.418 402.269,-388.516 410.612,-395.046 412.863,-388.418"/>
</g>
<!-- Node38 -->
<g id="node38" class="node"><title>Node38</title>
<g id="a_node38"><a xlink:href="delphes_2TypeDef_8hh.html" target="_top" xlink:title="boca/delphes/TypeDef.hh">
<polygon fill="white" stroke="black" points="614.193,-313.5 614.193,-332.5 742.193,-332.5 742.193,-313.5 614.193,-313.5"/>
<text text-anchor="middle" x="678.193" y="-320.5" font-family="Helvetica,sans-Serif" font-size="10.00">boca/delphes/TypeDef.hh</text>
</a>
</g>
</g>
<!-- Node37&#45;&gt;Node38 -->
<g id="edge43" class="edge"><title>Node37&#45;&gt;Node38</title>
<path fill="none" stroke="midnightblue" d="M678.193,-369.083C678.193,-362.006 678.193,-351.861 678.193,-342.986"/>
<polygon fill="midnightblue" stroke="midnightblue" points="681.693,-342.751 678.193,-332.751 674.693,-342.751 681.693,-342.751"/>
</g>
<!-- Node40 -->
<g id="node40" class="node"><title>Node40</title>
<g id="a_node40"><a xlink:href="exroot_2TypeDef_8hh.html" target="_top" xlink:title="boca/exroot/TypeDef.hh">
<polygon fill="white" stroke="black" points="474.193,-313.5 474.193,-332.5 596.193,-332.5 596.193,-313.5 474.193,-313.5"/>
<text text-anchor="middle" x="535.193" y="-320.5" font-family="Helvetica,sans-Serif" font-size="10.00">boca/exroot/TypeDef.hh</text>
</a>
</g>
</g>
<!-- Node39&#45;&gt;Node40 -->
<g id="edge45" class="edge"><title>Node39&#45;&gt;Node40</title>
<path fill="none" stroke="midnightblue" d="M536.028,-369.083C535.897,-362.006 535.709,-351.861 535.545,-342.986"/>
<polygon fill="midnightblue" stroke="midnightblue" points="539.04,-342.685 535.355,-332.751 532.041,-342.814 539.04,-342.685"/>
</g>
<!-- Node42 -->
<g id="node42" class="node"><title>Node42</title>
<polygon fill="white" stroke="#bfbfbf" points="410.693,-313.5 410.693,-332.5 455.693,-332.5 455.693,-313.5 410.693,-313.5"/>
<text text-anchor="middle" x="433.193" y="-320.5" font-family="Helvetica,sans-Serif" font-size="10.00">climits</text>
</g>
<!-- Node41&#45;&gt;Node42 -->
<g id="edge47" class="edge"><title>Node41&#45;&gt;Node42</title>
<path fill="none" stroke="midnightblue" d="M386.19,-369.324C394.387,-361.42 406.698,-349.548 416.665,-339.938"/>
<polygon fill="midnightblue" stroke="midnightblue" points="419.263,-342.295 424.032,-332.834 414.404,-337.256 419.263,-342.295"/>
</g>
<!-- Node43 -->
<g id="node43" class="node"><title>Node43</title>
<g id="a_node43"><a xlink:href="Vector3_8hh.html" target="_top" xlink:title="boca/math/Vector3.hh">
<polygon fill="white" stroke="red" points="279.693,-313.5 279.693,-332.5 392.693,-332.5 392.693,-313.5 279.693,-313.5"/>
<text text-anchor="middle" x="336.193" y="-320.5" font-family="Helvetica,sans-Serif" font-size="10.00">boca/math/Vector3.hh</text>
</a>
</g>
</g>
<!-- Node41&#45;&gt;Node43 -->
<g id="edge48" class="edge"><title>Node41&#45;&gt;Node43</title>
<path fill="none" stroke="midnightblue" d="M370.423,-369.083C364.631,-361.455 356.134,-350.264 349.055,-340.941"/>
<polygon fill="midnightblue" stroke="midnightblue" points="351.672,-338.599 342.837,-332.751 346.097,-342.832 351.672,-338.599"/>
</g>
<!-- Node43&#45;&gt;Node13 -->
<g id="edge49" class="edge"><title>Node43&#45;&gt;Node13</title>
<path fill="none" stroke="midnightblue" d="M336.193,-313.083C336.193,-306.006 336.193,-295.861 336.193,-286.986"/>
<polygon fill="midnightblue" stroke="midnightblue" points="339.693,-286.751 336.193,-276.751 332.693,-286.751 339.693,-286.751"/>
</g>
<!-- Node44&#45;&gt;Node35 -->
<g id="edge51" class="edge"><title>Node44&#45;&gt;Node35</title>
<path fill="none" stroke="midnightblue" d="M526.703,-649.444C506.551,-640.596 474.87,-626.687 451.862,-616.586"/>
<polygon fill="midnightblue" stroke="midnightblue" points="453.155,-613.332 442.591,-612.516 450.341,-619.741 453.155,-613.332"/>
</g>
<!-- Node45 -->
<g id="node45" class="node"><title>Node45</title>
<g id="a_node45"><a xlink:href="Constituent_8hh.html" target="_top" xlink:title="boca/Constituent.hh">
<polygon fill="white" stroke="black" points="525.193,-593.5 525.193,-612.5 629.193,-612.5 629.193,-593.5 525.193,-593.5"/>
<text text-anchor="middle" x="577.193" y="-600.5" font-family="Helvetica,sans-Serif" font-size="10.00">boca/Constituent.hh</text>
</a>
</g>
</g>
<!-- Node44&#45;&gt;Node45 -->
<g id="edge52" class="edge"><title>Node44&#45;&gt;Node45</title>
<path fill="none" stroke="midnightblue" d="M551.312,-649.083C555.6,-641.613 561.851,-630.724 567.135,-621.52"/>
<polygon fill="midnightblue" stroke="midnightblue" points="570.226,-623.166 572.169,-612.751 564.155,-619.681 570.226,-623.166"/>
</g>
<!-- Node49 -->
<g id="node49" class="node"><title>Node49</title>
<g id="a_node49"><a xlink:href="Identification_8hh.html" target="_top" xlink:title="boca/multiplets/Identification.hh">
<polygon fill="white" stroke="black" points="671.693,-537.5 671.693,-556.5 826.693,-556.5 826.693,-537.5 671.693,-537.5"/>
<text text-anchor="middle" x="749.193" y="-544.5" font-family="Helvetica,sans-Serif" font-size="10.00">boca/multiplets/Identification.hh</text>
</a>
</g>
</g>
<!-- Node44&#45;&gt;Node49 -->
<g id="edge57" class="edge"><title>Node44&#45;&gt;Node49</title>
<path fill="none" stroke="midnightblue" d="M564.726,-649.435C583.453,-640.664 613.123,-626.447 638.193,-613 669.36,-596.282 704.447,-575.372 726.675,-561.855"/>
<polygon fill="midnightblue" stroke="midnightblue" points="728.655,-564.747 735.366,-556.548 725.007,-558.773 728.655,-564.747"/>
</g>
<!-- Node46 -->
<g id="node46" class="node"><title>Node46</title>
<g id="a_node46"><a xlink:href="Family_8hh.html" target="_top" xlink:title="boca/physics/Family.hh">
<polygon fill="white" stroke="black" points="514.193,-537.5 514.193,-556.5 634.193,-556.5 634.193,-537.5 514.193,-537.5"/>
<text text-anchor="middle" x="574.193" y="-544.5" font-family="Helvetica,sans-Serif" font-size="10.00">boca/physics/Family.hh</text>
</a>
</g>
</g>
<!-- Node45&#45;&gt;Node46 -->
<g id="edge53" class="edge"><title>Node45&#45;&gt;Node46</title>
<path fill="none" stroke="midnightblue" d="M576.698,-593.083C576.304,-586.006 575.741,-575.861 575.248,-566.986"/>
<polygon fill="midnightblue" stroke="midnightblue" points="578.729,-566.542 574.679,-556.751 571.739,-566.93 578.729,-566.542"/>
</g>
<!-- Node47 -->
<g id="node47" class="node"><title>Node47</title>
<polygon fill="white" stroke="#bfbfbf" points="457.693,-481.5 457.693,-500.5 492.693,-500.5 492.693,-481.5 457.693,-481.5"/>
<text text-anchor="middle" x="475.193" y="-488.5" font-family="Helvetica,sans-Serif" font-size="10.00">map</text>
</g>
<!-- Node46&#45;&gt;Node47 -->
<g id="edge54" class="edge"><title>Node46&#45;&gt;Node47</title>
<path fill="none" stroke="midnightblue" d="M558.287,-537.324C542.555,-528.743 518.251,-515.486 499.984,-505.522"/>
<polygon fill="midnightblue" stroke="midnightblue" points="501.514,-502.37 491.06,-500.655 498.162,-508.516 501.514,-502.37"/>
</g>
<!-- Node48 -->
<g id="node48" class="node"><title>Node48</title>
<g id="a_node48"><a xlink:href="Member_8hh.html" target="_top" xlink:title="boca/physics/Member.hh">
<polygon fill="white" stroke="black" points="511.193,-481.5 511.193,-500.5 637.193,-500.5 637.193,-481.5 511.193,-481.5"/>
<text text-anchor="middle" x="574.193" y="-488.5" font-family="Helvetica,sans-Serif" font-size="10.00">boca/physics/Member.hh</text>
</a>
</g>
</g>
<!-- Node46&#45;&gt;Node48 -->
<g id="edge55" class="edge"><title>Node46&#45;&gt;Node48</title>
<path fill="none" stroke="midnightblue" d="M574.193,-537.083C574.193,-530.006 574.193,-519.861 574.193,-510.986"/>
<polygon fill="midnightblue" stroke="midnightblue" points="577.693,-510.751 574.193,-500.751 570.693,-510.751 577.693,-510.751"/>
</g>
<!-- Node48&#45;&gt;Node36 -->
<g id="edge56" class="edge"><title>Node48&#45;&gt;Node36</title>
<path fill="none" stroke="midnightblue" d="M567.918,-481.083C562.55,-473.455 554.675,-462.264 548.114,-452.941"/>
<polygon fill="midnightblue" stroke="midnightblue" points="550.968,-450.915 542.351,-444.751 545.244,-454.943 550.968,-450.915"/>
</g>
<!-- Node50 -->
<g id="node50" class="node"><title>Node50</title>
<g id="a_node50"><a xlink:href="Tag_8hh.html" target="_top" xlink:title="boca/Tag.hh">
<polygon fill="white" stroke="black" points="728.693,-425.5 728.693,-444.5 799.693,-444.5 799.693,-425.5 728.693,-425.5"/>
<text text-anchor="middle" x="764.193" y="-432.5" font-family="Helvetica,sans-Serif" font-size="10.00">boca/Tag.hh</text>
</a>
</g>
</g>
<!-- Node49&#45;&gt;Node50 -->
<g id="edge58" class="edge"><title>Node49&#45;&gt;Node50</title>
<path fill="none" stroke="midnightblue" d="M750.37,-537.368C752.791,-519.617 758.375,-478.666 761.657,-454.597"/>
<polygon fill="midnightblue" stroke="midnightblue" points="765.138,-454.973 763.021,-444.591 758.202,-454.027 765.138,-454.973"/>
</g>
<!-- Node50&#45;&gt;Node6 -->
<g id="edge59" class="edge"><title>Node50&#45;&gt;Node6</title>
<path fill="none" stroke="midnightblue" d="M764.977,-425.451C766.604,-406.962 770.193,-361.869 770.193,-324 770.193,-324 770.193,-324 770.193,-266 770.193,-213.735 721.133,-219.344 672.193,-201 558.007,-158.201 516.775,-200.759 400.193,-165 398.528,-164.489 396.842,-163.89 395.164,-163.232"/>
<polygon fill="midnightblue" stroke="midnightblue" points="396.404,-159.951 385.851,-159.01 393.514,-166.326 396.404,-159.951"/>
</g>
</g>
</svg>
