<?xml version="1.0" encoding="UTF-8" standalone="no"?>
<!DOCTYPE svg PUBLIC "-//W3C//DTD SVG 1.1//EN"
 "http://www.w3.org/Graphics/SVG/1.1/DTD/svg11.dtd">
<!-- Generated by graphviz version 2.38.0 (20140413.2041)
 -->
<!-- Title: boca/plotting/Graphs.hh Pages: 1 -->
<svg width="1645pt" height="464pt"
 viewBox="0.00 0.00 1644.50 464.00" xmlns="http://www.w3.org/2000/svg" xmlns:xlink="http://www.w3.org/1999/xlink">
<g id="graph0" class="graph" transform="scale(1 1) rotate(0) translate(4 460)">
<title>boca/plotting/Graphs.hh</title>
<polygon fill="white" stroke="none" points="-4,4 -4,-460 1640.5,-460 1640.5,4 -4,4"/>
<!-- Node1 -->
<g id="node1" class="node"><title>Node1</title>
<polygon fill="#bfbfbf" stroke="black" points="556,-436.5 556,-455.5 676,-455.5 676,-436.5 556,-436.5"/>
<text text-anchor="middle" x="616" y="-443.5" font-family="Helvetica,sans-Serif" font-size="10.00">boca/plotting/Graphs.hh</text>
</g>
<!-- Node2 -->
<g id="node2" class="node"><title>Node2</title>
<polygon fill="white" stroke="#bfbfbf" points="419.5,-380.5 419.5,-399.5 476.5,-399.5 476.5,-380.5 419.5,-380.5"/>
<text text-anchor="middle" x="448" y="-387.5" font-family="Helvetica,sans-Serif" font-size="10.00">TGraph.h</text>
</g>
<!-- Node1&#45;&gt;Node2 -->
<g id="edge1" class="edge"><title>Node1&#45;&gt;Node2</title>
<path fill="none" stroke="midnightblue" d="M589.38,-436.444C560.994,-427.32 515.863,-412.813 484.247,-402.651"/>
<polygon fill="midnightblue" stroke="midnightblue" points="485.087,-399.244 474.496,-399.516 482.945,-405.909 485.087,-399.244"/>
</g>
<!-- Node3 -->
<g id="node3" class="node"><title>Node3</title>
<polygon fill="white" stroke="#bfbfbf" points="495,-380.5 495,-399.5 573,-399.5 573,-380.5 495,-380.5"/>
<text text-anchor="middle" x="534" y="-387.5" font-family="Helvetica,sans-Serif" font-size="10.00">TMultiGraph.h</text>
</g>
<!-- Node1&#45;&gt;Node3 -->
<g id="edge2" class="edge"><title>Node1&#45;&gt;Node3</title>
<path fill="none" stroke="midnightblue" d="M602.825,-436.324C590.153,-427.979 570.767,-415.212 555.794,-405.352"/>
<polygon fill="midnightblue" stroke="midnightblue" points="557.419,-402.231 547.142,-399.655 553.569,-408.078 557.419,-402.231"/>
</g>
<!-- Node4 -->
<g id="node4" class="node"><title>Node4</title>
<polygon fill="white" stroke="#bfbfbf" points="591.5,-380.5 591.5,-399.5 640.5,-399.5 640.5,-380.5 591.5,-380.5"/>
<text text-anchor="middle" x="616" y="-387.5" font-family="Helvetica,sans-Serif" font-size="10.00">TLine.h</text>
</g>
<!-- Node1&#45;&gt;Node4 -->
<g id="edge3" class="edge"><title>Node1&#45;&gt;Node4</title>
<path fill="none" stroke="midnightblue" d="M616,-436.083C616,-429.006 616,-418.861 616,-409.986"/>
<polygon fill="midnightblue" stroke="midnightblue" points="619.5,-409.751 616,-399.751 612.5,-409.751 619.5,-409.751"/>
</g>
<!-- Node5 -->
<g id="node5" class="node"><title>Node5</title>
<g id="a_node5"><a xlink:href="Legend_8hh.html" target="_top" xlink:title="boca/plotting/Legend.hh">
<polygon fill="white" stroke="black" points="658,-380.5 658,-399.5 778,-399.5 778,-380.5 658,-380.5"/>
<text text-anchor="middle" x="718" y="-387.5" font-family="Helvetica,sans-Serif" font-size="10.00">boca/plotting/Legend.hh</text>
</a>
</g>
</g>
<!-- Node1&#45;&gt;Node5 -->
<g id="edge4" class="edge"><title>Node1&#45;&gt;Node5</title>
<path fill="none" stroke="midnightblue" d="M632.388,-436.324C648.671,-427.703 673.867,-414.364 692.716,-404.386"/>
<polygon fill="midnightblue" stroke="midnightblue" points="694.452,-407.427 701.653,-399.655 691.177,-401.24 694.452,-407.427"/>
</g>
<!-- Node49 -->
<g id="node49" class="node"><title>Node49</title>
<g id="a_node49"><a xlink:href="Canvas_8hh.html" target="_top" xlink:title="boca/plotting/Canvas.hh">
<polygon fill="white" stroke="black" points="1063,-380.5 1063,-399.5 1185,-399.5 1185,-380.5 1063,-380.5"/>
<text text-anchor="middle" x="1124" y="-387.5" font-family="Helvetica,sans-Serif" font-size="10.00">boca/plotting/Canvas.hh</text>
</a>
</g>
</g>
<!-- Node1&#45;&gt;Node49 -->
<g id="edge60" class="edge"><title>Node1&#45;&gt;Node49</title>
<path fill="none" stroke="midnightblue" d="M676.269,-438.593C770.411,-428.586 951.97,-409.287 1052.55,-398.595"/>
<polygon fill="midnightblue" stroke="midnightblue" points="1053.05,-402.062 1062.62,-397.524 1052.31,-395.101 1053.05,-402.062"/>
</g>
<!-- Node6 -->
<g id="node6" class="node"><title>Node6</title>
<polygon fill="white" stroke="#bfbfbf" points="687,-324.5 687,-343.5 749,-343.5 749,-324.5 687,-324.5"/>
<text text-anchor="middle" x="718" y="-331.5" font-family="Helvetica,sans-Serif" font-size="10.00">TLegend.h</text>
</g>
<!-- Node5&#45;&gt;Node6 -->
<g id="edge5" class="edge"><title>Node5&#45;&gt;Node6</title>
<path fill="none" stroke="midnightblue" d="M718,-380.083C718,-373.006 718,-362.861 718,-353.986"/>
<polygon fill="midnightblue" stroke="midnightblue" points="721.5,-353.751 718,-343.751 714.5,-353.751 721.5,-353.751"/>
</g>
<!-- Node7 -->
<g id="node7" class="node"><title>Node7</title>
<g id="a_node7"><a xlink:href="Rectangle_8hh.html" target="_top" xlink:title="boca/physics/Rectangle.hh">
<polygon fill="white" stroke="black" points="850.5,-324.5 850.5,-343.5 985.5,-343.5 985.5,-324.5 850.5,-324.5"/>
<text text-anchor="middle" x="918" y="-331.5" font-family="Helvetica,sans-Serif" font-size="10.00">boca/physics/Rectangle.hh</text>
</a>
</g>
</g>
<!-- Node5&#45;&gt;Node7 -->
<g id="edge6" class="edge"><title>Node5&#45;&gt;Node7</title>
<path fill="none" stroke="midnightblue" d="M749.691,-380.444C784.068,-371.162 839.077,-356.309 876.789,-346.127"/>
<polygon fill="midnightblue" stroke="midnightblue" points="877.716,-349.502 886.458,-343.516 875.891,-342.744 877.716,-349.502"/>
</g>
<!-- Node45 -->
<g id="node45" class="node"><title>Node45</title>
<g id="a_node45"><a xlink:href="String_8hh.html" target="_top" xlink:title="boca/latex/String.hh">
<polygon fill="white" stroke="black" points="348,-201.5 348,-220.5 452,-220.5 452,-201.5 348,-201.5"/>
<text text-anchor="middle" x="400" y="-208.5" font-family="Helvetica,sans-Serif" font-size="10.00">boca/latex/String.hh</text>
</a>
</g>
</g>
<!-- Node5&#45;&gt;Node45 -->
<g id="edge52" class="edge"><title>Node5&#45;&gt;Node45</title>
<path fill="none" stroke="midnightblue" d="M701.338,-380.479C668.107,-363.411 591.335,-323.61 528,-288 490.682,-267.018 448.063,-241.367 422.629,-225.875"/>
<polygon fill="midnightblue" stroke="midnightblue" points="424.437,-222.879 414.079,-220.655 420.79,-228.853 424.437,-222.879"/>
</g>
<!-- Node47 -->
<g id="node47" class="node"><title>Node47</title>
<g id="a_node47"><a xlink:href="Orientation_8hh.html" target="_top" xlink:title="boca/plotting/Orientation.hh">
<polygon fill="white" stroke="black" points="194,-201.5 194,-220.5 330,-220.5 330,-201.5 194,-201.5"/>
<text text-anchor="middle" x="262" y="-208.5" font-family="Helvetica,sans-Serif" font-size="10.00">boca/plotting/Orientation.hh</text>
</a>
</g>
</g>
<!-- Node5&#45;&gt;Node47 -->
<g id="edge56" class="edge"><title>Node5&#45;&gt;Node47</title>
<path fill="none" stroke="midnightblue" d="M692.588,-380.339C666.87,-371.494 626.014,-357.221 591,-344 479.968,-302.075 349.523,-248.41 291.919,-224.483"/>
<polygon fill="midnightblue" stroke="midnightblue" points="293.248,-221.245 282.67,-220.637 290.56,-227.708 293.248,-221.245"/>
</g>
<!-- Node8 -->
<g id="node8" class="node"><title>Node8</title>
<polygon fill="white" stroke="#bfbfbf" points="797,-257.5 797,-287.5 907,-287.5 907,-257.5 797,-257.5"/>
<text text-anchor="start" x="805" y="-275.5" font-family="Helvetica,sans-Serif" font-size="10.00">boost/range/algorithm</text>
<text text-anchor="middle" x="852" y="-264.5" font-family="Helvetica,sans-Serif" font-size="10.00">/max_element.hpp</text>
</g>
<!-- Node7&#45;&gt;Node8 -->
<g id="edge7" class="edge"><title>Node7&#45;&gt;Node8</title>
<path fill="none" stroke="midnightblue" d="M908.544,-324.475C899.856,-316.643 886.624,-304.714 875.145,-294.366"/>
<polygon fill="midnightblue" stroke="midnightblue" points="877.326,-291.619 867.555,-287.523 872.639,-296.818 877.326,-291.619"/>
</g>
<!-- Node9 -->
<g id="node9" class="node"><title>Node9</title>
<polygon fill="white" stroke="#bfbfbf" points="1063,-257.5 1063,-287.5 1173,-287.5 1173,-257.5 1063,-257.5"/>
<text text-anchor="start" x="1071" y="-275.5" font-family="Helvetica,sans-Serif" font-size="10.00">boost/range/algorithm</text>
<text text-anchor="middle" x="1118" y="-264.5" font-family="Helvetica,sans-Serif" font-size="10.00">/min_element.hpp</text>
</g>
<!-- Node7&#45;&gt;Node9 -->
<g id="edge8" class="edge"><title>Node7&#45;&gt;Node9</title>
<path fill="none" stroke="midnightblue" d="M946.655,-324.475C976.4,-315.626 1023.72,-301.549 1061.1,-290.428"/>
<polygon fill="midnightblue" stroke="midnightblue" points="1062.28,-293.729 1070.86,-287.523 1060.28,-287.02 1062.28,-293.729"/>
</g>
<!-- Node10 -->
<g id="node10" class="node"><title>Node10</title>
<polygon fill="white" stroke="#bfbfbf" points="1191,-257.5 1191,-287.5 1301,-287.5 1301,-257.5 1191,-257.5"/>
<text text-anchor="start" x="1199" y="-275.5" font-family="Helvetica,sans-Serif" font-size="10.00">boost/range/algorithm</text>
<text text-anchor="middle" x="1246" y="-264.5" font-family="Helvetica,sans-Serif" font-size="10.00">_ext/is_sorted.hpp</text>
</g>
<!-- Node7&#45;&gt;Node10 -->
<g id="edge9" class="edge"><title>Node7&#45;&gt;Node10</title>
<path fill="none" stroke="midnightblue" d="M973.273,-324.469C1024.6,-316.345 1103.38,-303.367 1180.94,-288.151"/>
<polygon fill="midnightblue" stroke="midnightblue" points="1181.75,-291.558 1190.88,-286.186 1180.39,-284.691 1181.75,-291.558"/>
</g>
<!-- Node11 -->
<g id="node11" class="node"><title>Node11</title>
<polygon fill="white" stroke="#bfbfbf" points="537,-257.5 537,-287.5 647,-287.5 647,-257.5 537,-257.5"/>
<text text-anchor="start" x="545" y="-275.5" font-family="Helvetica,sans-Serif" font-size="10.00">boost/range/algorithm</text>
<text text-anchor="middle" x="592" y="-264.5" font-family="Helvetica,sans-Serif" font-size="10.00">_ext/erase.hpp</text>
</g>
<!-- Node7&#45;&gt;Node11 -->
<g id="edge10" class="edge"><title>Node7&#45;&gt;Node11</title>
<path fill="none" stroke="midnightblue" d="M863.401,-324.482C812.472,-316.343 734.154,-303.332 657.008,-288.142"/>
<polygon fill="midnightblue" stroke="midnightblue" points="657.608,-284.693 647.119,-286.182 656.247,-291.56 657.608,-284.693"/>
</g>
<!-- Node12 -->
<g id="node12" class="node"><title>Node12</title>
<g id="a_node12"><a xlink:href="Vector2_8hh.html" target="_top" xlink:title="boca/math/Vector2.hh">
<polygon fill="white" stroke="black" points="665.5,-263 665.5,-282 778.5,-282 778.5,-263 665.5,-263"/>
<text text-anchor="middle" x="722" y="-270" font-family="Helvetica,sans-Serif" font-size="10.00">boca/math/Vector2.hh</text>
</a>
</g>
</g>
<!-- Node7&#45;&gt;Node12 -->
<g id="edge11" class="edge"><title>Node7&#45;&gt;Node12</title>
<path fill="none" stroke="midnightblue" d="M889.918,-324.475C855.715,-314.092 797.803,-296.512 759.73,-284.954"/>
<polygon fill="midnightblue" stroke="midnightblue" points="760.615,-281.565 750.03,-282.009 758.582,-288.263 760.615,-281.565"/>
</g>
<!-- Node40 -->
<g id="node40" class="node"><title>Node40</title>
<g id="a_node40"><a xlink:href="Range_8hh.html" target="_top" xlink:title="boca/physics/Range.hh">
<polygon fill="white" stroke="black" points="925.5,-263 925.5,-282 1044.5,-282 1044.5,-263 925.5,-263"/>
<text text-anchor="middle" x="985" y="-270" font-family="Helvetica,sans-Serif" font-size="10.00">boca/physics/Range.hh</text>
</a>
</g>
</g>
<!-- Node7&#45;&gt;Node40 -->
<g id="edge44" class="edge"><title>Node7&#45;&gt;Node40</title>
<path fill="none" stroke="midnightblue" d="M927.599,-324.475C938.048,-315.197 954.968,-300.171 967.736,-288.831"/>
<polygon fill="midnightblue" stroke="midnightblue" points="970.265,-291.266 975.418,-282.009 965.617,-286.032 970.265,-291.266"/>
</g>
<!-- Node13 -->
<g id="node13" class="node"><title>Node13</title>
<polygon fill="white" stroke="#bfbfbf" points="552.5,-140 552.5,-159 655.5,-159 655.5,-140 552.5,-140"/>
<text text-anchor="middle" x="604" y="-147" font-family="Helvetica,sans-Serif" font-size="10.00">boost/operators.hpp</text>
</g>
<!-- Node12&#45;&gt;Node13 -->
<g id="edge12" class="edge"><title>Node12&#45;&gt;Node13</title>
<path fill="none" stroke="midnightblue" d="M699.988,-262.84C681.201,-254.511 654.52,-240.333 637,-221 623.417,-206.012 614.437,-184.451 609.32,-169.126"/>
<polygon fill="midnightblue" stroke="midnightblue" points="612.565,-167.772 606.267,-159.253 605.878,-169.841 612.565,-167.772"/>
</g>
<!-- Node14 -->
<g id="node14" class="node"><title>Node14</title>
<g id="a_node14"><a xlink:href="Debug_8hh.html" target="_top" xlink:title="boca/generic/Debug.hh">
<polygon fill="white" stroke="black" points="1270.5,-201.5 1270.5,-220.5 1387.5,-220.5 1387.5,-201.5 1270.5,-201.5"/>
<text text-anchor="middle" x="1329" y="-208.5" font-family="Helvetica,sans-Serif" font-size="10.00">boca/generic/Debug.hh</text>
</a>
</g>
</g>
<!-- Node12&#45;&gt;Node14 -->
<g id="edge13" class="edge"><title>Node12&#45;&gt;Node14</title>
<path fill="none" stroke="midnightblue" d="M756.776,-262.95C766.803,-260.733 777.792,-258.539 788,-257 956.488,-231.6 1156.82,-219.633 1259.98,-214.793"/>
<polygon fill="midnightblue" stroke="midnightblue" points="1260.43,-218.276 1270.26,-214.319 1260.11,-211.283 1260.43,-218.276"/>
</g>
<!-- Node21 -->
<g id="node21" class="node"><title>Node21</title>
<g id="a_node21"><a xlink:href="Iterator_8hh.html" target="_top" xlink:title="boca/generic/Iterator.hh">
<polygon fill="white" stroke="black" points="470.5,-201.5 470.5,-220.5 589.5,-220.5 589.5,-201.5 470.5,-201.5"/>
<text text-anchor="middle" x="530" y="-208.5" font-family="Helvetica,sans-Serif" font-size="10.00">boca/generic/Iterator.hh</text>
</a>
</g>
</g>
<!-- Node12&#45;&gt;Node21 -->
<g id="edge20" class="edge"><title>Node12&#45;&gt;Node21</title>
<path fill="none" stroke="midnightblue" d="M694.491,-262.975C661.129,-252.636 604.738,-235.161 567.437,-223.602"/>
<polygon fill="midnightblue" stroke="midnightblue" points="568.046,-220.126 557.458,-220.509 565.974,-226.812 568.046,-220.126"/>
</g>
<!-- Node25 -->
<g id="node25" class="node"><title>Node25</title>
<g id="a_node25"><a xlink:href="GradedContainer_8hh.html" target="_top" xlink:title="boca/math/GradedContainer.hh">
<polygon fill="white" stroke="black" points="646,-201.5 646,-220.5 798,-220.5 798,-201.5 646,-201.5"/>
<text text-anchor="middle" x="722" y="-208.5" font-family="Helvetica,sans-Serif" font-size="10.00">boca/math/GradedContainer.hh</text>
</a>
</g>
</g>
<!-- Node12&#45;&gt;Node25 -->
<g id="edge24" class="edge"><title>Node12&#45;&gt;Node25</title>
<path fill="none" stroke="midnightblue" d="M722,-262.975C722,-254.58 722,-241.481 722,-230.663"/>
<polygon fill="midnightblue" stroke="midnightblue" points="725.5,-230.509 722,-220.509 718.5,-230.509 725.5,-230.509"/>
</g>
<!-- Node26 -->
<g id="node26" class="node"><title>Node26</title>
<g id="a_node26"><a xlink:href="Units_8hh.html" target="_top" xlink:title="boca/physics/Units.hh">
<polygon fill="white" stroke="black" points="843,-201.5 843,-220.5 957,-220.5 957,-201.5 843,-201.5"/>
<text text-anchor="middle" x="900" y="-208.5" font-family="Helvetica,sans-Serif" font-size="10.00">boca/physics/Units.hh</text>
</a>
</g>
</g>
<!-- Node12&#45;&gt;Node26 -->
<g id="edge26" class="edge"><title>Node12&#45;&gt;Node26</title>
<path fill="none" stroke="midnightblue" d="M747.503,-262.975C778.301,-252.68 830.265,-235.31 864.848,-223.75"/>
<polygon fill="midnightblue" stroke="midnightblue" points="866.17,-226.999 874.544,-220.509 863.95,-220.36 866.17,-226.999"/>
</g>
<!-- Node15 -->
<g id="node15" class="node"><title>Node15</title>
<polygon fill="white" stroke="#bfbfbf" points="269.5,-140 269.5,-159 310.5,-159 310.5,-140 269.5,-140"/>
<text text-anchor="middle" x="290" y="-147" font-family="Helvetica,sans-Serif" font-size="10.00">string</text>
</g>
<!-- Node14&#45;&gt;Node15 -->
<g id="edge14" class="edge"><title>Node14&#45;&gt;Node15</title>
<path fill="none" stroke="midnightblue" d="M1270.22,-207.329C1230.6,-205.532 1177.16,-203.113 1130,-201 949.781,-192.925 493.611,-210.331 319,-165 317.277,-164.553 315.537,-163.995 313.811,-163.36"/>
<polygon fill="midnightblue" stroke="midnightblue" points="314.844,-159.989 304.284,-159.126 312.001,-166.386 314.844,-159.989"/>
</g>
<!-- Node16 -->
<g id="node16" class="node"><title>Node16</title>
<polygon fill="white" stroke="#bfbfbf" points="1086,-6 1086,-25 1130,-25 1130,-6 1086,-6"/>
<text text-anchor="middle" x="1108" y="-13" font-family="Helvetica,sans-Serif" font-size="10.00">vector</text>
</g>
<!-- Node14&#45;&gt;Node16 -->
<g id="edge15" class="edge"><title>Node14&#45;&gt;Node16</title>
<path fill="none" stroke="midnightblue" d="M1334.8,-201.331C1343.96,-186.456 1359.42,-155.588 1346,-134 1300.39,-60.6177 1193.92,-31.6971 1140.21,-21.4741"/>
<polygon fill="midnightblue" stroke="midnightblue" points="1140.66,-18.0001 1130.2,-19.6711 1139.42,-24.8891 1140.66,-18.0001"/>
</g>
<!-- Node17 -->
<g id="node17" class="node"><title>Node17</title>
<polygon fill="white" stroke="#bfbfbf" points="1393,-140 1393,-159 1445,-159 1445,-140 1393,-140"/>
<text text-anchor="middle" x="1419" y="-147" font-family="Helvetica,sans-Serif" font-size="10.00">sstream</text>
</g>
<!-- Node14&#45;&gt;Node17 -->
<g id="edge16" class="edge"><title>Node14&#45;&gt;Node17</title>
<path fill="none" stroke="midnightblue" d="M1341.89,-201.475C1356.46,-191.843 1380.4,-176.017 1397.75,-164.552"/>
<polygon fill="midnightblue" stroke="midnightblue" points="1399.72,-167.444 1406.13,-159.009 1395.86,-161.604 1399.72,-167.444"/>
</g>
<!-- Node18 -->
<g id="node18" class="node"><title>Node18</title>
<polygon fill="white" stroke="#bfbfbf" points="1463,-140 1463,-159 1513,-159 1513,-140 1463,-140"/>
<text text-anchor="middle" x="1488" y="-147" font-family="Helvetica,sans-Serif" font-size="10.00">iomanip</text>
</g>
<!-- Node14&#45;&gt;Node18 -->
<g id="edge17" class="edge"><title>Node14&#45;&gt;Node18</title>
<path fill="none" stroke="midnightblue" d="M1354.06,-201.454C1379.41,-192.699 1419.65,-178.494 1454,-165 1455.6,-164.371 1457.24,-163.714 1458.89,-163.043"/>
<polygon fill="midnightblue" stroke="midnightblue" points="1460.41,-166.201 1468.3,-159.127 1457.73,-159.738 1460.41,-166.201"/>
</g>
<!-- Node19 -->
<g id="node19" class="node"><title>Node19</title>
<polygon fill="white" stroke="#bfbfbf" points="1283,-140 1283,-159 1337,-159 1337,-140 1283,-140"/>
<text text-anchor="middle" x="1310" y="-147" font-family="Helvetica,sans-Serif" font-size="10.00">iostream</text>
</g>
<!-- Node14&#45;&gt;Node19 -->
<g id="edge18" class="edge"><title>Node14&#45;&gt;Node19</title>
<path fill="none" stroke="midnightblue" d="M1326.28,-201.475C1323.57,-192.992 1319.33,-179.704 1315.85,-168.822"/>
<polygon fill="midnightblue" stroke="midnightblue" points="1319.09,-167.47 1312.72,-159.009 1312.43,-169.6 1319.09,-167.47"/>
</g>
<!-- Node20 -->
<g id="node20" class="node"><title>Node20</title>
<polygon fill="white" stroke="#bfbfbf" points="1531.5,-134.5 1531.5,-164.5 1636.5,-164.5 1636.5,-134.5 1531.5,-134.5"/>
<text text-anchor="start" x="1539.5" y="-152.5" font-family="Helvetica,sans-Serif" font-size="10.00">boost/units/systems</text>
<text text-anchor="middle" x="1584" y="-141.5" font-family="Helvetica,sans-Serif" font-size="10.00">/si/io.hpp</text>
</g>
<!-- Node14&#45;&gt;Node20 -->
<g id="edge19" class="edge"><title>Node14&#45;&gt;Node20</title>
<path fill="none" stroke="midnightblue" d="M1365.64,-201.464C1402.42,-192.896 1460.97,-179.249 1521.17,-165.193"/>
<polygon fill="midnightblue" stroke="midnightblue" points="1522.29,-168.525 1531.24,-162.843 1520.7,-161.708 1522.29,-168.525"/>
</g>
<!-- Node22 -->
<g id="node22" class="node"><title>Node22</title>
<g id="a_node22"><a xlink:href="EnumIterator_8hh.html" target="_top" xlink:title="boca/generic/EnumIterator.hh">
<polygon fill="white" stroke="black" points="389.5,-140 389.5,-159 534.5,-159 534.5,-140 389.5,-140"/>
<text text-anchor="middle" x="462" y="-147" font-family="Helvetica,sans-Serif" font-size="10.00">boca/generic/EnumIterator.hh</text>
</a>
</g>
</g>
<!-- Node21&#45;&gt;Node22 -->
<g id="edge21" class="edge"><title>Node21&#45;&gt;Node22</title>
<path fill="none" stroke="midnightblue" d="M520.257,-201.475C509.653,-192.197 492.481,-177.171 479.521,-165.831"/>
<polygon fill="midnightblue" stroke="midnightblue" points="481.555,-162.96 471.725,-159.009 476.946,-168.228 481.555,-162.96"/>
</g>
<!-- Node23 -->
<g id="node23" class="node"><title>Node23</title>
<polygon fill="white" stroke="#bfbfbf" points="80.5,-73 80.5,-92 127.5,-92 127.5,-73 80.5,-73"/>
<text text-anchor="middle" x="104" y="-80" font-family="Helvetica,sans-Serif" font-size="10.00">iterator</text>
</g>
<!-- Node22&#45;&gt;Node23 -->
<g id="edge22" class="edge"><title>Node22&#45;&gt;Node23</title>
<path fill="none" stroke="midnightblue" d="M415.206,-139.993C403.705,-137.966 391.416,-135.855 380,-134 272.234,-116.493 241.911,-128.229 137,-98 134.85,-97.3806 132.657,-96.6514 130.475,-95.8552"/>
<polygon fill="midnightblue" stroke="midnightblue" points="131.728,-92.5863 121.146,-92.0679 129.095,-99.0723 131.728,-92.5863"/>
</g>
<!-- Node24 -->
<g id="node24" class="node"><title>Node24</title>
<polygon fill="white" stroke="#bfbfbf" points="0,-73 0,-92 62,-92 62,-73 0,-73"/>
<text text-anchor="middle" x="31" y="-80" font-family="Helvetica,sans-Serif" font-size="10.00">type_traits</text>
</g>
<!-- Node22&#45;&gt;Node24 -->
<g id="edge23" class="edge"><title>Node22&#45;&gt;Node24</title>
<path fill="none" stroke="midnightblue" d="M416.535,-139.968C404.666,-137.876 391.872,-135.74 380,-134 243.199,-113.954 205.562,-129.773 71,-98 67.9357,-97.2765 64.7829,-96.3919 61.656,-95.4199"/>
<polygon fill="midnightblue" stroke="midnightblue" points="62.4907,-92.0072 51.8963,-92.1079 60.2411,-98.6359 62.4907,-92.0072"/>
</g>
<!-- Node25&#45;&gt;Node13 -->
<g id="edge25" class="edge"><title>Node25&#45;&gt;Node13</title>
<path fill="none" stroke="midnightblue" d="M705.093,-201.475C685.466,-191.578 652.869,-175.142 630.01,-163.615"/>
<polygon fill="midnightblue" stroke="midnightblue" points="631.38,-160.386 620.875,-159.009 628.228,-166.637 631.38,-160.386"/>
</g>
<!-- Node27 -->
<g id="node27" class="node"><title>Node27</title>
<polygon fill="white" stroke="#bfbfbf" points="857.5,-140 857.5,-159 970.5,-159 970.5,-140 857.5,-140"/>
<text text-anchor="middle" x="914" y="-147" font-family="Helvetica,sans-Serif" font-size="10.00">boost/units/cmath.hpp</text>
</g>
<!-- Node26&#45;&gt;Node27 -->
<g id="edge27" class="edge"><title>Node26&#45;&gt;Node27</title>
<path fill="none" stroke="midnightblue" d="M902.006,-201.475C904.002,-192.992 907.128,-179.704 909.689,-168.822"/>
<polygon fill="midnightblue" stroke="midnightblue" points="913.114,-169.545 911.998,-159.009 906.3,-167.942 913.114,-169.545"/>
</g>
<!-- Node28 -->
<g id="node28" class="node"><title>Node28</title>
<g id="a_node28"><a xlink:href="Prefixes_8hh.html" target="_top" xlink:title="boca/physics/Prefixes.hh">
<polygon fill="white" stroke="black" points="673.5,-140 673.5,-159 800.5,-159 800.5,-140 673.5,-140"/>
<text text-anchor="middle" x="737" y="-147" font-family="Helvetica,sans-Serif" font-size="10.00">boca/physics/Prefixes.hh</text>
</a>
</g>
</g>
<!-- Node26&#45;&gt;Node28 -->
<g id="edge28" class="edge"><title>Node26&#45;&gt;Node28</title>
<path fill="none" stroke="midnightblue" d="M876.646,-201.475C848.686,-191.269 801.674,-174.108 770.009,-162.549"/>
<polygon fill="midnightblue" stroke="midnightblue" points="770.905,-159.15 760.311,-159.009 768.504,-165.726 770.905,-159.15"/>
</g>
<!-- Node29 -->
<g id="node29" class="node"><title>Node29</title>
<polygon fill="white" stroke="#bfbfbf" points="426,-73 426,-92 536,-92 536,-73 426,-73"/>
<text text-anchor="middle" x="481" y="-80" font-family="Helvetica,sans-Serif" font-size="10.00">boost/units/scale.hpp</text>
</g>
<!-- Node28&#45;&gt;Node29 -->
<g id="edge29" class="edge"><title>Node28&#45;&gt;Node29</title>
<path fill="none" stroke="midnightblue" d="M703.269,-139.936C657.415,-128.293 575.342,-107.454 524.784,-94.617"/>
<polygon fill="midnightblue" stroke="midnightblue" points="525.359,-91.1521 514.805,-92.0834 523.637,-97.9368 525.359,-91.1521"/>
</g>
<!-- Node30 -->
<g id="node30" class="node"><title>Node30</title>
<polygon fill="white" stroke="#bfbfbf" points="554.5,-67.5 554.5,-97.5 679.5,-97.5 679.5,-67.5 554.5,-67.5"/>
<text text-anchor="start" x="562.5" y="-85.5" font-family="Helvetica,sans-Serif" font-size="10.00">boost/units/make_scaled</text>
<text text-anchor="middle" x="617" y="-74.5" font-family="Helvetica,sans-Serif" font-size="10.00">_unit.hpp</text>
</g>
<!-- Node28&#45;&gt;Node30 -->
<g id="edge30" class="edge"><title>Node28&#45;&gt;Node30</title>
<path fill="none" stroke="midnightblue" d="M720.816,-139.734C703.273,-130.231 674.742,-114.777 652.025,-102.472"/>
<polygon fill="midnightblue" stroke="midnightblue" points="653.47,-99.2744 643.01,-97.589 650.136,-105.429 653.47,-99.2744"/>
</g>
<!-- Node31 -->
<g id="node31" class="node"><title>Node31</title>
<polygon fill="white" stroke="#bfbfbf" points="697.5,-67.5 697.5,-97.5 808.5,-97.5 808.5,-67.5 697.5,-67.5"/>
<text text-anchor="start" x="705.5" y="-85.5" font-family="Helvetica,sans-Serif" font-size="10.00">boost/units/systems</text>
<text text-anchor="middle" x="753" y="-74.5" font-family="Helvetica,sans-Serif" font-size="10.00">/si/dimensionless.hpp</text>
</g>
<!-- Node28&#45;&gt;Node31 -->
<g id="edge31" class="edge"><title>Node28&#45;&gt;Node31</title>
<path fill="none" stroke="midnightblue" d="M739.158,-139.734C741.195,-131.456 744.345,-118.662 747.125,-107.367"/>
<polygon fill="midnightblue" stroke="midnightblue" points="750.54,-108.136 749.532,-97.589 743.743,-106.463 750.54,-108.136"/>
</g>
<!-- Node32 -->
<g id="node32" class="node"><title>Node32</title>
<polygon fill="white" stroke="#bfbfbf" points="827,-73 827,-92 931,-92 931,-73 827,-73"/>
<text text-anchor="middle" x="879" y="-80" font-family="Helvetica,sans-Serif" font-size="10.00">boost/units/pow.hpp</text>
</g>
<!-- Node28&#45;&gt;Node32 -->
<g id="edge32" class="edge"><title>Node28&#45;&gt;Node32</title>
<path fill="none" stroke="midnightblue" d="M755.857,-139.869C780.151,-128.748 822.601,-109.317 850.756,-96.4286"/>
<polygon fill="midnightblue" stroke="midnightblue" points="852.43,-99.5118 860.066,-92.1672 849.516,-93.147 852.43,-99.5118"/>
</g>
<!-- Node33 -->
<g id="node33" class="node"><title>Node33</title>
<g id="a_node33"><a xlink:href="Si_8hh.html" target="_top" xlink:title="boca/physics/Si.hh">
<polygon fill="white" stroke="black" points="146,-73 146,-92 246,-92 246,-73 146,-73"/>
<text text-anchor="middle" x="196" y="-80" font-family="Helvetica,sans-Serif" font-size="10.00">boca/physics/Si.hh</text>
</a>
</g>
</g>
<!-- Node28&#45;&gt;Node33 -->
<g id="edge33" class="edge"><title>Node28&#45;&gt;Node33</title>
<path fill="none" stroke="midnightblue" d="M698.112,-139.965C687.124,-137.774 675.128,-135.59 664,-134 483.354,-108.186 435.02,-127.863 255,-98 249.134,-97.0269 242.99,-95.7792 236.976,-94.425"/>
<polygon fill="midnightblue" stroke="midnightblue" points="237.585,-90.9725 227.047,-92.0752 235.972,-97.7843 237.585,-90.9725"/>
</g>
<!-- Node37 -->
<g id="node37" class="node"><title>Node37</title>
<g id="a_node37"><a xlink:href="Barn_8hh.html" target="_top" xlink:title="boca/physics/Barn.hh">
<polygon fill="white" stroke="red" points="949.5,-73 949.5,-92 1060.5,-92 1060.5,-73 949.5,-73"/>
<text text-anchor="middle" x="1005" y="-80" font-family="Helvetica,sans-Serif" font-size="10.00">boca/physics/Barn.hh</text>
</a>
</g>
</g>
<!-- Node28&#45;&gt;Node37 -->
<g id="edge37" class="edge"><title>Node28&#45;&gt;Node37</title>
<path fill="none" stroke="midnightblue" d="M772.312,-139.936C820.516,-128.244 906.954,-107.28 959.825,-94.4566"/>
<polygon fill="midnightblue" stroke="midnightblue" points="960.717,-97.8419 969.61,-92.0834 959.067,-91.0391 960.717,-97.8419"/>
</g>
<!-- Node39 -->
<g id="node39" class="node"><title>Node39</title>
<g id="a_node39"><a xlink:href="ElectronVolt_8hh.html" target="_top" xlink:title="boca/physics/ElectronVolt.hh">
<polygon fill="white" stroke="red" points="264,-73 264,-92 408,-92 408,-73 264,-73"/>
<text text-anchor="middle" x="336" y="-80" font-family="Helvetica,sans-Serif" font-size="10.00">boca/physics/ElectronVolt.hh</text>
</a>
</g>
</g>
<!-- Node28&#45;&gt;Node39 -->
<g id="edge41" class="edge"><title>Node28&#45;&gt;Node39</title>
<path fill="none" stroke="midnightblue" d="M695.76,-139.924C685.41,-137.878 674.315,-135.775 664,-134 554.669,-115.187 526.504,-115.777 417,-98 408.98,-96.698 400.525,-95.2589 392.225,-93.8077"/>
<polygon fill="midnightblue" stroke="midnightblue" points="392.673,-90.3328 382.217,-92.0402 391.456,-97.2261 392.673,-90.3328"/>
</g>
<!-- Node34 -->
<g id="node34" class="node"><title>Node34</title>
<polygon fill="white" stroke="#bfbfbf" points="275.5,-6 275.5,-25 396.5,-25 396.5,-6 275.5,-6"/>
<text text-anchor="middle" x="336" y="-13" font-family="Helvetica,sans-Serif" font-size="10.00">boost/units/quantity.hpp</text>
</g>
<!-- Node33&#45;&gt;Node34 -->
<g id="edge34" class="edge"><title>Node33&#45;&gt;Node34</title>
<path fill="none" stroke="midnightblue" d="M214.591,-72.8685C238.544,-61.7476 280.395,-42.3167 308.154,-29.4286"/>
<polygon fill="midnightblue" stroke="midnightblue" points="309.736,-32.5529 317.332,-25.1672 306.788,-26.2038 309.736,-32.5529"/>
</g>
<!-- Node35 -->
<g id="node35" class="node"><title>Node35</title>
<polygon fill="white" stroke="#bfbfbf" points="25.5,-0.5 25.5,-30.5 130.5,-30.5 130.5,-0.5 25.5,-0.5"/>
<text text-anchor="start" x="33.5" y="-18.5" font-family="Helvetica,sans-Serif" font-size="10.00">boost/units/systems</text>
<text text-anchor="middle" x="78" y="-7.5" font-family="Helvetica,sans-Serif" font-size="10.00">/si/plane_angle.hpp</text>
</g>
<!-- Node33&#45;&gt;Node35 -->
<g id="edge35" class="edge"><title>Node33&#45;&gt;Node35</title>
<path fill="none" stroke="midnightblue" d="M180.086,-72.7338C162.835,-63.2314 134.78,-47.777 112.441,-35.4719"/>
<polygon fill="midnightblue" stroke="midnightblue" points="114.025,-32.3483 103.577,-30.589 110.647,-38.4796 114.025,-32.3483"/>
</g>
<!-- Node36 -->
<g id="node36" class="node"><title>Node36</title>
<polygon fill="white" stroke="#bfbfbf" points="148.5,-0.5 148.5,-30.5 253.5,-30.5 253.5,-0.5 148.5,-0.5"/>
<text text-anchor="start" x="156.5" y="-18.5" font-family="Helvetica,sans-Serif" font-size="10.00">boost/units/systems</text>
<text text-anchor="middle" x="201" y="-7.5" font-family="Helvetica,sans-Serif" font-size="10.00">/si/length.hpp</text>
</g>
<!-- Node33&#45;&gt;Node36 -->
<g id="edge36" class="edge"><title>Node33&#45;&gt;Node36</title>
<path fill="none" stroke="midnightblue" d="M196.674,-72.7338C197.305,-64.5406 198.275,-51.9225 199.137,-40.7136"/>
<polygon fill="midnightblue" stroke="midnightblue" points="202.639,-40.828 199.916,-30.589 195.659,-40.2911 202.639,-40.828"/>
</g>
<!-- Node37&#45;&gt;Node16 -->
<g id="edge38" class="edge"><title>Node37&#45;&gt;Node16</title>
<path fill="none" stroke="midnightblue" d="M1018.89,-72.7338C1036.03,-61.9156 1065.4,-43.3832 1085.71,-30.5659"/>
<polygon fill="midnightblue" stroke="midnightblue" points="1087.74,-33.4241 1094.33,-25.1273 1084,-27.5043 1087.74,-33.4241"/>
</g>
<!-- Node37&#45;&gt;Node34 -->
<g id="edge40" class="edge"><title>Node37&#45;&gt;Node34</title>
<path fill="none" stroke="midnightblue" d="M970.757,-72.9455C960.882,-70.7281 950.058,-68.5351 940,-67 748.593,-37.7878 520.295,-24.4795 407.026,-19.3045"/>
<polygon fill="midnightblue" stroke="midnightblue" points="406.906,-15.7956 396.759,-18.8433 406.592,-22.7886 406.906,-15.7956"/>
</g>
<!-- Node38 -->
<g id="node38" class="node"><title>Node38</title>
<polygon fill="white" stroke="#bfbfbf" points="672.5,-6 672.5,-25 829.5,-25 829.5,-6 672.5,-6"/>
<text text-anchor="middle" x="751" y="-13" font-family="Helvetica,sans-Serif" font-size="10.00">boost/units/base_dimension.hpp</text>
</g>
<!-- Node37&#45;&gt;Node38 -->
<g id="edge39" class="edge"><title>Node37&#45;&gt;Node38</title>
<path fill="none" stroke="midnightblue" d="M971.533,-72.9355C926.037,-61.2928 844.605,-40.4539 794.442,-27.617"/>
<polygon fill="midnightblue" stroke="midnightblue" points="795.097,-24.1719 784.541,-25.0834 793.361,-30.9534 795.097,-24.1719"/>
</g>
<!-- Node39&#45;&gt;Node34 -->
<g id="edge43" class="edge"><title>Node39&#45;&gt;Node34</title>
<path fill="none" stroke="midnightblue" d="M336,-72.7338C336,-63.1826 336,-47.6183 336,-35.2829"/>
<polygon fill="midnightblue" stroke="midnightblue" points="339.5,-35.1273 336,-25.1273 332.5,-35.1273 339.5,-35.1273"/>
</g>
<!-- Node39&#45;&gt;Node38 -->
<g id="edge42" class="edge"><title>Node39&#45;&gt;Node38</title>
<path fill="none" stroke="midnightblue" d="M382.65,-72.9264C393.888,-70.9226 405.865,-68.8381 417,-67 508.224,-51.9414 613.763,-36.2774 681.387,-26.4649"/>
<polygon fill="midnightblue" stroke="midnightblue" points="682.1,-29.8983 691.495,-25.0008 681.096,-22.9706 682.1,-29.8983"/>
</g>
<!-- Node40&#45;&gt;Node19 -->
<g id="edge45" class="edge"><title>Node40&#45;&gt;Node19</title>
<path fill="none" stroke="midnightblue" d="M1010.51,-262.925C1039.54,-253.091 1088.35,-236.345 1130,-221 1194.43,-197.259 1210.15,-190.273 1274,-165 1275.64,-164.352 1277.31,-163.686 1279.01,-163.011"/>
<polygon fill="midnightblue" stroke="midnightblue" points="1280.71,-166.097 1288.7,-159.13 1278.11,-159.599 1280.71,-166.097"/>
</g>
<!-- Node40&#45;&gt;Node26 -->
<g id="edge47" class="edge"><title>Node40&#45;&gt;Node26</title>
<path fill="none" stroke="midnightblue" d="M972.822,-262.975C959.188,-253.431 936.868,-237.807 920.526,-226.368"/>
<polygon fill="midnightblue" stroke="midnightblue" points="922.355,-223.376 912.156,-220.509 918.341,-229.111 922.355,-223.376"/>
</g>
<!-- Node41 -->
<g id="node41" class="node"><title>Node41</title>
<polygon fill="white" stroke="#bfbfbf" points="1406,-201.5 1406,-220.5 1446,-220.5 1446,-201.5 1406,-201.5"/>
<text text-anchor="middle" x="1426" y="-208.5" font-family="Helvetica,sans-Serif" font-size="10.00">utility</text>
</g>
<!-- Node40&#45;&gt;Node41 -->
<g id="edge46" class="edge"><title>Node40&#45;&gt;Node41</title>
<path fill="none" stroke="midnightblue" d="M1022.11,-262.971C1032.4,-260.807 1043.6,-258.634 1054,-257 1202.17,-233.718 1245.03,-251.083 1395.76,-220.868"/>
<polygon fill="midnightblue" stroke="midnightblue" points="1396.75,-224.238 1405.85,-218.808 1395.35,-217.38 1396.75,-224.238"/>
</g>
<!-- Node42 -->
<g id="node42" class="node"><title>Node42</title>
<g id="a_node42"><a xlink:href="Math_8hh.html" target="_top" xlink:title="boca/math/Math.hh">
<polygon fill="white" stroke="black" points="1019.5,-201.5 1019.5,-220.5 1120.5,-220.5 1120.5,-201.5 1019.5,-201.5"/>
<text text-anchor="middle" x="1070" y="-208.5" font-family="Helvetica,sans-Serif" font-size="10.00">boca/math/Math.hh</text>
</a>
</g>
</g>
<!-- Node40&#45;&gt;Node42 -->
<g id="edge48" class="edge"><title>Node40&#45;&gt;Node42</title>
<path fill="none" stroke="midnightblue" d="M997.178,-262.975C1010.81,-253.431 1033.13,-237.807 1049.47,-226.368"/>
<polygon fill="midnightblue" stroke="midnightblue" points="1051.66,-229.111 1057.84,-220.509 1047.64,-223.376 1051.66,-229.111"/>
</g>
<!-- Node42&#45;&gt;Node16 -->
<g id="edge49" class="edge"><title>Node42&#45;&gt;Node16</title>
<path fill="none" stroke="midnightblue" d="M1080.71,-201.305C1089.94,-193.069 1102.59,-179.789 1108,-165 1124.18,-120.753 1117.26,-64.0064 1111.98,-35.1519"/>
<polygon fill="midnightblue" stroke="midnightblue" points="1115.39,-34.3618 1110.01,-25.2301 1108.52,-35.719 1115.39,-34.3618"/>
</g>
<!-- Node43 -->
<g id="node43" class="node"><title>Node43</title>
<polygon fill="white" stroke="#bfbfbf" points="1155,-134.5 1155,-164.5 1265,-164.5 1265,-134.5 1155,-134.5"/>
<text text-anchor="start" x="1163" y="-152.5" font-family="Helvetica,sans-Serif" font-size="10.00">boost/range/algorithm</text>
<text text-anchor="middle" x="1210" y="-141.5" font-family="Helvetica,sans-Serif" font-size="10.00">/lower_bound.hpp</text>
</g>
<!-- Node42&#45;&gt;Node43 -->
<g id="edge50" class="edge"><title>Node42&#45;&gt;Node43</title>
<path fill="none" stroke="midnightblue" d="M1090.06,-201.475C1110.17,-192.927 1141.76,-179.501 1167.47,-168.573"/>
<polygon fill="midnightblue" stroke="midnightblue" points="1169.17,-171.656 1177,-164.523 1166.43,-165.213 1169.17,-171.656"/>
</g>
<!-- Node44 -->
<g id="node44" class="node"><title>Node44</title>
<polygon fill="white" stroke="#bfbfbf" points="989,-134.5 989,-164.5 1099,-164.5 1099,-134.5 989,-134.5"/>
<text text-anchor="start" x="997" y="-152.5" font-family="Helvetica,sans-Serif" font-size="10.00">boost/range/algorithm</text>
<text text-anchor="middle" x="1044" y="-141.5" font-family="Helvetica,sans-Serif" font-size="10.00">/upper_bound.hpp</text>
</g>
<!-- Node42&#45;&gt;Node44 -->
<g id="edge51" class="edge"><title>Node42&#45;&gt;Node44</title>
<path fill="none" stroke="midnightblue" d="M1066.27,-201.475C1063.12,-194.245 1058.43,-183.525 1054.17,-173.779"/>
<polygon fill="midnightblue" stroke="midnightblue" points="1057.34,-172.285 1050.13,-164.523 1050.92,-175.088 1057.34,-172.285"/>
</g>
<!-- Node45&#45;&gt;Node15 -->
<g id="edge53" class="edge"><title>Node45&#45;&gt;Node15</title>
<path fill="none" stroke="midnightblue" d="M384.24,-201.475C366.024,-191.622 335.827,-175.288 314.532,-163.77"/>
<polygon fill="midnightblue" stroke="midnightblue" points="316.192,-160.688 305.731,-159.009 312.862,-166.845 316.192,-160.688"/>
</g>
<!-- Node45&#45;&gt;Node16 -->
<g id="edge55" class="edge"><title>Node45&#45;&gt;Node16</title>
<path fill="none" stroke="midnightblue" d="M452.223,-202.142C455.191,-201.743 458.132,-201.359 461,-201 615.725,-181.615 665.61,-223.88 810,-165 830.503,-156.639 828.751,-142.959 849,-134 940.008,-93.7354 990.655,-158.067 1070,-98 1090.29,-82.6397 1100.15,-53.7966 1104.63,-34.8688"/>
<polygon fill="midnightblue" stroke="midnightblue" points="1108.06,-35.5523 1106.69,-25.0471 1101.21,-34.1169 1108.06,-35.5523"/>
</g>
<!-- Node46 -->
<g id="node46" class="node"><title>Node46</title>
<polygon fill="white" stroke="#bfbfbf" points="328.5,-140 328.5,-159 371.5,-159 371.5,-140 328.5,-140"/>
<text text-anchor="middle" x="350" y="-147" font-family="Helvetica,sans-Serif" font-size="10.00">deque</text>
</g>
<!-- Node45&#45;&gt;Node46 -->
<g id="edge54" class="edge"><title>Node45&#45;&gt;Node46</title>
<path fill="none" stroke="midnightblue" d="M392.836,-201.475C385.262,-192.462 373.13,-178.025 363.707,-166.812"/>
<polygon fill="midnightblue" stroke="midnightblue" points="366.263,-164.413 357.15,-159.009 360.904,-168.917 366.263,-164.413"/>
</g>
<!-- Node47&#45;&gt;Node15 -->
<g id="edge57" class="edge"><title>Node47&#45;&gt;Node15</title>
<path fill="none" stroke="midnightblue" d="M266.012,-201.475C270.087,-192.815 276.518,-179.149 281.696,-168.145"/>
<polygon fill="midnightblue" stroke="midnightblue" points="284.905,-169.548 285.996,-159.009 278.571,-166.567 284.905,-169.548"/>
</g>
<!-- Node48 -->
<g id="node48" class="node"><title>Node48</title>
<g id="a_node48"><a xlink:href="Flag_8hh.html" target="_top" xlink:title="boca/generic/Flag.hh">
<polygon fill="white" stroke="black" points="60.5,-140 60.5,-159 167.5,-159 167.5,-140 60.5,-140"/>
<text text-anchor="middle" x="114" y="-147" font-family="Helvetica,sans-Serif" font-size="10.00">boca/generic/Flag.hh</text>
</a>
</g>
</g>
<!-- Node47&#45;&gt;Node48 -->
<g id="edge58" class="edge"><title>Node47&#45;&gt;Node48</title>
<path fill="none" stroke="midnightblue" d="M240.795,-201.475C215.628,-191.357 173.46,-174.405 144.721,-162.851"/>
<polygon fill="midnightblue" stroke="midnightblue" points="145.749,-159.492 135.165,-159.009 143.138,-165.987 145.749,-159.492"/>
</g>
<!-- Node48&#45;&gt;Node24 -->
<g id="edge59" class="edge"><title>Node48&#45;&gt;Node24</title>
<path fill="none" stroke="midnightblue" d="M102.806,-139.734C89.3656,-129.208 66.5997,-111.379 50.3038,-98.6174"/>
<polygon fill="midnightblue" stroke="midnightblue" points="52.0475,-95.5374 42.0164,-92.1273 47.7315,-101.049 52.0475,-95.5374"/>
</g>
<!-- Node49&#45;&gt;Node7 -->
<g id="edge62" class="edge"><title>Node49&#45;&gt;Node7</title>
<path fill="none" stroke="midnightblue" d="M1091.36,-380.444C1055.95,-371.162 999.291,-356.309 960.447,-346.127"/>
<polygon fill="midnightblue" stroke="midnightblue" points="961.049,-342.667 950.489,-343.516 959.274,-349.438 961.049,-342.667"/>
</g>
<!-- Node49&#45;&gt;Node14 -->
<g id="edge63" class="edge"><title>Node49&#45;&gt;Node14</title>
<path fill="none" stroke="midnightblue" d="M1155.89,-380.442C1197.75,-367.528 1270.5,-338.978 1310,-288 1322.72,-271.577 1327.03,-247.695 1328.43,-231.102"/>
<polygon fill="midnightblue" stroke="midnightblue" points="1331.93,-231.142 1329.01,-220.96 1324.94,-230.746 1331.93,-231.142"/>
</g>
<!-- Node50 -->
<g id="node50" class="node"><title>Node50</title>
<polygon fill="white" stroke="#bfbfbf" points="1357.5,-324.5 1357.5,-343.5 1422.5,-343.5 1422.5,-324.5 1357.5,-324.5"/>
<text text-anchor="middle" x="1390" y="-331.5" font-family="Helvetica,sans-Serif" font-size="10.00">TCanvas.h</text>
</g>
<!-- Node49&#45;&gt;Node50 -->
<g id="edge61" class="edge"><title>Node49&#45;&gt;Node50</title>
<path fill="none" stroke="midnightblue" d="M1166.15,-380.444C1215.76,-370.372 1297.68,-353.741 1347.46,-343.635"/>
<polygon fill="midnightblue" stroke="midnightblue" points="1348.17,-347.063 1357.27,-341.644 1346.78,-340.203 1348.17,-347.063"/>
</g>
</g>
</svg>
