<?xml version="1.0" encoding="UTF-8" standalone="no"?>
<!DOCTYPE svg PUBLIC "-//W3C//DTD SVG 1.1//EN"
 "http://www.w3.org/Graphics/SVG/1.1/DTD/svg11.dtd">
<!-- Generated by graphviz version 2.38.0 (20140413.2041)
 -->
<!-- Title: source/event/HemisphereMasses.cpp Pages: 1 -->
<svg width="1489pt" height="643pt"
 viewBox="0.00 0.00 1488.50 643.00" xmlns="http://www.w3.org/2000/svg" xmlns:xlink="http://www.w3.org/1999/xlink">
<g id="graph0" class="graph" transform="scale(1 1) rotate(0) translate(4 639)">
<title>source/event/HemisphereMasses.cpp</title>
<polygon fill="white" stroke="none" points="-4,4 -4,-639 1484.5,-639 1484.5,4 -4,4"/>
<!-- Node1 -->
<g id="node1" class="node"><title>Node1</title>
<polygon fill="#bfbfbf" stroke="black" points="410,-615.5 410,-634.5 592,-634.5 592,-615.5 410,-615.5"/>
<text text-anchor="middle" x="501" y="-622.5" font-family="Helvetica,sans-Serif" font-size="10.00">source/event/HemisphereMasses.cpp</text>
</g>
<!-- Node2 -->
<g id="node2" class="node"><title>Node2</title>
<g id="a_node2"><a xlink:href="HemisphereMasses_8hh.html" target="_top" xlink:title="boca/event/HemisphereMasses.hh">
<polygon fill="white" stroke="black" points="417,-559.5 417,-578.5 585,-578.5 585,-559.5 417,-559.5"/>
<text text-anchor="middle" x="501" y="-566.5" font-family="Helvetica,sans-Serif" font-size="10.00">boca/event/HemisphereMasses.hh</text>
</a>
</g>
</g>
<!-- Node1&#45;&gt;Node2 -->
<g id="edge1" class="edge"><title>Node1&#45;&gt;Node2</title>
<path fill="none" stroke="midnightblue" d="M501,-615.083C501,-608.006 501,-597.861 501,-588.986"/>
<polygon fill="midnightblue" stroke="midnightblue" points="504.5,-588.751 501,-578.751 497.5,-588.751 504.5,-588.751"/>
</g>
<!-- Node3 -->
<g id="node3" class="node"><title>Node3</title>
<g id="a_node3"><a xlink:href="Range_8hh.html" target="_top" xlink:title="boca/math/Range.hh">
<polygon fill="white" stroke="black" points="317.5,-257.5 317.5,-276.5 424.5,-276.5 424.5,-257.5 317.5,-257.5"/>
<text text-anchor="middle" x="371" y="-264.5" font-family="Helvetica,sans-Serif" font-size="10.00">boca/math/Range.hh</text>
</a>
</g>
</g>
<!-- Node2&#45;&gt;Node3 -->
<g id="edge2" class="edge"><title>Node2&#45;&gt;Node3</title>
<path fill="none" stroke="midnightblue" d="M479.54,-559.456C445.763,-544.428 384,-509.857 384,-458 384,-458 384,-458 384,-394.5 384,-356.001 377.968,-311.254 374.122,-286.636"/>
<polygon fill="midnightblue" stroke="midnightblue" points="377.543,-285.871 372.491,-276.558 370.633,-286.989 377.543,-285.871"/>
</g>
<!-- Node28 -->
<g id="node28" class="node"><title>Node28</title>
<g id="a_node28"><a xlink:href="GradedLorentzVector_8hh.html" target="_top" xlink:title="boca/math/GradedLorentzVector.hh">
<polygon fill="white" stroke="black" points="532.5,-503.5 532.5,-522.5 703.5,-522.5 703.5,-503.5 532.5,-503.5"/>
<text text-anchor="middle" x="618" y="-510.5" font-family="Helvetica,sans-Serif" font-size="10.00">boca/math/GradedLorentzVector.hh</text>
</a>
</g>
</g>
<!-- Node2&#45;&gt;Node28 -->
<g id="edge32" class="edge"><title>Node2&#45;&gt;Node28</title>
<path fill="none" stroke="midnightblue" d="M519.539,-559.444C538.623,-550.636 568.575,-536.812 590.436,-526.722"/>
<polygon fill="midnightblue" stroke="midnightblue" points="591.935,-529.885 599.548,-522.516 589.001,-523.529 591.935,-529.885"/>
</g>
<!-- Node4 -->
<g id="node4" class="node"><title>Node4</title>
<polygon fill="white" stroke="#bfbfbf" points="0,-140 0,-159 54,-159 54,-140 0,-140"/>
<text text-anchor="middle" x="27" y="-147" font-family="Helvetica,sans-Serif" font-size="10.00">iostream</text>
</g>
<!-- Node3&#45;&gt;Node4 -->
<g id="edge3" class="edge"><title>Node3&#45;&gt;Node4</title>
<path fill="none" stroke="midnightblue" d="M344.601,-257.379C291.913,-240.134 170.001,-200.034 68,-165 65.5633,-164.163 63.0476,-163.292 60.5174,-162.41"/>
<polygon fill="midnightblue" stroke="midnightblue" points="61.4174,-159.016 50.8226,-159.007 59.0994,-165.621 61.4174,-159.016"/>
</g>
<!-- Node5 -->
<g id="node5" class="node"><title>Node5</title>
<polygon fill="white" stroke="#bfbfbf" points="262,-201.5 262,-220.5 302,-220.5 302,-201.5 262,-201.5"/>
<text text-anchor="middle" x="282" y="-208.5" font-family="Helvetica,sans-Serif" font-size="10.00">utility</text>
</g>
<!-- Node3&#45;&gt;Node5 -->
<g id="edge4" class="edge"><title>Node3&#45;&gt;Node5</title>
<path fill="none" stroke="midnightblue" d="M356.701,-257.324C342.817,-248.9 321.508,-235.971 305.196,-226.074"/>
<polygon fill="midnightblue" stroke="midnightblue" points="306.629,-222.85 296.264,-220.655 302.998,-228.834 306.629,-222.85"/>
</g>
<!-- Node6 -->
<g id="node6" class="node"><title>Node6</title>
<g id="a_node6"><a xlink:href="Units_8hh.html" target="_top" xlink:title="boca/units/Units.hh">
<polygon fill="white" stroke="black" points="320.5,-201.5 320.5,-220.5 421.5,-220.5 421.5,-201.5 320.5,-201.5"/>
<text text-anchor="middle" x="371" y="-208.5" font-family="Helvetica,sans-Serif" font-size="10.00">boca/units/Units.hh</text>
</a>
</g>
</g>
<!-- Node3&#45;&gt;Node6 -->
<g id="edge5" class="edge"><title>Node3&#45;&gt;Node6</title>
<path fill="none" stroke="midnightblue" d="M371,-257.083C371,-250.006 371,-239.861 371,-230.986"/>
<polygon fill="midnightblue" stroke="midnightblue" points="374.5,-230.751 371,-220.751 367.5,-230.751 374.5,-230.751"/>
</g>
<!-- Node24 -->
<g id="node24" class="node"><title>Node24</title>
<g id="a_node24"><a xlink:href="Math_8hh.html" target="_top" xlink:title="boca/math/Math.hh">
<polygon fill="white" stroke="black" points="576.5,-201.5 576.5,-220.5 677.5,-220.5 677.5,-201.5 576.5,-201.5"/>
<text text-anchor="middle" x="627" y="-208.5" font-family="Helvetica,sans-Serif" font-size="10.00">boca/math/Math.hh</text>
</a>
</g>
</g>
<!-- Node3&#45;&gt;Node24 -->
<g id="edge28" class="edge"><title>Node3&#45;&gt;Node24</title>
<path fill="none" stroke="midnightblue" d="M411.564,-257.444C456.316,-248.004 528.383,-232.802 576.695,-222.611"/>
<polygon fill="midnightblue" stroke="midnightblue" points="577.564,-226.005 586.626,-220.516 576.119,-219.156 577.564,-226.005"/>
</g>
<!-- Node7 -->
<g id="node7" class="node"><title>Node7</title>
<polygon fill="white" stroke="#bfbfbf" points="133.5,-6 133.5,-25 246.5,-25 246.5,-6 133.5,-6"/>
<text text-anchor="middle" x="190" y="-13" font-family="Helvetica,sans-Serif" font-size="10.00">boost/units/cmath.hpp</text>
</g>
<!-- Node6&#45;&gt;Node7 -->
<g id="edge6" class="edge"><title>Node6&#45;&gt;Node7</title>
<path fill="none" stroke="midnightblue" d="M338.511,-201.381C272.949,-183.262 128.69,-139.464 101,-98 93.3484,-86.5422 94.0665,-78.906 101,-67 111.582,-48.8283 131.406,-36.6644 149.662,-28.8377"/>
<polygon fill="midnightblue" stroke="midnightblue" points="151.004,-32.071 159.009,-25.1312 148.423,-25.5639 151.004,-32.071"/>
</g>
<!-- Node8 -->
<g id="node8" class="node"><title>Node8</title>
<g id="a_node8"><a xlink:href="Prefixes_8hh.html" target="_top" xlink:title="boca/units/Prefixes.hh">
<polygon fill="white" stroke="black" points="312,-140 312,-159 426,-159 426,-140 312,-140"/>
<text text-anchor="middle" x="369" y="-147" font-family="Helvetica,sans-Serif" font-size="10.00">boca/units/Prefixes.hh</text>
</a>
</g>
</g>
<!-- Node6&#45;&gt;Node8 -->
<g id="edge7" class="edge"><title>Node6&#45;&gt;Node8</title>
<path fill="none" stroke="midnightblue" d="M370.713,-201.475C370.431,-193.08 369.991,-179.981 369.627,-169.163"/>
<polygon fill="midnightblue" stroke="midnightblue" points="373.12,-168.886 369.286,-159.009 366.124,-169.121 373.12,-168.886"/>
</g>
<!-- Node9 -->
<g id="node9" class="node"><title>Node9</title>
<polygon fill="white" stroke="#bfbfbf" points="110,-73 110,-92 220,-92 220,-73 110,-73"/>
<text text-anchor="middle" x="165" y="-80" font-family="Helvetica,sans-Serif" font-size="10.00">boost/units/scale.hpp</text>
</g>
<!-- Node8&#45;&gt;Node9 -->
<g id="edge8" class="edge"><title>Node8&#45;&gt;Node9</title>
<path fill="none" stroke="midnightblue" d="M341.91,-139.869C305.841,-128.376 241.918,-108.008 201.59,-95.1586"/>
<polygon fill="midnightblue" stroke="midnightblue" points="202.467,-91.7648 191.877,-92.0637 200.342,-98.4344 202.467,-91.7648"/>
</g>
<!-- Node10 -->
<g id="node10" class="node"><title>Node10</title>
<polygon fill="white" stroke="#bfbfbf" points="238.5,-67.5 238.5,-97.5 363.5,-97.5 363.5,-67.5 238.5,-67.5"/>
<text text-anchor="start" x="246.5" y="-85.5" font-family="Helvetica,sans-Serif" font-size="10.00">boost/units/make_scaled</text>
<text text-anchor="middle" x="301" y="-74.5" font-family="Helvetica,sans-Serif" font-size="10.00">_unit.hpp</text>
</g>
<!-- Node8&#45;&gt;Node10 -->
<g id="edge9" class="edge"><title>Node8&#45;&gt;Node10</title>
<path fill="none" stroke="midnightblue" d="M359.829,-139.734C350.463,-130.78 335.568,-116.543 323.11,-104.635"/>
<polygon fill="midnightblue" stroke="midnightblue" points="325.386,-101.969 315.739,-97.589 320.55,-107.029 325.386,-101.969"/>
</g>
<!-- Node11 -->
<g id="node11" class="node"><title>Node11</title>
<polygon fill="white" stroke="#bfbfbf" points="381.5,-67.5 381.5,-97.5 492.5,-97.5 492.5,-67.5 381.5,-67.5"/>
<text text-anchor="start" x="389.5" y="-85.5" font-family="Helvetica,sans-Serif" font-size="10.00">boost/units/systems</text>
<text text-anchor="middle" x="437" y="-74.5" font-family="Helvetica,sans-Serif" font-size="10.00">/si/dimensionless.hpp</text>
</g>
<!-- Node8&#45;&gt;Node11 -->
<g id="edge10" class="edge"><title>Node8&#45;&gt;Node11</title>
<path fill="none" stroke="midnightblue" d="M378.171,-139.734C387.537,-130.78 402.432,-116.543 414.89,-104.635"/>
<polygon fill="midnightblue" stroke="midnightblue" points="417.45,-107.029 422.261,-97.589 412.614,-101.969 417.45,-107.029"/>
</g>
<!-- Node12 -->
<g id="node12" class="node"><title>Node12</title>
<polygon fill="white" stroke="#bfbfbf" points="511,-73 511,-92 615,-92 615,-73 511,-73"/>
<text text-anchor="middle" x="563" y="-80" font-family="Helvetica,sans-Serif" font-size="10.00">boost/units/pow.hpp</text>
</g>
<!-- Node8&#45;&gt;Node12 -->
<g id="edge11" class="edge"><title>Node8&#45;&gt;Node12</title>
<path fill="none" stroke="midnightblue" d="M394.762,-139.869C428.918,-128.424 489.338,-108.181 527.715,-95.3223"/>
<polygon fill="midnightblue" stroke="midnightblue" points="529.071,-98.5594 537.441,-92.0637 526.847,-91.922 529.071,-98.5594"/>
</g>
<!-- Node13 -->
<g id="node13" class="node"><title>Node13</title>
<g id="a_node13"><a xlink:href="Si_8hh.html" target="_top" xlink:title="boca/units/Si.hh">
<polygon fill="white" stroke="black" points="633.5,-73 633.5,-92 720.5,-92 720.5,-73 633.5,-73"/>
<text text-anchor="middle" x="677" y="-80" font-family="Helvetica,sans-Serif" font-size="10.00">boca/units/Si.hh</text>
</a>
</g>
</g>
<!-- Node8&#45;&gt;Node13 -->
<g id="edge12" class="edge"><title>Node8&#45;&gt;Node13</title>
<path fill="none" stroke="midnightblue" d="M407.003,-139.96C416.16,-137.955 425.921,-135.862 435,-134 518.767,-116.824 540.696,-117.298 624,-98 628.406,-96.9794 632.997,-95.8396 637.554,-94.6597"/>
<polygon fill="midnightblue" stroke="midnightblue" points="638.627,-97.9962 647.391,-92.0433 636.828,-91.2313 638.627,-97.9962"/>
</g>
<!-- Node18 -->
<g id="node18" class="node"><title>Node18</title>
<g id="a_node18"><a xlink:href="Barn_8hh.html" target="_top" xlink:title="boca/units/Barn.hh">
<polygon fill="white" stroke="black" points="829,-73 829,-92 927,-92 927,-73 829,-73"/>
<text text-anchor="middle" x="878" y="-80" font-family="Helvetica,sans-Serif" font-size="10.00">boca/units/Barn.hh</text>
</a>
</g>
</g>
<!-- Node8&#45;&gt;Node18 -->
<g id="edge18" class="edge"><title>Node8&#45;&gt;Node18</title>
<path fill="none" stroke="midnightblue" d="M404.837,-139.925C414.583,-137.785 425.163,-135.637 435,-134 507.346,-121.962 715.311,-100.076 818.485,-89.5169"/>
<polygon fill="midnightblue" stroke="midnightblue" points="819.142,-92.9681 828.734,-88.4699 818.431,-86.0043 819.142,-92.9681"/>
</g>
<!-- Node22 -->
<g id="node22" class="node"><title>Node22</title>
<g id="a_node22"><a xlink:href="ElectronVolt_8hh.html" target="_top" xlink:title="boca/units/ElectronVolt.hh">
<polygon fill="white" stroke="black" points="966.5,-73 966.5,-92 1097.5,-92 1097.5,-73 966.5,-73"/>
<text text-anchor="middle" x="1032" y="-80" font-family="Helvetica,sans-Serif" font-size="10.00">boca/units/ElectronVolt.hh</text>
</a>
</g>
</g>
<!-- Node8&#45;&gt;Node22 -->
<g id="edge23" class="edge"><title>Node8&#45;&gt;Node22</title>
<path fill="none" stroke="midnightblue" d="M403.424,-139.952C413.541,-137.707 424.667,-135.498 435,-134 655.93,-101.965 714.129,-122.689 936,-98 947.143,-96.7601 958.976,-95.1856 970.389,-93.5341"/>
<polygon fill="midnightblue" stroke="midnightblue" points="970.903,-96.9963 980.282,-92.0694 969.878,-90.0717 970.903,-96.9963"/>
</g>
<!-- Node13&#45;&gt;Node7 -->
<g id="edge17" class="edge"><title>Node13&#45;&gt;Node7</title>
<path fill="none" stroke="midnightblue" d="M649.137,-72.993C641.086,-70.7764 632.246,-68.5718 624,-67 480.374,-39.6236 442.122,-48.8185 297,-31 283.952,-29.398 270.024,-27.5856 256.677,-25.7983"/>
<polygon fill="midnightblue" stroke="midnightblue" points="256.985,-22.3083 246.607,-24.4404 256.05,-29.2455 256.985,-22.3083"/>
</g>
<!-- Node14 -->
<g id="node14" class="node"><title>Node14</title>
<polygon fill="white" stroke="#bfbfbf" points="306.5,-0.5 306.5,-30.5 417.5,-30.5 417.5,-0.5 306.5,-0.5"/>
<text text-anchor="start" x="314.5" y="-18.5" font-family="Helvetica,sans-Serif" font-size="10.00">boost/math/constants</text>
<text text-anchor="middle" x="362" y="-7.5" font-family="Helvetica,sans-Serif" font-size="10.00">/constants.hpp</text>
</g>
<!-- Node13&#45;&gt;Node14 -->
<g id="edge13" class="edge"><title>Node13&#45;&gt;Node14</title>
<path fill="none" stroke="midnightblue" d="M647.679,-72.9881C640.007,-70.8956 631.721,-68.7546 624,-67 539.847,-47.8766 515.343,-48.7925 427.66,-31.2836"/>
<polygon fill="midnightblue" stroke="midnightblue" points="428.312,-27.8448 417.817,-29.2944 426.926,-34.7061 428.312,-27.8448"/>
</g>
<!-- Node15 -->
<g id="node15" class="node"><title>Node15</title>
<polygon fill="white" stroke="#bfbfbf" points="681.5,-6 681.5,-25 802.5,-25 802.5,-6 681.5,-6"/>
<text text-anchor="middle" x="742" y="-13" font-family="Helvetica,sans-Serif" font-size="10.00">boost/units/quantity.hpp</text>
</g>
<!-- Node13&#45;&gt;Node15 -->
<g id="edge14" class="edge"><title>Node13&#45;&gt;Node15</title>
<path fill="none" stroke="midnightblue" d="M685.766,-72.7338C696.097,-62.403 713.463,-45.0371 726.168,-32.3315"/>
<polygon fill="midnightblue" stroke="midnightblue" points="728.776,-34.6733 733.373,-25.1273 723.827,-29.7235 728.776,-34.6733"/>
</g>
<!-- Node16 -->
<g id="node16" class="node"><title>Node16</title>
<polygon fill="white" stroke="#bfbfbf" points="435.5,-0.5 435.5,-30.5 540.5,-30.5 540.5,-0.5 435.5,-0.5"/>
<text text-anchor="start" x="443.5" y="-18.5" font-family="Helvetica,sans-Serif" font-size="10.00">boost/units/systems</text>
<text text-anchor="middle" x="488" y="-7.5" font-family="Helvetica,sans-Serif" font-size="10.00">/si/plane_angle.hpp</text>
</g>
<!-- Node13&#45;&gt;Node16 -->
<g id="edge15" class="edge"><title>Node13&#45;&gt;Node16</title>
<path fill="none" stroke="midnightblue" d="M651.902,-72.8685C623.051,-62.9461 574.965,-46.4085 538.318,-33.8051"/>
<polygon fill="midnightblue" stroke="midnightblue" points="539.384,-30.4706 528.789,-30.5281 537.107,-37.0901 539.384,-30.4706"/>
</g>
<!-- Node17 -->
<g id="node17" class="node"><title>Node17</title>
<polygon fill="white" stroke="#bfbfbf" points="558.5,-0.5 558.5,-30.5 663.5,-30.5 663.5,-0.5 558.5,-0.5"/>
<text text-anchor="start" x="566.5" y="-18.5" font-family="Helvetica,sans-Serif" font-size="10.00">boost/units/systems</text>
<text text-anchor="middle" x="611" y="-7.5" font-family="Helvetica,sans-Serif" font-size="10.00">/si/length.hpp</text>
</g>
<!-- Node13&#45;&gt;Node17 -->
<g id="edge16" class="edge"><title>Node13&#45;&gt;Node17</title>
<path fill="none" stroke="midnightblue" d="M668.099,-72.7338C659.008,-63.7804 644.551,-49.543 632.46,-37.6346"/>
<polygon fill="midnightblue" stroke="midnightblue" points="634.887,-35.1122 625.306,-30.589 629.975,-40.0996 634.887,-35.1122"/>
</g>
<!-- Node18&#45;&gt;Node15 -->
<g id="edge21" class="edge"><title>Node18&#45;&gt;Node15</title>
<path fill="none" stroke="midnightblue" d="M859.94,-72.8685C836.773,-61.7961 796.371,-42.4862 769.405,-29.5978"/>
<polygon fill="midnightblue" stroke="midnightblue" points="770.666,-26.3216 760.134,-25.1672 767.648,-32.6373 770.666,-26.3216"/>
</g>
<!-- Node19 -->
<g id="node19" class="node"><title>Node19</title>
<polygon fill="white" stroke="#bfbfbf" points="953.5,-6 953.5,-25 1110.5,-25 1110.5,-6 953.5,-6"/>
<text text-anchor="middle" x="1032" y="-13" font-family="Helvetica,sans-Serif" font-size="10.00">boost/units/base_dimension.hpp</text>
</g>
<!-- Node18&#45;&gt;Node19 -->
<g id="edge19" class="edge"><title>Node18&#45;&gt;Node19</title>
<path fill="none" stroke="midnightblue" d="M898.45,-72.8685C925.028,-61.6504 971.64,-41.9766 1002.17,-29.0925"/>
<polygon fill="midnightblue" stroke="midnightblue" points="1003.61,-32.2804 1011.47,-25.1672 1000.89,-25.8313 1003.61,-32.2804"/>
</g>
<!-- Node20 -->
<g id="node20" class="node"><title>Node20</title>
<polygon fill="white" stroke="#bfbfbf" points="1129,-6 1129,-25 1257,-25 1257,-6 1129,-6"/>
<text text-anchor="middle" x="1193" y="-13" font-family="Helvetica,sans-Serif" font-size="10.00">boost/units/base_unit.hpp</text>
</g>
<!-- Node18&#45;&gt;Node20 -->
<g id="edge20" class="edge"><title>Node18&#45;&gt;Node20</title>
<path fill="none" stroke="midnightblue" d="M919.505,-72.9355C976.713,-61.1306 1079.74,-39.8716 1141.7,-27.0853"/>
<polygon fill="midnightblue" stroke="midnightblue" points="1142.57,-30.4805 1151.65,-25.0317 1141.15,-23.6249 1142.57,-30.4805"/>
</g>
<!-- Node21 -->
<g id="node21" class="node"><title>Node21</title>
<polygon fill="white" stroke="#bfbfbf" points="820.5,-0.5 820.5,-30.5 935.5,-30.5 935.5,-0.5 820.5,-0.5"/>
<text text-anchor="start" x="828.5" y="-18.5" font-family="Helvetica,sans-Serif" font-size="10.00">boost/units/base_units</text>
<text text-anchor="middle" x="878" y="-7.5" font-family="Helvetica,sans-Serif" font-size="10.00">/metric/barn.hpp</text>
</g>
<!-- Node18&#45;&gt;Node21 -->
<g id="edge22" class="edge"><title>Node18&#45;&gt;Node21</title>
<path fill="none" stroke="midnightblue" d="M878,-72.7338C878,-64.5406 878,-51.9225 878,-40.7136"/>
<polygon fill="midnightblue" stroke="midnightblue" points="881.5,-40.589 878,-30.589 874.5,-40.5891 881.5,-40.589"/>
</g>
<!-- Node22&#45;&gt;Node15 -->
<g id="edge26" class="edge"><title>Node22&#45;&gt;Node15</title>
<path fill="none" stroke="midnightblue" d="M993.789,-72.9355C941.411,-61.1956 847.316,-40.1052 790.172,-27.2971"/>
<polygon fill="midnightblue" stroke="midnightblue" points="790.819,-23.8553 780.295,-25.0834 789.288,-30.6859 790.819,-23.8553"/>
</g>
<!-- Node22&#45;&gt;Node19 -->
<g id="edge24" class="edge"><title>Node22&#45;&gt;Node19</title>
<path fill="none" stroke="midnightblue" d="M1032,-72.7338C1032,-63.1826 1032,-47.6183 1032,-35.2829"/>
<polygon fill="midnightblue" stroke="midnightblue" points="1035.5,-35.1273 1032,-25.1273 1028.5,-35.1273 1035.5,-35.1273"/>
</g>
<!-- Node22&#45;&gt;Node20 -->
<g id="edge25" class="edge"><title>Node22&#45;&gt;Node20</title>
<path fill="none" stroke="midnightblue" d="M1053.38,-72.8685C1081.36,-61.5706 1130.59,-41.6961 1162.49,-28.8183"/>
<polygon fill="midnightblue" stroke="midnightblue" points="1163.83,-32.0529 1171.79,-25.0637 1161.21,-25.5619 1163.83,-32.0529"/>
</g>
<!-- Node23 -->
<g id="node23" class="node"><title>Node23</title>
<polygon fill="white" stroke="#bfbfbf" points="1275.5,-0.5 1275.5,-30.5 1380.5,-30.5 1380.5,-0.5 1275.5,-0.5"/>
<text text-anchor="start" x="1283.5" y="-18.5" font-family="Helvetica,sans-Serif" font-size="10.00">boost/units/systems</text>
<text text-anchor="middle" x="1328" y="-7.5" font-family="Helvetica,sans-Serif" font-size="10.00">/si/energy.hpp</text>
</g>
<!-- Node22&#45;&gt;Node23 -->
<g id="edge27" class="edge"><title>Node22&#45;&gt;Node23</title>
<path fill="none" stroke="midnightblue" d="M1072.63,-72.9531C1117.33,-63.5003 1191.56,-47.6594 1265.32,-31.1318"/>
<polygon fill="midnightblue" stroke="midnightblue" points="1266.26,-34.5081 1275.25,-28.9019 1264.73,-27.6782 1266.26,-34.5081"/>
</g>
<!-- Node25 -->
<g id="node25" class="node"><title>Node25</title>
<polygon fill="white" stroke="#bfbfbf" points="700,-140 700,-159 744,-159 744,-140 700,-140"/>
<text text-anchor="middle" x="722" y="-147" font-family="Helvetica,sans-Serif" font-size="10.00">vector</text>
</g>
<!-- Node24&#45;&gt;Node25 -->
<g id="edge29" class="edge"><title>Node24&#45;&gt;Node25</title>
<path fill="none" stroke="midnightblue" d="M640.611,-201.475C656.061,-191.799 681.49,-175.872 699.816,-164.394"/>
<polygon fill="midnightblue" stroke="midnightblue" points="701.797,-167.283 708.414,-159.009 698.081,-161.351 701.797,-167.283"/>
</g>
<!-- Node26 -->
<g id="node26" class="node"><title>Node26</title>
<polygon fill="white" stroke="#bfbfbf" points="444,-134.5 444,-164.5 554,-164.5 554,-134.5 444,-134.5"/>
<text text-anchor="start" x="452" y="-152.5" font-family="Helvetica,sans-Serif" font-size="10.00">boost/range/algorithm</text>
<text text-anchor="middle" x="499" y="-141.5" font-family="Helvetica,sans-Serif" font-size="10.00">/lower_bound.hpp</text>
</g>
<!-- Node24&#45;&gt;Node26 -->
<g id="edge30" class="edge"><title>Node24&#45;&gt;Node26</title>
<path fill="none" stroke="midnightblue" d="M608.661,-201.475C590.434,-193.002 561.897,-179.737 538.503,-168.863"/>
<polygon fill="midnightblue" stroke="midnightblue" points="539.711,-165.564 529.167,-164.523 536.76,-171.912 539.711,-165.564"/>
</g>
<!-- Node27 -->
<g id="node27" class="node"><title>Node27</title>
<polygon fill="white" stroke="#bfbfbf" points="572,-134.5 572,-164.5 682,-164.5 682,-134.5 572,-134.5"/>
<text text-anchor="start" x="580" y="-152.5" font-family="Helvetica,sans-Serif" font-size="10.00">boost/range/algorithm</text>
<text text-anchor="middle" x="627" y="-141.5" font-family="Helvetica,sans-Serif" font-size="10.00">/upper_bound.hpp</text>
</g>
<!-- Node24&#45;&gt;Node27 -->
<g id="edge31" class="edge"><title>Node24&#45;&gt;Node27</title>
<path fill="none" stroke="midnightblue" d="M627,-201.475C627,-194.471 627,-184.192 627,-174.696"/>
<polygon fill="midnightblue" stroke="midnightblue" points="630.5,-174.523 627,-164.523 623.5,-174.523 630.5,-174.523"/>
</g>
<!-- Node29 -->
<g id="node29" class="node"><title>Node29</title>
<g id="a_node29"><a xlink:href="LorentzVector_8hh.html" target="_top" xlink:title="boca/math/LorentzVector.hh">
<polygon fill="white" stroke="black" points="548,-447.5 548,-466.5 688,-466.5 688,-447.5 548,-447.5"/>
<text text-anchor="middle" x="618" y="-454.5" font-family="Helvetica,sans-Serif" font-size="10.00">boca/math/LorentzVector.hh</text>
</a>
</g>
</g>
<!-- Node28&#45;&gt;Node29 -->
<g id="edge33" class="edge"><title>Node28&#45;&gt;Node29</title>
<path fill="none" stroke="midnightblue" d="M618,-503.083C618,-496.006 618,-485.861 618,-476.986"/>
<polygon fill="midnightblue" stroke="midnightblue" points="621.5,-476.751 618,-466.751 614.5,-476.751 621.5,-476.751"/>
</g>
<!-- Node50 -->
<g id="node50" class="node"><title>Node50</title>
<g id="a_node50"><a xlink:href="GradedContainer_8hh.html" target="_top" xlink:title="boca/math/GradedContainer.hh">
<polygon fill="white" stroke="black" points="855,-447.5 855,-466.5 1007,-466.5 1007,-447.5 855,-447.5"/>
<text text-anchor="middle" x="931" y="-454.5" font-family="Helvetica,sans-Serif" font-size="10.00">boca/math/GradedContainer.hh</text>
</a>
</g>
</g>
<!-- Node28&#45;&gt;Node50 -->
<g id="edge58" class="edge"><title>Node28&#45;&gt;Node50</title>
<path fill="none" stroke="midnightblue" d="M667.596,-503.444C722.999,-493.885 812.643,-478.419 871.705,-468.23"/>
<polygon fill="midnightblue" stroke="midnightblue" points="872.377,-471.666 881.636,-466.516 871.187,-464.768 872.377,-471.666"/>
</g>
<!-- Node30 -->
<g id="node30" class="node"><title>Node30</title>
<g id="a_node30"><a xlink:href="delphes_2delphes_2Forward_8hh.html" target="_top" xlink:title="external/delphes/delphes\l/Forward.hh">
<polygon fill="white" stroke="black" points="419.5,-380.5 419.5,-410.5 544.5,-410.5 544.5,-380.5 419.5,-380.5"/>
<text text-anchor="start" x="427.5" y="-398.5" font-family="Helvetica,sans-Serif" font-size="10.00">external/delphes/delphes</text>
<text text-anchor="middle" x="482" y="-387.5" font-family="Helvetica,sans-Serif" font-size="10.00">/Forward.hh</text>
</a>
</g>
</g>
<!-- Node29&#45;&gt;Node30 -->
<g id="edge34" class="edge"><title>Node29&#45;&gt;Node30</title>
<path fill="none" stroke="midnightblue" d="M598.515,-447.475C578.976,-438.927 548.288,-425.501 523.311,-414.573"/>
<polygon fill="midnightblue" stroke="midnightblue" points="524.617,-411.325 514.053,-410.523 521.811,-417.738 524.617,-411.325"/>
</g>
<!-- Node32 -->
<g id="node32" class="node"><title>Node32</title>
<g id="a_node32"><a xlink:href="exroot_2exroot_2Forward_8hh.html" target="_top" xlink:title="external/exroot/exroot\l/Forward.hh">
<polygon fill="white" stroke="black" points="562.5,-380.5 562.5,-410.5 673.5,-410.5 673.5,-380.5 562.5,-380.5"/>
<text text-anchor="start" x="570.5" y="-398.5" font-family="Helvetica,sans-Serif" font-size="10.00">external/exroot/exroot</text>
<text text-anchor="middle" x="618" y="-387.5" font-family="Helvetica,sans-Serif" font-size="10.00">/Forward.hh</text>
</a>
</g>
</g>
<!-- Node29&#45;&gt;Node32 -->
<g id="edge36" class="edge"><title>Node29&#45;&gt;Node32</title>
<path fill="none" stroke="midnightblue" d="M618,-447.475C618,-440.471 618,-430.192 618,-420.696"/>
<polygon fill="midnightblue" stroke="midnightblue" points="621.5,-420.523 618,-410.523 614.5,-420.523 621.5,-420.523"/>
</g>
<!-- Node34 -->
<g id="node34" class="node"><title>Node34</title>
<g id="a_node34"><a xlink:href="LorentzVectorBase_8hh.html" target="_top" xlink:title="boca/math/LorentzVectorBase.hh">
<polygon fill="white" stroke="black" points="692,-386 692,-405 854,-405 854,-386 692,-386"/>
<text text-anchor="middle" x="773" y="-393" font-family="Helvetica,sans-Serif" font-size="10.00">boca/math/LorentzVectorBase.hh</text>
</a>
</g>
</g>
<!-- Node29&#45;&gt;Node34 -->
<g id="edge38" class="edge"><title>Node29&#45;&gt;Node34</title>
<path fill="none" stroke="midnightblue" d="M640.208,-447.475C666.681,-437.313 711.114,-420.256 741.22,-408.7"/>
<polygon fill="midnightblue" stroke="midnightblue" points="742.752,-411.86 750.833,-405.009 740.243,-405.325 742.752,-411.86"/>
</g>
<!-- Node31 -->
<g id="node31" class="node"><title>Node31</title>
<g id="a_node31"><a xlink:href="delphes_2delphes_2TypeDef_8hh.html" target="_top" xlink:title="external/delphes/delphes\l/TypeDef.hh">
<polygon fill="white" stroke="black" points="419.5,-313.5 419.5,-343.5 544.5,-343.5 544.5,-313.5 419.5,-313.5"/>
<text text-anchor="start" x="427.5" y="-331.5" font-family="Helvetica,sans-Serif" font-size="10.00">external/delphes/delphes</text>
<text text-anchor="middle" x="482" y="-320.5" font-family="Helvetica,sans-Serif" font-size="10.00">/TypeDef.hh</text>
</a>
</g>
</g>
<!-- Node30&#45;&gt;Node31 -->
<g id="edge35" class="edge"><title>Node30&#45;&gt;Node31</title>
<path fill="none" stroke="midnightblue" d="M482,-380.396C482,-372.645 482,-362.812 482,-353.86"/>
<polygon fill="midnightblue" stroke="midnightblue" points="485.5,-353.576 482,-343.577 478.5,-353.577 485.5,-353.576"/>
</g>
<!-- Node33 -->
<g id="node33" class="node"><title>Node33</title>
<g id="a_node33"><a xlink:href="exroot_2exroot_2TypeDef_8hh.html" target="_top" xlink:title="external/exroot/exroot\l/TypeDef.hh">
<polygon fill="white" stroke="black" points="562.5,-313.5 562.5,-343.5 673.5,-343.5 673.5,-313.5 562.5,-313.5"/>
<text text-anchor="start" x="570.5" y="-331.5" font-family="Helvetica,sans-Serif" font-size="10.00">external/exroot/exroot</text>
<text text-anchor="middle" x="618" y="-320.5" font-family="Helvetica,sans-Serif" font-size="10.00">/TypeDef.hh</text>
</a>
</g>
</g>
<!-- Node32&#45;&gt;Node33 -->
<g id="edge37" class="edge"><title>Node32&#45;&gt;Node33</title>
<path fill="none" stroke="midnightblue" d="M618,-380.396C618,-372.645 618,-362.812 618,-353.86"/>
<polygon fill="midnightblue" stroke="midnightblue" points="621.5,-353.576 618,-343.577 614.5,-353.577 621.5,-353.576"/>
</g>
<!-- Node35 -->
<g id="node35" class="node"><title>Node35</title>
<polygon fill="white" stroke="#bfbfbf" points="694.5,-319 694.5,-338 739.5,-338 739.5,-319 694.5,-319"/>
<text text-anchor="middle" x="717" y="-326" font-family="Helvetica,sans-Serif" font-size="10.00">climits</text>
</g>
<!-- Node34&#45;&gt;Node35 -->
<g id="edge39" class="edge"><title>Node34&#45;&gt;Node35</title>
<path fill="none" stroke="midnightblue" d="M765.448,-385.734C756.715,-375.598 742.148,-358.69 731.263,-346.056"/>
<polygon fill="midnightblue" stroke="midnightblue" points="733.612,-343.419 724.433,-338.127 728.308,-347.988 733.612,-343.419"/>
</g>
<!-- Node36 -->
<g id="node36" class="node"><title>Node36</title>
<g id="a_node36"><a xlink:href="Vector3_8hh.html" target="_top" xlink:title="boca/math/Vector3.hh">
<polygon fill="white" stroke="black" points="757.5,-319 757.5,-338 870.5,-338 870.5,-319 757.5,-319"/>
<text text-anchor="middle" x="814" y="-326" font-family="Helvetica,sans-Serif" font-size="10.00">boca/math/Vector3.hh</text>
</a>
</g>
</g>
<!-- Node34&#45;&gt;Node36 -->
<g id="edge40" class="edge"><title>Node34&#45;&gt;Node36</title>
<path fill="none" stroke="midnightblue" d="M778.529,-385.734C784.8,-375.793 795.179,-359.338 803.095,-346.789"/>
<polygon fill="midnightblue" stroke="midnightblue" points="806.183,-348.453 808.558,-338.127 800.263,-344.718 806.183,-348.453"/>
</g>
<!-- Node37 -->
<g id="node37" class="node"><title>Node37</title>
<polygon fill="white" stroke="#bfbfbf" points="701.5,-257.5 701.5,-276.5 766.5,-276.5 766.5,-257.5 701.5,-257.5"/>
<text text-anchor="middle" x="734" y="-264.5" font-family="Helvetica,sans-Serif" font-size="10.00">TVector3.h</text>
</g>
<!-- Node36&#45;&gt;Node37 -->
<g id="edge41" class="edge"><title>Node36&#45;&gt;Node37</title>
<path fill="none" stroke="midnightblue" d="M802.538,-318.975C789.825,-309.52 769.087,-294.096 753.747,-282.687"/>
<polygon fill="midnightblue" stroke="midnightblue" points="755.554,-279.669 745.441,-276.509 751.376,-285.285 755.554,-279.669"/>
</g>
<!-- Node38 -->
<g id="node38" class="node"><title>Node38</title>
<g id="a_node38"><a xlink:href="Vector2_8hh.html" target="_top" xlink:title="boca/math/Vector2.hh">
<polygon fill="white" stroke="black" points="784.5,-257.5 784.5,-276.5 897.5,-276.5 897.5,-257.5 784.5,-257.5"/>
<text text-anchor="middle" x="841" y="-264.5" font-family="Helvetica,sans-Serif" font-size="10.00">boca/math/Vector2.hh</text>
</a>
</g>
</g>
<!-- Node36&#45;&gt;Node38 -->
<g id="edge42" class="edge"><title>Node36&#45;&gt;Node38</title>
<path fill="none" stroke="midnightblue" d="M817.868,-318.975C821.798,-310.315 828,-296.649 832.993,-285.645"/>
<polygon fill="midnightblue" stroke="midnightblue" points="836.194,-287.062 837.139,-276.509 829.819,-284.169 836.194,-287.062"/>
</g>
<!-- Node38&#45;&gt;Node6 -->
<g id="edge56" class="edge"><title>Node38&#45;&gt;Node6</title>
<path fill="none" stroke="midnightblue" d="M784.486,-258.201C781.278,-257.787 778.099,-257.384 775,-257 653.512,-241.953 511.175,-226.637 432.022,-218.325"/>
<polygon fill="midnightblue" stroke="midnightblue" points="432.06,-214.809 421.75,-217.248 431.331,-221.771 432.06,-214.809"/>
</g>
<!-- Node38&#45;&gt;Node24 -->
<g id="edge57" class="edge"><title>Node38&#45;&gt;Node24</title>
<path fill="none" stroke="midnightblue" d="M807.091,-257.444C770.151,-248.122 710.946,-233.183 670.582,-222.997"/>
<polygon fill="midnightblue" stroke="midnightblue" points="671.303,-219.57 660.75,-220.516 669.59,-226.357 671.303,-219.57"/>
</g>
<!-- Node39 -->
<g id="node39" class="node"><title>Node39</title>
<polygon fill="white" stroke="#bfbfbf" points="1132.5,-201.5 1132.5,-220.5 1235.5,-220.5 1235.5,-201.5 1132.5,-201.5"/>
<text text-anchor="middle" x="1184" y="-208.5" font-family="Helvetica,sans-Serif" font-size="10.00">boost/operators.hpp</text>
</g>
<!-- Node38&#45;&gt;Node39 -->
<g id="edge43" class="edge"><title>Node38&#45;&gt;Node39</title>
<path fill="none" stroke="midnightblue" d="M895.349,-257.444C957.121,-247.719 1057.73,-231.879 1122.37,-221.702"/>
<polygon fill="midnightblue" stroke="midnightblue" points="1123.09,-225.132 1132.43,-220.119 1122.01,-218.217 1123.09,-225.132"/>
</g>
<!-- Node40 -->
<g id="node40" class="node"><title>Node40</title>
<polygon fill="white" stroke="#bfbfbf" points="701.5,-201.5 701.5,-220.5 766.5,-220.5 766.5,-201.5 701.5,-201.5"/>
<text text-anchor="middle" x="734" y="-208.5" font-family="Helvetica,sans-Serif" font-size="10.00">TVector2.h</text>
</g>
<!-- Node38&#45;&gt;Node40 -->
<g id="edge44" class="edge"><title>Node38&#45;&gt;Node40</title>
<path fill="none" stroke="midnightblue" d="M823.809,-257.324C806.649,-248.664 780.054,-235.242 760.253,-225.249"/>
<polygon fill="midnightblue" stroke="midnightblue" points="761.653,-222.035 751.149,-220.655 758.499,-228.285 761.653,-222.035"/>
</g>
<!-- Node41 -->
<g id="node41" class="node"><title>Node41</title>
<g id="a_node41"><a xlink:href="Debug_8hh.html" target="_top" xlink:title="boca/generic/Debug.hh">
<polygon fill="white" stroke="black" points="784.5,-201.5 784.5,-220.5 901.5,-220.5 901.5,-201.5 784.5,-201.5"/>
<text text-anchor="middle" x="843" y="-208.5" font-family="Helvetica,sans-Serif" font-size="10.00">boca/generic/Debug.hh</text>
</a>
</g>
</g>
<!-- Node38&#45;&gt;Node41 -->
<g id="edge45" class="edge"><title>Node38&#45;&gt;Node41</title>
<path fill="none" stroke="midnightblue" d="M841.33,-257.083C841.592,-250.006 841.968,-239.861 842.297,-230.986"/>
<polygon fill="midnightblue" stroke="midnightblue" points="845.803,-230.874 842.676,-220.751 838.808,-230.615 845.803,-230.874"/>
</g>
<!-- Node46 -->
<g id="node46" class="node"><title>Node46</title>
<g id="a_node46"><a xlink:href="Iterator_8hh.html" target="_top" xlink:title="boca/generic/Iterator.hh">
<polygon fill="white" stroke="red" points="995.5,-201.5 995.5,-220.5 1114.5,-220.5 1114.5,-201.5 995.5,-201.5"/>
<text text-anchor="middle" x="1055" y="-208.5" font-family="Helvetica,sans-Serif" font-size="10.00">boca/generic/Iterator.hh</text>
</a>
</g>
</g>
<!-- Node38&#45;&gt;Node46 -->
<g id="edge52" class="edge"><title>Node38&#45;&gt;Node46</title>
<path fill="none" stroke="midnightblue" d="M874.909,-257.444C911.849,-248.122 971.054,-233.183 1011.42,-222.997"/>
<polygon fill="midnightblue" stroke="midnightblue" points="1012.41,-226.357 1021.25,-220.516 1010.7,-219.57 1012.41,-226.357"/>
</g>
<!-- Node41&#45;&gt;Node4 -->
<g id="edge50" class="edge"><title>Node41&#45;&gt;Node4</title>
<path fill="none" stroke="midnightblue" d="M784.422,-202.004C781.237,-201.645 778.081,-201.308 775,-201 634.699,-186.994 196.112,-160.524 64.625,-152.719"/>
<polygon fill="midnightblue" stroke="midnightblue" points="64.467,-149.204 54.2774,-152.106 64.0528,-156.191 64.467,-149.204"/>
</g>
<!-- Node41&#45;&gt;Node25 -->
<g id="edge47" class="edge"><title>Node41&#45;&gt;Node25</title>
<path fill="none" stroke="midnightblue" d="M825.664,-201.475C805.447,-191.534 771.813,-174.995 748.358,-163.461"/>
<polygon fill="midnightblue" stroke="midnightblue" points="749.822,-160.281 739.304,-159.009 746.733,-166.563 749.822,-160.281"/>
</g>
<!-- Node42 -->
<g id="node42" class="node"><title>Node42</title>
<polygon fill="white" stroke="#bfbfbf" points="762.5,-140 762.5,-159 803.5,-159 803.5,-140 762.5,-140"/>
<text text-anchor="middle" x="783" y="-147" font-family="Helvetica,sans-Serif" font-size="10.00">string</text>
</g>
<!-- Node41&#45;&gt;Node42 -->
<g id="edge46" class="edge"><title>Node41&#45;&gt;Node42</title>
<path fill="none" stroke="midnightblue" d="M834.403,-201.475C825.136,-192.285 810.183,-177.456 798.788,-166.156"/>
<polygon fill="midnightblue" stroke="midnightblue" points="801.146,-163.565 791.581,-159.009 796.217,-168.536 801.146,-163.565"/>
</g>
<!-- Node43 -->
<g id="node43" class="node"><title>Node43</title>
<polygon fill="white" stroke="#bfbfbf" points="822,-140 822,-159 874,-159 874,-140 822,-140"/>
<text text-anchor="middle" x="848" y="-147" font-family="Helvetica,sans-Serif" font-size="10.00">sstream</text>
</g>
<!-- Node41&#45;&gt;Node43 -->
<g id="edge48" class="edge"><title>Node41&#45;&gt;Node43</title>
<path fill="none" stroke="midnightblue" d="M843.716,-201.475C844.422,-193.08 845.523,-179.981 846.432,-169.163"/>
<polygon fill="midnightblue" stroke="midnightblue" points="849.935,-169.267 847.285,-159.009 842.96,-168.681 849.935,-169.267"/>
</g>
<!-- Node44 -->
<g id="node44" class="node"><title>Node44</title>
<polygon fill="white" stroke="#bfbfbf" points="892,-140 892,-159 942,-159 942,-140 892,-140"/>
<text text-anchor="middle" x="917" y="-147" font-family="Helvetica,sans-Serif" font-size="10.00">iomanip</text>
</g>
<!-- Node41&#45;&gt;Node44 -->
<g id="edge49" class="edge"><title>Node41&#45;&gt;Node44</title>
<path fill="none" stroke="midnightblue" d="M853.602,-201.475C865.252,-192.108 884.186,-176.884 898.335,-165.508"/>
<polygon fill="midnightblue" stroke="midnightblue" points="900.817,-168.003 906.417,-159.009 896.431,-162.548 900.817,-168.003"/>
</g>
<!-- Node45 -->
<g id="node45" class="node"><title>Node45</title>
<polygon fill="white" stroke="#bfbfbf" points="960.5,-134.5 960.5,-164.5 1065.5,-164.5 1065.5,-134.5 960.5,-134.5"/>
<text text-anchor="start" x="968.5" y="-152.5" font-family="Helvetica,sans-Serif" font-size="10.00">boost/units/systems</text>
<text text-anchor="middle" x="1013" y="-141.5" font-family="Helvetica,sans-Serif" font-size="10.00">/si/io.hpp</text>
</g>
<!-- Node41&#45;&gt;Node45 -->
<g id="edge51" class="edge"><title>Node41&#45;&gt;Node45</title>
<path fill="none" stroke="midnightblue" d="M867.357,-201.475C892.318,-192.739 931.836,-178.907 963.414,-167.855"/>
<polygon fill="midnightblue" stroke="midnightblue" points="964.652,-171.13 972.934,-164.523 962.34,-164.523 964.652,-171.13"/>
</g>
<!-- Node47 -->
<g id="node47" class="node"><title>Node47</title>
<polygon fill="white" stroke="#bfbfbf" points="1083.5,-134.5 1083.5,-164.5 1188.5,-164.5 1188.5,-134.5 1083.5,-134.5"/>
<text text-anchor="start" x="1091.5" y="-152.5" font-family="Helvetica,sans-Serif" font-size="10.00">boost/range/mutable</text>
<text text-anchor="middle" x="1136" y="-141.5" font-family="Helvetica,sans-Serif" font-size="10.00">_iterator.hpp</text>
</g>
<!-- Node46&#45;&gt;Node47 -->
<g id="edge53" class="edge"><title>Node46&#45;&gt;Node47</title>
<path fill="none" stroke="midnightblue" d="M1066.61,-201.475C1077.58,-193.417 1094.45,-181.023 1108.81,-170.474"/>
<polygon fill="midnightblue" stroke="midnightblue" points="1110.92,-173.264 1116.91,-164.523 1106.78,-167.622 1110.92,-173.264"/>
</g>
<!-- Node48 -->
<g id="node48" class="node"><title>Node48</title>
<polygon fill="white" stroke="#bfbfbf" points="1206.5,-140 1206.5,-159 1355.5,-159 1355.5,-140 1206.5,-140"/>
<text text-anchor="middle" x="1281" y="-147" font-family="Helvetica,sans-Serif" font-size="10.00">boost/range/const_iterator.hpp</text>
</g>
<!-- Node46&#45;&gt;Node48 -->
<g id="edge54" class="edge"><title>Node46&#45;&gt;Node48</title>
<path fill="none" stroke="midnightblue" d="M1087.38,-201.475C1127.24,-190.982 1195.02,-173.137 1238.89,-161.587"/>
<polygon fill="midnightblue" stroke="midnightblue" points="1239.9,-164.94 1248.68,-159.009 1238.12,-158.17 1239.9,-164.94"/>
</g>
<!-- Node49 -->
<g id="node49" class="node"><title>Node49</title>
<polygon fill="white" stroke="#bfbfbf" points="1373.5,-134.5 1373.5,-164.5 1480.5,-164.5 1480.5,-134.5 1373.5,-134.5"/>
<text text-anchor="start" x="1381.5" y="-152.5" font-family="Helvetica,sans-Serif" font-size="10.00">boost/iterator/iterator</text>
<text text-anchor="middle" x="1427" y="-141.5" font-family="Helvetica,sans-Serif" font-size="10.00">_facade.hpp</text>
</g>
<!-- Node46&#45;&gt;Node49 -->
<g id="edge55" class="edge"><title>Node46&#45;&gt;Node49</title>
<path fill="none" stroke="midnightblue" d="M1114.55,-201.917C1186.16,-192.101 1303.22,-175.723 1363.27,-165.006"/>
<polygon fill="midnightblue" stroke="midnightblue" points="1364.24,-168.386 1373.45,-163.139 1362.98,-161.5 1364.24,-168.386"/>
</g>
<!-- Node50&#45;&gt;Node39 -->
<g id="edge59" class="edge"><title>Node50&#45;&gt;Node39</title>
<path fill="none" stroke="midnightblue" d="M940.004,-447.316C977.2,-411.443 1119.19,-274.503 1167.67,-227.751"/>
<polygon fill="midnightblue" stroke="midnightblue" points="1170.34,-230.041 1175.1,-220.58 1165.48,-225.003 1170.34,-230.041"/>
</g>
</g>
</svg>
