<?xml version="1.0" encoding="UTF-8" standalone="no"?>
<!DOCTYPE svg PUBLIC "-//W3C//DTD SVG 1.1//EN"
 "http://www.w3.org/Graphics/SVG/1.1/DTD/svg11.dtd">
<!-- Generated by graphviz version 2.38.0 (20140413.2041)
 -->
<!-- Title: examples/tthh/source/tagger/HiggsSemiLeptonic.cpp Pages: 1 -->
<svg width="2388pt" height="576pt"
 viewBox="0.00 0.00 2388.00 576.00" xmlns="http://www.w3.org/2000/svg" xmlns:xlink="http://www.w3.org/1999/xlink">
<g id="graph0" class="graph" transform="scale(1 1) rotate(0) translate(4 572)">
<title>examples/tthh/source/tagger/HiggsSemiLeptonic.cpp</title>
<polygon fill="white" stroke="none" points="-4,4 -4,-572 2384,-572 2384,4 -4,4"/>
<!-- Node1 -->
<g id="node1" class="node"><title>Node1</title>
<polygon fill="#bfbfbf" stroke="black" points="1071,-537.5 1071,-567.5 1224,-567.5 1224,-537.5 1071,-537.5"/>
<text text-anchor="start" x="1079" y="-555.5" font-family="Helvetica,sans-Serif" font-size="10.00">examples/tthh/source</text>
<text text-anchor="middle" x="1147.5" y="-544.5" font-family="Helvetica,sans-Serif" font-size="10.00">/tagger/HiggsSemiLeptonic.cpp</text>
</g>
<!-- Node2 -->
<g id="node2" class="node"><title>Node2</title>
<polygon fill="white" stroke="#bfbfbf" points="0,-481.5 0,-500.5 159,-500.5 159,-481.5 0,-481.5"/>
<text text-anchor="middle" x="79.5" y="-488.5" font-family="Helvetica,sans-Serif" font-size="10.00">fastjet/tools/MassDropTagger.hh</text>
</g>
<!-- Node1&#45;&gt;Node2 -->
<g id="edge1" class="edge"><title>Node1&#45;&gt;Node2</title>
<path fill="none" stroke="midnightblue" d="M1070.86,-548.867C907.247,-542.96 511.447,-527.144 169.218,-501.097"/>
<polygon fill="midnightblue" stroke="midnightblue" points="169.347,-497.597 159.109,-500.324 168.813,-504.576 169.347,-497.597"/>
</g>
<!-- Node3 -->
<g id="node3" class="node"><title>Node3</title>
<polygon fill="white" stroke="#bfbfbf" points="176.5,-481.5 176.5,-500.5 282.5,-500.5 282.5,-481.5 176.5,-481.5"/>
<text text-anchor="middle" x="229.5" y="-488.5" font-family="Helvetica,sans-Serif" font-size="10.00">fastjet/tools/Filter.hh</text>
</g>
<!-- Node1&#45;&gt;Node3 -->
<g id="edge2" class="edge"><title>Node1&#45;&gt;Node3</title>
<path fill="none" stroke="midnightblue" d="M1070.78,-548.858C921.444,-543.292 581.372,-528.547 296.5,-501 295.39,-500.893 294.271,-500.781 293.143,-500.665"/>
<polygon fill="midnightblue" stroke="midnightblue" points="293.176,-497.148 282.852,-499.53 292.408,-504.105 293.176,-497.148"/>
</g>
<!-- Node4 -->
<g id="node4" class="node"><title>Node4</title>
<g id="a_node4"><a xlink:href="Types_8hh.html" target="_top" xlink:title="boca/generic/Types.hh">
<polygon fill="white" stroke="black" points="204.5,-302.5 204.5,-321.5 320.5,-321.5 320.5,-302.5 204.5,-302.5"/>
<text text-anchor="middle" x="262.5" y="-309.5" font-family="Helvetica,sans-Serif" font-size="10.00">boca/generic/Types.hh</text>
</a>
</g>
</g>
<!-- Node1&#45;&gt;Node4 -->
<g id="edge3" class="edge"><title>Node1&#45;&gt;Node4</title>
<path fill="none" stroke="midnightblue" d="M1070.73,-549.547C895.612,-544.61 477.341,-529.917 420.5,-501 344.804,-462.49 291.245,-370.082 271.204,-330.971"/>
<polygon fill="midnightblue" stroke="midnightblue" points="274.242,-329.221 266.642,-321.839 267.98,-332.349 274.242,-329.221"/>
</g>
<!-- Node7 -->
<g id="node7" class="node"><title>Node7</title>
<g id="a_node7"><a xlink:href="Exception_8hh.html" target="_top" xlink:title="boca/generic/Exception.hh">
<polygon fill="white" stroke="black" points="429.5,-481.5 429.5,-500.5 561.5,-500.5 561.5,-481.5 429.5,-481.5"/>
<text text-anchor="middle" x="495.5" y="-488.5" font-family="Helvetica,sans-Serif" font-size="10.00">boca/generic/Exception.hh</text>
</a>
</g>
</g>
<!-- Node1&#45;&gt;Node7 -->
<g id="edge6" class="edge"><title>Node1&#45;&gt;Node7</title>
<path fill="none" stroke="midnightblue" d="M1070.79,-544.5C945.225,-533.041 697.27,-510.413 571.904,-498.972"/>
<polygon fill="midnightblue" stroke="midnightblue" points="571.904,-495.458 561.627,-498.035 571.268,-502.429 571.904,-495.458"/>
</g>
<!-- Node9 -->
<g id="node9" class="node"><title>Node9</title>
<g id="a_node9"><a xlink:href="ClusterSequence_8hh.html" target="_top" xlink:title="boca/fastjet/ClusterSequence.hh">
<polygon fill="white" stroke="black" points="1574,-358.5 1574,-377.5 1733,-377.5 1733,-358.5 1574,-358.5"/>
<text text-anchor="middle" x="1653.5" y="-365.5" font-family="Helvetica,sans-Serif" font-size="10.00">boca/fastjet/ClusterSequence.hh</text>
</a>
</g>
</g>
<!-- Node1&#45;&gt;Node9 -->
<g id="edge9" class="edge"><title>Node1&#45;&gt;Node9</title>
<path fill="none" stroke="midnightblue" d="M1224.16,-548.688C1289.56,-544.095 1385.02,-532.113 1462.5,-501 1534.26,-472.183 1605.74,-412.421 1637.05,-384.281"/>
<polygon fill="midnightblue" stroke="midnightblue" points="1639.42,-386.86 1644.46,-377.54 1634.7,-381.684 1639.42,-386.86"/>
</g>
<!-- Node18 -->
<g id="node18" class="node"><title>Node18</title>
<g id="a_node18"><a xlink:href="Particles_8hh.html" target="_top" xlink:title="boca/multiplets/Particles.hh">
<polygon fill="white" stroke="black" points="2084,-302.5 2084,-321.5 2221,-321.5 2221,-302.5 2084,-302.5"/>
<text text-anchor="middle" x="2152.5" y="-309.5" font-family="Helvetica,sans-Serif" font-size="10.00">boca/multiplets/Particles.hh</text>
</a>
</g>
</g>
<!-- Node1&#45;&gt;Node18 -->
<g id="edge21" class="edge"><title>Node1&#45;&gt;Node18</title>
<path fill="none" stroke="midnightblue" d="M1224.16,-543.484C1295.43,-535.315 1404.31,-521 1497.5,-501 1738.53,-449.272 2021.15,-357.196 2117.95,-324.728"/>
<polygon fill="midnightblue" stroke="midnightblue" points="2119.16,-328.014 2127.52,-321.509 2116.93,-321.379 2119.16,-328.014"/>
</g>
<!-- Node23 -->
<g id="node23" class="node"><title>Node23</title>
<g id="a_node23"><a xlink:href="boca_2Event_8hh.html" target="_top" xlink:title="boca/Event.hh">
<polygon fill="white" stroke="black" points="1325.5,-302.5 1325.5,-321.5 1405.5,-321.5 1405.5,-302.5 1325.5,-302.5"/>
<text text-anchor="middle" x="1365.5" y="-309.5" font-family="Helvetica,sans-Serif" font-size="10.00">boca/Event.hh</text>
</a>
</g>
</g>
<!-- Node1&#45;&gt;Node23 -->
<g id="edge30" class="edge"><title>Node1&#45;&gt;Node23</title>
<path fill="none" stroke="midnightblue" d="M1163.91,-537.368C1186.55,-517.59 1228.2,-480.124 1260.5,-445 1296.51,-405.836 1334.29,-355.775 1353.2,-330.011"/>
<polygon fill="midnightblue" stroke="midnightblue" points="1356.2,-331.826 1359.27,-321.683 1350.55,-327.702 1356.2,-331.826"/>
</g>
<!-- Node27 -->
<g id="node27" class="node"><title>Node27</title>
<g id="a_node27"><a xlink:href="MomentumRange_8hh.html" target="_top" xlink:title="boca/MomentumRange.hh">
<polygon fill="white" stroke="black" points="1585,-302.5 1585,-321.5 1716,-321.5 1716,-302.5 1585,-302.5"/>
<text text-anchor="middle" x="1650.5" y="-309.5" font-family="Helvetica,sans-Serif" font-size="10.00">boca/MomentumRange.hh</text>
</a>
</g>
</g>
<!-- Node1&#45;&gt;Node27 -->
<g id="edge37" class="edge"><title>Node1&#45;&gt;Node27</title>
<path fill="none" stroke="midnightblue" d="M1177.09,-537.471C1267.02,-494.83 1536.27,-367.163 1623.15,-325.968"/>
<polygon fill="midnightblue" stroke="midnightblue" points="1624.82,-329.048 1632.36,-321.601 1621.83,-322.723 1624.82,-329.048"/>
</g>
<!-- Node37 -->
<g id="node37" class="node"><title>Node37</title>
<g id="a_node37"><a xlink:href="HiggsSemiLeptonic_8hh.html" target="_top" xlink:title="tthh/tagger/HiggsSemiLeptonic.hh">
<polygon fill="white" stroke="black" points="900.5,-481.5 900.5,-500.5 1064.5,-500.5 1064.5,-481.5 900.5,-481.5"/>
<text text-anchor="middle" x="982.5" y="-488.5" font-family="Helvetica,sans-Serif" font-size="10.00">tthh/tagger/HiggsSemiLeptonic.hh</text>
</a>
</g>
</g>
<!-- Node1&#45;&gt;Node37 -->
<g id="edge49" class="edge"><title>Node1&#45;&gt;Node37</title>
<path fill="none" stroke="midnightblue" d="M1108.4,-537.399C1080.34,-527.283 1042.93,-513.791 1016.19,-504.149"/>
<polygon fill="midnightblue" stroke="midnightblue" points="1017.1,-500.758 1006.51,-500.658 1014.73,-507.343 1017.1,-500.758"/>
</g>
<!-- Node50 -->
<g id="node50" class="node"><title>Node50</title>
<g id="a_node50"><a xlink:href="DEBUG__MACROS_8hh.html" target="_top" xlink:title="boca/generic/DEBUG\l_MACROS.hh">
<polygon fill="white" stroke="black" points="2269,-112.5 2269,-142.5 2380,-142.5 2380,-112.5 2269,-112.5"/>
<text text-anchor="start" x="2277" y="-130.5" font-family="Helvetica,sans-Serif" font-size="10.00">boca/generic/DEBUG</text>
<text text-anchor="middle" x="2324.5" y="-119.5" font-family="Helvetica,sans-Serif" font-size="10.00">_MACROS.hh</text>
</a>
</g>
</g>
<!-- Node1&#45;&gt;Node50 -->
<g id="edge77" class="edge"><title>Node1&#45;&gt;Node50</title>
<path fill="none" stroke="midnightblue" d="M1224.2,-552.236C1484.27,-552.699 2316.5,-536.703 2316.5,-313 2316.5,-313 2316.5,-313 2316.5,-255 2316.5,-219.346 2319.7,-178.151 2322.06,-152.711"/>
<polygon fill="midnightblue" stroke="midnightblue" points="2325.56,-152.809 2323.03,-142.521 2318.6,-152.142 2325.56,-152.809"/>
</g>
<!-- Node5 -->
<g id="node5" class="node"><title>Node5</title>
<polygon fill="white" stroke="#bfbfbf" points="383,-0.5 383,-19.5 424,-19.5 424,-0.5 383,-0.5"/>
<text text-anchor="middle" x="403.5" y="-7.5" font-family="Helvetica,sans-Serif" font-size="10.00">string</text>
</g>
<!-- Node4&#45;&gt;Node5 -->
<g id="edge4" class="edge"><title>Node4&#45;&gt;Node5</title>
<path fill="none" stroke="midnightblue" d="M262.5,-302.307C262.5,-283.062 262.5,-235.404 262.5,-195.5 262.5,-195.5 262.5,-195.5 262.5,-126.5 262.5,-69.6414 331.964,-35.6986 373.38,-20.5143"/>
<polygon fill="midnightblue" stroke="midnightblue" points="374.721,-23.753 382.997,-17.1386 372.403,-17.148 374.721,-23.753"/>
</g>
<!-- Node6 -->
<g id="node6" class="node"><title>Node6</title>
<polygon fill="white" stroke="#bfbfbf" points="118.5,-246.5 118.5,-265.5 234.5,-265.5 234.5,-246.5 118.5,-246.5"/>
<text text-anchor="middle" x="176.5" y="-253.5" font-family="Helvetica,sans-Serif" font-size="10.00">boost/range/irange.hpp</text>
</g>
<!-- Node4&#45;&gt;Node6 -->
<g id="edge5" class="edge"><title>Node4&#45;&gt;Node6</title>
<path fill="none" stroke="midnightblue" d="M248.683,-302.324C235.267,-293.9 214.676,-280.971 198.914,-271.074"/>
<polygon fill="midnightblue" stroke="midnightblue" points="200.613,-268.008 190.283,-265.655 196.891,-273.936 200.613,-268.008"/>
</g>
<!-- Node7&#45;&gt;Node5 -->
<g id="edge8" class="edge"><title>Node7&#45;&gt;Node5</title>
<path fill="none" stroke="midnightblue" d="M429.076,-483.969C314.179,-471.685 90.5,-438.806 90.5,-369 90.5,-369 90.5,-369 90.5,-126.5 90.5,-66.7544 293.759,-28.2959 372.686,-15.6144"/>
<polygon fill="midnightblue" stroke="midnightblue" points="373.629,-19.0091 382.963,-13.9966 372.541,-12.0942 373.629,-19.0091"/>
</g>
<!-- Node8 -->
<g id="node8" class="node"><title>Node8</title>
<polygon fill="white" stroke="#bfbfbf" points="466,-420 466,-439 525,-439 525,-420 466,-420"/>
<text text-anchor="middle" x="495.5" y="-427" font-family="Helvetica,sans-Serif" font-size="10.00">stdexcept</text>
</g>
<!-- Node7&#45;&gt;Node8 -->
<g id="edge7" class="edge"><title>Node7&#45;&gt;Node8</title>
<path fill="none" stroke="midnightblue" d="M495.5,-481.475C495.5,-473.08 495.5,-459.981 495.5,-449.163"/>
<polygon fill="midnightblue" stroke="midnightblue" points="499,-449.009 495.5,-439.009 492,-449.009 499,-449.009"/>
</g>
<!-- Node10 -->
<g id="node10" class="node"><title>Node10</title>
<g id="a_node10"><a xlink:href="Jet_8hh.html" target="_top" xlink:title="boca/multiplets/Jet.hh">
<polygon fill="white" stroke="black" points="1707,-246.5 1707,-265.5 1820,-265.5 1820,-246.5 1707,-246.5"/>
<text text-anchor="middle" x="1763.5" y="-253.5" font-family="Helvetica,sans-Serif" font-size="10.00">boca/multiplets/Jet.hh</text>
</a>
</g>
</g>
<!-- Node9&#45;&gt;Node10 -->
<g id="edge10" class="edge"><title>Node9&#45;&gt;Node10</title>
<path fill="none" stroke="midnightblue" d="M1672.39,-358.403C1688.03,-350.587 1710.1,-337.864 1725.5,-322 1738.71,-308.398 1749.14,-289.346 1755.71,-275.384"/>
<polygon fill="midnightblue" stroke="midnightblue" points="1759.08,-276.433 1759.96,-265.875 1752.69,-273.576 1759.08,-276.433"/>
</g>
<!-- Node11 -->
<g id="node11" class="node"><title>Node11</title>
<g id="a_node11"><a xlink:href="PseudoJet_8hh.html" target="_top" xlink:title="boca/fastjet/PseudoJet.hh">
<polygon fill="white" stroke="red" points="1725,-118 1725,-137 1856,-137 1856,-118 1725,-118"/>
<text text-anchor="middle" x="1790.5" y="-125" font-family="Helvetica,sans-Serif" font-size="10.00">boca/fastjet/PseudoJet.hh</text>
</a>
</g>
</g>
<!-- Node10&#45;&gt;Node11 -->
<g id="edge11" class="edge"><title>Node10&#45;&gt;Node11</title>
<path fill="none" stroke="midnightblue" d="M1795.31,-246.385C1813.45,-239.661 1834.66,-228.306 1845.5,-210 1852.52,-198.144 1851.04,-191.614 1845.5,-179 1838.95,-164.102 1825.6,-151.672 1813.69,-142.872"/>
<polygon fill="midnightblue" stroke="midnightblue" points="1815.61,-139.941 1805.4,-137.122 1811.62,-145.694 1815.61,-139.941"/>
</g>
<!-- Node12 -->
<g id="node12" class="node"><title>Node12</title>
<g id="a_node12"><a xlink:href="JetInfo_8hh.html" target="_top" xlink:title="boca/multiplets/JetInfo.hh">
<polygon fill="white" stroke="red" points="1707,-185 1707,-204 1836,-204 1836,-185 1707,-185"/>
<text text-anchor="middle" x="1771.5" y="-192" font-family="Helvetica,sans-Serif" font-size="10.00">boca/multiplets/JetInfo.hh</text>
</a>
</g>
</g>
<!-- Node10&#45;&gt;Node12 -->
<g id="edge13" class="edge"><title>Node10&#45;&gt;Node12</title>
<path fill="none" stroke="midnightblue" d="M1764.65,-246.475C1765.77,-238.08 1767.54,-224.981 1768.99,-214.163"/>
<polygon fill="midnightblue" stroke="midnightblue" points="1772.49,-214.386 1770.36,-204.009 1765.55,-213.453 1772.49,-214.386"/>
</g>
<!-- Node11&#45;&gt;Node11 -->
<g id="edge12" class="edge"><title>Node11&#45;&gt;Node11</title>
<path fill="none" stroke="midnightblue" d="M1821.33,-137.033C1847.09,-141.107 1874,-137.93 1874,-127.5 1874,-118.415 1853.58,-114.832 1831.29,-116.753"/>
<polygon fill="midnightblue" stroke="midnightblue" points="1830.83,-113.282 1821.33,-117.967 1831.68,-120.231 1830.83,-113.282"/>
</g>
<!-- Node12&#45;&gt;Node11 -->
<g id="edge14" class="edge"><title>Node12&#45;&gt;Node11</title>
<path fill="none" stroke="midnightblue" d="M1774.06,-184.734C1776.88,-175.085 1781.5,-159.3 1785.12,-146.906"/>
<polygon fill="midnightblue" stroke="midnightblue" points="1788.53,-147.708 1787.98,-137.127 1781.81,-145.744 1788.53,-147.708"/>
</g>
<!-- Node13 -->
<g id="node13" class="node"><title>Node13</title>
<g id="a_node13"><a xlink:href="Mutable_8hh.html" target="_top" xlink:title="boca/generic/Mutable.hh">
<polygon fill="white" stroke="black" points="1346,-118 1346,-137 1469,-137 1469,-118 1346,-118"/>
<text text-anchor="middle" x="1407.5" y="-125" font-family="Helvetica,sans-Serif" font-size="10.00">boca/generic/Mutable.hh</text>
</a>
</g>
</g>
<!-- Node12&#45;&gt;Node13 -->
<g id="edge15" class="edge"><title>Node12&#45;&gt;Node13</title>
<path fill="none" stroke="midnightblue" d="M1725.14,-184.942C1714.42,-182.977 1703.07,-180.906 1692.5,-179 1614.24,-164.885 1523.83,-148.924 1466.2,-138.792"/>
<polygon fill="midnightblue" stroke="midnightblue" points="1466.63,-135.315 1456.18,-137.032 1465.42,-142.21 1466.63,-135.315"/>
</g>
<!-- Node14 -->
<g id="node14" class="node"><title>Node14</title>
<polygon fill="white" stroke="#bfbfbf" points="977,-56.5 977,-75.5 1036,-75.5 1036,-56.5 977,-56.5"/>
<text text-anchor="middle" x="1006.5" y="-63.5" font-family="Helvetica,sans-Serif" font-size="10.00">functional</text>
</g>
<!-- Node13&#45;&gt;Node14 -->
<g id="edge16" class="edge"><title>Node13&#45;&gt;Node14</title>
<path fill="none" stroke="midnightblue" d="M1350.05,-117.975C1267.48,-105.724 1117.39,-83.4538 1046.12,-72.8783"/>
<polygon fill="midnightblue" stroke="midnightblue" points="1046.6,-69.4111 1036.19,-71.4054 1045.57,-76.3353 1046.6,-69.4111"/>
</g>
<!-- Node15 -->
<g id="node15" class="node"><title>Node15</title>
<g id="a_node15"><a xlink:href="Debug_8hh.html" target="_top" xlink:title="boca/generic/Debug.hh">
<polygon fill="white" stroke="red" points="1349,-56.5 1349,-75.5 1466,-75.5 1466,-56.5 1349,-56.5"/>
<text text-anchor="middle" x="1407.5" y="-63.5" font-family="Helvetica,sans-Serif" font-size="10.00">boca/generic/Debug.hh</text>
</a>
</g>
</g>
<!-- Node13&#45;&gt;Node15 -->
<g id="edge17" class="edge"><title>Node13&#45;&gt;Node15</title>
<path fill="none" stroke="midnightblue" d="M1407.5,-117.975C1407.5,-109.58 1407.5,-96.4806 1407.5,-85.6631"/>
<polygon fill="midnightblue" stroke="midnightblue" points="1411,-85.5091 1407.5,-75.5091 1404,-85.5091 1411,-85.5091"/>
</g>
<!-- Node17 -->
<g id="node17" class="node"><title>Node17</title>
<polygon fill="white" stroke="#bfbfbf" points="1292.5,-56.5 1292.5,-75.5 1330.5,-75.5 1330.5,-56.5 1292.5,-56.5"/>
<text text-anchor="middle" x="1311.5" y="-63.5" font-family="Helvetica,sans-Serif" font-size="10.00">array</text>
</g>
<!-- Node13&#45;&gt;Node17 -->
<g id="edge20" class="edge"><title>Node13&#45;&gt;Node17</title>
<path fill="none" stroke="midnightblue" d="M1393.75,-117.975C1378.13,-108.299 1352.44,-92.3721 1333.92,-80.8941"/>
<polygon fill="midnightblue" stroke="midnightblue" points="1335.57,-77.8023 1325.23,-75.5091 1331.88,-83.7522 1335.57,-77.8023"/>
</g>
<!-- Node15&#45;&gt;Node5 -->
<g id="edge18" class="edge"><title>Node15&#45;&gt;Node5</title>
<path fill="none" stroke="midnightblue" d="M1348.93,-56.9321C1345.74,-56.5918 1342.58,-56.2777 1339.5,-56 984.786,-24.0558 552.269,-13.8382 434.403,-11.5483"/>
<polygon fill="midnightblue" stroke="midnightblue" points="434.361,-8.04699 424.297,-11.3566 434.228,-15.0457 434.361,-8.04699"/>
</g>
<!-- Node16 -->
<g id="node16" class="node"><title>Node16</title>
<polygon fill="white" stroke="#bfbfbf" points="1385.5,-0.5 1385.5,-19.5 1429.5,-19.5 1429.5,-0.5 1385.5,-0.5"/>
<text text-anchor="middle" x="1407.5" y="-7.5" font-family="Helvetica,sans-Serif" font-size="10.00">vector</text>
</g>
<!-- Node15&#45;&gt;Node16 -->
<g id="edge19" class="edge"><title>Node15&#45;&gt;Node16</title>
<path fill="none" stroke="midnightblue" d="M1407.5,-56.083C1407.5,-49.0059 1407.5,-38.8611 1407.5,-29.9865"/>
<polygon fill="midnightblue" stroke="midnightblue" points="1411,-29.751 1407.5,-19.7511 1404,-29.7511 1411,-29.751"/>
</g>
<!-- Node19 -->
<g id="node19" class="node"><title>Node19</title>
<g id="a_node19"><a xlink:href="multiplets_2Particle_8hh.html" target="_top" xlink:title="boca/multiplets/Particle.hh">
<polygon fill="white" stroke="black" points="2086.5,-246.5 2086.5,-265.5 2218.5,-265.5 2218.5,-246.5 2086.5,-246.5"/>
<text text-anchor="middle" x="2152.5" y="-253.5" font-family="Helvetica,sans-Serif" font-size="10.00">boca/multiplets/Particle.hh</text>
</a>
</g>
</g>
<!-- Node18&#45;&gt;Node19 -->
<g id="edge22" class="edge"><title>Node18&#45;&gt;Node19</title>
<path fill="none" stroke="midnightblue" d="M2152.5,-302.083C2152.5,-295.006 2152.5,-284.861 2152.5,-275.986"/>
<polygon fill="midnightblue" stroke="midnightblue" points="2156,-275.751 2152.5,-265.751 2149,-275.751 2156,-275.751"/>
</g>
<!-- Node21 -->
<g id="node21" class="node"><title>Node21</title>
<g id="a_node21"><a xlink:href="Id_8hh.html" target="_top" xlink:title="boca/physics/Id.hh">
<polygon fill="white" stroke="black" points="1903,-246.5 1903,-265.5 2002,-265.5 2002,-246.5 1903,-246.5"/>
<text text-anchor="middle" x="1952.5" y="-253.5" font-family="Helvetica,sans-Serif" font-size="10.00">boca/physics/Id.hh</text>
</a>
</g>
</g>
<!-- Node18&#45;&gt;Node21 -->
<g id="edge26" class="edge"><title>Node18&#45;&gt;Node21</title>
<path fill="none" stroke="midnightblue" d="M2120.81,-302.444C2086.43,-293.162 2031.42,-278.309 1993.71,-268.127"/>
<polygon fill="midnightblue" stroke="midnightblue" points="1994.61,-264.744 1984.04,-265.516 1992.78,-271.502 1994.61,-264.744"/>
</g>
<!-- Node19&#45;&gt;Node11 -->
<g id="edge23" class="edge"><title>Node19&#45;&gt;Node11</title>
<path fill="none" stroke="midnightblue" d="M2176.29,-246.499C2192.22,-239.413 2211.96,-227.605 2221.5,-210 2228.06,-197.885 2230.66,-189.294 2221.5,-179 2198.33,-152.953 1983.33,-138.171 1866.02,-131.981"/>
<polygon fill="midnightblue" stroke="midnightblue" points="1866.19,-128.485 1856.02,-131.462 1865.83,-135.476 1866.19,-128.485"/>
</g>
<!-- Node20 -->
<g id="node20" class="node"><title>Node20</title>
<g id="a_node20"><a xlink:href="ParticleInfo_8hh.html" target="_top" xlink:title="boca/multiplets/Particle\lInfo.hh">
<polygon fill="white" stroke="red" points="2093,-179.5 2093,-209.5 2212,-209.5 2212,-179.5 2093,-179.5"/>
<text text-anchor="start" x="2101" y="-197.5" font-family="Helvetica,sans-Serif" font-size="10.00">boca/multiplets/Particle</text>
<text text-anchor="middle" x="2152.5" y="-186.5" font-family="Helvetica,sans-Serif" font-size="10.00">Info.hh</text>
</a>
</g>
</g>
<!-- Node19&#45;&gt;Node20 -->
<g id="edge24" class="edge"><title>Node19&#45;&gt;Node20</title>
<path fill="none" stroke="midnightblue" d="M2152.5,-246.475C2152.5,-239.471 2152.5,-229.192 2152.5,-219.696"/>
<polygon fill="midnightblue" stroke="midnightblue" points="2156,-219.523 2152.5,-209.523 2149,-219.523 2156,-219.523"/>
</g>
<!-- Node20&#45;&gt;Node11 -->
<g id="edge25" class="edge"><title>Node20&#45;&gt;Node11</title>
<path fill="none" stroke="midnightblue" d="M2092.69,-180.792C2089.58,-180.175 2086.51,-179.575 2083.5,-179 2004.3,-163.858 1912.66,-148.392 1853.25,-138.635"/>
<polygon fill="midnightblue" stroke="midnightblue" points="1853.7,-135.163 1843.27,-137 1852.57,-142.071 1853.7,-135.163"/>
</g>
<!-- Node21&#45;&gt;Node5 -->
<g id="edge27" class="edge"><title>Node21&#45;&gt;Node5</title>
<path fill="none" stroke="midnightblue" d="M1945.69,-246.422C1938.93,-237.641 1928.6,-223.417 1921.5,-210 1899.66,-168.706 1920.16,-140.954 1883.5,-112 1765.79,-19.0339 636.688,-11.628 434.436,-11.048"/>
<polygon fill="midnightblue" stroke="midnightblue" points="434.235,-7.54756 424.226,-11.0224 434.217,-14.5475 434.235,-7.54756"/>
</g>
<!-- Node21&#45;&gt;Node16 -->
<g id="edge28" class="edge"><title>Node21&#45;&gt;Node16</title>
<path fill="none" stroke="midnightblue" d="M2002.23,-250.143C2076.06,-242.424 2207.5,-226.533 2221.5,-210 2230.4,-199.485 2229.21,-190.42 2221.5,-179 2139.73,-57.8513 2058.62,-90.1404 1916.5,-56 1740.25,-13.6611 1521.09,-10.2408 1439.8,-10.5851"/>
<polygon fill="midnightblue" stroke="midnightblue" points="1439.68,-7.08572 1429.7,-10.6511 1439.72,-14.0856 1439.68,-7.08572"/>
</g>
<!-- Node22 -->
<g id="node22" class="node"><title>Node22</title>
<g id="a_node22"><a xlink:href="ElectronVolt_8hh.html" target="_top" xlink:title="boca/physics/ElectronVolt.hh">
<polygon fill="white" stroke="red" points="1930.5,-185 1930.5,-204 2074.5,-204 2074.5,-185 1930.5,-185"/>
<text text-anchor="middle" x="2002.5" y="-192" font-family="Helvetica,sans-Serif" font-size="10.00">boca/physics/ElectronVolt.hh</text>
</a>
</g>
</g>
<!-- Node21&#45;&gt;Node22 -->
<g id="edge29" class="edge"><title>Node21&#45;&gt;Node22</title>
<path fill="none" stroke="midnightblue" d="M1959.66,-246.475C1967.24,-237.462 1979.37,-223.025 1988.79,-211.812"/>
<polygon fill="midnightblue" stroke="midnightblue" points="1991.6,-213.917 1995.35,-204.009 1986.24,-209.413 1991.6,-213.917"/>
</g>
<!-- Node23&#45;&gt;Node10 -->
<g id="edge35" class="edge"><title>Node23&#45;&gt;Node10</title>
<path fill="none" stroke="midnightblue" d="M1405.58,-303.458C1408.6,-302.946 1411.59,-302.454 1414.5,-302 1428.25,-299.852 1599.39,-277.944 1696.8,-265.508"/>
<polygon fill="midnightblue" stroke="midnightblue" points="1697.37,-268.962 1706.85,-264.224 1696.49,-262.019 1697.37,-268.962"/>
</g>
<!-- Node23&#45;&gt;Node13 -->
<g id="edge32" class="edge"><title>Node23&#45;&gt;Node13</title>
<path fill="none" stroke="midnightblue" d="M1405.74,-303.587C1479.68,-289.006 1632.11,-254.139 1659.5,-210 1666.76,-198.293 1668.23,-189.657 1659.5,-179 1637.04,-151.59 1545.43,-138.752 1479.13,-132.956"/>
<polygon fill="midnightblue" stroke="midnightblue" points="1479.39,-129.466 1469.13,-132.118 1478.81,-136.441 1479.39,-129.466"/>
</g>
<!-- Node23&#45;&gt;Node19 -->
<g id="edge36" class="edge"><title>Node23&#45;&gt;Node19</title>
<path fill="none" stroke="midnightblue" d="M1405.55,-303.234C1408.57,-302.774 1411.58,-302.355 1414.5,-302 1678.37,-269.931 1746.2,-282.466 2011.5,-266 2032.43,-264.701 2055.11,-263.265 2076.04,-261.93"/>
<polygon fill="midnightblue" stroke="midnightblue" points="2076.4,-265.414 2086.15,-261.283 2075.95,-258.428 2076.4,-265.414"/>
</g>
<!-- Node24 -->
<g id="node24" class="node"><title>Node24</title>
<polygon fill="white" stroke="#bfbfbf" points="804,-246.5 804,-265.5 839,-265.5 839,-246.5 804,-246.5"/>
<text text-anchor="middle" x="821.5" y="-253.5" font-family="Helvetica,sans-Serif" font-size="10.00">map</text>
</g>
<!-- Node23&#45;&gt;Node24 -->
<g id="edge31" class="edge"><title>Node23&#45;&gt;Node24</title>
<path fill="none" stroke="midnightblue" d="M1325.5,-307.029C1220.44,-296.601 938.662,-268.63 849.177,-259.747"/>
<polygon fill="midnightblue" stroke="midnightblue" points="849.307,-256.243 839.01,-258.738 848.615,-263.209 849.307,-256.243"/>
</g>
<!-- Node25 -->
<g id="node25" class="node"><title>Node25</title>
<g id="a_node25"><a xlink:href="Flag_8hh.html" target="_top" xlink:title="boca/generic/Flag.hh">
<polygon fill="white" stroke="black" points="1431,-246.5 1431,-265.5 1538,-265.5 1538,-246.5 1431,-246.5"/>
<text text-anchor="middle" x="1484.5" y="-253.5" font-family="Helvetica,sans-Serif" font-size="10.00">boca/generic/Flag.hh</text>
</a>
</g>
</g>
<!-- Node23&#45;&gt;Node25 -->
<g id="edge33" class="edge"><title>Node23&#45;&gt;Node25</title>
<path fill="none" stroke="midnightblue" d="M1384.36,-302.444C1403.77,-293.636 1434.23,-279.812 1456.46,-269.722"/>
<polygon fill="midnightblue" stroke="midnightblue" points="1458.07,-272.836 1465.73,-265.516 1455.18,-266.462 1458.07,-272.836"/>
</g>
<!-- Node26 -->
<g id="node26" class="node"><title>Node26</title>
<polygon fill="white" stroke="#bfbfbf" points="1588.5,-185 1588.5,-204 1650.5,-204 1650.5,-185 1588.5,-185"/>
<text text-anchor="middle" x="1619.5" y="-192" font-family="Helvetica,sans-Serif" font-size="10.00">type_traits</text>
</g>
<!-- Node25&#45;&gt;Node26 -->
<g id="edge34" class="edge"><title>Node25&#45;&gt;Node26</title>
<path fill="none" stroke="midnightblue" d="M1503.84,-246.475C1526.6,-236.445 1564.59,-219.7 1590.79,-208.155"/>
<polygon fill="midnightblue" stroke="midnightblue" points="1592.45,-211.245 1600.19,-204.009 1589.63,-204.839 1592.45,-211.245"/>
</g>
<!-- Node27&#45;&gt;Node10 -->
<g id="edge48" class="edge"><title>Node27&#45;&gt;Node10</title>
<path fill="none" stroke="midnightblue" d="M1668.41,-302.444C1686.75,-293.675 1715.51,-279.935 1736.59,-269.858"/>
<polygon fill="midnightblue" stroke="midnightblue" points="1738.17,-272.986 1745.68,-265.516 1735.15,-266.67 1738.17,-272.986"/>
</g>
<!-- Node27&#45;&gt;Node21 -->
<g id="edge38" class="edge"><title>Node27&#45;&gt;Node21</title>
<path fill="none" stroke="midnightblue" d="M1698.35,-302.444C1751.7,-292.905 1837.94,-277.483 1894.94,-267.293"/>
<polygon fill="midnightblue" stroke="midnightblue" points="1895.64,-270.722 1904.87,-265.516 1894.41,-263.831 1895.64,-270.722"/>
</g>
<!-- Node28 -->
<g id="node28" class="node"><title>Node28</title>
<g id="a_node28"><a xlink:href="Vector_8hh.html" target="_top" xlink:title="boca/generic/Vector.hh">
<polygon fill="white" stroke="black" points="1040,-246.5 1040,-265.5 1157,-265.5 1157,-246.5 1040,-246.5"/>
<text text-anchor="middle" x="1098.5" y="-253.5" font-family="Helvetica,sans-Serif" font-size="10.00">boca/generic/Vector.hh</text>
</a>
</g>
</g>
<!-- Node27&#45;&gt;Node28 -->
<g id="edge39" class="edge"><title>Node27&#45;&gt;Node28</title>
<path fill="none" stroke="midnightblue" d="M1584.74,-304.567C1479.5,-294.272 1274.23,-274.191 1167.18,-263.718"/>
<polygon fill="midnightblue" stroke="midnightblue" points="1167.42,-260.226 1157.13,-262.736 1166.74,-267.193 1167.42,-260.226"/>
</g>
<!-- Node29 -->
<g id="node29" class="node"><title>Node29</title>
<polygon fill="white" stroke="#bfbfbf" points="1460.5,-179.5 1460.5,-209.5 1570.5,-209.5 1570.5,-179.5 1460.5,-179.5"/>
<text text-anchor="start" x="1468.5" y="-197.5" font-family="Helvetica,sans-Serif" font-size="10.00">boost/range/algorithm</text>
<text text-anchor="middle" x="1515.5" y="-186.5" font-family="Helvetica,sans-Serif" font-size="10.00">_ext/erase.hpp</text>
</g>
<!-- Node28&#45;&gt;Node29 -->
<g id="edge40" class="edge"><title>Node28&#45;&gt;Node29</title>
<path fill="none" stroke="midnightblue" d="M1157.16,-249.264C1225.36,-242.207 1341.48,-228.988 1450.55,-210.063"/>
<polygon fill="midnightblue" stroke="midnightblue" points="1451.17,-213.51 1460.41,-208.334 1449.96,-206.615 1451.17,-213.51"/>
</g>
<!-- Node30 -->
<g id="node30" class="node"><title>Node30</title>
<polygon fill="white" stroke="#bfbfbf" points="566.5,-179.5 566.5,-209.5 676.5,-209.5 676.5,-179.5 566.5,-179.5"/>
<text text-anchor="start" x="574.5" y="-197.5" font-family="Helvetica,sans-Serif" font-size="10.00">boost/range/algorithm</text>
<text text-anchor="middle" x="621.5" y="-186.5" font-family="Helvetica,sans-Serif" font-size="10.00">/find.hpp</text>
</g>
<!-- Node28&#45;&gt;Node30 -->
<g id="edge41" class="edge"><title>Node28&#45;&gt;Node30</title>
<path fill="none" stroke="midnightblue" d="M1039.73,-250.723C961.421,-244.552 818.378,-231.641 686.835,-210.1"/>
<polygon fill="midnightblue" stroke="midnightblue" points="687.017,-206.582 676.579,-208.399 685.871,-213.488 687.017,-206.582"/>
</g>
<!-- Node31 -->
<g id="node31" class="node"><title>Node31</title>
<polygon fill="white" stroke="#bfbfbf" points="694.5,-179.5 694.5,-209.5 804.5,-209.5 804.5,-179.5 694.5,-179.5"/>
<text text-anchor="start" x="702.5" y="-197.5" font-family="Helvetica,sans-Serif" font-size="10.00">boost/range/algorithm</text>
<text text-anchor="middle" x="749.5" y="-186.5" font-family="Helvetica,sans-Serif" font-size="10.00">/min_element.hpp</text>
</g>
<!-- Node28&#45;&gt;Node31 -->
<g id="edge42" class="edge"><title>Node28&#45;&gt;Node31</title>
<path fill="none" stroke="midnightblue" d="M1039.9,-246.905C984.343,-238.968 898.331,-226.006 814.549,-210.129"/>
<polygon fill="midnightblue" stroke="midnightblue" points="815.089,-206.669 804.609,-208.229 813.775,-213.544 815.089,-206.669"/>
</g>
<!-- Node32 -->
<g id="node32" class="node"><title>Node32</title>
<polygon fill="white" stroke="#bfbfbf" points="822.5,-179.5 822.5,-209.5 932.5,-209.5 932.5,-179.5 822.5,-179.5"/>
<text text-anchor="start" x="830.5" y="-197.5" font-family="Helvetica,sans-Serif" font-size="10.00">boost/range/algorithm</text>
<text text-anchor="middle" x="877.5" y="-186.5" font-family="Helvetica,sans-Serif" font-size="10.00">/copy.hpp</text>
</g>
<!-- Node28&#45;&gt;Node32 -->
<g id="edge43" class="edge"><title>Node28&#45;&gt;Node32</title>
<path fill="none" stroke="midnightblue" d="M1066.84,-246.475C1033.69,-237.551 980.79,-223.309 939.322,-212.144"/>
<polygon fill="midnightblue" stroke="midnightblue" points="940.151,-208.743 929.585,-209.523 938.332,-215.502 940.151,-208.743"/>
</g>
<!-- Node33 -->
<g id="node33" class="node"><title>Node33</title>
<polygon fill="white" stroke="#bfbfbf" points="950.5,-179.5 950.5,-209.5 1060.5,-209.5 1060.5,-179.5 950.5,-179.5"/>
<text text-anchor="start" x="958.5" y="-197.5" font-family="Helvetica,sans-Serif" font-size="10.00">boost/range/algorithm</text>
<text text-anchor="middle" x="1005.5" y="-186.5" font-family="Helvetica,sans-Serif" font-size="10.00">_ext/push_back.hpp</text>
</g>
<!-- Node28&#45;&gt;Node33 -->
<g id="edge44" class="edge"><title>Node28&#45;&gt;Node33</title>
<path fill="none" stroke="midnightblue" d="M1085.18,-246.475C1072.46,-238.341 1052.85,-225.791 1036.26,-215.179"/>
<polygon fill="midnightblue" stroke="midnightblue" points="1037.73,-211.964 1027.42,-209.523 1033.96,-217.861 1037.73,-211.964"/>
</g>
<!-- Node34 -->
<g id="node34" class="node"><title>Node34</title>
<polygon fill="white" stroke="#bfbfbf" points="1078.5,-179.5 1078.5,-209.5 1188.5,-209.5 1188.5,-179.5 1078.5,-179.5"/>
<text text-anchor="start" x="1086.5" y="-197.5" font-family="Helvetica,sans-Serif" font-size="10.00">boost/range/algorithm</text>
<text text-anchor="middle" x="1133.5" y="-186.5" font-family="Helvetica,sans-Serif" font-size="10.00">/transform.hpp</text>
</g>
<!-- Node28&#45;&gt;Node34 -->
<g id="edge45" class="edge"><title>Node28&#45;&gt;Node34</title>
<path fill="none" stroke="midnightblue" d="M1103.51,-246.475C1107.86,-239.094 1114.34,-228.077 1120.16,-218.171"/>
<polygon fill="midnightblue" stroke="midnightblue" points="1123.2,-219.917 1125.25,-209.523 1117.16,-216.368 1123.2,-219.917"/>
</g>
<!-- Node35 -->
<g id="node35" class="node"><title>Node35</title>
<polygon fill="white" stroke="#bfbfbf" points="1207,-185 1207,-204 1334,-204 1334,-185 1207,-185"/>
<text text-anchor="middle" x="1270.5" y="-192" font-family="Helvetica,sans-Serif" font-size="10.00">boost/range/adaptors.hpp</text>
</g>
<!-- Node28&#45;&gt;Node35 -->
<g id="edge46" class="edge"><title>Node28&#45;&gt;Node35</title>
<path fill="none" stroke="midnightblue" d="M1123.14,-246.475C1152.78,-236.225 1202.68,-218.959 1236.1,-207.399"/>
<polygon fill="midnightblue" stroke="midnightblue" points="1237.6,-210.586 1245.9,-204.009 1235.31,-203.971 1237.6,-210.586"/>
</g>
<!-- Node36 -->
<g id="node36" class="node"><title>Node36</title>
<g id="a_node36"><a xlink:href="Settings_8hh.html" target="_top" xlink:title="boca/Settings.hh">
<polygon fill="white" stroke="red" points="1352.5,-185 1352.5,-204 1442.5,-204 1442.5,-185 1352.5,-185"/>
<text text-anchor="middle" x="1397.5" y="-192" font-family="Helvetica,sans-Serif" font-size="10.00">boca/Settings.hh</text>
</a>
</g>
</g>
<!-- Node28&#45;&gt;Node36 -->
<g id="edge47" class="edge"><title>Node28&#45;&gt;Node36</title>
<path fill="none" stroke="midnightblue" d="M1151.09,-246.48C1200.66,-238.171 1276.92,-224.669 1342.5,-210 1347.19,-208.95 1352.09,-207.776 1356.94,-206.561"/>
<polygon fill="midnightblue" stroke="midnightblue" points="1357.95,-209.916 1366.77,-204.04 1356.21,-203.136 1357.95,-209.916"/>
</g>
<!-- Node38 -->
<g id="node38" class="node"><title>Node38</title>
<g id="a_node38"><a xlink:href="boca_2tagger_2Tagger_8hh.html" target="_top" xlink:title="boca/tagger/Tagger.hh">
<polygon fill="white" stroke="black" points="587.5,-358.5 587.5,-377.5 701.5,-377.5 701.5,-358.5 587.5,-358.5"/>
<text text-anchor="middle" x="644.5" y="-365.5" font-family="Helvetica,sans-Serif" font-size="10.00">boca/tagger/Tagger.hh</text>
</a>
</g>
</g>
<!-- Node37&#45;&gt;Node38 -->
<g id="edge50" class="edge"><title>Node37&#45;&gt;Node38</title>
<path fill="none" stroke="midnightblue" d="M900.202,-488.574C817.44,-485.403 697.377,-475.499 663.5,-445 647.58,-430.668 644.058,-405.204 643.704,-387.73"/>
<polygon fill="midnightblue" stroke="midnightblue" points="647.205,-387.642 643.83,-377.599 640.205,-387.555 647.205,-387.642"/>
</g>
<!-- Node44 -->
<g id="node44" class="node"><title>Node44</title>
<g id="a_node44"><a xlink:href="Quartet_8hh.html" target="_top" xlink:title="boca/multiplets/Quartet.hh">
<polygon fill="white" stroke="red" points="1121,-420 1121,-439 1252,-439 1252,-420 1121,-420"/>
<text text-anchor="middle" x="1186.5" y="-427" font-family="Helvetica,sans-Serif" font-size="10.00">boca/multiplets/Quartet.hh</text>
</a>
</g>
</g>
<!-- Node37&#45;&gt;Node44 -->
<g id="edge64" class="edge"><title>Node37&#45;&gt;Node44</title>
<path fill="none" stroke="midnightblue" d="M1011.73,-481.475C1047.4,-471.07 1107.86,-453.437 1147.48,-441.88"/>
<polygon fill="midnightblue" stroke="midnightblue" points="1148.71,-445.169 1157.33,-439.009 1146.75,-438.449 1148.71,-445.169"/>
</g>
<!-- Node46 -->
<g id="node46" class="node"><title>Node46</title>
<g id="a_node46"><a xlink:href="Reader_8hh.html" target="_top" xlink:title="boca/multivariant/Reader.hh">
<polygon fill="white" stroke="red" points="995,-358.5 995,-377.5 1134,-377.5 1134,-358.5 995,-358.5"/>
<text text-anchor="middle" x="1064.5" y="-365.5" font-family="Helvetica,sans-Serif" font-size="10.00">boca/multivariant/Reader.hh</text>
</a>
</g>
</g>
<!-- Node37&#45;&gt;Node46 -->
<g id="edge66" class="edge"><title>Node37&#45;&gt;Node46</title>
<path fill="none" stroke="midnightblue" d="M1000.36,-481.404C1014.4,-473.747 1033.38,-461.245 1044.5,-445 1056.27,-427.801 1061.11,-404.069 1063.11,-387.723"/>
<polygon fill="midnightblue" stroke="midnightblue" points="1066.59,-388.051 1064.08,-377.758 1059.63,-387.369 1066.59,-388.051"/>
</g>
<!-- Node47 -->
<g id="node47" class="node"><title>Node47</title>
<g id="a_node47"><a xlink:href="tagger_2WLeptonic_8hh.html" target="_top" xlink:title="standardmodel/tagger\l/WLeptonic.hh">
<polygon fill="white" stroke="red" points="672.5,-414.5 672.5,-444.5 782.5,-444.5 782.5,-414.5 672.5,-414.5"/>
<text text-anchor="start" x="680.5" y="-432.5" font-family="Helvetica,sans-Serif" font-size="10.00">standardmodel/tagger</text>
<text text-anchor="middle" x="727.5" y="-421.5" font-family="Helvetica,sans-Serif" font-size="10.00">/WLeptonic.hh</text>
</a>
</g>
</g>
<!-- Node37&#45;&gt;Node47 -->
<g id="edge70" class="edge"><title>Node37&#45;&gt;Node47</title>
<path fill="none" stroke="midnightblue" d="M945.965,-481.475C906.025,-472.156 841.236,-457.038 792.564,-445.682"/>
<polygon fill="midnightblue" stroke="midnightblue" points="793.281,-442.255 782.748,-443.391 791.691,-449.072 793.281,-442.255"/>
</g>
<!-- Node48 -->
<g id="node48" class="node"><title>Node48</title>
<g id="a_node48"><a xlink:href="tagger_2WHadronic_8hh.html" target="_top" xlink:title="standardmodel/tagger\l/WHadronic.hh">
<polygon fill="white" stroke="red" points="800.5,-414.5 800.5,-444.5 910.5,-444.5 910.5,-414.5 800.5,-414.5"/>
<text text-anchor="start" x="808.5" y="-432.5" font-family="Helvetica,sans-Serif" font-size="10.00">standardmodel/tagger</text>
<text text-anchor="middle" x="855.5" y="-421.5" font-family="Helvetica,sans-Serif" font-size="10.00">/WHadronic.hh</text>
</a>
</g>
</g>
<!-- Node37&#45;&gt;Node48 -->
<g id="edge72" class="edge"><title>Node37&#45;&gt;Node48</title>
<path fill="none" stroke="midnightblue" d="M964.304,-481.475C946.219,-473.002 917.906,-459.737 894.695,-448.863"/>
<polygon fill="midnightblue" stroke="midnightblue" points="895.972,-445.596 885.431,-444.523 893.002,-451.935 895.972,-445.596"/>
</g>
<!-- Node49 -->
<g id="node49" class="node"><title>Node49</title>
<g id="a_node49"><a xlink:href="tthh_2tthh_2branch_2Higgs_8hh.html" target="_top" xlink:title="tthh/branch/Higgs.hh">
<polygon fill="white" stroke="red" points="929,-420 929,-439 1036,-439 1036,-420 929,-420"/>
<text text-anchor="middle" x="982.5" y="-427" font-family="Helvetica,sans-Serif" font-size="10.00">tthh/branch/Higgs.hh</text>
</a>
</g>
</g>
<!-- Node37&#45;&gt;Node49 -->
<g id="edge76" class="edge"><title>Node37&#45;&gt;Node49</title>
<path fill="none" stroke="midnightblue" d="M982.5,-481.475C982.5,-473.08 982.5,-459.981 982.5,-449.163"/>
<polygon fill="midnightblue" stroke="midnightblue" points="986,-449.009 982.5,-439.009 979,-449.009 986,-449.009"/>
</g>
<!-- Node38&#45;&gt;Node4 -->
<g id="edge51" class="edge"><title>Node38&#45;&gt;Node4</title>
<path fill="none" stroke="midnightblue" d="M587.311,-358.916C518.73,-349.221 403.894,-332.988 330.744,-322.647"/>
<polygon fill="midnightblue" stroke="midnightblue" points="331.099,-319.163 320.707,-321.228 330.119,-326.094 331.099,-319.163"/>
</g>
<!-- Node38&#45;&gt;Node15 -->
<g id="edge63" class="edge"><title>Node38&#45;&gt;Node15</title>
<path fill="none" stroke="midnightblue" d="M642.957,-358.228C640.477,-345.392 634.904,-320.959 625.5,-302 597.744,-246.041 516.316,-225.965 557.5,-179 671.034,-49.5316 1148.53,-97.1816 1338.95,-75.9653"/>
<polygon fill="midnightblue" stroke="midnightblue" points="1339.39,-79.4381 1348.89,-74.7589 1338.55,-72.4891 1339.39,-79.4381"/>
</g>
<!-- Node39 -->
<g id="node39" class="node"><title>Node39</title>
<g id="a_node39"><a xlink:href="Sort_8hh.html" target="_top" xlink:title="boca/multiplets/Sort.hh">
<polygon fill="white" stroke="red" points="1424,-302.5 1424,-321.5 1541,-321.5 1541,-302.5 1424,-302.5"/>
<text text-anchor="middle" x="1482.5" y="-309.5" font-family="Helvetica,sans-Serif" font-size="10.00">boca/multiplets/Sort.hh</text>
</a>
</g>
</g>
<!-- Node38&#45;&gt;Node39 -->
<g id="edge52" class="edge"><title>Node38&#45;&gt;Node39</title>
<path fill="none" stroke="midnightblue" d="M701.602,-365.094C827.926,-360.568 1140.8,-347.656 1413.82,-321.987"/>
<polygon fill="midnightblue" stroke="midnightblue" points="1414.3,-325.457 1423.93,-321.029 1413.64,-318.488 1414.3,-325.457"/>
</g>
<!-- Node40 -->
<g id="node40" class="node"><title>Node40</title>
<g id="a_node40"><a xlink:href="TreeBranch_8hh.html" target="_top" xlink:title="boca/io/TreeBranch.hh">
<polygon fill="white" stroke="red" points="291,-118 291,-137 406,-137 406,-118 291,-118"/>
<text text-anchor="middle" x="348.5" y="-125" font-family="Helvetica,sans-Serif" font-size="10.00">boca/io/TreeBranch.hh</text>
</a>
</g>
</g>
<!-- Node38&#45;&gt;Node40 -->
<g id="edge54" class="edge"><title>Node38&#45;&gt;Node40</title>
<path fill="none" stroke="midnightblue" d="M587.406,-363.039C525.388,-357.592 431.649,-345.648 405.5,-322 354.419,-275.805 348.181,-186.396 348.034,-147.426"/>
<polygon fill="midnightblue" stroke="midnightblue" points="351.538,-147.091 348.141,-137.055 344.538,-147.019 351.538,-147.091"/>
</g>
<!-- Node41 -->
<g id="node41" class="node"><title>Node41</title>
<g id="a_node41"><a xlink:href="tagger_2Base_8hh.html" target="_top" xlink:title="boca/tagger/Base.hh">
<polygon fill="white" stroke="red" points="415,-302.5 415,-321.5 522,-321.5 522,-302.5 415,-302.5"/>
<text text-anchor="middle" x="468.5" y="-309.5" font-family="Helvetica,sans-Serif" font-size="10.00">boca/tagger/Base.hh</text>
</a>
</g>
</g>
<!-- Node38&#45;&gt;Node41 -->
<g id="edge56" class="edge"><title>Node38&#45;&gt;Node41</title>
<path fill="none" stroke="midnightblue" d="M616.612,-358.444C586.746,-349.28 539.185,-334.688 506.044,-324.519"/>
<polygon fill="midnightblue" stroke="midnightblue" points="506.844,-321.104 496.257,-321.516 504.791,-327.796 506.844,-321.104"/>
</g>
<!-- Node42 -->
<g id="node42" class="node"><title>Node42</title>
<g id="a_node42"><a xlink:href="PreCuts_8hh.html" target="_top" xlink:title="boca/PreCuts.hh">
<polygon fill="white" stroke="red" points="1019.5,-302.5 1019.5,-321.5 1109.5,-321.5 1109.5,-302.5 1019.5,-302.5"/>
<text text-anchor="middle" x="1064.5" y="-309.5" font-family="Helvetica,sans-Serif" font-size="10.00">boca/PreCuts.hh</text>
</a>
</g>
</g>
<!-- Node38&#45;&gt;Node42 -->
<g id="edge57" class="edge"><title>Node38&#45;&gt;Node42</title>
<path fill="none" stroke="midnightblue" d="M701.58,-359.661C782.396,-349.27 929.206,-330.395 1009.1,-320.123"/>
<polygon fill="midnightblue" stroke="midnightblue" points="1009.97,-323.54 1019.44,-318.793 1009.08,-316.597 1009.97,-323.54"/>
</g>
<!-- Node43 -->
<g id="node43" class="node"><title>Node43</title>
<g id="a_node43"><a xlink:href="Filter_8hh.html" target="_top" xlink:title="boca/Filter.hh">
<polygon fill="white" stroke="black" points="540.5,-302.5 540.5,-321.5 616.5,-321.5 616.5,-302.5 540.5,-302.5"/>
<text text-anchor="middle" x="578.5" y="-309.5" font-family="Helvetica,sans-Serif" font-size="10.00">boca/Filter.hh</text>
</a>
</g>
</g>
<!-- Node38&#45;&gt;Node43 -->
<g id="edge59" class="edge"><title>Node38&#45;&gt;Node43</title>
<path fill="none" stroke="midnightblue" d="M633.896,-358.324C624.044,-350.263 609.149,-338.077 597.285,-328.369"/>
<polygon fill="midnightblue" stroke="midnightblue" points="599.253,-325.457 589.297,-321.834 594.82,-330.875 599.253,-325.457"/>
</g>
<!-- Node39&#45;&gt;Node21 -->
<g id="edge53" class="edge"><title>Node39&#45;&gt;Node21</title>
<path fill="none" stroke="midnightblue" d="M1541.08,-304.27C1631,-293.939 1802.13,-274.276 1892.75,-263.865"/>
<polygon fill="midnightblue" stroke="midnightblue" points="1893.33,-267.322 1902.86,-262.703 1892.53,-260.367 1893.33,-267.322"/>
</g>
<!-- Node40&#45;&gt;Node5 -->
<g id="edge55" class="edge"><title>Node40&#45;&gt;Node5</title>
<path fill="none" stroke="midnightblue" d="M352.634,-117.819C361.592,-99.006 382.954,-54.1475 394.95,-28.9553"/>
<polygon fill="midnightblue" stroke="midnightblue" points="398.179,-30.3154 399.318,-19.782 391.859,-27.3058 398.179,-30.3154"/>
</g>
<!-- Node42&#45;&gt;Node28 -->
<g id="edge58" class="edge"><title>Node42&#45;&gt;Node28</title>
<path fill="none" stroke="midnightblue" d="M1070.11,-302.083C1074.87,-294.534 1081.82,-283.495 1087.65,-274.23"/>
<polygon fill="midnightblue" stroke="midnightblue" points="1090.62,-276.078 1092.99,-265.751 1084.7,-272.349 1090.62,-276.078"/>
</g>
<!-- Node43&#45;&gt;Node5 -->
<g id="edge60" class="edge"><title>Node43&#45;&gt;Node5</title>
<path fill="none" stroke="midnightblue" d="M546.82,-302.489C526.966,-295.644 502.242,-284.121 486.5,-266 424.425,-194.547 408.598,-75.7604 404.712,-29.8841"/>
<polygon fill="midnightblue" stroke="midnightblue" points="408.182,-29.3516 403.946,-19.6404 401.202,-29.8736 408.182,-29.3516"/>
</g>
<!-- Node43&#45;&gt;Node16 -->
<g id="edge62" class="edge"><title>Node43&#45;&gt;Node16</title>
<path fill="none" stroke="midnightblue" d="M572.46,-302.459C558.181,-281.151 524.827,-224.12 542.5,-179 557.297,-141.223 568.676,-131.044 604.5,-112 741.919,-38.9494 1242.79,-16.6964 1375.21,-12.0274"/>
<polygon fill="midnightblue" stroke="midnightblue" points="1375.61,-15.5157 1385.48,-11.6746 1375.37,-8.51981 1375.61,-15.5157"/>
</g>
<!-- Node43&#45;&gt;Node24 -->
<g id="edge61" class="edge"><title>Node43&#45;&gt;Node24</title>
<path fill="none" stroke="midnightblue" d="M616.736,-302.503C666.003,-291.555 750.463,-272.786 793.907,-263.132"/>
<polygon fill="midnightblue" stroke="midnightblue" points="794.771,-266.525 803.773,-260.939 793.252,-259.692 794.771,-266.525"/>
</g>
<!-- Node45 -->
<g id="node45" class="node"><title>Node45</title>
<g id="a_node45"><a xlink:href="Triplet_8hh.html" target="_top" xlink:title="boca/multiplets/Triplet.hh">
<polygon fill="white" stroke="red" points="1152.5,-358.5 1152.5,-377.5 1278.5,-377.5 1278.5,-358.5 1152.5,-358.5"/>
<text text-anchor="middle" x="1215.5" y="-365.5" font-family="Helvetica,sans-Serif" font-size="10.00">boca/multiplets/Triplet.hh</text>
</a>
</g>
</g>
<!-- Node44&#45;&gt;Node45 -->
<g id="edge65" class="edge"><title>Node44&#45;&gt;Node45</title>
<path fill="none" stroke="midnightblue" d="M1190.65,-419.975C1194.88,-411.315 1201.54,-397.649 1206.9,-386.645"/>
<polygon fill="midnightblue" stroke="midnightblue" points="1210.12,-388.032 1211.35,-377.509 1203.83,-384.965 1210.12,-388.032"/>
</g>
<!-- Node46&#45;&gt;Node23 -->
<g id="edge69" class="edge"><title>Node46&#45;&gt;Node23</title>
<path fill="none" stroke="midnightblue" d="M1112.19,-358.444C1167.59,-348.505 1258.59,-332.179 1315.12,-322.039"/>
<polygon fill="midnightblue" stroke="midnightblue" points="1316.03,-325.431 1325.25,-320.22 1314.79,-318.541 1316.03,-325.431"/>
</g>
<!-- Node46&#45;&gt;Node39 -->
<g id="edge67" class="edge"><title>Node46&#45;&gt;Node39</title>
<path fill="none" stroke="midnightblue" d="M1131.28,-358.489C1199.52,-349.775 1308.84,-335.768 1413.76,-322.093"/>
<polygon fill="midnightblue" stroke="midnightblue" points="1414.43,-325.534 1423.9,-320.77 1413.53,-318.593 1414.43,-325.534"/>
</g>
<!-- Node46&#45;&gt;Node42 -->
<g id="edge68" class="edge"><title>Node46&#45;&gt;Node42</title>
<path fill="none" stroke="midnightblue" d="M1064.5,-358.083C1064.5,-351.006 1064.5,-340.861 1064.5,-331.986"/>
<polygon fill="midnightblue" stroke="midnightblue" points="1068,-331.751 1064.5,-321.751 1061,-331.751 1068,-331.751"/>
</g>
<!-- Node47&#45;&gt;Node38 -->
<g id="edge71" class="edge"><title>Node47&#45;&gt;Node38</title>
<path fill="none" stroke="midnightblue" d="M707.83,-414.399C694.899,-405.129 678.014,-393.025 664.932,-383.647"/>
<polygon fill="midnightblue" stroke="midnightblue" points="666.744,-380.639 656.577,-377.658 662.665,-386.329 666.744,-380.639"/>
</g>
<!-- Node48&#45;&gt;Node14 -->
<g id="edge73" class="edge"><title>Node48&#45;&gt;Node14</title>
<path fill="none" stroke="midnightblue" d="M800.383,-415.809C797.382,-415.182 794.406,-414.574 791.5,-414 616.258,-379.367 335.237,-466.232 405.5,-302 453.599,-189.573 493.701,-163.739 604.5,-112 668.245,-82.2334 878.446,-71.4963 966.813,-68.2349"/>
<polygon fill="midnightblue" stroke="midnightblue" points="967.098,-71.7271 976.968,-67.8735 966.849,-64.7315 967.098,-71.7271"/>
</g>
<!-- Node48&#45;&gt;Node38 -->
<g id="edge74" class="edge"><title>Node48&#45;&gt;Node38</title>
<path fill="none" stroke="midnightblue" d="M805.763,-414.475C768.725,-404.03 718.82,-389.958 684.384,-380.247"/>
<polygon fill="midnightblue" stroke="midnightblue" points="685.24,-376.852 674.665,-377.506 683.34,-383.589 685.24,-376.852"/>
</g>
<!-- Node48&#45;&gt;Node46 -->
<g id="edge75" class="edge"><title>Node48&#45;&gt;Node46</title>
<path fill="none" stroke="midnightblue" d="M904.765,-414.475C941.452,-404.03 990.884,-389.958 1024.99,-380.247"/>
<polygon fill="midnightblue" stroke="midnightblue" points="1025.96,-383.611 1034.62,-377.506 1024.04,-376.878 1025.96,-383.611"/>
</g>
<!-- Node50&#45;&gt;Node15 -->
<g id="edge78" class="edge"><title>Node50&#45;&gt;Node15</title>
<path fill="none" stroke="midnightblue" d="M2268.86,-122.89C2109.35,-112.54 1650.76,-82.7838 1476.14,-71.4534"/>
<polygon fill="midnightblue" stroke="midnightblue" points="1476.25,-67.9535 1466.04,-70.7986 1475.79,-74.9388 1476.25,-67.9535"/>
</g>
</g>
</svg>
