<?xml version="1.0" encoding="UTF-8" standalone="no"?>
<!DOCTYPE svg PUBLIC "-//W3C//DTD SVG 1.1//EN"
 "http://www.w3.org/Graphics/SVG/1.1/DTD/svg11.dtd">
<!-- Generated by graphviz version 2.38.0 (20140413.2041)
 -->
<!-- Title: examples/toppartner/source/tagger/HiggsPair.cpp Pages: 1 -->
<svg width="2145pt" height="553pt"
 viewBox="0.00 0.00 2145.21 553.00" xmlns="http://www.w3.org/2000/svg" xmlns:xlink="http://www.w3.org/1999/xlink">
<g id="graph0" class="graph" transform="scale(1 1) rotate(0) translate(4 549)">
<title>examples/toppartner/source/tagger/HiggsPair.cpp</title>
<polygon fill="white" stroke="none" points="-4,4 -4,-549 2141.21,-549 2141.21,4 -4,4"/>
<!-- Node1 -->
<g id="node1" class="node"><title>Node1</title>
<polygon fill="#bfbfbf" stroke="black" points="846,-514.5 846,-544.5 989,-544.5 989,-514.5 846,-514.5"/>
<text text-anchor="start" x="854" y="-532.5" font-family="Helvetica,sans-Serif" font-size="10.00">examples/toppartner</text>
<text text-anchor="middle" x="917.5" y="-521.5" font-family="Helvetica,sans-Serif" font-size="10.00">/source/tagger/HiggsPair.cpp</text>
</g>
<!-- Node2 -->
<g id="node2" class="node"><title>Node2</title>
<g id="a_node2"><a xlink:href="Exception_8hh.html" target="_top" xlink:title="boca/generic/Exception.hh">
<polygon fill="white" stroke="black" points="21.5,-453 21.5,-472 153.5,-472 153.5,-453 21.5,-453"/>
<text text-anchor="middle" x="87.5" y="-460" font-family="Helvetica,sans-Serif" font-size="10.00">boca/generic/Exception.hh</text>
</a>
</g>
</g>
<!-- Node1&#45;&gt;Node2 -->
<g id="edge1" class="edge"><title>Node1&#45;&gt;Node2</title>
<path fill="none" stroke="midnightblue" d="M845.656,-522.874C690.071,-510.689 323.176,-481.957 163.717,-469.469"/>
<polygon fill="midnightblue" stroke="midnightblue" points="163.76,-465.962 153.518,-468.67 163.214,-472.94 163.76,-465.962"/>
</g>
<!-- Node5 -->
<g id="node5" class="node"><title>Node5</title>
<g id="a_node5"><a xlink:href="HiggsPair_8hh.html" target="_top" xlink:title="toppartner/tagger/HiggsPair.hh">
<polygon fill="white" stroke="black" points="843,-453 843,-472 992,-472 992,-453 843,-453"/>
<text text-anchor="middle" x="917.5" y="-460" font-family="Helvetica,sans-Serif" font-size="10.00">toppartner/tagger/HiggsPair.hh</text>
</a>
</g>
</g>
<!-- Node1&#45;&gt;Node5 -->
<g id="edge4" class="edge"><title>Node1&#45;&gt;Node5</title>
<path fill="none" stroke="midnightblue" d="M917.5,-514.396C917.5,-505.064 917.5,-492.714 917.5,-482.517"/>
<polygon fill="midnightblue" stroke="midnightblue" points="921,-482.195 917.5,-472.195 914,-482.195 921,-482.195"/>
</g>
<!-- Node50 -->
<g id="node50" class="node"><title>Node50</title>
<g id="a_node50"><a xlink:href="DEBUG__MACROS_8hh.html" target="_top" xlink:title="boca/generic/DEBUG\l_MACROS.hh">
<polygon fill="white" stroke="black" points="1247,-447.5 1247,-477.5 1358,-477.5 1358,-447.5 1247,-447.5"/>
<text text-anchor="start" x="1255" y="-465.5" font-family="Helvetica,sans-Serif" font-size="10.00">boca/generic/DEBUG</text>
<text text-anchor="middle" x="1302.5" y="-454.5" font-family="Helvetica,sans-Serif" font-size="10.00">_MACROS.hh</text>
</a>
</g>
</g>
<!-- Node1&#45;&gt;Node50 -->
<g id="edge70" class="edge"><title>Node1&#45;&gt;Node50</title>
<path fill="none" stroke="midnightblue" d="M989.013,-516.426C1060.11,-504.424 1168.22,-486.171 1237.09,-474.542"/>
<polygon fill="midnightblue" stroke="midnightblue" points="1237.68,-477.992 1246.96,-472.876 1236.52,-471.09 1237.68,-477.992"/>
</g>
<!-- Node3 -->
<g id="node3" class="node"><title>Node3</title>
<polygon fill="white" stroke="#bfbfbf" points="0,-391.5 0,-410.5 59,-410.5 59,-391.5 0,-391.5"/>
<text text-anchor="middle" x="29.5" y="-398.5" font-family="Helvetica,sans-Serif" font-size="10.00">stdexcept</text>
</g>
<!-- Node2&#45;&gt;Node3 -->
<g id="edge2" class="edge"><title>Node2&#45;&gt;Node3</title>
<path fill="none" stroke="midnightblue" d="M79.19,-452.975C70.3177,-443.873 56.0542,-429.241 45.08,-417.983"/>
<polygon fill="midnightblue" stroke="midnightblue" points="47.2811,-415.227 37.7946,-410.509 42.2686,-420.113 47.2811,-415.227"/>
</g>
<!-- Node4 -->
<g id="node4" class="node"><title>Node4</title>
<polygon fill="white" stroke="#bfbfbf" points="605,-0.5 605,-19.5 646,-19.5 646,-0.5 605,-0.5"/>
<text text-anchor="middle" x="625.5" y="-7.5" font-family="Helvetica,sans-Serif" font-size="10.00">string</text>
</g>
<!-- Node2&#45;&gt;Node4 -->
<g id="edge3" class="edge"><title>Node2&#45;&gt;Node4</title>
<path fill="none" stroke="midnightblue" d="M87.5,-452.991C87.5,-433.236 87.5,-382.724 87.5,-340.5 87.5,-340.5 87.5,-340.5 87.5,-137.5 87.5,-26.8108 542.018,-25.9858 579.5,-20 584.462,-19.2076 589.707,-18.2738 594.809,-17.313"/>
<polygon fill="midnightblue" stroke="midnightblue" points="595.799,-20.686 604.946,-15.3393 594.461,-13.815 595.799,-20.686"/>
</g>
<!-- Node6 -->
<g id="node6" class="node"><title>Node6</title>
<g id="a_node6"><a xlink:href="Quartet_8hh.html" target="_top" xlink:title="boca/multiplets/Quartet.hh">
<polygon fill="white" stroke="black" points="1094,-391.5 1094,-410.5 1225,-410.5 1225,-391.5 1094,-391.5"/>
<text text-anchor="middle" x="1159.5" y="-398.5" font-family="Helvetica,sans-Serif" font-size="10.00">boca/multiplets/Quartet.hh</text>
</a>
</g>
</g>
<!-- Node5&#45;&gt;Node6 -->
<g id="edge5" class="edge"><title>Node5&#45;&gt;Node6</title>
<path fill="none" stroke="midnightblue" d="M952.173,-452.975C995.032,-442.437 1068.04,-424.486 1115,-412.941"/>
<polygon fill="midnightblue" stroke="midnightblue" points="1116.02,-416.296 1124.89,-410.509 1114.35,-409.498 1116.02,-416.296"/>
</g>
<!-- Node21 -->
<g id="node21" class="node"><title>Node21</title>
<g id="a_node21"><a xlink:href="standardmodel_2standardmodel_2tagger_2Higgs_8hh.html" target="_top" xlink:title="standardmodel/tagger\l/Higgs.hh">
<polygon fill="white" stroke="black" points="862.5,-324.5 862.5,-354.5 972.5,-354.5 972.5,-324.5 862.5,-324.5"/>
<text text-anchor="start" x="870.5" y="-342.5" font-family="Helvetica,sans-Serif" font-size="10.00">standardmodel/tagger</text>
<text text-anchor="middle" x="917.5" y="-331.5" font-family="Helvetica,sans-Serif" font-size="10.00">/Higgs.hh</text>
</a>
</g>
</g>
<!-- Node5&#45;&gt;Node21 -->
<g id="edge22" class="edge"><title>Node5&#45;&gt;Node21</title>
<path fill="none" stroke="midnightblue" d="M917.5,-452.798C917.5,-434.605 917.5,-391.983 917.5,-364.794"/>
<polygon fill="midnightblue" stroke="midnightblue" points="921,-364.539 917.5,-354.539 914,-364.539 921,-364.539"/>
</g>
<!-- Node49 -->
<g id="node49" class="node"><title>Node49</title>
<g id="a_node49"><a xlink:href="Multi_8hh.html" target="_top" xlink:title="boca/branch/Multi.hh">
<polygon fill="white" stroke="black" points="496,-391.5 496,-410.5 603,-410.5 603,-391.5 496,-391.5"/>
<text text-anchor="middle" x="549.5" y="-398.5" font-family="Helvetica,sans-Serif" font-size="10.00">boca/branch/Multi.hh</text>
</a>
</g>
</g>
<!-- Node5&#45;&gt;Node49 -->
<g id="edge68" class="edge"><title>Node5&#45;&gt;Node49</title>
<path fill="none" stroke="midnightblue" d="M864.775,-452.975C798.097,-442.194 683.43,-423.654 612.296,-412.153"/>
<polygon fill="midnightblue" stroke="midnightblue" points="612.558,-408.65 602.128,-410.509 611.441,-415.56 612.558,-408.65"/>
</g>
<!-- Node7 -->
<g id="node7" class="node"><title>Node7</title>
<g id="a_node7"><a xlink:href="Triplet_8hh.html" target="_top" xlink:title="boca/multiplets/Triplet.hh">
<polygon fill="white" stroke="black" points="1096.5,-330 1096.5,-349 1222.5,-349 1222.5,-330 1096.5,-330"/>
<text text-anchor="middle" x="1159.5" y="-337" font-family="Helvetica,sans-Serif" font-size="10.00">boca/multiplets/Triplet.hh</text>
</a>
</g>
</g>
<!-- Node6&#45;&gt;Node7 -->
<g id="edge6" class="edge"><title>Node6&#45;&gt;Node7</title>
<path fill="none" stroke="midnightblue" d="M1159.5,-391.475C1159.5,-383.08 1159.5,-369.981 1159.5,-359.163"/>
<polygon fill="midnightblue" stroke="midnightblue" points="1163,-359.009 1159.5,-349.009 1156,-359.009 1163,-359.009"/>
</g>
<!-- Node20 -->
<g id="node20" class="node"><title>Node20</title>
<g id="a_node20"><a xlink:href="multiplets_2ThreeBody_8hh.html" target="_top" xlink:title="boca/multiplets/ThreeBody.hh">
<polygon fill="white" stroke="black" points="1323.5,-330 1323.5,-349 1469.5,-349 1469.5,-330 1323.5,-330"/>
<text text-anchor="middle" x="1396.5" y="-337" font-family="Helvetica,sans-Serif" font-size="10.00">boca/multiplets/ThreeBody.hh</text>
</a>
</g>
</g>
<!-- Node6&#45;&gt;Node20 -->
<g id="edge20" class="edge"><title>Node6&#45;&gt;Node20</title>
<path fill="none" stroke="midnightblue" d="M1193.46,-391.475C1235.34,-380.959 1306.63,-363.062 1352.63,-351.514"/>
<polygon fill="midnightblue" stroke="midnightblue" points="1353.76,-354.839 1362.61,-349.009 1352.06,-348.049 1353.76,-354.839"/>
</g>
<!-- Node8 -->
<g id="node8" class="node"><title>Node8</title>
<g id="a_node8"><a xlink:href="Doublet_8hh.html" target="_top" xlink:title="boca/multiplets/Doublet.hh">
<polygon fill="white" stroke="black" points="1093,-263 1093,-282 1226,-282 1226,-263 1093,-263"/>
<text text-anchor="middle" x="1159.5" y="-270" font-family="Helvetica,sans-Serif" font-size="10.00">boca/multiplets/Doublet.hh</text>
</a>
</g>
</g>
<!-- Node7&#45;&gt;Node8 -->
<g id="edge7" class="edge"><title>Node7&#45;&gt;Node8</title>
<path fill="none" stroke="midnightblue" d="M1159.5,-329.734C1159.5,-320.183 1159.5,-304.618 1159.5,-292.283"/>
<polygon fill="midnightblue" stroke="midnightblue" points="1163,-292.127 1159.5,-282.127 1156,-292.127 1163,-292.127"/>
</g>
<!-- Node9 -->
<g id="node9" class="node"><title>Node9</title>
<g id="a_node9"><a xlink:href="multiplets_2TwoBody_8hh.html" target="_top" xlink:title="boca/multiplets/TwoBody.hh">
<polygon fill="white" stroke="black" points="1370.5,-196 1370.5,-215 1510.5,-215 1510.5,-196 1370.5,-196"/>
<text text-anchor="middle" x="1440.5" y="-203" font-family="Helvetica,sans-Serif" font-size="10.00">boca/multiplets/TwoBody.hh</text>
</a>
</g>
</g>
<!-- Node8&#45;&gt;Node9 -->
<g id="edge8" class="edge"><title>Node8&#45;&gt;Node9</title>
<path fill="none" stroke="midnightblue" d="M1196.52,-262.936C1247.17,-251.22 1338.08,-230.193 1393.48,-217.377"/>
<polygon fill="midnightblue" stroke="midnightblue" points="1394.44,-220.747 1403.39,-215.083 1392.86,-213.927 1394.44,-220.747"/>
</g>
<!-- Node10 -->
<g id="node10" class="node"><title>Node10</title>
<polygon fill="white" stroke="#bfbfbf" points="1704.5,-123.5 1704.5,-153.5 1814.5,-153.5 1814.5,-123.5 1704.5,-123.5"/>
<text text-anchor="start" x="1712.5" y="-141.5" font-family="Helvetica,sans-Serif" font-size="10.00">boost/range/algorithm</text>
<text text-anchor="middle" x="1759.5" y="-130.5" font-family="Helvetica,sans-Serif" font-size="10.00">/unique.hpp</text>
</g>
<!-- Node9&#45;&gt;Node10 -->
<g id="edge9" class="edge"><title>Node9&#45;&gt;Node10</title>
<path fill="none" stroke="midnightblue" d="M1485.72,-195.932C1534.66,-186.571 1615.26,-170.907 1694.24,-154.236"/>
<polygon fill="midnightblue" stroke="midnightblue" points="1695.31,-157.589 1704.36,-152.092 1693.85,-150.741 1695.31,-157.589"/>
</g>
<!-- Node11 -->
<g id="node11" class="node"><title>Node11</title>
<g id="a_node11"><a xlink:href="Vector_8hh.html" target="_top" xlink:title="boca/generic/Vector.hh">
<polygon fill="white" stroke="red" points="1460,-62 1460,-81 1577,-81 1577,-62 1460,-62"/>
<text text-anchor="middle" x="1518.5" y="-69" font-family="Helvetica,sans-Serif" font-size="10.00">boca/generic/Vector.hh</text>
</a>
</g>
</g>
<!-- Node9&#45;&gt;Node11 -->
<g id="edge10" class="edge"><title>Node9&#45;&gt;Node11</title>
<path fill="none" stroke="midnightblue" d="M1464.72,-195.879C1482.82,-188.016 1506.28,-174.469 1517.5,-154 1528.15,-134.557 1526.14,-108.385 1522.98,-91.0039"/>
<polygon fill="midnightblue" stroke="midnightblue" points="1526.35,-90.0636 1520.85,-81.0103 1519.51,-91.5196 1526.35,-90.0636"/>
</g>
<!-- Node12 -->
<g id="node12" class="node"><title>Node12</title>
<g id="a_node12"><a xlink:href="ClusterSequence_8hh.html" target="_top" xlink:title="boca/fastjet/ClusterSequence.hh">
<polygon fill="white" stroke="red" points="1833,-129 1833,-148 1992,-148 1992,-129 1833,-129"/>
<text text-anchor="middle" x="1912.5" y="-136" font-family="Helvetica,sans-Serif" font-size="10.00">boca/fastjet/ClusterSequence.hh</text>
</a>
</g>
</g>
<!-- Node9&#45;&gt;Node12 -->
<g id="edge11" class="edge"><title>Node9&#45;&gt;Node12</title>
<path fill="none" stroke="midnightblue" d="M1488.09,-195.961C1500.27,-193.892 1513.35,-191.769 1525.5,-190 1657.52,-170.777 1691.41,-172.73 1823.5,-154 1832.82,-152.679 1842.67,-151.178 1852.29,-149.656"/>
<polygon fill="midnightblue" stroke="midnightblue" points="1852.87,-153.107 1862.19,-148.068 1851.76,-146.195 1852.87,-153.107"/>
</g>
<!-- Node13 -->
<g id="node13" class="node"><title>Node13</title>
<g id="a_node13"><a xlink:href="Multiplet_8hh.html" target="_top" xlink:title="boca/multiplets/Multiplet.hh">
<polygon fill="white" stroke="red" points="1372.5,-129 1372.5,-148 1508.5,-148 1508.5,-129 1372.5,-129"/>
<text text-anchor="middle" x="1440.5" y="-136" font-family="Helvetica,sans-Serif" font-size="10.00">boca/multiplets/Multiplet.hh</text>
</a>
</g>
</g>
<!-- Node9&#45;&gt;Node13 -->
<g id="edge12" class="edge"><title>Node9&#45;&gt;Node13</title>
<path fill="none" stroke="midnightblue" d="M1440.5,-195.734C1440.5,-186.183 1440.5,-170.618 1440.5,-158.283"/>
<polygon fill="midnightblue" stroke="midnightblue" points="1444,-158.127 1440.5,-148.127 1437,-158.127 1444,-158.127"/>
</g>
<!-- Node15 -->
<g id="node15" class="node"><title>Node15</title>
<g id="a_node15"><a xlink:href="Sort_8hh.html" target="_top" xlink:title="boca/multiplets/Sort.hh">
<polygon fill="white" stroke="black" points="887,-129 887,-148 1004,-148 1004,-129 887,-129"/>
<text text-anchor="middle" x="945.5" y="-136" font-family="Helvetica,sans-Serif" font-size="10.00">boca/multiplets/Sort.hh</text>
</a>
</g>
</g>
<!-- Node9&#45;&gt;Node15 -->
<g id="edge14" class="edge"><title>Node9&#45;&gt;Node15</title>
<path fill="none" stroke="midnightblue" d="M1373.71,-195.971C1296.21,-186.041 1164.57,-169.073 1051.5,-154 1039.49,-152.399 1026.72,-150.672 1014.35,-148.988"/>
<polygon fill="midnightblue" stroke="midnightblue" points="1014.47,-145.471 1004.08,-147.587 1013.52,-152.407 1014.47,-145.471"/>
</g>
<!-- Node14 -->
<g id="node14" class="node"><title>Node14</title>
<g id="a_node14"><a xlink:href="Singlet_8hh.html" target="_top" xlink:title="boca/multiplets/Singlet.hh">
<polygon fill="white" stroke="red" points="1269,-62 1269,-81 1398,-81 1398,-62 1269,-62"/>
<text text-anchor="middle" x="1333.5" y="-69" font-family="Helvetica,sans-Serif" font-size="10.00">boca/multiplets/Singlet.hh</text>
</a>
</g>
</g>
<!-- Node13&#45;&gt;Node14 -->
<g id="edge13" class="edge"><title>Node13&#45;&gt;Node14</title>
<path fill="none" stroke="midnightblue" d="M1426.07,-128.734C1408.18,-117.867 1377.48,-99.2161 1356.37,-86.3931"/>
<polygon fill="midnightblue" stroke="midnightblue" points="1358.07,-83.3279 1347.7,-81.1273 1354.43,-89.3105 1358.07,-83.3279"/>
</g>
<!-- Node16 -->
<g id="node16" class="node"><title>Node16</title>
<polygon fill="white" stroke="#bfbfbf" points="1100.5,-56.5 1100.5,-86.5 1210.5,-86.5 1210.5,-56.5 1100.5,-56.5"/>
<text text-anchor="start" x="1108.5" y="-74.5" font-family="Helvetica,sans-Serif" font-size="10.00">boost/range/algorithm</text>
<text text-anchor="middle" x="1155.5" y="-63.5" font-family="Helvetica,sans-Serif" font-size="10.00">/sort.hpp</text>
</g>
<!-- Node15&#45;&gt;Node16 -->
<g id="edge15" class="edge"><title>Node15&#45;&gt;Node16</title>
<path fill="none" stroke="midnightblue" d="M973.386,-128.869C1005.65,-118.883 1059.56,-102.197 1100.37,-89.5642"/>
<polygon fill="midnightblue" stroke="midnightblue" points="1101.66,-92.8285 1110.18,-86.5281 1099.59,-86.1415 1101.66,-92.8285"/>
</g>
<!-- Node17 -->
<g id="node17" class="node"><title>Node17</title>
<polygon fill="white" stroke="#bfbfbf" points="852,-62 852,-81 965,-81 965,-62 852,-62"/>
<text text-anchor="middle" x="908.5" y="-69" font-family="Helvetica,sans-Serif" font-size="10.00">boost/units/cmath.hpp</text>
</g>
<!-- Node15&#45;&gt;Node17 -->
<g id="edge16" class="edge"><title>Node15&#45;&gt;Node17</title>
<path fill="none" stroke="midnightblue" d="M940.51,-128.734C934.907,-118.89 925.668,-102.66 918.552,-90.1594"/>
<polygon fill="midnightblue" stroke="midnightblue" points="921.4,-88.0865 913.411,-81.1273 915.316,-91.5494 921.4,-88.0865"/>
</g>
<!-- Node18 -->
<g id="node18" class="node"><title>Node18</title>
<g id="a_node18"><a xlink:href="Id_8hh.html" target="_top" xlink:title="boca/physics/Id.hh">
<polygon fill="white" stroke="red" points="983,-62 983,-81 1082,-81 1082,-62 983,-62"/>
<text text-anchor="middle" x="1032.5" y="-69" font-family="Helvetica,sans-Serif" font-size="10.00">boca/physics/Id.hh</text>
</a>
</g>
</g>
<!-- Node15&#45;&gt;Node18 -->
<g id="edge17" class="edge"><title>Node15&#45;&gt;Node18</title>
<path fill="none" stroke="midnightblue" d="M957.233,-128.734C971.452,-118.111 995.627,-100.049 1012.74,-87.2642"/>
<polygon fill="midnightblue" stroke="midnightblue" points="1015.04,-89.9165 1020.95,-81.1273 1010.85,-84.3087 1015.04,-89.9165"/>
</g>
<!-- Node18&#45;&gt;Node4 -->
<g id="edge18" class="edge"><title>Node18&#45;&gt;Node4</title>
<path fill="none" stroke="midnightblue" d="M1001.04,-61.925C992.476,-59.7852 983.169,-57.6368 974.5,-56 857.84,-33.9743 717.185,-19.4573 656.19,-13.7414"/>
<polygon fill="midnightblue" stroke="midnightblue" points="656.367,-10.2429 646.087,-12.8073 655.722,-17.2132 656.367,-10.2429"/>
</g>
<!-- Node19 -->
<g id="node19" class="node"><title>Node19</title>
<polygon fill="white" stroke="#bfbfbf" points="1010.5,-0.5 1010.5,-19.5 1054.5,-19.5 1054.5,-0.5 1010.5,-0.5"/>
<text text-anchor="middle" x="1032.5" y="-7.5" font-family="Helvetica,sans-Serif" font-size="10.00">vector</text>
</g>
<!-- Node18&#45;&gt;Node19 -->
<g id="edge19" class="edge"><title>Node18&#45;&gt;Node19</title>
<path fill="none" stroke="midnightblue" d="M1032.5,-61.9751C1032.5,-53.5803 1032.5,-40.4806 1032.5,-29.6631"/>
<polygon fill="midnightblue" stroke="midnightblue" points="1036,-29.5091 1032.5,-19.5091 1029,-29.5091 1036,-29.5091"/>
</g>
<!-- Node20&#45;&gt;Node9 -->
<g id="edge21" class="edge"><title>Node20&#45;&gt;Node9</title>
<path fill="none" stroke="midnightblue" d="M1399.39,-329.839C1406.47,-308.58 1424.85,-253.463 1434.45,-224.651"/>
<polygon fill="midnightblue" stroke="midnightblue" points="1437.82,-225.615 1437.66,-215.021 1431.18,-223.401 1437.82,-225.615"/>
</g>
<!-- Node21&#45;&gt;Node8 -->
<g id="edge45" class="edge"><title>Node21&#45;&gt;Node8</title>
<path fill="none" stroke="midnightblue" d="M969.712,-324.476C1014.13,-312.547 1077.06,-295.644 1118.07,-284.628"/>
<polygon fill="midnightblue" stroke="midnightblue" points="1119,-288.003 1127.75,-282.029 1117.18,-281.243 1119,-288.003"/>
</g>
<!-- Node22 -->
<g id="node22" class="node"><title>Node22</title>
<g id="a_node22"><a xlink:href="boca_2tagger_2Tagger_8hh.html" target="_top" xlink:title="boca/tagger/Tagger.hh">
<polygon fill="white" stroke="black" points="819.5,-196 819.5,-215 933.5,-215 933.5,-196 819.5,-196"/>
<text text-anchor="middle" x="876.5" y="-203" font-family="Helvetica,sans-Serif" font-size="10.00">boca/tagger/Tagger.hh</text>
</a>
</g>
</g>
<!-- Node21&#45;&gt;Node22 -->
<g id="edge23" class="edge"><title>Node21&#45;&gt;Node22</title>
<path fill="none" stroke="midnightblue" d="M915.03,-324.443C911.96,-308.028 906.177,-280.17 898.5,-257 894.833,-245.933 889.67,-233.955 885.267,-224.443"/>
<polygon fill="midnightblue" stroke="midnightblue" points="888.35,-222.776 880.894,-215.249 882.028,-225.783 888.35,-222.776"/>
</g>
<!-- Node36 -->
<g id="node36" class="node"><title>Node36</title>
<g id="a_node36"><a xlink:href="Reader_8hh.html" target="_top" xlink:title="boca/multivariant/Reader.hh">
<polygon fill="white" stroke="black" points="1061,-196 1061,-215 1200,-215 1200,-196 1061,-196"/>
<text text-anchor="middle" x="1130.5" y="-203" font-family="Helvetica,sans-Serif" font-size="10.00">boca/multivariant/Reader.hh</text>
</a>
</g>
</g>
<!-- Node21&#45;&gt;Node36 -->
<g id="edge46" class="edge"><title>Node21&#45;&gt;Node36</title>
<path fill="none" stroke="midnightblue" d="M940.295,-324.374C981.316,-298.952 1067.09,-245.794 1107.94,-220.48"/>
<polygon fill="midnightblue" stroke="midnightblue" points="1109.97,-223.34 1116.63,-215.097 1106.28,-217.39 1109.97,-223.34"/>
</g>
<!-- Node41 -->
<g id="node41" class="node"><title>Node41</title>
<g id="a_node41"><a xlink:href="tagger_2Bottom_8hh.html" target="_top" xlink:title="standardmodel/tagger\l/Bottom.hh">
<polygon fill="white" stroke="black" points="779.5,-257.5 779.5,-287.5 889.5,-287.5 889.5,-257.5 779.5,-257.5"/>
<text text-anchor="start" x="787.5" y="-275.5" font-family="Helvetica,sans-Serif" font-size="10.00">standardmodel/tagger</text>
<text text-anchor="middle" x="834.5" y="-264.5" font-family="Helvetica,sans-Serif" font-size="10.00">/Bottom.hh</text>
</a>
</g>
</g>
<!-- Node21&#45;&gt;Node41 -->
<g id="edge56" class="edge"><title>Node21&#45;&gt;Node41</title>
<path fill="none" stroke="midnightblue" d="M899.49,-324.396C888.07,-315.452 873.111,-303.737 860.424,-293.802"/>
<polygon fill="midnightblue" stroke="midnightblue" points="862.506,-290.987 852.475,-287.577 858.19,-296.498 862.506,-290.987"/>
</g>
<!-- Node46 -->
<g id="node46" class="node"><title>Node46</title>
<g id="a_node46"><a xlink:href="standardmodel_2standardmodel_2branch_2Higgs_8hh.html" target="_top" xlink:title="standardmodel/branch\l/Higgs.hh">
<polygon fill="white" stroke="black" points="315,-257.5 315,-287.5 428,-287.5 428,-257.5 315,-257.5"/>
<text text-anchor="start" x="323" y="-275.5" font-family="Helvetica,sans-Serif" font-size="10.00">standardmodel/branch</text>
<text text-anchor="middle" x="371.5" y="-264.5" font-family="Helvetica,sans-Serif" font-size="10.00">/Higgs.hh</text>
</a>
</g>
</g>
<!-- Node21&#45;&gt;Node46 -->
<g id="edge63" class="edge"><title>Node21&#45;&gt;Node46</title>
<path fill="none" stroke="midnightblue" d="M862.395,-331.94C761.538,-319.933 547.614,-294.466 438.518,-281.478"/>
<polygon fill="midnightblue" stroke="midnightblue" points="438.639,-277.968 428.295,-280.261 437.811,-284.919 438.639,-277.968"/>
</g>
<!-- Node22&#45;&gt;Node15 -->
<g id="edge27" class="edge"><title>Node22&#45;&gt;Node15</title>
<path fill="none" stroke="midnightblue" d="M885.806,-195.734C896.772,-185.403 915.207,-168.037 928.694,-155.332"/>
<polygon fill="midnightblue" stroke="midnightblue" points="931.463,-157.532 936.342,-148.127 926.663,-152.437 931.463,-157.532"/>
</g>
<!-- Node23 -->
<g id="node23" class="node"><title>Node23</title>
<g id="a_node23"><a xlink:href="Types_8hh.html" target="_top" xlink:title="boca/generic/Types.hh">
<polygon fill="white" stroke="black" points="384.5,-129 384.5,-148 500.5,-148 500.5,-129 384.5,-129"/>
<text text-anchor="middle" x="442.5" y="-136" font-family="Helvetica,sans-Serif" font-size="10.00">boca/generic/Types.hh</text>
</a>
</g>
</g>
<!-- Node22&#45;&gt;Node23 -->
<g id="edge24" class="edge"><title>Node22&#45;&gt;Node23</title>
<path fill="none" stroke="midnightblue" d="M840.106,-195.989C830.212,-193.849 819.475,-191.684 809.5,-190 679.26,-168.008 644.895,-175.054 514.5,-154 507.148,-152.813 499.403,-151.413 491.827,-149.958"/>
<polygon fill="midnightblue" stroke="midnightblue" points="492.499,-146.524 482.012,-148.029 491.149,-153.392 492.499,-146.524"/>
</g>
<!-- Node25 -->
<g id="node25" class="node"><title>Node25</title>
<g id="a_node25"><a xlink:href="TreeBranch_8hh.html" target="_top" xlink:title="boca/io/TreeBranch.hh">
<polygon fill="white" stroke="black" points="471,-62 471,-81 586,-81 586,-62 471,-62"/>
<text text-anchor="middle" x="528.5" y="-69" font-family="Helvetica,sans-Serif" font-size="10.00">boca/io/TreeBranch.hh</text>
</a>
</g>
</g>
<!-- Node22&#45;&gt;Node25 -->
<g id="edge28" class="edge"><title>Node22&#45;&gt;Node25</title>
<path fill="none" stroke="midnightblue" d="M839.018,-195.974C829.418,-193.905 819.096,-191.778 809.5,-190 706.469,-170.909 663.223,-212.812 576.5,-154 554.243,-138.906 540.819,-109.77 534.035,-90.7358"/>
<polygon fill="midnightblue" stroke="midnightblue" points="537.318,-89.5169 530.863,-81.1157 530.67,-91.7088 537.318,-89.5169"/>
</g>
<!-- Node27 -->
<g id="node27" class="node"><title>Node27</title>
<g id="a_node27"><a xlink:href="tagger_2Base_8hh.html" target="_top" xlink:title="boca/tagger/Base.hh">
<polygon fill="white" stroke="red" points="595,-129 595,-148 702,-148 702,-129 595,-129"/>
<text text-anchor="middle" x="648.5" y="-136" font-family="Helvetica,sans-Serif" font-size="10.00">boca/tagger/Base.hh</text>
</a>
</g>
</g>
<!-- Node22&#45;&gt;Node27 -->
<g id="edge31" class="edge"><title>Node22&#45;&gt;Node27</title>
<path fill="none" stroke="midnightblue" d="M846.223,-195.869C805.569,-184.278 733.254,-163.662 688.254,-150.834"/>
<polygon fill="midnightblue" stroke="midnightblue" points="689.115,-147.439 678.539,-148.064 687.196,-154.171 689.115,-147.439"/>
</g>
<!-- Node29 -->
<g id="node29" class="node"><title>Node29</title>
<g id="a_node29"><a xlink:href="PreCuts_8hh.html" target="_top" xlink:title="boca/PreCuts.hh">
<polygon fill="white" stroke="red" points="1060.5,-129 1060.5,-148 1150.5,-148 1150.5,-129 1060.5,-129"/>
<text text-anchor="middle" x="1105.5" y="-136" font-family="Helvetica,sans-Serif" font-size="10.00">boca/PreCuts.hh</text>
</a>
</g>
</g>
<!-- Node22&#45;&gt;Node29 -->
<g id="edge33" class="edge"><title>Node22&#45;&gt;Node29</title>
<path fill="none" stroke="midnightblue" d="M906.909,-195.869C947.742,-184.278 1020.37,-163.662 1065.57,-150.834"/>
<polygon fill="midnightblue" stroke="midnightblue" points="1066.67,-154.161 1075.33,-148.064 1064.75,-147.427 1066.67,-154.161"/>
</g>
<!-- Node30 -->
<g id="node30" class="node"><title>Node30</title>
<g id="a_node30"><a xlink:href="Filter_8hh.html" target="_top" xlink:title="boca/Filter.hh">
<polygon fill="white" stroke="red" points="604.5,-62 604.5,-81 680.5,-81 680.5,-62 604.5,-62"/>
<text text-anchor="middle" x="642.5" y="-69" font-family="Helvetica,sans-Serif" font-size="10.00">boca/Filter.hh</text>
</a>
</g>
</g>
<!-- Node22&#45;&gt;Node30 -->
<g id="edge35" class="edge"><title>Node22&#45;&gt;Node30</title>
<path fill="none" stroke="midnightblue" d="M838.659,-195.939C829.159,-193.892 818.973,-191.785 809.5,-190 759.955,-180.665 618.199,-192.374 585.5,-154 566.732,-131.975 596.965,-103.859 620.085,-87.0665"/>
<polygon fill="midnightblue" stroke="midnightblue" points="622.274,-89.8074 628.481,-81.2212 618.275,-84.0625 622.274,-89.8074"/>
</g>
<!-- Node31 -->
<g id="node31" class="node"><title>Node31</title>
<g id="a_node31"><a xlink:href="Debug_8hh.html" target="_top" xlink:title="boca/generic/Debug.hh">
<polygon fill="white" stroke="black" points="2010,-129 2010,-148 2127,-148 2127,-129 2010,-129"/>
<text text-anchor="middle" x="2068.5" y="-136" font-family="Helvetica,sans-Serif" font-size="10.00">boca/generic/Debug.hh</text>
</a>
</g>
</g>
<!-- Node22&#45;&gt;Node31 -->
<g id="edge38" class="edge"><title>Node22&#45;&gt;Node31</title>
<path fill="none" stroke="midnightblue" d="M933.524,-199.159C967.951,-196.094 1012.72,-192.392 1052.5,-190 1473.82,-164.666 1582.74,-206.842 2001.5,-154 2009.05,-153.047 2017.02,-151.665 2024.71,-150.127"/>
<polygon fill="midnightblue" stroke="midnightblue" points="2025.55,-153.527 2034.61,-148.04 2024.11,-146.678 2025.55,-153.527"/>
</g>
<!-- Node23&#45;&gt;Node4 -->
<g id="edge25" class="edge"><title>Node23&#45;&gt;Node4</title>
<path fill="none" stroke="midnightblue" d="M441.854,-128.793C441.133,-112.269 442.06,-76.2081 461.5,-56 470.852,-46.278 550.439,-27.5018 595.21,-17.5544"/>
<polygon fill="midnightblue" stroke="midnightblue" points="595.976,-20.9695 604.989,-15.3991 594.47,-14.1336 595.976,-20.9695"/>
</g>
<!-- Node24 -->
<g id="node24" class="node"><title>Node24</title>
<polygon fill="white" stroke="#bfbfbf" points="298.5,-62 298.5,-81 414.5,-81 414.5,-62 298.5,-62"/>
<text text-anchor="middle" x="356.5" y="-69" font-family="Helvetica,sans-Serif" font-size="10.00">boost/range/irange.hpp</text>
</g>
<!-- Node23&#45;&gt;Node24 -->
<g id="edge26" class="edge"><title>Node23&#45;&gt;Node24</title>
<path fill="none" stroke="midnightblue" d="M430.902,-128.734C416.846,-118.111 392.949,-100.049 376.034,-87.2642"/>
<polygon fill="midnightblue" stroke="midnightblue" points="378.003,-84.3648 367.915,-81.1273 373.782,-89.9492 378.003,-84.3648"/>
</g>
<!-- Node25&#45;&gt;Node4 -->
<g id="edge29" class="edge"><title>Node25&#45;&gt;Node4</title>
<path fill="none" stroke="midnightblue" d="M542.398,-61.9751C558.172,-52.2989 584.137,-36.3721 602.849,-24.8941"/>
<polygon fill="midnightblue" stroke="midnightblue" points="604.934,-27.7213 611.628,-19.5091 601.274,-21.7544 604.934,-27.7213"/>
</g>
<!-- Node26 -->
<g id="node26" class="node"><title>Node26</title>
<polygon fill="white" stroke="#bfbfbf" points="486,-0.5 486,-19.5 571,-19.5 571,-0.5 486,-0.5"/>
<text text-anchor="middle" x="528.5" y="-7.5" font-family="Helvetica,sans-Serif" font-size="10.00">TClonesArray.h</text>
</g>
<!-- Node25&#45;&gt;Node26 -->
<g id="edge30" class="edge"><title>Node25&#45;&gt;Node26</title>
<path fill="none" stroke="midnightblue" d="M528.5,-61.9751C528.5,-53.5803 528.5,-40.4806 528.5,-29.6631"/>
<polygon fill="midnightblue" stroke="midnightblue" points="532,-29.5091 528.5,-19.5091 525,-29.5091 532,-29.5091"/>
</g>
<!-- Node28 -->
<g id="node28" class="node"><title>Node28</title>
<g id="a_node28"><a xlink:href="Phase_8hh.html" target="_top" xlink:title="boca/multivariant/Phase.hh">
<polygon fill="white" stroke="red" points="699,-62 699,-81 834,-81 834,-62 699,-62"/>
<text text-anchor="middle" x="766.5" y="-69" font-family="Helvetica,sans-Serif" font-size="10.00">boca/multivariant/Phase.hh</text>
</a>
</g>
</g>
<!-- Node27&#45;&gt;Node28 -->
<g id="edge32" class="edge"><title>Node27&#45;&gt;Node28</title>
<path fill="none" stroke="midnightblue" d="M664.414,-128.734C684.319,-117.769 718.609,-98.8809 741.903,-86.0495"/>
<polygon fill="midnightblue" stroke="midnightblue" points="743.768,-89.0179 750.838,-81.1273 740.39,-82.8866 743.768,-89.0179"/>
</g>
<!-- Node29&#45;&gt;Node11 -->
<g id="edge34" class="edge"><title>Node29&#45;&gt;Node11</title>
<path fill="none" stroke="midnightblue" d="M1134.77,-128.94C1142.75,-126.8 1151.42,-124.648 1159.5,-123 1187.27,-117.34 1353.69,-94.6438 1449.9,-81.6872"/>
<polygon fill="midnightblue" stroke="midnightblue" points="1450.4,-85.1519 1459.85,-80.3494 1449.47,-78.2145 1450.4,-85.1519"/>
</g>
<!-- Node30&#45;&gt;Node4 -->
<g id="edge36" class="edge"><title>Node30&#45;&gt;Node4</title>
<path fill="none" stroke="midnightblue" d="M640.064,-61.9751C637.641,-53.4919 633.844,-40.2043 630.735,-29.3222"/>
<polygon fill="midnightblue" stroke="midnightblue" points="634.044,-28.1628 627.931,-19.5091 627.313,-30.0859 634.044,-28.1628"/>
</g>
<!-- Node30&#45;&gt;Node19 -->
<g id="edge37" class="edge"><title>Node30&#45;&gt;Node19</title>
<path fill="none" stroke="midnightblue" d="M667.659,-61.881C674.667,-59.7158 682.325,-57.5657 689.5,-56 802.146,-31.4187 938.731,-18.3987 1000.01,-13.4237"/>
<polygon fill="midnightblue" stroke="midnightblue" points="1000.51,-16.8943 1010.21,-12.6138 999.96,-9.91629 1000.51,-16.8943"/>
</g>
<!-- Node31&#45;&gt;Node4 -->
<g id="edge39" class="edge"><title>Node31&#45;&gt;Node4</title>
<path fill="none" stroke="midnightblue" d="M2036.7,-128.989C1970.58,-111.709 1813.21,-72.7384 1678.5,-56 1473.02,-30.4688 807.875,-14.9096 656.397,-11.6449"/>
<polygon fill="midnightblue" stroke="midnightblue" points="656.464,-8.14561 646.392,-11.4311 656.315,-15.144 656.464,-8.14561"/>
</g>
<!-- Node31&#45;&gt;Node19 -->
<g id="edge40" class="edge"><title>Node31&#45;&gt;Node19</title>
<path fill="none" stroke="midnightblue" d="M2083.4,-128.901C2108.41,-113.459 2153.89,-80.3692 2130.5,-56 2092.65,-16.566 1242.43,-11.6722 1064.83,-11.0797"/>
<polygon fill="midnightblue" stroke="midnightblue" points="1064.59,-7.57906 1054.58,-11.0479 1064.57,-14.579 1064.59,-7.57906"/>
</g>
<!-- Node32 -->
<g id="node32" class="node"><title>Node32</title>
<polygon fill="white" stroke="#bfbfbf" points="1617.5,-62 1617.5,-81 1669.5,-81 1669.5,-62 1617.5,-62"/>
<text text-anchor="middle" x="1643.5" y="-69" font-family="Helvetica,sans-Serif" font-size="10.00">sstream</text>
</g>
<!-- Node31&#45;&gt;Node32 -->
<g id="edge41" class="edge"><title>Node31&#45;&gt;Node32</title>
<path fill="none" stroke="midnightblue" d="M2031.38,-128.962C2021.69,-126.87 2011.22,-124.736 2001.5,-123 1970.2,-117.414 1764.25,-89.0441 1679.67,-77.4486"/>
<polygon fill="midnightblue" stroke="midnightblue" points="1679.88,-73.9459 1669.5,-76.0559 1678.93,-80.8811 1679.88,-73.9459"/>
</g>
<!-- Node33 -->
<g id="node33" class="node"><title>Node33</title>
<polygon fill="white" stroke="#bfbfbf" points="1875.5,-62 1875.5,-81 1925.5,-81 1925.5,-62 1875.5,-62"/>
<text text-anchor="middle" x="1900.5" y="-69" font-family="Helvetica,sans-Serif" font-size="10.00">iomanip</text>
</g>
<!-- Node31&#45;&gt;Node33 -->
<g id="edge42" class="edge"><title>Node31&#45;&gt;Node33</title>
<path fill="none" stroke="midnightblue" d="M2044.66,-128.865C2017.77,-119.044 1972.8,-102.375 1934.5,-87 1932.9,-86.359 1931.27,-85.6932 1929.62,-85.0148"/>
<polygon fill="midnightblue" stroke="midnightblue" points="1930.79,-81.7117 1920.22,-81.0773 1928.09,-88.1684 1930.79,-81.7117"/>
</g>
<!-- Node34 -->
<g id="node34" class="node"><title>Node34</title>
<polygon fill="white" stroke="#bfbfbf" points="1943.5,-62 1943.5,-81 1997.5,-81 1997.5,-62 1943.5,-62"/>
<text text-anchor="middle" x="1970.5" y="-69" font-family="Helvetica,sans-Serif" font-size="10.00">iostream</text>
</g>
<!-- Node31&#45;&gt;Node34 -->
<g id="edge43" class="edge"><title>Node31&#45;&gt;Node34</title>
<path fill="none" stroke="midnightblue" d="M2055.28,-128.734C2039.05,-117.964 2011.28,-99.55 1991.97,-86.7395"/>
<polygon fill="midnightblue" stroke="midnightblue" points="1993.78,-83.738 1983.51,-81.1273 1989.91,-89.5715 1993.78,-83.738"/>
</g>
<!-- Node35 -->
<g id="node35" class="node"><title>Node35</title>
<polygon fill="white" stroke="#bfbfbf" points="2016,-56.5 2016,-86.5 2121,-86.5 2121,-56.5 2016,-56.5"/>
<text text-anchor="start" x="2024" y="-74.5" font-family="Helvetica,sans-Serif" font-size="10.00">boost/units/systems</text>
<text text-anchor="middle" x="2068.5" y="-63.5" font-family="Helvetica,sans-Serif" font-size="10.00">/si/io.hpp</text>
</g>
<!-- Node31&#45;&gt;Node35 -->
<g id="edge44" class="edge"><title>Node31&#45;&gt;Node35</title>
<path fill="none" stroke="midnightblue" d="M2068.5,-128.734C2068.5,-120.541 2068.5,-107.923 2068.5,-96.7136"/>
<polygon fill="midnightblue" stroke="midnightblue" points="2072,-96.589 2068.5,-86.589 2065,-96.5891 2072,-96.589"/>
</g>
<!-- Node36&#45;&gt;Node15 -->
<g id="edge52" class="edge"><title>Node36&#45;&gt;Node15</title>
<path fill="none" stroke="midnightblue" d="M1105.93,-195.869C1073.5,-184.473 1016.23,-164.353 979.616,-151.487"/>
<polygon fill="midnightblue" stroke="midnightblue" points="980.468,-148.076 969.874,-148.064 978.148,-154.681 980.468,-148.076"/>
</g>
<!-- Node36&#45;&gt;Node28 -->
<g id="edge53" class="edge"><title>Node36&#45;&gt;Node28</title>
<path fill="none" stroke="midnightblue" d="M1060.92,-199.436C1008.72,-193.567 936.575,-180.965 878.5,-154 858.417,-144.675 857.281,-136.195 839.5,-123 822.385,-110.3 802.458,-96.5835 787.751,-86.6554"/>
<polygon fill="midnightblue" stroke="midnightblue" points="789.594,-83.6767 779.341,-81.0063 785.69,-89.4876 789.594,-83.6767"/>
</g>
<!-- Node36&#45;&gt;Node29 -->
<g id="edge54" class="edge"><title>Node36&#45;&gt;Node29</title>
<path fill="none" stroke="midnightblue" d="M1127.13,-195.734C1123.38,-185.988 1117.22,-169.981 1112.44,-157.532"/>
<polygon fill="midnightblue" stroke="midnightblue" points="1115.67,-156.204 1108.82,-148.127 1109.14,-158.717 1115.67,-156.204"/>
</g>
<!-- Node37 -->
<g id="node37" class="node"><title>Node37</title>
<polygon fill="white" stroke="#bfbfbf" points="1267,-129 1267,-148 1354,-148 1354,-129 1267,-129"/>
<text text-anchor="middle" x="1310.5" y="-136" font-family="Helvetica,sans-Serif" font-size="10.00">TMVA/Reader.h</text>
</g>
<!-- Node36&#45;&gt;Node37 -->
<g id="edge47" class="edge"><title>Node36&#45;&gt;Node37</title>
<path fill="none" stroke="midnightblue" d="M1154.4,-195.869C1185.96,-184.473 1241.68,-164.353 1277.31,-151.487"/>
<polygon fill="midnightblue" stroke="midnightblue" points="1278.57,-154.752 1286.79,-148.064 1276.19,-148.168 1278.57,-154.752"/>
</g>
<!-- Node38 -->
<g id="node38" class="node"><title>Node38</title>
<g id="a_node38"><a xlink:href="Options_8hh.html" target="_top" xlink:title="boca/generic/Options.hh">
<polygon fill="white" stroke="black" points="1564.5,-129 1564.5,-148 1686.5,-148 1686.5,-129 1564.5,-129"/>
<text text-anchor="middle" x="1625.5" y="-136" font-family="Helvetica,sans-Serif" font-size="10.00">boca/generic/Options.hh</text>
</a>
</g>
</g>
<!-- Node36&#45;&gt;Node38 -->
<g id="edge48" class="edge"><title>Node36&#45;&gt;Node38</title>
<path fill="none" stroke="midnightblue" d="M1196.25,-195.996C1273.25,-186.019 1404.65,-168.938 1517.5,-154 1529.37,-152.429 1541.97,-150.749 1554.21,-149.109"/>
<polygon fill="midnightblue" stroke="midnightblue" points="1554.94,-152.542 1564.39,-147.745 1554.01,-145.604 1554.94,-152.542"/>
</g>
<!-- Node39 -->
<g id="node39" class="node"><title>Node39</title>
<g id="a_node39"><a xlink:href="TreeWriter_8hh.html" target="_top" xlink:title="boca/io/TreeWriter.hh">
<polygon fill="white" stroke="red" points="720.5,-129 720.5,-148 830.5,-148 830.5,-129 720.5,-129"/>
<text text-anchor="middle" x="775.5" y="-136" font-family="Helvetica,sans-Serif" font-size="10.00">boca/io/TreeWriter.hh</text>
</a>
</g>
</g>
<!-- Node36&#45;&gt;Node39 -->
<g id="edge50" class="edge"><title>Node36&#45;&gt;Node39</title>
<path fill="none" stroke="midnightblue" d="M1079.26,-195.967C1021.96,-186.304 926.43,-169.838 844.5,-154 838.19,-152.78 831.567,-151.451 825.023,-150.108"/>
<polygon fill="midnightblue" stroke="midnightblue" points="825.366,-146.605 814.863,-148.002 823.944,-153.459 825.366,-146.605"/>
</g>
<!-- Node40 -->
<g id="node40" class="node"><title>Node40</title>
<g id="a_node40"><a xlink:href="boca_2Event_8hh.html" target="_top" xlink:title="boca/Event.hh">
<polygon fill="white" stroke="red" points="1168.5,-129 1168.5,-148 1248.5,-148 1248.5,-129 1168.5,-129"/>
<text text-anchor="middle" x="1208.5" y="-136" font-family="Helvetica,sans-Serif" font-size="10.00">boca/Event.hh</text>
</a>
</g>
</g>
<!-- Node36&#45;&gt;Node40 -->
<g id="edge55" class="edge"><title>Node36&#45;&gt;Node40</title>
<path fill="none" stroke="midnightblue" d="M1141.02,-195.734C1153.65,-185.208 1175.04,-167.379 1190.36,-154.617"/>
<polygon fill="midnightblue" stroke="midnightblue" points="1192.71,-157.218 1198.15,-148.127 1188.22,-151.84 1192.71,-157.218"/>
</g>
<!-- Node38&#45;&gt;Node32 -->
<g id="edge49" class="edge"><title>Node38&#45;&gt;Node32</title>
<path fill="none" stroke="midnightblue" d="M1627.93,-128.734C1630.6,-119.085 1634.97,-103.3 1638.4,-90.9063"/>
<polygon fill="midnightblue" stroke="midnightblue" points="1641.82,-91.6987 1641.11,-81.1273 1635.07,-89.8305 1641.82,-91.6987"/>
</g>
<!-- Node39&#45;&gt;Node25 -->
<g id="edge51" class="edge"><title>Node39&#45;&gt;Node25</title>
<path fill="none" stroke="midnightblue" d="M742.955,-128.936C698.805,-117.317 619.855,-96.5409 571.051,-83.6975"/>
<polygon fill="midnightblue" stroke="midnightblue" points="571.679,-80.2437 561.117,-81.0834 569.897,-87.0132 571.679,-80.2437"/>
</g>
<!-- Node41&#45;&gt;Node14 -->
<g id="edge59" class="edge"><title>Node41&#45;&gt;Node14</title>
<path fill="none" stroke="midnightblue" d="M871.43,-257.43C892.987,-248.449 920.237,-235.741 942.5,-221 956.08,-212.009 1036.87,-130.154 1051.5,-123 1070.53,-113.696 1189.1,-94.4128 1266.32,-82.5513"/>
<polygon fill="midnightblue" stroke="midnightblue" points="1267.1,-85.9725 1276.45,-81 1266.04,-79.053 1267.1,-85.9725"/>
</g>
<!-- Node41&#45;&gt;Node22 -->
<g id="edge58" class="edge"><title>Node41&#45;&gt;Node22</title>
<path fill="none" stroke="midnightblue" d="M843.613,-257.396C849.968,-247.562 858.487,-234.378 865.262,-223.892"/>
<polygon fill="midnightblue" stroke="midnightblue" points="868.395,-225.493 870.882,-215.195 862.515,-221.694 868.395,-225.493"/>
</g>
<!-- Node42 -->
<g id="node42" class="node"><title>Node42</title>
<g id="a_node42"><a xlink:href="MuXboostedBTagging_8hh.html" target="_top" xlink:title="boca/external/MuXboosted\lBTagging.hh">
<polygon fill="white" stroke="red" points="668,-190.5 668,-220.5 801,-220.5 801,-190.5 668,-190.5"/>
<text text-anchor="start" x="676" y="-208.5" font-family="Helvetica,sans-Serif" font-size="10.00">boca/external/MuXboosted</text>
<text text-anchor="middle" x="734.5" y="-197.5" font-family="Helvetica,sans-Serif" font-size="10.00">BTagging.hh</text>
</a>
</g>
</g>
<!-- Node41&#45;&gt;Node42 -->
<g id="edge57" class="edge"><title>Node41&#45;&gt;Node42</title>
<path fill="none" stroke="midnightblue" d="M812.801,-257.396C798.78,-248.282 780.331,-236.29 764.863,-226.236"/>
<polygon fill="midnightblue" stroke="midnightblue" points="766.448,-223.092 756.156,-220.577 762.633,-228.961 766.448,-223.092"/>
</g>
<!-- Node43 -->
<g id="node43" class="node"><title>Node43</title>
<g id="a_node43"><a xlink:href="branch_2Bottom_8hh.html" target="_top" xlink:title="standardmodel/branch\l/Bottom.hh">
<polygon fill="white" stroke="black" points="469,-190.5 469,-220.5 582,-220.5 582,-190.5 469,-190.5"/>
<text text-anchor="start" x="477" y="-208.5" font-family="Helvetica,sans-Serif" font-size="10.00">standardmodel/branch</text>
<text text-anchor="middle" x="525.5" y="-197.5" font-family="Helvetica,sans-Serif" font-size="10.00">/Bottom.hh</text>
</a>
</g>
</g>
<!-- Node41&#45;&gt;Node43 -->
<g id="edge60" class="edge"><title>Node41&#45;&gt;Node43</title>
<path fill="none" stroke="midnightblue" d="M779.257,-259.879C726.772,-248.839 647.785,-232.223 591.898,-220.467"/>
<polygon fill="midnightblue" stroke="midnightblue" points="592.599,-217.038 582.092,-218.405 591.158,-223.888 592.599,-217.038"/>
</g>
<!-- Node44 -->
<g id="node44" class="node"><title>Node44</title>
<g id="a_node44"><a xlink:href="branch_2Particle_8hh.html" target="_top" xlink:title="boca/branch/Particle.hh">
<polygon fill="white" stroke="red" points="116,-129 116,-148 235,-148 235,-129 116,-129"/>
<text text-anchor="middle" x="175.5" y="-136" font-family="Helvetica,sans-Serif" font-size="10.00">boca/branch/Particle.hh</text>
</a>
</g>
</g>
<!-- Node43&#45;&gt;Node44 -->
<g id="edge61" class="edge"><title>Node43&#45;&gt;Node44</title>
<path fill="none" stroke="midnightblue" d="M468.656,-191.818C465.562,-191.188 462.495,-190.578 459.5,-190 363.94,-171.552 339.116,-172.153 243.5,-154 237.196,-152.803 230.578,-151.478 224.049,-150.13"/>
<polygon fill="midnightblue" stroke="midnightblue" points="224.424,-146.633 213.918,-148.007 222.988,-153.484 224.424,-146.633"/>
</g>
<!-- Node45 -->
<g id="node45" class="node"><title>Node45</title>
<g id="a_node45"><a xlink:href="BottomBase_8hh.html" target="_top" xlink:title="standardmodel/branch\l/BottomBase.hh">
<polygon fill="white" stroke="red" points="253,-123.5 253,-153.5 366,-153.5 366,-123.5 253,-123.5"/>
<text text-anchor="start" x="261" y="-141.5" font-family="Helvetica,sans-Serif" font-size="10.00">standardmodel/branch</text>
<text text-anchor="middle" x="309.5" y="-130.5" font-family="Helvetica,sans-Serif" font-size="10.00">/BottomBase.hh</text>
</a>
</g>
</g>
<!-- Node43&#45;&gt;Node45 -->
<g id="edge62" class="edge"><title>Node43&#45;&gt;Node45</title>
<path fill="none" stroke="midnightblue" d="M478.897,-190.476C445.796,-180.515 401.171,-167.086 366.033,-156.512"/>
<polygon fill="midnightblue" stroke="midnightblue" points="366.976,-153.141 356.392,-153.611 364.959,-159.844 366.976,-153.141"/>
</g>
<!-- Node46&#45;&gt;Node45 -->
<g id="edge66" class="edge"><title>Node46&#45;&gt;Node45</title>
<path fill="none" stroke="midnightblue" d="M356.246,-257.411C346.905,-247.967 335.45,-234.777 328.5,-221 319.429,-203.017 314.61,-180.61 312.099,-163.844"/>
<polygon fill="midnightblue" stroke="midnightblue" points="315.544,-163.198 310.76,-153.745 308.605,-164.118 315.544,-163.198"/>
</g>
<!-- Node47 -->
<g id="node47" class="node"><title>Node47</title>
<g id="a_node47"><a xlink:href="branch_2TwoBody_8hh.html" target="_top" xlink:title="boca/branch/TwoBody.hh">
<polygon fill="white" stroke="black" points="153.5,-196 153.5,-215 281.5,-215 281.5,-196 153.5,-196"/>
<text text-anchor="middle" x="217.5" y="-203" font-family="Helvetica,sans-Serif" font-size="10.00">boca/branch/TwoBody.hh</text>
</a>
</g>
</g>
<!-- Node46&#45;&gt;Node47 -->
<g id="edge64" class="edge"><title>Node46&#45;&gt;Node47</title>
<path fill="none" stroke="midnightblue" d="M338.084,-257.396C310.944,-245.941 273.031,-229.938 247.002,-218.952"/>
<polygon fill="midnightblue" stroke="midnightblue" points="248.229,-215.671 237.655,-215.007 245.507,-222.12 248.229,-215.671"/>
</g>
<!-- Node48 -->
<g id="node48" class="node"><title>Node48</title>
<g id="a_node48"><a xlink:href="LeptonVeto_8hh.html" target="_top" xlink:title="standardmodel/branch\l/LeptonVeto.hh">
<polygon fill="white" stroke="red" points="338,-190.5 338,-220.5 451,-220.5 451,-190.5 338,-190.5"/>
<text text-anchor="start" x="346" y="-208.5" font-family="Helvetica,sans-Serif" font-size="10.00">standardmodel/branch</text>
<text text-anchor="middle" x="394.5" y="-197.5" font-family="Helvetica,sans-Serif" font-size="10.00">/LeptonVeto.hh</text>
</a>
</g>
</g>
<!-- Node46&#45;&gt;Node48 -->
<g id="edge67" class="edge"><title>Node46&#45;&gt;Node48</title>
<path fill="none" stroke="midnightblue" d="M376.491,-257.396C379.294,-249.474 382.866,-239.379 386.089,-230.271"/>
<polygon fill="midnightblue" stroke="midnightblue" points="389.483,-231.171 389.519,-220.577 382.884,-228.836 389.483,-231.171"/>
</g>
<!-- Node47&#45;&gt;Node44 -->
<g id="edge65" class="edge"><title>Node47&#45;&gt;Node44</title>
<path fill="none" stroke="midnightblue" d="M211.836,-195.734C205.412,-185.793 194.78,-169.338 186.671,-156.789"/>
<polygon fill="midnightblue" stroke="midnightblue" points="189.441,-154.627 181.075,-148.127 183.562,-158.426 189.441,-154.627"/>
</g>
<!-- Node49&#45;&gt;Node47 -->
<g id="edge69" class="edge"><title>Node49&#45;&gt;Node47</title>
<path fill="none" stroke="midnightblue" d="M524.257,-391.439C478.402,-375.25 379.346,-337.305 305.5,-288 276.925,-268.921 248.628,-240.58 232.121,-222.841"/>
<polygon fill="midnightblue" stroke="midnightblue" points="234.347,-220.089 225.015,-215.072 229.182,-224.813 234.347,-220.089"/>
</g>
<!-- Node50&#45;&gt;Node31 -->
<g id="edge71" class="edge"><title>Node50&#45;&gt;Node31</title>
<path fill="none" stroke="midnightblue" d="M1358.07,-457.182C1428.12,-448.357 1539.5,-421.578 1539.5,-340.5 1539.5,-340.5 1539.5,-340.5 1539.5,-271.5 1539.5,-259.188 1889.11,-179.658 2019.9,-150.336"/>
<polygon fill="midnightblue" stroke="midnightblue" points="2021.04,-153.667 2030.03,-148.066 2019.51,-146.836 2021.04,-153.667"/>
</g>
</g>
</svg>
