<?xml version="1.0" encoding="UTF-8" standalone="no"?>
<!DOCTYPE svg PUBLIC "-//W3C//DTD SVG 1.1//EN"
 "http://www.w3.org/Graphics/SVG/1.1/DTD/svg11.dtd">
<!-- Generated by graphviz version 2.38.0 (20140413.2041)
 -->
<!-- Title: source/branch/Info.cpp Pages: 1 -->
<svg width="1955pt" height="341pt"
 viewBox="0.00 0.00 1954.50 341.00" xmlns="http://www.w3.org/2000/svg" xmlns:xlink="http://www.w3.org/1999/xlink">
<g id="graph0" class="graph" transform="scale(1 1) rotate(0) translate(4 337)">
<title>source/branch/Info.cpp</title>
<polygon fill="white" stroke="none" points="-4,4 -4,-337 1950.5,-337 1950.5,4 -4,4"/>
<!-- Node1 -->
<g id="node1" class="node"><title>Node1</title>
<polygon fill="#bfbfbf" stroke="black" points="1229.5,-313.5 1229.5,-332.5 1345.5,-332.5 1345.5,-313.5 1229.5,-313.5"/>
<text text-anchor="middle" x="1287.5" y="-320.5" font-family="Helvetica,sans-Serif" font-size="10.00">source/branch/Info.cpp</text>
</g>
<!-- Node2 -->
<g id="node2" class="node"><title>Node2</title>
<g id="a_node2"><a xlink:href="Info_8hh.html" target="_top" xlink:title="boca/branch/Info.hh">
<polygon fill="white" stroke="black" points="1044,-252 1044,-271 1147,-271 1147,-252 1044,-252"/>
<text text-anchor="middle" x="1095.5" y="-259" font-family="Helvetica,sans-Serif" font-size="10.00">boca/branch/Info.hh</text>
</a>
</g>
</g>
<!-- Node1&#45;&gt;Node2 -->
<g id="edge1" class="edge"><title>Node1&#45;&gt;Node2</title>
<path fill="none" stroke="midnightblue" d="M1259.99,-313.475C1226.63,-303.136 1170.24,-285.661 1132.94,-274.102"/>
<polygon fill="midnightblue" stroke="midnightblue" points="1133.55,-270.626 1122.96,-271.009 1131.47,-277.312 1133.55,-270.626"/>
</g>
<!-- Node27 -->
<g id="node27" class="node"><title>Node27</title>
<g id="a_node27"><a xlink:href="FileInfo_8hh.html" target="_top" xlink:title="boca/io/FileInfo.hh">
<polygon fill="white" stroke="black" points="1239,-252 1239,-271 1336,-271 1336,-252 1239,-252"/>
<text text-anchor="middle" x="1287.5" y="-259" font-family="Helvetica,sans-Serif" font-size="10.00">boca/io/FileInfo.hh</text>
</a>
</g>
</g>
<!-- Node1&#45;&gt;Node27 -->
<g id="edge30" class="edge"><title>Node1&#45;&gt;Node27</title>
<path fill="none" stroke="midnightblue" d="M1287.5,-313.475C1287.5,-305.08 1287.5,-291.981 1287.5,-281.163"/>
<polygon fill="midnightblue" stroke="midnightblue" points="1291,-281.009 1287.5,-271.009 1284,-281.009 1291,-281.009"/>
</g>
<!-- Node34 -->
<g id="node34" class="node"><title>Node34</title>
<g id="a_node34"><a xlink:href="DEBUG__MACROS_8hh.html" target="_top" xlink:title="boca/generic/DEBUG\l_MACROS.hh">
<polygon fill="white" stroke="black" points="1469,-246.5 1469,-276.5 1580,-276.5 1580,-246.5 1469,-246.5"/>
<text text-anchor="start" x="1477" y="-264.5" font-family="Helvetica,sans-Serif" font-size="10.00">boca/generic/DEBUG</text>
<text text-anchor="middle" x="1524.5" y="-253.5" font-family="Helvetica,sans-Serif" font-size="10.00">_MACROS.hh</text>
</a>
</g>
</g>
<!-- Node1&#45;&gt;Node34 -->
<g id="edge42" class="edge"><title>Node1&#45;&gt;Node34</title>
<path fill="none" stroke="midnightblue" d="M1321.46,-313.475C1357.15,-304.513 1414.21,-290.188 1458.76,-279.003"/>
<polygon fill="midnightblue" stroke="midnightblue" points="1459.8,-282.353 1468.64,-276.523 1458.09,-275.563 1459.8,-282.353"/>
</g>
<!-- Node3 -->
<g id="node3" class="node"><title>Node3</title>
<g id="a_node3"><a xlink:href="Prefixes_8hh.html" target="_top" xlink:title="boca/units/Prefixes.hh">
<polygon fill="white" stroke="black" points="771.5,-134.5 771.5,-153.5 885.5,-153.5 885.5,-134.5 771.5,-134.5"/>
<text text-anchor="middle" x="828.5" y="-141.5" font-family="Helvetica,sans-Serif" font-size="10.00">boca/units/Prefixes.hh</text>
</a>
</g>
</g>
<!-- Node2&#45;&gt;Node3 -->
<g id="edge2" class="edge"><title>Node2&#45;&gt;Node3</title>
<path fill="none" stroke="midnightblue" d="M1075.43,-251.819C1028.74,-231.619 912.624,-181.391 857.908,-157.722"/>
<polygon fill="midnightblue" stroke="midnightblue" points="859.005,-154.382 848.437,-153.624 856.226,-160.807 859.005,-154.382"/>
</g>
<!-- Node20 -->
<g id="node20" class="node"><title>Node20</title>
<g id="a_node20"><a xlink:href="branch_2Base_8hh.html" target="_top" xlink:title="boca/branch/Base.hh">
<polygon fill="white" stroke="black" points="706,-190.5 706,-209.5 815,-209.5 815,-190.5 706,-190.5"/>
<text text-anchor="middle" x="760.5" y="-197.5" font-family="Helvetica,sans-Serif" font-size="10.00">boca/branch/Base.hh</text>
</a>
</g>
</g>
<!-- Node2&#45;&gt;Node20 -->
<g id="edge23" class="edge"><title>Node2&#45;&gt;Node20</title>
<path fill="none" stroke="midnightblue" d="M1047.5,-251.975C987.053,-241.239 883.275,-222.806 818.463,-211.295"/>
<polygon fill="midnightblue" stroke="midnightblue" points="818.866,-207.812 808.408,-209.509 817.642,-214.704 818.866,-207.812"/>
</g>
<!-- Node22 -->
<g id="node22" class="node"><title>Node22</title>
<g id="a_node22"><a xlink:href="Names_8hh.html" target="_top" xlink:title="boca/latex/Names.hh">
<polygon fill="white" stroke="black" points="1182.5,-190.5 1182.5,-209.5 1292.5,-209.5 1292.5,-190.5 1182.5,-190.5"/>
<text text-anchor="middle" x="1237.5" y="-197.5" font-family="Helvetica,sans-Serif" font-size="10.00">boca/latex/Names.hh</text>
</a>
</g>
</g>
<!-- Node2&#45;&gt;Node22 -->
<g id="edge25" class="edge"><title>Node2&#45;&gt;Node22</title>
<path fill="none" stroke="midnightblue" d="M1115.85,-251.975C1139.89,-241.901 1180.1,-225.053 1207.66,-213.502"/>
<polygon fill="midnightblue" stroke="midnightblue" points="1209.32,-216.602 1217.19,-209.509 1206.62,-210.146 1209.32,-216.602"/>
</g>
<!-- Node4 -->
<g id="node4" class="node"><title>Node4</title>
<polygon fill="white" stroke="#bfbfbf" points="737.5,-73 737.5,-92 847.5,-92 847.5,-73 737.5,-73"/>
<text text-anchor="middle" x="792.5" y="-80" font-family="Helvetica,sans-Serif" font-size="10.00">boost/units/scale.hpp</text>
</g>
<!-- Node3&#45;&gt;Node4 -->
<g id="edge3" class="edge"><title>Node3&#45;&gt;Node4</title>
<path fill="none" stroke="midnightblue" d="M823.342,-134.475C818.049,-125.727 809.665,-111.869 802.973,-100.809"/>
<polygon fill="midnightblue" stroke="midnightblue" points="805.82,-98.7531 797.648,-92.0091 799.83,-102.377 805.82,-98.7531"/>
</g>
<!-- Node5 -->
<g id="node5" class="node"><title>Node5</title>
<polygon fill="white" stroke="#bfbfbf" points="866,-67.5 866,-97.5 991,-97.5 991,-67.5 866,-67.5"/>
<text text-anchor="start" x="874" y="-85.5" font-family="Helvetica,sans-Serif" font-size="10.00">boost/units/make_scaled</text>
<text text-anchor="middle" x="928.5" y="-74.5" font-family="Helvetica,sans-Serif" font-size="10.00">_unit.hpp</text>
</g>
<!-- Node3&#45;&gt;Node5 -->
<g id="edge4" class="edge"><title>Node3&#45;&gt;Node5</title>
<path fill="none" stroke="midnightblue" d="M842.828,-134.475C856.624,-126.266 877.982,-113.558 895.921,-102.885"/>
<polygon fill="midnightblue" stroke="midnightblue" points="898.128,-105.644 904.932,-97.523 894.548,-99.6285 898.128,-105.644"/>
</g>
<!-- Node6 -->
<g id="node6" class="node"><title>Node6</title>
<polygon fill="white" stroke="#bfbfbf" points="1009,-67.5 1009,-97.5 1120,-97.5 1120,-67.5 1009,-67.5"/>
<text text-anchor="start" x="1017" y="-85.5" font-family="Helvetica,sans-Serif" font-size="10.00">boost/units/systems</text>
<text text-anchor="middle" x="1064.5" y="-74.5" font-family="Helvetica,sans-Serif" font-size="10.00">/si/dimensionless.hpp</text>
</g>
<!-- Node3&#45;&gt;Node6 -->
<g id="edge5" class="edge"><title>Node3&#45;&gt;Node6</title>
<path fill="none" stroke="midnightblue" d="M862.313,-134.475C897.861,-125.513 954.677,-111.188 999.042,-100.003"/>
<polygon fill="midnightblue" stroke="midnightblue" points="1000.04,-103.362 1008.88,-97.523 998.327,-96.5739 1000.04,-103.362"/>
</g>
<!-- Node7 -->
<g id="node7" class="node"><title>Node7</title>
<polygon fill="white" stroke="#bfbfbf" points="179.5,-73 179.5,-92 283.5,-92 283.5,-73 179.5,-73"/>
<text text-anchor="middle" x="231.5" y="-80" font-family="Helvetica,sans-Serif" font-size="10.00">boost/units/pow.hpp</text>
</g>
<!-- Node3&#45;&gt;Node7 -->
<g id="edge6" class="edge"><title>Node3&#45;&gt;Node7</title>
<path fill="none" stroke="midnightblue" d="M771.144,-135.077C767.883,-134.695 764.651,-134.332 761.5,-134 553.595,-112.075 499.052,-130.273 292.5,-98 286.218,-97.0185 279.628,-95.7302 273.197,-94.326"/>
<polygon fill="midnightblue" stroke="midnightblue" points="273.818,-90.8776 263.288,-92.0516 272.252,-97.7002 273.818,-90.8776"/>
</g>
<!-- Node8 -->
<g id="node8" class="node"><title>Node8</title>
<g id="a_node8"><a xlink:href="Si_8hh.html" target="_top" xlink:title="boca/units/Si.hh">
<polygon fill="white" stroke="black" points="632,-73 632,-92 719,-92 719,-73 632,-73"/>
<text text-anchor="middle" x="675.5" y="-80" font-family="Helvetica,sans-Serif" font-size="10.00">boca/units/Si.hh</text>
</a>
</g>
</g>
<!-- Node3&#45;&gt;Node8 -->
<g id="edge7" class="edge"><title>Node3&#45;&gt;Node8</title>
<path fill="none" stroke="midnightblue" d="M806.579,-134.475C780.448,-124.313 736.588,-107.256 706.87,-95.6996"/>
<polygon fill="midnightblue" stroke="midnightblue" points="707.969,-92.3716 697.381,-92.0091 705.432,-98.8956 707.969,-92.3716"/>
</g>
<!-- Node14 -->
<g id="node14" class="node"><title>Node14</title>
<g id="a_node14"><a xlink:href="Barn_8hh.html" target="_top" xlink:title="boca/units/Barn.hh">
<polygon fill="white" stroke="black" points="456.5,-73 456.5,-92 554.5,-92 554.5,-73 456.5,-73"/>
<text text-anchor="middle" x="505.5" y="-80" font-family="Helvetica,sans-Serif" font-size="10.00">boca/units/Barn.hh</text>
</a>
</g>
</g>
<!-- Node3&#45;&gt;Node14 -->
<g id="edge13" class="edge"><title>Node3&#45;&gt;Node14</title>
<path fill="none" stroke="midnightblue" d="M782.222,-134.475C724.058,-123.761 624.288,-105.382 561.773,-93.8661"/>
<polygon fill="midnightblue" stroke="midnightblue" points="562.161,-90.3787 551.692,-92.0091 560.893,-97.2629 562.161,-90.3787"/>
</g>
<!-- Node18 -->
<g id="node18" class="node"><title>Node18</title>
<g id="a_node18"><a xlink:href="ElectronVolt_8hh.html" target="_top" xlink:title="boca/units/ElectronVolt.hh">
<polygon fill="white" stroke="black" points="302,-73 302,-92 433,-92 433,-73 302,-73"/>
<text text-anchor="middle" x="367.5" y="-80" font-family="Helvetica,sans-Serif" font-size="10.00">boca/units/ElectronVolt.hh</text>
</a>
</g>
</g>
<!-- Node3&#45;&gt;Node18 -->
<g id="edge18" class="edge"><title>Node3&#45;&gt;Node18</title>
<path fill="none" stroke="midnightblue" d="M771.489,-135.265C768.11,-134.831 764.761,-134.406 761.5,-134 622.106,-116.649 586.46,-118.537 447.5,-98 439.17,-96.7689 430.378,-95.3242 421.791,-93.8322"/>
<polygon fill="midnightblue" stroke="midnightblue" points="422.304,-90.3685 411.846,-92.0691 421.082,-97.2611 422.304,-90.3685"/>
</g>
<!-- Node9 -->
<g id="node9" class="node"><title>Node9</title>
<polygon fill="white" stroke="#bfbfbf" points="717,-0.5 717,-30.5 828,-30.5 828,-0.5 717,-0.5"/>
<text text-anchor="start" x="725" y="-18.5" font-family="Helvetica,sans-Serif" font-size="10.00">boost/math/constants</text>
<text text-anchor="middle" x="772.5" y="-7.5" font-family="Helvetica,sans-Serif" font-size="10.00">/constants.hpp</text>
</g>
<!-- Node8&#45;&gt;Node9 -->
<g id="edge8" class="edge"><title>Node8&#45;&gt;Node9</title>
<path fill="none" stroke="midnightblue" d="M688.582,-72.7338C702.447,-63.4425 724.804,-48.4609 742.957,-36.2968"/>
<polygon fill="midnightblue" stroke="midnightblue" points="745.116,-39.0634 751.475,-30.589 741.219,-33.2482 745.116,-39.0634"/>
</g>
<!-- Node10 -->
<g id="node10" class="node"><title>Node10</title>
<polygon fill="white" stroke="#bfbfbf" points="445,-6 445,-25 566,-25 566,-6 445,-6"/>
<text text-anchor="middle" x="505.5" y="-13" font-family="Helvetica,sans-Serif" font-size="10.00">boost/units/quantity.hpp</text>
</g>
<!-- Node8&#45;&gt;Node10 -->
<g id="edge9" class="edge"><title>Node8&#45;&gt;Node10</title>
<path fill="none" stroke="midnightblue" d="M652.925,-72.8685C623.25,-61.5219 570.949,-41.5246 537.283,-28.6522"/>
<polygon fill="midnightblue" stroke="midnightblue" points="538.488,-25.3659 527.897,-25.0637 535.988,-31.9043 538.488,-25.3659"/>
</g>
<!-- Node11 -->
<g id="node11" class="node"><title>Node11</title>
<polygon fill="white" stroke="#bfbfbf" points="846,-0.5 846,-30.5 951,-30.5 951,-0.5 846,-0.5"/>
<text text-anchor="start" x="854" y="-18.5" font-family="Helvetica,sans-Serif" font-size="10.00">boost/units/systems</text>
<text text-anchor="middle" x="898.5" y="-7.5" font-family="Helvetica,sans-Serif" font-size="10.00">/si/plane_angle.hpp</text>
</g>
<!-- Node8&#45;&gt;Node11 -->
<g id="edge10" class="edge"><title>Node8&#45;&gt;Node11</title>
<path fill="none" stroke="midnightblue" d="M705.113,-72.8685C739.516,-62.8406 797.101,-46.0559 840.506,-33.4042"/>
<polygon fill="midnightblue" stroke="midnightblue" points="841.752,-36.6867 850.373,-30.5281 839.793,-29.9663 841.752,-36.6867"/>
</g>
<!-- Node12 -->
<g id="node12" class="node"><title>Node12</title>
<polygon fill="white" stroke="#bfbfbf" points="969,-0.5 969,-30.5 1074,-30.5 1074,-0.5 969,-0.5"/>
<text text-anchor="start" x="977" y="-18.5" font-family="Helvetica,sans-Serif" font-size="10.00">boost/units/systems</text>
<text text-anchor="middle" x="1021.5" y="-7.5" font-family="Helvetica,sans-Serif" font-size="10.00">/si/length.hpp</text>
</g>
<!-- Node8&#45;&gt;Node12 -->
<g id="edge11" class="edge"><title>Node8&#45;&gt;Node12</title>
<path fill="none" stroke="midnightblue" d="M704.514,-72.9299C712.264,-70.8145 720.664,-68.6769 728.5,-67 827.029,-45.9142 855.78,-50.5317 958.912,-31.0111"/>
<polygon fill="midnightblue" stroke="midnightblue" points="959.634,-34.4365 968.793,-29.1108 958.312,-27.5625 959.634,-34.4365"/>
</g>
<!-- Node13 -->
<g id="node13" class="node"><title>Node13</title>
<polygon fill="white" stroke="#bfbfbf" points="1092,-6 1092,-25 1205,-25 1205,-6 1092,-6"/>
<text text-anchor="middle" x="1148.5" y="-13" font-family="Helvetica,sans-Serif" font-size="10.00">boost/units/cmath.hpp</text>
</g>
<!-- Node8&#45;&gt;Node13 -->
<g id="edge12" class="edge"><title>Node8&#45;&gt;Node13</title>
<path fill="none" stroke="midnightblue" d="M703.355,-72.9487C711.406,-70.7314 720.247,-68.5376 728.5,-67 883.97,-38.0344 926.345,-56.0086 1082.5,-31 1089.27,-29.9156 1096.39,-28.5704 1103.35,-27.1401"/>
<polygon fill="midnightblue" stroke="midnightblue" points="1104.31,-30.513 1113.36,-25.0041 1102.85,-23.667 1104.31,-30.513"/>
</g>
<!-- Node14&#45;&gt;Node10 -->
<g id="edge16" class="edge"><title>Node14&#45;&gt;Node10</title>
<path fill="none" stroke="midnightblue" d="M505.5,-72.7338C505.5,-63.1826 505.5,-47.6183 505.5,-35.2829"/>
<polygon fill="midnightblue" stroke="midnightblue" points="509,-35.1273 505.5,-25.1273 502,-35.1273 509,-35.1273"/>
</g>
<!-- Node15 -->
<g id="node15" class="node"><title>Node15</title>
<polygon fill="white" stroke="#bfbfbf" points="123,-6 123,-25 280,-25 280,-6 123,-6"/>
<text text-anchor="middle" x="201.5" y="-13" font-family="Helvetica,sans-Serif" font-size="10.00">boost/units/base_dimension.hpp</text>
</g>
<!-- Node14&#45;&gt;Node15 -->
<g id="edge14" class="edge"><title>Node14&#45;&gt;Node15</title>
<path fill="none" stroke="midnightblue" d="M468.295,-72.969C459.514,-70.9837 450.182,-68.8967 441.5,-67 376.645,-52.8307 301.768,-37.1893 253.132,-27.1244"/>
<polygon fill="midnightblue" stroke="midnightblue" points="253.666,-23.661 243.164,-25.0639 252.249,-30.516 253.666,-23.661"/>
</g>
<!-- Node16 -->
<g id="node16" class="node"><title>Node16</title>
<polygon fill="white" stroke="#bfbfbf" points="298.5,-6 298.5,-25 426.5,-25 426.5,-6 298.5,-6"/>
<text text-anchor="middle" x="362.5" y="-13" font-family="Helvetica,sans-Serif" font-size="10.00">boost/units/base_unit.hpp</text>
</g>
<!-- Node14&#45;&gt;Node16 -->
<g id="edge15" class="edge"><title>Node14&#45;&gt;Node16</title>
<path fill="none" stroke="midnightblue" d="M486.511,-72.8685C462.045,-61.7476 419.297,-42.3167 390.943,-29.4286"/>
<polygon fill="midnightblue" stroke="midnightblue" points="392.12,-26.119 381.568,-25.1672 389.223,-32.4916 392.12,-26.119"/>
</g>
<!-- Node17 -->
<g id="node17" class="node"><title>Node17</title>
<polygon fill="white" stroke="#bfbfbf" points="584,-0.5 584,-30.5 699,-30.5 699,-0.5 584,-0.5"/>
<text text-anchor="start" x="592" y="-18.5" font-family="Helvetica,sans-Serif" font-size="10.00">boost/units/base_units</text>
<text text-anchor="middle" x="641.5" y="-7.5" font-family="Helvetica,sans-Serif" font-size="10.00">/metric/barn.hpp</text>
</g>
<!-- Node14&#45;&gt;Node17 -->
<g id="edge17" class="edge"><title>Node14&#45;&gt;Node17</title>
<path fill="none" stroke="midnightblue" d="M523.56,-72.8685C543.702,-63.2417 576.873,-47.3878 602.915,-34.9415"/>
<polygon fill="midnightblue" stroke="midnightblue" points="604.636,-37.9982 612.149,-30.5281 601.617,-31.6825 604.636,-37.9982"/>
</g>
<!-- Node18&#45;&gt;Node10 -->
<g id="edge21" class="edge"><title>Node18&#45;&gt;Node10</title>
<path fill="none" stroke="midnightblue" d="M385.825,-72.8685C409.436,-61.7476 450.689,-42.3167 478.052,-29.4286"/>
<polygon fill="midnightblue" stroke="midnightblue" points="479.544,-32.5947 487.099,-25.1672 476.561,-26.262 479.544,-32.5947"/>
</g>
<!-- Node18&#45;&gt;Node15 -->
<g id="edge19" class="edge"><title>Node18&#45;&gt;Node15</title>
<path fill="none" stroke="midnightblue" d="M345.456,-72.8685C316.603,-61.5706 265.847,-41.6961 232.959,-28.8183"/>
<polygon fill="midnightblue" stroke="midnightblue" points="233.958,-25.4508 223.37,-25.0637 231.406,-31.9689 233.958,-25.4508"/>
</g>
<!-- Node18&#45;&gt;Node16 -->
<g id="edge20" class="edge"><title>Node18&#45;&gt;Node16</title>
<path fill="none" stroke="midnightblue" d="M366.826,-72.7338C366.091,-63.1826 364.894,-47.6183 363.945,-35.2829"/>
<polygon fill="midnightblue" stroke="midnightblue" points="367.42,-34.8294 363.164,-25.1273 360.441,-35.3663 367.42,-34.8294"/>
</g>
<!-- Node19 -->
<g id="node19" class="node"><title>Node19</title>
<polygon fill="white" stroke="#bfbfbf" points="0,-0.5 0,-30.5 105,-30.5 105,-0.5 0,-0.5"/>
<text text-anchor="start" x="8" y="-18.5" font-family="Helvetica,sans-Serif" font-size="10.00">boost/units/systems</text>
<text text-anchor="middle" x="52.5" y="-7.5" font-family="Helvetica,sans-Serif" font-size="10.00">/si/energy.hpp</text>
</g>
<!-- Node18&#45;&gt;Node19 -->
<g id="edge22" class="edge"><title>Node18&#45;&gt;Node19</title>
<path fill="none" stroke="midnightblue" d="M323.572,-72.9708C265.912,-61.7424 166.78,-42.3172 115.035,-31.2776"/>
<polygon fill="midnightblue" stroke="midnightblue" points="115.558,-27.8098 105.044,-29.1207 114.08,-34.6522 115.558,-27.8098"/>
</g>
<!-- Node21 -->
<g id="node21" class="node"><title>Node21</title>
<polygon fill="white" stroke="#bfbfbf" points="694,-134.5 694,-153.5 753,-153.5 753,-134.5 694,-134.5"/>
<text text-anchor="middle" x="723.5" y="-141.5" font-family="Helvetica,sans-Serif" font-size="10.00">TObject.h</text>
</g>
<!-- Node20&#45;&gt;Node21 -->
<g id="edge24" class="edge"><title>Node20&#45;&gt;Node21</title>
<path fill="none" stroke="midnightblue" d="M754.39,-190.083C749.218,-182.534 741.654,-171.495 735.306,-162.23"/>
<polygon fill="midnightblue" stroke="midnightblue" points="738.036,-160.022 729.496,-153.751 732.261,-163.979 738.036,-160.022"/>
</g>
<!-- Node23 -->
<g id="node23" class="node"><title>Node23</title>
<g id="a_node23"><a xlink:href="String_8hh.html" target="_top" xlink:title="boca/latex/String.hh">
<polygon fill="white" stroke="black" points="1176.5,-134.5 1176.5,-153.5 1280.5,-153.5 1280.5,-134.5 1176.5,-134.5"/>
<text text-anchor="middle" x="1228.5" y="-141.5" font-family="Helvetica,sans-Serif" font-size="10.00">boca/latex/String.hh</text>
</a>
</g>
</g>
<!-- Node22&#45;&gt;Node23 -->
<g id="edge26" class="edge"><title>Node22&#45;&gt;Node23</title>
<path fill="none" stroke="midnightblue" d="M1236.01,-190.083C1234.82,-182.927 1233.11,-172.635 1231.62,-163.691"/>
<polygon fill="midnightblue" stroke="midnightblue" points="1235.05,-163.04 1229.96,-153.751 1228.15,-164.19 1235.05,-163.04"/>
</g>
<!-- Node24 -->
<g id="node24" class="node"><title>Node24</title>
<polygon fill="white" stroke="#bfbfbf" points="1253,-73 1253,-92 1294,-92 1294,-73 1253,-73"/>
<text text-anchor="middle" x="1273.5" y="-80" font-family="Helvetica,sans-Serif" font-size="10.00">string</text>
</g>
<!-- Node23&#45;&gt;Node24 -->
<g id="edge27" class="edge"><title>Node23&#45;&gt;Node24</title>
<path fill="none" stroke="midnightblue" d="M1234.95,-134.475C1241.7,-125.55 1252.47,-111.307 1260.91,-100.143"/>
<polygon fill="midnightblue" stroke="midnightblue" points="1263.82,-102.096 1267.06,-92.0091 1258.24,-97.8737 1263.82,-102.096"/>
</g>
<!-- Node25 -->
<g id="node25" class="node"><title>Node25</title>
<polygon fill="white" stroke="#bfbfbf" points="1192,-73 1192,-92 1235,-92 1235,-73 1192,-73"/>
<text text-anchor="middle" x="1213.5" y="-80" font-family="Helvetica,sans-Serif" font-size="10.00">deque</text>
</g>
<!-- Node23&#45;&gt;Node25 -->
<g id="edge28" class="edge"><title>Node23&#45;&gt;Node25</title>
<path fill="none" stroke="midnightblue" d="M1226.35,-134.475C1224.21,-125.992 1220.86,-112.704 1218.12,-101.822"/>
<polygon fill="midnightblue" stroke="midnightblue" points="1221.48,-100.85 1215.65,-92.0091 1214.7,-102.561 1221.48,-100.85"/>
</g>
<!-- Node26 -->
<g id="node26" class="node"><title>Node26</title>
<polygon fill="white" stroke="#bfbfbf" points="1312.5,-73 1312.5,-92 1356.5,-92 1356.5,-73 1312.5,-73"/>
<text text-anchor="middle" x="1334.5" y="-80" font-family="Helvetica,sans-Serif" font-size="10.00">vector</text>
</g>
<!-- Node23&#45;&gt;Node26 -->
<g id="edge29" class="edge"><title>Node23&#45;&gt;Node26</title>
<path fill="none" stroke="midnightblue" d="M1243.69,-134.475C1261.16,-124.666 1290.08,-108.435 1310.58,-96.925"/>
<polygon fill="midnightblue" stroke="midnightblue" points="1312.33,-99.956 1319.34,-92.0091 1308.91,-93.8519 1312.33,-99.956"/>
</g>
<!-- Node27&#45;&gt;Node22 -->
<g id="edge41" class="edge"><title>Node27&#45;&gt;Node22</title>
<path fill="none" stroke="midnightblue" d="M1280.34,-251.975C1272.76,-242.962 1260.63,-228.525 1251.21,-217.312"/>
<polygon fill="midnightblue" stroke="midnightblue" points="1253.76,-214.913 1244.65,-209.509 1248.4,-219.417 1253.76,-214.913"/>
</g>
<!-- Node28 -->
<g id="node28" class="node"><title>Node28</title>
<g id="a_node28"><a xlink:href="Units_8hh.html" target="_top" xlink:title="boca/units/Units.hh">
<polygon fill="white" stroke="black" points="1063,-190.5 1063,-209.5 1164,-209.5 1164,-190.5 1063,-190.5"/>
<text text-anchor="middle" x="1113.5" y="-197.5" font-family="Helvetica,sans-Serif" font-size="10.00">boca/units/Units.hh</text>
</a>
</g>
</g>
<!-- Node27&#45;&gt;Node28 -->
<g id="edge31" class="edge"><title>Node27&#45;&gt;Node28</title>
<path fill="none" stroke="midnightblue" d="M1262.57,-251.975C1232.46,-241.68 1181.67,-224.31 1147.86,-212.75"/>
<polygon fill="midnightblue" stroke="midnightblue" points="1148.98,-209.433 1138.38,-209.509 1146.71,-216.056 1148.98,-209.433"/>
</g>
<!-- Node29 -->
<g id="node29" class="node"><title>Node29</title>
<g id="a_node29"><a xlink:href="Number_8hh.html" target="_top" xlink:title="boca/math/Number.hh">
<polygon fill="white" stroke="black" points="1390,-190.5 1390,-209.5 1503,-209.5 1503,-190.5 1390,-190.5"/>
<text text-anchor="middle" x="1446.5" y="-197.5" font-family="Helvetica,sans-Serif" font-size="10.00">boca/math/Number.hh</text>
</a>
</g>
</g>
<!-- Node27&#45;&gt;Node29 -->
<g id="edge34" class="edge"><title>Node27&#45;&gt;Node29</title>
<path fill="none" stroke="midnightblue" d="M1310.28,-251.975C1337.55,-241.769 1383.41,-224.608 1414.3,-213.049"/>
<polygon fill="midnightblue" stroke="midnightblue" points="1415.62,-216.292 1423.76,-209.509 1413.17,-209.736 1415.62,-216.292"/>
</g>
<!-- Node33 -->
<g id="node33" class="node"><title>Node33</title>
<g id="a_node33"><a xlink:href="Source_8hh.html" target="_top" xlink:title="boca/io/Source.hh">
<polygon fill="white" stroke="black" points="1299,-134.5 1299,-153.5 1394,-153.5 1394,-134.5 1299,-134.5"/>
<text text-anchor="middle" x="1346.5" y="-141.5" font-family="Helvetica,sans-Serif" font-size="10.00">boca/io/Source.hh</text>
</a>
</g>
</g>
<!-- Node27&#45;&gt;Node33 -->
<g id="edge39" class="edge"><title>Node27&#45;&gt;Node33</title>
<path fill="none" stroke="midnightblue" d="M1291.93,-251.819C1301.54,-233.006 1324.46,-188.148 1337.33,-162.955"/>
<polygon fill="midnightblue" stroke="midnightblue" points="1340.58,-164.28 1342.01,-153.782 1334.35,-161.095 1340.58,-164.28"/>
</g>
<!-- Node28&#45;&gt;Node3 -->
<g id="edge33" class="edge"><title>Node28&#45;&gt;Node3</title>
<path fill="none" stroke="midnightblue" d="M1068.34,-190.444C1018.21,-180.944 937.28,-165.611 883.494,-155.42"/>
<polygon fill="midnightblue" stroke="midnightblue" points="883.925,-151.939 873.448,-153.516 882.621,-158.817 883.925,-151.939"/>
</g>
<!-- Node28&#45;&gt;Node13 -->
<g id="edge32" class="edge"><title>Node28&#45;&gt;Node13</title>
<path fill="none" stroke="midnightblue" d="M1115.19,-190.198C1120.58,-162.073 1137.48,-73.9576 1144.92,-35.1575"/>
<polygon fill="midnightblue" stroke="midnightblue" points="1148.38,-35.6943 1146.83,-25.214 1141.51,-34.3758 1148.38,-35.6943"/>
</g>
<!-- Node30 -->
<g id="node30" class="node"><title>Node30</title>
<g id="a_node30"><a xlink:href="Math_8hh.html" target="_top" xlink:title="boca/math/Math.hh">
<polygon fill="white" stroke="black" points="1412,-134.5 1412,-153.5 1513,-153.5 1513,-134.5 1412,-134.5"/>
<text text-anchor="middle" x="1462.5" y="-141.5" font-family="Helvetica,sans-Serif" font-size="10.00">boca/math/Math.hh</text>
</a>
</g>
</g>
<!-- Node29&#45;&gt;Node30 -->
<g id="edge35" class="edge"><title>Node29&#45;&gt;Node30</title>
<path fill="none" stroke="midnightblue" d="M1449.14,-190.083C1451.29,-182.849 1454.38,-172.409 1457.05,-163.397"/>
<polygon fill="midnightblue" stroke="midnightblue" points="1460.42,-164.333 1459.91,-153.751 1453.71,-162.345 1460.42,-164.333"/>
</g>
<!-- Node30&#45;&gt;Node26 -->
<g id="edge36" class="edge"><title>Node30&#45;&gt;Node26</title>
<path fill="none" stroke="midnightblue" d="M1443.9,-134.391C1424.36,-125.346 1392.76,-110.699 1365.5,-98 1364.35,-97.4637 1363.17,-96.9159 1361.99,-96.3622"/>
<polygon fill="midnightblue" stroke="midnightblue" points="1363.4,-93.1577 1352.85,-92.0969 1360.43,-99.5 1363.4,-93.1577"/>
</g>
<!-- Node31 -->
<g id="node31" class="node"><title>Node31</title>
<polygon fill="white" stroke="#bfbfbf" points="1374.5,-67.5 1374.5,-97.5 1484.5,-97.5 1484.5,-67.5 1374.5,-67.5"/>
<text text-anchor="start" x="1382.5" y="-85.5" font-family="Helvetica,sans-Serif" font-size="10.00">boost/range/algorithm</text>
<text text-anchor="middle" x="1429.5" y="-74.5" font-family="Helvetica,sans-Serif" font-size="10.00">/lower_bound.hpp</text>
</g>
<!-- Node30&#45;&gt;Node31 -->
<g id="edge37" class="edge"><title>Node30&#45;&gt;Node31</title>
<path fill="none" stroke="midnightblue" d="M1457.77,-134.475C1453.72,-127.17 1447.69,-116.302 1442.24,-106.475"/>
<polygon fill="midnightblue" stroke="midnightblue" points="1445.19,-104.57 1437.28,-97.523 1439.07,-107.966 1445.19,-104.57"/>
</g>
<!-- Node32 -->
<g id="node32" class="node"><title>Node32</title>
<polygon fill="white" stroke="#bfbfbf" points="1502.5,-67.5 1502.5,-97.5 1612.5,-97.5 1612.5,-67.5 1502.5,-67.5"/>
<text text-anchor="start" x="1510.5" y="-85.5" font-family="Helvetica,sans-Serif" font-size="10.00">boost/range/algorithm</text>
<text text-anchor="middle" x="1557.5" y="-74.5" font-family="Helvetica,sans-Serif" font-size="10.00">/upper_bound.hpp</text>
</g>
<!-- Node30&#45;&gt;Node32 -->
<g id="edge38" class="edge"><title>Node30&#45;&gt;Node32</title>
<path fill="none" stroke="midnightblue" d="M1476.11,-134.475C1489.22,-126.266 1509.51,-113.558 1526.55,-102.885"/>
<polygon fill="midnightblue" stroke="midnightblue" points="1528.49,-105.797 1535.11,-97.523 1524.78,-99.8648 1528.49,-105.797"/>
</g>
<!-- Node33&#45;&gt;Node24 -->
<g id="edge40" class="edge"><title>Node33&#45;&gt;Node24</title>
<path fill="none" stroke="midnightblue" d="M1336.04,-134.475C1324.55,-125.108 1305.87,-109.884 1291.91,-98.5081"/>
<polygon fill="midnightblue" stroke="midnightblue" points="1293.9,-95.614 1283.94,-92.0091 1289.48,-101.04 1293.9,-95.614"/>
</g>
<!-- Node35 -->
<g id="node35" class="node"><title>Node35</title>
<g id="a_node35"><a xlink:href="Debug_8hh.html" target="_top" xlink:title="boca/generic/Debug.hh">
<polygon fill="white" stroke="black" points="1597,-134.5 1597,-153.5 1714,-153.5 1714,-134.5 1597,-134.5"/>
<text text-anchor="middle" x="1655.5" y="-141.5" font-family="Helvetica,sans-Serif" font-size="10.00">boca/generic/Debug.hh</text>
</a>
</g>
</g>
<!-- Node34&#45;&gt;Node35 -->
<g id="edge43" class="edge"><title>Node34&#45;&gt;Node35</title>
<path fill="none" stroke="midnightblue" d="M1540.56,-246.337C1565.24,-224.581 1612.3,-183.093 1637.88,-160.537"/>
<polygon fill="midnightblue" stroke="midnightblue" points="1640.48,-162.908 1645.67,-153.669 1635.85,-157.658 1640.48,-162.908"/>
</g>
<!-- Node35&#45;&gt;Node24 -->
<g id="edge44" class="edge"><title>Node35&#45;&gt;Node24</title>
<path fill="none" stroke="midnightblue" d="M1596.68,-137.796C1511.2,-129.84 1357.02,-113.895 1303.5,-98 1301.63,-97.4442 1299.73,-96.7829 1297.84,-96.0536"/>
<polygon fill="midnightblue" stroke="midnightblue" points="1299.25,-92.8495 1288.69,-92.014 1296.42,-99.2536 1299.25,-92.8495"/>
</g>
<!-- Node35&#45;&gt;Node26 -->
<g id="edge45" class="edge"><title>Node35&#45;&gt;Node26</title>
<path fill="none" stroke="midnightblue" d="M1596.92,-138.81C1537.56,-133.433 1443.6,-121.795 1365.5,-98 1363.62,-97.4286 1361.72,-96.7635 1359.82,-96.0385"/>
<polygon fill="midnightblue" stroke="midnightblue" points="1361.14,-92.796 1350.57,-92.0691 1358.38,-99.2288 1361.14,-92.796"/>
</g>
<!-- Node36 -->
<g id="node36" class="node"><title>Node36</title>
<polygon fill="white" stroke="#bfbfbf" points="1894.5,-73 1894.5,-92 1946.5,-92 1946.5,-73 1894.5,-73"/>
<text text-anchor="middle" x="1920.5" y="-80" font-family="Helvetica,sans-Serif" font-size="10.00">sstream</text>
</g>
<!-- Node35&#45;&gt;Node36 -->
<g id="edge46" class="edge"><title>Node35&#45;&gt;Node36</title>
<path fill="none" stroke="midnightblue" d="M1714.42,-134.793C1761.36,-127.464 1828.43,-115.215 1885.5,-98 1887.78,-97.3108 1890.12,-96.5257 1892.46,-95.6858"/>
<polygon fill="midnightblue" stroke="midnightblue" points="1893.81,-98.916 1901.86,-92.0291 1891.27,-92.3921 1893.81,-98.916"/>
</g>
<!-- Node37 -->
<g id="node37" class="node"><title>Node37</title>
<polygon fill="white" stroke="#bfbfbf" points="1630.5,-73 1630.5,-92 1680.5,-92 1680.5,-73 1630.5,-73"/>
<text text-anchor="middle" x="1655.5" y="-80" font-family="Helvetica,sans-Serif" font-size="10.00">iomanip</text>
</g>
<!-- Node35&#45;&gt;Node37 -->
<g id="edge47" class="edge"><title>Node35&#45;&gt;Node37</title>
<path fill="none" stroke="midnightblue" d="M1655.5,-134.475C1655.5,-126.08 1655.5,-112.981 1655.5,-102.163"/>
<polygon fill="midnightblue" stroke="midnightblue" points="1659,-102.009 1655.5,-92.0091 1652,-102.009 1659,-102.009"/>
</g>
<!-- Node38 -->
<g id="node38" class="node"><title>Node38</title>
<polygon fill="white" stroke="#bfbfbf" points="1698.5,-73 1698.5,-92 1752.5,-92 1752.5,-73 1698.5,-73"/>
<text text-anchor="middle" x="1725.5" y="-80" font-family="Helvetica,sans-Serif" font-size="10.00">iostream</text>
</g>
<!-- Node35&#45;&gt;Node38 -->
<g id="edge48" class="edge"><title>Node35&#45;&gt;Node38</title>
<path fill="none" stroke="midnightblue" d="M1665.53,-134.475C1676.55,-125.108 1694.46,-109.884 1707.84,-98.5081"/>
<polygon fill="midnightblue" stroke="midnightblue" points="1710.14,-101.152 1715.49,-92.0091 1705.6,-95.8188 1710.14,-101.152"/>
</g>
<!-- Node39 -->
<g id="node39" class="node"><title>Node39</title>
<polygon fill="white" stroke="#bfbfbf" points="1771,-67.5 1771,-97.5 1876,-97.5 1876,-67.5 1771,-67.5"/>
<text text-anchor="start" x="1779" y="-85.5" font-family="Helvetica,sans-Serif" font-size="10.00">boost/units/systems</text>
<text text-anchor="middle" x="1823.5" y="-74.5" font-family="Helvetica,sans-Serif" font-size="10.00">/si/io.hpp</text>
</g>
<!-- Node35&#45;&gt;Node39 -->
<g id="edge49" class="edge"><title>Node35&#45;&gt;Node39</title>
<path fill="none" stroke="midnightblue" d="M1679.57,-134.475C1704.13,-125.776 1742.95,-112.026 1774.09,-100.998"/>
<polygon fill="midnightblue" stroke="midnightblue" points="1775.65,-104.161 1783.91,-97.523 1773.31,-97.5623 1775.65,-104.161"/>
</g>
</g>
</svg>
