<?xml version="1.0" encoding="UTF-8" standalone="no"?>
<!DOCTYPE svg PUBLIC "-//W3C//DTD SVG 1.1//EN"
 "http://www.w3.org/Graphics/SVG/1.1/DTD/svg11.dtd">
<!-- Generated by graphviz version 2.38.0 (20140413.2041)
 -->
<!-- Title: Graphical Class Hierarchy Pages: 1 -->
<svg width="310pt" height="66pt"
 viewBox="0.00 0.00 310.00 66.00" xmlns="http://www.w3.org/2000/svg" xmlns:xlink="http://www.w3.org/1999/xlink">
<g id="graph0" class="graph" transform="scale(1 1) rotate(0) translate(4 62)">
<title>Graphical Class Hierarchy</title>
<polygon fill="white" stroke="none" points="-4,4 -4,-62 306,-62 306,4 -4,4"/>
<!-- Node1 -->
<g id="node1" class="node"><title>Node1</title>
<polygon fill="white" stroke="#bfbfbf" points="0,-19.5 0,-38.5 63,-38.5 63,-19.5 0,-19.5"/>
<text text-anchor="middle" x="31.5" y="-26.5" font-family="Helvetica,sans-Serif" font-size="10.00">PseudoJet</text>
</g>
<!-- Node2 -->
<g id="node2" class="node"><title>Node2</title>
<g id="a_node2"><a xlink:href="d5/d82/classboca_1_1PseudoJet.html" target="_top" xlink:title="boca::PseudoJet">
<polygon fill="white" stroke="black" points="99,-19.5 99,-38.5 189,-38.5 189,-19.5 99,-19.5"/>
<text text-anchor="middle" x="144" y="-26.5" font-family="Helvetica,sans-Serif" font-size="10.00">boca::PseudoJet</text>
</a>
</g>
</g>
<!-- Node1&#45;&gt;Node2 -->
<g id="edge1" class="edge"><title>Node1&#45;&gt;Node2</title>
<path fill="none" stroke="midnightblue" d="M73.4295,-29C81.6834,-29 90.3953,-29 98.7567,-29"/>
<polygon fill="midnightblue" stroke="midnightblue" points="73.2804,-25.5001 63.2804,-29 73.2804,-32.5001 73.2804,-25.5001"/>
</g>
<!-- Node3 -->
<g id="node3" class="node"><title>Node3</title>
<g id="a_node3"><a xlink:href="d6/d09/classboca_1_1Jet.html" target="_top" xlink:title="boca::Jet">
<polygon fill="white" stroke="black" points="235,-38.5 235,-57.5 292,-57.5 292,-38.5 235,-38.5"/>
<text text-anchor="middle" x="263.5" y="-45.5" font-family="Helvetica,sans-Serif" font-size="10.00">boca::Jet</text>
</a>
</g>
</g>
<!-- Node2&#45;&gt;Node3 -->
<g id="edge2" class="edge"><title>Node2&#45;&gt;Node3</title>
<path fill="none" stroke="midnightblue" d="M198.96,-37.7254C211.402,-39.7373 224.132,-41.7957 234.898,-43.5367"/>
<polygon fill="midnightblue" stroke="midnightblue" points="199.517,-34.2702 189.087,-36.129 198.4,-41.1804 199.517,-34.2702"/>
</g>
<!-- Node4 -->
<g id="node4" class="node"><title>Node4</title>
<g id="a_node4"><a xlink:href="db/dc7/classboca_1_1Particle.html" target="_top" xlink:title="boca::Particle">
<polygon fill="white" stroke="black" points="225,-0.5 225,-19.5 302,-19.5 302,-0.5 225,-0.5"/>
<text text-anchor="middle" x="263.5" y="-7.5" font-family="Helvetica,sans-Serif" font-size="10.00">boca::Particle</text>
</a>
</g>
</g>
<!-- Node2&#45;&gt;Node4 -->
<g id="edge3" class="edge"><title>Node2&#45;&gt;Node4</title>
<path fill="none" stroke="midnightblue" d="M199.129,-20.2472C207.775,-18.8492 216.554,-17.4295 224.713,-16.1102"/>
<polygon fill="midnightblue" stroke="midnightblue" points="198.4,-16.8196 189.087,-21.871 199.517,-23.7298 198.4,-16.8196"/>
</g>
</g>
</svg>
