<?xml version="1.0" encoding="UTF-8" standalone="no"?>
<!DOCTYPE svg PUBLIC "-//W3C//DTD SVG 1.1//EN"
 "http://www.w3.org/Graphics/SVG/1.1/DTD/svg11.dtd">
<!-- Generated by graphviz version 2.38.0 (20140413.2041)
 -->
<!-- Title: Graphical Class Hierarchy Pages: 1 -->
<svg width="229pt" height="246pt"
 viewBox="0.00 0.00 229.00 245.50" xmlns="http://www.w3.org/2000/svg" xmlns:xlink="http://www.w3.org/1999/xlink">
<g id="graph0" class="graph" transform="scale(1 1) rotate(0) translate(4 241.5)">
<title>Graphical Class Hierarchy</title>
<polygon fill="white" stroke="none" points="-4,4 -4,-241.5 225,-241.5 225,4 -4,4"/>
<!-- Node1 -->
<g id="node1" class="node"><title>Node1</title>
<polygon fill="white" stroke="#bfbfbf" points="0,-114.5 0,-133.5 57,-133.5 57,-114.5 0,-114.5"/>
<text text-anchor="middle" x="28.5" y="-121.5" font-family="Helvetica,sans-Serif" font-size="10.00">true_type</text>
</g>
<!-- Node2 -->
<g id="node2" class="node"><title>Node2</title>
<g id="a_node2"><a xlink:href="structboca_1_1IsMatrix2_3_01Matrix2_3_01Value_01_4_01_4.html" target="_top" xlink:title="boca::IsMatrix2\&lt; Matrix2\l\&lt; Value \&gt; \&gt;">
<polygon fill="white" stroke="black" points="94.5,-207 94.5,-237 219.5,-237 219.5,-207 94.5,-207"/>
<text text-anchor="start" x="102.5" y="-225" font-family="Helvetica,sans-Serif" font-size="10.00">boca::IsMatrix2&lt; Matrix2</text>
<text text-anchor="middle" x="157" y="-214" font-family="Helvetica,sans-Serif" font-size="10.00">&lt; Value &gt; &gt;</text>
</a>
</g>
</g>
<!-- Node1&#45;&gt;Node2 -->
<g id="edge1" class="edge"><title>Node1&#45;&gt;Node2</title>
<path fill="none" stroke="midnightblue" d="M41.2224,-142.264C52.6668,-158.814 71.4677,-182.861 93,-198 97.7873,-201.366 103.108,-204.333 108.571,-206.927"/>
<polygon fill="midnightblue" stroke="midnightblue" points="43.8372,-139.878 35.3692,-133.511 38.0181,-143.769 43.8372,-139.878"/>
</g>
<!-- Node3 -->
<g id="node3" class="node"><title>Node3</title>
<g id="a_node3"><a xlink:href="structboca_1_1IsMatrix3_3_01Matrix3_3_01Value_01_4_01_4.html" target="_top" xlink:title="boca::IsMatrix3\&lt; Matrix3\l\&lt; Value \&gt; \&gt;">
<polygon fill="white" stroke="black" points="94.5,-158 94.5,-188 219.5,-188 219.5,-158 94.5,-158"/>
<text text-anchor="start" x="102.5" y="-176" font-family="Helvetica,sans-Serif" font-size="10.00">boca::IsMatrix3&lt; Matrix3</text>
<text text-anchor="middle" x="157" y="-165" font-family="Helvetica,sans-Serif" font-size="10.00">&lt; Value &gt; &gt;</text>
</a>
</g>
</g>
<!-- Node1&#45;&gt;Node3 -->
<g id="edge2" class="edge"><title>Node1&#45;&gt;Node3</title>
<path fill="none" stroke="midnightblue" d="M62.9227,-137.239C72.6161,-141.057 83.2223,-145.213 93,-149 100.531,-151.917 108.579,-155.005 116.318,-157.96"/>
<polygon fill="midnightblue" stroke="midnightblue" points="64.1848,-133.974 53.598,-133.56 61.6158,-140.486 64.1848,-133.974"/>
</g>
<!-- Node4 -->
<g id="node4" class="node"><title>Node4</title>
<g id="a_node4"><a xlink:href="structboca_1_1IsVector2_3_01Vector2_3_01Value___01_4_01_4.html" target="_top" xlink:title="boca::IsVector2\&lt; Vector2\l\&lt; Value_ \&gt; \&gt;">
<polygon fill="white" stroke="black" points="93,-109 93,-139 221,-139 221,-109 93,-109"/>
<text text-anchor="start" x="101" y="-127" font-family="Helvetica,sans-Serif" font-size="10.00">boca::IsVector2&lt; Vector2</text>
<text text-anchor="middle" x="157" y="-116" font-family="Helvetica,sans-Serif" font-size="10.00">&lt; Value_ &gt; &gt;</text>
</a>
</g>
</g>
<!-- Node1&#45;&gt;Node4 -->
<g id="edge3" class="edge"><title>Node1&#45;&gt;Node4</title>
<path fill="none" stroke="midnightblue" d="M67.3873,-124C75.4187,-124 84.104,-124 92.7884,-124"/>
<polygon fill="midnightblue" stroke="midnightblue" points="67.261,-120.5 57.261,-124 67.2609,-127.5 67.261,-120.5"/>
</g>
<!-- Node5 -->
<g id="node5" class="node"><title>Node5</title>
<g id="a_node5"><a xlink:href="structboca_1_1IsVector3_3_01Vector3_3_01Value___01_4_01_4.html" target="_top" xlink:title="boca::IsVector3\&lt; Vector3\l\&lt; Value_ \&gt; \&gt;">
<polygon fill="white" stroke="black" points="93,-60 93,-90 221,-90 221,-60 93,-60"/>
<text text-anchor="start" x="101" y="-78" font-family="Helvetica,sans-Serif" font-size="10.00">boca::IsVector3&lt; Vector3</text>
<text text-anchor="middle" x="157" y="-67" font-family="Helvetica,sans-Serif" font-size="10.00">&lt; Value_ &gt; &gt;</text>
</a>
</g>
</g>
<!-- Node1&#45;&gt;Node5 -->
<g id="edge4" class="edge"><title>Node1&#45;&gt;Node5</title>
<path fill="none" stroke="midnightblue" d="M63.9174,-110.668C80.3075,-104.32 99.9838,-96.698 116.933,-90.1328"/>
<polygon fill="midnightblue" stroke="midnightblue" points="62.2514,-107.56 54.1908,-114.436 64.7799,-114.088 62.2514,-107.56"/>
</g>
<!-- Node6 -->
<g id="node6" class="node"><title>Node6</title>
<g id="a_node6"><a xlink:href="structboca_1_1units_1_1IsQuantity_3_01boost_1_1units_1_1quantity_3_01T_01_4_01_4.html" target="_top" xlink:title="boca::units::IsQuantity\l\&lt; boost::units::quantity\l\&lt; T \&gt; \&gt;">
<polygon fill="white" stroke="black" points="98.5,-0.5 98.5,-41.5 215.5,-41.5 215.5,-0.5 98.5,-0.5"/>
<text text-anchor="start" x="106.5" y="-29.5" font-family="Helvetica,sans-Serif" font-size="10.00">boca::units::IsQuantity</text>
<text text-anchor="start" x="106.5" y="-18.5" font-family="Helvetica,sans-Serif" font-size="10.00">&lt; boost::units::quantity</text>
<text text-anchor="middle" x="157" y="-7.5" font-family="Helvetica,sans-Serif" font-size="10.00">&lt; T &gt; &gt;</text>
</a>
</g>
</g>
<!-- Node1&#45;&gt;Node6 -->
<g id="edge5" class="edge"><title>Node1&#45;&gt;Node6</title>
<path fill="none" stroke="midnightblue" d="M41.9417,-105.862C53.652,-89.8299 72.4264,-66.6288 93,-51 97.4374,-47.6291 102.314,-44.501 107.329,-41.6373"/>
<polygon fill="midnightblue" stroke="midnightblue" points="38.8416,-104.182 35.903,-114.362 44.5481,-108.237 38.8416,-104.182"/>
</g>
</g>
</svg>
