<?xml version="1.0" encoding="UTF-8" standalone="no"?>
<!DOCTYPE svg PUBLIC "-//W3C//DTD SVG 1.1//EN"
 "http://www.w3.org/Graphics/SVG/1.1/DTD/svg11.dtd">
<!-- Generated by graphviz version 2.38.0 (20140413.2041)
 -->
<!-- Title: boca/generic/Iterator.hh Pages: 1 -->
<svg width="3539pt" height="352pt"
 viewBox="0.00 0.00 3538.50 352.00" xmlns="http://www.w3.org/2000/svg" xmlns:xlink="http://www.w3.org/1999/xlink">
<g id="graph0" class="graph" transform="scale(1 1) rotate(0) translate(4 348)">
<title>boca/generic/Iterator.hh</title>
<polygon fill="white" stroke="none" points="-4,4 -4,-348 3534.5,-348 3534.5,4 -4,4"/>
<!-- Node1 -->
<g id="node1" class="node"><title>Node1</title>
<polygon fill="#bfbfbf" stroke="black" points="1744,-324.5 1744,-343.5 1863,-343.5 1863,-324.5 1744,-324.5"/>
<text text-anchor="middle" x="1803.5" y="-331.5" font-family="Helvetica,sans-Serif" font-size="10.00">boca/generic/Iterator.hh</text>
</g>
<!-- Node2 -->
<g id="node2" class="node"><title>Node2</title>
<g id="a_node2"><a xlink:href="Vector2_8hh.html" target="_top" xlink:title="boca/math/Vector2.hh">
<polygon fill="white" stroke="black" points="1747,-268.5 1747,-287.5 1860,-287.5 1860,-268.5 1747,-268.5"/>
<text text-anchor="middle" x="1803.5" y="-275.5" font-family="Helvetica,sans-Serif" font-size="10.00">boca/math/Vector2.hh</text>
</a>
</g>
</g>
<!-- Node1&#45;&gt;Node2 -->
<g id="edge1" class="edge"><title>Node1&#45;&gt;Node2</title>
<path fill="none" stroke="midnightblue" d="M1803.5,-313.805C1803.5,-304.91 1803.5,-294.78 1803.5,-287.751"/>
<polygon fill="midnightblue" stroke="midnightblue" points="1800,-314.083 1803.5,-324.083 1807,-314.083 1800,-314.083"/>
</g>
<!-- Node3 -->
<g id="node3" class="node"><title>Node3</title>
<g id="a_node3"><a xlink:href="Vector3_8hh.html" target="_top" xlink:title="boca/math/Vector3.hh">
<polygon fill="white" stroke="black" points="1099,-212.5 1099,-231.5 1212,-231.5 1212,-212.5 1099,-212.5"/>
<text text-anchor="middle" x="1155.5" y="-219.5" font-family="Helvetica,sans-Serif" font-size="10.00">boca/math/Vector3.hh</text>
</a>
</g>
</g>
<!-- Node2&#45;&gt;Node3 -->
<g id="edge2" class="edge"><title>Node2&#45;&gt;Node3</title>
<path fill="none" stroke="midnightblue" d="M1736.8,-271.441C1608.97,-260.789 1331.63,-237.677 1212.14,-227.72"/>
<polygon fill="midnightblue" stroke="midnightblue" points="1736.59,-274.936 1746.85,-272.279 1737.17,-267.96 1736.59,-274.936"/>
</g>
<!-- Node28 -->
<g id="node28" class="node"><title>Node28</title>
<g id="a_node28"><a xlink:href="Line2_8hh.html" target="_top" xlink:title="boca/math/Line2.hh">
<polygon fill="white" stroke="black" points="1883.5,-212.5 1883.5,-231.5 1985.5,-231.5 1985.5,-212.5 1883.5,-212.5"/>
<text text-anchor="middle" x="1934.5" y="-219.5" font-family="Helvetica,sans-Serif" font-size="10.00">boca/math/Line2.hh</text>
</a>
</g>
</g>
<!-- Node2&#45;&gt;Node28 -->
<g id="edge30" class="edge"><title>Node2&#45;&gt;Node28</title>
<path fill="none" stroke="midnightblue" d="M1833.82,-264.503C1858.38,-254.38 1892.32,-240.388 1913.84,-231.516"/>
<polygon fill="midnightblue" stroke="midnightblue" points="1832.17,-261.397 1824.26,-268.444 1834.84,-267.868 1832.17,-261.397"/>
</g>
<!-- Node37 -->
<g id="node37" class="node"><title>Node37</title>
<g id="a_node37"><a xlink:href="GradedVector2_8hh.html" target="_top" xlink:title="boca/math/GradedVector2.hh">
<polygon fill="white" stroke="black" points="706.5,-212.5 706.5,-231.5 850.5,-231.5 850.5,-212.5 706.5,-212.5"/>
<text text-anchor="middle" x="778.5" y="-219.5" font-family="Helvetica,sans-Serif" font-size="10.00">boca/math/GradedVector2.hh</text>
</a>
</g>
</g>
<!-- Node2&#45;&gt;Node37 -->
<g id="edge39" class="edge"><title>Node2&#45;&gt;Node37</title>
<path fill="none" stroke="midnightblue" d="M1736.87,-273.49C1553.16,-263.811 1040.46,-236.801 850.504,-226.793"/>
<polygon fill="midnightblue" stroke="midnightblue" points="1736.76,-276.989 1746.93,-274.02 1737.13,-269.998 1736.76,-276.989"/>
</g>
<!-- Node41 -->
<g id="node41" class="node"><title>Node41</title>
<g id="a_node41"><a xlink:href="Rectangle_8hh.html" target="_top" xlink:title="boca/math/Rectangle.hh">
<polygon fill="white" stroke="black" points="1742,-212.5 1742,-231.5 1865,-231.5 1865,-212.5 1742,-212.5"/>
<text text-anchor="middle" x="1803.5" y="-219.5" font-family="Helvetica,sans-Serif" font-size="10.00">boca/math/Rectangle.hh</text>
</a>
</g>
</g>
<!-- Node2&#45;&gt;Node41 -->
<g id="edge45" class="edge"><title>Node2&#45;&gt;Node41</title>
<path fill="none" stroke="midnightblue" d="M1803.5,-257.805C1803.5,-248.91 1803.5,-238.78 1803.5,-231.751"/>
<polygon fill="midnightblue" stroke="midnightblue" points="1800,-258.083 1803.5,-268.083 1807,-258.083 1800,-258.083"/>
</g>
<!-- Node50 -->
<g id="node50" class="node"><title>Node50</title>
<g id="a_node50"><a xlink:href="Vector2_8cpp.html" target="_top" xlink:title="source/math/Vector2.cpp">
<polygon fill="white" stroke="black" points="2003.5,-212.5 2003.5,-231.5 2129.5,-231.5 2129.5,-212.5 2003.5,-212.5"/>
<text text-anchor="middle" x="2066.5" y="-219.5" font-family="Helvetica,sans-Serif" font-size="10.00">source/math/Vector2.cpp</text>
</a>
</g>
</g>
<!-- Node2&#45;&gt;Node50 -->
<g id="edge63" class="edge"><title>Node2&#45;&gt;Node50</title>
<path fill="none" stroke="midnightblue" d="M1855.08,-266.41C1904.78,-256.204 1979.03,-240.96 2025.02,-231.516"/>
<polygon fill="midnightblue" stroke="midnightblue" points="1854.26,-263.004 1845.17,-268.444 1855.67,-269.861 1854.26,-263.004"/>
</g>
<!-- Node4 -->
<g id="node4" class="node"><title>Node4</title>
<g id="a_node4"><a xlink:href="Plotting_8hh.html" target="_top" xlink:title="boca/plotting/Plotting.hh">
<polygon fill="white" stroke="black" points="622.5,-156.5 622.5,-175.5 744.5,-175.5 744.5,-156.5 622.5,-156.5"/>
<text text-anchor="middle" x="683.5" y="-163.5" font-family="Helvetica,sans-Serif" font-size="10.00">boca/plotting/Plotting.hh</text>
</a>
</g>
</g>
<!-- Node3&#45;&gt;Node4 -->
<g id="edge3" class="edge"><title>Node3&#45;&gt;Node4</title>
<path fill="none" stroke="midnightblue" d="M1088.48,-213.837C1008.65,-205.227 871.277,-190.162 753.5,-176 750.58,-175.649 747.593,-175.285 744.576,-174.913"/>
<polygon fill="midnightblue" stroke="midnightblue" points="1088.56,-217.366 1098.88,-214.958 1089.31,-210.407 1088.56,-217.366"/>
</g>
<!-- Node12 -->
<g id="node12" class="node"><title>Node12</title>
<g id="a_node12"><a xlink:href="LorentzVectorBase_8hh.html" target="_top" xlink:title="boca/math/LorentzVectorBase.hh">
<polygon fill="white" stroke="black" points="924.5,-156.5 924.5,-175.5 1086.5,-175.5 1086.5,-156.5 924.5,-156.5"/>
<text text-anchor="middle" x="1005.5" y="-163.5" font-family="Helvetica,sans-Serif" font-size="10.00">boca/math/LorentzVectorBase.hh</text>
</a>
</g>
</g>
<!-- Node3&#45;&gt;Node12 -->
<g id="edge11" class="edge"><title>Node3&#45;&gt;Node12</title>
<path fill="none" stroke="midnightblue" d="M1122.28,-209.039C1094.05,-198.879 1054.24,-184.546 1029.16,-175.516"/>
<polygon fill="midnightblue" stroke="midnightblue" points="1121.14,-212.349 1131.73,-212.444 1123.51,-205.763 1121.14,-212.349"/>
</g>
<!-- Node17 -->
<g id="node17" class="node"><title>Node17</title>
<g id="a_node17"><a xlink:href="GradedVector3_8hh.html" target="_top" xlink:title="boca/math/GradedVector3.hh">
<polygon fill="white" stroke="black" points="762.5,-156.5 762.5,-175.5 906.5,-175.5 906.5,-156.5 762.5,-156.5"/>
<text text-anchor="middle" x="834.5" y="-163.5" font-family="Helvetica,sans-Serif" font-size="10.00">boca/math/GradedVector3.hh</text>
</a>
</g>
</g>
<!-- Node3&#45;&gt;Node17 -->
<g id="edge16" class="edge"><title>Node3&#45;&gt;Node17</title>
<path fill="none" stroke="midnightblue" d="M1094.44,-210.727C1033.78,-200.523 941.847,-185.058 885.125,-175.516"/>
<polygon fill="midnightblue" stroke="midnightblue" points="1094.19,-214.236 1104.64,-212.444 1095.36,-207.333 1094.19,-214.236"/>
</g>
<!-- Node19 -->
<g id="node19" class="node"><title>Node19</title>
<g id="a_node19"><a xlink:href="Line3_8hh.html" target="_top" xlink:title="boca/math/Line3.hh">
<polygon fill="white" stroke="black" points="1104.5,-156.5 1104.5,-175.5 1206.5,-175.5 1206.5,-156.5 1104.5,-156.5"/>
<text text-anchor="middle" x="1155.5" y="-163.5" font-family="Helvetica,sans-Serif" font-size="10.00">boca/math/Line3.hh</text>
</a>
</g>
</g>
<!-- Node3&#45;&gt;Node19 -->
<g id="edge19" class="edge"><title>Node3&#45;&gt;Node19</title>
<path fill="none" stroke="midnightblue" d="M1155.5,-201.805C1155.5,-192.91 1155.5,-182.78 1155.5,-175.751"/>
<polygon fill="midnightblue" stroke="midnightblue" points="1152,-202.083 1155.5,-212.083 1159,-202.083 1152,-202.083"/>
</g>
<!-- Node20 -->
<g id="node20" class="node"><title>Node20</title>
<g id="a_node20"><a xlink:href="Plot_8hh.html" target="_top" xlink:title="boca/plotting/Plot.hh">
<polygon fill="white" stroke="black" points="1368.5,-156.5 1368.5,-175.5 1474.5,-175.5 1474.5,-156.5 1368.5,-156.5"/>
<text text-anchor="middle" x="1421.5" y="-163.5" font-family="Helvetica,sans-Serif" font-size="10.00">boca/plotting/Plot.hh</text>
</a>
</g>
</g>
<!-- Node3&#45;&gt;Node20 -->
<g id="edge20" class="edge"><title>Node3&#45;&gt;Node20</title>
<path fill="none" stroke="midnightblue" d="M1207.67,-210.41C1257.94,-200.204 1333.03,-184.96 1379.55,-175.516"/>
<polygon fill="midnightblue" stroke="midnightblue" points="1206.75,-207.024 1197.65,-212.444 1208.14,-213.884 1206.75,-207.024"/>
</g>
<!-- Node27 -->
<g id="node27" class="node"><title>Node27</title>
<g id="a_node27"><a xlink:href="Vector3_8cpp.html" target="_top" xlink:title="source/math/Vector3.cpp">
<polygon fill="white" stroke="black" points="1224.5,-156.5 1224.5,-175.5 1350.5,-175.5 1350.5,-156.5 1224.5,-156.5"/>
<text text-anchor="middle" x="1287.5" y="-163.5" font-family="Helvetica,sans-Serif" font-size="10.00">source/math/Vector3.cpp</text>
</a>
</g>
</g>
<!-- Node3&#45;&gt;Node27 -->
<g id="edge29" class="edge"><title>Node3&#45;&gt;Node27</title>
<path fill="none" stroke="midnightblue" d="M1185.72,-208.638C1210.49,-198.504 1244.9,-184.427 1266.68,-175.516"/>
<polygon fill="midnightblue" stroke="midnightblue" points="1184.35,-205.418 1176.42,-212.444 1187,-211.897 1184.35,-205.418"/>
</g>
<!-- Node5 -->
<g id="node5" class="node"><title>Node5</title>
<g id="a_node5"><a xlink:href="boca_2analysis_2Analysis_8hh.html" target="_top" xlink:title="boca/analysis/Analysis.hh">
<polygon fill="white" stroke="red" points="520,-89.5 520,-108.5 651,-108.5 651,-89.5 520,-89.5"/>
<text text-anchor="middle" x="585.5" y="-96.5" font-family="Helvetica,sans-Serif" font-size="10.00">boca/analysis/Analysis.hh</text>
</a>
</g>
</g>
<!-- Node4&#45;&gt;Node5 -->
<g id="edge4" class="edge"><title>Node4&#45;&gt;Node5</title>
<path fill="none" stroke="midnightblue" d="M661.781,-150.595C642.394,-137.736 614.645,-119.331 598.507,-108.627"/>
<polygon fill="midnightblue" stroke="midnightblue" points="660.015,-153.623 670.283,-156.234 663.884,-147.79 660.015,-153.623"/>
</g>
<!-- Node6 -->
<g id="node6" class="node"><title>Node6</title>
<g id="a_node6"><a xlink:href="boca_2analysis_2Cut_8hh.html" target="_top" xlink:title="boca/analysis/Cut.hh">
<polygon fill="white" stroke="red" points="266,-11.5 266,-30.5 375,-30.5 375,-11.5 266,-11.5"/>
<text text-anchor="middle" x="320.5" y="-18.5" font-family="Helvetica,sans-Serif" font-size="10.00">boca/analysis/Cut.hh</text>
</a>
</g>
</g>
<!-- Node5&#45;&gt;Node6 -->
<g id="edge5" class="edge"><title>Node5&#45;&gt;Node6</title>
<path fill="none" stroke="midnightblue" d="M543.309,-86.7907C502.353,-75.7948 438.491,-58.3452 383.5,-42 371.4,-38.4035 358.067,-34.2052 346.794,-30.5862"/>
<polygon fill="midnightblue" stroke="midnightblue" points="542.644,-90.2358 553.209,-89.4426 544.455,-83.4742 542.644,-90.2358"/>
</g>
<!-- Node7 -->
<g id="node7" class="node"><title>Node7</title>
<g id="a_node7"><a xlink:href="HeavyHiggs_8hh.html" target="_top" xlink:title="examples/heavyhiggs\l/heavyhiggs/analysis\l/HeavyHiggs.hh">
<polygon fill="white" stroke="red" points="393,-0.5 393,-41.5 504,-41.5 504,-0.5 393,-0.5"/>
<text text-anchor="start" x="401" y="-29.5" font-family="Helvetica,sans-Serif" font-size="10.00">examples/heavyhiggs</text>
<text text-anchor="start" x="401" y="-18.5" font-family="Helvetica,sans-Serif" font-size="10.00">/heavyhiggs/analysis</text>
<text text-anchor="middle" x="448.5" y="-7.5" font-family="Helvetica,sans-Serif" font-size="10.00">/HeavyHiggs.hh</text>
</a>
</g>
</g>
<!-- Node5&#45;&gt;Node7 -->
<g id="edge6" class="edge"><title>Node5&#45;&gt;Node7</title>
<path fill="none" stroke="midnightblue" d="M561.233,-84.538C539.741,-72.6157 508.1,-55.0627 483.805,-41.5854"/>
<polygon fill="midnightblue" stroke="midnightblue" points="559.608,-87.6391 570.051,-89.4296 563.004,-81.5179 559.608,-87.6391"/>
</g>
<!-- Node8 -->
<g id="node8" class="node"><title>Node8</title>
<g id="a_node8"><a xlink:href="examples_2higgscpv_2higgscpv_2Analysis_8hh.html" target="_top" xlink:title="examples/higgscpv/higgscpv\l/Analysis.hh">
<polygon fill="white" stroke="red" points="522,-6 522,-36 665,-36 665,-6 522,-6"/>
<text text-anchor="start" x="530" y="-24" font-family="Helvetica,sans-Serif" font-size="10.00">examples/higgscpv/higgscpv</text>
<text text-anchor="middle" x="593.5" y="-13" font-family="Helvetica,sans-Serif" font-size="10.00">/Analysis.hh</text>
</a>
</g>
</g>
<!-- Node5&#45;&gt;Node8 -->
<g id="edge7" class="edge"><title>Node5&#45;&gt;Node8</title>
<path fill="none" stroke="midnightblue" d="M587.47,-79.2816C588.879,-65.9036 590.743,-48.188 592.024,-36.0198"/>
<polygon fill="midnightblue" stroke="midnightblue" points="583.984,-78.9704 586.418,-89.2818 590.945,-79.7032 583.984,-78.9704"/>
</g>
<!-- Node9 -->
<g id="node9" class="node"><title>Node9</title>
<g id="a_node9"><a xlink:href="examples_2simple_2simple_2Analysis_8hh.html" target="_top" xlink:title="examples/simple/simple\l/Analysis.hh">
<polygon fill="white" stroke="red" points="683.5,-6 683.5,-36 805.5,-36 805.5,-6 683.5,-6"/>
<text text-anchor="start" x="691.5" y="-24" font-family="Helvetica,sans-Serif" font-size="10.00">examples/simple/simple</text>
<text text-anchor="middle" x="744.5" y="-13" font-family="Helvetica,sans-Serif" font-size="10.00">/Analysis.hh</text>
</a>
</g>
</g>
<!-- Node5&#45;&gt;Node9 -->
<g id="edge8" class="edge"><title>Node5&#45;&gt;Node9</title>
<path fill="none" stroke="midnightblue" d="M612.784,-84.9585C641.264,-71.3454 685.774,-50.0701 715.04,-36.0815"/>
<polygon fill="midnightblue" stroke="midnightblue" points="610.943,-81.9592 603.43,-89.4296 613.962,-88.2748 610.943,-81.9592"/>
</g>
<!-- Node10 -->
<g id="node10" class="node"><title>Node10</title>
<g id="a_node10"><a xlink:href="StandardModel_8hh.html" target="_top" xlink:title="examples/standardmodel\l/standardmodel/analysis\l/StandardModel.hh">
<polygon fill="white" stroke="red" points="0,-0.5 0,-41.5 125,-41.5 125,-0.5 0,-0.5"/>
<text text-anchor="start" x="8" y="-29.5" font-family="Helvetica,sans-Serif" font-size="10.00">examples/standardmodel</text>
<text text-anchor="start" x="8" y="-18.5" font-family="Helvetica,sans-Serif" font-size="10.00">/standardmodel/analysis</text>
<text text-anchor="middle" x="62.5" y="-7.5" font-family="Helvetica,sans-Serif" font-size="10.00">/StandardModel.hh</text>
</a>
</g>
</g>
<!-- Node5&#45;&gt;Node10 -->
<g id="edge9" class="edge"><title>Node5&#45;&gt;Node10</title>
<path fill="none" stroke="midnightblue" d="M548.292,-86.7763C536.32,-83.5161 522.934,-80.2357 510.5,-78 344.839,-48.2136 298.949,-72.943 133.5,-42 130.731,-41.4821 127.913,-40.9055 125.076,-40.2841"/>
<polygon fill="midnightblue" stroke="midnightblue" points="547.391,-90.1586 557.965,-89.4867 549.28,-83.4182 547.391,-90.1586"/>
</g>
<!-- Node11 -->
<g id="node11" class="node"><title>Node11</title>
<g id="a_node11"><a xlink:href="analysis_2TopPartner_8hh.html" target="_top" xlink:title="examples/toppartner\l/toppartner/analysis\l/TopPartner.hh">
<polygon fill="white" stroke="red" points="143,-0.5 143,-41.5 248,-41.5 248,-0.5 143,-0.5"/>
<text text-anchor="start" x="151" y="-29.5" font-family="Helvetica,sans-Serif" font-size="10.00">examples/toppartner</text>
<text text-anchor="start" x="151" y="-18.5" font-family="Helvetica,sans-Serif" font-size="10.00">/toppartner/analysis</text>
<text text-anchor="middle" x="195.5" y="-7.5" font-family="Helvetica,sans-Serif" font-size="10.00">/TopPartner.hh</text>
</a>
</g>
</g>
<!-- Node5&#45;&gt;Node11 -->
<g id="edge10" class="edge"><title>Node5&#45;&gt;Node11</title>
<path fill="none" stroke="midnightblue" d="M546.973,-86.7787C535.323,-83.6424 522.45,-80.431 510.5,-78 398.771,-55.2703 367.545,-67.8612 256.5,-42 253.786,-41.368 251.021,-40.6688 248.24,-39.9214"/>
<polygon fill="midnightblue" stroke="midnightblue" points="546.273,-90.216 556.843,-89.4941 548.13,-83.4667 546.273,-90.216"/>
</g>
<!-- Node13 -->
<g id="node13" class="node"><title>Node13</title>
<g id="a_node13"><a xlink:href="LorentzVector_8hh.html" target="_top" xlink:title="boca/math/LorentzVector.hh">
<polygon fill="white" stroke="red" points="837.5,-89.5 837.5,-108.5 977.5,-108.5 977.5,-89.5 837.5,-89.5"/>
<text text-anchor="middle" x="907.5" y="-96.5" font-family="Helvetica,sans-Serif" font-size="10.00">boca/math/LorentzVector.hh</text>
</a>
</g>
</g>
<!-- Node12&#45;&gt;Node13 -->
<g id="edge12" class="edge"><title>Node12&#45;&gt;Node13</title>
<path fill="none" stroke="midnightblue" d="M983.781,-150.595C964.394,-137.736 936.645,-119.331 920.507,-108.627"/>
<polygon fill="midnightblue" stroke="midnightblue" points="982.015,-153.623 992.283,-156.234 985.884,-147.79 982.015,-153.623"/>
</g>
<!-- Node15 -->
<g id="node15" class="node"><title>Node15</title>
<g id="a_node15"><a xlink:href="LorentzMatrix_8hh.html" target="_top" xlink:title="boca/math/LorentzMatrix.hh">
<polygon fill="white" stroke="black" points="993.5,-11.5 993.5,-30.5 1131.5,-30.5 1131.5,-11.5 993.5,-11.5"/>
<text text-anchor="middle" x="1062.5" y="-18.5" font-family="Helvetica,sans-Serif" font-size="10.00">boca/math/LorentzMatrix.hh</text>
</a>
</g>
</g>
<!-- Node12&#45;&gt;Node15 -->
<g id="edge14" class="edge"><title>Node12&#45;&gt;Node15</title>
<path fill="none" stroke="midnightblue" d="M1007.51,-146.183C1009.92,-128.122 1014.9,-100.364 1024.5,-78 1032.29,-59.8628 1046.22,-41.4135 1054.88,-30.8727"/>
<polygon fill="midnightblue" stroke="midnightblue" points="1004.02,-145.924 1006.3,-156.27 1010.97,-146.758 1004.02,-145.924"/>
</g>
<!-- Node16 -->
<g id="node16" class="node"><title>Node16</title>
<g id="a_node16"><a xlink:href="LorentzVectorBase_8cpp.html" target="_top" xlink:title="source/math/LorentzVector\lBase.cpp">
<polygon fill="white" stroke="black" points="1033.5,-84 1033.5,-114 1167.5,-114 1167.5,-84 1033.5,-84"/>
<text text-anchor="start" x="1041.5" y="-102" font-family="Helvetica,sans-Serif" font-size="10.00">source/math/LorentzVector</text>
<text text-anchor="middle" x="1100.5" y="-91" font-family="Helvetica,sans-Serif" font-size="10.00">Base.cpp</text>
</a>
</g>
</g>
<!-- Node12&#45;&gt;Node16 -->
<g id="edge15" class="edge"><title>Node12&#45;&gt;Node16</title>
<path fill="none" stroke="midnightblue" d="M1026.91,-150.349C1042.77,-139.5 1064.25,-124.803 1079.91,-114.089"/>
<polygon fill="midnightblue" stroke="midnightblue" points="1024.59,-147.698 1018.31,-156.234 1028.54,-153.476 1024.59,-147.698"/>
</g>
<!-- Node14 -->
<g id="node14" class="node"><title>Node14</title>
<g id="a_node14"><a xlink:href="Invisible2_8hh.html" target="_top" xlink:title="external/wimpmass/wimpmass\l/Invisible2.hh">
<polygon fill="white" stroke="red" points="823.5,-6 823.5,-36 975.5,-36 975.5,-6 823.5,-6"/>
<text text-anchor="start" x="831.5" y="-24" font-family="Helvetica,sans-Serif" font-size="10.00">external/wimpmass/wimpmass</text>
<text text-anchor="middle" x="899.5" y="-13" font-family="Helvetica,sans-Serif" font-size="10.00">/Invisible2.hh</text>
</a>
</g>
</g>
<!-- Node13&#45;&gt;Node14 -->
<g id="edge13" class="edge"><title>Node13&#45;&gt;Node14</title>
<path fill="none" stroke="midnightblue" d="M905.53,-79.2816C904.121,-65.9036 902.257,-48.188 900.976,-36.0198"/>
<polygon fill="midnightblue" stroke="midnightblue" points="902.055,-79.7032 906.582,-89.2818 909.016,-78.9704 902.055,-79.7032"/>
</g>
<!-- Node18 -->
<g id="node18" class="node"><title>Node18</title>
<g id="a_node18"><a xlink:href="Matrix3_8hh.html" target="_top" xlink:title="boca/math/Matrix3.hh">
<polygon fill="white" stroke="red" points="708,-89.5 708,-108.5 819,-108.5 819,-89.5 708,-89.5"/>
<text text-anchor="middle" x="763.5" y="-96.5" font-family="Helvetica,sans-Serif" font-size="10.00">boca/math/Matrix3.hh</text>
</a>
</g>
</g>
<!-- Node17&#45;&gt;Node18 -->
<g id="edge17" class="edge"><title>Node17&#45;&gt;Node18</title>
<path fill="none" stroke="midnightblue" d="M817.412,-149.356C803.454,-136.578 784.245,-118.992 772.924,-108.627"/>
<polygon fill="midnightblue" stroke="midnightblue" points="815.185,-152.063 824.925,-156.234 819.912,-146.9 815.185,-152.063"/>
</g>
<!-- Node18&#45;&gt;Node15 -->
<g id="edge18" class="edge"><title>Node18&#45;&gt;Node15</title>
<path fill="none" stroke="midnightblue" d="M799.472,-86.4281C808.881,-83.5401 819.038,-80.5439 828.5,-78 897.215,-59.5252 915.365,-58.8379 984.5,-42 999.441,-38.3611 1015.94,-34.1568 1029.91,-30.5447"/>
<polygon fill="midnightblue" stroke="midnightblue" points="798.134,-83.179 789.626,-89.4929 800.214,-89.8627 798.134,-83.179"/>
</g>
<!-- Node21 -->
<g id="node21" class="node"><title>Node21</title>
<g id="a_node21"><a xlink:href="Histogram2Dim_8hh.html" target="_top" xlink:title="boca/plotting/Histogram2\lDim.hh">
<polygon fill="white" stroke="red" points="1741,-84 1741,-114 1866,-114 1866,-84 1741,-84"/>
<text text-anchor="start" x="1749" y="-102" font-family="Helvetica,sans-Serif" font-size="10.00">boca/plotting/Histogram2</text>
<text text-anchor="middle" x="1803.5" y="-91" font-family="Helvetica,sans-Serif" font-size="10.00">Dim.hh</text>
</a>
</g>
</g>
<!-- Node20&#45;&gt;Node21 -->
<g id="edge21" class="edge"><title>Node20&#45;&gt;Node21</title>
<path fill="none" stroke="midnightblue" d="M1484.68,-158.208C1547.62,-150.885 1646.81,-137.834 1731.5,-120 1739.5,-118.316 1747.92,-116.249 1756.07,-114.091"/>
<polygon fill="midnightblue" stroke="midnightblue" points="1484.05,-154.757 1474.52,-159.378 1484.85,-161.711 1484.05,-154.757"/>
</g>
<!-- Node23 -->
<g id="node23" class="node"><title>Node23</title>
<g id="a_node23"><a xlink:href="Plots_8hh.html" target="_top" xlink:title="boca/plotting/Plots.hh">
<polygon fill="white" stroke="red" points="1323,-89.5 1323,-108.5 1434,-108.5 1434,-89.5 1323,-89.5"/>
<text text-anchor="middle" x="1378.5" y="-96.5" font-family="Helvetica,sans-Serif" font-size="10.00">boca/plotting/Plots.hh</text>
</a>
</g>
</g>
<!-- Node20&#45;&gt;Node23 -->
<g id="edge23" class="edge"><title>Node20&#45;&gt;Node23</title>
<path fill="none" stroke="midnightblue" d="M1409.95,-147.535C1401.62,-134.95 1390.74,-118.507 1384.21,-108.627"/>
<polygon fill="midnightblue" stroke="midnightblue" points="1407.26,-149.825 1415.7,-156.234 1413.1,-145.963 1407.26,-149.825"/>
</g>
<!-- Node24 -->
<g id="node24" class="node"><title>Node24</title>
<g id="a_node24"><a xlink:href="Profile_8hh.html" target="_top" xlink:title="boca/plotting/Profile.hh">
<polygon fill="white" stroke="black" points="1452.5,-89.5 1452.5,-108.5 1568.5,-108.5 1568.5,-89.5 1452.5,-89.5"/>
<text text-anchor="middle" x="1510.5" y="-96.5" font-family="Helvetica,sans-Serif" font-size="10.00">boca/plotting/Profile.hh</text>
</a>
</g>
</g>
<!-- Node20&#45;&gt;Node24 -->
<g id="edge25" class="edge"><title>Node20&#45;&gt;Node24</title>
<path fill="none" stroke="midnightblue" d="M1441.95,-150.068C1459.51,-137.238 1484.23,-119.185 1498.69,-108.627"/>
<polygon fill="midnightblue" stroke="midnightblue" points="1439.51,-147.509 1433.5,-156.234 1443.64,-153.162 1439.51,-147.509"/>
</g>
<!-- Node26 -->
<g id="node26" class="node"><title>Node26</title>
<g id="a_node26"><a xlink:href="Plot_8cpp.html" target="_top" xlink:title="source/plotting/Plot.cpp">
<polygon fill="white" stroke="black" points="1186,-89.5 1186,-108.5 1305,-108.5 1305,-89.5 1186,-89.5"/>
<text text-anchor="middle" x="1245.5" y="-96.5" font-family="Helvetica,sans-Serif" font-size="10.00">source/plotting/Plot.cpp</text>
</a>
</g>
</g>
<!-- Node20&#45;&gt;Node26 -->
<g id="edge28" class="edge"><title>Node20&#45;&gt;Node26</title>
<path fill="none" stroke="midnightblue" d="M1388.39,-152.771C1353.46,-139.87 1299.32,-119.876 1268.69,-108.564"/>
<polygon fill="midnightblue" stroke="midnightblue" points="1387.54,-156.187 1398.13,-156.369 1389.96,-149.621 1387.54,-156.187"/>
</g>
<!-- Node22 -->
<g id="node22" class="node"><title>Node22</title>
<g id="a_node22"><a xlink:href="PlottingBase_8cpp.html" target="_top" xlink:title="source/plotting/Plotting\lBase.cpp">
<polygon fill="white" stroke="black" points="1820.5,-6 1820.5,-36 1936.5,-36 1936.5,-6 1820.5,-6"/>
<text text-anchor="start" x="1828.5" y="-24" font-family="Helvetica,sans-Serif" font-size="10.00">source/plotting/Plotting</text>
<text text-anchor="middle" x="1878.5" y="-13" font-family="Helvetica,sans-Serif" font-size="10.00">Base.cpp</text>
</a>
</g>
</g>
<!-- Node21&#45;&gt;Node22 -->
<g id="edge22" class="edge"><title>Node21&#45;&gt;Node22</title>
<path fill="none" stroke="midnightblue" d="M1824.68,-76.5332C1837.42,-63.6316 1853.26,-47.5716 1864.46,-36.2309"/>
<polygon fill="midnightblue" stroke="midnightblue" points="1822.14,-74.1288 1817.61,-83.705 1827.12,-79.0457 1822.14,-74.1288"/>
</g>
<!-- Node23&#45;&gt;Node22 -->
<g id="edge24" class="edge"><title>Node23&#45;&gt;Node22</title>
<path fill="none" stroke="midnightblue" d="M1412.76,-86.2623C1422.6,-83.2203 1433.39,-80.1885 1443.5,-78 1576.71,-49.1523 1736.31,-33.2675 1820.27,-26.3217"/>
<polygon fill="midnightblue" stroke="midnightblue" points="1411.39,-83.0252 1402.93,-89.4011 1413.52,-89.6935 1411.39,-83.0252"/>
</g>
<!-- Node24&#45;&gt;Node22 -->
<g id="edge26" class="edge"><title>Node24&#45;&gt;Node22</title>
<path fill="none" stroke="midnightblue" d="M1546.38,-86.5236C1556.4,-83.5305 1567.32,-80.4584 1577.5,-78 1661.2,-57.7814 1759.5,-40.7267 1820.41,-30.9281"/>
<polygon fill="midnightblue" stroke="midnightblue" points="1545.28,-83.2009 1536.74,-89.4649 1547.32,-89.8967 1545.28,-83.2009"/>
</g>
<!-- Node25 -->
<g id="node25" class="node"><title>Node25</title>
<g id="a_node25"><a xlink:href="Profile_8cpp.html" target="_top" xlink:title="source/plotting/Profile.cpp">
<polygon fill="white" stroke="black" points="1445.5,-11.5 1445.5,-30.5 1575.5,-30.5 1575.5,-11.5 1445.5,-11.5"/>
<text text-anchor="middle" x="1510.5" y="-18.5" font-family="Helvetica,sans-Serif" font-size="10.00">source/plotting/Profile.cpp</text>
</a>
</g>
</g>
<!-- Node24&#45;&gt;Node25 -->
<g id="edge27" class="edge"><title>Node24&#45;&gt;Node25</title>
<path fill="none" stroke="midnightblue" d="M1510.5,-79.2239C1510.5,-63.6974 1510.5,-42.3582 1510.5,-30.6165"/>
<polygon fill="midnightblue" stroke="midnightblue" points="1507,-79.2818 1510.5,-89.2818 1514,-79.2819 1507,-79.2818"/>
</g>
<!-- Node29 -->
<g id="node29" class="node"><title>Node29</title>
<g id="a_node29"><a xlink:href="Singlet_8hh.html" target="_top" xlink:title="boca/multiplets/Singlet.hh">
<polygon fill="white" stroke="black" points="2920,-156.5 2920,-175.5 3049,-175.5 3049,-156.5 2920,-156.5"/>
<text text-anchor="middle" x="2984.5" y="-163.5" font-family="Helvetica,sans-Serif" font-size="10.00">boca/multiplets/Singlet.hh</text>
</a>
</g>
</g>
<!-- Node28&#45;&gt;Node29 -->
<g id="edge31" class="edge"><title>Node28&#45;&gt;Node29</title>
<path fill="none" stroke="midnightblue" d="M1995.73,-211.991C2350.29,-177.939 2762.97,-169.646 2919.76,-167.627"/>
<polygon fill="midnightblue" stroke="midnightblue" points="1995.13,-208.532 1985.52,-212.98 1995.81,-215.499 1995.13,-208.532"/>
</g>
<!-- Node30 -->
<g id="node30" class="node"><title>Node30</title>
<g id="a_node30"><a xlink:href="boca_2multiplets_2Global_8hh.html" target="_top" xlink:title="boca/multiplets/Global.hh">
<polygon fill="white" stroke="red" points="2846,-89.5 2846,-108.5 2973,-108.5 2973,-89.5 2846,-89.5"/>
<text text-anchor="middle" x="2909.5" y="-96.5" font-family="Helvetica,sans-Serif" font-size="10.00">boca/multiplets/Global.hh</text>
</a>
</g>
</g>
<!-- Node29&#45;&gt;Node30 -->
<g id="edge32" class="edge"><title>Node29&#45;&gt;Node30</title>
<path fill="none" stroke="midnightblue" d="M2966.45,-149.356C2951.71,-136.578 2931.41,-118.992 2919.45,-108.627"/>
<polygon fill="midnightblue" stroke="midnightblue" points="2964.54,-152.329 2974.39,-156.234 2969.12,-147.04 2964.54,-152.329"/>
</g>
<!-- Node31 -->
<g id="node31" class="node"><title>Node31</title>
<g id="a_node31"><a xlink:href="Multiplet_8hh.html" target="_top" xlink:title="boca/multiplets/Multiplet.hh">
<polygon fill="white" stroke="red" points="2991.5,-89.5 2991.5,-108.5 3127.5,-108.5 3127.5,-89.5 2991.5,-89.5"/>
<text text-anchor="middle" x="3059.5" y="-96.5" font-family="Helvetica,sans-Serif" font-size="10.00">boca/multiplets/Multiplet.hh</text>
</a>
</g>
</g>
<!-- Node29&#45;&gt;Node31 -->
<g id="edge33" class="edge"><title>Node29&#45;&gt;Node31</title>
<path fill="none" stroke="midnightblue" d="M3002.55,-149.356C3017.29,-136.578 3037.59,-118.992 3049.55,-108.627"/>
<polygon fill="midnightblue" stroke="midnightblue" points="2999.88,-147.04 2994.61,-156.234 3004.46,-152.329 2999.88,-147.04"/>
</g>
<!-- Node32 -->
<g id="node32" class="node"><title>Node32</title>
<g id="a_node32"><a xlink:href="tagger_2Bottom_8hh.html" target="_top" xlink:title="examples/standardmodel\l/standardmodel/tagger\l/Bottom.hh">
<polygon fill="white" stroke="red" points="3146,-78.5 3146,-119.5 3271,-119.5 3271,-78.5 3146,-78.5"/>
<text text-anchor="start" x="3154" y="-107.5" font-family="Helvetica,sans-Serif" font-size="10.00">examples/standardmodel</text>
<text text-anchor="start" x="3154" y="-96.5" font-family="Helvetica,sans-Serif" font-size="10.00">/standardmodel/tagger</text>
<text text-anchor="middle" x="3208.5" y="-85.5" font-family="Helvetica,sans-Serif" font-size="10.00">/Bottom.hh</text>
</a>
</g>
</g>
<!-- Node29&#45;&gt;Node32 -->
<g id="edge34" class="edge"><title>Node29&#45;&gt;Node32</title>
<path fill="none" stroke="midnightblue" d="M3024.2,-153.481C3057.94,-143.69 3106.97,-129.462 3145.98,-118.143"/>
<polygon fill="midnightblue" stroke="midnightblue" points="3022.87,-150.22 3014.25,-156.369 3024.82,-156.943 3022.87,-150.22"/>
</g>
<!-- Node33 -->
<g id="node33" class="node"><title>Node33</title>
<g id="a_node33"><a xlink:href="tagger_2Tau_8hh.html" target="_top" xlink:title="examples/standardmodel\l/standardmodel/tagger\l/Tau.hh">
<polygon fill="white" stroke="red" points="3289,-78.5 3289,-119.5 3414,-119.5 3414,-78.5 3289,-78.5"/>
<text text-anchor="start" x="3297" y="-107.5" font-family="Helvetica,sans-Serif" font-size="10.00">examples/standardmodel</text>
<text text-anchor="start" x="3297" y="-96.5" font-family="Helvetica,sans-Serif" font-size="10.00">/standardmodel/tagger</text>
<text text-anchor="middle" x="3351.5" y="-85.5" font-family="Helvetica,sans-Serif" font-size="10.00">/Tau.hh</text>
</a>
</g>
</g>
<!-- Node29&#45;&gt;Node33 -->
<g id="edge35" class="edge"><title>Node29&#45;&gt;Node33</title>
<path fill="none" stroke="midnightblue" d="M3059.17,-156.246C3119.3,-148.574 3205.81,-136.131 3280.5,-120 3283.25,-119.405 3286.06,-118.765 3288.89,-118.091"/>
<polygon fill="midnightblue" stroke="midnightblue" points="3058.49,-152.804 3049.01,-157.529 3059.37,-159.749 3058.49,-152.804"/>
</g>
<!-- Node34 -->
<g id="node34" class="node"><title>Node34</title>
<g id="a_node34"><a xlink:href="examples_2tthh_2tthh_2Observables_8hh.html" target="_top" xlink:title="examples/tthh/tthh\l/Observables.hh">
<polygon fill="white" stroke="red" points="3432.5,-84 3432.5,-114 3530.5,-114 3530.5,-84 3432.5,-84"/>
<text text-anchor="start" x="3440.5" y="-102" font-family="Helvetica,sans-Serif" font-size="10.00">examples/tthh/tthh</text>
<text text-anchor="middle" x="3481.5" y="-91" font-family="Helvetica,sans-Serif" font-size="10.00">/Observables.hh</text>
</a>
</g>
</g>
<!-- Node29&#45;&gt;Node34 -->
<g id="edge36" class="edge"><title>Node29&#45;&gt;Node34</title>
<path fill="none" stroke="midnightblue" d="M3059.38,-162.556C3147.43,-158.484 3297.56,-147.78 3423.5,-120 3430.47,-118.463 3437.76,-116.36 3444.73,-114.094"/>
<polygon fill="midnightblue" stroke="midnightblue" points="3059.05,-159.067 3049.21,-163.009 3059.36,-166.06 3059.05,-159.067"/>
</g>
<!-- Node35 -->
<g id="node35" class="node"><title>Node35</title>
<g id="a_node35"><a xlink:href="JetInfo_8cpp.html" target="_top" xlink:title="source/multiplets/JetInfo.cpp">
<polygon fill="white" stroke="black" points="2524,-89.5 2524,-108.5 2667,-108.5 2667,-89.5 2524,-89.5"/>
<text text-anchor="middle" x="2595.5" y="-96.5" font-family="Helvetica,sans-Serif" font-size="10.00">source/multiplets/JetInfo.cpp</text>
</a>
</g>
</g>
<!-- Node29&#45;&gt;Node35 -->
<g id="edge37" class="edge"><title>Node29&#45;&gt;Node35</title>
<path fill="none" stroke="midnightblue" d="M2909.76,-156.25C2846.95,-148.388 2754.98,-135.681 2675.5,-120 2659.21,-116.785 2641.25,-112.378 2626.49,-108.518"/>
<polygon fill="midnightblue" stroke="midnightblue" points="2909.61,-159.759 2919.97,-157.518 2910.48,-152.812 2909.61,-159.759"/>
</g>
<!-- Node36 -->
<g id="node36" class="node"><title>Node36</title>
<g id="a_node36"><a xlink:href="Singlet_8cpp.html" target="_top" xlink:title="source/multiplets/Singlet.cpp">
<polygon fill="white" stroke="black" points="2685,-89.5 2685,-108.5 2828,-108.5 2828,-89.5 2685,-89.5"/>
<text text-anchor="middle" x="2756.5" y="-96.5" font-family="Helvetica,sans-Serif" font-size="10.00">source/multiplets/Singlet.cpp</text>
</a>
</g>
</g>
<!-- Node29&#45;&gt;Node36 -->
<g id="edge38" class="edge"><title>Node29&#45;&gt;Node36</title>
<path fill="none" stroke="midnightblue" d="M2944.48,-153.591C2899.38,-140.732 2827.07,-120.118 2786.54,-108.564"/>
<polygon fill="midnightblue" stroke="midnightblue" points="2943.65,-156.993 2954.22,-156.369 2945.57,-150.261 2943.65,-156.993"/>
</g>
<!-- Node38 -->
<g id="node38" class="node"><title>Node38</title>
<g id="a_node38"><a xlink:href="Matrix2_8hh.html" target="_top" xlink:title="boca/math/Matrix2.hh">
<polygon fill="white" stroke="black" points="493,-156.5 493,-175.5 604,-175.5 604,-156.5 493,-156.5"/>
<text text-anchor="middle" x="548.5" y="-163.5" font-family="Helvetica,sans-Serif" font-size="10.00">boca/math/Matrix2.hh</text>
</a>
</g>
</g>
<!-- Node37&#45;&gt;Node38 -->
<g id="edge40" class="edge"><title>Node37&#45;&gt;Node38</title>
<path fill="none" stroke="midnightblue" d="M732.299,-210.153C688.842,-199.95 624.659,-184.881 584.774,-175.516"/>
<polygon fill="midnightblue" stroke="midnightblue" points="731.521,-213.565 742.056,-212.444 733.121,-206.75 731.521,-213.565"/>
</g>
<!-- Node38&#45;&gt;Node14 -->
<g id="edge43" class="edge"><title>Node38&#45;&gt;Node14</title>
<path fill="none" stroke="midnightblue" d="M589.208,-153.28C611.191,-145.81 638.124,-134.743 659.5,-120 680.469,-105.537 676.744,-91.2508 698.5,-78 711.03,-70.3683 788.192,-49.9702 843.169,-36.0193"/>
<polygon fill="midnightblue" stroke="midnightblue" points="587.909,-150.022 579.494,-156.459 590.086,-156.675 587.909,-150.022"/>
</g>
<!-- Node38&#45;&gt;Node18 -->
<g id="edge41" class="edge"><title>Node38&#45;&gt;Node18</title>
<path fill="none" stroke="midnightblue" d="M586.774,-153.429C629.344,-140.559 697.115,-120.07 735.174,-108.564"/>
<polygon fill="midnightblue" stroke="midnightblue" points="585.61,-150.124 577.05,-156.369 587.635,-156.825 585.61,-150.124"/>
</g>
<!-- Node39 -->
<g id="node39" class="node"><title>Node39</title>
<g id="a_node39"><a xlink:href="GradedMatrix2_8hh.html" target="_top" xlink:title="boca/math/GradedMatrix2.hh">
<polygon fill="white" stroke="black" points="216,-89.5 216,-108.5 359,-108.5 359,-89.5 216,-89.5"/>
<text text-anchor="middle" x="287.5" y="-96.5" font-family="Helvetica,sans-Serif" font-size="10.00">boca/math/GradedMatrix2.hh</text>
</a>
</g>
</g>
<!-- Node38&#45;&gt;Node39 -->
<g id="edge42" class="edge"><title>Node38&#45;&gt;Node39</title>
<path fill="none" stroke="midnightblue" d="M504.263,-154.019C467.614,-144.917 414.168,-131.635 367.5,-120 352.498,-116.26 335.915,-112.116 321.756,-108.574"/>
<polygon fill="midnightblue" stroke="midnightblue" points="503.586,-157.457 514.135,-156.47 505.273,-150.663 503.586,-157.457"/>
</g>
<!-- Node40 -->
<g id="node40" class="node"><title>Node40</title>
<g id="a_node40"><a xlink:href="Matrix2_8cpp.html" target="_top" xlink:title="source/math/Matrix2.cpp">
<polygon fill="white" stroke="black" points="377,-89.5 377,-108.5 502,-108.5 502,-89.5 377,-89.5"/>
<text text-anchor="middle" x="439.5" y="-96.5" font-family="Helvetica,sans-Serif" font-size="10.00">source/math/Matrix2.cpp</text>
</a>
</g>
</g>
<!-- Node38&#45;&gt;Node40 -->
<g id="edge44" class="edge"><title>Node38&#45;&gt;Node40</title>
<path fill="none" stroke="midnightblue" d="M524.926,-150.942C503.34,-138.07 472.078,-119.427 453.967,-108.627"/>
<polygon fill="midnightblue" stroke="midnightblue" points="523.418,-154.118 533.8,-156.234 527.004,-148.106 523.418,-154.118"/>
</g>
<!-- Node41&#45;&gt;Node24 -->
<g id="edge59" class="edge"><title>Node41&#45;&gt;Node24</title>
<path fill="none" stroke="midnightblue" d="M1773.31,-208.534C1713.78,-183.95 1582.59,-129.772 1531.47,-108.661"/>
<polygon fill="midnightblue" stroke="midnightblue" points="1772.32,-211.909 1782.9,-212.492 1774.99,-205.439 1772.32,-211.909"/>
</g>
<!-- Node42 -->
<g id="node42" class="node"><title>Node42</title>
<g id="a_node42"><a xlink:href="Canvas_8hh.html" target="_top" xlink:title="boca/plotting/Canvas.hh">
<polygon fill="white" stroke="black" points="1742.5,-156.5 1742.5,-175.5 1864.5,-175.5 1864.5,-156.5 1742.5,-156.5"/>
<text text-anchor="middle" x="1803.5" y="-163.5" font-family="Helvetica,sans-Serif" font-size="10.00">boca/plotting/Canvas.hh</text>
</a>
</g>
</g>
<!-- Node41&#45;&gt;Node42 -->
<g id="edge46" class="edge"><title>Node41&#45;&gt;Node42</title>
<path fill="none" stroke="midnightblue" d="M1803.5,-201.805C1803.5,-192.91 1803.5,-182.78 1803.5,-175.751"/>
<polygon fill="midnightblue" stroke="midnightblue" points="1800,-202.083 1803.5,-212.083 1807,-202.083 1800,-202.083"/>
</g>
<!-- Node46 -->
<g id="node46" class="node"><title>Node46</title>
<g id="a_node46"><a xlink:href="Legend_8hh.html" target="_top" xlink:title="boca/plotting/Legend.hh">
<polygon fill="white" stroke="black" points="1893.5,-156.5 1893.5,-175.5 2013.5,-175.5 2013.5,-156.5 1893.5,-156.5"/>
<text text-anchor="middle" x="1953.5" y="-163.5" font-family="Helvetica,sans-Serif" font-size="10.00">boca/plotting/Legend.hh</text>
</a>
</g>
</g>
<!-- Node41&#45;&gt;Node46 -->
<g id="edge54" class="edge"><title>Node41&#45;&gt;Node46</title>
<path fill="none" stroke="midnightblue" d="M1836.72,-209.039C1864.95,-198.879 1904.76,-184.546 1929.84,-175.516"/>
<polygon fill="midnightblue" stroke="midnightblue" points="1835.49,-205.763 1827.27,-212.444 1837.86,-212.349 1835.49,-205.763"/>
</g>
<!-- Node48 -->
<g id="node48" class="node"><title>Node48</title>
<g id="a_node48"><a xlink:href="Results_8hh.html" target="_top" xlink:title="boca/plotting/Results.hh">
<polygon fill="white" stroke="black" points="2338.5,-156.5 2338.5,-175.5 2460.5,-175.5 2460.5,-156.5 2338.5,-156.5"/>
<text text-anchor="middle" x="2399.5" y="-163.5" font-family="Helvetica,sans-Serif" font-size="10.00">boca/plotting/Results.hh</text>
</a>
</g>
</g>
<!-- Node41&#45;&gt;Node48 -->
<g id="edge60" class="edge"><title>Node41&#45;&gt;Node48</title>
<path fill="none" stroke="midnightblue" d="M1875.19,-211.969C2049.63,-193.614 2242.27,-178.574 2338.39,-171.429"/>
<polygon fill="midnightblue" stroke="midnightblue" points="1874.63,-208.509 1865.06,-213.042 1875.37,-215.47 1874.63,-208.509"/>
</g>
<!-- Node42&#45;&gt;Node21 -->
<g id="edge49" class="edge"><title>Node42&#45;&gt;Node21</title>
<path fill="none" stroke="midnightblue" d="M1803.5,-145.911C1803.5,-135.722 1803.5,-123.401 1803.5,-114.089"/>
<polygon fill="midnightblue" stroke="midnightblue" points="1800,-146.234 1803.5,-156.234 1807,-146.234 1800,-146.234"/>
</g>
<!-- Node42&#45;&gt;Node24 -->
<g id="edge52" class="edge"><title>Node42&#45;&gt;Node24</title>
<path fill="none" stroke="midnightblue" d="M1743.78,-154.684C1698.02,-146.4 1633.45,-133.889 1577.5,-120 1564.07,-116.666 1549.31,-112.335 1537.08,-108.557"/>
<polygon fill="midnightblue" stroke="midnightblue" points="1743.37,-158.166 1753.83,-156.49 1744.6,-151.276 1743.37,-158.166"/>
</g>
<!-- Node43 -->
<g id="node43" class="node"><title>Node43</title>
<g id="a_node43"><a xlink:href="Graphs_8hh.html" target="_top" xlink:title="boca/plotting/Graphs.hh">
<polygon fill="white" stroke="red" points="2041.5,-89.5 2041.5,-108.5 2161.5,-108.5 2161.5,-89.5 2041.5,-89.5"/>
<text text-anchor="middle" x="2101.5" y="-96.5" font-family="Helvetica,sans-Serif" font-size="10.00">boca/plotting/Graphs.hh</text>
</a>
</g>
</g>
<!-- Node42&#45;&gt;Node43 -->
<g id="edge47" class="edge"><title>Node42&#45;&gt;Node43</title>
<path fill="none" stroke="midnightblue" d="M1862.97,-154.667C1909.15,-146.305 1974.68,-133.7 2031.5,-120 2045.51,-116.623 2060.92,-112.287 2073.71,-108.517"/>
<polygon fill="midnightblue" stroke="midnightblue" points="1862.35,-151.223 1853.13,-156.438 1863.59,-158.112 1862.35,-151.223"/>
</g>
<!-- Node44 -->
<g id="node44" class="node"><title>Node44</title>
<g id="a_node44"><a xlink:href="Histograms_8hh.html" target="_top" xlink:title="boca/plotting/Histograms.hh">
<polygon fill="white" stroke="red" points="1884,-89.5 1884,-108.5 2023,-108.5 2023,-89.5 1884,-89.5"/>
<text text-anchor="middle" x="1953.5" y="-96.5" font-family="Helvetica,sans-Serif" font-size="10.00">boca/plotting/Histograms.hh</text>
</a>
</g>
</g>
<!-- Node42&#45;&gt;Node44 -->
<g id="edge50" class="edge"><title>Node42&#45;&gt;Node44</title>
<path fill="none" stroke="midnightblue" d="M1832.85,-152.281C1862.56,-139.409 1907.68,-119.855 1933.5,-108.667"/>
<polygon fill="midnightblue" stroke="midnightblue" points="1831.2,-149.181 1823.42,-156.369 1833.99,-155.604 1831.2,-149.181"/>
</g>
<!-- Node45 -->
<g id="node45" class="node"><title>Node45</title>
<g id="a_node45"><a xlink:href="Canvas_8cpp.html" target="_top" xlink:title="source/plotting/Canvas.cpp">
<polygon fill="white" stroke="black" points="1586.5,-89.5 1586.5,-108.5 1722.5,-108.5 1722.5,-89.5 1586.5,-89.5"/>
<text text-anchor="middle" x="1654.5" y="-96.5" font-family="Helvetica,sans-Serif" font-size="10.00">source/plotting/Canvas.cpp</text>
</a>
</g>
</g>
<!-- Node42&#45;&gt;Node45 -->
<g id="edge53" class="edge"><title>Node42&#45;&gt;Node45</title>
<path fill="none" stroke="midnightblue" d="M1774.34,-152.281C1744.84,-139.409 1700.01,-119.855 1674.37,-108.667"/>
<polygon fill="midnightblue" stroke="midnightblue" points="1773.15,-155.578 1783.71,-156.369 1775.95,-149.162 1773.15,-155.578"/>
</g>
<!-- Node43&#45;&gt;Node22 -->
<g id="edge48" class="edge"><title>Node43&#45;&gt;Node22</title>
<path fill="none" stroke="midnightblue" d="M2066.83,-86.185C2027.13,-72.6529 1962.12,-50.4977 1919.82,-36.0815"/>
<polygon fill="midnightblue" stroke="midnightblue" points="2065.76,-89.5165 2076.35,-89.4296 2068.02,-82.8907 2065.76,-89.5165"/>
</g>
<!-- Node44&#45;&gt;Node22 -->
<g id="edge51" class="edge"><title>Node44&#45;&gt;Node22</title>
<path fill="none" stroke="midnightblue" d="M1937.73,-82.0238C1924.3,-68.411 1905.18,-49.0398 1892.34,-36.0198"/>
<polygon fill="midnightblue" stroke="midnightblue" points="1935.38,-84.6225 1944.9,-89.2818 1940.36,-79.7056 1935.38,-84.6225"/>
</g>
<!-- Node46&#45;&gt;Node21 -->
<g id="edge56" class="edge"><title>Node46&#45;&gt;Node21</title>
<path fill="none" stroke="midnightblue" d="M1924.12,-152.267C1898.73,-141.266 1862.1,-125.392 1835.87,-114.028"/>
<polygon fill="midnightblue" stroke="midnightblue" points="1923.01,-155.604 1933.58,-156.369 1925.8,-149.181 1923.01,-155.604"/>
</g>
<!-- Node46&#45;&gt;Node43 -->
<g id="edge55" class="edge"><title>Node46&#45;&gt;Node43</title>
<path fill="none" stroke="midnightblue" d="M1982.46,-152.281C2011.77,-139.409 2056.29,-119.855 2081.77,-108.667"/>
<polygon fill="midnightblue" stroke="midnightblue" points="1980.9,-149.143 1973.15,-156.369 1983.72,-155.552 1980.9,-149.143"/>
</g>
<!-- Node46&#45;&gt;Node44 -->
<g id="edge57" class="edge"><title>Node46&#45;&gt;Node44</title>
<path fill="none" stroke="midnightblue" d="M1953.5,-146.037C1953.5,-133.67 1953.5,-118.12 1953.5,-108.627"/>
<polygon fill="midnightblue" stroke="midnightblue" points="1950,-146.234 1953.5,-156.234 1957,-146.234 1950,-146.234"/>
</g>
<!-- Node47 -->
<g id="node47" class="node"><title>Node47</title>
<g id="a_node47"><a xlink:href="Legend_8cpp.html" target="_top" xlink:title="source/plotting/Legend.cpp">
<polygon fill="white" stroke="black" points="2179.5,-89.5 2179.5,-108.5 2313.5,-108.5 2313.5,-89.5 2179.5,-89.5"/>
<text text-anchor="middle" x="2246.5" y="-96.5" font-family="Helvetica,sans-Serif" font-size="10.00">source/plotting/Legend.cpp</text>
</a>
</g>
</g>
<!-- Node46&#45;&gt;Node47 -->
<g id="edge58" class="edge"><title>Node46&#45;&gt;Node47</title>
<path fill="none" stroke="midnightblue" d="M2008.03,-154.521C2052.02,-145.868 2115.43,-132.948 2170.5,-120 2185.38,-116.503 2201.78,-112.238 2215.53,-108.546"/>
<polygon fill="midnightblue" stroke="midnightblue" points="2007.26,-151.106 1998.12,-156.463 2008.61,-157.975 2007.26,-151.106"/>
</g>
<!-- Node48&#45;&gt;Node22 -->
<g id="edge61" class="edge"><title>Node48&#45;&gt;Node22</title>
<path fill="none" stroke="midnightblue" d="M2437.07,-152.542C2452.11,-145.496 2467.88,-135.014 2476.5,-120 2485.79,-103.81 2489.07,-91.801 2476.5,-78 2440.58,-38.5619 2080.02,-26.3921 1936.75,-23.0958"/>
<polygon fill="midnightblue" stroke="midnightblue" points="2435.68,-149.331 2427.87,-156.495 2438.44,-155.762 2435.68,-149.331"/>
</g>
<!-- Node49 -->
<g id="node49" class="node"><title>Node49</title>
<g id="a_node49"><a xlink:href="Results_8cpp.html" target="_top" xlink:title="source/plotting/Results.cpp">
<polygon fill="white" stroke="black" points="2331.5,-89.5 2331.5,-108.5 2467.5,-108.5 2467.5,-89.5 2331.5,-89.5"/>
<text text-anchor="middle" x="2399.5" y="-96.5" font-family="Helvetica,sans-Serif" font-size="10.00">source/plotting/Results.cpp</text>
</a>
</g>
</g>
<!-- Node48&#45;&gt;Node49 -->
<g id="edge62" class="edge"><title>Node48&#45;&gt;Node49</title>
<path fill="none" stroke="midnightblue" d="M2399.5,-146.037C2399.5,-133.67 2399.5,-118.12 2399.5,-108.627"/>
<polygon fill="midnightblue" stroke="midnightblue" points="2396,-146.234 2399.5,-156.234 2403,-146.234 2396,-146.234"/>
</g>
</g>
</svg>
