<?xml version="1.0" encoding="UTF-8" standalone="no"?>
<!DOCTYPE svg PUBLIC "-//W3C//DTD SVG 1.1//EN"
 "http://www.w3.org/Graphics/SVG/1.1/DTD/svg11.dtd">
<!-- Generated by graphviz version 2.38.0 (20140413.2041)
 -->
<!-- Title: boca/fastjet/Jet.hh Pages: 1 -->
<svg width="5868pt" height="184pt"
 viewBox="0.00 0.00 5868.00 184.00" xmlns="http://www.w3.org/2000/svg" xmlns:xlink="http://www.w3.org/1999/xlink">
<g id="graph0" class="graph" transform="scale(1 1) rotate(0) translate(4 180)">
<title>boca/fastjet/Jet.hh</title>
<polygon fill="white" stroke="none" points="-4,4 -4,-180 5864,-180 5864,4 -4,4"/>
<!-- Node1 -->
<g id="node1" class="node"><title>Node1</title>
<polygon fill="#bfbfbf" stroke="black" points="3854.5,-156.5 3854.5,-175.5 3952.5,-175.5 3952.5,-156.5 3854.5,-156.5"/>
<text text-anchor="middle" x="3903.5" y="-163.5" font-family="Helvetica,sans-Serif" font-size="10.00">boca/fastjet/Jet.hh</text>
</g>
<!-- Node2 -->
<g id="node2" class="node"><title>Node2</title>
<g id="a_node2"><a xlink:href="boca_2event_2Event_8hh.html" target="_top" xlink:title="boca/event/Event.hh">
<polygon fill="white" stroke="red" points="2956,-89.5 2956,-108.5 3063,-108.5 3063,-89.5 2956,-89.5"/>
<text text-anchor="middle" x="3009.5" y="-96.5" font-family="Helvetica,sans-Serif" font-size="10.00">boca/event/Event.hh</text>
</a>
</g>
</g>
<!-- Node1&#45;&gt;Node2 -->
<g id="edge1" class="edge"><title>Node1&#45;&gt;Node2</title>
<path fill="none" stroke="midnightblue" d="M3843.99,-163.733C3679.46,-159.919 3220.79,-147.099 3072.5,-120 3058.62,-117.463 3043.53,-112.747 3031.6,-108.531"/>
<polygon fill="midnightblue" stroke="midnightblue" points="3844.32,-167.241 3854.4,-163.971 3844.48,-160.243 3844.32,-167.241"/>
</g>
<!-- Node39 -->
<g id="node39" class="node"><title>Node39</title>
<g id="a_node39"><a xlink:href="Singlet_8hh.html" target="_top" xlink:title="boca/multiplets/Singlet.hh">
<polygon fill="white" stroke="red" points="3081,-89.5 3081,-108.5 3210,-108.5 3210,-89.5 3081,-89.5"/>
<text text-anchor="middle" x="3145.5" y="-96.5" font-family="Helvetica,sans-Serif" font-size="10.00">boca/multiplets/Singlet.hh</text>
</a>
</g>
</g>
<!-- Node1&#45;&gt;Node39 -->
<g id="edge38" class="edge"><title>Node1&#45;&gt;Node39</title>
<path fill="none" stroke="midnightblue" d="M3844.17,-165.036C3724.95,-164.245 3448.21,-158.043 3219.5,-120 3203.48,-117.336 3185.93,-112.669 3171.94,-108.513"/>
<polygon fill="midnightblue" stroke="midnightblue" points="3844.16,-168.536 3854.18,-165.092 3844.2,-161.536 3844.16,-168.536"/>
</g>
<!-- Node40 -->
<g id="node40" class="node"><title>Node40</title>
<g id="a_node40"><a xlink:href="EventShapes_8hh.html" target="_top" xlink:title="boca/event/EventShapes.hh">
<polygon fill="white" stroke="red" points="3228.5,-89.5 3228.5,-108.5 3368.5,-108.5 3368.5,-89.5 3228.5,-89.5"/>
<text text-anchor="middle" x="3298.5" y="-96.5" font-family="Helvetica,sans-Serif" font-size="10.00">boca/event/EventShapes.hh</text>
</a>
</g>
</g>
<!-- Node1&#45;&gt;Node40 -->
<g id="edge39" class="edge"><title>Node1&#45;&gt;Node40</title>
<path fill="none" stroke="midnightblue" d="M3843.93,-163.057C3746.01,-159.16 3545.15,-148.201 3377.5,-120 3360.76,-117.184 3342.35,-112.613 3327.52,-108.552"/>
<polygon fill="midnightblue" stroke="midnightblue" points="3844.09,-166.566 3854.22,-163.456 3844.36,-159.571 3844.09,-166.566"/>
</g>
<!-- Node41 -->
<g id="node41" class="node"><title>Node41</title>
<g id="a_node41"><a xlink:href="ClosestLepton_8hh.html" target="_top" xlink:title="boca/multiplets/ClosestLepton.hh">
<polygon fill="white" stroke="red" points="3386.5,-89.5 3386.5,-108.5 3548.5,-108.5 3548.5,-89.5 3386.5,-89.5"/>
<text text-anchor="middle" x="3467.5" y="-96.5" font-family="Helvetica,sans-Serif" font-size="10.00">boca/multiplets/ClosestLepton.hh</text>
</a>
</g>
</g>
<!-- Node1&#45;&gt;Node41 -->
<g id="edge40" class="edge"><title>Node1&#45;&gt;Node41</title>
<path fill="none" stroke="midnightblue" d="M3844.05,-158.902C3774.92,-151.434 3657.52,-137.581 3557.5,-120 3539.21,-116.786 3519.02,-112.378 3502.4,-108.518"/>
<polygon fill="midnightblue" stroke="midnightblue" points="3843.98,-162.415 3854.3,-160.001 3844.73,-155.455 3843.98,-162.415"/>
</g>
<!-- Node42 -->
<g id="node42" class="node"><title>Node42</title>
<g id="a_node42"><a xlink:href="CutVariables_8hh.html" target="_top" xlink:title="examples/heavyhiggs\l/heavyhiggs/CutVariables.hh">
<polygon fill="white" stroke="red" points="3566.5,-84 3566.5,-114 3708.5,-114 3708.5,-84 3566.5,-84"/>
<text text-anchor="start" x="3574.5" y="-102" font-family="Helvetica,sans-Serif" font-size="10.00">examples/heavyhiggs</text>
<text text-anchor="middle" x="3637.5" y="-91" font-family="Helvetica,sans-Serif" font-size="10.00">/heavyhiggs/CutVariables.hh</text>
</a>
</g>
</g>
<!-- Node1&#45;&gt;Node42 -->
<g id="edge41" class="edge"><title>Node1&#45;&gt;Node42</title>
<path fill="none" stroke="midnightblue" d="M3857.67,-154.015C3820.01,-144.963 3765.27,-131.75 3717.5,-120 3709.71,-118.085 3701.51,-116.051 3693.44,-114.041"/>
<polygon fill="midnightblue" stroke="midnightblue" points="3857.28,-157.521 3867.82,-156.454 3858.92,-150.715 3857.28,-157.521"/>
</g>
<!-- Node43 -->
<g id="node43" class="node"><title>Node43</title>
<g id="a_node43"><a xlink:href="examples_2toppartner_2toppartner_2multiplets_2TruthVariables_8hh.html" target="_top" xlink:title="examples/toppartner\l/toppartner/multiplets\l/TruthVariables.hh">
<polygon fill="white" stroke="red" points="3726.5,-78.5 3726.5,-119.5 3834.5,-119.5 3834.5,-78.5 3726.5,-78.5"/>
<text text-anchor="start" x="3734.5" y="-107.5" font-family="Helvetica,sans-Serif" font-size="10.00">examples/toppartner</text>
<text text-anchor="start" x="3734.5" y="-96.5" font-family="Helvetica,sans-Serif" font-size="10.00">/toppartner/multiplets</text>
<text text-anchor="middle" x="3780.5" y="-85.5" font-family="Helvetica,sans-Serif" font-size="10.00">/TruthVariables.hh</text>
</a>
</g>
</g>
<!-- Node1&#45;&gt;Node43 -->
<g id="edge42" class="edge"><title>Node1&#45;&gt;Node43</title>
<path fill="none" stroke="midnightblue" d="M3878.15,-151.603C3860.69,-142.376 3837.2,-129.964 3817.64,-119.625"/>
<polygon fill="midnightblue" stroke="midnightblue" points="3876.69,-154.791 3887.17,-156.369 3879.96,-148.602 3876.69,-154.791"/>
</g>
<!-- Node44 -->
<g id="node44" class="node"><title>Node44</title>
<g id="a_node44"><a xlink:href="TopTagger_8cpp.html" target="_top" xlink:title="external/hep/source\l/TopTagger.cpp">
<polygon fill="white" stroke="black" points="3852.5,-84 3852.5,-114 3954.5,-114 3954.5,-84 3852.5,-84"/>
<text text-anchor="start" x="3860.5" y="-102" font-family="Helvetica,sans-Serif" font-size="10.00">external/hep/source</text>
<text text-anchor="middle" x="3903.5" y="-91" font-family="Helvetica,sans-Serif" font-size="10.00">/TopTagger.cpp</text>
</a>
</g>
</g>
<!-- Node1&#45;&gt;Node44 -->
<g id="edge43" class="edge"><title>Node1&#45;&gt;Node44</title>
<path fill="none" stroke="midnightblue" d="M3903.5,-145.911C3903.5,-135.722 3903.5,-123.401 3903.5,-114.089"/>
<polygon fill="midnightblue" stroke="midnightblue" points="3900,-146.234 3903.5,-156.234 3907,-146.234 3900,-146.234"/>
</g>
<!-- Node45 -->
<g id="node45" class="node"><title>Node45</title>
<g id="a_node45"><a xlink:href="TopTaggerFixedR_8cpp.html" target="_top" xlink:title="external/hep/source\l/TopTaggerFixedR.cpp">
<polygon fill="white" stroke="black" points="3972.5,-84 3972.5,-114 4088.5,-114 4088.5,-84 3972.5,-84"/>
<text text-anchor="start" x="3980.5" y="-102" font-family="Helvetica,sans-Serif" font-size="10.00">external/hep/source</text>
<text text-anchor="middle" x="4030.5" y="-91" font-family="Helvetica,sans-Serif" font-size="10.00">/TopTaggerFixedR.cpp</text>
</a>
</g>
</g>
<!-- Node1&#45;&gt;Node45 -->
<g id="edge44" class="edge"><title>Node1&#45;&gt;Node45</title>
<path fill="none" stroke="midnightblue" d="M3929.5,-151.694C3950.86,-140.761 3981.05,-125.31 4002.85,-114.152"/>
<polygon fill="midnightblue" stroke="midnightblue" points="3927.67,-148.697 3920.36,-156.369 3930.86,-154.928 3927.67,-148.697"/>
</g>
<!-- Node46 -->
<g id="node46" class="node"><title>Node46</title>
<g id="a_node46"><a xlink:href="MuXboostedBTagging_8hh.html" target="_top" xlink:title="external/mubtag/mubtag\l/MuXboostedBTagging.hh">
<polygon fill="white" stroke="red" points="4107,-84 4107,-114 4236,-114 4236,-84 4107,-84"/>
<text text-anchor="start" x="4115" y="-102" font-family="Helvetica,sans-Serif" font-size="10.00">external/mubtag/mubtag</text>
<text text-anchor="middle" x="4171.5" y="-91" font-family="Helvetica,sans-Serif" font-size="10.00">/MuXboostedBTagging.hh</text>
</a>
</g>
</g>
<!-- Node1&#45;&gt;Node46 -->
<g id="edge45" class="edge"><title>Node1&#45;&gt;Node46</title>
<path fill="none" stroke="midnightblue" d="M3952.1,-154.237C3991.41,-145.409 4048.14,-132.39 4097.5,-120 4104.99,-118.121 4112.88,-116.066 4120.61,-114.013"/>
<polygon fill="midnightblue" stroke="midnightblue" points="3951.24,-150.843 3942.25,-156.444 3952.77,-157.673 3951.24,-150.843"/>
</g>
<!-- Node47 -->
<g id="node47" class="node"><title>Node47</title>
<g id="a_node47"><a xlink:href="Mt2_8hh.html" target="_top" xlink:title="external/wimpmass/wimpmass\l/Mt2.hh">
<polygon fill="white" stroke="red" points="4254.5,-84 4254.5,-114 4406.5,-114 4406.5,-84 4254.5,-84"/>
<text text-anchor="start" x="4262.5" y="-102" font-family="Helvetica,sans-Serif" font-size="10.00">external/wimpmass/wimpmass</text>
<text text-anchor="middle" x="4330.5" y="-91" font-family="Helvetica,sans-Serif" font-size="10.00">/Mt2.hh</text>
</a>
</g>
</g>
<!-- Node1&#45;&gt;Node47 -->
<g id="edge46" class="edge"><title>Node1&#45;&gt;Node47</title>
<path fill="none" stroke="midnightblue" d="M3962.89,-159.014C4031.32,-151.693 4147.02,-138.017 4245.5,-120 4254.89,-118.281 4264.81,-116.197 4274.43,-114.032"/>
<polygon fill="midnightblue" stroke="midnightblue" points="3962.31,-155.556 3952.73,-160.091 3963.04,-162.517 3962.31,-155.556"/>
</g>
<!-- Node48 -->
<g id="node48" class="node"><title>Node48</title>
<g id="a_node48"><a xlink:href="ClusterSequence_8cpp.html" target="_top" xlink:title="source/fastjet/ClusterSequence.cpp">
<polygon fill="white" stroke="black" points="4425,-89.5 4425,-108.5 4598,-108.5 4598,-89.5 4425,-89.5"/>
<text text-anchor="middle" x="4511.5" y="-96.5" font-family="Helvetica,sans-Serif" font-size="10.00">source/fastjet/ClusterSequence.cpp</text>
</a>
</g>
</g>
<!-- Node1&#45;&gt;Node48 -->
<g id="edge47" class="edge"><title>Node1&#45;&gt;Node48</title>
<path fill="none" stroke="midnightblue" d="M3962.85,-162.057C4058.53,-156.804 4252.61,-144.041 4415.5,-120 4435.54,-117.042 4457.69,-112.512 4475.67,-108.512"/>
<polygon fill="midnightblue" stroke="midnightblue" points="3962.59,-158.566 3952.79,-162.602 3962.97,-165.556 3962.59,-158.566"/>
</g>
<!-- Node49 -->
<g id="node49" class="node"><title>Node49</title>
<g id="a_node49"><a xlink:href="NSubJettiness_8cpp.html" target="_top" xlink:title="source/fastjet/NSubJettiness.cpp">
<polygon fill="white" stroke="black" points="4616.5,-89.5 4616.5,-108.5 4778.5,-108.5 4778.5,-89.5 4616.5,-89.5"/>
<text text-anchor="middle" x="4697.5" y="-96.5" font-family="Helvetica,sans-Serif" font-size="10.00">source/fastjet/NSubJettiness.cpp</text>
</a>
</g>
</g>
<!-- Node1&#45;&gt;Node49 -->
<g id="edge48" class="edge"><title>Node1&#45;&gt;Node49</title>
<path fill="none" stroke="midnightblue" d="M3963.06,-164.298C4084.74,-162.18 4370.39,-153.716 4607.5,-120 4626.67,-117.273 4647.83,-112.656 4664.81,-108.545"/>
<polygon fill="midnightblue" stroke="midnightblue" points="3962.78,-160.802 3952.84,-164.467 3962.9,-167.801 3962.78,-160.802"/>
</g>
<!-- Node50 -->
<g id="node50" class="node"><title>Node50</title>
<g id="a_node50"><a xlink:href="Jet_8cpp.html" target="_top" xlink:title="source/multiplets/Jet.cpp">
<polygon fill="white" stroke="black" points="4796.5,-89.5 4796.5,-108.5 4922.5,-108.5 4922.5,-89.5 4796.5,-89.5"/>
<text text-anchor="middle" x="4859.5" y="-96.5" font-family="Helvetica,sans-Serif" font-size="10.00">source/multiplets/Jet.cpp</text>
</a>
</g>
</g>
<!-- Node1&#45;&gt;Node50 -->
<g id="edge49" class="edge"><title>Node1&#45;&gt;Node50</title>
<path fill="none" stroke="midnightblue" d="M3962.64,-163.686C4133.87,-159.614 4627.98,-145.891 4787.5,-120 4803.25,-117.443 4820.49,-112.727 4834.15,-108.516"/>
<polygon fill="midnightblue" stroke="midnightblue" points="3962.47,-160.189 3952.55,-163.924 3962.63,-167.187 3962.47,-160.189"/>
</g>
<!-- Node3 -->
<g id="node3" class="node"><title>Node3</title>
<g id="a_node3"><a xlink:href="Delphes_8hh.html" target="_top" xlink:title="boca/event/Delphes.hh">
<polygon fill="white" stroke="red" points="0,-11.5 0,-30.5 117,-30.5 117,-11.5 0,-11.5"/>
<text text-anchor="middle" x="58.5" y="-18.5" font-family="Helvetica,sans-Serif" font-size="10.00">boca/event/Delphes.hh</text>
</a>
</g>
</g>
<!-- Node2&#45;&gt;Node3 -->
<g id="edge2" class="edge"><title>Node2&#45;&gt;Node3</title>
<path fill="none" stroke="midnightblue" d="M2945.83,-97.7806C2548.18,-96.2756 413.483,-86.1769 126.5,-42 111.297,-39.6597 94.7283,-34.8365 81.7522,-30.5131"/>
<polygon fill="midnightblue" stroke="midnightblue" points="2945.98,-101.281 2955.99,-97.8186 2946.01,-94.2812 2945.98,-101.281"/>
</g>
<!-- Node4 -->
<g id="node4" class="node"><title>Node4</title>
<g id="a_node4"><a xlink:href="ExRoot_8hh.html" target="_top" xlink:title="boca/event/ExRoot.hh">
<polygon fill="white" stroke="red" points="135.5,-11.5 135.5,-30.5 249.5,-30.5 249.5,-11.5 135.5,-11.5"/>
<text text-anchor="middle" x="192.5" y="-18.5" font-family="Helvetica,sans-Serif" font-size="10.00">boca/event/ExRoot.hh</text>
</a>
</g>
</g>
<!-- Node2&#45;&gt;Node4 -->
<g id="edge3" class="edge"><title>Node2&#45;&gt;Node4</title>
<path fill="none" stroke="midnightblue" d="M2945.69,-97.7471C2558.49,-96.0734 531.429,-85.2876 258.5,-42 243.719,-39.6556 227.637,-34.8323 215.048,-30.5098"/>
<polygon fill="midnightblue" stroke="midnightblue" points="2945.85,-101.248 2955.87,-97.7906 2945.88,-94.2478 2945.85,-101.248"/>
</g>
<!-- Node5 -->
<g id="node5" class="node"><title>Node5</title>
<g id="a_node5"><a xlink:href="Reader_8hh.html" target="_top" xlink:title="boca/multivariant/Reader.hh">
<polygon fill="white" stroke="red" points="268,-11.5 268,-30.5 407,-30.5 407,-11.5 268,-11.5"/>
<text text-anchor="middle" x="337.5" y="-18.5" font-family="Helvetica,sans-Serif" font-size="10.00">boca/multivariant/Reader.hh</text>
</a>
</g>
</g>
<!-- Node2&#45;&gt;Node5 -->
<g id="edge4" class="edge"><title>Node2&#45;&gt;Node5</title>
<path fill="none" stroke="midnightblue" d="M2945.81,-97.4997C2572.21,-94.4483 672.836,-77.2921 415.5,-42 398.326,-39.6447 379.489,-34.8787 364.629,-30.59"/>
<polygon fill="midnightblue" stroke="midnightblue" points="2945.88,-101 2955.9,-97.5817 2945.93,-94.0004 2945.88,-101"/>
</g>
<!-- Node6 -->
<g id="node6" class="node"><title>Node6</title>
<g id="a_node6"><a xlink:href="boca_2analysis_2Analysis_8hh.html" target="_top" xlink:title="boca/analysis/Analysis.hh">
<polygon fill="white" stroke="red" points="425,-11.5 425,-30.5 556,-30.5 556,-11.5 425,-11.5"/>
<text text-anchor="middle" x="490.5" y="-18.5" font-family="Helvetica,sans-Serif" font-size="10.00">boca/analysis/Analysis.hh</text>
</a>
</g>
</g>
<!-- Node2&#45;&gt;Node6 -->
<g id="edge5" class="edge"><title>Node2&#45;&gt;Node6</title>
<path fill="none" stroke="midnightblue" d="M2945.78,-97.4451C2585.07,-94.1834 806.937,-76.4563 565.5,-42 548.958,-39.6392 530.844,-34.873 516.563,-30.5856"/>
<polygon fill="midnightblue" stroke="midnightblue" points="2945.75,-100.945 2955.78,-97.5352 2945.82,-93.9452 2945.75,-100.945"/>
</g>
<!-- Node7 -->
<g id="node7" class="node"><title>Node7</title>
<g id="a_node7"><a xlink:href="tagger_2ChargedHiggsSemi_8cpp.html" target="_top" xlink:title="examples/heavyhiggs\l/source/tagger/ChargedHiggs\lSemi.cpp">
<polygon fill="white" stroke="black" points="574.5,-0.5 574.5,-41.5 718.5,-41.5 718.5,-0.5 574.5,-0.5"/>
<text text-anchor="start" x="582.5" y="-29.5" font-family="Helvetica,sans-Serif" font-size="10.00">examples/heavyhiggs</text>
<text text-anchor="start" x="582.5" y="-18.5" font-family="Helvetica,sans-Serif" font-size="10.00">/source/tagger/ChargedHiggs</text>
<text text-anchor="middle" x="646.5" y="-7.5" font-family="Helvetica,sans-Serif" font-size="10.00">Semi.cpp</text>
</a>
</g>
</g>
<!-- Node2&#45;&gt;Node7 -->
<g id="edge6" class="edge"><title>Node2&#45;&gt;Node7</title>
<path fill="none" stroke="midnightblue" d="M2945.59,-98.3079C2623.21,-99.5749 1173.38,-101.792 727.5,-42 724.629,-41.615 721.712,-41.168 718.774,-40.6712"/>
<polygon fill="midnightblue" stroke="midnightblue" points="2945.71,-101.808 2955.69,-98.267 2945.68,-94.8076 2945.71,-101.808"/>
</g>
<!-- Node8 -->
<g id="node8" class="node"><title>Node8</title>
<g id="a_node8"><a xlink:href="examples_2heavyhiggs_2source_2tagger_2Cut_8cpp.html" target="_top" xlink:title="examples/heavyhiggs\l/source/tagger/Cut.cpp">
<polygon fill="white" stroke="black" points="736.5,-6 736.5,-36 852.5,-36 852.5,-6 736.5,-6"/>
<text text-anchor="start" x="744.5" y="-24" font-family="Helvetica,sans-Serif" font-size="10.00">examples/heavyhiggs</text>
<text text-anchor="middle" x="794.5" y="-13" font-family="Helvetica,sans-Serif" font-size="10.00">/source/tagger/Cut.cpp</text>
</a>
</g>
</g>
<!-- Node2&#45;&gt;Node8 -->
<g id="edge7" class="edge"><title>Node2&#45;&gt;Node8</title>
<path fill="none" stroke="midnightblue" d="M2945.4,-97.3363C2610.74,-93.736 1071.45,-75.4671 861.5,-42 852.869,-40.6241 843.793,-38.4402 835.205,-36.0115"/>
<polygon fill="midnightblue" stroke="midnightblue" points="2945.84,-100.841 2955.87,-97.4484 2945.91,-93.8414 2945.84,-100.841"/>
</g>
<!-- Node9 -->
<g id="node9" class="node"><title>Node9</title>
<g id="a_node9"><a xlink:href="tagger_2EventCharged_8cpp.html" target="_top" xlink:title="examples/heavyhiggs\l/source/tagger/EventCharged.cpp">
<polygon fill="white" stroke="black" points="871,-6 871,-36 1034,-36 1034,-6 871,-6"/>
<text text-anchor="start" x="879" y="-24" font-family="Helvetica,sans-Serif" font-size="10.00">examples/heavyhiggs</text>
<text text-anchor="middle" x="952.5" y="-13" font-family="Helvetica,sans-Serif" font-size="10.00">/source/tagger/EventCharged.cpp</text>
</a>
</g>
</g>
<!-- Node2&#45;&gt;Node9 -->
<g id="edge8" class="edge"><title>Node2&#45;&gt;Node9</title>
<path fill="none" stroke="midnightblue" d="M2945.6,-97.815C2651.17,-96.712 1423.41,-89.3089 1042.5,-42 1031.22,-40.5993 1019.28,-38.4372 1007.9,-36.0437"/>
<polygon fill="midnightblue" stroke="midnightblue" points="2945.66,-101.315 2955.68,-97.8516 2945.69,-94.3152 2945.66,-101.315"/>
</g>
<!-- Node10 -->
<g id="node10" class="node"><title>Node10</title>
<g id="a_node10"><a xlink:href="tagger_2EventFusion_8cpp.html" target="_top" xlink:title="examples/heavyhiggs\l/source/tagger/EventFusion.cpp">
<polygon fill="white" stroke="black" points="1052,-6 1052,-36 1207,-36 1207,-6 1052,-6"/>
<text text-anchor="start" x="1060" y="-24" font-family="Helvetica,sans-Serif" font-size="10.00">examples/heavyhiggs</text>
<text text-anchor="middle" x="1129.5" y="-13" font-family="Helvetica,sans-Serif" font-size="10.00">/source/tagger/EventFusion.cpp</text>
</a>
</g>
</g>
<!-- Node2&#45;&gt;Node10 -->
<g id="edge9" class="edge"><title>Node2&#45;&gt;Node10</title>
<path fill="none" stroke="midnightblue" d="M2945.46,-97.6711C2667.12,-95.9846 1561.09,-86.5566 1216.5,-42 1205.59,-40.5889 1194.04,-38.4222 1183.04,-36.0274"/>
<polygon fill="midnightblue" stroke="midnightblue" points="2945.76,-101.173 2955.78,-97.7324 2945.8,-94.173 2945.76,-101.173"/>
</g>
<!-- Node11 -->
<g id="node11" class="node"><title>Node11</title>
<g id="a_node11"><a xlink:href="tagger_2EventNeutral_8cpp.html" target="_top" xlink:title="examples/heavyhiggs\l/source/tagger/EventNeutral.cpp">
<polygon fill="white" stroke="black" points="1225.5,-6 1225.5,-36 1383.5,-36 1383.5,-6 1225.5,-6"/>
<text text-anchor="start" x="1233.5" y="-24" font-family="Helvetica,sans-Serif" font-size="10.00">examples/heavyhiggs</text>
<text text-anchor="middle" x="1304.5" y="-13" font-family="Helvetica,sans-Serif" font-size="10.00">/source/tagger/EventNeutral.cpp</text>
</a>
</g>
</g>
<!-- Node2&#45;&gt;Node11 -->
<g id="edge10" class="edge"><title>Node2&#45;&gt;Node11</title>
<path fill="none" stroke="midnightblue" d="M2945.83,-97.4012C2685.45,-94.7044 1700.89,-82.0195 1392.5,-42 1381.62,-40.5886 1370.12,-38.4538 1359.14,-36.0966"/>
<polygon fill="midnightblue" stroke="midnightblue" points="2945.84,-100.901 2955.87,-97.504 2945.91,-93.9018 2945.84,-100.901"/>
</g>
<!-- Node12 -->
<g id="node12" class="node"><title>Node12</title>
<g id="a_node12"><a xlink:href="tagger_2EventNeutralFourTop_8cpp.html" target="_top" xlink:title="examples/heavyhiggs\l/source/tagger/EventNeutral\lFourTop.cpp">
<polygon fill="white" stroke="black" points="1402,-0.5 1402,-41.5 1541,-41.5 1541,-0.5 1402,-0.5"/>
<text text-anchor="start" x="1410" y="-29.5" font-family="Helvetica,sans-Serif" font-size="10.00">examples/heavyhiggs</text>
<text text-anchor="start" x="1410" y="-18.5" font-family="Helvetica,sans-Serif" font-size="10.00">/source/tagger/EventNeutral</text>
<text text-anchor="middle" x="1471.5" y="-7.5" font-family="Helvetica,sans-Serif" font-size="10.00">FourTop.cpp</text>
</a>
</g>
</g>
<!-- Node2&#45;&gt;Node12 -->
<g id="edge11" class="edge"><title>Node2&#45;&gt;Node12</title>
<path fill="none" stroke="midnightblue" d="M2945.63,-97.356C2701.19,-94.6111 1824.95,-82.1294 1549.5,-42 1546.73,-41.5969 1543.92,-41.1348 1541.09,-40.6252"/>
<polygon fill="midnightblue" stroke="midnightblue" points="2945.73,-100.857 2955.77,-97.4683 2945.81,-93.8577 2945.73,-100.857"/>
</g>
<!-- Node13 -->
<g id="node13" class="node"><title>Node13</title>
<g id="a_node13"><a xlink:href="tagger_2HeavyHiggsLeptonic_8cpp.html" target="_top" xlink:title="examples/heavyhiggs\l/source/tagger/HeavyHiggsLeptonic.cpp">
<polygon fill="white" stroke="black" points="1559,-6 1559,-36 1750,-36 1750,-6 1559,-6"/>
<text text-anchor="start" x="1567" y="-24" font-family="Helvetica,sans-Serif" font-size="10.00">examples/heavyhiggs</text>
<text text-anchor="middle" x="1654.5" y="-13" font-family="Helvetica,sans-Serif" font-size="10.00">/source/tagger/HeavyHiggsLeptonic.cpp</text>
</a>
</g>
</g>
<!-- Node2&#45;&gt;Node13 -->
<g id="edge12" class="edge"><title>Node2&#45;&gt;Node13</title>
<path fill="none" stroke="midnightblue" d="M2945.87,-98.406C2761.48,-98.8835 2211.18,-95.3722 1758.5,-42 1745.9,-40.5145 1732.54,-38.3768 1719.74,-36.0465"/>
<polygon fill="midnightblue" stroke="midnightblue" points="2945.94,-101.906 2955.93,-98.3749 2945.92,-94.9059 2945.94,-101.906"/>
</g>
<!-- Node14 -->
<g id="node14" class="node"><title>Node14</title>
<g id="a_node14"><a xlink:href="tagger_2HeavyHiggsSemi_8cpp.html" target="_top" xlink:title="examples/heavyhiggs\l/source/tagger/HeavyHiggsSemi.cpp">
<polygon fill="white" stroke="black" points="1768,-6 1768,-36 1945,-36 1945,-6 1768,-6"/>
<text text-anchor="start" x="1776" y="-24" font-family="Helvetica,sans-Serif" font-size="10.00">examples/heavyhiggs</text>
<text text-anchor="middle" x="1856.5" y="-13" font-family="Helvetica,sans-Serif" font-size="10.00">/source/tagger/HeavyHiggsSemi.cpp</text>
</a>
</g>
</g>
<!-- Node2&#45;&gt;Node14 -->
<g id="edge13" class="edge"><title>Node2&#45;&gt;Node14</title>
<path fill="none" stroke="midnightblue" d="M2945.5,-97.9482C2780.46,-97.0922 2327.22,-90.1591 1953.5,-42 1941.82,-40.4946 1929.44,-38.3629 1917.58,-36.0478"/>
<polygon fill="midnightblue" stroke="midnightblue" points="2945.93,-101.45 2955.95,-97.9962 2945.97,-94.4502 2945.93,-101.45"/>
</g>
<!-- Node15 -->
<g id="node15" class="node"><title>Node15</title>
<g id="a_node15"><a xlink:href="tagger_2HeavyHiggsTau_8cpp.html" target="_top" xlink:title="examples/heavyhiggs\l/source/tagger/HeavyHiggsTau.cpp">
<polygon fill="white" stroke="black" points="1963,-6 1963,-36 2134,-36 2134,-6 1963,-6"/>
<text text-anchor="start" x="1971" y="-24" font-family="Helvetica,sans-Serif" font-size="10.00">examples/heavyhiggs</text>
<text text-anchor="middle" x="2048.5" y="-13" font-family="Helvetica,sans-Serif" font-size="10.00">/source/tagger/HeavyHiggsTau.cpp</text>
</a>
</g>
</g>
<!-- Node2&#45;&gt;Node15 -->
<g id="edge14" class="edge"><title>Node2&#45;&gt;Node15</title>
<path fill="none" stroke="midnightblue" d="M2945.55,-97.0401C2801.52,-94.1863 2440.97,-83.1693 2142.5,-42 2131.26,-40.4497 2119.36,-38.3119 2107.94,-36.008"/>
<polygon fill="midnightblue" stroke="midnightblue" points="2945.89,-100.547 2955.95,-97.2393 2946.02,-93.5484 2945.89,-100.547"/>
</g>
<!-- Node16 -->
<g id="node16" class="node"><title>Node16</title>
<g id="a_node16"><a xlink:href="tagger_2JetPair_8cpp.html" target="_top" xlink:title="examples/heavyhiggs\l/source/tagger/JetPair.cpp">
<polygon fill="white" stroke="black" points="2152,-6 2152,-36 2283,-36 2283,-6 2152,-6"/>
<text text-anchor="start" x="2160" y="-24" font-family="Helvetica,sans-Serif" font-size="10.00">examples/heavyhiggs</text>
<text text-anchor="middle" x="2217.5" y="-13" font-family="Helvetica,sans-Serif" font-size="10.00">/source/tagger/JetPair.cpp</text>
</a>
</g>
</g>
<!-- Node2&#45;&gt;Node16 -->
<g id="edge15" class="edge"><title>Node2&#45;&gt;Node16</title>
<path fill="none" stroke="midnightblue" d="M2945.7,-96.9979C2819.75,-94.1463 2530.58,-83.2618 2291.5,-42 2282.58,-40.4609 2273.18,-38.3284 2264.18,-36.0262"/>
<polygon fill="midnightblue" stroke="midnightblue" points="2945.86,-100.502 2955.94,-97.2199 2946.01,-93.5037 2945.86,-100.502"/>
</g>
<!-- Node17 -->
<g id="node17" class="node"><title>Node17</title>
<g id="a_node17"><a xlink:href="SignatureCharged_8cpp.html" target="_top" xlink:title="examples/heavyhiggs\l/source/tagger/SignatureCharged.cpp">
<polygon fill="white" stroke="black" points="2301,-6 2301,-36 2480,-36 2480,-6 2301,-6"/>
<text text-anchor="start" x="2309" y="-24" font-family="Helvetica,sans-Serif" font-size="10.00">examples/heavyhiggs</text>
<text text-anchor="middle" x="2390.5" y="-13" font-family="Helvetica,sans-Serif" font-size="10.00">/source/tagger/SignatureCharged.cpp</text>
</a>
</g>
</g>
<!-- Node2&#45;&gt;Node17 -->
<g id="edge16" class="edge"><title>Node2&#45;&gt;Node17</title>
<path fill="none" stroke="midnightblue" d="M2945.56,-93.0814C2847.05,-85.0631 2652.37,-67.4708 2488.5,-42 2477.6,-40.3065 2466.08,-38.2226 2454.92,-36.0461"/>
<polygon fill="midnightblue" stroke="midnightblue" points="2945.41,-96.58 2955.66,-93.8966 2945.97,-89.6027 2945.41,-96.58"/>
</g>
<!-- Node18 -->
<g id="node18" class="node"><title>Node18</title>
<g id="a_node18"><a xlink:href="SignatureNeutral_8cpp.html" target="_top" xlink:title="examples/heavyhiggs\l/source/tagger/SignatureNeutral.cpp">
<polygon fill="white" stroke="black" points="2498,-6 2498,-36 2671,-36 2671,-6 2498,-6"/>
<text text-anchor="start" x="2506" y="-24" font-family="Helvetica,sans-Serif" font-size="10.00">examples/heavyhiggs</text>
<text text-anchor="middle" x="2584.5" y="-13" font-family="Helvetica,sans-Serif" font-size="10.00">/source/tagger/SignatureNeutral.cpp</text>
</a>
</g>
</g>
<!-- Node2&#45;&gt;Node18 -->
<g id="edge17" class="edge"><title>Node2&#45;&gt;Node18</title>
<path fill="none" stroke="midnightblue" d="M2945.94,-87.8922C2879.58,-77.1739 2772.55,-59.4173 2680.5,-42 2670.71,-40.1485 2660.39,-38.0988 2650.28,-36.0381"/>
<polygon fill="midnightblue" stroke="midnightblue" points="2945.4,-91.3503 2955.83,-89.4862 2946.51,-84.4395 2945.4,-91.3503"/>
</g>
<!-- Node19 -->
<g id="node19" class="node"><title>Node19</title>
<g id="a_node19"><a xlink:href="tagger_2TripletJetPair_8cpp.html" target="_top" xlink:title="examples/heavyhiggs\l/source/tagger/TripletJetPair.cpp">
<polygon fill="white" stroke="black" points="2689.5,-6 2689.5,-36 2847.5,-36 2847.5,-6 2689.5,-6"/>
<text text-anchor="start" x="2697.5" y="-24" font-family="Helvetica,sans-Serif" font-size="10.00">examples/heavyhiggs</text>
<text text-anchor="middle" x="2768.5" y="-13" font-family="Helvetica,sans-Serif" font-size="10.00">/source/tagger/TripletJetPair.cpp</text>
</a>
</g>
</g>
<!-- Node2&#45;&gt;Node19 -->
<g id="edge18" class="edge"><title>Node2&#45;&gt;Node19</title>
<path fill="none" stroke="midnightblue" d="M2972.58,-86.3565C2929.72,-72.8408 2859.06,-50.5588 2813.15,-36.0815"/>
<polygon fill="midnightblue" stroke="midnightblue" points="2971.73,-89.7599 2982.32,-89.4296 2973.84,-83.084 2971.73,-89.7599"/>
</g>
<!-- Node20 -->
<g id="node20" class="node"><title>Node20</title>
<g id="a_node20"><a xlink:href="examples_2higgscpv_2source_2tagger_2Signature_8cpp.html" target="_top" xlink:title="examples/higgscpv/source\l/tagger/Signature.cpp">
<polygon fill="white" stroke="black" points="2866,-6 2866,-36 2999,-36 2999,-6 2866,-6"/>
<text text-anchor="start" x="2874" y="-24" font-family="Helvetica,sans-Serif" font-size="10.00">examples/higgscpv/source</text>
<text text-anchor="middle" x="2932.5" y="-13" font-family="Helvetica,sans-Serif" font-size="10.00">/tagger/Signature.cpp</text>
</a>
</g>
</g>
<!-- Node2&#45;&gt;Node20 -->
<g id="edge19" class="edge"><title>Node2&#45;&gt;Node20</title>
<path fill="none" stroke="midnightblue" d="M2993.31,-82.0238C2979.52,-68.411 2959.9,-49.0398 2946.7,-36.0198"/>
<polygon fill="midnightblue" stroke="midnightblue" points="2991.09,-84.7481 3000.67,-89.2818 2996.01,-79.7661 2991.09,-84.7481"/>
</g>
<!-- Node21 -->
<g id="node21" class="node"><title>Node21</title>
<g id="a_node21"><a xlink:href="tagger_2SignatureLepton_8cpp.html" target="_top" xlink:title="examples/higgscpv/source\l/tagger/SignatureLepton.cpp">
<polygon fill="white" stroke="black" points="3017,-6 3017,-36 3156,-36 3156,-6 3017,-6"/>
<text text-anchor="start" x="3025" y="-24" font-family="Helvetica,sans-Serif" font-size="10.00">examples/higgscpv/source</text>
<text text-anchor="middle" x="3086.5" y="-13" font-family="Helvetica,sans-Serif" font-size="10.00">/tagger/SignatureLepton.cpp</text>
</a>
</g>
</g>
<!-- Node2&#45;&gt;Node21 -->
<g id="edge20" class="edge"><title>Node2&#45;&gt;Node21</title>
<path fill="none" stroke="midnightblue" d="M3025.69,-82.0238C3039.48,-68.411 3059.1,-49.0398 3072.3,-36.0198"/>
<polygon fill="midnightblue" stroke="midnightblue" points="3022.99,-79.7661 3018.33,-89.2818 3027.91,-84.7481 3022.99,-79.7661"/>
</g>
<!-- Node22 -->
<g id="node22" class="node"><title>Node22</title>
<g id="a_node22"><a xlink:href="tagger_2SignatureLeptonT_8cpp.html" target="_top" xlink:title="examples/higgscpv/source\l/tagger/SignatureLeptonT.cpp">
<polygon fill="white" stroke="black" points="3174,-6 3174,-36 3319,-36 3319,-6 3174,-6"/>
<text text-anchor="start" x="3182" y="-24" font-family="Helvetica,sans-Serif" font-size="10.00">examples/higgscpv/source</text>
<text text-anchor="middle" x="3246.5" y="-13" font-family="Helvetica,sans-Serif" font-size="10.00">/tagger/SignatureLeptonT.cpp</text>
</a>
</g>
</g>
<!-- Node2&#45;&gt;Node22 -->
<g id="edge21" class="edge"><title>Node2&#45;&gt;Node22</title>
<path fill="none" stroke="midnightblue" d="M3045.81,-86.3565C3087.96,-72.8408 3157.44,-50.5588 3202.59,-36.0815"/>
<polygon fill="midnightblue" stroke="midnightblue" points="3044.68,-83.0431 3036.23,-89.4296 3046.82,-89.7087 3044.68,-83.0431"/>
</g>
<!-- Node23 -->
<g id="node23" class="node"><title>Node23</title>
<g id="a_node23"><a xlink:href="tagger_2SignatureT_8cpp.html" target="_top" xlink:title="examples/higgscpv/source\l/tagger/SignatureT.cpp">
<polygon fill="white" stroke="black" points="3337,-6 3337,-36 3470,-36 3470,-6 3337,-6"/>
<text text-anchor="start" x="3345" y="-24" font-family="Helvetica,sans-Serif" font-size="10.00">examples/higgscpv/source</text>
<text text-anchor="middle" x="3403.5" y="-13" font-family="Helvetica,sans-Serif" font-size="10.00">/tagger/SignatureT.cpp</text>
</a>
</g>
</g>
<!-- Node2&#45;&gt;Node23 -->
<g id="edge22" class="edge"><title>Node2&#45;&gt;Node23</title>
<path fill="none" stroke="midnightblue" d="M3042.7,-86.3136C3052.23,-83.2723 3062.7,-80.228 3072.5,-78 3184.54,-52.5278 3215.9,-64.8441 3328.5,-42 3336.82,-40.312 3345.59,-38.2436 3354.08,-36.0843"/>
<polygon fill="midnightblue" stroke="midnightblue" points="3041.58,-82.998 3033.17,-89.4475 3043.77,-89.6475 3041.58,-82.998"/>
</g>
<!-- Node24 -->
<g id="node24" class="node"><title>Node24</title>
<g id="a_node24"><a xlink:href="TopLeptonicPair_8cpp.html" target="_top" xlink:title="examples/higgscpv/source\l/tagger/TopLeptonicPair.cpp">
<polygon fill="white" stroke="black" points="3488,-6 3488,-36 3627,-36 3627,-6 3488,-6"/>
<text text-anchor="start" x="3496" y="-24" font-family="Helvetica,sans-Serif" font-size="10.00">examples/higgscpv/source</text>
<text text-anchor="middle" x="3557.5" y="-13" font-family="Helvetica,sans-Serif" font-size="10.00">/tagger/TopLeptonicPair.cpp</text>
</a>
</g>
</g>
<!-- Node2&#45;&gt;Node24 -->
<g id="edge23" class="edge"><title>Node2&#45;&gt;Node24</title>
<path fill="none" stroke="midnightblue" d="M3041.9,-86.2175C3051.63,-83.0908 3062.4,-80.0253 3072.5,-78 3250.55,-42.3125 3300.51,-72.6533 3479.5,-42 3488.73,-40.4189 3498.47,-38.2955 3507.83,-36.022"/>
<polygon fill="midnightblue" stroke="midnightblue" points="3040.6,-82.9648 3032.22,-89.457 3042.82,-89.603 3040.6,-82.9648"/>
</g>
<!-- Node25 -->
<g id="node25" class="node"><title>Node25</title>
<g id="a_node25"><a xlink:href="TopSemiPair_8cpp.html" target="_top" xlink:title="examples/higgscpv/source\l/tagger/TopSemiPair.cpp">
<polygon fill="white" stroke="black" points="3645,-6 3645,-36 3778,-36 3778,-6 3645,-6"/>
<text text-anchor="start" x="3653" y="-24" font-family="Helvetica,sans-Serif" font-size="10.00">examples/higgscpv/source</text>
<text text-anchor="middle" x="3711.5" y="-13" font-family="Helvetica,sans-Serif" font-size="10.00">/tagger/TopSemiPair.cpp</text>
</a>
</g>
</g>
<!-- Node2&#45;&gt;Node25 -->
<g id="edge24" class="edge"><title>Node2&#45;&gt;Node25</title>
<path fill="none" stroke="midnightblue" d="M3041.63,-86.1386C3051.42,-82.9802 3062.29,-79.9171 3072.5,-78 3319.36,-31.6561 3388.62,-82.5557 3636.5,-42 3645.68,-40.4987 3655.35,-38.3537 3664.6,-36.0211"/>
<polygon fill="midnightblue" stroke="midnightblue" points="3040.26,-82.9081 3031.9,-89.4206 3042.5,-89.541 3040.26,-82.9081"/>
</g>
<!-- Node26 -->
<g id="node26" class="node"><title>Node26</title>
<g id="a_node26"><a xlink:href="examples_2simple_2simple_2Observables_8hh.html" target="_top" xlink:title="examples/simple/simple\l/Observables.hh">
<polygon fill="white" stroke="red" points="3796.5,-6 3796.5,-36 3918.5,-36 3918.5,-6 3796.5,-6"/>
<text text-anchor="start" x="3804.5" y="-24" font-family="Helvetica,sans-Serif" font-size="10.00">examples/simple/simple</text>
<text text-anchor="middle" x="3857.5" y="-13" font-family="Helvetica,sans-Serif" font-size="10.00">/Observables.hh</text>
</a>
</g>
</g>
<!-- Node2&#45;&gt;Node26 -->
<g id="edge25" class="edge"><title>Node2&#45;&gt;Node26</title>
<path fill="none" stroke="midnightblue" d="M3041.07,-86.2311C3050.99,-83.0063 3062.08,-79.8833 3072.5,-78 3385.6,-21.3956 3473.6,-94.0432 3787.5,-42 3796.23,-40.5529 3805.42,-38.4018 3814.16,-36.0399"/>
<polygon fill="midnightblue" stroke="midnightblue" points="3039.94,-82.9172 3031.6,-89.4476 3042.19,-89.5452 3039.94,-82.9172"/>
</g>
<!-- Node27 -->
<g id="node27" class="node"><title>Node27</title>
<g id="a_node27"><a xlink:href="Boson_8cpp.html" target="_top" xlink:title="examples/standardmodel\l/source/tagger/Boson.cpp">
<polygon fill="white" stroke="black" points="3936.5,-6 3936.5,-36 4064.5,-36 4064.5,-6 3936.5,-6"/>
<text text-anchor="start" x="3944.5" y="-24" font-family="Helvetica,sans-Serif" font-size="10.00">examples/standardmodel</text>
<text text-anchor="middle" x="4000.5" y="-13" font-family="Helvetica,sans-Serif" font-size="10.00">/source/tagger/Boson.cpp</text>
</a>
</g>
</g>
<!-- Node2&#45;&gt;Node27 -->
<g id="edge26" class="edge"><title>Node2&#45;&gt;Node27</title>
<path fill="none" stroke="midnightblue" d="M3041.06,-86.1785C3050.98,-82.9515 3062.08,-79.8404 3072.5,-78 3447.04,-11.8781 3551.71,-100.621 3927.5,-42 3936.59,-40.5823 3946.16,-38.4445 3955.28,-36.0864"/>
<polygon fill="midnightblue" stroke="midnightblue" points="3039.93,-82.8656 3031.59,-89.4014 3042.18,-89.4922 3039.93,-82.8656"/>
</g>
<!-- Node28 -->
<g id="node28" class="node"><title>Node28</title>
<g id="a_node28"><a xlink:href="tagger_2Bottom_8cpp.html" target="_top" xlink:title="examples/standardmodel\l/source/tagger/Bottom.cpp">
<polygon fill="white" stroke="black" points="4082.5,-6 4082.5,-36 4214.5,-36 4214.5,-6 4082.5,-6"/>
<text text-anchor="start" x="4090.5" y="-24" font-family="Helvetica,sans-Serif" font-size="10.00">examples/standardmodel</text>
<text text-anchor="middle" x="4148.5" y="-13" font-family="Helvetica,sans-Serif" font-size="10.00">/source/tagger/Bottom.cpp</text>
</a>
</g>
</g>
<!-- Node2&#45;&gt;Node28 -->
<g id="edge27" class="edge"><title>Node2&#45;&gt;Node28</title>
<path fill="none" stroke="midnightblue" d="M3040.81,-86.218C3050.8,-82.9611 3061.98,-79.8231 3072.5,-78 3511.13,-1.95005 3633.21,-107.767 4073.5,-42 4082.96,-40.5865 4092.95,-38.4187 4102.43,-36.0237"/>
<polygon fill="midnightblue" stroke="midnightblue" points="3039.62,-82.9242 3031.29,-89.4703 3041.89,-89.548 3039.62,-82.9242"/>
</g>
<!-- Node29 -->
<g id="node29" class="node"><title>Node29</title>
<g id="a_node29"><a xlink:href="examples_2standardmodel_2source_2tagger_2Global_8cpp.html" target="_top" xlink:title="examples/standardmodel\l/source/tagger/Global.cpp">
<polygon fill="white" stroke="black" points="4232.5,-6 4232.5,-36 4360.5,-36 4360.5,-6 4232.5,-6"/>
<text text-anchor="start" x="4240.5" y="-24" font-family="Helvetica,sans-Serif" font-size="10.00">examples/standardmodel</text>
<text text-anchor="middle" x="4296.5" y="-13" font-family="Helvetica,sans-Serif" font-size="10.00">/source/tagger/Global.cpp</text>
</a>
</g>
</g>
<!-- Node2&#45;&gt;Node29 -->
<g id="edge28" class="edge"><title>Node2&#45;&gt;Node29</title>
<path fill="none" stroke="midnightblue" d="M3040.8,-86.1881C3050.79,-82.9298 3061.98,-79.7985 3072.5,-78 3576.99,8.25162 3717.39,-118.149 4223.5,-42 4232.73,-40.6119 4242.45,-38.4553 4251.69,-36.0634"/>
<polygon fill="midnightblue" stroke="midnightblue" points="3039.62,-82.8949 3031.29,-89.4441 3041.88,-89.5178 3039.62,-82.8949"/>
</g>
<!-- Node30 -->
<g id="node30" class="node"><title>Node30</title>
<g id="a_node30"><a xlink:href="standardmodel_2source_2tagger_2Higgs_8cpp.html" target="_top" xlink:title="examples/standardmodel\l/source/tagger/Higgs.cpp">
<polygon fill="white" stroke="black" points="4378.5,-6 4378.5,-36 4504.5,-36 4504.5,-6 4378.5,-6"/>
<text text-anchor="start" x="4386.5" y="-24" font-family="Helvetica,sans-Serif" font-size="10.00">examples/standardmodel</text>
<text text-anchor="middle" x="4441.5" y="-13" font-family="Helvetica,sans-Serif" font-size="10.00">/source/tagger/Higgs.cpp</text>
</a>
</g>
</g>
<!-- Node2&#45;&gt;Node30 -->
<g id="edge29" class="edge"><title>Node2&#45;&gt;Node30</title>
<path fill="none" stroke="midnightblue" d="M3040.8,-86.1656C3050.79,-82.9062 3061.98,-79.78 3072.5,-78 3641.09,18.1823 3799.25,-127.804 4369.5,-42 4378.61,-40.6295 4388.2,-38.4807 4397.31,-36.0909"/>
<polygon fill="midnightblue" stroke="midnightblue" points="3039.61,-82.8728 3031.29,-89.4244 3041.88,-89.4951 3039.61,-82.8728"/>
</g>
<!-- Node31 -->
<g id="node31" class="node"><title>Node31</title>
<g id="a_node31"><a xlink:href="tagger_2Tau_8cpp.html" target="_top" xlink:title="examples/standardmodel\l/source/tagger/Tau.cpp">
<polygon fill="white" stroke="black" points="4523,-6 4523,-36 4648,-36 4648,-6 4523,-6"/>
<text text-anchor="start" x="4531" y="-24" font-family="Helvetica,sans-Serif" font-size="10.00">examples/standardmodel</text>
<text text-anchor="middle" x="4585.5" y="-13" font-family="Helvetica,sans-Serif" font-size="10.00">/source/tagger/Tau.cpp</text>
</a>
</g>
</g>
<!-- Node2&#45;&gt;Node31 -->
<g id="edge30" class="edge"><title>Node2&#45;&gt;Node31</title>
<path fill="none" stroke="midnightblue" d="M3040.8,-86.1478C3050.78,-82.8876 3061.97,-79.7654 3072.5,-78 3388.41,-25.0112 4196.68,-89.2228 4513.5,-42 4522.74,-40.623 4532.48,-38.4385 4541.7,-36.0097"/>
<polygon fill="midnightblue" stroke="midnightblue" points="3039.61,-82.8555 3031.28,-89.4089 3041.88,-89.4773 3039.61,-82.8555"/>
</g>
<!-- Node32 -->
<g id="node32" class="node"><title>Node32</title>
<g id="a_node32"><a xlink:href="tagger_2TopHadronic_8cpp.html" target="_top" xlink:title="examples/standardmodel\l/source/tagger/TopHadronic.cpp">
<polygon fill="white" stroke="black" points="4666.5,-6 4666.5,-36 4822.5,-36 4822.5,-6 4666.5,-6"/>
<text text-anchor="start" x="4674.5" y="-24" font-family="Helvetica,sans-Serif" font-size="10.00">examples/standardmodel</text>
<text text-anchor="middle" x="4744.5" y="-13" font-family="Helvetica,sans-Serif" font-size="10.00">/source/tagger/TopHadronic.cpp</text>
</a>
</g>
</g>
<!-- Node2&#45;&gt;Node32 -->
<g id="edge31" class="edge"><title>Node2&#45;&gt;Node32</title>
<path fill="none" stroke="midnightblue" d="M3040.55,-86.2122C3050.6,-82.9228 3061.89,-79.7676 3072.5,-78 3420.02,-20.1133 4307.91,-85.6918 4657.5,-42 4668.42,-40.6354 4679.97,-38.4893 4690.97,-36.1002"/>
<polygon fill="midnightblue" stroke="midnightblue" points="3039.31,-82.9384 3030.99,-89.5 3041.59,-89.5579 3039.31,-82.9384"/>
</g>
<!-- Node33 -->
<g id="node33" class="node"><title>Node33</title>
<g id="a_node33"><a xlink:href="tagger_2TopHadronicHep_8cpp.html" target="_top" xlink:title="examples/standardmodel\l/source/tagger/TopHadronicHep.cpp">
<polygon fill="white" stroke="black" points="4840.5,-6 4840.5,-36 5014.5,-36 5014.5,-6 4840.5,-6"/>
<text text-anchor="start" x="4848.5" y="-24" font-family="Helvetica,sans-Serif" font-size="10.00">examples/standardmodel</text>
<text text-anchor="middle" x="4927.5" y="-13" font-family="Helvetica,sans-Serif" font-size="10.00">/source/tagger/TopHadronicHep.cpp</text>
</a>
</g>
</g>
<!-- Node2&#45;&gt;Node33 -->
<g id="edge32" class="edge"><title>Node2&#45;&gt;Node33</title>
<path fill="none" stroke="midnightblue" d="M3040.55,-86.1979C3050.6,-82.9077 3061.89,-79.7557 3072.5,-78 3458.23,-14.1947 4443.02,-86.0583 4831.5,-42 4843.68,-40.6187 4856.6,-38.4323 4868.89,-36.003"/>
<polygon fill="midnightblue" stroke="midnightblue" points="3039.31,-82.9243 3030.99,-89.4875 3041.58,-89.5435 3039.31,-82.9243"/>
</g>
<!-- Node34 -->
<g id="node34" class="node"><title>Node34</title>
<g id="a_node34"><a xlink:href="TopHadronicHep2_8cpp.html" target="_top" xlink:title="examples/standardmodel\l/source/tagger/TopHadronicHep2.cpp">
<polygon fill="white" stroke="black" points="5033,-6 5033,-36 5212,-36 5212,-6 5033,-6"/>
<text text-anchor="start" x="5041" y="-24" font-family="Helvetica,sans-Serif" font-size="10.00">examples/standardmodel</text>
<text text-anchor="middle" x="5122.5" y="-13" font-family="Helvetica,sans-Serif" font-size="10.00">/source/tagger/TopHadronicHep2.cpp</text>
</a>
</g>
</g>
<!-- Node2&#45;&gt;Node34 -->
<g id="edge33" class="edge"><title>Node2&#45;&gt;Node34</title>
<path fill="none" stroke="midnightblue" d="M3040.55,-86.185C3050.59,-82.8942 3061.88,-79.745 3072.5,-78 3500.39,-7.66362 4592.44,-89.1262 5023.5,-42 5036.05,-40.6279 5049.37,-38.4456 5062.04,-36.0174"/>
<polygon fill="midnightblue" stroke="midnightblue" points="3039.3,-82.9118 3030.99,-89.4763 3041.58,-89.5305 3039.3,-82.9118"/>
</g>
<!-- Node35 -->
<g id="node35" class="node"><title>Node35</title>
<g id="a_node35"><a xlink:href="tagger_2TopLeptonic_8cpp.html" target="_top" xlink:title="examples/standardmodel\l/source/tagger/TopLeptonic.cpp">
<polygon fill="white" stroke="black" points="5230.5,-6 5230.5,-36 5384.5,-36 5384.5,-6 5230.5,-6"/>
<text text-anchor="start" x="5238.5" y="-24" font-family="Helvetica,sans-Serif" font-size="10.00">examples/standardmodel</text>
<text text-anchor="middle" x="5307.5" y="-13" font-family="Helvetica,sans-Serif" font-size="10.00">/source/tagger/TopLeptonic.cpp</text>
</a>
</g>
</g>
<!-- Node2&#45;&gt;Node35 -->
<g id="edge34" class="edge"><title>Node2&#45;&gt;Node35</title>
<path fill="none" stroke="midnightblue" d="M3040.55,-86.1741C3050.59,-82.8827 3061.88,-79.736 3072.5,-78 3543.86,-0.928286 4747.46,-100.421 5221.5,-42 5232.45,-40.65 5244.05,-38.4774 5255.06,-36.0516"/>
<polygon fill="midnightblue" stroke="midnightblue" points="3039.3,-82.9011 3030.99,-89.4668 3041.58,-89.5196 3039.3,-82.9011"/>
</g>
<!-- Node36 -->
<g id="node36" class="node"><title>Node36</title>
<g id="a_node36"><a xlink:href="standardmodel_2source_2tagger_2Truth_8cpp.html" target="_top" xlink:title="examples/standardmodel\l/source/tagger/Truth.cpp">
<polygon fill="white" stroke="black" points="5403,-6 5403,-36 5528,-36 5528,-6 5403,-6"/>
<text text-anchor="start" x="5411" y="-24" font-family="Helvetica,sans-Serif" font-size="10.00">examples/standardmodel</text>
<text text-anchor="middle" x="5465.5" y="-13" font-family="Helvetica,sans-Serif" font-size="10.00">/source/tagger/Truth.cpp</text>
</a>
</g>
</g>
<!-- Node2&#45;&gt;Node36 -->
<g id="edge35" class="edge"><title>Node2&#45;&gt;Node36</title>
<path fill="none" stroke="midnightblue" d="M3040.55,-86.1662C3050.59,-82.8744 3061.88,-79.7294 3072.5,-78 3581.63,4.92273 4882.94,-115.63 5393.5,-42 5402.75,-40.6667 5412.49,-38.5014 5421.71,-36.0775"/>
<polygon fill="midnightblue" stroke="midnightblue" points="3039.3,-82.8934 3030.99,-89.4599 3041.58,-89.5116 3039.3,-82.8934"/>
</g>
<!-- Node37 -->
<g id="node37" class="node"><title>Node37</title>
<g id="a_node37"><a xlink:href="tagger_2WHadronic_8cpp.html" target="_top" xlink:title="examples/standardmodel\l/source/tagger/WHadronic.cpp">
<polygon fill="white" stroke="black" points="5546,-6 5546,-36 5695,-36 5695,-6 5546,-6"/>
<text text-anchor="start" x="5554" y="-24" font-family="Helvetica,sans-Serif" font-size="10.00">examples/standardmodel</text>
<text text-anchor="middle" x="5620.5" y="-13" font-family="Helvetica,sans-Serif" font-size="10.00">/source/tagger/WHadronic.cpp</text>
</a>
</g>
</g>
<!-- Node2&#45;&gt;Node37 -->
<g id="edge36" class="edge"><title>Node2&#45;&gt;Node37</title>
<path fill="none" stroke="midnightblue" d="M3040.54,-86.1604C3050.59,-82.8683 3061.88,-79.7246 3072.5,-78 3613.25,9.82132 4993.97,-110.589 5537.5,-42 5548.09,-40.6639 5559.29,-38.4973 5569.91,-36.0731"/>
<polygon fill="midnightblue" stroke="midnightblue" points="3039.3,-82.8877 3030.98,-89.4549 3041.58,-89.5058 3039.3,-82.8877"/>
</g>
<!-- Node38 -->
<g id="node38" class="node"><title>Node38</title>
<g id="a_node38"><a xlink:href="tagger_2WLeptonic_8cpp.html" target="_top" xlink:title="examples/standardmodel\l/source/tagger/WLeptonic.cpp">
<polygon fill="white" stroke="black" points="5713,-6 5713,-36 5860,-36 5860,-6 5713,-6"/>
<text text-anchor="start" x="5721" y="-24" font-family="Helvetica,sans-Serif" font-size="10.00">examples/standardmodel</text>
<text text-anchor="middle" x="5786.5" y="-13" font-family="Helvetica,sans-Serif" font-size="10.00">/source/tagger/WLeptonic.cpp</text>
</a>
</g>
</g>
<!-- Node2&#45;&gt;Node38 -->
<g id="edge37" class="edge"><title>Node2&#45;&gt;Node38</title>
<path fill="none" stroke="midnightblue" d="M3040.54,-86.1544C3050.59,-82.862 3061.88,-79.7197 3072.5,-78 3649.92,15.5024 5124.23,-115.772 5704.5,-42 5714.97,-40.6694 5726.03,-38.5052 5736.53,-36.0816"/>
<polygon fill="midnightblue" stroke="midnightblue" points="3039.3,-82.8819 3030.98,-89.4497 3041.58,-89.4998 3039.3,-82.8819"/>
</g>
</g>
</svg>
