<?xml version="1.0" encoding="UTF-8" standalone="no"?>
<!DOCTYPE svg PUBLIC "-//W3C//DTD SVG 1.1//EN"
 "http://www.w3.org/Graphics/SVG/1.1/DTD/svg11.dtd">
<!-- Generated by graphviz version 2.38.0 (20140413.2041)
 -->
<!-- Title: source/multiplets/JetInfo.cpp Pages: 1 -->
<svg width="2189pt" height="397pt"
 viewBox="0.00 0.00 2188.50 397.00" xmlns="http://www.w3.org/2000/svg" xmlns:xlink="http://www.w3.org/1999/xlink">
<g id="graph0" class="graph" transform="scale(1 1) rotate(0) translate(4 393)">
<title>source/multiplets/JetInfo.cpp</title>
<polygon fill="white" stroke="none" points="-4,4 -4,-393 2184.5,-393 2184.5,4 -4,4"/>
<!-- Node1 -->
<g id="node1" class="node"><title>Node1</title>
<polygon fill="#bfbfbf" stroke="black" points="1003.5,-369.5 1003.5,-388.5 1146.5,-388.5 1146.5,-369.5 1003.5,-369.5"/>
<text text-anchor="middle" x="1075" y="-376.5" font-family="Helvetica,sans-Serif" font-size="10.00">source/multiplets/JetInfo.cpp</text>
</g>
<!-- Node2 -->
<g id="node2" class="node"><title>Node2</title>
<polygon fill="white" stroke="#bfbfbf" points="326,-302.5 326,-332.5 436,-332.5 436,-302.5 326,-302.5"/>
<text text-anchor="start" x="334" y="-320.5" font-family="Helvetica,sans-Serif" font-size="10.00">boost/range/algorithm</text>
<text text-anchor="middle" x="381" y="-309.5" font-family="Helvetica,sans-Serif" font-size="10.00">/max_element.hpp</text>
</g>
<!-- Node1&#45;&gt;Node2 -->
<g id="edge1" class="edge"><title>Node1&#45;&gt;Node2</title>
<path fill="none" stroke="midnightblue" d="M1003.28,-376.409C887.853,-373.07 653.644,-363.093 446.227,-333.024"/>
<polygon fill="midnightblue" stroke="midnightblue" points="446.461,-329.521 436.058,-331.531 445.443,-336.447 446.461,-329.521"/>
</g>
<!-- Node3 -->
<g id="node3" class="node"><title>Node3</title>
<polygon fill="white" stroke="#bfbfbf" points="454,-308 454,-327 578,-327 578,-308 454,-308"/>
<text text-anchor="middle" x="516" y="-315" font-family="Helvetica,sans-Serif" font-size="10.00">boost/range/numeric.hpp</text>
</g>
<!-- Node1&#45;&gt;Node3 -->
<g id="edge2" class="edge"><title>Node1&#45;&gt;Node3</title>
<path fill="none" stroke="midnightblue" d="M1003.15,-373.46C908.574,-366.993 737.298,-353.581 592,-333 583.868,-331.848 575.286,-330.419 566.932,-328.912"/>
<polygon fill="midnightblue" stroke="midnightblue" points="567.372,-325.434 556.901,-327.047 566.092,-332.316 567.372,-325.434"/>
</g>
<!-- Node4 -->
<g id="node4" class="node"><title>Node4</title>
<polygon fill="white" stroke="#bfbfbf" points="0,-235.5 0,-265.5 110,-265.5 110,-235.5 0,-235.5"/>
<text text-anchor="start" x="8" y="-253.5" font-family="Helvetica,sans-Serif" font-size="10.00">boost/range/algorithm</text>
<text text-anchor="middle" x="55" y="-242.5" font-family="Helvetica,sans-Serif" font-size="10.00">_ext/erase.hpp</text>
</g>
<!-- Node1&#45;&gt;Node4 -->
<g id="edge3" class="edge"><title>Node1&#45;&gt;Node4</title>
<path fill="none" stroke="midnightblue" d="M1003.19,-375.838C893.917,-371.708 691.573,-360.52 625,-333 604.857,-324.674 607.237,-310.095 587,-302 492.991,-264.394 237.696,-280.542 120.305,-265.921"/>
<polygon fill="midnightblue" stroke="midnightblue" points="120.445,-262.408 110.061,-264.511 119.49,-269.342 120.445,-262.408"/>
</g>
<!-- Node5 -->
<g id="node5" class="node"><title>Node5</title>
<g id="a_node5"><a xlink:href="Vector_8hh.html" target="_top" xlink:title="boca/generic/Vector.hh">
<polygon fill="white" stroke="black" points="634.5,-308 634.5,-327 751.5,-327 751.5,-308 634.5,-308"/>
<text text-anchor="middle" x="693" y="-315" font-family="Helvetica,sans-Serif" font-size="10.00">boca/generic/Vector.hh</text>
</a>
</g>
</g>
<!-- Node1&#45;&gt;Node5 -->
<g id="edge4" class="edge"><title>Node1&#45;&gt;Node5</title>
<path fill="none" stroke="midnightblue" d="M1020.27,-369.475C950.913,-358.672 831.537,-340.078 757.732,-328.583"/>
<polygon fill="midnightblue" stroke="midnightblue" points="758.049,-325.09 747.63,-327.009 756.972,-332.007 758.049,-325.09"/>
</g>
<!-- Node15 -->
<g id="node15" class="node"><title>Node15</title>
<g id="a_node15"><a xlink:href="Math_8hh.html" target="_top" xlink:title="boca/math/Math.hh">
<polygon fill="white" stroke="black" points="874.5,-123.5 874.5,-142.5 975.5,-142.5 975.5,-123.5 874.5,-123.5"/>
<text text-anchor="middle" x="925" y="-130.5" font-family="Helvetica,sans-Serif" font-size="10.00">boca/math/Math.hh</text>
</a>
</g>
</g>
<!-- Node1&#45;&gt;Node15 -->
<g id="edge25" class="edge"><title>Node1&#45;&gt;Node15</title>
<path fill="none" stroke="midnightblue" d="M1069.9,-369.194C1064.8,-360.236 1056.9,-345.877 1051,-333 1031.53,-290.536 1037.15,-274.988 1013,-235 992.801,-201.555 961.215,-168.509 941.886,-149.743"/>
<polygon fill="midnightblue" stroke="midnightblue" points="944.071,-146.99 934.422,-142.614 939.236,-152.052 944.071,-146.99"/>
</g>
<!-- Node22 -->
<g id="node22" class="node"><title>Node22</title>
<g id="a_node22"><a xlink:href="Types_8hh.html" target="_top" xlink:title="boca/generic/Types.hh">
<polygon fill="white" stroke="black" points="1060,-308 1060,-327 1176,-327 1176,-308 1060,-308"/>
<text text-anchor="middle" x="1118" y="-315" font-family="Helvetica,sans-Serif" font-size="10.00">boca/generic/Types.hh</text>
</a>
</g>
</g>
<!-- Node1&#45;&gt;Node22 -->
<g id="edge22" class="edge"><title>Node1&#45;&gt;Node22</title>
<path fill="none" stroke="midnightblue" d="M1081.16,-369.475C1087.61,-360.55 1097.9,-346.307 1105.97,-335.143"/>
<polygon fill="midnightblue" stroke="midnightblue" points="1108.83,-337.164 1111.85,-327.009 1103.16,-333.064 1108.83,-337.164"/>
</g>
<!-- Node24 -->
<g id="node24" class="node"><title>Node24</title>
<g id="a_node24"><a xlink:href="JetInfo_8hh.html" target="_top" xlink:title="boca/multiplets/JetInfo.hh">
<polygon fill="white" stroke="black" points="1646.5,-179.5 1646.5,-198.5 1775.5,-198.5 1775.5,-179.5 1646.5,-179.5"/>
<text text-anchor="middle" x="1711" y="-186.5" font-family="Helvetica,sans-Serif" font-size="10.00">boca/multiplets/JetInfo.hh</text>
</a>
</g>
</g>
<!-- Node1&#45;&gt;Node24 -->
<g id="edge26" class="edge"><title>Node1&#45;&gt;Node24</title>
<path fill="none" stroke="midnightblue" d="M1146.77,-375.698C1231.81,-371.755 1377.3,-361.171 1499,-333 1583.79,-313.373 1621.34,-327.423 1683,-266 1698.53,-250.532 1705.53,-225.728 1708.63,-208.689"/>
<polygon fill="midnightblue" stroke="midnightblue" points="1712.09,-209.206 1710.15,-198.79 1705.17,-208.141 1712.09,-209.206"/>
</g>
<!-- Node32 -->
<g id="node32" class="node"><title>Node32</title>
<g id="a_node32"><a xlink:href="Singlet_8hh.html" target="_top" xlink:title="boca/multiplets/Singlet.hh">
<polygon fill="white" stroke="black" points="1361.5,-308 1361.5,-327 1490.5,-327 1490.5,-308 1361.5,-308"/>
<text text-anchor="middle" x="1426" y="-315" font-family="Helvetica,sans-Serif" font-size="10.00">boca/multiplets/Singlet.hh</text>
</a>
</g>
</g>
<!-- Node1&#45;&gt;Node32 -->
<g id="edge36" class="edge"><title>Node1&#45;&gt;Node32</title>
<path fill="none" stroke="midnightblue" d="M1125.29,-369.475C1188.76,-358.716 1297.81,-340.23 1365.69,-328.724"/>
<polygon fill="midnightblue" stroke="midnightblue" points="1366.53,-332.131 1375.8,-327.009 1365.36,-325.23 1366.53,-332.131"/>
</g>
<!-- Node42 -->
<g id="node42" class="node"><title>Node42</title>
<g id="a_node42"><a xlink:href="delphes_2Classes_8hh.html" target="_top" xlink:title="boca/delphes/Classes.hh">
<polygon fill="white" stroke="black" points="1827.5,-308 1827.5,-327 1954.5,-327 1954.5,-308 1827.5,-308"/>
<text text-anchor="middle" x="1891" y="-315" font-family="Helvetica,sans-Serif" font-size="10.00">boca/delphes/Classes.hh</text>
</a>
</g>
</g>
<!-- Node1&#45;&gt;Node42 -->
<g id="edge52" class="edge"><title>Node1&#45;&gt;Node42</title>
<path fill="none" stroke="midnightblue" d="M1146.72,-373.369C1265.97,-365.588 1512.52,-349.152 1721,-333 1752.44,-330.564 1787.12,-327.647 1816.92,-325.07"/>
<polygon fill="midnightblue" stroke="midnightblue" points="1817.58,-328.526 1827.24,-324.174 1816.98,-321.552 1817.58,-328.526"/>
</g>
<!-- Node50 -->
<g id="node50" class="node"><title>Node50</title>
<g id="a_node50"><a xlink:href="DEBUG__MACROS_8hh.html" target="_top" xlink:title="boca/generic/DEBUG\l_MACROS.hh">
<polygon fill="white" stroke="black" points="1194.5,-302.5 1194.5,-332.5 1305.5,-332.5 1305.5,-302.5 1194.5,-302.5"/>
<text text-anchor="start" x="1202.5" y="-320.5" font-family="Helvetica,sans-Serif" font-size="10.00">boca/generic/DEBUG</text>
<text text-anchor="middle" x="1250" y="-309.5" font-family="Helvetica,sans-Serif" font-size="10.00">_MACROS.hh</text>
</a>
</g>
</g>
<!-- Node1&#45;&gt;Node50 -->
<g id="edge63" class="edge"><title>Node1&#45;&gt;Node50</title>
<path fill="none" stroke="midnightblue" d="M1100.07,-369.475C1125.77,-360.739 1166.45,-346.907 1198.96,-335.855"/>
<polygon fill="midnightblue" stroke="midnightblue" points="1200.41,-339.056 1208.76,-332.523 1198.16,-332.428 1200.41,-339.056"/>
</g>
<!-- Node5&#45;&gt;Node4 -->
<g id="edge5" class="edge"><title>Node5&#45;&gt;Node4</title>
<path fill="none" stroke="midnightblue" d="M654.885,-307.999C643.693,-305.756 631.397,-303.535 620,-302 401.999,-272.633 341.586,-297.991 120.047,-265.995"/>
<polygon fill="midnightblue" stroke="midnightblue" points="120.46,-262.518 110.058,-264.529 119.444,-269.444 120.46,-262.518"/>
</g>
<!-- Node6 -->
<g id="node6" class="node"><title>Node6</title>
<polygon fill="white" stroke="#bfbfbf" points="274,-235.5 274,-265.5 384,-265.5 384,-235.5 274,-235.5"/>
<text text-anchor="start" x="282" y="-253.5" font-family="Helvetica,sans-Serif" font-size="10.00">boost/range/algorithm</text>
<text text-anchor="middle" x="329" y="-242.5" font-family="Helvetica,sans-Serif" font-size="10.00">/find.hpp</text>
</g>
<!-- Node5&#45;&gt;Node6 -->
<g id="edge6" class="edge"><title>Node5&#45;&gt;Node6</title>
<path fill="none" stroke="midnightblue" d="M651.36,-307.939C641.121,-305.914 630.176,-303.817 620,-302 522.583,-284.607 495.016,-285.237 394.109,-266.138"/>
<polygon fill="midnightblue" stroke="midnightblue" points="394.589,-262.666 384.11,-264.227 393.275,-269.542 394.589,-262.666"/>
</g>
<!-- Node7 -->
<g id="node7" class="node"><title>Node7</title>
<polygon fill="white" stroke="#bfbfbf" points="510,-235.5 510,-265.5 620,-265.5 620,-235.5 510,-235.5"/>
<text text-anchor="start" x="518" y="-253.5" font-family="Helvetica,sans-Serif" font-size="10.00">boost/range/algorithm</text>
<text text-anchor="middle" x="565" y="-242.5" font-family="Helvetica,sans-Serif" font-size="10.00">/min_element.hpp</text>
</g>
<!-- Node5&#45;&gt;Node7 -->
<g id="edge7" class="edge"><title>Node5&#45;&gt;Node7</title>
<path fill="none" stroke="midnightblue" d="M676.003,-307.869C657.189,-298.315 626.297,-282.627 601.873,-270.225"/>
<polygon fill="midnightblue" stroke="midnightblue" points="603.369,-267.059 592.868,-265.652 600.199,-273.3 603.369,-267.059"/>
</g>
<!-- Node8 -->
<g id="node8" class="node"><title>Node8</title>
<polygon fill="white" stroke="#bfbfbf" points="638,-235.5 638,-265.5 748,-265.5 748,-235.5 638,-235.5"/>
<text text-anchor="start" x="646" y="-253.5" font-family="Helvetica,sans-Serif" font-size="10.00">boost/range/algorithm</text>
<text text-anchor="middle" x="693" y="-242.5" font-family="Helvetica,sans-Serif" font-size="10.00">/copy.hpp</text>
</g>
<!-- Node5&#45;&gt;Node8 -->
<g id="edge8" class="edge"><title>Node5&#45;&gt;Node8</title>
<path fill="none" stroke="midnightblue" d="M693,-307.734C693,-299.541 693,-286.923 693,-275.714"/>
<polygon fill="midnightblue" stroke="midnightblue" points="696.5,-275.589 693,-265.589 689.5,-275.589 696.5,-275.589"/>
</g>
<!-- Node9 -->
<g id="node9" class="node"><title>Node9</title>
<polygon fill="white" stroke="#bfbfbf" points="766,-235.5 766,-265.5 876,-265.5 876,-235.5 766,-235.5"/>
<text text-anchor="start" x="774" y="-253.5" font-family="Helvetica,sans-Serif" font-size="10.00">boost/range/algorithm</text>
<text text-anchor="middle" x="821" y="-242.5" font-family="Helvetica,sans-Serif" font-size="10.00">_ext/push_back.hpp</text>
</g>
<!-- Node5&#45;&gt;Node9 -->
<g id="edge9" class="edge"><title>Node5&#45;&gt;Node9</title>
<path fill="none" stroke="midnightblue" d="M709.997,-307.869C728.811,-298.315 759.703,-282.627 784.127,-270.225"/>
<polygon fill="midnightblue" stroke="midnightblue" points="785.801,-273.3 793.132,-265.652 782.631,-267.059 785.801,-273.3"/>
</g>
<!-- Node10 -->
<g id="node10" class="node"><title>Node10</title>
<polygon fill="white" stroke="#bfbfbf" points="894,-235.5 894,-265.5 1004,-265.5 1004,-235.5 894,-235.5"/>
<text text-anchor="start" x="902" y="-253.5" font-family="Helvetica,sans-Serif" font-size="10.00">boost/range/algorithm</text>
<text text-anchor="middle" x="949" y="-242.5" font-family="Helvetica,sans-Serif" font-size="10.00">/transform.hpp</text>
</g>
<!-- Node5&#45;&gt;Node10 -->
<g id="edge10" class="edge"><title>Node5&#45;&gt;Node10</title>
<path fill="none" stroke="midnightblue" d="M726.731,-307.936C766.571,-297.82 833.753,-280.762 883.85,-268.042"/>
<polygon fill="midnightblue" stroke="midnightblue" points="884.797,-271.413 893.629,-265.559 883.075,-264.628 884.797,-271.413"/>
</g>
<!-- Node11 -->
<g id="node11" class="node"><title>Node11</title>
<polygon fill="white" stroke="#bfbfbf" points="128.5,-241 128.5,-260 255.5,-260 255.5,-241 128.5,-241"/>
<text text-anchor="middle" x="192" y="-248" font-family="Helvetica,sans-Serif" font-size="10.00">boost/range/adaptors.hpp</text>
</g>
<!-- Node5&#45;&gt;Node11 -->
<g id="edge11" class="edge"><title>Node5&#45;&gt;Node11</title>
<path fill="none" stroke="midnightblue" d="M653.719,-307.986C642.834,-305.821 630.99,-303.645 620,-302 463.16,-278.525 421.84,-289.475 265,-266 257.273,-264.843 249.123,-263.424 241.182,-261.931"/>
<polygon fill="midnightblue" stroke="midnightblue" points="241.764,-258.479 231.281,-260.014 240.434,-265.351 241.764,-258.479"/>
</g>
<!-- Node12 -->
<g id="node12" class="node"><title>Node12</title>
<g id="a_node12"><a xlink:href="Settings_8hh.html" target="_top" xlink:title="boca/Settings.hh">
<polygon fill="white" stroke="black" points="402,-241 402,-260 492,-260 492,-241 402,-241"/>
<text text-anchor="middle" x="447" y="-248" font-family="Helvetica,sans-Serif" font-size="10.00">boca/Settings.hh</text>
</a>
</g>
</g>
<!-- Node5&#45;&gt;Node12 -->
<g id="edge12" class="edge"><title>Node5&#45;&gt;Node12</title>
<path fill="none" stroke="midnightblue" d="M660.373,-307.973C622.161,-297.974 556.962,-280.873 501,-266 496.937,-264.92 492.703,-263.791 488.472,-262.659"/>
<polygon fill="midnightblue" stroke="midnightblue" points="489.253,-259.245 478.688,-260.038 487.441,-266.007 489.253,-259.245"/>
</g>
<!-- Node13 -->
<g id="node13" class="node"><title>Node13</title>
<g id="a_node13"><a xlink:href="InfoRecombiner_8hh.html" target="_top" xlink:title="boca/fastjet/InfoRecombiner.hh">
<polygon fill="white" stroke="red" points="695.5,-179.5 695.5,-198.5 848.5,-198.5 848.5,-179.5 695.5,-179.5"/>
<text text-anchor="middle" x="772" y="-186.5" font-family="Helvetica,sans-Serif" font-size="10.00">boca/fastjet/InfoRecombiner.hh</text>
</a>
</g>
</g>
<!-- Node12&#45;&gt;Node13 -->
<g id="edge13" class="edge"><title>Node12&#45;&gt;Node13</title>
<path fill="none" stroke="midnightblue" d="M476.582,-240.998C484.478,-238.882 493.031,-236.727 501,-235 568.026,-220.473 645.26,-208.067 700.086,-199.983"/>
<polygon fill="midnightblue" stroke="midnightblue" points="700.667,-203.436 710.055,-198.525 699.654,-196.51 700.667,-203.436"/>
</g>
<!-- Node14 -->
<g id="node14" class="node"><title>Node14</title>
<g id="a_node14"><a xlink:href="Range_8hh.html" target="_top" xlink:title="boca/physics/Range.hh">
<polygon fill="white" stroke="red" points="431.5,-179.5 431.5,-198.5 550.5,-198.5 550.5,-179.5 431.5,-179.5"/>
<text text-anchor="middle" x="491" y="-186.5" font-family="Helvetica,sans-Serif" font-size="10.00">boca/physics/Range.hh</text>
</a>
</g>
</g>
<!-- Node12&#45;&gt;Node14 -->
<g id="edge14" class="edge"><title>Node12&#45;&gt;Node14</title>
<path fill="none" stroke="midnightblue" d="M453.304,-240.975C459.904,-232.05 470.437,-217.807 478.693,-206.643"/>
<polygon fill="midnightblue" stroke="midnightblue" points="481.576,-208.631 484.708,-198.509 475.948,-204.468 481.576,-208.631"/>
</g>
<!-- Node19 -->
<g id="node19" class="node"><title>Node19</title>
<g id="a_node19"><a xlink:href="Souce_8hh.html" target="_top" xlink:title="boca/io/Souce.hh">
<polygon fill="white" stroke="black" points="424,-123.5 424,-142.5 516,-142.5 516,-123.5 424,-123.5"/>
<text text-anchor="middle" x="470" y="-130.5" font-family="Helvetica,sans-Serif" font-size="10.00">boca/io/Souce.hh</text>
</a>
</g>
</g>
<!-- Node12&#45;&gt;Node19 -->
<g id="edge19" class="edge"><title>Node12&#45;&gt;Node19</title>
<path fill="none" stroke="midnightblue" d="M439.586,-240.67C429.204,-227.171 412.604,-200.687 422,-179 427.268,-166.84 437.62,-156.459 447.365,-148.743"/>
<polygon fill="midnightblue" stroke="midnightblue" points="449.644,-151.412 455.63,-142.67 445.499,-145.771 449.644,-151.412"/>
</g>
<!-- Node21 -->
<g id="node21" class="node"><title>Node21</title>
<g id="a_node21"><a xlink:href="Font_8hh.html" target="_top" xlink:title="boca/plotting/Font.hh">
<polygon fill="white" stroke="red" points="569,-179.5 569,-198.5 677,-198.5 677,-179.5 569,-179.5"/>
<text text-anchor="middle" x="623" y="-186.5" font-family="Helvetica,sans-Serif" font-size="10.00">boca/plotting/Font.hh</text>
</a>
</g>
</g>
<!-- Node12&#45;&gt;Node21 -->
<g id="edge21" class="edge"><title>Node12&#45;&gt;Node21</title>
<path fill="none" stroke="midnightblue" d="M472.217,-240.975C502.668,-230.68 554.049,-213.31 588.243,-201.75"/>
<polygon fill="midnightblue" stroke="midnightblue" points="589.478,-205.027 597.83,-198.509 587.236,-198.396 589.478,-205.027"/>
</g>
<!-- Node14&#45;&gt;Node15 -->
<g id="edge15" class="edge"><title>Node14&#45;&gt;Node15</title>
<path fill="none" stroke="midnightblue" d="M550.836,-180.169C553.935,-179.772 557.004,-179.38 560,-179 666.857,-165.444 791.388,-150.212 863.893,-141.401"/>
<polygon fill="midnightblue" stroke="midnightblue" points="864.7,-144.828 874.205,-140.148 863.856,-137.879 864.7,-144.828"/>
</g>
<!-- Node16 -->
<g id="node16" class="node"><title>Node16</title>
<polygon fill="white" stroke="#bfbfbf" points="998,-62 998,-81 1042,-81 1042,-62 998,-62"/>
<text text-anchor="middle" x="1020" y="-69" font-family="Helvetica,sans-Serif" font-size="10.00">vector</text>
</g>
<!-- Node15&#45;&gt;Node16 -->
<g id="edge16" class="edge"><title>Node15&#45;&gt;Node16</title>
<path fill="none" stroke="midnightblue" d="M938.611,-123.475C954.061,-113.799 979.49,-97.8721 997.816,-86.3941"/>
<polygon fill="midnightblue" stroke="midnightblue" points="999.797,-89.2834 1006.41,-81.0091 996.081,-83.3509 999.797,-89.2834"/>
</g>
<!-- Node17 -->
<g id="node17" class="node"><title>Node17</title>
<polygon fill="white" stroke="#bfbfbf" points="870,-56.5 870,-86.5 980,-86.5 980,-56.5 870,-56.5"/>
<text text-anchor="start" x="878" y="-74.5" font-family="Helvetica,sans-Serif" font-size="10.00">boost/range/algorithm</text>
<text text-anchor="middle" x="925" y="-63.5" font-family="Helvetica,sans-Serif" font-size="10.00">/lower_bound.hpp</text>
</g>
<!-- Node15&#45;&gt;Node17 -->
<g id="edge17" class="edge"><title>Node15&#45;&gt;Node17</title>
<path fill="none" stroke="midnightblue" d="M925,-123.475C925,-116.471 925,-106.192 925,-96.6956"/>
<polygon fill="midnightblue" stroke="midnightblue" points="928.5,-96.5229 925,-86.523 921.5,-96.523 928.5,-96.5229"/>
</g>
<!-- Node18 -->
<g id="node18" class="node"><title>Node18</title>
<polygon fill="white" stroke="#bfbfbf" points="742,-56.5 742,-86.5 852,-86.5 852,-56.5 742,-56.5"/>
<text text-anchor="start" x="750" y="-74.5" font-family="Helvetica,sans-Serif" font-size="10.00">boost/range/algorithm</text>
<text text-anchor="middle" x="797" y="-63.5" font-family="Helvetica,sans-Serif" font-size="10.00">/upper_bound.hpp</text>
</g>
<!-- Node15&#45;&gt;Node18 -->
<g id="edge18" class="edge"><title>Node15&#45;&gt;Node18</title>
<path fill="none" stroke="midnightblue" d="M906.661,-123.475C888.434,-115.002 859.897,-101.737 836.503,-90.8628"/>
<polygon fill="midnightblue" stroke="midnightblue" points="837.711,-87.5644 827.167,-86.523 834.76,-93.9122 837.711,-87.5644"/>
</g>
<!-- Node20 -->
<g id="node20" class="node"><title>Node20</title>
<polygon fill="white" stroke="#bfbfbf" points="1068.5,-0.5 1068.5,-19.5 1109.5,-19.5 1109.5,-0.5 1068.5,-0.5"/>
<text text-anchor="middle" x="1089" y="-7.5" font-family="Helvetica,sans-Serif" font-size="10.00">string</text>
</g>
<!-- Node19&#45;&gt;Node20 -->
<g id="edge20" class="edge"><title>Node19&#45;&gt;Node20</title>
<path fill="none" stroke="midnightblue" d="M494.698,-123.461C540.915,-107.798 643.863,-74.3963 733,-56 851.853,-31.471 995.964,-18.2156 1058.07,-13.28"/>
<polygon fill="midnightblue" stroke="midnightblue" points="1058.65,-16.7456 1068.35,-12.4803 1058.11,-9.76671 1058.65,-16.7456"/>
</g>
<!-- Node22&#45;&gt;Node20 -->
<g id="edge23" class="edge"><title>Node22&#45;&gt;Node20</title>
<path fill="none" stroke="midnightblue" d="M1112.09,-307.936C1105.6,-298.179 1095.27,-281.566 1089,-266 1075.98,-233.707 1070,-224.817 1070,-190 1070,-190 1070,-190 1070,-132 1070,-95.2858 1078.64,-53.0556 1084.27,-29.4499"/>
<polygon fill="midnightblue" stroke="midnightblue" points="1087.67,-30.2793 1086.67,-19.7318 1080.87,-28.6007 1087.67,-30.2793"/>
</g>
<!-- Node23 -->
<g id="node23" class="node"><title>Node23</title>
<polygon fill="white" stroke="#bfbfbf" points="1098,-241 1098,-260 1214,-260 1214,-241 1098,-241"/>
<text text-anchor="middle" x="1156" y="-248" font-family="Helvetica,sans-Serif" font-size="10.00">boost/range/irange.hpp</text>
</g>
<!-- Node22&#45;&gt;Node23 -->
<g id="edge24" class="edge"><title>Node22&#45;&gt;Node23</title>
<path fill="none" stroke="midnightblue" d="M1123.12,-307.734C1128.94,-297.793 1138.56,-281.338 1145.89,-268.789"/>
<polygon fill="midnightblue" stroke="midnightblue" points="1148.93,-270.527 1150.96,-260.127 1142.89,-266.994 1148.93,-270.527"/>
</g>
<!-- Node25 -->
<g id="node25" class="node"><title>Node25</title>
<g id="a_node25"><a xlink:href="PseudoJet_8hh.html" target="_top" xlink:title="fastjet/PseudoJet.hh">
<polygon fill="white" stroke="black" points="1515.5,-123.5 1515.5,-142.5 1622.5,-142.5 1622.5,-123.5 1515.5,-123.5"/>
<text text-anchor="middle" x="1569" y="-130.5" font-family="Helvetica,sans-Serif" font-size="10.00">fastjet/PseudoJet.hh</text>
</a>
</g>
</g>
<!-- Node24&#45;&gt;Node25 -->
<g id="edge27" class="edge"><title>Node24&#45;&gt;Node25</title>
<path fill="none" stroke="midnightblue" d="M1688.5,-179.444C1664.92,-170.478 1627.68,-156.314 1601.04,-146.183"/>
<polygon fill="midnightblue" stroke="midnightblue" points="1601.99,-142.8 1591.4,-142.516 1599.5,-149.342 1601.99,-142.8"/>
</g>
<!-- Node28 -->
<g id="node28" class="node"><title>Node28</title>
<g id="a_node28"><a xlink:href="Constituent_8hh.html" target="_top" xlink:title="boca/Constituent.hh">
<polygon fill="white" stroke="black" points="1659,-123.5 1659,-142.5 1763,-142.5 1763,-123.5 1659,-123.5"/>
<text text-anchor="middle" x="1711" y="-130.5" font-family="Helvetica,sans-Serif" font-size="10.00">boca/Constituent.hh</text>
</a>
</g>
</g>
<!-- Node24&#45;&gt;Node28 -->
<g id="edge31" class="edge"><title>Node24&#45;&gt;Node28</title>
<path fill="none" stroke="midnightblue" d="M1711,-179.083C1711,-172.006 1711,-161.861 1711,-152.986"/>
<polygon fill="midnightblue" stroke="midnightblue" points="1714.5,-152.751 1711,-142.751 1707.5,-152.751 1714.5,-152.751"/>
</g>
<!-- Node30 -->
<g id="node30" class="node"><title>Node30</title>
<g id="a_node30"><a xlink:href="Identification_8hh.html" target="_top" xlink:title="boca/multiplets/Identification.hh">
<polygon fill="white" stroke="black" points="1781.5,-123.5 1781.5,-142.5 1936.5,-142.5 1936.5,-123.5 1781.5,-123.5"/>
<text text-anchor="middle" x="1859" y="-130.5" font-family="Helvetica,sans-Serif" font-size="10.00">boca/multiplets/Identification.hh</text>
</a>
</g>
</g>
<!-- Node24&#45;&gt;Node30 -->
<g id="edge33" class="edge"><title>Node24&#45;&gt;Node30</title>
<path fill="none" stroke="midnightblue" d="M1734.45,-179.444C1759.13,-170.438 1798.19,-156.189 1825.98,-146.049"/>
<polygon fill="midnightblue" stroke="midnightblue" points="1827.46,-149.232 1835.66,-142.516 1825.06,-142.656 1827.46,-149.232"/>
</g>
<!-- Node25&#45;&gt;Node25 -->
<g id="edge29" class="edge"><title>Node25&#45;&gt;Node25</title>
<path fill="none" stroke="midnightblue" d="M1599.49,-142.525C1620.22,-145.308 1640.5,-142.133 1640.5,-133 1640.5,-125.366 1626.33,-121.894 1609.57,-122.586"/>
<polygon fill="midnightblue" stroke="midnightblue" points="1609.15,-119.11 1599.49,-123.475 1609.76,-126.083 1609.15,-119.11"/>
</g>
<!-- Node26 -->
<g id="node26" class="node"><title>Node26</title>
<polygon fill="white" stroke="#bfbfbf" points="1384.5,-62 1384.5,-81 1487.5,-81 1487.5,-62 1384.5,-62"/>
<text text-anchor="middle" x="1436" y="-69" font-family="Helvetica,sans-Serif" font-size="10.00">boost/operators.hpp</text>
</g>
<!-- Node25&#45;&gt;Node26 -->
<g id="edge28" class="edge"><title>Node25&#45;&gt;Node26</title>
<path fill="none" stroke="midnightblue" d="M1549.94,-123.475C1527.53,-113.445 1490.09,-96.7002 1464.29,-85.1546"/>
<polygon fill="midnightblue" stroke="midnightblue" points="1465.58,-81.8979 1455.02,-81.0091 1462.72,-88.2877 1465.58,-81.8979"/>
</g>
<!-- Node27 -->
<g id="node27" class="node"><title>Node27</title>
<g id="a_node27"><a xlink:href="LorentzVector_8hh.html" target="_top" xlink:title="boca/math/LorentzVector.hh">
<polygon fill="white" stroke="red" points="1506,-62 1506,-81 1646,-81 1646,-62 1506,-62"/>
<text text-anchor="middle" x="1576" y="-69" font-family="Helvetica,sans-Serif" font-size="10.00">boca/math/LorentzVector.hh</text>
</a>
</g>
</g>
<!-- Node25&#45;&gt;Node27 -->
<g id="edge30" class="edge"><title>Node25&#45;&gt;Node27</title>
<path fill="none" stroke="midnightblue" d="M1570,-123.475C1570.99,-115.08 1572.53,-101.981 1573.8,-91.1631"/>
<polygon fill="midnightblue" stroke="midnightblue" points="1577.31,-91.3496 1575,-81.0091 1570.35,-90.5316 1577.31,-91.3496"/>
</g>
<!-- Node29 -->
<g id="node29" class="node"><title>Node29</title>
<g id="a_node29"><a xlink:href="Family_8hh.html" target="_top" xlink:title="boca/physics/Family.hh">
<polygon fill="white" stroke="red" points="1664,-62 1664,-81 1784,-81 1784,-62 1664,-62"/>
<text text-anchor="middle" x="1724" y="-69" font-family="Helvetica,sans-Serif" font-size="10.00">boca/physics/Family.hh</text>
</a>
</g>
</g>
<!-- Node28&#45;&gt;Node29 -->
<g id="edge32" class="edge"><title>Node28&#45;&gt;Node29</title>
<path fill="none" stroke="midnightblue" d="M1712.86,-123.475C1714.72,-114.992 1717.62,-101.704 1720,-90.8222"/>
<polygon fill="midnightblue" stroke="midnightblue" points="1723.43,-91.5257 1722.14,-81.0091 1716.59,-90.0315 1723.43,-91.5257"/>
</g>
<!-- Node31 -->
<g id="node31" class="node"><title>Node31</title>
<g id="a_node31"><a xlink:href="Tag_8hh.html" target="_top" xlink:title="boca/Tag.hh">
<polygon fill="white" stroke="black" points="1816.5,-62 1816.5,-81 1887.5,-81 1887.5,-62 1816.5,-62"/>
<text text-anchor="middle" x="1852" y="-69" font-family="Helvetica,sans-Serif" font-size="10.00">boca/Tag.hh</text>
</a>
</g>
</g>
<!-- Node30&#45;&gt;Node31 -->
<g id="edge34" class="edge"><title>Node30&#45;&gt;Node31</title>
<path fill="none" stroke="midnightblue" d="M1858,-123.475C1857.01,-115.08 1855.47,-101.981 1854.2,-91.1631"/>
<polygon fill="midnightblue" stroke="midnightblue" points="1857.65,-90.5316 1853,-81.0091 1850.69,-91.3496 1857.65,-90.5316"/>
</g>
<!-- Node31&#45;&gt;Node20 -->
<g id="edge35" class="edge"><title>Node31&#45;&gt;Node20</title>
<path fill="none" stroke="midnightblue" d="M1821.59,-61.9343C1812.46,-59.6613 1802.38,-57.4412 1793,-56 1534.85,-16.3478 1218.26,-11.5313 1119.74,-11.0283"/>
<polygon fill="midnightblue" stroke="midnightblue" points="1119.6,-7.52788 1109.59,-10.9883 1119.58,-14.5278 1119.6,-7.52788"/>
</g>
<!-- Node33 -->
<g id="node33" class="node"><title>Node33</title>
<g id="a_node33"><a xlink:href="Mutable_8hh.html" target="_top" xlink:title="boca/generic/Mutable.hh">
<polygon fill="white" stroke="black" points="1270.5,-241 1270.5,-260 1393.5,-260 1393.5,-241 1270.5,-241"/>
<text text-anchor="middle" x="1332" y="-248" font-family="Helvetica,sans-Serif" font-size="10.00">boca/generic/Mutable.hh</text>
</a>
</g>
</g>
<!-- Node32&#45;&gt;Node33 -->
<g id="edge37" class="edge"><title>Node32&#45;&gt;Node33</title>
<path fill="none" stroke="midnightblue" d="M1413.32,-307.734C1397.82,-297.013 1371.36,-278.716 1352.84,-265.914"/>
<polygon fill="midnightblue" stroke="midnightblue" points="1354.69,-262.936 1344.48,-260.127 1350.71,-268.694 1354.69,-262.936"/>
</g>
<!-- Node38 -->
<g id="node38" class="node"><title>Node38</title>
<g id="a_node38"><a xlink:href="Line2_8hh.html" target="_top" xlink:title="boca/math/Line2.hh">
<polygon fill="white" stroke="black" points="1412,-241 1412,-260 1514,-260 1514,-241 1412,-241"/>
<text text-anchor="middle" x="1463" y="-248" font-family="Helvetica,sans-Serif" font-size="10.00">boca/math/Line2.hh</text>
</a>
</g>
</g>
<!-- Node32&#45;&gt;Node38 -->
<g id="edge44" class="edge"><title>Node32&#45;&gt;Node38</title>
<path fill="none" stroke="midnightblue" d="M1430.99,-307.734C1436.59,-297.89 1445.83,-281.66 1452.95,-269.159"/>
<polygon fill="midnightblue" stroke="midnightblue" points="1456.18,-270.549 1458.09,-260.127 1450.1,-267.087 1456.18,-270.549"/>
</g>
<!-- Node41 -->
<g id="node41" class="node"><title>Node41</title>
<g id="a_node41"><a xlink:href="Jet_8hh.html" target="_top" xlink:title="boca/multiplets/Jet.hh">
<polygon fill="white" stroke="black" points="1561.5,-241 1561.5,-260 1674.5,-260 1674.5,-241 1561.5,-241"/>
<text text-anchor="middle" x="1618" y="-248" font-family="Helvetica,sans-Serif" font-size="10.00">boca/multiplets/Jet.hh</text>
</a>
</g>
</g>
<!-- Node32&#45;&gt;Node41 -->
<g id="edge49" class="edge"><title>Node32&#45;&gt;Node41</title>
<path fill="none" stroke="midnightblue" d="M1451.5,-307.869C1485.3,-296.424 1545.1,-276.181 1583.08,-263.322"/>
<polygon fill="midnightblue" stroke="midnightblue" points="1584.35,-266.586 1592.7,-260.064 1582.11,-259.955 1584.35,-266.586"/>
</g>
<!-- Node34 -->
<g id="node34" class="node"><title>Node34</title>
<polygon fill="white" stroke="#bfbfbf" points="1245.5,-179.5 1245.5,-198.5 1304.5,-198.5 1304.5,-179.5 1245.5,-179.5"/>
<text text-anchor="middle" x="1275" y="-186.5" font-family="Helvetica,sans-Serif" font-size="10.00">functional</text>
</g>
<!-- Node33&#45;&gt;Node34 -->
<g id="edge38" class="edge"><title>Node33&#45;&gt;Node34</title>
<path fill="none" stroke="midnightblue" d="M1323.83,-240.975C1315.11,-231.873 1301.1,-217.241 1290.31,-205.983"/>
<polygon fill="midnightblue" stroke="midnightblue" points="1292.6,-203.309 1283.15,-198.509 1287.54,-208.151 1292.6,-203.309"/>
</g>
<!-- Node35 -->
<g id="node35" class="node"><title>Node35</title>
<g id="a_node35"><a xlink:href="Debug_8hh.html" target="_top" xlink:title="boca/generic/Debug.hh">
<polygon fill="white" stroke="red" points="1102.5,-123.5 1102.5,-142.5 1219.5,-142.5 1219.5,-123.5 1102.5,-123.5"/>
<text text-anchor="middle" x="1161" y="-130.5" font-family="Helvetica,sans-Serif" font-size="10.00">boca/generic/Debug.hh</text>
</a>
</g>
</g>
<!-- Node33&#45;&gt;Node35 -->
<g id="edge39" class="edge"><title>Node33&#45;&gt;Node35</title>
<path fill="none" stroke="midnightblue" d="M1332.21,-240.83C1332.09,-226.083 1329.64,-196.057 1313,-179 1291.25,-156.71 1259.03,-145.333 1229.85,-139.577"/>
<polygon fill="midnightblue" stroke="midnightblue" points="1230.13,-136.072 1219.67,-137.766 1228.9,-142.964 1230.13,-136.072"/>
</g>
<!-- Node37 -->
<g id="node37" class="node"><title>Node37</title>
<polygon fill="white" stroke="#bfbfbf" points="1189,-179.5 1189,-198.5 1227,-198.5 1227,-179.5 1189,-179.5"/>
<text text-anchor="middle" x="1208" y="-186.5" font-family="Helvetica,sans-Serif" font-size="10.00">array</text>
</g>
<!-- Node33&#45;&gt;Node37 -->
<g id="edge43" class="edge"><title>Node33&#45;&gt;Node37</title>
<path fill="none" stroke="midnightblue" d="M1314.23,-240.975C1293.52,-231.034 1259.05,-214.495 1235.01,-202.961"/>
<polygon fill="midnightblue" stroke="midnightblue" points="1236.26,-199.68 1225.73,-198.509 1233.23,-205.991 1236.26,-199.68"/>
</g>
<!-- Node35&#45;&gt;Node16 -->
<g id="edge41" class="edge"><title>Node35&#45;&gt;Node16</title>
<path fill="none" stroke="midnightblue" d="M1140.8,-123.475C1116.93,-113.401 1077,-96.5525 1049.63,-85.0023"/>
<polygon fill="midnightblue" stroke="midnightblue" points="1050.74,-81.6724 1040.16,-81.0091 1048.02,-88.1217 1050.74,-81.6724"/>
</g>
<!-- Node35&#45;&gt;Node20 -->
<g id="edge40" class="edge"><title>Node35&#45;&gt;Node20</title>
<path fill="none" stroke="midnightblue" d="M1153.73,-123.378C1146.48,-114.562 1135.26,-100.312 1127,-87 1115.25,-68.0566 1104.13,-44.9936 1096.99,-29.2765"/>
<polygon fill="midnightblue" stroke="midnightblue" points="1099.99,-27.4187 1092.72,-19.7099 1093.6,-30.2686 1099.99,-27.4187"/>
</g>
<!-- Node36 -->
<g id="node36" class="node"><title>Node36</title>
<polygon fill="white" stroke="#bfbfbf" points="1136,-62 1136,-81 1188,-81 1188,-62 1136,-62"/>
<text text-anchor="middle" x="1162" y="-69" font-family="Helvetica,sans-Serif" font-size="10.00">sstream</text>
</g>
<!-- Node35&#45;&gt;Node36 -->
<g id="edge42" class="edge"><title>Node35&#45;&gt;Node36</title>
<path fill="none" stroke="midnightblue" d="M1161.14,-123.475C1161.28,-115.08 1161.5,-101.981 1161.69,-91.1631"/>
<polygon fill="midnightblue" stroke="midnightblue" points="1165.19,-91.0665 1161.86,-81.0091 1158.19,-90.9488 1165.19,-91.0665"/>
</g>
<!-- Node39 -->
<g id="node39" class="node"><title>Node39</title>
<g id="a_node39"><a xlink:href="Line_8hh.html" target="_top" xlink:title="boca/math/Line.hh">
<polygon fill="white" stroke="red" points="1361.5,-179.5 1361.5,-198.5 1458.5,-198.5 1458.5,-179.5 1361.5,-179.5"/>
<text text-anchor="middle" x="1410" y="-186.5" font-family="Helvetica,sans-Serif" font-size="10.00">boca/math/Line.hh</text>
</a>
</g>
</g>
<!-- Node38&#45;&gt;Node39 -->
<g id="edge45" class="edge"><title>Node38&#45;&gt;Node39</title>
<path fill="none" stroke="midnightblue" d="M1455.41,-240.975C1447.3,-231.873 1434.27,-217.241 1424.24,-205.983"/>
<polygon fill="midnightblue" stroke="midnightblue" points="1426.84,-203.648 1417.58,-198.509 1421.62,-208.304 1426.84,-203.648"/>
</g>
<!-- Node40 -->
<g id="node40" class="node"><title>Node40</title>
<g id="a_node40"><a xlink:href="Vector2_8hh.html" target="_top" xlink:title="boca/math/Vector2.hh">
<polygon fill="white" stroke="red" points="1476.5,-179.5 1476.5,-198.5 1589.5,-198.5 1589.5,-179.5 1476.5,-179.5"/>
<text text-anchor="middle" x="1533" y="-186.5" font-family="Helvetica,sans-Serif" font-size="10.00">boca/math/Vector2.hh</text>
</a>
</g>
</g>
<!-- Node38&#45;&gt;Node40 -->
<g id="edge46" class="edge"><title>Node38&#45;&gt;Node40</title>
<path fill="none" stroke="midnightblue" d="M1473.03,-240.975C1484.05,-231.608 1501.96,-216.384 1515.34,-205.008"/>
<polygon fill="midnightblue" stroke="midnightblue" points="1517.64,-207.652 1522.99,-198.509 1513.1,-202.319 1517.64,-207.652"/>
</g>
<!-- Node40&#45;&gt;Node26 -->
<g id="edge47" class="edge"><title>Node40&#45;&gt;Node26</title>
<path fill="none" stroke="midnightblue" d="M1525.71,-179.319C1509.63,-160.172 1470.89,-114.044 1449.97,-89.1306"/>
<polygon fill="midnightblue" stroke="midnightblue" points="1452.49,-86.6888 1443.38,-81.282 1447.13,-91.1906 1452.49,-86.6888"/>
</g>
<!-- Node40&#45;&gt;Node35 -->
<g id="edge48" class="edge"><title>Node40&#45;&gt;Node35</title>
<path fill="none" stroke="midnightblue" d="M1476.1,-179.74C1409.95,-170.137 1300.81,-154.294 1229.91,-144.003"/>
<polygon fill="midnightblue" stroke="midnightblue" points="1230.14,-140.5 1219.74,-142.527 1229.13,-147.427 1230.14,-140.5"/>
</g>
<!-- Node41&#45;&gt;Node24 -->
<g id="edge51" class="edge"><title>Node41&#45;&gt;Node24</title>
<path fill="none" stroke="midnightblue" d="M1631.32,-240.975C1646.38,-231.343 1671.12,-215.517 1689.04,-204.052"/>
<polygon fill="midnightblue" stroke="midnightblue" points="1691.16,-206.847 1697.7,-198.509 1687.39,-200.95 1691.16,-206.847"/>
</g>
<!-- Node41&#45;&gt;Node25 -->
<g id="edge50" class="edge"><title>Node41&#45;&gt;Node25</title>
<path fill="none" stroke="midnightblue" d="M1616.43,-240.969C1613.75,-227.42 1607.64,-200.332 1598,-179 1593.55,-169.154 1587.16,-158.971 1581.51,-150.787"/>
<polygon fill="midnightblue" stroke="midnightblue" points="1584.26,-148.613 1575.59,-142.521 1578.57,-152.689 1584.26,-148.613"/>
</g>
<!-- Node43 -->
<g id="node43" class="node"><title>Node43</title>
<g id="a_node43"><a xlink:href="DelphesClasses_8h.html" target="_top" xlink:title="boca/delphes/DelphesClasses.h">
<polygon fill="white" stroke="black" points="1812,-241 1812,-260 1970,-260 1970,-241 1812,-241"/>
<text text-anchor="middle" x="1891" y="-248" font-family="Helvetica,sans-Serif" font-size="10.00">boca/delphes/DelphesClasses.h</text>
</a>
</g>
</g>
<!-- Node42&#45;&gt;Node43 -->
<g id="edge53" class="edge"><title>Node42&#45;&gt;Node43</title>
<path fill="none" stroke="midnightblue" d="M1891,-307.734C1891,-298.183 1891,-282.618 1891,-270.283"/>
<polygon fill="midnightblue" stroke="midnightblue" points="1894.5,-270.127 1891,-260.127 1887.5,-270.127 1894.5,-270.127"/>
</g>
<!-- Node49 -->
<g id="node49" class="node"><title>Node49</title>
<g id="a_node49"><a xlink:href="delphes_2TypeDef_8hh.html" target="_top" xlink:title="boca/delphes/TypeDef.hh">
<polygon fill="white" stroke="black" points="1988,-241 1988,-260 2116,-260 2116,-241 1988,-241"/>
<text text-anchor="middle" x="2052" y="-248" font-family="Helvetica,sans-Serif" font-size="10.00">boca/delphes/TypeDef.hh</text>
</a>
</g>
</g>
<!-- Node42&#45;&gt;Node49 -->
<g id="edge62" class="edge"><title>Node42&#45;&gt;Node49</title>
<path fill="none" stroke="midnightblue" d="M1912.38,-307.869C1940.36,-296.571 1989.59,-276.696 2021.49,-263.818"/>
<polygon fill="midnightblue" stroke="midnightblue" points="2022.83,-267.053 2030.79,-260.064 2020.21,-260.562 2022.83,-267.053"/>
</g>
<!-- Node44 -->
<g id="node44" class="node"><title>Node44</title>
<polygon fill="white" stroke="#bfbfbf" points="2133.5,-123.5 2133.5,-142.5 2180.5,-142.5 2180.5,-123.5 2133.5,-123.5"/>
<text text-anchor="middle" x="2157" y="-130.5" font-family="Helvetica,sans-Serif" font-size="10.00">TRef.h</text>
</g>
<!-- Node43&#45;&gt;Node44 -->
<g id="edge54" class="edge"><title>Node43&#45;&gt;Node44</title>
<path fill="none" stroke="midnightblue" d="M1943.38,-240.972C2017.29,-228.704 2144.03,-206.704 2151,-199 2162.04,-186.8 2162.49,-167.531 2160.81,-153.135"/>
<polygon fill="midnightblue" stroke="midnightblue" points="2164.2,-152.185 2159.16,-142.864 2157.29,-153.291 2164.2,-152.185"/>
</g>
<!-- Node45 -->
<g id="node45" class="node"><title>Node45</title>
<polygon fill="white" stroke="#bfbfbf" points="1954.5,-123.5 1954.5,-142.5 2013.5,-142.5 2013.5,-123.5 1954.5,-123.5"/>
<text text-anchor="middle" x="1984" y="-130.5" font-family="Helvetica,sans-Serif" font-size="10.00">TObject.h</text>
</g>
<!-- Node43&#45;&gt;Node45 -->
<g id="edge55" class="edge"><title>Node43&#45;&gt;Node45</title>
<path fill="none" stroke="midnightblue" d="M1876.6,-240.786C1856.36,-227.439 1823.71,-201.151 1840,-179 1846.38,-170.319 1904.06,-154.205 1944.45,-143.8"/>
<polygon fill="midnightblue" stroke="midnightblue" points="1945.48,-147.15 1954.3,-141.286 1943.75,-140.367 1945.48,-147.15"/>
</g>
<!-- Node46 -->
<g id="node46" class="node"><title>Node46</title>
<polygon fill="white" stroke="#bfbfbf" points="2032,-123.5 2032,-142.5 2102,-142.5 2102,-123.5 2032,-123.5"/>
<text text-anchor="middle" x="2067" y="-130.5" font-family="Helvetica,sans-Serif" font-size="10.00">TRefArray.h</text>
</g>
<!-- Node43&#45;&gt;Node46 -->
<g id="edge56" class="edge"><title>Node43&#45;&gt;Node46</title>
<path fill="none" stroke="midnightblue" d="M1884.42,-240.695C1874.51,-226.277 1858.38,-197.396 1873,-179 1875.36,-176.031 1965.62,-155.992 2022.18,-143.677"/>
<polygon fill="midnightblue" stroke="midnightblue" points="2022.95,-147.092 2031.98,-141.548 2021.46,-140.252 2022.95,-147.092"/>
</g>
<!-- Node47 -->
<g id="node47" class="node"><title>Node47</title>
<polygon fill="white" stroke="#bfbfbf" points="1882,-179.5 1882,-198.5 1974,-198.5 1974,-179.5 1882,-179.5"/>
<text text-anchor="middle" x="1928" y="-186.5" font-family="Helvetica,sans-Serif" font-size="10.00">TLorentzVector.h</text>
</g>
<!-- Node43&#45;&gt;Node47 -->
<g id="edge57" class="edge"><title>Node43&#45;&gt;Node47</title>
<path fill="none" stroke="midnightblue" d="M1896.3,-240.975C1901.74,-232.227 1910.36,-218.369 1917.24,-207.309"/>
<polygon fill="midnightblue" stroke="midnightblue" points="1920.4,-208.849 1922.71,-198.509 1914.46,-205.153 1920.4,-208.849"/>
</g>
<!-- Node48 -->
<g id="node48" class="node"><title>Node48</title>
<g id="a_node48"><a xlink:href="SortableObject_8h.html" target="_top" xlink:title="boca/delphes/SortableObject.h">
<polygon fill="white" stroke="red" points="1992,-179.5 1992,-198.5 2142,-198.5 2142,-179.5 1992,-179.5"/>
<text text-anchor="middle" x="2067" y="-186.5" font-family="Helvetica,sans-Serif" font-size="10.00">boca/delphes/SortableObject.h</text>
</a>
</g>
</g>
<!-- Node43&#45;&gt;Node48 -->
<g id="edge58" class="edge"><title>Node43&#45;&gt;Node48</title>
<path fill="none" stroke="midnightblue" d="M1916.22,-240.975C1946.67,-230.68 1998.05,-213.31 2032.24,-201.75"/>
<polygon fill="midnightblue" stroke="midnightblue" points="2033.48,-205.027 2041.83,-198.509 2031.24,-198.396 2033.48,-205.027"/>
</g>
<!-- Node48&#45;&gt;Node44 -->
<g id="edge59" class="edge"><title>Node48&#45;&gt;Node44</title>
<path fill="none" stroke="midnightblue" d="M2081.46,-179.324C2095.5,-170.9 2117.05,-157.971 2133.54,-148.074"/>
<polygon fill="midnightblue" stroke="midnightblue" points="2135.8,-150.801 2142.58,-142.655 2132.2,-144.798 2135.8,-150.801"/>
</g>
<!-- Node48&#45;&gt;Node45 -->
<g id="edge60" class="edge"><title>Node48&#45;&gt;Node45</title>
<path fill="none" stroke="midnightblue" d="M2053.66,-179.324C2040.84,-170.979 2021.22,-158.212 2006.06,-148.352"/>
<polygon fill="midnightblue" stroke="midnightblue" points="2007.59,-145.174 1997.3,-142.655 2003.78,-151.042 2007.59,-145.174"/>
</g>
<!-- Node48&#45;&gt;Node46 -->
<g id="edge61" class="edge"><title>Node48&#45;&gt;Node46</title>
<path fill="none" stroke="midnightblue" d="M2067,-179.083C2067,-172.006 2067,-161.861 2067,-152.986"/>
<polygon fill="midnightblue" stroke="midnightblue" points="2070.5,-152.751 2067,-142.751 2063.5,-152.751 2070.5,-152.751"/>
</g>
<!-- Node50&#45;&gt;Node35 -->
<g id="edge64" class="edge"><title>Node50&#45;&gt;Node35</title>
<path fill="none" stroke="midnightblue" d="M1247.78,-302.484C1244.56,-285.364 1237.33,-256.082 1223,-235 1208.99,-214.385 1193.64,-219.861 1180,-199 1170.85,-185.009 1166,-166.507 1163.5,-152.822"/>
<polygon fill="midnightblue" stroke="midnightblue" points="1166.92,-152.001 1161.91,-142.664 1160,-153.086 1166.92,-152.001"/>
</g>
</g>
</svg>
