<?xml version="1.0" encoding="UTF-8" standalone="no"?>
<!DOCTYPE svg PUBLIC "-//W3C//DTD SVG 1.1//EN"
 "http://www.w3.org/Graphics/SVG/1.1/DTD/svg11.dtd">
<!-- Generated by graphviz version 2.38.0 (20140413.2041)
 -->
<!-- Title: examples/standardmodel/standardmodel/branch/LeptonVeto.hh Pages: 1 -->
<svg width="1383pt" height="352pt"
 viewBox="0.00 0.00 1382.50 352.00" xmlns="http://www.w3.org/2000/svg" xmlns:xlink="http://www.w3.org/1999/xlink">
<g id="graph0" class="graph" transform="scale(1 1) rotate(0) translate(4 348)">
<title>examples/standardmodel/standardmodel/branch/LeptonVeto.hh</title>
<polygon fill="white" stroke="none" points="-4,4 -4,-348 1378.5,-348 1378.5,4 -4,4"/>
<!-- Node1 -->
<g id="node1" class="node"><title>Node1</title>
<polygon fill="#bfbfbf" stroke="black" points="919,-302.5 919,-343.5 1044,-343.5 1044,-302.5 919,-302.5"/>
<text text-anchor="start" x="927" y="-331.5" font-family="Helvetica,sans-Serif" font-size="10.00">examples/standardmodel</text>
<text text-anchor="start" x="927" y="-320.5" font-family="Helvetica,sans-Serif" font-size="10.00">/standardmodel/branch</text>
<text text-anchor="middle" x="981.5" y="-309.5" font-family="Helvetica,sans-Serif" font-size="10.00">/LeptonVeto.hh</text>
</g>
<!-- Node2 -->
<g id="node2" class="node"><title>Node2</title>
<g id="a_node2"><a xlink:href="Prefixes_8hh.html" target="_top" xlink:title="boca/units/Prefixes.hh">
<polygon fill="white" stroke="black" points="750.5,-246.5 750.5,-265.5 864.5,-265.5 864.5,-246.5 750.5,-246.5"/>
<text text-anchor="middle" x="807.5" y="-253.5" font-family="Helvetica,sans-Serif" font-size="10.00">boca/units/Prefixes.hh</text>
</a>
</g>
</g>
<!-- Node1&#45;&gt;Node2 -->
<g id="edge1" class="edge"><title>Node1&#45;&gt;Node2</title>
<path fill="none" stroke="midnightblue" d="M929.294,-302.498C900.308,-291.67 865.153,-278.537 840.077,-269.17"/>
<polygon fill="midnightblue" stroke="midnightblue" points="841.255,-265.873 830.662,-265.652 838.805,-272.431 841.255,-265.873"/>
</g>
<!-- Node19 -->
<g id="node19" class="node"><title>Node19</title>
<g id="a_node19"><a xlink:href="boca_2multivariant_2Observables_8hh.html" target="_top" xlink:title="boca/multivariant/Observables.hh">
<polygon fill="white" stroke="black" points="1074.5,-246.5 1074.5,-265.5 1236.5,-265.5 1236.5,-246.5 1074.5,-246.5"/>
<text text-anchor="middle" x="1155.5" y="-253.5" font-family="Helvetica,sans-Serif" font-size="10.00">boca/multivariant/Observables.hh</text>
</a>
</g>
</g>
<!-- Node1&#45;&gt;Node19 -->
<g id="edge22" class="edge"><title>Node1&#45;&gt;Node19</title>
<path fill="none" stroke="midnightblue" d="M1033.71,-302.498C1062.69,-291.67 1097.85,-278.537 1122.92,-269.17"/>
<polygon fill="midnightblue" stroke="midnightblue" points="1124.2,-272.431 1132.34,-265.652 1121.75,-265.873 1124.2,-272.431"/>
</g>
<!-- Node3 -->
<g id="node3" class="node"><title>Node3</title>
<polygon fill="white" stroke="#bfbfbf" points="811.5,-185 811.5,-204 921.5,-204 921.5,-185 811.5,-185"/>
<text text-anchor="middle" x="866.5" y="-192" font-family="Helvetica,sans-Serif" font-size="10.00">boost/units/scale.hpp</text>
</g>
<!-- Node2&#45;&gt;Node3 -->
<g id="edge2" class="edge"><title>Node2&#45;&gt;Node3</title>
<path fill="none" stroke="midnightblue" d="M815.953,-246.475C825.066,-237.285 839.77,-222.456 850.976,-211.156"/>
<polygon fill="midnightblue" stroke="midnightblue" points="853.507,-213.574 858.062,-204.009 848.536,-208.646 853.507,-213.574"/>
</g>
<!-- Node4 -->
<g id="node4" class="node"><title>Node4</title>
<polygon fill="white" stroke="#bfbfbf" points="940,-179.5 940,-209.5 1065,-209.5 1065,-179.5 940,-179.5"/>
<text text-anchor="start" x="948" y="-197.5" font-family="Helvetica,sans-Serif" font-size="10.00">boost/units/make_scaled</text>
<text text-anchor="middle" x="1002.5" y="-186.5" font-family="Helvetica,sans-Serif" font-size="10.00">_unit.hpp</text>
</g>
<!-- Node2&#45;&gt;Node4 -->
<g id="edge3" class="edge"><title>Node2&#45;&gt;Node4</title>
<path fill="none" stroke="midnightblue" d="M835.439,-246.475C864.317,-237.664 910.183,-223.668 946.557,-212.57"/>
<polygon fill="midnightblue" stroke="midnightblue" points="947.999,-215.789 956.542,-209.523 945.956,-209.094 947.999,-215.789"/>
</g>
<!-- Node5 -->
<g id="node5" class="node"><title>Node5</title>
<polygon fill="white" stroke="#bfbfbf" points="1083,-179.5 1083,-209.5 1194,-209.5 1194,-179.5 1083,-179.5"/>
<text text-anchor="start" x="1091" y="-197.5" font-family="Helvetica,sans-Serif" font-size="10.00">boost/units/systems</text>
<text text-anchor="middle" x="1138.5" y="-186.5" font-family="Helvetica,sans-Serif" font-size="10.00">/si/dimensionless.hpp</text>
</g>
<!-- Node2&#45;&gt;Node5 -->
<g id="edge4" class="edge"><title>Node2&#45;&gt;Node5</title>
<path fill="none" stroke="midnightblue" d="M863.664,-246.468C915.588,-238.369 995.125,-225.431 1072.74,-210.291"/>
<polygon fill="midnightblue" stroke="midnightblue" points="1073.55,-213.699 1082.69,-208.337 1072.2,-206.831 1073.55,-213.699"/>
</g>
<!-- Node6 -->
<g id="node6" class="node"><title>Node6</title>
<polygon fill="white" stroke="#bfbfbf" points="206.5,-185 206.5,-204 310.5,-204 310.5,-185 206.5,-185"/>
<text text-anchor="middle" x="258.5" y="-192" font-family="Helvetica,sans-Serif" font-size="10.00">boost/units/pow.hpp</text>
</g>
<!-- Node2&#45;&gt;Node6 -->
<g id="edge5" class="edge"><title>Node2&#45;&gt;Node6</title>
<path fill="none" stroke="midnightblue" d="M750.441,-252.36C659,-247.541 474.194,-235.387 319.5,-210 313.297,-208.982 306.788,-207.685 300.427,-206.288"/>
<polygon fill="midnightblue" stroke="midnightblue" points="301.149,-202.862 290.619,-204.034 299.581,-209.684 301.149,-202.862"/>
</g>
<!-- Node7 -->
<g id="node7" class="node"><title>Node7</title>
<g id="a_node7"><a xlink:href="Si_8hh.html" target="_top" xlink:title="boca/units/Si.hh">
<polygon fill="white" stroke="black" points="706,-185 706,-204 793,-204 793,-185 706,-185"/>
<text text-anchor="middle" x="749.5" y="-192" font-family="Helvetica,sans-Serif" font-size="10.00">boca/units/Si.hh</text>
</a>
</g>
</g>
<!-- Node2&#45;&gt;Node7 -->
<g id="edge6" class="edge"><title>Node2&#45;&gt;Node7</title>
<path fill="none" stroke="midnightblue" d="M799.19,-246.475C790.318,-237.373 776.054,-222.741 765.08,-211.483"/>
<polygon fill="midnightblue" stroke="midnightblue" points="767.281,-208.727 757.795,-204.009 762.269,-213.613 767.281,-208.727"/>
</g>
<!-- Node13 -->
<g id="node13" class="node"><title>Node13</title>
<g id="a_node13"><a xlink:href="Barn_8hh.html" target="_top" xlink:title="boca/units/Barn.hh">
<polygon fill="white" stroke="black" points="328.5,-185 328.5,-204 426.5,-204 426.5,-185 328.5,-185"/>
<text text-anchor="middle" x="377.5" y="-192" font-family="Helvetica,sans-Serif" font-size="10.00">boca/units/Barn.hh</text>
</a>
</g>
</g>
<!-- Node2&#45;&gt;Node13 -->
<g id="edge12" class="edge"><title>Node2&#45;&gt;Node13</title>
<path fill="none" stroke="midnightblue" d="M750.329,-249.853C677.904,-242.906 549.4,-229.155 440.5,-210 434.334,-208.915 427.864,-207.615 421.515,-206.244"/>
<polygon fill="midnightblue" stroke="midnightblue" points="422.222,-202.816 411.699,-204.054 420.697,-209.648 422.222,-202.816"/>
</g>
<!-- Node17 -->
<g id="node17" class="node"><title>Node17</title>
<g id="a_node17"><a xlink:href="ElectronVolt_8hh.html" target="_top" xlink:title="boca/units/ElectronVolt.hh">
<polygon fill="white" stroke="black" points="450,-185 450,-204 581,-204 581,-185 450,-185"/>
<text text-anchor="middle" x="515.5" y="-192" font-family="Helvetica,sans-Serif" font-size="10.00">boca/units/ElectronVolt.hh</text>
</a>
</g>
</g>
<!-- Node2&#45;&gt;Node17 -->
<g id="edge17" class="edge"><title>Node2&#45;&gt;Node17</title>
<path fill="none" stroke="midnightblue" d="M765.664,-246.475C713.298,-235.805 623.631,-217.534 567.073,-206.009"/>
<polygon fill="midnightblue" stroke="midnightblue" points="567.756,-202.576 557.259,-204.009 566.359,-209.435 567.756,-202.576"/>
</g>
<!-- Node8 -->
<g id="node8" class="node"><title>Node8</title>
<polygon fill="white" stroke="#bfbfbf" points="455,-118 455,-137 576,-137 576,-118 455,-118"/>
<text text-anchor="middle" x="515.5" y="-125" font-family="Helvetica,sans-Serif" font-size="10.00">boost/units/quantity.hpp</text>
</g>
<!-- Node7&#45;&gt;Node8 -->
<g id="edge7" class="edge"><title>Node7&#45;&gt;Node8</title>
<path fill="none" stroke="midnightblue" d="M718.427,-184.869C676.615,-173.254 602.173,-152.576 556.01,-139.753"/>
<polygon fill="midnightblue" stroke="midnightblue" points="556.901,-136.368 546.329,-137.064 555.028,-143.112 556.901,-136.368"/>
</g>
<!-- Node9 -->
<g id="node9" class="node"><title>Node9</title>
<polygon fill="white" stroke="#bfbfbf" points="977,-112.5 977,-142.5 1082,-142.5 1082,-112.5 977,-112.5"/>
<text text-anchor="start" x="985" y="-130.5" font-family="Helvetica,sans-Serif" font-size="10.00">boost/units/systems</text>
<text text-anchor="middle" x="1029.5" y="-119.5" font-family="Helvetica,sans-Serif" font-size="10.00">/si/plane_angle.hpp</text>
</g>
<!-- Node7&#45;&gt;Node9 -->
<g id="edge8" class="edge"><title>Node7&#45;&gt;Node9</title>
<path fill="none" stroke="midnightblue" d="M779.697,-184.939C787.132,-182.913 795.088,-180.816 802.5,-179 872.816,-161.77 893.229,-159.865 967.156,-143.275"/>
<polygon fill="midnightblue" stroke="midnightblue" points="967.96,-146.681 976.943,-141.063 966.417,-139.853 967.96,-146.681"/>
</g>
<!-- Node10 -->
<g id="node10" class="node"><title>Node10</title>
<polygon fill="white" stroke="#bfbfbf" points="1100,-112.5 1100,-142.5 1205,-142.5 1205,-112.5 1100,-112.5"/>
<text text-anchor="start" x="1108" y="-130.5" font-family="Helvetica,sans-Serif" font-size="10.00">boost/units/systems</text>
<text text-anchor="middle" x="1152.5" y="-119.5" font-family="Helvetica,sans-Serif" font-size="10.00">/si/length.hpp</text>
</g>
<!-- Node7&#45;&gt;Node10 -->
<g id="edge9" class="edge"><title>Node7&#45;&gt;Node10</title>
<path fill="none" stroke="midnightblue" d="M777.653,-184.993C785.63,-182.803 794.359,-180.612 802.5,-179 926.248,-154.496 962.304,-165.409 1089.54,-143.233"/>
<polygon fill="midnightblue" stroke="midnightblue" points="1090.44,-146.628 1099.67,-141.431 1089.21,-139.736 1090.44,-146.628"/>
</g>
<!-- Node11 -->
<g id="node11" class="node"><title>Node11</title>
<polygon fill="white" stroke="#bfbfbf" points="717,-118 717,-137 830,-137 830,-118 717,-118"/>
<text text-anchor="middle" x="773.5" y="-125" font-family="Helvetica,sans-Serif" font-size="10.00">boost/units/cmath.hpp</text>
</g>
<!-- Node7&#45;&gt;Node11 -->
<g id="edge10" class="edge"><title>Node7&#45;&gt;Node11</title>
<path fill="none" stroke="midnightblue" d="M752.737,-184.734C756.335,-174.988 762.246,-158.981 766.842,-146.532"/>
<polygon fill="midnightblue" stroke="midnightblue" points="770.134,-147.721 770.315,-137.127 763.567,-145.296 770.134,-147.721"/>
</g>
<!-- Node12 -->
<g id="node12" class="node"><title>Node12</title>
<polygon fill="white" stroke="#bfbfbf" points="848,-112.5 848,-142.5 959,-142.5 959,-112.5 848,-112.5"/>
<text text-anchor="start" x="856" y="-130.5" font-family="Helvetica,sans-Serif" font-size="10.00">boost/math/constants</text>
<text text-anchor="middle" x="903.5" y="-119.5" font-family="Helvetica,sans-Serif" font-size="10.00">/constants.hpp</text>
</g>
<!-- Node7&#45;&gt;Node12 -->
<g id="edge11" class="edge"><title>Node7&#45;&gt;Node12</title>
<path fill="none" stroke="midnightblue" d="M769.95,-184.869C793.058,-175.115 831.311,-158.97 860.968,-146.452"/>
<polygon fill="midnightblue" stroke="midnightblue" points="862.412,-149.641 870.264,-142.528 859.69,-143.192 862.412,-149.641"/>
</g>
<!-- Node13&#45;&gt;Node8 -->
<g id="edge15" class="edge"><title>Node13&#45;&gt;Node8</title>
<path fill="none" stroke="midnightblue" d="M395.825,-184.869C419.436,-173.748 460.689,-154.317 488.052,-141.429"/>
<polygon fill="midnightblue" stroke="midnightblue" points="489.544,-144.595 497.099,-137.167 486.561,-138.262 489.544,-144.595"/>
</g>
<!-- Node14 -->
<g id="node14" class="node"><title>Node14</title>
<polygon fill="white" stroke="#bfbfbf" points="133,-118 133,-137 290,-137 290,-118 133,-118"/>
<text text-anchor="middle" x="211.5" y="-125" font-family="Helvetica,sans-Serif" font-size="10.00">boost/units/base_dimension.hpp</text>
</g>
<!-- Node13&#45;&gt;Node14 -->
<g id="edge13" class="edge"><title>Node13&#45;&gt;Node14</title>
<path fill="none" stroke="midnightblue" d="M355.456,-184.869C326.603,-173.571 275.847,-153.696 242.959,-140.818"/>
<polygon fill="midnightblue" stroke="midnightblue" points="243.958,-137.451 233.37,-137.064 241.406,-143.969 243.958,-137.451"/>
</g>
<!-- Node15 -->
<g id="node15" class="node"><title>Node15</title>
<polygon fill="white" stroke="#bfbfbf" points="308.5,-118 308.5,-137 436.5,-137 436.5,-118 308.5,-118"/>
<text text-anchor="middle" x="372.5" y="-125" font-family="Helvetica,sans-Serif" font-size="10.00">boost/units/base_unit.hpp</text>
</g>
<!-- Node13&#45;&gt;Node15 -->
<g id="edge14" class="edge"><title>Node13&#45;&gt;Node15</title>
<path fill="none" stroke="midnightblue" d="M376.826,-184.734C376.091,-175.183 374.894,-159.618 373.945,-147.283"/>
<polygon fill="midnightblue" stroke="midnightblue" points="377.42,-146.829 373.164,-137.127 370.441,-147.366 377.42,-146.829"/>
</g>
<!-- Node16 -->
<g id="node16" class="node"><title>Node16</title>
<polygon fill="white" stroke="#bfbfbf" points="0,-112.5 0,-142.5 115,-142.5 115,-112.5 0,-112.5"/>
<text text-anchor="start" x="8" y="-130.5" font-family="Helvetica,sans-Serif" font-size="10.00">boost/units/base_units</text>
<text text-anchor="middle" x="57.5" y="-119.5" font-family="Helvetica,sans-Serif" font-size="10.00">/metric/barn.hpp</text>
</g>
<!-- Node13&#45;&gt;Node16 -->
<g id="edge16" class="edge"><title>Node13&#45;&gt;Node16</title>
<path fill="none" stroke="midnightblue" d="M344.764,-184.931C336.54,-182.885 327.717,-180.78 319.5,-179 236.067,-160.928 212.039,-160.511 125.115,-143.281"/>
<polygon fill="midnightblue" stroke="midnightblue" points="125.561,-139.801 115.068,-141.27 124.187,-146.665 125.561,-139.801"/>
</g>
<!-- Node17&#45;&gt;Node8 -->
<g id="edge20" class="edge"><title>Node17&#45;&gt;Node8</title>
<path fill="none" stroke="midnightblue" d="M515.5,-184.734C515.5,-175.183 515.5,-159.618 515.5,-147.283"/>
<polygon fill="midnightblue" stroke="midnightblue" points="519,-147.127 515.5,-137.127 512,-147.127 519,-147.127"/>
</g>
<!-- Node17&#45;&gt;Node14 -->
<g id="edge18" class="edge"><title>Node17&#45;&gt;Node14</title>
<path fill="none" stroke="midnightblue" d="M475.445,-184.936C420.424,-173.171 321.491,-152.018 261.626,-139.218"/>
<polygon fill="midnightblue" stroke="midnightblue" points="262.155,-135.752 251.644,-137.083 260.691,-142.597 262.155,-135.752"/>
</g>
<!-- Node17&#45;&gt;Node15 -->
<g id="edge19" class="edge"><title>Node17&#45;&gt;Node15</title>
<path fill="none" stroke="midnightblue" d="M496.511,-184.869C472.045,-173.748 429.297,-154.317 400.943,-141.429"/>
<polygon fill="midnightblue" stroke="midnightblue" points="402.12,-138.119 391.568,-137.167 399.223,-144.492 402.12,-138.119"/>
</g>
<!-- Node18 -->
<g id="node18" class="node"><title>Node18</title>
<polygon fill="white" stroke="#bfbfbf" points="594,-112.5 594,-142.5 699,-142.5 699,-112.5 594,-112.5"/>
<text text-anchor="start" x="602" y="-130.5" font-family="Helvetica,sans-Serif" font-size="10.00">boost/units/systems</text>
<text text-anchor="middle" x="646.5" y="-119.5" font-family="Helvetica,sans-Serif" font-size="10.00">/si/energy.hpp</text>
</g>
<!-- Node17&#45;&gt;Node18 -->
<g id="edge21" class="edge"><title>Node17&#45;&gt;Node18</title>
<path fill="none" stroke="midnightblue" d="M532.896,-184.869C552.151,-175.315 583.766,-159.627 608.763,-147.225"/>
<polygon fill="midnightblue" stroke="midnightblue" points="610.577,-150.232 617.979,-142.652 607.465,-143.961 610.577,-150.232"/>
</g>
<!-- Node20 -->
<g id="node20" class="node"><title>Node20</title>
<g id="a_node20"><a xlink:href="Observable_8hh.html" target="_top" xlink:title="boca/multivariant/Observable.hh">
<polygon fill="white" stroke="black" points="1212,-185 1212,-204 1369,-204 1369,-185 1212,-185"/>
<text text-anchor="middle" x="1290.5" y="-192" font-family="Helvetica,sans-Serif" font-size="10.00">boca/multivariant/Observable.hh</text>
</a>
</g>
</g>
<!-- Node19&#45;&gt;Node20 -->
<g id="edge23" class="edge"><title>Node19&#45;&gt;Node20</title>
<path fill="none" stroke="midnightblue" d="M1174.84,-246.475C1197.6,-236.445 1235.59,-219.7 1261.79,-208.155"/>
<polygon fill="midnightblue" stroke="midnightblue" points="1263.45,-211.245 1271.19,-204.009 1260.63,-204.839 1263.45,-211.245"/>
</g>
<!-- Node21 -->
<g id="node21" class="node"><title>Node21</title>
<g id="a_node21"><a xlink:href="Names_8hh.html" target="_top" xlink:title="boca/Names.hh">
<polygon fill="white" stroke="black" points="1247.5,-118 1247.5,-137 1333.5,-137 1333.5,-118 1247.5,-118"/>
<text text-anchor="middle" x="1290.5" y="-125" font-family="Helvetica,sans-Serif" font-size="10.00">boca/Names.hh</text>
</a>
</g>
</g>
<!-- Node20&#45;&gt;Node21 -->
<g id="edge24" class="edge"><title>Node20&#45;&gt;Node21</title>
<path fill="none" stroke="midnightblue" d="M1290.5,-184.734C1290.5,-175.183 1290.5,-159.618 1290.5,-147.283"/>
<polygon fill="midnightblue" stroke="midnightblue" points="1294,-147.127 1290.5,-137.127 1287,-147.127 1294,-147.127"/>
</g>
<!-- Node22 -->
<g id="node22" class="node"><title>Node22</title>
<g id="a_node22"><a xlink:href="String_8hh.html" target="_top" xlink:title="boca/latex/String.hh">
<polygon fill="white" stroke="black" points="1238.5,-56.5 1238.5,-75.5 1342.5,-75.5 1342.5,-56.5 1238.5,-56.5"/>
<text text-anchor="middle" x="1290.5" y="-63.5" font-family="Helvetica,sans-Serif" font-size="10.00">boca/latex/String.hh</text>
</a>
</g>
</g>
<!-- Node21&#45;&gt;Node22 -->
<g id="edge25" class="edge"><title>Node21&#45;&gt;Node22</title>
<path fill="none" stroke="midnightblue" d="M1290.5,-117.975C1290.5,-109.58 1290.5,-96.4806 1290.5,-85.6631"/>
<polygon fill="midnightblue" stroke="midnightblue" points="1294,-85.5091 1290.5,-75.5091 1287,-85.5091 1294,-85.5091"/>
</g>
<!-- Node23 -->
<g id="node23" class="node"><title>Node23</title>
<polygon fill="white" stroke="#bfbfbf" points="1210,-0.5 1210,-19.5 1251,-19.5 1251,-0.5 1210,-0.5"/>
<text text-anchor="middle" x="1230.5" y="-7.5" font-family="Helvetica,sans-Serif" font-size="10.00">string</text>
</g>
<!-- Node22&#45;&gt;Node23 -->
<g id="edge26" class="edge"><title>Node22&#45;&gt;Node23</title>
<path fill="none" stroke="midnightblue" d="M1280.86,-56.324C1271.99,-48.3414 1258.63,-36.3128 1247.89,-26.6529"/>
<polygon fill="midnightblue" stroke="midnightblue" points="1250.09,-23.922 1240.32,-19.8339 1245.41,-29.1251 1250.09,-23.922"/>
</g>
<!-- Node24 -->
<g id="node24" class="node"><title>Node24</title>
<polygon fill="white" stroke="#bfbfbf" points="1269,-0.5 1269,-19.5 1312,-19.5 1312,-0.5 1269,-0.5"/>
<text text-anchor="middle" x="1290.5" y="-7.5" font-family="Helvetica,sans-Serif" font-size="10.00">deque</text>
</g>
<!-- Node22&#45;&gt;Node24 -->
<g id="edge27" class="edge"><title>Node22&#45;&gt;Node24</title>
<path fill="none" stroke="midnightblue" d="M1290.5,-56.083C1290.5,-49.0059 1290.5,-38.8611 1290.5,-29.9865"/>
<polygon fill="midnightblue" stroke="midnightblue" points="1294,-29.751 1290.5,-19.7511 1287,-29.7511 1294,-29.751"/>
</g>
<!-- Node25 -->
<g id="node25" class="node"><title>Node25</title>
<polygon fill="white" stroke="#bfbfbf" points="1330.5,-0.5 1330.5,-19.5 1374.5,-19.5 1374.5,-0.5 1330.5,-0.5"/>
<text text-anchor="middle" x="1352.5" y="-7.5" font-family="Helvetica,sans-Serif" font-size="10.00">vector</text>
</g>
<!-- Node22&#45;&gt;Node25 -->
<g id="edge28" class="edge"><title>Node22&#45;&gt;Node25</title>
<path fill="none" stroke="midnightblue" d="M1300.46,-56.324C1309.63,-48.3414 1323.44,-36.3128 1334.53,-26.6529"/>
<polygon fill="midnightblue" stroke="midnightblue" points="1337.12,-29.041 1342.36,-19.8339 1332.52,-23.7624 1337.12,-29.041"/>
</g>
</g>
</svg>
