<?xml version="1.0" encoding="UTF-8" standalone="no"?>
<!DOCTYPE svg PUBLIC "-//W3C//DTD SVG 1.1//EN"
 "http://www.w3.org/Graphics/SVG/1.1/DTD/svg11.dtd">
<!-- Generated by graphviz version 2.38.0 (20140413.2041)
 -->
<!-- Title: boca/math/LorentzVector.hh Pages: 1 -->
<svg width="1885pt" height="475pt"
 viewBox="0.00 0.00 1885.00 475.00" xmlns="http://www.w3.org/2000/svg" xmlns:xlink="http://www.w3.org/1999/xlink">
<g id="graph0" class="graph" transform="scale(1 1) rotate(0) translate(4 471)">
<title>boca/math/LorentzVector.hh</title>
<polygon fill="white" stroke="none" points="-4,4 -4,-471 1881,-471 1881,4 -4,4"/>
<!-- Node1 -->
<g id="node1" class="node"><title>Node1</title>
<polygon fill="#bfbfbf" stroke="black" points="128.5,-447.5 128.5,-466.5 268.5,-466.5 268.5,-447.5 128.5,-447.5"/>
<text text-anchor="middle" x="198.5" y="-454.5" font-family="Helvetica,sans-Serif" font-size="10.00">boca/math/LorentzVector.hh</text>
</g>
<!-- Node2 -->
<g id="node2" class="node"><title>Node2</title>
<g id="a_node2"><a xlink:href="delphes_2delphes_2Forward_8hh.html" target="_top" xlink:title="external/delphes/delphes\l/Forward.hh">
<polygon fill="white" stroke="black" points="0,-380.5 0,-410.5 125,-410.5 125,-380.5 0,-380.5"/>
<text text-anchor="start" x="8" y="-398.5" font-family="Helvetica,sans-Serif" font-size="10.00">external/delphes/delphes</text>
<text text-anchor="middle" x="62.5" y="-387.5" font-family="Helvetica,sans-Serif" font-size="10.00">/Forward.hh</text>
</a>
</g>
</g>
<!-- Node1&#45;&gt;Node2 -->
<g id="edge1" class="edge"><title>Node1&#45;&gt;Node2</title>
<path fill="none" stroke="midnightblue" d="M179.015,-447.475C159.476,-438.927 128.788,-425.501 103.811,-414.573"/>
<polygon fill="midnightblue" stroke="midnightblue" points="105.117,-411.325 94.5525,-410.523 102.311,-417.738 105.117,-411.325"/>
</g>
<!-- Node4 -->
<g id="node4" class="node"><title>Node4</title>
<g id="a_node4"><a xlink:href="exroot_2exroot_2Forward_8hh.html" target="_top" xlink:title="external/exroot/exroot\l/Forward.hh">
<polygon fill="white" stroke="black" points="143,-380.5 143,-410.5 254,-410.5 254,-380.5 143,-380.5"/>
<text text-anchor="start" x="151" y="-398.5" font-family="Helvetica,sans-Serif" font-size="10.00">external/exroot/exroot</text>
<text text-anchor="middle" x="198.5" y="-387.5" font-family="Helvetica,sans-Serif" font-size="10.00">/Forward.hh</text>
</a>
</g>
</g>
<!-- Node1&#45;&gt;Node4 -->
<g id="edge3" class="edge"><title>Node1&#45;&gt;Node4</title>
<path fill="none" stroke="midnightblue" d="M198.5,-447.475C198.5,-440.471 198.5,-430.192 198.5,-420.696"/>
<polygon fill="midnightblue" stroke="midnightblue" points="202,-420.523 198.5,-410.523 195,-420.523 202,-420.523"/>
</g>
<!-- Node6 -->
<g id="node6" class="node"><title>Node6</title>
<g id="a_node6"><a xlink:href="LorentzVectorBase_8hh.html" target="_top" xlink:title="boca/math/LorentzVectorBase.hh">
<polygon fill="white" stroke="black" points="272.5,-386 272.5,-405 434.5,-405 434.5,-386 272.5,-386"/>
<text text-anchor="middle" x="353.5" y="-393" font-family="Helvetica,sans-Serif" font-size="10.00">boca/math/LorentzVectorBase.hh</text>
</a>
</g>
</g>
<!-- Node1&#45;&gt;Node6 -->
<g id="edge5" class="edge"><title>Node1&#45;&gt;Node6</title>
<path fill="none" stroke="midnightblue" d="M220.708,-447.475C247.181,-437.313 291.614,-420.256 321.72,-408.7"/>
<polygon fill="midnightblue" stroke="midnightblue" points="323.252,-411.86 331.333,-405.009 320.743,-405.325 323.252,-411.86"/>
</g>
<!-- Node3 -->
<g id="node3" class="node"><title>Node3</title>
<g id="a_node3"><a xlink:href="delphes_2delphes_2TypeDef_8hh.html" target="_top" xlink:title="external/delphes/delphes\l/TypeDef.hh">
<polygon fill="white" stroke="black" points="0,-313.5 0,-343.5 125,-343.5 125,-313.5 0,-313.5"/>
<text text-anchor="start" x="8" y="-331.5" font-family="Helvetica,sans-Serif" font-size="10.00">external/delphes/delphes</text>
<text text-anchor="middle" x="62.5" y="-320.5" font-family="Helvetica,sans-Serif" font-size="10.00">/TypeDef.hh</text>
</a>
</g>
</g>
<!-- Node2&#45;&gt;Node3 -->
<g id="edge2" class="edge"><title>Node2&#45;&gt;Node3</title>
<path fill="none" stroke="midnightblue" d="M62.5,-380.396C62.5,-372.645 62.5,-362.812 62.5,-353.86"/>
<polygon fill="midnightblue" stroke="midnightblue" points="66.0001,-353.576 62.5,-343.577 59.0001,-353.577 66.0001,-353.576"/>
</g>
<!-- Node5 -->
<g id="node5" class="node"><title>Node5</title>
<g id="a_node5"><a xlink:href="exroot_2exroot_2TypeDef_8hh.html" target="_top" xlink:title="external/exroot/exroot\l/TypeDef.hh">
<polygon fill="white" stroke="black" points="143,-313.5 143,-343.5 254,-343.5 254,-313.5 143,-313.5"/>
<text text-anchor="start" x="151" y="-331.5" font-family="Helvetica,sans-Serif" font-size="10.00">external/exroot/exroot</text>
<text text-anchor="middle" x="198.5" y="-320.5" font-family="Helvetica,sans-Serif" font-size="10.00">/TypeDef.hh</text>
</a>
</g>
</g>
<!-- Node4&#45;&gt;Node5 -->
<g id="edge4" class="edge"><title>Node4&#45;&gt;Node5</title>
<path fill="none" stroke="midnightblue" d="M198.5,-380.396C198.5,-372.645 198.5,-362.812 198.5,-353.86"/>
<polygon fill="midnightblue" stroke="midnightblue" points="202,-353.576 198.5,-343.577 195,-353.577 202,-353.576"/>
</g>
<!-- Node7 -->
<g id="node7" class="node"><title>Node7</title>
<polygon fill="white" stroke="#bfbfbf" points="301,-319 301,-338 346,-338 346,-319 301,-319"/>
<text text-anchor="middle" x="323.5" y="-326" font-family="Helvetica,sans-Serif" font-size="10.00">climits</text>
</g>
<!-- Node6&#45;&gt;Node7 -->
<g id="edge6" class="edge"><title>Node6&#45;&gt;Node7</title>
<path fill="none" stroke="midnightblue" d="M349.454,-385.734C344.956,-375.988 337.568,-359.981 331.822,-347.532"/>
<polygon fill="midnightblue" stroke="midnightblue" points="334.85,-345.74 327.482,-338.127 328.495,-348.674 334.85,-345.74"/>
</g>
<!-- Node8 -->
<g id="node8" class="node"><title>Node8</title>
<g id="a_node8"><a xlink:href="Vector3_8hh.html" target="_top" xlink:title="boca/math/Vector3.hh">
<polygon fill="white" stroke="black" points="364,-319 364,-338 477,-338 477,-319 364,-319"/>
<text text-anchor="middle" x="420.5" y="-326" font-family="Helvetica,sans-Serif" font-size="10.00">boca/math/Vector3.hh</text>
</a>
</g>
</g>
<!-- Node6&#45;&gt;Node8 -->
<g id="edge7" class="edge"><title>Node6&#45;&gt;Node8</title>
<path fill="none" stroke="midnightblue" d="M362.536,-385.734C373.185,-375.403 391.085,-358.037 404.181,-345.332"/>
<polygon fill="midnightblue" stroke="midnightblue" points="406.867,-347.603 411.607,-338.127 401.993,-342.578 406.867,-347.603"/>
</g>
<!-- Node9 -->
<g id="node9" class="node"><title>Node9</title>
<polygon fill="white" stroke="#bfbfbf" points="334,-257.5 334,-276.5 399,-276.5 399,-257.5 334,-257.5"/>
<text text-anchor="middle" x="366.5" y="-264.5" font-family="Helvetica,sans-Serif" font-size="10.00">TVector3.h</text>
</g>
<!-- Node8&#45;&gt;Node9 -->
<g id="edge8" class="edge"><title>Node8&#45;&gt;Node9</title>
<path fill="none" stroke="midnightblue" d="M412.763,-318.975C404.503,-309.873 391.223,-295.241 381.006,-283.983"/>
<polygon fill="midnightblue" stroke="midnightblue" points="383.535,-281.562 374.223,-276.509 378.351,-286.266 383.535,-281.562"/>
</g>
<!-- Node10 -->
<g id="node10" class="node"><title>Node10</title>
<g id="a_node10"><a xlink:href="Vector2_8hh.html" target="_top" xlink:title="boca/math/Vector2.hh">
<polygon fill="white" stroke="black" points="417,-257.5 417,-276.5 530,-276.5 530,-257.5 417,-257.5"/>
<text text-anchor="middle" x="473.5" y="-264.5" font-family="Helvetica,sans-Serif" font-size="10.00">boca/math/Vector2.hh</text>
</a>
</g>
</g>
<!-- Node8&#45;&gt;Node10 -->
<g id="edge9" class="edge"><title>Node8&#45;&gt;Node10</title>
<path fill="none" stroke="midnightblue" d="M428.094,-318.975C436.201,-309.873 449.235,-295.241 459.263,-283.983"/>
<polygon fill="midnightblue" stroke="midnightblue" points="461.883,-286.304 465.92,-276.509 456.656,-281.648 461.883,-286.304"/>
</g>
<!-- Node11 -->
<g id="node11" class="node"><title>Node11</title>
<polygon fill="white" stroke="#bfbfbf" points="97,-73 97,-92 200,-92 200,-73 97,-73"/>
<text text-anchor="middle" x="148.5" y="-80" font-family="Helvetica,sans-Serif" font-size="10.00">boost/operators.hpp</text>
</g>
<!-- Node10&#45;&gt;Node11 -->
<g id="edge10" class="edge"><title>Node10&#45;&gt;Node11</title>
<path fill="none" stroke="midnightblue" d="M417.81,-257.477C343.542,-245.959 220.321,-226.257 211.5,-221 169.113,-195.738 155.008,-133.471 150.504,-102.14"/>
<polygon fill="midnightblue" stroke="midnightblue" points="153.964,-101.608 149.244,-92.1229 147.019,-102.481 153.964,-101.608"/>
</g>
<!-- Node12 -->
<g id="node12" class="node"><title>Node12</title>
<polygon fill="white" stroke="#bfbfbf" points="390,-201.5 390,-220.5 455,-220.5 455,-201.5 390,-201.5"/>
<text text-anchor="middle" x="422.5" y="-208.5" font-family="Helvetica,sans-Serif" font-size="10.00">TVector2.h</text>
</g>
<!-- Node10&#45;&gt;Node12 -->
<g id="edge11" class="edge"><title>Node10&#45;&gt;Node12</title>
<path fill="none" stroke="midnightblue" d="M465.078,-257.083C457.652,-249.22 446.648,-237.569 437.688,-228.081"/>
<polygon fill="midnightblue" stroke="midnightblue" points="440.176,-225.618 430.765,-220.751 435.087,-230.424 440.176,-225.618"/>
</g>
<!-- Node13 -->
<g id="node13" class="node"><title>Node13</title>
<g id="a_node13"><a xlink:href="Debug_8hh.html" target="_top" xlink:title="boca/generic/Debug.hh">
<polygon fill="white" stroke="black" points="695,-201.5 695,-220.5 812,-220.5 812,-201.5 695,-201.5"/>
<text text-anchor="middle" x="753.5" y="-208.5" font-family="Helvetica,sans-Serif" font-size="10.00">boca/generic/Debug.hh</text>
</a>
</g>
</g>
<!-- Node10&#45;&gt;Node13 -->
<g id="edge12" class="edge"><title>Node10&#45;&gt;Node13</title>
<path fill="none" stroke="midnightblue" d="M517.867,-257.444C567.122,-247.944 646.628,-232.611 699.471,-222.42"/>
<polygon fill="midnightblue" stroke="midnightblue" points="700.184,-225.847 709.341,-220.516 698.859,-218.974 700.184,-225.847"/>
</g>
<!-- Node20 -->
<g id="node20" class="node"><title>Node20</title>
<g id="a_node20"><a xlink:href="Iterator_8hh.html" target="_top" xlink:title="boca/generic/Iterator.hh">
<polygon fill="white" stroke="black" points="221,-201.5 221,-220.5 340,-220.5 340,-201.5 221,-201.5"/>
<text text-anchor="middle" x="280.5" y="-208.5" font-family="Helvetica,sans-Serif" font-size="10.00">boca/generic/Iterator.hh</text>
</a>
</g>
</g>
<!-- Node10&#45;&gt;Node20 -->
<g id="edge19" class="edge"><title>Node10&#45;&gt;Node20</title>
<path fill="none" stroke="midnightblue" d="M442.919,-257.444C409.885,-248.201 357.112,-233.436 320.734,-223.257"/>
<polygon fill="midnightblue" stroke="midnightblue" points="321.512,-219.84 310.938,-220.516 319.625,-226.582 321.512,-219.84"/>
</g>
<!-- Node24 -->
<g id="node24" class="node"><title>Node24</title>
<g id="a_node24"><a xlink:href="Units_8hh.html" target="_top" xlink:title="boca/units/Units.hh">
<polygon fill="white" stroke="black" points="1058,-201.5 1058,-220.5 1159,-220.5 1159,-201.5 1058,-201.5"/>
<text text-anchor="middle" x="1108.5" y="-208.5" font-family="Helvetica,sans-Serif" font-size="10.00">boca/units/Units.hh</text>
</a>
</g>
</g>
<!-- Node10&#45;&gt;Node24 -->
<g id="edge24" class="edge"><title>Node10&#45;&gt;Node24</title>
<path fill="none" stroke="midnightblue" d="M530.131,-261.184C649.283,-251.051 924.988,-227.606 1047.7,-217.171"/>
<polygon fill="midnightblue" stroke="midnightblue" points="1048.01,-220.657 1057.68,-216.322 1047.42,-213.682 1048.01,-220.657"/>
</g>
<!-- Node42 -->
<g id="node42" class="node"><title>Node42</title>
<g id="a_node42"><a xlink:href="Math_8hh.html" target="_top" xlink:title="boca/math/Math.hh">
<polygon fill="white" stroke="black" points="473,-201.5 473,-220.5 574,-220.5 574,-201.5 473,-201.5"/>
<text text-anchor="middle" x="523.5" y="-208.5" font-family="Helvetica,sans-Serif" font-size="10.00">boca/math/Math.hh</text>
</a>
</g>
</g>
<!-- Node10&#45;&gt;Node42 -->
<g id="edge47" class="edge"><title>Node10&#45;&gt;Node42</title>
<path fill="none" stroke="midnightblue" d="M481.756,-257.083C488.965,-249.298 499.61,-237.801 508.346,-228.367"/>
<polygon fill="midnightblue" stroke="midnightblue" points="511.171,-230.467 515.397,-220.751 506.035,-225.711 511.171,-230.467"/>
</g>
<!-- Node14 -->
<g id="node14" class="node"><title>Node14</title>
<polygon fill="white" stroke="#bfbfbf" points="992,-140 992,-159 1033,-159 1033,-140 992,-140"/>
<text text-anchor="middle" x="1012.5" y="-147" font-family="Helvetica,sans-Serif" font-size="10.00">string</text>
</g>
<!-- Node13&#45;&gt;Node14 -->
<g id="edge13" class="edge"><title>Node13&#45;&gt;Node14</title>
<path fill="none" stroke="midnightblue" d="M812.292,-202.966C859.452,-196.266 926.886,-184.292 983.5,-165 984.932,-164.512 986.383,-163.967 987.833,-163.381"/>
<polygon fill="midnightblue" stroke="midnightblue" points="989.531,-166.454 997.181,-159.125 986.63,-160.083 989.531,-166.454"/>
</g>
<!-- Node15 -->
<g id="node15" class="node"><title>Node15</title>
<polygon fill="white" stroke="#bfbfbf" points="596.5,-140 596.5,-159 640.5,-159 640.5,-140 596.5,-140"/>
<text text-anchor="middle" x="618.5" y="-147" font-family="Helvetica,sans-Serif" font-size="10.00">vector</text>
</g>
<!-- Node13&#45;&gt;Node15 -->
<g id="edge14" class="edge"><title>Node13&#45;&gt;Node15</title>
<path fill="none" stroke="midnightblue" d="M733.096,-201.379C712.071,-192.447 678.383,-178 649.5,-165 648.311,-164.465 647.099,-163.915 645.875,-163.357"/>
<polygon fill="midnightblue" stroke="midnightblue" points="647.037,-160.038 636.491,-159.023 644.102,-166.393 647.037,-160.038"/>
</g>
<!-- Node16 -->
<g id="node16" class="node"><title>Node16</title>
<polygon fill="white" stroke="#bfbfbf" points="658.5,-140 658.5,-159 710.5,-159 710.5,-140 658.5,-140"/>
<text text-anchor="middle" x="684.5" y="-147" font-family="Helvetica,sans-Serif" font-size="10.00">sstream</text>
</g>
<!-- Node13&#45;&gt;Node16 -->
<g id="edge15" class="edge"><title>Node13&#45;&gt;Node16</title>
<path fill="none" stroke="midnightblue" d="M743.614,-201.475C732.854,-192.197 715.429,-177.171 702.279,-165.831"/>
<polygon fill="midnightblue" stroke="midnightblue" points="704.227,-162.889 694.368,-159.009 699.655,-168.19 704.227,-162.889"/>
</g>
<!-- Node17 -->
<g id="node17" class="node"><title>Node17</title>
<polygon fill="white" stroke="#bfbfbf" points="728.5,-140 728.5,-159 778.5,-159 778.5,-140 728.5,-140"/>
<text text-anchor="middle" x="753.5" y="-147" font-family="Helvetica,sans-Serif" font-size="10.00">iomanip</text>
</g>
<!-- Node13&#45;&gt;Node17 -->
<g id="edge16" class="edge"><title>Node13&#45;&gt;Node17</title>
<path fill="none" stroke="midnightblue" d="M753.5,-201.475C753.5,-193.08 753.5,-179.981 753.5,-169.163"/>
<polygon fill="midnightblue" stroke="midnightblue" points="757,-169.009 753.5,-159.009 750,-169.009 757,-169.009"/>
</g>
<!-- Node18 -->
<g id="node18" class="node"><title>Node18</title>
<polygon fill="white" stroke="#bfbfbf" points="796.5,-140 796.5,-159 850.5,-159 850.5,-140 796.5,-140"/>
<text text-anchor="middle" x="823.5" y="-147" font-family="Helvetica,sans-Serif" font-size="10.00">iostream</text>
</g>
<!-- Node13&#45;&gt;Node18 -->
<g id="edge17" class="edge"><title>Node13&#45;&gt;Node18</title>
<path fill="none" stroke="midnightblue" d="M763.529,-201.475C774.549,-192.108 792.46,-176.884 805.843,-165.508"/>
<polygon fill="midnightblue" stroke="midnightblue" points="808.137,-168.152 813.489,-159.009 803.603,-162.819 808.137,-168.152"/>
</g>
<!-- Node19 -->
<g id="node19" class="node"><title>Node19</title>
<polygon fill="white" stroke="#bfbfbf" points="869,-134.5 869,-164.5 974,-164.5 974,-134.5 869,-134.5"/>
<text text-anchor="start" x="877" y="-152.5" font-family="Helvetica,sans-Serif" font-size="10.00">boost/units/systems</text>
<text text-anchor="middle" x="921.5" y="-141.5" font-family="Helvetica,sans-Serif" font-size="10.00">/si/io.hpp</text>
</g>
<!-- Node13&#45;&gt;Node19 -->
<g id="edge18" class="edge"><title>Node13&#45;&gt;Node19</title>
<path fill="none" stroke="midnightblue" d="M777.57,-201.475C802.131,-192.776 840.955,-179.026 872.094,-167.998"/>
<polygon fill="midnightblue" stroke="midnightblue" points="873.648,-171.161 881.906,-164.523 871.311,-164.562 873.648,-171.161"/>
</g>
<!-- Node21 -->
<g id="node21" class="node"><title>Node21</title>
<g id="a_node21"><a xlink:href="EnumIterator_8hh.html" target="_top" xlink:title="boca/generic/EnumIterator.hh">
<polygon fill="white" stroke="black" points="177,-140 177,-159 322,-159 322,-140 177,-140"/>
<text text-anchor="middle" x="249.5" y="-147" font-family="Helvetica,sans-Serif" font-size="10.00">boca/generic/EnumIterator.hh</text>
</a>
</g>
</g>
<!-- Node20&#45;&gt;Node21 -->
<g id="edge20" class="edge"><title>Node20&#45;&gt;Node21</title>
<path fill="none" stroke="midnightblue" d="M276.058,-201.475C271.547,-192.815 264.426,-179.149 258.693,-168.145"/>
<polygon fill="midnightblue" stroke="midnightblue" points="261.658,-166.26 253.933,-159.009 255.45,-169.495 261.658,-166.26"/>
</g>
<!-- Node21&#45;&gt;Node11 -->
<g id="edge23" class="edge"><title>Node21&#45;&gt;Node11</title>
<path fill="none" stroke="midnightblue" d="M235.879,-139.734C219.069,-128.916 190.272,-110.383 170.356,-97.5659"/>
<polygon fill="midnightblue" stroke="midnightblue" points="172.209,-94.5959 161.906,-92.1273 168.42,-100.482 172.209,-94.5959"/>
</g>
<!-- Node22 -->
<g id="node22" class="node"><title>Node22</title>
<polygon fill="white" stroke="#bfbfbf" points="299,-73 299,-92 346,-92 346,-73 299,-73"/>
<text text-anchor="middle" x="322.5" y="-80" font-family="Helvetica,sans-Serif" font-size="10.00">iterator</text>
</g>
<!-- Node21&#45;&gt;Node22 -->
<g id="edge21" class="edge"><title>Node21&#45;&gt;Node22</title>
<path fill="none" stroke="midnightblue" d="M259.345,-139.734C271.057,-129.305 290.819,-111.709 305.122,-98.9732"/>
<polygon fill="midnightblue" stroke="midnightblue" points="307.67,-101.391 312.811,-92.1273 303.015,-96.1634 307.67,-101.391"/>
</g>
<!-- Node23 -->
<g id="node23" class="node"><title>Node23</title>
<polygon fill="white" stroke="#bfbfbf" points="218.5,-73 218.5,-92 280.5,-92 280.5,-73 218.5,-73"/>
<text text-anchor="middle" x="249.5" y="-80" font-family="Helvetica,sans-Serif" font-size="10.00">type_traits</text>
</g>
<!-- Node21&#45;&gt;Node23 -->
<g id="edge22" class="edge"><title>Node21&#45;&gt;Node23</title>
<path fill="none" stroke="midnightblue" d="M249.5,-139.734C249.5,-130.183 249.5,-114.618 249.5,-102.283"/>
<polygon fill="midnightblue" stroke="midnightblue" points="253,-102.127 249.5,-92.1273 246,-102.127 253,-102.127"/>
</g>
<!-- Node25 -->
<g id="node25" class="node"><title>Node25</title>
<polygon fill="white" stroke="#bfbfbf" points="1764,-6 1764,-25 1877,-25 1877,-6 1764,-6"/>
<text text-anchor="middle" x="1820.5" y="-13" font-family="Helvetica,sans-Serif" font-size="10.00">boost/units/cmath.hpp</text>
</g>
<!-- Node24&#45;&gt;Node25 -->
<g id="edge25" class="edge"><title>Node24&#45;&gt;Node25</title>
<path fill="none" stroke="midnightblue" d="M1159.2,-202.18C1252.73,-187.061 1458.16,-150.61 1625.5,-98 1687.51,-78.5031 1757.09,-46.9579 1794.06,-29.3788"/>
<polygon fill="midnightblue" stroke="midnightblue" points="1795.65,-32.496 1803.16,-25.0192 1792.63,-26.1829 1795.65,-32.496"/>
</g>
<!-- Node26 -->
<g id="node26" class="node"><title>Node26</title>
<g id="a_node26"><a xlink:href="Prefixes_8hh.html" target="_top" xlink:title="boca/units/Prefixes.hh">
<polygon fill="white" stroke="black" points="1051.5,-140 1051.5,-159 1165.5,-159 1165.5,-140 1051.5,-140"/>
<text text-anchor="middle" x="1108.5" y="-147" font-family="Helvetica,sans-Serif" font-size="10.00">boca/units/Prefixes.hh</text>
</a>
</g>
</g>
<!-- Node24&#45;&gt;Node26 -->
<g id="edge26" class="edge"><title>Node24&#45;&gt;Node26</title>
<path fill="none" stroke="midnightblue" d="M1108.5,-201.475C1108.5,-193.08 1108.5,-179.981 1108.5,-169.163"/>
<polygon fill="midnightblue" stroke="midnightblue" points="1112,-169.009 1108.5,-159.009 1105,-169.009 1112,-169.009"/>
</g>
<!-- Node27 -->
<g id="node27" class="node"><title>Node27</title>
<polygon fill="white" stroke="#bfbfbf" points="1506.5,-73 1506.5,-92 1616.5,-92 1616.5,-73 1506.5,-73"/>
<text text-anchor="middle" x="1561.5" y="-80" font-family="Helvetica,sans-Serif" font-size="10.00">boost/units/scale.hpp</text>
</g>
<!-- Node26&#45;&gt;Node27 -->
<g id="edge27" class="edge"><title>Node26&#45;&gt;Node27</title>
<path fill="none" stroke="midnightblue" d="M1165.77,-142.763C1241.86,-134.754 1380.33,-118.831 1497.5,-98 1503.68,-96.9007 1510.17,-95.6025 1516.55,-94.242"/>
<polygon fill="midnightblue" stroke="midnightblue" points="1517.4,-97.6389 1526.41,-92.0725 1515.89,-90.8023 1517.4,-97.6389"/>
</g>
<!-- Node28 -->
<g id="node28" class="node"><title>Node28</title>
<polygon fill="white" stroke="#bfbfbf" points="581,-67.5 581,-97.5 706,-97.5 706,-67.5 581,-67.5"/>
<text text-anchor="start" x="589" y="-85.5" font-family="Helvetica,sans-Serif" font-size="10.00">boost/units/make_scaled</text>
<text text-anchor="middle" x="643.5" y="-74.5" font-family="Helvetica,sans-Serif" font-size="10.00">_unit.hpp</text>
</g>
<!-- Node26&#45;&gt;Node28 -->
<g id="edge28" class="edge"><title>Node26&#45;&gt;Node28</title>
<path fill="none" stroke="midnightblue" d="M1073.01,-139.975C1063.17,-137.81 1052.46,-135.637 1042.5,-134 901.466,-110.812 861.748,-120.015 716.455,-98.0479"/>
<polygon fill="midnightblue" stroke="midnightblue" points="716.685,-94.5424 706.27,-96.4836 715.622,-101.461 716.685,-94.5424"/>
</g>
<!-- Node29 -->
<g id="node29" class="node"><title>Node29</title>
<polygon fill="white" stroke="#bfbfbf" points="724,-67.5 724,-97.5 835,-97.5 835,-67.5 724,-67.5"/>
<text text-anchor="start" x="732" y="-85.5" font-family="Helvetica,sans-Serif" font-size="10.00">boost/units/systems</text>
<text text-anchor="middle" x="779.5" y="-74.5" font-family="Helvetica,sans-Serif" font-size="10.00">/si/dimensionless.hpp</text>
</g>
<!-- Node26&#45;&gt;Node29 -->
<g id="edge29" class="edge"><title>Node26&#45;&gt;Node29</title>
<path fill="none" stroke="midnightblue" d="M1070.86,-139.982C1061.6,-137.955 1051.7,-135.847 1042.5,-134 957.889,-117.02 933.838,-115.808 845.102,-98.0701"/>
<polygon fill="midnightblue" stroke="midnightblue" points="845.632,-94.6067 835.138,-96.0638 844.251,-101.469 845.632,-94.6067"/>
</g>
<!-- Node30 -->
<g id="node30" class="node"><title>Node30</title>
<polygon fill="white" stroke="#bfbfbf" points="853.5,-73 853.5,-92 957.5,-92 957.5,-73 853.5,-73"/>
<text text-anchor="middle" x="905.5" y="-80" font-family="Helvetica,sans-Serif" font-size="10.00">boost/units/pow.hpp</text>
</g>
<!-- Node26&#45;&gt;Node30 -->
<g id="edge30" class="edge"><title>Node26&#45;&gt;Node30</title>
<path fill="none" stroke="midnightblue" d="M1081.54,-139.869C1045.65,-128.376 982.041,-108.008 941.911,-95.1586"/>
<polygon fill="midnightblue" stroke="midnightblue" points="942.836,-91.7799 932.245,-92.0637 940.701,-98.4465 942.836,-91.7799"/>
</g>
<!-- Node31 -->
<g id="node31" class="node"><title>Node31</title>
<g id="a_node31"><a xlink:href="Si_8hh.html" target="_top" xlink:title="boca/units/Si.hh">
<polygon fill="white" stroke="black" points="1401,-73 1401,-92 1488,-92 1488,-73 1401,-73"/>
<text text-anchor="middle" x="1444.5" y="-80" font-family="Helvetica,sans-Serif" font-size="10.00">boca/units/Si.hh</text>
</a>
</g>
</g>
<!-- Node26&#45;&gt;Node31 -->
<g id="edge31" class="edge"><title>Node26&#45;&gt;Node31</title>
<path fill="none" stroke="midnightblue" d="M1152.77,-139.936C1214.09,-128.074 1324.75,-106.666 1390.74,-93.9005"/>
<polygon fill="midnightblue" stroke="midnightblue" points="1391.78,-97.2644 1400.93,-91.9287 1390.45,-90.3918 1391.78,-97.2644"/>
</g>
<!-- Node36 -->
<g id="node36" class="node"><title>Node36</title>
<g id="a_node36"><a xlink:href="Barn_8hh.html" target="_top" xlink:title="boca/units/Barn.hh">
<polygon fill="white" stroke="black" points="1125.5,-73 1125.5,-92 1223.5,-92 1223.5,-73 1125.5,-73"/>
<text text-anchor="middle" x="1174.5" y="-80" font-family="Helvetica,sans-Serif" font-size="10.00">boca/units/Barn.hh</text>
</a>
</g>
</g>
<!-- Node26&#45;&gt;Node36 -->
<g id="edge37" class="edge"><title>Node26&#45;&gt;Node36</title>
<path fill="none" stroke="midnightblue" d="M1117.4,-139.734C1127.89,-129.403 1145.52,-112.037 1158.42,-99.3315"/>
<polygon fill="midnightblue" stroke="midnightblue" points="1161.07,-101.638 1165.74,-92.1273 1156.16,-96.6505 1161.07,-101.638"/>
</g>
<!-- Node40 -->
<g id="node40" class="node"><title>Node40</title>
<g id="a_node40"><a xlink:href="ElectronVolt_8hh.html" target="_top" xlink:title="boca/units/ElectronVolt.hh">
<polygon fill="white" stroke="black" points="976,-73 976,-92 1107,-92 1107,-73 976,-73"/>
<text text-anchor="middle" x="1041.5" y="-80" font-family="Helvetica,sans-Serif" font-size="10.00">boca/units/ElectronVolt.hh</text>
</a>
</g>
</g>
<!-- Node26&#45;&gt;Node40 -->
<g id="edge42" class="edge"><title>Node26&#45;&gt;Node40</title>
<path fill="none" stroke="midnightblue" d="M1099.46,-139.734C1088.82,-129.403 1070.92,-112.037 1057.82,-99.3315"/>
<polygon fill="midnightblue" stroke="midnightblue" points="1060.01,-96.5784 1050.39,-92.1273 1055.13,-101.603 1060.01,-96.5784"/>
</g>
<!-- Node31&#45;&gt;Node25 -->
<g id="edge35" class="edge"><title>Node31&#45;&gt;Node25</title>
<path fill="none" stroke="midnightblue" d="M1472.94,-72.9962C1480.85,-70.8314 1489.46,-68.6528 1497.5,-67 1610.9,-43.6758 1641.57,-51.6207 1755.5,-31 1761.7,-29.8783 1768.2,-28.5776 1774.6,-27.2247"/>
<polygon fill="midnightblue" stroke="midnightblue" points="1775.47,-30.6157 1784.5,-25.0741 1773.99,-23.775 1775.47,-30.6157"/>
</g>
<!-- Node32 -->
<g id="node32" class="node"><title>Node32</title>
<polygon fill="white" stroke="#bfbfbf" points="1250,-6 1250,-25 1371,-25 1371,-6 1250,-6"/>
<text text-anchor="middle" x="1310.5" y="-13" font-family="Helvetica,sans-Serif" font-size="10.00">boost/units/quantity.hpp</text>
</g>
<!-- Node31&#45;&gt;Node32 -->
<g id="edge32" class="edge"><title>Node31&#45;&gt;Node32</title>
<path fill="none" stroke="midnightblue" d="M1426.71,-72.8685C1403.88,-61.7961 1364.07,-42.4862 1337.5,-29.5978"/>
<polygon fill="midnightblue" stroke="midnightblue" points="1338.89,-26.3826 1328.37,-25.1672 1335.84,-32.6807 1338.89,-26.3826"/>
</g>
<!-- Node33 -->
<g id="node33" class="node"><title>Node33</title>
<polygon fill="white" stroke="#bfbfbf" points="1518,-0.5 1518,-30.5 1623,-30.5 1623,-0.5 1518,-0.5"/>
<text text-anchor="start" x="1526" y="-18.5" font-family="Helvetica,sans-Serif" font-size="10.00">boost/units/systems</text>
<text text-anchor="middle" x="1570.5" y="-7.5" font-family="Helvetica,sans-Serif" font-size="10.00">/si/plane_angle.hpp</text>
</g>
<!-- Node31&#45;&gt;Node33 -->
<g id="edge33" class="edge"><title>Node31&#45;&gt;Node33</title>
<path fill="none" stroke="midnightblue" d="M1461.23,-72.8685C1479.67,-63.3566 1509.89,-47.7655 1533.88,-35.3888"/>
<polygon fill="midnightblue" stroke="midnightblue" points="1535.79,-38.3468 1543.07,-30.6516 1532.58,-32.1258 1535.79,-38.3468"/>
</g>
<!-- Node34 -->
<g id="node34" class="node"><title>Node34</title>
<polygon fill="white" stroke="#bfbfbf" points="1641,-0.5 1641,-30.5 1746,-30.5 1746,-0.5 1641,-0.5"/>
<text text-anchor="start" x="1649" y="-18.5" font-family="Helvetica,sans-Serif" font-size="10.00">boost/units/systems</text>
<text text-anchor="middle" x="1693.5" y="-7.5" font-family="Helvetica,sans-Serif" font-size="10.00">/si/length.hpp</text>
</g>
<!-- Node31&#45;&gt;Node34 -->
<g id="edge34" class="edge"><title>Node31&#45;&gt;Node34</title>
<path fill="none" stroke="midnightblue" d="M1475.31,-72.9884C1482.58,-71.0023 1490.31,-68.9101 1497.5,-67 1541.93,-55.2005 1592.13,-42.2741 1630.6,-32.4532"/>
<polygon fill="midnightblue" stroke="midnightblue" points="1631.79,-35.7604 1640.62,-29.8978 1630.07,-28.9774 1631.79,-35.7604"/>
</g>
<!-- Node35 -->
<g id="node35" class="node"><title>Node35</title>
<polygon fill="white" stroke="#bfbfbf" points="1389,-0.5 1389,-30.5 1500,-30.5 1500,-0.5 1389,-0.5"/>
<text text-anchor="start" x="1397" y="-18.5" font-family="Helvetica,sans-Serif" font-size="10.00">boost/math/constants</text>
<text text-anchor="middle" x="1444.5" y="-7.5" font-family="Helvetica,sans-Serif" font-size="10.00">/constants.hpp</text>
</g>
<!-- Node31&#45;&gt;Node35 -->
<g id="edge36" class="edge"><title>Node31&#45;&gt;Node35</title>
<path fill="none" stroke="midnightblue" d="M1444.5,-72.7338C1444.5,-64.5406 1444.5,-51.9225 1444.5,-40.7136"/>
<polygon fill="midnightblue" stroke="midnightblue" points="1448,-40.589 1444.5,-30.589 1441,-40.5891 1448,-40.589"/>
</g>
<!-- Node36&#45;&gt;Node32 -->
<g id="edge40" class="edge"><title>Node36&#45;&gt;Node32</title>
<path fill="none" stroke="midnightblue" d="M1192.56,-72.8685C1215.73,-61.7961 1256.13,-42.4862 1283.1,-29.5978"/>
<polygon fill="midnightblue" stroke="midnightblue" points="1284.85,-32.6373 1292.37,-25.1672 1281.83,-26.3216 1284.85,-32.6373"/>
</g>
<!-- Node37 -->
<g id="node37" class="node"><title>Node37</title>
<polygon fill="white" stroke="#bfbfbf" points="795,-6 795,-25 952,-25 952,-6 795,-6"/>
<text text-anchor="middle" x="873.5" y="-13" font-family="Helvetica,sans-Serif" font-size="10.00">boost/units/base_dimension.hpp</text>
</g>
<!-- Node36&#45;&gt;Node37 -->
<g id="edge38" class="edge"><title>Node36&#45;&gt;Node37</title>
<path fill="none" stroke="midnightblue" d="M1141.43,-72.9892C1133.29,-70.9626 1124.59,-68.8521 1116.5,-67 1051.46,-52.1191 976.208,-36.7656 926.884,-26.9546"/>
<polygon fill="midnightblue" stroke="midnightblue" points="927.561,-23.5208 917.071,-25.0078 926.199,-30.3869 927.561,-23.5208"/>
</g>
<!-- Node38 -->
<g id="node38" class="node"><title>Node38</title>
<polygon fill="white" stroke="#bfbfbf" points="970.5,-6 970.5,-25 1098.5,-25 1098.5,-6 970.5,-6"/>
<text text-anchor="middle" x="1034.5" y="-13" font-family="Helvetica,sans-Serif" font-size="10.00">boost/units/base_unit.hpp</text>
</g>
<!-- Node36&#45;&gt;Node38 -->
<g id="edge39" class="edge"><title>Node36&#45;&gt;Node38</title>
<path fill="none" stroke="midnightblue" d="M1155.91,-72.8685C1131.96,-61.7476 1090.11,-42.3167 1062.35,-29.4286"/>
<polygon fill="midnightblue" stroke="midnightblue" points="1063.71,-26.2038 1053.17,-25.1672 1060.76,-32.5529 1063.71,-26.2038"/>
</g>
<!-- Node39 -->
<g id="node39" class="node"><title>Node39</title>
<polygon fill="white" stroke="#bfbfbf" points="1117,-0.5 1117,-30.5 1232,-30.5 1232,-0.5 1117,-0.5"/>
<text text-anchor="start" x="1125" y="-18.5" font-family="Helvetica,sans-Serif" font-size="10.00">boost/units/base_units</text>
<text text-anchor="middle" x="1174.5" y="-7.5" font-family="Helvetica,sans-Serif" font-size="10.00">/metric/barn.hpp</text>
</g>
<!-- Node36&#45;&gt;Node39 -->
<g id="edge41" class="edge"><title>Node36&#45;&gt;Node39</title>
<path fill="none" stroke="midnightblue" d="M1174.5,-72.7338C1174.5,-64.5406 1174.5,-51.9225 1174.5,-40.7136"/>
<polygon fill="midnightblue" stroke="midnightblue" points="1178,-40.589 1174.5,-30.589 1171,-40.5891 1178,-40.589"/>
</g>
<!-- Node40&#45;&gt;Node32 -->
<g id="edge45" class="edge"><title>Node40&#45;&gt;Node32</title>
<path fill="none" stroke="midnightblue" d="M1076.94,-72.9355C1125.33,-61.2442 1212.09,-40.2797 1265.16,-27.4566"/>
<polygon fill="midnightblue" stroke="midnightblue" points="1266.08,-30.8343 1274.98,-25.0834 1264.44,-24.0302 1266.08,-30.8343"/>
</g>
<!-- Node40&#45;&gt;Node37 -->
<g id="edge43" class="edge"><title>Node40&#45;&gt;Node37</title>
<path fill="none" stroke="midnightblue" d="M1019.19,-72.8685C989.99,-61.5706 938.622,-41.6961 905.338,-28.8183"/>
<polygon fill="midnightblue" stroke="midnightblue" points="906.223,-25.4079 895.634,-25.0637 903.697,-31.9363 906.223,-25.4079"/>
</g>
<!-- Node40&#45;&gt;Node38 -->
<g id="edge44" class="edge"><title>Node40&#45;&gt;Node38</title>
<path fill="none" stroke="midnightblue" d="M1040.56,-72.7338C1039.53,-63.1826 1037.85,-47.6183 1036.52,-35.2829"/>
<polygon fill="midnightblue" stroke="midnightblue" points="1039.98,-34.695 1035.43,-25.1273 1033.02,-35.4446 1039.98,-34.695"/>
</g>
<!-- Node41 -->
<g id="node41" class="node"><title>Node41</title>
<polygon fill="white" stroke="#bfbfbf" points="672,-0.5 672,-30.5 777,-30.5 777,-0.5 672,-0.5"/>
<text text-anchor="start" x="680" y="-18.5" font-family="Helvetica,sans-Serif" font-size="10.00">boost/units/systems</text>
<text text-anchor="middle" x="724.5" y="-7.5" font-family="Helvetica,sans-Serif" font-size="10.00">/si/energy.hpp</text>
</g>
<!-- Node40&#45;&gt;Node41 -->
<g id="edge46" class="edge"><title>Node40&#45;&gt;Node41</title>
<path fill="none" stroke="midnightblue" d="M997.403,-72.9563C939.398,-61.6877 839.587,-42.1846 787.081,-31.0695"/>
<polygon fill="midnightblue" stroke="midnightblue" points="787.749,-27.6331 777.238,-28.9632 786.284,-34.4782 787.749,-27.6331"/>
</g>
<!-- Node42&#45;&gt;Node15 -->
<g id="edge48" class="edge"><title>Node42&#45;&gt;Node15</title>
<path fill="none" stroke="midnightblue" d="M537.111,-201.475C552.561,-191.799 577.99,-175.872 596.316,-164.394"/>
<polygon fill="midnightblue" stroke="midnightblue" points="598.297,-167.283 604.914,-159.009 594.581,-161.351 598.297,-167.283"/>
</g>
<!-- Node43 -->
<g id="node43" class="node"><title>Node43</title>
<polygon fill="white" stroke="#bfbfbf" points="340.5,-134.5 340.5,-164.5 450.5,-164.5 450.5,-134.5 340.5,-134.5"/>
<text text-anchor="start" x="348.5" y="-152.5" font-family="Helvetica,sans-Serif" font-size="10.00">boost/range/algorithm</text>
<text text-anchor="middle" x="395.5" y="-141.5" font-family="Helvetica,sans-Serif" font-size="10.00">/lower_bound.hpp</text>
</g>
<!-- Node42&#45;&gt;Node43 -->
<g id="edge49" class="edge"><title>Node42&#45;&gt;Node43</title>
<path fill="none" stroke="midnightblue" d="M505.161,-201.475C486.934,-193.002 458.397,-179.737 435.003,-168.863"/>
<polygon fill="midnightblue" stroke="midnightblue" points="436.211,-165.564 425.667,-164.523 433.26,-171.912 436.211,-165.564"/>
</g>
<!-- Node44 -->
<g id="node44" class="node"><title>Node44</title>
<polygon fill="white" stroke="#bfbfbf" points="468.5,-134.5 468.5,-164.5 578.5,-164.5 578.5,-134.5 468.5,-134.5"/>
<text text-anchor="start" x="476.5" y="-152.5" font-family="Helvetica,sans-Serif" font-size="10.00">boost/range/algorithm</text>
<text text-anchor="middle" x="523.5" y="-141.5" font-family="Helvetica,sans-Serif" font-size="10.00">/upper_bound.hpp</text>
</g>
<!-- Node42&#45;&gt;Node44 -->
<g id="edge50" class="edge"><title>Node42&#45;&gt;Node44</title>
<path fill="none" stroke="midnightblue" d="M523.5,-201.475C523.5,-194.471 523.5,-184.192 523.5,-174.696"/>
<polygon fill="midnightblue" stroke="midnightblue" points="527,-174.523 523.5,-164.523 520,-174.523 527,-174.523"/>
</g>
</g>
</svg>
