<?xml version="1.0" encoding="UTF-8" standalone="no"?>
<!DOCTYPE svg PUBLIC "-//W3C//DTD SVG 1.1//EN"
 "http://www.w3.org/Graphics/SVG/1.1/DTD/svg11.dtd">
<!-- Generated by graphviz version 2.38.0 (20140413.2041)
 -->
<!-- Title: examples/heavyhiggs/source/MainCutNeutral.cpp Pages: 1 -->
<svg width="2190pt" height="598pt"
 viewBox="0.00 0.00 2190.00 598.00" xmlns="http://www.w3.org/2000/svg" xmlns:xlink="http://www.w3.org/1999/xlink">
<g id="graph0" class="graph" transform="scale(1 1) rotate(0) translate(4 594)">
<title>examples/heavyhiggs/source/MainCutNeutral.cpp</title>
<polygon fill="white" stroke="none" points="-4,4 -4,-594 2186,-594 2186,4 -4,4"/>
<!-- Node1 -->
<g id="node1" class="node"><title>Node1</title>
<polygon fill="#bfbfbf" stroke="black" points="931,-559.5 931,-589.5 1070,-589.5 1070,-559.5 931,-559.5"/>
<text text-anchor="start" x="939" y="-577.5" font-family="Helvetica,sans-Serif" font-size="10.00">examples/heavyhiggs</text>
<text text-anchor="middle" x="1000.5" y="-566.5" font-family="Helvetica,sans-Serif" font-size="10.00">/source/MainCutNeutral.cpp</text>
</g>
<!-- Node2 -->
<g id="node2" class="node"><title>Node2</title>
<g id="a_node2"><a xlink:href="Neutral_8hh.html" target="_top" xlink:title="heavyhiggs/analysis\l/Neutral.hh">
<polygon fill="white" stroke="black" points="772,-492.5 772,-522.5 877,-522.5 877,-492.5 772,-492.5"/>
<text text-anchor="start" x="780" y="-510.5" font-family="Helvetica,sans-Serif" font-size="10.00">heavyhiggs/analysis</text>
<text text-anchor="middle" x="824.5" y="-499.5" font-family="Helvetica,sans-Serif" font-size="10.00">/Neutral.hh</text>
</a>
</g>
</g>
<!-- Node1&#45;&gt;Node2 -->
<g id="edge1" class="edge"><title>Node1&#45;&gt;Node2</title>
<path fill="none" stroke="midnightblue" d="M962.311,-559.396C935.903,-549.643 900.572,-536.595 872.296,-526.152"/>
<polygon fill="midnightblue" stroke="midnightblue" points="873.208,-522.758 862.615,-522.577 870.783,-529.324 873.208,-522.758"/>
</g>
<!-- Node27 -->
<g id="node27" class="node"><title>Node27</title>
<g id="a_node27"><a xlink:href="tagger_2CutNeutral_8hh.html" target="_top" xlink:title="heavyhiggs/tagger/CutNeutral.hh">
<polygon fill="white" stroke="black" points="1233.5,-431 1233.5,-450 1393.5,-450 1393.5,-431 1233.5,-431"/>
<text text-anchor="middle" x="1313.5" y="-438" font-family="Helvetica,sans-Serif" font-size="10.00">heavyhiggs/tagger/CutNeutral.hh</text>
</a>
</g>
</g>
<!-- Node1&#45;&gt;Node27 -->
<g id="edge33" class="edge"><title>Node1&#45;&gt;Node27</title>
<path fill="none" stroke="midnightblue" d="M1033.7,-559.499C1094.98,-533.657 1224.93,-478.852 1283.62,-454.1"/>
<polygon fill="midnightblue" stroke="midnightblue" points="1285.21,-457.228 1293.07,-450.117 1282.49,-450.778 1285.21,-457.228"/>
</g>
<!-- Node3 -->
<g id="node3" class="node"><title>Node3</title>
<g id="a_node3"><a xlink:href="HeavyHiggs_8hh.html" target="_top" xlink:title="heavyhiggs/analysis\l/HeavyHiggs.hh">
<polygon fill="white" stroke="black" points="228,-425.5 228,-455.5 333,-455.5 333,-425.5 228,-425.5"/>
<text text-anchor="start" x="236" y="-443.5" font-family="Helvetica,sans-Serif" font-size="10.00">heavyhiggs/analysis</text>
<text text-anchor="middle" x="280.5" y="-432.5" font-family="Helvetica,sans-Serif" font-size="10.00">/HeavyHiggs.hh</text>
</a>
</g>
</g>
<!-- Node2&#45;&gt;Node3 -->
<g id="edge2" class="edge"><title>Node2&#45;&gt;Node3</title>
<path fill="none" stroke="midnightblue" d="M771.845,-500.208C671.102,-488.171 451.492,-461.931 343.299,-449.004"/>
<polygon fill="midnightblue" stroke="midnightblue" points="343.529,-445.506 333.184,-447.795 342.698,-452.457 343.529,-445.506"/>
</g>
<!-- Node4 -->
<g id="node4" class="node"><title>Node4</title>
<g id="a_node4"><a xlink:href="boca_2analysis_2Analysis_8hh.html" target="_top" xlink:title="boca/analysis/Analysis.hh">
<polygon fill="white" stroke="black" points="391,-364 391,-383 522,-383 522,-364 391,-364"/>
<text text-anchor="middle" x="456.5" y="-371" font-family="Helvetica,sans-Serif" font-size="10.00">boca/analysis/Analysis.hh</text>
</a>
</g>
</g>
<!-- Node3&#45;&gt;Node4 -->
<g id="edge3" class="edge"><title>Node3&#45;&gt;Node4</title>
<path fill="none" stroke="midnightblue" d="M318.689,-425.396C350.117,-413.789 394.183,-397.515 423.956,-386.519"/>
<polygon fill="midnightblue" stroke="midnightblue" points="425.298,-389.755 433.466,-383.007 422.872,-383.188 425.298,-389.755"/>
</g>
<!-- Node18 -->
<g id="node18" class="node"><title>Node18</title>
<g id="a_node18"><a xlink:href="Settings_8hh.html" target="_top" xlink:title="boca/Settings.hh">
<polygon fill="white" stroke="black" points="452.5,-112.5 452.5,-131.5 542.5,-131.5 542.5,-112.5 452.5,-112.5"/>
<text text-anchor="middle" x="497.5" y="-119.5" font-family="Helvetica,sans-Serif" font-size="10.00">boca/Settings.hh</text>
</a>
</g>
</g>
<!-- Node3&#45;&gt;Node18 -->
<g id="edge29" class="edge"><title>Node3&#45;&gt;Node18</title>
<path fill="none" stroke="midnightblue" d="M264.961,-425.41C243.777,-405.035 206.831,-365.042 192.5,-322 178.771,-280.766 164.703,-209.309 203.5,-168 235.11,-134.344 366.034,-125.75 442.087,-123.627"/>
<polygon fill="midnightblue" stroke="midnightblue" points="442.529,-127.117 452.438,-123.369 442.354,-120.12 442.529,-127.117"/>
</g>
<!-- Node25 -->
<g id="node25" class="node"><title>Node25</title>
<g id="a_node25"><a xlink:href="DEBUG__MACROS_8hh.html" target="_top" xlink:title="boca/generic/DEBUG\l_MACROS.hh">
<polygon fill="white" stroke="black" points="4,-358.5 4,-388.5 115,-388.5 115,-358.5 4,-358.5"/>
<text text-anchor="start" x="12" y="-376.5" font-family="Helvetica,sans-Serif" font-size="10.00">boca/generic/DEBUG</text>
<text text-anchor="middle" x="59.5" y="-365.5" font-family="Helvetica,sans-Serif" font-size="10.00">_MACROS.hh</text>
</a>
</g>
</g>
<!-- Node3&#45;&gt;Node25 -->
<g id="edge30" class="edge"><title>Node3&#45;&gt;Node25</title>
<path fill="none" stroke="midnightblue" d="M232.818,-425.476C198.951,-415.515 153.293,-402.086 117.342,-391.512"/>
<polygon fill="midnightblue" stroke="midnightblue" points="118.058,-388.075 107.477,-388.611 116.083,-394.79 118.058,-388.075"/>
</g>
<!-- Node5 -->
<g id="node5" class="node"><title>Node5</title>
<polygon fill="white" stroke="#bfbfbf" points="482.5,-297 482.5,-316 526.5,-316 526.5,-297 482.5,-297"/>
<text text-anchor="middle" x="504.5" y="-304" font-family="Helvetica,sans-Serif" font-size="10.00">thread</text>
</g>
<!-- Node4&#45;&gt;Node5 -->
<g id="edge4" class="edge"><title>Node4&#45;&gt;Node5</title>
<path fill="none" stroke="midnightblue" d="M462.973,-363.734C470.387,-353.695 482.705,-337.014 492.004,-324.421"/>
<polygon fill="midnightblue" stroke="midnightblue" points="495.004,-326.251 498.129,-316.127 489.373,-322.092 495.004,-326.251"/>
</g>
<!-- Node6 -->
<g id="node6" class="node"><title>Node6</title>
<g id="a_node6"><a xlink:href="Types_8hh.html" target="_top" xlink:title="boca/generic/Types.hh">
<polygon fill="white" stroke="black" points="212.5,-235.5 212.5,-254.5 328.5,-254.5 328.5,-235.5 212.5,-235.5"/>
<text text-anchor="middle" x="270.5" y="-242.5" font-family="Helvetica,sans-Serif" font-size="10.00">boca/generic/Types.hh</text>
</a>
</g>
</g>
<!-- Node4&#45;&gt;Node6 -->
<g id="edge5" class="edge"><title>Node4&#45;&gt;Node6</title>
<path fill="none" stroke="midnightblue" d="M390.78,-368.726C323.334,-363.318 225.025,-350.641 201.5,-322 192.755,-311.353 194.938,-303.115 201.5,-291 209.249,-276.696 223.734,-266.219 237.44,-258.992"/>
<polygon fill="midnightblue" stroke="midnightblue" points="239.238,-262.01 246.712,-254.501 236.186,-255.71 239.238,-262.01"/>
</g>
<!-- Node9 -->
<g id="node9" class="node"><title>Node9</title>
<g id="a_node9"><a xlink:href="Io_8hh.html" target="_top" xlink:title="boca/io/Io.hh">
<polygon fill="white" stroke="black" points="705,-112.5 705,-131.5 778,-131.5 778,-112.5 705,-112.5"/>
<text text-anchor="middle" x="741.5" y="-119.5" font-family="Helvetica,sans-Serif" font-size="10.00">boca/io/Io.hh</text>
</a>
</g>
</g>
<!-- Node4&#45;&gt;Node9 -->
<g id="edge8" class="edge"><title>Node4&#45;&gt;Node9</title>
<path fill="none" stroke="midnightblue" d="M481.783,-363.927C500.324,-356.154 524.163,-342.702 535.5,-322 569.166,-260.522 456.736,-221.937 501.5,-168 525.543,-139.03 631.749,-128.598 694.536,-124.925"/>
<polygon fill="midnightblue" stroke="midnightblue" points="694.804,-128.416 704.597,-124.373 694.42,-121.426 694.804,-128.416"/>
</g>
<!-- Node10 -->
<g id="node10" class="node"><title>Node10</title>
<g id="a_node10"><a xlink:href="Plotting_8hh.html" target="_top" xlink:title="boca/plotting/Plotting.hh">
<polygon fill="white" stroke="red" points="210.5,-297 210.5,-316 332.5,-316 332.5,-297 210.5,-297"/>
<text text-anchor="middle" x="271.5" y="-304" font-family="Helvetica,sans-Serif" font-size="10.00">boca/plotting/Plotting.hh</text>
</a>
</g>
</g>
<!-- Node4&#45;&gt;Node10 -->
<g id="edge10" class="edge"><title>Node4&#45;&gt;Node10</title>
<path fill="none" stroke="midnightblue" d="M431.933,-363.869C399.501,-352.473 342.235,-332.353 305.616,-319.487"/>
<polygon fill="midnightblue" stroke="midnightblue" points="306.468,-316.076 295.874,-316.064 304.148,-322.681 306.468,-316.076"/>
</g>
<!-- Node11 -->
<g id="node11" class="node"><title>Node11</title>
<g id="a_node11"><a xlink:href="analysis_2Base_8hh.html" target="_top" xlink:title="boca/analysis/Base.hh">
<polygon fill="white" stroke="red" points="582.5,-297 582.5,-316 698.5,-316 698.5,-297 582.5,-297"/>
<text text-anchor="middle" x="640.5" y="-304" font-family="Helvetica,sans-Serif" font-size="10.00">boca/analysis/Base.hh</text>
</a>
</g>
</g>
<!-- Node4&#45;&gt;Node11 -->
<g id="edge12" class="edge"><title>Node4&#45;&gt;Node11</title>
<path fill="none" stroke="midnightblue" d="M480.934,-363.869C513.191,-352.473 570.147,-332.353 606.568,-319.487"/>
<polygon fill="midnightblue" stroke="midnightblue" points="607.995,-322.695 616.258,-316.064 605.663,-316.094 607.995,-322.695"/>
</g>
<!-- Node22 -->
<g id="node22" class="node"><title>Node22</title>
<g id="a_node22"><a xlink:href="Data_8hh.html" target="_top" xlink:title="boca/analysis/Data.hh">
<polygon fill="white" stroke="red" points="350.5,-297 350.5,-316 464.5,-316 464.5,-297 350.5,-297"/>
<text text-anchor="middle" x="407.5" y="-304" font-family="Helvetica,sans-Serif" font-size="10.00">boca/analysis/Data.hh</text>
</a>
</g>
</g>
<!-- Node4&#45;&gt;Node22 -->
<g id="edge26" class="edge"><title>Node4&#45;&gt;Node22</title>
<path fill="none" stroke="midnightblue" d="M449.892,-363.734C442.324,-353.695 429.749,-337.014 420.256,-324.421"/>
<polygon fill="midnightblue" stroke="midnightblue" points="422.818,-322.006 414.004,-316.127 417.228,-326.219 422.818,-322.006"/>
</g>
<!-- Node23 -->
<g id="node23" class="node"><title>Node23</title>
<g id="a_node23"><a xlink:href="boca_2Event_8hh.html" target="_top" xlink:title="boca/Event.hh">
<polygon fill="white" stroke="red" points="1052.5,-297 1052.5,-316 1132.5,-316 1132.5,-297 1052.5,-297"/>
<text text-anchor="middle" x="1092.5" y="-304" font-family="Helvetica,sans-Serif" font-size="10.00">boca/Event.hh</text>
</a>
</g>
</g>
<!-- Node4&#45;&gt;Node23 -->
<g id="edge27" class="edge"><title>Node4&#45;&gt;Node23</title>
<path fill="none" stroke="midnightblue" d="M522.279,-366.359C619.616,-357.191 807.731,-339.16 967.5,-322 992.082,-319.36 1019.36,-316.22 1042.14,-313.539"/>
<polygon fill="midnightblue" stroke="midnightblue" points="1042.75,-316.992 1052.27,-312.342 1041.93,-310.04 1042.75,-316.992"/>
</g>
<!-- Node7 -->
<g id="node7" class="node"><title>Node7</title>
<polygon fill="white" stroke="#bfbfbf" points="748,-0.5 748,-19.5 789,-19.5 789,-0.5 748,-0.5"/>
<text text-anchor="middle" x="768.5" y="-7.5" font-family="Helvetica,sans-Serif" font-size="10.00">string</text>
</g>
<!-- Node6&#45;&gt;Node7 -->
<g id="edge6" class="edge"><title>Node6&#45;&gt;Node7</title>
<path fill="none" stroke="midnightblue" d="M247.712,-235.471C232.174,-228.316 212.793,-216.435 203.5,-199 173.607,-142.913 160.38,-102.691 203.5,-56 239.923,-16.5602 624.838,-11.6612 737.616,-11.0741"/>
<polygon fill="midnightblue" stroke="midnightblue" points="737.97,-14.5726 747.954,-11.0286 737.939,-7.57271 737.97,-14.5726"/>
</g>
<!-- Node8 -->
<g id="node8" class="node"><title>Node8</title>
<polygon fill="white" stroke="#bfbfbf" points="212.5,-174 212.5,-193 328.5,-193 328.5,-174 212.5,-174"/>
<text text-anchor="middle" x="270.5" y="-181" font-family="Helvetica,sans-Serif" font-size="10.00">boost/range/irange.hpp</text>
</g>
<!-- Node6&#45;&gt;Node8 -->
<g id="edge7" class="edge"><title>Node6&#45;&gt;Node8</title>
<path fill="none" stroke="midnightblue" d="M270.5,-235.475C270.5,-227.08 270.5,-213.981 270.5,-203.163"/>
<polygon fill="midnightblue" stroke="midnightblue" points="274,-203.009 270.5,-193.009 267,-203.009 274,-203.009"/>
</g>
<!-- Node9&#45;&gt;Node7 -->
<g id="edge9" class="edge"><title>Node9&#45;&gt;Node7</title>
<path fill="none" stroke="midnightblue" d="M743.619,-112.368C747.976,-94.617 758.027,-53.6664 763.935,-29.5974"/>
<polygon fill="midnightblue" stroke="midnightblue" points="767.406,-30.1375 766.391,-19.5914 760.608,-28.4688 767.406,-30.1375"/>
</g>
<!-- Node10&#45;&gt;Node6 -->
<g id="edge11" class="edge"><title>Node10&#45;&gt;Node6</title>
<path fill="none" stroke="midnightblue" d="M271.357,-296.975C271.216,-288.58 270.995,-275.481 270.814,-264.663"/>
<polygon fill="midnightblue" stroke="midnightblue" points="274.311,-264.449 270.643,-254.509 267.312,-264.567 274.311,-264.449"/>
</g>
<!-- Node12 -->
<g id="node12" class="node"><title>Node12</title>
<g id="a_node12"><a xlink:href="PreCuts_8hh.html" target="_top" xlink:title="boca/PreCuts.hh">
<polygon fill="white" stroke="black" points="753.5,-235.5 753.5,-254.5 843.5,-254.5 843.5,-235.5 753.5,-235.5"/>
<text text-anchor="middle" x="798.5" y="-242.5" font-family="Helvetica,sans-Serif" font-size="10.00">boca/PreCuts.hh</text>
</a>
</g>
</g>
<!-- Node11&#45;&gt;Node12 -->
<g id="edge13" class="edge"><title>Node11&#45;&gt;Node12</title>
<path fill="none" stroke="midnightblue" d="M663.138,-296.975C690.24,-286.769 735.81,-269.608 766.504,-258.049"/>
<polygon fill="midnightblue" stroke="midnightblue" points="767.78,-261.309 775.904,-254.509 765.313,-254.758 767.78,-261.309"/>
</g>
<!-- Node13 -->
<g id="node13" class="node"><title>Node13</title>
<g id="a_node13"><a xlink:href="Range_8hh.html" target="_top" xlink:title="boca/physics/Range.hh">
<polygon fill="white" stroke="red" points="621,-56.5 621,-75.5 740,-75.5 740,-56.5 621,-56.5"/>
<text text-anchor="middle" x="680.5" y="-63.5" font-family="Helvetica,sans-Serif" font-size="10.00">boca/physics/Range.hh</text>
</a>
</g>
</g>
<!-- Node12&#45;&gt;Node13 -->
<g id="edge14" class="edge"><title>Node12&#45;&gt;Node13</title>
<path fill="none" stroke="midnightblue" d="M798.565,-235.372C798.224,-220.006 795.386,-187.669 778.5,-168 752.307,-137.492 721.224,-162.904 695.5,-132 684.743,-119.077 681.363,-99.9049 680.452,-85.729"/>
<polygon fill="midnightblue" stroke="midnightblue" points="683.948,-85.5395 680.157,-75.646 676.951,-85.7441 683.948,-85.5395"/>
</g>
<!-- Node14 -->
<g id="node14" class="node"><title>Node14</title>
<g id="a_node14"><a xlink:href="PreCut_8hh.html" target="_top" xlink:title="boca/PreCut.hh">
<polygon fill="white" stroke="black" points="921,-174 921,-193 1006,-193 1006,-174 921,-174"/>
<text text-anchor="middle" x="963.5" y="-181" font-family="Helvetica,sans-Serif" font-size="10.00">boca/PreCut.hh</text>
</a>
</g>
</g>
<!-- Node12&#45;&gt;Node14 -->
<g id="edge15" class="edge"><title>Node12&#45;&gt;Node14</title>
<path fill="none" stroke="midnightblue" d="M822.14,-235.475C850.444,-225.269 898.033,-208.108 930.086,-196.549"/>
<polygon fill="midnightblue" stroke="midnightblue" points="931.684,-199.694 939.903,-193.009 929.309,-193.109 931.684,-199.694"/>
</g>
<!-- Node17 -->
<g id="node17" class="node"><title>Node17</title>
<g id="a_node17"><a xlink:href="Vector_8hh.html" target="_top" xlink:title="boca/generic/Vector.hh">
<polygon fill="white" stroke="red" points="653,-174 653,-193 770,-193 770,-174 653,-174"/>
<text text-anchor="middle" x="711.5" y="-181" font-family="Helvetica,sans-Serif" font-size="10.00">boca/generic/Vector.hh</text>
</a>
</g>
</g>
<!-- Node12&#45;&gt;Node17 -->
<g id="edge19" class="edge"><title>Node12&#45;&gt;Node17</title>
<path fill="none" stroke="midnightblue" d="M786.035,-235.475C772.081,-225.931 749.235,-210.307 732.509,-198.868"/>
<polygon fill="midnightblue" stroke="midnightblue" points="734.172,-195.765 723.942,-193.009 730.22,-201.543 734.172,-195.765"/>
</g>
<!-- Node15 -->
<g id="node15" class="node"><title>Node15</title>
<polygon fill="white" stroke="#bfbfbf" points="873,-112.5 873,-131.5 908,-131.5 908,-112.5 873,-112.5"/>
<text text-anchor="middle" x="890.5" y="-119.5" font-family="Helvetica,sans-Serif" font-size="10.00">map</text>
</g>
<!-- Node14&#45;&gt;Node15 -->
<g id="edge16" class="edge"><title>Node14&#45;&gt;Node15</title>
<path fill="none" stroke="midnightblue" d="M953.041,-173.975C941.549,-164.608 922.87,-149.384 908.913,-138.008"/>
<polygon fill="midnightblue" stroke="midnightblue" points="910.902,-135.114 900.94,-131.509 906.48,-140.54 910.902,-135.114"/>
</g>
<!-- Node16 -->
<g id="node16" class="node"><title>Node16</title>
<g id="a_node16"><a xlink:href="Id_8hh.html" target="_top" xlink:title="boca/physics/Id.hh">
<polygon fill="white" stroke="red" points="926,-112.5 926,-131.5 1025,-131.5 1025,-112.5 926,-112.5"/>
<text text-anchor="middle" x="975.5" y="-119.5" font-family="Helvetica,sans-Serif" font-size="10.00">boca/physics/Id.hh</text>
</a>
</g>
</g>
<!-- Node14&#45;&gt;Node16 -->
<g id="edge17" class="edge"><title>Node14&#45;&gt;Node16</title>
<path fill="none" stroke="midnightblue" d="M965.219,-173.975C966.93,-165.492 969.61,-152.204 971.805,-141.322"/>
<polygon fill="midnightblue" stroke="midnightblue" points="975.238,-142.004 973.784,-131.509 968.376,-140.62 975.238,-142.004"/>
</g>
<!-- Node16&#45;&gt;Node7 -->
<g id="edge18" class="edge"><title>Node16&#45;&gt;Node7</title>
<path fill="none" stroke="midnightblue" d="M960.469,-112.375C938.309,-99.7211 895.495,-75.5134 858.5,-56 837.51,-44.9286 813.454,-32.936 795.497,-24.1174"/>
<polygon fill="midnightblue" stroke="midnightblue" points="796.726,-20.8226 786.206,-19.5706 793.649,-27.1101 796.726,-20.8226"/>
</g>
<!-- Node17&#45;&gt;Node18 -->
<g id="edge20" class="edge"><title>Node17&#45;&gt;Node18</title>
<path fill="none" stroke="midnightblue" d="M680.839,-173.975C643.256,-163.526 579.456,-145.787 537.902,-134.233"/>
<polygon fill="midnightblue" stroke="midnightblue" points="538.676,-130.816 528.104,-131.509 536.801,-137.56 538.676,-130.816"/>
</g>
<!-- Node18&#45;&gt;Node13 -->
<g id="edge22" class="edge"><title>Node18&#45;&gt;Node13</title>
<path fill="none" stroke="midnightblue" d="M526.497,-112.444C557.685,-103.241 607.43,-88.5617 641.908,-78.3879"/>
<polygon fill="midnightblue" stroke="midnightblue" points="643.038,-81.7036 651.639,-75.5164 641.057,-74.9898 643.038,-81.7036"/>
</g>
<!-- Node19 -->
<g id="node19" class="node"><title>Node19</title>
<g id="a_node19"><a xlink:href="InfoRecombiner_8hh.html" target="_top" xlink:title="boca/fastjet/InfoRecombiner.hh">
<polygon fill="white" stroke="red" points="213,-56.5 213,-75.5 366,-75.5 366,-56.5 213,-56.5"/>
<text text-anchor="middle" x="289.5" y="-63.5" font-family="Helvetica,sans-Serif" font-size="10.00">boca/fastjet/InfoRecombiner.hh</text>
</a>
</g>
</g>
<!-- Node18&#45;&gt;Node19 -->
<g id="edge21" class="edge"><title>Node18&#45;&gt;Node19</title>
<path fill="none" stroke="midnightblue" d="M464.542,-112.444C428.713,-103.142 371.337,-88.246 332.109,-78.062"/>
<polygon fill="midnightblue" stroke="midnightblue" points="332.863,-74.6417 322.304,-75.5164 331.104,-81.4171 332.863,-74.6417"/>
</g>
<!-- Node20 -->
<g id="node20" class="node"><title>Node20</title>
<g id="a_node20"><a xlink:href="Souce_8hh.html" target="_top" xlink:title="boca/io/Souce.hh">
<polygon fill="white" stroke="black" points="510.5,-56.5 510.5,-75.5 602.5,-75.5 602.5,-56.5 510.5,-56.5"/>
<text text-anchor="middle" x="556.5" y="-63.5" font-family="Helvetica,sans-Serif" font-size="10.00">boca/io/Souce.hh</text>
</a>
</g>
</g>
<!-- Node18&#45;&gt;Node20 -->
<g id="edge23" class="edge"><title>Node18&#45;&gt;Node20</title>
<path fill="none" stroke="midnightblue" d="M506.979,-112.324C515.701,-104.341 528.843,-92.3128 539.398,-82.6529"/>
<polygon fill="midnightblue" stroke="midnightblue" points="541.834,-85.1674 546.848,-75.8339 537.108,-80.0036 541.834,-85.1674"/>
</g>
<!-- Node21 -->
<g id="node21" class="node"><title>Node21</title>
<g id="a_node21"><a xlink:href="Font_8hh.html" target="_top" xlink:title="boca/plotting/Font.hh">
<polygon fill="white" stroke="red" points="384.5,-56.5 384.5,-75.5 492.5,-75.5 492.5,-56.5 384.5,-56.5"/>
<text text-anchor="middle" x="438.5" y="-63.5" font-family="Helvetica,sans-Serif" font-size="10.00">boca/plotting/Font.hh</text>
</a>
</g>
</g>
<!-- Node18&#45;&gt;Node21 -->
<g id="edge25" class="edge"><title>Node18&#45;&gt;Node21</title>
<path fill="none" stroke="midnightblue" d="M488.021,-112.324C479.299,-104.341 466.157,-92.3128 455.602,-82.6529"/>
<polygon fill="midnightblue" stroke="midnightblue" points="457.892,-80.0036 448.152,-75.8339 453.166,-85.1674 457.892,-80.0036"/>
</g>
<!-- Node20&#45;&gt;Node7 -->
<g id="edge24" class="edge"><title>Node20&#45;&gt;Node7</title>
<path fill="none" stroke="midnightblue" d="M590.092,-56.4435C630.819,-46.0696 698.864,-28.7375 738.098,-18.7438"/>
<polygon fill="midnightblue" stroke="midnightblue" points="739.06,-22.1108 747.886,-16.2506 737.332,-15.3274 739.06,-22.1108"/>
</g>
<!-- Node24 -->
<g id="node24" class="node"><title>Node24</title>
<g id="a_node24"><a xlink:href="Jet_8hh.html" target="_top" xlink:title="boca/multiplets/Jet.hh">
<polygon fill="white" stroke="red" points="1546,-235.5 1546,-254.5 1659,-254.5 1659,-235.5 1546,-235.5"/>
<text text-anchor="middle" x="1602.5" y="-242.5" font-family="Helvetica,sans-Serif" font-size="10.00">boca/multiplets/Jet.hh</text>
</a>
</g>
</g>
<!-- Node23&#45;&gt;Node24 -->
<g id="edge28" class="edge"><title>Node23&#45;&gt;Node24</title>
<path fill="none" stroke="midnightblue" d="M1132.73,-298.375C1147.7,-295.855 1164.85,-293.122 1180.5,-291 1305.61,-274.037 1452.3,-259.621 1535.63,-251.942"/>
<polygon fill="midnightblue" stroke="midnightblue" points="1536.08,-255.416 1545.72,-251.017 1535.44,-248.445 1536.08,-255.416"/>
</g>
<!-- Node26 -->
<g id="node26" class="node"><title>Node26</title>
<g id="a_node26"><a xlink:href="Debug_8hh.html" target="_top" xlink:title="boca/generic/Debug.hh">
<polygon fill="white" stroke="red" points="0,-235.5 0,-254.5 117,-254.5 117,-235.5 0,-235.5"/>
<text text-anchor="middle" x="58.5" y="-242.5" font-family="Helvetica,sans-Serif" font-size="10.00">boca/generic/Debug.hh</text>
</a>
</g>
</g>
<!-- Node25&#45;&gt;Node26 -->
<g id="edge31" class="edge"><title>Node25&#45;&gt;Node26</title>
<path fill="none" stroke="midnightblue" d="M59.3892,-358.479C59.2092,-335.719 58.8534,-290.702 58.6507,-265.058"/>
<polygon fill="midnightblue" stroke="midnightblue" points="62.1485,-264.761 58.5695,-254.789 55.1487,-264.816 62.1485,-264.761"/>
</g>
<!-- Node26&#45;&gt;Node7 -->
<g id="edge32" class="edge"><title>Node26&#45;&gt;Node7</title>
<path fill="none" stroke="midnightblue" d="M61.2557,-235.234C71.534,-204.184 110.876,-99.0016 184.5,-56 232.455,-27.9907 623.822,-15.016 737.592,-11.8125"/>
<polygon fill="midnightblue" stroke="midnightblue" points="737.815,-15.3078 747.714,-11.5328 737.622,-8.31047 737.815,-15.3078"/>
</g>
<!-- Node28 -->
<g id="node28" class="node"><title>Node28</title>
<g id="a_node28"><a xlink:href="boca_2tagger_2Tagger_8hh.html" target="_top" xlink:title="boca/tagger/Tagger.hh">
<polygon fill="white" stroke="black" points="844.5,-297 844.5,-316 958.5,-316 958.5,-297 844.5,-297"/>
<text text-anchor="middle" x="901.5" y="-304" font-family="Helvetica,sans-Serif" font-size="10.00">boca/tagger/Tagger.hh</text>
</a>
</g>
</g>
<!-- Node27&#45;&gt;Node28 -->
<g id="edge34" class="edge"><title>Node27&#45;&gt;Node28</title>
<path fill="none" stroke="midnightblue" d="M1233.47,-430.984C1179.96,-423.67 1108.61,-410.757 1048.5,-389 1000.68,-371.69 949.831,-340.172 922.248,-321.816"/>
<polygon fill="midnightblue" stroke="midnightblue" points="924.071,-318.824 913.824,-316.135 920.158,-324.628 924.071,-318.824"/>
</g>
<!-- Node39 -->
<g id="node39" class="node"><title>Node39</title>
<g id="a_node39"><a xlink:href="tagger_2Bottom_8hh.html" target="_top" xlink:title="standardmodel/tagger\l/Bottom.hh">
<polygon fill="white" stroke="black" points="1446.5,-358.5 1446.5,-388.5 1556.5,-388.5 1556.5,-358.5 1446.5,-358.5"/>
<text text-anchor="start" x="1454.5" y="-376.5" font-family="Helvetica,sans-Serif" font-size="10.00">standardmodel/tagger</text>
<text text-anchor="middle" x="1501.5" y="-365.5" font-family="Helvetica,sans-Serif" font-size="10.00">/Bottom.hh</text>
</a>
</g>
</g>
<!-- Node27&#45;&gt;Node39 -->
<g id="edge52" class="edge"><title>Node27&#45;&gt;Node39</title>
<path fill="none" stroke="midnightblue" d="M1338.46,-430.869C1367.16,-420.946 1415,-404.408 1451.45,-391.805"/>
<polygon fill="midnightblue" stroke="midnightblue" points="1452.62,-395.104 1460.93,-388.528 1450.33,-388.488 1452.62,-395.104"/>
</g>
<!-- Node43 -->
<g id="node43" class="node"><title>Node43</title>
<g id="a_node43"><a xlink:href="Reader_8hh.html" target="_top" xlink:title="boca/multivariant/Reader.hh">
<polygon fill="white" stroke="black" points="1057,-364 1057,-383 1196,-383 1196,-364 1057,-364"/>
<text text-anchor="middle" x="1126.5" y="-371" font-family="Helvetica,sans-Serif" font-size="10.00">boca/multivariant/Reader.hh</text>
</a>
</g>
</g>
<!-- Node27&#45;&gt;Node43 -->
<g id="edge59" class="edge"><title>Node27&#45;&gt;Node43</title>
<path fill="none" stroke="midnightblue" d="M1288.67,-430.869C1255.88,-419.473 1198,-399.353 1160.99,-386.487"/>
<polygon fill="midnightblue" stroke="midnightblue" points="1161.73,-383.041 1151.14,-383.064 1159.43,-389.653 1161.73,-383.041"/>
</g>
<!-- Node47 -->
<g id="node47" class="node"><title>Node47</title>
<g id="a_node47"><a xlink:href="CutVariables_8hh.html" target="_top" xlink:title="heavyhiggs/CutVariables.hh">
<polygon fill="white" stroke="black" points="2043,-364 2043,-383 2182,-383 2182,-364 2043,-364"/>
<text text-anchor="middle" x="2112.5" y="-371" font-family="Helvetica,sans-Serif" font-size="10.00">heavyhiggs/CutVariables.hh</text>
</a>
</g>
</g>
<!-- Node27&#45;&gt;Node47 -->
<g id="edge68" class="edge"><title>Node27&#45;&gt;Node47</title>
<path fill="none" stroke="midnightblue" d="M1393.56,-435.27C1522.59,-428.09 1784.45,-412.021 2005.5,-389 2018.08,-387.69 2031.46,-386.063 2044.34,-384.378"/>
<polygon fill="midnightblue" stroke="midnightblue" points="2045.1,-387.809 2054.55,-383.019 2044.17,-380.87 2045.1,-387.809"/>
</g>
<!-- Node48 -->
<g id="node48" class="node"><title>Node48</title>
<g id="a_node48"><a xlink:href="branch_2CutNeutral_8hh.html" target="_top" xlink:title="heavyhiggs/branch/CutNeutral.hh">
<polygon fill="white" stroke="black" points="1834.5,-364 1834.5,-383 1996.5,-383 1996.5,-364 1834.5,-364"/>
<text text-anchor="middle" x="1915.5" y="-371" font-family="Helvetica,sans-Serif" font-size="10.00">heavyhiggs/branch/CutNeutral.hh</text>
</a>
</g>
</g>
<!-- Node27&#45;&gt;Node48 -->
<g id="edge70" class="edge"><title>Node27&#45;&gt;Node48</title>
<path fill="none" stroke="midnightblue" d="M1392.51,-430.969C1504.56,-418.871 1709.02,-396.794 1826.36,-384.125"/>
<polygon fill="midnightblue" stroke="midnightblue" points="1826.83,-387.595 1836.39,-383.042 1826.07,-380.635 1826.83,-387.595"/>
</g>
<!-- Node28&#45;&gt;Node6 -->
<g id="edge35" class="edge"><title>Node28&#45;&gt;Node6</title>
<path fill="none" stroke="midnightblue" d="M866.728,-296.927C856.701,-294.71 845.711,-292.521 835.5,-291 657.48,-264.483 445.417,-252.886 338.836,-248.425"/>
<polygon fill="midnightblue" stroke="midnightblue" points="338.68,-244.916 328.545,-248.003 338.393,-251.91 338.68,-244.916"/>
</g>
<!-- Node28&#45;&gt;Node12 -->
<g id="edge47" class="edge"><title>Node28&#45;&gt;Node12</title>
<path fill="none" stroke="midnightblue" d="M886.743,-296.975C869.839,-287.211 841.917,-271.081 822.01,-259.581"/>
<polygon fill="midnightblue" stroke="midnightblue" points="823.64,-256.481 813.23,-254.509 820.138,-262.542 823.64,-256.481"/>
</g>
<!-- Node28&#45;&gt;Node26 -->
<g id="edge51" class="edge"><title>Node28&#45;&gt;Node26</title>
<path fill="none" stroke="midnightblue" d="M867.431,-296.93C857.223,-294.657 845.96,-292.438 835.5,-291 556.776,-252.693 484.347,-271.715 203.5,-255 178.606,-253.518 151.311,-251.839 127.184,-250.335"/>
<polygon fill="midnightblue" stroke="midnightblue" points="127.252,-246.833 117.054,-249.702 126.816,-253.819 127.252,-246.833"/>
</g>
<!-- Node29 -->
<g id="node29" class="node"><title>Node29</title>
<g id="a_node29"><a xlink:href="Sort_8hh.html" target="_top" xlink:title="boca/multiplets/Sort.hh">
<polygon fill="white" stroke="black" points="1353,-235.5 1353,-254.5 1470,-254.5 1470,-235.5 1353,-235.5"/>
<text text-anchor="middle" x="1411.5" y="-242.5" font-family="Helvetica,sans-Serif" font-size="10.00">boca/multiplets/Sort.hh</text>
</a>
</g>
</g>
<!-- Node28&#45;&gt;Node29 -->
<g id="edge36" class="edge"><title>Node28&#45;&gt;Node29</title>
<path fill="none" stroke="midnightblue" d="M958.519,-298.848C1052.88,-287.839 1241.16,-265.873 1342.74,-254.022"/>
<polygon fill="midnightblue" stroke="midnightblue" points="1343.36,-257.473 1352.89,-252.838 1342.55,-250.52 1343.36,-257.473"/>
</g>
<!-- Node32 -->
<g id="node32" class="node"><title>Node32</title>
<g id="a_node32"><a xlink:href="TreeBranch_8hh.html" target="_top" xlink:title="boca/io/TreeBranch.hh">
<polygon fill="white" stroke="black" points="593,-235.5 593,-254.5 708,-254.5 708,-235.5 593,-235.5"/>
<text text-anchor="middle" x="650.5" y="-242.5" font-family="Helvetica,sans-Serif" font-size="10.00">boca/io/TreeBranch.hh</text>
</a>
</g>
</g>
<!-- Node28&#45;&gt;Node32 -->
<g id="edge40" class="edge"><title>Node28&#45;&gt;Node32</title>
<path fill="none" stroke="midnightblue" d="M865.538,-296.975C820.991,-286.415 745.041,-268.411 696.351,-256.869"/>
<polygon fill="midnightblue" stroke="midnightblue" points="696.933,-253.41 686.395,-254.509 695.318,-260.221 696.933,-253.41"/>
</g>
<!-- Node34 -->
<g id="node34" class="node"><title>Node34</title>
<g id="a_node34"><a xlink:href="tagger_2Base_8hh.html" target="_top" xlink:title="boca/tagger/Base.hh">
<polygon fill="white" stroke="black" points="900,-235.5 900,-254.5 1007,-254.5 1007,-235.5 900,-235.5"/>
<text text-anchor="middle" x="953.5" y="-242.5" font-family="Helvetica,sans-Serif" font-size="10.00">boca/tagger/Base.hh</text>
</a>
</g>
</g>
<!-- Node28&#45;&gt;Node34 -->
<g id="edge43" class="edge"><title>Node28&#45;&gt;Node34</title>
<path fill="none" stroke="midnightblue" d="M908.95,-296.975C916.828,-287.962 929.445,-273.525 939.244,-262.312"/>
<polygon fill="midnightblue" stroke="midnightblue" points="942.118,-264.342 946.063,-254.509 936.847,-259.736 942.118,-264.342"/>
</g>
<!-- Node38 -->
<g id="node38" class="node"><title>Node38</title>
<g id="a_node38"><a xlink:href="Filter_8hh.html" target="_top" xlink:title="boca/Filter.hh">
<polygon fill="white" stroke="red" points="826.5,-174 826.5,-193 902.5,-193 902.5,-174 826.5,-174"/>
<text text-anchor="middle" x="864.5" y="-181" font-family="Helvetica,sans-Serif" font-size="10.00">boca/Filter.hh</text>
</a>
</g>
</g>
<!-- Node28&#45;&gt;Node38 -->
<g id="edge48" class="edge"><title>Node28&#45;&gt;Node38</title>
<path fill="none" stroke="midnightblue" d="M898.839,-296.798C892.839,-277.176 878.15,-229.138 870.063,-202.693"/>
<polygon fill="midnightblue" stroke="midnightblue" points="873.408,-201.663 867.137,-193.123 866.714,-203.71 873.408,-201.663"/>
</g>
<!-- Node29&#45;&gt;Node16 -->
<g id="edge39" class="edge"><title>Node29&#45;&gt;Node16</title>
<path fill="none" stroke="midnightblue" d="M1412.22,-235.341C1413.03,-219.326 1412.19,-185.153 1392.5,-168 1366.11,-145.006 1144.08,-131.165 1035.21,-125.701"/>
<polygon fill="midnightblue" stroke="midnightblue" points="1035.2,-122.196 1025.04,-125.198 1034.85,-129.188 1035.2,-122.196"/>
</g>
<!-- Node30 -->
<g id="node30" class="node"><title>Node30</title>
<polygon fill="white" stroke="#bfbfbf" points="1571.5,-168.5 1571.5,-198.5 1681.5,-198.5 1681.5,-168.5 1571.5,-168.5"/>
<text text-anchor="start" x="1579.5" y="-186.5" font-family="Helvetica,sans-Serif" font-size="10.00">boost/range/algorithm</text>
<text text-anchor="middle" x="1626.5" y="-175.5" font-family="Helvetica,sans-Serif" font-size="10.00">/sort.hpp</text>
</g>
<!-- Node29&#45;&gt;Node30 -->
<g id="edge37" class="edge"><title>Node29&#45;&gt;Node30</title>
<path fill="none" stroke="midnightblue" d="M1442.3,-235.475C1474.48,-226.569 1525.8,-212.369 1566.1,-201.215"/>
<polygon fill="midnightblue" stroke="midnightblue" points="1567.12,-204.563 1575.83,-198.523 1565.26,-197.817 1567.12,-204.563"/>
</g>
<!-- Node31 -->
<g id="node31" class="node"><title>Node31</title>
<polygon fill="white" stroke="#bfbfbf" points="1440,-174 1440,-193 1553,-193 1553,-174 1440,-174"/>
<text text-anchor="middle" x="1496.5" y="-181" font-family="Helvetica,sans-Serif" font-size="10.00">boost/units/cmath.hpp</text>
</g>
<!-- Node29&#45;&gt;Node31 -->
<g id="edge38" class="edge"><title>Node29&#45;&gt;Node31</title>
<path fill="none" stroke="midnightblue" d="M1423.68,-235.475C1437.31,-225.931 1459.63,-210.307 1475.97,-198.868"/>
<polygon fill="midnightblue" stroke="midnightblue" points="1478.16,-201.611 1484.34,-193.009 1474.14,-195.876 1478.16,-201.611"/>
</g>
<!-- Node32&#45;&gt;Node7 -->
<g id="edge41" class="edge"><title>Node32&#45;&gt;Node7</title>
<path fill="none" stroke="midnightblue" d="M646.258,-235.41C639.376,-220.102 628.023,-187.856 643.5,-168 683.791,-116.309 746.209,-183.691 786.5,-132 810.014,-101.833 791.536,-54.2275 778.511,-28.6489"/>
<polygon fill="midnightblue" stroke="midnightblue" points="781.533,-26.8787 773.723,-19.7194 775.364,-30.1864 781.533,-26.8787"/>
</g>
<!-- Node33 -->
<g id="node33" class="node"><title>Node33</title>
<polygon fill="white" stroke="#bfbfbf" points="511,-174 511,-193 596,-193 596,-174 511,-174"/>
<text text-anchor="middle" x="553.5" y="-181" font-family="Helvetica,sans-Serif" font-size="10.00">TClonesArray.h</text>
</g>
<!-- Node32&#45;&gt;Node33 -->
<g id="edge42" class="edge"><title>Node32&#45;&gt;Node33</title>
<path fill="none" stroke="midnightblue" d="M636.602,-235.475C620.828,-225.799 594.863,-209.872 576.151,-198.394"/>
<polygon fill="midnightblue" stroke="midnightblue" points="577.726,-195.254 567.372,-193.009 574.066,-201.221 577.726,-195.254"/>
</g>
<!-- Node35 -->
<g id="node35" class="node"><title>Node35</title>
<polygon fill="white" stroke="#bfbfbf" points="1147,-174 1147,-193 1230,-193 1230,-174 1147,-174"/>
<text text-anchor="middle" x="1188.5" y="-181" font-family="Helvetica,sans-Serif" font-size="10.00">TMVA/Types.h</text>
</g>
<!-- Node34&#45;&gt;Node35 -->
<g id="edge44" class="edge"><title>Node34&#45;&gt;Node35</title>
<path fill="none" stroke="midnightblue" d="M990.258,-235.435C1027.47,-226.663 1086.63,-212.447 1137.5,-199 1141.34,-197.984 1145.34,-196.897 1149.34,-195.794"/>
<polygon fill="midnightblue" stroke="midnightblue" points="1150.47,-199.111 1159.16,-193.044 1148.58,-192.371 1150.47,-199.111"/>
</g>
<!-- Node36 -->
<g id="node36" class="node"><title>Node36</title>
<g id="a_node36"><a xlink:href="Observable_8hh.html" target="_top" xlink:title="boca/Observable.hh">
<polygon fill="white" stroke="red" points="1024.5,-174 1024.5,-193 1128.5,-193 1128.5,-174 1024.5,-174"/>
<text text-anchor="middle" x="1076.5" y="-181" font-family="Helvetica,sans-Serif" font-size="10.00">boca/Observable.hh</text>
</a>
</g>
</g>
<!-- Node34&#45;&gt;Node36 -->
<g id="edge45" class="edge"><title>Node34&#45;&gt;Node36</title>
<path fill="none" stroke="midnightblue" d="M971.123,-235.475C991.674,-225.534 1025.86,-208.995 1049.71,-197.461"/>
<polygon fill="midnightblue" stroke="midnightblue" points="1051.43,-200.515 1058.91,-193.009 1048.38,-194.213 1051.43,-200.515"/>
</g>
<!-- Node37 -->
<g id="node37" class="node"><title>Node37</title>
<g id="a_node37"><a xlink:href="Phase_8hh.html" target="_top" xlink:title="boca/multivariant/Phase.hh">
<polygon fill="white" stroke="red" points="1248,-174 1248,-193 1383,-193 1383,-174 1248,-174"/>
<text text-anchor="middle" x="1315.5" y="-181" font-family="Helvetica,sans-Serif" font-size="10.00">boca/multivariant/Phase.hh</text>
</a>
</g>
</g>
<!-- Node34&#45;&gt;Node37 -->
<g id="edge46" class="edge"><title>Node34&#45;&gt;Node37</title>
<path fill="none" stroke="midnightblue" d="M1007.09,-236.099C1064.62,-227.493 1158.66,-213.068 1239.5,-199 1246.86,-197.719 1254.61,-196.31 1262.23,-194.889"/>
<polygon fill="midnightblue" stroke="midnightblue" points="1262.96,-198.315 1272.14,-193.025 1261.66,-191.435 1262.96,-198.315"/>
</g>
<!-- Node38&#45;&gt;Node7 -->
<g id="edge49" class="edge"><title>Node38&#45;&gt;Node7</title>
<path fill="none" stroke="midnightblue" d="M863.088,-173.821C859.259,-152.276 847.13,-95.2542 820.5,-56 812.541,-44.2677 800.777,-33.7371 790.45,-25.8178"/>
<polygon fill="midnightblue" stroke="midnightblue" points="792.368,-22.8845 782.229,-19.8107 788.238,-28.5365 792.368,-22.8845"/>
</g>
<!-- Node38&#45;&gt;Node15 -->
<g id="edge50" class="edge"><title>Node38&#45;&gt;Node15</title>
<path fill="none" stroke="midnightblue" d="M868.225,-173.975C871.971,-165.404 877.86,-151.927 882.642,-140.983"/>
<polygon fill="midnightblue" stroke="midnightblue" points="885.985,-142.074 886.782,-131.509 879.57,-139.271 885.985,-142.074"/>
</g>
<!-- Node39&#45;&gt;Node28 -->
<g id="edge55" class="edge"><title>Node39&#45;&gt;Node28</title>
<path fill="none" stroke="midnightblue" d="M1446.4,-366.53C1336.05,-354.576 1088.31,-327.738 968.679,-314.778"/>
<polygon fill="midnightblue" stroke="midnightblue" points="968.87,-311.278 958.551,-313.681 968.116,-318.237 968.87,-311.278"/>
</g>
<!-- Node40 -->
<g id="node40" class="node"><title>Node40</title>
<g id="a_node40"><a xlink:href="MuXboostedBTagging_8hh.html" target="_top" xlink:title="boca/external/MuXboosted\lBTagging.hh">
<polygon fill="white" stroke="black" points="1435,-291.5 1435,-321.5 1568,-321.5 1568,-291.5 1435,-291.5"/>
<text text-anchor="start" x="1443" y="-309.5" font-family="Helvetica,sans-Serif" font-size="10.00">boca/external/MuXboosted</text>
<text text-anchor="middle" x="1501.5" y="-298.5" font-family="Helvetica,sans-Serif" font-size="10.00">BTagging.hh</text>
</a>
</g>
</g>
<!-- Node39&#45;&gt;Node40 -->
<g id="edge53" class="edge"><title>Node39&#45;&gt;Node40</title>
<path fill="none" stroke="midnightblue" d="M1501.5,-358.396C1501.5,-350.645 1501.5,-340.812 1501.5,-331.86"/>
<polygon fill="midnightblue" stroke="midnightblue" points="1505,-331.576 1501.5,-321.577 1498,-331.577 1505,-331.576"/>
</g>
<!-- Node41 -->
<g id="node41" class="node"><title>Node41</title>
<g id="a_node41"><a xlink:href="Singlet_8hh.html" target="_top" xlink:title="boca/multiplets/Singlet.hh">
<polygon fill="white" stroke="red" points="1586,-297 1586,-316 1715,-316 1715,-297 1586,-297"/>
<text text-anchor="middle" x="1650.5" y="-304" font-family="Helvetica,sans-Serif" font-size="10.00">boca/multiplets/Singlet.hh</text>
</a>
</g>
</g>
<!-- Node39&#45;&gt;Node41 -->
<g id="edge56" class="edge"><title>Node39&#45;&gt;Node41</title>
<path fill="none" stroke="midnightblue" d="M1533.83,-358.396C1559.97,-346.991 1596.45,-331.079 1621.62,-320.098"/>
<polygon fill="midnightblue" stroke="midnightblue" points="1623.23,-323.214 1631,-316.007 1620.43,-316.798 1623.23,-323.214"/>
</g>
<!-- Node42 -->
<g id="node42" class="node"><title>Node42</title>
<g id="a_node42"><a xlink:href="branch_2Bottom_8hh.html" target="_top" xlink:title="standardmodel/branch\l/Bottom.hh">
<polygon fill="white" stroke="red" points="1733,-291.5 1733,-321.5 1846,-321.5 1846,-291.5 1733,-291.5"/>
<text text-anchor="start" x="1741" y="-309.5" font-family="Helvetica,sans-Serif" font-size="10.00">standardmodel/branch</text>
<text text-anchor="middle" x="1789.5" y="-298.5" font-family="Helvetica,sans-Serif" font-size="10.00">/Bottom.hh</text>
</a>
</g>
</g>
<!-- Node39&#45;&gt;Node42 -->
<g id="edge58" class="edge"><title>Node39&#45;&gt;Node42</title>
<path fill="none" stroke="midnightblue" d="M1556.69,-360.044C1604,-349.366 1672.31,-333.95 1722.7,-322.576"/>
<polygon fill="midnightblue" stroke="midnightblue" points="1723.54,-325.974 1732.53,-320.358 1722,-319.146 1723.54,-325.974"/>
</g>
<!-- Node40&#45;&gt;Node24 -->
<g id="edge54" class="edge"><title>Node40&#45;&gt;Node24</title>
<path fill="none" stroke="midnightblue" d="M1525.44,-291.399C1541.63,-281.862 1562.91,-269.325 1579,-259.842"/>
<polygon fill="midnightblue" stroke="midnightblue" points="1580.96,-262.749 1587.8,-254.658 1577.41,-256.718 1580.96,-262.749"/>
</g>
<!-- Node41&#45;&gt;Node24 -->
<g id="edge57" class="edge"><title>Node41&#45;&gt;Node24</title>
<path fill="none" stroke="midnightblue" d="M1643.62,-296.975C1636.35,-287.962 1624.7,-273.525 1615.66,-262.312"/>
<polygon fill="midnightblue" stroke="midnightblue" points="1618.37,-260.095 1609.36,-254.509 1612.92,-264.49 1618.37,-260.095"/>
</g>
<!-- Node43&#45;&gt;Node12 -->
<g id="edge66" class="edge"><title>Node43&#45;&gt;Node12</title>
<path fill="none" stroke="midnightblue" d="M1102.68,-363.858C1078.72,-354.769 1041.04,-339.389 1010.5,-322 990.027,-310.342 988.791,-301.087 967.5,-291 931.443,-273.918 887.874,-262.516 854.005,-255.463"/>
<polygon fill="midnightblue" stroke="midnightblue" points="854.319,-251.956 843.825,-253.413 852.937,-258.818 854.319,-251.956"/>
</g>
<!-- Node43&#45;&gt;Node23 -->
<g id="edge67" class="edge"><title>Node43&#45;&gt;Node23</title>
<path fill="none" stroke="midnightblue" d="M1121.91,-363.734C1116.77,-353.89 1108.28,-337.66 1101.74,-325.159"/>
<polygon fill="midnightblue" stroke="midnightblue" points="1104.75,-323.366 1097.01,-316.127 1098.55,-326.611 1104.75,-323.366"/>
</g>
<!-- Node43&#45;&gt;Node29 -->
<g id="edge64" class="edge"><title>Node43&#45;&gt;Node29</title>
<path fill="none" stroke="midnightblue" d="M1129.55,-363.955C1136.05,-347.05 1152.98,-309.387 1180.5,-291 1206.58,-273.575 1284.46,-260.865 1342.63,-253.482"/>
<polygon fill="midnightblue" stroke="midnightblue" points="1343.39,-256.915 1352.88,-252.21 1342.53,-249.969 1343.39,-256.915"/>
</g>
<!-- Node43&#45;&gt;Node37 -->
<g id="edge65" class="edge"><title>Node43&#45;&gt;Node37</title>
<path fill="none" stroke="midnightblue" d="M1099.17,-363.958C1079.83,-356.319 1055.32,-343.026 1043.5,-322 1036.75,-309.99 1035.73,-302.381 1043.5,-291 1069.93,-252.272 1200.08,-213.928 1270.33,-195.618"/>
<polygon fill="midnightblue" stroke="midnightblue" points="1271.43,-198.949 1280.24,-193.065 1269.69,-192.171 1271.43,-198.949"/>
</g>
<!-- Node44 -->
<g id="node44" class="node"><title>Node44</title>
<polygon fill="white" stroke="#bfbfbf" points="1189,-297 1189,-316 1276,-316 1276,-297 1189,-297"/>
<text text-anchor="middle" x="1232.5" y="-304" font-family="Helvetica,sans-Serif" font-size="10.00">TMVA/Reader.h</text>
</g>
<!-- Node43&#45;&gt;Node44 -->
<g id="edge60" class="edge"><title>Node43&#45;&gt;Node44</title>
<path fill="none" stroke="midnightblue" d="M1140.8,-363.734C1158.52,-352.867 1188.93,-334.216 1209.84,-321.393"/>
<polygon fill="midnightblue" stroke="midnightblue" points="1211.74,-324.339 1218.43,-316.127 1208.08,-318.371 1211.74,-324.339"/>
</g>
<!-- Node45 -->
<g id="node45" class="node"><title>Node45</title>
<g id="a_node45"><a xlink:href="Options_8hh.html" target="_top" xlink:title="boca/generic/Options.hh">
<polygon fill="white" stroke="red" points="1294.5,-297 1294.5,-316 1416.5,-316 1416.5,-297 1294.5,-297"/>
<text text-anchor="middle" x="1355.5" y="-304" font-family="Helvetica,sans-Serif" font-size="10.00">boca/generic/Options.hh</text>
</a>
</g>
</g>
<!-- Node43&#45;&gt;Node45 -->
<g id="edge61" class="edge"><title>Node43&#45;&gt;Node45</title>
<path fill="none" stroke="midnightblue" d="M1156.91,-363.869C1197.74,-352.278 1270.37,-331.662 1315.57,-318.834"/>
<polygon fill="midnightblue" stroke="midnightblue" points="1316.67,-322.161 1325.33,-316.064 1314.75,-315.427 1316.67,-322.161"/>
</g>
<!-- Node46 -->
<g id="node46" class="node"><title>Node46</title>
<g id="a_node46"><a xlink:href="TreeWriter_8hh.html" target="_top" xlink:title="boca/io/TreeWriter.hh">
<polygon fill="white" stroke="red" points="716.5,-297 716.5,-316 826.5,-316 826.5,-297 716.5,-297"/>
<text text-anchor="middle" x="771.5" y="-304" font-family="Helvetica,sans-Serif" font-size="10.00">boca/io/TreeWriter.hh</text>
</a>
</g>
</g>
<!-- Node43&#45;&gt;Node46 -->
<g id="edge62" class="edge"><title>Node43&#45;&gt;Node46</title>
<path fill="none" stroke="midnightblue" d="M1072.45,-363.966C1013.9,-354.525 917.835,-338.46 835.5,-322 829.703,-320.841 823.626,-319.556 817.622,-318.244"/>
<polygon fill="midnightblue" stroke="midnightblue" points="818.168,-314.78 807.647,-316.028 816.65,-321.614 818.168,-314.78"/>
</g>
<!-- Node46&#45;&gt;Node32 -->
<g id="edge63" class="edge"><title>Node46&#45;&gt;Node32</title>
<path fill="none" stroke="midnightblue" d="M754.164,-296.975C733.947,-287.034 700.313,-270.495 676.858,-258.961"/>
<polygon fill="midnightblue" stroke="midnightblue" points="678.322,-255.781 667.804,-254.509 675.233,-262.063 678.322,-255.781"/>
</g>
<!-- Node47&#45;&gt;Node24 -->
<g id="edge69" class="edge"><title>Node47&#45;&gt;Node24</title>
<path fill="none" stroke="midnightblue" d="M2117.24,-363.801C2125.52,-347.289 2140.07,-311.249 2121.5,-291 2091.53,-258.315 1802.82,-249.299 1669.44,-246.869"/>
<polygon fill="midnightblue" stroke="midnightblue" points="1669.4,-243.368 1659.34,-246.693 1669.28,-250.367 1669.4,-243.368"/>
</g>
<!-- Node49 -->
<g id="node49" class="node"><title>Node49</title>
<g id="a_node49"><a xlink:href="boca_2branch_2Cut_8hh.html" target="_top" xlink:title="boca/branch/Cut.hh">
<polygon fill="white" stroke="red" points="1864.5,-297 1864.5,-316 1966.5,-316 1966.5,-297 1864.5,-297"/>
<text text-anchor="middle" x="1915.5" y="-304" font-family="Helvetica,sans-Serif" font-size="10.00">boca/branch/Cut.hh</text>
</a>
</g>
</g>
<!-- Node48&#45;&gt;Node49 -->
<g id="edge71" class="edge"><title>Node48&#45;&gt;Node49</title>
<path fill="none" stroke="midnightblue" d="M1915.5,-363.734C1915.5,-354.183 1915.5,-338.618 1915.5,-326.283"/>
<polygon fill="midnightblue" stroke="midnightblue" points="1919,-326.127 1915.5,-316.127 1912,-326.127 1919,-326.127"/>
</g>
<!-- Node50 -->
<g id="node50" class="node"><title>Node50</title>
<g id="a_node50"><a xlink:href="Prefixes_8hh.html" target="_top" xlink:title="boca/physics/Prefixes.hh">
<polygon fill="white" stroke="red" points="1985,-297 1985,-316 2112,-316 2112,-297 1985,-297"/>
<text text-anchor="middle" x="2048.5" y="-304" font-family="Helvetica,sans-Serif" font-size="10.00">boca/physics/Prefixes.hh</text>
</a>
</g>
</g>
<!-- Node48&#45;&gt;Node50 -->
<g id="edge72" class="edge"><title>Node48&#45;&gt;Node50</title>
<path fill="none" stroke="midnightblue" d="M1933.16,-363.869C1955.82,-352.796 1995.33,-333.486 2021.7,-320.598"/>
<polygon fill="midnightblue" stroke="midnightblue" points="2023.32,-323.703 2030.77,-316.167 2020.24,-317.414 2023.32,-323.703"/>
</g>
</g>
</svg>
