<?xml version="1.0" encoding="UTF-8" standalone="no"?>
<!DOCTYPE svg PUBLIC "-//W3C//DTD SVG 1.1//EN"
 "http://www.w3.org/Graphics/SVG/1.1/DTD/svg11.dtd">
<!-- Generated by graphviz version 2.38.0 (20140413.2041)
 -->
<!-- Title: examples/heavyhiggs/source/MainNeutral.cpp Pages: 1 -->
<svg width="1866pt" height="609pt"
 viewBox="0.00 0.00 1866.07 609.00" xmlns="http://www.w3.org/2000/svg" xmlns:xlink="http://www.w3.org/1999/xlink">
<g id="graph0" class="graph" transform="scale(1 1) rotate(0) translate(4 605)">
<title>examples/heavyhiggs/source/MainNeutral.cpp</title>
<polygon fill="white" stroke="none" points="-4,4 -4,-605 1862.07,-605 1862.07,4 -4,4"/>
<!-- Node1 -->
<g id="node1" class="node"><title>Node1</title>
<polygon fill="#bfbfbf" stroke="black" points="952.397,-570.5 952.397,-600.5 1075.4,-600.5 1075.4,-570.5 952.397,-570.5"/>
<text text-anchor="start" x="960.397" y="-588.5" font-family="Helvetica,sans-Serif" font-size="10.00">examples/heavyhiggs</text>
<text text-anchor="middle" x="1013.9" y="-577.5" font-family="Helvetica,sans-Serif" font-size="10.00">/source/MainNeutral.cpp</text>
</g>
<!-- Node2 -->
<g id="node2" class="node"><title>Node2</title>
<g id="a_node2"><a xlink:href="Neutral_8hh.html" target="_top" xlink:title="heavyhiggs/analysis\l/Neutral.hh">
<polygon fill="white" stroke="black" points="697.397,-503.5 697.397,-533.5 802.397,-533.5 802.397,-503.5 697.397,-503.5"/>
<text text-anchor="start" x="705.397" y="-521.5" font-family="Helvetica,sans-Serif" font-size="10.00">heavyhiggs/analysis</text>
<text text-anchor="middle" x="749.897" y="-510.5" font-family="Helvetica,sans-Serif" font-size="10.00">/Neutral.hh</text>
</a>
</g>
</g>
<!-- Node1&#45;&gt;Node2 -->
<g id="edge1" class="edge"><title>Node1&#45;&gt;Node2</title>
<path fill="none" stroke="midnightblue" d="M956.938,-570.476C914.469,-560.02 856.481,-545.742 812.677,-534.957"/>
<polygon fill="midnightblue" stroke="midnightblue" points="813.259,-531.496 802.713,-532.504 811.586,-538.293 813.259,-531.496"/>
</g>
<!-- Node19 -->
<g id="node19" class="node"><title>Node19</title>
<g id="a_node19"><a xlink:href="tagger_2EventNeutral_8hh.html" target="_top" xlink:title="heavyhiggs/tagger/EventNeutral.hh">
<polygon fill="white" stroke="black" points="1192.9,-509 1192.9,-528 1362.9,-528 1362.9,-509 1192.9,-509"/>
<text text-anchor="middle" x="1277.9" y="-516" font-family="Helvetica,sans-Serif" font-size="10.00">heavyhiggs/tagger/EventNeutral.hh</text>
</a>
</g>
</g>
<!-- Node1&#45;&gt;Node19 -->
<g id="edge19" class="edge"><title>Node1&#45;&gt;Node19</title>
<path fill="none" stroke="midnightblue" d="M1070.86,-570.476C1119.51,-558.496 1188.54,-541.501 1233.27,-530.488"/>
<polygon fill="midnightblue" stroke="midnightblue" points="1234.38,-533.818 1243.26,-528.029 1232.71,-527.021 1234.38,-533.818"/>
</g>
<!-- Node3 -->
<g id="node3" class="node"><title>Node3</title>
<g id="a_node3"><a xlink:href="HeavyHiggs_8hh.html" target="_top" xlink:title="heavyhiggs/analysis\l/HeavyHiggs.hh">
<polygon fill="white" stroke="black" points="161.397,-302.5 161.397,-332.5 266.397,-332.5 266.397,-302.5 161.397,-302.5"/>
<text text-anchor="start" x="169.397" y="-320.5" font-family="Helvetica,sans-Serif" font-size="10.00">heavyhiggs/analysis</text>
<text text-anchor="middle" x="213.897" y="-309.5" font-family="Helvetica,sans-Serif" font-size="10.00">/HeavyHiggs.hh</text>
</a>
</g>
</g>
<!-- Node2&#45;&gt;Node3 -->
<g id="edge2" class="edge"><title>Node2&#45;&gt;Node3</title>
<path fill="none" stroke="midnightblue" d="M711.779,-503.348C616.109,-467.829 366.026,-374.981 261.204,-336.064"/>
<polygon fill="midnightblue" stroke="midnightblue" points="262.413,-332.779 251.82,-332.58 259.977,-339.342 262.413,-332.779"/>
</g>
<!-- Node4 -->
<g id="node4" class="node"><title>Node4</title>
<g id="a_node4"><a xlink:href="boca_2analysis_2Analysis_8hh.html" target="_top" xlink:title="boca/analysis/Analysis.hh">
<polygon fill="white" stroke="black" points="251.397,-241 251.397,-260 382.397,-260 382.397,-241 251.397,-241"/>
<text text-anchor="middle" x="316.897" y="-248" font-family="Helvetica,sans-Serif" font-size="10.00">boca/analysis/Analysis.hh</text>
</a>
</g>
</g>
<!-- Node3&#45;&gt;Node4 -->
<g id="edge3" class="edge"><title>Node3&#45;&gt;Node4</title>
<path fill="none" stroke="midnightblue" d="M236.246,-302.396C253.519,-291.496 277.315,-276.479 294.58,-265.584"/>
<polygon fill="midnightblue" stroke="midnightblue" points="296.828,-268.304 303.416,-260.007 293.092,-262.384 296.828,-268.304"/>
</g>
<!-- Node12 -->
<g id="node12" class="node"><title>Node12</title>
<g id="a_node12"><a xlink:href="Settings_8hh.html" target="_top" xlink:title="boca/Settings.hh">
<polygon fill="white" stroke="black" points="392.897,-56.5 392.897,-75.5 482.897,-75.5 482.897,-56.5 392.897,-56.5"/>
<text text-anchor="middle" x="437.897" y="-63.5" font-family="Helvetica,sans-Serif" font-size="10.00">boca/Settings.hh</text>
</a>
</g>
</g>
<!-- Node3&#45;&gt;Node12 -->
<g id="edge12" class="edge"><title>Node3&#45;&gt;Node12</title>
<path fill="none" stroke="midnightblue" d="M161.359,-310.903C125.86,-304.824 79.6677,-292.191 46.8968,-266 13.9361,-239.657 -15.1154,-213.695 8.89682,-179 51.45,-117.515 276.494,-84.8474 382.533,-72.6696"/>
<polygon fill="midnightblue" stroke="midnightblue" points="383.175,-76.1195 392.72,-71.5208 382.39,-69.1636 383.175,-76.1195"/>
</g>
<!-- Node17 -->
<g id="node17" class="node"><title>Node17</title>
<g id="a_node17"><a xlink:href="DEBUG__MACROS_8hh.html" target="_top" xlink:title="boca/generic/DEBUG\l_MACROS.hh">
<polygon fill="white" stroke="black" points="56.3968,-235.5 56.3968,-265.5 167.397,-265.5 167.397,-235.5 56.3968,-235.5"/>
<text text-anchor="start" x="64.3968" y="-253.5" font-family="Helvetica,sans-Serif" font-size="10.00">boca/generic/DEBUG</text>
<text text-anchor="middle" x="111.897" y="-242.5" font-family="Helvetica,sans-Serif" font-size="10.00">_MACROS.hh</text>
</a>
</g>
</g>
<!-- Node3&#45;&gt;Node17 -->
<g id="edge17" class="edge"><title>Node3&#45;&gt;Node17</title>
<path fill="none" stroke="midnightblue" d="M191.764,-302.396C177.329,-293.197 158.292,-281.066 142.426,-270.955"/>
<polygon fill="midnightblue" stroke="midnightblue" points="144.3,-267.999 133.986,-265.577 140.538,-273.902 144.3,-267.999"/>
</g>
<!-- Node5 -->
<g id="node5" class="node"><title>Node5</title>
<polygon fill="white" stroke="#bfbfbf" points="524.897,-179.5 524.897,-198.5 568.897,-198.5 568.897,-179.5 524.897,-179.5"/>
<text text-anchor="middle" x="546.897" y="-186.5" font-family="Helvetica,sans-Serif" font-size="10.00">thread</text>
</g>
<!-- Node4&#45;&gt;Node5 -->
<g id="edge4" class="edge"><title>Node4&#45;&gt;Node5</title>
<path fill="none" stroke="midnightblue" d="M352.22,-240.921C390.054,-231.648 452.095,-216.198 514.548,-199.303"/>
<polygon fill="midnightblue" stroke="midnightblue" points="515.839,-202.579 524.571,-196.58 514.004,-195.824 515.839,-202.579"/>
</g>
<!-- Node6 -->
<g id="node6" class="node"><title>Node6</title>
<g id="a_node6"><a xlink:href="Types_8hh.html" target="_top" xlink:title="boca/generic/Types.hh">
<polygon fill="white" stroke="red" points="538.897,-118 538.897,-137 654.897,-137 654.897,-118 538.897,-118"/>
<text text-anchor="middle" x="596.897" y="-125" font-family="Helvetica,sans-Serif" font-size="10.00">boca/generic/Types.hh</text>
</a>
</g>
</g>
<!-- Node4&#45;&gt;Node6 -->
<g id="edge5" class="edge"><title>Node4&#45;&gt;Node6</title>
<path fill="none" stroke="midnightblue" d="M368.396,-240.971C442.241,-228.535 570.231,-206.132 577.897,-199 591.937,-185.938 596.018,-163.694 597.008,-147.682"/>
<polygon fill="midnightblue" stroke="midnightblue" points="600.516,-147.433 597.28,-137.344 593.518,-147.248 600.516,-147.433"/>
</g>
<!-- Node7 -->
<g id="node7" class="node"><title>Node7</title>
<g id="a_node7"><a xlink:href="Io_8hh.html" target="_top" xlink:title="boca/io/Io.hh">
<polygon fill="white" stroke="red" points="167.397,-179.5 167.397,-198.5 240.397,-198.5 240.397,-179.5 167.397,-179.5"/>
<text text-anchor="middle" x="203.897" y="-186.5" font-family="Helvetica,sans-Serif" font-size="10.00">boca/io/Io.hh</text>
</a>
</g>
</g>
<!-- Node4&#45;&gt;Node7 -->
<g id="edge6" class="edge"><title>Node4&#45;&gt;Node7</title>
<path fill="none" stroke="midnightblue" d="M300.707,-240.975C281.994,-231.122 250.974,-214.788 229.098,-203.27"/>
<polygon fill="midnightblue" stroke="midnightblue" points="230.536,-200.071 220.057,-198.509 227.275,-206.265 230.536,-200.071"/>
</g>
<!-- Node8 -->
<g id="node8" class="node"><title>Node8</title>
<g id="a_node8"><a xlink:href="Plotting_8hh.html" target="_top" xlink:title="boca/plotting/Plotting.hh">
<polygon fill="white" stroke="red" points="26.8968,-179.5 26.8968,-198.5 148.897,-198.5 148.897,-179.5 26.8968,-179.5"/>
<text text-anchor="middle" x="87.8968" y="-186.5" font-family="Helvetica,sans-Serif" font-size="10.00">boca/plotting/Plotting.hh</text>
</a>
</g>
</g>
<!-- Node4&#45;&gt;Node8 -->
<g id="edge7" class="edge"><title>Node4&#45;&gt;Node8</title>
<path fill="none" stroke="midnightblue" d="M284.087,-240.975C243.7,-230.482 175.02,-212.637 130.568,-201.087"/>
<polygon fill="midnightblue" stroke="midnightblue" points="131.205,-197.636 120.646,-198.509 129.445,-204.411 131.205,-197.636"/>
</g>
<!-- Node9 -->
<g id="node9" class="node"><title>Node9</title>
<g id="a_node9"><a xlink:href="analysis_2Base_8hh.html" target="_top" xlink:title="boca/analysis/Base.hh">
<polygon fill="white" stroke="red" points="258.897,-179.5 258.897,-198.5 374.897,-198.5 374.897,-179.5 258.897,-179.5"/>
<text text-anchor="middle" x="316.897" y="-186.5" font-family="Helvetica,sans-Serif" font-size="10.00">boca/analysis/Base.hh</text>
</a>
</g>
</g>
<!-- Node4&#45;&gt;Node9 -->
<g id="edge9" class="edge"><title>Node4&#45;&gt;Node9</title>
<path fill="none" stroke="midnightblue" d="M316.897,-240.975C316.897,-232.58 316.897,-219.481 316.897,-208.663"/>
<polygon fill="midnightblue" stroke="midnightblue" points="320.397,-208.509 316.897,-198.509 313.397,-208.509 320.397,-208.509"/>
</g>
<!-- Node10 -->
<g id="node10" class="node"><title>Node10</title>
<g id="a_node10"><a xlink:href="Data_8hh.html" target="_top" xlink:title="boca/analysis/Data.hh">
<polygon fill="white" stroke="red" points="392.897,-179.5 392.897,-198.5 506.897,-198.5 506.897,-179.5 392.897,-179.5"/>
<text text-anchor="middle" x="449.897" y="-186.5" font-family="Helvetica,sans-Serif" font-size="10.00">boca/analysis/Data.hh</text>
</a>
</g>
</g>
<!-- Node4&#45;&gt;Node10 -->
<g id="edge10" class="edge"><title>Node4&#45;&gt;Node10</title>
<path fill="none" stroke="midnightblue" d="M335.952,-240.975C358.372,-230.945 395.802,-214.2 421.61,-202.655"/>
<polygon fill="midnightblue" stroke="midnightblue" points="423.178,-205.788 430.877,-198.509 420.319,-199.398 423.178,-205.788"/>
</g>
<!-- Node11 -->
<g id="node11" class="node"><title>Node11</title>
<g id="a_node11"><a xlink:href="boca_2Event_8hh.html" target="_top" xlink:title="boca/Event.hh">
<polygon fill="white" stroke="red" points="624.897,-179.5 624.897,-198.5 704.897,-198.5 704.897,-179.5 624.897,-179.5"/>
<text text-anchor="middle" x="664.897" y="-186.5" font-family="Helvetica,sans-Serif" font-size="10.00">boca/Event.hh</text>
</a>
</g>
</g>
<!-- Node4&#45;&gt;Node11 -->
<g id="edge11" class="edge"><title>Node4&#45;&gt;Node11</title>
<path fill="none" stroke="midnightblue" d="M363.412,-240.964C374.388,-238.979 386.051,-236.893 396.897,-235 417.911,-231.332 542.991,-210.387 614.611,-198.407"/>
<polygon fill="midnightblue" stroke="midnightblue" points="615.485,-201.81 624.771,-196.708 614.33,-194.906 615.485,-201.81"/>
</g>
<!-- Node8&#45;&gt;Node6 -->
<g id="edge8" class="edge"><title>Node8&#45;&gt;Node6</title>
<path fill="none" stroke="midnightblue" d="M148.974,-180.098C151.991,-179.724 154.978,-179.356 157.897,-179 288.89,-163.045 442.042,-145.732 528.439,-136.089"/>
<polygon fill="midnightblue" stroke="midnightblue" points="529.088,-139.538 538.638,-134.952 528.312,-132.581 529.088,-139.538"/>
</g>
<!-- Node13 -->
<g id="node13" class="node"><title>Node13</title>
<g id="a_node13"><a xlink:href="InfoRecombiner_8hh.html" target="_top" xlink:title="boca/fastjet/InfoRecombiner.hh">
<polygon fill="white" stroke="red" points="145.397,-0.5 145.397,-19.5 298.397,-19.5 298.397,-0.5 145.397,-0.5"/>
<text text-anchor="middle" x="221.897" y="-7.5" font-family="Helvetica,sans-Serif" font-size="10.00">boca/fastjet/InfoRecombiner.hh</text>
</a>
</g>
</g>
<!-- Node12&#45;&gt;Node13 -->
<g id="edge13" class="edge"><title>Node12&#45;&gt;Node13</title>
<path fill="none" stroke="midnightblue" d="M403.671,-56.4435C366.385,-47.1221 306.628,-32.1828 265.886,-21.9972"/>
<polygon fill="midnightblue" stroke="midnightblue" points="266.513,-18.5464 255.963,-19.5164 264.815,-25.3374 266.513,-18.5464"/>
</g>
<!-- Node14 -->
<g id="node14" class="node"><title>Node14</title>
<g id="a_node14"><a xlink:href="Range_8hh.html" target="_top" xlink:title="boca/physics/Range.hh">
<polygon fill="white" stroke="red" points="316.397,-0.5 316.397,-19.5 435.397,-19.5 435.397,-0.5 316.397,-0.5"/>
<text text-anchor="middle" x="375.897" y="-7.5" font-family="Helvetica,sans-Serif" font-size="10.00">boca/physics/Range.hh</text>
</a>
</g>
</g>
<!-- Node12&#45;&gt;Node14 -->
<g id="edge14" class="edge"><title>Node12&#45;&gt;Node14</title>
<path fill="none" stroke="midnightblue" d="M427.935,-56.324C418.77,-48.3414 404.96,-36.3128 393.869,-26.6529"/>
<polygon fill="midnightblue" stroke="midnightblue" points="395.879,-23.7624 386.039,-19.8339 391.282,-29.041 395.879,-23.7624"/>
</g>
<!-- Node15 -->
<g id="node15" class="node"><title>Node15</title>
<g id="a_node15"><a xlink:href="Souce_8hh.html" target="_top" xlink:title="boca/io/Souce.hh">
<polygon fill="white" stroke="red" points="453.897,-0.5 453.897,-19.5 545.897,-19.5 545.897,-0.5 453.897,-0.5"/>
<text text-anchor="middle" x="499.897" y="-7.5" font-family="Helvetica,sans-Serif" font-size="10.00">boca/io/Souce.hh</text>
</a>
</g>
</g>
<!-- Node12&#45;&gt;Node15 -->
<g id="edge15" class="edge"><title>Node12&#45;&gt;Node15</title>
<path fill="none" stroke="midnightblue" d="M447.858,-56.324C457.023,-48.3414 470.834,-36.3128 481.925,-26.6529"/>
<polygon fill="midnightblue" stroke="midnightblue" points="484.512,-29.041 489.754,-19.8339 479.915,-23.7624 484.512,-29.041"/>
</g>
<!-- Node16 -->
<g id="node16" class="node"><title>Node16</title>
<g id="a_node16"><a xlink:href="Font_8hh.html" target="_top" xlink:title="boca/plotting/Font.hh">
<polygon fill="white" stroke="red" points="563.897,-0.5 563.897,-19.5 671.897,-19.5 671.897,-0.5 563.897,-0.5"/>
<text text-anchor="middle" x="617.897" y="-7.5" font-family="Helvetica,sans-Serif" font-size="10.00">boca/plotting/Font.hh</text>
</a>
</g>
</g>
<!-- Node12&#45;&gt;Node16 -->
<g id="edge16" class="edge"><title>Node12&#45;&gt;Node16</title>
<path fill="none" stroke="midnightblue" d="M466.418,-56.4435C496.963,-47.2801 545.605,-32.6876 579.5,-22.5192"/>
<polygon fill="midnightblue" stroke="midnightblue" points="580.936,-25.7424 589.509,-19.5164 578.925,-19.0376 580.936,-25.7424"/>
</g>
<!-- Node18 -->
<g id="node18" class="node"><title>Node18</title>
<g id="a_node18"><a xlink:href="Debug_8hh.html" target="_top" xlink:title="boca/generic/Debug.hh">
<polygon fill="white" stroke="red" points="196.397,-118 196.397,-137 313.397,-137 313.397,-118 196.397,-118"/>
<text text-anchor="middle" x="254.897" y="-125" font-family="Helvetica,sans-Serif" font-size="10.00">boca/generic/Debug.hh</text>
</a>
</g>
</g>
<!-- Node17&#45;&gt;Node18 -->
<g id="edge18" class="edge"><title>Node17&#45;&gt;Node18</title>
<path fill="none" stroke="midnightblue" d="M66.9933,-235.482C34.2273,-222.901 -1.35377,-202.785 17.8968,-179 38.7687,-153.212 123.881,-140.031 186.155,-133.712"/>
<polygon fill="midnightblue" stroke="midnightblue" points="186.715,-137.174 196.328,-132.719 186.035,-130.207 186.715,-137.174"/>
</g>
<!-- Node20 -->
<g id="node20" class="node"><title>Node20</title>
<g id="a_node20"><a xlink:href="EventMultiplet_8hh.html" target="_top" xlink:title="boca/multiplets/EventMultiplet.hh">
<polygon fill="white" stroke="black" points="1472.4,-241 1472.4,-260 1633.4,-260 1633.4,-241 1472.4,-241"/>
<text text-anchor="middle" x="1552.9" y="-248" font-family="Helvetica,sans-Serif" font-size="10.00">boca/multiplets/EventMultiplet.hh</text>
</a>
</g>
</g>
<!-- Node19&#45;&gt;Node20 -->
<g id="edge20" class="edge"><title>Node19&#45;&gt;Node20</title>
<path fill="none" stroke="midnightblue" d="M1362.91,-509.591C1423.37,-502.408 1505.93,-489.406 1575.9,-467 1705.76,-425.412 1779.53,-448.575 1851.9,-333 1859.21,-321.322 1860.79,-312.522 1851.9,-302 1825.59,-270.881 1721.77,-258.931 1643.8,-254.347"/>
<polygon fill="midnightblue" stroke="midnightblue" points="1643.64,-250.832 1633.46,-253.772 1643.25,-257.822 1643.64,-250.832"/>
</g>
<!-- Node29 -->
<g id="node29" class="node"><title>Node29</title>
<g id="a_node29"><a xlink:href="SignatureNeutral_8hh.html" target="_top" xlink:title="heavyhiggs/tagger/Signature\lNeutral.hh">
<polygon fill="white" stroke="black" points="1042.9,-436.5 1042.9,-466.5 1182.9,-466.5 1182.9,-436.5 1042.9,-436.5"/>
<text text-anchor="start" x="1050.9" y="-454.5" font-family="Helvetica,sans-Serif" font-size="10.00">heavyhiggs/tagger/Signature</text>
<text text-anchor="middle" x="1112.9" y="-443.5" font-family="Helvetica,sans-Serif" font-size="10.00">Neutral.hh</text>
</a>
</g>
</g>
<!-- Node19&#45;&gt;Node29 -->
<g id="edge31" class="edge"><title>Node19&#45;&gt;Node29</title>
<path fill="none" stroke="midnightblue" d="M1255.99,-508.869C1231.12,-499.073 1189.89,-482.83 1158.06,-470.29"/>
<polygon fill="midnightblue" stroke="midnightblue" points="1159.09,-466.937 1148.51,-466.528 1156.53,-473.45 1159.09,-466.937"/>
</g>
<!-- Node47 -->
<g id="node47" class="node"><title>Node47</title>
<g id="a_node47"><a xlink:href="branch_2EventNeutral_8hh.html" target="_top" xlink:title="heavyhiggs/branch/EventNeutral.hh">
<polygon fill="white" stroke="black" points="1394.9,-442 1394.9,-461 1566.9,-461 1566.9,-442 1394.9,-442"/>
<text text-anchor="middle" x="1480.9" y="-449" font-family="Helvetica,sans-Serif" font-size="10.00">heavyhiggs/branch/EventNeutral.hh</text>
</a>
</g>
</g>
<!-- Node19&#45;&gt;Node47 -->
<g id="edge63" class="edge"><title>Node19&#45;&gt;Node47</title>
<path fill="none" stroke="midnightblue" d="M1304.85,-508.869C1340.75,-497.376 1404.36,-477.008 1444.49,-464.159"/>
<polygon fill="midnightblue" stroke="midnightblue" points="1445.7,-467.446 1454.15,-461.064 1443.56,-460.78 1445.7,-467.446"/>
</g>
<!-- Node21 -->
<g id="node21" class="node"><title>Node21</title>
<g id="a_node21"><a xlink:href="boca_2multiplets_2Global_8hh.html" target="_top" xlink:title="boca/multiplets/Global.hh">
<polygon fill="white" stroke="black" points="1489.4,-118 1489.4,-137 1616.4,-137 1616.4,-118 1489.4,-118"/>
<text text-anchor="middle" x="1552.9" y="-125" font-family="Helvetica,sans-Serif" font-size="10.00">boca/multiplets/Global.hh</text>
</a>
</g>
</g>
<!-- Node20&#45;&gt;Node21 -->
<g id="edge21" class="edge"><title>Node20&#45;&gt;Node21</title>
<path fill="none" stroke="midnightblue" d="M1552.9,-240.798C1552.9,-221.35 1552.9,-173.99 1552.9,-147.404"/>
<polygon fill="midnightblue" stroke="midnightblue" points="1556.4,-147.123 1552.9,-137.123 1549.4,-147.123 1556.4,-147.123"/>
</g>
<!-- Node23 -->
<g id="node23" class="node"><title>Node23</title>
<g id="a_node23"><a xlink:href="multiplets_2TwoBody_8hh.html" target="_top" xlink:title="boca/multiplets/TwoBody.hh">
<polygon fill="white" stroke="black" points="1121.9,-179.5 1121.9,-198.5 1261.9,-198.5 1261.9,-179.5 1121.9,-179.5"/>
<text text-anchor="middle" x="1191.9" y="-186.5" font-family="Helvetica,sans-Serif" font-size="10.00">boca/multiplets/TwoBody.hh</text>
</a>
</g>
</g>
<!-- Node20&#45;&gt;Node23 -->
<g id="edge23" class="edge"><title>Node20&#45;&gt;Node23</title>
<path fill="none" stroke="midnightblue" d="M1501.17,-240.975C1435.77,-230.194 1323.28,-211.654 1253.5,-200.153"/>
<polygon fill="midnightblue" stroke="midnightblue" points="1253.96,-196.682 1243.52,-198.509 1252.82,-203.589 1253.96,-196.682"/>
</g>
<!-- Node22 -->
<g id="node22" class="node"><title>Node22</title>
<g id="a_node22"><a xlink:href="Singlet_8hh.html" target="_top" xlink:title="boca/multiplets/Singlet.hh">
<polygon fill="white" stroke="red" points="1210.4,-56.5 1210.4,-75.5 1339.4,-75.5 1339.4,-56.5 1210.4,-56.5"/>
<text text-anchor="middle" x="1274.9" y="-63.5" font-family="Helvetica,sans-Serif" font-size="10.00">boca/multiplets/Singlet.hh</text>
</a>
</g>
</g>
<!-- Node21&#45;&gt;Node22 -->
<g id="edge22" class="edge"><title>Node21&#45;&gt;Node22</title>
<path fill="none" stroke="midnightblue" d="M1513.07,-117.975C1463.42,-107.349 1378.55,-89.1847 1324.67,-77.6524"/>
<polygon fill="midnightblue" stroke="midnightblue" points="1325.16,-74.1796 1314.65,-75.5091 1323.7,-81.0245 1325.16,-74.1796"/>
</g>
<!-- Node24 -->
<g id="node24" class="node"><title>Node24</title>
<polygon fill="white" stroke="#bfbfbf" points="1360.9,-112.5 1360.9,-142.5 1470.9,-142.5 1470.9,-112.5 1360.9,-112.5"/>
<text text-anchor="start" x="1368.9" y="-130.5" font-family="Helvetica,sans-Serif" font-size="10.00">boost/range/algorithm</text>
<text text-anchor="middle" x="1415.9" y="-119.5" font-family="Helvetica,sans-Serif" font-size="10.00">/unique.hpp</text>
</g>
<!-- Node23&#45;&gt;Node24 -->
<g id="edge24" class="edge"><title>Node23&#45;&gt;Node24</title>
<path fill="none" stroke="midnightblue" d="M1223.99,-179.475C1257.59,-170.551 1311.21,-156.309 1353.24,-145.144"/>
<polygon fill="midnightblue" stroke="midnightblue" points="1354.34,-148.473 1363.1,-142.523 1352.54,-141.708 1354.34,-148.473"/>
</g>
<!-- Node25 -->
<g id="node25" class="node"><title>Node25</title>
<g id="a_node25"><a xlink:href="Vector_8hh.html" target="_top" xlink:title="boca/generic/Vector.hh">
<polygon fill="white" stroke="red" points="856.397,-118 856.397,-137 973.397,-137 973.397,-118 856.397,-118"/>
<text text-anchor="middle" x="914.897" y="-125" font-family="Helvetica,sans-Serif" font-size="10.00">boca/generic/Vector.hh</text>
</a>
</g>
</g>
<!-- Node23&#45;&gt;Node25 -->
<g id="edge25" class="edge"><title>Node23&#45;&gt;Node25</title>
<path fill="none" stroke="midnightblue" d="M1152.21,-179.475C1102.74,-168.849 1018.18,-150.685 964.489,-139.152"/>
<polygon fill="midnightblue" stroke="midnightblue" points="965.023,-135.687 954.511,-137.009 963.552,-142.531 965.023,-135.687"/>
</g>
<!-- Node26 -->
<g id="node26" class="node"><title>Node26</title>
<g id="a_node26"><a xlink:href="ClusterSequence_8hh.html" target="_top" xlink:title="boca/fastjet/ClusterSequence.hh">
<polygon fill="white" stroke="red" points="1029.4,-118 1029.4,-137 1188.4,-137 1188.4,-118 1029.4,-118"/>
<text text-anchor="middle" x="1108.9" y="-125" font-family="Helvetica,sans-Serif" font-size="10.00">boca/fastjet/ClusterSequence.hh</text>
</a>
</g>
</g>
<!-- Node23&#45;&gt;Node26 -->
<g id="edge27" class="edge"><title>Node23&#45;&gt;Node26</title>
<path fill="none" stroke="midnightblue" d="M1180,-179.475C1166.69,-169.931 1144.9,-154.307 1128.94,-142.868"/>
<polygon fill="midnightblue" stroke="midnightblue" points="1130.93,-139.991 1120.77,-137.009 1126.85,-145.68 1130.93,-139.991"/>
</g>
<!-- Node27 -->
<g id="node27" class="node"><title>Node27</title>
<g id="a_node27"><a xlink:href="Multiplet_8hh.html" target="_top" xlink:title="boca/multiplets/Multiplet.hh">
<polygon fill="white" stroke="red" points="1206.9,-118 1206.9,-137 1342.9,-137 1342.9,-118 1206.9,-118"/>
<text text-anchor="middle" x="1274.9" y="-125" font-family="Helvetica,sans-Serif" font-size="10.00">boca/multiplets/Multiplet.hh</text>
</a>
</g>
</g>
<!-- Node23&#45;&gt;Node27 -->
<g id="edge28" class="edge"><title>Node23&#45;&gt;Node27</title>
<path fill="none" stroke="midnightblue" d="M1203.79,-179.475C1217.1,-169.931 1238.9,-154.307 1254.85,-142.868"/>
<polygon fill="midnightblue" stroke="midnightblue" points="1256.94,-145.68 1263.03,-137.009 1252.86,-139.991 1256.94,-145.68"/>
</g>
<!-- Node28 -->
<g id="node28" class="node"><title>Node28</title>
<g id="a_node28"><a xlink:href="Sort_8hh.html" target="_top" xlink:title="boca/multiplets/Sort.hh">
<polygon fill="white" stroke="red" points="721.397,-118 721.397,-137 838.397,-137 838.397,-118 721.397,-118"/>
<text text-anchor="middle" x="779.897" y="-125" font-family="Helvetica,sans-Serif" font-size="10.00">boca/multiplets/Sort.hh</text>
</a>
</g>
</g>
<!-- Node23&#45;&gt;Node28 -->
<g id="edge30" class="edge"><title>Node23&#45;&gt;Node28</title>
<path fill="none" stroke="midnightblue" d="M1121.6,-180.57C1051.7,-172.774 941.53,-159.383 846.897,-143 840.279,-141.854 833.322,-140.509 826.498,-139.108"/>
<polygon fill="midnightblue" stroke="midnightblue" points="827.157,-135.67 816.65,-137.032 825.713,-142.519 827.157,-135.67"/>
</g>
<!-- Node25&#45;&gt;Node12 -->
<g id="edge26" class="edge"><title>Node25&#45;&gt;Node12</title>
<path fill="none" stroke="midnightblue" d="M878.321,-117.995C868.182,-115.831 857.146,-113.652 846.897,-112 721.188,-91.7343 572.252,-77.8736 493.377,-71.3234"/>
<polygon fill="midnightblue" stroke="midnightblue" points="493.438,-67.8168 483.185,-70.4855 492.865,-74.7932 493.438,-67.8168"/>
</g>
<!-- Node27&#45;&gt;Node22 -->
<g id="edge29" class="edge"><title>Node27&#45;&gt;Node22</title>
<path fill="none" stroke="midnightblue" d="M1274.9,-117.975C1274.9,-109.58 1274.9,-96.4806 1274.9,-85.6631"/>
<polygon fill="midnightblue" stroke="midnightblue" points="1278.4,-85.5091 1274.9,-75.5091 1271.4,-85.5091 1278.4,-85.5091"/>
</g>
<!-- Node30 -->
<g id="node30" class="node"><title>Node30</title>
<g id="a_node30"><a xlink:href="boca_2multiplets_2Octet_8hh.html" target="_top" xlink:title="boca/multiplets/Octet.hh">
<polygon fill="white" stroke="black" points="1254.4,-375 1254.4,-394 1377.4,-394 1377.4,-375 1254.4,-375"/>
<text text-anchor="middle" x="1315.9" y="-382" font-family="Helvetica,sans-Serif" font-size="10.00">boca/multiplets/Octet.hh</text>
</a>
</g>
</g>
<!-- Node29&#45;&gt;Node30 -->
<g id="edge32" class="edge"><title>Node29&#45;&gt;Node30</title>
<path fill="none" stroke="midnightblue" d="M1156.94,-436.396C1193.67,-424.638 1245.35,-408.089 1279.7,-397.092"/>
<polygon fill="midnightblue" stroke="midnightblue" points="1280.87,-400.39 1289.33,-394.007 1278.74,-393.723 1280.87,-400.39"/>
</g>
<!-- Node35 -->
<g id="node35" class="node"><title>Node35</title>
<g id="a_node35"><a xlink:href="tagger_2HeavyHiggsSemi_8hh.html" target="_top" xlink:title="heavyhiggs/tagger/HeavyHiggs\lSemi.hh">
<polygon fill="white" stroke="black" points="856.397,-369.5 856.397,-399.5 1009.4,-399.5 1009.4,-369.5 856.397,-369.5"/>
<text text-anchor="start" x="864.397" y="-387.5" font-family="Helvetica,sans-Serif" font-size="10.00">heavyhiggs/tagger/HeavyHiggs</text>
<text text-anchor="middle" x="932.897" y="-376.5" font-family="Helvetica,sans-Serif" font-size="10.00">Semi.hh</text>
</a>
</g>
</g>
<!-- Node29&#45;&gt;Node35 -->
<g id="edge39" class="edge"><title>Node29&#45;&gt;Node35</title>
<path fill="none" stroke="midnightblue" d="M1073.84,-436.396C1046.71,-426.601 1010.38,-413.481 981.401,-403.015"/>
<polygon fill="midnightblue" stroke="midnightblue" points="982.472,-399.681 971.878,-399.577 980.095,-406.265 982.472,-399.681"/>
</g>
<!-- Node43 -->
<g id="node43" class="node"><title>Node43</title>
<g id="a_node43"><a xlink:href="tagger_2JetPair_8hh.html" target="_top" xlink:title="heavyhiggs/tagger/JetPair.hh">
<polygon fill="white" stroke="black" points="474.397,-308 474.397,-327 617.397,-327 617.397,-308 474.397,-308"/>
<text text-anchor="middle" x="545.897" y="-315" font-family="Helvetica,sans-Serif" font-size="10.00">heavyhiggs/tagger/JetPair.hh</text>
</a>
</g>
</g>
<!-- Node29&#45;&gt;Node43 -->
<g id="edge54" class="edge"><title>Node29&#45;&gt;Node43</title>
<path fill="none" stroke="midnightblue" d="M1042.86,-438.719C989.045,-429.3 912.978,-415.195 846.897,-400 751.83,-378.139 641.475,-346.678 584.448,-329.959"/>
<polygon fill="midnightblue" stroke="midnightblue" points="585.349,-326.576 574.767,-327.113 583.374,-333.292 585.349,-326.576"/>
</g>
<!-- Node46 -->
<g id="node46" class="node"><title>Node46</title>
<g id="a_node46"><a xlink:href="OctetNeutral_8hh.html" target="_top" xlink:title="heavyhiggs/branch/OctetNeutral.hh">
<polygon fill="white" stroke="black" points="1027.9,-375 1027.9,-394 1197.9,-394 1197.9,-375 1027.9,-375"/>
<text text-anchor="middle" x="1112.9" y="-382" font-family="Helvetica,sans-Serif" font-size="10.00">heavyhiggs/branch/OctetNeutral.hh</text>
</a>
</g>
</g>
<!-- Node29&#45;&gt;Node46 -->
<g id="edge61" class="edge"><title>Node29&#45;&gt;Node46</title>
<path fill="none" stroke="midnightblue" d="M1112.9,-436.396C1112.9,-427.064 1112.9,-414.714 1112.9,-404.517"/>
<polygon fill="midnightblue" stroke="midnightblue" points="1116.4,-404.195 1112.9,-394.195 1109.4,-404.195 1116.4,-404.195"/>
</g>
<!-- Node31 -->
<g id="node31" class="node"><title>Node31</title>
<g id="a_node31"><a xlink:href="Sextet_8hh.html" target="_top" xlink:title="boca/multiplets/Sextet.hh">
<polygon fill="white" stroke="red" points="1103.9,-308 1103.9,-327 1231.9,-327 1231.9,-308 1103.9,-308"/>
<text text-anchor="middle" x="1167.9" y="-315" font-family="Helvetica,sans-Serif" font-size="10.00">boca/multiplets/Sextet.hh</text>
</a>
</g>
</g>
<!-- Node30&#45;&gt;Node31 -->
<g id="edge33" class="edge"><title>Node30&#45;&gt;Node31</title>
<path fill="none" stroke="midnightblue" d="M1296.24,-374.869C1270.81,-363.699 1226.29,-344.147 1196.95,-331.26"/>
<polygon fill="midnightblue" stroke="midnightblue" points="1198.19,-327.984 1187.63,-327.167 1195.38,-334.393 1198.19,-327.984"/>
</g>
<!-- Node32 -->
<g id="node32" class="node"><title>Node32</title>
<g id="a_node32"><a xlink:href="Quintet_8hh.html" target="_top" xlink:title="boca/multiplets/Quintet.hh">
<polygon fill="white" stroke="red" points="1438.4,-308 1438.4,-327 1569.4,-327 1569.4,-308 1438.4,-308"/>
<text text-anchor="middle" x="1503.9" y="-315" font-family="Helvetica,sans-Serif" font-size="10.00">boca/multiplets/Quintet.hh</text>
</a>
</g>
</g>
<!-- Node30&#45;&gt;Node32 -->
<g id="edge34" class="edge"><title>Node30&#45;&gt;Node32</title>
<path fill="none" stroke="midnightblue" d="M1340.86,-374.869C1373.82,-363.473 1432.01,-343.353 1469.23,-330.487"/>
<polygon fill="midnightblue" stroke="midnightblue" points="1470.82,-333.639 1479.13,-327.064 1468.53,-327.024 1470.82,-333.639"/>
</g>
<!-- Node33 -->
<g id="node33" class="node"><title>Node33</title>
<g id="a_node33"><a xlink:href="Quartet_8hh.html" target="_top" xlink:title="boca/multiplets/Quartet.hh">
<polygon fill="white" stroke="red" points="1250.4,-308 1250.4,-327 1381.4,-327 1381.4,-308 1250.4,-308"/>
<text text-anchor="middle" x="1315.9" y="-315" font-family="Helvetica,sans-Serif" font-size="10.00">boca/multiplets/Quartet.hh</text>
</a>
</g>
</g>
<!-- Node30&#45;&gt;Node33 -->
<g id="edge35" class="edge"><title>Node30&#45;&gt;Node33</title>
<path fill="none" stroke="midnightblue" d="M1315.9,-374.734C1315.9,-365.183 1315.9,-349.618 1315.9,-337.283"/>
<polygon fill="midnightblue" stroke="midnightblue" points="1319.4,-337.127 1315.9,-327.127 1312.4,-337.127 1319.4,-337.127"/>
</g>
<!-- Node34 -->
<g id="node34" class="node"><title>Node34</title>
<g id="a_node34"><a xlink:href="multiplets_2ThreeBody_8hh.html" target="_top" xlink:title="boca/multiplets/ThreeBody.hh">
<polygon fill="white" stroke="black" points="1242.9,-241 1242.9,-260 1388.9,-260 1388.9,-241 1242.9,-241"/>
<text text-anchor="middle" x="1315.9" y="-248" font-family="Helvetica,sans-Serif" font-size="10.00">boca/multiplets/ThreeBody.hh</text>
</a>
</g>
</g>
<!-- Node30&#45;&gt;Node34 -->
<g id="edge38" class="edge"><title>Node30&#45;&gt;Node34</title>
<path fill="none" stroke="midnightblue" d="M1338.55,-374.988C1356.09,-367.052 1379.15,-353.354 1389.9,-333 1396.33,-320.817 1396.33,-314.183 1389.9,-302 1380.91,-284.985 1363.33,-272.621 1347.55,-264.387"/>
<polygon fill="midnightblue" stroke="midnightblue" points="1349.08,-261.237 1338.55,-260.012 1346.02,-267.533 1349.08,-261.237"/>
</g>
<!-- Node33&#45;&gt;Node34 -->
<g id="edge36" class="edge"><title>Node33&#45;&gt;Node34</title>
<path fill="none" stroke="midnightblue" d="M1315.9,-307.734C1315.9,-298.183 1315.9,-282.618 1315.9,-270.283"/>
<polygon fill="midnightblue" stroke="midnightblue" points="1319.4,-270.127 1315.9,-260.127 1312.4,-270.127 1319.4,-270.127"/>
</g>
<!-- Node34&#45;&gt;Node23 -->
<g id="edge37" class="edge"><title>Node34&#45;&gt;Node23</title>
<path fill="none" stroke="midnightblue" d="M1298.13,-240.975C1277.41,-231.034 1242.94,-214.495 1218.91,-202.961"/>
<polygon fill="midnightblue" stroke="midnightblue" points="1220.16,-199.68 1209.63,-198.509 1217.13,-205.991 1220.16,-199.68"/>
</g>
<!-- Node35&#45;&gt;Node31 -->
<g id="edge51" class="edge"><title>Node35&#45;&gt;Node31</title>
<path fill="none" stroke="midnightblue" d="M983.599,-369.476C1026.64,-357.572 1087.58,-340.716 1127.41,-329.698"/>
<polygon fill="midnightblue" stroke="midnightblue" points="1128.36,-333.068 1137.06,-327.029 1126.49,-326.321 1128.36,-333.068"/>
</g>
<!-- Node36 -->
<g id="node36" class="node"><title>Node36</title>
<g id="a_node36"><a xlink:href="tagger_2TopLeptonic_8hh.html" target="_top" xlink:title="standardmodel/tagger\l/TopLeptonic.hh">
<polygon fill="white" stroke="red" points="635.897,-302.5 635.897,-332.5 745.897,-332.5 745.897,-302.5 635.897,-302.5"/>
<text text-anchor="start" x="643.897" y="-320.5" font-family="Helvetica,sans-Serif" font-size="10.00">standardmodel/tagger</text>
<text text-anchor="middle" x="690.897" y="-309.5" font-family="Helvetica,sans-Serif" font-size="10.00">/TopLeptonic.hh</text>
</a>
</g>
</g>
<!-- Node35&#45;&gt;Node36 -->
<g id="edge40" class="edge"><title>Node35&#45;&gt;Node36</title>
<path fill="none" stroke="midnightblue" d="M880.684,-369.476C843.281,-359.43 792.747,-345.856 753.228,-335.242"/>
<polygon fill="midnightblue" stroke="midnightblue" points="753.998,-331.825 743.433,-332.611 752.183,-338.585 753.998,-331.825"/>
</g>
<!-- Node40 -->
<g id="node40" class="node"><title>Node40</title>
<g id="a_node40"><a xlink:href="tagger_2TopHadronic_8hh.html" target="_top" xlink:title="standardmodel/tagger\l/TopHadronic.hh">
<polygon fill="white" stroke="red" points="763.897,-302.5 763.897,-332.5 873.897,-332.5 873.897,-302.5 763.897,-302.5"/>
<text text-anchor="start" x="771.897" y="-320.5" font-family="Helvetica,sans-Serif" font-size="10.00">standardmodel/tagger</text>
<text text-anchor="middle" x="818.897" y="-309.5" font-family="Helvetica,sans-Serif" font-size="10.00">/TopHadronic.hh</text>
</a>
</g>
</g>
<!-- Node35&#45;&gt;Node40 -->
<g id="edge50" class="edge"><title>Node35&#45;&gt;Node40</title>
<path fill="none" stroke="midnightblue" d="M908.161,-369.396C891.877,-360.112 870.356,-347.841 852.525,-337.674"/>
<polygon fill="midnightblue" stroke="midnightblue" points="854.006,-334.489 843.585,-332.577 850.538,-340.57 854.006,-334.489"/>
</g>
<!-- Node41 -->
<g id="node41" class="node"><title>Node41</title>
<g id="a_node41"><a xlink:href="branch_2HeavyHiggsSemi_8hh.html" target="_top" xlink:title="heavyhiggs/branch/HeavyHiggs\lSemi.hh">
<polygon fill="white" stroke="black" points="892.397,-302.5 892.397,-332.5 1047.4,-332.5 1047.4,-302.5 892.397,-302.5"/>
<text text-anchor="start" x="900.397" y="-320.5" font-family="Helvetica,sans-Serif" font-size="10.00">heavyhiggs/branch/HeavyHiggs</text>
<text text-anchor="middle" x="969.897" y="-309.5" font-family="Helvetica,sans-Serif" font-size="10.00">Semi.hh</text>
</a>
</g>
</g>
<!-- Node35&#45;&gt;Node41 -->
<g id="edge52" class="edge"><title>Node35&#45;&gt;Node41</title>
<path fill="none" stroke="midnightblue" d="M940.925,-369.396C945.58,-361.219 951.553,-350.725 956.865,-341.393"/>
<polygon fill="midnightblue" stroke="midnightblue" points="959.979,-342.999 961.884,-332.577 953.895,-339.536 959.979,-342.999"/>
</g>
<!-- Node37 -->
<g id="node37" class="node"><title>Node37</title>
<g id="a_node37"><a xlink:href="Reader_8hh.html" target="_top" xlink:title="boca/multivariant/Reader.hh">
<polygon fill="white" stroke="red" points="603.397,-241 603.397,-260 742.397,-260 742.397,-241 603.397,-241"/>
<text text-anchor="middle" x="672.897" y="-248" font-family="Helvetica,sans-Serif" font-size="10.00">boca/multivariant/Reader.hh</text>
</a>
</g>
</g>
<!-- Node36&#45;&gt;Node37 -->
<g id="edge41" class="edge"><title>Node36&#45;&gt;Node37</title>
<path fill="none" stroke="midnightblue" d="M686.991,-302.396C684.351,-292.863 680.839,-280.182 677.982,-269.862"/>
<polygon fill="midnightblue" stroke="midnightblue" points="681.346,-268.898 675.305,-260.195 674.6,-270.766 681.346,-268.898"/>
</g>
<!-- Node38 -->
<g id="node38" class="node"><title>Node38</title>
<g id="a_node38"><a xlink:href="tagger_2Bottom_8hh.html" target="_top" xlink:title="standardmodel/tagger\l/Bottom.hh">
<polygon fill="white" stroke="red" points="760.897,-235.5 760.897,-265.5 870.897,-265.5 870.897,-235.5 760.897,-235.5"/>
<text text-anchor="start" x="768.897" y="-253.5" font-family="Helvetica,sans-Serif" font-size="10.00">standardmodel/tagger</text>
<text text-anchor="middle" x="815.897" y="-242.5" font-family="Helvetica,sans-Serif" font-size="10.00">/Bottom.hh</text>
</a>
</g>
</g>
<!-- Node36&#45;&gt;Node38 -->
<g id="edge44" class="edge"><title>Node36&#45;&gt;Node38</title>
<path fill="none" stroke="midnightblue" d="M718.02,-302.396C736.12,-292.984 760.123,-280.503 779.828,-270.256"/>
<polygon fill="midnightblue" stroke="midnightblue" points="781.569,-273.295 788.827,-265.577 778.34,-267.085 781.569,-273.295"/>
</g>
<!-- Node37&#45;&gt;Node11 -->
<g id="edge43" class="edge"><title>Node37&#45;&gt;Node11</title>
<path fill="none" stroke="midnightblue" d="M671.751,-240.975C670.622,-232.58 668.861,-219.481 667.406,-208.663"/>
<polygon fill="midnightblue" stroke="midnightblue" points="670.842,-207.953 666.041,-198.509 663.905,-208.886 670.842,-207.953"/>
</g>
<!-- Node37&#45;&gt;Node28 -->
<g id="edge42" class="edge"><title>Node37&#45;&gt;Node28</title>
<path fill="none" stroke="midnightblue" d="M711.015,-240.918C759.412,-229.641 837.661,-209.983 845.897,-199 861.951,-177.59 832.331,-155.472 807.749,-141.852"/>
<polygon fill="midnightblue" stroke="midnightblue" points="809.158,-138.638 798.681,-137.067 805.892,-144.829 809.158,-138.638"/>
</g>
<!-- Node38&#45;&gt;Node22 -->
<g id="edge49" class="edge"><title>Node38&#45;&gt;Node22</title>
<path fill="none" stroke="midnightblue" d="M839.547,-235.497C872.259,-215.869 932.831,-178.576 981.897,-143 999.542,-130.206 1000.08,-121.076 1019.9,-112 1076.89,-85.8954 1147.46,-74.8779 1199.9,-70.2567"/>
<polygon fill="midnightblue" stroke="midnightblue" points="1200.46,-73.7227 1210.14,-69.4151 1199.89,-66.7463 1200.46,-73.7227"/>
</g>
<!-- Node39 -->
<g id="node39" class="node"><title>Node39</title>
<g id="a_node39"><a xlink:href="boca_2tagger_2Tagger_8hh.html" target="_top" xlink:title="boca/tagger/Tagger.hh">
<polygon fill="white" stroke="red" points="722.897,-179.5 722.897,-198.5 836.897,-198.5 836.897,-179.5 722.897,-179.5"/>
<text text-anchor="middle" x="779.897" y="-186.5" font-family="Helvetica,sans-Serif" font-size="10.00">boca/tagger/Tagger.hh</text>
</a>
</g>
</g>
<!-- Node38&#45;&gt;Node39 -->
<g id="edge45" class="edge"><title>Node38&#45;&gt;Node39</title>
<path fill="none" stroke="midnightblue" d="M807.365,-235.399C802.296,-227.021 795.826,-216.327 790.438,-207.423"/>
<polygon fill="midnightblue" stroke="midnightblue" points="793.306,-205.402 785.135,-198.658 787.317,-209.025 793.306,-205.402"/>
</g>
<!-- Node39&#45;&gt;Node6 -->
<g id="edge46" class="edge"><title>Node39&#45;&gt;Node6</title>
<path fill="none" stroke="midnightblue" d="M753.677,-179.475C721.879,-169.136 668.132,-151.661 632.579,-140.102"/>
<polygon fill="midnightblue" stroke="midnightblue" points="633.66,-136.773 623.068,-137.009 631.495,-143.43 633.66,-136.773"/>
</g>
<!-- Node39&#45;&gt;Node18 -->
<g id="edge48" class="edge"><title>Node39&#45;&gt;Node18</title>
<path fill="none" stroke="midnightblue" d="M722.671,-180.104C719.705,-179.724 716.766,-179.353 713.897,-179 575.608,-161.967 413.528,-144.785 323.701,-135.508"/>
<polygon fill="midnightblue" stroke="midnightblue" points="323.949,-132.015 313.643,-134.471 323.231,-138.978 323.949,-132.015"/>
</g>
<!-- Node39&#45;&gt;Node28 -->
<g id="edge47" class="edge"><title>Node39&#45;&gt;Node28</title>
<path fill="none" stroke="midnightblue" d="M779.897,-179.475C779.897,-171.08 779.897,-157.981 779.897,-147.163"/>
<polygon fill="midnightblue" stroke="midnightblue" points="783.397,-147.009 779.897,-137.009 776.397,-147.009 783.397,-147.009"/>
</g>
<!-- Node42 -->
<g id="node42" class="node"><title>Node42</title>
<g id="a_node42"><a xlink:href="Multi_8hh.html" target="_top" xlink:title="boca/branch/Multi.hh">
<polygon fill="white" stroke="red" points="1040.4,-241 1040.4,-260 1147.4,-260 1147.4,-241 1040.4,-241"/>
<text text-anchor="middle" x="1093.9" y="-248" font-family="Helvetica,sans-Serif" font-size="10.00">boca/branch/Multi.hh</text>
</a>
</g>
</g>
<!-- Node41&#45;&gt;Node42 -->
<g id="edge53" class="edge"><title>Node41&#45;&gt;Node42</title>
<path fill="none" stroke="midnightblue" d="M996.803,-302.396C1018.18,-291.193 1047.84,-275.641 1068.74,-264.685"/>
<polygon fill="midnightblue" stroke="midnightblue" points="1070.44,-267.75 1077.67,-260.007 1067.19,-261.55 1070.44,-267.75"/>
</g>
<!-- Node43&#45;&gt;Node37 -->
<g id="edge57" class="edge"><title>Node43&#45;&gt;Node37</title>
<path fill="none" stroke="midnightblue" d="M562.761,-307.869C584.3,-296.845 621.793,-277.655 646.974,-264.768"/>
<polygon fill="midnightblue" stroke="midnightblue" points="648.655,-267.839 655.962,-260.167 645.466,-261.608 648.655,-267.839"/>
</g>
<!-- Node43&#45;&gt;Node38 -->
<g id="edge58" class="edge"><title>Node43&#45;&gt;Node38</title>
<path fill="none" stroke="midnightblue" d="M581.472,-307.936C624.453,-297.588 697.607,-279.977 750.784,-267.175"/>
<polygon fill="midnightblue" stroke="midnightblue" points="751.9,-270.507 760.803,-264.763 750.262,-263.701 751.9,-270.507"/>
</g>
<!-- Node43&#45;&gt;Node39 -->
<g id="edge59" class="edge"><title>Node43&#45;&gt;Node39</title>
<path fill="none" stroke="midnightblue" d="M513.187,-307.896C469.47,-294.879 400.687,-268.146 429.897,-235 470.067,-189.416 635.03,-205.635 712.356,-198.943"/>
<polygon fill="midnightblue" stroke="midnightblue" points="713.094,-202.384 722.664,-197.838 712.348,-195.424 713.094,-202.384"/>
</g>
<!-- Node44 -->
<g id="node44" class="node"><title>Node44</title>
<g id="a_node44"><a xlink:href="Doublet_8hh.html" target="_top" xlink:title="boca/multiplets/Doublet.hh">
<polygon fill="white" stroke="black" points="889.397,-241 889.397,-260 1022.4,-260 1022.4,-241 889.397,-241"/>
<text text-anchor="middle" x="955.897" y="-248" font-family="Helvetica,sans-Serif" font-size="10.00">boca/multiplets/Doublet.hh</text>
</a>
</g>
</g>
<!-- Node43&#45;&gt;Node44 -->
<g id="edge55" class="edge"><title>Node43&#45;&gt;Node44</title>
<path fill="none" stroke="midnightblue" d="M592.11,-307.933C603.471,-305.908 615.613,-303.812 626.897,-302 739.037,-283.99 767.861,-284.648 879.897,-266 887.359,-264.758 895.217,-263.361 902.934,-261.936"/>
<polygon fill="midnightblue" stroke="midnightblue" points="903.769,-265.341 912.954,-260.059 902.48,-258.46 903.769,-265.341"/>
</g>
<!-- Node45 -->
<g id="node45" class="node"><title>Node45</title>
<g id="a_node45"><a xlink:href="branch_2JetPair_8hh.html" target="_top" xlink:title="heavyhiggs/branch/JetPair.hh">
<polygon fill="white" stroke="red" points="438.897,-241 438.897,-260 584.897,-260 584.897,-241 438.897,-241"/>
<text text-anchor="middle" x="511.897" y="-248" font-family="Helvetica,sans-Serif" font-size="10.00">heavyhiggs/branch/JetPair.hh</text>
</a>
</g>
</g>
<!-- Node43&#45;&gt;Node45 -->
<g id="edge60" class="edge"><title>Node43&#45;&gt;Node45</title>
<path fill="none" stroke="midnightblue" d="M541.311,-307.734C536.162,-297.89 527.673,-281.66 521.134,-269.159"/>
<polygon fill="midnightblue" stroke="midnightblue" points="524.146,-267.366 516.41,-260.127 517.943,-270.611 524.146,-267.366"/>
</g>
<!-- Node44&#45;&gt;Node23 -->
<g id="edge56" class="edge"><title>Node44&#45;&gt;Node23</title>
<path fill="none" stroke="midnightblue" d="M989.71,-240.975C1031.42,-230.459 1102.41,-212.562 1148.21,-201.014"/>
<polygon fill="midnightblue" stroke="midnightblue" points="1149.31,-204.348 1158.15,-198.509 1147.59,-197.56 1149.31,-204.348"/>
</g>
<!-- Node46&#45;&gt;Node42 -->
<g id="edge62" class="edge"><title>Node46&#45;&gt;Node42</title>
<path fill="none" stroke="midnightblue" d="M1108.8,-374.803C1104.38,-364.927 1097.62,-348.208 1094.9,-333 1091.08,-311.724 1091.47,-286.822 1092.39,-270.196"/>
<polygon fill="midnightblue" stroke="midnightblue" points="1095.89,-270.369 1093.08,-260.154 1088.91,-269.892 1095.89,-270.369"/>
</g>
<!-- Node48 -->
<g id="node48" class="node"><title>Node48</title>
<g id="a_node48"><a xlink:href="boca_2branch_2Event_8hh.html" target="_top" xlink:title="boca/branch/Event.hh">
<polygon fill="white" stroke="black" points="1581.9,-375 1581.9,-394 1693.9,-394 1693.9,-375 1581.9,-375"/>
<text text-anchor="middle" x="1637.9" y="-382" font-family="Helvetica,sans-Serif" font-size="10.00">boca/branch/Event.hh</text>
</a>
</g>
</g>
<!-- Node47&#45;&gt;Node48 -->
<g id="edge64" class="edge"><title>Node47&#45;&gt;Node48</title>
<path fill="none" stroke="midnightblue" d="M1501.75,-441.869C1528.84,-430.65 1576.36,-410.977 1607.48,-398.092"/>
<polygon fill="midnightblue" stroke="midnightblue" points="1609.06,-401.226 1616.96,-394.167 1606.38,-394.759 1609.06,-401.226"/>
</g>
<!-- Node49 -->
<g id="node49" class="node"><title>Node49</title>
<g id="a_node49"><a xlink:href="Bdt_8hh.html" target="_top" xlink:title="boca/branch/Bdt.hh">
<polygon fill="white" stroke="red" points="1587.4,-308 1587.4,-327 1688.4,-327 1688.4,-308 1587.4,-308"/>
<text text-anchor="middle" x="1637.9" y="-315" font-family="Helvetica,sans-Serif" font-size="10.00">boca/branch/Bdt.hh</text>
</a>
</g>
</g>
<!-- Node48&#45;&gt;Node49 -->
<g id="edge65" class="edge"><title>Node48&#45;&gt;Node49</title>
<path fill="none" stroke="midnightblue" d="M1637.9,-374.734C1637.9,-365.183 1637.9,-349.618 1637.9,-337.283"/>
<polygon fill="midnightblue" stroke="midnightblue" points="1641.4,-337.127 1637.9,-327.127 1634.4,-337.127 1641.4,-337.127"/>
</g>
<!-- Node50 -->
<g id="node50" class="node"><title>Node50</title>
<g id="a_node50"><a xlink:href="GlobalBase_8hh.html" target="_top" xlink:title="boca/branch/GlobalBase.hh">
<polygon fill="white" stroke="red" points="1706.4,-308 1706.4,-327 1843.4,-327 1843.4,-308 1706.4,-308"/>
<text text-anchor="middle" x="1774.9" y="-315" font-family="Helvetica,sans-Serif" font-size="10.00">boca/branch/GlobalBase.hh</text>
</a>
</g>
</g>
<!-- Node48&#45;&gt;Node50 -->
<g id="edge66" class="edge"><title>Node48&#45;&gt;Node50</title>
<path fill="none" stroke="midnightblue" d="M1656.09,-374.869C1679.43,-363.796 1720.13,-344.486 1747.29,-331.598"/>
<polygon fill="midnightblue" stroke="midnightblue" points="1749.09,-334.616 1756.63,-327.167 1746.09,-328.292 1749.09,-334.616"/>
</g>
</g>
</svg>
