<?xml version="1.0" encoding="UTF-8" standalone="no"?>
<!DOCTYPE svg PUBLIC "-//W3C//DTD SVG 1.1//EN"
 "http://www.w3.org/Graphics/SVG/1.1/DTD/svg11.dtd">
<!-- Generated by graphviz version 2.38.0 (20140413.2041)
 -->
<!-- Title: examples/toppartner/source/MainTest.cpp Pages: 1 -->
<svg width="2309pt" height="598pt"
 viewBox="0.00 0.00 2309.00 598.00" xmlns="http://www.w3.org/2000/svg" xmlns:xlink="http://www.w3.org/1999/xlink">
<g id="graph0" class="graph" transform="scale(1 1) rotate(0) translate(4 594)">
<title>examples/toppartner/source/MainTest.cpp</title>
<polygon fill="white" stroke="none" points="-4,4 -4,-594 2305,-594 2305,4 -4,4"/>
<!-- Node1 -->
<g id="node1" class="node"><title>Node1</title>
<polygon fill="#bfbfbf" stroke="black" points="616.5,-559.5 616.5,-589.5 727.5,-589.5 727.5,-559.5 616.5,-559.5"/>
<text text-anchor="start" x="624.5" y="-577.5" font-family="Helvetica,sans-Serif" font-size="10.00">examples/toppartner</text>
<text text-anchor="middle" x="672" y="-566.5" font-family="Helvetica,sans-Serif" font-size="10.00">/source/MainTest.cpp</text>
</g>
<!-- Node2 -->
<g id="node2" class="node"><title>Node2</title>
<g id="a_node2"><a xlink:href="Effective_8hh.html" target="_top" xlink:title="toppartner/analysis\l/Effective.hh">
<polygon fill="white" stroke="black" points="477.5,-492.5 477.5,-522.5 576.5,-522.5 576.5,-492.5 477.5,-492.5"/>
<text text-anchor="start" x="485.5" y="-510.5" font-family="Helvetica,sans-Serif" font-size="10.00">toppartner/analysis</text>
<text text-anchor="middle" x="527" y="-499.5" font-family="Helvetica,sans-Serif" font-size="10.00">/Effective.hh</text>
</a>
</g>
</g>
<!-- Node1&#45;&gt;Node2 -->
<g id="edge1" class="edge"><title>Node1&#45;&gt;Node2</title>
<path fill="none" stroke="midnightblue" d="M640.537,-559.396C619.161,-549.814 590.688,-537.05 567.603,-526.702"/>
<polygon fill="midnightblue" stroke="midnightblue" points="568.958,-523.473 558.401,-522.577 566.095,-529.861 568.958,-523.473"/>
</g>
<!-- Node35 -->
<g id="node35" class="node"><title>Node35</title>
<g id="a_node35"><a xlink:href="TruthLevel_8hh.html" target="_top" xlink:title="toppartner/tagger/TruthLevel.hh">
<polygon fill="white" stroke="black" points="910,-431 910,-450 1062,-450 1062,-431 910,-431"/>
<text text-anchor="middle" x="986" y="-438" font-family="Helvetica,sans-Serif" font-size="10.00">toppartner/tagger/TruthLevel.hh</text>
</a>
</g>
</g>
<!-- Node1&#45;&gt;Node35 -->
<g id="edge48" class="edge"><title>Node1&#45;&gt;Node35</title>
<path fill="none" stroke="midnightblue" d="M705.306,-559.499C766.778,-533.657 897.148,-478.852 956.028,-454.1"/>
<polygon fill="midnightblue" stroke="midnightblue" points="957.64,-457.219 965.502,-450.117 954.927,-450.766 957.64,-457.219"/>
</g>
<!-- Node3 -->
<g id="node3" class="node"><title>Node3</title>
<g id="a_node3"><a xlink:href="Particles_8hh.html" target="_top" xlink:title="boca/fastjet/Particles.hh">
<polygon fill="white" stroke="black" points="240,-297 240,-316 362,-316 362,-297 240,-297"/>
<text text-anchor="middle" x="301" y="-304" font-family="Helvetica,sans-Serif" font-size="10.00">boca/fastjet/Particles.hh</text>
</a>
</g>
</g>
<!-- Node2&#45;&gt;Node3 -->
<g id="edge2" class="edge"><title>Node2&#45;&gt;Node3</title>
<path fill="none" stroke="midnightblue" d="M510.747,-492.188C469.567,-455.928 361.379,-360.665 318.688,-323.075"/>
<polygon fill="midnightblue" stroke="midnightblue" points="320.88,-320.342 311.062,-316.36 316.254,-325.595 320.88,-320.342"/>
</g>
<!-- Node12 -->
<g id="node12" class="node"><title>Node12</title>
<g id="a_node12"><a xlink:href="Sort_8hh.html" target="_top" xlink:title="boca/fastjet/Sort.hh">
<polygon fill="white" stroke="black" points="421,-297 421,-316 523,-316 523,-297 421,-297"/>
<text text-anchor="middle" x="472" y="-304" font-family="Helvetica,sans-Serif" font-size="10.00">boca/fastjet/Sort.hh</text>
</a>
</g>
</g>
<!-- Node2&#45;&gt;Node12 -->
<g id="edge14" class="edge"><title>Node2&#45;&gt;Node12</title>
<path fill="none" stroke="midnightblue" d="M522.7,-492.379C519.647,-482.268 515.488,-468.32 512,-456 498.83,-409.487 484.281,-354.487 476.891,-326.271"/>
<polygon fill="midnightblue" stroke="midnightblue" points="480.181,-325.016 474.267,-316.225 473.408,-326.785 480.181,-325.016"/>
</g>
<!-- Node15 -->
<g id="node15" class="node"><title>Node15</title>
<g id="a_node15"><a xlink:href="analysis_2TopPartner_8hh.html" target="_top" xlink:title="toppartner/analysis\l/TopPartner.hh">
<polygon fill="white" stroke="black" points="521.5,-425.5 521.5,-455.5 620.5,-455.5 620.5,-425.5 521.5,-425.5"/>
<text text-anchor="start" x="529.5" y="-443.5" font-family="Helvetica,sans-Serif" font-size="10.00">toppartner/analysis</text>
<text text-anchor="middle" x="571" y="-432.5" font-family="Helvetica,sans-Serif" font-size="10.00">/TopPartner.hh</text>
</a>
</g>
</g>
<!-- Node2&#45;&gt;Node15 -->
<g id="edge18" class="edge"><title>Node2&#45;&gt;Node15</title>
<path fill="none" stroke="midnightblue" d="M536.547,-492.396C542.14,-484.134 549.334,-473.507 555.7,-464.102"/>
<polygon fill="midnightblue" stroke="midnightblue" points="558.764,-465.82 561.471,-455.577 552.967,-461.896 558.764,-465.82"/>
</g>
<!-- Node4 -->
<g id="node4" class="node"><title>Node4</title>
<g id="a_node4"><a xlink:href="fastjet_2Particle_8hh.html" target="_top" xlink:title="boca/fastjet/Particle.hh">
<polygon fill="white" stroke="black" points="116.5,-230 116.5,-249 233.5,-249 233.5,-230 116.5,-230"/>
<text text-anchor="middle" x="175" y="-237" font-family="Helvetica,sans-Serif" font-size="10.00">boca/fastjet/Particle.hh</text>
</a>
</g>
</g>
<!-- Node3&#45;&gt;Node4 -->
<g id="edge3" class="edge"><title>Node3&#45;&gt;Node4</title>
<path fill="none" stroke="midnightblue" d="M284.268,-296.869C262.899,-285.845 225.701,-266.655 200.719,-253.768"/>
<polygon fill="midnightblue" stroke="midnightblue" points="202.293,-250.641 191.801,-249.167 199.084,-256.862 202.293,-250.641"/>
</g>
<!-- Node9 -->
<g id="node9" class="node"><title>Node9</title>
<g id="a_node9"><a xlink:href="Id_8hh.html" target="_top" xlink:title="boca/physics/Id.hh">
<polygon fill="white" stroke="black" points="251.5,-230 251.5,-249 350.5,-249 350.5,-230 251.5,-230"/>
<text text-anchor="middle" x="301" y="-237" font-family="Helvetica,sans-Serif" font-size="10.00">boca/physics/Id.hh</text>
</a>
</g>
</g>
<!-- Node3&#45;&gt;Node9 -->
<g id="edge10" class="edge"><title>Node3&#45;&gt;Node9</title>
<path fill="none" stroke="midnightblue" d="M301,-296.734C301,-287.183 301,-271.618 301,-259.283"/>
<polygon fill="midnightblue" stroke="midnightblue" points="304.5,-259.127 301,-249.127 297.5,-259.127 304.5,-259.127"/>
</g>
<!-- Node5 -->
<g id="node5" class="node"><title>Node5</title>
<g id="a_node5"><a xlink:href="PseudoJet_8hh.html" target="_top" xlink:title="boca/fastjet/PseudoJet.hh">
<polygon fill="white" stroke="red" points="60.5,-112.5 60.5,-131.5 191.5,-131.5 191.5,-112.5 60.5,-112.5"/>
<text text-anchor="middle" x="126" y="-119.5" font-family="Helvetica,sans-Serif" font-size="10.00">boca/fastjet/PseudoJet.hh</text>
</a>
</g>
</g>
<!-- Node4&#45;&gt;Node5 -->
<g id="edge4" class="edge"><title>Node4&#45;&gt;Node5</title>
<path fill="none" stroke="midnightblue" d="M154.489,-229.909C138.032,-221.783 116.074,-207.858 106,-188 98.2627,-172.749 105.683,-153.948 113.586,-140.496"/>
<polygon fill="midnightblue" stroke="midnightblue" points="116.734,-142.074 119.216,-131.774 110.852,-138.277 116.734,-142.074"/>
</g>
<!-- Node8 -->
<g id="node8" class="node"><title>Node8</title>
<g id="a_node8"><a xlink:href="ParticleInfo_8hh.html" target="_top" xlink:title="boca/fastjet/ParticleInfo.hh">
<polygon fill="white" stroke="red" points="115,-168.5 115,-187.5 249,-187.5 249,-168.5 115,-168.5"/>
<text text-anchor="middle" x="182" y="-175.5" font-family="Helvetica,sans-Serif" font-size="10.00">boca/fastjet/ParticleInfo.hh</text>
</a>
</g>
</g>
<!-- Node4&#45;&gt;Node8 -->
<g id="edge8" class="edge"><title>Node4&#45;&gt;Node8</title>
<path fill="none" stroke="midnightblue" d="M176.003,-229.975C176.991,-221.58 178.532,-208.481 179.804,-197.663"/>
<polygon fill="midnightblue" stroke="midnightblue" points="183.306,-197.85 180.999,-187.509 176.354,-197.032 183.306,-197.85"/>
</g>
<!-- Node5&#45;&gt;Node5 -->
<g id="edge5" class="edge"><title>Node5&#45;&gt;Node5</title>
<path fill="none" stroke="midnightblue" d="M161.613,-131.525C185.811,-134.308 209.5,-131.133 209.5,-122 209.5,-114.151 192.005,-110.703 171.727,-111.654"/>
<polygon fill="midnightblue" stroke="midnightblue" points="171.297,-108.178 161.613,-112.475 171.863,-115.155 171.297,-108.178"/>
</g>
<!-- Node6 -->
<g id="node6" class="node"><title>Node6</title>
<g id="a_node6"><a xlink:href="Prefixes_8hh.html" target="_top" xlink:title="boca/physics/Prefixes.hh">
<polygon fill="white" stroke="red" points="121.5,-56.5 121.5,-75.5 248.5,-75.5 248.5,-56.5 121.5,-56.5"/>
<text text-anchor="middle" x="185" y="-63.5" font-family="Helvetica,sans-Serif" font-size="10.00">boca/physics/Prefixes.hh</text>
</a>
</g>
</g>
<!-- Node5&#45;&gt;Node6 -->
<g id="edge6" class="edge"><title>Node5&#45;&gt;Node6</title>
<path fill="none" stroke="midnightblue" d="M135.479,-112.324C144.201,-104.341 157.343,-92.3128 167.898,-82.6529"/>
<polygon fill="midnightblue" stroke="midnightblue" points="170.334,-85.1674 175.348,-75.8339 165.608,-80.0036 170.334,-85.1674"/>
</g>
<!-- Node7 -->
<g id="node7" class="node"><title>Node7</title>
<g id="a_node7"><a xlink:href="ElectronVolt_8hh.html" target="_top" xlink:title="boca/physics/ElectronVolt.hh">
<polygon fill="white" stroke="red" points="159,-0.5 159,-19.5 303,-19.5 303,-0.5 159,-0.5"/>
<text text-anchor="middle" x="231" y="-7.5" font-family="Helvetica,sans-Serif" font-size="10.00">boca/physics/ElectronVolt.hh</text>
</a>
</g>
</g>
<!-- Node6&#45;&gt;Node7 -->
<g id="edge7" class="edge"><title>Node6&#45;&gt;Node7</title>
<path fill="none" stroke="midnightblue" d="M192.596,-56.083C199.227,-48.2982 209.021,-36.8015 217.058,-27.3665"/>
<polygon fill="midnightblue" stroke="midnightblue" points="219.725,-29.6332 223.545,-19.7511 214.396,-25.0939 219.725,-29.6332"/>
</g>
<!-- Node8&#45;&gt;Node5 -->
<g id="edge9" class="edge"><title>Node8&#45;&gt;Node5</title>
<path fill="none" stroke="midnightblue" d="M173.003,-168.324C164.806,-160.42 152.494,-148.548 142.528,-138.938"/>
<polygon fill="midnightblue" stroke="midnightblue" points="144.789,-136.256 135.161,-131.834 139.93,-141.295 144.789,-136.256"/>
</g>
<!-- Node9&#45;&gt;Node7 -->
<g id="edge13" class="edge"><title>Node9&#45;&gt;Node7</title>
<path fill="none" stroke="midnightblue" d="M299.82,-229.866C295.99,-203.212 282.645,-120.159 257,-56 253.149,-46.365 247.511,-36.3055 242.469,-28.1473"/>
<polygon fill="midnightblue" stroke="midnightblue" points="245.316,-26.1041 236.966,-19.5829 239.427,-29.888 245.316,-26.1041"/>
</g>
<!-- Node10 -->
<g id="node10" class="node"><title>Node10</title>
<polygon fill="white" stroke="#bfbfbf" points="969.5,-112.5 969.5,-131.5 1010.5,-131.5 1010.5,-112.5 969.5,-112.5"/>
<text text-anchor="middle" x="990" y="-119.5" font-family="Helvetica,sans-Serif" font-size="10.00">string</text>
</g>
<!-- Node9&#45;&gt;Node10 -->
<g id="edge11" class="edge"><title>Node9&#45;&gt;Node10</title>
<path fill="none" stroke="midnightblue" d="M302.226,-229.752C304.901,-214.318 312.819,-182.514 334,-168 385.99,-132.375 836.44,-124.726 959.21,-123.297"/>
<polygon fill="midnightblue" stroke="midnightblue" points="959.45,-126.795 969.41,-123.184 959.372,-119.795 959.45,-126.795"/>
</g>
<!-- Node11 -->
<g id="node11" class="node"><title>Node11</title>
<polygon fill="white" stroke="#bfbfbf" points="1156,-168.5 1156,-187.5 1200,-187.5 1200,-168.5 1156,-168.5"/>
<text text-anchor="middle" x="1178" y="-175.5" font-family="Helvetica,sans-Serif" font-size="10.00">vector</text>
</g>
<!-- Node9&#45;&gt;Node11 -->
<g id="edge12" class="edge"><title>Node9&#45;&gt;Node11</title>
<path fill="none" stroke="midnightblue" d="M330.279,-229.975C339.404,-227.645 349.552,-225.383 359,-224 702.153,-173.77 798.496,-242.432 1145.68,-187.571"/>
<polygon fill="midnightblue" stroke="midnightblue" points="1146.45,-190.993 1155.77,-185.954 1145.34,-184.081 1146.45,-190.993"/>
</g>
<!-- Node12&#45;&gt;Node9 -->
<g id="edge17" class="edge"><title>Node12&#45;&gt;Node9</title>
<path fill="none" stroke="midnightblue" d="M449.293,-296.869C419.442,-285.522 366.834,-265.525 332.97,-252.652"/>
<polygon fill="midnightblue" stroke="midnightblue" points="334.12,-249.345 323.529,-249.064 331.633,-255.888 334.12,-249.345"/>
</g>
<!-- Node13 -->
<g id="node13" class="node"><title>Node13</title>
<polygon fill="white" stroke="#bfbfbf" points="500,-224.5 500,-254.5 610,-254.5 610,-224.5 500,-224.5"/>
<text text-anchor="start" x="508" y="-242.5" font-family="Helvetica,sans-Serif" font-size="10.00">boost/range/algorithm</text>
<text text-anchor="middle" x="555" y="-231.5" font-family="Helvetica,sans-Serif" font-size="10.00">/sort.hpp</text>
</g>
<!-- Node12&#45;&gt;Node13 -->
<g id="edge15" class="edge"><title>Node12&#45;&gt;Node13</title>
<path fill="none" stroke="midnightblue" d="M483.194,-296.734C494.842,-287.611 513.495,-273.004 528.87,-260.963"/>
<polygon fill="midnightblue" stroke="midnightblue" points="531.294,-263.51 537.009,-254.589 526.978,-257.999 531.294,-263.51"/>
</g>
<!-- Node14 -->
<g id="node14" class="node"><title>Node14</title>
<polygon fill="white" stroke="#bfbfbf" points="368.5,-230 368.5,-249 481.5,-249 481.5,-230 368.5,-230"/>
<text text-anchor="middle" x="425" y="-237" font-family="Helvetica,sans-Serif" font-size="10.00">boost/units/cmath.hpp</text>
</g>
<!-- Node12&#45;&gt;Node14 -->
<g id="edge16" class="edge"><title>Node12&#45;&gt;Node14</title>
<path fill="none" stroke="midnightblue" d="M465.661,-296.734C458.403,-286.695 446.341,-270.014 437.235,-257.421"/>
<polygon fill="midnightblue" stroke="midnightblue" points="439.934,-255.18 431.238,-249.127 434.261,-259.282 439.934,-255.18"/>
</g>
<!-- Node16 -->
<g id="node16" class="node"><title>Node16</title>
<g id="a_node16"><a xlink:href="boca_2analysis_2Analysis_8hh.html" target="_top" xlink:title="boca/analysis/Analysis.hh">
<polygon fill="white" stroke="black" points="644.5,-364 644.5,-383 775.5,-383 775.5,-364 644.5,-364"/>
<text text-anchor="middle" x="710" y="-371" font-family="Helvetica,sans-Serif" font-size="10.00">boca/analysis/Analysis.hh</text>
</a>
</g>
</g>
<!-- Node15&#45;&gt;Node16 -->
<g id="edge19" class="edge"><title>Node15&#45;&gt;Node16</title>
<path fill="none" stroke="midnightblue" d="M601.161,-425.396C625.442,-414.041 659.275,-398.22 682.748,-387.244"/>
<polygon fill="midnightblue" stroke="midnightblue" points="684.232,-390.414 691.808,-383.007 681.267,-384.073 684.232,-390.414"/>
</g>
<!-- Node27 -->
<g id="node27" class="node"><title>Node27</title>
<g id="a_node27"><a xlink:href="Settings_8hh.html" target="_top" xlink:title="boca/Settings.hh">
<polygon fill="white" stroke="black" points="691,-230 691,-249 781,-249 781,-230 691,-230"/>
<text text-anchor="middle" x="736" y="-237" font-family="Helvetica,sans-Serif" font-size="10.00">boca/Settings.hh</text>
</a>
</g>
</g>
<!-- Node15&#45;&gt;Node27 -->
<g id="edge43" class="edge"><title>Node15&#45;&gt;Node27</title>
<path fill="none" stroke="midnightblue" d="M570.489,-425.306C570.223,-396.407 573.677,-330.165 608,-291 626.626,-269.746 655.37,-257.352 680.904,-250.167"/>
<polygon fill="midnightblue" stroke="midnightblue" points="682.076,-253.479 690.872,-247.573 680.313,-246.705 682.076,-253.479"/>
</g>
<!-- Node33 -->
<g id="node33" class="node"><title>Node33</title>
<g id="a_node33"><a xlink:href="DEBUG__MACROS_8hh.html" target="_top" xlink:title="boca/generic/DEBUG\l_MACROS.hh">
<polygon fill="white" stroke="black" points="932.5,-358.5 932.5,-388.5 1043.5,-388.5 1043.5,-358.5 932.5,-358.5"/>
<text text-anchor="start" x="940.5" y="-376.5" font-family="Helvetica,sans-Serif" font-size="10.00">boca/generic/DEBUG</text>
<text text-anchor="middle" x="988" y="-365.5" font-family="Helvetica,sans-Serif" font-size="10.00">_MACROS.hh</text>
</a>
</g>
</g>
<!-- Node15&#45;&gt;Node33 -->
<g id="edge44" class="edge"><title>Node15&#45;&gt;Node33</title>
<path fill="none" stroke="midnightblue" d="M620.886,-431.724C696.191,-419.986 838.957,-397.732 922.533,-384.705"/>
<polygon fill="midnightblue" stroke="midnightblue" points="923.082,-388.162 932.423,-383.163 922.003,-381.245 923.082,-388.162"/>
</g>
<!-- Node17 -->
<g id="node17" class="node"><title>Node17</title>
<polygon fill="white" stroke="#bfbfbf" points="617,-297 617,-316 661,-316 661,-297 617,-297"/>
<text text-anchor="middle" x="639" y="-304" font-family="Helvetica,sans-Serif" font-size="10.00">thread</text>
</g>
<!-- Node16&#45;&gt;Node17 -->
<g id="edge20" class="edge"><title>Node16&#45;&gt;Node17</title>
<path fill="none" stroke="midnightblue" d="M700.425,-363.734C689.034,-353.305 669.813,-335.709 655.901,-322.973"/>
<polygon fill="midnightblue" stroke="midnightblue" points="658.163,-320.298 648.424,-316.127 653.436,-325.461 658.163,-320.298"/>
</g>
<!-- Node18 -->
<g id="node18" class="node"><title>Node18</title>
<g id="a_node18"><a xlink:href="Types_8hh.html" target="_top" xlink:title="boca/generic/Types.hh">
<polygon fill="white" stroke="black" points="852,-230 852,-249 968,-249 968,-230 852,-230"/>
<text text-anchor="middle" x="910" y="-237" font-family="Helvetica,sans-Serif" font-size="10.00">boca/generic/Types.hh</text>
</a>
</g>
</g>
<!-- Node16&#45;&gt;Node18 -->
<g id="edge21" class="edge"><title>Node16&#45;&gt;Node18</title>
<path fill="none" stroke="midnightblue" d="M727.853,-363.921C746.81,-354.535 777.374,-338.601 802,-322 820.073,-309.817 822.71,-304.271 840,-291 856.285,-278.501 875.186,-264.918 889.24,-254.99"/>
<polygon fill="midnightblue" stroke="midnightblue" points="891.532,-257.657 897.699,-249.042 887.506,-251.931 891.532,-257.657"/>
</g>
<!-- Node20 -->
<g id="node20" class="node"><title>Node20</title>
<g id="a_node20"><a xlink:href="Io_8hh.html" target="_top" xlink:title="boca/io/Io.hh">
<polygon fill="white" stroke="black" points="343.5,-168.5 343.5,-187.5 416.5,-187.5 416.5,-168.5 343.5,-168.5"/>
<text text-anchor="middle" x="380" y="-175.5" font-family="Helvetica,sans-Serif" font-size="10.00">boca/io/Io.hh</text>
</a>
</g>
</g>
<!-- Node16&#45;&gt;Node20 -->
<g id="edge24" class="edge"><title>Node16&#45;&gt;Node20</title>
<path fill="none" stroke="midnightblue" d="M670.815,-363.95C648.243,-356.798 621.704,-344.077 608,-322 584.884,-284.762 647.007,-257.714 619,-224 592.809,-192.472 483.313,-195.637 426.868,-187.855"/>
<polygon fill="midnightblue" stroke="midnightblue" points="427.083,-184.344 416.653,-186.201 425.965,-191.254 427.083,-184.344"/>
</g>
<!-- Node21 -->
<g id="node21" class="node"><title>Node21</title>
<g id="a_node21"><a xlink:href="Plotting_8hh.html" target="_top" xlink:title="boca/plotting/Plotting.hh">
<polygon fill="white" stroke="red" points="849,-297 849,-316 971,-316 971,-297 849,-297"/>
<text text-anchor="middle" x="910" y="-304" font-family="Helvetica,sans-Serif" font-size="10.00">boca/plotting/Plotting.hh</text>
</a>
</g>
</g>
<!-- Node16&#45;&gt;Node21 -->
<g id="edge26" class="edge"><title>Node16&#45;&gt;Node21</title>
<path fill="none" stroke="midnightblue" d="M736.558,-363.869C771.921,-352.376 834.59,-332.008 874.127,-319.159"/>
<polygon fill="midnightblue" stroke="midnightblue" points="875.222,-322.483 883.65,-316.064 873.058,-315.826 875.222,-322.483"/>
</g>
<!-- Node22 -->
<g id="node22" class="node"><title>Node22</title>
<g id="a_node22"><a xlink:href="analysis_2Base_8hh.html" target="_top" xlink:title="boca/analysis/Base.hh">
<polygon fill="white" stroke="red" points="989,-297 989,-316 1105,-316 1105,-297 989,-297"/>
<text text-anchor="middle" x="1047" y="-304" font-family="Helvetica,sans-Serif" font-size="10.00">boca/analysis/Base.hh</text>
</a>
</g>
</g>
<!-- Node16&#45;&gt;Node22 -->
<g id="edge28" class="edge"><title>Node16&#45;&gt;Node22</title>
<path fill="none" stroke="midnightblue" d="M757.876,-363.967C811.911,-354.238 902.401,-337.651 980,-322 985.904,-320.809 992.093,-319.523 998.222,-318.224"/>
<polygon fill="midnightblue" stroke="midnightblue" points="999.374,-321.557 1008.42,-316.044 997.91,-314.712 999.374,-321.557"/>
</g>
<!-- Node26 -->
<g id="node26" class="node"><title>Node26</title>
<g id="a_node26"><a xlink:href="Data_8hh.html" target="_top" xlink:title="boca/analysis/Data.hh">
<polygon fill="white" stroke="red" points="679,-297 679,-316 793,-316 793,-297 679,-297"/>
<text text-anchor="middle" x="736" y="-304" font-family="Helvetica,sans-Serif" font-size="10.00">boca/analysis/Data.hh</text>
</a>
</g>
</g>
<!-- Node16&#45;&gt;Node26 -->
<g id="edge32" class="edge"><title>Node16&#45;&gt;Node26</title>
<path fill="none" stroke="midnightblue" d="M713.506,-363.734C717.405,-353.988 723.808,-337.981 728.787,-325.532"/>
<polygon fill="midnightblue" stroke="midnightblue" points="732.085,-326.712 732.549,-316.127 725.585,-324.112 732.085,-326.712"/>
</g>
<!-- Node31 -->
<g id="node31" class="node"><title>Node31</title>
<g id="a_node31"><a xlink:href="boca_2Event_8hh.html" target="_top" xlink:title="boca/Event.hh">
<polygon fill="white" stroke="red" points="138,-297 138,-316 218,-316 218,-297 138,-297"/>
<text text-anchor="middle" x="178" y="-304" font-family="Helvetica,sans-Serif" font-size="10.00">boca/Event.hh</text>
</a>
</g>
</g>
<!-- Node16&#45;&gt;Node31 -->
<g id="edge39" class="edge"><title>Node16&#45;&gt;Node31</title>
<path fill="none" stroke="midnightblue" d="M658.914,-363.955C645.316,-361.839 630.621,-359.695 617,-358 446.019,-336.718 400.516,-352.851 231,-322 225.91,-321.074 220.598,-319.889 215.386,-318.597"/>
<polygon fill="midnightblue" stroke="midnightblue" points="216.134,-315.175 205.573,-316.02 214.356,-321.945 216.134,-315.175"/>
</g>
<!-- Node18&#45;&gt;Node10 -->
<g id="edge22" class="edge"><title>Node18&#45;&gt;Node10</title>
<path fill="none" stroke="midnightblue" d="M924.725,-229.943C938.624,-221.131 959.062,-206.148 971,-188 980.187,-174.034 985.03,-155.53 987.52,-141.837"/>
<polygon fill="midnightblue" stroke="midnightblue" points="991.023,-142.092 989.103,-131.673 984.106,-141.015 991.023,-142.092"/>
</g>
<!-- Node19 -->
<g id="node19" class="node"><title>Node19</title>
<polygon fill="white" stroke="#bfbfbf" points="846,-168.5 846,-187.5 962,-187.5 962,-168.5 846,-168.5"/>
<text text-anchor="middle" x="904" y="-175.5" font-family="Helvetica,sans-Serif" font-size="10.00">boost/range/irange.hpp</text>
</g>
<!-- Node18&#45;&gt;Node19 -->
<g id="edge23" class="edge"><title>Node18&#45;&gt;Node19</title>
<path fill="none" stroke="midnightblue" d="M909.14,-229.975C908.294,-221.58 906.973,-208.481 905.882,-197.663"/>
<polygon fill="midnightblue" stroke="midnightblue" points="909.344,-197.107 904.858,-187.509 902.379,-197.81 909.344,-197.107"/>
</g>
<!-- Node20&#45;&gt;Node10 -->
<g id="edge25" class="edge"><title>Node20&#45;&gt;Node10</title>
<path fill="none" stroke="midnightblue" d="M416.596,-169.451C419.769,-168.915 422.936,-168.421 426,-168 628.513,-140.202 874.47,-127.862 959.422,-124.217"/>
<polygon fill="midnightblue" stroke="midnightblue" points="959.578,-127.714 969.422,-123.797 959.284,-120.72 959.578,-127.714"/>
</g>
<!-- Node21&#45;&gt;Node18 -->
<g id="edge27" class="edge"><title>Node21&#45;&gt;Node18</title>
<path fill="none" stroke="midnightblue" d="M910,-296.734C910,-287.183 910,-271.618 910,-259.283"/>
<polygon fill="midnightblue" stroke="midnightblue" points="913.5,-259.127 910,-249.127 906.5,-259.127 913.5,-259.127"/>
</g>
<!-- Node23 -->
<g id="node23" class="node"><title>Node23</title>
<g id="a_node23"><a xlink:href="PreCuts_8hh.html" target="_top" xlink:title="boca/PreCuts.hh">
<polygon fill="white" stroke="red" points="1046,-230 1046,-249 1136,-249 1136,-230 1046,-230"/>
<text text-anchor="middle" x="1091" y="-237" font-family="Helvetica,sans-Serif" font-size="10.00">boca/PreCuts.hh</text>
</a>
</g>
</g>
<!-- Node22&#45;&gt;Node23 -->
<g id="edge29" class="edge"><title>Node22&#45;&gt;Node23</title>
<path fill="none" stroke="midnightblue" d="M1052.93,-296.734C1059.73,-286.695 1071.02,-270.014 1079.55,-257.421"/>
<polygon fill="midnightblue" stroke="midnightblue" points="1082.45,-259.37 1085.16,-249.127 1076.66,-255.446 1082.45,-259.37"/>
</g>
<!-- Node24 -->
<g id="node24" class="node"><title>Node24</title>
<g id="a_node24"><a xlink:href="Range_8hh.html" target="_top" xlink:title="boca/physics/Range.hh">
<polygon fill="white" stroke="red" points="1018.5,-168.5 1018.5,-187.5 1137.5,-187.5 1137.5,-168.5 1018.5,-168.5"/>
<text text-anchor="middle" x="1078" y="-175.5" font-family="Helvetica,sans-Serif" font-size="10.00">boca/physics/Range.hh</text>
</a>
</g>
</g>
<!-- Node23&#45;&gt;Node24 -->
<g id="edge30" class="edge"><title>Node23&#45;&gt;Node24</title>
<path fill="none" stroke="midnightblue" d="M1089.14,-229.975C1087.28,-221.492 1084.38,-208.204 1082,-197.322"/>
<polygon fill="midnightblue" stroke="midnightblue" points="1085.41,-196.532 1079.86,-187.509 1078.57,-198.026 1085.41,-196.532"/>
</g>
<!-- Node25 -->
<g id="node25" class="node"><title>Node25</title>
<g id="a_node25"><a xlink:href="generic_2Vector_8hh.html" target="_top" xlink:title="boca/generic/Vector.hh">
<polygon fill="white" stroke="red" points="1294.5,-168.5 1294.5,-187.5 1411.5,-187.5 1411.5,-168.5 1294.5,-168.5"/>
<text text-anchor="middle" x="1353" y="-175.5" font-family="Helvetica,sans-Serif" font-size="10.00">boca/generic/Vector.hh</text>
</a>
</g>
</g>
<!-- Node23&#45;&gt;Node25 -->
<g id="edge31" class="edge"><title>Node23&#45;&gt;Node25</title>
<path fill="none" stroke="midnightblue" d="M1128.54,-229.975C1175.23,-219.371 1254.98,-201.26 1305.78,-189.724"/>
<polygon fill="midnightblue" stroke="midnightblue" points="1306.55,-193.137 1315.53,-187.509 1305,-186.311 1306.55,-193.137"/>
</g>
<!-- Node26&#45;&gt;Node27 -->
<g id="edge33" class="edge"><title>Node26&#45;&gt;Node27</title>
<path fill="none" stroke="midnightblue" d="M736,-296.734C736,-287.183 736,-271.618 736,-259.283"/>
<polygon fill="midnightblue" stroke="midnightblue" points="739.5,-259.127 736,-249.127 732.5,-259.127 739.5,-259.127"/>
</g>
<!-- Node27&#45;&gt;Node24 -->
<g id="edge35" class="edge"><title>Node27&#45;&gt;Node24</title>
<path fill="none" stroke="midnightblue" d="M781.062,-230.66C842.136,-220.035 951.305,-201.042 1018.9,-189.283"/>
<polygon fill="midnightblue" stroke="midnightblue" points="1019.71,-192.693 1028.96,-187.531 1018.51,-185.797 1019.71,-192.693"/>
</g>
<!-- Node28 -->
<g id="node28" class="node"><title>Node28</title>
<g id="a_node28"><a xlink:href="InfoRecombiner_8hh.html" target="_top" xlink:title="boca/fastjet/InfoRecombiner.hh">
<polygon fill="white" stroke="red" points="561.5,-168.5 561.5,-187.5 714.5,-187.5 714.5,-168.5 561.5,-168.5"/>
<text text-anchor="middle" x="638" y="-175.5" font-family="Helvetica,sans-Serif" font-size="10.00">boca/fastjet/InfoRecombiner.hh</text>
</a>
</g>
</g>
<!-- Node27&#45;&gt;Node28 -->
<g id="edge34" class="edge"><title>Node27&#45;&gt;Node28</title>
<path fill="none" stroke="midnightblue" d="M721.959,-229.975C705.949,-220.255 679.55,-204.227 660.626,-192.737"/>
<polygon fill="midnightblue" stroke="midnightblue" points="662.379,-189.707 652.015,-187.509 658.746,-195.691 662.379,-189.707"/>
</g>
<!-- Node29 -->
<g id="node29" class="node"><title>Node29</title>
<g id="a_node29"><a xlink:href="Source_8hh.html" target="_top" xlink:title="boca/io/Source.hh">
<polygon fill="white" stroke="black" points="732.5,-168.5 732.5,-187.5 827.5,-187.5 827.5,-168.5 732.5,-168.5"/>
<text text-anchor="middle" x="780" y="-175.5" font-family="Helvetica,sans-Serif" font-size="10.00">boca/io/Source.hh</text>
</a>
</g>
</g>
<!-- Node27&#45;&gt;Node29 -->
<g id="edge36" class="edge"><title>Node27&#45;&gt;Node29</title>
<path fill="none" stroke="midnightblue" d="M742.304,-229.975C748.904,-221.05 759.437,-206.807 767.693,-195.643"/>
<polygon fill="midnightblue" stroke="midnightblue" points="770.576,-197.631 773.708,-187.509 764.948,-193.468 770.576,-197.631"/>
</g>
<!-- Node30 -->
<g id="node30" class="node"><title>Node30</title>
<g id="a_node30"><a xlink:href="Font_8hh.html" target="_top" xlink:title="boca/plotting/Font.hh">
<polygon fill="white" stroke="red" points="435,-168.5 435,-187.5 543,-187.5 543,-168.5 435,-168.5"/>
<text text-anchor="middle" x="489" y="-175.5" font-family="Helvetica,sans-Serif" font-size="10.00">boca/plotting/Font.hh</text>
</a>
</g>
</g>
<!-- Node27&#45;&gt;Node30 -->
<g id="edge38" class="edge"><title>Node27&#45;&gt;Node30</title>
<path fill="none" stroke="midnightblue" d="M700.611,-229.975C656.774,-219.415 582.034,-201.411 534.12,-189.869"/>
<polygon fill="midnightblue" stroke="midnightblue" points="534.865,-186.448 524.323,-187.509 533.226,-193.254 534.865,-186.448"/>
</g>
<!-- Node29&#45;&gt;Node10 -->
<g id="edge37" class="edge"><title>Node29&#45;&gt;Node10</title>
<path fill="none" stroke="midnightblue" d="M813.275,-168.444C853.512,-158.097 920.666,-140.829 959.578,-130.823"/>
<polygon fill="midnightblue" stroke="midnightblue" points="960.48,-134.205 969.293,-128.325 958.737,-127.425 960.48,-134.205"/>
</g>
<!-- Node31&#45;&gt;Node4 -->
<g id="edge42" class="edge"><title>Node31&#45;&gt;Node4</title>
<path fill="none" stroke="midnightblue" d="M177.595,-296.734C177.155,-287.183 176.436,-271.618 175.867,-259.283"/>
<polygon fill="midnightblue" stroke="midnightblue" points="179.356,-258.955 175.398,-249.127 172.363,-259.278 179.356,-258.955"/>
</g>
<!-- Node32 -->
<g id="node32" class="node"><title>Node32</title>
<g id="a_node32"><a xlink:href="Jet_8hh.html" target="_top" xlink:title="boca/fastjet/Jet.hh">
<polygon fill="white" stroke="red" points="0,-230 0,-249 98,-249 98,-230 0,-230"/>
<text text-anchor="middle" x="49" y="-237" font-family="Helvetica,sans-Serif" font-size="10.00">boca/fastjet/Jet.hh</text>
</a>
</g>
</g>
<!-- Node31&#45;&gt;Node32 -->
<g id="edge40" class="edge"><title>Node31&#45;&gt;Node32</title>
<path fill="none" stroke="midnightblue" d="M160.87,-296.869C138.992,-285.845 100.908,-266.655 75.3315,-253.768"/>
<polygon fill="midnightblue" stroke="midnightblue" points="76.7064,-250.541 66.2011,-249.167 73.5565,-256.793 76.7064,-250.541"/>
</g>
<!-- Node32&#45;&gt;Node5 -->
<g id="edge41" class="edge"><title>Node32&#45;&gt;Node5</title>
<path fill="none" stroke="midnightblue" d="M54.7875,-229.819C67.4408,-210.839 97.768,-165.348 114.475,-140.288"/>
<polygon fill="midnightblue" stroke="midnightblue" points="117.51,-142.044 120.145,-131.782 111.686,-138.161 117.51,-142.044"/>
</g>
<!-- Node34 -->
<g id="node34" class="node"><title>Node34</title>
<g id="a_node34"><a xlink:href="Debug_8hh.html" target="_top" xlink:title="boca/generic/Debug.hh">
<polygon fill="white" stroke="red" points="1199.5,-297 1199.5,-316 1316.5,-316 1316.5,-297 1199.5,-297"/>
<text text-anchor="middle" x="1258" y="-304" font-family="Helvetica,sans-Serif" font-size="10.00">boca/generic/Debug.hh</text>
</a>
</g>
</g>
<!-- Node33&#45;&gt;Node34 -->
<g id="edge45" class="edge"><title>Node33&#45;&gt;Node34</title>
<path fill="none" stroke="midnightblue" d="M1043.62,-359.111C1093.67,-347.062 1166.29,-329.578 1212.83,-318.373"/>
<polygon fill="midnightblue" stroke="midnightblue" points="1213.74,-321.756 1222.64,-316.013 1212.1,-314.951 1213.74,-321.756"/>
</g>
<!-- Node34&#45;&gt;Node10 -->
<g id="edge46" class="edge"><title>Node34&#45;&gt;Node10</title>
<path fill="none" stroke="midnightblue" d="M1256.04,-296.664C1249.76,-269.136 1229.37,-185.706 1209,-168 1181.25,-143.879 1074.64,-130.815 1021.08,-125.652"/>
<polygon fill="midnightblue" stroke="midnightblue" points="1021.09,-122.138 1010.81,-124.696 1020.44,-129.108 1021.09,-122.138"/>
</g>
<!-- Node34&#45;&gt;Node11 -->
<g id="edge47" class="edge"><title>Node34&#45;&gt;Node11</title>
<path fill="none" stroke="midnightblue" d="M1249.08,-296.804C1239.56,-287.194 1224.44,-270.957 1214,-255 1201.92,-236.539 1191.55,-213.389 1185.09,-197.519"/>
<polygon fill="midnightblue" stroke="midnightblue" points="1188.2,-195.857 1181.27,-187.843 1181.69,-198.43 1188.2,-195.857"/>
</g>
<!-- Node36 -->
<g id="node36" class="node"><title>Node36</title>
<g id="a_node36"><a xlink:href="boca_2tagger_2Tagger_8hh.html" target="_top" xlink:title="boca/tagger/Tagger.hh">
<polygon fill="white" stroke="black" points="1201,-364 1201,-383 1315,-383 1315,-364 1201,-364"/>
<text text-anchor="middle" x="1258" y="-371" font-family="Helvetica,sans-Serif" font-size="10.00">boca/tagger/Tagger.hh</text>
</a>
</g>
</g>
<!-- Node35&#45;&gt;Node36 -->
<g id="edge49" class="edge"><title>Node35&#45;&gt;Node36</title>
<path fill="none" stroke="midnightblue" d="M1021.84,-430.936C1070.76,-419.244 1158.49,-398.28 1212.15,-385.457"/>
<polygon fill="midnightblue" stroke="midnightblue" points="1213.17,-388.812 1222.08,-383.083 1211.54,-382.004 1213.17,-388.812"/>
</g>
<!-- Node48 -->
<g id="node48" class="node"><title>Node48</title>
<g id="a_node48"><a xlink:href="examples_2toppartner_2toppartner_2multiplets_2TruthVariables_8hh.html" target="_top" xlink:title="toppartner/multiplets\l/TruthVariables.hh">
<polygon fill="white" stroke="black" points="14.5,-291.5 14.5,-321.5 119.5,-321.5 119.5,-291.5 14.5,-291.5"/>
<text text-anchor="start" x="22.5" y="-309.5" font-family="Helvetica,sans-Serif" font-size="10.00">toppartner/multiplets</text>
<text text-anchor="middle" x="67" y="-298.5" font-family="Helvetica,sans-Serif" font-size="10.00">/TruthVariables.hh</text>
</a>
</g>
</g>
<!-- Node35&#45;&gt;Node48 -->
<g id="edge70" class="edge"><title>Node35&#45;&gt;Node48</title>
<path fill="none" stroke="midnightblue" d="M909.957,-431.492C761.606,-415.342 423.19,-375.917 129.678,-322.019"/>
<polygon fill="midnightblue" stroke="midnightblue" points="130.164,-318.55 119.695,-320.177 128.894,-325.434 130.164,-318.55"/>
</g>
<!-- Node49 -->
<g id="node49" class="node"><title>Node49</title>
<g id="a_node49"><a xlink:href="toppartner_2toppartner_2branch_2Truth_8hh.html" target="_top" xlink:title="toppartner/branch/Truth.hh">
<polygon fill="white" stroke="black" points="2122.5,-364 2122.5,-383 2253.5,-383 2253.5,-364 2122.5,-364"/>
<text text-anchor="middle" x="2188" y="-371" font-family="Helvetica,sans-Serif" font-size="10.00">toppartner/branch/Truth.hh</text>
</a>
</g>
</g>
<!-- Node35&#45;&gt;Node49 -->
<g id="edge73" class="edge"><title>Node35&#45;&gt;Node49</title>
<path fill="none" stroke="midnightblue" d="M1062.1,-435.385C1278.53,-423.681 1895.81,-390.301 2112.05,-378.607"/>
<polygon fill="midnightblue" stroke="midnightblue" points="2112.55,-382.085 2122.35,-378.05 2112.17,-375.096 2112.55,-382.085"/>
</g>
<!-- Node36&#45;&gt;Node12 -->
<g id="edge51" class="edge"><title>Node36&#45;&gt;Node12</title>
<path fill="none" stroke="midnightblue" d="M1200.92,-368.277C1064.51,-358.15 722.471,-332.547 608,-322 583.593,-319.751 556.757,-316.958 533.419,-314.426"/>
<polygon fill="midnightblue" stroke="midnightblue" points="533.628,-310.928 523.307,-313.321 532.868,-317.887 533.628,-310.928"/>
</g>
<!-- Node36&#45;&gt;Node18 -->
<g id="edge50" class="edge"><title>Node36&#45;&gt;Node18</title>
<path fill="none" stroke="midnightblue" d="M1233.71,-363.856C1210.65,-355.081 1175.51,-340.213 1148,-322 1130.95,-310.711 1132.03,-300.642 1114,-291 1071.79,-268.433 1019.27,-255.734 978.094,-248.715"/>
<polygon fill="midnightblue" stroke="midnightblue" points="978.584,-245.248 968.151,-247.092 977.457,-252.157 978.584,-245.248"/>
</g>
<!-- Node36&#45;&gt;Node23 -->
<g id="edge65" class="edge"><title>Node36&#45;&gt;Node23</title>
<path fill="none" stroke="midnightblue" d="M1245.83,-363.74C1232.11,-353.808 1209.23,-337.039 1190,-322 1161.28,-299.539 1128.79,-272.463 1109.11,-255.868"/>
<polygon fill="midnightblue" stroke="midnightblue" points="1111.16,-253.021 1101.27,-249.238 1106.64,-258.367 1111.16,-253.021"/>
</g>
<!-- Node36&#45;&gt;Node34 -->
<g id="edge69" class="edge"><title>Node36&#45;&gt;Node34</title>
<path fill="none" stroke="midnightblue" d="M1258,-363.734C1258,-354.183 1258,-338.618 1258,-326.283"/>
<polygon fill="midnightblue" stroke="midnightblue" points="1261.5,-326.127 1258,-316.127 1254.5,-326.127 1261.5,-326.127"/>
</g>
<!-- Node37 -->
<g id="node37" class="node"><title>Node37</title>
<g id="a_node37"><a xlink:href="TreeBranch_8hh.html" target="_top" xlink:title="boca/io/TreeBranch.hh">
<polygon fill="white" stroke="black" points="1373.5,-297 1373.5,-316 1488.5,-316 1488.5,-297 1373.5,-297"/>
<text text-anchor="middle" x="1431" y="-304" font-family="Helvetica,sans-Serif" font-size="10.00">boca/io/TreeBranch.hh</text>
</a>
</g>
</g>
<!-- Node36&#45;&gt;Node37 -->
<g id="edge52" class="edge"><title>Node36&#45;&gt;Node37</title>
<path fill="none" stroke="midnightblue" d="M1280.97,-363.869C1311.17,-352.522 1364.4,-332.525 1398.66,-319.652"/>
<polygon fill="midnightblue" stroke="midnightblue" points="1400.08,-322.857 1408.21,-316.064 1397.62,-316.305 1400.08,-322.857"/>
</g>
<!-- Node39 -->
<g id="node39" class="node"><title>Node39</title>
<g id="a_node39"><a xlink:href="physics_2Vector_8hh.html" target="_top" xlink:title="boca/physics/Vector.hh">
<polygon fill="white" stroke="black" points="1515.5,-297 1515.5,-316 1634.5,-316 1634.5,-297 1515.5,-297"/>
<text text-anchor="middle" x="1575" y="-304" font-family="Helvetica,sans-Serif" font-size="10.00">boca/physics/Vector.hh</text>
</a>
</g>
</g>
<!-- Node36&#45;&gt;Node39 -->
<g id="edge55" class="edge"><title>Node36&#45;&gt;Node39</title>
<path fill="none" stroke="midnightblue" d="M1299.77,-363.936C1357.34,-352.131 1461.02,-330.872 1523.38,-318.085"/>
<polygon fill="midnightblue" stroke="midnightblue" points="1524.3,-321.469 1533.39,-316.032 1522.89,-314.612 1524.3,-321.469"/>
</g>
<!-- Node43 -->
<g id="node43" class="node"><title>Node43</title>
<g id="a_node43"><a xlink:href="tagger_2Base_8hh.html" target="_top" xlink:title="boca/tagger/Base.hh">
<polygon fill="white" stroke="black" points="1945.5,-297 1945.5,-316 2052.5,-316 2052.5,-297 1945.5,-297"/>
<text text-anchor="middle" x="1999" y="-304" font-family="Helvetica,sans-Serif" font-size="10.00">boca/tagger/Base.hh</text>
</a>
</g>
</g>
<!-- Node36&#45;&gt;Node43 -->
<g id="edge61" class="edge"><title>Node36&#45;&gt;Node43</title>
<path fill="none" stroke="midnightblue" d="M1315.22,-367.481C1451.17,-355.555 1792.79,-325.589 1935.16,-313.1"/>
<polygon fill="midnightblue" stroke="midnightblue" points="1935.81,-316.556 1945.47,-312.196 1935.2,-309.583 1935.81,-316.556"/>
</g>
<!-- Node47 -->
<g id="node47" class="node"><title>Node47</title>
<g id="a_node47"><a xlink:href="Filter_8hh.html" target="_top" xlink:title="boca/Filter.hh">
<polygon fill="white" stroke="red" points="1256,-230 1256,-249 1332,-249 1332,-230 1256,-230"/>
<text text-anchor="middle" x="1294" y="-237" font-family="Helvetica,sans-Serif" font-size="10.00">boca/Filter.hh</text>
</a>
</g>
</g>
<!-- Node36&#45;&gt;Node47 -->
<g id="edge66" class="edge"><title>Node36&#45;&gt;Node47</title>
<path fill="none" stroke="midnightblue" d="M1277.62,-363.917C1293.64,-355.717 1315.19,-341.684 1325,-322 1335.81,-300.31 1320.98,-273.875 1308.35,-257.113"/>
<polygon fill="midnightblue" stroke="midnightblue" points="1311.07,-254.919 1302.09,-249.305 1305.61,-259.297 1311.07,-254.919"/>
</g>
<!-- Node37&#45;&gt;Node10 -->
<g id="edge53" class="edge"><title>Node37&#45;&gt;Node10</title>
<path fill="none" stroke="midnightblue" d="M1416.89,-296.68C1404.28,-287.879 1386.65,-273.082 1379,-255 1373.63,-242.31 1373.32,-236.551 1379,-224 1389,-201.909 1410,-210.091 1420,-188 1423.67,-179.902 1425.95,-174.604 1420,-168 1393.3,-138.364 1114.49,-126.919 1020.64,-123.888"/>
<polygon fill="midnightblue" stroke="midnightblue" points="1020.74,-120.389 1010.64,-123.574 1020.52,-127.386 1020.74,-120.389"/>
</g>
<!-- Node38 -->
<g id="node38" class="node"><title>Node38</title>
<polygon fill="white" stroke="#bfbfbf" points="1388.5,-230 1388.5,-249 1473.5,-249 1473.5,-230 1388.5,-230"/>
<text text-anchor="middle" x="1431" y="-237" font-family="Helvetica,sans-Serif" font-size="10.00">TClonesArray.h</text>
</g>
<!-- Node37&#45;&gt;Node38 -->
<g id="edge54" class="edge"><title>Node37&#45;&gt;Node38</title>
<path fill="none" stroke="midnightblue" d="M1431,-296.734C1431,-287.183 1431,-271.618 1431,-259.283"/>
<polygon fill="midnightblue" stroke="midnightblue" points="1434.5,-259.127 1431,-249.127 1427.5,-259.127 1434.5,-259.127"/>
</g>
<!-- Node39&#45;&gt;Node25 -->
<g id="edge59" class="edge"><title>Node39&#45;&gt;Node25</title>
<path fill="none" stroke="midnightblue" d="M1565.97,-296.777C1546.42,-278.037 1500.46,-234.755 1482,-224 1456.04,-208.871 1424.18,-197.696 1398.62,-190.266"/>
<polygon fill="midnightblue" stroke="midnightblue" points="1399.38,-186.843 1388.8,-187.505 1397.48,-193.582 1399.38,-186.843"/>
</g>
<!-- Node39&#45;&gt;Node27 -->
<g id="edge60" class="edge"><title>Node39&#45;&gt;Node27</title>
<path fill="none" stroke="midnightblue" d="M1534.67,-296.979C1522.6,-294.707 1509.31,-292.477 1497,-291 1207.97,-256.326 1132.8,-282.568 843,-255 826.155,-253.398 807.886,-251.122 791.291,-248.848"/>
<polygon fill="midnightblue" stroke="midnightblue" points="791.591,-245.356 781.203,-247.438 790.622,-252.289 791.591,-245.356"/>
</g>
<!-- Node40 -->
<g id="node40" class="node"><title>Node40</title>
<polygon fill="white" stroke="#bfbfbf" points="1658,-224.5 1658,-254.5 1768,-254.5 1768,-224.5 1658,-224.5"/>
<text text-anchor="start" x="1666" y="-242.5" font-family="Helvetica,sans-Serif" font-size="10.00">boost/range/algorithm</text>
<text text-anchor="middle" x="1713" y="-231.5" font-family="Helvetica,sans-Serif" font-size="10.00">_ext/erase.hpp</text>
</g>
<!-- Node39&#45;&gt;Node40 -->
<g id="edge56" class="edge"><title>Node39&#45;&gt;Node40</title>
<path fill="none" stroke="midnightblue" d="M1593.33,-296.869C1613.76,-287.242 1647.42,-271.388 1673.85,-258.942"/>
<polygon fill="midnightblue" stroke="midnightblue" points="1675.66,-261.956 1683.22,-254.528 1672.68,-255.623 1675.66,-261.956"/>
</g>
<!-- Node41 -->
<g id="node41" class="node"><title>Node41</title>
<polygon fill="white" stroke="#bfbfbf" points="1786,-224.5 1786,-254.5 1896,-254.5 1896,-224.5 1786,-224.5"/>
<text text-anchor="start" x="1794" y="-242.5" font-family="Helvetica,sans-Serif" font-size="10.00">boost/range/algorithm</text>
<text text-anchor="middle" x="1841" y="-231.5" font-family="Helvetica,sans-Serif" font-size="10.00">/count_if.hpp</text>
</g>
<!-- Node39&#45;&gt;Node41 -->
<g id="edge57" class="edge"><title>Node39&#45;&gt;Node41</title>
<path fill="none" stroke="midnightblue" d="M1610.05,-296.936C1652.19,-286.637 1723.79,-269.142 1776.11,-256.356"/>
<polygon fill="midnightblue" stroke="midnightblue" points="1777.09,-259.719 1785.98,-253.946 1775.43,-252.919 1777.09,-259.719"/>
</g>
<!-- Node42 -->
<g id="node42" class="node"><title>Node42</title>
<polygon fill="white" stroke="#bfbfbf" points="1530,-224.5 1530,-254.5 1640,-254.5 1640,-224.5 1530,-224.5"/>
<text text-anchor="start" x="1538" y="-242.5" font-family="Helvetica,sans-Serif" font-size="10.00">boost/range/algorithm</text>
<text text-anchor="middle" x="1585" y="-231.5" font-family="Helvetica,sans-Serif" font-size="10.00">/copy.hpp</text>
</g>
<!-- Node39&#45;&gt;Node42 -->
<g id="edge58" class="edge"><title>Node39&#45;&gt;Node42</title>
<path fill="none" stroke="midnightblue" d="M1576.35,-296.734C1577.61,-288.541 1579.55,-275.923 1581.27,-264.714"/>
<polygon fill="midnightblue" stroke="midnightblue" points="1584.77,-265.005 1582.83,-254.589 1577.85,-263.941 1584.77,-265.005"/>
</g>
<!-- Node44 -->
<g id="node44" class="node"><title>Node44</title>
<polygon fill="white" stroke="#bfbfbf" points="2189.5,-230 2189.5,-249 2272.5,-249 2272.5,-230 2189.5,-230"/>
<text text-anchor="middle" x="2231" y="-237" font-family="Helvetica,sans-Serif" font-size="10.00">TMVA/Types.h</text>
</g>
<!-- Node43&#45;&gt;Node44 -->
<g id="edge62" class="edge"><title>Node43&#45;&gt;Node44</title>
<path fill="none" stroke="midnightblue" d="M2030.27,-296.942C2066.55,-286.985 2128.16,-269.992 2181,-255 2184.56,-253.991 2188.25,-252.934 2191.95,-251.87"/>
<polygon fill="midnightblue" stroke="midnightblue" points="2193.03,-255.203 2201.67,-249.068 2191.09,-248.477 2193.03,-255.203"/>
</g>
<!-- Node45 -->
<g id="node45" class="node"><title>Node45</title>
<g id="a_node45"><a xlink:href="Observable_8hh.html" target="_top" xlink:title="boca/Observable.hh">
<polygon fill="white" stroke="red" points="1914,-230 1914,-249 2018,-249 2018,-230 1914,-230"/>
<text text-anchor="middle" x="1966" y="-237" font-family="Helvetica,sans-Serif" font-size="10.00">boca/Observable.hh</text>
</a>
</g>
</g>
<!-- Node43&#45;&gt;Node45 -->
<g id="edge63" class="edge"><title>Node43&#45;&gt;Node45</title>
<path fill="none" stroke="midnightblue" d="M1994.55,-296.734C1989.55,-286.89 1981.31,-270.66 1974.97,-258.159"/>
<polygon fill="midnightblue" stroke="midnightblue" points="1978.03,-256.46 1970.38,-249.127 1971.79,-259.628 1978.03,-256.46"/>
</g>
<!-- Node46 -->
<g id="node46" class="node"><title>Node46</title>
<g id="a_node46"><a xlink:href="Phase_8hh.html" target="_top" xlink:title="boca/multivariant/Phase.hh">
<polygon fill="white" stroke="red" points="2036.5,-230 2036.5,-249 2171.5,-249 2171.5,-230 2036.5,-230"/>
<text text-anchor="middle" x="2104" y="-237" font-family="Helvetica,sans-Serif" font-size="10.00">boca/multivariant/Phase.hh</text>
</a>
</g>
</g>
<!-- Node43&#45;&gt;Node46 -->
<g id="edge64" class="edge"><title>Node43&#45;&gt;Node46</title>
<path fill="none" stroke="midnightblue" d="M2013.16,-296.734C2030.71,-285.867 2060.84,-267.216 2081.56,-254.393"/>
<polygon fill="midnightblue" stroke="midnightblue" points="2083.4,-257.367 2090.06,-249.127 2079.72,-251.415 2083.4,-257.367"/>
</g>
<!-- Node47&#45;&gt;Node10 -->
<g id="edge67" class="edge"><title>Node47&#45;&gt;Node10</title>
<path fill="none" stroke="midnightblue" d="M1290.31,-229.9C1283.3,-214.698 1266.54,-183.251 1242,-168 1205.4,-145.256 1079.64,-131.147 1020.8,-125.642"/>
<polygon fill="midnightblue" stroke="midnightblue" points="1020.91,-122.138 1010.63,-124.714 1020.28,-129.109 1020.91,-122.138"/>
</g>
<!-- Node47&#45;&gt;Node11 -->
<g id="edge68" class="edge"><title>Node47&#45;&gt;Node11</title>
<path fill="none" stroke="midnightblue" d="M1277.38,-229.975C1258.08,-220.078 1226.04,-203.642 1203.57,-192.115"/>
<polygon fill="midnightblue" stroke="midnightblue" points="1205.08,-188.959 1194.59,-187.509 1201.89,-195.187 1205.08,-188.959"/>
</g>
<!-- Node48&#45;&gt;Node4 -->
<g id="edge71" class="edge"><title>Node48&#45;&gt;Node4</title>
<path fill="none" stroke="midnightblue" d="M90.4344,-291.396C108.713,-280.395 133.96,-265.2 152.101,-254.282"/>
<polygon fill="midnightblue" stroke="midnightblue" points="154.102,-257.162 160.865,-249.007 150.493,-251.165 154.102,-257.162"/>
</g>
<!-- Node48&#45;&gt;Node32 -->
<g id="edge72" class="edge"><title>Node48&#45;&gt;Node32</title>
<path fill="none" stroke="midnightblue" d="M63.0943,-291.396C60.4544,-281.863 56.9426,-269.182 54.085,-258.862"/>
<polygon fill="midnightblue" stroke="midnightblue" points="57.4496,-257.898 51.4077,-249.195 50.7035,-259.766 57.4496,-257.898"/>
</g>
<!-- Node49&#45;&gt;Node6 -->
<g id="edge75" class="edge"><title>Node49&#45;&gt;Node6</title>
<path fill="none" stroke="midnightblue" d="M2203.71,-363.89C2234.76,-345.592 2301,-299.627 2301,-240.5 2301,-240.5 2301,-240.5 2301,-177 2301,-72.4785 632.721,-66.8463 258.778,-66.8967"/>
<polygon fill="midnightblue" stroke="midnightblue" points="258.615,-63.3967 248.616,-66.8996 258.617,-70.3967 258.615,-63.3967"/>
</g>
<!-- Node50 -->
<g id="node50" class="node"><title>Node50</title>
<g id="a_node50"><a xlink:href="Bdt_8hh.html" target="_top" xlink:title="boca/branch/Bdt.hh">
<polygon fill="white" stroke="red" points="2137.5,-297 2137.5,-316 2238.5,-316 2238.5,-297 2137.5,-297"/>
<text text-anchor="middle" x="2188" y="-304" font-family="Helvetica,sans-Serif" font-size="10.00">boca/branch/Bdt.hh</text>
</a>
</g>
</g>
<!-- Node49&#45;&gt;Node50 -->
<g id="edge74" class="edge"><title>Node49&#45;&gt;Node50</title>
<path fill="none" stroke="midnightblue" d="M2188,-363.734C2188,-354.183 2188,-338.618 2188,-326.283"/>
<polygon fill="midnightblue" stroke="midnightblue" points="2191.5,-326.127 2188,-316.127 2184.5,-326.127 2191.5,-326.127"/>
</g>
</g>
</svg>
