<?xml version="1.0" encoding="UTF-8" standalone="no"?>
<!DOCTYPE svg PUBLIC "-//W3C//DTD SVG 1.1//EN"
 "http://www.w3.org/Graphics/SVG/1.1/DTD/svg11.dtd">
<!-- Generated by graphviz version 2.38.0 (20140413.2041)
 -->
<!-- Title: boca/math/Matrix2.hh Pages: 1 -->
<svg width="2550pt" height="408pt"
 viewBox="0.00 0.00 2549.50 408.00" xmlns="http://www.w3.org/2000/svg" xmlns:xlink="http://www.w3.org/1999/xlink">
<g id="graph0" class="graph" transform="scale(1 1) rotate(0) translate(4 404)">
<title>boca/math/Matrix2.hh</title>
<polygon fill="white" stroke="none" points="-4,4 -4,-404 2545.5,-404 2545.5,4 -4,4"/>
<!-- Node1 -->
<g id="node1" class="node"><title>Node1</title>
<polygon fill="#bfbfbf" stroke="black" points="294.5,-380.5 294.5,-399.5 405.5,-399.5 405.5,-380.5 294.5,-380.5"/>
<text text-anchor="middle" x="350" y="-387.5" font-family="Helvetica,sans-Serif" font-size="10.00">boca/math/Matrix2.hh</text>
</g>
<!-- Node2 -->
<g id="node2" class="node"><title>Node2</title>
<polygon fill="white" stroke="#bfbfbf" points="333,-257.5 333,-276.5 371,-276.5 371,-257.5 333,-257.5"/>
<text text-anchor="middle" x="352" y="-264.5" font-family="Helvetica,sans-Serif" font-size="10.00">array</text>
</g>
<!-- Node1&#45;&gt;Node2 -->
<g id="edge1" class="edge"><title>Node1&#45;&gt;Node2</title>
<path fill="none" stroke="midnightblue" d="M350.144,-380.298C350.465,-360.85 351.248,-313.49 351.688,-286.904"/>
<polygon fill="midnightblue" stroke="midnightblue" points="355.192,-286.68 351.857,-276.623 348.193,-286.564 355.192,-286.68"/>
</g>
<!-- Node3 -->
<g id="node3" class="node"><title>Node3</title>
<polygon fill="white" stroke="#bfbfbf" points="212,-313.5 212,-343.5 322,-343.5 322,-313.5 212,-313.5"/>
<text text-anchor="start" x="220" y="-331.5" font-family="Helvetica,sans-Serif" font-size="10.00">boost/range/algorithm</text>
<text text-anchor="middle" x="267" y="-320.5" font-family="Helvetica,sans-Serif" font-size="10.00">/sort.hpp</text>
</g>
<!-- Node1&#45;&gt;Node3 -->
<g id="edge2" class="edge"><title>Node1&#45;&gt;Node3</title>
<path fill="none" stroke="midnightblue" d="M338.108,-380.475C326.867,-372.417 309.578,-360.023 294.863,-349.474"/>
<polygon fill="midnightblue" stroke="midnightblue" points="296.728,-346.505 286.561,-343.523 292.65,-352.194 296.728,-346.505"/>
</g>
<!-- Node4 -->
<g id="node4" class="node"><title>Node4</title>
<g id="a_node4"><a xlink:href="Types_8hh.html" target="_top" xlink:title="boca/generic/Types.hh">
<polygon fill="white" stroke="black" points="78,-319 78,-338 194,-338 194,-319 78,-319"/>
<text text-anchor="middle" x="136" y="-326" font-family="Helvetica,sans-Serif" font-size="10.00">boca/generic/Types.hh</text>
</a>
</g>
</g>
<!-- Node1&#45;&gt;Node4 -->
<g id="edge3" class="edge"><title>Node1&#45;&gt;Node4</title>
<path fill="none" stroke="midnightblue" d="M319.339,-380.475C281.756,-370.026 217.956,-352.287 176.402,-340.733"/>
<polygon fill="midnightblue" stroke="midnightblue" points="177.176,-337.316 166.604,-338.009 175.301,-344.06 177.176,-337.316"/>
</g>
<!-- Node7 -->
<g id="node7" class="node"><title>Node7</title>
<g id="a_node7"><a xlink:href="Mutable_8hh.html" target="_top" xlink:title="boca/generic/Mutable.hh">
<polygon fill="white" stroke="black" points="378.5,-319 378.5,-338 501.5,-338 501.5,-319 378.5,-319"/>
<text text-anchor="middle" x="440" y="-326" font-family="Helvetica,sans-Serif" font-size="10.00">boca/generic/Mutable.hh</text>
</a>
</g>
</g>
<!-- Node1&#45;&gt;Node7 -->
<g id="edge6" class="edge"><title>Node1&#45;&gt;Node7</title>
<path fill="none" stroke="midnightblue" d="M362.895,-380.475C377.464,-370.843 401.402,-355.017 418.745,-343.552"/>
<polygon fill="midnightblue" stroke="midnightblue" points="420.717,-346.444 427.129,-338.009 416.857,-340.604 420.717,-346.444"/>
</g>
<!-- Node15 -->
<g id="node15" class="node"><title>Node15</title>
<g id="a_node15"><a xlink:href="GradedVector2_8hh.html" target="_top" xlink:title="boca/math/GradedVector2.hh">
<polygon fill="white" stroke="black" points="520,-319 520,-338 664,-338 664,-319 520,-319"/>
<text text-anchor="middle" x="592" y="-326" font-family="Helvetica,sans-Serif" font-size="10.00">boca/math/GradedVector2.hh</text>
</a>
</g>
</g>
<!-- Node1&#45;&gt;Node15 -->
<g id="edge16" class="edge"><title>Node1&#45;&gt;Node15</title>
<path fill="none" stroke="midnightblue" d="M384.673,-380.475C427.532,-369.937 500.543,-351.986 547.499,-340.441"/>
<polygon fill="midnightblue" stroke="midnightblue" points="548.516,-343.796 557.392,-338.009 546.845,-336.998 548.516,-343.796"/>
</g>
<!-- Node5 -->
<g id="node5" class="node"><title>Node5</title>
<polygon fill="white" stroke="#bfbfbf" points="123.5,-140 123.5,-159 164.5,-159 164.5,-140 123.5,-140"/>
<text text-anchor="middle" x="144" y="-147" font-family="Helvetica,sans-Serif" font-size="10.00">string</text>
</g>
<!-- Node4&#45;&gt;Node5 -->
<g id="edge4" class="edge"><title>Node4&#45;&gt;Node5</title>
<path fill="none" stroke="midnightblue" d="M136.386,-318.963C137.608,-291.928 141.413,-207.739 143.136,-169.609"/>
<polygon fill="midnightblue" stroke="midnightblue" points="146.644,-169.516 143.599,-159.368 139.651,-169.2 146.644,-169.516"/>
</g>
<!-- Node6 -->
<g id="node6" class="node"><title>Node6</title>
<polygon fill="white" stroke="#bfbfbf" points="0,-257.5 0,-276.5 116,-276.5 116,-257.5 0,-257.5"/>
<text text-anchor="middle" x="58" y="-264.5" font-family="Helvetica,sans-Serif" font-size="10.00">boost/range/irange.hpp</text>
</g>
<!-- Node4&#45;&gt;Node6 -->
<g id="edge5" class="edge"><title>Node4&#45;&gt;Node6</title>
<path fill="none" stroke="midnightblue" d="M124.825,-318.975C112.429,-309.52 92.2101,-294.096 77.2537,-282.687"/>
<polygon fill="midnightblue" stroke="midnightblue" points="79.2284,-279.791 69.1548,-276.509 74.9828,-285.357 79.2284,-279.791"/>
</g>
<!-- Node7&#45;&gt;Node2 -->
<g id="edge15" class="edge"><title>Node7&#45;&gt;Node2</title>
<path fill="none" stroke="midnightblue" d="M427.392,-318.975C413.277,-309.431 390.169,-293.807 373.251,-282.368"/>
<polygon fill="midnightblue" stroke="midnightblue" points="374.829,-279.211 364.585,-276.509 370.909,-285.01 374.829,-279.211"/>
</g>
<!-- Node8 -->
<g id="node8" class="node"><title>Node8</title>
<polygon fill="white" stroke="#bfbfbf" points="429.5,-257.5 429.5,-276.5 488.5,-276.5 488.5,-257.5 429.5,-257.5"/>
<text text-anchor="middle" x="459" y="-264.5" font-family="Helvetica,sans-Serif" font-size="10.00">functional</text>
</g>
<!-- Node7&#45;&gt;Node8 -->
<g id="edge7" class="edge"><title>Node7&#45;&gt;Node8</title>
<path fill="none" stroke="midnightblue" d="M442.722,-318.975C445.431,-310.492 449.674,-297.204 453.149,-286.322"/>
<polygon fill="midnightblue" stroke="midnightblue" points="456.575,-287.1 456.283,-276.509 449.907,-284.97 456.575,-287.1"/>
</g>
<!-- Node9 -->
<g id="node9" class="node"><title>Node9</title>
<g id="a_node9"><a xlink:href="Debug_8hh.html" target="_top" xlink:title="boca/generic/Debug.hh">
<polygon fill="white" stroke="black" points="342.5,-201.5 342.5,-220.5 459.5,-220.5 459.5,-201.5 342.5,-201.5"/>
<text text-anchor="middle" x="401" y="-208.5" font-family="Helvetica,sans-Serif" font-size="10.00">boca/generic/Debug.hh</text>
</a>
</g>
</g>
<!-- Node7&#45;&gt;Node9 -->
<g id="edge8" class="edge"><title>Node7&#45;&gt;Node9</title>
<path fill="none" stroke="midnightblue" d="M436.207,-318.653C431.984,-308.644 425.083,-291.805 420,-277 414.691,-261.537 409.543,-243.693 405.948,-230.618"/>
<polygon fill="midnightblue" stroke="midnightblue" points="409.313,-229.653 403.324,-220.913 402.556,-231.48 409.313,-229.653"/>
</g>
<!-- Node9&#45;&gt;Node5 -->
<g id="edge9" class="edge"><title>Node9&#45;&gt;Node5</title>
<path fill="none" stroke="midnightblue" d="M342.243,-202.834C295.516,-196.087 228.933,-184.112 173,-165 171.568,-164.511 170.118,-163.965 168.668,-163.379"/>
<polygon fill="midnightblue" stroke="midnightblue" points="169.872,-160.081 159.32,-159.12 166.969,-166.451 169.872,-160.081"/>
</g>
<!-- Node10 -->
<g id="node10" class="node"><title>Node10</title>
<polygon fill="white" stroke="#bfbfbf" points="592,-140 592,-159 636,-159 636,-140 592,-140"/>
<text text-anchor="middle" x="614" y="-147" font-family="Helvetica,sans-Serif" font-size="10.00">vector</text>
</g>
<!-- Node9&#45;&gt;Node10 -->
<g id="edge10" class="edge"><title>Node9&#45;&gt;Node10</title>
<path fill="none" stroke="midnightblue" d="M431.518,-201.475C471.603,-190.278 541.653,-170.71 582.312,-159.352"/>
<polygon fill="midnightblue" stroke="midnightblue" points="583.29,-162.713 591.98,-156.651 581.407,-155.971 583.29,-162.713"/>
</g>
<!-- Node11 -->
<g id="node11" class="node"><title>Node11</title>
<polygon fill="white" stroke="#bfbfbf" points="306,-140 306,-159 358,-159 358,-140 306,-140"/>
<text text-anchor="middle" x="332" y="-147" font-family="Helvetica,sans-Serif" font-size="10.00">sstream</text>
</g>
<!-- Node9&#45;&gt;Node11 -->
<g id="edge11" class="edge"><title>Node9&#45;&gt;Node11</title>
<path fill="none" stroke="midnightblue" d="M391.114,-201.475C380.354,-192.197 362.929,-177.171 349.779,-165.831"/>
<polygon fill="midnightblue" stroke="midnightblue" points="351.727,-162.889 341.868,-159.009 347.155,-168.19 351.727,-162.889"/>
</g>
<!-- Node12 -->
<g id="node12" class="node"><title>Node12</title>
<polygon fill="white" stroke="#bfbfbf" points="376,-140 376,-159 426,-159 426,-140 376,-140"/>
<text text-anchor="middle" x="401" y="-147" font-family="Helvetica,sans-Serif" font-size="10.00">iomanip</text>
</g>
<!-- Node9&#45;&gt;Node12 -->
<g id="edge12" class="edge"><title>Node9&#45;&gt;Node12</title>
<path fill="none" stroke="midnightblue" d="M401,-201.475C401,-193.08 401,-179.981 401,-169.163"/>
<polygon fill="midnightblue" stroke="midnightblue" points="404.5,-169.009 401,-159.009 397.5,-169.009 404.5,-169.009"/>
</g>
<!-- Node13 -->
<g id="node13" class="node"><title>Node13</title>
<polygon fill="white" stroke="#bfbfbf" points="444,-140 444,-159 498,-159 498,-140 444,-140"/>
<text text-anchor="middle" x="471" y="-147" font-family="Helvetica,sans-Serif" font-size="10.00">iostream</text>
</g>
<!-- Node9&#45;&gt;Node13 -->
<g id="edge13" class="edge"><title>Node9&#45;&gt;Node13</title>
<path fill="none" stroke="midnightblue" d="M411.029,-201.475C422.049,-192.108 439.96,-176.884 453.343,-165.508"/>
<polygon fill="midnightblue" stroke="midnightblue" points="455.637,-168.152 460.989,-159.009 451.103,-162.819 455.637,-168.152"/>
</g>
<!-- Node14 -->
<g id="node14" class="node"><title>Node14</title>
<polygon fill="white" stroke="#bfbfbf" points="182.5,-134.5 182.5,-164.5 287.5,-164.5 287.5,-134.5 182.5,-134.5"/>
<text text-anchor="start" x="190.5" y="-152.5" font-family="Helvetica,sans-Serif" font-size="10.00">boost/units/systems</text>
<text text-anchor="middle" x="235" y="-141.5" font-family="Helvetica,sans-Serif" font-size="10.00">/si/io.hpp</text>
</g>
<!-- Node9&#45;&gt;Node14 -->
<g id="edge14" class="edge"><title>Node9&#45;&gt;Node14</title>
<path fill="none" stroke="midnightblue" d="M377.216,-201.475C352.948,-192.776 314.586,-179.026 283.818,-167.998"/>
<polygon fill="midnightblue" stroke="midnightblue" points="284.717,-164.602 274.123,-164.523 282.356,-171.192 284.717,-164.602"/>
</g>
<!-- Node16 -->
<g id="node16" class="node"><title>Node16</title>
<g id="a_node16"><a xlink:href="GradedContainer_8hh.html" target="_top" xlink:title="boca/math/GradedContainer.hh">
<polygon fill="white" stroke="black" points="510,-257.5 510,-276.5 662,-276.5 662,-257.5 510,-257.5"/>
<text text-anchor="middle" x="586" y="-264.5" font-family="Helvetica,sans-Serif" font-size="10.00">boca/math/GradedContainer.hh</text>
</a>
</g>
</g>
<!-- Node15&#45;&gt;Node16 -->
<g id="edge17" class="edge"><title>Node15&#45;&gt;Node16</title>
<path fill="none" stroke="midnightblue" d="M591.14,-318.975C590.294,-310.58 588.973,-297.481 587.882,-286.663"/>
<polygon fill="midnightblue" stroke="midnightblue" points="591.344,-286.107 586.858,-276.509 584.379,-286.81 591.344,-286.107"/>
</g>
<!-- Node18 -->
<g id="node18" class="node"><title>Node18</title>
<g id="a_node18"><a xlink:href="Vector2_8hh.html" target="_top" xlink:title="boca/math/Vector2.hh">
<polygon fill="white" stroke="black" points="691.5,-257.5 691.5,-276.5 804.5,-276.5 804.5,-257.5 691.5,-257.5"/>
<text text-anchor="middle" x="748" y="-264.5" font-family="Helvetica,sans-Serif" font-size="10.00">boca/math/Vector2.hh</text>
</a>
</g>
</g>
<!-- Node15&#45;&gt;Node18 -->
<g id="edge19" class="edge"><title>Node15&#45;&gt;Node18</title>
<path fill="none" stroke="midnightblue" d="M614.351,-318.975C640.995,-308.813 685.714,-291.756 716.014,-280.2"/>
<polygon fill="midnightblue" stroke="midnightblue" points="717.594,-283.343 725.69,-276.509 715.1,-276.803 717.594,-283.343"/>
</g>
<!-- Node17 -->
<g id="node17" class="node"><title>Node17</title>
<polygon fill="white" stroke="#bfbfbf" points="512.5,-73 512.5,-92 615.5,-92 615.5,-73 512.5,-73"/>
<text text-anchor="middle" x="564" y="-80" font-family="Helvetica,sans-Serif" font-size="10.00">boost/operators.hpp</text>
</g>
<!-- Node16&#45;&gt;Node17 -->
<g id="edge18" class="edge"><title>Node16&#45;&gt;Node17</title>
<path fill="none" stroke="midnightblue" d="M575.838,-257.185C567.092,-248.87 555.1,-235.539 550,-221 535.69,-180.204 548.458,-128.723 557.277,-101.805"/>
<polygon fill="midnightblue" stroke="midnightblue" points="560.648,-102.765 560.616,-92.1704 554.034,-100.473 560.648,-102.765"/>
</g>
<!-- Node18&#45;&gt;Node9 -->
<g id="edge22" class="edge"><title>Node18&#45;&gt;Node9</title>
<path fill="none" stroke="midnightblue" d="M693.017,-257.444C631.341,-247.846 531.392,-232.292 465.926,-222.104"/>
<polygon fill="midnightblue" stroke="midnightblue" points="466.145,-218.596 455.726,-220.516 465.069,-225.513 466.145,-218.596"/>
</g>
<!-- Node18&#45;&gt;Node17 -->
<g id="edge20" class="edge"><title>Node18&#45;&gt;Node17</title>
<path fill="none" stroke="midnightblue" d="M722.057,-257.428C685.211,-243.87 618.288,-213.881 583,-165 569.676,-146.543 565.544,-120.15 564.344,-102.449"/>
<polygon fill="midnightblue" stroke="midnightblue" points="567.832,-102.086 563.911,-92.2428 560.838,-102.382 567.832,-102.086"/>
</g>
<!-- Node19 -->
<g id="node19" class="node"><title>Node19</title>
<polygon fill="white" stroke="#bfbfbf" points="715.5,-201.5 715.5,-220.5 780.5,-220.5 780.5,-201.5 715.5,-201.5"/>
<text text-anchor="middle" x="748" y="-208.5" font-family="Helvetica,sans-Serif" font-size="10.00">TVector2.h</text>
</g>
<!-- Node18&#45;&gt;Node19 -->
<g id="edge21" class="edge"><title>Node18&#45;&gt;Node19</title>
<path fill="none" stroke="midnightblue" d="M748,-257.083C748,-250.006 748,-239.861 748,-230.986"/>
<polygon fill="midnightblue" stroke="midnightblue" points="751.5,-230.751 748,-220.751 744.5,-230.751 751.5,-230.751"/>
</g>
<!-- Node20 -->
<g id="node20" class="node"><title>Node20</title>
<g id="a_node20"><a xlink:href="Iterator_8hh.html" target="_top" xlink:title="boca/generic/Iterator.hh">
<polygon fill="white" stroke="black" points="810.5,-201.5 810.5,-220.5 929.5,-220.5 929.5,-201.5 810.5,-201.5"/>
<text text-anchor="middle" x="870" y="-208.5" font-family="Helvetica,sans-Serif" font-size="10.00">boca/generic/Iterator.hh</text>
</a>
</g>
</g>
<!-- Node18&#45;&gt;Node20 -->
<g id="edge23" class="edge"><title>Node18&#45;&gt;Node20</title>
<path fill="none" stroke="midnightblue" d="M767.331,-257.444C787.32,-248.596 818.743,-234.687 841.564,-224.586"/>
<polygon fill="midnightblue" stroke="midnightblue" points="843.032,-227.764 850.759,-220.516 840.198,-221.363 843.032,-227.764"/>
</g>
<!-- Node27 -->
<g id="node27" class="node"><title>Node27</title>
<g id="a_node27"><a xlink:href="Units_8hh.html" target="_top" xlink:title="boca/units/Units.hh">
<polygon fill="white" stroke="black" points="1192.5,-201.5 1192.5,-220.5 1293.5,-220.5 1293.5,-201.5 1192.5,-201.5"/>
<text text-anchor="middle" x="1243" y="-208.5" font-family="Helvetica,sans-Serif" font-size="10.00">boca/units/Units.hh</text>
</a>
</g>
</g>
<!-- Node18&#45;&gt;Node27 -->
<g id="edge31" class="edge"><title>Node18&#45;&gt;Node27</title>
<path fill="none" stroke="midnightblue" d="M804.783,-259.806C898.747,-249.555 1085.77,-229.152 1182.27,-218.625"/>
<polygon fill="midnightblue" stroke="midnightblue" points="1182.89,-222.078 1192.45,-217.515 1182.13,-215.12 1182.89,-222.078"/>
</g>
<!-- Node45 -->
<g id="node45" class="node"><title>Node45</title>
<g id="a_node45"><a xlink:href="Math_8hh.html" target="_top" xlink:title="boca/math/Math.hh">
<polygon fill="white" stroke="black" points="1494.5,-201.5 1494.5,-220.5 1595.5,-220.5 1595.5,-201.5 1494.5,-201.5"/>
<text text-anchor="middle" x="1545" y="-208.5" font-family="Helvetica,sans-Serif" font-size="10.00">boca/math/Math.hh</text>
</a>
</g>
</g>
<!-- Node18&#45;&gt;Node45 -->
<g id="edge54" class="edge"><title>Node18&#45;&gt;Node45</title>
<path fill="none" stroke="midnightblue" d="M804.679,-262.16C949.848,-252.324 1334.12,-226.288 1483.96,-216.136"/>
<polygon fill="midnightblue" stroke="midnightblue" points="1484.59,-219.601 1494.33,-215.433 1484.12,-212.617 1484.59,-219.601"/>
</g>
<!-- Node21 -->
<g id="node21" class="node"><title>Node21</title>
<polygon fill="white" stroke="#bfbfbf" points="817.5,-134.5 817.5,-164.5 922.5,-164.5 922.5,-134.5 817.5,-134.5"/>
<text text-anchor="start" x="825.5" y="-152.5" font-family="Helvetica,sans-Serif" font-size="10.00">boost/range/mutable</text>
<text text-anchor="middle" x="870" y="-141.5" font-family="Helvetica,sans-Serif" font-size="10.00">_iterator.hpp</text>
</g>
<!-- Node20&#45;&gt;Node21 -->
<g id="edge24" class="edge"><title>Node20&#45;&gt;Node21</title>
<path fill="none" stroke="midnightblue" d="M870,-201.475C870,-194.471 870,-184.192 870,-174.696"/>
<polygon fill="midnightblue" stroke="midnightblue" points="873.5,-174.523 870,-164.523 866.5,-174.523 873.5,-174.523"/>
</g>
<!-- Node22 -->
<g id="node22" class="node"><title>Node22</title>
<polygon fill="white" stroke="#bfbfbf" points="940.5,-140 940.5,-159 1089.5,-159 1089.5,-140 940.5,-140"/>
<text text-anchor="middle" x="1015" y="-147" font-family="Helvetica,sans-Serif" font-size="10.00">boost/range/const_iterator.hpp</text>
</g>
<!-- Node20&#45;&gt;Node22 -->
<g id="edge25" class="edge"><title>Node20&#45;&gt;Node22</title>
<path fill="none" stroke="midnightblue" d="M890.775,-201.475C915.432,-191.357 956.745,-174.405 984.902,-162.851"/>
<polygon fill="midnightblue" stroke="midnightblue" points="986.341,-166.043 994.264,-159.009 983.683,-159.567 986.341,-166.043"/>
</g>
<!-- Node23 -->
<g id="node23" class="node"><title>Node23</title>
<polygon fill="white" stroke="#bfbfbf" points="1107.5,-134.5 1107.5,-164.5 1214.5,-164.5 1214.5,-134.5 1107.5,-134.5"/>
<text text-anchor="start" x="1115.5" y="-152.5" font-family="Helvetica,sans-Serif" font-size="10.00">boost/iterator/iterator</text>
<text text-anchor="middle" x="1161" y="-141.5" font-family="Helvetica,sans-Serif" font-size="10.00">_facade.hpp</text>
</g>
<!-- Node20&#45;&gt;Node23 -->
<g id="edge26" class="edge"><title>Node20&#45;&gt;Node23</title>
<path fill="none" stroke="midnightblue" d="M915.508,-201.453C959.43,-193.107 1028.06,-179.811 1097.21,-165.13"/>
<polygon fill="midnightblue" stroke="midnightblue" points="1098.36,-168.463 1107.41,-162.955 1096.9,-161.617 1098.36,-168.463"/>
</g>
<!-- Node24 -->
<g id="node24" class="node"><title>Node24</title>
<g id="a_node24"><a xlink:href="EnumIterator_8hh.html" target="_top" xlink:title="boca/generic/EnumIterator.hh">
<polygon fill="white" stroke="black" points="654.5,-140 654.5,-159 799.5,-159 799.5,-140 654.5,-140"/>
<text text-anchor="middle" x="727" y="-147" font-family="Helvetica,sans-Serif" font-size="10.00">boca/generic/EnumIterator.hh</text>
</a>
</g>
</g>
<!-- Node20&#45;&gt;Node24 -->
<g id="edge27" class="edge"><title>Node20&#45;&gt;Node24</title>
<path fill="none" stroke="midnightblue" d="M849.512,-201.475C825.194,-191.357 784.451,-174.405 756.683,-162.851"/>
<polygon fill="midnightblue" stroke="midnightblue" points="758.028,-159.619 747.45,-159.009 755.339,-166.082 758.028,-159.619"/>
</g>
<!-- Node24&#45;&gt;Node17 -->
<g id="edge30" class="edge"><title>Node24&#45;&gt;Node17</title>
<path fill="none" stroke="midnightblue" d="M705.355,-139.869C677.023,-128.571 627.184,-108.696 594.891,-95.8183"/>
<polygon fill="midnightblue" stroke="midnightblue" points="596.06,-92.5168 585.475,-92.0637 593.467,-99.0189 596.06,-92.5168"/>
</g>
<!-- Node25 -->
<g id="node25" class="node"><title>Node25</title>
<polygon fill="white" stroke="#bfbfbf" points="668.5,-73 668.5,-92 715.5,-92 715.5,-73 668.5,-73"/>
<text text-anchor="middle" x="692" y="-80" font-family="Helvetica,sans-Serif" font-size="10.00">iterator</text>
</g>
<!-- Node24&#45;&gt;Node25 -->
<g id="edge28" class="edge"><title>Node24&#45;&gt;Node25</title>
<path fill="none" stroke="midnightblue" d="M722.28,-139.734C716.979,-129.89 708.24,-113.66 701.509,-101.159"/>
<polygon fill="midnightblue" stroke="midnightblue" points="704.468,-99.2727 696.645,-92.1273 698.305,-102.591 704.468,-99.2727"/>
</g>
<!-- Node26 -->
<g id="node26" class="node"><title>Node26</title>
<polygon fill="white" stroke="#bfbfbf" points="734,-73 734,-92 796,-92 796,-73 734,-73"/>
<text text-anchor="middle" x="765" y="-80" font-family="Helvetica,sans-Serif" font-size="10.00">type_traits</text>
</g>
<!-- Node24&#45;&gt;Node26 -->
<g id="edge29" class="edge"><title>Node24&#45;&gt;Node26</title>
<path fill="none" stroke="midnightblue" d="M732.125,-139.734C737.937,-129.793 747.556,-113.338 754.892,-100.789"/>
<polygon fill="midnightblue" stroke="midnightblue" points="757.931,-102.527 759.956,-92.1273 751.888,-98.9938 757.931,-102.527"/>
</g>
<!-- Node28 -->
<g id="node28" class="node"><title>Node28</title>
<polygon fill="white" stroke="#bfbfbf" points="1228.5,-6 1228.5,-25 1341.5,-25 1341.5,-6 1228.5,-6"/>
<text text-anchor="middle" x="1285" y="-13" font-family="Helvetica,sans-Serif" font-size="10.00">boost/units/cmath.hpp</text>
</g>
<!-- Node27&#45;&gt;Node28 -->
<g id="edge32" class="edge"><title>Node27&#45;&gt;Node28</title>
<path fill="none" stroke="midnightblue" d="M1243.26,-201.441C1244.13,-178.965 1247.76,-116.586 1262,-67 1265.24,-55.7122 1270.61,-43.7233 1275.35,-34.2607"/>
<polygon fill="midnightblue" stroke="midnightblue" points="1278.59,-35.6219 1280.11,-25.137 1272.38,-32.3843 1278.59,-35.6219"/>
</g>
<!-- Node29 -->
<g id="node29" class="node"><title>Node29</title>
<g id="a_node29"><a xlink:href="Prefixes_8hh.html" target="_top" xlink:title="boca/units/Prefixes.hh">
<polygon fill="white" stroke="black" points="1473,-140 1473,-159 1587,-159 1587,-140 1473,-140"/>
<text text-anchor="middle" x="1530" y="-147" font-family="Helvetica,sans-Serif" font-size="10.00">boca/units/Prefixes.hh</text>
</a>
</g>
</g>
<!-- Node27&#45;&gt;Node29 -->
<g id="edge33" class="edge"><title>Node27&#45;&gt;Node29</title>
<path fill="none" stroke="midnightblue" d="M1284.12,-201.475C1335.48,-190.827 1423.36,-172.609 1478.96,-161.081"/>
<polygon fill="midnightblue" stroke="midnightblue" points="1479.87,-164.466 1488.96,-159.009 1478.45,-157.612 1479.87,-164.466"/>
</g>
<!-- Node30 -->
<g id="node30" class="node"><title>Node30</title>
<polygon fill="white" stroke="#bfbfbf" points="1271,-73 1271,-92 1381,-92 1381,-73 1271,-73"/>
<text text-anchor="middle" x="1326" y="-80" font-family="Helvetica,sans-Serif" font-size="10.00">boost/units/scale.hpp</text>
</g>
<!-- Node29&#45;&gt;Node30 -->
<g id="edge34" class="edge"><title>Node29&#45;&gt;Node30</title>
<path fill="none" stroke="midnightblue" d="M1502.91,-139.869C1466.84,-128.376 1402.92,-108.008 1362.59,-95.1586"/>
<polygon fill="midnightblue" stroke="midnightblue" points="1363.47,-91.7648 1352.88,-92.0637 1361.34,-98.4344 1363.47,-91.7648"/>
</g>
<!-- Node31 -->
<g id="node31" class="node"><title>Node31</title>
<polygon fill="white" stroke="#bfbfbf" points="1399.5,-67.5 1399.5,-97.5 1524.5,-97.5 1524.5,-67.5 1399.5,-67.5"/>
<text text-anchor="start" x="1407.5" y="-85.5" font-family="Helvetica,sans-Serif" font-size="10.00">boost/units/make_scaled</text>
<text text-anchor="middle" x="1462" y="-74.5" font-family="Helvetica,sans-Serif" font-size="10.00">_unit.hpp</text>
</g>
<!-- Node29&#45;&gt;Node31 -->
<g id="edge35" class="edge"><title>Node29&#45;&gt;Node31</title>
<path fill="none" stroke="midnightblue" d="M1520.83,-139.734C1511.46,-130.78 1496.57,-116.543 1484.11,-104.635"/>
<polygon fill="midnightblue" stroke="midnightblue" points="1486.39,-101.969 1476.74,-97.589 1481.55,-107.029 1486.39,-101.969"/>
</g>
<!-- Node32 -->
<g id="node32" class="node"><title>Node32</title>
<polygon fill="white" stroke="#bfbfbf" points="1542.5,-67.5 1542.5,-97.5 1653.5,-97.5 1653.5,-67.5 1542.5,-67.5"/>
<text text-anchor="start" x="1550.5" y="-85.5" font-family="Helvetica,sans-Serif" font-size="10.00">boost/units/systems</text>
<text text-anchor="middle" x="1598" y="-74.5" font-family="Helvetica,sans-Serif" font-size="10.00">/si/dimensionless.hpp</text>
</g>
<!-- Node29&#45;&gt;Node32 -->
<g id="edge36" class="edge"><title>Node29&#45;&gt;Node32</title>
<path fill="none" stroke="midnightblue" d="M1539.17,-139.734C1548.54,-130.78 1563.43,-116.543 1575.89,-104.635"/>
<polygon fill="midnightblue" stroke="midnightblue" points="1578.45,-107.029 1583.26,-97.589 1573.61,-101.969 1578.45,-107.029"/>
</g>
<!-- Node33 -->
<g id="node33" class="node"><title>Node33</title>
<polygon fill="white" stroke="#bfbfbf" points="1672,-73 1672,-92 1776,-92 1776,-73 1672,-73"/>
<text text-anchor="middle" x="1724" y="-80" font-family="Helvetica,sans-Serif" font-size="10.00">boost/units/pow.hpp</text>
</g>
<!-- Node29&#45;&gt;Node33 -->
<g id="edge37" class="edge"><title>Node29&#45;&gt;Node33</title>
<path fill="none" stroke="midnightblue" d="M1555.76,-139.869C1589.92,-128.424 1650.34,-108.181 1688.71,-95.3223"/>
<polygon fill="midnightblue" stroke="midnightblue" points="1690.07,-98.5594 1698.44,-92.0637 1687.85,-91.922 1690.07,-98.5594"/>
</g>
<!-- Node34 -->
<g id="node34" class="node"><title>Node34</title>
<g id="a_node34"><a xlink:href="Si_8hh.html" target="_top" xlink:title="boca/units/Si.hh">
<polygon fill="white" stroke="black" points="1794.5,-73 1794.5,-92 1881.5,-92 1881.5,-73 1794.5,-73"/>
<text text-anchor="middle" x="1838" y="-80" font-family="Helvetica,sans-Serif" font-size="10.00">boca/units/Si.hh</text>
</a>
</g>
</g>
<!-- Node29&#45;&gt;Node34 -->
<g id="edge38" class="edge"><title>Node29&#45;&gt;Node34</title>
<path fill="none" stroke="midnightblue" d="M1568,-139.96C1577.16,-137.955 1586.92,-135.862 1596,-134 1679.77,-116.824 1701.7,-117.298 1785,-98 1789.41,-96.9794 1794,-95.8396 1798.55,-94.6597"/>
<polygon fill="midnightblue" stroke="midnightblue" points="1799.63,-97.9962 1808.39,-92.0433 1797.83,-91.2313 1799.63,-97.9962"/>
</g>
<!-- Node39 -->
<g id="node39" class="node"><title>Node39</title>
<g id="a_node39"><a xlink:href="Barn_8hh.html" target="_top" xlink:title="boca/units/Barn.hh">
<polygon fill="white" stroke="black" points="1990,-73 1990,-92 2088,-92 2088,-73 1990,-73"/>
<text text-anchor="middle" x="2039" y="-80" font-family="Helvetica,sans-Serif" font-size="10.00">boca/units/Barn.hh</text>
</a>
</g>
</g>
<!-- Node29&#45;&gt;Node39 -->
<g id="edge44" class="edge"><title>Node29&#45;&gt;Node39</title>
<path fill="none" stroke="midnightblue" d="M1565.84,-139.925C1575.58,-137.785 1586.16,-135.637 1596,-134 1668.35,-121.962 1876.31,-100.076 1979.48,-89.5169"/>
<polygon fill="midnightblue" stroke="midnightblue" points="1980.14,-92.9681 1989.73,-88.4699 1979.43,-86.0043 1980.14,-92.9681"/>
</g>
<!-- Node43 -->
<g id="node43" class="node"><title>Node43</title>
<g id="a_node43"><a xlink:href="ElectronVolt_8hh.html" target="_top" xlink:title="boca/units/ElectronVolt.hh">
<polygon fill="white" stroke="black" points="2127.5,-73 2127.5,-92 2258.5,-92 2258.5,-73 2127.5,-73"/>
<text text-anchor="middle" x="2193" y="-80" font-family="Helvetica,sans-Serif" font-size="10.00">boca/units/ElectronVolt.hh</text>
</a>
</g>
</g>
<!-- Node29&#45;&gt;Node43 -->
<g id="edge49" class="edge"><title>Node29&#45;&gt;Node43</title>
<path fill="none" stroke="midnightblue" d="M1564.42,-139.952C1574.54,-137.707 1585.67,-135.498 1596,-134 1816.93,-101.965 1875.13,-122.689 2097,-98 2108.14,-96.7601 2119.98,-95.1856 2131.39,-93.5341"/>
<polygon fill="midnightblue" stroke="midnightblue" points="2131.9,-96.9963 2141.28,-92.0694 2130.88,-90.0717 2131.9,-96.9963"/>
</g>
<!-- Node34&#45;&gt;Node28 -->
<g id="edge43" class="edge"><title>Node34&#45;&gt;Node28</title>
<path fill="none" stroke="midnightblue" d="M1810.15,-72.9451C1802.1,-70.7277 1793.25,-68.5347 1785,-67 1743.44,-59.2719 1478.25,-34.3028 1351.84,-22.626"/>
<polygon fill="midnightblue" stroke="midnightblue" points="1351.8,-19.1071 1341.52,-21.6734 1351.16,-26.0775 1351.8,-19.1071"/>
</g>
<!-- Node35 -->
<g id="node35" class="node"><title>Node35</title>
<polygon fill="white" stroke="#bfbfbf" points="1467.5,-0.5 1467.5,-30.5 1578.5,-30.5 1578.5,-0.5 1467.5,-0.5"/>
<text text-anchor="start" x="1475.5" y="-18.5" font-family="Helvetica,sans-Serif" font-size="10.00">boost/math/constants</text>
<text text-anchor="middle" x="1523" y="-7.5" font-family="Helvetica,sans-Serif" font-size="10.00">/constants.hpp</text>
</g>
<!-- Node34&#45;&gt;Node35 -->
<g id="edge39" class="edge"><title>Node34&#45;&gt;Node35</title>
<path fill="none" stroke="midnightblue" d="M1808.68,-72.9928C1801.01,-70.9003 1792.72,-68.758 1785,-67 1701.27,-47.9327 1676.92,-48.6166 1588.56,-31.0547"/>
<polygon fill="midnightblue" stroke="midnightblue" points="1589.13,-27.6 1578.64,-29.0605 1587.75,-34.4627 1589.13,-27.6"/>
</g>
<!-- Node36 -->
<g id="node36" class="node"><title>Node36</title>
<polygon fill="white" stroke="#bfbfbf" points="1842.5,-6 1842.5,-25 1963.5,-25 1963.5,-6 1842.5,-6"/>
<text text-anchor="middle" x="1903" y="-13" font-family="Helvetica,sans-Serif" font-size="10.00">boost/units/quantity.hpp</text>
</g>
<!-- Node34&#45;&gt;Node36 -->
<g id="edge40" class="edge"><title>Node34&#45;&gt;Node36</title>
<path fill="none" stroke="midnightblue" d="M1846.77,-72.7338C1857.1,-62.403 1874.46,-45.0371 1887.17,-32.3315"/>
<polygon fill="midnightblue" stroke="midnightblue" points="1889.78,-34.6733 1894.37,-25.1273 1884.83,-29.7235 1889.78,-34.6733"/>
</g>
<!-- Node37 -->
<g id="node37" class="node"><title>Node37</title>
<polygon fill="white" stroke="#bfbfbf" points="1596.5,-0.5 1596.5,-30.5 1701.5,-30.5 1701.5,-0.5 1596.5,-0.5"/>
<text text-anchor="start" x="1604.5" y="-18.5" font-family="Helvetica,sans-Serif" font-size="10.00">boost/units/systems</text>
<text text-anchor="middle" x="1649" y="-7.5" font-family="Helvetica,sans-Serif" font-size="10.00">/si/plane_angle.hpp</text>
</g>
<!-- Node34&#45;&gt;Node37 -->
<g id="edge41" class="edge"><title>Node34&#45;&gt;Node37</title>
<path fill="none" stroke="midnightblue" d="M1812.9,-72.8685C1784.05,-62.9461 1735.96,-46.4085 1699.32,-33.8051"/>
<polygon fill="midnightblue" stroke="midnightblue" points="1700.38,-30.4706 1689.79,-30.5281 1698.11,-37.0901 1700.38,-30.4706"/>
</g>
<!-- Node38 -->
<g id="node38" class="node"><title>Node38</title>
<polygon fill="white" stroke="#bfbfbf" points="1719.5,-0.5 1719.5,-30.5 1824.5,-30.5 1824.5,-0.5 1719.5,-0.5"/>
<text text-anchor="start" x="1727.5" y="-18.5" font-family="Helvetica,sans-Serif" font-size="10.00">boost/units/systems</text>
<text text-anchor="middle" x="1772" y="-7.5" font-family="Helvetica,sans-Serif" font-size="10.00">/si/length.hpp</text>
</g>
<!-- Node34&#45;&gt;Node38 -->
<g id="edge42" class="edge"><title>Node34&#45;&gt;Node38</title>
<path fill="none" stroke="midnightblue" d="M1829.1,-72.7338C1820.01,-63.7804 1805.55,-49.543 1793.46,-37.6346"/>
<polygon fill="midnightblue" stroke="midnightblue" points="1795.89,-35.1122 1786.31,-30.589 1790.97,-40.0996 1795.89,-35.1122"/>
</g>
<!-- Node39&#45;&gt;Node36 -->
<g id="edge47" class="edge"><title>Node39&#45;&gt;Node36</title>
<path fill="none" stroke="midnightblue" d="M2020.94,-72.8685C1997.77,-61.7961 1957.37,-42.4862 1930.4,-29.5978"/>
<polygon fill="midnightblue" stroke="midnightblue" points="1931.67,-26.3216 1921.13,-25.1672 1928.65,-32.6373 1931.67,-26.3216"/>
</g>
<!-- Node40 -->
<g id="node40" class="node"><title>Node40</title>
<polygon fill="white" stroke="#bfbfbf" points="2114.5,-6 2114.5,-25 2271.5,-25 2271.5,-6 2114.5,-6"/>
<text text-anchor="middle" x="2193" y="-13" font-family="Helvetica,sans-Serif" font-size="10.00">boost/units/base_dimension.hpp</text>
</g>
<!-- Node39&#45;&gt;Node40 -->
<g id="edge45" class="edge"><title>Node39&#45;&gt;Node40</title>
<path fill="none" stroke="midnightblue" d="M2059.45,-72.8685C2086.03,-61.6504 2132.64,-41.9766 2163.17,-29.0925"/>
<polygon fill="midnightblue" stroke="midnightblue" points="2164.61,-32.2804 2172.47,-25.1672 2161.89,-25.8313 2164.61,-32.2804"/>
</g>
<!-- Node41 -->
<g id="node41" class="node"><title>Node41</title>
<polygon fill="white" stroke="#bfbfbf" points="2290,-6 2290,-25 2418,-25 2418,-6 2290,-6"/>
<text text-anchor="middle" x="2354" y="-13" font-family="Helvetica,sans-Serif" font-size="10.00">boost/units/base_unit.hpp</text>
</g>
<!-- Node39&#45;&gt;Node41 -->
<g id="edge46" class="edge"><title>Node39&#45;&gt;Node41</title>
<path fill="none" stroke="midnightblue" d="M2080.5,-72.9355C2137.71,-61.1306 2240.74,-39.8716 2302.7,-27.0853"/>
<polygon fill="midnightblue" stroke="midnightblue" points="2303.57,-30.4805 2312.65,-25.0317 2302.15,-23.6249 2303.57,-30.4805"/>
</g>
<!-- Node42 -->
<g id="node42" class="node"><title>Node42</title>
<polygon fill="white" stroke="#bfbfbf" points="1981.5,-0.5 1981.5,-30.5 2096.5,-30.5 2096.5,-0.5 1981.5,-0.5"/>
<text text-anchor="start" x="1989.5" y="-18.5" font-family="Helvetica,sans-Serif" font-size="10.00">boost/units/base_units</text>
<text text-anchor="middle" x="2039" y="-7.5" font-family="Helvetica,sans-Serif" font-size="10.00">/metric/barn.hpp</text>
</g>
<!-- Node39&#45;&gt;Node42 -->
<g id="edge48" class="edge"><title>Node39&#45;&gt;Node42</title>
<path fill="none" stroke="midnightblue" d="M2039,-72.7338C2039,-64.5406 2039,-51.9225 2039,-40.7136"/>
<polygon fill="midnightblue" stroke="midnightblue" points="2042.5,-40.589 2039,-30.589 2035.5,-40.5891 2042.5,-40.589"/>
</g>
<!-- Node43&#45;&gt;Node36 -->
<g id="edge52" class="edge"><title>Node43&#45;&gt;Node36</title>
<path fill="none" stroke="midnightblue" d="M2154.79,-72.9355C2102.41,-61.1956 2008.32,-40.1052 1951.17,-27.2971"/>
<polygon fill="midnightblue" stroke="midnightblue" points="1951.82,-23.8553 1941.3,-25.0834 1950.29,-30.6859 1951.82,-23.8553"/>
</g>
<!-- Node43&#45;&gt;Node40 -->
<g id="edge50" class="edge"><title>Node43&#45;&gt;Node40</title>
<path fill="none" stroke="midnightblue" d="M2193,-72.7338C2193,-63.1826 2193,-47.6183 2193,-35.2829"/>
<polygon fill="midnightblue" stroke="midnightblue" points="2196.5,-35.1273 2193,-25.1273 2189.5,-35.1273 2196.5,-35.1273"/>
</g>
<!-- Node43&#45;&gt;Node41 -->
<g id="edge51" class="edge"><title>Node43&#45;&gt;Node41</title>
<path fill="none" stroke="midnightblue" d="M2214.38,-72.8685C2242.36,-61.5706 2291.59,-41.6961 2323.49,-28.8183"/>
<polygon fill="midnightblue" stroke="midnightblue" points="2324.83,-32.0529 2332.79,-25.0637 2322.21,-25.5619 2324.83,-32.0529"/>
</g>
<!-- Node44 -->
<g id="node44" class="node"><title>Node44</title>
<polygon fill="white" stroke="#bfbfbf" points="2436.5,-0.5 2436.5,-30.5 2541.5,-30.5 2541.5,-0.5 2436.5,-0.5"/>
<text text-anchor="start" x="2444.5" y="-18.5" font-family="Helvetica,sans-Serif" font-size="10.00">boost/units/systems</text>
<text text-anchor="middle" x="2489" y="-7.5" font-family="Helvetica,sans-Serif" font-size="10.00">/si/energy.hpp</text>
</g>
<!-- Node43&#45;&gt;Node44 -->
<g id="edge53" class="edge"><title>Node43&#45;&gt;Node44</title>
<path fill="none" stroke="midnightblue" d="M2233.63,-72.9531C2278.33,-63.5003 2352.56,-47.6594 2426.32,-31.1318"/>
<polygon fill="midnightblue" stroke="midnightblue" points="2427.26,-34.5081 2436.25,-28.9019 2425.73,-27.6782 2427.26,-34.5081"/>
</g>
<!-- Node45&#45;&gt;Node10 -->
<g id="edge55" class="edge"><title>Node45&#45;&gt;Node10</title>
<path fill="none" stroke="midnightblue" d="M1494.45,-208.012C1310.64,-200.716 686.395,-175.294 645,-165 643.011,-164.505 640.995,-163.881 638.995,-163.17"/>
<polygon fill="midnightblue" stroke="midnightblue" points="639.91,-159.758 629.335,-159.104 637.194,-166.209 639.91,-159.758"/>
</g>
<!-- Node46 -->
<g id="node46" class="node"><title>Node46</title>
<polygon fill="white" stroke="#bfbfbf" points="1605,-134.5 1605,-164.5 1715,-164.5 1715,-134.5 1605,-134.5"/>
<text text-anchor="start" x="1613" y="-152.5" font-family="Helvetica,sans-Serif" font-size="10.00">boost/range/algorithm</text>
<text text-anchor="middle" x="1660" y="-141.5" font-family="Helvetica,sans-Serif" font-size="10.00">/lower_bound.hpp</text>
</g>
<!-- Node45&#45;&gt;Node46 -->
<g id="edge56" class="edge"><title>Node45&#45;&gt;Node46</title>
<path fill="none" stroke="midnightblue" d="M1561.48,-201.475C1577.71,-193.078 1603.04,-179.973 1623.95,-169.153"/>
<polygon fill="midnightblue" stroke="midnightblue" points="1625.62,-172.227 1632.9,-164.523 1622.41,-166.01 1625.62,-172.227"/>
</g>
<!-- Node47 -->
<g id="node47" class="node"><title>Node47</title>
<polygon fill="white" stroke="#bfbfbf" points="1733,-134.5 1733,-164.5 1843,-164.5 1843,-134.5 1733,-134.5"/>
<text text-anchor="start" x="1741" y="-152.5" font-family="Helvetica,sans-Serif" font-size="10.00">boost/range/algorithm</text>
<text text-anchor="middle" x="1788" y="-141.5" font-family="Helvetica,sans-Serif" font-size="10.00">/upper_bound.hpp</text>
</g>
<!-- Node45&#45;&gt;Node47 -->
<g id="edge57" class="edge"><title>Node45&#45;&gt;Node47</title>
<path fill="none" stroke="midnightblue" d="M1579.82,-201.475C1616.98,-192.374 1676.73,-177.744 1722.71,-166.487"/>
<polygon fill="midnightblue" stroke="midnightblue" points="1723.71,-169.845 1732.59,-164.067 1722.05,-163.045 1723.71,-169.845"/>
</g>
</g>
</svg>
