<?xml version="1.0" encoding="UTF-8" standalone="no"?>
<!DOCTYPE svg PUBLIC "-//W3C//DTD SVG 1.1//EN"
 "http://www.w3.org/Graphics/SVG/1.1/DTD/svg11.dtd">
<!-- Generated by graphviz version 2.38.0 (20140413.2041)
 -->
<!-- Title: boca/multiplets/Multiplet.hh Pages: 1 -->
<svg width="1557pt" height="464pt"
 viewBox="0.00 0.00 1556.50 464.00" xmlns="http://www.w3.org/2000/svg" xmlns:xlink="http://www.w3.org/1999/xlink">
<g id="graph0" class="graph" transform="scale(1 1) rotate(0) translate(4 460)">
<title>boca/multiplets/Multiplet.hh</title>
<polygon fill="white" stroke="none" points="-4,4 -4,-460 1552.5,-460 1552.5,4 -4,4"/>
<!-- Node1 -->
<g id="node1" class="node"><title>Node1</title>
<polygon fill="#bfbfbf" stroke="black" points="738,-436.5 738,-455.5 874,-455.5 874,-436.5 738,-436.5"/>
<text text-anchor="middle" x="806" y="-443.5" font-family="Helvetica,sans-Serif" font-size="10.00">boca/multiplets/Multiplet.hh</text>
</g>
<!-- Node2 -->
<g id="node2" class="node"><title>Node2</title>
<g id="a_node2"><a xlink:href="Singlet_8hh.html" target="_top" xlink:title="boca/multiplets/Singlet.hh">
<polygon fill="white" stroke="black" points="905.5,-380.5 905.5,-399.5 1034.5,-399.5 1034.5,-380.5 905.5,-380.5"/>
<text text-anchor="middle" x="970" y="-387.5" font-family="Helvetica,sans-Serif" font-size="10.00">boca/multiplets/Singlet.hh</text>
</a>
</g>
</g>
<!-- Node1&#45;&gt;Node2 -->
<g id="edge1" class="edge"><title>Node1&#45;&gt;Node2</title>
<path fill="none" stroke="midnightblue" d="M831.986,-436.444C859.696,-427.32 903.752,-412.813 934.616,-402.651"/>
<polygon fill="midnightblue" stroke="midnightblue" points="935.732,-405.968 944.135,-399.516 933.542,-399.32 935.732,-405.968"/>
</g>
<!-- Node38 -->
<g id="node38" class="node"><title>Node38</title>
<g id="a_node38"><a xlink:href="fastjet_2Particle_8hh.html" target="_top" xlink:title="boca/fastjet/Particle.hh">
<polygon fill="white" stroke="black" points="691.5,-324.5 691.5,-343.5 808.5,-343.5 808.5,-324.5 691.5,-324.5"/>
<text text-anchor="middle" x="750" y="-331.5" font-family="Helvetica,sans-Serif" font-size="10.00">boca/fastjet/Particle.hh</text>
</a>
</g>
</g>
<!-- Node1&#45;&gt;Node38 -->
<g id="edge47" class="edge"><title>Node1&#45;&gt;Node38</title>
<path fill="none" stroke="midnightblue" d="M768.898,-436.458C749.555,-429.918 727.572,-418.724 716,-400 705.926,-383.699 719.44,-364.105 732.294,-350.72"/>
<polygon fill="midnightblue" stroke="midnightblue" points="734.863,-353.104 739.603,-343.629 729.989,-348.081 734.863,-353.104"/>
</g>
<!-- Node40 -->
<g id="node40" class="node"><title>Node40</title>
<g id="a_node40"><a xlink:href="ClosestLepton_8hh.html" target="_top" xlink:title="boca/multiplets/ClosestLepton.hh">
<polygon fill="white" stroke="black" points="725,-380.5 725,-399.5 887,-399.5 887,-380.5 725,-380.5"/>
<text text-anchor="middle" x="806" y="-387.5" font-family="Helvetica,sans-Serif" font-size="10.00">boca/multiplets/ClosestLepton.hh</text>
</a>
</g>
</g>
<!-- Node1&#45;&gt;Node40 -->
<g id="edge52" class="edge"><title>Node1&#45;&gt;Node40</title>
<path fill="none" stroke="midnightblue" d="M806,-436.083C806,-429.006 806,-418.861 806,-409.986"/>
<polygon fill="midnightblue" stroke="midnightblue" points="809.5,-409.751 806,-399.751 802.5,-409.751 809.5,-409.751"/>
</g>
<!-- Node41 -->
<g id="node41" class="node"><title>Node41</title>
<g id="a_node41"><a xlink:href="SubJettiness_8hh.html" target="_top" xlink:title="boca/fastjet/SubJettiness.hh">
<polygon fill="white" stroke="black" points="527.5,-380.5 527.5,-399.5 668.5,-399.5 668.5,-380.5 527.5,-380.5"/>
<text text-anchor="middle" x="598" y="-387.5" font-family="Helvetica,sans-Serif" font-size="10.00">boca/fastjet/SubJettiness.hh</text>
</a>
</g>
</g>
<!-- Node1&#45;&gt;Node41 -->
<g id="edge54" class="edge"><title>Node1&#45;&gt;Node41</title>
<path fill="none" stroke="midnightblue" d="M773.042,-436.444C737.213,-427.142 679.837,-412.246 640.609,-402.062"/>
<polygon fill="midnightblue" stroke="midnightblue" points="641.363,-398.642 630.804,-399.516 639.604,-405.417 641.363,-398.642"/>
</g>
<!-- Node43 -->
<g id="node43" class="node"><title>Node43</title>
<g id="a_node43"><a xlink:href="EventShapes_8hh.html" target="_top" xlink:title="boca/EventShapes.hh">
<polygon fill="white" stroke="black" points="1052.5,-380.5 1052.5,-399.5 1165.5,-399.5 1165.5,-380.5 1052.5,-380.5"/>
<text text-anchor="middle" x="1109" y="-387.5" font-family="Helvetica,sans-Serif" font-size="10.00">boca/EventShapes.hh</text>
</a>
</g>
</g>
<!-- Node1&#45;&gt;Node43 -->
<g id="edge57" class="edge"><title>Node1&#45;&gt;Node43</title>
<path fill="none" stroke="midnightblue" d="M854.011,-436.444C907.534,-426.905 994.065,-411.483 1051.24,-401.293"/>
<polygon fill="midnightblue" stroke="midnightblue" points="1051.98,-404.717 1061.21,-399.516 1050.75,-397.825 1051.98,-404.717"/>
</g>
<!-- Node3 -->
<g id="node3" class="node"><title>Node3</title>
<g id="a_node3"><a xlink:href="Mutable_8hh.html" target="_top" xlink:title="boca/generic/Mutable.hh">
<polygon fill="white" stroke="black" points="1303.5,-207 1303.5,-226 1426.5,-226 1426.5,-207 1303.5,-207"/>
<text text-anchor="middle" x="1365" y="-214" font-family="Helvetica,sans-Serif" font-size="10.00">boca/generic/Mutable.hh</text>
</a>
</g>
</g>
<!-- Node2&#45;&gt;Node3 -->
<g id="edge2" class="edge"><title>Node2&#45;&gt;Node3</title>
<path fill="none" stroke="midnightblue" d="M971.356,-380.219C975.366,-357.489 989.402,-296.515 1028,-268 1038.59,-260.178 1197.4,-238.816 1293.18,-226.526"/>
<polygon fill="midnightblue" stroke="midnightblue" points="1293.91,-229.961 1303.39,-225.22 1293.02,-223.018 1293.91,-229.961"/>
</g>
<!-- Node13 -->
<g id="node13" class="node"><title>Node13</title>
<g id="a_node13"><a xlink:href="Line2_8hh.html" target="_top" xlink:title="boca/math/Line2.hh">
<polygon fill="white" stroke="black" points="841,-268.5 841,-287.5 943,-287.5 943,-268.5 841,-268.5"/>
<text text-anchor="middle" x="892" y="-275.5" font-family="Helvetica,sans-Serif" font-size="10.00">boca/math/Line2.hh</text>
</a>
</g>
</g>
<!-- Node2&#45;&gt;Node13 -->
<g id="edge12" class="edge"><title>Node2&#45;&gt;Node13</title>
<path fill="none" stroke="midnightblue" d="M965.974,-380.182C959.902,-367.288 947.649,-342.785 934,-324 926.479,-313.649 916.805,-303.136 908.638,-294.878"/>
<polygon fill="midnightblue" stroke="midnightblue" points="910.967,-292.259 901.389,-287.729 906.052,-297.243 910.967,-292.259"/>
</g>
<!-- Node30 -->
<g id="node30" class="node"><title>Node30</title>
<g id="a_node30"><a xlink:href="Jet_8hh.html" target="_top" xlink:title="boca/fastjet/Jet.hh">
<polygon fill="white" stroke="black" points="827,-324.5 827,-343.5 925,-343.5 925,-324.5 827,-324.5"/>
<text text-anchor="middle" x="876" y="-331.5" font-family="Helvetica,sans-Serif" font-size="10.00">boca/fastjet/Jet.hh</text>
</a>
</g>
</g>
<!-- Node2&#45;&gt;Node30 -->
<g id="edge31" class="edge"><title>Node2&#45;&gt;Node30</title>
<path fill="none" stroke="midnightblue" d="M954.897,-380.324C940.097,-371.822 917.306,-358.729 900.018,-348.797"/>
<polygon fill="midnightblue" stroke="midnightblue" points="901.48,-345.601 891.065,-343.655 897.993,-351.671 901.48,-345.601"/>
</g>
<!-- Node4 -->
<g id="node4" class="node"><title>Node4</title>
<polygon fill="white" stroke="#bfbfbf" points="1374.5,-140 1374.5,-159 1433.5,-159 1433.5,-140 1374.5,-140"/>
<text text-anchor="middle" x="1404" y="-147" font-family="Helvetica,sans-Serif" font-size="10.00">functional</text>
</g>
<!-- Node3&#45;&gt;Node4 -->
<g id="edge3" class="edge"><title>Node3&#45;&gt;Node4</title>
<path fill="none" stroke="midnightblue" d="M1370.26,-206.734C1376.22,-196.793 1386.1,-180.338 1393.63,-167.789"/>
<polygon fill="midnightblue" stroke="midnightblue" points="1396.68,-169.503 1398.82,-159.127 1390.68,-165.901 1396.68,-169.503"/>
</g>
<!-- Node5 -->
<g id="node5" class="node"><title>Node5</title>
<g id="a_node5"><a xlink:href="Debug_8hh.html" target="_top" xlink:title="boca/generic/Debug.hh">
<polygon fill="white" stroke="black" points="1081.5,-140 1081.5,-159 1198.5,-159 1198.5,-140 1081.5,-140"/>
<text text-anchor="middle" x="1140" y="-147" font-family="Helvetica,sans-Serif" font-size="10.00">boca/generic/Debug.hh</text>
</a>
</g>
</g>
<!-- Node3&#45;&gt;Node5 -->
<g id="edge4" class="edge"><title>Node3&#45;&gt;Node5</title>
<path fill="none" stroke="midnightblue" d="M1335.12,-206.869C1295.09,-195.303 1223.94,-174.749 1179.51,-161.914"/>
<polygon fill="midnightblue" stroke="midnightblue" points="1180.22,-158.477 1169.64,-159.064 1178.28,-165.202 1180.22,-158.477"/>
</g>
<!-- Node12 -->
<g id="node12" class="node"><title>Node12</title>
<polygon fill="white" stroke="#bfbfbf" points="1456,-140 1456,-159 1494,-159 1494,-140 1456,-140"/>
<text text-anchor="middle" x="1475" y="-147" font-family="Helvetica,sans-Serif" font-size="10.00">array</text>
</g>
<!-- Node3&#45;&gt;Node12 -->
<g id="edge11" class="edge"><title>Node3&#45;&gt;Node12</title>
<path fill="none" stroke="midnightblue" d="M1379.84,-206.734C1398.31,-195.818 1430.07,-177.049 1451.78,-164.221"/>
<polygon fill="midnightblue" stroke="midnightblue" points="1453.57,-167.228 1460.4,-159.127 1450.01,-161.201 1453.57,-167.228"/>
</g>
<!-- Node6 -->
<g id="node6" class="node"><title>Node6</title>
<polygon fill="white" stroke="#bfbfbf" points="894.5,-6 894.5,-25 935.5,-25 935.5,-6 894.5,-6"/>
<text text-anchor="middle" x="915" y="-13" font-family="Helvetica,sans-Serif" font-size="10.00">string</text>
</g>
<!-- Node5&#45;&gt;Node6 -->
<g id="edge5" class="edge"><title>Node5&#45;&gt;Node6</title>
<path fill="none" stroke="midnightblue" d="M1101.6,-139.968C1041.07,-126.439 929.986,-101.256 927,-98 911.632,-81.2395 910.725,-53.8594 912.244,-35.5168"/>
<polygon fill="midnightblue" stroke="midnightblue" points="915.737,-35.7723 913.395,-25.4395 908.782,-34.9774 915.737,-35.7723"/>
</g>
<!-- Node7 -->
<g id="node7" class="node"><title>Node7</title>
<polygon fill="white" stroke="#bfbfbf" points="1186,-6 1186,-25 1230,-25 1230,-6 1186,-6"/>
<text text-anchor="middle" x="1208" y="-13" font-family="Helvetica,sans-Serif" font-size="10.00">vector</text>
</g>
<!-- Node5&#45;&gt;Node7 -->
<g id="edge6" class="edge"><title>Node5&#45;&gt;Node7</title>
<path fill="none" stroke="midnightblue" d="M1151.27,-139.685C1162.29,-130.462 1178.72,-114.981 1188,-98 1198.79,-78.2658 1203.84,-52.6953 1206.15,-35.5036"/>
<polygon fill="midnightblue" stroke="midnightblue" points="1209.68,-35.45 1207.35,-25.115 1202.72,-34.6484 1209.68,-35.45"/>
</g>
<!-- Node8 -->
<g id="node8" class="node"><title>Node8</title>
<polygon fill="white" stroke="#bfbfbf" points="936,-73 936,-92 988,-92 988,-73 936,-73"/>
<text text-anchor="middle" x="962" y="-80" font-family="Helvetica,sans-Serif" font-size="10.00">sstream</text>
</g>
<!-- Node5&#45;&gt;Node8 -->
<g id="edge7" class="edge"><title>Node5&#45;&gt;Node8</title>
<path fill="none" stroke="midnightblue" d="M1114.54,-139.965C1085.82,-130.235 1037.81,-113.647 997,-98 995.353,-97.3687 993.668,-96.7105 991.969,-96.0381"/>
<polygon fill="midnightblue" stroke="midnightblue" points="992.867,-92.6259 982.285,-92.1182 990.241,-99.1145 992.867,-92.6259"/>
</g>
<!-- Node9 -->
<g id="node9" class="node"><title>Node9</title>
<polygon fill="white" stroke="#bfbfbf" points="1006,-73 1006,-92 1056,-92 1056,-73 1006,-73"/>
<text text-anchor="middle" x="1031" y="-80" font-family="Helvetica,sans-Serif" font-size="10.00">iomanip</text>
</g>
<!-- Node5&#45;&gt;Node9 -->
<g id="edge8" class="edge"><title>Node5&#45;&gt;Node9</title>
<path fill="none" stroke="midnightblue" d="M1125.3,-139.734C1107.08,-128.867 1075.8,-110.216 1054.3,-97.3931"/>
<polygon fill="midnightblue" stroke="midnightblue" points="1055.85,-94.243 1045.47,-92.1273 1052.26,-100.255 1055.85,-94.243"/>
</g>
<!-- Node10 -->
<g id="node10" class="node"><title>Node10</title>
<polygon fill="white" stroke="#bfbfbf" points="1236,-73 1236,-92 1290,-92 1290,-73 1236,-73"/>
<text text-anchor="middle" x="1263" y="-80" font-family="Helvetica,sans-Serif" font-size="10.00">iostream</text>
</g>
<!-- Node5&#45;&gt;Node10 -->
<g id="edge9" class="edge"><title>Node5&#45;&gt;Node10</title>
<path fill="none" stroke="midnightblue" d="M1156.33,-139.869C1177.1,-128.893 1213.19,-109.824 1237.57,-96.9385"/>
<polygon fill="midnightblue" stroke="midnightblue" points="1239.39,-99.934 1246.6,-92.1672 1236.12,-93.745 1239.39,-99.934"/>
</g>
<!-- Node11 -->
<g id="node11" class="node"><title>Node11</title>
<polygon fill="white" stroke="#bfbfbf" points="1074.5,-67.5 1074.5,-97.5 1179.5,-97.5 1179.5,-67.5 1074.5,-67.5"/>
<text text-anchor="start" x="1082.5" y="-85.5" font-family="Helvetica,sans-Serif" font-size="10.00">boost/units/systems</text>
<text text-anchor="middle" x="1127" y="-74.5" font-family="Helvetica,sans-Serif" font-size="10.00">/si/io.hpp</text>
</g>
<!-- Node5&#45;&gt;Node11 -->
<g id="edge10" class="edge"><title>Node5&#45;&gt;Node11</title>
<path fill="none" stroke="midnightblue" d="M1138.25,-139.734C1136.61,-131.541 1134.08,-118.923 1131.84,-107.714"/>
<polygon fill="midnightblue" stroke="midnightblue" points="1135.21,-106.708 1129.82,-97.589 1128.35,-108.081 1135.21,-106.708"/>
</g>
<!-- Node14 -->
<g id="node14" class="node"><title>Node14</title>
<g id="a_node14"><a xlink:href="Line_8hh.html" target="_top" xlink:title="boca/math/Line.hh">
<polygon fill="white" stroke="black" points="827.5,-207 827.5,-226 924.5,-226 924.5,-207 827.5,-207"/>
<text text-anchor="middle" x="876" y="-214" font-family="Helvetica,sans-Serif" font-size="10.00">boca/math/Line.hh</text>
</a>
</g>
</g>
<!-- Node13&#45;&gt;Node14 -->
<g id="edge13" class="edge"><title>Node13&#45;&gt;Node14</title>
<path fill="none" stroke="midnightblue" d="M889.708,-268.475C887.426,-259.992 883.853,-246.704 880.927,-235.822"/>
<polygon fill="midnightblue" stroke="midnightblue" points="884.265,-234.757 878.288,-226.009 877.505,-236.575 884.265,-234.757"/>
</g>
<!-- Node16 -->
<g id="node16" class="node"><title>Node16</title>
<g id="a_node16"><a xlink:href="Vector2_8hh.html" target="_top" xlink:title="boca/math/Vector2.hh">
<polygon fill="white" stroke="black" points="942.5,-207 942.5,-226 1055.5,-226 1055.5,-207 942.5,-207"/>
<text text-anchor="middle" x="999" y="-214" font-family="Helvetica,sans-Serif" font-size="10.00">boca/math/Vector2.hh</text>
</a>
</g>
</g>
<!-- Node13&#45;&gt;Node16 -->
<g id="edge15" class="edge"><title>Node13&#45;&gt;Node16</title>
<path fill="none" stroke="midnightblue" d="M907.33,-268.475C924.97,-258.666 954.16,-242.435 974.858,-230.925"/>
<polygon fill="midnightblue" stroke="midnightblue" points="976.659,-233.928 983.698,-226.009 973.257,-227.81 976.659,-233.928"/>
</g>
<!-- Node15 -->
<g id="node15" class="node"><title>Node15</title>
<polygon fill="white" stroke="#bfbfbf" points="597.5,-140 597.5,-159 724.5,-159 724.5,-140 597.5,-140"/>
<text text-anchor="middle" x="661" y="-147" font-family="Helvetica,sans-Serif" font-size="10.00">boost/units/operators.hpp</text>
</g>
<!-- Node14&#45;&gt;Node15 -->
<g id="edge14" class="edge"><title>Node14&#45;&gt;Node15</title>
<path fill="none" stroke="midnightblue" d="M847.45,-206.869C809.274,-195.327 741.494,-174.835 699.024,-161.996"/>
<polygon fill="midnightblue" stroke="midnightblue" points="699.911,-158.607 689.326,-159.064 697.885,-165.308 699.911,-158.607"/>
</g>
<!-- Node16&#45;&gt;Node5 -->
<g id="edge18" class="edge"><title>Node16&#45;&gt;Node5</title>
<path fill="none" stroke="midnightblue" d="M1017.72,-206.869C1041.85,-195.748 1084,-176.317 1111.95,-163.429"/>
<polygon fill="midnightblue" stroke="midnightblue" points="1113.58,-166.532 1121.2,-159.167 1110.65,-160.175 1113.58,-166.532"/>
</g>
<!-- Node17 -->
<g id="node17" class="node"><title>Node17</title>
<polygon fill="white" stroke="#bfbfbf" points="476.5,-140 476.5,-159 579.5,-159 579.5,-140 476.5,-140"/>
<text text-anchor="middle" x="528" y="-147" font-family="Helvetica,sans-Serif" font-size="10.00">boost/operators.hpp</text>
</g>
<!-- Node16&#45;&gt;Node17 -->
<g id="edge16" class="edge"><title>Node16&#45;&gt;Node17</title>
<path fill="none" stroke="midnightblue" d="M963.517,-206.938C953.677,-204.773 942.96,-202.609 933,-201 780.806,-176.421 739.929,-191.165 588,-165 582.114,-163.986 575.947,-162.727 569.9,-161.376"/>
<polygon fill="midnightblue" stroke="midnightblue" points="570.442,-157.909 559.908,-159.045 568.852,-164.726 570.442,-157.909"/>
</g>
<!-- Node18 -->
<g id="node18" class="node"><title>Node18</title>
<polygon fill="white" stroke="#bfbfbf" points="742.5,-140 742.5,-159 807.5,-159 807.5,-140 742.5,-140"/>
<text text-anchor="middle" x="775" y="-147" font-family="Helvetica,sans-Serif" font-size="10.00">TVector2.h</text>
</g>
<!-- Node16&#45;&gt;Node18 -->
<g id="edge17" class="edge"><title>Node16&#45;&gt;Node18</title>
<path fill="none" stroke="midnightblue" d="M965.399,-206.989C928.534,-197.475 867.721,-181.26 816,-165 813.389,-164.179 810.695,-163.3 807.995,-162.396"/>
<polygon fill="midnightblue" stroke="midnightblue" points="808.915,-159.011 798.32,-159.068 806.638,-165.63 808.915,-159.011"/>
</g>
<!-- Node19 -->
<g id="node19" class="node"><title>Node19</title>
<g id="a_node19"><a xlink:href="Iterator_8hh.html" target="_top" xlink:title="boca/generic/Iterator.hh">
<polygon fill="white" stroke="red" points="825.5,-140 825.5,-159 944.5,-159 944.5,-140 825.5,-140"/>
<text text-anchor="middle" x="885" y="-147" font-family="Helvetica,sans-Serif" font-size="10.00">boca/generic/Iterator.hh</text>
</a>
</g>
</g>
<!-- Node16&#45;&gt;Node19 -->
<g id="edge19" class="edge"><title>Node16&#45;&gt;Node19</title>
<path fill="none" stroke="midnightblue" d="M983.625,-206.734C964.481,-195.818 931.562,-177.049 909.064,-164.221"/>
<polygon fill="midnightblue" stroke="midnightblue" points="910.552,-161.04 900.131,-159.127 907.084,-167.121 910.552,-161.04"/>
</g>
<!-- Node20 -->
<g id="node20" class="node"><title>Node20</title>
<g id="a_node20"><a xlink:href="Units_8hh.html" target="_top" xlink:title="boca/units/Units.hh">
<polygon fill="white" stroke="red" points="962.5,-140 962.5,-159 1063.5,-159 1063.5,-140 962.5,-140"/>
<text text-anchor="middle" x="1013" y="-147" font-family="Helvetica,sans-Serif" font-size="10.00">boca/units/Units.hh</text>
</a>
</g>
</g>
<!-- Node16&#45;&gt;Node20 -->
<g id="edge20" class="edge"><title>Node16&#45;&gt;Node20</title>
<path fill="none" stroke="midnightblue" d="M1000.89,-206.734C1002.97,-197.085 1006.37,-181.3 1009.04,-168.906"/>
<polygon fill="midnightblue" stroke="midnightblue" points="1012.46,-169.64 1011.14,-159.127 1005.61,-168.166 1012.46,-169.64"/>
</g>
<!-- Node29 -->
<g id="node29" class="node"><title>Node29</title>
<g id="a_node29"><a xlink:href="Math_8hh.html" target="_top" xlink:title="boca/math/Math.hh">
<polygon fill="white" stroke="red" points="1255.5,-140 1255.5,-159 1356.5,-159 1356.5,-140 1255.5,-140"/>
<text text-anchor="middle" x="1306" y="-147" font-family="Helvetica,sans-Serif" font-size="10.00">boca/math/Math.hh</text>
</a>
</g>
</g>
<!-- Node16&#45;&gt;Node29 -->
<g id="edge29" class="edge"><title>Node16&#45;&gt;Node29</title>
<path fill="none" stroke="midnightblue" d="M1039.45,-206.936C1095.01,-195.171 1194.92,-174.018 1255.38,-161.218"/>
<polygon fill="midnightblue" stroke="midnightblue" points="1256.4,-164.579 1265.46,-159.083 1254.95,-157.731 1256.4,-164.579"/>
</g>
<!-- Node21 -->
<g id="node21" class="node"><title>Node21</title>
<g id="a_node21"><a xlink:href="Prefixes_8hh.html" target="_top" xlink:title="boca/units/Prefixes.hh">
<polygon fill="white" stroke="black" points="436,-73 436,-92 550,-92 550,-73 436,-73"/>
<text text-anchor="middle" x="493" y="-80" font-family="Helvetica,sans-Serif" font-size="10.00">boca/units/Prefixes.hh</text>
</a>
</g>
</g>
<!-- Node20&#45;&gt;Node21 -->
<g id="edge21" class="edge"><title>Node20&#45;&gt;Node21</title>
<path fill="none" stroke="midnightblue" d="M981.086,-139.987C972.055,-137.796 962.184,-135.607 953,-134 814.503,-109.765 650.392,-95.0647 560.411,-88.1887"/>
<polygon fill="midnightblue" stroke="midnightblue" points="560.578,-84.6915 550.343,-87.4284 560.051,-91.6716 560.578,-84.6915"/>
</g>
<!-- Node22 -->
<g id="node22" class="node"><title>Node22</title>
<polygon fill="white" stroke="#bfbfbf" points="0,-6 0,-25 110,-25 110,-6 0,-6"/>
<text text-anchor="middle" x="55" y="-13" font-family="Helvetica,sans-Serif" font-size="10.00">boost/units/scale.hpp</text>
</g>
<!-- Node21&#45;&gt;Node22 -->
<g id="edge22" class="edge"><title>Node21&#45;&gt;Node22</title>
<path fill="none" stroke="midnightblue" d="M457.16,-72.9437C447.414,-70.8039 436.834,-68.6508 427,-67 291.081,-44.1848 254.844,-54.2595 119,-31 112.662,-29.9149 106.009,-28.6035 99.4862,-27.2183"/>
<polygon fill="midnightblue" stroke="midnightblue" points="99.9272,-23.7317 89.4089,-25.0028 98.4241,-30.5684 99.9272,-23.7317"/>
</g>
<!-- Node23 -->
<g id="node23" class="node"><title>Node23</title>
<polygon fill="white" stroke="#bfbfbf" points="128.5,-0.5 128.5,-30.5 253.5,-30.5 253.5,-0.5 128.5,-0.5"/>
<text text-anchor="start" x="136.5" y="-18.5" font-family="Helvetica,sans-Serif" font-size="10.00">boost/units/make_scaled</text>
<text text-anchor="middle" x="191" y="-7.5" font-family="Helvetica,sans-Serif" font-size="10.00">_unit.hpp</text>
</g>
<!-- Node21&#45;&gt;Node23 -->
<g id="edge23" class="edge"><title>Node21&#45;&gt;Node23</title>
<path fill="none" stroke="midnightblue" d="M454.269,-72.954C445.317,-70.9888 435.828,-68.9143 427,-67 372.256,-55.1295 310.327,-41.8847 263.648,-31.9384"/>
<polygon fill="midnightblue" stroke="midnightblue" points="264.138,-28.4642 253.628,-29.8041 262.679,-35.3106 264.138,-28.4642"/>
</g>
<!-- Node24 -->
<g id="node24" class="node"><title>Node24</title>
<polygon fill="white" stroke="#bfbfbf" points="271.5,-0.5 271.5,-30.5 382.5,-30.5 382.5,-0.5 271.5,-0.5"/>
<text text-anchor="start" x="279.5" y="-18.5" font-family="Helvetica,sans-Serif" font-size="10.00">boost/units/systems</text>
<text text-anchor="middle" x="327" y="-7.5" font-family="Helvetica,sans-Serif" font-size="10.00">/si/dimensionless.hpp</text>
</g>
<!-- Node21&#45;&gt;Node24 -->
<g id="edge24" class="edge"><title>Node21&#45;&gt;Node24</title>
<path fill="none" stroke="midnightblue" d="M470.956,-72.8685C445.94,-63.0728 404.457,-46.8296 372.432,-34.2897"/>
<polygon fill="midnightblue" stroke="midnightblue" points="373.413,-30.9152 362.826,-30.5281 370.861,-37.4333 373.413,-30.9152"/>
</g>
<!-- Node25 -->
<g id="node25" class="node"><title>Node25</title>
<polygon fill="white" stroke="#bfbfbf" points="401,-6 401,-25 505,-25 505,-6 401,-6"/>
<text text-anchor="middle" x="453" y="-13" font-family="Helvetica,sans-Serif" font-size="10.00">boost/units/pow.hpp</text>
</g>
<!-- Node21&#45;&gt;Node25 -->
<g id="edge25" class="edge"><title>Node21&#45;&gt;Node25</title>
<path fill="none" stroke="midnightblue" d="M487.605,-72.7338C481.488,-62.7928 471.362,-46.3377 463.64,-33.7892"/>
<polygon fill="midnightblue" stroke="midnightblue" points="466.531,-31.8095 458.309,-25.1273 460.569,-35.4783 466.531,-31.8095"/>
</g>
<!-- Node26 -->
<g id="node26" class="node"><title>Node26</title>
<g id="a_node26"><a xlink:href="Si_8hh.html" target="_top" xlink:title="boca/units/Si.hh">
<polygon fill="white" stroke="red" points="523.5,-6 523.5,-25 610.5,-25 610.5,-6 523.5,-6"/>
<text text-anchor="middle" x="567" y="-13" font-family="Helvetica,sans-Serif" font-size="10.00">boca/units/Si.hh</text>
</a>
</g>
</g>
<!-- Node21&#45;&gt;Node26 -->
<g id="edge26" class="edge"><title>Node21&#45;&gt;Node26</title>
<path fill="none" stroke="midnightblue" d="M502.98,-72.7338C514.852,-62.3055 534.885,-44.7088 549.384,-31.9732"/>
<polygon fill="midnightblue" stroke="midnightblue" points="551.975,-34.3564 557.178,-25.1273 547.355,-29.0971 551.975,-34.3564"/>
</g>
<!-- Node27 -->
<g id="node27" class="node"><title>Node27</title>
<g id="a_node27"><a xlink:href="Barn_8hh.html" target="_top" xlink:title="boca/units/Barn.hh">
<polygon fill="white" stroke="red" points="629,-6 629,-25 727,-25 727,-6 629,-6"/>
<text text-anchor="middle" x="678" y="-13" font-family="Helvetica,sans-Serif" font-size="10.00">boca/units/Barn.hh</text>
</a>
</g>
</g>
<!-- Node21&#45;&gt;Node27 -->
<g id="edge27" class="edge"><title>Node21&#45;&gt;Node27</title>
<path fill="none" stroke="midnightblue" d="M517.567,-72.8685C549.999,-61.4732 607.265,-41.3528 643.884,-28.4869"/>
<polygon fill="midnightblue" stroke="midnightblue" points="645.352,-31.6807 653.626,-25.0637 643.032,-25.0765 645.352,-31.6807"/>
</g>
<!-- Node28 -->
<g id="node28" class="node"><title>Node28</title>
<g id="a_node28"><a xlink:href="ElectronVolt_8hh.html" target="_top" xlink:title="boca/units/ElectronVolt.hh">
<polygon fill="white" stroke="red" points="745.5,-6 745.5,-25 876.5,-25 876.5,-6 745.5,-6"/>
<text text-anchor="middle" x="811" y="-13" font-family="Helvetica,sans-Serif" font-size="10.00">boca/units/ElectronVolt.hh</text>
</a>
</g>
</g>
<!-- Node21&#45;&gt;Node28 -->
<g id="edge28" class="edge"><title>Node21&#45;&gt;Node28</title>
<path fill="none" stroke="midnightblue" d="M534.9,-72.9355C592.653,-61.1306 696.659,-39.8716 759.213,-27.0853"/>
<polygon fill="midnightblue" stroke="midnightblue" points="760.164,-30.4635 769.26,-25.0317 758.762,-23.6053 760.164,-30.4635"/>
</g>
<!-- Node29&#45;&gt;Node7 -->
<g id="edge30" class="edge"><title>Node29&#45;&gt;Node7</title>
<path fill="none" stroke="midnightblue" d="M1307.73,-139.808C1310.39,-123.927 1313.75,-89.764 1299,-67 1285.49,-46.1501 1260.24,-33.129 1239.76,-25.5418"/>
<polygon fill="midnightblue" stroke="midnightblue" points="1240.76,-22.1831 1230.16,-22.2431 1238.48,-28.8031 1240.76,-22.1831"/>
</g>
<!-- Node31 -->
<g id="node31" class="node"><title>Node31</title>
<g id="a_node31"><a xlink:href="PseudoJet_8hh.html" target="_top" xlink:title="boca/fastjet/PseudoJet.hh">
<polygon fill="white" stroke="black" points="434.5,-207 434.5,-226 565.5,-226 565.5,-207 434.5,-207"/>
<text text-anchor="middle" x="500" y="-214" font-family="Helvetica,sans-Serif" font-size="10.00">boca/fastjet/PseudoJet.hh</text>
</a>
</g>
</g>
<!-- Node30&#45;&gt;Node31 -->
<g id="edge32" class="edge"><title>Node30&#45;&gt;Node31</title>
<path fill="none" stroke="midnightblue" d="M837.068,-324.456C800.402,-316.129 744.078,-302.616 696,-288 636.926,-270.041 569.464,-244.677 531.081,-229.774"/>
<polygon fill="midnightblue" stroke="midnightblue" points="532.103,-226.416 521.515,-226.042 529.559,-232.937 532.103,-226.416"/>
</g>
<!-- Node32 -->
<g id="node32" class="node"><title>Node32</title>
<g id="a_node32"><a xlink:href="JetInfo_8hh.html" target="_top" xlink:title="boca/fastjet/JetInfo.hh">
<polygon fill="white" stroke="black" points="705,-268.5 705,-287.5 819,-287.5 819,-268.5 705,-268.5"/>
<text text-anchor="middle" x="762" y="-275.5" font-family="Helvetica,sans-Serif" font-size="10.00">boca/fastjet/JetInfo.hh</text>
</a>
</g>
</g>
<!-- Node30&#45;&gt;Node32 -->
<g id="edge36" class="edge"><title>Node30&#45;&gt;Node32</title>
<path fill="none" stroke="midnightblue" d="M857.936,-324.444C839.425,-315.675 810.419,-301.935 789.145,-291.858"/>
<polygon fill="midnightblue" stroke="midnightblue" points="790.515,-288.634 779.979,-287.516 787.518,-294.96 790.515,-288.634"/>
</g>
<!-- Node31&#45;&gt;Node17 -->
<g id="edge33" class="edge"><title>Node31&#45;&gt;Node17</title>
<path fill="none" stroke="midnightblue" d="M503.776,-206.734C507.975,-196.988 514.87,-180.981 520.232,-168.532"/>
<polygon fill="midnightblue" stroke="midnightblue" points="523.542,-169.696 524.284,-159.127 517.113,-166.927 523.542,-169.696"/>
</g>
<!-- Node31&#45;&gt;Node21 -->
<g id="edge35" class="edge"><title>Node31&#45;&gt;Node21</title>
<path fill="none" stroke="midnightblue" d="M434.469,-209.77C404.814,-203.522 372.36,-190.778 354,-165 346.007,-153.778 346.094,-145.284 354,-134 364.908,-118.431 409.704,-103.977 445.534,-94.557"/>
<polygon fill="midnightblue" stroke="midnightblue" points="446.549,-97.9101 455.367,-92.0368 444.811,-91.1293 446.549,-97.9101"/>
</g>
<!-- Node31&#45;&gt;Node31 -->
<g id="edge34" class="edge"><title>Node31&#45;&gt;Node31</title>
<path fill="none" stroke="midnightblue" d="M530.831,-226.033C556.587,-230.107 583.5,-226.93 583.5,-216.5 583.5,-207.415 563.079,-203.832 540.789,-205.753"/>
<polygon fill="midnightblue" stroke="midnightblue" points="540.334,-202.282 530.831,-206.967 541.181,-209.231 540.334,-202.282"/>
</g>
<!-- Node32&#45;&gt;Node3 -->
<g id="edge38" class="edge"><title>Node32&#45;&gt;Node3</title>
<path fill="none" stroke="midnightblue" d="M819.28,-269.445C823.582,-268.936 827.858,-268.448 832,-268 1013.86,-248.333 1060.04,-250.71 1242,-232 1258.56,-230.297 1276.36,-228.298 1293.12,-226.337"/>
<polygon fill="midnightblue" stroke="midnightblue" points="1293.89,-229.771 1303.41,-225.125 1293.07,-222.819 1293.89,-229.771"/>
</g>
<!-- Node32&#45;&gt;Node31 -->
<g id="edge37" class="edge"><title>Node32&#45;&gt;Node31</title>
<path fill="none" stroke="midnightblue" d="M724.462,-268.475C677.769,-257.871 598.02,-239.76 547.223,-228.224"/>
<polygon fill="midnightblue" stroke="midnightblue" points="547.995,-224.811 537.469,-226.009 546.445,-231.637 547.995,-224.811"/>
</g>
<!-- Node33 -->
<g id="node33" class="node"><title>Node33</title>
<g id="a_node33"><a xlink:href="Identification_8hh.html" target="_top" xlink:title="boca/identification\l/Identification.hh">
<polygon fill="white" stroke="red" points="714.5,-201.5 714.5,-231.5 809.5,-231.5 809.5,-201.5 714.5,-201.5"/>
<text text-anchor="start" x="722.5" y="-219.5" font-family="Helvetica,sans-Serif" font-size="10.00">boca/identification</text>
<text text-anchor="middle" x="762" y="-208.5" font-family="Helvetica,sans-Serif" font-size="10.00">/Identification.hh</text>
</a>
</g>
</g>
<!-- Node32&#45;&gt;Node33 -->
<g id="edge39" class="edge"><title>Node32&#45;&gt;Node33</title>
<path fill="none" stroke="midnightblue" d="M762,-268.475C762,-261.471 762,-251.192 762,-241.696"/>
<polygon fill="midnightblue" stroke="midnightblue" points="765.5,-241.523 762,-231.523 758.5,-241.523 765.5,-241.523"/>
</g>
<!-- Node34 -->
<g id="node34" class="node"><title>Node34</title>
<g id="a_node34"><a xlink:href="Constituent_8hh.html" target="_top" xlink:title="boca/identification\l/Constituent.hh">
<polygon fill="white" stroke="black" points="601.5,-201.5 601.5,-231.5 696.5,-231.5 696.5,-201.5 601.5,-201.5"/>
<text text-anchor="start" x="609.5" y="-219.5" font-family="Helvetica,sans-Serif" font-size="10.00">boca/identification</text>
<text text-anchor="middle" x="649" y="-208.5" font-family="Helvetica,sans-Serif" font-size="10.00">/Constituent.hh</text>
</a>
</g>
</g>
<!-- Node32&#45;&gt;Node34 -->
<g id="edge40" class="edge"><title>Node32&#45;&gt;Node34</title>
<path fill="none" stroke="midnightblue" d="M745.81,-268.475C729.933,-260.115 705.197,-247.09 684.702,-236.299"/>
<polygon fill="midnightblue" stroke="midnightblue" points="686.111,-233.085 675.632,-231.523 682.85,-239.279 686.111,-233.085"/>
</g>
<!-- Node35 -->
<g id="node35" class="node"><title>Node35</title>
<g id="a_node35"><a xlink:href="Family_8hh.html" target="_top" xlink:title="boca/identification\l/Family.hh">
<polygon fill="white" stroke="red" points="363.5,-134.5 363.5,-164.5 458.5,-164.5 458.5,-134.5 363.5,-134.5"/>
<text text-anchor="start" x="371.5" y="-152.5" font-family="Helvetica,sans-Serif" font-size="10.00">boca/identification</text>
<text text-anchor="middle" x="411" y="-141.5" font-family="Helvetica,sans-Serif" font-size="10.00">/Family.hh</text>
</a>
</g>
</g>
<!-- Node34&#45;&gt;Node35 -->
<g id="edge41" class="edge"><title>Node34&#45;&gt;Node35</title>
<path fill="none" stroke="midnightblue" d="M601.409,-202.503C563.061,-192.029 509.013,-177.268 468.293,-166.147"/>
<polygon fill="midnightblue" stroke="midnightblue" points="469.077,-162.733 458.508,-163.475 467.233,-169.486 469.077,-162.733"/>
</g>
<!-- Node36 -->
<g id="node36" class="node"><title>Node36</title>
<polygon fill="white" stroke="#bfbfbf" points="322,-73 322,-92 418,-92 418,-73 322,-73"/>
<text text-anchor="middle" x="370" y="-80" font-family="Helvetica,sans-Serif" font-size="10.00">boost/optional.hpp</text>
</g>
<!-- Node35&#45;&gt;Node36 -->
<g id="edge42" class="edge"><title>Node35&#45;&gt;Node36</title>
<path fill="none" stroke="midnightblue" d="M402.104,-134.396C395.901,-124.562 387.584,-111.378 380.97,-100.892"/>
<polygon fill="midnightblue" stroke="midnightblue" points="383.78,-98.7853 375.484,-92.1945 377.859,-102.52 383.78,-98.7853"/>
</g>
<!-- Node37 -->
<g id="node37" class="node"><title>Node37</title>
<g id="a_node37"><a xlink:href="Id_8hh.html" target="_top" xlink:title="boca/identification\l/Id.hh">
<polygon fill="white" stroke="black" points="770.5,-67.5 770.5,-97.5 865.5,-97.5 865.5,-67.5 770.5,-67.5"/>
<text text-anchor="start" x="778.5" y="-85.5" font-family="Helvetica,sans-Serif" font-size="10.00">boca/identification</text>
<text text-anchor="middle" x="818" y="-74.5" font-family="Helvetica,sans-Serif" font-size="10.00">/Id.hh</text>
</a>
</g>
</g>
<!-- Node35&#45;&gt;Node37 -->
<g id="edge43" class="edge"><title>Node35&#45;&gt;Node37</title>
<path fill="none" stroke="midnightblue" d="M458.576,-135.8C461.419,-135.159 464.243,-134.554 467,-134 569.339,-113.454 690.08,-97.9721 759.96,-89.8586"/>
<polygon fill="midnightblue" stroke="midnightblue" points="760.776,-93.2879 770.31,-88.6676 759.976,-86.3338 760.776,-93.2879"/>
</g>
<!-- Node37&#45;&gt;Node6 -->
<g id="edge44" class="edge"><title>Node37&#45;&gt;Node6</title>
<path fill="none" stroke="midnightblue" d="M839.048,-67.396C855.314,-56.4956 877.724,-41.4787 893.983,-30.5835"/>
<polygon fill="midnightblue" stroke="midnightblue" points="895.946,-33.4814 902.305,-25.007 892.049,-27.6662 895.946,-33.4814"/>
</g>
<!-- Node37&#45;&gt;Node7 -->
<g id="edge45" class="edge"><title>Node37&#45;&gt;Node7</title>
<path fill="none" stroke="midnightblue" d="M865.822,-73.5297C946.333,-60.1112 1106.87,-33.355 1175.58,-21.9036"/>
<polygon fill="midnightblue" stroke="midnightblue" points="1176.5,-25.298 1185.79,-20.2015 1175.35,-18.3932 1176.5,-25.298"/>
</g>
<!-- Node37&#45;&gt;Node28 -->
<g id="edge46" class="edge"><title>Node37&#45;&gt;Node28</title>
<path fill="none" stroke="midnightblue" d="M816.481,-67.396C815.465,-57.9635 814.118,-45.4484 813.013,-35.1891"/>
<polygon fill="midnightblue" stroke="midnightblue" points="816.487,-34.7623 811.936,-25.1945 809.527,-35.5118 816.487,-34.7623"/>
</g>
<!-- Node38&#45;&gt;Node31 -->
<g id="edge48" class="edge"><title>Node38&#45;&gt;Node31</title>
<path fill="none" stroke="midnightblue" d="M725.899,-324.435C702.411,-315.885 665.831,-302.033 635,-288 595.348,-269.953 550.815,-245.932 524.109,-231.104"/>
<polygon fill="midnightblue" stroke="midnightblue" points="525.556,-227.903 515.119,-226.084 522.144,-234.015 525.556,-227.903"/>
</g>
<!-- Node39 -->
<g id="node39" class="node"><title>Node39</title>
<g id="a_node39"><a xlink:href="ParticleInfo_8hh.html" target="_top" xlink:title="boca/fastjet/ParticleInfo.hh">
<polygon fill="white" stroke="black" points="336,-268.5 336,-287.5 470,-287.5 470,-268.5 336,-268.5"/>
<text text-anchor="middle" x="403" y="-275.5" font-family="Helvetica,sans-Serif" font-size="10.00">boca/fastjet/ParticleInfo.hh</text>
</a>
</g>
</g>
<!-- Node38&#45;&gt;Node39 -->
<g id="edge49" class="edge"><title>Node38&#45;&gt;Node39</title>
<path fill="none" stroke="midnightblue" d="M695.017,-324.444C633.341,-314.846 533.392,-299.292 467.926,-289.104"/>
<polygon fill="midnightblue" stroke="midnightblue" points="468.145,-285.596 457.726,-287.516 467.069,-292.513 468.145,-285.596"/>
</g>
<!-- Node39&#45;&gt;Node31 -->
<g id="edge50" class="edge"><title>Node39&#45;&gt;Node31</title>
<path fill="none" stroke="midnightblue" d="M416.898,-268.475C432.672,-258.799 458.637,-242.872 477.349,-231.394"/>
<polygon fill="midnightblue" stroke="midnightblue" points="479.434,-234.221 486.128,-226.009 475.774,-228.254 479.434,-234.221"/>
</g>
<!-- Node39&#45;&gt;Node35 -->
<g id="edge51" class="edge"><title>Node39&#45;&gt;Node35</title>
<path fill="none" stroke="midnightblue" d="M403.55,-268.305C404.752,-249.298 407.65,-203.47 409.457,-174.9"/>
<polygon fill="midnightblue" stroke="midnightblue" points="412.952,-175.089 410.09,-164.888 405.966,-174.647 412.952,-175.089"/>
</g>
<!-- Node40&#45;&gt;Node30 -->
<g id="edge53" class="edge"><title>Node40&#45;&gt;Node30</title>
<path fill="none" stroke="midnightblue" d="M817.247,-380.324C827.797,-372.185 843.801,-359.839 856.442,-350.087"/>
<polygon fill="midnightblue" stroke="midnightblue" points="858.769,-352.713 864.549,-343.834 854.493,-347.171 858.769,-352.713"/>
</g>
<!-- Node41&#45;&gt;Node31 -->
<g id="edge55" class="edge"><title>Node41&#45;&gt;Node31</title>
<path fill="none" stroke="midnightblue" d="M567.816,-380.466C549.492,-373.655 527.33,-362.177 515,-344 492.831,-311.316 494.291,-262.677 497.203,-236.246"/>
<polygon fill="midnightblue" stroke="midnightblue" points="500.704,-236.461 498.519,-226.094 493.762,-235.561 500.704,-236.461"/>
</g>
<!-- Node42 -->
<g id="node42" class="node"><title>Node42</title>
<g id="a_node42"><a xlink:href="NSubJettiness_8hh.html" target="_top" xlink:title="boca/fastjet/NSubJettiness.hh">
<polygon fill="white" stroke="black" points="524.5,-324.5 524.5,-343.5 673.5,-343.5 673.5,-324.5 524.5,-324.5"/>
<text text-anchor="middle" x="599" y="-331.5" font-family="Helvetica,sans-Serif" font-size="10.00">boca/fastjet/NSubJettiness.hh</text>
</a>
</g>
</g>
<!-- Node41&#45;&gt;Node42 -->
<g id="edge56" class="edge"><title>Node41&#45;&gt;Node42</title>
<path fill="none" stroke="midnightblue" d="M598.165,-380.083C598.296,-373.006 598.484,-362.861 598.648,-353.986"/>
<polygon fill="midnightblue" stroke="midnightblue" points="602.152,-353.814 598.838,-343.751 595.153,-353.685 602.152,-353.814"/>
</g>
<!-- Node43&#45;&gt;Node30 -->
<g id="edge65" class="edge"><title>Node43&#45;&gt;Node30</title>
<path fill="none" stroke="midnightblue" d="M1072.08,-380.444C1031.6,-371.063 966.579,-355.993 922.616,-345.804"/>
<polygon fill="midnightblue" stroke="midnightblue" points="923.279,-342.365 912.747,-343.516 921.698,-349.184 923.279,-342.365"/>
</g>
<!-- Node44 -->
<g id="node44" class="node"><title>Node44</title>
<g id="a_node44"><a xlink:href="Matrix3_8hh.html" target="_top" xlink:title="boca/math/Matrix3.hh">
<polygon fill="white" stroke="black" points="1196.5,-324.5 1196.5,-343.5 1307.5,-343.5 1307.5,-324.5 1196.5,-324.5"/>
<text text-anchor="middle" x="1252" y="-331.5" font-family="Helvetica,sans-Serif" font-size="10.00">boca/math/Matrix3.hh</text>
</a>
</g>
</g>
<!-- Node43&#45;&gt;Node44 -->
<g id="edge58" class="edge"><title>Node43&#45;&gt;Node44</title>
<path fill="none" stroke="midnightblue" d="M1131.66,-380.444C1155.4,-371.478 1192.91,-357.314 1219.74,-347.183"/>
<polygon fill="midnightblue" stroke="midnightblue" points="1221.33,-350.324 1229.45,-343.516 1218.86,-343.775 1221.33,-350.324"/>
</g>
<!-- Node49 -->
<g id="node49" class="node"><title>Node49</title>
<g id="a_node49"><a xlink:href="HemisphereMasses_8hh.html" target="_top" xlink:title="boca/HemisphereMasses.hh">
<polygon fill="white" stroke="black" points="1037.5,-324.5 1037.5,-343.5 1178.5,-343.5 1178.5,-324.5 1037.5,-324.5"/>
<text text-anchor="middle" x="1108" y="-331.5" font-family="Helvetica,sans-Serif" font-size="10.00">boca/HemisphereMasses.hh</text>
</a>
</g>
</g>
<!-- Node43&#45;&gt;Node49 -->
<g id="edge66" class="edge"><title>Node43&#45;&gt;Node49</title>
<path fill="none" stroke="midnightblue" d="M1108.83,-380.083C1108.7,-373.006 1108.52,-362.861 1108.35,-353.986"/>
<polygon fill="midnightblue" stroke="midnightblue" points="1111.85,-353.685 1108.16,-343.751 1104.85,-353.814 1111.85,-353.685"/>
</g>
<!-- Node45 -->
<g id="node45" class="node"><title>Node45</title>
<polygon fill="white" stroke="#bfbfbf" points="1037,-268.5 1037,-287.5 1161,-287.5 1161,-268.5 1037,-268.5"/>
<text text-anchor="middle" x="1099" y="-275.5" font-family="Helvetica,sans-Serif" font-size="10.00">boost/range/numeric.hpp</text>
</g>
<!-- Node44&#45;&gt;Node45 -->
<g id="edge59" class="edge"><title>Node44&#45;&gt;Node45</title>
<path fill="none" stroke="midnightblue" d="M1227.76,-324.444C1202.13,-315.399 1161.51,-301.064 1132.76,-290.916"/>
<polygon fill="midnightblue" stroke="midnightblue" points="1133.72,-287.544 1123.13,-287.516 1131.39,-294.145 1133.72,-287.544"/>
</g>
<!-- Node46 -->
<g id="node46" class="node"><title>Node46</title>
<polygon fill="white" stroke="#bfbfbf" points="1179,-268.5 1179,-287.5 1257,-287.5 1257,-268.5 1179,-268.5"/>
<text text-anchor="middle" x="1218" y="-275.5" font-family="Helvetica,sans-Serif" font-size="10.00">TQuaternion.h</text>
</g>
<!-- Node44&#45;&gt;Node46 -->
<g id="edge60" class="edge"><title>Node44&#45;&gt;Node46</title>
<path fill="none" stroke="midnightblue" d="M1246.39,-324.083C1241.63,-316.534 1234.68,-305.495 1228.85,-296.23"/>
<polygon fill="midnightblue" stroke="midnightblue" points="1231.8,-294.349 1223.51,-287.751 1225.88,-298.078 1231.8,-294.349"/>
</g>
<!-- Node47 -->
<g id="node47" class="node"><title>Node47</title>
<g id="a_node47"><a xlink:href="GradedVector3_8hh.html" target="_top" xlink:title="boca/math/GradedVector3.hh">
<polygon fill="white" stroke="red" points="1275,-268.5 1275,-287.5 1419,-287.5 1419,-268.5 1275,-268.5"/>
<text text-anchor="middle" x="1347" y="-275.5" font-family="Helvetica,sans-Serif" font-size="10.00">boca/math/GradedVector3.hh</text>
</a>
</g>
</g>
<!-- Node44&#45;&gt;Node47 -->
<g id="edge61" class="edge"><title>Node44&#45;&gt;Node47</title>
<path fill="none" stroke="midnightblue" d="M1267.26,-324.324C1282.22,-315.822 1305.25,-302.729 1322.73,-292.797"/>
<polygon fill="midnightblue" stroke="midnightblue" points="1324.81,-295.639 1331.77,-287.655 1321.35,-289.553 1324.81,-295.639"/>
</g>
<!-- Node48 -->
<g id="node48" class="node"><title>Node48</title>
<g id="a_node48"><a xlink:href="Matrix2_8hh.html" target="_top" xlink:title="boca/math/Matrix2.hh">
<polygon fill="white" stroke="red" points="1437.5,-268.5 1437.5,-287.5 1548.5,-287.5 1548.5,-268.5 1437.5,-268.5"/>
<text text-anchor="middle" x="1493" y="-275.5" font-family="Helvetica,sans-Serif" font-size="10.00">boca/math/Matrix2.hh</text>
</a>
</g>
</g>
<!-- Node44&#45;&gt;Node48 -->
<g id="edge62" class="edge"><title>Node44&#45;&gt;Node48</title>
<path fill="none" stroke="midnightblue" d="M1290.19,-324.444C1332.14,-315.043 1399.59,-299.929 1445.07,-289.739"/>
<polygon fill="midnightblue" stroke="midnightblue" points="1446,-293.118 1454.99,-287.516 1444.47,-286.288 1446,-293.118"/>
</g>
<!-- Node48&#45;&gt;Node3 -->
<g id="edge64" class="edge"><title>Node48&#45;&gt;Node3</title>
<path fill="none" stroke="midnightblue" d="M1474.66,-268.475C1453.18,-258.49 1417.38,-241.848 1392.55,-230.307"/>
<polygon fill="midnightblue" stroke="midnightblue" points="1393.85,-227.051 1383.31,-226.009 1390.9,-233.398 1393.85,-227.051"/>
</g>
<!-- Node48&#45;&gt;Node12 -->
<g id="edge63" class="edge"><title>Node48&#45;&gt;Node12</title>
<path fill="none" stroke="midnightblue" d="M1491.76,-268.305C1488.87,-247.994 1481.62,-197.053 1477.67,-169.277"/>
<polygon fill="midnightblue" stroke="midnightblue" points="1481.12,-168.663 1476.25,-159.256 1474.19,-169.649 1481.12,-168.663"/>
</g>
<!-- Node50 -->
<g id="node50" class="node"><title>Node50</title>
<g id="a_node50"><a xlink:href="Range_8hh.html" target="_top" xlink:title="boca/math/Range.hh">
<polygon fill="white" stroke="red" points="1126.5,-207 1126.5,-226 1233.5,-226 1233.5,-207 1126.5,-207"/>
<text text-anchor="middle" x="1180" y="-214" font-family="Helvetica,sans-Serif" font-size="10.00">boca/math/Range.hh</text>
</a>
</g>
</g>
<!-- Node49&#45;&gt;Node50 -->
<g id="edge67" class="edge"><title>Node49&#45;&gt;Node50</title>
<path fill="none" stroke="midnightblue" d="M1081.48,-324.468C1051.8,-313.481 1010.09,-292.816 1028,-268 1048.11,-240.123 1084.25,-227.393 1116.24,-221.682"/>
<polygon fill="midnightblue" stroke="midnightblue" points="1117.12,-225.086 1126.45,-220.065 1116.03,-218.172 1117.12,-225.086"/>
</g>
<!-- Node50&#45;&gt;Node10 -->
<g id="edge68" class="edge"><title>Node50&#45;&gt;Node10</title>
<path fill="none" stroke="midnightblue" d="M1185.45,-206.839C1198.99,-185.299 1234.39,-129 1252.3,-100.522"/>
<polygon fill="midnightblue" stroke="midnightblue" points="1255.28,-102.35 1257.64,-92.0212 1249.36,-98.6237 1255.28,-102.35"/>
</g>
<!-- Node50&#45;&gt;Node20 -->
<g id="edge69" class="edge"><title>Node50&#45;&gt;Node20</title>
<path fill="none" stroke="midnightblue" d="M1157.82,-206.869C1128.8,-195.571 1077.73,-175.696 1044.65,-162.818"/>
<polygon fill="midnightblue" stroke="midnightblue" points="1045.59,-159.429 1035,-159.064 1043.05,-165.953 1045.59,-159.429"/>
</g>
<!-- Node50&#45;&gt;Node29 -->
<g id="edge70" class="edge"><title>Node50&#45;&gt;Node29</title>
<path fill="none" stroke="midnightblue" d="M1196.73,-206.869C1218.1,-195.845 1255.3,-176.655 1280.28,-163.768"/>
<polygon fill="midnightblue" stroke="midnightblue" points="1281.92,-166.862 1289.2,-159.167 1278.71,-160.641 1281.92,-166.862"/>
</g>
</g>
</svg>
