<?xml version="1.0" encoding="UTF-8" standalone="no"?>
<!DOCTYPE svg PUBLIC "-//W3C//DTD SVG 1.1//EN"
 "http://www.w3.org/Graphics/SVG/1.1/DTD/svg11.dtd">
<!-- Generated by graphviz version 2.38.0 (20140413.2041)
 -->
<!-- Title: examples/toppartner/toppartner/tagger/NewPartnerLeptonic.hh Pages: 1 -->
<svg width="541pt" height="273pt"
 viewBox="0.00 0.00 540.50 273.00" xmlns="http://www.w3.org/2000/svg" xmlns:xlink="http://www.w3.org/1999/xlink">
<g id="graph0" class="graph" transform="scale(1 1) rotate(0) translate(4 269)">
<title>examples/toppartner/toppartner/tagger/NewPartnerLeptonic.hh</title>
<polygon fill="white" stroke="none" points="-4,4 -4,-269 536.5,-269 536.5,4 -4,4"/>
<!-- Node1 -->
<g id="node1" class="node"><title>Node1</title>
<polygon fill="#bfbfbf" stroke="black" points="113.5,-223.5 113.5,-264.5 261.5,-264.5 261.5,-223.5 113.5,-223.5"/>
<text text-anchor="start" x="121.5" y="-252.5" font-family="Helvetica,sans-Serif" font-size="10.00">examples/toppartner</text>
<text text-anchor="start" x="121.5" y="-241.5" font-family="Helvetica,sans-Serif" font-size="10.00">/toppartner/tagger/NewPartner</text>
<text text-anchor="middle" x="187.5" y="-230.5" font-family="Helvetica,sans-Serif" font-size="10.00">Leptonic.hh</text>
</g>
<!-- Node2 -->
<g id="node2" class="node"><title>Node2</title>
<g id="a_node2"><a xlink:href="NewPartnerLeptonic_8cpp.html" target="_top" xlink:title="examples/toppartner\l/source/tagger/NewPartnerLeptonic.cpp">
<polygon fill="white" stroke="black" points="0,-151 0,-181 189,-181 189,-151 0,-151"/>
<text text-anchor="start" x="8" y="-169" font-family="Helvetica,sans-Serif" font-size="10.00">examples/toppartner</text>
<text text-anchor="middle" x="94.5" y="-158" font-family="Helvetica,sans-Serif" font-size="10.00">/source/tagger/NewPartnerLeptonic.cpp</text>
</a>
</g>
</g>
<!-- Node1&#45;&gt;Node2 -->
<g id="edge1" class="edge"><title>Node1&#45;&gt;Node2</title>
<path fill="none" stroke="midnightblue" d="M155.674,-216.992C141.019,-205.015 124.197,-191.269 111.907,-181.225"/>
<polygon fill="midnightblue" stroke="midnightblue" points="153.592,-219.81 163.55,-223.428 158.022,-214.39 153.592,-219.81"/>
</g>
<!-- Node3 -->
<g id="node3" class="node"><title>Node3</title>
<g id="a_node3"><a xlink:href="NewPartnerPair_8hh.html" target="_top" xlink:title="examples/toppartner\l/toppartner/tagger/NewPartner\lPair.hh">
<polygon fill="white" stroke="black" points="207.5,-145.5 207.5,-186.5 355.5,-186.5 355.5,-145.5 207.5,-145.5"/>
<text text-anchor="start" x="215.5" y="-174.5" font-family="Helvetica,sans-Serif" font-size="10.00">examples/toppartner</text>
<text text-anchor="start" x="215.5" y="-163.5" font-family="Helvetica,sans-Serif" font-size="10.00">/toppartner/tagger/NewPartner</text>
<text text-anchor="middle" x="281.5" y="-152.5" font-family="Helvetica,sans-Serif" font-size="10.00">Pair.hh</text>
</a>
</g>
</g>
<!-- Node1&#45;&gt;Node3 -->
<g id="edge2" class="edge"><title>Node1&#45;&gt;Node3</title>
<path fill="none" stroke="midnightblue" d="M219.578,-217.065C231.955,-207.057 245.873,-195.804 257.375,-186.506"/>
<polygon fill="midnightblue" stroke="midnightblue" points="217.283,-214.419 211.707,-223.428 221.684,-219.863 217.283,-214.419"/>
</g>
<!-- Node4 -->
<g id="node4" class="node"><title>Node4</title>
<g id="a_node4"><a xlink:href="NewPartnerPair_8cpp.html" target="_top" xlink:title="examples/toppartner\l/source/tagger/NewPartnerPair.cpp">
<polygon fill="white" stroke="black" points="109.5,-73 109.5,-103 279.5,-103 279.5,-73 109.5,-73"/>
<text text-anchor="start" x="117.5" y="-91" font-family="Helvetica,sans-Serif" font-size="10.00">examples/toppartner</text>
<text text-anchor="middle" x="194.5" y="-80" font-family="Helvetica,sans-Serif" font-size="10.00">/source/tagger/NewPartnerPair.cpp</text>
</a>
</g>
</g>
<!-- Node3&#45;&gt;Node4 -->
<g id="edge3" class="edge"><title>Node3&#45;&gt;Node4</title>
<path fill="none" stroke="midnightblue" d="M251.346,-138.658C237.727,-126.761 222.175,-113.176 210.784,-103.225"/>
<polygon fill="midnightblue" stroke="midnightblue" points="249.262,-141.485 259.095,-145.428 253.867,-136.213 249.262,-141.485"/>
</g>
<!-- Node5 -->
<g id="node5" class="node"><title>Node5</title>
<g id="a_node5"><a xlink:href="EventNewPair_8hh.html" target="_top" xlink:title="examples/toppartner\l/toppartner/tagger/EventNew\lPair.hh">
<polygon fill="white" stroke="black" points="297.5,-67.5 297.5,-108.5 439.5,-108.5 439.5,-67.5 297.5,-67.5"/>
<text text-anchor="start" x="305.5" y="-96.5" font-family="Helvetica,sans-Serif" font-size="10.00">examples/toppartner</text>
<text text-anchor="start" x="305.5" y="-85.5" font-family="Helvetica,sans-Serif" font-size="10.00">/toppartner/tagger/EventNew</text>
<text text-anchor="middle" x="368.5" y="-74.5" font-family="Helvetica,sans-Serif" font-size="10.00">Pair.hh</text>
</a>
</g>
</g>
<!-- Node3&#45;&gt;Node5 -->
<g id="edge4" class="edge"><title>Node3&#45;&gt;Node5</title>
<path fill="none" stroke="midnightblue" d="M311.517,-138.779C322.89,-128.843 335.628,-117.716 346.171,-108.506"/>
<polygon fill="midnightblue" stroke="midnightblue" points="309.133,-136.213 303.905,-145.428 313.738,-141.485 309.133,-136.213"/>
</g>
<!-- Node6 -->
<g id="node6" class="node"><title>Node6</title>
<g id="a_node6"><a xlink:href="MainNewPair_8cpp.html" target="_top" xlink:title="examples/toppartner\l/source/MainNewPair.cpp">
<polygon fill="white" stroke="black" points="221,-0.5 221,-30.5 350,-30.5 350,-0.5 221,-0.5"/>
<text text-anchor="start" x="229" y="-18.5" font-family="Helvetica,sans-Serif" font-size="10.00">examples/toppartner</text>
<text text-anchor="middle" x="285.5" y="-7.5" font-family="Helvetica,sans-Serif" font-size="10.00">/source/MainNewPair.cpp</text>
</a>
</g>
</g>
<!-- Node5&#45;&gt;Node6 -->
<g id="edge5" class="edge"><title>Node5&#45;&gt;Node6</title>
<path fill="none" stroke="midnightblue" d="M337.706,-60.8437C325.675,-50.6249 312.356,-39.3117 302.182,-30.67"/>
<polygon fill="midnightblue" stroke="midnightblue" points="335.492,-63.5556 345.38,-67.3618 340.024,-58.2204 335.492,-63.5556"/>
</g>
<!-- Node7 -->
<g id="node7" class="node"><title>Node7</title>
<g id="a_node7"><a xlink:href="EventNewPair_8cpp.html" target="_top" xlink:title="examples/toppartner\l/source/tagger/EventNewPair.cpp">
<polygon fill="white" stroke="black" points="368.5,-0.5 368.5,-30.5 532.5,-30.5 532.5,-0.5 368.5,-0.5"/>
<text text-anchor="start" x="376.5" y="-18.5" font-family="Helvetica,sans-Serif" font-size="10.00">examples/toppartner</text>
<text text-anchor="middle" x="450.5" y="-7.5" font-family="Helvetica,sans-Serif" font-size="10.00">/source/tagger/EventNewPair.cpp</text>
</a>
</g>
</g>
<!-- Node5&#45;&gt;Node7 -->
<g id="edge6" class="edge"><title>Node5&#45;&gt;Node7</title>
<path fill="none" stroke="midnightblue" d="M399.263,-60.5514C411.059,-50.4096 424.063,-39.2294 434.019,-30.67"/>
<polygon fill="midnightblue" stroke="midnightblue" points="396.643,-58.1885 391.342,-67.3618 401.206,-63.4964 396.643,-58.1885"/>
</g>
</g>
</svg>
