<?xml version="1.0" encoding="UTF-8" standalone="no"?>
<!DOCTYPE svg PUBLIC "-//W3C//DTD SVG 1.1//EN"
 "http://www.w3.org/Graphics/SVG/1.1/DTD/svg11.dtd">
<!-- Generated by graphviz version 2.38.0 (20140413.2041)
 -->
<!-- Title: source/multivariant/Phase.cpp Pages: 1 -->
<svg width="676pt" height="229pt"
 viewBox="0.00 0.00 675.55 229.00" xmlns="http://www.w3.org/2000/svg" xmlns:xlink="http://www.w3.org/1999/xlink">
<g id="graph0" class="graph" transform="scale(1 1) rotate(0) translate(4 225)">
<title>source/multivariant/Phase.cpp</title>
<polygon fill="white" stroke="none" points="-4,4 -4,-225 671.552,-225 671.552,4 -4,4"/>
<!-- Node1 -->
<g id="node1" class="node"><title>Node1</title>
<polygon fill="#bfbfbf" stroke="black" points="188.552,-190.5 188.552,-220.5 287.552,-220.5 287.552,-190.5 188.552,-190.5"/>
<text text-anchor="start" x="196.552" y="-208.5" font-family="Helvetica,sans-Serif" font-size="10.00">source/multivariant</text>
<text text-anchor="middle" x="238.052" y="-197.5" font-family="Helvetica,sans-Serif" font-size="10.00">/Phase.cpp</text>
</g>
<!-- Node2 -->
<g id="node2" class="node"><title>Node2</title>
<g id="a_node2"><a xlink:href="Types_8hh.html" target="_top" xlink:title="boca/generic/Types.hh">
<polygon fill="white" stroke="black" points="14.0525,-129 14.0525,-148 130.052,-148 130.052,-129 14.0525,-129"/>
<text text-anchor="middle" x="72.0525" y="-136" font-family="Helvetica,sans-Serif" font-size="10.00">boca/generic/Types.hh</text>
</a>
</g>
</g>
<!-- Node1&#45;&gt;Node2 -->
<g id="edge1" class="edge"><title>Node1&#45;&gt;Node2</title>
<path fill="none" stroke="midnightblue" d="M202.033,-190.396C172.52,-178.84 131.19,-162.656 103.115,-151.663"/>
<polygon fill="midnightblue" stroke="midnightblue" points="104.366,-148.394 93.778,-148.007 101.813,-154.912 104.366,-148.394"/>
</g>
<!-- Node5 -->
<g id="node5" class="node"><title>Node5</title>
<g id="a_node5"><a xlink:href="Phase_8hh.html" target="_top" xlink:title="boca/multivariant/Phase.hh">
<polygon fill="white" stroke="black" points="170.552,-129 170.552,-148 305.552,-148 305.552,-129 170.552,-129"/>
<text text-anchor="middle" x="238.052" y="-136" font-family="Helvetica,sans-Serif" font-size="10.00">boca/multivariant/Phase.hh</text>
</a>
</g>
</g>
<!-- Node1&#45;&gt;Node5 -->
<g id="edge4" class="edge"><title>Node1&#45;&gt;Node5</title>
<path fill="none" stroke="midnightblue" d="M238.052,-190.396C238.052,-181.064 238.052,-168.714 238.052,-158.517"/>
<polygon fill="midnightblue" stroke="midnightblue" points="241.553,-158.195 238.052,-148.195 234.553,-158.195 241.553,-158.195"/>
</g>
<!-- Node8 -->
<g id="node8" class="node"><title>Node8</title>
<g id="a_node8"><a xlink:href="DEBUG__MACROS_8hh.html" target="_top" xlink:title="boca/generic/DEBUG\l_MACROS.hh">
<polygon fill="white" stroke="black" points="368.552,-123.5 368.552,-153.5 479.552,-153.5 479.552,-123.5 368.552,-123.5"/>
<text text-anchor="start" x="376.552" y="-141.5" font-family="Helvetica,sans-Serif" font-size="10.00">boca/generic/DEBUG</text>
<text text-anchor="middle" x="424.052" y="-130.5" font-family="Helvetica,sans-Serif" font-size="10.00">_MACROS.hh</text>
</a>
</g>
</g>
<!-- Node1&#45;&gt;Node8 -->
<g id="edge9" class="edge"><title>Node1&#45;&gt;Node8</title>
<path fill="none" stroke="midnightblue" d="M278.412,-190.396C306.563,-180.558 344.311,-167.367 374.322,-156.879"/>
<polygon fill="midnightblue" stroke="midnightblue" points="375.487,-160.18 383.772,-153.577 373.177,-153.571 375.487,-160.18"/>
</g>
<!-- Node3 -->
<g id="node3" class="node"><title>Node3</title>
<polygon fill="white" stroke="#bfbfbf" points="196.552,-6 196.552,-25 237.552,-25 237.552,-6 196.552,-6"/>
<text text-anchor="middle" x="217.052" y="-13" font-family="Helvetica,sans-Serif" font-size="10.00">string</text>
</g>
<!-- Node2&#45;&gt;Node3 -->
<g id="edge2" class="edge"><title>Node2&#45;&gt;Node3</title>
<path fill="none" stroke="midnightblue" d="M52.8628,-128.855C26.9915,-116.016 -13.785,-90.8517 5.05247,-67 27.2652,-38.8745 132.703,-24.7203 186.023,-19.2619"/>
<polygon fill="midnightblue" stroke="midnightblue" points="186.647,-22.7175 196.256,-18.2558 185.962,-15.7511 186.647,-22.7175"/>
</g>
<!-- Node4 -->
<g id="node4" class="node"><title>Node4</title>
<polygon fill="white" stroke="#bfbfbf" points="14.0525,-67.5 14.0525,-86.5 130.052,-86.5 130.052,-67.5 14.0525,-67.5"/>
<text text-anchor="middle" x="72.0525" y="-74.5" font-family="Helvetica,sans-Serif" font-size="10.00">boost/range/irange.hpp</text>
</g>
<!-- Node2&#45;&gt;Node4 -->
<g id="edge3" class="edge"><title>Node2&#45;&gt;Node4</title>
<path fill="none" stroke="midnightblue" d="M72.0525,-128.975C72.0525,-120.58 72.0525,-107.481 72.0525,-96.6631"/>
<polygon fill="midnightblue" stroke="midnightblue" points="75.5526,-96.5091 72.0525,-86.5091 68.5526,-96.5091 75.5526,-96.5091"/>
</g>
<!-- Node6 -->
<g id="node6" class="node"><title>Node6</title>
<g id="a_node6"><a xlink:href="Tag_8hh.html" target="_top" xlink:title="boca/Tag.hh">
<polygon fill="white" stroke="black" points="148.552,-67.5 148.552,-86.5 219.552,-86.5 219.552,-67.5 148.552,-67.5"/>
<text text-anchor="middle" x="184.052" y="-74.5" font-family="Helvetica,sans-Serif" font-size="10.00">boca/Tag.hh</text>
</a>
</g>
</g>
<!-- Node5&#45;&gt;Node6 -->
<g id="edge5" class="edge"><title>Node5&#45;&gt;Node6</title>
<path fill="none" stroke="midnightblue" d="M230.316,-128.975C222.055,-119.873 208.775,-105.241 198.558,-93.983"/>
<polygon fill="midnightblue" stroke="midnightblue" points="201.087,-91.5619 191.775,-86.5091 195.904,-96.2663 201.087,-91.5619"/>
</g>
<!-- Node7 -->
<g id="node7" class="node"><title>Node7</title>
<g id="a_node7"><a xlink:href="Stage_8hh.html" target="_top" xlink:title="boca/multivariant/Stage.hh">
<polygon fill="white" stroke="black" points="237.552,-67.5 237.552,-86.5 370.552,-86.5 370.552,-67.5 237.552,-67.5"/>
<text text-anchor="middle" x="304.052" y="-74.5" font-family="Helvetica,sans-Serif" font-size="10.00">boca/multivariant/Stage.hh</text>
</a>
</g>
</g>
<!-- Node5&#45;&gt;Node7 -->
<g id="edge7" class="edge"><title>Node5&#45;&gt;Node7</title>
<path fill="none" stroke="midnightblue" d="M247.509,-128.975C257.801,-119.697 274.468,-104.671 287.047,-93.331"/>
<polygon fill="midnightblue" stroke="midnightblue" points="289.53,-95.8046 294.614,-86.5091 284.843,-90.6054 289.53,-95.8046"/>
</g>
<!-- Node6&#45;&gt;Node3 -->
<g id="edge6" class="edge"><title>Node6&#45;&gt;Node3</title>
<path fill="none" stroke="midnightblue" d="M188.781,-67.4751C193.633,-58.7268 201.318,-44.8691 207.452,-33.8093"/>
<polygon fill="midnightblue" stroke="midnightblue" points="210.544,-35.4517 212.333,-25.0091 204.422,-32.0566 210.544,-35.4517"/>
</g>
<!-- Node7&#45;&gt;Node3 -->
<g id="edge8" class="edge"><title>Node7&#45;&gt;Node3</title>
<path fill="none" stroke="midnightblue" d="M291.587,-67.4751C277.633,-57.9315 254.788,-42.3073 238.062,-30.8683"/>
<polygon fill="midnightblue" stroke="midnightblue" points="239.724,-27.7653 229.494,-25.0091 235.773,-33.5433 239.724,-27.7653"/>
</g>
<!-- Node9 -->
<g id="node9" class="node"><title>Node9</title>
<g id="a_node9"><a xlink:href="Debug_8hh.html" target="_top" xlink:title="boca/generic/Debug.hh">
<polygon fill="white" stroke="black" points="388.552,-67.5 388.552,-86.5 505.552,-86.5 505.552,-67.5 388.552,-67.5"/>
<text text-anchor="middle" x="447.052" y="-74.5" font-family="Helvetica,sans-Serif" font-size="10.00">boca/generic/Debug.hh</text>
</a>
</g>
</g>
<!-- Node8&#45;&gt;Node9 -->
<g id="edge10" class="edge"><title>Node8&#45;&gt;Node9</title>
<path fill="none" stroke="midnightblue" d="M429.503,-123.399C432.673,-115.199 436.7,-104.781 440.097,-95.9936"/>
<polygon fill="midnightblue" stroke="midnightblue" points="443.365,-97.2471 443.706,-86.6578 436.836,-94.7232 443.365,-97.2471"/>
</g>
<!-- Node9&#45;&gt;Node3 -->
<g id="edge11" class="edge"><title>Node9&#45;&gt;Node3</title>
<path fill="none" stroke="midnightblue" d="M414.099,-67.4751C369.576,-55.957 290.816,-35.5822 247.578,-24.3969"/>
<polygon fill="midnightblue" stroke="midnightblue" points="248.205,-20.9438 237.647,-21.8277 246.452,-27.7207 248.205,-20.9438"/>
</g>
<!-- Node10 -->
<g id="node10" class="node"><title>Node10</title>
<polygon fill="white" stroke="#bfbfbf" points="290.052,-6 290.052,-25 334.052,-25 334.052,-6 290.052,-6"/>
<text text-anchor="middle" x="312.052" y="-13" font-family="Helvetica,sans-Serif" font-size="10.00">vector</text>
</g>
<!-- Node9&#45;&gt;Node10 -->
<g id="edge12" class="edge"><title>Node9&#45;&gt;Node10</title>
<path fill="none" stroke="midnightblue" d="M426.649,-67.3792C405.624,-58.4472 371.936,-44.0003 343.052,-31 341.864,-30.465 340.651,-29.9152 339.428,-29.3571"/>
<polygon fill="midnightblue" stroke="midnightblue" points="340.589,-26.0384 330.043,-25.0231 337.654,-32.3934 340.589,-26.0384"/>
</g>
<!-- Node11 -->
<g id="node11" class="node"><title>Node11</title>
<polygon fill="white" stroke="#bfbfbf" points="352.052,-6 352.052,-25 404.052,-25 404.052,-6 352.052,-6"/>
<text text-anchor="middle" x="378.052" y="-13" font-family="Helvetica,sans-Serif" font-size="10.00">sstream</text>
</g>
<!-- Node9&#45;&gt;Node11 -->
<g id="edge13" class="edge"><title>Node9&#45;&gt;Node11</title>
<path fill="none" stroke="midnightblue" d="M437.166,-67.4751C426.407,-58.1966 408.981,-43.1706 395.831,-31.831"/>
<polygon fill="midnightblue" stroke="midnightblue" points="397.779,-28.889 387.92,-25.0091 393.208,-34.1902 397.779,-28.889"/>
</g>
<!-- Node12 -->
<g id="node12" class="node"><title>Node12</title>
<polygon fill="white" stroke="#bfbfbf" points="422.052,-6 422.052,-25 472.052,-25 472.052,-6 422.052,-6"/>
<text text-anchor="middle" x="447.052" y="-13" font-family="Helvetica,sans-Serif" font-size="10.00">iomanip</text>
</g>
<!-- Node9&#45;&gt;Node12 -->
<g id="edge14" class="edge"><title>Node9&#45;&gt;Node12</title>
<path fill="none" stroke="midnightblue" d="M447.052,-67.4751C447.052,-59.0803 447.052,-45.9806 447.052,-35.1631"/>
<polygon fill="midnightblue" stroke="midnightblue" points="450.553,-35.0091 447.052,-25.0091 443.553,-35.0091 450.553,-35.0091"/>
</g>
<!-- Node13 -->
<g id="node13" class="node"><title>Node13</title>
<polygon fill="white" stroke="#bfbfbf" points="490.052,-6 490.052,-25 544.052,-25 544.052,-6 490.052,-6"/>
<text text-anchor="middle" x="517.052" y="-13" font-family="Helvetica,sans-Serif" font-size="10.00">iostream</text>
</g>
<!-- Node9&#45;&gt;Node13 -->
<g id="edge15" class="edge"><title>Node9&#45;&gt;Node13</title>
<path fill="none" stroke="midnightblue" d="M457.082,-67.4751C468.102,-58.1082 486.013,-42.8839 499.396,-31.5081"/>
<polygon fill="midnightblue" stroke="midnightblue" points="501.689,-34.1524 507.042,-25.0091 497.156,-28.8188 501.689,-34.1524"/>
</g>
<!-- Node14 -->
<g id="node14" class="node"><title>Node14</title>
<polygon fill="white" stroke="#bfbfbf" points="562.552,-0.5 562.552,-30.5 667.552,-30.5 667.552,-0.5 562.552,-0.5"/>
<text text-anchor="start" x="570.552" y="-18.5" font-family="Helvetica,sans-Serif" font-size="10.00">boost/units/systems</text>
<text text-anchor="middle" x="615.052" y="-7.5" font-family="Helvetica,sans-Serif" font-size="10.00">/si/io.hpp</text>
</g>
<!-- Node9&#45;&gt;Node14 -->
<g id="edge16" class="edge"><title>Node9&#45;&gt;Node14</title>
<path fill="none" stroke="midnightblue" d="M471.123,-67.4751C495.684,-58.7765 534.507,-45.0264 565.646,-33.9981"/>
<polygon fill="midnightblue" stroke="midnightblue" points="567.2,-37.1607 575.458,-30.523 564.863,-30.5623 567.2,-37.1607"/>
</g>
</g>
</svg>
