<?xml version="1.0" encoding="UTF-8" standalone="no"?>
<!DOCTYPE svg PUBLIC "-//W3C//DTD SVG 1.1//EN"
 "http://www.w3.org/Graphics/SVG/1.1/DTD/svg11.dtd">
<!-- Generated by graphviz version 2.38.0 (20140413.2041)
 -->
<!-- Title: source/plotting/Plot.cpp Pages: 1 -->
<svg width="1688pt" height="475pt"
 viewBox="0.00 0.00 1687.50 475.00" xmlns="http://www.w3.org/2000/svg" xmlns:xlink="http://www.w3.org/1999/xlink">
<g id="graph0" class="graph" transform="scale(1 1) rotate(0) translate(4 471)">
<title>source/plotting/Plot.cpp</title>
<polygon fill="white" stroke="none" points="-4,4 -4,-471 1683.5,-471 1683.5,4 -4,4"/>
<!-- Node1 -->
<g id="node1" class="node"><title>Node1</title>
<polygon fill="#bfbfbf" stroke="black" points="699,-447.5 699,-466.5 818,-466.5 818,-447.5 699,-447.5"/>
<text text-anchor="middle" x="758.5" y="-454.5" font-family="Helvetica,sans-Serif" font-size="10.00">source/plotting/Plot.cpp</text>
</g>
<!-- Node2 -->
<g id="node2" class="node"><title>Node2</title>
<polygon fill="white" stroke="#bfbfbf" points="533.5,-380.5 533.5,-410.5 643.5,-410.5 643.5,-380.5 533.5,-380.5"/>
<text text-anchor="start" x="541.5" y="-398.5" font-family="Helvetica,sans-Serif" font-size="10.00">boost/range/algorithm</text>
<text text-anchor="middle" x="588.5" y="-387.5" font-family="Helvetica,sans-Serif" font-size="10.00">/sort.hpp</text>
</g>
<!-- Node1&#45;&gt;Node2 -->
<g id="edge1" class="edge"><title>Node1&#45;&gt;Node2</title>
<path fill="none" stroke="midnightblue" d="M734.143,-447.475C709.182,-438.739 669.664,-424.907 638.086,-413.855"/>
<polygon fill="midnightblue" stroke="midnightblue" points="639.16,-410.523 628.566,-410.523 636.848,-417.13 639.16,-410.523"/>
</g>
<!-- Node3 -->
<g id="node3" class="node"><title>Node3</title>
<polygon fill="white" stroke="#bfbfbf" points="383.5,-313.5 383.5,-343.5 493.5,-343.5 493.5,-313.5 383.5,-313.5"/>
<text text-anchor="start" x="391.5" y="-331.5" font-family="Helvetica,sans-Serif" font-size="10.00">boost/range/algorithm</text>
<text text-anchor="middle" x="438.5" y="-320.5" font-family="Helvetica,sans-Serif" font-size="10.00">/transform.hpp</text>
</g>
<!-- Node1&#45;&gt;Node3 -->
<g id="edge2" class="edge"><title>Node1&#45;&gt;Node3</title>
<path fill="none" stroke="midnightblue" d="M744.68,-447.426C730.744,-438.647 708.743,-424.426 690.5,-411 672.946,-398.081 672.049,-389.638 652.5,-380 649.059,-378.304 565.511,-358.814 503.846,-344.554"/>
<polygon fill="midnightblue" stroke="midnightblue" points="504.3,-341.066 493.769,-342.225 502.724,-347.887 504.3,-341.066"/>
</g>
<!-- Node4 -->
<g id="node4" class="node"><title>Node4</title>
<g id="a_node4"><a xlink:href="Plot_8hh.html" target="_top" xlink:title="boca/plotting/Plot.hh">
<polygon fill="white" stroke="black" points="1129.5,-386 1129.5,-405 1235.5,-405 1235.5,-386 1129.5,-386"/>
<text text-anchor="middle" x="1182.5" y="-393" font-family="Helvetica,sans-Serif" font-size="10.00">boca/plotting/Plot.hh</text>
</a>
</g>
</g>
<!-- Node1&#45;&gt;Node4 -->
<g id="edge3" class="edge"><title>Node1&#45;&gt;Node4</title>
<path fill="none" stroke="midnightblue" d="M818.35,-447.601C897.923,-436.435 1037.94,-416.786 1119.21,-405.381"/>
<polygon fill="midnightblue" stroke="midnightblue" points="1119.89,-408.82 1129.31,-403.964 1118.92,-401.888 1119.89,-408.82"/>
</g>
<!-- Node45 -->
<g id="node45" class="node"><title>Node45</title>
<g id="a_node45"><a xlink:href="generic_2Vector_8hh.html" target="_top" xlink:title="boca/generic/Vector.hh">
<polygon fill="white" stroke="black" points="700,-386 700,-405 817,-405 817,-386 700,-386"/>
<text text-anchor="middle" x="758.5" y="-393" font-family="Helvetica,sans-Serif" font-size="10.00">boca/generic/Vector.hh</text>
</a>
</g>
</g>
<!-- Node1&#45;&gt;Node45 -->
<g id="edge56" class="edge"><title>Node1&#45;&gt;Node45</title>
<path fill="none" stroke="midnightblue" d="M758.5,-447.475C758.5,-439.08 758.5,-425.981 758.5,-415.163"/>
<polygon fill="midnightblue" stroke="midnightblue" points="762,-415.009 758.5,-405.009 755,-415.009 762,-415.009"/>
</g>
<!-- Node50 -->
<g id="node50" class="node"><title>Node50</title>
<g id="a_node50"><a xlink:href="DEBUG__MACROS_8hh.html" target="_top" xlink:title="boca/generic/DEBUG\l_MACROS.hh">
<polygon fill="white" stroke="black" points="1289,-380.5 1289,-410.5 1400,-410.5 1400,-380.5 1289,-380.5"/>
<text text-anchor="start" x="1297" y="-398.5" font-family="Helvetica,sans-Serif" font-size="10.00">boca/generic/DEBUG</text>
<text text-anchor="middle" x="1344.5" y="-387.5" font-family="Helvetica,sans-Serif" font-size="10.00">_MACROS.hh</text>
</a>
</g>
</g>
<!-- Node1&#45;&gt;Node50 -->
<g id="edge62" class="edge"><title>Node1&#45;&gt;Node50</title>
<path fill="none" stroke="midnightblue" d="M818.082,-451.481C909.826,-444.297 1091.15,-429.206 1244.5,-411 1255.62,-409.68 1267.4,-408.118 1278.84,-406.515"/>
<polygon fill="midnightblue" stroke="midnightblue" points="1279.36,-409.976 1288.77,-405.102 1278.37,-403.046 1279.36,-409.976"/>
</g>
<!-- Node5 -->
<g id="node5" class="node"><title>Node5</title>
<polygon fill="white" stroke="#bfbfbf" points="1211,-319 1211,-338 1270,-338 1270,-319 1211,-319"/>
<text text-anchor="middle" x="1240.5" y="-326" font-family="Helvetica,sans-Serif" font-size="10.00">functional</text>
</g>
<!-- Node4&#45;&gt;Node5 -->
<g id="edge4" class="edge"><title>Node4&#45;&gt;Node5</title>
<path fill="none" stroke="midnightblue" d="M1190.32,-385.734C1199.45,-375.5 1214.74,-358.364 1226.05,-345.692"/>
<polygon fill="midnightblue" stroke="midnightblue" points="1228.76,-347.919 1232.8,-338.127 1223.53,-343.258 1228.76,-347.919"/>
</g>
<!-- Node6 -->
<g id="node6" class="node"><title>Node6</title>
<g id="a_node6"><a xlink:href="Names_8hh.html" target="_top" xlink:title="boca/Names.hh">
<polygon fill="white" stroke="black" points="1140.5,-257.5 1140.5,-276.5 1226.5,-276.5 1226.5,-257.5 1140.5,-257.5"/>
<text text-anchor="middle" x="1183.5" y="-264.5" font-family="Helvetica,sans-Serif" font-size="10.00">boca/Names.hh</text>
</a>
</g>
</g>
<!-- Node4&#45;&gt;Node6 -->
<g id="edge5" class="edge"><title>Node4&#45;&gt;Node6</title>
<path fill="none" stroke="midnightblue" d="M1182.57,-385.805C1182.73,-365.494 1183.13,-314.553 1183.35,-286.777"/>
<polygon fill="midnightblue" stroke="midnightblue" points="1186.85,-286.783 1183.43,-276.756 1179.85,-286.728 1186.85,-286.783"/>
</g>
<!-- Node11 -->
<g id="node11" class="node"><title>Node11</title>
<g id="a_node11"><a xlink:href="Range_8hh.html" target="_top" xlink:title="boca/math/Range.hh">
<polygon fill="white" stroke="black" points="1245,-257.5 1245,-276.5 1352,-276.5 1352,-257.5 1245,-257.5"/>
<text text-anchor="middle" x="1298.5" y="-264.5" font-family="Helvetica,sans-Serif" font-size="10.00">boca/math/Range.hh</text>
</a>
</g>
</g>
<!-- Node4&#45;&gt;Node11 -->
<g id="edge10" class="edge"><title>Node4&#45;&gt;Node11</title>
<path fill="none" stroke="midnightblue" d="M1212.3,-385.987C1233.75,-378.363 1261.74,-365.076 1278.5,-344 1291.61,-327.516 1296.18,-303.276 1297.75,-286.628"/>
<polygon fill="midnightblue" stroke="midnightblue" points="1301.25,-286.714 1298.42,-276.504 1294.26,-286.252 1301.25,-286.714"/>
</g>
<!-- Node34 -->
<g id="node34" class="node"><title>Node34</title>
<g id="a_node34"><a xlink:href="Vector3_8hh.html" target="_top" xlink:title="boca/math/Vector3.hh">
<polygon fill="white" stroke="black" points="1041,-319 1041,-338 1154,-338 1154,-319 1041,-319"/>
<text text-anchor="middle" x="1097.5" y="-326" font-family="Helvetica,sans-Serif" font-size="10.00">boca/math/Vector3.hh</text>
</a>
</g>
</g>
<!-- Node4&#45;&gt;Node34 -->
<g id="edge39" class="edge"><title>Node4&#45;&gt;Node34</title>
<path fill="none" stroke="midnightblue" d="M1171.04,-385.734C1157.14,-375.111 1133.52,-357.049 1116.81,-344.264"/>
<polygon fill="midnightblue" stroke="midnightblue" points="1118.85,-341.422 1108.78,-338.127 1114.6,-346.982 1118.85,-341.422"/>
</g>
<!-- Node7 -->
<g id="node7" class="node"><title>Node7</title>
<g id="a_node7"><a xlink:href="String_8hh.html" target="_top" xlink:title="boca/latex/String.hh">
<polygon fill="white" stroke="black" points="1191.5,-201.5 1191.5,-220.5 1295.5,-220.5 1295.5,-201.5 1191.5,-201.5"/>
<text text-anchor="middle" x="1243.5" y="-208.5" font-family="Helvetica,sans-Serif" font-size="10.00">boca/latex/String.hh</text>
</a>
</g>
</g>
<!-- Node6&#45;&gt;Node7 -->
<g id="edge6" class="edge"><title>Node6&#45;&gt;Node7</title>
<path fill="none" stroke="midnightblue" d="M1193.14,-257.324C1202.01,-249.341 1215.37,-237.313 1226.11,-227.653"/>
<polygon fill="midnightblue" stroke="midnightblue" points="1228.59,-230.125 1233.68,-220.834 1223.91,-224.922 1228.59,-230.125"/>
</g>
<!-- Node8 -->
<g id="node8" class="node"><title>Node8</title>
<polygon fill="white" stroke="#bfbfbf" points="1304,-140 1304,-159 1345,-159 1345,-140 1304,-140"/>
<text text-anchor="middle" x="1324.5" y="-147" font-family="Helvetica,sans-Serif" font-size="10.00">string</text>
</g>
<!-- Node7&#45;&gt;Node8 -->
<g id="edge7" class="edge"><title>Node7&#45;&gt;Node8</title>
<path fill="none" stroke="midnightblue" d="M1255.11,-201.475C1267.98,-192.02 1288.97,-176.596 1304.51,-165.187"/>
<polygon fill="midnightblue" stroke="midnightblue" points="1306.93,-167.75 1312.92,-159.009 1302.78,-162.108 1306.93,-167.75"/>
</g>
<!-- Node9 -->
<g id="node9" class="node"><title>Node9</title>
<polygon fill="white" stroke="#bfbfbf" points="1243,-140 1243,-159 1286,-159 1286,-140 1243,-140"/>
<text text-anchor="middle" x="1264.5" y="-147" font-family="Helvetica,sans-Serif" font-size="10.00">deque</text>
</g>
<!-- Node7&#45;&gt;Node9 -->
<g id="edge8" class="edge"><title>Node7&#45;&gt;Node9</title>
<path fill="none" stroke="midnightblue" d="M1246.51,-201.475C1249.53,-192.904 1254.29,-179.427 1258.15,-168.483"/>
<polygon fill="midnightblue" stroke="midnightblue" points="1261.47,-169.604 1261.5,-159.009 1254.87,-167.274 1261.47,-169.604"/>
</g>
<!-- Node10 -->
<g id="node10" class="node"><title>Node10</title>
<polygon fill="white" stroke="#bfbfbf" points="1180.5,-140 1180.5,-159 1224.5,-159 1224.5,-140 1180.5,-140"/>
<text text-anchor="middle" x="1202.5" y="-147" font-family="Helvetica,sans-Serif" font-size="10.00">vector</text>
</g>
<!-- Node7&#45;&gt;Node10 -->
<g id="edge9" class="edge"><title>Node7&#45;&gt;Node10</title>
<path fill="none" stroke="midnightblue" d="M1237.63,-201.475C1231.54,-192.638 1221.86,-178.589 1214.2,-167.475"/>
<polygon fill="midnightblue" stroke="midnightblue" points="1216.92,-165.258 1208.36,-159.009 1211.16,-169.229 1216.92,-165.258"/>
</g>
<!-- Node12 -->
<g id="node12" class="node"><title>Node12</title>
<polygon fill="white" stroke="#bfbfbf" points="1625.5,-140 1625.5,-159 1679.5,-159 1679.5,-140 1625.5,-140"/>
<text text-anchor="middle" x="1652.5" y="-147" font-family="Helvetica,sans-Serif" font-size="10.00">iostream</text>
</g>
<!-- Node11&#45;&gt;Node12 -->
<g id="edge11" class="edge"><title>Node11&#45;&gt;Node12</title>
<path fill="none" stroke="midnightblue" d="M1333.71,-257.495C1364.54,-249.567 1410.25,-236.634 1448.5,-221 1466.17,-213.78 1468.76,-208.032 1486.5,-201 1542.24,-178.912 1559.72,-184.23 1616.5,-165 1618.63,-164.28 1620.81,-163.502 1623,-162.693"/>
<polygon fill="midnightblue" stroke="midnightblue" points="1624.4,-165.903 1632.47,-159.034 1621.88,-159.373 1624.4,-165.903"/>
</g>
<!-- Node13 -->
<g id="node13" class="node"><title>Node13</title>
<polygon fill="white" stroke="#bfbfbf" points="1495.5,-201.5 1495.5,-220.5 1535.5,-220.5 1535.5,-201.5 1495.5,-201.5"/>
<text text-anchor="middle" x="1515.5" y="-208.5" font-family="Helvetica,sans-Serif" font-size="10.00">utility</text>
</g>
<!-- Node11&#45;&gt;Node13 -->
<g id="edge12" class="edge"><title>Node11&#45;&gt;Node13</title>
<path fill="none" stroke="midnightblue" d="M1333.97,-257.474C1370.87,-248.558 1430.3,-234.07 1481.5,-221 1482.76,-220.677 1484.06,-220.345 1485.36,-220.009"/>
<polygon fill="midnightblue" stroke="midnightblue" points="1486.59,-223.304 1495.38,-217.389 1484.82,-216.532 1486.59,-223.304"/>
</g>
<!-- Node14 -->
<g id="node14" class="node"><title>Node14</title>
<g id="a_node14"><a xlink:href="Units_8hh.html" target="_top" xlink:title="boca/units/Units.hh">
<polygon fill="white" stroke="black" points="846,-201.5 846,-220.5 947,-220.5 947,-201.5 846,-201.5"/>
<text text-anchor="middle" x="896.5" y="-208.5" font-family="Helvetica,sans-Serif" font-size="10.00">boca/units/Units.hh</text>
</a>
</g>
</g>
<!-- Node11&#45;&gt;Node14 -->
<g id="edge13" class="edge"><title>Node11&#45;&gt;Node14</title>
<path fill="none" stroke="midnightblue" d="M1244.89,-258.304C1241.71,-257.86 1238.56,-257.422 1235.5,-257 1138.16,-243.587 1024.99,-228.709 957.145,-219.866"/>
<polygon fill="midnightblue" stroke="midnightblue" points="957.431,-216.374 947.063,-218.553 956.527,-223.315 957.431,-216.374"/>
</g>
<!-- Node31 -->
<g id="node31" class="node"><title>Node31</title>
<g id="a_node31"><a xlink:href="Math_8hh.html" target="_top" xlink:title="boca/math/Math.hh">
<polygon fill="white" stroke="black" points="1057,-201.5 1057,-220.5 1158,-220.5 1158,-201.5 1057,-201.5"/>
<text text-anchor="middle" x="1107.5" y="-208.5" font-family="Helvetica,sans-Serif" font-size="10.00">boca/math/Math.hh</text>
</a>
</g>
</g>
<!-- Node11&#45;&gt;Node31 -->
<g id="edge35" class="edge"><title>Node11&#45;&gt;Node31</title>
<path fill="none" stroke="midnightblue" d="M1268.24,-257.444C1235.54,-248.201 1183.32,-233.436 1147.32,-223.257"/>
<polygon fill="midnightblue" stroke="midnightblue" points="1148.2,-219.869 1137.62,-220.516 1146.29,-226.605 1148.2,-219.869"/>
</g>
<!-- Node15 -->
<g id="node15" class="node"><title>Node15</title>
<polygon fill="white" stroke="#bfbfbf" points="1025,-6 1025,-25 1138,-25 1138,-6 1025,-6"/>
<text text-anchor="middle" x="1081.5" y="-13" font-family="Helvetica,sans-Serif" font-size="10.00">boost/units/cmath.hpp</text>
</g>
<!-- Node14&#45;&gt;Node15 -->
<g id="edge14" class="edge"><title>Node14&#45;&gt;Node15</title>
<path fill="none" stroke="midnightblue" d="M896.242,-201.326C896.253,-185.885 898.47,-153.435 915.5,-134 944.164,-101.287 970.647,-122.624 1006.5,-98 1032.42,-80.2013 1055.82,-51.8936 1069.35,-33.7607"/>
<polygon fill="midnightblue" stroke="midnightblue" points="1072.44,-35.4627 1075.49,-25.3154 1066.78,-31.348 1072.44,-35.4627"/>
</g>
<!-- Node16 -->
<g id="node16" class="node"><title>Node16</title>
<g id="a_node16"><a xlink:href="Prefixes_8hh.html" target="_top" xlink:title="boca/units/Prefixes.hh">
<polygon fill="white" stroke="black" points="625.5,-140 625.5,-159 739.5,-159 739.5,-140 625.5,-140"/>
<text text-anchor="middle" x="682.5" y="-147" font-family="Helvetica,sans-Serif" font-size="10.00">boca/units/Prefixes.hh</text>
</a>
</g>
</g>
<!-- Node14&#45;&gt;Node16 -->
<g id="edge15" class="edge"><title>Node14&#45;&gt;Node16</title>
<path fill="none" stroke="midnightblue" d="M865.839,-201.475C828.256,-191.026 764.456,-173.287 722.902,-161.733"/>
<polygon fill="midnightblue" stroke="midnightblue" points="723.676,-158.316 713.104,-159.009 721.801,-165.06 723.676,-158.316"/>
</g>
<!-- Node17 -->
<g id="node17" class="node"><title>Node17</title>
<polygon fill="white" stroke="#bfbfbf" points="744.5,-73 744.5,-92 854.5,-92 854.5,-73 744.5,-73"/>
<text text-anchor="middle" x="799.5" y="-80" font-family="Helvetica,sans-Serif" font-size="10.00">boost/units/scale.hpp</text>
</g>
<!-- Node16&#45;&gt;Node17 -->
<g id="edge16" class="edge"><title>Node16&#45;&gt;Node17</title>
<path fill="none" stroke="midnightblue" d="M698.279,-139.734C718.015,-128.769 752.014,-109.881 775.111,-97.0495"/>
<polygon fill="midnightblue" stroke="midnightblue" points="776.929,-100.043 783.971,-92.1273 773.53,-93.9242 776.929,-100.043"/>
</g>
<!-- Node18 -->
<g id="node18" class="node"><title>Node18</title>
<polygon fill="white" stroke="#bfbfbf" points="873,-67.5 873,-97.5 998,-97.5 998,-67.5 873,-67.5"/>
<text text-anchor="start" x="881" y="-85.5" font-family="Helvetica,sans-Serif" font-size="10.00">boost/units/make_scaled</text>
<text text-anchor="middle" x="935.5" y="-74.5" font-family="Helvetica,sans-Serif" font-size="10.00">_unit.hpp</text>
</g>
<!-- Node16&#45;&gt;Node18 -->
<g id="edge17" class="edge"><title>Node16&#45;&gt;Node18</title>
<path fill="none" stroke="midnightblue" d="M715.835,-139.936C755.127,-129.841 821.327,-112.833 870.804,-100.122"/>
<polygon fill="midnightblue" stroke="midnightblue" points="871.963,-103.437 880.777,-97.5592 870.221,-96.6577 871.963,-103.437"/>
</g>
<!-- Node19 -->
<g id="node19" class="node"><title>Node19</title>
<polygon fill="white" stroke="#bfbfbf" points="121,-67.5 121,-97.5 232,-97.5 232,-67.5 121,-67.5"/>
<text text-anchor="start" x="129" y="-85.5" font-family="Helvetica,sans-Serif" font-size="10.00">boost/units/systems</text>
<text text-anchor="middle" x="176.5" y="-74.5" font-family="Helvetica,sans-Serif" font-size="10.00">/si/dimensionless.hpp</text>
</g>
<!-- Node16&#45;&gt;Node19 -->
<g id="edge18" class="edge"><title>Node16&#45;&gt;Node19</title>
<path fill="none" stroke="midnightblue" d="M644.309,-139.938C633.723,-137.773 622.199,-135.609 611.5,-134 451.306,-109.916 406.4,-123.48 242.049,-97.9425"/>
<polygon fill="midnightblue" stroke="midnightblue" points="242.507,-94.4715 232.083,-96.3693 241.415,-101.386 242.507,-94.4715"/>
</g>
<!-- Node20 -->
<g id="node20" class="node"><title>Node20</title>
<polygon fill="white" stroke="#bfbfbf" points="250.5,-73 250.5,-92 354.5,-92 354.5,-73 250.5,-73"/>
<text text-anchor="middle" x="302.5" y="-80" font-family="Helvetica,sans-Serif" font-size="10.00">boost/units/pow.hpp</text>
</g>
<!-- Node16&#45;&gt;Node20 -->
<g id="edge19" class="edge"><title>Node16&#45;&gt;Node20</title>
<path fill="none" stroke="midnightblue" d="M642.772,-139.968C632.599,-137.899 621.663,-135.774 611.5,-134 501.781,-114.849 472.899,-118.899 363.5,-98 357.746,-96.9008 351.716,-95.6231 345.78,-94.2904"/>
<polygon fill="midnightblue" stroke="midnightblue" points="346.476,-90.8589 335.944,-92.0175 344.899,-97.6792 346.476,-90.8589"/>
</g>
<!-- Node21 -->
<g id="node21" class="node"><title>Node21</title>
<g id="a_node21"><a xlink:href="Si_8hh.html" target="_top" xlink:title="boca/units/Si.hh">
<polygon fill="white" stroke="black" points="639,-73 639,-92 726,-92 726,-73 639,-73"/>
<text text-anchor="middle" x="682.5" y="-80" font-family="Helvetica,sans-Serif" font-size="10.00">boca/units/Si.hh</text>
</a>
</g>
</g>
<!-- Node16&#45;&gt;Node21 -->
<g id="edge20" class="edge"><title>Node16&#45;&gt;Node21</title>
<path fill="none" stroke="midnightblue" d="M682.5,-139.734C682.5,-130.183 682.5,-114.618 682.5,-102.283"/>
<polygon fill="midnightblue" stroke="midnightblue" points="686,-102.127 682.5,-92.1273 679,-102.127 686,-102.127"/>
</g>
<!-- Node26 -->
<g id="node26" class="node"><title>Node26</title>
<g id="a_node26"><a xlink:href="Barn_8hh.html" target="_top" xlink:title="boca/units/Barn.hh">
<polygon fill="white" stroke="black" points="522.5,-73 522.5,-92 620.5,-92 620.5,-73 522.5,-73"/>
<text text-anchor="middle" x="571.5" y="-80" font-family="Helvetica,sans-Serif" font-size="10.00">boca/units/Barn.hh</text>
</a>
</g>
</g>
<!-- Node16&#45;&gt;Node26 -->
<g id="edge26" class="edge"><title>Node16&#45;&gt;Node26</title>
<path fill="none" stroke="midnightblue" d="M667.53,-139.734C648.89,-128.818 616.837,-110.049 594.931,-97.2209"/>
<polygon fill="midnightblue" stroke="midnightblue" points="596.631,-94.1603 586.233,-92.1273 593.093,-100.201 596.631,-94.1603"/>
</g>
<!-- Node30 -->
<g id="node30" class="node"><title>Node30</title>
<g id="a_node30"><a xlink:href="ElectronVolt_8hh.html" target="_top" xlink:title="boca/units/ElectronVolt.hh">
<polygon fill="white" stroke="red" points="373,-73 373,-92 504,-92 504,-73 373,-73"/>
<text text-anchor="middle" x="438.5" y="-80" font-family="Helvetica,sans-Serif" font-size="10.00">boca/units/ElectronVolt.hh</text>
</a>
</g>
</g>
<!-- Node16&#45;&gt;Node30 -->
<g id="edge31" class="edge"><title>Node16&#45;&gt;Node30</title>
<path fill="none" stroke="midnightblue" d="M650.35,-139.936C606.737,-128.317 528.746,-107.541 480.534,-94.6975"/>
<polygon fill="midnightblue" stroke="midnightblue" points="481.285,-91.2756 470.721,-92.0834 479.483,-98.0397 481.285,-91.2756"/>
</g>
<!-- Node21&#45;&gt;Node15 -->
<g id="edge24" class="edge"><title>Node21&#45;&gt;Node15</title>
<path fill="none" stroke="midnightblue" d="M710.932,-72.9389C718.835,-70.7739 727.455,-68.6095 735.5,-67 858.531,-42.3856 891.884,-52.4825 1015.5,-31 1021.87,-29.8927 1028.56,-28.59 1035.13,-27.2273"/>
<polygon fill="midnightblue" stroke="midnightblue" points="1036.25,-30.5667 1045.3,-25.0561 1034.79,-23.7209 1036.25,-30.5667"/>
</g>
<!-- Node22 -->
<g id="node22" class="node"><title>Node22</title>
<polygon fill="white" stroke="#bfbfbf" points="378,-6 378,-25 499,-25 499,-6 378,-6"/>
<text text-anchor="middle" x="438.5" y="-13" font-family="Helvetica,sans-Serif" font-size="10.00">boost/units/quantity.hpp</text>
</g>
<!-- Node21&#45;&gt;Node22 -->
<g id="edge21" class="edge"><title>Node21&#45;&gt;Node22</title>
<path fill="none" stroke="midnightblue" d="M651.404,-72.9448C644.214,-70.98 636.593,-68.908 629.5,-67 578.572,-53.301 519.918,-37.8401 481.191,-27.6756"/>
<polygon fill="midnightblue" stroke="midnightblue" points="481.867,-24.2346 471.306,-25.0826 480.091,-31.0055 481.867,-24.2346"/>
</g>
<!-- Node23 -->
<g id="node23" class="node"><title>Node23</title>
<polygon fill="white" stroke="#bfbfbf" points="779,-0.5 779,-30.5 884,-30.5 884,-0.5 779,-0.5"/>
<text text-anchor="start" x="787" y="-18.5" font-family="Helvetica,sans-Serif" font-size="10.00">boost/units/systems</text>
<text text-anchor="middle" x="831.5" y="-7.5" font-family="Helvetica,sans-Serif" font-size="10.00">/si/plane_angle.hpp</text>
</g>
<!-- Node21&#45;&gt;Node23 -->
<g id="edge22" class="edge"><title>Node21&#45;&gt;Node23</title>
<path fill="none" stroke="midnightblue" d="M702.286,-72.8685C724.547,-63.1572 761.334,-47.1092 789.975,-34.6148"/>
<polygon fill="midnightblue" stroke="midnightblue" points="791.577,-37.7347 799.343,-30.5281 788.778,-31.3186 791.577,-37.7347"/>
</g>
<!-- Node24 -->
<g id="node24" class="node"><title>Node24</title>
<polygon fill="white" stroke="#bfbfbf" points="902,-0.5 902,-30.5 1007,-30.5 1007,-0.5 902,-0.5"/>
<text text-anchor="start" x="910" y="-18.5" font-family="Helvetica,sans-Serif" font-size="10.00">boost/units/systems</text>
<text text-anchor="middle" x="954.5" y="-7.5" font-family="Helvetica,sans-Serif" font-size="10.00">/si/length.hpp</text>
</g>
<!-- Node21&#45;&gt;Node24 -->
<g id="edge23" class="edge"><title>Node21&#45;&gt;Node24</title>
<path fill="none" stroke="midnightblue" d="M712.992,-72.9247C720.346,-70.921 728.191,-68.8369 735.5,-67 801.946,-50.3003 821.13,-47.3853 891.887,-31.1286"/>
<polygon fill="midnightblue" stroke="midnightblue" points="892.781,-34.5143 901.738,-28.8558 891.208,-27.6935 892.781,-34.5143"/>
</g>
<!-- Node25 -->
<g id="node25" class="node"><title>Node25</title>
<polygon fill="white" stroke="#bfbfbf" points="650,-0.5 650,-30.5 761,-30.5 761,-0.5 650,-0.5"/>
<text text-anchor="start" x="658" y="-18.5" font-family="Helvetica,sans-Serif" font-size="10.00">boost/math/constants</text>
<text text-anchor="middle" x="705.5" y="-7.5" font-family="Helvetica,sans-Serif" font-size="10.00">/constants.hpp</text>
</g>
<!-- Node21&#45;&gt;Node25 -->
<g id="edge25" class="edge"><title>Node21&#45;&gt;Node25</title>
<path fill="none" stroke="midnightblue" d="M685.602,-72.7338C688.561,-64.3717 693.151,-51.4003 697.177,-40.0221"/>
<polygon fill="midnightblue" stroke="midnightblue" points="700.478,-41.1838 700.515,-30.589 693.879,-38.8487 700.478,-41.1838"/>
</g>
<!-- Node26&#45;&gt;Node22 -->
<g id="edge29" class="edge"><title>Node26&#45;&gt;Node22</title>
<path fill="none" stroke="midnightblue" d="M553.839,-72.8685C531.183,-61.7961 491.672,-42.4862 465.3,-29.5978"/>
<polygon fill="midnightblue" stroke="midnightblue" points="466.756,-26.4136 456.234,-25.1672 463.682,-32.7027 466.756,-26.4136"/>
</g>
<!-- Node27 -->
<g id="node27" class="node"><title>Node27</title>
<polygon fill="white" stroke="#bfbfbf" points="203,-6 203,-25 360,-25 360,-6 203,-6"/>
<text text-anchor="middle" x="281.5" y="-13" font-family="Helvetica,sans-Serif" font-size="10.00">boost/units/base_dimension.hpp</text>
</g>
<!-- Node26&#45;&gt;Node27 -->
<g id="edge27" class="edge"><title>Node26&#45;&gt;Node27</title>
<path fill="none" stroke="midnightblue" d="M537.529,-72.9927C529.343,-70.9865 520.617,-68.8843 512.5,-67 450.471,-52.6002 378.801,-37.1098 331.947,-27.1374"/>
<polygon fill="midnightblue" stroke="midnightblue" points="332.557,-23.6889 322.048,-25.0339 331.102,-30.536 332.557,-23.6889"/>
</g>
<!-- Node28 -->
<g id="node28" class="node"><title>Node28</title>
<polygon fill="white" stroke="#bfbfbf" points="56.5,-6 56.5,-25 184.5,-25 184.5,-6 56.5,-6"/>
<text text-anchor="middle" x="120.5" y="-13" font-family="Helvetica,sans-Serif" font-size="10.00">boost/units/base_unit.hpp</text>
</g>
<!-- Node26&#45;&gt;Node28 -->
<g id="edge28" class="edge"><title>Node26&#45;&gt;Node28</title>
<path fill="none" stroke="midnightblue" d="M540.122,-72.9945C531.242,-70.8042 521.534,-68.6129 512.5,-67 372.043,-41.9224 334.484,-52.9177 193.5,-31 185.954,-29.8269 178.001,-28.4226 170.232,-26.9564"/>
<polygon fill="midnightblue" stroke="midnightblue" points="170.657,-23.4737 160.174,-25.0075 169.326,-30.3459 170.657,-23.4737"/>
</g>
<!-- Node29 -->
<g id="node29" class="node"><title>Node29</title>
<polygon fill="white" stroke="#bfbfbf" points="517,-0.5 517,-30.5 632,-30.5 632,-0.5 517,-0.5"/>
<text text-anchor="start" x="525" y="-18.5" font-family="Helvetica,sans-Serif" font-size="10.00">boost/units/base_units</text>
<text text-anchor="middle" x="574.5" y="-7.5" font-family="Helvetica,sans-Serif" font-size="10.00">/metric/barn.hpp</text>
</g>
<!-- Node26&#45;&gt;Node29 -->
<g id="edge30" class="edge"><title>Node26&#45;&gt;Node29</title>
<path fill="none" stroke="midnightblue" d="M571.905,-72.7338C572.283,-64.5406 572.865,-51.9225 573.382,-40.7136"/>
<polygon fill="midnightblue" stroke="midnightblue" points="576.885,-40.7398 573.85,-30.589 569.892,-40.417 576.885,-40.7398"/>
</g>
<!-- Node30&#45;&gt;Node22 -->
<g id="edge34" class="edge"><title>Node30&#45;&gt;Node22</title>
<path fill="none" stroke="midnightblue" d="M438.5,-72.7338C438.5,-63.1826 438.5,-47.6183 438.5,-35.2829"/>
<polygon fill="midnightblue" stroke="midnightblue" points="442,-35.1273 438.5,-25.1273 435,-35.1273 442,-35.1273"/>
</g>
<!-- Node30&#45;&gt;Node27 -->
<g id="edge32" class="edge"><title>Node30&#45;&gt;Node27</title>
<path fill="none" stroke="midnightblue" d="M417.652,-72.8685C390.556,-61.6504 343.036,-41.9766 311.916,-29.0925"/>
<polygon fill="midnightblue" stroke="midnightblue" points="313.013,-25.7587 302.435,-25.1672 310.335,-32.2263 313.013,-25.7587"/>
</g>
<!-- Node30&#45;&gt;Node28 -->
<g id="edge33" class="edge"><title>Node30&#45;&gt;Node28</title>
<path fill="none" stroke="midnightblue" d="M396.6,-72.9355C338.847,-61.1306 234.841,-39.8716 172.287,-27.0853"/>
<polygon fill="midnightblue" stroke="midnightblue" points="172.738,-23.6053 162.24,-25.0317 171.336,-30.4635 172.738,-23.6053"/>
</g>
<!-- Node31&#45;&gt;Node10 -->
<g id="edge36" class="edge"><title>Node31&#45;&gt;Node10</title>
<path fill="none" stroke="midnightblue" d="M1121.11,-201.475C1136.56,-191.799 1161.99,-175.872 1180.32,-164.394"/>
<polygon fill="midnightblue" stroke="midnightblue" points="1182.3,-167.283 1188.91,-159.009 1178.58,-161.351 1182.3,-167.283"/>
</g>
<!-- Node32 -->
<g id="node32" class="node"><title>Node32</title>
<polygon fill="white" stroke="#bfbfbf" points="1052.5,-134.5 1052.5,-164.5 1162.5,-164.5 1162.5,-134.5 1052.5,-134.5"/>
<text text-anchor="start" x="1060.5" y="-152.5" font-family="Helvetica,sans-Serif" font-size="10.00">boost/range/algorithm</text>
<text text-anchor="middle" x="1107.5" y="-141.5" font-family="Helvetica,sans-Serif" font-size="10.00">/lower_bound.hpp</text>
</g>
<!-- Node31&#45;&gt;Node32 -->
<g id="edge37" class="edge"><title>Node31&#45;&gt;Node32</title>
<path fill="none" stroke="midnightblue" d="M1107.5,-201.475C1107.5,-194.471 1107.5,-184.192 1107.5,-174.696"/>
<polygon fill="midnightblue" stroke="midnightblue" points="1111,-174.523 1107.5,-164.523 1104,-174.523 1111,-174.523"/>
</g>
<!-- Node33 -->
<g id="node33" class="node"><title>Node33</title>
<polygon fill="white" stroke="#bfbfbf" points="924.5,-134.5 924.5,-164.5 1034.5,-164.5 1034.5,-134.5 924.5,-134.5"/>
<text text-anchor="start" x="932.5" y="-152.5" font-family="Helvetica,sans-Serif" font-size="10.00">boost/range/algorithm</text>
<text text-anchor="middle" x="979.5" y="-141.5" font-family="Helvetica,sans-Serif" font-size="10.00">/upper_bound.hpp</text>
</g>
<!-- Node31&#45;&gt;Node33 -->
<g id="edge38" class="edge"><title>Node31&#45;&gt;Node33</title>
<path fill="none" stroke="midnightblue" d="M1089.16,-201.475C1070.93,-193.002 1042.4,-179.737 1019,-168.863"/>
<polygon fill="midnightblue" stroke="midnightblue" points="1020.21,-165.564 1009.67,-164.523 1017.26,-171.912 1020.21,-165.564"/>
</g>
<!-- Node35 -->
<g id="node35" class="node"><title>Node35</title>
<polygon fill="white" stroke="#bfbfbf" points="1057,-257.5 1057,-276.5 1122,-276.5 1122,-257.5 1057,-257.5"/>
<text text-anchor="middle" x="1089.5" y="-264.5" font-family="Helvetica,sans-Serif" font-size="10.00">TVector3.h</text>
</g>
<!-- Node34&#45;&gt;Node35 -->
<g id="edge40" class="edge"><title>Node34&#45;&gt;Node35</title>
<path fill="none" stroke="midnightblue" d="M1096.35,-318.975C1095.23,-310.58 1093.46,-297.481 1092.01,-286.663"/>
<polygon fill="midnightblue" stroke="midnightblue" points="1095.45,-285.953 1090.64,-276.509 1088.51,-286.886 1095.45,-285.953"/>
</g>
<!-- Node36 -->
<g id="node36" class="node"><title>Node36</title>
<g id="a_node36"><a xlink:href="Vector2_8hh.html" target="_top" xlink:title="boca/math/Vector2.hh">
<polygon fill="white" stroke="black" points="840,-257.5 840,-276.5 953,-276.5 953,-257.5 840,-257.5"/>
<text text-anchor="middle" x="896.5" y="-264.5" font-family="Helvetica,sans-Serif" font-size="10.00">boca/math/Vector2.hh</text>
</a>
</g>
</g>
<!-- Node34&#45;&gt;Node36 -->
<g id="edge41" class="edge"><title>Node34&#45;&gt;Node36</title>
<path fill="none" stroke="midnightblue" d="M1068.7,-318.975C1033.63,-308.592 974.237,-291.012 935.193,-279.454"/>
<polygon fill="midnightblue" stroke="midnightblue" points="935.827,-275.992 925.245,-276.509 933.84,-282.704 935.827,-275.992"/>
</g>
<!-- Node36&#45;&gt;Node14 -->
<g id="edge54" class="edge"><title>Node36&#45;&gt;Node14</title>
<path fill="none" stroke="midnightblue" d="M896.5,-257.083C896.5,-250.006 896.5,-239.861 896.5,-230.986"/>
<polygon fill="midnightblue" stroke="midnightblue" points="900,-230.751 896.5,-220.751 893,-230.751 900,-230.751"/>
</g>
<!-- Node36&#45;&gt;Node31 -->
<g id="edge55" class="edge"><title>Node36&#45;&gt;Node31</title>
<path fill="none" stroke="midnightblue" d="M929.934,-257.444C966.356,-248.122 1024.73,-233.183 1064.53,-222.997"/>
<polygon fill="midnightblue" stroke="midnightblue" points="1065.4,-226.387 1074.22,-220.516 1063.67,-219.605 1065.4,-226.387"/>
</g>
<!-- Node37 -->
<g id="node37" class="node"><title>Node37</title>
<polygon fill="white" stroke="#bfbfbf" points="0,-73 0,-92 103,-92 103,-73 0,-73"/>
<text text-anchor="middle" x="51.5" y="-80" font-family="Helvetica,sans-Serif" font-size="10.00">boost/operators.hpp</text>
</g>
<!-- Node36&#45;&gt;Node37 -->
<g id="edge42" class="edge"><title>Node36&#45;&gt;Node37</title>
<path fill="none" stroke="midnightblue" d="M865.858,-257.487C783.629,-234.872 551.015,-172.402 354.5,-134 247.348,-113.061 218.67,-118.844 111.5,-98 105.977,-96.9258 100.196,-95.6824 94.4954,-94.3844"/>
<polygon fill="midnightblue" stroke="midnightblue" points="94.9281,-90.8909 84.3929,-92.0136 93.3288,-97.7058 94.9281,-90.8909"/>
</g>
<!-- Node38 -->
<g id="node38" class="node"><title>Node38</title>
<polygon fill="white" stroke="#bfbfbf" points="367,-201.5 367,-220.5 432,-220.5 432,-201.5 367,-201.5"/>
<text text-anchor="middle" x="399.5" y="-208.5" font-family="Helvetica,sans-Serif" font-size="10.00">TVector2.h</text>
</g>
<!-- Node36&#45;&gt;Node38 -->
<g id="edge43" class="edge"><title>Node36&#45;&gt;Node38</title>
<path fill="none" stroke="midnightblue" d="M839.71,-262.553C755.124,-256.943 590.89,-244.227 442.323,-221.129"/>
<polygon fill="midnightblue" stroke="midnightblue" points="442.531,-217.619 432.108,-219.521 441.442,-224.534 442.531,-217.619"/>
</g>
<!-- Node39 -->
<g id="node39" class="node"><title>Node39</title>
<g id="a_node39"><a xlink:href="Debug_8hh.html" target="_top" xlink:title="boca/generic/Debug.hh">
<polygon fill="white" stroke="black" points="1322,-201.5 1322,-220.5 1439,-220.5 1439,-201.5 1322,-201.5"/>
<text text-anchor="middle" x="1380.5" y="-208.5" font-family="Helvetica,sans-Serif" font-size="10.00">boca/generic/Debug.hh</text>
</a>
</g>
</g>
<!-- Node36&#45;&gt;Node39 -->
<g id="edge44" class="edge"><title>Node36&#45;&gt;Node39</title>
<path fill="none" stroke="midnightblue" d="M953.279,-259.883C1032.11,-251.357 1179.18,-235.331 1304.5,-221 1306.84,-220.733 1309.22,-220.459 1311.62,-220.181"/>
<polygon fill="midnightblue" stroke="midnightblue" points="1312.06,-223.654 1321.59,-219.024 1311.25,-216.701 1312.06,-223.654"/>
</g>
<!-- Node43 -->
<g id="node43" class="node"><title>Node43</title>
<g id="a_node43"><a xlink:href="Iterator_8hh.html" target="_top" xlink:title="boca/generic/Iterator.hh">
<polygon fill="white" stroke="black" points="450,-201.5 450,-220.5 569,-220.5 569,-201.5 450,-201.5"/>
<text text-anchor="middle" x="509.5" y="-208.5" font-family="Helvetica,sans-Serif" font-size="10.00">boca/generic/Iterator.hh</text>
</a>
</g>
</g>
<!-- Node36&#45;&gt;Node43 -->
<g id="edge51" class="edge"><title>Node36&#45;&gt;Node43</title>
<path fill="none" stroke="midnightblue" d="M839.812,-258.09C770.735,-248.451 654.031,-232.167 579.439,-221.759"/>
<polygon fill="midnightblue" stroke="midnightblue" points="579.591,-218.246 569.203,-220.331 578.623,-225.179 579.591,-218.246"/>
</g>
<!-- Node39&#45;&gt;Node8 -->
<g id="edge45" class="edge"><title>Node39&#45;&gt;Node8</title>
<path fill="none" stroke="midnightblue" d="M1372.48,-201.475C1363.91,-192.373 1350.14,-177.741 1339.54,-166.483"/>
<polygon fill="midnightblue" stroke="midnightblue" points="1341.91,-163.892 1332.51,-159.009 1336.81,-168.69 1341.91,-163.892"/>
</g>
<!-- Node39&#45;&gt;Node10 -->
<g id="edge46" class="edge"><title>Node39&#45;&gt;Node10</title>
<path fill="none" stroke="midnightblue" d="M1347.94,-201.45C1317.85,-193.218 1272.11,-179.855 1233.5,-165 1232.08,-164.453 1230.63,-163.871 1229.18,-163.265"/>
<polygon fill="midnightblue" stroke="midnightblue" points="1230.25,-159.914 1219.69,-159.065 1227.42,-166.314 1230.25,-159.914"/>
</g>
<!-- Node39&#45;&gt;Node12 -->
<g id="edge49" class="edge"><title>Node39&#45;&gt;Node12</title>
<path fill="none" stroke="midnightblue" d="M1439.44,-202.018C1487.65,-194.717 1557.27,-182.395 1616.5,-165 1618.93,-164.286 1621.43,-163.468 1623.91,-162.593"/>
<polygon fill="midnightblue" stroke="midnightblue" points="1625.2,-165.847 1633.31,-159.03 1622.72,-159.302 1625.2,-165.847"/>
</g>
<!-- Node40 -->
<g id="node40" class="node"><title>Node40</title>
<polygon fill="white" stroke="#bfbfbf" points="1555.5,-140 1555.5,-159 1607.5,-159 1607.5,-140 1555.5,-140"/>
<text text-anchor="middle" x="1581.5" y="-147" font-family="Helvetica,sans-Serif" font-size="10.00">sstream</text>
</g>
<!-- Node39&#45;&gt;Node40 -->
<g id="edge47" class="edge"><title>Node39&#45;&gt;Node40</title>
<path fill="none" stroke="midnightblue" d="M1417.17,-201.491C1451.08,-193.287 1502.7,-179.942 1546.5,-165 1548.41,-164.347 1550.37,-163.642 1552.34,-162.906"/>
<polygon fill="midnightblue" stroke="midnightblue" points="1554.03,-166.002 1562.05,-159.077 1551.46,-159.49 1554.03,-166.002"/>
</g>
<!-- Node41 -->
<g id="node41" class="node"><title>Node41</title>
<polygon fill="white" stroke="#bfbfbf" points="1363.5,-140 1363.5,-159 1413.5,-159 1413.5,-140 1363.5,-140"/>
<text text-anchor="middle" x="1388.5" y="-147" font-family="Helvetica,sans-Serif" font-size="10.00">iomanip</text>
</g>
<!-- Node39&#45;&gt;Node41 -->
<g id="edge48" class="edge"><title>Node39&#45;&gt;Node41</title>
<path fill="none" stroke="midnightblue" d="M1381.65,-201.475C1382.77,-193.08 1384.54,-179.981 1385.99,-169.163"/>
<polygon fill="midnightblue" stroke="midnightblue" points="1389.49,-169.386 1387.36,-159.009 1382.55,-168.453 1389.49,-169.386"/>
</g>
<!-- Node42 -->
<g id="node42" class="node"><title>Node42</title>
<polygon fill="white" stroke="#bfbfbf" points="1432,-134.5 1432,-164.5 1537,-164.5 1537,-134.5 1432,-134.5"/>
<text text-anchor="start" x="1440" y="-152.5" font-family="Helvetica,sans-Serif" font-size="10.00">boost/units/systems</text>
<text text-anchor="middle" x="1484.5" y="-141.5" font-family="Helvetica,sans-Serif" font-size="10.00">/si/io.hpp</text>
</g>
<!-- Node39&#45;&gt;Node42 -->
<g id="edge50" class="edge"><title>Node39&#45;&gt;Node42</title>
<path fill="none" stroke="midnightblue" d="M1395.4,-201.475C1409.88,-193.191 1432.37,-180.325 1451.13,-169.591"/>
<polygon fill="midnightblue" stroke="midnightblue" points="1453.05,-172.527 1459.99,-164.523 1449.57,-166.451 1453.05,-172.527"/>
</g>
<!-- Node44 -->
<g id="node44" class="node"><title>Node44</title>
<g id="a_node44"><a xlink:href="EnumIterator_8hh.html" target="_top" xlink:title="boca/generic/EnumIterator.hh">
<polygon fill="white" stroke="red" points="201,-140 201,-159 346,-159 346,-140 201,-140"/>
<text text-anchor="middle" x="273.5" y="-147" font-family="Helvetica,sans-Serif" font-size="10.00">boca/generic/EnumIterator.hh</text>
</a>
</g>
</g>
<!-- Node43&#45;&gt;Node44 -->
<g id="edge52" class="edge"><title>Node43&#45;&gt;Node44</title>
<path fill="none" stroke="midnightblue" d="M475.687,-201.475C433.978,-190.959 362.988,-173.062 317.186,-161.514"/>
<polygon fill="midnightblue" stroke="midnightblue" points="317.803,-158.06 307.25,-159.009 316.091,-164.848 317.803,-158.06"/>
</g>
<!-- Node44&#45;&gt;Node37 -->
<g id="edge53" class="edge"><title>Node44&#45;&gt;Node37</title>
<path fill="none" stroke="midnightblue" d="M244.02,-139.869C204.519,-128.303 134.319,-107.749 90.4848,-94.9145"/>
<polygon fill="midnightblue" stroke="midnightblue" points="91.3288,-91.5147 80.7482,-92.0637 89.3618,-98.2327 91.3288,-91.5147"/>
</g>
<!-- Node45&#45;&gt;Node3 -->
<g id="edge60" class="edge"><title>Node45&#45;&gt;Node3</title>
<path fill="none" stroke="midnightblue" d="M715.656,-385.976C705.754,-384.01 695.26,-381.929 685.5,-380 607.358,-364.553 585.297,-361.396 503.868,-344.258"/>
<polygon fill="midnightblue" stroke="midnightblue" points="504.144,-340.739 493.636,-342.097 502.697,-347.588 504.144,-340.739"/>
</g>
<!-- Node46 -->
<g id="node46" class="node"><title>Node46</title>
<polygon fill="white" stroke="#bfbfbf" points="511.5,-313.5 511.5,-343.5 621.5,-343.5 621.5,-313.5 511.5,-313.5"/>
<text text-anchor="start" x="519.5" y="-331.5" font-family="Helvetica,sans-Serif" font-size="10.00">boost/range/algorithm</text>
<text text-anchor="middle" x="566.5" y="-320.5" font-family="Helvetica,sans-Serif" font-size="10.00">/find.hpp</text>
</g>
<!-- Node45&#45;&gt;Node46 -->
<g id="edge57" class="edge"><title>Node45&#45;&gt;Node46</title>
<path fill="none" stroke="midnightblue" d="M733.004,-385.869C703.695,-375.946 654.845,-359.408 617.617,-346.805"/>
<polygon fill="midnightblue" stroke="midnightblue" points="618.531,-343.42 607.937,-343.528 616.286,-350.05 618.531,-343.42"/>
</g>
<!-- Node47 -->
<g id="node47" class="node"><title>Node47</title>
<polygon fill="white" stroke="#bfbfbf" points="639.5,-313.5 639.5,-343.5 749.5,-343.5 749.5,-313.5 639.5,-313.5"/>
<text text-anchor="start" x="647.5" y="-331.5" font-family="Helvetica,sans-Serif" font-size="10.00">boost/range/algorithm</text>
<text text-anchor="middle" x="694.5" y="-320.5" font-family="Helvetica,sans-Serif" font-size="10.00">/min_element.hpp</text>
</g>
<!-- Node45&#45;&gt;Node47 -->
<g id="edge58" class="edge"><title>Node45&#45;&gt;Node47</title>
<path fill="none" stroke="midnightblue" d="M749.869,-385.734C741.136,-376.865 727.299,-362.811 715.642,-350.972"/>
<polygon fill="midnightblue" stroke="midnightblue" points="717.882,-348.259 708.372,-343.589 712.894,-353.17 717.882,-348.259"/>
</g>
<!-- Node48 -->
<g id="node48" class="node"><title>Node48</title>
<polygon fill="white" stroke="#bfbfbf" points="767.5,-313.5 767.5,-343.5 877.5,-343.5 877.5,-313.5 767.5,-313.5"/>
<text text-anchor="start" x="775.5" y="-331.5" font-family="Helvetica,sans-Serif" font-size="10.00">boost/range/algorithm</text>
<text text-anchor="middle" x="822.5" y="-320.5" font-family="Helvetica,sans-Serif" font-size="10.00">_ext/push_back.hpp</text>
</g>
<!-- Node45&#45;&gt;Node48 -->
<g id="edge59" class="edge"><title>Node45&#45;&gt;Node48</title>
<path fill="none" stroke="midnightblue" d="M767.131,-385.734C775.864,-376.865 789.701,-362.811 801.358,-350.972"/>
<polygon fill="midnightblue" stroke="midnightblue" points="804.106,-353.17 808.628,-343.589 799.118,-348.259 804.106,-353.17"/>
</g>
<!-- Node49 -->
<g id="node49" class="node"><title>Node49</title>
<polygon fill="white" stroke="#bfbfbf" points="896,-319 896,-338 1023,-338 1023,-319 896,-319"/>
<text text-anchor="middle" x="959.5" y="-326" font-family="Helvetica,sans-Serif" font-size="10.00">boost/range/adaptors.hpp</text>
</g>
<!-- Node45&#45;&gt;Node49 -->
<g id="edge61" class="edge"><title>Node45&#45;&gt;Node49</title>
<path fill="none" stroke="midnightblue" d="M785.191,-385.869C820.73,-374.376 883.713,-354.008 923.448,-341.159"/>
<polygon fill="midnightblue" stroke="midnightblue" points="924.581,-344.471 933.018,-338.064 922.427,-337.81 924.581,-344.471"/>
</g>
<!-- Node50&#45;&gt;Node39 -->
<g id="edge63" class="edge"><title>Node50&#45;&gt;Node39</title>
<path fill="none" stroke="midnightblue" d="M1347.27,-380.483C1353.68,-347.957 1369.58,-267.343 1376.81,-230.683"/>
<polygon fill="midnightblue" stroke="midnightblue" points="1380.26,-231.307 1378.76,-220.819 1373.39,-229.952 1380.26,-231.307"/>
</g>
</g>
</svg>
