<?xml version="1.0" encoding="UTF-8" standalone="no"?>
<!DOCTYPE svg PUBLIC "-//W3C//DTD SVG 1.1//EN"
 "http://www.w3.org/Graphics/SVG/1.1/DTD/svg11.dtd">
<!-- Generated by graphviz version 2.38.0 (20140413.2041)
 -->
<!-- Title: boca/plotting/Plot.hh Pages: 1 -->
<svg width="1536pt" height="397pt"
 viewBox="0.00 0.00 1536.15 397.00" xmlns="http://www.w3.org/2000/svg" xmlns:xlink="http://www.w3.org/1999/xlink">
<g id="graph0" class="graph" transform="scale(1 1) rotate(0) translate(4 393)">
<title>boca/plotting/Plot.hh</title>
<polygon fill="white" stroke="none" points="-4,4 -4,-393 1532.15,-393 1532.15,4 -4,4"/>
<!-- Node1 -->
<g id="node1" class="node"><title>Node1</title>
<polygon fill="#bfbfbf" stroke="black" points="416.146,-369.5 416.146,-388.5 522.146,-388.5 522.146,-369.5 416.146,-369.5"/>
<text text-anchor="middle" x="469.146" y="-376.5" font-family="Helvetica,sans-Serif" font-size="10.00">boca/plotting/Plot.hh</text>
</g>
<!-- Node2 -->
<g id="node2" class="node"><title>Node2</title>
<g id="a_node2"><a xlink:href="Names_8hh.html" target="_top" xlink:title="boca/Names.hh">
<polygon fill="white" stroke="black" points="347.146,-313.5 347.146,-332.5 433.146,-332.5 433.146,-313.5 347.146,-313.5"/>
<text text-anchor="middle" x="390.146" y="-320.5" font-family="Helvetica,sans-Serif" font-size="10.00">boca/Names.hh</text>
</a>
</g>
</g>
<!-- Node1&#45;&gt;Node2 -->
<g id="edge1" class="edge"><title>Node1&#45;&gt;Node2</title>
<path fill="none" stroke="midnightblue" d="M456.453,-369.324C444.245,-360.979 425.568,-348.212 411.143,-338.352"/>
<polygon fill="midnightblue" stroke="midnightblue" points="413.038,-335.408 402.807,-332.655 409.088,-341.187 413.038,-335.408"/>
</g>
<!-- Node7 -->
<g id="node7" class="node"><title>Node7</title>
<g id="a_node7"><a xlink:href="Range_8hh.html" target="_top" xlink:title="boca/physics/Range.hh">
<polygon fill="white" stroke="black" points="409.646,-257.5 409.646,-276.5 528.646,-276.5 528.646,-257.5 409.646,-257.5"/>
<text text-anchor="middle" x="469.146" y="-264.5" font-family="Helvetica,sans-Serif" font-size="10.00">boca/physics/Range.hh</text>
</a>
</g>
</g>
<!-- Node1&#45;&gt;Node7 -->
<g id="edge6" class="edge"><title>Node1&#45;&gt;Node7</title>
<path fill="none" stroke="midnightblue" d="M469.146,-369.368C469.146,-351.617 469.146,-310.666 469.146,-286.597"/>
<polygon fill="midnightblue" stroke="midnightblue" points="472.646,-286.591 469.146,-276.591 465.646,-286.591 472.646,-286.591"/>
</g>
<!-- Node30 -->
<g id="node30" class="node"><title>Node30</title>
<g id="a_node30"><a xlink:href="Vector3_8hh.html" target="_top" xlink:title="boca/math/Vector3.hh">
<polygon fill="white" stroke="black" points="619.646,-313.5 619.646,-332.5 732.646,-332.5 732.646,-313.5 619.646,-313.5"/>
<text text-anchor="middle" x="676.146" y="-320.5" font-family="Helvetica,sans-Serif" font-size="10.00">boca/math/Vector3.hh</text>
</a>
</g>
</g>
<!-- Node1&#45;&gt;Node30 -->
<g id="edge35" class="edge"><title>Node1&#45;&gt;Node30</title>
<path fill="none" stroke="midnightblue" d="M501.946,-369.444C537.527,-360.162 594.461,-345.309 633.493,-335.127"/>
<polygon fill="midnightblue" stroke="midnightblue" points="634.707,-338.427 643.5,-332.516 632.94,-331.654 634.707,-338.427"/>
</g>
<!-- Node3 -->
<g id="node3" class="node"><title>Node3</title>
<g id="a_node3"><a xlink:href="String_8hh.html" target="_top" xlink:title="boca/latex/String.hh">
<polygon fill="white" stroke="black" points="302.146,-201.5 302.146,-220.5 406.146,-220.5 406.146,-201.5 302.146,-201.5"/>
<text text-anchor="middle" x="354.146" y="-208.5" font-family="Helvetica,sans-Serif" font-size="10.00">boca/latex/String.hh</text>
</a>
</g>
</g>
<!-- Node2&#45;&gt;Node3 -->
<g id="edge2" class="edge"><title>Node2&#45;&gt;Node3</title>
<path fill="none" stroke="midnightblue" d="M387.321,-313.368C381.485,-295.537 367.988,-254.295 360.126,-230.272"/>
<polygon fill="midnightblue" stroke="midnightblue" points="363.395,-229.007 356.958,-220.591 356.742,-231.184 363.395,-229.007"/>
</g>
<!-- Node4 -->
<g id="node4" class="node"><title>Node4</title>
<polygon fill="white" stroke="#bfbfbf" points="332.646,-140 332.646,-159 373.646,-159 373.646,-140 332.646,-140"/>
<text text-anchor="middle" x="353.146" y="-147" font-family="Helvetica,sans-Serif" font-size="10.00">string</text>
</g>
<!-- Node3&#45;&gt;Node4 -->
<g id="edge3" class="edge"><title>Node3&#45;&gt;Node4</title>
<path fill="none" stroke="midnightblue" d="M354.003,-201.475C353.862,-193.08 353.642,-179.981 353.46,-169.163"/>
<polygon fill="midnightblue" stroke="midnightblue" points="356.957,-168.949 353.289,-159.009 349.958,-169.067 356.957,-168.949"/>
</g>
<!-- Node5 -->
<g id="node5" class="node"><title>Node5</title>
<polygon fill="white" stroke="#bfbfbf" points="271.646,-140 271.646,-159 314.646,-159 314.646,-140 271.646,-140"/>
<text text-anchor="middle" x="293.146" y="-147" font-family="Helvetica,sans-Serif" font-size="10.00">deque</text>
</g>
<!-- Node3&#45;&gt;Node5 -->
<g id="edge4" class="edge"><title>Node3&#45;&gt;Node5</title>
<path fill="none" stroke="midnightblue" d="M345.406,-201.475C335.985,-192.285 320.782,-177.456 309.197,-166.156"/>
<polygon fill="midnightblue" stroke="midnightblue" points="311.472,-163.486 301.87,-159.009 306.584,-168.497 311.472,-163.486"/>
</g>
<!-- Node6 -->
<g id="node6" class="node"><title>Node6</title>
<polygon fill="white" stroke="#bfbfbf" points="399.146,-6 399.146,-25 443.146,-25 443.146,-6 399.146,-6"/>
<text text-anchor="middle" x="421.146" y="-13" font-family="Helvetica,sans-Serif" font-size="10.00">vector</text>
</g>
<!-- Node3&#45;&gt;Node6 -->
<g id="edge5" class="edge"><title>Node3&#45;&gt;Node6</title>
<path fill="none" stroke="midnightblue" d="M360.549,-201.466C366.841,-192.719 376.322,-178.521 382.146,-165 401.416,-120.263 413.048,-63.7255 418.127,-35.0314"/>
<polygon fill="midnightblue" stroke="midnightblue" points="421.578,-35.6146 419.806,-25.1691 414.677,-34.4399 421.578,-35.6146"/>
</g>
<!-- Node8 -->
<g id="node8" class="node"><title>Node8</title>
<polygon fill="white" stroke="#bfbfbf" points="468.146,-140 468.146,-159 522.146,-159 522.146,-140 468.146,-140"/>
<text text-anchor="middle" x="495.146" y="-147" font-family="Helvetica,sans-Serif" font-size="10.00">iostream</text>
</g>
<!-- Node7&#45;&gt;Node8 -->
<g id="edge7" class="edge"><title>Node7&#45;&gt;Node8</title>
<path fill="none" stroke="midnightblue" d="M471.1,-257.319C475.298,-238.673 485.254,-194.443 490.952,-169.132"/>
<polygon fill="midnightblue" stroke="midnightblue" points="494.388,-169.807 493.169,-159.282 487.559,-168.269 494.388,-169.807"/>
</g>
<!-- Node9 -->
<g id="node9" class="node"><title>Node9</title>
<polygon fill="white" stroke="#bfbfbf" points="425.146,-201.5 425.146,-220.5 465.146,-220.5 465.146,-201.5 425.146,-201.5"/>
<text text-anchor="middle" x="445.146" y="-208.5" font-family="Helvetica,sans-Serif" font-size="10.00">utility</text>
</g>
<!-- Node7&#45;&gt;Node9 -->
<g id="edge8" class="edge"><title>Node7&#45;&gt;Node9</title>
<path fill="none" stroke="midnightblue" d="M465.183,-257.083C461.933,-249.77 457.227,-239.181 453.192,-230.103"/>
<polygon fill="midnightblue" stroke="midnightblue" points="456.295,-228.468 449.036,-220.751 449.899,-231.311 456.295,-228.468"/>
</g>
<!-- Node10 -->
<g id="node10" class="node"><title>Node10</title>
<g id="a_node10"><a xlink:href="Units_8hh.html" target="_top" xlink:title="boca/physics/Units.hh">
<polygon fill="white" stroke="black" points="812.146,-201.5 812.146,-220.5 926.146,-220.5 926.146,-201.5 812.146,-201.5"/>
<text text-anchor="middle" x="869.146" y="-208.5" font-family="Helvetica,sans-Serif" font-size="10.00">boca/physics/Units.hh</text>
</a>
</g>
</g>
<!-- Node7&#45;&gt;Node10 -->
<g id="edge9" class="edge"><title>Node7&#45;&gt;Node10</title>
<path fill="none" stroke="midnightblue" d="M529.03,-257.916C602.241,-248.032 725.79,-231.353 802.111,-221.05"/>
<polygon fill="midnightblue" stroke="midnightblue" points="802.655,-224.508 812.097,-219.702 801.718,-217.571 802.655,-224.508"/>
</g>
<!-- Node27 -->
<g id="node27" class="node"><title>Node27</title>
<g id="a_node27"><a xlink:href="Math_8hh.html" target="_top" xlink:title="boca/math/Math.hh">
<polygon fill="white" stroke="black" points="83.6462,-201.5 83.6462,-220.5 184.646,-220.5 184.646,-201.5 83.6462,-201.5"/>
<text text-anchor="middle" x="134.146" y="-208.5" font-family="Helvetica,sans-Serif" font-size="10.00">boca/math/Math.hh</text>
</a>
</g>
</g>
<!-- Node7&#45;&gt;Node27 -->
<g id="edge31" class="edge"><title>Node7&#45;&gt;Node27</title>
<path fill="none" stroke="midnightblue" d="M416.064,-257.444C355.945,-247.753 258.157,-231.99 195,-221.809"/>
<polygon fill="midnightblue" stroke="midnightblue" points="195.216,-218.299 184.787,-220.163 194.102,-225.21 195.216,-218.299"/>
</g>
<!-- Node11 -->
<g id="node11" class="node"><title>Node11</title>
<polygon fill="white" stroke="#bfbfbf" points="802.646,-140 802.646,-159 915.646,-159 915.646,-140 802.646,-140"/>
<text text-anchor="middle" x="859.146" y="-147" font-family="Helvetica,sans-Serif" font-size="10.00">boost/units/cmath.hpp</text>
</g>
<!-- Node10&#45;&gt;Node11 -->
<g id="edge10" class="edge"><title>Node10&#45;&gt;Node11</title>
<path fill="none" stroke="midnightblue" d="M867.713,-201.475C866.303,-193.08 864.101,-179.981 862.283,-169.163"/>
<polygon fill="midnightblue" stroke="midnightblue" points="865.685,-168.291 860.576,-159.009 858.782,-169.451 865.685,-168.291"/>
</g>
<!-- Node12 -->
<g id="node12" class="node"><title>Node12</title>
<g id="a_node12"><a xlink:href="Prefixes_8hh.html" target="_top" xlink:title="boca/physics/Prefixes.hh">
<polygon fill="white" stroke="black" points="933.646,-140 933.646,-159 1060.65,-159 1060.65,-140 933.646,-140"/>
<text text-anchor="middle" x="997.146" y="-147" font-family="Helvetica,sans-Serif" font-size="10.00">boca/physics/Prefixes.hh</text>
</a>
</g>
</g>
<!-- Node10&#45;&gt;Node12 -->
<g id="edge11" class="edge"><title>Node10&#45;&gt;Node12</title>
<path fill="none" stroke="midnightblue" d="M887.485,-201.475C908.967,-191.49 944.768,-174.848 969.594,-163.307"/>
<polygon fill="midnightblue" stroke="midnightblue" points="971.248,-166.398 978.841,-159.009 968.297,-160.051 971.248,-166.398"/>
</g>
<!-- Node13 -->
<g id="node13" class="node"><title>Node13</title>
<polygon fill="white" stroke="#bfbfbf" points="468.146,-73 468.146,-92 578.146,-92 578.146,-73 468.146,-73"/>
<text text-anchor="middle" x="523.146" y="-80" font-family="Helvetica,sans-Serif" font-size="10.00">boost/units/scale.hpp</text>
</g>
<!-- Node12&#45;&gt;Node13 -->
<g id="edge12" class="edge"><title>Node12&#45;&gt;Node13</title>
<path fill="none" stroke="midnightblue" d="M957.479,-139.949C946.699,-137.809 935.004,-135.655 924.146,-134 775.236,-111.304 735.74,-122.684 587.146,-98 580.803,-96.9464 574.147,-95.6526 567.623,-94.2757"/>
<polygon fill="midnightblue" stroke="midnightblue" points="568.062,-90.7889 557.544,-92.0663 566.563,-97.6266 568.062,-90.7889"/>
</g>
<!-- Node14 -->
<g id="node14" class="node"><title>Node14</title>
<polygon fill="white" stroke="#bfbfbf" points="725.646,-67.5 725.646,-97.5 850.646,-97.5 850.646,-67.5 725.646,-67.5"/>
<text text-anchor="start" x="733.646" y="-85.5" font-family="Helvetica,sans-Serif" font-size="10.00">boost/units/make_scaled</text>
<text text-anchor="middle" x="788.146" y="-74.5" font-family="Helvetica,sans-Serif" font-size="10.00">_unit.hpp</text>
</g>
<!-- Node12&#45;&gt;Node14 -->
<g id="edge13" class="edge"><title>Node12&#45;&gt;Node14</title>
<path fill="none" stroke="midnightblue" d="M969.393,-139.869C937.285,-129.883 883.634,-113.197 843.014,-100.564"/>
<polygon fill="midnightblue" stroke="midnightblue" points="843.84,-97.1558 833.252,-97.5281 841.761,-103.84 843.84,-97.1558"/>
</g>
<!-- Node15 -->
<g id="node15" class="node"><title>Node15</title>
<polygon fill="white" stroke="#bfbfbf" points="868.646,-67.5 868.646,-97.5 979.646,-97.5 979.646,-67.5 868.646,-67.5"/>
<text text-anchor="start" x="876.646" y="-85.5" font-family="Helvetica,sans-Serif" font-size="10.00">boost/units/systems</text>
<text text-anchor="middle" x="924.146" y="-74.5" font-family="Helvetica,sans-Serif" font-size="10.00">/si/dimensionless.hpp</text>
</g>
<!-- Node12&#45;&gt;Node15 -->
<g id="edge14" class="edge"><title>Node12&#45;&gt;Node15</title>
<path fill="none" stroke="midnightblue" d="M987.301,-139.734C977.151,-130.696 960.954,-116.274 947.504,-104.298"/>
<polygon fill="midnightblue" stroke="midnightblue" points="949.765,-101.625 939.969,-97.589 945.11,-106.853 949.765,-101.625"/>
</g>
<!-- Node16 -->
<g id="node16" class="node"><title>Node16</title>
<polygon fill="white" stroke="#bfbfbf" points="998.146,-73 998.146,-92 1102.15,-92 1102.15,-73 998.146,-73"/>
<text text-anchor="middle" x="1050.15" y="-80" font-family="Helvetica,sans-Serif" font-size="10.00">boost/units/pow.hpp</text>
</g>
<!-- Node12&#45;&gt;Node16 -->
<g id="edge15" class="edge"><title>Node12&#45;&gt;Node16</title>
<path fill="none" stroke="midnightblue" d="M1004.29,-139.734C1012.56,-129.598 1026.35,-112.69 1036.65,-100.056"/>
<polygon fill="midnightblue" stroke="midnightblue" points="1039.5,-102.089 1043.11,-92.1273 1034.08,-97.6657 1039.5,-102.089"/>
</g>
<!-- Node17 -->
<g id="node17" class="node"><title>Node17</title>
<g id="a_node17"><a xlink:href="Si_8hh.html" target="_top" xlink:title="boca/physics/Si.hh">
<polygon fill="white" stroke="black" points="1282.15,-73 1282.15,-92 1382.15,-92 1382.15,-73 1282.15,-73"/>
<text text-anchor="middle" x="1332.15" y="-80" font-family="Helvetica,sans-Serif" font-size="10.00">boca/physics/Si.hh</text>
</a>
</g>
</g>
<!-- Node12&#45;&gt;Node17 -->
<g id="edge16" class="edge"><title>Node12&#45;&gt;Node17</title>
<path fill="none" stroke="midnightblue" d="M1038.61,-139.972C1048.6,-137.966 1059.25,-135.87 1069.15,-134 1159.61,-116.911 1183.06,-116.997 1273.15,-98 1278.3,-96.9125 1283.7,-95.6971 1289.03,-94.4451"/>
<polygon fill="midnightblue" stroke="midnightblue" points="1290.25,-97.7527 1299.16,-92.0166 1288.62,-90.9458 1290.25,-97.7527"/>
</g>
<!-- Node21 -->
<g id="node21" class="node"><title>Node21</title>
<g id="a_node21"><a xlink:href="Barn_8hh.html" target="_top" xlink:title="boca/physics/Barn.hh">
<polygon fill="white" stroke="black" points="596.646,-73 596.646,-92 707.646,-92 707.646,-73 596.646,-73"/>
<text text-anchor="middle" x="652.146" y="-80" font-family="Helvetica,sans-Serif" font-size="10.00">boca/physics/Barn.hh</text>
</a>
</g>
</g>
<!-- Node12&#45;&gt;Node21 -->
<g id="edge20" class="edge"><title>Node12&#45;&gt;Node21</title>
<path fill="none" stroke="midnightblue" d="M955.104,-139.965C944.976,-137.96 934.182,-135.865 924.146,-134 831.906,-116.86 808.149,-116.371 716.146,-98 710.349,-96.8424 704.272,-95.5583 698.268,-94.2466"/>
<polygon fill="midnightblue" stroke="midnightblue" points="698.814,-90.7826 688.293,-92.0304 697.296,-97.616 698.814,-90.7826"/>
</g>
<!-- Node25 -->
<g id="node25" class="node"><title>Node25</title>
<g id="a_node25"><a xlink:href="ElectronVolt_8hh.html" target="_top" xlink:title="boca/physics/ElectronVolt.hh">
<polygon fill="white" stroke="black" points="1120.15,-73 1120.15,-92 1264.15,-92 1264.15,-73 1120.15,-73"/>
<text text-anchor="middle" x="1192.15" y="-80" font-family="Helvetica,sans-Serif" font-size="10.00">boca/physics/ElectronVolt.hh</text>
</a>
</g>
</g>
<!-- Node12&#45;&gt;Node25 -->
<g id="edge26" class="edge"><title>Node12&#45;&gt;Node25</title>
<path fill="none" stroke="midnightblue" d="M1023.04,-139.869C1057.37,-128.424 1118.1,-108.181 1156.68,-95.3223"/>
<polygon fill="midnightblue" stroke="midnightblue" points="1158.08,-98.5464 1166.46,-92.0637 1155.86,-91.9056 1158.08,-98.5464"/>
</g>
<!-- Node18 -->
<g id="node18" class="node"><title>Node18</title>
<polygon fill="white" stroke="#bfbfbf" points="1017.65,-6 1017.65,-25 1138.65,-25 1138.65,-6 1017.65,-6"/>
<text text-anchor="middle" x="1078.15" y="-13" font-family="Helvetica,sans-Serif" font-size="10.00">boost/units/quantity.hpp</text>
</g>
<!-- Node17&#45;&gt;Node18 -->
<g id="edge17" class="edge"><title>Node17&#45;&gt;Node18</title>
<path fill="none" stroke="midnightblue" d="M1298.68,-72.9355C1253.18,-61.2928 1171.75,-40.4539 1121.59,-27.617"/>
<polygon fill="midnightblue" stroke="midnightblue" points="1122.24,-24.1719 1111.69,-25.0834 1120.51,-30.9534 1122.24,-24.1719"/>
</g>
<!-- Node19 -->
<g id="node19" class="node"><title>Node19</title>
<polygon fill="white" stroke="#bfbfbf" points="1279.65,-0.5 1279.65,-30.5 1384.65,-30.5 1384.65,-0.5 1279.65,-0.5"/>
<text text-anchor="start" x="1287.65" y="-18.5" font-family="Helvetica,sans-Serif" font-size="10.00">boost/units/systems</text>
<text text-anchor="middle" x="1332.15" y="-7.5" font-family="Helvetica,sans-Serif" font-size="10.00">/si/plane_angle.hpp</text>
</g>
<!-- Node17&#45;&gt;Node19 -->
<g id="edge18" class="edge"><title>Node17&#45;&gt;Node19</title>
<path fill="none" stroke="midnightblue" d="M1332.15,-72.7338C1332.15,-64.5406 1332.15,-51.9225 1332.15,-40.7136"/>
<polygon fill="midnightblue" stroke="midnightblue" points="1335.65,-40.589 1332.15,-30.589 1328.65,-40.5891 1335.65,-40.589"/>
</g>
<!-- Node20 -->
<g id="node20" class="node"><title>Node20</title>
<polygon fill="white" stroke="#bfbfbf" points="1402.65,-0.5 1402.65,-30.5 1507.65,-30.5 1507.65,-0.5 1402.65,-0.5"/>
<text text-anchor="start" x="1410.65" y="-18.5" font-family="Helvetica,sans-Serif" font-size="10.00">boost/units/systems</text>
<text text-anchor="middle" x="1455.15" y="-7.5" font-family="Helvetica,sans-Serif" font-size="10.00">/si/length.hpp</text>
</g>
<!-- Node17&#45;&gt;Node20 -->
<g id="edge19" class="edge"><title>Node17&#45;&gt;Node20</title>
<path fill="none" stroke="midnightblue" d="M1348.48,-72.8685C1366.48,-63.3566 1395.98,-47.7655 1419.4,-35.3888"/>
<polygon fill="midnightblue" stroke="midnightblue" points="1421.16,-38.4184 1428.37,-30.6516 1417.89,-32.2295 1421.16,-38.4184"/>
</g>
<!-- Node21&#45;&gt;Node6 -->
<g id="edge21" class="edge"><title>Node21&#45;&gt;Node6</title>
<path fill="none" stroke="midnightblue" d="M621.471,-72.8685C577.636,-60.5338 497.47,-37.9763 452.996,-25.462"/>
<polygon fill="midnightblue" stroke="midnightblue" points="453.861,-22.0695 443.286,-22.7299 451.965,-28.8078 453.861,-22.0695"/>
</g>
<!-- Node21&#45;&gt;Node18 -->
<g id="edge24" class="edge"><title>Node21&#45;&gt;Node18</title>
<path fill="none" stroke="midnightblue" d="M686.895,-72.962C696.346,-70.8221 706.606,-68.6644 716.146,-67 844.961,-44.5253 879.129,-52.2792 1008.15,-31 1015.06,-29.8602 1022.32,-28.5182 1029.45,-27.1185"/>
<polygon fill="midnightblue" stroke="midnightblue" points="1030.63,-30.4516 1039.74,-25.0435 1029.25,-23.5897 1030.63,-30.4516"/>
</g>
<!-- Node22 -->
<g id="node22" class="node"><title>Node22</title>
<polygon fill="white" stroke="#bfbfbf" points="842.646,-6 842.646,-25 999.646,-25 999.646,-6 842.646,-6"/>
<text text-anchor="middle" x="921.146" y="-13" font-family="Helvetica,sans-Serif" font-size="10.00">boost/units/base_dimension.hpp</text>
</g>
<!-- Node21&#45;&gt;Node22 -->
<g id="edge22" class="edge"><title>Node21&#45;&gt;Node22</title>
<path fill="none" stroke="midnightblue" d="M687.59,-72.9355C735.974,-61.2442 822.735,-40.2797 875.803,-27.4566"/>
<polygon fill="midnightblue" stroke="midnightblue" points="876.726,-30.8343 885.624,-25.0834 875.082,-24.0302 876.726,-30.8343"/>
</g>
<!-- Node23 -->
<g id="node23" class="node"><title>Node23</title>
<polygon fill="white" stroke="#bfbfbf" points="696.146,-6 696.146,-25 824.146,-25 824.146,-6 696.146,-6"/>
<text text-anchor="middle" x="760.146" y="-13" font-family="Helvetica,sans-Serif" font-size="10.00">boost/units/base_unit.hpp</text>
</g>
<!-- Node21&#45;&gt;Node23 -->
<g id="edge23" class="edge"><title>Node21&#45;&gt;Node23</title>
<path fill="none" stroke="midnightblue" d="M666.712,-72.7338C684.767,-61.8669 715.756,-43.2161 737.062,-30.3931"/>
<polygon fill="midnightblue" stroke="midnightblue" points="739.048,-33.2827 745.812,-25.1273 735.439,-27.2852 739.048,-33.2827"/>
</g>
<!-- Node24 -->
<g id="node24" class="node"><title>Node24</title>
<polygon fill="white" stroke="#bfbfbf" points="562.646,-0.5 562.646,-30.5 677.646,-30.5 677.646,-0.5 562.646,-0.5"/>
<text text-anchor="start" x="570.646" y="-18.5" font-family="Helvetica,sans-Serif" font-size="10.00">boost/units/base_units</text>
<text text-anchor="middle" x="620.146" y="-7.5" font-family="Helvetica,sans-Serif" font-size="10.00">/metric/barn.hpp</text>
</g>
<!-- Node21&#45;&gt;Node24 -->
<g id="edge25" class="edge"><title>Node21&#45;&gt;Node24</title>
<path fill="none" stroke="midnightblue" d="M647.831,-72.7338C643.672,-64.2872 637.199,-51.1378 631.557,-39.6778"/>
<polygon fill="midnightblue" stroke="midnightblue" points="634.639,-38.0148 627.082,-30.589 628.359,-41.1066 634.639,-38.0148"/>
</g>
<!-- Node25&#45;&gt;Node18 -->
<g id="edge29" class="edge"><title>Node25&#45;&gt;Node18</title>
<path fill="none" stroke="midnightblue" d="M1176.77,-72.7338C1157.63,-61.8182 1124.71,-43.0487 1102.21,-30.2209"/>
<polygon fill="midnightblue" stroke="midnightblue" points="1103.7,-27.04 1093.28,-25.1273 1100.23,-33.121 1103.7,-27.04"/>
</g>
<!-- Node25&#45;&gt;Node22 -->
<g id="edge27" class="edge"><title>Node25&#45;&gt;Node22</title>
<path fill="none" stroke="midnightblue" d="M1156.44,-72.9355C1107.7,-61.2442 1020.29,-40.2797 966.827,-27.4566"/>
<polygon fill="midnightblue" stroke="midnightblue" points="967.473,-24.0124 956.932,-25.0834 965.84,-30.8193 967.473,-24.0124"/>
</g>
<!-- Node25&#45;&gt;Node23 -->
<g id="edge28" class="edge"><title>Node25&#45;&gt;Node23</title>
<path fill="none" stroke="midnightblue" d="M1146.8,-72.9837C1135.2,-70.914 1122.72,-68.7849 1111.15,-67 988.014,-48.0176 956.093,-51.1477 833.146,-31 825.787,-29.7941 818.037,-28.395 810.444,-26.9511"/>
<polygon fill="midnightblue" stroke="midnightblue" points="811.085,-23.5103 800.601,-25.0396 809.751,-30.3819 811.085,-23.5103"/>
</g>
<!-- Node26 -->
<g id="node26" class="node"><title>Node26</title>
<polygon fill="white" stroke="#bfbfbf" points="1156.65,-0.5 1156.65,-30.5 1261.65,-30.5 1261.65,-0.5 1156.65,-0.5"/>
<text text-anchor="start" x="1164.65" y="-18.5" font-family="Helvetica,sans-Serif" font-size="10.00">boost/units/systems</text>
<text text-anchor="middle" x="1209.15" y="-7.5" font-family="Helvetica,sans-Serif" font-size="10.00">/si/energy.hpp</text>
</g>
<!-- Node25&#45;&gt;Node26 -->
<g id="edge30" class="edge"><title>Node25&#45;&gt;Node26</title>
<path fill="none" stroke="midnightblue" d="M1194.44,-72.7338C1196.6,-64.4561 1199.95,-51.6619 1202.9,-40.3674"/>
<polygon fill="midnightblue" stroke="midnightblue" points="1206.32,-41.1492 1205.46,-30.589 1199.54,-39.378 1206.32,-41.1492"/>
</g>
<!-- Node27&#45;&gt;Node6 -->
<g id="edge32" class="edge"><title>Node27&#45;&gt;Node6</title>
<path fill="none" stroke="midnightblue" d="M83.542,-206.012C55.8259,-200.941 23.6438,-189.699 6.14616,-165 -1.8184,-153.758 -2.16388,-144.99 6.14616,-134 53.3437,-71.584 300.091,-32.7646 389.095,-20.6153"/>
<polygon fill="midnightblue" stroke="midnightblue" points="389.698,-24.0658 399.143,-19.2661 388.767,-17.1281 389.698,-24.0658"/>
</g>
<!-- Node28 -->
<g id="node28" class="node"><title>Node28</title>
<polygon fill="white" stroke="#bfbfbf" points="143.146,-134.5 143.146,-164.5 253.146,-164.5 253.146,-134.5 143.146,-134.5"/>
<text text-anchor="start" x="151.146" y="-152.5" font-family="Helvetica,sans-Serif" font-size="10.00">boost/range/algorithm</text>
<text text-anchor="middle" x="198.146" y="-141.5" font-family="Helvetica,sans-Serif" font-size="10.00">/lower_bound.hpp</text>
</g>
<!-- Node27&#45;&gt;Node28 -->
<g id="edge33" class="edge"><title>Node27&#45;&gt;Node28</title>
<path fill="none" stroke="midnightblue" d="M143.316,-201.475C151.741,-193.643 164.571,-181.714 175.703,-171.366"/>
<polygon fill="midnightblue" stroke="midnightblue" points="178.122,-173.895 183.063,-164.523 173.356,-168.769 178.122,-173.895"/>
</g>
<!-- Node29 -->
<g id="node29" class="node"><title>Node29</title>
<polygon fill="white" stroke="#bfbfbf" points="15.1462,-134.5 15.1462,-164.5 125.146,-164.5 125.146,-134.5 15.1462,-134.5"/>
<text text-anchor="start" x="23.1462" y="-152.5" font-family="Helvetica,sans-Serif" font-size="10.00">boost/range/algorithm</text>
<text text-anchor="middle" x="70.1462" y="-141.5" font-family="Helvetica,sans-Serif" font-size="10.00">/upper_bound.hpp</text>
</g>
<!-- Node27&#45;&gt;Node29 -->
<g id="edge34" class="edge"><title>Node27&#45;&gt;Node29</title>
<path fill="none" stroke="midnightblue" d="M124.977,-201.475C116.552,-193.643 103.721,-181.714 92.5898,-171.366"/>
<polygon fill="midnightblue" stroke="midnightblue" points="94.9367,-168.769 85.2297,-164.523 90.1705,-173.895 94.9367,-168.769"/>
</g>
<!-- Node31 -->
<g id="node31" class="node"><title>Node31</title>
<polygon fill="white" stroke="#bfbfbf" points="643.646,-257.5 643.646,-276.5 708.646,-276.5 708.646,-257.5 643.646,-257.5"/>
<text text-anchor="middle" x="676.146" y="-264.5" font-family="Helvetica,sans-Serif" font-size="10.00">TVector3.h</text>
</g>
<!-- Node30&#45;&gt;Node31 -->
<g id="edge36" class="edge"><title>Node30&#45;&gt;Node31</title>
<path fill="none" stroke="midnightblue" d="M676.146,-313.083C676.146,-306.006 676.146,-295.861 676.146,-286.986"/>
<polygon fill="midnightblue" stroke="midnightblue" points="679.646,-286.751 676.146,-276.751 672.646,-286.751 679.646,-286.751"/>
</g>
<!-- Node32 -->
<g id="node32" class="node"><title>Node32</title>
<g id="a_node32"><a xlink:href="Vector2_8hh.html" target="_top" xlink:title="boca/math/Vector2.hh">
<polygon fill="white" stroke="black" points="854.646,-257.5 854.646,-276.5 967.646,-276.5 967.646,-257.5 854.646,-257.5"/>
<text text-anchor="middle" x="911.146" y="-264.5" font-family="Helvetica,sans-Serif" font-size="10.00">boca/math/Vector2.hh</text>
</a>
</g>
</g>
<!-- Node30&#45;&gt;Node32 -->
<g id="edge37" class="edge"><title>Node30&#45;&gt;Node32</title>
<path fill="none" stroke="midnightblue" d="M713.383,-313.444C754.206,-304.063 819.789,-288.993 864.131,-278.804"/>
<polygon fill="midnightblue" stroke="midnightblue" points="865.122,-282.167 874.084,-276.516 863.554,-275.345 865.122,-282.167"/>
</g>
<!-- Node32&#45;&gt;Node10 -->
<g id="edge52" class="edge"><title>Node32&#45;&gt;Node10</title>
<path fill="none" stroke="midnightblue" d="M904.211,-257.083C898.217,-249.377 889.394,-238.033 882.099,-228.653"/>
<polygon fill="midnightblue" stroke="midnightblue" points="884.855,-226.496 875.953,-220.751 879.329,-230.793 884.855,-226.496"/>
</g>
<!-- Node33 -->
<g id="node33" class="node"><title>Node33</title>
<polygon fill="white" stroke="#bfbfbf" points="1078.65,-140 1078.65,-159 1181.65,-159 1181.65,-140 1078.65,-140"/>
<text text-anchor="middle" x="1130.15" y="-147" font-family="Helvetica,sans-Serif" font-size="10.00">boost/operators.hpp</text>
</g>
<!-- Node32&#45;&gt;Node33 -->
<g id="edge38" class="edge"><title>Node32&#45;&gt;Node33</title>
<path fill="none" stroke="midnightblue" d="M927.456,-257.369C951.005,-244.909 995.903,-221.164 1034.15,-201 1058.09,-188.377 1085.4,-174.011 1104.76,-163.837"/>
<polygon fill="midnightblue" stroke="midnightblue" points="1106.61,-166.819 1113.83,-159.069 1103.35,-160.622 1106.61,-166.819"/>
</g>
<!-- Node34 -->
<g id="node34" class="node"><title>Node34</title>
<g id="a_node34"><a xlink:href="Debug_8hh.html" target="_top" xlink:title="boca/generic/Debug.hh">
<polygon fill="white" stroke="black" points="521.646,-201.5 521.646,-220.5 638.646,-220.5 638.646,-201.5 521.646,-201.5"/>
<text text-anchor="middle" x="580.146" y="-208.5" font-family="Helvetica,sans-Serif" font-size="10.00">boca/generic/Debug.hh</text>
</a>
</g>
</g>
<!-- Node32&#45;&gt;Node34 -->
<g id="edge39" class="edge"><title>Node32&#45;&gt;Node34</title>
<path fill="none" stroke="midnightblue" d="M858.698,-257.444C799.988,-247.865 704.918,-232.356 642.464,-222.167"/>
<polygon fill="midnightblue" stroke="midnightblue" points="642.782,-218.672 632.349,-220.516 641.655,-225.581 642.782,-218.672"/>
</g>
<!-- Node38 -->
<g id="node38" class="node"><title>Node38</title>
<g id="a_node38"><a xlink:href="Iterator_8hh.html" target="_top" xlink:title="boca/generic/Iterator.hh">
<polygon fill="white" stroke="black" points="1293.65,-201.5 1293.65,-220.5 1412.65,-220.5 1412.65,-201.5 1293.65,-201.5"/>
<text text-anchor="middle" x="1353.15" y="-208.5" font-family="Helvetica,sans-Serif" font-size="10.00">boca/generic/Iterator.hh</text>
</a>
</g>
</g>
<!-- Node32&#45;&gt;Node38 -->
<g id="edge46" class="edge"><title>Node32&#45;&gt;Node38</title>
<path fill="none" stroke="midnightblue" d="M968.025,-259.051C1048.65,-249.201 1196.05,-231.193 1283.24,-220.54"/>
<polygon fill="midnightblue" stroke="midnightblue" points="1283.81,-223.997 1293.31,-219.31 1282.96,-217.049 1283.81,-223.997"/>
</g>
<!-- Node42 -->
<g id="node42" class="node"><title>Node42</title>
<g id="a_node42"><a xlink:href="GradedContainer_8hh.html" target="_top" xlink:title="boca/math/GradedContainer.hh">
<polygon fill="white" stroke="black" points="1043.15,-201.5 1043.15,-220.5 1195.15,-220.5 1195.15,-201.5 1043.15,-201.5"/>
<text text-anchor="middle" x="1119.15" y="-208.5" font-family="Helvetica,sans-Serif" font-size="10.00">boca/math/GradedContainer.hh</text>
</a>
</g>
</g>
<!-- Node32&#45;&gt;Node42 -->
<g id="edge50" class="edge"><title>Node32&#45;&gt;Node42</title>
<path fill="none" stroke="midnightblue" d="M944.104,-257.444C979.933,-248.142 1037.31,-233.246 1076.54,-223.062"/>
<polygon fill="midnightblue" stroke="midnightblue" points="1077.54,-226.417 1086.34,-220.516 1075.78,-219.642 1077.54,-226.417"/>
</g>
<!-- Node34&#45;&gt;Node4 -->
<g id="edge40" class="edge"><title>Node34&#45;&gt;Node4</title>
<path fill="none" stroke="midnightblue" d="M534.578,-201.495C495.313,-193.653 437.356,-180.844 388.146,-165 386.01,-164.312 383.821,-163.55 381.632,-162.746"/>
<polygon fill="midnightblue" stroke="midnightblue" points="382.78,-159.436 372.192,-159.048 380.227,-165.954 382.78,-159.436"/>
</g>
<!-- Node34&#45;&gt;Node6 -->
<g id="edge41" class="edge"><title>Node34&#45;&gt;Node6</title>
<path fill="none" stroke="midnightblue" d="M525.842,-201.439C502.326,-195.092 476.31,-184.078 459.146,-165 426.003,-128.16 420.97,-66.344 420.689,-35.3779"/>
<polygon fill="midnightblue" stroke="midnightblue" points="424.191,-35.1626 420.766,-25.1368 417.191,-35.1104 424.191,-35.1626"/>
</g>
<!-- Node34&#45;&gt;Node8 -->
<g id="edge44" class="edge"><title>Node34&#45;&gt;Node8</title>
<path fill="none" stroke="midnightblue" d="M567.968,-201.475C554.334,-191.931 532.014,-176.307 515.672,-164.868"/>
<polygon fill="midnightblue" stroke="midnightblue" points="517.501,-161.876 507.302,-159.009 513.487,-167.611 517.501,-161.876"/>
</g>
<!-- Node35 -->
<g id="node35" class="node"><title>Node35</title>
<polygon fill="white" stroke="#bfbfbf" points="732.146,-140 732.146,-159 784.146,-159 784.146,-140 732.146,-140"/>
<text text-anchor="middle" x="758.146" y="-147" font-family="Helvetica,sans-Serif" font-size="10.00">sstream</text>
</g>
<!-- Node34&#45;&gt;Node35 -->
<g id="edge42" class="edge"><title>Node34&#45;&gt;Node35</title>
<path fill="none" stroke="midnightblue" d="M609.463,-201.42C638.329,-192.806 683.57,-178.859 722.146,-165 724.049,-164.317 725.999,-163.594 727.961,-162.851"/>
<polygon fill="midnightblue" stroke="midnightblue" points="729.647,-165.951 737.689,-159.053 727.101,-159.43 729.647,-165.951"/>
</g>
<!-- Node36 -->
<g id="node36" class="node"><title>Node36</title>
<polygon fill="white" stroke="#bfbfbf" points="540.146,-140 540.146,-159 590.146,-159 590.146,-140 540.146,-140"/>
<text text-anchor="middle" x="565.146" y="-147" font-family="Helvetica,sans-Serif" font-size="10.00">iomanip</text>
</g>
<!-- Node34&#45;&gt;Node36 -->
<g id="edge43" class="edge"><title>Node34&#45;&gt;Node36</title>
<path fill="none" stroke="midnightblue" d="M577.997,-201.475C575.858,-192.992 572.509,-179.704 569.765,-168.822"/>
<polygon fill="midnightblue" stroke="midnightblue" points="573.13,-167.85 567.291,-159.009 566.342,-169.561 573.13,-167.85"/>
</g>
<!-- Node37 -->
<g id="node37" class="node"><title>Node37</title>
<polygon fill="white" stroke="#bfbfbf" points="608.646,-134.5 608.646,-164.5 713.646,-164.5 713.646,-134.5 608.646,-134.5"/>
<text text-anchor="start" x="616.646" y="-152.5" font-family="Helvetica,sans-Serif" font-size="10.00">boost/units/systems</text>
<text text-anchor="middle" x="661.146" y="-141.5" font-family="Helvetica,sans-Serif" font-size="10.00">/si/io.hpp</text>
</g>
<!-- Node34&#45;&gt;Node37 -->
<g id="edge45" class="edge"><title>Node34&#45;&gt;Node37</title>
<path fill="none" stroke="midnightblue" d="M591.751,-201.475C602.722,-193.417 619.594,-181.023 633.955,-170.474"/>
<polygon fill="midnightblue" stroke="midnightblue" points="636.069,-173.264 642.056,-164.523 631.925,-167.622 636.069,-173.264"/>
</g>
<!-- Node39 -->
<g id="node39" class="node"><title>Node39</title>
<g id="a_node39"><a xlink:href="EnumIterator_8hh.html" target="_top" xlink:title="boca/generic/EnumIterator.hh">
<polygon fill="white" stroke="black" points="1351.65,-140 1351.65,-159 1496.65,-159 1496.65,-140 1351.65,-140"/>
<text text-anchor="middle" x="1424.15" y="-147" font-family="Helvetica,sans-Serif" font-size="10.00">boca/generic/EnumIterator.hh</text>
</a>
</g>
</g>
<!-- Node38&#45;&gt;Node39 -->
<g id="edge47" class="edge"><title>Node38&#45;&gt;Node39</title>
<path fill="none" stroke="midnightblue" d="M1363.32,-201.475C1374.5,-192.108 1392.66,-176.884 1406.24,-165.508"/>
<polygon fill="midnightblue" stroke="midnightblue" points="1408.58,-168.115 1413.99,-159.009 1404.08,-162.75 1408.58,-168.115"/>
</g>
<!-- Node40 -->
<g id="node40" class="node"><title>Node40</title>
<polygon fill="white" stroke="#bfbfbf" points="1400.65,-73 1400.65,-92 1447.65,-92 1447.65,-73 1400.65,-73"/>
<text text-anchor="middle" x="1424.15" y="-80" font-family="Helvetica,sans-Serif" font-size="10.00">iterator</text>
</g>
<!-- Node39&#45;&gt;Node40 -->
<g id="edge48" class="edge"><title>Node39&#45;&gt;Node40</title>
<path fill="none" stroke="midnightblue" d="M1424.15,-139.734C1424.15,-130.183 1424.15,-114.618 1424.15,-102.283"/>
<polygon fill="midnightblue" stroke="midnightblue" points="1427.65,-102.127 1424.15,-92.1273 1420.65,-102.127 1427.65,-102.127"/>
</g>
<!-- Node41 -->
<g id="node41" class="node"><title>Node41</title>
<polygon fill="white" stroke="#bfbfbf" points="1466.15,-73 1466.15,-92 1528.15,-92 1528.15,-73 1466.15,-73"/>
<text text-anchor="middle" x="1497.15" y="-80" font-family="Helvetica,sans-Serif" font-size="10.00">type_traits</text>
</g>
<!-- Node39&#45;&gt;Node41 -->
<g id="edge49" class="edge"><title>Node39&#45;&gt;Node41</title>
<path fill="none" stroke="midnightblue" d="M1433.99,-139.734C1445.7,-129.305 1465.47,-111.709 1479.77,-98.9732"/>
<polygon fill="midnightblue" stroke="midnightblue" points="1482.32,-101.391 1487.46,-92.1273 1477.66,-96.1634 1482.32,-101.391"/>
</g>
<!-- Node42&#45;&gt;Node33 -->
<g id="edge51" class="edge"><title>Node42&#45;&gt;Node33</title>
<path fill="none" stroke="midnightblue" d="M1120.72,-201.475C1122.27,-193.08 1124.7,-179.981 1126.7,-169.163"/>
<polygon fill="midnightblue" stroke="midnightblue" points="1130.2,-169.479 1128.57,-159.009 1123.31,-168.206 1130.2,-169.479"/>
</g>
</g>
</svg>
