<?xml version="1.0" encoding="UTF-8" standalone="no"?>
<!DOCTYPE svg PUBLIC "-//W3C//DTD SVG 1.1//EN"
 "http://www.w3.org/Graphics/SVG/1.1/DTD/svg11.dtd">
<!-- Generated by graphviz version 2.38.0 (20140413.2041)
 -->
<!-- Title: boca/units/Prefixes.hh Pages: 1 -->
<svg width="4989pt" height="318pt"
 viewBox="0.00 0.00 4989.00 318.00" xmlns="http://www.w3.org/2000/svg" xmlns:xlink="http://www.w3.org/1999/xlink">
<g id="graph0" class="graph" transform="scale(1 1) rotate(0) translate(4 314)">
<title>boca/units/Prefixes.hh</title>
<polygon fill="white" stroke="none" points="-4,4 -4,-314 4985,-314 4985,4 -4,4"/>
<!-- Node1 -->
<g id="node1" class="node"><title>Node1</title>
<polygon fill="#bfbfbf" stroke="black" points="3739.5,-290.5 3739.5,-309.5 3853.5,-309.5 3853.5,-290.5 3739.5,-290.5"/>
<text text-anchor="middle" x="3796.5" y="-297.5" font-family="Helvetica,sans-Serif" font-size="10.00">boca/units/Prefixes.hh</text>
</g>
<!-- Node2 -->
<g id="node2" class="node"><title>Node2</title>
<g id="a_node2"><a xlink:href="Units_8hh.html" target="_top" xlink:title="boca/units/Units.hh">
<polygon fill="white" stroke="black" points="1042,-223.5 1042,-242.5 1143,-242.5 1143,-223.5 1042,-223.5"/>
<text text-anchor="middle" x="1092.5" y="-230.5" font-family="Helvetica,sans-Serif" font-size="10.00">boca/units/Units.hh</text>
</a>
</g>
</g>
<!-- Node1&#45;&gt;Node2 -->
<g id="edge1" class="edge"><title>Node1&#45;&gt;Node2</title>
<path fill="none" stroke="midnightblue" d="M3729.05,-298.285C3455.3,-295.252 2400.64,-282.28 1533.5,-254 1391.98,-249.385 1225.04,-241.014 1143.08,-236.713"/>
<polygon fill="midnightblue" stroke="midnightblue" points="3729.18,-301.787 3739.22,-298.397 3729.25,-294.787 3729.18,-301.787"/>
</g>
<!-- Node16 -->
<g id="node16" class="node"><title>Node16</title>
<g id="a_node16"><a xlink:href="Info_8hh.html" target="_top" xlink:title="boca/branch/Info.hh">
<polygon fill="white" stroke="black" points="292,-223.5 292,-242.5 395,-242.5 395,-223.5 292,-223.5"/>
<text text-anchor="middle" x="343.5" y="-230.5" font-family="Helvetica,sans-Serif" font-size="10.00">boca/branch/Info.hh</text>
</a>
</g>
</g>
<!-- Node1&#45;&gt;Node16 -->
<g id="edge15" class="edge"><title>Node1&#45;&gt;Node16</title>
<path fill="none" stroke="midnightblue" d="M3728.96,-298.218C3419.76,-294.569 2108.23,-278.369 1032.5,-254 794.421,-248.607 510.143,-239.513 395.353,-235.731"/>
<polygon fill="midnightblue" stroke="midnightblue" points="3729.06,-301.719 3739.1,-298.337 3729.15,-294.719 3729.06,-301.719"/>
</g>
<!-- Node20 -->
<g id="node20" class="node"><title>Node20</title>
<g id="a_node20"><a xlink:href="PseudoJet_8hh.html" target="_top" xlink:title="boca/fastjet/PseudoJet.hh">
<polygon fill="white" stroke="black" points="3111,-223.5 3111,-242.5 3242,-242.5 3242,-223.5 3111,-223.5"/>
<text text-anchor="middle" x="3176.5" y="-230.5" font-family="Helvetica,sans-Serif" font-size="10.00">boca/fastjet/PseudoJet.hh</text>
</a>
</g>
</g>
<!-- Node1&#45;&gt;Node20 -->
<g id="edge23" class="edge"><title>Node1&#45;&gt;Node20</title>
<path fill="none" stroke="midnightblue" d="M3729.28,-295.99C3628.81,-290.876 3433.69,-278.563 3269.5,-254 3250.06,-251.092 3228.6,-246.566 3211.2,-242.555"/>
<polygon fill="midnightblue" stroke="midnightblue" points="3729.13,-299.487 3739.29,-296.492 3729.48,-292.496 3729.13,-299.487"/>
</g>
<!-- Node27 -->
<g id="node27" class="node"><title>Node27</title>
<g id="a_node27"><a xlink:href="Settings_8hh.html" target="_top" xlink:title="boca/Settings.hh">
<polygon fill="white" stroke="red" points="2039.5,-223.5 2039.5,-242.5 2129.5,-242.5 2129.5,-223.5 2039.5,-223.5"/>
<text text-anchor="middle" x="2084.5" y="-230.5" font-family="Helvetica,sans-Serif" font-size="10.00">boca/Settings.hh</text>
</a>
</g>
</g>
<!-- Node1&#45;&gt;Node27 -->
<g id="edge35" class="edge"><title>Node1&#45;&gt;Node27</title>
<path fill="none" stroke="midnightblue" d="M3728.95,-296.435C3446.57,-285.714 2364.46,-244.629 2129.63,-235.714"/>
<polygon fill="midnightblue" stroke="midnightblue" points="3728.92,-299.937 3739.05,-296.819 3729.19,-292.942 3728.92,-299.937"/>
</g>
<!-- Node38 -->
<g id="node38" class="node"><title>Node38</title>
<g id="a_node38"><a xlink:href="GlobalBase_8hh.html" target="_top" xlink:title="boca/branch/GlobalBase.hh">
<polygon fill="white" stroke="red" points="3278,-223.5 3278,-242.5 3415,-242.5 3415,-223.5 3278,-223.5"/>
<text text-anchor="middle" x="3346.5" y="-230.5" font-family="Helvetica,sans-Serif" font-size="10.00">boca/branch/GlobalBase.hh</text>
</a>
</g>
</g>
<!-- Node1&#45;&gt;Node38 -->
<g id="edge50" class="edge"><title>Node1&#45;&gt;Node38</title>
<path fill="none" stroke="midnightblue" d="M3729.2,-293.524C3654.38,-286.819 3530.14,-273.845 3424.5,-254 3408.29,-250.954 3390.45,-246.467 3375.93,-242.514"/>
<polygon fill="midnightblue" stroke="midnightblue" points="3729.16,-297.034 3739.43,-294.429 3729.77,-290.061 3729.16,-297.034"/>
</g>
<!-- Node39 -->
<g id="node39" class="node"><title>Node39</title>
<g id="a_node39"><a xlink:href="branch_2Particle_8hh.html" target="_top" xlink:title="boca/branch/Particle.hh">
<polygon fill="white" stroke="red" points="1543,-223.5 1543,-242.5 1662,-242.5 1662,-223.5 1543,-223.5"/>
<text text-anchor="middle" x="1602.5" y="-230.5" font-family="Helvetica,sans-Serif" font-size="10.00">boca/branch/Particle.hh</text>
</a>
</g>
</g>
<!-- Node1&#45;&gt;Node39 -->
<g id="edge51" class="edge"><title>Node1&#45;&gt;Node39</title>
<path fill="none" stroke="midnightblue" d="M3729.24,-297.8C3494.91,-293.51 2692.65,-277.904 2030.5,-254 1898.92,-249.25 1744.69,-241.507 1662.03,-237.181"/>
<polygon fill="midnightblue" stroke="midnightblue" points="3729.25,-301.301 3739.31,-297.984 3729.38,-294.302 3729.25,-301.301"/>
</g>
<!-- Node40 -->
<g id="node40" class="node"><title>Node40</title>
<g id="a_node40"><a xlink:href="MomentumRange_8hh.html" target="_top" xlink:title="boca/identification\l/MomentumRange.hh">
<polygon fill="white" stroke="red" points="3433.5,-218 3433.5,-248 3543.5,-248 3543.5,-218 3433.5,-218"/>
<text text-anchor="start" x="3441.5" y="-236" font-family="Helvetica,sans-Serif" font-size="10.00">boca/identification</text>
<text text-anchor="middle" x="3488.5" y="-225" font-family="Helvetica,sans-Serif" font-size="10.00">/MomentumRange.hh</text>
</a>
</g>
</g>
<!-- Node1&#45;&gt;Node40 -->
<g id="edge54" class="edge"><title>Node1&#45;&gt;Node40</title>
<path fill="none" stroke="midnightblue" d="M3729.48,-288.875C3680.2,-280.888 3611.76,-268.668 3552.5,-254 3545.49,-252.266 3538.13,-250.199 3530.99,-248.061"/>
<polygon fill="midnightblue" stroke="midnightblue" points="3728.96,-292.335 3739.39,-290.464 3730.07,-285.424 3728.96,-292.335"/>
</g>
<!-- Node41 -->
<g id="node41" class="node"><title>Node41</title>
<g id="a_node41"><a xlink:href="examples_2heavyhiggs_2heavyhiggs_2branch_2Cut_8hh.html" target="_top" xlink:title="examples/heavyhiggs\l/heavyhiggs/branch/Cut.hh">
<polygon fill="white" stroke="red" points="3561.5,-218 3561.5,-248 3695.5,-248 3695.5,-218 3561.5,-218"/>
<text text-anchor="start" x="3569.5" y="-236" font-family="Helvetica,sans-Serif" font-size="10.00">examples/heavyhiggs</text>
<text text-anchor="middle" x="3628.5" y="-225" font-family="Helvetica,sans-Serif" font-size="10.00">/heavyhiggs/branch/Cut.hh</text>
</a>
</g>
</g>
<!-- Node1&#45;&gt;Node41 -->
<g id="edge55" class="edge"><title>Node1&#45;&gt;Node41</title>
<path fill="none" stroke="midnightblue" d="M3764.72,-286.702C3736.25,-275.688 3694.52,-259.542 3664.76,-248.028"/>
<polygon fill="midnightblue" stroke="midnightblue" points="3763.6,-290.024 3774.19,-290.369 3766.13,-283.496 3763.6,-290.024"/>
</g>
<!-- Node42 -->
<g id="node42" class="node"><title>Node42</title>
<g id="a_node42"><a xlink:href="branch_2CutNeutral_8hh.html" target="_top" xlink:title="examples/heavyhiggs\l/heavyhiggs/branch/CutNeutral.hh">
<polygon fill="white" stroke="red" points="3714,-218 3714,-248 3879,-248 3879,-218 3714,-218"/>
<text text-anchor="start" x="3722" y="-236" font-family="Helvetica,sans-Serif" font-size="10.00">examples/heavyhiggs</text>
<text text-anchor="middle" x="3796.5" y="-225" font-family="Helvetica,sans-Serif" font-size="10.00">/heavyhiggs/branch/CutNeutral.hh</text>
</a>
</g>
</g>
<!-- Node1&#45;&gt;Node42 -->
<g id="edge56" class="edge"><title>Node1&#45;&gt;Node42</title>
<path fill="none" stroke="midnightblue" d="M3796.5,-279.911C3796.5,-269.722 3796.5,-257.401 3796.5,-248.089"/>
<polygon fill="midnightblue" stroke="midnightblue" points="3793,-280.234 3796.5,-290.234 3800,-280.234 3793,-280.234"/>
</g>
<!-- Node43 -->
<g id="node43" class="node"><title>Node43</title>
<g id="a_node43"><a xlink:href="BottomBase_8hh.html" target="_top" xlink:title="examples/standardmodel\l/standardmodel/branch\l/BottomBase.hh">
<polygon fill="white" stroke="red" points="3897,-212.5 3897,-253.5 4022,-253.5 4022,-212.5 3897,-212.5"/>
<text text-anchor="start" x="3905" y="-241.5" font-family="Helvetica,sans-Serif" font-size="10.00">examples/standardmodel</text>
<text text-anchor="start" x="3905" y="-230.5" font-family="Helvetica,sans-Serif" font-size="10.00">/standardmodel/branch</text>
<text text-anchor="middle" x="3959.5" y="-219.5" font-family="Helvetica,sans-Serif" font-size="10.00">/BottomBase.hh</text>
</a>
</g>
</g>
<!-- Node1&#45;&gt;Node43 -->
<g id="edge57" class="edge"><title>Node1&#45;&gt;Node43</title>
<path fill="none" stroke="midnightblue" d="M3827.56,-286.615C3850.92,-277.298 3883.4,-264.347 3910.29,-253.625"/>
<polygon fill="midnightblue" stroke="midnightblue" points="3826.14,-283.413 3818.15,-290.369 3828.73,-289.915 3826.14,-283.413"/>
</g>
<!-- Node44 -->
<g id="node44" class="node"><title>Node44</title>
<g id="a_node44"><a xlink:href="LeptonVeto_8hh.html" target="_top" xlink:title="examples/standardmodel\l/standardmodel/branch\l/LeptonVeto.hh">
<polygon fill="white" stroke="red" points="4040,-212.5 4040,-253.5 4165,-253.5 4165,-212.5 4040,-212.5"/>
<text text-anchor="start" x="4048" y="-241.5" font-family="Helvetica,sans-Serif" font-size="10.00">examples/standardmodel</text>
<text text-anchor="start" x="4048" y="-230.5" font-family="Helvetica,sans-Serif" font-size="10.00">/standardmodel/branch</text>
<text text-anchor="middle" x="4102.5" y="-219.5" font-family="Helvetica,sans-Serif" font-size="10.00">/LeptonVeto.hh</text>
</a>
</g>
</g>
<!-- Node1&#45;&gt;Node44 -->
<g id="edge58" class="edge"><title>Node1&#45;&gt;Node44</title>
<path fill="none" stroke="midnightblue" d="M3858.25,-288.661C3905.83,-280.337 3973.12,-267.786 4031.5,-254 4034.24,-253.353 4037.04,-252.669 4039.86,-251.959"/>
<polygon fill="midnightblue" stroke="midnightblue" points="3857.37,-285.263 3848.11,-290.423 3858.56,-292.159 3857.37,-285.263"/>
</g>
<!-- Node45 -->
<g id="node45" class="node"><title>Node45</title>
<g id="a_node45"><a xlink:href="standardmodel_2standardmodel_2branch_2Truth_8hh.html" target="_top" xlink:title="examples/standardmodel\l/standardmodel/branch\l/Truth.hh">
<polygon fill="white" stroke="red" points="4183,-212.5 4183,-253.5 4308,-253.5 4308,-212.5 4183,-212.5"/>
<text text-anchor="start" x="4191" y="-241.5" font-family="Helvetica,sans-Serif" font-size="10.00">examples/standardmodel</text>
<text text-anchor="start" x="4191" y="-230.5" font-family="Helvetica,sans-Serif" font-size="10.00">/standardmodel/branch</text>
<text text-anchor="middle" x="4245.5" y="-219.5" font-family="Helvetica,sans-Serif" font-size="10.00">/Truth.hh</text>
</a>
</g>
</g>
<!-- Node1&#45;&gt;Node45 -->
<g id="edge59" class="edge"><title>Node1&#45;&gt;Node45</title>
<path fill="none" stroke="midnightblue" d="M3863.99,-294.162C3939.99,-287.975 4066.94,-275.415 4174.5,-254 4177.26,-253.45 4180.08,-252.847 4182.91,-252.203"/>
<polygon fill="midnightblue" stroke="midnightblue" points="3863.3,-290.706 3853.61,-294.993 3863.86,-297.684 3863.3,-290.706"/>
</g>
<!-- Node46 -->
<g id="node46" class="node"><title>Node46</title>
<g id="a_node46"><a xlink:href="toppartner_2toppartner_2branch_2Truth_8hh.html" target="_top" xlink:title="examples/toppartner\l/toppartner/branch/Truth.hh">
<polygon fill="white" stroke="red" points="4326.5,-218 4326.5,-248 4460.5,-248 4460.5,-218 4326.5,-218"/>
<text text-anchor="start" x="4334.5" y="-236" font-family="Helvetica,sans-Serif" font-size="10.00">examples/toppartner</text>
<text text-anchor="middle" x="4393.5" y="-225" font-family="Helvetica,sans-Serif" font-size="10.00">/toppartner/branch/Truth.hh</text>
</a>
</g>
</g>
<!-- Node1&#45;&gt;Node46 -->
<g id="edge60" class="edge"><title>Node1&#45;&gt;Node46</title>
<path fill="none" stroke="midnightblue" d="M3863.81,-296.865C3963.54,-292.874 4156.16,-281.985 4317.5,-254 4326.51,-252.438 4336,-250.323 4345.12,-248.053"/>
<polygon fill="midnightblue" stroke="midnightblue" points="3863.43,-293.377 3853.57,-297.264 3863.7,-300.372 3863.43,-293.377"/>
</g>
<!-- Node47 -->
<g id="node47" class="node"><title>Node47</title>
<g id="a_node47"><a xlink:href="examples_2tthh_2tthh_2branch_2Global_8hh.html" target="_top" xlink:title="examples/tthh/tthh\l/branch/Global.hh">
<polygon fill="white" stroke="red" points="4478.5,-218 4478.5,-248 4576.5,-248 4576.5,-218 4478.5,-218"/>
<text text-anchor="start" x="4486.5" y="-236" font-family="Helvetica,sans-Serif" font-size="10.00">examples/tthh/tthh</text>
<text text-anchor="middle" x="4527.5" y="-225" font-family="Helvetica,sans-Serif" font-size="10.00">/branch/Global.hh</text>
</a>
</g>
</g>
<!-- Node1&#45;&gt;Node47 -->
<g id="edge61" class="edge"><title>Node1&#45;&gt;Node47</title>
<path fill="none" stroke="midnightblue" d="M3863.73,-296.77C4010.37,-291.537 4355.03,-277.135 4469.5,-254 4476.7,-252.544 4484.24,-250.42 4491.4,-248.094"/>
<polygon fill="midnightblue" stroke="midnightblue" points="3863.39,-293.28 3853.52,-297.131 3863.63,-300.275 3863.39,-293.28"/>
</g>
<!-- Node48 -->
<g id="node48" class="node"><title>Node48</title>
<g id="a_node48"><a xlink:href="Id_8cpp.html" target="_top" xlink:title="source/identification\l/Id.cpp">
<polygon fill="white" stroke="black" points="4594.5,-218 4594.5,-248 4698.5,-248 4698.5,-218 4594.5,-218"/>
<text text-anchor="start" x="4602.5" y="-236" font-family="Helvetica,sans-Serif" font-size="10.00">source/identification</text>
<text text-anchor="middle" x="4646.5" y="-225" font-family="Helvetica,sans-Serif" font-size="10.00">/Id.cpp</text>
</a>
</g>
</g>
<!-- Node1&#45;&gt;Node48 -->
<g id="edge62" class="edge"><title>Node1&#45;&gt;Node48</title>
<path fill="none" stroke="midnightblue" d="M3864.16,-297.397C4029.03,-293.126 4448.06,-279.991 4585.5,-254 4593.17,-252.55 4601.2,-250.398 4608.83,-248.036"/>
<polygon fill="midnightblue" stroke="midnightblue" points="3863.58,-293.91 3853.68,-297.665 3863.76,-300.908 3863.58,-293.91"/>
</g>
<!-- Node49 -->
<g id="node49" class="node"><title>Node49</title>
<g id="a_node49"><a xlink:href="ElectronVolt_8cpp.html" target="_top" xlink:title="source/units/ElectronVolt.cpp">
<polygon fill="white" stroke="black" points="4717,-223.5 4717,-242.5 4862,-242.5 4862,-223.5 4717,-223.5"/>
<text text-anchor="middle" x="4789.5" y="-230.5" font-family="Helvetica,sans-Serif" font-size="10.00">source/units/ElectronVolt.cpp</text>
</a>
</g>
</g>
<!-- Node1&#45;&gt;Node49 -->
<g id="edge63" class="edge"><title>Node1&#45;&gt;Node49</title>
<path fill="none" stroke="midnightblue" d="M3863.8,-297.334C4045.75,-292.564 4544.65,-277.663 4707.5,-254 4725.19,-251.429 4744.64,-246.767 4760.16,-242.59"/>
<polygon fill="midnightblue" stroke="midnightblue" points="3863.47,-293.841 3853.57,-297.6 3863.66,-300.839 3863.47,-293.841"/>
</g>
<!-- Node50 -->
<g id="node50" class="node"><title>Node50</title>
<g id="a_node50"><a xlink:href="Si_8cpp.html" target="_top" xlink:title="source/units/Si.cpp">
<polygon fill="white" stroke="black" points="4880,-223.5 4880,-242.5 4981,-242.5 4981,-223.5 4880,-223.5"/>
<text text-anchor="middle" x="4930.5" y="-230.5" font-family="Helvetica,sans-Serif" font-size="10.00">source/units/Si.cpp</text>
</a>
</g>
</g>
<!-- Node1&#45;&gt;Node50 -->
<g id="edge64" class="edge"><title>Node1&#45;&gt;Node50</title>
<path fill="none" stroke="midnightblue" d="M3863.78,-298.684C4067.71,-297.332 4676.91,-290.282 4871.5,-254 4884.68,-251.542 4898.94,-246.773 4910.13,-242.508"/>
<polygon fill="midnightblue" stroke="midnightblue" points="3863.49,-295.186 3853.51,-298.75 3863.53,-302.186 3863.49,-295.186"/>
</g>
<!-- Node3 -->
<g id="node3" class="node"><title>Node3</title>
<g id="a_node3"><a xlink:href="Vector2_8hh.html" target="_top" xlink:title="boca/math/Vector2.hh">
<polygon fill="white" stroke="red" points="609,-145.5 609,-164.5 722,-164.5 722,-145.5 609,-145.5"/>
<text text-anchor="middle" x="665.5" y="-152.5" font-family="Helvetica,sans-Serif" font-size="10.00">boca/math/Vector2.hh</text>
</a>
</g>
</g>
<!-- Node2&#45;&gt;Node3 -->
<g id="edge2" class="edge"><title>Node2&#45;&gt;Node3</title>
<path fill="none" stroke="midnightblue" d="M1031.59,-225.199C959.422,-216.534 835.822,-199.774 731.5,-176 717.842,-172.887 702.882,-168.442 690.664,-164.533"/>
<polygon fill="midnightblue" stroke="midnightblue" points="1031.51,-228.715 1041.85,-226.419 1032.34,-221.763 1031.51,-228.715"/>
</g>
<!-- Node4 -->
<g id="node4" class="node"><title>Node4</title>
<g id="a_node4"><a xlink:href="Range_8hh.html" target="_top" xlink:title="boca/math/Range.hh">
<polygon fill="white" stroke="red" points="881,-145.5 881,-164.5 988,-164.5 988,-145.5 881,-145.5"/>
<text text-anchor="middle" x="934.5" y="-152.5" font-family="Helvetica,sans-Serif" font-size="10.00">boca/math/Range.hh</text>
</a>
</g>
</g>
<!-- Node2&#45;&gt;Node4 -->
<g id="edge3" class="edge"><title>Node2&#45;&gt;Node4</title>
<path fill="none" stroke="midnightblue" d="M1065.38,-218.955C1033.1,-203.428 980.104,-177.936 952.495,-164.656"/>
<polygon fill="midnightblue" stroke="midnightblue" points="1064.15,-222.249 1074.68,-223.43 1067.19,-215.941 1064.15,-222.249"/>
</g>
<!-- Node5 -->
<g id="node5" class="node"><title>Node5</title>
<g id="a_node5"><a xlink:href="FileInfo_8hh.html" target="_top" xlink:title="boca/io/FileInfo.hh">
<polygon fill="white" stroke="red" points="1006,-145.5 1006,-164.5 1103,-164.5 1103,-145.5 1006,-145.5"/>
<text text-anchor="middle" x="1054.5" y="-152.5" font-family="Helvetica,sans-Serif" font-size="10.00">boca/io/FileInfo.hh</text>
</a>
</g>
</g>
<!-- Node2&#45;&gt;Node5 -->
<g id="edge4" class="edge"><title>Node2&#45;&gt;Node5</title>
<path fill="none" stroke="midnightblue" d="M1083.56,-214.122C1075.76,-198.53 1064.79,-176.586 1058.81,-164.616"/>
<polygon fill="midnightblue" stroke="midnightblue" points="1080.54,-215.903 1088.14,-223.282 1086.8,-212.772 1080.54,-215.903"/>
</g>
<!-- Node9 -->
<g id="node9" class="node"><title>Node9</title>
<g id="a_node9"><a xlink:href="File_8hh.html" target="_top" xlink:title="boca/latex/File.hh">
<polygon fill="white" stroke="red" points="420.5,-145.5 420.5,-164.5 514.5,-164.5 514.5,-145.5 420.5,-145.5"/>
<text text-anchor="middle" x="467.5" y="-152.5" font-family="Helvetica,sans-Serif" font-size="10.00">boca/latex/File.hh</text>
</a>
</g>
</g>
<!-- Node2&#45;&gt;Node9 -->
<g id="edge8" class="edge"><title>Node2&#45;&gt;Node9</title>
<path fill="none" stroke="midnightblue" d="M1031.59,-225.819C938.387,-216.195 754.858,-196.586 599.5,-176 571.353,-172.27 539.918,-167.531 514.788,-163.601"/>
<polygon fill="midnightblue" stroke="midnightblue" points="1031.37,-229.315 1041.68,-226.858 1032.09,-222.352 1031.37,-229.315"/>
</g>
<!-- Node11 -->
<g id="node11" class="node"><title>Node11</title>
<g id="a_node11"><a xlink:href="boca_2multiplets_2TruthVariables_8hh.html" target="_top" xlink:title="boca/multiplets/TruthVariables.hh">
<polygon fill="white" stroke="red" points="2086.5,-6 2086.5,-25 2248.5,-25 2248.5,-6 2086.5,-6"/>
<text text-anchor="middle" x="2167.5" y="-13" font-family="Helvetica,sans-Serif" font-size="10.00">boca/multiplets/TruthVariables.hh</text>
</a>
</g>
</g>
<!-- Node2&#45;&gt;Node11 -->
<g id="edge10" class="edge"><title>Node2&#45;&gt;Node11</title>
<path fill="none" stroke="midnightblue" d="M1098.81,-213.918C1113.5,-172.031 1149.22,-71.5572 1155.5,-67 1192.93,-39.8227 1852.27,-23.2092 2086.09,-18.1507"/>
<polygon fill="midnightblue" stroke="midnightblue" points="1095.48,-212.828 1095.48,-223.423 1102.09,-215.139 1095.48,-212.828"/>
</g>
<!-- Node12 -->
<g id="node12" class="node"><title>Node12</title>
<g id="a_node12"><a xlink:href="Branch_8hh.html" target="_top" xlink:title="examples/simple/simple\l/Branch.hh">
<polygon fill="white" stroke="red" points="740.5,-140 740.5,-170 862.5,-170 862.5,-140 740.5,-140"/>
<text text-anchor="start" x="748.5" y="-158" font-family="Helvetica,sans-Serif" font-size="10.00">examples/simple/simple</text>
<text text-anchor="middle" x="801.5" y="-147" font-family="Helvetica,sans-Serif" font-size="10.00">/Branch.hh</text>
</a>
</g>
</g>
<!-- Node2&#45;&gt;Node12 -->
<g id="edge11" class="edge"><title>Node2&#45;&gt;Node12</title>
<path fill="none" stroke="midnightblue" d="M1047.62,-221.048C1002.9,-210.036 932.306,-192.387 871.5,-176 864.544,-174.125 857.215,-172.094 850.024,-170.069"/>
<polygon fill="midnightblue" stroke="midnightblue" points="1047.04,-224.509 1057.58,-223.497 1048.71,-217.711 1047.04,-224.509"/>
</g>
<!-- Node13 -->
<g id="node13" class="node"><title>Node13</title>
<g id="a_node13"><a xlink:href="TruthVariables_8cpp.html" target="_top" xlink:title="examples/toppartner\l/source/TruthVariables.cpp">
<polygon fill="white" stroke="black" points="1994.5,-67.5 1994.5,-97.5 2128.5,-97.5 2128.5,-67.5 1994.5,-67.5"/>
<text text-anchor="start" x="2002.5" y="-85.5" font-family="Helvetica,sans-Serif" font-size="10.00">examples/toppartner</text>
<text text-anchor="middle" x="2061.5" y="-74.5" font-family="Helvetica,sans-Serif" font-size="10.00">/source/TruthVariables.cpp</text>
</a>
</g>
</g>
<!-- Node2&#45;&gt;Node13 -->
<g id="edge12" class="edge"><title>Node2&#45;&gt;Node13</title>
<path fill="none" stroke="midnightblue" d="M1117.53,-218.597C1136.38,-208.037 1162.48,-192.402 1183.5,-176 1204.56,-159.565 1202.07,-144.82 1226.5,-134 1295.88,-103.265 1808.52,-89.0551 1994.41,-84.8736"/>
<polygon fill="midnightblue" stroke="midnightblue" points="1115.72,-215.598 1108.66,-223.494 1119.1,-221.727 1115.72,-215.598"/>
</g>
<!-- Node14 -->
<g id="node14" class="node"><title>Node14</title>
<g id="a_node14"><a xlink:href="Mt2_8hh.html" target="_top" xlink:title="external/wimpmass/wimpmass\l/Mt2.hh">
<polygon fill="white" stroke="red" points="2749.5,-0.5 2749.5,-30.5 2901.5,-30.5 2901.5,-0.5 2749.5,-0.5"/>
<text text-anchor="start" x="2757.5" y="-18.5" font-family="Helvetica,sans-Serif" font-size="10.00">external/wimpmass/wimpmass</text>
<text text-anchor="middle" x="2825.5" y="-7.5" font-family="Helvetica,sans-Serif" font-size="10.00">/Mt2.hh</text>
</a>
</g>
</g>
<!-- Node2&#45;&gt;Node14 -->
<g id="edge13" class="edge"><title>Node2&#45;&gt;Node14</title>
<path fill="none" stroke="midnightblue" d="M1105.4,-215.436C1125.57,-190.023 1164.26,-143.36 1183.5,-134 1325.4,-64.9468 2444.76,-27.5825 2749.26,-18.6291"/>
<polygon fill="midnightblue" stroke="midnightblue" points="1102.53,-213.42 1099.1,-223.443 1108.03,-217.748 1102.53,-213.42"/>
</g>
<!-- Node15 -->
<g id="node15" class="node"><title>Node15</title>
<g id="a_node15"><a xlink:href="Results_8cpp.html" target="_top" xlink:title="source/plotting/Results.cpp">
<polygon fill="white" stroke="black" points="1235.5,-145.5 1235.5,-164.5 1371.5,-164.5 1371.5,-145.5 1235.5,-145.5"/>
<text text-anchor="middle" x="1303.5" y="-152.5" font-family="Helvetica,sans-Serif" font-size="10.00">source/plotting/Results.cpp</text>
</a>
</g>
</g>
<!-- Node2&#45;&gt;Node15 -->
<g id="edge14" class="edge"><title>Node2&#45;&gt;Node15</title>
<path fill="none" stroke="midnightblue" d="M1125.72,-220.033C1168.6,-204.589 1242.15,-178.097 1279.79,-164.539"/>
<polygon fill="midnightblue" stroke="midnightblue" points="1124.52,-216.748 1116.29,-223.43 1126.89,-223.334 1124.52,-216.748"/>
</g>
<!-- Node6 -->
<g id="node6" class="node"><title>Node6</title>
<g id="a_node6"><a xlink:href="Files_8hh.html" target="_top" xlink:title="boca/analysis/Files.hh">
<polygon fill="white" stroke="black" points="951.5,-73 951.5,-92 1065.5,-92 1065.5,-73 951.5,-73"/>
<text text-anchor="middle" x="1008.5" y="-80" font-family="Helvetica,sans-Serif" font-size="10.00">boca/analysis/Files.hh</text>
</a>
</g>
</g>
<!-- Node5&#45;&gt;Node6 -->
<g id="edge5" class="edge"><title>Node5&#45;&gt;Node6</title>
<path fill="none" stroke="midnightblue" d="M1043.14,-136.59C1033.95,-122.499 1021.38,-103.244 1014.19,-92.2154"/>
<polygon fill="midnightblue" stroke="midnightblue" points="1040.46,-138.893 1048.86,-145.355 1046.33,-135.068 1040.46,-138.893"/>
</g>
<!-- Node8 -->
<g id="node8" class="node"><title>Node8</title>
<g id="a_node8"><a xlink:href="Info_8cpp.html" target="_top" xlink:title="source/branch/Info.cpp">
<polygon fill="white" stroke="black" points="650.5,-73 650.5,-92 766.5,-92 766.5,-73 650.5,-73"/>
<text text-anchor="middle" x="708.5" y="-80" font-family="Helvetica,sans-Serif" font-size="10.00">source/branch/Info.cpp</text>
</a>
</g>
</g>
<!-- Node5&#45;&gt;Node8 -->
<g id="edge7" class="edge"><title>Node5&#45;&gt;Node8</title>
<path fill="none" stroke="midnightblue" d="M1022.9,-142.087C1014.41,-139.167 1005.17,-136.24 996.5,-134 917.984,-113.716 825.311,-99.0821 766.724,-90.9458"/>
<polygon fill="midnightblue" stroke="midnightblue" points="1021.85,-145.429 1032.44,-145.471 1024.19,-138.831 1021.85,-145.429"/>
</g>
<!-- Node7 -->
<g id="node7" class="node"><title>Node7</title>
<g id="a_node7"><a xlink:href="Data_8hh.html" target="_top" xlink:title="boca/analysis/Data.hh">
<polygon fill="white" stroke="red" points="993.5,-6 993.5,-25 1107.5,-25 1107.5,-6 993.5,-6"/>
<text text-anchor="middle" x="1050.5" y="-13" font-family="Helvetica,sans-Serif" font-size="10.00">boca/analysis/Data.hh</text>
</a>
</g>
</g>
<!-- Node6&#45;&gt;Node7 -->
<g id="edge6" class="edge"><title>Node6&#45;&gt;Node7</title>
<path fill="none" stroke="midnightblue" d="M1019.79,-64.0347C1027.92,-51.4499 1038.54,-35.0072 1044.93,-25.1273"/>
<polygon fill="midnightblue" stroke="midnightblue" points="1016.65,-62.4351 1014.16,-72.7338 1022.53,-66.2341 1016.65,-62.4351"/>
</g>
<!-- Node10 -->
<g id="node10" class="node"><title>Node10</title>
<g id="a_node10"><a xlink:href="PlottingBase_8cpp.html" target="_top" xlink:title="source/plotting/Plotting\lBase.cpp">
<polygon fill="white" stroke="black" points="251.5,-67.5 251.5,-97.5 367.5,-97.5 367.5,-67.5 251.5,-67.5"/>
<text text-anchor="start" x="259.5" y="-85.5" font-family="Helvetica,sans-Serif" font-size="10.00">source/plotting/Plotting</text>
<text text-anchor="middle" x="309.5" y="-74.5" font-family="Helvetica,sans-Serif" font-size="10.00">Base.cpp</text>
</a>
</g>
</g>
<!-- Node9&#45;&gt;Node10 -->
<g id="edge9" class="edge"><title>Node9&#45;&gt;Node10</title>
<path fill="none" stroke="midnightblue" d="M439.309,-141.421C411.66,-129.084 369.589,-110.312 340.889,-97.5059"/>
<polygon fill="midnightblue" stroke="midnightblue" points="437.883,-144.617 448.442,-145.496 440.736,-138.225 437.883,-144.617"/>
</g>
<!-- Node16&#45;&gt;Node6 -->
<g id="edge17" class="edge"><title>Node16&#45;&gt;Node6</title>
<path fill="none" stroke="midnightblue" d="M404.971,-225.274C450.202,-218.212 511.849,-204.031 559.5,-176 581.719,-162.93 576.475,-145.59 599.5,-134 659.812,-103.642 853.527,-90.5976 951.141,-85.839"/>
<polygon fill="midnightblue" stroke="midnightblue" points="404.379,-221.823 395.003,-226.757 405.409,-228.747 404.379,-221.823"/>
</g>
<!-- Node16&#45;&gt;Node8 -->
<g id="edge20" class="edge"><title>Node16&#45;&gt;Node8</title>
<path fill="none" stroke="midnightblue" d="M401.963,-221.164C438.668,-212.632 485.986,-198.366 523.5,-176 546.446,-162.319 543.833,-148.138 566.5,-134 599.247,-113.576 641.398,-99.9228 671.246,-92.0183"/>
<polygon fill="midnightblue" stroke="midnightblue" points="400.899,-217.816 391.908,-223.421 402.432,-224.646 400.899,-217.816"/>
</g>
<!-- Node16&#45;&gt;Node10 -->
<g id="edge22" class="edge"><title>Node16&#45;&gt;Node10</title>
<path fill="none" stroke="midnightblue" d="M281.736,-222.69C230.307,-213.526 162.925,-197.744 146.5,-176 135.249,-161.105 135.425,-149.026 146.5,-134 170.405,-101.567 214.914,-89.3419 251.389,-85.0069"/>
<polygon fill="midnightblue" stroke="midnightblue" points="281.338,-226.173 291.789,-224.434 282.535,-219.276 281.338,-226.173"/>
</g>
<!-- Node17 -->
<g id="node17" class="node"><title>Node17</title>
<g id="a_node17"><a xlink:href="plotting_2Result_8hh.html" target="_top" xlink:title="boca/plotting/Result.hh">
<polygon fill="white" stroke="red" points="285,-145.5 285,-164.5 402,-164.5 402,-145.5 285,-145.5"/>
<text text-anchor="middle" x="343.5" y="-152.5" font-family="Helvetica,sans-Serif" font-size="10.00">boca/plotting/Result.hh</text>
</a>
</g>
</g>
<!-- Node16&#45;&gt;Node17 -->
<g id="edge16" class="edge"><title>Node16&#45;&gt;Node17</title>
<path fill="none" stroke="midnightblue" d="M343.5,-213.224C343.5,-197.697 343.5,-176.358 343.5,-164.616"/>
<polygon fill="midnightblue" stroke="midnightblue" points="340,-213.282 343.5,-223.282 347,-213.282 340,-213.282"/>
</g>
<!-- Node18 -->
<g id="node18" class="node"><title>Node18</title>
<g id="a_node18"><a xlink:href="Plots_8hh.html" target="_top" xlink:title="boca/plotting/Plots.hh">
<polygon fill="white" stroke="red" points="156,-145.5 156,-164.5 267,-164.5 267,-145.5 156,-145.5"/>
<text text-anchor="middle" x="211.5" y="-152.5" font-family="Helvetica,sans-Serif" font-size="10.00">boca/plotting/Plots.hh</text>
</a>
</g>
</g>
<!-- Node16&#45;&gt;Node18 -->
<g id="edge18" class="edge"><title>Node16&#45;&gt;Node18</title>
<path fill="none" stroke="midnightblue" d="M319.789,-218.348C292.734,-202.771 249.301,-177.764 226.534,-164.656"/>
<polygon fill="midnightblue" stroke="midnightblue" points="318.202,-221.473 328.615,-223.43 321.695,-215.407 318.202,-221.473"/>
</g>
<!-- Node19 -->
<g id="node19" class="node"><title>Node19</title>
<g id="a_node19"><a xlink:href="Trainer_8cpp.html" target="_top" xlink:title="source/multivariant\l/Trainer.cpp">
<polygon fill="white" stroke="black" points="0,-140 0,-170 99,-170 99,-140 0,-140"/>
<text text-anchor="start" x="8" y="-158" font-family="Helvetica,sans-Serif" font-size="10.00">source/multivariant</text>
<text text-anchor="middle" x="49.5" y="-147" font-family="Helvetica,sans-Serif" font-size="10.00">/Trainer.cpp</text>
</a>
</g>
</g>
<!-- Node16&#45;&gt;Node19 -->
<g id="edge21" class="edge"><title>Node16&#45;&gt;Node19</title>
<path fill="none" stroke="midnightblue" d="M295.205,-221.189C248.504,-210.512 175.847,-193.313 113.5,-176 106.882,-174.162 99.9154,-172.109 93.1119,-170.038"/>
<polygon fill="midnightblue" stroke="midnightblue" points="294.524,-224.624 305.051,-223.432 296.078,-217.799 294.524,-224.624"/>
</g>
<!-- Node18&#45;&gt;Node10 -->
<g id="edge19" class="edge"><title>Node18&#45;&gt;Node10</title>
<path fill="none" stroke="midnightblue" d="M231.704,-139.465C248.768,-127.19 273.053,-109.72 289.933,-97.5762"/>
<polygon fill="midnightblue" stroke="midnightblue" points="229.591,-136.674 223.517,-145.355 233.678,-142.357 229.591,-136.674"/>
</g>
<!-- Node20&#45;&gt;Node20 -->
<g id="edge26" class="edge"><title>Node20&#45;&gt;Node20</title>
<path fill="none" stroke="midnightblue" d="M3212.5,-244.278C3236.56,-247.466 3260,-243.707 3260,-233 3260,-220.818 3229.66,-217.63 3202.58,-223.436"/>
<polygon fill="midnightblue" stroke="midnightblue" points="3213.03,-240.817 3202.58,-242.564 3211.83,-247.715 3213.03,-240.817"/>
</g>
<!-- Node21 -->
<g id="node21" class="node"><title>Node21</title>
<g id="a_node21"><a xlink:href="Jet_8hh.html" target="_top" xlink:title="boca/fastjet/Jet.hh">
<polygon fill="white" stroke="red" points="3260.5,-73 3260.5,-92 3358.5,-92 3358.5,-73 3260.5,-73"/>
<text text-anchor="middle" x="3309.5" y="-80" font-family="Helvetica,sans-Serif" font-size="10.00">boca/fastjet/Jet.hh</text>
</a>
</g>
</g>
<!-- Node20&#45;&gt;Node21 -->
<g id="edge24" class="edge"><title>Node20&#45;&gt;Node21</title>
<path fill="none" stroke="midnightblue" d="M3222.99,-221.265C3237.81,-218.041 3254.3,-214.659 3269.5,-212 3328.26,-201.722 3496.25,-220.918 3535.5,-176 3588.22,-115.662 3439.91,-93.9987 3358.67,-86.7924"/>
<polygon fill="midnightblue" stroke="midnightblue" points="3222.05,-217.888 3213.03,-223.46 3223.55,-224.724 3222.05,-217.888"/>
</g>
<!-- Node22 -->
<g id="node22" class="node"><title>Node22</title>
<g id="a_node22"><a xlink:href="JetInfo_8hh.html" target="_top" xlink:title="boca/fastjet/JetInfo.hh">
<polygon fill="white" stroke="red" points="3252.5,-145.5 3252.5,-164.5 3366.5,-164.5 3366.5,-145.5 3252.5,-145.5"/>
<text text-anchor="middle" x="3309.5" y="-152.5" font-family="Helvetica,sans-Serif" font-size="10.00">boca/fastjet/JetInfo.hh</text>
</a>
</g>
</g>
<!-- Node20&#45;&gt;Node22 -->
<g id="edge27" class="edge"><title>Node20&#45;&gt;Node22</title>
<path fill="none" stroke="midnightblue" d="M3200.39,-218.348C3227.65,-202.771 3271.41,-177.764 3294.35,-164.656"/>
<polygon fill="midnightblue" stroke="midnightblue" points="3198.44,-215.429 3191.5,-223.43 3201.92,-221.507 3198.44,-215.429"/>
</g>
<!-- Node23 -->
<g id="node23" class="node"><title>Node23</title>
<g id="a_node23"><a xlink:href="fastjet_2Particle_8hh.html" target="_top" xlink:title="boca/fastjet/Particle.hh">
<polygon fill="white" stroke="red" points="3071,-73 3071,-92 3188,-92 3188,-73 3071,-73"/>
<text text-anchor="middle" x="3129.5" y="-80" font-family="Helvetica,sans-Serif" font-size="10.00">boca/fastjet/Particle.hh</text>
</a>
</g>
</g>
<!-- Node20&#45;&gt;Node23 -->
<g id="edge29" class="edge"><title>Node20&#45;&gt;Node23</title>
<path fill="none" stroke="midnightblue" d="M3189.13,-214.967C3202.45,-194.754 3219.69,-160.459 3205.5,-134 3194.5,-113.477 3171.07,-99.8717 3153.12,-92.0071"/>
<polygon fill="midnightblue" stroke="midnightblue" points="3186.09,-213.219 3183.24,-223.424 3191.83,-217.22 3186.09,-213.219"/>
</g>
<!-- Node24 -->
<g id="node24" class="node"><title>Node24</title>
<g id="a_node24"><a xlink:href="ParticleInfo_8hh.html" target="_top" xlink:title="boca/fastjet/ParticleInfo.hh">
<polygon fill="white" stroke="red" points="3062.5,-145.5 3062.5,-164.5 3196.5,-164.5 3196.5,-145.5 3062.5,-145.5"/>
<text text-anchor="middle" x="3129.5" y="-152.5" font-family="Helvetica,sans-Serif" font-size="10.00">boca/fastjet/ParticleInfo.hh</text>
</a>
</g>
</g>
<!-- Node20&#45;&gt;Node24 -->
<g id="edge31" class="edge"><title>Node20&#45;&gt;Node24</title>
<path fill="none" stroke="midnightblue" d="M3165.72,-214.565C3156.06,-198.949 3142.3,-176.7 3134.83,-164.616"/>
<polygon fill="midnightblue" stroke="midnightblue" points="3162.87,-216.618 3171.11,-223.282 3168.83,-212.936 3162.87,-216.618"/>
</g>
<!-- Node25 -->
<g id="node25" class="node"><title>Node25</title>
<g id="a_node25"><a xlink:href="SubJettiness_8hh.html" target="_top" xlink:title="boca/fastjet/SubJettiness.hh">
<polygon fill="white" stroke="red" points="3385,-145.5 3385,-164.5 3526,-164.5 3526,-145.5 3385,-145.5"/>
<text text-anchor="middle" x="3455.5" y="-152.5" font-family="Helvetica,sans-Serif" font-size="10.00">boca/fastjet/SubJettiness.hh</text>
</a>
</g>
</g>
<!-- Node20&#45;&gt;Node25 -->
<g id="edge33" class="edge"><title>Node20&#45;&gt;Node25</title>
<path fill="none" stroke="midnightblue" d="M3217.95,-220.708C3274.25,-205.372 3373.65,-178.297 3424.15,-164.539"/>
<polygon fill="midnightblue" stroke="midnightblue" points="3216.69,-217.424 3207.96,-223.43 3218.53,-224.178 3216.69,-217.424"/>
</g>
<!-- Node26 -->
<g id="node26" class="node"><title>Node26</title>
<g id="a_node26"><a xlink:href="PseudoJet_8cpp.html" target="_top" xlink:title="source/fastjet/PseudoJet.cpp">
<polygon fill="white" stroke="black" points="3582.5,-145.5 3582.5,-164.5 3726.5,-164.5 3726.5,-145.5 3582.5,-145.5"/>
<text text-anchor="middle" x="3654.5" y="-152.5" font-family="Helvetica,sans-Serif" font-size="10.00">source/fastjet/PseudoJet.cpp</text>
</a>
</g>
</g>
<!-- Node20&#45;&gt;Node26 -->
<g id="edge34" class="edge"><title>Node20&#45;&gt;Node26</title>
<path fill="none" stroke="midnightblue" d="M3222.58,-221.214C3237.49,-217.958 3254.15,-214.569 3269.5,-212 3401.51,-189.906 3436.68,-199.193 3568.5,-176 3586.16,-172.892 3605.65,-168.448 3621.59,-164.537"/>
<polygon fill="midnightblue" stroke="midnightblue" points="3221.57,-217.852 3212.57,-223.435 3223.09,-224.686 3221.57,-217.852"/>
</g>
<!-- Node21&#45;&gt;Node14 -->
<g id="edge25" class="edge"><title>Node21&#45;&gt;Node14</title>
<path fill="none" stroke="midnightblue" d="M3250.38,-73.5607C3162.7,-61.7848 2998.16,-39.688 2901.59,-26.7188"/>
<polygon fill="midnightblue" stroke="midnightblue" points="3250.05,-77.0475 3260.43,-74.9097 3250.98,-70.1098 3250.05,-77.0475"/>
</g>
<!-- Node22&#45;&gt;Node21 -->
<g id="edge28" class="edge"><title>Node22&#45;&gt;Node21</title>
<path fill="none" stroke="midnightblue" d="M3309.5,-134.942C3309.5,-121.03 3309.5,-102.82 3309.5,-92.2154"/>
<polygon fill="midnightblue" stroke="midnightblue" points="3306,-135.355 3309.5,-145.355 3313,-135.355 3306,-135.355"/>
</g>
<!-- Node23&#45;&gt;Node11 -->
<g id="edge30" class="edge"><title>Node23&#45;&gt;Node11</title>
<path fill="none" stroke="midnightblue" d="M3060.77,-76.8558C2887.7,-65.1623 2434.57,-34.5452 2248.77,-21.9909"/>
<polygon fill="midnightblue" stroke="midnightblue" points="3060.56,-80.3496 3070.77,-77.5318 3061.03,-73.3655 3060.56,-80.3496"/>
</g>
<!-- Node24&#45;&gt;Node23 -->
<g id="edge32" class="edge"><title>Node24&#45;&gt;Node23</title>
<path fill="none" stroke="midnightblue" d="M3129.5,-134.942C3129.5,-121.03 3129.5,-102.82 3129.5,-92.2154"/>
<polygon fill="midnightblue" stroke="midnightblue" points="3126,-135.355 3129.5,-145.355 3133,-135.355 3126,-135.355"/>
</g>
<!-- Node27&#45;&gt;Node7 -->
<g id="edge36" class="edge"><title>Node27&#45;&gt;Node7</title>
<path fill="none" stroke="midnightblue" d="M2029.38,-226.889C1948.23,-218.657 1801.18,-200.833 1754.5,-176 1731.74,-163.892 1737.21,-146.188 1714.5,-134 1609.09,-77.4393 1248.79,-36.2997 1107.76,-22.0074"/>
<polygon fill="midnightblue" stroke="midnightblue" points="2029.12,-230.38 2039.42,-227.893 2029.81,-223.415 2029.12,-230.38"/>
</g>
<!-- Node27&#45;&gt;Node10 -->
<g id="edge48" class="edge"><title>Node27&#45;&gt;Node10</title>
<path fill="none" stroke="midnightblue" d="M2029.32,-227.631C1941.51,-219.991 1774.45,-202.455 1721.5,-176 1697.6,-164.06 1703.06,-144.506 1678.5,-134 1572.5,-88.6611 756.703,-102.515 641.5,-98 545.513,-94.2379 433.946,-89.2358 367.668,-86.1981"/>
<polygon fill="midnightblue" stroke="midnightblue" points="2029.11,-231.125 2039.37,-228.492 2029.7,-224.151 2029.11,-231.125"/>
</g>
<!-- Node27&#45;&gt;Node15 -->
<g id="edge49" class="edge"><title>Node27&#45;&gt;Node15</title>
<path fill="none" stroke="midnightblue" d="M2028.93,-230.874C1909.47,-227.732 1619.63,-216.249 1380.5,-176 1364.02,-173.226 1345.92,-168.606 1331.41,-164.505"/>
<polygon fill="midnightblue" stroke="midnightblue" points="2029.19,-234.381 2039.28,-231.136 2029.37,-227.383 2029.19,-234.381"/>
</g>
<!-- Node28 -->
<g id="node28" class="node"><title>Node28</title>
<g id="a_node28"><a xlink:href="fastjet_2Vector_8hh.html" target="_top" xlink:title="boca/fastjet/Vector.hh">
<polygon fill="white" stroke="red" points="2802,-145.5 2802,-164.5 2915,-164.5 2915,-145.5 2802,-145.5"/>
<text text-anchor="middle" x="2858.5" y="-152.5" font-family="Helvetica,sans-Serif" font-size="10.00">boca/fastjet/Vector.hh</text>
</a>
</g>
</g>
<!-- Node27&#45;&gt;Node28 -->
<g id="edge37" class="edge"><title>Node27&#45;&gt;Node28</title>
<path fill="none" stroke="midnightblue" d="M2139.71,-231.658C2259.61,-230.04 2552.33,-221.339 2792.5,-176 2806.74,-173.313 2822.26,-168.698 2834.67,-164.577"/>
<polygon fill="midnightblue" stroke="midnightblue" points="2139.63,-228.159 2129.67,-231.783 2139.72,-235.158 2139.63,-228.159"/>
</g>
<!-- Node29 -->
<g id="node29" class="node"><title>Node29</title>
<g id="a_node29"><a xlink:href="branch_2TwoBody_8hh.html" target="_top" xlink:title="boca/branch/TwoBody.hh">
<polygon fill="white" stroke="red" points="1389.5,-145.5 1389.5,-164.5 1517.5,-164.5 1517.5,-145.5 1389.5,-145.5"/>
<text text-anchor="middle" x="1453.5" y="-152.5" font-family="Helvetica,sans-Serif" font-size="10.00">boca/branch/TwoBody.hh</text>
</a>
</g>
</g>
<!-- Node27&#45;&gt;Node29 -->
<g id="edge39" class="edge"><title>Node27&#45;&gt;Node29</title>
<path fill="none" stroke="midnightblue" d="M2029.05,-229.513C1928.26,-224.313 1708.63,-209.842 1526.5,-176 1511.13,-173.143 1494.27,-168.621 1480.63,-164.599"/>
<polygon fill="midnightblue" stroke="midnightblue" points="2029.13,-233.022 2039.29,-230.031 2029.48,-226.031 2029.13,-233.022"/>
</g>
<!-- Node30 -->
<g id="node30" class="node"><title>Node30</title>
<g id="a_node30"><a xlink:href="branch_2ThreeBody_8hh.html" target="_top" xlink:title="boca/branch/ThreeBody.hh">
<polygon fill="white" stroke="red" points="1535.5,-145.5 1535.5,-164.5 1669.5,-164.5 1669.5,-145.5 1535.5,-145.5"/>
<text text-anchor="middle" x="1602.5" y="-152.5" font-family="Helvetica,sans-Serif" font-size="10.00">boca/branch/ThreeBody.hh</text>
</a>
</g>
</g>
<!-- Node27&#45;&gt;Node30 -->
<g id="edge40" class="edge"><title>Node27&#45;&gt;Node30</title>
<path fill="none" stroke="midnightblue" d="M2029.42,-226.133C1951.86,-217.458 1806.2,-199.65 1683.5,-176 1667,-172.82 1648.82,-168.415 1633.88,-164.549"/>
<polygon fill="midnightblue" stroke="midnightblue" points="2029.12,-229.622 2039.45,-227.246 2029.89,-222.664 2029.12,-229.622"/>
</g>
<!-- Node31 -->
<g id="node31" class="node"><title>Node31</title>
<g id="a_node31"><a xlink:href="multiplets_2TwoBody_8hh.html" target="_top" xlink:title="boca/multiplets/TwoBody.hh">
<polygon fill="white" stroke="red" points="2643.5,-145.5 2643.5,-164.5 2783.5,-164.5 2783.5,-145.5 2643.5,-145.5"/>
<text text-anchor="middle" x="2713.5" y="-152.5" font-family="Helvetica,sans-Serif" font-size="10.00">boca/multiplets/TwoBody.hh</text>
</a>
</g>
</g>
<!-- Node27&#45;&gt;Node31 -->
<g id="edge41" class="edge"><title>Node27&#45;&gt;Node31</title>
<path fill="none" stroke="midnightblue" d="M2139.85,-229.053C2239.43,-223.157 2455.12,-207.663 2634.5,-176 2651.08,-173.073 2669.32,-168.546 2684.09,-164.539"/>
<polygon fill="midnightblue" stroke="midnightblue" points="2139.5,-225.568 2129.72,-229.644 2139.91,-232.556 2139.5,-225.568"/>
</g>
<!-- Node32 -->
<g id="node32" class="node"><title>Node32</title>
<g id="a_node32"><a xlink:href="HeavyHiggs_8hh.html" target="_top" xlink:title="examples/heavyhiggs\l/heavyhiggs/analysis\l/HeavyHiggs.hh">
<polygon fill="white" stroke="red" points="2933,-134.5 2933,-175.5 3044,-175.5 3044,-134.5 2933,-134.5"/>
<text text-anchor="start" x="2941" y="-163.5" font-family="Helvetica,sans-Serif" font-size="10.00">examples/heavyhiggs</text>
<text text-anchor="start" x="2941" y="-152.5" font-family="Helvetica,sans-Serif" font-size="10.00">/heavyhiggs/analysis</text>
<text text-anchor="middle" x="2988.5" y="-141.5" font-family="Helvetica,sans-Serif" font-size="10.00">/HeavyHiggs.hh</text>
</a>
</g>
</g>
<!-- Node27&#45;&gt;Node32 -->
<g id="edge42" class="edge"><title>Node27&#45;&gt;Node32</title>
<path fill="none" stroke="midnightblue" d="M2139.61,-232.709C2274.55,-233.499 2631.78,-229.86 2923.5,-176 2926.52,-175.443 2929.59,-174.792 2932.69,-174.073"/>
<polygon fill="midnightblue" stroke="midnightblue" points="2139.55,-229.209 2129.52,-232.639 2139.5,-236.209 2139.55,-229.209"/>
</g>
<!-- Node33 -->
<g id="node33" class="node"><title>Node33</title>
<g id="a_node33"><a xlink:href="branch_2SignatureLepton_8cpp.html" target="_top" xlink:title="examples/higgscpv/source\l/branch/SignatureLepton.cpp">
<polygon fill="white" stroke="black" points="1764,-140 1764,-170 1905,-170 1905,-140 1764,-140"/>
<text text-anchor="start" x="1772" y="-158" font-family="Helvetica,sans-Serif" font-size="10.00">examples/higgscpv/source</text>
<text text-anchor="middle" x="1834.5" y="-147" font-family="Helvetica,sans-Serif" font-size="10.00">/branch/SignatureLepton.cpp</text>
</a>
</g>
</g>
<!-- Node27&#45;&gt;Node33 -->
<g id="edge43" class="edge"><title>Node27&#45;&gt;Node33</title>
<path fill="none" stroke="midnightblue" d="M2046.48,-220.442C2002.05,-206.935 1928.54,-184.589 1880.82,-170.082"/>
<polygon fill="midnightblue" stroke="midnightblue" points="2045.72,-223.87 2056.31,-223.43 2047.76,-217.172 2045.72,-223.87"/>
</g>
<!-- Node34 -->
<g id="node34" class="node"><title>Node34</title>
<g id="a_node34"><a xlink:href="branch_2SignatureLeptonT_8cpp.html" target="_top" xlink:title="examples/higgscpv/source\l/branch/SignatureLeptonT.cpp">
<polygon fill="white" stroke="black" points="1923,-140 1923,-170 2070,-170 2070,-140 1923,-140"/>
<text text-anchor="start" x="1931" y="-158" font-family="Helvetica,sans-Serif" font-size="10.00">examples/higgscpv/source</text>
<text text-anchor="middle" x="1996.5" y="-147" font-family="Helvetica,sans-Serif" font-size="10.00">/branch/SignatureLeptonT.cpp</text>
</a>
</g>
</g>
<!-- Node27&#45;&gt;Node34 -->
<g id="edge44" class="edge"><title>Node27&#45;&gt;Node34</title>
<path fill="none" stroke="midnightblue" d="M2066.44,-216.404C2050.66,-202.774 2027.95,-183.161 2012.73,-170.02"/>
<polygon fill="midnightblue" stroke="midnightblue" points="2064.55,-219.394 2074.41,-223.282 2069.12,-214.097 2064.55,-219.394"/>
</g>
<!-- Node35 -->
<g id="node35" class="node"><title>Node35</title>
<g id="a_node35"><a xlink:href="SignatureLeptonTagger_8cpp.html" target="_top" xlink:title="examples/higgscpv/source\l/branch/SignatureLeptonTagger.cpp">
<polygon fill="white" stroke="black" points="2088,-140 2088,-170 2259,-170 2259,-140 2088,-140"/>
<text text-anchor="start" x="2096" y="-158" font-family="Helvetica,sans-Serif" font-size="10.00">examples/higgscpv/source</text>
<text text-anchor="middle" x="2173.5" y="-147" font-family="Helvetica,sans-Serif" font-size="10.00">/branch/SignatureLeptonTagger.cpp</text>
</a>
</g>
</g>
<!-- Node27&#45;&gt;Node35 -->
<g id="edge45" class="edge"><title>Node27&#45;&gt;Node35</title>
<path fill="none" stroke="midnightblue" d="M2102.32,-216.781C2118.3,-203.137 2141.55,-183.283 2157.08,-170.02"/>
<polygon fill="midnightblue" stroke="midnightblue" points="2100.04,-214.126 2094.71,-223.282 2104.59,-219.45 2100.04,-214.126"/>
</g>
<!-- Node36 -->
<g id="node36" class="node"><title>Node36</title>
<g id="a_node36"><a xlink:href="branch_2TopLeptonic_8cpp.html" target="_top" xlink:title="examples/standardmodel\l/source/branch/TopLeptonic.cpp">
<polygon fill="white" stroke="black" points="2277.5,-140 2277.5,-170 2433.5,-170 2433.5,-140 2277.5,-140"/>
<text text-anchor="start" x="2285.5" y="-158" font-family="Helvetica,sans-Serif" font-size="10.00">examples/standardmodel</text>
<text text-anchor="middle" x="2355.5" y="-147" font-family="Helvetica,sans-Serif" font-size="10.00">/source/branch/TopLeptonic.cpp</text>
</a>
</g>
</g>
<!-- Node27&#45;&gt;Node36 -->
<g id="edge46" class="edge"><title>Node27&#45;&gt;Node36</title>
<path fill="none" stroke="midnightblue" d="M2124.8,-220.697C2172.87,-207.217 2253.23,-184.681 2305.29,-170.082"/>
<polygon fill="midnightblue" stroke="midnightblue" points="2123.74,-217.359 2115.06,-223.43 2125.63,-224.099 2123.74,-217.359"/>
</g>
<!-- Node37 -->
<g id="node37" class="node"><title>Node37</title>
<g id="a_node37"><a xlink:href="tagger_2TopHadronicHep_8cpp.html" target="_top" xlink:title="examples/standardmodel\l/source/tagger/TopHadronicHep.cpp">
<polygon fill="white" stroke="black" points="2451.5,-140 2451.5,-170 2625.5,-170 2625.5,-140 2451.5,-140"/>
<text text-anchor="start" x="2459.5" y="-158" font-family="Helvetica,sans-Serif" font-size="10.00">examples/standardmodel</text>
<text text-anchor="middle" x="2538.5" y="-147" font-family="Helvetica,sans-Serif" font-size="10.00">/source/tagger/TopHadronicHep.cpp</text>
</a>
</g>
</g>
<!-- Node27&#45;&gt;Node37 -->
<g id="edge47" class="edge"><title>Node27&#45;&gt;Node37</title>
<path fill="none" stroke="midnightblue" d="M2139.53,-224.268C2209.94,-214.175 2335.58,-195.486 2442.5,-176 2452.47,-174.184 2462.98,-172.131 2473.26,-170.051"/>
<polygon fill="midnightblue" stroke="midnightblue" points="2138.96,-220.815 2129.55,-225.694 2139.95,-227.744 2138.96,-220.815"/>
</g>
<!-- Node28&#45;&gt;Node13 -->
<g id="edge38" class="edge"><title>Node28&#45;&gt;Node13</title>
<path fill="none" stroke="midnightblue" d="M2825.44,-142.389C2815.02,-139.163 2803.39,-135.999 2792.5,-134 2551.02,-89.6573 2258.16,-83.4722 2128.65,-83.1134"/>
<polygon fill="midnightblue" stroke="midnightblue" points="2824.4,-145.732 2834.99,-145.466 2826.54,-139.069 2824.4,-145.732"/>
</g>
<!-- Node39&#45;&gt;Node29 -->
<g id="edge52" class="edge"><title>Node39&#45;&gt;Node29</title>
<path fill="none" stroke="midnightblue" d="M1576.53,-218.754C1546.05,-203.209 1496.39,-177.879 1470.47,-164.656"/>
<polygon fill="midnightblue" stroke="midnightblue" points="1575.2,-222.004 1585.7,-223.43 1578.38,-215.768 1575.2,-222.004"/>
</g>
<!-- Node39&#45;&gt;Node30 -->
<g id="edge53" class="edge"><title>Node39&#45;&gt;Node30</title>
<path fill="none" stroke="midnightblue" d="M1602.5,-213.224C1602.5,-197.697 1602.5,-176.358 1602.5,-164.616"/>
<polygon fill="midnightblue" stroke="midnightblue" points="1599,-213.282 1602.5,-223.282 1606,-213.282 1599,-213.282"/>
</g>
</g>
</svg>
