<?xml version="1.0" encoding="UTF-8" standalone="no"?>
<!DOCTYPE svg PUBLIC "-//W3C//DTD SVG 1.1//EN"
 "http://www.w3.org/Graphics/SVG/1.1/DTD/svg11.dtd">
<!-- Generated by graphviz version 2.38.0 (20140413.2041)
 -->
<!-- Title: source/fastjet/PseudoJet.cpp Pages: 1 -->
<svg width="2081pt" height="542pt"
 viewBox="0.00 0.00 2080.50 542.00" xmlns="http://www.w3.org/2000/svg" xmlns:xlink="http://www.w3.org/1999/xlink">
<g id="graph0" class="graph" transform="scale(1 1) rotate(0) translate(4 538)">
<title>source/fastjet/PseudoJet.cpp</title>
<polygon fill="white" stroke="none" points="-4,4 -4,-538 2076.5,-538 2076.5,4 -4,4"/>
<!-- Node1 -->
<g id="node1" class="node"><title>Node1</title>
<polygon fill="#bfbfbf" stroke="black" points="560,-514.5 560,-533.5 704,-533.5 704,-514.5 560,-514.5"/>
<text text-anchor="middle" x="632" y="-521.5" font-family="Helvetica,sans-Serif" font-size="10.00">source/fastjet/PseudoJet.cpp</text>
</g>
<!-- Node2 -->
<g id="node2" class="node"><title>Node2</title>
<polygon fill="white" stroke="#bfbfbf" points="403,-458.5 403,-477.5 495,-477.5 495,-458.5 403,-458.5"/>
<text text-anchor="middle" x="449" y="-465.5" font-family="Helvetica,sans-Serif" font-size="10.00">TLorentzVector.h</text>
</g>
<!-- Node1&#45;&gt;Node2 -->
<g id="edge1" class="edge"><title>Node1&#45;&gt;Node2</title>
<path fill="none" stroke="midnightblue" d="M603.003,-514.444C571.815,-505.241 522.07,-490.562 487.592,-480.388"/>
<polygon fill="midnightblue" stroke="midnightblue" points="488.443,-476.99 477.861,-477.516 486.462,-483.704 488.443,-476.99"/>
</g>
<!-- Node3 -->
<g id="node3" class="node"><title>Node3</title>
<g id="a_node3"><a xlink:href="LorentzVector_8hh.html" target="_top" xlink:title="boca/math/LorentzVector.hh">
<polygon fill="white" stroke="black" points="513,-458.5 513,-477.5 653,-477.5 653,-458.5 513,-458.5"/>
<text text-anchor="middle" x="583" y="-465.5" font-family="Helvetica,sans-Serif" font-size="10.00">boca/math/LorentzVector.hh</text>
</a>
</g>
</g>
<!-- Node1&#45;&gt;Node3 -->
<g id="edge2" class="edge"><title>Node1&#45;&gt;Node3</title>
<path fill="none" stroke="midnightblue" d="M623.909,-514.083C616.845,-506.298 606.412,-494.801 597.851,-485.367"/>
<polygon fill="midnightblue" stroke="midnightblue" points="600.253,-482.805 590.941,-477.751 595.069,-487.509 600.253,-482.805"/>
</g>
<!-- Node47 -->
<g id="node47" class="node"><title>Node47</title>
<g id="a_node47"><a xlink:href="PseudoJet_8hh.html" target="_top" xlink:title="boca/fastjet/PseudoJet.hh">
<polygon fill="white" stroke="black" points="968.5,-201.5 968.5,-220.5 1099.5,-220.5 1099.5,-201.5 968.5,-201.5"/>
<text text-anchor="middle" x="1034" y="-208.5" font-family="Helvetica,sans-Serif" font-size="10.00">boca/fastjet/PseudoJet.hh</text>
</a>
</g>
</g>
<!-- Node1&#45;&gt;Node47 -->
<g id="edge53" class="edge"><title>Node1&#45;&gt;Node47</title>
<path fill="none" stroke="midnightblue" d="M647.156,-514.38C674.438,-497.607 729,-457.776 729,-407.5 729,-407.5 729,-407.5 729,-338.5 729,-284.668 893.163,-241.736 980.613,-222.685"/>
<polygon fill="midnightblue" stroke="midnightblue" points="981.583,-226.057 990.625,-220.535 980.113,-219.213 981.583,-226.057"/>
</g>
<!-- Node48 -->
<g id="node48" class="node"><title>Node48</title>
<g id="a_node48"><a xlink:href="DEBUG__MACROS_8hh.html" target="_top" xlink:title="boca/generic/DEBUG\l_MACROS.hh">
<polygon fill="white" stroke="black" points="574.5,-257.5 574.5,-287.5 685.5,-287.5 685.5,-257.5 574.5,-257.5"/>
<text text-anchor="start" x="582.5" y="-275.5" font-family="Helvetica,sans-Serif" font-size="10.00">boca/generic/DEBUG</text>
<text text-anchor="middle" x="630" y="-264.5" font-family="Helvetica,sans-Serif" font-size="10.00">_MACROS.hh</text>
</a>
</g>
</g>
<!-- Node1&#45;&gt;Node48 -->
<g id="edge57" class="edge"><title>Node1&#45;&gt;Node48</title>
<path fill="none" stroke="midnightblue" d="M640.214,-514.182C647.544,-505.663 657.755,-492.019 662,-478 670.679,-449.335 717.752,-522.1 661,-324 658.17,-314.123 652.83,-304.266 647.369,-295.917"/>
<polygon fill="midnightblue" stroke="midnightblue" points="650.102,-293.717 641.509,-287.52 644.362,-297.724 650.102,-293.717"/>
</g>
<!-- Node4 -->
<g id="node4" class="node"><title>Node4</title>
<g id="a_node4"><a xlink:href="delphes_2delphes_2Forward_8hh.html" target="_top" xlink:title="external/delphes/delphes\l/Forward.hh">
<polygon fill="white" stroke="black" points="527.5,-391.5 527.5,-421.5 652.5,-421.5 652.5,-391.5 527.5,-391.5"/>
<text text-anchor="start" x="535.5" y="-409.5" font-family="Helvetica,sans-Serif" font-size="10.00">external/delphes/delphes</text>
<text text-anchor="middle" x="590" y="-398.5" font-family="Helvetica,sans-Serif" font-size="10.00">/Forward.hh</text>
</a>
</g>
</g>
<!-- Node3&#45;&gt;Node4 -->
<g id="edge3" class="edge"><title>Node3&#45;&gt;Node4</title>
<path fill="none" stroke="midnightblue" d="M584.003,-458.475C584.827,-451.471 586.036,-441.192 587.153,-431.696"/>
<polygon fill="midnightblue" stroke="midnightblue" points="590.658,-431.863 588.35,-421.523 583.706,-431.046 590.658,-431.863"/>
</g>
<!-- Node6 -->
<g id="node6" class="node"><title>Node6</title>
<g id="a_node6"><a xlink:href="exroot_2exroot_2Forward_8hh.html" target="_top" xlink:title="external/exroot/exroot\l/Forward.hh">
<polygon fill="white" stroke="black" points="210.5,-391.5 210.5,-421.5 321.5,-421.5 321.5,-391.5 210.5,-391.5"/>
<text text-anchor="start" x="218.5" y="-409.5" font-family="Helvetica,sans-Serif" font-size="10.00">external/exroot/exroot</text>
<text text-anchor="middle" x="266" y="-398.5" font-family="Helvetica,sans-Serif" font-size="10.00">/Forward.hh</text>
</a>
</g>
</g>
<!-- Node3&#45;&gt;Node6 -->
<g id="edge5" class="edge"><title>Node3&#45;&gt;Node6</title>
<path fill="none" stroke="midnightblue" d="M535.07,-458.446C485.647,-449.568 406.371,-435.163 338,-422 335.946,-421.605 333.859,-421.2 331.753,-420.79"/>
<polygon fill="midnightblue" stroke="midnightblue" points="332.284,-417.327 321.797,-418.835 330.936,-424.196 332.284,-417.327"/>
</g>
<!-- Node8 -->
<g id="node8" class="node"><title>Node8</title>
<g id="a_node8"><a xlink:href="LorentzVectorBase_8hh.html" target="_top" xlink:title="boca/math/LorentzVectorBase.hh">
<polygon fill="white" stroke="black" points="347,-397 347,-416 509,-416 509,-397 347,-397"/>
<text text-anchor="middle" x="428" y="-404" font-family="Helvetica,sans-Serif" font-size="10.00">boca/math/LorentzVectorBase.hh</text>
</a>
</g>
</g>
<!-- Node3&#45;&gt;Node8 -->
<g id="edge7" class="edge"><title>Node3&#45;&gt;Node8</title>
<path fill="none" stroke="midnightblue" d="M560.792,-458.475C534.319,-448.313 489.886,-431.256 459.78,-419.7"/>
<polygon fill="midnightblue" stroke="midnightblue" points="460.757,-416.325 450.167,-416.009 458.248,-422.86 460.757,-416.325"/>
</g>
<!-- Node5 -->
<g id="node5" class="node"><title>Node5</title>
<g id="a_node5"><a xlink:href="delphes_2delphes_2TypeDef_8hh.html" target="_top" xlink:title="external/delphes/delphes\l/TypeDef.hh">
<polygon fill="white" stroke="black" points="527.5,-324.5 527.5,-354.5 652.5,-354.5 652.5,-324.5 527.5,-324.5"/>
<text text-anchor="start" x="535.5" y="-342.5" font-family="Helvetica,sans-Serif" font-size="10.00">external/delphes/delphes</text>
<text text-anchor="middle" x="590" y="-331.5" font-family="Helvetica,sans-Serif" font-size="10.00">/TypeDef.hh</text>
</a>
</g>
</g>
<!-- Node4&#45;&gt;Node5 -->
<g id="edge4" class="edge"><title>Node4&#45;&gt;Node5</title>
<path fill="none" stroke="midnightblue" d="M590,-391.396C590,-383.645 590,-373.812 590,-364.86"/>
<polygon fill="midnightblue" stroke="midnightblue" points="593.5,-364.576 590,-354.577 586.5,-364.577 593.5,-364.576"/>
</g>
<!-- Node7 -->
<g id="node7" class="node"><title>Node7</title>
<g id="a_node7"><a xlink:href="exroot_2exroot_2TypeDef_8hh.html" target="_top" xlink:title="external/exroot/exroot\l/TypeDef.hh">
<polygon fill="white" stroke="black" points="204.5,-324.5 204.5,-354.5 315.5,-354.5 315.5,-324.5 204.5,-324.5"/>
<text text-anchor="start" x="212.5" y="-342.5" font-family="Helvetica,sans-Serif" font-size="10.00">external/exroot/exroot</text>
<text text-anchor="middle" x="260" y="-331.5" font-family="Helvetica,sans-Serif" font-size="10.00">/TypeDef.hh</text>
</a>
</g>
</g>
<!-- Node6&#45;&gt;Node7 -->
<g id="edge6" class="edge"><title>Node6&#45;&gt;Node7</title>
<path fill="none" stroke="midnightblue" d="M264.698,-391.396C263.975,-383.56 263.055,-373.596 262.221,-364.565"/>
<polygon fill="midnightblue" stroke="midnightblue" points="265.704,-364.212 261.299,-354.577 258.733,-364.856 265.704,-364.212"/>
</g>
<!-- Node9 -->
<g id="node9" class="node"><title>Node9</title>
<polygon fill="white" stroke="#bfbfbf" points="333.5,-330 333.5,-349 378.5,-349 378.5,-330 333.5,-330"/>
<text text-anchor="middle" x="356" y="-337" font-family="Helvetica,sans-Serif" font-size="10.00">climits</text>
</g>
<!-- Node8&#45;&gt;Node9 -->
<g id="edge8" class="edge"><title>Node8&#45;&gt;Node9</title>
<path fill="none" stroke="midnightblue" d="M418.29,-396.734C406.738,-386.305 387.247,-368.709 373.14,-355.973"/>
<polygon fill="midnightblue" stroke="midnightblue" points="375.324,-353.23 365.556,-349.127 370.634,-358.426 375.324,-353.23"/>
</g>
<!-- Node10 -->
<g id="node10" class="node"><title>Node10</title>
<g id="a_node10"><a xlink:href="Vector3_8hh.html" target="_top" xlink:title="boca/math/Vector3.hh">
<polygon fill="white" stroke="black" points="396.5,-330 396.5,-349 509.5,-349 509.5,-330 396.5,-330"/>
<text text-anchor="middle" x="453" y="-337" font-family="Helvetica,sans-Serif" font-size="10.00">boca/math/Vector3.hh</text>
</a>
</g>
</g>
<!-- Node8&#45;&gt;Node10 -->
<g id="edge9" class="edge"><title>Node8&#45;&gt;Node10</title>
<path fill="none" stroke="midnightblue" d="M431.372,-396.734C435.12,-386.988 441.277,-370.981 446.065,-358.532"/>
<polygon fill="midnightblue" stroke="midnightblue" points="449.359,-359.717 449.682,-349.127 442.825,-357.204 449.359,-359.717"/>
</g>
<!-- Node11 -->
<g id="node11" class="node"><title>Node11</title>
<polygon fill="white" stroke="#bfbfbf" points="344.5,-263 344.5,-282 409.5,-282 409.5,-263 344.5,-263"/>
<text text-anchor="middle" x="377" y="-270" font-family="Helvetica,sans-Serif" font-size="10.00">TVector3.h</text>
</g>
<!-- Node10&#45;&gt;Node11 -->
<g id="edge10" class="edge"><title>Node10&#45;&gt;Node11</title>
<path fill="none" stroke="midnightblue" d="M442.75,-329.734C430.557,-319.305 409.983,-301.709 395.092,-288.973"/>
<polygon fill="midnightblue" stroke="midnightblue" points="396.962,-285.967 387.087,-282.127 392.412,-291.287 396.962,-285.967"/>
</g>
<!-- Node12 -->
<g id="node12" class="node"><title>Node12</title>
<g id="a_node12"><a xlink:href="Vector2_8hh.html" target="_top" xlink:title="boca/math/Vector2.hh">
<polygon fill="white" stroke="black" points="427.5,-263 427.5,-282 540.5,-282 540.5,-263 427.5,-263"/>
<text text-anchor="middle" x="484" y="-270" font-family="Helvetica,sans-Serif" font-size="10.00">boca/math/Vector2.hh</text>
</a>
</g>
</g>
<!-- Node10&#45;&gt;Node12 -->
<g id="edge11" class="edge"><title>Node10&#45;&gt;Node12</title>
<path fill="none" stroke="midnightblue" d="M457.181,-329.734C461.875,-319.89 469.616,-303.66 475.578,-291.159"/>
<polygon fill="midnightblue" stroke="midnightblue" points="478.74,-292.66 479.885,-282.127 472.422,-289.647 478.74,-292.66"/>
</g>
<!-- Node13 -->
<g id="node13" class="node"><title>Node13</title>
<polygon fill="white" stroke="#bfbfbf" points="440.5,-73 440.5,-92 543.5,-92 543.5,-73 440.5,-73"/>
<text text-anchor="middle" x="492" y="-80" font-family="Helvetica,sans-Serif" font-size="10.00">boost/operators.hpp</text>
</g>
<!-- Node12&#45;&gt;Node13 -->
<g id="edge12" class="edge"><title>Node12&#45;&gt;Node13</title>
<path fill="none" stroke="midnightblue" d="M484.365,-262.934C485.578,-234.428 489.497,-142.322 491.199,-102.326"/>
<polygon fill="midnightblue" stroke="midnightblue" points="494.705,-102.257 491.633,-92.1168 487.711,-101.959 494.705,-102.257"/>
</g>
<!-- Node14 -->
<g id="node14" class="node"><title>Node14</title>
<polygon fill="white" stroke="#bfbfbf" points="261.5,-201.5 261.5,-220.5 326.5,-220.5 326.5,-201.5 261.5,-201.5"/>
<text text-anchor="middle" x="294" y="-208.5" font-family="Helvetica,sans-Serif" font-size="10.00">TVector2.h</text>
</g>
<!-- Node12&#45;&gt;Node14 -->
<g id="edge13" class="edge"><title>Node12&#45;&gt;Node14</title>
<path fill="none" stroke="midnightblue" d="M456.778,-262.975C423.763,-252.636 367.96,-235.161 331.047,-223.602"/>
<polygon fill="midnightblue" stroke="midnightblue" points="331.761,-220.158 321.172,-220.509 329.669,-226.838 331.761,-220.158"/>
</g>
<!-- Node15 -->
<g id="node15" class="node"><title>Node15</title>
<g id="a_node15"><a xlink:href="Debug_8hh.html" target="_top" xlink:title="boca/generic/Debug.hh">
<polygon fill="white" stroke="black" points="555.5,-201.5 555.5,-220.5 672.5,-220.5 672.5,-201.5 555.5,-201.5"/>
<text text-anchor="middle" x="614" y="-208.5" font-family="Helvetica,sans-Serif" font-size="10.00">boca/generic/Debug.hh</text>
</a>
</g>
</g>
<!-- Node12&#45;&gt;Node15 -->
<g id="edge14" class="edge"><title>Node12&#45;&gt;Node15</title>
<path fill="none" stroke="midnightblue" d="M502.626,-262.975C524.443,-252.99 560.804,-236.348 586.017,-224.807"/>
<polygon fill="midnightblue" stroke="midnightblue" points="587.772,-227.853 595.409,-220.509 584.859,-221.488 587.772,-227.853"/>
</g>
<!-- Node22 -->
<g id="node22" class="node"><title>Node22</title>
<g id="a_node22"><a xlink:href="Iterator_8hh.html" target="_top" xlink:title="boca/generic/Iterator.hh">
<polygon fill="white" stroke="black" points="344.5,-201.5 344.5,-220.5 463.5,-220.5 463.5,-201.5 344.5,-201.5"/>
<text text-anchor="middle" x="404" y="-208.5" font-family="Helvetica,sans-Serif" font-size="10.00">boca/generic/Iterator.hh</text>
</a>
</g>
</g>
<!-- Node12&#45;&gt;Node22 -->
<g id="edge21" class="edge"><title>Node12&#45;&gt;Node22</title>
<path fill="none" stroke="midnightblue" d="M472.538,-262.975C459.825,-253.52 439.087,-238.096 423.747,-226.687"/>
<polygon fill="midnightblue" stroke="midnightblue" points="425.554,-223.669 415.441,-220.509 421.376,-229.285 425.554,-223.669"/>
</g>
<!-- Node26 -->
<g id="node26" class="node"><title>Node26</title>
<g id="a_node26"><a xlink:href="Units_8hh.html" target="_top" xlink:title="boca/units/Units.hh">
<polygon fill="white" stroke="black" points="849.5,-201.5 849.5,-220.5 950.5,-220.5 950.5,-201.5 849.5,-201.5"/>
<text text-anchor="middle" x="900" y="-208.5" font-family="Helvetica,sans-Serif" font-size="10.00">boca/units/Units.hh</text>
</a>
</g>
</g>
<!-- Node12&#45;&gt;Node26 -->
<g id="edge26" class="edge"><title>Node12&#45;&gt;Node26</title>
<path fill="none" stroke="midnightblue" d="M529.777,-262.946C541.261,-260.899 553.568,-258.79 565,-257 660.676,-242.018 772.212,-227.651 839.401,-219.333"/>
<polygon fill="midnightblue" stroke="midnightblue" points="839.893,-222.799 849.389,-218.101 839.036,-215.852 839.893,-222.799"/>
</g>
<!-- Node44 -->
<g id="node44" class="node"><title>Node44</title>
<g id="a_node44"><a xlink:href="Math_8hh.html" target="_top" xlink:title="boca/math/Math.hh">
<polygon fill="white" stroke="black" points="137.5,-201.5 137.5,-220.5 238.5,-220.5 238.5,-201.5 137.5,-201.5"/>
<text text-anchor="middle" x="188" y="-208.5" font-family="Helvetica,sans-Serif" font-size="10.00">boca/math/Math.hh</text>
</a>
</g>
</g>
<!-- Node12&#45;&gt;Node44 -->
<g id="edge49" class="edge"><title>Node12&#45;&gt;Node44</title>
<path fill="none" stroke="midnightblue" d="M445.99,-262.993C436.833,-260.986 427.074,-258.884 418,-257 358.431,-244.631 289.982,-231.359 243.349,-222.458"/>
<polygon fill="midnightblue" stroke="midnightblue" points="243.926,-219.006 233.448,-220.572 242.616,-225.882 243.926,-219.006"/>
</g>
<!-- Node16 -->
<g id="node16" class="node"><title>Node16</title>
<polygon fill="white" stroke="#bfbfbf" points="520.5,-140 520.5,-159 561.5,-159 561.5,-140 520.5,-140"/>
<text text-anchor="middle" x="541" y="-147" font-family="Helvetica,sans-Serif" font-size="10.00">string</text>
</g>
<!-- Node15&#45;&gt;Node16 -->
<g id="edge15" class="edge"><title>Node15&#45;&gt;Node16</title>
<path fill="none" stroke="midnightblue" d="M603.541,-201.475C592.049,-192.108 573.37,-176.884 559.413,-165.508"/>
<polygon fill="midnightblue" stroke="midnightblue" points="561.402,-162.614 551.44,-159.009 556.98,-168.04 561.402,-162.614"/>
</g>
<!-- Node17 -->
<g id="node17" class="node"><title>Node17</title>
<polygon fill="white" stroke="#bfbfbf" points="420,-140 420,-159 464,-159 464,-140 420,-140"/>
<text text-anchor="middle" x="442" y="-147" font-family="Helvetica,sans-Serif" font-size="10.00">vector</text>
</g>
<!-- Node15&#45;&gt;Node17 -->
<g id="edge16" class="edge"><title>Node15&#45;&gt;Node17</title>
<path fill="none" stroke="midnightblue" d="M589.357,-201.475C558.967,-190.962 507.25,-173.072 473.868,-161.524"/>
<polygon fill="midnightblue" stroke="midnightblue" points="474.735,-158.121 464.141,-158.159 472.447,-164.736 474.735,-158.121"/>
</g>
<!-- Node18 -->
<g id="node18" class="node"><title>Node18</title>
<polygon fill="white" stroke="#bfbfbf" points="580,-140 580,-159 632,-159 632,-140 580,-140"/>
<text text-anchor="middle" x="606" y="-147" font-family="Helvetica,sans-Serif" font-size="10.00">sstream</text>
</g>
<!-- Node15&#45;&gt;Node18 -->
<g id="edge17" class="edge"><title>Node15&#45;&gt;Node18</title>
<path fill="none" stroke="midnightblue" d="M612.854,-201.475C611.725,-193.08 609.964,-179.981 608.509,-169.163"/>
<polygon fill="midnightblue" stroke="midnightblue" points="611.945,-168.453 607.144,-159.009 605.008,-169.386 611.945,-168.453"/>
</g>
<!-- Node19 -->
<g id="node19" class="node"><title>Node19</title>
<polygon fill="white" stroke="#bfbfbf" points="650,-140 650,-159 700,-159 700,-140 650,-140"/>
<text text-anchor="middle" x="675" y="-147" font-family="Helvetica,sans-Serif" font-size="10.00">iomanip</text>
</g>
<!-- Node15&#45;&gt;Node19 -->
<g id="edge18" class="edge"><title>Node15&#45;&gt;Node19</title>
<path fill="none" stroke="midnightblue" d="M622.74,-201.475C632.162,-192.285 647.364,-177.456 658.949,-166.156"/>
<polygon fill="midnightblue" stroke="midnightblue" points="661.562,-168.497 666.276,-159.009 656.674,-163.486 661.562,-168.497"/>
</g>
<!-- Node20 -->
<g id="node20" class="node"><title>Node20</title>
<polygon fill="white" stroke="#bfbfbf" points="718,-140 718,-159 772,-159 772,-140 718,-140"/>
<text text-anchor="middle" x="745" y="-147" font-family="Helvetica,sans-Serif" font-size="10.00">iostream</text>
</g>
<!-- Node15&#45;&gt;Node20 -->
<g id="edge19" class="edge"><title>Node15&#45;&gt;Node20</title>
<path fill="none" stroke="midnightblue" d="M632.769,-201.475C654.851,-191.445 691.719,-174.7 717.139,-163.155"/>
<polygon fill="midnightblue" stroke="midnightblue" points="718.608,-166.331 726.266,-159.009 715.713,-159.958 718.608,-166.331"/>
</g>
<!-- Node21 -->
<g id="node21" class="node"><title>Node21</title>
<polygon fill="white" stroke="#bfbfbf" points="790.5,-134.5 790.5,-164.5 895.5,-164.5 895.5,-134.5 790.5,-134.5"/>
<text text-anchor="start" x="798.5" y="-152.5" font-family="Helvetica,sans-Serif" font-size="10.00">boost/units/systems</text>
<text text-anchor="middle" x="843" y="-141.5" font-family="Helvetica,sans-Serif" font-size="10.00">/si/io.hpp</text>
</g>
<!-- Node15&#45;&gt;Node21 -->
<g id="edge20" class="edge"><title>Node15&#45;&gt;Node21</title>
<path fill="none" stroke="midnightblue" d="M646.81,-201.475C681.575,-192.442 737.304,-177.962 780.498,-166.739"/>
<polygon fill="midnightblue" stroke="midnightblue" points="781.55,-170.083 790.348,-164.18 779.789,-163.308 781.55,-170.083"/>
</g>
<!-- Node23 -->
<g id="node23" class="node"><title>Node23</title>
<g id="a_node23"><a xlink:href="EnumIterator_8hh.html" target="_top" xlink:title="boca/generic/EnumIterator.hh">
<polygon fill="white" stroke="black" points="256.5,-140 256.5,-159 401.5,-159 401.5,-140 256.5,-140"/>
<text text-anchor="middle" x="329" y="-147" font-family="Helvetica,sans-Serif" font-size="10.00">boca/generic/EnumIterator.hh</text>
</a>
</g>
</g>
<!-- Node22&#45;&gt;Node23 -->
<g id="edge22" class="edge"><title>Node22&#45;&gt;Node23</title>
<path fill="none" stroke="midnightblue" d="M393.254,-201.475C381.447,-192.108 362.257,-176.884 347.918,-165.508"/>
<polygon fill="midnightblue" stroke="midnightblue" points="349.735,-162.482 339.726,-159.009 345.385,-167.966 349.735,-162.482"/>
</g>
<!-- Node23&#45;&gt;Node13 -->
<g id="edge25" class="edge"><title>Node23&#45;&gt;Node13</title>
<path fill="none" stroke="midnightblue" d="M350.645,-139.869C378.977,-128.571 428.816,-108.696 461.109,-95.8183"/>
<polygon fill="midnightblue" stroke="midnightblue" points="462.533,-99.0189 470.525,-92.0637 459.94,-92.5168 462.533,-99.0189"/>
</g>
<!-- Node24 -->
<g id="node24" class="node"><title>Node24</title>
<polygon fill="white" stroke="#bfbfbf" points="263.5,-73 263.5,-92 310.5,-92 310.5,-73 263.5,-73"/>
<text text-anchor="middle" x="287" y="-80" font-family="Helvetica,sans-Serif" font-size="10.00">iterator</text>
</g>
<!-- Node23&#45;&gt;Node24 -->
<g id="edge23" class="edge"><title>Node23&#45;&gt;Node24</title>
<path fill="none" stroke="midnightblue" d="M323.336,-139.734C316.912,-129.793 306.28,-113.338 298.171,-100.789"/>
<polygon fill="midnightblue" stroke="midnightblue" points="300.941,-98.627 292.575,-92.1273 295.062,-102.426 300.941,-98.627"/>
</g>
<!-- Node25 -->
<g id="node25" class="node"><title>Node25</title>
<polygon fill="white" stroke="#bfbfbf" points="329,-73 329,-92 391,-92 391,-73 329,-73"/>
<text text-anchor="middle" x="360" y="-80" font-family="Helvetica,sans-Serif" font-size="10.00">type_traits</text>
</g>
<!-- Node23&#45;&gt;Node25 -->
<g id="edge24" class="edge"><title>Node23&#45;&gt;Node25</title>
<path fill="none" stroke="midnightblue" d="M333.181,-139.734C337.875,-129.89 345.616,-113.66 351.578,-101.159"/>
<polygon fill="midnightblue" stroke="midnightblue" points="354.74,-102.66 355.885,-92.1273 348.422,-99.6467 354.74,-102.66"/>
</g>
<!-- Node27 -->
<g id="node27" class="node"><title>Node27</title>
<polygon fill="white" stroke="#bfbfbf" points="867.5,-6 867.5,-25 980.5,-25 980.5,-6 867.5,-6"/>
<text text-anchor="middle" x="924" y="-13" font-family="Helvetica,sans-Serif" font-size="10.00">boost/units/cmath.hpp</text>
</g>
<!-- Node26&#45;&gt;Node27 -->
<g id="edge27" class="edge"><title>Node26&#45;&gt;Node27</title>
<path fill="none" stroke="midnightblue" d="M901.062,-201.436C904.678,-172.287 916.562,-76.4675 921.652,-35.4284"/>
<polygon fill="midnightblue" stroke="midnightblue" points="925.138,-35.7616 922.895,-25.4068 918.191,-34.8999 925.138,-35.7616"/>
</g>
<!-- Node28 -->
<g id="node28" class="node"><title>Node28</title>
<g id="a_node28"><a xlink:href="Prefixes_8hh.html" target="_top" xlink:title="boca/units/Prefixes.hh">
<polygon fill="white" stroke="black" points="1220,-140 1220,-159 1334,-159 1334,-140 1220,-140"/>
<text text-anchor="middle" x="1277" y="-147" font-family="Helvetica,sans-Serif" font-size="10.00">boca/units/Prefixes.hh</text>
</a>
</g>
</g>
<!-- Node26&#45;&gt;Node28 -->
<g id="edge28" class="edge"><title>Node26&#45;&gt;Node28</title>
<path fill="none" stroke="midnightblue" d="M950.844,-201.976C1018.7,-191.266 1138.89,-172.298 1212.88,-160.619"/>
<polygon fill="midnightblue" stroke="midnightblue" points="1213.68,-164.037 1223.01,-159.021 1212.59,-157.123 1213.68,-164.037"/>
</g>
<!-- Node29 -->
<g id="node29" class="node"><title>Node29</title>
<polygon fill="white" stroke="#bfbfbf" points="1797,-73 1797,-92 1907,-92 1907,-73 1797,-73"/>
<text text-anchor="middle" x="1852" y="-80" font-family="Helvetica,sans-Serif" font-size="10.00">boost/units/scale.hpp</text>
</g>
<!-- Node28&#45;&gt;Node29 -->
<g id="edge29" class="edge"><title>Node28&#45;&gt;Node29</title>
<path fill="none" stroke="midnightblue" d="M1334.01,-145.187C1428.73,-139.164 1624.32,-124.524 1788,-98 1794.42,-96.9595 1801.16,-95.6619 1807.76,-94.2736"/>
<polygon fill="midnightblue" stroke="midnightblue" points="1808.92,-97.6014 1817.94,-92.0414 1807.43,-90.7637 1808.92,-97.6014"/>
</g>
<!-- Node30 -->
<g id="node30" class="node"><title>Node30</title>
<polygon fill="white" stroke="#bfbfbf" points="952.5,-67.5 952.5,-97.5 1077.5,-97.5 1077.5,-67.5 952.5,-67.5"/>
<text text-anchor="start" x="960.5" y="-85.5" font-family="Helvetica,sans-Serif" font-size="10.00">boost/units/make_scaled</text>
<text text-anchor="middle" x="1015" y="-74.5" font-family="Helvetica,sans-Serif" font-size="10.00">_unit.hpp</text>
</g>
<!-- Node28&#45;&gt;Node30 -->
<g id="edge30" class="edge"><title>Node28&#45;&gt;Node30</title>
<path fill="none" stroke="midnightblue" d="M1242.48,-139.936C1201.7,-129.82 1132.95,-112.762 1081.68,-100.042"/>
<polygon fill="midnightblue" stroke="midnightblue" points="1082.22,-96.5701 1071.67,-97.5592 1080.53,-103.364 1082.22,-96.5701"/>
</g>
<!-- Node31 -->
<g id="node31" class="node"><title>Node31</title>
<polygon fill="white" stroke="#bfbfbf" points="1095.5,-67.5 1095.5,-97.5 1206.5,-97.5 1206.5,-67.5 1095.5,-67.5"/>
<text text-anchor="start" x="1103.5" y="-85.5" font-family="Helvetica,sans-Serif" font-size="10.00">boost/units/systems</text>
<text text-anchor="middle" x="1151" y="-74.5" font-family="Helvetica,sans-Serif" font-size="10.00">/si/dimensionless.hpp</text>
</g>
<!-- Node28&#45;&gt;Node31 -->
<g id="edge31" class="edge"><title>Node28&#45;&gt;Node31</title>
<path fill="none" stroke="midnightblue" d="M1260.27,-139.869C1241.83,-130.357 1211.61,-114.765 1187.62,-102.389"/>
<polygon fill="midnightblue" stroke="midnightblue" points="1188.92,-99.1258 1178.43,-97.6516 1185.71,-105.347 1188.92,-99.1258"/>
</g>
<!-- Node32 -->
<g id="node32" class="node"><title>Node32</title>
<polygon fill="white" stroke="#bfbfbf" points="1225,-73 1225,-92 1329,-92 1329,-73 1225,-73"/>
<text text-anchor="middle" x="1277" y="-80" font-family="Helvetica,sans-Serif" font-size="10.00">boost/units/pow.hpp</text>
</g>
<!-- Node28&#45;&gt;Node32 -->
<g id="edge32" class="edge"><title>Node28&#45;&gt;Node32</title>
<path fill="none" stroke="midnightblue" d="M1277,-139.734C1277,-130.183 1277,-114.618 1277,-102.283"/>
<polygon fill="midnightblue" stroke="midnightblue" points="1280.5,-102.127 1277,-92.1273 1273.5,-102.127 1280.5,-102.127"/>
</g>
<!-- Node33 -->
<g id="node33" class="node"><title>Node33</title>
<g id="a_node33"><a xlink:href="Si_8hh.html" target="_top" xlink:title="boca/units/Si.hh">
<polygon fill="white" stroke="black" points="1347.5,-73 1347.5,-92 1434.5,-92 1434.5,-73 1347.5,-73"/>
<text text-anchor="middle" x="1391" y="-80" font-family="Helvetica,sans-Serif" font-size="10.00">boca/units/Si.hh</text>
</a>
</g>
</g>
<!-- Node28&#45;&gt;Node33 -->
<g id="edge33" class="edge"><title>Node28&#45;&gt;Node33</title>
<path fill="none" stroke="midnightblue" d="M1292.37,-139.734C1311.52,-128.818 1344.44,-110.049 1366.94,-97.2209"/>
<polygon fill="midnightblue" stroke="midnightblue" points="1368.92,-100.121 1375.87,-92.1273 1365.45,-94.04 1368.92,-100.121"/>
</g>
<!-- Node38 -->
<g id="node38" class="node"><title>Node38</title>
<g id="a_node38"><a xlink:href="Barn_8hh.html" target="_top" xlink:title="boca/units/Barn.hh">
<polygon fill="white" stroke="black" points="1521,-73 1521,-92 1619,-92 1619,-73 1521,-73"/>
<text text-anchor="middle" x="1570" y="-80" font-family="Helvetica,sans-Serif" font-size="10.00">boca/units/Barn.hh</text>
</a>
</g>
</g>
<!-- Node28&#45;&gt;Node38 -->
<g id="edge39" class="edge"><title>Node28&#45;&gt;Node38</title>
<path fill="none" stroke="midnightblue" d="M1315.61,-139.936C1368.53,-128.196 1463.59,-107.105 1521.33,-94.2971"/>
<polygon fill="midnightblue" stroke="midnightblue" points="1522.3,-97.6662 1531.31,-92.0834 1520.79,-90.8323 1522.3,-97.6662"/>
</g>
<!-- Node42 -->
<g id="node42" class="node"><title>Node42</title>
<g id="a_node42"><a xlink:href="ElectronVolt_8hh.html" target="_top" xlink:title="boca/units/ElectronVolt.hh">
<polygon fill="white" stroke="black" points="1647.5,-73 1647.5,-92 1778.5,-92 1778.5,-73 1647.5,-73"/>
<text text-anchor="middle" x="1713" y="-80" font-family="Helvetica,sans-Serif" font-size="10.00">boca/units/ElectronVolt.hh</text>
</a>
</g>
</g>
<!-- Node28&#45;&gt;Node42 -->
<g id="edge44" class="edge"><title>Node28&#45;&gt;Node42</title>
<path fill="none" stroke="midnightblue" d="M1334.22,-140.735C1403.75,-131.19 1524.61,-114.253 1628,-98 1636.4,-96.6799 1645.25,-95.2321 1653.95,-93.7782"/>
<polygon fill="midnightblue" stroke="midnightblue" points="1654.76,-97.1897 1664.04,-92.0758 1653.6,-90.2871 1654.76,-97.1897"/>
</g>
<!-- Node33&#45;&gt;Node27 -->
<g id="edge37" class="edge"><title>Node33&#45;&gt;Node27</title>
<path fill="none" stroke="midnightblue" d="M1363.14,-72.958C1355.09,-70.7408 1346.25,-68.5447 1338,-67 1185.16,-38.3877 1143.51,-55.7223 990,-31 983.308,-29.9222 976.274,-28.5923 969.394,-27.1789"/>
<polygon fill="midnightblue" stroke="midnightblue" points="969.991,-23.7278 959.482,-25.0681 968.533,-30.5742 969.991,-23.7278"/>
</g>
<!-- Node34 -->
<g id="node34" class="node"><title>Node34</title>
<polygon fill="white" stroke="#bfbfbf" points="1373.5,-6 1373.5,-25 1494.5,-25 1494.5,-6 1373.5,-6"/>
<text text-anchor="middle" x="1434" y="-13" font-family="Helvetica,sans-Serif" font-size="10.00">boost/units/quantity.hpp</text>
</g>
<!-- Node33&#45;&gt;Node34 -->
<g id="edge34" class="edge"><title>Node33&#45;&gt;Node34</title>
<path fill="none" stroke="midnightblue" d="M1396.8,-72.7338C1403.38,-62.7928 1414.26,-46.3377 1422.56,-33.7892"/>
<polygon fill="midnightblue" stroke="midnightblue" points="1425.69,-35.3986 1428.29,-25.1273 1419.86,-31.5364 1425.69,-35.3986"/>
</g>
<!-- Node35 -->
<g id="node35" class="node"><title>Node35</title>
<polygon fill="white" stroke="#bfbfbf" points="998.5,-0.5 998.5,-30.5 1103.5,-30.5 1103.5,-0.5 998.5,-0.5"/>
<text text-anchor="start" x="1006.5" y="-18.5" font-family="Helvetica,sans-Serif" font-size="10.00">boost/units/systems</text>
<text text-anchor="middle" x="1051" y="-7.5" font-family="Helvetica,sans-Serif" font-size="10.00">/si/plane_angle.hpp</text>
</g>
<!-- Node33&#45;&gt;Node35 -->
<g id="edge35" class="edge"><title>Node33&#45;&gt;Node35</title>
<path fill="none" stroke="midnightblue" d="M1361.98,-72.9514C1354.23,-70.8358 1345.83,-68.6928 1338,-67 1242.11,-46.275 1214.1,-50.2606 1113.66,-31.0312"/>
<polygon fill="midnightblue" stroke="midnightblue" points="1114.19,-27.5693 1103.71,-29.0962 1112.86,-34.4406 1114.19,-27.5693"/>
</g>
<!-- Node36 -->
<g id="node36" class="node"><title>Node36</title>
<polygon fill="white" stroke="#bfbfbf" points="1121.5,-0.5 1121.5,-30.5 1226.5,-30.5 1226.5,-0.5 1121.5,-0.5"/>
<text text-anchor="start" x="1129.5" y="-18.5" font-family="Helvetica,sans-Serif" font-size="10.00">boost/units/systems</text>
<text text-anchor="middle" x="1174" y="-7.5" font-family="Helvetica,sans-Serif" font-size="10.00">/si/length.hpp</text>
</g>
<!-- Node33&#45;&gt;Node36 -->
<g id="edge36" class="edge"><title>Node33&#45;&gt;Node36</title>
<path fill="none" stroke="midnightblue" d="M1362.18,-72.8685C1328.71,-62.8406 1272.67,-46.0559 1230.43,-33.4042"/>
<polygon fill="midnightblue" stroke="midnightblue" points="1231.42,-30.0447 1220.83,-30.5281 1229.41,-36.7504 1231.42,-30.0447"/>
</g>
<!-- Node37 -->
<g id="node37" class="node"><title>Node37</title>
<polygon fill="white" stroke="#bfbfbf" points="1244.5,-0.5 1244.5,-30.5 1355.5,-30.5 1355.5,-0.5 1244.5,-0.5"/>
<text text-anchor="start" x="1252.5" y="-18.5" font-family="Helvetica,sans-Serif" font-size="10.00">boost/math/constants</text>
<text text-anchor="middle" x="1300" y="-7.5" font-family="Helvetica,sans-Serif" font-size="10.00">/constants.hpp</text>
</g>
<!-- Node33&#45;&gt;Node37 -->
<g id="edge38" class="edge"><title>Node33&#45;&gt;Node37</title>
<path fill="none" stroke="midnightblue" d="M1378.73,-72.7338C1365.84,-63.527 1345.13,-48.7328 1328.18,-36.6293"/>
<polygon fill="midnightblue" stroke="midnightblue" points="1329.9,-33.5534 1319.72,-30.589 1325.83,-39.2495 1329.9,-33.5534"/>
</g>
<!-- Node38&#45;&gt;Node34 -->
<g id="edge42" class="edge"><title>Node38&#45;&gt;Node34</title>
<path fill="none" stroke="midnightblue" d="M1551.94,-72.8685C1528.77,-61.7961 1488.37,-42.4862 1461.4,-29.5978"/>
<polygon fill="midnightblue" stroke="midnightblue" points="1462.67,-26.3216 1452.13,-25.1672 1459.65,-32.6373 1462.67,-26.3216"/>
</g>
<!-- Node39 -->
<g id="node39" class="node"><title>Node39</title>
<polygon fill="white" stroke="#bfbfbf" points="1645.5,-6 1645.5,-25 1802.5,-25 1802.5,-6 1645.5,-6"/>
<text text-anchor="middle" x="1724" y="-13" font-family="Helvetica,sans-Serif" font-size="10.00">boost/units/base_dimension.hpp</text>
</g>
<!-- Node38&#45;&gt;Node39 -->
<g id="edge40" class="edge"><title>Node38&#45;&gt;Node39</title>
<path fill="none" stroke="midnightblue" d="M1590.45,-72.8685C1617.03,-61.6504 1663.64,-41.9766 1694.17,-29.0925"/>
<polygon fill="midnightblue" stroke="midnightblue" points="1695.61,-32.2804 1703.47,-25.1672 1692.89,-25.8313 1695.61,-32.2804"/>
</g>
<!-- Node40 -->
<g id="node40" class="node"><title>Node40</title>
<polygon fill="white" stroke="#bfbfbf" points="1821,-6 1821,-25 1949,-25 1949,-6 1821,-6"/>
<text text-anchor="middle" x="1885" y="-13" font-family="Helvetica,sans-Serif" font-size="10.00">boost/units/base_unit.hpp</text>
</g>
<!-- Node38&#45;&gt;Node40 -->
<g id="edge41" class="edge"><title>Node38&#45;&gt;Node40</title>
<path fill="none" stroke="midnightblue" d="M1610.49,-72.9578C1619.85,-70.9924 1629.77,-68.9169 1639,-67 1706.09,-53.0638 1783.53,-37.2046 1833.32,-27.0367"/>
<polygon fill="midnightblue" stroke="midnightblue" points="1834.1,-30.4484 1843.2,-25.0187 1832.7,-23.5899 1834.1,-30.4484"/>
</g>
<!-- Node41 -->
<g id="node41" class="node"><title>Node41</title>
<polygon fill="white" stroke="#bfbfbf" points="1512.5,-0.5 1512.5,-30.5 1627.5,-30.5 1627.5,-0.5 1512.5,-0.5"/>
<text text-anchor="start" x="1520.5" y="-18.5" font-family="Helvetica,sans-Serif" font-size="10.00">boost/units/base_units</text>
<text text-anchor="middle" x="1570" y="-7.5" font-family="Helvetica,sans-Serif" font-size="10.00">/metric/barn.hpp</text>
</g>
<!-- Node38&#45;&gt;Node41 -->
<g id="edge43" class="edge"><title>Node38&#45;&gt;Node41</title>
<path fill="none" stroke="midnightblue" d="M1570,-72.7338C1570,-64.5406 1570,-51.9225 1570,-40.7136"/>
<polygon fill="midnightblue" stroke="midnightblue" points="1573.5,-40.589 1570,-30.589 1566.5,-40.5891 1573.5,-40.589"/>
</g>
<!-- Node42&#45;&gt;Node34 -->
<g id="edge47" class="edge"><title>Node42&#45;&gt;Node34</title>
<path fill="none" stroke="midnightblue" d="M1676.24,-72.9355C1625.95,-61.2199 1535.7,-40.1925 1480.69,-27.3768"/>
<polygon fill="midnightblue" stroke="midnightblue" points="1481.38,-23.9438 1470.84,-25.0834 1479.79,-30.7612 1481.38,-23.9438"/>
</g>
<!-- Node42&#45;&gt;Node39 -->
<g id="edge45" class="edge"><title>Node42&#45;&gt;Node39</title>
<path fill="none" stroke="midnightblue" d="M1714.48,-72.7338C1716.1,-63.1826 1718.73,-47.6183 1720.82,-35.2829"/>
<polygon fill="midnightblue" stroke="midnightblue" points="1724.32,-35.5711 1722.54,-25.1273 1717.42,-34.4031 1724.32,-35.5711"/>
</g>
<!-- Node42&#45;&gt;Node40 -->
<g id="edge46" class="edge"><title>Node42&#45;&gt;Node40</title>
<path fill="none" stroke="midnightblue" d="M1735.84,-72.8685C1765.87,-61.5219 1818.78,-41.5246 1852.84,-28.6522"/>
<polygon fill="midnightblue" stroke="midnightblue" points="1854.22,-31.8728 1862.34,-25.0637 1851.75,-25.3248 1854.22,-31.8728"/>
</g>
<!-- Node43 -->
<g id="node43" class="node"><title>Node43</title>
<polygon fill="white" stroke="#bfbfbf" points="1967.5,-0.5 1967.5,-30.5 2072.5,-30.5 2072.5,-0.5 1967.5,-0.5"/>
<text text-anchor="start" x="1975.5" y="-18.5" font-family="Helvetica,sans-Serif" font-size="10.00">boost/units/systems</text>
<text text-anchor="middle" x="2020" y="-7.5" font-family="Helvetica,sans-Serif" font-size="10.00">/si/energy.hpp</text>
</g>
<!-- Node42&#45;&gt;Node43 -->
<g id="edge48" class="edge"><title>Node42&#45;&gt;Node43</title>
<path fill="none" stroke="midnightblue" d="M1756,-72.9944C1802.97,-63.624 1880.68,-47.891 1957.42,-31.0957"/>
<polygon fill="midnightblue" stroke="midnightblue" points="1958.24,-34.4986 1967.26,-28.9353 1956.74,-27.6615 1958.24,-34.4986"/>
</g>
<!-- Node44&#45;&gt;Node17 -->
<g id="edge50" class="edge"><title>Node44&#45;&gt;Node17</title>
<path fill="none" stroke="midnightblue" d="M238.645,-203.066C284.19,-196.05 352.563,-183.571 410,-165 411.872,-164.395 413.78,-163.712 415.685,-162.981"/>
<polygon fill="midnightblue" stroke="midnightblue" points="417.151,-166.161 425.01,-159.055 414.436,-159.709 417.151,-166.161"/>
</g>
<!-- Node45 -->
<g id="node45" class="node"><title>Node45</title>
<polygon fill="white" stroke="#bfbfbf" points="128,-134.5 128,-164.5 238,-164.5 238,-134.5 128,-134.5"/>
<text text-anchor="start" x="136" y="-152.5" font-family="Helvetica,sans-Serif" font-size="10.00">boost/range/algorithm</text>
<text text-anchor="middle" x="183" y="-141.5" font-family="Helvetica,sans-Serif" font-size="10.00">/lower_bound.hpp</text>
</g>
<!-- Node44&#45;&gt;Node45 -->
<g id="edge51" class="edge"><title>Node44&#45;&gt;Node45</title>
<path fill="none" stroke="midnightblue" d="M187.284,-201.475C186.695,-194.471 185.831,-184.192 185.033,-174.696"/>
<polygon fill="midnightblue" stroke="midnightblue" points="188.504,-174.195 184.178,-164.523 181.528,-174.781 188.504,-174.195"/>
</g>
<!-- Node46 -->
<g id="node46" class="node"><title>Node46</title>
<polygon fill="white" stroke="#bfbfbf" points="0,-134.5 0,-164.5 110,-164.5 110,-134.5 0,-134.5"/>
<text text-anchor="start" x="8" y="-152.5" font-family="Helvetica,sans-Serif" font-size="10.00">boost/range/algorithm</text>
<text text-anchor="middle" x="55" y="-141.5" font-family="Helvetica,sans-Serif" font-size="10.00">/upper_bound.hpp</text>
</g>
<!-- Node44&#45;&gt;Node46 -->
<g id="edge52" class="edge"><title>Node44&#45;&gt;Node46</title>
<path fill="none" stroke="midnightblue" d="M168.944,-201.475C149.921,-192.965 120.09,-179.619 95.7225,-168.718"/>
<polygon fill="midnightblue" stroke="midnightblue" points="96.903,-165.412 86.3455,-164.523 94.0444,-171.802 96.903,-165.412"/>
</g>
<!-- Node47&#45;&gt;Node13 -->
<g id="edge54" class="edge"><title>Node47&#45;&gt;Node13</title>
<path fill="none" stroke="midnightblue" d="M1023.04,-201.385C1001.7,-185.128 952.509,-150.116 905,-134 785.278,-93.3882 636.225,-84.7024 553.9,-83.2712"/>
<polygon fill="midnightblue" stroke="midnightblue" points="553.76,-79.7689 543.711,-83.1254 553.66,-86.7682 553.76,-79.7689"/>
</g>
<!-- Node47&#45;&gt;Node28 -->
<g id="edge56" class="edge"><title>Node47&#45;&gt;Node28</title>
<path fill="none" stroke="midnightblue" d="M1068.82,-201.475C1111.85,-190.937 1185.17,-172.986 1232.31,-161.441"/>
<polygon fill="midnightblue" stroke="midnightblue" points="1233.37,-164.787 1242.25,-159.009 1231.7,-157.988 1233.37,-164.787"/>
</g>
<!-- Node47&#45;&gt;Node47 -->
<g id="edge55" class="edge"><title>Node47&#45;&gt;Node47</title>
<path fill="none" stroke="midnightblue" d="M1064.83,-220.533C1090.59,-224.607 1117.5,-221.43 1117.5,-211 1117.5,-201.915 1097.08,-198.332 1074.79,-200.253"/>
<polygon fill="midnightblue" stroke="midnightblue" points="1074.33,-196.782 1064.83,-201.467 1075.18,-203.731 1074.33,-196.782"/>
</g>
<!-- Node48&#45;&gt;Node15 -->
<g id="edge58" class="edge"><title>Node48&#45;&gt;Node15</title>
<path fill="none" stroke="midnightblue" d="M626.208,-257.399C624.051,-249.377 621.323,-239.233 618.993,-230.569"/>
<polygon fill="midnightblue" stroke="midnightblue" points="622.305,-229.406 616.328,-220.658 615.545,-231.224 622.305,-229.406"/>
</g>
</g>
</svg>
