<?xml version="1.0" encoding="UTF-8" standalone="no"?>
<!DOCTYPE svg PUBLIC "-//W3C//DTD SVG 1.1//EN"
 "http://www.w3.org/Graphics/SVG/1.1/DTD/svg11.dtd">
<!-- Generated by graphviz version 2.38.0 (20140413.2041)
 -->
<!-- Title: boca/Settings.hh Pages: 1 -->
<svg width="1125pt" height="341pt"
 viewBox="0.00 0.00 1125.00 341.00" xmlns="http://www.w3.org/2000/svg" xmlns:xlink="http://www.w3.org/1999/xlink">
<g id="graph0" class="graph" transform="scale(1 1) rotate(0) translate(4 337)">
<title>boca/Settings.hh</title>
<polygon fill="white" stroke="none" points="-4,4 -4,-337 1121,-337 1121,4 -4,4"/>
<!-- Node1 -->
<g id="node1" class="node"><title>Node1</title>
<polygon fill="#bfbfbf" stroke="black" points="834.5,-313.5 834.5,-332.5 924.5,-332.5 924.5,-313.5 834.5,-313.5"/>
<text text-anchor="middle" x="879.5" y="-320.5" font-family="Helvetica,sans-Serif" font-size="10.00">boca/Settings.hh</text>
</g>
<!-- Node2 -->
<g id="node2" class="node"><title>Node2</title>
<g id="a_node2"><a xlink:href="InfoRecombiner_8hh.html" target="_top" xlink:title="boca/fastjet/InfoRecombiner.hh">
<polygon fill="white" stroke="black" points="491,-257.5 491,-276.5 644,-276.5 644,-257.5 491,-257.5"/>
<text text-anchor="middle" x="567.5" y="-264.5" font-family="Helvetica,sans-Serif" font-size="10.00">boca/fastjet/InfoRecombiner.hh</text>
</a>
</g>
</g>
<!-- Node1&#45;&gt;Node2 -->
<g id="edge1" class="edge"><title>Node1&#45;&gt;Node2</title>
<path fill="none" stroke="midnightblue" d="M834.466,-314.206C779.748,-304.735 687.268,-288.729 626.798,-278.263"/>
<polygon fill="midnightblue" stroke="midnightblue" points="627.089,-274.761 616.638,-276.505 625.895,-281.659 627.089,-274.761"/>
</g>
<!-- Node4 -->
<g id="node4" class="node"><title>Node4</title>
<g id="a_node4"><a xlink:href="Range_8hh.html" target="_top" xlink:title="boca/physics/Range.hh">
<polygon fill="white" stroke="black" points="758,-257.5 758,-276.5 877,-276.5 877,-257.5 758,-257.5"/>
<text text-anchor="middle" x="817.5" y="-264.5" font-family="Helvetica,sans-Serif" font-size="10.00">boca/physics/Range.hh</text>
</a>
</g>
</g>
<!-- Node1&#45;&gt;Node4 -->
<g id="edge3" class="edge"><title>Node1&#45;&gt;Node4</title>
<path fill="none" stroke="midnightblue" d="M869.539,-313.324C860.373,-305.341 846.563,-293.313 835.472,-283.653"/>
<polygon fill="midnightblue" stroke="midnightblue" points="837.482,-280.762 827.643,-276.834 832.885,-286.041 837.482,-280.762"/>
</g>
<!-- Node28 -->
<g id="node28" class="node"><title>Node28</title>
<g id="a_node28"><a xlink:href="Souce_8hh.html" target="_top" xlink:title="boca/io/Souce.hh">
<polygon fill="white" stroke="black" points="895.5,-257.5 895.5,-276.5 987.5,-276.5 987.5,-257.5 895.5,-257.5"/>
<text text-anchor="middle" x="941.5" y="-264.5" font-family="Helvetica,sans-Serif" font-size="10.00">boca/io/Souce.hh</text>
</a>
</g>
</g>
<!-- Node1&#45;&gt;Node28 -->
<g id="edge32" class="edge"><title>Node1&#45;&gt;Node28</title>
<path fill="none" stroke="midnightblue" d="M889.461,-313.324C898.627,-305.341 912.437,-293.313 923.528,-283.653"/>
<polygon fill="midnightblue" stroke="midnightblue" points="926.115,-286.041 931.357,-276.834 921.518,-280.762 926.115,-286.041"/>
</g>
<!-- Node30 -->
<g id="node30" class="node"><title>Node30</title>
<g id="a_node30"><a xlink:href="Font_8hh.html" target="_top" xlink:title="boca/plotting/Font.hh">
<polygon fill="white" stroke="black" points="1005.5,-257.5 1005.5,-276.5 1113.5,-276.5 1113.5,-257.5 1005.5,-257.5"/>
<text text-anchor="middle" x="1059.5" y="-264.5" font-family="Helvetica,sans-Serif" font-size="10.00">boca/plotting/Font.hh</text>
</a>
</g>
</g>
<!-- Node1&#45;&gt;Node30 -->
<g id="edge34" class="edge"><title>Node1&#45;&gt;Node30</title>
<path fill="none" stroke="midnightblue" d="M908.022,-313.444C938.566,-304.28 987.208,-289.688 1021.1,-279.519"/>
<polygon fill="midnightblue" stroke="midnightblue" points="1022.54,-282.742 1031.11,-276.516 1020.53,-276.038 1022.54,-282.742"/>
</g>
<!-- Node3 -->
<g id="node3" class="node"><title>Node3</title>
<polygon fill="white" stroke="#bfbfbf" points="416,-201.5 416,-220.5 531,-220.5 531,-201.5 416,-201.5"/>
<text text-anchor="middle" x="473.5" y="-208.5" font-family="Helvetica,sans-Serif" font-size="10.00">fastjet/JetDefinition.hh</text>
</g>
<!-- Node2&#45;&gt;Node3 -->
<g id="edge2" class="edge"><title>Node2&#45;&gt;Node3</title>
<path fill="none" stroke="midnightblue" d="M552.397,-257.324C537.597,-248.822 514.806,-235.729 497.518,-225.797"/>
<polygon fill="midnightblue" stroke="midnightblue" points="498.98,-222.601 488.565,-220.655 495.493,-228.671 498.98,-222.601"/>
</g>
<!-- Node5 -->
<g id="node5" class="node"><title>Node5</title>
<polygon fill="white" stroke="#bfbfbf" points="803.5,-201.5 803.5,-220.5 857.5,-220.5 857.5,-201.5 803.5,-201.5"/>
<text text-anchor="middle" x="830.5" y="-208.5" font-family="Helvetica,sans-Serif" font-size="10.00">iostream</text>
</g>
<!-- Node4&#45;&gt;Node5 -->
<g id="edge4" class="edge"><title>Node4&#45;&gt;Node5</title>
<path fill="none" stroke="midnightblue" d="M819.647,-257.083C821.369,-249.927 823.847,-239.635 826,-230.691"/>
<polygon fill="midnightblue" stroke="midnightblue" points="829.455,-231.293 828.393,-220.751 822.65,-229.654 829.455,-231.293"/>
</g>
<!-- Node6 -->
<g id="node6" class="node"><title>Node6</title>
<polygon fill="white" stroke="#bfbfbf" points="875.5,-201.5 875.5,-220.5 915.5,-220.5 915.5,-201.5 875.5,-201.5"/>
<text text-anchor="middle" x="895.5" y="-208.5" font-family="Helvetica,sans-Serif" font-size="10.00">utility</text>
</g>
<!-- Node4&#45;&gt;Node6 -->
<g id="edge5" class="edge"><title>Node4&#45;&gt;Node6</title>
<path fill="none" stroke="midnightblue" d="M830.032,-257.324C842.086,-248.979 860.527,-236.212 874.769,-226.352"/>
<polygon fill="midnightblue" stroke="midnightblue" points="876.769,-229.224 882.999,-220.655 872.785,-223.469 876.769,-229.224"/>
</g>
<!-- Node7 -->
<g id="node7" class="node"><title>Node7</title>
<g id="a_node7"><a xlink:href="Units_8hh.html" target="_top" xlink:title="boca/physics/Units.hh">
<polygon fill="white" stroke="black" points="549.5,-201.5 549.5,-220.5 663.5,-220.5 663.5,-201.5 549.5,-201.5"/>
<text text-anchor="middle" x="606.5" y="-208.5" font-family="Helvetica,sans-Serif" font-size="10.00">boca/physics/Units.hh</text>
</a>
</g>
</g>
<!-- Node4&#45;&gt;Node7 -->
<g id="edge6" class="edge"><title>Node4&#45;&gt;Node7</title>
<path fill="none" stroke="midnightblue" d="M784.066,-257.444C747.644,-248.122 689.27,-233.183 649.471,-222.997"/>
<polygon fill="midnightblue" stroke="midnightblue" points="650.333,-219.605 639.777,-220.516 648.597,-226.387 650.333,-219.605"/>
</g>
<!-- Node25 -->
<g id="node25" class="node"><title>Node25</title>
<g id="a_node25"><a xlink:href="Math_8hh.html" target="_top" xlink:title="boca/math/Math.hh">
<polygon fill="white" stroke="black" points="684,-201.5 684,-220.5 785,-220.5 785,-201.5 684,-201.5"/>
<text text-anchor="middle" x="734.5" y="-208.5" font-family="Helvetica,sans-Serif" font-size="10.00">boca/math/Math.hh</text>
</a>
</g>
</g>
<!-- Node4&#45;&gt;Node25 -->
<g id="edge28" class="edge"><title>Node4&#45;&gt;Node25</title>
<path fill="none" stroke="midnightblue" d="M804.165,-257.324C791.338,-248.979 771.715,-236.212 756.56,-226.352"/>
<polygon fill="midnightblue" stroke="midnightblue" points="758.093,-223.174 747.802,-220.655 754.276,-229.042 758.093,-223.174"/>
</g>
<!-- Node8 -->
<g id="node8" class="node"><title>Node8</title>
<polygon fill="white" stroke="#bfbfbf" points="548,-140 548,-159 661,-159 661,-140 548,-140"/>
<text text-anchor="middle" x="604.5" y="-147" font-family="Helvetica,sans-Serif" font-size="10.00">boost/units/cmath.hpp</text>
</g>
<!-- Node7&#45;&gt;Node8 -->
<g id="edge7" class="edge"><title>Node7&#45;&gt;Node8</title>
<path fill="none" stroke="midnightblue" d="M606.213,-201.475C605.931,-193.08 605.491,-179.981 605.127,-169.163"/>
<polygon fill="midnightblue" stroke="midnightblue" points="608.62,-168.886 604.786,-159.009 601.624,-169.121 608.62,-168.886"/>
</g>
<!-- Node9 -->
<g id="node9" class="node"><title>Node9</title>
<g id="a_node9"><a xlink:href="Prefixes_8hh.html" target="_top" xlink:title="boca/physics/Prefixes.hh">
<polygon fill="white" stroke="black" points="403,-140 403,-159 530,-159 530,-140 403,-140"/>
<text text-anchor="middle" x="466.5" y="-147" font-family="Helvetica,sans-Serif" font-size="10.00">boca/physics/Prefixes.hh</text>
</a>
</g>
</g>
<!-- Node7&#45;&gt;Node9 -->
<g id="edge8" class="edge"><title>Node7&#45;&gt;Node9</title>
<path fill="none" stroke="midnightblue" d="M586.441,-201.475C562.738,-191.401 523.094,-174.553 495.917,-163.002"/>
<polygon fill="midnightblue" stroke="midnightblue" points="497.094,-159.699 486.521,-159.009 494.356,-166.142 497.094,-159.699"/>
</g>
<!-- Node10 -->
<g id="node10" class="node"><title>Node10</title>
<polygon fill="white" stroke="#bfbfbf" points="807.5,-73 807.5,-92 917.5,-92 917.5,-73 807.5,-73"/>
<text text-anchor="middle" x="862.5" y="-80" font-family="Helvetica,sans-Serif" font-size="10.00">boost/units/scale.hpp</text>
</g>
<!-- Node9&#45;&gt;Node10 -->
<g id="edge9" class="edge"><title>Node9&#45;&gt;Node10</title>
<path fill="none" stroke="midnightblue" d="M506.784,-139.935C517.1,-137.867 528.192,-135.75 538.5,-134 653.512,-114.475 683.731,-118.907 798.5,-98 804.679,-96.8745 811.164,-95.5613 817.537,-94.1935"/>
<polygon fill="midnightblue" stroke="midnightblue" points="818.389,-97.59 827.4,-92.0183 816.881,-90.7542 818.389,-97.59"/>
</g>
<!-- Node11 -->
<g id="node11" class="node"><title>Node11</title>
<polygon fill="white" stroke="#bfbfbf" points="0,-67.5 0,-97.5 125,-97.5 125,-67.5 0,-67.5"/>
<text text-anchor="start" x="8" y="-85.5" font-family="Helvetica,sans-Serif" font-size="10.00">boost/units/make_scaled</text>
<text text-anchor="middle" x="62.5" y="-74.5" font-family="Helvetica,sans-Serif" font-size="10.00">_unit.hpp</text>
</g>
<!-- Node9&#45;&gt;Node11 -->
<g id="edge10" class="edge"><title>Node9&#45;&gt;Node11</title>
<path fill="none" stroke="midnightblue" d="M404.05,-139.998C339.178,-130.947 234.499,-115.732 135.098,-98.2377"/>
<polygon fill="midnightblue" stroke="midnightblue" points="135.644,-94.7801 125.187,-96.4826 134.423,-101.673 135.644,-94.7801"/>
</g>
<!-- Node12 -->
<g id="node12" class="node"><title>Node12</title>
<polygon fill="white" stroke="#bfbfbf" points="143,-67.5 143,-97.5 254,-97.5 254,-67.5 143,-67.5"/>
<text text-anchor="start" x="151" y="-85.5" font-family="Helvetica,sans-Serif" font-size="10.00">boost/units/systems</text>
<text text-anchor="middle" x="198.5" y="-74.5" font-family="Helvetica,sans-Serif" font-size="10.00">/si/dimensionless.hpp</text>
</g>
<!-- Node9&#45;&gt;Node12 -->
<g id="edge11" class="edge"><title>Node9&#45;&gt;Node12</title>
<path fill="none" stroke="midnightblue" d="M431.188,-139.936C388.792,-129.653 316.822,-112.197 264.124,-99.4163"/>
<polygon fill="midnightblue" stroke="midnightblue" points="264.732,-95.9622 254.188,-97.0065 263.082,-102.765 264.732,-95.9622"/>
</g>
<!-- Node13 -->
<g id="node13" class="node"><title>Node13</title>
<polygon fill="white" stroke="#bfbfbf" points="272.5,-73 272.5,-92 376.5,-92 376.5,-73 272.5,-73"/>
<text text-anchor="middle" x="324.5" y="-80" font-family="Helvetica,sans-Serif" font-size="10.00">boost/units/pow.hpp</text>
</g>
<!-- Node9&#45;&gt;Node13 -->
<g id="edge12" class="edge"><title>Node9&#45;&gt;Node13</title>
<path fill="none" stroke="midnightblue" d="M447.643,-139.869C423.349,-128.748 380.899,-109.317 352.744,-96.4286"/>
<polygon fill="midnightblue" stroke="midnightblue" points="353.984,-93.147 343.434,-92.1672 351.07,-99.5118 353.984,-93.147"/>
</g>
<!-- Node14 -->
<g id="node14" class="node"><title>Node14</title>
<g id="a_node14"><a xlink:href="Si_8hh.html" target="_top" xlink:title="boca/physics/Si.hh">
<polygon fill="white" stroke="black" points="689.5,-73 689.5,-92 789.5,-92 789.5,-73 689.5,-73"/>
<text text-anchor="middle" x="739.5" y="-80" font-family="Helvetica,sans-Serif" font-size="10.00">boca/physics/Si.hh</text>
</a>
</g>
</g>
<!-- Node9&#45;&gt;Node14 -->
<g id="edge13" class="edge"><title>Node9&#45;&gt;Node14</title>
<path fill="none" stroke="midnightblue" d="M502.471,-139.936C551.574,-128.244 639.625,-107.28 693.482,-94.4566"/>
<polygon fill="midnightblue" stroke="midnightblue" points="694.532,-97.8045 703.45,-92.0834 692.911,-90.9949 694.532,-97.8045"/>
</g>
<!-- Node18 -->
<g id="node18" class="node"><title>Node18</title>
<g id="a_node18"><a xlink:href="Barn_8hh.html" target="_top" xlink:title="boca/physics/Barn.hh">
<polygon fill="white" stroke="black" points="557,-73 557,-92 668,-92 668,-73 557,-73"/>
<text text-anchor="middle" x="612.5" y="-80" font-family="Helvetica,sans-Serif" font-size="10.00">boca/physics/Barn.hh</text>
</a>
</g>
</g>
<!-- Node9&#45;&gt;Node18 -->
<g id="edge17" class="edge"><title>Node9&#45;&gt;Node18</title>
<path fill="none" stroke="midnightblue" d="M485.888,-139.869C510.976,-128.699 554.893,-109.147 583.839,-96.2602"/>
<polygon fill="midnightblue" stroke="midnightblue" points="585.32,-99.4319 593.032,-92.1672 582.473,-93.037 585.32,-99.4319"/>
</g>
<!-- Node23 -->
<g id="node23" class="node"><title>Node23</title>
<g id="a_node23"><a xlink:href="ElectronVolt_8hh.html" target="_top" xlink:title="boca/physics/ElectronVolt.hh">
<polygon fill="white" stroke="black" points="394.5,-73 394.5,-92 538.5,-92 538.5,-73 394.5,-73"/>
<text text-anchor="middle" x="466.5" y="-80" font-family="Helvetica,sans-Serif" font-size="10.00">boca/physics/ElectronVolt.hh</text>
</a>
</g>
</g>
<!-- Node9&#45;&gt;Node23 -->
<g id="edge23" class="edge"><title>Node9&#45;&gt;Node23</title>
<path fill="none" stroke="midnightblue" d="M466.5,-139.734C466.5,-130.183 466.5,-114.618 466.5,-102.283"/>
<polygon fill="midnightblue" stroke="midnightblue" points="470,-102.127 466.5,-92.1273 463,-102.127 470,-102.127"/>
</g>
<!-- Node15 -->
<g id="node15" class="node"><title>Node15</title>
<polygon fill="white" stroke="#bfbfbf" points="688,-6 688,-25 809,-25 809,-6 688,-6"/>
<text text-anchor="middle" x="748.5" y="-13" font-family="Helvetica,sans-Serif" font-size="10.00">boost/units/quantity.hpp</text>
</g>
<!-- Node14&#45;&gt;Node15 -->
<g id="edge14" class="edge"><title>Node14&#45;&gt;Node15</title>
<path fill="none" stroke="midnightblue" d="M740.714,-72.7338C742.036,-63.1826 744.191,-47.6183 745.899,-35.2829"/>
<polygon fill="midnightblue" stroke="midnightblue" points="749.401,-35.5129 747.305,-25.1273 742.467,-34.5527 749.401,-35.5129"/>
</g>
<!-- Node16 -->
<g id="node16" class="node"><title>Node16</title>
<polygon fill="white" stroke="#bfbfbf" points="1012,-0.5 1012,-30.5 1117,-30.5 1117,-0.5 1012,-0.5"/>
<text text-anchor="start" x="1020" y="-18.5" font-family="Helvetica,sans-Serif" font-size="10.00">boost/units/systems</text>
<text text-anchor="middle" x="1064.5" y="-7.5" font-family="Helvetica,sans-Serif" font-size="10.00">/si/plane_angle.hpp</text>
</g>
<!-- Node14&#45;&gt;Node16 -->
<g id="edge15" class="edge"><title>Node14&#45;&gt;Node16</title>
<path fill="none" stroke="midnightblue" d="M772.488,-72.9834C780.942,-70.9137 790.037,-68.7847 798.5,-67 885.507,-48.6524 910.609,-49.4124 1001.84,-31.0602"/>
<polygon fill="midnightblue" stroke="midnightblue" points="1002.68,-34.4615 1011.78,-29.0383 1001.28,-27.602 1002.68,-34.4615"/>
</g>
<!-- Node17 -->
<g id="node17" class="node"><title>Node17</title>
<polygon fill="white" stroke="#bfbfbf" points="889,-0.5 889,-30.5 994,-30.5 994,-0.5 889,-0.5"/>
<text text-anchor="start" x="897" y="-18.5" font-family="Helvetica,sans-Serif" font-size="10.00">boost/units/systems</text>
<text text-anchor="middle" x="941.5" y="-7.5" font-family="Helvetica,sans-Serif" font-size="10.00">/si/length.hpp</text>
</g>
<!-- Node14&#45;&gt;Node17 -->
<g id="edge16" class="edge"><title>Node14&#45;&gt;Node17</title>
<path fill="none" stroke="midnightblue" d="M766.324,-72.8685C797.291,-62.9039 848.991,-46.2676 888.22,-33.6444"/>
<polygon fill="midnightblue" stroke="midnightblue" points="889.458,-36.923 897.905,-30.5281 887.314,-30.2595 889.458,-36.923"/>
</g>
<!-- Node18&#45;&gt;Node15 -->
<g id="edge21" class="edge"><title>Node18&#45;&gt;Node15</title>
<path fill="none" stroke="midnightblue" d="M630.56,-72.8685C653.727,-61.7961 694.129,-42.4862 721.095,-29.5978"/>
<polygon fill="midnightblue" stroke="midnightblue" points="722.852,-32.6373 730.366,-25.1672 719.834,-26.3216 722.852,-32.6373"/>
</g>
<!-- Node19 -->
<g id="node19" class="node"><title>Node19</title>
<polygon fill="white" stroke="#bfbfbf" points="826.5,-6 826.5,-25 870.5,-25 870.5,-6 826.5,-6"/>
<text text-anchor="middle" x="848.5" y="-13" font-family="Helvetica,sans-Serif" font-size="10.00">vector</text>
</g>
<!-- Node18&#45;&gt;Node19 -->
<g id="edge18" class="edge"><title>Node18&#45;&gt;Node19</title>
<path fill="none" stroke="midnightblue" d="M651.136,-72.9345C701.596,-61.5831 787.086,-41.7423 817.5,-31 819.118,-30.4286 820.765,-29.8017 822.414,-29.139"/>
<polygon fill="midnightblue" stroke="midnightblue" points="823.929,-32.2966 831.696,-25.0901 821.13,-25.8805 823.929,-32.2966"/>
</g>
<!-- Node20 -->
<g id="node20" class="node"><title>Node20</title>
<polygon fill="white" stroke="#bfbfbf" points="380,-6 380,-25 537,-25 537,-6 380,-6"/>
<text text-anchor="middle" x="458.5" y="-13" font-family="Helvetica,sans-Serif" font-size="10.00">boost/units/base_dimension.hpp</text>
</g>
<!-- Node18&#45;&gt;Node20 -->
<g id="edge19" class="edge"><title>Node18&#45;&gt;Node20</title>
<path fill="none" stroke="midnightblue" d="M592.05,-72.8685C565.472,-61.6504 518.86,-41.9766 488.334,-29.0925"/>
<polygon fill="midnightblue" stroke="midnightblue" points="489.609,-25.8313 479.035,-25.1672 486.887,-32.2804 489.609,-25.8313"/>
</g>
<!-- Node21 -->
<g id="node21" class="node"><title>Node21</title>
<polygon fill="white" stroke="#bfbfbf" points="233.5,-6 233.5,-25 361.5,-25 361.5,-6 233.5,-6"/>
<text text-anchor="middle" x="297.5" y="-13" font-family="Helvetica,sans-Serif" font-size="10.00">boost/units/base_unit.hpp</text>
</g>
<!-- Node18&#45;&gt;Node21 -->
<g id="edge20" class="edge"><title>Node18&#45;&gt;Node21</title>
<path fill="none" stroke="midnightblue" d="M574.72,-72.937C565.802,-70.9531 556.321,-68.8747 547.5,-67 510.575,-59.1528 411.933,-39.3561 350.167,-27.0089"/>
<polygon fill="midnightblue" stroke="midnightblue" points="350.704,-23.547 340.212,-25.0194 349.332,-30.4113 350.704,-23.547"/>
</g>
<!-- Node22 -->
<g id="node22" class="node"><title>Node22</title>
<polygon fill="white" stroke="#bfbfbf" points="555,-0.5 555,-30.5 670,-30.5 670,-0.5 555,-0.5"/>
<text text-anchor="start" x="563" y="-18.5" font-family="Helvetica,sans-Serif" font-size="10.00">boost/units/base_units</text>
<text text-anchor="middle" x="612.5" y="-7.5" font-family="Helvetica,sans-Serif" font-size="10.00">/metric/barn.hpp</text>
</g>
<!-- Node18&#45;&gt;Node22 -->
<g id="edge22" class="edge"><title>Node18&#45;&gt;Node22</title>
<path fill="none" stroke="midnightblue" d="M612.5,-72.7338C612.5,-64.5406 612.5,-51.9225 612.5,-40.7136"/>
<polygon fill="midnightblue" stroke="midnightblue" points="616,-40.589 612.5,-30.589 609,-40.5891 616,-40.589"/>
</g>
<!-- Node23&#45;&gt;Node15 -->
<g id="edge26" class="edge"><title>Node23&#45;&gt;Node15</title>
<path fill="none" stroke="midnightblue" d="M503.657,-72.9355C554.484,-61.2199 645.711,-40.1925 701.312,-27.3768"/>
<polygon fill="midnightblue" stroke="midnightblue" points="702.303,-30.7401 711.261,-25.0834 700.731,-23.919 702.303,-30.7401"/>
</g>
<!-- Node23&#45;&gt;Node20 -->
<g id="edge24" class="edge"><title>Node23&#45;&gt;Node20</title>
<path fill="none" stroke="midnightblue" d="M465.421,-72.7338C464.246,-63.1826 462.33,-47.6183 460.812,-35.2829"/>
<polygon fill="midnightblue" stroke="midnightblue" points="464.257,-34.6248 459.562,-25.1273 457.31,-35.48 464.257,-34.6248"/>
</g>
<!-- Node23&#45;&gt;Node21 -->
<g id="edge25" class="edge"><title>Node23&#45;&gt;Node21</title>
<path fill="none" stroke="midnightblue" d="M444.058,-72.8685C414.683,-61.5706 363.01,-41.6961 329.528,-28.8183"/>
<polygon fill="midnightblue" stroke="midnightblue" points="330.355,-25.3868 319.766,-25.0637 327.843,-31.9202 330.355,-25.3868"/>
</g>
<!-- Node24 -->
<g id="node24" class="node"><title>Node24</title>
<polygon fill="white" stroke="#bfbfbf" points="110,-0.5 110,-30.5 215,-30.5 215,-0.5 110,-0.5"/>
<text text-anchor="start" x="118" y="-18.5" font-family="Helvetica,sans-Serif" font-size="10.00">boost/units/systems</text>
<text text-anchor="middle" x="162.5" y="-7.5" font-family="Helvetica,sans-Serif" font-size="10.00">/si/energy.hpp</text>
</g>
<!-- Node23&#45;&gt;Node24 -->
<g id="edge27" class="edge"><title>Node23&#45;&gt;Node24</title>
<path fill="none" stroke="midnightblue" d="M424.03,-72.9588C377.733,-63.5767 301.206,-47.8606 225.443,-31.1788"/>
<polygon fill="midnightblue" stroke="midnightblue" points="225.765,-27.6657 215.246,-28.9265 224.255,-34.5009 225.765,-27.6657"/>
</g>
<!-- Node25&#45;&gt;Node19 -->
<g id="edge29" class="edge"><title>Node25&#45;&gt;Node19</title>
<path fill="none" stroke="midnightblue" d="M785.247,-201.44C839.092,-191.844 917.647,-176.168 926.5,-165 953.557,-130.868 947.309,-105.263 926.5,-67 920.719,-56.3695 894.926,-40.8553 874.562,-29.8323"/>
<polygon fill="midnightblue" stroke="midnightblue" points="876.152,-26.7142 865.678,-25.1174 872.87,-32.8972 876.152,-26.7142"/>
</g>
<!-- Node26 -->
<g id="node26" class="node"><title>Node26</title>
<polygon fill="white" stroke="#bfbfbf" points="679.5,-134.5 679.5,-164.5 789.5,-164.5 789.5,-134.5 679.5,-134.5"/>
<text text-anchor="start" x="687.5" y="-152.5" font-family="Helvetica,sans-Serif" font-size="10.00">boost/range/algorithm</text>
<text text-anchor="middle" x="734.5" y="-141.5" font-family="Helvetica,sans-Serif" font-size="10.00">/lower_bound.hpp</text>
</g>
<!-- Node25&#45;&gt;Node26 -->
<g id="edge30" class="edge"><title>Node25&#45;&gt;Node26</title>
<path fill="none" stroke="midnightblue" d="M734.5,-201.475C734.5,-194.471 734.5,-184.192 734.5,-174.696"/>
<polygon fill="midnightblue" stroke="midnightblue" points="738,-174.523 734.5,-164.523 731,-174.523 738,-174.523"/>
</g>
<!-- Node27 -->
<g id="node27" class="node"><title>Node27</title>
<polygon fill="white" stroke="#bfbfbf" points="807.5,-134.5 807.5,-164.5 917.5,-164.5 917.5,-134.5 807.5,-134.5"/>
<text text-anchor="start" x="815.5" y="-152.5" font-family="Helvetica,sans-Serif" font-size="10.00">boost/range/algorithm</text>
<text text-anchor="middle" x="862.5" y="-141.5" font-family="Helvetica,sans-Serif" font-size="10.00">/upper_bound.hpp</text>
</g>
<!-- Node25&#45;&gt;Node27 -->
<g id="edge31" class="edge"><title>Node25&#45;&gt;Node27</title>
<path fill="none" stroke="midnightblue" d="M752.839,-201.475C771.066,-193.002 799.603,-179.737 822.997,-168.863"/>
<polygon fill="midnightblue" stroke="midnightblue" points="824.74,-171.912 832.333,-164.523 821.789,-165.564 824.74,-171.912"/>
</g>
<!-- Node29 -->
<g id="node29" class="node"><title>Node29</title>
<polygon fill="white" stroke="#bfbfbf" points="934,-201.5 934,-220.5 975,-220.5 975,-201.5 934,-201.5"/>
<text text-anchor="middle" x="954.5" y="-208.5" font-family="Helvetica,sans-Serif" font-size="10.00">string</text>
</g>
<!-- Node28&#45;&gt;Node29 -->
<g id="edge33" class="edge"><title>Node28&#45;&gt;Node29</title>
<path fill="none" stroke="midnightblue" d="M943.647,-257.083C945.369,-249.927 947.847,-239.635 950,-230.691"/>
<polygon fill="midnightblue" stroke="midnightblue" points="953.455,-231.293 952.393,-220.751 946.65,-229.654 953.455,-231.293"/>
</g>
<!-- Node31 -->
<g id="node31" class="node"><title>Node31</title>
<g id="a_node31"><a xlink:href="Flag_8hh.html" target="_top" xlink:title="boca/generic/Flag.hh">
<polygon fill="white" stroke="black" points="1006,-201.5 1006,-220.5 1113,-220.5 1113,-201.5 1006,-201.5"/>
<text text-anchor="middle" x="1059.5" y="-208.5" font-family="Helvetica,sans-Serif" font-size="10.00">boca/generic/Flag.hh</text>
</a>
</g>
</g>
<!-- Node30&#45;&gt;Node31 -->
<g id="edge35" class="edge"><title>Node30&#45;&gt;Node31</title>
<path fill="none" stroke="midnightblue" d="M1059.5,-257.083C1059.5,-250.006 1059.5,-239.861 1059.5,-230.986"/>
<polygon fill="midnightblue" stroke="midnightblue" points="1063,-230.751 1059.5,-220.751 1056,-230.751 1063,-230.751"/>
</g>
<!-- Node32 -->
<g id="node32" class="node"><title>Node32</title>
<polygon fill="white" stroke="#bfbfbf" points="1028.5,-140 1028.5,-159 1090.5,-159 1090.5,-140 1028.5,-140"/>
<text text-anchor="middle" x="1059.5" y="-147" font-family="Helvetica,sans-Serif" font-size="10.00">type_traits</text>
</g>
<!-- Node31&#45;&gt;Node32 -->
<g id="edge36" class="edge"><title>Node31&#45;&gt;Node32</title>
<path fill="none" stroke="midnightblue" d="M1059.5,-201.475C1059.5,-193.08 1059.5,-179.981 1059.5,-169.163"/>
<polygon fill="midnightblue" stroke="midnightblue" points="1063,-169.009 1059.5,-159.009 1056,-169.009 1063,-169.009"/>
</g>
</g>
</svg>
