<?xml version="1.0" encoding="UTF-8" standalone="no"?>
<!DOCTYPE svg PUBLIC "-//W3C//DTD SVG 1.1//EN"
 "http://www.w3.org/Graphics/SVG/1.1/DTD/svg11.dtd">
<!-- Generated by graphviz version 2.38.0 (20140413.2041)
 -->
<!-- Title: examples/toppartner/toppartner/tagger/SignatureSubDom.hh Pages: 1 -->
<svg width="401pt" height="195pt"
 viewBox="0.00 0.00 401.00 195.00" xmlns="http://www.w3.org/2000/svg" xmlns:xlink="http://www.w3.org/1999/xlink">
<g id="graph0" class="graph" transform="scale(1 1) rotate(0) translate(4 191)">
<title>examples/toppartner/toppartner/tagger/SignatureSubDom.hh</title>
<polygon fill="white" stroke="none" points="-4,4 -4,-191 397,-191 397,4 -4,4"/>
<!-- Node1 -->
<g id="node1" class="node"><title>Node1</title>
<polygon fill="#bfbfbf" stroke="black" points="80.5,-145.5 80.5,-186.5 217.5,-186.5 217.5,-145.5 80.5,-145.5"/>
<text text-anchor="start" x="88.5" y="-174.5" font-family="Helvetica,sans-Serif" font-size="10.00">examples/toppartner</text>
<text text-anchor="start" x="88.5" y="-163.5" font-family="Helvetica,sans-Serif" font-size="10.00">/toppartner/tagger/Signature</text>
<text text-anchor="middle" x="149" y="-152.5" font-family="Helvetica,sans-Serif" font-size="10.00">SubDom.hh</text>
</g>
<!-- Node2 -->
<g id="node2" class="node"><title>Node2</title>
<g id="a_node2"><a xlink:href="SignatureSubDom_8cpp.html" target="_top" target="_top" xlink:title="examples/toppartner\l/source/tagger/SignatureSub\lDom.cpp">
<polygon fill="white" stroke="black" points="0,-67.5 0,-108.5 140,-108.5 140,-67.5 0,-67.5"/>
<text text-anchor="start" x="8" y="-96.5" font-family="Helvetica,sans-Serif" font-size="10.00">examples/toppartner</text>
<text text-anchor="start" x="8" y="-85.5" font-family="Helvetica,sans-Serif" font-size="10.00">/source/tagger/SignatureSub</text>
<text text-anchor="middle" x="70" y="-74.5" font-family="Helvetica,sans-Serif" font-size="10.00">Dom.cpp</text>
</a>
</g>
</g>
<!-- Node1&#45;&gt;Node2 -->
<g id="edge1" class="edge"><title>Node1&#45;&gt;Node2</title>
<path fill="none" stroke="midnightblue" d="M121.445,-138.492C111.194,-128.629 99.7574,-117.627 90.2755,-108.506"/>
<polygon fill="midnightblue" stroke="midnightblue" points="119.022,-141.017 128.656,-145.428 123.875,-135.973 119.022,-141.017"/>
</g>
<!-- Node3 -->
<g id="node3" class="node"><title>Node3</title>
<g id="a_node3"><a xlink:href="EventSubDom_8hh.html" target="_top" target="_top" xlink:title="examples/toppartner\l/toppartner/tagger/EventSub\lDom.hh">
<polygon fill="white" stroke="black" points="158.5,-67.5 158.5,-108.5 297.5,-108.5 297.5,-67.5 158.5,-67.5"/>
<text text-anchor="start" x="166.5" y="-96.5" font-family="Helvetica,sans-Serif" font-size="10.00">examples/toppartner</text>
<text text-anchor="start" x="166.5" y="-85.5" font-family="Helvetica,sans-Serif" font-size="10.00">/toppartner/tagger/EventSub</text>
<text text-anchor="middle" x="228" y="-74.5" font-family="Helvetica,sans-Serif" font-size="10.00">Dom.hh</text>
</a>
</g>
</g>
<!-- Node1&#45;&gt;Node3 -->
<g id="edge2" class="edge"><title>Node1&#45;&gt;Node3</title>
<path fill="none" stroke="midnightblue" d="M176.555,-138.492C186.806,-128.629 198.243,-117.627 207.724,-108.506"/>
<polygon fill="midnightblue" stroke="midnightblue" points="174.125,-135.973 169.344,-145.428 178.978,-141.017 174.125,-135.973"/>
</g>
<!-- Node4 -->
<g id="node4" class="node"><title>Node4</title>
<g id="a_node4"><a xlink:href="MainSubDom_8cpp.html" target="_top" target="_top" xlink:title="examples/toppartner\l/source/MainSubDom.cpp">
<polygon fill="white" stroke="black" points="81,-0.5 81,-30.5 211,-30.5 211,-0.5 81,-0.5"/>
<text text-anchor="start" x="89" y="-18.5" font-family="Helvetica,sans-Serif" font-size="10.00">examples/toppartner</text>
<text text-anchor="middle" x="146" y="-7.5" font-family="Helvetica,sans-Serif" font-size="10.00">/source/MainSubDom.cpp</text>
</a>
</g>
</g>
<!-- Node3&#45;&gt;Node4 -->
<g id="edge3" class="edge"><title>Node3&#45;&gt;Node4</title>
<path fill="none" stroke="midnightblue" d="M197.237,-60.5514C185.441,-50.4096 172.437,-39.2294 162.481,-30.67"/>
<polygon fill="midnightblue" stroke="midnightblue" points="195.294,-63.4964 205.158,-67.3618 199.857,-58.1885 195.294,-63.4964"/>
</g>
<!-- Node5 -->
<g id="node5" class="node"><title>Node5</title>
<g id="a_node5"><a xlink:href="EventSubDom_8cpp.html" target="_top" target="_top" xlink:title="examples/toppartner\l/source/tagger/EventSubDom.cpp">
<polygon fill="white" stroke="black" points="229,-0.5 229,-30.5 393,-30.5 393,-0.5 229,-0.5"/>
<text text-anchor="start" x="237" y="-18.5" font-family="Helvetica,sans-Serif" font-size="10.00">examples/toppartner</text>
<text text-anchor="middle" x="311" y="-7.5" font-family="Helvetica,sans-Serif" font-size="10.00">/source/tagger/EventSubDom.cpp</text>
</a>
</g>
</g>
<!-- Node3&#45;&gt;Node5 -->
<g id="edge4" class="edge"><title>Node3&#45;&gt;Node5</title>
<path fill="none" stroke="midnightblue" d="M258.794,-60.8437C270.825,-50.6249 284.144,-39.3117 294.318,-30.67"/>
<polygon fill="midnightblue" stroke="midnightblue" points="256.476,-58.2204 251.12,-67.3618 261.008,-63.5556 256.476,-58.2204"/>
</g>
</g>
</svg>
