<?xml version="1.0" encoding="UTF-8" standalone="no"?>
<!DOCTYPE svg PUBLIC "-//W3C//DTD SVG 1.1//EN"
 "http://www.w3.org/Graphics/SVG/1.1/DTD/svg11.dtd">
<!-- Generated by graphviz version 2.38.0 (20140413.2041)
 -->
<!-- Title: examples/simple/simple/Branch.hh Pages: 1 -->
<svg width="1227pt" height="845pt"
 viewBox="0.00 0.00 1227.00 845.00" xmlns="http://www.w3.org/2000/svg" xmlns:xlink="http://www.w3.org/1999/xlink">
<g id="graph0" class="graph" transform="scale(1 1) rotate(0) translate(4 841)">
<title>examples/simple/simple/Branch.hh</title>
<polygon fill="white" stroke="none" points="-4,4 -4,-841 1223,-841 1223,4 -4,4"/>
<!-- Node1 -->
<g id="node1" class="node"><title>Node1</title>
<polygon fill="#bfbfbf" stroke="black" points="137.5,-806.5 137.5,-836.5 259.5,-836.5 259.5,-806.5 137.5,-806.5"/>
<text text-anchor="start" x="145.5" y="-824.5" font-family="Helvetica,sans-Serif" font-size="10.00">examples/simple/simple</text>
<text text-anchor="middle" x="198.5" y="-813.5" font-family="Helvetica,sans-Serif" font-size="10.00">/Branch.hh</text>
</g>
<!-- Node2 -->
<g id="node2" class="node"><title>Node2</title>
<g id="a_node2"><a xlink:href="Bdt_8hh.html" target="_top" xlink:title="boca/branch/Bdt.hh">
<polygon fill="white" stroke="black" points="66,-750.5 66,-769.5 167,-769.5 167,-750.5 66,-750.5"/>
<text text-anchor="middle" x="116.5" y="-757.5" font-family="Helvetica,sans-Serif" font-size="10.00">boca/branch/Bdt.hh</text>
</a>
</g>
</g>
<!-- Node1&#45;&gt;Node2 -->
<g id="edge1" class="edge"><title>Node1&#45;&gt;Node2</title>
<path fill="none" stroke="midnightblue" d="M179.067,-806.399C166.292,-797.129 149.611,-785.025 136.686,-775.647"/>
<polygon fill="midnightblue" stroke="midnightblue" points="138.581,-772.698 128.432,-769.658 134.47,-778.364 138.581,-772.698"/>
</g>
<!-- Node6 -->
<g id="node6" class="node"><title>Node6</title>
<g id="a_node6"><a xlink:href="boca_2Observables_8hh.html" target="_top" xlink:title="boca/Observables.hh">
<polygon fill="white" stroke="black" points="127,-638.5 127,-657.5 236,-657.5 236,-638.5 127,-638.5"/>
<text text-anchor="middle" x="181.5" y="-645.5" font-family="Helvetica,sans-Serif" font-size="10.00">boca/Observables.hh</text>
</a>
</g>
</g>
<!-- Node1&#45;&gt;Node6 -->
<g id="edge12" class="edge"><title>Node1&#45;&gt;Node6</title>
<path fill="none" stroke="midnightblue" d="M197.109,-806.465C194.06,-775.704 186.786,-702.329 183.354,-667.7"/>
<polygon fill="midnightblue" stroke="midnightblue" points="186.818,-667.166 182.348,-657.56 179.852,-667.856 186.818,-667.166"/>
</g>
<!-- Node13 -->
<g id="node13" class="node"><title>Node13</title>
<g id="a_node13"><a xlink:href="examples_2simple_2simple_2Observables_8hh.html" target="_top" xlink:title="simple/Observables.hh">
<polygon fill="white" stroke="black" points="234.5,-750.5 234.5,-769.5 350.5,-769.5 350.5,-750.5 234.5,-750.5"/>
<text text-anchor="middle" x="292.5" y="-757.5" font-family="Helvetica,sans-Serif" font-size="10.00">simple/Observables.hh</text>
</a>
</g>
</g>
<!-- Node1&#45;&gt;Node13 -->
<g id="edge13" class="edge"><title>Node1&#45;&gt;Node13</title>
<path fill="none" stroke="midnightblue" d="M220.777,-806.399C235.703,-796.951 255.281,-784.559 270.21,-775.109"/>
<polygon fill="midnightblue" stroke="midnightblue" points="272.245,-777.964 278.822,-769.658 268.501,-772.049 272.245,-777.964"/>
</g>
<!-- Node3 -->
<g id="node3" class="node"><title>Node3</title>
<g id="a_node3"><a xlink:href="branch_2Result_8hh.html" target="_top" xlink:title="boca/branch/Result.hh">
<polygon fill="white" stroke="black" points="55,-694.5 55,-713.5 170,-713.5 170,-694.5 55,-694.5"/>
<text text-anchor="middle" x="112.5" y="-701.5" font-family="Helvetica,sans-Serif" font-size="10.00">boca/branch/Result.hh</text>
</a>
</g>
</g>
<!-- Node2&#45;&gt;Node3 -->
<g id="edge2" class="edge"><title>Node2&#45;&gt;Node3</title>
<path fill="none" stroke="midnightblue" d="M115.839,-750.083C115.315,-743.006 114.564,-732.861 113.906,-723.986"/>
<polygon fill="midnightblue" stroke="midnightblue" points="117.377,-723.465 113.148,-713.751 110.397,-723.982 117.377,-723.465"/>
</g>
<!-- Node4 -->
<g id="node4" class="node"><title>Node4</title>
<g id="a_node4"><a xlink:href="branch_2Base_8hh.html" target="_top" xlink:title="boca/branch/Base.hh">
<polygon fill="white" stroke="black" points="0,-638.5 0,-657.5 109,-657.5 109,-638.5 0,-638.5"/>
<text text-anchor="middle" x="54.5" y="-645.5" font-family="Helvetica,sans-Serif" font-size="10.00">boca/branch/Base.hh</text>
</a>
</g>
</g>
<!-- Node3&#45;&gt;Node4 -->
<g id="edge3" class="edge"><title>Node3&#45;&gt;Node4</title>
<path fill="none" stroke="midnightblue" d="M103.181,-694.324C94.6074,-686.341 81.6878,-674.313 71.3124,-664.653"/>
<polygon fill="midnightblue" stroke="midnightblue" points="73.6922,-662.086 63.9883,-657.834 68.9223,-667.21 73.6922,-662.086"/>
</g>
<!-- Node3&#45;&gt;Node6 -->
<g id="edge5" class="edge"><title>Node3&#45;&gt;Node6</title>
<path fill="none" stroke="midnightblue" d="M123.586,-694.324C133.986,-686.185 149.761,-673.839 162.222,-664.087"/>
<polygon fill="midnightblue" stroke="midnightblue" points="164.494,-666.753 170.212,-657.834 160.18,-661.241 164.494,-666.753"/>
</g>
<!-- Node5 -->
<g id="node5" class="node"><title>Node5</title>
<polygon fill="white" stroke="#bfbfbf" points="25,-577 25,-596 84,-596 84,-577 25,-577"/>
<text text-anchor="middle" x="54.5" y="-584" font-family="Helvetica,sans-Serif" font-size="10.00">TObject.h</text>
</g>
<!-- Node4&#45;&gt;Node5 -->
<g id="edge4" class="edge"><title>Node4&#45;&gt;Node5</title>
<path fill="none" stroke="midnightblue" d="M54.5,-638.475C54.5,-630.08 54.5,-616.981 54.5,-606.163"/>
<polygon fill="midnightblue" stroke="midnightblue" points="58.0001,-606.009 54.5,-596.009 51.0001,-606.009 58.0001,-606.009"/>
</g>
<!-- Node7 -->
<g id="node7" class="node"><title>Node7</title>
<g id="a_node7"><a xlink:href="Observable_8hh.html" target="_top" xlink:title="boca/Observable.hh">
<polygon fill="white" stroke="black" points="121.5,-347.5 121.5,-366.5 225.5,-366.5 225.5,-347.5 121.5,-347.5"/>
<text text-anchor="middle" x="173.5" y="-354.5" font-family="Helvetica,sans-Serif" font-size="10.00">boca/Observable.hh</text>
</a>
</g>
</g>
<!-- Node6&#45;&gt;Node7 -->
<g id="edge6" class="edge"><title>Node6&#45;&gt;Node7</title>
<path fill="none" stroke="midnightblue" d="M180.396,-638.211C177.993,-618.284 172.5,-568.13 172.5,-526 172.5,-526 172.5,-526 172.5,-468 172.5,-435.947 172.93,-398.642 173.226,-376.748"/>
<polygon fill="midnightblue" stroke="midnightblue" points="176.728,-376.606 173.369,-366.558 169.729,-376.507 176.728,-376.606"/>
</g>
<!-- Node8 -->
<g id="node8" class="node"><title>Node8</title>
<g id="a_node8"><a xlink:href="Names_8hh.html" target="_top" xlink:title="boca/Names.hh">
<polygon fill="white" stroke="black" points="135.5,-291.5 135.5,-310.5 221.5,-310.5 221.5,-291.5 135.5,-291.5"/>
<text text-anchor="middle" x="178.5" y="-298.5" font-family="Helvetica,sans-Serif" font-size="10.00">boca/Names.hh</text>
</a>
</g>
</g>
<!-- Node7&#45;&gt;Node8 -->
<g id="edge7" class="edge"><title>Node7&#45;&gt;Node8</title>
<path fill="none" stroke="midnightblue" d="M174.326,-347.083C174.981,-340.006 175.92,-329.861 176.742,-320.986"/>
<polygon fill="midnightblue" stroke="midnightblue" points="180.253,-321.031 177.69,-310.751 173.283,-320.386 180.253,-321.031"/>
</g>
<!-- Node9 -->
<g id="node9" class="node"><title>Node9</title>
<g id="a_node9"><a xlink:href="String_8hh.html" target="_top" xlink:title="boca/latex/String.hh">
<polygon fill="white" stroke="black" points="229.5,-123.5 229.5,-142.5 333.5,-142.5 333.5,-123.5 229.5,-123.5"/>
<text text-anchor="middle" x="281.5" y="-130.5" font-family="Helvetica,sans-Serif" font-size="10.00">boca/latex/String.hh</text>
</a>
</g>
</g>
<!-- Node8&#45;&gt;Node9 -->
<g id="edge8" class="edge"><title>Node8&#45;&gt;Node9</title>
<path fill="none" stroke="midnightblue" d="M184.038,-291.075C200.461,-264.606 249.105,-186.209 270.822,-151.21"/>
<polygon fill="midnightblue" stroke="midnightblue" points="273.885,-152.911 276.184,-142.568 267.937,-149.22 273.885,-152.911"/>
</g>
<!-- Node10 -->
<g id="node10" class="node"><title>Node10</title>
<polygon fill="white" stroke="#bfbfbf" points="306,-62 306,-81 347,-81 347,-62 306,-62"/>
<text text-anchor="middle" x="326.5" y="-69" font-family="Helvetica,sans-Serif" font-size="10.00">string</text>
</g>
<!-- Node9&#45;&gt;Node10 -->
<g id="edge9" class="edge"><title>Node9&#45;&gt;Node10</title>
<path fill="none" stroke="midnightblue" d="M287.947,-123.475C294.697,-114.55 305.469,-100.307 313.913,-89.1425"/>
<polygon fill="midnightblue" stroke="midnightblue" points="316.824,-91.0962 320.065,-81.0091 311.241,-86.8737 316.824,-91.0962"/>
</g>
<!-- Node11 -->
<g id="node11" class="node"><title>Node11</title>
<polygon fill="white" stroke="#bfbfbf" points="245,-62 245,-81 288,-81 288,-62 245,-62"/>
<text text-anchor="middle" x="266.5" y="-69" font-family="Helvetica,sans-Serif" font-size="10.00">deque</text>
</g>
<!-- Node9&#45;&gt;Node11 -->
<g id="edge10" class="edge"><title>Node9&#45;&gt;Node11</title>
<path fill="none" stroke="midnightblue" d="M279.351,-123.475C277.212,-114.992 273.862,-101.704 271.119,-90.8222"/>
<polygon fill="midnightblue" stroke="midnightblue" points="274.484,-89.8501 268.645,-81.0091 267.696,-91.5613 274.484,-89.8501"/>
</g>
<!-- Node12 -->
<g id="node12" class="node"><title>Node12</title>
<polygon fill="white" stroke="#bfbfbf" points="365.5,-62 365.5,-81 409.5,-81 409.5,-62 365.5,-62"/>
<text text-anchor="middle" x="387.5" y="-69" font-family="Helvetica,sans-Serif" font-size="10.00">vector</text>
</g>
<!-- Node9&#45;&gt;Node12 -->
<g id="edge11" class="edge"><title>Node9&#45;&gt;Node12</title>
<path fill="none" stroke="midnightblue" d="M296.687,-123.475C314.162,-113.666 343.079,-97.4346 363.583,-85.925"/>
<polygon fill="midnightblue" stroke="midnightblue" points="365.334,-88.956 372.341,-81.0091 361.908,-82.8519 365.334,-88.956"/>
</g>
<!-- Node14 -->
<g id="node14" class="node"><title>Node14</title>
<g id="a_node14"><a xlink:href="Identification_8hh.html" target="_top" xlink:title="boca/multiplets/Identification.hh">
<polygon fill="white" stroke="black" points="283,-515.5 283,-534.5 438,-534.5 438,-515.5 283,-515.5"/>
<text text-anchor="middle" x="360.5" y="-522.5" font-family="Helvetica,sans-Serif" font-size="10.00">boca/multiplets/Identification.hh</text>
</a>
</g>
</g>
<!-- Node13&#45;&gt;Node14 -->
<g id="edge14" class="edge"><title>Node13&#45;&gt;Node14</title>
<path fill="none" stroke="midnightblue" d="M295.001,-750.431C304.871,-716.612 341.254,-591.946 355.101,-544.498"/>
<polygon fill="midnightblue" stroke="midnightblue" points="358.462,-545.476 357.904,-534.896 351.742,-543.515 358.462,-545.476"/>
</g>
<!-- Node16 -->
<g id="node16" class="node"><title>Node16</title>
<g id="a_node16"><a xlink:href="boca_2Event_8hh.html" target="_top" xlink:title="boca/Event.hh">
<polygon fill="white" stroke="black" points="391.5,-694.5 391.5,-713.5 471.5,-713.5 471.5,-694.5 391.5,-694.5"/>
<text text-anchor="middle" x="431.5" y="-701.5" font-family="Helvetica,sans-Serif" font-size="10.00">boca/Event.hh</text>
</a>
</g>
</g>
<!-- Node13&#45;&gt;Node16 -->
<g id="edge17" class="edge"><title>Node13&#45;&gt;Node16</title>
<path fill="none" stroke="midnightblue" d="M314.525,-750.444C337.604,-741.478 374.062,-727.314 400.141,-717.183"/>
<polygon fill="midnightblue" stroke="midnightblue" points="401.524,-720.4 409.578,-713.516 398.989,-713.875 401.524,-720.4"/>
</g>
<!-- Node15 -->
<g id="node15" class="node"><title>Node15</title>
<g id="a_node15"><a xlink:href="Tag_8hh.html" target="_top" xlink:title="boca/Tag.hh">
<polygon fill="white" stroke="black" points="326,-459.5 326,-478.5 397,-478.5 397,-459.5 326,-459.5"/>
<text text-anchor="middle" x="361.5" y="-466.5" font-family="Helvetica,sans-Serif" font-size="10.00">boca/Tag.hh</text>
</a>
</g>
</g>
<!-- Node14&#45;&gt;Node15 -->
<g id="edge15" class="edge"><title>Node14&#45;&gt;Node15</title>
<path fill="none" stroke="midnightblue" d="M360.665,-515.083C360.796,-508.006 360.984,-497.861 361.148,-488.986"/>
<polygon fill="midnightblue" stroke="midnightblue" points="364.652,-488.814 361.338,-478.751 357.653,-488.685 364.652,-488.814"/>
</g>
<!-- Node15&#45;&gt;Node10 -->
<g id="edge16" class="edge"><title>Node15&#45;&gt;Node10</title>
<path fill="none" stroke="midnightblue" d="M361.5,-459.442C361.5,-440.936 361.5,-395.812 361.5,-358 361.5,-358 361.5,-358 361.5,-188 361.5,-152.186 345.896,-112.706 335.526,-90.4218"/>
<polygon fill="midnightblue" stroke="midnightblue" points="338.578,-88.6924 331.076,-81.2111 332.275,-91.7379 338.578,-88.6924"/>
</g>
<!-- Node17 -->
<g id="node17" class="node"><title>Node17</title>
<g id="a_node17"><a xlink:href="Flag_8hh.html" target="_top" xlink:title="boca/generic/Flag.hh">
<polygon fill="white" stroke="black" points="201,-459.5 201,-478.5 308,-478.5 308,-459.5 201,-459.5"/>
<text text-anchor="middle" x="254.5" y="-466.5" font-family="Helvetica,sans-Serif" font-size="10.00">boca/generic/Flag.hh</text>
</a>
</g>
</g>
<!-- Node16&#45;&gt;Node17 -->
<g id="edge18" class="edge"><title>Node16&#45;&gt;Node17</title>
<path fill="none" stroke="midnightblue" d="M420.459,-694.471C391.805,-671.751 314.451,-606.596 273.5,-535 265.291,-520.649 260.368,-502.45 257.597,-488.962"/>
<polygon fill="midnightblue" stroke="midnightblue" points="261.003,-488.13 255.751,-478.928 254.118,-489.396 261.003,-488.13"/>
</g>
<!-- Node19 -->
<g id="node19" class="node"><title>Node19</title>
<g id="a_node19"><a xlink:href="Jet_8hh.html" target="_top" xlink:title="boca/multiplets/Jet.hh">
<polygon fill="white" stroke="black" points="449,-638.5 449,-657.5 562,-657.5 562,-638.5 449,-638.5"/>
<text text-anchor="middle" x="505.5" y="-645.5" font-family="Helvetica,sans-Serif" font-size="10.00">boca/multiplets/Jet.hh</text>
</a>
</g>
</g>
<!-- Node16&#45;&gt;Node19 -->
<g id="edge20" class="edge"><title>Node16&#45;&gt;Node19</title>
<path fill="none" stroke="midnightblue" d="M443.389,-694.324C454.65,-686.107 471.787,-673.602 485.209,-663.807"/>
<polygon fill="midnightblue" stroke="midnightblue" points="487.38,-666.556 493.394,-657.834 483.253,-660.901 487.38,-666.556"/>
</g>
<!-- Node49 -->
<g id="node49" class="node"><title>Node49</title>
<g id="a_node49"><a xlink:href="multiplets_2Particle_8hh.html" target="_top" xlink:title="boca/multiplets/Particle.hh">
<polygon fill="white" stroke="black" points="580.5,-638.5 580.5,-657.5 712.5,-657.5 712.5,-638.5 580.5,-638.5"/>
<text text-anchor="middle" x="646.5" y="-645.5" font-family="Helvetica,sans-Serif" font-size="10.00">boca/multiplets/Particle.hh</text>
</a>
</g>
</g>
<!-- Node16&#45;&gt;Node49 -->
<g id="edge58" class="edge"><title>Node16&#45;&gt;Node49</title>
<path fill="none" stroke="midnightblue" d="M465.567,-694.444C502.68,-685.122 562.161,-670.183 602.715,-659.997"/>
<polygon fill="midnightblue" stroke="midnightblue" points="603.746,-663.347 612.592,-657.516 602.041,-656.558 603.746,-663.347"/>
</g>
<!-- Node18 -->
<g id="node18" class="node"><title>Node18</title>
<polygon fill="white" stroke="#bfbfbf" points="450.5,-0.5 450.5,-19.5 512.5,-19.5 512.5,-0.5 450.5,-0.5"/>
<text text-anchor="middle" x="481.5" y="-7.5" font-family="Helvetica,sans-Serif" font-size="10.00">type_traits</text>
</g>
<!-- Node17&#45;&gt;Node18 -->
<g id="edge19" class="edge"><title>Node17&#45;&gt;Node18</title>
<path fill="none" stroke="midnightblue" d="M254.5,-459.442C254.5,-440.936 254.5,-395.812 254.5,-358 254.5,-358 254.5,-358 254.5,-300 254.5,-191.227 157.089,-131.387 235.5,-56 264.125,-28.4791 377.437,-17.3124 439.8,-13.1796"/>
<polygon fill="midnightblue" stroke="midnightblue" points="440.326,-16.6535 450.086,-12.5311 439.886,-9.66736 440.326,-16.6535"/>
</g>
<!-- Node20 -->
<g id="node20" class="node"><title>Node20</title>
<g id="a_node20"><a xlink:href="PseudoJet_8hh.html" target="_top" xlink:title="boca/fastjet/PseudoJet.hh">
<polygon fill="white" stroke="black" points="579,-515.5 579,-534.5 710,-534.5 710,-515.5 579,-515.5"/>
<text text-anchor="middle" x="644.5" y="-522.5" font-family="Helvetica,sans-Serif" font-size="10.00">boca/fastjet/PseudoJet.hh</text>
</a>
</g>
</g>
<!-- Node19&#45;&gt;Node20 -->
<g id="edge21" class="edge"><title>Node19&#45;&gt;Node20</title>
<path fill="none" stroke="midnightblue" d="M523.254,-638.484C539.175,-630.37 562.7,-617.166 580.5,-602 601.135,-584.419 620.554,-559.782 632.473,-543.378"/>
<polygon fill="midnightblue" stroke="midnightblue" points="635.639,-544.966 638.577,-534.786 629.932,-540.911 635.639,-544.966"/>
</g>
<!-- Node44 -->
<g id="node44" class="node"><title>Node44</title>
<g id="a_node44"><a xlink:href="JetInfo_8hh.html" target="_top" xlink:title="boca/multiplets/JetInfo.hh">
<polygon fill="white" stroke="black" points="442,-577 442,-596 571,-596 571,-577 442,-577"/>
<text text-anchor="middle" x="506.5" y="-584" font-family="Helvetica,sans-Serif" font-size="10.00">boca/multiplets/JetInfo.hh</text>
</a>
</g>
</g>
<!-- Node19&#45;&gt;Node44 -->
<g id="edge50" class="edge"><title>Node19&#45;&gt;Node44</title>
<path fill="none" stroke="midnightblue" d="M505.643,-638.475C505.784,-630.08 506.005,-616.981 506.186,-606.163"/>
<polygon fill="midnightblue" stroke="midnightblue" points="509.688,-606.067 506.357,-596.009 502.689,-605.949 509.688,-606.067"/>
</g>
<!-- Node20&#45;&gt;Node20 -->
<g id="edge23" class="edge"><title>Node20&#45;&gt;Node20</title>
<path fill="none" stroke="midnightblue" d="M680.113,-534.525C704.311,-537.308 728,-534.133 728,-525 728,-517.151 710.505,-513.703 690.227,-514.654"/>
<polygon fill="midnightblue" stroke="midnightblue" points="689.797,-511.178 680.113,-515.475 690.363,-518.155 689.797,-511.178"/>
</g>
<!-- Node21 -->
<g id="node21" class="node"><title>Node21</title>
<polygon fill="white" stroke="#bfbfbf" points="390,-123.5 390,-142.5 493,-142.5 493,-123.5 390,-123.5"/>
<text text-anchor="middle" x="441.5" y="-130.5" font-family="Helvetica,sans-Serif" font-size="10.00">boost/operators.hpp</text>
</g>
<!-- Node20&#45;&gt;Node21 -->
<g id="edge22" class="edge"><title>Node20&#45;&gt;Node21</title>
<path fill="none" stroke="midnightblue" d="M598.561,-515.496C555.155,-506.829 493.761,-492.743 473.5,-479 443.78,-458.841 425.5,-449.912 425.5,-414 425.5,-414 425.5,-414 425.5,-244 425.5,-211.626 432.371,-174.445 437.107,-152.659"/>
<polygon fill="midnightblue" stroke="midnightblue" points="440.55,-153.303 439.342,-142.777 433.723,-151.759 440.55,-153.303"/>
</g>
<!-- Node22 -->
<g id="node22" class="node"><title>Node22</title>
<g id="a_node22"><a xlink:href="LorentzVector_8hh.html" target="_top" xlink:title="boca/math/LorentzVector.hh">
<polygon fill="white" stroke="black" points="589.5,-347.5 589.5,-366.5 729.5,-366.5 729.5,-347.5 589.5,-347.5"/>
<text text-anchor="middle" x="659.5" y="-354.5" font-family="Helvetica,sans-Serif" font-size="10.00">boca/math/LorentzVector.hh</text>
</a>
</g>
</g>
<!-- Node20&#45;&gt;Node22 -->
<g id="edge24" class="edge"><title>Node20&#45;&gt;Node22</title>
<path fill="none" stroke="midnightblue" d="M645.306,-515.075C647.668,-488.945 654.601,-412.211 657.821,-376.577"/>
<polygon fill="midnightblue" stroke="midnightblue" points="661.312,-376.843 658.726,-366.568 654.34,-376.213 661.312,-376.843"/>
</g>
<!-- Node23 -->
<g id="node23" class="node"><title>Node23</title>
<g id="a_node23"><a xlink:href="delphes_2Forward_8hh.html" target="_top" xlink:title="boca/delphes/Forward.hh">
<polygon fill="white" stroke="black" points="454.5,-291.5 454.5,-310.5 580.5,-310.5 580.5,-291.5 454.5,-291.5"/>
<text text-anchor="middle" x="517.5" y="-298.5" font-family="Helvetica,sans-Serif" font-size="10.00">boca/delphes/Forward.hh</text>
</a>
</g>
</g>
<!-- Node22&#45;&gt;Node23 -->
<g id="edge25" class="edge"><title>Node22&#45;&gt;Node23</title>
<path fill="none" stroke="midnightblue" d="M637,-347.444C613.423,-338.478 576.178,-324.314 549.536,-314.183"/>
<polygon fill="midnightblue" stroke="midnightblue" points="550.486,-310.8 539.895,-310.516 547.998,-317.342 550.486,-310.8"/>
</g>
<!-- Node25 -->
<g id="node25" class="node"><title>Node25</title>
<g id="a_node25"><a xlink:href="exroot_2Forward_8hh.html" target="_top" xlink:title="boca/exroot/Forward.hh">
<polygon fill="white" stroke="black" points="600,-291.5 600,-310.5 719,-310.5 719,-291.5 600,-291.5"/>
<text text-anchor="middle" x="659.5" y="-298.5" font-family="Helvetica,sans-Serif" font-size="10.00">boca/exroot/Forward.hh</text>
</a>
</g>
</g>
<!-- Node22&#45;&gt;Node25 -->
<g id="edge27" class="edge"><title>Node22&#45;&gt;Node25</title>
<path fill="none" stroke="midnightblue" d="M659.5,-347.083C659.5,-340.006 659.5,-329.861 659.5,-320.986"/>
<polygon fill="midnightblue" stroke="midnightblue" points="663,-320.751 659.5,-310.751 656,-320.751 663,-320.751"/>
</g>
<!-- Node27 -->
<g id="node27" class="node"><title>Node27</title>
<g id="a_node27"><a xlink:href="LorentzVectorBase_8hh.html" target="_top" xlink:title="boca/math/LorentzVectorBase.hh">
<polygon fill="white" stroke="black" points="737.5,-291.5 737.5,-310.5 899.5,-310.5 899.5,-291.5 737.5,-291.5"/>
<text text-anchor="middle" x="818.5" y="-298.5" font-family="Helvetica,sans-Serif" font-size="10.00">boca/math/LorentzVectorBase.hh</text>
</a>
</g>
</g>
<!-- Node22&#45;&gt;Node27 -->
<g id="edge29" class="edge"><title>Node22&#45;&gt;Node27</title>
<path fill="none" stroke="midnightblue" d="M684.694,-347.444C711.443,-338.359 753.903,-323.939 783.805,-313.783"/>
<polygon fill="midnightblue" stroke="midnightblue" points="785.081,-317.046 793.424,-310.516 782.829,-310.418 785.081,-317.046"/>
</g>
<!-- Node24 -->
<g id="node24" class="node"><title>Node24</title>
<g id="a_node24"><a xlink:href="delphes_2TypeDef_8hh.html" target="_top" xlink:title="boca/delphes/TypeDef.hh">
<polygon fill="white" stroke="black" points="453.5,-235.5 453.5,-254.5 581.5,-254.5 581.5,-235.5 453.5,-235.5"/>
<text text-anchor="middle" x="517.5" y="-242.5" font-family="Helvetica,sans-Serif" font-size="10.00">boca/delphes/TypeDef.hh</text>
</a>
</g>
</g>
<!-- Node23&#45;&gt;Node24 -->
<g id="edge26" class="edge"><title>Node23&#45;&gt;Node24</title>
<path fill="none" stroke="midnightblue" d="M517.5,-291.083C517.5,-284.006 517.5,-273.861 517.5,-264.986"/>
<polygon fill="midnightblue" stroke="midnightblue" points="521,-264.751 517.5,-254.751 514,-264.751 521,-264.751"/>
</g>
<!-- Node26 -->
<g id="node26" class="node"><title>Node26</title>
<g id="a_node26"><a xlink:href="exroot_2TypeDef_8hh.html" target="_top" xlink:title="boca/exroot/TypeDef.hh">
<polygon fill="white" stroke="black" points="599.5,-235.5 599.5,-254.5 721.5,-254.5 721.5,-235.5 599.5,-235.5"/>
<text text-anchor="middle" x="660.5" y="-242.5" font-family="Helvetica,sans-Serif" font-size="10.00">boca/exroot/TypeDef.hh</text>
</a>
</g>
</g>
<!-- Node25&#45;&gt;Node26 -->
<g id="edge28" class="edge"><title>Node25&#45;&gt;Node26</title>
<path fill="none" stroke="midnightblue" d="M659.665,-291.083C659.796,-284.006 659.984,-273.861 660.148,-264.986"/>
<polygon fill="midnightblue" stroke="midnightblue" points="663.652,-264.814 660.338,-254.751 656.653,-264.685 663.652,-264.814"/>
</g>
<!-- Node28 -->
<g id="node28" class="node"><title>Node28</title>
<polygon fill="white" stroke="#bfbfbf" points="740,-235.5 740,-254.5 785,-254.5 785,-235.5 740,-235.5"/>
<text text-anchor="middle" x="762.5" y="-242.5" font-family="Helvetica,sans-Serif" font-size="10.00">climits</text>
</g>
<!-- Node27&#45;&gt;Node28 -->
<g id="edge30" class="edge"><title>Node27&#45;&gt;Node28</title>
<path fill="none" stroke="midnightblue" d="M809.503,-291.324C801.306,-283.42 788.994,-271.548 779.028,-261.938"/>
<polygon fill="midnightblue" stroke="midnightblue" points="781.289,-259.256 771.661,-254.834 776.43,-264.295 781.289,-259.256"/>
</g>
<!-- Node29 -->
<g id="node29" class="node"><title>Node29</title>
<g id="a_node29"><a xlink:href="Vector3_8hh.html" target="_top" xlink:title="boca/math/Vector3.hh">
<polygon fill="white" stroke="black" points="803,-235.5 803,-254.5 916,-254.5 916,-235.5 803,-235.5"/>
<text text-anchor="middle" x="859.5" y="-242.5" font-family="Helvetica,sans-Serif" font-size="10.00">boca/math/Vector3.hh</text>
</a>
</g>
</g>
<!-- Node27&#45;&gt;Node29 -->
<g id="edge31" class="edge"><title>Node27&#45;&gt;Node29</title>
<path fill="none" stroke="midnightblue" d="M825.27,-291.083C831.062,-283.455 839.558,-272.264 846.638,-262.941"/>
<polygon fill="midnightblue" stroke="midnightblue" points="849.596,-264.832 852.856,-254.751 844.021,-260.599 849.596,-264.832"/>
</g>
<!-- Node30 -->
<g id="node30" class="node"><title>Node30</title>
<polygon fill="white" stroke="#bfbfbf" points="720,-179.5 720,-198.5 785,-198.5 785,-179.5 720,-179.5"/>
<text text-anchor="middle" x="752.5" y="-186.5" font-family="Helvetica,sans-Serif" font-size="10.00">TVector3.h</text>
</g>
<!-- Node29&#45;&gt;Node30 -->
<g id="edge32" class="edge"><title>Node29&#45;&gt;Node30</title>
<path fill="none" stroke="midnightblue" d="M842.309,-235.324C825.149,-226.664 798.554,-213.242 778.753,-203.249"/>
<polygon fill="midnightblue" stroke="midnightblue" points="780.153,-200.035 769.649,-198.655 776.999,-206.285 780.153,-200.035"/>
</g>
<!-- Node31 -->
<g id="node31" class="node"><title>Node31</title>
<g id="a_node31"><a xlink:href="Vector2_8hh.html" target="_top" xlink:title="boca/math/Vector2.hh">
<polygon fill="white" stroke="black" points="803,-179.5 803,-198.5 916,-198.5 916,-179.5 803,-179.5"/>
<text text-anchor="middle" x="859.5" y="-186.5" font-family="Helvetica,sans-Serif" font-size="10.00">boca/math/Vector2.hh</text>
</a>
</g>
</g>
<!-- Node29&#45;&gt;Node31 -->
<g id="edge33" class="edge"><title>Node29&#45;&gt;Node31</title>
<path fill="none" stroke="midnightblue" d="M859.5,-235.083C859.5,-228.006 859.5,-217.861 859.5,-208.986"/>
<polygon fill="midnightblue" stroke="midnightblue" points="863,-208.751 859.5,-198.751 856,-208.751 863,-208.751"/>
</g>
<!-- Node31&#45;&gt;Node21 -->
<g id="edge34" class="edge"><title>Node31&#45;&gt;Node21</title>
<path fill="none" stroke="midnightblue" d="M802.787,-180.095C799.985,-179.721 797.211,-179.354 794.5,-179 667.58,-162.417 633.162,-160.804 503.142,-143.196"/>
<polygon fill="midnightblue" stroke="midnightblue" points="503.579,-139.724 493.198,-141.844 502.635,-146.66 503.579,-139.724"/>
</g>
<!-- Node32 -->
<g id="node32" class="node"><title>Node32</title>
<g id="a_node32"><a xlink:href="Debug_8hh.html" target="_top" xlink:title="boca/generic/Debug.hh">
<polygon fill="white" stroke="black" points="511,-123.5 511,-142.5 628,-142.5 628,-123.5 511,-123.5"/>
<text text-anchor="middle" x="569.5" y="-130.5" font-family="Helvetica,sans-Serif" font-size="10.00">boca/generic/Debug.hh</text>
</a>
</g>
</g>
<!-- Node31&#45;&gt;Node32 -->
<g id="edge35" class="edge"><title>Node31&#45;&gt;Node32</title>
<path fill="none" stroke="midnightblue" d="M813.549,-179.444C762.429,-169.925 679.846,-154.547 625.117,-144.356"/>
<polygon fill="midnightblue" stroke="midnightblue" points="625.708,-140.906 615.236,-142.516 624.427,-147.788 625.708,-140.906"/>
</g>
<!-- Node37 -->
<g id="node37" class="node"><title>Node37</title>
<g id="a_node37"><a xlink:href="Iterator_8hh.html" target="_top" xlink:title="boca/generic/Iterator.hh">
<polygon fill="white" stroke="black" points="696,-123.5 696,-142.5 815,-142.5 815,-123.5 696,-123.5"/>
<text text-anchor="middle" x="755.5" y="-130.5" font-family="Helvetica,sans-Serif" font-size="10.00">boca/generic/Iterator.hh</text>
</a>
</g>
</g>
<!-- Node31&#45;&gt;Node37 -->
<g id="edge42" class="edge"><title>Node31&#45;&gt;Node37</title>
<path fill="none" stroke="midnightblue" d="M842.791,-179.324C826.188,-170.703 800.498,-157.364 781.28,-147.386"/>
<polygon fill="midnightblue" stroke="midnightblue" points="782.656,-144.156 772.168,-142.655 779.43,-150.369 782.656,-144.156"/>
</g>
<!-- Node40 -->
<g id="node40" class="node"><title>Node40</title>
<g id="a_node40"><a xlink:href="GradedContainer_8hh.html" target="_top" xlink:title="boca/math/GradedContainer.hh">
<polygon fill="white" stroke="black" points="833.5,-123.5 833.5,-142.5 985.5,-142.5 985.5,-123.5 833.5,-123.5"/>
<text text-anchor="middle" x="909.5" y="-130.5" font-family="Helvetica,sans-Serif" font-size="10.00">boca/math/GradedContainer.hh</text>
</a>
</g>
</g>
<!-- Node31&#45;&gt;Node40 -->
<g id="edge46" class="edge"><title>Node31&#45;&gt;Node40</title>
<path fill="none" stroke="midnightblue" d="M867.756,-179.083C874.965,-171.298 885.61,-159.801 894.346,-150.367"/>
<polygon fill="midnightblue" stroke="midnightblue" points="897.171,-152.467 901.397,-142.751 892.035,-147.711 897.171,-152.467"/>
</g>
<!-- Node41 -->
<g id="node41" class="node"><title>Node41</title>
<g id="a_node41"><a xlink:href="Units_8hh.html" target="_top" xlink:title="boca/physics/Units.hh">
<polygon fill="white" stroke="black" points="1003.5,-123.5 1003.5,-142.5 1117.5,-142.5 1117.5,-123.5 1003.5,-123.5"/>
<text text-anchor="middle" x="1060.5" y="-130.5" font-family="Helvetica,sans-Serif" font-size="10.00">boca/physics/Units.hh</text>
</a>
</g>
</g>
<!-- Node31&#45;&gt;Node41 -->
<g id="edge47" class="edge"><title>Node31&#45;&gt;Node41</title>
<path fill="none" stroke="midnightblue" d="M891.349,-179.444C925.898,-170.162 981.182,-155.309 1019.08,-145.127"/>
<polygon fill="midnightblue" stroke="midnightblue" points="1020.05,-148.491 1028.8,-142.516 1018.23,-141.731 1020.05,-148.491"/>
</g>
<!-- Node32&#45;&gt;Node10 -->
<g id="edge36" class="edge"><title>Node32&#45;&gt;Node10</title>
<path fill="none" stroke="midnightblue" d="M510.617,-123.499C467.268,-116.299 407.287,-104.351 356.5,-87 354.882,-86.4471 353.237,-85.8286 351.594,-85.1669"/>
<polygon fill="midnightblue" stroke="midnightblue" points="352.948,-81.9387 342.39,-81.0625 350.097,-88.3318 352.948,-81.9387"/>
</g>
<!-- Node32&#45;&gt;Node12 -->
<g id="edge37" class="edge"><title>Node32&#45;&gt;Node12</title>
<path fill="none" stroke="midnightblue" d="M535.74,-123.475C504.821,-115.308 458,-102.029 418.5,-87 417.077,-86.4586 415.628,-85.8802 414.173,-85.2778"/>
<polygon fill="midnightblue" stroke="midnightblue" points="415.247,-81.9258 404.685,-81.0887 412.419,-88.3295 415.247,-81.9258"/>
</g>
<!-- Node33 -->
<g id="node33" class="node"><title>Node33</title>
<polygon fill="white" stroke="#bfbfbf" points="691.5,-62 691.5,-81 743.5,-81 743.5,-62 691.5,-62"/>
<text text-anchor="middle" x="717.5" y="-69" font-family="Helvetica,sans-Serif" font-size="10.00">sstream</text>
</g>
<!-- Node32&#45;&gt;Node33 -->
<g id="edge38" class="edge"><title>Node32&#45;&gt;Node33</title>
<path fill="none" stroke="midnightblue" d="M591.198,-123.462C613.974,-114.475 650.807,-99.8749 682.5,-87 684.092,-86.3533 685.723,-85.6876 687.37,-85.0135"/>
<polygon fill="midnightblue" stroke="midnightblue" points="688.877,-88.1782 696.791,-81.1346 686.212,-81.7053 688.877,-88.1782"/>
</g>
<!-- Node34 -->
<g id="node34" class="node"><title>Node34</title>
<polygon fill="white" stroke="#bfbfbf" points="427.5,-62 427.5,-81 477.5,-81 477.5,-62 427.5,-62"/>
<text text-anchor="middle" x="452.5" y="-69" font-family="Helvetica,sans-Serif" font-size="10.00">iomanip</text>
</g>
<!-- Node32&#45;&gt;Node34 -->
<g id="edge39" class="edge"><title>Node32&#45;&gt;Node34</title>
<path fill="none" stroke="midnightblue" d="M552.737,-123.475C533.275,-113.578 500.955,-97.1416 478.289,-85.6151"/>
<polygon fill="midnightblue" stroke="midnightblue" points="479.732,-82.4224 469.232,-81.0091 476.559,-88.6619 479.732,-82.4224"/>
</g>
<!-- Node35 -->
<g id="node35" class="node"><title>Node35</title>
<polygon fill="white" stroke="#bfbfbf" points="495.5,-62 495.5,-81 549.5,-81 549.5,-62 495.5,-62"/>
<text text-anchor="middle" x="522.5" y="-69" font-family="Helvetica,sans-Serif" font-size="10.00">iostream</text>
</g>
<!-- Node32&#45;&gt;Node35 -->
<g id="edge40" class="edge"><title>Node32&#45;&gt;Node35</title>
<path fill="none" stroke="midnightblue" d="M562.766,-123.475C555.716,-114.55 544.465,-100.307 535.646,-89.1425"/>
<polygon fill="midnightblue" stroke="midnightblue" points="538.167,-86.6867 529.221,-81.0091 532.674,-91.0258 538.167,-86.6867"/>
</g>
<!-- Node36 -->
<g id="node36" class="node"><title>Node36</title>
<polygon fill="white" stroke="#bfbfbf" points="568,-56.5 568,-86.5 673,-86.5 673,-56.5 568,-56.5"/>
<text text-anchor="start" x="576" y="-74.5" font-family="Helvetica,sans-Serif" font-size="10.00">boost/units/systems</text>
<text text-anchor="middle" x="620.5" y="-63.5" font-family="Helvetica,sans-Serif" font-size="10.00">/si/io.hpp</text>
</g>
<!-- Node32&#45;&gt;Node36 -->
<g id="edge41" class="edge"><title>Node32&#45;&gt;Node36</title>
<path fill="none" stroke="midnightblue" d="M576.807,-123.475C583.327,-115.869 593.158,-104.399 601.844,-94.2649"/>
<polygon fill="midnightblue" stroke="midnightblue" points="604.63,-96.3933 608.48,-86.523 599.315,-91.8378 604.63,-96.3933"/>
</g>
<!-- Node38 -->
<g id="node38" class="node"><title>Node38</title>
<g id="a_node38"><a xlink:href="EnumIterator_8hh.html" target="_top" xlink:title="boca/generic/EnumIterator.hh">
<polygon fill="white" stroke="black" points="762,-62 762,-81 907,-81 907,-62 762,-62"/>
<text text-anchor="middle" x="834.5" y="-69" font-family="Helvetica,sans-Serif" font-size="10.00">boca/generic/EnumIterator.hh</text>
</a>
</g>
</g>
<!-- Node37&#45;&gt;Node38 -->
<g id="edge43" class="edge"><title>Node37&#45;&gt;Node38</title>
<path fill="none" stroke="midnightblue" d="M766.819,-123.475C779.373,-114.02 799.851,-98.5961 814.999,-87.1871"/>
<polygon fill="midnightblue" stroke="midnightblue" points="817.32,-89.821 823.202,-81.0091 813.109,-84.2295 817.32,-89.821"/>
</g>
<!-- Node38&#45;&gt;Node18 -->
<g id="edge45" class="edge"><title>Node38&#45;&gt;Node18</title>
<path fill="none" stroke="midnightblue" d="M786.818,-61.9816C775.568,-59.9958 763.614,-57.9054 752.5,-56 671.192,-42.061 576.042,-26.4148 522.872,-17.7318"/>
<polygon fill="midnightblue" stroke="midnightblue" points="523.248,-14.2469 512.815,-16.0906 522.121,-21.1555 523.248,-14.2469"/>
</g>
<!-- Node39 -->
<g id="node39" class="node"><title>Node39</title>
<polygon fill="white" stroke="#bfbfbf" points="811,-0.5 811,-19.5 858,-19.5 858,-0.5 811,-0.5"/>
<text text-anchor="middle" x="834.5" y="-7.5" font-family="Helvetica,sans-Serif" font-size="10.00">iterator</text>
</g>
<!-- Node38&#45;&gt;Node39 -->
<g id="edge44" class="edge"><title>Node38&#45;&gt;Node39</title>
<path fill="none" stroke="midnightblue" d="M834.5,-61.9751C834.5,-53.5803 834.5,-40.4806 834.5,-29.6631"/>
<polygon fill="midnightblue" stroke="midnightblue" points="838,-29.5091 834.5,-19.5091 831,-29.5091 838,-29.5091"/>
</g>
<!-- Node42 -->
<g id="node42" class="node"><title>Node42</title>
<polygon fill="white" stroke="#bfbfbf" points="1106,-62 1106,-81 1219,-81 1219,-62 1106,-62"/>
<text text-anchor="middle" x="1162.5" y="-69" font-family="Helvetica,sans-Serif" font-size="10.00">boost/units/cmath.hpp</text>
</g>
<!-- Node41&#45;&gt;Node42 -->
<g id="edge48" class="edge"><title>Node41&#45;&gt;Node42</title>
<path fill="none" stroke="midnightblue" d="M1075.11,-123.475C1091.85,-113.711 1119.5,-97.5807 1139.22,-86.0808"/>
<polygon fill="midnightblue" stroke="midnightblue" points="1141.04,-89.0711 1147.91,-81.0091 1137.51,-83.0246 1141.04,-89.0711"/>
</g>
<!-- Node43 -->
<g id="node43" class="node"><title>Node43</title>
<g id="a_node43"><a xlink:href="Prefixes_8hh.html" target="_top" xlink:title="boca/physics/Prefixes.hh">
<polygon fill="white" stroke="red" points="961,-62 961,-81 1088,-81 1088,-62 961,-62"/>
<text text-anchor="middle" x="1024.5" y="-69" font-family="Helvetica,sans-Serif" font-size="10.00">boca/physics/Prefixes.hh</text>
</a>
</g>
</g>
<!-- Node41&#45;&gt;Node43 -->
<g id="edge49" class="edge"><title>Node41&#45;&gt;Node43</title>
<path fill="none" stroke="midnightblue" d="M1055.34,-123.475C1050.05,-114.727 1041.66,-100.869 1034.97,-89.8093"/>
<polygon fill="midnightblue" stroke="midnightblue" points="1037.82,-87.7531 1029.65,-81.0091 1031.83,-91.3768 1037.82,-87.7531"/>
</g>
<!-- Node44&#45;&gt;Node14 -->
<g id="edge57" class="edge"><title>Node44&#45;&gt;Node14</title>
<path fill="none" stroke="midnightblue" d="M485.582,-576.975C460.754,-566.857 419.157,-549.905 390.806,-538.351"/>
<polygon fill="midnightblue" stroke="midnightblue" points="391.961,-535.042 381.379,-534.509 389.319,-541.524 391.961,-535.042"/>
</g>
<!-- Node44&#45;&gt;Node20 -->
<g id="edge51" class="edge"><title>Node44&#45;&gt;Node20</title>
<path fill="none" stroke="midnightblue" d="M526.272,-576.975C549.636,-566.901 588.714,-550.053 615.503,-538.502"/>
<polygon fill="midnightblue" stroke="midnightblue" points="616.968,-541.682 624.765,-534.509 614.196,-535.254 616.968,-541.682"/>
</g>
<!-- Node45 -->
<g id="node45" class="node"><title>Node45</title>
<g id="a_node45"><a xlink:href="Constituent_8hh.html" target="_top" xlink:title="boca/Constituent.hh">
<polygon fill="white" stroke="black" points="456.5,-515.5 456.5,-534.5 560.5,-534.5 560.5,-515.5 456.5,-515.5"/>
<text text-anchor="middle" x="508.5" y="-522.5" font-family="Helvetica,sans-Serif" font-size="10.00">boca/Constituent.hh</text>
</a>
</g>
</g>
<!-- Node44&#45;&gt;Node45 -->
<g id="edge52" class="edge"><title>Node44&#45;&gt;Node45</title>
<path fill="none" stroke="midnightblue" d="M506.787,-576.975C507.069,-568.58 507.509,-555.481 507.873,-544.663"/>
<polygon fill="midnightblue" stroke="midnightblue" points="511.376,-544.621 508.214,-534.509 504.38,-544.386 511.376,-544.621"/>
</g>
<!-- Node46 -->
<g id="node46" class="node"><title>Node46</title>
<g id="a_node46"><a xlink:href="Family_8hh.html" target="_top" xlink:title="boca/physics/Family.hh">
<polygon fill="white" stroke="black" points="482.5,-459.5 482.5,-478.5 602.5,-478.5 602.5,-459.5 482.5,-459.5"/>
<text text-anchor="middle" x="542.5" y="-466.5" font-family="Helvetica,sans-Serif" font-size="10.00">boca/physics/Family.hh</text>
</a>
</g>
</g>
<!-- Node45&#45;&gt;Node46 -->
<g id="edge53" class="edge"><title>Node45&#45;&gt;Node46</title>
<path fill="none" stroke="midnightblue" d="M514.114,-515.083C518.867,-507.534 525.818,-496.495 531.652,-487.23"/>
<polygon fill="midnightblue" stroke="midnightblue" points="534.624,-489.078 536.99,-478.751 528.7,-485.349 534.624,-489.078"/>
</g>
<!-- Node47 -->
<g id="node47" class="node"><title>Node47</title>
<polygon fill="white" stroke="#bfbfbf" points="454,-403.5 454,-422.5 489,-422.5 489,-403.5 454,-403.5"/>
<text text-anchor="middle" x="471.5" y="-410.5" font-family="Helvetica,sans-Serif" font-size="10.00">map</text>
</g>
<!-- Node46&#45;&gt;Node47 -->
<g id="edge54" class="edge"><title>Node46&#45;&gt;Node47</title>
<path fill="none" stroke="midnightblue" d="M531.093,-459.324C520.391,-451.185 504.159,-438.839 491.337,-429.087"/>
<polygon fill="midnightblue" stroke="midnightblue" points="493.193,-426.102 483.115,-422.834 488.956,-431.673 493.193,-426.102"/>
</g>
<!-- Node48 -->
<g id="node48" class="node"><title>Node48</title>
<g id="a_node48"><a xlink:href="Member_8hh.html" target="_top" xlink:title="boca/physics/Member.hh">
<polygon fill="white" stroke="black" points="507.5,-403.5 507.5,-422.5 633.5,-422.5 633.5,-403.5 507.5,-403.5"/>
<text text-anchor="middle" x="570.5" y="-410.5" font-family="Helvetica,sans-Serif" font-size="10.00">boca/physics/Member.hh</text>
</a>
</g>
</g>
<!-- Node46&#45;&gt;Node48 -->
<g id="edge55" class="edge"><title>Node46&#45;&gt;Node48</title>
<path fill="none" stroke="midnightblue" d="M547.124,-459.083C550.956,-451.691 556.524,-440.953 561.265,-431.811"/>
<polygon fill="midnightblue" stroke="midnightblue" points="564.466,-433.24 565.962,-422.751 558.252,-430.018 564.466,-433.24"/>
</g>
<!-- Node48&#45;&gt;Node22 -->
<g id="edge56" class="edge"><title>Node48&#45;&gt;Node22</title>
<path fill="none" stroke="midnightblue" d="M584.799,-403.324C598.683,-394.9 619.992,-381.971 636.304,-372.074"/>
<polygon fill="midnightblue" stroke="midnightblue" points="638.502,-374.834 645.236,-366.655 634.871,-368.85 638.502,-374.834"/>
</g>
<!-- Node49&#45;&gt;Node20 -->
<g id="edge59" class="edge"><title>Node49&#45;&gt;Node20</title>
<path fill="none" stroke="midnightblue" d="M646.356,-638.298C646.035,-618.85 645.252,-571.49 644.812,-544.904"/>
<polygon fill="midnightblue" stroke="midnightblue" points="648.307,-544.564 644.643,-534.623 641.308,-544.68 648.307,-544.564"/>
</g>
<!-- Node50 -->
<g id="node50" class="node"><title>Node50</title>
<g id="a_node50"><a xlink:href="ParticleInfo_8hh.html" target="_top" xlink:title="boca/multiplets/Particle\lInfo.hh">
<polygon fill="white" stroke="black" points="673,-571.5 673,-601.5 792,-601.5 792,-571.5 673,-571.5"/>
<text text-anchor="start" x="681" y="-589.5" font-family="Helvetica,sans-Serif" font-size="10.00">boca/multiplets/Particle</text>
<text text-anchor="middle" x="732.5" y="-578.5" font-family="Helvetica,sans-Serif" font-size="10.00">Info.hh</text>
</a>
</g>
</g>
<!-- Node49&#45;&gt;Node50 -->
<g id="edge60" class="edge"><title>Node49&#45;&gt;Node50</title>
<path fill="none" stroke="midnightblue" d="M658.822,-638.475C670.469,-630.417 688.383,-618.023 703.63,-607.474"/>
<polygon fill="midnightblue" stroke="midnightblue" points="705.999,-610.091 712.232,-601.523 702.016,-604.334 705.999,-610.091"/>
</g>
<!-- Node50&#45;&gt;Node20 -->
<g id="edge61" class="edge"><title>Node50&#45;&gt;Node20</title>
<path fill="none" stroke="midnightblue" d="M711.645,-571.399C697.803,-562.04 679.689,-549.792 665.764,-540.377"/>
<polygon fill="midnightblue" stroke="midnightblue" points="667.549,-537.36 657.305,-534.658 663.628,-543.158 667.549,-537.36"/>
</g>
<!-- Node50&#45;&gt;Node46 -->
<g id="edge62" class="edge"><title>Node50&#45;&gt;Node46</title>
<path fill="none" stroke="midnightblue" d="M738.621,-571.397C744.314,-555.851 750.181,-530.94 737.5,-515 721.918,-495.413 662.112,-483.62 612.795,-477.052"/>
<polygon fill="midnightblue" stroke="midnightblue" points="613.133,-473.567 602.769,-475.768 612.244,-480.51 613.133,-473.567"/>
</g>
</g>
</svg>
