<?xml version="1.0" encoding="UTF-8" standalone="no"?>
<!DOCTYPE svg PUBLIC "-//W3C//DTD SVG 1.1//EN"
 "http://www.w3.org/Graphics/SVG/1.1/DTD/svg11.dtd">
<!-- Generated by graphviz version 2.38.0 (20140413.2041)
 -->
<!-- Title: build/source/exroot/ExRootDict.cxx Pages: 1 -->
<svg width="1995pt" height="117pt"
 viewBox="0.00 0.00 1995.00 117.00" xmlns="http://www.w3.org/2000/svg" xmlns:xlink="http://www.w3.org/1999/xlink">
<g id="graph0" class="graph" transform="scale(1 1) rotate(0) translate(4 113)">
<title>build/source/exroot/ExRootDict.cxx</title>
<polygon fill="white" stroke="none" points="-4,4 -4,-113 1991,-113 1991,4 -4,4"/>
<!-- Node1 -->
<g id="node1" class="node"><title>Node1</title>
<polygon fill="#bfbfbf" stroke="black" points="790.5,-78.5 790.5,-108.5 889.5,-108.5 889.5,-78.5 790.5,-78.5"/>
<text text-anchor="start" x="798.5" y="-96.5" font-family="Helvetica,sans-Serif" font-size="10.00">build/source/exroot</text>
<text text-anchor="middle" x="840" y="-85.5" font-family="Helvetica,sans-Serif" font-size="10.00">/ExRootDict.cxx</text>
</g>
<!-- Node2 -->
<g id="node2" class="node"><title>Node2</title>
<polygon fill="white" stroke="#bfbfbf" points="0,-11.5 0,-30.5 52,-30.5 52,-11.5 0,-11.5"/>
<text text-anchor="middle" x="26" y="-18.5" font-family="Helvetica,sans-Serif" font-size="10.00">stddef.h</text>
</g>
<!-- Node1&#45;&gt;Node2 -->
<g id="edge1" class="edge"><title>Node1&#45;&gt;Node2</title>
<path fill="none" stroke="midnightblue" d="M790.275,-92.1944C640.955,-90.8187 198.337,-83.2735 61,-42 56.145,-40.5409 51.2352,-38.3063 46.6904,-35.8517"/>
<polygon fill="midnightblue" stroke="midnightblue" points="48.3914,-32.7912 38.0085,-30.6827 44.8104,-38.8059 48.3914,-32.7912"/>
</g>
<!-- Node3 -->
<g id="node3" class="node"><title>Node3</title>
<polygon fill="white" stroke="#bfbfbf" points="70,-11.5 70,-30.5 116,-30.5 116,-11.5 70,-11.5"/>
<text text-anchor="middle" x="93" y="-18.5" font-family="Helvetica,sans-Serif" font-size="10.00">stdio.h</text>
</g>
<!-- Node1&#45;&gt;Node3 -->
<g id="edge2" class="edge"><title>Node1&#45;&gt;Node3</title>
<path fill="none" stroke="midnightblue" d="M790.321,-92.1016C649.352,-90.4814 249.03,-82.3542 125,-42 120.725,-40.609 116.442,-38.5266 112.463,-36.2234"/>
<polygon fill="midnightblue" stroke="midnightblue" points="114.174,-33.162 103.877,-30.67 110.373,-39.0397 114.174,-33.162"/>
</g>
<!-- Node4 -->
<g id="node4" class="node"><title>Node4</title>
<polygon fill="white" stroke="#bfbfbf" points="134,-11.5 134,-30.5 182,-30.5 182,-11.5 134,-11.5"/>
<text text-anchor="middle" x="158" y="-18.5" font-family="Helvetica,sans-Serif" font-size="10.00">stdlib.h</text>
</g>
<!-- Node1&#45;&gt;Node4 -->
<g id="edge3" class="edge"><title>Node1&#45;&gt;Node4</title>
<path fill="none" stroke="midnightblue" d="M790.487,-91.6055C658.817,-88.7579 302.484,-77.8662 191,-42 186.502,-40.5529 181.978,-38.3851 177.783,-36.0035"/>
<polygon fill="midnightblue" stroke="midnightblue" points="179.592,-33.007 169.264,-30.6452 175.865,-38.9323 179.592,-33.007"/>
</g>
<!-- Node5 -->
<g id="node5" class="node"><title>Node5</title>
<polygon fill="white" stroke="#bfbfbf" points="200.5,-11.5 200.5,-30.5 247.5,-30.5 247.5,-11.5 200.5,-11.5"/>
<text text-anchor="middle" x="224" y="-18.5" font-family="Helvetica,sans-Serif" font-size="10.00">math.h</text>
</g>
<!-- Node1&#45;&gt;Node5 -->
<g id="edge4" class="edge"><title>Node1&#45;&gt;Node5</title>
<path fill="none" stroke="midnightblue" d="M790.139,-91.1807C667.608,-87.4611 354.574,-74.9323 256,-42 251.736,-40.5754 247.458,-38.4774 243.481,-36.1693"/>
<polygon fill="midnightblue" stroke="midnightblue" points="245.192,-33.1078 234.893,-30.6209 241.393,-38.9874 245.192,-33.1078"/>
</g>
<!-- Node6 -->
<g id="node6" class="node"><title>Node6</title>
<polygon fill="white" stroke="#bfbfbf" points="265.5,-11.5 265.5,-30.5 314.5,-30.5 314.5,-11.5 265.5,-11.5"/>
<text text-anchor="middle" x="290" y="-18.5" font-family="Helvetica,sans-Serif" font-size="10.00">string.h</text>
</g>
<!-- Node1&#45;&gt;Node6 -->
<g id="edge5" class="edge"><title>Node1&#45;&gt;Node6</title>
<path fill="none" stroke="midnightblue" d="M790.276,-90.3658C678.392,-85.1233 409.913,-69.9607 324,-42 319.407,-40.5052 314.764,-38.3159 310.447,-35.9283"/>
<polygon fill="midnightblue" stroke="midnightblue" points="312.025,-32.7913 301.664,-30.5773 308.383,-38.7692 312.025,-32.7913"/>
</g>
<!-- Node7 -->
<g id="node7" class="node"><title>Node7</title>
<polygon fill="white" stroke="#bfbfbf" points="333,-11.5 333,-30.5 385,-30.5 385,-11.5 333,-11.5"/>
<text text-anchor="middle" x="359" y="-18.5" font-family="Helvetica,sans-Serif" font-size="10.00">assert.h</text>
</g>
<!-- Node1&#45;&gt;Node7 -->
<g id="edge6" class="edge"><title>Node1&#45;&gt;Node7</title>
<path fill="none" stroke="midnightblue" d="M790.451,-93.3395C706.643,-93.3536 532.508,-87.2778 394,-42 389.181,-40.4248 384.287,-38.1397 379.747,-35.6726"/>
<polygon fill="midnightblue" stroke="midnightblue" points="381.446,-32.6112 371.059,-30.522 377.876,-38.6325 381.446,-32.6112"/>
</g>
<!-- Node8 -->
<g id="node8" class="node"><title>Node8</title>
<polygon fill="white" stroke="#bfbfbf" points="403.5,-11.5 403.5,-30.5 464.5,-30.5 464.5,-11.5 403.5,-11.5"/>
<text text-anchor="middle" x="434" y="-18.5" font-family="Helvetica,sans-Serif" font-size="10.00">RConfig.h</text>
</g>
<!-- Node1&#45;&gt;Node8 -->
<g id="edge7" class="edge"><title>Node1&#45;&gt;Node8</title>
<path fill="none" stroke="midnightblue" d="M790.35,-90.7627C718.917,-87.1264 583.676,-75.9725 474,-42 468.438,-40.277 462.701,-37.847 457.37,-35.2721"/>
<polygon fill="midnightblue" stroke="midnightblue" points="458.828,-32.0856 448.337,-30.6022 455.613,-38.3038 458.828,-32.0856"/>
</g>
<!-- Node9 -->
<g id="node9" class="node"><title>Node9</title>
<polygon fill="white" stroke="#bfbfbf" points="483,-11.5 483,-30.5 539,-30.5 539,-11.5 483,-11.5"/>
<text text-anchor="middle" x="511" y="-18.5" font-family="Helvetica,sans-Serif" font-size="10.00">TClass.h</text>
</g>
<!-- Node1&#45;&gt;Node9 -->
<g id="edge8" class="edge"><title>Node1&#45;&gt;Node9</title>
<path fill="none" stroke="midnightblue" d="M790.478,-88.8499C731.396,-83.3859 630.279,-70.4958 548,-42 543.084,-40.2974 538.038,-37.9933 533.316,-35.5544"/>
<polygon fill="midnightblue" stroke="midnightblue" points="534.664,-32.2998 524.222,-30.5084 531.268,-38.4207 534.664,-32.2998"/>
</g>
<!-- Node10 -->
<g id="node10" class="node"><title>Node10</title>
<polygon fill="white" stroke="#bfbfbf" points="557,-11.5 557,-30.5 661,-30.5 661,-11.5 557,-11.5"/>
<text text-anchor="middle" x="609" y="-18.5" font-family="Helvetica,sans-Serif" font-size="10.00">TDictAttributeMap.h</text>
</g>
<!-- Node1&#45;&gt;Node10 -->
<g id="edge9" class="edge"><title>Node1&#45;&gt;Node10</title>
<path fill="none" stroke="midnightblue" d="M791.528,-78.4934C757.457,-68.5527 710.849,-54.7612 670,-42 661.589,-39.3725 652.556,-36.4604 644.086,-33.69"/>
<polygon fill="midnightblue" stroke="midnightblue" points="645.066,-30.328 634.473,-30.5285 642.879,-36.9776 645.066,-30.328"/>
</g>
<!-- Node11 -->
<g id="node11" class="node"><title>Node11</title>
<polygon fill="white" stroke="#bfbfbf" points="679.5,-11.5 679.5,-30.5 754.5,-30.5 754.5,-11.5 679.5,-11.5"/>
<text text-anchor="middle" x="717" y="-18.5" font-family="Helvetica,sans-Serif" font-size="10.00">TInterpreter.h</text>
</g>
<!-- Node1&#45;&gt;Node11 -->
<g id="edge10" class="edge"><title>Node1&#45;&gt;Node11</title>
<path fill="none" stroke="midnightblue" d="M815.405,-78.4027C793.664,-65.9416 762.159,-47.884 740.694,-35.5807"/>
<polygon fill="midnightblue" stroke="midnightblue" points="742.305,-32.4698 731.888,-30.5336 738.824,-38.543 742.305,-32.4698"/>
</g>
<!-- Node12 -->
<g id="node12" class="node"><title>Node12</title>
<polygon fill="white" stroke="#bfbfbf" points="772.5,-11.5 772.5,-30.5 831.5,-30.5 831.5,-11.5 772.5,-11.5"/>
<text text-anchor="middle" x="802" y="-18.5" font-family="Helvetica,sans-Serif" font-size="10.00">TROOT.h</text>
</g>
<!-- Node1&#45;&gt;Node12 -->
<g id="edge11" class="edge"><title>Node1&#45;&gt;Node12</title>
<path fill="none" stroke="midnightblue" d="M832.31,-78.2333C826.346,-67.1687 818.045,-51.7673 811.637,-39.8798"/>
<polygon fill="midnightblue" stroke="midnightblue" points="814.619,-38.0352 806.793,-30.8932 808.457,-41.3565 814.619,-38.0352"/>
</g>
<!-- Node13 -->
<g id="node13" class="node"><title>Node13</title>
<polygon fill="white" stroke="#bfbfbf" points="849.5,-11.5 849.5,-30.5 906.5,-30.5 906.5,-11.5 849.5,-11.5"/>
<text text-anchor="middle" x="878" y="-18.5" font-family="Helvetica,sans-Serif" font-size="10.00">TBuffer.h</text>
</g>
<!-- Node1&#45;&gt;Node13 -->
<g id="edge12" class="edge"><title>Node1&#45;&gt;Node13</title>
<path fill="none" stroke="midnightblue" d="M847.69,-78.2333C853.654,-67.1687 861.955,-51.7673 868.363,-39.8798"/>
<polygon fill="midnightblue" stroke="midnightblue" points="871.543,-41.3565 873.207,-30.8932 865.381,-38.0352 871.543,-41.3565"/>
</g>
<!-- Node14 -->
<g id="node14" class="node"><title>Node14</title>
<polygon fill="white" stroke="#bfbfbf" points="924.5,-11.5 924.5,-30.5 1031.5,-30.5 1031.5,-11.5 924.5,-11.5"/>
<text text-anchor="middle" x="978" y="-18.5" font-family="Helvetica,sans-Serif" font-size="10.00">TMemberInspector.h</text>
</g>
<!-- Node1&#45;&gt;Node14 -->
<g id="edge13" class="edge"><title>Node1&#45;&gt;Node14</title>
<path fill="none" stroke="midnightblue" d="M867.595,-78.4027C892.315,-65.774 928.286,-47.3972 952.382,-35.0873"/>
<polygon fill="midnightblue" stroke="midnightblue" points="953.983,-38.1998 961.296,-30.5336 950.798,-31.9662 953.983,-38.1998"/>
</g>
<!-- Node15 -->
<g id="node15" class="node"><title>Node15</title>
<polygon fill="white" stroke="#bfbfbf" points="1050,-11.5 1050,-30.5 1136,-30.5 1136,-11.5 1050,-11.5"/>
<text text-anchor="middle" x="1093" y="-18.5" font-family="Helvetica,sans-Serif" font-size="10.00">TVirtualMutex.h</text>
</g>
<!-- Node1&#45;&gt;Node15 -->
<g id="edge14" class="edge"><title>Node1&#45;&gt;Node15</title>
<path fill="none" stroke="midnightblue" d="M889.616,-81.7966C930.585,-72.5391 990.062,-58.1296 1041,-42 1048.23,-39.7115 1055.9,-36.9497 1063.08,-34.2189"/>
<polygon fill="midnightblue" stroke="midnightblue" points="1064.41,-37.4555 1072.45,-30.5616 1061.87,-30.9338 1064.41,-37.4555"/>
</g>
<!-- Node16 -->
<g id="node16" class="node"><title>Node16</title>
<polygon fill="white" stroke="#bfbfbf" points="1154,-11.5 1154,-30.5 1206,-30.5 1206,-11.5 1154,-11.5"/>
<text text-anchor="middle" x="1180" y="-18.5" font-family="Helvetica,sans-Serif" font-size="10.00">TError.h</text>
</g>
<!-- Node1&#45;&gt;Node16 -->
<g id="edge15" class="edge"><title>Node1&#45;&gt;Node16</title>
<path fill="none" stroke="midnightblue" d="M889.675,-89.6847C951.176,-84.9858 1058.4,-72.792 1145,-42 1149.57,-40.3735 1154.24,-38.1597 1158.61,-35.7965"/>
<polygon fill="midnightblue" stroke="midnightblue" points="1160.7,-38.6285 1167.56,-30.5542 1157.16,-32.5884 1160.7,-38.6285"/>
</g>
<!-- Node17 -->
<g id="node17" class="node"><title>Node17</title>
<polygon fill="white" stroke="#bfbfbf" points="1224.5,-11.5 1224.5,-30.5 1297.5,-30.5 1297.5,-11.5 1224.5,-11.5"/>
<text text-anchor="middle" x="1261" y="-18.5" font-family="Helvetica,sans-Serif" font-size="10.00">RtypesImp.h</text>
</g>
<!-- Node1&#45;&gt;Node17 -->
<g id="edge16" class="edge"><title>Node1&#45;&gt;Node17</title>
<path fill="none" stroke="midnightblue" d="M889.715,-90.1714C962.365,-85.7945 1101.26,-73.7228 1215,-42 1221.61,-40.1576 1228.5,-37.5562 1234.88,-34.837"/>
<polygon fill="midnightblue" stroke="midnightblue" points="1236.69,-37.8601 1244.37,-30.5593 1233.81,-31.4787 1236.69,-37.8601"/>
</g>
<!-- Node18 -->
<g id="node18" class="node"><title>Node18</title>
<polygon fill="white" stroke="#bfbfbf" points="1315.5,-11.5 1315.5,-30.5 1386.5,-30.5 1386.5,-11.5 1315.5,-11.5"/>
<text text-anchor="middle" x="1351" y="-18.5" font-family="Helvetica,sans-Serif" font-size="10.00">TIsAProxy.h</text>
</g>
<!-- Node1&#45;&gt;Node18 -->
<g id="edge17" class="edge"><title>Node1&#45;&gt;Node18</title>
<path fill="none" stroke="midnightblue" d="M889.7,-92.2771C976.101,-90.7594 1158.93,-82.5291 1307,-42 1313.37,-40.2555 1319.99,-37.6917 1326.1,-34.9777"/>
<polygon fill="midnightblue" stroke="midnightblue" points="1327.62,-38.1275 1335.16,-30.6855 1324.63,-31.8005 1327.62,-38.1275"/>
</g>
<!-- Node19 -->
<g id="node19" class="node"><title>Node19</title>
<polygon fill="white" stroke="#bfbfbf" points="1405,-11.5 1405,-30.5 1495,-30.5 1495,-11.5 1405,-11.5"/>
<text text-anchor="middle" x="1450" y="-18.5" font-family="Helvetica,sans-Serif" font-size="10.00">TFileMergeInfo.h</text>
</g>
<!-- Node1&#45;&gt;Node19 -->
<g id="edge18" class="edge"><title>Node1&#45;&gt;Node19</title>
<path fill="none" stroke="midnightblue" d="M889.769,-92.3545C987.869,-91.1121 1212.61,-83.5195 1396,-42 1404.23,-40.1374 1412.9,-37.33 1420.82,-34.403"/>
<polygon fill="midnightblue" stroke="midnightblue" points="1422.32,-37.5755 1430.38,-30.6934 1419.79,-31.05 1422.32,-37.5755"/>
</g>
<!-- Node20 -->
<g id="node20" class="node"><title>Node20</title>
<polygon fill="white" stroke="#bfbfbf" points="1513,-11.5 1513,-30.5 1569,-30.5 1569,-11.5 1513,-11.5"/>
<text text-anchor="middle" x="1541" y="-18.5" font-family="Helvetica,sans-Serif" font-size="10.00">algorithm</text>
</g>
<!-- Node1&#45;&gt;Node20 -->
<g id="edge19" class="edge"><title>Node1&#45;&gt;Node20</title>
<path fill="none" stroke="midnightblue" d="M889.592,-91.4017C1023.28,-88.0171 1388.78,-75.8485 1504,-42 1509.21,-40.4699 1514.51,-38.1418 1519.42,-35.6082"/>
<polygon fill="midnightblue" stroke="midnightblue" points="1521.24,-38.6006 1528.23,-30.6387 1517.8,-32.5038 1521.24,-38.6006"/>
</g>
<!-- Node21 -->
<g id="node21" class="node"><title>Node21</title>
<polygon fill="white" stroke="#bfbfbf" points="1587,-11.5 1587,-30.5 1703,-30.5 1703,-11.5 1587,-11.5"/>
<text text-anchor="middle" x="1645" y="-18.5" font-family="Helvetica,sans-Serif" font-size="10.00">TCollectionProxyInfo.h</text>
</g>
<!-- Node1&#45;&gt;Node21 -->
<g id="edge20" class="edge"><title>Node1&#45;&gt;Node21</title>
<path fill="none" stroke="midnightblue" d="M889.695,-92.8787C1009.27,-92.973 1322.1,-88.3548 1578,-42 1589.04,-39.9995 1600.85,-36.8355 1611.43,-33.6092"/>
<polygon fill="midnightblue" stroke="midnightblue" points="1612.65,-36.8925 1621.12,-30.5328 1610.53,-30.2201 1612.65,-36.8925"/>
</g>
<!-- Node22 -->
<g id="node22" class="node"><title>Node22</title>
<polygon fill="white" stroke="#bfbfbf" points="1721.5,-11.5 1721.5,-30.5 1808.5,-30.5 1808.5,-11.5 1721.5,-11.5"/>
<text text-anchor="middle" x="1765" y="-18.5" font-family="Helvetica,sans-Serif" font-size="10.00">TDataMember.h</text>
</g>
<!-- Node1&#45;&gt;Node22 -->
<g id="edge21" class="edge"><title>Node1&#45;&gt;Node22</title>
<path fill="none" stroke="midnightblue" d="M889.615,-91.5967C1049.99,-88.368 1553.19,-75.7395 1712,-42 1720.25,-40.2468 1728.92,-37.4229 1736.81,-34.4427"/>
<polygon fill="midnightblue" stroke="midnightblue" points="1738.3,-37.6164 1746.28,-30.6531 1735.7,-31.117 1738.3,-37.6164"/>
</g>
<!-- Node23 -->
<g id="node23" class="node"><title>Node23</title>
<polygon fill="white" stroke="#bfbfbf" points="1827,-0.5 1827,-41.5 1987,-41.5 1987,-0.5 1827,-0.5"/>
<text text-anchor="start" x="1835" y="-29.5" font-family="Helvetica,sans-Serif" font-size="10.00">/home/hajer/Projects</text>
<text text-anchor="start" x="1835" y="-18.5" font-family="Helvetica,sans-Serif" font-size="10.00">/BoCA/source/exroot/..</text>
<text text-anchor="middle" x="1907" y="-7.5" font-family="Helvetica,sans-Serif" font-size="10.00">/../boca/exroot/ExRootClasses.h</text>
</g>
<!-- Node1&#45;&gt;Node23 -->
<g id="edge22" class="edge"><title>Node1&#45;&gt;Node23</title>
<path fill="none" stroke="midnightblue" d="M889.635,-92.8961C1032.46,-93.4073 1456.73,-90.5169 1816.49,-42.0854"/>
<polygon fill="midnightblue" stroke="midnightblue" points="1817.14,-45.5289 1826.58,-40.7128 1816.2,-38.5928 1817.14,-45.5289"/>
</g>
</g>
</svg>
