<?xml version="1.0" encoding="UTF-8" standalone="no"?>
<!DOCTYPE svg PUBLIC "-//W3C//DTD SVG 1.1//EN"
 "http://www.w3.org/Graphics/SVG/1.1/DTD/svg11.dtd">
<!-- Generated by graphviz version 2.38.0 (20140413.2041)
 -->
<!-- Title: examples/standardmodel/source/tagger/Higgs.cpp Pages: 1 -->
<svg width="2066pt" height="676pt"
 viewBox="0.00 0.00 2065.60 676.00" xmlns="http://www.w3.org/2000/svg" xmlns:xlink="http://www.w3.org/1999/xlink">
<g id="graph0" class="graph" transform="scale(1 1) rotate(0) translate(4 672)">
<title>examples/standardmodel/source/tagger/Higgs.cpp</title>
<polygon fill="white" stroke="none" points="-4,4 -4,-672 2061.6,-672 2061.6,4 -4,4"/>
<!-- Node1 -->
<g id="node1" class="node"><title>Node1</title>
<polygon fill="#bfbfbf" stroke="black" points="699.5,-637.5 699.5,-667.5 825.5,-667.5 825.5,-637.5 699.5,-637.5"/>
<text text-anchor="start" x="707.5" y="-655.5" font-family="Helvetica,sans-Serif" font-size="10.00">examples/standardmodel</text>
<text text-anchor="middle" x="762.5" y="-644.5" font-family="Helvetica,sans-Serif" font-size="10.00">/source/tagger/Higgs.cpp</text>
</g>
<!-- Node2 -->
<g id="node2" class="node"><title>Node2</title>
<polygon fill="white" stroke="#bfbfbf" points="0,-576 0,-595 159,-595 159,-576 0,-576"/>
<text text-anchor="middle" x="79.5" y="-583" font-family="Helvetica,sans-Serif" font-size="10.00">fastjet/tools/MassDropTagger.hh</text>
</g>
<!-- Node1&#45;&gt;Node2 -->
<g id="edge1" class="edge"><title>Node1&#45;&gt;Node2</title>
<path fill="none" stroke="midnightblue" d="M699.362,-647.778C590.521,-640.998 360.646,-625.071 167.5,-601 157.59,-599.765 147.087,-598.232 136.919,-596.629"/>
<polygon fill="midnightblue" stroke="midnightblue" points="137.328,-593.15 126.898,-595.012 136.213,-600.06 137.328,-593.15"/>
</g>
<!-- Node3 -->
<g id="node3" class="node"><title>Node3</title>
<polygon fill="white" stroke="#bfbfbf" points="176.5,-576 176.5,-595 282.5,-595 282.5,-576 176.5,-576"/>
<text text-anchor="middle" x="229.5" y="-583" font-family="Helvetica,sans-Serif" font-size="10.00">fastjet/tools/Filter.hh</text>
</g>
<!-- Node1&#45;&gt;Node3 -->
<g id="edge2" class="edge"><title>Node1&#45;&gt;Node3</title>
<path fill="none" stroke="midnightblue" d="M699.309,-647.206C608.598,-640.48 436.427,-625.621 291.5,-601 285.278,-599.943 278.747,-598.636 272.355,-597.244"/>
<polygon fill="midnightblue" stroke="midnightblue" points="273.015,-593.805 262.489,-595.008 271.468,-600.632 273.015,-593.805"/>
</g>
<!-- Node4 -->
<g id="node4" class="node"><title>Node4</title>
<g id="a_node4"><a xlink:href="Types_8hh.html" target="_top" xlink:title="boca/generic/Types.hh">
<polygon fill="white" stroke="black" points="354.5,-375 354.5,-394 470.5,-394 470.5,-375 354.5,-375"/>
<text text-anchor="middle" x="412.5" y="-382" font-family="Helvetica,sans-Serif" font-size="10.00">boca/generic/Types.hh</text>
</a>
</g>
</g>
<!-- Node1&#45;&gt;Node4 -->
<g id="edge3" class="edge"><title>Node1&#45;&gt;Node4</title>
<path fill="none" stroke="midnightblue" d="M699.492,-647.424C627.604,-641.537 515.918,-628.225 484.5,-601 424.825,-549.289 414.452,-446.682 412.765,-404.394"/>
<polygon fill="midnightblue" stroke="midnightblue" points="416.257,-404.059 412.486,-394.158 409.26,-404.25 416.257,-404.059"/>
</g>
<!-- Node7 -->
<g id="node7" class="node"><title>Node7</title>
<g id="a_node7"><a xlink:href="Exception_8hh.html" target="_top" xlink:title="boca/generic/Exception.hh">
<polygon fill="white" stroke="black" points="300.5,-576 300.5,-595 432.5,-595 432.5,-576 300.5,-576"/>
<text text-anchor="middle" x="366.5" y="-583" font-family="Helvetica,sans-Serif" font-size="10.00">boca/generic/Exception.hh</text>
</a>
</g>
</g>
<!-- Node1&#45;&gt;Node7 -->
<g id="edge6" class="edge"><title>Node1&#45;&gt;Node7</title>
<path fill="none" stroke="midnightblue" d="M699.483,-641.825C635.658,-631.933 534.127,-615.941 446.5,-601 438.771,-599.682 430.63,-598.253 422.619,-596.824"/>
<polygon fill="midnightblue" stroke="midnightblue" points="423.044,-593.345 412.582,-595.022 421.806,-600.234 423.044,-593.345"/>
</g>
<!-- Node9 -->
<g id="node9" class="node"><title>Node9</title>
<g id="a_node9"><a xlink:href="ClusterSequence_8hh.html" target="_top" xlink:title="boca/fastjet/ClusterSequence.hh">
<polygon fill="white" stroke="black" points="1848,-375 1848,-394 2007,-394 2007,-375 1848,-375"/>
<text text-anchor="middle" x="1927.5" y="-382" font-family="Helvetica,sans-Serif" font-size="10.00">boca/fastjet/ClusterSequence.hh</text>
</a>
</g>
</g>
<!-- Node1&#45;&gt;Node9 -->
<g id="edge9" class="edge"><title>Node1&#45;&gt;Node9</title>
<path fill="none" stroke="midnightblue" d="M825.58,-644.287C894.48,-635.92 1007.91,-620.715 1104.5,-601 1410.74,-538.492 1773.04,-432.075 1889.47,-397.051"/>
<polygon fill="midnightblue" stroke="midnightblue" points="1890.77,-400.316 1899.34,-394.079 1888.75,-393.614 1890.77,-400.316"/>
</g>
<!-- Node15 -->
<g id="node15" class="node"><title>Node15</title>
<g id="a_node15"><a xlink:href="Doublet_8hh.html" target="_top" xlink:title="boca/multiplets/Doublet.hh">
<polygon fill="white" stroke="black" points="1020,-509 1020,-528 1153,-528 1153,-509 1020,-509"/>
<text text-anchor="middle" x="1086.5" y="-516" font-family="Helvetica,sans-Serif" font-size="10.00">boca/multiplets/Doublet.hh</text>
</a>
</g>
</g>
<!-- Node1&#45;&gt;Node15 -->
<g id="edge16" class="edge"><title>Node1&#45;&gt;Node15</title>
<path fill="none" stroke="midnightblue" d="M825.561,-648.37C876.732,-643.56 949.34,-631.44 1005.5,-601 1034.89,-585.07 1060.51,-555.073 1074.7,-536.251"/>
<polygon fill="midnightblue" stroke="midnightblue" points="1077.65,-538.158 1080.72,-528.02 1071.99,-534.028 1077.65,-538.158"/>
</g>
<!-- Node33 -->
<g id="node33" class="node"><title>Node33</title>
<g id="a_node33"><a xlink:href="Particles_8hh.html" target="_top" xlink:title="boca/fastjet/Particles.hh">
<polygon fill="white" stroke="black" points="1572.5,-375 1572.5,-394 1694.5,-394 1694.5,-375 1572.5,-375"/>
<text text-anchor="middle" x="1633.5" y="-382" font-family="Helvetica,sans-Serif" font-size="10.00">boca/fastjet/Particles.hh</text>
</a>
</g>
</g>
<!-- Node1&#45;&gt;Node33 -->
<g id="edge40" class="edge"><title>Node1&#45;&gt;Node33</title>
<path fill="none" stroke="midnightblue" d="M825.601,-643.078C882.185,-634.8 967.186,-620.561 1039.5,-601 1261.82,-540.863 1518.98,-434.432 1604.32,-398.079"/>
<polygon fill="midnightblue" stroke="midnightblue" points="1605.82,-401.246 1613.64,-394.098 1603.07,-394.809 1605.82,-401.246"/>
</g>
<!-- Node34 -->
<g id="node34" class="node"><title>Node34</title>
<g id="a_node34"><a xlink:href="boca_2Event_8hh.html" target="_top" xlink:title="boca/Event.hh">
<polygon fill="white" stroke="black" points="789.5,-442 789.5,-461 869.5,-461 869.5,-442 789.5,-442"/>
<text text-anchor="middle" x="829.5" y="-449" font-family="Helvetica,sans-Serif" font-size="10.00">boca/Event.hh</text>
</a>
</g>
</g>
<!-- Node1&#45;&gt;Node34 -->
<g id="edge43" class="edge"><title>Node1&#45;&gt;Node34</title>
<path fill="none" stroke="midnightblue" d="M818.248,-637.377C868.274,-621.421 938.711,-590.05 971.5,-534 995.133,-493.602 929.621,-471.455 879.861,-460.794"/>
<polygon fill="midnightblue" stroke="midnightblue" points="880.333,-457.318 869.835,-458.752 878.935,-464.177 880.333,-457.318"/>
</g>
<!-- Node44 -->
<g id="node44" class="node"><title>Node44</title>
<g id="a_node44"><a xlink:href="MomentumRange_8hh.html" target="_top" xlink:title="boca/identification\l/MomentumRange.hh">
<polygon fill="white" stroke="black" points="1856.5,-436.5 1856.5,-466.5 1966.5,-466.5 1966.5,-436.5 1856.5,-436.5"/>
<text text-anchor="start" x="1864.5" y="-454.5" font-family="Helvetica,sans-Serif" font-size="10.00">boca/identification</text>
<text text-anchor="middle" x="1911.5" y="-443.5" font-family="Helvetica,sans-Serif" font-size="10.00">/MomentumRange.hh</text>
</a>
</g>
</g>
<!-- Node1&#45;&gt;Node44 -->
<g id="edge59" class="edge"><title>Node1&#45;&gt;Node44</title>
<path fill="none" stroke="midnightblue" d="M825.534,-650.888C1031.19,-648.537 1674.3,-638.254 1759.5,-601 1821.25,-574.002 1872.27,-509.919 1896.43,-475.424"/>
<polygon fill="midnightblue" stroke="midnightblue" points="1899.48,-477.16 1902.25,-466.933 1893.71,-473.201 1899.48,-477.16"/>
</g>
<!-- Node45 -->
<g id="node45" class="node"><title>Node45</title>
<g id="a_node45"><a xlink:href="standardmodel_2standardmodel_2tagger_2Higgs_8hh.html" target="_top" xlink:title="standardmodel/tagger\l/Higgs.hh">
<polygon fill="white" stroke="black" points="707.5,-570.5 707.5,-600.5 817.5,-600.5 817.5,-570.5 707.5,-570.5"/>
<text text-anchor="start" x="715.5" y="-588.5" font-family="Helvetica,sans-Serif" font-size="10.00">standardmodel/tagger</text>
<text text-anchor="middle" x="762.5" y="-577.5" font-family="Helvetica,sans-Serif" font-size="10.00">/Higgs.hh</text>
</a>
</g>
</g>
<!-- Node1&#45;&gt;Node45 -->
<g id="edge63" class="edge"><title>Node1&#45;&gt;Node45</title>
<path fill="none" stroke="midnightblue" d="M762.5,-637.396C762.5,-629.645 762.5,-619.812 762.5,-610.86"/>
<polygon fill="midnightblue" stroke="midnightblue" points="766,-610.576 762.5,-600.577 759,-610.577 766,-610.576"/>
</g>
<!-- Node50 -->
<g id="node50" class="node"><title>Node50</title>
<g id="a_node50"><a xlink:href="DEBUG__MACROS_8hh.html" target="_top" xlink:title="boca/generic/DEBUG\l_MACROS.hh">
<polygon fill="white" stroke="black" points="442,-235.5 442,-265.5 553,-265.5 553,-235.5 442,-235.5"/>
<text text-anchor="start" x="450" y="-253.5" font-family="Helvetica,sans-Serif" font-size="10.00">boca/generic/DEBUG</text>
<text text-anchor="middle" x="497.5" y="-242.5" font-family="Helvetica,sans-Serif" font-size="10.00">_MACROS.hh</text>
</a>
</g>
</g>
<!-- Node1&#45;&gt;Node50 -->
<g id="edge74" class="edge"><title>Node1&#45;&gt;Node50</title>
<path fill="none" stroke="midnightblue" d="M699.265,-647.071C621.163,-637.767 498.5,-608.919 498.5,-519.5 498.5,-519.5 498.5,-519.5 498.5,-383.5 498.5,-346.002 498.091,-302.513 497.797,-276.01"/>
<polygon fill="midnightblue" stroke="midnightblue" points="501.294,-275.718 497.679,-265.759 494.294,-275.799 501.294,-275.718"/>
</g>
<!-- Node5 -->
<g id="node5" class="node"><title>Node5</title>
<polygon fill="white" stroke="#bfbfbf" points="475,-123.5 475,-142.5 516,-142.5 516,-123.5 475,-123.5"/>
<text text-anchor="middle" x="495.5" y="-130.5" font-family="Helvetica,sans-Serif" font-size="10.00">string</text>
</g>
<!-- Node4&#45;&gt;Node5 -->
<g id="edge4" class="edge"><title>Node4&#45;&gt;Node5</title>
<path fill="none" stroke="midnightblue" d="M412.412,-374.829C412.437,-351.487 414.248,-285.662 432.5,-235 444.171,-202.605 467.336,-169.596 482.09,-150.494"/>
<polygon fill="midnightblue" stroke="midnightblue" points="484.935,-152.538 488.388,-142.522 479.442,-148.199 484.935,-152.538"/>
</g>
<!-- Node6 -->
<g id="node6" class="node"><title>Node6</title>
<polygon fill="white" stroke="#bfbfbf" points="269.5,-308 269.5,-327 385.5,-327 385.5,-308 269.5,-308"/>
<text text-anchor="middle" x="327.5" y="-315" font-family="Helvetica,sans-Serif" font-size="10.00">boost/range/irange.hpp</text>
</g>
<!-- Node4&#45;&gt;Node6 -->
<g id="edge5" class="edge"><title>Node4&#45;&gt;Node6</title>
<path fill="none" stroke="midnightblue" d="M401.037,-374.734C387.145,-364.111 363.525,-346.049 346.807,-333.264"/>
<polygon fill="midnightblue" stroke="midnightblue" points="348.852,-330.422 338.782,-327.127 344.599,-335.982 348.852,-330.422"/>
</g>
<!-- Node7&#45;&gt;Node5 -->
<g id="edge8" class="edge"><title>Node7&#45;&gt;Node5</title>
<path fill="none" stroke="midnightblue" d="M348.324,-575.934C313.655,-558.191 241.5,-513.887 241.5,-452.5 241.5,-452.5 241.5,-452.5 241.5,-249.5 241.5,-152.477 396.972,-136.572 464.644,-134.244"/>
<polygon fill="midnightblue" stroke="midnightblue" points="464.811,-137.741 474.714,-133.977 464.625,-130.744 464.811,-137.741"/>
</g>
<!-- Node8 -->
<g id="node8" class="node"><title>Node8</title>
<polygon fill="white" stroke="#bfbfbf" points="337,-509 337,-528 396,-528 396,-509 337,-509"/>
<text text-anchor="middle" x="366.5" y="-516" font-family="Helvetica,sans-Serif" font-size="10.00">stdexcept</text>
</g>
<!-- Node7&#45;&gt;Node8 -->
<g id="edge7" class="edge"><title>Node7&#45;&gt;Node8</title>
<path fill="none" stroke="midnightblue" d="M366.5,-575.734C366.5,-566.183 366.5,-550.618 366.5,-538.283"/>
<polygon fill="midnightblue" stroke="midnightblue" points="370,-538.127 366.5,-528.127 363,-538.127 370,-538.127"/>
</g>
<!-- Node9&#45;&gt;Node9 -->
<g id="edge10" class="edge"><title>Node9&#45;&gt;Node9</title>
<path fill="none" stroke="midnightblue" d="M1957.7,-394.018C1989.38,-399.887 2025,-396.714 2025,-384.5 2025,-373.574 1996.5,-369.883 1967.81,-373.427"/>
<polygon fill="midnightblue" stroke="midnightblue" points="1967.05,-370.002 1957.7,-374.982 1968.11,-376.921 1967.05,-370.002"/>
</g>
<!-- Node10 -->
<g id="node10" class="node"><title>Node10</title>
<g id="a_node10"><a xlink:href="ElectronVolt_8hh.html" target="_top" xlink:title="boca/units/ElectronVolt.hh">
<polygon fill="white" stroke="black" points="1600,-67.5 1600,-86.5 1731,-86.5 1731,-67.5 1600,-67.5"/>
<text text-anchor="middle" x="1665.5" y="-74.5" font-family="Helvetica,sans-Serif" font-size="10.00">boca/units/ElectronVolt.hh</text>
</a>
</g>
</g>
<!-- Node9&#45;&gt;Node10 -->
<g id="edge11" class="edge"><title>Node9&#45;&gt;Node10</title>
<path fill="none" stroke="midnightblue" d="M1938.52,-374.905C1961.93,-355.585 2014.5,-306.119 2014.5,-251.5 2014.5,-251.5 2014.5,-251.5 2014.5,-188 2014.5,-131.13 1843.8,-100.003 1741.16,-86.4279"/>
<polygon fill="midnightblue" stroke="midnightblue" points="1741.51,-82.944 1731.14,-85.1299 1740.61,-89.8859 1741.51,-82.944"/>
</g>
<!-- Node11 -->
<g id="node11" class="node"><title>Node11</title>
<polygon fill="white" stroke="#bfbfbf" points="1355,-6 1355,-25 1512,-25 1512,-6 1355,-6"/>
<text text-anchor="middle" x="1433.5" y="-13" font-family="Helvetica,sans-Serif" font-size="10.00">boost/units/base_dimension.hpp</text>
</g>
<!-- Node10&#45;&gt;Node11 -->
<g id="edge12" class="edge"><title>Node10&#45;&gt;Node11</title>
<path fill="none" stroke="midnightblue" d="M1632.26,-67.4751C1591.26,-56.9595 1521.47,-39.0615 1476.45,-27.5142"/>
<polygon fill="midnightblue" stroke="midnightblue" points="1477.23,-24.1031 1466.68,-25.0091 1475.5,-30.8837 1477.23,-24.1031"/>
</g>
<!-- Node12 -->
<g id="node12" class="node"><title>Node12</title>
<polygon fill="white" stroke="#bfbfbf" points="1530.5,-6 1530.5,-25 1658.5,-25 1658.5,-6 1530.5,-6"/>
<text text-anchor="middle" x="1594.5" y="-13" font-family="Helvetica,sans-Serif" font-size="10.00">boost/units/base_unit.hpp</text>
</g>
<!-- Node10&#45;&gt;Node12 -->
<g id="edge13" class="edge"><title>Node10&#45;&gt;Node12</title>
<path fill="none" stroke="midnightblue" d="M1655.33,-67.4751C1644.15,-58.1082 1625.98,-42.8839 1612.41,-31.5081"/>
<polygon fill="midnightblue" stroke="midnightblue" points="1614.57,-28.7496 1604.65,-25.0091 1610.07,-34.1148 1614.57,-28.7496"/>
</g>
<!-- Node13 -->
<g id="node13" class="node"><title>Node13</title>
<polygon fill="white" stroke="#bfbfbf" points="1677,-6 1677,-25 1798,-25 1798,-6 1677,-6"/>
<text text-anchor="middle" x="1737.5" y="-13" font-family="Helvetica,sans-Serif" font-size="10.00">boost/units/quantity.hpp</text>
</g>
<!-- Node10&#45;&gt;Node13 -->
<g id="edge14" class="edge"><title>Node10&#45;&gt;Node13</title>
<path fill="none" stroke="midnightblue" d="M1675.82,-67.4751C1687.15,-58.1082 1705.57,-42.8839 1719.34,-31.5081"/>
<polygon fill="midnightblue" stroke="midnightblue" points="1721.72,-34.0773 1727.2,-25.0091 1717.27,-28.6813 1721.72,-34.0773"/>
</g>
<!-- Node14 -->
<g id="node14" class="node"><title>Node14</title>
<polygon fill="white" stroke="#bfbfbf" points="1816,-0.5 1816,-30.5 1921,-30.5 1921,-0.5 1816,-0.5"/>
<text text-anchor="start" x="1824" y="-18.5" font-family="Helvetica,sans-Serif" font-size="10.00">boost/units/systems</text>
<text text-anchor="middle" x="1868.5" y="-7.5" font-family="Helvetica,sans-Serif" font-size="10.00">/si/energy.hpp</text>
</g>
<!-- Node10&#45;&gt;Node14 -->
<g id="edge15" class="edge"><title>Node10&#45;&gt;Node14</title>
<path fill="none" stroke="midnightblue" d="M1694.58,-67.4751C1724.78,-58.6259 1772.8,-44.5487 1810.75,-33.4277"/>
<polygon fill="midnightblue" stroke="midnightblue" points="1812.05,-36.6944 1820.66,-30.523 1810.08,-29.977 1812.05,-36.6944"/>
</g>
<!-- Node16 -->
<g id="node16" class="node"><title>Node16</title>
<g id="a_node16"><a xlink:href="multiplets_2TwoBody_8hh.html" target="_top" xlink:title="boca/multiplets/TwoBody.hh">
<polygon fill="white" stroke="black" points="1226.5,-442 1226.5,-461 1366.5,-461 1366.5,-442 1226.5,-442"/>
<text text-anchor="middle" x="1296.5" y="-449" font-family="Helvetica,sans-Serif" font-size="10.00">boca/multiplets/TwoBody.hh</text>
</a>
</g>
</g>
<!-- Node15&#45;&gt;Node16 -->
<g id="edge17" class="edge"><title>Node15&#45;&gt;Node16</title>
<path fill="none" stroke="midnightblue" d="M1114.39,-508.869C1151.6,-497.351 1217.6,-476.922 1259.1,-464.077"/>
<polygon fill="midnightblue" stroke="midnightblue" points="1260.31,-467.364 1268.83,-461.064 1258.24,-460.677 1260.31,-467.364"/>
</g>
<!-- Node16&#45;&gt;Node9 -->
<g id="edge20" class="edge"><title>Node16&#45;&gt;Node9</title>
<path fill="none" stroke="midnightblue" d="M1366.53,-445.575C1470.14,-437.93 1670.24,-421.788 1839.5,-400 1849.29,-398.74 1859.66,-397.208 1869.72,-395.618"/>
<polygon fill="midnightblue" stroke="midnightblue" points="1870.32,-399.066 1879.63,-394.017 1869.2,-392.156 1870.32,-399.066"/>
</g>
<!-- Node17 -->
<g id="node17" class="node"><title>Node17</title>
<polygon fill="white" stroke="#bfbfbf" points="1054.5,-369.5 1054.5,-399.5 1164.5,-399.5 1164.5,-369.5 1054.5,-369.5"/>
<text text-anchor="start" x="1062.5" y="-387.5" font-family="Helvetica,sans-Serif" font-size="10.00">boost/range/algorithm</text>
<text text-anchor="middle" x="1109.5" y="-376.5" font-family="Helvetica,sans-Serif" font-size="10.00">/unique.hpp</text>
</g>
<!-- Node16&#45;&gt;Node17 -->
<g id="edge18" class="edge"><title>Node16&#45;&gt;Node17</title>
<path fill="none" stroke="midnightblue" d="M1271.67,-441.869C1243.24,-431.988 1195.95,-415.549 1159.75,-402.966"/>
<polygon fill="midnightblue" stroke="midnightblue" points="1160.45,-399.505 1149.86,-399.528 1158.15,-406.117 1160.45,-399.505"/>
</g>
<!-- Node18 -->
<g id="node18" class="node"><title>Node18</title>
<polygon fill="white" stroke="#bfbfbf" points="1182.5,-369.5 1182.5,-399.5 1292.5,-399.5 1292.5,-369.5 1182.5,-369.5"/>
<text text-anchor="start" x="1190.5" y="-387.5" font-family="Helvetica,sans-Serif" font-size="10.00">boost/range/algorithm</text>
<text text-anchor="middle" x="1237.5" y="-376.5" font-family="Helvetica,sans-Serif" font-size="10.00">_ext/erase.hpp</text>
</g>
<!-- Node16&#45;&gt;Node18 -->
<g id="edge19" class="edge"><title>Node16&#45;&gt;Node18</title>
<path fill="none" stroke="midnightblue" d="M1288.54,-441.734C1280.57,-432.949 1267.98,-419.078 1257.3,-407.311"/>
<polygon fill="midnightblue" stroke="midnightblue" points="1259.6,-404.641 1250.29,-399.589 1254.42,-409.346 1259.6,-404.641"/>
</g>
<!-- Node19 -->
<g id="node19" class="node"><title>Node19</title>
<g id="a_node19"><a xlink:href="generic_2Vector_8hh.html" target="_top" xlink:title="boca/generic/Vector.hh">
<polygon fill="white" stroke="red" points="1713,-375 1713,-394 1830,-394 1830,-375 1713,-375"/>
<text text-anchor="middle" x="1771.5" y="-382" font-family="Helvetica,sans-Serif" font-size="10.00">boca/generic/Vector.hh</text>
</a>
</g>
</g>
<!-- Node16&#45;&gt;Node19 -->
<g id="edge21" class="edge"><title>Node16&#45;&gt;Node19</title>
<path fill="none" stroke="midnightblue" d="M1366.63,-443.665C1447.95,-435.307 1585.89,-419.797 1703.5,-400 1710.22,-398.869 1717.28,-397.532 1724.2,-396.135"/>
<polygon fill="midnightblue" stroke="midnightblue" points="1725.12,-399.52 1734.2,-394.062 1723.7,-392.666 1725.12,-399.52"/>
</g>
<!-- Node24 -->
<g id="node24" class="node"><title>Node24</title>
<g id="a_node24"><a xlink:href="Multiplet_8hh.html" target="_top" xlink:title="boca/multiplets/Multiplet.hh">
<polygon fill="white" stroke="red" points="1418.5,-375 1418.5,-394 1554.5,-394 1554.5,-375 1418.5,-375"/>
<text text-anchor="middle" x="1486.5" y="-382" font-family="Helvetica,sans-Serif" font-size="10.00">boca/multiplets/Multiplet.hh</text>
</a>
</g>
</g>
<!-- Node16&#45;&gt;Node24 -->
<g id="edge26" class="edge"><title>Node16&#45;&gt;Node24</title>
<path fill="none" stroke="midnightblue" d="M1321.73,-441.869C1355.18,-430.424 1414.36,-410.181 1451.94,-397.322"/>
<polygon fill="midnightblue" stroke="midnightblue" points="1453.14,-400.612 1461.47,-394.064 1450.87,-393.989 1453.14,-400.612"/>
</g>
<!-- Node29 -->
<g id="node29" class="node"><title>Node29</title>
<g id="a_node29"><a xlink:href="Sort_8hh.html" target="_top" xlink:title="boca/fastjet/Sort.hh">
<polygon fill="white" stroke="red" points="656.5,-375 656.5,-394 758.5,-394 758.5,-375 656.5,-375"/>
<text text-anchor="middle" x="707.5" y="-382" font-family="Helvetica,sans-Serif" font-size="10.00">boca/fastjet/Sort.hh</text>
</a>
</g>
</g>
<!-- Node16&#45;&gt;Node29 -->
<g id="edge34" class="edge"><title>Node16&#45;&gt;Node29</title>
<path fill="none" stroke="midnightblue" d="M1226.2,-447.074C1124.29,-441.369 929.85,-427.702 766.5,-400 760.637,-399.006 754.496,-397.746 748.482,-396.386"/>
<polygon fill="midnightblue" stroke="midnightblue" points="749.092,-392.934 738.554,-394.033 747.477,-399.745 749.092,-392.934"/>
</g>
<!-- Node32 -->
<g id="node32" class="node"><title>Node32</title>
<g id="a_node32"><a xlink:href="Settings_8hh.html" target="_top" xlink:title="boca/Settings.hh">
<polygon fill="white" stroke="red" points="1310.5,-375 1310.5,-394 1400.5,-394 1400.5,-375 1310.5,-375"/>
<text text-anchor="middle" x="1355.5" y="-382" font-family="Helvetica,sans-Serif" font-size="10.00">boca/Settings.hh</text>
</a>
</g>
</g>
<!-- Node16&#45;&gt;Node32 -->
<g id="edge39" class="edge"><title>Node16&#45;&gt;Node32</title>
<path fill="none" stroke="midnightblue" d="M1304.46,-441.734C1313.75,-431.5 1329.3,-414.364 1340.8,-401.692"/>
<polygon fill="midnightblue" stroke="midnightblue" points="1343.54,-403.884 1347.67,-394.127 1338.36,-399.179 1343.54,-403.884"/>
</g>
<!-- Node20 -->
<g id="node20" class="node"><title>Node20</title>
<polygon fill="white" stroke="#bfbfbf" points="1476.5,-302.5 1476.5,-332.5 1586.5,-332.5 1586.5,-302.5 1476.5,-302.5"/>
<text text-anchor="start" x="1484.5" y="-320.5" font-family="Helvetica,sans-Serif" font-size="10.00">boost/range/algorithm</text>
<text text-anchor="middle" x="1531.5" y="-309.5" font-family="Helvetica,sans-Serif" font-size="10.00">/find.hpp</text>
</g>
<!-- Node19&#45;&gt;Node20 -->
<g id="edge22" class="edge"><title>Node19&#45;&gt;Node20</title>
<path fill="none" stroke="midnightblue" d="M1739.63,-374.869C1702.37,-364.777 1639.85,-347.844 1593.03,-335.165"/>
<polygon fill="midnightblue" stroke="midnightblue" points="1593.86,-331.764 1583.3,-332.528 1592.03,-338.521 1593.86,-331.764"/>
</g>
<!-- Node21 -->
<g id="node21" class="node"><title>Node21</title>
<polygon fill="white" stroke="#bfbfbf" points="1604.5,-302.5 1604.5,-332.5 1714.5,-332.5 1714.5,-302.5 1604.5,-302.5"/>
<text text-anchor="start" x="1612.5" y="-320.5" font-family="Helvetica,sans-Serif" font-size="10.00">boost/range/algorithm</text>
<text text-anchor="middle" x="1659.5" y="-309.5" font-family="Helvetica,sans-Serif" font-size="10.00">/min_element.hpp</text>
</g>
<!-- Node19&#45;&gt;Node21 -->
<g id="edge23" class="edge"><title>Node19&#45;&gt;Node21</title>
<path fill="none" stroke="midnightblue" d="M1756.4,-374.734C1740.09,-365.274 1713.63,-349.914 1692.47,-337.636"/>
<polygon fill="midnightblue" stroke="midnightblue" points="1694.18,-334.581 1683.78,-332.589 1690.67,-340.636 1694.18,-334.581"/>
</g>
<!-- Node22 -->
<g id="node22" class="node"><title>Node22</title>
<polygon fill="white" stroke="#bfbfbf" points="1732.5,-302.5 1732.5,-332.5 1842.5,-332.5 1842.5,-302.5 1732.5,-302.5"/>
<text text-anchor="start" x="1740.5" y="-320.5" font-family="Helvetica,sans-Serif" font-size="10.00">boost/range/algorithm</text>
<text text-anchor="middle" x="1787.5" y="-309.5" font-family="Helvetica,sans-Serif" font-size="10.00">_ext/push_back.hpp</text>
</g>
<!-- Node19&#45;&gt;Node22 -->
<g id="edge24" class="edge"><title>Node19&#45;&gt;Node22</title>
<path fill="none" stroke="midnightblue" d="M1773.66,-374.734C1775.7,-366.456 1778.84,-353.662 1781.62,-342.367"/>
<polygon fill="midnightblue" stroke="midnightblue" points="1785.04,-343.136 1784.03,-332.589 1778.24,-341.463 1785.04,-343.136"/>
</g>
<!-- Node23 -->
<g id="node23" class="node"><title>Node23</title>
<polygon fill="white" stroke="#bfbfbf" points="1860.5,-302.5 1860.5,-332.5 1970.5,-332.5 1970.5,-302.5 1860.5,-302.5"/>
<text text-anchor="start" x="1868.5" y="-320.5" font-family="Helvetica,sans-Serif" font-size="10.00">boost/range/algorithm</text>
<text text-anchor="middle" x="1915.5" y="-309.5" font-family="Helvetica,sans-Serif" font-size="10.00">/transform.hpp</text>
</g>
<!-- Node19&#45;&gt;Node23 -->
<g id="edge25" class="edge"><title>Node19&#45;&gt;Node23</title>
<path fill="none" stroke="midnightblue" d="M1790.62,-374.869C1812.04,-365.199 1847.38,-349.249 1875.01,-336.778"/>
<polygon fill="midnightblue" stroke="midnightblue" points="1876.75,-339.832 1884.42,-332.528 1873.87,-333.452 1876.75,-339.832"/>
</g>
<!-- Node25 -->
<g id="node25" class="node"><title>Node25</title>
<g id="a_node25"><a xlink:href="fastjet_2Particle_8hh.html" target="_top" xlink:title="boca/fastjet/Particle.hh">
<polygon fill="white" stroke="black" points="1188,-308 1188,-327 1305,-327 1305,-308 1188,-308"/>
<text text-anchor="middle" x="1246.5" y="-315" font-family="Helvetica,sans-Serif" font-size="10.00">boca/fastjet/Particle.hh</text>
</a>
</g>
</g>
<!-- Node24&#45;&gt;Node25 -->
<g id="edge27" class="edge"><title>Node24&#45;&gt;Node25</title>
<path fill="none" stroke="midnightblue" d="M1454.63,-374.869C1411.75,-363.254 1335.39,-342.576 1288.05,-329.753"/>
<polygon fill="midnightblue" stroke="midnightblue" points="1288.69,-326.3 1278.12,-327.064 1286.86,-333.056 1288.69,-326.3"/>
</g>
<!-- Node26 -->
<g id="node26" class="node"><title>Node26</title>
<g id="a_node26"><a xlink:href="PseudoJet_8hh.html" target="_top" xlink:title="boca/fastjet/PseudoJet.hh">
<polygon fill="white" stroke="red" points="1086,-179.5 1086,-198.5 1217,-198.5 1217,-179.5 1086,-179.5"/>
<text text-anchor="middle" x="1151.5" y="-186.5" font-family="Helvetica,sans-Serif" font-size="10.00">boca/fastjet/PseudoJet.hh</text>
</a>
</g>
</g>
<!-- Node25&#45;&gt;Node26 -->
<g id="edge28" class="edge"><title>Node25&#45;&gt;Node26</title>
<path fill="none" stroke="midnightblue" d="M1225.59,-307.845C1208.26,-299.601 1184.29,-285.543 1170.5,-266 1158.52,-249.027 1154.07,-225.251 1152.43,-208.833"/>
<polygon fill="midnightblue" stroke="midnightblue" points="1155.92,-208.53 1151.69,-198.817 1148.94,-209.048 1155.92,-208.53"/>
</g>
<!-- Node28 -->
<g id="node28" class="node"><title>Node28</title>
<g id="a_node28"><a xlink:href="ParticleInfo_8hh.html" target="_top" xlink:title="boca/fastjet/ParticleInfo.hh">
<polygon fill="white" stroke="red" points="1179.5,-241 1179.5,-260 1313.5,-260 1313.5,-241 1179.5,-241"/>
<text text-anchor="middle" x="1246.5" y="-248" font-family="Helvetica,sans-Serif" font-size="10.00">boca/fastjet/ParticleInfo.hh</text>
</a>
</g>
</g>
<!-- Node25&#45;&gt;Node28 -->
<g id="edge32" class="edge"><title>Node25&#45;&gt;Node28</title>
<path fill="none" stroke="midnightblue" d="M1246.5,-307.734C1246.5,-298.183 1246.5,-282.618 1246.5,-270.283"/>
<polygon fill="midnightblue" stroke="midnightblue" points="1250,-270.127 1246.5,-260.127 1243,-270.127 1250,-270.127"/>
</g>
<!-- Node26&#45;&gt;Node26 -->
<g id="edge29" class="edge"><title>Node26&#45;&gt;Node26</title>
<path fill="none" stroke="midnightblue" d="M1187.11,-198.525C1211.31,-201.308 1235,-198.133 1235,-189 1235,-181.151 1217.51,-177.703 1197.23,-178.654"/>
<polygon fill="midnightblue" stroke="midnightblue" points="1196.8,-175.178 1187.11,-179.475 1197.36,-182.155 1196.8,-175.178"/>
</g>
<!-- Node27 -->
<g id="node27" class="node"><title>Node27</title>
<g id="a_node27"><a xlink:href="Prefixes_8hh.html" target="_top" xlink:title="boca/units/Prefixes.hh">
<polygon fill="white" stroke="red" points="1523.5,-123.5 1523.5,-142.5 1637.5,-142.5 1637.5,-123.5 1523.5,-123.5"/>
<text text-anchor="middle" x="1580.5" y="-130.5" font-family="Helvetica,sans-Serif" font-size="10.00">boca/units/Prefixes.hh</text>
</a>
</g>
</g>
<!-- Node26&#45;&gt;Node27 -->
<g id="edge30" class="edge"><title>Node26&#45;&gt;Node27</title>
<path fill="none" stroke="midnightblue" d="M1217.12,-179.74C1297.37,-169.639 1432.47,-152.634 1513.38,-142.448"/>
<polygon fill="midnightblue" stroke="midnightblue" points="1513.98,-145.901 1523.46,-141.18 1513.1,-138.956 1513.98,-145.901"/>
</g>
<!-- Node27&#45;&gt;Node10 -->
<g id="edge31" class="edge"><title>Node27&#45;&gt;Node10</title>
<path fill="none" stroke="midnightblue" d="M1594.16,-123.324C1607.42,-114.9 1627.77,-101.971 1643.35,-92.0741"/>
<polygon fill="midnightblue" stroke="midnightblue" points="1645.31,-94.9711 1651.88,-86.6545 1641.56,-89.0626 1645.31,-94.9711"/>
</g>
<!-- Node28&#45;&gt;Node26 -->
<g id="edge33" class="edge"><title>Node28&#45;&gt;Node26</title>
<path fill="none" stroke="midnightblue" d="M1232.89,-240.975C1217.44,-231.299 1192.01,-215.372 1173.68,-203.894"/>
<polygon fill="midnightblue" stroke="midnightblue" points="1175.42,-200.851 1165.09,-198.509 1171.7,-206.783 1175.42,-200.851"/>
</g>
<!-- Node30 -->
<g id="node30" class="node"><title>Node30</title>
<g id="a_node30"><a xlink:href="Id_8hh.html" target="_top" xlink:title="boca/identification\l/Id.hh">
<polygon fill="white" stroke="black" points="1344,-235.5 1344,-265.5 1439,-265.5 1439,-235.5 1344,-235.5"/>
<text text-anchor="start" x="1352" y="-253.5" font-family="Helvetica,sans-Serif" font-size="10.00">boca/identification</text>
<text text-anchor="middle" x="1391.5" y="-242.5" font-family="Helvetica,sans-Serif" font-size="10.00">/Id.hh</text>
</a>
</g>
</g>
<!-- Node29&#45;&gt;Node30 -->
<g id="edge35" class="edge"><title>Node29&#45;&gt;Node30</title>
<path fill="none" stroke="midnightblue" d="M712.995,-374.84C724.632,-357.375 753.658,-318.217 789.5,-302 897.659,-253.064 1204.9,-282.247 1322.5,-266 1326.17,-265.493 1329.94,-264.903 1333.73,-264.256"/>
<polygon fill="midnightblue" stroke="midnightblue" points="1334.56,-267.664 1343.77,-262.433 1333.3,-260.777 1334.56,-267.664"/>
</g>
<!-- Node30&#45;&gt;Node5 -->
<g id="edge36" class="edge"><title>Node30&#45;&gt;Node5</title>
<path fill="none" stroke="midnightblue" d="M1369.14,-235.361C1341.2,-218.52 1291.35,-191.143 1244.5,-179 1105.41,-142.952 649.888,-135.615 526.539,-134.276"/>
<polygon fill="midnightblue" stroke="midnightblue" points="526.332,-130.773 516.297,-134.17 526.26,-137.773 526.332,-130.773"/>
</g>
<!-- Node30&#45;&gt;Node10 -->
<g id="edge38" class="edge"><title>Node30&#45;&gt;Node10</title>
<path fill="none" stroke="midnightblue" d="M1439.08,-242.297C1496.4,-231.124 1591.8,-204.147 1646.5,-143 1657.88,-130.278 1662.46,-111.079 1664.3,-96.842"/>
<polygon fill="midnightblue" stroke="midnightblue" points="1667.8,-96.9921 1665.26,-86.7065 1660.83,-96.3318 1667.8,-96.9921"/>
</g>
<!-- Node31 -->
<g id="node31" class="node"><title>Node31</title>
<polygon fill="white" stroke="#bfbfbf" points="940.5,-123.5 940.5,-142.5 984.5,-142.5 984.5,-123.5 940.5,-123.5"/>
<text text-anchor="middle" x="962.5" y="-130.5" font-family="Helvetica,sans-Serif" font-size="10.00">vector</text>
</g>
<!-- Node30&#45;&gt;Node31 -->
<g id="edge37" class="edge"><title>Node30&#45;&gt;Node31</title>
<path fill="none" stroke="midnightblue" d="M1378.2,-235.411C1361.69,-218.889 1331.85,-192.097 1300.5,-179 1245.57,-156.053 1068.35,-141.388 994.879,-136.154"/>
<polygon fill="midnightblue" stroke="midnightblue" points="995.038,-132.657 984.818,-135.451 994.55,-139.64 995.038,-132.657"/>
</g>
<!-- Node33&#45;&gt;Node25 -->
<g id="edge41" class="edge"><title>Node33&#45;&gt;Node25</title>
<path fill="none" stroke="midnightblue" d="M1593.95,-374.975C1584.03,-372.927 1573.39,-370.811 1563.5,-369 1478.17,-353.373 1379.39,-338.078 1315.08,-328.489"/>
<polygon fill="midnightblue" stroke="midnightblue" points="1315.47,-325.008 1305.06,-327 1314.44,-331.932 1315.47,-325.008"/>
</g>
<!-- Node33&#45;&gt;Node30 -->
<g id="edge42" class="edge"><title>Node33&#45;&gt;Node30</title>
<path fill="none" stroke="midnightblue" d="M1597.61,-374.912C1555.69,-364.481 1489.29,-346.593 1467.5,-333 1442.96,-317.687 1421.15,-292.456 1407.27,-274.119"/>
<polygon fill="midnightblue" stroke="midnightblue" points="1409.85,-271.726 1401.11,-265.744 1404.21,-275.874 1409.85,-271.726"/>
</g>
<!-- Node34&#45;&gt;Node25 -->
<g id="edge58" class="edge"><title>Node34&#45;&gt;Node25</title>
<path fill="none" stroke="midnightblue" d="M869.779,-443.934C907.045,-436.756 963.203,-423.082 1007.5,-400 1026.83,-389.928 1026.02,-378.778 1045.5,-369 1087,-348.167 1137.75,-335.505 1177.86,-328.069"/>
<polygon fill="midnightblue" stroke="midnightblue" points="1178.59,-331.494 1187.82,-326.29 1177.36,-324.604 1178.59,-331.494"/>
</g>
<!-- Node35 -->
<g id="node35" class="node"><title>Node35</title>
<polygon fill="white" stroke="#bfbfbf" points="603,-375 603,-394 638,-394 638,-375 603,-375"/>
<text text-anchor="middle" x="620.5" y="-382" font-family="Helvetica,sans-Serif" font-size="10.00">map</text>
</g>
<!-- Node34&#45;&gt;Node35 -->
<g id="edge44" class="edge"><title>Node34&#45;&gt;Node35</title>
<path fill="none" stroke="midnightblue" d="M789.253,-442.045C751.804,-433.547 694.819,-418.996 647.5,-400 646.463,-399.584 645.415,-399.138 644.363,-398.671"/>
<polygon fill="midnightblue" stroke="midnightblue" points="645.586,-395.372 635.07,-394.086 642.489,-401.649 645.586,-395.372"/>
</g>
<!-- Node36 -->
<g id="node36" class="node"><title>Node36</title>
<g id="a_node36"><a xlink:href="Mutable_8hh.html" target="_top" xlink:title="boca/generic/Mutable.hh">
<polygon fill="white" stroke="black" points="613,-241 613,-260 736,-260 736,-241 613,-241"/>
<text text-anchor="middle" x="674.5" y="-248" font-family="Helvetica,sans-Serif" font-size="10.00">boca/generic/Mutable.hh</text>
</a>
</g>
</g>
<!-- Node34&#45;&gt;Node36 -->
<g id="edge45" class="edge"><title>Node34&#45;&gt;Node36</title>
<path fill="none" stroke="midnightblue" d="M789.253,-447.836C728.448,-442.878 617.673,-429.892 593.5,-400 558.092,-356.214 621.171,-294.707 655.064,-266.592"/>
<polygon fill="midnightblue" stroke="midnightblue" points="657.399,-269.205 662.974,-260.195 652.998,-263.762 657.399,-269.205"/>
</g>
<!-- Node40 -->
<g id="node40" class="node"><title>Node40</title>
<g id="a_node40"><a xlink:href="Flag_8hh.html" target="_top" xlink:title="boca/generic/Flag.hh">
<polygon fill="white" stroke="black" points="776,-375 776,-394 883,-394 883,-375 776,-375"/>
<text text-anchor="middle" x="829.5" y="-382" font-family="Helvetica,sans-Serif" font-size="10.00">boca/generic/Flag.hh</text>
</a>
</g>
</g>
<!-- Node34&#45;&gt;Node40 -->
<g id="edge51" class="edge"><title>Node34&#45;&gt;Node40</title>
<path fill="none" stroke="midnightblue" d="M829.5,-441.734C829.5,-432.183 829.5,-416.618 829.5,-404.283"/>
<polygon fill="midnightblue" stroke="midnightblue" points="833,-404.127 829.5,-394.127 826,-404.127 833,-404.127"/>
</g>
<!-- Node42 -->
<g id="node42" class="node"><title>Node42</title>
<g id="a_node42"><a xlink:href="Jet_8hh.html" target="_top" xlink:title="boca/fastjet/Jet.hh">
<polygon fill="white" stroke="black" points="900.5,-375 900.5,-394 998.5,-394 998.5,-375 900.5,-375"/>
<text text-anchor="middle" x="949.5" y="-382" font-family="Helvetica,sans-Serif" font-size="10.00">boca/fastjet/Jet.hh</text>
</a>
</g>
</g>
<!-- Node34&#45;&gt;Node42 -->
<g id="edge53" class="edge"><title>Node34&#45;&gt;Node42</title>
<path fill="none" stroke="midnightblue" d="M845.684,-441.734C865.926,-430.769 900.797,-411.881 924.486,-399.049"/>
<polygon fill="midnightblue" stroke="midnightblue" points="926.447,-401.968 933.573,-394.127 923.113,-395.813 926.447,-401.968"/>
</g>
<!-- Node37 -->
<g id="node37" class="node"><title>Node37</title>
<polygon fill="white" stroke="#bfbfbf" points="712,-179.5 712,-198.5 771,-198.5 771,-179.5 712,-179.5"/>
<text text-anchor="middle" x="741.5" y="-186.5" font-family="Helvetica,sans-Serif" font-size="10.00">functional</text>
</g>
<!-- Node36&#45;&gt;Node37 -->
<g id="edge46" class="edge"><title>Node36&#45;&gt;Node37</title>
<path fill="none" stroke="midnightblue" d="M684.099,-240.975C694.548,-231.697 711.468,-216.671 724.236,-205.331"/>
<polygon fill="midnightblue" stroke="midnightblue" points="726.765,-207.766 731.918,-198.509 722.117,-202.532 726.765,-207.766"/>
</g>
<!-- Node38 -->
<g id="node38" class="node"><title>Node38</title>
<g id="a_node38"><a xlink:href="Debug_8hh.html" target="_top" xlink:title="boca/generic/Debug.hh">
<polygon fill="white" stroke="red" points="520,-179.5 520,-198.5 637,-198.5 637,-179.5 520,-179.5"/>
<text text-anchor="middle" x="578.5" y="-186.5" font-family="Helvetica,sans-Serif" font-size="10.00">boca/generic/Debug.hh</text>
</a>
</g>
</g>
<!-- Node36&#45;&gt;Node38 -->
<g id="edge47" class="edge"><title>Node36&#45;&gt;Node38</title>
<path fill="none" stroke="midnightblue" d="M660.746,-240.975C645.134,-231.299 619.437,-215.372 600.917,-203.894"/>
<polygon fill="midnightblue" stroke="midnightblue" points="602.573,-200.802 592.229,-198.509 598.885,-206.752 602.573,-200.802"/>
</g>
<!-- Node39 -->
<g id="node39" class="node"><title>Node39</title>
<polygon fill="white" stroke="#bfbfbf" points="655.5,-179.5 655.5,-198.5 693.5,-198.5 693.5,-179.5 655.5,-179.5"/>
<text text-anchor="middle" x="674.5" y="-186.5" font-family="Helvetica,sans-Serif" font-size="10.00">array</text>
</g>
<!-- Node36&#45;&gt;Node39 -->
<g id="edge50" class="edge"><title>Node36&#45;&gt;Node39</title>
<path fill="none" stroke="midnightblue" d="M674.5,-240.975C674.5,-232.58 674.5,-219.481 674.5,-208.663"/>
<polygon fill="midnightblue" stroke="midnightblue" points="678,-208.509 674.5,-198.509 671,-208.509 678,-208.509"/>
</g>
<!-- Node38&#45;&gt;Node5 -->
<g id="edge48" class="edge"><title>Node38&#45;&gt;Node5</title>
<path fill="none" stroke="midnightblue" d="M565.165,-179.324C552.338,-170.979 532.715,-158.212 517.56,-148.352"/>
<polygon fill="midnightblue" stroke="midnightblue" points="519.093,-145.174 508.802,-142.655 515.276,-151.042 519.093,-145.174"/>
</g>
<!-- Node38&#45;&gt;Node31 -->
<g id="edge49" class="edge"><title>Node38&#45;&gt;Node31</title>
<path fill="none" stroke="midnightblue" d="M637.239,-179.74C719.434,-168.181 865.923,-147.581 930.461,-138.505"/>
<polygon fill="midnightblue" stroke="midnightblue" points="931.038,-141.959 940.453,-137.1 930.063,-135.027 931.038,-141.959"/>
</g>
<!-- Node41 -->
<g id="node41" class="node"><title>Node41</title>
<polygon fill="white" stroke="#bfbfbf" points="798.5,-308 798.5,-327 860.5,-327 860.5,-308 798.5,-308"/>
<text text-anchor="middle" x="829.5" y="-315" font-family="Helvetica,sans-Serif" font-size="10.00">type_traits</text>
</g>
<!-- Node40&#45;&gt;Node41 -->
<g id="edge52" class="edge"><title>Node40&#45;&gt;Node41</title>
<path fill="none" stroke="midnightblue" d="M829.5,-374.734C829.5,-365.183 829.5,-349.618 829.5,-337.283"/>
<polygon fill="midnightblue" stroke="midnightblue" points="833,-337.127 829.5,-327.127 826,-337.127 833,-337.127"/>
</g>
<!-- Node42&#45;&gt;Node26 -->
<g id="edge54" class="edge"><title>Node42&#45;&gt;Node26</title>
<path fill="none" stroke="midnightblue" d="M962.125,-374.747C975.761,-365.089 997.897,-348.811 1015.5,-333 1063.11,-290.238 1113.65,-233.749 1137.49,-206.33"/>
<polygon fill="midnightblue" stroke="midnightblue" points="1140.37,-208.357 1144.26,-198.503 1135.07,-203.778 1140.37,-208.357"/>
</g>
<!-- Node43 -->
<g id="node43" class="node"><title>Node43</title>
<g id="a_node43"><a xlink:href="JetInfo_8hh.html" target="_top" xlink:title="boca/fastjet/JetInfo.hh">
<polygon fill="white" stroke="red" points="892.5,-308 892.5,-327 1006.5,-327 1006.5,-308 892.5,-308"/>
<text text-anchor="middle" x="949.5" y="-315" font-family="Helvetica,sans-Serif" font-size="10.00">boca/fastjet/JetInfo.hh</text>
</a>
</g>
</g>
<!-- Node42&#45;&gt;Node43 -->
<g id="edge55" class="edge"><title>Node42&#45;&gt;Node43</title>
<path fill="none" stroke="midnightblue" d="M949.5,-374.734C949.5,-365.183 949.5,-349.618 949.5,-337.283"/>
<polygon fill="midnightblue" stroke="midnightblue" points="953,-337.127 949.5,-327.127 946,-337.127 953,-337.127"/>
</g>
<!-- Node43&#45;&gt;Node26 -->
<g id="edge56" class="edge"><title>Node43&#45;&gt;Node26</title>
<path fill="none" stroke="midnightblue" d="M963.384,-307.805C997.775,-286.269 1087.16,-230.295 1129.12,-204.014"/>
<polygon fill="midnightblue" stroke="midnightblue" points="1131.17,-206.862 1137.79,-198.588 1127.45,-200.93 1131.17,-206.862"/>
</g>
<!-- Node43&#45;&gt;Node36 -->
<g id="edge57" class="edge"><title>Node43&#45;&gt;Node36</title>
<path fill="none" stroke="midnightblue" d="M913.266,-307.936C863.802,-296.244 775.107,-275.28 720.855,-262.457"/>
<polygon fill="midnightblue" stroke="midnightblue" points="721.351,-258.978 710.814,-260.083 719.741,-265.79 721.351,-258.978"/>
</g>
<!-- Node44&#45;&gt;Node19 -->
<g id="edge60" class="edge"><title>Node44&#45;&gt;Node19</title>
<path fill="none" stroke="midnightblue" d="M1881.12,-436.396C1856.67,-425.041 1822.59,-409.22 1798.95,-398.244"/>
<polygon fill="midnightblue" stroke="midnightblue" points="1800.37,-395.044 1789.82,-394.007 1797.42,-401.393 1800.37,-395.044"/>
</g>
<!-- Node44&#45;&gt;Node27 -->
<g id="edge61" class="edge"><title>Node44&#45;&gt;Node27</title>
<path fill="none" stroke="midnightblue" d="M1966.54,-445.685C1996.94,-439.886 2032.34,-427.276 2051.5,-400 2076.23,-364.795 2013.34,-303.56 2011.5,-302 1900.36,-207.983 1730.52,-162.879 1640.83,-144.556"/>
<polygon fill="midnightblue" stroke="midnightblue" points="1641.32,-141.084 1630.83,-142.556 1639.95,-147.948 1641.32,-141.084"/>
</g>
<!-- Node44&#45;&gt;Node30 -->
<g id="edge62" class="edge"><title>Node44&#45;&gt;Node30</title>
<path fill="none" stroke="midnightblue" d="M1966.65,-442.108C1991.78,-435.228 2019.27,-422.721 2034.5,-400 2064.01,-355.981 1979.95,-302.235 1979.5,-302 1888.58,-254.137 1579.2,-250.274 1449.48,-250.846"/>
<polygon fill="midnightblue" stroke="midnightblue" points="1449.32,-247.346 1439.34,-250.901 1449.36,-254.346 1449.32,-247.346"/>
</g>
<!-- Node45&#45;&gt;Node15 -->
<g id="edge68" class="edge"><title>Node45&#45;&gt;Node15</title>
<path fill="none" stroke="midnightblue" d="M817.829,-573.4C878.312,-561.266 974.505,-541.968 1033.89,-530.054"/>
<polygon fill="midnightblue" stroke="midnightblue" points="1034.7,-533.462 1043.81,-528.064 1033.32,-526.599 1034.7,-533.462"/>
</g>
<!-- Node46 -->
<g id="node46" class="node"><title>Node46</title>
<g id="a_node46"><a xlink:href="boca_2tagger_2Tagger_8hh.html" target="_top" xlink:title="boca/tagger/Tagger.hh">
<polygon fill="white" stroke="red" points="526.5,-442 526.5,-461 640.5,-461 640.5,-442 526.5,-442"/>
<text text-anchor="middle" x="583.5" y="-449" font-family="Helvetica,sans-Serif" font-size="10.00">boca/tagger/Tagger.hh</text>
</a>
</g>
</g>
<!-- Node45&#45;&gt;Node46 -->
<g id="edge64" class="edge"><title>Node45&#45;&gt;Node46</title>
<path fill="none" stroke="midnightblue" d="M707.26,-578.671C652.466,-571.614 574.064,-557.637 555.5,-534 540.47,-514.863 555.841,-487.144 569.05,-469.474"/>
<polygon fill="midnightblue" stroke="midnightblue" points="572.106,-471.254 575.588,-461.248 566.626,-466.899 572.106,-471.254"/>
</g>
<!-- Node47 -->
<g id="node47" class="node"><title>Node47</title>
<g id="a_node47"><a xlink:href="Reader_8hh.html" target="_top" xlink:title="boca/multivariant/Reader.hh">
<polygon fill="white" stroke="red" points="693,-509 693,-528 832,-528 832,-509 693,-509"/>
<text text-anchor="middle" x="762.5" y="-516" font-family="Helvetica,sans-Serif" font-size="10.00">boca/multivariant/Reader.hh</text>
</a>
</g>
</g>
<!-- Node45&#45;&gt;Node47 -->
<g id="edge69" class="edge"><title>Node45&#45;&gt;Node47</title>
<path fill="none" stroke="midnightblue" d="M762.5,-570.396C762.5,-561.064 762.5,-548.714 762.5,-538.517"/>
<polygon fill="midnightblue" stroke="midnightblue" points="766,-538.195 762.5,-528.195 759,-538.195 766,-538.195"/>
</g>
<!-- Node48 -->
<g id="node48" class="node"><title>Node48</title>
<g id="a_node48"><a xlink:href="tagger_2Bottom_8hh.html" target="_top" xlink:title="standardmodel/tagger\l/Bottom.hh">
<polygon fill="white" stroke="red" points="564.5,-503.5 564.5,-533.5 674.5,-533.5 674.5,-503.5 564.5,-503.5"/>
<text text-anchor="start" x="572.5" y="-521.5" font-family="Helvetica,sans-Serif" font-size="10.00">standardmodel/tagger</text>
<text text-anchor="middle" x="619.5" y="-510.5" font-family="Helvetica,sans-Serif" font-size="10.00">/Bottom.hh</text>
</a>
</g>
</g>
<!-- Node45&#45;&gt;Node48 -->
<g id="edge71" class="edge"><title>Node45&#45;&gt;Node48</title>
<path fill="none" stroke="midnightblue" d="M731.471,-570.396C710.483,-560.856 682.559,-548.163 659.847,-537.84"/>
<polygon fill="midnightblue" stroke="midnightblue" points="661.02,-534.528 650.468,-533.577 658.124,-540.901 661.02,-534.528"/>
</g>
<!-- Node49 -->
<g id="node49" class="node"><title>Node49</title>
<g id="a_node49"><a xlink:href="standardmodel_2standardmodel_2branch_2Higgs_8hh.html" target="_top" xlink:title="standardmodel/branch\l/Higgs.hh">
<polygon fill="white" stroke="red" points="850,-503.5 850,-533.5 963,-533.5 963,-503.5 850,-503.5"/>
<text text-anchor="start" x="858" y="-521.5" font-family="Helvetica,sans-Serif" font-size="10.00">standardmodel/branch</text>
<text text-anchor="middle" x="906.5" y="-510.5" font-family="Helvetica,sans-Serif" font-size="10.00">/Higgs.hh</text>
</a>
</g>
</g>
<!-- Node45&#45;&gt;Node49 -->
<g id="edge73" class="edge"><title>Node45&#45;&gt;Node49</title>
<path fill="none" stroke="midnightblue" d="M793.746,-570.396C814.975,-560.814 843.251,-548.05 866.177,-537.702"/>
<polygon fill="midnightblue" stroke="midnightblue" points="867.641,-540.881 875.315,-533.577 864.761,-534.501 867.641,-540.881"/>
</g>
<!-- Node46&#45;&gt;Node4 -->
<g id="edge65" class="edge"><title>Node46&#45;&gt;Node4</title>
<path fill="none" stroke="midnightblue" d="M560.793,-441.869C530.942,-430.522 478.334,-410.525 444.47,-397.652"/>
<polygon fill="midnightblue" stroke="midnightblue" points="445.62,-394.345 435.029,-394.064 443.133,-400.888 445.62,-394.345"/>
</g>
<!-- Node46&#45;&gt;Node29 -->
<g id="edge66" class="edge"><title>Node46&#45;&gt;Node29</title>
<path fill="none" stroke="midnightblue" d="M599.966,-441.869C620.904,-430.893 657.281,-411.824 681.863,-398.938"/>
<polygon fill="midnightblue" stroke="midnightblue" points="683.734,-401.91 690.966,-394.167 680.484,-395.71 683.734,-401.91"/>
</g>
<!-- Node46&#45;&gt;Node38 -->
<g id="edge67" class="edge"><title>Node46&#45;&gt;Node38</title>
<path fill="none" stroke="midnightblue" d="M582.626,-441.934C581.648,-431.898 580.119,-414.762 579.5,-400 576.551,-329.659 577.482,-245.951 578.117,-209.063"/>
<polygon fill="midnightblue" stroke="midnightblue" points="581.621,-208.871 578.308,-198.808 574.623,-208.741 581.621,-208.871"/>
</g>
<!-- Node47&#45;&gt;Node34 -->
<g id="edge70" class="edge"><title>Node47&#45;&gt;Node34</title>
<path fill="none" stroke="midnightblue" d="M771.536,-508.734C782.185,-498.403 800.085,-481.037 813.181,-468.332"/>
<polygon fill="midnightblue" stroke="midnightblue" points="815.867,-470.603 820.607,-461.127 810.993,-465.578 815.867,-470.603"/>
</g>
<!-- Node48&#45;&gt;Node46 -->
<g id="edge72" class="edge"><title>Node48&#45;&gt;Node46</title>
<path fill="none" stroke="midnightblue" d="M611.689,-503.396C606.298,-493.662 599.089,-480.646 593.311,-470.214"/>
<polygon fill="midnightblue" stroke="midnightblue" points="596.222,-468.247 588.315,-461.195 590.099,-471.638 596.222,-468.247"/>
</g>
<!-- Node50&#45;&gt;Node38 -->
<g id="edge75" class="edge"><title>Node50&#45;&gt;Node38</title>
<path fill="none" stroke="midnightblue" d="M516.696,-235.399C529.316,-226.129 545.793,-214.025 558.561,-204.647"/>
<polygon fill="midnightblue" stroke="midnightblue" points="560.727,-207.399 566.714,-198.658 556.582,-201.757 560.727,-207.399"/>
</g>
</g>
</svg>
