<?xml version="1.0" encoding="UTF-8" standalone="no"?>
<!DOCTYPE svg PUBLIC "-//W3C//DTD SVG 1.1//EN"
 "http://www.w3.org/Graphics/SVG/1.1/DTD/svg11.dtd">
<!-- Generated by graphviz version 2.38.0 (20140413.2041)
 -->
<!-- Title: examples/standardmodel/standardmodel/analysis/StandardModel.hh Pages: 1 -->
<svg width="1292pt" height="195pt"
 viewBox="0.00 0.00 1292.00 195.00" xmlns="http://www.w3.org/2000/svg" xmlns:xlink="http://www.w3.org/1999/xlink">
<g id="graph0" class="graph" transform="scale(1 1) rotate(0) translate(4 191)">
<title>examples/standardmodel/standardmodel/analysis/StandardModel.hh</title>
<polygon fill="white" stroke="none" points="-4,4 -4,-191 1288,-191 1288,4 -4,4"/>
<!-- Node1 -->
<g id="node1" class="node"><title>Node1</title>
<polygon fill="#bfbfbf" stroke="black" points="479,-145.5 479,-186.5 604,-186.5 604,-145.5 479,-145.5"/>
<text text-anchor="start" x="487" y="-174.5" font-family="Helvetica,sans-Serif" font-size="10.00">examples/standardmodel</text>
<text text-anchor="start" x="487" y="-163.5" font-family="Helvetica,sans-Serif" font-size="10.00">/standardmodel/analysis</text>
<text text-anchor="middle" x="541.5" y="-152.5" font-family="Helvetica,sans-Serif" font-size="10.00">/StandardModel.hh</text>
</g>
<!-- Node2 -->
<g id="node2" class="node"><title>Node2</title>
<g id="a_node2"><a xlink:href="StandardModel_8cpp.html" target="_top" xlink:title="examples/standardmodel\l/source/analysis/StandardModel.cpp">
<polygon fill="white" stroke="black" points="0,-73 0,-103 175,-103 175,-73 0,-73"/>
<text text-anchor="start" x="8" y="-91" font-family="Helvetica,sans-Serif" font-size="10.00">examples/standardmodel</text>
<text text-anchor="middle" x="87.5" y="-80" font-family="Helvetica,sans-Serif" font-size="10.00">/source/analysis/StandardModel.cpp</text>
</a>
</g>
</g>
<!-- Node1&#45;&gt;Node2 -->
<g id="edge1" class="edge"><title>Node1&#45;&gt;Node2</title>
<path fill="none" stroke="midnightblue" d="M468.994,-154.749C396.545,-144.25 282.064,-126.964 183.5,-109 173.535,-107.184 163.016,-105.131 152.739,-103.051"/>
<polygon fill="midnightblue" stroke="midnightblue" points="468.534,-158.219 478.931,-156.185 469.535,-151.291 468.534,-158.219"/>
</g>
<!-- Node3 -->
<g id="node3" class="node"><title>Node3</title>
<g id="a_node3"><a xlink:href="analysis_2Boson_8hh.html" target="_top" xlink:title="examples/standardmodel\l/standardmodel/analysis\l/Boson.hh">
<polygon fill="white" stroke="black" points="193,-67.5 193,-108.5 318,-108.5 318,-67.5 193,-67.5"/>
<text text-anchor="start" x="201" y="-96.5" font-family="Helvetica,sans-Serif" font-size="10.00">examples/standardmodel</text>
<text text-anchor="start" x="201" y="-85.5" font-family="Helvetica,sans-Serif" font-size="10.00">/standardmodel/analysis</text>
<text text-anchor="middle" x="255.5" y="-74.5" font-family="Helvetica,sans-Serif" font-size="10.00">/Boson.hh</text>
</a>
</g>
</g>
<!-- Node1&#45;&gt;Node3 -->
<g id="edge2" class="edge"><title>Node1&#45;&gt;Node3</title>
<path fill="none" stroke="midnightblue" d="M468.953,-146.304C427.485,-135.545 374.528,-121.684 327.5,-109 324.494,-108.189 321.419,-107.355 318.313,-106.508"/>
<polygon fill="midnightblue" stroke="midnightblue" points="468.137,-149.708 478.696,-148.83 469.894,-142.932 468.137,-149.708"/>
</g>
<!-- Node5 -->
<g id="node5" class="node"><title>Node5</title>
<g id="a_node5"><a xlink:href="analysis_2Bottom_8hh.html" target="_top" xlink:title="examples/standardmodel\l/standardmodel/analysis\l/Bottom.hh">
<polygon fill="white" stroke="black" points="336,-67.5 336,-108.5 461,-108.5 461,-67.5 336,-67.5"/>
<text text-anchor="start" x="344" y="-96.5" font-family="Helvetica,sans-Serif" font-size="10.00">examples/standardmodel</text>
<text text-anchor="start" x="344" y="-85.5" font-family="Helvetica,sans-Serif" font-size="10.00">/standardmodel/analysis</text>
<text text-anchor="middle" x="398.5" y="-74.5" font-family="Helvetica,sans-Serif" font-size="10.00">/Bottom.hh</text>
</a>
</g>
</g>
<!-- Node1&#45;&gt;Node5 -->
<g id="edge4" class="edge"><title>Node1&#45;&gt;Node5</title>
<path fill="none" stroke="midnightblue" d="M495.64,-140.627C476.099,-130.242 453.614,-118.292 435.201,-108.506"/>
<polygon fill="midnightblue" stroke="midnightblue" points="494.201,-143.826 504.674,-145.428 497.486,-137.644 494.201,-143.826"/>
</g>
<!-- Node7 -->
<g id="node7" class="node"><title>Node7</title>
<g id="a_node7"><a xlink:href="analysis_2Higgs_8hh.html" target="_top" xlink:title="examples/standardmodel\l/standardmodel/analysis\l/Higgs.hh">
<polygon fill="white" stroke="black" points="479,-67.5 479,-108.5 604,-108.5 604,-67.5 479,-67.5"/>
<text text-anchor="start" x="487" y="-96.5" font-family="Helvetica,sans-Serif" font-size="10.00">examples/standardmodel</text>
<text text-anchor="start" x="487" y="-85.5" font-family="Helvetica,sans-Serif" font-size="10.00">/standardmodel/analysis</text>
<text text-anchor="middle" x="541.5" y="-74.5" font-family="Helvetica,sans-Serif" font-size="10.00">/Higgs.hh</text>
</a>
</g>
</g>
<!-- Node1&#45;&gt;Node7 -->
<g id="edge6" class="edge"><title>Node1&#45;&gt;Node7</title>
<path fill="none" stroke="midnightblue" d="M541.5,-135.297C541.5,-126.301 541.5,-116.653 541.5,-108.506"/>
<polygon fill="midnightblue" stroke="midnightblue" points="538,-135.428 541.5,-145.428 545,-135.428 538,-135.428"/>
</g>
<!-- Node9 -->
<g id="node9" class="node"><title>Node9</title>
<g id="a_node9"><a xlink:href="Top_8hh.html" target="_top" xlink:title="examples/standardmodel\l/standardmodel/analysis\l/Top.hh">
<polygon fill="white" stroke="black" points="658,-67.5 658,-108.5 783,-108.5 783,-67.5 658,-67.5"/>
<text text-anchor="start" x="666" y="-96.5" font-family="Helvetica,sans-Serif" font-size="10.00">examples/standardmodel</text>
<text text-anchor="start" x="666" y="-85.5" font-family="Helvetica,sans-Serif" font-size="10.00">/standardmodel/analysis</text>
<text text-anchor="middle" x="720.5" y="-74.5" font-family="Helvetica,sans-Serif" font-size="10.00">/Top.hh</text>
</a>
</g>
</g>
<!-- Node1&#45;&gt;Node9 -->
<g id="edge8" class="edge"><title>Node1&#45;&gt;Node9</title>
<path fill="none" stroke="midnightblue" d="M596.922,-141.469C621.833,-130.892 650.885,-118.557 674.559,-108.506"/>
<polygon fill="midnightblue" stroke="midnightblue" points="595.434,-138.298 587.597,-145.428 598.17,-144.742 595.434,-138.298"/>
</g>
<!-- Node13 -->
<g id="node13" class="node"><title>Node13</title>
<g id="a_node13"><a xlink:href="W_8hh.html" target="_top" xlink:title="examples/standardmodel\l/standardmodel/analysis/W.hh">
<polygon fill="white" stroke="black" points="891,-73 891,-103 1040,-103 1040,-73 891,-73"/>
<text text-anchor="start" x="899" y="-91" font-family="Helvetica,sans-Serif" font-size="10.00">examples/standardmodel</text>
<text text-anchor="middle" x="965.5" y="-80" font-family="Helvetica,sans-Serif" font-size="10.00">/standardmodel/analysis/W.hh</text>
</a>
</g>
</g>
<!-- Node1&#45;&gt;Node13 -->
<g id="edge12" class="edge"><title>Node1&#45;&gt;Node13</title>
<path fill="none" stroke="midnightblue" d="M614.19,-151.971C691.424,-138.127 812.922,-116.349 890.882,-102.375"/>
<polygon fill="midnightblue" stroke="midnightblue" points="613.288,-148.576 604.063,-153.786 614.523,-155.467 613.288,-148.576"/>
</g>
<!-- Node15 -->
<g id="node15" class="node"><title>Node15</title>
<g id="a_node15"><a xlink:href="Z_8hh.html" target="_top" xlink:title="examples/standardmodel\l/standardmodel/analysis/Z.hh">
<polygon fill="white" stroke="black" points="1103,-73 1103,-103 1248,-103 1248,-73 1103,-73"/>
<text text-anchor="start" x="1111" y="-91" font-family="Helvetica,sans-Serif" font-size="10.00">examples/standardmodel</text>
<text text-anchor="middle" x="1175.5" y="-80" font-family="Helvetica,sans-Serif" font-size="10.00">/standardmodel/analysis/Z.hh</text>
</a>
</g>
</g>
<!-- Node1&#45;&gt;Node15 -->
<g id="edge14" class="edge"><title>Node1&#45;&gt;Node15</title>
<path fill="none" stroke="midnightblue" d="M614.351,-158.07C713.115,-148.423 894.923,-129.776 1049.5,-109 1066.84,-106.669 1085.48,-103.872 1102.96,-101.119"/>
<polygon fill="midnightblue" stroke="midnightblue" points="613.796,-154.607 604.182,-159.06 614.474,-161.574 613.796,-154.607"/>
</g>
<!-- Node4 -->
<g id="node4" class="node"><title>Node4</title>
<g id="a_node4"><a xlink:href="MainBoson_8cpp.html" target="_top" xlink:title="examples/standardmodel\l/source/MainBoson.cpp">
<polygon fill="white" stroke="black" points="156,-0.5 156,-30.5 281,-30.5 281,-0.5 156,-0.5"/>
<text text-anchor="start" x="164" y="-18.5" font-family="Helvetica,sans-Serif" font-size="10.00">examples/standardmodel</text>
<text text-anchor="middle" x="218.5" y="-7.5" font-family="Helvetica,sans-Serif" font-size="10.00">/source/MainBoson.cpp</text>
</a>
</g>
</g>
<!-- Node3&#45;&gt;Node4 -->
<g id="edge3" class="edge"><title>Node3&#45;&gt;Node4</title>
<path fill="none" stroke="midnightblue" d="M240.417,-58.2606C235.473,-48.8408 230.192,-38.7784 226.053,-30.8916"/>
<polygon fill="midnightblue" stroke="midnightblue" points="237.447,-60.1337 245.193,-67.3618 243.645,-56.8807 237.447,-60.1337"/>
</g>
<!-- Node6 -->
<g id="node6" class="node"><title>Node6</title>
<g id="a_node6"><a xlink:href="MainBottom_8cpp.html" target="_top" xlink:title="examples/standardmodel\l/source/MainBottom.cpp">
<polygon fill="white" stroke="black" points="299,-0.5 299,-30.5 424,-30.5 424,-0.5 299,-0.5"/>
<text text-anchor="start" x="307" y="-18.5" font-family="Helvetica,sans-Serif" font-size="10.00">examples/standardmodel</text>
<text text-anchor="middle" x="361.5" y="-7.5" font-family="Helvetica,sans-Serif" font-size="10.00">/source/MainBottom.cpp</text>
</a>
</g>
</g>
<!-- Node5&#45;&gt;Node6 -->
<g id="edge5" class="edge"><title>Node5&#45;&gt;Node6</title>
<path fill="none" stroke="midnightblue" d="M383.417,-58.2606C378.473,-48.8408 373.192,-38.7784 369.053,-30.8916"/>
<polygon fill="midnightblue" stroke="midnightblue" points="380.447,-60.1337 388.193,-67.3618 386.645,-56.8807 380.447,-60.1337"/>
</g>
<!-- Node8 -->
<g id="node8" class="node"><title>Node8</title>
<g id="a_node8"><a xlink:href="MainHiggs_8cpp.html" target="_top" xlink:title="examples/standardmodel\l/source/MainHiggs.cpp">
<polygon fill="white" stroke="black" points="442,-0.5 442,-30.5 567,-30.5 567,-0.5 442,-0.5"/>
<text text-anchor="start" x="450" y="-18.5" font-family="Helvetica,sans-Serif" font-size="10.00">examples/standardmodel</text>
<text text-anchor="middle" x="504.5" y="-7.5" font-family="Helvetica,sans-Serif" font-size="10.00">/source/MainHiggs.cpp</text>
</a>
</g>
</g>
<!-- Node7&#45;&gt;Node8 -->
<g id="edge7" class="edge"><title>Node7&#45;&gt;Node8</title>
<path fill="none" stroke="midnightblue" d="M526.417,-58.2606C521.473,-48.8408 516.192,-38.7784 512.053,-30.8916"/>
<polygon fill="midnightblue" stroke="midnightblue" points="523.447,-60.1337 531.193,-67.3618 529.645,-56.8807 523.447,-60.1337"/>
</g>
<!-- Node10 -->
<g id="node10" class="node"><title>Node10</title>
<g id="a_node10"><a xlink:href="Top_8cpp.html" target="_top" xlink:title="examples/standardmodel\l/source/analysis/Top.cpp">
<polygon fill="white" stroke="black" points="585.5,-0.5 585.5,-30.5 711.5,-30.5 711.5,-0.5 585.5,-0.5"/>
<text text-anchor="start" x="593.5" y="-18.5" font-family="Helvetica,sans-Serif" font-size="10.00">examples/standardmodel</text>
<text text-anchor="middle" x="648.5" y="-7.5" font-family="Helvetica,sans-Serif" font-size="10.00">/source/analysis/Top.cpp</text>
</a>
</g>
</g>
<!-- Node9&#45;&gt;Node10 -->
<g id="edge9" class="edge"><title>Node9&#45;&gt;Node10</title>
<path fill="none" stroke="midnightblue" d="M693.242,-60.3098C683.039,-50.3198 671.84,-39.3535 663.198,-30.8916"/>
<polygon fill="midnightblue" stroke="midnightblue" points="690.85,-62.8663 700.444,-67.3618 695.748,-57.8647 690.85,-62.8663"/>
</g>
<!-- Node11 -->
<g id="node11" class="node"><title>Node11</title>
<g id="a_node11"><a xlink:href="MainTop_8cpp.html" target="_top" xlink:title="examples/standardmodel\l/source/MainTop.cpp">
<polygon fill="white" stroke="black" points="730,-0.5 730,-30.5 855,-30.5 855,-0.5 730,-0.5"/>
<text text-anchor="start" x="738" y="-18.5" font-family="Helvetica,sans-Serif" font-size="10.00">examples/standardmodel</text>
<text text-anchor="middle" x="792.5" y="-7.5" font-family="Helvetica,sans-Serif" font-size="10.00">/source/MainTop.cpp</text>
</a>
</g>
</g>
<!-- Node9&#45;&gt;Node11 -->
<g id="edge10" class="edge"><title>Node9&#45;&gt;Node11</title>
<path fill="none" stroke="midnightblue" d="M747.758,-60.3098C757.961,-50.3198 769.16,-39.3535 777.802,-30.8916"/>
<polygon fill="midnightblue" stroke="midnightblue" points="745.252,-57.8647 740.556,-67.3618 750.15,-62.8663 745.252,-57.8647"/>
</g>
<!-- Node12 -->
<g id="node12" class="node"><title>Node12</title>
<g id="a_node12"><a xlink:href="standardmodel_2source_2MainTruth_8cpp.html" target="_top" xlink:title="examples/standardmodel\l/source/MainTruth.cpp">
<polygon fill="white" stroke="black" points="873,-0.5 873,-30.5 998,-30.5 998,-0.5 873,-0.5"/>
<text text-anchor="start" x="881" y="-18.5" font-family="Helvetica,sans-Serif" font-size="10.00">examples/standardmodel</text>
<text text-anchor="middle" x="935.5" y="-7.5" font-family="Helvetica,sans-Serif" font-size="10.00">/source/MainTruth.cpp</text>
</a>
</g>
</g>
<!-- Node9&#45;&gt;Node12 -->
<g id="edge11" class="edge"><title>Node9&#45;&gt;Node12</title>
<path fill="none" stroke="midnightblue" d="M789.916,-64.238C823.669,-53.1702 863.175,-40.216 892.51,-30.5968"/>
<polygon fill="midnightblue" stroke="midnightblue" points="788.516,-61.0138 780.104,-67.4554 790.697,-67.6653 788.516,-61.0138"/>
</g>
<!-- Node14 -->
<g id="node14" class="node"><title>Node14</title>
<g id="a_node14"><a xlink:href="MainW_8cpp.html" target="_top" xlink:title="examples/standardmodel\l/source/MainW.cpp">
<polygon fill="white" stroke="black" points="1016,-0.5 1016,-30.5 1141,-30.5 1141,-0.5 1016,-0.5"/>
<text text-anchor="start" x="1024" y="-18.5" font-family="Helvetica,sans-Serif" font-size="10.00">examples/standardmodel</text>
<text text-anchor="middle" x="1078.5" y="-7.5" font-family="Helvetica,sans-Serif" font-size="10.00">/source/MainW.cpp</text>
</a>
</g>
</g>
<!-- Node13&#45;&gt;Node14 -->
<g id="edge13" class="edge"><title>Node13&#45;&gt;Node14</title>
<path fill="none" stroke="midnightblue" d="M996.624,-67.5817C1015.42,-55.8565 1038.94,-41.1815 1055.94,-30.5729"/>
<polygon fill="midnightblue" stroke="midnightblue" points="994.727,-64.64 988.096,-72.9027 998.433,-70.5789 994.727,-64.64"/>
</g>
<!-- Node16 -->
<g id="node16" class="node"><title>Node16</title>
<g id="a_node16"><a xlink:href="MainZ_8cpp.html" target="_top" xlink:title="examples/standardmodel\l/source/MainZ.cpp">
<polygon fill="white" stroke="black" points="1159,-0.5 1159,-30.5 1284,-30.5 1284,-0.5 1159,-0.5"/>
<text text-anchor="start" x="1167" y="-18.5" font-family="Helvetica,sans-Serif" font-size="10.00">examples/standardmodel</text>
<text text-anchor="middle" x="1221.5" y="-7.5" font-family="Helvetica,sans-Serif" font-size="10.00">/source/MainZ.cpp</text>
</a>
</g>
</g>
<!-- Node15&#45;&gt;Node16 -->
<g id="edge15" class="edge"><title>Node15&#45;&gt;Node16</title>
<path fill="none" stroke="midnightblue" d="M1190.47,-64.0566C1197.63,-53.0859 1205.97,-40.2965 1212.21,-30.7455"/>
<polygon fill="midnightblue" stroke="midnightblue" points="1187.34,-62.4457 1184.81,-72.7333 1193.2,-66.2709 1187.34,-62.4457"/>
</g>
</g>
</svg>
