<?xml version="1.0" encoding="UTF-8" standalone="no"?>
<!DOCTYPE svg PUBLIC "-//W3C//DTD SVG 1.1//EN"
 "http://www.w3.org/Graphics/SVG/1.1/DTD/svg11.dtd">
<!-- Generated by graphviz version 2.38.0 (20140413.2041)
 -->
<!-- Title: source/latex/String.cpp Pages: 1 -->
<svg width="1683pt" height="419pt"
 viewBox="0.00 0.00 1682.50 419.00" xmlns="http://www.w3.org/2000/svg" xmlns:xlink="http://www.w3.org/1999/xlink">
<g id="graph0" class="graph" transform="scale(1 1) rotate(0) translate(4 415)">
<title>source/latex/String.cpp</title>
<polygon fill="white" stroke="none" points="-4,4 -4,-415 1678.5,-415 1678.5,4 -4,4"/>
<!-- Node1 -->
<g id="node1" class="node"><title>Node1</title>
<polygon fill="#bfbfbf" stroke="black" points="307.5,-391.5 307.5,-410.5 424.5,-410.5 424.5,-391.5 307.5,-391.5"/>
<text text-anchor="middle" x="366" y="-398.5" font-family="Helvetica,sans-Serif" font-size="10.00">source/latex/String.cpp</text>
</g>
<!-- Node2 -->
<g id="node2" class="node"><title>Node2</title>
<polygon fill="white" stroke="#bfbfbf" points="59,-324.5 59,-354.5 169,-354.5 169,-324.5 59,-324.5"/>
<text text-anchor="start" x="67" y="-342.5" font-family="Helvetica,sans-Serif" font-size="10.00">boost/algorithm/string</text>
<text text-anchor="middle" x="114" y="-331.5" font-family="Helvetica,sans-Serif" font-size="10.00">/replace.hpp</text>
</g>
<!-- Node1&#45;&gt;Node2 -->
<g id="edge1" class="edge"><title>Node1&#45;&gt;Node2</title>
<path fill="none" stroke="midnightblue" d="M329.895,-391.475C290.634,-382.205 227.077,-367.199 179.066,-355.863"/>
<polygon fill="midnightblue" stroke="midnightblue" points="179.608,-352.395 169.071,-353.503 177.999,-359.207 179.608,-352.395"/>
</g>
<!-- Node3 -->
<g id="node3" class="node"><title>Node3</title>
<g id="a_node3"><a xlink:href="Types_8hh.html" target="_top" xlink:title="boca/generic/Types.hh">
<polygon fill="white" stroke="black" points="225,-330 225,-349 341,-349 341,-330 225,-330"/>
<text text-anchor="middle" x="283" y="-337" font-family="Helvetica,sans-Serif" font-size="10.00">boca/generic/Types.hh</text>
</a>
</g>
</g>
<!-- Node1&#45;&gt;Node3 -->
<g id="edge2" class="edge"><title>Node1&#45;&gt;Node3</title>
<path fill="none" stroke="midnightblue" d="M354.108,-391.475C340.795,-381.931 319,-366.307 303.043,-354.868"/>
<polygon fill="midnightblue" stroke="midnightblue" points="305.036,-351.991 294.87,-349.009 300.958,-357.68 305.036,-351.991"/>
</g>
<!-- Node6 -->
<g id="node6" class="node"><title>Node6</title>
<g id="a_node6"><a xlink:href="Font_8hh.html" target="_top" xlink:title="boca/plotting/Font.hh">
<polygon fill="white" stroke="black" points="864,-268.5 864,-287.5 972,-287.5 972,-268.5 864,-268.5"/>
<text text-anchor="middle" x="918" y="-275.5" font-family="Helvetica,sans-Serif" font-size="10.00">boca/plotting/Font.hh</text>
</a>
</g>
</g>
<!-- Node1&#45;&gt;Node6 -->
<g id="edge5" class="edge"><title>Node1&#45;&gt;Node6</title>
<path fill="none" stroke="midnightblue" d="M424.781,-394.129C486.945,-387.283 587.635,-374.373 673,-355 750.28,-337.461 838.499,-307.585 885.112,-290.997"/>
<polygon fill="midnightblue" stroke="midnightblue" points="886.445,-294.237 894.68,-287.57 884.085,-287.647 886.445,-294.237"/>
</g>
<!-- Node9 -->
<g id="node9" class="node"><title>Node9</title>
<g id="a_node9"><a xlink:href="String_8hh.html" target="_top" xlink:title="boca/latex/String.hh">
<polygon fill="white" stroke="black" points="0,-268.5 0,-287.5 104,-287.5 104,-268.5 0,-268.5"/>
<text text-anchor="middle" x="52" y="-275.5" font-family="Helvetica,sans-Serif" font-size="10.00">boca/latex/String.hh</text>
</a>
</g>
</g>
<!-- Node1&#45;&gt;Node9 -->
<g id="edge8" class="edge"><title>Node1&#45;&gt;Node9</title>
<path fill="none" stroke="midnightblue" d="M321.563,-391.494C290.736,-384.459 249.383,-372.715 216,-355 196.747,-344.783 196.983,-334.71 178,-324 151.925,-309.289 120.166,-297.984 95.0571,-290.385"/>
<polygon fill="midnightblue" stroke="midnightblue" points="96.0196,-287.02 85.4383,-287.555 94.044,-293.735 96.0196,-287.02"/>
</g>
<!-- Node12 -->
<g id="node12" class="node"><title>Node12</title>
<g id="a_node12"><a xlink:href="Settings_8hh.html" target="_top" xlink:title="boca/Settings.hh">
<polygon fill="white" stroke="black" points="574,-330 574,-349 664,-349 664,-330 574,-330"/>
<text text-anchor="middle" x="619" y="-337" font-family="Helvetica,sans-Serif" font-size="10.00">boca/Settings.hh</text>
</a>
</g>
</g>
<!-- Node1&#45;&gt;Node12 -->
<g id="edge12" class="edge"><title>Node1&#45;&gt;Node12</title>
<path fill="none" stroke="midnightblue" d="M402.249,-391.475C447.15,-380.915 523.706,-362.911 572.784,-351.369"/>
<polygon fill="midnightblue" stroke="midnightblue" points="573.885,-354.706 582.819,-349.009 572.283,-347.891 573.885,-354.706"/>
</g>
<!-- Node40 -->
<g id="node40" class="node"><title>Node40</title>
<g id="a_node40"><a xlink:href="DEBUG__MACROS_8hh.html" target="_top" xlink:title="boca/generic/DEBUG\l_MACROS.hh">
<polygon fill="white" stroke="black" points="393.5,-324.5 393.5,-354.5 504.5,-354.5 504.5,-324.5 393.5,-324.5"/>
<text text-anchor="start" x="401.5" y="-342.5" font-family="Helvetica,sans-Serif" font-size="10.00">boca/generic/DEBUG</text>
<text text-anchor="middle" x="449" y="-331.5" font-family="Helvetica,sans-Serif" font-size="10.00">_MACROS.hh</text>
</a>
</g>
</g>
<!-- Node1&#45;&gt;Node40 -->
<g id="edge48" class="edge"><title>Node1&#45;&gt;Node40</title>
<path fill="none" stroke="midnightblue" d="M377.892,-391.475C389.133,-383.417 406.422,-371.023 421.137,-360.474"/>
<polygon fill="midnightblue" stroke="midnightblue" points="423.35,-363.194 429.439,-354.523 419.272,-357.505 423.35,-363.194"/>
</g>
<!-- Node4 -->
<g id="node4" class="node"><title>Node4</title>
<polygon fill="white" stroke="#bfbfbf" points="189.5,-207 189.5,-226 230.5,-226 230.5,-207 189.5,-207"/>
<text text-anchor="middle" x="210" y="-214" font-family="Helvetica,sans-Serif" font-size="10.00">string</text>
</g>
<!-- Node3&#45;&gt;Node4 -->
<g id="edge3" class="edge"><title>Node3&#45;&gt;Node4</title>
<path fill="none" stroke="midnightblue" d="M279.004,-329.571C272.781,-315.944 260.121,-289.294 247,-268 239.754,-256.24 230.583,-243.71 223.185,-234.073"/>
<polygon fill="midnightblue" stroke="midnightblue" points="225.906,-231.871 216.994,-226.141 220.388,-236.178 225.906,-231.871"/>
</g>
<!-- Node5 -->
<g id="node5" class="node"><title>Node5</title>
<polygon fill="white" stroke="#bfbfbf" points="122,-268.5 122,-287.5 238,-287.5 238,-268.5 122,-268.5"/>
<text text-anchor="middle" x="180" y="-275.5" font-family="Helvetica,sans-Serif" font-size="10.00">boost/range/irange.hpp</text>
</g>
<!-- Node3&#45;&gt;Node5 -->
<g id="edge4" class="edge"><title>Node3&#45;&gt;Node5</title>
<path fill="none" stroke="midnightblue" d="M268.243,-329.975C251.339,-320.211 223.417,-304.081 203.51,-292.581"/>
<polygon fill="midnightblue" stroke="midnightblue" points="205.14,-289.481 194.73,-287.509 201.638,-295.542 205.14,-289.481"/>
</g>
<!-- Node7 -->
<g id="node7" class="node"><title>Node7</title>
<g id="a_node7"><a xlink:href="Flag_8hh.html" target="_top" xlink:title="boca/generic/Flag.hh">
<polygon fill="white" stroke="black" points="1077.5,-207 1077.5,-226 1184.5,-226 1184.5,-207 1077.5,-207"/>
<text text-anchor="middle" x="1131" y="-214" font-family="Helvetica,sans-Serif" font-size="10.00">boca/generic/Flag.hh</text>
</a>
</g>
</g>
<!-- Node6&#45;&gt;Node7 -->
<g id="edge6" class="edge"><title>Node6&#45;&gt;Node7</title>
<path fill="none" stroke="midnightblue" d="M948.518,-268.475C985.925,-258.026 1049.43,-240.287 1090.79,-228.733"/>
<polygon fill="midnightblue" stroke="midnightblue" points="1091.85,-232.071 1100.54,-226.009 1089.97,-225.329 1091.85,-232.071"/>
</g>
<!-- Node8 -->
<g id="node8" class="node"><title>Node8</title>
<polygon fill="white" stroke="#bfbfbf" points="1125,-140 1125,-159 1187,-159 1187,-140 1125,-140"/>
<text text-anchor="middle" x="1156" y="-147" font-family="Helvetica,sans-Serif" font-size="10.00">type_traits</text>
</g>
<!-- Node7&#45;&gt;Node8 -->
<g id="edge7" class="edge"><title>Node7&#45;&gt;Node8</title>
<path fill="none" stroke="midnightblue" d="M1134.37,-206.734C1138.12,-196.988 1144.28,-180.981 1149.06,-168.532"/>
<polygon fill="midnightblue" stroke="midnightblue" points="1152.36,-169.717 1152.68,-159.127 1145.83,-167.204 1152.36,-169.717"/>
</g>
<!-- Node9&#45;&gt;Node4 -->
<g id="edge9" class="edge"><title>Node9&#45;&gt;Node4</title>
<path fill="none" stroke="midnightblue" d="M74.6375,-268.475C102.236,-258.082 148.984,-240.478 179.674,-228.92"/>
<polygon fill="midnightblue" stroke="midnightblue" points="181.29,-232.052 189.415,-225.252 178.823,-225.501 181.29,-232.052"/>
</g>
<!-- Node10 -->
<g id="node10" class="node"><title>Node10</title>
<polygon fill="white" stroke="#bfbfbf" points="30.5,-207 30.5,-226 73.5,-226 73.5,-207 30.5,-207"/>
<text text-anchor="middle" x="52" y="-214" font-family="Helvetica,sans-Serif" font-size="10.00">deque</text>
</g>
<!-- Node9&#45;&gt;Node10 -->
<g id="edge10" class="edge"><title>Node9&#45;&gt;Node10</title>
<path fill="none" stroke="midnightblue" d="M52,-268.475C52,-260.08 52,-246.981 52,-236.163"/>
<polygon fill="midnightblue" stroke="midnightblue" points="55.5001,-236.009 52,-226.009 48.5001,-236.009 55.5001,-236.009"/>
</g>
<!-- Node11 -->
<g id="node11" class="node"><title>Node11</title>
<polygon fill="white" stroke="#bfbfbf" points="237,-140 237,-159 281,-159 281,-140 237,-140"/>
<text text-anchor="middle" x="259" y="-147" font-family="Helvetica,sans-Serif" font-size="10.00">vector</text>
</g>
<!-- Node9&#45;&gt;Node11 -->
<g id="edge11" class="edge"><title>Node9&#45;&gt;Node11</title>
<path fill="none" stroke="midnightblue" d="M66.2279,-268.305C101.544,-246.723 193.448,-190.56 236.338,-164.349"/>
<polygon fill="midnightblue" stroke="midnightblue" points="238.238,-167.289 244.946,-159.088 234.588,-161.316 238.238,-167.289"/>
</g>
<!-- Node12&#45;&gt;Node6 -->
<g id="edge47" class="edge"><title>Node12&#45;&gt;Node6</title>
<path fill="none" stroke="midnightblue" d="M661.839,-329.975C715.46,-319.305 807.277,-301.034 865.191,-289.509"/>
<polygon fill="midnightblue" stroke="midnightblue" points="866.115,-292.894 875.24,-287.509 864.749,-286.028 866.115,-292.894"/>
</g>
<!-- Node13 -->
<g id="node13" class="node"><title>Node13</title>
<g id="a_node13"><a xlink:href="InfoRecombiner_8hh.html" target="_top" xlink:title="boca/fastjet/InfoRecombiner.hh">
<polygon fill="white" stroke="black" points="542.5,-268.5 542.5,-287.5 695.5,-287.5 695.5,-268.5 542.5,-268.5"/>
<text text-anchor="middle" x="619" y="-275.5" font-family="Helvetica,sans-Serif" font-size="10.00">boca/fastjet/InfoRecombiner.hh</text>
</a>
</g>
</g>
<!-- Node12&#45;&gt;Node13 -->
<g id="edge13" class="edge"><title>Node12&#45;&gt;Node13</title>
<path fill="none" stroke="midnightblue" d="M619,-329.975C619,-321.58 619,-308.481 619,-297.663"/>
<polygon fill="midnightblue" stroke="midnightblue" points="622.5,-297.509 619,-287.509 615.5,-297.509 622.5,-297.509"/>
</g>
<!-- Node15 -->
<g id="node15" class="node"><title>Node15</title>
<g id="a_node15"><a xlink:href="Range_8hh.html" target="_top" xlink:title="boca/math/Range.hh">
<polygon fill="white" stroke="black" points="738.5,-268.5 738.5,-287.5 845.5,-287.5 845.5,-268.5 738.5,-268.5"/>
<text text-anchor="middle" x="792" y="-275.5" font-family="Helvetica,sans-Serif" font-size="10.00">boca/math/Range.hh</text>
</a>
</g>
</g>
<!-- Node12&#45;&gt;Node15 -->
<g id="edge15" class="edge"><title>Node12&#45;&gt;Node15</title>
<path fill="none" stroke="midnightblue" d="M643.787,-329.975C673.591,-319.725 723.791,-302.459 757.402,-290.899"/>
<polygon fill="midnightblue" stroke="midnightblue" points="758.941,-294.071 767.259,-287.509 756.665,-287.452 758.941,-294.071"/>
</g>
<!-- Node39 -->
<g id="node39" class="node"><title>Node39</title>
<g id="a_node39"><a xlink:href="Source_8hh.html" target="_top" xlink:title="boca/io/Source.hh">
<polygon fill="white" stroke="black" points="294.5,-268.5 294.5,-287.5 389.5,-287.5 389.5,-268.5 294.5,-268.5"/>
<text text-anchor="middle" x="342" y="-275.5" font-family="Helvetica,sans-Serif" font-size="10.00">boca/io/Source.hh</text>
</a>
</g>
</g>
<!-- Node12&#45;&gt;Node39 -->
<g id="edge45" class="edge"><title>Node12&#45;&gt;Node39</title>
<path fill="none" stroke="midnightblue" d="M579.313,-329.975C529.843,-319.349 445.28,-301.185 391.592,-289.652"/>
<polygon fill="midnightblue" stroke="midnightblue" points="392.126,-286.187 381.614,-287.509 390.656,-293.031 392.126,-286.187"/>
</g>
<!-- Node14 -->
<g id="node14" class="node"><title>Node14</title>
<polygon fill="white" stroke="#bfbfbf" points="548.5,-207 548.5,-226 663.5,-226 663.5,-207 548.5,-207"/>
<text text-anchor="middle" x="606" y="-214" font-family="Helvetica,sans-Serif" font-size="10.00">fastjet/JetDefinition.hh</text>
</g>
<!-- Node13&#45;&gt;Node14 -->
<g id="edge14" class="edge"><title>Node13&#45;&gt;Node14</title>
<path fill="none" stroke="midnightblue" d="M617.137,-268.475C615.284,-259.992 612.381,-246.704 610.003,-235.822"/>
<polygon fill="midnightblue" stroke="midnightblue" points="613.413,-235.032 607.859,-226.009 606.574,-236.526 613.413,-235.032"/>
</g>
<!-- Node16 -->
<g id="node16" class="node"><title>Node16</title>
<polygon fill="white" stroke="#bfbfbf" points="682,-207 682,-226 736,-226 736,-207 682,-207"/>
<text text-anchor="middle" x="709" y="-214" font-family="Helvetica,sans-Serif" font-size="10.00">iostream</text>
</g>
<!-- Node15&#45;&gt;Node16 -->
<g id="edge16" class="edge"><title>Node15&#45;&gt;Node16</title>
<path fill="none" stroke="midnightblue" d="M780.108,-268.475C766.795,-258.931 745,-243.307 729.043,-231.868"/>
<polygon fill="midnightblue" stroke="midnightblue" points="731.036,-228.991 720.87,-226.009 726.958,-234.68 731.036,-228.991"/>
</g>
<!-- Node17 -->
<g id="node17" class="node"><title>Node17</title>
<polygon fill="white" stroke="#bfbfbf" points="993,-207 993,-226 1033,-226 1033,-207 993,-207"/>
<text text-anchor="middle" x="1013" y="-214" font-family="Helvetica,sans-Serif" font-size="10.00">utility</text>
</g>
<!-- Node15&#45;&gt;Node17 -->
<g id="edge17" class="edge"><title>Node15&#45;&gt;Node17</title>
<path fill="none" stroke="midnightblue" d="M842.656,-268.476C881.918,-261.074 937.315,-248.879 984,-232 985.423,-231.486 986.866,-230.919 988.311,-230.318"/>
<polygon fill="midnightblue" stroke="midnightblue" points="990.028,-233.38 997.642,-226.013 987.096,-227.024 990.028,-233.38"/>
</g>
<!-- Node18 -->
<g id="node18" class="node"><title>Node18</title>
<g id="a_node18"><a xlink:href="Units_8hh.html" target="_top" xlink:title="boca/units/Units.hh">
<polygon fill="white" stroke="black" points="754.5,-207 754.5,-226 855.5,-226 855.5,-207 754.5,-207"/>
<text text-anchor="middle" x="805" y="-214" font-family="Helvetica,sans-Serif" font-size="10.00">boca/units/Units.hh</text>
</a>
</g>
</g>
<!-- Node15&#45;&gt;Node18 -->
<g id="edge18" class="edge"><title>Node15&#45;&gt;Node18</title>
<path fill="none" stroke="midnightblue" d="M793.863,-268.475C795.716,-259.992 798.619,-246.704 800.997,-235.822"/>
<polygon fill="midnightblue" stroke="midnightblue" points="804.426,-236.526 803.141,-226.009 797.587,-235.032 804.426,-236.526"/>
</g>
<!-- Node36 -->
<g id="node36" class="node"><title>Node36</title>
<g id="a_node36"><a xlink:href="Math_8hh.html" target="_top" xlink:title="boca/math/Math.hh">
<polygon fill="white" stroke="black" points="873.5,-207 873.5,-226 974.5,-226 974.5,-207 873.5,-207"/>
<text text-anchor="middle" x="924" y="-214" font-family="Helvetica,sans-Serif" font-size="10.00">boca/math/Math.hh</text>
</a>
</g>
</g>
<!-- Node15&#45;&gt;Node36 -->
<g id="edge41" class="edge"><title>Node15&#45;&gt;Node36</title>
<path fill="none" stroke="midnightblue" d="M810.912,-268.475C833.163,-258.445 870.312,-241.7 895.926,-230.155"/>
<polygon fill="midnightblue" stroke="midnightblue" points="897.444,-233.309 905.123,-226.009 894.568,-226.928 897.444,-233.309"/>
</g>
<!-- Node19 -->
<g id="node19" class="node"><title>Node19</title>
<polygon fill="white" stroke="#bfbfbf" points="427.5,-6 427.5,-25 540.5,-25 540.5,-6 427.5,-6"/>
<text text-anchor="middle" x="484" y="-13" font-family="Helvetica,sans-Serif" font-size="10.00">boost/units/cmath.hpp</text>
</g>
<!-- Node18&#45;&gt;Node19 -->
<g id="edge19" class="edge"><title>Node18&#45;&gt;Node19</title>
<path fill="none" stroke="midnightblue" d="M771.177,-206.986C675.098,-182.646 406.699,-113.522 395,-98 386.708,-86.9972 388.067,-78.906 395,-67 405.582,-48.8283 425.406,-36.6644 443.662,-28.8377"/>
<polygon fill="midnightblue" stroke="midnightblue" points="445.004,-32.071 453.009,-25.1312 442.423,-25.5639 445.004,-32.071"/>
</g>
<!-- Node20 -->
<g id="node20" class="node"><title>Node20</title>
<g id="a_node20"><a xlink:href="Prefixes_8hh.html" target="_top" xlink:title="boca/units/Prefixes.hh">
<polygon fill="white" stroke="black" points="737,-140 737,-159 851,-159 851,-140 737,-140"/>
<text text-anchor="middle" x="794" y="-147" font-family="Helvetica,sans-Serif" font-size="10.00">boca/units/Prefixes.hh</text>
</a>
</g>
</g>
<!-- Node18&#45;&gt;Node20 -->
<g id="edge20" class="edge"><title>Node18&#45;&gt;Node20</title>
<path fill="none" stroke="midnightblue" d="M803.516,-206.734C801.9,-197.183 799.266,-181.618 797.179,-169.283"/>
<polygon fill="midnightblue" stroke="midnightblue" points="800.58,-168.403 795.46,-159.127 793.678,-169.571 800.58,-168.403"/>
</g>
<!-- Node21 -->
<g id="node21" class="node"><title>Node21</title>
<polygon fill="white" stroke="#bfbfbf" points="404,-73 404,-92 514,-92 514,-73 404,-73"/>
<text text-anchor="middle" x="459" y="-80" font-family="Helvetica,sans-Serif" font-size="10.00">boost/units/scale.hpp</text>
</g>
<!-- Node20&#45;&gt;Node21 -->
<g id="edge21" class="edge"><title>Node20&#45;&gt;Node21</title>
<path fill="none" stroke="midnightblue" d="M745.616,-139.971C691.509,-130.312 601.316,-113.849 524,-98 518.195,-96.81 512.109,-95.5154 506.088,-94.2057"/>
<polygon fill="midnightblue" stroke="midnightblue" points="506.594,-90.7334 496.076,-92.0031 505.09,-97.57 506.594,-90.7334"/>
</g>
<!-- Node22 -->
<g id="node22" class="node"><title>Node22</title>
<polygon fill="white" stroke="#bfbfbf" points="532.5,-67.5 532.5,-97.5 657.5,-97.5 657.5,-67.5 532.5,-67.5"/>
<text text-anchor="start" x="540.5" y="-85.5" font-family="Helvetica,sans-Serif" font-size="10.00">boost/units/make_scaled</text>
<text text-anchor="middle" x="595" y="-74.5" font-family="Helvetica,sans-Serif" font-size="10.00">_unit.hpp</text>
</g>
<!-- Node20&#45;&gt;Node22 -->
<g id="edge22" class="edge"><title>Node20&#45;&gt;Node22</title>
<path fill="none" stroke="midnightblue" d="M767.574,-139.869C737.067,-129.904 686.135,-113.268 647.488,-100.644"/>
<polygon fill="midnightblue" stroke="midnightblue" points="648.54,-97.306 637.947,-97.5281 646.367,-103.96 648.54,-97.306"/>
</g>
<!-- Node23 -->
<g id="node23" class="node"><title>Node23</title>
<polygon fill="white" stroke="#bfbfbf" points="675.5,-67.5 675.5,-97.5 786.5,-97.5 786.5,-67.5 675.5,-67.5"/>
<text text-anchor="start" x="683.5" y="-85.5" font-family="Helvetica,sans-Serif" font-size="10.00">boost/units/systems</text>
<text text-anchor="middle" x="731" y="-74.5" font-family="Helvetica,sans-Serif" font-size="10.00">/si/dimensionless.hpp</text>
</g>
<!-- Node20&#45;&gt;Node23 -->
<g id="edge23" class="edge"><title>Node20&#45;&gt;Node23</title>
<path fill="none" stroke="midnightblue" d="M785.504,-139.734C776.907,-130.865 763.286,-116.811 751.812,-104.972"/>
<polygon fill="midnightblue" stroke="midnightblue" points="754.129,-102.334 744.656,-97.589 749.102,-107.206 754.129,-102.334"/>
</g>
<!-- Node24 -->
<g id="node24" class="node"><title>Node24</title>
<polygon fill="white" stroke="#bfbfbf" points="805,-73 805,-92 909,-92 909,-73 805,-73"/>
<text text-anchor="middle" x="857" y="-80" font-family="Helvetica,sans-Serif" font-size="10.00">boost/units/pow.hpp</text>
</g>
<!-- Node20&#45;&gt;Node24 -->
<g id="edge24" class="edge"><title>Node20&#45;&gt;Node24</title>
<path fill="none" stroke="midnightblue" d="M802.496,-139.734C812.509,-129.403 829.341,-112.037 841.656,-99.3315"/>
<polygon fill="midnightblue" stroke="midnightblue" points="844.192,-101.744 848.638,-92.1273 839.165,-96.8721 844.192,-101.744"/>
</g>
<!-- Node25 -->
<g id="node25" class="node"><title>Node25</title>
<g id="a_node25"><a xlink:href="Si_8hh.html" target="_top" xlink:title="boca/units/Si.hh">
<polygon fill="white" stroke="black" points="927.5,-73 927.5,-92 1014.5,-92 1014.5,-73 927.5,-73"/>
<text text-anchor="middle" x="971" y="-80" font-family="Helvetica,sans-Serif" font-size="10.00">boca/units/Si.hh</text>
</a>
</g>
</g>
<!-- Node20&#45;&gt;Node25 -->
<g id="edge25" class="edge"><title>Node20&#45;&gt;Node25</title>
<path fill="none" stroke="midnightblue" d="M817.504,-139.869C848.402,-128.522 902.856,-108.525 937.909,-95.6522"/>
<polygon fill="midnightblue" stroke="midnightblue" points="939.5,-98.7964 947.68,-92.0637 937.087,-92.2255 939.5,-98.7964"/>
</g>
<!-- Node30 -->
<g id="node30" class="node"><title>Node30</title>
<g id="a_node30"><a xlink:href="Barn_8hh.html" target="_top" xlink:title="boca/units/Barn.hh">
<polygon fill="white" stroke="black" points="1123,-73 1123,-92 1221,-92 1221,-73 1123,-73"/>
<text text-anchor="middle" x="1172" y="-80" font-family="Helvetica,sans-Serif" font-size="10.00">boca/units/Barn.hh</text>
</a>
</g>
</g>
<!-- Node20&#45;&gt;Node30 -->
<g id="edge31" class="edge"><title>Node20&#45;&gt;Node30</title>
<path fill="none" stroke="midnightblue" d="M831.273,-139.931C840.631,-137.884 850.665,-135.779 860,-134 947.693,-117.284 1049.94,-101.418 1112.82,-92.0737"/>
<polygon fill="midnightblue" stroke="midnightblue" points="1113.57,-95.5013 1122.95,-90.5746 1112.54,-88.5768 1113.57,-95.5013"/>
</g>
<!-- Node34 -->
<g id="node34" class="node"><title>Node34</title>
<g id="a_node34"><a xlink:href="ElectronVolt_8hh.html" target="_top" xlink:title="boca/units/ElectronVolt.hh">
<polygon fill="white" stroke="black" points="1260.5,-73 1260.5,-92 1391.5,-92 1391.5,-73 1260.5,-73"/>
<text text-anchor="middle" x="1326" y="-80" font-family="Helvetica,sans-Serif" font-size="10.00">boca/units/ElectronVolt.hh</text>
</a>
</g>
</g>
<!-- Node20&#45;&gt;Node34 -->
<g id="edge36" class="edge"><title>Node20&#45;&gt;Node34</title>
<path fill="none" stroke="midnightblue" d="M829.132,-139.967C839.067,-137.777 849.918,-135.592 860,-134 1023.2,-108.228 1066.04,-118.345 1230,-98 1240.69,-96.6731 1252.03,-95.1047 1263.03,-93.4981"/>
<polygon fill="midnightblue" stroke="midnightblue" points="1263.62,-96.9481 1273,-92.0177 1262.6,-90.024 1263.62,-96.9481"/>
</g>
<!-- Node25&#45;&gt;Node19 -->
<g id="edge29" class="edge"><title>Node25&#45;&gt;Node19</title>
<path fill="none" stroke="midnightblue" d="M943.136,-72.9948C935.086,-70.7782 926.246,-68.5732 918,-67 774.813,-39.6824 736.691,-48.6997 592,-31 578.682,-29.3709 564.454,-27.5315 550.843,-25.7235"/>
<polygon fill="midnightblue" stroke="midnightblue" points="550.955,-22.2074 540.58,-24.3509 550.027,-29.1456 550.955,-22.2074"/>
</g>
<!-- Node26 -->
<g id="node26" class="node"><title>Node26</title>
<polygon fill="white" stroke="#bfbfbf" points="975.5,-6 975.5,-25 1096.5,-25 1096.5,-6 975.5,-6"/>
<text text-anchor="middle" x="1036" y="-13" font-family="Helvetica,sans-Serif" font-size="10.00">boost/units/quantity.hpp</text>
</g>
<!-- Node25&#45;&gt;Node26 -->
<g id="edge26" class="edge"><title>Node25&#45;&gt;Node26</title>
<path fill="none" stroke="midnightblue" d="M979.766,-72.7338C990.097,-62.403 1007.46,-45.0371 1020.17,-32.3315"/>
<polygon fill="midnightblue" stroke="midnightblue" points="1022.78,-34.6733 1027.37,-25.1273 1017.83,-29.7235 1022.78,-34.6733"/>
</g>
<!-- Node27 -->
<g id="node27" class="node"><title>Node27</title>
<polygon fill="white" stroke="#bfbfbf" points="852.5,-0.5 852.5,-30.5 957.5,-30.5 957.5,-0.5 852.5,-0.5"/>
<text text-anchor="start" x="860.5" y="-18.5" font-family="Helvetica,sans-Serif" font-size="10.00">boost/units/systems</text>
<text text-anchor="middle" x="905" y="-7.5" font-family="Helvetica,sans-Serif" font-size="10.00">/si/plane_angle.hpp</text>
</g>
<!-- Node25&#45;&gt;Node27 -->
<g id="edge27" class="edge"><title>Node25&#45;&gt;Node27</title>
<path fill="none" stroke="midnightblue" d="M962.099,-72.7338C953.008,-63.7804 938.551,-49.543 926.46,-37.6346"/>
<polygon fill="midnightblue" stroke="midnightblue" points="928.887,-35.1122 919.306,-30.589 923.975,-40.0996 928.887,-35.1122"/>
</g>
<!-- Node28 -->
<g id="node28" class="node"><title>Node28</title>
<polygon fill="white" stroke="#bfbfbf" points="600.5,-0.5 600.5,-30.5 705.5,-30.5 705.5,-0.5 600.5,-0.5"/>
<text text-anchor="start" x="608.5" y="-18.5" font-family="Helvetica,sans-Serif" font-size="10.00">boost/units/systems</text>
<text text-anchor="middle" x="653" y="-7.5" font-family="Helvetica,sans-Serif" font-size="10.00">/si/length.hpp</text>
</g>
<!-- Node25&#45;&gt;Node28 -->
<g id="edge28" class="edge"><title>Node25&#45;&gt;Node28</title>
<path fill="none" stroke="midnightblue" d="M941.684,-72.9651C934.012,-70.873 925.725,-68.7378 918,-67 831.66,-47.5763 806.462,-49.2921 715.619,-31.0489"/>
<polygon fill="midnightblue" stroke="midnightblue" points="716.219,-27.5994 705.722,-29.0353 714.824,-34.4589 716.219,-27.5994"/>
</g>
<!-- Node29 -->
<g id="node29" class="node"><title>Node29</title>
<polygon fill="white" stroke="#bfbfbf" points="723.5,-0.5 723.5,-30.5 834.5,-30.5 834.5,-0.5 723.5,-0.5"/>
<text text-anchor="start" x="731.5" y="-18.5" font-family="Helvetica,sans-Serif" font-size="10.00">boost/math/constants</text>
<text text-anchor="middle" x="779" y="-7.5" font-family="Helvetica,sans-Serif" font-size="10.00">/constants.hpp</text>
</g>
<!-- Node25&#45;&gt;Node29 -->
<g id="edge30" class="edge"><title>Node25&#45;&gt;Node29</title>
<path fill="none" stroke="midnightblue" d="M945.504,-72.8685C916.195,-62.9461 867.345,-46.4085 830.117,-33.8051"/>
<polygon fill="midnightblue" stroke="midnightblue" points="831.031,-30.4196 820.437,-30.5281 828.786,-37.05 831.031,-30.4196"/>
</g>
<!-- Node30&#45;&gt;Node26 -->
<g id="edge34" class="edge"><title>Node30&#45;&gt;Node26</title>
<path fill="none" stroke="midnightblue" d="M1153.94,-72.8685C1130.77,-61.7961 1090.37,-42.4862 1063.4,-29.5978"/>
<polygon fill="midnightblue" stroke="midnightblue" points="1064.67,-26.3216 1054.13,-25.1672 1061.65,-32.6373 1064.67,-26.3216"/>
</g>
<!-- Node31 -->
<g id="node31" class="node"><title>Node31</title>
<polygon fill="white" stroke="#bfbfbf" points="1247.5,-6 1247.5,-25 1404.5,-25 1404.5,-6 1247.5,-6"/>
<text text-anchor="middle" x="1326" y="-13" font-family="Helvetica,sans-Serif" font-size="10.00">boost/units/base_dimension.hpp</text>
</g>
<!-- Node30&#45;&gt;Node31 -->
<g id="edge32" class="edge"><title>Node30&#45;&gt;Node31</title>
<path fill="none" stroke="midnightblue" d="M1192.45,-72.8685C1219.03,-61.6504 1265.64,-41.9766 1296.17,-29.0925"/>
<polygon fill="midnightblue" stroke="midnightblue" points="1297.61,-32.2804 1305.47,-25.1672 1294.89,-25.8313 1297.61,-32.2804"/>
</g>
<!-- Node32 -->
<g id="node32" class="node"><title>Node32</title>
<polygon fill="white" stroke="#bfbfbf" points="1423,-6 1423,-25 1551,-25 1551,-6 1423,-6"/>
<text text-anchor="middle" x="1487" y="-13" font-family="Helvetica,sans-Serif" font-size="10.00">boost/units/base_unit.hpp</text>
</g>
<!-- Node30&#45;&gt;Node32 -->
<g id="edge33" class="edge"><title>Node30&#45;&gt;Node32</title>
<path fill="none" stroke="midnightblue" d="M1213.5,-72.9355C1270.71,-61.1306 1373.74,-39.8716 1435.7,-27.0853"/>
<polygon fill="midnightblue" stroke="midnightblue" points="1436.57,-30.4805 1445.65,-25.0317 1435.15,-23.6249 1436.57,-30.4805"/>
</g>
<!-- Node33 -->
<g id="node33" class="node"><title>Node33</title>
<polygon fill="white" stroke="#bfbfbf" points="1114.5,-0.5 1114.5,-30.5 1229.5,-30.5 1229.5,-0.5 1114.5,-0.5"/>
<text text-anchor="start" x="1122.5" y="-18.5" font-family="Helvetica,sans-Serif" font-size="10.00">boost/units/base_units</text>
<text text-anchor="middle" x="1172" y="-7.5" font-family="Helvetica,sans-Serif" font-size="10.00">/metric/barn.hpp</text>
</g>
<!-- Node30&#45;&gt;Node33 -->
<g id="edge35" class="edge"><title>Node30&#45;&gt;Node33</title>
<path fill="none" stroke="midnightblue" d="M1172,-72.7338C1172,-64.5406 1172,-51.9225 1172,-40.7136"/>
<polygon fill="midnightblue" stroke="midnightblue" points="1175.5,-40.589 1172,-30.589 1168.5,-40.5891 1175.5,-40.589"/>
</g>
<!-- Node34&#45;&gt;Node26 -->
<g id="edge39" class="edge"><title>Node34&#45;&gt;Node26</title>
<path fill="none" stroke="midnightblue" d="M1287.79,-72.9355C1235.41,-61.1956 1141.32,-40.1052 1084.17,-27.2971"/>
<polygon fill="midnightblue" stroke="midnightblue" points="1084.82,-23.8553 1074.3,-25.0834 1083.29,-30.6859 1084.82,-23.8553"/>
</g>
<!-- Node34&#45;&gt;Node31 -->
<g id="edge37" class="edge"><title>Node34&#45;&gt;Node31</title>
<path fill="none" stroke="midnightblue" d="M1326,-72.7338C1326,-63.1826 1326,-47.6183 1326,-35.2829"/>
<polygon fill="midnightblue" stroke="midnightblue" points="1329.5,-35.1273 1326,-25.1273 1322.5,-35.1273 1329.5,-35.1273"/>
</g>
<!-- Node34&#45;&gt;Node32 -->
<g id="edge38" class="edge"><title>Node34&#45;&gt;Node32</title>
<path fill="none" stroke="midnightblue" d="M1347.38,-72.8685C1375.36,-61.5706 1424.59,-41.6961 1456.49,-28.8183"/>
<polygon fill="midnightblue" stroke="midnightblue" points="1457.83,-32.0529 1465.79,-25.0637 1455.21,-25.5619 1457.83,-32.0529"/>
</g>
<!-- Node35 -->
<g id="node35" class="node"><title>Node35</title>
<polygon fill="white" stroke="#bfbfbf" points="1569.5,-0.5 1569.5,-30.5 1674.5,-30.5 1674.5,-0.5 1569.5,-0.5"/>
<text text-anchor="start" x="1577.5" y="-18.5" font-family="Helvetica,sans-Serif" font-size="10.00">boost/units/systems</text>
<text text-anchor="middle" x="1622" y="-7.5" font-family="Helvetica,sans-Serif" font-size="10.00">/si/energy.hpp</text>
</g>
<!-- Node34&#45;&gt;Node35 -->
<g id="edge40" class="edge"><title>Node34&#45;&gt;Node35</title>
<path fill="none" stroke="midnightblue" d="M1366.63,-72.9531C1411.33,-63.5003 1485.56,-47.6594 1559.32,-31.1318"/>
<polygon fill="midnightblue" stroke="midnightblue" points="1560.26,-34.5081 1569.25,-28.9019 1558.73,-27.6782 1560.26,-34.5081"/>
</g>
<!-- Node36&#45;&gt;Node11 -->
<g id="edge42" class="edge"><title>Node36&#45;&gt;Node11</title>
<path fill="none" stroke="midnightblue" d="M893.262,-206.973C884.218,-204.729 874.265,-202.515 865,-201 647.74,-165.478 382.345,-154.319 291.38,-151.401"/>
<polygon fill="midnightblue" stroke="midnightblue" points="291.27,-147.896 281.166,-151.085 291.053,-154.893 291.27,-147.896"/>
</g>
<!-- Node37 -->
<g id="node37" class="node"><title>Node37</title>
<polygon fill="white" stroke="#bfbfbf" points="869,-134.5 869,-164.5 979,-164.5 979,-134.5 869,-134.5"/>
<text text-anchor="start" x="877" y="-152.5" font-family="Helvetica,sans-Serif" font-size="10.00">boost/range/algorithm</text>
<text text-anchor="middle" x="924" y="-141.5" font-family="Helvetica,sans-Serif" font-size="10.00">/lower_bound.hpp</text>
</g>
<!-- Node36&#45;&gt;Node37 -->
<g id="edge43" class="edge"><title>Node36&#45;&gt;Node37</title>
<path fill="none" stroke="midnightblue" d="M924,-206.734C924,-198.541 924,-185.923 924,-174.714"/>
<polygon fill="midnightblue" stroke="midnightblue" points="927.5,-174.589 924,-164.589 920.5,-174.589 927.5,-174.589"/>
</g>
<!-- Node38 -->
<g id="node38" class="node"><title>Node38</title>
<polygon fill="white" stroke="#bfbfbf" points="997,-134.5 997,-164.5 1107,-164.5 1107,-134.5 997,-134.5"/>
<text text-anchor="start" x="1005" y="-152.5" font-family="Helvetica,sans-Serif" font-size="10.00">boost/range/algorithm</text>
<text text-anchor="middle" x="1052" y="-141.5" font-family="Helvetica,sans-Serif" font-size="10.00">/upper_bound.hpp</text>
</g>
<!-- Node36&#45;&gt;Node38 -->
<g id="edge44" class="edge"><title>Node36&#45;&gt;Node38</title>
<path fill="none" stroke="midnightblue" d="M940.997,-206.869C959.811,-197.315 990.703,-181.627 1015.13,-169.225"/>
<polygon fill="midnightblue" stroke="midnightblue" points="1016.8,-172.3 1024.13,-164.652 1013.63,-166.059 1016.8,-172.3"/>
</g>
<!-- Node39&#45;&gt;Node4 -->
<g id="edge46" class="edge"><title>Node39&#45;&gt;Node4</title>
<path fill="none" stroke="midnightblue" d="M323.088,-268.475C300.837,-258.445 263.688,-241.7 238.074,-230.155"/>
<polygon fill="midnightblue" stroke="midnightblue" points="239.432,-226.928 228.877,-226.009 236.556,-233.309 239.432,-226.928"/>
</g>
<!-- Node41 -->
<g id="node41" class="node"><title>Node41</title>
<g id="a_node41"><a xlink:href="Debug_8hh.html" target="_top" xlink:title="boca/generic/Debug.hh">
<polygon fill="white" stroke="black" points="407.5,-268.5 407.5,-287.5 524.5,-287.5 524.5,-268.5 407.5,-268.5"/>
<text text-anchor="middle" x="466" y="-275.5" font-family="Helvetica,sans-Serif" font-size="10.00">boca/generic/Debug.hh</text>
</a>
</g>
</g>
<!-- Node40&#45;&gt;Node41 -->
<g id="edge49" class="edge"><title>Node40&#45;&gt;Node41</title>
<path fill="none" stroke="midnightblue" d="M453.029,-324.399C455.346,-316.288 458.284,-306.007 460.777,-297.281"/>
<polygon fill="midnightblue" stroke="midnightblue" points="464.144,-298.235 463.526,-287.658 457.414,-296.311 464.144,-298.235"/>
</g>
<!-- Node41&#45;&gt;Node4 -->
<g id="edge50" class="edge"><title>Node41&#45;&gt;Node4</title>
<path fill="none" stroke="midnightblue" d="M408.935,-268.476C363.861,-261.005 299.667,-248.72 245,-232 242.718,-231.302 240.38,-230.511 238.047,-229.666"/>
<polygon fill="midnightblue" stroke="midnightblue" points="239.237,-226.374 228.648,-226.002 236.694,-232.895 239.237,-226.374"/>
</g>
<!-- Node41&#45;&gt;Node11 -->
<g id="edge51" class="edge"><title>Node41&#45;&gt;Node11</title>
<path fill="none" stroke="midnightblue" d="M419.083,-268.425C366.726,-258.446 287.997,-242.056 278,-232 261.544,-215.447 258.259,-187.572 258.096,-169.105"/>
<polygon fill="midnightblue" stroke="midnightblue" points="261.597,-169.079 258.307,-159.008 254.598,-168.933 261.597,-169.079"/>
</g>
<!-- Node41&#45;&gt;Node16 -->
<g id="edge54" class="edge"><title>Node41&#45;&gt;Node16</title>
<path fill="none" stroke="midnightblue" d="M516.809,-268.433C559.095,-260.715 620.625,-248.114 673,-232 675.282,-231.298 677.622,-230.512 679.961,-229.68"/>
<polygon fill="midnightblue" stroke="midnightblue" points="681.307,-232.912 689.41,-226.087 678.819,-226.369 681.307,-232.912"/>
</g>
<!-- Node42 -->
<g id="node42" class="node"><title>Node42</title>
<polygon fill="white" stroke="#bfbfbf" points="287,-207 287,-226 339,-226 339,-207 287,-207"/>
<text text-anchor="middle" x="313" y="-214" font-family="Helvetica,sans-Serif" font-size="10.00">sstream</text>
</g>
<!-- Node41&#45;&gt;Node42 -->
<g id="edge52" class="edge"><title>Node41&#45;&gt;Node42</title>
<path fill="none" stroke="midnightblue" d="M442.862,-268.398C419.016,-259.481 380.801,-245.046 348,-232 346.361,-231.348 344.682,-230.674 342.988,-229.989"/>
<polygon fill="midnightblue" stroke="midnightblue" points="343.899,-226.58 333.318,-226.032 341.248,-233.059 343.899,-226.58"/>
</g>
<!-- Node43 -->
<g id="node43" class="node"><title>Node43</title>
<polygon fill="white" stroke="#bfbfbf" points="357,-207 357,-226 407,-226 407,-207 357,-207"/>
<text text-anchor="middle" x="382" y="-214" font-family="Helvetica,sans-Serif" font-size="10.00">iomanip</text>
</g>
<!-- Node41&#45;&gt;Node43 -->
<g id="edge53" class="edge"><title>Node41&#45;&gt;Node43</title>
<path fill="none" stroke="midnightblue" d="M453.965,-268.475C440.492,-258.931 418.434,-243.307 402.285,-231.868"/>
<polygon fill="midnightblue" stroke="midnightblue" points="404.196,-228.933 394.013,-226.009 400.15,-234.645 404.196,-228.933"/>
</g>
<!-- Node44 -->
<g id="node44" class="node"><title>Node44</title>
<polygon fill="white" stroke="#bfbfbf" points="425.5,-201.5 425.5,-231.5 530.5,-231.5 530.5,-201.5 425.5,-201.5"/>
<text text-anchor="start" x="433.5" y="-219.5" font-family="Helvetica,sans-Serif" font-size="10.00">boost/units/systems</text>
<text text-anchor="middle" x="478" y="-208.5" font-family="Helvetica,sans-Serif" font-size="10.00">/si/io.hpp</text>
</g>
<!-- Node41&#45;&gt;Node44 -->
<g id="edge55" class="edge"><title>Node41&#45;&gt;Node44</title>
<path fill="none" stroke="midnightblue" d="M467.719,-268.475C469.147,-261.396 471.25,-250.97 473.182,-241.39"/>
<polygon fill="midnightblue" stroke="midnightblue" points="476.626,-242.018 475.172,-231.523 469.764,-240.634 476.626,-242.018"/>
</g>
</g>
</svg>
