<?xml version="1.0" encoding="UTF-8" standalone="no"?>
<!DOCTYPE svg PUBLIC "-//W3C//DTD SVG 1.1//EN"
 "http://www.w3.org/Graphics/SVG/1.1/DTD/svg11.dtd">
<!-- Generated by graphviz version 2.38.0 (20140413.2041)
 -->
<!-- Title: examples/heavyhiggs/source/tagger/HeavyHiggsSemi.cpp Pages: 1 -->
<svg width="1390pt" height="620pt"
 viewBox="0.00 0.00 1390.00 620.00" xmlns="http://www.w3.org/2000/svg" xmlns:xlink="http://www.w3.org/1999/xlink">
<g id="graph0" class="graph" transform="scale(1 1) rotate(0) translate(4 616)">
<title>examples/heavyhiggs/source/tagger/HeavyHiggsSemi.cpp</title>
<polygon fill="white" stroke="none" points="-4,4 -4,-616 1386,-616 1386,4 -4,4"/>
<!-- Node1 -->
<g id="node1" class="node"><title>Node1</title>
<polygon fill="#bfbfbf" stroke="black" points="459,-581.5 459,-611.5 636,-611.5 636,-581.5 459,-581.5"/>
<text text-anchor="start" x="467" y="-599.5" font-family="Helvetica,sans-Serif" font-size="10.00">examples/heavyhiggs</text>
<text text-anchor="middle" x="547.5" y="-588.5" font-family="Helvetica,sans-Serif" font-size="10.00">/source/tagger/HeavyHiggsSemi.cpp</text>
</g>
<!-- Node2 -->
<g id="node2" class="node"><title>Node2</title>
<g id="a_node2"><a xlink:href="boca_2Event_8hh.html" target="_top" xlink:title="boca/Event.hh">
<polygon fill="white" stroke="black" points="148.5,-257.5 148.5,-276.5 228.5,-276.5 228.5,-257.5 148.5,-257.5"/>
<text text-anchor="middle" x="188.5" y="-264.5" font-family="Helvetica,sans-Serif" font-size="10.00">boca/Event.hh</text>
</a>
</g>
</g>
<!-- Node1&#45;&gt;Node2 -->
<g id="edge1" class="edge"><title>Node1&#45;&gt;Node2</title>
<path fill="none" stroke="midnightblue" d="M458.793,-592.349C371.277,-583.926 250.5,-555.615 250.5,-463.5 250.5,-463.5 250.5,-463.5 250.5,-394.5 250.5,-351.343 221.043,-307.579 202.737,-284.549"/>
<polygon fill="midnightblue" stroke="midnightblue" points="205.407,-282.285 196.352,-276.783 199.999,-286.73 205.407,-282.285"/>
</g>
<!-- Node15 -->
<g id="node15" class="node"><title>Node15</title>
<g id="a_node15"><a xlink:href="Particles_8hh.html" target="_top" xlink:title="boca/multiplets/Particles.hh">
<polygon fill="white" stroke="black" points="247,-257.5 247,-276.5 384,-276.5 384,-257.5 247,-257.5"/>
<text text-anchor="middle" x="315.5" y="-264.5" font-family="Helvetica,sans-Serif" font-size="10.00">boca/multiplets/Particles.hh</text>
</a>
</g>
</g>
<!-- Node1&#45;&gt;Node15 -->
<g id="edge19" class="edge"><title>Node1&#45;&gt;Node15</title>
<path fill="none" stroke="midnightblue" d="M472.303,-581.457C410.304,-565.019 332.5,-530.952 332.5,-463.5 332.5,-463.5 332.5,-463.5 332.5,-394.5 332.5,-355.858 324.612,-311.163 319.582,-286.592"/>
<polygon fill="midnightblue" stroke="midnightblue" points="322.948,-285.593 317.45,-276.536 316.1,-287.045 322.948,-285.593"/>
</g>
<!-- Node24 -->
<g id="node24" class="node"><title>Node24</title>
<g id="a_node24"><a xlink:href="tagger_2HeavyHiggsSemi_8hh.html" target="_top" xlink:title="heavyhiggs/tagger/HeavyHiggs\lSemi.hh">
<polygon fill="white" stroke="black" points="700,-514.5 700,-544.5 853,-544.5 853,-514.5 700,-514.5"/>
<text text-anchor="start" x="708" y="-532.5" font-family="Helvetica,sans-Serif" font-size="10.00">heavyhiggs/tagger/HeavyHiggs</text>
<text text-anchor="middle" x="776.5" y="-521.5" font-family="Helvetica,sans-Serif" font-size="10.00">Semi.hh</text>
</a>
</g>
</g>
<!-- Node1&#45;&gt;Node24 -->
<g id="edge29" class="edge"><title>Node1&#45;&gt;Node24</title>
<path fill="none" stroke="midnightblue" d="M596.908,-581.476C632.151,-571.472 679.716,-557.971 717.041,-547.377"/>
<polygon fill="midnightblue" stroke="midnightblue" points="718.122,-550.709 726.786,-544.611 716.21,-543.975 718.122,-550.709"/>
</g>
<!-- Node46 -->
<g id="node46" class="node"><title>Node46</title>
<g id="a_node46"><a xlink:href="DEBUG__MACROS_8hh.html" target="_top" xlink:title="boca/generic/DEBUG\l_MACROS.hh">
<polygon fill="white" stroke="black" points="1010,-514.5 1010,-544.5 1121,-544.5 1121,-514.5 1010,-514.5"/>
<text text-anchor="start" x="1018" y="-532.5" font-family="Helvetica,sans-Serif" font-size="10.00">boca/generic/DEBUG</text>
<text text-anchor="middle" x="1065.5" y="-521.5" font-family="Helvetica,sans-Serif" font-size="10.00">_MACROS.hh</text>
</a>
</g>
</g>
<!-- Node1&#45;&gt;Node46 -->
<g id="edge61" class="edge"><title>Node1&#45;&gt;Node46</title>
<path fill="none" stroke="midnightblue" d="M636.253,-584.363C739.499,-571.407 907.543,-550.321 999.765,-538.749"/>
<polygon fill="midnightblue" stroke="midnightblue" points="1000.32,-542.206 1009.81,-537.488 999.452,-535.261 1000.32,-542.206"/>
</g>
<!-- Node3 -->
<g id="node3" class="node"><title>Node3</title>
<g id="a_node3"><a xlink:href="Flag_8hh.html" target="_top" xlink:title="boca/generic/Flag.hh">
<polygon fill="white" stroke="black" points="0,-196 0,-215 107,-215 107,-196 0,-196"/>
<text text-anchor="middle" x="53.5" y="-203" font-family="Helvetica,sans-Serif" font-size="10.00">boca/generic/Flag.hh</text>
</a>
</g>
</g>
<!-- Node2&#45;&gt;Node3 -->
<g id="edge2" class="edge"><title>Node2&#45;&gt;Node3</title>
<path fill="none" stroke="midnightblue" d="M169.158,-257.475C146.401,-247.445 108.408,-230.7 82.2121,-219.155"/>
<polygon fill="midnightblue" stroke="midnightblue" points="83.3686,-215.839 72.8063,-215.009 80.5454,-222.245 83.3686,-215.839"/>
</g>
<!-- Node5 -->
<g id="node5" class="node"><title>Node5</title>
<g id="a_node5"><a xlink:href="Jet_8hh.html" target="_top" xlink:title="boca/multiplets/Jet.hh">
<polygon fill="white" stroke="black" points="125,-196 125,-215 238,-215 238,-196 125,-196"/>
<text text-anchor="middle" x="181.5" y="-203" font-family="Helvetica,sans-Serif" font-size="10.00">boca/multiplets/Jet.hh</text>
</a>
</g>
</g>
<!-- Node2&#45;&gt;Node5 -->
<g id="edge4" class="edge"><title>Node2&#45;&gt;Node5</title>
<path fill="none" stroke="midnightblue" d="M187.497,-257.475C186.509,-249.08 184.968,-235.981 183.696,-225.163"/>
<polygon fill="midnightblue" stroke="midnightblue" points="187.146,-224.532 182.501,-215.009 180.194,-225.35 187.146,-224.532"/>
</g>
<!-- Node13 -->
<g id="node13" class="node"><title>Node13</title>
<g id="a_node13"><a xlink:href="multiplets_2Particle_8hh.html" target="_top" xlink:title="boca/multiplets/Particle.hh">
<polygon fill="white" stroke="black" points="256.5,-196 256.5,-215 388.5,-215 388.5,-196 256.5,-196"/>
<text text-anchor="middle" x="322.5" y="-203" font-family="Helvetica,sans-Serif" font-size="10.00">boca/multiplets/Particle.hh</text>
</a>
</g>
</g>
<!-- Node2&#45;&gt;Node13 -->
<g id="edge14" class="edge"><title>Node2&#45;&gt;Node13</title>
<path fill="none" stroke="midnightblue" d="M207.699,-257.475C230.287,-247.445 267.999,-230.7 294.001,-219.155"/>
<polygon fill="midnightblue" stroke="midnightblue" points="295.618,-222.266 303.337,-215.009 292.777,-215.869 295.618,-222.266"/>
</g>
<!-- Node4 -->
<g id="node4" class="node"><title>Node4</title>
<polygon fill="white" stroke="#bfbfbf" points="22.5,-129 22.5,-148 84.5,-148 84.5,-129 22.5,-129"/>
<text text-anchor="middle" x="53.5" y="-136" font-family="Helvetica,sans-Serif" font-size="10.00">type_traits</text>
</g>
<!-- Node3&#45;&gt;Node4 -->
<g id="edge3" class="edge"><title>Node3&#45;&gt;Node4</title>
<path fill="none" stroke="midnightblue" d="M53.5,-195.734C53.5,-186.183 53.5,-170.618 53.5,-158.283"/>
<polygon fill="midnightblue" stroke="midnightblue" points="57.0001,-158.127 53.5,-148.127 50.0001,-158.127 57.0001,-158.127"/>
</g>
<!-- Node6 -->
<g id="node6" class="node"><title>Node6</title>
<g id="a_node6"><a xlink:href="PseudoJet_8hh.html" target="_top" xlink:title="boca/fastjet/PseudoJet.hh">
<polygon fill="white" stroke="black" points="65,-62 65,-81 196,-81 196,-62 65,-62"/>
<text text-anchor="middle" x="130.5" y="-69" font-family="Helvetica,sans-Serif" font-size="10.00">boca/fastjet/PseudoJet.hh</text>
</a>
</g>
</g>
<!-- Node5&#45;&gt;Node6 -->
<g id="edge5" class="edge"><title>Node5&#45;&gt;Node6</title>
<path fill="none" stroke="midnightblue" d="M176.154,-195.827C170.25,-185.972 160.754,-169.272 154.5,-154 145.962,-133.15 139.068,-108.165 134.896,-91.4033"/>
<polygon fill="midnightblue" stroke="midnightblue" points="138.199,-90.1679 132.456,-81.2644 131.393,-91.8058 138.199,-90.1679"/>
</g>
<!-- Node9 -->
<g id="node9" class="node"><title>Node9</title>
<g id="a_node9"><a xlink:href="JetInfo_8hh.html" target="_top" xlink:title="boca/multiplets/JetInfo.hh">
<polygon fill="white" stroke="black" points="197,-129 197,-148 326,-148 326,-129 197,-129"/>
<text text-anchor="middle" x="261.5" y="-136" font-family="Helvetica,sans-Serif" font-size="10.00">boca/multiplets/JetInfo.hh</text>
</a>
</g>
</g>
<!-- Node5&#45;&gt;Node9 -->
<g id="edge9" class="edge"><title>Node5&#45;&gt;Node9</title>
<path fill="none" stroke="midnightblue" d="M192.289,-195.734C205.244,-185.208 227.187,-167.379 242.894,-154.617"/>
<polygon fill="midnightblue" stroke="midnightblue" points="245.328,-157.15 250.882,-148.127 240.914,-151.717 245.328,-157.15"/>
</g>
<!-- Node6&#45;&gt;Node6 -->
<g id="edge7" class="edge"><title>Node6&#45;&gt;Node6</title>
<path fill="none" stroke="midnightblue" d="M161.331,-81.0334C187.087,-85.1075 214,-81.9297 214,-71.5 214,-62.4148 193.579,-58.8323 171.289,-60.7526"/>
<polygon fill="midnightblue" stroke="midnightblue" points="170.834,-57.2821 161.331,-61.9666 171.681,-64.2306 170.834,-57.2821"/>
</g>
<!-- Node7 -->
<g id="node7" class="node"><title>Node7</title>
<polygon fill="white" stroke="#bfbfbf" points="12,-0.5 12,-19.5 115,-19.5 115,-0.5 12,-0.5"/>
<text text-anchor="middle" x="63.5" y="-7.5" font-family="Helvetica,sans-Serif" font-size="10.00">boost/operators.hpp</text>
</g>
<!-- Node6&#45;&gt;Node7 -->
<g id="edge6" class="edge"><title>Node6&#45;&gt;Node7</title>
<path fill="none" stroke="midnightblue" d="M120.901,-61.9751C110.452,-52.6966 93.5325,-37.6706 80.7635,-26.331"/>
<polygon fill="midnightblue" stroke="midnightblue" points="82.8829,-23.5323 73.0817,-19.5091 78.2348,-28.7663 82.8829,-23.5323"/>
</g>
<!-- Node8 -->
<g id="node8" class="node"><title>Node8</title>
<g id="a_node8"><a xlink:href="LorentzVector_8hh.html" target="_top" xlink:title="boca/math/LorentzVector.hh">
<polygon fill="white" stroke="red" points="133.5,-0.5 133.5,-19.5 273.5,-19.5 273.5,-0.5 133.5,-0.5"/>
<text text-anchor="middle" x="203.5" y="-7.5" font-family="Helvetica,sans-Serif" font-size="10.00">boca/math/LorentzVector.hh</text>
</a>
</g>
</g>
<!-- Node6&#45;&gt;Node8 -->
<g id="edge8" class="edge"><title>Node6&#45;&gt;Node8</title>
<path fill="none" stroke="midnightblue" d="M140.959,-61.9751C152.451,-52.6082 171.13,-37.3839 185.087,-26.0081"/>
<polygon fill="midnightblue" stroke="midnightblue" points="187.52,-28.54 193.06,-19.5091 183.098,-23.114 187.52,-28.54"/>
</g>
<!-- Node9&#45;&gt;Node6 -->
<g id="edge10" class="edge"><title>Node9&#45;&gt;Node6</title>
<path fill="none" stroke="midnightblue" d="M244.104,-128.869C221.887,-117.845 183.213,-98.6554 157.24,-85.7678"/>
<polygon fill="midnightblue" stroke="midnightblue" points="158.481,-82.4767 147.968,-81.1672 155.37,-88.7473 158.481,-82.4767"/>
</g>
<!-- Node10 -->
<g id="node10" class="node"><title>Node10</title>
<g id="a_node10"><a xlink:href="Constituent_8hh.html" target="_top" xlink:title="boca/Constituent.hh">
<polygon fill="white" stroke="black" points="232.5,-62 232.5,-81 336.5,-81 336.5,-62 232.5,-62"/>
<text text-anchor="middle" x="284.5" y="-69" font-family="Helvetica,sans-Serif" font-size="10.00">boca/Constituent.hh</text>
</a>
</g>
</g>
<!-- Node9&#45;&gt;Node10 -->
<g id="edge11" class="edge"><title>Node9&#45;&gt;Node10</title>
<path fill="none" stroke="midnightblue" d="M264.602,-128.734C268.016,-119.085 273.602,-103.3 277.987,-90.9063"/>
<polygon fill="midnightblue" stroke="midnightblue" points="281.411,-91.7221 281.447,-81.1273 274.812,-89.387 281.411,-91.7221"/>
</g>
<!-- Node12 -->
<g id="node12" class="node"><title>Node12</title>
<g id="a_node12"><a xlink:href="Identification_8hh.html" target="_top" xlink:title="boca/multiplets/Identification.hh">
<polygon fill="white" stroke="red" points="355,-62 355,-81 510,-81 510,-62 355,-62"/>
<text text-anchor="middle" x="432.5" y="-69" font-family="Helvetica,sans-Serif" font-size="10.00">boca/multiplets/Identification.hh</text>
</a>
</g>
</g>
<!-- Node9&#45;&gt;Node12 -->
<g id="edge13" class="edge"><title>Node9&#45;&gt;Node12</title>
<path fill="none" stroke="midnightblue" d="M284.207,-128.869C314.058,-117.522 366.666,-97.5246 400.53,-84.6522"/>
<polygon fill="midnightblue" stroke="midnightblue" points="401.867,-87.8885 409.971,-81.0637 399.38,-81.3452 401.867,-87.8885"/>
</g>
<!-- Node11 -->
<g id="node11" class="node"><title>Node11</title>
<g id="a_node11"><a xlink:href="Family_8hh.html" target="_top" xlink:title="boca/physics/Family.hh">
<polygon fill="white" stroke="red" points="384.5,-0.5 384.5,-19.5 504.5,-19.5 504.5,-0.5 384.5,-0.5"/>
<text text-anchor="middle" x="444.5" y="-7.5" font-family="Helvetica,sans-Serif" font-size="10.00">boca/physics/Family.hh</text>
</a>
</g>
</g>
<!-- Node10&#45;&gt;Node11 -->
<g id="edge12" class="edge"><title>Node10&#45;&gt;Node11</title>
<path fill="none" stroke="midnightblue" d="M307.424,-61.9751C334.87,-51.7687 381.016,-34.608 412.099,-23.0492"/>
<polygon fill="midnightblue" stroke="midnightblue" points="413.465,-26.2752 421.618,-19.5091 411.026,-19.7142 413.465,-26.2752"/>
</g>
<!-- Node13&#45;&gt;Node6 -->
<g id="edge15" class="edge"><title>Node13&#45;&gt;Node6</title>
<path fill="none" stroke="midnightblue" d="M281.216,-195.928C252.701,-188.456 215.094,-175.381 187.5,-154 165.389,-136.867 148.437,-108.781 138.968,-90.4657"/>
<polygon fill="midnightblue" stroke="midnightblue" points="142.067,-88.8356 134.493,-81.4271 135.794,-91.9418 142.067,-88.8356"/>
</g>
<!-- Node14 -->
<g id="node14" class="node"><title>Node14</title>
<g id="a_node14"><a xlink:href="ParticleInfo_8hh.html" target="_top" xlink:title="boca/multiplets/Particle\lInfo.hh">
<polygon fill="white" stroke="black" points="344,-123.5 344,-153.5 463,-153.5 463,-123.5 344,-123.5"/>
<text text-anchor="start" x="352" y="-141.5" font-family="Helvetica,sans-Serif" font-size="10.00">boca/multiplets/Particle</text>
<text text-anchor="middle" x="403.5" y="-130.5" font-family="Helvetica,sans-Serif" font-size="10.00">Info.hh</text>
</a>
</g>
</g>
<!-- Node13&#45;&gt;Node14 -->
<g id="edge16" class="edge"><title>Node13&#45;&gt;Node14</title>
<path fill="none" stroke="midnightblue" d="M333.424,-195.734C344.792,-186.611 362.995,-172.004 378,-159.963"/>
<polygon fill="midnightblue" stroke="midnightblue" points="380.334,-162.577 385.943,-153.589 375.953,-157.118 380.334,-162.577"/>
</g>
<!-- Node14&#45;&gt;Node6 -->
<g id="edge17" class="edge"><title>Node14&#45;&gt;Node6</title>
<path fill="none" stroke="midnightblue" d="M344.599,-123.476C294.072,-111.446 222.303,-94.3579 176.067,-83.3493"/>
<polygon fill="midnightblue" stroke="midnightblue" points="176.859,-79.9401 166.32,-81.0287 175.238,-86.7498 176.859,-79.9401"/>
</g>
<!-- Node14&#45;&gt;Node11 -->
<g id="edge18" class="edge"><title>Node14&#45;&gt;Node11</title>
<path fill="none" stroke="midnightblue" d="M463.265,-125.526C484.385,-118.11 505.981,-106.17 518.5,-87 526.033,-75.4642 525.253,-68.0095 518.5,-56 510.279,-41.3782 495.169,-30.9543 480.737,-23.8465"/>
<polygon fill="midnightblue" stroke="midnightblue" points="481.984,-20.5693 471.429,-19.6437 479.103,-26.9491 481.984,-20.5693"/>
</g>
<!-- Node15&#45;&gt;Node13 -->
<g id="edge20" class="edge"><title>Node15&#45;&gt;Node13</title>
<path fill="none" stroke="midnightblue" d="M316.503,-257.475C317.491,-249.08 319.032,-235.981 320.304,-225.163"/>
<polygon fill="midnightblue" stroke="midnightblue" points="323.806,-225.35 321.499,-215.009 316.854,-224.532 323.806,-225.35"/>
</g>
<!-- Node16 -->
<g id="node16" class="node"><title>Node16</title>
<g id="a_node16"><a xlink:href="Id_8hh.html" target="_top" xlink:title="boca/physics/Id.hh">
<polygon fill="white" stroke="black" points="790,-196 790,-215 889,-215 889,-196 790,-196"/>
<text text-anchor="middle" x="839.5" y="-203" font-family="Helvetica,sans-Serif" font-size="10.00">boca/physics/Id.hh</text>
</a>
</g>
</g>
<!-- Node15&#45;&gt;Node16 -->
<g id="edge21" class="edge"><title>Node15&#45;&gt;Node16</title>
<path fill="none" stroke="midnightblue" d="M384.345,-257.94C387.099,-257.622 389.826,-257.307 392.5,-257 531.175,-241.062 694.103,-222.763 779.819,-213.168"/>
<polygon fill="midnightblue" stroke="midnightblue" points="780.334,-216.633 789.883,-212.042 779.556,-209.676 780.334,-216.633"/>
</g>
<!-- Node17 -->
<g id="node17" class="node"><title>Node17</title>
<polygon fill="white" stroke="#bfbfbf" points="973,-129 973,-148 1014,-148 1014,-129 973,-129"/>
<text text-anchor="middle" x="993.5" y="-136" font-family="Helvetica,sans-Serif" font-size="10.00">string</text>
</g>
<!-- Node16&#45;&gt;Node17 -->
<g id="edge22" class="edge"><title>Node16&#45;&gt;Node17</title>
<path fill="none" stroke="midnightblue" d="M859.95,-195.869C886.528,-184.65 933.14,-164.977 963.666,-152.092"/>
<polygon fill="midnightblue" stroke="midnightblue" points="965.113,-155.28 972.965,-148.167 962.391,-148.831 965.113,-155.28"/>
</g>
<!-- Node18 -->
<g id="node18" class="node"><title>Node18</title>
<polygon fill="white" stroke="#bfbfbf" points="1053.5,-129 1053.5,-148 1097.5,-148 1097.5,-129 1053.5,-129"/>
<text text-anchor="middle" x="1075.5" y="-136" font-family="Helvetica,sans-Serif" font-size="10.00">vector</text>
</g>
<!-- Node16&#45;&gt;Node18 -->
<g id="edge23" class="edge"><title>Node16&#45;&gt;Node18</title>
<path fill="none" stroke="midnightblue" d="M870.839,-195.869C915.74,-183.502 997.95,-160.859 1043.31,-148.365"/>
<polygon fill="midnightblue" stroke="midnightblue" points="1044.5,-151.669 1053.21,-145.639 1042.64,-144.92 1044.5,-151.669"/>
</g>
<!-- Node19 -->
<g id="node19" class="node"><title>Node19</title>
<g id="a_node19"><a xlink:href="ElectronVolt_8hh.html" target="_top" xlink:title="boca/physics/ElectronVolt.hh">
<polygon fill="white" stroke="black" points="767.5,-129 767.5,-148 911.5,-148 911.5,-129 767.5,-129"/>
<text text-anchor="middle" x="839.5" y="-136" font-family="Helvetica,sans-Serif" font-size="10.00">boca/physics/ElectronVolt.hh</text>
</a>
</g>
</g>
<!-- Node16&#45;&gt;Node19 -->
<g id="edge24" class="edge"><title>Node16&#45;&gt;Node19</title>
<path fill="none" stroke="midnightblue" d="M839.5,-195.734C839.5,-186.183 839.5,-170.618 839.5,-158.283"/>
<polygon fill="midnightblue" stroke="midnightblue" points="843,-158.127 839.5,-148.127 836,-158.127 843,-158.127"/>
</g>
<!-- Node20 -->
<g id="node20" class="node"><title>Node20</title>
<polygon fill="white" stroke="#bfbfbf" points="578,-62 578,-81 735,-81 735,-62 578,-62"/>
<text text-anchor="middle" x="656.5" y="-69" font-family="Helvetica,sans-Serif" font-size="10.00">boost/units/base_dimension.hpp</text>
</g>
<!-- Node19&#45;&gt;Node20 -->
<g id="edge25" class="edge"><title>Node19&#45;&gt;Node20</title>
<path fill="none" stroke="midnightblue" d="M815.199,-128.869C783.117,-117.473 726.47,-97.3528 690.248,-84.4869"/>
<polygon fill="midnightblue" stroke="midnightblue" points="691.205,-81.1127 680.61,-81.0637 688.862,-87.7089 691.205,-81.1127"/>
</g>
<!-- Node21 -->
<g id="node21" class="node"><title>Node21</title>
<polygon fill="white" stroke="#bfbfbf" points="753.5,-62 753.5,-81 881.5,-81 881.5,-62 753.5,-62"/>
<text text-anchor="middle" x="817.5" y="-69" font-family="Helvetica,sans-Serif" font-size="10.00">boost/units/base_unit.hpp</text>
</g>
<!-- Node19&#45;&gt;Node21 -->
<g id="edge26" class="edge"><title>Node19&#45;&gt;Node21</title>
<path fill="none" stroke="midnightblue" d="M836.533,-128.734C833.267,-119.085 827.925,-103.3 823.73,-90.9063"/>
<polygon fill="midnightblue" stroke="midnightblue" points="826.941,-89.4774 820.42,-81.1273 820.311,-91.7216 826.941,-89.4774"/>
</g>
<!-- Node22 -->
<g id="node22" class="node"><title>Node22</title>
<polygon fill="white" stroke="#bfbfbf" points="900,-62 900,-81 1021,-81 1021,-62 900,-62"/>
<text text-anchor="middle" x="960.5" y="-69" font-family="Helvetica,sans-Serif" font-size="10.00">boost/units/quantity.hpp</text>
</g>
<!-- Node19&#45;&gt;Node22 -->
<g id="edge27" class="edge"><title>Node19&#45;&gt;Node22</title>
<path fill="none" stroke="midnightblue" d="M855.819,-128.734C876.32,-117.721 911.704,-98.7129 935.595,-85.8787"/>
<polygon fill="midnightblue" stroke="midnightblue" points="937.287,-88.943 944.44,-81.1273 933.974,-82.7764 937.287,-88.943"/>
</g>
<!-- Node23 -->
<g id="node23" class="node"><title>Node23</title>
<polygon fill="white" stroke="#bfbfbf" points="1039,-56.5 1039,-86.5 1144,-86.5 1144,-56.5 1039,-56.5"/>
<text text-anchor="start" x="1047" y="-74.5" font-family="Helvetica,sans-Serif" font-size="10.00">boost/units/systems</text>
<text text-anchor="middle" x="1091.5" y="-63.5" font-family="Helvetica,sans-Serif" font-size="10.00">/si/energy.hpp</text>
</g>
<!-- Node19&#45;&gt;Node23 -->
<g id="edge28" class="edge"><title>Node19&#45;&gt;Node23</title>
<path fill="none" stroke="midnightblue" d="M872.704,-128.936C912.34,-118.712 979.468,-101.397 1028.94,-88.6363"/>
<polygon fill="midnightblue" stroke="midnightblue" points="1030.09,-91.9543 1038.9,-86.0675 1028.34,-85.1762 1030.09,-91.9543"/>
</g>
<!-- Node25 -->
<g id="node25" class="node"><title>Node25</title>
<g id="a_node25"><a xlink:href="tagger_2TopLeptonic_8hh.html" target="_top" xlink:title="standardmodel/tagger\l/TopLeptonic.hh">
<polygon fill="white" stroke="black" points="519.5,-447.5 519.5,-477.5 629.5,-477.5 629.5,-447.5 519.5,-447.5"/>
<text text-anchor="start" x="527.5" y="-465.5" font-family="Helvetica,sans-Serif" font-size="10.00">standardmodel/tagger</text>
<text text-anchor="middle" x="574.5" y="-454.5" font-family="Helvetica,sans-Serif" font-size="10.00">/TopLeptonic.hh</text>
</a>
</g>
</g>
<!-- Node24&#45;&gt;Node25 -->
<g id="edge30" class="edge"><title>Node24&#45;&gt;Node25</title>
<path fill="none" stroke="midnightblue" d="M732.669,-514.396C701.963,-504.515 660.746,-491.252 628.086,-480.743"/>
<polygon fill="midnightblue" stroke="midnightblue" points="628.837,-477.308 618.245,-477.577 626.693,-483.971 628.837,-477.308"/>
</g>
<!-- Node39 -->
<g id="node39" class="node"><title>Node39</title>
<g id="a_node39"><a xlink:href="tagger_2TopHadronic_8hh.html" target="_top" xlink:title="standardmodel/tagger\l/TopHadronic.hh">
<polygon fill="white" stroke="black" points="858.5,-447.5 858.5,-477.5 968.5,-477.5 968.5,-447.5 858.5,-447.5"/>
<text text-anchor="start" x="866.5" y="-465.5" font-family="Helvetica,sans-Serif" font-size="10.00">standardmodel/tagger</text>
<text text-anchor="middle" x="913.5" y="-454.5" font-family="Helvetica,sans-Serif" font-size="10.00">/TopHadronic.hh</text>
</a>
</g>
</g>
<!-- Node24&#45;&gt;Node39 -->
<g id="edge47" class="edge"><title>Node24&#45;&gt;Node39</title>
<path fill="none" stroke="midnightblue" d="M806.227,-514.396C826.244,-504.899 852.848,-492.276 874.554,-481.978"/>
<polygon fill="midnightblue" stroke="midnightblue" points="876.297,-485.025 883.831,-477.577 873.296,-478.701 876.297,-485.025"/>
</g>
<!-- Node44 -->
<g id="node44" class="node"><title>Node44</title>
<g id="a_node44"><a xlink:href="Sextet_8hh.html" target="_top" xlink:title="boca/multiplets/Sextet.hh">
<polygon fill="white" stroke="black" points="712.5,-453 712.5,-472 840.5,-472 840.5,-453 712.5,-453"/>
<text text-anchor="middle" x="776.5" y="-460" font-family="Helvetica,sans-Serif" font-size="10.00">boca/multiplets/Sextet.hh</text>
</a>
</g>
</g>
<!-- Node24&#45;&gt;Node44 -->
<g id="edge57" class="edge"><title>Node24&#45;&gt;Node44</title>
<path fill="none" stroke="midnightblue" d="M776.5,-514.396C776.5,-505.064 776.5,-492.714 776.5,-482.517"/>
<polygon fill="midnightblue" stroke="midnightblue" points="780,-482.195 776.5,-472.195 773,-482.195 780,-482.195"/>
</g>
<!-- Node45 -->
<g id="node45" class="node"><title>Node45</title>
<g id="a_node45"><a xlink:href="branch_2HeavyHiggsSemi_8hh.html" target="_top" xlink:title="heavyhiggs/branch/HeavyHiggs\lSemi.hh">
<polygon fill="white" stroke="black" points="1026,-447.5 1026,-477.5 1181,-477.5 1181,-447.5 1026,-447.5"/>
<text text-anchor="start" x="1034" y="-465.5" font-family="Helvetica,sans-Serif" font-size="10.00">heavyhiggs/branch/HeavyHiggs</text>
<text text-anchor="middle" x="1103.5" y="-454.5" font-family="Helvetica,sans-Serif" font-size="10.00">Semi.hh</text>
</a>
</g>
</g>
<!-- Node24&#45;&gt;Node45 -->
<g id="edge59" class="edge"><title>Node24&#45;&gt;Node45</title>
<path fill="none" stroke="midnightblue" d="M847.052,-514.476C898.751,-504.199 969.018,-490.232 1022.93,-479.516"/>
<polygon fill="midnightblue" stroke="midnightblue" points="1023.67,-482.937 1032.79,-477.555 1022.3,-476.072 1023.67,-482.937"/>
</g>
<!-- Node26 -->
<g id="node26" class="node"><title>Node26</title>
<g id="a_node26"><a xlink:href="Triplet_8hh.html" target="_top" xlink:title="boca/multiplets/Triplet.hh">
<polygon fill="white" stroke="black" points="714.5,-386 714.5,-405 840.5,-405 840.5,-386 714.5,-386"/>
<text text-anchor="middle" x="777.5" y="-393" font-family="Helvetica,sans-Serif" font-size="10.00">boca/multiplets/Triplet.hh</text>
</a>
</g>
</g>
<!-- Node25&#45;&gt;Node26 -->
<g id="edge31" class="edge"><title>Node25&#45;&gt;Node26</title>
<path fill="none" stroke="midnightblue" d="M618.548,-447.396C655.27,-435.638 706.952,-419.089 741.298,-408.092"/>
<polygon fill="midnightblue" stroke="midnightblue" points="742.476,-411.39 750.932,-405.007 740.341,-404.723 742.476,-411.39"/>
</g>
<!-- Node28 -->
<g id="node28" class="node"><title>Node28</title>
<g id="a_node28"><a xlink:href="Reader_8hh.html" target="_top" xlink:title="boca/multivariant/Reader.hh">
<polygon fill="white" stroke="black" points="503,-319 503,-338 642,-338 642,-319 503,-319"/>
<text text-anchor="middle" x="572.5" y="-326" font-family="Helvetica,sans-Serif" font-size="10.00">boca/multivariant/Reader.hh</text>
</a>
</g>
</g>
<!-- Node25&#45;&gt;Node28 -->
<g id="edge33" class="edge"><title>Node25&#45;&gt;Node28</title>
<path fill="none" stroke="midnightblue" d="M519.122,-460.166C482.442,-456.037 436.767,-443.984 412.5,-411 384.412,-372.824 446.121,-351.247 500.873,-340.018"/>
<polygon fill="midnightblue" stroke="midnightblue" points="501.85,-343.393 510.992,-338.04 500.507,-336.523 501.85,-343.393"/>
</g>
<!-- Node36 -->
<g id="node36" class="node"><title>Node36</title>
<g id="a_node36"><a xlink:href="tagger_2Bottom_8hh.html" target="_top" xlink:title="standardmodel/tagger\l/Bottom.hh">
<polygon fill="white" stroke="red" points="660.5,-313.5 660.5,-343.5 770.5,-343.5 770.5,-313.5 660.5,-313.5"/>
<text text-anchor="start" x="668.5" y="-331.5" font-family="Helvetica,sans-Serif" font-size="10.00">standardmodel/tagger</text>
<text text-anchor="middle" x="715.5" y="-320.5" font-family="Helvetica,sans-Serif" font-size="10.00">/Bottom.hh</text>
</a>
</g>
</g>
<!-- Node25&#45;&gt;Node36 -->
<g id="edge43" class="edge"><title>Node25&#45;&gt;Node36</title>
<path fill="none" stroke="midnightblue" d="M519.104,-448.524C472.986,-435.139 418.84,-411.75 445.5,-380 473.558,-346.585 590.745,-352.22 650.171,-343.71"/>
<polygon fill="midnightblue" stroke="midnightblue" points="650.941,-347.129 660.218,-342.012 649.775,-340.227 650.941,-347.129"/>
</g>
<!-- Node37 -->
<g id="node37" class="node"><title>Node37</title>
<g id="a_node37"><a xlink:href="tagger_2WLeptonic_8hh.html" target="_top" xlink:title="standardmodel/tagger\l/WLeptonic.hh">
<polygon fill="white" stroke="red" points="454.5,-380.5 454.5,-410.5 564.5,-410.5 564.5,-380.5 454.5,-380.5"/>
<text text-anchor="start" x="462.5" y="-398.5" font-family="Helvetica,sans-Serif" font-size="10.00">standardmodel/tagger</text>
<text text-anchor="middle" x="509.5" y="-387.5" font-family="Helvetica,sans-Serif" font-size="10.00">/WLeptonic.hh</text>
</a>
</g>
</g>
<!-- Node25&#45;&gt;Node37 -->
<g id="edge44" class="edge"><title>Node25&#45;&gt;Node37</title>
<path fill="none" stroke="midnightblue" d="M560.396,-447.396C551.708,-438.708 540.405,-427.405 530.658,-417.658"/>
<polygon fill="midnightblue" stroke="midnightblue" points="533.122,-415.173 523.577,-410.577 528.173,-420.122 533.122,-415.173"/>
</g>
<!-- Node38 -->
<g id="node38" class="node"><title>Node38</title>
<g id="a_node38"><a xlink:href="branch_2TopLeptonic_8hh.html" target="_top" xlink:title="standardmodel/branch\l/TopLeptonic.hh">
<polygon fill="white" stroke="red" points="583,-380.5 583,-410.5 696,-410.5 696,-380.5 583,-380.5"/>
<text text-anchor="start" x="591" y="-398.5" font-family="Helvetica,sans-Serif" font-size="10.00">standardmodel/branch</text>
<text text-anchor="middle" x="639.5" y="-387.5" font-family="Helvetica,sans-Serif" font-size="10.00">/TopLeptonic.hh</text>
</a>
</g>
</g>
<!-- Node25&#45;&gt;Node38 -->
<g id="edge46" class="edge"><title>Node25&#45;&gt;Node38</title>
<path fill="none" stroke="midnightblue" d="M588.604,-447.396C597.292,-438.708 608.595,-427.405 618.342,-417.658"/>
<polygon fill="midnightblue" stroke="midnightblue" points="620.827,-420.122 625.423,-410.577 615.878,-415.173 620.827,-420.122"/>
</g>
<!-- Node27 -->
<g id="node27" class="node"><title>Node27</title>
<g id="a_node27"><a xlink:href="Doublet_8hh.html" target="_top" xlink:title="boca/multiplets/Doublet.hh">
<polygon fill="white" stroke="red" points="789,-319 789,-338 922,-338 922,-319 789,-319"/>
<text text-anchor="middle" x="855.5" y="-326" font-family="Helvetica,sans-Serif" font-size="10.00">boca/multiplets/Doublet.hh</text>
</a>
</g>
</g>
<!-- Node26&#45;&gt;Node27 -->
<g id="edge32" class="edge"><title>Node26&#45;&gt;Node27</title>
<path fill="none" stroke="midnightblue" d="M788.019,-385.734C800.65,-375.208 822.045,-357.379 837.359,-344.617"/>
<polygon fill="midnightblue" stroke="midnightblue" points="839.706,-347.218 845.147,-338.127 835.224,-341.84 839.706,-347.218"/>
</g>
<!-- Node28&#45;&gt;Node2 -->
<g id="edge42" class="edge"><title>Node28&#45;&gt;Node2</title>
<path fill="none" stroke="midnightblue" d="M511.889,-318.959C446.881,-309.664 340.36,-294.048 238.728,-277.163"/>
<polygon fill="midnightblue" stroke="midnightblue" points="239.033,-273.665 228.593,-275.472 237.881,-280.57 239.033,-273.665"/>
</g>
<!-- Node29 -->
<g id="node29" class="node"><title>Node29</title>
<polygon fill="white" stroke="#bfbfbf" points="402,-257.5 402,-276.5 489,-276.5 489,-257.5 402,-257.5"/>
<text text-anchor="middle" x="445.5" y="-264.5" font-family="Helvetica,sans-Serif" font-size="10.00">TMVA/Reader.h</text>
</g>
<!-- Node28&#45;&gt;Node29 -->
<g id="edge34" class="edge"><title>Node28&#45;&gt;Node29</title>
<path fill="none" stroke="midnightblue" d="M554.304,-318.975C532.991,-308.99 497.469,-292.348 472.837,-280.807"/>
<polygon fill="midnightblue" stroke="midnightblue" points="474.203,-277.582 463.662,-276.509 471.233,-283.921 474.203,-277.582"/>
</g>
<!-- Node30 -->
<g id="node30" class="node"><title>Node30</title>
<g id="a_node30"><a xlink:href="Options_8hh.html" target="_top" xlink:title="boca/generic/Options.hh">
<polygon fill="white" stroke="black" points="507.5,-257.5 507.5,-276.5 629.5,-276.5 629.5,-257.5 507.5,-257.5"/>
<text text-anchor="middle" x="568.5" y="-264.5" font-family="Helvetica,sans-Serif" font-size="10.00">boca/generic/Options.hh</text>
</a>
</g>
</g>
<!-- Node28&#45;&gt;Node30 -->
<g id="edge35" class="edge"><title>Node28&#45;&gt;Node30</title>
<path fill="none" stroke="midnightblue" d="M571.927,-318.975C571.363,-310.58 570.482,-297.481 569.755,-286.663"/>
<polygon fill="midnightblue" stroke="midnightblue" points="573.235,-286.252 569.072,-276.509 566.251,-286.721 573.235,-286.252"/>
</g>
<!-- Node32 -->
<g id="node32" class="node"><title>Node32</title>
<g id="a_node32"><a xlink:href="TreeWriter_8hh.html" target="_top" xlink:title="boca/io/TreeWriter.hh">
<polygon fill="white" stroke="red" points="647.5,-257.5 647.5,-276.5 757.5,-276.5 757.5,-257.5 647.5,-257.5"/>
<text text-anchor="middle" x="702.5" y="-264.5" font-family="Helvetica,sans-Serif" font-size="10.00">boca/io/TreeWriter.hh</text>
</a>
</g>
</g>
<!-- Node28&#45;&gt;Node32 -->
<g id="edge37" class="edge"><title>Node28&#45;&gt;Node32</title>
<path fill="none" stroke="midnightblue" d="M591.126,-318.975C612.943,-308.99 649.304,-292.348 674.517,-280.807"/>
<polygon fill="midnightblue" stroke="midnightblue" points="676.272,-283.853 683.909,-276.509 673.359,-277.488 676.272,-283.853"/>
</g>
<!-- Node33 -->
<g id="node33" class="node"><title>Node33</title>
<g id="a_node33"><a xlink:href="Sort_8hh.html" target="_top" xlink:title="boca/multiplets/Sort.hh">
<polygon fill="white" stroke="red" points="776,-257.5 776,-276.5 893,-276.5 893,-257.5 776,-257.5"/>
<text text-anchor="middle" x="834.5" y="-264.5" font-family="Helvetica,sans-Serif" font-size="10.00">boca/multiplets/Sort.hh</text>
</a>
</g>
</g>
<!-- Node28&#45;&gt;Node33 -->
<g id="edge38" class="edge"><title>Node28&#45;&gt;Node33</title>
<path fill="none" stroke="midnightblue" d="M610.038,-318.975C656.731,-308.371 736.48,-290.26 787.277,-278.724"/>
<polygon fill="midnightblue" stroke="midnightblue" points="788.055,-282.137 797.031,-276.509 786.505,-275.311 788.055,-282.137"/>
</g>
<!-- Node34 -->
<g id="node34" class="node"><title>Node34</title>
<g id="a_node34"><a xlink:href="Phase_8hh.html" target="_top" xlink:title="boca/multivariant/Phase.hh">
<polygon fill="white" stroke="red" points="911,-257.5 911,-276.5 1046,-276.5 1046,-257.5 911,-257.5"/>
<text text-anchor="middle" x="978.5" y="-264.5" font-family="Helvetica,sans-Serif" font-size="10.00">boca/multivariant/Phase.hh</text>
</a>
</g>
</g>
<!-- Node28&#45;&gt;Node34 -->
<g id="edge40" class="edge"><title>Node28&#45;&gt;Node34</title>
<path fill="none" stroke="midnightblue" d="M617.144,-318.946C628.344,-316.899 640.348,-314.79 651.5,-313 736.534,-299.352 834.423,-286.22 900.769,-277.702"/>
<polygon fill="midnightblue" stroke="midnightblue" points="901.256,-281.168 910.731,-276.427 900.368,-274.224 901.256,-281.168"/>
</g>
<!-- Node35 -->
<g id="node35" class="node"><title>Node35</title>
<g id="a_node35"><a xlink:href="PreCuts_8hh.html" target="_top" xlink:title="boca/PreCuts.hh">
<polygon fill="white" stroke="red" points="1064.5,-257.5 1064.5,-276.5 1154.5,-276.5 1154.5,-257.5 1064.5,-257.5"/>
<text text-anchor="middle" x="1109.5" y="-264.5" font-family="Helvetica,sans-Serif" font-size="10.00">boca/PreCuts.hh</text>
</a>
</g>
</g>
<!-- Node28&#45;&gt;Node35 -->
<g id="edge41" class="edge"><title>Node28&#45;&gt;Node35</title>
<path fill="none" stroke="midnightblue" d="M615.024,-318.95C626.803,-316.785 639.617,-314.618 651.5,-313 826.462,-289.181 874.373,-299.156 1054.16,-276.938"/>
<polygon fill="midnightblue" stroke="midnightblue" points="1054.73,-280.394 1064.22,-275.679 1053.86,-273.449 1054.73,-280.394"/>
</g>
<!-- Node31 -->
<g id="node31" class="node"><title>Node31</title>
<polygon fill="white" stroke="#bfbfbf" points="913.5,-196 913.5,-215 965.5,-215 965.5,-196 913.5,-196"/>
<text text-anchor="middle" x="939.5" y="-203" font-family="Helvetica,sans-Serif" font-size="10.00">sstream</text>
</g>
<!-- Node30&#45;&gt;Node31 -->
<g id="edge36" class="edge"><title>Node30&#45;&gt;Node31</title>
<path fill="none" stroke="midnightblue" d="M629.621,-257.955C721.175,-245.859 884.637,-224.068 897.5,-221 900.905,-220.188 904.422,-219.208 907.905,-218.145"/>
<polygon fill="midnightblue" stroke="midnightblue" points="909.092,-221.44 917.508,-215.003 906.915,-214.787 909.092,-221.44"/>
</g>
<!-- Node33&#45;&gt;Node16 -->
<g id="edge39" class="edge"><title>Node33&#45;&gt;Node16</title>
<path fill="none" stroke="midnightblue" d="M835.216,-257.475C835.922,-249.08 837.023,-235.981 837.932,-225.163"/>
<polygon fill="midnightblue" stroke="midnightblue" points="841.435,-225.267 838.785,-215.009 834.46,-224.681 841.435,-225.267"/>
</g>
<!-- Node37&#45;&gt;Node27 -->
<g id="edge45" class="edge"><title>Node37&#45;&gt;Node27</title>
<path fill="none" stroke="midnightblue" d="M564.621,-381.829C567.621,-381.196 570.596,-380.582 573.5,-380 664.629,-361.726 688.071,-360.71 779.5,-344 786.586,-342.705 794.038,-341.316 801.392,-339.93"/>
<polygon fill="midnightblue" stroke="midnightblue" points="802.142,-343.35 811.315,-338.05 800.839,-336.473 802.142,-343.35"/>
</g>
<!-- Node39&#45;&gt;Node26 -->
<g id="edge49" class="edge"><title>Node39&#45;&gt;Node26</title>
<path fill="none" stroke="midnightblue" d="M883.99,-447.396C860.338,-436.092 827.424,-420.361 804.47,-409.39"/>
<polygon fill="midnightblue" stroke="midnightblue" points="805.831,-406.161 795.299,-405.007 802.812,-412.477 805.831,-406.161"/>
</g>
<!-- Node40 -->
<g id="node40" class="node"><title>Node40</title>
<polygon fill="white" stroke="#bfbfbf" points="958,-319 958,-338 1017,-338 1017,-319 958,-319"/>
<text text-anchor="middle" x="987.5" y="-326" font-family="Helvetica,sans-Serif" font-size="10.00">functional</text>
</g>
<!-- Node39&#45;&gt;Node40 -->
<g id="edge48" class="edge"><title>Node39&#45;&gt;Node40</title>
<path fill="none" stroke="midnightblue" d="M939.811,-447.476C953.364,-438.821 968.826,-426.42 977.5,-411 988.451,-391.533 989.743,-365.367 989.097,-347.993"/>
<polygon fill="midnightblue" stroke="midnightblue" points="992.59,-347.768 988.475,-338.005 985.604,-348.203 992.59,-347.768"/>
</g>
<!-- Node41 -->
<g id="node41" class="node"><title>Node41</title>
<g id="a_node41"><a xlink:href="tagger_2WHadronic_8hh.html" target="_top" xlink:title="standardmodel/tagger\l/WHadronic.hh">
<polygon fill="white" stroke="red" points="858.5,-380.5 858.5,-410.5 968.5,-410.5 968.5,-380.5 858.5,-380.5"/>
<text text-anchor="start" x="866.5" y="-398.5" font-family="Helvetica,sans-Serif" font-size="10.00">standardmodel/tagger</text>
<text text-anchor="middle" x="913.5" y="-387.5" font-family="Helvetica,sans-Serif" font-size="10.00">/WHadronic.hh</text>
</a>
</g>
</g>
<!-- Node39&#45;&gt;Node41 -->
<g id="edge50" class="edge"><title>Node39&#45;&gt;Node41</title>
<path fill="none" stroke="midnightblue" d="M913.5,-447.396C913.5,-439.645 913.5,-429.812 913.5,-420.86"/>
<polygon fill="midnightblue" stroke="midnightblue" points="917,-420.576 913.5,-410.577 910,-420.577 917,-420.576"/>
</g>
<!-- Node42 -->
<g id="node42" class="node"><title>Node42</title>
<g id="a_node42"><a xlink:href="branch_2TopHadronic_8hh.html" target="_top" xlink:title="standardmodel/branch\l/TopHadronic.hh">
<polygon fill="white" stroke="red" points="1025,-380.5 1025,-410.5 1138,-410.5 1138,-380.5 1025,-380.5"/>
<text text-anchor="start" x="1033" y="-398.5" font-family="Helvetica,sans-Serif" font-size="10.00">standardmodel/branch</text>
<text text-anchor="middle" x="1081.5" y="-387.5" font-family="Helvetica,sans-Serif" font-size="10.00">/TopHadronic.hh</text>
</a>
</g>
</g>
<!-- Node39&#45;&gt;Node42 -->
<g id="edge55" class="edge"><title>Node39&#45;&gt;Node42</title>
<path fill="none" stroke="midnightblue" d="M949.953,-447.396C975.051,-437.686 1008.59,-424.709 1035.52,-414.289"/>
<polygon fill="midnightblue" stroke="midnightblue" points="1037.05,-417.449 1045.12,-410.577 1034.53,-410.921 1037.05,-417.449"/>
</g>
<!-- Node41&#45;&gt;Node27 -->
<g id="edge52" class="edge"><title>Node41&#45;&gt;Node27</title>
<path fill="none" stroke="midnightblue" d="M900.915,-380.396C891.871,-370.261 879.652,-356.567 870.167,-345.937"/>
<polygon fill="midnightblue" stroke="midnightblue" points="872.528,-343.326 863.258,-338.195 867.305,-347.986 872.528,-343.326"/>
</g>
<!-- Node41&#45;&gt;Node28 -->
<g id="edge53" class="edge"><title>Node41&#45;&gt;Node28</title>
<path fill="none" stroke="midnightblue" d="M858.374,-381.853C855.375,-381.214 852.402,-380.592 849.5,-380 761.864,-362.114 739.487,-360.073 651.5,-344 644.156,-342.658 636.428,-341.244 628.799,-339.845"/>
<polygon fill="midnightblue" stroke="midnightblue" points="629.333,-336.385 618.866,-338.024 628.071,-343.27 629.333,-336.385"/>
</g>
<!-- Node41&#45;&gt;Node36 -->
<g id="edge54" class="edge"><title>Node41&#45;&gt;Node36</title>
<path fill="none" stroke="midnightblue" d="M870.537,-380.396C840.439,-370.515 800.038,-357.252 768.025,-346.743"/>
<polygon fill="midnightblue" stroke="midnightblue" points="768.972,-343.37 758.379,-343.577 766.789,-350.021 768.972,-343.37"/>
</g>
<!-- Node41&#45;&gt;Node40 -->
<g id="edge51" class="edge"><title>Node41&#45;&gt;Node40</title>
<path fill="none" stroke="midnightblue" d="M929.557,-380.396C941.438,-369.96 957.615,-355.751 969.856,-344.998"/>
<polygon fill="midnightblue" stroke="midnightblue" points="972.398,-347.424 977.602,-338.195 967.779,-342.164 972.398,-347.424"/>
</g>
<!-- Node43 -->
<g id="node43" class="node"><title>Node43</title>
<g id="a_node43"><a xlink:href="Multi_8hh.html" target="_top" xlink:title="boca/branch/Multi.hh">
<polygon fill="white" stroke="red" points="1068,-319 1068,-338 1175,-338 1175,-319 1068,-319"/>
<text text-anchor="middle" x="1121.5" y="-326" font-family="Helvetica,sans-Serif" font-size="10.00">boca/branch/Multi.hh</text>
</a>
</g>
</g>
<!-- Node42&#45;&gt;Node43 -->
<g id="edge56" class="edge"><title>Node42&#45;&gt;Node43</title>
<path fill="none" stroke="midnightblue" d="M1090.18,-380.396C1096.23,-370.562 1104.34,-357.378 1110.8,-346.892"/>
<polygon fill="midnightblue" stroke="midnightblue" points="1113.89,-348.545 1116.15,-338.195 1107.93,-344.877 1113.89,-348.545"/>
</g>
<!-- Node44&#45;&gt;Node26 -->
<g id="edge58" class="edge"><title>Node44&#45;&gt;Node26</title>
<path fill="none" stroke="midnightblue" d="M776.635,-452.734C776.782,-443.183 777.021,-427.618 777.211,-415.283"/>
<polygon fill="midnightblue" stroke="midnightblue" points="780.713,-415.18 777.367,-405.127 773.714,-415.072 780.713,-415.18"/>
</g>
<!-- Node45&#45;&gt;Node43 -->
<g id="edge60" class="edge"><title>Node45&#45;&gt;Node43</title>
<path fill="none" stroke="midnightblue" d="M1121.13,-447.13C1130.93,-437.958 1142.2,-425.157 1147.5,-411 1155.69,-389.142 1144.02,-363.407 1133.8,-346.792"/>
<polygon fill="midnightblue" stroke="midnightblue" points="1136.53,-344.581 1128.1,-338.162 1130.69,-348.436 1136.53,-344.581"/>
</g>
<!-- Node47 -->
<g id="node47" class="node"><title>Node47</title>
<g id="a_node47"><a xlink:href="Debug_8hh.html" target="_top" xlink:title="boca/generic/Debug.hh">
<polygon fill="white" stroke="black" points="1173,-257.5 1173,-276.5 1290,-276.5 1290,-257.5 1173,-257.5"/>
<text text-anchor="middle" x="1231.5" y="-264.5" font-family="Helvetica,sans-Serif" font-size="10.00">boca/generic/Debug.hh</text>
</a>
</g>
</g>
<!-- Node46&#45;&gt;Node47 -->
<g id="edge62" class="edge"><title>Node46&#45;&gt;Node47</title>
<path fill="none" stroke="midnightblue" d="M1121.26,-518.5C1145.94,-511.275 1173.22,-498.943 1190.5,-478 1237.19,-421.409 1236.24,-327.143 1233.37,-287.019"/>
<polygon fill="midnightblue" stroke="midnightblue" points="1236.84,-286.477 1232.51,-276.807 1229.86,-287.066 1236.84,-286.477"/>
</g>
<!-- Node47&#45;&gt;Node17 -->
<g id="edge63" class="edge"><title>Node47&#45;&gt;Node17</title>
<path fill="none" stroke="midnightblue" d="M1196.01,-257.47C1168.43,-250.031 1129.74,-237.79 1098.5,-221 1064.17,-202.551 1029.44,-172.977 1009.78,-154.984"/>
<polygon fill="midnightblue" stroke="midnightblue" points="1012.03,-152.294 1002.32,-148.047 1007.26,-157.42 1012.03,-152.294"/>
</g>
<!-- Node47&#45;&gt;Node18 -->
<g id="edge64" class="edge"><title>Node47&#45;&gt;Node18</title>
<path fill="none" stroke="midnightblue" d="M1198.75,-257.354C1176.77,-250.307 1148.17,-238.606 1127.5,-221 1106.9,-203.449 1091.62,-175.673 1083.13,-157.516"/>
<polygon fill="midnightblue" stroke="midnightblue" points="1086.3,-156.022 1079.03,-148.316 1079.9,-158.874 1086.3,-156.022"/>
</g>
<!-- Node47&#45;&gt;Node31 -->
<g id="edge65" class="edge"><title>Node47&#45;&gt;Node31</title>
<path fill="none" stroke="midnightblue" d="M1189.66,-257.475C1132.18,-245.762 1029.75,-224.89 975.508,-213.837"/>
<polygon fill="midnightblue" stroke="midnightblue" points="976.143,-210.395 965.646,-211.828 974.746,-217.254 976.143,-210.395"/>
</g>
<!-- Node48 -->
<g id="node48" class="node"><title>Node48</title>
<polygon fill="white" stroke="#bfbfbf" points="1136.5,-196 1136.5,-215 1186.5,-215 1186.5,-196 1136.5,-196"/>
<text text-anchor="middle" x="1161.5" y="-203" font-family="Helvetica,sans-Serif" font-size="10.00">iomanip</text>
</g>
<!-- Node47&#45;&gt;Node48 -->
<g id="edge66" class="edge"><title>Node47&#45;&gt;Node48</title>
<path fill="none" stroke="midnightblue" d="M1221.47,-257.475C1210.45,-248.108 1192.54,-232.884 1179.16,-221.508"/>
<polygon fill="midnightblue" stroke="midnightblue" points="1181.4,-218.819 1171.51,-215.009 1176.86,-224.152 1181.4,-218.819"/>
</g>
<!-- Node49 -->
<g id="node49" class="node"><title>Node49</title>
<polygon fill="white" stroke="#bfbfbf" points="1204.5,-196 1204.5,-215 1258.5,-215 1258.5,-196 1204.5,-196"/>
<text text-anchor="middle" x="1231.5" y="-203" font-family="Helvetica,sans-Serif" font-size="10.00">iostream</text>
</g>
<!-- Node47&#45;&gt;Node49 -->
<g id="edge67" class="edge"><title>Node47&#45;&gt;Node49</title>
<path fill="none" stroke="midnightblue" d="M1231.5,-257.475C1231.5,-249.08 1231.5,-235.981 1231.5,-225.163"/>
<polygon fill="midnightblue" stroke="midnightblue" points="1235,-225.009 1231.5,-215.009 1228,-225.009 1235,-225.009"/>
</g>
<!-- Node50 -->
<g id="node50" class="node"><title>Node50</title>
<polygon fill="white" stroke="#bfbfbf" points="1277,-190.5 1277,-220.5 1382,-220.5 1382,-190.5 1277,-190.5"/>
<text text-anchor="start" x="1285" y="-208.5" font-family="Helvetica,sans-Serif" font-size="10.00">boost/units/systems</text>
<text text-anchor="middle" x="1329.5" y="-197.5" font-family="Helvetica,sans-Serif" font-size="10.00">/si/io.hpp</text>
</g>
<!-- Node47&#45;&gt;Node50 -->
<g id="edge68" class="edge"><title>Node47&#45;&gt;Node50</title>
<path fill="none" stroke="midnightblue" d="M1245.54,-257.475C1259.06,-249.266 1279.99,-236.558 1297.57,-225.885"/>
<polygon fill="midnightblue" stroke="midnightblue" points="1299.67,-228.705 1306.4,-220.523 1296.04,-222.721 1299.67,-228.705"/>
</g>
</g>
</svg>
