<?xml version="1.0" encoding="UTF-8" standalone="no"?>
<!DOCTYPE svg PUBLIC "-//W3C//DTD SVG 1.1//EN"
 "http://www.w3.org/Graphics/SVG/1.1/DTD/svg11.dtd">
<!-- Generated by graphviz version 2.38.0 (20140413.2041)
 -->
<!-- Title: examples/higgscpv/source/tagger/SignatureLepton.cpp Pages: 1 -->
<svg width="1639pt" height="609pt"
 viewBox="0.00 0.00 1639.00 609.00" xmlns="http://www.w3.org/2000/svg" xmlns:xlink="http://www.w3.org/1999/xlink">
<g id="graph0" class="graph" transform="scale(1 1) rotate(0) translate(4 605)">
<title>examples/higgscpv/source/tagger/SignatureLepton.cpp</title>
<polygon fill="white" stroke="none" points="-4,4 -4,-605 1635,-605 1635,4 -4,4"/>
<!-- Node1 -->
<g id="node1" class="node"><title>Node1</title>
<polygon fill="#bfbfbf" stroke="black" points="780.5,-570.5 780.5,-600.5 919.5,-600.5 919.5,-570.5 780.5,-570.5"/>
<text text-anchor="start" x="788.5" y="-588.5" font-family="Helvetica,sans-Serif" font-size="10.00">examples/higgscpv/source</text>
<text text-anchor="middle" x="850" y="-577.5" font-family="Helvetica,sans-Serif" font-size="10.00">/tagger/SignatureLepton.cpp</text>
</g>
<!-- Node2 -->
<g id="node2" class="node"><title>Node2</title>
<g id="a_node2"><a xlink:href="boca_2Event_8hh.html" target="_top" xlink:title="boca/Event.hh">
<polygon fill="white" stroke="black" points="623,-246.5 623,-265.5 703,-265.5 703,-246.5 623,-246.5"/>
<text text-anchor="middle" x="663" y="-253.5" font-family="Helvetica,sans-Serif" font-size="10.00">boca/Event.hh</text>
</a>
</g>
</g>
<!-- Node1&#45;&gt;Node2 -->
<g id="edge1" class="edge"><title>Node1&#45;&gt;Node2</title>
<path fill="none" stroke="midnightblue" d="M834.738,-570.139C804.386,-540.83 735.939,-470.883 696,-400 673.245,-359.615 666.166,-304.407 663.974,-275.842"/>
<polygon fill="midnightblue" stroke="midnightblue" points="667.454,-275.416 663.319,-265.661 660.469,-275.865 667.454,-275.416"/>
</g>
<!-- Node15 -->
<g id="node15" class="node"><title>Node15</title>
<g id="a_node15"><a xlink:href="Exception_8hh.html" target="_top" xlink:title="boca/generic/Exception.hh">
<polygon fill="white" stroke="black" points="1251,-509 1251,-528 1383,-528 1383,-509 1251,-509"/>
<text text-anchor="middle" x="1317" y="-516" font-family="Helvetica,sans-Serif" font-size="10.00">boca/generic/Exception.hh</text>
</a>
</g>
</g>
<!-- Node1&#45;&gt;Node15 -->
<g id="edge19" class="edge"><title>Node1&#45;&gt;Node15</title>
<path fill="none" stroke="midnightblue" d="M919.662,-574.804C1007.43,-562.587 1157.47,-541.705 1245.91,-529.395"/>
<polygon fill="midnightblue" stroke="midnightblue" points="1246.43,-532.856 1255.85,-528.011 1245.47,-525.923 1246.43,-532.856"/>
</g>
<!-- Node18 -->
<g id="node18" class="node"><title>Node18</title>
<g id="a_node18"><a xlink:href="Particles_8hh.html" target="_top" xlink:title="boca/multiplets/Particles.hh">
<polygon fill="white" stroke="black" points="781.5,-246.5 781.5,-265.5 918.5,-265.5 918.5,-246.5 781.5,-246.5"/>
<text text-anchor="middle" x="850" y="-253.5" font-family="Helvetica,sans-Serif" font-size="10.00">boca/multiplets/Particles.hh</text>
</a>
</g>
</g>
<!-- Node1&#45;&gt;Node18 -->
<g id="edge22" class="edge"><title>Node1&#45;&gt;Node18</title>
<path fill="none" stroke="midnightblue" d="M850,-570.241C850,-546.034 850,-495.354 850,-452.5 850,-452.5 850,-452.5 850,-383.5 850,-345.202 850,-300.383 850,-275.697"/>
<polygon fill="midnightblue" stroke="midnightblue" points="853.5,-275.589 850,-265.589 846.5,-275.589 853.5,-275.589"/>
</g>
<!-- Node26 -->
<g id="node26" class="node"><title>Node26</title>
<g id="a_node26"><a xlink:href="tagger_2SignatureLepton_8hh.html" target="_top" xlink:title="higgscpv/tagger/Signature\lLepton.hh">
<polygon fill="white" stroke="black" points="436,-503.5 436,-533.5 566,-533.5 566,-503.5 436,-503.5"/>
<text text-anchor="start" x="444" y="-521.5" font-family="Helvetica,sans-Serif" font-size="10.00">higgscpv/tagger/Signature</text>
<text text-anchor="middle" x="501" y="-510.5" font-family="Helvetica,sans-Serif" font-size="10.00">Lepton.hh</text>
</a>
</g>
</g>
<!-- Node1&#45;&gt;Node26 -->
<g id="edge32" class="edge"><title>Node1&#45;&gt;Node26</title>
<path fill="none" stroke="midnightblue" d="M780.213,-571.503C721.141,-560.5 636.662,-544.767 576.122,-533.491"/>
<polygon fill="midnightblue" stroke="midnightblue" points="576.714,-530.041 566.242,-531.651 575.432,-536.923 576.714,-530.041"/>
</g>
<!-- Node50 -->
<g id="node50" class="node"><title>Node50</title>
<g id="a_node50"><a xlink:href="DEBUG__MACROS_8hh.html" target="_top" xlink:title="boca/generic/DEBUG\l_MACROS.hh">
<polygon fill="white" stroke="black" points="999.5,-503.5 999.5,-533.5 1110.5,-533.5 1110.5,-503.5 999.5,-503.5"/>
<text text-anchor="start" x="1007.5" y="-521.5" font-family="Helvetica,sans-Serif" font-size="10.00">boca/generic/DEBUG</text>
<text text-anchor="middle" x="1055" y="-510.5" font-family="Helvetica,sans-Serif" font-size="10.00">_MACROS.hh</text>
</a>
</g>
</g>
<!-- Node1&#45;&gt;Node50 -->
<g id="edge67" class="edge"><title>Node1&#45;&gt;Node50</title>
<path fill="none" stroke="midnightblue" d="M894.23,-570.476C925.511,-560.557 967.635,-547.201 1000.92,-536.648"/>
<polygon fill="midnightblue" stroke="midnightblue" points="1002.02,-539.97 1010.5,-533.611 999.906,-533.297 1002.02,-539.97"/>
</g>
<!-- Node3 -->
<g id="node3" class="node"><title>Node3</title>
<g id="a_node3"><a xlink:href="Flag_8hh.html" target="_top" xlink:title="boca/generic/Flag.hh">
<polygon fill="white" stroke="black" points="609.5,-190.5 609.5,-209.5 716.5,-209.5 716.5,-190.5 609.5,-190.5"/>
<text text-anchor="middle" x="663" y="-197.5" font-family="Helvetica,sans-Serif" font-size="10.00">boca/generic/Flag.hh</text>
</a>
</g>
</g>
<!-- Node2&#45;&gt;Node3 -->
<g id="edge2" class="edge"><title>Node2&#45;&gt;Node3</title>
<path fill="none" stroke="midnightblue" d="M663,-246.083C663,-239.006 663,-228.861 663,-219.986"/>
<polygon fill="midnightblue" stroke="midnightblue" points="666.5,-219.751 663,-209.751 659.5,-219.751 666.5,-219.751"/>
</g>
<!-- Node5 -->
<g id="node5" class="node"><title>Node5</title>
<g id="a_node5"><a xlink:href="Jet_8hh.html" target="_top" xlink:title="boca/multiplets/Jet.hh">
<polygon fill="white" stroke="black" points="466.5,-190.5 466.5,-209.5 579.5,-209.5 579.5,-190.5 466.5,-190.5"/>
<text text-anchor="middle" x="523" y="-197.5" font-family="Helvetica,sans-Serif" font-size="10.00">boca/multiplets/Jet.hh</text>
</a>
</g>
</g>
<!-- Node2&#45;&gt;Node5 -->
<g id="edge4" class="edge"><title>Node2&#45;&gt;Node5</title>
<path fill="none" stroke="midnightblue" d="M640.817,-246.444C617.572,-237.478 580.851,-223.314 554.585,-213.183"/>
<polygon fill="midnightblue" stroke="midnightblue" points="555.669,-209.85 545.08,-209.516 553.15,-216.381 555.669,-209.85"/>
</g>
<!-- Node13 -->
<g id="node13" class="node"><title>Node13</title>
<g id="a_node13"><a xlink:href="multiplets_2Particle_8hh.html" target="_top" xlink:title="boca/multiplets/Particle.hh">
<polygon fill="white" stroke="black" points="739,-190.5 739,-209.5 871,-209.5 871,-190.5 739,-190.5"/>
<text text-anchor="middle" x="805" y="-197.5" font-family="Helvetica,sans-Serif" font-size="10.00">boca/multiplets/Particle.hh</text>
</a>
</g>
</g>
<!-- Node2&#45;&gt;Node13 -->
<g id="edge14" class="edge"><title>Node2&#45;&gt;Node13</title>
<path fill="none" stroke="midnightblue" d="M685.5,-246.444C709.077,-237.478 746.322,-223.314 772.964,-213.183"/>
<polygon fill="midnightblue" stroke="midnightblue" points="774.502,-216.342 782.605,-209.516 772.014,-209.8 774.502,-216.342"/>
</g>
<!-- Node4 -->
<g id="node4" class="node"><title>Node4</title>
<polygon fill="white" stroke="#bfbfbf" points="632,-129 632,-148 694,-148 694,-129 632,-129"/>
<text text-anchor="middle" x="663" y="-136" font-family="Helvetica,sans-Serif" font-size="10.00">type_traits</text>
</g>
<!-- Node3&#45;&gt;Node4 -->
<g id="edge3" class="edge"><title>Node3&#45;&gt;Node4</title>
<path fill="none" stroke="midnightblue" d="M663,-190.475C663,-182.08 663,-168.981 663,-158.163"/>
<polygon fill="midnightblue" stroke="midnightblue" points="666.5,-158.009 663,-148.009 659.5,-158.009 666.5,-158.009"/>
</g>
<!-- Node6 -->
<g id="node6" class="node"><title>Node6</title>
<g id="a_node6"><a xlink:href="PseudoJet_8hh.html" target="_top" xlink:title="boca/fastjet/PseudoJet.hh">
<polygon fill="white" stroke="black" points="632.5,-62 632.5,-81 763.5,-81 763.5,-62 632.5,-62"/>
<text text-anchor="middle" x="698" y="-69" font-family="Helvetica,sans-Serif" font-size="10.00">boca/fastjet/PseudoJet.hh</text>
</a>
</g>
</g>
<!-- Node5&#45;&gt;Node6 -->
<g id="edge5" class="edge"><title>Node5&#45;&gt;Node6</title>
<path fill="none" stroke="midnightblue" d="M534.787,-190.497C547.143,-181.54 567.074,-166.963 584,-154 601.579,-140.537 605.136,-136.083 623,-123 640.41,-110.25 660.748,-96.6314 675.85,-86.7534"/>
<polygon fill="midnightblue" stroke="midnightblue" points="678.028,-89.5126 684.504,-81.1275 674.212,-83.6439 678.028,-89.5126"/>
</g>
<!-- Node9 -->
<g id="node9" class="node"><title>Node9</title>
<g id="a_node9"><a xlink:href="JetInfo_8hh.html" target="_top" xlink:title="boca/multiplets/JetInfo.hh">
<polygon fill="white" stroke="black" points="446.5,-129 446.5,-148 575.5,-148 575.5,-129 446.5,-129"/>
<text text-anchor="middle" x="511" y="-136" font-family="Helvetica,sans-Serif" font-size="10.00">boca/multiplets/JetInfo.hh</text>
</a>
</g>
</g>
<!-- Node5&#45;&gt;Node9 -->
<g id="edge9" class="edge"><title>Node5&#45;&gt;Node9</title>
<path fill="none" stroke="midnightblue" d="M521.281,-190.475C519.57,-181.992 516.89,-168.704 514.695,-157.822"/>
<polygon fill="midnightblue" stroke="midnightblue" points="518.124,-157.12 512.716,-148.009 511.262,-158.504 518.124,-157.12"/>
</g>
<!-- Node6&#45;&gt;Node6 -->
<g id="edge7" class="edge"><title>Node6&#45;&gt;Node6</title>
<path fill="none" stroke="midnightblue" d="M728.831,-81.0334C754.587,-85.1075 781.5,-81.9297 781.5,-71.5 781.5,-62.4148 761.079,-58.8323 738.789,-60.7526"/>
<polygon fill="midnightblue" stroke="midnightblue" points="738.334,-57.2821 728.831,-61.9666 739.181,-64.2306 738.334,-57.2821"/>
</g>
<!-- Node7 -->
<g id="node7" class="node"><title>Node7</title>
<polygon fill="white" stroke="#bfbfbf" points="644.5,-0.5 644.5,-19.5 747.5,-19.5 747.5,-0.5 644.5,-0.5"/>
<text text-anchor="middle" x="696" y="-7.5" font-family="Helvetica,sans-Serif" font-size="10.00">boost/operators.hpp</text>
</g>
<!-- Node6&#45;&gt;Node7 -->
<g id="edge6" class="edge"><title>Node6&#45;&gt;Node7</title>
<path fill="none" stroke="midnightblue" d="M697.713,-61.9751C697.431,-53.5803 696.991,-40.4806 696.627,-29.6631"/>
<polygon fill="midnightblue" stroke="midnightblue" points="700.12,-29.3858 696.286,-19.5091 693.124,-29.6211 700.12,-29.3858"/>
</g>
<!-- Node8 -->
<g id="node8" class="node"><title>Node8</title>
<g id="a_node8"><a xlink:href="LorentzVector_8hh.html" target="_top" xlink:title="boca/math/LorentzVector.hh">
<polygon fill="white" stroke="red" points="766,-0.5 766,-19.5 906,-19.5 906,-0.5 766,-0.5"/>
<text text-anchor="middle" x="836" y="-7.5" font-family="Helvetica,sans-Serif" font-size="10.00">boca/math/LorentzVector.hh</text>
</a>
</g>
</g>
<!-- Node6&#45;&gt;Node8 -->
<g id="edge8" class="edge"><title>Node6&#45;&gt;Node8</title>
<path fill="none" stroke="midnightblue" d="M717.772,-61.9751C741.136,-51.9013 780.214,-35.0525 807.003,-23.5023"/>
<polygon fill="midnightblue" stroke="midnightblue" points="808.468,-26.6824 816.265,-19.5091 805.696,-20.2544 808.468,-26.6824"/>
</g>
<!-- Node9&#45;&gt;Node6 -->
<g id="edge10" class="edge"><title>Node9&#45;&gt;Node6</title>
<path fill="none" stroke="midnightblue" d="M535.832,-128.869C568.616,-117.473 626.5,-97.3528 663.515,-84.4869"/>
<polygon fill="midnightblue" stroke="midnightblue" points="665.066,-87.653 673.363,-81.0637 662.768,-81.041 665.066,-87.653"/>
</g>
<!-- Node10 -->
<g id="node10" class="node"><title>Node10</title>
<g id="a_node10"><a xlink:href="Constituent_8hh.html" target="_top" xlink:title="boca/Constituent.hh">
<polygon fill="white" stroke="black" points="510,-62 510,-81 614,-81 614,-62 510,-62"/>
<text text-anchor="middle" x="562" y="-69" font-family="Helvetica,sans-Serif" font-size="10.00">boca/Constituent.hh</text>
</a>
</g>
</g>
<!-- Node9&#45;&gt;Node10 -->
<g id="edge11" class="edge"><title>Node9&#45;&gt;Node10</title>
<path fill="none" stroke="midnightblue" d="M517.878,-128.734C525.831,-118.598 539.097,-101.69 549.01,-89.0556"/>
<polygon fill="midnightblue" stroke="midnightblue" points="551.812,-91.1552 555.231,-81.1273 546.304,-86.8342 551.812,-91.1552"/>
</g>
<!-- Node12 -->
<g id="node12" class="node"><title>Node12</title>
<g id="a_node12"><a xlink:href="Identification_8hh.html" target="_top" xlink:title="boca/multiplets/Identification.hh">
<polygon fill="white" stroke="red" points="336.5,-62 336.5,-81 491.5,-81 491.5,-62 336.5,-62"/>
<text text-anchor="middle" x="414" y="-69" font-family="Helvetica,sans-Serif" font-size="10.00">boca/multiplets/Identification.hh</text>
</a>
</g>
</g>
<!-- Node9&#45;&gt;Node12 -->
<g id="edge13" class="edge"><title>Node9&#45;&gt;Node12</title>
<path fill="none" stroke="midnightblue" d="M497.918,-128.734C481.847,-117.964 454.367,-99.55 435.25,-86.7395"/>
<polygon fill="midnightblue" stroke="midnightblue" points="437.13,-83.7865 426.875,-81.1273 433.234,-89.6017 437.13,-83.7865"/>
</g>
<!-- Node11 -->
<g id="node11" class="node"><title>Node11</title>
<g id="a_node11"><a xlink:href="Family_8hh.html" target="_top" xlink:title="boca/physics/Family.hh">
<polygon fill="white" stroke="red" points="505,-0.5 505,-19.5 625,-19.5 625,-0.5 505,-0.5"/>
<text text-anchor="middle" x="565" y="-7.5" font-family="Helvetica,sans-Serif" font-size="10.00">boca/physics/Family.hh</text>
</a>
</g>
</g>
<!-- Node10&#45;&gt;Node11 -->
<g id="edge12" class="edge"><title>Node10&#45;&gt;Node11</title>
<path fill="none" stroke="midnightblue" d="M562.43,-61.9751C562.853,-53.5803 563.514,-40.4806 564.059,-29.6631"/>
<polygon fill="midnightblue" stroke="midnightblue" points="567.563,-29.6727 564.571,-19.5091 560.572,-29.3201 567.563,-29.6727"/>
</g>
<!-- Node13&#45;&gt;Node6 -->
<g id="edge15" class="edge"><title>Node13&#45;&gt;Node6</title>
<path fill="none" stroke="midnightblue" d="M788.648,-190.427C774.645,-182.456 754.64,-169.498 741,-154 724.282,-135.005 711.807,-108.37 704.715,-90.787"/>
<polygon fill="midnightblue" stroke="midnightblue" points="707.866,-89.2308 701.004,-81.1582 701.334,-91.7479 707.866,-89.2308"/>
</g>
<!-- Node14 -->
<g id="node14" class="node"><title>Node14</title>
<g id="a_node14"><a xlink:href="ParticleInfo_8hh.html" target="_top" xlink:title="boca/multiplets/Particle\lInfo.hh">
<polygon fill="white" stroke="black" points="750.5,-123.5 750.5,-153.5 869.5,-153.5 869.5,-123.5 750.5,-123.5"/>
<text text-anchor="start" x="758.5" y="-141.5" font-family="Helvetica,sans-Serif" font-size="10.00">boca/multiplets/Particle</text>
<text text-anchor="middle" x="810" y="-130.5" font-family="Helvetica,sans-Serif" font-size="10.00">Info.hh</text>
</a>
</g>
</g>
<!-- Node13&#45;&gt;Node14 -->
<g id="edge16" class="edge"><title>Node13&#45;&gt;Node14</title>
<path fill="none" stroke="midnightblue" d="M805.716,-190.475C806.305,-183.471 807.169,-173.192 807.967,-163.696"/>
<polygon fill="midnightblue" stroke="midnightblue" points="811.472,-163.781 808.822,-153.523 804.496,-163.195 811.472,-163.781"/>
</g>
<!-- Node14&#45;&gt;Node6 -->
<g id="edge17" class="edge"><title>Node14&#45;&gt;Node6</title>
<path fill="none" stroke="midnightblue" d="M785.698,-123.396C766.655,-112.344 740.32,-97.0607 721.489,-86.1319"/>
<polygon fill="midnightblue" stroke="midnightblue" points="723.064,-82.9994 712.658,-81.007 719.55,-89.0537 723.064,-82.9994"/>
</g>
<!-- Node14&#45;&gt;Node11 -->
<g id="edge18" class="edge"><title>Node14&#45;&gt;Node11</title>
<path fill="none" stroke="midnightblue" d="M810.791,-123.482C810.999,-105.244 808.414,-73.6343 790,-56 778.69,-45.1686 696.383,-30.6652 634.565,-21.0874"/>
<polygon fill="midnightblue" stroke="midnightblue" points="634.862,-17.5921 624.447,-19.5351 633.801,-24.5112 634.862,-17.5921"/>
</g>
<!-- Node16 -->
<g id="node16" class="node"><title>Node16</title>
<polygon fill="white" stroke="#bfbfbf" points="1287.5,-442 1287.5,-461 1346.5,-461 1346.5,-442 1287.5,-442"/>
<text text-anchor="middle" x="1317" y="-449" font-family="Helvetica,sans-Serif" font-size="10.00">stdexcept</text>
</g>
<!-- Node15&#45;&gt;Node16 -->
<g id="edge20" class="edge"><title>Node15&#45;&gt;Node16</title>
<path fill="none" stroke="midnightblue" d="M1317,-508.734C1317,-499.183 1317,-483.618 1317,-471.283"/>
<polygon fill="midnightblue" stroke="midnightblue" points="1320.5,-471.127 1317,-461.127 1313.5,-471.127 1320.5,-471.127"/>
</g>
<!-- Node17 -->
<g id="node17" class="node"><title>Node17</title>
<polygon fill="white" stroke="#bfbfbf" points="1255.5,-129 1255.5,-148 1296.5,-148 1296.5,-129 1255.5,-129"/>
<text text-anchor="middle" x="1276" y="-136" font-family="Helvetica,sans-Serif" font-size="10.00">string</text>
</g>
<!-- Node15&#45;&gt;Node17 -->
<g id="edge21" class="edge"><title>Node15&#45;&gt;Node17</title>
<path fill="none" stroke="midnightblue" d="M1326.33,-508.893C1335.65,-499.603 1349.37,-483.858 1355,-467 1359.37,-453.933 1356.79,-449.661 1355,-436 1340.85,-327.93 1298.86,-203.216 1282.56,-157.49"/>
<polygon fill="midnightblue" stroke="midnightblue" points="1285.85,-156.287 1279.17,-148.065 1279.27,-158.66 1285.85,-156.287"/>
</g>
<!-- Node18&#45;&gt;Node13 -->
<g id="edge23" class="edge"><title>Node18&#45;&gt;Node13</title>
<path fill="none" stroke="midnightblue" d="M842.569,-246.083C836.147,-238.377 826.694,-227.033 818.878,-217.653"/>
<polygon fill="midnightblue" stroke="midnightblue" points="821.383,-215.193 812.293,-209.751 816.006,-219.674 821.383,-215.193"/>
</g>
<!-- Node19 -->
<g id="node19" class="node"><title>Node19</title>
<g id="a_node19"><a xlink:href="Id_8hh.html" target="_top" xlink:title="boca/physics/Id.hh">
<polygon fill="white" stroke="black" points="1100.5,-190.5 1100.5,-209.5 1199.5,-209.5 1199.5,-190.5 1100.5,-190.5"/>
<text text-anchor="middle" x="1150" y="-197.5" font-family="Helvetica,sans-Serif" font-size="10.00">boca/physics/Id.hh</text>
</a>
</g>
</g>
<!-- Node18&#45;&gt;Node19 -->
<g id="edge24" class="edge"><title>Node18&#45;&gt;Node19</title>
<path fill="none" stroke="midnightblue" d="M897.536,-246.444C950.528,-236.905 1036.2,-221.483 1092.82,-211.293"/>
<polygon fill="midnightblue" stroke="midnightblue" points="1093.46,-214.733 1102.69,-209.516 1092.22,-207.843 1093.46,-214.733"/>
</g>
<!-- Node19&#45;&gt;Node17 -->
<g id="edge25" class="edge"><title>Node19&#45;&gt;Node17</title>
<path fill="none" stroke="midnightblue" d="M1168.43,-190.438C1187.78,-181.432 1219.08,-166.817 1246,-154 1246.99,-153.528 1248,-153.045 1249.02,-152.558"/>
<polygon fill="midnightblue" stroke="midnightblue" points="1250.75,-155.609 1258.25,-148.122 1247.72,-149.3 1250.75,-155.609"/>
</g>
<!-- Node20 -->
<g id="node20" class="node"><title>Node20</title>
<polygon fill="white" stroke="#bfbfbf" points="1193,-129 1193,-148 1237,-148 1237,-129 1193,-129"/>
<text text-anchor="middle" x="1215" y="-136" font-family="Helvetica,sans-Serif" font-size="10.00">vector</text>
</g>
<!-- Node19&#45;&gt;Node20 -->
<g id="edge26" class="edge"><title>Node19&#45;&gt;Node20</title>
<path fill="none" stroke="midnightblue" d="M1159.31,-190.475C1169.45,-181.197 1185.86,-166.171 1198.25,-154.831"/>
<polygon fill="midnightblue" stroke="midnightblue" points="1200.69,-157.343 1205.7,-148.009 1195.96,-152.18 1200.69,-157.343"/>
</g>
<!-- Node21 -->
<g id="node21" class="node"><title>Node21</title>
<g id="a_node21"><a xlink:href="ElectronVolt_8hh.html" target="_top" xlink:title="boca/physics/ElectronVolt.hh">
<polygon fill="white" stroke="black" points="1031,-129 1031,-148 1175,-148 1175,-129 1031,-129"/>
<text text-anchor="middle" x="1103" y="-136" font-family="Helvetica,sans-Serif" font-size="10.00">boca/physics/ElectronVolt.hh</text>
</a>
</g>
</g>
<!-- Node19&#45;&gt;Node21 -->
<g id="edge27" class="edge"><title>Node19&#45;&gt;Node21</title>
<path fill="none" stroke="midnightblue" d="M1143.27,-190.475C1136.22,-181.55 1124.97,-167.307 1116.15,-156.143"/>
<polygon fill="midnightblue" stroke="midnightblue" points="1118.67,-153.687 1109.72,-148.009 1113.17,-158.026 1118.67,-153.687"/>
</g>
<!-- Node22 -->
<g id="node22" class="node"><title>Node22</title>
<polygon fill="white" stroke="#bfbfbf" points="846.5,-62 846.5,-81 1003.5,-81 1003.5,-62 846.5,-62"/>
<text text-anchor="middle" x="925" y="-69" font-family="Helvetica,sans-Serif" font-size="10.00">boost/units/base_dimension.hpp</text>
</g>
<!-- Node21&#45;&gt;Node22 -->
<g id="edge28" class="edge"><title>Node21&#45;&gt;Node22</title>
<path fill="none" stroke="midnightblue" d="M1079.36,-128.869C1048.29,-117.522 993.529,-97.5246 958.278,-84.6522"/>
<polygon fill="midnightblue" stroke="midnightblue" points="959.045,-81.2062 948.451,-81.0637 956.644,-87.7815 959.045,-81.2062"/>
</g>
<!-- Node23 -->
<g id="node23" class="node"><title>Node23</title>
<polygon fill="white" stroke="#bfbfbf" points="1022,-62 1022,-81 1150,-81 1150,-62 1022,-62"/>
<text text-anchor="middle" x="1086" y="-69" font-family="Helvetica,sans-Serif" font-size="10.00">boost/units/base_unit.hpp</text>
</g>
<!-- Node21&#45;&gt;Node23 -->
<g id="edge29" class="edge"><title>Node21&#45;&gt;Node23</title>
<path fill="none" stroke="midnightblue" d="M1100.71,-128.734C1098.18,-119.085 1094.06,-103.3 1090.81,-90.9063"/>
<polygon fill="midnightblue" stroke="midnightblue" points="1094.17,-89.9163 1088.26,-81.1273 1087.4,-91.6875 1094.17,-89.9163"/>
</g>
<!-- Node24 -->
<g id="node24" class="node"><title>Node24</title>
<polygon fill="white" stroke="#bfbfbf" points="1168.5,-62 1168.5,-81 1289.5,-81 1289.5,-62 1168.5,-62"/>
<text text-anchor="middle" x="1229" y="-69" font-family="Helvetica,sans-Serif" font-size="10.00">boost/units/quantity.hpp</text>
</g>
<!-- Node21&#45;&gt;Node24 -->
<g id="edge30" class="edge"><title>Node21&#45;&gt;Node24</title>
<path fill="none" stroke="midnightblue" d="M1119.73,-128.869C1141.1,-117.845 1178.3,-98.6554 1203.28,-85.7678"/>
<polygon fill="midnightblue" stroke="midnightblue" points="1204.92,-88.8624 1212.2,-81.1672 1201.71,-82.6414 1204.92,-88.8624"/>
</g>
<!-- Node25 -->
<g id="node25" class="node"><title>Node25</title>
<polygon fill="white" stroke="#bfbfbf" points="1307.5,-56.5 1307.5,-86.5 1412.5,-86.5 1412.5,-56.5 1307.5,-56.5"/>
<text text-anchor="start" x="1315.5" y="-74.5" font-family="Helvetica,sans-Serif" font-size="10.00">boost/units/systems</text>
<text text-anchor="middle" x="1360" y="-63.5" font-family="Helvetica,sans-Serif" font-size="10.00">/si/energy.hpp</text>
</g>
<!-- Node21&#45;&gt;Node25 -->
<g id="edge31" class="edge"><title>Node21&#45;&gt;Node25</title>
<path fill="none" stroke="midnightblue" d="M1136.86,-128.936C1177.63,-118.626 1246.9,-101.105 1297.47,-88.3153"/>
<polygon fill="midnightblue" stroke="midnightblue" points="1298.48,-91.6691 1307.32,-85.8239 1296.77,-84.8828 1298.48,-91.6691"/>
</g>
<!-- Node27 -->
<g id="node27" class="node"><title>Node27</title>
<g id="a_node27"><a xlink:href="standardmodel_2standardmodel_2tagger_2Higgs_8hh.html" target="_top" xlink:title="standardmodel/tagger\l/Higgs.hh">
<polygon fill="white" stroke="black" points="943,-369.5 943,-399.5 1053,-399.5 1053,-369.5 943,-369.5"/>
<text text-anchor="start" x="951" y="-387.5" font-family="Helvetica,sans-Serif" font-size="10.00">standardmodel/tagger</text>
<text text-anchor="middle" x="998" y="-376.5" font-family="Helvetica,sans-Serif" font-size="10.00">/Higgs.hh</text>
</a>
</g>
</g>
<!-- Node26&#45;&gt;Node27 -->
<g id="edge33" class="edge"><title>Node26&#45;&gt;Node27</title>
<path fill="none" stroke="midnightblue" d="M553.717,-503.499C645.981,-478.994 836.303,-428.446 935.215,-402.175"/>
<polygon fill="midnightblue" stroke="midnightblue" points="936.309,-405.506 945.075,-399.556 934.512,-398.741 936.309,-405.506"/>
</g>
<!-- Node38 -->
<g id="node38" class="node"><title>Node38</title>
<g id="a_node38"><a xlink:href="boca_2multiplets_2Octet_8hh.html" target="_top" xlink:title="boca/multiplets/Octet.hh">
<polygon fill="white" stroke="black" points="175.5,-442 175.5,-461 298.5,-461 298.5,-442 175.5,-442"/>
<text text-anchor="middle" x="237" y="-449" font-family="Helvetica,sans-Serif" font-size="10.00">boca/multiplets/Octet.hh</text>
</a>
</g>
</g>
<!-- Node26&#45;&gt;Node38 -->
<g id="edge48" class="edge"><title>Node26&#45;&gt;Node38</title>
<path fill="none" stroke="midnightblue" d="M444.041,-503.476C395.384,-491.496 326.358,-474.501 281.629,-463.488"/>
<polygon fill="midnightblue" stroke="midnightblue" points="282.186,-460.021 271.639,-461.029 280.513,-466.818 282.186,-460.021"/>
</g>
<!-- Node43 -->
<g id="node43" class="node"><title>Node43</title>
<g id="a_node43"><a xlink:href="MultipletSignature_8hh.html" target="_top" xlink:title="higgscpv/MultipletSignature.hh">
<polygon fill="white" stroke="black" points="0,-442 0,-461 150,-461 150,-442 0,-442"/>
<text text-anchor="middle" x="75" y="-449" font-family="Helvetica,sans-Serif" font-size="10.00">higgscpv/MultipletSignature.hh</text>
</a>
</g>
</g>
<!-- Node26&#45;&gt;Node43 -->
<g id="edge55" class="edge"><title>Node26&#45;&gt;Node43</title>
<path fill="none" stroke="midnightblue" d="M435.814,-507.839C368.289,-497.792 259.722,-481.531 166,-467 156.944,-465.596 147.385,-464.094 138.001,-462.609"/>
<polygon fill="midnightblue" stroke="midnightblue" points="138.344,-459.12 127.919,-461.009 137.247,-466.033 138.344,-459.12"/>
</g>
<!-- Node45 -->
<g id="node45" class="node"><title>Node45</title>
<g id="a_node45"><a xlink:href="TopLeptonicPair_8hh.html" target="_top" xlink:title="higgscpv/tagger/TopLeptonic\lPair.hh">
<polygon fill="white" stroke="black" points="507,-436.5 507,-466.5 649,-466.5 649,-436.5 507,-436.5"/>
<text text-anchor="start" x="515" y="-454.5" font-family="Helvetica,sans-Serif" font-size="10.00">higgscpv/tagger/TopLeptonic</text>
<text text-anchor="middle" x="578" y="-443.5" font-family="Helvetica,sans-Serif" font-size="10.00">Pair.hh</text>
</a>
</g>
</g>
<!-- Node26&#45;&gt;Node45 -->
<g id="edge58" class="edge"><title>Node26&#45;&gt;Node45</title>
<path fill="none" stroke="midnightblue" d="M517.708,-503.396C528.202,-494.538 541.916,-482.96 553.613,-473.086"/>
<polygon fill="midnightblue" stroke="midnightblue" points="555.941,-475.702 561.325,-466.577 551.426,-470.353 555.941,-475.702"/>
</g>
<!-- Node49 -->
<g id="node49" class="node"><title>Node49</title>
<g id="a_node49"><a xlink:href="branch_2SignatureLepton_8hh.html" target="_top" xlink:title="higgscpv/branch/Signature\lLepton.hh">
<polygon fill="white" stroke="black" points="357,-436.5 357,-466.5 489,-466.5 489,-436.5 357,-436.5"/>
<text text-anchor="start" x="365" y="-454.5" font-family="Helvetica,sans-Serif" font-size="10.00">higgscpv/branch/Signature</text>
<text text-anchor="middle" x="423" y="-443.5" font-family="Helvetica,sans-Serif" font-size="10.00">Lepton.hh</text>
</a>
</g>
</g>
<!-- Node26&#45;&gt;Node49 -->
<g id="edge65" class="edge"><title>Node26&#45;&gt;Node49</title>
<path fill="none" stroke="midnightblue" d="M484.075,-503.396C473.445,-494.538 459.552,-482.96 447.703,-473.086"/>
<polygon fill="midnightblue" stroke="midnightblue" points="449.815,-470.29 439.892,-466.577 445.333,-475.667 449.815,-470.29"/>
</g>
<!-- Node28 -->
<g id="node28" class="node"><title>Node28</title>
<g id="a_node28"><a xlink:href="boca_2tagger_2Tagger_8hh.html" target="_top" xlink:title="boca/tagger/Tagger.hh">
<polygon fill="white" stroke="red" points="1157,-246.5 1157,-265.5 1271,-265.5 1271,-246.5 1157,-246.5"/>
<text text-anchor="middle" x="1214" y="-253.5" font-family="Helvetica,sans-Serif" font-size="10.00">boca/tagger/Tagger.hh</text>
</a>
</g>
</g>
<!-- Node27&#45;&gt;Node28 -->
<g id="edge34" class="edge"><title>Node27&#45;&gt;Node28</title>
<path fill="none" stroke="midnightblue" d="M1053.1,-381.686C1126.6,-377.973 1250.78,-366.745 1279,-333 1287.84,-322.431 1285.39,-314.204 1279,-302 1271.72,-288.108 1257.99,-277.652 1245.02,-270.333"/>
<polygon fill="midnightblue" stroke="midnightblue" points="1246.3,-267.053 1235.81,-265.553 1243.07,-273.266 1246.3,-267.053"/>
</g>
<!-- Node34 -->
<g id="node34" class="node"><title>Node34</title>
<g id="a_node34"><a xlink:href="Doublet_8hh.html" target="_top" xlink:title="boca/multiplets/Doublet.hh">
<polygon fill="white" stroke="red" points="1137.5,-308 1137.5,-327 1270.5,-327 1270.5,-308 1137.5,-308"/>
<text text-anchor="middle" x="1204" y="-315" font-family="Helvetica,sans-Serif" font-size="10.00">boca/multiplets/Doublet.hh</text>
</a>
</g>
</g>
<!-- Node27&#45;&gt;Node34 -->
<g id="edge42" class="edge"><title>Node27&#45;&gt;Node34</title>
<path fill="none" stroke="midnightblue" d="M1042.45,-369.476C1079.69,-357.723 1132.24,-341.143 1167.17,-330.12"/>
<polygon fill="midnightblue" stroke="midnightblue" points="1168.49,-333.376 1176.97,-327.029 1166.38,-326.7 1168.49,-333.376"/>
</g>
<!-- Node35 -->
<g id="node35" class="node"><title>Node35</title>
<g id="a_node35"><a xlink:href="Reader_8hh.html" target="_top" xlink:title="boca/multivariant/Reader.hh">
<polygon fill="white" stroke="red" points="682.5,-308 682.5,-327 821.5,-327 821.5,-308 682.5,-308"/>
<text text-anchor="middle" x="752" y="-315" font-family="Helvetica,sans-Serif" font-size="10.00">boca/multivariant/Reader.hh</text>
</a>
</g>
</g>
<!-- Node27&#45;&gt;Node35 -->
<g id="edge43" class="edge"><title>Node27&#45;&gt;Node35</title>
<path fill="none" stroke="midnightblue" d="M944.925,-369.476C899.776,-357.547 835.807,-340.644 794.114,-329.628"/>
<polygon fill="midnightblue" stroke="midnightblue" points="794.84,-326.199 784.278,-327.029 793.052,-332.967 794.84,-326.199"/>
</g>
<!-- Node36 -->
<g id="node36" class="node"><title>Node36</title>
<g id="a_node36"><a xlink:href="tagger_2Bottom_8hh.html" target="_top" xlink:title="standardmodel/tagger\l/Bottom.hh">
<polygon fill="white" stroke="red" points="878,-302.5 878,-332.5 988,-332.5 988,-302.5 878,-302.5"/>
<text text-anchor="start" x="886" y="-320.5" font-family="Helvetica,sans-Serif" font-size="10.00">standardmodel/tagger</text>
<text text-anchor="middle" x="933" y="-309.5" font-family="Helvetica,sans-Serif" font-size="10.00">/Bottom.hh</text>
</a>
</g>
</g>
<!-- Node27&#45;&gt;Node36 -->
<g id="edge45" class="edge"><title>Node27&#45;&gt;Node36</title>
<path fill="none" stroke="midnightblue" d="M983.896,-369.396C975.208,-360.708 963.905,-349.405 954.158,-339.658"/>
<polygon fill="midnightblue" stroke="midnightblue" points="956.622,-337.173 947.077,-332.577 951.673,-342.122 956.622,-337.173"/>
</g>
<!-- Node37 -->
<g id="node37" class="node"><title>Node37</title>
<g id="a_node37"><a xlink:href="standardmodel_2standardmodel_2branch_2Higgs_8hh.html" target="_top" xlink:title="standardmodel/branch\l/Higgs.hh">
<polygon fill="white" stroke="red" points="1006.5,-302.5 1006.5,-332.5 1119.5,-332.5 1119.5,-302.5 1006.5,-302.5"/>
<text text-anchor="start" x="1014.5" y="-320.5" font-family="Helvetica,sans-Serif" font-size="10.00">standardmodel/branch</text>
<text text-anchor="middle" x="1063" y="-309.5" font-family="Helvetica,sans-Serif" font-size="10.00">/Higgs.hh</text>
</a>
</g>
</g>
<!-- Node27&#45;&gt;Node37 -->
<g id="edge47" class="edge"><title>Node27&#45;&gt;Node37</title>
<path fill="none" stroke="midnightblue" d="M1012.1,-369.396C1020.79,-360.708 1032.1,-349.405 1041.84,-339.658"/>
<polygon fill="midnightblue" stroke="midnightblue" points="1044.33,-342.122 1048.92,-332.577 1039.38,-337.173 1044.33,-342.122"/>
</g>
<!-- Node29 -->
<g id="node29" class="node"><title>Node29</title>
<g id="a_node29"><a xlink:href="Debug_8hh.html" target="_top" xlink:title="boca/generic/Debug.hh">
<polygon fill="white" stroke="black" points="1327.5,-190.5 1327.5,-209.5 1444.5,-209.5 1444.5,-190.5 1327.5,-190.5"/>
<text text-anchor="middle" x="1386" y="-197.5" font-family="Helvetica,sans-Serif" font-size="10.00">boca/generic/Debug.hh</text>
</a>
</g>
</g>
<!-- Node28&#45;&gt;Node29 -->
<g id="edge35" class="edge"><title>Node28&#45;&gt;Node29</title>
<path fill="none" stroke="midnightblue" d="M1241.25,-246.444C1270.44,-237.28 1316.92,-222.688 1349.31,-212.519"/>
<polygon fill="midnightblue" stroke="midnightblue" points="1350.38,-215.851 1358.87,-209.516 1348.28,-209.173 1350.38,-215.851"/>
</g>
<!-- Node29&#45;&gt;Node17 -->
<g id="edge36" class="edge"><title>Node29&#45;&gt;Node17</title>
<path fill="none" stroke="midnightblue" d="M1370.24,-190.475C1352.02,-180.622 1321.83,-164.288 1300.53,-152.77"/>
<polygon fill="midnightblue" stroke="midnightblue" points="1302.19,-149.688 1291.73,-148.009 1298.86,-155.845 1302.19,-149.688"/>
</g>
<!-- Node29&#45;&gt;Node20 -->
<g id="edge37" class="edge"><title>Node29&#45;&gt;Node20</title>
<path fill="none" stroke="midnightblue" d="M1355.57,-190.43C1326.95,-182.085 1283.07,-168.56 1246,-154 1244.58,-153.443 1243.14,-152.853 1241.69,-152.241"/>
<polygon fill="midnightblue" stroke="midnightblue" points="1242.77,-148.892 1232.21,-148.021 1239.92,-155.286 1242.77,-148.892"/>
</g>
<!-- Node30 -->
<g id="node30" class="node"><title>Node30</title>
<polygon fill="white" stroke="#bfbfbf" points="1579,-129 1579,-148 1631,-148 1631,-129 1579,-129"/>
<text text-anchor="middle" x="1605" y="-136" font-family="Helvetica,sans-Serif" font-size="10.00">sstream</text>
</g>
<!-- Node29&#45;&gt;Node30 -->
<g id="edge38" class="edge"><title>Node29&#45;&gt;Node30</title>
<path fill="none" stroke="midnightblue" d="M1427.9,-190.47C1465.3,-182.439 1521.36,-169.366 1569,-154 1571.14,-153.311 1573.33,-152.556 1575.52,-151.763"/>
<polygon fill="midnightblue" stroke="midnightblue" points="1576.91,-154.979 1585,-148.139 1574.41,-148.44 1576.91,-154.979"/>
</g>
<!-- Node31 -->
<g id="node31" class="node"><title>Node31</title>
<polygon fill="white" stroke="#bfbfbf" points="1315,-129 1315,-148 1365,-148 1365,-129 1315,-129"/>
<text text-anchor="middle" x="1340" y="-136" font-family="Helvetica,sans-Serif" font-size="10.00">iomanip</text>
</g>
<!-- Node29&#45;&gt;Node31 -->
<g id="edge39" class="edge"><title>Node29&#45;&gt;Node31</title>
<path fill="none" stroke="midnightblue" d="M1379.41,-190.475C1372.51,-181.55 1361.5,-167.307 1352.87,-156.143"/>
<polygon fill="midnightblue" stroke="midnightblue" points="1355.46,-153.78 1346.58,-148.009 1349.93,-158.061 1355.46,-153.78"/>
</g>
<!-- Node32 -->
<g id="node32" class="node"><title>Node32</title>
<polygon fill="white" stroke="#bfbfbf" points="1383,-129 1383,-148 1437,-148 1437,-129 1383,-129"/>
<text text-anchor="middle" x="1410" y="-136" font-family="Helvetica,sans-Serif" font-size="10.00">iostream</text>
</g>
<!-- Node29&#45;&gt;Node32 -->
<g id="edge40" class="edge"><title>Node29&#45;&gt;Node32</title>
<path fill="none" stroke="midnightblue" d="M1389.44,-190.475C1392.9,-181.904 1398.33,-168.427 1402.75,-157.483"/>
<polygon fill="midnightblue" stroke="midnightblue" points="1406.07,-158.592 1406.57,-148.009 1399.58,-155.974 1406.07,-158.592"/>
</g>
<!-- Node33 -->
<g id="node33" class="node"><title>Node33</title>
<polygon fill="white" stroke="#bfbfbf" points="1455.5,-123.5 1455.5,-153.5 1560.5,-153.5 1560.5,-123.5 1455.5,-123.5"/>
<text text-anchor="start" x="1463.5" y="-141.5" font-family="Helvetica,sans-Serif" font-size="10.00">boost/units/systems</text>
<text text-anchor="middle" x="1508" y="-130.5" font-family="Helvetica,sans-Serif" font-size="10.00">/si/io.hpp</text>
</g>
<!-- Node29&#45;&gt;Node33 -->
<g id="edge41" class="edge"><title>Node29&#45;&gt;Node33</title>
<path fill="none" stroke="midnightblue" d="M1403.48,-190.475C1420.77,-182.04 1447.81,-168.855 1470.05,-158.008"/>
<polygon fill="midnightblue" stroke="midnightblue" points="1471.79,-161.052 1479.25,-153.523 1468.72,-154.761 1471.79,-161.052"/>
</g>
<!-- Node35&#45;&gt;Node2 -->
<g id="edge44" class="edge"><title>Node35&#45;&gt;Node2</title>
<path fill="none" stroke="midnightblue" d="M739.248,-307.975C724.973,-298.431 701.603,-282.807 684.492,-271.368"/>
<polygon fill="midnightblue" stroke="midnightblue" points="685.986,-268.157 675.728,-265.509 682.096,-273.977 685.986,-268.157"/>
</g>
<!-- Node36&#45;&gt;Node28 -->
<g id="edge46" class="edge"><title>Node36&#45;&gt;Node28</title>
<path fill="none" stroke="midnightblue" d="M988.144,-303.939C991.138,-303.278 994.105,-302.628 997,-302 1053.16,-289.816 1117.66,-276.53 1161.65,-267.577"/>
<polygon fill="midnightblue" stroke="midnightblue" points="1162.44,-270.988 1171.54,-265.566 1161.04,-264.128 1162.44,-270.988"/>
</g>
<!-- Node39 -->
<g id="node39" class="node"><title>Node39</title>
<g id="a_node39"><a xlink:href="Sextet_8hh.html" target="_top" xlink:title="boca/multiplets/Sextet.hh">
<polygon fill="white" stroke="black" points="321,-375 321,-394 449,-394 449,-375 321,-375"/>
<text text-anchor="middle" x="385" y="-382" font-family="Helvetica,sans-Serif" font-size="10.00">boca/multiplets/Sextet.hh</text>
</a>
</g>
</g>
<!-- Node38&#45;&gt;Node39 -->
<g id="edge49" class="edge"><title>Node38&#45;&gt;Node39</title>
<path fill="none" stroke="midnightblue" d="M256.653,-441.869C282.085,-430.699 326.604,-411.147 355.946,-398.26"/>
<polygon fill="midnightblue" stroke="midnightblue" points="357.517,-401.393 365.265,-394.167 354.702,-394.984 357.517,-401.393"/>
</g>
<!-- Node40 -->
<g id="node40" class="node"><title>Node40</title>
<g id="a_node40"><a xlink:href="Quartet_8hh.html" target="_top" xlink:title="boca/multiplets/Quartet.hh">
<polygon fill="white" stroke="red" points="149.5,-308 149.5,-327 280.5,-327 280.5,-308 149.5,-308"/>
<text text-anchor="middle" x="215" y="-315" font-family="Helvetica,sans-Serif" font-size="10.00">boca/multiplets/Quartet.hh</text>
</a>
</g>
</g>
<!-- Node38&#45;&gt;Node40 -->
<g id="edge53" class="edge"><title>Node38&#45;&gt;Node40</title>
<path fill="none" stroke="midnightblue" d="M213.685,-441.909C195.962,-433.997 172.841,-420.37 162,-400 155.527,-387.838 156.574,-381.664 162,-369 168.222,-354.477 180.899,-342.151 192.294,-333.312"/>
<polygon fill="midnightblue" stroke="midnightblue" points="194.599,-335.964 200.631,-327.254 190.484,-330.301 194.599,-335.964"/>
</g>
<!-- Node41 -->
<g id="node41" class="node"><title>Node41</title>
<g id="a_node41"><a xlink:href="multiplets_2ThreeBody_8hh.html" target="_top" xlink:title="boca/multiplets/ThreeBody.hh">
<polygon fill="white" stroke="red" points="142,-246.5 142,-265.5 288,-265.5 288,-246.5 142,-246.5"/>
<text text-anchor="middle" x="215" y="-253.5" font-family="Helvetica,sans-Serif" font-size="10.00">boca/multiplets/ThreeBody.hh</text>
</a>
</g>
</g>
<!-- Node38&#45;&gt;Node41 -->
<g id="edge54" class="edge"><title>Node38&#45;&gt;Node41</title>
<path fill="none" stroke="midnightblue" d="M212.454,-441.844C193.551,-433.896 168.308,-420.251 154,-400 136.446,-375.155 143.128,-363.26 140,-333 138.583,-319.295 133.212,-313.989 140,-302 148.347,-287.258 163.662,-276.819 178.287,-269.732"/>
<polygon fill="midnightblue" stroke="midnightblue" points="179.997,-272.803 187.718,-265.547 177.158,-266.404 179.997,-272.803"/>
</g>
<!-- Node42 -->
<g id="node42" class="node"><title>Node42</title>
<g id="a_node42"><a xlink:href="Quintet_8hh.html" target="_top" xlink:title="boca/multiplets/Quintet.hh">
<polygon fill="white" stroke="red" points="171.5,-375 171.5,-394 302.5,-394 302.5,-375 171.5,-375"/>
<text text-anchor="middle" x="237" y="-382" font-family="Helvetica,sans-Serif" font-size="10.00">boca/multiplets/Quintet.hh</text>
</a>
</g>
</g>
<!-- Node38&#45;&gt;Node42 -->
<g id="edge52" class="edge"><title>Node38&#45;&gt;Node42</title>
<path fill="none" stroke="midnightblue" d="M237,-441.734C237,-432.183 237,-416.618 237,-404.283"/>
<polygon fill="midnightblue" stroke="midnightblue" points="240.5,-404.127 237,-394.127 233.5,-404.127 240.5,-404.127"/>
</g>
<!-- Node39&#45;&gt;Node40 -->
<g id="edge50" class="edge"><title>Node39&#45;&gt;Node40</title>
<path fill="none" stroke="midnightblue" d="M362.425,-374.869C332.75,-363.522 280.449,-343.525 246.783,-330.652"/>
<polygon fill="midnightblue" stroke="midnightblue" points="247.988,-327.366 237.397,-327.064 245.488,-333.904 247.988,-327.366"/>
</g>
<!-- Node40&#45;&gt;Node41 -->
<g id="edge51" class="edge"><title>Node40&#45;&gt;Node41</title>
<path fill="none" stroke="midnightblue" d="M215,-307.975C215,-299.58 215,-286.481 215,-275.663"/>
<polygon fill="midnightblue" stroke="midnightblue" points="218.5,-275.509 215,-265.509 211.5,-275.509 218.5,-275.509"/>
</g>
<!-- Node44 -->
<g id="node44" class="node"><title>Node44</title>
<g id="a_node44"><a xlink:href="EventShapes_8hh.html" target="_top" xlink:title="boca/EventShapes.hh">
<polygon fill="white" stroke="red" points="10.5,-246.5 10.5,-265.5 123.5,-265.5 123.5,-246.5 10.5,-246.5"/>
<text text-anchor="middle" x="67" y="-253.5" font-family="Helvetica,sans-Serif" font-size="10.00">boca/EventShapes.hh</text>
</a>
</g>
</g>
<!-- Node43&#45;&gt;Node44 -->
<g id="edge56" class="edge"><title>Node43&#45;&gt;Node44</title>
<path fill="none" stroke="midnightblue" d="M74.6459,-441.936C73.4408,-412.787 69.4793,-316.968 67.7826,-275.928"/>
<polygon fill="midnightblue" stroke="midnightblue" points="71.2784,-275.754 67.3682,-265.907 64.2844,-276.043 71.2784,-275.754"/>
</g>
<!-- Node44&#45;&gt;Node5 -->
<g id="edge57" class="edge"><title>Node44&#45;&gt;Node5</title>
<path fill="none" stroke="midnightblue" d="M123.516,-247.215C126.723,-246.798 129.902,-246.39 133,-246 246.419,-231.725 378.623,-216.839 456.315,-208.271"/>
<polygon fill="midnightblue" stroke="midnightblue" points="456.887,-211.729 466.443,-207.155 456.12,-204.771 456.887,-211.729"/>
</g>
<!-- Node45&#45;&gt;Node39 -->
<g id="edge62" class="edge"><title>Node45&#45;&gt;Node39</title>
<path fill="none" stroke="midnightblue" d="M536.122,-436.396C501.359,-424.688 452.495,-408.231 419.84,-397.234"/>
<polygon fill="midnightblue" stroke="midnightblue" points="420.853,-393.882 410.259,-394.007 418.619,-400.516 420.853,-393.882"/>
</g>
<!-- Node46 -->
<g id="node46" class="node"><title>Node46</title>
<g id="a_node46"><a xlink:href="tagger_2TopLeptonic_8hh.html" target="_top" xlink:title="standardmodel/tagger\l/TopLeptonic.hh">
<polygon fill="white" stroke="red" points="705,-369.5 705,-399.5 815,-399.5 815,-369.5 705,-369.5"/>
<text text-anchor="start" x="713" y="-387.5" font-family="Helvetica,sans-Serif" font-size="10.00">standardmodel/tagger</text>
<text text-anchor="middle" x="760" y="-376.5" font-family="Helvetica,sans-Serif" font-size="10.00">/TopLeptonic.hh</text>
</a>
</g>
</g>
<!-- Node45&#45;&gt;Node46 -->
<g id="edge59" class="edge"><title>Node45&#45;&gt;Node46</title>
<path fill="none" stroke="midnightblue" d="M617.491,-436.396C644.918,-426.601 681.653,-413.481 710.957,-403.015"/>
<polygon fill="midnightblue" stroke="midnightblue" points="712.346,-406.236 720.586,-399.577 709.991,-399.644 712.346,-406.236"/>
</g>
<!-- Node47 -->
<g id="node47" class="node"><title>Node47</title>
<g id="a_node47"><a xlink:href="TopLeptonicTwoBody_8hh.html" target="_top" xlink:title="higgscpv/branch/TopLeptonic\lTwoBody.hh">
<polygon fill="white" stroke="black" points="505,-369.5 505,-399.5 649,-399.5 649,-369.5 505,-369.5"/>
<text text-anchor="start" x="513" y="-387.5" font-family="Helvetica,sans-Serif" font-size="10.00">higgscpv/branch/TopLeptonic</text>
<text text-anchor="middle" x="577" y="-376.5" font-family="Helvetica,sans-Serif" font-size="10.00">TwoBody.hh</text>
</a>
</g>
</g>
<!-- Node45&#45;&gt;Node47 -->
<g id="edge63" class="edge"><title>Node45&#45;&gt;Node47</title>
<path fill="none" stroke="midnightblue" d="M577.783,-436.396C577.664,-428.645 577.512,-418.812 577.375,-409.86"/>
<polygon fill="midnightblue" stroke="midnightblue" points="580.87,-409.521 577.217,-399.577 573.871,-409.629 580.87,-409.521"/>
</g>
<!-- Node46&#45;&gt;Node35 -->
<g id="edge60" class="edge"><title>Node46&#45;&gt;Node35</title>
<path fill="none" stroke="midnightblue" d="M758.264,-369.396C757.103,-359.963 755.563,-347.448 754.3,-337.189"/>
<polygon fill="midnightblue" stroke="midnightblue" points="757.766,-336.692 753.07,-327.195 750.818,-337.547 757.766,-336.692"/>
</g>
<!-- Node46&#45;&gt;Node36 -->
<g id="edge61" class="edge"><title>Node46&#45;&gt;Node36</title>
<path fill="none" stroke="midnightblue" d="M797.538,-369.396C823.496,-359.643 858.224,-346.595 886.019,-336.152"/>
<polygon fill="midnightblue" stroke="midnightblue" points="887.405,-339.37 895.535,-332.577 884.943,-332.817 887.405,-339.37"/>
</g>
<!-- Node48 -->
<g id="node48" class="node"><title>Node48</title>
<g id="a_node48"><a xlink:href="Multi_8hh.html" target="_top" xlink:title="boca/branch/Multi.hh">
<polygon fill="white" stroke="red" points="470.5,-308 470.5,-327 577.5,-327 577.5,-308 470.5,-308"/>
<text text-anchor="middle" x="524" y="-315" font-family="Helvetica,sans-Serif" font-size="10.00">boca/branch/Multi.hh</text>
</a>
</g>
</g>
<!-- Node47&#45;&gt;Node48 -->
<g id="edge64" class="edge"><title>Node47&#45;&gt;Node48</title>
<path fill="none" stroke="midnightblue" d="M565.5,-369.396C557.318,-359.361 546.291,-345.838 537.661,-335.253"/>
<polygon fill="midnightblue" stroke="midnightblue" points="540.121,-332.733 531.089,-327.195 534.696,-337.157 540.121,-332.733"/>
</g>
<!-- Node49&#45;&gt;Node48 -->
<g id="edge66" class="edge"><title>Node49&#45;&gt;Node48</title>
<path fill="none" stroke="midnightblue" d="M433.809,-436.374C452.564,-411.862 491.05,-361.563 511.144,-335.302"/>
<polygon fill="midnightblue" stroke="midnightblue" points="514.125,-337.166 517.422,-327.097 508.565,-332.912 514.125,-337.166"/>
</g>
<!-- Node50&#45;&gt;Node29 -->
<g id="edge68" class="edge"><title>Node50&#45;&gt;Node29</title>
<path fill="none" stroke="midnightblue" d="M1078.2,-503.341C1123.56,-474.916 1225.73,-407.243 1296,-333 1330.66,-296.382 1361.47,-245.213 1376.43,-218.62"/>
<polygon fill="midnightblue" stroke="midnightblue" points="1379.58,-220.156 1381.36,-209.712 1373.46,-216.766 1379.58,-220.156"/>
</g>
</g>
</svg>
