<?xml version="1.0" encoding="UTF-8" standalone="no"?>
<!DOCTYPE svg PUBLIC "-//W3C//DTD SVG 1.1//EN"
 "http://www.w3.org/Graphics/SVG/1.1/DTD/svg11.dtd">
<!-- Generated by graphviz version 2.38.0 (20140413.2041)
 -->
<!-- Title: examples/heavyhiggs/heavyhiggs/tagger/HeavyHiggsLeptonic.hh Pages: 1 -->
<svg width="199pt" height="117pt"
 viewBox="0.00 0.00 199.00 117.00" xmlns="http://www.w3.org/2000/svg" xmlns:xlink="http://www.w3.org/1999/xlink">
<g id="graph0" class="graph" transform="scale(1 1) rotate(0) translate(4 113)">
<title>examples/heavyhiggs/heavyhiggs/tagger/HeavyHiggsLeptonic.hh</title>
<polygon fill="white" stroke="none" points="-4,4 -4,-113 195,-113 195,4 -4,4"/>
<!-- Node1 -->
<g id="node1" class="node"><title>Node1</title>
<polygon fill="#bfbfbf" stroke="black" points="17.5,-67.5 17.5,-108.5 173.5,-108.5 173.5,-67.5 17.5,-67.5"/>
<text text-anchor="start" x="25.5" y="-96.5" font-family="Helvetica,sans-Serif" font-size="10.00">examples/heavyhiggs</text>
<text text-anchor="start" x="25.5" y="-85.5" font-family="Helvetica,sans-Serif" font-size="10.00">/heavyhiggs/tagger/HeavyHiggs</text>
<text text-anchor="middle" x="95.5" y="-74.5" font-family="Helvetica,sans-Serif" font-size="10.00">Leptonic.hh</text>
</g>
<!-- Node2 -->
<g id="node2" class="node"><title>Node2</title>
<g id="a_node2"><a xlink:href="tagger_2HeavyHiggsLeptonic_8cpp.html" target="_top" xlink:title="examples/heavyhiggs\l/source/tagger/HeavyHiggsLeptonic.cpp">
<polygon fill="white" stroke="black" points="0,-0.5 0,-30.5 191,-30.5 191,-0.5 0,-0.5"/>
<text text-anchor="start" x="8" y="-18.5" font-family="Helvetica,sans-Serif" font-size="10.00">examples/heavyhiggs</text>
<text text-anchor="middle" x="95.5" y="-7.5" font-family="Helvetica,sans-Serif" font-size="10.00">/source/tagger/HeavyHiggsLeptonic.cpp</text>
</a>
</g>
</g>
<!-- Node1&#45;&gt;Node2 -->
<g id="edge1" class="edge"><title>Node1&#45;&gt;Node2</title>
<path fill="none" stroke="midnightblue" d="M95.5,-57.08C95.5,-48.0061 95.5,-38.4498 95.5,-30.8916"/>
<polygon fill="midnightblue" stroke="midnightblue" points="92.0001,-57.3618 95.5,-67.3618 99.0001,-57.3619 92.0001,-57.3618"/>
</g>
</g>
</svg>
