<?xml version="1.0" encoding="UTF-8" standalone="no"?>
<!DOCTYPE svg PUBLIC "-//W3C//DTD SVG 1.1//EN"
 "http://www.w3.org/Graphics/SVG/1.1/DTD/svg11.dtd">
<!-- Generated by graphviz version 2.38.0 (20140413.2041)
 -->
<!-- Title: examples/heavyhiggs/heavyhiggs/tagger/EventFusion.hh Pages: 1 -->
<svg width="2617pt" height="486pt"
 viewBox="0.00 0.00 2616.50 486.00" xmlns="http://www.w3.org/2000/svg" xmlns:xlink="http://www.w3.org/1999/xlink">
<g id="graph0" class="graph" transform="scale(1 1) rotate(0) translate(4 482)">
<title>examples/heavyhiggs/heavyhiggs/tagger/EventFusion.hh</title>
<polygon fill="white" stroke="none" points="-4,4 -4,-482 2612.5,-482 2612.5,4 -4,4"/>
<!-- Node1 -->
<g id="node1" class="node"><title>Node1</title>
<polygon fill="#bfbfbf" stroke="black" points="1654,-447.5 1654,-477.5 1824,-477.5 1824,-447.5 1654,-447.5"/>
<text text-anchor="start" x="1662" y="-465.5" font-family="Helvetica,sans-Serif" font-size="10.00">examples/heavyhiggs</text>
<text text-anchor="middle" x="1739" y="-454.5" font-family="Helvetica,sans-Serif" font-size="10.00">/heavyhiggs/tagger/EventFusion.hh</text>
</g>
<!-- Node2 -->
<g id="node2" class="node"><title>Node2</title>
<g id="a_node2"><a xlink:href="EventMultiplet_8hh.html" target="_top" xlink:title="boca/multiplets/EventMultiplet.hh">
<polygon fill="white" stroke="black" points="1414.5,-319 1414.5,-338 1575.5,-338 1575.5,-319 1414.5,-319"/>
<text text-anchor="middle" x="1495" y="-326" font-family="Helvetica,sans-Serif" font-size="10.00">boca/multiplets/EventMultiplet.hh</text>
</a>
</g>
</g>
<!-- Node1&#45;&gt;Node2 -->
<g id="edge1" class="edge"><title>Node1&#45;&gt;Node2</title>
<path fill="none" stroke="midnightblue" d="M1712.65,-447.384C1693.79,-437.276 1667.82,-423.328 1645,-411 1600.77,-387.101 1549.29,-359.088 1519.59,-342.908"/>
<polygon fill="midnightblue" stroke="midnightblue" points="1521.21,-339.802 1510.75,-338.09 1517.86,-345.949 1521.21,-339.802"/>
</g>
<!-- Node33 -->
<g id="node33" class="node"><title>Node33</title>
<g id="a_node33"><a xlink:href="branch_2EventFusion_8hh.html" target="_top" xlink:title="heavyhiggs/branch/EventFusion.hh">
<polygon fill="white" stroke="black" points="1654,-386 1654,-405 1824,-405 1824,-386 1654,-386"/>
<text text-anchor="middle" x="1739" y="-393" font-family="Helvetica,sans-Serif" font-size="10.00">heavyhiggs/branch/EventFusion.hh</text>
</a>
</g>
</g>
<!-- Node1&#45;&gt;Node33 -->
<g id="edge37" class="edge"><title>Node1&#45;&gt;Node33</title>
<path fill="none" stroke="midnightblue" d="M1739,-447.396C1739,-438.064 1739,-425.714 1739,-415.517"/>
<polygon fill="midnightblue" stroke="midnightblue" points="1742.5,-415.195 1739,-405.195 1735.5,-415.195 1742.5,-415.195"/>
</g>
<!-- Node37 -->
<g id="node37" class="node"><title>Node37</title>
<g id="a_node37"><a xlink:href="tagger_2HeavyHiggsSemi_8hh.html" target="_top" xlink:title="heavyhiggs/tagger/HeavyHiggs\lSemi.hh">
<polygon fill="white" stroke="black" points="2016.5,-380.5 2016.5,-410.5 2169.5,-410.5 2169.5,-380.5 2016.5,-380.5"/>
<text text-anchor="start" x="2024.5" y="-398.5" font-family="Helvetica,sans-Serif" font-size="10.00">heavyhiggs/tagger/HeavyHiggs</text>
<text text-anchor="middle" x="2093" y="-387.5" font-family="Helvetica,sans-Serif" font-size="10.00">Semi.hh</text>
</a>
</g>
</g>
<!-- Node1&#45;&gt;Node37 -->
<g id="edge41" class="edge"><title>Node1&#45;&gt;Node37</title>
<path fill="none" stroke="midnightblue" d="M1815.38,-447.476C1871.58,-437.157 1948.05,-423.116 2006.5,-412.383"/>
<polygon fill="midnightblue" stroke="midnightblue" points="2007.25,-415.803 2016.46,-410.555 2005.99,-408.918 2007.25,-415.803"/>
</g>
<!-- Node3 -->
<g id="node3" class="node"><title>Node3</title>
<g id="a_node3"><a xlink:href="boca_2multiplets_2Global_8hh.html" target="_top" xlink:title="boca/multiplets/Global.hh">
<polygon fill="white" stroke="black" points="1431.5,-252 1431.5,-271 1558.5,-271 1558.5,-252 1431.5,-252"/>
<text text-anchor="middle" x="1495" y="-259" font-family="Helvetica,sans-Serif" font-size="10.00">boca/multiplets/Global.hh</text>
</a>
</g>
</g>
<!-- Node2&#45;&gt;Node3 -->
<g id="edge2" class="edge"><title>Node2&#45;&gt;Node3</title>
<path fill="none" stroke="midnightblue" d="M1495,-318.734C1495,-309.183 1495,-293.618 1495,-281.283"/>
<polygon fill="midnightblue" stroke="midnightblue" points="1498.5,-281.127 1495,-271.127 1491.5,-281.127 1498.5,-281.127"/>
</g>
<!-- Node9 -->
<g id="node9" class="node"><title>Node9</title>
<g id="a_node9"><a xlink:href="multiplets_2TwoBody_8hh.html" target="_top" xlink:title="boca/multiplets/TwoBody.hh">
<polygon fill="white" stroke="black" points="1092,-252 1092,-271 1232,-271 1232,-252 1092,-252"/>
<text text-anchor="middle" x="1162" y="-259" font-family="Helvetica,sans-Serif" font-size="10.00">boca/multiplets/TwoBody.hh</text>
</a>
</g>
</g>
<!-- Node2&#45;&gt;Node9 -->
<g id="edge8" class="edge"><title>Node2&#45;&gt;Node9</title>
<path fill="none" stroke="midnightblue" d="M1451.12,-318.936C1390.52,-307.106 1281.29,-285.784 1215.82,-273.006"/>
<polygon fill="midnightblue" stroke="midnightblue" points="1216.19,-269.512 1205.71,-271.032 1214.85,-276.383 1216.19,-269.512"/>
</g>
<!-- Node4 -->
<g id="node4" class="node"><title>Node4</title>
<g id="a_node4"><a xlink:href="Singlet_8hh.html" target="_top" xlink:title="boca/multiplets/Singlet.hh">
<polygon fill="white" stroke="black" points="2084.5,-118 2084.5,-137 2213.5,-137 2213.5,-118 2084.5,-118"/>
<text text-anchor="middle" x="2149" y="-125" font-family="Helvetica,sans-Serif" font-size="10.00">boca/multiplets/Singlet.hh</text>
</a>
</g>
</g>
<!-- Node3&#45;&gt;Node4 -->
<g id="edge3" class="edge"><title>Node3&#45;&gt;Node4</title>
<path fill="none" stroke="midnightblue" d="M1531.49,-251.939C1562.4,-243.793 1607.27,-229.824 1643,-210 1662.06,-199.425 1660.82,-187.24 1681,-179 1843.79,-112.521 1900.94,-167.939 2075,-143 2083.02,-141.852 2091.48,-140.412 2099.7,-138.888"/>
<polygon fill="midnightblue" stroke="midnightblue" points="2100.41,-142.317 2109.57,-137.002 2099.09,-135.442 2100.41,-142.317"/>
</g>
<!-- Node5 -->
<g id="node5" class="node"><title>Node5</title>
<g id="a_node5"><a xlink:href="Mutable_8hh.html" target="_top" xlink:title="boca/generic/Mutable.hh">
<polygon fill="white" stroke="red" points="2087.5,-56.5 2087.5,-75.5 2210.5,-75.5 2210.5,-56.5 2087.5,-56.5"/>
<text text-anchor="middle" x="2149" y="-63.5" font-family="Helvetica,sans-Serif" font-size="10.00">boca/generic/Mutable.hh</text>
</a>
</g>
</g>
<!-- Node4&#45;&gt;Node5 -->
<g id="edge4" class="edge"><title>Node4&#45;&gt;Node5</title>
<path fill="none" stroke="midnightblue" d="M2149,-117.975C2149,-109.58 2149,-96.4806 2149,-85.6631"/>
<polygon fill="midnightblue" stroke="midnightblue" points="2152.5,-85.5091 2149,-75.5091 2145.5,-85.5091 2152.5,-85.5091"/>
</g>
<!-- Node7 -->
<g id="node7" class="node"><title>Node7</title>
<g id="a_node7"><a xlink:href="Line2_8hh.html" target="_top" xlink:title="boca/math/Line2.hh">
<polygon fill="white" stroke="red" points="2229,-56.5 2229,-75.5 2331,-75.5 2331,-56.5 2229,-56.5"/>
<text text-anchor="middle" x="2280" y="-63.5" font-family="Helvetica,sans-Serif" font-size="10.00">boca/math/Line2.hh</text>
</a>
</g>
</g>
<!-- Node4&#45;&gt;Node7 -->
<g id="edge6" class="edge"><title>Node4&#45;&gt;Node7</title>
<path fill="none" stroke="midnightblue" d="M2167.77,-117.975C2189.85,-107.945 2226.72,-91.2002 2252.14,-79.6546"/>
<polygon fill="midnightblue" stroke="midnightblue" points="2253.61,-82.8313 2261.27,-75.5091 2250.71,-76.4579 2253.61,-82.8313"/>
</g>
<!-- Node8 -->
<g id="node8" class="node"><title>Node8</title>
<g id="a_node8"><a xlink:href="Jet_8hh.html" target="_top" xlink:title="boca/fastjet/Jet.hh">
<polygon fill="white" stroke="red" points="1552,-56.5 1552,-75.5 1650,-75.5 1650,-56.5 1552,-56.5"/>
<text text-anchor="middle" x="1601" y="-63.5" font-family="Helvetica,sans-Serif" font-size="10.00">boca/fastjet/Jet.hh</text>
</a>
</g>
</g>
<!-- Node4&#45;&gt;Node8 -->
<g id="edge7" class="edge"><title>Node4&#45;&gt;Node8</title>
<path fill="none" stroke="midnightblue" d="M2109.18,-117.948C2098.15,-115.783 2086.14,-113.616 2075,-112 1926.52,-90.4586 1750.31,-76.8422 1660.33,-70.7416"/>
<polygon fill="midnightblue" stroke="midnightblue" points="1660.53,-67.2472 1650.32,-70.0698 1660.06,-74.2315 1660.53,-67.2472"/>
</g>
<!-- Node6 -->
<g id="node6" class="node"><title>Node6</title>
<polygon fill="white" stroke="#bfbfbf" points="2360.5,-0.5 2360.5,-19.5 2419.5,-19.5 2419.5,-0.5 2360.5,-0.5"/>
<text text-anchor="middle" x="2390" y="-7.5" font-family="Helvetica,sans-Serif" font-size="10.00">functional</text>
</g>
<!-- Node5&#45;&gt;Node6 -->
<g id="edge5" class="edge"><title>Node5&#45;&gt;Node6</title>
<path fill="none" stroke="midnightblue" d="M2187.19,-56.4435C2231.76,-46.4559 2305.12,-30.0185 2350.32,-19.8899"/>
<polygon fill="midnightblue" stroke="midnightblue" points="2351.36,-23.2457 2360.35,-17.6439 2349.83,-16.4151 2351.36,-23.2457"/>
</g>
<!-- Node10 -->
<g id="node10" class="node"><title>Node10</title>
<polygon fill="white" stroke="#bfbfbf" points="1524,-179.5 1524,-209.5 1634,-209.5 1634,-179.5 1524,-179.5"/>
<text text-anchor="start" x="1532" y="-197.5" font-family="Helvetica,sans-Serif" font-size="10.00">boost/range/algorithm</text>
<text text-anchor="middle" x="1579" y="-186.5" font-family="Helvetica,sans-Serif" font-size="10.00">/unique.hpp</text>
</g>
<!-- Node9&#45;&gt;Node10 -->
<g id="edge9" class="edge"><title>Node9&#45;&gt;Node10</title>
<path fill="none" stroke="midnightblue" d="M1232.26,-252.145C1301.46,-243.531 1410.37,-228.947 1513.9,-210.116"/>
<polygon fill="midnightblue" stroke="midnightblue" points="1514.7,-213.528 1523.9,-208.28 1513.43,-206.643 1514.7,-213.528"/>
</g>
<!-- Node11 -->
<g id="node11" class="node"><title>Node11</title>
<polygon fill="white" stroke="#bfbfbf" points="270,-179.5 270,-209.5 380,-209.5 380,-179.5 270,-179.5"/>
<text text-anchor="start" x="278" y="-197.5" font-family="Helvetica,sans-Serif" font-size="10.00">boost/range/algorithm</text>
<text text-anchor="middle" x="325" y="-186.5" font-family="Helvetica,sans-Serif" font-size="10.00">_ext/erase.hpp</text>
</g>
<!-- Node9&#45;&gt;Node11 -->
<g id="edge10" class="edge"><title>Node9&#45;&gt;Node11</title>
<path fill="none" stroke="midnightblue" d="M1091.8,-259.608C957.313,-257.096 654.034,-247.548 390.212,-210.014"/>
<polygon fill="midnightblue" stroke="midnightblue" points="390.452,-206.513 380.055,-208.552 389.454,-213.441 390.452,-206.513"/>
</g>
<!-- Node12 -->
<g id="node12" class="node"><title>Node12</title>
<g id="a_node12"><a xlink:href="ClusterSequence_8hh.html" target="_top" xlink:title="boca/fastjet/ClusterSequence.hh">
<polygon fill="white" stroke="black" points="636.5,-185 636.5,-204 795.5,-204 795.5,-185 636.5,-185"/>
<text text-anchor="middle" x="716" y="-192" font-family="Helvetica,sans-Serif" font-size="10.00">boca/fastjet/ClusterSequence.hh</text>
</a>
</g>
</g>
<!-- Node9&#45;&gt;Node12 -->
<g id="edge11" class="edge"><title>Node9&#45;&gt;Node12</title>
<path fill="none" stroke="midnightblue" d="M1103.23,-251.936C1020.98,-239.948 871.838,-218.212 784.604,-205.498"/>
<polygon fill="midnightblue" stroke="midnightblue" points="784.941,-202.011 774.541,-204.032 783.931,-208.937 784.941,-202.011"/>
</g>
<!-- Node14 -->
<g id="node14" class="node"><title>Node14</title>
<g id="a_node14"><a xlink:href="generic_2Vector_8hh.html" target="_top" xlink:title="boca/generic/Vector.hh">
<polygon fill="white" stroke="black" points="398.5,-185 398.5,-204 515.5,-204 515.5,-185 398.5,-185"/>
<text text-anchor="middle" x="457" y="-192" font-family="Helvetica,sans-Serif" font-size="10.00">boca/generic/Vector.hh</text>
</a>
</g>
</g>
<!-- Node9&#45;&gt;Node14 -->
<g id="edge14" class="edge"><title>Node9&#45;&gt;Node14</title>
<path fill="none" stroke="midnightblue" d="M1091.82,-254.03C956.388,-241.543 660.48,-214.261 525.988,-201.861"/>
<polygon fill="midnightblue" stroke="midnightblue" points="526.09,-198.355 515.81,-200.922 525.447,-205.326 526.09,-198.355"/>
</g>
<!-- Node20 -->
<g id="node20" class="node"><title>Node20</title>
<g id="a_node20"><a xlink:href="Multiplet_8hh.html" target="_top" xlink:title="boca/multiplets/Multiplet.hh">
<polygon fill="white" stroke="black" points="1240,-185 1240,-204 1376,-204 1376,-185 1240,-185"/>
<text text-anchor="middle" x="1308" y="-192" font-family="Helvetica,sans-Serif" font-size="10.00">boca/multiplets/Multiplet.hh</text>
</a>
</g>
</g>
<!-- Node9&#45;&gt;Node20 -->
<g id="edge20" class="edge"><title>Node9&#45;&gt;Node20</title>
<path fill="none" stroke="midnightblue" d="M1181.39,-251.869C1206.48,-240.699 1250.39,-221.147 1279.34,-208.26"/>
<polygon fill="midnightblue" stroke="midnightblue" points="1280.82,-211.432 1288.53,-204.167 1277.97,-205.037 1280.82,-211.432"/>
</g>
<!-- Node25 -->
<g id="node25" class="node"><title>Node25</title>
<g id="a_node25"><a xlink:href="Sort_8hh.html" target="_top" xlink:title="boca/fastjet/Sort.hh">
<polygon fill="white" stroke="black" points="879,-185 879,-204 981,-204 981,-185 879,-185"/>
<text text-anchor="middle" x="930" y="-192" font-family="Helvetica,sans-Serif" font-size="10.00">boca/fastjet/Sort.hh</text>
</a>
</g>
</g>
<!-- Node9&#45;&gt;Node25 -->
<g id="edge28" class="edge"><title>Node9&#45;&gt;Node25</title>
<path fill="none" stroke="midnightblue" d="M1131.19,-251.869C1089.82,-240.278 1016.24,-219.662 970.452,-206.834"/>
<polygon fill="midnightblue" stroke="midnightblue" points="971.139,-203.391 960.566,-204.064 969.251,-210.132 971.139,-203.391"/>
</g>
<!-- Node29 -->
<g id="node29" class="node"><title>Node29</title>
<g id="a_node29"><a xlink:href="Settings_8hh.html" target="_top" xlink:title="boca/Settings.hh">
<polygon fill="white" stroke="red" points="1416,-185 1416,-204 1506,-204 1506,-185 1416,-185"/>
<text text-anchor="middle" x="1461" y="-192" font-family="Helvetica,sans-Serif" font-size="10.00">boca/Settings.hh</text>
</a>
</g>
</g>
<!-- Node9&#45;&gt;Node29 -->
<g id="edge33" class="edge"><title>Node9&#45;&gt;Node29</title>
<path fill="none" stroke="midnightblue" d="M1201.4,-251.936C1255.51,-240.171 1352.82,-219.018 1411.7,-206.218"/>
<polygon fill="midnightblue" stroke="midnightblue" points="1412.49,-209.628 1421.52,-204.083 1411,-202.788 1412.49,-209.628"/>
</g>
<!-- Node12&#45;&gt;Node12 -->
<g id="edge12" class="edge"><title>Node12&#45;&gt;Node12</title>
<path fill="none" stroke="midnightblue" d="M746.197,-204.018C777.883,-209.887 813.5,-206.714 813.5,-194.5 813.5,-183.574 785,-179.883 756.308,-183.427"/>
<polygon fill="midnightblue" stroke="midnightblue" points="755.549,-180.002 746.197,-184.982 756.613,-186.921 755.549,-180.002"/>
</g>
<!-- Node13 -->
<g id="node13" class="node"><title>Node13</title>
<g id="a_node13"><a xlink:href="ElectronVolt_8hh.html" target="_top" xlink:title="boca/units/ElectronVolt.hh">
<polygon fill="white" stroke="red" points="640.5,-56.5 640.5,-75.5 771.5,-75.5 771.5,-56.5 640.5,-56.5"/>
<text text-anchor="middle" x="706" y="-63.5" font-family="Helvetica,sans-Serif" font-size="10.00">boca/units/ElectronVolt.hh</text>
</a>
</g>
</g>
<!-- Node12&#45;&gt;Node13 -->
<g id="edge13" class="edge"><title>Node12&#45;&gt;Node13</title>
<path fill="none" stroke="midnightblue" d="M709.111,-184.829C701.973,-175.24 691.273,-159.021 687,-143 683.45,-129.688 684.266,-125.504 687,-112 688.893,-102.649 692.792,-92.8267 696.567,-84.7526"/>
<polygon fill="midnightblue" stroke="midnightblue" points="699.788,-86.1381 701.124,-75.6279 693.525,-83.0106 699.788,-86.1381"/>
</g>
<!-- Node15 -->
<g id="node15" class="node"><title>Node15</title>
<polygon fill="white" stroke="#bfbfbf" points="274,-112.5 274,-142.5 384,-142.5 384,-112.5 274,-112.5"/>
<text text-anchor="start" x="282" y="-130.5" font-family="Helvetica,sans-Serif" font-size="10.00">boost/range/algorithm</text>
<text text-anchor="middle" x="329" y="-119.5" font-family="Helvetica,sans-Serif" font-size="10.00">/find.hpp</text>
</g>
<!-- Node14&#45;&gt;Node15 -->
<g id="edge15" class="edge"><title>Node14&#45;&gt;Node15</title>
<path fill="none" stroke="midnightblue" d="M440.003,-184.869C421.189,-175.315 390.297,-159.627 365.873,-147.225"/>
<polygon fill="midnightblue" stroke="midnightblue" points="367.369,-144.059 356.868,-142.652 364.199,-150.3 367.369,-144.059"/>
</g>
<!-- Node16 -->
<g id="node16" class="node"><title>Node16</title>
<polygon fill="white" stroke="#bfbfbf" points="402,-112.5 402,-142.5 512,-142.5 512,-112.5 402,-112.5"/>
<text text-anchor="start" x="410" y="-130.5" font-family="Helvetica,sans-Serif" font-size="10.00">boost/range/algorithm</text>
<text text-anchor="middle" x="457" y="-119.5" font-family="Helvetica,sans-Serif" font-size="10.00">/min_element.hpp</text>
</g>
<!-- Node14&#45;&gt;Node16 -->
<g id="edge16" class="edge"><title>Node14&#45;&gt;Node16</title>
<path fill="none" stroke="midnightblue" d="M457,-184.734C457,-176.541 457,-163.923 457,-152.714"/>
<polygon fill="midnightblue" stroke="midnightblue" points="460.5,-152.589 457,-142.589 453.5,-152.589 460.5,-152.589"/>
</g>
<!-- Node17 -->
<g id="node17" class="node"><title>Node17</title>
<polygon fill="white" stroke="#bfbfbf" points="530,-112.5 530,-142.5 640,-142.5 640,-112.5 530,-112.5"/>
<text text-anchor="start" x="538" y="-130.5" font-family="Helvetica,sans-Serif" font-size="10.00">boost/range/algorithm</text>
<text text-anchor="middle" x="585" y="-119.5" font-family="Helvetica,sans-Serif" font-size="10.00">_ext/push_back.hpp</text>
</g>
<!-- Node14&#45;&gt;Node17 -->
<g id="edge17" class="edge"><title>Node14&#45;&gt;Node17</title>
<path fill="none" stroke="midnightblue" d="M473.997,-184.869C492.811,-175.315 523.703,-159.627 548.127,-147.225"/>
<polygon fill="midnightblue" stroke="midnightblue" points="549.801,-150.3 557.132,-142.652 546.631,-144.059 549.801,-150.3"/>
</g>
<!-- Node18 -->
<g id="node18" class="node"><title>Node18</title>
<polygon fill="white" stroke="#bfbfbf" points="0,-112.5 0,-142.5 110,-142.5 110,-112.5 0,-112.5"/>
<text text-anchor="start" x="8" y="-130.5" font-family="Helvetica,sans-Serif" font-size="10.00">boost/range/algorithm</text>
<text text-anchor="middle" x="55" y="-119.5" font-family="Helvetica,sans-Serif" font-size="10.00">/transform.hpp</text>
</g>
<!-- Node14&#45;&gt;Node18 -->
<g id="edge18" class="edge"><title>Node14&#45;&gt;Node18</title>
<path fill="none" stroke="midnightblue" d="M419.69,-185C409.747,-182.884 398.991,-180.729 389,-179 272.856,-158.905 239.881,-164.097 120.026,-143.08"/>
<polygon fill="midnightblue" stroke="midnightblue" points="120.552,-139.619 110.094,-141.314 119.326,-146.511 120.552,-139.619"/>
</g>
<!-- Node19 -->
<g id="node19" class="node"><title>Node19</title>
<polygon fill="white" stroke="#bfbfbf" points="128.5,-118 128.5,-137 255.5,-137 255.5,-118 128.5,-118"/>
<text text-anchor="middle" x="192" y="-125" font-family="Helvetica,sans-Serif" font-size="10.00">boost/range/adaptors.hpp</text>
</g>
<!-- Node14&#45;&gt;Node19 -->
<g id="edge19" class="edge"><title>Node14&#45;&gt;Node19</title>
<path fill="none" stroke="midnightblue" d="M422.083,-184.936C374.518,-173.268 289.303,-152.367 236.996,-139.537"/>
<polygon fill="midnightblue" stroke="midnightblue" points="237.54,-136.066 226.994,-137.083 235.872,-142.865 237.54,-136.066"/>
</g>
<!-- Node20&#45;&gt;Node4 -->
<g id="edge21" class="edge"><title>Node20&#45;&gt;Node4</title>
<path fill="none" stroke="midnightblue" d="M1360.04,-184.965C1375.15,-182.734 1391.7,-180.529 1407,-179 1702.85,-149.425 1779.95,-179.675 2075,-143 2083.4,-141.955 2092.29,-140.513 2100.87,-138.94"/>
<polygon fill="midnightblue" stroke="midnightblue" points="2101.59,-142.365 2110.76,-137.05 2100.28,-135.49 2101.59,-142.365"/>
</g>
<!-- Node21 -->
<g id="node21" class="node"><title>Node21</title>
<g id="a_node21"><a xlink:href="fastjet_2Particle_8hh.html" target="_top" xlink:title="boca/fastjet/Particle.hh">
<polygon fill="white" stroke="red" points="1228.5,-118 1228.5,-137 1345.5,-137 1345.5,-118 1228.5,-118"/>
<text text-anchor="middle" x="1287" y="-125" font-family="Helvetica,sans-Serif" font-size="10.00">boca/fastjet/Particle.hh</text>
</a>
</g>
</g>
<!-- Node20&#45;&gt;Node21 -->
<g id="edge22" class="edge"><title>Node20&#45;&gt;Node21</title>
<path fill="none" stroke="midnightblue" d="M1305.17,-184.734C1302.05,-175.085 1296.95,-159.3 1292.95,-146.906"/>
<polygon fill="midnightblue" stroke="midnightblue" points="1296.19,-145.567 1289.79,-137.127 1289.53,-147.719 1296.19,-145.567"/>
</g>
<!-- Node22 -->
<g id="node22" class="node"><title>Node22</title>
<g id="a_node22"><a xlink:href="ClosestLepton_8hh.html" target="_top" xlink:title="boca/multiplets/ClosestLepton.hh">
<polygon fill="white" stroke="black" points="1364,-118 1364,-137 1526,-137 1526,-118 1364,-118"/>
<text text-anchor="middle" x="1445" y="-125" font-family="Helvetica,sans-Serif" font-size="10.00">boca/multiplets/ClosestLepton.hh</text>
</a>
</g>
</g>
<!-- Node20&#45;&gt;Node22 -->
<g id="edge23" class="edge"><title>Node20&#45;&gt;Node22</title>
<path fill="none" stroke="midnightblue" d="M1326.19,-184.869C1349.53,-173.796 1390.23,-154.486 1417.39,-141.598"/>
<polygon fill="midnightblue" stroke="midnightblue" points="1419.2,-144.616 1426.73,-137.167 1416.2,-138.292 1419.2,-144.616"/>
</g>
<!-- Node23 -->
<g id="node23" class="node"><title>Node23</title>
<g id="a_node23"><a xlink:href="SubJettiness_8hh.html" target="_top" xlink:title="boca/fastjet/SubJettiness.hh">
<polygon fill="white" stroke="red" points="1069.5,-118 1069.5,-137 1210.5,-137 1210.5,-118 1069.5,-118"/>
<text text-anchor="middle" x="1140" y="-125" font-family="Helvetica,sans-Serif" font-size="10.00">boca/fastjet/SubJettiness.hh</text>
</a>
</g>
</g>
<!-- Node20&#45;&gt;Node23 -->
<g id="edge25" class="edge"><title>Node20&#45;&gt;Node23</title>
<path fill="none" stroke="midnightblue" d="M1285.69,-184.869C1256.49,-173.571 1205.12,-153.696 1171.84,-140.818"/>
<polygon fill="midnightblue" stroke="midnightblue" points="1172.72,-137.408 1162.13,-137.064 1170.2,-143.936 1172.72,-137.408"/>
</g>
<!-- Node24 -->
<g id="node24" class="node"><title>Node24</title>
<g id="a_node24"><a xlink:href="EventShapes_8hh.html" target="_top" xlink:title="boca/EventShapes.hh">
<polygon fill="white" stroke="red" points="1544.5,-118 1544.5,-137 1657.5,-137 1657.5,-118 1544.5,-118"/>
<text text-anchor="middle" x="1601" y="-125" font-family="Helvetica,sans-Serif" font-size="10.00">boca/EventShapes.hh</text>
</a>
</g>
</g>
<!-- Node20&#45;&gt;Node24 -->
<g id="edge26" class="edge"><title>Node20&#45;&gt;Node24</title>
<path fill="none" stroke="midnightblue" d="M1346.61,-184.936C1399.53,-173.196 1494.59,-152.105 1552.33,-139.297"/>
<polygon fill="midnightblue" stroke="midnightblue" points="1553.3,-142.666 1562.31,-137.083 1551.79,-135.832 1553.3,-142.666"/>
</g>
<!-- Node22&#45;&gt;Node8 -->
<g id="edge24" class="edge"><title>Node22&#45;&gt;Node8</title>
<path fill="none" stroke="midnightblue" d="M1467.35,-117.975C1493.99,-107.813 1538.71,-90.7564 1569.01,-79.1996"/>
<polygon fill="midnightblue" stroke="midnightblue" points="1570.59,-82.343 1578.69,-75.5091 1568.1,-75.8026 1570.59,-82.343"/>
</g>
<!-- Node24&#45;&gt;Node8 -->
<g id="edge27" class="edge"><title>Node24&#45;&gt;Node8</title>
<path fill="none" stroke="midnightblue" d="M1601,-117.975C1601,-109.58 1601,-96.4806 1601,-85.6631"/>
<polygon fill="midnightblue" stroke="midnightblue" points="1604.5,-85.5091 1601,-75.5091 1597.5,-85.5091 1604.5,-85.5091"/>
</g>
<!-- Node26 -->
<g id="node26" class="node"><title>Node26</title>
<polygon fill="white" stroke="#bfbfbf" points="810,-112.5 810,-142.5 920,-142.5 920,-112.5 810,-112.5"/>
<text text-anchor="start" x="818" y="-130.5" font-family="Helvetica,sans-Serif" font-size="10.00">boost/range/algorithm</text>
<text text-anchor="middle" x="865" y="-119.5" font-family="Helvetica,sans-Serif" font-size="10.00">/sort.hpp</text>
</g>
<!-- Node25&#45;&gt;Node26 -->
<g id="edge29" class="edge"><title>Node25&#45;&gt;Node26</title>
<path fill="none" stroke="midnightblue" d="M921.234,-184.734C912.365,-175.865 898.311,-161.811 886.472,-149.972"/>
<polygon fill="midnightblue" stroke="midnightblue" points="888.635,-147.185 879.089,-142.589 883.685,-152.135 888.635,-147.185"/>
</g>
<!-- Node27 -->
<g id="node27" class="node"><title>Node27</title>
<polygon fill="white" stroke="#bfbfbf" points="938.5,-118 938.5,-137 1051.5,-137 1051.5,-118 938.5,-118"/>
<text text-anchor="middle" x="995" y="-125" font-family="Helvetica,sans-Serif" font-size="10.00">boost/units/cmath.hpp</text>
</g>
<!-- Node25&#45;&gt;Node27 -->
<g id="edge30" class="edge"><title>Node25&#45;&gt;Node27</title>
<path fill="none" stroke="midnightblue" d="M938.766,-184.734C949.097,-174.403 966.463,-157.037 979.168,-144.332"/>
<polygon fill="midnightblue" stroke="midnightblue" points="981.776,-146.673 986.373,-137.127 976.827,-141.724 981.776,-146.673"/>
</g>
<!-- Node28 -->
<g id="node28" class="node"><title>Node28</title>
<g id="a_node28"><a xlink:href="Id_8hh.html" target="_top" xlink:title="boca/identification\l/Id.hh">
<polygon fill="white" stroke="red" points="696.5,-112.5 696.5,-142.5 791.5,-142.5 791.5,-112.5 696.5,-112.5"/>
<text text-anchor="start" x="704.5" y="-130.5" font-family="Helvetica,sans-Serif" font-size="10.00">boca/identification</text>
<text text-anchor="middle" x="744" y="-119.5" font-family="Helvetica,sans-Serif" font-size="10.00">/Id.hh</text>
</a>
</g>
</g>
<!-- Node25&#45;&gt;Node28 -->
<g id="edge31" class="edge"><title>Node25&#45;&gt;Node28</title>
<path fill="none" stroke="midnightblue" d="M905.301,-184.869C877.028,-174.988 829.987,-158.549 793.98,-145.966"/>
<polygon fill="midnightblue" stroke="midnightblue" points="794.737,-142.523 784.142,-142.528 792.427,-149.131 794.737,-142.523"/>
</g>
<!-- Node28&#45;&gt;Node13 -->
<g id="edge32" class="edge"><title>Node28&#45;&gt;Node13</title>
<path fill="none" stroke="midnightblue" d="M734.995,-112.399C729.587,-103.932 722.668,-93.0991 716.946,-84.1393"/>
<polygon fill="midnightblue" stroke="midnightblue" points="719.862,-82.2018 711.529,-75.6578 713.962,-85.9695 719.862,-82.2018"/>
</g>
<!-- Node30 -->
<g id="node30" class="node"><title>Node30</title>
<g id="a_node30"><a xlink:href="InfoRecombiner_8hh.html" target="_top" xlink:title="boca/fastjet/InfoRecombiner.hh">
<polygon fill="white" stroke="red" points="1675.5,-118 1675.5,-137 1828.5,-137 1828.5,-118 1675.5,-118"/>
<text text-anchor="middle" x="1752" y="-125" font-family="Helvetica,sans-Serif" font-size="10.00">boca/fastjet/InfoRecombiner.hh</text>
</a>
</g>
</g>
<!-- Node29&#45;&gt;Node30 -->
<g id="edge34" class="edge"><title>Node29&#45;&gt;Node30</title>
<path fill="none" stroke="midnightblue" d="M1491.77,-184.939C1499.35,-182.914 1507.45,-180.817 1515,-179 1577.82,-163.885 1650.56,-148.731 1698.71,-139.024"/>
<polygon fill="midnightblue" stroke="midnightblue" points="1699.48,-142.439 1708.6,-137.038 1698.11,-135.576 1699.48,-142.439"/>
</g>
<!-- Node31 -->
<g id="node31" class="node"><title>Node31</title>
<g id="a_node31"><a xlink:href="Range_8hh.html" target="_top" xlink:title="boca/math/Range.hh">
<polygon fill="white" stroke="red" points="1846.5,-118 1846.5,-137 1953.5,-137 1953.5,-118 1846.5,-118"/>
<text text-anchor="middle" x="1900" y="-125" font-family="Helvetica,sans-Serif" font-size="10.00">boca/math/Range.hh</text>
</a>
</g>
</g>
<!-- Node29&#45;&gt;Node31 -->
<g id="edge35" class="edge"><title>Node29&#45;&gt;Node31</title>
<path fill="none" stroke="midnightblue" d="M1489.68,-184.937C1497.81,-182.746 1506.7,-180.569 1515,-179 1656.5,-152.252 1695.04,-167.189 1837,-143 1843.24,-141.936 1849.8,-140.636 1856.22,-139.257"/>
<polygon fill="midnightblue" stroke="midnightblue" points="1857.14,-142.637 1866.14,-137.045 1855.62,-135.805 1857.14,-142.637"/>
</g>
<!-- Node32 -->
<g id="node32" class="node"><title>Node32</title>
<g id="a_node32"><a xlink:href="Source_8hh.html" target="_top" xlink:title="boca/io/Source.hh">
<polygon fill="white" stroke="red" points="1971.5,-118 1971.5,-137 2066.5,-137 2066.5,-118 1971.5,-118"/>
<text text-anchor="middle" x="2019" y="-125" font-family="Helvetica,sans-Serif" font-size="10.00">boca/io/Source.hh</text>
</a>
</g>
</g>
<!-- Node29&#45;&gt;Node32 -->
<g id="edge36" class="edge"><title>Node29&#45;&gt;Node32</title>
<path fill="none" stroke="midnightblue" d="M1488.81,-184.995C1497.16,-182.724 1506.39,-180.49 1515,-179 1711.39,-145.016 1765.39,-175.685 1962,-143 1967.6,-142.069 1973.46,-140.857 1979.2,-139.532"/>
<polygon fill="midnightblue" stroke="midnightblue" points="1980.44,-142.832 1989.32,-137.058 1978.78,-136.033 1980.44,-142.832"/>
</g>
<!-- Node34 -->
<g id="node34" class="node"><title>Node34</title>
<g id="a_node34"><a xlink:href="boca_2branch_2Event_8hh.html" target="_top" xlink:title="boca/branch/Event.hh">
<polygon fill="white" stroke="black" points="1683,-319 1683,-338 1795,-338 1795,-319 1683,-319"/>
<text text-anchor="middle" x="1739" y="-326" font-family="Helvetica,sans-Serif" font-size="10.00">boca/branch/Event.hh</text>
</a>
</g>
</g>
<!-- Node33&#45;&gt;Node34 -->
<g id="edge38" class="edge"><title>Node33&#45;&gt;Node34</title>
<path fill="none" stroke="midnightblue" d="M1739,-385.734C1739,-376.183 1739,-360.618 1739,-348.283"/>
<polygon fill="midnightblue" stroke="midnightblue" points="1742.5,-348.127 1739,-338.127 1735.5,-348.127 1742.5,-348.127"/>
</g>
<!-- Node35 -->
<g id="node35" class="node"><title>Node35</title>
<g id="a_node35"><a xlink:href="Bdt_8hh.html" target="_top" xlink:title="boca/branch/Bdt.hh">
<polygon fill="white" stroke="red" points="1731.5,-252 1731.5,-271 1832.5,-271 1832.5,-252 1731.5,-252"/>
<text text-anchor="middle" x="1782" y="-259" font-family="Helvetica,sans-Serif" font-size="10.00">boca/branch/Bdt.hh</text>
</a>
</g>
</g>
<!-- Node34&#45;&gt;Node35 -->
<g id="edge39" class="edge"><title>Node34&#45;&gt;Node35</title>
<path fill="none" stroke="midnightblue" d="M1744.8,-318.734C1751.38,-308.793 1762.26,-292.338 1770.56,-279.789"/>
<polygon fill="midnightblue" stroke="midnightblue" points="1773.69,-281.399 1776.29,-271.127 1767.86,-277.536 1773.69,-281.399"/>
</g>
<!-- Node36 -->
<g id="node36" class="node"><title>Node36</title>
<g id="a_node36"><a xlink:href="GlobalBase_8hh.html" target="_top" xlink:title="boca/branch/GlobalBase.hh">
<polygon fill="white" stroke="red" points="1576.5,-252 1576.5,-271 1713.5,-271 1713.5,-252 1576.5,-252"/>
<text text-anchor="middle" x="1645" y="-259" font-family="Helvetica,sans-Serif" font-size="10.00">boca/branch/GlobalBase.hh</text>
</a>
</g>
</g>
<!-- Node34&#45;&gt;Node36 -->
<g id="edge40" class="edge"><title>Node34&#45;&gt;Node36</title>
<path fill="none" stroke="midnightblue" d="M1726.32,-318.734C1710.82,-308.013 1684.36,-289.716 1665.84,-276.914"/>
<polygon fill="midnightblue" stroke="midnightblue" points="1667.69,-273.936 1657.48,-271.127 1663.71,-279.694 1667.69,-273.936"/>
</g>
<!-- Node38 -->
<g id="node38" class="node"><title>Node38</title>
<g id="a_node38"><a xlink:href="tagger_2TopLeptonic_8hh.html" target="_top" xlink:title="standardmodel/tagger\l/TopLeptonic.hh">
<polygon fill="white" stroke="black" points="2038,-246.5 2038,-276.5 2148,-276.5 2148,-246.5 2038,-246.5"/>
<text text-anchor="start" x="2046" y="-264.5" font-family="Helvetica,sans-Serif" font-size="10.00">standardmodel/tagger</text>
<text text-anchor="middle" x="2093" y="-253.5" font-family="Helvetica,sans-Serif" font-size="10.00">/TopLeptonic.hh</text>
</a>
</g>
</g>
<!-- Node37&#45;&gt;Node38 -->
<g id="edge42" class="edge"><title>Node37&#45;&gt;Node38</title>
<path fill="none" stroke="midnightblue" d="M2093,-380.374C2093,-358.044 2093,-314.313 2093,-286.851"/>
<polygon fill="midnightblue" stroke="midnightblue" points="2096.5,-286.525 2093,-276.525 2089.5,-286.525 2096.5,-286.525"/>
</g>
<!-- Node44 -->
<g id="node44" class="node"><title>Node44</title>
<g id="a_node44"><a xlink:href="tagger_2TopHadronic_8hh.html" target="_top" xlink:title="standardmodel/tagger\l/TopHadronic.hh">
<polygon fill="white" stroke="black" points="2237,-313.5 2237,-343.5 2347,-343.5 2347,-313.5 2237,-313.5"/>
<text text-anchor="start" x="2245" y="-331.5" font-family="Helvetica,sans-Serif" font-size="10.00">standardmodel/tagger</text>
<text text-anchor="middle" x="2292" y="-320.5" font-family="Helvetica,sans-Serif" font-size="10.00">/TopHadronic.hh</text>
</a>
</g>
</g>
<!-- Node37&#45;&gt;Node44 -->
<g id="edge49" class="edge"><title>Node37&#45;&gt;Node44</title>
<path fill="none" stroke="midnightblue" d="M2136.18,-380.396C2166.43,-370.515 2207.03,-357.252 2239.21,-346.743"/>
<polygon fill="midnightblue" stroke="midnightblue" points="2240.49,-350.008 2248.9,-343.577 2238.31,-343.354 2240.49,-350.008"/>
</g>
<!-- Node48 -->
<g id="node48" class="node"><title>Node48</title>
<g id="a_node48"><a xlink:href="Sextet_8hh.html" target="_top" xlink:title="boca/multiplets/Sextet.hh">
<polygon fill="white" stroke="black" points="1897,-319 1897,-338 2025,-338 2025,-319 1897,-319"/>
<text text-anchor="middle" x="1961" y="-326" font-family="Helvetica,sans-Serif" font-size="10.00">boca/multiplets/Sextet.hh</text>
</a>
</g>
</g>
<!-- Node37&#45;&gt;Node48 -->
<g id="edge58" class="edge"><title>Node37&#45;&gt;Node48</title>
<path fill="none" stroke="midnightblue" d="M2064.36,-380.396C2041.5,-369.142 2009.74,-353.501 1987.48,-342.538"/>
<polygon fill="midnightblue" stroke="midnightblue" points="1988.79,-339.285 1978.28,-338.007 1985.7,-345.565 1988.79,-339.285"/>
</g>
<!-- Node50 -->
<g id="node50" class="node"><title>Node50</title>
<g id="a_node50"><a xlink:href="branch_2HeavyHiggsSemi_8hh.html" target="_top" xlink:title="heavyhiggs/branch/HeavyHiggs\lSemi.hh">
<polygon fill="white" stroke="black" points="2442.5,-313.5 2442.5,-343.5 2597.5,-343.5 2597.5,-313.5 2442.5,-313.5"/>
<text text-anchor="start" x="2450.5" y="-331.5" font-family="Helvetica,sans-Serif" font-size="10.00">heavyhiggs/branch/HeavyHiggs</text>
<text text-anchor="middle" x="2520" y="-320.5" font-family="Helvetica,sans-Serif" font-size="10.00">Semi.hh</text>
</a>
</g>
</g>
<!-- Node37&#45;&gt;Node50 -->
<g id="edge61" class="edge"><title>Node37&#45;&gt;Node50</title>
<path fill="none" stroke="midnightblue" d="M2169.83,-382.804C2243.6,-371.576 2354.91,-354.631 2432.15,-342.873"/>
<polygon fill="midnightblue" stroke="midnightblue" points="2432.98,-346.286 2442.34,-341.321 2431.93,-339.366 2432.98,-346.286"/>
</g>
<!-- Node39 -->
<g id="node39" class="node"><title>Node39</title>
<g id="a_node39"><a xlink:href="Triplet_8hh.html" target="_top" xlink:title="boca/multiplets/Triplet.hh">
<polygon fill="white" stroke="red" points="1690,-185 1690,-204 1816,-204 1816,-185 1690,-185"/>
<text text-anchor="middle" x="1753" y="-192" font-family="Helvetica,sans-Serif" font-size="10.00">boca/multiplets/Triplet.hh</text>
</a>
</g>
</g>
<!-- Node38&#45;&gt;Node39 -->
<g id="edge43" class="edge"><title>Node38&#45;&gt;Node39</title>
<path fill="none" stroke="midnightblue" d="M2037.67,-248.729C2033.05,-247.79 2028.44,-246.869 2024,-246 1935.79,-228.756 1913.28,-226.873 1825,-210 1818.44,-208.746 1811.54,-207.397 1804.73,-206.046"/>
<polygon fill="midnightblue" stroke="midnightblue" points="1805.34,-202.599 1794.85,-204.074 1803.97,-209.464 1805.34,-202.599"/>
</g>
<!-- Node40 -->
<g id="node40" class="node"><title>Node40</title>
<g id="a_node40"><a xlink:href="Reader_8hh.html" target="_top" xlink:title="boca/multivariant/Reader.hh">
<polygon fill="white" stroke="red" points="2222.5,-185 2222.5,-204 2361.5,-204 2361.5,-185 2222.5,-185"/>
<text text-anchor="middle" x="2292" y="-192" font-family="Helvetica,sans-Serif" font-size="10.00">boca/multivariant/Reader.hh</text>
</a>
</g>
</g>
<!-- Node38&#45;&gt;Node40 -->
<g id="edge44" class="edge"><title>Node38&#45;&gt;Node40</title>
<path fill="none" stroke="midnightblue" d="M2136.18,-246.396C2172.02,-234.688 2222.41,-218.231 2256.08,-207.234"/>
<polygon fill="midnightblue" stroke="midnightblue" points="2257.54,-210.439 2265.96,-204.007 2255.36,-203.785 2257.54,-210.439"/>
</g>
<!-- Node41 -->
<g id="node41" class="node"><title>Node41</title>
<g id="a_node41"><a xlink:href="tagger_2Bottom_8hh.html" target="_top" xlink:title="standardmodel/tagger\l/Bottom.hh">
<polygon fill="white" stroke="red" points="2094,-179.5 2094,-209.5 2204,-209.5 2204,-179.5 2094,-179.5"/>
<text text-anchor="start" x="2102" y="-197.5" font-family="Helvetica,sans-Serif" font-size="10.00">standardmodel/tagger</text>
<text text-anchor="middle" x="2149" y="-186.5" font-family="Helvetica,sans-Serif" font-size="10.00">/Bottom.hh</text>
</a>
</g>
</g>
<!-- Node38&#45;&gt;Node41 -->
<g id="edge45" class="edge"><title>Node38&#45;&gt;Node41</title>
<path fill="none" stroke="midnightblue" d="M2105.15,-246.396C2112.49,-237.878 2121.99,-226.847 2130.28,-217.233"/>
<polygon fill="midnightblue" stroke="midnightblue" points="2133,-219.437 2136.87,-209.577 2127.69,-214.868 2133,-219.437"/>
</g>
<!-- Node42 -->
<g id="node42" class="node"><title>Node42</title>
<g id="a_node42"><a xlink:href="tagger_2WLeptonic_8hh.html" target="_top" xlink:title="standardmodel/tagger\l/WLeptonic.hh">
<polygon fill="white" stroke="red" points="1834,-179.5 1834,-209.5 1944,-209.5 1944,-179.5 1834,-179.5"/>
<text text-anchor="start" x="1842" y="-197.5" font-family="Helvetica,sans-Serif" font-size="10.00">standardmodel/tagger</text>
<text text-anchor="middle" x="1889" y="-186.5" font-family="Helvetica,sans-Serif" font-size="10.00">/WLeptonic.hh</text>
</a>
</g>
</g>
<!-- Node38&#45;&gt;Node42 -->
<g id="edge47" class="edge"><title>Node38&#45;&gt;Node42</title>
<path fill="none" stroke="midnightblue" d="M2048.99,-246.476C2017.86,-236.557 1975.94,-223.201 1942.82,-212.648"/>
<polygon fill="midnightblue" stroke="midnightblue" points="1943.88,-209.312 1933.29,-209.611 1941.75,-215.982 1943.88,-209.312"/>
</g>
<!-- Node43 -->
<g id="node43" class="node"><title>Node43</title>
<g id="a_node43"><a xlink:href="branch_2TopLeptonic_8hh.html" target="_top" xlink:title="standardmodel/branch\l/TopLeptonic.hh">
<polygon fill="white" stroke="red" points="1962.5,-179.5 1962.5,-209.5 2075.5,-209.5 2075.5,-179.5 1962.5,-179.5"/>
<text text-anchor="start" x="1970.5" y="-197.5" font-family="Helvetica,sans-Serif" font-size="10.00">standardmodel/branch</text>
<text text-anchor="middle" x="2019" y="-186.5" font-family="Helvetica,sans-Serif" font-size="10.00">/TopLeptonic.hh</text>
</a>
</g>
</g>
<!-- Node38&#45;&gt;Node43 -->
<g id="edge48" class="edge"><title>Node38&#45;&gt;Node43</title>
<path fill="none" stroke="midnightblue" d="M2076.94,-246.396C2066.96,-237.623 2053.93,-226.183 2042.76,-216.371"/>
<polygon fill="midnightblue" stroke="midnightblue" points="2044.85,-213.546 2035.03,-209.577 2040.23,-218.806 2044.85,-213.546"/>
</g>
<!-- Node41&#45;&gt;Node4 -->
<g id="edge46" class="edge"><title>Node41&#45;&gt;Node4</title>
<path fill="none" stroke="midnightblue" d="M2149,-179.396C2149,-170.064 2149,-157.714 2149,-147.517"/>
<polygon fill="midnightblue" stroke="midnightblue" points="2152.5,-147.195 2149,-137.195 2145.5,-147.195 2152.5,-147.195"/>
</g>
<!-- Node44&#45;&gt;Node6 -->
<g id="edge50" class="edge"><title>Node44&#45;&gt;Node6</title>
<path fill="none" stroke="midnightblue" d="M2324.58,-313.341C2364.81,-293.39 2428,-252.917 2428,-195.5 2428,-195.5 2428,-195.5 2428,-126.5 2428,-90.2544 2410.91,-50.671 2399.65,-28.5327"/>
<polygon fill="midnightblue" stroke="midnightblue" points="2402.73,-26.8745 2394.97,-19.6633 2396.54,-30.141 2402.73,-26.8745"/>
</g>
<!-- Node44&#45;&gt;Node39 -->
<g id="edge51" class="edge"><title>Node44&#45;&gt;Node39</title>
<path fill="none" stroke="midnightblue" d="M2236.79,-324.58C2181.9,-319.943 2096.39,-307.958 2029,-277 2008.88,-267.756 2010.03,-255.447 1990,-246 1981.63,-242.052 1872.79,-219.671 1805.55,-206.064"/>
<polygon fill="midnightblue" stroke="midnightblue" points="1806.04,-202.592 1795.55,-204.041 1804.66,-209.453 1806.04,-202.592"/>
</g>
<!-- Node45 -->
<g id="node45" class="node"><title>Node45</title>
<g id="a_node45"><a xlink:href="tagger_2WHadronic_8hh.html" target="_top" xlink:title="standardmodel/tagger\l/WHadronic.hh">
<polygon fill="white" stroke="red" points="2237,-246.5 2237,-276.5 2347,-276.5 2347,-246.5 2237,-246.5"/>
<text text-anchor="start" x="2245" y="-264.5" font-family="Helvetica,sans-Serif" font-size="10.00">standardmodel/tagger</text>
<text text-anchor="middle" x="2292" y="-253.5" font-family="Helvetica,sans-Serif" font-size="10.00">/WHadronic.hh</text>
</a>
</g>
</g>
<!-- Node44&#45;&gt;Node45 -->
<g id="edge52" class="edge"><title>Node44&#45;&gt;Node45</title>
<path fill="none" stroke="midnightblue" d="M2292,-313.396C2292,-305.645 2292,-295.812 2292,-286.86"/>
<polygon fill="midnightblue" stroke="midnightblue" points="2295.5,-286.576 2292,-276.577 2288.5,-286.577 2295.5,-286.576"/>
</g>
<!-- Node46 -->
<g id="node46" class="node"><title>Node46</title>
<g id="a_node46"><a xlink:href="branch_2TopHadronic_8hh.html" target="_top" xlink:title="standardmodel/branch\l/TopHadronic.hh">
<polygon fill="white" stroke="red" points="2456.5,-246.5 2456.5,-276.5 2569.5,-276.5 2569.5,-246.5 2456.5,-246.5"/>
<text text-anchor="start" x="2464.5" y="-264.5" font-family="Helvetica,sans-Serif" font-size="10.00">standardmodel/branch</text>
<text text-anchor="middle" x="2513" y="-253.5" font-family="Helvetica,sans-Serif" font-size="10.00">/TopHadronic.hh</text>
</a>
</g>
</g>
<!-- Node44&#45;&gt;Node46 -->
<g id="edge56" class="edge"><title>Node44&#45;&gt;Node46</title>
<path fill="none" stroke="midnightblue" d="M2339.68,-313.476C2373.55,-303.515 2419.21,-290.086 2455.16,-279.512"/>
<polygon fill="midnightblue" stroke="midnightblue" points="2456.42,-282.79 2465.02,-276.611 2454.44,-276.075 2456.42,-282.79"/>
</g>
<!-- Node45&#45;&gt;Node6 -->
<g id="edge53" class="edge"><title>Node45&#45;&gt;Node6</title>
<path fill="none" stroke="midnightblue" d="M2326.91,-246.46C2342.73,-238.245 2360.08,-226.246 2370,-210 2405.26,-152.259 2398.43,-67.1343 2393.16,-29.7585"/>
<polygon fill="midnightblue" stroke="midnightblue" points="2396.6,-29.1254 2391.62,-19.7752 2389.68,-30.1917 2396.6,-29.1254"/>
</g>
<!-- Node45&#45;&gt;Node40 -->
<g id="edge54" class="edge"><title>Node45&#45;&gt;Node40</title>
<path fill="none" stroke="midnightblue" d="M2292,-246.396C2292,-237.064 2292,-224.714 2292,-214.517"/>
<polygon fill="midnightblue" stroke="midnightblue" points="2295.5,-214.195 2292,-204.195 2288.5,-214.195 2295.5,-214.195"/>
</g>
<!-- Node45&#45;&gt;Node41 -->
<g id="edge55" class="edge"><title>Node45&#45;&gt;Node41</title>
<path fill="none" stroke="midnightblue" d="M2260.97,-246.396C2239.98,-236.856 2212.06,-224.163 2189.35,-213.84"/>
<polygon fill="midnightblue" stroke="midnightblue" points="2190.52,-210.528 2179.97,-209.577 2187.62,-216.901 2190.52,-210.528"/>
</g>
<!-- Node47 -->
<g id="node47" class="node"><title>Node47</title>
<g id="a_node47"><a xlink:href="Multi_8hh.html" target="_top" xlink:title="boca/branch/Multi.hh">
<polygon fill="white" stroke="red" points="2501.5,-185 2501.5,-204 2608.5,-204 2608.5,-185 2501.5,-185"/>
<text text-anchor="middle" x="2555" y="-192" font-family="Helvetica,sans-Serif" font-size="10.00">boca/branch/Multi.hh</text>
</a>
</g>
</g>
<!-- Node46&#45;&gt;Node47 -->
<g id="edge57" class="edge"><title>Node46&#45;&gt;Node47</title>
<path fill="none" stroke="midnightblue" d="M2522.11,-246.396C2528.47,-236.562 2536.99,-223.378 2543.76,-212.892"/>
<polygon fill="midnightblue" stroke="midnightblue" points="2546.89,-214.493 2549.38,-204.195 2541.02,-210.694 2546.89,-214.493"/>
</g>
<!-- Node49 -->
<g id="node49" class="node"><title>Node49</title>
<g id="a_node49"><a xlink:href="Quartet_8hh.html" target="_top" xlink:title="boca/multiplets/Quartet.hh">
<polygon fill="white" stroke="red" points="1850.5,-252 1850.5,-271 1981.5,-271 1981.5,-252 1850.5,-252"/>
<text text-anchor="middle" x="1916" y="-259" font-family="Helvetica,sans-Serif" font-size="10.00">boca/multiplets/Quartet.hh</text>
</a>
</g>
</g>
<!-- Node48&#45;&gt;Node49 -->
<g id="edge59" class="edge"><title>Node48&#45;&gt;Node49</title>
<path fill="none" stroke="midnightblue" d="M1954.93,-318.734C1947.98,-308.695 1936.43,-292.014 1927.71,-279.421"/>
<polygon fill="midnightblue" stroke="midnightblue" points="1930.54,-277.357 1921.97,-271.127 1924.79,-281.341 1930.54,-277.357"/>
</g>
<!-- Node49&#45;&gt;Node39 -->
<g id="edge60" class="edge"><title>Node49&#45;&gt;Node39</title>
<path fill="none" stroke="midnightblue" d="M1894.35,-251.869C1866.02,-240.571 1816.18,-220.696 1783.89,-207.818"/>
<polygon fill="midnightblue" stroke="midnightblue" points="1785.06,-204.517 1774.48,-204.064 1782.47,-211.019 1785.06,-204.517"/>
</g>
<!-- Node50&#45;&gt;Node47 -->
<g id="edge62" class="edge"><title>Node50&#45;&gt;Node47</title>
<path fill="none" stroke="midnightblue" d="M2544.59,-313.295C2557.09,-304.585 2571.09,-292.189 2578,-277 2587.57,-255.971 2576.72,-230.047 2566.92,-213.163"/>
<polygon fill="midnightblue" stroke="midnightblue" points="2569.7,-211 2561.43,-204.372 2563.76,-214.707 2569.7,-211"/>
</g>
</g>
</svg>
