<?xml version="1.0" encoding="UTF-8" standalone="no"?>
<!DOCTYPE svg PUBLIC "-//W3C//DTD SVG 1.1//EN"
 "http://www.w3.org/Graphics/SVG/1.1/DTD/svg11.dtd">
<!-- Generated by graphviz version 2.38.0 (20140413.2041)
 -->
<!-- Title: examples/tthh/source/tagger/HiggsSemiLeptonic.cpp Pages: 1 -->
<svg width="2535pt" height="665pt"
 viewBox="0.00 0.00 2534.50 665.00" xmlns="http://www.w3.org/2000/svg" xmlns:xlink="http://www.w3.org/1999/xlink">
<g id="graph0" class="graph" transform="scale(1 1) rotate(0) translate(4 661)">
<title>examples/tthh/source/tagger/HiggsSemiLeptonic.cpp</title>
<polygon fill="white" stroke="none" points="-4,4 -4,-661 2530.5,-661 2530.5,4 -4,4"/>
<!-- Node1 -->
<g id="node1" class="node"><title>Node1</title>
<polygon fill="#bfbfbf" stroke="black" points="945,-626.5 945,-656.5 1098,-656.5 1098,-626.5 945,-626.5"/>
<text text-anchor="start" x="953" y="-644.5" font-family="Helvetica,sans-Serif" font-size="10.00">examples/tthh/source</text>
<text text-anchor="middle" x="1021.5" y="-633.5" font-family="Helvetica,sans-Serif" font-size="10.00">/tagger/HiggsSemiLeptonic.cpp</text>
</g>
<!-- Node2 -->
<g id="node2" class="node"><title>Node2</title>
<polygon fill="white" stroke="#bfbfbf" points="0,-570.5 0,-589.5 159,-589.5 159,-570.5 0,-570.5"/>
<text text-anchor="middle" x="79.5" y="-577.5" font-family="Helvetica,sans-Serif" font-size="10.00">fastjet/tools/MassDropTagger.hh</text>
</g>
<!-- Node1&#45;&gt;Node2 -->
<g id="edge1" class="edge"><title>Node1&#45;&gt;Node2</title>
<path fill="none" stroke="midnightblue" d="M944.871,-637.072C797.037,-630.216 461.935,-613.505 169.496,-590.131"/>
<polygon fill="midnightblue" stroke="midnightblue" points="169.36,-586.609 159.111,-589.296 168.799,-593.586 169.36,-586.609"/>
</g>
<!-- Node3 -->
<g id="node3" class="node"><title>Node3</title>
<polygon fill="white" stroke="#bfbfbf" points="176.5,-570.5 176.5,-589.5 282.5,-589.5 282.5,-570.5 176.5,-570.5"/>
<text text-anchor="middle" x="229.5" y="-577.5" font-family="Helvetica,sans-Serif" font-size="10.00">fastjet/tools/Filter.hh</text>
</g>
<!-- Node1&#45;&gt;Node3 -->
<g id="edge2" class="edge"><title>Node1&#45;&gt;Node3</title>
<path fill="none" stroke="midnightblue" d="M944.876,-637.096C813.55,-630.843 536.834,-615.848 292.7,-590.05"/>
<polygon fill="midnightblue" stroke="midnightblue" points="292.881,-586.549 282.567,-588.971 292.14,-593.51 292.881,-586.549"/>
</g>
<!-- Node4 -->
<g id="node4" class="node"><title>Node4</title>
<g id="a_node4"><a xlink:href="Types_8hh.html" target="_top" xlink:title="boca/generic/Types.hh">
<polygon fill="white" stroke="black" points="660.5,-380.5 660.5,-399.5 776.5,-399.5 776.5,-380.5 660.5,-380.5"/>
<text text-anchor="middle" x="718.5" y="-387.5" font-family="Helvetica,sans-Serif" font-size="10.00">boca/generic/Types.hh</text>
</a>
</g>
</g>
<!-- Node1&#45;&gt;Node4 -->
<g id="edge3" class="edge"><title>Node1&#45;&gt;Node4</title>
<path fill="none" stroke="midnightblue" d="M944.817,-637.554C806.049,-630.439 522.001,-607.091 461.5,-534 401.579,-461.61 560.645,-419.396 654.799,-401.384"/>
<polygon fill="midnightblue" stroke="midnightblue" points="655.632,-404.789 664.819,-399.512 654.346,-397.909 655.632,-404.789"/>
</g>
<!-- Node7 -->
<g id="node7" class="node"><title>Node7</title>
<g id="a_node7"><a xlink:href="Exception_8hh.html" target="_top" xlink:title="boca/generic/Exception.hh">
<polygon fill="white" stroke="black" points="300.5,-570.5 300.5,-589.5 432.5,-589.5 432.5,-570.5 300.5,-570.5"/>
<text text-anchor="middle" x="366.5" y="-577.5" font-family="Helvetica,sans-Serif" font-size="10.00">boca/generic/Exception.hh</text>
</a>
</g>
</g>
<!-- Node1&#45;&gt;Node7 -->
<g id="edge6" class="edge"><title>Node1&#45;&gt;Node7</title>
<path fill="none" stroke="midnightblue" d="M944.713,-634.356C834.404,-625.394 624.735,-607.85 446.5,-590 445.387,-589.889 444.266,-589.775 443.138,-589.66"/>
<polygon fill="midnightblue" stroke="midnightblue" points="443.149,-586.143 432.841,-588.59 442.425,-593.105 443.149,-586.143"/>
</g>
<!-- Node9 -->
<g id="node9" class="node"><title>Node9</title>
<g id="a_node9"><a xlink:href="ClusterSequence_8hh.html" target="_top" xlink:title="boca/fastjet/ClusterSequence.hh">
<polygon fill="white" stroke="black" points="1517,-442 1517,-461 1676,-461 1676,-442 1517,-442"/>
<text text-anchor="middle" x="1596.5" y="-449" font-family="Helvetica,sans-Serif" font-size="10.00">boca/fastjet/ClusterSequence.hh</text>
</a>
</g>
</g>
<!-- Node1&#45;&gt;Node9 -->
<g id="edge9" class="edge"><title>Node1&#45;&gt;Node9</title>
<path fill="none" stroke="midnightblue" d="M1098.2,-640.218C1216.56,-638.508 1437.03,-629.869 1503.5,-590 1549.93,-562.155 1578.29,-501.137 1590.11,-470.624"/>
<polygon fill="midnightblue" stroke="midnightblue" points="1593.4,-471.801 1593.6,-461.208 1586.84,-469.368 1593.4,-471.801"/>
</g>
<!-- Node15 -->
<g id="node15" class="node"><title>Node15</title>
<g id="a_node15"><a xlink:href="Particles_8hh.html" target="_top" xlink:title="boca/fastjet/Particles.hh">
<polygon fill="white" stroke="black" points="1234.5,-380.5 1234.5,-399.5 1356.5,-399.5 1356.5,-380.5 1234.5,-380.5"/>
<text text-anchor="middle" x="1295.5" y="-387.5" font-family="Helvetica,sans-Serif" font-size="10.00">boca/fastjet/Particles.hh</text>
</a>
</g>
</g>
<!-- Node1&#45;&gt;Node15 -->
<g id="edge16" class="edge"><title>Node1&#45;&gt;Node15</title>
<path fill="none" stroke="midnightblue" d="M1058.75,-626.436C1080.5,-617.458 1108,-604.75 1130.5,-590 1205.43,-540.884 1263.83,-447.364 1285.92,-408.556"/>
<polygon fill="midnightblue" stroke="midnightblue" points="1289.03,-410.168 1290.85,-399.731 1282.92,-406.754 1289.03,-410.168"/>
</g>
<!-- Node26 -->
<g id="node26" class="node"><title>Node26</title>
<g id="a_node26"><a xlink:href="boca_2Event_8hh.html" target="_top" xlink:title="boca/Event.hh">
<polygon fill="white" stroke="black" points="1124.5,-380.5 1124.5,-399.5 1204.5,-399.5 1204.5,-380.5 1124.5,-380.5"/>
<text text-anchor="middle" x="1164.5" y="-387.5" font-family="Helvetica,sans-Serif" font-size="10.00">boca/Event.hh</text>
</a>
</g>
</g>
<!-- Node1&#45;&gt;Node26 -->
<g id="edge32" class="edge"><title>Node1&#45;&gt;Node26</title>
<path fill="none" stroke="midnightblue" d="M1048.05,-626.46C1092.17,-601.379 1178.98,-544.186 1211.5,-467 1216.85,-454.303 1216.91,-448.671 1211.5,-436 1206.35,-423.947 1196.22,-413.576 1186.67,-405.839"/>
<polygon fill="midnightblue" stroke="midnightblue" points="1188.67,-402.962 1178.58,-399.741 1184.46,-408.553 1188.67,-402.962"/>
</g>
<!-- Node36 -->
<g id="node36" class="node"><title>Node36</title>
<g id="a_node36"><a xlink:href="MomentumRange_8hh.html" target="_top" xlink:title="boca/identification\l/MomentumRange.hh">
<polygon fill="white" stroke="black" points="1526.5,-201.5 1526.5,-231.5 1636.5,-231.5 1636.5,-201.5 1526.5,-201.5"/>
<text text-anchor="start" x="1534.5" y="-219.5" font-family="Helvetica,sans-Serif" font-size="10.00">boca/identification</text>
<text text-anchor="middle" x="1581.5" y="-208.5" font-family="Helvetica,sans-Serif" font-size="10.00">/MomentumRange.hh</text>
</a>
</g>
</g>
<!-- Node1&#45;&gt;Node36 -->
<g id="edge48" class="edge"><title>Node1&#45;&gt;Node36</title>
<path fill="none" stroke="midnightblue" d="M1098.26,-636.453C1231.03,-627.334 1489.5,-599.331 1489.5,-519.5 1489.5,-519.5 1489.5,-519.5 1489.5,-333 1489.5,-292.75 1524.11,-258.426 1550.87,-237.899"/>
<polygon fill="midnightblue" stroke="midnightblue" points="1553.26,-240.484 1559.23,-231.729 1549.1,-234.851 1553.26,-240.484"/>
</g>
<!-- Node43 -->
<g id="node43" class="node"><title>Node43</title>
<g id="a_node43"><a xlink:href="tagger_2HiggsSemiLeptonic_8hh.html" target="_top" xlink:title="tthh/tagger/HiggsSemiLeptonic.hh">
<polygon fill="white" stroke="black" points="815.5,-570.5 815.5,-589.5 979.5,-589.5 979.5,-570.5 815.5,-570.5"/>
<text text-anchor="middle" x="897.5" y="-577.5" font-family="Helvetica,sans-Serif" font-size="10.00">tthh/tagger/HiggsSemiLeptonic.hh</text>
</a>
</g>
</g>
<!-- Node1&#45;&gt;Node43 -->
<g id="edge57" class="edge"><title>Node1&#45;&gt;Node43</title>
<path fill="none" stroke="midnightblue" d="M992.114,-626.399C971.68,-616.595 944.64,-603.619 924.701,-594.052"/>
<polygon fill="midnightblue" stroke="midnightblue" points="926.073,-590.828 915.543,-589.658 923.045,-597.139 926.073,-590.828"/>
</g>
<!-- Node50 -->
<g id="node50" class="node"><title>Node50</title>
<g id="a_node50"><a xlink:href="DEBUG__MACROS_8hh.html" target="_top" xlink:title="boca/generic/DEBUG\l_MACROS.hh">
<polygon fill="white" stroke="black" points="1091,-436.5 1091,-466.5 1202,-466.5 1202,-436.5 1091,-436.5"/>
<text text-anchor="start" x="1099" y="-454.5" font-family="Helvetica,sans-Serif" font-size="10.00">boca/generic/DEBUG</text>
<text text-anchor="middle" x="1146.5" y="-443.5" font-family="Helvetica,sans-Serif" font-size="10.00">_MACROS.hh</text>
</a>
</g>
</g>
<!-- Node1&#45;&gt;Node50 -->
<g id="edge71" class="edge"><title>Node1&#45;&gt;Node50</title>
<path fill="none" stroke="midnightblue" d="M1034.17,-626.378C1051.53,-606.612 1083.11,-569.159 1105.5,-534 1117.41,-515.301 1128.55,-492.689 1136.2,-476.031"/>
<polygon fill="midnightblue" stroke="midnightblue" points="1139.57,-477.072 1140.49,-466.517 1133.19,-474.194 1139.57,-477.072"/>
</g>
<!-- Node5 -->
<g id="node5" class="node"><title>Node5</title>
<polygon fill="white" stroke="#bfbfbf" points="803,-73 803,-92 844,-92 844,-73 803,-73"/>
<text text-anchor="middle" x="823.5" y="-80" font-family="Helvetica,sans-Serif" font-size="10.00">string</text>
</g>
<!-- Node4&#45;&gt;Node5 -->
<g id="edge4" class="edge"><title>Node4&#45;&gt;Node5</title>
<path fill="none" stroke="midnightblue" d="M729.2,-380.448C738.948,-372.116 753.072,-358.599 761.5,-344 776.547,-317.934 780.5,-309.098 780.5,-279 780.5,-279 780.5,-279 780.5,-215.5 780.5,-172.71 801.181,-125.784 813.858,-101.039"/>
<polygon fill="midnightblue" stroke="midnightblue" points="816.982,-102.619 818.567,-92.1433 810.796,-99.3439 816.982,-102.619"/>
</g>
<!-- Node6 -->
<g id="node6" class="node"><title>Node6</title>
<polygon fill="white" stroke="#bfbfbf" points="636.5,-324.5 636.5,-343.5 752.5,-343.5 752.5,-324.5 636.5,-324.5"/>
<text text-anchor="middle" x="694.5" y="-331.5" font-family="Helvetica,sans-Serif" font-size="10.00">boost/range/irange.hpp</text>
</g>
<!-- Node4&#45;&gt;Node6 -->
<g id="edge5" class="edge"><title>Node4&#45;&gt;Node6</title>
<path fill="none" stroke="midnightblue" d="M714.537,-380.083C711.287,-372.77 706.581,-362.181 702.546,-353.103"/>
<polygon fill="midnightblue" stroke="midnightblue" points="705.649,-351.468 698.389,-343.751 699.252,-354.311 705.649,-351.468"/>
</g>
<!-- Node7&#45;&gt;Node5 -->
<g id="edge8" class="edge"><title>Node7&#45;&gt;Node5</title>
<path fill="none" stroke="midnightblue" d="M361.754,-570.403C351.159,-550.377 326.5,-498.798 326.5,-452.5 326.5,-452.5 326.5,-452.5 326.5,-215.5 326.5,-118.615 683.756,-91.1302 792.479,-85.009"/>
<polygon fill="midnightblue" stroke="midnightblue" points="792.981,-88.4871 802.777,-84.452 792.603,-81.4973 792.981,-88.4871"/>
</g>
<!-- Node8 -->
<g id="node8" class="node"><title>Node8</title>
<polygon fill="white" stroke="#bfbfbf" points="355,-509 355,-528 414,-528 414,-509 355,-509"/>
<text text-anchor="middle" x="384.5" y="-516" font-family="Helvetica,sans-Serif" font-size="10.00">stdexcept</text>
</g>
<!-- Node7&#45;&gt;Node8 -->
<g id="edge7" class="edge"><title>Node7&#45;&gt;Node8</title>
<path fill="none" stroke="midnightblue" d="M369.079,-570.475C371.645,-561.992 375.665,-548.704 378.957,-537.822"/>
<polygon fill="midnightblue" stroke="midnightblue" points="382.38,-538.594 381.926,-528.009 375.68,-536.567 382.38,-538.594"/>
</g>
<!-- Node9&#45;&gt;Node9 -->
<g id="edge10" class="edge"><title>Node9&#45;&gt;Node9</title>
<path fill="none" stroke="midnightblue" d="M1632.5,-461.033C1662.58,-465.107 1694,-461.93 1694,-451.5 1694,-442.252 1669.29,-438.706 1642.73,-440.861"/>
<polygon fill="midnightblue" stroke="midnightblue" points="1642.07,-437.412 1632.5,-441.967 1642.82,-444.371 1642.07,-437.412"/>
</g>
<!-- Node10 -->
<g id="node10" class="node"><title>Node10</title>
<g id="a_node10"><a xlink:href="ElectronVolt_8hh.html" target="_top" xlink:title="boca/units/ElectronVolt.hh">
<polygon fill="white" stroke="black" points="1215,-73 1215,-92 1346,-92 1346,-73 1215,-73"/>
<text text-anchor="middle" x="1280.5" y="-80" font-family="Helvetica,sans-Serif" font-size="10.00">boca/units/ElectronVolt.hh</text>
</a>
</g>
</g>
<!-- Node9&#45;&gt;Node10 -->
<g id="edge11" class="edge"><title>Node9&#45;&gt;Node10</title>
<path fill="none" stroke="midnightblue" d="M1593.01,-441.905C1579,-408.107 1523.86,-282.227 1448.5,-201 1405.68,-154.849 1341.84,-116.382 1306.46,-97.0105"/>
<polygon fill="midnightblue" stroke="midnightblue" points="1307.74,-93.725 1297.28,-92.0627 1304.42,-99.8874 1307.74,-93.725"/>
</g>
<!-- Node11 -->
<g id="node11" class="node"><title>Node11</title>
<polygon fill="white" stroke="#bfbfbf" points="970,-6 970,-25 1127,-25 1127,-6 970,-6"/>
<text text-anchor="middle" x="1048.5" y="-13" font-family="Helvetica,sans-Serif" font-size="10.00">boost/units/base_dimension.hpp</text>
</g>
<!-- Node10&#45;&gt;Node11 -->
<g id="edge12" class="edge"><title>Node10&#45;&gt;Node11</title>
<path fill="none" stroke="midnightblue" d="M1249.69,-72.8685C1208.32,-61.2784 1134.74,-40.6624 1088.95,-27.8335"/>
<polygon fill="midnightblue" stroke="midnightblue" points="1089.64,-24.3914 1079.07,-25.0637 1087.75,-31.1318 1089.64,-24.3914"/>
</g>
<!-- Node12 -->
<g id="node12" class="node"><title>Node12</title>
<polygon fill="white" stroke="#bfbfbf" points="1145.5,-6 1145.5,-25 1273.5,-25 1273.5,-6 1145.5,-6"/>
<text text-anchor="middle" x="1209.5" y="-13" font-family="Helvetica,sans-Serif" font-size="10.00">boost/units/base_unit.hpp</text>
</g>
<!-- Node10&#45;&gt;Node12 -->
<g id="edge13" class="edge"><title>Node10&#45;&gt;Node12</title>
<path fill="none" stroke="midnightblue" d="M1270.92,-72.7338C1259.53,-62.3055 1240.31,-44.7088 1226.4,-31.9732"/>
<polygon fill="midnightblue" stroke="midnightblue" points="1228.66,-29.2983 1218.92,-25.1273 1223.94,-34.4614 1228.66,-29.2983"/>
</g>
<!-- Node13 -->
<g id="node13" class="node"><title>Node13</title>
<polygon fill="white" stroke="#bfbfbf" points="1292,-6 1292,-25 1413,-25 1413,-6 1292,-6"/>
<text text-anchor="middle" x="1352.5" y="-13" font-family="Helvetica,sans-Serif" font-size="10.00">boost/units/quantity.hpp</text>
</g>
<!-- Node10&#45;&gt;Node13 -->
<g id="edge14" class="edge"><title>Node10&#45;&gt;Node13</title>
<path fill="none" stroke="midnightblue" d="M1290.21,-72.7338C1301.76,-62.3055 1321.25,-44.7088 1335.36,-31.9732"/>
<polygon fill="midnightblue" stroke="midnightblue" points="1337.87,-34.4263 1342.94,-25.1273 1333.18,-29.2304 1337.87,-34.4263"/>
</g>
<!-- Node14 -->
<g id="node14" class="node"><title>Node14</title>
<polygon fill="white" stroke="#bfbfbf" points="1431,-0.5 1431,-30.5 1536,-30.5 1536,-0.5 1431,-0.5"/>
<text text-anchor="start" x="1439" y="-18.5" font-family="Helvetica,sans-Serif" font-size="10.00">boost/units/systems</text>
<text text-anchor="middle" x="1483.5" y="-7.5" font-family="Helvetica,sans-Serif" font-size="10.00">/si/energy.hpp</text>
</g>
<!-- Node10&#45;&gt;Node14 -->
<g id="edge15" class="edge"><title>Node10&#45;&gt;Node14</title>
<path fill="none" stroke="midnightblue" d="M1307.46,-72.8685C1338.58,-62.9039 1390.53,-46.2676 1429.96,-33.6444"/>
<polygon fill="midnightblue" stroke="midnightblue" points="1431.23,-36.9109 1439.69,-30.5281 1429.1,-30.2443 1431.23,-36.9109"/>
</g>
<!-- Node16 -->
<g id="node16" class="node"><title>Node16</title>
<g id="a_node16"><a xlink:href="fastjet_2Particle_8hh.html" target="_top" xlink:title="boca/fastjet/Particle.hh">
<polygon fill="white" stroke="black" points="1324,-324.5 1324,-343.5 1441,-343.5 1441,-324.5 1324,-324.5"/>
<text text-anchor="middle" x="1382.5" y="-331.5" font-family="Helvetica,sans-Serif" font-size="10.00">boca/fastjet/Particle.hh</text>
</a>
</g>
</g>
<!-- Node15&#45;&gt;Node16 -->
<g id="edge17" class="edge"><title>Node15&#45;&gt;Node16</title>
<path fill="none" stroke="midnightblue" d="M1309.48,-380.324C1323.05,-371.9 1343.88,-358.971 1359.82,-349.074"/>
<polygon fill="midnightblue" stroke="midnightblue" points="1361.91,-351.902 1368.56,-343.655 1358.21,-345.954 1361.91,-351.902"/>
</g>
<!-- Node24 -->
<g id="node24" class="node"><title>Node24</title>
<g id="a_node24"><a xlink:href="Id_8hh.html" target="_top" xlink:title="boca/identification\l/Id.hh">
<polygon fill="white" stroke="black" points="1214,-134.5 1214,-164.5 1309,-164.5 1309,-134.5 1214,-134.5"/>
<text text-anchor="start" x="1222" y="-152.5" font-family="Helvetica,sans-Serif" font-size="10.00">boca/identification</text>
<text text-anchor="middle" x="1261.5" y="-141.5" font-family="Helvetica,sans-Serif" font-size="10.00">/Id.hh</text>
</a>
</g>
</g>
<!-- Node15&#45;&gt;Node24 -->
<g id="edge28" class="edge"><title>Node15&#45;&gt;Node24</title>
<path fill="none" stroke="midnightblue" d="M1294.25,-380.229C1289.48,-346.805 1272.36,-226.692 1264.95,-174.734"/>
<polygon fill="midnightblue" stroke="midnightblue" points="1268.41,-174.143 1263.53,-164.737 1261.48,-175.131 1268.41,-174.143"/>
</g>
<!-- Node17 -->
<g id="node17" class="node"><title>Node17</title>
<g id="a_node17"><a xlink:href="PseudoJet_8hh.html" target="_top" xlink:title="boca/fastjet/PseudoJet.hh">
<polygon fill="white" stroke="red" points="1290,-207 1290,-226 1421,-226 1421,-207 1290,-207"/>
<text text-anchor="middle" x="1355.5" y="-214" font-family="Helvetica,sans-Serif" font-size="10.00">boca/fastjet/PseudoJet.hh</text>
</a>
</g>
</g>
<!-- Node16&#45;&gt;Node17 -->
<g id="edge18" class="edge"><title>Node16&#45;&gt;Node17</title>
<path fill="none" stroke="midnightblue" d="M1361.02,-324.36C1346.11,-317.09 1327.39,-305.117 1318.5,-288 1308.72,-269.162 1323.98,-247.557 1337.77,-233.282"/>
<polygon fill="midnightblue" stroke="midnightblue" points="1340.36,-235.643 1345.11,-226.17 1335.49,-230.617 1340.36,-235.643"/>
</g>
<!-- Node23 -->
<g id="node23" class="node"><title>Node23</title>
<g id="a_node23"><a xlink:href="ParticleInfo_8hh.html" target="_top" xlink:title="boca/fastjet/ParticleInfo.hh">
<polygon fill="white" stroke="red" points="1327.5,-268.5 1327.5,-287.5 1461.5,-287.5 1461.5,-268.5 1327.5,-268.5"/>
<text text-anchor="middle" x="1394.5" y="-275.5" font-family="Helvetica,sans-Serif" font-size="10.00">boca/fastjet/ParticleInfo.hh</text>
</a>
</g>
</g>
<!-- Node16&#45;&gt;Node23 -->
<g id="edge26" class="edge"><title>Node16&#45;&gt;Node23</title>
<path fill="none" stroke="midnightblue" d="M1384.48,-324.083C1386.07,-316.927 1388.36,-306.635 1390.35,-297.691"/>
<polygon fill="midnightblue" stroke="midnightblue" points="1393.8,-298.272 1392.56,-287.751 1386.97,-296.754 1393.8,-298.272"/>
</g>
<!-- Node17&#45;&gt;Node17 -->
<g id="edge19" class="edge"><title>Node17&#45;&gt;Node17</title>
<path fill="none" stroke="midnightblue" d="M1386.33,-226.033C1412.09,-230.107 1439,-226.93 1439,-216.5 1439,-207.415 1418.58,-203.832 1396.29,-205.753"/>
<polygon fill="midnightblue" stroke="midnightblue" points="1395.83,-202.282 1386.33,-206.967 1396.68,-209.231 1395.83,-202.282"/>
</g>
<!-- Node18 -->
<g id="node18" class="node"><title>Node18</title>
<g id="a_node18"><a xlink:href="Prefixes_8hh.html" target="_top" xlink:title="boca/units/Prefixes.hh">
<polygon fill="white" stroke="red" points="1524.5,-140 1524.5,-159 1638.5,-159 1638.5,-140 1524.5,-140"/>
<text text-anchor="middle" x="1581.5" y="-147" font-family="Helvetica,sans-Serif" font-size="10.00">boca/units/Prefixes.hh</text>
</a>
</g>
</g>
<!-- Node17&#45;&gt;Node18 -->
<g id="edge20" class="edge"><title>Node17&#45;&gt;Node18</title>
<path fill="none" stroke="midnightblue" d="M1385.51,-206.869C1425.81,-195.278 1497.49,-174.662 1542.09,-161.834"/>
<polygon fill="midnightblue" stroke="midnightblue" points="1543.08,-165.191 1551.72,-159.064 1541.15,-158.464 1543.08,-165.191"/>
</g>
<!-- Node18&#45;&gt;Node10 -->
<g id="edge25" class="edge"><title>Node18&#45;&gt;Node10</title>
<path fill="none" stroke="midnightblue" d="M1541.84,-139.936C1487.36,-128.171 1389.41,-107.018 1330.13,-94.2176"/>
<polygon fill="midnightblue" stroke="midnightblue" points="1330.76,-90.7732 1320.25,-92.0834 1329.28,-97.6155 1330.76,-90.7732"/>
</g>
<!-- Node19 -->
<g id="node19" class="node"><title>Node19</title>
<polygon fill="white" stroke="#bfbfbf" points="1758.5,-73 1758.5,-92 1868.5,-92 1868.5,-73 1758.5,-73"/>
<text text-anchor="middle" x="1813.5" y="-80" font-family="Helvetica,sans-Serif" font-size="10.00">boost/units/scale.hpp</text>
</g>
<!-- Node18&#45;&gt;Node19 -->
<g id="edge21" class="edge"><title>Node18&#45;&gt;Node19</title>
<path fill="none" stroke="midnightblue" d="M1612.31,-139.869C1653.68,-128.278 1727.26,-107.662 1773.05,-94.8335"/>
<polygon fill="midnightblue" stroke="midnightblue" points="1774.25,-98.1318 1782.93,-92.0637 1772.36,-91.3914 1774.25,-98.1318"/>
</g>
<!-- Node20 -->
<g id="node20" class="node"><title>Node20</title>
<polygon fill="white" stroke="#bfbfbf" points="1364,-67.5 1364,-97.5 1489,-97.5 1489,-67.5 1364,-67.5"/>
<text text-anchor="start" x="1372" y="-85.5" font-family="Helvetica,sans-Serif" font-size="10.00">boost/units/make_scaled</text>
<text text-anchor="middle" x="1426.5" y="-74.5" font-family="Helvetica,sans-Serif" font-size="10.00">_unit.hpp</text>
</g>
<!-- Node18&#45;&gt;Node20 -->
<g id="edge22" class="edge"><title>Node18&#45;&gt;Node20</title>
<path fill="none" stroke="midnightblue" d="M1560.92,-139.869C1537.66,-130.115 1499.16,-113.97 1469.31,-101.452"/>
<polygon fill="midnightblue" stroke="midnightblue" points="1470.53,-98.1677 1459.95,-97.5281 1467.82,-104.623 1470.53,-98.1677"/>
</g>
<!-- Node21 -->
<g id="node21" class="node"><title>Node21</title>
<polygon fill="white" stroke="#bfbfbf" points="1507,-67.5 1507,-97.5 1618,-97.5 1618,-67.5 1507,-67.5"/>
<text text-anchor="start" x="1515" y="-85.5" font-family="Helvetica,sans-Serif" font-size="10.00">boost/units/systems</text>
<text text-anchor="middle" x="1562.5" y="-74.5" font-family="Helvetica,sans-Serif" font-size="10.00">/si/dimensionless.hpp</text>
</g>
<!-- Node18&#45;&gt;Node21 -->
<g id="edge23" class="edge"><title>Node18&#45;&gt;Node21</title>
<path fill="none" stroke="midnightblue" d="M1578.94,-139.734C1576.52,-131.456 1572.78,-118.662 1569.48,-107.367"/>
<polygon fill="midnightblue" stroke="midnightblue" points="1572.78,-106.205 1566.62,-97.589 1566.06,-108.169 1572.78,-106.205"/>
</g>
<!-- Node22 -->
<g id="node22" class="node"><title>Node22</title>
<polygon fill="white" stroke="#bfbfbf" points="1636.5,-73 1636.5,-92 1740.5,-92 1740.5,-73 1636.5,-73"/>
<text text-anchor="middle" x="1688.5" y="-80" font-family="Helvetica,sans-Serif" font-size="10.00">boost/units/pow.hpp</text>
</g>
<!-- Node18&#45;&gt;Node22 -->
<g id="edge24" class="edge"><title>Node18&#45;&gt;Node22</title>
<path fill="none" stroke="midnightblue" d="M1595.93,-139.734C1613.82,-128.867 1644.52,-110.216 1665.63,-97.3931"/>
<polygon fill="midnightblue" stroke="midnightblue" points="1667.57,-100.311 1674.3,-92.1273 1663.93,-94.3279 1667.57,-100.311"/>
</g>
<!-- Node23&#45;&gt;Node17 -->
<g id="edge27" class="edge"><title>Node23&#45;&gt;Node17</title>
<path fill="none" stroke="midnightblue" d="M1388.91,-268.475C1383.12,-259.638 1373.91,-245.589 1366.63,-234.475"/>
<polygon fill="midnightblue" stroke="midnightblue" points="1369.49,-232.454 1361.08,-226.009 1363.63,-236.291 1369.49,-232.454"/>
</g>
<!-- Node24&#45;&gt;Node5 -->
<g id="edge29" class="edge"><title>Node24&#45;&gt;Node5</title>
<path fill="none" stroke="midnightblue" d="M1213.79,-141.42C1123.56,-128.029 930.169,-99.3299 854.634,-88.1204"/>
<polygon fill="midnightblue" stroke="midnightblue" points="854.777,-84.6033 844.371,-86.5973 853.749,-91.5274 854.777,-84.6033"/>
</g>
<!-- Node24&#45;&gt;Node10 -->
<g id="edge31" class="edge"><title>Node24&#45;&gt;Node10</title>
<path fill="none" stroke="midnightblue" d="M1265.62,-134.396C1268.41,-124.863 1272.12,-112.182 1275.13,-101.862"/>
<polygon fill="midnightblue" stroke="midnightblue" points="1278.51,-102.775 1277.96,-92.1945 1271.79,-100.811 1278.51,-102.775"/>
</g>
<!-- Node25 -->
<g id="node25" class="node"><title>Node25</title>
<polygon fill="white" stroke="#bfbfbf" points="998.5,-73 998.5,-92 1042.5,-92 1042.5,-73 998.5,-73"/>
<text text-anchor="middle" x="1020.5" y="-80" font-family="Helvetica,sans-Serif" font-size="10.00">vector</text>
</g>
<!-- Node24&#45;&gt;Node25 -->
<g id="edge30" class="edge"><title>Node24&#45;&gt;Node25</title>
<path fill="none" stroke="midnightblue" d="M1213.89,-135.658C1166.08,-122.765 1093.77,-103.262 1052.45,-92.118"/>
<polygon fill="midnightblue" stroke="midnightblue" points="1053.22,-88.6989 1042.65,-89.4741 1051.39,-95.4574 1053.22,-88.6989"/>
</g>
<!-- Node26&#45;&gt;Node16 -->
<g id="edge47" class="edge"><title>Node26&#45;&gt;Node16</title>
<path fill="none" stroke="midnightblue" d="M1199.04,-380.444C1236.75,-371.102 1297.24,-356.119 1338.36,-345.933"/>
<polygon fill="midnightblue" stroke="midnightblue" points="1339.25,-349.318 1348.12,-343.516 1337.57,-342.524 1339.25,-349.318"/>
</g>
<!-- Node27 -->
<g id="node27" class="node"><title>Node27</title>
<polygon fill="white" stroke="#bfbfbf" points="1232,-324.5 1232,-343.5 1267,-343.5 1267,-324.5 1232,-324.5"/>
<text text-anchor="middle" x="1249.5" y="-331.5" font-family="Helvetica,sans-Serif" font-size="10.00">map</text>
</g>
<!-- Node26&#45;&gt;Node27 -->
<g id="edge33" class="edge"><title>Node26&#45;&gt;Node27</title>
<path fill="none" stroke="midnightblue" d="M1178.16,-380.324C1191.42,-371.9 1211.77,-358.971 1227.35,-349.074"/>
<polygon fill="midnightblue" stroke="midnightblue" points="1229.31,-351.971 1235.88,-343.655 1225.56,-346.063 1229.31,-351.971"/>
</g>
<!-- Node28 -->
<g id="node28" class="node"><title>Node28</title>
<g id="a_node28"><a xlink:href="Mutable_8hh.html" target="_top" xlink:title="boca/generic/Mutable.hh">
<polygon fill="white" stroke="black" points="934,-207 934,-226 1057,-226 1057,-207 934,-207"/>
<text text-anchor="middle" x="995.5" y="-214" font-family="Helvetica,sans-Serif" font-size="10.00">boca/generic/Mutable.hh</text>
</a>
</g>
</g>
<!-- Node26&#45;&gt;Node28 -->
<g id="edge34" class="edge"><title>Node26&#45;&gt;Node28</title>
<path fill="none" stroke="midnightblue" d="M1124.15,-384.764C1075.98,-378.778 999.755,-366.041 982.5,-344 957.87,-312.539 974.561,-262.34 986.459,-235.619"/>
<polygon fill="midnightblue" stroke="midnightblue" points="989.745,-236.857 990.836,-226.318 983.411,-233.876 989.745,-236.857"/>
</g>
<!-- Node32 -->
<g id="node32" class="node"><title>Node32</title>
<g id="a_node32"><a xlink:href="Flag_8hh.html" target="_top" xlink:title="boca/generic/Flag.hh">
<polygon fill="white" stroke="black" points="991,-324.5 991,-343.5 1098,-343.5 1098,-324.5 991,-324.5"/>
<text text-anchor="middle" x="1044.5" y="-331.5" font-family="Helvetica,sans-Serif" font-size="10.00">boca/generic/Flag.hh</text>
</a>
</g>
</g>
<!-- Node26&#45;&gt;Node32 -->
<g id="edge40" class="edge"><title>Node26&#45;&gt;Node32</title>
<path fill="none" stroke="midnightblue" d="M1145.49,-380.444C1125.91,-371.636 1095.19,-357.812 1072.77,-347.722"/>
<polygon fill="midnightblue" stroke="midnightblue" points="1073.98,-344.428 1063.43,-343.516 1071.11,-350.812 1073.98,-344.428"/>
</g>
<!-- Node34 -->
<g id="node34" class="node"><title>Node34</title>
<g id="a_node34"><a xlink:href="Jet_8hh.html" target="_top" xlink:title="boca/fastjet/Jet.hh">
<polygon fill="white" stroke="black" points="1115.5,-324.5 1115.5,-343.5 1213.5,-343.5 1213.5,-324.5 1115.5,-324.5"/>
<text text-anchor="middle" x="1164.5" y="-331.5" font-family="Helvetica,sans-Serif" font-size="10.00">boca/fastjet/Jet.hh</text>
</a>
</g>
</g>
<!-- Node26&#45;&gt;Node34 -->
<g id="edge42" class="edge"><title>Node26&#45;&gt;Node34</title>
<path fill="none" stroke="midnightblue" d="M1164.5,-380.083C1164.5,-373.006 1164.5,-362.861 1164.5,-353.986"/>
<polygon fill="midnightblue" stroke="midnightblue" points="1168,-353.751 1164.5,-343.751 1161,-353.751 1168,-353.751"/>
</g>
<!-- Node29 -->
<g id="node29" class="node"><title>Node29</title>
<polygon fill="white" stroke="#bfbfbf" points="944,-140 944,-159 1003,-159 1003,-140 944,-140"/>
<text text-anchor="middle" x="973.5" y="-147" font-family="Helvetica,sans-Serif" font-size="10.00">functional</text>
</g>
<!-- Node28&#45;&gt;Node29 -->
<g id="edge35" class="edge"><title>Node28&#45;&gt;Node29</title>
<path fill="none" stroke="midnightblue" d="M992.533,-206.734C989.267,-197.085 983.925,-181.3 979.73,-168.906"/>
<polygon fill="midnightblue" stroke="midnightblue" points="982.941,-167.477 976.42,-159.127 976.311,-169.722 982.941,-167.477"/>
</g>
<!-- Node30 -->
<g id="node30" class="node"><title>Node30</title>
<g id="a_node30"><a xlink:href="Debug_8hh.html" target="_top" xlink:title="boca/generic/Debug.hh">
<polygon fill="white" stroke="red" points="809,-140 809,-159 926,-159 926,-140 809,-140"/>
<text text-anchor="middle" x="867.5" y="-147" font-family="Helvetica,sans-Serif" font-size="10.00">boca/generic/Debug.hh</text>
</a>
</g>
</g>
<!-- Node28&#45;&gt;Node30 -->
<g id="edge36" class="edge"><title>Node28&#45;&gt;Node30</title>
<path fill="none" stroke="midnightblue" d="M978.503,-206.869C956.794,-195.845 919.006,-176.655 893.627,-163.768"/>
<polygon fill="midnightblue" stroke="midnightblue" points="895.069,-160.574 884.568,-159.167 891.899,-166.816 895.069,-160.574"/>
</g>
<!-- Node31 -->
<g id="node31" class="node"><title>Node31</title>
<polygon fill="white" stroke="#bfbfbf" points="1021.5,-140 1021.5,-159 1059.5,-159 1059.5,-140 1021.5,-140"/>
<text text-anchor="middle" x="1040.5" y="-147" font-family="Helvetica,sans-Serif" font-size="10.00">array</text>
</g>
<!-- Node28&#45;&gt;Node31 -->
<g id="edge39" class="edge"><title>Node28&#45;&gt;Node31</title>
<path fill="none" stroke="midnightblue" d="M1001.57,-206.734C1008.52,-196.695 1020.07,-180.014 1028.79,-167.421"/>
<polygon fill="midnightblue" stroke="midnightblue" points="1031.71,-169.341 1034.53,-159.127 1025.96,-165.357 1031.71,-169.341"/>
</g>
<!-- Node30&#45;&gt;Node5 -->
<g id="edge37" class="edge"><title>Node30&#45;&gt;Node5</title>
<path fill="none" stroke="midnightblue" d="M861.566,-139.734C854.771,-129.695 843.479,-113.014 834.954,-100.421"/>
<polygon fill="midnightblue" stroke="midnightblue" points="837.844,-98.4464 829.34,-92.1273 832.047,-102.37 837.844,-98.4464"/>
</g>
<!-- Node30&#45;&gt;Node25 -->
<g id="edge38" class="edge"><title>Node30&#45;&gt;Node25</title>
<path fill="none" stroke="midnightblue" d="M887.817,-139.869C914.223,-128.65 960.532,-108.977 990.859,-96.0925"/>
<polygon fill="midnightblue" stroke="midnightblue" points="992.263,-99.2987 1000.1,-92.1672 989.526,-92.856 992.263,-99.2987"/>
</g>
<!-- Node33 -->
<g id="node33" class="node"><title>Node33</title>
<polygon fill="white" stroke="#bfbfbf" points="1001.5,-268.5 1001.5,-287.5 1063.5,-287.5 1063.5,-268.5 1001.5,-268.5"/>
<text text-anchor="middle" x="1032.5" y="-275.5" font-family="Helvetica,sans-Serif" font-size="10.00">type_traits</text>
</g>
<!-- Node32&#45;&gt;Node33 -->
<g id="edge41" class="edge"><title>Node32&#45;&gt;Node33</title>
<path fill="none" stroke="midnightblue" d="M1042.52,-324.083C1040.93,-316.927 1038.64,-306.635 1036.65,-297.691"/>
<polygon fill="midnightblue" stroke="midnightblue" points="1040.03,-296.754 1034.44,-287.751 1033.2,-298.272 1040.03,-296.754"/>
</g>
<!-- Node34&#45;&gt;Node17 -->
<g id="edge43" class="edge"><title>Node34&#45;&gt;Node17</title>
<path fill="none" stroke="midnightblue" d="M1178.86,-324.319C1211.71,-304.454 1292.58,-255.55 1332.48,-231.422"/>
<polygon fill="midnightblue" stroke="midnightblue" points="1334.49,-234.294 1341.24,-226.124 1330.87,-228.304 1334.49,-234.294"/>
</g>
<!-- Node35 -->
<g id="node35" class="node"><title>Node35</title>
<g id="a_node35"><a xlink:href="JetInfo_8hh.html" target="_top" xlink:title="boca/fastjet/JetInfo.hh">
<polygon fill="white" stroke="red" points="1081.5,-268.5 1081.5,-287.5 1195.5,-287.5 1195.5,-268.5 1081.5,-268.5"/>
<text text-anchor="middle" x="1138.5" y="-275.5" font-family="Helvetica,sans-Serif" font-size="10.00">boca/fastjet/JetInfo.hh</text>
</a>
</g>
</g>
<!-- Node34&#45;&gt;Node35 -->
<g id="edge44" class="edge"><title>Node34&#45;&gt;Node35</title>
<path fill="none" stroke="midnightblue" d="M1160.21,-324.083C1156.65,-316.691 1151.48,-305.953 1147.08,-296.811"/>
<polygon fill="midnightblue" stroke="midnightblue" points="1150.21,-295.243 1142.71,-287.751 1143.9,-298.279 1150.21,-295.243"/>
</g>
<!-- Node35&#45;&gt;Node17 -->
<g id="edge45" class="edge"><title>Node35&#45;&gt;Node17</title>
<path fill="none" stroke="midnightblue" d="M1169.59,-268.475C1207.78,-258.004 1272.67,-240.212 1314.8,-228.66"/>
<polygon fill="midnightblue" stroke="midnightblue" points="1315.75,-232.029 1324.47,-226.009 1313.9,-225.278 1315.75,-232.029"/>
</g>
<!-- Node35&#45;&gt;Node28 -->
<g id="edge46" class="edge"><title>Node35&#45;&gt;Node28</title>
<path fill="none" stroke="midnightblue" d="M1118.01,-268.475C1093.69,-258.357 1052.95,-241.405 1025.18,-229.851"/>
<polygon fill="midnightblue" stroke="midnightblue" points="1026.53,-226.619 1015.95,-226.009 1023.84,-233.082 1026.53,-226.619"/>
</g>
<!-- Node36&#45;&gt;Node18 -->
<g id="edge55" class="edge"><title>Node36&#45;&gt;Node18</title>
<path fill="none" stroke="midnightblue" d="M1581.5,-201.396C1581.5,-192.064 1581.5,-179.714 1581.5,-169.517"/>
<polygon fill="midnightblue" stroke="midnightblue" points="1585,-169.195 1581.5,-159.195 1578,-169.195 1585,-169.195"/>
</g>
<!-- Node36&#45;&gt;Node24 -->
<g id="edge56" class="edge"><title>Node36&#45;&gt;Node24</title>
<path fill="none" stroke="midnightblue" d="M1526.49,-204.326C1468.55,-192.557 1377.72,-174.107 1318.9,-162.158"/>
<polygon fill="midnightblue" stroke="midnightblue" points="1319.52,-158.713 1309.02,-160.152 1318.12,-165.573 1319.52,-158.713"/>
</g>
<!-- Node37 -->
<g id="node37" class="node"><title>Node37</title>
<g id="a_node37"><a xlink:href="generic_2Vector_8hh.html" target="_top" xlink:title="boca/generic/Vector.hh">
<polygon fill="white" stroke="black" points="2079,-140 2079,-159 2196,-159 2196,-140 2079,-140"/>
<text text-anchor="middle" x="2137.5" y="-147" font-family="Helvetica,sans-Serif" font-size="10.00">boca/generic/Vector.hh</text>
</a>
</g>
</g>
<!-- Node36&#45;&gt;Node37 -->
<g id="edge49" class="edge"><title>Node36&#45;&gt;Node37</title>
<path fill="none" stroke="midnightblue" d="M1636.59,-209.06C1738.74,-197.118 1957.26,-171.571 2068.85,-158.525"/>
<polygon fill="midnightblue" stroke="midnightblue" points="2069.46,-161.979 2078.98,-157.341 2068.64,-155.026 2069.46,-161.979"/>
</g>
<!-- Node38 -->
<g id="node38" class="node"><title>Node38</title>
<polygon fill="white" stroke="#bfbfbf" points="2288.5,-67.5 2288.5,-97.5 2398.5,-97.5 2398.5,-67.5 2288.5,-67.5"/>
<text text-anchor="start" x="2296.5" y="-85.5" font-family="Helvetica,sans-Serif" font-size="10.00">boost/range/algorithm</text>
<text text-anchor="middle" x="2343.5" y="-74.5" font-family="Helvetica,sans-Serif" font-size="10.00">/find.hpp</text>
</g>
<!-- Node37&#45;&gt;Node38 -->
<g id="edge50" class="edge"><title>Node37&#45;&gt;Node38</title>
<path fill="none" stroke="midnightblue" d="M2164.86,-139.869C2196.5,-129.883 2249.38,-113.197 2289.42,-100.564"/>
<polygon fill="midnightblue" stroke="midnightblue" points="2290.56,-103.875 2299.04,-97.5281 2288.45,-97.1994 2290.56,-103.875"/>
</g>
<!-- Node39 -->
<g id="node39" class="node"><title>Node39</title>
<polygon fill="white" stroke="#bfbfbf" points="2416.5,-67.5 2416.5,-97.5 2526.5,-97.5 2526.5,-67.5 2416.5,-67.5"/>
<text text-anchor="start" x="2424.5" y="-85.5" font-family="Helvetica,sans-Serif" font-size="10.00">boost/range/algorithm</text>
<text text-anchor="middle" x="2471.5" y="-74.5" font-family="Helvetica,sans-Serif" font-size="10.00">/min_element.hpp</text>
</g>
<!-- Node37&#45;&gt;Node39 -->
<g id="edge51" class="edge"><title>Node37&#45;&gt;Node39</title>
<path fill="none" stroke="midnightblue" d="M2186.39,-139.932C2238.49,-130.67 2323.65,-115.167 2406.54,-98.1568"/>
<polygon fill="midnightblue" stroke="midnightblue" points="2407.28,-101.577 2416.37,-96.1296 2405.87,-94.721 2407.28,-101.577"/>
</g>
<!-- Node40 -->
<g id="node40" class="node"><title>Node40</title>
<polygon fill="white" stroke="#bfbfbf" points="1886.5,-67.5 1886.5,-97.5 1996.5,-97.5 1996.5,-67.5 1886.5,-67.5"/>
<text text-anchor="start" x="1894.5" y="-85.5" font-family="Helvetica,sans-Serif" font-size="10.00">boost/range/algorithm</text>
<text text-anchor="middle" x="1941.5" y="-74.5" font-family="Helvetica,sans-Serif" font-size="10.00">_ext/push_back.hpp</text>
</g>
<!-- Node37&#45;&gt;Node40 -->
<g id="edge52" class="edge"><title>Node37&#45;&gt;Node40</title>
<path fill="none" stroke="midnightblue" d="M2111.47,-139.869C2081.55,-129.946 2031.69,-113.408 1993.68,-100.805"/>
<polygon fill="midnightblue" stroke="midnightblue" points="1994.39,-97.3538 1983.8,-97.5281 1992.19,-103.998 1994.39,-97.3538"/>
</g>
<!-- Node41 -->
<g id="node41" class="node"><title>Node41</title>
<polygon fill="white" stroke="#bfbfbf" points="2014.5,-67.5 2014.5,-97.5 2124.5,-97.5 2124.5,-67.5 2014.5,-67.5"/>
<text text-anchor="start" x="2022.5" y="-85.5" font-family="Helvetica,sans-Serif" font-size="10.00">boost/range/algorithm</text>
<text text-anchor="middle" x="2069.5" y="-74.5" font-family="Helvetica,sans-Serif" font-size="10.00">/transform.hpp</text>
</g>
<!-- Node37&#45;&gt;Node41 -->
<g id="edge53" class="edge"><title>Node37&#45;&gt;Node41</title>
<path fill="none" stroke="midnightblue" d="M2128.33,-139.734C2118.96,-130.78 2104.07,-116.543 2091.61,-104.635"/>
<polygon fill="midnightblue" stroke="midnightblue" points="2093.89,-101.969 2084.24,-97.589 2089.05,-107.029 2093.89,-101.969"/>
</g>
<!-- Node42 -->
<g id="node42" class="node"><title>Node42</title>
<polygon fill="white" stroke="#bfbfbf" points="2143,-73 2143,-92 2270,-92 2270,-73 2143,-73"/>
<text text-anchor="middle" x="2206.5" y="-80" font-family="Helvetica,sans-Serif" font-size="10.00">boost/range/adaptors.hpp</text>
</g>
<!-- Node37&#45;&gt;Node42 -->
<g id="edge54" class="edge"><title>Node37&#45;&gt;Node42</title>
<path fill="none" stroke="midnightblue" d="M2146.81,-139.734C2157.77,-129.403 2176.21,-112.037 2189.69,-99.3315"/>
<polygon fill="midnightblue" stroke="midnightblue" points="2192.46,-101.532 2197.34,-92.1273 2187.66,-96.4366 2192.46,-101.532"/>
</g>
<!-- Node44 -->
<g id="node44" class="node"><title>Node44</title>
<g id="a_node44"><a xlink:href="boca_2tagger_2Tagger_8hh.html" target="_top" xlink:title="boca/tagger/Tagger.hh">
<polygon fill="white" stroke="red" points="748.5,-442 748.5,-461 862.5,-461 862.5,-442 748.5,-442"/>
<text text-anchor="middle" x="805.5" y="-449" font-family="Helvetica,sans-Serif" font-size="10.00">boca/tagger/Tagger.hh</text>
</a>
</g>
</g>
<!-- Node43&#45;&gt;Node44 -->
<g id="edge58" class="edge"><title>Node43&#45;&gt;Node44</title>
<path fill="none" stroke="midnightblue" d="M879.676,-570.467C865.344,-562.769 845.658,-550.179 833.5,-534 819.351,-515.171 812.015,-488.68 808.464,-471.071"/>
<polygon fill="midnightblue" stroke="midnightblue" points="811.899,-470.396 806.678,-461.176 805.01,-471.639 811.899,-470.396"/>
</g>
<!-- Node45 -->
<g id="node45" class="node"><title>Node45</title>
<g id="a_node45"><a xlink:href="Quartet_8hh.html" target="_top" xlink:title="boca/multiplets/Quartet.hh">
<polygon fill="white" stroke="red" points="471,-509 471,-528 602,-528 602,-509 471,-509"/>
<text text-anchor="middle" x="536.5" y="-516" font-family="Helvetica,sans-Serif" font-size="10.00">boca/multiplets/Quartet.hh</text>
</a>
</g>
</g>
<!-- Node43&#45;&gt;Node45 -->
<g id="edge61" class="edge"><title>Node43&#45;&gt;Node45</title>
<path fill="none" stroke="midnightblue" d="M838.852,-570.47C780.772,-561.866 689.35,-547.902 610.5,-534 603.409,-532.75 595.949,-531.368 588.606,-529.968"/>
<polygon fill="midnightblue" stroke="midnightblue" points="589.194,-526.516 578.712,-528.058 587.868,-533.39 589.194,-526.516"/>
</g>
<!-- Node46 -->
<g id="node46" class="node"><title>Node46</title>
<g id="a_node46"><a xlink:href="Reader_8hh.html" target="_top" xlink:title="boca/multivariant/Reader.hh">
<polygon fill="white" stroke="red" points="934,-442 934,-461 1073,-461 1073,-442 934,-442"/>
<text text-anchor="middle" x="1003.5" y="-449" font-family="Helvetica,sans-Serif" font-size="10.00">boca/multivariant/Reader.hh</text>
</a>
</g>
</g>
<!-- Node43&#45;&gt;Node46 -->
<g id="edge62" class="edge"><title>Node43&#45;&gt;Node46</title>
<path fill="none" stroke="midnightblue" d="M976.011,-570.481C1022.54,-563.633 1075.14,-552.11 1089.5,-534 1098.06,-523.203 1096.34,-514.957 1089.5,-503 1079.27,-485.123 1059.97,-472.956 1042.25,-465.052"/>
<polygon fill="midnightblue" stroke="midnightblue" points="1043.21,-461.662 1032.63,-461.09 1040.54,-468.135 1043.21,-461.662"/>
</g>
<!-- Node47 -->
<g id="node47" class="node"><title>Node47</title>
<g id="a_node47"><a xlink:href="tagger_2WLeptonic_8hh.html" target="_top" xlink:title="standardmodel/tagger\l/WLeptonic.hh">
<polygon fill="white" stroke="red" points="842.5,-503.5 842.5,-533.5 952.5,-533.5 952.5,-503.5 842.5,-503.5"/>
<text text-anchor="start" x="850.5" y="-521.5" font-family="Helvetica,sans-Serif" font-size="10.00">standardmodel/tagger</text>
<text text-anchor="middle" x="897.5" y="-510.5" font-family="Helvetica,sans-Serif" font-size="10.00">/WLeptonic.hh</text>
</a>
</g>
</g>
<!-- Node43&#45;&gt;Node47 -->
<g id="edge64" class="edge"><title>Node43&#45;&gt;Node47</title>
<path fill="none" stroke="midnightblue" d="M897.5,-570.475C897.5,-563.471 897.5,-553.192 897.5,-543.696"/>
<polygon fill="midnightblue" stroke="midnightblue" points="901,-543.523 897.5,-533.523 894,-543.523 901,-543.523"/>
</g>
<!-- Node48 -->
<g id="node48" class="node"><title>Node48</title>
<g id="a_node48"><a xlink:href="tagger_2WHadronic_8hh.html" target="_top" xlink:title="standardmodel/tagger\l/WHadronic.hh">
<polygon fill="white" stroke="red" points="970.5,-503.5 970.5,-533.5 1080.5,-533.5 1080.5,-503.5 970.5,-503.5"/>
<text text-anchor="start" x="978.5" y="-521.5" font-family="Helvetica,sans-Serif" font-size="10.00">standardmodel/tagger</text>
<text text-anchor="middle" x="1025.5" y="-510.5" font-family="Helvetica,sans-Serif" font-size="10.00">/WHadronic.hh</text>
</a>
</g>
</g>
<!-- Node43&#45;&gt;Node48 -->
<g id="edge66" class="edge"><title>Node43&#45;&gt;Node48</title>
<path fill="none" stroke="midnightblue" d="M915.839,-570.475C934.066,-562.002 962.603,-548.737 985.997,-537.863"/>
<polygon fill="midnightblue" stroke="midnightblue" points="987.74,-540.912 995.333,-533.523 984.789,-534.564 987.74,-540.912"/>
</g>
<!-- Node49 -->
<g id="node49" class="node"><title>Node49</title>
<g id="a_node49"><a xlink:href="branch_2HiggsSemiLeptonic_8hh.html" target="_top" xlink:title="tthh/branch/HiggsSemiLeptonic.hh">
<polygon fill="white" stroke="red" points="620,-509 620,-528 787,-528 787,-509 620,-509"/>
<text text-anchor="middle" x="703.5" y="-516" font-family="Helvetica,sans-Serif" font-size="10.00">tthh/branch/HiggsSemiLeptonic.hh</text>
</a>
</g>
</g>
<!-- Node43&#45;&gt;Node49 -->
<g id="edge70" class="edge"><title>Node43&#45;&gt;Node49</title>
<path fill="none" stroke="midnightblue" d="M869.705,-570.475C835.85,-560.092 778.529,-542.512 740.845,-530.954"/>
<polygon fill="midnightblue" stroke="midnightblue" points="741.831,-527.595 731.244,-528.009 739.778,-534.288 741.831,-527.595"/>
</g>
<!-- Node44&#45;&gt;Node4 -->
<g id="edge59" class="edge"><title>Node44&#45;&gt;Node4</title>
<path fill="none" stroke="midnightblue" d="M793.035,-441.975C779.081,-432.431 756.235,-416.807 739.509,-405.368"/>
<polygon fill="midnightblue" stroke="midnightblue" points="741.172,-402.265 730.942,-399.509 737.22,-408.043 741.172,-402.265"/>
</g>
<!-- Node44&#45;&gt;Node30 -->
<g id="edge60" class="edge"><title>Node44&#45;&gt;Node30</title>
<path fill="none" stroke="midnightblue" d="M808.54,-441.933C814.998,-422.942 829.5,-375.756 829.5,-335 829.5,-335 829.5,-335 829.5,-277 829.5,-236.85 847.276,-192.446 858.512,-168.389"/>
<polygon fill="midnightblue" stroke="midnightblue" points="861.789,-169.652 862.992,-159.125 855.487,-166.604 861.789,-169.652"/>
</g>
<!-- Node46&#45;&gt;Node26 -->
<g id="edge63" class="edge"><title>Node46&#45;&gt;Node26</title>
<path fill="none" stroke="midnightblue" d="M1026.57,-441.975C1054.18,-431.769 1100.62,-414.608 1131.9,-403.049"/>
<polygon fill="midnightblue" stroke="midnightblue" points="1133.31,-406.259 1141.48,-399.509 1130.88,-399.693 1133.31,-406.259"/>
</g>
<!-- Node47&#45;&gt;Node44 -->
<g id="edge65" class="edge"><title>Node47&#45;&gt;Node44</title>
<path fill="none" stroke="midnightblue" d="M877.537,-503.396C862.252,-492.597 841.248,-477.756 825.863,-466.887"/>
<polygon fill="midnightblue" stroke="midnightblue" points="827.728,-463.919 817.541,-461.007 823.688,-469.636 827.728,-463.919"/>
</g>
<!-- Node48&#45;&gt;Node29 -->
<g id="edge67" class="edge"><title>Node48&#45;&gt;Node29</title>
<path fill="none" stroke="midnightblue" d="M972.813,-503.452C954.591,-495.792 936.1,-484.228 925.5,-467 863.548,-366.31 881.648,-310.788 925.5,-201 931.094,-186.996 942.623,-174.654 952.98,-165.678"/>
<polygon fill="midnightblue" stroke="midnightblue" points="955.353,-168.26 960.9,-159.233 950.934,-162.831 955.353,-168.26"/>
</g>
<!-- Node48&#45;&gt;Node44 -->
<g id="edge68" class="edge"><title>Node48&#45;&gt;Node44</title>
<path fill="none" stroke="midnightblue" d="M978.034,-503.476C938.085,-491.673 881.657,-475.001 844.352,-463.979"/>
<polygon fill="midnightblue" stroke="midnightblue" points="844.948,-460.506 834.366,-461.029 842.965,-467.219 844.948,-460.506"/>
</g>
<!-- Node48&#45;&gt;Node46 -->
<g id="edge69" class="edge"><title>Node48&#45;&gt;Node46</title>
<path fill="none" stroke="midnightblue" d="M1020.73,-503.396C1017.5,-493.863 1013.21,-481.182 1009.71,-470.862"/>
<polygon fill="midnightblue" stroke="midnightblue" points="1012.96,-469.545 1006.44,-461.195 1006.33,-471.789 1012.96,-469.545"/>
</g>
<!-- Node50&#45;&gt;Node30 -->
<g id="edge72" class="edge"><title>Node50&#45;&gt;Node30</title>
<path fill="none" stroke="midnightblue" d="M1111.18,-436.388C1072.19,-419.353 1009.52,-387.481 968.5,-344 917.829,-290.296 885.783,-206.249 873.363,-169.158"/>
<polygon fill="midnightblue" stroke="midnightblue" points="876.559,-167.669 870.14,-159.24 869.902,-169.832 876.559,-167.669"/>
</g>
</g>
</svg>
