<?xml version="1.0" encoding="UTF-8" standalone="no"?>
<!DOCTYPE svg PUBLIC "-//W3C//DTD SVG 1.1//EN"
 "http://www.w3.org/Graphics/SVG/1.1/DTD/svg11.dtd">
<!-- Generated by graphviz version 2.38.0 (20140413.2041)
 -->
<!-- Title: examples/heavyhiggs/source/tagger/EventFusion.cpp Pages: 1 -->
<svg width="1595pt" height="810pt"
 viewBox="0.00 0.00 1594.50 810.00" xmlns="http://www.w3.org/2000/svg" xmlns:xlink="http://www.w3.org/1999/xlink">
<g id="graph0" class="graph" transform="scale(1 1) rotate(0) translate(4 806)">
<title>examples/heavyhiggs/source/tagger/EventFusion.cpp</title>
<polygon fill="white" stroke="none" points="-4,4 -4,-806 1590.5,-806 1590.5,4 -4,4"/>
<!-- Node1 -->
<g id="node1" class="node"><title>Node1</title>
<polygon fill="#bfbfbf" stroke="black" points="947,-771.5 947,-801.5 1102,-801.5 1102,-771.5 947,-771.5"/>
<text text-anchor="start" x="955" y="-789.5" font-family="Helvetica,sans-Serif" font-size="10.00">examples/heavyhiggs</text>
<text text-anchor="middle" x="1024.5" y="-778.5" font-family="Helvetica,sans-Serif" font-size="10.00">/source/tagger/EventFusion.cpp</text>
</g>
<!-- Node2 -->
<g id="node2" class="node"><title>Node2</title>
<g id="a_node2"><a xlink:href="boca_2event_2Event_8hh.html" target="_top" xlink:title="boca/event/Event.hh">
<polygon fill="white" stroke="black" points="854,-442 854,-461 961,-461 961,-442 854,-442"/>
<text text-anchor="middle" x="907.5" y="-449" font-family="Helvetica,sans-Serif" font-size="10.00">boca/event/Event.hh</text>
</a>
</g>
</g>
<!-- Node1&#45;&gt;Node2 -->
<g id="edge1" class="edge"><title>Node1&#45;&gt;Node2</title>
<path fill="none" stroke="midnightblue" d="M1005.44,-771.168C978.49,-749.111 932.5,-704.06 932.5,-653.5 932.5,-653.5 932.5,-653.5 932.5,-584.5 932.5,-543.256 920.572,-496.008 913.194,-470.73"/>
<polygon fill="midnightblue" stroke="midnightblue" points="916.51,-469.605 910.271,-461.042 909.809,-471.627 916.51,-469.605"/>
</g>
<!-- Node32 -->
<g id="node32" class="node"><title>Node32</title>
<g id="a_node32"><a xlink:href="Particles_8hh.html" target="_top" xlink:title="boca/fastjet/Particles.hh">
<polygon fill="white" stroke="black" points="286.5,-442 286.5,-461 408.5,-461 408.5,-442 286.5,-442"/>
<text text-anchor="middle" x="347.5" y="-449" font-family="Helvetica,sans-Serif" font-size="10.00">boca/fastjet/Particles.hh</text>
</a>
</g>
</g>
<!-- Node1&#45;&gt;Node32 -->
<g id="edge40" class="edge"><title>Node1&#45;&gt;Node32</title>
<path fill="none" stroke="midnightblue" d="M946.893,-781.123C742.236,-768.55 203.5,-728.344 203.5,-653.5 203.5,-653.5 203.5,-653.5 203.5,-584.5 203.5,-547.306 198.314,-531.256 222.5,-503 239.355,-483.309 265.019,-471.204 288.716,-463.806"/>
<polygon fill="midnightblue" stroke="midnightblue" points="289.74,-467.154 298.371,-461.009 287.792,-460.43 289.74,-467.154"/>
</g>
<!-- Node33 -->
<g id="node33" class="node"><title>Node33</title>
<g id="a_node33"><a xlink:href="tagger_2EventFusion_8hh.html" target="_top" xlink:title="heavyhiggs/tagger/EventFusion.hh">
<polygon fill="white" stroke="black" points="1033,-710 1033,-729 1200,-729 1200,-710 1033,-710"/>
<text text-anchor="middle" x="1116.5" y="-717" font-family="Helvetica,sans-Serif" font-size="10.00">heavyhiggs/tagger/EventFusion.hh</text>
</a>
</g>
</g>
<!-- Node1&#45;&gt;Node33 -->
<g id="edge43" class="edge"><title>Node1&#45;&gt;Node33</title>
<path fill="none" stroke="midnightblue" d="M1044.46,-771.396C1059.75,-760.597 1080.75,-745.756 1096.14,-734.887"/>
<polygon fill="midnightblue" stroke="midnightblue" points="1098.31,-737.636 1104.46,-729.007 1094.27,-731.919 1098.31,-737.636"/>
</g>
<!-- Node50 -->
<g id="node50" class="node"><title>Node50</title>
<g id="a_node50"><a xlink:href="DEBUG__MACROS_8hh.html" target="_top" xlink:title="boca/generic/DEBUG\l_MACROS.hh">
<polygon fill="white" stroke="black" points="1374,-704.5 1374,-734.5 1485,-734.5 1485,-704.5 1374,-704.5"/>
<text text-anchor="start" x="1382" y="-722.5" font-family="Helvetica,sans-Serif" font-size="10.00">boca/generic/DEBUG</text>
<text text-anchor="middle" x="1429.5" y="-711.5" font-family="Helvetica,sans-Serif" font-size="10.00">_MACROS.hh</text>
</a>
</g>
</g>
<!-- Node1&#45;&gt;Node50 -->
<g id="edge67" class="edge"><title>Node1&#45;&gt;Node50</title>
<path fill="none" stroke="midnightblue" d="M1102.11,-773.044C1177.96,-760.87 1292.18,-742.539 1363.7,-731.06"/>
<polygon fill="midnightblue" stroke="midnightblue" points="1364.62,-734.458 1373.94,-729.417 1363.51,-727.546 1364.62,-734.458"/>
</g>
<!-- Node3 -->
<g id="node3" class="node"><title>Node3</title>
<polygon fill="white" stroke="#bfbfbf" points="898,-380.5 898,-399.5 933,-399.5 933,-380.5 898,-380.5"/>
<text text-anchor="middle" x="915.5" y="-387.5" font-family="Helvetica,sans-Serif" font-size="10.00">map</text>
</g>
<!-- Node2&#45;&gt;Node3 -->
<g id="edge2" class="edge"><title>Node2&#45;&gt;Node3</title>
<path fill="none" stroke="midnightblue" d="M908.646,-441.975C909.775,-433.58 911.536,-420.481 912.991,-409.663"/>
<polygon fill="midnightblue" stroke="midnightblue" points="916.492,-409.886 914.356,-399.509 909.555,-408.953 916.492,-409.886"/>
</g>
<!-- Node4 -->
<g id="node4" class="node"><title>Node4</title>
<g id="a_node4"><a xlink:href="Mutable_8hh.html" target="_top" xlink:title="boca/generic/Mutable.hh">
<polygon fill="white" stroke="black" points="809,-263 809,-282 932,-282 932,-263 809,-263"/>
<text text-anchor="middle" x="870.5" y="-270" font-family="Helvetica,sans-Serif" font-size="10.00">boca/generic/Mutable.hh</text>
</a>
</g>
</g>
<!-- Node2&#45;&gt;Node4 -->
<g id="edge3" class="edge"><title>Node2&#45;&gt;Node4</title>
<path fill="none" stroke="midnightblue" d="M903.536,-441.749C899.2,-431.826 892.356,-415.064 888.5,-400 878.907,-362.525 874.031,-317.407 871.897,-292.448"/>
<polygon fill="midnightblue" stroke="midnightblue" points="875.365,-291.907 871.082,-282.217 868.387,-292.463 875.365,-291.907"/>
</g>
<!-- Node14 -->
<g id="node14" class="node"><title>Node14</title>
<g id="a_node14"><a xlink:href="Flag_8hh.html" target="_top" xlink:title="boca/generic/Flag.hh">
<polygon fill="white" stroke="black" points="951,-380.5 951,-399.5 1058,-399.5 1058,-380.5 951,-380.5"/>
<text text-anchor="middle" x="1004.5" y="-387.5" font-family="Helvetica,sans-Serif" font-size="10.00">boca/generic/Flag.hh</text>
</a>
</g>
</g>
<!-- Node2&#45;&gt;Node14 -->
<g id="edge13" class="edge"><title>Node2&#45;&gt;Node14</title>
<path fill="none" stroke="midnightblue" d="M921.398,-441.975C937.172,-432.299 963.137,-416.372 981.849,-404.894"/>
<polygon fill="midnightblue" stroke="midnightblue" points="983.934,-407.721 990.628,-399.509 980.274,-401.754 983.934,-407.721"/>
</g>
<!-- Node16 -->
<g id="node16" class="node"><title>Node16</title>
<g id="a_node16"><a xlink:href="Jet_8hh.html" target="_top" xlink:title="boca/fastjet/Jet.hh">
<polygon fill="white" stroke="black" points="700.5,-380.5 700.5,-399.5 798.5,-399.5 798.5,-380.5 700.5,-380.5"/>
<text text-anchor="middle" x="749.5" y="-387.5" font-family="Helvetica,sans-Serif" font-size="10.00">boca/fastjet/Jet.hh</text>
</a>
</g>
</g>
<!-- Node2&#45;&gt;Node16 -->
<g id="edge15" class="edge"><title>Node2&#45;&gt;Node16</title>
<path fill="none" stroke="midnightblue" d="M884.862,-441.975C857.76,-431.769 812.19,-414.608 781.496,-403.049"/>
<polygon fill="midnightblue" stroke="midnightblue" points="782.687,-399.758 772.096,-399.509 780.22,-406.309 782.687,-399.758"/>
</g>
<!-- Node30 -->
<g id="node30" class="node"><title>Node30</title>
<g id="a_node30"><a xlink:href="fastjet_2Particle_8hh.html" target="_top" xlink:title="boca/fastjet/Particle.hh">
<polygon fill="white" stroke="black" points="378,-380.5 378,-399.5 495,-399.5 495,-380.5 378,-380.5"/>
<text text-anchor="middle" x="436.5" y="-387.5" font-family="Helvetica,sans-Serif" font-size="10.00">boca/fastjet/Particle.hh</text>
</a>
</g>
</g>
<!-- Node2&#45;&gt;Node30 -->
<g id="edge35" class="edge"><title>Node2&#45;&gt;Node30</title>
<path fill="none" stroke="midnightblue" d="M865.231,-441.97C853.972,-439.855 841.798,-437.707 830.5,-436 716.976,-418.851 584.163,-404.949 505.365,-397.341"/>
<polygon fill="midnightblue" stroke="midnightblue" points="505.374,-393.825 495.085,-396.354 504.705,-400.793 505.374,-393.825"/>
</g>
<!-- Node5 -->
<g id="node5" class="node"><title>Node5</title>
<polygon fill="white" stroke="#bfbfbf" points="841,-196 841,-215 900,-215 900,-196 841,-196"/>
<text text-anchor="middle" x="870.5" y="-203" font-family="Helvetica,sans-Serif" font-size="10.00">functional</text>
</g>
<!-- Node4&#45;&gt;Node5 -->
<g id="edge4" class="edge"><title>Node4&#45;&gt;Node5</title>
<path fill="none" stroke="midnightblue" d="M870.5,-262.734C870.5,-253.183 870.5,-237.618 870.5,-225.283"/>
<polygon fill="midnightblue" stroke="midnightblue" points="874,-225.127 870.5,-215.127 867,-225.127 874,-225.127"/>
</g>
<!-- Node6 -->
<g id="node6" class="node"><title>Node6</title>
<g id="a_node6"><a xlink:href="Debug_8hh.html" target="_top" xlink:title="boca/generic/Debug.hh">
<polygon fill="white" stroke="black" points="918,-196 918,-215 1035,-215 1035,-196 918,-196"/>
<text text-anchor="middle" x="976.5" y="-203" font-family="Helvetica,sans-Serif" font-size="10.00">boca/generic/Debug.hh</text>
</a>
</g>
</g>
<!-- Node4&#45;&gt;Node6 -->
<g id="edge5" class="edge"><title>Node4&#45;&gt;Node6</title>
<path fill="none" stroke="midnightblue" d="M884.796,-262.734C902.517,-251.867 932.932,-233.216 953.844,-220.393"/>
<polygon fill="midnightblue" stroke="midnightblue" points="955.736,-223.339 962.431,-215.127 952.076,-217.371 955.736,-223.339"/>
</g>
<!-- Node13 -->
<g id="node13" class="node"><title>Node13</title>
<polygon fill="white" stroke="#bfbfbf" points="784.5,-196 784.5,-215 822.5,-215 822.5,-196 784.5,-196"/>
<text text-anchor="middle" x="803.5" y="-203" font-family="Helvetica,sans-Serif" font-size="10.00">array</text>
</g>
<!-- Node4&#45;&gt;Node13 -->
<g id="edge12" class="edge"><title>Node4&#45;&gt;Node13</title>
<path fill="none" stroke="midnightblue" d="M861.464,-262.734C850.815,-252.403 832.915,-235.037 819.819,-222.332"/>
<polygon fill="midnightblue" stroke="midnightblue" points="822.007,-219.578 812.393,-215.127 817.133,-224.603 822.007,-219.578"/>
</g>
<!-- Node7 -->
<g id="node7" class="node"><title>Node7</title>
<polygon fill="white" stroke="#bfbfbf" points="810,-67.5 810,-86.5 851,-86.5 851,-67.5 810,-67.5"/>
<text text-anchor="middle" x="830.5" y="-74.5" font-family="Helvetica,sans-Serif" font-size="10.00">string</text>
</g>
<!-- Node6&#45;&gt;Node7 -->
<g id="edge6" class="edge"><title>Node6&#45;&gt;Node7</title>
<path fill="none" stroke="midnightblue" d="M963.612,-195.913C949.423,-186.268 926.15,-169.879 907.5,-154 884.848,-134.713 860.75,-110.199 845.667,-94.3092"/>
<polygon fill="midnightblue" stroke="midnightblue" points="848.058,-91.7434 838.656,-86.8594 842.961,-96.5405 848.058,-91.7434"/>
</g>
<!-- Node8 -->
<g id="node8" class="node"><title>Node8</title>
<polygon fill="white" stroke="#bfbfbf" points="631.5,-67.5 631.5,-86.5 675.5,-86.5 675.5,-67.5 631.5,-67.5"/>
<text text-anchor="middle" x="653.5" y="-74.5" font-family="Helvetica,sans-Serif" font-size="10.00">vector</text>
</g>
<!-- Node6&#45;&gt;Node8 -->
<g id="edge7" class="edge"><title>Node6&#45;&gt;Node8</title>
<path fill="none" stroke="midnightblue" d="M938.126,-195.928C901.766,-187.254 845.962,-172.501 799.5,-154 754.181,-135.955 704.383,-108.183 676.231,-91.6793"/>
<polygon fill="midnightblue" stroke="midnightblue" points="677.94,-88.6237 667.551,-86.5448 674.376,-94.6486 677.94,-88.6237"/>
</g>
<!-- Node9 -->
<g id="node9" class="node"><title>Node9</title>
<polygon fill="white" stroke="#bfbfbf" points="808.5,-129 808.5,-148 860.5,-148 860.5,-129 808.5,-129"/>
<text text-anchor="middle" x="834.5" y="-136" font-family="Helvetica,sans-Serif" font-size="10.00">sstream</text>
</g>
<!-- Node6&#45;&gt;Node9 -->
<g id="edge8" class="edge"><title>Node6&#45;&gt;Node9</title>
<path fill="none" stroke="midnightblue" d="M957.643,-195.869C933.349,-184.748 890.899,-165.317 862.744,-152.429"/>
<polygon fill="midnightblue" stroke="midnightblue" points="863.984,-149.147 853.434,-148.167 861.07,-155.512 863.984,-149.147"/>
</g>
<!-- Node10 -->
<g id="node10" class="node"><title>Node10</title>
<polygon fill="white" stroke="#bfbfbf" points="916.5,-129 916.5,-148 966.5,-148 966.5,-129 916.5,-129"/>
<text text-anchor="middle" x="941.5" y="-136" font-family="Helvetica,sans-Serif" font-size="10.00">iomanip</text>
</g>
<!-- Node6&#45;&gt;Node10 -->
<g id="edge9" class="edge"><title>Node6&#45;&gt;Node10</title>
<path fill="none" stroke="midnightblue" d="M971.78,-195.734C966.479,-185.89 957.74,-169.66 951.009,-157.159"/>
<polygon fill="midnightblue" stroke="midnightblue" points="953.968,-155.273 946.145,-148.127 947.805,-158.591 953.968,-155.273"/>
</g>
<!-- Node11 -->
<g id="node11" class="node"><title>Node11</title>
<polygon fill="white" stroke="#bfbfbf" points="984.5,-129 984.5,-148 1038.5,-148 1038.5,-129 984.5,-129"/>
<text text-anchor="middle" x="1011.5" y="-136" font-family="Helvetica,sans-Serif" font-size="10.00">iostream</text>
</g>
<!-- Node6&#45;&gt;Node11 -->
<g id="edge10" class="edge"><title>Node6&#45;&gt;Node11</title>
<path fill="none" stroke="midnightblue" d="M981.22,-195.734C986.521,-185.89 995.26,-169.66 1001.99,-157.159"/>
<polygon fill="midnightblue" stroke="midnightblue" points="1005.2,-158.591 1006.85,-148.127 999.032,-155.273 1005.2,-158.591"/>
</g>
<!-- Node12 -->
<g id="node12" class="node"><title>Node12</title>
<polygon fill="white" stroke="#bfbfbf" points="1057,-123.5 1057,-153.5 1162,-153.5 1162,-123.5 1057,-123.5"/>
<text text-anchor="start" x="1065" y="-141.5" font-family="Helvetica,sans-Serif" font-size="10.00">boost/units/systems</text>
<text text-anchor="middle" x="1109.5" y="-130.5" font-family="Helvetica,sans-Serif" font-size="10.00">/si/io.hpp</text>
</g>
<!-- Node6&#45;&gt;Node12 -->
<g id="edge11" class="edge"><title>Node6&#45;&gt;Node12</title>
<path fill="none" stroke="midnightblue" d="M994.161,-195.869C1013.86,-186.242 1046.3,-170.388 1071.77,-157.942"/>
<polygon fill="midnightblue" stroke="midnightblue" points="1073.35,-161.064 1080.8,-153.528 1070.28,-154.774 1073.35,-161.064"/>
</g>
<!-- Node15 -->
<g id="node15" class="node"><title>Node15</title>
<polygon fill="white" stroke="#bfbfbf" points="973.5,-324.5 973.5,-343.5 1035.5,-343.5 1035.5,-324.5 973.5,-324.5"/>
<text text-anchor="middle" x="1004.5" y="-331.5" font-family="Helvetica,sans-Serif" font-size="10.00">type_traits</text>
</g>
<!-- Node14&#45;&gt;Node15 -->
<g id="edge14" class="edge"><title>Node14&#45;&gt;Node15</title>
<path fill="none" stroke="midnightblue" d="M1004.5,-380.083C1004.5,-373.006 1004.5,-362.861 1004.5,-353.986"/>
<polygon fill="midnightblue" stroke="midnightblue" points="1008,-353.751 1004.5,-343.751 1001,-353.751 1008,-353.751"/>
</g>
<!-- Node17 -->
<g id="node17" class="node"><title>Node17</title>
<g id="a_node17"><a xlink:href="PseudoJet_8hh.html" target="_top" xlink:title="boca/fastjet/PseudoJet.hh">
<polygon fill="white" stroke="black" points="377,-263 377,-282 508,-282 508,-263 377,-263"/>
<text text-anchor="middle" x="442.5" y="-270" font-family="Helvetica,sans-Serif" font-size="10.00">boca/fastjet/PseudoJet.hh</text>
</a>
</g>
</g>
<!-- Node16&#45;&gt;Node17 -->
<g id="edge16" class="edge"><title>Node16&#45;&gt;Node17</title>
<path fill="none" stroke="midnightblue" d="M700.333,-386.097C632.05,-381.196 512.998,-369.238 478.5,-344 461.377,-331.473 451.814,-308.418 446.92,-292.087"/>
<polygon fill="midnightblue" stroke="midnightblue" points="450.206,-290.825 444.242,-282.067 443.443,-292.632 450.206,-290.825"/>
</g>
<!-- Node25 -->
<g id="node25" class="node"><title>Node25</title>
<g id="a_node25"><a xlink:href="JetInfo_8hh.html" target="_top" xlink:title="boca/fastjet/JetInfo.hh">
<polygon fill="white" stroke="black" points="686.5,-324.5 686.5,-343.5 800.5,-343.5 800.5,-324.5 686.5,-324.5"/>
<text text-anchor="middle" x="743.5" y="-331.5" font-family="Helvetica,sans-Serif" font-size="10.00">boca/fastjet/JetInfo.hh</text>
</a>
</g>
</g>
<!-- Node16&#45;&gt;Node25 -->
<g id="edge25" class="edge"><title>Node16&#45;&gt;Node25</title>
<path fill="none" stroke="midnightblue" d="M748.509,-380.083C747.714,-372.927 746.571,-362.635 745.577,-353.691"/>
<polygon fill="midnightblue" stroke="midnightblue" points="749.055,-353.303 744.472,-343.751 742.098,-354.076 749.055,-353.303"/>
</g>
<!-- Node17&#45;&gt;Node17 -->
<g id="edge18" class="edge"><title>Node17&#45;&gt;Node17</title>
<path fill="none" stroke="midnightblue" d="M473.331,-282.033C499.087,-286.107 526,-282.93 526,-272.5 526,-263.415 505.579,-259.832 483.289,-261.753"/>
<polygon fill="midnightblue" stroke="midnightblue" points="482.834,-258.282 473.331,-262.967 483.681,-265.231 482.834,-258.282"/>
</g>
<!-- Node18 -->
<g id="node18" class="node"><title>Node18</title>
<polygon fill="white" stroke="#bfbfbf" points="391,-196 391,-215 494,-215 494,-196 391,-196"/>
<text text-anchor="middle" x="442.5" y="-203" font-family="Helvetica,sans-Serif" font-size="10.00">boost/operators.hpp</text>
</g>
<!-- Node17&#45;&gt;Node18 -->
<g id="edge17" class="edge"><title>Node17&#45;&gt;Node18</title>
<path fill="none" stroke="midnightblue" d="M442.5,-262.734C442.5,-253.183 442.5,-237.618 442.5,-225.283"/>
<polygon fill="midnightblue" stroke="midnightblue" points="446,-225.127 442.5,-215.127 439,-225.127 446,-225.127"/>
</g>
<!-- Node19 -->
<g id="node19" class="node"><title>Node19</title>
<g id="a_node19"><a xlink:href="Prefixes_8hh.html" target="_top" xlink:title="boca/units/Prefixes.hh">
<polygon fill="white" stroke="red" points="253.5,-129 253.5,-148 367.5,-148 367.5,-129 253.5,-129"/>
<text text-anchor="middle" x="310.5" y="-136" font-family="Helvetica,sans-Serif" font-size="10.00">boca/units/Prefixes.hh</text>
</a>
</g>
</g>
<!-- Node17&#45;&gt;Node19 -->
<g id="edge19" class="edge"><title>Node17&#45;&gt;Node19</title>
<path fill="none" stroke="midnightblue" d="M430.782,-262.721C418.137,-253.04 397.643,-236.742 381.5,-221 359.991,-200.026 337.617,-173.411 323.872,-156.414"/>
<polygon fill="midnightblue" stroke="midnightblue" points="326.504,-154.101 317.521,-148.483 321.04,-158.476 326.504,-154.101"/>
</g>
<!-- Node20 -->
<g id="node20" class="node"><title>Node20</title>
<g id="a_node20"><a xlink:href="ElectronVolt_8hh.html" target="_top" xlink:title="boca/units/ElectronVolt.hh">
<polygon fill="white" stroke="black" points="245,-67.5 245,-86.5 376,-86.5 376,-67.5 245,-67.5"/>
<text text-anchor="middle" x="310.5" y="-74.5" font-family="Helvetica,sans-Serif" font-size="10.00">boca/units/ElectronVolt.hh</text>
</a>
</g>
</g>
<!-- Node19&#45;&gt;Node20 -->
<g id="edge20" class="edge"><title>Node19&#45;&gt;Node20</title>
<path fill="none" stroke="midnightblue" d="M310.5,-128.975C310.5,-120.58 310.5,-107.481 310.5,-96.6631"/>
<polygon fill="midnightblue" stroke="midnightblue" points="314,-96.5091 310.5,-86.5091 307,-96.5091 314,-96.5091"/>
</g>
<!-- Node21 -->
<g id="node21" class="node"><title>Node21</title>
<polygon fill="white" stroke="#bfbfbf" points="0,-6 0,-25 157,-25 157,-6 0,-6"/>
<text text-anchor="middle" x="78.5" y="-13" font-family="Helvetica,sans-Serif" font-size="10.00">boost/units/base_dimension.hpp</text>
</g>
<!-- Node20&#45;&gt;Node21 -->
<g id="edge21" class="edge"><title>Node20&#45;&gt;Node21</title>
<path fill="none" stroke="midnightblue" d="M277.26,-67.4751C236.258,-56.9595 166.471,-39.0615 121.446,-27.5142"/>
<polygon fill="midnightblue" stroke="midnightblue" points="122.234,-24.1031 111.678,-25.0091 120.495,-30.8837 122.234,-24.1031"/>
</g>
<!-- Node22 -->
<g id="node22" class="node"><title>Node22</title>
<polygon fill="white" stroke="#bfbfbf" points="175.5,-6 175.5,-25 303.5,-25 303.5,-6 175.5,-6"/>
<text text-anchor="middle" x="239.5" y="-13" font-family="Helvetica,sans-Serif" font-size="10.00">boost/units/base_unit.hpp</text>
</g>
<!-- Node20&#45;&gt;Node22 -->
<g id="edge22" class="edge"><title>Node20&#45;&gt;Node22</title>
<path fill="none" stroke="midnightblue" d="M300.327,-67.4751C289.15,-58.1082 270.983,-42.8839 257.409,-31.5081"/>
<polygon fill="midnightblue" stroke="midnightblue" points="259.566,-28.7496 249.654,-25.0091 255.07,-34.1148 259.566,-28.7496"/>
</g>
<!-- Node23 -->
<g id="node23" class="node"><title>Node23</title>
<polygon fill="white" stroke="#bfbfbf" points="322,-6 322,-25 443,-25 443,-6 322,-6"/>
<text text-anchor="middle" x="382.5" y="-13" font-family="Helvetica,sans-Serif" font-size="10.00">boost/units/quantity.hpp</text>
</g>
<!-- Node20&#45;&gt;Node23 -->
<g id="edge23" class="edge"><title>Node20&#45;&gt;Node23</title>
<path fill="none" stroke="midnightblue" d="M320.816,-67.4751C332.151,-58.1082 350.573,-42.8839 364.339,-31.5081"/>
<polygon fill="midnightblue" stroke="midnightblue" points="366.724,-34.0773 372.203,-25.0091 362.265,-28.6813 366.724,-34.0773"/>
</g>
<!-- Node24 -->
<g id="node24" class="node"><title>Node24</title>
<polygon fill="white" stroke="#bfbfbf" points="461,-0.5 461,-30.5 566,-30.5 566,-0.5 461,-0.5"/>
<text text-anchor="start" x="469" y="-18.5" font-family="Helvetica,sans-Serif" font-size="10.00">boost/units/systems</text>
<text text-anchor="middle" x="513.5" y="-7.5" font-family="Helvetica,sans-Serif" font-size="10.00">/si/energy.hpp</text>
</g>
<!-- Node20&#45;&gt;Node24 -->
<g id="edge24" class="edge"><title>Node20&#45;&gt;Node24</title>
<path fill="none" stroke="midnightblue" d="M339.585,-67.4751C369.776,-58.6259 417.804,-44.5487 455.747,-33.4277"/>
<polygon fill="midnightblue" stroke="midnightblue" points="457.045,-36.6944 465.657,-30.523 455.076,-29.977 457.045,-36.6944"/>
</g>
<!-- Node25&#45;&gt;Node4 -->
<g id="edge27" class="edge"><title>Node25&#45;&gt;Node4</title>
<path fill="none" stroke="midnightblue" d="M761.696,-324.475C783.009,-314.49 818.531,-297.848 843.163,-286.307"/>
<polygon fill="midnightblue" stroke="midnightblue" points="844.767,-289.421 852.338,-282.009 841.797,-283.082 844.767,-289.421"/>
</g>
<!-- Node25&#45;&gt;Node17 -->
<g id="edge26" class="edge"><title>Node25&#45;&gt;Node17</title>
<path fill="none" stroke="midnightblue" d="M700.374,-324.475C646.395,-313.805 553.964,-295.534 495.663,-284.009"/>
<polygon fill="midnightblue" stroke="midnightblue" points="496.035,-280.515 485.546,-282.009 494.677,-287.382 496.035,-280.515"/>
</g>
<!-- Node26 -->
<g id="node26" class="node"><title>Node26</title>
<g id="a_node26"><a xlink:href="Identification_8hh.html" target="_top" xlink:title="boca/identification\l/Identification.hh">
<polygon fill="white" stroke="red" points="696,-257.5 696,-287.5 791,-287.5 791,-257.5 696,-257.5"/>
<text text-anchor="start" x="704" y="-275.5" font-family="Helvetica,sans-Serif" font-size="10.00">boca/identification</text>
<text text-anchor="middle" x="743.5" y="-264.5" font-family="Helvetica,sans-Serif" font-size="10.00">/Identification.hh</text>
</a>
</g>
</g>
<!-- Node25&#45;&gt;Node26 -->
<g id="edge28" class="edge"><title>Node25&#45;&gt;Node26</title>
<path fill="none" stroke="midnightblue" d="M743.5,-324.475C743.5,-317.471 743.5,-307.192 743.5,-297.696"/>
<polygon fill="midnightblue" stroke="midnightblue" points="747,-297.523 743.5,-287.523 740,-297.523 747,-297.523"/>
</g>
<!-- Node27 -->
<g id="node27" class="node"><title>Node27</title>
<g id="a_node27"><a xlink:href="Constituent_8hh.html" target="_top" xlink:title="boca/identification\l/Constituent.hh">
<polygon fill="white" stroke="black" points="583,-257.5 583,-287.5 678,-287.5 678,-257.5 583,-257.5"/>
<text text-anchor="start" x="591" y="-275.5" font-family="Helvetica,sans-Serif" font-size="10.00">boca/identification</text>
<text text-anchor="middle" x="630.5" y="-264.5" font-family="Helvetica,sans-Serif" font-size="10.00">/Constituent.hh</text>
</a>
</g>
</g>
<!-- Node25&#45;&gt;Node27 -->
<g id="edge29" class="edge"><title>Node25&#45;&gt;Node27</title>
<path fill="none" stroke="midnightblue" d="M727.31,-324.475C711.433,-316.115 686.697,-303.09 666.202,-292.299"/>
<polygon fill="midnightblue" stroke="midnightblue" points="667.611,-289.085 657.132,-287.523 664.35,-295.279 667.611,-289.085"/>
</g>
<!-- Node28 -->
<g id="node28" class="node"><title>Node28</title>
<g id="a_node28"><a xlink:href="Family_8hh.html" target="_top" xlink:title="boca/identification\l/Family.hh">
<polygon fill="white" stroke="red" points="548,-190.5 548,-220.5 643,-220.5 643,-190.5 548,-190.5"/>
<text text-anchor="start" x="556" y="-208.5" font-family="Helvetica,sans-Serif" font-size="10.00">boca/identification</text>
<text text-anchor="middle" x="595.5" y="-197.5" font-family="Helvetica,sans-Serif" font-size="10.00">/Family.hh</text>
</a>
</g>
</g>
<!-- Node27&#45;&gt;Node28 -->
<g id="edge30" class="edge"><title>Node27&#45;&gt;Node28</title>
<path fill="none" stroke="midnightblue" d="M622.906,-257.396C618.503,-249.219 612.852,-238.725 607.827,-229.393"/>
<polygon fill="midnightblue" stroke="midnightblue" points="610.902,-227.722 603.08,-220.577 604.739,-231.041 610.902,-227.722"/>
</g>
<!-- Node29 -->
<g id="node29" class="node"><title>Node29</title>
<g id="a_node29"><a xlink:href="Id_8hh.html" target="_top" xlink:title="boca/identification\l/Id.hh">
<polygon fill="white" stroke="black" points="548,-123.5 548,-153.5 643,-153.5 643,-123.5 548,-123.5"/>
<text text-anchor="start" x="556" y="-141.5" font-family="Helvetica,sans-Serif" font-size="10.00">boca/identification</text>
<text text-anchor="middle" x="595.5" y="-130.5" font-family="Helvetica,sans-Serif" font-size="10.00">/Id.hh</text>
</a>
</g>
</g>
<!-- Node28&#45;&gt;Node29 -->
<g id="edge31" class="edge"><title>Node28&#45;&gt;Node29</title>
<path fill="none" stroke="midnightblue" d="M595.5,-190.396C595.5,-182.645 595.5,-172.812 595.5,-163.86"/>
<polygon fill="midnightblue" stroke="midnightblue" points="599,-163.576 595.5,-153.577 592,-163.577 599,-163.576"/>
</g>
<!-- Node29&#45;&gt;Node7 -->
<g id="edge32" class="edge"><title>Node29&#45;&gt;Node7</title>
<path fill="none" stroke="midnightblue" d="M643.056,-125.459C689.839,-113.614 759.882,-95.8798 799.775,-85.7792"/>
<polygon fill="midnightblue" stroke="midnightblue" points="800.875,-89.1114 809.71,-83.2639 799.157,-82.3255 800.875,-89.1114"/>
</g>
<!-- Node29&#45;&gt;Node8 -->
<g id="edge33" class="edge"><title>Node29&#45;&gt;Node8</title>
<path fill="none" stroke="midnightblue" d="M609.245,-123.399C617.847,-114.575 628.952,-103.183 637.886,-94.0178"/>
<polygon fill="midnightblue" stroke="midnightblue" points="640.586,-96.2616 645.06,-86.6578 635.574,-91.3755 640.586,-96.2616"/>
</g>
<!-- Node29&#45;&gt;Node20 -->
<g id="edge34" class="edge"><title>Node29&#45;&gt;Node20</title>
<path fill="none" stroke="midnightblue" d="M547.797,-127.541C496.14,-116.756 414.066,-99.6217 361.249,-88.595"/>
<polygon fill="midnightblue" stroke="midnightblue" points="361.922,-85.1601 351.418,-86.5425 360.491,-92.0123 361.922,-85.1601"/>
</g>
<!-- Node30&#45;&gt;Node17 -->
<g id="edge36" class="edge"><title>Node30&#45;&gt;Node17</title>
<path fill="none" stroke="midnightblue" d="M436.951,-380.319C437.915,-361.757 440.197,-317.839 441.514,-292.473"/>
<polygon fill="midnightblue" stroke="midnightblue" points="445.02,-292.45 442.044,-282.282 438.03,-292.087 445.02,-292.45"/>
</g>
<!-- Node31 -->
<g id="node31" class="node"><title>Node31</title>
<g id="a_node31"><a xlink:href="ParticleInfo_8hh.html" target="_top" xlink:title="boca/fastjet/ParticleInfo.hh">
<polygon fill="white" stroke="black" points="487.5,-324.5 487.5,-343.5 621.5,-343.5 621.5,-324.5 487.5,-324.5"/>
<text text-anchor="middle" x="554.5" y="-331.5" font-family="Helvetica,sans-Serif" font-size="10.00">boca/fastjet/ParticleInfo.hh</text>
</a>
</g>
</g>
<!-- Node30&#45;&gt;Node31 -->
<g id="edge37" class="edge"><title>Node30&#45;&gt;Node31</title>
<path fill="none" stroke="midnightblue" d="M455.197,-380.444C474.444,-371.636 504.652,-357.812 526.7,-347.722"/>
<polygon fill="midnightblue" stroke="midnightblue" points="528.253,-350.86 535.89,-343.516 525.34,-344.495 528.253,-350.86"/>
</g>
<!-- Node31&#45;&gt;Node17 -->
<g id="edge38" class="edge"><title>Node31&#45;&gt;Node17</title>
<path fill="none" stroke="midnightblue" d="M538.453,-324.475C519.907,-314.622 489.16,-298.288 467.478,-286.77"/>
<polygon fill="midnightblue" stroke="midnightblue" points="468.99,-283.61 458.517,-282.009 465.706,-289.792 468.99,-283.61"/>
</g>
<!-- Node31&#45;&gt;Node28 -->
<g id="edge39" class="edge"><title>Node31&#45;&gt;Node28</title>
<path fill="none" stroke="midnightblue" d="M556.157,-324.432C559.014,-310.217 565.353,-280.949 573.5,-257 576.555,-248.02 580.545,-238.418 584.287,-230.023"/>
<polygon fill="midnightblue" stroke="midnightblue" points="587.514,-231.383 588.496,-220.833 581.15,-228.468 587.514,-231.383"/>
</g>
<!-- Node32&#45;&gt;Node29 -->
<g id="edge42" class="edge"><title>Node32&#45;&gt;Node29</title>
<path fill="none" stroke="midnightblue" d="M347.627,-441.807C347.896,-422.563 348.5,-374.905 348.5,-335 348.5,-335 348.5,-335 348.5,-271.5 348.5,-232.421 351.836,-215.44 381.5,-190 404.687,-170.114 482.518,-155.356 537.609,-147.085"/>
<polygon fill="midnightblue" stroke="midnightblue" points="538.227,-150.532 547.613,-145.617 537.21,-143.606 538.227,-150.532"/>
</g>
<!-- Node32&#45;&gt;Node30 -->
<g id="edge41" class="edge"><title>Node32&#45;&gt;Node30</title>
<path fill="none" stroke="midnightblue" d="M360.252,-441.975C374.527,-432.431 397.897,-416.807 415.008,-405.368"/>
<polygon fill="midnightblue" stroke="midnightblue" points="417.404,-407.977 423.772,-399.509 413.514,-402.157 417.404,-407.977"/>
</g>
<!-- Node34 -->
<g id="node34" class="node"><title>Node34</title>
<g id="a_node34"><a xlink:href="EventMultiplet_8hh.html" target="_top" xlink:title="boca/multiplets/EventMultiplet.hh">
<polygon fill="white" stroke="black" points="743,-643 743,-662 904,-662 904,-643 743,-643"/>
<text text-anchor="middle" x="823.5" y="-650" font-family="Helvetica,sans-Serif" font-size="10.00">boca/multiplets/EventMultiplet.hh</text>
</a>
</g>
</g>
<!-- Node33&#45;&gt;Node34 -->
<g id="edge44" class="edge"><title>Node33&#45;&gt;Node34</title>
<path fill="none" stroke="midnightblue" d="M1077.89,-709.936C1024.97,-698.196 929.905,-677.105 872.17,-664.297"/>
<polygon fill="midnightblue" stroke="midnightblue" points="872.712,-660.832 862.191,-662.083 871.196,-667.666 872.712,-660.832"/>
</g>
<!-- Node43 -->
<g id="node43" class="node"><title>Node43</title>
<g id="a_node43"><a xlink:href="branch_2EventFusion_8hh.html" target="_top" xlink:title="heavyhiggs/branch/EventFusion.hh">
<polygon fill="white" stroke="black" points="1336.5,-643 1336.5,-662 1506.5,-662 1506.5,-643 1336.5,-643"/>
<text text-anchor="middle" x="1421.5" y="-650" font-family="Helvetica,sans-Serif" font-size="10.00">heavyhiggs/branch/EventFusion.hh</text>
</a>
</g>
</g>
<!-- Node33&#45;&gt;Node43 -->
<g id="edge59" class="edge"><title>Node33&#45;&gt;Node43</title>
<path fill="none" stroke="midnightblue" d="M1156.69,-709.936C1211.89,-698.171 1311.15,-677.018 1371.21,-664.218"/>
<polygon fill="midnightblue" stroke="midnightblue" points="1372.17,-667.591 1381.22,-662.083 1370.71,-660.745 1372.17,-667.591"/>
</g>
<!-- Node45 -->
<g id="node45" class="node"><title>Node45</title>
<g id="a_node45"><a xlink:href="tagger_2HeavyHiggsSemi_8hh.html" target="_top" xlink:title="heavyhiggs/tagger/HeavyHiggs\lSemi.hh">
<polygon fill="white" stroke="black" points="1113,-637.5 1113,-667.5 1266,-667.5 1266,-637.5 1113,-637.5"/>
<text text-anchor="start" x="1121" y="-655.5" font-family="Helvetica,sans-Serif" font-size="10.00">heavyhiggs/tagger/HeavyHiggs</text>
<text text-anchor="middle" x="1189.5" y="-644.5" font-family="Helvetica,sans-Serif" font-size="10.00">Semi.hh</text>
</a>
</g>
</g>
<!-- Node33&#45;&gt;Node45 -->
<g id="edge61" class="edge"><title>Node33&#45;&gt;Node45</title>
<path fill="none" stroke="midnightblue" d="M1126.35,-709.734C1136.5,-700.696 1152.69,-686.274 1166.14,-674.298"/>
<polygon fill="midnightblue" stroke="midnightblue" points="1168.54,-676.853 1173.68,-667.589 1163.88,-671.625 1168.54,-676.853"/>
</g>
<!-- Node35 -->
<g id="node35" class="node"><title>Node35</title>
<g id="a_node35"><a xlink:href="boca_2multiplets_2Global_8hh.html" target="_top" xlink:title="boca/multiplets/Global.hh">
<polygon fill="white" stroke="black" points="777,-509 777,-528 904,-528 904,-509 777,-509"/>
<text text-anchor="middle" x="840.5" y="-516" font-family="Helvetica,sans-Serif" font-size="10.00">boca/multiplets/Global.hh</text>
</a>
</g>
</g>
<!-- Node34&#45;&gt;Node35 -->
<g id="edge45" class="edge"><title>Node34&#45;&gt;Node35</title>
<path fill="none" stroke="midnightblue" d="M824.615,-642.839C827.341,-621.674 834.389,-566.948 838.113,-538.033"/>
<polygon fill="midnightblue" stroke="midnightblue" points="841.596,-538.386 839.403,-528.021 834.654,-537.492 841.596,-538.386"/>
</g>
<!-- Node37 -->
<g id="node37" class="node"><title>Node37</title>
<g id="a_node37"><a xlink:href="multiplets_2TwoBody_8hh.html" target="_top" xlink:title="boca/multiplets/TwoBody.hh">
<polygon fill="white" stroke="red" points="434.5,-576 434.5,-595 574.5,-595 574.5,-576 434.5,-576"/>
<text text-anchor="middle" x="504.5" y="-583" font-family="Helvetica,sans-Serif" font-size="10.00">boca/multiplets/TwoBody.hh</text>
</a>
</g>
</g>
<!-- Node34&#45;&gt;Node37 -->
<g id="edge49" class="edge"><title>Node34&#45;&gt;Node37</title>
<path fill="none" stroke="midnightblue" d="M781.468,-642.936C723.533,-631.131 619.201,-609.872 556.449,-597.085"/>
<polygon fill="midnightblue" stroke="midnightblue" points="556.869,-593.599 546.371,-595.032 555.471,-600.458 556.869,-593.599"/>
</g>
<!-- Node36 -->
<g id="node36" class="node"><title>Node36</title>
<g id="a_node36"><a xlink:href="Singlet_8hh.html" target="_top" xlink:title="boca/multiplets/Singlet.hh">
<polygon fill="white" stroke="red" points="693,-442 693,-461 822,-461 822,-442 693,-442"/>
<text text-anchor="middle" x="757.5" y="-449" font-family="Helvetica,sans-Serif" font-size="10.00">boca/multiplets/Singlet.hh</text>
</a>
</g>
</g>
<!-- Node35&#45;&gt;Node36 -->
<g id="edge46" class="edge"><title>Node35&#45;&gt;Node36</title>
<path fill="none" stroke="midnightblue" d="M829.306,-508.734C815.866,-498.208 793.1,-480.379 776.804,-467.617"/>
<polygon fill="midnightblue" stroke="midnightblue" points="778.547,-464.537 768.516,-461.127 774.231,-470.049 778.547,-464.537"/>
</g>
<!-- Node36&#45;&gt;Node4 -->
<g id="edge47" class="edge"><title>Node36&#45;&gt;Node4</title>
<path fill="none" stroke="midnightblue" d="M767.668,-441.996C778.515,-432.551 795.723,-416.453 807.5,-400 832.99,-364.388 853.563,-316.937 863.683,-291.47"/>
<polygon fill="midnightblue" stroke="midnightblue" points="867.003,-292.589 867.364,-282 860.479,-290.053 867.003,-292.589"/>
</g>
<!-- Node36&#45;&gt;Node16 -->
<g id="edge48" class="edge"><title>Node36&#45;&gt;Node16</title>
<path fill="none" stroke="midnightblue" d="M756.354,-441.975C755.225,-433.58 753.464,-420.481 752.009,-409.663"/>
<polygon fill="midnightblue" stroke="midnightblue" points="755.445,-408.953 750.644,-399.509 748.508,-409.886 755.445,-408.953"/>
</g>
<!-- Node38 -->
<g id="node38" class="node"><title>Node38</title>
<polygon fill="white" stroke="#bfbfbf" points="385.5,-503.5 385.5,-533.5 495.5,-533.5 495.5,-503.5 385.5,-503.5"/>
<text text-anchor="start" x="393.5" y="-521.5" font-family="Helvetica,sans-Serif" font-size="10.00">boost/range/algorithm</text>
<text text-anchor="middle" x="440.5" y="-510.5" font-family="Helvetica,sans-Serif" font-size="10.00">/unique.hpp</text>
</g>
<!-- Node37&#45;&gt;Node38 -->
<g id="edge50" class="edge"><title>Node37&#45;&gt;Node38</title>
<path fill="none" stroke="midnightblue" d="M495.869,-575.734C487.136,-566.865 473.299,-552.811 461.642,-540.972"/>
<polygon fill="midnightblue" stroke="midnightblue" points="463.882,-538.259 454.372,-533.589 458.894,-543.17 463.882,-538.259"/>
</g>
<!-- Node39 -->
<g id="node39" class="node"><title>Node39</title>
<polygon fill="white" stroke="#bfbfbf" points="513.5,-503.5 513.5,-533.5 623.5,-533.5 623.5,-503.5 513.5,-503.5"/>
<text text-anchor="start" x="521.5" y="-521.5" font-family="Helvetica,sans-Serif" font-size="10.00">boost/range/algorithm</text>
<text text-anchor="middle" x="568.5" y="-510.5" font-family="Helvetica,sans-Serif" font-size="10.00">_ext/erase.hpp</text>
</g>
<!-- Node37&#45;&gt;Node39 -->
<g id="edge51" class="edge"><title>Node37&#45;&gt;Node39</title>
<path fill="none" stroke="midnightblue" d="M513.131,-575.734C521.864,-566.865 535.701,-552.811 547.358,-540.972"/>
<polygon fill="midnightblue" stroke="midnightblue" points="550.106,-543.17 554.628,-533.589 545.118,-538.259 550.106,-543.17"/>
</g>
<!-- Node40 -->
<g id="node40" class="node"><title>Node40</title>
<g id="a_node40"><a xlink:href="ClusterSequence_8hh.html" target="_top" xlink:title="boca/fastjet/ClusterSequence.hh">
<polygon fill="white" stroke="black" points="125,-324.5 125,-343.5 284,-343.5 284,-324.5 125,-324.5"/>
<text text-anchor="middle" x="204.5" y="-331.5" font-family="Helvetica,sans-Serif" font-size="10.00">boca/fastjet/ClusterSequence.hh</text>
</a>
</g>
</g>
<!-- Node37&#45;&gt;Node40 -->
<g id="edge52" class="edge"><title>Node37&#45;&gt;Node40</title>
<path fill="none" stroke="midnightblue" d="M434.452,-581.426C360.354,-576.595 250.352,-564.387 222.5,-534 176.206,-483.493 190.63,-392.471 199.639,-353.511"/>
<polygon fill="midnightblue" stroke="midnightblue" points="203.09,-354.132 202.085,-343.585 196.294,-352.457 203.09,-354.132"/>
</g>
<!-- Node41 -->
<g id="node41" class="node"><title>Node41</title>
<g id="a_node41"><a xlink:href="generic_2Vector_8hh.html" target="_top" xlink:title="boca/generic/Vector.hh">
<polygon fill="white" stroke="red" points="642,-509 642,-528 759,-528 759,-509 642,-509"/>
<text text-anchor="middle" x="700.5" y="-516" font-family="Helvetica,sans-Serif" font-size="10.00">boca/generic/Vector.hh</text>
</a>
</g>
</g>
<!-- Node37&#45;&gt;Node41 -->
<g id="edge55" class="edge"><title>Node37&#45;&gt;Node41</title>
<path fill="none" stroke="midnightblue" d="M530.527,-575.869C565.035,-564.424 626.078,-544.181 664.851,-531.322"/>
<polygon fill="midnightblue" stroke="midnightblue" points="666.287,-534.534 674.677,-528.064 664.084,-527.889 666.287,-534.534"/>
</g>
<!-- Node42 -->
<g id="node42" class="node"><title>Node42</title>
<g id="a_node42"><a xlink:href="Multiplet_8hh.html" target="_top" xlink:title="boca/multiplets/Multiplet.hh">
<polygon fill="white" stroke="red" points="231.5,-509 231.5,-528 367.5,-528 367.5,-509 231.5,-509"/>
<text text-anchor="middle" x="299.5" y="-516" font-family="Helvetica,sans-Serif" font-size="10.00">boca/multiplets/Multiplet.hh</text>
</a>
</g>
</g>
<!-- Node37&#45;&gt;Node42 -->
<g id="edge56" class="edge"><title>Node37&#45;&gt;Node42</title>
<path fill="none" stroke="midnightblue" d="M477.278,-575.869C441.031,-564.376 376.795,-544.008 336.269,-531.159"/>
<polygon fill="midnightblue" stroke="midnightblue" points="337.099,-527.75 326.508,-528.064 334.983,-534.422 337.099,-527.75"/>
</g>
<!-- Node40&#45;&gt;Node20 -->
<g id="edge54" class="edge"><title>Node40&#45;&gt;Node20</title>
<path fill="none" stroke="midnightblue" d="M203.905,-324.132C202.288,-293.453 200.547,-190.043 244.5,-123 253.458,-109.336 268.149,-98.7181 281.399,-91.2364"/>
<polygon fill="midnightblue" stroke="midnightblue" points="283.047,-94.3245 290.254,-86.5589 279.777,-88.135 283.047,-94.3245"/>
</g>
<!-- Node40&#45;&gt;Node40 -->
<g id="edge53" class="edge"><title>Node40&#45;&gt;Node40</title>
<path fill="none" stroke="midnightblue" d="M245.83,-343.5C274.173,-346.327 302,-343.16 302,-334 302,-325.949 280.504,-322.528 256.055,-323.737"/>
<polygon fill="midnightblue" stroke="midnightblue" points="255.542,-320.265 245.83,-324.5 256.063,-327.246 255.542,-320.265"/>
</g>
<!-- Node42&#45;&gt;Node30 -->
<g id="edge58" class="edge"><title>Node42&#45;&gt;Node30</title>
<path fill="none" stroke="midnightblue" d="M343.174,-508.948C368.345,-501.825 398.64,-489.134 417.5,-467 431.117,-451.019 435.22,-426.675 436.332,-409.866"/>
<polygon fill="midnightblue" stroke="midnightblue" points="439.839,-409.748 436.704,-399.628 432.843,-409.494 439.839,-409.748"/>
</g>
<!-- Node42&#45;&gt;Node36 -->
<g id="edge57" class="edge"><title>Node42&#45;&gt;Node36</title>
<path fill="none" stroke="midnightblue" d="M342.596,-508.957C353.628,-506.888 365.486,-504.766 376.5,-503 482.585,-485.994 605.951,-470.402 682.889,-461.173"/>
<polygon fill="midnightblue" stroke="midnightblue" points="683.451,-464.631 692.965,-459.969 682.621,-457.68 683.451,-464.631"/>
</g>
<!-- Node44 -->
<g id="node44" class="node"><title>Node44</title>
<g id="a_node44"><a xlink:href="boca_2branch_2Event_8hh.html" target="_top" xlink:title="boca/branch/Event.hh">
<polygon fill="white" stroke="red" points="1446.5,-576 1446.5,-595 1558.5,-595 1558.5,-576 1446.5,-576"/>
<text text-anchor="middle" x="1502.5" y="-583" font-family="Helvetica,sans-Serif" font-size="10.00">boca/branch/Event.hh</text>
</a>
</g>
</g>
<!-- Node43&#45;&gt;Node44 -->
<g id="edge60" class="edge"><title>Node43&#45;&gt;Node44</title>
<path fill="none" stroke="midnightblue" d="M1432.42,-642.734C1445.54,-632.208 1467.76,-614.379 1483.66,-601.617"/>
<polygon fill="midnightblue" stroke="midnightblue" points="1486.14,-604.116 1491.75,-595.127 1481.76,-598.656 1486.14,-604.116"/>
</g>
<!-- Node46 -->
<g id="node46" class="node"><title>Node46</title>
<g id="a_node46"><a xlink:href="tagger_2TopLeptonic_8hh.html" target="_top" xlink:title="standardmodel/tagger\l/TopLeptonic.hh">
<polygon fill="white" stroke="red" points="1134.5,-570.5 1134.5,-600.5 1244.5,-600.5 1244.5,-570.5 1134.5,-570.5"/>
<text text-anchor="start" x="1142.5" y="-588.5" font-family="Helvetica,sans-Serif" font-size="10.00">standardmodel/tagger</text>
<text text-anchor="middle" x="1189.5" y="-577.5" font-family="Helvetica,sans-Serif" font-size="10.00">/TopLeptonic.hh</text>
</a>
</g>
</g>
<!-- Node45&#45;&gt;Node46 -->
<g id="edge62" class="edge"><title>Node45&#45;&gt;Node46</title>
<path fill="none" stroke="midnightblue" d="M1189.5,-637.396C1189.5,-629.645 1189.5,-619.812 1189.5,-610.86"/>
<polygon fill="midnightblue" stroke="midnightblue" points="1193,-610.576 1189.5,-600.577 1186,-610.577 1193,-610.576"/>
</g>
<!-- Node47 -->
<g id="node47" class="node"><title>Node47</title>
<g id="a_node47"><a xlink:href="tagger_2TopHadronic_8hh.html" target="_top" xlink:title="standardmodel/tagger\l/TopHadronic.hh">
<polygon fill="white" stroke="red" points="1325.5,-436.5 1325.5,-466.5 1435.5,-466.5 1435.5,-436.5 1325.5,-436.5"/>
<text text-anchor="start" x="1333.5" y="-454.5" font-family="Helvetica,sans-Serif" font-size="10.00">standardmodel/tagger</text>
<text text-anchor="middle" x="1380.5" y="-443.5" font-family="Helvetica,sans-Serif" font-size="10.00">/TopHadronic.hh</text>
</a>
</g>
</g>
<!-- Node45&#45;&gt;Node47 -->
<g id="edge63" class="edge"><title>Node45&#45;&gt;Node47</title>
<path fill="none" stroke="midnightblue" d="M1266.15,-643.017C1319.1,-635.394 1382.88,-622.095 1399.5,-601 1428.08,-564.739 1407.85,-507.305 1392.79,-475.538"/>
<polygon fill="midnightblue" stroke="midnightblue" points="1395.91,-473.962 1388.34,-466.554 1389.64,-477.069 1395.91,-473.962"/>
</g>
<!-- Node48 -->
<g id="node48" class="node"><title>Node48</title>
<g id="a_node48"><a xlink:href="Sextet_8hh.html" target="_top" xlink:title="boca/multiplets/Sextet.hh">
<polygon fill="white" stroke="red" points="1262.5,-576 1262.5,-595 1390.5,-595 1390.5,-576 1262.5,-576"/>
<text text-anchor="middle" x="1326.5" y="-583" font-family="Helvetica,sans-Serif" font-size="10.00">boca/multiplets/Sextet.hh</text>
</a>
</g>
</g>
<!-- Node45&#45;&gt;Node48 -->
<g id="edge65" class="edge"><title>Node45&#45;&gt;Node48</title>
<path fill="none" stroke="midnightblue" d="M1219.23,-637.396C1243.05,-626.092 1276.21,-610.361 1299.33,-599.39"/>
<polygon fill="midnightblue" stroke="midnightblue" points="1301.04,-602.456 1308.57,-595.007 1298.03,-596.131 1301.04,-602.456"/>
</g>
<!-- Node49 -->
<g id="node49" class="node"><title>Node49</title>
<g id="a_node49"><a xlink:href="branch_2HeavyHiggsSemi_8hh.html" target="_top" xlink:title="heavyhiggs/branch/HeavyHiggs\lSemi.hh">
<polygon fill="white" stroke="red" points="961,-570.5 961,-600.5 1116,-600.5 1116,-570.5 961,-570.5"/>
<text text-anchor="start" x="969" y="-588.5" font-family="Helvetica,sans-Serif" font-size="10.00">heavyhiggs/branch/HeavyHiggs</text>
<text text-anchor="middle" x="1038.5" y="-577.5" font-family="Helvetica,sans-Serif" font-size="10.00">Semi.hh</text>
</a>
</g>
</g>
<!-- Node45&#45;&gt;Node49 -->
<g id="edge66" class="edge"><title>Node45&#45;&gt;Node49</title>
<path fill="none" stroke="midnightblue" d="M1156.74,-637.396C1134.38,-627.771 1104.56,-614.936 1080.46,-604.564"/>
<polygon fill="midnightblue" stroke="midnightblue" points="1081.77,-601.316 1071.2,-600.577 1079,-607.745 1081.77,-601.316"/>
</g>
<!-- Node47&#45;&gt;Node5 -->
<g id="edge64" class="edge"><title>Node47&#45;&gt;Node5</title>
<path fill="none" stroke="midnightblue" d="M1350.88,-436.327C1259.89,-392.794 985.331,-261.439 897.697,-219.512"/>
<polygon fill="midnightblue" stroke="midnightblue" points="898.95,-216.232 888.419,-215.073 895.929,-222.546 898.95,-216.232"/>
</g>
<!-- Node50&#45;&gt;Node6 -->
<g id="edge68" class="edge"><title>Node50&#45;&gt;Node6</title>
<path fill="none" stroke="midnightblue" d="M1470.34,-704.481C1516.86,-685.609 1586.5,-647.216 1586.5,-586.5 1586.5,-586.5 1586.5,-586.5 1586.5,-333 1586.5,-223.53 1205.08,-208.088 1045.45,-206.419"/>
<polygon fill="midnightblue" stroke="midnightblue" points="1045.3,-202.917 1035.27,-206.328 1045.23,-209.917 1045.3,-202.917"/>
</g>
</g>
</svg>
