<?xml version="1.0" encoding="UTF-8" standalone="no"?>
<!DOCTYPE svg PUBLIC "-//W3C//DTD SVG 1.1//EN"
 "http://www.w3.org/Graphics/SVG/1.1/DTD/svg11.dtd">
<!-- Generated by graphviz version 2.38.0 (20140413.2041)
 -->
<!-- Title: examples/standardmodel/source/tagger/TopLeptonic.cpp Pages: 1 -->
<svg width="1904pt" height="620pt"
 viewBox="0.00 0.00 1903.50 620.00" xmlns="http://www.w3.org/2000/svg" xmlns:xlink="http://www.w3.org/1999/xlink">
<g id="graph0" class="graph" transform="scale(1 1) rotate(0) translate(4 616)">
<title>examples/standardmodel/source/tagger/TopLeptonic.cpp</title>
<polygon fill="white" stroke="none" points="-4,4 -4,-616 1899.5,-616 1899.5,4 -4,4"/>
<!-- Node1 -->
<g id="node1" class="node"><title>Node1</title>
<polygon fill="#bfbfbf" stroke="black" points="232.5,-581.5 232.5,-611.5 386.5,-611.5 386.5,-581.5 232.5,-581.5"/>
<text text-anchor="start" x="240.5" y="-599.5" font-family="Helvetica,sans-Serif" font-size="10.00">examples/standardmodel</text>
<text text-anchor="middle" x="309.5" y="-588.5" font-family="Helvetica,sans-Serif" font-size="10.00">/source/tagger/TopLeptonic.cpp</text>
</g>
<!-- Node2 -->
<g id="node2" class="node"><title>Node2</title>
<g id="a_node2"><a xlink:href="Exception_8hh.html" target="_top" xlink:title="boca/generic/Exception.hh">
<polygon fill="white" stroke="black" points="21.5,-520 21.5,-539 153.5,-539 153.5,-520 21.5,-520"/>
<text text-anchor="middle" x="87.5" y="-527" font-family="Helvetica,sans-Serif" font-size="10.00">boca/generic/Exception.hh</text>
</a>
</g>
</g>
<!-- Node1&#45;&gt;Node2 -->
<g id="edge1" class="edge"><title>Node1&#45;&gt;Node2</title>
<path fill="none" stroke="midnightblue" d="M261.603,-581.476C221.29,-569.673 164.349,-553.001 126.705,-541.979"/>
<polygon fill="midnightblue" stroke="midnightblue" points="127.209,-538.48 116.629,-539.029 125.242,-545.198 127.209,-538.48"/>
</g>
<!-- Node5 -->
<g id="node5" class="node"><title>Node5</title>
<g id="a_node5"><a xlink:href="Particles_8hh.html" target="_top" xlink:title="boca/fastjet/Particles.hh">
<polygon fill="white" stroke="black" points="115.5,-386 115.5,-405 237.5,-405 237.5,-386 115.5,-386"/>
<text text-anchor="middle" x="176.5" y="-393" font-family="Helvetica,sans-Serif" font-size="10.00">boca/fastjet/Particles.hh</text>
</a>
</g>
</g>
<!-- Node1&#45;&gt;Node5 -->
<g id="edge4" class="edge"><title>Node1&#45;&gt;Node5</title>
<path fill="none" stroke="midnightblue" d="M299.935,-581.188C276.105,-545.532 214.144,-452.824 188.197,-414.002"/>
<polygon fill="midnightblue" stroke="midnightblue" points="190.888,-411.729 182.422,-405.36 185.068,-415.619 190.888,-411.729"/>
</g>
<!-- Node17 -->
<g id="node17" class="node"><title>Node17</title>
<g id="a_node17"><a xlink:href="tagger_2TopLeptonic_8hh.html" target="_top" xlink:title="standardmodel/tagger\l/TopLeptonic.hh">
<polygon fill="white" stroke="black" points="1085.5,-514.5 1085.5,-544.5 1195.5,-544.5 1195.5,-514.5 1085.5,-514.5"/>
<text text-anchor="start" x="1093.5" y="-532.5" font-family="Helvetica,sans-Serif" font-size="10.00">standardmodel/tagger</text>
<text text-anchor="middle" x="1140.5" y="-521.5" font-family="Helvetica,sans-Serif" font-size="10.00">/TopLeptonic.hh</text>
</a>
</g>
</g>
<!-- Node1&#45;&gt;Node17 -->
<g id="edge21" class="edge"><title>Node1&#45;&gt;Node17</title>
<path fill="none" stroke="midnightblue" d="M386.56,-589.472C549.003,-576.766 924.042,-547.431 1075.4,-535.592"/>
<polygon fill="midnightblue" stroke="midnightblue" points="1075.78,-539.073 1085.48,-534.804 1075.23,-532.095 1075.78,-539.073"/>
</g>
<!-- Node27 -->
<g id="node27" class="node"><title>Node27</title>
<g id="a_node27"><a xlink:href="boca_2event_2Event_8hh.html" target="_top" xlink:title="boca/event/Event.hh">
<polygon fill="white" stroke="black" points="256,-386 256,-405 363,-405 363,-386 256,-386"/>
<text text-anchor="middle" x="309.5" y="-393" font-family="Helvetica,sans-Serif" font-size="10.00">boca/event/Event.hh</text>
</a>
</g>
</g>
<!-- Node1&#45;&gt;Node27 -->
<g id="edge71" class="edge"><title>Node1&#45;&gt;Node27</title>
<path fill="none" stroke="midnightblue" d="M309.5,-581.188C309.5,-545.986 309.5,-455.172 309.5,-415.508"/>
<polygon fill="midnightblue" stroke="midnightblue" points="313,-415.36 309.5,-405.36 306,-415.36 313,-415.36"/>
</g>
<!-- Node50 -->
<g id="node50" class="node"><title>Node50</title>
<g id="a_node50"><a xlink:href="DEBUG__MACROS_8hh.html" target="_top" xlink:title="boca/generic/DEBUG\l_MACROS.hh">
<polygon fill="white" stroke="black" points="1547,-514.5 1547,-544.5 1658,-544.5 1658,-514.5 1547,-514.5"/>
<text text-anchor="start" x="1555" y="-532.5" font-family="Helvetica,sans-Serif" font-size="10.00">boca/generic/DEBUG</text>
<text text-anchor="middle" x="1602.5" y="-521.5" font-family="Helvetica,sans-Serif" font-size="10.00">_MACROS.hh</text>
</a>
</g>
</g>
<!-- Node1&#45;&gt;Node50 -->
<g id="edge72" class="edge"><title>Node1&#45;&gt;Node50</title>
<path fill="none" stroke="midnightblue" d="M386.511,-591.629C620.249,-579.878 1318.83,-544.76 1536.8,-533.803"/>
<polygon fill="midnightblue" stroke="midnightblue" points="1537,-537.297 1546.81,-533.3 1536.65,-530.306 1537,-537.297"/>
</g>
<!-- Node3 -->
<g id="node3" class="node"><title>Node3</title>
<polygon fill="white" stroke="#bfbfbf" points="0,-453 0,-472 59,-472 59,-453 0,-453"/>
<text text-anchor="middle" x="29.5" y="-460" font-family="Helvetica,sans-Serif" font-size="10.00">stdexcept</text>
</g>
<!-- Node2&#45;&gt;Node3 -->
<g id="edge2" class="edge"><title>Node2&#45;&gt;Node3</title>
<path fill="none" stroke="midnightblue" d="M79.6779,-519.734C70.5465,-509.5 55.2557,-492.364 43.9486,-479.692"/>
<polygon fill="midnightblue" stroke="midnightblue" points="46.4676,-477.258 37.1982,-472.127 41.2446,-481.919 46.4676,-477.258"/>
</g>
<!-- Node4 -->
<g id="node4" class="node"><title>Node4</title>
<polygon fill="white" stroke="#bfbfbf" points="399,-62 399,-81 440,-81 440,-62 399,-62"/>
<text text-anchor="middle" x="419.5" y="-69" font-family="Helvetica,sans-Serif" font-size="10.00">string</text>
</g>
<!-- Node2&#45;&gt;Node4 -->
<g id="edge3" class="edge"><title>Node2&#45;&gt;Node4</title>
<path fill="none" stroke="midnightblue" d="M87.5,-519.851C87.5,-498.764 87.5,-443.021 87.5,-396.5 87.5,-396.5 87.5,-396.5 87.5,-204.5 87.5,-140.026 306.435,-93.2192 388.728,-77.9028"/>
<polygon fill="midnightblue" stroke="midnightblue" points="389.526,-81.315 398.732,-76.0714 388.265,-74.4295 389.526,-81.315"/>
</g>
<!-- Node6 -->
<g id="node6" class="node"><title>Node6</title>
<g id="a_node6"><a xlink:href="fastjet_2Particle_8hh.html" target="_top" xlink:title="boca/fastjet/Particle.hh">
<polygon fill="white" stroke="black" points="205,-319 205,-338 322,-338 322,-319 205,-319"/>
<text text-anchor="middle" x="263.5" y="-326" font-family="Helvetica,sans-Serif" font-size="10.00">boca/fastjet/Particle.hh</text>
</a>
</g>
</g>
<!-- Node5&#45;&gt;Node6 -->
<g id="edge5" class="edge"><title>Node5&#45;&gt;Node6</title>
<path fill="none" stroke="midnightblue" d="M188.233,-385.734C202.452,-375.111 226.627,-357.049 243.739,-344.264"/>
<polygon fill="midnightblue" stroke="midnightblue" points="246.036,-346.916 251.953,-338.127 241.847,-341.309 246.036,-346.916"/>
</g>
<!-- Node15 -->
<g id="node15" class="node"><title>Node15</title>
<g id="a_node15"><a xlink:href="Id_8hh.html" target="_top" xlink:title="boca/identification\l/Id.hh">
<polygon fill="white" stroke="black" points="372,-123.5 372,-153.5 467,-153.5 467,-123.5 372,-123.5"/>
<text text-anchor="start" x="380" y="-141.5" font-family="Helvetica,sans-Serif" font-size="10.00">boca/identification</text>
<text text-anchor="middle" x="419.5" y="-130.5" font-family="Helvetica,sans-Serif" font-size="10.00">/Id.hh</text>
</a>
</g>
</g>
<!-- Node5&#45;&gt;Node15 -->
<g id="edge20" class="edge"><title>Node5&#45;&gt;Node15</title>
<path fill="none" stroke="midnightblue" d="M175.17,-385.802C172.099,-362.525 166.821,-297.815 195.5,-257 234.992,-200.797 309.851,-169.408 362.114,-153.493"/>
<polygon fill="midnightblue" stroke="midnightblue" points="363.317,-156.787 371.921,-150.606 361.34,-150.072 363.317,-156.787"/>
</g>
<!-- Node7 -->
<g id="node7" class="node"><title>Node7</title>
<g id="a_node7"><a xlink:href="PseudoJet_8hh.html" target="_top" xlink:title="boca/fastjet/PseudoJet.hh">
<polygon fill="white" stroke="black" points="557,-196 557,-215 688,-215 688,-196 557,-196"/>
<text text-anchor="middle" x="622.5" y="-203" font-family="Helvetica,sans-Serif" font-size="10.00">boca/fastjet/PseudoJet.hh</text>
</a>
</g>
</g>
<!-- Node6&#45;&gt;Node7 -->
<g id="edge6" class="edge"><title>Node6&#45;&gt;Node7</title>
<path fill="none" stroke="midnightblue" d="M277.709,-318.952C307.397,-301.142 374.197,-261.345 385.5,-257 437.65,-236.955 499.474,-224.117 546.9,-216.403"/>
<polygon fill="midnightblue" stroke="midnightblue" points="547.464,-219.857 556.793,-214.834 546.368,-212.943 547.464,-219.857"/>
</g>
<!-- Node13 -->
<g id="node13" class="node"><title>Node13</title>
<g id="a_node13"><a xlink:href="ParticleInfo_8hh.html" target="_top" xlink:title="boca/fastjet/ParticleInfo.hh">
<polygon fill="white" stroke="black" points="204.5,-257.5 204.5,-276.5 338.5,-276.5 338.5,-257.5 204.5,-257.5"/>
<text text-anchor="middle" x="271.5" y="-264.5" font-family="Helvetica,sans-Serif" font-size="10.00">boca/fastjet/ParticleInfo.hh</text>
</a>
</g>
</g>
<!-- Node6&#45;&gt;Node13 -->
<g id="edge13" class="edge"><title>Node6&#45;&gt;Node13</title>
<path fill="none" stroke="midnightblue" d="M264.646,-318.975C265.775,-310.58 267.536,-297.481 268.991,-286.663"/>
<polygon fill="midnightblue" stroke="midnightblue" points="272.492,-286.886 270.356,-276.509 265.555,-285.953 272.492,-286.886"/>
</g>
<!-- Node7&#45;&gt;Node7 -->
<g id="edge8" class="edge"><title>Node7&#45;&gt;Node7</title>
<path fill="none" stroke="midnightblue" d="M653.331,-215.033C679.087,-219.107 706,-215.93 706,-205.5 706,-196.415 685.579,-192.832 663.289,-194.753"/>
<polygon fill="midnightblue" stroke="midnightblue" points="662.834,-191.282 653.331,-195.967 663.681,-198.231 662.834,-191.282"/>
</g>
<!-- Node8 -->
<g id="node8" class="node"><title>Node8</title>
<polygon fill="white" stroke="#bfbfbf" points="525,-129 525,-148 628,-148 628,-129 525,-129"/>
<text text-anchor="middle" x="576.5" y="-136" font-family="Helvetica,sans-Serif" font-size="10.00">boost/operators.hpp</text>
</g>
<!-- Node7&#45;&gt;Node8 -->
<g id="edge7" class="edge"><title>Node7&#45;&gt;Node8</title>
<path fill="none" stroke="midnightblue" d="M616.296,-195.734C609.192,-185.695 597.387,-169.014 588.475,-156.421"/>
<polygon fill="midnightblue" stroke="midnightblue" points="591.239,-154.268 582.605,-148.127 585.525,-158.312 591.239,-154.268"/>
</g>
<!-- Node9 -->
<g id="node9" class="node"><title>Node9</title>
<g id="a_node9"><a xlink:href="Prefixes_8hh.html" target="_top" xlink:title="boca/units/Prefixes.hh">
<polygon fill="white" stroke="red" points="646.5,-129 646.5,-148 760.5,-148 760.5,-129 646.5,-129"/>
<text text-anchor="middle" x="703.5" y="-136" font-family="Helvetica,sans-Serif" font-size="10.00">boca/units/Prefixes.hh</text>
</a>
</g>
</g>
<!-- Node7&#45;&gt;Node9 -->
<g id="edge9" class="edge"><title>Node7&#45;&gt;Node9</title>
<path fill="none" stroke="midnightblue" d="M633.424,-195.734C646.541,-185.208 668.758,-167.379 684.661,-154.617"/>
<polygon fill="midnightblue" stroke="midnightblue" points="687.14,-157.116 692.749,-148.127 682.759,-151.656 687.14,-157.116"/>
</g>
<!-- Node10 -->
<g id="node10" class="node"><title>Node10</title>
<g id="a_node10"><a xlink:href="ElectronVolt_8hh.html" target="_top" xlink:title="boca/units/ElectronVolt.hh">
<polygon fill="white" stroke="red" points="533,-62 533,-81 664,-81 664,-62 533,-62"/>
<text text-anchor="middle" x="598.5" y="-69" font-family="Helvetica,sans-Serif" font-size="10.00">boca/units/ElectronVolt.hh</text>
</a>
</g>
</g>
<!-- Node9&#45;&gt;Node10 -->
<g id="edge10" class="edge"><title>Node9&#45;&gt;Node10</title>
<path fill="none" stroke="midnightblue" d="M689.339,-128.734C671.785,-117.867 641.657,-99.2161 620.943,-86.3931"/>
<polygon fill="midnightblue" stroke="midnightblue" points="622.781,-83.415 612.436,-81.1273 619.097,-89.3668 622.781,-83.415"/>
</g>
<!-- Node11 -->
<g id="node11" class="node"><title>Node11</title>
<polygon fill="white" stroke="#bfbfbf" points="440,-0.5 440,-19.5 597,-19.5 597,-0.5 440,-0.5"/>
<text text-anchor="middle" x="518.5" y="-7.5" font-family="Helvetica,sans-Serif" font-size="10.00">boost/units/base_dimension.hpp</text>
</g>
<!-- Node10&#45;&gt;Node11 -->
<g id="edge11" class="edge"><title>Node10&#45;&gt;Node11</title>
<path fill="none" stroke="midnightblue" d="M587.038,-61.9751C574.325,-52.5199 553.587,-37.0961 538.247,-25.6871"/>
<polygon fill="midnightblue" stroke="midnightblue" points="540.054,-22.6686 529.941,-19.5091 535.876,-28.2854 540.054,-22.6686"/>
</g>
<!-- Node12 -->
<g id="node12" class="node"><title>Node12</title>
<polygon fill="white" stroke="#bfbfbf" points="615.5,-0.5 615.5,-19.5 743.5,-19.5 743.5,-0.5 615.5,-0.5"/>
<text text-anchor="middle" x="679.5" y="-7.5" font-family="Helvetica,sans-Serif" font-size="10.00">boost/units/base_unit.hpp</text>
</g>
<!-- Node10&#45;&gt;Node12 -->
<g id="edge12" class="edge"><title>Node10&#45;&gt;Node12</title>
<path fill="none" stroke="midnightblue" d="M610.105,-61.9751C622.977,-52.5199 643.974,-37.0961 659.506,-25.6871"/>
<polygon fill="midnightblue" stroke="midnightblue" points="661.929,-28.25 667.916,-19.5091 657.785,-22.6085 661.929,-28.25"/>
</g>
<!-- Node13&#45;&gt;Node7 -->
<g id="edge14" class="edge"><title>Node13&#45;&gt;Node7</title>
<path fill="none" stroke="midnightblue" d="M321.79,-257.475C385.257,-246.716 494.309,-228.23 562.187,-216.724"/>
<polygon fill="midnightblue" stroke="midnightblue" points="563.029,-220.131 572.304,-215.009 561.859,-213.23 563.029,-220.131"/>
</g>
<!-- Node14 -->
<g id="node14" class="node"><title>Node14</title>
<g id="a_node14"><a xlink:href="Family_8hh.html" target="_top" xlink:title="boca/identification\l/Family.hh">
<polygon fill="white" stroke="red" points="333,-190.5 333,-220.5 428,-220.5 428,-190.5 333,-190.5"/>
<text text-anchor="start" x="341" y="-208.5" font-family="Helvetica,sans-Serif" font-size="10.00">boca/identification</text>
<text text-anchor="middle" x="380.5" y="-197.5" font-family="Helvetica,sans-Serif" font-size="10.00">/Family.hh</text>
</a>
</g>
</g>
<!-- Node13&#45;&gt;Node14 -->
<g id="edge15" class="edge"><title>Node13&#45;&gt;Node14</title>
<path fill="none" stroke="midnightblue" d="M287.117,-257.475C302.362,-249.153 326.078,-236.207 345.794,-225.445"/>
<polygon fill="midnightblue" stroke="midnightblue" points="347.71,-228.386 354.811,-220.523 344.356,-222.242 347.71,-228.386"/>
</g>
<!-- Node14&#45;&gt;Node15 -->
<g id="edge16" class="edge"><title>Node14&#45;&gt;Node15</title>
<path fill="none" stroke="midnightblue" d="M388.962,-190.396C393.869,-182.219 400.165,-171.725 405.764,-162.393"/>
<polygon fill="midnightblue" stroke="midnightblue" points="408.91,-163.952 411.054,-153.577 402.908,-160.351 408.91,-163.952"/>
</g>
<!-- Node15&#45;&gt;Node4 -->
<g id="edge17" class="edge"><title>Node15&#45;&gt;Node4</title>
<path fill="none" stroke="midnightblue" d="M419.5,-123.396C419.5,-114.064 419.5,-101.714 419.5,-91.5173"/>
<polygon fill="midnightblue" stroke="midnightblue" points="423,-91.1945 419.5,-81.1945 416,-91.1946 423,-91.1945"/>
</g>
<!-- Node15&#45;&gt;Node10 -->
<g id="edge19" class="edge"><title>Node15&#45;&gt;Node10</title>
<path fill="none" stroke="midnightblue" d="M458.34,-123.396C490.304,-111.789 535.121,-95.5147 565.401,-84.5192"/>
<polygon fill="midnightblue" stroke="midnightblue" points="566.868,-87.7101 575.073,-81.007 564.479,-81.1305 566.868,-87.7101"/>
</g>
<!-- Node16 -->
<g id="node16" class="node"><title>Node16</title>
<polygon fill="white" stroke="#bfbfbf" points="750.5,-62 750.5,-81 794.5,-81 794.5,-62 750.5,-62"/>
<text text-anchor="middle" x="772.5" y="-69" font-family="Helvetica,sans-Serif" font-size="10.00">vector</text>
</g>
<!-- Node15&#45;&gt;Node16 -->
<g id="edge18" class="edge"><title>Node15&#45;&gt;Node16</title>
<path fill="none" stroke="midnightblue" d="M467.107,-128.734C540.046,-115.303 677.557,-89.9825 740.083,-78.4692"/>
<polygon fill="midnightblue" stroke="midnightblue" points="740.954,-81.8677 750.155,-76.6146 739.686,-74.9834 740.954,-81.8677"/>
</g>
<!-- Node18 -->
<g id="node18" class="node"><title>Node18</title>
<g id="a_node18"><a xlink:href="Triplet_8hh.html" target="_top" xlink:title="boca/multiplets/Triplet.hh">
<polygon fill="white" stroke="black" points="1448.5,-453 1448.5,-472 1574.5,-472 1574.5,-453 1448.5,-453"/>
<text text-anchor="middle" x="1511.5" y="-460" font-family="Helvetica,sans-Serif" font-size="10.00">boca/multiplets/Triplet.hh</text>
</a>
</g>
</g>
<!-- Node17&#45;&gt;Node18 -->
<g id="edge22" class="edge"><title>Node17&#45;&gt;Node18</title>
<path fill="none" stroke="midnightblue" d="M1195.64,-518.839C1264.61,-506.755 1382.21,-486.153 1452.8,-473.784"/>
<polygon fill="midnightblue" stroke="midnightblue" points="1453.62,-477.194 1462.87,-472.021 1452.41,-470.299 1453.62,-477.194"/>
</g>
<!-- Node21 -->
<g id="node21" class="node"><title>Node21</title>
<g id="a_node21"><a xlink:href="Reader_8hh.html" target="_top" xlink:title="boca/multivariant/Reader.hh">
<polygon fill="white" stroke="black" points="532,-453 532,-472 671,-472 671,-453 532,-453"/>
<text text-anchor="middle" x="601.5" y="-460" font-family="Helvetica,sans-Serif" font-size="10.00">boca/multivariant/Reader.hh</text>
</a>
</g>
</g>
<!-- Node17&#45;&gt;Node21 -->
<g id="edge25" class="edge"><title>Node17&#45;&gt;Node21</title>
<path fill="none" stroke="midnightblue" d="M1085.35,-521.849C989.603,-510.303 792.273,-486.506 681.478,-473.145"/>
<polygon fill="midnightblue" stroke="midnightblue" points="681.708,-469.647 671.361,-471.925 680.87,-476.597 681.708,-469.647"/>
</g>
<!-- Node40 -->
<g id="node40" class="node"><title>Node40</title>
<g id="a_node40"><a xlink:href="tagger_2Bottom_8hh.html" target="_top" xlink:title="standardmodel/tagger\l/Bottom.hh">
<polygon fill="white" stroke="black" points="1044.5,-447.5 1044.5,-477.5 1154.5,-477.5 1154.5,-447.5 1044.5,-447.5"/>
<text text-anchor="start" x="1052.5" y="-465.5" font-family="Helvetica,sans-Serif" font-size="10.00">standardmodel/tagger</text>
<text text-anchor="middle" x="1099.5" y="-454.5" font-family="Helvetica,sans-Serif" font-size="10.00">/Bottom.hh</text>
</a>
</g>
</g>
<!-- Node17&#45;&gt;Node40 -->
<g id="edge51" class="edge"><title>Node17&#45;&gt;Node40</title>
<path fill="none" stroke="midnightblue" d="M1131.6,-514.396C1126.39,-506.134 1119.69,-495.507 1113.76,-486.102"/>
<polygon fill="midnightblue" stroke="midnightblue" points="1116.67,-484.167 1108.38,-477.577 1110.75,-487.902 1116.67,-484.167"/>
</g>
<!-- Node46 -->
<g id="node46" class="node"><title>Node46</title>
<g id="a_node46"><a xlink:href="tagger_2WLeptonic_8hh.html" target="_top" xlink:title="standardmodel/tagger\l/WLeptonic.hh">
<polygon fill="white" stroke="black" points="1603.5,-447.5 1603.5,-477.5 1713.5,-477.5 1713.5,-447.5 1603.5,-447.5"/>
<text text-anchor="start" x="1611.5" y="-465.5" font-family="Helvetica,sans-Serif" font-size="10.00">standardmodel/tagger</text>
<text text-anchor="middle" x="1658.5" y="-454.5" font-family="Helvetica,sans-Serif" font-size="10.00">/WLeptonic.hh</text>
</a>
</g>
</g>
<!-- Node17&#45;&gt;Node46 -->
<g id="edge63" class="edge"><title>Node17&#45;&gt;Node46</title>
<path fill="none" stroke="midnightblue" d="M1195.59,-523.604C1279.54,-515.831 1444.44,-499.336 1583.5,-478 1586.71,-477.507 1590,-476.976 1593.31,-476.418"/>
<polygon fill="midnightblue" stroke="midnightblue" points="1594.04,-479.843 1603.29,-474.677 1592.84,-472.947 1594.04,-479.843"/>
</g>
<!-- Node49 -->
<g id="node49" class="node"><title>Node49</title>
<g id="a_node49"><a xlink:href="branch_2TopLeptonic_8hh.html" target="_top" xlink:title="standardmodel/branch\l/TopLeptonic.hh">
<polygon fill="white" stroke="black" points="1307,-380.5 1307,-410.5 1420,-410.5 1420,-380.5 1307,-380.5"/>
<text text-anchor="start" x="1315" y="-398.5" font-family="Helvetica,sans-Serif" font-size="10.00">standardmodel/branch</text>
<text text-anchor="middle" x="1363.5" y="-387.5" font-family="Helvetica,sans-Serif" font-size="10.00">/TopLeptonic.hh</text>
</a>
</g>
</g>
<!-- Node17&#45;&gt;Node49 -->
<g id="edge68" class="edge"><title>Node17&#45;&gt;Node49</title>
<path fill="none" stroke="midnightblue" d="M1164.36,-514.374C1204.52,-490.605 1285.64,-442.588 1330.97,-415.754"/>
<polygon fill="midnightblue" stroke="midnightblue" points="1332.98,-418.63 1339.81,-410.525 1329.42,-412.607 1332.98,-418.63"/>
</g>
<!-- Node19 -->
<g id="node19" class="node"><title>Node19</title>
<g id="a_node19"><a xlink:href="Doublet_8hh.html" target="_top" xlink:title="boca/multiplets/Doublet.hh">
<polygon fill="white" stroke="red" points="1603,-386 1603,-405 1736,-405 1736,-386 1603,-386"/>
<text text-anchor="middle" x="1669.5" y="-393" font-family="Helvetica,sans-Serif" font-size="10.00">boca/multiplets/Doublet.hh</text>
</a>
</g>
</g>
<!-- Node18&#45;&gt;Node19 -->
<g id="edge23" class="edge"><title>Node18&#45;&gt;Node19</title>
<path fill="none" stroke="midnightblue" d="M1532.48,-452.869C1559.75,-441.65 1607.57,-421.977 1638.89,-409.092"/>
<polygon fill="midnightblue" stroke="midnightblue" points="1640.52,-412.209 1648.43,-405.167 1637.85,-405.735 1640.52,-412.209"/>
</g>
<!-- Node20 -->
<g id="node20" class="node"><title>Node20</title>
<g id="a_node20"><a xlink:href="multiplets_2ThreeBody_8hh.html" target="_top" xlink:title="boca/multiplets/ThreeBody.hh">
<polygon fill="white" stroke="red" points="1438.5,-386 1438.5,-405 1584.5,-405 1584.5,-386 1438.5,-386"/>
<text text-anchor="middle" x="1511.5" y="-393" font-family="Helvetica,sans-Serif" font-size="10.00">boca/multiplets/ThreeBody.hh</text>
</a>
</g>
</g>
<!-- Node18&#45;&gt;Node20 -->
<g id="edge24" class="edge"><title>Node18&#45;&gt;Node20</title>
<path fill="none" stroke="midnightblue" d="M1511.5,-452.734C1511.5,-443.183 1511.5,-427.618 1511.5,-415.283"/>
<polygon fill="midnightblue" stroke="midnightblue" points="1515,-415.127 1511.5,-405.127 1508,-415.127 1515,-415.127"/>
</g>
<!-- Node22 -->
<g id="node22" class="node"><title>Node22</title>
<polygon fill="white" stroke="#bfbfbf" points="381,-386 381,-405 468,-405 468,-386 381,-386"/>
<text text-anchor="middle" x="424.5" y="-393" font-family="Helvetica,sans-Serif" font-size="10.00">TMVA/Reader.h</text>
</g>
<!-- Node21&#45;&gt;Node22 -->
<g id="edge26" class="edge"><title>Node21&#45;&gt;Node22</title>
<path fill="none" stroke="midnightblue" d="M577.996,-452.869C547.098,-441.522 492.644,-421.525 457.591,-408.652"/>
<polygon fill="midnightblue" stroke="midnightblue" points="458.413,-405.225 447.82,-405.064 456,-411.796 458.413,-405.225"/>
</g>
<!-- Node23 -->
<g id="node23" class="node"><title>Node23</title>
<g id="a_node23"><a xlink:href="Options_8hh.html" target="_top" xlink:title="boca/generic/Options.hh">
<polygon fill="white" stroke="black" points="474.5,-257.5 474.5,-276.5 596.5,-276.5 596.5,-257.5 474.5,-257.5"/>
<text text-anchor="middle" x="535.5" y="-264.5" font-family="Helvetica,sans-Serif" font-size="10.00">boca/generic/Options.hh</text>
</a>
</g>
</g>
<!-- Node21&#45;&gt;Node23 -->
<g id="edge27" class="edge"><title>Node21&#45;&gt;Node23</title>
<path fill="none" stroke="midnightblue" d="M608.61,-452.914C620.028,-438.035 640.227,-406.506 630.5,-380 615.401,-338.856 577.748,-302.47 554.636,-283.002"/>
<polygon fill="midnightblue" stroke="midnightblue" points="556.801,-280.25 546.848,-276.617 552.363,-285.664 556.801,-280.25"/>
</g>
<!-- Node25 -->
<g id="node25" class="node"><title>Node25</title>
<g id="a_node25"><a xlink:href="Phase_8hh.html" target="_top" xlink:title="boca/multivariant/Phase.hh">
<polygon fill="white" stroke="red" points="486,-386 486,-405 621,-405 621,-386 486,-386"/>
<text text-anchor="middle" x="553.5" y="-393" font-family="Helvetica,sans-Serif" font-size="10.00">boca/multivariant/Phase.hh</text>
</a>
</g>
</g>
<!-- Node21&#45;&gt;Node25 -->
<g id="edge29" class="edge"><title>Node21&#45;&gt;Node25</title>
<path fill="none" stroke="midnightblue" d="M595.027,-452.734C587.613,-442.695 575.295,-426.014 565.996,-413.421"/>
<polygon fill="midnightblue" stroke="midnightblue" points="568.627,-411.092 559.871,-405.127 562.996,-415.251 568.627,-411.092"/>
</g>
<!-- Node26 -->
<g id="node26" class="node"><title>Node26</title>
<g id="a_node26"><a xlink:href="PreCuts_8hh.html" target="_top" xlink:title="boca/identification\l/PreCuts.hh">
<polygon fill="white" stroke="red" points="967,-313.5 967,-343.5 1062,-343.5 1062,-313.5 967,-313.5"/>
<text text-anchor="start" x="975" y="-331.5" font-family="Helvetica,sans-Serif" font-size="10.00">boca/identification</text>
<text text-anchor="middle" x="1014.5" y="-320.5" font-family="Helvetica,sans-Serif" font-size="10.00">/PreCuts.hh</text>
</a>
</g>
</g>
<!-- Node21&#45;&gt;Node26 -->
<g id="edge30" class="edge"><title>Node21&#45;&gt;Node26</title>
<path fill="none" stroke="midnightblue" d="M671.211,-461.808C771.405,-460.757 949.186,-452.834 995.5,-411 1011.27,-396.753 1015.22,-372.176 1015.71,-353.726"/>
<polygon fill="midnightblue" stroke="midnightblue" points="1019.21,-353.679 1015.66,-343.696 1012.21,-353.713 1019.21,-353.679"/>
</g>
<!-- Node21&#45;&gt;Node27 -->
<g id="edge31" class="edge"><title>Node21&#45;&gt;Node27</title>
<path fill="none" stroke="midnightblue" d="M561.986,-452.995C516.138,-443.087 438.282,-426.14 371.5,-411 366.376,-409.838 361.017,-408.608 355.688,-407.375"/>
<polygon fill="midnightblue" stroke="midnightblue" points="356.077,-403.872 345.544,-405.017 354.492,-410.69 356.077,-403.872"/>
</g>
<!-- Node24 -->
<g id="node24" class="node"><title>Node24</title>
<polygon fill="white" stroke="#bfbfbf" points="846.5,-62 846.5,-81 898.5,-81 898.5,-62 846.5,-62"/>
<text text-anchor="middle" x="872.5" y="-69" font-family="Helvetica,sans-Serif" font-size="10.00">sstream</text>
</g>
<!-- Node23&#45;&gt;Node24 -->
<g id="edge28" class="edge"><title>Node23&#45;&gt;Node24</title>
<path fill="none" stroke="midnightblue" d="M596.702,-258.652C632.933,-252.413 678.777,-241.123 715.5,-221 778.686,-186.376 835.424,-120.131 859.83,-89.1918"/>
<polygon fill="midnightblue" stroke="midnightblue" points="862.723,-91.1725 866.087,-81.126 857.192,-86.8817 862.723,-91.1725"/>
</g>
<!-- Node27&#45;&gt;Node6 -->
<g id="edge50" class="edge"><title>Node27&#45;&gt;Node6</title>
<path fill="none" stroke="midnightblue" d="M303.296,-385.734C296.192,-375.695 284.387,-359.014 275.475,-346.421"/>
<polygon fill="midnightblue" stroke="midnightblue" points="278.239,-344.268 269.605,-338.127 272.525,-348.312 278.239,-344.268"/>
</g>
<!-- Node28 -->
<g id="node28" class="node"><title>Node28</title>
<polygon fill="white" stroke="#bfbfbf" points="340,-319 340,-338 375,-338 375,-319 340,-319"/>
<text text-anchor="middle" x="357.5" y="-326" font-family="Helvetica,sans-Serif" font-size="10.00">map</text>
</g>
<!-- Node27&#45;&gt;Node28 -->
<g id="edge32" class="edge"><title>Node27&#45;&gt;Node28</title>
<path fill="none" stroke="midnightblue" d="M315.973,-385.734C323.387,-375.695 335.705,-359.014 345.004,-346.421"/>
<polygon fill="midnightblue" stroke="midnightblue" points="348.004,-348.251 351.129,-338.127 342.373,-344.092 348.004,-348.251"/>
</g>
<!-- Node29 -->
<g id="node29" class="node"><title>Node29</title>
<g id="a_node29"><a xlink:href="Mutable_8hh.html" target="_top" xlink:title="boca/generic/Mutable.hh">
<polygon fill="white" stroke="black" points="860,-196 860,-215 983,-215 983,-196 860,-196"/>
<text text-anchor="middle" x="921.5" y="-203" font-family="Helvetica,sans-Serif" font-size="10.00">boca/generic/Mutable.hh</text>
</a>
</g>
</g>
<!-- Node27&#45;&gt;Node29 -->
<g id="edge33" class="edge"><title>Node27&#45;&gt;Node29</title>
<path fill="none" stroke="midnightblue" d="M345.243,-385.931C447.127,-361.442 734.329,-291.955 775.5,-277 819.949,-260.854 868.939,-235.536 897.365,-220.039"/>
<polygon fill="midnightblue" stroke="midnightblue" points="899.107,-223.075 906.18,-215.187 895.732,-216.943 899.107,-223.075"/>
</g>
<!-- Node36 -->
<g id="node36" class="node"><title>Node36</title>
<g id="a_node36"><a xlink:href="Flag_8hh.html" target="_top" xlink:title="boca/generic/Flag.hh">
<polygon fill="white" stroke="black" points="393,-319 393,-338 500,-338 500,-319 393,-319"/>
<text text-anchor="middle" x="446.5" y="-326" font-family="Helvetica,sans-Serif" font-size="10.00">boca/generic/Flag.hh</text>
</a>
</g>
</g>
<!-- Node27&#45;&gt;Node36 -->
<g id="edge43" class="edge"><title>Node27&#45;&gt;Node36</title>
<path fill="none" stroke="midnightblue" d="M327.693,-385.869C351.03,-374.796 391.729,-355.486 418.894,-342.598"/>
<polygon fill="midnightblue" stroke="midnightblue" points="420.698,-345.616 428.232,-338.167 417.697,-339.292 420.698,-345.616"/>
</g>
<!-- Node38 -->
<g id="node38" class="node"><title>Node38</title>
<g id="a_node38"><a xlink:href="Jet_8hh.html" target="_top" xlink:title="boca/fastjet/Jet.hh">
<polygon fill="white" stroke="black" points="677.5,-319 677.5,-338 775.5,-338 775.5,-319 677.5,-319"/>
<text text-anchor="middle" x="726.5" y="-326" font-family="Helvetica,sans-Serif" font-size="10.00">boca/fastjet/Jet.hh</text>
</a>
</g>
</g>
<!-- Node27&#45;&gt;Node38 -->
<g id="edge45" class="edge"><title>Node27&#45;&gt;Node38</title>
<path fill="none" stroke="midnightblue" d="M343.495,-385.975C352.561,-383.86 362.373,-381.711 371.5,-380 483.566,-358.997 512.626,-360.101 625.5,-344 638.986,-342.076 653.483,-340 667.167,-338.036"/>
<polygon fill="midnightblue" stroke="midnightblue" points="668.042,-341.447 677.443,-336.561 667.047,-334.518 668.042,-341.447"/>
</g>
<!-- Node30 -->
<g id="node30" class="node"><title>Node30</title>
<polygon fill="white" stroke="#bfbfbf" points="860,-129 860,-148 919,-148 919,-129 860,-129"/>
<text text-anchor="middle" x="889.5" y="-136" font-family="Helvetica,sans-Serif" font-size="10.00">functional</text>
</g>
<!-- Node29&#45;&gt;Node30 -->
<g id="edge34" class="edge"><title>Node29&#45;&gt;Node30</title>
<path fill="none" stroke="midnightblue" d="M917.184,-195.734C912.338,-185.89 904.348,-169.66 898.194,-157.159"/>
<polygon fill="midnightblue" stroke="midnightblue" points="901.304,-155.553 893.747,-148.127 895.024,-158.645 901.304,-155.553"/>
</g>
<!-- Node31 -->
<g id="node31" class="node"><title>Node31</title>
<g id="a_node31"><a xlink:href="Debug_8hh.html" target="_top" xlink:title="boca/generic/Debug.hh">
<polygon fill="white" stroke="black" points="994,-129 994,-148 1111,-148 1111,-129 994,-129"/>
<text text-anchor="middle" x="1052.5" y="-136" font-family="Helvetica,sans-Serif" font-size="10.00">boca/generic/Debug.hh</text>
</a>
</g>
</g>
<!-- Node29&#45;&gt;Node31 -->
<g id="edge35" class="edge"><title>Node29&#45;&gt;Node31</title>
<path fill="none" stroke="midnightblue" d="M938.896,-195.869C961.113,-184.845 999.787,-165.655 1025.76,-152.768"/>
<polygon fill="midnightblue" stroke="midnightblue" points="1027.63,-155.747 1035.03,-148.167 1024.52,-149.477 1027.63,-155.747"/>
</g>
<!-- Node35 -->
<g id="node35" class="node"><title>Node35</title>
<polygon fill="white" stroke="#bfbfbf" points="937.5,-129 937.5,-148 975.5,-148 975.5,-129 937.5,-129"/>
<text text-anchor="middle" x="956.5" y="-136" font-family="Helvetica,sans-Serif" font-size="10.00">array</text>
</g>
<!-- Node29&#45;&gt;Node35 -->
<g id="edge42" class="edge"><title>Node29&#45;&gt;Node35</title>
<path fill="none" stroke="midnightblue" d="M926.22,-195.734C931.521,-185.89 940.26,-169.66 946.991,-157.159"/>
<polygon fill="midnightblue" stroke="midnightblue" points="950.195,-158.591 951.855,-148.127 944.032,-155.273 950.195,-158.591"/>
</g>
<!-- Node31&#45;&gt;Node4 -->
<g id="edge36" class="edge"><title>Node31&#45;&gt;Node4</title>
<path fill="none" stroke="midnightblue" d="M1016.66,-128.933C1006.33,-126.715 995.012,-124.525 984.5,-123 781.556,-93.5526 728.382,-109.036 524.5,-87 499.458,-84.2934 471.178,-80.3359 450.281,-77.239"/>
<polygon fill="midnightblue" stroke="midnightblue" points="450.782,-73.775 440.373,-75.7531 449.743,-80.6976 450.782,-73.775"/>
</g>
<!-- Node31&#45;&gt;Node16 -->
<g id="edge37" class="edge"><title>Node31&#45;&gt;Node16</title>
<path fill="none" stroke="midnightblue" d="M1015.61,-128.936C960.337,-116.105 856.958,-92.1063 804.619,-79.9563"/>
<polygon fill="midnightblue" stroke="midnightblue" points="805.394,-76.5431 794.862,-77.6911 803.811,-83.3618 805.394,-76.5431"/>
</g>
<!-- Node31&#45;&gt;Node24 -->
<g id="edge38" class="edge"><title>Node31&#45;&gt;Node24</title>
<path fill="none" stroke="midnightblue" d="M1028.6,-128.869C997.041,-117.473 941.323,-97.3528 905.694,-84.4869"/>
<polygon fill="midnightblue" stroke="midnightblue" points="906.809,-81.1682 896.215,-81.0637 904.432,-87.7521 906.809,-81.1682"/>
</g>
<!-- Node32 -->
<g id="node32" class="node"><title>Node32</title>
<polygon fill="white" stroke="#bfbfbf" points="957.5,-62 957.5,-81 1007.5,-81 1007.5,-62 957.5,-62"/>
<text text-anchor="middle" x="982.5" y="-69" font-family="Helvetica,sans-Serif" font-size="10.00">iomanip</text>
</g>
<!-- Node31&#45;&gt;Node32 -->
<g id="edge39" class="edge"><title>Node31&#45;&gt;Node32</title>
<path fill="none" stroke="midnightblue" d="M1043.06,-128.734C1031.83,-118.305 1012.88,-100.709 999.163,-87.9732"/>
<polygon fill="midnightblue" stroke="midnightblue" points="1001.5,-85.3671 991.791,-81.1273 996.737,-90.4966 1001.5,-85.3671"/>
</g>
<!-- Node33 -->
<g id="node33" class="node"><title>Node33</title>
<polygon fill="white" stroke="#bfbfbf" points="1025.5,-62 1025.5,-81 1079.5,-81 1079.5,-62 1025.5,-62"/>
<text text-anchor="middle" x="1052.5" y="-69" font-family="Helvetica,sans-Serif" font-size="10.00">iostream</text>
</g>
<!-- Node31&#45;&gt;Node33 -->
<g id="edge40" class="edge"><title>Node31&#45;&gt;Node33</title>
<path fill="none" stroke="midnightblue" d="M1052.5,-128.734C1052.5,-119.183 1052.5,-103.618 1052.5,-91.2829"/>
<polygon fill="midnightblue" stroke="midnightblue" points="1056,-91.1273 1052.5,-81.1273 1049,-91.1273 1056,-91.1273"/>
</g>
<!-- Node34 -->
<g id="node34" class="node"><title>Node34</title>
<polygon fill="white" stroke="#bfbfbf" points="1098,-56.5 1098,-86.5 1203,-86.5 1203,-56.5 1098,-56.5"/>
<text text-anchor="start" x="1106" y="-74.5" font-family="Helvetica,sans-Serif" font-size="10.00">boost/units/systems</text>
<text text-anchor="middle" x="1150.5" y="-63.5" font-family="Helvetica,sans-Serif" font-size="10.00">/si/io.hpp</text>
</g>
<!-- Node31&#45;&gt;Node34 -->
<g id="edge41" class="edge"><title>Node31&#45;&gt;Node34</title>
<path fill="none" stroke="midnightblue" d="M1065.72,-128.734C1079.73,-119.443 1102.31,-104.461 1120.65,-92.2968"/>
<polygon fill="midnightblue" stroke="midnightblue" points="1122.86,-95.0332 1129.26,-86.589 1118.99,-89.1997 1122.86,-95.0332"/>
</g>
<!-- Node37 -->
<g id="node37" class="node"><title>Node37</title>
<polygon fill="white" stroke="#bfbfbf" points="394.5,-257.5 394.5,-276.5 456.5,-276.5 456.5,-257.5 394.5,-257.5"/>
<text text-anchor="middle" x="425.5" y="-264.5" font-family="Helvetica,sans-Serif" font-size="10.00">type_traits</text>
</g>
<!-- Node36&#45;&gt;Node37 -->
<g id="edge44" class="edge"><title>Node36&#45;&gt;Node37</title>
<path fill="none" stroke="midnightblue" d="M443.491,-318.975C440.466,-310.404 435.71,-296.927 431.847,-285.983"/>
<polygon fill="midnightblue" stroke="midnightblue" points="435.132,-284.774 428.503,-276.509 428.531,-287.104 435.132,-284.774"/>
</g>
<!-- Node38&#45;&gt;Node7 -->
<g id="edge46" class="edge"><title>Node38&#45;&gt;Node7</title>
<path fill="none" stroke="midnightblue" d="M703.164,-318.839C684.446,-310.745 658.846,-296.903 643.5,-277 631.941,-262.01 626.728,-240.745 624.386,-225.496"/>
<polygon fill="midnightblue" stroke="midnightblue" points="627.814,-224.699 623.098,-215.211 620.868,-225.569 627.814,-224.699"/>
</g>
<!-- Node39 -->
<g id="node39" class="node"><title>Node39</title>
<g id="a_node39"><a xlink:href="JetInfo_8hh.html" target="_top" xlink:title="boca/fastjet/JetInfo.hh">
<polygon fill="white" stroke="red" points="652.5,-257.5 652.5,-276.5 766.5,-276.5 766.5,-257.5 652.5,-257.5"/>
<text text-anchor="middle" x="709.5" y="-264.5" font-family="Helvetica,sans-Serif" font-size="10.00">boca/fastjet/JetInfo.hh</text>
</a>
</g>
</g>
<!-- Node38&#45;&gt;Node39 -->
<g id="edge47" class="edge"><title>Node38&#45;&gt;Node39</title>
<path fill="none" stroke="midnightblue" d="M724.064,-318.975C721.641,-310.492 717.844,-297.204 714.735,-286.322"/>
<polygon fill="midnightblue" stroke="midnightblue" points="718.044,-285.163 711.931,-276.509 711.313,-287.086 718.044,-285.163"/>
</g>
<!-- Node39&#45;&gt;Node7 -->
<g id="edge48" class="edge"><title>Node39&#45;&gt;Node7</title>
<path fill="none" stroke="midnightblue" d="M697.035,-257.475C683.081,-247.931 660.235,-232.307 643.509,-220.868"/>
<polygon fill="midnightblue" stroke="midnightblue" points="645.172,-217.765 634.942,-215.009 641.22,-223.543 645.172,-217.765"/>
</g>
<!-- Node39&#45;&gt;Node29 -->
<g id="edge49" class="edge"><title>Node39&#45;&gt;Node29</title>
<path fill="none" stroke="midnightblue" d="M739.874,-257.475C777.106,-247.026 840.31,-229.287 881.476,-217.733"/>
<polygon fill="midnightblue" stroke="midnightblue" points="882.5,-221.081 891.182,-215.009 880.608,-214.342 882.5,-221.081"/>
</g>
<!-- Node41 -->
<g id="node41" class="node"><title>Node41</title>
<g id="a_node41"><a xlink:href="MuXboostedBTagging_8hh.html" target="_top" xlink:title="mubtag/MuXboostedBTagging.hh">
<polygon fill="white" stroke="black" points="678,-386 678,-405 839,-405 839,-386 678,-386"/>
<text text-anchor="middle" x="758.5" y="-393" font-family="Helvetica,sans-Serif" font-size="10.00">mubtag/MuXboostedBTagging.hh</text>
</a>
</g>
</g>
<!-- Node40&#45;&gt;Node41 -->
<g id="edge52" class="edge"><title>Node40&#45;&gt;Node41</title>
<path fill="none" stroke="midnightblue" d="M1044.33,-450.984C980.767,-438.868 876.938,-419.076 813.459,-406.976"/>
<polygon fill="midnightblue" stroke="midnightblue" points="813.725,-403.464 803.247,-405.029 812.415,-410.34 813.725,-403.464"/>
</g>
<!-- Node42 -->
<g id="node42" class="node"><title>Node42</title>
<g id="a_node42"><a xlink:href="boca_2tagger_2Tagger_8hh.html" target="_top" xlink:title="boca/tagger/Tagger.hh">
<polygon fill="white" stroke="red" points="1174.5,-386 1174.5,-405 1288.5,-405 1288.5,-386 1174.5,-386"/>
<text text-anchor="middle" x="1231.5" y="-393" font-family="Helvetica,sans-Serif" font-size="10.00">boca/tagger/Tagger.hh</text>
</a>
</g>
</g>
<!-- Node40&#45;&gt;Node42 -->
<g id="edge54" class="edge"><title>Node40&#45;&gt;Node42</title>
<path fill="none" stroke="midnightblue" d="M1128.14,-447.396C1151,-436.142 1182.76,-420.501 1205.02,-409.538"/>
<polygon fill="midnightblue" stroke="midnightblue" points="1206.8,-412.565 1214.22,-405.007 1203.71,-406.285 1206.8,-412.565"/>
</g>
<!-- Node43 -->
<g id="node43" class="node"><title>Node43</title>
<g id="a_node43"><a xlink:href="Singlet_8hh.html" target="_top" xlink:title="boca/multiplets/Singlet.hh">
<polygon fill="white" stroke="red" points="857,-386 857,-405 986,-405 986,-386 857,-386"/>
<text text-anchor="middle" x="921.5" y="-393" font-family="Helvetica,sans-Serif" font-size="10.00">boca/multiplets/Singlet.hh</text>
</a>
</g>
</g>
<!-- Node40&#45;&gt;Node43 -->
<g id="edge57" class="edge"><title>Node40&#45;&gt;Node43</title>
<path fill="none" stroke="midnightblue" d="M1060.88,-447.396C1029.09,-435.789 984.525,-419.515 954.414,-408.519"/>
<polygon fill="midnightblue" stroke="midnightblue" points="955.39,-405.15 944.796,-405.007 952.989,-411.725 955.39,-405.15"/>
</g>
<!-- Node44 -->
<g id="node44" class="node"><title>Node44</title>
<g id="a_node44"><a xlink:href="branch_2Bottom_8hh.html" target="_top" xlink:title="standardmodel/branch\l/Bottom.hh">
<polygon fill="white" stroke="red" points="1043,-380.5 1043,-410.5 1156,-410.5 1156,-380.5 1043,-380.5"/>
<text text-anchor="start" x="1051" y="-398.5" font-family="Helvetica,sans-Serif" font-size="10.00">standardmodel/branch</text>
<text text-anchor="middle" x="1099.5" y="-387.5" font-family="Helvetica,sans-Serif" font-size="10.00">/Bottom.hh</text>
</a>
</g>
</g>
<!-- Node40&#45;&gt;Node44 -->
<g id="edge60" class="edge"><title>Node40&#45;&gt;Node44</title>
<path fill="none" stroke="midnightblue" d="M1099.5,-447.396C1099.5,-439.645 1099.5,-429.812 1099.5,-420.86"/>
<polygon fill="midnightblue" stroke="midnightblue" points="1103,-420.576 1099.5,-410.577 1096,-420.577 1103,-420.576"/>
</g>
<!-- Node41&#45;&gt;Node38 -->
<g id="edge53" class="edge"><title>Node41&#45;&gt;Node38</title>
<path fill="none" stroke="midnightblue" d="M754.184,-385.734C749.338,-375.89 741.348,-359.66 735.194,-347.159"/>
<polygon fill="midnightblue" stroke="midnightblue" points="738.304,-345.553 730.747,-338.127 732.024,-348.645 738.304,-345.553"/>
</g>
<!-- Node42&#45;&gt;Node26 -->
<g id="edge55" class="edge"><title>Node42&#45;&gt;Node26</title>
<path fill="none" stroke="midnightblue" d="M1202.68,-385.869C1169.21,-375.841 1113.17,-359.056 1070.93,-346.404"/>
<polygon fill="midnightblue" stroke="midnightblue" points="1071.92,-343.045 1061.33,-343.528 1069.91,-349.75 1071.92,-343.045"/>
</g>
<!-- Node42&#45;&gt;Node31 -->
<g id="edge56" class="edge"><title>Node42&#45;&gt;Node31</title>
<path fill="none" stroke="midnightblue" d="M1229.57,-385.959C1225.88,-370.608 1216.86,-337.658 1202.5,-313 1164.42,-247.618 1100.23,-183.707 1069.67,-155.105"/>
<polygon fill="midnightblue" stroke="midnightblue" points="1072.04,-152.532 1062.32,-148.308 1067.29,-157.669 1072.04,-152.532"/>
</g>
<!-- Node43&#45;&gt;Node29 -->
<g id="edge58" class="edge"><title>Node43&#45;&gt;Node29</title>
<path fill="none" stroke="midnightblue" d="M921.5,-385.934C921.5,-357.428 921.5,-265.322 921.5,-225.326"/>
<polygon fill="midnightblue" stroke="midnightblue" points="925,-225.117 921.5,-215.117 918,-225.117 925,-225.117"/>
</g>
<!-- Node43&#45;&gt;Node38 -->
<g id="edge59" class="edge"><title>Node43&#45;&gt;Node38</title>
<path fill="none" stroke="midnightblue" d="M895.606,-385.869C861.273,-374.424 800.542,-354.181 761.967,-341.322"/>
<polygon fill="midnightblue" stroke="midnightblue" points="762.785,-337.906 752.191,-338.064 760.571,-344.546 762.785,-337.906"/>
</g>
<!-- Node45 -->
<g id="node45" class="node"><title>Node45</title>
<g id="a_node45"><a xlink:href="BottomBase_8hh.html" target="_top" xlink:title="standardmodel/branch\l/BottomBase.hh">
<polygon fill="white" stroke="red" points="1080,-313.5 1080,-343.5 1193,-343.5 1193,-313.5 1080,-313.5"/>
<text text-anchor="start" x="1088" y="-331.5" font-family="Helvetica,sans-Serif" font-size="10.00">standardmodel/branch</text>
<text text-anchor="middle" x="1136.5" y="-320.5" font-family="Helvetica,sans-Serif" font-size="10.00">/BottomBase.hh</text>
</a>
</g>
</g>
<!-- Node44&#45;&gt;Node45 -->
<g id="edge61" class="edge"><title>Node44&#45;&gt;Node45</title>
<path fill="none" stroke="midnightblue" d="M1107.53,-380.396C1112.18,-372.219 1118.16,-361.725 1123.47,-352.393"/>
<polygon fill="midnightblue" stroke="midnightblue" points="1126.58,-353.999 1128.49,-343.577 1120.5,-350.536 1126.58,-353.999"/>
</g>
<!-- Node45&#45;&gt;Node9 -->
<g id="edge62" class="edge"><title>Node45&#45;&gt;Node9</title>
<path fill="none" stroke="midnightblue" d="M1092.73,-313.363C1036.09,-294.568 934.783,-259.245 851.5,-221 805.757,-199.994 754.838,-170.529 726.236,-153.385"/>
<polygon fill="midnightblue" stroke="midnightblue" points="727.802,-150.242 717.432,-148.073 724.186,-156.235 727.802,-150.242"/>
</g>
<!-- Node46&#45;&gt;Node19 -->
<g id="edge64" class="edge"><title>Node46&#45;&gt;Node19</title>
<path fill="none" stroke="midnightblue" d="M1660.89,-447.396C1662.48,-437.963 1664.6,-425.448 1666.34,-415.189"/>
<polygon fill="midnightblue" stroke="midnightblue" points="1669.81,-415.638 1668.03,-405.195 1662.91,-414.47 1669.81,-415.638"/>
</g>
<!-- Node46&#45;&gt;Node42 -->
<g id="edge65" class="edge"><title>Node46&#45;&gt;Node42</title>
<path fill="none" stroke="midnightblue" d="M1603.28,-450.4C1596.63,-449.188 1589.92,-448.024 1583.5,-447 1457.42,-426.872 1424.35,-432.523 1298.5,-411 1291.88,-409.868 1284.92,-408.53 1278.1,-407.132"/>
<polygon fill="midnightblue" stroke="midnightblue" points="1278.75,-403.694 1268.25,-405.059 1277.31,-410.544 1278.75,-403.694"/>
</g>
<!-- Node47 -->
<g id="node47" class="node"><title>Node47</title>
<g id="a_node47"><a xlink:href="branch_2WLeptonic_8hh.html" target="_top" xlink:title="standardmodel/branch\l/WLeptonic.hh">
<polygon fill="white" stroke="black" points="1754,-380.5 1754,-410.5 1867,-410.5 1867,-380.5 1754,-380.5"/>
<text text-anchor="start" x="1762" y="-398.5" font-family="Helvetica,sans-Serif" font-size="10.00">standardmodel/branch</text>
<text text-anchor="middle" x="1810.5" y="-387.5" font-family="Helvetica,sans-Serif" font-size="10.00">/WLeptonic.hh</text>
</a>
</g>
</g>
<!-- Node46&#45;&gt;Node47 -->
<g id="edge66" class="edge"><title>Node46&#45;&gt;Node47</title>
<path fill="none" stroke="midnightblue" d="M1691.48,-447.396C1713.99,-437.771 1744,-424.936 1768.26,-414.564"/>
<polygon fill="midnightblue" stroke="midnightblue" points="1769.76,-417.727 1777.58,-410.577 1767.01,-411.29 1769.76,-417.727"/>
</g>
<!-- Node48 -->
<g id="node48" class="node"><title>Node48</title>
<g id="a_node48"><a xlink:href="branch_2TwoBody_8hh.html" target="_top" xlink:title="boca/branch/TwoBody.hh">
<polygon fill="white" stroke="red" points="1519.5,-319 1519.5,-338 1647.5,-338 1647.5,-319 1519.5,-319"/>
<text text-anchor="middle" x="1583.5" y="-326" font-family="Helvetica,sans-Serif" font-size="10.00">boca/branch/TwoBody.hh</text>
</a>
</g>
</g>
<!-- Node47&#45;&gt;Node48 -->
<g id="edge67" class="edge"><title>Node47&#45;&gt;Node48</title>
<path fill="none" stroke="midnightblue" d="M1761.52,-380.476C1720.13,-368.622 1661.58,-351.858 1623.1,-340.838"/>
<polygon fill="midnightblue" stroke="midnightblue" points="1623.86,-337.417 1613.28,-338.029 1621.93,-344.146 1623.86,-337.417"/>
</g>
<!-- Node49&#45;&gt;Node45 -->
<g id="edge70" class="edge"><title>Node49&#45;&gt;Node45</title>
<path fill="none" stroke="midnightblue" d="M1314.52,-380.476C1279.59,-370.472 1232.44,-356.971 1195.44,-346.377"/>
<polygon fill="midnightblue" stroke="midnightblue" points="1196.36,-342.999 1185.78,-343.611 1194.43,-349.729 1196.36,-342.999"/>
</g>
<!-- Node49&#45;&gt;Node48 -->
<g id="edge69" class="edge"><title>Node49&#45;&gt;Node48</title>
<path fill="none" stroke="midnightblue" d="M1410.97,-380.476C1450.92,-368.673 1507.34,-352.001 1544.65,-340.979"/>
<polygon fill="midnightblue" stroke="midnightblue" points="1546.04,-344.219 1554.63,-338.029 1544.05,-337.506 1546.04,-344.219"/>
</g>
<!-- Node50&#45;&gt;Node31 -->
<g id="edge73" class="edge"><title>Node50&#45;&gt;Node31</title>
<path fill="none" stroke="midnightblue" d="M1658.3,-527.45C1743.31,-522.562 1895.5,-499.436 1895.5,-396.5 1895.5,-396.5 1895.5,-396.5 1895.5,-266 1895.5,-187.904 1322.39,-152.592 1121.26,-142.604"/>
<polygon fill="midnightblue" stroke="midnightblue" points="1121.27,-139.101 1111.11,-142.106 1120.93,-146.092 1121.27,-139.101"/>
</g>
</g>
</svg>
