<?xml version="1.0" encoding="UTF-8" standalone="no"?>
<!DOCTYPE svg PUBLIC "-//W3C//DTD SVG 1.1//EN"
 "http://www.w3.org/Graphics/SVG/1.1/DTD/svg11.dtd">
<!-- Generated by graphviz version 2.38.0 (20140413.2041)
 -->
<!-- Title: examples/standardmodel/source/tagger/WHadronic.cpp Pages: 1 -->
<svg width="2156pt" height="441pt"
 viewBox="0.00 0.00 2155.50 441.00" xmlns="http://www.w3.org/2000/svg" xmlns:xlink="http://www.w3.org/1999/xlink">
<g id="graph0" class="graph" transform="scale(1 1) rotate(0) translate(4 437)">
<title>examples/standardmodel/source/tagger/WHadronic.cpp</title>
<polygon fill="white" stroke="none" points="-4,4 -4,-437 2151.5,-437 2151.5,4 -4,4"/>
<!-- Node1 -->
<g id="node1" class="node"><title>Node1</title>
<polygon fill="#bfbfbf" stroke="black" points="568,-402.5 568,-432.5 717,-432.5 717,-402.5 568,-402.5"/>
<text text-anchor="start" x="576" y="-420.5" font-family="Helvetica,sans-Serif" font-size="10.00">examples/standardmodel</text>
<text text-anchor="middle" x="642.5" y="-409.5" font-family="Helvetica,sans-Serif" font-size="10.00">/source/tagger/WHadronic.cpp</text>
</g>
<!-- Node2 -->
<g id="node2" class="node"><title>Node2</title>
<polygon fill="white" stroke="#bfbfbf" points="381.5,-335.5 381.5,-365.5 491.5,-365.5 491.5,-335.5 381.5,-335.5"/>
<text text-anchor="start" x="389.5" y="-353.5" font-family="Helvetica,sans-Serif" font-size="10.00">boost/range/algorithm</text>
<text text-anchor="middle" x="436.5" y="-342.5" font-family="Helvetica,sans-Serif" font-size="10.00">/adjacent_find.hpp</text>
</g>
<!-- Node1&#45;&gt;Node2 -->
<g id="edge1" class="edge"><title>Node1&#45;&gt;Node2</title>
<path fill="none" stroke="midnightblue" d="M598.055,-402.476C566.62,-392.557 524.291,-379.201 490.846,-368.648"/>
<polygon fill="midnightblue" stroke="midnightblue" points="491.81,-365.282 481.221,-365.611 489.704,-371.958 491.81,-365.282"/>
</g>
<!-- Node3 -->
<g id="node3" class="node"><title>Node3</title>
<g id="a_node3"><a xlink:href="Exception_8hh.html" target="_top" xlink:title="boca/generic/Exception.hh">
<polygon fill="white" stroke="black" points="623.5,-341 623.5,-360 755.5,-360 755.5,-341 623.5,-341"/>
<text text-anchor="middle" x="689.5" y="-348" font-family="Helvetica,sans-Serif" font-size="10.00">boca/generic/Exception.hh</text>
</a>
</g>
</g>
<!-- Node1&#45;&gt;Node3 -->
<g id="edge2" class="edge"><title>Node1&#45;&gt;Node3</title>
<path fill="none" stroke="midnightblue" d="M652.698,-402.396C659.882,-392.462 669.537,-379.108 677.156,-368.572"/>
<polygon fill="midnightblue" stroke="midnightblue" points="680.19,-370.349 683.213,-360.195 674.517,-366.247 680.19,-370.349"/>
</g>
<!-- Node6 -->
<g id="node6" class="node"><title>Node6</title>
<g id="a_node6"><a xlink:href="Math_8hh.html" target="_top" xlink:title="boca/math/Math.hh">
<polygon fill="white" stroke="black" points="1873,-341 1873,-360 1974,-360 1974,-341 1873,-341"/>
<text text-anchor="middle" x="1923.5" y="-348" font-family="Helvetica,sans-Serif" font-size="10.00">boca/math/Math.hh</text>
</a>
</g>
</g>
<!-- Node1&#45;&gt;Node6 -->
<g id="edge5" class="edge"><title>Node1&#45;&gt;Node6</title>
<path fill="none" stroke="midnightblue" d="M717.379,-412.701C949.065,-400.944 1651.33,-365.31 1862.68,-354.586"/>
<polygon fill="midnightblue" stroke="midnightblue" points="1863.15,-358.067 1872.96,-354.064 1862.8,-351.076 1863.15,-358.067"/>
</g>
<!-- Node10 -->
<g id="node10" class="node"><title>Node10</title>
<g id="a_node10"><a xlink:href="Particles_8hh.html" target="_top" xlink:title="boca/multiplets/Particles.hh">
<polygon fill="white" stroke="black" points="0,-207 0,-226 137,-226 137,-207 0,-207"/>
<text text-anchor="middle" x="68.5" y="-214" font-family="Helvetica,sans-Serif" font-size="10.00">boca/multiplets/Particles.hh</text>
</a>
</g>
</g>
<!-- Node1&#45;&gt;Node10 -->
<g id="edge9" class="edge"><title>Node1&#45;&gt;Node10</title>
<path fill="none" stroke="midnightblue" d="M621.722,-402.297C594.801,-384.44 545.92,-353.846 500.5,-335 370.634,-281.116 208.595,-244.713 124.696,-227.992"/>
<polygon fill="midnightblue" stroke="midnightblue" points="125.348,-224.553 114.859,-226.051 123.992,-231.421 125.348,-224.553"/>
</g>
<!-- Node16 -->
<g id="node16" class="node"><title>Node16</title>
<g id="a_node16"><a xlink:href="tagger_2WHadronic_8hh.html" target="_top" xlink:title="standardmodel/tagger\l/WHadronic.hh">
<polygon fill="white" stroke="black" points="1038.5,-335.5 1038.5,-365.5 1148.5,-365.5 1148.5,-335.5 1038.5,-335.5"/>
<text text-anchor="start" x="1046.5" y="-353.5" font-family="Helvetica,sans-Serif" font-size="10.00">standardmodel/tagger</text>
<text text-anchor="middle" x="1093.5" y="-342.5" font-family="Helvetica,sans-Serif" font-size="10.00">/WHadronic.hh</text>
</a>
</g>
</g>
<!-- Node1&#45;&gt;Node16 -->
<g id="edge19" class="edge"><title>Node1&#45;&gt;Node16</title>
<path fill="none" stroke="midnightblue" d="M717.226,-405.73C803.978,-393.227 945.674,-372.805 1028.19,-360.912"/>
<polygon fill="midnightblue" stroke="midnightblue" points="1028.8,-364.361 1038.2,-359.47 1027.8,-357.432 1028.8,-364.361"/>
</g>
<!-- Node37 -->
<g id="node37" class="node"><title>Node37</title>
<g id="a_node37"><a xlink:href="boca_2Event_8hh.html" target="_top" xlink:title="boca/Event.hh">
<polygon fill="white" stroke="black" points="155.5,-207 155.5,-226 235.5,-226 235.5,-207 155.5,-207"/>
<text text-anchor="middle" x="195.5" y="-214" font-family="Helvetica,sans-Serif" font-size="10.00">boca/Event.hh</text>
</a>
</g>
</g>
<!-- Node1&#45;&gt;Node37 -->
<g id="edge72" class="edge"><title>Node1&#45;&gt;Node37</title>
<path fill="none" stroke="midnightblue" d="M632.098,-402.29C604.938,-365.193 533.946,-268.262 533.5,-268 421.871,-202.479 371.205,-258.453 244.5,-232 240.25,-231.113 235.834,-230.035 231.472,-228.872"/>
<polygon fill="midnightblue" stroke="midnightblue" points="232.066,-225.402 221.491,-226.052 230.163,-232.139 232.066,-225.402"/>
</g>
<!-- Node49 -->
<g id="node49" class="node"><title>Node49</title>
<g id="a_node49"><a xlink:href="MomentumRange_8hh.html" target="_top" xlink:title="boca/MomentumRange.hh">
<polygon fill="white" stroke="black" points="552,-207 552,-226 683,-226 683,-207 552,-207"/>
<text text-anchor="middle" x="617.5" y="-214" font-family="Helvetica,sans-Serif" font-size="10.00">boca/MomentumRange.hh</text>
</a>
</g>
</g>
<!-- Node1&#45;&gt;Node49 -->
<g id="edge73" class="edge"><title>Node1&#45;&gt;Node49</title>
<path fill="none" stroke="midnightblue" d="M632.061,-402.315C625.603,-392.627 617.914,-379.199 614.5,-366 602.751,-320.581 609.217,-264.716 613.942,-236.193"/>
<polygon fill="midnightblue" stroke="midnightblue" points="617.439,-236.517 615.743,-226.059 610.547,-235.292 617.439,-236.517"/>
</g>
<!-- Node50 -->
<g id="node50" class="node"><title>Node50</title>
<g id="a_node50"><a xlink:href="DEBUG__MACROS_8hh.html" target="_top" xlink:title="boca/generic/DEBUG\l_MACROS.hh">
<polygon fill="white" stroke="black" points="1476,-335.5 1476,-365.5 1587,-365.5 1587,-335.5 1476,-335.5"/>
<text text-anchor="start" x="1484" y="-353.5" font-family="Helvetica,sans-Serif" font-size="10.00">boca/generic/DEBUG</text>
<text text-anchor="middle" x="1531.5" y="-342.5" font-family="Helvetica,sans-Serif" font-size="10.00">_MACROS.hh</text>
</a>
</g>
</g>
<!-- Node1&#45;&gt;Node50 -->
<g id="edge77" class="edge"><title>Node1&#45;&gt;Node50</title>
<path fill="none" stroke="midnightblue" d="M717.148,-411.042C887.692,-398.573 1303.63,-368.161 1465.51,-356.325"/>
<polygon fill="midnightblue" stroke="midnightblue" points="1466.08,-359.793 1475.8,-355.573 1465.57,-352.811 1466.08,-359.793"/>
</g>
<!-- Node4 -->
<g id="node4" class="node"><title>Node4</title>
<polygon fill="white" stroke="#bfbfbf" points="624,-274 624,-293 683,-293 683,-274 624,-274"/>
<text text-anchor="middle" x="653.5" y="-281" font-family="Helvetica,sans-Serif" font-size="10.00">stdexcept</text>
</g>
<!-- Node3&#45;&gt;Node4 -->
<g id="edge3" class="edge"><title>Node3&#45;&gt;Node4</title>
<path fill="none" stroke="midnightblue" d="M684.645,-340.734C679.193,-330.89 670.204,-314.66 663.281,-302.159"/>
<polygon fill="midnightblue" stroke="midnightblue" points="666.185,-300.179 658.278,-293.127 660.061,-303.571 666.185,-300.179"/>
</g>
<!-- Node5 -->
<g id="node5" class="node"><title>Node5</title>
<polygon fill="white" stroke="#bfbfbf" points="1362,-6 1362,-25 1403,-25 1403,-6 1362,-6"/>
<text text-anchor="middle" x="1382.5" y="-13" font-family="Helvetica,sans-Serif" font-size="10.00">string</text>
</g>
<!-- Node3&#45;&gt;Node5 -->
<g id="edge4" class="edge"><title>Node3&#45;&gt;Node5</title>
<path fill="none" stroke="midnightblue" d="M690.539,-340.653C695.044,-303.824 714.09,-163.231 745.5,-134 835.518,-50.2268 1236.61,-23.8343 1351.6,-17.9214"/>
<polygon fill="midnightblue" stroke="midnightblue" points="1352,-21.4058 1361.81,-17.4118 1351.65,-14.4145 1352,-21.4058"/>
</g>
<!-- Node7 -->
<g id="node7" class="node"><title>Node7</title>
<polygon fill="white" stroke="#bfbfbf" points="1618.5,-6 1618.5,-25 1662.5,-25 1662.5,-6 1618.5,-6"/>
<text text-anchor="middle" x="1640.5" y="-13" font-family="Helvetica,sans-Serif" font-size="10.00">vector</text>
</g>
<!-- Node6&#45;&gt;Node7 -->
<g id="edge6" class="edge"><title>Node6&#45;&gt;Node7</title>
<path fill="none" stroke="midnightblue" d="M1918.68,-340.842C1907.65,-320.18 1881.5,-266.078 1881.5,-217.5 1881.5,-217.5 1881.5,-217.5 1881.5,-148.5 1881.5,-110.053 1881.11,-92.6791 1852.5,-67 1826.22,-43.4173 1725.57,-27.3786 1672.97,-20.4189"/>
<polygon fill="midnightblue" stroke="midnightblue" points="1673.18,-16.9179 1662.82,-19.1102 1672.29,-23.8604 1673.18,-16.9179"/>
</g>
<!-- Node8 -->
<g id="node8" class="node"><title>Node8</title>
<polygon fill="white" stroke="#bfbfbf" points="1909.5,-268.5 1909.5,-298.5 2019.5,-298.5 2019.5,-268.5 1909.5,-268.5"/>
<text text-anchor="start" x="1917.5" y="-286.5" font-family="Helvetica,sans-Serif" font-size="10.00">boost/range/algorithm</text>
<text text-anchor="middle" x="1964.5" y="-275.5" font-family="Helvetica,sans-Serif" font-size="10.00">/lower_bound.hpp</text>
</g>
<!-- Node6&#45;&gt;Node8 -->
<g id="edge7" class="edge"><title>Node6&#45;&gt;Node8</title>
<path fill="none" stroke="midnightblue" d="M1929.03,-340.734C1934.41,-332.203 1942.82,-318.874 1950.1,-307.334"/>
<polygon fill="midnightblue" stroke="midnightblue" points="1953.24,-308.914 1955.61,-298.589 1947.32,-305.18 1953.24,-308.914"/>
</g>
<!-- Node9 -->
<g id="node9" class="node"><title>Node9</title>
<polygon fill="white" stroke="#bfbfbf" points="2037.5,-268.5 2037.5,-298.5 2147.5,-298.5 2147.5,-268.5 2037.5,-268.5"/>
<text text-anchor="start" x="2045.5" y="-286.5" font-family="Helvetica,sans-Serif" font-size="10.00">boost/range/algorithm</text>
<text text-anchor="middle" x="2092.5" y="-275.5" font-family="Helvetica,sans-Serif" font-size="10.00">/upper_bound.hpp</text>
</g>
<!-- Node6&#45;&gt;Node9 -->
<g id="edge8" class="edge"><title>Node6&#45;&gt;Node9</title>
<path fill="none" stroke="midnightblue" d="M1945.94,-340.869C1971.52,-331.031 2014.01,-314.689 2046.67,-302.128"/>
<polygon fill="midnightblue" stroke="midnightblue" points="2047.95,-305.385 2056.03,-298.528 2045.44,-298.851 2047.95,-305.385"/>
</g>
<!-- Node11 -->
<g id="node11" class="node"><title>Node11</title>
<g id="a_node11"><a xlink:href="multiplets_2Particle_8hh.html" target="_top" xlink:title="boca/multiplets/Particle.hh">
<polygon fill="white" stroke="black" points="2.5,-140 2.5,-159 134.5,-159 134.5,-140 2.5,-140"/>
<text text-anchor="middle" x="68.5" y="-147" font-family="Helvetica,sans-Serif" font-size="10.00">boca/multiplets/Particle.hh</text>
</a>
</g>
</g>
<!-- Node10&#45;&gt;Node11 -->
<g id="edge10" class="edge"><title>Node10&#45;&gt;Node11</title>
<path fill="none" stroke="midnightblue" d="M68.5,-206.734C68.5,-197.183 68.5,-181.618 68.5,-169.283"/>
<polygon fill="midnightblue" stroke="midnightblue" points="72.0001,-169.127 68.5,-159.127 65.0001,-169.127 72.0001,-169.127"/>
</g>
<!-- Node14 -->
<g id="node14" class="node"><title>Node14</title>
<g id="a_node14"><a xlink:href="Id_8hh.html" target="_top" xlink:title="boca/physics/Id.hh">
<polygon fill="white" stroke="black" points="694,-73 694,-92 793,-92 793,-73 694,-73"/>
<text text-anchor="middle" x="743.5" y="-80" font-family="Helvetica,sans-Serif" font-size="10.00">boca/physics/Id.hh</text>
</a>
</g>
</g>
<!-- Node10&#45;&gt;Node14 -->
<g id="edge15" class="edge"><title>Node10&#45;&gt;Node14</title>
<path fill="none" stroke="midnightblue" d="M110.928,-206.986C161.039,-196.549 241.056,-178.579 268.5,-165 288.346,-155.181 286.966,-142.283 307.5,-134 463.597,-71.0358 518.555,-126.16 684.5,-98 690.363,-97.0052 696.504,-95.7453 702.518,-94.3854"/>
<polygon fill="midnightblue" stroke="midnightblue" points="703.523,-97.7442 712.445,-92.0314 701.908,-90.9331 703.523,-97.7442"/>
</g>
<!-- Node12 -->
<g id="node12" class="node"><title>Node12</title>
<g id="a_node12"><a xlink:href="PseudoJet_8hh.html" target="_top" xlink:title="boca/fastjet/PseudoJet.hh">
<polygon fill="white" stroke="red" points="147,-6 147,-25 278,-25 278,-6 147,-6"/>
<text text-anchor="middle" x="212.5" y="-13" font-family="Helvetica,sans-Serif" font-size="10.00">boca/fastjet/PseudoJet.hh</text>
</a>
</g>
</g>
<!-- Node11&#45;&gt;Node12 -->
<g id="edge11" class="edge"><title>Node11&#45;&gt;Node12</title>
<path fill="none" stroke="midnightblue" d="M81.5688,-139.849C95.671,-130.279 118.522,-114.074 136.5,-98 159.835,-77.1361 184.032,-50.0899 198.68,-33.0102"/>
<polygon fill="midnightblue" stroke="midnightblue" points="201.614,-34.9623 205.414,-25.0726 196.276,-30.4336 201.614,-34.9623"/>
</g>
<!-- Node13 -->
<g id="node13" class="node"><title>Node13</title>
<g id="a_node13"><a xlink:href="ParticleInfo_8hh.html" target="_top" xlink:title="boca/multiplets/Particle\lInfo.hh">
<polygon fill="white" stroke="red" points="9,-67.5 9,-97.5 128,-97.5 128,-67.5 9,-67.5"/>
<text text-anchor="start" x="17" y="-85.5" font-family="Helvetica,sans-Serif" font-size="10.00">boca/multiplets/Particle</text>
<text text-anchor="middle" x="68.5" y="-74.5" font-family="Helvetica,sans-Serif" font-size="10.00">Info.hh</text>
</a>
</g>
</g>
<!-- Node11&#45;&gt;Node13 -->
<g id="edge13" class="edge"><title>Node11&#45;&gt;Node13</title>
<path fill="none" stroke="midnightblue" d="M68.5,-139.734C68.5,-131.541 68.5,-118.923 68.5,-107.714"/>
<polygon fill="midnightblue" stroke="midnightblue" points="72.0001,-107.589 68.5,-97.589 65.0001,-107.589 72.0001,-107.589"/>
</g>
<!-- Node12&#45;&gt;Node12 -->
<g id="edge12" class="edge"><title>Node12&#45;&gt;Node12</title>
<path fill="none" stroke="midnightblue" d="M238.576,-25.0645C265.658,-30.8698 296,-27.6816 296,-15.5 296,-4.79348 272.562,-1.03421 248.498,-4.22218"/>
<polygon fill="midnightblue" stroke="midnightblue" points="247.835,-0.784886 238.576,-5.93551 249.026,-7.6828 247.835,-0.784886"/>
</g>
<!-- Node13&#45;&gt;Node12 -->
<g id="edge14" class="edge"><title>Node13&#45;&gt;Node12</title>
<path fill="none" stroke="midnightblue" d="M99.7459,-67.396C124.9,-56.0414 159.951,-40.2201 184.268,-29.2437"/>
<polygon fill="midnightblue" stroke="midnightblue" points="185.979,-32.3113 193.654,-25.007 183.099,-25.9312 185.979,-32.3113"/>
</g>
<!-- Node14&#45;&gt;Node5 -->
<g id="edge16" class="edge"><title>Node14&#45;&gt;Node5</title>
<path fill="none" stroke="midnightblue" d="M777.214,-72.9644C786.937,-70.7474 797.595,-68.5497 807.5,-67 1013.77,-34.7273 1265.13,-21.5365 1351.58,-17.7436"/>
<polygon fill="midnightblue" stroke="midnightblue" points="1351.91,-21.2328 1361.75,-17.3077 1351.61,-14.2392 1351.91,-21.2328"/>
</g>
<!-- Node14&#45;&gt;Node7 -->
<g id="edge17" class="edge"><title>Node14&#45;&gt;Node7</title>
<path fill="none" stroke="midnightblue" d="M793.004,-77.9127C956.067,-66.0966 1473.59,-28.5946 1608.23,-18.8383"/>
<polygon fill="midnightblue" stroke="midnightblue" points="1608.59,-22.3214 1618.31,-18.1078 1608.09,-15.3397 1608.59,-22.3214"/>
</g>
<!-- Node15 -->
<g id="node15" class="node"><title>Node15</title>
<g id="a_node15"><a xlink:href="ElectronVolt_8hh.html" target="_top" xlink:title="boca/physics/ElectronVolt.hh">
<polygon fill="white" stroke="red" points="754.5,-6 754.5,-25 898.5,-25 898.5,-6 754.5,-6"/>
<text text-anchor="middle" x="826.5" y="-13" font-family="Helvetica,sans-Serif" font-size="10.00">boca/physics/ElectronVolt.hh</text>
</a>
</g>
</g>
<!-- Node14&#45;&gt;Node15 -->
<g id="edge18" class="edge"><title>Node14&#45;&gt;Node15</title>
<path fill="none" stroke="midnightblue" d="M754.694,-72.7338C768.134,-62.208 790.9,-44.3793 807.196,-31.6174"/>
<polygon fill="midnightblue" stroke="midnightblue" points="809.769,-34.0486 815.484,-25.1273 805.453,-28.5374 809.769,-34.0486"/>
</g>
<!-- Node17 -->
<g id="node17" class="node"><title>Node17</title>
<polygon fill="white" stroke="#bfbfbf" points="1168,-274 1168,-293 1227,-293 1227,-274 1168,-274"/>
<text text-anchor="middle" x="1197.5" y="-281" font-family="Helvetica,sans-Serif" font-size="10.00">functional</text>
</g>
<!-- Node16&#45;&gt;Node17 -->
<g id="edge20" class="edge"><title>Node16&#45;&gt;Node17</title>
<path fill="none" stroke="midnightblue" d="M1116.07,-335.396C1133.51,-324.496 1157.53,-309.479 1174.97,-298.584"/>
<polygon fill="midnightblue" stroke="midnightblue" points="1177.26,-301.275 1183.89,-293.007 1173.55,-295.339 1177.26,-301.275"/>
</g>
<!-- Node18 -->
<g id="node18" class="node"><title>Node18</title>
<g id="a_node18"><a xlink:href="boca_2tagger_2Tagger_8hh.html" target="_top" xlink:title="boca/tagger/Tagger.hh">
<polygon fill="white" stroke="black" points="1289.5,-207 1289.5,-226 1403.5,-226 1403.5,-207 1289.5,-207"/>
<text text-anchor="middle" x="1346.5" y="-214" font-family="Helvetica,sans-Serif" font-size="10.00">boca/tagger/Tagger.hh</text>
</a>
</g>
</g>
<!-- Node16&#45;&gt;Node18 -->
<g id="edge21" class="edge"><title>Node16&#45;&gt;Node18</title>
<path fill="none" stroke="midnightblue" d="M1144.68,-335.497C1172.66,-326.849 1207.44,-314.447 1236.5,-299 1271.92,-280.175 1308.44,-250.755 1329.22,-232.888"/>
<polygon fill="midnightblue" stroke="midnightblue" points="1331.63,-235.428 1336.87,-226.218 1327.03,-230.152 1331.63,-235.428"/>
</g>
<!-- Node31 -->
<g id="node31" class="node"><title>Node31</title>
<g id="a_node31"><a xlink:href="Doublet_8hh.html" target="_top" xlink:title="boca/multiplets/Doublet.hh">
<polygon fill="white" stroke="black" points="880,-274 880,-293 1013,-293 1013,-274 880,-274"/>
<text text-anchor="middle" x="946.5" y="-281" font-family="Helvetica,sans-Serif" font-size="10.00">boca/multiplets/Doublet.hh</text>
</a>
</g>
</g>
<!-- Node16&#45;&gt;Node31 -->
<g id="edge41" class="edge"><title>Node16&#45;&gt;Node31</title>
<path fill="none" stroke="midnightblue" d="M1061.6,-335.396C1035.81,-323.991 999.826,-308.079 974.99,-297.098"/>
<polygon fill="midnightblue" stroke="midnightblue" points="976.3,-293.85 965.739,-293.007 973.469,-300.252 976.3,-293.85"/>
</g>
<!-- Node33 -->
<g id="node33" class="node"><title>Node33</title>
<g id="a_node33"><a xlink:href="Reader_8hh.html" target="_top" xlink:title="boca/multivariant/Reader.hh">
<polygon fill="white" stroke="black" points="1376,-274 1376,-293 1515,-293 1515,-274 1376,-274"/>
<text text-anchor="middle" x="1445.5" y="-281" font-family="Helvetica,sans-Serif" font-size="10.00">boca/multivariant/Reader.hh</text>
</a>
</g>
</g>
<!-- Node16&#45;&gt;Node33 -->
<g id="edge45" class="edge"><title>Node16&#45;&gt;Node33</title>
<path fill="none" stroke="midnightblue" d="M1148.89,-339.272C1214.5,-327.157 1323.19,-307.086 1389.2,-294.897"/>
<polygon fill="midnightblue" stroke="midnightblue" points="1390.21,-298.269 1399.41,-293.011 1388.94,-291.385 1390.21,-298.269"/>
</g>
<!-- Node42 -->
<g id="node42" class="node"><title>Node42</title>
<g id="a_node42"><a xlink:href="tagger_2Bottom_8hh.html" target="_top" xlink:title="standardmodel/tagger\l/Bottom.hh">
<polygon fill="white" stroke="black" points="741.5,-268.5 741.5,-298.5 851.5,-298.5 851.5,-268.5 741.5,-268.5"/>
<text text-anchor="start" x="749.5" y="-286.5" font-family="Helvetica,sans-Serif" font-size="10.00">standardmodel/tagger</text>
<text text-anchor="middle" x="796.5" y="-275.5" font-family="Helvetica,sans-Serif" font-size="10.00">/Bottom.hh</text>
</a>
</g>
</g>
<!-- Node16&#45;&gt;Node42 -->
<g id="edge61" class="edge"><title>Node16&#45;&gt;Node42</title>
<path fill="none" stroke="midnightblue" d="M1038.33,-337.426C988.295,-326.475 914.483,-310.321 861.58,-298.743"/>
<polygon fill="midnightblue" stroke="midnightblue" points="862.14,-295.283 851.623,-296.564 860.644,-302.121 862.14,-295.283"/>
</g>
<!-- Node47 -->
<g id="node47" class="node"><title>Node47</title>
<g id="a_node47"><a xlink:href="branch_2WHadronic_8hh.html" target="_top" xlink:title="standardmodel/branch\l/WHadronic.hh">
<polygon fill="white" stroke="black" points="1037,-268.5 1037,-298.5 1150,-298.5 1150,-268.5 1037,-268.5"/>
<text text-anchor="start" x="1045" y="-286.5" font-family="Helvetica,sans-Serif" font-size="10.00">standardmodel/branch</text>
<text text-anchor="middle" x="1093.5" y="-275.5" font-family="Helvetica,sans-Serif" font-size="10.00">/WHadronic.hh</text>
</a>
</g>
</g>
<!-- Node16&#45;&gt;Node47 -->
<g id="edge69" class="edge"><title>Node16&#45;&gt;Node47</title>
<path fill="none" stroke="midnightblue" d="M1093.5,-335.396C1093.5,-327.645 1093.5,-317.812 1093.5,-308.86"/>
<polygon fill="midnightblue" stroke="midnightblue" points="1097,-308.576 1093.5,-298.577 1090,-308.577 1097,-308.576"/>
</g>
<!-- Node19 -->
<g id="node19" class="node"><title>Node19</title>
<g id="a_node19"><a xlink:href="Types_8hh.html" target="_top" xlink:title="boca/generic/Types.hh">
<polygon fill="white" stroke="red" points="1281.5,-73 1281.5,-92 1397.5,-92 1397.5,-73 1281.5,-73"/>
<text text-anchor="middle" x="1339.5" y="-80" font-family="Helvetica,sans-Serif" font-size="10.00">boca/generic/Types.hh</text>
</a>
</g>
</g>
<!-- Node18&#45;&gt;Node19 -->
<g id="edge22" class="edge"><title>Node18&#45;&gt;Node19</title>
<path fill="none" stroke="midnightblue" d="M1346.04,-206.839C1344.92,-185.674 1342.02,-130.948 1340.48,-102.033"/>
<polygon fill="midnightblue" stroke="midnightblue" points="1343.98,-101.822 1339.95,-92.0212 1336.99,-102.193 1343.98,-101.822"/>
</g>
<!-- Node20 -->
<g id="node20" class="node"><title>Node20</title>
<g id="a_node20"><a xlink:href="Sort_8hh.html" target="_top" xlink:title="boca/multiplets/Sort.hh">
<polygon fill="white" stroke="red" points="1026,-140 1026,-159 1143,-159 1143,-140 1026,-140"/>
<text text-anchor="middle" x="1084.5" y="-147" font-family="Helvetica,sans-Serif" font-size="10.00">boca/multiplets/Sort.hh</text>
</a>
</g>
</g>
<!-- Node18&#45;&gt;Node20 -->
<g id="edge24" class="edge"><title>Node18&#45;&gt;Node20</title>
<path fill="none" stroke="midnightblue" d="M1311.98,-206.936C1264.95,-195.268 1180.7,-174.367 1128.99,-161.537"/>
<polygon fill="midnightblue" stroke="midnightblue" points="1129.65,-158.094 1119.1,-159.083 1127.96,-164.888 1129.65,-158.094"/>
</g>
<!-- Node21 -->
<g id="node21" class="node"><title>Node21</title>
<g id="a_node21"><a xlink:href="TreeBranch_8hh.html" target="_top" xlink:title="boca/io/TreeBranch.hh">
<polygon fill="white" stroke="red" points="1406,-140 1406,-159 1521,-159 1521,-140 1406,-140"/>
<text text-anchor="middle" x="1463.5" y="-147" font-family="Helvetica,sans-Serif" font-size="10.00">boca/io/TreeBranch.hh</text>
</a>
</g>
</g>
<!-- Node18&#45;&gt;Node21 -->
<g id="edge26" class="edge"><title>Node18&#45;&gt;Node21</title>
<path fill="none" stroke="midnightblue" d="M1362.28,-206.734C1382.01,-195.769 1416.01,-176.881 1439.11,-164.049"/>
<polygon fill="midnightblue" stroke="midnightblue" points="1440.93,-167.043 1447.97,-159.127 1437.53,-160.924 1440.93,-167.043"/>
</g>
<!-- Node22 -->
<g id="node22" class="node"><title>Node22</title>
<g id="a_node22"><a xlink:href="tagger_2Base_8hh.html" target="_top" xlink:title="boca/tagger/Base.hh">
<polygon fill="white" stroke="red" points="1551,-140 1551,-159 1658,-159 1658,-140 1551,-140"/>
<text text-anchor="middle" x="1604.5" y="-147" font-family="Helvetica,sans-Serif" font-size="10.00">boca/tagger/Base.hh</text>
</a>
</g>
</g>
<!-- Node18&#45;&gt;Node22 -->
<g id="edge28" class="edge"><title>Node18&#45;&gt;Node22</title>
<path fill="none" stroke="midnightblue" d="M1380.49,-206.936C1426.8,-195.268 1509.77,-174.367 1560.69,-161.537"/>
<polygon fill="midnightblue" stroke="midnightblue" points="1561.59,-164.92 1570.43,-159.083 1559.88,-158.133 1561.59,-164.92"/>
</g>
<!-- Node24 -->
<g id="node24" class="node"><title>Node24</title>
<g id="a_node24"><a xlink:href="PreCuts_8hh.html" target="_top" xlink:title="boca/PreCuts.hh">
<polygon fill="white" stroke="red" points="1216.5,-140 1216.5,-159 1306.5,-159 1306.5,-140 1216.5,-140"/>
<text text-anchor="middle" x="1261.5" y="-147" font-family="Helvetica,sans-Serif" font-size="10.00">boca/PreCuts.hh</text>
</a>
</g>
</g>
<!-- Node18&#45;&gt;Node24 -->
<g id="edge30" class="edge"><title>Node18&#45;&gt;Node24</title>
<path fill="none" stroke="midnightblue" d="M1335.04,-206.734C1321.14,-196.111 1297.52,-178.049 1280.81,-165.264"/>
<polygon fill="midnightblue" stroke="midnightblue" points="1282.85,-162.422 1272.78,-159.127 1278.6,-167.982 1282.85,-162.422"/>
</g>
<!-- Node29 -->
<g id="node29" class="node"><title>Node29</title>
<g id="a_node29"><a xlink:href="Filter_8hh.html" target="_top" xlink:title="boca/Filter.hh">
<polygon fill="white" stroke="red" points="1453.5,-73 1453.5,-92 1529.5,-92 1529.5,-73 1453.5,-73"/>
<text text-anchor="middle" x="1491.5" y="-80" font-family="Helvetica,sans-Serif" font-size="10.00">boca/Filter.hh</text>
</a>
</g>
</g>
<!-- Node18&#45;&gt;Node29 -->
<g id="edge35" class="edge"><title>Node18&#45;&gt;Node29</title>
<path fill="none" stroke="midnightblue" d="M1350.08,-206.872C1357.11,-190.793 1374.1,-155.899 1397.5,-134 1415.2,-117.431 1439.38,-104.604 1458.77,-96.0234"/>
<polygon fill="midnightblue" stroke="midnightblue" points="1460.31,-99.1738 1468.14,-92.0406 1457.57,-92.7317 1460.31,-99.1738"/>
</g>
<!-- Node30 -->
<g id="node30" class="node"><title>Node30</title>
<g id="a_node30"><a xlink:href="Debug_8hh.html" target="_top" xlink:title="boca/generic/Debug.hh">
<polygon fill="white" stroke="red" points="1726,-73 1726,-92 1843,-92 1843,-73 1726,-73"/>
<text text-anchor="middle" x="1784.5" y="-80" font-family="Helvetica,sans-Serif" font-size="10.00">boca/generic/Debug.hh</text>
</a>
</g>
</g>
<!-- Node18&#45;&gt;Node30 -->
<g id="edge38" class="edge"><title>Node18&#45;&gt;Node30</title>
<path fill="none" stroke="midnightblue" d="M1383.06,-206.95C1392.61,-204.858 1402.92,-202.727 1412.5,-201 1525.14,-180.705 1560.97,-206.852 1667.5,-165 1707.16,-149.418 1746.39,-117.938 1767.83,-98.9881"/>
<polygon fill="midnightblue" stroke="midnightblue" points="1770.31,-101.467 1775.39,-92.1704 1765.62,-96.2696 1770.31,-101.467"/>
</g>
<!-- Node19&#45;&gt;Node5 -->
<g id="edge23" class="edge"><title>Node19&#45;&gt;Node5</title>
<path fill="none" stroke="midnightblue" d="M1345.3,-72.7338C1351.88,-62.7928 1362.76,-46.3377 1371.06,-33.7892"/>
<polygon fill="midnightblue" stroke="midnightblue" points="1374.19,-35.3986 1376.79,-25.1273 1368.36,-31.5364 1374.19,-35.3986"/>
</g>
<!-- Node20&#45;&gt;Node14 -->
<g id="edge25" class="edge"><title>Node20&#45;&gt;Node14</title>
<path fill="none" stroke="midnightblue" d="M1039.57,-139.936C977.384,-128.082 865.19,-106.696 798.205,-93.9276"/>
<polygon fill="midnightblue" stroke="midnightblue" points="798.737,-90.4662 788.259,-92.0317 797.427,-97.3424 798.737,-90.4662"/>
</g>
<!-- Node21&#45;&gt;Node5 -->
<g id="edge27" class="edge"><title>Node21&#45;&gt;Node5</title>
<path fill="none" stroke="midnightblue" d="M1458.19,-139.839C1445.03,-118.393 1410.72,-62.4894 1393.17,-33.8952"/>
<polygon fill="midnightblue" stroke="midnightblue" points="1395.94,-31.7138 1387.73,-25.0212 1389.98,-35.375 1395.94,-31.7138"/>
</g>
<!-- Node23 -->
<g id="node23" class="node"><title>Node23</title>
<g id="a_node23"><a xlink:href="Phase_8hh.html" target="_top" xlink:title="boca/multivariant/Phase.hh">
<polygon fill="white" stroke="red" points="1553,-73 1553,-92 1688,-92 1688,-73 1553,-73"/>
<text text-anchor="middle" x="1620.5" y="-80" font-family="Helvetica,sans-Serif" font-size="10.00">boca/multivariant/Phase.hh</text>
</a>
</g>
</g>
<!-- Node22&#45;&gt;Node23 -->
<g id="edge29" class="edge"><title>Node22&#45;&gt;Node23</title>
<path fill="none" stroke="midnightblue" d="M1606.66,-139.734C1609.03,-130.085 1612.92,-114.3 1615.97,-101.906"/>
<polygon fill="midnightblue" stroke="midnightblue" points="1619.38,-102.674 1618.38,-92.1273 1612.59,-101.001 1619.38,-102.674"/>
</g>
<!-- Node25 -->
<g id="node25" class="node"><title>Node25</title>
<g id="a_node25"><a xlink:href="Vector_8hh.html" target="_top" xlink:title="boca/generic/Vector.hh">
<polygon fill="white" stroke="red" points="559,-73 559,-92 676,-92 676,-73 559,-73"/>
<text text-anchor="middle" x="617.5" y="-80" font-family="Helvetica,sans-Serif" font-size="10.00">boca/generic/Vector.hh</text>
</a>
</g>
</g>
<!-- Node24&#45;&gt;Node25 -->
<g id="edge31" class="edge"><title>Node24&#45;&gt;Node25</title>
<path fill="none" stroke="midnightblue" d="M1216.49,-141.942C1196.87,-139.23 1173.57,-136.211 1152.5,-134 945.024,-112.237 890.927,-128.133 684.5,-98 677.294,-96.9481 669.706,-95.5708 662.329,-94.0835"/>
<polygon fill="midnightblue" stroke="midnightblue" points="662.962,-90.6403 652.456,-92.0077 661.522,-97.4905 662.962,-90.6403"/>
</g>
<!-- Node26 -->
<g id="node26" class="node"><title>Node26</title>
<polygon fill="white" stroke="#bfbfbf" points="626.5,-0.5 626.5,-30.5 736.5,-30.5 736.5,-0.5 626.5,-0.5"/>
<text text-anchor="start" x="634.5" y="-18.5" font-family="Helvetica,sans-Serif" font-size="10.00">boost/range/algorithm</text>
<text text-anchor="middle" x="681.5" y="-7.5" font-family="Helvetica,sans-Serif" font-size="10.00">_ext/erase.hpp</text>
</g>
<!-- Node25&#45;&gt;Node26 -->
<g id="edge32" class="edge"><title>Node25&#45;&gt;Node26</title>
<path fill="none" stroke="midnightblue" d="M626.131,-72.7338C634.864,-63.8649 648.701,-49.8111 660.358,-37.9722"/>
<polygon fill="midnightblue" stroke="midnightblue" points="663.106,-40.1703 667.628,-30.589 658.118,-35.2591 663.106,-40.1703"/>
</g>
<!-- Node27 -->
<g id="node27" class="node"><title>Node27</title>
<polygon fill="white" stroke="#bfbfbf" points="370.5,-0.5 370.5,-30.5 480.5,-30.5 480.5,-0.5 370.5,-0.5"/>
<text text-anchor="start" x="378.5" y="-18.5" font-family="Helvetica,sans-Serif" font-size="10.00">boost/range/algorithm</text>
<text text-anchor="middle" x="425.5" y="-7.5" font-family="Helvetica,sans-Serif" font-size="10.00">/find.hpp</text>
</g>
<!-- Node25&#45;&gt;Node27 -->
<g id="edge33" class="edge"><title>Node25&#45;&gt;Node27</title>
<path fill="none" stroke="midnightblue" d="M592.004,-72.8685C562.695,-62.9461 513.845,-46.4085 476.617,-33.8051"/>
<polygon fill="midnightblue" stroke="midnightblue" points="477.531,-30.4196 466.937,-30.5281 475.286,-37.05 477.531,-30.4196"/>
</g>
<!-- Node28 -->
<g id="node28" class="node"><title>Node28</title>
<polygon fill="white" stroke="#bfbfbf" points="498.5,-0.5 498.5,-30.5 608.5,-30.5 608.5,-0.5 498.5,-0.5"/>
<text text-anchor="start" x="506.5" y="-18.5" font-family="Helvetica,sans-Serif" font-size="10.00">boost/range/algorithm</text>
<text text-anchor="middle" x="553.5" y="-7.5" font-family="Helvetica,sans-Serif" font-size="10.00">/min_element.hpp</text>
</g>
<!-- Node25&#45;&gt;Node28 -->
<g id="edge34" class="edge"><title>Node25&#45;&gt;Node28</title>
<path fill="none" stroke="midnightblue" d="M608.869,-72.7338C600.136,-63.8649 586.299,-49.8111 574.642,-37.9722"/>
<polygon fill="midnightblue" stroke="midnightblue" points="576.882,-35.2591 567.372,-30.589 571.894,-40.1703 576.882,-35.2591"/>
</g>
<!-- Node29&#45;&gt;Node5 -->
<g id="edge36" class="edge"><title>Node29&#45;&gt;Node5</title>
<path fill="none" stroke="midnightblue" d="M1476.8,-72.7338C1458.58,-61.8669 1427.3,-43.2161 1405.8,-30.3931"/>
<polygon fill="midnightblue" stroke="midnightblue" points="1407.35,-27.243 1396.97,-25.1273 1403.76,-33.2552 1407.35,-27.243"/>
</g>
<!-- Node29&#45;&gt;Node7 -->
<g id="edge37" class="edge"><title>Node29&#45;&gt;Node7</title>
<path fill="none" stroke="midnightblue" d="M1511.29,-72.8685C1536.89,-61.699 1581.71,-42.1468 1611.25,-29.2602"/>
<polygon fill="midnightblue" stroke="midnightblue" points="1612.87,-32.3738 1620.63,-25.1672 1610.07,-25.9577 1612.87,-32.3738"/>
</g>
<!-- Node30&#45;&gt;Node5 -->
<g id="edge39" class="edge"><title>Node30&#45;&gt;Node5</title>
<path fill="none" stroke="midnightblue" d="M1733.44,-72.9366C1721.64,-70.9722 1709.14,-68.9024 1697.5,-67 1593.26,-49.9575 1469.52,-30.2813 1413.18,-21.3534"/>
<polygon fill="midnightblue" stroke="midnightblue" points="1413.57,-17.8723 1403.15,-19.7647 1412.48,-24.7861 1413.57,-17.8723"/>
</g>
<!-- Node30&#45;&gt;Node7 -->
<g id="edge40" class="edge"><title>Node30&#45;&gt;Node7</title>
<path fill="none" stroke="midnightblue" d="M1765.38,-72.8685C1740.74,-61.7476 1697.69,-42.3167 1669.14,-29.4286"/>
<polygon fill="midnightblue" stroke="midnightblue" points="1670.26,-26.0914 1659.7,-25.1672 1667.38,-32.4715 1670.26,-26.0914"/>
</g>
<!-- Node32 -->
<g id="node32" class="node"><title>Node32</title>
<g id="a_node32"><a xlink:href="multiplets_2TwoBody_8hh.html" target="_top" xlink:title="boca/multiplets/TwoBody.hh">
<polygon fill="white" stroke="red" points="871.5,-207 871.5,-226 1011.5,-226 1011.5,-207 871.5,-207"/>
<text text-anchor="middle" x="941.5" y="-214" font-family="Helvetica,sans-Serif" font-size="10.00">boca/multiplets/TwoBody.hh</text>
</a>
</g>
</g>
<!-- Node31&#45;&gt;Node32 -->
<g id="edge42" class="edge"><title>Node31&#45;&gt;Node32</title>
<path fill="none" stroke="midnightblue" d="M945.826,-273.734C945.091,-264.183 943.894,-248.618 942.945,-236.283"/>
<polygon fill="midnightblue" stroke="midnightblue" points="946.42,-235.829 942.164,-226.127 939.441,-236.366 946.42,-235.829"/>
</g>
<!-- Node32&#45;&gt;Node20 -->
<g id="edge44" class="edge"><title>Node32&#45;&gt;Node20</title>
<path fill="none" stroke="midnightblue" d="M960.489,-206.869C984.955,-195.748 1027.7,-176.317 1056.06,-163.429"/>
<polygon fill="midnightblue" stroke="midnightblue" points="1057.78,-166.492 1065.43,-159.167 1054.88,-160.119 1057.78,-166.492"/>
</g>
<!-- Node32&#45;&gt;Node25 -->
<g id="edge43" class="edge"><title>Node32&#45;&gt;Node25</title>
<path fill="none" stroke="midnightblue" d="M937.339,-206.921C928.627,-189.956 906.744,-152.189 876.5,-134 802.098,-89.2545 769.603,-115.184 684.5,-98 678.596,-96.8079 672.408,-95.5204 666.279,-94.2219"/>
<polygon fill="midnightblue" stroke="midnightblue" points="666.591,-90.7095 656.08,-92.041 665.127,-97.5548 666.591,-90.7095"/>
</g>
<!-- Node33&#45;&gt;Node20 -->
<g id="edge50" class="edge"><title>Node33&#45;&gt;Node20</title>
<path fill="none" stroke="midnightblue" d="M1407.01,-273.98C1369.17,-265.144 1310.07,-250.098 1260.5,-232 1205.23,-211.819 1143.4,-181.213 1109.73,-163.819"/>
<polygon fill="midnightblue" stroke="midnightblue" points="1111.1,-160.587 1100.61,-159.077 1107.87,-166.797 1111.1,-160.587"/>
</g>
<!-- Node33&#45;&gt;Node23 -->
<g id="edge51" class="edge"><title>Node33&#45;&gt;Node23</title>
<path fill="none" stroke="midnightblue" d="M1515.27,-282.455C1604.66,-280.74 1752.19,-271.761 1786.5,-232 1835.29,-175.447 1715.94,-119.69 1654.41,-95.726"/>
<polygon fill="midnightblue" stroke="midnightblue" points="1655.66,-92.4556 1645.07,-92.1577 1653.16,-98.995 1655.66,-92.4556"/>
</g>
<!-- Node33&#45;&gt;Node24 -->
<g id="edge52" class="edge"><title>Node33&#45;&gt;Node24</title>
<path fill="none" stroke="midnightblue" d="M1375.64,-277.05C1342.52,-270.9 1304.94,-258.159 1280.5,-232 1264.73,-215.12 1261.22,-187.769 1260.82,-169.465"/>
<polygon fill="midnightblue" stroke="midnightblue" points="1264.32,-169.438 1260.9,-159.412 1257.32,-169.386 1264.32,-169.438"/>
</g>
<!-- Node34 -->
<g id="node34" class="node"><title>Node34</title>
<polygon fill="white" stroke="#bfbfbf" points="1690,-207 1690,-226 1777,-226 1777,-207 1690,-207"/>
<text text-anchor="middle" x="1733.5" y="-214" font-family="Helvetica,sans-Serif" font-size="10.00">TMVA/Reader.h</text>
</g>
<!-- Node33&#45;&gt;Node34 -->
<g id="edge46" class="edge"><title>Node33&#45;&gt;Node34</title>
<path fill="none" stroke="midnightblue" d="M1488.54,-273.995C1535.79,-264.486 1613.81,-248.275 1680.5,-232 1684.67,-230.982 1689.01,-229.874 1693.34,-228.739"/>
<polygon fill="midnightblue" stroke="midnightblue" points="1694.55,-232.038 1703.31,-226.071 1692.74,-225.276 1694.55,-232.038"/>
</g>
<!-- Node35 -->
<g id="node35" class="node"><title>Node35</title>
<g id="a_node35"><a xlink:href="Options_8hh.html" target="_top" xlink:title="boca/generic/Options.hh">
<polygon fill="white" stroke="red" points="1549.5,-207 1549.5,-226 1671.5,-226 1671.5,-207 1549.5,-207"/>
<text text-anchor="middle" x="1610.5" y="-214" font-family="Helvetica,sans-Serif" font-size="10.00">boca/generic/Options.hh</text>
</a>
</g>
</g>
<!-- Node33&#45;&gt;Node35 -->
<g id="edge47" class="edge"><title>Node33&#45;&gt;Node35</title>
<path fill="none" stroke="midnightblue" d="M1467.41,-273.869C1496.09,-262.571 1546.54,-242.696 1579.23,-229.818"/>
<polygon fill="midnightblue" stroke="midnightblue" points="1580.74,-232.985 1588.76,-226.064 1578.17,-226.473 1580.74,-232.985"/>
</g>
<!-- Node36 -->
<g id="node36" class="node"><title>Node36</title>
<g id="a_node36"><a xlink:href="TreeWriter_8hh.html" target="_top" xlink:title="boca/io/TreeWriter.hh">
<polygon fill="white" stroke="red" points="1421.5,-207 1421.5,-226 1531.5,-226 1531.5,-207 1421.5,-207"/>
<text text-anchor="middle" x="1476.5" y="-214" font-family="Helvetica,sans-Serif" font-size="10.00">boca/io/TreeWriter.hh</text>
</a>
</g>
</g>
<!-- Node33&#45;&gt;Node36 -->
<g id="edge48" class="edge"><title>Node33&#45;&gt;Node36</title>
<path fill="none" stroke="midnightblue" d="M1449.68,-273.734C1454.38,-263.89 1462.12,-247.66 1468.08,-235.159"/>
<polygon fill="midnightblue" stroke="midnightblue" points="1471.24,-236.66 1472.39,-226.127 1464.92,-233.647 1471.24,-236.66"/>
</g>
<!-- Node33&#45;&gt;Node37 -->
<g id="edge53" class="edge"><title>Node33&#45;&gt;Node37</title>
<path fill="none" stroke="midnightblue" d="M1375.87,-277.092C1335.24,-274.081 1282.99,-270.456 1236.5,-268 1016.22,-256.365 462.202,-267.577 244.5,-232 239.665,-231.21 234.637,-230.086 229.722,-228.809"/>
<polygon fill="midnightblue" stroke="midnightblue" points="230.47,-225.383 219.895,-226.031 228.566,-232.119 230.47,-225.383"/>
</g>
<!-- Node36&#45;&gt;Node21 -->
<g id="edge49" class="edge"><title>Node36&#45;&gt;Node21</title>
<path fill="none" stroke="midnightblue" d="M1474.75,-206.734C1472.84,-197.183 1469.72,-181.618 1467.26,-169.283"/>
<polygon fill="midnightblue" stroke="midnightblue" points="1470.62,-168.247 1465.23,-159.127 1463.75,-169.62 1470.62,-168.247"/>
</g>
<!-- Node37&#45;&gt;Node11 -->
<g id="edge60" class="edge"><title>Node37&#45;&gt;Node11</title>
<path fill="none" stroke="midnightblue" d="M178.635,-206.869C157.097,-195.845 119.604,-176.655 94.4232,-163.768"/>
<polygon fill="midnightblue" stroke="midnightblue" points="95.9308,-160.608 85.4344,-159.167 92.7416,-166.839 95.9308,-160.608"/>
</g>
<!-- Node38 -->
<g id="node38" class="node"><title>Node38</title>
<g id="a_node38"><a xlink:href="Flag_8hh.html" target="_top" xlink:title="boca/generic/Flag.hh">
<polygon fill="white" stroke="black" points="153,-140 153,-159 260,-159 260,-140 153,-140"/>
<text text-anchor="middle" x="206.5" y="-147" font-family="Helvetica,sans-Serif" font-size="10.00">boca/generic/Flag.hh</text>
</a>
</g>
</g>
<!-- Node37&#45;&gt;Node38 -->
<g id="edge54" class="edge"><title>Node37&#45;&gt;Node38</title>
<path fill="none" stroke="midnightblue" d="M196.984,-206.734C198.6,-197.183 201.234,-181.618 203.321,-169.283"/>
<polygon fill="midnightblue" stroke="midnightblue" points="206.822,-169.571 205.04,-159.127 199.92,-168.403 206.822,-169.571"/>
</g>
<!-- Node40 -->
<g id="node40" class="node"><title>Node40</title>
<g id="a_node40"><a xlink:href="Jet_8hh.html" target="_top" xlink:title="boca/multiplets/Jet.hh">
<polygon fill="white" stroke="black" points="317,-140 317,-159 430,-159 430,-140 317,-140"/>
<text text-anchor="middle" x="373.5" y="-147" font-family="Helvetica,sans-Serif" font-size="10.00">boca/multiplets/Jet.hh</text>
</a>
</g>
</g>
<!-- Node37&#45;&gt;Node40 -->
<g id="edge56" class="edge"><title>Node37&#45;&gt;Node40</title>
<path fill="none" stroke="midnightblue" d="M219.137,-206.869C250.209,-195.522 304.971,-175.525 340.222,-162.652"/>
<polygon fill="midnightblue" stroke="midnightblue" points="341.856,-165.782 350.049,-159.064 339.455,-159.206 341.856,-165.782"/>
</g>
<!-- Node39 -->
<g id="node39" class="node"><title>Node39</title>
<polygon fill="white" stroke="#bfbfbf" points="184.5,-73 184.5,-92 246.5,-92 246.5,-73 184.5,-73"/>
<text text-anchor="middle" x="215.5" y="-80" font-family="Helvetica,sans-Serif" font-size="10.00">type_traits</text>
</g>
<!-- Node38&#45;&gt;Node39 -->
<g id="edge55" class="edge"><title>Node38&#45;&gt;Node39</title>
<path fill="none" stroke="midnightblue" d="M207.714,-139.734C209.036,-130.183 211.191,-114.618 212.899,-102.283"/>
<polygon fill="midnightblue" stroke="midnightblue" points="216.401,-102.513 214.305,-92.1273 209.467,-101.553 216.401,-102.513"/>
</g>
<!-- Node40&#45;&gt;Node12 -->
<g id="edge57" class="edge"><title>Node40&#45;&gt;Node12</title>
<path fill="none" stroke="midnightblue" d="M358.742,-139.972C342.808,-130.507 316.962,-114.391 296.5,-98 270.606,-77.2574 243.571,-49.8197 227.385,-32.6657"/>
<polygon fill="midnightblue" stroke="midnightblue" points="229.746,-30.0657 220.363,-25.1451 224.629,-34.843 229.746,-30.0657"/>
</g>
<!-- Node41 -->
<g id="node41" class="node"><title>Node41</title>
<g id="a_node41"><a xlink:href="JetInfo_8hh.html" target="_top" xlink:title="boca/multiplets/JetInfo.hh">
<polygon fill="white" stroke="red" points="306,-73 306,-92 435,-92 435,-73 306,-73"/>
<text text-anchor="middle" x="370.5" y="-80" font-family="Helvetica,sans-Serif" font-size="10.00">boca/multiplets/JetInfo.hh</text>
</a>
</g>
</g>
<!-- Node40&#45;&gt;Node41 -->
<g id="edge58" class="edge"><title>Node40&#45;&gt;Node41</title>
<path fill="none" stroke="midnightblue" d="M373.095,-139.734C372.655,-130.183 371.936,-114.618 371.367,-102.283"/>
<polygon fill="midnightblue" stroke="midnightblue" points="374.856,-101.955 370.898,-92.1273 367.863,-102.278 374.856,-101.955"/>
</g>
<!-- Node41&#45;&gt;Node12 -->
<g id="edge59" class="edge"><title>Node41&#45;&gt;Node12</title>
<path fill="none" stroke="midnightblue" d="M349.519,-72.8685C322.25,-61.6504 274.428,-41.9766 243.109,-29.0925"/>
<polygon fill="midnightblue" stroke="midnightblue" points="244.148,-25.735 233.568,-25.1672 241.484,-32.2086 244.148,-25.735"/>
</g>
<!-- Node42&#45;&gt;Node18 -->
<g id="edge64" class="edge"><title>Node42&#45;&gt;Node18</title>
<path fill="none" stroke="midnightblue" d="M851.767,-271.12C858.071,-269.986 864.416,-268.917 870.5,-268 1015.45,-246.154 1186.63,-230.438 1279.08,-222.776"/>
<polygon fill="midnightblue" stroke="midnightblue" points="1279.46,-226.256 1289.14,-221.948 1278.89,-219.28 1279.46,-226.256"/>
</g>
<!-- Node43 -->
<g id="node43" class="node"><title>Node43</title>
<g id="a_node43"><a xlink:href="MuXboostedBTagging_8hh.html" target="_top" xlink:title="boca/external/MuXboosted\lBTagging.hh">
<polygon fill="white" stroke="black" points="254,-201.5 254,-231.5 387,-231.5 387,-201.5 254,-201.5"/>
<text text-anchor="start" x="262" y="-219.5" font-family="Helvetica,sans-Serif" font-size="10.00">boca/external/MuXboosted</text>
<text text-anchor="middle" x="320.5" y="-208.5" font-family="Helvetica,sans-Serif" font-size="10.00">BTagging.hh</text>
</a>
</g>
</g>
<!-- Node42&#45;&gt;Node43 -->
<g id="edge62" class="edge"><title>Node42&#45;&gt;Node43</title>
<path fill="none" stroke="midnightblue" d="M741.483,-274.731C725.381,-272.504 707.742,-270.109 691.5,-268 563.287,-251.352 528.118,-252.521 397.131,-232.196"/>
<polygon fill="midnightblue" stroke="midnightblue" points="397.535,-228.717 387.114,-230.629 396.453,-235.633 397.535,-228.717"/>
</g>
<!-- Node44 -->
<g id="node44" class="node"><title>Node44</title>
<g id="a_node44"><a xlink:href="Singlet_8hh.html" target="_top" xlink:title="boca/multiplets/Singlet.hh">
<polygon fill="white" stroke="red" points="405,-207 405,-226 534,-226 534,-207 405,-207"/>
<text text-anchor="middle" x="469.5" y="-214" font-family="Helvetica,sans-Serif" font-size="10.00">boca/multiplets/Singlet.hh</text>
</a>
</g>
</g>
<!-- Node42&#45;&gt;Node44 -->
<g id="edge65" class="edge"><title>Node42&#45;&gt;Node44</title>
<path fill="none" stroke="midnightblue" d="M741.399,-271.547C680.316,-259.405 582.497,-239.961 522.34,-228.003"/>
<polygon fill="midnightblue" stroke="midnightblue" points="522.783,-224.523 512.292,-226.006 521.418,-231.389 522.783,-224.523"/>
</g>
<!-- Node45 -->
<g id="node45" class="node"><title>Node45</title>
<g id="a_node45"><a xlink:href="branch_2Bottom_8hh.html" target="_top" xlink:title="standardmodel/branch\l/Bottom.hh">
<polygon fill="white" stroke="red" points="740,-201.5 740,-231.5 853,-231.5 853,-201.5 740,-201.5"/>
<text text-anchor="start" x="748" y="-219.5" font-family="Helvetica,sans-Serif" font-size="10.00">standardmodel/branch</text>
<text text-anchor="middle" x="796.5" y="-208.5" font-family="Helvetica,sans-Serif" font-size="10.00">/Bottom.hh</text>
</a>
</g>
</g>
<!-- Node42&#45;&gt;Node45 -->
<g id="edge67" class="edge"><title>Node42&#45;&gt;Node45</title>
<path fill="none" stroke="midnightblue" d="M796.5,-268.396C796.5,-260.645 796.5,-250.812 796.5,-241.86"/>
<polygon fill="midnightblue" stroke="midnightblue" points="800,-241.576 796.5,-231.577 793,-241.577 800,-241.576"/>
</g>
<!-- Node43&#45;&gt;Node40 -->
<g id="edge63" class="edge"><title>Node43&#45;&gt;Node40</title>
<path fill="none" stroke="midnightblue" d="M332,-201.396C340.182,-191.361 351.209,-177.838 359.839,-167.253"/>
<polygon fill="midnightblue" stroke="midnightblue" points="362.804,-169.157 366.411,-159.195 357.379,-164.733 362.804,-169.157"/>
</g>
<!-- Node44&#45;&gt;Node40 -->
<g id="edge66" class="edge"><title>Node44&#45;&gt;Node40</title>
<path fill="none" stroke="midnightblue" d="M456.553,-206.734C440.647,-195.964 413.451,-177.55 394.531,-164.739"/>
<polygon fill="midnightblue" stroke="midnightblue" points="396.485,-161.836 386.242,-159.127 392.56,-167.632 396.485,-161.836"/>
</g>
<!-- Node46 -->
<g id="node46" class="node"><title>Node46</title>
<g id="a_node46"><a xlink:href="BottomBase_8hh.html" target="_top" xlink:title="standardmodel/branch\l/BottomBase.hh">
<polygon fill="white" stroke="red" points="755,-134.5 755,-164.5 868,-164.5 868,-134.5 755,-134.5"/>
<text text-anchor="start" x="763" y="-152.5" font-family="Helvetica,sans-Serif" font-size="10.00">standardmodel/branch</text>
<text text-anchor="middle" x="811.5" y="-141.5" font-family="Helvetica,sans-Serif" font-size="10.00">/BottomBase.hh</text>
</a>
</g>
</g>
<!-- Node45&#45;&gt;Node46 -->
<g id="edge68" class="edge"><title>Node45&#45;&gt;Node46</title>
<path fill="none" stroke="midnightblue" d="M799.755,-201.396C801.563,-193.56 803.863,-183.596 805.946,-174.565"/>
<polygon fill="midnightblue" stroke="midnightblue" points="809.413,-175.107 808.252,-164.577 802.593,-173.533 809.413,-175.107"/>
</g>
<!-- Node47&#45;&gt;Node46 -->
<g id="edge71" class="edge"><title>Node47&#45;&gt;Node46</title>
<path fill="none" stroke="midnightblue" d="M1121.37,-268.485C1149.89,-252.341 1187.29,-224.959 1166.5,-201 1147.9,-179.572 975.775,-163.054 878.206,-155.319"/>
<polygon fill="midnightblue" stroke="midnightblue" points="878.38,-151.822 868.137,-154.531 877.834,-158.801 878.38,-151.822"/>
</g>
<!-- Node48 -->
<g id="node48" class="node"><title>Node48</title>
<g id="a_node48"><a xlink:href="branch_2TwoBody_8hh.html" target="_top" xlink:title="boca/branch/TwoBody.hh">
<polygon fill="white" stroke="red" points="1029.5,-207 1029.5,-226 1157.5,-226 1157.5,-207 1029.5,-207"/>
<text text-anchor="middle" x="1093.5" y="-214" font-family="Helvetica,sans-Serif" font-size="10.00">boca/branch/TwoBody.hh</text>
</a>
</g>
</g>
<!-- Node47&#45;&gt;Node48 -->
<g id="edge70" class="edge"><title>Node47&#45;&gt;Node48</title>
<path fill="none" stroke="midnightblue" d="M1093.5,-268.396C1093.5,-259.064 1093.5,-246.714 1093.5,-236.517"/>
<polygon fill="midnightblue" stroke="midnightblue" points="1097,-236.195 1093.5,-226.195 1090,-236.195 1097,-236.195"/>
</g>
<!-- Node49&#45;&gt;Node14 -->
<g id="edge74" class="edge"><title>Node49&#45;&gt;Node14</title>
<path fill="none" stroke="midnightblue" d="M625.767,-206.839C646.596,-185.018 701.475,-127.526 728.302,-99.4221"/>
<polygon fill="midnightblue" stroke="midnightblue" points="730.993,-101.671 735.366,-92.0212 725.93,-96.8381 730.993,-101.671"/>
</g>
<!-- Node49&#45;&gt;Node25 -->
<g id="edge75" class="edge"><title>Node49&#45;&gt;Node25</title>
<path fill="none" stroke="midnightblue" d="M617.5,-206.839C617.5,-185.674 617.5,-130.948 617.5,-102.033"/>
<polygon fill="midnightblue" stroke="midnightblue" points="621,-102.021 617.5,-92.0212 614,-102.021 621,-102.021"/>
</g>
<!-- Node49&#45;&gt;Node40 -->
<g id="edge76" class="edge"><title>Node49&#45;&gt;Node40</title>
<path fill="none" stroke="midnightblue" d="M585.35,-206.936C541.737,-195.317 463.746,-174.541 415.534,-161.698"/>
<polygon fill="midnightblue" stroke="midnightblue" points="416.285,-158.276 405.721,-159.083 414.483,-165.04 416.285,-158.276"/>
</g>
<!-- Node50&#45;&gt;Node30 -->
<g id="edge78" class="edge"><title>Node50&#45;&gt;Node30</title>
<path fill="none" stroke="midnightblue" d="M1587.09,-343.5C1652.13,-333.173 1757.07,-305.463 1805.5,-232 1832.29,-191.357 1808.75,-130.877 1794.11,-101.21"/>
<polygon fill="midnightblue" stroke="midnightblue" points="1797.09,-99.3631 1789.39,-92.0841 1790.87,-102.575 1797.09,-99.3631"/>
</g>
</g>
</svg>
