<?xml version="1.0" encoding="UTF-8" standalone="no"?>
<!DOCTYPE svg PUBLIC "-//W3C//DTD SVG 1.1//EN"
 "http://www.w3.org/Graphics/SVG/1.1/DTD/svg11.dtd">
<!-- Generated by graphviz version 2.38.0 (20140413.2041)
 -->
<!-- Title: examples/toppartner/source/tagger/TopPartnerHadronicCharged.cpp Pages: 1 -->
<svg width="1352pt" height="776pt"
 viewBox="0.00 0.00 1352.00 776.00" xmlns="http://www.w3.org/2000/svg" xmlns:xlink="http://www.w3.org/1999/xlink">
<g id="graph0" class="graph" transform="scale(1 1) rotate(0) translate(4 772)">
<title>examples/toppartner/source/tagger/TopPartnerHadronicCharged.cpp</title>
<polygon fill="white" stroke="none" points="-4,4 -4,-772 1348,-772 1348,4 -4,4"/>
<!-- Node1 -->
<g id="node1" class="node"><title>Node1</title>
<polygon fill="#bfbfbf" stroke="black" points="1025.5,-726.5 1025.5,-767.5 1194.5,-767.5 1194.5,-726.5 1025.5,-726.5"/>
<text text-anchor="start" x="1033.5" y="-755.5" font-family="Helvetica,sans-Serif" font-size="10.00">examples/toppartner</text>
<text text-anchor="start" x="1033.5" y="-744.5" font-family="Helvetica,sans-Serif" font-size="10.00">/source/tagger/TopPartnerHadronic</text>
<text text-anchor="middle" x="1110" y="-733.5" font-family="Helvetica,sans-Serif" font-size="10.00">Charged.cpp</text>
</g>
<!-- Node2 -->
<g id="node2" class="node"><title>Node2</title>
<g id="a_node2"><a xlink:href="TopPartnerHadronicCharged_8hh.html" target="_top" xlink:title="toppartner/tagger/TopPartner\lHadronicCharged.hh">
<polygon fill="white" stroke="black" points="369.5,-659.5 369.5,-689.5 510.5,-689.5 510.5,-659.5 369.5,-659.5"/>
<text text-anchor="start" x="377.5" y="-677.5" font-family="Helvetica,sans-Serif" font-size="10.00">toppartner/tagger/TopPartner</text>
<text text-anchor="middle" x="440" y="-666.5" font-family="Helvetica,sans-Serif" font-size="10.00">HadronicCharged.hh</text>
</a>
</g>
</g>
<!-- Node1&#45;&gt;Node2 -->
<g id="edge1" class="edge"><title>Node1&#45;&gt;Node2</title>
<path fill="none" stroke="midnightblue" d="M1025.48,-737.107C895.498,-723.429 648.203,-697.408 520.612,-683.982"/>
<polygon fill="midnightblue" stroke="midnightblue" points="520.826,-680.486 510.515,-682.92 520.093,-687.447 520.826,-680.486"/>
</g>
<!-- Node49 -->
<g id="node49" class="node"><title>Node49</title>
<g id="a_node49"><a xlink:href="Particles_8hh.html" target="_top" xlink:title="boca/fastjet/Particles.hh">
<polygon fill="white" stroke="black" points="1222,-397 1222,-416 1344,-416 1344,-397 1222,-397"/>
<text text-anchor="middle" x="1283" y="-404" font-family="Helvetica,sans-Serif" font-size="10.00">boca/fastjet/Particles.hh</text>
</a>
</g>
</g>
<!-- Node1&#45;&gt;Node49 -->
<g id="edge70" class="edge"><title>Node1&#45;&gt;Node49</title>
<path fill="none" stroke="midnightblue" d="M1110,-726.418C1110,-699.749 1110,-650.514 1110,-608.5 1110,-608.5 1110,-608.5 1110,-539.5 1110,-473.8 1189.84,-436.448 1241.04,-419.248"/>
<polygon fill="midnightblue" stroke="midnightblue" points="1242.43,-422.478 1250.87,-416.074 1240.27,-415.817 1242.43,-422.478"/>
</g>
<!-- Node50 -->
<g id="node50" class="node"><title>Node50</title>
<g id="a_node50"><a xlink:href="DEBUG__MACROS_8hh.html" target="_top" xlink:title="boca/generic/DEBUG\l_MACROS.hh">
<polygon fill="white" stroke="black" points="1138.5,-659.5 1138.5,-689.5 1249.5,-689.5 1249.5,-659.5 1138.5,-659.5"/>
<text text-anchor="start" x="1146.5" y="-677.5" font-family="Helvetica,sans-Serif" font-size="10.00">boca/generic/DEBUG</text>
<text text-anchor="middle" x="1194" y="-666.5" font-family="Helvetica,sans-Serif" font-size="10.00">_MACROS.hh</text>
</a>
</g>
</g>
<!-- Node1&#45;&gt;Node50 -->
<g id="edge73" class="edge"><title>Node1&#45;&gt;Node50</title>
<path fill="none" stroke="midnightblue" d="M1133.4,-726.362C1144.57,-716.985 1157.94,-705.762 1169.28,-696.246"/>
<polygon fill="midnightblue" stroke="midnightblue" points="1171.71,-698.78 1177.12,-689.67 1167.21,-693.418 1171.71,-698.78"/>
</g>
<!-- Node3 -->
<g id="node3" class="node"><title>Node3</title>
<g id="a_node3"><a xlink:href="Quintet_8hh.html" target="_top" xlink:title="boca/multiplets/Quintet.hh">
<polygon fill="white" stroke="black" points="224.5,-598 224.5,-617 355.5,-617 355.5,-598 224.5,-598"/>
<text text-anchor="middle" x="290" y="-605" font-family="Helvetica,sans-Serif" font-size="10.00">boca/multiplets/Quintet.hh</text>
</a>
</g>
</g>
<!-- Node2&#45;&gt;Node3 -->
<g id="edge2" class="edge"><title>Node2&#45;&gt;Node3</title>
<path fill="none" stroke="midnightblue" d="M407.452,-659.396C381.133,-647.991 344.414,-632.079 319.071,-621.098"/>
<polygon fill="midnightblue" stroke="midnightblue" points="320.199,-617.772 309.632,-617.007 317.415,-624.195 320.199,-617.772"/>
</g>
<!-- Node17 -->
<g id="node17" class="node"><title>Node17</title>
<g id="a_node17"><a xlink:href="tagger_2TopHadronic_8hh.html" target="_top" xlink:title="standardmodel/tagger\l/TopHadronic.hh">
<polygon fill="white" stroke="black" points="385,-592.5 385,-622.5 495,-622.5 495,-592.5 385,-592.5"/>
<text text-anchor="start" x="393" y="-610.5" font-family="Helvetica,sans-Serif" font-size="10.00">standardmodel/tagger</text>
<text text-anchor="middle" x="440" y="-599.5" font-family="Helvetica,sans-Serif" font-size="10.00">/TopHadronic.hh</text>
</a>
</g>
</g>
<!-- Node2&#45;&gt;Node17 -->
<g id="edge17" class="edge"><title>Node2&#45;&gt;Node17</title>
<path fill="none" stroke="midnightblue" d="M440,-659.396C440,-651.645 440,-641.812 440,-632.86"/>
<polygon fill="midnightblue" stroke="midnightblue" points="443.5,-632.576 440,-622.577 436.5,-632.577 443.5,-632.576"/>
</g>
<!-- Node4 -->
<g id="node4" class="node"><title>Node4</title>
<g id="a_node4"><a xlink:href="Triplet_8hh.html" target="_top" xlink:title="boca/multiplets/Triplet.hh">
<polygon fill="white" stroke="black" points="215,-531 215,-550 341,-550 341,-531 215,-531"/>
<text text-anchor="middle" x="278" y="-538" font-family="Helvetica,sans-Serif" font-size="10.00">boca/multiplets/Triplet.hh</text>
</a>
</g>
</g>
<!-- Node3&#45;&gt;Node4 -->
<g id="edge3" class="edge"><title>Node3&#45;&gt;Node4</title>
<path fill="none" stroke="midnightblue" d="M288.382,-597.734C286.618,-588.183 283.745,-572.618 281.468,-560.283"/>
<polygon fill="midnightblue" stroke="midnightblue" points="284.85,-559.326 279.593,-550.127 277.966,-560.597 284.85,-559.326"/>
</g>
<!-- Node5 -->
<g id="node5" class="node"><title>Node5</title>
<g id="a_node5"><a xlink:href="Doublet_8hh.html" target="_top" xlink:title="boca/multiplets/Doublet.hh">
<polygon fill="white" stroke="black" points="199.5,-464 199.5,-483 332.5,-483 332.5,-464 199.5,-464"/>
<text text-anchor="middle" x="266" y="-471" font-family="Helvetica,sans-Serif" font-size="10.00">boca/multiplets/Doublet.hh</text>
</a>
</g>
</g>
<!-- Node4&#45;&gt;Node5 -->
<g id="edge4" class="edge"><title>Node4&#45;&gt;Node5</title>
<path fill="none" stroke="midnightblue" d="M276.382,-530.734C274.618,-521.183 271.745,-505.618 269.468,-493.283"/>
<polygon fill="midnightblue" stroke="midnightblue" points="272.85,-492.326 267.593,-483.127 265.966,-493.597 272.85,-492.326"/>
</g>
<!-- Node16 -->
<g id="node16" class="node"><title>Node16</title>
<g id="a_node16"><a xlink:href="multiplets_2ThreeBody_8hh.html" target="_top" xlink:title="boca/multiplets/ThreeBody.hh">
<polygon fill="white" stroke="black" points="35,-464 35,-483 181,-483 181,-464 35,-464"/>
<text text-anchor="middle" x="108" y="-471" font-family="Helvetica,sans-Serif" font-size="10.00">boca/multiplets/ThreeBody.hh</text>
</a>
</g>
</g>
<!-- Node4&#45;&gt;Node16 -->
<g id="edge15" class="edge"><title>Node4&#45;&gt;Node16</title>
<path fill="none" stroke="midnightblue" d="M255.425,-530.869C225.75,-519.522 173.449,-499.525 139.783,-486.652"/>
<polygon fill="midnightblue" stroke="midnightblue" points="140.988,-483.366 130.397,-483.064 138.488,-489.904 140.988,-483.366"/>
</g>
<!-- Node6 -->
<g id="node6" class="node"><title>Node6</title>
<g id="a_node6"><a xlink:href="multiplets_2TwoBody_8hh.html" target="_top" xlink:title="boca/multiplets/TwoBody.hh">
<polygon fill="white" stroke="red" points="38,-397 38,-416 178,-416 178,-397 38,-397"/>
<text text-anchor="middle" x="108" y="-404" font-family="Helvetica,sans-Serif" font-size="10.00">boca/multiplets/TwoBody.hh</text>
</a>
</g>
</g>
<!-- Node5&#45;&gt;Node6 -->
<g id="edge5" class="edge"><title>Node5&#45;&gt;Node6</title>
<path fill="none" stroke="midnightblue" d="M245.019,-463.869C217.75,-452.65 169.928,-432.977 138.609,-420.092"/>
<polygon fill="midnightblue" stroke="midnightblue" points="139.648,-416.735 129.068,-416.167 136.984,-423.209 139.648,-416.735"/>
</g>
<!-- Node7 -->
<g id="node7" class="node"><title>Node7</title>
<g id="a_node7"><a xlink:href="Sort_8hh.html" target="_top" xlink:title="boca/fastjet/Sort.hh">
<polygon fill="white" stroke="red" points="0,-330 0,-349 102,-349 102,-330 0,-330"/>
<text text-anchor="middle" x="51" y="-337" font-family="Helvetica,sans-Serif" font-size="10.00">boca/fastjet/Sort.hh</text>
</a>
</g>
</g>
<!-- Node6&#45;&gt;Node7 -->
<g id="edge6" class="edge"><title>Node6&#45;&gt;Node7</title>
<path fill="none" stroke="midnightblue" d="M100.313,-396.734C91.3388,-386.5 76.3117,-369.364 65.1995,-356.692"/>
<polygon fill="midnightblue" stroke="midnightblue" points="67.7903,-354.338 58.5655,-349.127 62.5272,-358.954 67.7903,-354.338"/>
</g>
<!-- Node8 -->
<g id="node8" class="node"><title>Node8</title>
<g id="a_node8"><a xlink:href="Id_8hh.html" target="_top" xlink:title="boca/identification\l/Id.hh">
<polygon fill="white" stroke="black" points="664.5,-123.5 664.5,-153.5 759.5,-153.5 759.5,-123.5 664.5,-123.5"/>
<text text-anchor="start" x="672.5" y="-141.5" font-family="Helvetica,sans-Serif" font-size="10.00">boca/identification</text>
<text text-anchor="middle" x="712" y="-130.5" font-family="Helvetica,sans-Serif" font-size="10.00">/Id.hh</text>
</a>
</g>
</g>
<!-- Node7&#45;&gt;Node8 -->
<g id="edge7" class="edge"><title>Node7&#45;&gt;Node8</title>
<path fill="none" stroke="midnightblue" d="M51.6189,-329.933C54.0112,-303.81 65.088,-224.821 113,-190 152.68,-161.162 504.13,-158.227 553,-154 586.473,-151.104 623.892,-147.7 654.018,-144.918"/>
<polygon fill="midnightblue" stroke="midnightblue" points="654.716,-148.369 664.351,-143.962 654.071,-141.398 654.716,-148.369"/>
</g>
<!-- Node9 -->
<g id="node9" class="node"><title>Node9</title>
<polygon fill="white" stroke="#bfbfbf" points="459.5,-67.5 459.5,-86.5 500.5,-86.5 500.5,-67.5 459.5,-67.5"/>
<text text-anchor="middle" x="480" y="-74.5" font-family="Helvetica,sans-Serif" font-size="10.00">string</text>
</g>
<!-- Node8&#45;&gt;Node9 -->
<g id="edge8" class="edge"><title>Node8&#45;&gt;Node9</title>
<path fill="none" stroke="midnightblue" d="M664.492,-125.316C618.37,-113.487 549.742,-95.8865 510.491,-85.8198"/>
<polygon fill="midnightblue" stroke="midnightblue" points="511.265,-82.4051 500.709,-83.3111 509.526,-89.1857 511.265,-82.4051"/>
</g>
<!-- Node10 -->
<g id="node10" class="node"><title>Node10</title>
<polygon fill="white" stroke="#bfbfbf" points="599,-67.5 599,-86.5 643,-86.5 643,-67.5 599,-67.5"/>
<text text-anchor="middle" x="621" y="-74.5" font-family="Helvetica,sans-Serif" font-size="10.00">vector</text>
</g>
<!-- Node8&#45;&gt;Node10 -->
<g id="edge9" class="edge"><title>Node8&#45;&gt;Node10</title>
<path fill="none" stroke="midnightblue" d="M690.434,-123.399C676.12,-114.04 657.388,-101.792 642.989,-92.3771"/>
<polygon fill="midnightblue" stroke="midnightblue" points="644.526,-89.2009 634.241,-86.6578 640.696,-95.0597 644.526,-89.2009"/>
</g>
<!-- Node11 -->
<g id="node11" class="node"><title>Node11</title>
<g id="a_node11"><a xlink:href="ElectronVolt_8hh.html" target="_top" xlink:title="boca/units/ElectronVolt.hh">
<polygon fill="white" stroke="black" points="854.5,-67.5 854.5,-86.5 985.5,-86.5 985.5,-67.5 854.5,-67.5"/>
<text text-anchor="middle" x="920" y="-74.5" font-family="Helvetica,sans-Serif" font-size="10.00">boca/units/ElectronVolt.hh</text>
</a>
</g>
</g>
<!-- Node8&#45;&gt;Node11 -->
<g id="edge10" class="edge"><title>Node8&#45;&gt;Node11</title>
<path fill="none" stroke="midnightblue" d="M759.719,-123.849C796.289,-113.388 846.144,-99.1269 880.493,-89.3013"/>
<polygon fill="midnightblue" stroke="midnightblue" points="881.532,-92.6445 890.184,-86.5291 879.607,-85.9144 881.532,-92.6445"/>
</g>
<!-- Node12 -->
<g id="node12" class="node"><title>Node12</title>
<polygon fill="white" stroke="#bfbfbf" points="609.5,-6 609.5,-25 766.5,-25 766.5,-6 609.5,-6"/>
<text text-anchor="middle" x="688" y="-13" font-family="Helvetica,sans-Serif" font-size="10.00">boost/units/base_dimension.hpp</text>
</g>
<!-- Node11&#45;&gt;Node12 -->
<g id="edge11" class="edge"><title>Node11&#45;&gt;Node12</title>
<path fill="none" stroke="midnightblue" d="M886.76,-67.4751C845.758,-56.9595 775.971,-39.0615 730.946,-27.5142"/>
<polygon fill="midnightblue" stroke="midnightblue" points="731.734,-24.1031 721.178,-25.0091 729.995,-30.8837 731.734,-24.1031"/>
</g>
<!-- Node13 -->
<g id="node13" class="node"><title>Node13</title>
<polygon fill="white" stroke="#bfbfbf" points="785,-6 785,-25 913,-25 913,-6 785,-6"/>
<text text-anchor="middle" x="849" y="-13" font-family="Helvetica,sans-Serif" font-size="10.00">boost/units/base_unit.hpp</text>
</g>
<!-- Node11&#45;&gt;Node13 -->
<g id="edge12" class="edge"><title>Node11&#45;&gt;Node13</title>
<path fill="none" stroke="midnightblue" d="M909.827,-67.4751C898.65,-58.1082 880.483,-42.8839 866.909,-31.5081"/>
<polygon fill="midnightblue" stroke="midnightblue" points="869.066,-28.7496 859.154,-25.0091 864.57,-34.1148 869.066,-28.7496"/>
</g>
<!-- Node14 -->
<g id="node14" class="node"><title>Node14</title>
<polygon fill="white" stroke="#bfbfbf" points="931.5,-6 931.5,-25 1052.5,-25 1052.5,-6 931.5,-6"/>
<text text-anchor="middle" x="992" y="-13" font-family="Helvetica,sans-Serif" font-size="10.00">boost/units/quantity.hpp</text>
</g>
<!-- Node11&#45;&gt;Node14 -->
<g id="edge13" class="edge"><title>Node11&#45;&gt;Node14</title>
<path fill="none" stroke="midnightblue" d="M930.316,-67.4751C941.651,-58.1082 960.073,-42.8839 973.839,-31.5081"/>
<polygon fill="midnightblue" stroke="midnightblue" points="976.224,-34.0773 981.703,-25.0091 971.765,-28.6813 976.224,-34.0773"/>
</g>
<!-- Node15 -->
<g id="node15" class="node"><title>Node15</title>
<polygon fill="white" stroke="#bfbfbf" points="1070.5,-0.5 1070.5,-30.5 1175.5,-30.5 1175.5,-0.5 1070.5,-0.5"/>
<text text-anchor="start" x="1078.5" y="-18.5" font-family="Helvetica,sans-Serif" font-size="10.00">boost/units/systems</text>
<text text-anchor="middle" x="1123" y="-7.5" font-family="Helvetica,sans-Serif" font-size="10.00">/si/energy.hpp</text>
</g>
<!-- Node11&#45;&gt;Node15 -->
<g id="edge14" class="edge"><title>Node11&#45;&gt;Node15</title>
<path fill="none" stroke="midnightblue" d="M949.085,-67.4751C979.276,-58.6259 1027.3,-44.5487 1065.25,-33.4277"/>
<polygon fill="midnightblue" stroke="midnightblue" points="1066.55,-36.6944 1075.16,-30.523 1064.58,-29.977 1066.55,-36.6944"/>
</g>
<!-- Node16&#45;&gt;Node6 -->
<g id="edge16" class="edge"><title>Node16&#45;&gt;Node6</title>
<path fill="none" stroke="midnightblue" d="M108,-463.734C108,-454.183 108,-438.618 108,-426.283"/>
<polygon fill="midnightblue" stroke="midnightblue" points="111.5,-426.127 108,-416.127 104.5,-426.127 111.5,-426.127"/>
</g>
<!-- Node17&#45;&gt;Node4 -->
<g id="edge19" class="edge"><title>Node17&#45;&gt;Node4</title>
<path fill="none" stroke="midnightblue" d="M404.848,-592.396C376.172,-580.89 336.064,-564.797 308.673,-553.807"/>
<polygon fill="midnightblue" stroke="midnightblue" points="309.786,-550.483 299.202,-550.007 307.18,-556.979 309.786,-550.483"/>
</g>
<!-- Node18 -->
<g id="node18" class="node"><title>Node18</title>
<polygon fill="white" stroke="#bfbfbf" points="350.5,-464 350.5,-483 409.5,-483 409.5,-464 350.5,-464"/>
<text text-anchor="middle" x="380" y="-471" font-family="Helvetica,sans-Serif" font-size="10.00">functional</text>
</g>
<!-- Node17&#45;&gt;Node18 -->
<g id="edge18" class="edge"><title>Node17&#45;&gt;Node18</title>
<path fill="none" stroke="midnightblue" d="M425.476,-592.283C416.578,-582.789 405.657,-569.59 399,-556 389.134,-535.858 384.257,-510.372 381.941,-493.311"/>
<polygon fill="midnightblue" stroke="midnightblue" points="385.373,-492.531 380.716,-483.015 378.422,-493.358 385.373,-492.531"/>
</g>
<!-- Node19 -->
<g id="node19" class="node"><title>Node19</title>
<g id="a_node19"><a xlink:href="tagger_2WHadronic_8hh.html" target="_top" xlink:title="standardmodel/tagger\l/WHadronic.hh">
<polygon fill="white" stroke="black" points="408,-525.5 408,-555.5 518,-555.5 518,-525.5 408,-525.5"/>
<text text-anchor="start" x="416" y="-543.5" font-family="Helvetica,sans-Serif" font-size="10.00">standardmodel/tagger</text>
<text text-anchor="middle" x="463" y="-532.5" font-family="Helvetica,sans-Serif" font-size="10.00">/WHadronic.hh</text>
</a>
</g>
</g>
<!-- Node17&#45;&gt;Node19 -->
<g id="edge20" class="edge"><title>Node17&#45;&gt;Node19</title>
<path fill="none" stroke="midnightblue" d="M444.991,-592.396C447.794,-584.474 451.366,-574.379 454.589,-565.271"/>
<polygon fill="midnightblue" stroke="midnightblue" points="457.983,-566.171 458.019,-555.577 451.384,-563.836 457.983,-566.171"/>
</g>
<!-- Node46 -->
<g id="node46" class="node"><title>Node46</title>
<g id="a_node46"><a xlink:href="branch_2TopHadronic_8hh.html" target="_top" xlink:title="standardmodel/branch\l/TopHadronic.hh">
<polygon fill="white" stroke="black" points="947.5,-458.5 947.5,-488.5 1060.5,-488.5 1060.5,-458.5 947.5,-458.5"/>
<text text-anchor="start" x="955.5" y="-476.5" font-family="Helvetica,sans-Serif" font-size="10.00">standardmodel/branch</text>
<text text-anchor="middle" x="1004" y="-465.5" font-family="Helvetica,sans-Serif" font-size="10.00">/TopHadronic.hh</text>
</a>
</g>
</g>
<!-- Node17&#45;&gt;Node46 -->
<g id="edge65" class="edge"><title>Node17&#45;&gt;Node46</title>
<path fill="none" stroke="midnightblue" d="M495.106,-593.603C599.367,-569.201 825.1,-516.37 937.55,-490.052"/>
<polygon fill="midnightblue" stroke="midnightblue" points="938.476,-493.43 947.416,-487.743 936.881,-486.614 938.476,-493.43"/>
</g>
<!-- Node19&#45;&gt;Node5 -->
<g id="edge42" class="edge"><title>Node19&#45;&gt;Node5</title>
<path fill="none" stroke="midnightblue" d="M420.254,-525.396C384.77,-513.688 334.893,-497.231 301.562,-486.234"/>
<polygon fill="midnightblue" stroke="midnightblue" points="302.376,-482.817 291.783,-483.007 300.183,-489.464 302.376,-482.817"/>
</g>
<!-- Node19&#45;&gt;Node18 -->
<g id="edge21" class="edge"><title>Node19&#45;&gt;Node18</title>
<path fill="none" stroke="midnightblue" d="M444.99,-525.396C431.408,-514.759 412.821,-500.203 399.002,-489.381"/>
<polygon fill="midnightblue" stroke="midnightblue" points="401.133,-486.605 391.102,-483.195 396.817,-492.116 401.133,-486.605"/>
</g>
<!-- Node20 -->
<g id="node20" class="node"><title>Node20</title>
<g id="a_node20"><a xlink:href="boca_2tagger_2Tagger_8hh.html" target="_top" xlink:title="boca/tagger/Tagger.hh">
<polygon fill="white" stroke="black" points="352,-397 352,-416 466,-416 466,-397 352,-397"/>
<text text-anchor="middle" x="409" y="-404" font-family="Helvetica,sans-Serif" font-size="10.00">boca/tagger/Tagger.hh</text>
</a>
</g>
</g>
<!-- Node19&#45;&gt;Node20 -->
<g id="edge22" class="edge"><title>Node19&#45;&gt;Node20</title>
<path fill="none" stroke="midnightblue" d="M457.221,-525.374C447.369,-501.29 427.332,-452.313 416.445,-425.7"/>
<polygon fill="midnightblue" stroke="midnightblue" points="419.543,-424.028 412.517,-416.097 413.064,-426.678 419.543,-424.028"/>
</g>
<!-- Node33 -->
<g id="node33" class="node"><title>Node33</title>
<g id="a_node33"><a xlink:href="Reader_8hh.html" target="_top" xlink:title="boca/multivariant/Reader.hh">
<polygon fill="white" stroke="black" points="594.5,-464 594.5,-483 733.5,-483 733.5,-464 594.5,-464"/>
<text text-anchor="middle" x="664" y="-471" font-family="Helvetica,sans-Serif" font-size="10.00">boca/multivariant/Reader.hh</text>
</a>
</g>
</g>
<!-- Node19&#45;&gt;Node33 -->
<g id="edge43" class="edge"><title>Node19&#45;&gt;Node33</title>
<path fill="none" stroke="midnightblue" d="M506.614,-525.396C542.974,-513.638 594.147,-497.089 628.155,-486.092"/>
<polygon fill="midnightblue" stroke="midnightblue" points="629.256,-489.414 637.694,-483.007 627.102,-482.754 629.256,-489.414"/>
</g>
<!-- Node43 -->
<g id="node43" class="node"><title>Node43</title>
<g id="a_node43"><a xlink:href="tagger_2Bottom_8hh.html" target="_top" xlink:title="standardmodel/tagger\l/Bottom.hh">
<polygon fill="white" stroke="red" points="466,-458.5 466,-488.5 576,-488.5 576,-458.5 466,-458.5"/>
<text text-anchor="start" x="474" y="-476.5" font-family="Helvetica,sans-Serif" font-size="10.00">standardmodel/tagger</text>
<text text-anchor="middle" x="521" y="-465.5" font-family="Helvetica,sans-Serif" font-size="10.00">/Bottom.hh</text>
</a>
</g>
</g>
<!-- Node19&#45;&gt;Node43 -->
<g id="edge60" class="edge"><title>Node19&#45;&gt;Node43</title>
<path fill="none" stroke="midnightblue" d="M475.585,-525.396C483.186,-516.878 493.029,-505.847 501.608,-496.233"/>
<polygon fill="midnightblue" stroke="midnightblue" points="504.393,-498.368 508.439,-488.577 499.17,-493.708 504.393,-498.368"/>
</g>
<!-- Node44 -->
<g id="node44" class="node"><title>Node44</title>
<g id="a_node44"><a xlink:href="branch_2WHadronic_8hh.html" target="_top" xlink:title="standardmodel/branch\l/WHadronic.hh">
<polygon fill="white" stroke="red" points="773.5,-458.5 773.5,-488.5 886.5,-488.5 886.5,-458.5 773.5,-458.5"/>
<text text-anchor="start" x="781.5" y="-476.5" font-family="Helvetica,sans-Serif" font-size="10.00">standardmodel/branch</text>
<text text-anchor="middle" x="830" y="-465.5" font-family="Helvetica,sans-Serif" font-size="10.00">/WHadronic.hh</text>
</a>
</g>
</g>
<!-- Node19&#45;&gt;Node44 -->
<g id="edge62" class="edge"><title>Node19&#45;&gt;Node44</title>
<path fill="none" stroke="midnightblue" d="M518.341,-529.698C583.9,-518.087 693.052,-498.755 763.239,-486.324"/>
<polygon fill="midnightblue" stroke="midnightblue" points="764.065,-489.732 773.302,-484.542 762.845,-482.84 764.065,-489.732"/>
</g>
<!-- Node20&#45;&gt;Node7 -->
<g id="edge25" class="edge"><title>Node20&#45;&gt;Node7</title>
<path fill="none" stroke="midnightblue" d="M354.852,-396.979C295.938,-387.52 199.048,-371.41 116,-355 110.114,-353.837 103.944,-352.55 97.8461,-351.236"/>
<polygon fill="midnightblue" stroke="midnightblue" points="98.2329,-347.738 87.7157,-349.019 96.7359,-354.576 98.2329,-347.738"/>
</g>
<!-- Node21 -->
<g id="node21" class="node"><title>Node21</title>
<g id="a_node21"><a xlink:href="Types_8hh.html" target="_top" xlink:title="boca/generic/Types.hh">
<polygon fill="white" stroke="red" points="122,-196 122,-215 238,-215 238,-196 122,-196"/>
<text text-anchor="middle" x="180" y="-203" font-family="Helvetica,sans-Serif" font-size="10.00">boca/generic/Types.hh</text>
</a>
</g>
</g>
<!-- Node20&#45;&gt;Node21 -->
<g id="edge23" class="edge"><title>Node20&#45;&gt;Node21</title>
<path fill="none" stroke="midnightblue" d="M351.798,-401.35C289.288,-395.485 195.065,-382.286 173,-355 142.514,-317.3 160.538,-254.967 172.295,-224.453"/>
<polygon fill="midnightblue" stroke="midnightblue" points="175.582,-225.661 176.102,-215.079 169.096,-223.027 175.582,-225.661"/>
</g>
<!-- Node22 -->
<g id="node22" class="node"><title>Node22</title>
<g id="a_node22"><a xlink:href="TreeBranch_8hh.html" target="_top" xlink:title="boca/io/TreeBranch.hh">
<polygon fill="white" stroke="red" points="298.5,-196 298.5,-215 413.5,-215 413.5,-196 298.5,-196"/>
<text text-anchor="middle" x="356" y="-203" font-family="Helvetica,sans-Serif" font-size="10.00">boca/io/TreeBranch.hh</text>
</a>
</g>
</g>
<!-- Node20&#45;&gt;Node22 -->
<g id="edge26" class="edge"><title>Node20&#45;&gt;Node22</title>
<path fill="none" stroke="midnightblue" d="M351.964,-400.496C293.162,-394.016 207.279,-380.41 187,-355 140.17,-296.32 258.941,-242.04 321.033,-218.634"/>
<polygon fill="midnightblue" stroke="midnightblue" points="322.309,-221.894 330.478,-215.146 319.885,-215.327 322.309,-221.894"/>
</g>
<!-- Node23 -->
<g id="node23" class="node"><title>Node23</title>
<g id="a_node23"><a xlink:href="fastjet_2Vector_8hh.html" target="_top" xlink:title="boca/fastjet/Vector.hh">
<polygon fill="white" stroke="red" points="196.5,-330 196.5,-349 309.5,-349 309.5,-330 196.5,-330"/>
<text text-anchor="middle" x="253" y="-337" font-family="Helvetica,sans-Serif" font-size="10.00">boca/fastjet/Vector.hh</text>
</a>
</g>
</g>
<!-- Node20&#45;&gt;Node23 -->
<g id="edge28" class="edge"><title>Node20&#45;&gt;Node23</title>
<path fill="none" stroke="midnightblue" d="M388.284,-396.869C361.361,-385.65 314.144,-365.977 283.222,-353.092"/>
<polygon fill="midnightblue" stroke="midnightblue" points="284.378,-349.783 273.801,-349.167 281.686,-356.244 284.378,-349.783"/>
</g>
<!-- Node24 -->
<g id="node24" class="node"><title>Node24</title>
<g id="a_node24"><a xlink:href="tagger_2Base_8hh.html" target="_top" xlink:title="boca/tagger/Base.hh">
<polygon fill="white" stroke="red" points="327.5,-330 327.5,-349 434.5,-349 434.5,-330 327.5,-330"/>
<text text-anchor="middle" x="381" y="-337" font-family="Helvetica,sans-Serif" font-size="10.00">boca/tagger/Base.hh</text>
</a>
</g>
</g>
<!-- Node20&#45;&gt;Node24 -->
<g id="edge29" class="edge"><title>Node20&#45;&gt;Node24</title>
<path fill="none" stroke="midnightblue" d="M405.224,-396.734C401.025,-386.988 394.13,-370.981 388.768,-358.532"/>
<polygon fill="midnightblue" stroke="midnightblue" points="391.887,-356.927 384.716,-349.127 385.458,-359.696 391.887,-356.927"/>
</g>
<!-- Node26 -->
<g id="node26" class="node"><title>Node26</title>
<g id="a_node26"><a xlink:href="PreCuts_8hh.html" target="_top" xlink:title="boca/identification\l/PreCuts.hh">
<polygon fill="white" stroke="red" points="491.5,-324.5 491.5,-354.5 586.5,-354.5 586.5,-324.5 491.5,-324.5"/>
<text text-anchor="start" x="499.5" y="-342.5" font-family="Helvetica,sans-Serif" font-size="10.00">boca/identification</text>
<text text-anchor="middle" x="539" y="-331.5" font-family="Helvetica,sans-Serif" font-size="10.00">/PreCuts.hh</text>
</a>
</g>
</g>
<!-- Node20&#45;&gt;Node26 -->
<g id="edge31" class="edge"><title>Node20&#45;&gt;Node26</title>
<path fill="none" stroke="midnightblue" d="M426.263,-396.869C445.371,-387.315 476.745,-371.627 501.551,-359.225"/>
<polygon fill="midnightblue" stroke="midnightblue" points="503.318,-362.254 510.697,-354.652 500.187,-355.993 503.318,-362.254"/>
</g>
<!-- Node27 -->
<g id="node27" class="node"><title>Node27</title>
<g id="a_node27"><a xlink:href="Filter_8hh.html" target="_top" xlink:title="boca/multivariant/Filter.hh">
<polygon fill="white" stroke="red" points="415.5,-129 415.5,-148 544.5,-148 544.5,-129 415.5,-129"/>
<text text-anchor="middle" x="480" y="-136" font-family="Helvetica,sans-Serif" font-size="10.00">boca/multivariant/Filter.hh</text>
</a>
</g>
</g>
<!-- Node20&#45;&gt;Node27 -->
<g id="edge32" class="edge"><title>Node20&#45;&gt;Node27</title>
<path fill="none" stroke="midnightblue" d="M416.518,-396.855C424.41,-387.289 436.55,-371.089 443,-355 470.652,-286.029 477.649,-196.535 479.411,-158.23"/>
<polygon fill="midnightblue" stroke="midnightblue" points="482.915,-158.194 479.807,-148.065 475.921,-157.922 482.915,-158.194"/>
</g>
<!-- Node28 -->
<g id="node28" class="node"><title>Node28</title>
<g id="a_node28"><a xlink:href="Debug_8hh.html" target="_top" xlink:title="boca/generic/Debug.hh">
<polygon fill="white" stroke="black" points="783.5,-330 783.5,-349 900.5,-349 900.5,-330 783.5,-330"/>
<text text-anchor="middle" x="842" y="-337" font-family="Helvetica,sans-Serif" font-size="10.00">boca/generic/Debug.hh</text>
</a>
</g>
</g>
<!-- Node20&#45;&gt;Node28 -->
<g id="edge35" class="edge"><title>Node20&#45;&gt;Node28</title>
<path fill="none" stroke="midnightblue" d="M466.1,-398.902C538.113,-390.282 665.626,-374.026 774,-355 780.63,-353.836 787.598,-352.491 794.443,-351.099"/>
<polygon fill="midnightblue" stroke="midnightblue" points="795.251,-354.506 804.329,-349.042 793.825,-347.653 795.251,-354.506"/>
</g>
<!-- Node21&#45;&gt;Node9 -->
<g id="edge24" class="edge"><title>Node21&#45;&gt;Node9</title>
<path fill="none" stroke="midnightblue" d="M200.62,-195.805C252.661,-173.861 389.488,-116.166 450.224,-90.5556"/>
<polygon fill="midnightblue" stroke="midnightblue" points="451.778,-93.6989 459.632,-86.5884 449.058,-87.2488 451.778,-93.6989"/>
</g>
<!-- Node22&#45;&gt;Node9 -->
<g id="edge27" class="edge"><title>Node22&#45;&gt;Node9</title>
<path fill="none" stroke="midnightblue" d="M359.579,-195.983C366.585,-180.09 383.419,-145.492 406,-123 419.108,-109.943 436.711,-99.0417 451.46,-91.2402"/>
<polygon fill="midnightblue" stroke="midnightblue" points="453.33,-94.216 460.664,-86.5696 450.163,-87.9737 453.33,-94.216"/>
</g>
<!-- Node25 -->
<g id="node25" class="node"><title>Node25</title>
<g id="a_node25"><a xlink:href="Phase_8hh.html" target="_top" xlink:title="boca/multivariant/Phase.hh">
<polygon fill="white" stroke="red" points="299.5,-263 299.5,-282 434.5,-282 434.5,-263 299.5,-263"/>
<text text-anchor="middle" x="367" y="-270" font-family="Helvetica,sans-Serif" font-size="10.00">boca/multivariant/Phase.hh</text>
</a>
</g>
</g>
<!-- Node24&#45;&gt;Node25 -->
<g id="edge30" class="edge"><title>Node24&#45;&gt;Node25</title>
<path fill="none" stroke="midnightblue" d="M379.112,-329.734C377.034,-320.085 373.634,-304.3 370.964,-291.906"/>
<polygon fill="midnightblue" stroke="midnightblue" points="374.385,-291.166 368.858,-282.127 367.542,-292.64 374.385,-291.166"/>
</g>
<!-- Node27&#45;&gt;Node9 -->
<g id="edge33" class="edge"><title>Node27&#45;&gt;Node9</title>
<path fill="none" stroke="midnightblue" d="M480,-128.975C480,-120.58 480,-107.481 480,-96.6631"/>
<polygon fill="midnightblue" stroke="midnightblue" points="483.5,-96.5091 480,-86.5091 476.5,-96.5091 483.5,-96.5091"/>
</g>
<!-- Node27&#45;&gt;Node10 -->
<g id="edge34" class="edge"><title>Node27&#45;&gt;Node10</title>
<path fill="none" stroke="midnightblue" d="M500.202,-128.975C524.074,-118.901 564.002,-102.053 591.373,-90.5023"/>
<polygon fill="midnightblue" stroke="midnightblue" points="592.983,-93.6217 600.836,-86.5091 590.262,-87.1724 592.983,-93.6217"/>
</g>
<!-- Node28&#45;&gt;Node9 -->
<g id="edge36" class="edge"><title>Node28&#45;&gt;Node9</title>
<path fill="none" stroke="midnightblue" d="M801.96,-329.969C738.486,-316.376 621.523,-291.02 618,-288 558.157,-236.705 603.585,-183.445 553,-123 541.478,-109.232 524.614,-98.4502 509.996,-90.896"/>
<polygon fill="midnightblue" stroke="midnightblue" points="511.315,-87.6449 500.794,-86.3989 508.242,-93.9341 511.315,-87.6449"/>
</g>
<!-- Node28&#45;&gt;Node10 -->
<g id="edge37" class="edge"><title>Node28&#45;&gt;Node10</title>
<path fill="none" stroke="midnightblue" d="M802.934,-329.951C745.739,-317.262 645.363,-294.264 640,-288 592.662,-232.705 607.398,-136.616 616.339,-96.4631"/>
<polygon fill="midnightblue" stroke="midnightblue" points="619.799,-97.0381 618.701,-86.5003 612.988,-95.423 619.799,-97.0381"/>
</g>
<!-- Node29 -->
<g id="node29" class="node"><title>Node29</title>
<polygon fill="white" stroke="#bfbfbf" points="503,-263 503,-282 555,-282 555,-263 503,-263"/>
<text text-anchor="middle" x="529" y="-270" font-family="Helvetica,sans-Serif" font-size="10.00">sstream</text>
</g>
<!-- Node28&#45;&gt;Node29 -->
<g id="edge38" class="edge"><title>Node28&#45;&gt;Node29</title>
<path fill="none" stroke="midnightblue" d="M803.213,-329.975C793.675,-327.949 783.479,-325.842 774,-324 683.194,-306.351 658.377,-311.853 569,-288 566.027,-287.207 562.963,-286.287 559.915,-285.305"/>
<polygon fill="midnightblue" stroke="midnightblue" points="560.965,-281.965 550.371,-282.023 558.69,-288.584 560.965,-281.965"/>
</g>
<!-- Node30 -->
<g id="node30" class="node"><title>Node30</title>
<polygon fill="white" stroke="#bfbfbf" points="649,-263 649,-282 699,-282 699,-263 649,-263"/>
<text text-anchor="middle" x="674" y="-270" font-family="Helvetica,sans-Serif" font-size="10.00">iomanip</text>
</g>
<!-- Node28&#45;&gt;Node30 -->
<g id="edge39" class="edge"><title>Node28&#45;&gt;Node30</title>
<path fill="none" stroke="midnightblue" d="M818.16,-329.865C791.272,-320.044 746.298,-303.375 708,-288 706.403,-287.359 704.768,-286.693 703.12,-286.015"/>
<polygon fill="midnightblue" stroke="midnightblue" points="704.293,-282.712 693.717,-282.077 701.589,-289.168 704.293,-282.712"/>
</g>
<!-- Node31 -->
<g id="node31" class="node"><title>Node31</title>
<polygon fill="white" stroke="#bfbfbf" points="717,-263 717,-282 771,-282 771,-263 717,-263"/>
<text text-anchor="middle" x="744" y="-270" font-family="Helvetica,sans-Serif" font-size="10.00">iostream</text>
</g>
<!-- Node28&#45;&gt;Node31 -->
<g id="edge40" class="edge"><title>Node28&#45;&gt;Node31</title>
<path fill="none" stroke="midnightblue" d="M828.783,-329.734C812.546,-318.964 784.783,-300.55 765.469,-287.739"/>
<polygon fill="midnightblue" stroke="midnightblue" points="767.275,-284.738 757.007,-282.127 763.406,-290.571 767.275,-284.738"/>
</g>
<!-- Node32 -->
<g id="node32" class="node"><title>Node32</title>
<polygon fill="white" stroke="#bfbfbf" points="789.5,-257.5 789.5,-287.5 894.5,-287.5 894.5,-257.5 789.5,-257.5"/>
<text text-anchor="start" x="797.5" y="-275.5" font-family="Helvetica,sans-Serif" font-size="10.00">boost/units/systems</text>
<text text-anchor="middle" x="842" y="-264.5" font-family="Helvetica,sans-Serif" font-size="10.00">/si/io.hpp</text>
</g>
<!-- Node28&#45;&gt;Node32 -->
<g id="edge41" class="edge"><title>Node28&#45;&gt;Node32</title>
<path fill="none" stroke="midnightblue" d="M842,-329.734C842,-321.541 842,-308.923 842,-297.714"/>
<polygon fill="midnightblue" stroke="midnightblue" points="845.5,-297.589 842,-287.589 838.5,-297.589 845.5,-297.589"/>
</g>
<!-- Node33&#45;&gt;Node25 -->
<g id="edge47" class="edge"><title>Node33&#45;&gt;Node25</title>
<path fill="none" stroke="midnightblue" d="M650.767,-463.772C638.366,-454.833 620.374,-439.759 611,-422 590.398,-382.972 625.318,-356.07 595,-324 574.539,-302.357 502.46,-288.922 444.754,-281.403"/>
<polygon fill="midnightblue" stroke="midnightblue" points="444.89,-277.893 434.53,-280.112 444.013,-284.838 444.89,-277.893"/>
</g>
<!-- Node33&#45;&gt;Node26 -->
<g id="edge48" class="edge"><title>Node33&#45;&gt;Node26</title>
<path fill="none" stroke="midnightblue" d="M641.768,-463.864C622.785,-455.55 595.806,-441.38 578,-422 562.741,-405.392 552.32,-381.731 546.116,-364.178"/>
<polygon fill="midnightblue" stroke="midnightblue" points="549.423,-363.032 542.946,-354.649 542.781,-365.242 549.423,-363.032"/>
</g>
<!-- Node34 -->
<g id="node34" class="node"><title>Node34</title>
<polygon fill="white" stroke="#bfbfbf" points="620.5,-397 620.5,-416 707.5,-416 707.5,-397 620.5,-397"/>
<text text-anchor="middle" x="664" y="-404" font-family="Helvetica,sans-Serif" font-size="10.00">TMVA/Reader.h</text>
</g>
<!-- Node33&#45;&gt;Node34 -->
<g id="edge44" class="edge"><title>Node33&#45;&gt;Node34</title>
<path fill="none" stroke="midnightblue" d="M664,-463.734C664,-454.183 664,-438.618 664,-426.283"/>
<polygon fill="midnightblue" stroke="midnightblue" points="667.5,-426.127 664,-416.127 660.5,-426.127 667.5,-426.127"/>
</g>
<!-- Node35 -->
<g id="node35" class="node"><title>Node35</title>
<g id="a_node35"><a xlink:href="Options_8hh.html" target="_top" xlink:title="boca/generic/Options.hh">
<polygon fill="white" stroke="black" points="643,-330 643,-349 765,-349 765,-330 643,-330"/>
<text text-anchor="middle" x="704" y="-337" font-family="Helvetica,sans-Serif" font-size="10.00">boca/generic/Options.hh</text>
</a>
</g>
</g>
<!-- Node33&#45;&gt;Node35 -->
<g id="edge45" class="edge"><title>Node33&#45;&gt;Node35</title>
<path fill="none" stroke="midnightblue" d="M678.105,-463.68C690.718,-454.879 708.355,-440.082 716,-422 724.671,-401.492 718.357,-375.785 712.078,-358.788"/>
<polygon fill="midnightblue" stroke="midnightblue" points="715.298,-357.415 708.307,-349.454 708.808,-360.037 715.298,-357.415"/>
</g>
<!-- Node36 -->
<g id="node36" class="node"><title>Node36</title>
<g id="a_node36"><a xlink:href="boca_2event_2Event_8hh.html" target="_top" xlink:title="boca/event/Event.hh">
<polygon fill="white" stroke="red" points="764.5,-397 764.5,-416 871.5,-416 871.5,-397 764.5,-397"/>
<text text-anchor="middle" x="818" y="-404" font-family="Helvetica,sans-Serif" font-size="10.00">boca/event/Event.hh</text>
</a>
</g>
</g>
<!-- Node33&#45;&gt;Node36 -->
<g id="edge49" class="edge"><title>Node33&#45;&gt;Node36</title>
<path fill="none" stroke="midnightblue" d="M684.45,-463.869C711.028,-452.65 757.64,-432.977 788.166,-420.092"/>
<polygon fill="midnightblue" stroke="midnightblue" points="789.613,-423.28 797.465,-416.167 786.891,-416.831 789.613,-423.28"/>
</g>
<!-- Node35&#45;&gt;Node29 -->
<g id="edge46" class="edge"><title>Node35&#45;&gt;Node29</title>
<path fill="none" stroke="midnightblue" d="M680.761,-329.869C650.213,-318.522 596.374,-298.525 561.717,-285.652"/>
<polygon fill="midnightblue" stroke="midnightblue" points="562.649,-282.265 552.056,-282.064 560.212,-288.827 562.649,-282.265"/>
</g>
<!-- Node37 -->
<g id="node37" class="node"><title>Node37</title>
<g id="a_node37"><a xlink:href="fastjet_2Particle_8hh.html" target="_top" xlink:title="boca/fastjet/Particle.hh">
<polygon fill="white" stroke="black" points="944.5,-330 944.5,-349 1061.5,-349 1061.5,-330 944.5,-330"/>
<text text-anchor="middle" x="1003" y="-337" font-family="Helvetica,sans-Serif" font-size="10.00">boca/fastjet/Particle.hh</text>
</a>
</g>
</g>
<!-- Node36&#45;&gt;Node37 -->
<g id="edge50" class="edge"><title>Node36&#45;&gt;Node37</title>
<path fill="none" stroke="midnightblue" d="M842.567,-396.869C874.999,-385.473 932.265,-365.353 968.884,-352.487"/>
<polygon fill="midnightblue" stroke="midnightblue" points="970.352,-355.681 978.626,-349.064 968.032,-349.076 970.352,-355.681"/>
</g>
<!-- Node38 -->
<g id="node38" class="node"><title>Node38</title>
<g id="a_node38"><a xlink:href="PseudoJet_8hh.html" target="_top" xlink:title="boca/fastjet/PseudoJet.hh">
<polygon fill="white" stroke="black" points="927.5,-196 927.5,-215 1058.5,-215 1058.5,-196 927.5,-196"/>
<text text-anchor="middle" x="993" y="-203" font-family="Helvetica,sans-Serif" font-size="10.00">boca/fastjet/PseudoJet.hh</text>
</a>
</g>
</g>
<!-- Node37&#45;&gt;Node38 -->
<g id="edge51" class="edge"><title>Node37&#45;&gt;Node38</title>
<path fill="none" stroke="midnightblue" d="M1017.37,-329.746C1030.22,-320.991 1048.19,-306.225 1056,-288 1061.43,-275.336 1061.96,-269.421 1056,-257 1048.46,-241.29 1033.39,-228.93 1019.87,-220.37"/>
<polygon fill="midnightblue" stroke="midnightblue" points="1021.27,-217.13 1010.88,-215.057 1017.71,-223.157 1021.27,-217.13"/>
</g>
<!-- Node41 -->
<g id="node41" class="node"><title>Node41</title>
<g id="a_node41"><a xlink:href="ParticleInfo_8hh.html" target="_top" xlink:title="boca/fastjet/ParticleInfo.hh">
<polygon fill="white" stroke="black" points="913,-263 913,-282 1047,-282 1047,-263 913,-263"/>
<text text-anchor="middle" x="980" y="-270" font-family="Helvetica,sans-Serif" font-size="10.00">boca/fastjet/ParticleInfo.hh</text>
</a>
</g>
</g>
<!-- Node37&#45;&gt;Node41 -->
<g id="edge56" class="edge"><title>Node37&#45;&gt;Node41</title>
<path fill="none" stroke="midnightblue" d="M999.898,-329.734C996.484,-320.085 990.898,-304.3 986.513,-291.906"/>
<polygon fill="midnightblue" stroke="midnightblue" points="989.688,-290.387 983.053,-282.127 983.089,-292.722 989.688,-290.387"/>
</g>
<!-- Node38&#45;&gt;Node38 -->
<g id="edge53" class="edge"><title>Node38&#45;&gt;Node38</title>
<path fill="none" stroke="midnightblue" d="M1019.08,-215.064C1046.16,-220.87 1076.5,-217.682 1076.5,-205.5 1076.5,-194.793 1053.06,-191.034 1029,-194.222"/>
<polygon fill="midnightblue" stroke="midnightblue" points="1028.33,-190.785 1019.08,-195.936 1029.53,-197.683 1028.33,-190.785"/>
</g>
<!-- Node39 -->
<g id="node39" class="node"><title>Node39</title>
<polygon fill="white" stroke="#bfbfbf" points="934.5,-129 934.5,-148 1037.5,-148 1037.5,-129 934.5,-129"/>
<text text-anchor="middle" x="986" y="-136" font-family="Helvetica,sans-Serif" font-size="10.00">boost/operators.hpp</text>
</g>
<!-- Node38&#45;&gt;Node39 -->
<g id="edge52" class="edge"><title>Node38&#45;&gt;Node39</title>
<path fill="none" stroke="midnightblue" d="M992.056,-195.734C991.027,-186.183 989.351,-170.618 988.023,-158.283"/>
<polygon fill="midnightblue" stroke="midnightblue" points="991.48,-157.695 986.929,-148.127 984.52,-158.445 991.48,-157.695"/>
</g>
<!-- Node40 -->
<g id="node40" class="node"><title>Node40</title>
<g id="a_node40"><a xlink:href="Prefixes_8hh.html" target="_top" xlink:title="boca/units/Prefixes.hh">
<polygon fill="white" stroke="red" points="1056,-129 1056,-148 1170,-148 1170,-129 1056,-129"/>
<text text-anchor="middle" x="1113" y="-136" font-family="Helvetica,sans-Serif" font-size="10.00">boca/units/Prefixes.hh</text>
</a>
</g>
</g>
<!-- Node38&#45;&gt;Node40 -->
<g id="edge54" class="edge"><title>Node38&#45;&gt;Node40</title>
<path fill="none" stroke="midnightblue" d="M1009.18,-195.734C1029.43,-184.769 1064.3,-165.881 1087.99,-153.049"/>
<polygon fill="midnightblue" stroke="midnightblue" points="1089.95,-155.968 1097.07,-148.127 1086.61,-149.813 1089.95,-155.968"/>
</g>
<!-- Node40&#45;&gt;Node11 -->
<g id="edge55" class="edge"><title>Node40&#45;&gt;Node11</title>
<path fill="none" stroke="midnightblue" d="M1085.35,-128.975C1051.81,-118.636 995.127,-101.161 957.632,-89.6017"/>
<polygon fill="midnightblue" stroke="midnightblue" points="958.188,-86.1106 947.601,-86.5091 956.126,-92.7999 958.188,-86.1106"/>
</g>
<!-- Node41&#45;&gt;Node38 -->
<g id="edge57" class="edge"><title>Node41&#45;&gt;Node38</title>
<path fill="none" stroke="midnightblue" d="M981.753,-262.734C983.663,-253.183 986.776,-237.618 989.243,-225.283"/>
<polygon fill="midnightblue" stroke="midnightblue" points="992.745,-225.62 991.275,-215.127 985.881,-224.247 992.745,-225.62"/>
</g>
<!-- Node42 -->
<g id="node42" class="node"><title>Node42</title>
<g id="a_node42"><a xlink:href="Family_8hh.html" target="_top" xlink:title="boca/identification\l/Family.hh">
<polygon fill="white" stroke="red" points="735.5,-190.5 735.5,-220.5 830.5,-220.5 830.5,-190.5 735.5,-190.5"/>
<text text-anchor="start" x="743.5" y="-208.5" font-family="Helvetica,sans-Serif" font-size="10.00">boca/identification</text>
<text text-anchor="middle" x="783" y="-197.5" font-family="Helvetica,sans-Serif" font-size="10.00">/Family.hh</text>
</a>
</g>
</g>
<!-- Node41&#45;&gt;Node42 -->
<g id="edge58" class="edge"><title>Node41&#45;&gt;Node42</title>
<path fill="none" stroke="midnightblue" d="M953.84,-262.869C923.767,-252.946 873.646,-236.408 835.448,-223.805"/>
<polygon fill="midnightblue" stroke="midnightblue" points="836.109,-220.338 825.516,-220.528 833.916,-226.985 836.109,-220.338"/>
</g>
<!-- Node42&#45;&gt;Node8 -->
<g id="edge59" class="edge"><title>Node42&#45;&gt;Node8</title>
<path fill="none" stroke="midnightblue" d="M767.594,-190.396C758.011,-181.623 745.515,-170.183 734.798,-160.371"/>
<polygon fill="midnightblue" stroke="midnightblue" points="737.115,-157.748 727.376,-153.577 732.388,-162.911 737.115,-157.748"/>
</g>
<!-- Node43&#45;&gt;Node20 -->
<g id="edge61" class="edge"><title>Node43&#45;&gt;Node20</title>
<path fill="none" stroke="midnightblue" d="M496.698,-458.396C477.655,-447.344 451.32,-432.061 432.489,-421.132"/>
<polygon fill="midnightblue" stroke="midnightblue" points="434.064,-417.999 423.658,-416.007 430.55,-424.054 434.064,-417.999"/>
</g>
<!-- Node45 -->
<g id="node45" class="node"><title>Node45</title>
<g id="a_node45"><a xlink:href="BottomBase_8hh.html" target="_top" xlink:title="standardmodel/branch\l/BottomBase.hh">
<polygon fill="white" stroke="red" points="889.5,-391.5 889.5,-421.5 1002.5,-421.5 1002.5,-391.5 889.5,-391.5"/>
<text text-anchor="start" x="897.5" y="-409.5" font-family="Helvetica,sans-Serif" font-size="10.00">standardmodel/branch</text>
<text text-anchor="middle" x="946" y="-398.5" font-family="Helvetica,sans-Serif" font-size="10.00">/BottomBase.hh</text>
</a>
</g>
</g>
<!-- Node44&#45;&gt;Node45 -->
<g id="edge63" class="edge"><title>Node44&#45;&gt;Node45</title>
<path fill="none" stroke="midnightblue" d="M855.17,-458.396C871.739,-449.112 893.638,-436.841 911.781,-426.674"/>
<polygon fill="midnightblue" stroke="midnightblue" points="913.866,-429.518 920.879,-421.577 910.444,-423.412 913.866,-429.518"/>
</g>
<!-- Node45&#45;&gt;Node40 -->
<g id="edge64" class="edge"><title>Node45&#45;&gt;Node40</title>
<path fill="none" stroke="midnightblue" d="M993.251,-391.409C1023.78,-381.372 1059.67,-367.499 1070,-355 1118.32,-296.518 1117.52,-198.875 1114.75,-158.187"/>
<polygon fill="midnightblue" stroke="midnightblue" points="1118.23,-157.784 1113.94,-148.097 1111.25,-158.346 1118.23,-157.784"/>
</g>
<!-- Node46&#45;&gt;Node45 -->
<g id="edge67" class="edge"><title>Node46&#45;&gt;Node45</title>
<path fill="none" stroke="midnightblue" d="M991.415,-458.396C983.814,-449.878 973.971,-438.847 965.392,-429.233"/>
<polygon fill="midnightblue" stroke="midnightblue" points="967.83,-426.708 958.561,-421.577 962.607,-431.368 967.83,-426.708"/>
</g>
<!-- Node47 -->
<g id="node47" class="node"><title>Node47</title>
<g id="a_node47"><a xlink:href="Multi_8hh.html" target="_top" xlink:title="boca/branch/Multi.hh">
<polygon fill="white" stroke="red" points="1020.5,-397 1020.5,-416 1127.5,-416 1127.5,-397 1020.5,-397"/>
<text text-anchor="middle" x="1074" y="-404" font-family="Helvetica,sans-Serif" font-size="10.00">boca/branch/Multi.hh</text>
</a>
</g>
</g>
<!-- Node46&#45;&gt;Node47 -->
<g id="edge66" class="edge"><title>Node46&#45;&gt;Node47</title>
<path fill="none" stroke="midnightblue" d="M1019.19,-458.396C1030.32,-448.06 1045.44,-434.024 1056.97,-423.309"/>
<polygon fill="midnightblue" stroke="midnightblue" points="1059.69,-425.564 1064.64,-416.195 1054.93,-420.434 1059.69,-425.564"/>
</g>
<!-- Node48 -->
<g id="node48" class="node"><title>Node48</title>
<g id="a_node48"><a xlink:href="LeptonVeto_8hh.html" target="_top" xlink:title="standardmodel/branch\l/LeptonVeto.hh">
<polygon fill="white" stroke="red" points="1141.5,-190.5 1141.5,-220.5 1254.5,-220.5 1254.5,-190.5 1141.5,-190.5"/>
<text text-anchor="start" x="1149.5" y="-208.5" font-family="Helvetica,sans-Serif" font-size="10.00">standardmodel/branch</text>
<text text-anchor="middle" x="1198" y="-197.5" font-family="Helvetica,sans-Serif" font-size="10.00">/LeptonVeto.hh</text>
</a>
</g>
</g>
<!-- Node46&#45;&gt;Node48 -->
<g id="edge68" class="edge"><title>Node46&#45;&gt;Node48</title>
<path fill="none" stroke="midnightblue" d="M1060.65,-462.889C1086.84,-455.722 1116.42,-443.327 1136,-422 1186.25,-367.277 1196.03,-274.394 1197.76,-230.649"/>
<polygon fill="midnightblue" stroke="midnightblue" points="1201.26,-230.734 1198.05,-220.639 1194.26,-230.535 1201.26,-230.734"/>
</g>
<!-- Node48&#45;&gt;Node40 -->
<g id="edge69" class="edge"><title>Node48&#45;&gt;Node40</title>
<path fill="none" stroke="midnightblue" d="M1179.56,-190.396C1165.65,-179.759 1146.61,-165.203 1132.46,-154.381"/>
<polygon fill="midnightblue" stroke="midnightblue" points="1134.44,-151.489 1124.37,-148.195 1130.19,-157.049 1134.44,-151.489"/>
</g>
<!-- Node49&#45;&gt;Node8 -->
<g id="edge72" class="edge"><title>Node49&#45;&gt;Node8</title>
<path fill="none" stroke="midnightblue" d="M1285.56,-396.947C1294.69,-364.549 1322.07,-248.257 1264,-190 1255.33,-181.304 909.477,-154.364 769.711,-143.807"/>
<polygon fill="midnightblue" stroke="midnightblue" points="769.849,-140.307 759.614,-143.045 769.322,-147.287 769.849,-140.307"/>
</g>
<!-- Node49&#45;&gt;Node37 -->
<g id="edge71" class="edge"><title>Node49&#45;&gt;Node37</title>
<path fill="none" stroke="midnightblue" d="M1246.11,-396.936C1195.64,-385.22 1105.06,-364.193 1049.85,-351.377"/>
<polygon fill="midnightblue" stroke="midnightblue" points="1050.51,-347.935 1039.97,-349.083 1048.92,-354.754 1050.51,-347.935"/>
</g>
<!-- Node50&#45;&gt;Node28 -->
<g id="edge74" class="edge"><title>Node50&#45;&gt;Node28</title>
<path fill="none" stroke="midnightblue" d="M1194,-659.241C1194,-635.034 1194,-584.354 1194,-541.5 1194,-541.5 1194,-541.5 1194,-472.5 1194,-428.042 1173.64,-414.661 1136,-391 1131.1,-387.921 989.731,-364.525 904.84,-350.683"/>
<polygon fill="midnightblue" stroke="midnightblue" points="905.214,-347.197 894.781,-349.044 904.088,-354.106 905.214,-347.197"/>
</g>
</g>
</svg>
