<?xml version="1.0" encoding="UTF-8" standalone="no"?>
<!DOCTYPE svg PUBLIC "-//W3C//DTD SVG 1.1//EN"
 "http://www.w3.org/Graphics/SVG/1.1/DTD/svg11.dtd">
<!-- Generated by graphviz version 2.38.0 (20140413.2041)
 -->
<!-- Title: examples/toppartner/source/tagger/TruthLevel.cpp Pages: 1 -->
<svg width="2133pt" height="553pt"
 viewBox="0.00 0.00 2133.15 553.00" xmlns="http://www.w3.org/2000/svg" xmlns:xlink="http://www.w3.org/1999/xlink">
<g id="graph0" class="graph" transform="scale(1 1) rotate(0) translate(4 549)">
<title>examples/toppartner/source/tagger/TruthLevel.cpp</title>
<polygon fill="white" stroke="none" points="-4,4 -4,-549 2129.15,-549 2129.15,4 -4,4"/>
<!-- Node1 -->
<g id="node1" class="node"><title>Node1</title>
<polygon fill="#bfbfbf" stroke="black" points="604.5,-514.5 604.5,-544.5 750.5,-544.5 750.5,-514.5 604.5,-514.5"/>
<text text-anchor="start" x="612.5" y="-532.5" font-family="Helvetica,sans-Serif" font-size="10.00">examples/toppartner</text>
<text text-anchor="middle" x="677.5" y="-521.5" font-family="Helvetica,sans-Serif" font-size="10.00">/source/tagger/TruthLevel.cpp</text>
</g>
<!-- Node2 -->
<g id="node2" class="node"><title>Node2</title>
<g id="a_node2"><a xlink:href="boca_2Event_8hh.html" target="_top" xlink:title="boca/Event.hh">
<polygon fill="white" stroke="black" points="141.5,-386 141.5,-405 221.5,-405 221.5,-386 141.5,-386"/>
<text text-anchor="middle" x="181.5" y="-393" font-family="Helvetica,sans-Serif" font-size="10.00">boca/Event.hh</text>
</a>
</g>
</g>
<!-- Node1&#45;&gt;Node2 -->
<g id="edge1" class="edge"><title>Node1&#45;&gt;Node2</title>
<path fill="none" stroke="midnightblue" d="M610.68,-514.494C566.466,-504.934 507.307,-491.582 455.5,-478 369.763,-455.523 270.298,-424.742 217.987,-408.183"/>
<polygon fill="midnightblue" stroke="midnightblue" points="218.762,-404.757 208.172,-405.067 216.644,-411.429 218.762,-404.757"/>
</g>
<!-- Node10 -->
<g id="node10" class="node"><title>Node10</title>
<g id="a_node10"><a xlink:href="PreCuts_8hh.html" target="_top" xlink:title="boca/PreCuts.hh">
<polygon fill="white" stroke="black" points="874.5,-324.5 874.5,-343.5 964.5,-343.5 964.5,-324.5 874.5,-324.5"/>
<text text-anchor="middle" x="919.5" y="-331.5" font-family="Helvetica,sans-Serif" font-size="10.00">boca/PreCuts.hh</text>
</a>
</g>
</g>
<!-- Node1&#45;&gt;Node10 -->
<g id="edge13" class="edge"><title>Node1&#45;&gt;Node10</title>
<path fill="none" stroke="midnightblue" d="M696.26,-514.234C724.971,-492.325 781.437,-448.945 828.5,-411 854.114,-390.349 883.219,-365.857 901.47,-350.372"/>
<polygon fill="midnightblue" stroke="midnightblue" points="904.143,-352.693 909.495,-343.549 899.609,-347.36 904.143,-352.693"/>
</g>
<!-- Node19 -->
<g id="node19" class="node"><title>Node19</title>
<g id="a_node19"><a xlink:href="Id_8hh.html" target="_top" xlink:title="boca/physics/Id.hh">
<polygon fill="white" stroke="black" points="548,-196 548,-215 647,-215 647,-196 548,-196"/>
<text text-anchor="middle" x="597.5" y="-203" font-family="Helvetica,sans-Serif" font-size="10.00">boca/physics/Id.hh</text>
</a>
</g>
</g>
<!-- Node1&#45;&gt;Node19 -->
<g id="edge43" class="edge"><title>Node1&#45;&gt;Node19</title>
<path fill="none" stroke="midnightblue" d="M680.229,-514.195C684.898,-485.091 690.938,-418.492 657.5,-380 618.744,-335.387 565.185,-391.106 529.5,-344 506.151,-313.179 512.126,-291.544 529.5,-257 537.684,-240.728 553.869,-228.379 568.395,-219.967"/>
<polygon fill="midnightblue" stroke="midnightblue" points="570.458,-222.831 577.601,-215.006 567.137,-216.669 570.458,-222.831"/>
</g>
<!-- Node35 -->
<g id="node35" class="node"><title>Node35</title>
<g id="a_node35"><a xlink:href="Exception_8hh.html" target="_top" xlink:title="boca/generic/Exception.hh">
<polygon fill="white" stroke="black" points="1749.5,-453 1749.5,-472 1881.5,-472 1881.5,-453 1749.5,-453"/>
<text text-anchor="middle" x="1815.5" y="-460" font-family="Helvetica,sans-Serif" font-size="10.00">boca/generic/Exception.hh</text>
</a>
</g>
</g>
<!-- Node1&#45;&gt;Node35 -->
<g id="edge40" class="edge"><title>Node1&#45;&gt;Node35</title>
<path fill="none" stroke="midnightblue" d="M750.854,-524.31C955.448,-512.624 1530.99,-479.751 1739.15,-467.861"/>
<polygon fill="midnightblue" stroke="midnightblue" points="1739.59,-471.341 1749.38,-467.277 1739.19,-464.353 1739.59,-471.341"/>
</g>
<!-- Node37 -->
<g id="node37" class="node"><title>Node37</title>
<g id="a_node37"><a xlink:href="Particles_8hh.html" target="_top" xlink:title="boca/multiplets/Particles.hh">
<polygon fill="white" stroke="black" points="363,-386 363,-405 500,-405 500,-386 363,-386"/>
<text text-anchor="middle" x="431.5" y="-393" font-family="Helvetica,sans-Serif" font-size="10.00">boca/multiplets/Particles.hh</text>
</a>
</g>
</g>
<!-- Node1&#45;&gt;Node37 -->
<g id="edge44" class="edge"><title>Node1&#45;&gt;Node37</title>
<path fill="none" stroke="midnightblue" d="M604.261,-521.009C566.959,-514.347 522.444,-501.764 488.5,-478 465.347,-461.791 448.499,-432.99 439.358,-414.326"/>
<polygon fill="midnightblue" stroke="midnightblue" points="442.477,-412.732 435.082,-405.145 436.131,-415.688 442.477,-412.732"/>
</g>
<!-- Node38 -->
<g id="node38" class="node"><title>Node38</title>
<g id="a_node38"><a xlink:href="DEBUG__MACROS_8hh.html" target="_top" xlink:title="boca/generic/DEBUG\l_MACROS.hh">
<polygon fill="white" stroke="black" points="1900,-447.5 1900,-477.5 2011,-477.5 2011,-447.5 1900,-447.5"/>
<text text-anchor="start" x="1908" y="-465.5" font-family="Helvetica,sans-Serif" font-size="10.00">boca/generic/DEBUG</text>
<text text-anchor="middle" x="1955.5" y="-454.5" font-family="Helvetica,sans-Serif" font-size="10.00">_MACROS.hh</text>
</a>
</g>
</g>
<!-- Node1&#45;&gt;Node38 -->
<g id="edge47" class="edge"><title>Node1&#45;&gt;Node38</title>
<path fill="none" stroke="midnightblue" d="M750.633,-527.162C974.411,-522.802 1648.73,-507.625 1889.83,-477.866"/>
<polygon fill="midnightblue" stroke="midnightblue" points="1890.47,-481.313 1899.95,-476.575 1889.58,-474.369 1890.47,-481.313"/>
</g>
<!-- Node43 -->
<g id="node43" class="node"><title>Node43</title>
<g id="a_node43"><a xlink:href="TruthLevel_8hh.html" target="_top" xlink:title="toppartner/tagger/TruthLevel.hh">
<polygon fill="white" stroke="black" points="497.5,-453 497.5,-472 649.5,-472 649.5,-453 497.5,-453"/>
<text text-anchor="middle" x="573.5" y="-460" font-family="Helvetica,sans-Serif" font-size="10.00">toppartner/tagger/TruthLevel.hh</text>
</a>
</g>
</g>
<!-- Node1&#45;&gt;Node43 -->
<g id="edge55" class="edge"><title>Node1&#45;&gt;Node43</title>
<path fill="none" stroke="midnightblue" d="M654.934,-514.396C637.493,-503.496 613.466,-488.479 596.034,-477.584"/>
<polygon fill="midnightblue" stroke="midnightblue" points="597.446,-474.339 587.111,-472.007 593.736,-480.275 597.446,-474.339"/>
</g>
<!-- Node3 -->
<g id="node3" class="node"><title>Node3</title>
<g id="a_node3"><a xlink:href="Flag_8hh.html" target="_top" xlink:title="boca/generic/Flag.hh">
<polygon fill="white" stroke="black" points="0,-324.5 0,-343.5 107,-343.5 107,-324.5 0,-324.5"/>
<text text-anchor="middle" x="53.5" y="-331.5" font-family="Helvetica,sans-Serif" font-size="10.00">boca/generic/Flag.hh</text>
</a>
</g>
</g>
<!-- Node2&#45;&gt;Node3 -->
<g id="edge2" class="edge"><title>Node2&#45;&gt;Node3</title>
<path fill="none" stroke="midnightblue" d="M163.161,-385.975C141.679,-375.99 105.878,-359.348 81.0523,-347.807"/>
<polygon fill="midnightblue" stroke="midnightblue" points="82.3488,-344.551 71.8053,-343.509 79.3981,-350.898 82.3488,-344.551"/>
</g>
<!-- Node5 -->
<g id="node5" class="node"><title>Node5</title>
<g id="a_node5"><a xlink:href="Jet_8hh.html" target="_top" xlink:title="boca/multiplets/Jet.hh">
<polygon fill="white" stroke="black" points="137,-324.5 137,-343.5 250,-343.5 250,-324.5 137,-324.5"/>
<text text-anchor="middle" x="193.5" y="-331.5" font-family="Helvetica,sans-Serif" font-size="10.00">boca/multiplets/Jet.hh</text>
</a>
</g>
</g>
<!-- Node2&#45;&gt;Node5 -->
<g id="edge4" class="edge"><title>Node2&#45;&gt;Node5</title>
<path fill="none" stroke="midnightblue" d="M183.219,-385.975C184.93,-377.492 187.61,-364.204 189.805,-353.322"/>
<polygon fill="midnightblue" stroke="midnightblue" points="193.238,-354.004 191.784,-343.509 186.376,-352.62 193.238,-354.004"/>
</g>
<!-- Node8 -->
<g id="node8" class="node"><title>Node8</title>
<g id="a_node8"><a xlink:href="multiplets_2Particle_8hh.html" target="_top" xlink:title="boca/multiplets/Particle.hh">
<polygon fill="white" stroke="black" points="275.5,-324.5 275.5,-343.5 407.5,-343.5 407.5,-324.5 275.5,-324.5"/>
<text text-anchor="middle" x="341.5" y="-331.5" font-family="Helvetica,sans-Serif" font-size="10.00">boca/multiplets/Particle.hh</text>
</a>
</g>
</g>
<!-- Node2&#45;&gt;Node8 -->
<g id="edge9" class="edge"><title>Node2&#45;&gt;Node8</title>
<path fill="none" stroke="midnightblue" d="M204.424,-385.975C231.87,-375.769 278.016,-358.608 309.099,-347.049"/>
<polygon fill="midnightblue" stroke="midnightblue" points="310.465,-350.275 318.618,-343.509 308.026,-343.714 310.465,-350.275"/>
</g>
<!-- Node4 -->
<g id="node4" class="node"><title>Node4</title>
<polygon fill="white" stroke="#bfbfbf" points="16.5,-263 16.5,-282 78.5,-282 78.5,-263 16.5,-263"/>
<text text-anchor="middle" x="47.5" y="-270" font-family="Helvetica,sans-Serif" font-size="10.00">type_traits</text>
</g>
<!-- Node3&#45;&gt;Node4 -->
<g id="edge3" class="edge"><title>Node3&#45;&gt;Node4</title>
<path fill="none" stroke="midnightblue" d="M52.6403,-324.475C51.7938,-316.08 50.4728,-302.981 49.382,-292.163"/>
<polygon fill="midnightblue" stroke="midnightblue" points="52.8438,-291.607 48.3581,-282.009 45.8791,-292.31 52.8438,-291.607"/>
</g>
<!-- Node6 -->
<g id="node6" class="node"><title>Node6</title>
<g id="a_node6"><a xlink:href="PseudoJet_8hh.html" target="_top" xlink:title="boca/fastjet/PseudoJet.hh">
<polygon fill="white" stroke="red" points="205,-196 205,-215 336,-215 336,-196 205,-196"/>
<text text-anchor="middle" x="270.5" y="-203" font-family="Helvetica,sans-Serif" font-size="10.00">boca/fastjet/PseudoJet.hh</text>
</a>
</g>
</g>
<!-- Node5&#45;&gt;Node6 -->
<g id="edge5" class="edge"><title>Node5&#45;&gt;Node6</title>
<path fill="none" stroke="midnightblue" d="M170.046,-324.408C154.339,-317.28 134.881,-305.458 125.5,-288 118.978,-275.864 117.519,-268.231 125.5,-257 141.52,-234.457 168.369,-221.892 194.64,-214.919"/>
<polygon fill="midnightblue" stroke="midnightblue" points="195.751,-218.252 204.656,-212.512 194.115,-211.446 195.751,-218.252"/>
</g>
<!-- Node7 -->
<g id="node7" class="node"><title>Node7</title>
<g id="a_node7"><a xlink:href="JetInfo_8hh.html" target="_top" xlink:title="boca/multiplets/JetInfo.hh">
<polygon fill="white" stroke="red" points="135,-263 135,-282 264,-282 264,-263 135,-263"/>
<text text-anchor="middle" x="199.5" y="-270" font-family="Helvetica,sans-Serif" font-size="10.00">boca/multiplets/JetInfo.hh</text>
</a>
</g>
</g>
<!-- Node5&#45;&gt;Node7 -->
<g id="edge7" class="edge"><title>Node5&#45;&gt;Node7</title>
<path fill="none" stroke="midnightblue" d="M194.36,-324.475C195.206,-316.08 196.527,-302.981 197.618,-292.163"/>
<polygon fill="midnightblue" stroke="midnightblue" points="201.121,-292.31 198.642,-282.009 194.156,-291.607 201.121,-292.31"/>
</g>
<!-- Node6&#45;&gt;Node6 -->
<g id="edge6" class="edge"><title>Node6&#45;&gt;Node6</title>
<path fill="none" stroke="midnightblue" d="M296.576,-215.064C323.658,-220.87 354,-217.682 354,-205.5 354,-194.793 330.562,-191.034 306.498,-194.222"/>
<polygon fill="midnightblue" stroke="midnightblue" points="305.835,-190.785 296.576,-195.936 307.026,-197.683 305.835,-190.785"/>
</g>
<!-- Node7&#45;&gt;Node6 -->
<g id="edge8" class="edge"><title>Node7&#45;&gt;Node6</title>
<path fill="none" stroke="midnightblue" d="M209.075,-262.734C220.466,-252.305 239.687,-234.709 253.599,-221.973"/>
<polygon fill="midnightblue" stroke="midnightblue" points="256.064,-224.461 261.076,-215.127 251.337,-219.298 256.064,-224.461"/>
</g>
<!-- Node8&#45;&gt;Node6 -->
<g id="edge10" class="edge"><title>Node8&#45;&gt;Node6</title>
<path fill="none" stroke="midnightblue" d="M364.954,-324.408C380.661,-317.28 400.119,-305.458 409.5,-288 416.022,-275.864 417.406,-268.284 409.5,-257 394.738,-235.93 370.237,-223.618 345.883,-216.435"/>
<polygon fill="midnightblue" stroke="midnightblue" points="346.781,-213.052 336.215,-213.837 344.965,-219.812 346.781,-213.052"/>
</g>
<!-- Node9 -->
<g id="node9" class="node"><title>Node9</title>
<g id="a_node9"><a xlink:href="ParticleInfo_8hh.html" target="_top" xlink:title="boca/multiplets/Particle\lInfo.hh">
<polygon fill="white" stroke="red" points="282,-257.5 282,-287.5 401,-287.5 401,-257.5 282,-257.5"/>
<text text-anchor="start" x="290" y="-275.5" font-family="Helvetica,sans-Serif" font-size="10.00">boca/multiplets/Particle</text>
<text text-anchor="middle" x="341.5" y="-264.5" font-family="Helvetica,sans-Serif" font-size="10.00">Info.hh</text>
</a>
</g>
</g>
<!-- Node8&#45;&gt;Node9 -->
<g id="edge11" class="edge"><title>Node8&#45;&gt;Node9</title>
<path fill="none" stroke="midnightblue" d="M341.5,-324.475C341.5,-317.471 341.5,-307.192 341.5,-297.696"/>
<polygon fill="midnightblue" stroke="midnightblue" points="345,-297.523 341.5,-287.523 338,-297.523 345,-297.523"/>
</g>
<!-- Node9&#45;&gt;Node6 -->
<g id="edge12" class="edge"><title>Node9&#45;&gt;Node6</title>
<path fill="none" stroke="midnightblue" d="M326.094,-257.396C314.695,-246.96 299.174,-232.751 287.428,-221.998"/>
<polygon fill="midnightblue" stroke="midnightblue" points="289.736,-219.366 279.997,-215.195 285.01,-224.529 289.736,-219.366"/>
</g>
<!-- Node11 -->
<g id="node11" class="node"><title>Node11</title>
<g id="a_node11"><a xlink:href="Range_8hh.html" target="_top" xlink:title="boca/physics/Range.hh">
<polygon fill="white" stroke="black" points="1691,-129 1691,-148 1810,-148 1810,-129 1691,-129"/>
<text text-anchor="middle" x="1750.5" y="-136" font-family="Helvetica,sans-Serif" font-size="10.00">boca/physics/Range.hh</text>
</a>
</g>
</g>
<!-- Node10&#45;&gt;Node11 -->
<g id="edge14" class="edge"><title>Node10&#45;&gt;Node11</title>
<path fill="none" stroke="midnightblue" d="M964.701,-330.786C1138.27,-321.826 1755.13,-285.615 1811.5,-221 1831.06,-198.581 1798.52,-170.408 1773.94,-153.741"/>
<polygon fill="midnightblue" stroke="midnightblue" points="1775.65,-150.675 1765.36,-148.153 1771.83,-156.542 1775.65,-150.675"/>
</g>
<!-- Node17 -->
<g id="node17" class="node"><title>Node17</title>
<g id="a_node17"><a xlink:href="PreCut_8hh.html" target="_top" xlink:title="boca/PreCut.hh">
<polygon fill="white" stroke="black" points="847,-263 847,-282 932,-282 932,-263 847,-263"/>
<text text-anchor="middle" x="889.5" y="-270" font-family="Helvetica,sans-Serif" font-size="10.00">boca/PreCut.hh</text>
</a>
</g>
</g>
<!-- Node10&#45;&gt;Node17 -->
<g id="edge20" class="edge"><title>Node10&#45;&gt;Node17</title>
<path fill="none" stroke="midnightblue" d="M915.202,-324.475C910.835,-315.815 903.945,-302.149 898.397,-291.145"/>
<polygon fill="midnightblue" stroke="midnightblue" points="901.418,-289.363 893.79,-282.009 895.167,-292.514 901.418,-289.363"/>
</g>
<!-- Node26 -->
<g id="node26" class="node"><title>Node26</title>
<g id="a_node26"><a xlink:href="Vector_8hh.html" target="_top" xlink:title="boca/generic/Vector.hh">
<polygon fill="white" stroke="black" points="1197,-263 1197,-282 1314,-282 1314,-263 1197,-263"/>
<text text-anchor="middle" x="1255.5" y="-270" font-family="Helvetica,sans-Serif" font-size="10.00">boca/generic/Vector.hh</text>
</a>
</g>
</g>
<!-- Node10&#45;&gt;Node26 -->
<g id="edge30" class="edge"><title>Node10&#45;&gt;Node26</title>
<path fill="none" stroke="midnightblue" d="M964.814,-324.976C1024.92,-314.332 1131.1,-295.53 1197.14,-283.835"/>
<polygon fill="midnightblue" stroke="midnightblue" points="1198.14,-287.211 1207.38,-282.021 1196.92,-280.319 1198.14,-287.211"/>
</g>
<!-- Node12 -->
<g id="node12" class="node"><title>Node12</title>
<polygon fill="white" stroke="#bfbfbf" points="2023.5,-62 2023.5,-81 2077.5,-81 2077.5,-62 2023.5,-62"/>
<text text-anchor="middle" x="2050.5" y="-69" font-family="Helvetica,sans-Serif" font-size="10.00">iostream</text>
</g>
<!-- Node11&#45;&gt;Node12 -->
<g id="edge15" class="edge"><title>Node11&#45;&gt;Node12</title>
<path fill="none" stroke="midnightblue" d="M1790.03,-128.936C1848.29,-116.311 1956.46,-92.8746 2013.34,-80.5511"/>
<polygon fill="midnightblue" stroke="midnightblue" points="2014.31,-83.9227 2023.34,-78.3844 2012.83,-77.0814 2014.31,-83.9227"/>
</g>
<!-- Node13 -->
<g id="node13" class="node"><title>Node13</title>
<polygon fill="white" stroke="#bfbfbf" points="1720.5,-62 1720.5,-81 1760.5,-81 1760.5,-62 1720.5,-62"/>
<text text-anchor="middle" x="1740.5" y="-69" font-family="Helvetica,sans-Serif" font-size="10.00">utility</text>
</g>
<!-- Node11&#45;&gt;Node13 -->
<g id="edge16" class="edge"><title>Node11&#45;&gt;Node13</title>
<path fill="none" stroke="midnightblue" d="M1749.15,-128.734C1747.68,-119.183 1745.29,-103.618 1743.39,-91.2829"/>
<polygon fill="midnightblue" stroke="midnightblue" points="1746.81,-90.4788 1741.83,-81.1273 1739.89,-91.5432 1746.81,-90.4788"/>
</g>
<!-- Node14 -->
<g id="node14" class="node"><title>Node14</title>
<g id="a_node14"><a xlink:href="Units_8hh.html" target="_top" xlink:title="boca/physics/Units.hh">
<polygon fill="white" stroke="red" points="1588.5,-62 1588.5,-81 1702.5,-81 1702.5,-62 1588.5,-62"/>
<text text-anchor="middle" x="1645.5" y="-69" font-family="Helvetica,sans-Serif" font-size="10.00">boca/physics/Units.hh</text>
</a>
</g>
</g>
<!-- Node11&#45;&gt;Node14 -->
<g id="edge17" class="edge"><title>Node11&#45;&gt;Node14</title>
<path fill="none" stroke="midnightblue" d="M1736.34,-128.734C1718.79,-117.867 1688.66,-99.2161 1667.94,-86.3931"/>
<polygon fill="midnightblue" stroke="midnightblue" points="1669.78,-83.415 1659.44,-81.1273 1666.1,-89.3668 1669.78,-83.415"/>
</g>
<!-- Node15 -->
<g id="node15" class="node"><title>Node15</title>
<g id="a_node15"><a xlink:href="Math_8hh.html" target="_top" xlink:title="boca/math/Math.hh">
<polygon fill="white" stroke="red" points="1779,-62 1779,-81 1880,-81 1880,-62 1779,-62"/>
<text text-anchor="middle" x="1829.5" y="-69" font-family="Helvetica,sans-Serif" font-size="10.00">boca/math/Math.hh</text>
</a>
</g>
</g>
<!-- Node11&#45;&gt;Node15 -->
<g id="edge18" class="edge"><title>Node11&#45;&gt;Node15</title>
<path fill="none" stroke="midnightblue" d="M1761.15,-128.734C1773.95,-118.208 1795.62,-100.379 1811.13,-87.6174"/>
<polygon fill="midnightblue" stroke="midnightblue" points="1813.52,-90.1837 1819.01,-81.1273 1809.07,-84.7782 1813.52,-90.1837"/>
</g>
<!-- Node16 -->
<g id="node16" class="node"><title>Node16</title>
<polygon fill="white" stroke="#bfbfbf" points="1807.5,-0.5 1807.5,-19.5 1851.5,-19.5 1851.5,-0.5 1807.5,-0.5"/>
<text text-anchor="middle" x="1829.5" y="-7.5" font-family="Helvetica,sans-Serif" font-size="10.00">vector</text>
</g>
<!-- Node15&#45;&gt;Node16 -->
<g id="edge19" class="edge"><title>Node15&#45;&gt;Node16</title>
<path fill="none" stroke="midnightblue" d="M1829.5,-61.9751C1829.5,-53.5803 1829.5,-40.4806 1829.5,-29.6631"/>
<polygon fill="midnightblue" stroke="midnightblue" points="1833,-29.5091 1829.5,-19.5091 1826,-29.5091 1833,-29.5091"/>
</g>
<!-- Node18 -->
<g id="node18" class="node"><title>Node18</title>
<polygon fill="white" stroke="#bfbfbf" points="746,-196 746,-215 781,-215 781,-196 746,-196"/>
<text text-anchor="middle" x="763.5" y="-203" font-family="Helvetica,sans-Serif" font-size="10.00">map</text>
</g>
<!-- Node17&#45;&gt;Node18 -->
<g id="edge21" class="edge"><title>Node17&#45;&gt;Node18</title>
<path fill="none" stroke="midnightblue" d="M872.046,-262.957C852.001,-253.083 818.186,-236.234 789.5,-221 788.832,-220.645 788.156,-220.284 787.475,-219.918"/>
<polygon fill="midnightblue" stroke="midnightblue" points="789.018,-216.773 778.566,-215.04 785.656,-222.912 789.018,-216.773"/>
</g>
<!-- Node17&#45;&gt;Node19 -->
<g id="edge22" class="edge"><title>Node17&#45;&gt;Node19</title>
<path fill="none" stroke="midnightblue" d="M860.162,-262.963C852.788,-260.915 844.874,-258.802 837.5,-257 774.364,-241.572 701.193,-226.588 652.4,-217.004"/>
<polygon fill="midnightblue" stroke="midnightblue" points="652.856,-213.527 642.37,-215.042 651.513,-220.397 652.856,-213.527"/>
</g>
<!-- Node19&#45;&gt;Node16 -->
<g id="edge24" class="edge"><title>Node19&#45;&gt;Node16</title>
<path fill="none" stroke="midnightblue" d="M587.103,-195.654C558.959,-170.71 486.112,-98.843 527.5,-56 572.973,-8.92777 1600.9,-10.1911 1797.25,-10.8641"/>
<polygon fill="midnightblue" stroke="midnightblue" points="1797.47,-14.3649 1807.48,-10.9014 1797.5,-7.36492 1797.47,-14.3649"/>
</g>
<!-- Node20 -->
<g id="node20" class="node"><title>Node20</title>
<polygon fill="white" stroke="#bfbfbf" points="786,-129 786,-148 827,-148 827,-129 786,-129"/>
<text text-anchor="middle" x="806.5" y="-136" font-family="Helvetica,sans-Serif" font-size="10.00">string</text>
</g>
<!-- Node19&#45;&gt;Node20 -->
<g id="edge23" class="edge"><title>Node19&#45;&gt;Node20</title>
<path fill="none" stroke="midnightblue" d="M635.141,-195.92C671.795,-187.091 728.8,-172.096 776.5,-154 777.92,-153.461 779.364,-152.881 780.812,-152.272"/>
<polygon fill="midnightblue" stroke="midnightblue" points="782.56,-155.323 790.223,-148.007 779.67,-148.947 782.56,-155.323"/>
</g>
<!-- Node21 -->
<g id="node21" class="node"><title>Node21</title>
<g id="a_node21"><a xlink:href="ElectronVolt_8hh.html" target="_top" xlink:title="boca/physics/ElectronVolt.hh">
<polygon fill="white" stroke="black" points="623.5,-129 623.5,-148 767.5,-148 767.5,-129 623.5,-129"/>
<text text-anchor="middle" x="695.5" y="-136" font-family="Helvetica,sans-Serif" font-size="10.00">boca/physics/ElectronVolt.hh</text>
</a>
</g>
</g>
<!-- Node19&#45;&gt;Node21 -->
<g id="edge25" class="edge"><title>Node19&#45;&gt;Node21</title>
<path fill="none" stroke="midnightblue" d="M610.717,-195.734C626.954,-184.964 654.717,-166.55 674.031,-153.739"/>
<polygon fill="midnightblue" stroke="midnightblue" points="676.094,-156.571 682.493,-148.127 672.225,-150.738 676.094,-156.571"/>
</g>
<!-- Node22 -->
<g id="node22" class="node"><title>Node22</title>
<polygon fill="white" stroke="#bfbfbf" points="537,-62 537,-81 694,-81 694,-62 537,-62"/>
<text text-anchor="middle" x="615.5" y="-69" font-family="Helvetica,sans-Serif" font-size="10.00">boost/units/base_dimension.hpp</text>
</g>
<!-- Node21&#45;&gt;Node22 -->
<g id="edge26" class="edge"><title>Node21&#45;&gt;Node22</title>
<path fill="none" stroke="midnightblue" d="M684.711,-128.734C671.756,-118.208 649.813,-100.379 634.106,-87.6174"/>
<polygon fill="midnightblue" stroke="midnightblue" points="636.086,-84.7169 626.118,-81.1273 631.672,-90.1497 636.086,-84.7169"/>
</g>
<!-- Node23 -->
<g id="node23" class="node"><title>Node23</title>
<polygon fill="white" stroke="#bfbfbf" points="712.5,-62 712.5,-81 840.5,-81 840.5,-62 712.5,-62"/>
<text text-anchor="middle" x="776.5" y="-69" font-family="Helvetica,sans-Serif" font-size="10.00">boost/units/base_unit.hpp</text>
</g>
<!-- Node21&#45;&gt;Node23 -->
<g id="edge27" class="edge"><title>Node21&#45;&gt;Node23</title>
<path fill="none" stroke="midnightblue" d="M706.424,-128.734C719.541,-118.208 741.758,-100.379 757.661,-87.6174"/>
<polygon fill="midnightblue" stroke="midnightblue" points="760.14,-90.1158 765.749,-81.1273 755.759,-84.6563 760.14,-90.1158"/>
</g>
<!-- Node24 -->
<g id="node24" class="node"><title>Node24</title>
<polygon fill="white" stroke="#bfbfbf" points="859,-62 859,-81 980,-81 980,-62 859,-62"/>
<text text-anchor="middle" x="919.5" y="-69" font-family="Helvetica,sans-Serif" font-size="10.00">boost/units/quantity.hpp</text>
</g>
<!-- Node21&#45;&gt;Node24 -->
<g id="edge28" class="edge"><title>Node21&#45;&gt;Node24</title>
<path fill="none" stroke="midnightblue" d="M725.245,-128.869C765.103,-117.303 835.934,-96.7489 880.164,-83.9145"/>
<polygon fill="midnightblue" stroke="midnightblue" points="881.36,-87.2119 889.988,-81.0637 879.409,-80.4892 881.36,-87.2119"/>
</g>
<!-- Node25 -->
<g id="node25" class="node"><title>Node25</title>
<polygon fill="white" stroke="#bfbfbf" points="998,-56.5 998,-86.5 1103,-86.5 1103,-56.5 998,-56.5"/>
<text text-anchor="start" x="1006" y="-74.5" font-family="Helvetica,sans-Serif" font-size="10.00">boost/units/systems</text>
<text text-anchor="middle" x="1050.5" y="-63.5" font-family="Helvetica,sans-Serif" font-size="10.00">/si/energy.hpp</text>
</g>
<!-- Node21&#45;&gt;Node25 -->
<g id="edge29" class="edge"><title>Node21&#45;&gt;Node25</title>
<path fill="none" stroke="midnightblue" d="M742.602,-128.995C753.715,-127.009 765.523,-124.915 776.5,-123 867.524,-107.125 893.133,-105.954 987.782,-87.0712"/>
<polygon fill="midnightblue" stroke="midnightblue" points="988.668,-90.463 997.783,-85.0617 987.289,-83.6002 988.668,-90.463"/>
</g>
<!-- Node27 -->
<g id="node27" class="node"><title>Node27</title>
<polygon fill="white" stroke="#bfbfbf" points="944.5,-190.5 944.5,-220.5 1054.5,-220.5 1054.5,-190.5 944.5,-190.5"/>
<text text-anchor="start" x="952.5" y="-208.5" font-family="Helvetica,sans-Serif" font-size="10.00">boost/range/algorithm</text>
<text text-anchor="middle" x="999.5" y="-197.5" font-family="Helvetica,sans-Serif" font-size="10.00">_ext/erase.hpp</text>
</g>
<!-- Node26&#45;&gt;Node27 -->
<g id="edge31" class="edge"><title>Node26&#45;&gt;Node27</title>
<path fill="none" stroke="midnightblue" d="M1221.77,-262.936C1181.93,-252.82 1114.75,-235.762 1064.65,-223.042"/>
<polygon fill="midnightblue" stroke="midnightblue" points="1065.43,-219.628 1054.87,-220.559 1063.7,-226.413 1065.43,-219.628"/>
</g>
<!-- Node28 -->
<g id="node28" class="node"><title>Node28</title>
<polygon fill="white" stroke="#bfbfbf" points="1072.5,-190.5 1072.5,-220.5 1182.5,-220.5 1182.5,-190.5 1072.5,-190.5"/>
<text text-anchor="start" x="1080.5" y="-208.5" font-family="Helvetica,sans-Serif" font-size="10.00">boost/range/algorithm</text>
<text text-anchor="middle" x="1127.5" y="-197.5" font-family="Helvetica,sans-Serif" font-size="10.00">/find.hpp</text>
</g>
<!-- Node26&#45;&gt;Node28 -->
<g id="edge32" class="edge"><title>Node26&#45;&gt;Node28</title>
<path fill="none" stroke="midnightblue" d="M1238.5,-262.869C1219.69,-253.315 1188.8,-237.627 1164.37,-225.225"/>
<polygon fill="midnightblue" stroke="midnightblue" points="1165.87,-222.059 1155.37,-220.652 1162.7,-228.3 1165.87,-222.059"/>
</g>
<!-- Node29 -->
<g id="node29" class="node"><title>Node29</title>
<polygon fill="white" stroke="#bfbfbf" points="1200.5,-190.5 1200.5,-220.5 1310.5,-220.5 1310.5,-190.5 1200.5,-190.5"/>
<text text-anchor="start" x="1208.5" y="-208.5" font-family="Helvetica,sans-Serif" font-size="10.00">boost/range/algorithm</text>
<text text-anchor="middle" x="1255.5" y="-197.5" font-family="Helvetica,sans-Serif" font-size="10.00">/min_element.hpp</text>
</g>
<!-- Node26&#45;&gt;Node29 -->
<g id="edge33" class="edge"><title>Node26&#45;&gt;Node29</title>
<path fill="none" stroke="midnightblue" d="M1255.5,-262.734C1255.5,-254.541 1255.5,-241.923 1255.5,-230.714"/>
<polygon fill="midnightblue" stroke="midnightblue" points="1259,-230.589 1255.5,-220.589 1252,-230.589 1259,-230.589"/>
</g>
<!-- Node30 -->
<g id="node30" class="node"><title>Node30</title>
<polygon fill="white" stroke="#bfbfbf" points="1328.5,-190.5 1328.5,-220.5 1438.5,-220.5 1438.5,-190.5 1328.5,-190.5"/>
<text text-anchor="start" x="1336.5" y="-208.5" font-family="Helvetica,sans-Serif" font-size="10.00">boost/range/algorithm</text>
<text text-anchor="middle" x="1383.5" y="-197.5" font-family="Helvetica,sans-Serif" font-size="10.00">/copy.hpp</text>
</g>
<!-- Node26&#45;&gt;Node30 -->
<g id="edge34" class="edge"><title>Node26&#45;&gt;Node30</title>
<path fill="none" stroke="midnightblue" d="M1272.5,-262.869C1291.31,-253.315 1322.2,-237.627 1346.63,-225.225"/>
<polygon fill="midnightblue" stroke="midnightblue" points="1348.3,-228.3 1355.63,-220.652 1345.13,-222.059 1348.3,-228.3"/>
</g>
<!-- Node31 -->
<g id="node31" class="node"><title>Node31</title>
<polygon fill="white" stroke="#bfbfbf" points="1456.5,-190.5 1456.5,-220.5 1566.5,-220.5 1566.5,-190.5 1456.5,-190.5"/>
<text text-anchor="start" x="1464.5" y="-208.5" font-family="Helvetica,sans-Serif" font-size="10.00">boost/range/algorithm</text>
<text text-anchor="middle" x="1511.5" y="-197.5" font-family="Helvetica,sans-Serif" font-size="10.00">_ext/push_back.hpp</text>
</g>
<!-- Node26&#45;&gt;Node31 -->
<g id="edge35" class="edge"><title>Node26&#45;&gt;Node31</title>
<path fill="none" stroke="midnightblue" d="M1289.23,-262.936C1329.07,-252.82 1396.25,-235.762 1446.35,-223.042"/>
<polygon fill="midnightblue" stroke="midnightblue" points="1447.3,-226.413 1456.13,-220.559 1445.57,-219.628 1447.3,-226.413"/>
</g>
<!-- Node32 -->
<g id="node32" class="node"><title>Node32</title>
<polygon fill="white" stroke="#bfbfbf" points="1584.5,-190.5 1584.5,-220.5 1694.5,-220.5 1694.5,-190.5 1584.5,-190.5"/>
<text text-anchor="start" x="1592.5" y="-208.5" font-family="Helvetica,sans-Serif" font-size="10.00">boost/range/algorithm</text>
<text text-anchor="middle" x="1639.5" y="-197.5" font-family="Helvetica,sans-Serif" font-size="10.00">/transform.hpp</text>
</g>
<!-- Node26&#45;&gt;Node32 -->
<g id="edge36" class="edge"><title>Node26&#45;&gt;Node32</title>
<path fill="none" stroke="midnightblue" d="M1314.09,-263.442C1376.28,-254.623 1477.63,-239.489 1574.43,-221.132"/>
<polygon fill="midnightblue" stroke="midnightblue" points="1575.23,-224.544 1584.39,-219.229 1573.91,-217.669 1575.23,-224.544"/>
</g>
<!-- Node33 -->
<g id="node33" class="node"><title>Node33</title>
<polygon fill="white" stroke="#bfbfbf" points="799,-196 799,-215 926,-215 926,-196 799,-196"/>
<text text-anchor="middle" x="862.5" y="-203" font-family="Helvetica,sans-Serif" font-size="10.00">boost/range/adaptors.hpp</text>
</g>
<!-- Node26&#45;&gt;Node33 -->
<g id="edge37" class="edge"><title>Node26&#45;&gt;Node33</title>
<path fill="none" stroke="midnightblue" d="M1196.99,-262.977C1132.74,-253.451 1026.59,-237.227 935.5,-221 928.663,-219.782 921.478,-218.436 914.394,-217.07"/>
<polygon fill="midnightblue" stroke="midnightblue" points="914.624,-213.549 904.139,-215.066 913.282,-220.419 914.624,-213.549"/>
</g>
<!-- Node34 -->
<g id="node34" class="node"><title>Node34</title>
<g id="a_node34"><a xlink:href="Settings_8hh.html" target="_top" xlink:title="boca/Settings.hh">
<polygon fill="white" stroke="red" points="1712.5,-196 1712.5,-215 1802.5,-215 1802.5,-196 1712.5,-196"/>
<text text-anchor="middle" x="1757.5" y="-203" font-family="Helvetica,sans-Serif" font-size="10.00">boca/Settings.hh</text>
</a>
</g>
</g>
<!-- Node26&#45;&gt;Node34 -->
<g id="edge38" class="edge"><title>Node26&#45;&gt;Node34</title>
<path fill="none" stroke="midnightblue" d="M1314.27,-267.7C1400.29,-261.502 1565.27,-247.196 1703.5,-221 1708.56,-220.042 1713.83,-218.859 1719.03,-217.585"/>
<polygon fill="midnightblue" stroke="midnightblue" points="1720.01,-220.945 1728.82,-215.058 1718.26,-214.167 1720.01,-220.945"/>
</g>
<!-- Node34&#45;&gt;Node11 -->
<g id="edge39" class="edge"><title>Node34&#45;&gt;Node11</title>
<path fill="none" stroke="midnightblue" d="M1756.56,-195.734C1755.53,-186.183 1753.85,-170.618 1752.52,-158.283"/>
<polygon fill="midnightblue" stroke="midnightblue" points="1755.98,-157.695 1751.43,-148.127 1749.02,-158.445 1755.98,-157.695"/>
</g>
<!-- Node35&#45;&gt;Node20 -->
<g id="edge42" class="edge"><title>Node35&#45;&gt;Node20</title>
<path fill="none" stroke="midnightblue" d="M1817.22,-452.952C1821.16,-432.608 1830.5,-379.674 1830.5,-335 1830.5,-335 1830.5,-335 1830.5,-271.5 1830.5,-234.306 1840.04,-213.846 1811.5,-190 1773.21,-158.008 1002.6,-142.894 837.475,-140.016"/>
<polygon fill="midnightblue" stroke="midnightblue" points="837.127,-136.509 827.068,-139.836 837.006,-143.508 837.127,-136.509"/>
</g>
<!-- Node36 -->
<g id="node36" class="node"><title>Node36</title>
<polygon fill="white" stroke="#bfbfbf" points="1859,-386 1859,-405 1918,-405 1918,-386 1859,-386"/>
<text text-anchor="middle" x="1888.5" y="-393" font-family="Helvetica,sans-Serif" font-size="10.00">stdexcept</text>
</g>
<!-- Node35&#45;&gt;Node36 -->
<g id="edge41" class="edge"><title>Node35&#45;&gt;Node36</title>
<path fill="none" stroke="midnightblue" d="M1825.35,-452.734C1837.06,-442.305 1856.82,-424.709 1871.12,-411.973"/>
<polygon fill="midnightblue" stroke="midnightblue" points="1873.67,-414.391 1878.81,-405.127 1869.01,-409.163 1873.67,-414.391"/>
</g>
<!-- Node37&#45;&gt;Node8 -->
<g id="edge45" class="edge"><title>Node37&#45;&gt;Node8</title>
<path fill="none" stroke="midnightblue" d="M418.605,-385.975C404.036,-376.343 380.098,-360.517 362.755,-349.052"/>
<polygon fill="midnightblue" stroke="midnightblue" points="364.643,-346.104 354.371,-343.509 360.783,-351.944 364.643,-346.104"/>
</g>
<!-- Node37&#45;&gt;Node19 -->
<g id="edge46" class="edge"><title>Node37&#45;&gt;Node19</title>
<path fill="none" stroke="midnightblue" d="M433.448,-385.952C439.188,-362.494 458.095,-296.261 496.5,-257 513.778,-239.336 538.525,-226.825 559.198,-218.673"/>
<polygon fill="midnightblue" stroke="midnightblue" points="560.532,-221.912 568.668,-215.126 558.076,-215.356 560.532,-221.912"/>
</g>
<!-- Node39 -->
<g id="node39" class="node"><title>Node39</title>
<g id="a_node39"><a xlink:href="Debug_8hh.html" target="_top" xlink:title="boca/generic/Debug.hh">
<polygon fill="white" stroke="black" points="1897,-196 1897,-215 2014,-215 2014,-196 1897,-196"/>
<text text-anchor="middle" x="1955.5" y="-203" font-family="Helvetica,sans-Serif" font-size="10.00">boca/generic/Debug.hh</text>
</a>
</g>
</g>
<!-- Node38&#45;&gt;Node39 -->
<g id="edge48" class="edge"><title>Node38&#45;&gt;Node39</title>
<path fill="none" stroke="midnightblue" d="M1955.5,-447.427C1955.5,-404.316 1955.5,-274.051 1955.5,-225.239"/>
<polygon fill="midnightblue" stroke="midnightblue" points="1959,-225.157 1955.5,-215.157 1952,-225.157 1959,-225.157"/>
</g>
<!-- Node39&#45;&gt;Node12 -->
<g id="edge53" class="edge"><title>Node39&#45;&gt;Node12</title>
<path fill="none" stroke="midnightblue" d="M2014.36,-203.052C2050.98,-198.719 2095.52,-186.474 2119.5,-154 2127.68,-142.916 2125.73,-135.287 2119.5,-123 2111.16,-106.555 2094.66,-94.1794 2079.9,-85.7956"/>
<polygon fill="midnightblue" stroke="midnightblue" points="2081.49,-82.6775 2071.01,-81.0906 2078.21,-88.8636 2081.49,-82.6775"/>
</g>
<!-- Node39&#45;&gt;Node16 -->
<g id="edge50" class="edge"><title>Node39&#45;&gt;Node16</title>
<path fill="none" stroke="midnightblue" d="M1950.17,-195.751C1944.24,-185.83 1934.56,-169.07 1927.5,-154 1907.68,-111.696 1917.72,-93.2288 1889.5,-56 1880.04,-43.5139 1866.21,-32.8237 1854.22,-24.9997"/>
<polygon fill="midnightblue" stroke="midnightblue" points="1855.85,-21.8922 1845.51,-19.593 1852.16,-27.8399 1855.85,-21.8922"/>
</g>
<!-- Node39&#45;&gt;Node20 -->
<g id="edge49" class="edge"><title>Node39&#45;&gt;Node20</title>
<path fill="none" stroke="midnightblue" d="M1897.13,-195.97C1880.18,-193.739 1861.63,-191.533 1844.5,-190 1447.25,-154.45 962.081,-142.64 837.034,-140.079"/>
<polygon fill="midnightblue" stroke="midnightblue" points="837.098,-136.579 827.029,-139.878 836.957,-143.578 837.098,-136.579"/>
</g>
<!-- Node40 -->
<g id="node40" class="node"><title>Node40</title>
<polygon fill="white" stroke="#bfbfbf" points="1828.5,-129 1828.5,-148 1880.5,-148 1880.5,-129 1828.5,-129"/>
<text text-anchor="middle" x="1854.5" y="-136" font-family="Helvetica,sans-Serif" font-size="10.00">sstream</text>
</g>
<!-- Node39&#45;&gt;Node40 -->
<g id="edge51" class="edge"><title>Node39&#45;&gt;Node40</title>
<path fill="none" stroke="midnightblue" d="M1941.88,-195.734C1925.07,-184.916 1896.27,-166.383 1876.36,-153.566"/>
<polygon fill="midnightblue" stroke="midnightblue" points="1878.21,-150.596 1867.91,-148.127 1874.42,-156.482 1878.21,-150.596"/>
</g>
<!-- Node41 -->
<g id="node41" class="node"><title>Node41</title>
<polygon fill="white" stroke="#bfbfbf" points="1936.5,-129 1936.5,-148 1986.5,-148 1986.5,-129 1936.5,-129"/>
<text text-anchor="middle" x="1961.5" y="-136" font-family="Helvetica,sans-Serif" font-size="10.00">iomanip</text>
</g>
<!-- Node39&#45;&gt;Node41 -->
<g id="edge52" class="edge"><title>Node39&#45;&gt;Node41</title>
<path fill="none" stroke="midnightblue" d="M1956.31,-195.734C1957.19,-186.183 1958.63,-170.618 1959.77,-158.283"/>
<polygon fill="midnightblue" stroke="midnightblue" points="1963.27,-158.407 1960.7,-148.127 1956.3,-157.763 1963.27,-158.407"/>
</g>
<!-- Node42 -->
<g id="node42" class="node"><title>Node42</title>
<polygon fill="white" stroke="#bfbfbf" points="2005,-123.5 2005,-153.5 2110,-153.5 2110,-123.5 2005,-123.5"/>
<text text-anchor="start" x="2013" y="-141.5" font-family="Helvetica,sans-Serif" font-size="10.00">boost/units/systems</text>
<text text-anchor="middle" x="2057.5" y="-130.5" font-family="Helvetica,sans-Serif" font-size="10.00">/si/io.hpp</text>
</g>
<!-- Node39&#45;&gt;Node42 -->
<g id="edge54" class="edge"><title>Node39&#45;&gt;Node42</title>
<path fill="none" stroke="midnightblue" d="M1969.26,-195.734C1983.97,-186.358 2007.77,-171.188 2026.95,-158.966"/>
<polygon fill="midnightblue" stroke="midnightblue" points="2028.84,-161.915 2035.39,-153.589 2025.08,-156.012 2028.84,-161.915"/>
</g>
<!-- Node44 -->
<g id="node44" class="node"><title>Node44</title>
<g id="a_node44"><a xlink:href="boca_2tagger_2Tagger_8hh.html" target="_top" xlink:title="boca/tagger/Tagger.hh">
<polygon fill="white" stroke="red" points="705.5,-386 705.5,-405 819.5,-405 819.5,-386 705.5,-386"/>
<text text-anchor="middle" x="762.5" y="-393" font-family="Helvetica,sans-Serif" font-size="10.00">boca/tagger/Tagger.hh</text>
</a>
</g>
</g>
<!-- Node43&#45;&gt;Node44 -->
<g id="edge56" class="edge"><title>Node43&#45;&gt;Node44</title>
<path fill="none" stroke="midnightblue" d="M598.598,-452.869C631.873,-441.424 690.736,-421.181 728.124,-408.322"/>
<polygon fill="midnightblue" stroke="midnightblue" points="729.281,-411.626 737.599,-405.064 727.005,-405.006 729.281,-411.626"/>
</g>
<!-- Node49 -->
<g id="node49" class="node"><title>Node49</title>
<g id="a_node49"><a xlink:href="examples_2toppartner_2toppartner_2multiplets_2TruthVariables_8hh.html" target="_top" xlink:title="toppartner/multiplets\l/TruthVariables.hh">
<polygon fill="white" stroke="red" points="240,-380.5 240,-410.5 345,-410.5 345,-380.5 240,-380.5"/>
<text text-anchor="start" x="248" y="-398.5" font-family="Helvetica,sans-Serif" font-size="10.00">toppartner/multiplets</text>
<text text-anchor="middle" x="292.5" y="-387.5" font-family="Helvetica,sans-Serif" font-size="10.00">/TruthVariables.hh</text>
</a>
</g>
</g>
<!-- Node43&#45;&gt;Node49 -->
<g id="edge66" class="edge"><title>Node43&#45;&gt;Node49</title>
<path fill="none" stroke="midnightblue" d="M535.718,-452.921C493.846,-443.392 424.046,-427.447 354.827,-411.301"/>
<polygon fill="midnightblue" stroke="midnightblue" points="355.6,-407.888 345.066,-409.023 354.009,-414.705 355.6,-407.888"/>
</g>
<!-- Node50 -->
<g id="node50" class="node"><title>Node50</title>
<g id="a_node50"><a xlink:href="toppartner_2toppartner_2branch_2Truth_8hh.html" target="_top" xlink:title="toppartner/branch/Truth.hh">
<polygon fill="white" stroke="red" points="518,-386 518,-405 649,-405 649,-386 518,-386"/>
<text text-anchor="middle" x="583.5" y="-393" font-family="Helvetica,sans-Serif" font-size="10.00">toppartner/branch/Truth.hh</text>
</a>
</g>
</g>
<!-- Node43&#45;&gt;Node50 -->
<g id="edge69" class="edge"><title>Node43&#45;&gt;Node50</title>
<path fill="none" stroke="midnightblue" d="M574.849,-452.734C576.318,-443.183 578.713,-427.618 580.61,-415.283"/>
<polygon fill="midnightblue" stroke="midnightblue" points="584.111,-415.543 582.173,-405.127 577.193,-414.479 584.111,-415.543"/>
</g>
<!-- Node44&#45;&gt;Node10 -->
<g id="edge64" class="edge"><title>Node44&#45;&gt;Node10</title>
<path fill="none" stroke="midnightblue" d="M784.994,-385.975C811.809,-375.813 856.815,-358.756 887.309,-347.2"/>
<polygon fill="midnightblue" stroke="midnightblue" points="888.937,-350.326 897.047,-343.509 886.456,-343.78 888.937,-350.326"/>
</g>
<!-- Node44&#45;&gt;Node39 -->
<g id="edge65" class="edge"><title>Node44&#45;&gt;Node39</title>
<path fill="none" stroke="midnightblue" d="M819.539,-389.884C958.532,-378.115 1325.48,-343.903 1627.5,-288 1733.04,-268.466 1855.21,-235.238 1916.37,-217.858"/>
<polygon fill="midnightblue" stroke="midnightblue" points="1917.7,-221.117 1926.36,-215.006 1915.78,-214.387 1917.7,-221.117"/>
</g>
<!-- Node45 -->
<g id="node45" class="node"><title>Node45</title>
<g id="a_node45"><a xlink:href="Types_8hh.html" target="_top" xlink:title="boca/generic/Types.hh">
<polygon fill="white" stroke="red" points="712.5,-263 712.5,-282 828.5,-282 828.5,-263 712.5,-263"/>
<text text-anchor="middle" x="770.5" y="-270" font-family="Helvetica,sans-Serif" font-size="10.00">boca/generic/Types.hh</text>
</a>
</g>
</g>
<!-- Node44&#45;&gt;Node45 -->
<g id="edge57" class="edge"><title>Node44&#45;&gt;Node45</title>
<path fill="none" stroke="midnightblue" d="M780.959,-385.853C796.313,-377.532 817.116,-363.359 826.5,-344 837.025,-322.289 814.498,-301.128 794.95,-287.748"/>
<polygon fill="midnightblue" stroke="midnightblue" points="796.609,-284.653 786.308,-282.173 792.815,-290.535 796.609,-284.653"/>
</g>
<!-- Node46 -->
<g id="node46" class="node"><title>Node46</title>
<g id="a_node46"><a xlink:href="Sort_8hh.html" target="_top" xlink:title="boca/multiplets/Sort.hh">
<polygon fill="white" stroke="red" points="539,-263 539,-282 656,-282 656,-263 539,-263"/>
<text text-anchor="middle" x="597.5" y="-270" font-family="Helvetica,sans-Serif" font-size="10.00">boca/multiplets/Sort.hh</text>
</a>
</g>
</g>
<!-- Node44&#45;&gt;Node46 -->
<g id="edge59" class="edge"><title>Node44&#45;&gt;Node46</title>
<path fill="none" stroke="midnightblue" d="M750.775,-385.928C737.044,-375.886 713.613,-358.745 693.5,-344 667.18,-324.704 636.824,-302.404 617.413,-288.138"/>
<polygon fill="midnightblue" stroke="midnightblue" points="619.449,-285.291 609.319,-282.189 615.304,-290.931 619.449,-285.291"/>
</g>
<!-- Node47 -->
<g id="node47" class="node"><title>Node47</title>
<g id="a_node47"><a xlink:href="TreeBranch_8hh.html" target="_top" xlink:title="boca/io/TreeBranch.hh">
<polygon fill="white" stroke="red" points="703,-324.5 703,-343.5 818,-343.5 818,-324.5 703,-324.5"/>
<text text-anchor="middle" x="760.5" y="-331.5" font-family="Helvetica,sans-Serif" font-size="10.00">boca/io/TreeBranch.hh</text>
</a>
</g>
</g>
<!-- Node44&#45;&gt;Node47 -->
<g id="edge61" class="edge"><title>Node44&#45;&gt;Node47</title>
<path fill="none" stroke="midnightblue" d="M762.213,-385.975C761.931,-377.58 761.491,-364.481 761.127,-353.663"/>
<polygon fill="midnightblue" stroke="midnightblue" points="764.62,-353.386 760.786,-343.509 757.624,-353.621 764.62,-353.386"/>
</g>
<!-- Node48 -->
<g id="node48" class="node"><title>Node48</title>
<g id="a_node48"><a xlink:href="tagger_2Base_8hh.html" target="_top" xlink:title="boca/tagger/Base.hh">
<polygon fill="white" stroke="red" points="539,-324.5 539,-343.5 646,-343.5 646,-324.5 539,-324.5"/>
<text text-anchor="middle" x="592.5" y="-331.5" font-family="Helvetica,sans-Serif" font-size="10.00">boca/tagger/Base.hh</text>
</a>
</g>
</g>
<!-- Node44&#45;&gt;Node48 -->
<g id="edge63" class="edge"><title>Node44&#45;&gt;Node48</title>
<path fill="none" stroke="midnightblue" d="M738.143,-385.975C708.856,-375.725 659.526,-358.459 626.498,-346.899"/>
<polygon fill="midnightblue" stroke="midnightblue" points="627.407,-343.509 616.812,-343.509 625.094,-350.116 627.407,-343.509"/>
</g>
<!-- Node45&#45;&gt;Node20 -->
<g id="edge58" class="edge"><title>Node45&#45;&gt;Node20</title>
<path fill="none" stroke="midnightblue" d="M761.799,-262.735C747.862,-247.585 723.372,-215.659 736.5,-190 741.557,-180.117 764.21,-164.756 782.397,-153.57"/>
<polygon fill="midnightblue" stroke="midnightblue" points="784.626,-156.313 791.383,-148.152 781.012,-150.318 784.626,-156.313"/>
</g>
<!-- Node46&#45;&gt;Node19 -->
<g id="edge60" class="edge"><title>Node46&#45;&gt;Node19</title>
<path fill="none" stroke="midnightblue" d="M597.5,-262.734C597.5,-253.183 597.5,-237.618 597.5,-225.283"/>
<polygon fill="midnightblue" stroke="midnightblue" points="601,-225.127 597.5,-215.127 594,-225.127 601,-225.127"/>
</g>
<!-- Node47&#45;&gt;Node20 -->
<g id="edge62" class="edge"><title>Node47&#45;&gt;Node20</title>
<path fill="none" stroke="midnightblue" d="M742.418,-324.39C728.938,-316.872 711.528,-304.565 703.5,-288 697.492,-275.601 700.964,-270.542 703.5,-257 709.378,-225.604 709.409,-214.832 729.5,-190 737.139,-180.558 762.834,-164.536 782.461,-153.069"/>
<polygon fill="midnightblue" stroke="midnightblue" points="784.32,-156.037 791.234,-148.008 780.823,-149.974 784.32,-156.037"/>
</g>
<!-- Node49&#45;&gt;Node5 -->
<g id="edge68" class="edge"><title>Node49&#45;&gt;Node5</title>
<path fill="none" stroke="midnightblue" d="M269.038,-380.399C253.169,-370.862 232.309,-358.325 216.532,-348.842"/>
<polygon fill="midnightblue" stroke="midnightblue" points="218.279,-345.809 207.905,-343.658 214.674,-351.809 218.279,-345.809"/>
</g>
<!-- Node49&#45;&gt;Node8 -->
<g id="edge67" class="edge"><title>Node49&#45;&gt;Node8</title>
<path fill="none" stroke="midnightblue" d="M304.112,-380.399C311.233,-371.753 320.383,-360.642 327.849,-351.576"/>
<polygon fill="midnightblue" stroke="midnightblue" points="330.715,-353.602 334.37,-343.658 325.311,-349.152 330.715,-353.602"/>
</g>
</g>
</svg>
