<?xml version="1.0" encoding="UTF-8" standalone="no"?>
<!DOCTYPE svg PUBLIC "-//W3C//DTD SVG 1.1//EN"
 "http://www.w3.org/Graphics/SVG/1.1/DTD/svg11.dtd">
<!-- Generated by graphviz version 2.38.0 (20140413.2041)
 -->
<!-- Title: examples/tthh/source/Branch.cpp Pages: 1 -->
<svg width="1317pt" height="509pt"
 viewBox="0.00 0.00 1316.50 509.00" xmlns="http://www.w3.org/2000/svg" xmlns:xlink="http://www.w3.org/1999/xlink">
<g id="graph0" class="graph" transform="scale(1 1) rotate(0) translate(4 505)">
<title>examples/tthh/source/Branch.cpp</title>
<polygon fill="white" stroke="none" points="-4,4 -4,-505 1312.5,-505 1312.5,4 -4,4"/>
<!-- Node1 -->
<g id="node1" class="node"><title>Node1</title>
<polygon fill="#bfbfbf" stroke="black" points="1021,-470.5 1021,-500.5 1131,-500.5 1131,-470.5 1021,-470.5"/>
<text text-anchor="start" x="1029" y="-488.5" font-family="Helvetica,sans-Serif" font-size="10.00">examples/tthh/source</text>
<text text-anchor="middle" x="1076" y="-477.5" font-family="Helvetica,sans-Serif" font-size="10.00">/Branch.cpp</text>
</g>
<!-- Node2 -->
<g id="node2" class="node"><title>Node2</title>
<g id="a_node2"><a xlink:href="OBSERVABLE__MACROS_8hh.html" target="_top" xlink:title="boca/OBSERVABLE_MACROS.hh">
<polygon fill="white" stroke="black" points="918.5,-414.5 918.5,-433.5 1089.5,-433.5 1089.5,-414.5 918.5,-414.5"/>
<text text-anchor="middle" x="1004" y="-421.5" font-family="Helvetica,sans-Serif" font-size="10.00">boca/OBSERVABLE_MACROS.hh</text>
</a>
</g>
</g>
<!-- Node1&#45;&gt;Node2 -->
<g id="edge1" class="edge"><title>Node1&#45;&gt;Node2</title>
<path fill="none" stroke="midnightblue" d="M1058.94,-470.399C1047.94,-461.308 1033.63,-449.49 1022.38,-440.191"/>
<polygon fill="midnightblue" stroke="midnightblue" points="1024.41,-437.33 1014.48,-433.658 1019.96,-442.726 1024.41,-437.33"/>
</g>
<!-- Node3 -->
<g id="node3" class="node"><title>Node3</title>
<g id="a_node3"><a xlink:href="tthh_2tthh_2Branch_8hh.html" target="_top" xlink:title="tthh/Branch.hh">
<polygon fill="white" stroke="black" points="1108,-414.5 1108,-433.5 1188,-433.5 1188,-414.5 1108,-414.5"/>
<text text-anchor="middle" x="1148" y="-421.5" font-family="Helvetica,sans-Serif" font-size="10.00">tthh/Branch.hh</text>
</a>
</g>
</g>
<!-- Node1&#45;&gt;Node3 -->
<g id="edge2" class="edge"><title>Node1&#45;&gt;Node3</title>
<path fill="none" stroke="midnightblue" d="M1093.06,-470.399C1104.06,-461.308 1118.37,-449.49 1129.62,-440.191"/>
<polygon fill="midnightblue" stroke="midnightblue" points="1132.04,-442.726 1137.52,-433.658 1127.59,-437.33 1132.04,-442.726"/>
</g>
<!-- Node4 -->
<g id="node4" class="node"><title>Node4</title>
<g id="a_node4"><a xlink:href="Prefixes_8hh.html" target="_top" xlink:title="boca/physics/Prefixes.hh">
<polygon fill="white" stroke="black" points="674.5,-358.5 674.5,-377.5 801.5,-377.5 801.5,-358.5 674.5,-358.5"/>
<text text-anchor="middle" x="738" y="-365.5" font-family="Helvetica,sans-Serif" font-size="10.00">boca/physics/Prefixes.hh</text>
</a>
</g>
</g>
<!-- Node3&#45;&gt;Node4 -->
<g id="edge3" class="edge"><title>Node3&#45;&gt;Node4</title>
<path fill="none" stroke="midnightblue" d="M1107.91,-415.589C1104.56,-415.029 1101.23,-414.492 1098,-414 999.13,-398.934 884.415,-385.245 811.546,-377.022"/>
<polygon fill="midnightblue" stroke="midnightblue" points="811.875,-373.537 801.547,-375.898 811.094,-380.493 811.875,-373.537"/>
</g>
<!-- Node20 -->
<g id="node20" class="node"><title>Node20</title>
<g id="a_node20"><a xlink:href="Bdt_8hh.html" target="_top" xlink:title="boca/branch/Bdt.hh">
<polygon fill="white" stroke="black" points="1179.5,-358.5 1179.5,-377.5 1280.5,-377.5 1280.5,-358.5 1179.5,-358.5"/>
<text text-anchor="middle" x="1230" y="-365.5" font-family="Helvetica,sans-Serif" font-size="10.00">boca/branch/Bdt.hh</text>
</a>
</g>
</g>
<!-- Node3&#45;&gt;Node20 -->
<g id="edge23" class="edge"><title>Node3&#45;&gt;Node20</title>
<path fill="none" stroke="midnightblue" d="M1161.17,-414.324C1173.85,-405.979 1193.23,-393.212 1208.21,-383.352"/>
<polygon fill="midnightblue" stroke="midnightblue" points="1210.43,-386.078 1216.86,-377.655 1206.58,-380.231 1210.43,-386.078"/>
</g>
<!-- Node24 -->
<g id="node24" class="node"><title>Node24</title>
<g id="a_node24"><a xlink:href="boca_2Observables_8hh.html" target="_top" xlink:title="boca/Observables.hh">
<polygon fill="white" stroke="black" points="1072.5,-230 1072.5,-249 1181.5,-249 1181.5,-230 1072.5,-230"/>
<text text-anchor="middle" x="1127" y="-237" font-family="Helvetica,sans-Serif" font-size="10.00">boca/Observables.hh</text>
</a>
</g>
</g>
<!-- Node3&#45;&gt;Node24 -->
<g id="edge34" class="edge"><title>Node3&#45;&gt;Node24</title>
<path fill="none" stroke="midnightblue" d="M1146.99,-414.198C1143.75,-386.073 1133.61,-297.958 1129.15,-259.157"/>
<polygon fill="midnightblue" stroke="midnightblue" points="1132.62,-258.748 1128,-249.214 1125.67,-259.549 1132.62,-258.748"/>
</g>
<!-- Node5 -->
<g id="node5" class="node"><title>Node5</title>
<polygon fill="white" stroke="#bfbfbf" points="615,-297 615,-316 725,-316 725,-297 615,-297"/>
<text text-anchor="middle" x="670" y="-304" font-family="Helvetica,sans-Serif" font-size="10.00">boost/units/scale.hpp</text>
</g>
<!-- Node4&#45;&gt;Node5 -->
<g id="edge4" class="edge"><title>Node4&#45;&gt;Node5</title>
<path fill="none" stroke="midnightblue" d="M728.257,-358.475C717.653,-349.197 700.481,-334.171 687.521,-322.831"/>
<polygon fill="midnightblue" stroke="midnightblue" points="689.555,-319.96 679.725,-316.009 684.946,-325.228 689.555,-319.96"/>
</g>
<!-- Node6 -->
<g id="node6" class="node"><title>Node6</title>
<polygon fill="white" stroke="#bfbfbf" points="743.5,-291.5 743.5,-321.5 868.5,-321.5 868.5,-291.5 743.5,-291.5"/>
<text text-anchor="start" x="751.5" y="-309.5" font-family="Helvetica,sans-Serif" font-size="10.00">boost/units/make_scaled</text>
<text text-anchor="middle" x="806" y="-298.5" font-family="Helvetica,sans-Serif" font-size="10.00">_unit.hpp</text>
</g>
<!-- Node4&#45;&gt;Node6 -->
<g id="edge5" class="edge"><title>Node4&#45;&gt;Node6</title>
<path fill="none" stroke="midnightblue" d="M747.743,-358.475C756.694,-350.643 770.326,-338.714 782.154,-328.366"/>
<polygon fill="midnightblue" stroke="midnightblue" points="784.753,-330.742 789.974,-321.523 780.143,-325.474 784.753,-330.742"/>
</g>
<!-- Node7 -->
<g id="node7" class="node"><title>Node7</title>
<polygon fill="white" stroke="#bfbfbf" points="886.5,-291.5 886.5,-321.5 997.5,-321.5 997.5,-291.5 886.5,-291.5"/>
<text text-anchor="start" x="894.5" y="-309.5" font-family="Helvetica,sans-Serif" font-size="10.00">boost/units/systems</text>
<text text-anchor="middle" x="942" y="-298.5" font-family="Helvetica,sans-Serif" font-size="10.00">/si/dimensionless.hpp</text>
</g>
<!-- Node4&#45;&gt;Node7 -->
<g id="edge6" class="edge"><title>Node4&#45;&gt;Node7</title>
<path fill="none" stroke="midnightblue" d="M767.228,-358.475C797.568,-349.626 845.833,-335.549 883.962,-324.428"/>
<polygon fill="midnightblue" stroke="midnightblue" points="885.301,-327.683 893.921,-321.523 883.341,-320.963 885.301,-327.683"/>
</g>
<!-- Node8 -->
<g id="node8" class="node"><title>Node8</title>
<polygon fill="white" stroke="#bfbfbf" points="1016,-297 1016,-316 1120,-316 1120,-297 1016,-297"/>
<text text-anchor="middle" x="1068" y="-304" font-family="Helvetica,sans-Serif" font-size="10.00">boost/units/pow.hpp</text>
</g>
<!-- Node4&#45;&gt;Node8 -->
<g id="edge7" class="edge"><title>Node4&#45;&gt;Node8</title>
<path fill="none" stroke="midnightblue" d="M795.178,-358.474C849.569,-350.111 933.608,-336.528 1006,-322 1011.69,-320.857 1017.66,-319.573 1023.55,-318.254"/>
<polygon fill="midnightblue" stroke="midnightblue" points="1024.36,-321.659 1033.33,-316.018 1022.8,-314.836 1024.36,-321.659"/>
</g>
<!-- Node9 -->
<g id="node9" class="node"><title>Node9</title>
<g id="a_node9"><a xlink:href="Si_8hh.html" target="_top" xlink:title="boca/physics/Si.hh">
<polygon fill="white" stroke="black" points="497,-297 497,-316 597,-316 597,-297 497,-297"/>
<text text-anchor="middle" x="547" y="-304" font-family="Helvetica,sans-Serif" font-size="10.00">boca/physics/Si.hh</text>
</a>
</g>
</g>
<!-- Node4&#45;&gt;Node9 -->
<g id="edge8" class="edge"><title>Node4&#45;&gt;Node9</title>
<path fill="none" stroke="midnightblue" d="M710.634,-358.475C677.446,-348.136 621.349,-330.661 584.242,-319.102"/>
<polygon fill="midnightblue" stroke="midnightblue" points="584.903,-315.642 574.315,-316.009 582.821,-322.325 584.903,-315.642"/>
</g>
<!-- Node13 -->
<g id="node13" class="node"><title>Node13</title>
<g id="a_node13"><a xlink:href="Barn_8hh.html" target="_top" xlink:title="boca/physics/Barn.hh">
<polygon fill="white" stroke="black" points="196.5,-297 196.5,-316 307.5,-316 307.5,-297 196.5,-297"/>
<text text-anchor="middle" x="252" y="-304" font-family="Helvetica,sans-Serif" font-size="10.00">boca/physics/Barn.hh</text>
</a>
</g>
</g>
<!-- Node4&#45;&gt;Node13 -->
<g id="edge12" class="edge"><title>Node4&#45;&gt;Node13</title>
<path fill="none" stroke="midnightblue" d="M674.261,-361.725C593.112,-354.623 448.704,-340.688 326,-322 318.265,-320.822 310.108,-319.404 302.149,-317.921"/>
<polygon fill="midnightblue" stroke="midnightblue" points="302.697,-314.463 292.218,-316.023 301.383,-321.339 302.697,-314.463"/>
</g>
<!-- Node18 -->
<g id="node18" class="node"><title>Node18</title>
<g id="a_node18"><a xlink:href="ElectronVolt_8hh.html" target="_top" xlink:title="boca/physics/ElectronVolt.hh">
<polygon fill="white" stroke="black" points="335,-297 335,-316 479,-316 479,-297 335,-297"/>
<text text-anchor="middle" x="407" y="-304" font-family="Helvetica,sans-Serif" font-size="10.00">boca/physics/ElectronVolt.hh</text>
</a>
</g>
</g>
<!-- Node4&#45;&gt;Node18 -->
<g id="edge18" class="edge"><title>Node4&#45;&gt;Node18</title>
<path fill="none" stroke="midnightblue" d="M690.576,-358.475C630.848,-347.739 528.309,-329.306 464.271,-317.795"/>
<polygon fill="midnightblue" stroke="midnightblue" points="464.798,-314.334 454.336,-316.009 463.559,-321.223 464.798,-314.334"/>
</g>
<!-- Node10 -->
<g id="node10" class="node"><title>Node10</title>
<polygon fill="white" stroke="#bfbfbf" points="486.5,-230 486.5,-249 607.5,-249 607.5,-230 486.5,-230"/>
<text text-anchor="middle" x="547" y="-237" font-family="Helvetica,sans-Serif" font-size="10.00">boost/units/quantity.hpp</text>
</g>
<!-- Node9&#45;&gt;Node10 -->
<g id="edge9" class="edge"><title>Node9&#45;&gt;Node10</title>
<path fill="none" stroke="midnightblue" d="M547,-296.734C547,-287.183 547,-271.618 547,-259.283"/>
<polygon fill="midnightblue" stroke="midnightblue" points="550.5,-259.127 547,-249.127 543.5,-259.127 550.5,-259.127"/>
</g>
<!-- Node11 -->
<g id="node11" class="node"><title>Node11</title>
<polygon fill="white" stroke="#bfbfbf" points="748.5,-224.5 748.5,-254.5 853.5,-254.5 853.5,-224.5 748.5,-224.5"/>
<text text-anchor="start" x="756.5" y="-242.5" font-family="Helvetica,sans-Serif" font-size="10.00">boost/units/systems</text>
<text text-anchor="middle" x="801" y="-231.5" font-family="Helvetica,sans-Serif" font-size="10.00">/si/plane_angle.hpp</text>
</g>
<!-- Node9&#45;&gt;Node11 -->
<g id="edge10" class="edge"><title>Node9&#45;&gt;Node11</title>
<path fill="none" stroke="midnightblue" d="M580.467,-296.936C620.628,-286.658 688.79,-269.215 738.728,-256.436"/>
<polygon fill="midnightblue" stroke="midnightblue" points="739.639,-259.816 748.459,-253.946 737.903,-253.034 739.639,-259.816"/>
</g>
<!-- Node12 -->
<g id="node12" class="node"><title>Node12</title>
<polygon fill="white" stroke="#bfbfbf" points="871.5,-224.5 871.5,-254.5 976.5,-254.5 976.5,-224.5 871.5,-224.5"/>
<text text-anchor="start" x="879.5" y="-242.5" font-family="Helvetica,sans-Serif" font-size="10.00">boost/units/systems</text>
<text text-anchor="middle" x="924" y="-231.5" font-family="Helvetica,sans-Serif" font-size="10.00">/si/length.hpp</text>
</g>
<!-- Node9&#45;&gt;Node12 -->
<g id="edge11" class="edge"><title>Node9&#45;&gt;Node12</title>
<path fill="none" stroke="midnightblue" d="M579.33,-296.929C587.957,-294.814 597.3,-292.676 606,-291 715.627,-269.877 747.279,-275.739 861.134,-255.043"/>
<polygon fill="midnightblue" stroke="midnightblue" points="862.105,-258.423 871.303,-253.165 860.834,-251.54 862.105,-258.423"/>
</g>
<!-- Node13&#45;&gt;Node10 -->
<g id="edge16" class="edge"><title>Node13&#45;&gt;Node10</title>
<path fill="none" stroke="midnightblue" d="M290.869,-296.936C344.151,-285.196 439.869,-264.105 497.998,-251.297"/>
<polygon fill="midnightblue" stroke="midnightblue" points="499.032,-254.653 508.044,-249.083 497.526,-247.817 499.032,-254.653"/>
</g>
<!-- Node14 -->
<g id="node14" class="node"><title>Node14</title>
<polygon fill="white" stroke="#bfbfbf" points="0,-0.5 0,-19.5 44,-19.5 44,-0.5 0,-0.5"/>
<text text-anchor="middle" x="22" y="-7.5" font-family="Helvetica,sans-Serif" font-size="10.00">vector</text>
</g>
<!-- Node13&#45;&gt;Node14 -->
<g id="edge13" class="edge"><title>Node13&#45;&gt;Node14</title>
<path fill="none" stroke="midnightblue" d="M196.271,-299.995C136.36,-292.945 46.4103,-278.716 22,-255 -2.97205,-230.738 3,-213.817 3,-179 3,-179 3,-179 3,-121 3,-88.4885 11.159,-51.3503 16.7838,-29.6103"/>
<polygon fill="midnightblue" stroke="midnightblue" points="20.218,-30.3175 19.4376,-19.7514 13.4586,-28.498 20.218,-30.3175"/>
</g>
<!-- Node15 -->
<g id="node15" class="node"><title>Node15</title>
<polygon fill="white" stroke="#bfbfbf" points="164.5,-230 164.5,-249 321.5,-249 321.5,-230 164.5,-230"/>
<text text-anchor="middle" x="243" y="-237" font-family="Helvetica,sans-Serif" font-size="10.00">boost/units/base_dimension.hpp</text>
</g>
<!-- Node13&#45;&gt;Node15 -->
<g id="edge14" class="edge"><title>Node13&#45;&gt;Node15</title>
<path fill="none" stroke="midnightblue" d="M250.786,-296.734C249.464,-287.183 247.309,-271.618 245.601,-259.283"/>
<polygon fill="midnightblue" stroke="midnightblue" points="249.033,-258.553 244.195,-249.127 242.099,-259.513 249.033,-258.553"/>
</g>
<!-- Node16 -->
<g id="node16" class="node"><title>Node16</title>
<polygon fill="white" stroke="#bfbfbf" points="340,-230 340,-249 468,-249 468,-230 340,-230"/>
<text text-anchor="middle" x="404" y="-237" font-family="Helvetica,sans-Serif" font-size="10.00">boost/units/base_unit.hpp</text>
</g>
<!-- Node13&#45;&gt;Node16 -->
<g id="edge15" class="edge"><title>Node13&#45;&gt;Node16</title>
<path fill="none" stroke="midnightblue" d="M272.184,-296.869C298.304,-285.699 344.026,-266.147 374.161,-253.26"/>
<polygon fill="midnightblue" stroke="midnightblue" points="375.914,-256.317 383.732,-249.167 373.161,-249.881 375.914,-256.317"/>
</g>
<!-- Node17 -->
<g id="node17" class="node"><title>Node17</title>
<polygon fill="white" stroke="#bfbfbf" points="31.5,-224.5 31.5,-254.5 146.5,-254.5 146.5,-224.5 31.5,-224.5"/>
<text text-anchor="start" x="39.5" y="-242.5" font-family="Helvetica,sans-Serif" font-size="10.00">boost/units/base_units</text>
<text text-anchor="middle" x="89" y="-231.5" font-family="Helvetica,sans-Serif" font-size="10.00">/metric/barn.hpp</text>
</g>
<!-- Node13&#45;&gt;Node17 -->
<g id="edge17" class="edge"><title>Node13&#45;&gt;Node17</title>
<path fill="none" stroke="midnightblue" d="M230.355,-296.869C205.79,-287.073 165.057,-270.83 133.611,-258.29"/>
<polygon fill="midnightblue" stroke="midnightblue" points="134.763,-254.981 124.178,-254.528 132.17,-261.483 134.763,-254.981"/>
</g>
<!-- Node18&#45;&gt;Node10 -->
<g id="edge21" class="edge"><title>Node18&#45;&gt;Node10</title>
<path fill="none" stroke="midnightblue" d="M425.591,-296.869C449.544,-285.748 491.395,-266.317 519.154,-253.429"/>
<polygon fill="midnightblue" stroke="midnightblue" points="520.736,-256.553 528.332,-249.167 517.788,-250.204 520.736,-256.553"/>
</g>
<!-- Node18&#45;&gt;Node15 -->
<g id="edge19" class="edge"><title>Node18&#45;&gt;Node15</title>
<path fill="none" stroke="midnightblue" d="M385.222,-296.869C356.717,-285.571 306.572,-265.696 274.08,-252.818"/>
<polygon fill="midnightblue" stroke="midnightblue" points="275.193,-249.495 264.607,-249.064 272.614,-256.002 275.193,-249.495"/>
</g>
<!-- Node18&#45;&gt;Node16 -->
<g id="edge20" class="edge"><title>Node18&#45;&gt;Node16</title>
<path fill="none" stroke="midnightblue" d="M406.595,-296.734C406.155,-287.183 405.436,-271.618 404.867,-259.283"/>
<polygon fill="midnightblue" stroke="midnightblue" points="408.356,-258.955 404.398,-249.127 401.363,-259.278 408.356,-258.955"/>
</g>
<!-- Node19 -->
<g id="node19" class="node"><title>Node19</title>
<polygon fill="white" stroke="#bfbfbf" points="625.5,-224.5 625.5,-254.5 730.5,-254.5 730.5,-224.5 625.5,-224.5"/>
<text text-anchor="start" x="633.5" y="-242.5" font-family="Helvetica,sans-Serif" font-size="10.00">boost/units/systems</text>
<text text-anchor="middle" x="678" y="-231.5" font-family="Helvetica,sans-Serif" font-size="10.00">/si/energy.hpp</text>
</g>
<!-- Node18&#45;&gt;Node19 -->
<g id="edge22" class="edge"><title>Node18&#45;&gt;Node19</title>
<path fill="none" stroke="midnightblue" d="M442.707,-296.936C486.681,-286.388 562.121,-268.294 615.718,-255.438"/>
<polygon fill="midnightblue" stroke="midnightblue" points="616.551,-258.838 625.459,-253.102 614.919,-252.031 616.551,-258.838"/>
</g>
<!-- Node21 -->
<g id="node21" class="node"><title>Node21</title>
<g id="a_node21"><a xlink:href="branch_2Result_8hh.html" target="_top" xlink:title="boca/branch/Result.hh">
<polygon fill="white" stroke="black" points="1176.5,-297 1176.5,-316 1291.5,-316 1291.5,-297 1176.5,-297"/>
<text text-anchor="middle" x="1234" y="-304" font-family="Helvetica,sans-Serif" font-size="10.00">boca/branch/Result.hh</text>
</a>
</g>
</g>
<!-- Node20&#45;&gt;Node21 -->
<g id="edge24" class="edge"><title>Node20&#45;&gt;Node21</title>
<path fill="none" stroke="midnightblue" d="M1230.57,-358.475C1231.14,-350.08 1232.02,-336.981 1232.75,-326.163"/>
<polygon fill="midnightblue" stroke="midnightblue" points="1236.25,-326.221 1233.43,-316.009 1229.26,-325.752 1236.25,-326.221"/>
</g>
<!-- Node22 -->
<g id="node22" class="node"><title>Node22</title>
<g id="a_node22"><a xlink:href="branch_2Base_8hh.html" target="_top" xlink:title="boca/branch/Base.hh">
<polygon fill="white" stroke="black" points="1199.5,-230 1199.5,-249 1308.5,-249 1308.5,-230 1199.5,-230"/>
<text text-anchor="middle" x="1254" y="-237" font-family="Helvetica,sans-Serif" font-size="10.00">boca/branch/Base.hh</text>
</a>
</g>
</g>
<!-- Node21&#45;&gt;Node22 -->
<g id="edge25" class="edge"><title>Node21&#45;&gt;Node22</title>
<path fill="none" stroke="midnightblue" d="M1236.7,-296.734C1239.67,-287.085 1244.52,-271.3 1248.34,-258.906"/>
<polygon fill="midnightblue" stroke="midnightblue" points="1251.75,-259.714 1251.35,-249.127 1245.06,-257.656 1251.75,-259.714"/>
</g>
<!-- Node21&#45;&gt;Node24 -->
<g id="edge27" class="edge"><title>Node21&#45;&gt;Node24</title>
<path fill="none" stroke="midnightblue" d="M1219.57,-296.734C1201.68,-285.867 1170.98,-267.216 1149.87,-254.393"/>
<polygon fill="midnightblue" stroke="midnightblue" points="1151.57,-251.328 1141.2,-249.127 1147.93,-257.311 1151.57,-251.328"/>
</g>
<!-- Node23 -->
<g id="node23" class="node"><title>Node23</title>
<polygon fill="white" stroke="#bfbfbf" points="1224.5,-168.5 1224.5,-187.5 1283.5,-187.5 1283.5,-168.5 1224.5,-168.5"/>
<text text-anchor="middle" x="1254" y="-175.5" font-family="Helvetica,sans-Serif" font-size="10.00">TObject.h</text>
</g>
<!-- Node22&#45;&gt;Node23 -->
<g id="edge26" class="edge"><title>Node22&#45;&gt;Node23</title>
<path fill="none" stroke="midnightblue" d="M1254,-229.975C1254,-221.58 1254,-208.481 1254,-197.663"/>
<polygon fill="midnightblue" stroke="midnightblue" points="1257.5,-197.509 1254,-187.509 1250.5,-197.509 1257.5,-197.509"/>
</g>
<!-- Node25 -->
<g id="node25" class="node"><title>Node25</title>
<g id="a_node25"><a xlink:href="Observable_8hh.html" target="_top" xlink:title="boca/Observable.hh">
<polygon fill="white" stroke="black" points="553,-168.5 553,-187.5 657,-187.5 657,-168.5 553,-168.5"/>
<text text-anchor="middle" x="605" y="-175.5" font-family="Helvetica,sans-Serif" font-size="10.00">boca/Observable.hh</text>
</a>
</g>
</g>
<!-- Node24&#45;&gt;Node25 -->
<g id="edge28" class="edge"><title>Node24&#45;&gt;Node25</title>
<path fill="none" stroke="midnightblue" d="M1072.12,-232.245C974.213,-221.085 770.052,-197.813 667.14,-186.083"/>
<polygon fill="midnightblue" stroke="midnightblue" points="667.535,-182.605 657.203,-184.95 666.742,-189.56 667.535,-182.605"/>
</g>
<!-- Node26 -->
<g id="node26" class="node"><title>Node26</title>
<g id="a_node26"><a xlink:href="Names_8hh.html" target="_top" xlink:title="boca/Names.hh">
<polygon fill="white" stroke="black" points="321,-112.5 321,-131.5 407,-131.5 407,-112.5 321,-112.5"/>
<text text-anchor="middle" x="364" y="-119.5" font-family="Helvetica,sans-Serif" font-size="10.00">boca/Names.hh</text>
</a>
</g>
</g>
<!-- Node25&#45;&gt;Node26 -->
<g id="edge29" class="edge"><title>Node25&#45;&gt;Node26</title>
<path fill="none" stroke="midnightblue" d="M566.813,-168.444C524.859,-159.043 457.406,-143.929 411.929,-133.739"/>
<polygon fill="midnightblue" stroke="midnightblue" points="412.532,-130.288 402.009,-131.516 411.001,-137.118 412.532,-130.288"/>
</g>
<!-- Node27 -->
<g id="node27" class="node"><title>Node27</title>
<g id="a_node27"><a xlink:href="String_8hh.html" target="_top" xlink:title="boca/latex/String.hh">
<polygon fill="white" stroke="black" points="51,-56.5 51,-75.5 155,-75.5 155,-56.5 51,-56.5"/>
<text text-anchor="middle" x="103" y="-63.5" font-family="Helvetica,sans-Serif" font-size="10.00">boca/latex/String.hh</text>
</a>
</g>
</g>
<!-- Node26&#45;&gt;Node27 -->
<g id="edge30" class="edge"><title>Node26&#45;&gt;Node27</title>
<path fill="none" stroke="midnightblue" d="M322.644,-112.444C276.922,-102.984 203.236,-87.7384 153.978,-77.5472"/>
<polygon fill="midnightblue" stroke="midnightblue" points="154.664,-74.1152 144.163,-75.5164 153.246,-80.97 154.664,-74.1152"/>
</g>
<!-- Node27&#45;&gt;Node14 -->
<g id="edge33" class="edge"><title>Node27&#45;&gt;Node14</title>
<path fill="none" stroke="midnightblue" d="M89.9859,-56.324C77.4684,-47.979 58.3183,-35.2122 43.5286,-25.3524"/>
<polygon fill="midnightblue" stroke="midnightblue" points="45.2437,-22.2894 34.9818,-19.6545 41.3608,-28.1137 45.2437,-22.2894"/>
</g>
<!-- Node28 -->
<g id="node28" class="node"><title>Node28</title>
<polygon fill="white" stroke="#bfbfbf" points="72.5,-0.5 72.5,-19.5 113.5,-19.5 113.5,-0.5 72.5,-0.5"/>
<text text-anchor="middle" x="93" y="-7.5" font-family="Helvetica,sans-Serif" font-size="10.00">string</text>
</g>
<!-- Node27&#45;&gt;Node28 -->
<g id="edge31" class="edge"><title>Node27&#45;&gt;Node28</title>
<path fill="none" stroke="midnightblue" d="M101.349,-56.083C100.024,-48.9272 98.1176,-38.6353 96.4613,-29.6911"/>
<polygon fill="midnightblue" stroke="midnightblue" points="99.883,-28.9466 94.6206,-19.7511 93.0001,-30.2212 99.883,-28.9466"/>
</g>
<!-- Node29 -->
<g id="node29" class="node"><title>Node29</title>
<polygon fill="white" stroke="#bfbfbf" points="131.5,-0.5 131.5,-19.5 174.5,-19.5 174.5,-0.5 131.5,-0.5"/>
<text text-anchor="middle" x="153" y="-7.5" font-family="Helvetica,sans-Serif" font-size="10.00">deque</text>
</g>
<!-- Node27&#45;&gt;Node29 -->
<g id="edge32" class="edge"><title>Node27&#45;&gt;Node29</title>
<path fill="none" stroke="midnightblue" d="M111.256,-56.083C118.465,-48.2982 129.11,-36.8015 137.846,-27.3665"/>
<polygon fill="midnightblue" stroke="midnightblue" points="140.671,-29.4666 144.897,-19.7511 135.535,-24.7108 140.671,-29.4666"/>
</g>
</g>
</svg>
