<?xml version="1.0" encoding="UTF-8" standalone="no"?>
<!DOCTYPE svg PUBLIC "-//W3C//DTD SVG 1.1//EN"
 "http://www.w3.org/Graphics/SVG/1.1/DTD/svg11.dtd">
<!-- Generated by graphviz version 2.38.0 (20140413.2041)
 -->
<!-- Title: boca/math/Vector3.hh Pages: 1 -->
<svg width="3887pt" height="374pt"
 viewBox="0.00 0.00 3887.00 374.00" xmlns="http://www.w3.org/2000/svg" xmlns:xlink="http://www.w3.org/1999/xlink">
<g id="graph0" class="graph" transform="scale(1 1) rotate(0) translate(4 370)">
<title>boca/math/Vector3.hh</title>
<polygon fill="white" stroke="none" points="-4,4 -4,-370 3883,-370 3883,4 -4,4"/>
<!-- Node1 -->
<g id="node1" class="node"><title>Node1</title>
<polygon fill="#bfbfbf" stroke="black" points="2628.5,-346.5 2628.5,-365.5 2741.5,-365.5 2741.5,-346.5 2628.5,-346.5"/>
<text text-anchor="middle" x="2685" y="-353.5" font-family="Helvetica,sans-Serif" font-size="10.00">boca/math/Vector3.hh</text>
</g>
<!-- Node2 -->
<g id="node2" class="node"><title>Node2</title>
<g id="a_node2"><a xlink:href="Plotting_8hh.html" target="_top" xlink:title="boca/plotting/Plotting.hh">
<polygon fill="white" stroke="black" points="1760,-290.5 1760,-309.5 1882,-309.5 1882,-290.5 1760,-290.5"/>
<text text-anchor="middle" x="1821" y="-297.5" font-family="Helvetica,sans-Serif" font-size="10.00">boca/plotting/Plotting.hh</text>
</a>
</g>
</g>
<!-- Node1&#45;&gt;Node2 -->
<g id="edge1" class="edge"><title>Node1&#45;&gt;Node2</title>
<path fill="none" stroke="midnightblue" d="M2617.93,-350.808C2454.79,-340.612 2039.09,-314.631 1882.2,-304.825"/>
<polygon fill="midnightblue" stroke="midnightblue" points="2618.11,-354.326 2628.31,-351.457 2618.55,-347.34 2618.11,-354.326"/>
</g>
<!-- Node25 -->
<g id="node25" class="node"><title>Node25</title>
<g id="a_node25"><a xlink:href="LorentzVectorBase_8hh.html" target="_top" xlink:title="boca/math/LorentzVectorBase.hh">
<polygon fill="white" stroke="black" points="2529,-290.5 2529,-309.5 2691,-309.5 2691,-290.5 2529,-290.5"/>
<text text-anchor="middle" x="2610" y="-297.5" font-family="Helvetica,sans-Serif" font-size="10.00">boca/math/LorentzVectorBase.hh</text>
</a>
</g>
</g>
<!-- Node1&#45;&gt;Node25 -->
<g id="edge24" class="edge"><title>Node1&#45;&gt;Node25</title>
<path fill="none" stroke="midnightblue" d="M2664.69,-340.38C2651.14,-330.62 2633.76,-318.106 2622.27,-309.834"/>
<polygon fill="midnightblue" stroke="midnightblue" points="2662.79,-343.321 2672.95,-346.324 2666.88,-337.641 2662.79,-343.321"/>
</g>
<!-- Node36 -->
<g id="node36" class="node"><title>Node36</title>
<g id="a_node36"><a xlink:href="GradedVector3_8hh.html" target="_top" xlink:title="boca/math/GradedVector3.hh">
<polygon fill="white" stroke="black" points="2236,-290.5 2236,-309.5 2380,-309.5 2380,-290.5 2236,-290.5"/>
<text text-anchor="middle" x="2308" y="-297.5" font-family="Helvetica,sans-Serif" font-size="10.00">boca/math/GradedVector3.hh</text>
</a>
</g>
</g>
<!-- Node1&#45;&gt;Node36 -->
<g id="edge37" class="edge"><title>Node1&#45;&gt;Node36</title>
<path fill="none" stroke="midnightblue" d="M2617.96,-345.398C2546.86,-335.213 2435.59,-319.275 2367.49,-309.522"/>
<polygon fill="midnightblue" stroke="midnightblue" points="2617.76,-348.904 2628.15,-346.857 2618.75,-341.975 2617.76,-348.904"/>
</g>
<!-- Node40 -->
<g id="node40" class="node"><title>Node40</title>
<g id="a_node40"><a xlink:href="Line3_8hh.html" target="_top" xlink:title="boca/math/Line3.hh">
<polygon fill="white" stroke="black" points="2709,-290.5 2709,-309.5 2811,-309.5 2811,-290.5 2709,-290.5"/>
<text text-anchor="middle" x="2760" y="-297.5" font-family="Helvetica,sans-Serif" font-size="10.00">boca/math/Line3.hh</text>
</a>
</g>
</g>
<!-- Node1&#45;&gt;Node40 -->
<g id="edge42" class="edge"><title>Node1&#45;&gt;Node40</title>
<path fill="none" stroke="midnightblue" d="M2705.31,-340.38C2718.86,-330.62 2736.24,-318.106 2747.73,-309.834"/>
<polygon fill="midnightblue" stroke="midnightblue" points="2703.12,-337.641 2697.05,-346.324 2707.21,-343.321 2703.12,-337.641"/>
</g>
<!-- Node41 -->
<g id="node41" class="node"><title>Node41</title>
<g id="a_node41"><a xlink:href="Plot_8hh.html" target="_top" xlink:title="boca/plotting/Plot.hh">
<polygon fill="white" stroke="black" points="3415,-290.5 3415,-309.5 3521,-309.5 3521,-290.5 3415,-290.5"/>
<text text-anchor="middle" x="3468" y="-297.5" font-family="Helvetica,sans-Serif" font-size="10.00">boca/plotting/Plot.hh</text>
</a>
</g>
</g>
<!-- Node1&#45;&gt;Node41 -->
<g id="edge43" class="edge"><title>Node1&#45;&gt;Node41</title>
<path fill="none" stroke="midnightblue" d="M2751.8,-350.393C2904.45,-339.866 3276.33,-314.218 3414.85,-304.665"/>
<polygon fill="midnightblue" stroke="midnightblue" points="2751.36,-346.915 2741.63,-351.095 2751.84,-353.898 2751.36,-346.915"/>
</g>
<!-- Node50 -->
<g id="node50" class="node"><title>Node50</title>
<g id="a_node50"><a xlink:href="Vector3_8cpp.html" target="_top" xlink:title="source/math/Vector3.cpp">
<polygon fill="white" stroke="black" points="3539,-290.5 3539,-309.5 3665,-309.5 3665,-290.5 3539,-290.5"/>
<text text-anchor="middle" x="3602" y="-297.5" font-family="Helvetica,sans-Serif" font-size="10.00">source/math/Vector3.cpp</text>
</a>
</g>
</g>
<!-- Node1&#45;&gt;Node50 -->
<g id="edge54" class="edge"><title>Node1&#45;&gt;Node50</title>
<path fill="none" stroke="midnightblue" d="M2752.08,-353.05C2895.21,-348.532 3241.09,-335.717 3530,-310 3532.89,-309.743 3535.83,-309.46 3538.81,-309.157"/>
<polygon fill="midnightblue" stroke="midnightblue" points="2751.6,-349.563 2741.72,-353.374 2751.82,-356.56 2751.6,-349.563"/>
</g>
<!-- Node3 -->
<g id="node3" class="node"><title>Node3</title>
<g id="a_node3"><a xlink:href="boca_2analysis_2Analysis_8hh.html" target="_top" xlink:title="boca/analysis/Analysis.hh">
<polygon fill="white" stroke="black" points="1388.5,-229 1388.5,-248 1519.5,-248 1519.5,-229 1388.5,-229"/>
<text text-anchor="middle" x="1454" y="-236" font-family="Helvetica,sans-Serif" font-size="10.00">boca/analysis/Analysis.hh</text>
</a>
</g>
</g>
<!-- Node2&#45;&gt;Node3 -->
<g id="edge2" class="edge"><title>Node2&#45;&gt;Node3</title>
<path fill="none" stroke="midnightblue" d="M1758.27,-288.83C1687.29,-277.322 1572.93,-258.782 1506.48,-248.009"/>
<polygon fill="midnightblue" stroke="midnightblue" points="1757.99,-292.33 1768.42,-290.475 1759.11,-285.42 1757.99,-292.33"/>
</g>
<!-- Node4 -->
<g id="node4" class="node"><title>Node4</title>
<g id="a_node4"><a xlink:href="boca_2analysis_2Cut_8hh.html" target="_top" xlink:title="boca/analysis/Cut.hh">
<polygon fill="white" stroke="black" points="248.5,-156.5 248.5,-175.5 357.5,-175.5 357.5,-156.5 248.5,-156.5"/>
<text text-anchor="middle" x="303" y="-163.5" font-family="Helvetica,sans-Serif" font-size="10.00">boca/analysis/Cut.hh</text>
</a>
</g>
</g>
<!-- Node3&#45;&gt;Node4 -->
<g id="edge3" class="edge"><title>Node3&#45;&gt;Node4</title>
<path fill="none" stroke="midnightblue" d="M1378.33,-233.285C1228.81,-224.903 884.958,-205.365 596,-187 512.805,-181.712 416.363,-175.021 357.531,-170.875"/>
<polygon fill="midnightblue" stroke="midnightblue" points="1378.15,-236.78 1388.33,-233.845 1378.54,-229.791 1378.15,-236.78"/>
</g>
<!-- Node6 -->
<g id="node6" class="node"><title>Node6</title>
<g id="a_node6"><a xlink:href="HeavyHiggs_8hh.html" target="_top" xlink:title="examples/heavyhiggs\l/heavyhiggs/analysis\l/HeavyHiggs.hh">
<polygon fill="white" stroke="black" points="605.5,-145.5 605.5,-186.5 716.5,-186.5 716.5,-145.5 605.5,-145.5"/>
<text text-anchor="start" x="613.5" y="-174.5" font-family="Helvetica,sans-Serif" font-size="10.00">examples/heavyhiggs</text>
<text text-anchor="start" x="613.5" y="-163.5" font-family="Helvetica,sans-Serif" font-size="10.00">/heavyhiggs/analysis</text>
<text text-anchor="middle" x="661" y="-152.5" font-family="Helvetica,sans-Serif" font-size="10.00">/HeavyHiggs.hh</text>
</a>
</g>
</g>
<!-- Node3&#45;&gt;Node6 -->
<g id="edge5" class="edge"><title>Node3&#45;&gt;Node6</title>
<path fill="none" stroke="midnightblue" d="M1378.29,-230.769C1219.74,-216.674 855.999,-184.336 716.689,-171.951"/>
<polygon fill="midnightblue" stroke="midnightblue" points="1378.16,-234.271 1388.43,-231.671 1378.78,-227.299 1378.16,-234.271"/>
</g>
<!-- Node13 -->
<g id="node13" class="node"><title>Node13</title>
<g id="a_node13"><a xlink:href="examples_2higgscpv_2higgscpv_2Analysis_8hh.html" target="_top" xlink:title="examples/higgscpv/higgscpv\l/Analysis.hh">
<polygon fill="white" stroke="black" points="1898.5,-73 1898.5,-103 2041.5,-103 2041.5,-73 1898.5,-73"/>
<text text-anchor="start" x="1906.5" y="-91" font-family="Helvetica,sans-Serif" font-size="10.00">examples/higgscpv/higgscpv</text>
<text text-anchor="middle" x="1970" y="-80" font-family="Helvetica,sans-Serif" font-size="10.00">/Analysis.hh</text>
</a>
</g>
</g>
<!-- Node3&#45;&gt;Node13 -->
<g id="edge12" class="edge"><title>Node3&#45;&gt;Node13</title>
<path fill="none" stroke="midnightblue" d="M1516.13,-227.242C1566.01,-218.398 1637.61,-204.33 1699,-187 1785.91,-162.466 1884.99,-123.81 1935.87,-103.142"/>
<polygon fill="midnightblue" stroke="midnightblue" points="1515.39,-223.819 1506.14,-228.995 1516.6,-230.714 1515.39,-223.819"/>
</g>
<!-- Node15 -->
<g id="node15" class="node"><title>Node15</title>
<g id="a_node15"><a xlink:href="examples_2simple_2simple_2Analysis_8hh.html" target="_top" xlink:title="examples/simple/simple\l/Analysis.hh">
<polygon fill="white" stroke="black" points="1089,-151 1089,-181 1211,-181 1211,-151 1089,-151"/>
<text text-anchor="start" x="1097" y="-169" font-family="Helvetica,sans-Serif" font-size="10.00">examples/simple/simple</text>
<text text-anchor="middle" x="1150" y="-158" font-family="Helvetica,sans-Serif" font-size="10.00">/Analysis.hh</text>
</a>
</g>
</g>
<!-- Node3&#45;&gt;Node15 -->
<g id="edge14" class="edge"><title>Node3&#45;&gt;Node15</title>
<path fill="none" stroke="midnightblue" d="M1407.56,-226.729C1354.76,-214.485 1268.39,-194.455 1210.39,-181.006"/>
<polygon fill="midnightblue" stroke="midnightblue" points="1406.8,-230.146 1417.33,-228.996 1408.38,-223.327 1406.8,-230.146"/>
</g>
<!-- Node17 -->
<g id="node17" class="node"><title>Node17</title>
<g id="a_node17"><a xlink:href="StandardModel_8hh.html" target="_top" xlink:title="examples/standardmodel\l/standardmodel/analysis\l/StandardModel.hh">
<polygon fill="white" stroke="red" points="1325.5,-145.5 1325.5,-186.5 1450.5,-186.5 1450.5,-145.5 1325.5,-145.5"/>
<text text-anchor="start" x="1333.5" y="-174.5" font-family="Helvetica,sans-Serif" font-size="10.00">examples/standardmodel</text>
<text text-anchor="start" x="1333.5" y="-163.5" font-family="Helvetica,sans-Serif" font-size="10.00">/standardmodel/analysis</text>
<text text-anchor="middle" x="1388" y="-152.5" font-family="Helvetica,sans-Serif" font-size="10.00">/StandardModel.hh</text>
</a>
</g>
</g>
<!-- Node3&#45;&gt;Node17 -->
<g id="edge16" class="edge"><title>Node3&#45;&gt;Node17</title>
<path fill="none" stroke="midnightblue" d="M1438.89,-221.361C1429.23,-211.045 1416.65,-197.6 1406.41,-186.662"/>
<polygon fill="midnightblue" stroke="midnightblue" points="1436.52,-223.947 1445.91,-228.855 1441.63,-219.163 1436.52,-223.947"/>
</g>
<!-- Node23 -->
<g id="node23" class="node"><title>Node23</title>
<g id="a_node23"><a xlink:href="analysis_2TopPartner_8hh.html" target="_top" xlink:title="examples/toppartner\l/toppartner/analysis\l/TopPartner.hh">
<polygon fill="white" stroke="red" points="1468.5,-145.5 1468.5,-186.5 1573.5,-186.5 1573.5,-145.5 1468.5,-145.5"/>
<text text-anchor="start" x="1476.5" y="-174.5" font-family="Helvetica,sans-Serif" font-size="10.00">examples/toppartner</text>
<text text-anchor="start" x="1476.5" y="-163.5" font-family="Helvetica,sans-Serif" font-size="10.00">/toppartner/analysis</text>
<text text-anchor="middle" x="1521" y="-152.5" font-family="Helvetica,sans-Serif" font-size="10.00">/TopPartner.hh</text>
</a>
</g>
</g>
<!-- Node3&#45;&gt;Node23 -->
<g id="edge22" class="edge"><title>Node3&#45;&gt;Node23</title>
<path fill="none" stroke="midnightblue" d="M1469.34,-221.361C1479.14,-211.045 1491.92,-197.6 1502.31,-186.662"/>
<polygon fill="midnightblue" stroke="midnightblue" points="1466.57,-219.195 1462.22,-228.855 1471.64,-224.018 1466.57,-219.195"/>
</g>
<!-- Node24 -->
<g id="node24" class="node"><title>Node24</title>
<g id="a_node24"><a xlink:href="examples_2tthh_2tthh_2Analysis_8hh.html" target="_top" xlink:title="examples/tthh/tthh\l/Analysis.hh">
<polygon fill="white" stroke="red" points="1592,-151 1592,-181 1690,-181 1690,-151 1592,-151"/>
<text text-anchor="start" x="1600" y="-169" font-family="Helvetica,sans-Serif" font-size="10.00">examples/tthh/tthh</text>
<text text-anchor="middle" x="1641" y="-158" font-family="Helvetica,sans-Serif" font-size="10.00">/Analysis.hh</text>
</a>
</g>
</g>
<!-- Node3&#45;&gt;Node24 -->
<g id="edge23" class="edge"><title>Node3&#45;&gt;Node24</title>
<path fill="none" stroke="midnightblue" d="M1486.09,-225.403C1518.78,-213.077 1569.44,-193.98 1603.85,-181.006"/>
<polygon fill="midnightblue" stroke="midnightblue" points="1484.68,-222.193 1476.56,-228.996 1487.15,-228.743 1484.68,-222.193"/>
</g>
<!-- Node5 -->
<g id="node5" class="node"><title>Node5</title>
<g id="a_node5"><a xlink:href="examples_2cut_2cut_2Analysis_8hh.html" target="_top" xlink:title="examples/cut/cut/Analysis.hh">
<polygon fill="white" stroke="red" points="0,-78.5 0,-97.5 146,-97.5 146,-78.5 0,-78.5"/>
<text text-anchor="middle" x="73" y="-85.5" font-family="Helvetica,sans-Serif" font-size="10.00">examples/cut/cut/Analysis.hh</text>
</a>
</g>
</g>
<!-- Node4&#45;&gt;Node5 -->
<g id="edge4" class="edge"><title>Node4&#45;&gt;Node5</title>
<path fill="none" stroke="midnightblue" d="M267.372,-153.227C220.721,-137.812 140.045,-111.154 98.842,-97.5391"/>
<polygon fill="midnightblue" stroke="midnightblue" points="266.47,-156.615 277.063,-156.43 268.666,-149.969 266.47,-156.615"/>
</g>
<!-- Node7 -->
<g id="node7" class="node"><title>Node7</title>
<g id="a_node7"><a xlink:href="Charged_8hh.html" target="_top" xlink:title="examples/heavyhiggs\l/heavyhiggs/analysis\l/Charged.hh">
<polygon fill="white" stroke="red" points="605.5,-67.5 605.5,-108.5 716.5,-108.5 716.5,-67.5 605.5,-67.5"/>
<text text-anchor="start" x="613.5" y="-96.5" font-family="Helvetica,sans-Serif" font-size="10.00">examples/heavyhiggs</text>
<text text-anchor="start" x="613.5" y="-85.5" font-family="Helvetica,sans-Serif" font-size="10.00">/heavyhiggs/analysis</text>
<text text-anchor="middle" x="661" y="-74.5" font-family="Helvetica,sans-Serif" font-size="10.00">/Charged.hh</text>
</a>
</g>
</g>
<!-- Node6&#45;&gt;Node7 -->
<g id="edge6" class="edge"><title>Node6&#45;&gt;Node7</title>
<path fill="none" stroke="midnightblue" d="M661,-135.297C661,-126.301 661,-116.653 661,-108.506"/>
<polygon fill="midnightblue" stroke="midnightblue" points="657.5,-135.428 661,-145.428 664.5,-135.428 657.5,-135.428"/>
</g>
<!-- Node8 -->
<g id="node8" class="node"><title>Node8</title>
<g id="a_node8"><a xlink:href="Fusion_8hh.html" target="_top" xlink:title="examples/heavyhiggs\l/heavyhiggs/analysis\l/Fusion.hh">
<polygon fill="white" stroke="red" points="734.5,-67.5 734.5,-108.5 845.5,-108.5 845.5,-67.5 734.5,-67.5"/>
<text text-anchor="start" x="742.5" y="-96.5" font-family="Helvetica,sans-Serif" font-size="10.00">examples/heavyhiggs</text>
<text text-anchor="start" x="742.5" y="-85.5" font-family="Helvetica,sans-Serif" font-size="10.00">/heavyhiggs/analysis</text>
<text text-anchor="middle" x="790" y="-74.5" font-family="Helvetica,sans-Serif" font-size="10.00">/Fusion.hh</text>
</a>
</g>
</g>
<!-- Node6&#45;&gt;Node8 -->
<g id="edge7" class="edge"><title>Node6&#45;&gt;Node8</title>
<path fill="none" stroke="midnightblue" d="M703.09,-140.203C720.548,-129.918 740.507,-118.159 756.892,-108.506"/>
<polygon fill="midnightblue" stroke="midnightblue" points="701.06,-137.336 694.221,-145.428 704.613,-143.368 701.06,-137.336"/>
</g>
<!-- Node9 -->
<g id="node9" class="node"><title>Node9</title>
<g id="a_node9"><a xlink:href="Neutral_8hh.html" target="_top" xlink:title="examples/heavyhiggs\l/heavyhiggs/analysis\l/Neutral.hh">
<polygon fill="white" stroke="red" points="863.5,-67.5 863.5,-108.5 974.5,-108.5 974.5,-67.5 863.5,-67.5"/>
<text text-anchor="start" x="871.5" y="-96.5" font-family="Helvetica,sans-Serif" font-size="10.00">examples/heavyhiggs</text>
<text text-anchor="start" x="871.5" y="-85.5" font-family="Helvetica,sans-Serif" font-size="10.00">/heavyhiggs/analysis</text>
<text text-anchor="middle" x="919" y="-74.5" font-family="Helvetica,sans-Serif" font-size="10.00">/Neutral.hh</text>
</a>
</g>
</g>
<!-- Node6&#45;&gt;Node9 -->
<g id="edge8" class="edge"><title>Node6&#45;&gt;Node9</title>
<path fill="none" stroke="midnightblue" d="M726.575,-146.257C763.957,-135.501 811.654,-121.657 854,-109 857.054,-108.087 860.187,-107.144 863.349,-106.188"/>
<polygon fill="midnightblue" stroke="midnightblue" points="725.455,-142.937 716.812,-149.063 727.389,-149.664 725.455,-142.937"/>
</g>
<!-- Node10 -->
<g id="node10" class="node"><title>Node10</title>
<g id="a_node10"><a xlink:href="NeutralFourTop_8hh.html" target="_top" xlink:title="examples/heavyhiggs\l/heavyhiggs/analysis\l/NeutralFourTop.hh">
<polygon fill="white" stroke="red" points="164.5,-67.5 164.5,-108.5 275.5,-108.5 275.5,-67.5 164.5,-67.5"/>
<text text-anchor="start" x="172.5" y="-96.5" font-family="Helvetica,sans-Serif" font-size="10.00">examples/heavyhiggs</text>
<text text-anchor="start" x="172.5" y="-85.5" font-family="Helvetica,sans-Serif" font-size="10.00">/heavyhiggs/analysis</text>
<text text-anchor="middle" x="220" y="-74.5" font-family="Helvetica,sans-Serif" font-size="10.00">/NeutralFourTop.hh</text>
</a>
</g>
</g>
<!-- Node6&#45;&gt;Node10 -->
<g id="edge9" class="edge"><title>Node6&#45;&gt;Node10</title>
<path fill="none" stroke="midnightblue" d="M594.905,-158.332C519.175,-149.967 391.649,-133.658 284,-109 281.277,-108.376 278.501,-107.694 275.708,-106.969"/>
<polygon fill="midnightblue" stroke="midnightblue" points="594.919,-161.854 605.239,-159.46 595.678,-154.896 594.919,-161.854"/>
</g>
<!-- Node11 -->
<g id="node11" class="node"><title>Node11</title>
<g id="a_node11"><a xlink:href="heavyhiggs_2heavyhiggs_2analysis_2Pair_8hh.html" target="_top" xlink:title="examples/heavyhiggs\l/heavyhiggs/analysis\l/Pair.hh">
<polygon fill="white" stroke="red" points="293.5,-67.5 293.5,-108.5 404.5,-108.5 404.5,-67.5 293.5,-67.5"/>
<text text-anchor="start" x="301.5" y="-96.5" font-family="Helvetica,sans-Serif" font-size="10.00">examples/heavyhiggs</text>
<text text-anchor="start" x="301.5" y="-85.5" font-family="Helvetica,sans-Serif" font-size="10.00">/heavyhiggs/analysis</text>
<text text-anchor="middle" x="349" y="-74.5" font-family="Helvetica,sans-Serif" font-size="10.00">/Pair.hh</text>
</a>
</g>
</g>
<!-- Node6&#45;&gt;Node11 -->
<g id="edge10" class="edge"><title>Node6&#45;&gt;Node11</title>
<path fill="none" stroke="midnightblue" d="M595.254,-151.508C545.297,-140.915 475.01,-125.277 414,-109 410.92,-108.178 407.766,-107.307 404.589,-106.407"/>
<polygon fill="midnightblue" stroke="midnightblue" points="594.773,-154.984 605.281,-153.624 596.219,-148.134 594.773,-154.984"/>
</g>
<!-- Node12 -->
<g id="node12" class="node"><title>Node12</title>
<g id="a_node12"><a xlink:href="HeavyHiggs_8cpp.html" target="_top" xlink:title="examples/heavyhiggs\l/source/analysis/HeavyHiggs.cpp">
<polygon fill="white" stroke="black" points="423,-73 423,-103 587,-103 587,-73 423,-73"/>
<text text-anchor="start" x="431" y="-91" font-family="Helvetica,sans-Serif" font-size="10.00">examples/heavyhiggs</text>
<text text-anchor="middle" x="505" y="-80" font-family="Helvetica,sans-Serif" font-size="10.00">/source/analysis/HeavyHiggs.cpp</text>
</a>
</g>
</g>
<!-- Node6&#45;&gt;Node12 -->
<g id="edge11" class="edge"><title>Node6&#45;&gt;Node12</title>
<path fill="none" stroke="midnightblue" d="M611.676,-140.97C586.19,-128.554 555.96,-113.827 534.199,-103.225"/>
<polygon fill="midnightblue" stroke="midnightblue" points="610.303,-144.195 620.826,-145.428 613.369,-137.902 610.303,-144.195"/>
</g>
<!-- Node14 -->
<g id="node14" class="node"><title>Node14</title>
<g id="a_node14"><a xlink:href="main_8cpp.html" target="_top" xlink:title="examples/higgscpv/source\l/main.cpp">
<polygon fill="white" stroke="black" points="1903.5,-0.5 1903.5,-30.5 2036.5,-30.5 2036.5,-0.5 1903.5,-0.5"/>
<text text-anchor="start" x="1911.5" y="-18.5" font-family="Helvetica,sans-Serif" font-size="10.00">examples/higgscpv/source</text>
<text text-anchor="middle" x="1970" y="-7.5" font-family="Helvetica,sans-Serif" font-size="10.00">/main.cpp</text>
</a>
</g>
</g>
<!-- Node13&#45;&gt;Node14 -->
<g id="edge13" class="edge"><title>Node13&#45;&gt;Node14</title>
<path fill="none" stroke="midnightblue" d="M1970,-62.7317C1970,-52.0679 1970,-39.9145 1970,-30.7455"/>
<polygon fill="midnightblue" stroke="midnightblue" points="1966.5,-62.7332 1970,-72.7333 1973.5,-62.7333 1966.5,-62.7332"/>
</g>
<!-- Node16 -->
<g id="node16" class="node"><title>Node16</title>
<g id="a_node16"><a xlink:href="MainSimple_8cpp.html" target="_top" xlink:title="examples/simple/source\l/MainSimple.cpp">
<polygon fill="white" stroke="black" points="993,-73 993,-103 1115,-103 1115,-73 993,-73"/>
<text text-anchor="start" x="1001" y="-91" font-family="Helvetica,sans-Serif" font-size="10.00">examples/simple/source</text>
<text text-anchor="middle" x="1054" y="-80" font-family="Helvetica,sans-Serif" font-size="10.00">/MainSimple.cpp</text>
</a>
</g>
</g>
<!-- Node15&#45;&gt;Node16 -->
<g id="edge15" class="edge"><title>Node15&#45;&gt;Node16</title>
<path fill="none" stroke="midnightblue" d="M1123.79,-144.253C1107.35,-131.234 1086.57,-114.784 1071.98,-103.231"/>
<polygon fill="midnightblue" stroke="midnightblue" points="1121.93,-147.242 1131.94,-150.705 1126.28,-141.754 1121.93,-147.242"/>
</g>
<!-- Node18 -->
<g id="node18" class="node"><title>Node18</title>
<g id="a_node18"><a xlink:href="StandardModel_8cpp.html" target="_top" xlink:title="examples/standardmodel\l/source/analysis/StandardModel.cpp">
<polygon fill="white" stroke="black" points="1276.5,-73 1276.5,-103 1451.5,-103 1451.5,-73 1276.5,-73"/>
<text text-anchor="start" x="1284.5" y="-91" font-family="Helvetica,sans-Serif" font-size="10.00">examples/standardmodel</text>
<text text-anchor="middle" x="1364" y="-80" font-family="Helvetica,sans-Serif" font-size="10.00">/source/analysis/StandardModel.cpp</text>
</a>
</g>
</g>
<!-- Node17&#45;&gt;Node18 -->
<g id="edge17" class="edge"><title>Node17&#45;&gt;Node18</title>
<path fill="none" stroke="midnightblue" d="M1378.72,-135.624C1375.21,-124.501 1371.37,-112.339 1368.49,-103.225"/>
<polygon fill="midnightblue" stroke="midnightblue" points="1375.47,-136.946 1381.82,-145.428 1382.15,-134.838 1375.47,-136.946"/>
</g>
<!-- Node19 -->
<g id="node19" class="node"><title>Node19</title>
<g id="a_node19"><a xlink:href="analysis_2Boson_8hh.html" target="_top" xlink:title="examples/standardmodel\l/standardmodel/analysis\l/Boson.hh">
<polygon fill="white" stroke="red" points="1469.5,-67.5 1469.5,-108.5 1594.5,-108.5 1594.5,-67.5 1469.5,-67.5"/>
<text text-anchor="start" x="1477.5" y="-96.5" font-family="Helvetica,sans-Serif" font-size="10.00">examples/standardmodel</text>
<text text-anchor="start" x="1477.5" y="-85.5" font-family="Helvetica,sans-Serif" font-size="10.00">/standardmodel/analysis</text>
<text text-anchor="middle" x="1532" y="-74.5" font-family="Helvetica,sans-Serif" font-size="10.00">/Boson.hh</text>
</a>
</g>
</g>
<!-- Node17&#45;&gt;Node19 -->
<g id="edge18" class="edge"><title>Node17&#45;&gt;Node19</title>
<path fill="none" stroke="midnightblue" d="M1434.18,-140.627C1453.86,-130.242 1476.5,-118.292 1495.04,-108.506"/>
<polygon fill="midnightblue" stroke="midnightblue" points="1432.29,-137.665 1425.08,-145.428 1435.56,-143.856 1432.29,-137.665"/>
</g>
<!-- Node20 -->
<g id="node20" class="node"><title>Node20</title>
<g id="a_node20"><a xlink:href="analysis_2Bottom_8hh.html" target="_top" xlink:title="examples/standardmodel\l/standardmodel/analysis\l/Bottom.hh">
<polygon fill="white" stroke="red" points="1612.5,-67.5 1612.5,-108.5 1737.5,-108.5 1737.5,-67.5 1612.5,-67.5"/>
<text text-anchor="start" x="1620.5" y="-96.5" font-family="Helvetica,sans-Serif" font-size="10.00">examples/standardmodel</text>
<text text-anchor="start" x="1620.5" y="-85.5" font-family="Helvetica,sans-Serif" font-size="10.00">/standardmodel/analysis</text>
<text text-anchor="middle" x="1675" y="-74.5" font-family="Helvetica,sans-Serif" font-size="10.00">/Bottom.hh</text>
</a>
</g>
</g>
<!-- Node17&#45;&gt;Node20 -->
<g id="edge19" class="edge"><title>Node17&#45;&gt;Node20</title>
<path fill="none" stroke="midnightblue" d="M1460.47,-144.643C1524.4,-127.814 1542.2,-125.041 1603,-109 1606.01,-108.206 1609.09,-107.385 1612.2,-106.549"/>
<polygon fill="midnightblue" stroke="midnightblue" points="1459.46,-141.289 1450.69,-147.232 1461.25,-148.056 1459.46,-141.289"/>
</g>
<!-- Node21 -->
<g id="node21" class="node"><title>Node21</title>
<g id="a_node21"><a xlink:href="standardmodel_2standardmodel_2analysis_2Higgs_8hh.html" target="_top" xlink:title="examples/standardmodel\l/standardmodel/analysis\l/Higgs.hh">
<polygon fill="white" stroke="red" points="1755.5,-67.5 1755.5,-108.5 1880.5,-108.5 1880.5,-67.5 1755.5,-67.5"/>
<text text-anchor="start" x="1763.5" y="-96.5" font-family="Helvetica,sans-Serif" font-size="10.00">examples/standardmodel</text>
<text text-anchor="start" x="1763.5" y="-85.5" font-family="Helvetica,sans-Serif" font-size="10.00">/standardmodel/analysis</text>
<text text-anchor="middle" x="1818" y="-74.5" font-family="Helvetica,sans-Serif" font-size="10.00">/Higgs.hh</text>
</a>
</g>
</g>
<!-- Node17&#45;&gt;Node21 -->
<g id="edge20" class="edge"><title>Node17&#45;&gt;Node21</title>
<path fill="none" stroke="midnightblue" d="M1460.64,-144.818C1586.83,-120.225 1623.15,-133.629 1746,-109 1749.05,-108.388 1752.17,-107.715 1755.3,-106.998"/>
<polygon fill="midnightblue" stroke="midnightblue" points="1459.72,-141.433 1450.6,-146.818 1461.09,-148.298 1459.72,-141.433"/>
</g>
<!-- Node22 -->
<g id="node22" class="node"><title>Node22</title>
<g id="a_node22"><a xlink:href="Top_8hh.html" target="_top" xlink:title="examples/standardmodel\l/standardmodel/analysis\l/Top.hh">
<polygon fill="white" stroke="red" points="1133.5,-67.5 1133.5,-108.5 1258.5,-108.5 1258.5,-67.5 1133.5,-67.5"/>
<text text-anchor="start" x="1141.5" y="-96.5" font-family="Helvetica,sans-Serif" font-size="10.00">examples/standardmodel</text>
<text text-anchor="start" x="1141.5" y="-85.5" font-family="Helvetica,sans-Serif" font-size="10.00">/standardmodel/analysis</text>
<text text-anchor="middle" x="1196" y="-74.5" font-family="Helvetica,sans-Serif" font-size="10.00">/Top.hh</text>
</a>
</g>
</g>
<!-- Node17&#45;&gt;Node22 -->
<g id="edge21" class="edge"><title>Node17&#45;&gt;Node22</title>
<path fill="none" stroke="midnightblue" d="M1328.91,-141.609C1302.11,-131.001 1270.78,-118.602 1245.28,-108.506"/>
<polygon fill="midnightblue" stroke="midnightblue" points="1327.97,-145.002 1338.56,-145.428 1330.55,-138.493 1327.97,-145.002"/>
</g>
<!-- Node26 -->
<g id="node26" class="node"><title>Node26</title>
<g id="a_node26"><a xlink:href="LorentzVector_8hh.html" target="_top" xlink:title="boca/math/LorentzVector.hh">
<polygon fill="white" stroke="black" points="2617,-229 2617,-248 2757,-248 2757,-229 2617,-229"/>
<text text-anchor="middle" x="2687" y="-236" font-family="Helvetica,sans-Serif" font-size="10.00">boca/math/LorentzVector.hh</text>
</a>
</g>
</g>
<!-- Node25&#45;&gt;Node26 -->
<g id="edge25" class="edge"><title>Node25&#45;&gt;Node26</title>
<path fill="none" stroke="midnightblue" d="M2629.03,-284.294C2643.8,-272.88 2663.76,-257.458 2675.99,-248.009"/>
<polygon fill="midnightblue" stroke="midnightblue" points="2626.81,-281.591 2621.03,-290.475 2631.09,-287.13 2626.81,-281.591"/>
</g>
<!-- Node35 -->
<g id="node35" class="node"><title>Node35</title>
<g id="a_node35"><a xlink:href="LorentzVectorBase_8cpp.html" target="_top" xlink:title="source/math/LorentzVector\lBase.cpp">
<polygon fill="white" stroke="black" points="2465,-223.5 2465,-253.5 2599,-253.5 2599,-223.5 2465,-223.5"/>
<text text-anchor="start" x="2473" y="-241.5" font-family="Helvetica,sans-Serif" font-size="10.00">source/math/LorentzVector</text>
<text text-anchor="middle" x="2532" y="-230.5" font-family="Helvetica,sans-Serif" font-size="10.00">Base.cpp</text>
</a>
</g>
</g>
<!-- Node25&#45;&gt;Node35 -->
<g id="edge36" class="edge"><title>Node25&#45;&gt;Node35</title>
<path fill="none" stroke="midnightblue" d="M2590.59,-284.195C2578.29,-274.813 2562.48,-262.751 2550.38,-253.523"/>
<polygon fill="midnightblue" stroke="midnightblue" points="2588.75,-287.193 2598.82,-290.475 2593,-281.627 2588.75,-287.193"/>
</g>
<!-- Node27 -->
<g id="node27" class="node"><title>Node27</title>
<g id="a_node27"><a xlink:href="PseudoJet_8hh.html" target="_top" xlink:title="boca/fastjet/PseudoJet.hh">
<polygon fill="white" stroke="red" points="2875.5,-156.5 2875.5,-175.5 3006.5,-175.5 3006.5,-156.5 2875.5,-156.5"/>
<text text-anchor="middle" x="2941" y="-163.5" font-family="Helvetica,sans-Serif" font-size="10.00">boca/fastjet/PseudoJet.hh</text>
</a>
</g>
</g>
<!-- Node26&#45;&gt;Node27 -->
<g id="edge26" class="edge"><title>Node26&#45;&gt;Node27</title>
<path fill="none" stroke="midnightblue" d="M2727.31,-226.312C2778.14,-212.203 2864.42,-188.255 2910.25,-175.534"/>
<polygon fill="midnightblue" stroke="midnightblue" points="2726.34,-222.949 2717.64,-228.996 2728.21,-229.694 2726.34,-222.949"/>
</g>
<!-- Node28 -->
<g id="node28" class="node"><title>Node28</title>
<g id="a_node28"><a xlink:href="PseudoJet_8cpp.html" target="_top" xlink:title="source/fastjet/PseudoJet.cpp">
<polygon fill="white" stroke="black" points="2580,-78.5 2580,-97.5 2724,-97.5 2724,-78.5 2580,-78.5"/>
<text text-anchor="middle" x="2652" y="-85.5" font-family="Helvetica,sans-Serif" font-size="10.00">source/fastjet/PseudoJet.cpp</text>
</a>
</g>
</g>
<!-- Node26&#45;&gt;Node28 -->
<g id="edge34" class="edge"><title>Node26&#45;&gt;Node28</title>
<path fill="none" stroke="midnightblue" d="M2631.59,-227.159C2623.68,-225.732 2615.63,-224.308 2608,-223 2557.88,-214.409 2415.01,-225.685 2382,-187 2323.65,-118.625 2481.33,-97.9513 2579.74,-91.7035"/>
<polygon fill="midnightblue" stroke="midnightblue" points="2631.03,-230.615 2641.5,-228.959 2632.28,-223.728 2631.03,-230.615"/>
</g>
<!-- Node29 -->
<g id="node29" class="node"><title>Node29</title>
<g id="a_node29"><a xlink:href="Member_8hh.html" target="_top" xlink:title="boca/physics/Member.hh">
<polygon fill="white" stroke="red" points="2391,-156.5 2391,-175.5 2517,-175.5 2517,-156.5 2391,-156.5"/>
<text text-anchor="middle" x="2454" y="-163.5" font-family="Helvetica,sans-Serif" font-size="10.00">boca/physics/Member.hh</text>
</a>
</g>
</g>
<!-- Node26&#45;&gt;Node29 -->
<g id="edge29" class="edge"><title>Node26&#45;&gt;Node29</title>
<path fill="none" stroke="midnightblue" d="M2649.14,-226.046C2602.41,-211.904 2523.99,-188.176 2482.2,-175.534"/>
<polygon fill="midnightblue" stroke="midnightblue" points="2648.31,-229.45 2658.89,-228.996 2650.34,-222.75 2648.31,-229.45"/>
</g>
<!-- Node30 -->
<g id="node30" class="node"><title>Node30</title>
<g id="a_node30"><a xlink:href="Invisible2_8hh.html" target="_top" xlink:title="boca/external/Invisible2.hh">
<polygon fill="white" stroke="red" points="2535.5,-156.5 2535.5,-175.5 2668.5,-175.5 2668.5,-156.5 2535.5,-156.5"/>
<text text-anchor="middle" x="2602" y="-163.5" font-family="Helvetica,sans-Serif" font-size="10.00">boca/external/Invisible2.hh</text>
</a>
</g>
</g>
<!-- Node26&#45;&gt;Node30 -->
<g id="edge30" class="edge"><title>Node26&#45;&gt;Node30</title>
<path fill="none" stroke="midnightblue" d="M2668.41,-222.085C2651.28,-207.87 2626.44,-187.275 2612.51,-175.715"/>
<polygon fill="midnightblue" stroke="midnightblue" points="2666.65,-225.165 2676.58,-228.855 2671.11,-219.777 2666.65,-225.165"/>
</g>
<!-- Node31 -->
<g id="node31" class="node"><title>Node31</title>
<g id="a_node31"><a xlink:href="GradedLorentzVector_8hh.html" target="_top" xlink:title="boca/math/GradedLorentzVector.hh">
<polygon fill="white" stroke="red" points="2686.5,-156.5 2686.5,-175.5 2857.5,-175.5 2857.5,-156.5 2686.5,-156.5"/>
<text text-anchor="middle" x="2772" y="-163.5" font-family="Helvetica,sans-Serif" font-size="10.00">boca/math/GradedLorentzVector.hh</text>
</a>
</g>
</g>
<!-- Node26&#45;&gt;Node31 -->
<g id="edge31" class="edge"><title>Node26&#45;&gt;Node31</title>
<path fill="none" stroke="midnightblue" d="M2705.59,-222.085C2722.72,-207.87 2747.56,-187.275 2761.49,-175.715"/>
<polygon fill="midnightblue" stroke="midnightblue" points="2702.89,-219.777 2697.42,-228.855 2707.35,-225.165 2702.89,-219.777"/>
</g>
<!-- Node32 -->
<g id="node32" class="node"><title>Node32</title>
<g id="a_node32"><a xlink:href="LorentzLine_8hh.html" target="_top" xlink:title="boca/math/LorentzLine.hh">
<polygon fill="white" stroke="black" points="3042.5,-156.5 3042.5,-175.5 3171.5,-175.5 3171.5,-156.5 3042.5,-156.5"/>
<text text-anchor="middle" x="3107" y="-163.5" font-family="Helvetica,sans-Serif" font-size="10.00">boca/math/LorentzLine.hh</text>
</a>
</g>
</g>
<!-- Node26&#45;&gt;Node32 -->
<g id="edge32" class="edge"><title>Node26&#45;&gt;Node32</title>
<path fill="none" stroke="midnightblue" d="M2767.15,-228.548C2837.58,-220.029 2942.63,-205.737 3033,-187 3048.12,-183.866 3064.73,-179.466 3078.37,-175.59"/>
<polygon fill="midnightblue" stroke="midnightblue" points="2766.52,-225.097 2757.01,-229.763 2767.36,-232.047 2766.52,-225.097"/>
</g>
<!-- Node33 -->
<g id="node33" class="node"><title>Node33</title>
<g id="a_node33"><a xlink:href="MainTest_8cpp.html" target="_top" xlink:title="examples/toppartner\l/source/MainTest.cpp">
<polygon fill="white" stroke="black" points="3189.5,-151 3189.5,-181 3300.5,-181 3300.5,-151 3189.5,-151"/>
<text text-anchor="start" x="3197.5" y="-169" font-family="Helvetica,sans-Serif" font-size="10.00">examples/toppartner</text>
<text text-anchor="middle" x="3245" y="-158" font-family="Helvetica,sans-Serif" font-size="10.00">/source/MainTest.cpp</text>
</a>
</g>
</g>
<!-- Node26&#45;&gt;Node33 -->
<g id="edge33" class="edge"><title>Node26&#45;&gt;Node33</title>
<path fill="none" stroke="midnightblue" d="M2767.19,-234.127C2865.35,-228.891 3036.27,-216.18 3180,-187 3187.75,-185.426 3195.9,-183.306 3203.7,-181.034"/>
<polygon fill="midnightblue" stroke="midnightblue" points="2766.85,-230.64 2757.05,-234.655 2767.22,-237.63 2766.85,-230.64"/>
</g>
<!-- Node34 -->
<g id="node34" class="node"><title>Node34</title>
<g id="a_node34"><a xlink:href="LorentzVector_8cpp.html" target="_top" xlink:title="source/math/LorentzVector.cpp">
<polygon fill="white" stroke="black" points="2181.5,-156.5 2181.5,-175.5 2334.5,-175.5 2334.5,-156.5 2181.5,-156.5"/>
<text text-anchor="middle" x="2258" y="-163.5" font-family="Helvetica,sans-Serif" font-size="10.00">source/math/LorentzVector.cpp</text>
</a>
</g>
</g>
<!-- Node26&#45;&gt;Node34 -->
<g id="edge35" class="edge"><title>Node26&#45;&gt;Node34</title>
<path fill="none" stroke="midnightblue" d="M2632.48,-227.174C2624.29,-225.715 2615.93,-224.278 2608,-223 2493.26,-204.505 2463.4,-207.489 2349,-187 2330.69,-183.72 2310.47,-179.351 2293.74,-175.534"/>
<polygon fill="midnightblue" stroke="midnightblue" points="2631.89,-230.624 2642.35,-228.956 2633.14,-223.735 2631.89,-230.624"/>
</g>
<!-- Node27&#45;&gt;Node27 -->
<g id="edge27" class="edge"><title>Node27&#45;&gt;Node27</title>
<path fill="none" stroke="midnightblue" d="M2973.61,-177.763C2998.81,-182.149 3024.5,-178.228 3024.5,-166 3024.5,-152.148 2991.54,-148.956 2963.66,-156.423"/>
<polygon fill="midnightblue" stroke="midnightblue" points="2974.18,-174.305 2963.66,-175.577 2972.67,-181.141 2974.18,-174.305"/>
</g>
<!-- Node27&#45;&gt;Node28 -->
<g id="edge28" class="edge"><title>Node27&#45;&gt;Node28</title>
<path fill="none" stroke="midnightblue" d="M2898.9,-153.737C2888.17,-150.877 2876.66,-147.817 2866,-145 2801.95,-128.08 2727.05,-108.536 2685.01,-97.5864"/>
<polygon fill="midnightblue" stroke="midnightblue" points="2898.33,-157.206 2908.89,-156.403 2900.13,-150.443 2898.33,-157.206"/>
</g>
<!-- Node37 -->
<g id="node37" class="node"><title>Node37</title>
<g id="a_node37"><a xlink:href="Matrix3_8hh.html" target="_top" xlink:title="boca/math/Matrix3.hh">
<polygon fill="white" stroke="black" points="2036.5,-229 2036.5,-248 2147.5,-248 2147.5,-229 2036.5,-229"/>
<text text-anchor="middle" x="2092" y="-236" font-family="Helvetica,sans-Serif" font-size="10.00">boca/math/Matrix3.hh</text>
</a>
</g>
</g>
<!-- Node36&#45;&gt;Node37 -->
<g id="edge38" class="edge"><title>Node36&#45;&gt;Node37</title>
<path fill="none" stroke="midnightblue" d="M2267.16,-287.749C2225.19,-276.189 2160.8,-258.451 2122.89,-248.009"/>
<polygon fill="midnightblue" stroke="midnightblue" points="2266.48,-291.194 2277.05,-290.475 2268.34,-284.445 2266.48,-291.194"/>
</g>
<!-- Node38 -->
<g id="node38" class="node"><title>Node38</title>
<g id="a_node38"><a xlink:href="EventShapes_8hh.html" target="_top" xlink:title="boca/EventShapes.hh">
<polygon fill="white" stroke="red" points="1889.5,-156.5 1889.5,-175.5 2002.5,-175.5 2002.5,-156.5 1889.5,-156.5"/>
<text text-anchor="middle" x="1946" y="-163.5" font-family="Helvetica,sans-Serif" font-size="10.00">boca/EventShapes.hh</text>
</a>
</g>
</g>
<!-- Node37&#45;&gt;Node38 -->
<g id="edge39" class="edge"><title>Node37&#45;&gt;Node38</title>
<path fill="none" stroke="midnightblue" d="M2065.07,-224.498C2035.52,-210.227 1988.92,-187.725 1963.67,-175.534"/>
<polygon fill="midnightblue" stroke="midnightblue" points="2063.86,-227.799 2074.39,-228.996 2066.91,-221.496 2063.86,-227.799"/>
</g>
<!-- Node39 -->
<g id="node39" class="node"><title>Node39</title>
<g id="a_node39"><a xlink:href="GradedMatrix3_8hh.html" target="_top" xlink:title="boca/math/GradedMatrix3.hh">
<polygon fill="white" stroke="red" points="2020.5,-156.5 2020.5,-175.5 2163.5,-175.5 2163.5,-156.5 2020.5,-156.5"/>
<text text-anchor="middle" x="2092" y="-163.5" font-family="Helvetica,sans-Serif" font-size="10.00">boca/math/GradedMatrix3.hh</text>
</a>
</g>
</g>
<!-- Node37&#45;&gt;Node39 -->
<g id="edge41" class="edge"><title>Node37&#45;&gt;Node39</title>
<path fill="none" stroke="midnightblue" d="M2092,-218.442C2092,-204.53 2092,-186.32 2092,-175.715"/>
<polygon fill="midnightblue" stroke="midnightblue" points="2088.5,-218.855 2092,-228.855 2095.5,-218.855 2088.5,-218.855"/>
</g>
<!-- Node38&#45;&gt;Node13 -->
<g id="edge40" class="edge"><title>Node38&#45;&gt;Node13</title>
<path fill="none" stroke="midnightblue" d="M1951.78,-146.682C1956.02,-133.258 1961.69,-115.31 1965.57,-103.02"/>
<polygon fill="midnightblue" stroke="midnightblue" points="1948.43,-145.692 1948.75,-156.282 1955.1,-147.8 1948.43,-145.692"/>
</g>
<!-- Node42 -->
<g id="node42" class="node"><title>Node42</title>
<g id="a_node42"><a xlink:href="Histogram2Dim_8hh.html" target="_top" xlink:title="boca/plotting/Histogram2\lDim.hh">
<polygon fill="white" stroke="black" points="3337.5,-223.5 3337.5,-253.5 3462.5,-253.5 3462.5,-223.5 3337.5,-223.5"/>
<text text-anchor="start" x="3345.5" y="-241.5" font-family="Helvetica,sans-Serif" font-size="10.00">boca/plotting/Histogram2</text>
<text text-anchor="middle" x="3400" y="-230.5" font-family="Helvetica,sans-Serif" font-size="10.00">Dim.hh</text>
</a>
</g>
</g>
<!-- Node41&#45;&gt;Node42 -->
<g id="edge44" class="edge"><title>Node41&#45;&gt;Node42</title>
<path fill="none" stroke="midnightblue" d="M3450.45,-283.646C3439.82,-274.346 3426.37,-262.572 3416.03,-253.523"/>
<polygon fill="midnightblue" stroke="midnightblue" points="3448.43,-286.524 3458.26,-290.475 3453.04,-281.256 3448.43,-286.524"/>
</g>
<!-- Node45 -->
<g id="node45" class="node"><title>Node45</title>
<g id="a_node45"><a xlink:href="Plots_8hh.html" target="_top" xlink:title="boca/plotting/Plots.hh">
<polygon fill="white" stroke="black" points="3480.5,-229 3480.5,-248 3591.5,-248 3591.5,-229 3480.5,-229"/>
<text text-anchor="middle" x="3536" y="-236" font-family="Helvetica,sans-Serif" font-size="10.00">boca/plotting/Plots.hh</text>
</a>
</g>
</g>
<!-- Node41&#45;&gt;Node45 -->
<g id="edge47" class="edge"><title>Node41&#45;&gt;Node45</title>
<path fill="none" stroke="midnightblue" d="M3485.54,-283.65C3498.51,-272.306 3515.68,-257.281 3526.28,-248.009"/>
<polygon fill="midnightblue" stroke="midnightblue" points="3482.96,-281.256 3477.74,-290.475 3487.57,-286.524 3482.96,-281.256"/>
</g>
<!-- Node47 -->
<g id="node47" class="node"><title>Node47</title>
<g id="a_node47"><a xlink:href="Profile_8hh.html" target="_top" xlink:title="boca/plotting/Profile.hh">
<polygon fill="white" stroke="black" points="3613,-229 3613,-248 3729,-248 3729,-229 3613,-229"/>
<text text-anchor="middle" x="3671" y="-236" font-family="Helvetica,sans-Serif" font-size="10.00">boca/plotting/Profile.hh</text>
</a>
</g>
</g>
<!-- Node41&#45;&gt;Node47 -->
<g id="edge50" class="edge"><title>Node41&#45;&gt;Node47</title>
<path fill="none" stroke="midnightblue" d="M3506.89,-287.602C3546.34,-276.04 3606.49,-258.407 3641.97,-248.009"/>
<polygon fill="midnightblue" stroke="midnightblue" points="3505.7,-284.304 3497.08,-290.475 3507.67,-291.021 3505.7,-284.304"/>
</g>
<!-- Node49 -->
<g id="node49" class="node"><title>Node49</title>
<g id="a_node49"><a xlink:href="Plot_8cpp.html" target="_top" xlink:title="source/plotting/Plot.cpp">
<polygon fill="white" stroke="black" points="3747.5,-229 3747.5,-248 3866.5,-248 3866.5,-229 3747.5,-229"/>
<text text-anchor="middle" x="3807" y="-236" font-family="Helvetica,sans-Serif" font-size="10.00">source/plotting/Plot.cpp</text>
</a>
</g>
</g>
<!-- Node41&#45;&gt;Node49 -->
<g id="edge53" class="edge"><title>Node41&#45;&gt;Node49</title>
<path fill="none" stroke="midnightblue" d="M3531.06,-289.258C3585.86,-280.608 3667.33,-267.309 3738,-254 3747.62,-252.188 3757.97,-250.092 3767.65,-248.067"/>
<polygon fill="midnightblue" stroke="midnightblue" points="3530.48,-285.806 3521.14,-290.818 3531.56,-292.721 3530.48,-285.806"/>
</g>
<!-- Node43 -->
<g id="node43" class="node"><title>Node43</title>
<g id="a_node43"><a xlink:href="Histogram2Dim_8cpp.html" target="_top" xlink:title="source/plotting/Histogram2\lDim.cpp">
<polygon fill="white" stroke="black" points="3319,-151 3319,-181 3453,-181 3453,-151 3319,-151"/>
<text text-anchor="start" x="3327" y="-169" font-family="Helvetica,sans-Serif" font-size="10.00">source/plotting/Histogram2</text>
<text text-anchor="middle" x="3386" y="-158" font-family="Helvetica,sans-Serif" font-size="10.00">Dim.cpp</text>
</a>
</g>
</g>
<!-- Node42&#45;&gt;Node43 -->
<g id="edge45" class="edge"><title>Node42&#45;&gt;Node43</title>
<path fill="none" stroke="midnightblue" d="M3395.18,-213.232C3393.06,-202.568 3390.65,-190.414 3388.83,-181.246"/>
<polygon fill="midnightblue" stroke="midnightblue" points="3391.79,-214.107 3397.17,-223.233 3398.65,-212.743 3391.79,-214.107"/>
</g>
<!-- Node44 -->
<g id="node44" class="node"><title>Node44</title>
<g id="a_node44"><a xlink:href="PlottingBase_8cpp.html" target="_top" xlink:title="source/plotting/Plotting\lBase.cpp">
<polygon fill="white" stroke="black" points="3615,-151 3615,-181 3731,-181 3731,-151 3615,-151"/>
<text text-anchor="start" x="3623" y="-169" font-family="Helvetica,sans-Serif" font-size="10.00">source/plotting/Plotting</text>
<text text-anchor="middle" x="3673" y="-158" font-family="Helvetica,sans-Serif" font-size="10.00">Base.cpp</text>
</a>
</g>
</g>
<!-- Node42&#45;&gt;Node44 -->
<g id="edge46" class="edge"><title>Node42&#45;&gt;Node44</title>
<path fill="none" stroke="midnightblue" d="M3470.13,-221.042C3509.82,-211.523 3560.31,-199.071 3605,-187 3611.89,-185.139 3619.15,-183.095 3626.26,-181.046"/>
<polygon fill="midnightblue" stroke="midnightblue" points="3469.19,-217.667 3460.28,-223.396 3470.82,-224.475 3469.19,-217.667"/>
</g>
<!-- Node45&#45;&gt;Node44 -->
<g id="edge49" class="edge"><title>Node45&#45;&gt;Node44</title>
<path fill="none" stroke="midnightblue" d="M3561.71,-224.269C3585.69,-211.93 3621.33,-193.588 3645.78,-181.006"/>
<polygon fill="midnightblue" stroke="midnightblue" points="3559.82,-221.308 3552.53,-228.996 3563.02,-227.532 3559.82,-221.308"/>
</g>
<!-- Node46 -->
<g id="node46" class="node"><title>Node46</title>
<g id="a_node46"><a xlink:href="Plots_8cpp.html" target="_top" xlink:title="source/plotting/Plots.cpp">
<polygon fill="white" stroke="black" points="3471.5,-156.5 3471.5,-175.5 3596.5,-175.5 3596.5,-156.5 3471.5,-156.5"/>
<text text-anchor="middle" x="3534" y="-163.5" font-family="Helvetica,sans-Serif" font-size="10.00">source/plotting/Plots.cpp</text>
</a>
</g>
</g>
<!-- Node45&#45;&gt;Node46 -->
<g id="edge48" class="edge"><title>Node45&#45;&gt;Node46</title>
<path fill="none" stroke="midnightblue" d="M3535.47,-218.858C3535.08,-204.895 3534.55,-186.426 3534.25,-175.715"/>
<polygon fill="midnightblue" stroke="midnightblue" points="3531.97,-218.959 3535.75,-228.855 3538.97,-218.76 3531.97,-218.959"/>
</g>
<!-- Node47&#45;&gt;Node44 -->
<g id="edge51" class="edge"><title>Node47&#45;&gt;Node44</title>
<path fill="none" stroke="midnightblue" d="M3671.53,-218.736C3671.87,-206.908 3672.29,-191.883 3672.6,-181.076"/>
<polygon fill="midnightblue" stroke="midnightblue" points="3668.03,-218.76 3671.25,-228.855 3675.03,-218.959 3668.03,-218.76"/>
</g>
<!-- Node48 -->
<g id="node48" class="node"><title>Node48</title>
<g id="a_node48"><a xlink:href="Profile_8cpp.html" target="_top" xlink:title="source/plotting/Profile.cpp">
<polygon fill="white" stroke="black" points="3749,-156.5 3749,-175.5 3879,-175.5 3879,-156.5 3749,-156.5"/>
<text text-anchor="middle" x="3814" y="-163.5" font-family="Helvetica,sans-Serif" font-size="10.00">source/plotting/Profile.cpp</text>
</a>
</g>
</g>
<!-- Node47&#45;&gt;Node48 -->
<g id="edge52" class="edge"><title>Node47&#45;&gt;Node48</title>
<path fill="none" stroke="midnightblue" d="M3697.37,-224.498C3726.32,-210.227 3771.96,-187.725 3796.69,-175.534"/>
<polygon fill="midnightblue" stroke="midnightblue" points="3695.67,-221.435 3688.25,-228.996 3698.77,-227.713 3695.67,-221.435"/>
</g>
</g>
</svg>
