<?xml version="1.0" encoding="UTF-8" standalone="no"?>
<!DOCTYPE svg PUBLIC "-//W3C//DTD SVG 1.1//EN"
 "http://www.w3.org/Graphics/SVG/1.1/DTD/svg11.dtd">
<!-- Generated by graphviz version 2.38.0 (20140413.2041)
 -->
<!-- Title: boca/math/Vector3.hh Pages: 1 -->
<svg width="3214pt" height="307pt"
 viewBox="0.00 0.00 3213.50 307.00" xmlns="http://www.w3.org/2000/svg" xmlns:xlink="http://www.w3.org/1999/xlink">
<g id="graph0" class="graph" transform="scale(1 1) rotate(0) translate(4 303)">
<title>boca/math/Vector3.hh</title>
<polygon fill="white" stroke="none" points="-4,4 -4,-303 3209.5,-303 3209.5,4 -4,4"/>
<!-- Node1 -->
<g id="node1" class="node"><title>Node1</title>
<polygon fill="#bfbfbf" stroke="black" points="2367,-279.5 2367,-298.5 2480,-298.5 2480,-279.5 2367,-279.5"/>
<text text-anchor="middle" x="2423.5" y="-286.5" font-family="Helvetica,sans-Serif" font-size="10.00">boca/math/Vector3.hh</text>
</g>
<!-- Node2 -->
<g id="node2" class="node"><title>Node2</title>
<g id="a_node2"><a xlink:href="Plotting_8hh.html" target="_top" xlink:title="boca/plotting/Plotting.hh">
<polygon fill="white" stroke="black" points="1814.5,-223.5 1814.5,-242.5 1936.5,-242.5 1936.5,-223.5 1814.5,-223.5"/>
<text text-anchor="middle" x="1875.5" y="-230.5" font-family="Helvetica,sans-Serif" font-size="10.00">boca/plotting/Plotting.hh</text>
</a>
</g>
</g>
<!-- Node1&#45;&gt;Node2 -->
<g id="edge1" class="edge"><title>Node1&#45;&gt;Node2</title>
<path fill="none" stroke="midnightblue" d="M2356.87,-281.434C2249.67,-270.871 2040.46,-250.255 1936.77,-240.038"/>
<polygon fill="midnightblue" stroke="midnightblue" points="2356.62,-284.927 2366.92,-282.424 2357.31,-277.961 2356.62,-284.927"/>
</g>
<!-- Node28 -->
<g id="node28" class="node"><title>Node28</title>
<g id="a_node28"><a xlink:href="LorentzVectorBase_8hh.html" target="_top" xlink:title="boca/math/LorentzVectorBase.hh">
<polygon fill="white" stroke="black" points="2342.5,-223.5 2342.5,-242.5 2504.5,-242.5 2504.5,-223.5 2342.5,-223.5"/>
<text text-anchor="middle" x="2423.5" y="-230.5" font-family="Helvetica,sans-Serif" font-size="10.00">boca/math/LorentzVectorBase.hh</text>
</a>
</g>
</g>
<!-- Node1&#45;&gt;Node28 -->
<g id="edge27" class="edge"><title>Node1&#45;&gt;Node28</title>
<path fill="none" stroke="midnightblue" d="M2423.5,-268.805C2423.5,-259.91 2423.5,-249.78 2423.5,-242.751"/>
<polygon fill="midnightblue" stroke="midnightblue" points="2420,-269.083 2423.5,-279.083 2427,-269.083 2420,-269.083"/>
</g>
<!-- Node36 -->
<g id="node36" class="node"><title>Node36</title>
<g id="a_node36"><a xlink:href="Matrix3_8hh.html" target="_top" xlink:title="boca/math/Matrix3.hh">
<polygon fill="white" stroke="black" points="908,-223.5 908,-242.5 1019,-242.5 1019,-223.5 908,-223.5"/>
<text text-anchor="middle" x="963.5" y="-230.5" font-family="Helvetica,sans-Serif" font-size="10.00">boca/math/Matrix3.hh</text>
</a>
</g>
</g>
<!-- Node1&#45;&gt;Node36 -->
<g id="edge37" class="edge"><title>Node1&#45;&gt;Node36</title>
<path fill="none" stroke="midnightblue" d="M2356.42,-285.519C2108.59,-276.353 1247.21,-244.493 1019.22,-236.061"/>
<polygon fill="midnightblue" stroke="midnightblue" points="2356.59,-289.028 2366.71,-285.9 2356.85,-282.032 2356.59,-289.028"/>
</g>
<!-- Node41 -->
<g id="node41" class="node"><title>Node41</title>
<g id="a_node41"><a xlink:href="Plot_8hh.html" target="_top" xlink:title="boca/plotting/Plot.hh">
<polygon fill="white" stroke="black" points="2741.5,-223.5 2741.5,-242.5 2847.5,-242.5 2847.5,-223.5 2741.5,-223.5"/>
<text text-anchor="middle" x="2794.5" y="-230.5" font-family="Helvetica,sans-Serif" font-size="10.00">boca/plotting/Plot.hh</text>
</a>
</g>
</g>
<!-- Node1&#45;&gt;Node41 -->
<g id="edge43" class="edge"><title>Node1&#45;&gt;Node41</title>
<path fill="none" stroke="midnightblue" d="M2490.56,-278.239C2562.5,-267.768 2675.31,-251.349 2741.36,-241.734"/>
<polygon fill="midnightblue" stroke="midnightblue" points="2489.64,-274.836 2480.25,-279.74 2490.65,-281.763 2489.64,-274.836"/>
</g>
<!-- Node50 -->
<g id="node50" class="node"><title>Node50</title>
<g id="a_node50"><a xlink:href="Vector3_8cpp.html" target="_top" xlink:title="source/math/Vector3.cpp">
<polygon fill="white" stroke="black" points="2865.5,-223.5 2865.5,-242.5 2991.5,-242.5 2991.5,-223.5 2865.5,-223.5"/>
<text text-anchor="middle" x="2928.5" y="-230.5" font-family="Helvetica,sans-Serif" font-size="10.00">source/math/Vector3.cpp</text>
</a>
</g>
</g>
<!-- Node1&#45;&gt;Node50 -->
<g id="edge54" class="edge"><title>Node1&#45;&gt;Node50</title>
<path fill="none" stroke="midnightblue" d="M2490.32,-281.49C2575.42,-273.101 2726.98,-257.823 2856.5,-243 2859.38,-242.671 2862.32,-242.328 2865.29,-241.976"/>
<polygon fill="midnightblue" stroke="midnightblue" points="2489.89,-278.016 2480.28,-282.479 2490.58,-284.982 2489.89,-278.016"/>
</g>
<!-- Node3 -->
<g id="node3" class="node"><title>Node3</title>
<g id="a_node3"><a xlink:href="boca_2analysis_2Analysis_8hh.html" target="_top" xlink:title="boca/analysis/Analysis.hh">
<polygon fill="white" stroke="black" points="1421,-162 1421,-181 1552,-181 1552,-162 1421,-162"/>
<text text-anchor="middle" x="1486.5" y="-169" font-family="Helvetica,sans-Serif" font-size="10.00">boca/analysis/Analysis.hh</text>
</a>
</g>
</g>
<!-- Node2&#45;&gt;Node3 -->
<g id="edge2" class="edge"><title>Node2&#45;&gt;Node3</title>
<path fill="none" stroke="midnightblue" d="M1809.47,-221.901C1734.27,-210.398 1612.71,-191.804 1542.13,-181.009"/>
<polygon fill="midnightblue" stroke="midnightblue" points="1809.35,-225.423 1819.77,-223.475 1810.41,-218.503 1809.35,-225.423"/>
</g>
<!-- Node4 -->
<g id="node4" class="node"><title>Node4</title>
<g id="a_node4"><a xlink:href="boca_2analysis_2Cut_8hh.html" target="_top" xlink:title="boca/analysis/Cut.hh">
<polygon fill="white" stroke="black" points="1493,-89.5 1493,-108.5 1602,-108.5 1602,-89.5 1493,-89.5"/>
<text text-anchor="middle" x="1547.5" y="-96.5" font-family="Helvetica,sans-Serif" font-size="10.00">boca/analysis/Cut.hh</text>
</a>
</g>
</g>
<!-- Node3&#45;&gt;Node4 -->
<g id="edge3" class="edge"><title>Node3&#45;&gt;Node4</title>
<path fill="none" stroke="midnightblue" d="M1500.87,-153.897C1513.11,-139.743 1530.23,-119.957 1539.96,-108.715"/>
<polygon fill="midnightblue" stroke="midnightblue" points="1497.88,-152.003 1493.98,-161.855 1503.17,-156.583 1497.88,-152.003"/>
</g>
<!-- Node6 -->
<g id="node6" class="node"><title>Node6</title>
<g id="a_node6"><a xlink:href="HeavyHiggs_8hh.html" target="_top" xlink:title="examples/heavyhiggs\l/heavyhiggs/analysis\l/HeavyHiggs.hh">
<polygon fill="white" stroke="black" points="1704,-78.5 1704,-119.5 1815,-119.5 1815,-78.5 1704,-78.5"/>
<text text-anchor="start" x="1712" y="-107.5" font-family="Helvetica,sans-Serif" font-size="10.00">examples/heavyhiggs</text>
<text text-anchor="start" x="1712" y="-96.5" font-family="Helvetica,sans-Serif" font-size="10.00">/heavyhiggs/analysis</text>
<text text-anchor="middle" x="1759.5" y="-85.5" font-family="Helvetica,sans-Serif" font-size="10.00">/HeavyHiggs.hh</text>
</a>
</g>
</g>
<!-- Node3&#45;&gt;Node6 -->
<g id="edge5" class="edge"><title>Node3&#45;&gt;Node6</title>
<path fill="none" stroke="midnightblue" d="M1529.32,-159.443C1576.43,-147.275 1652.32,-127.677 1703.98,-114.338"/>
<polygon fill="midnightblue" stroke="midnightblue" points="1528.24,-156.107 1519.43,-161.996 1529.99,-162.884 1528.24,-156.107"/>
</g>
<!-- Node13 -->
<g id="node13" class="node"><title>Node13</title>
<g id="a_node13"><a xlink:href="examples_2higgscpv_2higgscpv_2Analysis_8hh.html" target="_top" xlink:title="examples/higgscpv/higgscpv\l/Analysis.hh">
<polygon fill="white" stroke="black" points="656,-84 656,-114 799,-114 799,-84 656,-84"/>
<text text-anchor="start" x="664" y="-102" font-family="Helvetica,sans-Serif" font-size="10.00">examples/higgscpv/higgscpv</text>
<text text-anchor="middle" x="727.5" y="-91" font-family="Helvetica,sans-Serif" font-size="10.00">/Analysis.hh</text>
</a>
</g>
</g>
<!-- Node3&#45;&gt;Node13 -->
<g id="edge12" class="edge"><title>Node3&#45;&gt;Node13</title>
<path fill="none" stroke="midnightblue" d="M1410.69,-169.077C1284.71,-165.771 1024.6,-154.947 807.5,-120 797.889,-118.453 787.739,-116.316 778.015,-114.013"/>
<polygon fill="midnightblue" stroke="midnightblue" points="1410.91,-172.583 1421,-169.338 1411.09,-165.585 1410.91,-172.583"/>
</g>
<!-- Node15 -->
<g id="node15" class="node"><title>Node15</title>
<g id="a_node15"><a xlink:href="examples_2simple_2simple_2Analysis_8hh.html" target="_top" xlink:title="examples/simple/simple\l/Analysis.hh">
<polygon fill="white" stroke="black" points="1833.5,-84 1833.5,-114 1955.5,-114 1955.5,-84 1833.5,-84"/>
<text text-anchor="start" x="1841.5" y="-102" font-family="Helvetica,sans-Serif" font-size="10.00">examples/simple/simple</text>
<text text-anchor="middle" x="1894.5" y="-91" font-family="Helvetica,sans-Serif" font-size="10.00">/Analysis.hh</text>
</a>
</g>
</g>
<!-- Node3&#45;&gt;Node15 -->
<g id="edge14" class="edge"><title>Node3&#45;&gt;Node15</title>
<path fill="none" stroke="midnightblue" d="M1562.46,-161.89C1631.09,-153.455 1734.65,-139.092 1823.5,-120 1831.39,-118.305 1839.69,-116.233 1847.73,-114.072"/>
<polygon fill="midnightblue" stroke="midnightblue" points="1561.68,-158.459 1552.17,-163.142 1562.52,-165.408 1561.68,-158.459"/>
</g>
<!-- Node17 -->
<g id="node17" class="node"><title>Node17</title>
<g id="a_node17"><a xlink:href="StandardModel_8hh.html" target="_top" xlink:title="examples/standardmodel\l/standardmodel/analysis\l/StandardModel.hh">
<polygon fill="white" stroke="black" points="817,-78.5 817,-119.5 942,-119.5 942,-78.5 817,-78.5"/>
<text text-anchor="start" x="825" y="-107.5" font-family="Helvetica,sans-Serif" font-size="10.00">examples/standardmodel</text>
<text text-anchor="start" x="825" y="-96.5" font-family="Helvetica,sans-Serif" font-size="10.00">/standardmodel/analysis</text>
<text text-anchor="middle" x="879.5" y="-85.5" font-family="Helvetica,sans-Serif" font-size="10.00">/StandardModel.hh</text>
</a>
</g>
</g>
<!-- Node3&#45;&gt;Node17 -->
<g id="edge16" class="edge"><title>Node3&#45;&gt;Node17</title>
<path fill="none" stroke="midnightblue" d="M1411.03,-161.734C1289.91,-147.667 1054.37,-120.311 942.032,-107.263"/>
<polygon fill="midnightblue" stroke="midnightblue" points="1410.63,-165.211 1420.96,-162.888 1411.43,-158.258 1410.63,-165.211"/>
</g>
<!-- Node25 -->
<g id="node25" class="node"><title>Node25</title>
<g id="a_node25"><a xlink:href="analysis_2TopPartner_8hh.html" target="_top" xlink:title="examples/toppartner\l/toppartner/analysis\l/TopPartner.hh">
<polygon fill="white" stroke="red" points="1253,-78.5 1253,-119.5 1358,-119.5 1358,-78.5 1253,-78.5"/>
<text text-anchor="start" x="1261" y="-107.5" font-family="Helvetica,sans-Serif" font-size="10.00">examples/toppartner</text>
<text text-anchor="start" x="1261" y="-96.5" font-family="Helvetica,sans-Serif" font-size="10.00">/toppartner/analysis</text>
<text text-anchor="middle" x="1305.5" y="-85.5" font-family="Helvetica,sans-Serif" font-size="10.00">/TopPartner.hh</text>
</a>
</g>
</g>
<!-- Node3&#45;&gt;Node25 -->
<g id="edge24" class="edge"><title>Node3&#45;&gt;Node25</title>
<path fill="none" stroke="midnightblue" d="M1455.21,-158.314C1427.87,-147.664 1387.68,-132.008 1355.82,-119.598"/>
<polygon fill="midnightblue" stroke="midnightblue" points="1454.08,-161.628 1464.67,-161.996 1456.62,-155.105 1454.08,-161.628"/>
</g>
<!-- Node27 -->
<g id="node27" class="node"><title>Node27</title>
<g id="a_node27"><a xlink:href="examples_2tthh_2tthh_2Analysis_8hh.html" target="_top" xlink:title="examples/tthh/tthh\l/Analysis.hh">
<polygon fill="white" stroke="red" points="1376.5,-84 1376.5,-114 1474.5,-114 1474.5,-84 1376.5,-84"/>
<text text-anchor="start" x="1384.5" y="-102" font-family="Helvetica,sans-Serif" font-size="10.00">examples/tthh/tthh</text>
<text text-anchor="middle" x="1425.5" y="-91" font-family="Helvetica,sans-Serif" font-size="10.00">/Analysis.hh</text>
</a>
</g>
</g>
<!-- Node3&#45;&gt;Node27 -->
<g id="edge26" class="edge"><title>Node3&#45;&gt;Node27</title>
<path fill="none" stroke="midnightblue" d="M1472.43,-154.244C1461.93,-142.098 1447.7,-125.663 1437.68,-114.076"/>
<polygon fill="midnightblue" stroke="midnightblue" points="1469.83,-156.583 1479.02,-161.855 1475.12,-152.003 1469.83,-156.583"/>
</g>
<!-- Node5 -->
<g id="node5" class="node"><title>Node5</title>
<g id="a_node5"><a xlink:href="examples_2cut_2cut_2Analysis_8hh.html" target="_top" xlink:title="examples/cut/cut/Analysis.hh">
<polygon fill="white" stroke="red" points="1383.5,-11.5 1383.5,-30.5 1529.5,-30.5 1529.5,-11.5 1383.5,-11.5"/>
<text text-anchor="middle" x="1456.5" y="-18.5" font-family="Helvetica,sans-Serif" font-size="10.00">examples/cut/cut/Analysis.hh</text>
</a>
</g>
</g>
<!-- Node4&#45;&gt;Node5 -->
<g id="edge4" class="edge"><title>Node4&#45;&gt;Node5</title>
<path fill="none" stroke="midnightblue" d="M1529.22,-82.7293C1510.47,-67.0702 1481.97,-43.2701 1466.82,-30.6165"/>
<polygon fill="midnightblue" stroke="midnightblue" points="1527.14,-85.558 1537.06,-89.2818 1531.63,-80.1853 1527.14,-85.558"/>
</g>
<!-- Node7 -->
<g id="node7" class="node"><title>Node7</title>
<g id="a_node7"><a xlink:href="Charged_8hh.html" target="_top" xlink:title="examples/heavyhiggs\l/heavyhiggs/analysis\l/Charged.hh">
<polygon fill="white" stroke="red" points="1860,-0.5 1860,-41.5 1971,-41.5 1971,-0.5 1860,-0.5"/>
<text text-anchor="start" x="1868" y="-29.5" font-family="Helvetica,sans-Serif" font-size="10.00">examples/heavyhiggs</text>
<text text-anchor="start" x="1868" y="-18.5" font-family="Helvetica,sans-Serif" font-size="10.00">/heavyhiggs/analysis</text>
<text text-anchor="middle" x="1915.5" y="-7.5" font-family="Helvetica,sans-Serif" font-size="10.00">/Charged.hh</text>
</a>
</g>
</g>
<!-- Node6&#45;&gt;Node7 -->
<g id="edge6" class="edge"><title>Node6&#45;&gt;Node7</title>
<path fill="none" stroke="midnightblue" d="M1808.95,-73.9082C1830.4,-63.4581 1855.19,-51.3801 1875.46,-41.5056"/>
<polygon fill="midnightblue" stroke="midnightblue" points="1807.13,-70.9019 1799.67,-78.4281 1810.2,-77.1948 1807.13,-70.9019"/>
</g>
<!-- Node8 -->
<g id="node8" class="node"><title>Node8</title>
<g id="a_node8"><a xlink:href="Fusion_8hh.html" target="_top" xlink:title="examples/heavyhiggs\l/heavyhiggs/analysis\l/Fusion.hh">
<polygon fill="white" stroke="red" points="1989,-0.5 1989,-41.5 2100,-41.5 2100,-0.5 1989,-0.5"/>
<text text-anchor="start" x="1997" y="-29.5" font-family="Helvetica,sans-Serif" font-size="10.00">examples/heavyhiggs</text>
<text text-anchor="start" x="1997" y="-18.5" font-family="Helvetica,sans-Serif" font-size="10.00">/heavyhiggs/analysis</text>
<text text-anchor="middle" x="2044.5" y="-7.5" font-family="Helvetica,sans-Serif" font-size="10.00">/Fusion.hh</text>
</a>
</g>
</g>
<!-- Node6&#45;&gt;Node8 -->
<g id="edge7" class="edge"><title>Node6&#45;&gt;Node8</title>
<path fill="none" stroke="midnightblue" d="M1824.79,-78.0203C1894.46,-59.6244 1914.15,-59.6195 1979.5,-42 1982.58,-41.1701 1985.73,-40.2928 1988.91,-39.3874"/>
<polygon fill="midnightblue" stroke="midnightblue" points="1823.85,-74.6483 1815.09,-80.6126 1825.66,-81.4107 1823.85,-74.6483"/>
</g>
<!-- Node9 -->
<g id="node9" class="node"><title>Node9</title>
<g id="a_node9"><a xlink:href="Neutral_8hh.html" target="_top" xlink:title="examples/heavyhiggs\l/heavyhiggs/analysis\l/Neutral.hh">
<polygon fill="white" stroke="red" points="2118,-0.5 2118,-41.5 2229,-41.5 2229,-0.5 2118,-0.5"/>
<text text-anchor="start" x="2126" y="-29.5" font-family="Helvetica,sans-Serif" font-size="10.00">examples/heavyhiggs</text>
<text text-anchor="start" x="2126" y="-18.5" font-family="Helvetica,sans-Serif" font-size="10.00">/heavyhiggs/analysis</text>
<text text-anchor="middle" x="2173.5" y="-7.5" font-family="Helvetica,sans-Serif" font-size="10.00">/Neutral.hh</text>
</a>
</g>
</g>
<!-- Node6&#45;&gt;Node9 -->
<g id="edge8" class="edge"><title>Node6&#45;&gt;Node9</title>
<path fill="none" stroke="midnightblue" d="M1825.01,-78.1095C1950.72,-52.0578 1987.28,-68.1275 2108.5,-42 2111.62,-41.3283 2114.8,-40.5758 2118,-39.7671"/>
<polygon fill="midnightblue" stroke="midnightblue" points="1824.06,-74.7339 1815,-80.2329 1825.51,-81.5815 1824.06,-74.7339"/>
</g>
<!-- Node10 -->
<g id="node10" class="node"><title>Node10</title>
<g id="a_node10"><a xlink:href="NeutralFourTop_8hh.html" target="_top" xlink:title="examples/heavyhiggs\l/heavyhiggs/analysis\l/NeutralFourTop.hh">
<polygon fill="white" stroke="red" points="2247,-0.5 2247,-41.5 2358,-41.5 2358,-0.5 2247,-0.5"/>
<text text-anchor="start" x="2255" y="-29.5" font-family="Helvetica,sans-Serif" font-size="10.00">examples/heavyhiggs</text>
<text text-anchor="start" x="2255" y="-18.5" font-family="Helvetica,sans-Serif" font-size="10.00">/heavyhiggs/analysis</text>
<text text-anchor="middle" x="2302.5" y="-7.5" font-family="Helvetica,sans-Serif" font-size="10.00">/NeutralFourTop.hh</text>
</a>
</g>
</g>
<!-- Node6&#45;&gt;Node10 -->
<g id="edge9" class="edge"><title>Node6&#45;&gt;Node10</title>
<path fill="none" stroke="midnightblue" d="M1825.22,-78.1001C2007.18,-43.904 2059.84,-76.6698 2237.5,-42 2240.51,-41.412 2243.58,-40.7372 2246.67,-39.9992"/>
<polygon fill="midnightblue" stroke="midnightblue" points="1824.49,-74.6769 1815.33,-80.0008 1825.81,-81.5511 1824.49,-74.6769"/>
</g>
<!-- Node11 -->
<g id="node11" class="node"><title>Node11</title>
<g id="a_node11"><a xlink:href="heavyhiggs_2heavyhiggs_2analysis_2Pair_8hh.html" target="_top" xlink:title="examples/heavyhiggs\l/heavyhiggs/analysis\l/Pair.hh">
<polygon fill="white" stroke="red" points="1548,-0.5 1548,-41.5 1659,-41.5 1659,-0.5 1548,-0.5"/>
<text text-anchor="start" x="1556" y="-29.5" font-family="Helvetica,sans-Serif" font-size="10.00">examples/heavyhiggs</text>
<text text-anchor="start" x="1556" y="-18.5" font-family="Helvetica,sans-Serif" font-size="10.00">/heavyhiggs/analysis</text>
<text text-anchor="middle" x="1603.5" y="-7.5" font-family="Helvetica,sans-Serif" font-size="10.00">/Pair.hh</text>
</a>
</g>
</g>
<!-- Node6&#45;&gt;Node11 -->
<g id="edge10" class="edge"><title>Node6&#45;&gt;Node11</title>
<path fill="none" stroke="midnightblue" d="M1710.05,-73.9082C1688.6,-63.4581 1663.81,-51.3801 1643.54,-41.5056"/>
<polygon fill="midnightblue" stroke="midnightblue" points="1708.8,-77.1948 1719.33,-78.4281 1711.87,-70.9019 1708.8,-77.1948"/>
</g>
<!-- Node12 -->
<g id="node12" class="node"><title>Node12</title>
<g id="a_node12"><a xlink:href="HeavyHiggs_8cpp.html" target="_top" xlink:title="examples/heavyhiggs\l/source/analysis/HeavyHiggs.cpp">
<polygon fill="white" stroke="black" points="1677.5,-6 1677.5,-36 1841.5,-36 1841.5,-6 1677.5,-6"/>
<text text-anchor="start" x="1685.5" y="-24" font-family="Helvetica,sans-Serif" font-size="10.00">examples/heavyhiggs</text>
<text text-anchor="middle" x="1759.5" y="-13" font-family="Helvetica,sans-Serif" font-size="10.00">/source/analysis/HeavyHiggs.cpp</text>
</a>
</g>
</g>
<!-- Node6&#45;&gt;Node12 -->
<g id="edge11" class="edge"><title>Node6&#45;&gt;Node12</title>
<path fill="none" stroke="midnightblue" d="M1759.5,-68.2829C1759.5,-57.2536 1759.5,-45.2457 1759.5,-36.2254"/>
<polygon fill="midnightblue" stroke="midnightblue" points="1756,-68.4281 1759.5,-78.4281 1763,-68.4281 1756,-68.4281"/>
</g>
<!-- Node14 -->
<g id="node14" class="node"><title>Node14</title>
<g id="a_node14"><a xlink:href="main_8cpp.html" target="_top" xlink:title="examples/higgscpv/source\l/main.cpp">
<polygon fill="white" stroke="black" points="0,-6 0,-36 133,-36 133,-6 0,-6"/>
<text text-anchor="start" x="8" y="-24" font-family="Helvetica,sans-Serif" font-size="10.00">examples/higgscpv/source</text>
<text text-anchor="middle" x="66.5" y="-13" font-family="Helvetica,sans-Serif" font-size="10.00">/main.cpp</text>
</a>
</g>
</g>
<!-- Node13&#45;&gt;Node14 -->
<g id="edge13" class="edge"><title>Node13&#45;&gt;Node14</title>
<path fill="none" stroke="midnightblue" d="M666.554,-81.7737C659.82,-80.333 653.037,-79.0322 646.5,-78 424.24,-42.9024 363.425,-79.1554 141.5,-42 132.462,-40.4869 122.934,-38.3665 113.814,-36.0681"/>
<polygon fill="midnightblue" stroke="midnightblue" points="665.827,-85.1974 676.35,-83.9694 667.358,-78.3669 665.827,-85.1974"/>
</g>
<!-- Node16 -->
<g id="node16" class="node"><title>Node16</title>
<g id="a_node16"><a xlink:href="simple_2source_2MainSimple_8cpp.html" target="_top" xlink:title="examples/simple/source\l/MainSimple.cpp">
<polygon fill="white" stroke="black" points="2376.5,-6 2376.5,-36 2498.5,-36 2498.5,-6 2376.5,-6"/>
<text text-anchor="start" x="2384.5" y="-24" font-family="Helvetica,sans-Serif" font-size="10.00">examples/simple/source</text>
<text text-anchor="middle" x="2437.5" y="-13" font-family="Helvetica,sans-Serif" font-size="10.00">/MainSimple.cpp</text>
</a>
</g>
</g>
<!-- Node15&#45;&gt;Node16 -->
<g id="edge15" class="edge"><title>Node15&#45;&gt;Node16</title>
<path fill="none" stroke="midnightblue" d="M1948.97,-81.3628C1954.19,-80.0942 1959.43,-78.9432 1964.5,-78 2140.86,-45.2138 2190.08,-74.4578 2366.5,-42 2374.94,-40.4475 2383.82,-38.3377 2392.34,-36.0687"/>
<polygon fill="midnightblue" stroke="midnightblue" points="1947.83,-78.0442 1939.01,-83.9236 1949.57,-84.8238 1947.83,-78.0442"/>
</g>
<!-- Node18 -->
<g id="node18" class="node"><title>Node18</title>
<g id="a_node18"><a xlink:href="StandardModel_8cpp.html" target="_top" xlink:title="examples/standardmodel\l/source/analysis/StandardModel.cpp">
<polygon fill="white" stroke="black" points="624,-6 624,-36 799,-36 799,-6 624,-6"/>
<text text-anchor="start" x="632" y="-24" font-family="Helvetica,sans-Serif" font-size="10.00">examples/standardmodel</text>
<text text-anchor="middle" x="711.5" y="-13" font-family="Helvetica,sans-Serif" font-size="10.00">/source/analysis/StandardModel.cpp</text>
</a>
</g>
</g>
<!-- Node17&#45;&gt;Node18 -->
<g id="edge17" class="edge"><title>Node17&#45;&gt;Node18</title>
<path fill="none" stroke="midnightblue" d="M827.072,-74.2824C799.38,-61.7554 766.332,-46.8051 742.683,-36.1065"/>
<polygon fill="midnightblue" stroke="midnightblue" points="825.682,-77.4953 836.236,-78.4281 828.567,-71.1175 825.682,-77.4953"/>
</g>
<!-- Node19 -->
<g id="node19" class="node"><title>Node19</title>
<g id="a_node19"><a xlink:href="analysis_2Boson_8hh.html" target="_top" xlink:title="examples/standardmodel\l/standardmodel/analysis\l/Boson.hh">
<polygon fill="white" stroke="red" points="817,-0.5 817,-41.5 942,-41.5 942,-0.5 817,-0.5"/>
<text text-anchor="start" x="825" y="-29.5" font-family="Helvetica,sans-Serif" font-size="10.00">examples/standardmodel</text>
<text text-anchor="start" x="825" y="-18.5" font-family="Helvetica,sans-Serif" font-size="10.00">/standardmodel/analysis</text>
<text text-anchor="middle" x="879.5" y="-7.5" font-family="Helvetica,sans-Serif" font-size="10.00">/Boson.hh</text>
</a>
</g>
</g>
<!-- Node17&#45;&gt;Node19 -->
<g id="edge18" class="edge"><title>Node17&#45;&gt;Node19</title>
<path fill="none" stroke="midnightblue" d="M879.5,-68.2965C879.5,-59.3009 879.5,-49.6532 879.5,-41.5056"/>
<polygon fill="midnightblue" stroke="midnightblue" points="876,-68.4281 879.5,-78.4281 883,-68.4281 876,-68.4281"/>
</g>
<!-- Node20 -->
<g id="node20" class="node"><title>Node20</title>
<g id="a_node20"><a xlink:href="analysis_2Bottom_8hh.html" target="_top" xlink:title="examples/standardmodel\l/standardmodel/analysis\l/Bottom.hh">
<polygon fill="white" stroke="red" points="960,-0.5 960,-41.5 1085,-41.5 1085,-0.5 960,-0.5"/>
<text text-anchor="start" x="968" y="-29.5" font-family="Helvetica,sans-Serif" font-size="10.00">examples/standardmodel</text>
<text text-anchor="start" x="968" y="-18.5" font-family="Helvetica,sans-Serif" font-size="10.00">/standardmodel/analysis</text>
<text text-anchor="middle" x="1022.5" y="-7.5" font-family="Helvetica,sans-Serif" font-size="10.00">/Bottom.hh</text>
</a>
</g>
</g>
<!-- Node17&#45;&gt;Node20 -->
<g id="edge19" class="edge"><title>Node17&#45;&gt;Node20</title>
<path fill="none" stroke="midnightblue" d="M925.36,-73.6266C944.901,-63.2416 967.386,-51.2915 985.799,-41.5056"/>
<polygon fill="midnightblue" stroke="midnightblue" points="923.514,-70.6444 916.326,-78.4281 926.799,-76.8256 923.514,-70.6444"/>
</g>
<!-- Node21 -->
<g id="node21" class="node"><title>Node21</title>
<g id="a_node21"><a xlink:href="analysis_2Higgs_8hh.html" target="_top" xlink:title="examples/standardmodel\l/standardmodel/analysis\l/Higgs.hh">
<polygon fill="white" stroke="red" points="1103,-0.5 1103,-41.5 1228,-41.5 1228,-0.5 1103,-0.5"/>
<text text-anchor="start" x="1111" y="-29.5" font-family="Helvetica,sans-Serif" font-size="10.00">examples/standardmodel</text>
<text text-anchor="start" x="1111" y="-18.5" font-family="Helvetica,sans-Serif" font-size="10.00">/standardmodel/analysis</text>
<text text-anchor="middle" x="1165.5" y="-7.5" font-family="Helvetica,sans-Serif" font-size="10.00">/Higgs.hh</text>
</a>
</g>
</g>
<!-- Node17&#45;&gt;Node21 -->
<g id="edge20" class="edge"><title>Node17&#45;&gt;Node21</title>
<path fill="none" stroke="midnightblue" d="M952.047,-79.3042C993.515,-68.5455 1046.47,-54.684 1093.5,-42 1096.51,-41.1892 1099.58,-40.3546 1102.69,-39.5079"/>
<polygon fill="midnightblue" stroke="midnightblue" points="951.106,-75.9324 942.304,-81.8297 952.863,-82.7084 951.106,-75.9324"/>
</g>
<!-- Node22 -->
<g id="node22" class="node"><title>Node22</title>
<g id="a_node22"><a xlink:href="Top_8hh.html" target="_top" xlink:title="examples/standardmodel\l/standardmodel/analysis\l/Top.hh">
<polygon fill="white" stroke="red" points="151,-0.5 151,-41.5 276,-41.5 276,-0.5 151,-0.5"/>
<text text-anchor="start" x="159" y="-29.5" font-family="Helvetica,sans-Serif" font-size="10.00">examples/standardmodel</text>
<text text-anchor="start" x="159" y="-18.5" font-family="Helvetica,sans-Serif" font-size="10.00">/standardmodel/analysis</text>
<text text-anchor="middle" x="213.5" y="-7.5" font-family="Helvetica,sans-Serif" font-size="10.00">/Top.hh</text>
</a>
</g>
</g>
<!-- Node17&#45;&gt;Node22 -->
<g id="edge21" class="edge"><title>Node17&#45;&gt;Node22</title>
<path fill="none" stroke="midnightblue" d="M806.793,-78.0923C576.018,-39.8253 510.82,-81.2339 284.5,-42 281.724,-41.5188 278.901,-40.9726 276.059,-40.3761"/>
<polygon fill="midnightblue" stroke="midnightblue" points="806.397,-81.575 816.841,-79.791 807.564,-74.6729 806.397,-81.575"/>
</g>
<!-- Node23 -->
<g id="node23" class="node"><title>Node23</title>
<g id="a_node23"><a xlink:href="W_8hh.html" target="_top" xlink:title="examples/standardmodel\l/standardmodel/analysis/W.hh">
<polygon fill="white" stroke="red" points="294,-6 294,-36 443,-36 443,-6 294,-6"/>
<text text-anchor="start" x="302" y="-24" font-family="Helvetica,sans-Serif" font-size="10.00">examples/standardmodel</text>
<text text-anchor="middle" x="368.5" y="-13" font-family="Helvetica,sans-Serif" font-size="10.00">/standardmodel/analysis/W.hh</text>
</a>
</g>
</g>
<!-- Node17&#45;&gt;Node23 -->
<g id="edge22" class="edge"><title>Node17&#45;&gt;Node23</title>
<path fill="none" stroke="midnightblue" d="M806.783,-78.0503C649.401,-49.4159 605.059,-68.1411 451.5,-42 442.002,-40.3831 431.977,-38.298 422.304,-36.0866"/>
<polygon fill="midnightblue" stroke="midnightblue" points="806.348,-81.5294 816.819,-79.912 807.625,-74.6468 806.348,-81.5294"/>
</g>
<!-- Node24 -->
<g id="node24" class="node"><title>Node24</title>
<g id="a_node24"><a xlink:href="Z_8hh.html" target="_top" xlink:title="examples/standardmodel\l/standardmodel/analysis/Z.hh">
<polygon fill="white" stroke="red" points="461,-6 461,-36 606,-36 606,-6 461,-6"/>
<text text-anchor="start" x="469" y="-24" font-family="Helvetica,sans-Serif" font-size="10.00">examples/standardmodel</text>
<text text-anchor="middle" x="533.5" y="-13" font-family="Helvetica,sans-Serif" font-size="10.00">/standardmodel/analysis/Z.hh</text>
</a>
</g>
</g>
<!-- Node17&#45;&gt;Node24 -->
<g id="edge23" class="edge"><title>Node17&#45;&gt;Node24</title>
<path fill="none" stroke="midnightblue" d="M806.81,-77.9419C720.771,-58.4339 696.699,-59.7989 614.5,-42 606.148,-40.1914 597.343,-38.1542 588.738,-36.0897"/>
<polygon fill="midnightblue" stroke="midnightblue" points="806.224,-81.3984 816.753,-80.226 807.791,-74.576 806.224,-81.3984"/>
</g>
<!-- Node26 -->
<g id="node26" class="node"><title>Node26</title>
<g id="a_node26"><a xlink:href="TopPartner_8cpp.html" target="_top" xlink:title="examples/toppartner\l/source/TopPartner.cpp">
<polygon fill="white" stroke="black" points="1246,-6 1246,-36 1365,-36 1365,-6 1246,-6"/>
<text text-anchor="start" x="1254" y="-24" font-family="Helvetica,sans-Serif" font-size="10.00">examples/toppartner</text>
<text text-anchor="middle" x="1305.5" y="-13" font-family="Helvetica,sans-Serif" font-size="10.00">/source/TopPartner.cpp</text>
</a>
</g>
</g>
<!-- Node25&#45;&gt;Node26 -->
<g id="edge25" class="edge"><title>Node25&#45;&gt;Node26</title>
<path fill="none" stroke="midnightblue" d="M1305.5,-68.2829C1305.5,-57.2536 1305.5,-45.2457 1305.5,-36.2254"/>
<polygon fill="midnightblue" stroke="midnightblue" points="1302,-68.4281 1305.5,-78.4281 1309,-68.4281 1302,-68.4281"/>
</g>
<!-- Node29 -->
<g id="node29" class="node"><title>Node29</title>
<g id="a_node29"><a xlink:href="LorentzVector_8hh.html" target="_top" xlink:title="boca/math/LorentzVector.hh">
<polygon fill="white" stroke="black" points="2275.5,-162 2275.5,-181 2415.5,-181 2415.5,-162 2275.5,-162"/>
<text text-anchor="middle" x="2345.5" y="-169" font-family="Helvetica,sans-Serif" font-size="10.00">boca/math/LorentzVector.hh</text>
</a>
</g>
</g>
<!-- Node28&#45;&gt;Node29 -->
<g id="edge28" class="edge"><title>Node28&#45;&gt;Node29</title>
<path fill="none" stroke="midnightblue" d="M2404.22,-217.294C2389.26,-205.88 2369.04,-190.458 2356.65,-181.009"/>
<polygon fill="midnightblue" stroke="midnightblue" points="2402.25,-220.193 2412.32,-223.475 2406.5,-214.627 2402.25,-220.193"/>
</g>
<!-- Node35 -->
<g id="node35" class="node"><title>Node35</title>
<g id="a_node35"><a xlink:href="LorentzVectorBase_8cpp.html" target="_top" xlink:title="source/math/LorentzVector\lBase.cpp">
<polygon fill="white" stroke="black" points="2433.5,-156.5 2433.5,-186.5 2567.5,-186.5 2567.5,-156.5 2433.5,-156.5"/>
<text text-anchor="start" x="2441.5" y="-174.5" font-family="Helvetica,sans-Serif" font-size="10.00">source/math/LorentzVector</text>
<text text-anchor="middle" x="2500.5" y="-163.5" font-family="Helvetica,sans-Serif" font-size="10.00">Base.cpp</text>
</a>
</g>
</g>
<!-- Node28&#45;&gt;Node35 -->
<g id="edge36" class="edge"><title>Node28&#45;&gt;Node35</title>
<path fill="none" stroke="midnightblue" d="M2442.66,-217.195C2454.8,-207.813 2470.41,-195.751 2482.35,-186.523"/>
<polygon fill="midnightblue" stroke="midnightblue" points="2440.31,-214.591 2434.53,-223.475 2444.59,-220.13 2440.31,-214.591"/>
</g>
<!-- Node30 -->
<g id="node30" class="node"><title>Node30</title>
<g id="a_node30"><a xlink:href="PseudoJet_8hh.html" target="_top" xlink:title="boca/fastjet/PseudoJet.hh">
<polygon fill="white" stroke="red" points="2440,-89.5 2440,-108.5 2571,-108.5 2571,-89.5 2440,-89.5"/>
<text text-anchor="middle" x="2505.5" y="-96.5" font-family="Helvetica,sans-Serif" font-size="10.00">boca/fastjet/PseudoJet.hh</text>
</a>
</g>
</g>
<!-- Node29&#45;&gt;Node30 -->
<g id="edge29" class="edge"><title>Node29&#45;&gt;Node30</title>
<path fill="none" stroke="midnightblue" d="M2374.17,-157.869C2406.51,-143.619 2458.22,-120.831 2486.13,-108.534"/>
<polygon fill="midnightblue" stroke="midnightblue" points="2372.54,-154.761 2364.8,-161.996 2375.36,-161.167 2372.54,-154.761"/>
</g>
<!-- Node31 -->
<g id="node31" class="node"><title>Node31</title>
<g id="a_node31"><a xlink:href="PseudoJet_8cpp.html" target="_top" xlink:title="source/fastjet/PseudoJet.cpp">
<polygon fill="white" stroke="black" points="2530.5,-11.5 2530.5,-30.5 2674.5,-30.5 2674.5,-11.5 2530.5,-11.5"/>
<text text-anchor="middle" x="2602.5" y="-18.5" font-family="Helvetica,sans-Serif" font-size="10.00">source/fastjet/PseudoJet.cpp</text>
</a>
</g>
</g>
<!-- Node29&#45;&gt;Node31 -->
<g id="edge34" class="edge"><title>Node29&#45;&gt;Node31</title>
<path fill="none" stroke="midnightblue" d="M2401.85,-160.092C2475.14,-146.429 2594.28,-123.735 2597.5,-120 2619.65,-94.3345 2610.38,-49.353 2605.16,-30.5946"/>
<polygon fill="midnightblue" stroke="midnightblue" points="2401.02,-156.686 2391.83,-161.957 2402.3,-163.568 2401.02,-156.686"/>
</g>
<!-- Node32 -->
<g id="node32" class="node"><title>Node32</title>
<g id="a_node32"><a xlink:href="Member_8hh.html" target="_top" xlink:title="boca/physics/Member.hh">
<polygon fill="white" stroke="red" points="1973.5,-89.5 1973.5,-108.5 2099.5,-108.5 2099.5,-89.5 1973.5,-89.5"/>
<text text-anchor="middle" x="2036.5" y="-96.5" font-family="Helvetica,sans-Serif" font-size="10.00">boca/physics/Member.hh</text>
</a>
</g>
</g>
<!-- Node29&#45;&gt;Node32 -->
<g id="edge32" class="edge"><title>Node29&#45;&gt;Node32</title>
<path fill="none" stroke="midnightblue" d="M2291.74,-160.018C2243.56,-150.394 2171.06,-135.339 2108.5,-120 2094.39,-116.54 2078.84,-112.279 2065.82,-108.581"/>
<polygon fill="midnightblue" stroke="midnightblue" points="2291.15,-163.469 2301.64,-161.987 2292.51,-156.603 2291.15,-163.469"/>
</g>
<!-- Node33 -->
<g id="node33" class="node"><title>Node33</title>
<g id="a_node33"><a xlink:href="Invisible2_8hh.html" target="_top" xlink:title="boca/external/Invisible2.hh">
<polygon fill="white" stroke="red" points="2118,-89.5 2118,-108.5 2251,-108.5 2251,-89.5 2118,-89.5"/>
<text text-anchor="middle" x="2184.5" y="-96.5" font-family="Helvetica,sans-Serif" font-size="10.00">boca/external/Invisible2.hh</text>
</a>
</g>
</g>
<!-- Node29&#45;&gt;Node33 -->
<g id="edge33" class="edge"><title>Node29&#45;&gt;Node33</title>
<path fill="none" stroke="midnightblue" d="M2316.65,-157.869C2284.11,-143.619 2232.07,-120.831 2203.99,-108.534"/>
<polygon fill="midnightblue" stroke="midnightblue" points="2315.52,-161.191 2326.08,-161.996 2318.32,-154.779 2315.52,-161.191"/>
</g>
<!-- Node34 -->
<g id="node34" class="node"><title>Node34</title>
<g id="a_node34"><a xlink:href="LorentzVector_8cpp.html" target="_top" xlink:title="source/math/LorentzVector.cpp">
<polygon fill="white" stroke="black" points="2269,-89.5 2269,-108.5 2422,-108.5 2422,-89.5 2269,-89.5"/>
<text text-anchor="middle" x="2345.5" y="-96.5" font-family="Helvetica,sans-Serif" font-size="10.00">source/math/LorentzVector.cpp</text>
</a>
</g>
</g>
<!-- Node29&#45;&gt;Node34 -->
<g id="edge35" class="edge"><title>Node29&#45;&gt;Node34</title>
<path fill="none" stroke="midnightblue" d="M2345.5,-151.442C2345.5,-137.53 2345.5,-119.32 2345.5,-108.715"/>
<polygon fill="midnightblue" stroke="midnightblue" points="2342,-151.855 2345.5,-161.855 2349,-151.855 2342,-151.855"/>
</g>
<!-- Node30&#45;&gt;Node30 -->
<g id="edge30" class="edge"><title>Node30&#45;&gt;Node30</title>
<path fill="none" stroke="midnightblue" d="M2538.11,-110.763C2563.31,-115.149 2589,-111.228 2589,-99 2589,-85.1484 2556.04,-81.9561 2528.16,-89.4229"/>
<polygon fill="midnightblue" stroke="midnightblue" points="2538.68,-107.305 2528.16,-108.577 2537.17,-114.141 2538.68,-107.305"/>
</g>
<!-- Node30&#45;&gt;Node31 -->
<g id="edge31" class="edge"><title>Node30&#45;&gt;Node31</title>
<path fill="none" stroke="midnightblue" d="M2524.72,-82.9404C2544.7,-67.2848 2575.28,-43.3271 2591.5,-30.6165"/>
<polygon fill="midnightblue" stroke="midnightblue" points="2522.34,-80.3593 2516.63,-89.2818 2526.66,-85.8694 2522.34,-80.3593"/>
</g>
<!-- Node37 -->
<g id="node37" class="node"><title>Node37</title>
<g id="a_node37"><a xlink:href="EventShapes_8hh.html" target="_top" xlink:title="boca/EventShapes.hh">
<polygon fill="white" stroke="black" points="518,-162 518,-181 631,-181 631,-162 518,-162"/>
<text text-anchor="middle" x="574.5" y="-169" font-family="Helvetica,sans-Serif" font-size="10.00">boca/EventShapes.hh</text>
</a>
</g>
</g>
<!-- Node36&#45;&gt;Node37 -->
<g id="edge38" class="edge"><title>Node36&#45;&gt;Node37</title>
<path fill="none" stroke="midnightblue" d="M897.472,-221.901C822.269,-210.398 700.708,-191.804 630.131,-181.009"/>
<polygon fill="midnightblue" stroke="midnightblue" points="897.352,-225.423 907.766,-223.475 898.41,-218.503 897.352,-225.423"/>
</g>
<!-- Node37&#45;&gt;Node13 -->
<g id="edge40" class="edge"><title>Node37&#45;&gt;Node13</title>
<path fill="none" stroke="midnightblue" d="M602.151,-157.759C628.928,-145.42 669.434,-126.756 697.104,-114.006"/>
<polygon fill="midnightblue" stroke="midnightblue" points="600.573,-154.632 592.955,-161.996 603.502,-160.99 600.573,-154.632"/>
</g>
<!-- Node38 -->
<g id="node38" class="node"><title>Node38</title>
<g id="a_node38"><a xlink:href="Multiplet_8hh.html" target="_top" xlink:title="boca/multiplets/Multiplet.hh">
<polygon fill="white" stroke="red" points="195.5,-89.5 195.5,-108.5 331.5,-108.5 331.5,-89.5 195.5,-89.5"/>
<text text-anchor="middle" x="263.5" y="-96.5" font-family="Helvetica,sans-Serif" font-size="10.00">boca/multiplets/Multiplet.hh</text>
</a>
</g>
</g>
<!-- Node37&#45;&gt;Node38 -->
<g id="edge39" class="edge"><title>Node37&#45;&gt;Node38</title>
<path fill="none" stroke="midnightblue" d="M522.486,-159.921C474.974,-150.105 402.844,-134.817 340.5,-120 325.585,-116.455 309.127,-112.224 295.269,-108.569"/>
<polygon fill="midnightblue" stroke="midnightblue" points="522.033,-163.402 532.534,-161.992 523.446,-156.546 522.033,-163.402"/>
</g>
<!-- Node39 -->
<g id="node39" class="node"><title>Node39</title>
<g id="a_node39"><a xlink:href="MultipletSignature_8hh.html" target="_top" xlink:title="examples/higgscpv/higgscpv\l/MultipletSignature.hh">
<polygon fill="white" stroke="red" points="350,-84 350,-114 493,-114 493,-84 350,-84"/>
<text text-anchor="start" x="358" y="-102" font-family="Helvetica,sans-Serif" font-size="10.00">examples/higgscpv/higgscpv</text>
<text text-anchor="middle" x="421.5" y="-91" font-family="Helvetica,sans-Serif" font-size="10.00">/MultipletSignature.hh</text>
</a>
</g>
</g>
<!-- Node37&#45;&gt;Node39 -->
<g id="edge41" class="edge"><title>Node37&#45;&gt;Node39</title>
<path fill="none" stroke="midnightblue" d="M546.849,-157.759C520.072,-145.42 479.566,-126.756 451.896,-114.006"/>
<polygon fill="midnightblue" stroke="midnightblue" points="545.498,-160.99 556.045,-161.996 548.427,-154.632 545.498,-160.99"/>
</g>
<!-- Node40 -->
<g id="node40" class="node"><title>Node40</title>
<g id="a_node40"><a xlink:href="EventShapes_8cpp.html" target="_top" xlink:title="source/EventShapes.cpp">
<polygon fill="white" stroke="black" points="511.5,-89.5 511.5,-108.5 637.5,-108.5 637.5,-89.5 511.5,-89.5"/>
<text text-anchor="middle" x="574.5" y="-96.5" font-family="Helvetica,sans-Serif" font-size="10.00">source/EventShapes.cpp</text>
</a>
</g>
</g>
<!-- Node37&#45;&gt;Node40 -->
<g id="edge42" class="edge"><title>Node37&#45;&gt;Node40</title>
<path fill="none" stroke="midnightblue" d="M574.5,-151.442C574.5,-137.53 574.5,-119.32 574.5,-108.715"/>
<polygon fill="midnightblue" stroke="midnightblue" points="571,-151.855 574.5,-161.855 578,-151.855 571,-151.855"/>
</g>
<!-- Node42 -->
<g id="node42" class="node"><title>Node42</title>
<g id="a_node42"><a xlink:href="Histogram2Dim_8hh.html" target="_top" xlink:title="boca/plotting/Histogram2\lDim.hh">
<polygon fill="white" stroke="black" points="2664,-156.5 2664,-186.5 2789,-186.5 2789,-156.5 2664,-156.5"/>
<text text-anchor="start" x="2672" y="-174.5" font-family="Helvetica,sans-Serif" font-size="10.00">boca/plotting/Histogram2</text>
<text text-anchor="middle" x="2726.5" y="-163.5" font-family="Helvetica,sans-Serif" font-size="10.00">Dim.hh</text>
</a>
</g>
</g>
<!-- Node41&#45;&gt;Node42 -->
<g id="edge44" class="edge"><title>Node41&#45;&gt;Node42</title>
<path fill="none" stroke="midnightblue" d="M2776.95,-216.646C2766.32,-207.346 2752.87,-195.572 2742.53,-186.523"/>
<polygon fill="midnightblue" stroke="midnightblue" points="2774.93,-219.524 2784.76,-223.475 2779.54,-214.256 2774.93,-219.524"/>
</g>
<!-- Node45 -->
<g id="node45" class="node"><title>Node45</title>
<g id="a_node45"><a xlink:href="Plots_8hh.html" target="_top" xlink:title="boca/plotting/Plots.hh">
<polygon fill="white" stroke="black" points="2807,-162 2807,-181 2918,-181 2918,-162 2807,-162"/>
<text text-anchor="middle" x="2862.5" y="-169" font-family="Helvetica,sans-Serif" font-size="10.00">boca/plotting/Plots.hh</text>
</a>
</g>
</g>
<!-- Node41&#45;&gt;Node45 -->
<g id="edge47" class="edge"><title>Node41&#45;&gt;Node45</title>
<path fill="none" stroke="midnightblue" d="M2812.04,-216.65C2825.01,-205.306 2842.18,-190.281 2852.78,-181.009"/>
<polygon fill="midnightblue" stroke="midnightblue" points="2809.46,-214.256 2804.24,-223.475 2814.07,-219.524 2809.46,-214.256"/>
</g>
<!-- Node47 -->
<g id="node47" class="node"><title>Node47</title>
<g id="a_node47"><a xlink:href="Profile_8hh.html" target="_top" xlink:title="boca/plotting/Profile.hh">
<polygon fill="white" stroke="black" points="2939.5,-162 2939.5,-181 3055.5,-181 3055.5,-162 2939.5,-162"/>
<text text-anchor="middle" x="2997.5" y="-169" font-family="Helvetica,sans-Serif" font-size="10.00">boca/plotting/Profile.hh</text>
</a>
</g>
</g>
<!-- Node41&#45;&gt;Node47 -->
<g id="edge50" class="edge"><title>Node41&#45;&gt;Node47</title>
<path fill="none" stroke="midnightblue" d="M2833.39,-220.602C2872.84,-209.04 2932.99,-191.407 2968.47,-181.009"/>
<polygon fill="midnightblue" stroke="midnightblue" points="2832.2,-217.304 2823.58,-223.475 2834.17,-224.021 2832.2,-217.304"/>
</g>
<!-- Node49 -->
<g id="node49" class="node"><title>Node49</title>
<g id="a_node49"><a xlink:href="Plot_8cpp.html" target="_top" xlink:title="source/plotting/Plot.cpp">
<polygon fill="white" stroke="black" points="3074,-162 3074,-181 3193,-181 3193,-162 3074,-162"/>
<text text-anchor="middle" x="3133.5" y="-169" font-family="Helvetica,sans-Serif" font-size="10.00">source/plotting/Plot.cpp</text>
</a>
</g>
</g>
<!-- Node41&#45;&gt;Node49 -->
<g id="edge53" class="edge"><title>Node41&#45;&gt;Node49</title>
<path fill="none" stroke="midnightblue" d="M2857.56,-222.258C2912.36,-213.608 2993.83,-200.309 3064.5,-187 3074.12,-185.188 3084.47,-183.092 3094.15,-181.067"/>
<polygon fill="midnightblue" stroke="midnightblue" points="2856.98,-218.806 2847.64,-223.818 2858.06,-225.721 2856.98,-218.806"/>
</g>
<!-- Node43 -->
<g id="node43" class="node"><title>Node43</title>
<g id="a_node43"><a xlink:href="Histogram2Dim_8cpp.html" target="_top" xlink:title="source/plotting/Histogram2\lDim.cpp">
<polygon fill="white" stroke="black" points="2645.5,-84 2645.5,-114 2779.5,-114 2779.5,-84 2645.5,-84"/>
<text text-anchor="start" x="2653.5" y="-102" font-family="Helvetica,sans-Serif" font-size="10.00">source/plotting/Histogram2</text>
<text text-anchor="middle" x="2712.5" y="-91" font-family="Helvetica,sans-Serif" font-size="10.00">Dim.cpp</text>
</a>
</g>
</g>
<!-- Node42&#45;&gt;Node43 -->
<g id="edge45" class="edge"><title>Node42&#45;&gt;Node43</title>
<path fill="none" stroke="midnightblue" d="M2721.68,-146.232C2719.56,-135.568 2717.15,-123.414 2715.33,-114.246"/>
<polygon fill="midnightblue" stroke="midnightblue" points="2718.29,-147.107 2723.67,-156.233 2725.15,-145.743 2718.29,-147.107"/>
</g>
<!-- Node44 -->
<g id="node44" class="node"><title>Node44</title>
<g id="a_node44"><a xlink:href="PlottingBase_8cpp.html" target="_top" xlink:title="source/plotting/Plotting\lBase.cpp">
<polygon fill="white" stroke="black" points="2941.5,-84 2941.5,-114 3057.5,-114 3057.5,-84 2941.5,-84"/>
<text text-anchor="start" x="2949.5" y="-102" font-family="Helvetica,sans-Serif" font-size="10.00">source/plotting/Plotting</text>
<text text-anchor="middle" x="2999.5" y="-91" font-family="Helvetica,sans-Serif" font-size="10.00">Base.cpp</text>
</a>
</g>
</g>
<!-- Node42&#45;&gt;Node44 -->
<g id="edge46" class="edge"><title>Node42&#45;&gt;Node44</title>
<path fill="none" stroke="midnightblue" d="M2796.63,-154.042C2836.32,-144.523 2886.81,-132.071 2931.5,-120 2938.39,-118.139 2945.65,-116.095 2952.76,-114.046"/>
<polygon fill="midnightblue" stroke="midnightblue" points="2795.69,-150.667 2786.78,-156.396 2797.32,-157.475 2795.69,-150.667"/>
</g>
<!-- Node45&#45;&gt;Node44 -->
<g id="edge49" class="edge"><title>Node45&#45;&gt;Node44</title>
<path fill="none" stroke="midnightblue" d="M2888.21,-157.269C2912.19,-144.93 2947.83,-126.588 2972.28,-114.006"/>
<polygon fill="midnightblue" stroke="midnightblue" points="2886.32,-154.308 2879.03,-161.996 2889.52,-160.532 2886.32,-154.308"/>
</g>
<!-- Node46 -->
<g id="node46" class="node"><title>Node46</title>
<g id="a_node46"><a xlink:href="Plots_8cpp.html" target="_top" xlink:title="source/plotting/Plots.cpp">
<polygon fill="white" stroke="black" points="2798,-89.5 2798,-108.5 2923,-108.5 2923,-89.5 2798,-89.5"/>
<text text-anchor="middle" x="2860.5" y="-96.5" font-family="Helvetica,sans-Serif" font-size="10.00">source/plotting/Plots.cpp</text>
</a>
</g>
</g>
<!-- Node45&#45;&gt;Node46 -->
<g id="edge48" class="edge"><title>Node45&#45;&gt;Node46</title>
<path fill="none" stroke="midnightblue" d="M2861.97,-151.858C2861.58,-137.895 2861.05,-119.426 2860.75,-108.715"/>
<polygon fill="midnightblue" stroke="midnightblue" points="2858.47,-151.959 2862.25,-161.855 2865.47,-151.76 2858.47,-151.959"/>
</g>
<!-- Node47&#45;&gt;Node44 -->
<g id="edge51" class="edge"><title>Node47&#45;&gt;Node44</title>
<path fill="none" stroke="midnightblue" d="M2998.03,-151.736C2998.37,-139.908 2998.79,-124.883 2999.1,-114.076"/>
<polygon fill="midnightblue" stroke="midnightblue" points="2994.53,-151.76 2997.75,-161.855 3001.53,-151.959 2994.53,-151.76"/>
</g>
<!-- Node48 -->
<g id="node48" class="node"><title>Node48</title>
<g id="a_node48"><a xlink:href="Profile_8cpp.html" target="_top" xlink:title="source/plotting/Profile.cpp">
<polygon fill="white" stroke="black" points="3075.5,-89.5 3075.5,-108.5 3205.5,-108.5 3205.5,-89.5 3075.5,-89.5"/>
<text text-anchor="middle" x="3140.5" y="-96.5" font-family="Helvetica,sans-Serif" font-size="10.00">source/plotting/Profile.cpp</text>
</a>
</g>
</g>
<!-- Node47&#45;&gt;Node48 -->
<g id="edge52" class="edge"><title>Node47&#45;&gt;Node48</title>
<path fill="none" stroke="midnightblue" d="M3023.87,-157.498C3052.82,-143.227 3098.46,-120.725 3123.19,-108.534"/>
<polygon fill="midnightblue" stroke="midnightblue" points="3022.17,-154.435 3014.75,-161.996 3025.27,-160.713 3022.17,-154.435"/>
</g>
</g>
</svg>
