<?xml version="1.0" encoding="UTF-8" standalone="no"?>
<!DOCTYPE svg PUBLIC "-//W3C//DTD SVG 1.1//EN"
 "http://www.w3.org/Graphics/SVG/1.1/DTD/svg11.dtd">
<!-- Generated by graphviz version 2.38.0 (20140413.2041)
 -->
<!-- Title: boca::Vector3&lt; Value &gt; Pages: 1 -->
<svg width="421pt" height="106pt"
 viewBox="0.00 0.00 420.50 106.00" xmlns="http://www.w3.org/2000/svg" xmlns:xlink="http://www.w3.org/1999/xlink">
<g id="graph0" class="graph" transform="scale(1 1) rotate(0) translate(4 102)">
<title>boca::Vector3&lt; Value &gt;</title>
<polygon fill="white" stroke="none" points="-4,4 -4,-102 416.5,-102 416.5,4 -4,4"/>
<!-- Node1 -->
<g id="node1" class="node"><title>Node1</title>
<polygon fill="#bfbfbf" stroke="black" points="156,-78.5 156,-97.5 276,-97.5 276,-78.5 156,-78.5"/>
<text text-anchor="middle" x="216" y="-85.5" font-family="Helvetica,sans-Serif" font-size="10.00">boca::Vector3&lt; Value &gt;</text>
</g>
<!-- Node2 -->
<g id="node2" class="node"><title>Node2</title>
<g id="a_node2"><a xlink:href="../../d3/da2/classboca_1_1Vector3.html" target="_top" xlink:title="boca::Vector3\&lt; Momentum \&gt;">
<polygon fill="white" stroke="black" points="0,-6 0,-25 144,-25 144,-6 0,-6"/>
<text text-anchor="middle" x="72" y="-13" font-family="Helvetica,sans-Serif" font-size="10.00">boca::Vector3&lt; Momentum &gt;</text>
</a>
</g>
</g>
<!-- Node1&#45;&gt;Node2 -->
<g id="edge1" class="edge"><title>Node1&#45;&gt;Node2</title>
<path fill="none" stroke="orange" stroke-dasharray="5,2" d="M178.692,-75.0778C166.754,-70.8182 153.624,-65.6574 142,-60 120.901,-49.7313 98.1069,-34.7669 84.4488,-25.3375"/>
<polygon fill="orange" stroke="orange" points="177.786,-78.468 188.381,-78.435 180.078,-71.8538 177.786,-78.468"/>
<text text-anchor="middle" x="177" y="-52" font-family="Helvetica,sans-Serif" font-size="10.00"> &lt; Momentum &gt;</text>
</g>
<!-- Node3 -->
<g id="node3" class="node"><title>Node3</title>
<g id="a_node3"><a xlink:href="../../d3/da2/classboca_1_1Vector3.html" target="_top" xlink:title="boca::Vector3\&lt; boca\l::Momentum \&gt;">
<polygon fill="white" stroke="black" points="162.5,-0.5 162.5,-30.5 269.5,-30.5 269.5,-0.5 162.5,-0.5"/>
<text text-anchor="start" x="170.5" y="-18.5" font-family="Helvetica,sans-Serif" font-size="10.00">boca::Vector3&lt; boca</text>
<text text-anchor="middle" x="216" y="-7.5" font-family="Helvetica,sans-Serif" font-size="10.00">::Momentum &gt;</text>
</a>
</g>
</g>
<!-- Node1&#45;&gt;Node3 -->
<g id="edge2" class="edge"><title>Node1&#45;&gt;Node3</title>
<path fill="none" stroke="orange" stroke-dasharray="5,2" d="M216,-68.2362C216,-56.4079 216,-41.3829 216,-30.5762"/>
<polygon fill="orange" stroke="orange" points="212.5,-68.3553 216,-78.3553 219.5,-68.3554 212.5,-68.3553"/>
<text text-anchor="middle" x="264.5" y="-52" font-family="Helvetica,sans-Serif" font-size="10.00"> &lt; boca::Momentum &gt;</text>
</g>
<!-- Node4 -->
<g id="node4" class="node"><title>Node4</title>
<g id="a_node4"><a xlink:href="../../d3/da2/classboca_1_1Vector3.html" target="_top" xlink:title="boca::Vector3\&lt; Length \&gt;">
<polygon fill="white" stroke="black" points="287.5,-6 287.5,-25 412.5,-25 412.5,-6 287.5,-6"/>
<text text-anchor="middle" x="350" y="-13" font-family="Helvetica,sans-Serif" font-size="10.00">boca::Vector3&lt; Length &gt;</text>
</a>
</g>
</g>
<!-- Node1&#45;&gt;Node4 -->
<g id="edge3" class="edge"><title>Node1&#45;&gt;Node4</title>
<path fill="none" stroke="orange" stroke-dasharray="5,2" d="M283.674,-75.5669C295.384,-71.7719 306.995,-66.721 317,-60 330.22,-51.1198 340.3,-35.161 345.669,-25.2386"/>
<polygon fill="orange" stroke="orange" points="282.447,-72.2798 273.848,-78.4684 284.429,-78.9932 282.447,-72.2798"/>
<text text-anchor="middle" x="355.5" y="-52" font-family="Helvetica,sans-Serif" font-size="10.00"> &lt; Length &gt;</text>
</g>
</g>
</svg>
