<?xml version="1.0" encoding="UTF-8" standalone="no"?>
<!DOCTYPE svg PUBLIC "-//W3C//DTD SVG 1.1//EN"
 "http://www.w3.org/Graphics/SVG/1.1/DTD/svg11.dtd">
<!-- Generated by graphviz version 2.38.0 (20140413.2041)
 -->
<!-- Title: boca::Singlet Pages: 1 -->
<svg width="468pt" height="318pt"
 viewBox="0.00 0.00 467.50 318.00" xmlns="http://www.w3.org/2000/svg" xmlns:xlink="http://www.w3.org/1999/xlink">
<g id="graph0" class="graph" transform="scale(1 1) rotate(0) translate(4 314)">
<title>boca::Singlet</title>
<polygon fill="white" stroke="none" points="-4,4 -4,-314 463.5,-314 463.5,4 -4,4"/>
<!-- Node1 -->
<g id="node1" class="node"><title>Node1</title>
<polygon fill="#bfbfbf" stroke="black" points="163,-0.5 163,-19.5 237,-19.5 237,-0.5 163,-0.5"/>
<text text-anchor="middle" x="200" y="-7.5" font-family="Helvetica,sans-Serif" font-size="10.00">boca::Singlet</text>
</g>
<!-- Node2 -->
<g id="node2" class="node"><title>Node2</title>
<g id="a_node2"><a xlink:href="../../d6/d09/classboca_1_1Jet.html" target="_top" xlink:title="boca::Jet">
<polygon fill="white" stroke="black" points="46.5,-73 46.5,-92 103.5,-92 103.5,-73 46.5,-73"/>
<text text-anchor="middle" x="75" y="-80" font-family="Helvetica,sans-Serif" font-size="10.00">boca::Jet</text>
</a>
</g>
</g>
<!-- Node2&#45;&gt;Node1 -->
<g id="edge1" class="edge"><title>Node2&#45;&gt;Node1</title>
<path fill="none" stroke="midnightblue" d="M99.2698,-67.8119C124.493,-53.5859 163.206,-31.7519 184.547,-19.7154"/>
<polygon fill="midnightblue" stroke="midnightblue" points="97.3182,-64.8942 90.3275,-72.8553 100.757,-70.9913 97.3182,-64.8942"/>
</g>
<!-- Node3 -->
<g id="node3" class="node"><title>Node3</title>
<g id="a_node3"><a xlink:href="../../d5/d82/classboca_1_1PseudoJet.html" target="_top" xlink:title="boca::PseudoJet">
<polygon fill="white" stroke="black" points="3,-145.5 3,-164.5 93,-164.5 93,-145.5 3,-145.5"/>
<text text-anchor="middle" x="48" y="-152.5" font-family="Helvetica,sans-Serif" font-size="10.00">boca::PseudoJet</text>
</a>
</g>
</g>
<!-- Node3&#45;&gt;Node2 -->
<g id="edge2" class="edge"><title>Node3&#45;&gt;Node2</title>
<path fill="none" stroke="midnightblue" d="M54.9811,-135.771C60.3465,-121.762 67.5195,-103.032 71.6622,-92.2154"/>
<polygon fill="midnightblue" stroke="midnightblue" points="51.6188,-134.765 51.3107,-145.355 58.1558,-137.269 51.6188,-134.765"/>
</g>
<!-- Node4 -->
<g id="node4" class="node"><title>Node4</title>
<polygon fill="white" stroke="#bfbfbf" points="0,-212.5 0,-231.5 96,-231.5 96,-212.5 0,-212.5"/>
<text text-anchor="middle" x="48" y="-219.5" font-family="Helvetica,sans-Serif" font-size="10.00">fastjet::PseudoJet</text>
</g>
<!-- Node4&#45;&gt;Node3 -->
<g id="edge3" class="edge"><title>Node4&#45;&gt;Node3</title>
<path fill="none" stroke="midnightblue" d="M48,-202.037C48,-189.67 48,-174.12 48,-164.627"/>
<polygon fill="midnightblue" stroke="midnightblue" points="44.5001,-202.234 48,-212.234 51.5001,-202.234 44.5001,-202.234"/>
</g>
<!-- Node5 -->
<g id="node5" class="node"><title>Node5</title>
<g id="a_node5"><a xlink:href="../../de/d99/classboca_1_1Mutable.html" target="_top" xlink:title="boca::Mutable\&lt; Angle \&gt;">
<polygon fill="white" stroke="black" points="319.5,-73 319.5,-92 440.5,-92 440.5,-73 319.5,-73"/>
<text text-anchor="middle" x="380" y="-80" font-family="Helvetica,sans-Serif" font-size="10.00">boca::Mutable&lt; Angle &gt;</text>
</a>
</g>
</g>
<!-- Node5&#45;&gt;Node1 -->
<g id="edge4" class="edge"><title>Node5&#45;&gt;Node1</title>
<path fill="none" stroke="#9a32cd" stroke-dasharray="5,2" d="M348.686,-69.2354C312.372,-55.0124 253.457,-31.9374 221.789,-19.5341"/>
<polygon fill="#9a32cd" stroke="#9a32cd" points="347.7,-72.608 358.288,-72.9961 350.253,-66.0901 347.7,-72.608"/>
<text text-anchor="middle" x="313.5" y="-41" font-family="Helvetica,sans-Serif" font-size="10.00"> radius_</text>
</g>
<!-- Node6 -->
<g id="node6" class="node"><title>Node6</title>
<g id="a_node6"><a xlink:href="../../de/d99/classboca_1_1Mutable.html" target="_top" xlink:title="boca::Mutable\&lt; Member_ \&gt;">
<polygon fill="white" stroke="black" points="322.5,-145.5 322.5,-164.5 459.5,-164.5 459.5,-145.5 322.5,-145.5"/>
<text text-anchor="middle" x="391" y="-152.5" font-family="Helvetica,sans-Serif" font-size="10.00">boca::Mutable&lt; Member_ &gt;</text>
</a>
</g>
</g>
<!-- Node6&#45;&gt;Node5 -->
<g id="edge5" class="edge"><title>Node6&#45;&gt;Node5</title>
<path fill="none" stroke="orange" stroke-dasharray="5,2" d="M391.518,-135.399C391.423,-129.195 391.027,-122.268 390,-116 388.645,-107.727 385.716,-98.6327 383.377,-92.1732"/>
<polygon fill="orange" stroke="orange" points="388.017,-135.457 391.433,-145.486 395.017,-135.516 388.017,-135.457"/>
<text text-anchor="middle" x="415" y="-119" font-family="Helvetica,sans-Serif" font-size="10.00"> &lt; Angle &gt;</text>
</g>
<!-- Node8 -->
<g id="node8" class="node"><title>Node8</title>
<g id="a_node8"><a xlink:href="../../de/d99/classboca_1_1Mutable.html" target="_top" xlink:title="boca::Mutable\&lt; boca\l::Vector2\&lt; AngleSquare \&gt; \&gt;">
<polygon fill="white" stroke="black" points="130.5,-67.5 130.5,-97.5 269.5,-97.5 269.5,-67.5 130.5,-67.5"/>
<text text-anchor="start" x="138.5" y="-85.5" font-family="Helvetica,sans-Serif" font-size="10.00">boca::Mutable&lt; boca</text>
<text text-anchor="middle" x="200" y="-74.5" font-family="Helvetica,sans-Serif" font-size="10.00">::Vector2&lt; AngleSquare &gt; &gt;</text>
</a>
</g>
</g>
<!-- Node6&#45;&gt;Node8 -->
<g id="edge11" class="edge"><title>Node6&#45;&gt;Node8</title>
<path fill="none" stroke="orange" stroke-dasharray="5,2" d="M312.048,-146.574C278.495,-142.244 243.924,-135.858 230,-127 219.009,-120.008 210.981,-107.388 206.01,-97.536"/>
<polygon fill="orange" stroke="orange" points="312.051,-150.101 322.405,-147.853 312.909,-143.154 312.051,-150.101"/>
<text text-anchor="middle" x="308" y="-119" font-family="Helvetica,sans-Serif" font-size="10.00"> &lt; boca::Vector2&lt; AngleSquare &gt; &gt;</text>
</g>
<!-- Node7 -->
<g id="node7" class="node"><title>Node7</title>
<polygon fill="white" stroke="#bfbfbf" points="362.5,-212.5 362.5,-231.5 419.5,-231.5 419.5,-212.5 362.5,-212.5"/>
<text text-anchor="middle" x="391" y="-219.5" font-family="Helvetica,sans-Serif" font-size="10.00">Member_</text>
</g>
<!-- Node7&#45;&gt;Node6 -->
<g id="edge6" class="edge"><title>Node7&#45;&gt;Node6</title>
<path fill="none" stroke="#9a32cd" stroke-dasharray="5,2" d="M391,-202.037C391,-189.67 391,-174.12 391,-164.627"/>
<polygon fill="#9a32cd" stroke="#9a32cd" points="387.5,-202.234 391,-212.234 394.5,-202.234 387.5,-202.234"/>
<text text-anchor="middle" x="413" y="-186" font-family="Helvetica,sans-Serif" font-size="10.00"> member_</text>
</g>
<!-- Node8&#45;&gt;Node1 -->
<g id="edge7" class="edge"><title>Node8&#45;&gt;Node1</title>
<path fill="none" stroke="#9a32cd" stroke-dasharray="5,2" d="M200,-57.0913C200,-44.2136 200,-29.1974 200,-19.8932"/>
<polygon fill="#9a32cd" stroke="#9a32cd" points="196.5,-57.2332 200,-67.2333 203.5,-57.2333 196.5,-57.2332"/>
<text text-anchor="middle" x="212" y="-41" font-family="Helvetica,sans-Serif" font-size="10.00"> pull_</text>
</g>
<!-- Node9 -->
<g id="node9" class="node"><title>Node9</title>
<g id="a_node9"><a xlink:href="../../d6/dfb/classboca_1_1Vector2.html" target="_top" xlink:title="boca::Vector2\&lt; AngleSquare \&gt;">
<polygon fill="white" stroke="black" points="111.5,-145.5 111.5,-164.5 262.5,-164.5 262.5,-145.5 111.5,-145.5"/>
<text text-anchor="middle" x="187" y="-152.5" font-family="Helvetica,sans-Serif" font-size="10.00">boca::Vector2&lt; AngleSquare &gt;</text>
</a>
</g>
</g>
<!-- Node9&#45;&gt;Node8 -->
<g id="edge8" class="edge"><title>Node9&#45;&gt;Node8</title>
<path fill="none" stroke="#9a32cd" stroke-dasharray="5,2" d="M171.116,-137.377C166.771,-130.837 163.991,-123.186 167,-116 169.919,-109.028 175.144,-102.794 180.587,-97.6963"/>
<polygon fill="#9a32cd" stroke="#9a32cd" points="168.619,-139.857 177.613,-145.456 174.074,-135.47 168.619,-139.857"/>
<text text-anchor="middle" x="189" y="-119" font-family="Helvetica,sans-Serif" font-size="10.00"> member_</text>
</g>
<!-- Node10 -->
<g id="node10" class="node"><title>Node10</title>
<g id="a_node10"><a xlink:href="../../d6/dfb/classboca_1_1Vector2.html" target="_top" xlink:title="Copy of root::TVector2 in order to get rid of TObject. ">
<polygon fill="white" stroke="black" points="127,-212.5 127,-231.5 247,-231.5 247,-212.5 127,-212.5"/>
<text text-anchor="middle" x="187" y="-219.5" font-family="Helvetica,sans-Serif" font-size="10.00">boca::Vector2&lt; Value &gt;</text>
</a>
</g>
</g>
<!-- Node10&#45;&gt;Node9 -->
<g id="edge9" class="edge"><title>Node10&#45;&gt;Node9</title>
<path fill="none" stroke="orange" stroke-dasharray="5,2" d="M187,-202.037C187,-189.67 187,-174.12 187,-164.627"/>
<polygon fill="orange" stroke="orange" points="183.5,-202.234 187,-212.234 190.5,-202.234 183.5,-202.234"/>
<text text-anchor="middle" x="225.5" y="-186" font-family="Helvetica,sans-Serif" font-size="10.00"> &lt; AngleSquare &gt;</text>
</g>
<!-- Node11 -->
<g id="node11" class="node"><title>Node11</title>
<polygon fill="white" stroke="#bfbfbf" points="166.5,-290.5 166.5,-309.5 207.5,-309.5 207.5,-290.5 166.5,-290.5"/>
<text text-anchor="middle" x="187" y="-297.5" font-family="Helvetica,sans-Serif" font-size="10.00">Value</text>
</g>
<!-- Node11&#45;&gt;Node10 -->
<g id="edge10" class="edge"><title>Node11&#45;&gt;Node10</title>
<path fill="none" stroke="#9a32cd" stroke-dasharray="5,2" d="M187,-280.224C187,-264.697 187,-243.358 187,-231.616"/>
<polygon fill="#9a32cd" stroke="#9a32cd" points="183.5,-280.282 187,-290.282 190.5,-280.282 183.5,-280.282"/>
<text text-anchor="middle" x="194" y="-264" font-family="Helvetica,sans-Serif" font-size="10.00"> y_</text>
<text text-anchor="middle" x="194" y="-253" font-family="Helvetica,sans-Serif" font-size="10.00">x_</text>
</g>
</g>
</svg>
