<?xml version="1.0" encoding="UTF-8" standalone="no"?>
<!DOCTYPE svg PUBLIC "-//W3C//DTD SVG 1.1//EN"
 "http://www.w3.org/Graphics/SVG/1.1/DTD/svg11.dtd">
<!-- Generated by graphviz version 2.38.0 (20140413.2041)
 -->
<!-- Title: include/JetInfoFamily.hh Pages: 1 -->
<svg width="1770pt" height="431pt"
 viewBox="0.00 0.00 1769.50 431.00" xmlns="http://www.w3.org/2000/svg" xmlns:xlink="http://www.w3.org/1999/xlink">
<g id="graph0" class="graph" transform="scale(1 1) rotate(0) translate(4 427)">
<title>include/JetInfoFamily.hh</title>
<polygon fill="white" stroke="none" points="-4,4 -4,-427 1765.5,-427 1765.5,4 -4,4"/>
<!-- Node1 -->
<g id="node1" class="node"><title>Node1</title>
<polygon fill="#bfbfbf" stroke="black" points="983.5,-403.5 983.5,-422.5 1106.5,-422.5 1106.5,-403.5 983.5,-403.5"/>
<text text-anchor="middle" x="1045" y="-410.5" font-family="Helvetica,sans-Serif" font-size="10.00">include/JetInfoFamily.hh</text>
</g>
<!-- Node2 -->
<g id="node2" class="node"><title>Node2</title>
<polygon fill="white" stroke="#bfbfbf" points="167.5,-235.5 167.5,-254.5 202.5,-254.5 202.5,-235.5 167.5,-235.5"/>
<text text-anchor="middle" x="185" y="-242.5" font-family="Helvetica,sans-Serif" font-size="10.00">map</text>
</g>
<!-- Node1&#45;&gt;Node2 -->
<g id="edge1" class="edge"><title>Node1&#45;&gt;Node2</title>
<path fill="none" stroke="midnightblue" d="M983.391,-411.126C856.555,-407.665 558.492,-390.917 324,-311 282.271,-296.778 236.406,-273.781 209.191,-259.297"/>
<polygon fill="midnightblue" stroke="midnightblue" points="210.845,-256.212 200.38,-254.557 207.529,-262.377 210.845,-256.212"/>
</g>
<!-- Node3 -->
<g id="node3" class="node"><title>Node3</title>
<polygon fill="white" stroke="#bfbfbf" points="1111.5,-347.5 1111.5,-366.5 1194.5,-366.5 1194.5,-347.5 1111.5,-347.5"/>
<text text-anchor="middle" x="1153" y="-354.5" font-family="Helvetica,sans-Serif" font-size="10.00">unordered_map</text>
</g>
<!-- Node1&#45;&gt;Node3 -->
<g id="edge2" class="edge"><title>Node1&#45;&gt;Node3</title>
<path fill="none" stroke="midnightblue" d="M1062.35,-403.324C1079.67,-394.664 1106.52,-381.242 1126.5,-371.249"/>
<polygon fill="midnightblue" stroke="midnightblue" points="1128.31,-374.257 1135.69,-366.655 1125.18,-367.996 1128.31,-374.257"/>
</g>
<!-- Node4 -->
<g id="node4" class="node"><title>Node4</title>
<polygon fill="white" stroke="#bfbfbf" points="333.5,-291.5 333.5,-310.5 440.5,-310.5 440.5,-291.5 333.5,-291.5"/>
<text text-anchor="middle" x="387" y="-298.5" font-family="Helvetica,sans-Serif" font-size="10.00">fastjet/PseudoJet.hh</text>
</g>
<!-- Node1&#45;&gt;Node4 -->
<g id="edge3" class="edge"><title>Node1&#45;&gt;Node4</title>
<path fill="none" stroke="midnightblue" d="M983.339,-406.464C909.492,-399.386 782.197,-385.764 674,-367 586.57,-351.838 485.664,-327.329 429.815,-313.135"/>
<polygon fill="midnightblue" stroke="midnightblue" points="430.479,-309.693 419.924,-310.61 428.747,-316.475 430.479,-309.693"/>
</g>
<!-- Node5 -->
<g id="node5" class="node"><title>Node5</title>
<polygon fill="white" stroke="#bfbfbf" points="1212.5,-347.5 1212.5,-366.5 1327.5,-366.5 1327.5,-347.5 1212.5,-347.5"/>
<text text-anchor="middle" x="1270" y="-354.5" font-family="Helvetica,sans-Serif" font-size="10.00">fastjet/JetDefinition.hh</text>
</g>
<!-- Node1&#45;&gt;Node5 -->
<g id="edge4" class="edge"><title>Node1&#45;&gt;Node5</title>
<path fill="none" stroke="midnightblue" d="M1080.65,-403.444C1119.66,-394.083 1182.27,-379.056 1224.72,-368.868"/>
<polygon fill="midnightblue" stroke="midnightblue" points="1225.61,-372.254 1234.51,-366.516 1223.97,-365.447 1225.61,-372.254"/>
</g>
<!-- Node6 -->
<g id="node6" class="node"><title>Node6</title>
<g id="a_node6"><a xlink:href="../../d8/d85/Identification_8hh.html" target="_top" xlink:title="Identification.hh">
<polygon fill="white" stroke="black" points="992,-123.5 992,-142.5 1078,-142.5 1078,-123.5 992,-123.5"/>
<text text-anchor="middle" x="1035" y="-130.5" font-family="Helvetica,sans-Serif" font-size="10.00">Identification.hh</text>
</a>
</g>
</g>
<!-- Node1&#45;&gt;Node6 -->
<g id="edge5" class="edge"><title>Node1&#45;&gt;Node6</title>
<path fill="none" stroke="midnightblue" d="M1045,-403.442C1045,-384.936 1045,-339.812 1045,-302 1045,-302 1045,-302 1045,-244 1045,-211.816 1040.7,-174.552 1037.74,-152.702"/>
<polygon fill="midnightblue" stroke="midnightblue" points="1041.17,-151.947 1036.31,-142.534 1034.24,-152.925 1041.17,-151.947"/>
</g>
<!-- Node8 -->
<g id="node8" class="node"><title>Node8</title>
<g id="a_node8"><a xlink:href="../../d3/d32/Constituent_8hh.html" target="_top" xlink:title="Constituent.hh">
<polygon fill="white" stroke="black" points="1092,-179.5 1092,-198.5 1172,-198.5 1172,-179.5 1092,-179.5"/>
<text text-anchor="middle" x="1132" y="-186.5" font-family="Helvetica,sans-Serif" font-size="10.00">Constituent.hh</text>
</a>
</g>
</g>
<!-- Node1&#45;&gt;Node8 -->
<g id="edge7" class="edge"><title>Node1&#45;&gt;Node8</title>
<path fill="none" stroke="midnightblue" d="M1048.41,-403.297C1061.27,-370.494 1106.96,-253.884 1124.8,-208.377"/>
<polygon fill="midnightblue" stroke="midnightblue" points="1128.13,-209.471 1128.52,-198.884 1121.61,-206.917 1128.13,-209.471"/>
</g>
<!-- Node11 -->
<g id="node11" class="node"><title>Node11</title>
<g id="a_node11"><a xlink:href="../../df/dbc/FourVector_8hh.html" target="_top" xlink:title="FourVector.hh">
<polygon fill="white" stroke="black" points="683,-347.5 683,-366.5 761,-366.5 761,-347.5 683,-347.5"/>
<text text-anchor="middle" x="722" y="-354.5" font-family="Helvetica,sans-Serif" font-size="10.00">FourVector.hh</text>
</a>
</g>
</g>
<!-- Node1&#45;&gt;Node11 -->
<g id="edge10" class="edge"><title>Node1&#45;&gt;Node11</title>
<path fill="none" stroke="midnightblue" d="M993.82,-403.444C932.779,-393.239 831.461,-376.3 771.274,-366.238"/>
<polygon fill="midnightblue" stroke="midnightblue" points="771.697,-362.76 761.257,-364.563 770.543,-369.664 771.697,-362.76"/>
</g>
<!-- Node7 -->
<g id="node7" class="node"><title>Node7</title>
<polygon fill="white" stroke="#bfbfbf" points="999.5,-67.5 999.5,-86.5 1040.5,-86.5 1040.5,-67.5 999.5,-67.5"/>
<text text-anchor="middle" x="1020" y="-74.5" font-family="Helvetica,sans-Serif" font-size="10.00">string</text>
</g>
<!-- Node6&#45;&gt;Node7 -->
<g id="edge6" class="edge"><title>Node6&#45;&gt;Node7</title>
<path fill="none" stroke="midnightblue" d="M1032.52,-123.083C1030.51,-115.849 1027.61,-105.409 1025.11,-96.3968"/>
<polygon fill="midnightblue" stroke="midnightblue" points="1028.48,-95.4495 1022.43,-86.7511 1021.74,-97.323 1028.48,-95.4495"/>
</g>
<!-- Node9 -->
<g id="node9" class="node"><title>Node9</title>
<g id="a_node9"><a xlink:href="../../d6/dc8/LorentzVector_8hh.html" target="_top" xlink:title="LorentzVector.hh">
<polygon fill="white" stroke="black" points="1096.5,-123.5 1096.5,-142.5 1187.5,-142.5 1187.5,-123.5 1096.5,-123.5"/>
<text text-anchor="middle" x="1142" y="-130.5" font-family="Helvetica,sans-Serif" font-size="10.00">LorentzVector.hh</text>
</a>
</g>
</g>
<!-- Node8&#45;&gt;Node9 -->
<g id="edge8" class="edge"><title>Node8&#45;&gt;Node9</title>
<path fill="none" stroke="midnightblue" d="M1133.65,-179.083C1134.98,-171.927 1136.88,-161.635 1138.54,-152.691"/>
<polygon fill="midnightblue" stroke="midnightblue" points="1142,-153.221 1140.38,-142.751 1135.12,-151.947 1142,-153.221"/>
</g>
<!-- Node10 -->
<g id="node10" class="node"><title>Node10</title>
<g id="a_node10"><a xlink:href="../../d1/df9/Vector3_8hh.html" target="_top" xlink:title="Vector3.hh">
<polygon fill="white" stroke="black" points="1110,-67.5 1110,-86.5 1174,-86.5 1174,-67.5 1110,-67.5"/>
<text text-anchor="middle" x="1142" y="-74.5" font-family="Helvetica,sans-Serif" font-size="10.00">Vector3.hh</text>
</a>
</g>
</g>
<!-- Node9&#45;&gt;Node10 -->
<g id="edge9" class="edge"><title>Node9&#45;&gt;Node10</title>
<path fill="none" stroke="midnightblue" d="M1142,-123.083C1142,-116.006 1142,-105.861 1142,-96.9865"/>
<polygon fill="midnightblue" stroke="midnightblue" points="1145.5,-96.751 1142,-86.7511 1138.5,-96.7511 1145.5,-96.751"/>
</g>
<!-- Node11&#45;&gt;Node4 -->
<g id="edge13" class="edge"><title>Node11&#45;&gt;Node4</title>
<path fill="none" stroke="midnightblue" d="M682.916,-349.7C625.703,-340.477 518.535,-323.203 450.079,-312.168"/>
<polygon fill="midnightblue" stroke="midnightblue" points="450.284,-308.656 439.854,-310.52 449.17,-315.567 450.284,-308.656"/>
</g>
<!-- Node12 -->
<g id="node12" class="node"><title>Node12</title>
<polygon fill="white" stroke="#bfbfbf" points="765,-291.5 765,-310.5 815,-310.5 815,-291.5 765,-291.5"/>
<text text-anchor="middle" x="790" y="-298.5" font-family="Helvetica,sans-Serif" font-size="10.00">iomanip</text>
</g>
<!-- Node11&#45;&gt;Node12 -->
<g id="edge11" class="edge"><title>Node11&#45;&gt;Node12</title>
<path fill="none" stroke="midnightblue" d="M732.925,-347.324C743.175,-339.185 758.721,-326.839 771.001,-317.087"/>
<polygon fill="midnightblue" stroke="midnightblue" points="773.221,-319.794 778.876,-310.834 768.868,-314.312 773.221,-319.794"/>
</g>
<!-- Node13 -->
<g id="node13" class="node"><title>Node13</title>
<polygon fill="white" stroke="#bfbfbf" points="221,-235.5 221,-254.5 275,-254.5 275,-235.5 221,-235.5"/>
<text text-anchor="middle" x="248" y="-242.5" font-family="Helvetica,sans-Serif" font-size="10.00">iostream</text>
</g>
<!-- Node11&#45;&gt;Node13 -->
<g id="edge12" class="edge"><title>Node11&#45;&gt;Node13</title>
<path fill="none" stroke="midnightblue" d="M682.613,-351.885C635.383,-346.169 554.294,-333.85 488,-311 469.584,-304.652 467.318,-297.626 449,-291 393.627,-270.972 326.327,-258.091 285.353,-251.449"/>
<polygon fill="midnightblue" stroke="midnightblue" points="285.701,-247.96 275.277,-249.855 284.608,-254.874 285.701,-247.96"/>
</g>
<!-- Node14 -->
<g id="node14" class="node"><title>Node14</title>
<g id="a_node14"><a xlink:href="../../d8/dff/JetTag_8hh.html" target="_top" xlink:title="JetTag.hh">
<polygon fill="white" stroke="black" points="894,-291.5 894,-310.5 954,-310.5 954,-291.5 894,-291.5"/>
<text text-anchor="middle" x="924" y="-298.5" font-family="Helvetica,sans-Serif" font-size="10.00">JetTag.hh</text>
</a>
</g>
</g>
<!-- Node11&#45;&gt;Node14 -->
<g id="edge14" class="edge"><title>Node11&#45;&gt;Node14</title>
<path fill="none" stroke="midnightblue" d="M754.008,-347.444C789.239,-338.025 845.926,-322.871 884.046,-312.681"/>
<polygon fill="midnightblue" stroke="midnightblue" points="885.035,-316.039 893.792,-310.075 883.227,-309.277 885.035,-316.039"/>
</g>
<!-- Node35 -->
<g id="node35" class="node"><title>Node35</title>
<g id="a_node35"><a xlink:href="../../d0/d5f/Flag_8hh.html" target="_top" xlink:title="Flag.hh">
<polygon fill="white" stroke="black" points="697.5,-291.5 697.5,-310.5 746.5,-310.5 746.5,-291.5 697.5,-291.5"/>
<text text-anchor="middle" x="722" y="-298.5" font-family="Helvetica,sans-Serif" font-size="10.00">Flag.hh</text>
</a>
</g>
</g>
<!-- Node11&#45;&gt;Node35 -->
<g id="edge37" class="edge"><title>Node11&#45;&gt;Node35</title>
<path fill="none" stroke="midnightblue" d="M722,-347.083C722,-340.006 722,-329.861 722,-320.986"/>
<polygon fill="midnightblue" stroke="midnightblue" points="725.5,-320.751 722,-310.751 718.5,-320.751 725.5,-320.751"/>
</g>
<!-- Node37 -->
<g id="node37" class="node"><title>Node37</title>
<g id="a_node37"><a xlink:href="../../d6/d74/TreeReader_8hh.html" target="_top" xlink:title="TreeReader.hh">
<polygon fill="white" stroke="black" points="497.5,-291.5 497.5,-310.5 578.5,-310.5 578.5,-291.5 497.5,-291.5"/>
<text text-anchor="middle" x="538" y="-298.5" font-family="Helvetica,sans-Serif" font-size="10.00">TreeReader.hh</text>
</a>
</g>
</g>
<!-- Node11&#45;&gt;Node37 -->
<g id="edge39" class="edge"><title>Node11&#45;&gt;Node37</title>
<path fill="none" stroke="midnightblue" d="M692.845,-347.444C661.487,-338.241 611.469,-323.562 576.803,-313.388"/>
<polygon fill="midnightblue" stroke="midnightblue" points="577.6,-309.974 567.019,-310.516 575.629,-316.691 577.6,-309.974"/>
</g>
<!-- Node15 -->
<g id="node15" class="node"><title>Node15</title>
<polygon fill="white" stroke="#bfbfbf" points="909,-235.5 909,-254.5 939,-254.5 939,-235.5 909,-235.5"/>
<text text-anchor="middle" x="924" y="-242.5" font-family="Helvetica,sans-Serif" font-size="10.00">set</text>
</g>
<!-- Node14&#45;&gt;Node15 -->
<g id="edge15" class="edge"><title>Node14&#45;&gt;Node15</title>
<path fill="none" stroke="midnightblue" d="M924,-291.083C924,-284.006 924,-273.861 924,-264.986"/>
<polygon fill="midnightblue" stroke="midnightblue" points="927.5,-264.751 924,-254.751 920.5,-264.751 927.5,-264.751"/>
</g>
<!-- Node16 -->
<g id="node16" class="node"><title>Node16</title>
<g id="a_node16"><a xlink:href="../../d0/d9c/Family_8hh.html" target="_top" xlink:title="Family.hh">
<polygon fill="white" stroke="black" points="957.5,-235.5 957.5,-254.5 1016.5,-254.5 1016.5,-235.5 957.5,-235.5"/>
<text text-anchor="middle" x="987" y="-242.5" font-family="Helvetica,sans-Serif" font-size="10.00">Family.hh</text>
</a>
</g>
</g>
<!-- Node14&#45;&gt;Node16 -->
<g id="edge16" class="edge"><title>Node14&#45;&gt;Node16</title>
<path fill="none" stroke="midnightblue" d="M934.122,-291.324C943.526,-283.263 957.744,-271.077 969.069,-261.369"/>
<polygon fill="midnightblue" stroke="midnightblue" points="971.379,-263.999 976.694,-254.834 966.823,-258.684 971.379,-263.999"/>
</g>
<!-- Node17 -->
<g id="node17" class="node"><title>Node17</title>
<polygon fill="white" stroke="#bfbfbf" points="548,-179.5 548,-198.5 592,-198.5 592,-179.5 548,-179.5"/>
<text text-anchor="middle" x="570" y="-186.5" font-family="Helvetica,sans-Serif" font-size="10.00">vector</text>
</g>
<!-- Node16&#45;&gt;Node17 -->
<g id="edge17" class="edge"><title>Node16&#45;&gt;Node17</title>
<path fill="none" stroke="midnightblue" d="M957.257,-236.787C954.141,-236.136 951.012,-235.525 948,-235 820.954,-212.846 667.961,-198.319 602.395,-192.665"/>
<polygon fill="midnightblue" stroke="midnightblue" points="602.538,-189.164 592.277,-191.803 601.944,-196.139 602.538,-189.164"/>
</g>
<!-- Node18 -->
<g id="node18" class="node"><title>Node18</title>
<polygon fill="white" stroke="#bfbfbf" points="876.5,-179.5 876.5,-198.5 935.5,-198.5 935.5,-179.5 876.5,-179.5"/>
<text text-anchor="middle" x="906" y="-186.5" font-family="Helvetica,sans-Serif" font-size="10.00">functional</text>
</g>
<!-- Node16&#45;&gt;Node18 -->
<g id="edge18" class="edge"><title>Node16&#45;&gt;Node18</title>
<path fill="none" stroke="midnightblue" d="M973.986,-235.324C961.468,-226.979 942.318,-214.212 927.529,-204.352"/>
<polygon fill="midnightblue" stroke="midnightblue" points="929.244,-201.289 918.982,-198.655 925.361,-207.114 929.244,-201.289"/>
</g>
<!-- Node19 -->
<g id="node19" class="node"><title>Node19</title>
<g id="a_node19"><a xlink:href="../../dd/df5/Particle_8hh.html" target="_top" xlink:title="Particle.hh">
<polygon fill="white" stroke="black" points="953.5,-179.5 953.5,-198.5 1016.5,-198.5 1016.5,-179.5 953.5,-179.5"/>
<text text-anchor="middle" x="985" y="-186.5" font-family="Helvetica,sans-Serif" font-size="10.00">Particle.hh</text>
</a>
</g>
</g>
<!-- Node16&#45;&gt;Node19 -->
<g id="edge19" class="edge"><title>Node16&#45;&gt;Node19</title>
<path fill="none" stroke="midnightblue" d="M986.67,-235.083C986.408,-228.006 986.032,-217.861 985.703,-208.986"/>
<polygon fill="midnightblue" stroke="midnightblue" points="989.192,-208.615 985.324,-198.751 982.197,-208.874 989.192,-208.615"/>
</g>
<!-- Node19&#45;&gt;Node9 -->
<g id="edge36" class="edge"><title>Node19&#45;&gt;Node9</title>
<path fill="none" stroke="midnightblue" d="M1009.88,-179.444C1036.29,-170.359 1078.22,-155.939 1107.74,-145.783"/>
<polygon fill="midnightblue" stroke="midnightblue" points="1108.92,-149.079 1117.24,-142.516 1106.64,-142.459 1108.92,-149.079"/>
</g>
<!-- Node20 -->
<g id="node20" class="node"><title>Node20</title>
<g id="a_node20"><a xlink:href="../../db/da5/Particles_8hh.html" target="_top" xlink:title="Particles.hh">
<polygon fill="white" stroke="black" points="906,-123.5 906,-142.5 974,-142.5 974,-123.5 906,-123.5"/>
<text text-anchor="middle" x="940" y="-130.5" font-family="Helvetica,sans-Serif" font-size="10.00">Particles.hh</text>
</a>
</g>
</g>
<!-- Node19&#45;&gt;Node20 -->
<g id="edge20" class="edge"><title>Node19&#45;&gt;Node20</title>
<path fill="none" stroke="midnightblue" d="M977.569,-179.083C971.147,-171.377 961.694,-160.033 953.878,-150.653"/>
<polygon fill="midnightblue" stroke="midnightblue" points="956.383,-148.193 947.293,-142.751 951.006,-152.674 956.383,-148.193"/>
</g>
<!-- Node20&#45;&gt;Node7 -->
<g id="edge21" class="edge"><title>Node20&#45;&gt;Node7</title>
<path fill="none" stroke="midnightblue" d="M952.853,-123.324C965.216,-114.979 984.13,-102.212 998.737,-92.3524"/>
<polygon fill="midnightblue" stroke="midnightblue" points="1000.85,-95.1503 1007.18,-86.6545 996.932,-89.3483 1000.85,-95.1503"/>
</g>
<!-- Node21 -->
<g id="node21" class="node"><title>Node21</title>
<g id="a_node21"><a xlink:href="../../dc/d45/Units_8hh.html" target="_top" xlink:title="Units.hh">
<polygon fill="white" stroke="black" points="913.5,-67.5 913.5,-86.5 966.5,-86.5 966.5,-67.5 913.5,-67.5"/>
<text text-anchor="middle" x="940" y="-74.5" font-family="Helvetica,sans-Serif" font-size="10.00">Units.hh</text>
</a>
</g>
</g>
<!-- Node20&#45;&gt;Node21 -->
<g id="edge22" class="edge"><title>Node20&#45;&gt;Node21</title>
<path fill="none" stroke="midnightblue" d="M940,-123.083C940,-116.006 940,-105.861 940,-96.9865"/>
<polygon fill="midnightblue" stroke="midnightblue" points="943.5,-96.751 940,-86.7511 936.5,-96.7511 943.5,-96.751"/>
</g>
<!-- Node22 -->
<g id="node22" class="node"><title>Node22</title>
<polygon fill="white" stroke="#bfbfbf" points="0,-6 0,-25 110,-25 110,-6 0,-6"/>
<text text-anchor="middle" x="55" y="-13" font-family="Helvetica,sans-Serif" font-size="10.00">boost/units/scale.hpp</text>
</g>
<!-- Node21&#45;&gt;Node22 -->
<g id="edge23" class="edge"><title>Node21&#45;&gt;Node22</title>
<path fill="none" stroke="midnightblue" d="M913.264,-76.1609C810.197,-76.4379 428.967,-74.2952 119,-31 112.101,-30.0364 104.847,-28.706 97.8013,-27.239"/>
<polygon fill="midnightblue" stroke="midnightblue" points="98.2104,-23.7455 87.6923,-25.0187 96.7086,-30.5825 98.2104,-23.7455"/>
</g>
<!-- Node23 -->
<g id="node23" class="node"><title>Node23</title>
<polygon fill="white" stroke="#bfbfbf" points="128.5,-0.5 128.5,-30.5 253.5,-30.5 253.5,-0.5 128.5,-0.5"/>
<text text-anchor="start" x="136.5" y="-18.5" font-family="Helvetica,sans-Serif" font-size="10.00">boost/units/make_scaled</text>
<text text-anchor="middle" x="191" y="-7.5" font-family="Helvetica,sans-Serif" font-size="10.00">_unit.hpp</text>
</g>
<!-- Node21&#45;&gt;Node23 -->
<g id="edge24" class="edge"><title>Node21&#45;&gt;Node23</title>
<path fill="none" stroke="midnightblue" d="M913.379,-75.5251C823.321,-73.6476 521.736,-65.1491 263.578,-31.0975"/>
<polygon fill="midnightblue" stroke="midnightblue" points="264.017,-27.6251 253.642,-29.7712 263.091,-34.5636 264.017,-27.6251"/>
</g>
<!-- Node24 -->
<g id="node24" class="node"><title>Node24</title>
<polygon fill="white" stroke="#bfbfbf" points="271.5,-6 271.5,-25 384.5,-25 384.5,-6 271.5,-6"/>
<text text-anchor="middle" x="328" y="-13" font-family="Helvetica,sans-Serif" font-size="10.00">boost/units/config.hpp</text>
</g>
<!-- Node21&#45;&gt;Node24 -->
<g id="edge25" class="edge"><title>Node21&#45;&gt;Node24</title>
<path fill="none" stroke="midnightblue" d="M913.38,-75.1065C833.903,-72.1615 591.537,-61.1649 393,-31 386.241,-29.9731 379.138,-28.6472 372.208,-27.215"/>
<polygon fill="midnightblue" stroke="midnightblue" points="372.756,-23.7525 362.242,-25.0632 371.278,-30.5949 372.756,-23.7525"/>
</g>
<!-- Node25 -->
<g id="node25" class="node"><title>Node25</title>
<polygon fill="white" stroke="#bfbfbf" points="402.5,-6 402.5,-25 559.5,-25 559.5,-6 402.5,-6"/>
<text text-anchor="middle" x="481" y="-13" font-family="Helvetica,sans-Serif" font-size="10.00">boost/units/base_dimension.hpp</text>
</g>
<!-- Node21&#45;&gt;Node25 -->
<g id="edge26" class="edge"><title>Node21&#45;&gt;Node25</title>
<path fill="none" stroke="midnightblue" d="M913.407,-73.168C852.412,-66.5863 697.779,-49.4111 569,-31 559.882,-29.6965 550.251,-28.2158 540.836,-26.7108"/>
<polygon fill="midnightblue" stroke="midnightblue" points="541.171,-23.2195 530.74,-25.0753 540.051,-30.1294 541.171,-23.2195"/>
</g>
<!-- Node26 -->
<g id="node26" class="node"><title>Node26</title>
<polygon fill="white" stroke="#bfbfbf" points="578,-6 578,-25 706,-25 706,-6 578,-6"/>
<text text-anchor="middle" x="642" y="-13" font-family="Helvetica,sans-Serif" font-size="10.00">boost/units/base_unit.hpp</text>
</g>
<!-- Node21&#45;&gt;Node26 -->
<g id="edge27" class="edge"><title>Node21&#45;&gt;Node26</title>
<path fill="none" stroke="midnightblue" d="M913.292,-70.6674C864.135,-60.8525 758.52,-39.7648 694.534,-26.9891"/>
<polygon fill="midnightblue" stroke="midnightblue" points="695.129,-23.5389 684.637,-25.0131 693.758,-30.4034 695.129,-23.5389"/>
</g>
<!-- Node27 -->
<g id="node27" class="node"><title>Node27</title>
<polygon fill="white" stroke="#bfbfbf" points="724,-6 724,-25 872,-25 872,-6 724,-6"/>
<text text-anchor="middle" x="798" y="-13" font-family="Helvetica,sans-Serif" font-size="10.00">boost/units/make_system.hpp</text>
</g>
<!-- Node21&#45;&gt;Node27 -->
<g id="edge28" class="edge"><title>Node21&#45;&gt;Node27</title>
<path fill="none" stroke="midnightblue" d="M919.655,-67.4751C895.613,-57.4013 855.403,-40.5525 827.837,-29.0023"/>
<polygon fill="midnightblue" stroke="midnightblue" points="828.883,-25.6457 818.307,-25.0091 826.178,-32.1018 828.883,-25.6457"/>
</g>
<!-- Node28 -->
<g id="node28" class="node"><title>Node28</title>
<polygon fill="white" stroke="#bfbfbf" points="890.5,-0.5 890.5,-30.5 989.5,-30.5 989.5,-0.5 890.5,-0.5"/>
<text text-anchor="start" x="898.5" y="-18.5" font-family="Helvetica,sans-Serif" font-size="10.00">boost/units/derived</text>
<text text-anchor="middle" x="940" y="-7.5" font-family="Helvetica,sans-Serif" font-size="10.00">_dimension.hpp</text>
</g>
<!-- Node21&#45;&gt;Node28 -->
<g id="edge29" class="edge"><title>Node21&#45;&gt;Node28</title>
<path fill="none" stroke="midnightblue" d="M940,-67.4751C940,-60.471 940,-50.1919 940,-40.6956"/>
<polygon fill="midnightblue" stroke="midnightblue" points="943.5,-40.5229 940,-30.523 936.5,-40.523 943.5,-40.5229"/>
</g>
<!-- Node29 -->
<g id="node29" class="node"><title>Node29</title>
<polygon fill="white" stroke="#bfbfbf" points="1007.5,-6 1007.5,-25 1128.5,-25 1128.5,-6 1007.5,-6"/>
<text text-anchor="middle" x="1068" y="-13" font-family="Helvetica,sans-Serif" font-size="10.00">boost/units/quantity.hpp</text>
</g>
<!-- Node21&#45;&gt;Node29 -->
<g id="edge30" class="edge"><title>Node21&#45;&gt;Node29</title>
<path fill="none" stroke="midnightblue" d="M958.339,-67.4751C979.821,-57.4897 1015.62,-40.8476 1040.45,-29.3075"/>
<polygon fill="midnightblue" stroke="midnightblue" points="1042.1,-32.3983 1049.69,-25.0091 1039.15,-26.0506 1042.1,-32.3983"/>
</g>
<!-- Node30 -->
<g id="node30" class="node"><title>Node30</title>
<polygon fill="white" stroke="#bfbfbf" points="1146.5,-0.5 1146.5,-30.5 1261.5,-30.5 1261.5,-0.5 1146.5,-0.5"/>
<text text-anchor="start" x="1154.5" y="-18.5" font-family="Helvetica,sans-Serif" font-size="10.00">boost/units/base_units</text>
<text text-anchor="middle" x="1204" y="-7.5" font-family="Helvetica,sans-Serif" font-size="10.00">/metric/barn.hpp</text>
</g>
<!-- Node21&#45;&gt;Node30 -->
<g id="edge31" class="edge"><title>Node21&#45;&gt;Node30</title>
<path fill="none" stroke="midnightblue" d="M966.767,-69.9674C1006.19,-61.0811 1081.17,-44.1834 1136.32,-31.7538"/>
<polygon fill="midnightblue" stroke="midnightblue" points="1137.39,-35.1009 1146.37,-29.4879 1135.85,-28.2722 1137.39,-35.1009"/>
</g>
<!-- Node31 -->
<g id="node31" class="node"><title>Node31</title>
<polygon fill="white" stroke="#bfbfbf" points="1279.5,-6 1279.5,-25 1392.5,-25 1392.5,-6 1279.5,-6"/>
<text text-anchor="middle" x="1336" y="-13" font-family="Helvetica,sans-Serif" font-size="10.00">boost/units/cmath.hpp</text>
</g>
<!-- Node21&#45;&gt;Node31 -->
<g id="edge32" class="edge"><title>Node21&#45;&gt;Node31</title>
<path fill="none" stroke="midnightblue" d="M966.695,-71.0465C974.515,-69.661 983.089,-68.2059 991,-67 1115.04,-48.0925 1147.42,-52.6816 1271,-31 1277.28,-29.8986 1283.87,-28.5992 1290.34,-27.2382"/>
<polygon fill="midnightblue" stroke="midnightblue" points="1291.32,-30.606 1300.36,-25.0682 1289.84,-23.7646 1291.32,-30.606"/>
</g>
<!-- Node32 -->
<g id="node32" class="node"><title>Node32</title>
<polygon fill="white" stroke="#bfbfbf" points="1410.5,-0.5 1410.5,-30.5 1515.5,-30.5 1515.5,-0.5 1410.5,-0.5"/>
<text text-anchor="start" x="1418.5" y="-18.5" font-family="Helvetica,sans-Serif" font-size="10.00">boost/units/systems</text>
<text text-anchor="middle" x="1463" y="-7.5" font-family="Helvetica,sans-Serif" font-size="10.00">/si/io.hpp</text>
</g>
<!-- Node21&#45;&gt;Node32 -->
<g id="edge33" class="edge"><title>Node21&#45;&gt;Node32</title>
<path fill="none" stroke="midnightblue" d="M966.665,-70.8416C974.485,-69.4517 983.067,-68.0454 991,-67 1169.51,-43.4768 1219.2,-59.6713 1400.08,-31.1698"/>
<polygon fill="midnightblue" stroke="midnightblue" points="1400.87,-34.5869 1410.19,-29.5507 1399.77,-27.6748 1400.87,-34.5869"/>
</g>
<!-- Node33 -->
<g id="node33" class="node"><title>Node33</title>
<polygon fill="white" stroke="#bfbfbf" points="1533.5,-0.5 1533.5,-30.5 1638.5,-30.5 1638.5,-0.5 1533.5,-0.5"/>
<text text-anchor="start" x="1541.5" y="-18.5" font-family="Helvetica,sans-Serif" font-size="10.00">boost/units/systems</text>
<text text-anchor="middle" x="1586" y="-7.5" font-family="Helvetica,sans-Serif" font-size="10.00">/si/plane_angle.hpp</text>
</g>
<!-- Node21&#45;&gt;Node33 -->
<g id="edge34" class="edge"><title>Node21&#45;&gt;Node33</title>
<path fill="none" stroke="midnightblue" d="M966.653,-70.74C974.472,-69.3479 983.057,-67.9658 991,-67 1223.79,-38.6959 1288,-65.8369 1522.97,-31.1498"/>
<polygon fill="midnightblue" stroke="midnightblue" points="1523.83,-34.56 1533.2,-29.6165 1522.8,-27.6373 1523.83,-34.56"/>
</g>
<!-- Node34 -->
<g id="node34" class="node"><title>Node34</title>
<polygon fill="white" stroke="#bfbfbf" points="1656.5,-0.5 1656.5,-30.5 1761.5,-30.5 1761.5,-0.5 1656.5,-0.5"/>
<text text-anchor="start" x="1664.5" y="-18.5" font-family="Helvetica,sans-Serif" font-size="10.00">boost/units/systems</text>
<text text-anchor="middle" x="1709" y="-7.5" font-family="Helvetica,sans-Serif" font-size="10.00">/si/length.hpp</text>
</g>
<!-- Node21&#45;&gt;Node34 -->
<g id="edge35" class="edge"><title>Node21&#45;&gt;Node34</title>
<path fill="none" stroke="midnightblue" d="M966.645,-70.6762C974.464,-69.2827 983.051,-67.9159 991,-67 1278.25,-33.905 1356.83,-72.1052 1646.27,-31.0864"/>
<polygon fill="midnightblue" stroke="midnightblue" points="1646.81,-34.5443 1656.21,-29.6579 1645.81,-27.6155 1646.81,-34.5443"/>
</g>
<!-- Node36 -->
<g id="node36" class="node"><title>Node36</title>
<polygon fill="white" stroke="#bfbfbf" points="829,-235.5 829,-254.5 891,-254.5 891,-235.5 829,-235.5"/>
<text text-anchor="middle" x="860" y="-242.5" font-family="Helvetica,sans-Serif" font-size="10.00">type_traits</text>
</g>
<!-- Node35&#45;&gt;Node36 -->
<g id="edge38" class="edge"><title>Node35&#45;&gt;Node36</title>
<path fill="none" stroke="midnightblue" d="M743.867,-291.444C766.779,-282.478 802.975,-268.314 828.866,-258.183"/>
<polygon fill="midnightblue" stroke="midnightblue" points="830.199,-261.42 838.236,-254.516 827.648,-254.901 830.199,-261.42"/>
</g>
<!-- Node37&#45;&gt;Node2 -->
<g id="edge43" class="edge"><title>Node37&#45;&gt;Node2</title>
<path fill="none" stroke="midnightblue" d="M497.37,-295.342C426.145,-287.027 280.617,-269.333 212.451,-254.621"/>
<polygon fill="midnightblue" stroke="midnightblue" points="213.112,-251.182 202.585,-252.38 211.561,-258.008 213.112,-251.182"/>
</g>
<!-- Node37&#45;&gt;Node13 -->
<g id="edge44" class="edge"><title>Node37&#45;&gt;Node13</title>
<path fill="none" stroke="midnightblue" d="M497.371,-293.136C448.005,-284.686 362.229,-269.649 289,-255 287.754,-254.751 286.487,-254.494 285.209,-254.231"/>
<polygon fill="midnightblue" stroke="midnightblue" points="285.824,-250.784 275.317,-252.145 284.38,-257.633 285.824,-250.784"/>
</g>
<!-- Node37&#45;&gt;Node17 -->
<g id="edge42" class="edge"><title>Node37&#45;&gt;Node17</title>
<path fill="none" stroke="midnightblue" d="M497.423,-292.901C436.416,-282.037 327.551,-261.826 322,-255 316.392,-248.103 316.303,-241.823 322,-235 349.117,-202.52 476.79,-193.432 537.619,-190.93"/>
<polygon fill="midnightblue" stroke="midnightblue" points="537.955,-194.42 547.816,-190.547 537.692,-187.425 537.955,-194.42"/>
</g>
<!-- Node38 -->
<g id="node38" class="node"><title>Node38</title>
<polygon fill="white" stroke="#bfbfbf" points="331,-235.5 331,-254.5 375,-254.5 375,-235.5 331,-235.5"/>
<text text-anchor="middle" x="353" y="-242.5" font-family="Helvetica,sans-Serif" font-size="10.00">mutex</text>
</g>
<!-- Node37&#45;&gt;Node38 -->
<g id="edge40" class="edge"><title>Node37&#45;&gt;Node38</title>
<path fill="none" stroke="midnightblue" d="M508.686,-291.444C474.932,-281.591 419.676,-265.462 384.876,-255.304"/>
<polygon fill="midnightblue" stroke="midnightblue" points="385.789,-251.925 375.209,-252.483 383.828,-258.644 385.789,-251.925"/>
</g>
<!-- Node39 -->
<g id="node39" class="node"><title>Node39</title>
<polygon fill="white" stroke="#bfbfbf" points="393,-235.5 393,-254.5 445,-254.5 445,-235.5 393,-235.5"/>
<text text-anchor="middle" x="419" y="-242.5" font-family="Helvetica,sans-Serif" font-size="10.00">memory</text>
</g>
<!-- Node37&#45;&gt;Node39 -->
<g id="edge41" class="edge"><title>Node37&#45;&gt;Node39</title>
<path fill="none" stroke="midnightblue" d="M519.144,-291.444C499.734,-282.636 469.27,-268.812 447.035,-258.722"/>
<polygon fill="midnightblue" stroke="midnightblue" points="448.32,-255.462 437.768,-254.516 445.428,-261.836 448.32,-255.462"/>
</g>
<!-- Node40 -->
<g id="node40" class="node"><title>Node40</title>
<polygon fill="white" stroke="#bfbfbf" points="463,-235.5 463,-254.5 519,-254.5 519,-235.5 463,-235.5"/>
<text text-anchor="middle" x="491" y="-242.5" font-family="Helvetica,sans-Serif" font-size="10.00">TChain.h</text>
</g>
<!-- Node37&#45;&gt;Node40 -->
<g id="edge45" class="edge"><title>Node37&#45;&gt;Node40</title>
<path fill="none" stroke="midnightblue" d="M530.239,-291.083C523.463,-283.298 513.457,-271.801 505.245,-262.367"/>
<polygon fill="midnightblue" stroke="midnightblue" points="507.822,-259.996 498.617,-254.751 502.542,-264.592 507.822,-259.996"/>
</g>
<!-- Node41 -->
<g id="node41" class="node"><title>Node41</title>
<polygon fill="white" stroke="#bfbfbf" points="537,-235.5 537,-254.5 619,-254.5 619,-235.5 537,-235.5"/>
<text text-anchor="middle" x="578" y="-242.5" font-family="Helvetica,sans-Serif" font-size="10.00">TTreeReader.h</text>
</g>
<!-- Node37&#45;&gt;Node41 -->
<g id="edge46" class="edge"><title>Node37&#45;&gt;Node41</title>
<path fill="none" stroke="midnightblue" d="M544.605,-291.083C550.255,-283.455 558.545,-272.264 565.451,-262.941"/>
<polygon fill="midnightblue" stroke="midnightblue" points="568.378,-264.87 571.518,-254.751 562.753,-260.703 568.378,-264.87"/>
</g>
<!-- Node42 -->
<g id="node42" class="node"><title>Node42</title>
<polygon fill="white" stroke="#bfbfbf" points="637.5,-235.5 637.5,-254.5 742.5,-254.5 742.5,-235.5 637.5,-235.5"/>
<text text-anchor="middle" x="690" y="-242.5" font-family="Helvetica,sans-Serif" font-size="10.00">TTreeReaderArray.h</text>
</g>
<!-- Node37&#45;&gt;Node42 -->
<g id="edge47" class="edge"><title>Node37&#45;&gt;Node42</title>
<path fill="none" stroke="midnightblue" d="M562.085,-291.444C587.545,-282.399 627.894,-268.064 656.459,-257.916"/>
<polygon fill="midnightblue" stroke="midnightblue" points="657.777,-261.162 666.028,-254.516 655.433,-254.566 657.777,-261.162"/>
</g>
<!-- Node43 -->
<g id="node43" class="node"><title>Node43</title>
<polygon fill="white" stroke="#bfbfbf" points="761,-235.5 761,-254.5 811,-254.5 811,-235.5 761,-235.5"/>
<text text-anchor="middle" x="786" y="-242.5" font-family="Helvetica,sans-Serif" font-size="10.00">TLeaf.h</text>
</g>
<!-- Node37&#45;&gt;Node43 -->
<g id="edge48" class="edge"><title>Node37&#45;&gt;Node43</title>
<path fill="none" stroke="midnightblue" d="M578.553,-291.979C621.494,-283.357 691.199,-268.999 751,-255 751.099,-254.977 751.199,-254.953 751.298,-254.93"/>
<polygon fill="midnightblue" stroke="midnightblue" points="751.907,-258.384 760.797,-252.62 750.253,-251.582 751.907,-258.384"/>
</g>
</g>
</svg>
