<?xml version="1.0" encoding="UTF-8" standalone="no"?>
<!DOCTYPE svg PUBLIC "-//W3C//DTD SVG 1.1//EN"
 "http://www.w3.org/Graphics/SVG/1.1/DTD/svg11.dtd">
<!-- Generated by graphviz version 2.38.0 (20140413.2041)
 -->
<!-- Title: include/Particle.hh Pages: 1 -->
<svg width="2428pt" height="532pt"
 viewBox="0.00 0.00 2428.00 532.00" xmlns="http://www.w3.org/2000/svg" xmlns:xlink="http://www.w3.org/1999/xlink">
<g id="graph0" class="graph" transform="scale(1 1) rotate(0) translate(4 528)">
<title>include/Particle.hh</title>
<polygon fill="white" stroke="none" points="-4,4 -4,-528 2424,-528 2424,4 -4,4"/>
<!-- Node1 -->
<g id="node1" class="node"><title>Node1</title>
<polygon fill="#bfbfbf" stroke="black" points="1378.5,-504.5 1378.5,-523.5 1475.5,-523.5 1475.5,-504.5 1378.5,-504.5"/>
<text text-anchor="middle" x="1427" y="-511.5" font-family="Helvetica,sans-Serif" font-size="10.00">include/Particle.hh</text>
</g>
<!-- Node2 -->
<g id="node2" class="node"><title>Node2</title>
<g id="a_node2"><a xlink:href="../../d0/d9c/Family_8hh.html" target="_top" xlink:title="include/Family.hh">
<polygon fill="white" stroke="black" points="1323.5,-448.5 1323.5,-467.5 1416.5,-467.5 1416.5,-448.5 1323.5,-448.5"/>
<text text-anchor="middle" x="1370" y="-455.5" font-family="Helvetica,sans-Serif" font-size="10.00">include/Family.hh</text>
</a>
</g>
</g>
<!-- Node1&#45;&gt;Node2 -->
<g id="edge1" class="edge"><title>Node1&#45;&gt;Node2</title>
<path fill="none" stroke="midnightblue" d="M1410.38,-497.253C1400.27,-487.673 1387.72,-475.791 1379.32,-467.834"/>
<polygon fill="midnightblue" stroke="midnightblue" points="1408.18,-499.987 1417.84,-504.324 1412.99,-494.906 1408.18,-499.987"/>
</g>
<!-- Node50 -->
<g id="node50" class="node"><title>Node50</title>
<g id="a_node50"><a xlink:href="../../d0/d03/Particle_8cpp.html" target="_top" xlink:title="source/Particle.cpp">
<polygon fill="white" stroke="black" points="1434.5,-448.5 1434.5,-467.5 1535.5,-467.5 1535.5,-448.5 1434.5,-448.5"/>
<text text-anchor="middle" x="1485" y="-455.5" font-family="Helvetica,sans-Serif" font-size="10.00">source/Particle.cpp</text>
</a>
</g>
</g>
<!-- Node1&#45;&gt;Node50 -->
<g id="edge72" class="edge"><title>Node1&#45;&gt;Node50</title>
<path fill="none" stroke="midnightblue" d="M1443.91,-497.253C1454.2,-487.673 1466.97,-475.791 1475.51,-467.834"/>
<polygon fill="midnightblue" stroke="midnightblue" points="1441.25,-494.948 1436.32,-504.324 1446.02,-500.071 1441.25,-494.948"/>
</g>
<!-- Node3 -->
<g id="node3" class="node"><title>Node3</title>
<g id="a_node3"><a xlink:href="../../d8/dff/JetTag_8hh.html" target="_top" xlink:title="include/JetTag.hh">
<polygon fill="white" stroke="black" points="1215,-392.5 1215,-411.5 1309,-411.5 1309,-392.5 1215,-392.5"/>
<text text-anchor="middle" x="1262" y="-399.5" font-family="Helvetica,sans-Serif" font-size="10.00">include/JetTag.hh</text>
</a>
</g>
</g>
<!-- Node2&#45;&gt;Node3 -->
<g id="edge2" class="edge"><title>Node2&#45;&gt;Node3</title>
<path fill="none" stroke="midnightblue" d="M1343.45,-443.726C1323.45,-433.727 1296.61,-420.307 1279.31,-411.655"/>
<polygon fill="midnightblue" stroke="midnightblue" points="1342.14,-446.982 1352.65,-448.324 1345.27,-440.721 1342.14,-446.982"/>
</g>
<!-- Node30 -->
<g id="node30" class="node"><title>Node30</title>
<g id="a_node30"><a xlink:href="../../d3/d32/Constituent_8hh.html" target="_top" xlink:title="include/Constituent.hh">
<polygon fill="white" stroke="black" points="1346,-336.5 1346,-355.5 1460,-355.5 1460,-336.5 1346,-336.5"/>
<text text-anchor="middle" x="1403" y="-343.5" font-family="Helvetica,sans-Serif" font-size="10.00">include/Constituent.hh</text>
</a>
</g>
</g>
<!-- Node2&#45;&gt;Node30 -->
<g id="edge38" class="edge"><title>Node2&#45;&gt;Node30</title>
<path fill="none" stroke="midnightblue" d="M1375.5,-438.674C1382.71,-414.625 1395.08,-373.388 1400.42,-355.591"/>
<polygon fill="midnightblue" stroke="midnightblue" points="1372.11,-437.784 1372.59,-448.368 1378.82,-439.796 1372.11,-437.784"/>
</g>
<!-- Node49 -->
<g id="node49" class="node"><title>Node49</title>
<g id="a_node49"><a xlink:href="../../df/ded/Family_8cpp.html" target="_top" xlink:title="source/Family.cpp">
<polygon fill="white" stroke="black" points="1398.5,-392.5 1398.5,-411.5 1495.5,-411.5 1495.5,-392.5 1398.5,-392.5"/>
<text text-anchor="middle" x="1447" y="-399.5" font-family="Helvetica,sans-Serif" font-size="10.00">source/Family.cpp</text>
</a>
</g>
</g>
<!-- Node2&#45;&gt;Node49 -->
<g id="edge71" class="edge"><title>Node2&#45;&gt;Node49</title>
<path fill="none" stroke="midnightblue" d="M1390.9,-442.342C1404.91,-432.517 1422.88,-419.913 1434.66,-411.655"/>
<polygon fill="midnightblue" stroke="midnightblue" points="1388.55,-439.717 1382.37,-448.324 1392.57,-445.448 1388.55,-439.717"/>
</g>
<!-- Node4 -->
<g id="node4" class="node"><title>Node4</title>
<g id="a_node4"><a xlink:href="../../df/dbc/FourVector_8hh.html" target="_top" xlink:title="include/FourVector.hh">
<polygon fill="white" stroke="black" points="1206,-336.5 1206,-355.5 1318,-355.5 1318,-336.5 1206,-336.5"/>
<text text-anchor="middle" x="1262" y="-343.5" font-family="Helvetica,sans-Serif" font-size="10.00">include/FourVector.hh</text>
</a>
</g>
</g>
<!-- Node3&#45;&gt;Node4 -->
<g id="edge3" class="edge"><title>Node3&#45;&gt;Node4</title>
<path fill="none" stroke="midnightblue" d="M1262,-381.805C1262,-372.91 1262,-362.78 1262,-355.751"/>
<polygon fill="midnightblue" stroke="midnightblue" points="1258.5,-382.083 1262,-392.083 1265.5,-382.083 1258.5,-382.083"/>
</g>
<!-- Node29 -->
<g id="node29" class="node"><title>Node29</title>
<g id="a_node29"><a xlink:href="../../d7/d5c/JetTag_8cpp.html" target="_top" xlink:title="source/JetTag.cpp">
<polygon fill="white" stroke="black" points="1090,-336.5 1090,-355.5 1188,-355.5 1188,-336.5 1090,-336.5"/>
<text text-anchor="middle" x="1139" y="-343.5" font-family="Helvetica,sans-Serif" font-size="10.00">source/JetTag.cpp</text>
</a>
</g>
</g>
<!-- Node3&#45;&gt;Node29 -->
<g id="edge37" class="edge"><title>Node3&#45;&gt;Node29</title>
<path fill="none" stroke="midnightblue" d="M1233.23,-388.368C1210.19,-378.255 1178.52,-364.349 1158.4,-355.516"/>
<polygon fill="midnightblue" stroke="midnightblue" points="1231.95,-391.628 1242.51,-392.444 1234.76,-385.219 1231.95,-391.628"/>
</g>
<!-- Node5 -->
<g id="node5" class="node"><title>Node5</title>
<g id="a_node5"><a xlink:href="../../d0/d6b/Partons_8hh.html" target="_top" xlink:title="include/Partons.hh">
<polygon fill="white" stroke="black" points="300,-280.5 300,-299.5 398,-299.5 398,-280.5 300,-280.5"/>
<text text-anchor="middle" x="349" y="-287.5" font-family="Helvetica,sans-Serif" font-size="10.00">include/Partons.hh</text>
</a>
</g>
</g>
<!-- Node4&#45;&gt;Node5 -->
<g id="edge4" class="edge"><title>Node4&#45;&gt;Node5</title>
<path fill="none" stroke="midnightblue" d="M1195.61,-335.948C886.484,-306.819 527.517,-295.508 398.335,-292.16"/>
<polygon fill="midnightblue" stroke="midnightblue" points="1195.38,-339.441 1205.66,-336.903 1196.04,-332.472 1195.38,-339.441"/>
</g>
<!-- Node14 -->
<g id="node14" class="node"><title>Node14</title>
<g id="a_node14"><a xlink:href="../../d7/dac/Leptons_8hh.html" target="_top" xlink:title="include/Leptons.hh">
<polygon fill="white" stroke="black" points="663,-280.5 663,-299.5 761,-299.5 761,-280.5 663,-280.5"/>
<text text-anchor="middle" x="712" y="-287.5" font-family="Helvetica,sans-Serif" font-size="10.00">include/Leptons.hh</text>
</a>
</g>
</g>
<!-- Node4&#45;&gt;Node14 -->
<g id="edge15" class="edge"><title>Node4&#45;&gt;Node14</title>
<path fill="none" stroke="midnightblue" d="M1195.31,-335.85C1030.31,-316.984 847.243,-301.683 761.3,-294.836"/>
<polygon fill="midnightblue" stroke="midnightblue" points="1195.31,-339.373 1205.65,-337.039 1196.12,-332.419 1195.31,-339.373"/>
</g>
<!-- Node20 -->
<g id="node20" class="node"><title>Node20</title>
<g id="a_node20"><a xlink:href="../../dd/dee/Hadrons_8hh.html" target="_top" xlink:title="include/Hadrons.hh">
<polygon fill="white" stroke="black" points="1095.5,-280.5 1095.5,-299.5 1196.5,-299.5 1196.5,-280.5 1095.5,-280.5"/>
<text text-anchor="middle" x="1146" y="-287.5" font-family="Helvetica,sans-Serif" font-size="10.00">include/Hadrons.hh</text>
</a>
</g>
</g>
<!-- Node4&#45;&gt;Node20 -->
<g id="edge24" class="edge"><title>Node4&#45;&gt;Node20</title>
<path fill="none" stroke="midnightblue" d="M1234.28,-332.096C1212.61,-322.007 1183.1,-308.27 1164.29,-299.516"/>
<polygon fill="midnightblue" stroke="midnightblue" points="1233.08,-335.396 1243.62,-336.444 1236.03,-329.05 1233.08,-335.396"/>
</g>
<!-- Node26 -->
<g id="node26" class="node"><title>Node26</title>
<g id="a_node26"><a xlink:href="../../d7/d6c/JetInfoFamily_8hh.html" target="_top" xlink:title="include/JetInfoFamily.hh">
<polygon fill="white" stroke="black" points="1341.5,-280.5 1341.5,-299.5 1464.5,-299.5 1464.5,-280.5 1341.5,-280.5"/>
<text text-anchor="middle" x="1403" y="-287.5" font-family="Helvetica,sans-Serif" font-size="10.00">include/JetInfoFamily.hh</text>
</a>
</g>
</g>
<!-- Node4&#45;&gt;Node26 -->
<g id="edge33" class="edge"><title>Node4&#45;&gt;Node26</title>
<path fill="none" stroke="midnightblue" d="M1293.93,-332.772C1320.41,-322.629 1357.39,-308.467 1380.76,-299.516"/>
<polygon fill="midnightblue" stroke="midnightblue" points="1292.43,-329.599 1284.34,-336.444 1294.93,-336.136 1292.43,-329.599"/>
</g>
<!-- Node27 -->
<g id="node27" class="node"><title>Node27</title>
<g id="a_node27"><a xlink:href="../../d0/d3a/FourVector_8cpp.html" target="_top" xlink:title="source/FourVector.cpp">
<polygon fill="white" stroke="black" points="1372,-224.5 1372,-243.5 1488,-243.5 1488,-224.5 1372,-224.5"/>
<text text-anchor="middle" x="1430" y="-231.5" font-family="Helvetica,sans-Serif" font-size="10.00">source/FourVector.cpp</text>
</a>
</g>
</g>
<!-- Node4&#45;&gt;Node27 -->
<g id="edge36" class="edge"><title>Node4&#45;&gt;Node27</title>
<path fill="none" stroke="midnightblue" d="M1277.13,-328.547C1290.76,-314.398 1311.84,-294.1 1333,-280 1356.33,-264.454 1385.88,-251.592 1406.2,-243.655"/>
<polygon fill="midnightblue" stroke="midnightblue" points="1274.34,-326.4 1270.02,-336.074 1279.43,-331.205 1274.34,-326.4"/>
</g>
<!-- Node6 -->
<g id="node6" class="node"><title>Node6</title>
<g id="a_node6"><a xlink:href="../../d5/df2/Event_8hh.html" target="_top" xlink:title="include/Event.hh">
<polygon fill="white" stroke="red" points="537.5,-224.5 537.5,-243.5 626.5,-243.5 626.5,-224.5 537.5,-224.5"/>
<text text-anchor="middle" x="582" y="-231.5" font-family="Helvetica,sans-Serif" font-size="10.00">include/Event.hh</text>
</a>
</g>
</g>
<!-- Node5&#45;&gt;Node6 -->
<g id="edge5" class="edge"><title>Node5&#45;&gt;Node6</title>
<path fill="none" stroke="midnightblue" d="M395.803,-278.153C439.827,-267.95 504.847,-252.881 545.253,-243.516"/>
<polygon fill="midnightblue" stroke="midnightblue" points="394.871,-274.776 385.92,-280.444 396.452,-281.595 394.871,-274.776"/>
</g>
<!-- Node9 -->
<g id="node9" class="node"><title>Node9</title>
<g id="a_node9"><a xlink:href="../../dc/d65/delphes_2Partons_8hh.html" target="_top" xlink:title="include/delphes/Partons.hh">
<polygon fill="white" stroke="black" points="0,-224.5 0,-243.5 134,-243.5 134,-224.5 0,-224.5"/>
<text text-anchor="middle" x="67" y="-231.5" font-family="Helvetica,sans-Serif" font-size="10.00">include/delphes/Partons.hh</text>
</a>
</g>
</g>
<!-- Node5&#45;&gt;Node9 -->
<g id="edge8" class="edge"><title>Node5&#45;&gt;Node9</title>
<path fill="none" stroke="midnightblue" d="M294.361,-278.537C241.065,-268.332 160.996,-252.999 111.475,-243.516"/>
<polygon fill="midnightblue" stroke="midnightblue" points="293.836,-282 304.316,-280.444 295.153,-275.125 293.836,-282"/>
</g>
<!-- Node11 -->
<g id="node11" class="node"><title>Node11</title>
<g id="a_node11"><a xlink:href="../../dc/d83/exroot_2Partons_8hh.html" target="_top" xlink:title="include/exroot/Partons.hh">
<polygon fill="white" stroke="black" points="152,-224.5 152,-243.5 280,-243.5 280,-224.5 152,-224.5"/>
<text text-anchor="middle" x="216" y="-231.5" font-family="Helvetica,sans-Serif" font-size="10.00">include/exroot/Partons.hh</text>
</a>
</g>
</g>
<!-- Node5&#45;&gt;Node11 -->
<g id="edge11" class="edge"><title>Node5&#45;&gt;Node11</title>
<path fill="none" stroke="midnightblue" d="M318.552,-276.638C293.593,-266.504 258.923,-252.427 236.976,-243.516"/>
<polygon fill="midnightblue" stroke="midnightblue" points="317.344,-279.924 327.926,-280.444 319.977,-273.439 317.344,-279.924"/>
</g>
<!-- Node13 -->
<g id="node13" class="node"><title>Node13</title>
<g id="a_node13"><a xlink:href="../../d5/d0f/Partons_8cpp.html" target="_top" xlink:title="source/Partons.cpp">
<polygon fill="white" stroke="black" points="298.5,-224.5 298.5,-243.5 399.5,-243.5 399.5,-224.5 298.5,-224.5"/>
<text text-anchor="middle" x="349" y="-231.5" font-family="Helvetica,sans-Serif" font-size="10.00">source/Partons.cpp</text>
</a>
</g>
</g>
<!-- Node5&#45;&gt;Node13 -->
<g id="edge14" class="edge"><title>Node5&#45;&gt;Node13</title>
<path fill="none" stroke="midnightblue" d="M349,-269.805C349,-260.91 349,-250.78 349,-243.751"/>
<polygon fill="midnightblue" stroke="midnightblue" points="345.5,-270.083 349,-280.083 352.5,-270.083 345.5,-270.083"/>
</g>
<!-- Node7 -->
<g id="node7" class="node"><title>Node7</title>
<g id="a_node7"><a xlink:href="../../d7/d9f/Event_8cpp.html" target="_top" xlink:title="source/Event.cpp">
<polygon fill="white" stroke="black" points="219.5,-168.5 219.5,-187.5 312.5,-187.5 312.5,-168.5 219.5,-168.5"/>
<text text-anchor="middle" x="266" y="-175.5" font-family="Helvetica,sans-Serif" font-size="10.00">source/Event.cpp</text>
</a>
</g>
</g>
<!-- Node6&#45;&gt;Node7 -->
<g id="edge6" class="edge"><title>Node6&#45;&gt;Node7</title>
<path fill="none" stroke="midnightblue" d="M527.248,-223.644C466.611,-213.282 369.883,-196.752 312.693,-186.979"/>
<polygon fill="midnightblue" stroke="midnightblue" points="526.948,-227.143 537.395,-225.378 528.128,-220.243 526.948,-227.143"/>
</g>
<!-- Node8 -->
<g id="node8" class="node"><title>Node8</title>
<g id="a_node8"><a xlink:href="../../d7/d4a/HiggsTagger_8cpp.html" target="_top" xlink:title="source/HiggsTagger.cpp">
<polygon fill="white" stroke="black" points="636.5,-168.5 636.5,-187.5 759.5,-187.5 759.5,-168.5 636.5,-168.5"/>
<text text-anchor="middle" x="698" y="-175.5" font-family="Helvetica,sans-Serif" font-size="10.00">source/HiggsTagger.cpp</text>
</a>
</g>
</g>
<!-- Node6&#45;&gt;Node8 -->
<g id="edge7" class="edge"><title>Node6&#45;&gt;Node8</title>
<path fill="none" stroke="midnightblue" d="M609.72,-220.096C631.392,-210.007 660.902,-196.27 679.705,-187.516"/>
<polygon fill="midnightblue" stroke="midnightblue" points="607.969,-217.05 600.381,-224.444 610.923,-223.396 607.969,-217.05"/>
</g>
<!-- Node9&#45;&gt;Node7 -->
<g id="edge10" class="edge"><title>Node9&#45;&gt;Node7</title>
<path fill="none" stroke="midnightblue" d="M108.648,-221.699C146.206,-211.507 200.614,-196.743 234.615,-187.516"/>
<polygon fill="midnightblue" stroke="midnightblue" points="107.267,-218.447 98.5321,-224.444 109.1,-225.202 107.267,-218.447"/>
</g>
<!-- Node10 -->
<g id="node10" class="node"><title>Node10</title>
<g id="a_node10"><a xlink:href="../../d1/da0/delphes_2Partons_8cpp.html" target="_top" xlink:title="source/delphes/Partons.cpp">
<polygon fill="white" stroke="black" points="331,-168.5 331,-187.5 469,-187.5 469,-168.5 331,-168.5"/>
<text text-anchor="middle" x="400" y="-175.5" font-family="Helvetica,sans-Serif" font-size="10.00">source/delphes/Partons.cpp</text>
</a>
</g>
</g>
<!-- Node9&#45;&gt;Node10 -->
<g id="edge9" class="edge"><title>Node9&#45;&gt;Node10</title>
<path fill="none" stroke="midnightblue" d="M129.957,-222.791C192.88,-212.587 288.519,-197.078 347.482,-187.516"/>
<polygon fill="midnightblue" stroke="midnightblue" points="129.076,-219.388 119.765,-224.444 130.196,-226.298 129.076,-219.388"/>
</g>
<!-- Node11&#45;&gt;Node7 -->
<g id="edge12" class="edge"><title>Node11&#45;&gt;Node7</title>
<path fill="none" stroke="midnightblue" d="M231.076,-216.718C239.889,-207.2 250.666,-195.561 257.897,-187.751"/>
<polygon fill="midnightblue" stroke="midnightblue" points="228.482,-214.367 224.256,-224.083 233.619,-219.123 228.482,-214.367"/>
</g>
<!-- Node12 -->
<g id="node12" class="node"><title>Node12</title>
<g id="a_node12"><a xlink:href="../../d4/d47/exroot_2Partons_8cpp.html" target="_top" xlink:title="source/exroot/Partons.cpp">
<polygon fill="white" stroke="black" points="487.5,-168.5 487.5,-187.5 618.5,-187.5 618.5,-168.5 487.5,-168.5"/>
<text text-anchor="middle" x="553" y="-175.5" font-family="Helvetica,sans-Serif" font-size="10.00">source/exroot/Partons.cpp</text>
</a>
</g>
</g>
<!-- Node11&#45;&gt;Node12 -->
<g id="edge13" class="edge"><title>Node11&#45;&gt;Node12</title>
<path fill="none" stroke="midnightblue" d="M279.32,-222.854C342.993,-212.651 440.057,-197.098 499.851,-187.516"/>
<polygon fill="midnightblue" stroke="midnightblue" points="278.719,-219.405 269.399,-224.444 279.826,-226.317 278.719,-219.405"/>
</g>
<!-- Node14&#45;&gt;Node6 -->
<g id="edge16" class="edge"><title>Node14&#45;&gt;Node6</title>
<path fill="none" stroke="midnightblue" d="M681.915,-276.503C657.543,-266.38 623.86,-252.388 602.503,-243.516"/>
<polygon fill="midnightblue" stroke="midnightblue" points="680.823,-279.84 691.401,-280.444 683.509,-273.375 680.823,-279.84"/>
</g>
<!-- Node15 -->
<g id="node15" class="node"><title>Node15</title>
<g id="a_node15"><a xlink:href="../../d3/dc9/delphes_2Leptons_8hh.html" target="_top" xlink:title="include/delphes/Leptons.hh">
<polygon fill="white" stroke="black" points="644.5,-224.5 644.5,-243.5 779.5,-243.5 779.5,-224.5 644.5,-224.5"/>
<text text-anchor="middle" x="712" y="-231.5" font-family="Helvetica,sans-Serif" font-size="10.00">include/delphes/Leptons.hh</text>
</a>
</g>
</g>
<!-- Node14&#45;&gt;Node15 -->
<g id="edge17" class="edge"><title>Node14&#45;&gt;Node15</title>
<path fill="none" stroke="midnightblue" d="M712,-269.805C712,-260.91 712,-250.78 712,-243.751"/>
<polygon fill="midnightblue" stroke="midnightblue" points="708.5,-270.083 712,-280.083 715.5,-270.083 708.5,-270.083"/>
</g>
<!-- Node17 -->
<g id="node17" class="node"><title>Node17</title>
<g id="a_node17"><a xlink:href="../../df/d3a/exroot_2Leptons_8hh.html" target="_top" xlink:title="include/exroot/Leptons.hh">
<polygon fill="white" stroke="black" points="798,-224.5 798,-243.5 926,-243.5 926,-224.5 798,-224.5"/>
<text text-anchor="middle" x="862" y="-231.5" font-family="Helvetica,sans-Serif" font-size="10.00">include/exroot/Leptons.hh</text>
</a>
</g>
</g>
<!-- Node14&#45;&gt;Node17 -->
<g id="edge20" class="edge"><title>Node14&#45;&gt;Node17</title>
<path fill="none" stroke="midnightblue" d="M745.225,-277.039C773.448,-266.879 813.262,-252.546 838.343,-243.516"/>
<polygon fill="midnightblue" stroke="midnightblue" points="743.991,-273.763 735.768,-280.444 746.362,-280.349 743.991,-273.763"/>
</g>
<!-- Node19 -->
<g id="node19" class="node"><title>Node19</title>
<g id="a_node19"><a xlink:href="../../da/d86/Leptons_8cpp.html" target="_top" xlink:title="source/Leptons.cpp">
<polygon fill="white" stroke="black" points="418,-224.5 418,-243.5 520,-243.5 520,-224.5 418,-224.5"/>
<text text-anchor="middle" x="469" y="-231.5" font-family="Helvetica,sans-Serif" font-size="10.00">source/Leptons.cpp</text>
</a>
</g>
</g>
<!-- Node14&#45;&gt;Node19 -->
<g id="edge23" class="edge"><title>Node14&#45;&gt;Node19</title>
<path fill="none" stroke="midnightblue" d="M663.478,-278.217C617.56,-268.013 549.553,-252.901 507.324,-243.516"/>
<polygon fill="midnightblue" stroke="midnightblue" points="662.975,-281.691 673.496,-280.444 664.493,-274.858 662.975,-281.691"/>
</g>
<!-- Node15&#45;&gt;Node7 -->
<g id="edge19" class="edge"><title>Node15&#45;&gt;Node7</title>
<path fill="none" stroke="midnightblue" d="M634.138,-223.907C494.197,-207.826 457.466,-206.667 322,-188 318.976,-187.583 315.863,-187.136 312.727,-186.67"/>
<polygon fill="midnightblue" stroke="midnightblue" points="634.059,-227.421 644.395,-225.091 634.862,-220.467 634.059,-227.421"/>
</g>
<!-- Node16 -->
<g id="node16" class="node"><title>Node16</title>
<g id="a_node16"><a xlink:href="../../dd/d98/delphes_2Leptons_8cpp.html" target="_top" xlink:title="source/delphes/Leptons.cpp">
<polygon fill="white" stroke="black" points="777.5,-168.5 777.5,-187.5 916.5,-187.5 916.5,-168.5 777.5,-168.5"/>
<text text-anchor="middle" x="847" y="-175.5" font-family="Helvetica,sans-Serif" font-size="10.00">source/delphes/Leptons.cpp</text>
</a>
</g>
</g>
<!-- Node15&#45;&gt;Node16 -->
<g id="edge18" class="edge"><title>Node15&#45;&gt;Node16</title>
<path fill="none" stroke="midnightblue" d="M742.906,-220.638C768.24,-210.504 803.431,-196.427 825.709,-187.516"/>
<polygon fill="midnightblue" stroke="midnightblue" points="741.376,-217.48 733.391,-224.444 743.976,-223.979 741.376,-217.48"/>
</g>
<!-- Node17&#45;&gt;Node7 -->
<g id="edge21" class="edge"><title>Node17&#45;&gt;Node7</title>
<path fill="none" stroke="midnightblue" d="M787.811,-224.034C579.596,-203.73 525.055,-212.119 322,-188 318.969,-187.64 315.85,-187.235 312.711,-186.802"/>
<polygon fill="midnightblue" stroke="midnightblue" points="787.549,-227.525 797.844,-225.022 788.235,-220.558 787.549,-227.525"/>
</g>
<!-- Node18 -->
<g id="node18" class="node"><title>Node18</title>
<g id="a_node18"><a xlink:href="../../d9/dbe/exroot_2Leptons_8cpp.html" target="_top" xlink:title="source/exroot/Leptons.cpp">
<polygon fill="white" stroke="black" points="935,-168.5 935,-187.5 1067,-187.5 1067,-168.5 935,-168.5"/>
<text text-anchor="middle" x="1001" y="-175.5" font-family="Helvetica,sans-Serif" font-size="10.00">source/exroot/Leptons.cpp</text>
</a>
</g>
</g>
<!-- Node17&#45;&gt;Node18 -->
<g id="edge22" class="edge"><title>Node17&#45;&gt;Node18</title>
<path fill="none" stroke="midnightblue" d="M893.476,-220.772C919.585,-210.629 956.039,-196.467 979.078,-187.516"/>
<polygon fill="midnightblue" stroke="midnightblue" points="892.079,-217.56 884.025,-224.444 894.614,-224.085 892.079,-217.56"/>
</g>
<!-- Node20&#45;&gt;Node6 -->
<g id="edge25" class="edge"><title>Node20&#45;&gt;Node6</title>
<path fill="none" stroke="midnightblue" d="M1085.36,-285.243C989.486,-278.948 797.14,-264.871 635,-244 632.316,-243.654 629.559,-243.272 626.782,-242.865"/>
<polygon fill="midnightblue" stroke="midnightblue" points="1085.24,-288.743 1095.45,-285.9 1085.7,-281.758 1085.24,-288.743"/>
</g>
<!-- Node21 -->
<g id="node21" class="node"><title>Node21</title>
<g id="a_node21"><a xlink:href="../../df/d30/delphes_2Hadrons_8hh.html" target="_top" xlink:title="include/delphes/Hadrons.hh">
<polygon fill="white" stroke="black" points="1216.5,-224.5 1216.5,-243.5 1353.5,-243.5 1353.5,-224.5 1216.5,-224.5"/>
<text text-anchor="middle" x="1285" y="-231.5" font-family="Helvetica,sans-Serif" font-size="10.00">include/delphes/Hadrons.hh</text>
</a>
</g>
</g>
<!-- Node20&#45;&gt;Node21 -->
<g id="edge26" class="edge"><title>Node20&#45;&gt;Node21</title>
<path fill="none" stroke="midnightblue" d="M1177.48,-276.772C1203.59,-266.629 1240.04,-252.467 1263.08,-243.516"/>
<polygon fill="midnightblue" stroke="midnightblue" points="1176.08,-273.56 1168.02,-280.444 1178.61,-280.085 1176.08,-273.56"/>
</g>
<!-- Node23 -->
<g id="node23" class="node"><title>Node23</title>
<g id="a_node23"><a xlink:href="../../d2/d21/exroot_2Hadrons_8hh.html" target="_top" xlink:title="include/exroot/Hadrons.hh">
<polygon fill="white" stroke="black" points="944.5,-224.5 944.5,-243.5 1075.5,-243.5 1075.5,-224.5 944.5,-224.5"/>
<text text-anchor="middle" x="1010" y="-231.5" font-family="Helvetica,sans-Serif" font-size="10.00">include/exroot/Hadrons.hh</text>
</a>
</g>
</g>
<!-- Node20&#45;&gt;Node23 -->
<g id="edge29" class="edge"><title>Node20&#45;&gt;Node23</title>
<path fill="none" stroke="midnightblue" d="M1114.87,-276.638C1089.34,-266.504 1053.89,-252.427 1031.45,-243.516"/>
<polygon fill="midnightblue" stroke="midnightblue" points="1113.86,-280.006 1124.45,-280.444 1116.45,-273.5 1113.86,-280.006"/>
</g>
<!-- Node25 -->
<g id="node25" class="node"><title>Node25</title>
<g id="a_node25"><a xlink:href="../../de/dba/Hadrons_8cpp.html" target="_top" xlink:title="source/Hadrons.cpp">
<polygon fill="white" stroke="black" points="1094,-224.5 1094,-243.5 1198,-243.5 1198,-224.5 1094,-224.5"/>
<text text-anchor="middle" x="1146" y="-231.5" font-family="Helvetica,sans-Serif" font-size="10.00">source/Hadrons.cpp</text>
</a>
</g>
</g>
<!-- Node20&#45;&gt;Node25 -->
<g id="edge32" class="edge"><title>Node20&#45;&gt;Node25</title>
<path fill="none" stroke="midnightblue" d="M1146,-269.805C1146,-260.91 1146,-250.78 1146,-243.751"/>
<polygon fill="midnightblue" stroke="midnightblue" points="1142.5,-270.083 1146,-280.083 1149.5,-270.083 1142.5,-270.083"/>
</g>
<!-- Node21&#45;&gt;Node7 -->
<g id="edge28" class="edge"><title>Node21&#45;&gt;Node7</title>
<path fill="none" stroke="midnightblue" d="M1205.89,-223.982C812.787,-193.991 710.345,-226.966 322,-188 318.963,-187.695 315.84,-187.332 312.697,-186.93"/>
<polygon fill="midnightblue" stroke="midnightblue" points="1205.88,-227.492 1216.12,-224.772 1206.42,-220.513 1205.88,-227.492"/>
</g>
<!-- Node22 -->
<g id="node22" class="node"><title>Node22</title>
<g id="a_node22"><a xlink:href="../../d7/db9/delphes_2Hadrons_8cpp.html" target="_top" xlink:title="source/delphes/Hadrons.cpp">
<polygon fill="white" stroke="black" points="1237.5,-168.5 1237.5,-187.5 1378.5,-187.5 1378.5,-168.5 1237.5,-168.5"/>
<text text-anchor="middle" x="1308" y="-175.5" font-family="Helvetica,sans-Serif" font-size="10.00">source/delphes/Hadrons.cpp</text>
</a>
</g>
</g>
<!-- Node21&#45;&gt;Node22 -->
<g id="edge27" class="edge"><title>Node21&#45;&gt;Node22</title>
<path fill="none" stroke="midnightblue" d="M1292.8,-214.69C1296.68,-205.589 1301.18,-195.014 1304.27,-187.751"/>
<polygon fill="midnightblue" stroke="midnightblue" points="1289.5,-213.511 1288.8,-224.083 1295.94,-216.254 1289.5,-213.511"/>
</g>
<!-- Node23&#45;&gt;Node7 -->
<g id="edge30" class="edge"><title>Node23&#45;&gt;Node7</title>
<path fill="none" stroke="midnightblue" d="M933.976,-223.97C661.431,-200.162 589.982,-217.328 322,-188 318.966,-187.668 315.845,-187.284 312.703,-186.866"/>
<polygon fill="midnightblue" stroke="midnightblue" points="933.904,-227.477 944.174,-224.871 934.521,-220.504 933.904,-227.477"/>
</g>
<!-- Node24 -->
<g id="node24" class="node"><title>Node24</title>
<g id="a_node24"><a xlink:href="../../d2/deb/exroot_2Hadrons_8cpp.html" target="_top" xlink:title="source/exroot/Hadrons.cpp">
<polygon fill="white" stroke="black" points="1085,-168.5 1085,-187.5 1219,-187.5 1219,-168.5 1085,-168.5"/>
<text text-anchor="middle" x="1152" y="-175.5" font-family="Helvetica,sans-Serif" font-size="10.00">source/exroot/Hadrons.cpp</text>
</a>
</g>
</g>
<!-- Node23&#45;&gt;Node24 -->
<g id="edge31" class="edge"><title>Node23&#45;&gt;Node24</title>
<path fill="none" stroke="midnightblue" d="M1042.16,-220.772C1068.83,-210.629 1106.07,-196.467 1129.6,-187.516"/>
<polygon fill="midnightblue" stroke="midnightblue" points="1040.6,-217.618 1032.5,-224.444 1043.09,-224.16 1040.6,-217.618"/>
</g>
<!-- Node26&#45;&gt;Node27 -->
<g id="edge34" class="edge"><title>Node26&#45;&gt;Node27</title>
<path fill="none" stroke="midnightblue" d="M1412.01,-270.983C1416.59,-261.817 1421.95,-251.092 1425.62,-243.751"/>
<polygon fill="midnightblue" stroke="midnightblue" points="1408.8,-269.573 1407.46,-280.083 1415.06,-272.704 1408.8,-269.573"/>
</g>
<!-- Node28 -->
<g id="node28" class="node"><title>Node28</title>
<g id="a_node28"><a xlink:href="../../da/d15/JetInfoFamily_8cpp.html" target="_top" xlink:title="source/JetInfoFamily.cpp">
<polygon fill="white" stroke="black" points="1506.5,-224.5 1506.5,-243.5 1633.5,-243.5 1633.5,-224.5 1506.5,-224.5"/>
<text text-anchor="middle" x="1570" y="-231.5" font-family="Helvetica,sans-Serif" font-size="10.00">source/JetInfoFamily.cpp</text>
</a>
</g>
</g>
<!-- Node26&#45;&gt;Node28 -->
<g id="edge35" class="edge"><title>Node26&#45;&gt;Node28</title>
<path fill="none" stroke="midnightblue" d="M1439.17,-277.304C1470.64,-267.129 1515.49,-252.625 1543.66,-243.516"/>
<polygon fill="midnightblue" stroke="midnightblue" points="1437.9,-274.037 1429.46,-280.444 1440.05,-280.697 1437.9,-274.037"/>
</g>
<!-- Node30&#45;&gt;Node21 -->
<g id="edge68" class="edge"><title>Node30&#45;&gt;Node21</title>
<path fill="none" stroke="midnightblue" d="M1376.89,-331.278C1362.99,-323.247 1346.1,-312.282 1333,-300 1314.37,-282.54 1297.97,-257.053 1290.04,-243.777"/>
<polygon fill="midnightblue" stroke="midnightblue" points="1375.52,-334.522 1385.96,-336.349 1378.94,-328.412 1375.52,-334.522"/>
</g>
<!-- Node30&#45;&gt;Node26 -->
<g id="edge69" class="edge"><title>Node30&#45;&gt;Node26</title>
<path fill="none" stroke="midnightblue" d="M1403,-325.805C1403,-316.91 1403,-306.78 1403,-299.751"/>
<polygon fill="midnightblue" stroke="midnightblue" points="1399.5,-326.083 1403,-336.083 1406.5,-326.083 1399.5,-326.083"/>
</g>
<!-- Node31 -->
<g id="node31" class="node"><title>Node31</title>
<g id="a_node31"><a xlink:href="../../d1/dce/JetInfo_8hh.html" target="_top" xlink:title="include/JetInfo.hh">
<polygon fill="white" stroke="black" points="1652,-224.5 1652,-243.5 1746,-243.5 1746,-224.5 1652,-224.5"/>
<text text-anchor="middle" x="1699" y="-231.5" font-family="Helvetica,sans-Serif" font-size="10.00">include/JetInfo.hh</text>
</a>
</g>
</g>
<!-- Node30&#45;&gt;Node31 -->
<g id="edge39" class="edge"><title>Node30&#45;&gt;Node31</title>
<path fill="none" stroke="midnightblue" d="M1424.95,-330.834C1451.41,-313.956 1494.48,-287.14 1512,-280 1537.98,-269.416 1610.39,-253.343 1657.11,-243.544"/>
<polygon fill="midnightblue" stroke="midnightblue" points="1422.89,-327.998 1416.36,-336.34 1426.67,-333.892 1422.89,-327.998"/>
</g>
<!-- Node48 -->
<g id="node48" class="node"><title>Node48</title>
<g id="a_node48"><a xlink:href="../../da/db5/Constituent_8cpp.html" target="_top" xlink:title="source/Constituent.cpp">
<polygon fill="white" stroke="black" points="1521,-280.5 1521,-299.5 1639,-299.5 1639,-280.5 1521,-280.5"/>
<text text-anchor="middle" x="1580" y="-287.5" font-family="Helvetica,sans-Serif" font-size="10.00">source/Constituent.cpp</text>
</a>
</g>
</g>
<!-- Node30&#45;&gt;Node48 -->
<g id="edge70" class="edge"><title>Node30&#45;&gt;Node48</title>
<path fill="none" stroke="midnightblue" d="M1440.9,-333.436C1474.28,-323.255 1522.1,-308.664 1552.09,-299.516"/>
<polygon fill="midnightblue" stroke="midnightblue" points="1439.59,-330.178 1431.05,-336.444 1441.63,-336.873 1439.59,-330.178"/>
</g>
<!-- Node31&#45;&gt;Node8 -->
<g id="edge60" class="edge"><title>Node31&#45;&gt;Node8</title>
<path fill="none" stroke="midnightblue" d="M1641.91,-224.025C1254.01,-185.659 1152.52,-220.567 768,-188 765.314,-187.773 762.573,-187.518 759.805,-187.242"/>
<polygon fill="midnightblue" stroke="midnightblue" points="1641.7,-227.521 1652,-225.033 1642.4,-220.556 1641.7,-227.521"/>
</g>
<!-- Node31&#45;&gt;Node10 -->
<g id="edge56" class="edge"><title>Node31&#45;&gt;Node10</title>
<path fill="none" stroke="midnightblue" d="M1641.38,-223.981C1125.55,-175.466 991.244,-225.474 478,-188 475.145,-187.792 472.233,-187.557 469.294,-187.301"/>
<polygon fill="midnightblue" stroke="midnightblue" points="1641.41,-227.5 1651.7,-224.96 1642.07,-220.531 1641.41,-227.5"/>
</g>
<!-- Node31&#45;&gt;Node12 -->
<g id="edge59" class="edge"><title>Node31&#45;&gt;Node12</title>
<path fill="none" stroke="midnightblue" d="M1641.68,-224.003C1191.59,-180.696 1074.16,-223.049 627,-188 624.291,-187.788 621.528,-187.55 618.738,-187.291"/>
<polygon fill="midnightblue" stroke="midnightblue" points="1641.41,-227.492 1651.7,-224.975 1642.08,-220.525 1641.41,-227.492"/>
</g>
<!-- Node31&#45;&gt;Node16 -->
<g id="edge55" class="edge"><title>Node31&#45;&gt;Node16</title>
<path fill="none" stroke="midnightblue" d="M1642.03,-224.023C1323.98,-191.111 1240.74,-213.804 926,-188 922.973,-187.752 919.883,-187.48 916.763,-187.19"/>
<polygon fill="midnightblue" stroke="midnightblue" points="1641.69,-227.506 1652,-225.064 1642.41,-220.544 1641.69,-227.506"/>
</g>
<!-- Node31&#45;&gt;Node18 -->
<g id="edge58" class="edge"><title>Node31&#45;&gt;Node18</title>
<path fill="none" stroke="midnightblue" d="M1641.81,-223.979C1390.32,-196.326 1324.14,-210.748 1076,-188 1073.13,-187.737 1070.19,-187.452 1067.23,-187.152"/>
<polygon fill="midnightblue" stroke="midnightblue" points="1641.67,-227.484 1651.99,-225.11 1642.44,-220.527 1641.67,-227.484"/>
</g>
<!-- Node31&#45;&gt;Node22 -->
<g id="edge54" class="edge"><title>Node31&#45;&gt;Node22</title>
<path fill="none" stroke="midnightblue" d="M1641.83,-223.858C1543.33,-209.412 1440.9,-195.946 1375.45,-187.54"/>
<polygon fill="midnightblue" stroke="midnightblue" points="1641.56,-227.356 1651.96,-225.35 1642.58,-220.43 1641.56,-227.356"/>
</g>
<!-- Node31&#45;&gt;Node24 -->
<g id="edge57" class="edge"><title>Node31&#45;&gt;Node24</title>
<path fill="none" stroke="midnightblue" d="M1641.97,-223.958C1458.01,-201.514 1409.51,-206.394 1229,-188 1225.79,-187.673 1222.5,-187.327 1219.18,-186.971"/>
<polygon fill="midnightblue" stroke="midnightblue" points="1641.63,-227.442 1651.98,-225.19 1642.48,-220.494 1641.63,-227.442"/>
</g>
<!-- Node32 -->
<g id="node32" class="node"><title>Node32</title>
<g id="a_node32"><a xlink:href="../../db/d60/Singlet_8hh.html" target="_top" xlink:title="include/Singlet.hh">
<polygon fill="white" stroke="red" points="1741,-168.5 1741,-187.5 1835,-187.5 1835,-168.5 1741,-168.5"/>
<text text-anchor="middle" x="1788" y="-175.5" font-family="Helvetica,sans-Serif" font-size="10.00">include/Singlet.hh</text>
</a>
</g>
</g>
<!-- Node31&#45;&gt;Node32 -->
<g id="edge40" class="edge"><title>Node31&#45;&gt;Node32</title>
<path fill="none" stroke="midnightblue" d="M1722.24,-218.901C1738.56,-208.999 1759.87,-196.071 1773.74,-187.655"/>
<polygon fill="midnightblue" stroke="midnightblue" points="1720.03,-216.144 1713.3,-224.324 1723.66,-222.129 1720.03,-216.144"/>
</g>
<!-- Node38 -->
<g id="node38" class="node"><title>Node38</title>
<g id="a_node38"><a xlink:href="../../d4/d4f/Multiplet_8cpp.html" target="_top" xlink:title="source/Multiplet.cpp">
<polygon fill="white" stroke="black" points="1767,-56.5 1767,-75.5 1871,-75.5 1871,-56.5 1767,-56.5"/>
<text text-anchor="middle" x="1819" y="-63.5" font-family="Helvetica,sans-Serif" font-size="10.00">source/Multiplet.cpp</text>
</a>
</g>
</g>
<!-- Node31&#45;&gt;Node38 -->
<g id="edge63" class="edge"><title>Node31&#45;&gt;Node38</title>
<path fill="none" stroke="midnightblue" d="M1756.45,-228.931C1822.32,-223.25 1925.18,-210.957 1956,-188 1978.32,-171.377 1977.61,-159.082 1984,-132 1986.04,-123.349 1989.4,-119.064 1984,-112 1970.26,-94.0077 1914.34,-81.4827 1871.36,-74.2961"/>
<polygon fill="midnightblue" stroke="midnightblue" points="1755.89,-225.466 1746.21,-229.787 1756.47,-232.442 1755.89,-225.466"/>
</g>
<!-- Node41 -->
<g id="node41" class="node"><title>Node41</title>
<g id="a_node41"><a xlink:href="../../db/d31/Sort_8hh.html" target="_top" xlink:title="include/Sort.hh">
<polygon fill="white" stroke="red" points="1865,-168.5 1865,-187.5 1947,-187.5 1947,-168.5 1865,-168.5"/>
<text text-anchor="middle" x="1906" y="-175.5" font-family="Helvetica,sans-Serif" font-size="10.00">include/Sort.hh</text>
</a>
</g>
</g>
<!-- Node31&#45;&gt;Node41 -->
<g id="edge52" class="edge"><title>Node31&#45;&gt;Node41</title>
<path fill="none" stroke="midnightblue" d="M1741.82,-221.829C1780.91,-211.633 1837.83,-196.782 1873.35,-187.516"/>
<polygon fill="midnightblue" stroke="midnightblue" points="1740.59,-218.533 1731.8,-224.444 1742.36,-225.306 1740.59,-218.533"/>
</g>
<!-- Node42 -->
<g id="node42" class="node"><title>Node42</title>
<g id="a_node42"><a xlink:href="../../d6/d2d/InfoRecombiner_8cpp.html" target="_top" xlink:title="source/InfoRecombiner.cpp">
<polygon fill="white" stroke="black" points="2014.5,-168.5 2014.5,-187.5 2151.5,-187.5 2151.5,-168.5 2014.5,-168.5"/>
<text text-anchor="middle" x="2083" y="-175.5" font-family="Helvetica,sans-Serif" font-size="10.00">source/InfoRecombiner.cpp</text>
</a>
</g>
</g>
<!-- Node31&#45;&gt;Node42 -->
<g id="edge61" class="edge"><title>Node31&#45;&gt;Node42</title>
<path fill="none" stroke="midnightblue" d="M1756.25,-224.95C1827.65,-214.908 1949.22,-197.813 2022.23,-187.545"/>
<polygon fill="midnightblue" stroke="midnightblue" points="1755.5,-221.52 1746.09,-226.379 1756.48,-228.452 1755.5,-221.52"/>
</g>
<!-- Node43 -->
<g id="node43" class="node"><title>Node43</title>
<g id="a_node43"><a xlink:href="../../db/d6a/JetInfo_8cpp.html" target="_top" xlink:title="source/JetInfo.cpp">
<polygon fill="white" stroke="black" points="2170,-168.5 2170,-187.5 2268,-187.5 2268,-168.5 2170,-168.5"/>
<text text-anchor="middle" x="2219" y="-175.5" font-family="Helvetica,sans-Serif" font-size="10.00">source/JetInfo.cpp</text>
</a>
</g>
</g>
<!-- Node31&#45;&gt;Node43 -->
<g id="edge62" class="edge"><title>Node31&#45;&gt;Node43</title>
<path fill="none" stroke="midnightblue" d="M1756.3,-228.473C1843.74,-221.327 2015.64,-206.342 2161,-188 2163.93,-187.63 2166.94,-187.228 2169.98,-186.807"/>
<polygon fill="midnightblue" stroke="midnightblue" points="1756,-224.986 1746.32,-229.285 1756.57,-231.963 1756,-224.986"/>
</g>
<!-- Node44 -->
<g id="node44" class="node"><title>Node44</title>
<g id="a_node44"><a xlink:href="../../d1/d1f/Reconstruction_8cpp.html" target="_top" xlink:title="source/Reconstruction.cpp">
<polygon fill="white" stroke="black" points="2286,-168.5 2286,-187.5 2420,-187.5 2420,-168.5 2286,-168.5"/>
<text text-anchor="middle" x="2353" y="-175.5" font-family="Helvetica,sans-Serif" font-size="10.00">source/Reconstruction.cpp</text>
</a>
</g>
</g>
<!-- Node31&#45;&gt;Node44 -->
<g id="edge64" class="edge"><title>Node31&#45;&gt;Node44</title>
<path fill="none" stroke="midnightblue" d="M1756.53,-229.289C1860.54,-222.411 2086.7,-206.668 2277,-188 2279.91,-187.715 2282.88,-187.412 2285.88,-187.097"/>
<polygon fill="midnightblue" stroke="midnightblue" points="1756.01,-225.817 1746.26,-229.967 1756.47,-232.801 1756.01,-225.817"/>
</g>
<!-- Node45 -->
<g id="node45" class="node"><title>Node45</title>
<g id="a_node45"><a xlink:href="../../d2/d35/Tagger_8cpp.html" target="_top" xlink:title="source/Tagger.cpp">
<polygon fill="white" stroke="black" points="1397,-168.5 1397,-187.5 1495,-187.5 1495,-168.5 1397,-168.5"/>
<text text-anchor="middle" x="1446" y="-175.5" font-family="Helvetica,sans-Serif" font-size="10.00">source/Tagger.cpp</text>
</a>
</g>
</g>
<!-- Node31&#45;&gt;Node45 -->
<g id="edge65" class="edge"><title>Node31&#45;&gt;Node45</title>
<path fill="none" stroke="midnightblue" d="M1649.08,-222.346C1601.27,-212.141 1530.05,-196.94 1485.9,-187.516"/>
<polygon fill="midnightblue" stroke="midnightblue" points="1648.4,-225.779 1658.91,-224.444 1649.86,-218.933 1648.4,-225.779"/>
</g>
<!-- Node46 -->
<g id="node46" class="node"><title>Node46</title>
<g id="a_node46"><a xlink:href="../../df/d59/Types_8cpp.html" target="_top" xlink:title="source/Types.cpp">
<polygon fill="white" stroke="black" points="1513.5,-168.5 1513.5,-187.5 1608.5,-187.5 1608.5,-168.5 1513.5,-168.5"/>
<text text-anchor="middle" x="1561" y="-175.5" font-family="Helvetica,sans-Serif" font-size="10.00">source/Types.cpp</text>
</a>
</g>
</g>
<!-- Node31&#45;&gt;Node46 -->
<g id="edge66" class="edge"><title>Node31&#45;&gt;Node46</title>
<path fill="none" stroke="midnightblue" d="M1667.75,-220.772C1641.83,-210.629 1605.64,-196.467 1582.76,-187.516"/>
<polygon fill="midnightblue" stroke="midnightblue" points="1666.55,-224.059 1677.13,-224.444 1669.1,-217.54 1666.55,-224.059"/>
</g>
<!-- Node47 -->
<g id="node47" class="node"><title>Node47</title>
<g id="a_node47"><a xlink:href="../../dd/d4e/Vector_8cpp.html" target="_top" xlink:title="source/Vector.cpp">
<polygon fill="white" stroke="black" points="1627,-168.5 1627,-187.5 1723,-187.5 1723,-168.5 1627,-168.5"/>
<text text-anchor="middle" x="1675" y="-175.5" font-family="Helvetica,sans-Serif" font-size="10.00">source/Vector.cpp</text>
</a>
</g>
</g>
<!-- Node31&#45;&gt;Node47 -->
<g id="edge67" class="edge"><title>Node31&#45;&gt;Node47</title>
<path fill="none" stroke="midnightblue" d="M1690.86,-214.69C1686.82,-205.589 1682.12,-195.014 1678.89,-187.751"/>
<polygon fill="midnightblue" stroke="midnightblue" points="1687.78,-216.366 1695.04,-224.083 1694.17,-213.523 1687.78,-216.366"/>
</g>
<!-- Node33 -->
<g id="node33" class="node"><title>Node33</title>
<g id="a_node33"><a xlink:href="../../d2/d41/BranchTagger_8hh.html" target="_top" xlink:title="include/BranchTagger.hh">
<polygon fill="white" stroke="red" points="1849.5,-112.5 1849.5,-131.5 1974.5,-131.5 1974.5,-112.5 1849.5,-112.5"/>
<text text-anchor="middle" x="1912" y="-119.5" font-family="Helvetica,sans-Serif" font-size="10.00">include/BranchTagger.hh</text>
</a>
</g>
</g>
<!-- Node32&#45;&gt;Node33 -->
<g id="edge41" class="edge"><title>Node32&#45;&gt;Node33</title>
<path fill="none" stroke="midnightblue" d="M1817.01,-164.368C1840.23,-154.255 1872.16,-140.349 1892.44,-131.516"/>
<polygon fill="midnightblue" stroke="midnightblue" points="1815.42,-161.242 1807.65,-168.444 1818.21,-167.66 1815.42,-161.242"/>
</g>
<!-- Node34 -->
<g id="node34" class="node"><title>Node34</title>
<g id="a_node34"><a xlink:href="../../d0/d32/TwoBody_8hh.html" target="_top" xlink:title="include/TwoBody.hh">
<polygon fill="white" stroke="red" points="1330.5,-56.5 1330.5,-75.5 1435.5,-75.5 1435.5,-56.5 1330.5,-56.5"/>
<text text-anchor="middle" x="1383" y="-63.5" font-family="Helvetica,sans-Serif" font-size="10.00">include/TwoBody.hh</text>
</a>
</g>
</g>
<!-- Node32&#45;&gt;Node34 -->
<g id="edge42" class="edge"><title>Node32&#45;&gt;Node34</title>
<path fill="none" stroke="midnightblue" d="M1730.67,-168.022C1650.37,-159.198 1486.73,-164.418 1431,-132 1408.2,-118.739 1393,-89.9 1386.54,-75.5151"/>
<polygon fill="midnightblue" stroke="midnightblue" points="1730.61,-171.541 1740.97,-169.3 1731.47,-164.595 1730.61,-171.541"/>
</g>
<!-- Node35 -->
<g id="node35" class="node"><title>Node35</title>
<g id="a_node35"><a xlink:href="../../df/d3a/Doublet_8hh.html" target="_top" xlink:title="include/Doublet.hh">
<polygon fill="white" stroke="red" points="1293,-0.5 1293,-19.5 1391,-19.5 1391,-0.5 1293,-0.5"/>
<text text-anchor="middle" x="1342" y="-7.5" font-family="Helvetica,sans-Serif" font-size="10.00">include/Doublet.hh</text>
</a>
</g>
</g>
<!-- Node32&#45;&gt;Node35 -->
<g id="edge48" class="edge"><title>Node32&#45;&gt;Node35</title>
<path fill="none" stroke="midnightblue" d="M1730.77,-167.943C1585.05,-149.877 1539.18,-181.224 1405,-132 1363.22,-116.674 1342.89,-115.293 1322,-76 1312.02,-57.2347 1325.96,-32.7231 1335.12,-19.8232"/>
<polygon fill="midnightblue" stroke="midnightblue" points="1730.6,-171.451 1740.97,-169.268 1731.51,-164.509 1730.6,-171.451"/>
</g>
<!-- Node36 -->
<g id="node36" class="node"><title>Node36</title>
<g id="a_node36"><a xlink:href="../../d0/d7f/Multiplet_8hh.html" target="_top" xlink:title="include/Multiplet.hh">
<polygon fill="white" stroke="black" points="1449.5,-112.5 1449.5,-131.5 1550.5,-131.5 1550.5,-112.5 1449.5,-112.5"/>
<text text-anchor="middle" x="1500" y="-119.5" font-family="Helvetica,sans-Serif" font-size="10.00">include/Multiplet.hh</text>
</a>
</g>
</g>
<!-- Node32&#45;&gt;Node36 -->
<g id="edge44" class="edge"><title>Node32&#45;&gt;Node36</title>
<path fill="none" stroke="midnightblue" d="M1732.2,-166.537C1677.77,-156.332 1596,-140.999 1545.42,-131.516"/>
<polygon fill="midnightblue" stroke="midnightblue" points="1731.89,-170.041 1742.37,-168.444 1733.18,-163.161 1731.89,-170.041"/>
</g>
<!-- Node37 -->
<g id="node37" class="node"><title>Node37</title>
<g id="a_node37"><a xlink:href="../../d0/d55/ThreeBody_8hh.html" target="_top" xlink:title="include/ThreeBody.hh">
<polygon fill="white" stroke="red" points="1453.5,-56.5 1453.5,-75.5 1564.5,-75.5 1564.5,-56.5 1453.5,-56.5"/>
<text text-anchor="middle" x="1509" y="-63.5" font-family="Helvetica,sans-Serif" font-size="10.00">include/ThreeBody.hh</text>
</a>
</g>
</g>
<!-- Node32&#45;&gt;Node37 -->
<g id="edge50" class="edge"><title>Node32&#45;&gt;Node37</title>
<path fill="none" stroke="midnightblue" d="M1730.9,-168.134C1651.99,-160.588 1482.3,-178.724 1441,-132 1421.86,-110.341 1461.69,-87.5598 1488.1,-75.5619"/>
<polygon fill="midnightblue" stroke="midnightblue" points="1730.63,-171.625 1740.97,-169.314 1731.44,-164.673 1730.63,-171.625"/>
</g>
<!-- Node39 -->
<g id="node39" class="node"><title>Node39</title>
<g id="a_node39"><a xlink:href="../../dd/d58/GlobalObservables_8hh.html" target="_top" xlink:title="include/GlobalObservables.hh">
<polygon fill="white" stroke="red" points="1569,-112.5 1569,-131.5 1715,-131.5 1715,-112.5 1569,-112.5"/>
<text text-anchor="middle" x="1642" y="-119.5" font-family="Helvetica,sans-Serif" font-size="10.00">include/GlobalObservables.hh</text>
</a>
</g>
</g>
<!-- Node32&#45;&gt;Node39 -->
<g id="edge49" class="edge"><title>Node32&#45;&gt;Node39</title>
<path fill="none" stroke="midnightblue" d="M1755.3,-164.906C1727.85,-154.754 1689.33,-140.506 1665.03,-131.516"/>
<polygon fill="midnightblue" stroke="midnightblue" points="1754.27,-168.257 1764.87,-168.444 1756.7,-161.692 1754.27,-168.257"/>
</g>
<!-- Node40 -->
<g id="node40" class="node"><title>Node40</title>
<g id="a_node40"><a xlink:href="../../d5/dd3/Singlet_8cpp.html" target="_top" xlink:title="source/Singlet.cpp">
<polygon fill="white" stroke="black" points="1733,-112.5 1733,-131.5 1831,-131.5 1831,-112.5 1733,-112.5"/>
<text text-anchor="middle" x="1782" y="-119.5" font-family="Helvetica,sans-Serif" font-size="10.00">source/Singlet.cpp</text>
</a>
</g>
</g>
<!-- Node32&#45;&gt;Node40 -->
<g id="edge51" class="edge"><title>Node32&#45;&gt;Node40</title>
<path fill="none" stroke="midnightblue" d="M1785.9,-158.101C1784.9,-149.136 1783.76,-138.858 1782.97,-131.751"/>
<polygon fill="midnightblue" stroke="midnightblue" points="1782.43,-158.531 1787.01,-168.083 1789.38,-157.758 1782.43,-158.531"/>
</g>
<!-- Node34&#45;&gt;Node35 -->
<g id="edge43" class="edge"><title>Node34&#45;&gt;Node35</title>
<path fill="none" stroke="midnightblue" d="M1369.98,-47.8554C1362.88,-38.5048 1354.4,-27.3265 1348.64,-19.7511"/>
<polygon fill="midnightblue" stroke="midnightblue" points="1367.39,-50.235 1376.23,-56.083 1372.97,-46.002 1367.39,-50.235"/>
</g>
<!-- Node36&#45;&gt;Node34 -->
<g id="edge45" class="edge"><title>Node36&#45;&gt;Node34</title>
<path fill="none" stroke="midnightblue" d="M1472.34,-108.232C1450.45,-98.1312 1420.5,-84.3091 1401.45,-75.5164"/>
<polygon fill="midnightblue" stroke="midnightblue" points="1470.91,-111.431 1481.46,-112.444 1473.85,-105.075 1470.91,-111.431"/>
</g>
<!-- Node36&#45;&gt;Node37 -->
<g id="edge46" class="edge"><title>Node36&#45;&gt;Node37</title>
<path fill="none" stroke="midnightblue" d="M1503.15,-102.101C1504.64,-93.1357 1506.36,-82.8579 1507.54,-75.7511"/>
<polygon fill="midnightblue" stroke="midnightblue" points="1499.68,-101.644 1501.49,-112.083 1506.58,-102.794 1499.68,-101.644"/>
</g>
<!-- Node36&#45;&gt;Node38 -->
<g id="edge47" class="edge"><title>Node36&#45;&gt;Node38</title>
<path fill="none" stroke="midnightblue" d="M1560.68,-110.727C1620.97,-100.523 1712.32,-85.0583 1768.69,-75.5164"/>
<polygon fill="midnightblue" stroke="midnightblue" points="1559.82,-107.324 1550.55,-112.444 1560.99,-114.225 1559.82,-107.324"/>
</g>
<!-- Node41&#45;&gt;Node33 -->
<g id="edge53" class="edge"><title>Node41&#45;&gt;Node33</title>
<path fill="none" stroke="midnightblue" d="M1908.1,-158.101C1909.1,-149.136 1910.24,-138.858 1911.03,-131.751"/>
<polygon fill="midnightblue" stroke="midnightblue" points="1904.62,-157.758 1906.99,-168.083 1911.57,-158.531 1904.62,-157.758"/>
</g>
</g>
</svg>
