<?xml version="1.0" encoding="UTF-8" standalone="no"?>
<!DOCTYPE svg PUBLIC "-//W3C//DTD SVG 1.1//EN"
 "http://www.w3.org/Graphics/SVG/1.1/DTD/svg11.dtd">
<!-- Generated by graphviz version 2.38.0 (20140413.2041)
 -->
<!-- Title: source/File.cpp Pages: 1 -->
<svg width="1983pt" height="599pt"
 viewBox="0.00 0.00 1982.50 599.00" xmlns="http://www.w3.org/2000/svg" xmlns:xlink="http://www.w3.org/1999/xlink">
<g id="graph0" class="graph" transform="scale(1 1) rotate(0) translate(4 595)">
<title>source/File.cpp</title>
<polygon fill="white" stroke="none" points="-4,4 -4,-595 1978.5,-595 1978.5,4 -4,4"/>
<!-- Node1 -->
<g id="node1" class="node"><title>Node1</title>
<polygon fill="#bfbfbf" stroke="black" points="1098,-571.5 1098,-590.5 1181,-590.5 1181,-571.5 1098,-571.5"/>
<text text-anchor="middle" x="1139.5" y="-578.5" font-family="Helvetica,sans-Serif" font-size="10.00">source/File.cpp</text>
</g>
<!-- Node2 -->
<g id="node2" class="node"><title>Node2</title>
<polygon fill="white" stroke="#bfbfbf" points="996,-515.5 996,-534.5 1043,-534.5 1043,-515.5 996,-515.5"/>
<text text-anchor="middle" x="1019.5" y="-522.5" font-family="Helvetica,sans-Serif" font-size="10.00">TFile.h</text>
</g>
<!-- Node1&#45;&gt;Node2 -->
<g id="edge1" class="edge"><title>Node1&#45;&gt;Node2</title>
<path fill="none" stroke="midnightblue" d="M1120.49,-571.444C1100.91,-562.636 1070.19,-548.812 1047.77,-538.722"/>
<polygon fill="midnightblue" stroke="midnightblue" points="1048.98,-535.428 1038.43,-534.516 1046.11,-541.812 1048.98,-535.428"/>
</g>
<!-- Node3 -->
<g id="node3" class="node"><title>Node3</title>
<polygon fill="white" stroke="#bfbfbf" points="1061.5,-515.5 1061.5,-534.5 1111.5,-534.5 1111.5,-515.5 1061.5,-515.5"/>
<text text-anchor="middle" x="1086.5" y="-522.5" font-family="Helvetica,sans-Serif" font-size="10.00">TTree.h</text>
</g>
<!-- Node1&#45;&gt;Node3 -->
<g id="edge2" class="edge"><title>Node1&#45;&gt;Node3</title>
<path fill="none" stroke="midnightblue" d="M1130.75,-571.083C1123.03,-563.22 1111.6,-551.569 1102.28,-542.081"/>
<polygon fill="midnightblue" stroke="midnightblue" points="1104.59,-539.436 1095.09,-534.751 1099.6,-544.34 1104.59,-539.436"/>
</g>
<!-- Node4 -->
<g id="node4" class="node"><title>Node4</title>
<g id="a_node4"><a xlink:href="../../d6/dd8/Types_8hh.html" target="_top" xlink:title="Types.hh">
<polygon fill="white" stroke="black" points="968,-347.5 968,-366.5 1025,-366.5 1025,-347.5 968,-347.5"/>
<text text-anchor="middle" x="996.5" y="-354.5" font-family="Helvetica,sans-Serif" font-size="10.00">Types.hh</text>
</a>
</g>
</g>
<!-- Node1&#45;&gt;Node4 -->
<g id="edge3" class="edge"><title>Node1&#45;&gt;Node4</title>
<path fill="none" stroke="midnightblue" d="M1138.04,-571.187C1135.66,-558.301 1130.21,-533.806 1120.5,-515 1090.91,-457.659 1038.96,-400.859 1012.69,-374.014"/>
<polygon fill="midnightblue" stroke="midnightblue" points="1014.94,-371.313 1005.42,-366.677 1009.97,-376.242 1014.94,-371.313"/>
</g>
<!-- Node20 -->
<g id="node20" class="node"><title>Node20</title>
<g id="a_node20"><a xlink:href="../../de/d83/File_8hh.html" target="_top" xlink:title="File.hh">
<polygon fill="white" stroke="black" points="1194.5,-515.5 1194.5,-534.5 1240.5,-534.5 1240.5,-515.5 1194.5,-515.5"/>
<text text-anchor="middle" x="1217.5" y="-522.5" font-family="Helvetica,sans-Serif" font-size="10.00">File.hh</text>
</a>
</g>
</g>
<!-- Node1&#45;&gt;Node20 -->
<g id="edge19" class="edge"><title>Node1&#45;&gt;Node20</title>
<path fill="none" stroke="midnightblue" d="M1152.03,-571.324C1164.09,-562.979 1182.53,-550.212 1196.77,-540.352"/>
<polygon fill="midnightblue" stroke="midnightblue" points="1198.77,-543.224 1205,-534.655 1194.78,-537.469 1198.77,-543.224"/>
</g>
<!-- Node48 -->
<g id="node48" class="node"><title>Node48</title>
<g id="a_node48"><a xlink:href="../../d8/de8/Debug_8hh.html" target="_top" xlink:title="Debug.hh">
<polygon fill="white" stroke="black" points="1815,-291.5 1815,-310.5 1874,-310.5 1874,-291.5 1815,-291.5"/>
<text text-anchor="middle" x="1844.5" y="-298.5" font-family="Helvetica,sans-Serif" font-size="10.00">Debug.hh</text>
</a>
</g>
</g>
<!-- Node1&#45;&gt;Node48 -->
<g id="edge54" class="edge"><title>Node1&#45;&gt;Node48</title>
<path fill="none" stroke="midnightblue" d="M1181.12,-574.203C1265.86,-561.23 1450.5,-526.483 1450.5,-470 1450.5,-470 1450.5,-470 1450.5,-412 1450.5,-338.95 1704.93,-312.271 1804.87,-304.609"/>
<polygon fill="midnightblue" stroke="midnightblue" points="1805.17,-308.097 1814.89,-303.866 1804.65,-301.116 1805.17,-308.097"/>
</g>
<!-- Node5 -->
<g id="node5" class="node"><title>Node5</title>
<polygon fill="white" stroke="#bfbfbf" points="920,-67.5 920,-86.5 961,-86.5 961,-67.5 920,-67.5"/>
<text text-anchor="middle" x="940.5" y="-74.5" font-family="Helvetica,sans-Serif" font-size="10.00">string</text>
</g>
<!-- Node4&#45;&gt;Node5 -->
<g id="edge4" class="edge"><title>Node4&#45;&gt;Node5</title>
<path fill="none" stroke="midnightblue" d="M967.764,-347.967C926.271,-334.409 854.5,-302.756 854.5,-246 854.5,-246 854.5,-246 854.5,-188 854.5,-146.583 892.807,-111.453 918.288,-92.6658"/>
<polygon fill="midnightblue" stroke="midnightblue" points="920.546,-95.3555 926.683,-86.7187 916.5,-89.6436 920.546,-95.3555"/>
</g>
<!-- Node6 -->
<g id="node6" class="node"><title>Node6</title>
<g id="a_node6"><a xlink:href="../../dc/d45/Units_8hh.html" target="_top" xlink:title="Units.hh">
<polygon fill="white" stroke="black" points="849,-67.5 849,-86.5 902,-86.5 902,-67.5 849,-67.5"/>
<text text-anchor="middle" x="875.5" y="-74.5" font-family="Helvetica,sans-Serif" font-size="10.00">Units.hh</text>
</a>
</g>
</g>
<!-- Node4&#45;&gt;Node6 -->
<g id="edge5" class="edge"><title>Node4&#45;&gt;Node6</title>
<path fill="none" stroke="midnightblue" d="M967.978,-351.927C917.223,-342.894 816.5,-316.134 816.5,-246 816.5,-246 816.5,-246 816.5,-188 816.5,-151.024 842.709,-114.472 860.191,-94.2051"/>
<polygon fill="midnightblue" stroke="midnightblue" points="862.975,-96.3434 867.047,-86.5623 857.764,-91.6691 862.975,-96.3434"/>
</g>
<!-- Node7 -->
<g id="node7" class="node"><title>Node7</title>
<polygon fill="white" stroke="#bfbfbf" points="1528.5,-6 1528.5,-25 1638.5,-25 1638.5,-6 1528.5,-6"/>
<text text-anchor="middle" x="1583.5" y="-13" font-family="Helvetica,sans-Serif" font-size="10.00">boost/units/scale.hpp</text>
</g>
<!-- Node6&#45;&gt;Node7 -->
<g id="edge6" class="edge"><title>Node6&#45;&gt;Node7</title>
<path fill="none" stroke="midnightblue" d="M902.124,-68.7582C905.267,-68.0776 908.443,-67.4684 911.5,-67 1179.07,-25.9965 1251.49,-69.034 1519.5,-31 1526.32,-30.0321 1533.49,-28.7124 1540.46,-27.2611"/>
<polygon fill="midnightblue" stroke="midnightblue" points="1541.46,-30.6266 1550.47,-25.0664 1539.96,-23.789 1541.46,-30.6266"/>
</g>
<!-- Node8 -->
<g id="node8" class="node"><title>Node8</title>
<polygon fill="white" stroke="#bfbfbf" points="0,-0.5 0,-30.5 125,-30.5 125,-0.5 0,-0.5"/>
<text text-anchor="start" x="8" y="-18.5" font-family="Helvetica,sans-Serif" font-size="10.00">boost/units/make_scaled</text>
<text text-anchor="middle" x="62.5" y="-7.5" font-family="Helvetica,sans-Serif" font-size="10.00">_unit.hpp</text>
</g>
<!-- Node6&#45;&gt;Node8 -->
<g id="edge7" class="edge"><title>Node6&#45;&gt;Node8</title>
<path fill="none" stroke="midnightblue" d="M848.751,-75.7367C753.157,-74.5111 419.42,-67.7882 135.227,-31.1083"/>
<polygon fill="midnightblue" stroke="midnightblue" points="135.508,-27.6154 125.139,-29.7908 134.602,-34.5564 135.508,-27.6154"/>
</g>
<!-- Node9 -->
<g id="node9" class="node"><title>Node9</title>
<polygon fill="white" stroke="#bfbfbf" points="143,-6 143,-25 256,-25 256,-6 143,-6"/>
<text text-anchor="middle" x="199.5" y="-13" font-family="Helvetica,sans-Serif" font-size="10.00">boost/units/config.hpp</text>
</g>
<!-- Node6&#45;&gt;Node9 -->
<g id="edge8" class="edge"><title>Node6&#45;&gt;Node9</title>
<path fill="none" stroke="midnightblue" d="M848.847,-75.4244C763.417,-73.284 488.891,-64.1105 264.5,-31 257.66,-29.9908 250.469,-28.6619 243.465,-27.2177"/>
<polygon fill="midnightblue" stroke="midnightblue" points="243.911,-23.7335 233.397,-25.0432 242.433,-30.5757 243.911,-23.7335"/>
</g>
<!-- Node10 -->
<g id="node10" class="node"><title>Node10</title>
<polygon fill="white" stroke="#bfbfbf" points="274,-6 274,-25 431,-25 431,-6 274,-6"/>
<text text-anchor="middle" x="352.5" y="-13" font-family="Helvetica,sans-Serif" font-size="10.00">boost/units/base_dimension.hpp</text>
</g>
<!-- Node6&#45;&gt;Node10 -->
<g id="edge9" class="edge"><title>Node6&#45;&gt;Node10</title>
<path fill="none" stroke="midnightblue" d="M848.953,-73.8147C780.909,-68.0918 594.765,-51.6695 440.5,-31 430.932,-29.7181 420.806,-28.2005 410.96,-26.6382"/>
<polygon fill="midnightblue" stroke="midnightblue" points="411.266,-23.1425 400.836,-25.0019 410.149,-30.0528 411.266,-23.1425"/>
</g>
<!-- Node11 -->
<g id="node11" class="node"><title>Node11</title>
<polygon fill="white" stroke="#bfbfbf" points="449.5,-6 449.5,-25 577.5,-25 577.5,-6 449.5,-6"/>
<text text-anchor="middle" x="513.5" y="-13" font-family="Helvetica,sans-Serif" font-size="10.00">boost/units/base_unit.hpp</text>
</g>
<!-- Node6&#45;&gt;Node11 -->
<g id="edge10" class="edge"><title>Node6&#45;&gt;Node11</title>
<path fill="none" stroke="midnightblue" d="M848.743,-72.2136C797.66,-64.9005 682.75,-48.0451 586.5,-31 579.415,-29.7453 571.958,-28.3503 564.626,-26.9355"/>
<polygon fill="midnightblue" stroke="midnightblue" points="565.238,-23.489 554.752,-25.0051 563.895,-30.3589 565.238,-23.489"/>
</g>
<!-- Node12 -->
<g id="node12" class="node"><title>Node12</title>
<polygon fill="white" stroke="#bfbfbf" points="595.5,-6 595.5,-25 743.5,-25 743.5,-6 595.5,-6"/>
<text text-anchor="middle" x="669.5" y="-13" font-family="Helvetica,sans-Serif" font-size="10.00">boost/units/make_system.hpp</text>
</g>
<!-- Node6&#45;&gt;Node12 -->
<g id="edge11" class="edge"><title>Node6&#45;&gt;Node12</title>
<path fill="none" stroke="midnightblue" d="M848.991,-68.3432C813.453,-58.0787 750.084,-39.7754 708.936,-27.8905"/>
<polygon fill="midnightblue" stroke="midnightblue" points="709.818,-24.5022 699.239,-25.0898 707.875,-31.2273 709.818,-24.5022"/>
</g>
<!-- Node13 -->
<g id="node13" class="node"><title>Node13</title>
<polygon fill="white" stroke="#bfbfbf" points="762,-0.5 762,-30.5 861,-30.5 861,-0.5 762,-0.5"/>
<text text-anchor="start" x="770" y="-18.5" font-family="Helvetica,sans-Serif" font-size="10.00">boost/units/derived</text>
<text text-anchor="middle" x="811.5" y="-7.5" font-family="Helvetica,sans-Serif" font-size="10.00">_dimension.hpp</text>
</g>
<!-- Node6&#45;&gt;Node13 -->
<g id="edge12" class="edge"><title>Node6&#45;&gt;Node13</title>
<path fill="none" stroke="midnightblue" d="M866.33,-67.4751C857.905,-59.6426 845.075,-47.7145 833.944,-37.3656"/>
<polygon fill="midnightblue" stroke="midnightblue" points="836.291,-34.7685 826.584,-30.523 831.524,-39.8953 836.291,-34.7685"/>
</g>
<!-- Node14 -->
<g id="node14" class="node"><title>Node14</title>
<polygon fill="white" stroke="#bfbfbf" points="879,-6 879,-25 1000,-25 1000,-6 879,-6"/>
<text text-anchor="middle" x="939.5" y="-13" font-family="Helvetica,sans-Serif" font-size="10.00">boost/units/quantity.hpp</text>
</g>
<!-- Node6&#45;&gt;Node14 -->
<g id="edge13" class="edge"><title>Node6&#45;&gt;Node14</title>
<path fill="none" stroke="midnightblue" d="M884.67,-67.4751C894.65,-58.1966 910.812,-43.1706 923.009,-31.831"/>
<polygon fill="midnightblue" stroke="midnightblue" points="925.407,-34.3814 930.347,-25.0091 920.64,-29.2547 925.407,-34.3814"/>
</g>
<!-- Node15 -->
<g id="node15" class="node"><title>Node15</title>
<polygon fill="white" stroke="#bfbfbf" points="1018,-0.5 1018,-30.5 1133,-30.5 1133,-0.5 1018,-0.5"/>
<text text-anchor="start" x="1026" y="-18.5" font-family="Helvetica,sans-Serif" font-size="10.00">boost/units/base_units</text>
<text text-anchor="middle" x="1075.5" y="-7.5" font-family="Helvetica,sans-Serif" font-size="10.00">/metric/barn.hpp</text>
</g>
<!-- Node6&#45;&gt;Node15 -->
<g id="edge14" class="edge"><title>Node6&#45;&gt;Node15</title>
<path fill="none" stroke="midnightblue" d="M902.058,-68.0989C931.516,-59.3353 979.922,-44.9343 1018.12,-33.5701"/>
<polygon fill="midnightblue" stroke="midnightblue" points="1019.51,-36.8087 1028.1,-30.6024 1017.51,-30.0993 1019.51,-36.8087"/>
</g>
<!-- Node16 -->
<g id="node16" class="node"><title>Node16</title>
<polygon fill="white" stroke="#bfbfbf" points="1151,-6 1151,-25 1264,-25 1264,-6 1151,-6"/>
<text text-anchor="middle" x="1207.5" y="-13" font-family="Helvetica,sans-Serif" font-size="10.00">boost/units/cmath.hpp</text>
</g>
<!-- Node6&#45;&gt;Node16 -->
<g id="edge15" class="edge"><title>Node6&#45;&gt;Node16</title>
<path fill="none" stroke="midnightblue" d="M902.175,-69.046C905.309,-68.3137 908.469,-67.6137 911.5,-67 1013.34,-46.3785 1040.41,-50.3216 1142.5,-31 1148.61,-29.843 1155.03,-28.5318 1161.35,-27.1822"/>
<polygon fill="midnightblue" stroke="midnightblue" points="1162.12,-30.5963 1171.15,-25.0466 1160.63,-23.7569 1162.12,-30.5963"/>
</g>
<!-- Node17 -->
<g id="node17" class="node"><title>Node17</title>
<polygon fill="white" stroke="#bfbfbf" points="1757,-0.5 1757,-30.5 1862,-30.5 1862,-0.5 1757,-0.5"/>
<text text-anchor="start" x="1765" y="-18.5" font-family="Helvetica,sans-Serif" font-size="10.00">boost/units/systems</text>
<text text-anchor="middle" x="1809.5" y="-7.5" font-family="Helvetica,sans-Serif" font-size="10.00">/si/io.hpp</text>
</g>
<!-- Node6&#45;&gt;Node17 -->
<g id="edge16" class="edge"><title>Node6&#45;&gt;Node17</title>
<path fill="none" stroke="midnightblue" d="M902.119,-68.7271C905.263,-68.0521 908.441,-67.4527 911.5,-67 1235.47,-19.0542 1320.78,-53.603 1647.5,-31 1680.13,-28.7424 1716.4,-25.5589 1746.34,-22.7498"/>
<polygon fill="midnightblue" stroke="midnightblue" points="1747.02,-26.2009 1756.65,-21.7739 1746.36,-19.2321 1747.02,-26.2009"/>
</g>
<!-- Node18 -->
<g id="node18" class="node"><title>Node18</title>
<polygon fill="white" stroke="#bfbfbf" points="1282,-0.5 1282,-30.5 1387,-30.5 1387,-0.5 1282,-0.5"/>
<text text-anchor="start" x="1290" y="-18.5" font-family="Helvetica,sans-Serif" font-size="10.00">boost/units/systems</text>
<text text-anchor="middle" x="1334.5" y="-7.5" font-family="Helvetica,sans-Serif" font-size="10.00">/si/plane_angle.hpp</text>
</g>
<!-- Node6&#45;&gt;Node18 -->
<g id="edge17" class="edge"><title>Node6&#45;&gt;Node18</title>
<path fill="none" stroke="midnightblue" d="M902.144,-68.8791C905.284,-68.1767 908.453,-67.5294 911.5,-67 1067.53,-39.8872 1112.22,-57.0189 1271.53,-31.1917"/>
<polygon fill="midnightblue" stroke="midnightblue" points="1272.39,-34.5965 1281.69,-29.5121 1271.25,-27.6902 1272.39,-34.5965"/>
</g>
<!-- Node19 -->
<g id="node19" class="node"><title>Node19</title>
<polygon fill="white" stroke="#bfbfbf" points="1405,-0.5 1405,-30.5 1510,-30.5 1510,-0.5 1405,-0.5"/>
<text text-anchor="start" x="1413" y="-18.5" font-family="Helvetica,sans-Serif" font-size="10.00">boost/units/systems</text>
<text text-anchor="middle" x="1457.5" y="-7.5" font-family="Helvetica,sans-Serif" font-size="10.00">/si/length.hpp</text>
</g>
<!-- Node6&#45;&gt;Node19 -->
<g id="edge18" class="edge"><title>Node6&#45;&gt;Node19</title>
<path fill="none" stroke="midnightblue" d="M902.131,-68.8035C905.273,-68.1147 908.447,-67.4912 911.5,-67 1121.67,-33.1826 1181.11,-63.1617 1394.74,-31.1162"/>
<polygon fill="midnightblue" stroke="midnightblue" points="1395.34,-34.5647 1404.7,-29.5943 1394.29,-27.645 1395.34,-34.5647"/>
</g>
<!-- Node21 -->
<g id="node21" class="node"><title>Node21</title>
<g id="a_node21"><a xlink:href="../../d5/df2/Event_8hh.html" target="_top" xlink:title="Event.hh">
<polygon fill="white" stroke="black" points="1215.5,-459.5 1215.5,-478.5 1271.5,-478.5 1271.5,-459.5 1215.5,-459.5"/>
<text text-anchor="middle" x="1243.5" y="-466.5" font-family="Helvetica,sans-Serif" font-size="10.00">Event.hh</text>
</a>
</g>
</g>
<!-- Node20&#45;&gt;Node21 -->
<g id="edge20" class="edge"><title>Node20&#45;&gt;Node21</title>
<path fill="none" stroke="midnightblue" d="M1221.79,-515.083C1225.35,-507.691 1230.52,-496.953 1234.92,-487.811"/>
<polygon fill="midnightblue" stroke="midnightblue" points="1238.1,-489.279 1239.29,-478.751 1231.79,-486.243 1238.1,-489.279"/>
</g>
<!-- Node22 -->
<g id="node22" class="node"><title>Node22</title>
<g id="a_node22"><a xlink:href="../../d0/d6b/Partons_8hh.html" target="_top" xlink:title="Partons.hh">
<polygon fill="white" stroke="black" points="1336.5,-403.5 1336.5,-422.5 1400.5,-422.5 1400.5,-403.5 1336.5,-403.5"/>
<text text-anchor="middle" x="1368.5" y="-410.5" font-family="Helvetica,sans-Serif" font-size="10.00">Partons.hh</text>
</a>
</g>
</g>
<!-- Node21&#45;&gt;Node22 -->
<g id="edge21" class="edge"><title>Node21&#45;&gt;Node22</title>
<path fill="none" stroke="midnightblue" d="M1263.31,-459.444C1283.79,-450.596 1315.98,-436.687 1339.36,-426.586"/>
<polygon fill="midnightblue" stroke="midnightblue" points="1340.99,-429.695 1348.79,-422.516 1338.22,-423.269 1340.99,-429.695"/>
</g>
<!-- Node46 -->
<g id="node46" class="node"><title>Node46</title>
<g id="a_node46"><a xlink:href="../../d7/dac/Leptons_8hh.html" target="_top" xlink:title="Leptons.hh">
<polygon fill="white" stroke="black" points="1253,-403.5 1253,-422.5 1318,-422.5 1318,-403.5 1253,-403.5"/>
<text text-anchor="middle" x="1285.5" y="-410.5" font-family="Helvetica,sans-Serif" font-size="10.00">Leptons.hh</text>
</a>
</g>
</g>
<!-- Node21&#45;&gt;Node46 -->
<g id="edge49" class="edge"><title>Node21&#45;&gt;Node46</title>
<path fill="none" stroke="midnightblue" d="M1250.44,-459.083C1256.43,-451.377 1265.25,-440.033 1272.55,-430.653"/>
<polygon fill="midnightblue" stroke="midnightblue" points="1275.32,-432.793 1278.69,-422.751 1269.79,-428.496 1275.32,-432.793"/>
</g>
<!-- Node47 -->
<g id="node47" class="node"><title>Node47</title>
<g id="a_node47"><a xlink:href="../../dd/dee/Hadrons_8hh.html" target="_top" xlink:title="Hadrons.hh">
<polygon fill="white" stroke="black" points="1168,-403.5 1168,-422.5 1235,-422.5 1235,-403.5 1168,-403.5"/>
<text text-anchor="middle" x="1201.5" y="-410.5" font-family="Helvetica,sans-Serif" font-size="10.00">Hadrons.hh</text>
</a>
</g>
</g>
<!-- Node21&#45;&gt;Node47 -->
<g id="edge51" class="edge"><title>Node21&#45;&gt;Node47</title>
<path fill="none" stroke="midnightblue" d="M1236.56,-459.083C1230.57,-451.377 1221.75,-440.033 1214.45,-430.653"/>
<polygon fill="midnightblue" stroke="midnightblue" points="1217.21,-428.496 1208.31,-422.751 1211.68,-432.793 1217.21,-428.496"/>
</g>
<!-- Node23 -->
<g id="node23" class="node"><title>Node23</title>
<g id="a_node23"><a xlink:href="../../df/dbc/FourVector_8hh.html" target="_top" xlink:title="FourVector.hh">
<polygon fill="white" stroke="black" points="1306.5,-347.5 1306.5,-366.5 1384.5,-366.5 1384.5,-347.5 1306.5,-347.5"/>
<text text-anchor="middle" x="1345.5" y="-354.5" font-family="Helvetica,sans-Serif" font-size="10.00">FourVector.hh</text>
</a>
</g>
</g>
<!-- Node22&#45;&gt;Node23 -->
<g id="edge22" class="edge"><title>Node22&#45;&gt;Node23</title>
<path fill="none" stroke="midnightblue" d="M1364.7,-403.083C1361.59,-395.77 1357.08,-385.181 1353.21,-376.103"/>
<polygon fill="midnightblue" stroke="midnightblue" points="1356.37,-374.58 1349.23,-366.751 1349.93,-377.323 1356.37,-374.58"/>
</g>
<!-- Node24 -->
<g id="node24" class="node"><title>Node24</title>
<polygon fill="white" stroke="#bfbfbf" points="1750.5,-235.5 1750.5,-254.5 1800.5,-254.5 1800.5,-235.5 1750.5,-235.5"/>
<text text-anchor="middle" x="1775.5" y="-242.5" font-family="Helvetica,sans-Serif" font-size="10.00">iomanip</text>
</g>
<!-- Node23&#45;&gt;Node24 -->
<g id="edge23" class="edge"><title>Node23&#45;&gt;Node24</title>
<path fill="none" stroke="midnightblue" d="M1362.6,-347.456C1380.55,-338.465 1409.57,-323.86 1434.5,-311 1451.46,-302.249 1454.32,-296.8 1472.5,-291 1584.39,-255.313 1621.24,-277.249 1740.46,-254.951"/>
<polygon fill="midnightblue" stroke="midnightblue" points="1741.18,-258.377 1750.33,-253.04 1739.85,-251.504 1741.18,-258.377"/>
</g>
<!-- Node25 -->
<g id="node25" class="node"><title>Node25</title>
<polygon fill="white" stroke="#bfbfbf" points="1678.5,-235.5 1678.5,-254.5 1732.5,-254.5 1732.5,-235.5 1678.5,-235.5"/>
<text text-anchor="middle" x="1705.5" y="-242.5" font-family="Helvetica,sans-Serif" font-size="10.00">iostream</text>
</g>
<!-- Node23&#45;&gt;Node25 -->
<g id="edge24" class="edge"><title>Node23&#45;&gt;Node25</title>
<path fill="none" stroke="midnightblue" d="M1354.7,-347.42C1370.5,-333.205 1404.41,-304.953 1438.5,-291 1439.83,-290.456 1594.67,-264.528 1667.91,-252.281"/>
<polygon fill="midnightblue" stroke="midnightblue" points="1668.81,-255.679 1678.1,-250.578 1667.66,-248.775 1668.81,-255.679"/>
</g>
<!-- Node26 -->
<g id="node26" class="node"><title>Node26</title>
<polygon fill="white" stroke="#bfbfbf" points="1481,-291.5 1481,-310.5 1588,-310.5 1588,-291.5 1481,-291.5"/>
<text text-anchor="middle" x="1534.5" y="-298.5" font-family="Helvetica,sans-Serif" font-size="10.00">fastjet/PseudoJet.hh</text>
</g>
<!-- Node23&#45;&gt;Node26 -->
<g id="edge25" class="edge"><title>Node23&#45;&gt;Node26</title>
<path fill="none" stroke="midnightblue" d="M1375.45,-347.444C1407.66,-338.241 1459.03,-323.562 1494.64,-313.388"/>
<polygon fill="midnightblue" stroke="midnightblue" points="1496.04,-316.629 1504.69,-310.516 1494.12,-309.898 1496.04,-316.629"/>
</g>
<!-- Node27 -->
<g id="node27" class="node"><title>Node27</title>
<g id="a_node27"><a xlink:href="../../d8/dff/JetTag_8hh.html" target="_top" xlink:title="JetTag.hh">
<polygon fill="white" stroke="black" points="930.5,-291.5 930.5,-310.5 990.5,-310.5 990.5,-291.5 930.5,-291.5"/>
<text text-anchor="middle" x="960.5" y="-298.5" font-family="Helvetica,sans-Serif" font-size="10.00">JetTag.hh</text>
</a>
</g>
</g>
<!-- Node23&#45;&gt;Node27 -->
<g id="edge26" class="edge"><title>Node23&#45;&gt;Node27</title>
<path fill="none" stroke="midnightblue" d="M1306.47,-350.525C1232.98,-340.218 1074.81,-318.033 1000.55,-307.617"/>
<polygon fill="midnightblue" stroke="midnightblue" points="1001.03,-304.151 990.646,-306.228 1000.06,-311.083 1001.03,-304.151"/>
</g>
<!-- Node36 -->
<g id="node36" class="node"><title>Node36</title>
<g id="a_node36"><a xlink:href="../../d0/d5f/Flag_8hh.html" target="_top" xlink:title="Flag.hh">
<polygon fill="white" stroke="black" points="1148,-291.5 1148,-310.5 1197,-310.5 1197,-291.5 1148,-291.5"/>
<text text-anchor="middle" x="1172.5" y="-298.5" font-family="Helvetica,sans-Serif" font-size="10.00">Flag.hh</text>
</a>
</g>
</g>
<!-- Node23&#45;&gt;Node36 -->
<g id="edge37" class="edge"><title>Node23&#45;&gt;Node36</title>
<path fill="none" stroke="midnightblue" d="M1318.09,-347.444C1287.95,-338.038 1239.49,-322.911 1206.85,-312.721"/>
<polygon fill="midnightblue" stroke="midnightblue" points="1207.85,-309.368 1197.26,-309.729 1205.76,-316.05 1207.85,-309.368"/>
</g>
<!-- Node38 -->
<g id="node38" class="node"><title>Node38</title>
<g id="a_node38"><a xlink:href="../../d6/d74/TreeReader_8hh.html" target="_top" xlink:title="TreeReader.hh">
<polygon fill="white" stroke="black" points="1305,-291.5 1305,-310.5 1386,-310.5 1386,-291.5 1305,-291.5"/>
<text text-anchor="middle" x="1345.5" y="-298.5" font-family="Helvetica,sans-Serif" font-size="10.00">TreeReader.hh</text>
</a>
</g>
</g>
<!-- Node23&#45;&gt;Node38 -->
<g id="edge39" class="edge"><title>Node23&#45;&gt;Node38</title>
<path fill="none" stroke="midnightblue" d="M1345.5,-347.083C1345.5,-340.006 1345.5,-329.861 1345.5,-320.986"/>
<polygon fill="midnightblue" stroke="midnightblue" points="1349,-320.751 1345.5,-310.751 1342,-320.751 1349,-320.751"/>
</g>
<!-- Node28 -->
<g id="node28" class="node"><title>Node28</title>
<polygon fill="white" stroke="#bfbfbf" points="882.5,-235.5 882.5,-254.5 912.5,-254.5 912.5,-235.5 882.5,-235.5"/>
<text text-anchor="middle" x="897.5" y="-242.5" font-family="Helvetica,sans-Serif" font-size="10.00">set</text>
</g>
<!-- Node27&#45;&gt;Node28 -->
<g id="edge27" class="edge"><title>Node27&#45;&gt;Node28</title>
<path fill="none" stroke="midnightblue" d="M950.378,-291.324C940.974,-283.263 926.756,-271.077 915.431,-261.369"/>
<polygon fill="midnightblue" stroke="midnightblue" points="917.677,-258.684 907.806,-254.834 913.121,-263.999 917.677,-258.684"/>
</g>
<!-- Node29 -->
<g id="node29" class="node"><title>Node29</title>
<g id="a_node29"><a xlink:href="../../d0/d9c/Family_8hh.html" target="_top" xlink:title="Family.hh">
<polygon fill="white" stroke="black" points="931,-235.5 931,-254.5 990,-254.5 990,-235.5 931,-235.5"/>
<text text-anchor="middle" x="960.5" y="-242.5" font-family="Helvetica,sans-Serif" font-size="10.00">Family.hh</text>
</a>
</g>
</g>
<!-- Node27&#45;&gt;Node29 -->
<g id="edge28" class="edge"><title>Node27&#45;&gt;Node29</title>
<path fill="none" stroke="midnightblue" d="M960.5,-291.083C960.5,-284.006 960.5,-273.861 960.5,-264.986"/>
<polygon fill="midnightblue" stroke="midnightblue" points="964,-264.751 960.5,-254.751 957,-264.751 964,-264.751"/>
</g>
<!-- Node30 -->
<g id="node30" class="node"><title>Node30</title>
<polygon fill="white" stroke="#bfbfbf" points="1628.5,-179.5 1628.5,-198.5 1672.5,-198.5 1672.5,-179.5 1628.5,-179.5"/>
<text text-anchor="middle" x="1650.5" y="-186.5" font-family="Helvetica,sans-Serif" font-size="10.00">vector</text>
</g>
<!-- Node29&#45;&gt;Node30 -->
<g id="edge29" class="edge"><title>Node29&#45;&gt;Node30</title>
<path fill="none" stroke="midnightblue" d="M990.218,-236.633C993.339,-236.012 996.476,-235.451 999.5,-235 1235.25,-199.874 1523.2,-192.09 1618.32,-190.431"/>
<polygon fill="midnightblue" stroke="midnightblue" points="1618.51,-193.929 1628.45,-190.266 1618.39,-186.93 1618.51,-193.929"/>
</g>
<!-- Node31 -->
<g id="node31" class="node"><title>Node31</title>
<polygon fill="white" stroke="#bfbfbf" points="999,-179.5 999,-198.5 1058,-198.5 1058,-179.5 999,-179.5"/>
<text text-anchor="middle" x="1028.5" y="-186.5" font-family="Helvetica,sans-Serif" font-size="10.00">functional</text>
</g>
<!-- Node29&#45;&gt;Node31 -->
<g id="edge30" class="edge"><title>Node29&#45;&gt;Node31</title>
<path fill="none" stroke="midnightblue" d="M971.425,-235.324C981.675,-227.185 997.221,-214.839 1009.5,-205.087"/>
<polygon fill="midnightblue" stroke="midnightblue" points="1011.72,-207.794 1017.38,-198.834 1007.37,-202.312 1011.72,-207.794"/>
</g>
<!-- Node32 -->
<g id="node32" class="node"><title>Node32</title>
<g id="a_node32"><a xlink:href="../../dd/df5/Particle_8hh.html" target="_top" xlink:title="Particle.hh">
<polygon fill="white" stroke="black" points="918,-179.5 918,-198.5 981,-198.5 981,-179.5 918,-179.5"/>
<text text-anchor="middle" x="949.5" y="-186.5" font-family="Helvetica,sans-Serif" font-size="10.00">Particle.hh</text>
</a>
</g>
</g>
<!-- Node29&#45;&gt;Node32 -->
<g id="edge31" class="edge"><title>Node29&#45;&gt;Node32</title>
<path fill="none" stroke="midnightblue" d="M958.684,-235.083C957.226,-227.927 955.129,-217.635 953.307,-208.691"/>
<polygon fill="midnightblue" stroke="midnightblue" points="956.708,-207.851 951.283,-198.751 949.849,-209.248 956.708,-207.851"/>
</g>
<!-- Node33 -->
<g id="node33" class="node"><title>Node33</title>
<g id="a_node33"><a xlink:href="../../db/da5/Particles_8hh.html" target="_top" xlink:title="Particles.hh">
<polygon fill="white" stroke="black" points="893.5,-123.5 893.5,-142.5 961.5,-142.5 961.5,-123.5 893.5,-123.5"/>
<text text-anchor="middle" x="927.5" y="-130.5" font-family="Helvetica,sans-Serif" font-size="10.00">Particles.hh</text>
</a>
</g>
</g>
<!-- Node32&#45;&gt;Node33 -->
<g id="edge32" class="edge"><title>Node32&#45;&gt;Node33</title>
<path fill="none" stroke="midnightblue" d="M945.867,-179.083C942.888,-171.77 938.574,-161.181 934.875,-152.103"/>
<polygon fill="midnightblue" stroke="midnightblue" points="938.08,-150.691 931.065,-142.751 931.597,-153.333 938.08,-150.691"/>
</g>
<!-- Node34 -->
<g id="node34" class="node"><title>Node34</title>
<g id="a_node34"><a xlink:href="../../d6/dc8/LorentzVector_8hh.html" target="_top" xlink:title="LorentzVector.hh">
<polygon fill="white" stroke="black" points="980,-123.5 980,-142.5 1071,-142.5 1071,-123.5 980,-123.5"/>
<text text-anchor="middle" x="1025.5" y="-130.5" font-family="Helvetica,sans-Serif" font-size="10.00">LorentzVector.hh</text>
</a>
</g>
</g>
<!-- Node32&#45;&gt;Node34 -->
<g id="edge35" class="edge"><title>Node32&#45;&gt;Node34</title>
<path fill="none" stroke="midnightblue" d="M961.711,-179.324C973.276,-171.107 990.875,-158.602 1004.66,-148.807"/>
<polygon fill="midnightblue" stroke="midnightblue" points="1006.94,-151.479 1013.07,-142.834 1002.89,-145.773 1006.94,-151.479"/>
</g>
<!-- Node33&#45;&gt;Node5 -->
<g id="edge33" class="edge"><title>Node33&#45;&gt;Node5</title>
<path fill="none" stroke="midnightblue" d="M929.647,-123.083C931.369,-115.927 933.847,-105.635 936,-96.6911"/>
<polygon fill="midnightblue" stroke="midnightblue" points="939.455,-97.2925 938.393,-86.7511 932.65,-95.6541 939.455,-97.2925"/>
</g>
<!-- Node33&#45;&gt;Node6 -->
<g id="edge34" class="edge"><title>Node33&#45;&gt;Node6</title>
<path fill="none" stroke="midnightblue" d="M918.913,-123.083C911.341,-115.22 900.122,-103.569 890.986,-94.0813"/>
<polygon fill="midnightblue" stroke="midnightblue" points="893.385,-91.5266 883.927,-86.7511 888.342,-96.3821 893.385,-91.5266"/>
</g>
<!-- Node35 -->
<g id="node35" class="node"><title>Node35</title>
<g id="a_node35"><a xlink:href="../../d1/df9/Vector3_8hh.html" target="_top" xlink:title="Vector3.hh">
<polygon fill="white" stroke="black" points="993.5,-67.5 993.5,-86.5 1057.5,-86.5 1057.5,-67.5 993.5,-67.5"/>
<text text-anchor="middle" x="1025.5" y="-74.5" font-family="Helvetica,sans-Serif" font-size="10.00">Vector3.hh</text>
</a>
</g>
</g>
<!-- Node34&#45;&gt;Node35 -->
<g id="edge36" class="edge"><title>Node34&#45;&gt;Node35</title>
<path fill="none" stroke="midnightblue" d="M1025.5,-123.083C1025.5,-116.006 1025.5,-105.861 1025.5,-96.9865"/>
<polygon fill="midnightblue" stroke="midnightblue" points="1029,-96.751 1025.5,-86.7511 1022,-96.7511 1029,-96.751"/>
</g>
<!-- Node37 -->
<g id="node37" class="node"><title>Node37</title>
<polygon fill="white" stroke="#bfbfbf" points="1008.5,-235.5 1008.5,-254.5 1070.5,-254.5 1070.5,-235.5 1008.5,-235.5"/>
<text text-anchor="middle" x="1039.5" y="-242.5" font-family="Helvetica,sans-Serif" font-size="10.00">type_traits</text>
</g>
<!-- Node36&#45;&gt;Node37 -->
<g id="edge38" class="edge"><title>Node36&#45;&gt;Node37</title>
<path fill="none" stroke="midnightblue" d="M1151.43,-291.444C1129.44,-282.517 1094.77,-268.439 1069.84,-258.317"/>
<polygon fill="midnightblue" stroke="midnightblue" points="1071.06,-255.035 1060.48,-254.516 1068.42,-261.521 1071.06,-255.035"/>
</g>
<!-- Node38&#45;&gt;Node25 -->
<g id="edge44" class="edge"><title>Node38&#45;&gt;Node25</title>
<path fill="none" stroke="midnightblue" d="M1386.03,-293.242C1390.9,-292.467 1395.81,-291.703 1400.5,-291 1517.61,-273.437 1547.91,-275.712 1664.5,-255 1665.75,-254.778 1667.02,-254.544 1668.3,-254.301"/>
<polygon fill="midnightblue" stroke="midnightblue" points="1669.1,-257.712 1678.21,-252.311 1667.72,-250.849 1669.1,-257.712"/>
</g>
<!-- Node38&#45;&gt;Node30 -->
<g id="edge42" class="edge"><title>Node38&#45;&gt;Node30</title>
<path fill="none" stroke="midnightblue" d="M1386.04,-293.33C1390.91,-292.539 1395.82,-291.748 1400.5,-291 1451.8,-282.805 1592.46,-289.277 1631.5,-255 1644.6,-243.503 1648.9,-223.53 1650.2,-208.75"/>
<polygon fill="midnightblue" stroke="midnightblue" points="1653.7,-208.849 1650.7,-198.686 1646.7,-208.498 1653.7,-208.849"/>
</g>
<!-- Node39 -->
<g id="node39" class="node"><title>Node39</title>
<polygon fill="white" stroke="#bfbfbf" points="1088.5,-235.5 1088.5,-254.5 1132.5,-254.5 1132.5,-235.5 1088.5,-235.5"/>
<text text-anchor="middle" x="1110.5" y="-242.5" font-family="Helvetica,sans-Serif" font-size="10.00">mutex</text>
</g>
<!-- Node38&#45;&gt;Node39 -->
<g id="edge40" class="edge"><title>Node38&#45;&gt;Node39</title>
<path fill="none" stroke="midnightblue" d="M1304.67,-291.814C1265.46,-283.769 1204.33,-270.754 1142.7,-255.185"/>
<polygon fill="midnightblue" stroke="midnightblue" points="1143.36,-251.741 1132.8,-252.664 1141.63,-258.525 1143.36,-251.741"/>
</g>
<!-- Node40 -->
<g id="node40" class="node"><title>Node40</title>
<polygon fill="white" stroke="#bfbfbf" points="1150.5,-235.5 1150.5,-254.5 1202.5,-254.5 1202.5,-235.5 1150.5,-235.5"/>
<text text-anchor="middle" x="1176.5" y="-242.5" font-family="Helvetica,sans-Serif" font-size="10.00">memory</text>
</g>
<!-- Node38&#45;&gt;Node40 -->
<g id="edge41" class="edge"><title>Node38&#45;&gt;Node40</title>
<path fill="none" stroke="midnightblue" d="M1318.72,-291.444C1290,-282.266 1244.23,-267.642 1212.4,-257.472"/>
<polygon fill="midnightblue" stroke="midnightblue" points="1213.19,-254.049 1202.6,-254.339 1211.06,-260.717 1213.19,-254.049"/>
</g>
<!-- Node41 -->
<g id="node41" class="node"><title>Node41</title>
<polygon fill="white" stroke="#bfbfbf" points="1221,-235.5 1221,-254.5 1256,-254.5 1256,-235.5 1221,-235.5"/>
<text text-anchor="middle" x="1238.5" y="-242.5" font-family="Helvetica,sans-Serif" font-size="10.00">map</text>
</g>
<!-- Node38&#45;&gt;Node41 -->
<g id="edge43" class="edge"><title>Node38&#45;&gt;Node41</title>
<path fill="none" stroke="midnightblue" d="M1328.31,-291.324C1311.15,-282.664 1284.55,-269.242 1264.75,-259.249"/>
<polygon fill="midnightblue" stroke="midnightblue" points="1266.15,-256.035 1255.65,-254.655 1263,-262.285 1266.15,-256.035"/>
</g>
<!-- Node42 -->
<g id="node42" class="node"><title>Node42</title>
<polygon fill="white" stroke="#bfbfbf" points="1274.5,-235.5 1274.5,-254.5 1330.5,-254.5 1330.5,-235.5 1274.5,-235.5"/>
<text text-anchor="middle" x="1302.5" y="-242.5" font-family="Helvetica,sans-Serif" font-size="10.00">TChain.h</text>
</g>
<!-- Node38&#45;&gt;Node42 -->
<g id="edge45" class="edge"><title>Node38&#45;&gt;Node42</title>
<path fill="none" stroke="midnightblue" d="M1338.4,-291.083C1332.26,-283.377 1323.23,-272.033 1315.76,-262.653"/>
<polygon fill="midnightblue" stroke="midnightblue" points="1318.44,-260.394 1309.47,-254.751 1312.96,-264.754 1318.44,-260.394"/>
</g>
<!-- Node43 -->
<g id="node43" class="node"><title>Node43</title>
<polygon fill="white" stroke="#bfbfbf" points="1348.5,-235.5 1348.5,-254.5 1430.5,-254.5 1430.5,-235.5 1348.5,-235.5"/>
<text text-anchor="middle" x="1389.5" y="-242.5" font-family="Helvetica,sans-Serif" font-size="10.00">TTreeReader.h</text>
</g>
<!-- Node38&#45;&gt;Node43 -->
<g id="edge46" class="edge"><title>Node38&#45;&gt;Node43</title>
<path fill="none" stroke="midnightblue" d="M1352.77,-291.083C1359.04,-283.377 1368.29,-272.033 1375.93,-262.653"/>
<polygon fill="midnightblue" stroke="midnightblue" points="1378.77,-264.714 1382.37,-254.751 1373.34,-260.293 1378.77,-264.714"/>
</g>
<!-- Node44 -->
<g id="node44" class="node"><title>Node44</title>
<polygon fill="white" stroke="#bfbfbf" points="1449,-235.5 1449,-254.5 1554,-254.5 1554,-235.5 1449,-235.5"/>
<text text-anchor="middle" x="1501.5" y="-242.5" font-family="Helvetica,sans-Serif" font-size="10.00">TTreeReaderArray.h</text>
</g>
<!-- Node38&#45;&gt;Node44 -->
<g id="edge47" class="edge"><title>Node38&#45;&gt;Node44</title>
<path fill="none" stroke="midnightblue" d="M1370.22,-291.444C1396.35,-282.399 1437.76,-268.064 1467.08,-257.916"/>
<polygon fill="midnightblue" stroke="midnightblue" points="1468.59,-261.095 1476.9,-254.516 1466.3,-254.48 1468.59,-261.095"/>
</g>
<!-- Node45 -->
<g id="node45" class="node"><title>Node45</title>
<polygon fill="white" stroke="#bfbfbf" points="1572.5,-235.5 1572.5,-254.5 1622.5,-254.5 1622.5,-235.5 1572.5,-235.5"/>
<text text-anchor="middle" x="1597.5" y="-242.5" font-family="Helvetica,sans-Serif" font-size="10.00">TLeaf.h</text>
</g>
<!-- Node38&#45;&gt;Node45 -->
<g id="edge48" class="edge"><title>Node38&#45;&gt;Node45</title>
<path fill="none" stroke="midnightblue" d="M1386.23,-292.29C1428.07,-284.214 1495.32,-270.808 1562.4,-255.164"/>
<polygon fill="midnightblue" stroke="midnightblue" points="1563.35,-258.534 1572.29,-252.84 1561.75,-251.72 1563.35,-258.534"/>
</g>
<!-- Node46&#45;&gt;Node23 -->
<g id="edge50" class="edge"><title>Node46&#45;&gt;Node23</title>
<path fill="none" stroke="midnightblue" d="M1295.14,-403.324C1304.01,-395.341 1317.37,-383.313 1328.11,-373.653"/>
<polygon fill="midnightblue" stroke="midnightblue" points="1330.59,-376.125 1335.68,-366.834 1325.91,-370.922 1330.59,-376.125"/>
</g>
<!-- Node47&#45;&gt;Node4 -->
<g id="edge52" class="edge"><title>Node47&#45;&gt;Node4</title>
<path fill="none" stroke="midnightblue" d="M1169.02,-403.444C1132.64,-393.861 1073.73,-378.342 1035.05,-368.154"/>
<polygon fill="midnightblue" stroke="midnightblue" points="1035.75,-364.721 1025.19,-365.558 1033.97,-371.49 1035.75,-364.721"/>
</g>
<!-- Node47&#45;&gt;Node23 -->
<g id="edge53" class="edge"><title>Node47&#45;&gt;Node23</title>
<path fill="none" stroke="midnightblue" d="M1224.32,-403.444C1248.33,-394.438 1286.33,-380.189 1313.37,-370.049"/>
<polygon fill="midnightblue" stroke="midnightblue" points="1314.66,-373.305 1322.79,-366.516 1312.2,-366.751 1314.66,-373.305"/>
</g>
<!-- Node48&#45;&gt;Node5 -->
<g id="edge55" class="edge"><title>Node48&#45;&gt;Node5</title>
<path fill="none" stroke="midnightblue" d="M1859.82,-291.412C1880,-279.005 1911.19,-255.324 1895.5,-235 1835.42,-157.178 1777.98,-197.914 1681.5,-179 1374.87,-118.887 1292.64,-138.785 984.5,-87 980.175,-86.2731 975.626,-85.4312 971.161,-84.5598"/>
<polygon fill="midnightblue" stroke="midnightblue" points="971.533,-81.0643 961.038,-82.5135 970.146,-87.9255 971.533,-81.0643"/>
</g>
<!-- Node48&#45;&gt;Node17 -->
<g id="edge60" class="edge"><title>Node48&#45;&gt;Node17</title>
<path fill="none" stroke="midnightblue" d="M1870.18,-291.466C1908.07,-277.066 1974.5,-244.104 1974.5,-190 1974.5,-190 1974.5,-190 1974.5,-132 1974.5,-79.8228 1918.44,-49.2304 1871.67,-32.7874"/>
<polygon fill="midnightblue" stroke="midnightblue" points="1872.75,-29.4587 1862.16,-29.588 1870.52,-36.0934 1872.75,-29.4587"/>
</g>
<!-- Node48&#45;&gt;Node24 -->
<g id="edge58" class="edge"><title>Node48&#45;&gt;Node24</title>
<path fill="none" stroke="midnightblue" d="M1833.41,-291.324C1823.01,-283.185 1807.24,-270.839 1794.78,-261.087"/>
<polygon fill="midnightblue" stroke="midnightblue" points="1796.82,-258.241 1786.79,-254.834 1792.51,-263.753 1796.82,-258.241"/>
</g>
<!-- Node48&#45;&gt;Node25 -->
<g id="edge59" class="edge"><title>Node48&#45;&gt;Node25</title>
<path fill="none" stroke="midnightblue" d="M1822.48,-291.444C1799.4,-282.478 1762.94,-268.314 1736.86,-258.183"/>
<polygon fill="midnightblue" stroke="midnightblue" points="1738.01,-254.875 1727.42,-254.516 1735.48,-261.4 1738.01,-254.875"/>
</g>
<!-- Node48&#45;&gt;Node30 -->
<g id="edge56" class="edge"><title>Node48&#45;&gt;Node30</title>
<path fill="none" stroke="midnightblue" d="M1855.3,-291.362C1870.38,-278.268 1894.32,-253.014 1879.5,-235 1854.96,-205.163 1739.89,-194.807 1682.8,-191.466"/>
<polygon fill="midnightblue" stroke="midnightblue" points="1682.7,-187.955 1672.52,-190.904 1682.32,-194.945 1682.7,-187.955"/>
</g>
<!-- Node49 -->
<g id="node49" class="node"><title>Node49</title>
<polygon fill="white" stroke="#bfbfbf" points="1818.5,-235.5 1818.5,-254.5 1870.5,-254.5 1870.5,-235.5 1818.5,-235.5"/>
<text text-anchor="middle" x="1844.5" y="-242.5" font-family="Helvetica,sans-Serif" font-size="10.00">sstream</text>
</g>
<!-- Node48&#45;&gt;Node49 -->
<g id="edge57" class="edge"><title>Node48&#45;&gt;Node49</title>
<path fill="none" stroke="midnightblue" d="M1844.5,-291.083C1844.5,-284.006 1844.5,-273.861 1844.5,-264.986"/>
<polygon fill="midnightblue" stroke="midnightblue" points="1848,-264.751 1844.5,-254.751 1841,-264.751 1848,-264.751"/>
</g>
</g>
</svg>
