<?xml version="1.0" encoding="UTF-8" standalone="no"?>
<!DOCTYPE svg PUBLIC "-//W3C//DTD SVG 1.1//EN"
 "http://www.w3.org/Graphics/SVG/1.1/DTD/svg11.dtd">
<!-- Generated by graphviz version 2.38.0 (20140413.2041)
 -->
<!-- Title: include/TopLeptonicTagger.hh Pages: 1 -->
<svg width="3130pt" height="296pt"
 viewBox="0.00 0.00 3130.00 296.00" xmlns="http://www.w3.org/2000/svg" xmlns:xlink="http://www.w3.org/1999/xlink">
<g id="graph0" class="graph" transform="scale(1 1) rotate(0) translate(4 292)">
<title>include/TopLeptonicTagger.hh</title>
<polygon fill="white" stroke="none" points="-4,4 -4,-292 3126,-292 3126,4 -4,4"/>
<!-- Node1 -->
<g id="node1" class="node"><title>Node1</title>
<polygon fill="#bfbfbf" stroke="black" points="1403.5,-268.5 1403.5,-287.5 1550.5,-287.5 1550.5,-268.5 1403.5,-268.5"/>
<text text-anchor="middle" x="1477" y="-275.5" font-family="Helvetica,sans-Serif" font-size="10.00">include/TopLeptonicTagger.hh</text>
</g>
<!-- Node2 -->
<g id="node2" class="node"><title>Node2</title>
<g id="a_node2"><a xlink:href="../../dd/dec/ChargedHiggsLeptonicTagger_8hh.html" target="_top" xlink:title="HeavyHiggs/include\l/ChargedHiggsLeptonicTagger.hh">
<polygon fill="white" stroke="black" points="186,-201.5 186,-231.5 348,-231.5 348,-201.5 186,-201.5"/>
<text text-anchor="start" x="194" y="-219.5" font-family="Helvetica,sans-Serif" font-size="10.00">HeavyHiggs/include</text>
<text text-anchor="middle" x="267" y="-208.5" font-family="Helvetica,sans-Serif" font-size="10.00">/ChargedHiggsLeptonicTagger.hh</text>
</a>
</g>
</g>
<!-- Node1&#45;&gt;Node2 -->
<g id="edge1" class="edge"><title>Node1&#45;&gt;Node2</title>
<path fill="none" stroke="midnightblue" d="M1393.41,-274.589C1216.6,-269.226 791.72,-254.938 436,-232 407.348,-230.152 376.006,-227.609 348.18,-225.167"/>
<polygon fill="midnightblue" stroke="midnightblue" points="1393.32,-278.088 1403.42,-274.892 1393.53,-271.091 1393.32,-278.088"/>
</g>
<!-- Node4 -->
<g id="node4" class="node"><title>Node4</title>
<g id="a_node4"><a xlink:href="../../df/d6f/ChargedHiggsSemiTagger_8hh.html" target="_top" xlink:title="HeavyHiggs/include\l/ChargedHiggsSemiTagger.hh">
<polygon fill="white" stroke="black" points="445,-201.5 445,-231.5 593,-231.5 593,-201.5 445,-201.5"/>
<text text-anchor="start" x="453" y="-219.5" font-family="Helvetica,sans-Serif" font-size="10.00">HeavyHiggs/include</text>
<text text-anchor="middle" x="519" y="-208.5" font-family="Helvetica,sans-Serif" font-size="10.00">/ChargedHiggsSemiTagger.hh</text>
</a>
</g>
</g>
<!-- Node1&#45;&gt;Node4 -->
<g id="edge3" class="edge"><title>Node1&#45;&gt;Node4</title>
<path fill="none" stroke="midnightblue" d="M1393.22,-271.796C1208.48,-260.323 768.653,-233.006 593.162,-222.106"/>
<polygon fill="midnightblue" stroke="midnightblue" points="1393.22,-275.303 1403.42,-272.43 1393.65,-268.317 1393.22,-275.303"/>
</g>
<!-- Node11 -->
<g id="node11" class="node"><title>Node11</title>
<g id="a_node11"><a xlink:href="../../d5/dae/HeavyHiggsSemiTagger_8hh.html" target="_top" xlink:title="HeavyHiggs/include\l/HeavyHiggsSemiTagger.hh">
<polygon fill="white" stroke="black" points="889,-201.5 889,-231.5 1029,-231.5 1029,-201.5 889,-201.5"/>
<text text-anchor="start" x="897" y="-219.5" font-family="Helvetica,sans-Serif" font-size="10.00">HeavyHiggs/include</text>
<text text-anchor="middle" x="959" y="-208.5" font-family="Helvetica,sans-Serif" font-size="10.00">/HeavyHiggsSemiTagger.hh</text>
</a>
</g>
</g>
<!-- Node1&#45;&gt;Node11 -->
<g id="edge10" class="edge"><title>Node1&#45;&gt;Node11</title>
<path fill="none" stroke="midnightblue" d="M1393.15,-267.369C1291.97,-255.747 1123.68,-236.416 1029.09,-225.551"/>
<polygon fill="midnightblue" stroke="midnightblue" points="1393,-270.874 1403.33,-268.538 1393.8,-263.92 1393,-270.874"/>
</g>
<!-- Node22 -->
<g id="node22" class="node"><title>Node22</title>
<g id="a_node22"><a xlink:href="../../d0/d0d/HeavyHiggsLeptonicTagger_8hh.html" target="_top" xlink:title="HeavyHiggs/include\l/HeavyHiggsLeptonicTagger.hh">
<polygon fill="white" stroke="black" points="1146,-201.5 1146,-231.5 1300,-231.5 1300,-201.5 1146,-201.5"/>
<text text-anchor="start" x="1154" y="-219.5" font-family="Helvetica,sans-Serif" font-size="10.00">HeavyHiggs/include</text>
<text text-anchor="middle" x="1223" y="-208.5" font-family="Helvetica,sans-Serif" font-size="10.00">/HeavyHiggsLeptonicTagger.hh</text>
</a>
</g>
</g>
<!-- Node1&#45;&gt;Node22 -->
<g id="edge21" class="edge"><title>Node1&#45;&gt;Node22</title>
<path fill="none" stroke="midnightblue" d="M1430.76,-266.169C1389.26,-256.447 1328.09,-242.118 1282.86,-231.523"/>
<polygon fill="midnightblue" stroke="midnightblue" points="1430.07,-269.602 1440.61,-268.475 1431.67,-262.786 1430.07,-269.602"/>
</g>
<!-- Node24 -->
<g id="node24" class="node"><title>Node24</title>
<g id="a_node24"><a xlink:href="../../dc/d70/AnalysisHiggsCpv_8hh.html" target="_top" xlink:title="HiggsCpv/include/Analysis\lHiggsCpv.hh">
<polygon fill="white" stroke="black" points="1328,-201.5 1328,-231.5 1462,-231.5 1462,-201.5 1328,-201.5"/>
<text text-anchor="start" x="1336" y="-219.5" font-family="Helvetica,sans-Serif" font-size="10.00">HiggsCpv/include/Analysis</text>
<text text-anchor="middle" x="1395" y="-208.5" font-family="Helvetica,sans-Serif" font-size="10.00">HiggsCpv.hh</text>
</a>
</g>
</g>
<!-- Node1&#45;&gt;Node24 -->
<g id="edge23" class="edge"><title>Node1&#45;&gt;Node24</title>
<path fill="none" stroke="midnightblue" d="M1456.97,-262.468C1443.99,-253.047 1427.17,-240.841 1414.33,-231.523"/>
<polygon fill="midnightblue" stroke="midnightblue" points="1455.1,-265.435 1465.25,-268.475 1459.21,-259.769 1455.1,-265.435"/>
</g>
<!-- Node26 -->
<g id="node26" class="node"><title>Node26</title>
<g id="a_node26"><a xlink:href="../../df/d70/TopLeptonicPairTagger_8hh.html" target="_top" xlink:title="HiggsCpv/include/TopLeptonic\lPairTagger.hh">
<polygon fill="white" stroke="black" points="1485,-201.5 1485,-231.5 1635,-231.5 1635,-201.5 1485,-201.5"/>
<text text-anchor="start" x="1493" y="-219.5" font-family="Helvetica,sans-Serif" font-size="10.00">HiggsCpv/include/TopLeptonic</text>
<text text-anchor="middle" x="1560" y="-208.5" font-family="Helvetica,sans-Serif" font-size="10.00">PairTagger.hh</text>
</a>
</g>
</g>
<!-- Node1&#45;&gt;Node26 -->
<g id="edge25" class="edge"><title>Node1&#45;&gt;Node26</title>
<path fill="none" stroke="midnightblue" d="M1497.27,-262.468C1510.41,-253.047 1527.44,-240.841 1540.44,-231.523"/>
<polygon fill="midnightblue" stroke="midnightblue" points="1494.98,-259.804 1488.89,-268.475 1499.06,-265.493 1494.98,-259.804"/>
</g>
<!-- Node36 -->
<g id="node36" class="node"><title>Node36</title>
<g id="a_node36"><a xlink:href="../../d3/d9b/TopSemiPairTagger_8hh.html" target="_top" xlink:title="HiggsCpv/include/TopSemi\lPairTagger.hh">
<polygon fill="white" stroke="black" points="1653,-201.5 1653,-231.5 1789,-231.5 1789,-201.5 1653,-201.5"/>
<text text-anchor="start" x="1661" y="-219.5" font-family="Helvetica,sans-Serif" font-size="10.00">HiggsCpv/include/TopSemi</text>
<text text-anchor="middle" x="1721" y="-208.5" font-family="Helvetica,sans-Serif" font-size="10.00">PairTagger.hh</text>
</a>
</g>
</g>
<!-- Node1&#45;&gt;Node36 -->
<g id="edge38" class="edge"><title>Node1&#45;&gt;Node36</title>
<path fill="none" stroke="midnightblue" d="M1521.92,-266.045C1561.78,-256.326 1620.23,-242.073 1663.49,-231.523"/>
<polygon fill="midnightblue" stroke="midnightblue" points="1520.85,-262.706 1511.96,-268.475 1522.5,-269.506 1520.85,-262.706"/>
</g>
<!-- Node38 -->
<g id="node38" class="node"><title>Node38</title>
<g id="a_node38"><a xlink:href="../../dd/db4/TopLeptonicTagger_8cpp.html" target="_top" xlink:title="source/TopLeptonicTagger.cpp">
<polygon fill="white" stroke="black" points="1807.5,-207 1807.5,-226 1958.5,-226 1958.5,-207 1807.5,-207"/>
<text text-anchor="middle" x="1883" y="-214" font-family="Helvetica,sans-Serif" font-size="10.00">source/TopLeptonicTagger.cpp</text>
</a>
</g>
</g>
<!-- Node1&#45;&gt;Node38 -->
<g id="edge40" class="edge"><title>Node1&#45;&gt;Node38</title>
<path fill="none" stroke="midnightblue" d="M1552.12,-267.111C1617.23,-258.385 1713.94,-245.059 1798,-232 1809.83,-230.162 1822.57,-228.056 1834.49,-226.03"/>
<polygon fill="midnightblue" stroke="midnightblue" points="1551.39,-263.676 1541.95,-268.471 1552.32,-270.615 1551.39,-263.676"/>
</g>
<!-- Node39 -->
<g id="node39" class="node"><title>Node39</title>
<g id="a_node39"><a xlink:href="../../da/d4b/MainTop_8cpp.html" target="_top" xlink:title="StandardModel/source\l/MainTop.cpp">
<polygon fill="white" stroke="black" points="1977,-201.5 1977,-231.5 2091,-231.5 2091,-201.5 1977,-201.5"/>
<text text-anchor="start" x="1985" y="-219.5" font-family="Helvetica,sans-Serif" font-size="10.00">StandardModel/source</text>
<text text-anchor="middle" x="2034" y="-208.5" font-family="Helvetica,sans-Serif" font-size="10.00">/MainTop.cpp</text>
</a>
</g>
</g>
<!-- Node1&#45;&gt;Node39 -->
<g id="edge41" class="edge"><title>Node1&#45;&gt;Node39</title>
<path fill="none" stroke="midnightblue" d="M1560.94,-272.404C1658.82,-266.326 1825.3,-253.757 1967,-232 1970.18,-231.512 1973.43,-230.966 1976.7,-230.379"/>
<polygon fill="midnightblue" stroke="midnightblue" points="1560.57,-268.92 1550.81,-273.025 1561,-275.907 1560.57,-268.92"/>
</g>
<!-- Node40 -->
<g id="node40" class="node"><title>Node40</title>
<g id="a_node40"><a xlink:href="../../d2/d88/TopPartnerLeptonicTagger_8hh.html" target="_top" xlink:title="TopPartner/include\l/TopPartnerLeptonicTagger.hh">
<polygon fill="white" stroke="black" points="2637,-201.5 2637,-231.5 2785,-231.5 2785,-201.5 2637,-201.5"/>
<text text-anchor="start" x="2645" y="-219.5" font-family="Helvetica,sans-Serif" font-size="10.00">TopPartner/include</text>
<text text-anchor="middle" x="2711" y="-208.5" font-family="Helvetica,sans-Serif" font-size="10.00">/TopPartnerLeptonicTagger.hh</text>
</a>
</g>
</g>
<!-- Node1&#45;&gt;Node40 -->
<g id="edge42" class="edge"><title>Node1&#45;&gt;Node40</title>
<path fill="none" stroke="midnightblue" d="M1561.22,-272.939C1789.98,-261.909 2420.25,-231.519 2636.8,-221.078"/>
<polygon fill="midnightblue" stroke="midnightblue" points="1560.77,-269.456 1550.95,-273.434 1561.11,-276.448 1560.77,-269.456"/>
</g>
<!-- Node3 -->
<g id="node3" class="node"><title>Node3</title>
<g id="a_node3"><a xlink:href="../../d5/d8c/ChargedHiggsLeptonicTagger_8cpp.html" target="_top" xlink:title="HeavyHiggs/source/Charged\lHiggsLeptonicTagger.cpp">
<polygon fill="white" stroke="black" points="115.5,-134.5 115.5,-164.5 258.5,-164.5 258.5,-134.5 115.5,-134.5"/>
<text text-anchor="start" x="123.5" y="-152.5" font-family="Helvetica,sans-Serif" font-size="10.00">HeavyHiggs/source/Charged</text>
<text text-anchor="middle" x="187" y="-141.5" font-family="Helvetica,sans-Serif" font-size="10.00">HiggsLeptonicTagger.cpp</text>
</a>
</g>
</g>
<!-- Node2&#45;&gt;Node3 -->
<g id="edge2" class="edge"><title>Node2&#45;&gt;Node3</title>
<path fill="none" stroke="midnightblue" d="M241.625,-194.883C229.468,-185.005 215.221,-173.429 204.325,-164.577"/>
<polygon fill="midnightblue" stroke="midnightblue" points="239.673,-197.806 249.641,-201.396 244.087,-192.374 239.673,-197.806"/>
</g>
<!-- Node5 -->
<g id="node5" class="node"><title>Node5</title>
<g id="a_node5"><a xlink:href="../../dd/d61/SignatureChargedTagger_8hh.html" target="_top" xlink:title="HeavyHiggs/include\l/SignatureChargedTagger.hh">
<polygon fill="white" stroke="black" points="276.5,-134.5 276.5,-164.5 417.5,-164.5 417.5,-134.5 276.5,-134.5"/>
<text text-anchor="start" x="284.5" y="-152.5" font-family="Helvetica,sans-Serif" font-size="10.00">HeavyHiggs/include</text>
<text text-anchor="middle" x="347" y="-141.5" font-family="Helvetica,sans-Serif" font-size="10.00">/SignatureChargedTagger.hh</text>
</a>
</g>
</g>
<!-- Node4&#45;&gt;Node5 -->
<g id="edge4" class="edge"><title>Node4&#45;&gt;Node5</title>
<path fill="none" stroke="midnightblue" d="M472.212,-197.819C444.565,-187.371 410.04,-174.323 384.249,-164.577"/>
<polygon fill="midnightblue" stroke="midnightblue" points="471.087,-201.135 481.679,-201.396 473.562,-194.587 471.087,-201.135"/>
</g>
<!-- Node10 -->
<g id="node10" class="node"><title>Node10</title>
<g id="a_node10"><a xlink:href="../../df/d31/ChargedHiggsSemiTagger_8cpp.html" target="_top" xlink:title="HeavyHiggs/source/Charged\lHiggsSemiTagger.cpp">
<polygon fill="white" stroke="black" points="447.5,-134.5 447.5,-164.5 590.5,-164.5 590.5,-134.5 447.5,-134.5"/>
<text text-anchor="start" x="455.5" y="-152.5" font-family="Helvetica,sans-Serif" font-size="10.00">HeavyHiggs/source/Charged</text>
<text text-anchor="middle" x="519" y="-141.5" font-family="Helvetica,sans-Serif" font-size="10.00">HiggsSemiTagger.cpp</text>
</a>
</g>
</g>
<!-- Node4&#45;&gt;Node10 -->
<g id="edge9" class="edge"><title>Node4&#45;&gt;Node10</title>
<path fill="none" stroke="midnightblue" d="M519,-191.108C519,-182.154 519,-172.323 519,-164.577"/>
<polygon fill="midnightblue" stroke="midnightblue" points="515.5,-191.396 519,-201.396 522.5,-191.396 515.5,-191.396"/>
</g>
<!-- Node6 -->
<g id="node6" class="node"><title>Node6</title>
<g id="a_node6"><a xlink:href="../../da/df5/EventChargedTagger_8hh.html" target="_top" xlink:title="HeavyHiggs/include\l/EventChargedTagger.hh">
<polygon fill="white" stroke="black" points="117.5,-67.5 117.5,-97.5 242.5,-97.5 242.5,-67.5 117.5,-67.5"/>
<text text-anchor="start" x="125.5" y="-85.5" font-family="Helvetica,sans-Serif" font-size="10.00">HeavyHiggs/include</text>
<text text-anchor="middle" x="180" y="-74.5" font-family="Helvetica,sans-Serif" font-size="10.00">/EventChargedTagger.hh</text>
</a>
</g>
</g>
<!-- Node5&#45;&gt;Node6 -->
<g id="edge5" class="edge"><title>Node5&#45;&gt;Node6</title>
<path fill="none" stroke="midnightblue" d="M301.22,-130.682C274.437,-120.257 241.098,-107.281 216.166,-97.5765"/>
<polygon fill="midnightblue" stroke="midnightblue" points="300.175,-134.03 310.763,-134.396 302.714,-127.507 300.175,-134.03"/>
</g>
<!-- Node9 -->
<g id="node9" class="node"><title>Node9</title>
<g id="a_node9"><a xlink:href="../../da/d27/SignatureChargedTagger_8cpp.html" target="_top" xlink:title="HeavyHiggs/source/Signature\lChargedTagger.cpp">
<polygon fill="white" stroke="black" points="260.5,-67.5 260.5,-97.5 407.5,-97.5 407.5,-67.5 260.5,-67.5"/>
<text text-anchor="start" x="268.5" y="-85.5" font-family="Helvetica,sans-Serif" font-size="10.00">HeavyHiggs/source/Signature</text>
<text text-anchor="middle" x="334" y="-74.5" font-family="Helvetica,sans-Serif" font-size="10.00">ChargedTagger.cpp</text>
</a>
</g>
</g>
<!-- Node5&#45;&gt;Node9 -->
<g id="edge8" class="edge"><title>Node5&#45;&gt;Node9</title>
<path fill="none" stroke="midnightblue" d="M342.181,-124.403C340.374,-115.37 338.382,-105.408 336.815,-97.5765"/>
<polygon fill="midnightblue" stroke="midnightblue" points="338.786,-125.277 344.179,-134.396 345.65,-123.904 338.786,-125.277"/>
</g>
<!-- Node7 -->
<g id="node7" class="node"><title>Node7</title>
<g id="a_node7"><a xlink:href="../../d8/db6/EventChargedTagger_8cpp.html" target="_top" xlink:title="HeavyHiggs/source/EventCharged\lTagger.cpp">
<polygon fill="white" stroke="black" points="0,-0.5 0,-30.5 168,-30.5 168,-0.5 0,-0.5"/>
<text text-anchor="start" x="8" y="-18.5" font-family="Helvetica,sans-Serif" font-size="10.00">HeavyHiggs/source/EventCharged</text>
<text text-anchor="middle" x="84" y="-7.5" font-family="Helvetica,sans-Serif" font-size="10.00">Tagger.cpp</text>
</a>
</g>
</g>
<!-- Node6&#45;&gt;Node7 -->
<g id="edge6" class="edge"><title>Node6&#45;&gt;Node7</title>
<path fill="none" stroke="midnightblue" d="M150.807,-61.7337C135.952,-51.6755 118.242,-39.6847 104.79,-30.5765"/>
<polygon fill="midnightblue" stroke="midnightblue" points="148.927,-64.6875 159.169,-67.396 152.851,-58.8912 148.927,-64.6875"/>
</g>
<!-- Node8 -->
<g id="node8" class="node"><title>Node8</title>
<g id="a_node8"><a xlink:href="../../d3/d46/MainCharged_8cpp.html" target="_top" xlink:title="HeavyHiggs/source/MainCharged.cpp">
<polygon fill="white" stroke="black" points="186,-6 186,-25 368,-25 368,-6 186,-6"/>
<text text-anchor="middle" x="277" y="-13" font-family="Helvetica,sans-Serif" font-size="10.00">HeavyHiggs/source/MainCharged.cpp</text>
</a>
</g>
</g>
<!-- Node6&#45;&gt;Node8 -->
<g id="edge7" class="edge"><title>Node6&#45;&gt;Node8</title>
<path fill="none" stroke="midnightblue" d="M209.636,-61.6409C227.942,-49.3742 250.495,-34.2613 264.305,-25.007"/>
<polygon fill="midnightblue" stroke="midnightblue" points="207.406,-58.9216 201.048,-67.396 211.303,-64.7367 207.406,-58.9216"/>
</g>
<!-- Node12 -->
<g id="node12" class="node"><title>Node12</title>
<g id="a_node12"><a xlink:href="../../dd/d94/EventFusionTagger_8hh.html" target="_top" xlink:title="HeavyHiggs/include\l/EventFusionTagger.hh">
<polygon fill="white" stroke="black" points="633,-134.5 633,-164.5 751,-164.5 751,-134.5 633,-134.5"/>
<text text-anchor="start" x="641" y="-152.5" font-family="Helvetica,sans-Serif" font-size="10.00">HeavyHiggs/include</text>
<text text-anchor="middle" x="692" y="-141.5" font-family="Helvetica,sans-Serif" font-size="10.00">/EventFusionTagger.hh</text>
</a>
</g>
</g>
<!-- Node11&#45;&gt;Node12 -->
<g id="edge11" class="edge"><title>Node11&#45;&gt;Node12</title>
<path fill="none" stroke="midnightblue" d="M891.435,-199.052C847.784,-188.425 791.576,-174.741 749.963,-164.611"/>
<polygon fill="midnightblue" stroke="midnightblue" points="890.85,-202.511 901.394,-201.476 892.505,-195.71 890.85,-202.511"/>
</g>
<!-- Node15 -->
<g id="node15" class="node"><title>Node15</title>
<g id="a_node15"><a xlink:href="../../d4/df4/SignatureNeutralTagger_8hh.html" target="_top" xlink:title="HeavyHiggs/include\l/SignatureNeutralTagger.hh">
<polygon fill="white" stroke="black" points="808,-134.5 808,-164.5 944,-164.5 944,-134.5 808,-134.5"/>
<text text-anchor="start" x="816" y="-152.5" font-family="Helvetica,sans-Serif" font-size="10.00">HeavyHiggs/include</text>
<text text-anchor="middle" x="876" y="-141.5" font-family="Helvetica,sans-Serif" font-size="10.00">/SignatureNeutralTagger.hh</text>
</a>
</g>
</g>
<!-- Node11&#45;&gt;Node15 -->
<g id="edge14" class="edge"><title>Node11&#45;&gt;Node15</title>
<path fill="none" stroke="midnightblue" d="M933.037,-195.168C920.345,-185.228 905.388,-173.514 893.975,-164.577"/>
<polygon fill="midnightblue" stroke="midnightblue" points="930.959,-197.986 940.99,-201.396 935.275,-192.475 930.959,-197.986"/>
</g>
<!-- Node21 -->
<g id="node21" class="node"><title>Node21</title>
<g id="a_node21"><a xlink:href="../../d7/d28/HeavyHiggsSemiTagger_8cpp.html" target="_top" xlink:title="HeavyHiggs/source/HeavyHiggs\lSemiTagger.cpp">
<polygon fill="white" stroke="black" points="962,-134.5 962,-164.5 1122,-164.5 1122,-134.5 962,-134.5"/>
<text text-anchor="start" x="970" y="-152.5" font-family="Helvetica,sans-Serif" font-size="10.00">HeavyHiggs/source/HeavyHiggs</text>
<text text-anchor="middle" x="1042" y="-141.5" font-family="Helvetica,sans-Serif" font-size="10.00">SemiTagger.cpp</text>
</a>
</g>
</g>
<!-- Node11&#45;&gt;Node21 -->
<g id="edge20" class="edge"><title>Node11&#45;&gt;Node21</title>
<path fill="none" stroke="midnightblue" d="M984.963,-195.168C997.655,-185.228 1012.61,-173.514 1024.03,-164.577"/>
<polygon fill="midnightblue" stroke="midnightblue" points="982.725,-192.475 977.01,-201.396 987.041,-197.986 982.725,-192.475"/>
</g>
<!-- Node13 -->
<g id="node13" class="node"><title>Node13</title>
<g id="a_node13"><a xlink:href="../../d2/d1b/EventFusionTagger_8cpp.html" target="_top" xlink:title="HeavyHiggs/source/EventFusion\lTagger.cpp">
<polygon fill="white" stroke="black" points="425.5,-67.5 425.5,-97.5 586.5,-97.5 586.5,-67.5 425.5,-67.5"/>
<text text-anchor="start" x="433.5" y="-85.5" font-family="Helvetica,sans-Serif" font-size="10.00">HeavyHiggs/source/EventFusion</text>
<text text-anchor="middle" x="506" y="-74.5" font-family="Helvetica,sans-Serif" font-size="10.00">Tagger.cpp</text>
</a>
</g>
</g>
<!-- Node12&#45;&gt;Node13 -->
<g id="edge12" class="edge"><title>Node12&#45;&gt;Node13</title>
<path fill="none" stroke="midnightblue" d="M642.185,-131.092C612.16,-120.599 574.414,-107.408 546.28,-97.5765"/>
<polygon fill="midnightblue" stroke="midnightblue" points="641.046,-134.401 651.641,-134.396 643.355,-127.793 641.046,-134.401"/>
</g>
<!-- Node14 -->
<g id="node14" class="node"><title>Node14</title>
<g id="a_node14"><a xlink:href="../../d5/d90/MainFusion_8cpp.html" target="_top" xlink:title="HeavyHiggs/source/MainFusion.cpp">
<polygon fill="white" stroke="black" points="604.5,-73 604.5,-92 779.5,-92 779.5,-73 604.5,-73"/>
<text text-anchor="middle" x="692" y="-80" font-family="Helvetica,sans-Serif" font-size="10.00">HeavyHiggs/source/MainFusion.cpp</text>
</a>
</g>
</g>
<!-- Node12&#45;&gt;Node14 -->
<g id="edge13" class="edge"><title>Node12&#45;&gt;Node14</title>
<path fill="none" stroke="midnightblue" d="M692,-124.25C692,-113.017 692,-100.377 692,-92.1945"/>
<polygon fill="midnightblue" stroke="midnightblue" points="688.5,-124.396 692,-134.396 695.5,-124.396 688.5,-124.396"/>
</g>
<!-- Node16 -->
<g id="node16" class="node"><title>Node16</title>
<g id="a_node16"><a xlink:href="../../db/db0/EventNeutralFourTopTagger_8hh.html" target="_top" xlink:title="HeavyHiggs/include\l/EventNeutralFourTopTagger.hh">
<polygon fill="white" stroke="black" points="798,-67.5 798,-97.5 954,-97.5 954,-67.5 798,-67.5"/>
<text text-anchor="start" x="806" y="-85.5" font-family="Helvetica,sans-Serif" font-size="10.00">HeavyHiggs/include</text>
<text text-anchor="middle" x="876" y="-74.5" font-family="Helvetica,sans-Serif" font-size="10.00">/EventNeutralFourTopTagger.hh</text>
</a>
</g>
</g>
<!-- Node15&#45;&gt;Node16 -->
<g id="edge15" class="edge"><title>Node15&#45;&gt;Node16</title>
<path fill="none" stroke="midnightblue" d="M876,-124.108C876,-115.154 876,-105.323 876,-97.5765"/>
<polygon fill="midnightblue" stroke="midnightblue" points="872.5,-124.396 876,-134.396 879.5,-124.396 872.5,-124.396"/>
</g>
<!-- Node19 -->
<g id="node19" class="node"><title>Node19</title>
<g id="a_node19"><a xlink:href="../../d0/dfb/EventNeutralTagger_8hh.html" target="_top" xlink:title="HeavyHiggs/include\l/EventNeutralTagger.hh">
<polygon fill="white" stroke="red" points="972,-67.5 972,-97.5 1092,-97.5 1092,-67.5 972,-67.5"/>
<text text-anchor="start" x="980" y="-85.5" font-family="Helvetica,sans-Serif" font-size="10.00">HeavyHiggs/include</text>
<text text-anchor="middle" x="1032" y="-74.5" font-family="Helvetica,sans-Serif" font-size="10.00">/EventNeutralTagger.hh</text>
</a>
</g>
</g>
<!-- Node15&#45;&gt;Node19 -->
<g id="edge18" class="edge"><title>Node15&#45;&gt;Node19</title>
<path fill="none" stroke="midnightblue" d="M919.094,-130.544C944.057,-120.143 975.029,-107.238 998.216,-97.5765"/>
<polygon fill="midnightblue" stroke="midnightblue" points="917.734,-127.319 909.85,-134.396 920.427,-133.781 917.734,-127.319"/>
</g>
<!-- Node20 -->
<g id="node20" class="node"><title>Node20</title>
<g id="a_node20"><a xlink:href="../../de/da6/SignatureNeutralTagger_8cpp.html" target="_top" xlink:title="HeavyHiggs/source/Signature\lNeutralTagger.cpp">
<polygon fill="white" stroke="black" points="1110.5,-67.5 1110.5,-97.5 1257.5,-97.5 1257.5,-67.5 1110.5,-67.5"/>
<text text-anchor="start" x="1118.5" y="-85.5" font-family="Helvetica,sans-Serif" font-size="10.00">HeavyHiggs/source/Signature</text>
<text text-anchor="middle" x="1184" y="-74.5" font-family="Helvetica,sans-Serif" font-size="10.00">NeutralTagger.cpp</text>
</a>
</g>
</g>
<!-- Node15&#45;&gt;Node20 -->
<g id="edge19" class="edge"><title>Node15&#45;&gt;Node20</title>
<path fill="none" stroke="midnightblue" d="M952.373,-132.382C1003.03,-121.691 1068.87,-107.796 1117.4,-97.5549"/>
<polygon fill="midnightblue" stroke="midnightblue" points="951.514,-128.986 942.452,-134.476 952.959,-135.836 951.514,-128.986"/>
</g>
<!-- Node17 -->
<g id="node17" class="node"><title>Node17</title>
<g id="a_node17"><a xlink:href="../../d6/d0b/EventNeutralFourTopTagger_8cpp.html" target="_top" xlink:title="HeavyHiggs/source/EventNeutral\lFourTopTagger.cpp">
<polygon fill="white" stroke="black" points="704.5,-0.5 704.5,-30.5 867.5,-30.5 867.5,-0.5 704.5,-0.5"/>
<text text-anchor="start" x="712.5" y="-18.5" font-family="Helvetica,sans-Serif" font-size="10.00">HeavyHiggs/source/EventNeutral</text>
<text text-anchor="middle" x="786" y="-7.5" font-family="Helvetica,sans-Serif" font-size="10.00">FourTopTagger.cpp</text>
</a>
</g>
</g>
<!-- Node16&#45;&gt;Node17 -->
<g id="edge16" class="edge"><title>Node16&#45;&gt;Node17</title>
<path fill="none" stroke="midnightblue" d="M848.24,-61.4511C834.395,-51.4517 817.984,-39.5995 805.491,-30.5765"/>
<polygon fill="midnightblue" stroke="midnightblue" points="846.315,-64.3784 856.471,-67.396 850.414,-58.7036 846.315,-64.3784"/>
</g>
<!-- Node18 -->
<g id="node18" class="node"><title>Node18</title>
<g id="a_node18"><a xlink:href="../../d0/d67/MainNeutralFourTop_8cpp.html" target="_top" xlink:title="HeavyHiggs/source/MainNeutral\lFourTop.cpp">
<polygon fill="white" stroke="black" points="886,-0.5 886,-30.5 1044,-30.5 1044,-0.5 886,-0.5"/>
<text text-anchor="start" x="894" y="-18.5" font-family="Helvetica,sans-Serif" font-size="10.00">HeavyHiggs/source/MainNeutral</text>
<text text-anchor="middle" x="965" y="-7.5" font-family="Helvetica,sans-Serif" font-size="10.00">FourTop.cpp</text>
</a>
</g>
</g>
<!-- Node16&#45;&gt;Node18 -->
<g id="edge17" class="edge"><title>Node16&#45;&gt;Node18</title>
<path fill="none" stroke="midnightblue" d="M903.452,-61.4511C917.143,-51.4517 933.371,-39.5995 945.726,-30.5765"/>
<polygon fill="midnightblue" stroke="midnightblue" points="901.323,-58.6716 895.312,-67.396 905.452,-64.3245 901.323,-58.6716"/>
</g>
<!-- Node23 -->
<g id="node23" class="node"><title>Node23</title>
<g id="a_node23"><a xlink:href="../../d8/dce/HeavyHiggsLeptonicTagger_8cpp.html" target="_top" xlink:title="HeavyHiggs/source/HeavyHiggs\lLeptonicTagger.cpp">
<polygon fill="white" stroke="black" points="1140,-134.5 1140,-164.5 1300,-164.5 1300,-134.5 1140,-134.5"/>
<text text-anchor="start" x="1148" y="-152.5" font-family="Helvetica,sans-Serif" font-size="10.00">HeavyHiggs/source/HeavyHiggs</text>
<text text-anchor="middle" x="1220" y="-141.5" font-family="Helvetica,sans-Serif" font-size="10.00">LeptonicTagger.cpp</text>
</a>
</g>
</g>
<!-- Node22&#45;&gt;Node23 -->
<g id="edge22" class="edge"><title>Node22&#45;&gt;Node23</title>
<path fill="none" stroke="midnightblue" d="M1221.89,-191.403C1221.47,-182.37 1221.01,-172.408 1220.65,-164.577"/>
<polygon fill="midnightblue" stroke="midnightblue" points="1218.39,-191.568 1222.35,-201.396 1225.38,-191.245 1218.39,-191.568"/>
</g>
<!-- Node25 -->
<g id="node25" class="node"><title>Node25</title>
<g id="a_node25"><a xlink:href="../../d0/d71/HiggsCpv_2source_2main_8cpp.html" target="_top" xlink:title="HiggsCpv/source/main.cpp">
<polygon fill="white" stroke="black" points="1500.5,-6 1500.5,-25 1635.5,-25 1635.5,-6 1500.5,-6"/>
<text text-anchor="middle" x="1568" y="-13" font-family="Helvetica,sans-Serif" font-size="10.00">HiggsCpv/source/main.cpp</text>
</a>
</g>
</g>
<!-- Node24&#45;&gt;Node25 -->
<g id="edge24" class="edge"><title>Node24&#45;&gt;Node25</title>
<path fill="none" stroke="midnightblue" d="M1371.77,-194.434C1349.75,-172.752 1318.13,-136.749 1305,-98 1300.58,-84.9515 1296.22,-77.6213 1305,-67 1329.32,-37.5647 1430.7,-25.1124 1500.24,-19.9676"/>
<polygon fill="midnightblue" stroke="midnightblue" points="1369.48,-197.085 1379.12,-201.487 1374.33,-192.036 1369.48,-197.085"/>
</g>
<!-- Node27 -->
<g id="node27" class="node"><title>Node27</title>
<g id="a_node27"><a xlink:href="../../d1/d44/SignatureTagger_8hh.html" target="_top" xlink:title="HiggsCpv/include/Signature\lTagger.hh">
<polygon fill="white" stroke="black" points="1491,-134.5 1491,-164.5 1629,-164.5 1629,-134.5 1491,-134.5"/>
<text text-anchor="start" x="1499" y="-152.5" font-family="Helvetica,sans-Serif" font-size="10.00">HiggsCpv/include/Signature</text>
<text text-anchor="middle" x="1560" y="-141.5" font-family="Helvetica,sans-Serif" font-size="10.00">Tagger.hh</text>
</a>
</g>
</g>
<!-- Node26&#45;&gt;Node27 -->
<g id="edge26" class="edge"><title>Node26&#45;&gt;Node27</title>
<path fill="none" stroke="midnightblue" d="M1560,-191.108C1560,-182.154 1560,-172.323 1560,-164.577"/>
<polygon fill="midnightblue" stroke="midnightblue" points="1556.5,-191.396 1560,-201.396 1563.5,-191.396 1556.5,-191.396"/>
</g>
<!-- Node30 -->
<g id="node30" class="node"><title>Node30</title>
<g id="a_node30"><a xlink:href="../../d6/dfb/SignatureTTagger_8hh.html" target="_top" xlink:title="HiggsCpv/include/Signature\lTTagger.hh">
<polygon fill="white" stroke="black" points="1668,-134.5 1668,-164.5 1806,-164.5 1806,-134.5 1668,-134.5"/>
<text text-anchor="start" x="1676" y="-152.5" font-family="Helvetica,sans-Serif" font-size="10.00">HiggsCpv/include/Signature</text>
<text text-anchor="middle" x="1737" y="-141.5" font-family="Helvetica,sans-Serif" font-size="10.00">TTagger.hh</text>
</a>
</g>
</g>
<!-- Node26&#45;&gt;Node30 -->
<g id="edge30" class="edge"><title>Node26&#45;&gt;Node30</title>
<path fill="none" stroke="midnightblue" d="M1608.15,-197.819C1636.6,-187.371 1672.13,-174.323 1698.67,-164.577"/>
<polygon fill="midnightblue" stroke="midnightblue" points="1606.59,-194.663 1598.41,-201.396 1609,-201.234 1606.59,-194.663"/>
</g>
<!-- Node33 -->
<g id="node33" class="node"><title>Node33</title>
<g id="a_node33"><a xlink:href="../../d9/d75/SignatureLeptonTagger_8hh.html" target="_top" xlink:title="HiggsCpv/include/Signature\lLeptonTagger.hh">
<polygon fill="white" stroke="black" points="1824,-134.5 1824,-164.5 1962,-164.5 1962,-134.5 1824,-134.5"/>
<text text-anchor="start" x="1832" y="-152.5" font-family="Helvetica,sans-Serif" font-size="10.00">HiggsCpv/include/Signature</text>
<text text-anchor="middle" x="1893" y="-141.5" font-family="Helvetica,sans-Serif" font-size="10.00">LeptonTagger.hh</text>
</a>
</g>
</g>
<!-- Node26&#45;&gt;Node33 -->
<g id="edge34" class="edge"><title>Node26&#45;&gt;Node33</title>
<path fill="none" stroke="midnightblue" d="M1641.72,-199.549C1697.6,-188.642 1770.86,-174.341 1823.85,-163.998"/>
<polygon fill="midnightblue" stroke="midnightblue" points="1640.99,-196.125 1631.85,-201.476 1642.33,-202.995 1640.99,-196.125"/>
</g>
<!-- Node35 -->
<g id="node35" class="node"><title>Node35</title>
<g id="a_node35"><a xlink:href="../../d4/db4/TopLeptonicPairTagger_8cpp.html" target="_top" xlink:title="HiggsCpv/source/TopLeptonic\lPairTagger.cpp">
<polygon fill="white" stroke="black" points="1980.5,-134.5 1980.5,-164.5 2129.5,-164.5 2129.5,-134.5 1980.5,-134.5"/>
<text text-anchor="start" x="1988.5" y="-152.5" font-family="Helvetica,sans-Serif" font-size="10.00">HiggsCpv/source/TopLeptonic</text>
<text text-anchor="middle" x="2055" y="-141.5" font-family="Helvetica,sans-Serif" font-size="10.00">PairTagger.cpp</text>
</a>
</g>
</g>
<!-- Node26&#45;&gt;Node35 -->
<g id="edge37" class="edge"><title>Node26&#45;&gt;Node35</title>
<path fill="none" stroke="midnightblue" d="M1645.25,-200.881C1790.51,-180.762 1829.48,-184.986 1971,-165 1974.08,-164.565 1977.21,-164.105 1980.38,-163.625"/>
<polygon fill="midnightblue" stroke="midnightblue" points="1644.49,-197.454 1635.07,-202.307 1645.46,-204.386 1644.49,-197.454"/>
</g>
<!-- Node28 -->
<g id="node28" class="node"><title>Node28</title>
<g id="a_node28"><a xlink:href="../../dd/db1/EventTagger_8hh.html" target="_top" xlink:title="HiggsCpv/include/EventTagger.hh">
<polygon fill="white" stroke="red" points="1314,-73 1314,-92 1480,-92 1480,-73 1314,-73"/>
<text text-anchor="middle" x="1397" y="-80" font-family="Helvetica,sans-Serif" font-size="10.00">HiggsCpv/include/EventTagger.hh</text>
</a>
</g>
</g>
<!-- Node27&#45;&gt;Node28 -->
<g id="edge27" class="edge"><title>Node27&#45;&gt;Node28</title>
<path fill="none" stroke="midnightblue" d="M1515.17,-130.621C1483.62,-118.04 1442.81,-101.766 1418.33,-92.007"/>
<polygon fill="midnightblue" stroke="midnightblue" points="1514.05,-133.943 1524.63,-134.396 1516.64,-127.441 1514.05,-133.943"/>
</g>
<!-- Node29 -->
<g id="node29" class="node"><title>Node29</title>
<g id="a_node29"><a xlink:href="../../d0/d77/SignatureTagger_8cpp.html" target="_top" xlink:title="HiggsCpv/source/Signature\lTagger.cpp">
<polygon fill="white" stroke="black" points="1498.5,-67.5 1498.5,-97.5 1635.5,-97.5 1635.5,-67.5 1498.5,-67.5"/>
<text text-anchor="start" x="1506.5" y="-85.5" font-family="Helvetica,sans-Serif" font-size="10.00">HiggsCpv/source/Signature</text>
<text text-anchor="middle" x="1567" y="-74.5" font-family="Helvetica,sans-Serif" font-size="10.00">Tagger.cpp</text>
</a>
</g>
</g>
<!-- Node27&#45;&gt;Node29 -->
<g id="edge29" class="edge"><title>Node27&#45;&gt;Node29</title>
<path fill="none" stroke="midnightblue" d="M1562.6,-124.403C1563.57,-115.37 1564.64,-105.408 1565.48,-97.5765"/>
<polygon fill="midnightblue" stroke="midnightblue" points="1559.11,-124.079 1561.52,-134.396 1566.07,-124.828 1559.11,-124.079"/>
</g>
<!-- Node28&#45;&gt;Node25 -->
<g id="edge28" class="edge"><title>Node28&#45;&gt;Node25</title>
<path fill="none" stroke="midnightblue" d="M1429.17,-69.2706C1463.11,-56.3699 1515.71,-36.3757 1545.47,-25.0637"/>
<polygon fill="midnightblue" stroke="midnightblue" points="1427.81,-66.0437 1419.71,-72.8685 1430.3,-72.5869 1427.81,-66.0437"/>
</g>
<!-- Node31 -->
<g id="node31" class="node"><title>Node31</title>
<g id="a_node31"><a xlink:href="../../d2/d85/EventTTagger_8hh.html" target="_top" xlink:title="HiggsCpv/include/EventTTagger.hh">
<polygon fill="white" stroke="red" points="1654,-73 1654,-92 1826,-92 1826,-73 1654,-73"/>
<text text-anchor="middle" x="1740" y="-80" font-family="Helvetica,sans-Serif" font-size="10.00">HiggsCpv/include/EventTTagger.hh</text>
</a>
</g>
</g>
<!-- Node30&#45;&gt;Node31 -->
<g id="edge31" class="edge"><title>Node30&#45;&gt;Node31</title>
<path fill="none" stroke="midnightblue" d="M1738.12,-124.25C1738.64,-113.017 1739.22,-100.377 1739.6,-92.1945"/>
<polygon fill="midnightblue" stroke="midnightblue" points="1734.62,-124.245 1737.65,-134.396 1741.61,-124.568 1734.62,-124.245"/>
</g>
<!-- Node32 -->
<g id="node32" class="node"><title>Node32</title>
<g id="a_node32"><a xlink:href="../../d8/d69/SignatureTTagger_8cpp.html" target="_top" xlink:title="HiggsCpv/source/Signature\lTTagger.cpp">
<polygon fill="white" stroke="black" points="1844.5,-67.5 1844.5,-97.5 1981.5,-97.5 1981.5,-67.5 1844.5,-67.5"/>
<text text-anchor="start" x="1852.5" y="-85.5" font-family="Helvetica,sans-Serif" font-size="10.00">HiggsCpv/source/Signature</text>
<text text-anchor="middle" x="1913" y="-74.5" font-family="Helvetica,sans-Serif" font-size="10.00">TTagger.cpp</text>
</a>
</g>
</g>
<!-- Node30&#45;&gt;Node32 -->
<g id="edge33" class="edge"><title>Node30&#45;&gt;Node32</title>
<path fill="none" stroke="midnightblue" d="M1784.88,-130.819C1813.17,-120.371 1848.49,-107.323 1874.89,-97.5765"/>
<polygon fill="midnightblue" stroke="midnightblue" points="1783.36,-127.648 1775.19,-134.396 1785.78,-134.215 1783.36,-127.648"/>
</g>
<!-- Node31&#45;&gt;Node25 -->
<g id="edge32" class="edge"><title>Node31&#45;&gt;Node25</title>
<path fill="none" stroke="midnightblue" d="M1707.64,-69.2706C1673.5,-56.3699 1620.59,-36.3757 1590.66,-25.0637"/>
<polygon fill="midnightblue" stroke="midnightblue" points="1706.57,-72.6074 1717.16,-72.8685 1709.04,-66.0594 1706.57,-72.6074"/>
</g>
<!-- Node33&#45;&gt;Node25 -->
<g id="edge35" class="edge"><title>Node33&#45;&gt;Node25</title>
<path fill="none" stroke="midnightblue" d="M1941.71,-130.248C1975.77,-114.808 2011.62,-91.3606 1990,-67 1966.92,-40.9928 1749.03,-25.9052 1635.73,-19.757"/>
<polygon fill="midnightblue" stroke="midnightblue" points="1939.97,-127.186 1932.2,-134.384 1942.76,-133.606 1939.97,-127.186"/>
</g>
<!-- Node34 -->
<g id="node34" class="node"><title>Node34</title>
<g id="a_node34"><a xlink:href="../../d9/d93/SignatureLeptonTagger_8cpp.html" target="_top" xlink:title="HiggsCpv/source/Signature\lLeptonTagger.cpp">
<polygon fill="white" stroke="black" points="2038.5,-67.5 2038.5,-97.5 2175.5,-97.5 2175.5,-67.5 2038.5,-67.5"/>
<text text-anchor="start" x="2046.5" y="-85.5" font-family="Helvetica,sans-Serif" font-size="10.00">HiggsCpv/source/Signature</text>
<text text-anchor="middle" x="2107" y="-74.5" font-family="Helvetica,sans-Serif" font-size="10.00">LeptonTagger.cpp</text>
</a>
</g>
</g>
<!-- Node33&#45;&gt;Node34 -->
<g id="edge36" class="edge"><title>Node33&#45;&gt;Node34</title>
<path fill="none" stroke="midnightblue" d="M1949.15,-131.444C1983.84,-120.908 2027.82,-107.549 2060.54,-97.6109"/>
<polygon fill="midnightblue" stroke="midnightblue" points="1947.72,-128.221 1939.17,-134.476 1949.76,-134.919 1947.72,-128.221"/>
</g>
<!-- Node37 -->
<g id="node37" class="node"><title>Node37</title>
<g id="a_node37"><a xlink:href="../../da/ddf/TopSemiPairTagger_8cpp.html" target="_top" xlink:title="HiggsCpv/source/TopSemiPair\lTagger.cpp">
<polygon fill="white" stroke="black" points="2148,-134.5 2148,-164.5 2300,-164.5 2300,-134.5 2148,-134.5"/>
<text text-anchor="start" x="2156" y="-152.5" font-family="Helvetica,sans-Serif" font-size="10.00">HiggsCpv/source/TopSemiPair</text>
<text text-anchor="middle" x="2224" y="-141.5" font-family="Helvetica,sans-Serif" font-size="10.00">Tagger.cpp</text>
</a>
</g>
</g>
<!-- Node36&#45;&gt;Node37 -->
<g id="edge39" class="edge"><title>Node36&#45;&gt;Node37</title>
<path fill="none" stroke="midnightblue" d="M1799.47,-200.859C1950.08,-179.198 1990.69,-185.198 2138,-165 2141.15,-164.568 2144.36,-164.109 2147.6,-163.631"/>
<polygon fill="midnightblue" stroke="midnightblue" points="1798.78,-197.422 1789.39,-202.326 1799.79,-204.349 1798.78,-197.422"/>
</g>
<!-- Node41 -->
<g id="node41" class="node"><title>Node41</title>
<g id="a_node41"><a xlink:href="../../d9/ddc/TopPartnerPairTagger_8hh.html" target="_top" xlink:title="TopPartner/include\l/TopPartnerPairTagger.hh">
<polygon fill="white" stroke="black" points="2416,-134.5 2416,-164.5 2544,-164.5 2544,-134.5 2416,-134.5"/>
<text text-anchor="start" x="2424" y="-152.5" font-family="Helvetica,sans-Serif" font-size="10.00">TopPartner/include</text>
<text text-anchor="middle" x="2480" y="-141.5" font-family="Helvetica,sans-Serif" font-size="10.00">/TopPartnerPairTagger.hh</text>
</a>
</g>
</g>
<!-- Node40&#45;&gt;Node41 -->
<g id="edge43" class="edge"><title>Node40&#45;&gt;Node41</title>
<path fill="none" stroke="midnightblue" d="M2651.35,-198.715C2613.76,-188.137 2565.77,-174.635 2530.15,-164.611"/>
<polygon fill="midnightblue" stroke="midnightblue" points="2650.59,-202.136 2661.16,-201.476 2652.48,-195.398 2650.59,-202.136"/>
</g>
<!-- Node45 -->
<g id="node45" class="node"><title>Node45</title>
<g id="a_node45"><a xlink:href="../../d8/d38/TopPartnerTopPairTagger_8hh.html" target="_top" xlink:title="TopPartner/include\l/TopPartnerTopPairTagger.hh">
<polygon fill="white" stroke="black" points="2638.5,-134.5 2638.5,-164.5 2783.5,-164.5 2783.5,-134.5 2638.5,-134.5"/>
<text text-anchor="start" x="2646.5" y="-152.5" font-family="Helvetica,sans-Serif" font-size="10.00">TopPartner/include</text>
<text text-anchor="middle" x="2711" y="-141.5" font-family="Helvetica,sans-Serif" font-size="10.00">/TopPartnerTopPairTagger.hh</text>
</a>
</g>
</g>
<!-- Node40&#45;&gt;Node45 -->
<g id="edge47" class="edge"><title>Node40&#45;&gt;Node45</title>
<path fill="none" stroke="midnightblue" d="M2711,-191.108C2711,-182.154 2711,-172.323 2711,-164.577"/>
<polygon fill="midnightblue" stroke="midnightblue" points="2707.5,-191.396 2711,-201.396 2714.5,-191.396 2707.5,-191.396"/>
</g>
<!-- Node48 -->
<g id="node48" class="node"><title>Node48</title>
<g id="a_node48"><a xlink:href="../../d7/dcd/TopPartnerHiggsPairTagger_8hh.html" target="_top" xlink:title="TopPartner/include\l/TopPartnerHiggsPairTagger.hh">
<polygon fill="white" stroke="black" points="2802,-134.5 2802,-164.5 2956,-164.5 2956,-134.5 2802,-134.5"/>
<text text-anchor="start" x="2810" y="-152.5" font-family="Helvetica,sans-Serif" font-size="10.00">TopPartner/include</text>
<text text-anchor="middle" x="2879" y="-141.5" font-family="Helvetica,sans-Serif" font-size="10.00">/TopPartnerHiggsPairTagger.hh</text>
</a>
</g>
</g>
<!-- Node40&#45;&gt;Node48 -->
<g id="edge50" class="edge"><title>Node40&#45;&gt;Node48</title>
<path fill="none" stroke="midnightblue" d="M2757.05,-197.682C2784,-187.257 2817.54,-174.281 2842.62,-164.577"/>
<polygon fill="midnightblue" stroke="midnightblue" points="2755.52,-194.523 2747.45,-201.396 2758.04,-201.052 2755.52,-194.523"/>
</g>
<!-- Node50 -->
<g id="node50" class="node"><title>Node50</title>
<g id="a_node50"><a xlink:href="../../d5/de0/TopPartnerLeptonicTagger_8cpp.html" target="_top" xlink:title="TopPartner/source/TopPartner\lLeptonicTagger.cpp">
<polygon fill="white" stroke="black" points="2974,-134.5 2974,-164.5 3122,-164.5 3122,-134.5 2974,-134.5"/>
<text text-anchor="start" x="2982" y="-152.5" font-family="Helvetica,sans-Serif" font-size="10.00">TopPartner/source/TopPartner</text>
<text text-anchor="middle" x="3048" y="-141.5" font-family="Helvetica,sans-Serif" font-size="10.00">LeptonicTagger.cpp</text>
</a>
</g>
</g>
<!-- Node40&#45;&gt;Node50 -->
<g id="edge52" class="edge"><title>Node40&#45;&gt;Node50</title>
<path fill="none" stroke="midnightblue" d="M2793.87,-199.516C2849.39,-188.807 2921.81,-174.839 2975.13,-164.555"/>
<polygon fill="midnightblue" stroke="midnightblue" points="2792.87,-196.145 2783.71,-201.476 2794.19,-203.019 2792.87,-196.145"/>
</g>
<!-- Node42 -->
<g id="node42" class="node"><title>Node42</title>
<g id="a_node42"><a xlink:href="../../d2/d61/SignatureEffectiveTagger_8hh.html" target="_top" xlink:title="TopPartner/include\l/SignatureEffectiveTagger.hh">
<polygon fill="white" stroke="red" points="2193.5,-67.5 2193.5,-97.5 2336.5,-97.5 2336.5,-67.5 2193.5,-67.5"/>
<text text-anchor="start" x="2201.5" y="-85.5" font-family="Helvetica,sans-Serif" font-size="10.00">TopPartner/include</text>
<text text-anchor="middle" x="2265" y="-74.5" font-family="Helvetica,sans-Serif" font-size="10.00">/SignatureEffectiveTagger.hh</text>
</a>
</g>
</g>
<!-- Node41&#45;&gt;Node42 -->
<g id="edge44" class="edge"><title>Node41&#45;&gt;Node42</title>
<path fill="none" stroke="midnightblue" d="M2424.03,-131.58C2389.11,-121.022 2344.69,-107.592 2311.67,-97.6109"/>
<polygon fill="midnightblue" stroke="midnightblue" points="2423.03,-134.932 2433.61,-134.476 2425.05,-128.232 2423.03,-134.932"/>
</g>
<!-- Node43 -->
<g id="node43" class="node"><title>Node43</title>
<g id="a_node43"><a xlink:href="../../de/d78/EventPairTagger_8hh.html" target="_top" xlink:title="TopPartner/include\l/EventPairTagger.hh">
<polygon fill="white" stroke="red" points="2355,-67.5 2355,-97.5 2461,-97.5 2461,-67.5 2355,-67.5"/>
<text text-anchor="start" x="2363" y="-85.5" font-family="Helvetica,sans-Serif" font-size="10.00">TopPartner/include</text>
<text text-anchor="middle" x="2408" y="-74.5" font-family="Helvetica,sans-Serif" font-size="10.00">/EventPairTagger.hh</text>
</a>
</g>
</g>
<!-- Node41&#45;&gt;Node43 -->
<g id="edge45" class="edge"><title>Node41&#45;&gt;Node43</title>
<path fill="none" stroke="midnightblue" d="M2456.85,-127.598C2445.98,-117.783 2433.3,-106.344 2423.59,-97.5765"/>
<polygon fill="midnightblue" stroke="midnightblue" points="2454.61,-130.293 2464.38,-134.396 2459.3,-125.097 2454.61,-130.293"/>
</g>
<!-- Node44 -->
<g id="node44" class="node"><title>Node44</title>
<g id="a_node44"><a xlink:href="../../d7/dc7/TopPartnerPairTagger_8cpp.html" target="_top" xlink:title="TopPartner/source/TopPartner\lPairTagger.cpp">
<polygon fill="white" stroke="black" points="2479,-67.5 2479,-97.5 2627,-97.5 2627,-67.5 2479,-67.5"/>
<text text-anchor="start" x="2487" y="-85.5" font-family="Helvetica,sans-Serif" font-size="10.00">TopPartner/source/TopPartner</text>
<text text-anchor="middle" x="2553" y="-74.5" font-family="Helvetica,sans-Serif" font-size="10.00">PairTagger.cpp</text>
</a>
</g>
</g>
<!-- Node41&#45;&gt;Node44 -->
<g id="edge46" class="edge"><title>Node41&#45;&gt;Node44</title>
<path fill="none" stroke="midnightblue" d="M2503.47,-127.598C2514.5,-117.783 2527.34,-106.344 2537.19,-97.5765"/>
<polygon fill="midnightblue" stroke="midnightblue" points="2500.98,-125.132 2495.84,-134.396 2505.64,-130.36 2500.98,-125.132"/>
</g>
<!-- Node46 -->
<g id="node46" class="node"><title>Node46</title>
<g id="a_node46"><a xlink:href="../../da/dfa/SignatureSingleTagger_8hh.html" target="_top" xlink:title="TopPartner/include\l/SignatureSingleTagger.hh">
<polygon fill="white" stroke="red" points="2645.5,-67.5 2645.5,-97.5 2776.5,-97.5 2776.5,-67.5 2645.5,-67.5"/>
<text text-anchor="start" x="2653.5" y="-85.5" font-family="Helvetica,sans-Serif" font-size="10.00">TopPartner/include</text>
<text text-anchor="middle" x="2711" y="-74.5" font-family="Helvetica,sans-Serif" font-size="10.00">/SignatureSingleTagger.hh</text>
</a>
</g>
</g>
<!-- Node45&#45;&gt;Node46 -->
<g id="edge48" class="edge"><title>Node45&#45;&gt;Node46</title>
<path fill="none" stroke="midnightblue" d="M2711,-124.108C2711,-115.154 2711,-105.323 2711,-97.5765"/>
<polygon fill="midnightblue" stroke="midnightblue" points="2707.5,-124.396 2711,-134.396 2714.5,-124.396 2707.5,-124.396"/>
</g>
<!-- Node47 -->
<g id="node47" class="node"><title>Node47</title>
<g id="a_node47"><a xlink:href="../../d9/d96/TopPartnerTopPairTagger_8cpp.html" target="_top" xlink:title="TopPartner/source/TopPartner\lTopPairTagger.cpp">
<polygon fill="white" stroke="black" points="2795,-67.5 2795,-97.5 2943,-97.5 2943,-67.5 2795,-67.5"/>
<text text-anchor="start" x="2803" y="-85.5" font-family="Helvetica,sans-Serif" font-size="10.00">TopPartner/source/TopPartner</text>
<text text-anchor="middle" x="2869" y="-74.5" font-family="Helvetica,sans-Serif" font-size="10.00">TopPairTagger.cpp</text>
</a>
</g>
</g>
<!-- Node45&#45;&gt;Node47 -->
<g id="edge49" class="edge"><title>Node45&#45;&gt;Node47</title>
<path fill="none" stroke="midnightblue" d="M2754.65,-130.544C2779.93,-120.143 2811.3,-107.238 2834.78,-97.5765"/>
<polygon fill="midnightblue" stroke="midnightblue" points="2753.2,-127.355 2745.28,-134.396 2755.86,-133.828 2753.2,-127.355"/>
</g>
<!-- Node49 -->
<g id="node49" class="node"><title>Node49</title>
<g id="a_node49"><a xlink:href="../../d9/df1/TopPartnerHiggsPairTagger_8cpp.html" target="_top" xlink:title="TopPartner/source/TopPartner\lHiggsPairTagger.cpp">
<polygon fill="white" stroke="black" points="2961,-67.5 2961,-97.5 3109,-97.5 3109,-67.5 2961,-67.5"/>
<text text-anchor="start" x="2969" y="-85.5" font-family="Helvetica,sans-Serif" font-size="10.00">TopPartner/source/TopPartner</text>
<text text-anchor="middle" x="3035" y="-74.5" font-family="Helvetica,sans-Serif" font-size="10.00">HiggsPairTagger.cpp</text>
</a>
</g>
</g>
<!-- Node48&#45;&gt;Node49 -->
<g id="edge51" class="edge"><title>Node48&#45;&gt;Node49</title>
<path fill="none" stroke="midnightblue" d="M2922.09,-130.544C2947.06,-120.143 2978.03,-107.238 3001.22,-97.5765"/>
<polygon fill="midnightblue" stroke="midnightblue" points="2920.73,-127.319 2912.85,-134.396 2923.43,-133.781 2920.73,-127.319"/>
</g>
</g>
</svg>
