<?xml version="1.0" encoding="UTF-8" standalone="no"?>
<!DOCTYPE svg PUBLIC "-//W3C//DTD SVG 1.1//EN"
 "http://www.w3.org/Graphics/SVG/1.1/DTD/svg11.dtd">
<!-- Generated by graphviz version 2.38.0 (20140413.2041)
 -->
<!-- Title: boca::Doublet Pages: 1 -->
<svg width="416pt" height="465pt"
 viewBox="0.00 0.00 415.50 465.00" xmlns="http://www.w3.org/2000/svg" xmlns:xlink="http://www.w3.org/1999/xlink">
<g id="graph0" class="graph" transform="scale(1 1) rotate(0) translate(4 461)">
<title>boca::Doublet</title>
<polygon fill="white" stroke="none" points="-4,4 -4,-461 411.5,-461 411.5,4 -4,4"/>
<!-- Node1 -->
<g id="node1" class="node"><title>Node1</title>
<polygon fill="#bfbfbf" stroke="black" points="187.5,-0.5 187.5,-19.5 264.5,-19.5 264.5,-0.5 187.5,-0.5"/>
<text text-anchor="middle" x="226" y="-7.5" font-family="Helvetica,sans-Serif" font-size="10.00">boca::Doublet</text>
</g>
<!-- Node2 -->
<g id="node2" class="node"><title>Node2</title>
<g id="a_node2"><a xlink:href="../../d6/d3b/classboca_1_1TwoBody.html" target="_top" xlink:title="boca::TwoBody\&lt; boca\l::Singlet, boca::Singlet \&gt;">
<polygon fill="white" stroke="black" points="163.5,-57.5 163.5,-87.5 288.5,-87.5 288.5,-57.5 163.5,-57.5"/>
<text text-anchor="start" x="171.5" y="-75.5" font-family="Helvetica,sans-Serif" font-size="10.00">boca::TwoBody&lt; boca</text>
<text text-anchor="middle" x="226" y="-64.5" font-family="Helvetica,sans-Serif" font-size="10.00">::Singlet, boca::Singlet &gt;</text>
</a>
</g>
</g>
<!-- Node2&#45;&gt;Node1 -->
<g id="edge1" class="edge"><title>Node2&#45;&gt;Node1</title>
<path fill="none" stroke="midnightblue" d="M226,-47.3524C226,-37.5132 226,-26.7753 226,-19.5399"/>
<polygon fill="midnightblue" stroke="midnightblue" points="222.5,-47.468 226,-57.468 229.5,-47.4681 222.5,-47.468"/>
</g>
<!-- Node3 -->
<g id="node3" class="node"><title>Node3</title>
<g id="a_node3"><a xlink:href="../../d1/d5c/classboca_1_1Multiplet.html" target="_top" xlink:title="boca::Multiplet">
<polygon fill="white" stroke="black" points="164,-235.5 164,-254.5 244,-254.5 244,-235.5 164,-235.5"/>
<text text-anchor="middle" x="204" y="-242.5" font-family="Helvetica,sans-Serif" font-size="10.00">boca::Multiplet</text>
</a>
</g>
</g>
<!-- Node3&#45;&gt;Node2 -->
<g id="edge2" class="edge"><title>Node3&#45;&gt;Node2</title>
<path fill="none" stroke="midnightblue" d="M206.425,-225.205C210.869,-190.766 220.223,-118.271 224.176,-87.6398"/>
<polygon fill="midnightblue" stroke="midnightblue" points="202.93,-224.945 205.121,-235.31 209.872,-225.841 202.93,-224.945"/>
</g>
<!-- Node10 -->
<g id="node10" class="node"><title>Node10</title>
<g id="a_node10"><a xlink:href="../../d6/d3b/classboca_1_1TwoBody.html" target="_top" xlink:title="boca::TwoBody\&lt; Multiplet\l_1, Multiplet_2 \&gt;">
<polygon fill="white" stroke="black" points="48.5,-146.5 48.5,-176.5 179.5,-176.5 179.5,-146.5 48.5,-146.5"/>
<text text-anchor="start" x="56.5" y="-164.5" font-family="Helvetica,sans-Serif" font-size="10.00">boca::TwoBody&lt; Multiplet</text>
<text text-anchor="middle" x="114" y="-153.5" font-family="Helvetica,sans-Serif" font-size="10.00">_1, Multiplet_2 &gt;</text>
</a>
</g>
</g>
<!-- Node3&#45;&gt;Node10 -->
<g id="edge13" class="edge"><title>Node3&#45;&gt;Node10</title>
<path fill="none" stroke="midnightblue" d="M196.069,-226.325C190.881,-216.228 183.336,-203.855 174,-195 166.264,-187.663 156.551,-181.468 147.208,-176.519"/>
<polygon fill="midnightblue" stroke="midnightblue" points="192.966,-227.949 200.451,-235.449 199.277,-224.919 192.966,-227.949"/>
</g>
<!-- Node4 -->
<g id="node4" class="node"><title>Node4</title>
<g id="a_node4"><a xlink:href="../../de/d8b/classboca_1_1MultipletBase.html" target="_top" xlink:title="boca::MultipletBase">
<polygon fill="white" stroke="black" points="116.5,-369.5 116.5,-388.5 219.5,-388.5 219.5,-369.5 116.5,-369.5"/>
<text text-anchor="middle" x="168" y="-376.5" font-family="Helvetica,sans-Serif" font-size="10.00">boca::MultipletBase</text>
</a>
</g>
</g>
<!-- Node4&#45;&gt;Node3 -->
<g id="edge3" class="edge"><title>Node4&#45;&gt;Node3</title>
<path fill="none" stroke="midnightblue" d="M173.002,-359.659C180.892,-330.731 195.919,-275.631 201.676,-254.521"/>
<polygon fill="midnightblue" stroke="midnightblue" points="169.617,-358.771 170.362,-369.339 176.37,-360.612 169.617,-358.771"/>
</g>
<!-- Node6 -->
<g id="node6" class="node"><title>Node6</title>
<g id="a_node6"><a xlink:href="../../db/def/classboca_1_1Singlet.html" target="_top" xlink:title="Thin wrapper to make fastjet::PseudoJet behave like a Multiplet. Additionally this class astracts awa...">
<polygon fill="white" stroke="black" points="235,-302.5 235,-321.5 309,-321.5 309,-302.5 235,-302.5"/>
<text text-anchor="middle" x="272" y="-309.5" font-family="Helvetica,sans-Serif" font-size="10.00">boca::Singlet</text>
</a>
</g>
</g>
<!-- Node4&#45;&gt;Node6 -->
<g id="edge6" class="edge"><title>Node4&#45;&gt;Node6</title>
<path fill="none" stroke="midnightblue" d="M190.77,-363.769C211.356,-350.903 240.994,-332.379 258.196,-321.627"/>
<polygon fill="midnightblue" stroke="midnightblue" points="188.651,-360.966 182.026,-369.234 192.361,-366.902 188.651,-360.966"/>
</g>
<!-- Node5 -->
<g id="node5" class="node"><title>Node5</title>
<g id="a_node5"><a xlink:href="../../d4/de7/classboca_1_1Identification.html" target="_top" xlink:title="boca::Identification">
<polygon fill="white" stroke="black" points="118.5,-432 118.5,-451 217.5,-451 217.5,-432 118.5,-432"/>
<text text-anchor="middle" x="168" y="-439" font-family="Helvetica,sans-Serif" font-size="10.00">boca::Identification</text>
</a>
</g>
</g>
<!-- Node5&#45;&gt;Node4 -->
<g id="edge4" class="edge"><title>Node5&#45;&gt;Node4</title>
<path fill="none" stroke="midnightblue" d="M168,-421.503C168,-410.5 168,-397.182 168,-388.652"/>
<polygon fill="midnightblue" stroke="midnightblue" points="164.5,-421.832 168,-431.832 171.5,-421.832 164.5,-421.832"/>
</g>
<!-- Node7 -->
<g id="node7" class="node"><title>Node7</title>
<g id="a_node7"><a xlink:href="../../df/d8a/classboca_1_1JetInfo.html" target="_top" xlink:title="Jet infos subclassed from Fastjet. ">
<polygon fill="white" stroke="black" points="238,-369.5 238,-388.5 312,-388.5 312,-369.5 238,-369.5"/>
<text text-anchor="middle" x="275" y="-376.5" font-family="Helvetica,sans-Serif" font-size="10.00">boca::JetInfo</text>
</a>
</g>
</g>
<!-- Node5&#45;&gt;Node7 -->
<g id="edge8" class="edge"><title>Node5&#45;&gt;Node7</title>
<path fill="none" stroke="midnightblue" d="M192.176,-426.831C212.883,-415.122 242.071,-398.619 259.698,-388.652"/>
<polygon fill="midnightblue" stroke="midnightblue" points="190.313,-423.863 183.33,-431.832 193.758,-429.957 190.313,-423.863"/>
</g>
<!-- Node6&#45;&gt;Node2 -->
<g id="edge11" class="edge"><title>Node6&#45;&gt;Node2</title>
<path fill="none" stroke="#9a32cd" stroke-dasharray="5,2" d="M269.211,-292.286C263.687,-256.096 250.537,-174.086 235,-106 233.619,-99.9495 231.839,-93.3376 230.227,-87.6664"/>
<polygon fill="#9a32cd" stroke="#9a32cd" points="265.776,-292.984 270.729,-302.35 272.698,-291.939 265.776,-292.984"/>
<text text-anchor="middle" x="285" y="-209" font-family="Helvetica,sans-Serif" font-size="10.00"> multiplet_2_</text>
<text text-anchor="middle" x="285" y="-198" font-family="Helvetica,sans-Serif" font-size="10.00">multiplet_1_</text>
</g>
<!-- Node6&#45;&gt;Node3 -->
<g id="edge5" class="edge"><title>Node6&#45;&gt;Node3</title>
<path fill="none" stroke="#9a32cd" stroke-dasharray="5,2" d="M239.25,-297.812C232.627,-294.067 226.13,-289.482 221,-284 213.197,-275.663 208.55,-263.142 206.136,-254.777"/>
<polygon fill="#9a32cd" stroke="#9a32cd" points="237.747,-300.975 248.245,-302.403 240.929,-294.74 237.747,-300.975"/>
<text text-anchor="middle" x="239.5" y="-276" font-family="Helvetica,sans-Serif" font-size="10.00"> singlet_</text>
</g>
<!-- Node7&#45;&gt;Node6 -->
<g id="edge7" class="edge"><title>Node7&#45;&gt;Node6</title>
<path fill="none" stroke="#9a32cd" stroke-dasharray="5,2" d="M274.125,-359.037C273.554,-346.67 272.836,-331.12 272.398,-321.627"/>
<polygon fill="#9a32cd" stroke="#9a32cd" points="270.638,-359.406 274.595,-369.234 277.631,-359.083 270.638,-359.406"/>
<text text-anchor="middle" x="294" y="-343" font-family="Helvetica,sans-Serif" font-size="10.00"> jet_info_</text>
</g>
<!-- Node8 -->
<g id="node8" class="node"><title>Node8</title>
<polygon fill="white" stroke="#bfbfbf" points="236,-426.5 236,-456.5 332,-456.5 332,-426.5 236,-426.5"/>
<text text-anchor="start" x="244" y="-444.5" font-family="Helvetica,sans-Serif" font-size="10.00">fastjet::PseudoJet</text>
<text text-anchor="middle" x="284" y="-433.5" font-family="Helvetica,sans-Serif" font-size="10.00">::UserInfoBase</text>
</g>
<!-- Node8&#45;&gt;Node7 -->
<g id="edge9" class="edge"><title>Node8&#45;&gt;Node7</title>
<path fill="none" stroke="midnightblue" d="M280.408,-416.352C278.944,-406.513 277.347,-395.775 276.27,-388.54"/>
<polygon fill="midnightblue" stroke="midnightblue" points="276.979,-417.092 281.913,-426.468 283.903,-416.062 276.979,-417.092"/>
</g>
<!-- Node9 -->
<g id="node9" class="node"><title>Node9</title>
<g id="a_node9"><a xlink:href="../../d6/dfb/classboca_1_1Vector2.html" target="_top" xlink:title="Copy of root::TVector2 in order to get rid of TObject. ">
<polygon fill="white" stroke="black" points="330.5,-369.5 330.5,-388.5 407.5,-388.5 407.5,-369.5 330.5,-369.5"/>
<text text-anchor="middle" x="369" y="-376.5" font-family="Helvetica,sans-Serif" font-size="10.00">boca::Vector2</text>
</a>
</g>
</g>
<!-- Node9&#45;&gt;Node6 -->
<g id="edge10" class="edge"><title>Node9&#45;&gt;Node6</title>
<path fill="none" stroke="#9a32cd" stroke-dasharray="5,2" d="M350.328,-363.319C340.827,-356.048 328.991,-347.289 318,-340 308.122,-333.449 296.622,-326.699 287.591,-321.587"/>
<polygon fill="#9a32cd" stroke="#9a32cd" points="348.255,-366.14 358.305,-369.493 352.539,-360.604 348.255,-366.14"/>
<text text-anchor="middle" x="345" y="-343" font-family="Helvetica,sans-Serif" font-size="10.00"> pull_</text>
</g>
<!-- Node10&#45;&gt;Node2 -->
<g id="edge12" class="edge"><title>Node10&#45;&gt;Node2</title>
<path fill="none" stroke="orange" stroke-dasharray="5,2" d="M108.508,-136.386C107.558,-126.075 108.521,-114.485 115,-106 126.577,-90.8389 144.848,-82.4546 163.25,-77.9053"/>
<polygon fill="orange" stroke="orange" points="105.079,-137.122 110.039,-146.485 112,-136.073 105.079,-137.122"/>
<text text-anchor="start" x="115" y="-120" font-family="Helvetica,sans-Serif" font-size="10.00"> &lt; boca::Singlet, boca</text>
<text text-anchor="middle" x="163.5" y="-109" font-family="Helvetica,sans-Serif" font-size="10.00">::Singlet &gt;</text>
</g>
<!-- Node11 -->
<g id="node11" class="node"><title>Node11</title>
<polygon fill="white" stroke="#bfbfbf" points="0,-235.5 0,-254.5 64,-254.5 64,-235.5 0,-235.5"/>
<text text-anchor="middle" x="32" y="-242.5" font-family="Helvetica,sans-Serif" font-size="10.00">Multiplet_1</text>
</g>
<!-- Node11&#45;&gt;Node10 -->
<g id="edge14" class="edge"><title>Node11&#45;&gt;Node10</title>
<path fill="none" stroke="#9a32cd" stroke-dasharray="5,2" d="M37.0481,-225.662C40.5252,-215.676 45.9868,-203.633 54,-195 60.9311,-187.533 69.9766,-181.415 78.9337,-176.583"/>
<polygon fill="#9a32cd" stroke="#9a32cd" points="33.6375,-224.845 34.0271,-235.432 40.3251,-226.912 33.6375,-224.845"/>
<text text-anchor="middle" x="82" y="-203.5" font-family="Helvetica,sans-Serif" font-size="10.00"> multiplet_1_</text>
</g>
<!-- Node12 -->
<g id="node12" class="node"><title>Node12</title>
<polygon fill="white" stroke="#bfbfbf" points="82,-235.5 82,-254.5 146,-254.5 146,-235.5 82,-235.5"/>
<text text-anchor="middle" x="114" y="-242.5" font-family="Helvetica,sans-Serif" font-size="10.00">Multiplet_2</text>
</g>
<!-- Node12&#45;&gt;Node10 -->
<g id="edge15" class="edge"><title>Node12&#45;&gt;Node10</title>
<path fill="none" stroke="#9a32cd" stroke-dasharray="5,2" d="M114,-225.229C114,-210.408 114,-190.051 114,-176.597"/>
<polygon fill="#9a32cd" stroke="#9a32cd" points="110.5,-225.278 114,-235.278 117.5,-225.278 110.5,-225.278"/>
<text text-anchor="middle" x="142" y="-203.5" font-family="Helvetica,sans-Serif" font-size="10.00"> multiplet_2_</text>
</g>
</g>
</svg>
