<?xml version="1.0" encoding="UTF-8" standalone="no"?>
<!DOCTYPE svg PUBLIC "-//W3C//DTD SVG 1.1//EN"
 "http://www.w3.org/Graphics/SVG/1.1/DTD/svg11.dtd">
<!-- Generated by graphviz version 2.38.0 (20140413.2041)
 -->
<!-- Title: simple::Observables Pages: 1 -->
<svg width="1440pt" height="212pt"
 viewBox="0.00 0.00 1440.00 212.00" xmlns="http://www.w3.org/2000/svg" xmlns:xlink="http://www.w3.org/1999/xlink">
<g id="graph0" class="graph" transform="scale(1 1) rotate(0) translate(4 208)">
<title>simple::Observables</title>
<polygon fill="white" stroke="none" points="-4,4 -4,-208 1436,-208 1436,4 -4,4"/>
<!-- Node1 -->
<g id="node1" class="node"><title>Node1</title>
<polygon fill="#bfbfbf" stroke="black" points="1326,-145.5 1326,-164.5 1432,-164.5 1432,-145.5 1326,-145.5"/>
<text text-anchor="middle" x="1379" y="-152.5" font-family="Helvetica,sans-Serif" font-size="10.00">simple::Observables</text>
</g>
<!-- Node2 -->
<g id="node2" class="node"><title>Node2</title>
<g id="a_node2"><a xlink:href="../../d4/de7/classboca_1_1Identification.html" target="_top" xlink:title="boca::Identification">
<polygon fill="white" stroke="black" points="1113.5,-184.5 1113.5,-203.5 1212.5,-203.5 1212.5,-184.5 1113.5,-184.5"/>
<text text-anchor="middle" x="1163" y="-191.5" font-family="Helvetica,sans-Serif" font-size="10.00">boca::Identification</text>
</a>
</g>
</g>
<!-- Node2&#45;&gt;Node1 -->
<g id="edge1" class="edge"><title>Node2&#45;&gt;Node1</title>
<path fill="none" stroke="midnightblue" d="M1222.83,-184.135C1248.94,-179.666 1280.04,-174.223 1308,-169 1315.55,-167.589 1323.55,-166.041 1331.34,-164.504"/>
<polygon fill="midnightblue" stroke="midnightblue" points="1221.98,-180.729 1212.71,-185.86 1223.16,-187.63 1221.98,-180.729"/>
</g>
<!-- Node3 -->
<g id="node3" class="node"><title>Node3</title>
<g id="a_node3"><a xlink:href="../../de/d99/classboca_1_1Mutable.html" target="_top" xlink:title="boca::Mutable\&lt; boca\l::Jet \&gt;">
<polygon fill="white" stroke="black" points="921,-140 921,-170 1029,-170 1029,-140 921,-140"/>
<text text-anchor="start" x="929" y="-158" font-family="Helvetica,sans-Serif" font-size="10.00">boca::Mutable&lt; boca</text>
<text text-anchor="middle" x="975" y="-147" font-family="Helvetica,sans-Serif" font-size="10.00">::Jet &gt;</text>
</a>
</g>
</g>
<!-- Node3&#45;&gt;Node1 -->
<g id="edge2" class="edge"><title>Node3&#45;&gt;Node1</title>
<path fill="none" stroke="#9a32cd" stroke-dasharray="5,2" d="M1039.71,-155C1118.93,-155 1252.64,-155 1325.99,-155"/>
<polygon fill="#9a32cd" stroke="#9a32cd" points="1039.38,-151.5 1029.38,-155 1039.38,-158.5 1039.38,-151.5"/>
<text text-anchor="middle" x="1163" y="-158" font-family="Helvetica,sans-Serif" font-size="10.00"> jet_</text>
</g>
<!-- Node4 -->
<g id="node4" class="node"><title>Node4</title>
<g id="a_node4"><a xlink:href="../../d6/d09/classboca_1_1Jet.html" target="_top" xlink:title="boca::Jet">
<polygon fill="white" stroke="black" points="708,-184.5 708,-203.5 765,-203.5 765,-184.5 708,-184.5"/>
<text text-anchor="middle" x="736.5" y="-191.5" font-family="Helvetica,sans-Serif" font-size="10.00">boca::Jet</text>
</a>
</g>
</g>
<!-- Node4&#45;&gt;Node3 -->
<g id="edge3" class="edge"><title>Node4&#45;&gt;Node3</title>
<path fill="none" stroke="#9a32cd" stroke-dasharray="5,2" d="M775.376,-188.77C808.971,-184.015 859.343,-176.598 903,-169 908.818,-167.988 914.892,-166.875 920.933,-165.733"/>
<polygon fill="#9a32cd" stroke="#9a32cd" points="774.502,-185.359 765.088,-190.218 775.478,-192.29 774.502,-185.359"/>
<text text-anchor="middle" x="863.5" y="-185" font-family="Helvetica,sans-Serif" font-size="10.00"> member_</text>
</g>
<!-- Node10 -->
<g id="node10" class="node"><title>Node10</title>
<g id="a_node10"><a xlink:href="../../db/def/classboca_1_1Singlet.html" target="_top" xlink:title="Thin wrapper to make Jet behave like a Multiplet. ">
<polygon fill="white" stroke="black" points="938,-56.5 938,-75.5 1012,-75.5 1012,-56.5 938,-56.5"/>
<text text-anchor="middle" x="975" y="-63.5" font-family="Helvetica,sans-Serif" font-size="10.00">boca::Singlet</text>
</a>
</g>
</g>
<!-- Node4&#45;&gt;Node10 -->
<g id="edge10" class="edge"><title>Node4&#45;&gt;Node10</title>
<path fill="none" stroke="midnightblue" d="M774.787,-182.233C785.042,-178.648 796.071,-174.464 806,-170 851.003,-149.769 861.215,-142.241 903,-116 923.938,-102.85 947.188,-86.0287 961.194,-75.6364"/>
<polygon fill="midnightblue" stroke="midnightblue" points="773.593,-178.942 765.253,-185.476 775.847,-185.569 773.593,-178.942"/>
</g>
<!-- Node5 -->
<g id="node5" class="node"><title>Node5</title>
<g id="a_node5"><a xlink:href="../../d5/d82/classboca_1_1PseudoJet.html" target="_top" xlink:title="boca::PseudoJet">
<polygon fill="white" stroke="black" points="354.5,-184.5 354.5,-203.5 444.5,-203.5 444.5,-184.5 354.5,-184.5"/>
<text text-anchor="middle" x="399.5" y="-191.5" font-family="Helvetica,sans-Serif" font-size="10.00">boca::PseudoJet</text>
</a>
</g>
</g>
<!-- Node5&#45;&gt;Node4 -->
<g id="edge4" class="edge"><title>Node5&#45;&gt;Node4</title>
<path fill="none" stroke="midnightblue" d="M454.922,-194C527.308,-194 652.551,-194 707.87,-194"/>
<polygon fill="midnightblue" stroke="midnightblue" points="454.64,-190.5 444.64,-194 454.64,-197.5 454.64,-190.5"/>
</g>
<!-- Node6 -->
<g id="node6" class="node"><title>Node6</title>
<polygon fill="white" stroke="#bfbfbf" points="103,-184.5 103,-203.5 199,-203.5 199,-184.5 103,-184.5"/>
<text text-anchor="middle" x="151" y="-191.5" font-family="Helvetica,sans-Serif" font-size="10.00">fastjet::PseudoJet</text>
</g>
<!-- Node6&#45;&gt;Node5 -->
<g id="edge5" class="edge"><title>Node6&#45;&gt;Node5</title>
<path fill="none" stroke="midnightblue" d="M209.261,-194C253.484,-194 313.782,-194 354.324,-194"/>
<polygon fill="midnightblue" stroke="midnightblue" points="209.236,-190.5 199.236,-194 209.236,-197.5 209.236,-190.5"/>
</g>
<!-- Node7 -->
<g id="node7" class="node"><title>Node7</title>
<g id="a_node7"><a xlink:href="../../de/d99/classboca_1_1Mutable.html" target="_top" xlink:title="boca::Mutable\&lt; Member_ \&gt;">
<polygon fill="white" stroke="black" points="331,-81.5 331,-100.5 468,-100.5 468,-81.5 331,-81.5"/>
<text text-anchor="middle" x="399.5" y="-88.5" font-family="Helvetica,sans-Serif" font-size="10.00">boca::Mutable&lt; Member_ &gt;</text>
</a>
</g>
</g>
<!-- Node7&#45;&gt;Node3 -->
<g id="edge6" class="edge"><title>Node7&#45;&gt;Node3</title>
<path fill="none" stroke="orange" stroke-dasharray="5,2" d="M437.601,-103.74C454.335,-108.988 474.464,-114.62 493,-118 646.666,-146.024 831.719,-152.853 920.872,-154.496"/>
<polygon fill="orange" stroke="orange" points="438.257,-100.274 427.666,-100.545 436.114,-106.938 438.257,-100.274"/>
<text text-anchor="middle" x="736.5" y="-154" font-family="Helvetica,sans-Serif" font-size="10.00"> &lt; boca::Jet &gt;</text>
</g>
<!-- Node9 -->
<g id="node9" class="node"><title>Node9</title>
<g id="a_node9"><a xlink:href="../../de/d99/classboca_1_1Mutable.html" target="_top" xlink:title="boca::Mutable\&lt; boca\l::Singlet \&gt;">
<polygon fill="white" stroke="black" points="1109,-88 1109,-118 1217,-118 1217,-88 1109,-88"/>
<text text-anchor="start" x="1117" y="-106" font-family="Helvetica,sans-Serif" font-size="10.00">boca::Mutable&lt; boca</text>
<text text-anchor="middle" x="1163" y="-95" font-family="Helvetica,sans-Serif" font-size="10.00">::Singlet &gt;</text>
</a>
</g>
</g>
<!-- Node7&#45;&gt;Node9 -->
<g id="edge18" class="edge"><title>Node7&#45;&gt;Node9</title>
<path fill="none" stroke="orange" stroke-dasharray="5,2" d="M478.454,-92.2284C633.375,-94.6697 976.423,-100.076 1108.62,-102.159"/>
<polygon fill="orange" stroke="orange" points="478.132,-88.723 468.078,-92.0649 478.022,-95.7221 478.132,-88.723"/>
<text text-anchor="middle" x="863.5" y="-102" font-family="Helvetica,sans-Serif" font-size="10.00"> &lt; boca::Singlet &gt;</text>
</g>
<!-- Node11 -->
<g id="node11" class="node"><title>Node11</title>
<g id="a_node11"><a xlink:href="../../de/d99/classboca_1_1Mutable.html" target="_top" xlink:title="boca::Mutable\&lt; Angle \&gt;">
<polygon fill="white" stroke="black" points="676,-56.5 676,-75.5 797,-75.5 797,-56.5 676,-56.5"/>
<text text-anchor="middle" x="736.5" y="-63.5" font-family="Helvetica,sans-Serif" font-size="10.00">boca::Mutable&lt; Angle &gt;</text>
</a>
</g>
</g>
<!-- Node7&#45;&gt;Node11 -->
<g id="edge12" class="edge"><title>Node7&#45;&gt;Node11</title>
<path fill="none" stroke="orange" stroke-dasharray="5,2" d="M478.332,-80.4742C483.291,-79.9362 488.213,-79.4382 493,-79 555.139,-73.312 626.48,-69.8558 675.615,-67.9519"/>
<polygon fill="orange" stroke="orange" points="477.673,-77.0264 468.129,-81.6282 478.46,-83.982 477.673,-77.0264"/>
<text text-anchor="middle" x="571" y="-82" font-family="Helvetica,sans-Serif" font-size="10.00"> &lt; Angle &gt;</text>
</g>
<!-- Node12 -->
<g id="node12" class="node"><title>Node12</title>
<g id="a_node12"><a xlink:href="../../de/d99/classboca_1_1Mutable.html" target="_top" xlink:title="boca::Mutable\&lt; boca\l::Vector2\&lt; AngleSquare \&gt; \&gt;">
<polygon fill="white" stroke="black" points="667,-7 667,-37 806,-37 806,-7 667,-7"/>
<text text-anchor="start" x="675" y="-25" font-family="Helvetica,sans-Serif" font-size="10.00">boca::Mutable&lt; boca</text>
<text text-anchor="middle" x="736.5" y="-14" font-family="Helvetica,sans-Serif" font-size="10.00">::Vector2&lt; AngleSquare &gt; &gt;</text>
</a>
</g>
</g>
<!-- Node7&#45;&gt;Node12 -->
<g id="edge17" class="edge"><title>Node7&#45;&gt;Node12</title>
<path fill="none" stroke="orange" stroke-dasharray="5,2" d="M430.28,-77.3391C448.126,-69.6796 471.463,-60.5727 493,-55 550.69,-40.0723 617.954,-31.5963 666.985,-26.9832"/>
<polygon fill="orange" stroke="orange" points="428.732,-74.1958 420.977,-81.4139 431.541,-80.6077 428.732,-74.1958"/>
<text text-anchor="middle" x="571" y="-58" font-family="Helvetica,sans-Serif" font-size="10.00"> &lt; boca::Vector2&lt; AngleSquare &gt; &gt;</text>
</g>
<!-- Node8 -->
<g id="node8" class="node"><title>Node8</title>
<polygon fill="white" stroke="#bfbfbf" points="122.5,-81.5 122.5,-100.5 179.5,-100.5 179.5,-81.5 122.5,-81.5"/>
<text text-anchor="middle" x="151" y="-88.5" font-family="Helvetica,sans-Serif" font-size="10.00">Member_</text>
</g>
<!-- Node8&#45;&gt;Node7 -->
<g id="edge7" class="edge"><title>Node8&#45;&gt;Node7</title>
<path fill="none" stroke="#9a32cd" stroke-dasharray="5,2" d="M190.266,-91C227.74,-91 285.641,-91 330.884,-91"/>
<polygon fill="#9a32cd" stroke="#9a32cd" points="189.798,-87.5001 179.798,-91 189.797,-94.5001 189.798,-87.5001"/>
<text text-anchor="middle" x="267.5" y="-94" font-family="Helvetica,sans-Serif" font-size="10.00"> member_</text>
</g>
<!-- Node9&#45;&gt;Node1 -->
<g id="edge8" class="edge"><title>Node9&#45;&gt;Node1</title>
<path fill="none" stroke="#9a32cd" stroke-dasharray="5,2" d="M1226.99,-112.592C1252.36,-117.03 1281.77,-122.905 1308,-130 1323.7,-134.246 1340.9,-140.368 1354.32,-145.492"/>
<polygon fill="#9a32cd" stroke="#9a32cd" points="1227.56,-109.14 1217.11,-110.902 1226.38,-116.039 1227.56,-109.14"/>
<text text-anchor="middle" x="1271.5" y="-133" font-family="Helvetica,sans-Serif" font-size="10.00"> constituent_jet_</text>
</g>
<!-- Node10&#45;&gt;Node9 -->
<g id="edge9" class="edge"><title>Node10&#45;&gt;Node9</title>
<path fill="none" stroke="#9a32cd" stroke-dasharray="5,2" d="M1022.09,-68.9483C1043.26,-70.8786 1068.58,-74.0048 1091,-79 1101.29,-81.2925 1112.17,-84.5369 1122.25,-87.9015"/>
<polygon fill="#9a32cd" stroke="#9a32cd" points="1022.33,-65.4557 1012.07,-68.0938 1021.74,-72.4304 1022.33,-65.4557"/>
<text text-anchor="middle" x="1069" y="-82" font-family="Helvetica,sans-Serif" font-size="10.00"> member_</text>
</g>
<!-- Node11&#45;&gt;Node10 -->
<g id="edge11" class="edge"><title>Node11&#45;&gt;Node10</title>
<path fill="none" stroke="#9a32cd" stroke-dasharray="5,2" d="M807.279,-66C850.158,-66 903.32,-66 937.92,-66"/>
<polygon fill="#9a32cd" stroke="#9a32cd" points="807.179,-62.5001 797.179,-66 807.179,-69.5001 807.179,-62.5001"/>
<text text-anchor="middle" x="863.5" y="-69" font-family="Helvetica,sans-Serif" font-size="10.00"> radius_</text>
</g>
<!-- Node12&#45;&gt;Node10 -->
<g id="edge13" class="edge"><title>Node12&#45;&gt;Node10</title>
<path fill="none" stroke="#9a32cd" stroke-dasharray="5,2" d="M816.015,-35.1831C843.559,-39.9601 874.686,-45.5301 903,-51 914.38,-53.1985 926.751,-55.7541 937.93,-58.1262"/>
<polygon fill="#9a32cd" stroke="#9a32cd" points="816.491,-31.7135 806.041,-33.4607 815.299,-38.6114 816.491,-31.7135"/>
<text text-anchor="middle" x="863.5" y="-54" font-family="Helvetica,sans-Serif" font-size="10.00"> pull_</text>
</g>
<!-- Node13 -->
<g id="node13" class="node"><title>Node13</title>
<g id="a_node13"><a xlink:href="../../d6/dfb/classboca_1_1Vector2.html" target="_top" xlink:title="boca::Vector2\&lt; AngleSquare \&gt;">
<polygon fill="white" stroke="black" points="324,-0.5 324,-19.5 475,-19.5 475,-0.5 324,-0.5"/>
<text text-anchor="middle" x="399.5" y="-7.5" font-family="Helvetica,sans-Serif" font-size="10.00">boca::Vector2&lt; AngleSquare &gt;</text>
</a>
</g>
</g>
<!-- Node13&#45;&gt;Node12 -->
<g id="edge14" class="edge"><title>Node13&#45;&gt;Node12</title>
<path fill="none" stroke="#9a32cd" stroke-dasharray="5,2" d="M485.124,-7.77674C533.223,-7.15523 594.54,-7.44107 649,-11 654.74,-11.3751 660.682,-11.8813 666.64,-12.4712"/>
<polygon fill="#9a32cd" stroke="#9a32cd" points="485.017,-4.27783 475.068,-7.92228 485.118,-11.2771 485.017,-4.27783"/>
<text text-anchor="middle" x="571" y="-14" font-family="Helvetica,sans-Serif" font-size="10.00"> member_</text>
</g>
<!-- Node14 -->
<g id="node14" class="node"><title>Node14</title>
<g id="a_node14"><a xlink:href="../../d6/dfb/classboca_1_1Vector2.html" target="_top" xlink:title="Copy of root::TVector2 in order to get rid of TObject. ">
<polygon fill="white" stroke="black" points="91,-0.5 91,-19.5 211,-19.5 211,-0.5 91,-0.5"/>
<text text-anchor="middle" x="151" y="-7.5" font-family="Helvetica,sans-Serif" font-size="10.00">boca::Vector2&lt; Value &gt;</text>
</a>
</g>
</g>
<!-- Node14&#45;&gt;Node13 -->
<g id="edge15" class="edge"><title>Node14&#45;&gt;Node13</title>
<path fill="none" stroke="orange" stroke-dasharray="5,2" d="M221.173,-10C253.071,-10 290.996,-10 323.571,-10"/>
<polygon fill="orange" stroke="orange" points="221.043,-6.5001 211.043,-10 221.043,-13.5001 221.043,-6.5001"/>
<text text-anchor="middle" x="267.5" y="-13" font-family="Helvetica,sans-Serif" font-size="10.00"> &lt; AngleSquare &gt;</text>
</g>
<!-- Node15 -->
<g id="node15" class="node"><title>Node15</title>
<polygon fill="white" stroke="#bfbfbf" points="0,-0.5 0,-19.5 41,-19.5 41,-0.5 0,-0.5"/>
<text text-anchor="middle" x="20.5" y="-7.5" font-family="Helvetica,sans-Serif" font-size="10.00">Value</text>
</g>
<!-- Node15&#45;&gt;Node14 -->
<g id="edge16" class="edge"><title>Node15&#45;&gt;Node14</title>
<path fill="none" stroke="#9a32cd" stroke-dasharray="5,2" d="M51.1652,-10C62.9749,-10 77.0053,-10 90.7308,-10"/>
<polygon fill="#9a32cd" stroke="#9a32cd" points="51.0164,-6.5001 41.0164,-10 51.0163,-13.5001 51.0164,-6.5001"/>
<text text-anchor="middle" x="66" y="-24" font-family="Helvetica,sans-Serif" font-size="10.00"> y_</text>
<text text-anchor="middle" x="66" y="-13" font-family="Helvetica,sans-Serif" font-size="10.00">x_</text>
</g>
</g>
</svg>
