<?xml version="1.0" encoding="UTF-8" standalone="no"?>
<!DOCTYPE svg PUBLIC "-//W3C//DTD SVG 1.1//EN"
 "http://www.w3.org/Graphics/SVG/1.1/DTD/svg11.dtd">
<!-- Generated by graphviz version 2.38.0 (20140413.2041)
 -->
<!-- Title: StandardModel/source/HiggsTagger.cpp Pages: 1 -->
<svg width="1770pt" height="554pt"
 viewBox="0.00 0.00 1770.00 554.00" xmlns="http://www.w3.org/2000/svg" xmlns:xlink="http://www.w3.org/1999/xlink">
<g id="graph0" class="graph" transform="scale(1 1) rotate(0) translate(4 550)">
<title>StandardModel/source/HiggsTagger.cpp</title>
<polygon fill="white" stroke="none" points="-4,4 -4,-550 1766,-550 1766,4 -4,4"/>
<!-- Node1 -->
<g id="node1" class="node"><title>Node1</title>
<polygon fill="#bfbfbf" stroke="black" points="1100.5,-515.5 1100.5,-545.5 1214.5,-545.5 1214.5,-515.5 1100.5,-515.5"/>
<text text-anchor="start" x="1108.5" y="-533.5" font-family="Helvetica,sans-Serif" font-size="10.00">StandardModel/source</text>
<text text-anchor="middle" x="1157.5" y="-522.5" font-family="Helvetica,sans-Serif" font-size="10.00">/HiggsTagger.cpp</text>
</g>
<!-- Node2 -->
<g id="node2" class="node"><title>Node2</title>
<polygon fill="white" stroke="#bfbfbf" points="499,-459.5 499,-478.5 658,-478.5 658,-459.5 499,-459.5"/>
<text text-anchor="middle" x="578.5" y="-466.5" font-family="Helvetica,sans-Serif" font-size="10.00">fastjet/tools/MassDropTagger.hh</text>
</g>
<!-- Node1&#45;&gt;Node2 -->
<g id="edge1" class="edge"><title>Node1&#45;&gt;Node2</title>
<path fill="none" stroke="midnightblue" d="M1100.4,-523.632C999.491,-513.262 788.943,-491.626 668.389,-479.237"/>
<polygon fill="midnightblue" stroke="midnightblue" points="668.388,-475.719 658.082,-478.178 667.672,-482.682 668.388,-475.719"/>
</g>
<!-- Node3 -->
<g id="node3" class="node"><title>Node3</title>
<polygon fill="white" stroke="#bfbfbf" points="675.5,-459.5 675.5,-478.5 781.5,-478.5 781.5,-459.5 675.5,-459.5"/>
<text text-anchor="middle" x="728.5" y="-466.5" font-family="Helvetica,sans-Serif" font-size="10.00">fastjet/tools/Filter.hh</text>
</g>
<!-- Node1&#45;&gt;Node3 -->
<g id="edge2" class="edge"><title>Node1&#45;&gt;Node3</title>
<path fill="none" stroke="midnightblue" d="M1100.09,-521.537C1019.87,-510.411 874.766,-490.286 791.603,-478.752"/>
<polygon fill="midnightblue" stroke="midnightblue" points="791.915,-475.262 781.529,-477.355 790.953,-482.196 791.915,-475.262"/>
</g>
<!-- Node4 -->
<g id="node4" class="node"><title>Node4</title>
<g id="a_node4"><a xlink:href="../../df/d3a/Doublet_8hh.html" target="_top" xlink:title="Doublet.hh">
<polygon fill="white" stroke="black" points="1065.5,-403.5 1065.5,-422.5 1129.5,-422.5 1129.5,-403.5 1065.5,-403.5"/>
<text text-anchor="middle" x="1097.5" y="-410.5" font-family="Helvetica,sans-Serif" font-size="10.00">Doublet.hh</text>
</a>
</g>
</g>
<!-- Node1&#45;&gt;Node4 -->
<g id="edge3" class="edge"><title>Node1&#45;&gt;Node4</title>
<path fill="none" stroke="midnightblue" d="M1150.14,-515.337C1139.18,-494.243 1118.59,-454.6 1106.67,-431.648"/>
<polygon fill="midnightblue" stroke="midnightblue" points="1109.72,-429.93 1102,-422.669 1103.51,-433.157 1109.72,-429.93"/>
</g>
<!-- Node7 -->
<g id="node7" class="node"><title>Node7</title>
<g id="a_node7"><a xlink:href="../../d1/dce/JetInfo_8hh.html" target="_top" xlink:title="JetInfo.hh">
<polygon fill="white" stroke="black" points="841.5,-179.5 841.5,-198.5 901.5,-198.5 901.5,-179.5 841.5,-179.5"/>
<text text-anchor="middle" x="871.5" y="-186.5" font-family="Helvetica,sans-Serif" font-size="10.00">JetInfo.hh</text>
</a>
</g>
</g>
<!-- Node1&#45;&gt;Node7 -->
<g id="edge52" class="edge"><title>Node1&#45;&gt;Node7</title>
<path fill="none" stroke="midnightblue" d="M1100.42,-522.54C1001.7,-508.895 809.5,-474.554 809.5,-414 809.5,-414 809.5,-414 809.5,-300 809.5,-262.622 837.004,-226.237 855.375,-206.104"/>
<polygon fill="midnightblue" stroke="midnightblue" points="858.01,-208.412 862.352,-198.747 852.931,-203.594 858.01,-208.412"/>
</g>
<!-- Node31 -->
<g id="node31" class="node"><title>Node31</title>
<g id="a_node31"><a xlink:href="../../d5/df2/Event_8hh.html" target="_top" xlink:title="Event.hh">
<polygon fill="white" stroke="black" points="1304.5,-291.5 1304.5,-310.5 1360.5,-310.5 1360.5,-291.5 1304.5,-291.5"/>
<text text-anchor="middle" x="1332.5" y="-298.5" font-family="Helvetica,sans-Serif" font-size="10.00">Event.hh</text>
</a>
</g>
</g>
<!-- Node1&#45;&gt;Node31 -->
<g id="edge38" class="edge"><title>Node1&#45;&gt;Node31</title>
<path fill="none" stroke="midnightblue" d="M1182.13,-515.291C1196.51,-506.176 1214.36,-493.378 1227.5,-479 1273.84,-428.317 1309.78,-353.968 1324.82,-320.058"/>
<polygon fill="midnightblue" stroke="midnightblue" points="1328.18,-321.116 1328.95,-310.55 1321.76,-318.324 1328.18,-321.116"/>
</g>
<!-- Node38 -->
<g id="node38" class="node"><title>Node38</title>
<g id="a_node38"><a xlink:href="../../d6/dd8/Types_8hh.html" target="_top" xlink:title="Types.hh">
<polygon fill="white" stroke="black" points="1237,-179.5 1237,-198.5 1294,-198.5 1294,-179.5 1237,-179.5"/>
<text text-anchor="middle" x="1265.5" y="-186.5" font-family="Helvetica,sans-Serif" font-size="10.00">Types.hh</text>
</a>
</g>
</g>
<!-- Node1&#45;&gt;Node38 -->
<g id="edge51" class="edge"><title>Node1&#45;&gt;Node38</title>
<path fill="none" stroke="midnightblue" d="M1169.65,-515.265C1186.12,-494.465 1213.5,-453.89 1213.5,-414 1213.5,-414 1213.5,-414 1213.5,-300 1213.5,-264.119 1236.39,-227.424 1251.8,-206.793"/>
<polygon fill="midnightblue" stroke="midnightblue" points="1254.68,-208.789 1258.05,-198.744 1249.15,-204.497 1254.68,-208.789"/>
</g>
<!-- Node39 -->
<g id="node39" class="node"><title>Node39</title>
<g id="a_node39"><a xlink:href="../../df/de2/InfoRecombiner_8hh.html" target="_top" xlink:title="InfoRecombiner.hh">
<polygon fill="white" stroke="black" points="1533,-459.5 1533,-478.5 1632,-478.5 1632,-459.5 1533,-459.5"/>
<text text-anchor="middle" x="1582.5" y="-466.5" font-family="Helvetica,sans-Serif" font-size="10.00">InfoRecombiner.hh</text>
</a>
</g>
</g>
<!-- Node1&#45;&gt;Node39 -->
<g id="edge53" class="edge"><title>Node1&#45;&gt;Node39</title>
<path fill="none" stroke="midnightblue" d="M1214.82,-521.476C1295.21,-510.22 1440.76,-489.843 1522.55,-478.393"/>
<polygon fill="midnightblue" stroke="midnightblue" points="1523.27,-481.827 1532.69,-476.974 1522.3,-474.894 1523.27,-481.827"/>
</g>
<!-- Node41 -->
<g id="node41" class="node"><title>Node41</title>
<g id="a_node41"><a xlink:href="../../d1/d1b/HiggsTagger_8hh.html" target="_top" xlink:title="HiggsTagger.hh">
<polygon fill="white" stroke="black" points="973.5,-459.5 973.5,-478.5 1059.5,-478.5 1059.5,-459.5 973.5,-459.5"/>
<text text-anchor="middle" x="1016.5" y="-466.5" font-family="Helvetica,sans-Serif" font-size="10.00">HiggsTagger.hh</text>
</a>
</g>
</g>
<!-- Node1&#45;&gt;Node41 -->
<g id="edge55" class="edge"><title>Node1&#45;&gt;Node41</title>
<path fill="none" stroke="midnightblue" d="M1124.08,-515.399C1100.53,-505.461 1069.26,-492.265 1046.51,-482.662"/>
<polygon fill="midnightblue" stroke="midnightblue" points="1047.59,-479.321 1037.02,-478.658 1044.87,-485.77 1047.59,-479.321"/>
</g>
<!-- Node45 -->
<g id="node45" class="node"><title>Node45</title>
<g id="a_node45"><a xlink:href="../../d0/dd8/MomentumRange_8hh.html" target="_top" xlink:title="MomentumRange.hh">
<polygon fill="white" stroke="black" points="1078,-235.5 1078,-254.5 1185,-254.5 1185,-235.5 1078,-235.5"/>
<text text-anchor="middle" x="1131.5" y="-242.5" font-family="Helvetica,sans-Serif" font-size="10.00">MomentumRange.hh</text>
</a>
</g>
</g>
<!-- Node1&#45;&gt;Node45 -->
<g id="edge62" class="edge"><title>Node1&#45;&gt;Node45</title>
<path fill="none" stroke="midnightblue" d="M1157.5,-515.275C1157.5,-493.476 1157.5,-450.495 1157.5,-414 1157.5,-414 1157.5,-414 1157.5,-356 1157.5,-322.929 1146.23,-285.729 1138.53,-264.168"/>
<polygon fill="midnightblue" stroke="midnightblue" points="1141.77,-262.831 1135.01,-254.675 1135.21,-265.268 1141.77,-262.831"/>
</g>
<!-- Node46 -->
<g id="node46" class="node"><title>Node46</title>
<g id="a_node46"><a xlink:href="../../d7/dcf/Exception_8hh.html" target="_top" xlink:title="Exception.hh">
<polygon fill="white" stroke="black" points="1652.5,-459.5 1652.5,-478.5 1726.5,-478.5 1726.5,-459.5 1652.5,-459.5"/>
<text text-anchor="middle" x="1689.5" y="-466.5" font-family="Helvetica,sans-Serif" font-size="10.00">Exception.hh</text>
</a>
</g>
</g>
<!-- Node1&#45;&gt;Node46 -->
<g id="edge66" class="edge"><title>Node1&#45;&gt;Node46</title>
<path fill="none" stroke="midnightblue" d="M1214.69,-525.051C1305.43,-517.649 1487.88,-501.378 1641.5,-479 1641.72,-478.968 1641.94,-478.936 1642.16,-478.903"/>
<polygon fill="midnightblue" stroke="midnightblue" points="1643.02,-482.311 1652.34,-477.277 1641.91,-475.399 1643.02,-482.311"/>
</g>
<!-- Node48 -->
<g id="node48" class="node"><title>Node48</title>
<g id="a_node48"><a xlink:href="../../d8/de8/Debug_8hh.html" target="_top" xlink:title="Debug.hh">
<polygon fill="white" stroke="black" points="1473,-179.5 1473,-198.5 1532,-198.5 1532,-179.5 1473,-179.5"/>
<text text-anchor="middle" x="1502.5" y="-186.5" font-family="Helvetica,sans-Serif" font-size="10.00">Debug.hh</text>
</a>
</g>
</g>
<!-- Node1&#45;&gt;Node48 -->
<g id="edge68" class="edge"><title>Node1&#45;&gt;Node48</title>
<path fill="none" stroke="midnightblue" d="M1214.86,-522.338C1312.96,-508.471 1502.5,-473.926 1502.5,-414 1502.5,-414 1502.5,-414 1502.5,-300 1502.5,-267.948 1502.5,-230.643 1502.5,-208.749"/>
<polygon fill="midnightblue" stroke="midnightblue" points="1506,-208.558 1502.5,-198.558 1499,-208.558 1506,-208.558"/>
</g>
<!-- Node5 -->
<g id="node5" class="node"><title>Node5</title>
<g id="a_node5"><a xlink:href="../../d0/d32/TwoBody_8hh.html" target="_top" xlink:title="TwoBody.hh">
<polygon fill="white" stroke="black" points="1025,-347.5 1025,-366.5 1096,-366.5 1096,-347.5 1025,-347.5"/>
<text text-anchor="middle" x="1060.5" y="-354.5" font-family="Helvetica,sans-Serif" font-size="10.00">TwoBody.hh</text>
</a>
</g>
</g>
<!-- Node4&#45;&gt;Node5 -->
<g id="edge4" class="edge"><title>Node4&#45;&gt;Node5</title>
<path fill="none" stroke="midnightblue" d="M1091.39,-403.083C1086.22,-395.534 1078.65,-384.495 1072.31,-375.23"/>
<polygon fill="midnightblue" stroke="midnightblue" points="1075.04,-373.022 1066.5,-366.751 1069.26,-376.979 1075.04,-373.022"/>
</g>
<!-- Node6 -->
<g id="node6" class="node"><title>Node6</title>
<g id="a_node6"><a xlink:href="../../db/d60/Singlet_8hh.html" target="_top" xlink:title="Singlet.hh">
<polygon fill="white" stroke="black" points="898.5,-235.5 898.5,-254.5 958.5,-254.5 958.5,-235.5 898.5,-235.5"/>
<text text-anchor="middle" x="928.5" y="-242.5" font-family="Helvetica,sans-Serif" font-size="10.00">Singlet.hh</text>
</a>
</g>
</g>
<!-- Node4&#45;&gt;Node6 -->
<g id="edge37" class="edge"><title>Node4&#45;&gt;Node6</title>
<path fill="none" stroke="midnightblue" d="M1078.35,-403.409C1061.11,-395.244 1035.5,-382.008 1015.5,-367 987.345,-345.877 979.814,-339.745 959.5,-311 949.252,-296.498 940.833,-278.08 935.368,-264.555"/>
<polygon fill="midnightblue" stroke="midnightblue" points="938.514,-262.988 931.64,-254.926 931.987,-265.515 938.514,-262.988"/>
</g>
<!-- Node5&#45;&gt;Node6 -->
<g id="edge5" class="edge"><title>Node5&#45;&gt;Node6</title>
<path fill="none" stroke="midnightblue" d="M1041.94,-347.408C1025.6,-339.336 1001.64,-326.238 983.5,-311 966.602,-296.804 950.707,-277.059 940.393,-263.065"/>
<polygon fill="midnightblue" stroke="midnightblue" points="943.144,-260.895 934.466,-254.816 937.459,-264.979 943.144,-260.895"/>
</g>
<!-- Node28 -->
<g id="node28" class="node"><title>Node28</title>
<g id="a_node28"><a xlink:href="../../d0/d7f/Multiplet_8hh.html" target="_top" xlink:title="Multiplet.hh">
<polygon fill="white" stroke="black" points="993,-291.5 993,-310.5 1060,-310.5 1060,-291.5 993,-291.5"/>
<text text-anchor="middle" x="1026.5" y="-298.5" font-family="Helvetica,sans-Serif" font-size="10.00">Multiplet.hh</text>
</a>
</g>
</g>
<!-- Node5&#45;&gt;Node28 -->
<g id="edge30" class="edge"><title>Node5&#45;&gt;Node28</title>
<path fill="none" stroke="midnightblue" d="M1054.89,-347.083C1050.13,-339.534 1043.18,-328.495 1037.35,-319.23"/>
<polygon fill="midnightblue" stroke="midnightblue" points="1040.3,-317.349 1032.01,-310.751 1034.38,-321.078 1040.3,-317.349"/>
</g>
<!-- Node29 -->
<g id="node29" class="node"><title>Node29</title>
<g id="a_node29"><a xlink:href="../../d3/d7e/Vector_8hh.html" target="_top" xlink:title="Vector.hh">
<polygon fill="white" stroke="red" points="1102,-179.5 1102,-198.5 1161,-198.5 1161,-179.5 1102,-179.5"/>
<text text-anchor="middle" x="1131.5" y="-186.5" font-family="Helvetica,sans-Serif" font-size="10.00">Vector.hh</text>
</a>
</g>
</g>
<!-- Node5&#45;&gt;Node29 -->
<g id="edge33" class="edge"><title>Node5&#45;&gt;Node29</title>
<path fill="none" stroke="midnightblue" d="M1062.73,-347.449C1064.96,-338.453 1068.23,-323.844 1069.5,-311 1069.5,-311 1069.5,-235 1069.5,-235 1076.5,-221.27 1089.87,-210.75 1102.4,-203.346"/>
<polygon fill="midnightblue" stroke="midnightblue" points="1104.17,-206.366 1111.28,-198.505 1100.82,-200.22 1104.17,-206.366"/>
</g>
<!-- Node6&#45;&gt;Node7 -->
<g id="edge6" class="edge"><title>Node6&#45;&gt;Node7</title>
<path fill="none" stroke="midnightblue" d="M919.342,-235.324C910.999,-227.42 898.468,-215.548 888.323,-205.938"/>
<polygon fill="midnightblue" stroke="midnightblue" points="890.491,-203.171 880.825,-198.834 885.677,-208.252 890.491,-203.171"/>
</g>
<!-- Node27 -->
<g id="node27" class="node"><title>Node27</title>
<g id="a_node27"><a xlink:href="../../da/db5/MultipletBase_8hh.html" target="_top" xlink:title="MultipletBase.hh">
<polygon fill="white" stroke="red" points="952,-179.5 952,-198.5 1041,-198.5 1041,-179.5 952,-179.5"/>
<text text-anchor="middle" x="996.5" y="-186.5" font-family="Helvetica,sans-Serif" font-size="10.00">MultipletBase.hh</text>
</a>
</g>
</g>
<!-- Node6&#45;&gt;Node27 -->
<g id="edge26" class="edge"><title>Node6&#45;&gt;Node27</title>
<path fill="none" stroke="midnightblue" d="M939.425,-235.324C949.675,-227.185 965.221,-214.839 977.501,-205.087"/>
<polygon fill="midnightblue" stroke="midnightblue" points="979.721,-207.794 985.376,-198.834 975.368,-202.312 979.721,-207.794"/>
</g>
<!-- Node8 -->
<g id="node8" class="node"><title>Node8</title>
<polygon fill="white" stroke="#bfbfbf" points="1025,-123.5 1025,-142.5 1132,-142.5 1132,-123.5 1025,-123.5"/>
<text text-anchor="middle" x="1078.5" y="-130.5" font-family="Helvetica,sans-Serif" font-size="10.00">fastjet/PseudoJet.hh</text>
</g>
<!-- Node7&#45;&gt;Node8 -->
<g id="edge7" class="edge"><title>Node7&#45;&gt;Node8</title>
<path fill="none" stroke="midnightblue" d="M901.6,-180.148C936.952,-170.925 995.845,-155.562 1035.88,-145.118"/>
<polygon fill="midnightblue" stroke="midnightblue" points="1036.83,-148.487 1045.63,-142.576 1035.07,-141.713 1036.83,-148.487"/>
</g>
<!-- Node9 -->
<g id="node9" class="node"><title>Node9</title>
<g id="a_node9"><a xlink:href="../../d8/d85/Identification_8hh.html" target="_top" xlink:title="Identification.hh">
<polygon fill="white" stroke="black" points="882.5,-123.5 882.5,-142.5 968.5,-142.5 968.5,-123.5 882.5,-123.5"/>
<text text-anchor="middle" x="925.5" y="-130.5" font-family="Helvetica,sans-Serif" font-size="10.00">Identification.hh</text>
</a>
</g>
</g>
<!-- Node7&#45;&gt;Node9 -->
<g id="edge8" class="edge"><title>Node7&#45;&gt;Node9</title>
<path fill="none" stroke="midnightblue" d="M880.417,-179.083C888.28,-171.22 899.931,-159.569 909.419,-150.081"/>
<polygon fill="midnightblue" stroke="midnightblue" points="912.153,-152.297 916.749,-142.751 907.203,-147.347 912.153,-152.297"/>
</g>
<!-- Node11 -->
<g id="node11" class="node"><title>Node11</title>
<g id="a_node11"><a xlink:href="../../d3/d32/Constituent_8hh.html" target="_top" xlink:title="Constituent.hh">
<polygon fill="white" stroke="red" points="714.5,-123.5 714.5,-142.5 794.5,-142.5 794.5,-123.5 714.5,-123.5"/>
<text text-anchor="middle" x="754.5" y="-130.5" font-family="Helvetica,sans-Serif" font-size="10.00">Constituent.hh</text>
</a>
</g>
</g>
<!-- Node7&#45;&gt;Node11 -->
<g id="edge10" class="edge"><title>Node7&#45;&gt;Node11</title>
<path fill="none" stroke="midnightblue" d="M852.961,-179.444C833.877,-170.636 803.925,-156.812 782.064,-146.722"/>
<polygon fill="midnightblue" stroke="midnightblue" points="783.499,-143.529 772.952,-142.516 780.565,-149.885 783.499,-143.529"/>
</g>
<!-- Node12 -->
<g id="node12" class="node"><title>Node12</title>
<g id="a_node12"><a xlink:href="../../d7/d7f/Math_8hh.html" target="_top" xlink:title="Math.hh">
<polygon fill="white" stroke="red" points="812.5,-123.5 812.5,-142.5 864.5,-142.5 864.5,-123.5 812.5,-123.5"/>
<text text-anchor="middle" x="838.5" y="-130.5" font-family="Helvetica,sans-Serif" font-size="10.00">Math.hh</text>
</a>
</g>
</g>
<!-- Node7&#45;&gt;Node12 -->
<g id="edge11" class="edge"><title>Node7&#45;&gt;Node12</title>
<path fill="none" stroke="midnightblue" d="M866.051,-179.083C861.486,-171.613 854.832,-160.724 849.207,-151.52"/>
<polygon fill="midnightblue" stroke="midnightblue" points="852.049,-149.459 843.848,-142.751 846.076,-153.109 852.049,-149.459"/>
</g>
<!-- Node10 -->
<g id="node10" class="node"><title>Node10</title>
<polygon fill="white" stroke="#bfbfbf" points="1214,-67.5 1214,-86.5 1255,-86.5 1255,-67.5 1214,-67.5"/>
<text text-anchor="middle" x="1234.5" y="-74.5" font-family="Helvetica,sans-Serif" font-size="10.00">string</text>
</g>
<!-- Node9&#45;&gt;Node10 -->
<g id="edge9" class="edge"><title>Node9&#45;&gt;Node10</title>
<path fill="none" stroke="midnightblue" d="M968.79,-124.435C1032.14,-113.363 1148.56,-93.018 1203.83,-83.3602"/>
<polygon fill="midnightblue" stroke="midnightblue" points="1204.47,-86.8007 1213.72,-81.6314 1203.27,-79.9052 1204.47,-86.8007"/>
</g>
<!-- Node13 -->
<g id="node13" class="node"><title>Node13</title>
<g id="a_node13"><a xlink:href="../../dc/d45/Units_8hh.html" target="_top" xlink:title="Units.hh">
<polygon fill="white" stroke="black" points="970,-67.5 970,-86.5 1023,-86.5 1023,-67.5 970,-67.5"/>
<text text-anchor="middle" x="996.5" y="-74.5" font-family="Helvetica,sans-Serif" font-size="10.00">Units.hh</text>
</a>
</g>
</g>
<!-- Node12&#45;&gt;Node13 -->
<g id="edge12" class="edge"><title>Node12&#45;&gt;Node13</title>
<path fill="none" stroke="midnightblue" d="M863.536,-123.444C890.116,-114.359 932.309,-99.9388 962.023,-89.7831"/>
<polygon fill="midnightblue" stroke="midnightblue" points="963.251,-93.0625 971.582,-86.5164 960.987,-86.4386 963.251,-93.0625"/>
</g>
<!-- Node14 -->
<g id="node14" class="node"><title>Node14</title>
<polygon fill="white" stroke="#bfbfbf" points="1254.5,-6 1254.5,-25 1364.5,-25 1364.5,-6 1254.5,-6"/>
<text text-anchor="middle" x="1309.5" y="-13" font-family="Helvetica,sans-Serif" font-size="10.00">boost/units/scale.hpp</text>
</g>
<!-- Node13&#45;&gt;Node14 -->
<g id="edge13" class="edge"><title>Node13&#45;&gt;Node14</title>
<path fill="none" stroke="midnightblue" d="M1023.11,-71.5872C1068.73,-63.9316 1164.79,-47.4283 1245.5,-31 1251.22,-29.8355 1257.22,-28.5561 1263.15,-27.2544"/>
<polygon fill="midnightblue" stroke="midnightblue" points="1264.01,-30.6489 1273.01,-25.0593 1262.49,-23.8162 1264.01,-30.6489"/>
</g>
<!-- Node15 -->
<g id="node15" class="node"><title>Node15</title>
<polygon fill="white" stroke="#bfbfbf" points="1383,-0.5 1383,-30.5 1508,-30.5 1508,-0.5 1383,-0.5"/>
<text text-anchor="start" x="1391" y="-18.5" font-family="Helvetica,sans-Serif" font-size="10.00">boost/units/make_scaled</text>
<text text-anchor="middle" x="1445.5" y="-7.5" font-family="Helvetica,sans-Serif" font-size="10.00">_unit.hpp</text>
</g>
<!-- Node13&#45;&gt;Node15 -->
<g id="edge14" class="edge"><title>Node13&#45;&gt;Node15</title>
<path fill="none" stroke="midnightblue" d="M1023.11,-73.5618C1083.37,-67.8838 1235.03,-52.7121 1372.44,-31.0852"/>
<polygon fill="midnightblue" stroke="midnightblue" points="1373.4,-34.4764 1382.72,-29.4495 1372.3,-27.5633 1373.4,-34.4764"/>
</g>
<!-- Node16 -->
<g id="node16" class="node"><title>Node16</title>
<polygon fill="white" stroke="#bfbfbf" points="1526,-6 1526,-25 1639,-25 1639,-6 1526,-6"/>
<text text-anchor="middle" x="1582.5" y="-13" font-family="Helvetica,sans-Serif" font-size="10.00">boost/units/config.hpp</text>
</g>
<!-- Node13&#45;&gt;Node16 -->
<g id="edge15" class="edge"><title>Node13&#45;&gt;Node16</title>
<path fill="none" stroke="midnightblue" d="M1023.22,-74.9511C1100.29,-71.6554 1329.52,-59.9537 1517.5,-31 1524.26,-29.9594 1531.36,-28.626 1538.29,-27.1905"/>
<polygon fill="midnightblue" stroke="midnightblue" points="1539.22,-30.5702 1548.25,-25.0367 1537.74,-23.7282 1539.22,-30.5702"/>
</g>
<!-- Node17 -->
<g id="node17" class="node"><title>Node17</title>
<polygon fill="white" stroke="#bfbfbf" points="0,-6 0,-25 157,-25 157,-6 0,-6"/>
<text text-anchor="middle" x="78.5" y="-13" font-family="Helvetica,sans-Serif" font-size="10.00">boost/units/base_dimension.hpp</text>
</g>
<!-- Node13&#45;&gt;Node17 -->
<g id="edge16" class="edge"><title>Node13&#45;&gt;Node17</title>
<path fill="none" stroke="midnightblue" d="M969.897,-75.6129C866.485,-73.8849 481.387,-65.3747 166.5,-31 156.119,-29.8667 145.099,-28.3241 134.499,-26.6666"/>
<polygon fill="midnightblue" stroke="midnightblue" points="134.928,-23.1906 124.498,-25.0517 133.812,-30.1011 134.928,-23.1906"/>
</g>
<!-- Node18 -->
<g id="node18" class="node"><title>Node18</title>
<polygon fill="white" stroke="#bfbfbf" points="175.5,-6 175.5,-25 303.5,-25 303.5,-6 175.5,-6"/>
<text text-anchor="middle" x="239.5" y="-13" font-family="Helvetica,sans-Serif" font-size="10.00">boost/units/base_unit.hpp</text>
</g>
<!-- Node13&#45;&gt;Node18 -->
<g id="edge17" class="edge"><title>Node13&#45;&gt;Node18</title>
<path fill="none" stroke="midnightblue" d="M969.97,-75.4977C878.37,-73.4994 567.061,-64.5101 312.5,-31 304.394,-29.933 295.836,-28.5076 287.544,-26.9662"/>
<polygon fill="midnightblue" stroke="midnightblue" points="288.092,-23.5075 277.61,-25.0448 286.763,-30.3802 288.092,-23.5075"/>
</g>
<!-- Node19 -->
<g id="node19" class="node"><title>Node19</title>
<polygon fill="white" stroke="#bfbfbf" points="321.5,-6 321.5,-25 469.5,-25 469.5,-6 321.5,-6"/>
<text text-anchor="middle" x="395.5" y="-13" font-family="Helvetica,sans-Serif" font-size="10.00">boost/units/make_system.hpp</text>
</g>
<!-- Node13&#45;&gt;Node19 -->
<g id="edge18" class="edge"><title>Node13&#45;&gt;Node19</title>
<path fill="none" stroke="midnightblue" d="M969.998,-74.5082C893.534,-70.0298 666.023,-55.4789 478.5,-31 469.339,-29.8042 459.647,-28.3159 450.243,-26.7522"/>
<polygon fill="midnightblue" stroke="midnightblue" points="450.637,-23.2688 440.19,-25.0361 449.459,-30.169 450.637,-23.2688"/>
</g>
<!-- Node20 -->
<g id="node20" class="node"><title>Node20</title>
<polygon fill="white" stroke="#bfbfbf" points="488,-0.5 488,-30.5 587,-30.5 587,-0.5 488,-0.5"/>
<text text-anchor="start" x="496" y="-18.5" font-family="Helvetica,sans-Serif" font-size="10.00">boost/units/derived</text>
<text text-anchor="middle" x="537.5" y="-7.5" font-family="Helvetica,sans-Serif" font-size="10.00">_dimension.hpp</text>
</g>
<!-- Node13&#45;&gt;Node20 -->
<g id="edge19" class="edge"><title>Node13&#45;&gt;Node20</title>
<path fill="none" stroke="midnightblue" d="M969.572,-74.2232C906.217,-69.7788 742.679,-56.7715 597.086,-31.1432"/>
<polygon fill="midnightblue" stroke="midnightblue" points="597.539,-27.6689 587.08,-29.3566 596.309,-34.5599 597.539,-27.6689"/>
</g>
<!-- Node21 -->
<g id="node21" class="node"><title>Node21</title>
<polygon fill="white" stroke="#bfbfbf" points="605,-6 605,-25 726,-25 726,-6 605,-6"/>
<text text-anchor="middle" x="665.5" y="-13" font-family="Helvetica,sans-Serif" font-size="10.00">boost/units/quantity.hpp</text>
</g>
<!-- Node13&#45;&gt;Node21 -->
<g id="edge20" class="edge"><title>Node13&#45;&gt;Node21</title>
<path fill="none" stroke="midnightblue" d="M969.662,-71.7271C922.154,-64.0884 820.181,-47.3549 734.5,-31 728.188,-29.7951 721.562,-28.4745 715.018,-27.1364"/>
<polygon fill="midnightblue" stroke="midnightblue" points="715.359,-23.6329 704.857,-25.0334 713.94,-30.4877 715.359,-23.6329"/>
</g>
<!-- Node22 -->
<g id="node22" class="node"><title>Node22</title>
<polygon fill="white" stroke="#bfbfbf" points="744,-0.5 744,-30.5 859,-30.5 859,-0.5 744,-0.5"/>
<text text-anchor="start" x="752" y="-18.5" font-family="Helvetica,sans-Serif" font-size="10.00">boost/units/base_units</text>
<text text-anchor="middle" x="801.5" y="-7.5" font-family="Helvetica,sans-Serif" font-size="10.00">/metric/barn.hpp</text>
</g>
<!-- Node13&#45;&gt;Node22 -->
<g id="edge21" class="edge"><title>Node13&#45;&gt;Node22</title>
<path fill="none" stroke="midnightblue" d="M969.795,-67.8515C940.974,-59.0574 894.246,-44.7995 857.333,-33.5362"/>
<polygon fill="midnightblue" stroke="midnightblue" points="858.278,-30.1654 847.692,-30.5945 856.235,-36.8606 858.278,-30.1654"/>
</g>
<!-- Node23 -->
<g id="node23" class="node"><title>Node23</title>
<polygon fill="white" stroke="#bfbfbf" points="877,-6 877,-25 990,-25 990,-6 877,-6"/>
<text text-anchor="middle" x="933.5" y="-13" font-family="Helvetica,sans-Serif" font-size="10.00">boost/units/cmath.hpp</text>
</g>
<!-- Node13&#45;&gt;Node23 -->
<g id="edge22" class="edge"><title>Node13&#45;&gt;Node23</title>
<path fill="none" stroke="midnightblue" d="M987.474,-67.4751C977.743,-58.285 962.042,-43.4563 950.077,-32.156"/>
<polygon fill="midnightblue" stroke="midnightblue" points="952.183,-29.3308 942.51,-25.0091 947.377,-34.4199 952.183,-29.3308"/>
</g>
<!-- Node24 -->
<g id="node24" class="node"><title>Node24</title>
<polygon fill="white" stroke="#bfbfbf" points="1657,-0.5 1657,-30.5 1762,-30.5 1762,-0.5 1657,-0.5"/>
<text text-anchor="start" x="1665" y="-18.5" font-family="Helvetica,sans-Serif" font-size="10.00">boost/units/systems</text>
<text text-anchor="middle" x="1709.5" y="-7.5" font-family="Helvetica,sans-Serif" font-size="10.00">/si/io.hpp</text>
</g>
<!-- Node13&#45;&gt;Node24 -->
<g id="edge23" class="edge"><title>Node13&#45;&gt;Node24</title>
<path fill="none" stroke="midnightblue" d="M1023.14,-74.7479C1127,-69.7778 1505.57,-50.8142 1646.57,-31.0931"/>
<polygon fill="midnightblue" stroke="midnightblue" points="1647.31,-34.5217 1656.7,-29.6113 1646.3,-27.5954 1647.31,-34.5217"/>
</g>
<!-- Node25 -->
<g id="node25" class="node"><title>Node25</title>
<polygon fill="white" stroke="#bfbfbf" points="1008,-0.5 1008,-30.5 1113,-30.5 1113,-0.5 1008,-0.5"/>
<text text-anchor="start" x="1016" y="-18.5" font-family="Helvetica,sans-Serif" font-size="10.00">boost/units/systems</text>
<text text-anchor="middle" x="1060.5" y="-7.5" font-family="Helvetica,sans-Serif" font-size="10.00">/si/plane_angle.hpp</text>
</g>
<!-- Node13&#45;&gt;Node25 -->
<g id="edge24" class="edge"><title>Node13&#45;&gt;Node25</title>
<path fill="none" stroke="midnightblue" d="M1005.67,-67.4751C1014.09,-59.6426 1026.92,-47.7145 1038.06,-37.3656"/>
<polygon fill="midnightblue" stroke="midnightblue" points="1040.48,-39.8953 1045.42,-30.523 1035.71,-34.7685 1040.48,-39.8953"/>
</g>
<!-- Node26 -->
<g id="node26" class="node"><title>Node26</title>
<polygon fill="white" stroke="#bfbfbf" points="1131,-0.5 1131,-30.5 1236,-30.5 1236,-0.5 1131,-0.5"/>
<text text-anchor="start" x="1139" y="-18.5" font-family="Helvetica,sans-Serif" font-size="10.00">boost/units/systems</text>
<text text-anchor="middle" x="1183.5" y="-7.5" font-family="Helvetica,sans-Serif" font-size="10.00">/si/length.hpp</text>
</g>
<!-- Node13&#45;&gt;Node26 -->
<g id="edge25" class="edge"><title>Node13&#45;&gt;Node26</title>
<path fill="none" stroke="midnightblue" d="M1023.29,-67.4751C1050.99,-58.6635 1094.97,-44.6684 1129.85,-33.5698"/>
<polygon fill="midnightblue" stroke="midnightblue" points="1130.96,-36.8903 1139.43,-30.523 1128.84,-30.2198 1130.96,-36.8903"/>
</g>
<!-- Node27&#45;&gt;Node8 -->
<g id="edge28" class="edge"><title>Node27&#45;&gt;Node8</title>
<path fill="none" stroke="midnightblue" d="M1009.67,-179.324C1022.35,-170.979 1041.73,-158.212 1056.71,-148.352"/>
<polygon fill="midnightblue" stroke="midnightblue" points="1058.93,-151.078 1065.36,-142.655 1055.08,-145.231 1058.93,-151.078"/>
</g>
<!-- Node27&#45;&gt;Node9 -->
<g id="edge27" class="edge"><title>Node27&#45;&gt;Node9</title>
<path fill="none" stroke="midnightblue" d="M985.093,-179.324C974.391,-171.185 958.159,-158.839 945.337,-149.087"/>
<polygon fill="midnightblue" stroke="midnightblue" points="947.193,-146.102 937.115,-142.834 942.956,-151.673 947.193,-146.102"/>
</g>
<!-- Node27&#45;&gt;Node13 -->
<g id="edge29" class="edge"><title>Node27&#45;&gt;Node13</title>
<path fill="none" stroke="midnightblue" d="M996.5,-179.368C996.5,-161.617 996.5,-120.666 996.5,-96.5974"/>
<polygon fill="midnightblue" stroke="midnightblue" points="1000,-96.5914 996.5,-86.5914 993,-96.5915 1000,-96.5914"/>
</g>
<!-- Node28&#45;&gt;Node6 -->
<g id="edge32" class="edge"><title>Node28&#45;&gt;Node6</title>
<path fill="none" stroke="midnightblue" d="M1010.75,-291.324C995.181,-282.743 971.123,-269.486 953.041,-259.522"/>
<polygon fill="midnightblue" stroke="midnightblue" points="954.654,-256.415 944.206,-254.655 951.276,-262.546 954.654,-256.415"/>
</g>
<!-- Node28&#45;&gt;Node27 -->
<g id="edge31" class="edge"><title>Node28&#45;&gt;Node27</title>
<path fill="none" stroke="midnightblue" d="M1024.15,-291.368C1019.28,-273.537 1008.04,-232.295 1001.48,-208.272"/>
<polygon fill="midnightblue" stroke="midnightblue" points="1004.85,-207.318 998.843,-198.591 998.098,-209.16 1004.85,-207.318"/>
</g>
<!-- Node30 -->
<g id="node30" class="node"><title>Node30</title>
<g id="a_node30"><a xlink:href="../../db/da5/Particles_8hh.html" target="_top" xlink:title="Particles.hh">
<polygon fill="white" stroke="black" points="1150.5,-123.5 1150.5,-142.5 1218.5,-142.5 1218.5,-123.5 1150.5,-123.5"/>
<text text-anchor="middle" x="1184.5" y="-130.5" font-family="Helvetica,sans-Serif" font-size="10.00">Particles.hh</text>
</a>
</g>
</g>
<!-- Node29&#45;&gt;Node30 -->
<g id="edge34" class="edge"><title>Node29&#45;&gt;Node30</title>
<path fill="none" stroke="midnightblue" d="M1140.25,-179.083C1147.97,-171.22 1159.4,-159.569 1168.72,-150.081"/>
<polygon fill="midnightblue" stroke="midnightblue" points="1171.4,-152.34 1175.91,-142.751 1166.41,-147.436 1171.4,-152.34"/>
</g>
<!-- Node30&#45;&gt;Node10 -->
<g id="edge35" class="edge"><title>Node30&#45;&gt;Node10</title>
<path fill="none" stroke="midnightblue" d="M1192.76,-123.083C1199.96,-115.298 1210.61,-103.801 1219.35,-94.3665"/>
<polygon fill="midnightblue" stroke="midnightblue" points="1222.17,-96.4666 1226.4,-86.7511 1217.03,-91.7108 1222.17,-96.4666"/>
</g>
<!-- Node30&#45;&gt;Node13 -->
<g id="edge36" class="edge"><title>Node30&#45;&gt;Node13</title>
<path fill="none" stroke="midnightblue" d="M1154.71,-123.444C1121.73,-113.97 1068.54,-98.6935 1033.06,-88.5022"/>
<polygon fill="midnightblue" stroke="midnightblue" points="1033.69,-85.0401 1023.11,-85.6433 1031.76,-91.7681 1033.69,-85.0401"/>
</g>
<!-- Node32 -->
<g id="node32" class="node"><title>Node32</title>
<g id="a_node32"><a xlink:href="../../d0/d6b/Partons_8hh.html" target="_top" xlink:title="Partons.hh">
<polygon fill="white" stroke="black" points="1410.5,-235.5 1410.5,-254.5 1474.5,-254.5 1474.5,-235.5 1410.5,-235.5"/>
<text text-anchor="middle" x="1442.5" y="-242.5" font-family="Helvetica,sans-Serif" font-size="10.00">Partons.hh</text>
</a>
</g>
</g>
<!-- Node31&#45;&gt;Node32 -->
<g id="edge39" class="edge"><title>Node31&#45;&gt;Node32</title>
<path fill="none" stroke="midnightblue" d="M1350.17,-291.324C1367.89,-282.625 1395.4,-269.12 1415.79,-259.113"/>
<polygon fill="midnightblue" stroke="midnightblue" points="1417.44,-262.203 1424.87,-254.655 1414.35,-255.919 1417.44,-262.203"/>
</g>
<!-- Node36 -->
<g id="node36" class="node"><title>Node36</title>
<g id="a_node36"><a xlink:href="../../d7/dac/Leptons_8hh.html" target="_top" xlink:title="Leptons.hh">
<polygon fill="white" stroke="black" points="1327,-235.5 1327,-254.5 1392,-254.5 1392,-235.5 1327,-235.5"/>
<text text-anchor="middle" x="1359.5" y="-242.5" font-family="Helvetica,sans-Serif" font-size="10.00">Leptons.hh</text>
</a>
</g>
</g>
<!-- Node31&#45;&gt;Node36 -->
<g id="edge44" class="edge"><title>Node31&#45;&gt;Node36</title>
<path fill="none" stroke="midnightblue" d="M1336.96,-291.083C1340.65,-283.691 1346.02,-272.953 1350.59,-263.811"/>
<polygon fill="midnightblue" stroke="midnightblue" points="1353.78,-265.261 1355.12,-254.751 1347.52,-262.13 1353.78,-265.261"/>
</g>
<!-- Node37 -->
<g id="node37" class="node"><title>Node37</title>
<g id="a_node37"><a xlink:href="../../dd/dee/Hadrons_8hh.html" target="_top" xlink:title="Hadrons.hh">
<polygon fill="white" stroke="black" points="1242,-235.5 1242,-254.5 1309,-254.5 1309,-235.5 1242,-235.5"/>
<text text-anchor="middle" x="1275.5" y="-242.5" font-family="Helvetica,sans-Serif" font-size="10.00">Hadrons.hh</text>
</a>
</g>
</g>
<!-- Node31&#45;&gt;Node37 -->
<g id="edge46" class="edge"><title>Node31&#45;&gt;Node37</title>
<path fill="none" stroke="midnightblue" d="M1323.34,-291.324C1315,-283.42 1302.47,-271.548 1292.32,-261.938"/>
<polygon fill="midnightblue" stroke="midnightblue" points="1294.49,-259.171 1284.82,-254.834 1289.68,-264.252 1294.49,-259.171"/>
</g>
<!-- Node33 -->
<g id="node33" class="node"><title>Node33</title>
<g id="a_node33"><a xlink:href="../../df/dbc/FourVector_8hh.html" target="_top" xlink:title="FourVector.hh">
<polygon fill="white" stroke="red" points="1314.5,-179.5 1314.5,-198.5 1392.5,-198.5 1392.5,-179.5 1314.5,-179.5"/>
<text text-anchor="middle" x="1353.5" y="-186.5" font-family="Helvetica,sans-Serif" font-size="10.00">FourVector.hh</text>
</a>
</g>
</g>
<!-- Node32&#45;&gt;Node33 -->
<g id="edge40" class="edge"><title>Node32&#45;&gt;Node33</title>
<path fill="none" stroke="midnightblue" d="M1428.2,-235.324C1414.32,-226.9 1393.01,-213.971 1376.7,-204.074"/>
<polygon fill="midnightblue" stroke="midnightblue" points="1378.13,-200.85 1367.76,-198.655 1374.5,-206.834 1378.13,-200.85"/>
</g>
<!-- Node33&#45;&gt;Node8 -->
<g id="edge43" class="edge"><title>Node33&#45;&gt;Node8</title>
<path fill="none" stroke="midnightblue" d="M1314.39,-180.32C1266.61,-170.938 1185.54,-155.018 1132,-144.506"/>
<polygon fill="midnightblue" stroke="midnightblue" points="1132.5,-141.037 1122.01,-142.544 1131.15,-147.905 1132.5,-141.037"/>
</g>
<!-- Node34 -->
<g id="node34" class="node"><title>Node34</title>
<polygon fill="white" stroke="#bfbfbf" points="1317.5,-123.5 1317.5,-142.5 1367.5,-142.5 1367.5,-123.5 1317.5,-123.5"/>
<text text-anchor="middle" x="1342.5" y="-130.5" font-family="Helvetica,sans-Serif" font-size="10.00">iomanip</text>
</g>
<!-- Node33&#45;&gt;Node34 -->
<g id="edge41" class="edge"><title>Node33&#45;&gt;Node34</title>
<path fill="none" stroke="midnightblue" d="M1351.68,-179.083C1350.23,-171.927 1348.13,-161.635 1346.31,-152.691"/>
<polygon fill="midnightblue" stroke="midnightblue" points="1349.71,-151.851 1344.28,-142.751 1342.85,-153.248 1349.71,-151.851"/>
</g>
<!-- Node35 -->
<g id="node35" class="node"><title>Node35</title>
<polygon fill="white" stroke="#bfbfbf" points="1385.5,-123.5 1385.5,-142.5 1439.5,-142.5 1439.5,-123.5 1385.5,-123.5"/>
<text text-anchor="middle" x="1412.5" y="-130.5" font-family="Helvetica,sans-Serif" font-size="10.00">iostream</text>
</g>
<!-- Node33&#45;&gt;Node35 -->
<g id="edge42" class="edge"><title>Node33&#45;&gt;Node35</title>
<path fill="none" stroke="midnightblue" d="M1362.98,-179.324C1371.7,-171.341 1384.84,-159.313 1395.4,-149.653"/>
<polygon fill="midnightblue" stroke="midnightblue" points="1397.83,-152.167 1402.85,-142.834 1393.11,-147.004 1397.83,-152.167"/>
</g>
<!-- Node36&#45;&gt;Node33 -->
<g id="edge45" class="edge"><title>Node36&#45;&gt;Node33</title>
<path fill="none" stroke="midnightblue" d="M1358.51,-235.083C1357.71,-227.927 1356.57,-217.635 1355.58,-208.691"/>
<polygon fill="midnightblue" stroke="midnightblue" points="1359.06,-208.303 1354.47,-198.751 1352.1,-209.076 1359.06,-208.303"/>
</g>
<!-- Node37&#45;&gt;Node33 -->
<g id="edge50" class="edge"><title>Node37&#45;&gt;Node33</title>
<path fill="none" stroke="midnightblue" d="M1288.03,-235.324C1300.09,-226.979 1318.53,-214.212 1332.77,-204.352"/>
<polygon fill="midnightblue" stroke="midnightblue" points="1334.77,-207.224 1341,-198.655 1330.78,-201.469 1334.77,-207.224"/>
</g>
<!-- Node37&#45;&gt;Node38 -->
<g id="edge47" class="edge"><title>Node37&#45;&gt;Node38</title>
<path fill="none" stroke="midnightblue" d="M1273.85,-235.083C1272.52,-227.927 1270.62,-217.635 1268.96,-208.691"/>
<polygon fill="midnightblue" stroke="midnightblue" points="1272.38,-207.947 1267.12,-198.751 1265.5,-209.221 1272.38,-207.947"/>
</g>
<!-- Node38&#45;&gt;Node10 -->
<g id="edge48" class="edge"><title>Node38&#45;&gt;Node10</title>
<path fill="none" stroke="midnightblue" d="M1266.03,-179.361C1266.55,-166.69 1266.53,-142.461 1260.5,-123 1257.47,-113.212 1252.01,-103.253 1246.87,-95.2004"/>
<polygon fill="midnightblue" stroke="midnightblue" points="1249.66,-93.0712 1241.16,-86.7478 1243.86,-96.9923 1249.66,-93.0712"/>
</g>
<!-- Node38&#45;&gt;Node13 -->
<g id="edge49" class="edge"><title>Node38&#45;&gt;Node13</title>
<path fill="none" stroke="midnightblue" d="M1262.98,-179.234C1258.4,-165.007 1247.33,-137.069 1227.5,-123 1196.76,-101.188 1090.33,-87.4409 1033.28,-81.4645"/>
<polygon fill="midnightblue" stroke="midnightblue" points="1033.54,-77.9726 1023.24,-80.4388 1032.83,-84.9364 1033.54,-77.9726"/>
</g>
<!-- Node40 -->
<g id="node40" class="node"><title>Node40</title>
<polygon fill="white" stroke="#bfbfbf" points="1531,-403.5 1531,-422.5 1646,-422.5 1646,-403.5 1531,-403.5"/>
<text text-anchor="middle" x="1588.5" y="-410.5" font-family="Helvetica,sans-Serif" font-size="10.00">fastjet/JetDefinition.hh</text>
</g>
<!-- Node39&#45;&gt;Node40 -->
<g id="edge54" class="edge"><title>Node39&#45;&gt;Node40</title>
<path fill="none" stroke="midnightblue" d="M1583.49,-459.083C1584.29,-451.927 1585.43,-441.635 1586.42,-432.691"/>
<polygon fill="midnightblue" stroke="midnightblue" points="1589.9,-433.076 1587.53,-422.751 1582.94,-432.303 1589.9,-433.076"/>
</g>
<!-- Node41&#45;&gt;Node4 -->
<g id="edge60" class="edge"><title>Node41&#45;&gt;Node4</title>
<path fill="none" stroke="midnightblue" d="M1029.51,-459.324C1042.03,-450.979 1061.18,-438.212 1075.97,-428.352"/>
<polygon fill="midnightblue" stroke="midnightblue" points="1078.14,-431.114 1084.52,-422.655 1074.26,-425.289 1078.14,-431.114"/>
</g>
<!-- Node42 -->
<g id="node42" class="node"><title>Node42</title>
<g id="a_node42"><a xlink:href="../../de/dbb/BottomTagger_8hh.html" target="_top" xlink:title="BottomTagger.hh">
<polygon fill="white" stroke="red" points="875.5,-403.5 875.5,-422.5 967.5,-422.5 967.5,-403.5 875.5,-403.5"/>
<text text-anchor="middle" x="921.5" y="-410.5" font-family="Helvetica,sans-Serif" font-size="10.00">BottomTagger.hh</text>
</a>
</g>
</g>
<!-- Node41&#45;&gt;Node42 -->
<g id="edge56" class="edge"><title>Node41&#45;&gt;Node42</title>
<path fill="none" stroke="midnightblue" d="M1001.24,-459.324C986.279,-450.822 963.245,-437.729 945.773,-427.797"/>
<polygon fill="midnightblue" stroke="midnightblue" points="947.149,-424.553 936.726,-422.655 943.69,-430.639 947.149,-424.553"/>
</g>
<!-- Node43 -->
<g id="node43" class="node"><title>Node43</title>
<g id="a_node43"><a xlink:href="../../db/db5/TaggerTemplate_8hh.html" target="_top" xlink:title="TaggerTemplate.hh">
<polygon fill="white" stroke="red" points="838,-347.5 838,-366.5 939,-366.5 939,-347.5 838,-347.5"/>
<text text-anchor="middle" x="888.5" y="-354.5" font-family="Helvetica,sans-Serif" font-size="10.00">TaggerTemplate.hh</text>
</a>
</g>
</g>
<!-- Node41&#45;&gt;Node43 -->
<g id="edge59" class="edge"><title>Node41&#45;&gt;Node43</title>
<path fill="none" stroke="midnightblue" d="M973.167,-468.073C938.159,-465.545 890.844,-455.719 866.5,-423 855.883,-408.73 865.132,-388.997 874.686,-375.026"/>
<polygon fill="midnightblue" stroke="midnightblue" points="877.649,-376.907 880.804,-366.793 872.03,-372.733 877.649,-376.907"/>
</g>
<!-- Node44 -->
<g id="node44" class="node"><title>Node44</title>
<g id="a_node44"><a xlink:href="../../df/d2c/Reader_8hh.html" target="_top" xlink:title="Reader.hh">
<polygon fill="white" stroke="red" points="985.5,-403.5 985.5,-422.5 1047.5,-422.5 1047.5,-403.5 985.5,-403.5"/>
<text text-anchor="middle" x="1016.5" y="-410.5" font-family="Helvetica,sans-Serif" font-size="10.00">Reader.hh</text>
</a>
</g>
</g>
<!-- Node41&#45;&gt;Node44 -->
<g id="edge61" class="edge"><title>Node41&#45;&gt;Node44</title>
<path fill="none" stroke="midnightblue" d="M1016.5,-459.083C1016.5,-452.006 1016.5,-441.861 1016.5,-432.986"/>
<polygon fill="midnightblue" stroke="midnightblue" points="1020,-432.751 1016.5,-422.751 1013,-432.751 1020,-432.751"/>
</g>
<!-- Node42&#45;&gt;Node43 -->
<g id="edge57" class="edge"><title>Node42&#45;&gt;Node43</title>
<path fill="none" stroke="midnightblue" d="M916.051,-403.083C911.486,-395.613 904.832,-384.724 899.207,-375.52"/>
<polygon fill="midnightblue" stroke="midnightblue" points="902.049,-373.459 893.848,-366.751 896.076,-377.109 902.049,-373.459"/>
</g>
<!-- Node43&#45;&gt;Node6 -->
<g id="edge58" class="edge"><title>Node43&#45;&gt;Node6</title>
<path fill="none" stroke="midnightblue" d="M891.639,-347.368C898.123,-329.537 913.12,-288.295 921.856,-264.272"/>
<polygon fill="midnightblue" stroke="midnightblue" points="925.248,-265.185 925.376,-254.591 918.669,-262.793 925.248,-265.185"/>
</g>
<!-- Node45&#45;&gt;Node8 -->
<g id="edge64" class="edge"><title>Node45&#45;&gt;Node8</title>
<path fill="none" stroke="midnightblue" d="M1121.9,-235.295C1113.19,-226.855 1100.64,-213.265 1093.5,-199 1086.21,-184.436 1082.4,-166.259 1080.45,-152.833"/>
<polygon fill="midnightblue" stroke="midnightblue" points="1083.92,-152.349 1079.21,-142.856 1076.97,-153.211 1083.92,-152.349"/>
</g>
<!-- Node45&#45;&gt;Node29 -->
<g id="edge65" class="edge"><title>Node45&#45;&gt;Node29</title>
<path fill="none" stroke="midnightblue" d="M1131.5,-235.083C1131.5,-228.006 1131.5,-217.861 1131.5,-208.986"/>
<polygon fill="midnightblue" stroke="midnightblue" points="1135,-208.751 1131.5,-198.751 1128,-208.751 1135,-208.751"/>
</g>
<!-- Node45&#45;&gt;Node30 -->
<g id="edge63" class="edge"><title>Node45&#45;&gt;Node30</title>
<path fill="none" stroke="midnightblue" d="M1141.41,-235.37C1150.39,-226.983 1163.3,-213.429 1170.5,-199 1177.75,-184.477 1181.26,-166.296 1182.95,-152.858"/>
<polygon fill="midnightblue" stroke="midnightblue" points="1186.44,-153.177 1183.99,-142.87 1179.47,-152.456 1186.44,-153.177"/>
</g>
<!-- Node47 -->
<g id="node47" class="node"><title>Node47</title>
<polygon fill="white" stroke="#bfbfbf" points="1664,-403.5 1664,-422.5 1723,-422.5 1723,-403.5 1664,-403.5"/>
<text text-anchor="middle" x="1693.5" y="-410.5" font-family="Helvetica,sans-Serif" font-size="10.00">stdexcept</text>
</g>
<!-- Node46&#45;&gt;Node47 -->
<g id="edge67" class="edge"><title>Node46&#45;&gt;Node47</title>
<path fill="none" stroke="midnightblue" d="M1690.16,-459.083C1690.68,-452.006 1691.44,-441.861 1692.09,-432.986"/>
<polygon fill="midnightblue" stroke="midnightblue" points="1695.6,-432.982 1692.85,-422.751 1688.62,-432.465 1695.6,-432.982"/>
</g>
<!-- Node48&#45;&gt;Node10 -->
<g id="edge69" class="edge"><title>Node48&#45;&gt;Node10</title>
<path fill="none" stroke="midnightblue" d="M1497.84,-179.238C1489.79,-165.016 1471.87,-137.086 1448.5,-123 1390.37,-87.9665 1309.08,-79.9177 1265.31,-78.2499"/>
<polygon fill="midnightblue" stroke="midnightblue" points="1265.39,-74.7506 1255.29,-77.956 1265.18,-81.7476 1265.39,-74.7506"/>
</g>
<!-- Node48&#45;&gt;Node24 -->
<g id="edge74" class="edge"><title>Node48&#45;&gt;Node24</title>
<path fill="none" stroke="midnightblue" d="M1512.77,-179.495C1544.1,-153.535 1639.14,-74.7951 1684.67,-37.074"/>
<polygon fill="midnightblue" stroke="midnightblue" points="1687.1,-39.6051 1692.57,-30.53 1682.63,-34.2147 1687.1,-39.6051"/>
</g>
<!-- Node48&#45;&gt;Node34 -->
<g id="edge72" class="edge"><title>Node48&#45;&gt;Node34</title>
<path fill="none" stroke="midnightblue" d="M1477.15,-179.444C1450.23,-170.359 1407.5,-155.939 1377.41,-145.783"/>
<polygon fill="midnightblue" stroke="midnightblue" points="1378.33,-142.398 1367.73,-142.516 1376.09,-149.031 1378.33,-142.398"/>
</g>
<!-- Node48&#45;&gt;Node35 -->
<g id="edge73" class="edge"><title>Node48&#45;&gt;Node35</title>
<path fill="none" stroke="midnightblue" d="M1488.04,-179.324C1474,-170.9 1452.45,-157.971 1435.96,-148.074"/>
<polygon fill="midnightblue" stroke="midnightblue" points="1437.3,-144.798 1426.92,-142.655 1433.7,-150.801 1437.3,-144.798"/>
</g>
<!-- Node49 -->
<g id="node49" class="node"><title>Node49</title>
<polygon fill="white" stroke="#bfbfbf" points="1495.5,-123.5 1495.5,-142.5 1539.5,-142.5 1539.5,-123.5 1495.5,-123.5"/>
<text text-anchor="middle" x="1517.5" y="-130.5" font-family="Helvetica,sans-Serif" font-size="10.00">vector</text>
</g>
<!-- Node48&#45;&gt;Node49 -->
<g id="edge70" class="edge"><title>Node48&#45;&gt;Node49</title>
<path fill="none" stroke="midnightblue" d="M1504.98,-179.083C1506.99,-171.849 1509.89,-161.409 1512.39,-152.397"/>
<polygon fill="midnightblue" stroke="midnightblue" points="1515.76,-153.323 1515.07,-142.751 1509.02,-151.449 1515.76,-153.323"/>
</g>
<!-- Node50 -->
<g id="node50" class="node"><title>Node50</title>
<polygon fill="white" stroke="#bfbfbf" points="1595.5,-123.5 1595.5,-142.5 1647.5,-142.5 1647.5,-123.5 1595.5,-123.5"/>
<text text-anchor="middle" x="1621.5" y="-130.5" font-family="Helvetica,sans-Serif" font-size="10.00">sstream</text>
</g>
<!-- Node48&#45;&gt;Node50 -->
<g id="edge71" class="edge"><title>Node48&#45;&gt;Node50</title>
<path fill="none" stroke="midnightblue" d="M1521.36,-179.444C1540.77,-170.636 1571.23,-156.812 1593.46,-146.722"/>
<polygon fill="midnightblue" stroke="midnightblue" points="1595.07,-149.836 1602.73,-142.516 1592.18,-143.462 1595.07,-149.836"/>
</g>
</g>
</svg>
