<?xml version="1.0" encoding="UTF-8" standalone="no"?>
<!DOCTYPE svg PUBLIC "-//W3C//DTD SVG 1.1//EN"
 "http://www.w3.org/Graphics/SVG/1.1/DTD/svg11.dtd">
<!-- Generated by graphviz version 2.38.0 (20140413.2041)
 -->
<!-- Title: include/exroot/Leptons.hh Pages: 1 -->
<svg width="2081pt" height="554pt"
 viewBox="0.00 0.00 2080.50 554.00" xmlns="http://www.w3.org/2000/svg" xmlns:xlink="http://www.w3.org/1999/xlink">
<g id="graph0" class="graph" transform="scale(1 1) rotate(0) translate(4 550)">
<title>include/exroot/Leptons.hh</title>
<polygon fill="white" stroke="none" points="-4,4 -4,-550 2076.5,-550 2076.5,4 -4,4"/>
<!-- Node1 -->
<g id="node1" class="node"><title>Node1</title>
<polygon fill="#bfbfbf" stroke="black" points="790,-526.5 790,-545.5 918,-545.5 918,-526.5 790,-526.5"/>
<text text-anchor="middle" x="854" y="-533.5" font-family="Helvetica,sans-Serif" font-size="10.00">include/exroot/Leptons.hh</text>
</g>
<!-- Node2 -->
<g id="node2" class="node"><title>Node2</title>
<g id="a_node2"><a xlink:href="../../d7/dac/Leptons_8hh.html" target="_top" xlink:title="../Leptons.hh">
<polygon fill="white" stroke="black" points="817,-470.5 817,-489.5 891,-489.5 891,-470.5 817,-470.5"/>
<text text-anchor="middle" x="854" y="-477.5" font-family="Helvetica,sans-Serif" font-size="10.00">../Leptons.hh</text>
</a>
</g>
</g>
<!-- Node1&#45;&gt;Node2 -->
<g id="edge1" class="edge"><title>Node1&#45;&gt;Node2</title>
<path fill="none" stroke="midnightblue" d="M854,-526.083C854,-519.006 854,-508.861 854,-499.986"/>
<polygon fill="midnightblue" stroke="midnightblue" points="857.5,-499.751 854,-489.751 850.5,-499.751 857.5,-499.751"/>
</g>
<!-- Node3 -->
<g id="node3" class="node"><title>Node3</title>
<g id="a_node3"><a xlink:href="../../df/dbc/FourVector_8hh.html" target="_top" xlink:title="FourVector.hh">
<polygon fill="white" stroke="black" points="508,-118 508,-137 586,-137 586,-118 508,-118"/>
<text text-anchor="middle" x="547" y="-125" font-family="Helvetica,sans-Serif" font-size="10.00">FourVector.hh</text>
</a>
</g>
</g>
<!-- Node2&#45;&gt;Node3 -->
<g id="edge2" class="edge"><title>Node2&#45;&gt;Node3</title>
<path fill="none" stroke="midnightblue" d="M816.922,-477.941C750.94,-473.871 620,-454.964 620,-369 620,-369 620,-369 620,-255 620,-210.06 585.01,-166.713 563.479,-144.294"/>
<polygon fill="midnightblue" stroke="midnightblue" points="565.778,-141.641 556.246,-137.017 560.813,-146.576 565.778,-141.641"/>
</g>
<!-- Node18 -->
<g id="node18" class="node"><title>Node18</title>
<g id="a_node18"><a xlink:href="../../dd/df7/Jet_8hh.html" target="_top" xlink:title="Jet.hh">
<polygon fill="white" stroke="black" points="1067,-414.5 1067,-433.5 1111,-433.5 1111,-414.5 1067,-414.5"/>
<text text-anchor="middle" x="1089" y="-421.5" font-family="Helvetica,sans-Serif" font-size="10.00">Jet.hh</text>
</a>
</g>
</g>
<!-- Node2&#45;&gt;Node18 -->
<g id="edge18" class="edge"><title>Node2&#45;&gt;Node18</title>
<path fill="none" stroke="midnightblue" d="M891.236,-470.444C936.909,-459.948 1013.58,-442.332 1056.81,-432.397"/>
<polygon fill="midnightblue" stroke="midnightblue" points="1057.83,-435.755 1066.79,-430.104 1056.26,-428.933 1057.83,-435.755"/>
</g>
<!-- Node4 -->
<g id="node4" class="node"><title>Node4</title>
<polygon fill="white" stroke="#bfbfbf" points="371,-56.5 371,-75.5 421,-75.5 421,-56.5 371,-56.5"/>
<text text-anchor="middle" x="396" y="-63.5" font-family="Helvetica,sans-Serif" font-size="10.00">iomanip</text>
</g>
<!-- Node3&#45;&gt;Node4 -->
<g id="edge3" class="edge"><title>Node3&#45;&gt;Node4</title>
<path fill="none" stroke="midnightblue" d="M525.365,-117.975C499.576,-107.813 456.289,-90.7564 426.96,-79.1996"/>
<polygon fill="midnightblue" stroke="midnightblue" points="428.181,-75.9189 417.594,-75.5091 425.615,-82.4315 428.181,-75.9189"/>
</g>
<!-- Node5 -->
<g id="node5" class="node"><title>Node5</title>
<polygon fill="white" stroke="#bfbfbf" points="819,-0.5 819,-19.5 873,-19.5 873,-0.5 819,-0.5"/>
<text text-anchor="middle" x="846" y="-7.5" font-family="Helvetica,sans-Serif" font-size="10.00">iostream</text>
</g>
<!-- Node3&#45;&gt;Node5 -->
<g id="edge4" class="edge"><title>Node3&#45;&gt;Node5</title>
<path fill="none" stroke="midnightblue" d="M569.474,-117.819C622.092,-97.4931 753.416,-46.7641 814.203,-23.2828"/>
<polygon fill="midnightblue" stroke="midnightblue" points="815.606,-26.4928 823.673,-19.6245 813.084,-19.963 815.606,-26.4928"/>
</g>
<!-- Node6 -->
<g id="node6" class="node"><title>Node6</title>
<g id="a_node6"><a xlink:href="../../d0/d5f/Flag_8hh.html" target="_top" xlink:title="Flag.hh">
<polygon fill="white" stroke="black" points="439.5,-56.5 439.5,-75.5 488.5,-75.5 488.5,-56.5 439.5,-56.5"/>
<text text-anchor="middle" x="464" y="-63.5" font-family="Helvetica,sans-Serif" font-size="10.00">Flag.hh</text>
</a>
</g>
</g>
<!-- Node3&#45;&gt;Node6 -->
<g id="edge5" class="edge"><title>Node3&#45;&gt;Node6</title>
<path fill="none" stroke="midnightblue" d="M535.108,-117.975C521.795,-108.431 500,-92.8073 484.043,-81.3683"/>
<polygon fill="midnightblue" stroke="midnightblue" points="486.036,-78.4908 475.87,-75.5091 481.958,-84.18 486.036,-78.4908"/>
</g>
<!-- Node8 -->
<g id="node8" class="node"><title>Node8</title>
<g id="a_node8"><a xlink:href="../../d6/d74/TreeReader_8hh.html" target="_top" xlink:title="TreeReader.hh">
<polygon fill="white" stroke="black" points="506.5,-56.5 506.5,-75.5 587.5,-75.5 587.5,-56.5 506.5,-56.5"/>
<text text-anchor="middle" x="547" y="-63.5" font-family="Helvetica,sans-Serif" font-size="10.00">TreeReader.hh</text>
</a>
</g>
</g>
<!-- Node3&#45;&gt;Node8 -->
<g id="edge7" class="edge"><title>Node3&#45;&gt;Node8</title>
<path fill="none" stroke="midnightblue" d="M547,-117.975C547,-109.58 547,-96.4806 547,-85.6631"/>
<polygon fill="midnightblue" stroke="midnightblue" points="550.5,-85.5091 547,-75.5091 543.5,-85.5091 550.5,-85.5091"/>
</g>
<!-- Node7 -->
<g id="node7" class="node"><title>Node7</title>
<polygon fill="white" stroke="#bfbfbf" points="0,-0.5 0,-19.5 62,-19.5 62,-0.5 0,-0.5"/>
<text text-anchor="middle" x="31" y="-7.5" font-family="Helvetica,sans-Serif" font-size="10.00">type_traits</text>
</g>
<!-- Node6&#45;&gt;Node7 -->
<g id="edge6" class="edge"><title>Node6&#45;&gt;Node7</title>
<path fill="none" stroke="midnightblue" d="M439.22,-57.9539C436.132,-57.2199 433.004,-56.5447 430,-56 275.452,-27.9796 231.1,-44.9182 72.4879,-20.0544"/>
<polygon fill="midnightblue" stroke="midnightblue" points="72.8001,-16.5599 62.3728,-18.4369 71.6947,-23.4721 72.8001,-16.5599"/>
</g>
<!-- Node8&#45;&gt;Node5 -->
<g id="edge12" class="edge"><title>Node8&#45;&gt;Node5</title>
<path fill="none" stroke="midnightblue" d="M587.73,-59.0078C637.6,-51.4557 724.835,-37.5512 808.95,-20.0922"/>
<polygon fill="midnightblue" stroke="midnightblue" points="809.854,-23.4787 818.924,-18.0018 808.419,-16.6276 809.854,-23.4787"/>
</g>
<!-- Node9 -->
<g id="node9" class="node"><title>Node9</title>
<polygon fill="white" stroke="#bfbfbf" points="687,-0.5 687,-19.5 731,-19.5 731,-0.5 687,-0.5"/>
<text text-anchor="middle" x="709" y="-7.5" font-family="Helvetica,sans-Serif" font-size="10.00">mutex</text>
</g>
<!-- Node8&#45;&gt;Node9 -->
<g id="edge8" class="edge"><title>Node8&#45;&gt;Node9</title>
<path fill="none" stroke="midnightblue" d="M572.669,-56.4435C600.965,-47.0118 646.515,-31.8282 677.088,-21.6375"/>
<polygon fill="midnightblue" stroke="midnightblue" points="678.455,-24.8711 686.835,-18.3884 676.241,-18.2304 678.455,-24.8711"/>
</g>
<!-- Node10 -->
<g id="node10" class="node"><title>Node10</title>
<polygon fill="white" stroke="#bfbfbf" points="749,-0.5 749,-19.5 801,-19.5 801,-0.5 749,-0.5"/>
<text text-anchor="middle" x="775" y="-7.5" font-family="Helvetica,sans-Serif" font-size="10.00">memory</text>
</g>
<!-- Node8&#45;&gt;Node10 -->
<g id="edge9" class="edge"><title>Node8&#45;&gt;Node10</title>
<path fill="none" stroke="midnightblue" d="M584.782,-56.4566C621.68,-48.0539 679.677,-34.6907 738.767,-20.2642"/>
<polygon fill="midnightblue" stroke="midnightblue" points="739.762,-23.624 748.643,-17.8456 738.097,-16.8249 739.762,-23.624"/>
</g>
<!-- Node11 -->
<g id="node11" class="node"><title>Node11</title>
<polygon fill="white" stroke="#bfbfbf" points="80,-0.5 80,-19.5 124,-19.5 124,-0.5 80,-0.5"/>
<text text-anchor="middle" x="102" y="-7.5" font-family="Helvetica,sans-Serif" font-size="10.00">vector</text>
</g>
<!-- Node8&#45;&gt;Node11 -->
<g id="edge10" class="edge"><title>Node8&#45;&gt;Node11</title>
<path fill="none" stroke="midnightblue" d="M506.384,-57.4104C503.214,-56.9032 500.058,-56.4257 497,-56 339.288,-34.0424 294.452,-50.1036 134.436,-19.9414"/>
<polygon fill="midnightblue" stroke="midnightblue" points="134.712,-16.4306 124.231,-17.9853 133.394,-23.3054 134.712,-16.4306"/>
</g>
<!-- Node12 -->
<g id="node12" class="node"><title>Node12</title>
<polygon fill="white" stroke="#bfbfbf" points="142.5,-0.5 142.5,-19.5 177.5,-19.5 177.5,-0.5 142.5,-0.5"/>
<text text-anchor="middle" x="160" y="-7.5" font-family="Helvetica,sans-Serif" font-size="10.00">map</text>
</g>
<!-- Node8&#45;&gt;Node12 -->
<g id="edge11" class="edge"><title>Node8&#45;&gt;Node12</title>
<path fill="none" stroke="midnightblue" d="M506.376,-57.4686C503.207,-56.9481 500.054,-56.4517 497,-56 363.005,-36.1799 324.208,-49.4354 187.581,-19.6556"/>
<polygon fill="midnightblue" stroke="midnightblue" points="188.093,-16.1842 177.572,-17.4361 186.577,-23.0181 188.093,-16.1842"/>
</g>
<!-- Node13 -->
<g id="node13" class="node"><title>Node13</title>
<polygon fill="white" stroke="#bfbfbf" points="196,-0.5 196,-19.5 252,-19.5 252,-0.5 196,-0.5"/>
<text text-anchor="middle" x="224" y="-7.5" font-family="Helvetica,sans-Serif" font-size="10.00">TChain.h</text>
</g>
<!-- Node8&#45;&gt;Node13 -->
<g id="edge13" class="edge"><title>Node8&#45;&gt;Node13</title>
<path fill="none" stroke="midnightblue" d="M506.357,-57.5905C503.192,-57.0423 500.045,-56.5062 497,-56 395.503,-39.127 366.812,-40.4575 262.245,-20.105"/>
<polygon fill="midnightblue" stroke="midnightblue" points="262.713,-16.63 252.226,-18.1342 261.362,-23.4984 262.713,-16.63"/>
</g>
<!-- Node14 -->
<g id="node14" class="node"><title>Node14</title>
<polygon fill="white" stroke="#bfbfbf" points="270,-0.5 270,-19.5 352,-19.5 352,-0.5 270,-0.5"/>
<text text-anchor="middle" x="311" y="-7.5" font-family="Helvetica,sans-Serif" font-size="10.00">TTreeReader.h</text>
</g>
<!-- Node8&#45;&gt;Node14 -->
<g id="edge14" class="edge"><title>Node8&#45;&gt;Node14</title>
<path fill="none" stroke="midnightblue" d="M509.605,-56.4435C468.608,-47.0629 402.746,-31.9926 358.216,-21.8036"/>
<polygon fill="midnightblue" stroke="midnightblue" points="358.749,-18.3352 348.22,-19.5164 357.187,-25.1588 358.749,-18.3352"/>
</g>
<!-- Node15 -->
<g id="node15" class="node"><title>Node15</title>
<polygon fill="white" stroke="#bfbfbf" points="370.5,-0.5 370.5,-19.5 475.5,-19.5 475.5,-0.5 370.5,-0.5"/>
<text text-anchor="middle" x="423" y="-7.5" font-family="Helvetica,sans-Serif" font-size="10.00">TTreeReaderArray.h</text>
</g>
<!-- Node8&#45;&gt;Node15 -->
<g id="edge15" class="edge"><title>Node8&#45;&gt;Node15</title>
<path fill="none" stroke="midnightblue" d="M527.352,-56.4435C507.035,-47.5961 475.097,-33.6875 451.902,-23.5865"/>
<polygon fill="midnightblue" stroke="midnightblue" points="453.122,-20.3002 442.556,-19.5164 450.327,-26.7181 453.122,-20.3002"/>
</g>
<!-- Node16 -->
<g id="node16" class="node"><title>Node16</title>
<polygon fill="white" stroke="#bfbfbf" points="493.5,-0.5 493.5,-19.5 600.5,-19.5 600.5,-0.5 493.5,-0.5"/>
<text text-anchor="middle" x="547" y="-7.5" font-family="Helvetica,sans-Serif" font-size="10.00">TTreeReaderValue.h</text>
</g>
<!-- Node8&#45;&gt;Node16 -->
<g id="edge16" class="edge"><title>Node8&#45;&gt;Node16</title>
<path fill="none" stroke="midnightblue" d="M547,-56.083C547,-49.0059 547,-38.8611 547,-29.9865"/>
<polygon fill="midnightblue" stroke="midnightblue" points="550.5,-29.751 547,-19.7511 543.5,-29.7511 550.5,-29.751"/>
</g>
<!-- Node17 -->
<g id="node17" class="node"><title>Node17</title>
<polygon fill="white" stroke="#bfbfbf" points="619,-0.5 619,-19.5 669,-19.5 669,-0.5 619,-0.5"/>
<text text-anchor="middle" x="644" y="-7.5" font-family="Helvetica,sans-Serif" font-size="10.00">TLeaf.h</text>
</g>
<!-- Node8&#45;&gt;Node17 -->
<g id="edge17" class="edge"><title>Node8&#45;&gt;Node17</title>
<path fill="none" stroke="midnightblue" d="M562.585,-56.324C577.999,-47.7428 601.812,-34.486 619.71,-24.5224"/>
<polygon fill="midnightblue" stroke="midnightblue" points="621.419,-27.5767 628.454,-19.6545 618.014,-21.4606 621.419,-27.5767"/>
</g>
<!-- Node19 -->
<g id="node19" class="node"><title>Node19</title>
<g id="a_node19"><a xlink:href="../../d8/d42/PseudoJet_8hh.html" target="_top" xlink:title="PseudoJet.hh">
<polygon fill="white" stroke="black" points="1129.5,-358.5 1129.5,-377.5 1206.5,-377.5 1206.5,-358.5 1129.5,-358.5"/>
<text text-anchor="middle" x="1168" y="-365.5" font-family="Helvetica,sans-Serif" font-size="10.00">PseudoJet.hh</text>
</a>
</g>
</g>
<!-- Node18&#45;&gt;Node19 -->
<g id="edge19" class="edge"><title>Node18&#45;&gt;Node19</title>
<path fill="none" stroke="midnightblue" d="M1101.69,-414.324C1113.9,-405.979 1132.58,-393.212 1147,-383.352"/>
<polygon fill="midnightblue" stroke="midnightblue" points="1149.06,-386.187 1155.34,-377.655 1145.11,-380.408 1149.06,-386.187"/>
</g>
<!-- Node37 -->
<g id="node37" class="node"><title>Node37</title>
<g id="a_node37"><a xlink:href="../../d1/dce/JetInfo_8hh.html" target="_top" xlink:title="JetInfo.hh">
<polygon fill="white" stroke="black" points="1059,-302.5 1059,-321.5 1119,-321.5 1119,-302.5 1059,-302.5"/>
<text text-anchor="middle" x="1089" y="-309.5" font-family="Helvetica,sans-Serif" font-size="10.00">JetInfo.hh</text>
</a>
</g>
</g>
<!-- Node18&#45;&gt;Node37 -->
<g id="edge57" class="edge"><title>Node18&#45;&gt;Node37</title>
<path fill="none" stroke="midnightblue" d="M1089,-414.368C1089,-396.617 1089,-355.666 1089,-331.597"/>
<polygon fill="midnightblue" stroke="midnightblue" points="1092.5,-331.591 1089,-321.591 1085.5,-331.591 1092.5,-331.591"/>
</g>
<!-- Node20 -->
<g id="node20" class="node"><title>Node20</title>
<polygon fill="white" stroke="#bfbfbf" points="1151.5,-246.5 1151.5,-265.5 1258.5,-265.5 1258.5,-246.5 1151.5,-246.5"/>
<text text-anchor="middle" x="1205" y="-253.5" font-family="Helvetica,sans-Serif" font-size="10.00">fastjet/PseudoJet.hh</text>
</g>
<!-- Node19&#45;&gt;Node20 -->
<g id="edge20" class="edge"><title>Node19&#45;&gt;Node20</title>
<path fill="none" stroke="midnightblue" d="M1170.9,-358.368C1176.9,-340.537 1190.77,-299.295 1198.85,-275.272"/>
<polygon fill="midnightblue" stroke="midnightblue" points="1202.24,-276.185 1202.11,-265.591 1195.6,-273.954 1202.24,-276.185"/>
</g>
<!-- Node21 -->
<g id="node21" class="node"><title>Node21</title>
<g id="a_node21"><a xlink:href="../../dc/d45/Units_8hh.html" target="_top" xlink:title="physics/Units.hh">
<polygon fill="white" stroke="black" points="1585,-302.5 1585,-321.5 1675,-321.5 1675,-302.5 1585,-302.5"/>
<text text-anchor="middle" x="1630" y="-309.5" font-family="Helvetica,sans-Serif" font-size="10.00">physics/Units.hh</text>
</a>
</g>
</g>
<!-- Node19&#45;&gt;Node21 -->
<g id="edge21" class="edge"><title>Node19&#45;&gt;Node21</title>
<path fill="none" stroke="midnightblue" d="M1206.6,-362.489C1288.51,-352.914 1480.02,-330.53 1574.82,-319.449"/>
<polygon fill="midnightblue" stroke="midnightblue" points="1575.26,-322.922 1584.79,-318.284 1574.45,-315.969 1575.26,-322.922"/>
</g>
<!-- Node19&#45;&gt;Node37 -->
<g id="edge41" class="edge"><title>Node19&#45;&gt;Node37</title>
<path fill="none" stroke="midnightblue" d="M1155.31,-358.324C1143.1,-349.979 1124.42,-337.212 1110,-327.352"/>
<polygon fill="midnightblue" stroke="midnightblue" points="1111.89,-324.408 1101.66,-321.655 1107.94,-330.187 1111.89,-324.408"/>
</g>
<!-- Node22 -->
<g id="node22" class="node"><title>Node22</title>
<polygon fill="white" stroke="#bfbfbf" points="1699.5,-246.5 1699.5,-265.5 1812.5,-265.5 1812.5,-246.5 1699.5,-246.5"/>
<text text-anchor="middle" x="1756" y="-253.5" font-family="Helvetica,sans-Serif" font-size="10.00">boost/units/cmath.hpp</text>
</g>
<!-- Node21&#45;&gt;Node22 -->
<g id="edge22" class="edge"><title>Node21&#45;&gt;Node22</title>
<path fill="none" stroke="midnightblue" d="M1649.97,-302.444C1670.61,-293.596 1703.06,-279.687 1726.63,-269.586"/>
<polygon fill="midnightblue" stroke="midnightblue" points="1728.32,-272.673 1736.13,-265.516 1725.56,-266.239 1728.32,-272.673"/>
</g>
<!-- Node23 -->
<g id="node23" class="node"><title>Node23</title>
<g id="a_node23"><a xlink:href="../../dc/d6c/Prefixes_8hh.html" target="_top" xlink:title="physics/Prefixes.hh">
<polygon fill="white" stroke="black" points="1578.5,-246.5 1578.5,-265.5 1681.5,-265.5 1681.5,-246.5 1578.5,-246.5"/>
<text text-anchor="middle" x="1630" y="-253.5" font-family="Helvetica,sans-Serif" font-size="10.00">physics/Prefixes.hh</text>
</a>
</g>
</g>
<!-- Node21&#45;&gt;Node23 -->
<g id="edge23" class="edge"><title>Node21&#45;&gt;Node23</title>
<path fill="none" stroke="midnightblue" d="M1630,-302.083C1630,-295.006 1630,-284.861 1630,-275.986"/>
<polygon fill="midnightblue" stroke="midnightblue" points="1633.5,-275.751 1630,-265.751 1626.5,-275.751 1633.5,-275.751"/>
</g>
<!-- Node24 -->
<g id="node24" class="node"><title>Node24</title>
<polygon fill="white" stroke="#bfbfbf" points="1690,-185 1690,-204 1800,-204 1800,-185 1690,-185"/>
<text text-anchor="middle" x="1745" y="-192" font-family="Helvetica,sans-Serif" font-size="10.00">boost/units/scale.hpp</text>
</g>
<!-- Node23&#45;&gt;Node24 -->
<g id="edge24" class="edge"><title>Node23&#45;&gt;Node24</title>
<path fill="none" stroke="midnightblue" d="M1646.48,-246.475C1665.61,-236.578 1697.37,-220.142 1719.65,-208.615"/>
<polygon fill="midnightblue" stroke="midnightblue" points="1721.28,-211.713 1728.55,-204.009 1718.06,-205.496 1721.28,-211.713"/>
</g>
<!-- Node25 -->
<g id="node25" class="node"><title>Node25</title>
<polygon fill="white" stroke="#bfbfbf" points="1818.5,-179.5 1818.5,-209.5 1943.5,-209.5 1943.5,-179.5 1818.5,-179.5"/>
<text text-anchor="start" x="1826.5" y="-197.5" font-family="Helvetica,sans-Serif" font-size="10.00">boost/units/make_scaled</text>
<text text-anchor="middle" x="1881" y="-186.5" font-family="Helvetica,sans-Serif" font-size="10.00">_unit.hpp</text>
</g>
<!-- Node23&#45;&gt;Node25 -->
<g id="edge25" class="edge"><title>Node23&#45;&gt;Node25</title>
<path fill="none" stroke="midnightblue" d="M1665.96,-246.475C1703.93,-237.475 1764.7,-223.068 1811.98,-211.862"/>
<polygon fill="midnightblue" stroke="midnightblue" points="1812.92,-215.235 1821.84,-209.523 1811.31,-208.424 1812.92,-215.235"/>
</g>
<!-- Node26 -->
<g id="node26" class="node"><title>Node26</title>
<polygon fill="white" stroke="#bfbfbf" points="1961.5,-179.5 1961.5,-209.5 2072.5,-209.5 2072.5,-179.5 1961.5,-179.5"/>
<text text-anchor="start" x="1969.5" y="-197.5" font-family="Helvetica,sans-Serif" font-size="10.00">boost/units/systems</text>
<text text-anchor="middle" x="2017" y="-186.5" font-family="Helvetica,sans-Serif" font-size="10.00">/si/dimensionless.hpp</text>
</g>
<!-- Node23&#45;&gt;Node26 -->
<g id="edge26" class="edge"><title>Node23&#45;&gt;Node26</title>
<path fill="none" stroke="midnightblue" d="M1681.58,-247.353C1684.77,-246.892 1687.93,-246.438 1691,-246 1804.18,-229.875 1835.65,-230.932 1951.26,-210.236"/>
<polygon fill="midnightblue" stroke="midnightblue" points="1951.99,-213.66 1961.21,-208.438 1950.75,-206.771 1951.99,-213.66"/>
</g>
<!-- Node27 -->
<g id="node27" class="node"><title>Node27</title>
<g id="a_node27"><a xlink:href="../../d6/d2c/Si_8hh.html" target="_top" xlink:title="Si.hh">
<polygon fill="white" stroke="black" points="1438.5,-185 1438.5,-204 1477.5,-204 1477.5,-185 1438.5,-185"/>
<text text-anchor="middle" x="1458" y="-192" font-family="Helvetica,sans-Serif" font-size="10.00">Si.hh</text>
</a>
</g>
</g>
<!-- Node23&#45;&gt;Node27 -->
<g id="edge27" class="edge"><title>Node23&#45;&gt;Node27</title>
<path fill="none" stroke="midnightblue" d="M1605.36,-246.475C1574.13,-235.671 1520.37,-217.075 1487.14,-205.579"/>
<polygon fill="midnightblue" stroke="midnightblue" points="1488.13,-202.218 1477.53,-202.256 1485.84,-208.833 1488.13,-202.218"/>
</g>
<!-- Node31 -->
<g id="node31" class="node"><title>Node31</title>
<g id="a_node31"><a xlink:href="../../d5/d2d/Barn_8hh.html" target="_top" xlink:title="Barn.hh">
<polygon fill="white" stroke="black" points="1520,-185 1520,-204 1570,-204 1570,-185 1520,-185"/>
<text text-anchor="middle" x="1545" y="-192" font-family="Helvetica,sans-Serif" font-size="10.00">Barn.hh</text>
</a>
</g>
</g>
<!-- Node23&#45;&gt;Node31 -->
<g id="edge31" class="edge"><title>Node23&#45;&gt;Node31</title>
<path fill="none" stroke="midnightblue" d="M1617.82,-246.475C1604.19,-236.931 1581.87,-221.307 1565.53,-209.868"/>
<polygon fill="midnightblue" stroke="midnightblue" points="1567.36,-206.876 1557.16,-204.009 1563.34,-212.611 1567.36,-206.876"/>
</g>
<!-- Node35 -->
<g id="node35" class="node"><title>Node35</title>
<g id="a_node35"><a xlink:href="../../d5/d40/ElectronVolt_8hh.html" target="_top" xlink:title="ElectronVolt.hh">
<polygon fill="white" stroke="black" points="1588.5,-185 1588.5,-204 1671.5,-204 1671.5,-185 1588.5,-185"/>
<text text-anchor="middle" x="1630" y="-192" font-family="Helvetica,sans-Serif" font-size="10.00">ElectronVolt.hh</text>
</a>
</g>
</g>
<!-- Node23&#45;&gt;Node35 -->
<g id="edge36" class="edge"><title>Node23&#45;&gt;Node35</title>
<path fill="none" stroke="midnightblue" d="M1630,-246.475C1630,-238.08 1630,-224.981 1630,-214.163"/>
<polygon fill="midnightblue" stroke="midnightblue" points="1633.5,-214.009 1630,-204.009 1626.5,-214.009 1633.5,-214.009"/>
</g>
<!-- Node28 -->
<g id="node28" class="node"><title>Node28</title>
<polygon fill="white" stroke="#bfbfbf" points="1455.5,-118 1455.5,-137 1576.5,-137 1576.5,-118 1455.5,-118"/>
<text text-anchor="middle" x="1516" y="-125" font-family="Helvetica,sans-Serif" font-size="10.00">boost/units/quantity.hpp</text>
</g>
<!-- Node27&#45;&gt;Node28 -->
<g id="edge28" class="edge"><title>Node27&#45;&gt;Node28</title>
<path fill="none" stroke="midnightblue" d="M1465.82,-184.734C1474.95,-174.5 1490.24,-157.364 1501.55,-144.692"/>
<polygon fill="midnightblue" stroke="midnightblue" points="1504.26,-146.919 1508.3,-137.127 1499.03,-142.258 1504.26,-146.919"/>
</g>
<!-- Node29 -->
<g id="node29" class="node"><title>Node29</title>
<polygon fill="white" stroke="#bfbfbf" points="1076.5,-112.5 1076.5,-142.5 1181.5,-142.5 1181.5,-112.5 1076.5,-112.5"/>
<text text-anchor="start" x="1084.5" y="-130.5" font-family="Helvetica,sans-Serif" font-size="10.00">boost/units/systems</text>
<text text-anchor="middle" x="1129" y="-119.5" font-family="Helvetica,sans-Serif" font-size="10.00">/si/plane_angle.hpp</text>
</g>
<!-- Node27&#45;&gt;Node29 -->
<g id="edge29" class="edge"><title>Node27&#45;&gt;Node29</title>
<path fill="none" stroke="midnightblue" d="M1438.18,-190.051C1395.23,-182.512 1290.15,-163.73 1191.56,-143.064"/>
<polygon fill="midnightblue" stroke="midnightblue" points="1192.24,-139.631 1181.73,-140.994 1190.79,-146.481 1192.24,-139.631"/>
</g>
<!-- Node30 -->
<g id="node30" class="node"><title>Node30</title>
<polygon fill="white" stroke="#bfbfbf" points="1199.5,-112.5 1199.5,-142.5 1304.5,-142.5 1304.5,-112.5 1199.5,-112.5"/>
<text text-anchor="start" x="1207.5" y="-130.5" font-family="Helvetica,sans-Serif" font-size="10.00">boost/units/systems</text>
<text text-anchor="middle" x="1252" y="-119.5" font-family="Helvetica,sans-Serif" font-size="10.00">/si/length.hpp</text>
</g>
<!-- Node27&#45;&gt;Node30 -->
<g id="edge30" class="edge"><title>Node27&#45;&gt;Node30</title>
<path fill="none" stroke="midnightblue" d="M1438.25,-187.268C1408.1,-177.755 1349.54,-159.276 1306.09,-145.568"/>
<polygon fill="midnightblue" stroke="midnightblue" points="1307.1,-142.217 1296.51,-142.545 1305,-148.892 1307.1,-142.217"/>
</g>
<!-- Node31&#45;&gt;Node28 -->
<g id="edge34" class="edge"><title>Node31&#45;&gt;Node28</title>
<path fill="none" stroke="midnightblue" d="M1541.09,-184.734C1536.74,-174.988 1529.6,-158.981 1524.04,-146.532"/>
<polygon fill="midnightblue" stroke="midnightblue" points="1527.12,-144.834 1519.85,-137.127 1520.73,-147.686 1527.12,-144.834"/>
</g>
<!-- Node32 -->
<g id="node32" class="node"><title>Node32</title>
<polygon fill="white" stroke="#bfbfbf" points="1741.5,-118 1741.5,-137 1898.5,-137 1898.5,-118 1741.5,-118"/>
<text text-anchor="middle" x="1820" y="-125" font-family="Helvetica,sans-Serif" font-size="10.00">boost/units/base_dimension.hpp</text>
</g>
<!-- Node31&#45;&gt;Node32 -->
<g id="edge32" class="edge"><title>Node31&#45;&gt;Node32</title>
<path fill="none" stroke="midnightblue" d="M1564.02,-184.871C1569.14,-182.756 1574.72,-180.633 1580,-179 1613.79,-168.545 1704.8,-150.391 1764.54,-138.934"/>
<polygon fill="midnightblue" stroke="midnightblue" points="1765.41,-142.331 1774.57,-137.016 1764.09,-135.456 1765.41,-142.331"/>
</g>
<!-- Node33 -->
<g id="node33" class="node"><title>Node33</title>
<polygon fill="white" stroke="#bfbfbf" points="1595,-118 1595,-137 1723,-137 1723,-118 1595,-118"/>
<text text-anchor="middle" x="1659" y="-125" font-family="Helvetica,sans-Serif" font-size="10.00">boost/units/base_unit.hpp</text>
</g>
<!-- Node31&#45;&gt;Node33 -->
<g id="edge33" class="edge"><title>Node31&#45;&gt;Node33</title>
<path fill="none" stroke="midnightblue" d="M1560.37,-184.734C1579.52,-173.818 1612.44,-155.049 1634.94,-142.221"/>
<polygon fill="midnightblue" stroke="midnightblue" points="1636.92,-145.121 1643.87,-137.127 1633.45,-139.04 1636.92,-145.121"/>
</g>
<!-- Node34 -->
<g id="node34" class="node"><title>Node34</title>
<polygon fill="white" stroke="#bfbfbf" points="1322.5,-112.5 1322.5,-142.5 1437.5,-142.5 1437.5,-112.5 1322.5,-112.5"/>
<text text-anchor="start" x="1330.5" y="-130.5" font-family="Helvetica,sans-Serif" font-size="10.00">boost/units/base_units</text>
<text text-anchor="middle" x="1380" y="-119.5" font-family="Helvetica,sans-Serif" font-size="10.00">/metric/barn.hpp</text>
</g>
<!-- Node31&#45;&gt;Node34 -->
<g id="edge35" class="edge"><title>Node31&#45;&gt;Node34</title>
<path fill="none" stroke="midnightblue" d="M1523.09,-184.869C1498.22,-175.073 1456.99,-158.83 1425.16,-146.29"/>
<polygon fill="midnightblue" stroke="midnightblue" points="1426.2,-142.937 1415.61,-142.528 1423.63,-149.45 1426.2,-142.937"/>
</g>
<!-- Node35&#45;&gt;Node28 -->
<g id="edge39" class="edge"><title>Node35&#45;&gt;Node28</title>
<path fill="none" stroke="midnightblue" d="M1614.63,-184.734C1595.48,-173.818 1562.56,-155.049 1540.06,-142.221"/>
<polygon fill="midnightblue" stroke="midnightblue" points="1541.55,-139.04 1531.13,-137.127 1538.08,-145.121 1541.55,-139.04"/>
</g>
<!-- Node35&#45;&gt;Node32 -->
<g id="edge37" class="edge"><title>Node35&#45;&gt;Node32</title>
<path fill="none" stroke="midnightblue" d="M1655.23,-184.869C1688.68,-173.424 1747.86,-153.181 1785.44,-140.322"/>
<polygon fill="midnightblue" stroke="midnightblue" points="1786.64,-143.612 1794.97,-137.064 1784.37,-136.989 1786.64,-143.612"/>
</g>
<!-- Node35&#45;&gt;Node33 -->
<g id="edge38" class="edge"><title>Node35&#45;&gt;Node33</title>
<path fill="none" stroke="midnightblue" d="M1633.91,-184.734C1638.26,-174.988 1645.4,-158.981 1650.96,-146.532"/>
<polygon fill="midnightblue" stroke="midnightblue" points="1654.27,-147.686 1655.15,-137.127 1647.88,-144.834 1654.27,-147.686"/>
</g>
<!-- Node36 -->
<g id="node36" class="node"><title>Node36</title>
<polygon fill="white" stroke="#bfbfbf" points="1916.5,-112.5 1916.5,-142.5 2021.5,-142.5 2021.5,-112.5 1916.5,-112.5"/>
<text text-anchor="start" x="1924.5" y="-130.5" font-family="Helvetica,sans-Serif" font-size="10.00">boost/units/systems</text>
<text text-anchor="middle" x="1969" y="-119.5" font-family="Helvetica,sans-Serif" font-size="10.00">/si/energy.hpp</text>
</g>
<!-- Node35&#45;&gt;Node36 -->
<g id="edge40" class="edge"><title>Node35&#45;&gt;Node36</title>
<path fill="none" stroke="midnightblue" d="M1657.64,-184.99C1665.17,-182.85 1673.36,-180.686 1681,-179 1777.63,-157.681 1806.03,-162.489 1906.53,-143.195"/>
<polygon fill="midnightblue" stroke="midnightblue" points="1907.34,-146.603 1916.48,-141.252 1906,-139.733 1907.34,-146.603"/>
</g>
<!-- Node37&#45;&gt;Node20 -->
<g id="edge42" class="edge"><title>Node37&#45;&gt;Node20</title>
<path fill="none" stroke="midnightblue" d="M1107.38,-302.444C1126.22,-293.675 1155.73,-279.935 1177.38,-269.858"/>
<polygon fill="midnightblue" stroke="midnightblue" points="1179.12,-272.91 1186.71,-265.516 1176.16,-266.564 1179.12,-272.91"/>
</g>
<!-- Node38 -->
<g id="node38" class="node"><title>Node38</title>
<g id="a_node38"><a xlink:href="../../d8/d85/Identification_8hh.html" target="_top" xlink:title="Identification.hh">
<polygon fill="white" stroke="black" points="720,-246.5 720,-265.5 806,-265.5 806,-246.5 720,-246.5"/>
<text text-anchor="middle" x="763" y="-253.5" font-family="Helvetica,sans-Serif" font-size="10.00">Identification.hh</text>
</a>
</g>
</g>
<!-- Node37&#45;&gt;Node38 -->
<g id="edge43" class="edge"><title>Node37&#45;&gt;Node38</title>
<path fill="none" stroke="midnightblue" d="M1058.92,-306.017C1003.67,-296.865 885.38,-277.272 816.258,-265.822"/>
<polygon fill="midnightblue" stroke="midnightblue" points="816.455,-262.307 806.017,-264.126 815.311,-269.213 816.455,-262.307"/>
</g>
<!-- Node40 -->
<g id="node40" class="node"><title>Node40</title>
<g id="a_node40"><a xlink:href="../../d3/d32/Constituent_8hh.html" target="_top" xlink:title="Constituent.hh">
<polygon fill="white" stroke="black" points="865,-246.5 865,-265.5 945,-265.5 945,-246.5 865,-246.5"/>
<text text-anchor="middle" x="905" y="-253.5" font-family="Helvetica,sans-Serif" font-size="10.00">Constituent.hh</text>
</a>
</g>
</g>
<!-- Node37&#45;&gt;Node40 -->
<g id="edge45" class="edge"><title>Node37&#45;&gt;Node40</title>
<path fill="none" stroke="midnightblue" d="M1059.84,-302.444C1028.49,-293.241 978.469,-278.562 943.803,-268.388"/>
<polygon fill="midnightblue" stroke="midnightblue" points="944.6,-264.974 934.019,-265.516 942.629,-271.691 944.6,-264.974"/>
</g>
<!-- Node46 -->
<g id="node46" class="node"><title>Node46</title>
<g id="a_node46"><a xlink:href="../../d7/d7f/Math_8hh.html" target="_top" xlink:title="physics/Math.hh">
<polygon fill="white" stroke="black" points="1044.5,-246.5 1044.5,-265.5 1133.5,-265.5 1133.5,-246.5 1044.5,-246.5"/>
<text text-anchor="middle" x="1089" y="-253.5" font-family="Helvetica,sans-Serif" font-size="10.00">physics/Math.hh</text>
</a>
</g>
</g>
<!-- Node37&#45;&gt;Node46 -->
<g id="edge52" class="edge"><title>Node37&#45;&gt;Node46</title>
<path fill="none" stroke="midnightblue" d="M1089,-302.083C1089,-295.006 1089,-284.861 1089,-275.986"/>
<polygon fill="midnightblue" stroke="midnightblue" points="1092.5,-275.751 1089,-265.751 1085.5,-275.751 1092.5,-275.751"/>
</g>
<!-- Node39 -->
<g id="node39" class="node"><title>Node39</title>
<polygon fill="white" stroke="#bfbfbf" points="721.5,-185 721.5,-204 762.5,-204 762.5,-185 721.5,-185"/>
<text text-anchor="middle" x="742" y="-192" font-family="Helvetica,sans-Serif" font-size="10.00">string</text>
</g>
<!-- Node38&#45;&gt;Node39 -->
<g id="edge44" class="edge"><title>Node38&#45;&gt;Node39</title>
<path fill="none" stroke="midnightblue" d="M759.991,-246.475C756.966,-237.904 752.21,-224.427 748.347,-213.483"/>
<polygon fill="midnightblue" stroke="midnightblue" points="751.632,-212.274 745.003,-204.009 745.031,-214.604 751.632,-212.274"/>
</g>
<!-- Node41 -->
<g id="node41" class="node"><title>Node41</title>
<g id="a_node41"><a xlink:href="../../d6/dc8/LorentzVector_8hh.html" target="_top" xlink:title="physics/LorentzVector.hh">
<polygon fill="white" stroke="black" points="781,-185 781,-204 909,-204 909,-185 781,-185"/>
<text text-anchor="middle" x="845" y="-192" font-family="Helvetica,sans-Serif" font-size="10.00">physics/LorentzVector.hh</text>
</a>
</g>
</g>
<!-- Node40&#45;&gt;Node41 -->
<g id="edge46" class="edge"><title>Node40&#45;&gt;Node41</title>
<path fill="none" stroke="midnightblue" d="M896.403,-246.475C887.136,-237.285 872.183,-222.456 860.788,-211.156"/>
<polygon fill="midnightblue" stroke="midnightblue" points="863.146,-208.565 853.581,-204.009 858.217,-213.536 863.146,-208.565"/>
</g>
<!-- Node42 -->
<g id="node42" class="node"><title>Node42</title>
<g id="a_node42"><a xlink:href="../../d7/d06/DelphesForward_8hh.html" target="_top" xlink:title="delphes/DelphesForward.hh">
<polygon fill="white" stroke="black" points="920,-118 920,-137 1058,-137 1058,-118 920,-118"/>
<text text-anchor="middle" x="989" y="-125" font-family="Helvetica,sans-Serif" font-size="10.00">delphes/DelphesForward.hh</text>
</a>
</g>
</g>
<!-- Node41&#45;&gt;Node42 -->
<g id="edge47" class="edge"><title>Node41&#45;&gt;Node42</title>
<path fill="none" stroke="midnightblue" d="M864.122,-184.869C888.759,-173.748 931.806,-154.317 960.358,-141.429"/>
<polygon fill="midnightblue" stroke="midnightblue" points="962.124,-144.471 969.799,-137.167 959.244,-138.091 962.124,-144.471"/>
</g>
<!-- Node43 -->
<g id="node43" class="node"><title>Node43</title>
<g id="a_node43"><a xlink:href="../../d6/d1c/ExRootAnalysisForward_8hh.html" target="_top" xlink:title="exroot/ExRootAnalysisForward.hh">
<polygon fill="white" stroke="black" points="604,-118 604,-137 770,-137 770,-118 604,-118"/>
<text text-anchor="middle" x="687" y="-125" font-family="Helvetica,sans-Serif" font-size="10.00">exroot/ExRootAnalysisForward.hh</text>
</a>
</g>
</g>
<!-- Node41&#45;&gt;Node43 -->
<g id="edge48" class="edge"><title>Node41&#45;&gt;Node43</title>
<path fill="none" stroke="midnightblue" d="M824.019,-184.869C796.75,-173.65 748.928,-153.977 717.609,-141.092"/>
<polygon fill="midnightblue" stroke="midnightblue" points="718.648,-137.735 708.068,-137.167 715.984,-144.209 718.648,-137.735"/>
</g>
<!-- Node44 -->
<g id="node44" class="node"><title>Node44</title>
<g id="a_node44"><a xlink:href="../../df/d17/LorentzVectorBase_8hh.html" target="_top" xlink:title="LorentzVectorBase.hh">
<polygon fill="white" stroke="black" points="788.5,-118 788.5,-137 901.5,-137 901.5,-118 788.5,-118"/>
<text text-anchor="middle" x="845" y="-125" font-family="Helvetica,sans-Serif" font-size="10.00">LorentzVectorBase.hh</text>
</a>
</g>
</g>
<!-- Node41&#45;&gt;Node44 -->
<g id="edge49" class="edge"><title>Node41&#45;&gt;Node44</title>
<path fill="none" stroke="midnightblue" d="M845,-184.734C845,-175.183 845,-159.618 845,-147.283"/>
<polygon fill="midnightblue" stroke="midnightblue" points="848.5,-147.127 845,-137.127 841.5,-147.127 848.5,-147.127"/>
</g>
<!-- Node45 -->
<g id="node45" class="node"><title>Node45</title>
<g id="a_node45"><a xlink:href="../../d1/df9/Vector3_8hh.html" target="_top" xlink:title="Vector3.hh">
<polygon fill="white" stroke="red" points="813,-56.5 813,-75.5 877,-75.5 877,-56.5 813,-56.5"/>
<text text-anchor="middle" x="845" y="-63.5" font-family="Helvetica,sans-Serif" font-size="10.00">Vector3.hh</text>
</a>
</g>
</g>
<!-- Node44&#45;&gt;Node45 -->
<g id="edge50" class="edge"><title>Node44&#45;&gt;Node45</title>
<path fill="none" stroke="midnightblue" d="M845,-117.975C845,-109.58 845,-96.4806 845,-85.6631"/>
<polygon fill="midnightblue" stroke="midnightblue" points="848.5,-85.5091 845,-75.5091 841.5,-85.5091 848.5,-85.5091"/>
</g>
<!-- Node45&#45;&gt;Node5 -->
<g id="edge51" class="edge"><title>Node45&#45;&gt;Node5</title>
<path fill="none" stroke="midnightblue" d="M845.165,-56.083C845.296,-49.0059 845.484,-38.8611 845.648,-29.9865"/>
<polygon fill="midnightblue" stroke="midnightblue" points="849.152,-29.8142 845.838,-19.7511 842.153,-29.6845 849.152,-29.8142"/>
</g>
<!-- Node47 -->
<g id="node47" class="node"><title>Node47</title>
<polygon fill="white" stroke="#bfbfbf" points="1311,-185 1311,-204 1367,-204 1367,-185 1311,-185"/>
<text text-anchor="middle" x="1339" y="-192" font-family="Helvetica,sans-Serif" font-size="10.00">algorithm</text>
</g>
<!-- Node46&#45;&gt;Node47 -->
<g id="edge53" class="edge"><title>Node46&#45;&gt;Node47</title>
<path fill="none" stroke="midnightblue" d="M1133.61,-246.476C1186.41,-236.232 1271.04,-219.267 1302,-210 1304.43,-209.273 1306.92,-208.456 1309.41,-207.589"/>
<polygon fill="midnightblue" stroke="midnightblue" points="1310.69,-210.847 1318.86,-204.09 1308.26,-204.283 1310.69,-210.847"/>
</g>
<!-- Node48 -->
<g id="node48" class="node"><title>Node48</title>
<polygon fill="white" stroke="#bfbfbf" points="927,-179.5 927,-209.5 1037,-209.5 1037,-179.5 927,-179.5"/>
<text text-anchor="start" x="935" y="-197.5" font-family="Helvetica,sans-Serif" font-size="10.00">boost/range/algorithm</text>
<text text-anchor="middle" x="982" y="-186.5" font-family="Helvetica,sans-Serif" font-size="10.00">/lower_bound.hpp</text>
</g>
<!-- Node46&#45;&gt;Node48 -->
<g id="edge54" class="edge"><title>Node46&#45;&gt;Node48</title>
<path fill="none" stroke="midnightblue" d="M1073.67,-246.475C1058.7,-238.153 1035.42,-225.207 1016.07,-214.445"/>
<polygon fill="midnightblue" stroke="midnightblue" points="1017.66,-211.324 1007.22,-209.523 1014.26,-217.442 1017.66,-211.324"/>
</g>
<!-- Node49 -->
<g id="node49" class="node"><title>Node49</title>
<polygon fill="white" stroke="#bfbfbf" points="1055,-179.5 1055,-209.5 1165,-209.5 1165,-179.5 1055,-179.5"/>
<text text-anchor="start" x="1063" y="-197.5" font-family="Helvetica,sans-Serif" font-size="10.00">boost/range/algorithm</text>
<text text-anchor="middle" x="1110" y="-186.5" font-family="Helvetica,sans-Serif" font-size="10.00">/min_element.hpp</text>
</g>
<!-- Node46&#45;&gt;Node49 -->
<g id="edge55" class="edge"><title>Node46&#45;&gt;Node49</title>
<path fill="none" stroke="midnightblue" d="M1092.01,-246.475C1094.53,-239.32 1098.27,-228.748 1101.68,-219.084"/>
<polygon fill="midnightblue" stroke="midnightblue" points="1105.02,-220.118 1105.05,-209.523 1098.42,-217.788 1105.02,-220.118"/>
</g>
<!-- Node50 -->
<g id="node50" class="node"><title>Node50</title>
<polygon fill="white" stroke="#bfbfbf" points="1183,-179.5 1183,-209.5 1293,-209.5 1293,-179.5 1183,-179.5"/>
<text text-anchor="start" x="1191" y="-197.5" font-family="Helvetica,sans-Serif" font-size="10.00">boost/range/algorithm</text>
<text text-anchor="middle" x="1238" y="-186.5" font-family="Helvetica,sans-Serif" font-size="10.00">/max_element.hpp</text>
</g>
<!-- Node46&#45;&gt;Node50 -->
<g id="edge56" class="edge"><title>Node46&#45;&gt;Node50</title>
<path fill="none" stroke="midnightblue" d="M1110.35,-246.475C1131.94,-237.852 1165.97,-224.264 1193.46,-213.285"/>
<polygon fill="midnightblue" stroke="midnightblue" points="1194.89,-216.482 1202.88,-209.523 1192.3,-209.981 1194.89,-216.482"/>
</g>
</g>
</svg>
