<?xml version="1.0" encoding="UTF-8" standalone="no"?>
<!DOCTYPE svg PUBLIC "-//W3C//DTD SVG 1.1//EN"
 "http://www.w3.org/Graphics/SVG/1.1/DTD/svg11.dtd">
<!-- Generated by graphviz version 2.38.0 (20140413.2041)
 -->
<!-- Title: examples/higgscpv/include/tagger/EventT.hh Pages: 1 -->
<svg width="2247pt" height="598pt"
 viewBox="0.00 0.00 2246.50 598.00" xmlns="http://www.w3.org/2000/svg" xmlns:xlink="http://www.w3.org/1999/xlink">
<g id="graph0" class="graph" transform="scale(1 1) rotate(0) translate(4 594)">
<title>examples/higgscpv/include/tagger/EventT.hh</title>
<polygon fill="white" stroke="none" points="-4,4 -4,-594 2242.5,-594 2242.5,4 -4,4"/>
<!-- Node1 -->
<g id="node1" class="node"><title>Node1</title>
<polygon fill="#bfbfbf" stroke="black" points="510,-559.5 510,-589.5 644,-589.5 644,-559.5 510,-559.5"/>
<text text-anchor="start" x="518" y="-577.5" font-family="Helvetica,sans-Serif" font-size="10.00">examples/higgscpv/include</text>
<text text-anchor="middle" x="577" y="-566.5" font-family="Helvetica,sans-Serif" font-size="10.00">/tagger/EventT.hh</text>
</g>
<!-- Node2 -->
<g id="node2" class="node"><title>Node2</title>
<g id="a_node2"><a xlink:href="../../df/d93/EventMultiplet_8hh.html" target="_top" xlink:title="boca/multiplets/EventMultiplet.hh">
<polygon fill="white" stroke="black" points="160.5,-252 160.5,-271 321.5,-271 321.5,-252 160.5,-252"/>
<text text-anchor="middle" x="241" y="-259" font-family="Helvetica,sans-Serif" font-size="10.00">boca/multiplets/EventMultiplet.hh</text>
</a>
</g>
</g>
<!-- Node1&#45;&gt;Node2 -->
<g id="edge1" class="edge"><title>Node1&#45;&gt;Node2</title>
<path fill="none" stroke="midnightblue" d="M509.813,-564.324C411.76,-549.019 241,-514.286 241,-458 241,-458 241,-458 241,-394.5 241,-354.158 241,-306.88 241,-281.282"/>
<polygon fill="midnightblue" stroke="midnightblue" points="244.5,-281.149 241,-271.149 237.5,-281.149 244.5,-281.149"/>
</g>
<!-- Node29 -->
<g id="node29" class="node"><title>Node29</title>
<g id="a_node29"><a xlink:href="../../d1/daa/tagger_2SignatureT_8hh.html" target="_top" xlink:title="include/tagger/SignatureT.hh">
<polygon fill="white" stroke="black" points="506.5,-503.5 506.5,-522.5 647.5,-522.5 647.5,-503.5 506.5,-503.5"/>
<text text-anchor="middle" x="577" y="-510.5" font-family="Helvetica,sans-Serif" font-size="10.00">include/tagger/SignatureT.hh</text>
</a>
</g>
</g>
<!-- Node1&#45;&gt;Node29 -->
<g id="edge33" class="edge"><title>Node1&#45;&gt;Node29</title>
<path fill="none" stroke="midnightblue" d="M577,-559.399C577,-551.466 577,-541.458 577,-532.858"/>
<polygon fill="midnightblue" stroke="midnightblue" points="580.5,-532.658 577,-522.658 573.5,-532.658 580.5,-532.658"/>
</g>
<!-- Node50 -->
<g id="node50" class="node"><title>Node50</title>
<polygon fill="white" stroke="#bfbfbf" points="666,-503.5 666,-522.5 788,-522.5 788,-503.5 666,-503.5"/>
<text text-anchor="middle" x="727" y="-510.5" font-family="Helvetica,sans-Serif" font-size="10.00">include/branch/Event.hh</text>
</g>
<!-- Node1&#45;&gt;Node50 -->
<g id="edge73" class="edge"><title>Node1&#45;&gt;Node50</title>
<path fill="none" stroke="midnightblue" d="M612.548,-559.399C637.828,-549.372 671.467,-536.028 695.727,-526.405"/>
<polygon fill="midnightblue" stroke="midnightblue" points="697.169,-529.598 705.174,-522.658 694.588,-523.092 697.169,-529.598"/>
</g>
<!-- Node3 -->
<g id="node3" class="node"><title>Node3</title>
<g id="a_node3"><a xlink:href="../../dd/d58/GlobalObservables_8hh.html" target="_top" xlink:title="boca/multiplets/GlobalObservables.hh">
<polygon fill="white" stroke="black" points="67,-190.5 67,-209.5 249,-209.5 249,-190.5 67,-190.5"/>
<text text-anchor="middle" x="158" y="-197.5" font-family="Helvetica,sans-Serif" font-size="10.00">boca/multiplets/GlobalObservables.hh</text>
</a>
</g>
</g>
<!-- Node2&#45;&gt;Node3 -->
<g id="edge2" class="edge"><title>Node2&#45;&gt;Node3</title>
<path fill="none" stroke="midnightblue" d="M229.108,-251.975C215.795,-242.431 194,-226.807 178.043,-215.368"/>
<polygon fill="midnightblue" stroke="midnightblue" points="180.036,-212.491 169.87,-209.509 175.958,-218.18 180.036,-212.491"/>
</g>
<!-- Node8 -->
<g id="node8" class="node"><title>Node8</title>
<g id="a_node8"><a xlink:href="../../d2/d91/multiplets_2TwoBody_8hh.html" target="_top" xlink:title="boca/multiplets/TwoBody.hh">
<polygon fill="white" stroke="black" points="783,-190.5 783,-209.5 923,-209.5 923,-190.5 783,-190.5"/>
<text text-anchor="middle" x="853" y="-197.5" font-family="Helvetica,sans-Serif" font-size="10.00">boca/multiplets/TwoBody.hh</text>
</a>
</g>
</g>
<!-- Node2&#45;&gt;Node8 -->
<g id="edge7" class="edge"><title>Node2&#45;&gt;Node8</title>
<path fill="none" stroke="midnightblue" d="M321.638,-252.66C438.962,-241.254 655.467,-220.205 772.636,-208.813"/>
<polygon fill="midnightblue" stroke="midnightblue" points="773.009,-212.294 782.623,-207.842 772.331,-205.326 773.009,-212.294"/>
</g>
<!-- Node4 -->
<g id="node4" class="node"><title>Node4</title>
<g id="a_node4"><a xlink:href="../../db/d60/Singlet_8hh.html" target="_top" xlink:title="boca/multiplets/Singlet.hh">
<polygon fill="white" stroke="black" points="51.5,-62 51.5,-81 180.5,-81 180.5,-62 51.5,-62"/>
<text text-anchor="middle" x="116" y="-69" font-family="Helvetica,sans-Serif" font-size="10.00">boca/multiplets/Singlet.hh</text>
</a>
</g>
</g>
<!-- Node3&#45;&gt;Node4 -->
<g id="edge3" class="edge"><title>Node3&#45;&gt;Node4</title>
<path fill="none" stroke="midnightblue" d="M155.113,-190.305C148.34,-169.904 131.306,-118.6 122.112,-90.9078"/>
<polygon fill="midnightblue" stroke="midnightblue" points="125.38,-89.6434 118.907,-81.2557 118.736,-91.8492 125.38,-89.6434"/>
</g>
<!-- Node5 -->
<g id="node5" class="node"><title>Node5</title>
<g id="a_node5"><a xlink:href="../../d6/dcf/Mutable_8hh.html" target="_top" xlink:title="boca/generic/Mutable.hh">
<polygon fill="white" stroke="red" points="120.5,-0.5 120.5,-19.5 243.5,-19.5 243.5,-0.5 120.5,-0.5"/>
<text text-anchor="middle" x="182" y="-7.5" font-family="Helvetica,sans-Serif" font-size="10.00">boca/generic/Mutable.hh</text>
</a>
</g>
</g>
<!-- Node4&#45;&gt;Node5 -->
<g id="edge4" class="edge"><title>Node4&#45;&gt;Node5</title>
<path fill="none" stroke="midnightblue" d="M125.456,-61.9751C135.748,-52.6966 152.416,-37.6706 164.994,-26.331"/>
<polygon fill="midnightblue" stroke="midnightblue" points="167.478,-28.8046 172.561,-19.5091 162.79,-23.6054 167.478,-28.8046"/>
</g>
<!-- Node6 -->
<g id="node6" class="node"><title>Node6</title>
<g id="a_node6"><a xlink:href="../../dc/d4e/Line2_8hh.html" target="_top" xlink:title="boca/math/Line2.hh">
<polygon fill="white" stroke="red" points="0,-0.5 0,-19.5 102,-19.5 102,-0.5 0,-0.5"/>
<text text-anchor="middle" x="51" y="-7.5" font-family="Helvetica,sans-Serif" font-size="10.00">boca/math/Line2.hh</text>
</a>
</g>
</g>
<!-- Node4&#45;&gt;Node6 -->
<g id="edge5" class="edge"><title>Node4&#45;&gt;Node6</title>
<path fill="none" stroke="midnightblue" d="M106.687,-61.9751C96.5509,-52.6966 80.136,-37.6706 67.7482,-26.331"/>
<polygon fill="midnightblue" stroke="midnightblue" points="70.0352,-23.6795 60.2956,-19.5091 65.3087,-28.8429 70.0352,-23.6795"/>
</g>
<!-- Node7 -->
<g id="node7" class="node"><title>Node7</title>
<g id="a_node7"><a xlink:href="../../dd/df7/Jet_8hh.html" target="_top" xlink:title="boca/multiplets/Jet.hh">
<polygon fill="white" stroke="red" points="354.5,-0.5 354.5,-19.5 467.5,-19.5 467.5,-0.5 354.5,-0.5"/>
<text text-anchor="middle" x="411" y="-7.5" font-family="Helvetica,sans-Serif" font-size="10.00">boca/multiplets/Jet.hh</text>
</a>
</g>
</g>
<!-- Node4&#45;&gt;Node7 -->
<g id="edge6" class="edge"><title>Node4&#45;&gt;Node7</title>
<path fill="none" stroke="midnightblue" d="M158.266,-61.9751C211.169,-51.3048 301.758,-33.0335 358.897,-21.5089"/>
<polygon fill="midnightblue" stroke="midnightblue" points="359.702,-24.9172 368.812,-19.5091 358.317,-18.0554 359.702,-24.9172"/>
</g>
<!-- Node9 -->
<g id="node9" class="node"><title>Node9</title>
<polygon fill="white" stroke="#bfbfbf" points="499,-123.5 499,-153.5 609,-153.5 609,-123.5 499,-123.5"/>
<text text-anchor="start" x="507" y="-141.5" font-family="Helvetica,sans-Serif" font-size="10.00">boost/range/algorithm</text>
<text text-anchor="middle" x="554" y="-130.5" font-family="Helvetica,sans-Serif" font-size="10.00">/unique.hpp</text>
</g>
<!-- Node8&#45;&gt;Node9 -->
<g id="edge8" class="edge"><title>Node8&#45;&gt;Node9</title>
<path fill="none" stroke="midnightblue" d="M806.091,-190.497C760.725,-182.166 689.788,-168.858 619.102,-154.192"/>
<polygon fill="midnightblue" stroke="midnightblue" points="619.636,-150.729 609.132,-152.114 618.208,-157.581 619.636,-150.729"/>
</g>
<!-- Node10 -->
<g id="node10" class="node"><title>Node10</title>
<g id="a_node10"><a xlink:href="../../d3/d7e/Vector_8hh.html" target="_top" xlink:title="boca/generic/Vector.hh">
<polygon fill="white" stroke="black" points="1136.5,-129 1136.5,-148 1253.5,-148 1253.5,-129 1136.5,-129"/>
<text text-anchor="middle" x="1195" y="-136" font-family="Helvetica,sans-Serif" font-size="10.00">boca/generic/Vector.hh</text>
</a>
</g>
</g>
<!-- Node8&#45;&gt;Node10 -->
<g id="edge9" class="edge"><title>Node8&#45;&gt;Node10</title>
<path fill="none" stroke="midnightblue" d="M902,-190.475C963.84,-179.716 1070.1,-161.23 1136.23,-149.724"/>
<polygon fill="midnightblue" stroke="midnightblue" points="1136.84,-153.171 1146.09,-148.009 1135.64,-146.275 1136.84,-153.171"/>
</g>
<!-- Node19 -->
<g id="node19" class="node"><title>Node19</title>
<g id="a_node19"><a xlink:href="../../da/d4d/ClusterSequence_8hh.html" target="_top" xlink:title="boca/fastjet/ClusterSequence.hh">
<polygon fill="white" stroke="black" points="1271.5,-129 1271.5,-148 1430.5,-148 1430.5,-129 1271.5,-129"/>
<text text-anchor="middle" x="1351" y="-136" font-family="Helvetica,sans-Serif" font-size="10.00">boca/fastjet/ClusterSequence.hh</text>
</a>
</g>
</g>
<!-- Node8&#45;&gt;Node19 -->
<g id="edge18" class="edge"><title>Node8&#45;&gt;Node19</title>
<path fill="none" stroke="midnightblue" d="M923.149,-192.463C1004.9,-184.577 1143.99,-170.323 1263,-154 1272.45,-152.704 1282.45,-151.192 1292.18,-149.643"/>
<polygon fill="midnightblue" stroke="midnightblue" points="1292.88,-153.075 1302.2,-148.023 1291.77,-146.165 1292.88,-153.075"/>
</g>
<!-- Node20 -->
<g id="node20" class="node"><title>Node20</title>
<g id="a_node20"><a xlink:href="../../d0/d7f/Multiplet_8hh.html" target="_top" xlink:title="boca/multiplets/Multiplet.hh">
<polygon fill="white" stroke="black" points="627,-129 627,-148 763,-148 763,-129 627,-129"/>
<text text-anchor="middle" x="695" y="-136" font-family="Helvetica,sans-Serif" font-size="10.00">boca/multiplets/Multiplet.hh</text>
</a>
</g>
</g>
<!-- Node8&#45;&gt;Node20 -->
<g id="edge20" class="edge"><title>Node8&#45;&gt;Node20</title>
<path fill="none" stroke="midnightblue" d="M830.362,-190.475C803.26,-180.269 757.69,-163.108 726.996,-151.549"/>
<polygon fill="midnightblue" stroke="midnightblue" points="728.187,-148.258 717.596,-148.009 725.72,-154.809 728.187,-148.258"/>
</g>
<!-- Node25 -->
<g id="node25" class="node"><title>Node25</title>
<g id="a_node25"><a xlink:href="../../db/d31/Sort_8hh.html" target="_top" xlink:title="boca/multiplets/Sort.hh">
<polygon fill="white" stroke="black" points="1761.5,-129 1761.5,-148 1878.5,-148 1878.5,-129 1761.5,-129"/>
<text text-anchor="middle" x="1820" y="-136" font-family="Helvetica,sans-Serif" font-size="10.00">boca/multiplets/Sort.hh</text>
</a>
</g>
</g>
<!-- Node8&#45;&gt;Node25 -->
<g id="edge29" class="edge"><title>Node8&#45;&gt;Node25</title>
<path fill="none" stroke="midnightblue" d="M923.323,-194.673C1102.39,-183.655 1573.89,-154.643 1751.24,-143.731"/>
<polygon fill="midnightblue" stroke="midnightblue" points="1751.46,-147.224 1761.23,-143.116 1751.03,-140.237 1751.46,-147.224"/>
</g>
<!-- Node11 -->
<g id="node11" class="node"><title>Node11</title>
<polygon fill="white" stroke="#bfbfbf" points="1714,-56.5 1714,-86.5 1824,-86.5 1824,-56.5 1714,-56.5"/>
<text text-anchor="start" x="1722" y="-74.5" font-family="Helvetica,sans-Serif" font-size="10.00">boost/range/algorithm</text>
<text text-anchor="middle" x="1769" y="-63.5" font-family="Helvetica,sans-Serif" font-size="10.00">_ext/erase.hpp</text>
</g>
<!-- Node10&#45;&gt;Node11 -->
<g id="edge10" class="edge"><title>Node10&#45;&gt;Node11</title>
<path fill="none" stroke="midnightblue" d="M1230.84,-128.954C1241.17,-126.737 1252.49,-124.542 1263,-123 1454.77,-94.8639 1508.41,-116.118 1703.91,-87.0129"/>
<polygon fill="midnightblue" stroke="midnightblue" points="1704.57,-90.4529 1713.94,-85.4953 1703.53,-83.5317 1704.57,-90.4529"/>
</g>
<!-- Node12 -->
<g id="node12" class="node"><title>Node12</title>
<polygon fill="white" stroke="#bfbfbf" points="820,-56.5 820,-86.5 930,-86.5 930,-56.5 820,-56.5"/>
<text text-anchor="start" x="828" y="-74.5" font-family="Helvetica,sans-Serif" font-size="10.00">boost/range/algorithm</text>
<text text-anchor="middle" x="875" y="-63.5" font-family="Helvetica,sans-Serif" font-size="10.00">/find.hpp</text>
</g>
<!-- Node10&#45;&gt;Node12 -->
<g id="edge11" class="edge"><title>Node10&#45;&gt;Node12</title>
<path fill="none" stroke="midnightblue" d="M1149.6,-128.943C1100.47,-119.593 1019.55,-103.937 940.294,-87.2424"/>
<polygon fill="midnightblue" stroke="midnightblue" points="940.644,-83.7392 930.136,-85.0949 939.196,-90.5878 940.644,-83.7392"/>
</g>
<!-- Node13 -->
<g id="node13" class="node"><title>Node13</title>
<polygon fill="white" stroke="#bfbfbf" points="948,-56.5 948,-86.5 1058,-86.5 1058,-56.5 948,-56.5"/>
<text text-anchor="start" x="956" y="-74.5" font-family="Helvetica,sans-Serif" font-size="10.00">boost/range/algorithm</text>
<text text-anchor="middle" x="1003" y="-63.5" font-family="Helvetica,sans-Serif" font-size="10.00">/min_element.hpp</text>
</g>
<!-- Node10&#45;&gt;Node13 -->
<g id="edge12" class="edge"><title>Node10&#45;&gt;Node13</title>
<path fill="none" stroke="midnightblue" d="M1169.5,-128.869C1140.19,-118.946 1091.35,-102.408 1054.12,-89.8051"/>
<polygon fill="midnightblue" stroke="midnightblue" points="1055.03,-86.4196 1044.44,-86.5281 1052.79,-93.05 1055.03,-86.4196"/>
</g>
<!-- Node14 -->
<g id="node14" class="node"><title>Node14</title>
<polygon fill="white" stroke="#bfbfbf" points="1076,-56.5 1076,-86.5 1186,-86.5 1186,-56.5 1076,-56.5"/>
<text text-anchor="start" x="1084" y="-74.5" font-family="Helvetica,sans-Serif" font-size="10.00">boost/range/algorithm</text>
<text text-anchor="middle" x="1131" y="-63.5" font-family="Helvetica,sans-Serif" font-size="10.00">/copy.hpp</text>
</g>
<!-- Node10&#45;&gt;Node14 -->
<g id="edge13" class="edge"><title>Node10&#45;&gt;Node14</title>
<path fill="none" stroke="midnightblue" d="M1186.37,-128.734C1177.64,-119.865 1163.8,-105.811 1152.14,-93.9722"/>
<polygon fill="midnightblue" stroke="midnightblue" points="1154.38,-91.2591 1144.87,-86.589 1149.39,-96.1703 1154.38,-91.2591"/>
</g>
<!-- Node15 -->
<g id="node15" class="node"><title>Node15</title>
<polygon fill="white" stroke="#bfbfbf" points="1204,-56.5 1204,-86.5 1314,-86.5 1314,-56.5 1204,-56.5"/>
<text text-anchor="start" x="1212" y="-74.5" font-family="Helvetica,sans-Serif" font-size="10.00">boost/range/algorithm</text>
<text text-anchor="middle" x="1259" y="-63.5" font-family="Helvetica,sans-Serif" font-size="10.00">_ext/push_back.hpp</text>
</g>
<!-- Node10&#45;&gt;Node15 -->
<g id="edge14" class="edge"><title>Node10&#45;&gt;Node15</title>
<path fill="none" stroke="midnightblue" d="M1203.63,-128.734C1212.36,-119.865 1226.2,-105.811 1237.86,-93.9722"/>
<polygon fill="midnightblue" stroke="midnightblue" points="1240.61,-96.1703 1245.13,-86.589 1235.62,-91.2591 1240.61,-96.1703"/>
</g>
<!-- Node16 -->
<g id="node16" class="node"><title>Node16</title>
<polygon fill="white" stroke="#bfbfbf" points="1332,-56.5 1332,-86.5 1442,-86.5 1442,-56.5 1332,-56.5"/>
<text text-anchor="start" x="1340" y="-74.5" font-family="Helvetica,sans-Serif" font-size="10.00">boost/range/algorithm</text>
<text text-anchor="middle" x="1387" y="-63.5" font-family="Helvetica,sans-Serif" font-size="10.00">/transform.hpp</text>
</g>
<!-- Node10&#45;&gt;Node16 -->
<g id="edge15" class="edge"><title>Node10&#45;&gt;Node16</title>
<path fill="none" stroke="midnightblue" d="M1220.5,-128.869C1249.81,-118.946 1298.65,-102.408 1335.88,-89.8051"/>
<polygon fill="midnightblue" stroke="midnightblue" points="1337.21,-93.05 1345.56,-86.5281 1334.97,-86.4196 1337.21,-93.05"/>
</g>
<!-- Node17 -->
<g id="node17" class="node"><title>Node17</title>
<polygon fill="white" stroke="#bfbfbf" points="1460.5,-62 1460.5,-81 1587.5,-81 1587.5,-62 1460.5,-62"/>
<text text-anchor="middle" x="1524" y="-69" font-family="Helvetica,sans-Serif" font-size="10.00">boost/range/adaptors.hpp</text>
</g>
<!-- Node10&#45;&gt;Node17 -->
<g id="edge16" class="edge"><title>Node10&#45;&gt;Node17</title>
<path fill="none" stroke="midnightblue" d="M1234.52,-128.926C1243.85,-126.943 1253.77,-124.867 1263,-123 1346.38,-106.128 1367.5,-103.287 1451,-87 1457.56,-85.7202 1464.45,-84.3655 1471.27,-83.0185"/>
<polygon fill="midnightblue" stroke="midnightblue" points="1472.03,-86.4355 1481.16,-81.0599 1470.67,-79.5688 1472.03,-86.4355"/>
</g>
<!-- Node18 -->
<g id="node18" class="node"><title>Node18</title>
<g id="a_node18"><a xlink:href="../../d2/ddc/Settings_8hh.html" target="_top" xlink:title="boca/Settings.hh">
<polygon fill="white" stroke="red" points="1606,-62 1606,-81 1696,-81 1696,-62 1606,-62"/>
<text text-anchor="middle" x="1651" y="-69" font-family="Helvetica,sans-Serif" font-size="10.00">boca/Settings.hh</text>
</a>
</g>
</g>
<!-- Node10&#45;&gt;Node18 -->
<g id="edge17" class="edge"><title>Node10&#45;&gt;Node18</title>
<path fill="none" stroke="midnightblue" d="M1231.57,-128.98C1241.71,-126.816 1252.75,-124.641 1263,-123 1410.43,-99.4004 1450.24,-114.442 1597,-87 1602.12,-86.0432 1607.46,-84.8511 1612.71,-83.5641"/>
<polygon fill="midnightblue" stroke="midnightblue" points="1613.8,-86.898 1622.6,-81.0093 1612.05,-80.1203 1613.8,-86.898"/>
</g>
<!-- Node19&#45;&gt;Node7 -->
<g id="edge19" class="edge"><title>Node19&#45;&gt;Node7</title>
<path fill="none" stroke="midnightblue" d="M1398.86,-128.969C1411.86,-126.829 1425.95,-124.67 1439,-123 1482.6,-117.423 1803.36,-119.468 1833,-87 1842.29,-76.8241 1842.59,-65.8952 1833,-56 1809.15,-31.3842 757.111,-15.6185 478.248,-11.8669"/>
<polygon fill="midnightblue" stroke="midnightblue" points="477.924,-8.36238 467.878,-11.7282 477.83,-15.3618 477.924,-8.36238"/>
</g>
<!-- Node20&#45;&gt;Node4 -->
<g id="edge21" class="edge"><title>Node20&#45;&gt;Node4</title>
<path fill="none" stroke="midnightblue" d="M653.967,-128.967C642.376,-126.777 629.727,-124.592 618,-123 428.402,-97.262 378.467,-113.681 189,-87 181.173,-85.8978 172.919,-84.4945 164.888,-82.9968"/>
<polygon fill="midnightblue" stroke="midnightblue" points="165.366,-79.5246 154.884,-81.0648 164.039,-86.3976 165.366,-79.5246"/>
</g>
<!-- Node21 -->
<g id="node21" class="node"><title>Node21</title>
<g id="a_node21"><a xlink:href="../../d1/d9b/multiplets_2Particle_8hh.html" target="_top" xlink:title="boca/multiplets/Particle.hh">
<polygon fill="white" stroke="red" points="670,-62 670,-81 802,-81 802,-62 670,-62"/>
<text text-anchor="middle" x="736" y="-69" font-family="Helvetica,sans-Serif" font-size="10.00">boca/multiplets/Particle.hh</text>
</a>
</g>
</g>
<!-- Node20&#45;&gt;Node21 -->
<g id="edge22" class="edge"><title>Node20&#45;&gt;Node21</title>
<path fill="none" stroke="midnightblue" d="M700.529,-128.734C706.8,-118.793 717.179,-102.338 725.095,-89.7892"/>
<polygon fill="midnightblue" stroke="midnightblue" points="728.183,-91.4526 730.558,-81.1273 722.263,-87.718 728.183,-91.4526"/>
</g>
<!-- Node22 -->
<g id="node22" class="node"><title>Node22</title>
<g id="a_node22"><a xlink:href="../../dd/d4f/ClosestLepton_8hh.html" target="_top" xlink:title="boca/multiplets/ClosestLepton.hh">
<polygon fill="white" stroke="black" points="330,-62 330,-81 492,-81 492,-62 330,-62"/>
<text text-anchor="middle" x="411" y="-69" font-family="Helvetica,sans-Serif" font-size="10.00">boca/multiplets/ClosestLepton.hh</text>
</a>
</g>
</g>
<!-- Node20&#45;&gt;Node22 -->
<g id="edge23" class="edge"><title>Node20&#45;&gt;Node22</title>
<path fill="none" stroke="midnightblue" d="M657.58,-128.936C606.392,-117.22 514.518,-96.1925 458.523,-83.3768"/>
<polygon fill="midnightblue" stroke="midnightblue" points="459.032,-79.9028 448.503,-81.0834 457.47,-86.7263 459.032,-79.9028"/>
</g>
<!-- Node23 -->
<g id="node23" class="node"><title>Node23</title>
<g id="a_node23"><a xlink:href="../../d1/dcf/SubJettiness_8hh.html" target="_top" xlink:title="boca/fastjet/SubJettiness.hh">
<polygon fill="white" stroke="black" points="510.5,-62 510.5,-81 651.5,-81 651.5,-62 510.5,-62"/>
<text text-anchor="middle" x="581" y="-69" font-family="Helvetica,sans-Serif" font-size="10.00">boca/fastjet/SubJettiness.hh</text>
</a>
</g>
</g>
<!-- Node20&#45;&gt;Node23 -->
<g id="edge25" class="edge"><title>Node20&#45;&gt;Node23</title>
<path fill="none" stroke="midnightblue" d="M679.625,-128.734C660.481,-117.818 627.562,-99.0487 605.064,-86.2209"/>
<polygon fill="midnightblue" stroke="midnightblue" points="606.552,-83.04 596.131,-81.1273 603.084,-89.121 606.552,-83.04"/>
</g>
<!-- Node24 -->
<g id="node24" class="node"><title>Node24</title>
<g id="a_node24"><a xlink:href="../../dc/d66/EventShapes_8hh.html" target="_top" xlink:title="boca/EventShapes.hh">
<polygon fill="white" stroke="red" points="198.5,-62 198.5,-81 311.5,-81 311.5,-62 198.5,-62"/>
<text text-anchor="middle" x="255" y="-69" font-family="Helvetica,sans-Serif" font-size="10.00">boca/EventShapes.hh</text>
</a>
</g>
</g>
<!-- Node20&#45;&gt;Node24 -->
<g id="edge27" class="edge"><title>Node20&#45;&gt;Node24</title>
<path fill="none" stroke="midnightblue" d="M652.321,-128.947C641.175,-126.856 629.158,-124.725 618,-123 486.595,-102.686 452.084,-109.291 321,-87 314.395,-85.8768 307.452,-84.5331 300.651,-83.1232"/>
<polygon fill="midnightblue" stroke="midnightblue" points="301.355,-79.6946 290.844,-81.0282 299.893,-86.5402 301.355,-79.6946"/>
</g>
<!-- Node22&#45;&gt;Node7 -->
<g id="edge24" class="edge"><title>Node22&#45;&gt;Node7</title>
<path fill="none" stroke="midnightblue" d="M411,-61.9751C411,-53.5803 411,-40.4806 411,-29.6631"/>
<polygon fill="midnightblue" stroke="midnightblue" points="414.5,-29.5091 411,-19.5091 407.5,-29.5091 414.5,-29.5091"/>
</g>
<!-- Node23&#45;&gt;Node7 -->
<g id="edge26" class="edge"><title>Node23&#45;&gt;Node7</title>
<path fill="none" stroke="midnightblue" d="M556.643,-61.9751C527.356,-51.7246 478.026,-34.4593 444.998,-22.8994"/>
<polygon fill="midnightblue" stroke="midnightblue" points="445.907,-19.5091 435.312,-19.5091 443.594,-26.1162 445.907,-19.5091"/>
</g>
<!-- Node24&#45;&gt;Node7 -->
<g id="edge28" class="edge"><title>Node24&#45;&gt;Node7</title>
<path fill="none" stroke="midnightblue" d="M277.351,-61.9751C303.995,-51.8129 348.714,-34.7564 379.014,-23.1996"/>
<polygon fill="midnightblue" stroke="midnightblue" points="380.594,-26.343 388.69,-19.5091 378.1,-19.8026 380.594,-26.343"/>
</g>
<!-- Node26 -->
<g id="node26" class="node"><title>Node26</title>
<polygon fill="white" stroke="#bfbfbf" points="1880,-56.5 1880,-86.5 1990,-86.5 1990,-56.5 1880,-56.5"/>
<text text-anchor="start" x="1888" y="-74.5" font-family="Helvetica,sans-Serif" font-size="10.00">boost/range/algorithm</text>
<text text-anchor="middle" x="1935" y="-63.5" font-family="Helvetica,sans-Serif" font-size="10.00">/sort.hpp</text>
</g>
<!-- Node25&#45;&gt;Node26 -->
<g id="edge30" class="edge"><title>Node25&#45;&gt;Node26</title>
<path fill="none" stroke="midnightblue" d="M1835.51,-128.734C1852.25,-119.274 1879.42,-103.914 1901.14,-91.6362"/>
<polygon fill="midnightblue" stroke="midnightblue" points="1903.09,-94.5566 1910.07,-86.589 1899.65,-88.4627 1903.09,-94.5566"/>
</g>
<!-- Node27 -->
<g id="node27" class="node"><title>Node27</title>
<polygon fill="white" stroke="#bfbfbf" points="2008.5,-62 2008.5,-81 2121.5,-81 2121.5,-62 2008.5,-62"/>
<text text-anchor="middle" x="2065" y="-69" font-family="Helvetica,sans-Serif" font-size="10.00">boost/units/cmath.hpp</text>
</g>
<!-- Node25&#45;&gt;Node27 -->
<g id="edge31" class="edge"><title>Node25&#45;&gt;Node27</title>
<path fill="none" stroke="midnightblue" d="M1852.28,-128.936C1896.07,-117.317 1974.38,-96.5409 2022.79,-83.6975"/>
<polygon fill="midnightblue" stroke="midnightblue" points="2023.88,-87.0308 2032.65,-81.0834 2022.08,-80.2649 2023.88,-87.0308"/>
</g>
<!-- Node28 -->
<g id="node28" class="node"><title>Node28</title>
<g id="a_node28"><a xlink:href="../../d2/d29/Id_8hh.html" target="_top" xlink:title="boca/physics/Id.hh">
<polygon fill="white" stroke="red" points="2139.5,-62 2139.5,-81 2238.5,-81 2238.5,-62 2139.5,-62"/>
<text text-anchor="middle" x="2189" y="-69" font-family="Helvetica,sans-Serif" font-size="10.00">boca/physics/Id.hh</text>
</a>
</g>
</g>
<!-- Node25&#45;&gt;Node28 -->
<g id="edge32" class="edge"><title>Node25&#45;&gt;Node28</title>
<path fill="none" stroke="midnightblue" d="M1878.73,-129.464C1941.47,-120.532 2043.67,-104.974 2131,-87 2136.14,-85.9417 2141.52,-84.7356 2146.83,-83.4814"/>
<polygon fill="midnightblue" stroke="midnightblue" points="2148.01,-86.7976 2156.9,-81.0365 2146.35,-79.9954 2148.01,-86.7976"/>
</g>
<!-- Node30 -->
<g id="node30" class="node"><title>Node30</title>
<g id="a_node30"><a xlink:href="../../d0/d8f/tagger_2Higgs_8hh.html" target="_top" xlink:title="boca/standardmodel\l/tagger/Higgs.hh">
<polygon fill="white" stroke="black" points="1307,-380.5 1307,-410.5 1411,-410.5 1411,-380.5 1307,-380.5"/>
<text text-anchor="start" x="1315" y="-398.5" font-family="Helvetica,sans-Serif" font-size="10.00">boca/standardmodel</text>
<text text-anchor="middle" x="1359" y="-387.5" font-family="Helvetica,sans-Serif" font-size="10.00">/tagger/Higgs.hh</text>
</a>
</g>
</g>
<!-- Node29&#45;&gt;Node30 -->
<g id="edge34" class="edge"><title>Node29&#45;&gt;Node30</title>
<path fill="none" stroke="midnightblue" d="M634.82,-503.46C778.107,-482.297 1148.7,-427.561 1296.65,-405.709"/>
<polygon fill="midnightblue" stroke="midnightblue" points="1297.53,-409.117 1306.91,-404.193 1296.51,-402.192 1297.53,-409.117"/>
</g>
<!-- Node38 -->
<g id="node38" class="node"><title>Node38</title>
<g id="a_node38"><a xlink:href="../../dc/de8/tagger_2TopLeptonic_8hh.html" target="_top" xlink:title="boca/standardmodel\l/tagger/TopLeptonic.hh">
<polygon fill="white" stroke="black" points="989,-380.5 989,-410.5 1105,-410.5 1105,-380.5 989,-380.5"/>
<text text-anchor="start" x="997" y="-398.5" font-family="Helvetica,sans-Serif" font-size="10.00">boca/standardmodel</text>
<text text-anchor="middle" x="1047" y="-387.5" font-family="Helvetica,sans-Serif" font-size="10.00">/tagger/TopLeptonic.hh</text>
</a>
</g>
</g>
<!-- Node29&#45;&gt;Node38 -->
<g id="edge50" class="edge"><title>Node29&#45;&gt;Node38</title>
<path fill="none" stroke="midnightblue" d="M611.942,-503.413C689.767,-484.288 878.477,-437.914 979.89,-412.992"/>
<polygon fill="midnightblue" stroke="midnightblue" points="980.847,-416.361 989.723,-410.575 979.177,-409.563 980.847,-416.361"/>
</g>
<!-- Node42 -->
<g id="node42" class="node"><title>Node42</title>
<g id="a_node42"><a xlink:href="../../dd/de9/boca_2multiplets_2Octet_8hh.html" target="_top" xlink:title="boca/multiplets/Octet.hh">
<polygon fill="white" stroke="black" points="591.5,-447.5 591.5,-466.5 714.5,-466.5 714.5,-447.5 591.5,-447.5"/>
<text text-anchor="middle" x="653" y="-454.5" font-family="Helvetica,sans-Serif" font-size="10.00">boca/multiplets/Octet.hh</text>
</a>
</g>
</g>
<!-- Node29&#45;&gt;Node42 -->
<g id="edge59" class="edge"><title>Node29&#45;&gt;Node42</title>
<path fill="none" stroke="midnightblue" d="M589.211,-503.324C600.776,-495.107 618.375,-482.602 632.161,-472.807"/>
<polygon fill="midnightblue" stroke="midnightblue" points="634.443,-475.479 640.567,-466.834 630.388,-469.773 634.443,-475.479"/>
</g>
<!-- Node47 -->
<g id="node47" class="node"><title>Node47</title>
<g id="a_node47"><a xlink:href="../../d4/d92/MultipletSignature_8hh.html" target="_top" xlink:title="include/MultipletSignature.hh">
<polygon fill="white" stroke="black" points="431,-447.5 431,-466.5 573,-466.5 573,-447.5 431,-447.5"/>
<text text-anchor="middle" x="502" y="-454.5" font-family="Helvetica,sans-Serif" font-size="10.00">include/MultipletSignature.hh</text>
</a>
</g>
</g>
<!-- Node29&#45;&gt;Node47 -->
<g id="edge69" class="edge"><title>Node29&#45;&gt;Node47</title>
<path fill="none" stroke="midnightblue" d="M564.95,-503.324C553.537,-495.107 536.169,-482.602 522.565,-472.807"/>
<polygon fill="midnightblue" stroke="midnightblue" points="524.43,-469.837 514.269,-466.834 520.34,-475.517 524.43,-469.837"/>
</g>
<!-- Node48 -->
<g id="node48" class="node"><title>Node48</title>
<g id="a_node48"><a xlink:href="../../d8/d41/branch_2SignatureT_8hh.html" target="_top" xlink:title="include/branch/SignatureT.hh">
<polygon fill="white" stroke="black" points="269.5,-447.5 269.5,-466.5 412.5,-466.5 412.5,-447.5 269.5,-447.5"/>
<text text-anchor="middle" x="341" y="-454.5" font-family="Helvetica,sans-Serif" font-size="10.00">include/branch/SignatureT.hh</text>
</a>
</g>
</g>
<!-- Node29&#45;&gt;Node48 -->
<g id="edge71" class="edge"><title>Node29&#45;&gt;Node48</title>
<path fill="none" stroke="midnightblue" d="M539.605,-503.444C498.608,-494.063 432.746,-478.993 388.216,-468.804"/>
<polygon fill="midnightblue" stroke="midnightblue" points="388.749,-465.335 378.22,-466.516 387.187,-472.159 388.749,-465.335"/>
</g>
<!-- Node31 -->
<g id="node31" class="node"><title>Node31</title>
<g id="a_node31"><a xlink:href="../../d4/dee/boca_2tagger_2Tagger_8hh.html" target="_top" xlink:title="boca/tagger/Tagger.hh">
<polygon fill="white" stroke="red" points="1324,-190.5 1324,-209.5 1438,-209.5 1438,-190.5 1324,-190.5"/>
<text text-anchor="middle" x="1381" y="-197.5" font-family="Helvetica,sans-Serif" font-size="10.00">boca/tagger/Tagger.hh</text>
</a>
</g>
</g>
<!-- Node30&#45;&gt;Node31 -->
<g id="edge35" class="edge"><title>Node30&#45;&gt;Node31</title>
<path fill="none" stroke="midnightblue" d="M1411.2,-389.834C1445.17,-384.171 1488.18,-371.653 1516,-344 1538.23,-321.905 1533.05,-307.948 1538,-277 1540.18,-263.395 1546.29,-257.003 1538,-246 1526.53,-230.774 1483.78,-219.127 1445.79,-211.5"/>
<polygon fill="midnightblue" stroke="midnightblue" points="1446.22,-208.02 1435.74,-209.552 1444.89,-214.892 1446.22,-208.02"/>
</g>
<!-- Node33 -->
<g id="node33" class="node"><title>Node33</title>
<g id="a_node33"><a xlink:href="../../df/d3a/Doublet_8hh.html" target="_top" xlink:title="boca/multiplets/Doublet.hh">
<polygon fill="white" stroke="black" points="1039.5,-252 1039.5,-271 1172.5,-271 1172.5,-252 1039.5,-252"/>
<text text-anchor="middle" x="1106" y="-259" font-family="Helvetica,sans-Serif" font-size="10.00">boca/multiplets/Doublet.hh</text>
</a>
</g>
</g>
<!-- Node30&#45;&gt;Node33 -->
<g id="edge38" class="edge"><title>Node30&#45;&gt;Node33</title>
<path fill="none" stroke="midnightblue" d="M1306.92,-380.506C1279.49,-372 1245.85,-359.728 1218,-344 1199.02,-333.282 1197.46,-326.044 1180,-313 1162.87,-300.204 1142.8,-286.589 1127.88,-276.724"/>
<polygon fill="midnightblue" stroke="midnightblue" points="1129.62,-273.674 1119.34,-271.107 1125.77,-279.524 1129.62,-273.674"/>
</g>
<!-- Node34 -->
<g id="node34" class="node"><title>Node34</title>
<g id="a_node34"><a xlink:href="../../df/d2c/Reader_8hh.html" target="_top" xlink:title="boca/multivariant/Reader.hh">
<polygon fill="white" stroke="red" points="1389.5,-252 1389.5,-271 1528.5,-271 1528.5,-252 1389.5,-252"/>
<text text-anchor="middle" x="1459" y="-259" font-family="Helvetica,sans-Serif" font-size="10.00">boca/multivariant/Reader.hh</text>
</a>
</g>
</g>
<!-- Node30&#45;&gt;Node34 -->
<g id="edge40" class="edge"><title>Node30&#45;&gt;Node34</title>
<path fill="none" stroke="midnightblue" d="M1411.23,-390.374C1442.53,-384.897 1480.02,-372.383 1500,-344 1515.02,-322.661 1493.72,-295.03 1476.63,-278.045"/>
<polygon fill="midnightblue" stroke="midnightblue" points="1478.9,-275.37 1469.22,-271.051 1474.09,-280.461 1478.9,-275.37"/>
</g>
<!-- Node35 -->
<g id="node35" class="node"><title>Node35</title>
<g id="a_node35"><a xlink:href="../../d3/d4d/Boson_8hh.html" target="_top" xlink:title="boca/standardmodel\l/tagger/Boson.hh">
<polygon fill="white" stroke="red" points="1227,-313.5 1227,-343.5 1331,-343.5 1331,-313.5 1227,-313.5"/>
<text text-anchor="start" x="1235" y="-331.5" font-family="Helvetica,sans-Serif" font-size="10.00">boca/standardmodel</text>
<text text-anchor="middle" x="1279" y="-320.5" font-family="Helvetica,sans-Serif" font-size="10.00">/tagger/Boson.hh</text>
</a>
</g>
</g>
<!-- Node30&#45;&gt;Node35 -->
<g id="edge42" class="edge"><title>Node30&#45;&gt;Node35</title>
<path fill="none" stroke="midnightblue" d="M1341.64,-380.396C1330.74,-371.538 1316.49,-359.96 1304.34,-350.086"/>
<polygon fill="midnightblue" stroke="midnightblue" points="1306.29,-347.166 1296.32,-343.577 1301.88,-352.599 1306.29,-347.166"/>
</g>
<!-- Node37 -->
<g id="node37" class="node"><title>Node37</title>
<g id="a_node37"><a xlink:href="../../d4/d6d/branch_2Higgs_8hh.html" target="_top" xlink:title="boca/standardmodel\l/branch/Higgs.hh">
<polygon fill="white" stroke="red" points="1387,-313.5 1387,-343.5 1491,-343.5 1491,-313.5 1387,-313.5"/>
<text text-anchor="start" x="1395" y="-331.5" font-family="Helvetica,sans-Serif" font-size="10.00">boca/standardmodel</text>
<text text-anchor="middle" x="1439" y="-320.5" font-family="Helvetica,sans-Serif" font-size="10.00">/branch/Higgs.hh</text>
</a>
</g>
</g>
<!-- Node30&#45;&gt;Node37 -->
<g id="edge49" class="edge"><title>Node30&#45;&gt;Node37</title>
<path fill="none" stroke="midnightblue" d="M1376.36,-380.396C1387.26,-371.538 1401.51,-359.96 1413.66,-350.086"/>
<polygon fill="midnightblue" stroke="midnightblue" points="1416.12,-352.599 1421.68,-343.577 1411.71,-347.166 1416.12,-352.599"/>
</g>
<!-- Node31&#45;&gt;Node25 -->
<g id="edge37" class="edge"><title>Node31&#45;&gt;Node25</title>
<path fill="none" stroke="midnightblue" d="M1438.39,-191.221C1518.87,-180.313 1665.05,-160.501 1751.25,-148.819"/>
<polygon fill="midnightblue" stroke="midnightblue" points="1751.75,-152.282 1761.19,-147.47 1750.81,-145.345 1751.75,-152.282"/>
</g>
<!-- Node32 -->
<g id="node32" class="node"><title>Node32</title>
<g id="a_node32"><a xlink:href="../../d6/dd8/Types_8hh.html" target="_top" xlink:title="boca/generic/Types.hh">
<polygon fill="white" stroke="red" points="1448,-129 1448,-148 1564,-148 1564,-129 1448,-129"/>
<text text-anchor="middle" x="1506" y="-136" font-family="Helvetica,sans-Serif" font-size="10.00">boca/generic/Types.hh</text>
</a>
</g>
</g>
<!-- Node31&#45;&gt;Node32 -->
<g id="edge36" class="edge"><title>Node31&#45;&gt;Node32</title>
<path fill="none" stroke="midnightblue" d="M1398.91,-190.475C1419.89,-180.49 1454.85,-163.848 1479.09,-152.307"/>
<polygon fill="midnightblue" stroke="midnightblue" points="1480.6,-155.467 1488.12,-148.009 1477.59,-149.147 1480.6,-155.467"/>
</g>
<!-- Node33&#45;&gt;Node8 -->
<g id="edge39" class="edge"><title>Node33&#45;&gt;Node8</title>
<path fill="none" stroke="midnightblue" d="M1069.75,-251.975C1024.85,-241.415 948.294,-223.411 899.216,-211.869"/>
<polygon fill="midnightblue" stroke="midnightblue" points="899.717,-208.391 889.181,-209.509 898.115,-215.206 899.717,-208.391"/>
</g>
<!-- Node34&#45;&gt;Node25 -->
<g id="edge41" class="edge"><title>Node34&#45;&gt;Node25</title>
<path fill="none" stroke="midnightblue" d="M1484.38,-251.992C1547.54,-230.824 1711.85,-175.749 1784.53,-151.388"/>
<polygon fill="midnightblue" stroke="midnightblue" points="1785.79,-154.658 1794.16,-148.161 1783.57,-148.021 1785.79,-154.658"/>
</g>
<!-- Node35&#45;&gt;Node31 -->
<g id="edge43" class="edge"><title>Node35&#45;&gt;Node31</title>
<path fill="none" stroke="midnightblue" d="M1298.21,-313.428C1310.26,-303.992 1325.62,-290.803 1337,-277 1351.96,-258.86 1364.86,-234.995 1372.76,-218.886"/>
<polygon fill="midnightblue" stroke="midnightblue" points="1376.06,-220.091 1377.2,-209.557 1369.74,-217.085 1376.06,-220.091"/>
</g>
<!-- Node35&#45;&gt;Node33 -->
<g id="edge44" class="edge"><title>Node35&#45;&gt;Node33</title>
<path fill="none" stroke="midnightblue" d="M1241.46,-313.396C1210.7,-301.84 1167.63,-285.656 1138.37,-274.663"/>
<polygon fill="midnightblue" stroke="midnightblue" points="1139.23,-271.248 1128.64,-271.007 1136.77,-277.801 1139.23,-271.248"/>
</g>
<!-- Node35&#45;&gt;Node34 -->
<g id="edge45" class="edge"><title>Node35&#45;&gt;Node34</title>
<path fill="none" stroke="midnightblue" d="M1318.06,-313.396C1350.2,-301.789 1395.27,-285.515 1425.72,-274.519"/>
<polygon fill="midnightblue" stroke="midnightblue" points="1427.23,-277.695 1435.44,-271.007 1424.85,-271.112 1427.23,-277.695"/>
</g>
<!-- Node36 -->
<g id="node36" class="node"><title>Node36</title>
<g id="a_node36"><a xlink:href="../../db/d40/tagger_2Bottom_8hh.html" target="_top" xlink:title="boca/standardmodel\l/tagger/Bottom.hh">
<polygon fill="white" stroke="red" points="1191,-246.5 1191,-276.5 1295,-276.5 1295,-246.5 1191,-246.5"/>
<text text-anchor="start" x="1199" y="-264.5" font-family="Helvetica,sans-Serif" font-size="10.00">boca/standardmodel</text>
<text text-anchor="middle" x="1243" y="-253.5" font-family="Helvetica,sans-Serif" font-size="10.00">/tagger/Bottom.hh</text>
</a>
</g>
</g>
<!-- Node35&#45;&gt;Node36 -->
<g id="edge46" class="edge"><title>Node35&#45;&gt;Node36</title>
<path fill="none" stroke="midnightblue" d="M1271.19,-313.396C1266.66,-305.219 1260.85,-294.725 1255.68,-285.393"/>
<polygon fill="midnightblue" stroke="midnightblue" points="1258.7,-283.629 1250.8,-276.577 1252.58,-287.02 1258.7,-283.629"/>
</g>
<!-- Node36&#45;&gt;Node4 -->
<g id="edge47" class="edge"><title>Node36&#45;&gt;Node4</title>
<path fill="none" stroke="midnightblue" d="M1190.86,-247.579C1187.87,-247.003 1184.9,-246.47 1182,-246 1002.31,-216.874 954.222,-235.645 774,-210 646.63,-191.876 615.969,-180.142 490,-154 372.631,-129.643 234.981,-99.1478 163.899,-83.2571"/>
<polygon fill="midnightblue" stroke="midnightblue" points="164.428,-79.789 153.905,-81.021 162.9,-86.6201 164.428,-79.789"/>
</g>
<!-- Node36&#45;&gt;Node31 -->
<g id="edge48" class="edge"><title>Node36&#45;&gt;Node31</title>
<path fill="none" stroke="midnightblue" d="M1275.7,-246.399C1298.75,-236.461 1329.36,-223.265 1351.63,-213.662"/>
<polygon fill="midnightblue" stroke="midnightblue" points="1353.12,-216.831 1360.92,-209.658 1350.35,-210.403 1353.12,-216.831"/>
</g>
<!-- Node38&#45;&gt;Node34 -->
<g id="edge53" class="edge"><title>Node38&#45;&gt;Node34</title>
<path fill="none" stroke="midnightblue" d="M1105.16,-393.128C1166.18,-389.75 1263.67,-378.775 1340,-344 1359.83,-334.964 1360.27,-325.68 1378,-313 1396.59,-299.703 1418.66,-286.074 1435.07,-276.332"/>
<polygon fill="midnightblue" stroke="midnightblue" points="1437.16,-279.163 1444,-271.077 1433.61,-273.13 1437.16,-279.163"/>
</g>
<!-- Node38&#45;&gt;Node36 -->
<g id="edge54" class="edge"><title>Node38&#45;&gt;Node36</title>
<path fill="none" stroke="midnightblue" d="M988.783,-381.335C941.304,-367.957 886.276,-344.697 914,-313 951.707,-269.89 1107.33,-286.213 1180.63,-276.842"/>
<polygon fill="midnightblue" stroke="midnightblue" points="1181.48,-280.253 1190.83,-275.263 1180.41,-273.335 1181.48,-280.253"/>
</g>
<!-- Node39 -->
<g id="node39" class="node"><title>Node39</title>
<g id="a_node39"><a xlink:href="../../d7/db9/Triplet_8hh.html" target="_top" xlink:title="boca/multiplets/Triplet.hh">
<polygon fill="white" stroke="black" points="741,-319 741,-338 867,-338 867,-319 741,-319"/>
<text text-anchor="middle" x="804" y="-326" font-family="Helvetica,sans-Serif" font-size="10.00">boca/multiplets/Triplet.hh</text>
</a>
</g>
</g>
<!-- Node38&#45;&gt;Node39 -->
<g id="edge51" class="edge"><title>Node38&#45;&gt;Node39</title>
<path fill="none" stroke="midnightblue" d="M994.572,-380.476C949.974,-368.547 886.785,-351.644 845.6,-340.628"/>
<polygon fill="midnightblue" stroke="midnightblue" points="846.449,-337.232 835.884,-338.029 844.64,-343.994 846.449,-337.232"/>
</g>
<!-- Node40 -->
<g id="node40" class="node"><title>Node40</title>
<g id="a_node40"><a xlink:href="../../df/d67/tagger_2WLeptonic_8hh.html" target="_top" xlink:title="boca/standardmodel\l/tagger/WLeptonic.hh">
<polygon fill="white" stroke="red" points="1061,-313.5 1061,-343.5 1171,-343.5 1171,-313.5 1061,-313.5"/>
<text text-anchor="start" x="1069" y="-331.5" font-family="Helvetica,sans-Serif" font-size="10.00">boca/standardmodel</text>
<text text-anchor="middle" x="1116" y="-320.5" font-family="Helvetica,sans-Serif" font-size="10.00">/tagger/WLeptonic.hh</text>
</a>
</g>
</g>
<!-- Node38&#45;&gt;Node40 -->
<g id="edge55" class="edge"><title>Node38&#45;&gt;Node40</title>
<path fill="none" stroke="midnightblue" d="M1061.97,-380.396C1071.19,-371.708 1083.19,-360.405 1093.54,-350.658"/>
<polygon fill="midnightblue" stroke="midnightblue" points="1096.18,-352.981 1101.06,-343.577 1091.38,-347.886 1096.18,-352.981"/>
</g>
<!-- Node41 -->
<g id="node41" class="node"><title>Node41</title>
<g id="a_node41"><a xlink:href="../../da/dd3/branch_2TopLeptonic_8hh.html" target="_top" xlink:title="boca/standardmodel\l/branch/TopLeptonic.hh">
<polygon fill="white" stroke="red" points="923.5,-313.5 923.5,-343.5 1042.5,-343.5 1042.5,-313.5 923.5,-313.5"/>
<text text-anchor="start" x="931.5" y="-331.5" font-family="Helvetica,sans-Serif" font-size="10.00">boca/standardmodel</text>
<text text-anchor="middle" x="983" y="-320.5" font-family="Helvetica,sans-Serif" font-size="10.00">/branch/TopLeptonic.hh</text>
</a>
</g>
</g>
<!-- Node38&#45;&gt;Node41 -->
<g id="edge58" class="edge"><title>Node38&#45;&gt;Node41</title>
<path fill="none" stroke="midnightblue" d="M1033.11,-380.396C1024.64,-371.793 1013.65,-360.626 1004.11,-350.945"/>
<polygon fill="midnightblue" stroke="midnightblue" points="1006.37,-348.247 996.86,-343.577 1001.38,-353.158 1006.37,-348.247"/>
</g>
<!-- Node39&#45;&gt;Node33 -->
<g id="edge52" class="edge"><title>Node39&#45;&gt;Node33</title>
<path fill="none" stroke="midnightblue" d="M843.792,-318.936C898.45,-307.171 996.732,-286.018 1056.2,-273.218"/>
<polygon fill="midnightblue" stroke="midnightblue" points="1057.08,-276.609 1066.12,-271.083 1055.61,-269.766 1057.08,-276.609"/>
</g>
<!-- Node40&#45;&gt;Node31 -->
<g id="edge57" class="edge"><title>Node40&#45;&gt;Node31</title>
<path fill="none" stroke="midnightblue" d="M1171.12,-320.361C1210.2,-313.525 1262.81,-300.62 1304,-277 1307.65,-274.909 1343.85,-238.579 1365.29,-216.918"/>
<polygon fill="midnightblue" stroke="midnightblue" points="1367.89,-219.264 1372.43,-209.692 1362.91,-214.342 1367.89,-219.264"/>
</g>
<!-- Node40&#45;&gt;Node33 -->
<g id="edge56" class="edge"><title>Node40&#45;&gt;Node33</title>
<path fill="none" stroke="midnightblue" d="M1113.83,-313.396C1112.38,-303.963 1110.45,-291.448 1108.88,-281.189"/>
<polygon fill="midnightblue" stroke="midnightblue" points="1112.32,-280.546 1107.34,-271.195 1105.4,-281.61 1112.32,-280.546"/>
</g>
<!-- Node43 -->
<g id="node43" class="node"><title>Node43</title>
<g id="a_node43"><a xlink:href="../../d2/d98/Sextet_8hh.html" target="_top" xlink:title="boca/multiplets/Sextet.hh">
<polygon fill="white" stroke="black" points="843,-386 843,-405 971,-405 971,-386 843,-386"/>
<text text-anchor="middle" x="907" y="-393" font-family="Helvetica,sans-Serif" font-size="10.00">boca/multiplets/Sextet.hh</text>
</a>
</g>
</g>
<!-- Node42&#45;&gt;Node43 -->
<g id="edge60" class="edge"><title>Node42&#45;&gt;Node43</title>
<path fill="none" stroke="midnightblue" d="M689.392,-447.475C734.565,-436.893 811.651,-418.836 860.91,-407.297"/>
<polygon fill="midnightblue" stroke="midnightblue" points="861.737,-410.698 870.676,-405.009 860.141,-403.882 861.737,-410.698"/>
</g>
<!-- Node44 -->
<g id="node44" class="node"><title>Node44</title>
<g id="a_node44"><a xlink:href="../../d5/d5f/Quintet_8hh.html" target="_top" xlink:title="boca/multiplets/Quintet.hh">
<polygon fill="white" stroke="black" points="693.5,-386 693.5,-405 824.5,-405 824.5,-386 693.5,-386"/>
<text text-anchor="middle" x="759" y="-393" font-family="Helvetica,sans-Serif" font-size="10.00">boca/multiplets/Quintet.hh</text>
</a>
</g>
</g>
<!-- Node42&#45;&gt;Node44 -->
<g id="edge62" class="edge"><title>Node42&#45;&gt;Node44</title>
<path fill="none" stroke="midnightblue" d="M668.187,-447.475C685.662,-437.666 714.579,-421.435 735.083,-409.925"/>
<polygon fill="midnightblue" stroke="midnightblue" points="736.834,-412.956 743.841,-405.009 733.408,-406.852 736.834,-412.956"/>
</g>
<!-- Node45 -->
<g id="node45" class="node"><title>Node45</title>
<g id="a_node45"><a xlink:href="../../d5/d38/Quartet_8hh.html" target="_top" xlink:title="boca/multiplets/Quartet.hh">
<polygon fill="white" stroke="black" points="544.5,-386 544.5,-405 675.5,-405 675.5,-386 544.5,-386"/>
<text text-anchor="middle" x="610" y="-393" font-family="Helvetica,sans-Serif" font-size="10.00">boca/multiplets/Quartet.hh</text>
</a>
</g>
</g>
<!-- Node42&#45;&gt;Node45 -->
<g id="edge64" class="edge"><title>Node42&#45;&gt;Node45</title>
<path fill="none" stroke="midnightblue" d="M646.839,-447.475C640.389,-438.55 630.096,-424.307 622.027,-413.143"/>
<polygon fill="midnightblue" stroke="midnightblue" points="624.844,-411.064 616.149,-405.009 619.17,-415.164 624.844,-411.064"/>
</g>
<!-- Node46 -->
<g id="node46" class="node"><title>Node46</title>
<g id="a_node46"><a xlink:href="../../dc/d64/multiplets_2ThreeBody_8hh.html" target="_top" xlink:title="boca/multiplets/ThreeBody.hh">
<polygon fill="white" stroke="black" points="537,-319 537,-338 683,-338 683,-319 537,-319"/>
<text text-anchor="middle" x="610" y="-326" font-family="Helvetica,sans-Serif" font-size="10.00">boca/multiplets/ThreeBody.hh</text>
</a>
</g>
</g>
<!-- Node42&#45;&gt;Node46 -->
<g id="edge68" class="edge"><title>Node42&#45;&gt;Node46</title>
<path fill="none" stroke="midnightblue" d="M592.519,-447.469C570.682,-441.144 548.185,-430.139 535,-411 527.184,-399.654 528.527,-392.162 535,-380 544.063,-362.972 561.706,-350.656 577.604,-342.451"/>
<polygon fill="midnightblue" stroke="midnightblue" points="579.185,-345.574 586.685,-338.091 576.155,-339.264 579.185,-345.574"/>
</g>
<!-- Node43&#45;&gt;Node39 -->
<g id="edge61" class="edge"><title>Node43&#45;&gt;Node39</title>
<path fill="none" stroke="midnightblue" d="M893.109,-385.734C875.966,-374.916 846.6,-356.383 826.289,-343.566"/>
<polygon fill="midnightblue" stroke="midnightblue" points="827.996,-340.504 817.671,-338.127 824.26,-346.424 827.996,-340.504"/>
</g>
<!-- Node44&#45;&gt;Node39 -->
<g id="edge63" class="edge"><title>Node44&#45;&gt;Node39</title>
<path fill="none" stroke="midnightblue" d="M765.069,-385.734C772.019,-375.695 783.567,-359.014 792.285,-346.421"/>
<polygon fill="midnightblue" stroke="midnightblue" points="795.213,-348.341 798.027,-338.127 789.457,-344.357 795.213,-348.341"/>
</g>
<!-- Node45&#45;&gt;Node39 -->
<g id="edge65" class="edge"><title>Node45&#45;&gt;Node39</title>
<path fill="none" stroke="midnightblue" d="M635.762,-385.869C669.918,-374.424 730.338,-354.181 768.715,-341.322"/>
<polygon fill="midnightblue" stroke="midnightblue" points="770.071,-344.559 778.441,-338.064 767.847,-337.922 770.071,-344.559"/>
</g>
<!-- Node45&#45;&gt;Node46 -->
<g id="edge66" class="edge"><title>Node45&#45;&gt;Node46</title>
<path fill="none" stroke="midnightblue" d="M610,-385.734C610,-376.183 610,-360.618 610,-348.283"/>
<polygon fill="midnightblue" stroke="midnightblue" points="613.5,-348.127 610,-338.127 606.5,-348.127 613.5,-348.127"/>
</g>
<!-- Node46&#45;&gt;Node8 -->
<g id="edge67" class="edge"><title>Node46&#45;&gt;Node8</title>
<path fill="none" stroke="midnightblue" d="M626.702,-318.805C668.421,-297.088 777.407,-240.352 827.34,-214.358"/>
<polygon fill="midnightblue" stroke="midnightblue" points="829.248,-217.311 836.502,-209.588 826.016,-211.102 829.248,-217.311"/>
</g>
<!-- Node47&#45;&gt;Node24 -->
<g id="edge70" class="edge"><title>Node47&#45;&gt;Node24</title>
<path fill="none" stroke="midnightblue" d="M493.261,-447.383C474.694,-428.108 433,-379.283 433,-329.5 433,-329.5 433,-329.5 433,-199 433,-134.534 354.468,-99.8971 301.729,-83.9045"/>
<polygon fill="midnightblue" stroke="midnightblue" points="302.461,-80.4724 291.882,-81.0417 300.507,-87.1942 302.461,-80.4724"/>
</g>
<!-- Node49 -->
<g id="node49" class="node"><title>Node49</title>
<g id="a_node49"><a xlink:href="../../d2/d88/branch_2ThreeBody_8hh.html" target="_top" xlink:title="boca/branch/ThreeBody.hh">
<polygon fill="white" stroke="red" points="271,-386 271,-405 405,-405 405,-386 271,-386"/>
<text text-anchor="middle" x="338" y="-393" font-family="Helvetica,sans-Serif" font-size="10.00">boca/branch/ThreeBody.hh</text>
</a>
</g>
</g>
<!-- Node48&#45;&gt;Node49 -->
<g id="edge72" class="edge"><title>Node48&#45;&gt;Node49</title>
<path fill="none" stroke="midnightblue" d="M340.57,-447.475C340.147,-439.08 339.486,-425.981 338.941,-415.163"/>
<polygon fill="midnightblue" stroke="midnightblue" points="342.428,-414.82 338.429,-405.009 335.437,-415.173 342.428,-414.82"/>
</g>
</g>
</svg>
