<?xml version="1.0" encoding="UTF-8" standalone="no"?>
<!DOCTYPE svg PUBLIC "-//W3C//DTD SVG 1.1//EN"
 "http://www.w3.org/Graphics/SVG/1.1/DTD/svg11.dtd">
<!-- Generated by graphviz version 2.38.0 (20140413.2041)
 -->
<!-- Title: source/JetTag.cpp Pages: 1 -->
<svg width="1770pt" height="375pt"
 viewBox="0.00 0.00 1770.00 375.00" xmlns="http://www.w3.org/2000/svg" xmlns:xlink="http://www.w3.org/1999/xlink">
<g id="graph0" class="graph" transform="scale(1 1) rotate(0) translate(4 371)">
<title>source/JetTag.cpp</title>
<polygon fill="white" stroke="none" points="-4,4 -4,-371 1766,-371 1766,4 -4,4"/>
<!-- Node1 -->
<g id="node1" class="node"><title>Node1</title>
<polygon fill="#bfbfbf" stroke="black" points="1052.5,-347.5 1052.5,-366.5 1150.5,-366.5 1150.5,-347.5 1052.5,-347.5"/>
<text text-anchor="middle" x="1101.5" y="-354.5" font-family="Helvetica,sans-Serif" font-size="10.00">source/JetTag.cpp</text>
</g>
<!-- Node2 -->
<g id="node2" class="node"><title>Node2</title>
<g id="a_node2"><a xlink:href="../../d8/dff/JetTag_8hh.html" target="_top" xlink:title="JetTag.hh">
<polygon fill="white" stroke="black" points="1071.5,-291.5 1071.5,-310.5 1131.5,-310.5 1131.5,-291.5 1071.5,-291.5"/>
<text text-anchor="middle" x="1101.5" y="-298.5" font-family="Helvetica,sans-Serif" font-size="10.00">JetTag.hh</text>
</a>
</g>
</g>
<!-- Node1&#45;&gt;Node2 -->
<g id="edge1" class="edge"><title>Node1&#45;&gt;Node2</title>
<path fill="none" stroke="midnightblue" d="M1101.5,-347.083C1101.5,-340.006 1101.5,-329.861 1101.5,-320.986"/>
<polygon fill="midnightblue" stroke="midnightblue" points="1105,-320.751 1101.5,-310.751 1098,-320.751 1105,-320.751"/>
</g>
<!-- Node26 -->
<g id="node26" class="node"><title>Node26</title>
<g id="a_node26"><a xlink:href="../../d6/dd8/Types_8hh.html" target="_top" xlink:title="Types.hh">
<polygon fill="white" stroke="black" points="968,-123.5 968,-142.5 1025,-142.5 1025,-123.5 968,-123.5"/>
<text text-anchor="middle" x="996.5" y="-130.5" font-family="Helvetica,sans-Serif" font-size="10.00">Types.hh</text>
</a>
</g>
</g>
<!-- Node1&#45;&gt;Node26 -->
<g id="edge25" class="edge"><title>Node1&#45;&gt;Node26</title>
<path fill="none" stroke="midnightblue" d="M1092.52,-347.366C1083.95,-338.766 1071.12,-324.877 1062.5,-311 1029.55,-257.933 1009.09,-185.851 1000.78,-152.425"/>
<polygon fill="midnightblue" stroke="midnightblue" points="1004.17,-151.556 998.428,-142.654 997.368,-153.196 1004.17,-151.556"/>
</g>
<!-- Node27 -->
<g id="node27" class="node"><title>Node27</title>
<g id="a_node27"><a xlink:href="../../d8/de8/Debug_8hh.html" target="_top" xlink:title="Debug.hh">
<polygon fill="white" stroke="black" points="1311,-235.5 1311,-254.5 1370,-254.5 1370,-235.5 1311,-235.5"/>
<text text-anchor="middle" x="1340.5" y="-242.5" font-family="Helvetica,sans-Serif" font-size="10.00">Debug.hh</text>
</a>
</g>
</g>
<!-- Node1&#45;&gt;Node27 -->
<g id="edge28" class="edge"><title>Node1&#45;&gt;Node27</title>
<path fill="none" stroke="midnightblue" d="M1120.25,-347.368C1162.14,-328.091 1263.47,-281.454 1312.71,-258.789"/>
<polygon fill="midnightblue" stroke="midnightblue" points="1314.21,-261.952 1321.83,-254.591 1311.29,-255.593 1314.21,-261.952"/>
</g>
<!-- Node3 -->
<g id="node3" class="node"><title>Node3</title>
<polygon fill="white" stroke="#bfbfbf" points="1055.5,-235.5 1055.5,-254.5 1085.5,-254.5 1085.5,-235.5 1055.5,-235.5"/>
<text text-anchor="middle" x="1070.5" y="-242.5" font-family="Helvetica,sans-Serif" font-size="10.00">set</text>
</g>
<!-- Node2&#45;&gt;Node3 -->
<g id="edge2" class="edge"><title>Node2&#45;&gt;Node3</title>
<path fill="none" stroke="midnightblue" d="M1096.38,-291.083C1092.09,-283.613 1085.84,-272.724 1080.56,-263.52"/>
<polygon fill="midnightblue" stroke="midnightblue" points="1083.54,-261.681 1075.52,-254.751 1077.47,-265.166 1083.54,-261.681"/>
</g>
<!-- Node4 -->
<g id="node4" class="node"><title>Node4</title>
<g id="a_node4"><a xlink:href="../../d0/d9c/Family_8hh.html" target="_top" xlink:title="Family.hh">
<polygon fill="white" stroke="black" points="1104,-235.5 1104,-254.5 1163,-254.5 1163,-235.5 1104,-235.5"/>
<text text-anchor="middle" x="1133.5" y="-242.5" font-family="Helvetica,sans-Serif" font-size="10.00">Family.hh</text>
</a>
</g>
</g>
<!-- Node2&#45;&gt;Node4 -->
<g id="edge3" class="edge"><title>Node2&#45;&gt;Node4</title>
<path fill="none" stroke="midnightblue" d="M1106.78,-291.083C1111.21,-283.613 1117.66,-272.724 1123.12,-263.52"/>
<polygon fill="midnightblue" stroke="midnightblue" points="1126.23,-265.138 1128.31,-254.751 1120.21,-261.57 1126.23,-265.138"/>
</g>
<!-- Node5 -->
<g id="node5" class="node"><title>Node5</title>
<polygon fill="white" stroke="#bfbfbf" points="1183.5,-179.5 1183.5,-198.5 1227.5,-198.5 1227.5,-179.5 1183.5,-179.5"/>
<text text-anchor="middle" x="1205.5" y="-186.5" font-family="Helvetica,sans-Serif" font-size="10.00">vector</text>
</g>
<!-- Node4&#45;&gt;Node5 -->
<g id="edge4" class="edge"><title>Node4&#45;&gt;Node5</title>
<path fill="none" stroke="midnightblue" d="M1145.07,-235.324C1155.92,-227.185 1172.38,-214.839 1185.38,-205.087"/>
<polygon fill="midnightblue" stroke="midnightblue" points="1187.82,-207.634 1193.72,-198.834 1183.62,-202.034 1187.82,-207.634"/>
</g>
<!-- Node6 -->
<g id="node6" class="node"><title>Node6</title>
<polygon fill="white" stroke="#bfbfbf" points="1025,-179.5 1025,-198.5 1084,-198.5 1084,-179.5 1025,-179.5"/>
<text text-anchor="middle" x="1054.5" y="-186.5" font-family="Helvetica,sans-Serif" font-size="10.00">functional</text>
</g>
<!-- Node4&#45;&gt;Node6 -->
<g id="edge5" class="edge"><title>Node4&#45;&gt;Node6</title>
<path fill="none" stroke="midnightblue" d="M1120.81,-235.324C1108.6,-226.979 1089.92,-214.212 1075.5,-204.352"/>
<polygon fill="midnightblue" stroke="midnightblue" points="1077.39,-201.408 1067.16,-198.655 1073.44,-207.187 1077.39,-201.408"/>
</g>
<!-- Node7 -->
<g id="node7" class="node"><title>Node7</title>
<g id="a_node7"><a xlink:href="../../dd/df5/Particle_8hh.html" target="_top" xlink:title="Particle.hh">
<polygon fill="white" stroke="black" points="1102,-179.5 1102,-198.5 1165,-198.5 1165,-179.5 1102,-179.5"/>
<text text-anchor="middle" x="1133.5" y="-186.5" font-family="Helvetica,sans-Serif" font-size="10.00">Particle.hh</text>
</a>
</g>
</g>
<!-- Node4&#45;&gt;Node7 -->
<g id="edge6" class="edge"><title>Node4&#45;&gt;Node7</title>
<path fill="none" stroke="midnightblue" d="M1133.5,-235.083C1133.5,-228.006 1133.5,-217.861 1133.5,-208.986"/>
<polygon fill="midnightblue" stroke="midnightblue" points="1137,-208.751 1133.5,-198.751 1130,-208.751 1137,-208.751"/>
</g>
<!-- Node8 -->
<g id="node8" class="node"><title>Node8</title>
<g id="a_node8"><a xlink:href="../../db/da5/Particles_8hh.html" target="_top" xlink:title="Particles.hh">
<polygon fill="white" stroke="black" points="1043.5,-123.5 1043.5,-142.5 1111.5,-142.5 1111.5,-123.5 1043.5,-123.5"/>
<text text-anchor="middle" x="1077.5" y="-130.5" font-family="Helvetica,sans-Serif" font-size="10.00">Particles.hh</text>
</a>
</g>
</g>
<!-- Node7&#45;&gt;Node8 -->
<g id="edge7" class="edge"><title>Node7&#45;&gt;Node8</title>
<path fill="none" stroke="midnightblue" d="M1124.5,-179.324C1116.31,-171.42 1103.99,-159.548 1094.03,-149.938"/>
<polygon fill="midnightblue" stroke="midnightblue" points="1096.29,-147.256 1086.66,-142.834 1091.43,-152.295 1096.29,-147.256"/>
</g>
<!-- Node24 -->
<g id="node24" class="node"><title>Node24</title>
<g id="a_node24"><a xlink:href="../../d6/dc8/LorentzVector_8hh.html" target="_top" xlink:title="LorentzVector.hh">
<polygon fill="white" stroke="black" points="1130,-123.5 1130,-142.5 1221,-142.5 1221,-123.5 1130,-123.5"/>
<text text-anchor="middle" x="1175.5" y="-130.5" font-family="Helvetica,sans-Serif" font-size="10.00">LorentzVector.hh</text>
</a>
</g>
</g>
<!-- Node7&#45;&gt;Node24 -->
<g id="edge23" class="edge"><title>Node7&#45;&gt;Node24</title>
<path fill="none" stroke="midnightblue" d="M1140.44,-179.083C1146.43,-171.377 1155.25,-160.033 1162.55,-150.653"/>
<polygon fill="midnightblue" stroke="midnightblue" points="1165.32,-152.793 1168.69,-142.751 1159.79,-148.496 1165.32,-152.793"/>
</g>
<!-- Node9 -->
<g id="node9" class="node"><title>Node9</title>
<polygon fill="white" stroke="#bfbfbf" points="1057,-67.5 1057,-86.5 1098,-86.5 1098,-67.5 1057,-67.5"/>
<text text-anchor="middle" x="1077.5" y="-74.5" font-family="Helvetica,sans-Serif" font-size="10.00">string</text>
</g>
<!-- Node8&#45;&gt;Node9 -->
<g id="edge8" class="edge"><title>Node8&#45;&gt;Node9</title>
<path fill="none" stroke="midnightblue" d="M1077.5,-123.083C1077.5,-116.006 1077.5,-105.861 1077.5,-96.9865"/>
<polygon fill="midnightblue" stroke="midnightblue" points="1081,-96.751 1077.5,-86.7511 1074,-96.7511 1081,-96.751"/>
</g>
<!-- Node10 -->
<g id="node10" class="node"><title>Node10</title>
<g id="a_node10"><a xlink:href="../../dc/d45/Units_8hh.html" target="_top" xlink:title="Units.hh">
<polygon fill="white" stroke="black" points="970,-67.5 970,-86.5 1023,-86.5 1023,-67.5 970,-67.5"/>
<text text-anchor="middle" x="996.5" y="-74.5" font-family="Helvetica,sans-Serif" font-size="10.00">Units.hh</text>
</a>
</g>
</g>
<!-- Node8&#45;&gt;Node10 -->
<g id="edge9" class="edge"><title>Node8&#45;&gt;Node10</title>
<path fill="none" stroke="midnightblue" d="M1064.49,-123.324C1051.97,-114.979 1032.82,-102.212 1018.03,-92.3524"/>
<polygon fill="midnightblue" stroke="midnightblue" points="1019.74,-89.2894 1009.48,-86.6545 1015.86,-95.1137 1019.74,-89.2894"/>
</g>
<!-- Node11 -->
<g id="node11" class="node"><title>Node11</title>
<polygon fill="white" stroke="#bfbfbf" points="1254.5,-6 1254.5,-25 1364.5,-25 1364.5,-6 1254.5,-6"/>
<text text-anchor="middle" x="1309.5" y="-13" font-family="Helvetica,sans-Serif" font-size="10.00">boost/units/scale.hpp</text>
</g>
<!-- Node10&#45;&gt;Node11 -->
<g id="edge10" class="edge"><title>Node10&#45;&gt;Node11</title>
<path fill="none" stroke="midnightblue" d="M1023.21,-71.2922C1078.17,-61.5852 1202.25,-39.5416 1244.5,-31 1250.31,-29.8257 1256.4,-28.5405 1262.42,-27.2358"/>
<polygon fill="midnightblue" stroke="midnightblue" points="1263.41,-30.6005 1272.43,-25.0378 1261.91,-23.7633 1263.41,-30.6005"/>
</g>
<!-- Node12 -->
<g id="node12" class="node"><title>Node12</title>
<polygon fill="white" stroke="#bfbfbf" points="1383,-0.5 1383,-30.5 1508,-30.5 1508,-0.5 1383,-0.5"/>
<text text-anchor="start" x="1391" y="-18.5" font-family="Helvetica,sans-Serif" font-size="10.00">boost/units/make_scaled</text>
<text text-anchor="middle" x="1445.5" y="-7.5" font-family="Helvetica,sans-Serif" font-size="10.00">_unit.hpp</text>
</g>
<!-- Node10&#45;&gt;Node12 -->
<g id="edge11" class="edge"><title>Node10&#45;&gt;Node12</title>
<path fill="none" stroke="midnightblue" d="M1023.18,-70.9561C1031,-69.5687 1039.58,-68.1351 1047.5,-67 1188.55,-46.7873 1227.72,-53.1069 1372.58,-31.0485"/>
<polygon fill="midnightblue" stroke="midnightblue" points="1373.38,-34.4657 1382.73,-29.4823 1372.31,-27.5475 1373.38,-34.4657"/>
</g>
<!-- Node13 -->
<g id="node13" class="node"><title>Node13</title>
<polygon fill="white" stroke="#bfbfbf" points="1526,-6 1526,-25 1639,-25 1639,-6 1526,-6"/>
<text text-anchor="middle" x="1582.5" y="-13" font-family="Helvetica,sans-Serif" font-size="10.00">boost/units/config.hpp</text>
</g>
<!-- Node10&#45;&gt;Node13 -->
<g id="edge12" class="edge"><title>Node10&#45;&gt;Node13</title>
<path fill="none" stroke="midnightblue" d="M1023.16,-70.7863C1030.98,-69.3952 1039.56,-68.0021 1047.5,-67 1255.35,-40.7643 1310.29,-61.8858 1517.5,-31 1524.34,-29.9807 1531.53,-28.6465 1538.53,-27.2001"/>
<polygon fill="midnightblue" stroke="midnightblue" points="1539.56,-30.5579 1548.6,-25.0242 1538.09,-23.7159 1539.56,-30.5579"/>
</g>
<!-- Node14 -->
<g id="node14" class="node"><title>Node14</title>
<polygon fill="white" stroke="#bfbfbf" points="0,-6 0,-25 157,-25 157,-6 0,-6"/>
<text text-anchor="middle" x="78.5" y="-13" font-family="Helvetica,sans-Serif" font-size="10.00">boost/units/base_dimension.hpp</text>
</g>
<!-- Node10&#45;&gt;Node14 -->
<g id="edge13" class="edge"><title>Node10&#45;&gt;Node14</title>
<path fill="none" stroke="midnightblue" d="M969.897,-75.6129C866.485,-73.8849 481.387,-65.3747 166.5,-31 156.119,-29.8667 145.099,-28.3241 134.499,-26.6666"/>
<polygon fill="midnightblue" stroke="midnightblue" points="134.928,-23.1906 124.498,-25.0517 133.812,-30.1011 134.928,-23.1906"/>
</g>
<!-- Node15 -->
<g id="node15" class="node"><title>Node15</title>
<polygon fill="white" stroke="#bfbfbf" points="175.5,-6 175.5,-25 303.5,-25 303.5,-6 175.5,-6"/>
<text text-anchor="middle" x="239.5" y="-13" font-family="Helvetica,sans-Serif" font-size="10.00">boost/units/base_unit.hpp</text>
</g>
<!-- Node10&#45;&gt;Node15 -->
<g id="edge14" class="edge"><title>Node10&#45;&gt;Node15</title>
<path fill="none" stroke="midnightblue" d="M969.97,-75.4977C878.37,-73.4994 567.061,-64.5101 312.5,-31 304.394,-29.933 295.836,-28.5076 287.544,-26.9662"/>
<polygon fill="midnightblue" stroke="midnightblue" points="288.092,-23.5075 277.61,-25.0448 286.763,-30.3802 288.092,-23.5075"/>
</g>
<!-- Node16 -->
<g id="node16" class="node"><title>Node16</title>
<polygon fill="white" stroke="#bfbfbf" points="321.5,-6 321.5,-25 469.5,-25 469.5,-6 321.5,-6"/>
<text text-anchor="middle" x="395.5" y="-13" font-family="Helvetica,sans-Serif" font-size="10.00">boost/units/make_system.hpp</text>
</g>
<!-- Node10&#45;&gt;Node16 -->
<g id="edge15" class="edge"><title>Node10&#45;&gt;Node16</title>
<path fill="none" stroke="midnightblue" d="M969.998,-74.5082C893.534,-70.0298 666.023,-55.4789 478.5,-31 469.339,-29.8042 459.647,-28.3159 450.243,-26.7522"/>
<polygon fill="midnightblue" stroke="midnightblue" points="450.637,-23.2688 440.19,-25.0361 449.459,-30.169 450.637,-23.2688"/>
</g>
<!-- Node17 -->
<g id="node17" class="node"><title>Node17</title>
<polygon fill="white" stroke="#bfbfbf" points="488,-0.5 488,-30.5 587,-30.5 587,-0.5 488,-0.5"/>
<text text-anchor="start" x="496" y="-18.5" font-family="Helvetica,sans-Serif" font-size="10.00">boost/units/derived</text>
<text text-anchor="middle" x="537.5" y="-7.5" font-family="Helvetica,sans-Serif" font-size="10.00">_dimension.hpp</text>
</g>
<!-- Node10&#45;&gt;Node17 -->
<g id="edge16" class="edge"><title>Node10&#45;&gt;Node17</title>
<path fill="none" stroke="midnightblue" d="M969.572,-74.2232C906.217,-69.7788 742.679,-56.7715 597.086,-31.1432"/>
<polygon fill="midnightblue" stroke="midnightblue" points="597.539,-27.6689 587.08,-29.3566 596.309,-34.5599 597.539,-27.6689"/>
</g>
<!-- Node18 -->
<g id="node18" class="node"><title>Node18</title>
<polygon fill="white" stroke="#bfbfbf" points="605,-6 605,-25 726,-25 726,-6 605,-6"/>
<text text-anchor="middle" x="665.5" y="-13" font-family="Helvetica,sans-Serif" font-size="10.00">boost/units/quantity.hpp</text>
</g>
<!-- Node10&#45;&gt;Node18 -->
<g id="edge17" class="edge"><title>Node10&#45;&gt;Node18</title>
<path fill="none" stroke="midnightblue" d="M969.662,-71.7271C922.154,-64.0884 820.181,-47.3549 734.5,-31 728.188,-29.7951 721.562,-28.4745 715.018,-27.1364"/>
<polygon fill="midnightblue" stroke="midnightblue" points="715.359,-23.6329 704.857,-25.0334 713.94,-30.4877 715.359,-23.6329"/>
</g>
<!-- Node19 -->
<g id="node19" class="node"><title>Node19</title>
<polygon fill="white" stroke="#bfbfbf" points="744,-0.5 744,-30.5 859,-30.5 859,-0.5 744,-0.5"/>
<text text-anchor="start" x="752" y="-18.5" font-family="Helvetica,sans-Serif" font-size="10.00">boost/units/base_units</text>
<text text-anchor="middle" x="801.5" y="-7.5" font-family="Helvetica,sans-Serif" font-size="10.00">/metric/barn.hpp</text>
</g>
<!-- Node10&#45;&gt;Node19 -->
<g id="edge18" class="edge"><title>Node10&#45;&gt;Node19</title>
<path fill="none" stroke="midnightblue" d="M969.795,-67.8515C940.974,-59.0574 894.246,-44.7995 857.333,-33.5362"/>
<polygon fill="midnightblue" stroke="midnightblue" points="858.278,-30.1654 847.692,-30.5945 856.235,-36.8606 858.278,-30.1654"/>
</g>
<!-- Node20 -->
<g id="node20" class="node"><title>Node20</title>
<polygon fill="white" stroke="#bfbfbf" points="877,-6 877,-25 990,-25 990,-6 877,-6"/>
<text text-anchor="middle" x="933.5" y="-13" font-family="Helvetica,sans-Serif" font-size="10.00">boost/units/cmath.hpp</text>
</g>
<!-- Node10&#45;&gt;Node20 -->
<g id="edge19" class="edge"><title>Node10&#45;&gt;Node20</title>
<path fill="none" stroke="midnightblue" d="M987.474,-67.4751C977.743,-58.285 962.042,-43.4563 950.077,-32.156"/>
<polygon fill="midnightblue" stroke="midnightblue" points="952.183,-29.3308 942.51,-25.0091 947.377,-34.4199 952.183,-29.3308"/>
</g>
<!-- Node21 -->
<g id="node21" class="node"><title>Node21</title>
<polygon fill="white" stroke="#bfbfbf" points="1657,-0.5 1657,-30.5 1762,-30.5 1762,-0.5 1657,-0.5"/>
<text text-anchor="start" x="1665" y="-18.5" font-family="Helvetica,sans-Serif" font-size="10.00">boost/units/systems</text>
<text text-anchor="middle" x="1709.5" y="-7.5" font-family="Helvetica,sans-Serif" font-size="10.00">/si/io.hpp</text>
</g>
<!-- Node10&#45;&gt;Node21 -->
<g id="edge20" class="edge"><title>Node10&#45;&gt;Node21</title>
<path fill="none" stroke="midnightblue" d="M1023.15,-70.7021C1030.97,-69.3091 1039.55,-67.9361 1047.5,-67 1310.01,-36.0789 1382.03,-69.2588 1646.8,-31.0892"/>
<polygon fill="midnightblue" stroke="midnightblue" points="1647.32,-34.5509 1656.71,-29.6411 1646.31,-27.6246 1647.32,-34.5509"/>
</g>
<!-- Node22 -->
<g id="node22" class="node"><title>Node22</title>
<polygon fill="white" stroke="#bfbfbf" points="1008,-0.5 1008,-30.5 1113,-30.5 1113,-0.5 1008,-0.5"/>
<text text-anchor="start" x="1016" y="-18.5" font-family="Helvetica,sans-Serif" font-size="10.00">boost/units/systems</text>
<text text-anchor="middle" x="1060.5" y="-7.5" font-family="Helvetica,sans-Serif" font-size="10.00">/si/plane_angle.hpp</text>
</g>
<!-- Node10&#45;&gt;Node22 -->
<g id="edge21" class="edge"><title>Node10&#45;&gt;Node22</title>
<path fill="none" stroke="midnightblue" d="M1005.67,-67.4751C1014.09,-59.6426 1026.92,-47.7145 1038.06,-37.3656"/>
<polygon fill="midnightblue" stroke="midnightblue" points="1040.48,-39.8953 1045.42,-30.523 1035.71,-34.7685 1040.48,-39.8953"/>
</g>
<!-- Node23 -->
<g id="node23" class="node"><title>Node23</title>
<polygon fill="white" stroke="#bfbfbf" points="1131,-0.5 1131,-30.5 1236,-30.5 1236,-0.5 1131,-0.5"/>
<text text-anchor="start" x="1139" y="-18.5" font-family="Helvetica,sans-Serif" font-size="10.00">boost/units/systems</text>
<text text-anchor="middle" x="1183.5" y="-7.5" font-family="Helvetica,sans-Serif" font-size="10.00">/si/length.hpp</text>
</g>
<!-- Node10&#45;&gt;Node23 -->
<g id="edge22" class="edge"><title>Node10&#45;&gt;Node23</title>
<path fill="none" stroke="midnightblue" d="M1023.29,-67.4751C1050.99,-58.6635 1094.97,-44.6684 1129.85,-33.5698"/>
<polygon fill="midnightblue" stroke="midnightblue" points="1130.96,-36.8903 1139.43,-30.523 1128.84,-30.2198 1130.96,-36.8903"/>
</g>
<!-- Node25 -->
<g id="node25" class="node"><title>Node25</title>
<g id="a_node25"><a xlink:href="../../d1/df9/Vector3_8hh.html" target="_top" xlink:title="Vector3.hh">
<polygon fill="white" stroke="black" points="1143.5,-67.5 1143.5,-86.5 1207.5,-86.5 1207.5,-67.5 1143.5,-67.5"/>
<text text-anchor="middle" x="1175.5" y="-74.5" font-family="Helvetica,sans-Serif" font-size="10.00">Vector3.hh</text>
</a>
</g>
</g>
<!-- Node24&#45;&gt;Node25 -->
<g id="edge24" class="edge"><title>Node24&#45;&gt;Node25</title>
<path fill="none" stroke="midnightblue" d="M1175.5,-123.083C1175.5,-116.006 1175.5,-105.861 1175.5,-96.9865"/>
<polygon fill="midnightblue" stroke="midnightblue" points="1179,-96.751 1175.5,-86.7511 1172,-96.7511 1179,-96.751"/>
</g>
<!-- Node26&#45;&gt;Node9 -->
<g id="edge26" class="edge"><title>Node26&#45;&gt;Node9</title>
<path fill="none" stroke="midnightblue" d="M1009.51,-123.324C1022.03,-114.979 1041.18,-102.212 1055.97,-92.3524"/>
<polygon fill="midnightblue" stroke="midnightblue" points="1058.14,-95.1137 1064.52,-86.6545 1054.26,-89.2894 1058.14,-95.1137"/>
</g>
<!-- Node26&#45;&gt;Node10 -->
<g id="edge27" class="edge"><title>Node26&#45;&gt;Node10</title>
<path fill="none" stroke="midnightblue" d="M996.5,-123.083C996.5,-116.006 996.5,-105.861 996.5,-96.9865"/>
<polygon fill="midnightblue" stroke="midnightblue" points="1000,-96.751 996.5,-86.7511 993,-96.7511 1000,-96.751"/>
</g>
<!-- Node27&#45;&gt;Node5 -->
<g id="edge30" class="edge"><title>Node27&#45;&gt;Node5</title>
<path fill="none" stroke="midnightblue" d="M1319.11,-235.444C1296.79,-226.517 1261.6,-212.439 1236.29,-202.317"/>
<polygon fill="midnightblue" stroke="midnightblue" points="1237.38,-198.981 1226.79,-198.516 1234.78,-205.48 1237.38,-198.981"/>
</g>
<!-- Node27&#45;&gt;Node9 -->
<g id="edge29" class="edge"><title>Node27&#45;&gt;Node9</title>
<path fill="none" stroke="midnightblue" d="M1370.19,-238.158C1409.12,-229.149 1469.88,-209.633 1446.5,-179 1425.44,-151.403 1192.69,-101.523 1108.05,-84.1587"/>
<polygon fill="midnightblue" stroke="midnightblue" points="1108.52,-80.6841 1098.03,-82.1133 1107.12,-87.5427 1108.52,-80.6841"/>
</g>
<!-- Node27&#45;&gt;Node21 -->
<g id="edge34" class="edge"><title>Node27&#45;&gt;Node21</title>
<path fill="none" stroke="midnightblue" d="M1370.1,-235.669C1395.45,-227.936 1432.5,-215.189 1462.5,-199 1551.36,-151.049 1643.92,-74.1728 1686.07,-37.4058"/>
<polygon fill="midnightblue" stroke="midnightblue" points="1688.61,-39.8353 1693.82,-30.6077 1683.99,-34.5748 1688.61,-39.8353"/>
</g>
<!-- Node28 -->
<g id="node28" class="node"><title>Node28</title>
<polygon fill="white" stroke="#bfbfbf" points="1245.5,-179.5 1245.5,-198.5 1297.5,-198.5 1297.5,-179.5 1245.5,-179.5"/>
<text text-anchor="middle" x="1271.5" y="-186.5" font-family="Helvetica,sans-Serif" font-size="10.00">sstream</text>
</g>
<!-- Node27&#45;&gt;Node28 -->
<g id="edge31" class="edge"><title>Node27&#45;&gt;Node28</title>
<path fill="none" stroke="midnightblue" d="M1329.41,-235.324C1319.01,-227.185 1303.24,-214.839 1290.78,-205.087"/>
<polygon fill="midnightblue" stroke="midnightblue" points="1292.82,-202.241 1282.79,-198.834 1288.51,-207.753 1292.82,-202.241"/>
</g>
<!-- Node29 -->
<g id="node29" class="node"><title>Node29</title>
<polygon fill="white" stroke="#bfbfbf" points="1315.5,-179.5 1315.5,-198.5 1365.5,-198.5 1365.5,-179.5 1315.5,-179.5"/>
<text text-anchor="middle" x="1340.5" y="-186.5" font-family="Helvetica,sans-Serif" font-size="10.00">iomanip</text>
</g>
<!-- Node27&#45;&gt;Node29 -->
<g id="edge32" class="edge"><title>Node27&#45;&gt;Node29</title>
<path fill="none" stroke="midnightblue" d="M1340.5,-235.083C1340.5,-228.006 1340.5,-217.861 1340.5,-208.986"/>
<polygon fill="midnightblue" stroke="midnightblue" points="1344,-208.751 1340.5,-198.751 1337,-208.751 1344,-208.751"/>
</g>
<!-- Node30 -->
<g id="node30" class="node"><title>Node30</title>
<polygon fill="white" stroke="#bfbfbf" points="1383.5,-179.5 1383.5,-198.5 1437.5,-198.5 1437.5,-179.5 1383.5,-179.5"/>
<text text-anchor="middle" x="1410.5" y="-186.5" font-family="Helvetica,sans-Serif" font-size="10.00">iostream</text>
</g>
<!-- Node27&#45;&gt;Node30 -->
<g id="edge33" class="edge"><title>Node27&#45;&gt;Node30</title>
<path fill="none" stroke="midnightblue" d="M1351.75,-235.324C1362.3,-227.185 1378.3,-214.839 1390.94,-205.087"/>
<polygon fill="midnightblue" stroke="midnightblue" points="1393.27,-207.713 1399.05,-198.834 1388.99,-202.171 1393.27,-207.713"/>
</g>
</g>
</svg>
