<?xml version="1.0" encoding="UTF-8" standalone="no"?>
<!DOCTYPE svg PUBLIC "-//W3C//DTD SVG 1.1//EN"
 "http://www.w3.org/Graphics/SVG/1.1/DTD/svg11.dtd">
<!-- Generated by graphviz version 2.38.0 (20140413.2041)
 -->
<!-- Title: examples/heavyhiggs/source/tagger/EventCharged.cpp Pages: 1 -->
<svg width="2020pt" height="833pt"
 viewBox="0.00 0.00 2020.00 833.00" xmlns="http://www.w3.org/2000/svg" xmlns:xlink="http://www.w3.org/1999/xlink">
<g id="graph0" class="graph" transform="scale(1 1) rotate(0) translate(4 829)">
<title>examples/heavyhiggs/source/tagger/EventCharged.cpp</title>
<polygon fill="white" stroke="none" points="-4,4 -4,-829 2016,-829 2016,4 -4,4"/>
<!-- Node1 -->
<g id="node1" class="node"><title>Node1</title>
<polygon fill="#bfbfbf" stroke="black" points="781.5,-794.5 781.5,-824.5 944.5,-824.5 944.5,-794.5 781.5,-794.5"/>
<text text-anchor="start" x="789.5" y="-812.5" font-family="Helvetica,sans-Serif" font-size="10.00">examples/heavyhiggs</text>
<text text-anchor="middle" x="863" y="-801.5" font-family="Helvetica,sans-Serif" font-size="10.00">/source/tagger/EventCharged.cpp</text>
</g>
<!-- Node2 -->
<g id="node2" class="node"><title>Node2</title>
<g id="a_node2"><a xlink:href="../../d1/d43/boca_2Event_8hh.html" target="_top" xlink:title="boca/Event.hh">
<polygon fill="white" stroke="black" points="442,-291.5 442,-310.5 522,-310.5 522,-291.5 442,-291.5"/>
<text text-anchor="middle" x="482" y="-298.5" font-family="Helvetica,sans-Serif" font-size="10.00">boca/Event.hh</text>
</a>
</g>
</g>
<!-- Node1&#45;&gt;Node2 -->
<g id="edge1" class="edge"><title>Node1&#45;&gt;Node2</title>
<path fill="none" stroke="midnightblue" d="M781.422,-804.527C566.296,-792.969 0,-755.079 0,-676.5 0,-676.5 0,-676.5 0,-423 0,-334.765 307.693,-310.283 431.399,-304.006"/>
<polygon fill="midnightblue" stroke="midnightblue" points="431.916,-307.485 441.734,-303.503 431.575,-300.494 431.916,-307.485"/>
</g>
<!-- Node15 -->
<g id="node15" class="node"><title>Node15</title>
<g id="a_node15"><a xlink:href="../../d9/d2e/tagger_2EventCharged_8hh.html" target="_top" xlink:title="include/tagger/EventCharged.hh">
<polygon fill="white" stroke="black" points="785,-733 785,-752 941,-752 941,-733 785,-733"/>
<text text-anchor="middle" x="863" y="-740" font-family="Helvetica,sans-Serif" font-size="10.00">include/tagger/EventCharged.hh</text>
</a>
</g>
</g>
<!-- Node1&#45;&gt;Node15 -->
<g id="edge19" class="edge"><title>Node1&#45;&gt;Node15</title>
<path fill="none" stroke="midnightblue" d="M863,-794.396C863,-785.064 863,-772.714 863,-762.517"/>
<polygon fill="midnightblue" stroke="midnightblue" points="866.5,-762.195 863,-752.195 859.5,-762.195 866.5,-762.195"/>
</g>
<!-- Node43 -->
<g id="node43" class="node"><title>Node43</title>
<g id="a_node43"><a xlink:href="../../d3/dcd/DEBUG__MACROS_8hh.html" target="_top" xlink:title="boca/generic/DEBUG\l_MACROS.hh">
<polygon fill="white" stroke="black" points="1373.5,-727.5 1373.5,-757.5 1484.5,-757.5 1484.5,-727.5 1373.5,-727.5"/>
<text text-anchor="start" x="1381.5" y="-745.5" font-family="Helvetica,sans-Serif" font-size="10.00">boca/generic/DEBUG</text>
<text text-anchor="middle" x="1429" y="-734.5" font-family="Helvetica,sans-Serif" font-size="10.00">_MACROS.hh</text>
</a>
</g>
</g>
<!-- Node1&#45;&gt;Node43 -->
<g id="edge56" class="edge"><title>Node1&#45;&gt;Node43</title>
<path fill="none" stroke="midnightblue" d="M944.697,-799.118C1057.72,-786.138 1259.58,-762.957 1363.38,-751.036"/>
<polygon fill="midnightblue" stroke="midnightblue" points="1363.88,-754.502 1373.41,-749.884 1363.08,-747.548 1363.88,-754.502"/>
</g>
<!-- Node3 -->
<g id="node3" class="node"><title>Node3</title>
<g id="a_node3"><a xlink:href="../../d0/d5f/Flag_8hh.html" target="_top" xlink:title="boca/generic/Flag.hh">
<polygon fill="white" stroke="black" points="393.5,-235.5 393.5,-254.5 500.5,-254.5 500.5,-235.5 393.5,-235.5"/>
<text text-anchor="middle" x="447" y="-242.5" font-family="Helvetica,sans-Serif" font-size="10.00">boca/generic/Flag.hh</text>
</a>
</g>
</g>
<!-- Node2&#45;&gt;Node3 -->
<g id="edge2" class="edge"><title>Node2&#45;&gt;Node3</title>
<path fill="none" stroke="midnightblue" d="M476.22,-291.083C471.328,-283.534 464.173,-272.495 458.167,-263.23"/>
<polygon fill="midnightblue" stroke="midnightblue" points="461.048,-261.239 452.672,-254.751 455.174,-265.046 461.048,-261.239"/>
</g>
<!-- Node5 -->
<g id="node5" class="node"><title>Node5</title>
<g id="a_node5"><a xlink:href="../../dd/df7/Jet_8hh.html" target="_top" xlink:title="boca/multiplets/Jet.hh">
<polygon fill="white" stroke="black" points="697.5,-235.5 697.5,-254.5 810.5,-254.5 810.5,-235.5 697.5,-235.5"/>
<text text-anchor="middle" x="754" y="-242.5" font-family="Helvetica,sans-Serif" font-size="10.00">boca/multiplets/Jet.hh</text>
</a>
</g>
</g>
<!-- Node2&#45;&gt;Node5 -->
<g id="edge4" class="edge"><title>Node2&#45;&gt;Node5</title>
<path fill="none" stroke="midnightblue" d="M522.135,-292.032C569.515,-282.626 648.481,-266.949 700.893,-256.543"/>
<polygon fill="midnightblue" stroke="midnightblue" points="701.877,-259.916 711.004,-254.536 700.514,-253.05 701.877,-259.916"/>
</g>
<!-- Node13 -->
<g id="node13" class="node"><title>Node13</title>
<g id="a_node13"><a xlink:href="../../d1/d9b/multiplets_2Particle_8hh.html" target="_top" xlink:title="boca/multiplets/Particle.hh">
<polygon fill="white" stroke="black" points="519,-235.5 519,-254.5 651,-254.5 651,-235.5 519,-235.5"/>
<text text-anchor="middle" x="585" y="-242.5" font-family="Helvetica,sans-Serif" font-size="10.00">boca/multiplets/Particle.hh</text>
</a>
</g>
</g>
<!-- Node2&#45;&gt;Node13 -->
<g id="edge14" class="edge"><title>Node2&#45;&gt;Node13</title>
<path fill="none" stroke="midnightblue" d="M498.549,-291.324C514.992,-282.703 540.435,-269.364 559.468,-259.386"/>
<polygon fill="midnightblue" stroke="midnightblue" points="561.261,-262.398 568.492,-254.655 558.011,-256.198 561.261,-262.398"/>
</g>
<!-- Node4 -->
<g id="node4" class="node"><title>Node4</title>
<polygon fill="white" stroke="#bfbfbf" points="416,-174 416,-193 478,-193 478,-174 416,-174"/>
<text text-anchor="middle" x="447" y="-181" font-family="Helvetica,sans-Serif" font-size="10.00">type_traits</text>
</g>
<!-- Node3&#45;&gt;Node4 -->
<g id="edge3" class="edge"><title>Node3&#45;&gt;Node4</title>
<path fill="none" stroke="midnightblue" d="M447,-235.475C447,-227.08 447,-213.981 447,-203.163"/>
<polygon fill="midnightblue" stroke="midnightblue" points="450.5,-203.009 447,-193.009 443.5,-203.009 450.5,-203.009"/>
</g>
<!-- Node6 -->
<g id="node6" class="node"><title>Node6</title>
<g id="a_node6"><a xlink:href="../../d8/d42/PseudoJet_8hh.html" target="_top" xlink:title="boca/fastjet/PseudoJet.hh">
<polygon fill="white" stroke="black" points="592.5,-112.5 592.5,-131.5 723.5,-131.5 723.5,-112.5 592.5,-112.5"/>
<text text-anchor="middle" x="658" y="-119.5" font-family="Helvetica,sans-Serif" font-size="10.00">boca/fastjet/PseudoJet.hh</text>
</a>
</g>
</g>
<!-- Node5&#45;&gt;Node6 -->
<g id="edge5" class="edge"><title>Node5&#45;&gt;Node6</title>
<path fill="none" stroke="midnightblue" d="M747.096,-235.298C731.182,-215.24 691.71,-165.489 671.061,-139.463"/>
<polygon fill="midnightblue" stroke="midnightblue" points="673.799,-137.282 664.842,-131.623 668.315,-141.632 673.799,-137.282"/>
</g>
<!-- Node9 -->
<g id="node9" class="node"><title>Node9</title>
<g id="a_node9"><a xlink:href="../../d1/dce/JetInfo_8hh.html" target="_top" xlink:title="boca/multiplets/JetInfo.hh">
<polygon fill="white" stroke="black" points="760.5,-174 760.5,-193 889.5,-193 889.5,-174 760.5,-174"/>
<text text-anchor="middle" x="825" y="-181" font-family="Helvetica,sans-Serif" font-size="10.00">boca/multiplets/JetInfo.hh</text>
</a>
</g>
</g>
<!-- Node5&#45;&gt;Node9 -->
<g id="edge9" class="edge"><title>Node5&#45;&gt;Node9</title>
<path fill="none" stroke="midnightblue" d="M764.173,-235.475C775.35,-226.108 793.517,-210.884 807.091,-199.508"/>
<polygon fill="midnightblue" stroke="midnightblue" points="809.43,-202.115 814.846,-193.009 804.934,-196.75 809.43,-202.115"/>
</g>
<!-- Node6&#45;&gt;Node6 -->
<g id="edge6" class="edge"><title>Node6&#45;&gt;Node6</title>
<path fill="none" stroke="midnightblue" d="M693.613,-131.525C717.811,-134.308 741.5,-131.133 741.5,-122 741.5,-114.151 724.005,-110.703 703.727,-111.654"/>
<polygon fill="midnightblue" stroke="midnightblue" points="703.297,-108.178 693.613,-112.475 703.863,-115.155 703.297,-108.178"/>
</g>
<!-- Node7 -->
<g id="node7" class="node"><title>Node7</title>
<g id="a_node7"><a xlink:href="../../d6/dc8/LorentzVector_8hh.html" target="_top" xlink:title="boca/math/LorentzVector.hh">
<polygon fill="white" stroke="red" points="588,-56.5 588,-75.5 728,-75.5 728,-56.5 588,-56.5"/>
<text text-anchor="middle" x="658" y="-63.5" font-family="Helvetica,sans-Serif" font-size="10.00">boca/math/LorentzVector.hh</text>
</a>
</g>
</g>
<!-- Node6&#45;&gt;Node7 -->
<g id="edge7" class="edge"><title>Node6&#45;&gt;Node7</title>
<path fill="none" stroke="midnightblue" d="M658,-112.083C658,-105.006 658,-94.8611 658,-85.9865"/>
<polygon fill="midnightblue" stroke="midnightblue" points="661.5,-85.751 658,-75.7511 654.5,-85.7511 661.5,-85.751"/>
</g>
<!-- Node8 -->
<g id="node8" class="node"><title>Node8</title>
<g id="a_node8"><a xlink:href="../../d0/df5/delphes_2Forward_8hh.html" target="_top" xlink:title="boca/delphes/Forward.hh">
<polygon fill="white" stroke="red" points="595,-0.5 595,-19.5 721,-19.5 721,-0.5 595,-0.5"/>
<text text-anchor="middle" x="658" y="-7.5" font-family="Helvetica,sans-Serif" font-size="10.00">boca/delphes/Forward.hh</text>
</a>
</g>
</g>
<!-- Node7&#45;&gt;Node8 -->
<g id="edge8" class="edge"><title>Node7&#45;&gt;Node8</title>
<path fill="none" stroke="midnightblue" d="M658,-56.083C658,-49.0059 658,-38.8611 658,-29.9865"/>
<polygon fill="midnightblue" stroke="midnightblue" points="661.5,-29.751 658,-19.7511 654.5,-29.7511 661.5,-29.751"/>
</g>
<!-- Node9&#45;&gt;Node6 -->
<g id="edge10" class="edge"><title>Node9&#45;&gt;Node6</title>
<path fill="none" stroke="midnightblue" d="M801.073,-173.975C772.303,-163.725 723.844,-146.459 691.398,-134.899"/>
<polygon fill="midnightblue" stroke="midnightblue" points="692.477,-131.568 681.883,-131.509 690.128,-138.162 692.477,-131.568"/>
</g>
<!-- Node10 -->
<g id="node10" class="node"><title>Node10</title>
<g id="a_node10"><a xlink:href="../../d3/d32/Constituent_8hh.html" target="_top" xlink:title="boca/Constituent.hh">
<polygon fill="white" stroke="black" points="933,-112.5 933,-131.5 1037,-131.5 1037,-112.5 933,-112.5"/>
<text text-anchor="middle" x="985" y="-119.5" font-family="Helvetica,sans-Serif" font-size="10.00">boca/Constituent.hh</text>
</a>
</g>
</g>
<!-- Node9&#45;&gt;Node10 -->
<g id="edge11" class="edge"><title>Node9&#45;&gt;Node10</title>
<path fill="none" stroke="midnightblue" d="M847.924,-173.975C875.37,-163.769 921.516,-146.608 952.599,-135.049"/>
<polygon fill="midnightblue" stroke="midnightblue" points="953.965,-138.275 962.118,-131.509 951.526,-131.714 953.965,-138.275"/>
</g>
<!-- Node12 -->
<g id="node12" class="node"><title>Node12</title>
<g id="a_node12"><a xlink:href="../../d8/d85/Identification_8hh.html" target="_top" xlink:title="boca/multiplets/Identification.hh">
<polygon fill="white" stroke="red" points="759.5,-112.5 759.5,-131.5 914.5,-131.5 914.5,-112.5 759.5,-112.5"/>
<text text-anchor="middle" x="837" y="-119.5" font-family="Helvetica,sans-Serif" font-size="10.00">boca/multiplets/Identification.hh</text>
</a>
</g>
</g>
<!-- Node9&#45;&gt;Node12 -->
<g id="edge13" class="edge"><title>Node9&#45;&gt;Node12</title>
<path fill="none" stroke="midnightblue" d="M826.719,-173.975C828.43,-165.492 831.11,-152.204 833.305,-141.322"/>
<polygon fill="midnightblue" stroke="midnightblue" points="836.738,-142.004 835.284,-131.509 829.876,-140.62 836.738,-142.004"/>
</g>
<!-- Node11 -->
<g id="node11" class="node"><title>Node11</title>
<g id="a_node11"><a xlink:href="../../d0/d9c/Family_8hh.html" target="_top" xlink:title="boca/physics/Family.hh">
<polygon fill="white" stroke="red" points="835,-56.5 835,-75.5 955,-75.5 955,-56.5 835,-56.5"/>
<text text-anchor="middle" x="895" y="-63.5" font-family="Helvetica,sans-Serif" font-size="10.00">boca/physics/Family.hh</text>
</a>
</g>
</g>
<!-- Node10&#45;&gt;Node11 -->
<g id="edge12" class="edge"><title>Node10&#45;&gt;Node11</title>
<path fill="none" stroke="midnightblue" d="M970.54,-112.324C956.5,-103.9 934.952,-90.9709 918.457,-81.0741"/>
<polygon fill="midnightblue" stroke="midnightblue" points="919.8,-77.7983 909.424,-75.6545 916.198,-83.8007 919.8,-77.7983"/>
</g>
<!-- Node13&#45;&gt;Node6 -->
<g id="edge15" class="edge"><title>Node13&#45;&gt;Node6</title>
<path fill="none" stroke="midnightblue" d="M599.293,-235.44C611.371,-227.478 628.222,-214.525 638,-199 649,-181.535 653.984,-158.172 656.22,-141.98"/>
<polygon fill="midnightblue" stroke="midnightblue" points="659.743,-141.979 657.41,-131.644 652.789,-141.178 659.743,-141.979"/>
</g>
<!-- Node14 -->
<g id="node14" class="node"><title>Node14</title>
<g id="a_node14"><a xlink:href="../../da/d36/ParticleInfo_8hh.html" target="_top" xlink:title="boca/multiplets/Particle\lInfo.hh">
<polygon fill="white" stroke="black" points="510.5,-168.5 510.5,-198.5 629.5,-198.5 629.5,-168.5 510.5,-168.5"/>
<text text-anchor="start" x="518.5" y="-186.5" font-family="Helvetica,sans-Serif" font-size="10.00">boca/multiplets/Particle</text>
<text text-anchor="middle" x="570" y="-175.5" font-family="Helvetica,sans-Serif" font-size="10.00">Info.hh</text>
</a>
</g>
</g>
<!-- Node13&#45;&gt;Node14 -->
<g id="edge16" class="edge"><title>Node13&#45;&gt;Node14</title>
<path fill="none" stroke="midnightblue" d="M582.851,-235.475C581.066,-228.396 578.438,-217.97 576.023,-208.39"/>
<polygon fill="midnightblue" stroke="midnightblue" points="579.374,-207.364 573.535,-198.523 572.586,-209.075 579.374,-207.364"/>
</g>
<!-- Node14&#45;&gt;Node6 -->
<g id="edge17" class="edge"><title>Node14&#45;&gt;Node6</title>
<path fill="none" stroke="midnightblue" d="M590.855,-168.399C604.697,-159.04 622.811,-146.792 636.736,-137.377"/>
<polygon fill="midnightblue" stroke="midnightblue" points="638.872,-140.158 645.195,-131.658 634.951,-134.36 638.872,-140.158"/>
</g>
<!-- Node14&#45;&gt;Node11 -->
<g id="edge18" class="edge"><title>Node14&#45;&gt;Node11</title>
<path fill="none" stroke="midnightblue" d="M568.21,-168.373C567.04,-152.326 567.929,-126.493 583,-112 600.17,-95.4886 738.298,-80.6218 824.914,-72.7998"/>
<polygon fill="midnightblue" stroke="midnightblue" points="825.3,-76.2793 834.95,-71.9041 824.678,-69.307 825.3,-76.2793"/>
</g>
<!-- Node16 -->
<g id="node16" class="node"><title>Node16</title>
<g id="a_node16"><a xlink:href="../../df/d93/EventMultiplet_8hh.html" target="_top" xlink:title="boca/multiplets/EventMultiplet.hh">
<polygon fill="white" stroke="black" points="1068.5,-470.5 1068.5,-489.5 1229.5,-489.5 1229.5,-470.5 1068.5,-470.5"/>
<text text-anchor="middle" x="1149" y="-477.5" font-family="Helvetica,sans-Serif" font-size="10.00">boca/multiplets/EventMultiplet.hh</text>
</a>
</g>
</g>
<!-- Node15&#45;&gt;Node16 -->
<g id="edge20" class="edge"><title>Node15&#45;&gt;Node16</title>
<path fill="none" stroke="midnightblue" d="M930.838,-732.984C1085.03,-712.094 1454.11,-652.911 1527,-557 1535.34,-546.031 1536.15,-536.302 1527,-526 1508.22,-504.846 1345.45,-491.859 1239.72,-485.577"/>
<polygon fill="midnightblue" stroke="midnightblue" points="1239.86,-482.079 1229.67,-484.99 1239.45,-489.067 1239.86,-482.079"/>
</g>
<!-- Node25 -->
<g id="node25" class="node"><title>Node25</title>
<g id="a_node25"><a xlink:href="../../dc/dae/SignatureCharged_8hh.html" target="_top" xlink:title="include/tagger/Signature\lCharged.hh">
<polygon fill="white" stroke="black" points="802,-660.5 802,-690.5 924,-690.5 924,-660.5 802,-660.5"/>
<text text-anchor="start" x="810" y="-678.5" font-family="Helvetica,sans-Serif" font-size="10.00">include/tagger/Signature</text>
<text text-anchor="middle" x="863" y="-667.5" font-family="Helvetica,sans-Serif" font-size="10.00">Charged.hh</text>
</a>
</g>
</g>
<!-- Node15&#45;&gt;Node25 -->
<g id="edge33" class="edge"><title>Node15&#45;&gt;Node25</title>
<path fill="none" stroke="midnightblue" d="M863,-732.734C863,-724.541 863,-711.923 863,-700.714"/>
<polygon fill="midnightblue" stroke="midnightblue" points="866.5,-700.589 863,-690.589 859.5,-700.589 866.5,-700.589"/>
</g>
<!-- Node39 -->
<g id="node39" class="node"><title>Node39</title>
<g id="a_node39"><a xlink:href="../../d1/d33/branch_2EventCharged_8hh.html" target="_top" xlink:title="include/branch/EventCharged.hh">
<polygon fill="white" stroke="black" points="353,-666 353,-685 511,-685 511,-666 353,-666"/>
<text text-anchor="middle" x="432" y="-673" font-family="Helvetica,sans-Serif" font-size="10.00">include/branch/EventCharged.hh</text>
</a>
</g>
</g>
<!-- Node15&#45;&gt;Node39 -->
<g id="edge52" class="edge"><title>Node15&#45;&gt;Node39</title>
<path fill="none" stroke="midnightblue" d="M806.211,-732.936C726.806,-720.96 582.89,-699.256 498.553,-686.537"/>
<polygon fill="midnightblue" stroke="midnightblue" points="498.982,-683.062 488.572,-685.032 497.938,-689.984 498.982,-683.062"/>
</g>
<!-- Node17 -->
<g id="node17" class="node"><title>Node17</title>
<g id="a_node17"><a xlink:href="../../dd/d58/GlobalObservables_8hh.html" target="_top" xlink:title="boca/multiplets/GlobalObservables.hh">
<polygon fill="white" stroke="black" points="1053,-414.5 1053,-433.5 1235,-433.5 1235,-414.5 1053,-414.5"/>
<text text-anchor="middle" x="1144" y="-421.5" font-family="Helvetica,sans-Serif" font-size="10.00">boca/multiplets/GlobalObservables.hh</text>
</a>
</g>
</g>
<!-- Node16&#45;&gt;Node17 -->
<g id="edge21" class="edge"><title>Node16&#45;&gt;Node17</title>
<path fill="none" stroke="midnightblue" d="M1148.17,-470.083C1147.52,-463.006 1146.58,-452.861 1145.76,-443.986"/>
<polygon fill="midnightblue" stroke="midnightblue" points="1149.22,-443.386 1144.81,-433.751 1142.25,-444.031 1149.22,-443.386"/>
</g>
<!-- Node19 -->
<g id="node19" class="node"><title>Node19</title>
<g id="a_node19"><a xlink:href="../../d2/d91/multiplets_2TwoBody_8hh.html" target="_top" xlink:title="boca/multiplets/TwoBody.hh">
<polygon fill="white" stroke="black" points="792,-414.5 792,-433.5 932,-433.5 932,-414.5 792,-414.5"/>
<text text-anchor="middle" x="862" y="-421.5" font-family="Helvetica,sans-Serif" font-size="10.00">boca/multiplets/TwoBody.hh</text>
</a>
</g>
</g>
<!-- Node16&#45;&gt;Node19 -->
<g id="edge24" class="edge"><title>Node16&#45;&gt;Node19</title>
<path fill="none" stroke="midnightblue" d="M1103.52,-470.444C1053.04,-460.944 971.544,-445.611 917.38,-435.42"/>
<polygon fill="midnightblue" stroke="midnightblue" points="917.738,-431.926 907.263,-433.516 916.444,-438.805 917.738,-431.926"/>
</g>
<!-- Node18 -->
<g id="node18" class="node"><title>Node18</title>
<g id="a_node18"><a xlink:href="../../db/d60/Singlet_8hh.html" target="_top" xlink:title="boca/multiplets/Singlet.hh">
<polygon fill="white" stroke="red" points="851.5,-291.5 851.5,-310.5 980.5,-310.5 980.5,-291.5 851.5,-291.5"/>
<text text-anchor="middle" x="916" y="-298.5" font-family="Helvetica,sans-Serif" font-size="10.00">boca/multiplets/Singlet.hh</text>
</a>
</g>
</g>
<!-- Node17&#45;&gt;Node18 -->
<g id="edge22" class="edge"><title>Node17&#45;&gt;Node18</title>
<path fill="none" stroke="midnightblue" d="M1139.23,-414.473C1129.95,-398.677 1107.89,-364.854 1080,-347 1053.3,-329.912 1020.15,-319.242 990.658,-312.612"/>
<polygon fill="midnightblue" stroke="midnightblue" points="991.32,-309.175 980.811,-310.515 989.862,-316.021 991.32,-309.175"/>
</g>
<!-- Node18&#45;&gt;Node5 -->
<g id="edge23" class="edge"><title>Node18&#45;&gt;Node5</title>
<path fill="none" stroke="midnightblue" d="M890.331,-291.444C863.077,-282.359 819.816,-267.939 789.349,-257.783"/>
<polygon fill="midnightblue" stroke="midnightblue" points="790.143,-254.358 779.549,-254.516 787.929,-260.999 790.143,-254.358"/>
</g>
<!-- Node20 -->
<g id="node20" class="node"><title>Node20</title>
<polygon fill="white" stroke="#bfbfbf" points="807,-347.5 807,-377.5 917,-377.5 917,-347.5 807,-347.5"/>
<text text-anchor="start" x="815" y="-365.5" font-family="Helvetica,sans-Serif" font-size="10.00">boost/range/algorithm</text>
<text text-anchor="middle" x="862" y="-354.5" font-family="Helvetica,sans-Serif" font-size="10.00">/unique.hpp</text>
</g>
<!-- Node19&#45;&gt;Node20 -->
<g id="edge25" class="edge"><title>Node19&#45;&gt;Node20</title>
<path fill="none" stroke="midnightblue" d="M862,-414.475C862,-407.471 862,-397.192 862,-387.696"/>
<polygon fill="midnightblue" stroke="midnightblue" points="865.5,-387.523 862,-377.523 858.5,-387.523 865.5,-387.523"/>
</g>
<!-- Node21 -->
<g id="node21" class="node"><title>Node21</title>
<g id="a_node21"><a xlink:href="../../d3/d7e/Vector_8hh.html" target="_top" xlink:title="boca/generic/Vector.hh">
<polygon fill="white" stroke="red" points="935.5,-353 935.5,-372 1052.5,-372 1052.5,-353 935.5,-353"/>
<text text-anchor="middle" x="994" y="-360" font-family="Helvetica,sans-Serif" font-size="10.00">boca/generic/Vector.hh</text>
</a>
</g>
</g>
<!-- Node19&#45;&gt;Node21 -->
<g id="edge26" class="edge"><title>Node19&#45;&gt;Node21</title>
<path fill="none" stroke="midnightblue" d="M880.912,-414.475C903.163,-404.445 940.312,-387.7 965.926,-376.155"/>
<polygon fill="midnightblue" stroke="midnightblue" points="967.444,-379.309 975.123,-372.009 964.568,-372.928 967.444,-379.309"/>
</g>
<!-- Node22 -->
<g id="node22" class="node"><title>Node22</title>
<g id="a_node22"><a xlink:href="../../da/d4d/ClusterSequence_8hh.html" target="_top" xlink:title="boca/fastjet/ClusterSequence.hh">
<polygon fill="white" stroke="black" points="674.5,-291.5 674.5,-310.5 833.5,-310.5 833.5,-291.5 674.5,-291.5"/>
<text text-anchor="middle" x="754" y="-298.5" font-family="Helvetica,sans-Serif" font-size="10.00">boca/fastjet/ClusterSequence.hh</text>
</a>
</g>
</g>
<!-- Node19&#45;&gt;Node22 -->
<g id="edge27" class="edge"><title>Node19&#45;&gt;Node22</title>
<path fill="none" stroke="midnightblue" d="M932.074,-418.774C1004.39,-411.835 1101.38,-393.731 1061,-347 1053.71,-338.562 927.361,-322.208 839.055,-311.712"/>
<polygon fill="midnightblue" stroke="midnightblue" points="839.365,-308.224 829.023,-310.525 838.543,-315.176 839.365,-308.224"/>
</g>
<!-- Node23 -->
<g id="node23" class="node"><title>Node23</title>
<g id="a_node23"><a xlink:href="../../d0/d7f/Multiplet_8hh.html" target="_top" xlink:title="boca/multiplets/Multiplet.hh">
<polygon fill="white" stroke="red" points="517,-353 517,-372 653,-372 653,-353 517,-353"/>
<text text-anchor="middle" x="585" y="-360" font-family="Helvetica,sans-Serif" font-size="10.00">boca/multiplets/Multiplet.hh</text>
</a>
</g>
</g>
<!-- Node19&#45;&gt;Node23 -->
<g id="edge29" class="edge"><title>Node19&#45;&gt;Node23</title>
<path fill="none" stroke="midnightblue" d="M822.313,-414.475C772.843,-403.849 688.28,-385.685 634.592,-374.152"/>
<polygon fill="midnightblue" stroke="midnightblue" points="635.126,-370.687 624.614,-372.009 633.656,-377.531 635.126,-370.687"/>
</g>
<!-- Node24 -->
<g id="node24" class="node"><title>Node24</title>
<g id="a_node24"><a xlink:href="../../db/d31/Sort_8hh.html" target="_top" xlink:title="boca/multiplets/Sort.hh">
<polygon fill="white" stroke="red" points="671.5,-353 671.5,-372 788.5,-372 788.5,-353 671.5,-353"/>
<text text-anchor="middle" x="730" y="-360" font-family="Helvetica,sans-Serif" font-size="10.00">boca/multiplets/Sort.hh</text>
</a>
</g>
</g>
<!-- Node19&#45;&gt;Node24 -->
<g id="edge32" class="edge"><title>Node19&#45;&gt;Node24</title>
<path fill="none" stroke="midnightblue" d="M843.088,-414.475C820.837,-404.445 783.688,-387.7 758.074,-376.155"/>
<polygon fill="midnightblue" stroke="midnightblue" points="759.432,-372.928 748.877,-372.009 756.556,-379.309 759.432,-372.928"/>
</g>
<!-- Node22&#45;&gt;Node5 -->
<g id="edge28" class="edge"><title>Node22&#45;&gt;Node5</title>
<path fill="none" stroke="midnightblue" d="M754,-291.083C754,-284.006 754,-273.861 754,-264.986"/>
<polygon fill="midnightblue" stroke="midnightblue" points="757.5,-264.751 754,-254.751 750.5,-264.751 757.5,-264.751"/>
</g>
<!-- Node23&#45;&gt;Node13 -->
<g id="edge31" class="edge"><title>Node23&#45;&gt;Node13</title>
<path fill="none" stroke="midnightblue" d="M585,-352.819C585,-334.257 585,-290.339 585,-264.973"/>
<polygon fill="midnightblue" stroke="midnightblue" points="588.5,-264.782 585,-254.782 581.5,-264.782 588.5,-264.782"/>
</g>
<!-- Node23&#45;&gt;Node18 -->
<g id="edge30" class="edge"><title>Node23&#45;&gt;Node18</title>
<path fill="none" stroke="midnightblue" d="M629.773,-352.984C640.337,-350.998 651.562,-348.907 662,-347 728.701,-334.811 805.351,-321.3 856.85,-312.293"/>
<polygon fill="midnightblue" stroke="midnightblue" points="857.556,-315.723 866.804,-310.554 856.351,-308.828 857.556,-315.723"/>
</g>
<!-- Node26 -->
<g id="node26" class="node"><title>Node26</title>
<g id="a_node26"><a xlink:href="../../dd/de9/boca_2multiplets_2Octet_8hh.html" target="_top" xlink:title="boca/multiplets/Octet.hh">
<polygon fill="white" stroke="black" points="877.5,-599 877.5,-618 1000.5,-618 1000.5,-599 877.5,-599"/>
<text text-anchor="middle" x="939" y="-606" font-family="Helvetica,sans-Serif" font-size="10.00">boca/multiplets/Octet.hh</text>
</a>
</g>
</g>
<!-- Node25&#45;&gt;Node26 -->
<g id="edge34" class="edge"><title>Node25&#45;&gt;Node26</title>
<path fill="none" stroke="midnightblue" d="M879.491,-660.396C891.693,-649.96 908.307,-635.751 920.879,-624.998"/>
<polygon fill="midnightblue" stroke="midnightblue" points="923.509,-627.354 928.834,-618.195 918.96,-622.034 923.509,-627.354"/>
</g>
<!-- Node31 -->
<g id="node31" class="node"><title>Node31</title>
<g id="a_node31"><a xlink:href="../../d2/deb/tagger_2ChargedHiggsSemi_8hh.html" target="_top" xlink:title="include/tagger/ChargedHiggs\lSemi.hh">
<polygon fill="white" stroke="black" points="716.5,-593.5 716.5,-623.5 859.5,-623.5 859.5,-593.5 716.5,-593.5"/>
<text text-anchor="start" x="724.5" y="-611.5" font-family="Helvetica,sans-Serif" font-size="10.00">include/tagger/ChargedHiggs</text>
<text text-anchor="middle" x="788" y="-600.5" font-family="Helvetica,sans-Serif" font-size="10.00">Semi.hh</text>
</a>
</g>
</g>
<!-- Node25&#45;&gt;Node31 -->
<g id="edge41" class="edge"><title>Node25&#45;&gt;Node31</title>
<path fill="none" stroke="midnightblue" d="M846.726,-660.396C836.603,-651.623 823.403,-640.183 812.082,-630.371"/>
<polygon fill="midnightblue" stroke="midnightblue" points="814.091,-627.481 804.242,-623.577 809.507,-632.771 814.091,-627.481"/>
</g>
<!-- Node35 -->
<g id="node35" class="node"><title>Node35</title>
<g id="a_node35"><a xlink:href="../../d7/da4/tagger_2TripletJetPair_8hh.html" target="_top" xlink:title="include/tagger/TripletJet\lPair.hh">
<polygon fill="white" stroke="black" points="509.5,-593.5 509.5,-623.5 630.5,-623.5 630.5,-593.5 509.5,-593.5"/>
<text text-anchor="start" x="517.5" y="-611.5" font-family="Helvetica,sans-Serif" font-size="10.00">include/tagger/TripletJet</text>
<text text-anchor="middle" x="570" y="-600.5" font-family="Helvetica,sans-Serif" font-size="10.00">Pair.hh</text>
</a>
</g>
</g>
<!-- Node25&#45;&gt;Node35 -->
<g id="edge46" class="edge"><title>Node25&#45;&gt;Node35</title>
<path fill="none" stroke="midnightblue" d="M801.934,-660.953C754.941,-650.528 689.92,-636.104 640.678,-625.179"/>
<polygon fill="midnightblue" stroke="midnightblue" points="641.257,-621.723 630.736,-622.974 639.74,-628.557 641.257,-621.723"/>
</g>
<!-- Node38 -->
<g id="node38" class="node"><title>Node38</title>
<g id="a_node38"><a xlink:href="../../d7/d1a/OctetCharged_8hh.html" target="_top" xlink:title="include/branch/OctetCharged.hh">
<polygon fill="white" stroke="black" points="1361.5,-532 1361.5,-551 1518.5,-551 1518.5,-532 1361.5,-532"/>
<text text-anchor="middle" x="1440" y="-539" font-family="Helvetica,sans-Serif" font-size="10.00">include/branch/OctetCharged.hh</text>
</a>
</g>
</g>
<!-- Node25&#45;&gt;Node38 -->
<g id="edge50" class="edge"><title>Node25&#45;&gt;Node38</title>
<path fill="none" stroke="midnightblue" d="M924.203,-660.499C1039.99,-634.011 1288.79,-577.093 1392.79,-553.3"/>
<polygon fill="midnightblue" stroke="midnightblue" points="1393.72,-556.678 1402.69,-551.036 1392.16,-549.854 1393.72,-556.678"/>
</g>
<!-- Node27 -->
<g id="node27" class="node"><title>Node27</title>
<g id="a_node27"><a xlink:href="../../d2/d98/Sextet_8hh.html" target="_top" xlink:title="boca/multiplets/Sextet.hh">
<polygon fill="white" stroke="red" points="1215,-532 1215,-551 1343,-551 1343,-532 1215,-532"/>
<text text-anchor="middle" x="1279" y="-539" font-family="Helvetica,sans-Serif" font-size="10.00">boca/multiplets/Sextet.hh</text>
</a>
</g>
</g>
<!-- Node26&#45;&gt;Node27 -->
<g id="edge35" class="edge"><title>Node26&#45;&gt;Node27</title>
<path fill="none" stroke="midnightblue" d="M984.672,-598.914C1037.67,-588.93 1127.69,-571.913 1205,-557 1211.65,-555.717 1218.63,-554.361 1225.55,-553.013"/>
<polygon fill="midnightblue" stroke="midnightblue" points="1226.43,-556.406 1235.57,-551.053 1225.09,-549.536 1226.43,-556.406"/>
</g>
<!-- Node28 -->
<g id="node28" class="node"><title>Node28</title>
<g id="a_node28"><a xlink:href="../../d5/d5f/Quintet_8hh.html" target="_top" xlink:title="boca/multiplets/Quintet.hh">
<polygon fill="white" stroke="red" points="1065.5,-532 1065.5,-551 1196.5,-551 1196.5,-532 1065.5,-532"/>
<text text-anchor="middle" x="1131" y="-539" font-family="Helvetica,sans-Serif" font-size="10.00">boca/multiplets/Quintet.hh</text>
</a>
</g>
</g>
<!-- Node26&#45;&gt;Node28 -->
<g id="edge36" class="edge"><title>Node26&#45;&gt;Node28</title>
<path fill="none" stroke="midnightblue" d="M964.496,-598.869C998.3,-587.424 1058.1,-567.181 1096.08,-554.322"/>
<polygon fill="midnightblue" stroke="midnightblue" points="1097.35,-557.586 1105.7,-551.064 1095.11,-550.955 1097.35,-557.586"/>
</g>
<!-- Node29 -->
<g id="node29" class="node"><title>Node29</title>
<g id="a_node29"><a xlink:href="../../d5/d38/Quartet_8hh.html" target="_top" xlink:title="boca/multiplets/Quartet.hh">
<polygon fill="white" stroke="red" points="580.5,-532 580.5,-551 711.5,-551 711.5,-532 580.5,-532"/>
<text text-anchor="middle" x="646" y="-539" font-family="Helvetica,sans-Serif" font-size="10.00">boca/multiplets/Quartet.hh</text>
</a>
</g>
</g>
<!-- Node26&#45;&gt;Node29 -->
<g id="edge37" class="edge"><title>Node26&#45;&gt;Node29</title>
<path fill="none" stroke="midnightblue" d="M900.394,-598.936C847.474,-587.196 752.405,-566.105 694.67,-553.297"/>
<polygon fill="midnightblue" stroke="midnightblue" points="695.212,-549.832 684.691,-551.083 693.696,-556.666 695.212,-549.832"/>
</g>
<!-- Node30 -->
<g id="node30" class="node"><title>Node30</title>
<g id="a_node30"><a xlink:href="../../dc/d64/multiplets_2ThreeBody_8hh.html" target="_top" xlink:title="boca/multiplets/ThreeBody.hh">
<polygon fill="white" stroke="black" points="779,-470.5 779,-489.5 925,-489.5 925,-470.5 779,-470.5"/>
<text text-anchor="middle" x="852" y="-477.5" font-family="Helvetica,sans-Serif" font-size="10.00">boca/multiplets/ThreeBody.hh</text>
</a>
</g>
</g>
<!-- Node26&#45;&gt;Node30 -->
<g id="edge40" class="edge"><title>Node26&#45;&gt;Node30</title>
<path fill="none" stroke="midnightblue" d="M929.806,-598.769C919.964,-589.129 904.249,-572.866 893,-557 879.769,-538.34 867.746,-514.926 860.19,-499.053"/>
<polygon fill="midnightblue" stroke="midnightblue" points="863.294,-497.428 855.902,-489.837 856.947,-500.38 863.294,-497.428"/>
</g>
<!-- Node29&#45;&gt;Node30 -->
<g id="edge38" class="edge"><title>Node29&#45;&gt;Node30</title>
<path fill="none" stroke="midnightblue" d="M675.515,-531.975C711.616,-521.548 772.848,-503.862 812.854,-492.307"/>
<polygon fill="midnightblue" stroke="midnightblue" points="813.904,-495.647 822.54,-489.509 811.961,-488.922 813.904,-495.647"/>
</g>
<!-- Node30&#45;&gt;Node19 -->
<g id="edge39" class="edge"><title>Node30&#45;&gt;Node19</title>
<path fill="none" stroke="midnightblue" d="M853.651,-470.083C854.976,-462.927 856.882,-452.635 858.539,-443.691"/>
<polygon fill="midnightblue" stroke="midnightblue" points="862,-444.221 860.379,-433.751 855.117,-442.947 862,-444.221"/>
</g>
<!-- Node31&#45;&gt;Node29 -->
<g id="edge43" class="edge"><title>Node31&#45;&gt;Node29</title>
<path fill="none" stroke="midnightblue" d="M757.188,-593.396C732.383,-582.041 697.819,-566.22 673.84,-555.244"/>
<polygon fill="midnightblue" stroke="midnightblue" points="675.134,-551.987 664.585,-551.007 672.22,-558.352 675.134,-551.987"/>
</g>
<!-- Node32 -->
<g id="node32" class="node"><title>Node32</title>
<g id="a_node32"><a xlink:href="../../dc/de8/tagger_2TopLeptonic_8hh.html" target="_top" xlink:title="boca/standardmodel\l/tagger/TopLeptonic.hh">
<polygon fill="white" stroke="red" points="730,-526.5 730,-556.5 846,-556.5 846,-526.5 730,-526.5"/>
<text text-anchor="start" x="738" y="-544.5" font-family="Helvetica,sans-Serif" font-size="10.00">boca/standardmodel</text>
<text text-anchor="middle" x="788" y="-533.5" font-family="Helvetica,sans-Serif" font-size="10.00">/tagger/TopLeptonic.hh</text>
</a>
</g>
</g>
<!-- Node31&#45;&gt;Node32 -->
<g id="edge42" class="edge"><title>Node31&#45;&gt;Node32</title>
<path fill="none" stroke="midnightblue" d="M788,-593.396C788,-585.645 788,-575.812 788,-566.86"/>
<polygon fill="midnightblue" stroke="midnightblue" points="791.5,-566.576 788,-556.577 784.5,-566.577 791.5,-566.576"/>
</g>
<!-- Node33 -->
<g id="node33" class="node"><title>Node33</title>
<g id="a_node33"><a xlink:href="../../da/ddf/branch_2ChargedHiggsSemi_8hh.html" target="_top" xlink:title="include/branch/ChargedHiggs\lSemi.hh">
<polygon fill="white" stroke="black" points="902.5,-526.5 902.5,-556.5 1047.5,-556.5 1047.5,-526.5 902.5,-526.5"/>
<text text-anchor="start" x="910.5" y="-544.5" font-family="Helvetica,sans-Serif" font-size="10.00">include/branch/ChargedHiggs</text>
<text text-anchor="middle" x="975" y="-533.5" font-family="Helvetica,sans-Serif" font-size="10.00">Semi.hh</text>
</a>
</g>
</g>
<!-- Node31&#45;&gt;Node33 -->
<g id="edge44" class="edge"><title>Node31&#45;&gt;Node33</title>
<path fill="none" stroke="midnightblue" d="M828.576,-593.396C856.879,-583.558 894.829,-570.367 925.002,-559.879"/>
<polygon fill="midnightblue" stroke="midnightblue" points="926.206,-563.166 934.503,-556.577 923.908,-556.554 926.206,-563.166"/>
</g>
<!-- Node34 -->
<g id="node34" class="node"><title>Node34</title>
<g id="a_node34"><a xlink:href="../../da/df0/Multi_8hh.html" target="_top" xlink:title="boca/branch/Multi.hh">
<polygon fill="white" stroke="red" points="943.5,-470.5 943.5,-489.5 1050.5,-489.5 1050.5,-470.5 943.5,-470.5"/>
<text text-anchor="middle" x="997" y="-477.5" font-family="Helvetica,sans-Serif" font-size="10.00">boca/branch/Multi.hh</text>
</a>
</g>
</g>
<!-- Node33&#45;&gt;Node34 -->
<g id="edge45" class="edge"><title>Node33&#45;&gt;Node34</title>
<path fill="none" stroke="midnightblue" d="M980.214,-526.399C983.213,-518.288 987.014,-508.007 990.241,-499.281"/>
<polygon fill="midnightblue" stroke="midnightblue" points="993.614,-500.251 993.799,-489.658 987.048,-497.823 993.614,-500.251"/>
</g>
<!-- Node35&#45;&gt;Node29 -->
<g id="edge47" class="edge"><title>Node35&#45;&gt;Node29</title>
<path fill="none" stroke="midnightblue" d="M586.491,-593.396C598.693,-582.96 615.307,-568.751 627.879,-557.998"/>
<polygon fill="midnightblue" stroke="midnightblue" points="630.509,-560.354 635.834,-551.195 625.96,-555.034 630.509,-560.354"/>
</g>
<!-- Node36 -->
<g id="node36" class="node"><title>Node36</title>
<g id="a_node36"><a xlink:href="../../de/d18/tagger_2TopHadronic_8hh.html" target="_top" xlink:title="boca/standardmodel\l/tagger/TopHadronic.hh">
<polygon fill="white" stroke="red" points="443.5,-526.5 443.5,-556.5 562.5,-556.5 562.5,-526.5 443.5,-526.5"/>
<text text-anchor="start" x="451.5" y="-544.5" font-family="Helvetica,sans-Serif" font-size="10.00">boca/standardmodel</text>
<text text-anchor="middle" x="503" y="-533.5" font-family="Helvetica,sans-Serif" font-size="10.00">/tagger/TopHadronic.hh</text>
</a>
</g>
</g>
<!-- Node35&#45;&gt;Node36 -->
<g id="edge48" class="edge"><title>Node35&#45;&gt;Node36</title>
<path fill="none" stroke="midnightblue" d="M555.462,-593.396C546.507,-584.708 534.856,-573.405 524.809,-563.658"/>
<polygon fill="midnightblue" stroke="midnightblue" points="527.124,-561.028 517.51,-556.577 522.25,-566.052 527.124,-561.028"/>
</g>
<!-- Node37 -->
<g id="node37" class="node"><title>Node37</title>
<g id="a_node37"><a xlink:href="../../de/d07/branch_2TripletJetPair_8hh.html" target="_top" xlink:title="include/branch/TripletJet\lPair.hh">
<polygon fill="white" stroke="red" points="302.5,-526.5 302.5,-556.5 425.5,-556.5 425.5,-526.5 302.5,-526.5"/>
<text text-anchor="start" x="310.5" y="-544.5" font-family="Helvetica,sans-Serif" font-size="10.00">include/branch/TripletJet</text>
<text text-anchor="middle" x="364" y="-533.5" font-family="Helvetica,sans-Serif" font-size="10.00">Pair.hh</text>
</a>
</g>
</g>
<!-- Node35&#45;&gt;Node37 -->
<g id="edge49" class="edge"><title>Node35&#45;&gt;Node37</title>
<path fill="none" stroke="midnightblue" d="M525.555,-593.476C494.12,-583.557 451.791,-570.201 418.346,-559.648"/>
<polygon fill="midnightblue" stroke="midnightblue" points="419.31,-556.282 408.721,-556.611 417.204,-562.958 419.31,-556.282"/>
</g>
<!-- Node38&#45;&gt;Node34 -->
<g id="edge51" class="edge"><title>Node38&#45;&gt;Node34</title>
<path fill="none" stroke="midnightblue" d="M1390.26,-531.938C1377.78,-529.892 1364.41,-527.785 1352,-526 1225.3,-507.786 1190.71,-507.432 1060.7,-490.203"/>
<polygon fill="midnightblue" stroke="midnightblue" points="1061.13,-486.73 1050.76,-488.877 1060.21,-493.668 1061.13,-486.73"/>
</g>
<!-- Node40 -->
<g id="node40" class="node"><title>Node40</title>
<g id="a_node40"><a xlink:href="../../d2/d02/boca_2branch_2Event_8hh.html" target="_top" xlink:title="boca/branch/Event.hh">
<polygon fill="white" stroke="black" points="178,-599 178,-618 290,-618 290,-599 178,-599"/>
<text text-anchor="middle" x="234" y="-606" font-family="Helvetica,sans-Serif" font-size="10.00">boca/branch/Event.hh</text>
</a>
</g>
</g>
<!-- Node39&#45;&gt;Node40 -->
<g id="edge53" class="edge"><title>Node39&#45;&gt;Node40</title>
<path fill="none" stroke="midnightblue" d="M405.707,-665.869C370.773,-654.4 308.919,-634.094 269.763,-621.24"/>
<polygon fill="midnightblue" stroke="midnightblue" points="270.679,-617.857 260.086,-618.064 268.496,-624.508 270.679,-617.857"/>
</g>
<!-- Node41 -->
<g id="node41" class="node"><title>Node41</title>
<g id="a_node41"><a xlink:href="../../d6/df4/Bdt_8hh.html" target="_top" xlink:title="boca/branch/Bdt.hh">
<polygon fill="white" stroke="red" points="183.5,-532 183.5,-551 284.5,-551 284.5,-532 183.5,-532"/>
<text text-anchor="middle" x="234" y="-539" font-family="Helvetica,sans-Serif" font-size="10.00">boca/branch/Bdt.hh</text>
</a>
</g>
</g>
<!-- Node40&#45;&gt;Node41 -->
<g id="edge54" class="edge"><title>Node40&#45;&gt;Node41</title>
<path fill="none" stroke="midnightblue" d="M234,-598.734C234,-589.183 234,-573.618 234,-561.283"/>
<polygon fill="midnightblue" stroke="midnightblue" points="237.5,-561.127 234,-551.127 230.5,-561.127 237.5,-561.127"/>
</g>
<!-- Node42 -->
<g id="node42" class="node"><title>Node42</title>
<g id="a_node42"><a xlink:href="../../d5/dba/GlobalBase_8hh.html" target="_top" xlink:title="boca/branch/GlobalBase.hh">
<polygon fill="white" stroke="red" points="28.5,-532 28.5,-551 165.5,-551 165.5,-532 28.5,-532"/>
<text text-anchor="middle" x="97" y="-539" font-family="Helvetica,sans-Serif" font-size="10.00">boca/branch/GlobalBase.hh</text>
</a>
</g>
</g>
<!-- Node40&#45;&gt;Node42 -->
<g id="edge55" class="edge"><title>Node40&#45;&gt;Node42</title>
<path fill="none" stroke="midnightblue" d="M215.807,-598.869C192.47,-587.796 151.771,-568.486 124.606,-555.598"/>
<polygon fill="midnightblue" stroke="midnightblue" points="125.803,-552.292 115.268,-551.167 122.802,-558.616 125.803,-552.292"/>
</g>
<!-- Node44 -->
<g id="node44" class="node"><title>Node44</title>
<g id="a_node44"><a xlink:href="../../d8/de8/Debug_8hh.html" target="_top" xlink:title="boca/generic/Debug.hh">
<polygon fill="white" stroke="black" points="1709.5,-666 1709.5,-685 1826.5,-685 1826.5,-666 1709.5,-666"/>
<text text-anchor="middle" x="1768" y="-673" font-family="Helvetica,sans-Serif" font-size="10.00">boca/generic/Debug.hh</text>
</a>
</g>
</g>
<!-- Node43&#45;&gt;Node44 -->
<g id="edge57" class="edge"><title>Node43&#45;&gt;Node44</title>
<path fill="none" stroke="midnightblue" d="M1484.6,-730.839C1547.85,-718.711 1650.5,-699.03 1713.36,-686.978"/>
<polygon fill="midnightblue" stroke="midnightblue" points="1714.31,-690.359 1723.47,-685.038 1712.99,-683.484 1714.31,-690.359"/>
</g>
<!-- Node45 -->
<g id="node45" class="node"><title>Node45</title>
<polygon fill="white" stroke="#bfbfbf" points="1838.5,-599 1838.5,-618 1879.5,-618 1879.5,-599 1838.5,-599"/>
<text text-anchor="middle" x="1859" y="-606" font-family="Helvetica,sans-Serif" font-size="10.00">string</text>
</g>
<!-- Node44&#45;&gt;Node45 -->
<g id="edge58" class="edge"><title>Node44&#45;&gt;Node45</title>
<path fill="none" stroke="midnightblue" d="M1780.27,-665.734C1795.15,-655.111 1820.43,-637.049 1838.33,-624.264"/>
<polygon fill="midnightblue" stroke="midnightblue" points="1840.82,-626.788 1846.92,-618.127 1836.75,-621.092 1840.82,-626.788"/>
</g>
<!-- Node46 -->
<g id="node46" class="node"><title>Node46</title>
<polygon fill="white" stroke="#bfbfbf" points="1898,-599 1898,-618 1942,-618 1942,-599 1898,-599"/>
<text text-anchor="middle" x="1920" y="-606" font-family="Helvetica,sans-Serif" font-size="10.00">vector</text>
</g>
<!-- Node44&#45;&gt;Node46 -->
<g id="edge59" class="edge"><title>Node44&#45;&gt;Node46</title>
<path fill="none" stroke="midnightblue" d="M1788.88,-665.912C1812.88,-655.998 1853.41,-639.112 1888,-624 1889.36,-623.405 1890.76,-622.792 1892.16,-622.169"/>
<polygon fill="midnightblue" stroke="midnightblue" points="1893.73,-625.302 1901.42,-618.02 1890.87,-618.913 1893.73,-625.302"/>
</g>
<!-- Node47 -->
<g id="node47" class="node"><title>Node47</title>
<polygon fill="white" stroke="#bfbfbf" points="1960,-599 1960,-618 2012,-618 2012,-599 1960,-599"/>
<text text-anchor="middle" x="1986" y="-606" font-family="Helvetica,sans-Serif" font-size="10.00">sstream</text>
</g>
<!-- Node44&#45;&gt;Node47 -->
<g id="edge60" class="edge"><title>Node44&#45;&gt;Node47</title>
<path fill="none" stroke="midnightblue" d="M1804.17,-665.923C1841.37,-656.773 1900.82,-641.245 1951,-624 1952.91,-623.343 1954.87,-622.634 1956.84,-621.896"/>
<polygon fill="midnightblue" stroke="midnightblue" points="1958.53,-624.991 1966.54,-618.061 1955.95,-618.481 1958.53,-624.991"/>
</g>
<!-- Node48 -->
<g id="node48" class="node"><title>Node48</title>
<polygon fill="white" stroke="#bfbfbf" points="1575,-599 1575,-618 1625,-618 1625,-599 1575,-599"/>
<text text-anchor="middle" x="1600" y="-606" font-family="Helvetica,sans-Serif" font-size="10.00">iomanip</text>
</g>
<!-- Node44&#45;&gt;Node48 -->
<g id="edge61" class="edge"><title>Node44&#45;&gt;Node48</title>
<path fill="none" stroke="midnightblue" d="M1744.16,-665.865C1717.27,-656.044 1672.3,-639.375 1634,-624 1632.4,-623.359 1630.77,-622.693 1629.12,-622.015"/>
<polygon fill="midnightblue" stroke="midnightblue" points="1630.29,-618.712 1619.72,-618.077 1627.59,-625.168 1630.29,-618.712"/>
</g>
<!-- Node49 -->
<g id="node49" class="node"><title>Node49</title>
<polygon fill="white" stroke="#bfbfbf" points="1643,-599 1643,-618 1697,-618 1697,-599 1643,-599"/>
<text text-anchor="middle" x="1670" y="-606" font-family="Helvetica,sans-Serif" font-size="10.00">iostream</text>
</g>
<!-- Node44&#45;&gt;Node49 -->
<g id="edge62" class="edge"><title>Node44&#45;&gt;Node49</title>
<path fill="none" stroke="midnightblue" d="M1754.78,-665.734C1738.55,-654.964 1710.78,-636.55 1691.47,-623.739"/>
<polygon fill="midnightblue" stroke="midnightblue" points="1693.28,-620.738 1683.01,-618.127 1689.41,-626.571 1693.28,-620.738"/>
</g>
<!-- Node50 -->
<g id="node50" class="node"><title>Node50</title>
<polygon fill="white" stroke="#bfbfbf" points="1715.5,-593.5 1715.5,-623.5 1820.5,-623.5 1820.5,-593.5 1715.5,-593.5"/>
<text text-anchor="start" x="1723.5" y="-611.5" font-family="Helvetica,sans-Serif" font-size="10.00">boost/units/systems</text>
<text text-anchor="middle" x="1768" y="-600.5" font-family="Helvetica,sans-Serif" font-size="10.00">/si/io.hpp</text>
</g>
<!-- Node44&#45;&gt;Node50 -->
<g id="edge63" class="edge"><title>Node44&#45;&gt;Node50</title>
<path fill="none" stroke="midnightblue" d="M1768,-665.734C1768,-657.541 1768,-644.923 1768,-633.714"/>
<polygon fill="midnightblue" stroke="midnightblue" points="1771.5,-633.589 1768,-623.589 1764.5,-633.589 1771.5,-633.589"/>
</g>
</g>
</svg>
