<?xml version="1.0" encoding="UTF-8" standalone="no"?>
<!DOCTYPE svg PUBLIC "-//W3C//DTD SVG 1.1//EN"
 "http://www.w3.org/Graphics/SVG/1.1/DTD/svg11.dtd">
<!-- Generated by graphviz version 2.38.0 (20140413.2041)
 -->
<!-- Title: boca::higgscpv::SignatureTagger Pages: 1 -->
<svg width="2951pt" height="607pt"
 viewBox="0.00 0.00 2951.00 607.21" xmlns="http://www.w3.org/2000/svg" xmlns:xlink="http://www.w3.org/1999/xlink">
<g id="graph0" class="graph" transform="scale(1 1) rotate(0) translate(4 603.209)">
<title>boca::higgscpv::SignatureTagger</title>
<polygon fill="white" stroke="none" points="-4,4 -4,-603.209 2947,-603.209 2947,4 -4,4"/>
<!-- Node1 -->
<g id="node1" class="node"><title>Node1</title>
<polygon fill="#bfbfbf" stroke="black" points="2813,-328.5 2813,-358.5 2943,-358.5 2943,-328.5 2813,-328.5"/>
<text text-anchor="start" x="2821" y="-346.5" font-family="Helvetica,sans-Serif" font-size="10.00">boca::higgscpv::Signature</text>
<text text-anchor="middle" x="2878" y="-335.5" font-family="Helvetica,sans-Serif" font-size="10.00">Tagger</text>
</g>
<!-- Node2 -->
<g id="node2" class="node"><title>Node2</title>
<g id="a_node2"><a xlink:href="../../dd/d4b/classboca_1_1BranchTagger.html" target="_top" xlink:title="boca::BranchTagger\l\&lt; SignatureLeptonicBranch \&gt;">
<polygon fill="white" stroke="black" points="1174.5,-55.5 1174.5,-85.5 1317.5,-85.5 1317.5,-55.5 1174.5,-55.5"/>
<text text-anchor="start" x="1182.5" y="-73.5" font-family="Helvetica,sans-Serif" font-size="10.00">boca::BranchTagger</text>
<text text-anchor="middle" x="1246" y="-62.5" font-family="Helvetica,sans-Serif" font-size="10.00">&lt; SignatureLeptonicBranch &gt;</text>
</a>
</g>
</g>
<!-- Node2&#45;&gt;Node1 -->
<g id="edge1" class="edge"><title>Node2&#45;&gt;Node1</title>
<path fill="none" stroke="midnightblue" d="M1327.71,-84.4329C1386.85,-93.443 1469.17,-103.5 1542,-103.5 1542,-103.5 1542,-103.5 2623,-103.5 2754.65,-103.5 2845.62,-275.945 2870.28,-328.487"/>
<polygon fill="midnightblue" stroke="midnightblue" points="1328.1,-80.9522 1317.68,-82.8819 1327.03,-87.8699 1328.1,-80.9522"/>
</g>
<!-- Node3 -->
<g id="node3" class="node"><title>Node3</title>
<g id="a_node3"><a xlink:href="../../da/d42/classboca_1_1Tagger.html" target="_top" xlink:title="Prepares multivariant analysis. ">
<polygon fill="white" stroke="black" points="518,-278 518,-297 592,-297 592,-278 518,-278"/>
<text text-anchor="middle" x="555" y="-285" font-family="Helvetica,sans-Serif" font-size="10.00">boca::Tagger</text>
</a>
</g>
</g>
<!-- Node3&#45;&gt;Node2 -->
<g id="edge2" class="edge"><title>Node3&#45;&gt;Node2</title>
<path fill="none" stroke="midnightblue" d="M565.74,-268.883C591.282,-220.407 659.5,-93.279 678,-82.5 760.201,-34.6052 1041.4,-52.1822 1174.32,-63.6766"/>
<polygon fill="midnightblue" stroke="midnightblue" points="562.522,-267.482 560.97,-277.963 568.719,-270.738 562.522,-267.482"/>
</g>
<!-- Node11 -->
<g id="node11" class="node"><title>Node11</title>
<g id="a_node11"><a xlink:href="../../dd/d4b/classboca_1_1BranchTagger.html" target="_top" xlink:title="Tagger base class using Branch template. ">
<polygon fill="white" stroke="black" points="689,-272.5 689,-302.5 795,-302.5 795,-272.5 689,-272.5"/>
<text text-anchor="start" x="697" y="-290.5" font-family="Helvetica,sans-Serif" font-size="10.00">boca::BranchTagger</text>
<text text-anchor="middle" x="742" y="-279.5" font-family="Helvetica,sans-Serif" font-size="10.00">&lt; BranchTemplate &gt;</text>
</a>
</g>
</g>
<!-- Node3&#45;&gt;Node11 -->
<g id="edge11" class="edge"><title>Node3&#45;&gt;Node11</title>
<path fill="none" stroke="midnightblue" d="M602.21,-287.5C628.543,-287.5 661.62,-287.5 688.877,-287.5"/>
<polygon fill="midnightblue" stroke="midnightblue" points="602.109,-284 592.109,-287.5 602.109,-291 602.109,-284"/>
</g>
<!-- Node15 -->
<g id="node15" class="node"><title>Node15</title>
<g id="a_node15"><a xlink:href="../../dd/d4b/classboca_1_1BranchTagger.html" target="_top" xlink:title="boca::BranchTagger\l\&lt; TopLeptonicPairBranch \&gt;">
<polygon fill="white" stroke="black" points="1178,-147.5 1178,-177.5 1314,-177.5 1314,-147.5 1178,-147.5"/>
<text text-anchor="start" x="1186" y="-165.5" font-family="Helvetica,sans-Serif" font-size="10.00">boca::BranchTagger</text>
<text text-anchor="middle" x="1246" y="-154.5" font-family="Helvetica,sans-Serif" font-size="10.00">&lt; TopLeptonicPairBranch &gt;</text>
</a>
</g>
</g>
<!-- Node3&#45;&gt;Node15 -->
<g id="edge16" class="edge"><title>Node3&#45;&gt;Node15</title>
<path fill="none" stroke="midnightblue" d="M568.205,-269.236C580.082,-252.845 599.583,-229.304 622,-215.5 701.432,-166.588 731.597,-171.287 824,-158.5 947.991,-141.341 1094.49,-148.929 1177.9,-155.833"/>
<polygon fill="midnightblue" stroke="midnightblue" points="565.288,-267.3 562.421,-277.5 571.023,-271.315 565.288,-267.3"/>
</g>
<!-- Node19 -->
<g id="node19" class="node"><title>Node19</title>
<g id="a_node19"><a xlink:href="../../dd/d4b/classboca_1_1BranchTagger.html" target="_top" xlink:title="boca::BranchTagger\l\&lt; TopLeptonicBranch \&gt;">
<polygon fill="white" stroke="black" points="959.5,-346.5 959.5,-376.5 1078.5,-376.5 1078.5,-346.5 959.5,-346.5"/>
<text text-anchor="start" x="967.5" y="-364.5" font-family="Helvetica,sans-Serif" font-size="10.00">boca::BranchTagger</text>
<text text-anchor="middle" x="1019" y="-353.5" font-family="Helvetica,sans-Serif" font-size="10.00">&lt; TopLeptonicBranch &gt;</text>
</a>
</g>
</g>
<!-- Node3&#45;&gt;Node19 -->
<g id="edge23" class="edge"><title>Node3&#45;&gt;Node19</title>
<path fill="none" stroke="midnightblue" d="M589.206,-300.659C639.18,-319.684 737.132,-353.963 824,-366.5 870.628,-373.229 882.908,-367.837 930,-366.5 939.484,-366.231 949.535,-365.799 959.324,-365.298"/>
<polygon fill="midnightblue" stroke="midnightblue" points="590.459,-297.391 579.869,-297.069 587.946,-303.925 590.459,-297.391"/>
</g>
<!-- Node24 -->
<g id="node24" class="node"><title>Node24</title>
<g id="a_node24"><a xlink:href="../../dd/d4b/classboca_1_1BranchTagger.html" target="_top" xlink:title="boca::BranchTagger\l\&lt; BottomBranch \&gt;">
<polygon fill="white" stroke="black" points="967,-457.5 967,-487.5 1071,-487.5 1071,-457.5 967,-457.5"/>
<text text-anchor="start" x="975" y="-475.5" font-family="Helvetica,sans-Serif" font-size="10.00">boca::BranchTagger</text>
<text text-anchor="middle" x="1019" y="-464.5" font-family="Helvetica,sans-Serif" font-size="10.00">&lt; BottomBranch &gt;</text>
</a>
</g>
</g>
<!-- Node3&#45;&gt;Node24 -->
<g id="edge31" class="edge"><title>Node3&#45;&gt;Node24</title>
<path fill="none" stroke="midnightblue" d="M565.263,-306.271C582.491,-338.989 622.786,-405.977 678,-437.5 769.212,-489.576 896.83,-486.372 966.907,-479.435"/>
<polygon fill="midnightblue" stroke="midnightblue" points="568.339,-304.599 560.666,-297.294 562.109,-307.79 568.339,-304.599"/>
</g>
<!-- Node29 -->
<g id="node29" class="node"><title>Node29</title>
<g id="a_node29"><a xlink:href="../../dd/d4b/classboca_1_1BranchTagger.html" target="_top" xlink:title="boca::BranchTagger\l\&lt; WSemiBranch \&gt;">
<polygon fill="white" stroke="black" points="967,-176.5 967,-206.5 1071,-206.5 1071,-176.5 967,-176.5"/>
<text text-anchor="start" x="975" y="-194.5" font-family="Helvetica,sans-Serif" font-size="10.00">boca::BranchTagger</text>
<text text-anchor="middle" x="1019" y="-183.5" font-family="Helvetica,sans-Serif" font-size="10.00">&lt; WSemiBranch &gt;</text>
</a>
</g>
</g>
<!-- Node3&#45;&gt;Node29 -->
<g id="edge40" class="edge"><title>Node3&#45;&gt;Node29</title>
<path fill="none" stroke="midnightblue" d="M597.386,-275.004C649.729,-259.592 742.83,-233.478 824,-217.5 872.012,-208.049 927.394,-201.004 966.662,-196.648"/>
<polygon fill="midnightblue" stroke="midnightblue" points="596.072,-271.743 587.477,-277.938 598.059,-278.455 596.072,-271.743"/>
</g>
<!-- Node33 -->
<g id="node33" class="node"><title>Node33</title>
<g id="a_node33"><a xlink:href="../../dd/d4b/classboca_1_1BranchTagger.html" target="_top" xlink:title="boca::BranchTagger\l\&lt; HiggsBranch \&gt;">
<polygon fill="white" stroke="black" points="967,-506.5 967,-536.5 1071,-536.5 1071,-506.5 967,-506.5"/>
<text text-anchor="start" x="975" y="-524.5" font-family="Helvetica,sans-Serif" font-size="10.00">boca::BranchTagger</text>
<text text-anchor="middle" x="1019" y="-513.5" font-family="Helvetica,sans-Serif" font-size="10.00">&lt; HiggsBranch &gt;</text>
</a>
</g>
</g>
<!-- Node3&#45;&gt;Node33 -->
<g id="edge50" class="edge"><title>Node3&#45;&gt;Node33</title>
<path fill="none" stroke="midnightblue" d="M559.471,-307.118C568.952,-354.367 599.983,-474.685 678,-530.5 723.718,-563.208 874.591,-561.974 930,-552.5 948.202,-549.388 967.643,-542.9 983.611,-536.66"/>
<polygon fill="midnightblue" stroke="midnightblue" points="562.899,-306.405 557.594,-297.234 556.022,-307.712 562.899,-306.405"/>
</g>
<!-- Node4 -->
<g id="node4" class="node"><title>Node4</title>
<g id="a_node4"><a xlink:href="../../d3/de2/classboca_1_1higgscpv_1_1SignatureLeptonicBranch.html" target="_top" xlink:title="Higgs cpv tagger root tree structure. ">
<polygon fill="white" stroke="black" points="954,-0.5 954,-30.5 1084,-30.5 1084,-0.5 954,-0.5"/>
<text text-anchor="start" x="962" y="-18.5" font-family="Helvetica,sans-Serif" font-size="10.00">boca::higgscpv::Signature</text>
<text text-anchor="middle" x="1019" y="-7.5" font-family="Helvetica,sans-Serif" font-size="10.00">LeptonicBranch</text>
</a>
</g>
</g>
<!-- Node4&#45;&gt;Node2 -->
<g id="edge3" class="edge"><title>Node4&#45;&gt;Node2</title>
<path fill="none" stroke="#9a32cd" stroke-dasharray="5,2" d="M1094.23,-24.181C1111.36,-26.8771 1129.42,-30.2809 1146,-34.5 1167.27,-39.913 1190.35,-48.1615 1208.87,-55.3978"/>
<polygon fill="#9a32cd" stroke="#9a32cd" points="1094.68,-20.7092 1084.27,-22.6746 1093.63,-27.6305 1094.68,-20.7092"/>
<text text-anchor="middle" x="1127" y="-37.5" font-family="Helvetica,sans-Serif" font-size="10.00"> branch_</text>
</g>
<!-- Node5 -->
<g id="node5" class="node"><title>Node5</title>
<g id="a_node5"><a xlink:href="../../db/df3/classboca_1_1MultiBranch.html" target="_top" xlink:title="boca::MultiBranch">
<polygon fill="white" stroke="black" points="694.5,-12 694.5,-31 789.5,-31 789.5,-12 694.5,-12"/>
<text text-anchor="middle" x="742" y="-19" font-family="Helvetica,sans-Serif" font-size="10.00">boca::MultiBranch</text>
</a>
</g>
</g>
<!-- Node5&#45;&gt;Node4 -->
<g id="edge4" class="edge"><title>Node5&#45;&gt;Node4</title>
<path fill="none" stroke="midnightblue" d="M799.788,-20.261C844.621,-19.2828 907.175,-17.918 953.819,-16.9003"/>
<polygon fill="midnightblue" stroke="midnightblue" points="799.571,-16.7648 789.65,-20.4822 799.724,-23.7631 799.571,-16.7648"/>
</g>
<!-- Node16 -->
<g id="node16" class="node"><title>Node16</title>
<g id="a_node16"><a xlink:href="../../db/d5d/classboca_1_1higgscpv_1_1TopLeptonicPairBranch.html" target="_top" xlink:title="Higgs tagger root tree structure. ">
<polygon fill="white" stroke="black" points="948,-88.5 948,-118.5 1090,-118.5 1090,-88.5 948,-88.5"/>
<text text-anchor="start" x="956" y="-106.5" font-family="Helvetica,sans-Serif" font-size="10.00">boca::higgscpv::TopLeptonic</text>
<text text-anchor="middle" x="1019" y="-95.5" font-family="Helvetica,sans-Serif" font-size="10.00">PairBranch</text>
</a>
</g>
</g>
<!-- Node5&#45;&gt;Node16 -->
<g id="edge18" class="edge"><title>Node5&#45;&gt;Node16</title>
<path fill="none" stroke="midnightblue" d="M784.733,-33.9441C833.737,-48.5561 914.979,-72.7811 967.493,-88.4398"/>
<polygon fill="midnightblue" stroke="midnightblue" points="785.667,-30.5704 775.084,-31.0669 783.667,-37.2786 785.667,-30.5704"/>
</g>
<!-- Node6 -->
<g id="node6" class="node"><title>Node6</title>
<g id="a_node6"><a xlink:href="../../d6/d3d/classboca_1_1PairBranch.html" target="_top" xlink:title="boca::PairBranch">
<polygon fill="white" stroke="black" points="509,-110 509,-129 601,-129 601,-110 509,-110"/>
<text text-anchor="middle" x="555" y="-117" font-family="Helvetica,sans-Serif" font-size="10.00">boca::PairBranch</text>
</a>
</g>
</g>
<!-- Node6&#45;&gt;Node5 -->
<g id="edge5" class="edge"><title>Node6&#45;&gt;Node5</title>
<path fill="none" stroke="midnightblue" d="M567.286,-101.148C578.849,-83.9795 598.439,-59.0136 622,-45.5 643.847,-32.9696 671.228,-26.9079 694.216,-24.0061"/>
<polygon fill="midnightblue" stroke="midnightblue" points="564.207,-99.4636 561.714,-109.761 570.084,-103.266 564.207,-99.4636"/>
</g>
<!-- Node20 -->
<g id="node20" class="node"><title>Node20</title>
<g id="a_node20"><a xlink:href="../../d6/d37/classboca_1_1TopLeptonicBranch.html" target="_top" xlink:title="Top tagger root tree structure. ">
<polygon fill="white" stroke="black" points="678,-409 678,-428 806,-428 806,-409 678,-409"/>
<text text-anchor="middle" x="742" y="-416" font-family="Helvetica,sans-Serif" font-size="10.00">boca::TopLeptonicBranch</text>
</a>
</g>
</g>
<!-- Node6&#45;&gt;Node20 -->
<g id="edge25" class="edge"><title>Node6&#45;&gt;Node20</title>
<path fill="none" stroke="midnightblue" d="M580.682,-134.796C605.19,-151.426 641.675,-180.383 660,-215.5 680.082,-253.986 662.759,-270.853 678,-311.5 692.456,-350.053 720.41,-390.64 733.674,-408.765"/>
<polygon fill="midnightblue" stroke="midnightblue" points="582.527,-131.82 572.251,-129.238 578.674,-137.664 582.527,-131.82"/>
</g>
<!-- Node30 -->
<g id="node30" class="node"><title>Node30</title>
<g id="a_node30"><a xlink:href="../../d1/dcc/classboca_1_1WSemiBranch.html" target="_top" xlink:title="Top tagger root tree structure. ">
<polygon fill="white" stroke="black" points="688.5,-92 688.5,-111 795.5,-111 795.5,-92 688.5,-92"/>
<text text-anchor="middle" x="742" y="-99" font-family="Helvetica,sans-Serif" font-size="10.00">boca::WSemiBranch</text>
</a>
</g>
</g>
<!-- Node6&#45;&gt;Node30 -->
<g id="edge42" class="edge"><title>Node6&#45;&gt;Node30</title>
<path fill="none" stroke="midnightblue" d="M611.43,-109.823C615.001,-109.336 618.548,-108.888 622,-108.5 643.697,-106.061 667.721,-104.443 688.47,-103.384"/>
<polygon fill="midnightblue" stroke="midnightblue" points="610.748,-106.386 601.356,-111.289 611.756,-113.313 610.748,-106.386"/>
</g>
<!-- Node34 -->
<g id="node34" class="node"><title>Node34</title>
<g id="a_node34"><a xlink:href="../../de/d55/classboca_1_1HiggsBranch.html" target="_top" xlink:title="Higgs tagger root tree structure. ">
<polygon fill="white" stroke="black" points="692,-502 692,-521 792,-521 792,-502 692,-502"/>
<text text-anchor="middle" x="742" y="-509" font-family="Helvetica,sans-Serif" font-size="10.00">boca::HiggsBranch</text>
</a>
</g>
</g>
<!-- Node6&#45;&gt;Node34 -->
<g id="edge52" class="edge"><title>Node6&#45;&gt;Node34</title>
<path fill="none" stroke="midnightblue" d="M581.506,-134.924C589.897,-141.225 598.481,-149.227 604,-158.5 626.204,-195.802 611.633,-212.346 622,-254.5 642.314,-337.095 637.138,-362.902 678,-437.5 692.266,-463.544 716.694,-488.754 730.568,-501.967"/>
<polygon fill="midnightblue" stroke="midnightblue" points="583.505,-132.051 573.3,-129.206 579.504,-137.795 583.505,-132.051"/>
</g>
<!-- Node7 -->
<g id="node7" class="node"><title>Node7</title>
<g id="a_node7"><a xlink:href="../../d8/d91/classboca_1_1ParticleBranch.html" target="_top" xlink:title="Class for saving event informations to root. ">
<polygon fill="white" stroke="black" points="362,-468 362,-487 469,-487 469,-468 362,-468"/>
<text text-anchor="middle" x="415.5" y="-475" font-family="Helvetica,sans-Serif" font-size="10.00">boca::ParticleBranch</text>
</a>
</g>
</g>
<!-- Node7&#45;&gt;Node6 -->
<g id="edge6" class="edge"><title>Node7&#45;&gt;Node6</title>
<path fill="none" stroke="midnightblue" d="M417.911,-457.718C422.496,-404.921 440.704,-257.945 506,-158.5 514.015,-146.293 527.061,-136.05 537.53,-129.128"/>
<polygon fill="midnightblue" stroke="midnightblue" points="414.416,-457.515 417.108,-467.762 421.393,-458.073 414.416,-457.515"/>
</g>
<!-- Node25 -->
<g id="node25" class="node"><title>Node25</title>
<g id="a_node25"><a xlink:href="../../dc/dd8/classboca_1_1BottomBranch.html" target="_top" xlink:title="Bottom tagger root tree structure. ">
<polygon fill="white" stroke="black" points="689,-578 689,-597 795,-597 795,-578 689,-578"/>
<text text-anchor="middle" x="742" y="-585" font-family="Helvetica,sans-Serif" font-size="10.00">boca::BottomBranch</text>
</a>
</g>
</g>
<!-- Node7&#45;&gt;Node25 -->
<g id="edge33" class="edge"><title>Node7&#45;&gt;Node25</title>
<path fill="none" stroke="midnightblue" d="M427.336,-495.876C441.965,-518.777 470.355,-557.026 506,-574.5 563.603,-602.738 638.939,-601.23 688.592,-595.84"/>
<polygon fill="midnightblue" stroke="midnightblue" points="430.155,-493.78 421.927,-487.106 424.197,-497.455 430.155,-493.78"/>
</g>
<!-- Node8 -->
<g id="node8" class="node"><title>Node8</title>
<g id="a_node8"><a xlink:href="../../dd/dfc/classboca_1_1ResultBranch.html" target="_top" xlink:title="boca::ResultBranch">
<polygon fill="white" stroke="black" points="222,-468 222,-487 325,-487 325,-468 222,-468"/>
<text text-anchor="middle" x="273.5" y="-475" font-family="Helvetica,sans-Serif" font-size="10.00">boca::ResultBranch</text>
</a>
</g>
</g>
<!-- Node8&#45;&gt;Node7 -->
<g id="edge7" class="edge"><title>Node8&#45;&gt;Node7</title>
<path fill="none" stroke="midnightblue" d="M335.248,-477.5C344.047,-477.5 353.045,-477.5 361.672,-477.5"/>
<polygon fill="midnightblue" stroke="midnightblue" points="335.043,-474 325.043,-477.5 335.043,-481 335.043,-474"/>
</g>
<!-- Node9 -->
<g id="node9" class="node"><title>Node9</title>
<g id="a_node9"><a xlink:href="../../dc/d87/classboca_1_1BaseBranch.html" target="_top" xlink:title="Basic tree branches. ">
<polygon fill="white" stroke="black" points="88,-468 88,-487 185,-487 185,-468 88,-468"/>
<text text-anchor="middle" x="136.5" y="-475" font-family="Helvetica,sans-Serif" font-size="10.00">boca::BaseBranch</text>
</a>
</g>
</g>
<!-- Node9&#45;&gt;Node8 -->
<g id="edge8" class="edge"><title>Node9&#45;&gt;Node8</title>
<path fill="none" stroke="midnightblue" d="M195.264,-477.5C204.045,-477.5 213.051,-477.5 221.67,-477.5"/>
<polygon fill="midnightblue" stroke="midnightblue" points="195.096,-474 185.096,-477.5 195.096,-481 195.096,-474"/>
</g>
<!-- Node10 -->
<g id="node10" class="node"><title>Node10</title>
<polygon fill="white" stroke="#bfbfbf" points="0,-468 0,-487 51,-487 51,-468 0,-468"/>
<text text-anchor="middle" x="25.5" y="-475" font-family="Helvetica,sans-Serif" font-size="10.00">TObject</text>
</g>
<!-- Node10&#45;&gt;Node9 -->
<g id="edge9" class="edge"><title>Node10&#45;&gt;Node9</title>
<path fill="none" stroke="midnightblue" d="M61.3795,-477.5C69.7463,-477.5 78.825,-477.5 87.6662,-477.5"/>
<polygon fill="midnightblue" stroke="midnightblue" points="61.2338,-474 51.2338,-477.5 61.2338,-481 61.2338,-474"/>
</g>
<!-- Node11&#45;&gt;Node2 -->
<g id="edge10" class="edge"><title>Node11&#45;&gt;Node2</title>
<path fill="none" stroke="orange" stroke-dasharray="5,2" d="M805.011,-279.181C891.146,-266.862 1041.85,-242.316 1090,-215.5 1131.75,-192.249 1129.08,-170.121 1164,-137.5 1184.14,-118.688 1208.7,-98.7578 1225.46,-85.5737"/>
<polygon fill="orange" stroke="orange" points="804.504,-275.718 795.094,-280.586 805.486,-282.649 804.504,-275.718"/>
<text text-anchor="middle" x="1019" y="-258.5" font-family="Helvetica,sans-Serif" font-size="10.00"> &lt; SignatureLeptonicBranch &gt;</text>
</g>
<!-- Node11&#45;&gt;Node15 -->
<g id="edge19" class="edge"><title>Node11&#45;&gt;Node15</title>
<path fill="none" stroke="orange" stroke-dasharray="5,2" d="M805.482,-295.473C887.502,-303.19 1034.17,-307.38 1146,-257.5 1185.38,-239.937 1218.56,-199.719 1234.63,-177.662"/>
<polygon fill="orange" stroke="orange" points="805.617,-291.969 795.321,-294.467 804.928,-298.935 805.617,-291.969"/>
<text text-anchor="middle" x="1019" y="-302.5" font-family="Helvetica,sans-Serif" font-size="10.00"> &lt; TopLeptonicPairBranch &gt;</text>
</g>
<!-- Node11&#45;&gt;Node19 -->
<g id="edge27" class="edge"><title>Node11&#45;&gt;Node19</title>
<path fill="none" stroke="orange" stroke-dasharray="5,2" d="M805.076,-297.099C850.183,-304.393 907.163,-314.355 930,-321.5 950.501,-327.915 972.501,-337.915 989.376,-346.311"/>
<polygon fill="orange" stroke="orange" points="805.494,-293.622 795.065,-295.493 804.384,-300.533 805.494,-293.622"/>
<text text-anchor="middle" x="877" y="-324.5" font-family="Helvetica,sans-Serif" font-size="10.00"> &lt; TopLeptonicBranch &gt;</text>
</g>
<!-- Node11&#45;&gt;Node24 -->
<g id="edge35" class="edge"><title>Node11&#45;&gt;Node24</title>
<path fill="none" stroke="orange" stroke-dasharray="5,2" d="M777.445,-307.77C791.666,-315.84 808.436,-324.976 824,-332.5 869.924,-354.7 888.225,-347.231 930,-376.5 962.775,-399.463 992.296,-436.565 1007.39,-457.276"/>
<polygon fill="orange" stroke="orange" points="778.922,-304.583 768.506,-302.649 775.443,-310.657 778.922,-304.583"/>
<text text-anchor="middle" x="877" y="-379.5" font-family="Helvetica,sans-Serif" font-size="10.00"> &lt; BottomBranch &gt;</text>
</g>
<!-- Node11&#45;&gt;Node29 -->
<g id="edge43" class="edge"><title>Node11&#45;&gt;Node29</title>
<path fill="none" stroke="orange" stroke-dasharray="5,2" d="M771.58,-266.534C786.543,-256.439 805.551,-244.941 824,-237.5 868.708,-219.469 883.114,-225.709 930,-214.5 941.979,-211.636 954.828,-208.382 966.905,-205.242"/>
<polygon fill="orange" stroke="orange" points="769.51,-263.71 763.273,-272.274 773.489,-269.469 769.51,-263.71"/>
<text text-anchor="middle" x="877" y="-240.5" font-family="Helvetica,sans-Serif" font-size="10.00"> &lt; WSemiBranch &gt;</text>
</g>
<!-- Node11&#45;&gt;Node33 -->
<g id="edge54" class="edge"><title>Node11&#45;&gt;Node33</title>
<path fill="none" stroke="orange" stroke-dasharray="5,2" d="M756.29,-311.666C776.834,-348.778 814.89,-416.488 824,-425.5 869.146,-470.163 890.316,-469.939 948,-496.5 955.619,-500.008 963.882,-503.347 971.97,-506.375"/>
<polygon fill="orange" stroke="orange" points="759.134,-309.574 751.236,-302.513 753.006,-312.959 759.134,-309.574"/>
<text text-anchor="middle" x="877" y="-491.5" font-family="Helvetica,sans-Serif" font-size="10.00"> &lt; HiggsBranch &gt;</text>
</g>
<!-- Node12 -->
<g id="node12" class="node"><title>Node12</title>
<polygon fill="white" stroke="#bfbfbf" points="511,-168 511,-187 599,-187 599,-168 511,-168"/>
<text text-anchor="middle" x="555" y="-175" font-family="Helvetica,sans-Serif" font-size="10.00">BranchTemplate</text>
</g>
<!-- Node12&#45;&gt;Node11 -->
<g id="edge12" class="edge"><title>Node12&#45;&gt;Node11</title>
<path fill="none" stroke="#9a32cd" stroke-dasharray="5,2" d="M580.785,-192.237C615.934,-213.136 679.931,-251.189 715.478,-272.325"/>
<polygon fill="#9a32cd" stroke="#9a32cd" points="582.478,-189.172 572.094,-187.069 578.9,-195.189 582.478,-189.172"/>
<text text-anchor="middle" x="641" y="-242.5" font-family="Helvetica,sans-Serif" font-size="10.00"> branch_</text>
</g>
<!-- Node13 -->
<g id="node13" class="node"><title>Node13</title>
<g id="a_node13"><a xlink:href="../../de/d69/classboca_1_1Reader.html" target="_top" xlink:title="boca::Reader\&lt; boca\l::higgscpv::TopLeptonicPair\lTagger \&gt;">
<polygon fill="white" stroke="black" points="2553,-323 2553,-364 2691,-364 2691,-323 2553,-323"/>
<text text-anchor="start" x="2561" y="-352" font-family="Helvetica,sans-Serif" font-size="10.00">boca::Reader&lt; boca</text>
<text text-anchor="start" x="2561" y="-341" font-family="Helvetica,sans-Serif" font-size="10.00">::higgscpv::TopLeptonicPair</text>
<text text-anchor="middle" x="2622" y="-330" font-family="Helvetica,sans-Serif" font-size="10.00">Tagger &gt;</text>
</a>
</g>
</g>
<!-- Node13&#45;&gt;Node1 -->
<g id="edge13" class="edge"><title>Node13&#45;&gt;Node1</title>
<path fill="none" stroke="#9a32cd" stroke-dasharray="5,2" d="M2701.45,-343.5C2737.15,-343.5 2778.87,-343.5 2812.68,-343.5"/>
<polygon fill="#9a32cd" stroke="#9a32cd" points="2701.07,-340 2691.07,-343.5 2701.07,-347 2701.07,-340"/>
<text text-anchor="middle" x="2752" y="-346.5" font-family="Helvetica,sans-Serif" font-size="10.00"> triplet_pair_reader_</text>
</g>
<!-- Node14 -->
<g id="node14" class="node"><title>Node14</title>
<g id="a_node14"><a xlink:href="../../d3/de5/classboca_1_1higgscpv_1_1TopLeptonicPairTagger.html" target="_top" xlink:title="JetPair BDT tagger. ">
<polygon fill="white" stroke="black" points="2311,-272.5 2311,-302.5 2453,-302.5 2453,-272.5 2311,-272.5"/>
<text text-anchor="start" x="2319" y="-290.5" font-family="Helvetica,sans-Serif" font-size="10.00">boca::higgscpv::TopLeptonic</text>
<text text-anchor="middle" x="2382" y="-279.5" font-family="Helvetica,sans-Serif" font-size="10.00">PairTagger</text>
</a>
</g>
</g>
<!-- Node14&#45;&gt;Node13 -->
<g id="edge14" class="edge"><title>Node14&#45;&gt;Node13</title>
<path fill="none" stroke="#9a32cd" stroke-dasharray="5,2" d="M2456.57,-304.811C2487.29,-312.039 2522.76,-320.385 2552.87,-327.47"/>
<polygon fill="#9a32cd" stroke="#9a32cd" points="2457.32,-301.39 2446.78,-302.507 2455.71,-308.204 2457.32,-301.39"/>
<text text-anchor="middle" x="2503" y="-325.5" font-family="Helvetica,sans-Serif" font-size="10.00"> tagger_</text>
</g>
<!-- Node15&#45;&gt;Node14 -->
<g id="edge15" class="edge"><title>Node15&#45;&gt;Node14</title>
<path fill="none" stroke="midnightblue" d="M1324.12,-166.949C1383.62,-170 1468,-173.5 1542,-173.5 1542,-173.5 1542,-173.5 2124.5,-173.5 2220.74,-173.5 2321.15,-241.351 2362.02,-272.362"/>
<polygon fill="midnightblue" stroke="midnightblue" points="1324.22,-163.449 1314.05,-166.425 1323.85,-170.44 1324.22,-163.449"/>
</g>
<!-- Node16&#45;&gt;Node15 -->
<g id="edge17" class="edge"><title>Node16&#45;&gt;Node15</title>
<path fill="none" stroke="#9a32cd" stroke-dasharray="5,2" d="M1100.24,-112.717C1115.57,-115.287 1131.38,-118.505 1146,-122.5 1169.07,-128.805 1194.03,-138.913 1213.11,-147.39"/>
<polygon fill="#9a32cd" stroke="#9a32cd" points="1100.69,-109.244 1090.26,-111.12 1099.58,-116.156 1100.69,-109.244"/>
<text text-anchor="middle" x="1127" y="-125.5" font-family="Helvetica,sans-Serif" font-size="10.00"> branch_</text>
</g>
<!-- Node17 -->
<g id="node17" class="node"><title>Node17</title>
<g id="a_node17"><a xlink:href="../../de/d69/classboca_1_1Reader.html" target="_top" xlink:title="boca::Reader\&lt; boca\l::TopLeptonicTagger \&gt;">
<polygon fill="white" stroke="black" points="2066,-272.5 2066,-302.5 2181,-302.5 2181,-272.5 2066,-272.5"/>
<text text-anchor="start" x="2074" y="-290.5" font-family="Helvetica,sans-Serif" font-size="10.00">boca::Reader&lt; boca</text>
<text text-anchor="middle" x="2123.5" y="-279.5" font-family="Helvetica,sans-Serif" font-size="10.00">::TopLeptonicTagger &gt;</text>
</a>
</g>
</g>
<!-- Node17&#45;&gt;Node14 -->
<g id="edge20" class="edge"><title>Node17&#45;&gt;Node14</title>
<path fill="none" stroke="#9a32cd" stroke-dasharray="5,2" d="M2191.22,-287.5C2227.96,-287.5 2273.53,-287.5 2310.8,-287.5"/>
<polygon fill="#9a32cd" stroke="#9a32cd" points="2191.11,-284 2181.11,-287.5 2191.11,-291 2191.11,-284"/>
<text text-anchor="middle" x="2246" y="-290.5" font-family="Helvetica,sans-Serif" font-size="10.00"> top_leptonic_reader_</text>
</g>
<!-- Node18 -->
<g id="node18" class="node"><title>Node18</title>
<g id="a_node18"><a xlink:href="../../d0/d28/classboca_1_1TopLeptonicTagger.html" target="_top" xlink:title="Top leptonic BDT tagger. ">
<polygon fill="white" stroke="black" points="1765,-308 1765,-327 1892,-327 1892,-308 1765,-308"/>
<text text-anchor="middle" x="1828.5" y="-315" font-family="Helvetica,sans-Serif" font-size="10.00">boca::TopLeptonicTagger</text>
</a>
</g>
</g>
<!-- Node18&#45;&gt;Node17 -->
<g id="edge21" class="edge"><title>Node18&#45;&gt;Node17</title>
<path fill="none" stroke="#9a32cd" stroke-dasharray="5,2" d="M1902.55,-310.02C1953.02,-304.853 2019.17,-298.08 2065.7,-293.316"/>
<polygon fill="#9a32cd" stroke="#9a32cd" points="1901.95,-306.564 1892.36,-311.064 1902.66,-313.527 1901.95,-306.564"/>
<text text-anchor="middle" x="1979" y="-312.5" font-family="Helvetica,sans-Serif" font-size="10.00"> tagger_</text>
</g>
<!-- Node19&#45;&gt;Node18 -->
<g id="edge22" class="edge"><title>Node19&#45;&gt;Node18</title>
<path fill="none" stroke="midnightblue" d="M1088.66,-360.047C1217.79,-356.925 1505.53,-348.114 1747,-327.5 1752.75,-327.009 1758.73,-326.419 1764.71,-325.773"/>
<polygon fill="midnightblue" stroke="midnightblue" points="1088.44,-356.551 1078.53,-360.288 1088.61,-363.549 1088.44,-356.551"/>
</g>
<!-- Node20&#45;&gt;Node19 -->
<g id="edge24" class="edge"><title>Node20&#45;&gt;Node19</title>
<path fill="none" stroke="#9a32cd" stroke-dasharray="5,2" d="M816.376,-411.094C851.108,-406.778 892.99,-400.399 930,-391.5 946.322,-387.575 963.905,-381.888 979.032,-376.519"/>
<polygon fill="#9a32cd" stroke="#9a32cd" points="815.819,-407.635 806.312,-412.312 816.66,-414.585 815.819,-407.635"/>
<text text-anchor="middle" x="877" y="-413.5" font-family="Helvetica,sans-Serif" font-size="10.00"> branch_</text>
</g>
<!-- Node21 -->
<g id="node21" class="node"><title>Node21</title>
<g id="a_node21"><a xlink:href="../../db/d5f/classboca_1_1BottomBase.html" target="_top" xlink:title="Bottom tagger root tree structure base class. ">
<polygon fill="white" stroke="black" points="506,-546 506,-565 604,-565 604,-546 506,-546"/>
<text text-anchor="middle" x="555" y="-553" font-family="Helvetica,sans-Serif" font-size="10.00">boca::BottomBase</text>
</a>
</g>
</g>
<!-- Node21&#45;&gt;Node20 -->
<g id="edge26" class="edge"><title>Node21&#45;&gt;Node20</title>
<path fill="none" stroke="midnightblue" d="M577.446,-539.618C616.049,-511.032 696.148,-451.715 727.758,-428.306"/>
<polygon fill="midnightblue" stroke="midnightblue" points="574.962,-537.102 569.009,-545.866 579.128,-542.728 574.962,-537.102"/>
</g>
<!-- Node21&#45;&gt;Node25 -->
<g id="edge34" class="edge"><title>Node21&#45;&gt;Node25</title>
<path fill="none" stroke="midnightblue" d="M614.144,-565.557C638.091,-569.699 665.618,-574.461 688.897,-578.488"/>
<polygon fill="midnightblue" stroke="midnightblue" points="614.574,-562.08 604.124,-563.824 613.381,-568.977 614.574,-562.08"/>
</g>
<!-- Node21&#45;&gt;Node34 -->
<g id="edge53" class="edge"><title>Node21&#45;&gt;Node34</title>
<path fill="none" stroke="midnightblue" d="M614.258,-549.961C629.285,-547.906 645.35,-545.151 660,-541.5 680.517,-536.387 703.005,-527.805 719.069,-521.127"/>
<polygon fill="midnightblue" stroke="midnightblue" points="613.522,-546.527 604.051,-551.275 614.416,-553.47 613.522,-546.527"/>
</g>
<!-- Node22 -->
<g id="node22" class="node"><title>Node22</title>
<g id="a_node22"><a xlink:href="../../de/d69/classboca_1_1Reader.html" target="_top" xlink:title="boca::Reader\&lt; boca\l::BottomTagger \&gt;">
<polygon fill="white" stroke="black" points="1490.5,-457.5 1490.5,-487.5 1595.5,-487.5 1595.5,-457.5 1490.5,-457.5"/>
<text text-anchor="start" x="1498.5" y="-475.5" font-family="Helvetica,sans-Serif" font-size="10.00">boca::Reader&lt; boca</text>
<text text-anchor="middle" x="1543" y="-464.5" font-family="Helvetica,sans-Serif" font-size="10.00">::BottomTagger &gt;</text>
</a>
</g>
</g>
<!-- Node22&#45;&gt;Node18 -->
<g id="edge28" class="edge"><title>Node22&#45;&gt;Node18</title>
<path fill="none" stroke="#9a32cd" stroke-dasharray="5,2" d="M1562.16,-449.046C1575.35,-433.403 1594.42,-413.413 1615,-400.5 1667.5,-367.551 1689.55,-378.766 1747,-355.5 1768.63,-346.74 1792.75,-335.093 1808.9,-327.013"/>
<polygon fill="#9a32cd" stroke="#9a32cd" points="1559.1,-447.263 1555.47,-457.217 1564.51,-451.698 1559.1,-447.263"/>
<text text-anchor="middle" x="1681" y="-403.5" font-family="Helvetica,sans-Serif" font-size="10.00"> bottom_reader_</text>
</g>
<!-- Node32 -->
<g id="node32" class="node"><title>Node32</title>
<g id="a_node32"><a xlink:href="../../da/d49/classboca_1_1HiggsTagger.html" target="_top" xlink:title="Semi leptonic heavy higgs BDT tagger. ">
<polygon fill="white" stroke="black" points="1779,-463 1779,-482 1878,-482 1878,-463 1779,-463"/>
<text text-anchor="middle" x="1828.5" y="-470" font-family="Helvetica,sans-Serif" font-size="10.00">boca::HiggsTagger</text>
</a>
</g>
</g>
<!-- Node22&#45;&gt;Node32 -->
<g id="edge55" class="edge"><title>Node22&#45;&gt;Node32</title>
<path fill="none" stroke="#9a32cd" stroke-dasharray="5,2" d="M1605.74,-472.5C1657.59,-472.5 1730.68,-472.5 1778.56,-472.5"/>
<polygon fill="#9a32cd" stroke="#9a32cd" points="1605.67,-469 1595.67,-472.5 1605.67,-476 1605.67,-469"/>
<text text-anchor="middle" x="1681" y="-475.5" font-family="Helvetica,sans-Serif" font-size="10.00"> bottom_reader_</text>
</g>
<!-- Node23 -->
<g id="node23" class="node"><title>Node23</title>
<g id="a_node23"><a xlink:href="../../d1/d00/classboca_1_1BottomTagger.html" target="_top" xlink:title="Derived Tagger class for bottom jets. ">
<polygon fill="white" stroke="black" points="1193.5,-471 1193.5,-490 1298.5,-490 1298.5,-471 1193.5,-471"/>
<text text-anchor="middle" x="1246" y="-478" font-family="Helvetica,sans-Serif" font-size="10.00">boca::BottomTagger</text>
</a>
</g>
</g>
<!-- Node23&#45;&gt;Node22 -->
<g id="edge29" class="edge"><title>Node23&#45;&gt;Node22</title>
<path fill="none" stroke="#9a32cd" stroke-dasharray="5,2" d="M1308.82,-478.823C1362.64,-477.364 1439.75,-475.273 1490.34,-473.901"/>
<polygon fill="#9a32cd" stroke="#9a32cd" points="1308.62,-475.327 1298.72,-479.097 1308.81,-482.325 1308.62,-475.327"/>
<text text-anchor="middle" x="1408.5" y="-481.5" font-family="Helvetica,sans-Serif" font-size="10.00"> tagger_</text>
</g>
<!-- Node24&#45;&gt;Node23 -->
<g id="edge30" class="edge"><title>Node24&#45;&gt;Node23</title>
<path fill="none" stroke="midnightblue" d="M1081.2,-474.676C1116.33,-475.925 1159.97,-477.477 1193.37,-478.664"/>
<polygon fill="midnightblue" stroke="midnightblue" points="1081.17,-471.173 1071.06,-474.315 1080.93,-478.169 1081.17,-471.173"/>
</g>
<!-- Node25&#45;&gt;Node24 -->
<g id="edge32" class="edge"><title>Node25&#45;&gt;Node24</title>
<path fill="none" stroke="#9a32cd" stroke-dasharray="5,2" d="M798.212,-575.394C837.54,-564.889 890.255,-546.831 930,-518.5 940.287,-511.167 937.628,-503.713 948,-496.5 953.696,-492.539 960.103,-489.181 966.668,-486.348"/>
<polygon fill="#9a32cd" stroke="#9a32cd" points="797.322,-572.009 788.518,-577.904 799.076,-578.786 797.322,-572.009"/>
<text text-anchor="middle" x="877" y="-570.5" font-family="Helvetica,sans-Serif" font-size="10.00"> branch_</text>
</g>
<!-- Node26 -->
<g id="node26" class="node"><title>Node26</title>
<g id="a_node26"><a xlink:href="../../de/d69/classboca_1_1Reader.html" target="_top" xlink:title="read results of multivariant analysis wrapper for TMVA::Reader ">
<polygon fill="white" stroke="black" points="1164,-391 1164,-410 1328,-410 1328,-391 1164,-391"/>
<text text-anchor="middle" x="1246" y="-398" font-family="Helvetica,sans-Serif" font-size="10.00">boca::Reader&lt; TaggerTemplate &gt;</text>
</a>
</g>
</g>
<!-- Node26&#45;&gt;Node13 -->
<g id="edge46" class="edge"><title>Node26&#45;&gt;Node13</title>
<path fill="none" stroke="orange" stroke-dasharray="5,2" d="M1338.25,-391.845C1452.51,-381.772 1654.29,-366.5 1827.5,-366.5 1827.5,-366.5 1827.5,-366.5 2383,-366.5 2440.49,-366.5 2505.44,-359.768 2552.95,-353.588"/>
<polygon fill="orange" stroke="orange" points="1337.8,-388.371 1328.15,-392.742 1338.42,-395.344 1337.8,-388.371"/>
<text text-anchor="start" x="1910" y="-380.5" font-family="Helvetica,sans-Serif" font-size="10.00"> &lt; boca::higgscpv::TopLeptonic</text>
<text text-anchor="middle" x="1979" y="-369.5" font-family="Helvetica,sans-Serif" font-size="10.00">PairTagger &gt;</text>
</g>
<!-- Node26&#45;&gt;Node17 -->
<g id="edge45" class="edge"><title>Node26&#45;&gt;Node17</title>
<path fill="none" stroke="orange" stroke-dasharray="5,2" d="M1263.27,-383.618C1281.77,-365.281 1313.64,-336.243 1346,-318.5 1404.54,-286.405 1423.04,-282.847 1489,-272.5 1699.58,-239.465 1954.28,-265.026 2065.7,-279.411"/>
<polygon fill="orange" stroke="orange" points="1260.75,-381.19 1256.19,-390.757 1265.72,-386.117 1260.75,-381.19"/>
<text text-anchor="middle" x="1681" y="-262.5" font-family="Helvetica,sans-Serif" font-size="10.00"> &lt; boca::TopLeptonicTagger &gt;</text>
</g>
<!-- Node26&#45;&gt;Node22 -->
<g id="edge36" class="edge"><title>Node26&#45;&gt;Node22</title>
<path fill="none" stroke="orange" stroke-dasharray="5,2" d="M1276.64,-414.059C1296.02,-422.454 1322.09,-432.862 1346,-439.5 1400.28,-454.573 1415.45,-451.139 1471,-460.5 1477.29,-461.559 1483.89,-462.673 1490.43,-463.777"/>
<polygon fill="orange" stroke="orange" points="1277.99,-410.831 1267.43,-410.005 1275.17,-417.238 1277.99,-410.831"/>
<text text-anchor="middle" x="1408.5" y="-463.5" font-family="Helvetica,sans-Serif" font-size="10.00"> &lt; boca::BottomTagger &gt;</text>
</g>
<!-- Node27 -->
<g id="node27" class="node"><title>Node27</title>
<g id="a_node27"><a xlink:href="../../de/d69/classboca_1_1Reader.html" target="_top" xlink:title="boca::Reader\&lt; boca\l::WLeptonicTagger \&gt;">
<polygon fill="white" stroke="black" points="1489,-282.5 1489,-312.5 1597,-312.5 1597,-282.5 1489,-282.5"/>
<text text-anchor="start" x="1497" y="-300.5" font-family="Helvetica,sans-Serif" font-size="10.00">boca::Reader&lt; boca</text>
<text text-anchor="middle" x="1543" y="-289.5" font-family="Helvetica,sans-Serif" font-size="10.00">::WLeptonicTagger &gt;</text>
</a>
</g>
</g>
<!-- Node26&#45;&gt;Node27 -->
<g id="edge44" class="edge"><title>Node26&#45;&gt;Node27</title>
<path fill="none" stroke="orange" stroke-dasharray="5,2" d="M1283.85,-387.634C1338.47,-368.563 1440.71,-332.865 1498.79,-312.587"/>
<polygon fill="orange" stroke="orange" points="1282.51,-384.394 1274.22,-390.995 1284.82,-391.003 1282.51,-384.394"/>
<text text-anchor="middle" x="1408.5" y="-367.5" font-family="Helvetica,sans-Serif" font-size="10.00"> &lt; boca::WLeptonicTagger &gt;</text>
</g>
<!-- Node31 -->
<g id="node31" class="node"><title>Node31</title>
<g id="a_node31"><a xlink:href="../../de/d69/classboca_1_1Reader.html" target="_top" xlink:title="boca::Reader\&lt; boca\l::HiggsTagger \&gt;">
<polygon fill="white" stroke="black" points="2071,-418.5 2071,-448.5 2176,-448.5 2176,-418.5 2071,-418.5"/>
<text text-anchor="start" x="2079" y="-436.5" font-family="Helvetica,sans-Serif" font-size="10.00">boca::Reader&lt; boca</text>
<text text-anchor="middle" x="2123.5" y="-425.5" font-family="Helvetica,sans-Serif" font-size="10.00">::HiggsTagger &gt;</text>
</a>
</g>
</g>
<!-- Node26&#45;&gt;Node31 -->
<g id="edge56" class="edge"><title>Node26&#45;&gt;Node31</title>
<path fill="none" stroke="orange" stroke-dasharray="5,2" d="M1316.5,-411.365C1326.38,-412.607 1336.43,-413.709 1346,-414.5 1618.14,-436.995 1945.61,-435.791 2070.59,-434.305"/>
<polygon fill="orange" stroke="orange" points="1316.66,-407.856 1306.29,-410.027 1315.75,-414.797 1316.66,-407.856"/>
<text text-anchor="middle" x="1681" y="-436.5" font-family="Helvetica,sans-Serif" font-size="10.00"> &lt; boca::HiggsTagger &gt;</text>
</g>
<!-- Node27&#45;&gt;Node18 -->
<g id="edge37" class="edge"><title>Node27&#45;&gt;Node18</title>
<path fill="none" stroke="#9a32cd" stroke-dasharray="5,2" d="M1607.37,-301.971C1654.32,-305.282 1717.98,-309.774 1764.77,-313.075"/>
<polygon fill="#9a32cd" stroke="#9a32cd" points="1607.55,-298.474 1597.32,-301.262 1607.05,-305.457 1607.55,-298.474"/>
<text text-anchor="middle" x="1681" y="-315.5" font-family="Helvetica,sans-Serif" font-size="10.00"> w_leptonic_reader_</text>
</g>
<!-- Node28 -->
<g id="node28" class="node"><title>Node28</title>
<g id="a_node28"><a xlink:href="../../d6/dae/classboca_1_1WLeptonicTagger.html" target="_top" xlink:title="Semi leptonic top BDT tagger. ">
<polygon fill="white" stroke="black" points="1186,-262 1186,-281 1306,-281 1306,-262 1186,-262"/>
<text text-anchor="middle" x="1246" y="-269" font-family="Helvetica,sans-Serif" font-size="10.00">boca::WLeptonicTagger</text>
</a>
</g>
</g>
<!-- Node28&#45;&gt;Node27 -->
<g id="edge38" class="edge"><title>Node28&#45;&gt;Node27</title>
<path fill="none" stroke="#9a32cd" stroke-dasharray="5,2" d="M1316.62,-277.636C1369.28,-282.277 1440.52,-288.556 1488.7,-292.802"/>
<polygon fill="#9a32cd" stroke="#9a32cd" points="1316.61,-274.122 1306.34,-276.73 1316,-281.095 1316.61,-274.122"/>
<text text-anchor="middle" x="1408.5" y="-294.5" font-family="Helvetica,sans-Serif" font-size="10.00"> tagger_</text>
</g>
<!-- Node29&#45;&gt;Node28 -->
<g id="edge39" class="edge"><title>Node29&#45;&gt;Node28</title>
<path fill="none" stroke="midnightblue" d="M1071.75,-209.899C1117.36,-226.118 1182.01,-249.104 1218.05,-261.919"/>
<polygon fill="midnightblue" stroke="midnightblue" points="1072.92,-206.6 1062.32,-206.547 1070.57,-213.195 1072.92,-206.6"/>
</g>
<!-- Node30&#45;&gt;Node29 -->
<g id="edge41" class="edge"><title>Node30&#45;&gt;Node29</title>
<path fill="none" stroke="#9a32cd" stroke-dasharray="5,2" d="M781.958,-114.25C831.952,-130.612 918.567,-158.958 971.822,-176.387"/>
<polygon fill="#9a32cd" stroke="#9a32cd" points="782.762,-110.83 772.169,-111.046 780.585,-117.483 782.762,-110.83"/>
<text text-anchor="middle" x="877" y="-165.5" font-family="Helvetica,sans-Serif" font-size="10.00"> branch_</text>
</g>
<!-- Node31&#45;&gt;Node1 -->
<g id="edge47" class="edge"><title>Node31&#45;&gt;Node1</title>
<path fill="none" stroke="#9a32cd" stroke-dasharray="5,2" d="M2186.15,-427.739C2290.31,-417.833 2507.7,-396.417 2691,-373.5 2737.34,-367.706 2748.91,-366.036 2795,-358.5 2800.71,-357.566 2806.64,-356.557 2812.58,-355.521"/>
<polygon fill="#9a32cd" stroke="#9a32cd" points="2185.75,-424.261 2176.13,-428.69 2186.41,-431.23 2185.75,-424.261"/>
<text text-anchor="middle" x="2503" y="-401.5" font-family="Helvetica,sans-Serif" font-size="10.00"> higgs_reader_</text>
</g>
<!-- Node32&#45;&gt;Node31 -->
<g id="edge48" class="edge"><title>Node32&#45;&gt;Node31</title>
<path fill="none" stroke="#9a32cd" stroke-dasharray="5,2" d="M1888.2,-466.939C1932.27,-462.484 1994.06,-455.643 2048,-447.5 2055.42,-446.38 2063.23,-445.065 2070.88,-443.697"/>
<polygon fill="#9a32cd" stroke="#9a32cd" points="1887.83,-463.458 1878.23,-467.937 1888.53,-470.423 1887.83,-463.458"/>
<text text-anchor="middle" x="1979" y="-467.5" font-family="Helvetica,sans-Serif" font-size="10.00"> tagger_</text>
</g>
<!-- Node33&#45;&gt;Node32 -->
<g id="edge49" class="edge"><title>Node33&#45;&gt;Node32</title>
<path fill="none" stroke="midnightblue" d="M1081.49,-519.172C1186.98,-515.102 1409.24,-506.2 1597,-496.5 1663.7,-493.054 1680.71,-495.633 1747,-487.5 1758.29,-486.115 1770.38,-484.131 1781.68,-482.057"/>
<polygon fill="midnightblue" stroke="midnightblue" points="1081.2,-515.68 1071.35,-519.562 1081.47,-522.675 1081.2,-515.68"/>
</g>
<!-- Node34&#45;&gt;Node33 -->
<g id="edge51" class="edge"><title>Node34&#45;&gt;Node33</title>
<path fill="none" stroke="#9a32cd" stroke-dasharray="5,2" d="M802.434,-508.229C809.697,-507.928 817.016,-507.672 824,-507.5 871.097,-506.338 883.035,-503.788 930,-507.5 942.029,-508.451 954.897,-510.122 966.977,-511.986"/>
<polygon fill="#9a32cd" stroke="#9a32cd" points="802.081,-504.741 792.245,-508.679 802.39,-511.734 802.081,-504.741"/>
<text text-anchor="middle" x="877" y="-510.5" font-family="Helvetica,sans-Serif" font-size="10.00"> branch_</text>
</g>
</g>
</svg>
