<?xml version="1.0" encoding="UTF-8" standalone="no"?>
<!DOCTYPE svg PUBLIC "-//W3C//DTD SVG 1.1//EN"
 "http://www.w3.org/Graphics/SVG/1.1/DTD/svg11.dtd">
<!-- Generated by graphviz version 2.38.0 (20140413.2041)
 -->
<!-- Title: source/Branches.cpp Pages: 1 -->
<svg width="452pt" height="140pt"
 viewBox="0.00 0.00 451.50 140.00" xmlns="http://www.w3.org/2000/svg" xmlns:xlink="http://www.w3.org/1999/xlink">
<g id="graph0" class="graph" transform="scale(1 1) rotate(0) translate(4 136)">
<title>source/Branches.cpp</title>
<polygon fill="white" stroke="none" points="-4,4 -4,-136 447.5,-136 447.5,4 -4,4"/>
<!-- Node1 -->
<g id="node1" class="node"><title>Node1</title>
<polygon fill="#bfbfbf" stroke="black" points="186.5,-112.5 186.5,-131.5 295.5,-131.5 295.5,-112.5 186.5,-112.5"/>
<text text-anchor="middle" x="241" y="-119.5" font-family="Helvetica,sans-Serif" font-size="10.00">source/Branches.cpp</text>
</g>
<!-- Node2 -->
<g id="node2" class="node"><title>Node2</title>
<polygon fill="white" stroke="#bfbfbf" points="0,-0.5 0,-19.5 54,-19.5 54,-0.5 0,-0.5"/>
<text text-anchor="middle" x="27" y="-7.5" font-family="Helvetica,sans-Serif" font-size="10.00">iostream</text>
</g>
<!-- Node1&#45;&gt;Node2 -->
<g id="edge1" class="edge"><title>Node1&#45;&gt;Node2</title>
<path fill="none" stroke="midnightblue" d="M186.428,-114.496C153.221,-108.529 111.155,-97.2284 79,-76 60.5986,-63.8517 45.6602,-43.0947 36.5935,-28.3061"/>
<polygon fill="midnightblue" stroke="midnightblue" points="39.5733,-26.4681 31.506,-19.6002 33.5296,-30 39.5733,-26.4681"/>
</g>
<!-- Node3 -->
<g id="node3" class="node"><title>Node3</title>
<g id="a_node3"><a xlink:href="../../d0/d79/Branches_8hh.html" target="_top" xlink:title="Branches.hh">
<polygon fill="white" stroke="black" points="88.5,-56.5 88.5,-75.5 159.5,-75.5 159.5,-56.5 88.5,-56.5"/>
<text text-anchor="middle" x="124" y="-63.5" font-family="Helvetica,sans-Serif" font-size="10.00">Branches.hh</text>
</a>
</g>
</g>
<!-- Node1&#45;&gt;Node3 -->
<g id="edge2" class="edge"><title>Node1&#45;&gt;Node3</title>
<path fill="none" stroke="midnightblue" d="M222.461,-112.444C203.377,-103.636 173.425,-89.8116 151.564,-79.722"/>
<polygon fill="midnightblue" stroke="midnightblue" points="152.999,-76.5292 142.452,-75.5164 150.065,-82.8849 152.999,-76.5292"/>
</g>
<!-- Node8 -->
<g id="node8" class="node"><title>Node8</title>
<polygon fill="white" stroke="#bfbfbf" points="178,-56.5 178,-75.5 232,-75.5 232,-56.5 178,-56.5"/>
<text text-anchor="middle" x="205" y="-63.5" font-family="Helvetica,sans-Serif" font-size="10.00">TColor.h</text>
</g>
<!-- Node1&#45;&gt;Node8 -->
<g id="edge8" class="edge"><title>Node1&#45;&gt;Node8</title>
<path fill="none" stroke="midnightblue" d="M235.055,-112.083C230.023,-104.534 222.663,-93.4948 216.487,-84.2298"/>
<polygon fill="midnightblue" stroke="midnightblue" points="219.293,-82.1301 210.834,-75.7511 213.469,-86.0131 219.293,-82.1301"/>
</g>
<!-- Node9 -->
<g id="node9" class="node"><title>Node9</title>
<polygon fill="white" stroke="#bfbfbf" points="250.5,-56.5 250.5,-75.5 303.5,-75.5 303.5,-56.5 250.5,-56.5"/>
<text text-anchor="middle" x="277" y="-63.5" font-family="Helvetica,sans-Serif" font-size="10.00">TStyle.h</text>
</g>
<!-- Node1&#45;&gt;Node9 -->
<g id="edge9" class="edge"><title>Node1&#45;&gt;Node9</title>
<path fill="none" stroke="midnightblue" d="M246.945,-112.083C251.977,-104.534 259.337,-93.4948 265.513,-84.2298"/>
<polygon fill="midnightblue" stroke="midnightblue" points="268.531,-86.0131 271.166,-75.7511 262.707,-82.1301 268.531,-86.0131"/>
</g>
<!-- Node10 -->
<g id="node10" class="node"><title>Node10</title>
<polygon fill="white" stroke="#bfbfbf" points="322,-56.5 322,-75.5 378,-75.5 378,-56.5 322,-56.5"/>
<text text-anchor="middle" x="350" y="-63.5" font-family="Helvetica,sans-Serif" font-size="10.00">TClass.h</text>
</g>
<!-- Node1&#45;&gt;Node10 -->
<g id="edge10" class="edge"><title>Node1&#45;&gt;Node10</title>
<path fill="none" stroke="midnightblue" d="M258.513,-112.324C276.072,-103.625 303.331,-90.1202 323.531,-80.113"/>
<polygon fill="midnightblue" stroke="midnightblue" points="325.124,-83.23 332.531,-75.6545 322.016,-76.9575 325.124,-83.23"/>
</g>
<!-- Node11 -->
<g id="node11" class="node"><title>Node11</title>
<g id="a_node11"><a xlink:href="../../da/db5/Pair_8hh.html" target="_top" xlink:title="Pair.hh">
<polygon fill="white" stroke="black" points="396.5,-56.5 396.5,-75.5 443.5,-75.5 443.5,-56.5 396.5,-56.5"/>
<text text-anchor="middle" x="420" y="-63.5" font-family="Helvetica,sans-Serif" font-size="10.00">Pair.hh</text>
</a>
</g>
</g>
<!-- Node1&#45;&gt;Node11 -->
<g id="edge11" class="edge"><title>Node1&#45;&gt;Node11</title>
<path fill="none" stroke="midnightblue" d="M269.363,-112.444C301.168,-102.849 352.702,-87.3021 386.474,-77.1141"/>
<polygon fill="midnightblue" stroke="midnightblue" points="387.78,-80.3759 396.343,-74.1368 385.758,-73.6742 387.78,-80.3759"/>
</g>
<!-- Node3&#45;&gt;Node2 -->
<g id="edge5" class="edge"><title>Node3&#45;&gt;Node2</title>
<path fill="none" stroke="midnightblue" d="M108.415,-56.324C93.0009,-47.7428 69.1878,-34.486 51.2903,-24.5224"/>
<polygon fill="midnightblue" stroke="midnightblue" points="52.9858,-21.4606 42.5461,-19.6545 49.5809,-27.5767 52.9858,-21.4606"/>
</g>
<!-- Node4 -->
<g id="node4" class="node"><title>Node4</title>
<polygon fill="white" stroke="#bfbfbf" points="72,-0.5 72,-19.5 116,-19.5 116,-0.5 72,-0.5"/>
<text text-anchor="middle" x="94" y="-7.5" font-family="Helvetica,sans-Serif" font-size="10.00">vector</text>
</g>
<!-- Node3&#45;&gt;Node4 -->
<g id="edge3" class="edge"><title>Node3&#45;&gt;Node4</title>
<path fill="none" stroke="midnightblue" d="M119.046,-56.083C114.896,-48.6127 108.847,-37.7244 103.733,-28.5199"/>
<polygon fill="midnightblue" stroke="midnightblue" points="106.778,-26.7929 98.8617,-19.7511 100.659,-30.1924 106.778,-26.7929"/>
</g>
<!-- Node5 -->
<g id="node5" class="node"><title>Node5</title>
<polygon fill="white" stroke="#bfbfbf" points="134.5,-0.5 134.5,-19.5 175.5,-19.5 175.5,-0.5 134.5,-0.5"/>
<text text-anchor="middle" x="155" y="-7.5" font-family="Helvetica,sans-Serif" font-size="10.00">string</text>
</g>
<!-- Node3&#45;&gt;Node5 -->
<g id="edge4" class="edge"><title>Node3&#45;&gt;Node5</title>
<path fill="none" stroke="midnightblue" d="M129.119,-56.083C133.408,-48.6127 139.658,-37.7244 144.942,-28.5199"/>
<polygon fill="midnightblue" stroke="midnightblue" points="148.033,-30.1662 149.976,-19.7511 141.962,-26.6811 148.033,-30.1662"/>
</g>
<!-- Node6 -->
<g id="node6" class="node"><title>Node6</title>
<polygon fill="white" stroke="#bfbfbf" points="193.5,-0.5 193.5,-19.5 252.5,-19.5 252.5,-0.5 193.5,-0.5"/>
<text text-anchor="middle" x="223" y="-7.5" font-family="Helvetica,sans-Serif" font-size="10.00">TObject.h</text>
</g>
<!-- Node3&#45;&gt;Node6 -->
<g id="edge6" class="edge"><title>Node3&#45;&gt;Node6</title>
<path fill="none" stroke="midnightblue" d="M139.906,-56.324C155.638,-47.7428 179.942,-34.486 198.209,-24.5224"/>
<polygon fill="midnightblue" stroke="midnightblue" points="200.03,-27.5157 207.133,-19.6545 196.678,-21.3704 200.03,-27.5157"/>
</g>
<!-- Node7 -->
<g id="node7" class="node"><title>Node7</title>
<polygon fill="white" stroke="#bfbfbf" points="271,-0.5 271,-19.5 327,-19.5 327,-0.5 271,-0.5"/>
<text text-anchor="middle" x="299" y="-7.5" font-family="Helvetica,sans-Serif" font-size="10.00">Rtypes.h</text>
</g>
<!-- Node3&#45;&gt;Node7 -->
<g id="edge7" class="edge"><title>Node3&#45;&gt;Node7</title>
<path fill="none" stroke="midnightblue" d="M151.729,-56.4435C181.426,-47.2801 228.716,-32.6876 261.669,-22.5192"/>
<polygon fill="midnightblue" stroke="midnightblue" points="262.877,-25.8094 271.4,-19.5164 260.813,-19.1206 262.877,-25.8094"/>
</g>
</g>
</svg>
