<?xml version="1.0" encoding="UTF-8" standalone="no"?>
<!DOCTYPE svg PUBLIC "-//W3C//DTD SVG 1.1//EN"
 "http://www.w3.org/Graphics/SVG/1.1/DTD/svg11.dtd">
<!-- Generated by graphviz version 2.38.0 (20140413.2041)
 -->
<!-- Title: include/Leptons.hh Pages: 1 -->
<svg width="2100pt" height="498pt"
 viewBox="0.00 0.00 2099.50 498.00" xmlns="http://www.w3.org/2000/svg" xmlns:xlink="http://www.w3.org/1999/xlink">
<g id="graph0" class="graph" transform="scale(1 1) rotate(0) translate(4 494)">
<title>include/Leptons.hh</title>
<polygon fill="white" stroke="none" points="-4,4 -4,-494 2095.5,-494 2095.5,4 -4,4"/>
<!-- Node1 -->
<g id="node1" class="node"><title>Node1</title>
<polygon fill="#bfbfbf" stroke="black" points="824,-470.5 824,-489.5 922,-489.5 922,-470.5 824,-470.5"/>
<text text-anchor="middle" x="873" y="-477.5" font-family="Helvetica,sans-Serif" font-size="10.00">include/Leptons.hh</text>
</g>
<!-- Node2 -->
<g id="node2" class="node"><title>Node2</title>
<g id="a_node2"><a xlink:href="../../df/dbc/FourVector_8hh.html" target="_top" xlink:title="FourVector.hh">
<polygon fill="white" stroke="black" points="527,-118 527,-137 605,-137 605,-118 527,-118"/>
<text text-anchor="middle" x="566" y="-125" font-family="Helvetica,sans-Serif" font-size="10.00">FourVector.hh</text>
</a>
</g>
</g>
<!-- Node1&#45;&gt;Node2 -->
<g id="edge1" class="edge"><title>Node1&#45;&gt;Node2</title>
<path fill="none" stroke="midnightblue" d="M823.946,-477.083C755.33,-471.478 639,-450.026 639,-369 639,-369 639,-369 639,-255 639,-210.06 604.01,-166.713 582.479,-144.294"/>
<polygon fill="midnightblue" stroke="midnightblue" points="584.778,-141.641 575.246,-137.017 579.813,-146.576 584.778,-141.641"/>
</g>
<!-- Node17 -->
<g id="node17" class="node"><title>Node17</title>
<g id="a_node17"><a xlink:href="../../dd/df7/Jet_8hh.html" target="_top" xlink:title="Jet.hh">
<polygon fill="white" stroke="black" points="1086,-414.5 1086,-433.5 1130,-433.5 1130,-414.5 1086,-414.5"/>
<text text-anchor="middle" x="1108" y="-421.5" font-family="Helvetica,sans-Serif" font-size="10.00">Jet.hh</text>
</a>
</g>
</g>
<!-- Node1&#45;&gt;Node17 -->
<g id="edge17" class="edge"><title>Node1&#45;&gt;Node17</title>
<path fill="none" stroke="midnightblue" d="M910.236,-470.444C955.909,-459.948 1032.58,-442.332 1075.81,-432.397"/>
<polygon fill="midnightblue" stroke="midnightblue" points="1076.83,-435.755 1085.79,-430.104 1075.26,-428.933 1076.83,-435.755"/>
</g>
<!-- Node3 -->
<g id="node3" class="node"><title>Node3</title>
<polygon fill="white" stroke="#bfbfbf" points="467,-56.5 467,-75.5 517,-75.5 517,-56.5 467,-56.5"/>
<text text-anchor="middle" x="492" y="-63.5" font-family="Helvetica,sans-Serif" font-size="10.00">iomanip</text>
</g>
<!-- Node2&#45;&gt;Node3 -->
<g id="edge2" class="edge"><title>Node2&#45;&gt;Node3</title>
<path fill="none" stroke="midnightblue" d="M555.398,-117.975C543.748,-108.608 524.814,-93.3839 510.665,-82.0081"/>
<polygon fill="midnightblue" stroke="midnightblue" points="512.569,-79.0477 502.583,-75.5091 508.183,-84.503 512.569,-79.0477"/>
</g>
<!-- Node4 -->
<g id="node4" class="node"><title>Node4</title>
<polygon fill="white" stroke="#bfbfbf" points="819,-0.5 819,-19.5 873,-19.5 873,-0.5 819,-0.5"/>
<text text-anchor="middle" x="846" y="-7.5" font-family="Helvetica,sans-Serif" font-size="10.00">iostream</text>
</g>
<!-- Node2&#45;&gt;Node4 -->
<g id="edge3" class="edge"><title>Node2&#45;&gt;Node4</title>
<path fill="none" stroke="midnightblue" d="M587.046,-117.819C636.117,-97.5769 758.286,-47.182 815.516,-23.5747"/>
<polygon fill="midnightblue" stroke="midnightblue" points="817.183,-26.6734 825.092,-19.6245 814.513,-20.2023 817.183,-26.6734"/>
</g>
<!-- Node5 -->
<g id="node5" class="node"><title>Node5</title>
<g id="a_node5"><a xlink:href="../../d0/d5f/Flag_8hh.html" target="_top" xlink:title="Flag.hh">
<polygon fill="white" stroke="black" points="198.5,-56.5 198.5,-75.5 247.5,-75.5 247.5,-56.5 198.5,-56.5"/>
<text text-anchor="middle" x="223" y="-63.5" font-family="Helvetica,sans-Serif" font-size="10.00">Flag.hh</text>
</a>
</g>
</g>
<!-- Node2&#45;&gt;Node5 -->
<g id="edge4" class="edge"><title>Node2&#45;&gt;Node5</title>
<path fill="none" stroke="midnightblue" d="M526.987,-119.733C459.459,-108.018 321.86,-84.1492 257.559,-72.995"/>
<polygon fill="midnightblue" stroke="midnightblue" points="257.978,-69.5154 247.527,-71.2547 256.781,-76.4124 257.978,-69.5154"/>
</g>
<!-- Node7 -->
<g id="node7" class="node"><title>Node7</title>
<g id="a_node7"><a xlink:href="../../d6/d74/TreeReader_8hh.html" target="_top" xlink:title="TreeReader.hh">
<polygon fill="white" stroke="black" points="535.5,-56.5 535.5,-75.5 616.5,-75.5 616.5,-56.5 535.5,-56.5"/>
<text text-anchor="middle" x="576" y="-63.5" font-family="Helvetica,sans-Serif" font-size="10.00">TreeReader.hh</text>
</a>
</g>
</g>
<!-- Node2&#45;&gt;Node7 -->
<g id="edge6" class="edge"><title>Node2&#45;&gt;Node7</title>
<path fill="none" stroke="midnightblue" d="M567.433,-117.975C568.844,-109.58 571.045,-96.4806 572.863,-85.6631"/>
<polygon fill="midnightblue" stroke="midnightblue" points="576.364,-85.9509 574.57,-75.5091 569.461,-84.7906 576.364,-85.9509"/>
</g>
<!-- Node6 -->
<g id="node6" class="node"><title>Node6</title>
<polygon fill="white" stroke="#bfbfbf" points="0,-0.5 0,-19.5 62,-19.5 62,-0.5 0,-0.5"/>
<text text-anchor="middle" x="31" y="-7.5" font-family="Helvetica,sans-Serif" font-size="10.00">type_traits</text>
</g>
<!-- Node5&#45;&gt;Node6 -->
<g id="edge5" class="edge"><title>Node5&#45;&gt;Node6</title>
<path fill="none" stroke="midnightblue" d="M198.292,-58.051C166.124,-49.0035 109.487,-33.0746 71.1198,-22.2837"/>
<polygon fill="midnightblue" stroke="midnightblue" points="71.8763,-18.8607 61.3021,-19.5225 69.981,-25.5993 71.8763,-18.8607"/>
</g>
<!-- Node7&#45;&gt;Node4 -->
<g id="edge11" class="edge"><title>Node7&#45;&gt;Node4</title>
<path fill="none" stroke="midnightblue" d="M616.722,-57.8702C661.505,-49.874 735.809,-36.1509 809.054,-20.1154"/>
<polygon fill="midnightblue" stroke="midnightblue" points="809.899,-23.5132 818.911,-17.9418 808.392,-16.6775 809.899,-23.5132"/>
</g>
<!-- Node8 -->
<g id="node8" class="node"><title>Node8</title>
<polygon fill="white" stroke="#bfbfbf" points="497,-0.5 497,-19.5 541,-19.5 541,-0.5 497,-0.5"/>
<text text-anchor="middle" x="519" y="-7.5" font-family="Helvetica,sans-Serif" font-size="10.00">mutex</text>
</g>
<!-- Node7&#45;&gt;Node8 -->
<g id="edge7" class="edge"><title>Node7&#45;&gt;Node8</title>
<path fill="none" stroke="midnightblue" d="M566.842,-56.324C558.499,-48.4196 545.968,-36.5482 535.823,-26.9377"/>
<polygon fill="midnightblue" stroke="midnightblue" points="537.991,-24.1705 528.325,-19.8339 533.177,-29.2522 537.991,-24.1705"/>
</g>
<!-- Node9 -->
<g id="node9" class="node"><title>Node9</title>
<polygon fill="white" stroke="#bfbfbf" points="559,-0.5 559,-19.5 611,-19.5 611,-0.5 559,-0.5"/>
<text text-anchor="middle" x="585" y="-7.5" font-family="Helvetica,sans-Serif" font-size="10.00">memory</text>
</g>
<!-- Node7&#45;&gt;Node9 -->
<g id="edge8" class="edge"><title>Node7&#45;&gt;Node9</title>
<path fill="none" stroke="midnightblue" d="M577.486,-56.083C578.679,-48.9272 580.394,-38.6353 581.885,-29.6911"/>
<polygon fill="midnightblue" stroke="midnightblue" points="585.35,-30.1904 583.541,-19.7511 578.445,-29.0396 585.35,-30.1904"/>
</g>
<!-- Node10 -->
<g id="node10" class="node"><title>Node10</title>
<polygon fill="white" stroke="#bfbfbf" points="629,-0.5 629,-19.5 673,-19.5 673,-0.5 629,-0.5"/>
<text text-anchor="middle" x="651" y="-7.5" font-family="Helvetica,sans-Serif" font-size="10.00">vector</text>
</g>
<!-- Node7&#45;&gt;Node10 -->
<g id="edge9" class="edge"><title>Node7&#45;&gt;Node10</title>
<path fill="none" stroke="midnightblue" d="M588.05,-56.324C599.463,-48.1066 616.831,-35.6017 630.435,-25.8069"/>
<polygon fill="midnightblue" stroke="midnightblue" points="632.66,-28.5174 638.731,-19.8339 628.57,-22.8366 632.66,-28.5174"/>
</g>
<!-- Node11 -->
<g id="node11" class="node"><title>Node11</title>
<polygon fill="white" stroke="#bfbfbf" points="691.5,-0.5 691.5,-19.5 726.5,-19.5 726.5,-0.5 691.5,-0.5"/>
<text text-anchor="middle" x="709" y="-7.5" font-family="Helvetica,sans-Serif" font-size="10.00">map</text>
</g>
<!-- Node7&#45;&gt;Node11 -->
<g id="edge10" class="edge"><title>Node7&#45;&gt;Node11</title>
<path fill="none" stroke="midnightblue" d="M597.074,-56.4435C620.094,-47.097 657.026,-32.1023 682.117,-21.9151"/>
<polygon fill="midnightblue" stroke="midnightblue" points="683.474,-25.1417 691.422,-18.1368 680.84,-18.6559 683.474,-25.1417"/>
</g>
<!-- Node12 -->
<g id="node12" class="node"><title>Node12</title>
<polygon fill="white" stroke="#bfbfbf" points="745,-0.5 745,-19.5 801,-19.5 801,-0.5 745,-0.5"/>
<text text-anchor="middle" x="773" y="-7.5" font-family="Helvetica,sans-Serif" font-size="10.00">TChain.h</text>
</g>
<!-- Node7&#45;&gt;Node12 -->
<g id="edge12" class="edge"><title>Node7&#45;&gt;Node12</title>
<path fill="none" stroke="midnightblue" d="M607.215,-56.4435C641.826,-46.9565 697.666,-31.65 734.845,-21.4588"/>
<polygon fill="midnightblue" stroke="midnightblue" points="736.084,-24.7482 744.803,-18.729 734.234,-17.9972 736.084,-24.7482"/>
</g>
<!-- Node13 -->
<g id="node13" class="node"><title>Node13</title>
<polygon fill="white" stroke="#bfbfbf" points="80,-0.5 80,-19.5 162,-19.5 162,-0.5 80,-0.5"/>
<text text-anchor="middle" x="121" y="-7.5" font-family="Helvetica,sans-Serif" font-size="10.00">TTreeReader.h</text>
</g>
<!-- Node7&#45;&gt;Node13 -->
<g id="edge13" class="edge"><title>Node7&#45;&gt;Node13</title>
<path fill="none" stroke="midnightblue" d="M535.383,-57.4189C532.213,-56.9098 529.057,-56.4295 526,-56 372.176,-34.389 329.771,-41.7428 172.211,-20.0682"/>
<polygon fill="midnightblue" stroke="midnightblue" points="172.548,-16.5815 162.16,-18.6681 171.582,-23.5145 172.548,-16.5815"/>
</g>
<!-- Node14 -->
<g id="node14" class="node"><title>Node14</title>
<polygon fill="white" stroke="#bfbfbf" points="180.5,-0.5 180.5,-19.5 285.5,-19.5 285.5,-0.5 180.5,-0.5"/>
<text text-anchor="middle" x="233" y="-7.5" font-family="Helvetica,sans-Serif" font-size="10.00">TTreeReaderArray.h</text>
</g>
<!-- Node7&#45;&gt;Node14 -->
<g id="edge14" class="edge"><title>Node7&#45;&gt;Node14</title>
<path fill="none" stroke="midnightblue" d="M535.356,-57.594C532.192,-57.045 529.045,-56.5078 526,-56 482.911,-48.8143 368.12,-31.3696 295.674,-20.4324"/>
<polygon fill="midnightblue" stroke="midnightblue" points="296.155,-16.9654 285.745,-18.934 295.11,-23.887 296.155,-16.9654"/>
</g>
<!-- Node15 -->
<g id="node15" class="node"><title>Node15</title>
<polygon fill="white" stroke="#bfbfbf" points="303.5,-0.5 303.5,-19.5 410.5,-19.5 410.5,-0.5 303.5,-0.5"/>
<text text-anchor="middle" x="357" y="-7.5" font-family="Helvetica,sans-Serif" font-size="10.00">TTreeReaderValue.h</text>
</g>
<!-- Node7&#45;&gt;Node15 -->
<g id="edge15" class="edge"><title>Node7&#45;&gt;Node15</title>
<path fill="none" stroke="midnightblue" d="M541.299,-56.4435C503.415,-47.1024 442.651,-32.1194 401.338,-21.9326"/>
<polygon fill="midnightblue" stroke="midnightblue" points="402.086,-18.5123 391.539,-19.5164 400.41,-25.3088 402.086,-18.5123"/>
</g>
<!-- Node16 -->
<g id="node16" class="node"><title>Node16</title>
<polygon fill="white" stroke="#bfbfbf" points="429,-0.5 429,-19.5 479,-19.5 479,-0.5 429,-0.5"/>
<text text-anchor="middle" x="454" y="-7.5" font-family="Helvetica,sans-Serif" font-size="10.00">TLeaf.h</text>
</g>
<!-- Node7&#45;&gt;Node16 -->
<g id="edge16" class="edge"><title>Node7&#45;&gt;Node16</title>
<path fill="none" stroke="midnightblue" d="M556.669,-56.4435C536.68,-47.5961 505.257,-33.6875 482.436,-23.5865"/>
<polygon fill="midnightblue" stroke="midnightblue" points="483.802,-20.3635 473.241,-19.5164 480.968,-26.7645 483.802,-20.3635"/>
</g>
<!-- Node18 -->
<g id="node18" class="node"><title>Node18</title>
<g id="a_node18"><a xlink:href="../../d8/d42/PseudoJet_8hh.html" target="_top" xlink:title="PseudoJet.hh">
<polygon fill="white" stroke="black" points="1148.5,-358.5 1148.5,-377.5 1225.5,-377.5 1225.5,-358.5 1148.5,-358.5"/>
<text text-anchor="middle" x="1187" y="-365.5" font-family="Helvetica,sans-Serif" font-size="10.00">PseudoJet.hh</text>
</a>
</g>
</g>
<!-- Node17&#45;&gt;Node18 -->
<g id="edge18" class="edge"><title>Node17&#45;&gt;Node18</title>
<path fill="none" stroke="midnightblue" d="M1120.69,-414.324C1132.9,-405.979 1151.58,-393.212 1166,-383.352"/>
<polygon fill="midnightblue" stroke="midnightblue" points="1168.06,-386.187 1174.34,-377.655 1164.11,-380.408 1168.06,-386.187"/>
</g>
<!-- Node36 -->
<g id="node36" class="node"><title>Node36</title>
<g id="a_node36"><a xlink:href="../../d1/dce/JetInfo_8hh.html" target="_top" xlink:title="JetInfo.hh">
<polygon fill="white" stroke="black" points="1078,-302.5 1078,-321.5 1138,-321.5 1138,-302.5 1078,-302.5"/>
<text text-anchor="middle" x="1108" y="-309.5" font-family="Helvetica,sans-Serif" font-size="10.00">JetInfo.hh</text>
</a>
</g>
</g>
<!-- Node17&#45;&gt;Node36 -->
<g id="edge57" class="edge"><title>Node17&#45;&gt;Node36</title>
<path fill="none" stroke="midnightblue" d="M1108,-414.368C1108,-396.617 1108,-355.666 1108,-331.597"/>
<polygon fill="midnightblue" stroke="midnightblue" points="1111.5,-331.591 1108,-321.591 1104.5,-331.591 1111.5,-331.591"/>
</g>
<!-- Node19 -->
<g id="node19" class="node"><title>Node19</title>
<polygon fill="white" stroke="#bfbfbf" points="1170.5,-246.5 1170.5,-265.5 1277.5,-265.5 1277.5,-246.5 1170.5,-246.5"/>
<text text-anchor="middle" x="1224" y="-253.5" font-family="Helvetica,sans-Serif" font-size="10.00">fastjet/PseudoJet.hh</text>
</g>
<!-- Node18&#45;&gt;Node19 -->
<g id="edge19" class="edge"><title>Node18&#45;&gt;Node19</title>
<path fill="none" stroke="midnightblue" d="M1189.9,-358.368C1195.9,-340.537 1209.77,-299.295 1217.85,-275.272"/>
<polygon fill="midnightblue" stroke="midnightblue" points="1221.24,-276.185 1221.11,-265.591 1214.6,-273.954 1221.24,-276.185"/>
</g>
<!-- Node20 -->
<g id="node20" class="node"><title>Node20</title>
<g id="a_node20"><a xlink:href="../../dc/d45/Units_8hh.html" target="_top" xlink:title="physics/Units.hh">
<polygon fill="white" stroke="black" points="1604,-302.5 1604,-321.5 1694,-321.5 1694,-302.5 1604,-302.5"/>
<text text-anchor="middle" x="1649" y="-309.5" font-family="Helvetica,sans-Serif" font-size="10.00">physics/Units.hh</text>
</a>
</g>
</g>
<!-- Node18&#45;&gt;Node20 -->
<g id="edge20" class="edge"><title>Node18&#45;&gt;Node20</title>
<path fill="none" stroke="midnightblue" d="M1225.6,-362.489C1307.51,-352.914 1499.02,-330.53 1593.82,-319.449"/>
<polygon fill="midnightblue" stroke="midnightblue" points="1594.26,-322.922 1603.79,-318.284 1593.45,-315.969 1594.26,-322.922"/>
</g>
<!-- Node18&#45;&gt;Node36 -->
<g id="edge40" class="edge"><title>Node18&#45;&gt;Node36</title>
<path fill="none" stroke="midnightblue" d="M1174.31,-358.324C1162.1,-349.979 1143.42,-337.212 1129,-327.352"/>
<polygon fill="midnightblue" stroke="midnightblue" points="1130.89,-324.408 1120.66,-321.655 1126.94,-330.187 1130.89,-324.408"/>
</g>
<!-- Node21 -->
<g id="node21" class="node"><title>Node21</title>
<polygon fill="white" stroke="#bfbfbf" points="1718.5,-246.5 1718.5,-265.5 1831.5,-265.5 1831.5,-246.5 1718.5,-246.5"/>
<text text-anchor="middle" x="1775" y="-253.5" font-family="Helvetica,sans-Serif" font-size="10.00">boost/units/cmath.hpp</text>
</g>
<!-- Node20&#45;&gt;Node21 -->
<g id="edge21" class="edge"><title>Node20&#45;&gt;Node21</title>
<path fill="none" stroke="midnightblue" d="M1668.97,-302.444C1689.61,-293.596 1722.06,-279.687 1745.63,-269.586"/>
<polygon fill="midnightblue" stroke="midnightblue" points="1747.32,-272.673 1755.13,-265.516 1744.56,-266.239 1747.32,-272.673"/>
</g>
<!-- Node22 -->
<g id="node22" class="node"><title>Node22</title>
<g id="a_node22"><a xlink:href="../../dc/d6c/Prefixes_8hh.html" target="_top" xlink:title="physics/Prefixes.hh">
<polygon fill="white" stroke="black" points="1597.5,-246.5 1597.5,-265.5 1700.5,-265.5 1700.5,-246.5 1597.5,-246.5"/>
<text text-anchor="middle" x="1649" y="-253.5" font-family="Helvetica,sans-Serif" font-size="10.00">physics/Prefixes.hh</text>
</a>
</g>
</g>
<!-- Node20&#45;&gt;Node22 -->
<g id="edge22" class="edge"><title>Node20&#45;&gt;Node22</title>
<path fill="none" stroke="midnightblue" d="M1649,-302.083C1649,-295.006 1649,-284.861 1649,-275.986"/>
<polygon fill="midnightblue" stroke="midnightblue" points="1652.5,-275.751 1649,-265.751 1645.5,-275.751 1652.5,-275.751"/>
</g>
<!-- Node23 -->
<g id="node23" class="node"><title>Node23</title>
<polygon fill="white" stroke="#bfbfbf" points="1709,-185 1709,-204 1819,-204 1819,-185 1709,-185"/>
<text text-anchor="middle" x="1764" y="-192" font-family="Helvetica,sans-Serif" font-size="10.00">boost/units/scale.hpp</text>
</g>
<!-- Node22&#45;&gt;Node23 -->
<g id="edge23" class="edge"><title>Node22&#45;&gt;Node23</title>
<path fill="none" stroke="midnightblue" d="M1665.48,-246.475C1684.61,-236.578 1716.37,-220.142 1738.65,-208.615"/>
<polygon fill="midnightblue" stroke="midnightblue" points="1740.28,-211.713 1747.55,-204.009 1737.06,-205.496 1740.28,-211.713"/>
</g>
<!-- Node24 -->
<g id="node24" class="node"><title>Node24</title>
<polygon fill="white" stroke="#bfbfbf" points="1837.5,-179.5 1837.5,-209.5 1962.5,-209.5 1962.5,-179.5 1837.5,-179.5"/>
<text text-anchor="start" x="1845.5" y="-197.5" font-family="Helvetica,sans-Serif" font-size="10.00">boost/units/make_scaled</text>
<text text-anchor="middle" x="1900" y="-186.5" font-family="Helvetica,sans-Serif" font-size="10.00">_unit.hpp</text>
</g>
<!-- Node22&#45;&gt;Node24 -->
<g id="edge24" class="edge"><title>Node22&#45;&gt;Node24</title>
<path fill="none" stroke="midnightblue" d="M1684.96,-246.475C1722.93,-237.475 1783.7,-223.068 1830.98,-211.862"/>
<polygon fill="midnightblue" stroke="midnightblue" points="1831.92,-215.235 1840.84,-209.523 1830.31,-208.424 1831.92,-215.235"/>
</g>
<!-- Node25 -->
<g id="node25" class="node"><title>Node25</title>
<polygon fill="white" stroke="#bfbfbf" points="1980.5,-179.5 1980.5,-209.5 2091.5,-209.5 2091.5,-179.5 1980.5,-179.5"/>
<text text-anchor="start" x="1988.5" y="-197.5" font-family="Helvetica,sans-Serif" font-size="10.00">boost/units/systems</text>
<text text-anchor="middle" x="2036" y="-186.5" font-family="Helvetica,sans-Serif" font-size="10.00">/si/dimensionless.hpp</text>
</g>
<!-- Node22&#45;&gt;Node25 -->
<g id="edge25" class="edge"><title>Node22&#45;&gt;Node25</title>
<path fill="none" stroke="midnightblue" d="M1700.58,-247.353C1703.77,-246.892 1706.93,-246.438 1710,-246 1823.18,-229.875 1854.65,-230.932 1970.26,-210.236"/>
<polygon fill="midnightblue" stroke="midnightblue" points="1970.99,-213.66 1980.21,-208.438 1969.75,-206.771 1970.99,-213.66"/>
</g>
<!-- Node26 -->
<g id="node26" class="node"><title>Node26</title>
<g id="a_node26"><a xlink:href="../../d6/d2c/Si_8hh.html" target="_top" xlink:title="Si.hh">
<polygon fill="white" stroke="black" points="1457.5,-185 1457.5,-204 1496.5,-204 1496.5,-185 1457.5,-185"/>
<text text-anchor="middle" x="1477" y="-192" font-family="Helvetica,sans-Serif" font-size="10.00">Si.hh</text>
</a>
</g>
</g>
<!-- Node22&#45;&gt;Node26 -->
<g id="edge26" class="edge"><title>Node22&#45;&gt;Node26</title>
<path fill="none" stroke="midnightblue" d="M1624.36,-246.475C1593.13,-235.671 1539.37,-217.075 1506.14,-205.579"/>
<polygon fill="midnightblue" stroke="midnightblue" points="1507.13,-202.218 1496.53,-202.256 1504.84,-208.833 1507.13,-202.218"/>
</g>
<!-- Node30 -->
<g id="node30" class="node"><title>Node30</title>
<g id="a_node30"><a xlink:href="../../d5/d2d/Barn_8hh.html" target="_top" xlink:title="Barn.hh">
<polygon fill="white" stroke="black" points="1539,-185 1539,-204 1589,-204 1589,-185 1539,-185"/>
<text text-anchor="middle" x="1564" y="-192" font-family="Helvetica,sans-Serif" font-size="10.00">Barn.hh</text>
</a>
</g>
</g>
<!-- Node22&#45;&gt;Node30 -->
<g id="edge30" class="edge"><title>Node22&#45;&gt;Node30</title>
<path fill="none" stroke="midnightblue" d="M1636.82,-246.475C1623.19,-236.931 1600.87,-221.307 1584.53,-209.868"/>
<polygon fill="midnightblue" stroke="midnightblue" points="1586.36,-206.876 1576.16,-204.009 1582.34,-212.611 1586.36,-206.876"/>
</g>
<!-- Node34 -->
<g id="node34" class="node"><title>Node34</title>
<g id="a_node34"><a xlink:href="../../d5/d40/ElectronVolt_8hh.html" target="_top" xlink:title="ElectronVolt.hh">
<polygon fill="white" stroke="black" points="1607.5,-185 1607.5,-204 1690.5,-204 1690.5,-185 1607.5,-185"/>
<text text-anchor="middle" x="1649" y="-192" font-family="Helvetica,sans-Serif" font-size="10.00">ElectronVolt.hh</text>
</a>
</g>
</g>
<!-- Node22&#45;&gt;Node34 -->
<g id="edge35" class="edge"><title>Node22&#45;&gt;Node34</title>
<path fill="none" stroke="midnightblue" d="M1649,-246.475C1649,-238.08 1649,-224.981 1649,-214.163"/>
<polygon fill="midnightblue" stroke="midnightblue" points="1652.5,-214.009 1649,-204.009 1645.5,-214.009 1652.5,-214.009"/>
</g>
<!-- Node27 -->
<g id="node27" class="node"><title>Node27</title>
<polygon fill="white" stroke="#bfbfbf" points="1474.5,-118 1474.5,-137 1595.5,-137 1595.5,-118 1474.5,-118"/>
<text text-anchor="middle" x="1535" y="-125" font-family="Helvetica,sans-Serif" font-size="10.00">boost/units/quantity.hpp</text>
</g>
<!-- Node26&#45;&gt;Node27 -->
<g id="edge27" class="edge"><title>Node26&#45;&gt;Node27</title>
<path fill="none" stroke="midnightblue" d="M1484.82,-184.734C1493.95,-174.5 1509.24,-157.364 1520.55,-144.692"/>
<polygon fill="midnightblue" stroke="midnightblue" points="1523.26,-146.919 1527.3,-137.127 1518.03,-142.258 1523.26,-146.919"/>
</g>
<!-- Node28 -->
<g id="node28" class="node"><title>Node28</title>
<polygon fill="white" stroke="#bfbfbf" points="1095.5,-112.5 1095.5,-142.5 1200.5,-142.5 1200.5,-112.5 1095.5,-112.5"/>
<text text-anchor="start" x="1103.5" y="-130.5" font-family="Helvetica,sans-Serif" font-size="10.00">boost/units/systems</text>
<text text-anchor="middle" x="1148" y="-119.5" font-family="Helvetica,sans-Serif" font-size="10.00">/si/plane_angle.hpp</text>
</g>
<!-- Node26&#45;&gt;Node28 -->
<g id="edge28" class="edge"><title>Node26&#45;&gt;Node28</title>
<path fill="none" stroke="midnightblue" d="M1457.18,-190.051C1414.23,-182.512 1309.15,-163.73 1210.56,-143.064"/>
<polygon fill="midnightblue" stroke="midnightblue" points="1211.24,-139.631 1200.73,-140.994 1209.79,-146.481 1211.24,-139.631"/>
</g>
<!-- Node29 -->
<g id="node29" class="node"><title>Node29</title>
<polygon fill="white" stroke="#bfbfbf" points="1218.5,-112.5 1218.5,-142.5 1323.5,-142.5 1323.5,-112.5 1218.5,-112.5"/>
<text text-anchor="start" x="1226.5" y="-130.5" font-family="Helvetica,sans-Serif" font-size="10.00">boost/units/systems</text>
<text text-anchor="middle" x="1271" y="-119.5" font-family="Helvetica,sans-Serif" font-size="10.00">/si/length.hpp</text>
</g>
<!-- Node26&#45;&gt;Node29 -->
<g id="edge29" class="edge"><title>Node26&#45;&gt;Node29</title>
<path fill="none" stroke="midnightblue" d="M1457.25,-187.268C1427.1,-177.755 1368.54,-159.276 1325.09,-145.568"/>
<polygon fill="midnightblue" stroke="midnightblue" points="1326.1,-142.217 1315.51,-142.545 1324,-148.892 1326.1,-142.217"/>
</g>
<!-- Node30&#45;&gt;Node27 -->
<g id="edge33" class="edge"><title>Node30&#45;&gt;Node27</title>
<path fill="none" stroke="midnightblue" d="M1560.09,-184.734C1555.74,-174.988 1548.6,-158.981 1543.04,-146.532"/>
<polygon fill="midnightblue" stroke="midnightblue" points="1546.12,-144.834 1538.85,-137.127 1539.73,-147.686 1546.12,-144.834"/>
</g>
<!-- Node31 -->
<g id="node31" class="node"><title>Node31</title>
<polygon fill="white" stroke="#bfbfbf" points="1760.5,-118 1760.5,-137 1917.5,-137 1917.5,-118 1760.5,-118"/>
<text text-anchor="middle" x="1839" y="-125" font-family="Helvetica,sans-Serif" font-size="10.00">boost/units/base_dimension.hpp</text>
</g>
<!-- Node30&#45;&gt;Node31 -->
<g id="edge31" class="edge"><title>Node30&#45;&gt;Node31</title>
<path fill="none" stroke="midnightblue" d="M1583.02,-184.871C1588.14,-182.756 1593.72,-180.633 1599,-179 1632.79,-168.545 1723.8,-150.391 1783.54,-138.934"/>
<polygon fill="midnightblue" stroke="midnightblue" points="1784.41,-142.331 1793.57,-137.016 1783.09,-135.456 1784.41,-142.331"/>
</g>
<!-- Node32 -->
<g id="node32" class="node"><title>Node32</title>
<polygon fill="white" stroke="#bfbfbf" points="1614,-118 1614,-137 1742,-137 1742,-118 1614,-118"/>
<text text-anchor="middle" x="1678" y="-125" font-family="Helvetica,sans-Serif" font-size="10.00">boost/units/base_unit.hpp</text>
</g>
<!-- Node30&#45;&gt;Node32 -->
<g id="edge32" class="edge"><title>Node30&#45;&gt;Node32</title>
<path fill="none" stroke="midnightblue" d="M1579.37,-184.734C1598.52,-173.818 1631.44,-155.049 1653.94,-142.221"/>
<polygon fill="midnightblue" stroke="midnightblue" points="1655.92,-145.121 1662.87,-137.127 1652.45,-139.04 1655.92,-145.121"/>
</g>
<!-- Node33 -->
<g id="node33" class="node"><title>Node33</title>
<polygon fill="white" stroke="#bfbfbf" points="1341.5,-112.5 1341.5,-142.5 1456.5,-142.5 1456.5,-112.5 1341.5,-112.5"/>
<text text-anchor="start" x="1349.5" y="-130.5" font-family="Helvetica,sans-Serif" font-size="10.00">boost/units/base_units</text>
<text text-anchor="middle" x="1399" y="-119.5" font-family="Helvetica,sans-Serif" font-size="10.00">/metric/barn.hpp</text>
</g>
<!-- Node30&#45;&gt;Node33 -->
<g id="edge34" class="edge"><title>Node30&#45;&gt;Node33</title>
<path fill="none" stroke="midnightblue" d="M1542.09,-184.869C1517.22,-175.073 1475.99,-158.83 1444.16,-146.29"/>
<polygon fill="midnightblue" stroke="midnightblue" points="1445.2,-142.937 1434.61,-142.528 1442.63,-149.45 1445.2,-142.937"/>
</g>
<!-- Node34&#45;&gt;Node27 -->
<g id="edge38" class="edge"><title>Node34&#45;&gt;Node27</title>
<path fill="none" stroke="midnightblue" d="M1633.63,-184.734C1614.48,-173.818 1581.56,-155.049 1559.06,-142.221"/>
<polygon fill="midnightblue" stroke="midnightblue" points="1560.55,-139.04 1550.13,-137.127 1557.08,-145.121 1560.55,-139.04"/>
</g>
<!-- Node34&#45;&gt;Node31 -->
<g id="edge36" class="edge"><title>Node34&#45;&gt;Node31</title>
<path fill="none" stroke="midnightblue" d="M1674.23,-184.869C1707.68,-173.424 1766.86,-153.181 1804.44,-140.322"/>
<polygon fill="midnightblue" stroke="midnightblue" points="1805.64,-143.612 1813.97,-137.064 1803.37,-136.989 1805.64,-143.612"/>
</g>
<!-- Node34&#45;&gt;Node32 -->
<g id="edge37" class="edge"><title>Node34&#45;&gt;Node32</title>
<path fill="none" stroke="midnightblue" d="M1652.91,-184.734C1657.26,-174.988 1664.4,-158.981 1669.96,-146.532"/>
<polygon fill="midnightblue" stroke="midnightblue" points="1673.27,-147.686 1674.15,-137.127 1666.88,-144.834 1673.27,-147.686"/>
</g>
<!-- Node35 -->
<g id="node35" class="node"><title>Node35</title>
<polygon fill="white" stroke="#bfbfbf" points="1935.5,-112.5 1935.5,-142.5 2040.5,-142.5 2040.5,-112.5 1935.5,-112.5"/>
<text text-anchor="start" x="1943.5" y="-130.5" font-family="Helvetica,sans-Serif" font-size="10.00">boost/units/systems</text>
<text text-anchor="middle" x="1988" y="-119.5" font-family="Helvetica,sans-Serif" font-size="10.00">/si/energy.hpp</text>
</g>
<!-- Node34&#45;&gt;Node35 -->
<g id="edge39" class="edge"><title>Node34&#45;&gt;Node35</title>
<path fill="none" stroke="midnightblue" d="M1676.64,-184.99C1684.17,-182.85 1692.36,-180.686 1700,-179 1796.63,-157.681 1825.03,-162.489 1925.53,-143.195"/>
<polygon fill="midnightblue" stroke="midnightblue" points="1926.34,-146.603 1935.48,-141.252 1925,-139.733 1926.34,-146.603"/>
</g>
<!-- Node36&#45;&gt;Node19 -->
<g id="edge41" class="edge"><title>Node36&#45;&gt;Node19</title>
<path fill="none" stroke="midnightblue" d="M1126.38,-302.444C1145.22,-293.675 1174.73,-279.935 1196.38,-269.858"/>
<polygon fill="midnightblue" stroke="midnightblue" points="1198.12,-272.91 1205.71,-265.516 1195.16,-266.564 1198.12,-272.91"/>
</g>
<!-- Node37 -->
<g id="node37" class="node"><title>Node37</title>
<g id="a_node37"><a xlink:href="../../d8/d85/Identification_8hh.html" target="_top" xlink:title="Identification.hh">
<polygon fill="white" stroke="black" points="739,-246.5 739,-265.5 825,-265.5 825,-246.5 739,-246.5"/>
<text text-anchor="middle" x="782" y="-253.5" font-family="Helvetica,sans-Serif" font-size="10.00">Identification.hh</text>
</a>
</g>
</g>
<!-- Node36&#45;&gt;Node37 -->
<g id="edge42" class="edge"><title>Node36&#45;&gt;Node37</title>
<path fill="none" stroke="midnightblue" d="M1077.92,-306.017C1022.67,-296.865 904.38,-277.272 835.258,-265.822"/>
<polygon fill="midnightblue" stroke="midnightblue" points="835.455,-262.307 825.017,-264.126 834.311,-269.213 835.455,-262.307"/>
</g>
<!-- Node39 -->
<g id="node39" class="node"><title>Node39</title>
<g id="a_node39"><a xlink:href="../../d3/d32/Constituent_8hh.html" target="_top" xlink:title="Constituent.hh">
<polygon fill="white" stroke="black" points="884,-246.5 884,-265.5 964,-265.5 964,-246.5 884,-246.5"/>
<text text-anchor="middle" x="924" y="-253.5" font-family="Helvetica,sans-Serif" font-size="10.00">Constituent.hh</text>
</a>
</g>
</g>
<!-- Node36&#45;&gt;Node39 -->
<g id="edge44" class="edge"><title>Node36&#45;&gt;Node39</title>
<path fill="none" stroke="midnightblue" d="M1078.84,-302.444C1047.49,-293.241 997.469,-278.562 962.803,-268.388"/>
<polygon fill="midnightblue" stroke="midnightblue" points="963.6,-264.974 953.019,-265.516 961.629,-271.691 963.6,-264.974"/>
</g>
<!-- Node46 -->
<g id="node46" class="node"><title>Node46</title>
<g id="a_node46"><a xlink:href="../../d7/d7f/Math_8hh.html" target="_top" xlink:title="physics/Math.hh">
<polygon fill="white" stroke="black" points="1063.5,-246.5 1063.5,-265.5 1152.5,-265.5 1152.5,-246.5 1063.5,-246.5"/>
<text text-anchor="middle" x="1108" y="-253.5" font-family="Helvetica,sans-Serif" font-size="10.00">physics/Math.hh</text>
</a>
</g>
</g>
<!-- Node36&#45;&gt;Node46 -->
<g id="edge52" class="edge"><title>Node36&#45;&gt;Node46</title>
<path fill="none" stroke="midnightblue" d="M1108,-302.083C1108,-295.006 1108,-284.861 1108,-275.986"/>
<polygon fill="midnightblue" stroke="midnightblue" points="1111.5,-275.751 1108,-265.751 1104.5,-275.751 1111.5,-275.751"/>
</g>
<!-- Node38 -->
<g id="node38" class="node"><title>Node38</title>
<polygon fill="white" stroke="#bfbfbf" points="740.5,-185 740.5,-204 781.5,-204 781.5,-185 740.5,-185"/>
<text text-anchor="middle" x="761" y="-192" font-family="Helvetica,sans-Serif" font-size="10.00">string</text>
</g>
<!-- Node37&#45;&gt;Node38 -->
<g id="edge43" class="edge"><title>Node37&#45;&gt;Node38</title>
<path fill="none" stroke="midnightblue" d="M778.991,-246.475C775.966,-237.904 771.21,-224.427 767.347,-213.483"/>
<polygon fill="midnightblue" stroke="midnightblue" points="770.632,-212.274 764.003,-204.009 764.031,-214.604 770.632,-212.274"/>
</g>
<!-- Node40 -->
<g id="node40" class="node"><title>Node40</title>
<g id="a_node40"><a xlink:href="../../d6/dc8/LorentzVector_8hh.html" target="_top" xlink:title="physics/LorentzVector.hh">
<polygon fill="white" stroke="black" points="800,-185 800,-204 928,-204 928,-185 800,-185"/>
<text text-anchor="middle" x="864" y="-192" font-family="Helvetica,sans-Serif" font-size="10.00">physics/LorentzVector.hh</text>
</a>
</g>
</g>
<!-- Node39&#45;&gt;Node40 -->
<g id="edge45" class="edge"><title>Node39&#45;&gt;Node40</title>
<path fill="none" stroke="midnightblue" d="M915.403,-246.475C906.136,-237.285 891.183,-222.456 879.788,-211.156"/>
<polygon fill="midnightblue" stroke="midnightblue" points="882.146,-208.565 872.581,-204.009 877.217,-213.536 882.146,-208.565"/>
</g>
<!-- Node41 -->
<g id="node41" class="node"><title>Node41</title>
<g id="a_node41"><a xlink:href="../../d7/d06/DelphesForward_8hh.html" target="_top" xlink:title="delphes/DelphesForward.hh">
<polygon fill="white" stroke="black" points="939,-118 939,-137 1077,-137 1077,-118 939,-118"/>
<text text-anchor="middle" x="1008" y="-125" font-family="Helvetica,sans-Serif" font-size="10.00">delphes/DelphesForward.hh</text>
</a>
</g>
</g>
<!-- Node40&#45;&gt;Node41 -->
<g id="edge46" class="edge"><title>Node40&#45;&gt;Node41</title>
<path fill="none" stroke="midnightblue" d="M883.122,-184.869C907.759,-173.748 950.806,-154.317 979.358,-141.429"/>
<polygon fill="midnightblue" stroke="midnightblue" points="981.124,-144.471 988.799,-137.167 978.244,-138.091 981.124,-144.471"/>
</g>
<!-- Node42 -->
<g id="node42" class="node"><title>Node42</title>
<g id="a_node42"><a xlink:href="../../d6/d1c/ExRootAnalysisForward_8hh.html" target="_top" xlink:title="exroot/ExRootAnalysisForward.hh">
<polygon fill="white" stroke="black" points="623,-118 623,-137 789,-137 789,-118 623,-118"/>
<text text-anchor="middle" x="706" y="-125" font-family="Helvetica,sans-Serif" font-size="10.00">exroot/ExRootAnalysisForward.hh</text>
</a>
</g>
</g>
<!-- Node40&#45;&gt;Node42 -->
<g id="edge47" class="edge"><title>Node40&#45;&gt;Node42</title>
<path fill="none" stroke="midnightblue" d="M843.019,-184.869C815.75,-173.65 767.928,-153.977 736.609,-141.092"/>
<polygon fill="midnightblue" stroke="midnightblue" points="737.648,-137.735 727.068,-137.167 734.984,-144.209 737.648,-137.735"/>
</g>
<!-- Node43 -->
<g id="node43" class="node"><title>Node43</title>
<g id="a_node43"><a xlink:href="../../df/d17/LorentzVectorBase_8hh.html" target="_top" xlink:title="LorentzVectorBase.hh">
<polygon fill="white" stroke="black" points="807.5,-118 807.5,-137 920.5,-137 920.5,-118 807.5,-118"/>
<text text-anchor="middle" x="864" y="-125" font-family="Helvetica,sans-Serif" font-size="10.00">LorentzVectorBase.hh</text>
</a>
</g>
</g>
<!-- Node40&#45;&gt;Node43 -->
<g id="edge48" class="edge"><title>Node40&#45;&gt;Node43</title>
<path fill="none" stroke="midnightblue" d="M864,-184.734C864,-175.183 864,-159.618 864,-147.283"/>
<polygon fill="midnightblue" stroke="midnightblue" points="867.5,-147.127 864,-137.127 860.5,-147.127 867.5,-147.127"/>
</g>
<!-- Node44 -->
<g id="node44" class="node"><title>Node44</title>
<g id="a_node44"><a xlink:href="../../d1/df9/Vector3_8hh.html" target="_top" xlink:title="Vector3.hh">
<polygon fill="white" stroke="red" points="832,-56.5 832,-75.5 896,-75.5 896,-56.5 832,-56.5"/>
<text text-anchor="middle" x="864" y="-63.5" font-family="Helvetica,sans-Serif" font-size="10.00">Vector3.hh</text>
</a>
</g>
</g>
<!-- Node43&#45;&gt;Node44 -->
<g id="edge49" class="edge"><title>Node43&#45;&gt;Node44</title>
<path fill="none" stroke="midnightblue" d="M864,-117.975C864,-109.58 864,-96.4806 864,-85.6631"/>
<polygon fill="midnightblue" stroke="midnightblue" points="867.5,-85.5091 864,-75.5091 860.5,-85.5091 867.5,-85.5091"/>
</g>
<!-- Node44&#45;&gt;Node4 -->
<g id="edge50" class="edge"><title>Node44&#45;&gt;Node4</title>
<path fill="none" stroke="midnightblue" d="M861.028,-56.083C858.616,-48.8486 855.136,-38.4087 852.132,-29.3968"/>
<polygon fill="midnightblue" stroke="midnightblue" points="855.4,-28.1311 848.917,-19.7511 848.759,-30.3447 855.4,-28.1311"/>
</g>
<!-- Node45 -->
<g id="node45" class="node"><title>Node45</title>
<polygon fill="white" stroke="#bfbfbf" points="891.5,-0.5 891.5,-19.5 956.5,-19.5 956.5,-0.5 891.5,-0.5"/>
<text text-anchor="middle" x="924" y="-7.5" font-family="Helvetica,sans-Serif" font-size="10.00">TVector3.h</text>
</g>
<!-- Node44&#45;&gt;Node45 -->
<g id="edge51" class="edge"><title>Node44&#45;&gt;Node45</title>
<path fill="none" stroke="midnightblue" d="M873.64,-56.324C882.51,-48.3414 895.875,-36.3128 906.608,-26.6529"/>
<polygon fill="midnightblue" stroke="midnightblue" points="909.093,-29.1251 914.185,-19.8339 904.41,-23.922 909.093,-29.1251"/>
</g>
<!-- Node47 -->
<g id="node47" class="node"><title>Node47</title>
<polygon fill="white" stroke="#bfbfbf" points="1330,-185 1330,-204 1386,-204 1386,-185 1330,-185"/>
<text text-anchor="middle" x="1358" y="-192" font-family="Helvetica,sans-Serif" font-size="10.00">algorithm</text>
</g>
<!-- Node46&#45;&gt;Node47 -->
<g id="edge53" class="edge"><title>Node46&#45;&gt;Node47</title>
<path fill="none" stroke="midnightblue" d="M1152.61,-246.476C1205.41,-236.232 1290.04,-219.267 1321,-210 1323.43,-209.273 1325.92,-208.456 1328.41,-207.589"/>
<polygon fill="midnightblue" stroke="midnightblue" points="1329.69,-210.847 1337.86,-204.09 1327.26,-204.283 1329.69,-210.847"/>
</g>
<!-- Node48 -->
<g id="node48" class="node"><title>Node48</title>
<polygon fill="white" stroke="#bfbfbf" points="946,-179.5 946,-209.5 1056,-209.5 1056,-179.5 946,-179.5"/>
<text text-anchor="start" x="954" y="-197.5" font-family="Helvetica,sans-Serif" font-size="10.00">boost/range/algorithm</text>
<text text-anchor="middle" x="1001" y="-186.5" font-family="Helvetica,sans-Serif" font-size="10.00">/lower_bound.hpp</text>
</g>
<!-- Node46&#45;&gt;Node48 -->
<g id="edge54" class="edge"><title>Node46&#45;&gt;Node48</title>
<path fill="none" stroke="midnightblue" d="M1092.67,-246.475C1077.7,-238.153 1054.42,-225.207 1035.07,-214.445"/>
<polygon fill="midnightblue" stroke="midnightblue" points="1036.66,-211.324 1026.22,-209.523 1033.26,-217.442 1036.66,-211.324"/>
</g>
<!-- Node49 -->
<g id="node49" class="node"><title>Node49</title>
<polygon fill="white" stroke="#bfbfbf" points="1074,-179.5 1074,-209.5 1184,-209.5 1184,-179.5 1074,-179.5"/>
<text text-anchor="start" x="1082" y="-197.5" font-family="Helvetica,sans-Serif" font-size="10.00">boost/range/algorithm</text>
<text text-anchor="middle" x="1129" y="-186.5" font-family="Helvetica,sans-Serif" font-size="10.00">/min_element.hpp</text>
</g>
<!-- Node46&#45;&gt;Node49 -->
<g id="edge55" class="edge"><title>Node46&#45;&gt;Node49</title>
<path fill="none" stroke="midnightblue" d="M1111.01,-246.475C1113.53,-239.32 1117.27,-228.748 1120.68,-219.084"/>
<polygon fill="midnightblue" stroke="midnightblue" points="1124.02,-220.118 1124.05,-209.523 1117.42,-217.788 1124.02,-220.118"/>
</g>
<!-- Node50 -->
<g id="node50" class="node"><title>Node50</title>
<polygon fill="white" stroke="#bfbfbf" points="1202,-179.5 1202,-209.5 1312,-209.5 1312,-179.5 1202,-179.5"/>
<text text-anchor="start" x="1210" y="-197.5" font-family="Helvetica,sans-Serif" font-size="10.00">boost/range/algorithm</text>
<text text-anchor="middle" x="1257" y="-186.5" font-family="Helvetica,sans-Serif" font-size="10.00">/max_element.hpp</text>
</g>
<!-- Node46&#45;&gt;Node50 -->
<g id="edge56" class="edge"><title>Node46&#45;&gt;Node50</title>
<path fill="none" stroke="midnightblue" d="M1129.35,-246.475C1150.94,-237.852 1184.97,-224.264 1212.46,-213.285"/>
<polygon fill="midnightblue" stroke="midnightblue" points="1213.89,-216.482 1221.88,-209.523 1211.3,-209.981 1213.89,-216.482"/>
</g>
</g>
</svg>
