<?xml version="1.0" encoding="UTF-8" standalone="no"?>
<!DOCTYPE svg PUBLIC "-//W3C//DTD SVG 1.1//EN"
 "http://www.w3.org/Graphics/SVG/1.1/DTD/svg11.dtd">
<!-- Generated by graphviz version 2.38.0 (20140413.2041)
 -->
<!-- Title: HeavyHiggs/source/HeavyHiggsSemiTagger.cpp Pages: 1 -->
<svg width="1090pt" height="655pt"
 viewBox="0.00 0.00 1090.29 655.00" xmlns="http://www.w3.org/2000/svg" xmlns:xlink="http://www.w3.org/1999/xlink">
<g id="graph0" class="graph" transform="scale(1 1) rotate(0) translate(4 651)">
<title>HeavyHiggs/source/HeavyHiggsSemiTagger.cpp</title>
<polygon fill="white" stroke="none" points="-4,4 -4,-651 1086.29,-651 1086.29,4 -4,4"/>
<!-- Node1 -->
<g id="node1" class="node"><title>Node1</title>
<polygon fill="#bfbfbf" stroke="black" points="832,-616.5 832,-646.5 992,-646.5 992,-616.5 832,-616.5"/>
<text text-anchor="start" x="840" y="-634.5" font-family="Helvetica,sans-Serif" font-size="10.00">HeavyHiggs/source/HeavyHiggs</text>
<text text-anchor="middle" x="912" y="-623.5" font-family="Helvetica,sans-Serif" font-size="10.00">SemiTagger.cpp</text>
</g>
<!-- Node2 -->
<g id="node2" class="node"><title>Node2</title>
<g id="a_node2"><a xlink:href="../../d5/dae/HeavyHiggsSemiTagger_8hh.html" target="_top" xlink:title="HeavyHiggsSemiTagger.hh">
<polygon fill="white" stroke="black" points="297.5,-560.5 297.5,-579.5 434.5,-579.5 434.5,-560.5 297.5,-560.5"/>
<text text-anchor="middle" x="366" y="-567.5" font-family="Helvetica,sans-Serif" font-size="10.00">HeavyHiggsSemiTagger.hh</text>
</a>
</g>
</g>
<!-- Node1&#45;&gt;Node2 -->
<g id="edge1" class="edge"><title>Node1&#45;&gt;Node2</title>
<path fill="none" stroke="midnightblue" d="M831.729,-621.753C727.882,-610.436 548.098,-590.844 444.917,-579.6"/>
<polygon fill="midnightblue" stroke="midnightblue" points="445.19,-576.109 434.869,-578.505 444.431,-583.068 445.19,-576.109"/>
</g>
<!-- Node19 -->
<g id="node19" class="node"><title>Node19</title>
<g id="a_node19"><a xlink:href="../../d5/df2/Event_8hh.html" target="_top" xlink:title="Event.hh">
<polygon fill="white" stroke="black" points="674,-224.5 674,-243.5 730,-243.5 730,-224.5 674,-224.5"/>
<text text-anchor="middle" x="702" y="-231.5" font-family="Helvetica,sans-Serif" font-size="10.00">Event.hh</text>
</a>
</g>
</g>
<!-- Node1&#45;&gt;Node19 -->
<g id="edge76" class="edge"><title>Node1&#45;&gt;Node19</title>
<path fill="none" stroke="midnightblue" d="M912,-616.275C912,-594.476 912,-551.495 912,-515 912,-515 912,-515 912,-345 912,-268.354 800.872,-245.01 740.296,-237.979"/>
<polygon fill="midnightblue" stroke="midnightblue" points="740.636,-234.495 730.322,-236.915 739.894,-241.456 740.636,-234.495"/>
</g>
<!-- Node49 -->
<g id="node49" class="node"><title>Node49</title>
<g id="a_node49"><a xlink:href="../../d8/de8/Debug_8hh.html" target="_top" xlink:title="Debug.hh">
<polygon fill="white" stroke="black" points="909.5,-112.5 909.5,-131.5 968.5,-131.5 968.5,-112.5 909.5,-112.5"/>
<text text-anchor="middle" x="939" y="-119.5" font-family="Helvetica,sans-Serif" font-size="10.00">Debug.hh</text>
</a>
</g>
</g>
<!-- Node1&#45;&gt;Node49 -->
<g id="edge77" class="edge"><title>Node1&#45;&gt;Node49</title>
<path fill="none" stroke="midnightblue" d="M919.874,-616.407C931.004,-595.125 950,-553.208 950,-515 950,-515 950,-515 950,-233 950,-200.788 945.272,-163.532 942.015,-141.692"/>
<polygon fill="midnightblue" stroke="midnightblue" points="945.43,-140.874 940.438,-131.529 938.513,-141.947 945.43,-140.874"/>
</g>
<!-- Node3 -->
<g id="node3" class="node"><title>Node3</title>
<g id="a_node3"><a xlink:href="../../d8/d6f/Branch_8hh.html" target="_top" xlink:title="Branch.hh">
<polygon fill="white" stroke="black" points="14.5,-392.5 14.5,-411.5 75.5,-411.5 75.5,-392.5 14.5,-392.5"/>
<text text-anchor="middle" x="45" y="-399.5" font-family="Helvetica,sans-Serif" font-size="10.00">Branch.hh</text>
</a>
</g>
</g>
<!-- Node2&#45;&gt;Node3 -->
<g id="edge2" class="edge"><title>Node2&#45;&gt;Node3</title>
<path fill="none" stroke="midnightblue" d="M310.731,-560.468C226.053,-546.062 70.9335,-513.925 42,-468 33.3523,-454.274 35.351,-435.493 38.7727,-421.648"/>
<polygon fill="midnightblue" stroke="midnightblue" points="42.2068,-422.373 41.6457,-411.793 35.4866,-420.414 42.2068,-422.373"/>
</g>
<!-- Node9 -->
<g id="node9" class="node"><title>Node9</title>
<g id="a_node9"><a xlink:href="../../d5/d88/TopLeptonicTagger_8hh.html" target="_top" xlink:title="TopLeptonicTagger.hh">
<polygon fill="white" stroke="black" points="309.5,-504.5 309.5,-523.5 422.5,-523.5 422.5,-504.5 309.5,-504.5"/>
<text text-anchor="middle" x="366" y="-511.5" font-family="Helvetica,sans-Serif" font-size="10.00">TopLeptonicTagger.hh</text>
</a>
</g>
</g>
<!-- Node2&#45;&gt;Node9 -->
<g id="edge8" class="edge"><title>Node2&#45;&gt;Node9</title>
<path fill="none" stroke="midnightblue" d="M366,-560.083C366,-553.006 366,-542.861 366,-533.986"/>
<polygon fill="midnightblue" stroke="midnightblue" points="369.5,-533.751 366,-523.751 362.5,-533.751 369.5,-533.751"/>
</g>
<!-- Node45 -->
<g id="node45" class="node"><title>Node45</title>
<g id="a_node45"><a xlink:href="../../d4/d5c/TopHadronicTagger_8hh.html" target="_top" xlink:title="TopHadronicTagger.hh">
<polygon fill="white" stroke="black" points="168,-504.5 168,-523.5 284,-523.5 284,-504.5 168,-504.5"/>
<text text-anchor="middle" x="226" y="-511.5" font-family="Helvetica,sans-Serif" font-size="10.00">TopHadronicTagger.hh</text>
</a>
</g>
</g>
<!-- Node2&#45;&gt;Node45 -->
<g id="edge67" class="edge"><title>Node2&#45;&gt;Node45</title>
<path fill="none" stroke="midnightblue" d="M343.817,-560.444C320.572,-551.478 283.851,-537.314 257.585,-527.183"/>
<polygon fill="midnightblue" stroke="midnightblue" points="258.669,-523.85 248.08,-523.516 256.15,-530.381 258.669,-523.85"/>
</g>
<!-- Node48 -->
<g id="node48" class="node"><title>Node48</title>
<g id="a_node48"><a xlink:href="../../d2/d98/Sextet_8hh.html" target="_top" xlink:title="Sextet.hh">
<polygon fill="white" stroke="black" points="454.5,-504.5 454.5,-523.5 513.5,-523.5 513.5,-504.5 454.5,-504.5"/>
<text text-anchor="middle" x="484" y="-511.5" font-family="Helvetica,sans-Serif" font-size="10.00">Sextet.hh</text>
</a>
</g>
</g>
<!-- Node2&#45;&gt;Node48 -->
<g id="edge74" class="edge"><title>Node2&#45;&gt;Node48</title>
<path fill="none" stroke="midnightblue" d="M384.697,-560.444C403.944,-551.636 434.152,-537.812 456.2,-527.722"/>
<polygon fill="midnightblue" stroke="midnightblue" points="457.753,-530.86 465.39,-523.516 454.84,-524.495 457.753,-530.86"/>
</g>
<!-- Node4 -->
<g id="node4" class="node"><title>Node4</title>
<g id="a_node4"><a xlink:href="../../d0/d79/Branches_8hh.html" target="_top" xlink:title="Branches.hh">
<polygon fill="white" stroke="black" points="167.5,-224.5 167.5,-243.5 238.5,-243.5 238.5,-224.5 167.5,-224.5"/>
<text text-anchor="middle" x="203" y="-231.5" font-family="Helvetica,sans-Serif" font-size="10.00">Branches.hh</text>
</a>
</g>
</g>
<!-- Node3&#45;&gt;Node4 -->
<g id="edge3" class="edge"><title>Node3&#45;&gt;Node4</title>
<path fill="none" stroke="midnightblue" d="M44.8868,-392.41C45.0709,-370.653 48.5646,-312.782 79,-280 99.2902,-258.146 131.021,-246.881 157.305,-241.088"/>
<polygon fill="midnightblue" stroke="midnightblue" points="158.326,-244.453 167.444,-239.058 156.951,-237.589 158.326,-244.453"/>
</g>
<!-- Node5 -->
<g id="node5" class="node"><title>Node5</title>
<polygon fill="white" stroke="#bfbfbf" points="777,-0.5 777,-19.5 821,-19.5 821,-0.5 777,-0.5"/>
<text text-anchor="middle" x="799" y="-7.5" font-family="Helvetica,sans-Serif" font-size="10.00">vector</text>
</g>
<!-- Node4&#45;&gt;Node5 -->
<g id="edge4" class="edge"><title>Node4&#45;&gt;Node5</title>
<path fill="none" stroke="midnightblue" d="M208.006,-224.416C222.446,-199.85 264.389,-129.887 284,-112 322.499,-76.887 337.273,-71.567 387,-56 457.954,-33.7876 682.844,-18.1122 766.895,-12.895"/>
<polygon fill="midnightblue" stroke="midnightblue" points="767.116,-16.3881 776.883,-12.2833 766.688,-9.40122 767.116,-16.3881"/>
</g>
<!-- Node6 -->
<g id="node6" class="node"><title>Node6</title>
<polygon fill="white" stroke="#bfbfbf" points="396.5,-56.5 396.5,-75.5 437.5,-75.5 437.5,-56.5 396.5,-56.5"/>
<text text-anchor="middle" x="417" y="-63.5" font-family="Helvetica,sans-Serif" font-size="10.00">string</text>
</g>
<!-- Node4&#45;&gt;Node6 -->
<g id="edge5" class="edge"><title>Node4&#45;&gt;Node6</title>
<path fill="none" stroke="midnightblue" d="M216.917,-224.282C229.303,-216.031 247.363,-202.741 260,-188 285.259,-158.535 273.719,-137.472 303,-112 326.88,-91.2269 361.498,-79.4013 386.313,-73.1387"/>
<polygon fill="midnightblue" stroke="midnightblue" points="387.358,-76.4882 396.288,-70.7855 385.751,-69.6752 387.358,-76.4882"/>
</g>
<!-- Node7 -->
<g id="node7" class="node"><title>Node7</title>
<polygon fill="white" stroke="#bfbfbf" points="84.5,-168.5 84.5,-187.5 143.5,-187.5 143.5,-168.5 84.5,-168.5"/>
<text text-anchor="middle" x="114" y="-175.5" font-family="Helvetica,sans-Serif" font-size="10.00">TObject.h</text>
</g>
<!-- Node4&#45;&gt;Node7 -->
<g id="edge6" class="edge"><title>Node4&#45;&gt;Node7</title>
<path fill="none" stroke="midnightblue" d="M188.701,-224.324C174.817,-215.9 153.508,-202.971 137.196,-193.074"/>
<polygon fill="midnightblue" stroke="midnightblue" points="138.629,-189.85 128.264,-187.655 134.998,-195.834 138.629,-189.85"/>
</g>
<!-- Node8 -->
<g id="node8" class="node"><title>Node8</title>
<polygon fill="white" stroke="#bfbfbf" points="162,-168.5 162,-187.5 218,-187.5 218,-168.5 162,-168.5"/>
<text text-anchor="middle" x="190" y="-175.5" font-family="Helvetica,sans-Serif" font-size="10.00">Rtypes.h</text>
</g>
<!-- Node4&#45;&gt;Node8 -->
<g id="edge7" class="edge"><title>Node4&#45;&gt;Node8</title>
<path fill="none" stroke="midnightblue" d="M200.853,-224.083C199.131,-216.927 196.653,-206.635 194.5,-197.691"/>
<polygon fill="midnightblue" stroke="midnightblue" points="197.85,-196.654 192.107,-187.751 191.045,-198.293 197.85,-196.654"/>
</g>
<!-- Node10 -->
<g id="node10" class="node"><title>Node10</title>
<g id="a_node10"><a xlink:href="../../de/dbb/BottomTagger_8hh.html" target="_top" xlink:title="BottomTagger.hh">
<polygon fill="white" stroke="black" points="205,-392.5 205,-411.5 297,-411.5 297,-392.5 205,-392.5"/>
<text text-anchor="middle" x="251" y="-399.5" font-family="Helvetica,sans-Serif" font-size="10.00">BottomTagger.hh</text>
</a>
</g>
</g>
<!-- Node9&#45;&gt;Node10 -->
<g id="edge9" class="edge"><title>Node9&#45;&gt;Node10</title>
<path fill="none" stroke="midnightblue" d="M356.976,-504.368C337.662,-485.894 292.079,-442.293 267.459,-418.744"/>
<polygon fill="midnightblue" stroke="midnightblue" points="269.628,-415.974 259.982,-411.591 264.789,-421.033 269.628,-415.974"/>
</g>
<!-- Node38 -->
<g id="node38" class="node"><title>Node38</title>
<g id="a_node38"><a xlink:href="../../d2/dd8/WLeptonicTagger_8hh.html" target="_top" xlink:title="WLeptonicTagger.hh">
<polygon fill="white" stroke="black" points="333.5,-448.5 333.5,-467.5 440.5,-467.5 440.5,-448.5 333.5,-448.5"/>
<text text-anchor="middle" x="387" y="-455.5" font-family="Helvetica,sans-Serif" font-size="10.00">WLeptonicTagger.hh</text>
</a>
</g>
</g>
<!-- Node9&#45;&gt;Node38 -->
<g id="edge51" class="edge"><title>Node9&#45;&gt;Node38</title>
<path fill="none" stroke="midnightblue" d="M369.468,-504.083C372.312,-496.77 376.429,-486.181 379.96,-477.103"/>
<polygon fill="midnightblue" stroke="midnightblue" points="383.234,-478.34 383.597,-467.751 376.71,-475.803 383.234,-478.34"/>
</g>
<!-- Node41 -->
<g id="node41" class="node"><title>Node41</title>
<g id="a_node41"><a xlink:href="../../d7/db9/Triplet_8hh.html" target="_top" xlink:title="Triplet.hh">
<polygon fill="white" stroke="black" points="458.5,-448.5 458.5,-467.5 515.5,-467.5 515.5,-448.5 458.5,-448.5"/>
<text text-anchor="middle" x="487" y="-455.5" font-family="Helvetica,sans-Serif" font-size="10.00">Triplet.hh</text>
</a>
</g>
</g>
<!-- Node9&#45;&gt;Node41 -->
<g id="edge59" class="edge"><title>Node9&#45;&gt;Node41</title>
<path fill="none" stroke="midnightblue" d="M385.173,-504.444C404.909,-495.636 435.885,-481.812 458.493,-471.722"/>
<polygon fill="midnightblue" stroke="midnightblue" points="460.211,-474.788 467.917,-467.516 457.359,-468.396 460.211,-474.788"/>
</g>
<!-- Node42 -->
<g id="node42" class="node"><title>Node42</title>
<g id="a_node42"><a xlink:href="../../df/d2c/Reader_8hh.html" target="_top" xlink:title="Reader.hh">
<polygon fill="white" stroke="black" points="108,-336.5 108,-355.5 170,-355.5 170,-336.5 108,-336.5"/>
<text text-anchor="middle" x="139" y="-343.5" font-family="Helvetica,sans-Serif" font-size="10.00">Reader.hh</text>
</a>
</g>
</g>
<!-- Node9&#45;&gt;Node42 -->
<g id="edge61" class="edge"><title>Node9&#45;&gt;Node42</title>
<path fill="none" stroke="midnightblue" d="M311.64,-504.489C253.623,-494.901 168.574,-479.198 158,-468 131.93,-440.391 132.985,-392.423 136.008,-365.933"/>
<polygon fill="midnightblue" stroke="midnightblue" points="139.518,-366.1 137.398,-355.72 132.582,-365.156 139.518,-366.1"/>
</g>
<!-- Node10&#45;&gt;Node4 -->
<g id="edge10" class="edge"><title>Node10&#45;&gt;Node4</title>
<path fill="none" stroke="midnightblue" d="M248.419,-392.075C240.864,-365.945 218.675,-289.211 208.372,-253.577"/>
<polygon fill="midnightblue" stroke="midnightblue" points="211.618,-252.202 205.478,-243.568 204.893,-254.147 211.618,-252.202"/>
</g>
<!-- Node11 -->
<g id="node11" class="node"><title>Node11</title>
<g id="a_node11"><a xlink:href="../../d2/d41/BranchTagger_8hh.html" target="_top" xlink:title="BranchTagger.hh">
<polygon fill="white" stroke="black" points="385.5,-336.5 385.5,-355.5 476.5,-355.5 476.5,-336.5 385.5,-336.5"/>
<text text-anchor="middle" x="431" y="-343.5" font-family="Helvetica,sans-Serif" font-size="10.00">BranchTagger.hh</text>
</a>
</g>
</g>
<!-- Node10&#45;&gt;Node11 -->
<g id="edge11" class="edge"><title>Node10&#45;&gt;Node11</title>
<path fill="none" stroke="midnightblue" d="M279.522,-392.444C310.066,-383.28 358.708,-368.688 392.603,-358.519"/>
<polygon fill="midnightblue" stroke="midnightblue" points="394.039,-361.742 402.612,-355.516 392.028,-355.038 394.039,-361.742"/>
</g>
<!-- Node12 -->
<g id="node12" class="node"><title>Node12</title>
<g id="a_node12"><a xlink:href="../../d1/d8c/Tagger_8hh.html" target="_top" xlink:title="Tagger.hh">
<polygon fill="white" stroke="black" points="270,-280.5 270,-299.5 330,-299.5 330,-280.5 270,-280.5"/>
<text text-anchor="middle" x="300" y="-287.5" font-family="Helvetica,sans-Serif" font-size="10.00">Tagger.hh</text>
</a>
</g>
</g>
<!-- Node11&#45;&gt;Node12 -->
<g id="edge12" class="edge"><title>Node11&#45;&gt;Node12</title>
<path fill="none" stroke="midnightblue" d="M410.243,-336.444C388.684,-327.557 354.737,-313.563 330.206,-303.451"/>
<polygon fill="midnightblue" stroke="midnightblue" points="331.239,-300.092 320.66,-299.516 328.572,-306.563 331.239,-300.092"/>
</g>
<!-- Node17 -->
<g id="node17" class="node"><title>Node17</title>
<g id="a_node17"><a xlink:href="../../d3/d7e/Vector_8hh.html" target="_top" xlink:title="Vector.hh">
<polygon fill="white" stroke="red" points="507.5,-224.5 507.5,-243.5 566.5,-243.5 566.5,-224.5 507.5,-224.5"/>
<text text-anchor="middle" x="537" y="-231.5" font-family="Helvetica,sans-Serif" font-size="10.00">Vector.hh</text>
</a>
</g>
</g>
<!-- Node11&#45;&gt;Node17 -->
<g id="edge47" class="edge"><title>Node11&#45;&gt;Node17</title>
<path fill="none" stroke="midnightblue" d="M414.624,-336.372C393.498,-324.109 361.231,-300.816 377,-280 384.396,-270.238 452.352,-253.632 497.291,-243.554"/>
<polygon fill="midnightblue" stroke="midnightblue" points="498.33,-246.908 507.334,-241.324 496.813,-240.075 498.33,-246.908"/>
</g>
<!-- Node32 -->
<g id="node32" class="node"><title>Node32</title>
<g id="a_node32"><a xlink:href="../../d6/dd8/Types_8hh.html" target="_top" xlink:title="Types.hh">
<polygon fill="white" stroke="black" points="600.5,-112.5 600.5,-131.5 657.5,-131.5 657.5,-112.5 600.5,-112.5"/>
<text text-anchor="middle" x="629" y="-119.5" font-family="Helvetica,sans-Serif" font-size="10.00">Types.hh</text>
</a>
</g>
</g>
<!-- Node11&#45;&gt;Node32 -->
<g id="edge49" class="edge"><title>Node11&#45;&gt;Node32</title>
<path fill="none" stroke="midnightblue" d="M476.75,-344.195C545.889,-341.901 671.929,-333.157 700,-300 705.744,-293.216 703.344,-288.236 700,-280 691.606,-259.324 680.371,-260.177 665,-244 641.605,-219.378 625.415,-219.614 613,-188 606.907,-172.484 612.665,-153.949 618.906,-140.65"/>
<polygon fill="midnightblue" stroke="midnightblue" points="622.084,-142.124 623.585,-131.637 615.871,-138.899 622.084,-142.124"/>
</g>
<!-- Node33 -->
<g id="node33" class="node"><title>Node33</title>
<g id="a_node33"><a xlink:href="../../db/d60/Singlet_8hh.html" target="_top" xlink:title="Singlet.hh">
<polygon fill="white" stroke="red" points="786,-280.5 786,-299.5 846,-299.5 846,-280.5 786,-280.5"/>
<text text-anchor="middle" x="816" y="-287.5" font-family="Helvetica,sans-Serif" font-size="10.00">Singlet.hh</text>
</a>
</g>
</g>
<!-- Node11&#45;&gt;Node33 -->
<g id="edge41" class="edge"><title>Node11&#45;&gt;Node33</title>
<path fill="none" stroke="midnightblue" d="M476.657,-340.012C542.22,-332.615 666.736,-317.689 772,-300 773.254,-299.789 774.527,-299.569 775.812,-299.341"/>
<polygon fill="midnightblue" stroke="midnightblue" points="776.571,-302.759 785.756,-297.478 775.282,-295.879 776.571,-302.759"/>
</g>
<!-- Node34 -->
<g id="node34" class="node"><title>Node34</title>
<polygon fill="white" stroke="#bfbfbf" points="386.5,-280.5 386.5,-299.5 471.5,-299.5 471.5,-280.5 386.5,-280.5"/>
<text text-anchor="middle" x="429" y="-287.5" font-family="Helvetica,sans-Serif" font-size="10.00">TClonesArray.h</text>
</g>
<!-- Node11&#45;&gt;Node34 -->
<g id="edge42" class="edge"><title>Node11&#45;&gt;Node34</title>
<path fill="none" stroke="midnightblue" d="M430.67,-336.083C430.408,-329.006 430.032,-318.861 429.703,-309.986"/>
<polygon fill="midnightblue" stroke="midnightblue" points="433.192,-309.615 429.324,-299.751 426.197,-309.874 433.192,-309.615"/>
</g>
<!-- Node35 -->
<g id="node35" class="node"><title>Node35</title>
<g id="a_node35"><a xlink:href="../../db/d31/Sort_8hh.html" target="_top" xlink:title="Sort.hh">
<polygon fill="white" stroke="red" points="874,-168.5 874,-187.5 922,-187.5 922,-168.5 874,-168.5"/>
<text text-anchor="middle" x="898" y="-175.5" font-family="Helvetica,sans-Serif" font-size="10.00">Sort.hh</text>
</a>
</g>
</g>
<!-- Node11&#45;&gt;Node35 -->
<g id="edge43" class="edge"><title>Node11&#45;&gt;Node35</title>
<path fill="none" stroke="midnightblue" d="M476.709,-345.009C537.657,-343.526 647.853,-335.567 734,-300 795.353,-274.67 854.853,-221.489 882.27,-194.876"/>
<polygon fill="midnightblue" stroke="midnightblue" points="885.055,-197.045 889.716,-187.53 880.139,-192.062 885.055,-197.045"/>
</g>
<!-- Node36 -->
<g id="node36" class="node"><title>Node36</title>
<g id="a_node36"><a xlink:href="../../d7/d7f/Math_8hh.html" target="_top" xlink:title="Math.hh">
<polygon fill="white" stroke="red" points="490,-280.5 490,-299.5 542,-299.5 542,-280.5 490,-280.5"/>
<text text-anchor="middle" x="516" y="-287.5" font-family="Helvetica,sans-Serif" font-size="10.00">Math.hh</text>
</a>
</g>
</g>
<!-- Node11&#45;&gt;Node36 -->
<g id="edge48" class="edge"><title>Node11&#45;&gt;Node36</title>
<path fill="none" stroke="midnightblue" d="M444.657,-336.324C457.916,-327.9 478.268,-314.971 493.846,-305.074"/>
<polygon fill="midnightblue" stroke="midnightblue" points="495.813,-307.971 502.377,-299.655 492.06,-302.063 495.813,-307.971"/>
</g>
<!-- Node37 -->
<g id="node37" class="node"><title>Node37</title>
<g id="a_node37"><a xlink:href="../../d3/d96/ExRootAnalysis_8hh.html" target="_top" xlink:title="exroot/ExRootAnalysis.hh">
<polygon fill="white" stroke="red" points="560.5,-280.5 560.5,-299.5 691.5,-299.5 691.5,-280.5 560.5,-280.5"/>
<text text-anchor="middle" x="626" y="-287.5" font-family="Helvetica,sans-Serif" font-size="10.00">exroot/ExRootAnalysis.hh</text>
</a>
</g>
</g>
<!-- Node11&#45;&gt;Node37 -->
<g id="edge50" class="edge"><title>Node11&#45;&gt;Node37</title>
<path fill="none" stroke="midnightblue" d="M461.898,-336.444C495.274,-327.201 548.594,-312.436 585.349,-302.257"/>
<polygon fill="midnightblue" stroke="midnightblue" points="586.543,-305.558 595.246,-299.516 584.675,-298.812 586.543,-305.558"/>
</g>
<!-- Node12&#45;&gt;Node4 -->
<g id="edge19" class="edge"><title>Node12&#45;&gt;Node4</title>
<path fill="none" stroke="midnightblue" d="M284.415,-280.324C269.001,-271.743 245.188,-258.486 227.29,-248.522"/>
<polygon fill="midnightblue" stroke="midnightblue" points="228.986,-245.461 218.546,-243.655 225.581,-251.577 228.986,-245.461"/>
</g>
<!-- Node13 -->
<g id="node13" class="node"><title>Node13</title>
<polygon fill="white" stroke="#bfbfbf" points="434.5,-224.5 434.5,-243.5 481.5,-243.5 481.5,-224.5 434.5,-224.5"/>
<text text-anchor="middle" x="458" y="-231.5" font-family="Helvetica,sans-Serif" font-size="10.00">TCut.h</text>
</g>
<!-- Node12&#45;&gt;Node13 -->
<g id="edge13" class="edge"><title>Node12&#45;&gt;Node13</title>
<path fill="none" stroke="midnightblue" d="M325.036,-280.444C352.007,-271.226 395.053,-256.513 424.826,-246.338"/>
<polygon fill="midnightblue" stroke="midnightblue" points="426.041,-249.621 434.372,-243.075 423.777,-242.998 426.041,-249.621"/>
</g>
<!-- Node14 -->
<g id="node14" class="node"><title>Node14</title>
<polygon fill="white" stroke="#bfbfbf" points="256.5,-224.5 256.5,-243.5 339.5,-243.5 339.5,-224.5 256.5,-224.5"/>
<text text-anchor="middle" x="298" y="-231.5" font-family="Helvetica,sans-Serif" font-size="10.00">TMVA/Types.h</text>
</g>
<!-- Node12&#45;&gt;Node14 -->
<g id="edge14" class="edge"><title>Node12&#45;&gt;Node14</title>
<path fill="none" stroke="midnightblue" d="M299.67,-280.083C299.408,-273.006 299.032,-262.861 298.703,-253.986"/>
<polygon fill="midnightblue" stroke="midnightblue" points="302.192,-253.615 298.324,-243.751 295.197,-253.874 302.192,-253.615"/>
</g>
<!-- Node15 -->
<g id="node15" class="node"><title>Node15</title>
<g id="a_node15"><a xlink:href="../../de/d1f/Observable_8hh.html" target="_top" xlink:title="Observable.hh">
<polygon fill="white" stroke="black" points="312,-112.5 312,-131.5 392,-131.5 392,-112.5 312,-112.5"/>
<text text-anchor="middle" x="352" y="-119.5" font-family="Helvetica,sans-Serif" font-size="10.00">Observable.hh</text>
</a>
</g>
</g>
<!-- Node12&#45;&gt;Node15 -->
<g id="edge15" class="edge"><title>Node12&#45;&gt;Node15</title>
<path fill="none" stroke="midnightblue" d="M314.237,-280.271C325.666,-272.374 340.93,-259.607 348,-244 363.124,-210.613 359.5,-166.566 355.651,-141.874"/>
<polygon fill="midnightblue" stroke="midnightblue" points="359.046,-140.968 353.88,-131.718 352.15,-142.171 359.046,-140.968"/>
</g>
<!-- Node16 -->
<g id="node16" class="node"><title>Node16</title>
<g id="a_node16"><a xlink:href="../../d8/d85/Identification_8hh.html" target="_top" xlink:title="Identification.hh">
<polygon fill="white" stroke="black" points="410,-112.5 410,-131.5 496,-131.5 496,-112.5 410,-112.5"/>
<text text-anchor="middle" x="453" y="-119.5" font-family="Helvetica,sans-Serif" font-size="10.00">Identification.hh</text>
</a>
</g>
</g>
<!-- Node12&#45;&gt;Node16 -->
<g id="edge17" class="edge"><title>Node12&#45;&gt;Node16</title>
<path fill="none" stroke="midnightblue" d="M315.802,-280.363C329.933,-272.168 350.711,-258.912 366,-244 399.193,-211.625 428.548,-165.28 443.172,-140.391"/>
<polygon fill="midnightblue" stroke="midnightblue" points="446.223,-142.106 448.192,-131.696 440.161,-138.606 446.223,-142.106"/>
</g>
<!-- Node12&#45;&gt;Node17 -->
<g id="edge20" class="edge"><title>Node12&#45;&gt;Node17</title>
<path fill="none" stroke="midnightblue" d="M330.016,-282.161C372.488,-272.484 450.192,-254.779 497.363,-244.031"/>
<polygon fill="midnightblue" stroke="midnightblue" points="498.255,-247.418 507.228,-241.784 496.7,-240.593 498.255,-247.418"/>
</g>
<!-- Node12&#45;&gt;Node19 -->
<g id="edge23" class="edge"><title>Node12&#45;&gt;Node19</title>
<path fill="none" stroke="midnightblue" d="M330.215,-284.941C402.3,-275.258 584.254,-250.817 663.793,-240.132"/>
<polygon fill="midnightblue" stroke="midnightblue" points="664.423,-243.579 673.868,-238.779 663.491,-236.641 664.423,-243.579"/>
</g>
<!-- Node15&#45;&gt;Node6 -->
<g id="edge16" class="edge"><title>Node15&#45;&gt;Node6</title>
<path fill="none" stroke="midnightblue" d="M362.443,-112.324C372.146,-104.263 386.815,-92.0765 398.5,-82.3695"/>
<polygon fill="midnightblue" stroke="midnightblue" points="400.911,-84.9163 406.367,-75.8339 396.438,-79.532 400.911,-84.9163"/>
</g>
<!-- Node16&#45;&gt;Node6 -->
<g id="edge18" class="edge"><title>Node16&#45;&gt;Node6</title>
<path fill="none" stroke="midnightblue" d="M447.055,-112.083C442.023,-104.534 434.663,-93.4948 428.487,-84.2298"/>
<polygon fill="midnightblue" stroke="midnightblue" points="431.293,-82.1301 422.834,-75.7511 425.469,-86.0131 431.293,-82.1301"/>
</g>
<!-- Node18 -->
<g id="node18" class="node"><title>Node18</title>
<g id="a_node18"><a xlink:href="../../db/da5/Particles_8hh.html" target="_top" xlink:title="Particles.hh">
<polygon fill="white" stroke="black" points="514,-112.5 514,-131.5 582,-131.5 582,-112.5 514,-112.5"/>
<text text-anchor="middle" x="548" y="-119.5" font-family="Helvetica,sans-Serif" font-size="10.00">Particles.hh</text>
</a>
</g>
</g>
<!-- Node17&#45;&gt;Node18 -->
<g id="edge21" class="edge"><title>Node17&#45;&gt;Node18</title>
<path fill="none" stroke="midnightblue" d="M537.863,-224.368C539.638,-206.617 543.733,-165.666 546.14,-141.597"/>
<polygon fill="midnightblue" stroke="midnightblue" points="549.628,-141.89 547.141,-131.591 542.663,-141.193 549.628,-141.89"/>
</g>
<!-- Node18&#45;&gt;Node6 -->
<g id="edge22" class="edge"><title>Node18&#45;&gt;Node6</title>
<path fill="none" stroke="midnightblue" d="M527.243,-112.444C505.684,-103.557 471.737,-89.5632 447.206,-79.4514"/>
<polygon fill="midnightblue" stroke="midnightblue" points="448.239,-76.0917 437.66,-75.5164 445.572,-82.5634 448.239,-76.0917"/>
</g>
<!-- Node20 -->
<g id="node20" class="node"><title>Node20</title>
<g id="a_node20"><a xlink:href="../../d0/d6b/Partons_8hh.html" target="_top" xlink:title="Partons.hh">
<polygon fill="white" stroke="black" points="708,-168.5 708,-187.5 772,-187.5 772,-168.5 708,-168.5"/>
<text text-anchor="middle" x="740" y="-175.5" font-family="Helvetica,sans-Serif" font-size="10.00">Partons.hh</text>
</a>
</g>
</g>
<!-- Node19&#45;&gt;Node20 -->
<g id="edge24" class="edge"><title>Node19&#45;&gt;Node20</title>
<path fill="none" stroke="midnightblue" d="M708.275,-224.083C713.642,-216.455 721.518,-205.264 728.079,-195.941"/>
<polygon fill="midnightblue" stroke="midnightblue" points="730.949,-197.943 733.842,-187.751 725.225,-193.915 730.949,-197.943"/>
</g>
<!-- Node30 -->
<g id="node30" class="node"><title>Node30</title>
<g id="a_node30"><a xlink:href="../../d7/dac/Leptons_8hh.html" target="_top" xlink:title="Leptons.hh">
<polygon fill="white" stroke="black" points="790.5,-168.5 790.5,-187.5 855.5,-187.5 855.5,-168.5 790.5,-168.5"/>
<text text-anchor="middle" x="823" y="-175.5" font-family="Helvetica,sans-Serif" font-size="10.00">Leptons.hh</text>
</a>
</g>
</g>
<!-- Node19&#45;&gt;Node30 -->
<g id="edge35" class="edge"><title>Node19&#45;&gt;Node30</title>
<path fill="none" stroke="midnightblue" d="M721.173,-224.444C740.909,-215.636 771.885,-201.812 794.493,-191.722"/>
<polygon fill="midnightblue" stroke="midnightblue" points="796.211,-194.788 803.917,-187.516 793.359,-188.396 796.211,-194.788"/>
</g>
<!-- Node31 -->
<g id="node31" class="node"><title>Node31</title>
<g id="a_node31"><a xlink:href="../../dd/dee/Hadrons_8hh.html" target="_top" xlink:title="Hadrons.hh">
<polygon fill="white" stroke="black" points="622.5,-168.5 622.5,-187.5 689.5,-187.5 689.5,-168.5 622.5,-168.5"/>
<text text-anchor="middle" x="656" y="-175.5" font-family="Helvetica,sans-Serif" font-size="10.00">Hadrons.hh</text>
</a>
</g>
</g>
<!-- Node19&#45;&gt;Node31 -->
<g id="edge37" class="edge"><title>Node19&#45;&gt;Node31</title>
<path fill="none" stroke="midnightblue" d="M694.404,-224.083C687.773,-216.298 677.979,-204.801 669.942,-195.367"/>
<polygon fill="midnightblue" stroke="midnightblue" points="672.604,-193.094 663.455,-187.751 667.275,-197.633 672.604,-193.094"/>
</g>
<!-- Node21 -->
<g id="node21" class="node"><title>Node21</title>
<g id="a_node21"><a xlink:href="../../df/dbc/FourVector_8hh.html" target="_top" xlink:title="FourVector.hh">
<polygon fill="white" stroke="black" points="701,-112.5 701,-131.5 779,-131.5 779,-112.5 701,-112.5"/>
<text text-anchor="middle" x="740" y="-119.5" font-family="Helvetica,sans-Serif" font-size="10.00">FourVector.hh</text>
</a>
</g>
</g>
<!-- Node20&#45;&gt;Node21 -->
<g id="edge25" class="edge"><title>Node20&#45;&gt;Node21</title>
<path fill="none" stroke="midnightblue" d="M740,-168.083C740,-161.006 740,-150.861 740,-141.986"/>
<polygon fill="midnightblue" stroke="midnightblue" points="743.5,-141.751 740,-131.751 736.5,-141.751 743.5,-141.751"/>
</g>
<!-- Node22 -->
<g id="node22" class="node"><title>Node22</title>
<polygon fill="white" stroke="#bfbfbf" points="833,-56.5 833,-75.5 883,-75.5 883,-56.5 833,-56.5"/>
<text text-anchor="middle" x="858" y="-63.5" font-family="Helvetica,sans-Serif" font-size="10.00">iomanip</text>
</g>
<!-- Node21&#45;&gt;Node22 -->
<g id="edge26" class="edge"><title>Node21&#45;&gt;Node22</title>
<path fill="none" stroke="midnightblue" d="M758.697,-112.444C777.944,-103.636 808.152,-89.8116 830.2,-79.722"/>
<polygon fill="midnightblue" stroke="midnightblue" points="831.753,-82.8603 839.39,-75.5164 828.84,-76.4951 831.753,-82.8603"/>
</g>
<!-- Node23 -->
<g id="node23" class="node"><title>Node23</title>
<polygon fill="white" stroke="#bfbfbf" points="901,-56.5 901,-75.5 955,-75.5 955,-56.5 901,-56.5"/>
<text text-anchor="middle" x="928" y="-63.5" font-family="Helvetica,sans-Serif" font-size="10.00">iostream</text>
</g>
<!-- Node21&#45;&gt;Node23 -->
<g id="edge27" class="edge"><title>Node21&#45;&gt;Node23</title>
<path fill="none" stroke="midnightblue" d="M769.789,-112.444C802.583,-103.024 855.349,-87.8679 890.827,-77.6774"/>
<polygon fill="midnightblue" stroke="midnightblue" points="892.147,-80.9399 900.792,-74.8151 890.214,-74.2119 892.147,-80.9399"/>
</g>
<!-- Node24 -->
<g id="node24" class="node"><title>Node24</title>
<polygon fill="white" stroke="#bfbfbf" points="707.5,-56.5 707.5,-75.5 814.5,-75.5 814.5,-56.5 707.5,-56.5"/>
<text text-anchor="middle" x="761" y="-63.5" font-family="Helvetica,sans-Serif" font-size="10.00">fastjet/PseudoJet.hh</text>
</g>
<!-- Node21&#45;&gt;Node24 -->
<g id="edge28" class="edge"><title>Node21&#45;&gt;Node24</title>
<path fill="none" stroke="midnightblue" d="M743.468,-112.083C746.312,-104.77 750.429,-94.1814 753.96,-85.1034"/>
<polygon fill="midnightblue" stroke="midnightblue" points="757.234,-86.3397 757.597,-75.7511 750.71,-83.8025 757.234,-86.3397"/>
</g>
<!-- Node25 -->
<g id="node25" class="node"><title>Node25</title>
<g id="a_node25"><a xlink:href="../../de/d7d/ClonesArrays_8hh.html" target="_top" xlink:title="ClonesArrays.hh">
<polygon fill="white" stroke="black" points="533.5,-56.5 533.5,-75.5 622.5,-75.5 622.5,-56.5 533.5,-56.5"/>
<text text-anchor="middle" x="578" y="-63.5" font-family="Helvetica,sans-Serif" font-size="10.00">ClonesArrays.hh</text>
</a>
</g>
</g>
<!-- Node21&#45;&gt;Node25 -->
<g id="edge29" class="edge"><title>Node21&#45;&gt;Node25</title>
<path fill="none" stroke="midnightblue" d="M714.331,-112.444C687.077,-103.359 643.816,-88.9388 613.349,-78.7831"/>
<polygon fill="midnightblue" stroke="midnightblue" points="614.143,-75.3584 603.549,-75.5164 611.929,-81.9992 614.143,-75.3584"/>
</g>
<!-- Node27 -->
<g id="node27" class="node"><title>Node27</title>
<g id="a_node27"><a xlink:href="../../d8/dff/JetTag_8hh.html" target="_top" xlink:title="JetTag.hh">
<polygon fill="white" stroke="red" points="456,-56.5 456,-75.5 516,-75.5 516,-56.5 456,-56.5"/>
<text text-anchor="middle" x="486" y="-63.5" font-family="Helvetica,sans-Serif" font-size="10.00">JetTag.hh</text>
</a>
</g>
</g>
<!-- Node21&#45;&gt;Node27 -->
<g id="edge32" class="edge"><title>Node21&#45;&gt;Node27</title>
<path fill="none" stroke="midnightblue" d="M700.911,-113.189C659.622,-104.864 592.372,-91.097 526.042,-76.4183"/>
<polygon fill="midnightblue" stroke="midnightblue" points="526.787,-72.9984 516.266,-74.2465 525.269,-79.8318 526.787,-72.9984"/>
</g>
<!-- Node29 -->
<g id="node29" class="node"><title>Node29</title>
<g id="a_node29"><a xlink:href="../../d0/d5f/Flag_8hh.html" target="_top" xlink:title="Flag.hh">
<polygon fill="white" stroke="red" points="640.5,-56.5 640.5,-75.5 689.5,-75.5 689.5,-56.5 640.5,-56.5"/>
<text text-anchor="middle" x="665" y="-63.5" font-family="Helvetica,sans-Serif" font-size="10.00">Flag.hh</text>
</a>
</g>
</g>
<!-- Node21&#45;&gt;Node29 -->
<g id="edge34" class="edge"><title>Node21&#45;&gt;Node29</title>
<path fill="none" stroke="midnightblue" d="M727.95,-112.324C716.537,-104.107 699.169,-91.6017 685.565,-81.8069"/>
<polygon fill="midnightblue" stroke="midnightblue" points="687.43,-78.8366 677.269,-75.8339 683.34,-84.5174 687.43,-78.8366"/>
</g>
<!-- Node25&#45;&gt;Node5 -->
<g id="edge30" class="edge"><title>Node25&#45;&gt;Node5</title>
<path fill="none" stroke="midnightblue" d="M613.018,-56.4435C655.431,-46.0803 726.262,-28.7732 767.181,-18.7747"/>
<polygon fill="midnightblue" stroke="midnightblue" points="768.021,-22.1725 776.905,-16.3989 766.36,-15.3726 768.021,-22.1725"/>
</g>
<!-- Node26 -->
<g id="node26" class="node"><title>Node26</title>
<polygon fill="white" stroke="#bfbfbf" points="539.5,-0.5 539.5,-19.5 574.5,-19.5 574.5,-0.5 539.5,-0.5"/>
<text text-anchor="middle" x="557" y="-7.5" font-family="Helvetica,sans-Serif" font-size="10.00">map</text>
</g>
<!-- Node25&#45;&gt;Node26 -->
<g id="edge31" class="edge"><title>Node25&#45;&gt;Node26</title>
<path fill="none" stroke="midnightblue" d="M574.532,-56.083C571.688,-48.77 567.571,-38.1814 564.04,-29.1034"/>
<polygon fill="midnightblue" stroke="midnightblue" points="567.29,-27.8025 560.403,-19.7511 560.766,-30.3397 567.29,-27.8025"/>
</g>
<!-- Node28 -->
<g id="node28" class="node"><title>Node28</title>
<polygon fill="white" stroke="#bfbfbf" points="471,-0.5 471,-19.5 501,-19.5 501,-0.5 471,-0.5"/>
<text text-anchor="middle" x="486" y="-7.5" font-family="Helvetica,sans-Serif" font-size="10.00">set</text>
</g>
<!-- Node27&#45;&gt;Node28 -->
<g id="edge33" class="edge"><title>Node27&#45;&gt;Node28</title>
<path fill="none" stroke="midnightblue" d="M486,-56.083C486,-49.0059 486,-38.8611 486,-29.9865"/>
<polygon fill="midnightblue" stroke="midnightblue" points="489.5,-29.751 486,-19.7511 482.5,-29.7511 489.5,-29.751"/>
</g>
<!-- Node30&#45;&gt;Node21 -->
<g id="edge36" class="edge"><title>Node30&#45;&gt;Node21</title>
<path fill="none" stroke="midnightblue" d="M809.665,-168.324C796.838,-159.979 777.215,-147.212 762.06,-137.352"/>
<polygon fill="midnightblue" stroke="midnightblue" points="763.593,-134.174 753.302,-131.655 759.776,-140.042 763.593,-134.174"/>
</g>
<!-- Node31&#45;&gt;Node21 -->
<g id="edge38" class="edge"><title>Node31&#45;&gt;Node21</title>
<path fill="none" stroke="midnightblue" d="M669.496,-168.324C682.6,-159.9 702.712,-146.971 718.107,-137.074"/>
<polygon fill="midnightblue" stroke="midnightblue" points="720.018,-140.006 726.537,-131.655 716.233,-134.118 720.018,-140.006"/>
</g>
<!-- Node31&#45;&gt;Node32 -->
<g id="edge39" class="edge"><title>Node31&#45;&gt;Node32</title>
<path fill="none" stroke="midnightblue" d="M651.541,-168.083C647.846,-160.691 642.477,-149.953 637.906,-140.811"/>
<polygon fill="midnightblue" stroke="midnightblue" points="640.978,-139.13 633.376,-131.751 634.717,-142.261 640.978,-139.13"/>
</g>
<!-- Node32&#45;&gt;Node6 -->
<g id="edge40" class="edge"><title>Node32&#45;&gt;Node6</title>
<path fill="none" stroke="midnightblue" d="M600.408,-114.112C560.232,-104.405 488.237,-86.8999 447.315,-75.9613"/>
<polygon fill="midnightblue" stroke="midnightblue" points="448.186,-72.5713 437.619,-73.3305 446.353,-79.327 448.186,-72.5713"/>
</g>
<!-- Node35&#45;&gt;Node5 -->
<g id="edge44" class="edge"><title>Node35&#45;&gt;Node5</title>
<path fill="none" stroke="midnightblue" d="M922.203,-171.245C980.555,-156.296 1120.69,-113.37 1072,-56 1041.45,-20.0061 896.875,-12.7562 831.381,-11.33"/>
<polygon fill="midnightblue" stroke="midnightblue" points="831.274,-7.82752 821.211,-11.142 831.144,-14.8263 831.274,-7.82752"/>
</g>
<!-- Node35&#45;&gt;Node18 -->
<g id="edge46" class="edge"><title>Node35&#45;&gt;Node18</title>
<path fill="none" stroke="midnightblue" d="M873.939,-170.033C870.944,-169.285 867.911,-168.585 865,-168 747.761,-144.424 713.86,-152.154 592.296,-132.098"/>
<polygon fill="midnightblue" stroke="midnightblue" points="592.665,-128.611 582.223,-130.407 591.505,-135.515 592.665,-128.611"/>
</g>
<!-- Node35&#45;&gt;Node24 -->
<g id="edge45" class="edge"><title>Node35&#45;&gt;Node24</title>
<path fill="none" stroke="midnightblue" d="M887.25,-168.368C864.041,-149.733 808.99,-105.532 779.849,-82.1338"/>
<polygon fill="midnightblue" stroke="midnightblue" points="781.689,-79.1231 771.7,-75.5914 777.307,-84.5814 781.689,-79.1231"/>
</g>
<!-- Node38&#45;&gt;Node4 -->
<g id="edge57" class="edge"><title>Node38&#45;&gt;Node4</title>
<path fill="none" stroke="midnightblue" d="M379.787,-448.297C352.255,-415.079 253.491,-295.918 216.828,-251.684"/>
<polygon fill="midnightblue" stroke="midnightblue" points="219.439,-249.35 210.363,-243.884 214.05,-253.816 219.439,-249.35"/>
</g>
<!-- Node38&#45;&gt;Node11 -->
<g id="edge58" class="edge"><title>Node38&#45;&gt;Node11</title>
<path fill="none" stroke="midnightblue" d="M390.453,-448.368C397.617,-430.456 414.231,-388.923 423.821,-364.948"/>
<polygon fill="midnightblue" stroke="midnightblue" points="427.099,-366.176 427.563,-355.591 420.6,-363.576 427.099,-366.176"/>
</g>
<!-- Node39 -->
<g id="node39" class="node"><title>Node39</title>
<g id="a_node39"><a xlink:href="../../df/d3a/Doublet_8hh.html" target="_top" xlink:title="Doublet.hh">
<polygon fill="white" stroke="black" points="455,-392.5 455,-411.5 519,-411.5 519,-392.5 455,-392.5"/>
<text text-anchor="middle" x="487" y="-399.5" font-family="Helvetica,sans-Serif" font-size="10.00">Doublet.hh</text>
</a>
</g>
</g>
<!-- Node38&#45;&gt;Node39 -->
<g id="edge52" class="edge"><title>Node38&#45;&gt;Node39</title>
<path fill="none" stroke="midnightblue" d="M403.067,-448.324C418.958,-439.743 443.507,-426.486 461.958,-416.522"/>
<polygon fill="midnightblue" stroke="midnightblue" points="463.837,-419.486 470.973,-411.655 460.511,-413.326 463.837,-419.486"/>
</g>
<!-- Node39&#45;&gt;Node33 -->
<g id="edge56" class="edge"><title>Node39&#45;&gt;Node33</title>
<path fill="none" stroke="midnightblue" d="M512.542,-392.46C570.846,-372.966 713.833,-325.159 780.591,-302.839"/>
<polygon fill="midnightblue" stroke="midnightblue" points="781.873,-306.101 790.247,-299.61 779.653,-299.462 781.873,-306.101"/>
</g>
<!-- Node40 -->
<g id="node40" class="node"><title>Node40</title>
<g id="a_node40"><a xlink:href="../../d0/d32/TwoBody_8hh.html" target="_top" xlink:title="TwoBody.hh">
<polygon fill="white" stroke="red" points="780.5,-336.5 780.5,-355.5 851.5,-355.5 851.5,-336.5 780.5,-336.5"/>
<text text-anchor="middle" x="816" y="-343.5" font-family="Helvetica,sans-Serif" font-size="10.00">TwoBody.hh</text>
</a>
</g>
</g>
<!-- Node39&#45;&gt;Node40 -->
<g id="edge53" class="edge"><title>Node39&#45;&gt;Node40</title>
<path fill="none" stroke="midnightblue" d="M519.145,-395.724C577.894,-386.081 702.762,-365.586 770.317,-354.498"/>
<polygon fill="midnightblue" stroke="midnightblue" points="770.95,-357.941 780.251,-352.868 769.816,-351.034 770.95,-357.941"/>
</g>
<!-- Node40&#45;&gt;Node17 -->
<g id="edge55" class="edge"><title>Node40&#45;&gt;Node17</title>
<path fill="none" stroke="midnightblue" d="M827.829,-336.379C844.368,-323.308 870.705,-298.084 855,-280 837.002,-259.276 658.552,-243.809 577.13,-237.773"/>
<polygon fill="midnightblue" stroke="midnightblue" points="577.001,-234.255 566.773,-237.018 576.492,-241.236 577.001,-234.255"/>
</g>
<!-- Node40&#45;&gt;Node33 -->
<g id="edge54" class="edge"><title>Node40&#45;&gt;Node33</title>
<path fill="none" stroke="midnightblue" d="M816,-336.083C816,-329.006 816,-318.861 816,-309.986"/>
<polygon fill="midnightblue" stroke="midnightblue" points="819.5,-309.751 816,-299.751 812.5,-309.751 819.5,-309.751"/>
</g>
<!-- Node41&#45;&gt;Node39 -->
<g id="edge60" class="edge"><title>Node41&#45;&gt;Node39</title>
<path fill="none" stroke="midnightblue" d="M487,-448.083C487,-441.006 487,-430.861 487,-421.986"/>
<polygon fill="midnightblue" stroke="midnightblue" points="490.5,-421.751 487,-411.751 483.5,-421.751 490.5,-421.751"/>
</g>
<!-- Node42&#45;&gt;Node12 -->
<g id="edge62" class="edge"><title>Node42&#45;&gt;Node12</title>
<path fill="none" stroke="midnightblue" d="M164.511,-336.444C191.596,-327.359 234.59,-312.939 264.869,-302.783"/>
<polygon fill="midnightblue" stroke="midnightblue" points="266.24,-306.015 274.608,-299.516 264.014,-299.378 266.24,-306.015"/>
</g>
<!-- Node43 -->
<g id="node43" class="node"><title>Node43</title>
<g id="a_node43"><a xlink:href="../../da/d59/PreCuts_8hh.html" target="_top" xlink:title="PreCuts.hh">
<polygon fill="white" stroke="black" points="0,-168.5 0,-187.5 66,-187.5 66,-168.5 0,-168.5"/>
<text text-anchor="middle" x="33" y="-175.5" font-family="Helvetica,sans-Serif" font-size="10.00">PreCuts.hh</text>
</a>
</g>
</g>
<!-- Node42&#45;&gt;Node43 -->
<g id="edge63" class="edge"><title>Node42&#45;&gt;Node43</title>
<path fill="none" stroke="midnightblue" d="M122.967,-336.427C109.575,-328.542 90.825,-315.708 79,-300 55.2058,-268.393 42.384,-223.038 36.6957,-197.789"/>
<polygon fill="midnightblue" stroke="midnightblue" points="40.0611,-196.786 34.5704,-187.725 33.2121,-198.232 40.0611,-196.786"/>
</g>
<!-- Node44 -->
<g id="node44" class="node"><title>Node44</title>
<polygon fill="white" stroke="#bfbfbf" points="88.5,-280.5 88.5,-299.5 175.5,-299.5 175.5,-280.5 88.5,-280.5"/>
<text text-anchor="middle" x="132" y="-287.5" font-family="Helvetica,sans-Serif" font-size="10.00">TMVA/Reader.h</text>
</g>
<!-- Node42&#45;&gt;Node44 -->
<g id="edge66" class="edge"><title>Node42&#45;&gt;Node44</title>
<path fill="none" stroke="midnightblue" d="M137.844,-336.083C136.916,-328.927 135.582,-318.635 134.423,-309.691"/>
<polygon fill="midnightblue" stroke="midnightblue" points="137.891,-309.218 133.134,-299.751 130.949,-310.118 137.891,-309.218"/>
</g>
<!-- Node43&#45;&gt;Node18 -->
<g id="edge65" class="edge"><title>Node43&#45;&gt;Node18</title>
<path fill="none" stroke="midnightblue" d="M66.4005,-169.441C69.3006,-168.907 72.197,-168.416 75,-168 261.461,-140.332 313.463,-159.032 503.748,-132.005"/>
<polygon fill="midnightblue" stroke="midnightblue" points="504.403,-135.447 513.8,-130.553 503.402,-128.519 504.403,-135.447"/>
</g>
<!-- Node43&#45;&gt;Node26 -->
<g id="edge64" class="edge"><title>Node43&#45;&gt;Node26</title>
<path fill="none" stroke="midnightblue" d="M43.4009,-168.445C71.6564,-145.724 153.025,-83.7185 232,-56 349.557,-14.7402 386.984,-39.7247 510,-20 516.201,-19.0057 522.838,-17.8139 529.113,-16.6278"/>
<polygon fill="midnightblue" stroke="midnightblue" points="530.04,-20.0134 539.19,-14.6732 528.707,-13.1415 530.04,-20.0134"/>
</g>
<!-- Node45&#45;&gt;Node41 -->
<g id="edge73" class="edge"><title>Node45&#45;&gt;Node41</title>
<path fill="none" stroke="midnightblue" d="M270.518,-504.471C313.482,-496.138 380.612,-482.853 448.388,-468.075"/>
<polygon fill="midnightblue" stroke="midnightblue" points="449.37,-471.443 458.39,-465.884 447.872,-464.605 449.37,-471.443"/>
</g>
<!-- Node46 -->
<g id="node46" class="node"><title>Node46</title>
<polygon fill="white" stroke="#bfbfbf" points="51.5,-448.5 51.5,-467.5 110.5,-467.5 110.5,-448.5 51.5,-448.5"/>
<text text-anchor="middle" x="81" y="-455.5" font-family="Helvetica,sans-Serif" font-size="10.00">functional</text>
</g>
<!-- Node45&#45;&gt;Node46 -->
<g id="edge68" class="edge"><title>Node45&#45;&gt;Node46</title>
<path fill="none" stroke="midnightblue" d="M203.024,-504.444C178.843,-495.438 140.582,-481.189 113.354,-471.049"/>
<polygon fill="midnightblue" stroke="midnightblue" points="114.461,-467.727 103.868,-467.516 112.018,-474.286 114.461,-467.727"/>
</g>
<!-- Node47 -->
<g id="node47" class="node"><title>Node47</title>
<g id="a_node47"><a xlink:href="../../db/d94/WHadronicTagger_8hh.html" target="_top" xlink:title="WHadronicTagger.hh">
<polygon fill="white" stroke="black" points="167.5,-448.5 167.5,-467.5 276.5,-467.5 276.5,-448.5 167.5,-448.5"/>
<text text-anchor="middle" x="222" y="-455.5" font-family="Helvetica,sans-Serif" font-size="10.00">WHadronicTagger.hh</text>
</a>
</g>
</g>
<!-- Node45&#45;&gt;Node47 -->
<g id="edge69" class="edge"><title>Node45&#45;&gt;Node47</title>
<path fill="none" stroke="midnightblue" d="M225.339,-504.083C224.815,-497.006 224.064,-486.861 223.406,-477.986"/>
<polygon fill="midnightblue" stroke="midnightblue" points="226.877,-477.465 222.648,-467.751 219.897,-477.982 226.877,-477.465"/>
</g>
<!-- Node47&#45;&gt;Node10 -->
<g id="edge70" class="edge"><title>Node47&#45;&gt;Node10</title>
<path fill="none" stroke="midnightblue" d="M226.789,-448.083C230.758,-440.691 236.525,-429.953 241.435,-420.811"/>
<polygon fill="midnightblue" stroke="midnightblue" points="244.653,-422.217 246.3,-411.751 238.486,-418.905 244.653,-422.217"/>
</g>
<!-- Node47&#45;&gt;Node39 -->
<g id="edge71" class="edge"><title>Node47&#45;&gt;Node39</title>
<path fill="none" stroke="midnightblue" d="M263.99,-448.444C313.449,-438.365 395.138,-421.719 444.722,-411.615"/>
<polygon fill="midnightblue" stroke="midnightblue" points="445.693,-414.989 454.792,-409.563 444.295,-408.13 445.693,-414.989"/>
</g>
<!-- Node47&#45;&gt;Node42 -->
<g id="edge72" class="edge"><title>Node47&#45;&gt;Node42</title>
<path fill="none" stroke="midnightblue" d="M215.487,-448.368C201.729,-430.135 169.503,-387.426 151.582,-363.675"/>
<polygon fill="midnightblue" stroke="midnightblue" points="154.3,-361.466 145.483,-355.591 148.712,-365.682 154.3,-361.466"/>
</g>
<!-- Node48&#45;&gt;Node41 -->
<g id="edge75" class="edge"><title>Node48&#45;&gt;Node41</title>
<path fill="none" stroke="midnightblue" d="M484.495,-504.083C484.889,-497.006 485.452,-486.861 485.945,-477.986"/>
<polygon fill="midnightblue" stroke="midnightblue" points="489.454,-477.93 486.514,-467.751 482.464,-477.542 489.454,-477.93"/>
</g>
<!-- Node49&#45;&gt;Node5 -->
<g id="edge79" class="edge"><title>Node49&#45;&gt;Node5</title>
<path fill="none" stroke="midnightblue" d="M947.407,-112.23C959.086,-98.963 977.357,-73.4875 964,-56 947.974,-35.0184 874.589,-21.4718 831.271,-15.1555"/>
<polygon fill="midnightblue" stroke="midnightblue" points="831.608,-11.6686 821.218,-13.7405 830.632,-18.6002 831.608,-11.6686"/>
</g>
<!-- Node49&#45;&gt;Node6 -->
<g id="edge78" class="edge"><title>Node49&#45;&gt;Node6</title>
<path fill="none" stroke="midnightblue" d="M909.286,-119.066C820.04,-113.139 554.459,-94.5999 447.651,-75.6419"/>
<polygon fill="midnightblue" stroke="midnightblue" points="447.994,-72.1455 437.521,-73.7471 446.707,-79.0262 447.994,-72.1455"/>
</g>
<!-- Node49&#45;&gt;Node22 -->
<g id="edge81" class="edge"><title>Node49&#45;&gt;Node22</title>
<path fill="none" stroke="midnightblue" d="M925.986,-112.324C913.468,-103.979 894.318,-91.2122 879.529,-81.3524"/>
<polygon fill="midnightblue" stroke="midnightblue" points="881.244,-78.2894 870.982,-75.6545 877.361,-84.1137 881.244,-78.2894"/>
</g>
<!-- Node49&#45;&gt;Node23 -->
<g id="edge82" class="edge"><title>Node49&#45;&gt;Node23</title>
<path fill="none" stroke="midnightblue" d="M937.184,-112.083C935.726,-104.927 933.629,-94.6353 931.807,-85.6911"/>
<polygon fill="midnightblue" stroke="midnightblue" points="935.208,-84.8512 929.783,-75.7511 928.349,-86.2485 935.208,-84.8512"/>
</g>
<!-- Node50 -->
<g id="node50" class="node"><title>Node50</title>
<polygon fill="white" stroke="#bfbfbf" points="1011,-56.5 1011,-75.5 1063,-75.5 1063,-56.5 1011,-56.5"/>
<text text-anchor="middle" x="1037" y="-63.5" font-family="Helvetica,sans-Serif" font-size="10.00">sstream</text>
</g>
<!-- Node49&#45;&gt;Node50 -->
<g id="edge80" class="edge"><title>Node49&#45;&gt;Node50</title>
<path fill="none" stroke="midnightblue" d="M954.745,-112.324C970.319,-103.743 994.377,-90.486 1012.46,-80.5224"/>
<polygon fill="midnightblue" stroke="midnightblue" points="1014.22,-83.546 1021.29,-75.6545 1010.85,-77.4152 1014.22,-83.546"/>
</g>
</g>
</svg>
