<?xml version="1.0" encoding="UTF-8" standalone="no"?>
<!DOCTYPE svg PUBLIC "-//W3C//DTD SVG 1.1//EN"
 "http://www.w3.org/Graphics/SVG/1.1/DTD/svg11.dtd">
<!-- Generated by graphviz version 2.38.0 (20140413.2041)
 -->
<!-- Title: boca::heavyhiggs::EventNeutralTagger Pages: 1 -->
<svg width="244pt" height="275pt"
 viewBox="0.00 0.00 244.00 275.00" xmlns="http://www.w3.org/2000/svg" xmlns:xlink="http://www.w3.org/1999/xlink">
<g id="graph0" class="graph" transform="scale(1 1) rotate(0) translate(4 271)">
<title>boca::heavyhiggs::EventNeutralTagger</title>
<polygon fill="white" stroke="none" points="-4,4 -4,-271 240,-271 240,4 -4,4"/>
<!-- Node1 -->
<g id="node1" class="node"><title>Node1</title>
<polygon fill="#bfbfbf" stroke="black" points="0,-0.5 0,-30.5 156,-30.5 156,-0.5 0,-0.5"/>
<text text-anchor="start" x="8" y="-18.5" font-family="Helvetica,sans-Serif" font-size="10.00">boca::heavyhiggs::EventNeutral</text>
<text text-anchor="middle" x="78" y="-7.5" font-family="Helvetica,sans-Serif" font-size="10.00">Tagger</text>
</g>
<!-- Node2 -->
<g id="node2" class="node"><title>Node2</title>
<g id="a_node2"><a xlink:href="../../dd/d8a/classboca_1_1TaggerTemplate.html" target="_top" xlink:title="boca::TaggerTemplate\l\&lt; MultipletEvent\&lt; Octet62\l \&gt;, EventNeutralBranch \&gt;">
<polygon fill="white" stroke="black" points="12.5,-68.5 12.5,-109.5 143.5,-109.5 143.5,-68.5 12.5,-68.5"/>
<text text-anchor="start" x="20.5" y="-97.5" font-family="Helvetica,sans-Serif" font-size="10.00">boca::TaggerTemplate</text>
<text text-anchor="start" x="20.5" y="-86.5" font-family="Helvetica,sans-Serif" font-size="10.00">&lt; MultipletEvent&lt; Octet62</text>
<text text-anchor="middle" x="78" y="-75.5" font-family="Helvetica,sans-Serif" font-size="10.00"> &gt;, EventNeutralBranch &gt;</text>
</a>
</g>
</g>
<!-- Node2&#45;&gt;Node1 -->
<g id="edge1" class="edge"><title>Node2&#45;&gt;Node1</title>
<path fill="none" stroke="midnightblue" d="M78,-58.1581C78,-48.6872 78,-38.6473 78,-30.7972"/>
<polygon fill="midnightblue" stroke="midnightblue" points="74.5001,-58.4623 78,-68.4623 81.5001,-58.4623 74.5001,-58.4623"/>
</g>
<!-- Node3 -->
<g id="node3" class="node"><title>Node3</title>
<g id="a_node3"><a xlink:href="../../da/d42/classboca_1_1Tagger.html" target="_top" xlink:title="Prepares multivariant analysis. ">
<polygon fill="white" stroke="black" points="52,-247.5 52,-266.5 126,-266.5 126,-247.5 52,-247.5"/>
<text text-anchor="middle" x="89" y="-254.5" font-family="Helvetica,sans-Serif" font-size="10.00">boca::Tagger</text>
</a>
</g>
</g>
<!-- Node3&#45;&gt;Node2 -->
<g id="edge2" class="edge"><title>Node3&#45;&gt;Node2</title>
<path fill="none" stroke="midnightblue" d="M85.076,-237.146C83.5183,-228.858 81.8887,-218.984 81,-210 77.5127,-174.744 77.3341,-133.395 77.6076,-109.592"/>
<polygon fill="midnightblue" stroke="midnightblue" points="81.6984,-238.107 87.0791,-247.234 88.5643,-236.744 81.6984,-238.107"/>
</g>
<!-- Node4 -->
<g id="node4" class="node"><title>Node4</title>
<g id="a_node4"><a xlink:href="../../dd/d8a/classboca_1_1TaggerTemplate.html" target="_top" xlink:title="Tagger base class using Branch template. ">
<polygon fill="white" stroke="black" points="90,-168.5 90,-209.5 204,-209.5 204,-168.5 90,-168.5"/>
<text text-anchor="start" x="98" y="-197.5" font-family="Helvetica,sans-Serif" font-size="10.00">boca::TaggerTemplate</text>
<text text-anchor="start" x="98" y="-186.5" font-family="Helvetica,sans-Serif" font-size="10.00">&lt; MultipletTemplate,</text>
<text text-anchor="middle" x="147" y="-175.5" font-family="Helvetica,sans-Serif" font-size="10.00"> BranchTemplate &gt;</text>
</a>
</g>
</g>
<!-- Node3&#45;&gt;Node4 -->
<g id="edge4" class="edge"><title>Node3&#45;&gt;Node4</title>
<path fill="none" stroke="midnightblue" d="M103.234,-239.803C111.212,-230.724 121.223,-219.332 129.657,-209.735"/>
<polygon fill="midnightblue" stroke="midnightblue" points="100.555,-237.55 96.5825,-247.372 105.813,-242.17 100.555,-237.55"/>
</g>
<!-- Node4&#45;&gt;Node2 -->
<g id="edge3" class="edge"><title>Node4&#45;&gt;Node2</title>
<path fill="none" stroke="orange" stroke-dasharray="5,2" d="M127.085,-159.715C115.831,-143.73 102.038,-124.141 91.9424,-109.802"/>
<polygon fill="orange" stroke="orange" points="124.418,-162.007 133.037,-168.168 130.142,-157.977 124.418,-162.007"/>
<text text-anchor="start" x="118" y="-142" font-family="Helvetica,sans-Serif" font-size="10.00"> &lt; MultipletEvent&lt; Octet62</text>
<text text-anchor="middle" x="177" y="-131" font-family="Helvetica,sans-Serif" font-size="10.00"> &gt;, EventNeutralBranch &gt;</text>
</g>
</g>
</svg>
