<?xml version="1.0" encoding="UTF-8" standalone="no"?>
<!DOCTYPE svg PUBLIC "-//W3C//DTD SVG 1.1//EN"
 "http://www.w3.org/Graphics/SVG/1.1/DTD/svg11.dtd">
<!-- Generated by graphviz version 2.38.0 (20140413.2041)
 -->
<!-- Title: HeavyHiggs/include/AnalysisPair.hh Pages: 1 -->
<svg width="332pt" height="106pt"
 viewBox="0.00 0.00 332.00 106.00" xmlns="http://www.w3.org/2000/svg" xmlns:xlink="http://www.w3.org/1999/xlink">
<g id="graph0" class="graph" transform="scale(1 1) rotate(0) translate(4 102)">
<title>HeavyHiggs/include/AnalysisPair.hh</title>
<polygon fill="white" stroke="none" points="-4,4 -4,-102 328,-102 328,4 -4,4"/>
<!-- Node1 -->
<g id="node1" class="node"><title>Node1</title>
<polygon fill="#bfbfbf" stroke="black" points="104.5,-67.5 104.5,-97.5 208.5,-97.5 208.5,-67.5 104.5,-67.5"/>
<text text-anchor="start" x="112.5" y="-85.5" font-family="Helvetica,sans-Serif" font-size="10.00">HeavyHiggs/include</text>
<text text-anchor="middle" x="156.5" y="-74.5" font-family="Helvetica,sans-Serif" font-size="10.00">/AnalysisPair.hh</text>
</g>
<!-- Node2 -->
<g id="node2" class="node"><title>Node2</title>
<g id="a_node2"><a xlink:href="../../d5/d34/AnalysisPair_8cpp.html" target="_top" xlink:title="HeavyHiggs/source/Analysis\lPair.cpp">
<polygon fill="white" stroke="black" points="0,-0.5 0,-30.5 143,-30.5 143,-0.5 0,-0.5"/>
<text text-anchor="start" x="8" y="-18.5" font-family="Helvetica,sans-Serif" font-size="10.00">HeavyHiggs/source/Analysis</text>
<text text-anchor="middle" x="71.5" y="-7.5" font-family="Helvetica,sans-Serif" font-size="10.00">Pair.cpp</text>
</a>
</g>
</g>
<!-- Node1&#45;&gt;Node2 -->
<g id="edge1" class="edge"><title>Node1&#45;&gt;Node2</title>
<path fill="none" stroke="midnightblue" d="M129.912,-61.1677C116.914,-51.2283 101.596,-39.5144 89.9077,-30.5765"/>
<polygon fill="midnightblue" stroke="midnightblue" points="127.987,-64.1017 138.056,-67.396 132.239,-58.5412 127.987,-64.1017"/>
</g>
<!-- Node3 -->
<g id="node3" class="node"><title>Node3</title>
<g id="a_node3"><a xlink:href="../../d1/d87/HeavyHiggs_2source_2MainPair_8cpp.html" target="_top" xlink:title="HeavyHiggs/source/MainPair.cpp">
<polygon fill="white" stroke="black" points="161,-6 161,-25 324,-25 324,-6 161,-6"/>
<text text-anchor="middle" x="242.5" y="-13" font-family="Helvetica,sans-Serif" font-size="10.00">HeavyHiggs/source/MainPair.cpp</text>
</a>
</g>
</g>
<!-- Node1&#45;&gt;Node3 -->
<g id="edge2" class="edge"><title>Node1&#45;&gt;Node3</title>
<path fill="none" stroke="midnightblue" d="M183.17,-61.3425C199.219,-49.2128 218.832,-34.389 230.996,-25.1945"/>
<polygon fill="midnightblue" stroke="midnightblue" points="181.028,-58.5741 175.161,-67.396 185.249,-64.1585 181.028,-58.5741"/>
</g>
</g>
</svg>
