<?xml version="1.0" encoding="UTF-8" standalone="no"?>
<!DOCTYPE svg PUBLIC "-//W3C//DTD SVG 1.1//EN"
 "http://www.w3.org/Graphics/SVG/1.1/DTD/svg11.dtd">
<!-- Generated by graphviz version 2.38.0 (20140413.2041)
 -->
<!-- Title: HeavyHiggs/source/JetPairTagger.cpp Pages: 1 -->
<svg width="1760pt" height="576pt"
 viewBox="0.00 0.00 1760.17 576.00" xmlns="http://www.w3.org/2000/svg" xmlns:xlink="http://www.w3.org/1999/xlink">
<g id="graph0" class="graph" transform="scale(1 1) rotate(0) translate(4 572)">
<title>HeavyHiggs/source/JetPairTagger.cpp</title>
<polygon fill="white" stroke="none" points="-4,4 -4,-572 1756.17,-572 1756.17,4 -4,4"/>
<!-- Node1 -->
<g id="node1" class="node"><title>Node1</title>
<polygon fill="#bfbfbf" stroke="black" points="608.169,-537.5 608.169,-567.5 745.169,-567.5 745.169,-537.5 608.169,-537.5"/>
<text text-anchor="start" x="616.169" y="-555.5" font-family="Helvetica,sans-Serif" font-size="10.00">HeavyHiggs/source/JetPair</text>
<text text-anchor="middle" x="676.669" y="-544.5" font-family="Helvetica,sans-Serif" font-size="10.00">Tagger.cpp</text>
</g>
<!-- Node2 -->
<g id="node2" class="node"><title>Node2</title>
<g id="a_node2"><a xlink:href="../../d7/da1/JetPairTagger_8hh.html" target="_top" xlink:title="JetPairTagger.hh">
<polygon fill="white" stroke="black" points="792.169,-481.5 792.169,-500.5 883.169,-500.5 883.169,-481.5 792.169,-481.5"/>
<text text-anchor="middle" x="837.669" y="-488.5" font-family="Helvetica,sans-Serif" font-size="10.00">JetPairTagger.hh</text>
</a>
</g>
</g>
<!-- Node1&#45;&gt;Node2 -->
<g id="edge1" class="edge"><title>Node1&#45;&gt;Node2</title>
<path fill="none" stroke="midnightblue" d="M714.824,-537.399C742.198,-527.283 778.706,-513.791 804.794,-504.149"/>
<polygon fill="midnightblue" stroke="midnightblue" points="806.075,-507.407 814.242,-500.658 803.649,-500.841 806.075,-507.407"/>
</g>
<!-- Node19 -->
<g id="node19" class="node"><title>Node19</title>
<g id="a_node19"><a xlink:href="../../db/d31/Sort_8hh.html" target="_top" xlink:title="Sort.hh">
<polygon fill="white" stroke="black" points="1524.67,-252 1524.67,-271 1572.67,-271 1572.67,-252 1524.67,-252"/>
<text text-anchor="middle" x="1548.67" y="-259" font-family="Helvetica,sans-Serif" font-size="10.00">Sort.hh</text>
</a>
</g>
</g>
<!-- Node1&#45;&gt;Node19 -->
<g id="edge72" class="edge"><title>Node1&#45;&gt;Node19</title>
<path fill="none" stroke="midnightblue" d="M745.247,-551.511C894.128,-549.684 1233.67,-534.697 1233.67,-436 1233.67,-436 1233.67,-436 1233.67,-378 1233.67,-342.609 1249.67,-331.778 1279.67,-313 1362.91,-260.896 1401.84,-298.462 1497.67,-277 1503.17,-275.768 1508.96,-274.295 1514.58,-272.768"/>
<polygon fill="midnightblue" stroke="midnightblue" points="1515.75,-276.076 1524.43,-269.999 1513.85,-269.337 1515.75,-276.076"/>
</g>
<!-- Node33 -->
<g id="node33" class="node"><title>Node33</title>
<g id="a_node33"><a xlink:href="../../d5/df2/Event_8hh.html" target="_top" xlink:title="Event.hh">
<polygon fill="white" stroke="black" points="194.669,-252 194.669,-271 250.669,-271 250.669,-252 194.669,-252"/>
<text text-anchor="middle" x="222.669" y="-259" font-family="Helvetica,sans-Serif" font-size="10.00">Event.hh</text>
</a>
</g>
</g>
<!-- Node1&#45;&gt;Node33 -->
<g id="edge71" class="edge"><title>Node1&#45;&gt;Node33</title>
<path fill="none" stroke="midnightblue" d="M607.906,-540.599C550.386,-527.103 477.669,-497.817 477.669,-436 477.669,-436 477.669,-436 477.669,-378 477.669,-347.902 480.867,-333.325 458.669,-313 398.176,-257.612 357.584,-295.463 277.669,-277 272.197,-275.736 266.441,-274.318 260.799,-272.876"/>
<polygon fill="midnightblue" stroke="midnightblue" points="261.408,-269.418 250.849,-270.285 259.644,-276.192 261.408,-269.418"/>
</g>
<!-- Node50 -->
<g id="node50" class="node"><title>Node50</title>
<g id="a_node50"><a xlink:href="../../d8/de8/Debug_8hh.html" target="_top" xlink:title="Debug.hh">
<polygon fill="white" stroke="black" points="50.1689,-252 50.1689,-271 109.169,-271 109.169,-252 50.1689,-252"/>
<text text-anchor="middle" x="79.6689" y="-259" font-family="Helvetica,sans-Serif" font-size="10.00">Debug.hh</text>
</a>
</g>
</g>
<!-- Node1&#45;&gt;Node50 -->
<g id="edge73" class="edge"><title>Node1&#45;&gt;Node50</title>
<path fill="none" stroke="midnightblue" d="M607.894,-552.484C450.913,-552.882 79.6689,-542.557 79.6689,-436 79.6689,-436 79.6689,-436 79.6689,-378 79.6689,-343.864 79.6689,-304.052 79.6689,-281.209"/>
<polygon fill="midnightblue" stroke="midnightblue" points="83.169,-281.193 79.6689,-271.193 76.169,-281.193 83.169,-281.193"/>
</g>
<!-- Node3 -->
<g id="node3" class="node"><title>Node3</title>
<g id="a_node3"><a xlink:href="../../de/dbb/BottomTagger_8hh.html" target="_top" xlink:title="BottomTagger.hh">
<polygon fill="white" stroke="black" points="791.669,-425.5 791.669,-444.5 883.669,-444.5 883.669,-425.5 791.669,-425.5"/>
<text text-anchor="middle" x="837.669" y="-432.5" font-family="Helvetica,sans-Serif" font-size="10.00">BottomTagger.hh</text>
</a>
</g>
</g>
<!-- Node2&#45;&gt;Node3 -->
<g id="edge2" class="edge"><title>Node2&#45;&gt;Node3</title>
<path fill="none" stroke="midnightblue" d="M837.669,-481.083C837.669,-474.006 837.669,-463.861 837.669,-454.986"/>
<polygon fill="midnightblue" stroke="midnightblue" points="841.169,-454.751 837.669,-444.751 834.169,-454.751 841.169,-454.751"/>
</g>
<!-- Node8 -->
<g id="node8" class="node"><title>Node8</title>
<g id="a_node8"><a xlink:href="../../db/db5/TaggerTemplate_8hh.html" target="_top" xlink:title="TaggerTemplate.hh">
<polygon fill="white" stroke="black" points="963.169,-369.5 963.169,-388.5 1064.17,-388.5 1064.17,-369.5 963.169,-369.5"/>
<text text-anchor="middle" x="1013.67" y="-376.5" font-family="Helvetica,sans-Serif" font-size="10.00">TaggerTemplate.hh</text>
</a>
</g>
</g>
<!-- Node2&#45;&gt;Node8 -->
<g id="edge58" class="edge"><title>Node2&#45;&gt;Node8</title>
<path fill="none" stroke="midnightblue" d="M851.479,-481.368C881.81,-462.412 954.468,-417.001 991.361,-393.942"/>
<polygon fill="midnightblue" stroke="midnightblue" points="993.298,-396.859 999.923,-388.591 989.588,-390.923 993.298,-396.859"/>
</g>
<!-- Node42 -->
<g id="node42" class="node"><title>Node42</title>
<g id="a_node42"><a xlink:href="../../df/d3a/Doublet_8hh.html" target="_top" xlink:title="Doublet.hh">
<polygon fill="white" stroke="black" points="1261.67,-425.5 1261.67,-444.5 1325.67,-444.5 1325.67,-425.5 1261.67,-425.5"/>
<text text-anchor="middle" x="1293.67" y="-432.5" font-family="Helvetica,sans-Serif" font-size="10.00">Doublet.hh</text>
</a>
</g>
</g>
<!-- Node2&#45;&gt;Node42 -->
<g id="edge59" class="edge"><title>Node2&#45;&gt;Node42</title>
<path fill="none" stroke="midnightblue" d="M883.48,-484.575C972.046,-474.087 1165.57,-451.17 1251.32,-441.015"/>
<polygon fill="midnightblue" stroke="midnightblue" points="1251.95,-444.465 1261.47,-439.813 1251.13,-437.513 1251.95,-444.465"/>
</g>
<!-- Node44 -->
<g id="node44" class="node"><title>Node44</title>
<g id="a_node44"><a xlink:href="../../df/d2c/Reader_8hh.html" target="_top" xlink:title="Reader.hh">
<polygon fill="white" stroke="black" points="376.669,-369.5 376.669,-388.5 438.669,-388.5 438.669,-369.5 376.669,-369.5"/>
<text text-anchor="middle" x="407.669" y="-376.5" font-family="Helvetica,sans-Serif" font-size="10.00">Reader.hh</text>
</a>
</g>
</g>
<!-- Node2&#45;&gt;Node44 -->
<g id="edge63" class="edge"><title>Node2&#45;&gt;Node44</title>
<path fill="none" stroke="midnightblue" d="M804.285,-481.46C726.448,-461.548 533.126,-412.094 448.47,-390.437"/>
<polygon fill="midnightblue" stroke="midnightblue" points="449.255,-387.026 438.7,-387.938 447.52,-393.807 449.255,-387.026"/>
</g>
<!-- Node4 -->
<g id="node4" class="node"><title>Node4</title>
<g id="a_node4"><a xlink:href="../../de/d63/BranchesSm_8hh.html" target="_top" xlink:title="BranchesSm.hh">
<polygon fill="white" stroke="black" points="712.669,-369.5 712.669,-388.5 798.669,-388.5 798.669,-369.5 712.669,-369.5"/>
<text text-anchor="middle" x="755.669" y="-376.5" font-family="Helvetica,sans-Serif" font-size="10.00">BranchesSm.hh</text>
</a>
</g>
</g>
<!-- Node3&#45;&gt;Node4 -->
<g id="edge3" class="edge"><title>Node3&#45;&gt;Node4</title>
<path fill="none" stroke="midnightblue" d="M824.494,-425.324C811.822,-416.979 792.436,-404.212 777.463,-394.352"/>
<polygon fill="midnightblue" stroke="midnightblue" points="779.088,-391.231 768.811,-388.655 775.238,-397.078 779.088,-391.231"/>
</g>
<!-- Node3&#45;&gt;Node8 -->
<g id="edge7" class="edge"><title>Node3&#45;&gt;Node8</title>
<path fill="none" stroke="midnightblue" d="M865.557,-425.444C895.423,-416.28 942.984,-401.688 976.125,-391.519"/>
<polygon fill="midnightblue" stroke="midnightblue" points="977.378,-394.796 985.912,-388.516 975.325,-388.104 977.378,-394.796"/>
</g>
<!-- Node5 -->
<g id="node5" class="node"><title>Node5</title>
<g id="a_node5"><a xlink:href="../../d0/d79/Branches_8hh.html" target="_top" xlink:title="Branches.hh">
<polygon fill="white" stroke="red" points="512.169,-252 512.169,-271 583.169,-271 583.169,-252 512.169,-252"/>
<text text-anchor="middle" x="547.669" y="-259" font-family="Helvetica,sans-Serif" font-size="10.00">Branches.hh</text>
</a>
</g>
</g>
<!-- Node4&#45;&gt;Node5 -->
<g id="edge4" class="edge"><title>Node4&#45;&gt;Node5</title>
<path fill="none" stroke="midnightblue" d="M740.035,-369.319C704.111,-349.37 615.447,-300.136 572.193,-276.118"/>
<polygon fill="midnightblue" stroke="midnightblue" points="573.642,-272.919 563.2,-271.124 570.244,-279.039 573.642,-272.919"/>
</g>
<!-- Node6 -->
<g id="node6" class="node"><title>Node6</title>
<polygon fill="white" stroke="#bfbfbf" points="549.669,-185 549.669,-204 593.669,-204 593.669,-185 549.669,-185"/>
<text text-anchor="middle" x="571.669" y="-192" font-family="Helvetica,sans-Serif" font-size="10.00">vector</text>
</g>
<!-- Node5&#45;&gt;Node6 -->
<g id="edge5" class="edge"><title>Node5&#45;&gt;Node6</title>
<path fill="none" stroke="midnightblue" d="M550.906,-251.734C554.504,-241.988 560.415,-225.981 565.011,-213.532"/>
<polygon fill="midnightblue" stroke="midnightblue" points="568.303,-214.721 568.483,-204.127 561.736,-212.296 568.303,-214.721"/>
</g>
<!-- Node7 -->
<g id="node7" class="node"><title>Node7</title>
<polygon fill="white" stroke="#bfbfbf" points="530.169,-67.5 530.169,-86.5 571.169,-86.5 571.169,-67.5 530.169,-67.5"/>
<text text-anchor="middle" x="550.669" y="-74.5" font-family="Helvetica,sans-Serif" font-size="10.00">string</text>
</g>
<!-- Node5&#45;&gt;Node7 -->
<g id="edge6" class="edge"><title>Node5&#45;&gt;Node7</title>
<path fill="none" stroke="midnightblue" d="M546.119,-251.959C544.387,-241.947 541.692,-224.835 540.669,-210 538.008,-171.425 536.45,-161.436 540.669,-123 541.641,-114.14 543.661,-104.472 545.631,-96.3755"/>
<polygon fill="midnightblue" stroke="midnightblue" points="549.061,-97.0919 548.186,-86.5332 542.286,-95.333 549.061,-97.0919"/>
</g>
<!-- Node9 -->
<g id="node9" class="node"><title>Node9</title>
<polygon fill="white" stroke="#bfbfbf" points="1082.17,-313.5 1082.17,-332.5 1167.17,-332.5 1167.17,-313.5 1082.17,-313.5"/>
<text text-anchor="middle" x="1124.67" y="-320.5" font-family="Helvetica,sans-Serif" font-size="10.00">TClonesArray.h</text>
</g>
<!-- Node8&#45;&gt;Node9 -->
<g id="edge8" class="edge"><title>Node8&#45;&gt;Node9</title>
<path fill="none" stroke="midnightblue" d="M1031.5,-369.324C1049.38,-360.625 1077.14,-347.12 1097.71,-337.113"/>
<polygon fill="midnightblue" stroke="midnightblue" points="1099.42,-340.177 1106.88,-332.655 1096.36,-333.882 1099.42,-340.177"/>
</g>
<!-- Node10 -->
<g id="node10" class="node"><title>Node10</title>
<g id="a_node10"><a xlink:href="../../d3/d96/ExRootAnalysis_8hh.html" target="_top" xlink:title="exroot/ExRootAnalysis.hh">
<polygon fill="white" stroke="black" points="848.169,-313.5 848.169,-332.5 979.169,-332.5 979.169,-313.5 848.169,-313.5"/>
<text text-anchor="middle" x="913.669" y="-320.5" font-family="Helvetica,sans-Serif" font-size="10.00">exroot/ExRootAnalysis.hh</text>
</a>
</g>
</g>
<!-- Node8&#45;&gt;Node10 -->
<g id="edge9" class="edge"><title>Node8&#45;&gt;Node10</title>
<path fill="none" stroke="midnightblue" d="M997.602,-369.324C981.711,-360.743 957.161,-347.486 938.71,-337.522"/>
<polygon fill="midnightblue" stroke="midnightblue" points="940.158,-334.326 929.696,-332.655 936.832,-340.486 940.158,-334.326"/>
</g>
<!-- Node8&#45;&gt;Node19 -->
<g id="edge19" class="edge"><title>Node8&#45;&gt;Node19</title>
<path fill="none" stroke="midnightblue" d="M1050.53,-369.499C1083.71,-361.441 1133.56,-348.313 1175.67,-333 1195.86,-325.659 1198.99,-318.83 1219.67,-313 1345.1,-277.63 1384.2,-308.459 1510.67,-277 1513.5,-276.297 1516.4,-275.444 1519.28,-274.508"/>
<polygon fill="midnightblue" stroke="midnightblue" points="1520.6,-277.753 1528.84,-271.1 1518.25,-271.159 1520.6,-277.753"/>
</g>
<!-- Node29 -->
<g id="node29" class="node"><title>Node29</title>
<g id="a_node29"><a xlink:href="../../d1/d8c/Tagger_8hh.html" target="_top" xlink:title="Tagger.hh">
<polygon fill="white" stroke="red" points="505.669,-313.5 505.669,-332.5 565.669,-332.5 565.669,-313.5 505.669,-313.5"/>
<text text-anchor="middle" x="535.669" y="-320.5" font-family="Helvetica,sans-Serif" font-size="10.00">Tagger.hh</text>
</a>
</g>
</g>
<!-- Node8&#45;&gt;Node29 -->
<g id="edge36" class="edge"><title>Node8&#45;&gt;Node29</title>
<path fill="none" stroke="midnightblue" d="M962.967,-372.272C867.38,-361.474 662.359,-338.312 575.676,-328.52"/>
<polygon fill="midnightblue" stroke="midnightblue" points="576.037,-325.038 565.707,-327.393 575.251,-331.994 576.037,-325.038"/>
</g>
<!-- Node40 -->
<g id="node40" class="node"><title>Node40</title>
<g id="a_node40"><a xlink:href="../../db/d60/Singlet_8hh.html" target="_top" xlink:title="Singlet.hh">
<polygon fill="white" stroke="red" points="1288.67,-313.5 1288.67,-332.5 1348.67,-332.5 1348.67,-313.5 1288.67,-313.5"/>
<text text-anchor="middle" x="1318.67" y="-320.5" font-family="Helvetica,sans-Serif" font-size="10.00">Singlet.hh</text>
</a>
</g>
</g>
<!-- Node8&#45;&gt;Node40 -->
<g id="edge54" class="edge"><title>Node8&#45;&gt;Node40</title>
<path fill="none" stroke="midnightblue" d="M1062,-369.444C1121.93,-358.833 1222.98,-340.942 1278.73,-331.071"/>
<polygon fill="midnightblue" stroke="midnightblue" points="1279.36,-334.514 1288.6,-329.325 1278.14,-327.622 1279.36,-334.514"/>
</g>
<!-- Node41 -->
<g id="node41" class="node"><title>Node41</title>
<g id="a_node41"><a xlink:href="../../da/d59/PreCuts_8hh.html" target="_top" xlink:title="PreCuts.hh">
<polygon fill="white" stroke="red" points="997.669,-313.5 997.669,-332.5 1063.67,-332.5 1063.67,-313.5 997.669,-313.5"/>
<text text-anchor="middle" x="1030.67" y="-320.5" font-family="Helvetica,sans-Serif" font-size="10.00">PreCuts.hh</text>
</a>
</g>
</g>
<!-- Node8&#45;&gt;Node41 -->
<g id="edge56" class="edge"><title>Node8&#45;&gt;Node41</title>
<path fill="none" stroke="midnightblue" d="M1016.48,-369.083C1018.75,-361.849 1022.04,-351.409 1024.88,-342.397"/>
<polygon fill="midnightblue" stroke="midnightblue" points="1028.25,-343.341 1027.91,-332.751 1021.57,-341.239 1028.25,-343.341"/>
</g>
<!-- Node11 -->
<g id="node11" class="node"><title>Node11</title>
<polygon fill="white" stroke="#bfbfbf" points="1302.17,-252 1302.17,-271 1469.17,-271 1469.17,-252 1302.17,-252"/>
<text text-anchor="middle" x="1385.67" y="-259" font-family="Helvetica,sans-Serif" font-size="10.00">ExRootAnalysis/ExRootClasses.h</text>
</g>
<!-- Node10&#45;&gt;Node11 -->
<g id="edge10" class="edge"><title>Node10&#45;&gt;Node11</title>
<path fill="none" stroke="midnightblue" d="M979.215,-314.137C1086.46,-301.273 1287.72,-277.128 1288.67,-277 1298.96,-275.613 1309.86,-274.064 1320.49,-272.508"/>
<polygon fill="midnightblue" stroke="midnightblue" points="1321.18,-275.944 1330.56,-271.02 1320.16,-269.019 1321.18,-275.944"/>
</g>
<!-- Node12 -->
<g id="node12" class="node"><title>Node12</title>
<polygon fill="white" stroke="#bfbfbf" points="601.169,-246.5 601.169,-276.5 744.169,-276.5 744.169,-246.5 601.169,-246.5"/>
<text text-anchor="start" x="609.169" y="-264.5" font-family="Helvetica,sans-Serif" font-size="10.00">ExRootAnalysis/ExRootTree</text>
<text text-anchor="middle" x="672.669" y="-253.5" font-family="Helvetica,sans-Serif" font-size="10.00">Writer.h</text>
</g>
<!-- Node10&#45;&gt;Node12 -->
<g id="edge11" class="edge"><title>Node10&#45;&gt;Node12</title>
<path fill="none" stroke="midnightblue" d="M879.139,-313.475C842.763,-304.494 784.575,-290.128 739.229,-278.933"/>
<polygon fill="midnightblue" stroke="midnightblue" points="740.015,-275.522 729.468,-276.523 738.337,-282.318 740.015,-275.522"/>
</g>
<!-- Node13 -->
<g id="node13" class="node"><title>Node13</title>
<polygon fill="white" stroke="#bfbfbf" points="762.169,-246.5 762.169,-276.5 905.169,-276.5 905.169,-246.5 762.169,-246.5"/>
<text text-anchor="start" x="770.169" y="-264.5" font-family="Helvetica,sans-Serif" font-size="10.00">ExRootAnalysis/ExRootTree</text>
<text text-anchor="middle" x="833.669" y="-253.5" font-family="Helvetica,sans-Serif" font-size="10.00">Reader.h</text>
</g>
<!-- Node10&#45;&gt;Node13 -->
<g id="edge12" class="edge"><title>Node10&#45;&gt;Node13</title>
<path fill="none" stroke="midnightblue" d="M902.207,-313.475C891.473,-305.492 875.019,-293.254 860.923,-282.77"/>
<polygon fill="midnightblue" stroke="midnightblue" points="862.636,-279.682 852.523,-276.523 858.459,-285.299 862.636,-279.682"/>
</g>
<!-- Node14 -->
<g id="node14" class="node"><title>Node14</title>
<polygon fill="white" stroke="#bfbfbf" points="923.169,-246.5 923.169,-276.5 1066.17,-276.5 1066.17,-246.5 923.169,-246.5"/>
<text text-anchor="start" x="931.169" y="-264.5" font-family="Helvetica,sans-Serif" font-size="10.00">ExRootAnalysis/ExRootTree</text>
<text text-anchor="middle" x="994.669" y="-253.5" font-family="Helvetica,sans-Serif" font-size="10.00">Branch.h</text>
</g>
<!-- Node10&#45;&gt;Node14 -->
<g id="edge13" class="edge"><title>Node10&#45;&gt;Node14</title>
<path fill="none" stroke="midnightblue" d="M925.274,-313.475C936.245,-305.417 953.117,-293.023 967.477,-282.474"/>
<polygon fill="midnightblue" stroke="midnightblue" points="969.592,-285.264 975.579,-276.523 965.447,-279.622 969.592,-285.264"/>
</g>
<!-- Node15 -->
<g id="node15" class="node"><title>Node15</title>
<polygon fill="white" stroke="#bfbfbf" points="1084.67,-246.5 1084.67,-276.5 1246.67,-276.5 1246.67,-246.5 1084.67,-246.5"/>
<text text-anchor="start" x="1092.67" y="-264.5" font-family="Helvetica,sans-Serif" font-size="10.00">ExRootAnalysis/ExRootProgress</text>
<text text-anchor="middle" x="1165.67" y="-253.5" font-family="Helvetica,sans-Serif" font-size="10.00">Bar.h</text>
</g>
<!-- Node10&#45;&gt;Node15 -->
<g id="edge14" class="edge"><title>Node10&#45;&gt;Node15</title>
<path fill="none" stroke="midnightblue" d="M949.774,-313.475C987.891,-304.475 1048.91,-290.068 1096.37,-278.862"/>
<polygon fill="midnightblue" stroke="midnightblue" points="1097.35,-282.227 1106.28,-276.523 1095.74,-275.415 1097.35,-282.227"/>
</g>
<!-- Node16 -->
<g id="node16" class="node"><title>Node16</title>
<g id="a_node16"><a xlink:href="../../d6/dd8/Types_8hh.html" target="_top" xlink:title="Types.hh">
<polygon fill="white" stroke="black" points="550.169,-123.5 550.169,-142.5 607.169,-142.5 607.169,-123.5 550.169,-123.5"/>
<text text-anchor="middle" x="578.669" y="-130.5" font-family="Helvetica,sans-Serif" font-size="10.00">Types.hh</text>
</a>
</g>
</g>
<!-- Node10&#45;&gt;Node16 -->
<g id="edge15" class="edge"><title>Node10&#45;&gt;Node16</title>
<path fill="none" stroke="midnightblue" d="M979.474,-313.888C1078.19,-301.643 1253.4,-279.585 1255.67,-277 1264.75,-266.642 1264.6,-256.489 1255.67,-246 1164.41,-138.853 774.987,-169.62 617.3,-142.854"/>
<polygon fill="midnightblue" stroke="midnightblue" points="617.722,-139.373 607.254,-141.005 616.456,-146.257 617.722,-139.373"/>
</g>
<!-- Node16&#45;&gt;Node7 -->
<g id="edge16" class="edge"><title>Node16&#45;&gt;Node7</title>
<path fill="none" stroke="midnightblue" d="M574.045,-123.083C570.213,-115.691 564.645,-104.953 559.904,-95.8111"/>
<polygon fill="midnightblue" stroke="midnightblue" points="562.917,-94.0175 555.206,-86.7511 556.703,-97.2398 562.917,-94.0175"/>
</g>
<!-- Node17 -->
<g id="node17" class="node"><title>Node17</title>
<g id="a_node17"><a xlink:href="../../dc/d45/Units_8hh.html" target="_top" xlink:title="Units.hh">
<polygon fill="white" stroke="red" points="649.169,-67.5 649.169,-86.5 702.169,-86.5 702.169,-67.5 649.169,-67.5"/>
<text text-anchor="middle" x="675.669" y="-74.5" font-family="Helvetica,sans-Serif" font-size="10.00">Units.hh</text>
</a>
</g>
</g>
<!-- Node16&#45;&gt;Node17 -->
<g id="edge17" class="edge"><title>Node16&#45;&gt;Node17</title>
<path fill="none" stroke="midnightblue" d="M594.254,-123.324C609.668,-114.743 633.481,-101.486 651.379,-91.5224"/>
<polygon fill="midnightblue" stroke="midnightblue" points="653.088,-94.5767 660.123,-86.6545 649.683,-88.4606 653.088,-94.5767"/>
</g>
<!-- Node18 -->
<g id="node18" class="node"><title>Node18</title>
<polygon fill="white" stroke="#bfbfbf" points="271.169,-0.5 271.169,-30.5 376.169,-30.5 376.169,-0.5 271.169,-0.5"/>
<text text-anchor="start" x="279.169" y="-18.5" font-family="Helvetica,sans-Serif" font-size="10.00">boost/units/systems</text>
<text text-anchor="middle" x="323.669" y="-7.5" font-family="Helvetica,sans-Serif" font-size="10.00">/si/io.hpp</text>
</g>
<!-- Node17&#45;&gt;Node18 -->
<g id="edge18" class="edge"><title>Node17&#45;&gt;Node18</title>
<path fill="none" stroke="midnightblue" d="M648.923,-71.479C593.416,-62.0965 464.415,-40.2908 386.585,-27.135"/>
<polygon fill="midnightblue" stroke="midnightblue" points="386.866,-23.633 376.423,-25.4172 385.7,-30.5351 386.866,-23.633"/>
</g>
<!-- Node19&#45;&gt;Node6 -->
<g id="edge20" class="edge"><title>Node19&#45;&gt;Node6</title>
<path fill="none" stroke="midnightblue" d="M1524.5,-254.652C1510.84,-251.577 1493.39,-248.032 1477.67,-246 1137.92,-202.076 721.625,-196.336 603.985,-195.603"/>
<polygon fill="midnightblue" stroke="midnightblue" points="603.871,-192.102 593.852,-195.548 603.833,-199.102 603.871,-192.102"/>
</g>
<!-- Node20 -->
<g id="node20" class="node"><title>Node20</title>
<polygon fill="white" stroke="#bfbfbf" points="1408.67,-179.5 1408.67,-209.5 1518.67,-209.5 1518.67,-179.5 1408.67,-179.5"/>
<text text-anchor="start" x="1416.67" y="-197.5" font-family="Helvetica,sans-Serif" font-size="10.00">boost/range/algorithm</text>
<text text-anchor="middle" x="1463.67" y="-186.5" font-family="Helvetica,sans-Serif" font-size="10.00">/sort.hpp</text>
</g>
<!-- Node19&#45;&gt;Node20 -->
<g id="edge21" class="edge"><title>Node19&#45;&gt;Node20</title>
<path fill="none" stroke="midnightblue" d="M1537.21,-251.734C1525.28,-242.611 1506.17,-228.004 1490.43,-215.963"/>
<polygon fill="midnightblue" stroke="midnightblue" points="1492.16,-212.883 1482.09,-209.589 1487.91,-218.444 1492.16,-212.883"/>
</g>
<!-- Node21 -->
<g id="node21" class="node"><title>Node21</title>
<polygon fill="white" stroke="#bfbfbf" points="1385.17,-67.5 1385.17,-86.5 1492.17,-86.5 1492.17,-67.5 1385.17,-67.5"/>
<text text-anchor="middle" x="1438.67" y="-74.5" font-family="Helvetica,sans-Serif" font-size="10.00">fastjet/PseudoJet.hh</text>
</g>
<!-- Node19&#45;&gt;Node21 -->
<g id="edge22" class="edge"><title>Node19&#45;&gt;Node21</title>
<path fill="none" stroke="midnightblue" d="M1547.79,-251.933C1545.94,-236.542 1540.67,-203.531 1527.67,-179 1509.3,-144.332 1476.75,-111.701 1456.52,-93.3422"/>
<polygon fill="midnightblue" stroke="midnightblue" points="1458.73,-90.6227 1448.93,-86.5987 1454.08,-95.8563 1458.73,-90.6227"/>
</g>
<!-- Node22 -->
<g id="node22" class="node"><title>Node22</title>
<g id="a_node22"><a xlink:href="../../d6/dc8/LorentzVector_8hh.html" target="_top" xlink:title="LorentzVector.hh">
<polygon fill="white" stroke="black" points="1661.17,-67.5 1661.17,-86.5 1752.17,-86.5 1752.17,-67.5 1661.17,-67.5"/>
<text text-anchor="middle" x="1706.67" y="-74.5" font-family="Helvetica,sans-Serif" font-size="10.00">LorentzVector.hh</text>
</a>
</g>
</g>
<!-- Node19&#45;&gt;Node22 -->
<g id="edge23" class="edge"><title>Node19&#45;&gt;Node22</title>
<path fill="none" stroke="midnightblue" d="M1572.77,-253.163C1613.23,-239.321 1693.18,-205.028 1721.67,-143 1728.6,-127.904 1723.06,-109.319 1716.84,-95.8934"/>
<polygon fill="midnightblue" stroke="midnightblue" points="1719.84,-94.0678 1712.15,-86.776 1713.61,-97.2696 1719.84,-94.0678"/>
</g>
<!-- Node24 -->
<g id="node24" class="node"><title>Node24</title>
<g id="a_node24"><a xlink:href="../../db/da5/Particles_8hh.html" target="_top" xlink:title="Particles.hh">
<polygon fill="white" stroke="black" points="729.669,-123.5 729.669,-142.5 797.669,-142.5 797.669,-123.5 729.669,-123.5"/>
<text text-anchor="middle" x="763.669" y="-130.5" font-family="Helvetica,sans-Serif" font-size="10.00">Particles.hh</text>
</a>
</g>
</g>
<!-- Node19&#45;&gt;Node24 -->
<g id="edge25" class="edge"><title>Node19&#45;&gt;Node24</title>
<path fill="none" stroke="midnightblue" d="M1524.28,-252.104C1468.99,-233.193 1335.31,-188.195 1288.67,-179 1112.98,-144.366 899.011,-136.387 808.027,-134.549"/>
<polygon fill="midnightblue" stroke="midnightblue" points="807.871,-131.046 797.808,-134.359 807.741,-138.045 807.871,-131.046"/>
</g>
<!-- Node25 -->
<g id="node25" class="node"><title>Node25</title>
<g id="a_node25"><a xlink:href="../../d1/dce/JetInfo_8hh.html" target="_top" xlink:title="JetInfo.hh">
<polygon fill="white" stroke="black" points="1574.67,-185 1574.67,-204 1634.67,-204 1634.67,-185 1574.67,-185"/>
<text text-anchor="middle" x="1604.67" y="-192" font-family="Helvetica,sans-Serif" font-size="10.00">JetInfo.hh</text>
</a>
</g>
</g>
<!-- Node19&#45;&gt;Node25 -->
<g id="edge28" class="edge"><title>Node19&#45;&gt;Node25</title>
<path fill="none" stroke="midnightblue" d="M1556.22,-251.734C1564.95,-241.598 1579.52,-224.69 1590.41,-212.056"/>
<polygon fill="midnightblue" stroke="midnightblue" points="1593.36,-213.988 1597.24,-204.127 1588.06,-209.419 1593.36,-213.988"/>
</g>
<!-- Node23 -->
<g id="node23" class="node"><title>Node23</title>
<g id="a_node23"><a xlink:href="../../d1/df9/Vector3_8hh.html" target="_top" xlink:title="Vector3.hh">
<polygon fill="white" stroke="black" points="1674.67,-6 1674.67,-25 1738.67,-25 1738.67,-6 1674.67,-6"/>
<text text-anchor="middle" x="1706.67" y="-13" font-family="Helvetica,sans-Serif" font-size="10.00">Vector3.hh</text>
</a>
</g>
</g>
<!-- Node22&#45;&gt;Node23 -->
<g id="edge24" class="edge"><title>Node22&#45;&gt;Node23</title>
<path fill="none" stroke="midnightblue" d="M1706.67,-67.4751C1706.67,-59.0803 1706.67,-45.9806 1706.67,-35.1631"/>
<polygon fill="midnightblue" stroke="midnightblue" points="1710.17,-35.0091 1706.67,-25.0091 1703.17,-35.0091 1710.17,-35.0091"/>
</g>
<!-- Node24&#45;&gt;Node7 -->
<g id="edge26" class="edge"><title>Node24&#45;&gt;Node7</title>
<path fill="none" stroke="midnightblue" d="M729.918,-123.444C688.999,-113.07 620.633,-95.7375 581.214,-85.7438"/>
<polygon fill="midnightblue" stroke="midnightblue" points="581.933,-82.3155 571.38,-83.2506 580.213,-89.1009 581.933,-82.3155"/>
</g>
<!-- Node24&#45;&gt;Node17 -->
<g id="edge27" class="edge"><title>Node24&#45;&gt;Node17</title>
<path fill="none" stroke="midnightblue" d="M749.53,-123.324C735.803,-114.9 714.733,-101.971 698.605,-92.0741"/>
<polygon fill="midnightblue" stroke="midnightblue" points="700.126,-88.9016 689.773,-86.6545 696.465,-94.8678 700.126,-88.9016"/>
</g>
<!-- Node25&#45;&gt;Node21 -->
<g id="edge29" class="edge"><title>Node25&#45;&gt;Node21</title>
<path fill="none" stroke="midnightblue" d="M1604.87,-184.847C1604.72,-170.123 1602.23,-140.134 1585.67,-123 1563.93,-100.514 1531.29,-89.1845 1502.29,-83.5098"/>
<polygon fill="midnightblue" stroke="midnightblue" points="1502.66,-80.0215 1492.2,-81.7294 1501.44,-86.9149 1502.66,-80.0215"/>
</g>
<!-- Node26 -->
<g id="node26" class="node"><title>Node26</title>
<g id="a_node26"><a xlink:href="../../d8/d85/Identification_8hh.html" target="_top" xlink:title="Identification.hh">
<polygon fill="white" stroke="black" points="625.669,-123.5 625.669,-142.5 711.669,-142.5 711.669,-123.5 625.669,-123.5"/>
<text text-anchor="middle" x="668.669" y="-130.5" font-family="Helvetica,sans-Serif" font-size="10.00">Identification.hh</text>
</a>
</g>
</g>
<!-- Node25&#45;&gt;Node26 -->
<g id="edge30" class="edge"><title>Node25&#45;&gt;Node26</title>
<path fill="none" stroke="midnightblue" d="M1574.47,-186.788C1560.33,-183.91 1543.21,-180.801 1527.67,-179 1174.34,-138.06 1079.36,-180.883 721.852,-142.974"/>
<polygon fill="midnightblue" stroke="midnightblue" points="722.056,-139.476 711.74,-141.888 721.309,-146.436 722.056,-139.476"/>
</g>
<!-- Node27 -->
<g id="node27" class="node"><title>Node27</title>
<g id="a_node27"><a xlink:href="../../d3/d32/Constituent_8hh.html" target="_top" xlink:title="Constituent.hh">
<polygon fill="white" stroke="black" points="1632.67,-123.5 1632.67,-142.5 1712.67,-142.5 1712.67,-123.5 1632.67,-123.5"/>
<text text-anchor="middle" x="1672.67" y="-130.5" font-family="Helvetica,sans-Serif" font-size="10.00">Constituent.hh</text>
</a>
</g>
</g>
<!-- Node25&#45;&gt;Node27 -->
<g id="edge32" class="edge"><title>Node25&#45;&gt;Node27</title>
<path fill="none" stroke="midnightblue" d="M1614.41,-184.975C1625.02,-175.697 1642.19,-160.671 1655.15,-149.331"/>
<polygon fill="midnightblue" stroke="midnightblue" points="1657.72,-151.728 1662.94,-142.509 1653.11,-146.46 1657.72,-151.728"/>
</g>
<!-- Node28 -->
<g id="node28" class="node"><title>Node28</title>
<g id="a_node28"><a xlink:href="../../d7/d7f/Math_8hh.html" target="_top" xlink:title="Math.hh">
<polygon fill="white" stroke="red" points="1524.67,-123.5 1524.67,-142.5 1576.67,-142.5 1576.67,-123.5 1524.67,-123.5"/>
<text text-anchor="middle" x="1550.67" y="-130.5" font-family="Helvetica,sans-Serif" font-size="10.00">Math.hh</text>
</a>
</g>
</g>
<!-- Node25&#45;&gt;Node28 -->
<g id="edge34" class="edge"><title>Node25&#45;&gt;Node28</title>
<path fill="none" stroke="midnightblue" d="M1596.93,-184.975C1588.67,-175.873 1575.39,-161.241 1565.17,-149.983"/>
<polygon fill="midnightblue" stroke="midnightblue" points="1567.7,-147.562 1558.39,-142.509 1562.52,-152.266 1567.7,-147.562"/>
</g>
<!-- Node26&#45;&gt;Node7 -->
<g id="edge31" class="edge"><title>Node26&#45;&gt;Node7</title>
<path fill="none" stroke="midnightblue" d="M649.971,-123.444C630.724,-114.636 600.516,-100.812 578.469,-90.722"/>
<polygon fill="midnightblue" stroke="midnightblue" points="579.828,-87.4951 569.279,-86.5164 576.916,-93.8603 579.828,-87.4951"/>
</g>
<!-- Node27&#45;&gt;Node22 -->
<g id="edge33" class="edge"><title>Node27&#45;&gt;Node22</title>
<path fill="none" stroke="midnightblue" d="M1678.28,-123.083C1683.04,-115.534 1689.99,-104.495 1695.82,-95.2298"/>
<polygon fill="midnightblue" stroke="midnightblue" points="1698.79,-97.0783 1701.16,-86.7511 1692.87,-93.3486 1698.79,-97.0783"/>
</g>
<!-- Node28&#45;&gt;Node17 -->
<g id="edge35" class="edge"><title>Node28&#45;&gt;Node17</title>
<path fill="none" stroke="midnightblue" d="M1524.48,-130.384C1398.95,-122.637 858.873,-89.3063 712.424,-80.2683"/>
<polygon fill="midnightblue" stroke="midnightblue" points="712.378,-76.7589 702.181,-79.6362 711.947,-83.7456 712.378,-76.7589"/>
</g>
<!-- Node29&#45;&gt;Node5 -->
<g id="edge42" class="edge"><title>Node29&#45;&gt;Node5</title>
<path fill="none" stroke="midnightblue" d="M537.388,-313.475C539.099,-304.992 541.779,-291.704 543.974,-280.822"/>
<polygon fill="midnightblue" stroke="midnightblue" points="547.407,-281.504 545.953,-271.009 540.545,-280.12 547.407,-281.504"/>
</g>
<!-- Node29&#45;&gt;Node26 -->
<g id="edge41" class="edge"><title>Node29&#45;&gt;Node26</title>
<path fill="none" stroke="midnightblue" d="M526.649,-313.34C518.597,-304.932 507.371,-291.363 502.669,-277 488.135,-232.603 504.833,-208.968 540.669,-179 561.95,-161.203 590.741,-150.257 615.629,-143.625"/>
<polygon fill="midnightblue" stroke="midnightblue" points="616.807,-146.938 625.663,-141.123 615.113,-140.146 616.807,-146.938"/>
</g>
<!-- Node30 -->
<g id="node30" class="node"><title>Node30</title>
<polygon fill="white" stroke="#bfbfbf" points="408.169,-252 408.169,-271 455.169,-271 455.169,-252 408.169,-252"/>
<text text-anchor="middle" x="431.669" y="-259" font-family="Helvetica,sans-Serif" font-size="10.00">TCut.h</text>
</g>
<!-- Node29&#45;&gt;Node30 -->
<g id="edge37" class="edge"><title>Node29&#45;&gt;Node30</title>
<path fill="none" stroke="midnightblue" d="M520.768,-313.475C503.701,-303.711 475.507,-287.581 455.407,-276.081"/>
<polygon fill="midnightblue" stroke="midnightblue" points="456.96,-272.937 446.542,-271.009 453.484,-279.013 456.96,-272.937"/>
</g>
<!-- Node31 -->
<g id="node31" class="node"><title>Node31</title>
<polygon fill="white" stroke="#bfbfbf" points="307.169,-252 307.169,-271 390.169,-271 390.169,-252 307.169,-252"/>
<text text-anchor="middle" x="348.669" y="-259" font-family="Helvetica,sans-Serif" font-size="10.00">TMVA/Types.h</text>
</g>
<!-- Node29&#45;&gt;Node31 -->
<g id="edge38" class="edge"><title>Node29&#45;&gt;Node31</title>
<path fill="none" stroke="midnightblue" d="M508.876,-313.475C476.383,-303.136 421.461,-285.661 385.131,-274.102"/>
<polygon fill="midnightblue" stroke="midnightblue" points="386.002,-270.706 375.412,-271.009 383.88,-277.376 386.002,-270.706"/>
</g>
<!-- Node32 -->
<g id="node32" class="node"><title>Node32</title>
<g id="a_node32"><a xlink:href="../../de/d1f/Observable_8hh.html" target="_top" xlink:title="Observable.hh">
<polygon fill="white" stroke="black" points="409.669,-123.5 409.669,-142.5 489.669,-142.5 489.669,-123.5 409.669,-123.5"/>
<text text-anchor="middle" x="449.669" y="-130.5" font-family="Helvetica,sans-Serif" font-size="10.00">Observable.hh</text>
</a>
</g>
</g>
<!-- Node29&#45;&gt;Node32 -->
<g id="edge39" class="edge"><title>Node29&#45;&gt;Node32</title>
<path fill="none" stroke="midnightblue" d="M505.387,-315.73C500.793,-314.801 496.108,-313.866 491.669,-313 448.633,-304.606 325.703,-310.715 297.669,-277 237.841,-205.048 352.982,-280.418 425.669,-210 441.24,-194.915 446.741,-169.827 448.666,-152.631"/>
<polygon fill="midnightblue" stroke="midnightblue" points="452.155,-152.907 449.484,-142.654 445.178,-152.335 452.155,-152.907"/>
</g>
<!-- Node29&#45;&gt;Node33 -->
<g id="edge43" class="edge"><title>Node29&#45;&gt;Node33</title>
<path fill="none" stroke="midnightblue" d="M505.406,-315.626C500.81,-314.711 496.119,-313.807 491.669,-313 391.161,-294.76 363.772,-301.763 264.669,-277 261.451,-276.196 258.129,-275.253 254.829,-274.24"/>
<polygon fill="midnightblue" stroke="midnightblue" points="255.712,-270.847 245.119,-271.063 253.535,-277.499 255.712,-270.847"/>
</g>
<!-- Node32&#45;&gt;Node7 -->
<g id="edge40" class="edge"><title>Node32&#45;&gt;Node7</title>
<path fill="none" stroke="midnightblue" d="M465.896,-123.324C482.02,-114.703 506.969,-101.364 525.633,-91.3855"/>
<polygon fill="midnightblue" stroke="midnightblue" points="527.313,-94.456 534.482,-86.6545 524.013,-88.283 527.313,-94.456"/>
</g>
<!-- Node34 -->
<g id="node34" class="node"><title>Node34</title>
<g id="a_node34"><a xlink:href="../../d0/d6b/Partons_8hh.html" target="_top" xlink:title="Partons.hh">
<polygon fill="white" stroke="black" points="267.669,-185 267.669,-204 331.669,-204 331.669,-185 267.669,-185"/>
<text text-anchor="middle" x="299.669" y="-192" font-family="Helvetica,sans-Serif" font-size="10.00">Partons.hh</text>
</a>
</g>
</g>
<!-- Node33&#45;&gt;Node34 -->
<g id="edge44" class="edge"><title>Node33&#45;&gt;Node34</title>
<path fill="none" stroke="midnightblue" d="M233.053,-251.734C245.522,-241.208 266.643,-223.379 281.761,-210.617"/>
<polygon fill="midnightblue" stroke="midnightblue" points="284.065,-213.252 289.449,-204.127 279.55,-207.903 284.065,-213.252"/>
</g>
<!-- Node38 -->
<g id="node38" class="node"><title>Node38</title>
<g id="a_node38"><a xlink:href="../../d7/dac/Leptons_8hh.html" target="_top" xlink:title="Leptons.hh">
<polygon fill="white" stroke="black" points="184.169,-185 184.169,-204 249.169,-204 249.169,-185 184.169,-185"/>
<text text-anchor="middle" x="216.669" y="-192" font-family="Helvetica,sans-Serif" font-size="10.00">Leptons.hh</text>
</a>
</g>
</g>
<!-- Node33&#45;&gt;Node38 -->
<g id="edge49" class="edge"><title>Node33&#45;&gt;Node38</title>
<path fill="none" stroke="midnightblue" d="M221.86,-251.734C220.978,-242.183 219.541,-226.618 218.403,-214.283"/>
<polygon fill="midnightblue" stroke="midnightblue" points="221.87,-213.763 217.465,-204.127 214.899,-214.407 221.87,-213.763"/>
</g>
<!-- Node39 -->
<g id="node39" class="node"><title>Node39</title>
<g id="a_node39"><a xlink:href="../../dd/dee/Hadrons_8hh.html" target="_top" xlink:title="Hadrons.hh">
<polygon fill="white" stroke="black" points="350.169,-185 350.169,-204 417.169,-204 417.169,-185 350.169,-185"/>
<text text-anchor="middle" x="383.669" y="-192" font-family="Helvetica,sans-Serif" font-size="10.00">Hadrons.hh</text>
</a>
</g>
</g>
<!-- Node33&#45;&gt;Node39 -->
<g id="edge51" class="edge"><title>Node33&#45;&gt;Node39</title>
<path fill="none" stroke="midnightblue" d="M244.048,-251.869C272.033,-240.571 321.26,-220.696 353.157,-207.818"/>
<polygon fill="midnightblue" stroke="midnightblue" points="354.495,-211.053 362.457,-204.064 351.874,-204.562 354.495,-211.053"/>
</g>
<!-- Node35 -->
<g id="node35" class="node"><title>Node35</title>
<g id="a_node35"><a xlink:href="../../df/dbc/FourVector_8hh.html" target="_top" xlink:title="FourVector.hh">
<polygon fill="white" stroke="red" points="218.669,-123.5 218.669,-142.5 296.669,-142.5 296.669,-123.5 218.669,-123.5"/>
<text text-anchor="middle" x="257.669" y="-130.5" font-family="Helvetica,sans-Serif" font-size="10.00">FourVector.hh</text>
</a>
</g>
</g>
<!-- Node34&#45;&gt;Node35 -->
<g id="edge45" class="edge"><title>Node34&#45;&gt;Node35</title>
<path fill="none" stroke="midnightblue" d="M293.651,-184.975C287.414,-176.138 277.496,-162.089 269.651,-150.975"/>
<polygon fill="midnightblue" stroke="midnightblue" points="272.302,-148.66 263.675,-142.509 266.583,-152.697 272.302,-148.66"/>
</g>
<!-- Node35&#45;&gt;Node21 -->
<g id="edge48" class="edge"><title>Node35&#45;&gt;Node21</title>
<path fill="none" stroke="midnightblue" d="M296.805,-129.33C325.538,-127.42 365.52,-124.868 400.669,-123 769.259,-103.413 1211.82,-86.3868 1374.58,-80.3425"/>
<polygon fill="midnightblue" stroke="midnightblue" points="1375.03,-83.8284 1384.9,-79.9604 1374.77,-76.8332 1375.03,-83.8284"/>
</g>
<!-- Node36 -->
<g id="node36" class="node"><title>Node36</title>
<polygon fill="white" stroke="#bfbfbf" points="152.669,-67.5 152.669,-86.5 202.669,-86.5 202.669,-67.5 152.669,-67.5"/>
<text text-anchor="middle" x="177.669" y="-74.5" font-family="Helvetica,sans-Serif" font-size="10.00">iomanip</text>
</g>
<!-- Node35&#45;&gt;Node36 -->
<g id="edge46" class="edge"><title>Node35&#45;&gt;Node36</title>
<path fill="none" stroke="midnightblue" d="M244.816,-123.324C232.453,-114.979 213.539,-102.212 198.932,-92.3524"/>
<polygon fill="midnightblue" stroke="midnightblue" points="200.737,-89.3483 190.49,-86.6545 196.821,-95.1503 200.737,-89.3483"/>
</g>
<!-- Node37 -->
<g id="node37" class="node"><title>Node37</title>
<polygon fill="white" stroke="#bfbfbf" points="40.6689,-67.5 40.6689,-86.5 94.6689,-86.5 94.6689,-67.5 40.6689,-67.5"/>
<text text-anchor="middle" x="67.6689" y="-74.5" font-family="Helvetica,sans-Serif" font-size="10.00">iostream</text>
</g>
<!-- Node35&#45;&gt;Node37 -->
<g id="edge47" class="edge"><title>Node35&#45;&gt;Node37</title>
<path fill="none" stroke="midnightblue" d="M227.563,-123.444C194.325,-113.997 140.786,-98.7807 104.929,-88.5897"/>
<polygon fill="midnightblue" stroke="midnightblue" points="105.44,-85.0963 94.8636,-85.729 103.526,-91.8296 105.44,-85.0963"/>
</g>
<!-- Node38&#45;&gt;Node35 -->
<g id="edge50" class="edge"><title>Node38&#45;&gt;Node35</title>
<path fill="none" stroke="midnightblue" d="M222.543,-184.975C228.632,-176.138 238.314,-162.089 245.972,-150.975"/>
<polygon fill="midnightblue" stroke="midnightblue" points="249.013,-152.729 251.805,-142.509 243.249,-148.758 249.013,-152.729"/>
</g>
<!-- Node39&#45;&gt;Node16 -->
<g id="edge52" class="edge"><title>Node39&#45;&gt;Node16</title>
<path fill="none" stroke="midnightblue" d="M411.608,-184.975C445.636,-174.592 503.253,-157.012 541.131,-145.454"/>
<polygon fill="midnightblue" stroke="midnightblue" points="542.239,-148.775 550.782,-142.509 540.196,-142.08 542.239,-148.775"/>
</g>
<!-- Node39&#45;&gt;Node35 -->
<g id="edge53" class="edge"><title>Node39&#45;&gt;Node35</title>
<path fill="none" stroke="midnightblue" d="M365.616,-184.975C344.471,-174.99 309.229,-158.348 284.791,-146.807"/>
<polygon fill="midnightblue" stroke="midnightblue" points="286.225,-143.614 275.688,-142.509 283.236,-149.944 286.225,-143.614"/>
</g>
<!-- Node40&#45;&gt;Node25 -->
<g id="edge55" class="edge"><title>Node40&#45;&gt;Node25</title>
<path fill="none" stroke="midnightblue" d="M1348.73,-320.794C1410.29,-317.714 1547.75,-307.517 1581.67,-277 1599.23,-261.203 1603.81,-233.136 1604.78,-214.42"/>
<polygon fill="midnightblue" stroke="midnightblue" points="1608.29,-214.243 1605.01,-204.169 1601.29,-214.09 1608.29,-214.243"/>
</g>
<!-- Node41&#45;&gt;Node21 -->
<g id="edge57" class="edge"><title>Node41&#45;&gt;Node21</title>
<path fill="none" stroke="midnightblue" d="M1064.07,-314.457C1066.97,-313.919 1069.87,-313.423 1072.67,-313 1117.34,-306.254 1447.17,-310.329 1477.67,-277 1525.05,-225.226 1414.45,-233.099 1399.67,-210 1376.05,-173.089 1406.28,-121.326 1425.33,-94.9294"/>
<polygon fill="midnightblue" stroke="midnightblue" points="1428.29,-96.8147 1431.5,-86.7162 1422.7,-92.612 1428.29,-96.8147"/>
</g>
<!-- Node42&#45;&gt;Node40 -->
<g id="edge62" class="edge"><title>Node42&#45;&gt;Node40</title>
<path fill="none" stroke="midnightblue" d="M1293.85,-425.457C1294.28,-412.906 1295.74,-388.825 1300.67,-369 1302.95,-359.814 1306.71,-350.011 1310.2,-341.908"/>
<polygon fill="midnightblue" stroke="midnightblue" points="1313.42,-343.281 1314.35,-332.727 1307.04,-340.399 1313.42,-343.281"/>
</g>
<!-- Node43 -->
<g id="node43" class="node"><title>Node43</title>
<g id="a_node43"><a xlink:href="../../d0/d32/TwoBody_8hh.html" target="_top" xlink:title="TwoBody.hh">
<polygon fill="white" stroke="red" points="1310.17,-369.5 1310.17,-388.5 1381.17,-388.5 1381.17,-369.5 1310.17,-369.5"/>
<text text-anchor="middle" x="1345.67" y="-376.5" font-family="Helvetica,sans-Serif" font-size="10.00">TwoBody.hh</text>
</a>
</g>
</g>
<!-- Node42&#45;&gt;Node43 -->
<g id="edge60" class="edge"><title>Node42&#45;&gt;Node43</title>
<path fill="none" stroke="midnightblue" d="M1302.26,-425.083C1309.83,-417.22 1321.05,-405.569 1330.18,-396.081"/>
<polygon fill="midnightblue" stroke="midnightblue" points="1332.83,-398.382 1337.24,-388.751 1327.78,-393.527 1332.83,-398.382"/>
</g>
<!-- Node43&#45;&gt;Node40 -->
<g id="edge61" class="edge"><title>Node43&#45;&gt;Node40</title>
<path fill="none" stroke="midnightblue" d="M1341.21,-369.083C1337.51,-361.691 1332.15,-350.953 1327.57,-341.811"/>
<polygon fill="midnightblue" stroke="midnightblue" points="1330.65,-340.13 1323.04,-332.751 1324.39,-343.261 1330.65,-340.13"/>
</g>
<!-- Node44&#45;&gt;Node29 -->
<g id="edge68" class="edge"><title>Node44&#45;&gt;Node29</title>
<path fill="none" stroke="midnightblue" d="M427.951,-369.444C449.016,-360.557 482.186,-346.563 506.154,-336.451"/>
<polygon fill="midnightblue" stroke="midnightblue" points="507.629,-339.628 515.482,-332.516 504.908,-333.179 507.629,-339.628"/>
</g>
<!-- Node44&#45;&gt;Node41 -->
<g id="edge67" class="edge"><title>Node44&#45;&gt;Node41</title>
<path fill="none" stroke="midnightblue" d="M438.946,-376.991C524.864,-373.92 771.826,-363.076 987.488,-332.812"/>
<polygon fill="midnightblue" stroke="midnightblue" points="988.001,-336.275 997.409,-331.403 987.016,-329.344 988.001,-336.275"/>
</g>
<!-- Node45 -->
<g id="node45" class="node"><title>Node45</title>
<polygon fill="white" stroke="#bfbfbf" points="189.669,-313.5 189.669,-332.5 241.669,-332.5 241.669,-313.5 189.669,-313.5"/>
<text text-anchor="middle" x="215.669" y="-320.5" font-family="Helvetica,sans-Serif" font-size="10.00">memory</text>
</g>
<!-- Node44&#45;&gt;Node45 -->
<g id="edge64" class="edge"><title>Node44&#45;&gt;Node45</title>
<path fill="none" stroke="midnightblue" d="M377.246,-369.444C343.127,-359.848 287.841,-344.298 251.617,-334.11"/>
<polygon fill="midnightblue" stroke="midnightblue" points="252.513,-330.727 241.939,-331.388 250.618,-337.465 252.513,-330.727"/>
</g>
<!-- Node46 -->
<g id="node46" class="node"><title>Node46</title>
<polygon fill="white" stroke="#bfbfbf" points="260.169,-313.5 260.169,-332.5 347.169,-332.5 347.169,-313.5 260.169,-313.5"/>
<text text-anchor="middle" x="303.669" y="-320.5" font-family="Helvetica,sans-Serif" font-size="10.00">TMVA/Reader.h</text>
</g>
<!-- Node44&#45;&gt;Node46 -->
<g id="edge65" class="edge"><title>Node44&#45;&gt;Node46</title>
<path fill="none" stroke="midnightblue" d="M390.959,-369.324C374.357,-360.703 348.667,-347.364 329.448,-337.386"/>
<polygon fill="midnightblue" stroke="midnightblue" points="330.825,-334.156 320.337,-332.655 327.599,-340.369 330.825,-334.156"/>
</g>
<!-- Node47 -->
<g id="node47" class="node"><title>Node47</title>
<g id="a_node47"><a xlink:href="../../d5/d85/ReaderBase_8hh.html" target="_top" xlink:title="ReaderBase.hh">
<polygon fill="white" stroke="red" points="365.669,-313.5 365.669,-332.5 449.669,-332.5 449.669,-313.5 365.669,-313.5"/>
<text text-anchor="middle" x="407.669" y="-320.5" font-family="Helvetica,sans-Serif" font-size="10.00">ReaderBase.hh</text>
</a>
</g>
</g>
<!-- Node44&#45;&gt;Node47 -->
<g id="edge66" class="edge"><title>Node44&#45;&gt;Node47</title>
<path fill="none" stroke="midnightblue" d="M407.669,-369.083C407.669,-362.006 407.669,-351.861 407.669,-342.986"/>
<polygon fill="midnightblue" stroke="midnightblue" points="411.169,-342.751 407.669,-332.751 404.169,-342.751 411.169,-342.751"/>
</g>
<!-- Node48 -->
<g id="node48" class="node"><title>Node48</title>
<g id="a_node48"><a xlink:href="../../dc/d76/Options_8hh.html" target="_top" xlink:title="Options.hh">
<polygon fill="white" stroke="black" points="107.669,-313.5 107.669,-332.5 171.669,-332.5 171.669,-313.5 107.669,-313.5"/>
<text text-anchor="middle" x="139.669" y="-320.5" font-family="Helvetica,sans-Serif" font-size="10.00">Options.hh</text>
</a>
</g>
</g>
<!-- Node44&#45;&gt;Node48 -->
<g id="edge69" class="edge"><title>Node44&#45;&gt;Node48</title>
<path fill="none" stroke="midnightblue" d="M376.417,-372.014C334.492,-363.938 257.464,-348.94 182.032,-333.253"/>
<polygon fill="midnightblue" stroke="midnightblue" points="182.389,-329.752 171.885,-331.137 180.959,-336.605 182.389,-329.752"/>
</g>
<!-- Node49 -->
<g id="node49" class="node"><title>Node49</title>
<polygon fill="white" stroke="#bfbfbf" points="113.669,-185 113.669,-204 165.669,-204 165.669,-185 113.669,-185"/>
<text text-anchor="middle" x="139.669" y="-192" font-family="Helvetica,sans-Serif" font-size="10.00">sstream</text>
</g>
<!-- Node48&#45;&gt;Node49 -->
<g id="edge70" class="edge"><title>Node48&#45;&gt;Node49</title>
<path fill="none" stroke="midnightblue" d="M139.669,-313.305C139.669,-292.994 139.669,-242.053 139.669,-214.277"/>
<polygon fill="midnightblue" stroke="midnightblue" points="143.169,-214.256 139.669,-204.256 136.169,-214.256 143.169,-214.256"/>
</g>
<!-- Node50&#45;&gt;Node6 -->
<g id="edge75" class="edge"><title>Node50&#45;&gt;Node6</title>
<path fill="none" stroke="midnightblue" d="M109.362,-256.391C130.609,-253.462 159.895,-249.449 185.669,-246 316.704,-228.466 472.858,-208.243 539.239,-199.678"/>
<polygon fill="midnightblue" stroke="midnightblue" points="540,-203.108 549.47,-198.358 539.105,-196.166 540,-203.108"/>
</g>
<!-- Node50&#45;&gt;Node7 -->
<g id="edge74" class="edge"><title>Node50&#45;&gt;Node7</title>
<path fill="none" stroke="midnightblue" d="M80.1868,-251.877C81.5708,-235.809 86.5977,-200.93 104.669,-179 138.304,-138.184 159.31,-139.164 209.669,-123 320.162,-87.5353 459.402,-79.9826 520.074,-78.4019"/>
<polygon fill="midnightblue" stroke="midnightblue" points="520.211,-81.8998 530.13,-78.177 520.054,-74.9016 520.211,-81.8998"/>
</g>
<!-- Node50&#45;&gt;Node18 -->
<g id="edge79" class="edge"><title>Node50&#45;&gt;Node18</title>
<path fill="none" stroke="midnightblue" d="M63.7125,-251.916C49.697,-243.375 30.2433,-228.835 21.6689,-210 -4.72838,-152.015 -12.7154,-112.707 31.6689,-67 62.5621,-35.1864 184.262,-23.3192 260.461,-18.9611"/>
<polygon fill="midnightblue" stroke="midnightblue" points="261.101,-22.4316 270.896,-18.3947 260.721,-15.4419 261.101,-22.4316"/>
</g>
<!-- Node50&#45;&gt;Node36 -->
<g id="edge77" class="edge"><title>Node50&#45;&gt;Node36</title>
<path fill="none" stroke="midnightblue" d="M75.8993,-251.853C66.4416,-228.702 44.3503,-164.276 71.6689,-123 87.3099,-99.3679 118.129,-88.1097 142.522,-82.7678"/>
<polygon fill="midnightblue" stroke="midnightblue" points="143.373,-86.168 152.52,-80.8218 142.035,-79.2969 143.373,-86.168"/>
</g>
<!-- Node50&#45;&gt;Node37 -->
<g id="edge78" class="edge"><title>Node50&#45;&gt;Node37</title>
<path fill="none" stroke="midnightblue" d="M68.0045,-251.987C56.7759,-242.998 40.5199,-227.695 33.6689,-210 19.7081,-173.942 21.3764,-159.661 33.6689,-123 37.273,-112.251 44.5717,-102.02 51.4859,-94.0378"/>
<polygon fill="midnightblue" stroke="midnightblue" points="54.1458,-96.3168 58.381,-86.6053 49.014,-91.5561 54.1458,-96.3168"/>
</g>
<!-- Node50&#45;&gt;Node49 -->
<g id="edge76" class="edge"><title>Node50&#45;&gt;Node49</title>
<path fill="none" stroke="midnightblue" d="M87.7608,-251.734C97.207,-241.5 113.025,-224.364 124.722,-211.692"/>
<polygon fill="midnightblue" stroke="midnightblue" points="127.494,-213.849 131.705,-204.127 122.351,-209.101 127.494,-213.849"/>
</g>
</g>
</svg>
