<?xml version="1.0" encoding="UTF-8" standalone="no"?>
<!DOCTYPE svg PUBLIC "-//W3C//DTD SVG 1.1//EN"
 "http://www.w3.org/Graphics/SVG/1.1/DTD/svg11.dtd">
<!-- Generated by graphviz version 2.38.0 (20140413.2041)
 -->
<!-- Title: HeavyHiggs/source/MainCharged.cpp Pages: 1 -->
<svg width="1697pt" height="610pt"
 viewBox="0.00 0.00 1696.50 610.00" xmlns="http://www.w3.org/2000/svg" xmlns:xlink="http://www.w3.org/1999/xlink">
<g id="graph0" class="graph" transform="scale(1 1) rotate(0) translate(4 606)">
<title>HeavyHiggs/source/MainCharged.cpp</title>
<polygon fill="white" stroke="none" points="-4,4 -4,-606 1692.5,-606 1692.5,4 -4,4"/>
<!-- Node1 -->
<g id="node1" class="node"><title>Node1</title>
<polygon fill="#bfbfbf" stroke="black" points="954,-582.5 954,-601.5 1136,-601.5 1136,-582.5 954,-582.5"/>
<text text-anchor="middle" x="1045" y="-589.5" font-family="Helvetica,sans-Serif" font-size="10.00">HeavyHiggs/source/MainCharged.cpp</text>
</g>
<!-- Node2 -->
<g id="node2" class="node"><title>Node2</title>
<g id="a_node2"><a xlink:href="../../d1/da2/AnalysisCharged_8hh.html" target="_top" xlink:title="AnalysisCharged.hh">
<polygon fill="white" stroke="black" points="789,-470.5 789,-489.5 893,-489.5 893,-470.5 789,-470.5"/>
<text text-anchor="middle" x="841" y="-477.5" font-family="Helvetica,sans-Serif" font-size="10.00">AnalysisCharged.hh</text>
</a>
</g>
</g>
<!-- Node1&#45;&gt;Node2 -->
<g id="edge1" class="edge"><title>Node1&#45;&gt;Node2</title>
<path fill="none" stroke="midnightblue" d="M1028.99,-582.368C993.539,-563.251 908.188,-517.229 865.779,-494.361"/>
<polygon fill="midnightblue" stroke="midnightblue" points="867.396,-491.257 856.933,-489.591 864.074,-497.418 867.396,-491.257"/>
</g>
<!-- Node36 -->
<g id="node36" class="node"><title>Node36</title>
<g id="a_node36"><a xlink:href="../../da/df5/EventChargedTagger_8hh.html" target="_top" xlink:title="EventChargedTagger.hh">
<polygon fill="white" stroke="black" points="1082,-526.5 1082,-545.5 1204,-545.5 1204,-526.5 1082,-526.5"/>
<text text-anchor="middle" x="1143" y="-533.5" font-family="Helvetica,sans-Serif" font-size="10.00">EventChargedTagger.hh</text>
</a>
</g>
</g>
<!-- Node1&#45;&gt;Node36 -->
<g id="edge47" class="edge"><title>Node1&#45;&gt;Node36</title>
<path fill="none" stroke="midnightblue" d="M1060.75,-582.324C1076.32,-573.743 1100.38,-560.486 1118.46,-550.522"/>
<polygon fill="midnightblue" stroke="midnightblue" points="1120.22,-553.546 1127.29,-545.655 1116.85,-547.415 1120.22,-553.546"/>
</g>
<!-- Node3 -->
<g id="node3" class="node"><title>Node3</title>
<g id="a_node3"><a xlink:href="../../d7/d26/AnalysisHeavyHiggs_8hh.html" target="_top" xlink:title="AnalysisHeavyHiggs.hh">
<polygon fill="white" stroke="black" points="780,-414.5 780,-433.5 902,-433.5 902,-414.5 780,-414.5"/>
<text text-anchor="middle" x="841" y="-421.5" font-family="Helvetica,sans-Serif" font-size="10.00">AnalysisHeavyHiggs.hh</text>
</a>
</g>
</g>
<!-- Node2&#45;&gt;Node3 -->
<g id="edge2" class="edge"><title>Node2&#45;&gt;Node3</title>
<path fill="none" stroke="midnightblue" d="M841,-470.083C841,-463.006 841,-452.861 841,-443.986"/>
<polygon fill="midnightblue" stroke="midnightblue" points="844.5,-443.751 841,-433.751 837.5,-443.751 844.5,-443.751"/>
</g>
<!-- Node34 -->
<g id="node34" class="node"><title>Node34</title>
<g id="a_node34"><a xlink:href="../../db/d31/Sort_8hh.html" target="_top" xlink:title="Sort.hh">
<polygon fill="white" stroke="black" points="799,-358.5 799,-377.5 847,-377.5 847,-358.5 799,-358.5"/>
<text text-anchor="middle" x="823" y="-365.5" font-family="Helvetica,sans-Serif" font-size="10.00">Sort.hh</text>
</a>
</g>
</g>
<!-- Node2&#45;&gt;Node34 -->
<g id="edge40" class="edge"><title>Node2&#45;&gt;Node34</title>
<path fill="none" stroke="midnightblue" d="M816.531,-470.438C800.433,-463.378 780.623,-451.626 771,-434 760.526,-414.815 780.58,-395.61 798.745,-383.106"/>
<polygon fill="midnightblue" stroke="midnightblue" points="800.868,-385.902 807.369,-377.535 797.07,-380.022 800.868,-385.902"/>
</g>
<!-- Node4 -->
<g id="node4" class="node"><title>Node4</title>
<g id="a_node4"><a xlink:href="../../d0/d02/Analysis_8hh.html" target="_top" xlink:title="Analysis.hh">
<polygon fill="white" stroke="black" points="274,-358.5 274,-377.5 342,-377.5 342,-358.5 274,-358.5"/>
<text text-anchor="middle" x="308" y="-365.5" font-family="Helvetica,sans-Serif" font-size="10.00">Analysis.hh</text>
</a>
</g>
</g>
<!-- Node3&#45;&gt;Node4 -->
<g id="edge3" class="edge"><title>Node3&#45;&gt;Node4</title>
<path fill="none" stroke="midnightblue" d="M779.858,-416.806C671.271,-405.804 447.269,-383.11 352.21,-373.479"/>
<polygon fill="midnightblue" stroke="midnightblue" points="352.378,-369.978 342.076,-372.452 351.672,-376.943 352.378,-369.978"/>
</g>
<!-- Node15 -->
<g id="node15" class="node"><title>Node15</title>
<g id="a_node15"><a xlink:href="../../d3/d7e/Vector_8hh.html" target="_top" xlink:title="Vector.hh">
<polygon fill="white" stroke="black" points="1341.5,-358.5 1341.5,-377.5 1400.5,-377.5 1400.5,-358.5 1341.5,-358.5"/>
<text text-anchor="middle" x="1371" y="-365.5" font-family="Helvetica,sans-Serif" font-size="10.00">Vector.hh</text>
</a>
</g>
</g>
<!-- Node3&#45;&gt;Node15 -->
<g id="edge15" class="edge"><title>Node3&#45;&gt;Node15</title>
<path fill="none" stroke="midnightblue" d="M902.065,-414.993C905.085,-414.646 908.076,-414.313 911,-414 1094.45,-394.373 1144.73,-406.734 1331.14,-377.904"/>
<polygon fill="midnightblue" stroke="midnightblue" points="1331.94,-381.321 1341.27,-376.316 1330.85,-374.405 1331.94,-381.321"/>
</g>
<!-- Node5 -->
<g id="node5" class="node"><title>Node5</title>
<polygon fill="white" stroke="#bfbfbf" points="497.5,-297 497.5,-316 548.5,-316 548.5,-297 497.5,-297"/>
<text text-anchor="middle" x="523" y="-304" font-family="Helvetica,sans-Serif" font-size="10.00">typeinfo</text>
</g>
<!-- Node4&#45;&gt;Node5 -->
<g id="edge4" class="edge"><title>Node4&#45;&gt;Node5</title>
<path fill="none" stroke="midnightblue" d="M342.266,-360.015C378.801,-352.203 438.142,-338.46 488,-322 489.921,-321.366 491.885,-320.675 493.854,-319.95"/>
<polygon fill="midnightblue" stroke="midnightblue" points="495.534,-323.051 503.57,-316.147 492.983,-316.533 495.534,-323.051"/>
</g>
<!-- Node6 -->
<g id="node6" class="node"><title>Node6</title>
<polygon fill="white" stroke="#bfbfbf" points="224,-297 224,-316 268,-316 268,-297 224,-297"/>
<text text-anchor="middle" x="246" y="-304" font-family="Helvetica,sans-Serif" font-size="10.00">mutex</text>
</g>
<!-- Node4&#45;&gt;Node6 -->
<g id="edge5" class="edge"><title>Node4&#45;&gt;Node6</title>
<path fill="none" stroke="midnightblue" d="M299.117,-358.475C289.541,-349.285 274.089,-334.456 262.314,-323.156"/>
<polygon fill="midnightblue" stroke="midnightblue" points="264.505,-320.408 254.867,-316.009 259.658,-325.458 264.505,-320.408"/>
</g>
<!-- Node7 -->
<g id="node7" class="node"><title>Node7</title>
<polygon fill="white" stroke="#bfbfbf" points="286,-297 286,-316 330,-316 330,-297 286,-297"/>
<text text-anchor="middle" x="308" y="-304" font-family="Helvetica,sans-Serif" font-size="10.00">thread</text>
</g>
<!-- Node4&#45;&gt;Node7 -->
<g id="edge6" class="edge"><title>Node4&#45;&gt;Node7</title>
<path fill="none" stroke="midnightblue" d="M308,-358.475C308,-350.08 308,-336.981 308,-326.163"/>
<polygon fill="midnightblue" stroke="midnightblue" points="311.5,-326.009 308,-316.009 304.5,-326.009 311.5,-326.009"/>
</g>
<!-- Node8 -->
<g id="node8" class="node"><title>Node8</title>
<g id="a_node8"><a xlink:href="../../d3/d96/ExRootAnalysis_8hh.html" target="_top" xlink:title="exroot/ExRootAnalysis.hh">
<polygon fill="white" stroke="red" points="348.5,-297 348.5,-316 479.5,-316 479.5,-297 348.5,-297"/>
<text text-anchor="middle" x="414" y="-304" font-family="Helvetica,sans-Serif" font-size="10.00">exroot/ExRootAnalysis.hh</text>
</a>
</g>
</g>
<!-- Node4&#45;&gt;Node8 -->
<g id="edge7" class="edge"><title>Node4&#45;&gt;Node8</title>
<path fill="none" stroke="midnightblue" d="M323.187,-358.475C340.662,-348.666 369.579,-332.435 390.083,-320.925"/>
<polygon fill="midnightblue" stroke="midnightblue" points="391.834,-323.956 398.841,-316.009 388.408,-317.852 391.834,-323.956"/>
</g>
<!-- Node9 -->
<g id="node9" class="node"><title>Node9</title>
<g id="a_node9"><a xlink:href="../../de/d83/File_8hh.html" target="_top" xlink:title="File.hh">
<polygon fill="white" stroke="red" points="59,-235.5 59,-254.5 105,-254.5 105,-235.5 59,-235.5"/>
<text text-anchor="middle" x="82" y="-242.5" font-family="Helvetica,sans-Serif" font-size="10.00">File.hh</text>
</a>
</g>
</g>
<!-- Node4&#45;&gt;Node9 -->
<g id="edge8" class="edge"><title>Node4&#45;&gt;Node9</title>
<path fill="none" stroke="midnightblue" d="M273.709,-364.769C237.027,-360.925 178.528,-350.462 137,-322 115.437,-307.222 99.2935,-281.101 90.2492,-263.669"/>
<polygon fill="midnightblue" stroke="midnightblue" points="93.3194,-261.981 85.7573,-254.56 87.0414,-265.077 93.3194,-261.981"/>
</g>
<!-- Node10 -->
<g id="node10" class="node"><title>Node10</title>
<g id="a_node10"><a xlink:href="../../df/d2c/Reader_8hh.html" target="_top" xlink:title="Reader.hh">
<polygon fill="white" stroke="red" points="567,-297 567,-316 629,-316 629,-297 567,-297"/>
<text text-anchor="middle" x="598" y="-304" font-family="Helvetica,sans-Serif" font-size="10.00">Reader.hh</text>
</a>
</g>
</g>
<!-- Node4&#45;&gt;Node10 -->
<g id="edge9" class="edge"><title>Node4&#45;&gt;Node10</title>
<path fill="none" stroke="midnightblue" d="M342.212,-362.598C390.563,-355.976 481.421,-342.054 557,-322 559.969,-321.212 563.03,-320.308 566.079,-319.346"/>
<polygon fill="midnightblue" stroke="midnightblue" points="567.278,-322.635 575.648,-316.138 565.054,-315.998 567.278,-322.635"/>
</g>
<!-- Node11 -->
<g id="node11" class="node"><title>Node11</title>
<g id="a_node11"><a xlink:href="../../d1/dcf/AnalysisBase_8hh.html" target="_top" xlink:title="AnalysisBase.hh">
<polygon fill="white" stroke="red" points="0,-297 0,-316 90,-316 90,-297 0,-297"/>
<text text-anchor="middle" x="45" y="-304" font-family="Helvetica,sans-Serif" font-size="10.00">AnalysisBase.hh</text>
</a>
</g>
</g>
<!-- Node4&#45;&gt;Node11 -->
<g id="edge10" class="edge"><title>Node4&#45;&gt;Node11</title>
<path fill="none" stroke="midnightblue" d="M273.653,-359.685C233.064,-350.981 163.516,-335.876 104,-322 99.2426,-320.891 94.2756,-319.708 89.3305,-318.516"/>
<polygon fill="midnightblue" stroke="midnightblue" points="89.8288,-315.035 79.2849,-316.073 88.1746,-321.837 89.8288,-315.035"/>
</g>
<!-- Node12 -->
<g id="node12" class="node"><title>Node12</title>
<g id="a_node12"><a xlink:href="../../d8/de8/Debug_8hh.html" target="_top" xlink:title="Debug.hh">
<polygon fill="white" stroke="red" points="146.5,-297 146.5,-316 205.5,-316 205.5,-297 146.5,-297"/>
<text text-anchor="middle" x="176" y="-304" font-family="Helvetica,sans-Serif" font-size="10.00">Debug.hh</text>
</a>
</g>
</g>
<!-- Node4&#45;&gt;Node12 -->
<g id="edge12" class="edge"><title>Node4&#45;&gt;Node12</title>
<path fill="none" stroke="midnightblue" d="M289.088,-358.475C266.837,-348.445 229.688,-331.7 204.074,-320.155"/>
<polygon fill="midnightblue" stroke="midnightblue" points="205.432,-316.928 194.877,-316.009 202.556,-323.309 205.432,-316.928"/>
</g>
<!-- Node11&#45;&gt;Node9 -->
<g id="edge11" class="edge"><title>Node11&#45;&gt;Node9</title>
<path fill="none" stroke="midnightblue" d="M50.3012,-296.975C55.7413,-288.227 64.3587,-274.369 71.2362,-263.309"/>
<polygon fill="midnightblue" stroke="midnightblue" points="74.4001,-264.849 76.7086,-254.509 68.4557,-261.153 74.4001,-264.849"/>
</g>
<!-- Node13 -->
<g id="node13" class="node"><title>Node13</title>
<polygon fill="white" stroke="#bfbfbf" points="764.5,-62 764.5,-81 805.5,-81 805.5,-62 764.5,-62"/>
<text text-anchor="middle" x="785" y="-69" font-family="Helvetica,sans-Serif" font-size="10.00">string</text>
</g>
<!-- Node12&#45;&gt;Node13 -->
<g id="edge13" class="edge"><title>Node12&#45;&gt;Node13</title>
<path fill="none" stroke="midnightblue" d="M198.397,-296.931C291.53,-261.299 648.26,-124.816 754.79,-84.0582"/>
<polygon fill="midnightblue" stroke="midnightblue" points="756.212,-87.2617 764.301,-80.4194 753.71,-80.7239 756.212,-87.2617"/>
</g>
<!-- Node14 -->
<g id="node14" class="node"><title>Node14</title>
<polygon fill="white" stroke="#bfbfbf" points="614,-235.5 614,-254.5 658,-254.5 658,-235.5 614,-235.5"/>
<text text-anchor="middle" x="636" y="-242.5" font-family="Helvetica,sans-Serif" font-size="10.00">vector</text>
</g>
<!-- Node12&#45;&gt;Node14 -->
<g id="edge14" class="edge"><title>Node12&#45;&gt;Node14</title>
<path fill="none" stroke="midnightblue" d="M195.946,-296.996C201.973,-294.724 208.672,-292.49 215,-291 357.239,-257.513 532.439,-248.898 603.637,-246.72"/>
<polygon fill="midnightblue" stroke="midnightblue" points="603.864,-250.215 613.761,-246.433 603.665,-243.218 603.864,-250.215"/>
</g>
<!-- Node16 -->
<g id="node16" class="node"><title>Node16</title>
<polygon fill="white" stroke="#bfbfbf" points="1331,-291.5 1331,-321.5 1441,-321.5 1441,-291.5 1331,-291.5"/>
<text text-anchor="start" x="1339" y="-309.5" font-family="Helvetica,sans-Serif" font-size="10.00">boost/range/algorithm</text>
<text text-anchor="middle" x="1386" y="-298.5" font-family="Helvetica,sans-Serif" font-size="10.00">_ext/erase.hpp</text>
</g>
<!-- Node15&#45;&gt;Node16 -->
<g id="edge16" class="edge"><title>Node15&#45;&gt;Node16</title>
<path fill="none" stroke="midnightblue" d="M1373.15,-358.475C1374.93,-351.396 1377.56,-340.97 1379.98,-331.39"/>
<polygon fill="midnightblue" stroke="midnightblue" points="1383.41,-332.075 1382.46,-321.523 1376.63,-330.364 1383.41,-332.075"/>
</g>
<!-- Node17 -->
<g id="node17" class="node"><title>Node17</title>
<polygon fill="white" stroke="#bfbfbf" points="1078,-56.5 1078,-86.5 1188,-86.5 1188,-56.5 1078,-56.5"/>
<text text-anchor="start" x="1086" y="-74.5" font-family="Helvetica,sans-Serif" font-size="10.00">boost/range/algorithm</text>
<text text-anchor="middle" x="1133" y="-63.5" font-family="Helvetica,sans-Serif" font-size="10.00">/min_element.hpp</text>
</g>
<!-- Node15&#45;&gt;Node17 -->
<g id="edge17" class="edge"><title>Node15&#45;&gt;Node17</title>
<path fill="none" stroke="midnightblue" d="M1400.8,-362.234C1441.88,-355.078 1512.89,-340.415 1531,-322 1555.49,-297.095 1551,-280.928 1551,-246 1551,-246 1551,-246 1551,-188 1551,-115.739 1315.98,-86.9057 1198.39,-77.0016"/>
<polygon fill="midnightblue" stroke="midnightblue" points="1198.33,-73.4847 1188.08,-76.1559 1197.76,-80.4613 1198.33,-73.4847"/>
</g>
<!-- Node18 -->
<g id="node18" class="node"><title>Node18</title>
<polygon fill="white" stroke="#bfbfbf" points="1075,-291.5 1075,-321.5 1185,-321.5 1185,-291.5 1075,-291.5"/>
<text text-anchor="start" x="1083" y="-309.5" font-family="Helvetica,sans-Serif" font-size="10.00">boost/range/algorithm</text>
<text text-anchor="middle" x="1130" y="-298.5" font-family="Helvetica,sans-Serif" font-size="10.00">/find.hpp</text>
</g>
<!-- Node15&#45;&gt;Node18 -->
<g id="edge18" class="edge"><title>Node15&#45;&gt;Node18</title>
<path fill="none" stroke="midnightblue" d="M1341.45,-359.704C1305.19,-350.752 1242.66,-335.315 1194.98,-323.543"/>
<polygon fill="midnightblue" stroke="midnightblue" points="1195.59,-320.089 1185.04,-321.09 1193.91,-326.885 1195.59,-320.089"/>
</g>
<!-- Node19 -->
<g id="node19" class="node"><title>Node19</title>
<g id="a_node19"><a xlink:href="../../db/da5/Particles_8hh.html" target="_top" xlink:title="physics/Particles.hh">
<polygon fill="white" stroke="black" points="889.5,-297 889.5,-316 994.5,-316 994.5,-297 889.5,-297"/>
<text text-anchor="middle" x="942" y="-304" font-family="Helvetica,sans-Serif" font-size="10.00">physics/Particles.hh</text>
</a>
</g>
</g>
<!-- Node15&#45;&gt;Node19 -->
<g id="edge19" class="edge"><title>Node15&#45;&gt;Node19</title>
<path fill="none" stroke="midnightblue" d="M1341.26,-359.758C1338.14,-359.113 1335.01,-358.511 1332,-358 1187.41,-333.47 1148.55,-346.743 1004,-322 997.851,-320.947 991.399,-319.654 985.078,-318.278"/>
<polygon fill="midnightblue" stroke="midnightblue" points="985.84,-314.861 975.314,-316.068 984.295,-321.689 985.84,-314.861"/>
</g>
<!-- Node21 -->
<g id="node21" class="node"><title>Node21</title>
<g id="a_node21"><a xlink:href="../../dd/df5/Particle_8hh.html" target="_top" xlink:title="Particle.hh">
<polygon fill="white" stroke="red" points="1459.5,-297 1459.5,-316 1522.5,-316 1522.5,-297 1459.5,-297"/>
<text text-anchor="middle" x="1491" y="-304" font-family="Helvetica,sans-Serif" font-size="10.00">Particle.hh</text>
</a>
</g>
</g>
<!-- Node15&#45;&gt;Node21 -->
<g id="edge22" class="edge"><title>Node15&#45;&gt;Node21</title>
<path fill="none" stroke="midnightblue" d="M1388.19,-358.475C1408.24,-348.534 1441.6,-331.995 1464.86,-320.461"/>
<polygon fill="midnightblue" stroke="midnightblue" points="1466.43,-323.587 1473.84,-316.009 1463.32,-317.316 1466.43,-323.587"/>
</g>
<!-- Node32 -->
<g id="node32" class="node"><title>Node32</title>
<g id="a_node32"><a xlink:href="../../dd/df7/Jet_8hh.html" target="_top" xlink:title="Jet.hh">
<polygon fill="white" stroke="black" points="1013,-297 1013,-316 1057,-316 1057,-297 1013,-297"/>
<text text-anchor="middle" x="1035" y="-304" font-family="Helvetica,sans-Serif" font-size="10.00">Jet.hh</text>
</a>
</g>
</g>
<!-- Node15&#45;&gt;Node32 -->
<g id="edge36" class="edge"><title>Node15&#45;&gt;Node32</title>
<path fill="none" stroke="midnightblue" d="M1341.25,-359.836C1338.13,-359.176 1335.01,-358.549 1332,-358 1214.64,-336.564 1180.45,-355.658 1066,-322 1064.12,-321.447 1062.21,-320.795 1060.31,-320.08"/>
<polygon fill="midnightblue" stroke="midnightblue" points="1061.62,-316.836 1051.05,-316.132 1058.87,-323.274 1061.62,-316.836"/>
</g>
<!-- Node33 -->
<g id="node33" class="node"><title>Node33</title>
<g id="a_node33"><a xlink:href="../../db/d66/DetectorGeometry_8hh.html" target="_top" xlink:title="DetectorGeometry.hh">
<polygon fill="white" stroke="red" points="1203,-297 1203,-316 1313,-316 1313,-297 1203,-297"/>
<text text-anchor="middle" x="1258" y="-304" font-family="Helvetica,sans-Serif" font-size="10.00">DetectorGeometry.hh</text>
</a>
</g>
</g>
<!-- Node15&#45;&gt;Node33 -->
<g id="edge39" class="edge"><title>Node15&#45;&gt;Node33</title>
<path fill="none" stroke="midnightblue" d="M1354.81,-358.475C1336.1,-348.622 1305.08,-332.288 1283.2,-320.77"/>
<polygon fill="midnightblue" stroke="midnightblue" points="1284.64,-317.571 1274.16,-316.009 1281.38,-323.765 1284.64,-317.571"/>
</g>
<!-- Node19&#45;&gt;Node13 -->
<g id="edge20" class="edge"><title>Node19&#45;&gt;Node13</title>
<path fill="none" stroke="midnightblue" d="M936.226,-296.931C913.246,-262.827 828.016,-136.34 796.668,-89.8163"/>
<polygon fill="midnightblue" stroke="midnightblue" points="799.485,-87.733 790.994,-81.3958 793.68,-91.6446 799.485,-87.733"/>
</g>
<!-- Node20 -->
<g id="node20" class="node"><title>Node20</title>
<g id="a_node20"><a xlink:href="../../d5/d40/ElectronVolt_8hh.html" target="_top" xlink:title="ElectronVolt.hh">
<polygon fill="white" stroke="red" points="927.5,-235.5 927.5,-254.5 1010.5,-254.5 1010.5,-235.5 927.5,-235.5"/>
<text text-anchor="middle" x="969" y="-242.5" font-family="Helvetica,sans-Serif" font-size="10.00">ElectronVolt.hh</text>
</a>
</g>
</g>
<!-- Node19&#45;&gt;Node20 -->
<g id="edge21" class="edge"><title>Node19&#45;&gt;Node20</title>
<path fill="none" stroke="midnightblue" d="M945.868,-296.975C949.798,-288.315 956,-274.649 960.993,-263.645"/>
<polygon fill="midnightblue" stroke="midnightblue" points="964.194,-265.062 965.139,-254.509 957.819,-262.169 964.194,-265.062"/>
</g>
<!-- Node22 -->
<g id="node22" class="node"><title>Node22</title>
<g id="a_node22"><a xlink:href="../../d8/d42/PseudoJet_8hh.html" target="_top" xlink:title="PseudoJet.hh">
<polygon fill="white" stroke="red" points="1117.5,-235.5 1117.5,-254.5 1194.5,-254.5 1194.5,-235.5 1117.5,-235.5"/>
<text text-anchor="middle" x="1156" y="-242.5" font-family="Helvetica,sans-Serif" font-size="10.00">PseudoJet.hh</text>
</a>
</g>
</g>
<!-- Node21&#45;&gt;Node22 -->
<g id="edge23" class="edge"><title>Node21&#45;&gt;Node22</title>
<path fill="none" stroke="midnightblue" d="M1469.1,-296.901C1462.99,-294.736 1456.3,-292.581 1450,-291 1364.96,-269.655 1263.38,-256.828 1204.62,-250.61"/>
<polygon fill="midnightblue" stroke="midnightblue" points="1204.82,-247.112 1194.51,-249.561 1204.1,-254.075 1204.82,-247.112"/>
</g>
<!-- Node23 -->
<g id="node23" class="node"><title>Node23</title>
<polygon fill="white" stroke="#bfbfbf" points="1160.5,-123.5 1160.5,-142.5 1267.5,-142.5 1267.5,-123.5 1160.5,-123.5"/>
<text text-anchor="middle" x="1214" y="-130.5" font-family="Helvetica,sans-Serif" font-size="10.00">fastjet/PseudoJet.hh</text>
</g>
<!-- Node22&#45;&gt;Node23 -->
<g id="edge24" class="edge"><title>Node22&#45;&gt;Node23</title>
<path fill="none" stroke="midnightblue" d="M1160.55,-235.368C1170.04,-217.376 1192.09,-175.55 1204.71,-151.627"/>
<polygon fill="midnightblue" stroke="midnightblue" points="1207.9,-153.07 1209.47,-142.591 1201.71,-149.805 1207.9,-153.07"/>
</g>
<!-- Node24 -->
<g id="node24" class="node"><title>Node24</title>
<g id="a_node24"><a xlink:href="../../d1/dce/JetInfo_8hh.html" target="_top" xlink:title="JetInfo.hh">
<polygon fill="white" stroke="black" points="1039,-179.5 1039,-198.5 1099,-198.5 1099,-179.5 1039,-179.5"/>
<text text-anchor="middle" x="1069" y="-186.5" font-family="Helvetica,sans-Serif" font-size="10.00">JetInfo.hh</text>
</a>
</g>
</g>
<!-- Node22&#45;&gt;Node24 -->
<g id="edge25" class="edge"><title>Node22&#45;&gt;Node24</title>
<path fill="none" stroke="midnightblue" d="M1142.02,-235.324C1128.45,-226.9 1107.62,-213.971 1091.68,-204.074"/>
<polygon fill="midnightblue" stroke="midnightblue" points="1093.29,-200.954 1082.94,-198.655 1089.59,-206.902 1093.29,-200.954"/>
</g>
<!-- Node24&#45;&gt;Node23 -->
<g id="edge26" class="edge"><title>Node24&#45;&gt;Node23</title>
<path fill="none" stroke="midnightblue" d="M1091.98,-179.444C1116.16,-170.438 1154.42,-156.189 1181.65,-146.049"/>
<polygon fill="midnightblue" stroke="midnightblue" points="1182.98,-149.286 1191.13,-142.516 1180.54,-142.727 1182.98,-149.286"/>
</g>
<!-- Node25 -->
<g id="node25" class="node"><title>Node25</title>
<g id="a_node25"><a xlink:href="../../d8/d85/Identification_8hh.html" target="_top" xlink:title="Identification.hh">
<polygon fill="white" stroke="black" points="851,-123.5 851,-142.5 937,-142.5 937,-123.5 851,-123.5"/>
<text text-anchor="middle" x="894" y="-130.5" font-family="Helvetica,sans-Serif" font-size="10.00">Identification.hh</text>
</a>
</g>
</g>
<!-- Node24&#45;&gt;Node25 -->
<g id="edge27" class="edge"><title>Node24&#45;&gt;Node25</title>
<path fill="none" stroke="midnightblue" d="M1041.27,-179.444C1011.57,-170.28 964.284,-155.688 931.331,-145.519"/>
<polygon fill="midnightblue" stroke="midnightblue" points="932.187,-142.121 921.6,-142.516 930.123,-148.809 932.187,-142.121"/>
</g>
<!-- Node26 -->
<g id="node26" class="node"><title>Node26</title>
<g id="a_node26"><a xlink:href="../../d3/d32/Constituent_8hh.html" target="_top" xlink:title="Constituent.hh">
<polygon fill="white" stroke="black" points="955,-123.5 955,-142.5 1035,-142.5 1035,-123.5 955,-123.5"/>
<text text-anchor="middle" x="995" y="-130.5" font-family="Helvetica,sans-Serif" font-size="10.00">Constituent.hh</text>
</a>
</g>
</g>
<!-- Node24&#45;&gt;Node26 -->
<g id="edge29" class="edge"><title>Node24&#45;&gt;Node26</title>
<path fill="none" stroke="midnightblue" d="M1057.11,-179.324C1045.85,-171.107 1028.71,-158.602 1015.29,-148.807"/>
<polygon fill="midnightblue" stroke="midnightblue" points="1017.25,-145.901 1007.11,-142.834 1013.12,-151.556 1017.25,-145.901"/>
</g>
<!-- Node31 -->
<g id="node31" class="node"><title>Node31</title>
<g id="a_node31"><a xlink:href="../../d7/d7f/Math_8hh.html" target="_top" xlink:title="physics/Math.hh">
<polygon fill="white" stroke="red" points="1053.5,-123.5 1053.5,-142.5 1142.5,-142.5 1142.5,-123.5 1053.5,-123.5"/>
<text text-anchor="middle" x="1098" y="-130.5" font-family="Helvetica,sans-Serif" font-size="10.00">physics/Math.hh</text>
</a>
</g>
</g>
<!-- Node24&#45;&gt;Node31 -->
<g id="edge34" class="edge"><title>Node24&#45;&gt;Node31</title>
<path fill="none" stroke="midnightblue" d="M1073.79,-179.083C1077.76,-171.691 1083.53,-160.953 1088.43,-151.811"/>
<polygon fill="midnightblue" stroke="midnightblue" points="1091.65,-153.217 1093.3,-142.751 1085.49,-149.905 1091.65,-153.217"/>
</g>
<!-- Node25&#45;&gt;Node13 -->
<g id="edge28" class="edge"><title>Node25&#45;&gt;Node13</title>
<path fill="none" stroke="midnightblue" d="M878.383,-123.475C860.414,-113.666 830.679,-97.4346 809.594,-85.925"/>
<polygon fill="midnightblue" stroke="midnightblue" points="811.042,-82.7284 800.588,-81.0091 807.689,-88.8726 811.042,-82.7284"/>
</g>
<!-- Node27 -->
<g id="node27" class="node"><title>Node27</title>
<g id="a_node27"><a xlink:href="../../d6/dc8/LorentzVector_8hh.html" target="_top" xlink:title="physics/LorentzVector.hh">
<polygon fill="white" stroke="black" points="896,-62 896,-81 1024,-81 1024,-62 896,-62"/>
<text text-anchor="middle" x="960" y="-69" font-family="Helvetica,sans-Serif" font-size="10.00">physics/LorentzVector.hh</text>
</a>
</g>
</g>
<!-- Node26&#45;&gt;Node27 -->
<g id="edge30" class="edge"><title>Node26&#45;&gt;Node27</title>
<path fill="none" stroke="midnightblue" d="M989.985,-123.475C984.839,-114.727 976.688,-100.869 970.182,-89.8093"/>
<polygon fill="midnightblue" stroke="midnightblue" points="973.092,-87.8539 965.005,-81.0091 967.059,-91.403 973.092,-87.8539"/>
</g>
<!-- Node28 -->
<g id="node28" class="node"><title>Node28</title>
<g id="a_node28"><a xlink:href="../../d7/d06/DelphesForward_8hh.html" target="_top" xlink:title="delphes/DelphesForward.hh">
<polygon fill="white" stroke="black" points="721,-0.5 721,-19.5 859,-19.5 859,-0.5 721,-0.5"/>
<text text-anchor="middle" x="790" y="-7.5" font-family="Helvetica,sans-Serif" font-size="10.00">delphes/DelphesForward.hh</text>
</a>
</g>
</g>
<!-- Node27&#45;&gt;Node28 -->
<g id="edge31" class="edge"><title>Node27&#45;&gt;Node28</title>
<path fill="none" stroke="midnightblue" d="M935.643,-61.9751C906.356,-51.7246 857.026,-34.4593 823.998,-22.8994"/>
<polygon fill="midnightblue" stroke="midnightblue" points="824.907,-19.5091 814.312,-19.5091 822.594,-26.1162 824.907,-19.5091"/>
</g>
<!-- Node29 -->
<g id="node29" class="node"><title>Node29</title>
<g id="a_node29"><a xlink:href="../../d6/d1c/ExRootAnalysisForward_8hh.html" target="_top" xlink:title="exroot/ExRootAnalysisForward.hh">
<polygon fill="white" stroke="black" points="877,-0.5 877,-19.5 1043,-19.5 1043,-0.5 877,-0.5"/>
<text text-anchor="middle" x="960" y="-7.5" font-family="Helvetica,sans-Serif" font-size="10.00">exroot/ExRootAnalysisForward.hh</text>
</a>
</g>
</g>
<!-- Node27&#45;&gt;Node29 -->
<g id="edge32" class="edge"><title>Node27&#45;&gt;Node29</title>
<path fill="none" stroke="midnightblue" d="M960,-61.9751C960,-53.5803 960,-40.4806 960,-29.6631"/>
<polygon fill="midnightblue" stroke="midnightblue" points="963.5,-29.5091 960,-19.5091 956.5,-29.5091 963.5,-29.5091"/>
</g>
<!-- Node30 -->
<g id="node30" class="node"><title>Node30</title>
<g id="a_node30"><a xlink:href="../../df/d17/LorentzVectorBase_8hh.html" target="_top" xlink:title="LorentzVectorBase.hh">
<polygon fill="white" stroke="red" points="1061.5,-0.5 1061.5,-19.5 1174.5,-19.5 1174.5,-0.5 1061.5,-0.5"/>
<text text-anchor="middle" x="1118" y="-7.5" font-family="Helvetica,sans-Serif" font-size="10.00">LorentzVectorBase.hh</text>
</a>
</g>
</g>
<!-- Node27&#45;&gt;Node30 -->
<g id="edge33" class="edge"><title>Node27&#45;&gt;Node30</title>
<path fill="none" stroke="midnightblue" d="M982.638,-61.9751C1009.74,-51.7687 1055.31,-34.608 1086,-23.0492"/>
<polygon fill="midnightblue" stroke="midnightblue" points="1087.28,-26.3088 1095.4,-19.5091 1084.81,-19.7579 1087.28,-26.3088"/>
</g>
<!-- Node31&#45;&gt;Node17 -->
<g id="edge35" class="edge"><title>Node31&#45;&gt;Node17</title>
<path fill="none" stroke="midnightblue" d="M1103.01,-123.475C1107.36,-116.094 1113.84,-105.077 1119.66,-95.1714"/>
<polygon fill="midnightblue" stroke="midnightblue" points="1122.7,-96.9169 1124.75,-86.523 1116.66,-93.3677 1122.7,-96.9169"/>
</g>
<!-- Node32&#45;&gt;Node22 -->
<g id="edge37" class="edge"><title>Node32&#45;&gt;Node22</title>
<path fill="none" stroke="midnightblue" d="M1052.34,-296.975C1072.55,-287.034 1106.19,-270.495 1129.64,-258.961"/>
<polygon fill="midnightblue" stroke="midnightblue" points="1131.27,-262.063 1138.7,-254.509 1128.18,-255.781 1131.27,-262.063"/>
</g>
<!-- Node32&#45;&gt;Node24 -->
<g id="edge38" class="edge"><title>Node32&#45;&gt;Node24</title>
<path fill="none" stroke="midnightblue" d="M1037.56,-296.819C1043.04,-278.173 1056.06,-233.943 1063.52,-208.632"/>
<polygon fill="midnightblue" stroke="midnightblue" points="1066.95,-209.363 1066.41,-198.782 1060.23,-207.387 1066.95,-209.363"/>
</g>
<!-- Node34&#45;&gt;Node14 -->
<g id="edge41" class="edge"><title>Node34&#45;&gt;Node14</title>
<path fill="none" stroke="midnightblue" d="M818.764,-358.38C810.653,-342.734 791.449,-309.566 766,-291 736.573,-269.532 696.067,-257.672 668.128,-251.591"/>
<polygon fill="midnightblue" stroke="midnightblue" points="668.584,-248.112 658.085,-249.535 667.18,-254.969 668.584,-248.112"/>
</g>
<!-- Node34&#45;&gt;Node19 -->
<g id="edge45" class="edge"><title>Node34&#45;&gt;Node19</title>
<path fill="none" stroke="midnightblue" d="M840.05,-358.475C859.844,-348.578 892.717,-332.142 915.77,-320.615"/>
<polygon fill="midnightblue" stroke="midnightblue" points="917.603,-323.612 924.982,-316.009 914.472,-317.351 917.603,-323.612"/>
</g>
<!-- Node34&#45;&gt;Node24 -->
<g id="edge46" class="edge"><title>Node34&#45;&gt;Node24</title>
<path fill="none" stroke="midnightblue" d="M826.72,-358.409C837.339,-334.906 870.145,-269.042 918,-235 951.087,-211.464 996.57,-200.092 1028.95,-194.692"/>
<polygon fill="midnightblue" stroke="midnightblue" points="1029.62,-198.129 1038.97,-193.14 1028.55,-191.212 1029.62,-198.129"/>
</g>
<!-- Node34&#45;&gt;Node27 -->
<g id="edge44" class="edge"><title>Node34&#45;&gt;Node27</title>
<path fill="none" stroke="midnightblue" d="M823,-358.491C823,-338.736 823,-288.224 823,-246 823,-246 823,-246 823,-188 823,-157.902 822.032,-145.52 842,-123 859.075,-103.743 884.762,-91.5823 907.814,-84.0352"/>
<polygon fill="midnightblue" stroke="midnightblue" points="908.959,-87.3453 917.5,-81.0759 906.914,-80.6508 908.959,-87.3453"/>
</g>
<!-- Node34&#45;&gt;Node32 -->
<g id="edge43" class="edge"><title>Node34&#45;&gt;Node32</title>
<path fill="none" stroke="midnightblue" d="M847.279,-362.384C882.242,-355.411 948.55,-340.968 1003,-322 1004.66,-321.421 1006.36,-320.787 1008.06,-320.12"/>
<polygon fill="midnightblue" stroke="midnightblue" points="1009.79,-323.187 1017.63,-316.059 1007.05,-316.743 1009.79,-323.187"/>
</g>
<!-- Node35 -->
<g id="node35" class="node"><title>Node35</title>
<polygon fill="white" stroke="#bfbfbf" points="647,-291.5 647,-321.5 757,-321.5 757,-291.5 647,-291.5"/>
<text text-anchor="start" x="655" y="-309.5" font-family="Helvetica,sans-Serif" font-size="10.00">boost/range/algorithm</text>
<text text-anchor="middle" x="702" y="-298.5" font-family="Helvetica,sans-Serif" font-size="10.00">/sort.hpp</text>
</g>
<!-- Node34&#45;&gt;Node35 -->
<g id="edge42" class="edge"><title>Node34&#45;&gt;Node35</title>
<path fill="none" stroke="midnightblue" d="M805.664,-358.475C788.51,-350.04 761.697,-336.855 739.638,-326.008"/>
<polygon fill="midnightblue" stroke="midnightblue" points="741.036,-322.795 730.517,-321.523 737.947,-329.077 741.036,-322.795"/>
</g>
<!-- Node37 -->
<g id="node37" class="node"><title>Node37</title>
<g id="a_node37"><a xlink:href="../../dd/dbc/MultipletEvent_8hh.html" target="_top" xlink:title="MultipletEvent.hh">
<polygon fill="white" stroke="black" points="1453,-470.5 1453,-489.5 1545,-489.5 1545,-470.5 1453,-470.5"/>
<text text-anchor="middle" x="1499" y="-477.5" font-family="Helvetica,sans-Serif" font-size="10.00">MultipletEvent.hh</text>
</a>
</g>
</g>
<!-- Node36&#45;&gt;Node37 -->
<g id="edge48" class="edge"><title>Node36&#45;&gt;Node37</title>
<path fill="none" stroke="midnightblue" d="M1199.41,-526.444C1266.08,-516.331 1376.34,-499.606 1442.88,-489.513"/>
<polygon fill="midnightblue" stroke="midnightblue" points="1443.41,-492.972 1452.77,-488.012 1442.36,-486.052 1443.41,-492.972"/>
</g>
<!-- Node42 -->
<g id="node42" class="node"><title>Node42</title>
<g id="a_node42"><a xlink:href="../../dd/d61/SignatureChargedTagger_8hh.html" target="_top" xlink:title="SignatureChargedTagger.hh">
<polygon fill="white" stroke="black" points="1074,-470.5 1074,-489.5 1212,-489.5 1212,-470.5 1074,-470.5"/>
<text text-anchor="middle" x="1143" y="-477.5" font-family="Helvetica,sans-Serif" font-size="10.00">SignatureChargedTagger.hh</text>
</a>
</g>
</g>
<!-- Node36&#45;&gt;Node42 -->
<g id="edge57" class="edge"><title>Node36&#45;&gt;Node42</title>
<path fill="none" stroke="midnightblue" d="M1143,-526.083C1143,-519.006 1143,-508.861 1143,-499.986"/>
<polygon fill="midnightblue" stroke="midnightblue" points="1146.5,-499.751 1143,-489.751 1139.5,-499.751 1146.5,-499.751"/>
</g>
<!-- Node38 -->
<g id="node38" class="node"><title>Node38</title>
<g id="a_node38"><a xlink:href="../../dd/d58/GlobalObservables_8hh.html" target="_top" xlink:title="GlobalObservables.hh">
<polygon fill="white" stroke="black" points="1575.5,-414.5 1575.5,-433.5 1688.5,-433.5 1688.5,-414.5 1575.5,-414.5"/>
<text text-anchor="middle" x="1632" y="-421.5" font-family="Helvetica,sans-Serif" font-size="10.00">GlobalObservables.hh</text>
</a>
</g>
</g>
<!-- Node37&#45;&gt;Node38 -->
<g id="edge49" class="edge"><title>Node37&#45;&gt;Node38</title>
<path fill="none" stroke="midnightblue" d="M1520.07,-470.444C1542.06,-461.517 1576.73,-447.439 1601.66,-437.317"/>
<polygon fill="midnightblue" stroke="midnightblue" points="1603.08,-440.521 1611.02,-433.516 1600.44,-434.035 1603.08,-440.521"/>
</g>
<!-- Node40 -->
<g id="node40" class="node"><title>Node40</title>
<g id="a_node40"><a xlink:href="../../d0/d32/TwoBody_8hh.html" target="_top" xlink:title="multiplets/TwoBody.hh">
<polygon fill="white" stroke="black" points="1441,-414.5 1441,-433.5 1557,-433.5 1557,-414.5 1441,-414.5"/>
<text text-anchor="middle" x="1499" y="-421.5" font-family="Helvetica,sans-Serif" font-size="10.00">multiplets/TwoBody.hh</text>
</a>
</g>
</g>
<!-- Node37&#45;&gt;Node40 -->
<g id="edge52" class="edge"><title>Node37&#45;&gt;Node40</title>
<path fill="none" stroke="midnightblue" d="M1499,-470.083C1499,-463.006 1499,-452.861 1499,-443.986"/>
<polygon fill="midnightblue" stroke="midnightblue" points="1502.5,-443.751 1499,-433.751 1495.5,-443.751 1502.5,-443.751"/>
</g>
<!-- Node39 -->
<g id="node39" class="node"><title>Node39</title>
<g id="a_node39"><a xlink:href="../../db/d60/Singlet_8hh.html" target="_top" xlink:title="multiplets/Singlet.hh">
<polygon fill="white" stroke="red" points="1579.5,-297 1579.5,-316 1684.5,-316 1684.5,-297 1579.5,-297"/>
<text text-anchor="middle" x="1632" y="-304" font-family="Helvetica,sans-Serif" font-size="10.00">multiplets/Singlet.hh</text>
</a>
</g>
</g>
<!-- Node38&#45;&gt;Node39 -->
<g id="edge50" class="edge"><title>Node38&#45;&gt;Node39</title>
<path fill="none" stroke="midnightblue" d="M1632,-414.319C1632,-395.757 1632,-351.839 1632,-326.473"/>
<polygon fill="midnightblue" stroke="midnightblue" points="1635.5,-326.282 1632,-316.282 1628.5,-326.282 1635.5,-326.282"/>
</g>
<!-- Node39&#45;&gt;Node24 -->
<g id="edge51" class="edge"><title>Node39&#45;&gt;Node24</title>
<path fill="none" stroke="midnightblue" d="M1590.14,-296.913C1485.31,-275.407 1212.51,-219.442 1109.33,-198.274"/>
<polygon fill="midnightblue" stroke="midnightblue" points="1109.81,-194.8 1099.31,-196.219 1108.41,-201.657 1109.81,-194.8"/>
</g>
<!-- Node40&#45;&gt;Node15 -->
<g id="edge56" class="edge"><title>Node40&#45;&gt;Node15</title>
<path fill="none" stroke="midnightblue" d="M1478.72,-414.444C1457.65,-405.557 1424.48,-391.563 1400.51,-381.451"/>
<polygon fill="midnightblue" stroke="midnightblue" points="1401.76,-378.179 1391.19,-377.516 1399.04,-384.628 1401.76,-378.179"/>
</g>
<!-- Node40&#45;&gt;Node39 -->
<g id="edge53" class="edge"><title>Node40&#45;&gt;Node39</title>
<path fill="none" stroke="midnightblue" d="M1514.85,-414.462C1529.61,-406.14 1551.86,-392.63 1569,-378 1588.21,-361.611 1607.08,-339.466 1619.08,-324.398"/>
<polygon fill="midnightblue" stroke="midnightblue" points="1621.9,-326.473 1625.3,-316.441 1616.39,-322.16 1621.9,-326.473"/>
</g>
<!-- Node41 -->
<g id="node41" class="node"><title>Node41</title>
<g id="a_node41"><a xlink:href="../../d0/d7f/Multiplet_8hh.html" target="_top" xlink:title="multiplets/Multiplet.hh">
<polygon fill="white" stroke="red" points="1448,-358.5 1448,-377.5 1560,-377.5 1560,-358.5 1448,-358.5"/>
<text text-anchor="middle" x="1504" y="-365.5" font-family="Helvetica,sans-Serif" font-size="10.00">multiplets/Multiplet.hh</text>
</a>
</g>
</g>
<!-- Node40&#45;&gt;Node41 -->
<g id="edge54" class="edge"><title>Node40&#45;&gt;Node41</title>
<path fill="none" stroke="midnightblue" d="M1499.83,-414.083C1500.48,-407.006 1501.42,-396.861 1502.24,-387.986"/>
<polygon fill="midnightblue" stroke="midnightblue" points="1505.75,-388.031 1503.19,-377.751 1498.78,-387.386 1505.75,-388.031"/>
</g>
<!-- Node41&#45;&gt;Node39 -->
<g id="edge55" class="edge"><title>Node41&#45;&gt;Node39</title>
<path fill="none" stroke="midnightblue" d="M1522.34,-358.475C1543.82,-348.49 1579.62,-331.848 1604.45,-320.307"/>
<polygon fill="midnightblue" stroke="midnightblue" points="1606.1,-323.398 1613.69,-316.009 1603.15,-317.051 1606.1,-323.398"/>
</g>
<!-- Node43 -->
<g id="node43" class="node"><title>Node43</title>
<g id="a_node43"><a xlink:href="../../df/d6f/ChargedHiggsSemiTagger_8hh.html" target="_top" xlink:title="ChargedHiggsSemiTagger.hh">
<polygon fill="white" stroke="black" points="920.5,-414.5 920.5,-433.5 1065.5,-433.5 1065.5,-414.5 920.5,-414.5"/>
<text text-anchor="middle" x="993" y="-421.5" font-family="Helvetica,sans-Serif" font-size="10.00">ChargedHiggsSemiTagger.hh</text>
</a>
</g>
</g>
<!-- Node42&#45;&gt;Node43 -->
<g id="edge58" class="edge"><title>Node42&#45;&gt;Node43</title>
<path fill="none" stroke="midnightblue" d="M1119.23,-470.444C1094.11,-461.399 1054.29,-447.064 1026.1,-436.916"/>
<polygon fill="midnightblue" stroke="midnightblue" points="1027.25,-433.611 1016.66,-433.516 1024.88,-440.197 1027.25,-433.611"/>
</g>
<!-- Node47 -->
<g id="node47" class="node"><title>Node47</title>
<g id="a_node47"><a xlink:href="../../dc/d18/TripletJetPairTagger_8hh.html" target="_top" xlink:title="TripletJetPairTagger.hh">
<polygon fill="white" stroke="black" points="1084,-414.5 1084,-433.5 1202,-433.5 1202,-414.5 1084,-414.5"/>
<text text-anchor="middle" x="1143" y="-421.5" font-family="Helvetica,sans-Serif" font-size="10.00">TripletJetPairTagger.hh</text>
</a>
</g>
</g>
<!-- Node42&#45;&gt;Node47 -->
<g id="edge63" class="edge"><title>Node42&#45;&gt;Node47</title>
<path fill="none" stroke="midnightblue" d="M1143,-470.083C1143,-463.006 1143,-452.861 1143,-443.986"/>
<polygon fill="midnightblue" stroke="midnightblue" points="1146.5,-443.751 1143,-433.751 1139.5,-443.751 1146.5,-443.751"/>
</g>
<!-- Node49 -->
<g id="node49" class="node"><title>Node49</title>
<g id="a_node49"><a xlink:href="../../d8/dfe/Octet_8hh.html" target="_top" xlink:title="multiplets/Octet.hh">
<polygon fill="white" stroke="red" points="1220.5,-414.5 1220.5,-433.5 1319.5,-433.5 1319.5,-414.5 1220.5,-414.5"/>
<text text-anchor="middle" x="1270" y="-421.5" font-family="Helvetica,sans-Serif" font-size="10.00">multiplets/Octet.hh</text>
</a>
</g>
</g>
<!-- Node42&#45;&gt;Node49 -->
<g id="edge66" class="edge"><title>Node42&#45;&gt;Node49</title>
<path fill="none" stroke="midnightblue" d="M1163.12,-470.444C1184.02,-461.557 1216.93,-447.563 1240.72,-437.451"/>
<polygon fill="midnightblue" stroke="midnightblue" points="1242.14,-440.65 1249.97,-433.516 1239.4,-434.208 1242.14,-440.65"/>
</g>
<!-- Node44 -->
<g id="node44" class="node"><title>Node44</title>
<g id="a_node44"><a xlink:href="../../d5/d88/TopLeptonicTagger_8hh.html" target="_top" xlink:title="TopLeptonicTagger.hh">
<polygon fill="white" stroke="red" points="604.5,-358.5 604.5,-377.5 717.5,-377.5 717.5,-358.5 604.5,-358.5"/>
<text text-anchor="middle" x="661" y="-365.5" font-family="Helvetica,sans-Serif" font-size="10.00">TopLeptonicTagger.hh</text>
</a>
</g>
</g>
<!-- Node43&#45;&gt;Node44 -->
<g id="edge59" class="edge"><title>Node43&#45;&gt;Node44</title>
<path fill="none" stroke="midnightblue" d="M940.394,-414.444C881.506,-404.865 786.149,-389.356 723.506,-379.167"/>
<polygon fill="midnightblue" stroke="midnightblue" points="723.792,-375.667 713.36,-377.516 722.669,-382.577 723.792,-375.667"/>
</g>
<!-- Node45 -->
<g id="node45" class="node"><title>Node45</title>
<g id="a_node45"><a xlink:href="../../d5/d38/Quartet_8hh.html" target="_top" xlink:title="multiplets/Quartet.hh">
<polygon fill="white" stroke="red" points="959.5,-358.5 959.5,-377.5 1066.5,-377.5 1066.5,-358.5 959.5,-358.5"/>
<text text-anchor="middle" x="1013" y="-365.5" font-family="Helvetica,sans-Serif" font-size="10.00">multiplets/Quartet.hh</text>
</a>
</g>
</g>
<!-- Node43&#45;&gt;Node45 -->
<g id="edge61" class="edge"><title>Node43&#45;&gt;Node45</title>
<path fill="none" stroke="midnightblue" d="M996.303,-414.083C998.982,-406.849 1002.85,-396.409 1006.19,-387.397"/>
<polygon fill="midnightblue" stroke="midnightblue" points="1009.57,-388.344 1009.76,-377.751 1003,-385.913 1009.57,-388.344"/>
</g>
<!-- Node46 -->
<g id="node46" class="node"><title>Node46</title>
<g id="a_node46"><a xlink:href="../../d8/d6f/Branch_8hh.html" target="_top" xlink:title="Branch.hh">
<polygon fill="white" stroke="red" points="880.5,-358.5 880.5,-377.5 941.5,-377.5 941.5,-358.5 880.5,-358.5"/>
<text text-anchor="middle" x="911" y="-365.5" font-family="Helvetica,sans-Serif" font-size="10.00">Branch.hh</text>
</a>
</g>
</g>
<!-- Node43&#45;&gt;Node46 -->
<g id="edge62" class="edge"><title>Node43&#45;&gt;Node46</title>
<path fill="none" stroke="midnightblue" d="M979.825,-414.324C967.153,-405.979 947.767,-393.212 932.794,-383.352"/>
<polygon fill="midnightblue" stroke="midnightblue" points="934.419,-380.231 924.142,-377.655 930.569,-386.078 934.419,-380.231"/>
</g>
<!-- Node44&#45;&gt;Node10 -->
<g id="edge60" class="edge"><title>Node44&#45;&gt;Node10</title>
<path fill="none" stroke="midnightblue" d="M651.974,-358.475C642.243,-349.285 626.542,-334.456 614.577,-323.156"/>
<polygon fill="midnightblue" stroke="midnightblue" points="616.683,-320.331 607.01,-316.009 611.877,-325.42 616.683,-320.331"/>
</g>
<!-- Node47&#45;&gt;Node45 -->
<g id="edge65" class="edge"><title>Node47&#45;&gt;Node45</title>
<path fill="none" stroke="midnightblue" d="M1122.4,-414.444C1101.01,-405.557 1067.32,-391.563 1042.98,-381.451"/>
<polygon fill="midnightblue" stroke="midnightblue" points="1044.08,-378.12 1033.5,-377.516 1041.39,-384.585 1044.08,-378.12"/>
</g>
<!-- Node48 -->
<g id="node48" class="node"><title>Node48</title>
<g id="a_node48"><a xlink:href="../../d4/d5c/TopHadronicTagger_8hh.html" target="_top" xlink:title="TopHadronicTagger.hh">
<polygon fill="white" stroke="red" points="1085,-358.5 1085,-377.5 1201,-377.5 1201,-358.5 1085,-358.5"/>
<text text-anchor="middle" x="1143" y="-365.5" font-family="Helvetica,sans-Serif" font-size="10.00">TopHadronicTagger.hh</text>
</a>
</g>
</g>
<!-- Node47&#45;&gt;Node48 -->
<g id="edge64" class="edge"><title>Node47&#45;&gt;Node48</title>
<path fill="none" stroke="midnightblue" d="M1143,-414.083C1143,-407.006 1143,-396.861 1143,-387.986"/>
<polygon fill="midnightblue" stroke="midnightblue" points="1146.5,-387.751 1143,-377.751 1139.5,-387.751 1146.5,-387.751"/>
</g>
<!-- Node49&#45;&gt;Node45 -->
<g id="edge68" class="edge"><title>Node49&#45;&gt;Node45</title>
<path fill="none" stroke="midnightblue" d="M1229.28,-414.444C1184.35,-405.004 1112,-389.802 1063.5,-379.611"/>
<polygon fill="midnightblue" stroke="midnightblue" points="1064.04,-376.148 1053.53,-377.516 1062.6,-382.998 1064.04,-376.148"/>
</g>
<!-- Node50 -->
<g id="node50" class="node"><title>Node50</title>
<g id="a_node50"><a xlink:href="../../d2/d98/Sextet_8hh.html" target="_top" xlink:title="multiplets/Sextet.hh">
<polygon fill="white" stroke="red" points="1219,-358.5 1219,-377.5 1323,-377.5 1323,-358.5 1219,-358.5"/>
<text text-anchor="middle" x="1271" y="-365.5" font-family="Helvetica,sans-Serif" font-size="10.00">multiplets/Sextet.hh</text>
</a>
</g>
</g>
<!-- Node49&#45;&gt;Node50 -->
<g id="edge67" class="edge"><title>Node49&#45;&gt;Node50</title>
<path fill="none" stroke="midnightblue" d="M1270.17,-414.083C1270.3,-407.006 1270.48,-396.861 1270.65,-387.986"/>
<polygon fill="midnightblue" stroke="midnightblue" points="1274.15,-387.814 1270.84,-377.751 1267.15,-387.685 1274.15,-387.814"/>
</g>
</g>
</svg>
