<?xml version="1.0" encoding="UTF-8" standalone="no"?>
<!DOCTYPE svg PUBLIC "-//W3C//DTD SVG 1.1//EN"
 "http://www.w3.org/Graphics/SVG/1.1/DTD/svg11.dtd">
<!-- Generated by graphviz version 2.38.0 (20140413.2041)
 -->
<!-- Title: include/Constituent.hh Pages: 1 -->
<svg width="2716pt" height="453pt"
 viewBox="0.00 0.00 2715.63 453.00" xmlns="http://www.w3.org/2000/svg" xmlns:xlink="http://www.w3.org/1999/xlink">
<g id="graph0" class="graph" transform="scale(1 1) rotate(0) translate(4 449)">
<title>include/Constituent.hh</title>
<polygon fill="white" stroke="none" points="-4,4 -4,-449 2711.63,-449 2711.63,4 -4,4"/>
<!-- Node1 -->
<g id="node1" class="node"><title>Node1</title>
<polygon fill="#bfbfbf" stroke="black" points="2373.13,-425.5 2373.13,-444.5 2487.13,-444.5 2487.13,-425.5 2373.13,-425.5"/>
<text text-anchor="middle" x="2430.13" y="-432.5" font-family="Helvetica,sans-Serif" font-size="10.00">include/Constituent.hh</text>
</g>
<!-- Node2 -->
<g id="node2" class="node"><title>Node2</title>
<g id="a_node2"><a xlink:href="../../d1/dce/JetInfo_8hh.html" target="_top" xlink:title="include/JetInfo.hh">
<polygon fill="white" stroke="black" points="1140.13,-369.5 1140.13,-388.5 1234.13,-388.5 1234.13,-369.5 1140.13,-369.5"/>
<text text-anchor="middle" x="1187.13" y="-376.5" font-family="Helvetica,sans-Serif" font-size="10.00">include/JetInfo.hh</text>
</a>
</g>
</g>
<!-- Node1&#45;&gt;Node2 -->
<g id="edge1" class="edge"><title>Node1&#45;&gt;Node2</title>
<path fill="none" stroke="midnightblue" d="M2362.82,-431.076C2139.33,-421.367 1425.36,-390.349 1234.45,-382.056"/>
<polygon fill="midnightblue" stroke="midnightblue" points="2362.94,-434.584 2373.09,-431.522 2363.25,-427.591 2362.94,-434.584"/>
</g>
<!-- Node45 -->
<g id="node45" class="node"><title>Node45</title>
<g id="a_node45"><a xlink:href="../../df/d30/delphes_2Hadrons_8hh.html" target="_top" xlink:title="include/delphes/Hadrons.hh">
<polygon fill="white" stroke="black" points="2287.63,-369.5 2287.63,-388.5 2424.63,-388.5 2424.63,-369.5 2287.63,-369.5"/>
<text text-anchor="middle" x="2356.13" y="-376.5" font-family="Helvetica,sans-Serif" font-size="10.00">include/delphes/Hadrons.hh</text>
</a>
</g>
</g>
<!-- Node1&#45;&gt;Node45 -->
<g id="edge60" class="edge"><title>Node1&#45;&gt;Node45</title>
<path fill="none" stroke="midnightblue" d="M2410.1,-419.38C2396.73,-409.62 2379.58,-397.106 2368.24,-388.834"/>
<polygon fill="midnightblue" stroke="midnightblue" points="2408.1,-422.257 2418.25,-425.324 2412.23,-416.602 2408.1,-422.257"/>
</g>
<!-- Node47 -->
<g id="node47" class="node"><title>Node47</title>
<g id="a_node47"><a xlink:href="../../d7/d6c/JetInfoFamily_8hh.html" target="_top" xlink:title="include/JetInfoFamily.hh">
<polygon fill="white" stroke="black" points="2442.63,-369.5 2442.63,-388.5 2565.63,-388.5 2565.63,-369.5 2442.63,-369.5"/>
<text text-anchor="middle" x="2504.13" y="-376.5" font-family="Helvetica,sans-Serif" font-size="10.00">include/JetInfoFamily.hh</text>
</a>
</g>
</g>
<!-- Node1&#45;&gt;Node47 -->
<g id="edge63" class="edge"><title>Node1&#45;&gt;Node47</title>
<path fill="none" stroke="midnightblue" d="M2450.17,-419.38C2463.54,-409.62 2480.69,-397.106 2492.03,-388.834"/>
<polygon fill="midnightblue" stroke="midnightblue" points="2448.04,-416.602 2442.02,-425.324 2452.17,-422.257 2448.04,-416.602"/>
</g>
<!-- Node50 -->
<g id="node50" class="node"><title>Node50</title>
<g id="a_node50"><a xlink:href="../../da/db5/Constituent_8cpp.html" target="_top" xlink:title="source/Constituent.cpp">
<polygon fill="white" stroke="black" points="2584.13,-369.5 2584.13,-388.5 2702.13,-388.5 2702.13,-369.5 2584.13,-369.5"/>
<text text-anchor="middle" x="2643.13" y="-376.5" font-family="Helvetica,sans-Serif" font-size="10.00">source/Constituent.cpp</text>
</a>
</g>
</g>
<!-- Node1&#45;&gt;Node50 -->
<g id="edge66" class="edge"><title>Node1&#45;&gt;Node50</title>
<path fill="none" stroke="midnightblue" d="M2473.69,-422.959C2513.92,-412.76 2572.84,-397.822 2609.54,-388.516"/>
<polygon fill="midnightblue" stroke="midnightblue" points="2472.72,-419.593 2463.89,-425.444 2474.44,-426.379 2472.72,-419.593"/>
</g>
<!-- Node3 -->
<g id="node3" class="node"><title>Node3</title>
<g id="a_node3"><a xlink:href="../../dc/d70/AnalysisHiggsCpv_8hh.html" target="_top" xlink:title="HiggsCpv/include/Analysis\lHiggsCpv.hh">
<polygon fill="white" stroke="black" points="1549.13,-302.5 1549.13,-332.5 1683.13,-332.5 1683.13,-302.5 1549.13,-302.5"/>
<text text-anchor="start" x="1557.13" y="-320.5" font-family="Helvetica,sans-Serif" font-size="10.00">HiggsCpv/include/Analysis</text>
<text text-anchor="middle" x="1616.13" y="-309.5" font-family="Helvetica,sans-Serif" font-size="10.00">HiggsCpv.hh</text>
</a>
</g>
</g>
<!-- Node2&#45;&gt;Node3 -->
<g id="edge2" class="edge"><title>Node2&#45;&gt;Node3</title>
<path fill="none" stroke="midnightblue" d="M1244.74,-371.763C1314.75,-363.927 1436.4,-349.492 1540.13,-333 1543.05,-332.536 1546.03,-332.045 1549.04,-331.534"/>
<polygon fill="midnightblue" stroke="midnightblue" points="1243.92,-368.332 1234.37,-372.917 1244.7,-375.289 1243.92,-368.332"/>
</g>
<!-- Node5 -->
<g id="node5" class="node"><title>Node5</title>
<g id="a_node5"><a xlink:href="../../db/d60/Singlet_8hh.html" target="_top" xlink:title="include/Singlet.hh">
<polygon fill="white" stroke="black" points="1701.13,-308 1701.13,-327 1795.13,-327 1795.13,-308 1701.13,-308"/>
<text text-anchor="middle" x="1748.13" y="-315" font-family="Helvetica,sans-Serif" font-size="10.00">include/Singlet.hh</text>
</a>
</g>
</g>
<!-- Node2&#45;&gt;Node5 -->
<g id="edge4" class="edge"><title>Node2&#45;&gt;Node5</title>
<path fill="none" stroke="midnightblue" d="M1244.63,-375.954C1338.77,-371.918 1531.41,-360.775 1692.13,-333 1700.94,-331.478 1710.39,-329.262 1718.98,-327.018"/>
<polygon fill="midnightblue" stroke="midnightblue" points="1244.31,-372.465 1234.47,-376.379 1244.6,-379.459 1244.31,-372.465"/>
</g>
<!-- Node9 -->
<g id="node9" class="node"><title>Node9</title>
<g id="a_node9"><a xlink:href="../../d7/d4a/HiggsTagger_8cpp.html" target="_top" xlink:title="source/HiggsTagger.cpp">
<polygon fill="white" stroke="black" points="1758.63,-0.5 1758.63,-19.5 1881.63,-19.5 1881.63,-0.5 1758.63,-0.5"/>
<text text-anchor="middle" x="1820.13" y="-7.5" font-family="Helvetica,sans-Serif" font-size="10.00">source/HiggsTagger.cpp</text>
</a>
</g>
</g>
<!-- Node2&#45;&gt;Node9 -->
<g id="edge52" class="edge"><title>Node2&#45;&gt;Node9</title>
<path fill="none" stroke="midnightblue" d="M1244.18,-376.856C1450.82,-371.966 2148.13,-348.675 2148.13,-257 2148.13,-257 2148.13,-257 2148.13,-132 2148.13,-97.1827 2154.96,-79.3536 2129.13,-56 2093.8,-24.0466 1961.35,-14.7575 1881.78,-12.0738"/>
<polygon fill="midnightblue" stroke="midnightblue" points="1244.05,-373.358 1234.14,-377.088 1244.21,-380.356 1244.05,-373.358"/>
</g>
<!-- Node26 -->
<g id="node26" class="node"><title>Node26</title>
<g id="a_node26"><a xlink:href="../../d4/d4f/Multiplet_8cpp.html" target="_top" xlink:title="source/Multiplet.cpp">
<polygon fill="white" stroke="black" points="1827.13,-185 1827.13,-204 1931.13,-204 1931.13,-185 1827.13,-185"/>
<text text-anchor="middle" x="1879.13" y="-192" font-family="Helvetica,sans-Serif" font-size="10.00">source/Multiplet.cpp</text>
</a>
</g>
</g>
<!-- Node2&#45;&gt;Node26 -->
<g id="edge55" class="edge"><title>Node2&#45;&gt;Node26</title>
<path fill="none" stroke="midnightblue" d="M1244.67,-378.384C1354.5,-378.111 1601.18,-372.647 1804.13,-333 1899.04,-314.461 1954.25,-344.199 2011.13,-266 2035.59,-232.384 1977.91,-213.249 1931.22,-203.625"/>
<polygon fill="midnightblue" stroke="midnightblue" points="1244.47,-374.884 1234.47,-378.395 1244.48,-381.884 1244.47,-374.884"/>
</g>
<!-- Node29 -->
<g id="node29" class="node"><title>Node29</title>
<g id="a_node29"><a xlink:href="../../db/d31/Sort_8hh.html" target="_top" xlink:title="include/Sort.hh">
<polygon fill="white" stroke="black" points="738.135,-246.5 738.135,-265.5 820.135,-265.5 820.135,-246.5 738.135,-246.5"/>
<text text-anchor="middle" x="779.135" y="-253.5" font-family="Helvetica,sans-Serif" font-size="10.00">include/Sort.hh</text>
</a>
</g>
</g>
<!-- Node2&#45;&gt;Node29 -->
<g id="edge39" class="edge"><title>Node2&#45;&gt;Node29</title>
<path fill="none" stroke="midnightblue" d="M1129.9,-377.996C899.007,-377.701 46.4507,-373.844 7.13486,-333 -2.42007,-323.074 -2.31979,-312.022 7.13486,-302 32.4128,-275.206 581.896,-261.277 738.071,-257.849"/>
<polygon fill="midnightblue" stroke="midnightblue" points="1130.1,-381.496 1140.11,-378.007 1130.11,-374.496 1130.1,-381.496"/>
</g>
<!-- Node33 -->
<g id="node33" class="node"><title>Node33</title>
<g id="a_node33"><a xlink:href="../../d7/db9/delphes_2Hadrons_8cpp.html" target="_top" xlink:title="source/delphes/Hadrons.cpp">
<polygon fill="white" stroke="black" points="2176.63,-308 2176.63,-327 2317.63,-327 2317.63,-308 2176.63,-308"/>
<text text-anchor="middle" x="2247.13" y="-315" font-family="Helvetica,sans-Serif" font-size="10.00">source/delphes/Hadrons.cpp</text>
</a>
</g>
</g>
<!-- Node2&#45;&gt;Node33 -->
<g id="edge46" class="edge"><title>Node2&#45;&gt;Node33</title>
<path fill="none" stroke="midnightblue" d="M1244.62,-377.807C1395.51,-376.77 1815.2,-370.455 2162.13,-333 2175.53,-331.554 2190.01,-329.332 2203.16,-327.06"/>
<polygon fill="midnightblue" stroke="midnightblue" points="1244.2,-374.31 1234.22,-377.873 1244.24,-381.31 1244.2,-374.31"/>
</g>
<!-- Node34 -->
<g id="node34" class="node"><title>Node34</title>
<g id="a_node34"><a xlink:href="../../dd/d98/delphes_2Leptons_8cpp.html" target="_top" xlink:title="source/delphes/Leptons.cpp">
<polygon fill="white" stroke="black" points="16.6349,-308 16.6349,-327 155.635,-327 155.635,-308 16.6349,-308"/>
<text text-anchor="middle" x="86.1349" y="-315" font-family="Helvetica,sans-Serif" font-size="10.00">source/delphes/Leptons.cpp</text>
</a>
</g>
</g>
<!-- Node2&#45;&gt;Node34 -->
<g id="edge47" class="edge"><title>Node2&#45;&gt;Node34</title>
<path fill="none" stroke="midnightblue" d="M1129.83,-378.232C974.205,-378.267 530.858,-374.416 165.135,-333 152.526,-331.572 138.899,-329.327 126.571,-327.027"/>
<polygon fill="midnightblue" stroke="midnightblue" points="1130.1,-381.732 1140.1,-378.224 1130.09,-374.732 1130.1,-381.732"/>
</g>
<!-- Node35 -->
<g id="node35" class="node"><title>Node35</title>
<g id="a_node35"><a xlink:href="../../d1/da0/delphes_2Partons_8cpp.html" target="_top" xlink:title="source/delphes/Partons.cpp">
<polygon fill="white" stroke="black" points="174.135,-308 174.135,-327 312.135,-327 312.135,-308 174.135,-308"/>
<text text-anchor="middle" x="243.135" y="-315" font-family="Helvetica,sans-Serif" font-size="10.00">source/delphes/Partons.cpp</text>
</a>
</g>
</g>
<!-- Node2&#45;&gt;Node35 -->
<g id="edge48" class="edge"><title>Node2&#45;&gt;Node35</title>
<path fill="none" stroke="midnightblue" d="M1130.01,-377.631C991.059,-376.17 624.515,-368.922 321.135,-333 308.825,-331.542 295.529,-329.318 283.463,-327.045"/>
<polygon fill="midnightblue" stroke="midnightblue" points="1129.98,-381.131 1140.01,-377.731 1130.05,-374.132 1129.98,-381.131"/>
</g>
<!-- Node36 -->
<g id="node36" class="node"><title>Node36</title>
<g id="a_node36"><a xlink:href="../../d2/deb/exroot_2Hadrons_8cpp.html" target="_top" xlink:title="source/exroot/Hadrons.cpp">
<polygon fill="white" stroke="black" points="330.135,-308 330.135,-327 464.135,-327 464.135,-308 330.135,-308"/>
<text text-anchor="middle" x="397.135" y="-315" font-family="Helvetica,sans-Serif" font-size="10.00">source/exroot/Hadrons.cpp</text>
</a>
</g>
</g>
<!-- Node2&#45;&gt;Node36 -->
<g id="edge49" class="edge"><title>Node2&#45;&gt;Node36</title>
<path fill="none" stroke="midnightblue" d="M1129.54,-376.821C1007.87,-373.792 715.896,-363.685 473.135,-333 461.274,-331.501 448.475,-329.292 436.823,-327.047"/>
<polygon fill="midnightblue" stroke="midnightblue" points="1129.66,-380.325 1139.74,-377.068 1129.83,-373.327 1129.66,-380.325"/>
</g>
<!-- Node37 -->
<g id="node37" class="node"><title>Node37</title>
<g id="a_node37"><a xlink:href="../../d9/dbe/exroot_2Leptons_8cpp.html" target="_top" xlink:title="source/exroot/Leptons.cpp">
<polygon fill="white" stroke="black" points="482.135,-308 482.135,-327 614.135,-327 614.135,-308 482.135,-308"/>
<text text-anchor="middle" x="548.135" y="-315" font-family="Helvetica,sans-Serif" font-size="10.00">source/exroot/Leptons.cpp</text>
</a>
</g>
</g>
<!-- Node2&#45;&gt;Node37 -->
<g id="edge50" class="edge"><title>Node2&#45;&gt;Node37</title>
<path fill="none" stroke="midnightblue" d="M1129.67,-375.532C1027.42,-370.669 807.333,-358.075 623.135,-333 611.571,-331.426 599.095,-329.221 587.7,-327.004"/>
<polygon fill="midnightblue" stroke="midnightblue" points="1129.63,-379.033 1139.78,-376.005 1129.95,-372.041 1129.63,-379.033"/>
</g>
<!-- Node38 -->
<g id="node38" class="node"><title>Node38</title>
<g id="a_node38"><a xlink:href="../../d4/d47/exroot_2Partons_8cpp.html" target="_top" xlink:title="source/exroot/Partons.cpp">
<polygon fill="white" stroke="black" points="632.635,-308 632.635,-327 763.635,-327 763.635,-308 632.635,-308"/>
<text text-anchor="middle" x="698.135" y="-315" font-family="Helvetica,sans-Serif" font-size="10.00">source/exroot/Partons.cpp</text>
</a>
</g>
</g>
<!-- Node2&#45;&gt;Node38 -->
<g id="edge51" class="edge"><title>Node2&#45;&gt;Node38</title>
<path fill="none" stroke="midnightblue" d="M1129.59,-373.326C1049.28,-366.448 899.161,-352.296 772.135,-333 761.133,-331.329 749.279,-329.169 738.352,-327.029"/>
<polygon fill="midnightblue" stroke="midnightblue" points="1129.72,-376.849 1139.98,-374.209 1130.31,-369.875 1129.72,-376.849"/>
</g>
<!-- Node39 -->
<g id="node39" class="node"><title>Node39</title>
<g id="a_node39"><a xlink:href="../../d6/d2d/InfoRecombiner_8cpp.html" target="_top" xlink:title="source/InfoRecombiner.cpp">
<polygon fill="white" stroke="black" points="781.635,-308 781.635,-327 918.635,-327 918.635,-308 781.635,-308"/>
<text text-anchor="middle" x="850.135" y="-315" font-family="Helvetica,sans-Serif" font-size="10.00">source/InfoRecombiner.cpp</text>
</a>
</g>
</g>
<!-- Node2&#45;&gt;Node39 -->
<g id="edge53" class="edge"><title>Node2&#45;&gt;Node39</title>
<path fill="none" stroke="midnightblue" d="M1129.72,-368.223C1077.21,-359.236 997.408,-345.456 928.135,-333 917.561,-331.099 906.189,-329.01 895.488,-327.024"/>
<polygon fill="midnightblue" stroke="midnightblue" points="1129.4,-371.719 1139.84,-369.955 1130.58,-364.82 1129.4,-371.719"/>
</g>
<!-- Node40 -->
<g id="node40" class="node"><title>Node40</title>
<g id="a_node40"><a xlink:href="../../db/d6a/JetInfo_8cpp.html" target="_top" xlink:title="source/JetInfo.cpp">
<polygon fill="white" stroke="black" points="937.135,-308 937.135,-327 1035.13,-327 1035.13,-308 937.135,-308"/>
<text text-anchor="middle" x="986.135" y="-315" font-family="Helvetica,sans-Serif" font-size="10.00">source/JetInfo.cpp</text>
</a>
</g>
</g>
<!-- Node2&#45;&gt;Node40 -->
<g id="edge54" class="edge"><title>Node2&#45;&gt;Node40</title>
<path fill="none" stroke="midnightblue" d="M1148.38,-366.529C1109.32,-354.965 1049.93,-337.385 1014.88,-327.009"/>
<polygon fill="midnightblue" stroke="midnightblue" points="1147.75,-369.993 1158.34,-369.475 1149.74,-363.281 1147.75,-369.993"/>
</g>
<!-- Node41 -->
<g id="node41" class="node"><title>Node41</title>
<g id="a_node41"><a xlink:href="../../d1/d1f/Reconstruction_8cpp.html" target="_top" xlink:title="source/Reconstruction.cpp">
<polygon fill="white" stroke="black" points="1053.13,-308 1053.13,-327 1187.13,-327 1187.13,-308 1053.13,-308"/>
<text text-anchor="middle" x="1120.13" y="-315" font-family="Helvetica,sans-Serif" font-size="10.00">source/Reconstruction.cpp</text>
</a>
</g>
</g>
<!-- Node2&#45;&gt;Node41 -->
<g id="edge56" class="edge"><title>Node2&#45;&gt;Node41</title>
<path fill="none" stroke="midnightblue" d="M1169.85,-362.65C1157.08,-351.306 1140.16,-336.281 1129.72,-327.009"/>
<polygon fill="midnightblue" stroke="midnightblue" points="1167.73,-365.452 1177.54,-369.475 1172.38,-360.218 1167.73,-365.452"/>
</g>
<!-- Node42 -->
<g id="node42" class="node"><title>Node42</title>
<g id="a_node42"><a xlink:href="../../d2/d35/Tagger_8cpp.html" target="_top" xlink:title="source/Tagger.cpp">
<polygon fill="white" stroke="black" points="1205.13,-308 1205.13,-327 1303.13,-327 1303.13,-308 1205.13,-308"/>
<text text-anchor="middle" x="1254.13" y="-315" font-family="Helvetica,sans-Serif" font-size="10.00">source/Tagger.cpp</text>
</a>
</g>
</g>
<!-- Node2&#45;&gt;Node42 -->
<g id="edge57" class="edge"><title>Node2&#45;&gt;Node42</title>
<path fill="none" stroke="midnightblue" d="M1204.42,-362.65C1217.19,-351.306 1234.11,-336.281 1244.55,-327.009"/>
<polygon fill="midnightblue" stroke="midnightblue" points="1201.89,-360.218 1196.73,-369.475 1206.54,-365.452 1201.89,-360.218"/>
</g>
<!-- Node43 -->
<g id="node43" class="node"><title>Node43</title>
<g id="a_node43"><a xlink:href="../../df/d59/Types_8cpp.html" target="_top" xlink:title="source/Types.cpp">
<polygon fill="white" stroke="black" points="1321.63,-308 1321.63,-327 1416.63,-327 1416.63,-308 1321.63,-308"/>
<text text-anchor="middle" x="1369.13" y="-315" font-family="Helvetica,sans-Serif" font-size="10.00">source/Types.cpp</text>
</a>
</g>
</g>
<!-- Node2&#45;&gt;Node43 -->
<g id="edge58" class="edge"><title>Node2&#45;&gt;Node43</title>
<path fill="none" stroke="midnightblue" d="M1223.13,-366.232C1258.51,-354.666 1311.64,-337.297 1343.11,-327.009"/>
<polygon fill="midnightblue" stroke="midnightblue" points="1221.63,-363.041 1213.21,-369.475 1223.8,-369.694 1221.63,-363.041"/>
</g>
<!-- Node44 -->
<g id="node44" class="node"><title>Node44</title>
<g id="a_node44"><a xlink:href="../../dd/d4e/Vector_8cpp.html" target="_top" xlink:title="source/Vector.cpp">
<polygon fill="white" stroke="black" points="1435.13,-308 1435.13,-327 1531.13,-327 1531.13,-308 1435.13,-308"/>
<text text-anchor="middle" x="1483.13" y="-315" font-family="Helvetica,sans-Serif" font-size="10.00">source/Vector.cpp</text>
</a>
</g>
</g>
<!-- Node2&#45;&gt;Node44 -->
<g id="edge59" class="edge"><title>Node2&#45;&gt;Node44</title>
<path fill="none" stroke="midnightblue" d="M1244.22,-368.168C1292.55,-359.613 1363.59,-346.5 1425.13,-333 1433.35,-331.199 1442.17,-329.086 1450.39,-327.039"/>
<polygon fill="midnightblue" stroke="midnightblue" points="1243.5,-364.74 1234.26,-369.922 1244.72,-371.634 1243.5,-364.74"/>
</g>
<!-- Node4 -->
<g id="node4" class="node"><title>Node4</title>
<g id="a_node4"><a xlink:href="../../d0/d71/HiggsCpv_2source_2main_8cpp.html" target="_top" xlink:title="HiggsCpv/source/main.cpp">
<polygon fill="white" stroke="black" points="1036.63,-246.5 1036.63,-265.5 1171.63,-265.5 1171.63,-246.5 1036.63,-246.5"/>
<text text-anchor="middle" x="1104.13" y="-253.5" font-family="Helvetica,sans-Serif" font-size="10.00">HiggsCpv/source/main.cpp</text>
</a>
</g>
</g>
<!-- Node3&#45;&gt;Node4 -->
<g id="edge3" class="edge"><title>Node3&#45;&gt;Node4</title>
<path fill="none" stroke="midnightblue" d="M1539.03,-301.917C1381.95,-279.293 1340.18,-282.286 1186.13,-266 1181.43,-265.503 1176.58,-264.985 1171.7,-264.459"/>
<polygon fill="midnightblue" stroke="midnightblue" points="1538.65,-305.399 1549.05,-303.373 1539.66,-298.472 1538.65,-305.399"/>
</g>
<!-- Node6 -->
<g id="node6" class="node"><title>Node6</title>
<g id="a_node6"><a xlink:href="../../d2/d41/BranchTagger_8hh.html" target="_top" xlink:title="include/BranchTagger.hh">
<polygon fill="white" stroke="black" points="1311.63,-185 1311.63,-204 1436.63,-204 1436.63,-185 1311.63,-185"/>
<text text-anchor="middle" x="1374.13" y="-192" font-family="Helvetica,sans-Serif" font-size="10.00">include/BranchTagger.hh</text>
</a>
</g>
</g>
<!-- Node5&#45;&gt;Node6 -->
<g id="edge5" class="edge"><title>Node5&#45;&gt;Node6</title>
<path fill="none" stroke="midnightblue" d="M1706.65,-305.431C1701.77,-304.226 1696.85,-303.056 1692.13,-302 1608.27,-283.218 1583.01,-295.095 1502.13,-266 1457.02,-249.768 1408.75,-219.077 1386.58,-204.124"/>
<polygon fill="midnightblue" stroke="midnightblue" points="1705.98,-308.873 1716.53,-307.928 1707.7,-302.086 1705.98,-308.873"/>
</g>
<!-- Node16 -->
<g id="node16" class="node"><title>Node16</title>
<g id="a_node16"><a xlink:href="../../d8/ded/TauTagger_8cpp.html" target="_top" xlink:title="source/TauTagger.cpp">
<polygon fill="white" stroke="black" points="688.135,-62 688.135,-81 802.135,-81 802.135,-62 688.135,-62"/>
<text text-anchor="middle" x="745.135" y="-69" font-family="Helvetica,sans-Serif" font-size="10.00">source/TauTagger.cpp</text>
</a>
</g>
</g>
<!-- Node5&#45;&gt;Node16 -->
<g id="edge38" class="edge"><title>Node5&#45;&gt;Node16</title>
<path fill="none" stroke="midnightblue" d="M1707.63,-305.488C1702.43,-304.23 1697.17,-303.032 1692.13,-302 1587.76,-280.619 1558.91,-290.141 1455.13,-266 1330.28,-236.953 1303.57,-213.595 1180.13,-179 1034.89,-138.294 859.972,-98.1224 783.763,-81.0517"/>
<polygon fill="midnightblue" stroke="midnightblue" points="1706.91,-308.916 1717.46,-307.952 1708.61,-302.126 1706.91,-308.916"/>
</g>
<!-- Node18 -->
<g id="node18" class="node"><title>Node18</title>
<g id="a_node18"><a xlink:href="../../d0/d32/TwoBody_8hh.html" target="_top" xlink:title="include/TwoBody.hh">
<polygon fill="white" stroke="black" points="1703.63,-185 1703.63,-204 1808.63,-204 1808.63,-185 1703.63,-185"/>
<text text-anchor="middle" x="1756.13" y="-192" font-family="Helvetica,sans-Serif" font-size="10.00">include/TwoBody.hh</text>
</a>
</g>
</g>
<!-- Node5&#45;&gt;Node18 -->
<g id="edge17" class="edge"><title>Node5&#45;&gt;Node18</title>
<path fill="none" stroke="midnightblue" d="M1737.46,-299.16C1730.03,-284.937 1722.27,-264.247 1727.13,-246 1731.41,-229.979 1742.11,-213.76 1749.25,-204.171"/>
<polygon fill="midnightblue" stroke="midnightblue" points="1734.41,-300.885 1742.38,-307.863 1740.5,-297.436 1734.41,-300.885"/>
</g>
<!-- Node19 -->
<g id="node19" class="node"><title>Node19</title>
<g id="a_node19"><a xlink:href="../../df/d3a/Doublet_8hh.html" target="_top" xlink:title="include/Doublet.hh">
<polygon fill="white" stroke="red" points="1467.13,-123.5 1467.13,-142.5 1565.13,-142.5 1565.13,-123.5 1467.13,-123.5"/>
<text text-anchor="middle" x="1516.13" y="-130.5" font-family="Helvetica,sans-Serif" font-size="10.00">include/Doublet.hh</text>
</a>
</g>
</g>
<!-- Node5&#45;&gt;Node19 -->
<g id="edge33" class="edge"><title>Node5&#45;&gt;Node19</title>
<path fill="none" stroke="midnightblue" d="M1705.87,-305.422C1701.24,-304.249 1696.59,-303.088 1692.13,-302 1622.59,-285.026 1583.63,-318.664 1535.13,-266 1502.67,-230.743 1510.28,-166.198 1514.39,-142.782"/>
<polygon fill="midnightblue" stroke="midnightblue" points="1705.34,-308.899 1715.9,-307.988 1707.08,-302.118 1705.34,-308.899"/>
</g>
<!-- Node24 -->
<g id="node24" class="node"><title>Node24</title>
<g id="a_node24"><a xlink:href="../../d0/d7f/Multiplet_8hh.html" target="_top" xlink:title="include/Multiplet.hh">
<polygon fill="white" stroke="black" points="1736.63,-246.5 1736.63,-265.5 1837.63,-265.5 1837.63,-246.5 1736.63,-246.5"/>
<text text-anchor="middle" x="1787.13" y="-253.5" font-family="Helvetica,sans-Serif" font-size="10.00">include/Multiplet.hh</text>
</a>
</g>
</g>
<!-- Node5&#45;&gt;Node24 -->
<g id="edge29" class="edge"><title>Node5&#45;&gt;Node24</title>
<path fill="none" stroke="midnightblue" d="M1759.27,-299.505C1766.56,-288.388 1775.77,-274.34 1781.56,-265.509"/>
<polygon fill="midnightblue" stroke="midnightblue" points="1756.28,-297.693 1753.72,-307.975 1762.13,-301.53 1756.28,-297.693"/>
</g>
<!-- Node25 -->
<g id="node25" class="node"><title>Node25</title>
<g id="a_node25"><a xlink:href="../../d0/d55/ThreeBody_8hh.html" target="_top" xlink:title="include/ThreeBody.hh">
<polygon fill="white" stroke="red" points="1574.63,-185 1574.63,-204 1685.63,-204 1685.63,-185 1574.63,-185"/>
<text text-anchor="middle" x="1630.13" y="-192" font-family="Helvetica,sans-Serif" font-size="10.00">include/ThreeBody.hh</text>
</a>
</g>
</g>
<!-- Node5&#45;&gt;Node25 -->
<g id="edge36" class="edge"><title>Node5&#45;&gt;Node25</title>
<path fill="none" stroke="midnightblue" d="M1732.64,-300.61C1707.38,-274.713 1658.2,-224.277 1638.54,-204.123"/>
<polygon fill="midnightblue" stroke="midnightblue" points="1730.16,-303.082 1739.65,-307.798 1735.17,-298.195 1730.16,-303.082"/>
</g>
<!-- Node27 -->
<g id="node27" class="node"><title>Node27</title>
<g id="a_node27"><a xlink:href="../../dd/d58/GlobalObservables_8hh.html" target="_top" xlink:title="include/GlobalObservables.hh">
<polygon fill="white" stroke="red" points="1856.13,-246.5 1856.13,-265.5 2002.13,-265.5 2002.13,-246.5 1856.13,-246.5"/>
<text text-anchor="middle" x="1929.13" y="-253.5" font-family="Helvetica,sans-Serif" font-size="10.00">include/GlobalObservables.hh</text>
</a>
</g>
</g>
<!-- Node5&#45;&gt;Node27 -->
<g id="edge34" class="edge"><title>Node5&#45;&gt;Node27</title>
<path fill="none" stroke="midnightblue" d="M1783.93,-304.732C1819.12,-293.166 1871.96,-275.797 1903.25,-265.509"/>
<polygon fill="midnightblue" stroke="midnightblue" points="1782.47,-301.527 1774.07,-307.975 1784.66,-308.177 1782.47,-301.527"/>
</g>
<!-- Node28 -->
<g id="node28" class="node"><title>Node28</title>
<g id="a_node28"><a xlink:href="../../d5/dd3/Singlet_8cpp.html" target="_top" xlink:title="source/Singlet.cpp">
<polygon fill="white" stroke="black" points="1544.13,-246.5 1544.13,-265.5 1642.13,-265.5 1642.13,-246.5 1544.13,-246.5"/>
<text text-anchor="middle" x="1593.13" y="-253.5" font-family="Helvetica,sans-Serif" font-size="10.00">source/Singlet.cpp</text>
</a>
</g>
</g>
<!-- Node5&#45;&gt;Node28 -->
<g id="edge37" class="edge"><title>Node5&#45;&gt;Node28</title>
<path fill="none" stroke="midnightblue" d="M1716.31,-304.282C1686.19,-292.72 1641.76,-275.664 1615.3,-265.509"/>
<polygon fill="midnightblue" stroke="midnightblue" points="1715.34,-307.659 1725.93,-307.975 1717.85,-301.124 1715.34,-307.659"/>
</g>
<!-- Node7 -->
<g id="node7" class="node"><title>Node7</title>
<g id="a_node7"><a xlink:href="../../de/dbb/BottomTagger_8hh.html" target="_top" xlink:title="include/BottomTagger.hh">
<polygon fill="white" stroke="red" points="1311.63,-123.5 1311.63,-142.5 1436.63,-142.5 1436.63,-123.5 1311.63,-123.5"/>
<text text-anchor="middle" x="1374.13" y="-130.5" font-family="Helvetica,sans-Serif" font-size="10.00">include/BottomTagger.hh</text>
</a>
</g>
</g>
<!-- Node6&#45;&gt;Node7 -->
<g id="edge6" class="edge"><title>Node6&#45;&gt;Node7</title>
<path fill="none" stroke="midnightblue" d="M1374.13,-174.817C1374.13,-163.996 1374.13,-150.898 1374.13,-142.509"/>
<polygon fill="midnightblue" stroke="midnightblue" points="1370.63,-174.975 1374.13,-184.975 1377.63,-174.975 1370.63,-174.975"/>
</g>
<!-- Node14 -->
<g id="node14" class="node"><title>Node14</title>
<g id="a_node14"><a xlink:href="../../de/d57/TauTagger_8hh.html" target="_top" xlink:title="include/TauTagger.hh">
<polygon fill="white" stroke="black" points="1183.13,-123.5 1183.13,-142.5 1293.13,-142.5 1293.13,-123.5 1183.13,-123.5"/>
<text text-anchor="middle" x="1238.13" y="-130.5" font-family="Helvetica,sans-Serif" font-size="10.00">include/TauTagger.hh</text>
</a>
</g>
</g>
<!-- Node6&#45;&gt;Node14 -->
<g id="edge13" class="edge"><title>Node6&#45;&gt;Node14</title>
<path fill="none" stroke="midnightblue" d="M1345.17,-180.827C1318.77,-169.276 1280.49,-152.532 1257.58,-142.509"/>
<polygon fill="midnightblue" stroke="midnightblue" points="1344.08,-184.173 1354.65,-184.975 1346.89,-177.76 1344.08,-184.173"/>
</g>
<!-- Node17 -->
<g id="node17" class="node"><title>Node17</title>
<g id="a_node17"><a xlink:href="../../d2/dd8/WLeptonicTagger_8hh.html" target="_top" xlink:title="include/WLeptonicTagger.hh">
<polygon fill="white" stroke="red" points="1980.13,-62 1980.13,-81 2120.13,-81 2120.13,-62 1980.13,-62"/>
<text text-anchor="middle" x="2050.13" y="-69" font-family="Helvetica,sans-Serif" font-size="10.00">include/WLeptonicTagger.hh</text>
</a>
</g>
</g>
<!-- Node6&#45;&gt;Node17 -->
<g id="edge16" class="edge"><title>Node6&#45;&gt;Node17</title>
<path fill="none" stroke="midnightblue" d="M1431.94,-183.22C1538.41,-164.273 1772.71,-122.531 1970.13,-87 1980.83,-85.0749 1992.33,-82.996 2003.18,-81.0301"/>
<polygon fill="midnightblue" stroke="midnightblue" points="1431.27,-179.784 1422.04,-184.981 1432.5,-186.675 1431.27,-179.784"/>
</g>
<!-- Node8 -->
<g id="node8" class="node"><title>Node8</title>
<g id="a_node8"><a xlink:href="../../d1/d1b/HiggsTagger_8hh.html" target="_top" xlink:title="include/HiggsTagger.hh">
<polygon fill="white" stroke="red" points="1433.63,-62 1433.63,-81 1552.63,-81 1552.63,-62 1433.63,-62"/>
<text text-anchor="middle" x="1493.13" y="-69" font-family="Helvetica,sans-Serif" font-size="10.00">include/HiggsTagger.hh</text>
</a>
</g>
</g>
<!-- Node7&#45;&gt;Node8 -->
<g id="edge7" class="edge"><title>Node7&#45;&gt;Node8</title>
<path fill="none" stroke="midnightblue" d="M1400.4,-118.867C1423.47,-107.335 1456.34,-90.8992 1476.12,-81.0091"/>
<polygon fill="midnightblue" stroke="midnightblue" points="1398.56,-115.872 1391.18,-123.475 1401.69,-122.133 1398.56,-115.872"/>
</g>
<!-- Node10 -->
<g id="node10" class="node"><title>Node10</title>
<g id="a_node10"><a xlink:href="../../d7/da1/JetPairTagger_8hh.html" target="_top" xlink:title="include/JetPairTagger.hh">
<polygon fill="white" stroke="red" points="972.635,-62 972.635,-81 1097.63,-81 1097.63,-62 972.635,-62"/>
<text text-anchor="middle" x="1035.13" y="-69" font-family="Helvetica,sans-Serif" font-size="10.00">include/JetPairTagger.hh</text>
</a>
</g>
</g>
<!-- Node7&#45;&gt;Node10 -->
<g id="edge9" class="edge"><title>Node7&#45;&gt;Node10</title>
<path fill="none" stroke="midnightblue" d="M1309.7,-121.832C1255.34,-113.098 1175.53,-99.9078 1106.13,-87 1096.24,-85.1595 1085.6,-83.0532 1075.64,-81.0271"/>
<polygon fill="midnightblue" stroke="midnightblue" points="1309.46,-125.337 1319.88,-123.463 1310.56,-118.425 1309.46,-125.337"/>
</g>
<!-- Node12 -->
<g id="node12" class="node"><title>Node12</title>
<g id="a_node12"><a xlink:href="../../db/d94/WHadronicTagger_8hh.html" target="_top" xlink:title="include/WHadronicTagger.hh">
<polygon fill="white" stroke="red" points="1115.63,-62 1115.63,-81 1258.63,-81 1258.63,-62 1115.63,-62"/>
<text text-anchor="middle" x="1187.13" y="-69" font-family="Helvetica,sans-Serif" font-size="10.00">include/WHadronicTagger.hh</text>
</a>
</g>
</g>
<!-- Node7&#45;&gt;Node12 -->
<g id="edge11" class="edge"><title>Node7&#45;&gt;Node12</title>
<path fill="none" stroke="midnightblue" d="M1337.62,-120.381C1301.27,-108.815 1246.35,-91.3407 1213.88,-81.0091"/>
<polygon fill="midnightblue" stroke="midnightblue" points="1336.75,-123.778 1347.34,-123.475 1338.87,-117.108 1336.75,-123.778"/>
</g>
<!-- Node13 -->
<g id="node13" class="node"><title>Node13</title>
<g id="a_node13"><a xlink:href="../../d8/daf/ZHadronicTagger_8hh.html" target="_top" xlink:title="include/ZHadronicTagger.hh">
<polygon fill="white" stroke="red" points="1276.63,-62 1276.63,-81 1415.63,-81 1415.63,-62 1276.63,-62"/>
<text text-anchor="middle" x="1346.13" y="-69" font-family="Helvetica,sans-Serif" font-size="10.00">include/ZHadronicTagger.hh</text>
</a>
</g>
</g>
<!-- Node7&#45;&gt;Node13 -->
<g id="edge12" class="edge"><title>Node7&#45;&gt;Node13</title>
<path fill="none" stroke="midnightblue" d="M1365.82,-114.335C1360.64,-103.328 1354.21,-89.6629 1350.14,-81.0091"/>
<polygon fill="midnightblue" stroke="midnightblue" points="1362.7,-115.917 1370.12,-123.475 1369.03,-112.937 1362.7,-115.917"/>
</g>
<!-- Node8&#45;&gt;Node9 -->
<g id="edge8" class="edge"><title>Node8&#45;&gt;Node9</title>
<path fill="none" stroke="midnightblue" d="M1542.66,-59.879C1549.2,-58.5385 1555.82,-57.2131 1562.13,-56 1633.35,-42.3104 1715.98,-28.2109 1768.15,-19.5264"/>
<polygon fill="midnightblue" stroke="midnightblue" points="1541.58,-56.528 1532.5,-61.9842 1543,-63.3825 1541.58,-56.528"/>
</g>
<!-- Node11 -->
<g id="node11" class="node"><title>Node11</title>
<g id="a_node11"><a xlink:href="../../dd/dd3/JetPairTagger_8cpp.html" target="_top" xlink:title="source/JetPairTagger.cpp">
<polygon fill="white" stroke="black" points="772.135,-0.5 772.135,-19.5 900.135,-19.5 900.135,-0.5 772.135,-0.5"/>
<text text-anchor="middle" x="836.135" y="-7.5" font-family="Helvetica,sans-Serif" font-size="10.00">source/JetPairTagger.cpp</text>
</a>
</g>
</g>
<!-- Node10&#45;&gt;Node11 -->
<g id="edge10" class="edge"><title>Node10&#45;&gt;Node11</title>
<path fill="none" stroke="midnightblue" d="M996.768,-59.0286C958.092,-47.4647 899.296,-29.8849 864.594,-19.5091"/>
<polygon fill="midnightblue" stroke="midnightblue" points="996.039,-62.4637 1006.62,-61.9751 998.045,-55.7571 996.039,-62.4637"/>
</g>
<!-- Node15 -->
<g id="node15" class="node"><title>Node15</title>
<g id="a_node15"><a xlink:href="../../dc/dd9/HeavyHiggsTauTagger_8hh.html" target="_top" xlink:title="HeavyHiggs/include\l/HeavyHiggsTauTagger.hh">
<polygon fill="white" stroke="red" points="820.135,-56.5 820.135,-86.5 954.135,-86.5 954.135,-56.5 820.135,-56.5"/>
<text text-anchor="start" x="828.135" y="-74.5" font-family="Helvetica,sans-Serif" font-size="10.00">HeavyHiggs/include</text>
<text text-anchor="middle" x="887.135" y="-63.5" font-family="Helvetica,sans-Serif" font-size="10.00">/HeavyHiggsTauTagger.hh</text>
</a>
</g>
</g>
<!-- Node14&#45;&gt;Node15 -->
<g id="edge14" class="edge"><title>Node14&#45;&gt;Node15</title>
<path fill="none" stroke="midnightblue" d="M1173.44,-121.907C1117.66,-113.086 1035,-99.7329 963.135,-87 960.225,-86.4844 957.254,-85.9504 954.254,-85.4049"/>
<polygon fill="midnightblue" stroke="midnightblue" points="1173.11,-125.398 1183.54,-123.5 1174.21,-118.484 1173.11,-125.398"/>
</g>
<!-- Node14&#45;&gt;Node16 -->
<g id="edge15" class="edge"><title>Node14&#45;&gt;Node16</title>
<path fill="none" stroke="midnightblue" d="M1172.49,-123.392C1171.36,-123.259 1170.24,-123.128 1169.13,-123 1010.28,-104.656 969.05,-112.199 811.135,-87 801.056,-85.3916 790.205,-83.2018 780.271,-81.0115"/>
<polygon fill="midnightblue" stroke="midnightblue" points="1172.44,-126.911 1182.79,-124.635 1173.28,-119.962 1172.44,-126.911"/>
</g>
<!-- Node18&#45;&gt;Node19 -->
<g id="edge18" class="edge"><title>Node18&#45;&gt;Node19</title>
<path fill="none" stroke="midnightblue" d="M1711.93,-182.541C1665.34,-170.99 1592.93,-153.039 1550.46,-142.509"/>
<polygon fill="midnightblue" stroke="midnightblue" points="1711.2,-185.966 1721.75,-184.975 1712.88,-179.172 1711.2,-185.966"/>
</g>
<!-- Node23 -->
<g id="node23" class="node"><title>Node23</title>
<g id="a_node23"><a xlink:href="../../dd/dbc/MultipletEvent_8hh.html" target="_top" xlink:title="include/MultipletEvent.hh">
<polygon fill="white" stroke="red" points="1794.13,-123.5 1794.13,-142.5 1920.13,-142.5 1920.13,-123.5 1794.13,-123.5"/>
<text text-anchor="middle" x="1857.13" y="-130.5" font-family="Helvetica,sans-Serif" font-size="10.00">include/MultipletEvent.hh</text>
</a>
</g>
</g>
<!-- Node18&#45;&gt;Node23 -->
<g id="edge28" class="edge"><title>Node18&#45;&gt;Node23</title>
<path fill="none" stroke="midnightblue" d="M1779.49,-179.744C1799,-168.25 1826.2,-152.223 1842.69,-142.509"/>
<polygon fill="midnightblue" stroke="midnightblue" points="1777.45,-176.884 1770.61,-184.975 1781,-182.915 1777.45,-176.884"/>
</g>
<!-- Node19&#45;&gt;Node8 -->
<g id="edge21" class="edge"><title>Node19&#45;&gt;Node8</title>
<path fill="none" stroke="midnightblue" d="M1509.18,-113.997C1504.94,-103.05 1499.74,-89.5746 1496.42,-81.0091"/>
<polygon fill="midnightblue" stroke="midnightblue" points="1505.97,-115.41 1512.84,-123.475 1512.5,-112.886 1505.97,-115.41"/>
</g>
<!-- Node19&#45;&gt;Node10 -->
<g id="edge22" class="edge"><title>Node19&#45;&gt;Node10</title>
<path fill="none" stroke="midnightblue" d="M1456.94,-124.405C1452.94,-123.92 1448.98,-123.448 1445.13,-123 1294.64,-105.472 1255.86,-110.185 1106.13,-87 1095.57,-85.3636 1084.19,-83.2153 1073.71,-81.0755"/>
<polygon fill="midnightblue" stroke="midnightblue" points="1456.53,-127.88 1466.88,-125.625 1457.38,-120.932 1456.53,-127.88"/>
</g>
<!-- Node19&#45;&gt;Node12 -->
<g id="edge24" class="edge"><title>Node19&#45;&gt;Node12</title>
<path fill="none" stroke="midnightblue" d="M1458.8,-121.647C1408.33,-112.531 1332.85,-98.8938 1267.13,-87 1256.44,-85.0644 1244.94,-82.9813 1234.09,-81.0147"/>
<polygon fill="midnightblue" stroke="midnightblue" points="1458.4,-125.131 1468.86,-123.464 1459.64,-118.242 1458.4,-125.131"/>
</g>
<!-- Node19&#45;&gt;Node13 -->
<g id="edge26" class="edge"><title>Node19&#45;&gt;Node13</title>
<path fill="none" stroke="midnightblue" d="M1482.09,-120.083C1449.04,-108.517 1399.71,-91.2524 1370.45,-81.0091"/>
<polygon fill="midnightblue" stroke="midnightblue" points="1481.18,-123.475 1491.78,-123.475 1483.5,-116.868 1481.18,-123.475"/>
</g>
<!-- Node19&#45;&gt;Node15 -->
<g id="edge20" class="edge"><title>Node19&#45;&gt;Node15</title>
<path fill="none" stroke="midnightblue" d="M1456.95,-124.265C1452.96,-123.815 1448.99,-123.388 1445.13,-123 1231.4,-101.486 1176.1,-115.175 963.135,-87 960.205,-86.6124 957.218,-86.1844 954.204,-85.7256"/>
<polygon fill="midnightblue" stroke="midnightblue" points="1456.56,-127.743 1466.9,-125.426 1457.37,-120.791 1456.56,-127.743"/>
</g>
<!-- Node19&#45;&gt;Node17 -->
<g id="edge25" class="edge"><title>Node19&#45;&gt;Node17</title>
<path fill="none" stroke="midnightblue" d="M1575.53,-127.647C1662.42,-120.932 1829.18,-106.727 1970.13,-87 1982.02,-85.3371 1994.83,-83.1799 2006.64,-81.04"/>
<polygon fill="midnightblue" stroke="midnightblue" points="1575.04,-124.175 1565.33,-128.429 1575.57,-131.154 1575.04,-124.175"/>
</g>
<!-- Node20 -->
<g id="node20" class="node"><title>Node20</title>
<g id="a_node20"><a xlink:href="../../d6/d4e/AnalysisNeutralFourTop_8hh.html" target="_top" xlink:title="HeavyHiggs/include\l/AnalysisNeutralFourTop.hh">
<polygon fill="white" stroke="red" points="1571.13,-56.5 1571.13,-86.5 1709.13,-86.5 1709.13,-56.5 1571.13,-56.5"/>
<text text-anchor="start" x="1579.13" y="-74.5" font-family="Helvetica,sans-Serif" font-size="10.00">HeavyHiggs/include</text>
<text text-anchor="middle" x="1640.13" y="-63.5" font-family="Helvetica,sans-Serif" font-size="10.00">/AnalysisNeutralFourTop.hh</text>
</a>
</g>
</g>
<!-- Node19&#45;&gt;Node20 -->
<g id="edge19" class="edge"><title>Node19&#45;&gt;Node20</title>
<path fill="none" stroke="midnightblue" d="M1543.08,-119.07C1563.1,-109.465 1590.37,-96.3784 1610.91,-86.523"/>
<polygon fill="midnightblue" stroke="midnightblue" points="1541.4,-115.993 1533.9,-123.475 1544.43,-122.304 1541.4,-115.993"/>
</g>
<!-- Node21 -->
<g id="node21" class="node"><title>Node21</title>
<g id="a_node21"><a xlink:href="../../d7/db9/Triplet_8hh.html" target="_top" xlink:title="include/Triplet.hh">
<polygon fill="white" stroke="red" points="1727.63,-62 1727.63,-81 1818.63,-81 1818.63,-62 1727.63,-62"/>
<text text-anchor="middle" x="1773.13" y="-69" font-family="Helvetica,sans-Serif" font-size="10.00">include/Triplet.hh</text>
</a>
</g>
</g>
<!-- Node19&#45;&gt;Node21 -->
<g id="edge23" class="edge"><title>Node19&#45;&gt;Node21</title>
<path fill="none" stroke="midnightblue" d="M1566.48,-121.348C1607.43,-112.551 1666.64,-99.519 1718.13,-87 1725.72,-85.1572 1733.85,-83.0708 1741.49,-81.0668"/>
<polygon fill="midnightblue" stroke="midnightblue" points="1565.53,-117.973 1556.48,-123.491 1566.99,-124.818 1565.53,-117.973"/>
</g>
<!-- Node22 -->
<g id="node22" class="node"><title>Node22</title>
<g id="a_node22"><a xlink:href="../../da/dca/BosonTagger_8cpp.html" target="_top" xlink:title="source/BosonTagger.cpp">
<polygon fill="white" stroke="black" points="1836.63,-62 1836.63,-81 1961.63,-81 1961.63,-62 1836.63,-62"/>
<text text-anchor="middle" x="1899.13" y="-69" font-family="Helvetica,sans-Serif" font-size="10.00">source/BosonTagger.cpp</text>
</a>
</g>
</g>
<!-- Node19&#45;&gt;Node22 -->
<g id="edge27" class="edge"><title>Node19&#45;&gt;Node22</title>
<path fill="none" stroke="midnightblue" d="M1575.38,-124.414C1638.07,-116.157 1739.8,-102.1 1827.13,-87 1837.44,-85.2186 1848.53,-83.0906 1858.84,-81.021"/>
<polygon fill="midnightblue" stroke="midnightblue" points="1574.74,-120.968 1565.28,-125.739 1575.65,-127.908 1574.74,-120.968"/>
</g>
<!-- Node24&#45;&gt;Node18 -->
<g id="edge30" class="edge"><title>Node24&#45;&gt;Node18</title>
<path fill="none" stroke="midnightblue" d="M1777.93,-237.335C1772.2,-226.328 1765.08,-212.663 1760.57,-204.009"/>
<polygon fill="midnightblue" stroke="midnightblue" points="1774.97,-239.224 1782.69,-246.475 1781.18,-235.989 1774.97,-239.224"/>
</g>
<!-- Node24&#45;&gt;Node25 -->
<g id="edge31" class="edge"><title>Node24&#45;&gt;Node25</title>
<path fill="none" stroke="midnightblue" d="M1754.9,-242.782C1724.39,-231.22 1679.38,-214.164 1652.59,-204.009"/>
<polygon fill="midnightblue" stroke="midnightblue" points="1754.05,-246.204 1764.64,-246.475 1756.53,-239.658 1754.05,-246.204"/>
</g>
<!-- Node24&#45;&gt;Node26 -->
<g id="edge32" class="edge"><title>Node24&#45;&gt;Node26</title>
<path fill="none" stroke="midnightblue" d="M1808.89,-240.93C1826.63,-229.459 1851.1,-213.634 1865.98,-204.009"/>
<polygon fill="midnightblue" stroke="midnightblue" points="1806.81,-238.106 1800.32,-246.475 1810.61,-243.983 1806.81,-238.106"/>
</g>
<!-- Node27&#45;&gt;Node23 -->
<g id="edge35" class="edge"><title>Node27&#45;&gt;Node23</title>
<path fill="none" stroke="midnightblue" d="M1937.96,-236.89C1944.51,-220.629 1950.65,-196.666 1940.13,-179 1929.15,-160.55 1907.67,-149.199 1889.32,-142.512"/>
<polygon fill="midnightblue" stroke="midnightblue" points="1934.63,-235.761 1933.76,-246.32 1941.02,-238.604 1934.63,-235.761"/>
</g>
<!-- Node29&#45;&gt;Node6 -->
<g id="edge41" class="edge"><title>Node29&#45;&gt;Node6</title>
<path fill="none" stroke="midnightblue" d="M830.583,-249.855C939.523,-238.961 1193.15,-213.598 1311.38,-201.775"/>
<polygon fill="midnightblue" stroke="midnightblue" points="830.104,-246.386 820.502,-250.863 830.8,-253.351 830.104,-246.386"/>
</g>
<!-- Node29&#45;&gt;Node11 -->
<g id="edge43" class="edge"><title>Node29&#45;&gt;Node11</title>
<path fill="none" stroke="midnightblue" d="M728.82,-243.111C711.409,-236.367 693.643,-225.953 683.135,-210 645.471,-152.823 637.927,-110.678 679.135,-56 691.635,-39.4133 741.244,-27.0737 781.396,-19.5521"/>
<polygon fill="midnightblue" stroke="midnightblue" points="727.814,-246.467 738.409,-246.492 730.142,-239.866 727.814,-246.467"/>
</g>
<!-- Node29&#45;&gt;Node16 -->
<g id="edge44" class="edge"><title>Node29&#45;&gt;Node16</title>
<path fill="none" stroke="midnightblue" d="M736.008,-242.729C719.968,-235.84 703.422,-225.426 694.135,-210 667.081,-165.067 716.591,-103.414 736.962,-81.0445"/>
<polygon fill="midnightblue" stroke="midnightblue" points="734.748,-245.994 745.336,-246.388 737.305,-239.478 734.748,-245.994"/>
</g>
<!-- Node30 -->
<g id="node30" class="node"><title>Node30</title>
<g id="a_node30"><a xlink:href="../../da/ddf/TopSemiPairTagger_8cpp.html" target="_top" xlink:title="HiggsCpv/source/TopSemiPair\lTagger.cpp">
<polygon fill="white" stroke="black" points="703.135,-179.5 703.135,-209.5 855.135,-209.5 855.135,-179.5 703.135,-179.5"/>
<text text-anchor="start" x="711.135" y="-197.5" font-family="Helvetica,sans-Serif" font-size="10.00">HiggsCpv/source/TopSemiPair</text>
<text text-anchor="middle" x="779.135" y="-186.5" font-family="Helvetica,sans-Serif" font-size="10.00">Tagger.cpp</text>
</a>
</g>
</g>
<!-- Node29&#45;&gt;Node30 -->
<g id="edge40" class="edge"><title>Node29&#45;&gt;Node30</title>
<path fill="none" stroke="midnightblue" d="M779.135,-236.235C779.135,-227.586 779.135,-217.497 779.135,-209.523"/>
<polygon fill="midnightblue" stroke="midnightblue" points="775.635,-236.475 779.135,-246.475 782.635,-236.475 775.635,-236.475"/>
</g>
<!-- Node31 -->
<g id="node31" class="node"><title>Node31</title>
<g id="a_node31"><a xlink:href="../../da/dcb/Discriminator_8cpp.html" target="_top" xlink:title="source/Discriminator.cpp">
<polygon fill="white" stroke="black" points="873.635,-185 873.635,-204 998.635,-204 998.635,-185 873.635,-185"/>
<text text-anchor="middle" x="936.135" y="-192" font-family="Helvetica,sans-Serif" font-size="10.00">source/Discriminator.cpp</text>
</a>
</g>
</g>
<!-- Node29&#45;&gt;Node31 -->
<g id="edge42" class="edge"><title>Node29&#45;&gt;Node31</title>
<path fill="none" stroke="midnightblue" d="M811.373,-242.782C841.882,-231.22 886.887,-214.164 913.682,-204.009"/>
<polygon fill="midnightblue" stroke="midnightblue" points="809.74,-239.658 801.629,-246.475 812.221,-246.204 809.74,-239.658"/>
</g>
<!-- Node32 -->
<g id="node32" class="node"><title>Node32</title>
<g id="a_node32"><a xlink:href="../../d5/da3/TripletJetPairTagger_8cpp.html" target="_top" xlink:title="source/TripletJetPairTagger.cpp">
<polygon fill="white" stroke="black" points="1016.63,-185 1016.63,-204 1171.63,-204 1171.63,-185 1016.63,-185"/>
<text text-anchor="middle" x="1094.13" y="-192" font-family="Helvetica,sans-Serif" font-size="10.00">source/TripletJetPairTagger.cpp</text>
</a>
</g>
</g>
<!-- Node29&#45;&gt;Node32 -->
<g id="edge45" class="edge"><title>Node29&#45;&gt;Node32</title>
<path fill="none" stroke="midnightblue" d="M830.442,-245.309C891.162,-233.839 991.3,-214.924 1049.13,-204.002"/>
<polygon fill="midnightblue" stroke="midnightblue" points="829.492,-241.926 820.316,-247.221 830.792,-248.804 829.492,-241.926"/>
</g>
<!-- Node45&#45;&gt;Node33 -->
<g id="edge61" class="edge"><title>Node45&#45;&gt;Node33</title>
<path fill="none" stroke="midnightblue" d="M2331.51,-364.556C2310.41,-353.042 2280.68,-336.811 2262.72,-327.009"/>
<polygon fill="midnightblue" stroke="midnightblue" points="2330.06,-367.756 2340.52,-369.475 2333.42,-361.612 2330.06,-367.756"/>
</g>
<!-- Node46 -->
<g id="node46" class="node"><title>Node46</title>
<g id="a_node46"><a xlink:href="../../d7/d9f/Event_8cpp.html" target="_top" xlink:title="source/Event.cpp">
<polygon fill="white" stroke="black" points="2335.63,-308 2335.63,-327 2428.63,-327 2428.63,-308 2335.63,-308"/>
<text text-anchor="middle" x="2382.13" y="-315" font-family="Helvetica,sans-Serif" font-size="10.00">source/Event.cpp</text>
</a>
</g>
</g>
<!-- Node45&#45;&gt;Node46 -->
<g id="edge62" class="edge"><title>Node45&#45;&gt;Node46</title>
<path fill="none" stroke="midnightblue" d="M2364,-359.997C2368.79,-349.05 2374.67,-335.575 2378.42,-327.009"/>
<polygon fill="midnightblue" stroke="midnightblue" points="2360.66,-358.91 2359.86,-369.475 2367.07,-361.713 2360.66,-358.91"/>
</g>
<!-- Node48 -->
<g id="node48" class="node"><title>Node48</title>
<g id="a_node48"><a xlink:href="../../d0/d3a/FourVector_8cpp.html" target="_top" xlink:title="source/FourVector.cpp">
<polygon fill="white" stroke="black" points="2446.13,-308 2446.13,-327 2562.13,-327 2562.13,-308 2446.13,-308"/>
<text text-anchor="middle" x="2504.13" y="-315" font-family="Helvetica,sans-Serif" font-size="10.00">source/FourVector.cpp</text>
</a>
</g>
</g>
<!-- Node47&#45;&gt;Node48 -->
<g id="edge64" class="edge"><title>Node47&#45;&gt;Node48</title>
<path fill="none" stroke="midnightblue" d="M2504.13,-359.317C2504.13,-348.496 2504.13,-335.398 2504.13,-327.009"/>
<polygon fill="midnightblue" stroke="midnightblue" points="2500.63,-359.475 2504.13,-369.475 2507.63,-359.475 2500.63,-359.475"/>
</g>
<!-- Node49 -->
<g id="node49" class="node"><title>Node49</title>
<g id="a_node49"><a xlink:href="../../da/d15/JetInfoFamily_8cpp.html" target="_top" xlink:title="source/JetInfoFamily.cpp">
<polygon fill="white" stroke="black" points="2580.63,-308 2580.63,-327 2707.63,-327 2707.63,-308 2580.63,-308"/>
<text text-anchor="middle" x="2644.13" y="-315" font-family="Helvetica,sans-Serif" font-size="10.00">source/JetInfoFamily.cpp</text>
</a>
</g>
</g>
<!-- Node47&#45;&gt;Node49 -->
<g id="edge65" class="edge"><title>Node47&#45;&gt;Node49</title>
<path fill="none" stroke="midnightblue" d="M2533.59,-365.48C2560.78,-353.924 2600.43,-337.076 2624.11,-327.009"/>
<polygon fill="midnightblue" stroke="midnightblue" points="2532.03,-362.342 2524.19,-369.475 2534.77,-368.785 2532.03,-362.342"/>
</g>
</g>
</svg>
