<?xml version="1.0" encoding="UTF-8" standalone="no"?>
<!DOCTYPE svg PUBLIC "-//W3C//DTD SVG 1.1//EN"
 "http://www.w3.org/Graphics/SVG/1.1/DTD/svg11.dtd">
<!-- Generated by graphviz version 2.38.0 (20140413.2041)
 -->
<!-- Title: boca::naturalness::Nonet Pages: 1 -->
<svg width="2821pt" height="408pt"
 viewBox="0.00 0.00 2821.00 408.00" xmlns="http://www.w3.org/2000/svg" xmlns:xlink="http://www.w3.org/1999/xlink">
<g id="graph0" class="graph" transform="scale(1 1) rotate(0) translate(4 404)">
<title>boca::naturalness::Nonet</title>
<polygon fill="white" stroke="none" points="-4,4 -4,-404 2817,-404 2817,4 -4,4"/>
<!-- Node1 -->
<g id="node1" class="node"><title>Node1</title>
<polygon fill="#bfbfbf" stroke="black" points="2713,-99 2713,-129 2813,-129 2813,-99 2713,-99"/>
<text text-anchor="start" x="2721" y="-117" font-family="Helvetica,sans-Serif" font-size="10.00">boca::naturalness::</text>
<text text-anchor="middle" x="2763" y="-106" font-family="Helvetica,sans-Serif" font-size="10.00">Nonet</text>
</g>
<!-- Node2 -->
<g id="node2" class="node"><title>Node2</title>
<g id="a_node2"><a xlink:href="../../d6/d3b/classboca_1_1TwoBody.html" target="_top" xlink:title="boca::TwoBody\&lt; boca\l::Quintet, Quartet22 \&gt;">
<polygon fill="white" stroke="black" points="2561,-99 2561,-129 2676,-129 2676,-99 2561,-99"/>
<text text-anchor="start" x="2569" y="-117" font-family="Helvetica,sans-Serif" font-size="10.00">boca::TwoBody&lt; boca</text>
<text text-anchor="middle" x="2618.5" y="-106" font-family="Helvetica,sans-Serif" font-size="10.00">::Quintet, Quartet22 &gt;</text>
</a>
</g>
</g>
<!-- Node2&#45;&gt;Node1 -->
<g id="edge1" class="edge"><title>Node2&#45;&gt;Node1</title>
<path fill="none" stroke="midnightblue" d="M2686.26,-114C2695.21,-114 2704.25,-114 2712.83,-114"/>
<polygon fill="midnightblue" stroke="midnightblue" points="2686.23,-110.5 2676.23,-114 2686.23,-117.5 2686.23,-110.5"/>
</g>
<!-- Node3 -->
<g id="node3" class="node"><title>Node3</title>
<g id="a_node3"><a xlink:href="../../d1/d5c/classboca_1_1Multiplet.html" target="_top" xlink:title="boca::Multiplet">
<polygon fill="white" stroke="black" points="753,-103.5 753,-122.5 833,-122.5 833,-103.5 753,-103.5"/>
<text text-anchor="middle" x="793" y="-110.5" font-family="Helvetica,sans-Serif" font-size="10.00">boca::Multiplet</text>
</a>
</g>
</g>
<!-- Node3&#45;&gt;Node2 -->
<g id="edge2" class="edge"><title>Node3&#45;&gt;Node2</title>
<path fill="none" stroke="midnightblue" d="M806.7,-95.0799C817.214,-81.3782 833.261,-62.88 851,-51 905.503,-14.499 923.904,-0 989.5,-0 989.5,-0 989.5,-0 2432.5,-0 2506.82,-0 2576.31,-67.5083 2604.39,-98.6255"/>
<polygon fill="midnightblue" stroke="midnightblue" points="803.77,-93.1554 800.628,-103.274 809.394,-97.3234 803.77,-93.1554"/>
</g>
<!-- Node16 -->
<g id="node16" class="node"><title>Node16</title>
<g id="a_node16"><a xlink:href="../../d6/d3b/classboca_1_1TwoBody.html" target="_top" xlink:title="boca::TwoBody\&lt; Doublet,\l Doublet \&gt;">
<polygon fill="white" stroke="black" points="1688,-70 1688,-100 1819,-100 1819,-70 1688,-70"/>
<text text-anchor="start" x="1696" y="-88" font-family="Helvetica,sans-Serif" font-size="10.00">boca::TwoBody&lt; Doublet,</text>
<text text-anchor="middle" x="1753.5" y="-77" font-family="Helvetica,sans-Serif" font-size="10.00"> Doublet &gt;</text>
</a>
</g>
</g>
<!-- Node3&#45;&gt;Node16 -->
<g id="edge19" class="edge"><title>Node3&#45;&gt;Node16</title>
<path fill="none" stroke="midnightblue" d="M834.537,-100.743C873.784,-89.9706 935.161,-76 989.5,-76 989.5,-76 989.5,-76 1383,-76 1489.84,-76 1614.01,-79.8071 1687.77,-82.469"/>
<polygon fill="midnightblue" stroke="midnightblue" points="833.493,-97.4003 824.81,-103.472 835.384,-104.14 833.493,-97.4003"/>
</g>
<!-- Node18 -->
<g id="node18" class="node"><title>Node18</title>
<g id="a_node18"><a xlink:href="../../d6/d3b/classboca_1_1TwoBody.html" target="_top" xlink:title="boca::TwoBody\&lt; boca\l::Singlet, boca::Singlet \&gt;">
<polygon fill="white" stroke="black" points="1189,-163 1189,-193 1314,-193 1314,-163 1189,-163"/>
<text text-anchor="start" x="1197" y="-181" font-family="Helvetica,sans-Serif" font-size="10.00">boca::TwoBody&lt; boca</text>
<text text-anchor="middle" x="1251.5" y="-170" font-family="Helvetica,sans-Serif" font-size="10.00">::Singlet, boca::Singlet &gt;</text>
</a>
</g>
</g>
<!-- Node3&#45;&gt;Node18 -->
<g id="edge22" class="edge"><title>Node3&#45;&gt;Node18</title>
<path fill="none" stroke="midnightblue" d="M843.284,-122.702C845.891,-123.155 848.475,-123.591 851,-124 992.597,-146.934 1028.96,-145.961 1171,-166 1176.81,-166.819 1182.85,-167.692 1188.89,-168.58"/>
<polygon fill="midnightblue" stroke="midnightblue" points="843.655,-119.212 833.193,-120.885 842.414,-126.101 843.655,-119.212"/>
</g>
<!-- Node19 -->
<g id="node19" class="node"><title>Node19</title>
<g id="a_node19"><a xlink:href="../../d6/d3b/classboca_1_1TwoBody.html" target="_top" xlink:title="boca::TwoBody\&lt; Multiplet\l_1, Multiplet_2 \&gt;">
<polygon fill="white" stroke="black" points="925,-245 925,-275 1056,-275 1056,-245 925,-245"/>
<text text-anchor="start" x="933" y="-263" font-family="Helvetica,sans-Serif" font-size="10.00">boca::TwoBody&lt; Multiplet</text>
<text text-anchor="middle" x="990.5" y="-252" font-family="Helvetica,sans-Serif" font-size="10.00">_1, Multiplet_2 &gt;</text>
</a>
</g>
</g>
<!-- Node3&#45;&gt;Node19 -->
<g id="edge25" class="edge"><title>Node3&#45;&gt;Node19</title>
<path fill="none" stroke="midnightblue" d="M816.724,-128.082C827.041,-134.738 839.488,-142.508 851,-149 875.238,-162.669 884.45,-160.695 907,-177 934.824,-197.119 961.866,-226.846 977.032,-244.728"/>
<polygon fill="midnightblue" stroke="midnightblue" points="818.572,-125.108 808.283,-122.579 814.749,-130.972 818.572,-125.108"/>
</g>
<!-- Node23 -->
<g id="node23" class="node"><title>Node23</title>
<g id="a_node23"><a xlink:href="../../d6/d3b/classboca_1_1TwoBody.html" target="_top" xlink:title="boca::TwoBody\&lt; boca\l::Triplet, boca::Doublet \&gt;">
<polygon fill="white" stroke="black" points="2177,-144 2177,-174 2302,-174 2302,-144 2177,-144"/>
<text text-anchor="start" x="2185" y="-162" font-family="Helvetica,sans-Serif" font-size="10.00">boca::TwoBody&lt; boca</text>
<text text-anchor="middle" x="2239.5" y="-151" font-family="Helvetica,sans-Serif" font-size="10.00">::Triplet, boca::Doublet &gt;</text>
</a>
</g>
</g>
<!-- Node3&#45;&gt;Node23 -->
<g id="edge31" class="edge"><title>Node3&#45;&gt;Node23</title>
<path fill="none" stroke="midnightblue" d="M817.119,-97.7351C852.627,-75.8066 923.426,-38 989.5,-38 989.5,-38 989.5,-38 1754.5,-38 1927.29,-38 2124.71,-111.484 2203.43,-143.92"/>
<polygon fill="midnightblue" stroke="midnightblue" points="815.06,-94.8959 808.474,-103.195 818.798,-100.814 815.06,-94.8959"/>
</g>
<!-- Node25 -->
<g id="node25" class="node"><title>Node25</title>
<g id="a_node25"><a xlink:href="../../d6/d3b/classboca_1_1TwoBody.html" target="_top" xlink:title="boca::TwoBody\&lt; boca\l::Doublet, boca::Singlet \&gt;">
<polygon fill="white" stroke="black" points="1689.5,-248 1689.5,-278 1817.5,-278 1817.5,-248 1689.5,-248"/>
<text text-anchor="start" x="1697.5" y="-266" font-family="Helvetica,sans-Serif" font-size="10.00">boca::TwoBody&lt; boca</text>
<text text-anchor="middle" x="1753.5" y="-255" font-family="Helvetica,sans-Serif" font-size="10.00">::Doublet, boca::Singlet &gt;</text>
</a>
</g>
</g>
<!-- Node3&#45;&gt;Node25 -->
<g id="edge35" class="edge"><title>Node3&#45;&gt;Node25</title>
<path fill="none" stroke="midnightblue" d="M843.143,-116.434C895.799,-120.144 981.825,-126.292 1056,-132 1170.71,-140.827 1202.57,-124.379 1314,-153 1378.16,-169.481 1387.69,-191.515 1450,-214 1504.67,-233.727 1518.77,-238.878 1576,-249 1613.23,-255.585 1655.43,-259.074 1689.23,-260.922"/>
<polygon fill="midnightblue" stroke="midnightblue" points="843.291,-112.936 833.07,-115.725 842.8,-119.918 843.291,-112.936"/>
</g>
<!-- Node4 -->
<g id="node4" class="node"><title>Node4</title>
<g id="a_node4"><a xlink:href="../../de/d8b/classboca_1_1MultipletBase.html" target="_top" xlink:title="boca::MultipletBase">
<polygon fill="white" stroke="black" points="403,-144.5 403,-163.5 506,-163.5 506,-144.5 403,-144.5"/>
<text text-anchor="middle" x="454.5" y="-151.5" font-family="Helvetica,sans-Serif" font-size="10.00">boca::MultipletBase</text>
</a>
</g>
</g>
<!-- Node4&#45;&gt;Node3 -->
<g id="edge3" class="edge"><title>Node4&#45;&gt;Node3</title>
<path fill="none" stroke="midnightblue" d="M516.343,-148.37C573.056,-142.858 659.928,-133.738 735,-123 740.769,-122.175 746.849,-121.21 752.804,-120.212"/>
<polygon fill="midnightblue" stroke="midnightblue" points="515.732,-144.913 506.114,-149.357 516.404,-151.881 515.732,-144.913"/>
</g>
<!-- Node6 -->
<g id="node6" class="node"><title>Node6</title>
<g id="a_node6"><a xlink:href="../../db/def/classboca_1_1Singlet.html" target="_top" xlink:title="Thin wrapper to make Jet behave like a Multiplet. Additionally this class astracts away the JetInfo u...">
<polygon fill="white" stroke="black" points="606,-185.5 606,-204.5 680,-204.5 680,-185.5 606,-185.5"/>
<text text-anchor="middle" x="643" y="-192.5" font-family="Helvetica,sans-Serif" font-size="10.00">boca::Singlet</text>
</a>
</g>
</g>
<!-- Node4&#45;&gt;Node6 -->
<g id="edge6" class="edge"><title>Node4&#45;&gt;Node6</title>
<path fill="none" stroke="midnightblue" d="M508.582,-165.67C539.718,-172.514 578.241,-180.983 605.875,-187.058"/>
<polygon fill="midnightblue" stroke="midnightblue" points="509.274,-162.238 498.756,-163.509 507.771,-169.075 509.274,-162.238"/>
</g>
<!-- Node5 -->
<g id="node5" class="node"><title>Node5</title>
<g id="a_node5"><a xlink:href="../../d4/de7/classboca_1_1Identification.html" target="_top" xlink:title="boca::Identification">
<polygon fill="white" stroke="black" points="156.5,-176.5 156.5,-195.5 255.5,-195.5 255.5,-176.5 156.5,-176.5"/>
<text text-anchor="middle" x="206" y="-183.5" font-family="Helvetica,sans-Serif" font-size="10.00">boca::Identification</text>
</a>
</g>
</g>
<!-- Node5&#45;&gt;Node4 -->
<g id="edge4" class="edge"><title>Node5&#45;&gt;Node4</title>
<path fill="none" stroke="midnightblue" d="M265.729,-178.376C307.472,-172.957 362.966,-165.753 402.782,-160.584"/>
<polygon fill="midnightblue" stroke="midnightblue" points="265.167,-174.919 255.7,-179.678 266.068,-181.861 265.167,-174.919"/>
</g>
<!-- Node7 -->
<g id="node7" class="node"><title>Node7</title>
<g id="a_node7"><a xlink:href="../../df/d8a/classboca_1_1JetInfo.html" target="_top" xlink:title="Jet infos subclassed from Fastjet. ">
<polygon fill="white" stroke="black" points="417.5,-220.5 417.5,-239.5 491.5,-239.5 491.5,-220.5 417.5,-220.5"/>
<text text-anchor="middle" x="454.5" y="-227.5" font-family="Helvetica,sans-Serif" font-size="10.00">boca::JetInfo</text>
</a>
</g>
</g>
<!-- Node5&#45;&gt;Node7 -->
<g id="edge8" class="edge"><title>Node5&#45;&gt;Node7</title>
<path fill="none" stroke="midnightblue" d="M265.771,-196.491C312.878,-204.899 377.479,-216.43 417.304,-223.539"/>
<polygon fill="midnightblue" stroke="midnightblue" points="266.16,-193.005 255.7,-194.693 264.93,-199.896 266.16,-193.005"/>
</g>
<!-- Node6&#45;&gt;Node3 -->
<g id="edge5" class="edge"><title>Node6&#45;&gt;Node3</title>
<path fill="none" stroke="#9a32cd" stroke-dasharray="5,2" d="M673.133,-180.642C691.137,-171.601 714.616,-159.501 735,-148 749.564,-139.783 765.778,-129.736 777.179,-122.517"/>
<polygon fill="#9a32cd" stroke="#9a32cd" points="671.133,-177.729 663.75,-185.328 674.26,-183.992 671.133,-177.729"/>
<text text-anchor="middle" x="716.5" y="-170" font-family="Helvetica,sans-Serif" font-size="10.00"> singlet_</text>
</g>
<!-- Node6&#45;&gt;Node18 -->
<g id="edge23" class="edge"><title>Node6&#45;&gt;Node18</title>
<path fill="none" stroke="#9a32cd" stroke-dasharray="5,2" d="M690.369,-193.7C798.385,-190.673 1066.82,-183.149 1188.63,-179.734"/>
<polygon fill="#9a32cd" stroke="#9a32cd" points="690.021,-190.209 680.123,-193.987 690.217,-197.206 690.021,-190.209"/>
<text text-anchor="middle" x="879" y="-204" font-family="Helvetica,sans-Serif" font-size="10.00"> multiplet_2_</text>
<text text-anchor="middle" x="879" y="-193" font-family="Helvetica,sans-Serif" font-size="10.00">multiplet_1_</text>
</g>
<!-- Node6&#45;&gt;Node25 -->
<g id="edge37" class="edge"><title>Node6&#45;&gt;Node25</title>
<path fill="none" stroke="#9a32cd" stroke-dasharray="5,2" d="M655.28,-213.415C677.18,-246.595 728.892,-313 792,-313 792,-313 792,-313 1505,-313 1579.11,-313 1597.76,-305.524 1670,-289 1682.88,-286.053 1696.66,-282.06 1709.19,-278.088"/>
<polygon fill="#9a32cd" stroke="#9a32cd" points="658.018,-211.199 649.684,-204.656 652.119,-214.968 658.018,-211.199"/>
<text text-anchor="middle" x="1122.5" y="-316" font-family="Helvetica,sans-Serif" font-size="10.00"> multiplet_2_</text>
</g>
<!-- Node7&#45;&gt;Node6 -->
<g id="edge7" class="edge"><title>Node7&#45;&gt;Node6</title>
<path fill="none" stroke="#9a32cd" stroke-dasharray="5,2" d="M501.759,-223.153C527.276,-219.166 559.48,-213.793 588,-208 593.764,-206.829 599.848,-205.478 605.771,-204.099"/>
<polygon fill="#9a32cd" stroke="#9a32cd" points="500.968,-219.733 491.62,-224.719 502.037,-226.651 500.968,-219.733"/>
<text text-anchor="middle" x="568" y="-219" font-family="Helvetica,sans-Serif" font-size="10.00"> jet_info_</text>
</g>
<!-- Node8 -->
<g id="node8" class="node"><title>Node8</title>
<polygon fill="white" stroke="#bfbfbf" points="158,-215 158,-245 254,-245 254,-215 158,-215"/>
<text text-anchor="start" x="166" y="-233" font-family="Helvetica,sans-Serif" font-size="10.00">fastjet::PseudoJet</text>
<text text-anchor="middle" x="206" y="-222" font-family="Helvetica,sans-Serif" font-size="10.00">::UserInfoBase</text>
</g>
<!-- Node8&#45;&gt;Node7 -->
<g id="edge9" class="edge"><title>Node8&#45;&gt;Node7</title>
<path fill="none" stroke="midnightblue" d="M264.313,-230C311.512,-230 376.995,-230 417.238,-230"/>
<polygon fill="midnightblue" stroke="midnightblue" points="264.236,-226.5 254.236,-230 264.236,-233.5 264.236,-226.5"/>
</g>
<!-- Node9 -->
<g id="node9" class="node"><title>Node9</title>
<g id="a_node9"><a xlink:href="../../d6/d09/classboca_1_1Jet.html" target="_top" xlink:title="boca::Jet">
<polygon fill="white" stroke="black" points="426,-84.5 426,-103.5 483,-103.5 483,-84.5 426,-84.5"/>
<text text-anchor="middle" x="454.5" y="-91.5" font-family="Helvetica,sans-Serif" font-size="10.00">boca::Jet</text>
</a>
</g>
</g>
<!-- Node9&#45;&gt;Node3 -->
<g id="edge16" class="edge"><title>Node9&#45;&gt;Node3</title>
<path fill="none" stroke="#9a32cd" stroke-dasharray="5,2" d="M493.132,-96.1248C557.385,-99.7528 687.615,-107.106 752.875,-110.791"/>
<polygon fill="#9a32cd" stroke="#9a32cd" points="493.219,-92.6242 483.037,-95.5548 492.824,-99.6131 493.219,-92.6242"/>
<text text-anchor="middle" x="643" y="-110" font-family="Helvetica,sans-Serif" font-size="10.00"> jet_</text>
</g>
<!-- Node9&#45;&gt;Node6 -->
<g id="edge10" class="edge"><title>Node9&#45;&gt;Node6</title>
<path fill="none" stroke="#9a32cd" stroke-dasharray="5,2" d="M485.903,-107.943C513.092,-120.694 553.808,-140.486 588,-160 601.972,-167.974 617.312,-178.052 628.059,-185.343"/>
<polygon fill="#9a32cd" stroke="#9a32cd" points="487.078,-104.629 476.535,-103.578 484.121,-110.974 487.078,-104.629"/>
<text text-anchor="middle" x="568" y="-163" font-family="Helvetica,sans-Serif" font-size="10.00"> jet_</text>
</g>
<!-- Node10 -->
<g id="node10" class="node"><title>Node10</title>
<g id="a_node10"><a xlink:href="../../d5/d82/classboca_1_1PseudoJet.html" target="_top" xlink:title="boca::PseudoJet">
<polygon fill="white" stroke="black" points="161,-84.5 161,-103.5 251,-103.5 251,-84.5 161,-84.5"/>
<text text-anchor="middle" x="206" y="-91.5" font-family="Helvetica,sans-Serif" font-size="10.00">boca::PseudoJet</text>
</a>
</g>
</g>
<!-- Node10&#45;&gt;Node9 -->
<g id="edge11" class="edge"><title>Node10&#45;&gt;Node9</title>
<path fill="none" stroke="midnightblue" d="M261.237,-94C312.117,-94 386.154,-94 425.87,-94"/>
<polygon fill="midnightblue" stroke="midnightblue" points="261.069,-90.5001 251.069,-94 261.069,-97.5001 261.069,-90.5001"/>
</g>
<!-- Node11 -->
<g id="node11" class="node"><title>Node11</title>
<polygon fill="white" stroke="#bfbfbf" points="0,-84.5 0,-103.5 96,-103.5 96,-84.5 0,-84.5"/>
<text text-anchor="middle" x="48" y="-91.5" font-family="Helvetica,sans-Serif" font-size="10.00">fastjet::PseudoJet</text>
</g>
<!-- Node11&#45;&gt;Node10 -->
<g id="edge12" class="edge"><title>Node11&#45;&gt;Node10</title>
<path fill="none" stroke="midnightblue" d="M106.327,-94C124.332,-94 143.921,-94 160.864,-94"/>
<polygon fill="midnightblue" stroke="midnightblue" points="106.229,-90.5001 96.2285,-94 106.228,-97.5001 106.229,-90.5001"/>
</g>
<!-- Node12 -->
<g id="node12" class="node"><title>Node12</title>
<g id="a_node12"><a xlink:href="../../d6/dfb/classboca_1_1Vector2.html" target="_top" xlink:title="boca::Vector2\&lt; AngleSquare \&gt;">
<polygon fill="white" stroke="black" points="379,-182.5 379,-201.5 530,-201.5 530,-182.5 379,-182.5"/>
<text text-anchor="middle" x="454.5" y="-189.5" font-family="Helvetica,sans-Serif" font-size="10.00">boca::Vector2&lt; AngleSquare &gt;</text>
</a>
</g>
</g>
<!-- Node12&#45;&gt;Node6 -->
<g id="edge13" class="edge"><title>Node12&#45;&gt;Node6</title>
<path fill="none" stroke="#9a32cd" stroke-dasharray="5,2" d="M540.221,-193.363C563.358,-193.735 587.202,-194.119 605.99,-194.421"/>
<polygon fill="#9a32cd" stroke="#9a32cd" points="540.069,-189.86 530.014,-193.199 539.956,-196.859 540.069,-189.86"/>
<text text-anchor="middle" x="568" y="-198" font-family="Helvetica,sans-Serif" font-size="10.00"> pull_</text>
</g>
<!-- Node13 -->
<g id="node13" class="node"><title>Node13</title>
<g id="a_node13"><a xlink:href="../../d6/dfb/classboca_1_1Vector2.html" target="_top" xlink:title="Copy of root::TVector2 in order to get rid of TObject. ">
<polygon fill="white" stroke="black" points="146,-138.5 146,-157.5 266,-157.5 266,-138.5 146,-138.5"/>
<text text-anchor="middle" x="206" y="-145.5" font-family="Helvetica,sans-Serif" font-size="10.00">boca::Vector2&lt; Value &gt;</text>
</a>
</g>
</g>
<!-- Node13&#45;&gt;Node12 -->
<g id="edge14" class="edge"><title>Node13&#45;&gt;Node12</title>
<path fill="none" stroke="orange" stroke-dasharray="5,2" d="M270.448,-159.325C310.638,-166.499 362.026,-175.672 400.118,-182.471"/>
<polygon fill="orange" stroke="orange" points="270.946,-155.859 260.487,-157.547 269.716,-162.75 270.946,-155.859"/>
<text text-anchor="middle" x="322.5" y="-179" font-family="Helvetica,sans-Serif" font-size="10.00"> &lt; AngleSquare &gt;</text>
</g>
<!-- Node14 -->
<g id="node14" class="node"><title>Node14</title>
<polygon fill="white" stroke="#bfbfbf" points="27.5,-138.5 27.5,-157.5 68.5,-157.5 68.5,-138.5 27.5,-138.5"/>
<text text-anchor="middle" x="48" y="-145.5" font-family="Helvetica,sans-Serif" font-size="10.00">Value</text>
</g>
<!-- Node14&#45;&gt;Node13 -->
<g id="edge15" class="edge"><title>Node14&#45;&gt;Node13</title>
<path fill="none" stroke="#9a32cd" stroke-dasharray="5,2" d="M78.85,-148C97.7794,-148 122.923,-148 145.78,-148"/>
<polygon fill="#9a32cd" stroke="#9a32cd" points="78.7575,-144.5 68.7575,-148 78.7575,-151.5 78.7575,-144.5"/>
<text text-anchor="middle" x="121" y="-162" font-family="Helvetica,sans-Serif" font-size="10.00"> y_</text>
<text text-anchor="middle" x="121" y="-151" font-family="Helvetica,sans-Serif" font-size="10.00">x_</text>
</g>
<!-- Node15 -->
<g id="node15" class="node"><title>Node15</title>
<g id="a_node15"><a xlink:href="../../df/d7b/classboca_1_1Quartet22.html" target="_top" xlink:title="boca::Quartet22">
<polygon fill="white" stroke="black" points="2073,-59.5 2073,-78.5 2159,-78.5 2159,-59.5 2073,-59.5"/>
<text text-anchor="middle" x="2116" y="-66.5" font-family="Helvetica,sans-Serif" font-size="10.00">boca::Quartet22</text>
</a>
</g>
</g>
<!-- Node15&#45;&gt;Node2 -->
<g id="edge17" class="edge"><title>Node15&#45;&gt;Node2</title>
<path fill="none" stroke="#9a32cd" stroke-dasharray="5,2" d="M2169.45,-73.7156C2264.21,-82.2355 2463.16,-100.123 2560.89,-108.91"/>
<polygon fill="#9a32cd" stroke="#9a32cd" points="2169.51,-70.2075 2159.24,-72.7979 2168.89,-77.1794 2169.51,-70.2075"/>
<text text-anchor="middle" x="2348" y="-96" font-family="Helvetica,sans-Serif" font-size="10.00"> multiplet_2_</text>
</g>
<!-- Node16&#45;&gt;Node15 -->
<g id="edge18" class="edge"><title>Node16&#45;&gt;Node15</title>
<path fill="none" stroke="midnightblue" d="M1829.53,-81.6701C1903.31,-78.3955 2013.28,-73.5147 2072.9,-70.8686"/>
<polygon fill="midnightblue" stroke="midnightblue" points="1829.2,-78.181 1819.37,-82.121 1829.51,-85.1741 1829.2,-78.181"/>
</g>
<!-- Node17 -->
<g id="node17" class="node"><title>Node17</title>
<g id="a_node17"><a xlink:href="../../d4/d01/classboca_1_1Doublet.html" target="_top" xlink:title="boca::Doublet">
<polygon fill="white" stroke="black" points="1465.5,-147.5 1465.5,-166.5 1542.5,-166.5 1542.5,-147.5 1465.5,-147.5"/>
<text text-anchor="middle" x="1504" y="-154.5" font-family="Helvetica,sans-Serif" font-size="10.00">boca::Doublet</text>
</a>
</g>
</g>
<!-- Node17&#45;&gt;Node16 -->
<g id="edge20" class="edge"><title>Node17&#45;&gt;Node16</title>
<path fill="none" stroke="#9a32cd" stroke-dasharray="5,2" d="M1530.98,-142.745C1544.16,-135.989 1560.6,-128.264 1576,-123 1596.47,-116.005 1646.16,-105.509 1687.62,-97.3197"/>
<polygon fill="#9a32cd" stroke="#9a32cd" points="1529.26,-139.699 1522.03,-147.445 1532.51,-145.898 1529.26,-139.699"/>
<text text-anchor="middle" x="1623" y="-137" font-family="Helvetica,sans-Serif" font-size="10.00"> multiplet_2_</text>
<text text-anchor="middle" x="1623" y="-126" font-family="Helvetica,sans-Serif" font-size="10.00">multiplet_1_</text>
</g>
<!-- Node17&#45;&gt;Node23 -->
<g id="edge32" class="edge"><title>Node17&#45;&gt;Node23</title>
<path fill="none" stroke="#9a32cd" stroke-dasharray="5,2" d="M1552.94,-157.131C1681.5,-157.481 2033.87,-158.442 2176.92,-158.832"/>
<polygon fill="#9a32cd" stroke="#9a32cd" points="1552.65,-153.63 1542.64,-157.103 1552.63,-160.63 1552.65,-153.63"/>
<text text-anchor="middle" x="1901.5" y="-162" font-family="Helvetica,sans-Serif" font-size="10.00"> multiplet_2_</text>
</g>
<!-- Node17&#45;&gt;Node25 -->
<g id="edge36" class="edge"><title>Node17&#45;&gt;Node25</title>
<path fill="none" stroke="#9a32cd" stroke-dasharray="5,2" d="M1551.76,-171.183C1553.98,-172.638 1556.08,-174.239 1558,-176 1572.08,-188.891 1561.27,-202.86 1576,-215 1609.19,-242.35 1628.51,-226.648 1670,-238 1681.12,-241.042 1693.01,-244.515 1704.2,-247.886"/>
<polygon fill="#9a32cd" stroke="#9a32cd" points="1553.21,-167.985 1542.75,-166.269 1549.85,-174.131 1553.21,-167.985"/>
<text text-anchor="middle" x="1623" y="-241" font-family="Helvetica,sans-Serif" font-size="10.00"> multiplet_1_</text>
</g>
<!-- Node18&#45;&gt;Node17 -->
<g id="edge21" class="edge"><title>Node18&#45;&gt;Node17</title>
<path fill="none" stroke="midnightblue" d="M1324.32,-171.979C1370.34,-168.121 1428.2,-163.271 1465.39,-160.153"/>
<polygon fill="midnightblue" stroke="midnightblue" points="1323.77,-168.513 1314.1,-172.836 1324.36,-175.488 1323.77,-168.513"/>
</g>
<!-- Node19&#45;&gt;Node2 -->
<g id="edge42" class="edge"><title>Node19&#45;&gt;Node2</title>
<path fill="none" stroke="orange" stroke-dasharray="5,2" d="M1005.83,-283.816C1020.25,-305.624 1044.54,-337.01 1074,-354 1143.28,-393.952 1170.53,-389 1250.5,-389 1250.5,-389 1250.5,-389 2432.5,-389 2558.8,-389 2604.52,-186.828 2614.99,-129.177"/>
<polygon fill="orange" stroke="orange" points="1008.6,-281.662 1000.26,-275.127 1002.71,-285.436 1008.6,-281.662"/>
<text text-anchor="middle" x="1901.5" y="-392" font-family="Helvetica,sans-Serif" font-size="10.00"> &lt; boca::Quintet, Quartet22 &gt;</text>
</g>
<!-- Node19&#45;&gt;Node16 -->
<g id="edge28" class="edge"><title>Node19&#45;&gt;Node16</title>
<path fill="none" stroke="orange" stroke-dasharray="5,2" d="M1066.38,-251.075C1098.67,-246.838 1136.8,-241.315 1171,-235 1235.14,-223.156 1252.36,-223.341 1314,-202 1377.13,-180.143 1387.37,-161.245 1450,-138 1504.49,-117.776 1518.89,-113.765 1576,-103 1612.78,-96.0686 1654.4,-91.6621 1687.99,-88.9451"/>
<polygon fill="orange" stroke="orange" points="1065.58,-247.649 1056.11,-252.405 1066.48,-254.591 1065.58,-247.649"/>
<text text-anchor="middle" x="1382" y="-199" font-family="Helvetica,sans-Serif" font-size="10.00"> &lt; Doublet, Doublet &gt;</text>
</g>
<!-- Node19&#45;&gt;Node18 -->
<g id="edge24" class="edge"><title>Node19&#45;&gt;Node18</title>
<path fill="none" stroke="orange" stroke-dasharray="5,2" d="M1022.16,-239.38C1037.22,-230.091 1055.96,-219.723 1074,-213 1094.71,-205.28 1146.45,-195.402 1188.59,-188.109"/>
<polygon fill="orange" stroke="orange" points="1019.88,-236.679 1013.3,-244.982 1023.63,-242.596 1019.88,-236.679"/>
<text text-anchor="start" x="1074" y="-227" font-family="Helvetica,sans-Serif" font-size="10.00"> &lt; boca::Singlet, boca</text>
<text text-anchor="middle" x="1122.5" y="-216" font-family="Helvetica,sans-Serif" font-size="10.00">::Singlet &gt;</text>
</g>
<!-- Node19&#45;&gt;Node23 -->
<g id="edge41" class="edge"><title>Node19&#45;&gt;Node23</title>
<path fill="none" stroke="orange" stroke-dasharray="5,2" d="M1011.69,-282.268C1027.15,-297.789 1049.86,-317.522 1074,-328 1146.57,-359.494 1171.39,-351 1250.5,-351 1250.5,-351 1250.5,-351 2020.5,-351 2127.42,-351 2206.76,-219.328 2230.87,-174.066"/>
<polygon fill="orange" stroke="orange" points="1014.18,-279.805 1004.71,-275.046 1009.15,-284.67 1014.18,-279.805"/>
<text text-anchor="start" x="1576" y="-365" font-family="Helvetica,sans-Serif" font-size="10.00"> &lt; boca::Triplet, boca</text>
<text text-anchor="middle" x="1623" y="-354" font-family="Helvetica,sans-Serif" font-size="10.00">::Doublet &gt;</text>
</g>
<!-- Node19&#45;&gt;Node25 -->
<g id="edge38" class="edge"><title>Node19&#45;&gt;Node25</title>
<path fill="none" stroke="orange" stroke-dasharray="5,2" d="M1066.47,-262.37C1177.68,-265.755 1392.93,-271.808 1576,-274 1617.77,-274.5 1628.31,-276.767 1670,-274 1676.2,-273.589 1682.64,-273.005 1689.08,-272.319"/>
<polygon fill="orange" stroke="orange" points="1066.46,-258.868 1056.36,-262.061 1066.25,-265.865 1066.46,-258.868"/>
<text text-anchor="start" x="1332" y="-286" font-family="Helvetica,sans-Serif" font-size="10.00"> &lt; boca::Doublet, boca</text>
<text text-anchor="middle" x="1382" y="-275" font-family="Helvetica,sans-Serif" font-size="10.00">::Singlet &gt;</text>
</g>
<!-- Node20 -->
<g id="node20" class="node"><title>Node20</title>
<polygon fill="white" stroke="#bfbfbf" points="761,-227.5 761,-246.5 825,-246.5 825,-227.5 761,-227.5"/>
<text text-anchor="middle" x="793" y="-234.5" font-family="Helvetica,sans-Serif" font-size="10.00">Multiplet_1</text>
</g>
<!-- Node20&#45;&gt;Node19 -->
<g id="edge26" class="edge"><title>Node20&#45;&gt;Node19</title>
<path fill="none" stroke="#9a32cd" stroke-dasharray="5,2" d="M835.655,-241.901C861.619,-244.955 895.564,-248.949 924.961,-252.407"/>
<polygon fill="#9a32cd" stroke="#9a32cd" points="835.751,-238.388 825.41,-240.695 834.933,-245.34 835.751,-238.388"/>
<text text-anchor="middle" x="879" y="-253" font-family="Helvetica,sans-Serif" font-size="10.00"> multiplet_1_</text>
</g>
<!-- Node21 -->
<g id="node21" class="node"><title>Node21</title>
<polygon fill="white" stroke="#bfbfbf" points="761,-265.5 761,-284.5 825,-284.5 825,-265.5 761,-265.5"/>
<text text-anchor="middle" x="793" y="-272.5" font-family="Helvetica,sans-Serif" font-size="10.00">Multiplet_2</text>
</g>
<!-- Node21&#45;&gt;Node19 -->
<g id="edge27" class="edge"><title>Node21&#45;&gt;Node19</title>
<path fill="none" stroke="#9a32cd" stroke-dasharray="5,2" d="M835.655,-271.804C861.619,-269.812 895.564,-267.207 924.961,-264.952"/>
<polygon fill="#9a32cd" stroke="#9a32cd" points="835.113,-268.335 825.41,-272.59 835.649,-275.315 835.113,-268.335"/>
<text text-anchor="middle" x="879" y="-274" font-family="Helvetica,sans-Serif" font-size="10.00"> multiplet_2_</text>
</g>
<!-- Node22 -->
<g id="node22" class="node"><title>Node22</title>
<g id="a_node22"><a xlink:href="../../d6/d72/classboca_1_1Quintet.html" target="_top" xlink:title="boca::Quintet">
<polygon fill="white" stroke="black" points="2394,-130.5 2394,-149.5 2469,-149.5 2469,-130.5 2394,-130.5"/>
<text text-anchor="middle" x="2431.5" y="-137.5" font-family="Helvetica,sans-Serif" font-size="10.00">boca::Quintet</text>
</a>
</g>
</g>
<!-- Node22&#45;&gt;Node2 -->
<g id="edge29" class="edge"><title>Node22&#45;&gt;Node2</title>
<path fill="none" stroke="#9a32cd" stroke-dasharray="5,2" d="M2478.97,-133.469C2503.86,-129.971 2534.72,-125.634 2560.99,-121.942"/>
<polygon fill="#9a32cd" stroke="#9a32cd" points="2478.47,-130.005 2469.05,-134.863 2479.44,-136.937 2478.47,-130.005"/>
<text text-anchor="middle" x="2515" y="-136" font-family="Helvetica,sans-Serif" font-size="10.00"> multiplet_1_</text>
</g>
<!-- Node23&#45;&gt;Node22 -->
<g id="edge30" class="edge"><title>Node23&#45;&gt;Node22</title>
<path fill="none" stroke="midnightblue" d="M2312.27,-151.823C2340.05,-149.045 2370.64,-145.986 2393.75,-143.675"/>
<polygon fill="midnightblue" stroke="midnightblue" points="2311.79,-148.353 2302.19,-152.831 2312.49,-155.319 2311.79,-148.353"/>
</g>
<!-- Node24 -->
<g id="node24" class="node"><title>Node24</title>
<g id="a_node24"><a xlink:href="../../de/dad/classboca_1_1Triplet.html" target="_top" xlink:title="boca::Triplet">
<polygon fill="white" stroke="black" points="1984,-187.5 1984,-206.5 2055,-206.5 2055,-187.5 1984,-187.5"/>
<text text-anchor="middle" x="2019.5" y="-194.5" font-family="Helvetica,sans-Serif" font-size="10.00">boca::Triplet</text>
</a>
</g>
</g>
<!-- Node24&#45;&gt;Node23 -->
<g id="edge33" class="edge"><title>Node24&#45;&gt;Node23</title>
<path fill="none" stroke="#9a32cd" stroke-dasharray="5,2" d="M2065.2,-189.286C2092.33,-184.596 2127.67,-178.474 2159,-173 2164.8,-171.987 2170.83,-170.93 2176.87,-169.87"/>
<polygon fill="#9a32cd" stroke="#9a32cd" points="2064.48,-185.858 2055.23,-191.01 2065.68,-192.756 2064.48,-185.858"/>
<text text-anchor="middle" x="2116" y="-191" font-family="Helvetica,sans-Serif" font-size="10.00"> multiplet_1_</text>
</g>
<!-- Node25&#45;&gt;Node24 -->
<g id="edge34" class="edge"><title>Node25&#45;&gt;Node24</title>
<path fill="none" stroke="midnightblue" d="M1827.47,-246.195C1868.32,-236.59 1920.11,-224.083 1966,-212 1972.42,-210.31 1979.25,-208.423 1985.79,-206.573"/>
<polygon fill="midnightblue" stroke="midnightblue" points="1826.54,-242.819 1817.6,-248.509 1828.14,-249.634 1826.54,-242.819"/>
</g>
<!-- Node26 -->
<g id="node26" class="node"><title>Node26</title>
<g id="a_node26"><a xlink:href="../../db/d9b/classboca_1_1SubJettiness.html" target="_top" xlink:title="boca::SubJettiness">
<polygon fill="white" stroke="black" points="1703,-187.5 1703,-206.5 1804,-206.5 1804,-187.5 1703,-187.5"/>
<text text-anchor="middle" x="1753.5" y="-194.5" font-family="Helvetica,sans-Serif" font-size="10.00">boca::SubJettiness</text>
</a>
</g>
</g>
<!-- Node26&#45;&gt;Node24 -->
<g id="edge39" class="edge"><title>Node26&#45;&gt;Node24</title>
<path fill="none" stroke="#9a32cd" stroke-dasharray="5,2" d="M1814.31,-197C1866.61,-197 1940.73,-197 1983.8,-197"/>
<polygon fill="#9a32cd" stroke="#9a32cd" points="1814.16,-193.5 1804.16,-197 1814.16,-200.5 1814.16,-193.5"/>
<text text-anchor="middle" x="1901.5" y="-200" font-family="Helvetica,sans-Serif" font-size="10.00"> sub_jettiness_</text>
</g>
<!-- Node27 -->
<g id="node27" class="node"><title>Node27</title>
<g id="a_node27"><a xlink:href="../../d1/d2f/classboca_1_1NSubJettiness.html" target="_top" xlink:title="boca::NSubJettiness">
<polygon fill="white" stroke="black" points="1450,-185.5 1450,-204.5 1558,-204.5 1558,-185.5 1450,-185.5"/>
<text text-anchor="middle" x="1504" y="-192.5" font-family="Helvetica,sans-Serif" font-size="10.00">boca::NSubJettiness</text>
</a>
</g>
</g>
<!-- Node27&#45;&gt;Node26 -->
<g id="edge40" class="edge"><title>Node27&#45;&gt;Node26</title>
<path fill="none" stroke="#9a32cd" stroke-dasharray="5,2" d="M1568.27,-193.127C1570.88,-193.079 1573.46,-193.036 1576,-193 1617.77,-192.412 1628.23,-191.988 1670,-193 1680.61,-193.257 1691.98,-193.7 1702.78,-194.199"/>
<polygon fill="#9a32cd" stroke="#9a32cd" points="1568.04,-189.631 1558.11,-193.341 1568.18,-196.63 1568.04,-189.631"/>
<text text-anchor="middle" x="1623" y="-207" font-family="Helvetica,sans-Serif" font-size="10.00"> beta_2_</text>
<text text-anchor="middle" x="1623" y="-196" font-family="Helvetica,sans-Serif" font-size="10.00">beta_1_</text>
</g>
</g>
</svg>
