<?xml version="1.0" encoding="UTF-8" standalone="no"?>
<!DOCTYPE svg PUBLIC "-//W3C//DTD SVG 1.1//EN"
 "http://www.w3.org/Graphics/SVG/1.1/DTD/svg11.dtd">
<!-- Generated by graphviz version 2.38.0 (20140413.2041)
 -->
<!-- Title: boca::Sextet Pages: 1 -->
<svg width="2311pt" height="277pt"
 viewBox="0.00 0.00 2311.00 277.00" xmlns="http://www.w3.org/2000/svg" xmlns:xlink="http://www.w3.org/1999/xlink">
<g id="graph0" class="graph" transform="scale(1 1) rotate(0) translate(4 273)">
<title>boca::Sextet</title>
<polygon fill="white" stroke="none" points="-4,4 -4,-273 2307,-273 2307,4 -4,4"/>
<!-- Node1 -->
<g id="node1" class="node"><title>Node1</title>
<polygon fill="#bfbfbf" stroke="black" points="2231,-221.5 2231,-240.5 2303,-240.5 2303,-221.5 2231,-221.5"/>
<text text-anchor="middle" x="2267" y="-228.5" font-family="Helvetica,sans-Serif" font-size="10.00">boca::Sextet</text>
</g>
<!-- Node2 -->
<g id="node2" class="node"><title>Node2</title>
<g id="a_node2"><a xlink:href="../../d6/d3b/classboca_1_1TwoBody.html" target="_top" xlink:title="boca::TwoBody\&lt; Triplet,\l Triplet \&gt;">
<polygon fill="white" stroke="black" points="2070,-216 2070,-246 2194,-246 2194,-216 2070,-216"/>
<text text-anchor="start" x="2078" y="-234" font-family="Helvetica,sans-Serif" font-size="10.00">boca::TwoBody&lt; Triplet,</text>
<text text-anchor="middle" x="2132" y="-223" font-family="Helvetica,sans-Serif" font-size="10.00"> Triplet &gt;</text>
</a>
</g>
</g>
<!-- Node2&#45;&gt;Node1 -->
<g id="edge1" class="edge"><title>Node2&#45;&gt;Node1</title>
<path fill="none" stroke="midnightblue" d="M2204.08,-231C2213.32,-231 2222.44,-231 2230.72,-231"/>
<polygon fill="midnightblue" stroke="midnightblue" points="2204.05,-227.5 2194.05,-231 2204.05,-234.5 2204.05,-227.5"/>
</g>
<!-- Node3 -->
<g id="node3" class="node"><title>Node3</title>
<g id="a_node3"><a xlink:href="../../d1/d5c/classboca_1_1Multiplet.html" target="_top" xlink:title="boca::Multiplet">
<polygon fill="white" stroke="black" points="753,-161.5 753,-180.5 833,-180.5 833,-161.5 753,-161.5"/>
<text text-anchor="middle" x="793" y="-168.5" font-family="Helvetica,sans-Serif" font-size="10.00">boca::Multiplet</text>
</a>
</g>
</g>
<!-- Node3&#45;&gt;Node2 -->
<g id="edge2" class="edge"><title>Node3&#45;&gt;Node2</title>
<path fill="none" stroke="midnightblue" d="M812.365,-187.579C845.303,-215.527 917.705,-269 989.5,-269 989.5,-269 989.5,-269 1943.5,-269 1991.99,-269 2046.16,-256.64 2083.75,-246.019"/>
<polygon fill="midnightblue" stroke="midnightblue" points="814.354,-184.671 804.509,-180.755 809.764,-189.955 814.354,-184.671"/>
</g>
<!-- Node16 -->
<g id="node16" class="node"><title>Node16</title>
<g id="a_node16"><a xlink:href="../../d6/d3b/classboca_1_1TwoBody.html" target="_top" xlink:title="boca::TwoBody\&lt; boca\l::Doublet, boca::Singlet \&gt;">
<polygon fill="white" stroke="black" points="1676,-102 1676,-132 1804,-132 1804,-102 1676,-102"/>
<text text-anchor="start" x="1684" y="-120" font-family="Helvetica,sans-Serif" font-size="10.00">boca::TwoBody&lt; boca</text>
<text text-anchor="middle" x="1740" y="-109" font-family="Helvetica,sans-Serif" font-size="10.00">::Doublet, boca::Singlet &gt;</text>
</a>
</g>
</g>
<!-- Node3&#45;&gt;Node16 -->
<g id="edge19" class="edge"><title>Node3&#45;&gt;Node16</title>
<path fill="none" stroke="midnightblue" d="M843.292,-176.513C845.897,-176.703 848.479,-176.868 851,-177 875.855,-178.305 882.122,-177.734 907,-177 1140.64,-170.108 1198.69,-160.115 1432,-146 1532.45,-139.923 1558.12,-144.296 1658,-132 1663.82,-131.284 1669.85,-130.412 1675.88,-129.453"/>
<polygon fill="midnightblue" stroke="midnightblue" points="843.461,-173.015 833.205,-175.673 842.88,-179.991 843.461,-173.015"/>
</g>
<!-- Node18 -->
<g id="node18" class="node"><title>Node18</title>
<g id="a_node18"><a xlink:href="../../d6/d3b/classboca_1_1TwoBody.html" target="_top" xlink:title="boca::TwoBody\&lt; boca\l::Singlet, boca::Singlet \&gt;">
<polygon fill="white" stroke="black" points="1189,-58 1189,-88 1314,-88 1314,-58 1189,-58"/>
<text text-anchor="start" x="1197" y="-76" font-family="Helvetica,sans-Serif" font-size="10.00">boca::TwoBody&lt; boca</text>
<text text-anchor="middle" x="1251.5" y="-65" font-family="Helvetica,sans-Serif" font-size="10.00">::Singlet, boca::Singlet &gt;</text>
</a>
</g>
</g>
<!-- Node3&#45;&gt;Node18 -->
<g id="edge22" class="edge"><title>Node3&#45;&gt;Node18</title>
<path fill="none" stroke="midnightblue" d="M843.259,-166.24C863.068,-164.317 886.121,-162.067 907,-160 973.233,-153.442 990.902,-158.857 1056,-145 1108.65,-133.793 1120.65,-126.045 1171,-107 1186.3,-101.211 1202.99,-94.1878 1217.1,-88.0309"/>
<polygon fill="midnightblue" stroke="midnightblue" points="842.84,-162.765 833.225,-167.214 843.516,-169.732 842.84,-162.765"/>
</g>
<!-- Node19 -->
<g id="node19" class="node"><title>Node19</title>
<g id="a_node19"><a xlink:href="../../d6/d3b/classboca_1_1TwoBody.html" target="_top" xlink:title="boca::TwoBody\&lt; Multiplet\l_1, Multiplet_2 \&gt;">
<polygon fill="white" stroke="black" points="925,-106 925,-136 1056,-136 1056,-106 925,-106"/>
<text text-anchor="start" x="933" y="-124" font-family="Helvetica,sans-Serif" font-size="10.00">boca::TwoBody&lt; Multiplet</text>
<text text-anchor="middle" x="990.5" y="-113" font-family="Helvetica,sans-Serif" font-size="10.00">_1, Multiplet_2 &gt;</text>
</a>
</g>
</g>
<!-- Node3&#45;&gt;Node19 -->
<g id="edge25" class="edge"><title>Node3&#45;&gt;Node19</title>
<path fill="none" stroke="midnightblue" d="M841.153,-158.94C868.005,-152.073 901.889,-143.407 930.492,-136.091"/>
<polygon fill="midnightblue" stroke="midnightblue" points="840.053,-155.609 831.232,-161.478 841.788,-162.391 840.053,-155.609"/>
</g>
<!-- Node4 -->
<g id="node4" class="node"><title>Node4</title>
<g id="a_node4"><a xlink:href="../../de/d8b/classboca_1_1MultipletBase.html" target="_top" xlink:title="boca::MultipletBase">
<polygon fill="white" stroke="black" points="403,-132.5 403,-151.5 506,-151.5 506,-132.5 403,-132.5"/>
<text text-anchor="middle" x="454.5" y="-139.5" font-family="Helvetica,sans-Serif" font-size="10.00">boca::MultipletBase</text>
</a>
</g>
</g>
<!-- Node4&#45;&gt;Node3 -->
<g id="edge3" class="edge"><title>Node4&#45;&gt;Node3</title>
<path fill="none" stroke="midnightblue" d="M516.488,-147.256C585.201,-153.178 694.852,-162.628 752.937,-167.633"/>
<polygon fill="midnightblue" stroke="midnightblue" points="516.505,-143.745 506.242,-146.373 515.904,-150.719 516.505,-143.745"/>
</g>
<!-- Node6 -->
<g id="node6" class="node"><title>Node6</title>
<g id="a_node6"><a xlink:href="../../db/def/classboca_1_1Singlet.html" target="_top" xlink:title="Thin wrapper to make Jet behave like a Multiplet. Additionally this class astracts away the JetInfo u...">
<polygon fill="white" stroke="black" points="606,-37.5 606,-56.5 680,-56.5 680,-37.5 606,-37.5"/>
<text text-anchor="middle" x="643" y="-44.5" font-family="Helvetica,sans-Serif" font-size="10.00">boca::Singlet</text>
</a>
</g>
</g>
<!-- Node4&#45;&gt;Node6 -->
<g id="edge6" class="edge"><title>Node4&#45;&gt;Node6</title>
<path fill="none" stroke="midnightblue" d="M491.996,-128.826C519.209,-118.408 556.888,-102.703 588,-85 602.945,-76.4961 618.916,-64.9114 629.579,-56.7759"/>
<polygon fill="midnightblue" stroke="midnightblue" points="490.596,-125.614 482.476,-132.42 493.068,-132.163 490.596,-125.614"/>
</g>
<!-- Node5 -->
<g id="node5" class="node"><title>Node5</title>
<g id="a_node5"><a xlink:href="../../d4/de7/classboca_1_1Identification.html" target="_top" xlink:title="boca::Identification">
<polygon fill="white" stroke="black" points="156.5,-129.5 156.5,-148.5 255.5,-148.5 255.5,-129.5 156.5,-129.5"/>
<text text-anchor="middle" x="206" y="-136.5" font-family="Helvetica,sans-Serif" font-size="10.00">boca::Identification</text>
</a>
</g>
</g>
<!-- Node5&#45;&gt;Node4 -->
<g id="edge4" class="edge"><title>Node5&#45;&gt;Node4</title>
<path fill="none" stroke="midnightblue" d="M265.729,-139.715C307.472,-140.223 362.966,-140.898 402.782,-141.383"/>
<polygon fill="midnightblue" stroke="midnightblue" points="265.742,-136.215 255.7,-139.593 265.657,-143.214 265.742,-136.215"/>
</g>
<!-- Node7 -->
<g id="node7" class="node"><title>Node7</title>
<g id="a_node7"><a xlink:href="../../df/d8a/classboca_1_1JetInfo.html" target="_top" xlink:title="Jet infos subclassed from Fastjet. ">
<polygon fill="white" stroke="black" points="417.5,-82.5 417.5,-101.5 491.5,-101.5 491.5,-82.5 417.5,-82.5"/>
<text text-anchor="middle" x="454.5" y="-89.5" font-family="Helvetica,sans-Serif" font-size="10.00">boca::JetInfo</text>
</a>
</g>
</g>
<!-- Node5&#45;&gt;Node7 -->
<g id="edge8" class="edge"><title>Node5&#45;&gt;Node7</title>
<path fill="none" stroke="midnightblue" d="M265.771,-127.794C312.878,-118.812 377.479,-106.495 417.304,-98.9015"/>
<polygon fill="midnightblue" stroke="midnightblue" points="264.868,-124.403 255.7,-129.714 266.179,-131.279 264.868,-124.403"/>
</g>
<!-- Node6&#45;&gt;Node3 -->
<g id="edge5" class="edge"><title>Node6&#45;&gt;Node3</title>
<path fill="none" stroke="#9a32cd" stroke-dasharray="5,2" d="M673.776,-61.2928C693.17,-71.7843 717.944,-87.5659 735,-107 747.063,-120.744 741.093,-130.12 753,-144 758.898,-150.876 766.928,-156.827 774.169,-161.38"/>
<polygon fill="#9a32cd" stroke="#9a32cd" points="675.229,-58.1031 664.745,-56.5745 671.988,-64.3074 675.229,-58.1031"/>
<text text-anchor="middle" x="716.5" y="-110" font-family="Helvetica,sans-Serif" font-size="10.00"> singlet_</text>
</g>
<!-- Node6&#45;&gt;Node16 -->
<g id="edge28" class="edge"><title>Node6&#45;&gt;Node16</title>
<path fill="none" stroke="#9a32cd" stroke-dasharray="5,2" d="M673.871,-33.6034C703.297,-21.6425 749.84,-6 792,-6 792,-6 792,-6 1505,-6 1593.35,-6 1683.94,-71.3986 1721.27,-101.799"/>
<polygon fill="#9a32cd" stroke="#9a32cd" points="672.453,-30.4025 664.578,-37.4907 675.155,-36.8602 672.453,-30.4025"/>
<text text-anchor="middle" x="1122.5" y="-9" font-family="Helvetica,sans-Serif" font-size="10.00"> multiplet_2_</text>
</g>
<!-- Node6&#45;&gt;Node18 -->
<g id="edge23" class="edge"><title>Node6&#45;&gt;Node18</title>
<path fill="none" stroke="#9a32cd" stroke-dasharray="5,2" d="M690.194,-47.8615C781.916,-49.7499 993.488,-54.9925 1171,-66 1176.81,-66.3602 1182.85,-66.7906 1188.89,-67.2585"/>
<polygon fill="#9a32cd" stroke="#9a32cd" points="690.201,-44.361 680.132,-47.658 690.059,-51.3596 690.201,-44.361"/>
<text text-anchor="middle" x="879" y="-68" font-family="Helvetica,sans-Serif" font-size="10.00"> multiplet_2_</text>
<text text-anchor="middle" x="879" y="-57" font-family="Helvetica,sans-Serif" font-size="10.00">multiplet_1_</text>
</g>
<!-- Node7&#45;&gt;Node6 -->
<g id="edge7" class="edge"><title>Node7&#45;&gt;Node6</title>
<path fill="none" stroke="#9a32cd" stroke-dasharray="5,2" d="M501.937,-80.7954C534.011,-73.0563 576.063,-62.9097 605.69,-55.7611"/>
<polygon fill="#9a32cd" stroke="#9a32cd" points="500.802,-77.4687 491.902,-83.2167 502.444,-84.2735 500.802,-77.4687"/>
<text text-anchor="middle" x="568" y="-73" font-family="Helvetica,sans-Serif" font-size="10.00"> jet_info_</text>
</g>
<!-- Node8 -->
<g id="node8" class="node"><title>Node8</title>
<polygon fill="white" stroke="#bfbfbf" points="158,-77 158,-107 254,-107 254,-77 158,-77"/>
<text text-anchor="start" x="166" y="-95" font-family="Helvetica,sans-Serif" font-size="10.00">fastjet::PseudoJet</text>
<text text-anchor="middle" x="206" y="-84" font-family="Helvetica,sans-Serif" font-size="10.00">::UserInfoBase</text>
</g>
<!-- Node8&#45;&gt;Node7 -->
<g id="edge9" class="edge"><title>Node8&#45;&gt;Node7</title>
<path fill="none" stroke="midnightblue" d="M264.313,-92C311.512,-92 376.995,-92 417.238,-92"/>
<polygon fill="midnightblue" stroke="midnightblue" points="264.236,-88.5001 254.236,-92 264.236,-95.5001 264.236,-88.5001"/>
</g>
<!-- Node9 -->
<g id="node9" class="node"><title>Node9</title>
<g id="a_node9"><a xlink:href="../../d6/d09/classboca_1_1Jet.html" target="_top" xlink:title="boca::Jet">
<polygon fill="white" stroke="black" points="426,-38.5 426,-57.5 483,-57.5 483,-38.5 426,-38.5"/>
<text text-anchor="middle" x="454.5" y="-45.5" font-family="Helvetica,sans-Serif" font-size="10.00">boca::Jet</text>
</a>
</g>
</g>
<!-- Node9&#45;&gt;Node3 -->
<g id="edge16" class="edge"><title>Node9&#45;&gt;Node3</title>
<path fill="none" stroke="#9a32cd" stroke-dasharray="5,2" d="M492.909,-58.4176C505.016,-62.3478 518.325,-67.2752 530,-73 538.633,-77.233 539.399,-80.702 548,-85 618.713,-120.337 707.524,-147.734 756.125,-161.406"/>
<polygon fill="#9a32cd" stroke="#9a32cd" points="493.672,-54.9895 483.083,-55.3552 491.589,-61.6724 493.672,-54.9895"/>
<text text-anchor="middle" x="643" y="-141" font-family="Helvetica,sans-Serif" font-size="10.00"> jet_</text>
</g>
<!-- Node9&#45;&gt;Node6 -->
<g id="edge10" class="edge"><title>Node9&#45;&gt;Node6</title>
<path fill="none" stroke="#9a32cd" stroke-dasharray="5,2" d="M493.131,-47.7982C525.962,-47.6222 573.286,-47.3684 605.713,-47.1946"/>
<polygon fill="#9a32cd" stroke="#9a32cd" points="493,-44.2988 483.019,-47.8524 493.037,-51.2987 493,-44.2988"/>
<text text-anchor="middle" x="568" y="-51" font-family="Helvetica,sans-Serif" font-size="10.00"> jet_</text>
</g>
<!-- Node10 -->
<g id="node10" class="node"><title>Node10</title>
<g id="a_node10"><a xlink:href="../../d5/d82/classboca_1_1PseudoJet.html" target="_top" xlink:title="boca::PseudoJet">
<polygon fill="white" stroke="black" points="161,-38.5 161,-57.5 251,-57.5 251,-38.5 161,-38.5"/>
<text text-anchor="middle" x="206" y="-45.5" font-family="Helvetica,sans-Serif" font-size="10.00">boca::PseudoJet</text>
</a>
</g>
</g>
<!-- Node10&#45;&gt;Node9 -->
<g id="edge11" class="edge"><title>Node10&#45;&gt;Node9</title>
<path fill="none" stroke="midnightblue" d="M261.237,-48C312.117,-48 386.154,-48 425.87,-48"/>
<polygon fill="midnightblue" stroke="midnightblue" points="261.069,-44.5001 251.069,-48 261.069,-51.5001 261.069,-44.5001"/>
</g>
<!-- Node11 -->
<g id="node11" class="node"><title>Node11</title>
<polygon fill="white" stroke="#bfbfbf" points="0,-38.5 0,-57.5 96,-57.5 96,-38.5 0,-38.5"/>
<text text-anchor="middle" x="48" y="-45.5" font-family="Helvetica,sans-Serif" font-size="10.00">fastjet::PseudoJet</text>
</g>
<!-- Node11&#45;&gt;Node10 -->
<g id="edge12" class="edge"><title>Node11&#45;&gt;Node10</title>
<path fill="none" stroke="midnightblue" d="M106.327,-48C124.332,-48 143.921,-48 160.864,-48"/>
<polygon fill="midnightblue" stroke="midnightblue" points="106.229,-44.5001 96.2285,-48 106.228,-51.5001 106.229,-44.5001"/>
</g>
<!-- Node12 -->
<g id="node12" class="node"><title>Node12</title>
<g id="a_node12"><a xlink:href="../../d6/dfb/classboca_1_1Vector2.html" target="_top" xlink:title="boca::Vector2\&lt; AngleSquare \&gt;">
<polygon fill="white" stroke="black" points="379,-0.5 379,-19.5 530,-19.5 530,-0.5 379,-0.5"/>
<text text-anchor="middle" x="454.5" y="-7.5" font-family="Helvetica,sans-Serif" font-size="10.00">boca::Vector2&lt; AngleSquare &gt;</text>
</a>
</g>
</g>
<!-- Node12&#45;&gt;Node6 -->
<g id="edge13" class="edge"><title>Node12&#45;&gt;Node6</title>
<path fill="none" stroke="#9a32cd" stroke-dasharray="5,2" d="M526.652,-21.2486C546.568,-24.6961 568.185,-28.719 588,-33 594.153,-34.3294 600.663,-35.8862 606.952,-37.4693"/>
<polygon fill="#9a32cd" stroke="#9a32cd" points="527.166,-17.7859 516.719,-19.5521 525.987,-24.686 527.166,-17.7859"/>
<text text-anchor="middle" x="568" y="-36" font-family="Helvetica,sans-Serif" font-size="10.00"> pull_</text>
</g>
<!-- Node13 -->
<g id="node13" class="node"><title>Node13</title>
<g id="a_node13"><a xlink:href="../../d6/dfb/classboca_1_1Vector2.html" target="_top" xlink:title="Copy of root::TVector2 in order to get rid of TObject. ">
<polygon fill="white" stroke="black" points="146,-0.5 146,-19.5 266,-19.5 266,-0.5 146,-0.5"/>
<text text-anchor="middle" x="206" y="-7.5" font-family="Helvetica,sans-Serif" font-size="10.00">boca::Vector2&lt; Value &gt;</text>
</a>
</g>
</g>
<!-- Node13&#45;&gt;Node12 -->
<g id="edge14" class="edge"><title>Node13&#45;&gt;Node12</title>
<path fill="none" stroke="orange" stroke-dasharray="5,2" d="M276.173,-10C308.071,-10 345.996,-10 378.571,-10"/>
<polygon fill="orange" stroke="orange" points="276.043,-6.5001 266.043,-10 276.043,-13.5001 276.043,-6.5001"/>
<text text-anchor="middle" x="322.5" y="-13" font-family="Helvetica,sans-Serif" font-size="10.00"> &lt; AngleSquare &gt;</text>
</g>
<!-- Node14 -->
<g id="node14" class="node"><title>Node14</title>
<polygon fill="white" stroke="#bfbfbf" points="27.5,-0.5 27.5,-19.5 68.5,-19.5 68.5,-0.5 27.5,-0.5"/>
<text text-anchor="middle" x="48" y="-7.5" font-family="Helvetica,sans-Serif" font-size="10.00">Value</text>
</g>
<!-- Node14&#45;&gt;Node13 -->
<g id="edge15" class="edge"><title>Node14&#45;&gt;Node13</title>
<path fill="none" stroke="#9a32cd" stroke-dasharray="5,2" d="M78.85,-10C97.7794,-10 122.923,-10 145.78,-10"/>
<polygon fill="#9a32cd" stroke="#9a32cd" points="78.7575,-6.5001 68.7575,-10 78.7575,-13.5001 78.7575,-6.5001"/>
<text text-anchor="middle" x="121" y="-24" font-family="Helvetica,sans-Serif" font-size="10.00"> y_</text>
<text text-anchor="middle" x="121" y="-13" font-family="Helvetica,sans-Serif" font-size="10.00">x_</text>
</g>
<!-- Node15 -->
<g id="node15" class="node"><title>Node15</title>
<g id="a_node15"><a xlink:href="../../de/dad/classboca_1_1Triplet.html" target="_top" xlink:title="boca::Triplet">
<polygon fill="white" stroke="black" points="1907,-176.5 1907,-195.5 1978,-195.5 1978,-176.5 1907,-176.5"/>
<text text-anchor="middle" x="1942.5" y="-183.5" font-family="Helvetica,sans-Serif" font-size="10.00">boca::Triplet</text>
</a>
</g>
</g>
<!-- Node15&#45;&gt;Node2 -->
<g id="edge17" class="edge"><title>Node15&#45;&gt;Node2</title>
<path fill="none" stroke="#9a32cd" stroke-dasharray="5,2" d="M1988.21,-186.256C2008.02,-187.249 2031.44,-189.637 2052,-195 2070.08,-199.717 2089.18,-208.311 2104.07,-215.919"/>
<polygon fill="#9a32cd" stroke="#9a32cd" points="1988.35,-182.759 1978.22,-185.856 1988.07,-189.754 1988.35,-182.759"/>
<text text-anchor="middle" x="2024" y="-209" font-family="Helvetica,sans-Serif" font-size="10.00"> multiplet_2_</text>
<text text-anchor="middle" x="2024" y="-198" font-family="Helvetica,sans-Serif" font-size="10.00">multiplet_1_</text>
</g>
<!-- Node16&#45;&gt;Node15 -->
<g id="edge18" class="edge"><title>Node16&#45;&gt;Node15</title>
<path fill="none" stroke="midnightblue" d="M1794.48,-135.404C1832.83,-148.602 1882.95,-165.85 1913.65,-176.416"/>
<polygon fill="midnightblue" stroke="midnightblue" points="1795.6,-132.087 1785,-132.142 1793.32,-138.706 1795.6,-132.087"/>
</g>
<!-- Node17 -->
<g id="node17" class="node"><title>Node17</title>
<g id="a_node17"><a xlink:href="../../d4/d01/classboca_1_1Doublet.html" target="_top" xlink:title="boca::Doublet">
<polygon fill="white" stroke="black" points="1465.5,-68.5 1465.5,-87.5 1542.5,-87.5 1542.5,-68.5 1465.5,-68.5"/>
<text text-anchor="middle" x="1504" y="-75.5" font-family="Helvetica,sans-Serif" font-size="10.00">boca::Doublet</text>
</a>
</g>
</g>
<!-- Node17&#45;&gt;Node16 -->
<g id="edge20" class="edge"><title>Node17&#45;&gt;Node16</title>
<path fill="none" stroke="#9a32cd" stroke-dasharray="5,2" d="M1553.03,-79.8286C1583.36,-81.614 1623.24,-85.1237 1658,-92 1670.56,-94.4848 1683.94,-98.1681 1696.13,-101.948"/>
<polygon fill="#9a32cd" stroke="#9a32cd" points="1552.9,-76.3164 1542.72,-79.2663 1552.52,-83.306 1552.9,-76.3164"/>
<text text-anchor="middle" x="1617" y="-95" font-family="Helvetica,sans-Serif" font-size="10.00"> multiplet_1_</text>
</g>
<!-- Node18&#45;&gt;Node17 -->
<g id="edge21" class="edge"><title>Node18&#45;&gt;Node17</title>
<path fill="none" stroke="midnightblue" d="M1324.32,-74.4336C1370.34,-75.3521 1428.2,-76.5069 1465.39,-77.2493"/>
<polygon fill="midnightblue" stroke="midnightblue" points="1324.17,-70.9299 1314.1,-74.2295 1324.03,-77.9285 1324.17,-70.9299"/>
</g>
<!-- Node19&#45;&gt;Node2 -->
<g id="edge32" class="edge"><title>Node19&#45;&gt;Node2</title>
<path fill="none" stroke="orange" stroke-dasharray="5,2" d="M1051.62,-138.799C1162.25,-169.932 1406.01,-231 1616,-231 1616,-231 1616,-231 1943.5,-231 1985.65,-231 2033.14,-231 2069.78,-231"/>
<polygon fill="orange" stroke="orange" points="1052.54,-135.424 1041.97,-136.064 1050.63,-142.159 1052.54,-135.424"/>
<text text-anchor="middle" x="1617" y="-234" font-family="Helvetica,sans-Serif" font-size="10.00"> &lt; Triplet, Triplet &gt;</text>
</g>
<!-- Node19&#45;&gt;Node16 -->
<g id="edge29" class="edge"><title>Node19&#45;&gt;Node16</title>
<path fill="none" stroke="orange" stroke-dasharray="5,2" d="M1066.5,-120.599C1213.86,-119.81 1538.73,-118.072 1675.9,-117.338"/>
<polygon fill="orange" stroke="orange" points="1066.18,-117.1 1056.2,-120.654 1066.22,-124.1 1066.18,-117.1"/>
<text text-anchor="start" x="1332" y="-134" font-family="Helvetica,sans-Serif" font-size="10.00"> &lt; boca::Doublet, boca</text>
<text text-anchor="middle" x="1382" y="-123" font-family="Helvetica,sans-Serif" font-size="10.00">::Singlet &gt;</text>
</g>
<!-- Node19&#45;&gt;Node18 -->
<g id="edge24" class="edge"><title>Node19&#45;&gt;Node18</title>
<path fill="none" stroke="orange" stroke-dasharray="5,2" d="M1024.86,-100.993C1039.43,-93.2835 1057.04,-85.3012 1074,-81 1111.31,-71.5367 1154.46,-69.4292 1188.75,-69.7397"/>
<polygon fill="orange" stroke="orange" points="1022.85,-98.1033 1015.77,-105.978 1026.22,-104.242 1022.85,-98.1033"/>
<text text-anchor="start" x="1074" y="-95" font-family="Helvetica,sans-Serif" font-size="10.00"> &lt; boca::Singlet, boca</text>
<text text-anchor="middle" x="1122.5" y="-84" font-family="Helvetica,sans-Serif" font-size="10.00">::Singlet &gt;</text>
</g>
<!-- Node20 -->
<g id="node20" class="node"><title>Node20</title>
<polygon fill="white" stroke="#bfbfbf" points="761,-115.5 761,-134.5 825,-134.5 825,-115.5 761,-115.5"/>
<text text-anchor="middle" x="793" y="-122.5" font-family="Helvetica,sans-Serif" font-size="10.00">Multiplet_1</text>
</g>
<!-- Node20&#45;&gt;Node19 -->
<g id="edge26" class="edge"><title>Node20&#45;&gt;Node19</title>
<path fill="none" stroke="#9a32cd" stroke-dasharray="5,2" d="M835.655,-124.148C861.619,-123.616 895.564,-122.922 924.961,-122.32"/>
<polygon fill="#9a32cd" stroke="#9a32cd" points="835.337,-120.653 825.41,-124.357 835.48,-127.652 835.337,-120.653"/>
<text text-anchor="middle" x="879" y="-127" font-family="Helvetica,sans-Serif" font-size="10.00"> multiplet_1_</text>
</g>
<!-- Node21 -->
<g id="node21" class="node"><title>Node21</title>
<polygon fill="white" stroke="#bfbfbf" points="761,-77.5 761,-96.5 825,-96.5 825,-77.5 761,-77.5"/>
<text text-anchor="middle" x="793" y="-84.5" font-family="Helvetica,sans-Serif" font-size="10.00">Multiplet_2</text>
</g>
<!-- Node21&#45;&gt;Node19 -->
<g id="edge27" class="edge"><title>Node21&#45;&gt;Node19</title>
<path fill="none" stroke="#9a32cd" stroke-dasharray="5,2" d="M835.309,-94.1842C861.317,-98.7073 895.433,-104.641 924.961,-109.776"/>
<polygon fill="#9a32cd" stroke="#9a32cd" points="835.862,-90.7279 825.41,-92.4627 834.663,-97.6244 835.862,-90.7279"/>
<text text-anchor="middle" x="879" y="-110" font-family="Helvetica,sans-Serif" font-size="10.00"> multiplet_2_</text>
</g>
<!-- Node22 -->
<g id="node22" class="node"><title>Node22</title>
<g id="a_node22"><a xlink:href="../../db/d9b/classboca_1_1SubJettiness.html" target="_top" xlink:title="boca::SubJettiness">
<polygon fill="white" stroke="black" points="1689.5,-176.5 1689.5,-195.5 1790.5,-195.5 1790.5,-176.5 1689.5,-176.5"/>
<text text-anchor="middle" x="1740" y="-183.5" font-family="Helvetica,sans-Serif" font-size="10.00">boca::SubJettiness</text>
</a>
</g>
</g>
<!-- Node22&#45;&gt;Node15 -->
<g id="edge30" class="edge"><title>Node22&#45;&gt;Node15</title>
<path fill="none" stroke="#9a32cd" stroke-dasharray="5,2" d="M1800.58,-186C1835.26,-186 1877.76,-186 1906.96,-186"/>
<polygon fill="#9a32cd" stroke="#9a32cd" points="1800.56,-182.5 1790.56,-186 1800.56,-189.5 1800.56,-182.5"/>
<text text-anchor="middle" x="1855.5" y="-189" font-family="Helvetica,sans-Serif" font-size="10.00"> sub_jettiness_</text>
</g>
<!-- Node23 -->
<g id="node23" class="node"><title>Node23</title>
<g id="a_node23"><a xlink:href="../../d1/d2f/classboca_1_1NSubJettiness.html" target="_top" xlink:title="boca::NSubJettiness">
<polygon fill="white" stroke="black" points="1450,-183.5 1450,-202.5 1558,-202.5 1558,-183.5 1450,-183.5"/>
<text text-anchor="middle" x="1504" y="-190.5" font-family="Helvetica,sans-Serif" font-size="10.00">boca::NSubJettiness</text>
</a>
</g>
</g>
<!-- Node23&#45;&gt;Node22 -->
<g id="edge31" class="edge"><title>Node23&#45;&gt;Node22</title>
<path fill="none" stroke="#9a32cd" stroke-dasharray="5,2" d="M1568.25,-187.402C1570.87,-187.25 1573.46,-187.115 1576,-187 1614.02,-185.279 1657.09,-185.091 1689.4,-185.299"/>
<polygon fill="#9a32cd" stroke="#9a32cd" points="1567.84,-183.921 1558.09,-188.058 1568.29,-190.906 1567.84,-183.921"/>
<text text-anchor="middle" x="1617" y="-201" font-family="Helvetica,sans-Serif" font-size="10.00"> beta_2_</text>
<text text-anchor="middle" x="1617" y="-190" font-family="Helvetica,sans-Serif" font-size="10.00">beta_1_</text>
</g>
</g>
</svg>
