<?xml version="1.0" encoding="UTF-8" standalone="no"?>
<!DOCTYPE svg PUBLIC "-//W3C//DTD SVG 1.1//EN"
 "http://www.w3.org/Graphics/SVG/1.1/DTD/svg11.dtd">
<!-- Generated by graphviz version 2.38.0 (20140413.2041)
 -->
<!-- Title: boca::heavyhiggs::EventFusionTagger Pages: 1 -->
<svg width="228pt" height="242pt"
 viewBox="0.00 0.00 228.00 242.00" xmlns="http://www.w3.org/2000/svg" xmlns:xlink="http://www.w3.org/1999/xlink">
<g id="graph0" class="graph" transform="scale(1 1) rotate(0) translate(4 238)">
<title>boca::heavyhiggs::EventFusionTagger</title>
<polygon fill="white" stroke="none" points="-4,4 -4,-238 224,-238 224,4 -4,4"/>
<!-- Node1 -->
<g id="node1" class="node"><title>Node1</title>
<polygon fill="#bfbfbf" stroke="black" points="0,-0.5 0,-30.5 154,-30.5 154,-0.5 0,-0.5"/>
<text text-anchor="start" x="8" y="-18.5" font-family="Helvetica,sans-Serif" font-size="10.00">boca::heavyhiggs::EventFusion</text>
<text text-anchor="middle" x="77" y="-7.5" font-family="Helvetica,sans-Serif" font-size="10.00">Tagger</text>
</g>
<!-- Node2 -->
<g id="node2" class="node"><title>Node2</title>
<g id="a_node2"><a xlink:href="../../dd/d4b/classboca_1_1BranchTagger.html" target="_top" xlink:title="boca::BranchTagger\l\&lt; EventFusionBranch \&gt;">
<polygon fill="white" stroke="black" points="17,-68.5 17,-98.5 137,-98.5 137,-68.5 17,-68.5"/>
<text text-anchor="start" x="25" y="-86.5" font-family="Helvetica,sans-Serif" font-size="10.00">boca::BranchTagger</text>
<text text-anchor="middle" x="77" y="-75.5" font-family="Helvetica,sans-Serif" font-size="10.00">&lt; EventFusionBranch &gt;</text>
</a>
</g>
</g>
<!-- Node2&#45;&gt;Node1 -->
<g id="edge1" class="edge"><title>Node2&#45;&gt;Node1</title>
<path fill="none" stroke="midnightblue" d="M77,-58.0322C77,-48.8606 77,-38.7449 77,-30.7931"/>
<polygon fill="midnightblue" stroke="midnightblue" points="73.5001,-58.1789 77,-68.179 80.5001,-58.179 73.5001,-58.1789"/>
</g>
<!-- Node3 -->
<g id="node3" class="node"><title>Node3</title>
<g id="a_node3"><a xlink:href="../../da/d42/classboca_1_1Tagger.html" target="_top" xlink:title="Prepares multivariant analysis. ">
<polygon fill="white" stroke="black" points="50,-214.5 50,-233.5 124,-233.5 124,-214.5 50,-214.5"/>
<text text-anchor="middle" x="87" y="-221.5" font-family="Helvetica,sans-Serif" font-size="10.00">boca::Tagger</text>
</a>
</g>
</g>
<!-- Node3&#45;&gt;Node2 -->
<g id="edge2" class="edge"><title>Node3&#45;&gt;Node2</title>
<path fill="none" stroke="midnightblue" d="M83.6109,-204.122C82.256,-195.829 80.824,-185.959 80,-177 77.4541,-149.32 76.9791,-116.808 76.9387,-98.6362"/>
<polygon fill="midnightblue" stroke="midnightblue" points="80.203,-204.957 85.3465,-214.219 87.1018,-203.771 80.203,-204.957"/>
</g>
<!-- Node4 -->
<g id="node4" class="node"><title>Node4</title>
<g id="a_node4"><a xlink:href="../../dd/d4b/classboca_1_1BranchTagger.html" target="_top" xlink:title="Tagger base class using Branch template. ">
<polygon fill="white" stroke="black" points="89,-146.5 89,-176.5 195,-176.5 195,-146.5 89,-146.5"/>
<text text-anchor="start" x="97" y="-164.5" font-family="Helvetica,sans-Serif" font-size="10.00">boca::BranchTagger</text>
<text text-anchor="middle" x="142" y="-153.5" font-family="Helvetica,sans-Serif" font-size="10.00">&lt; BranchTemplate &gt;</text>
</a>
</g>
</g>
<!-- Node3&#45;&gt;Node4 -->
<g id="edge4" class="edge"><title>Node3&#45;&gt;Node4</title>
<path fill="none" stroke="midnightblue" d="M101.706,-206.823C110.22,-197.458 120.839,-185.778 129.038,-176.759"/>
<polygon fill="midnightblue" stroke="midnightblue" points="99.0171,-204.578 94.8802,-214.332 104.197,-209.287 99.0171,-204.578"/>
</g>
<!-- Node4&#45;&gt;Node2 -->
<g id="edge3" class="edge"><title>Node4&#45;&gt;Node2</title>
<path fill="none" stroke="orange" stroke-dasharray="5,2" d="M123.019,-138.307C112.094,-125.533 98.6891,-109.86 89.1712,-98.7309"/>
<polygon fill="orange" stroke="orange" points="120.614,-140.88 129.774,-146.205 125.934,-136.33 120.614,-140.88"/>
<text text-anchor="middle" x="166.5" y="-120" font-family="Helvetica,sans-Serif" font-size="10.00"> &lt; EventFusionBranch &gt;</text>
</g>
</g>
</svg>
