<?xml version="1.0" encoding="UTF-8" standalone="no"?>
<!DOCTYPE svg PUBLIC "-//W3C//DTD SVG 1.1//EN"
 "http://www.w3.org/Graphics/SVG/1.1/DTD/svg11.dtd">
<!-- Generated by graphviz version 2.38.0 (20140413.2041)
 -->
<!-- Title: examples/toppartner/include/tagger/NewPartnerLeptonic.hh Pages: 1 -->
<svg width="2104pt" height="441pt"
 viewBox="0.00 0.00 2104.00 441.00" xmlns="http://www.w3.org/2000/svg" xmlns:xlink="http://www.w3.org/1999/xlink">
<g id="graph0" class="graph" transform="scale(1 1) rotate(0) translate(4 437)">
<title>examples/toppartner/include/tagger/NewPartnerLeptonic.hh</title>
<polygon fill="white" stroke="none" points="-4,4 -4,-437 2100,-437 2100,4 -4,4"/>
<!-- Node1 -->
<g id="node1" class="node"><title>Node1</title>
<polygon fill="#bfbfbf" stroke="black" points="1649.5,-391.5 1649.5,-432.5 1784.5,-432.5 1784.5,-391.5 1649.5,-391.5"/>
<text text-anchor="start" x="1657.5" y="-420.5" font-family="Helvetica,sans-Serif" font-size="10.00">examples/toppartner</text>
<text text-anchor="start" x="1657.5" y="-409.5" font-family="Helvetica,sans-Serif" font-size="10.00">/include/tagger/NewPartner</text>
<text text-anchor="middle" x="1717" y="-398.5" font-family="Helvetica,sans-Serif" font-size="10.00">Leptonic.hh</text>
</g>
<!-- Node2 -->
<g id="node2" class="node"><title>Node2</title>
<g id="a_node2"><a xlink:href="../../d5/d5f/Quintet_8hh.html" target="_top" xlink:title="boca/multiplets/Quintet.hh">
<polygon fill="white" stroke="black" points="1651.5,-330 1651.5,-349 1782.5,-349 1782.5,-330 1651.5,-330"/>
<text text-anchor="middle" x="1717" y="-337" font-family="Helvetica,sans-Serif" font-size="10.00">boca/multiplets/Quintet.hh</text>
</a>
</g>
</g>
<!-- Node1&#45;&gt;Node2 -->
<g id="edge1" class="edge"><title>Node1&#45;&gt;Node2</title>
<path fill="none" stroke="midnightblue" d="M1717,-391.362C1717,-381.297 1717,-369.104 1717,-359.18"/>
<polygon fill="midnightblue" stroke="midnightblue" points="1720.5,-359.173 1717,-349.173 1713.5,-359.173 1720.5,-359.173"/>
</g>
<!-- Node11 -->
<g id="node11" class="node"><title>Node11</title>
<g id="a_node11"><a xlink:href="../../dc/de8/tagger_2TopLeptonic_8hh.html" target="_top" xlink:title="boca/standardmodel\l/tagger/TopLeptonic.hh">
<polygon fill="white" stroke="black" points="1517,-324.5 1517,-354.5 1633,-354.5 1633,-324.5 1517,-324.5"/>
<text text-anchor="start" x="1525" y="-342.5" font-family="Helvetica,sans-Serif" font-size="10.00">boca/standardmodel</text>
<text text-anchor="middle" x="1575" y="-331.5" font-family="Helvetica,sans-Serif" font-size="10.00">/tagger/TopLeptonic.hh</text>
</a>
</g>
</g>
<!-- Node1&#45;&gt;Node11 -->
<g id="edge10" class="edge"><title>Node1&#45;&gt;Node11</title>
<path fill="none" stroke="midnightblue" d="M1677.45,-391.362C1657.18,-381.302 1632.64,-369.117 1612.66,-359.196"/>
<polygon fill="midnightblue" stroke="midnightblue" points="1614.05,-355.982 1603.54,-354.67 1610.94,-362.252 1614.05,-355.982"/>
</g>
<!-- Node48 -->
<g id="node48" class="node"><title>Node48</title>
<g id="a_node48"><a xlink:href="../../d5/deb/Resonance_8hh.html" target="_top" xlink:title="include/tagger/Resonance.hh">
<polygon fill="white" stroke="black" points="1800.5,-330 1800.5,-349 1943.5,-349 1943.5,-330 1800.5,-330"/>
<text text-anchor="middle" x="1872" y="-337" font-family="Helvetica,sans-Serif" font-size="10.00">include/tagger/Resonance.hh</text>
</a>
</g>
</g>
<!-- Node1&#45;&gt;Node48 -->
<g id="edge64" class="edge"><title>Node1&#45;&gt;Node48</title>
<path fill="none" stroke="midnightblue" d="M1760.18,-391.362C1786.83,-379.241 1820.26,-364.034 1843.6,-353.419"/>
<polygon fill="midnightblue" stroke="midnightblue" points="1845.28,-356.5 1852.93,-349.173 1842.38,-350.128 1845.28,-356.5"/>
</g>
<!-- Node3 -->
<g id="node3" class="node"><title>Node3</title>
<g id="a_node3"><a xlink:href="../../d7/db9/Triplet_8hh.html" target="_top" xlink:title="boca/multiplets/Triplet.hh">
<polygon fill="white" stroke="black" points="1686,-263 1686,-282 1812,-282 1812,-263 1686,-263"/>
<text text-anchor="middle" x="1749" y="-270" font-family="Helvetica,sans-Serif" font-size="10.00">boca/multiplets/Triplet.hh</text>
</a>
</g>
</g>
<!-- Node2&#45;&gt;Node3 -->
<g id="edge2" class="edge"><title>Node2&#45;&gt;Node3</title>
<path fill="none" stroke="midnightblue" d="M1721.32,-329.734C1726.16,-319.89 1734.15,-303.66 1740.31,-291.159"/>
<polygon fill="midnightblue" stroke="midnightblue" points="1743.48,-292.645 1744.75,-282.127 1737.2,-289.553 1743.48,-292.645"/>
</g>
<!-- Node4 -->
<g id="node4" class="node"><title>Node4</title>
<g id="a_node4"><a xlink:href="../../df/d3a/Doublet_8hh.html" target="_top" xlink:title="boca/multiplets/Doublet.hh">
<polygon fill="white" stroke="black" points="1697.5,-196 1697.5,-215 1830.5,-215 1830.5,-196 1697.5,-196"/>
<text text-anchor="middle" x="1764" y="-203" font-family="Helvetica,sans-Serif" font-size="10.00">boca/multiplets/Doublet.hh</text>
</a>
</g>
</g>
<!-- Node3&#45;&gt;Node4 -->
<g id="edge3" class="edge"><title>Node3&#45;&gt;Node4</title>
<path fill="none" stroke="midnightblue" d="M1751.02,-262.734C1753.25,-253.085 1756.89,-237.3 1759.75,-224.906"/>
<polygon fill="midnightblue" stroke="midnightblue" points="1763.17,-225.658 1762.01,-215.127 1756.35,-224.084 1763.17,-225.658"/>
</g>
<!-- Node5 -->
<g id="node5" class="node"><title>Node5</title>
<g id="a_node5"><a xlink:href="../../d2/d91/multiplets_2TwoBody_8hh.html" target="_top" xlink:title="boca/multiplets/TwoBody.hh">
<polygon fill="white" stroke="red" points="1634,-129 1634,-148 1774,-148 1774,-129 1634,-129"/>
<text text-anchor="middle" x="1704" y="-136" font-family="Helvetica,sans-Serif" font-size="10.00">boca/multiplets/TwoBody.hh</text>
</a>
</g>
</g>
<!-- Node4&#45;&gt;Node5 -->
<g id="edge4" class="edge"><title>Node4&#45;&gt;Node5</title>
<path fill="none" stroke="midnightblue" d="M1755.91,-195.734C1746.46,-185.5 1730.64,-168.364 1718.95,-155.692"/>
<polygon fill="midnightblue" stroke="midnightblue" points="1721.32,-153.101 1711.96,-148.127 1716.17,-157.849 1721.32,-153.101"/>
</g>
<!-- Node6 -->
<g id="node6" class="node"><title>Node6</title>
<g id="a_node6"><a xlink:href="../../d3/d7e/Vector_8hh.html" target="_top" xlink:title="boca/generic/Vector.hh">
<polygon fill="white" stroke="red" points="1393.5,-67.5 1393.5,-86.5 1510.5,-86.5 1510.5,-67.5 1393.5,-67.5"/>
<text text-anchor="middle" x="1452" y="-74.5" font-family="Helvetica,sans-Serif" font-size="10.00">boca/generic/Vector.hh</text>
</a>
</g>
</g>
<!-- Node5&#45;&gt;Node6 -->
<g id="edge5" class="edge"><title>Node5&#45;&gt;Node6</title>
<path fill="none" stroke="midnightblue" d="M1667.89,-128.975C1623.17,-118.415 1546.92,-100.411 1498.03,-88.8689"/>
<polygon fill="midnightblue" stroke="midnightblue" points="1498.58,-85.4007 1488.04,-86.5091 1496.97,-92.2134 1498.58,-85.4007"/>
</g>
<!-- Node7 -->
<g id="node7" class="node"><title>Node7</title>
<g id="a_node7"><a xlink:href="../../db/d31/Sort_8hh.html" target="_top" xlink:title="boca/multiplets/Sort.hh">
<polygon fill="white" stroke="black" points="1528.5,-67.5 1528.5,-86.5 1645.5,-86.5 1645.5,-67.5 1528.5,-67.5"/>
<text text-anchor="middle" x="1587" y="-74.5" font-family="Helvetica,sans-Serif" font-size="10.00">boca/multiplets/Sort.hh</text>
</a>
</g>
</g>
<!-- Node5&#45;&gt;Node7 -->
<g id="edge6" class="edge"><title>Node5&#45;&gt;Node7</title>
<path fill="none" stroke="midnightblue" d="M1687.24,-128.975C1667.78,-119.078 1635.45,-102.642 1612.79,-91.1151"/>
<polygon fill="midnightblue" stroke="midnightblue" points="1614.23,-87.9224 1603.73,-86.5091 1611.06,-94.1619 1614.23,-87.9224"/>
</g>
<!-- Node8 -->
<g id="node8" class="node"><title>Node8</title>
<polygon fill="white" stroke="#bfbfbf" points="1467,-0.5 1467,-30.5 1577,-30.5 1577,-0.5 1467,-0.5"/>
<text text-anchor="start" x="1475" y="-18.5" font-family="Helvetica,sans-Serif" font-size="10.00">boost/range/algorithm</text>
<text text-anchor="middle" x="1522" y="-7.5" font-family="Helvetica,sans-Serif" font-size="10.00">/sort.hpp</text>
</g>
<!-- Node7&#45;&gt;Node8 -->
<g id="edge7" class="edge"><title>Node7&#45;&gt;Node8</title>
<path fill="none" stroke="midnightblue" d="M1577.69,-67.4751C1569.13,-59.6426 1556.1,-47.7145 1544.79,-37.3656"/>
<polygon fill="midnightblue" stroke="midnightblue" points="1547.06,-34.6934 1537.32,-30.523 1542.33,-39.8568 1547.06,-34.6934"/>
</g>
<!-- Node9 -->
<g id="node9" class="node"><title>Node9</title>
<polygon fill="white" stroke="#bfbfbf" points="1595.5,-6 1595.5,-25 1708.5,-25 1708.5,-6 1595.5,-6"/>
<text text-anchor="middle" x="1652" y="-13" font-family="Helvetica,sans-Serif" font-size="10.00">boost/units/cmath.hpp</text>
</g>
<!-- Node7&#45;&gt;Node9 -->
<g id="edge8" class="edge"><title>Node7&#45;&gt;Node9</title>
<path fill="none" stroke="midnightblue" d="M1596.31,-67.4751C1606.45,-58.1966 1622.86,-43.1706 1635.25,-31.831"/>
<polygon fill="midnightblue" stroke="midnightblue" points="1637.69,-34.3429 1642.7,-25.0091 1632.96,-29.1795 1637.69,-34.3429"/>
</g>
<!-- Node10 -->
<g id="node10" class="node"><title>Node10</title>
<g id="a_node10"><a xlink:href="../../d2/d29/Id_8hh.html" target="_top" xlink:title="boca/physics/Id.hh">
<polygon fill="white" stroke="red" points="1316.5,-6 1316.5,-25 1415.5,-25 1415.5,-6 1316.5,-6"/>
<text text-anchor="middle" x="1366" y="-13" font-family="Helvetica,sans-Serif" font-size="10.00">boca/physics/Id.hh</text>
</a>
</g>
</g>
<!-- Node7&#45;&gt;Node10 -->
<g id="edge9" class="edge"><title>Node7&#45;&gt;Node10</title>
<path fill="none" stroke="midnightblue" d="M1555.34,-67.4751C1516.44,-57.0036 1450.36,-39.2118 1407.45,-27.6601"/>
<polygon fill="midnightblue" stroke="midnightblue" points="1408.17,-24.2292 1397.61,-25.0091 1406.35,-30.9885 1408.17,-24.2292"/>
</g>
<!-- Node11&#45;&gt;Node3 -->
<g id="edge11" class="edge"><title>Node11&#45;&gt;Node3</title>
<path fill="none" stroke="midnightblue" d="M1612.76,-324.396C1643.83,-312.789 1687.39,-296.515 1716.83,-285.519"/>
<polygon fill="midnightblue" stroke="midnightblue" points="1718.08,-288.785 1726.23,-282.007 1715.63,-282.228 1718.08,-288.785"/>
</g>
<!-- Node12 -->
<g id="node12" class="node"><title>Node12</title>
<g id="a_node12"><a xlink:href="../../df/d2c/Reader_8hh.html" target="_top" xlink:title="boca/multivariant/Reader.hh">
<polygon fill="white" stroke="black" points="706.5,-263 706.5,-282 845.5,-282 845.5,-263 706.5,-263"/>
<text text-anchor="middle" x="776" y="-270" font-family="Helvetica,sans-Serif" font-size="10.00">boca/multivariant/Reader.hh</text>
</a>
</g>
</g>
<!-- Node11&#45;&gt;Node12 -->
<g id="edge12" class="edge"><title>Node11&#45;&gt;Node12</title>
<path fill="none" stroke="midnightblue" d="M1516.89,-333.773C1376.16,-322.324 1016.8,-293.09 855.949,-280.004"/>
<polygon fill="midnightblue" stroke="midnightblue" points="855.896,-276.488 845.645,-279.166 855.328,-283.465 855.896,-276.488"/>
</g>
<!-- Node30 -->
<g id="node30" class="node"><title>Node30</title>
<g id="a_node30"><a xlink:href="../../db/d40/tagger_2Bottom_8hh.html" target="_top" xlink:title="boca/standardmodel\l/tagger/Bottom.hh">
<polygon fill="white" stroke="black" points="1318,-257.5 1318,-287.5 1422,-287.5 1422,-257.5 1318,-257.5"/>
<text text-anchor="start" x="1326" y="-275.5" font-family="Helvetica,sans-Serif" font-size="10.00">boca/standardmodel</text>
<text text-anchor="middle" x="1370" y="-264.5" font-family="Helvetica,sans-Serif" font-size="10.00">/tagger/Bottom.hh</text>
</a>
</g>
</g>
<!-- Node11&#45;&gt;Node30 -->
<g id="edge33" class="edge"><title>Node11&#45;&gt;Node30</title>
<path fill="none" stroke="midnightblue" d="M1530.77,-324.476C1499.49,-314.557 1457.36,-301.201 1424.08,-290.648"/>
<polygon fill="midnightblue" stroke="midnightblue" points="1425.09,-287.297 1414.5,-287.611 1422.98,-293.97 1425.09,-287.297"/>
</g>
<!-- Node44 -->
<g id="node44" class="node"><title>Node44</title>
<g id="a_node44"><a xlink:href="../../df/d67/tagger_2WLeptonic_8hh.html" target="_top" xlink:title="boca/standardmodel\l/tagger/WLeptonic.hh">
<polygon fill="white" stroke="black" points="1520,-257.5 1520,-287.5 1630,-287.5 1630,-257.5 1520,-257.5"/>
<text text-anchor="start" x="1528" y="-275.5" font-family="Helvetica,sans-Serif" font-size="10.00">boca/standardmodel</text>
<text text-anchor="middle" x="1575" y="-264.5" font-family="Helvetica,sans-Serif" font-size="10.00">/tagger/WLeptonic.hh</text>
</a>
</g>
</g>
<!-- Node11&#45;&gt;Node44 -->
<g id="edge55" class="edge"><title>Node11&#45;&gt;Node44</title>
<path fill="none" stroke="midnightblue" d="M1575,-324.396C1575,-316.645 1575,-306.812 1575,-297.86"/>
<polygon fill="midnightblue" stroke="midnightblue" points="1578.5,-297.576 1575,-287.577 1571.5,-297.577 1578.5,-297.576"/>
</g>
<!-- Node47 -->
<g id="node47" class="node"><title>Node47</title>
<g id="a_node47"><a xlink:href="../../da/dd3/branch_2TopLeptonic_8hh.html" target="_top" xlink:title="boca/standardmodel\l/branch/TopLeptonic.hh">
<polygon fill="white" stroke="black" points="1848.5,-190.5 1848.5,-220.5 1967.5,-220.5 1967.5,-190.5 1848.5,-190.5"/>
<text text-anchor="start" x="1856.5" y="-208.5" font-family="Helvetica,sans-Serif" font-size="10.00">boca/standardmodel</text>
<text text-anchor="middle" x="1908" y="-197.5" font-family="Helvetica,sans-Serif" font-size="10.00">/branch/TopLeptonic.hh</text>
</a>
</g>
</g>
<!-- Node11&#45;&gt;Node47 -->
<g id="edge61" class="edge"><title>Node11&#45;&gt;Node47</title>
<path fill="none" stroke="midnightblue" d="M1592.99,-324.429C1605.85,-314.341 1623.54,-300.4 1639,-288 1656,-274.36 1657.37,-266.476 1677,-257 1680.73,-255.199 1771.65,-235.581 1838.29,-221.338"/>
<polygon fill="midnightblue" stroke="midnightblue" points="1839.29,-224.701 1848.34,-219.19 1837.83,-217.856 1839.29,-224.701"/>
</g>
<!-- Node12&#45;&gt;Node7 -->
<g id="edge20" class="edge"><title>Node12&#45;&gt;Node7</title>
<path fill="none" stroke="midnightblue" d="M845.63,-265.987C918.554,-259.222 1036.03,-245.509 1135,-221 1220.29,-199.879 1241.26,-190.904 1321,-154 1346.11,-142.377 1349.15,-132.882 1375,-123 1402.49,-112.492 1475.53,-98.025 1528.2,-88.3599"/>
<polygon fill="midnightblue" stroke="midnightblue" points="1528.9,-91.7898 1538.11,-86.5534 1527.64,-84.9033 1528.9,-91.7898"/>
</g>
<!-- Node13 -->
<g id="node13" class="node"><title>Node13</title>
<polygon fill="white" stroke="#bfbfbf" points="128.5,-196 128.5,-215 215.5,-215 215.5,-196 128.5,-196"/>
<text text-anchor="middle" x="172" y="-203" font-family="Helvetica,sans-Serif" font-size="10.00">TMVA/Reader.h</text>
</g>
<!-- Node12&#45;&gt;Node13 -->
<g id="edge13" class="edge"><title>Node12&#45;&gt;Node13</title>
<path fill="none" stroke="midnightblue" d="M706.174,-268.459C601.911,-263.15 399.627,-249.874 230,-221 224.232,-220.018 218.191,-218.765 212.278,-217.409"/>
<polygon fill="midnightblue" stroke="midnightblue" points="213.059,-213.997 202.518,-215.058 211.42,-220.802 213.059,-213.997"/>
</g>
<!-- Node14 -->
<g id="node14" class="node"><title>Node14</title>
<g id="a_node14"><a xlink:href="../../dc/d76/Options_8hh.html" target="_top" xlink:title="boca/generic/Options.hh">
<polygon fill="white" stroke="black" points="375,-67.5 375,-86.5 497,-86.5 497,-67.5 375,-67.5"/>
<text text-anchor="middle" x="436" y="-74.5" font-family="Helvetica,sans-Serif" font-size="10.00">boca/generic/Options.hh</text>
</a>
</g>
</g>
<!-- Node12&#45;&gt;Node14 -->
<g id="edge14" class="edge"><title>Node12&#45;&gt;Node14</title>
<path fill="none" stroke="midnightblue" d="M706.345,-268.14C568.224,-259.813 267.862,-232.844 209,-154 166.321,-96.833 282.943,-82.1601 364.42,-78.697"/>
<polygon fill="midnightblue" stroke="midnightblue" points="364.804,-82.1851 374.666,-78.3117 364.541,-75.19 364.804,-82.1851"/>
</g>
<!-- Node16 -->
<g id="node16" class="node"><title>Node16</title>
<g id="a_node16"><a xlink:href="../../dc/d65/TreeWriter_8hh.html" target="_top" xlink:title="boca/io/TreeWriter.hh">
<polygon fill="white" stroke="black" points="0,-196 0,-215 110,-215 110,-196 0,-196"/>
<text text-anchor="middle" x="55" y="-203" font-family="Helvetica,sans-Serif" font-size="10.00">boca/io/TreeWriter.hh</text>
</a>
</g>
</g>
<!-- Node12&#45;&gt;Node16 -->
<g id="edge16" class="edge"><title>Node12&#45;&gt;Node16</title>
<path fill="none" stroke="midnightblue" d="M706.093,-269.479C585.624,-265.249 331.38,-253.045 119,-221 112.264,-219.984 105.183,-218.651 98.2851,-217.205"/>
<polygon fill="midnightblue" stroke="midnightblue" points="98.8905,-213.755 88.3726,-215.03 97.3899,-220.592 98.8905,-213.755"/>
</g>
<!-- Node20 -->
<g id="node20" class="node"><title>Node20</title>
<g id="a_node20"><a xlink:href="../../df/d31/Phase_8hh.html" target="_top" xlink:title="boca/multivariant/Phase.hh">
<polygon fill="white" stroke="black" points="1000.5,-67.5 1000.5,-86.5 1135.5,-86.5 1135.5,-67.5 1000.5,-67.5"/>
<text text-anchor="middle" x="1068" y="-74.5" font-family="Helvetica,sans-Serif" font-size="10.00">boca/multivariant/Phase.hh</text>
</a>
</g>
</g>
<!-- Node12&#45;&gt;Node20 -->
<g id="edge21" class="edge"><title>Node12&#45;&gt;Node20</title>
<path fill="none" stroke="midnightblue" d="M845.915,-264.378C883.806,-257.812 929.913,-245.203 965,-221 1012.31,-188.365 1045.65,-126.626 1060.05,-96.0678"/>
<polygon fill="midnightblue" stroke="midnightblue" points="1063.37,-97.2088 1064.34,-86.6583 1057.01,-94.3025 1063.37,-97.2088"/>
</g>
<!-- Node23 -->
<g id="node23" class="node"><title>Node23</title>
<g id="a_node23"><a xlink:href="../../da/d59/PreCuts_8hh.html" target="_top" xlink:title="boca/PreCuts.hh">
<polygon fill="white" stroke="black" points="1222,-129 1222,-148 1312,-148 1312,-129 1222,-129"/>
<text text-anchor="middle" x="1267" y="-136" font-family="Helvetica,sans-Serif" font-size="10.00">boca/PreCuts.hh</text>
</a>
</g>
</g>
<!-- Node12&#45;&gt;Node23 -->
<g id="edge24" class="edge"><title>Node12&#45;&gt;Node23</title>
<path fill="none" stroke="midnightblue" d="M845.786,-265.034C908.548,-258.035 1002.78,-244.575 1082,-221 1141.65,-203.248 1207.43,-170.984 1242.22,-152.83"/>
<polygon fill="midnightblue" stroke="midnightblue" points="1243.97,-155.866 1251.19,-148.108 1240.71,-149.674 1243.97,-155.866"/>
</g>
<!-- Node26 -->
<g id="node26" class="node"><title>Node26</title>
<g id="a_node26"><a xlink:href="../../d1/d43/boca_2Event_8hh.html" target="_top" xlink:title="boca/Event.hh">
<polygon fill="white" stroke="black" points="444,-196 444,-215 524,-215 524,-196 444,-196"/>
<text text-anchor="middle" x="484" y="-203" font-family="Helvetica,sans-Serif" font-size="10.00">boca/Event.hh</text>
</a>
</g>
</g>
<!-- Node12&#45;&gt;Node26 -->
<g id="edge29" class="edge"><title>Node12&#45;&gt;Node26</title>
<path fill="none" stroke="midnightblue" d="M737.526,-262.936C684.786,-251.196 590.042,-230.105 532.504,-217.297"/>
<polygon fill="midnightblue" stroke="midnightblue" points="533.081,-213.84 522.559,-215.083 531.56,-220.673 533.081,-213.84"/>
</g>
<!-- Node15 -->
<g id="node15" class="node"><title>Node15</title>
<polygon fill="white" stroke="#bfbfbf" points="602,-6 602,-25 654,-25 654,-6 602,-6"/>
<text text-anchor="middle" x="628" y="-13" font-family="Helvetica,sans-Serif" font-size="10.00">sstream</text>
</g>
<!-- Node14&#45;&gt;Node15 -->
<g id="edge15" class="edge"><title>Node14&#45;&gt;Node15</title>
<path fill="none" stroke="midnightblue" d="M463.509,-67.4751C497.251,-57.0187 554.546,-39.263 591.827,-27.7099"/>
<polygon fill="midnightblue" stroke="midnightblue" points="593.259,-30.9304 601.775,-24.6271 591.187,-24.2441 593.259,-30.9304"/>
</g>
<!-- Node17 -->
<g id="node17" class="node"><title>Node17</title>
<polygon fill="white" stroke="#bfbfbf" points="11.5,-129 11.5,-148 40.5,-148 40.5,-129 11.5,-129"/>
<text text-anchor="middle" x="26" y="-136" font-family="Helvetica,sans-Serif" font-size="10.00">list</text>
</g>
<!-- Node16&#45;&gt;Node17 -->
<g id="edge17" class="edge"><title>Node16&#45;&gt;Node17</title>
<path fill="none" stroke="midnightblue" d="M51.0889,-195.734C46.7407,-185.988 39.599,-169.981 34.0449,-157.532"/>
<polygon fill="midnightblue" stroke="midnightblue" points="37.1199,-155.834 29.8491,-148.127 30.7273,-158.686 37.1199,-155.834"/>
</g>
<!-- Node18 -->
<g id="node18" class="node"><title>Node18</title>
<polygon fill="white" stroke="#bfbfbf" points="59,-129 59,-148 109,-148 109,-129 59,-129"/>
<text text-anchor="middle" x="84" y="-136" font-family="Helvetica,sans-Serif" font-size="10.00">TTree.h</text>
</g>
<!-- Node16&#45;&gt;Node18 -->
<g id="edge18" class="edge"><title>Node16&#45;&gt;Node18</title>
<path fill="none" stroke="midnightblue" d="M58.9111,-195.734C63.2593,-185.988 70.401,-169.981 75.9551,-157.532"/>
<polygon fill="midnightblue" stroke="midnightblue" points="79.2727,-158.686 80.1509,-148.127 72.8801,-155.834 79.2727,-158.686"/>
</g>
<!-- Node19 -->
<g id="node19" class="node"><title>Node19</title>
<g id="a_node19"><a xlink:href="../../d8/d9e/TreeBranch_8hh.html" target="_top" xlink:title="boca/io/TreeBranch.hh">
<polygon fill="white" stroke="red" points="494.5,-129 494.5,-148 609.5,-148 609.5,-129 494.5,-129"/>
<text text-anchor="middle" x="552" y="-136" font-family="Helvetica,sans-Serif" font-size="10.00">boca/io/TreeBranch.hh</text>
</a>
</g>
</g>
<!-- Node16&#45;&gt;Node19 -->
<g id="edge19" class="edge"><title>Node16&#45;&gt;Node19</title>
<path fill="none" stroke="midnightblue" d="M89.0569,-195.956C98.6899,-193.765 109.216,-191.583 119,-190 280.353,-163.891 323.523,-179.329 485,-154 491.873,-152.922 499.1,-151.58 506.161,-150.152"/>
<polygon fill="midnightblue" stroke="midnightblue" points="507.261,-153.497 516.328,-148.017 505.822,-146.646 507.261,-153.497"/>
</g>
<!-- Node21 -->
<g id="node21" class="node"><title>Node21</title>
<g id="a_node21"><a xlink:href="../../dd/d9c/Tag_8hh.html" target="_top" xlink:title="boca/Tag.hh">
<polygon fill="white" stroke="red" points="1092.5,-6 1092.5,-25 1163.5,-25 1163.5,-6 1092.5,-6"/>
<text text-anchor="middle" x="1128" y="-13" font-family="Helvetica,sans-Serif" font-size="10.00">boca/Tag.hh</text>
</a>
</g>
</g>
<!-- Node20&#45;&gt;Node21 -->
<g id="edge22" class="edge"><title>Node20&#45;&gt;Node21</title>
<path fill="none" stroke="midnightblue" d="M1076.6,-67.4751C1085.86,-58.285 1100.82,-43.4563 1112.21,-32.156"/>
<polygon fill="midnightblue" stroke="midnightblue" points="1114.78,-34.5358 1119.42,-25.0091 1109.85,-29.5653 1114.78,-34.5358"/>
</g>
<!-- Node22 -->
<g id="node22" class="node"><title>Node22</title>
<g id="a_node22"><a xlink:href="../../da/df8/Stage_8hh.html" target="_top" xlink:title="boca/multivariant/Stage.hh">
<polygon fill="white" stroke="red" points="941.5,-6 941.5,-25 1074.5,-25 1074.5,-6 941.5,-6"/>
<text text-anchor="middle" x="1008" y="-13" font-family="Helvetica,sans-Serif" font-size="10.00">boca/multivariant/Stage.hh</text>
</a>
</g>
</g>
<!-- Node20&#45;&gt;Node22 -->
<g id="edge23" class="edge"><title>Node20&#45;&gt;Node22</title>
<path fill="none" stroke="midnightblue" d="M1059.4,-67.4751C1050.14,-58.285 1035.18,-43.4563 1023.79,-32.156"/>
<polygon fill="midnightblue" stroke="midnightblue" points="1026.15,-29.5653 1016.58,-25.0091 1021.22,-34.5358 1026.15,-29.5653"/>
</g>
<!-- Node23&#45;&gt;Node6 -->
<g id="edge28" class="edge"><title>Node23&#45;&gt;Node6</title>
<path fill="none" stroke="midnightblue" d="M1293.51,-128.975C1325.65,-118.636 1379.99,-101.161 1415.93,-89.6017"/>
<polygon fill="midnightblue" stroke="midnightblue" points="1417.1,-92.9028 1425.54,-86.5091 1414.95,-86.239 1417.1,-92.9028"/>
</g>
<!-- Node24 -->
<g id="node24" class="node"><title>Node24</title>
<g id="a_node24"><a xlink:href="../../d6/dcd/Range_8hh.html" target="_top" xlink:title="boca/physics/Range.hh">
<polygon fill="white" stroke="red" points="1153.5,-67.5 1153.5,-86.5 1272.5,-86.5 1272.5,-67.5 1153.5,-67.5"/>
<text text-anchor="middle" x="1213" y="-74.5" font-family="Helvetica,sans-Serif" font-size="10.00">boca/physics/Range.hh</text>
</a>
</g>
</g>
<!-- Node23&#45;&gt;Node24 -->
<g id="edge25" class="edge"><title>Node23&#45;&gt;Node24</title>
<path fill="none" stroke="midnightblue" d="M1259.26,-128.975C1251,-119.873 1237.72,-105.241 1227.51,-93.983"/>
<polygon fill="midnightblue" stroke="midnightblue" points="1230.03,-91.5619 1220.72,-86.5091 1224.85,-96.2663 1230.03,-91.5619"/>
</g>
<!-- Node25 -->
<g id="node25" class="node"><title>Node25</title>
<g id="a_node25"><a xlink:href="../../d4/d5f/PreCut_8hh.html" target="_top" xlink:title="boca/PreCut.hh">
<polygon fill="white" stroke="red" points="1290.5,-67.5 1290.5,-86.5 1375.5,-86.5 1375.5,-67.5 1290.5,-67.5"/>
<text text-anchor="middle" x="1333" y="-74.5" font-family="Helvetica,sans-Serif" font-size="10.00">boca/PreCut.hh</text>
</a>
</g>
</g>
<!-- Node23&#45;&gt;Node25 -->
<g id="edge26" class="edge"><title>Node23&#45;&gt;Node25</title>
<path fill="none" stroke="midnightblue" d="M1276.46,-128.975C1286.75,-119.697 1303.42,-104.671 1315.99,-93.331"/>
<polygon fill="midnightblue" stroke="midnightblue" points="1318.48,-95.8046 1323.56,-86.5091 1313.79,-90.6054 1318.48,-95.8046"/>
</g>
<!-- Node25&#45;&gt;Node10 -->
<g id="edge27" class="edge"><title>Node25&#45;&gt;Node10</title>
<path fill="none" stroke="midnightblue" d="M1337.73,-67.4751C1342.58,-58.7268 1350.27,-44.8691 1356.4,-33.8093"/>
<polygon fill="midnightblue" stroke="midnightblue" points="1359.49,-35.4517 1361.28,-25.0091 1353.37,-32.0566 1359.49,-35.4517"/>
</g>
<!-- Node27 -->
<g id="node27" class="node"><title>Node27</title>
<g id="a_node27"><a xlink:href="../../d0/d5f/Flag_8hh.html" target="_top" xlink:title="boca/generic/Flag.hh">
<polygon fill="white" stroke="red" points="218.5,-129 218.5,-148 325.5,-148 325.5,-129 218.5,-129"/>
<text text-anchor="middle" x="272" y="-136" font-family="Helvetica,sans-Serif" font-size="10.00">boca/generic/Flag.hh</text>
</a>
</g>
</g>
<!-- Node26&#45;&gt;Node27 -->
<g id="edge30" class="edge"><title>Node26&#45;&gt;Node27</title>
<path fill="none" stroke="midnightblue" d="M455.848,-195.869C418.205,-184.327 351.371,-163.835 309.493,-150.996"/>
<polygon fill="midnightblue" stroke="midnightblue" points="310.517,-147.649 299.931,-148.064 308.465,-154.341 310.517,-147.649"/>
</g>
<!-- Node28 -->
<g id="node28" class="node"><title>Node28</title>
<g id="a_node28"><a xlink:href="../../dd/df7/Jet_8hh.html" target="_top" xlink:title="boca/multiplets/Jet.hh">
<polygon fill="white" stroke="red" points="627.5,-129 627.5,-148 740.5,-148 740.5,-129 627.5,-129"/>
<text text-anchor="middle" x="684" y="-136" font-family="Helvetica,sans-Serif" font-size="10.00">boca/multiplets/Jet.hh</text>
</a>
</g>
</g>
<!-- Node26&#45;&gt;Node28 -->
<g id="edge31" class="edge"><title>Node26&#45;&gt;Node28</title>
<path fill="none" stroke="midnightblue" d="M510.558,-195.869C545.921,-184.376 608.59,-164.008 648.127,-151.159"/>
<polygon fill="midnightblue" stroke="midnightblue" points="649.222,-154.483 657.65,-148.064 647.058,-147.826 649.222,-154.483"/>
</g>
<!-- Node29 -->
<g id="node29" class="node"><title>Node29</title>
<g id="a_node29"><a xlink:href="../../d1/d9b/multiplets_2Particle_8hh.html" target="_top" xlink:title="boca/multiplets/Particle.hh">
<polygon fill="white" stroke="red" points="344,-129 344,-148 476,-148 476,-129 344,-129"/>
<text text-anchor="middle" x="410" y="-136" font-family="Helvetica,sans-Serif" font-size="10.00">boca/multiplets/Particle.hh</text>
</a>
</g>
</g>
<!-- Node26&#45;&gt;Node29 -->
<g id="edge32" class="edge"><title>Node26&#45;&gt;Node29</title>
<path fill="none" stroke="midnightblue" d="M474.02,-195.734C462.148,-185.305 442.115,-167.709 427.616,-154.973"/>
<polygon fill="midnightblue" stroke="midnightblue" points="429.645,-152.097 419.822,-148.127 425.025,-157.356 429.645,-152.097"/>
</g>
<!-- Node31 -->
<g id="node31" class="node"><title>Node31</title>
<g id="a_node31"><a xlink:href="../../db/d60/Singlet_8hh.html" target="_top" xlink:title="boca/multiplets/Singlet.hh">
<polygon fill="white" stroke="black" points="827.5,-196 827.5,-215 956.5,-215 956.5,-196 827.5,-196"/>
<text text-anchor="middle" x="892" y="-203" font-family="Helvetica,sans-Serif" font-size="10.00">boca/multiplets/Singlet.hh</text>
</a>
</g>
</g>
<!-- Node30&#45;&gt;Node31 -->
<g id="edge34" class="edge"><title>Node30&#45;&gt;Node31</title>
<path fill="none" stroke="midnightblue" d="M1317.94,-264.42C1232.4,-252.789 1061.95,-229.61 964.601,-216.373"/>
<polygon fill="midnightblue" stroke="midnightblue" points="964.928,-212.885 954.548,-215.005 963.985,-219.821 964.928,-212.885"/>
</g>
<!-- Node35 -->
<g id="node35" class="node"><title>Node35</title>
<g id="a_node35"><a xlink:href="../../d4/dee/boca_2tagger_2Tagger_8hh.html" target="_top" xlink:title="boca/tagger/Tagger.hh">
<polygon fill="white" stroke="black" points="1313,-196 1313,-215 1427,-215 1427,-196 1313,-196"/>
<text text-anchor="middle" x="1370" y="-203" font-family="Helvetica,sans-Serif" font-size="10.00">boca/tagger/Tagger.hh</text>
</a>
</g>
</g>
<!-- Node30&#45;&gt;Node35 -->
<g id="edge40" class="edge"><title>Node30&#45;&gt;Node35</title>
<path fill="none" stroke="midnightblue" d="M1370,-257.396C1370,-248.064 1370,-235.714 1370,-225.517"/>
<polygon fill="midnightblue" stroke="midnightblue" points="1373.5,-225.195 1370,-215.195 1366.5,-225.195 1373.5,-225.195"/>
</g>
<!-- Node39 -->
<g id="node39" class="node"><title>Node39</title>
<g id="a_node39"><a xlink:href="../../dc/d97/branch_2Bottom_8hh.html" target="_top" xlink:title="boca/standardmodel\l/branch/Bottom.hh">
<polygon fill="white" stroke="black" points="1445,-190.5 1445,-220.5 1549,-220.5 1549,-190.5 1445,-190.5"/>
<text text-anchor="start" x="1453" y="-208.5" font-family="Helvetica,sans-Serif" font-size="10.00">boca/standardmodel</text>
<text text-anchor="middle" x="1497" y="-197.5" font-family="Helvetica,sans-Serif" font-size="10.00">/branch/Bottom.hh</text>
</a>
</g>
</g>
<!-- Node30&#45;&gt;Node39 -->
<g id="edge49" class="edge"><title>Node30&#45;&gt;Node39</title>
<path fill="none" stroke="midnightblue" d="M1397.56,-257.396C1415.95,-247.984 1440.33,-235.503 1460.35,-225.256"/>
<polygon fill="midnightblue" stroke="midnightblue" points="1462.19,-228.248 1469.5,-220.577 1459,-222.017 1462.19,-228.248"/>
</g>
<!-- Node43 -->
<g id="node43" class="node"><title>Node43</title>
<g id="a_node43"><a xlink:href="../../d1/d7d/MuXboostedBTagging_8hh.html" target="_top" xlink:title="boca/external/MuXboosted\lBTagging.hh">
<polygon fill="white" stroke="black" points="646.5,-190.5 646.5,-220.5 779.5,-220.5 779.5,-190.5 646.5,-190.5"/>
<text text-anchor="start" x="654.5" y="-208.5" font-family="Helvetica,sans-Serif" font-size="10.00">boca/external/MuXboosted</text>
<text text-anchor="middle" x="713" y="-197.5" font-family="Helvetica,sans-Serif" font-size="10.00">BTagging.hh</text>
</a>
</g>
</g>
<!-- Node30&#45;&gt;Node43 -->
<g id="edge53" class="edge"><title>Node30&#45;&gt;Node43</title>
<path fill="none" stroke="midnightblue" d="M1317.79,-267.528C1219.71,-259.89 1001.33,-242.033 818,-221 808.773,-219.941 799.103,-218.737 789.524,-217.485"/>
<polygon fill="midnightblue" stroke="midnightblue" points="789.97,-214.013 779.597,-216.167 789.049,-220.952 789.97,-214.013"/>
</g>
<!-- Node31&#45;&gt;Node28 -->
<g id="edge39" class="edge"><title>Node31&#45;&gt;Node28</title>
<path fill="none" stroke="midnightblue" d="M864.379,-195.869C827.525,-184.351 762.15,-163.922 721.046,-151.077"/>
<polygon fill="midnightblue" stroke="midnightblue" points="721.993,-147.706 711.404,-148.064 719.905,-154.387 721.993,-147.706"/>
</g>
<!-- Node32 -->
<g id="node32" class="node"><title>Node32</title>
<g id="a_node32"><a xlink:href="../../d6/dcf/Mutable_8hh.html" target="_top" xlink:title="boca/generic/Mutable.hh">
<polygon fill="white" stroke="red" points="758.5,-129 758.5,-148 881.5,-148 881.5,-129 758.5,-129"/>
<text text-anchor="middle" x="820" y="-136" font-family="Helvetica,sans-Serif" font-size="10.00">boca/generic/Mutable.hh</text>
</a>
</g>
</g>
<!-- Node31&#45;&gt;Node32 -->
<g id="edge35" class="edge"><title>Node31&#45;&gt;Node32</title>
<path fill="none" stroke="midnightblue" d="M882.29,-195.734C870.738,-185.305 851.247,-167.709 837.14,-154.973"/>
<polygon fill="midnightblue" stroke="midnightblue" points="839.324,-152.23 829.556,-148.127 834.634,-157.426 839.324,-152.23"/>
</g>
<!-- Node34 -->
<g id="node34" class="node"><title>Node34</title>
<g id="a_node34"><a xlink:href="../../dc/d4e/Line2_8hh.html" target="_top" xlink:title="boca/math/Line2.hh">
<polygon fill="white" stroke="red" points="900,-129 900,-148 1002,-148 1002,-129 900,-129"/>
<text text-anchor="middle" x="951" y="-136" font-family="Helvetica,sans-Serif" font-size="10.00">boca/math/Line2.hh</text>
</a>
</g>
</g>
<!-- Node31&#45;&gt;Node34 -->
<g id="edge38" class="edge"><title>Node31&#45;&gt;Node34</title>
<path fill="none" stroke="midnightblue" d="M899.957,-195.734C909.246,-185.5 924.8,-168.364 936.302,-155.692"/>
<polygon fill="midnightblue" stroke="midnightblue" points="939.04,-157.884 943.169,-148.127 933.856,-153.179 939.04,-157.884"/>
</g>
<!-- Node33 -->
<g id="node33" class="node"><title>Node33</title>
<g id="a_node33"><a xlink:href="../../d8/de8/Debug_8hh.html" target="_top" xlink:title="boca/generic/Debug.hh">
<polygon fill="white" stroke="red" points="761.5,-67.5 761.5,-86.5 878.5,-86.5 878.5,-67.5 761.5,-67.5"/>
<text text-anchor="middle" x="820" y="-74.5" font-family="Helvetica,sans-Serif" font-size="10.00">boca/generic/Debug.hh</text>
</a>
</g>
</g>
<!-- Node32&#45;&gt;Node33 -->
<g id="edge36" class="edge"><title>Node32&#45;&gt;Node33</title>
<path fill="none" stroke="midnightblue" d="M820,-128.975C820,-120.58 820,-107.481 820,-96.6631"/>
<polygon fill="midnightblue" stroke="midnightblue" points="823.5,-96.5091 820,-86.5091 816.5,-96.5091 823.5,-96.5091"/>
</g>
<!-- Node33&#45;&gt;Node15 -->
<g id="edge37" class="edge"><title>Node33&#45;&gt;Node15</title>
<path fill="none" stroke="midnightblue" d="M792.491,-67.4751C758.749,-57.0187 701.454,-39.263 664.173,-27.7099"/>
<polygon fill="midnightblue" stroke="midnightblue" points="664.813,-24.2441 654.225,-24.6271 662.741,-30.9304 664.813,-24.2441"/>
</g>
<!-- Node35&#45;&gt;Node7 -->
<g id="edge42" class="edge"><title>Node35&#45;&gt;Node7</title>
<path fill="none" stroke="midnightblue" d="M1370.23,-195.912C1371.17,-179.266 1375.68,-142.535 1397,-123 1414.75,-106.732 1471.32,-94.6607 1518.16,-87.1385"/>
<polygon fill="midnightblue" stroke="midnightblue" points="1518.95,-90.5573 1528.29,-85.5563 1517.87,-83.6411 1518.95,-90.5573"/>
</g>
<!-- Node35&#45;&gt;Node19 -->
<g id="edge43" class="edge"><title>Node35&#45;&gt;Node19</title>
<path fill="none" stroke="midnightblue" d="M1312.62,-203.562C1186.42,-200.861 875.459,-190.717 618,-154 610.814,-152.975 603.246,-151.599 595.9,-150.1"/>
<polygon fill="midnightblue" stroke="midnightblue" points="596.589,-146.669 586.078,-148.003 595.127,-153.514 596.589,-146.669"/>
</g>
<!-- Node35&#45;&gt;Node23 -->
<g id="edge46" class="edge"><title>Node35&#45;&gt;Node23</title>
<path fill="none" stroke="midnightblue" d="M1356.11,-195.734C1338.97,-184.916 1309.6,-166.383 1289.29,-153.566"/>
<polygon fill="midnightblue" stroke="midnightblue" points="1291,-150.504 1280.67,-148.127 1287.26,-156.424 1291,-150.504"/>
</g>
<!-- Node35&#45;&gt;Node33 -->
<g id="edge48" class="edge"><title>Node35&#45;&gt;Node33</title>
<path fill="none" stroke="midnightblue" d="M1312.81,-197.894C1255.07,-190.389 1163.7,-176.217 1087,-154 1051.96,-143.851 1045.75,-134.105 1011,-123 965.87,-108.577 913.406,-96.5438 874.895,-88.5608"/>
<polygon fill="midnightblue" stroke="midnightblue" points="875.419,-85.0956 864.92,-86.5189 874.015,-91.9534 875.419,-85.0956"/>
</g>
<!-- Node36 -->
<g id="node36" class="node"><title>Node36</title>
<g id="a_node36"><a xlink:href="../../d6/dd8/Types_8hh.html" target="_top" xlink:title="boca/generic/Types.hh">
<polygon fill="white" stroke="red" points="1406,-129 1406,-148 1522,-148 1522,-129 1406,-129"/>
<text text-anchor="middle" x="1464" y="-136" font-family="Helvetica,sans-Serif" font-size="10.00">boca/generic/Types.hh</text>
</a>
</g>
</g>
<!-- Node35&#45;&gt;Node36 -->
<g id="edge41" class="edge"><title>Node35&#45;&gt;Node36</title>
<path fill="none" stroke="midnightblue" d="M1382.68,-195.734C1398.18,-185.013 1424.64,-166.716 1443.16,-153.914"/>
<polygon fill="midnightblue" stroke="midnightblue" points="1445.29,-156.694 1451.52,-148.127 1441.31,-150.936 1445.29,-156.694"/>
</g>
<!-- Node37 -->
<g id="node37" class="node"><title>Node37</title>
<g id="a_node37"><a xlink:href="../../dd/d01/tagger_2Base_8hh.html" target="_top" xlink:title="boca/tagger/Base.hh">
<polygon fill="white" stroke="red" points="1096.5,-129 1096.5,-148 1203.5,-148 1203.5,-129 1096.5,-129"/>
<text text-anchor="middle" x="1150" y="-136" font-family="Helvetica,sans-Serif" font-size="10.00">boca/tagger/Base.hh</text>
</a>
</g>
</g>
<!-- Node35&#45;&gt;Node37 -->
<g id="edge44" class="edge"><title>Node35&#45;&gt;Node37</title>
<path fill="none" stroke="midnightblue" d="M1340.79,-195.869C1301.64,-184.303 1232.07,-163.749 1188.63,-150.914"/>
<polygon fill="midnightblue" stroke="midnightblue" points="1189.57,-147.541 1178.98,-148.064 1187.58,-154.254 1189.57,-147.541"/>
</g>
<!-- Node38 -->
<g id="node38" class="node"><title>Node38</title>
<g id="a_node38"><a xlink:href="../../de/df0/Filter_8hh.html" target="_top" xlink:title="boca/Filter.hh">
<polygon fill="white" stroke="red" points="1540,-129 1540,-148 1616,-148 1616,-129 1540,-129"/>
<text text-anchor="middle" x="1578" y="-136" font-family="Helvetica,sans-Serif" font-size="10.00">boca/Filter.hh</text>
</a>
</g>
</g>
<!-- Node35&#45;&gt;Node38 -->
<g id="edge47" class="edge"><title>Node35&#45;&gt;Node38</title>
<path fill="none" stroke="midnightblue" d="M1397.62,-195.869C1434.48,-184.351 1499.85,-163.922 1540.95,-151.077"/>
<polygon fill="midnightblue" stroke="midnightblue" points="1542.1,-154.387 1550.6,-148.064 1540.01,-147.706 1542.1,-154.387"/>
</g>
<!-- Node37&#45;&gt;Node20 -->
<g id="edge45" class="edge"><title>Node37&#45;&gt;Node20</title>
<path fill="none" stroke="midnightblue" d="M1138.25,-128.975C1125.22,-119.52 1103.96,-104.096 1088.24,-92.6871"/>
<polygon fill="midnightblue" stroke="midnightblue" points="1089.88,-89.5492 1079.73,-86.5091 1085.77,-95.2149 1089.88,-89.5492"/>
</g>
<!-- Node40 -->
<g id="node40" class="node"><title>Node40</title>
<g id="a_node40"><a xlink:href="../../dc/d3c/BottomBase_8hh.html" target="_top" xlink:title="boca/standardmodel\l/branch/BottomBase.hh">
<polygon fill="white" stroke="red" points="1830.5,-123.5 1830.5,-153.5 1949.5,-153.5 1949.5,-123.5 1830.5,-123.5"/>
<text text-anchor="start" x="1838.5" y="-141.5" font-family="Helvetica,sans-Serif" font-size="10.00">boca/standardmodel</text>
<text text-anchor="middle" x="1890" y="-130.5" font-family="Helvetica,sans-Serif" font-size="10.00">/branch/BottomBase.hh</text>
</a>
</g>
</g>
<!-- Node39&#45;&gt;Node40 -->
<g id="edge50" class="edge"><title>Node39&#45;&gt;Node40</title>
<path fill="none" stroke="midnightblue" d="M1549.17,-191.755C1552.15,-191.134 1555.11,-190.544 1558,-190 1671.78,-168.589 1701.82,-173.139 1816,-154 1817.45,-153.757 1818.92,-153.506 1820.4,-153.251"/>
<polygon fill="midnightblue" stroke="midnightblue" points="1821.04,-156.691 1830.28,-151.494 1819.82,-149.799 1821.04,-156.691"/>
</g>
<!-- Node42 -->
<g id="node42" class="node"><title>Node42</title>
<g id="a_node42"><a xlink:href="../../d1/d88/branch_2Particle_8hh.html" target="_top" xlink:title="boca/branch/Particle.hh">
<polygon fill="white" stroke="red" points="1954.5,-67.5 1954.5,-86.5 2073.5,-86.5 2073.5,-67.5 1954.5,-67.5"/>
<text text-anchor="middle" x="2014" y="-74.5" font-family="Helvetica,sans-Serif" font-size="10.00">boca/branch/Particle.hh</text>
</a>
</g>
</g>
<!-- Node39&#45;&gt;Node42 -->
<g id="edge52" class="edge"><title>Node39&#45;&gt;Node42</title>
<path fill="none" stroke="midnightblue" d="M1549.19,-191.824C1552.16,-191.185 1555.12,-190.572 1558,-190 1657.33,-170.276 1690.59,-195.431 1783,-154 1802.89,-145.083 1801.44,-132.611 1821,-123 1859.55,-104.059 1906.4,-92.8897 1944.29,-86.4169"/>
<polygon fill="midnightblue" stroke="midnightblue" points="1944.91,-89.8611 1954.22,-84.792 1943.78,-82.9529 1944.91,-89.8611"/>
</g>
<!-- Node41 -->
<g id="node41" class="node"><title>Node41</title>
<polygon fill="white" stroke="#bfbfbf" points="1860.5,-67.5 1860.5,-86.5 1919.5,-86.5 1919.5,-67.5 1860.5,-67.5"/>
<text text-anchor="middle" x="1890" y="-74.5" font-family="Helvetica,sans-Serif" font-size="10.00">TObject.h</text>
</g>
<!-- Node40&#45;&gt;Node41 -->
<g id="edge51" class="edge"><title>Node40&#45;&gt;Node41</title>
<path fill="none" stroke="midnightblue" d="M1890,-123.399C1890,-115.466 1890,-105.458 1890,-96.8583"/>
<polygon fill="midnightblue" stroke="midnightblue" points="1893.5,-96.6577 1890,-86.6578 1886.5,-96.6578 1893.5,-96.6577"/>
</g>
<!-- Node43&#45;&gt;Node28 -->
<g id="edge54" class="edge"><title>Node43&#45;&gt;Node28</title>
<path fill="none" stroke="midnightblue" d="M706.707,-190.396C702.41,-180.763 696.677,-167.914 692.047,-157.537"/>
<polygon fill="midnightblue" stroke="midnightblue" points="695.15,-155.901 687.879,-148.195 688.757,-158.753 695.15,-155.901"/>
</g>
<!-- Node44&#45;&gt;Node4 -->
<g id="edge56" class="edge"><title>Node44&#45;&gt;Node4</title>
<path fill="none" stroke="midnightblue" d="M1616.01,-257.396C1649.91,-245.739 1697.49,-229.373 1729.47,-218.376"/>
<polygon fill="midnightblue" stroke="midnightblue" points="1730.95,-221.569 1739.26,-215.007 1728.67,-214.95 1730.95,-221.569"/>
</g>
<!-- Node44&#45;&gt;Node35 -->
<g id="edge60" class="edge"><title>Node44&#45;&gt;Node35</title>
<path fill="none" stroke="midnightblue" d="M1530.77,-257.476C1493.7,-245.723 1441.41,-229.143 1406.65,-218.12"/>
<polygon fill="midnightblue" stroke="midnightblue" points="1407.49,-214.715 1396.9,-215.029 1405.37,-221.387 1407.49,-214.715"/>
</g>
<!-- Node45 -->
<g id="node45" class="node"><title>Node45</title>
<g id="a_node45"><a xlink:href="../../da/d6d/branch_2WLeptonic_8hh.html" target="_top" xlink:title="boca/standardmodel\l/branch/WLeptonic.hh">
<polygon fill="white" stroke="black" points="1567,-190.5 1567,-220.5 1679,-220.5 1679,-190.5 1567,-190.5"/>
<text text-anchor="start" x="1575" y="-208.5" font-family="Helvetica,sans-Serif" font-size="10.00">boca/standardmodel</text>
<text text-anchor="middle" x="1623" y="-197.5" font-family="Helvetica,sans-Serif" font-size="10.00">/branch/WLeptonic.hh</text>
</a>
</g>
</g>
<!-- Node44&#45;&gt;Node45 -->
<g id="edge57" class="edge"><title>Node44&#45;&gt;Node45</title>
<path fill="none" stroke="midnightblue" d="M1585.42,-257.396C1591.58,-249.049 1599.53,-238.287 1606.52,-228.811"/>
<polygon fill="midnightblue" stroke="midnightblue" points="1609.48,-230.7 1612.61,-220.577 1603.85,-226.542 1609.48,-230.7"/>
</g>
<!-- Node46 -->
<g id="node46" class="node"><title>Node46</title>
<g id="a_node46"><a xlink:href="../../dc/d27/branch_2TwoBody_8hh.html" target="_top" xlink:title="boca/branch/TwoBody.hh">
<polygon fill="white" stroke="black" points="1968,-129 1968,-148 2096,-148 2096,-129 1968,-129"/>
<text text-anchor="middle" x="2032" y="-136" font-family="Helvetica,sans-Serif" font-size="10.00">boca/branch/TwoBody.hh</text>
</a>
</g>
</g>
<!-- Node45&#45;&gt;Node46 -->
<g id="edge58" class="edge"><title>Node45&#45;&gt;Node46</title>
<path fill="none" stroke="midnightblue" d="M1679.31,-191.624C1682.24,-191.052 1685.15,-190.506 1688,-190 1807.19,-168.801 1838.54,-173.649 1958,-154 1965.37,-152.789 1973.12,-151.397 1980.73,-149.967"/>
<polygon fill="midnightblue" stroke="midnightblue" points="1981.43,-153.395 1990.59,-148.075 1980.11,-146.521 1981.43,-153.395"/>
</g>
<!-- Node46&#45;&gt;Node42 -->
<g id="edge59" class="edge"><title>Node46&#45;&gt;Node42</title>
<path fill="none" stroke="midnightblue" d="M2029.42,-128.975C2026.85,-120.492 2022.83,-107.204 2019.54,-96.3222"/>
<polygon fill="midnightblue" stroke="midnightblue" points="2022.82,-95.0672 2016.57,-86.5091 2016.12,-97.0942 2022.82,-95.0672"/>
</g>
<!-- Node47&#45;&gt;Node40 -->
<g id="edge63" class="edge"><title>Node47&#45;&gt;Node40</title>
<path fill="none" stroke="midnightblue" d="M1904.09,-190.396C1901.9,-182.474 1899.1,-172.379 1896.58,-163.271"/>
<polygon fill="midnightblue" stroke="midnightblue" points="1899.94,-162.28 1893.9,-153.577 1893.19,-164.148 1899.94,-162.28"/>
</g>
<!-- Node47&#45;&gt;Node46 -->
<g id="edge62" class="edge"><title>Node47&#45;&gt;Node46</title>
<path fill="none" stroke="midnightblue" d="M1934.91,-190.396C1956.28,-179.193 1985.95,-163.641 2006.85,-152.685"/>
<polygon fill="midnightblue" stroke="midnightblue" points="2008.54,-155.75 2015.77,-148.007 2005.29,-149.55 2008.54,-155.75"/>
</g>
<!-- Node48&#45;&gt;Node4 -->
<g id="edge66" class="edge"><title>Node48&#45;&gt;Node4</title>
<path fill="none" stroke="midnightblue" d="M1867.66,-329.869C1859.66,-314.374 1841.49,-281.205 1821,-257 1809.86,-243.846 1795.29,-230.993 1783.67,-221.546"/>
<polygon fill="midnightblue" stroke="midnightblue" points="1785.82,-218.79 1775.81,-215.314 1781.47,-224.273 1785.82,-218.79"/>
</g>
<!-- Node48&#45;&gt;Node35 -->
<g id="edge65" class="edge"><title>Node48&#45;&gt;Node35</title>
<path fill="none" stroke="midnightblue" d="M1826.65,-329.976C1815.05,-327.907 1802.58,-325.78 1791,-324 1666.99,-304.94 1629.86,-328.18 1511,-288 1464.28,-272.206 1415.76,-240.097 1389.59,-221.239"/>
<polygon fill="midnightblue" stroke="midnightblue" points="1391.44,-218.255 1381.31,-215.169 1387.3,-223.902 1391.44,-218.255"/>
</g>
<!-- Node49 -->
<g id="node49" class="node"><title>Node49</title>
<g id="a_node49"><a xlink:href="../../df/d67/branch_2TopPartner_8hh.html" target="_top" xlink:title="include/branch/TopPartner.hh">
<polygon fill="white" stroke="black" points="1917,-263 1917,-282 2061,-282 2061,-263 1917,-263"/>
<text text-anchor="middle" x="1989" y="-270" font-family="Helvetica,sans-Serif" font-size="10.00">include/branch/TopPartner.hh</text>
</a>
</g>
</g>
<!-- Node48&#45;&gt;Node49 -->
<g id="edge67" class="edge"><title>Node48&#45;&gt;Node49</title>
<path fill="none" stroke="midnightblue" d="M1887.78,-329.734C1907.51,-318.769 1941.51,-299.881 1964.61,-287.049"/>
<polygon fill="midnightblue" stroke="midnightblue" points="1966.43,-290.043 1973.47,-282.127 1963.03,-283.924 1966.43,-290.043"/>
</g>
<!-- Node50 -->
<g id="node50" class="node"><title>Node50</title>
<g id="a_node50"><a xlink:href="../../da/df0/Multi_8hh.html" target="_top" xlink:title="boca/branch/Multi.hh">
<polygon fill="white" stroke="black" points="1985.5,-196 1985.5,-215 2092.5,-215 2092.5,-196 1985.5,-196"/>
<text text-anchor="middle" x="2039" y="-203" font-family="Helvetica,sans-Serif" font-size="10.00">boca/branch/Multi.hh</text>
</a>
</g>
</g>
<!-- Node49&#45;&gt;Node50 -->
<g id="edge68" class="edge"><title>Node49&#45;&gt;Node50</title>
<path fill="none" stroke="midnightblue" d="M1995.74,-262.734C2003.54,-252.598 2016.55,-235.69 2026.26,-223.056"/>
<polygon fill="midnightblue" stroke="midnightblue" points="2029.04,-225.188 2032.36,-215.127 2023.49,-220.92 2029.04,-225.188"/>
</g>
<!-- Node50&#45;&gt;Node46 -->
<g id="edge69" class="edge"><title>Node50&#45;&gt;Node46</title>
<path fill="none" stroke="midnightblue" d="M2038.06,-195.734C2037.03,-186.183 2035.35,-170.618 2034.02,-158.283"/>
<polygon fill="midnightblue" stroke="midnightblue" points="2037.48,-157.695 2032.93,-148.127 2030.52,-158.445 2037.48,-157.695"/>
</g>
</g>
</svg>
