<?xml version="1.0" encoding="UTF-8" standalone="no"?>
<!DOCTYPE svg PUBLIC "-//W3C//DTD SVG 1.1//EN"
 "http://www.w3.org/Graphics/SVG/1.1/DTD/svg11.dtd">
<!-- Generated by graphviz version 2.38.0 (20140413.2041)
 -->
<!-- Title: include/Result.hh Pages: 1 -->
<svg width="2123pt" height="151pt"
 viewBox="0.00 0.00 2122.50 151.00" xmlns="http://www.w3.org/2000/svg" xmlns:xlink="http://www.w3.org/1999/xlink">
<g id="graph0" class="graph" transform="scale(1 1) rotate(0) translate(4 147)">
<title>include/Result.hh</title>
<polygon fill="white" stroke="none" points="-4,4 -4,-147 2118.5,-147 2118.5,4 -4,4"/>
<!-- Node1 -->
<g id="node1" class="node"><title>Node1</title>
<polygon fill="#bfbfbf" stroke="black" points="258,-123.5 258,-142.5 350,-142.5 350,-123.5 258,-123.5"/>
<text text-anchor="middle" x="304" y="-130.5" font-family="Helvetica,sans-Serif" font-size="10.00">include/Result.hh</text>
</g>
<!-- Node2 -->
<g id="node2" class="node"><title>Node2</title>
<g id="a_node2"><a xlink:href="../../d0/d79/Branches_8hh.html" target="_top" xlink:title="Branches.hh">
<polygon fill="white" stroke="black" points="115.5,-67.5 115.5,-86.5 186.5,-86.5 186.5,-67.5 115.5,-67.5"/>
<text text-anchor="middle" x="151" y="-74.5" font-family="Helvetica,sans-Serif" font-size="10.00">Branches.hh</text>
</a>
</g>
</g>
<!-- Node1&#45;&gt;Node2 -->
<g id="edge1" class="edge"><title>Node1&#45;&gt;Node2</title>
<path fill="none" stroke="midnightblue" d="M279.757,-123.444C254.129,-114.399 213.515,-100.064 184.762,-89.9158"/>
<polygon fill="midnightblue" stroke="midnightblue" points="185.725,-86.5442 175.13,-86.5164 183.395,-93.1452 185.725,-86.5442"/>
</g>
<!-- Node7 -->
<g id="node7" class="node"><title>Node7</title>
<g id="a_node7"><a xlink:href="../../d0/d5f/Flag_8hh.html" target="_top" xlink:title="Flag.hh">
<polygon fill="white" stroke="black" points="279.5,-67.5 279.5,-86.5 328.5,-86.5 328.5,-67.5 279.5,-67.5"/>
<text text-anchor="middle" x="304" y="-74.5" font-family="Helvetica,sans-Serif" font-size="10.00">Flag.hh</text>
</a>
</g>
</g>
<!-- Node1&#45;&gt;Node7 -->
<g id="edge6" class="edge"><title>Node1&#45;&gt;Node7</title>
<path fill="none" stroke="midnightblue" d="M304,-123.083C304,-116.006 304,-105.861 304,-96.9865"/>
<polygon fill="midnightblue" stroke="midnightblue" points="307.5,-96.751 304,-86.7511 300.5,-96.7511 307.5,-96.751"/>
</g>
<!-- Node9 -->
<g id="node9" class="node"><title>Node9</title>
<g id="a_node9"><a xlink:href="../../dc/d45/Units_8hh.html" target="_top" xlink:title="Units.hh">
<polygon fill="white" stroke="black" points="1195.5,-67.5 1195.5,-86.5 1248.5,-86.5 1248.5,-67.5 1195.5,-67.5"/>
<text text-anchor="middle" x="1222" y="-74.5" font-family="Helvetica,sans-Serif" font-size="10.00">Units.hh</text>
</a>
</g>
</g>
<!-- Node1&#45;&gt;Node9 -->
<g id="edge8" class="edge"><title>Node1&#45;&gt;Node9</title>
<path fill="none" stroke="midnightblue" d="M350.153,-129.285C510.303,-119.865 1040.17,-88.6956 1185.09,-80.1713"/>
<polygon fill="midnightblue" stroke="midnightblue" points="1185.46,-83.6558 1195.23,-79.5745 1185.04,-76.6679 1185.46,-83.6558"/>
</g>
<!-- Node3 -->
<g id="node3" class="node"><title>Node3</title>
<polygon fill="white" stroke="#bfbfbf" points="0,-6 0,-25 44,-25 44,-6 0,-6"/>
<text text-anchor="middle" x="22" y="-13" font-family="Helvetica,sans-Serif" font-size="10.00">vector</text>
</g>
<!-- Node2&#45;&gt;Node3 -->
<g id="edge2" class="edge"><title>Node2&#45;&gt;Node3</title>
<path fill="none" stroke="midnightblue" d="M132.195,-67.4124C112.453,-58.386 80.5177,-43.7533 53,-31 51.8477,-30.466 50.6717,-29.92 49.4841,-29.3679"/>
<polygon fill="midnightblue" stroke="midnightblue" points="50.8915,-26.1624 40.3492,-25.1087 47.9335,-32.5067 50.8915,-26.1624"/>
</g>
<!-- Node4 -->
<g id="node4" class="node"><title>Node4</title>
<polygon fill="white" stroke="#bfbfbf" points="62.5,-6 62.5,-25 103.5,-25 103.5,-6 62.5,-6"/>
<text text-anchor="middle" x="83" y="-13" font-family="Helvetica,sans-Serif" font-size="10.00">string</text>
</g>
<!-- Node2&#45;&gt;Node4 -->
<g id="edge3" class="edge"><title>Node2&#45;&gt;Node4</title>
<path fill="none" stroke="midnightblue" d="M141.257,-67.4751C130.653,-58.1966 113.481,-43.1706 100.521,-31.831"/>
<polygon fill="midnightblue" stroke="midnightblue" points="102.555,-28.9601 92.7247,-25.0091 97.9457,-34.2282 102.555,-28.9601"/>
</g>
<!-- Node5 -->
<g id="node5" class="node"><title>Node5</title>
<polygon fill="white" stroke="#bfbfbf" points="121.5,-6 121.5,-25 180.5,-25 180.5,-6 121.5,-6"/>
<text text-anchor="middle" x="151" y="-13" font-family="Helvetica,sans-Serif" font-size="10.00">TObject.h</text>
</g>
<!-- Node2&#45;&gt;Node5 -->
<g id="edge4" class="edge"><title>Node2&#45;&gt;Node5</title>
<path fill="none" stroke="midnightblue" d="M151,-67.4751C151,-59.0803 151,-45.9806 151,-35.1631"/>
<polygon fill="midnightblue" stroke="midnightblue" points="154.5,-35.0091 151,-25.0091 147.5,-35.0091 154.5,-35.0091"/>
</g>
<!-- Node6 -->
<g id="node6" class="node"><title>Node6</title>
<polygon fill="white" stroke="#bfbfbf" points="199,-6 199,-25 255,-25 255,-6 199,-6"/>
<text text-anchor="middle" x="227" y="-13" font-family="Helvetica,sans-Serif" font-size="10.00">Rtypes.h</text>
</g>
<!-- Node2&#45;&gt;Node6 -->
<g id="edge5" class="edge"><title>Node2&#45;&gt;Node6</title>
<path fill="none" stroke="midnightblue" d="M161.889,-67.4751C173.966,-58.0199 193.667,-42.5961 208.24,-31.1871"/>
<polygon fill="midnightblue" stroke="midnightblue" points="210.415,-33.9295 216.131,-25.0091 206.1,-28.4177 210.415,-33.9295"/>
</g>
<!-- Node8 -->
<g id="node8" class="node"><title>Node8</title>
<polygon fill="white" stroke="#bfbfbf" points="273,-6 273,-25 335,-25 335,-6 273,-6"/>
<text text-anchor="middle" x="304" y="-13" font-family="Helvetica,sans-Serif" font-size="10.00">type_traits</text>
</g>
<!-- Node7&#45;&gt;Node8 -->
<g id="edge7" class="edge"><title>Node7&#45;&gt;Node8</title>
<path fill="none" stroke="midnightblue" d="M304,-67.4751C304,-59.0803 304,-45.9806 304,-35.1631"/>
<polygon fill="midnightblue" stroke="midnightblue" points="307.5,-35.0091 304,-25.0091 300.5,-35.0091 307.5,-35.0091"/>
</g>
<!-- Node10 -->
<g id="node10" class="node"><title>Node10</title>
<polygon fill="white" stroke="#bfbfbf" points="353,-6 353,-25 463,-25 463,-6 353,-6"/>
<text text-anchor="middle" x="408" y="-13" font-family="Helvetica,sans-Serif" font-size="10.00">boost/units/scale.hpp</text>
</g>
<!-- Node9&#45;&gt;Node10 -->
<g id="edge9" class="edge"><title>Node9&#45;&gt;Node10</title>
<path fill="none" stroke="midnightblue" d="M1195.27,-75.9651C1097.86,-75.5059 752.882,-70.9735 472,-31 465.18,-30.0294 458.011,-28.7083 451.038,-27.2564"/>
<polygon fill="midnightblue" stroke="midnightblue" points="451.544,-23.7843 441.027,-25.0614 450.045,-30.6219 451.544,-23.7843"/>
</g>
<!-- Node11 -->
<g id="node11" class="node"><title>Node11</title>
<polygon fill="white" stroke="#bfbfbf" points="481.5,-0.5 481.5,-30.5 606.5,-30.5 606.5,-0.5 481.5,-0.5"/>
<text text-anchor="start" x="489.5" y="-18.5" font-family="Helvetica,sans-Serif" font-size="10.00">boost/units/make_scaled</text>
<text text-anchor="middle" x="544" y="-7.5" font-family="Helvetica,sans-Serif" font-size="10.00">_unit.hpp</text>
</g>
<!-- Node9&#45;&gt;Node11 -->
<g id="edge10" class="edge"><title>Node9&#45;&gt;Node11</title>
<path fill="none" stroke="midnightblue" d="M1195.25,-75.2332C1111.36,-72.573 845.881,-62.2115 616.835,-31.144"/>
<polygon fill="midnightblue" stroke="midnightblue" points="617.028,-27.6377 606.645,-29.7447 616.076,-34.5727 617.028,-27.6377"/>
</g>
<!-- Node12 -->
<g id="node12" class="node"><title>Node12</title>
<polygon fill="white" stroke="#bfbfbf" points="624.5,-6 624.5,-25 737.5,-25 737.5,-6 624.5,-6"/>
<text text-anchor="middle" x="681" y="-13" font-family="Helvetica,sans-Serif" font-size="10.00">boost/units/config.hpp</text>
</g>
<!-- Node9&#45;&gt;Node12 -->
<g id="edge11" class="edge"><title>Node9&#45;&gt;Node12</title>
<path fill="none" stroke="midnightblue" d="M1195.28,-74.6498C1122.69,-70.7293 915.92,-57.8763 746,-31 739.325,-29.9441 732.309,-28.6145 725.456,-27.1911"/>
<polygon fill="midnightblue" stroke="midnightblue" points="726.105,-23.7507 715.591,-25.0597 724.627,-30.5928 726.105,-23.7507"/>
</g>
<!-- Node13 -->
<g id="node13" class="node"><title>Node13</title>
<polygon fill="white" stroke="#bfbfbf" points="755.5,-6 755.5,-25 912.5,-25 912.5,-6 755.5,-6"/>
<text text-anchor="middle" x="834" y="-13" font-family="Helvetica,sans-Serif" font-size="10.00">boost/units/base_dimension.hpp</text>
</g>
<!-- Node9&#45;&gt;Node13 -->
<g id="edge12" class="edge"><title>Node9&#45;&gt;Node13</title>
<path fill="none" stroke="midnightblue" d="M1195.49,-72.1551C1143.17,-64.5365 1022.93,-46.8841 922,-31 913.332,-29.6358 904.189,-28.165 895.206,-26.7017"/>
<polygon fill="midnightblue" stroke="midnightblue" points="895.6,-23.2197 885.166,-25.0588 894.47,-30.1278 895.6,-23.2197"/>
</g>
<!-- Node14 -->
<g id="node14" class="node"><title>Node14</title>
<polygon fill="white" stroke="#bfbfbf" points="931,-6 931,-25 1059,-25 1059,-6 931,-6"/>
<text text-anchor="middle" x="995" y="-13" font-family="Helvetica,sans-Serif" font-size="10.00">boost/units/base_unit.hpp</text>
</g>
<!-- Node9&#45;&gt;Node14 -->
<g id="edge13" class="edge"><title>Node9&#45;&gt;Node14</title>
<path fill="none" stroke="midnightblue" d="M1195.07,-68.9409C1156.12,-58.7313 1083.68,-39.7436 1037.48,-27.6345"/>
<polygon fill="midnightblue" stroke="midnightblue" points="1038.32,-24.2362 1027.76,-25.0863 1036.54,-31.0075 1038.32,-24.2362"/>
</g>
<!-- Node15 -->
<g id="node15" class="node"><title>Node15</title>
<polygon fill="white" stroke="#bfbfbf" points="1077,-6 1077,-25 1225,-25 1225,-6 1077,-6"/>
<text text-anchor="middle" x="1151" y="-13" font-family="Helvetica,sans-Serif" font-size="10.00">boost/units/make_system.hpp</text>
</g>
<!-- Node9&#45;&gt;Node15 -->
<g id="edge14" class="edge"><title>Node9&#45;&gt;Node15</title>
<path fill="none" stroke="midnightblue" d="M1211.83,-67.4751C1200.65,-58.1082 1182.48,-42.8839 1168.91,-31.5081"/>
<polygon fill="midnightblue" stroke="midnightblue" points="1171.07,-28.7496 1161.15,-25.0091 1166.57,-34.1148 1171.07,-28.7496"/>
</g>
<!-- Node16 -->
<g id="node16" class="node"><title>Node16</title>
<polygon fill="white" stroke="#bfbfbf" points="1243.5,-0.5 1243.5,-30.5 1342.5,-30.5 1342.5,-0.5 1243.5,-0.5"/>
<text text-anchor="start" x="1251.5" y="-18.5" font-family="Helvetica,sans-Serif" font-size="10.00">boost/units/derived</text>
<text text-anchor="middle" x="1293" y="-7.5" font-family="Helvetica,sans-Serif" font-size="10.00">_dimension.hpp</text>
</g>
<!-- Node9&#45;&gt;Node16 -->
<g id="edge15" class="edge"><title>Node9&#45;&gt;Node16</title>
<path fill="none" stroke="midnightblue" d="M1232.17,-67.4751C1241.61,-59.5673 1256.03,-47.4847 1268.46,-37.0675"/>
<polygon fill="midnightblue" stroke="midnightblue" points="1270.85,-39.6286 1276.27,-30.523 1266.35,-34.2635 1270.85,-39.6286"/>
</g>
<!-- Node17 -->
<g id="node17" class="node"><title>Node17</title>
<polygon fill="white" stroke="#bfbfbf" points="1360.5,-6 1360.5,-25 1481.5,-25 1481.5,-6 1360.5,-6"/>
<text text-anchor="middle" x="1421" y="-13" font-family="Helvetica,sans-Serif" font-size="10.00">boost/units/quantity.hpp</text>
</g>
<!-- Node9&#45;&gt;Node17 -->
<g id="edge16" class="edge"><title>Node9&#45;&gt;Node17</title>
<path fill="none" stroke="midnightblue" d="M1248.84,-67.9756C1283.29,-57.6749 1343.29,-39.7337 1382.58,-27.9875"/>
<polygon fill="midnightblue" stroke="midnightblue" points="1383.76,-31.288 1392.34,-25.0699 1381.75,-24.5813 1383.76,-31.288"/>
</g>
<!-- Node18 -->
<g id="node18" class="node"><title>Node18</title>
<polygon fill="white" stroke="#bfbfbf" points="1499.5,-0.5 1499.5,-30.5 1614.5,-30.5 1614.5,-0.5 1499.5,-0.5"/>
<text text-anchor="start" x="1507.5" y="-18.5" font-family="Helvetica,sans-Serif" font-size="10.00">boost/units/base_units</text>
<text text-anchor="middle" x="1557" y="-7.5" font-family="Helvetica,sans-Serif" font-size="10.00">/metric/barn.hpp</text>
</g>
<!-- Node9&#45;&gt;Node18 -->
<g id="edge17" class="edge"><title>Node9&#45;&gt;Node18</title>
<path fill="none" stroke="midnightblue" d="M1248.81,-71.9749C1295.62,-64.8469 1395.53,-49.198 1489.49,-31.2396"/>
<polygon fill="midnightblue" stroke="midnightblue" points="1490.28,-34.6514 1499.44,-29.3246 1488.96,-27.7776 1490.28,-34.6514"/>
</g>
<!-- Node19 -->
<g id="node19" class="node"><title>Node19</title>
<polygon fill="white" stroke="#bfbfbf" points="1632.5,-6 1632.5,-25 1745.5,-25 1745.5,-6 1632.5,-6"/>
<text text-anchor="middle" x="1689" y="-13" font-family="Helvetica,sans-Serif" font-size="10.00">boost/units/cmath.hpp</text>
</g>
<!-- Node9&#45;&gt;Node19 -->
<g id="edge18" class="edge"><title>Node9&#45;&gt;Node19</title>
<path fill="none" stroke="midnightblue" d="M1248.95,-73.9947C1313.84,-68.948 1483.73,-54.4258 1624,-31 1630.44,-29.9251 1637.19,-28.6194 1643.82,-27.2369"/>
<polygon fill="midnightblue" stroke="midnightblue" points="1645.02,-30.5583 1654.05,-25.0234 1643.54,-23.7165 1645.02,-30.5583"/>
</g>
<!-- Node20 -->
<g id="node20" class="node"><title>Node20</title>
<polygon fill="white" stroke="#bfbfbf" points="1763.5,-0.5 1763.5,-30.5 1868.5,-30.5 1868.5,-0.5 1763.5,-0.5"/>
<text text-anchor="start" x="1771.5" y="-18.5" font-family="Helvetica,sans-Serif" font-size="10.00">boost/units/systems</text>
<text text-anchor="middle" x="1816" y="-7.5" font-family="Helvetica,sans-Serif" font-size="10.00">/si/io.hpp</text>
</g>
<!-- Node9&#45;&gt;Node20 -->
<g id="edge19" class="edge"><title>Node9&#45;&gt;Node20</title>
<path fill="none" stroke="midnightblue" d="M1248.51,-75.1603C1325.28,-72.4347 1554.43,-62.2221 1753.16,-31.1524"/>
<polygon fill="midnightblue" stroke="midnightblue" points="1753.87,-34.5838 1763.2,-29.561 1752.77,-27.6701 1753.87,-34.5838"/>
</g>
<!-- Node21 -->
<g id="node21" class="node"><title>Node21</title>
<polygon fill="white" stroke="#bfbfbf" points="1886.5,-0.5 1886.5,-30.5 1991.5,-30.5 1991.5,-0.5 1886.5,-0.5"/>
<text text-anchor="start" x="1894.5" y="-18.5" font-family="Helvetica,sans-Serif" font-size="10.00">boost/units/systems</text>
<text text-anchor="middle" x="1939" y="-7.5" font-family="Helvetica,sans-Serif" font-size="10.00">/si/plane_angle.hpp</text>
</g>
<!-- Node9&#45;&gt;Node21 -->
<g id="edge20" class="edge"><title>Node9&#45;&gt;Node21</title>
<path fill="none" stroke="midnightblue" d="M1248.73,-75.7426C1337.09,-74.5612 1627.83,-68.0361 1876.27,-31.109"/>
<polygon fill="midnightblue" stroke="midnightblue" points="1876.84,-34.5632 1886.2,-29.6127 1875.79,-27.6413 1876.84,-34.5632"/>
</g>
<!-- Node22 -->
<g id="node22" class="node"><title>Node22</title>
<polygon fill="white" stroke="#bfbfbf" points="2009.5,-0.5 2009.5,-30.5 2114.5,-30.5 2114.5,-0.5 2009.5,-0.5"/>
<text text-anchor="start" x="2017.5" y="-18.5" font-family="Helvetica,sans-Serif" font-size="10.00">boost/units/systems</text>
<text text-anchor="middle" x="2062" y="-7.5" font-family="Helvetica,sans-Serif" font-size="10.00">/si/length.hpp</text>
</g>
<!-- Node9&#45;&gt;Node22 -->
<g id="edge21" class="edge"><title>Node9&#45;&gt;Node22</title>
<path fill="none" stroke="midnightblue" d="M1248.74,-76.1502C1347.41,-76.3504 1700.41,-73.9333 1999.05,-31.1226"/>
<polygon fill="midnightblue" stroke="midnightblue" points="1999.82,-34.5488 2009.21,-29.6481 1998.81,-27.6215 1999.82,-34.5488"/>
</g>
</g>
</svg>
