<?xml version="1.0" encoding="UTF-8" standalone="no"?>
<!DOCTYPE svg PUBLIC "-//W3C//DTD SVG 1.1//EN"
 "http://www.w3.org/Graphics/SVG/1.1/DTD/svg11.dtd">
<!-- Generated by graphviz version 2.38.0 (20140413.2041)
 -->
<!-- Title: boca::Multiplet Pages: 1 -->
<svg width="299pt" height="230pt"
 viewBox="0.00 0.00 299.00 230.00" xmlns="http://www.w3.org/2000/svg" xmlns:xlink="http://www.w3.org/1999/xlink">
<g id="graph0" class="graph" transform="scale(1 1) rotate(0) translate(4 226)">
<title>boca::Multiplet</title>
<polygon fill="white" stroke="none" points="-4,4 -4,-226 295,-226 295,4 -4,4"/>
<!-- Node1 -->
<g id="node1" class="node"><title>Node1</title>
<polygon fill="#bfbfbf" stroke="black" points="50.5,-0.5 50.5,-19.5 130.5,-19.5 130.5,-0.5 50.5,-0.5"/>
<text text-anchor="middle" x="90.5" y="-7.5" font-family="Helvetica,sans-Serif" font-size="10.00">boca::Multiplet</text>
</g>
<!-- Node2 -->
<g id="node2" class="node"><title>Node2</title>
<g id="a_node2"><a xlink:href="../../de/d8b/classboca_1_1MultipletBase.html" target="_top" xlink:title="boca::MultipletBase">
<polygon fill="white" stroke="black" points="0,-134.5 0,-153.5 103,-153.5 103,-134.5 0,-134.5"/>
<text text-anchor="middle" x="51.5" y="-141.5" font-family="Helvetica,sans-Serif" font-size="10.00">boca::MultipletBase</text>
</a>
</g>
</g>
<!-- Node2&#45;&gt;Node1 -->
<g id="edge1" class="edge"><title>Node2&#45;&gt;Node1</title>
<path fill="none" stroke="midnightblue" d="M56.9189,-124.659C65.4658,-95.731 81.7454,-40.6311 87.9824,-19.5212"/>
<polygon fill="midnightblue" stroke="midnightblue" points="53.5359,-123.757 54.0589,-134.339 60.249,-125.741 53.5359,-123.757"/>
</g>
<!-- Node4 -->
<g id="node4" class="node"><title>Node4</title>
<g id="a_node4"><a xlink:href="../../db/def/classboca_1_1Singlet.html" target="_top" xlink:title="Thin wrapper to make fastjet::PseudoJet behave like a Multiplet. Additionally this class astracts awa...">
<polygon fill="white" stroke="black" points="110.5,-67.5 110.5,-86.5 184.5,-86.5 184.5,-67.5 110.5,-67.5"/>
<text text-anchor="middle" x="147.5" y="-74.5" font-family="Helvetica,sans-Serif" font-size="10.00">boca::Singlet</text>
</a>
</g>
</g>
<!-- Node2&#45;&gt;Node4 -->
<g id="edge4" class="edge"><title>Node2&#45;&gt;Node4</title>
<path fill="none" stroke="midnightblue" d="M72.7758,-128.595C91.767,-115.736 118.95,-97.3306 134.758,-86.6273"/>
<polygon fill="midnightblue" stroke="midnightblue" points="70.7652,-125.729 64.447,-134.234 74.6898,-131.525 70.7652,-125.729"/>
</g>
<!-- Node3 -->
<g id="node3" class="node"><title>Node3</title>
<g id="a_node3"><a xlink:href="../../d4/de7/classboca_1_1Identification.html" target="_top" xlink:title="boca::Identification">
<polygon fill="white" stroke="black" points="2,-197 2,-216 101,-216 101,-197 2,-197"/>
<text text-anchor="middle" x="51.5" y="-204" font-family="Helvetica,sans-Serif" font-size="10.00">boca::Identification</text>
</a>
</g>
</g>
<!-- Node3&#45;&gt;Node2 -->
<g id="edge2" class="edge"><title>Node3&#45;&gt;Node2</title>
<path fill="none" stroke="midnightblue" d="M51.5,-186.503C51.5,-175.5 51.5,-162.182 51.5,-153.652"/>
<polygon fill="midnightblue" stroke="midnightblue" points="48.0001,-186.832 51.5,-196.832 55.0001,-186.832 48.0001,-186.832"/>
</g>
<!-- Node5 -->
<g id="node5" class="node"><title>Node5</title>
<g id="a_node5"><a xlink:href="../../df/d8a/classboca_1_1JetInfo.html" target="_top" xlink:title="Jet infos subclassed from Fastjet. ">
<polygon fill="white" stroke="black" points="121.5,-134.5 121.5,-153.5 195.5,-153.5 195.5,-134.5 121.5,-134.5"/>
<text text-anchor="middle" x="158.5" y="-141.5" font-family="Helvetica,sans-Serif" font-size="10.00">boca::JetInfo</text>
</a>
</g>
</g>
<!-- Node3&#45;&gt;Node5 -->
<g id="edge6" class="edge"><title>Node3&#45;&gt;Node5</title>
<path fill="none" stroke="midnightblue" d="M75.6758,-191.831C96.3829,-180.122 125.571,-163.619 143.198,-153.652"/>
<polygon fill="midnightblue" stroke="midnightblue" points="73.8127,-188.863 66.8305,-196.832 77.2581,-194.957 73.8127,-188.863"/>
</g>
<!-- Node4&#45;&gt;Node1 -->
<g id="edge3" class="edge"><title>Node4&#45;&gt;Node1</title>
<path fill="none" stroke="#9a32cd" stroke-dasharray="5,2" d="M133.149,-59.6348C122.002,-46.9228 106.984,-29.7978 98.0655,-19.6273"/>
<polygon fill="#9a32cd" stroke="#9a32cd" points="130.588,-62.0228 139.813,-67.2338 135.851,-57.4075 130.588,-62.0228"/>
<text text-anchor="middle" x="141" y="-41" font-family="Helvetica,sans-Serif" font-size="10.00"> singlet_</text>
</g>
<!-- Node5&#45;&gt;Node4 -->
<g id="edge5" class="edge"><title>Node5&#45;&gt;Node4</title>
<path fill="none" stroke="#9a32cd" stroke-dasharray="5,2" d="M155.291,-124.037C153.198,-111.67 150.566,-96.1198 148.96,-86.6273"/>
<polygon fill="#9a32cd" stroke="#9a32cd" points="151.897,-124.958 157.016,-134.234 158.799,-123.79 151.897,-124.958"/>
<text text-anchor="middle" x="174.5" y="-108" font-family="Helvetica,sans-Serif" font-size="10.00"> jet_info_</text>
</g>
<!-- Node6 -->
<g id="node6" class="node"><title>Node6</title>
<polygon fill="white" stroke="#bfbfbf" points="119.5,-191.5 119.5,-221.5 215.5,-221.5 215.5,-191.5 119.5,-191.5"/>
<text text-anchor="start" x="127.5" y="-209.5" font-family="Helvetica,sans-Serif" font-size="10.00">fastjet::PseudoJet</text>
<text text-anchor="middle" x="167.5" y="-198.5" font-family="Helvetica,sans-Serif" font-size="10.00">::UserInfoBase</text>
</g>
<!-- Node6&#45;&gt;Node5 -->
<g id="edge7" class="edge"><title>Node6&#45;&gt;Node5</title>
<path fill="none" stroke="midnightblue" d="M163.908,-181.352C162.444,-171.513 160.847,-160.775 159.77,-153.54"/>
<polygon fill="midnightblue" stroke="midnightblue" points="160.479,-182.092 165.413,-191.468 167.403,-181.062 160.479,-182.092"/>
</g>
<!-- Node7 -->
<g id="node7" class="node"><title>Node7</title>
<g id="a_node7"><a xlink:href="../../d6/dfb/classboca_1_1Vector2.html" target="_top" xlink:title="Copy of root::TVector2 in order to get rid of TObject. ">
<polygon fill="white" stroke="black" points="214,-134.5 214,-153.5 291,-153.5 291,-134.5 214,-134.5"/>
<text text-anchor="middle" x="252.5" y="-141.5" font-family="Helvetica,sans-Serif" font-size="10.00">boca::Vector2</text>
</a>
</g>
</g>
<!-- Node7&#45;&gt;Node4 -->
<g id="edge8" class="edge"><title>Node7&#45;&gt;Node4</title>
<path fill="none" stroke="#9a32cd" stroke-dasharray="5,2" d="M233.066,-128.429C222.963,-121.086 210.291,-112.23 198.5,-105 187.739,-98.4014 175.216,-91.7576 165.272,-86.7116"/>
<polygon fill="#9a32cd" stroke="#9a32cd" points="231.069,-131.305 241.197,-134.414 235.218,-125.667 231.069,-131.305"/>
<text text-anchor="middle" x="227.5" y="-108" font-family="Helvetica,sans-Serif" font-size="10.00"> pull_</text>
</g>
</g>
</svg>
