<?xml version="1.0" encoding="UTF-8" standalone="no"?>
<!DOCTYPE svg PUBLIC "-//W3C//DTD SVG 1.1//EN"
 "http://www.w3.org/Graphics/SVG/1.1/DTD/svg11.dtd">
<!-- Generated by graphviz version 2.38.0 (20140413.2041)
 -->
<!-- Title: boca/math/GradedContainer.hh Pages: 1 -->
<svg width="3110pt" height="386pt"
 viewBox="0.00 0.00 3110.00 386.00" xmlns="http://www.w3.org/2000/svg" xmlns:xlink="http://www.w3.org/1999/xlink">
<g id="graph0" class="graph" transform="scale(1 1) rotate(0) translate(4 382)">
<title>boca/math/GradedContainer.hh</title>
<polygon fill="white" stroke="none" points="-4,4 -4,-382 3106,-382 3106,4 -4,4"/>
<!-- Node1 -->
<g id="node1" class="node"><title>Node1</title>
<polygon fill="#bfbfbf" stroke="black" points="1677,-358.5 1677,-377.5 1829,-377.5 1829,-358.5 1677,-358.5"/>
<text text-anchor="middle" x="1753" y="-365.5" font-family="Helvetica,sans-Serif" font-size="10.00">boca/math/GradedContainer.hh</text>
</g>
<!-- Node2 -->
<g id="node2" class="node"><title>Node2</title>
<g id="a_node2"><a xlink:href="../../db/d8e/Vector2_8hh.html" target="_top" xlink:title="boca/math/Vector2.hh">
<polygon fill="white" stroke="black" points="1696.5,-302.5 1696.5,-321.5 1809.5,-321.5 1809.5,-302.5 1696.5,-302.5"/>
<text text-anchor="middle" x="1753" y="-309.5" font-family="Helvetica,sans-Serif" font-size="10.00">boca/math/Vector2.hh</text>
</a>
</g>
</g>
<!-- Node1&#45;&gt;Node2 -->
<g id="edge1" class="edge"><title>Node1&#45;&gt;Node2</title>
<path fill="none" stroke="midnightblue" d="M1753,-347.805C1753,-338.91 1753,-328.78 1753,-321.751"/>
<polygon fill="midnightblue" stroke="midnightblue" points="1749.5,-348.083 1753,-358.083 1756.5,-348.083 1749.5,-348.083"/>
</g>
<!-- Node3 -->
<g id="node3" class="node"><title>Node3</title>
<g id="a_node3"><a xlink:href="../../d1/df9/Vector3_8hh.html" target="_top" xlink:title="boca/math/Vector3.hh">
<polygon fill="white" stroke="black" points="1499.5,-246.5 1499.5,-265.5 1612.5,-265.5 1612.5,-246.5 1499.5,-246.5"/>
<text text-anchor="middle" x="1556" y="-253.5" font-family="Helvetica,sans-Serif" font-size="10.00">boca/math/Vector3.hh</text>
</a>
</g>
</g>
<!-- Node2&#45;&gt;Node3 -->
<g id="edge2" class="edge"><title>Node2&#45;&gt;Node3</title>
<path fill="none" stroke="midnightblue" d="M1711.77,-299.699C1674.59,-289.507 1620.73,-274.743 1587.07,-265.516"/>
<polygon fill="midnightblue" stroke="midnightblue" points="1711.22,-303.175 1721.78,-302.444 1713.07,-296.424 1711.22,-303.175"/>
</g>
<!-- Node31 -->
<g id="node31" class="node"><title>Node31</title>
<g id="a_node31"><a xlink:href="../../d4/dfd/Matrix2_8hh.html" target="_top" xlink:title="boca/math/Matrix2.hh">
<polygon fill="white" stroke="black" points="1697.5,-246.5 1697.5,-265.5 1808.5,-265.5 1808.5,-246.5 1697.5,-246.5"/>
<text text-anchor="middle" x="1753" y="-253.5" font-family="Helvetica,sans-Serif" font-size="10.00">boca/math/Matrix2.hh</text>
</a>
</g>
</g>
<!-- Node2&#45;&gt;Node31 -->
<g id="edge35" class="edge"><title>Node2&#45;&gt;Node31</title>
<path fill="none" stroke="midnightblue" d="M1753,-291.805C1753,-282.91 1753,-272.78 1753,-265.751"/>
<polygon fill="midnightblue" stroke="midnightblue" points="1749.5,-292.083 1753,-302.083 1756.5,-292.083 1749.5,-292.083"/>
</g>
<!-- Node33 -->
<g id="node33" class="node"><title>Node33</title>
<g id="a_node33"><a xlink:href="../../dc/d4e/Line2_8hh.html" target="_top" xlink:title="boca/math/Line2.hh">
<polygon fill="white" stroke="black" points="1111,-246.5 1111,-265.5 1213,-265.5 1213,-246.5 1111,-246.5"/>
<text text-anchor="middle" x="1162" y="-253.5" font-family="Helvetica,sans-Serif" font-size="10.00">boca/math/Line2.hh</text>
</a>
</g>
</g>
<!-- Node2&#45;&gt;Node33 -->
<g id="edge39" class="edge"><title>Node2&#45;&gt;Node33</title>
<path fill="none" stroke="midnightblue" d="M1686.25,-304.901C1567.14,-294.017 1320.43,-271.476 1213.4,-261.697"/>
<polygon fill="midnightblue" stroke="midnightblue" points="1686.06,-308.398 1696.33,-305.822 1686.69,-301.427 1686.06,-308.398"/>
</g>
<!-- Node41 -->
<g id="node41" class="node"><title>Node41</title>
<g id="a_node41"><a xlink:href="../../d6/d60/Rectangle_8hh.html" target="_top" xlink:title="boca/physics/Rectangle.hh">
<polygon fill="white" stroke="black" points="2179.5,-246.5 2179.5,-265.5 2314.5,-265.5 2314.5,-246.5 2179.5,-246.5"/>
<text text-anchor="middle" x="2247" y="-253.5" font-family="Helvetica,sans-Serif" font-size="10.00">boca/physics/Rectangle.hh</text>
</a>
</g>
</g>
<!-- Node2&#45;&gt;Node41 -->
<g id="edge48" class="edge"><title>Node2&#45;&gt;Node41</title>
<path fill="none" stroke="midnightblue" d="M1819.64,-303.716C1913.7,-293.433 2084.5,-274.764 2179.19,-264.412"/>
<polygon fill="midnightblue" stroke="midnightblue" points="1819.23,-300.24 1809.67,-304.806 1819.99,-307.198 1819.23,-300.24"/>
</g>
<!-- Node50 -->
<g id="node50" class="node"><title>Node50</title>
<g id="a_node50"><a xlink:href="../../d7/ded/Vector2_8cpp.html" target="_top" xlink:title="source/math/Vector2.cpp">
<polygon fill="white" stroke="black" points="2333,-246.5 2333,-265.5 2459,-265.5 2459,-246.5 2333,-246.5"/>
<text text-anchor="middle" x="2396" y="-253.5" font-family="Helvetica,sans-Serif" font-size="10.00">source/math/Vector2.cpp</text>
</a>
</g>
</g>
<!-- Node2&#45;&gt;Node50 -->
<g id="edge66" class="edge"><title>Node2&#45;&gt;Node50</title>
<path fill="none" stroke="midnightblue" d="M1819.99,-306.668C1926.6,-299.558 2141.4,-284.354 2323,-266 2326.18,-265.679 2329.43,-265.335 2332.71,-264.975"/>
<polygon fill="midnightblue" stroke="midnightblue" points="1819.45,-303.196 1809.71,-307.351 1819.92,-310.18 1819.45,-303.196"/>
</g>
<!-- Node4 -->
<g id="node4" class="node"><title>Node4</title>
<g id="a_node4"><a xlink:href="../../da/d1e/Plotting_8hh.html" target="_top" xlink:title="boca/plotting/Plotting.hh">
<polygon fill="white" stroke="black" points="416,-190.5 416,-209.5 538,-209.5 538,-190.5 416,-190.5"/>
<text text-anchor="middle" x="477" y="-197.5" font-family="Helvetica,sans-Serif" font-size="10.00">boca/plotting/Plotting.hh</text>
</a>
</g>
</g>
<!-- Node3&#45;&gt;Node4 -->
<g id="edge3" class="edge"><title>Node3&#45;&gt;Node4</title>
<path fill="none" stroke="midnightblue" d="M1489,-251.647C1293.54,-241.865 725.97,-213.46 538.154,-204.061"/>
<polygon fill="midnightblue" stroke="midnightblue" points="1488.97,-255.15 1499.13,-252.154 1489.32,-248.158 1488.97,-255.15"/>
</g>
<!-- Node11 -->
<g id="node11" class="node"><title>Node11</title>
<g id="a_node11"><a xlink:href="../../df/d17/LorentzVectorBase_8hh.html" target="_top" xlink:title="boca/math/LorentzVectorBase.hh">
<polygon fill="white" stroke="black" points="1563,-190.5 1563,-209.5 1725,-209.5 1725,-190.5 1563,-190.5"/>
<text text-anchor="middle" x="1644" y="-197.5" font-family="Helvetica,sans-Serif" font-size="10.00">boca/math/LorentzVectorBase.hh</text>
</a>
</g>
</g>
<!-- Node3&#45;&gt;Node11 -->
<g id="edge10" class="edge"><title>Node3&#45;&gt;Node11</title>
<path fill="none" stroke="midnightblue" d="M1578.98,-240.901C1595.11,-230.999 1616.18,-218.071 1629.9,-209.655"/>
<polygon fill="midnightblue" stroke="midnightblue" points="1576.83,-238.111 1570.14,-246.324 1580.49,-244.077 1576.83,-238.111"/>
</g>
<!-- Node20 -->
<g id="node20" class="node"><title>Node20</title>
<g id="a_node20"><a xlink:href="../../d8/d69/Matrix3_8hh.html" target="_top" xlink:title="boca/math/Matrix3.hh">
<polygon fill="white" stroke="black" points="1433.5,-190.5 1433.5,-209.5 1544.5,-209.5 1544.5,-190.5 1433.5,-190.5"/>
<text text-anchor="middle" x="1489" y="-197.5" font-family="Helvetica,sans-Serif" font-size="10.00">boca/math/Matrix3.hh</text>
</a>
</g>
</g>
<!-- Node3&#45;&gt;Node20 -->
<g id="edge21" class="edge"><title>Node3&#45;&gt;Node20</title>
<path fill="none" stroke="midnightblue" d="M1537.17,-239.82C1525.16,-230.145 1510.03,-217.948 1499.96,-209.834"/>
<polygon fill="midnightblue" stroke="midnightblue" points="1535.25,-242.774 1545.24,-246.324 1539.65,-237.324 1535.25,-242.774"/>
</g>
<!-- Node23 -->
<g id="node23" class="node"><title>Node23</title>
<g id="a_node23"><a xlink:href="../../df/dd3/Plot_8hh.html" target="_top" xlink:title="boca/plotting/Plot.hh">
<polygon fill="white" stroke="black" points="1840,-190.5 1840,-209.5 1946,-209.5 1946,-190.5 1840,-190.5"/>
<text text-anchor="middle" x="1893" y="-197.5" font-family="Helvetica,sans-Serif" font-size="10.00">boca/plotting/Plot.hh</text>
</a>
</g>
</g>
<!-- Node3&#45;&gt;Node23 -->
<g id="edge25" class="edge"><title>Node3&#45;&gt;Node23</title>
<path fill="none" stroke="midnightblue" d="M1619.32,-244.854C1682.99,-234.651 1780.06,-219.098 1839.85,-209.516"/>
<polygon fill="midnightblue" stroke="midnightblue" points="1618.72,-241.405 1609.4,-246.444 1619.83,-248.317 1618.72,-241.405"/>
</g>
<!-- Node30 -->
<g id="node30" class="node"><title>Node30</title>
<g id="a_node30"><a xlink:href="../../dd/d1f/Vector3_8cpp.html" target="_top" xlink:title="source/math/Vector3.cpp">
<polygon fill="white" stroke="black" points="1289,-190.5 1289,-209.5 1415,-209.5 1415,-190.5 1289,-190.5"/>
<text text-anchor="middle" x="1352" y="-197.5" font-family="Helvetica,sans-Serif" font-size="10.00">source/math/Vector3.cpp</text>
</a>
</g>
</g>
<!-- Node3&#45;&gt;Node30 -->
<g id="edge34" class="edge"><title>Node3&#45;&gt;Node30</title>
<path fill="none" stroke="midnightblue" d="M1513.8,-243.829C1475.28,-233.633 1419.18,-218.782 1384.17,-209.516"/>
<polygon fill="midnightblue" stroke="midnightblue" points="1513.11,-247.268 1523.68,-246.444 1514.9,-240.501 1513.11,-247.268"/>
</g>
<!-- Node5 -->
<g id="node5" class="node"><title>Node5</title>
<g id="a_node5"><a xlink:href="../../d4/d12/boca_2analysis_2Analysis_8hh.html" target="_top" xlink:title="boca/analysis/Analysis.hh">
<polygon fill="white" stroke="black" points="219.5,-129 219.5,-148 350.5,-148 350.5,-129 219.5,-129"/>
<text text-anchor="middle" x="285" y="-136" font-family="Helvetica,sans-Serif" font-size="10.00">boca/analysis/Analysis.hh</text>
</a>
</g>
</g>
<!-- Node4&#45;&gt;Node5 -->
<g id="edge4" class="edge"><title>Node4&#45;&gt;Node5</title>
<path fill="none" stroke="midnightblue" d="M439.505,-187.381C402.185,-175.815 345.797,-158.341 312.458,-148.009"/>
<polygon fill="midnightblue" stroke="midnightblue" points="438.903,-190.858 449.491,-190.475 440.975,-184.172 438.903,-190.858"/>
</g>
<!-- Node6 -->
<g id="node6" class="node"><title>Node6</title>
<g id="a_node6"><a xlink:href="../../df/d04/AnalysisStandardModel_8hh.html" target="_top" xlink:title="boca/standardmodel\l/AnalysisStandardModel.hh">
<polygon fill="white" stroke="red" points="0,-56.5 0,-86.5 136,-86.5 136,-56.5 0,-56.5"/>
<text text-anchor="start" x="8" y="-74.5" font-family="Helvetica,sans-Serif" font-size="10.00">boca/standardmodel</text>
<text text-anchor="middle" x="68" y="-63.5" font-family="Helvetica,sans-Serif" font-size="10.00">/AnalysisStandardModel.hh</text>
</a>
</g>
</g>
<!-- Node5&#45;&gt;Node6 -->
<g id="edge5" class="edge"><title>Node5&#45;&gt;Node6</title>
<path fill="none" stroke="midnightblue" d="M246.329,-125.917C209.534,-114.895 154.112,-98.2938 114.832,-86.5281"/>
<polygon fill="midnightblue" stroke="midnightblue" points="245.6,-129.352 256.184,-128.869 247.609,-122.646 245.6,-129.352"/>
</g>
<!-- Node7 -->
<g id="node7" class="node"><title>Node7</title>
<g id="a_node7"><a xlink:href="../../d9/dee/examples_2cut_2include_2Analysis_8hh.html" target="_top" xlink:title="examples/cut/include\l/Analysis.hh">
<polygon fill="white" stroke="red" points="154.5,-56.5 154.5,-86.5 263.5,-86.5 263.5,-56.5 154.5,-56.5"/>
<text text-anchor="start" x="162.5" y="-74.5" font-family="Helvetica,sans-Serif" font-size="10.00">examples/cut/include</text>
<text text-anchor="middle" x="209" y="-63.5" font-family="Helvetica,sans-Serif" font-size="10.00">/Analysis.hh</text>
</a>
</g>
</g>
<!-- Node5&#45;&gt;Node7 -->
<g id="edge6" class="edge"><title>Node5&#45;&gt;Node7</title>
<path fill="none" stroke="midnightblue" d="M266.793,-121.928C254.224,-111.179 237.649,-97.0024 225.473,-86.589"/>
<polygon fill="midnightblue" stroke="midnightblue" points="264.876,-124.894 274.75,-128.734 269.426,-119.574 264.876,-124.894"/>
</g>
<!-- Node8 -->
<g id="node8" class="node"><title>Node8</title>
<g id="a_node8"><a xlink:href="../../df/d4c/HeavyHiggs_8hh.html" target="_top" xlink:title="examples/heavyhiggs\l/include/analysis/HeavyHiggs.hh">
<polygon fill="white" stroke="red" points="282,-56.5 282,-86.5 442,-86.5 442,-56.5 282,-56.5"/>
<text text-anchor="start" x="290" y="-74.5" font-family="Helvetica,sans-Serif" font-size="10.00">examples/heavyhiggs</text>
<text text-anchor="middle" x="362" y="-63.5" font-family="Helvetica,sans-Serif" font-size="10.00">/include/analysis/HeavyHiggs.hh</text>
</a>
</g>
</g>
<!-- Node5&#45;&gt;Node8 -->
<g id="edge7" class="edge"><title>Node5&#45;&gt;Node8</title>
<path fill="none" stroke="midnightblue" d="M303.081,-122.237C315.857,-111.452 332.856,-97.1025 345.31,-86.589"/>
<polygon fill="midnightblue" stroke="midnightblue" points="300.768,-119.609 295.385,-128.734 305.284,-124.958 300.768,-119.609"/>
</g>
<!-- Node9 -->
<g id="node9" class="node"><title>Node9</title>
<g id="a_node9"><a xlink:href="../../dc/d70/AnalysisHiggsCpv_8hh.html" target="_top" xlink:title="examples/higgscpv/include\l/AnalysisHiggsCpv.hh">
<polygon fill="white" stroke="red" points="828,-56.5 828,-86.5 962,-86.5 962,-56.5 828,-56.5"/>
<text text-anchor="start" x="836" y="-74.5" font-family="Helvetica,sans-Serif" font-size="10.00">examples/higgscpv/include</text>
<text text-anchor="middle" x="895" y="-63.5" font-family="Helvetica,sans-Serif" font-size="10.00">/AnalysisHiggsCpv.hh</text>
</a>
</g>
</g>
<!-- Node5&#45;&gt;Node9 -->
<g id="edge8" class="edge"><title>Node5&#45;&gt;Node9</title>
<path fill="none" stroke="midnightblue" d="M335.259,-127.088C343.503,-125.581 351.974,-124.152 360,-123 527.382,-98.9776 725.931,-83.6569 827.609,-76.758"/>
<polygon fill="midnightblue" stroke="midnightblue" points="334.538,-123.662 325.359,-128.953 335.834,-130.541 334.538,-123.662"/>
</g>
<!-- Node10 -->
<g id="node10" class="node"><title>Node10</title>
<g id="a_node10"><a xlink:href="../../d8/d57/analysis_2TopPartner_8hh.html" target="_top" xlink:title="examples/toppartner\l/include/analysis/TopPartner.hh">
<polygon fill="white" stroke="red" points="460,-56.5 460,-86.5 614,-86.5 614,-56.5 460,-56.5"/>
<text text-anchor="start" x="468" y="-74.5" font-family="Helvetica,sans-Serif" font-size="10.00">examples/toppartner</text>
<text text-anchor="middle" x="537" y="-63.5" font-family="Helvetica,sans-Serif" font-size="10.00">/include/analysis/TopPartner.hh</text>
</a>
</g>
</g>
<!-- Node5&#45;&gt;Node10 -->
<g id="edge9" class="edge"><title>Node5&#45;&gt;Node10</title>
<path fill="none" stroke="midnightblue" d="M328.002,-126.408C370.668,-115.403 436.202,-98.4995 482.494,-86.5592"/>
<polygon fill="midnightblue" stroke="midnightblue" points="327.013,-123.049 318.204,-128.936 328.761,-129.827 327.013,-123.049"/>
</g>
<!-- Node12 -->
<g id="node12" class="node"><title>Node12</title>
<g id="a_node12"><a xlink:href="../../d6/dc8/LorentzVector_8hh.html" target="_top" xlink:title="boca/math/LorentzVector.hh">
<polygon fill="white" stroke="red" points="1585,-129 1585,-148 1725,-148 1725,-129 1585,-129"/>
<text text-anchor="middle" x="1655" y="-136" font-family="Helvetica,sans-Serif" font-size="10.00">boca/math/LorentzVector.hh</text>
</a>
</g>
</g>
<!-- Node11&#45;&gt;Node12 -->
<g id="edge11" class="edge"><title>Node11&#45;&gt;Node12</title>
<path fill="none" stroke="midnightblue" d="M1647.45,-180.317C1649.45,-169.496 1651.88,-156.398 1653.43,-148.009"/>
<polygon fill="midnightblue" stroke="midnightblue" points="1643.95,-180.005 1645.58,-190.475 1650.84,-181.278 1643.95,-180.005"/>
</g>
<!-- Node19 -->
<g id="node19" class="node"><title>Node19</title>
<g id="a_node19"><a xlink:href="../../dd/de1/LorentzVectorBase_8cpp.html" target="_top" xlink:title="source/math/LorentzVector\lBase.cpp">
<polygon fill="white" stroke="black" points="1433,-123.5 1433,-153.5 1567,-153.5 1567,-123.5 1433,-123.5"/>
<text text-anchor="start" x="1441" y="-141.5" font-family="Helvetica,sans-Serif" font-size="10.00">source/math/LorentzVector</text>
<text text-anchor="middle" x="1500" y="-130.5" font-family="Helvetica,sans-Serif" font-size="10.00">Base.cpp</text>
</a>
</g>
</g>
<!-- Node11&#45;&gt;Node19 -->
<g id="edge20" class="edge"><title>Node11&#45;&gt;Node19</title>
<path fill="none" stroke="midnightblue" d="M1613.97,-186.59C1590.62,-176.942 1558.22,-163.558 1533.94,-153.523"/>
<polygon fill="midnightblue" stroke="midnightblue" points="1612.79,-189.891 1623.37,-190.475 1615.46,-183.422 1612.79,-189.891"/>
</g>
<!-- Node13 -->
<g id="node13" class="node"><title>Node13</title>
<g id="a_node13"><a xlink:href="../../d8/d42/PseudoJet_8hh.html" target="_top" xlink:title="boca/fastjet/PseudoJet.hh">
<polygon fill="white" stroke="red" points="1589.5,-62 1589.5,-81 1720.5,-81 1720.5,-62 1589.5,-62"/>
<text text-anchor="middle" x="1655" y="-69" font-family="Helvetica,sans-Serif" font-size="10.00">boca/fastjet/PseudoJet.hh</text>
</a>
</g>
</g>
<!-- Node12&#45;&gt;Node13 -->
<g id="edge12" class="edge"><title>Node12&#45;&gt;Node13</title>
<path fill="none" stroke="midnightblue" d="M1655,-118.537C1655,-106.17 1655,-90.6198 1655,-81.1273"/>
<polygon fill="midnightblue" stroke="midnightblue" points="1651.5,-118.734 1655,-128.734 1658.5,-118.734 1651.5,-118.734"/>
</g>
<!-- Node14 -->
<g id="node14" class="node"><title>Node14</title>
<g id="a_node14"><a xlink:href="../../d5/d7e/PseudoJet_8cpp.html" target="_top" xlink:title="source/fastjet/PseudoJet.cpp">
<polygon fill="white" stroke="black" points="1517,-0.5 1517,-19.5 1661,-19.5 1661,-0.5 1517,-0.5"/>
<text text-anchor="middle" x="1589" y="-7.5" font-family="Helvetica,sans-Serif" font-size="10.00">source/fastjet/PseudoJet.cpp</text>
</a>
</g>
</g>
<!-- Node12&#45;&gt;Node14 -->
<g id="edge19" class="edge"><title>Node12&#45;&gt;Node14</title>
<path fill="none" stroke="midnightblue" d="M1622.6,-124.549C1606.71,-116.344 1589.06,-104.028 1580,-87 1568.26,-64.9497 1578.62,-34.2985 1584.95,-19.5708"/>
<polygon fill="midnightblue" stroke="midnightblue" points="1621.15,-127.736 1631.68,-128.909 1624.18,-121.426 1621.15,-127.736"/>
</g>
<!-- Node15 -->
<g id="node15" class="node"><title>Node15</title>
<g id="a_node15"><a xlink:href="../../d7/dea/Member_8hh.html" target="_top" xlink:title="boca/physics/Member.hh">
<polygon fill="white" stroke="red" points="1407,-62 1407,-81 1533,-81 1533,-62 1407,-62"/>
<text text-anchor="middle" x="1470" y="-69" font-family="Helvetica,sans-Serif" font-size="10.00">boca/physics/Member.hh</text>
</a>
</g>
</g>
<!-- Node12&#45;&gt;Node15 -->
<g id="edge15" class="edge"><title>Node12&#45;&gt;Node15</title>
<path fill="none" stroke="midnightblue" d="M1620.66,-125.436C1583.96,-112.542 1526.71,-92.4243 1494.37,-81.0637"/>
<polygon fill="midnightblue" stroke="midnightblue" points="1619.84,-128.856 1630.43,-128.869 1622.16,-122.251 1619.84,-128.856"/>
</g>
<!-- Node16 -->
<g id="node16" class="node"><title>Node16</title>
<g id="a_node16"><a xlink:href="../../d6/db8/Invisible2_8hh.html" target="_top" xlink:title="boca/external/Invisible2.hh">
<polygon fill="white" stroke="black" points="1756.5,-62 1756.5,-81 1889.5,-81 1889.5,-62 1756.5,-62"/>
<text text-anchor="middle" x="1823" y="-69" font-family="Helvetica,sans-Serif" font-size="10.00">boca/external/Invisible2.hh</text>
</a>
</g>
</g>
<!-- Node12&#45;&gt;Node16 -->
<g id="edge16" class="edge"><title>Node12&#45;&gt;Node16</title>
<path fill="none" stroke="midnightblue" d="M1687.04,-125.104C1720.39,-112.198 1771.75,-92.3272 1800.87,-81.0637"/>
<polygon fill="midnightblue" stroke="midnightblue" points="1685.37,-121.996 1677.31,-128.869 1687.9,-128.524 1685.37,-121.996"/>
</g>
<!-- Node13&#45;&gt;Node13 -->
<g id="edge13" class="edge"><title>Node13&#45;&gt;Node13</title>
<path fill="none" stroke="midnightblue" d="M1695.79,-82.2474C1718.08,-84.1677 1738.5,-80.5852 1738.5,-71.5 1738.5,-61.0703 1711.59,-57.8925 1685.83,-61.9666"/>
<polygon fill="midnightblue" stroke="midnightblue" points="1696.18,-78.7694 1685.83,-81.0334 1695.33,-85.7179 1696.18,-78.7694"/>
</g>
<!-- Node13&#45;&gt;Node14 -->
<g id="edge14" class="edge"><title>Node13&#45;&gt;Node14</title>
<path fill="none" stroke="midnightblue" d="M1637.97,-55.1496C1625.39,-43.8058 1608.72,-28.7811 1598.44,-19.5091"/>
<polygon fill="midnightblue" stroke="midnightblue" points="1635.77,-57.8788 1645.54,-61.9751 1640.46,-52.6796 1635.77,-57.8788"/>
</g>
<!-- Node17 -->
<g id="node17" class="node"><title>Node17</title>
<g id="a_node17"><a xlink:href="../../d5/d85/Invisible2_8cpp.html" target="_top" xlink:title="source/external/Invisible2.cpp">
<polygon fill="white" stroke="black" points="1871,-0.5 1871,-19.5 2017,-19.5 2017,-0.5 1871,-0.5"/>
<text text-anchor="middle" x="1944" y="-7.5" font-family="Helvetica,sans-Serif" font-size="10.00">source/external/Invisible2.cpp</text>
</a>
</g>
</g>
<!-- Node16&#45;&gt;Node17 -->
<g id="edge17" class="edge"><title>Node16&#45;&gt;Node17</title>
<path fill="none" stroke="midnightblue" d="M1849.39,-57.5207C1872.86,-45.9816 1906.49,-29.4433 1926.7,-19.5091"/>
<polygon fill="midnightblue" stroke="midnightblue" points="1847.77,-54.4215 1840.34,-61.9751 1850.85,-60.7032 1847.77,-54.4215"/>
</g>
<!-- Node18 -->
<g id="node18" class="node"><title>Node18</title>
<g id="a_node18"><a xlink:href="../../de/de9/WimpMass_8cpp.html" target="_top" xlink:title="source/WimpMass.cpp">
<polygon fill="white" stroke="black" points="1735.5,-0.5 1735.5,-19.5 1852.5,-19.5 1852.5,-0.5 1735.5,-0.5"/>
<text text-anchor="middle" x="1794" y="-7.5" font-family="Helvetica,sans-Serif" font-size="10.00">source/WimpMass.cpp</text>
</a>
</g>
</g>
<!-- Node16&#45;&gt;Node18 -->
<g id="edge18" class="edge"><title>Node16&#45;&gt;Node18</title>
<path fill="none" stroke="midnightblue" d="M1814.39,-52.8346C1809.03,-41.8281 1802.37,-28.1629 1798.15,-19.5091"/>
<polygon fill="midnightblue" stroke="midnightblue" points="1811.32,-54.5194 1818.85,-61.9751 1817.61,-51.4525 1811.32,-54.5194"/>
</g>
<!-- Node21 -->
<g id="node21" class="node"><title>Node21</title>
<g id="a_node21"><a xlink:href="../../dc/d66/EventShapes_8hh.html" target="_top" xlink:title="boca/EventShapes.hh">
<polygon fill="white" stroke="red" points="1263.5,-129 1263.5,-148 1376.5,-148 1376.5,-129 1263.5,-129"/>
<text text-anchor="middle" x="1320" y="-136" font-family="Helvetica,sans-Serif" font-size="10.00">boca/EventShapes.hh</text>
</a>
</g>
</g>
<!-- Node20&#45;&gt;Node21 -->
<g id="edge22" class="edge"><title>Node20&#45;&gt;Node21</title>
<path fill="none" stroke="midnightblue" d="M1455.15,-187.083C1422.3,-175.517 1373.26,-158.252 1344.17,-148.009"/>
<polygon fill="midnightblue" stroke="midnightblue" points="1454.19,-190.456 1464.79,-190.475 1456.52,-183.853 1454.19,-190.456"/>
</g>
<!-- Node21&#45;&gt;Node9 -->
<g id="edge24" class="edge"><title>Node21&#45;&gt;Node9</title>
<path fill="none" stroke="midnightblue" d="M1273.38,-126.794C1266.89,-125.438 1260.29,-124.131 1254,-123 1152.72,-104.778 1034.37,-89.2331 962.071,-80.378"/>
<polygon fill="midnightblue" stroke="midnightblue" points="1272.93,-130.276 1283.44,-128.946 1274.4,-123.431 1272.93,-130.276"/>
</g>
<!-- Node22 -->
<g id="node22" class="node"><title>Node22</title>
<g id="a_node22"><a xlink:href="../../d0/d7f/Multiplet_8hh.html" target="_top" xlink:title="boca/multiplets/Multiplet.hh">
<polygon fill="white" stroke="red" points="1252,-62 1252,-81 1388,-81 1388,-62 1252,-62"/>
<text text-anchor="middle" x="1320" y="-69" font-family="Helvetica,sans-Serif" font-size="10.00">boca/multiplets/Multiplet.hh</text>
</a>
</g>
</g>
<!-- Node21&#45;&gt;Node22 -->
<g id="edge23" class="edge"><title>Node21&#45;&gt;Node22</title>
<path fill="none" stroke="midnightblue" d="M1320,-118.537C1320,-106.17 1320,-90.6198 1320,-81.1273"/>
<polygon fill="midnightblue" stroke="midnightblue" points="1316.5,-118.734 1320,-128.734 1323.5,-118.734 1316.5,-118.734"/>
</g>
<!-- Node24 -->
<g id="node24" class="node"><title>Node24</title>
<g id="a_node24"><a xlink:href="../../da/d5b/Histogram2Dim_8hh.html" target="_top" xlink:title="boca/plotting/Histogram2\lDim.hh">
<polygon fill="white" stroke="red" points="2336.5,-123.5 2336.5,-153.5 2461.5,-153.5 2461.5,-123.5 2336.5,-123.5"/>
<text text-anchor="start" x="2344.5" y="-141.5" font-family="Helvetica,sans-Serif" font-size="10.00">boca/plotting/Histogram2</text>
<text text-anchor="middle" x="2399" y="-130.5" font-family="Helvetica,sans-Serif" font-size="10.00">Dim.hh</text>
</a>
</g>
</g>
<!-- Node23&#45;&gt;Node24 -->
<g id="edge26" class="edge"><title>Node23&#45;&gt;Node24</title>
<path fill="none" stroke="midnightblue" d="M1956.11,-189.924C2121.62,-170.378 2165.91,-177.952 2327,-154 2330.03,-153.55 2333.12,-153.057 2336.24,-152.533"/>
<polygon fill="midnightblue" stroke="midnightblue" points="1955.59,-186.462 1946.08,-191.125 1956.42,-193.413 1955.59,-186.462"/>
</g>
<!-- Node26 -->
<g id="node26" class="node"><title>Node26</title>
<g id="a_node26"><a xlink:href="../../df/d88/Plots_8hh.html" target="_top" xlink:title="boca/plotting/Plots.hh">
<polygon fill="white" stroke="red" points="1918.5,-129 1918.5,-148 2029.5,-148 2029.5,-129 1918.5,-129"/>
<text text-anchor="middle" x="1974" y="-136" font-family="Helvetica,sans-Serif" font-size="10.00">boca/plotting/Plots.hh</text>
</a>
</g>
</g>
<!-- Node23&#45;&gt;Node26 -->
<g id="edge28" class="edge"><title>Node23&#45;&gt;Node26</title>
<path fill="none" stroke="midnightblue" d="M1913.02,-184.294C1928.56,-172.88 1949.55,-157.458 1962.42,-148.009"/>
<polygon fill="midnightblue" stroke="midnightblue" points="1910.59,-181.734 1904.61,-190.475 1914.74,-187.376 1910.59,-181.734"/>
</g>
<!-- Node27 -->
<g id="node27" class="node"><title>Node27</title>
<g id="a_node27"><a xlink:href="../../d8/d2e/Profile_8hh.html" target="_top" xlink:title="boca/plotting/Profile.hh">
<polygon fill="white" stroke="black" points="2048,-129 2048,-148 2164,-148 2164,-129 2048,-129"/>
<text text-anchor="middle" x="2106" y="-136" font-family="Helvetica,sans-Serif" font-size="10.00">boca/plotting/Profile.hh</text>
</a>
</g>
</g>
<!-- Node23&#45;&gt;Node27 -->
<g id="edge30" class="edge"><title>Node23&#45;&gt;Node27</title>
<path fill="none" stroke="midnightblue" d="M1933.28,-187.749C1974.66,-176.189 2038.16,-158.451 2075.54,-148.009"/>
<polygon fill="midnightblue" stroke="midnightblue" points="1932.21,-184.414 1923.52,-190.475 1934.09,-191.156 1932.21,-184.414"/>
</g>
<!-- Node29 -->
<g id="node29" class="node"><title>Node29</title>
<g id="a_node29"><a xlink:href="../../da/d2d/Plot_8cpp.html" target="_top" xlink:title="source/plotting/Plot.cpp">
<polygon fill="white" stroke="black" points="1781.5,-129 1781.5,-148 1900.5,-148 1900.5,-129 1781.5,-129"/>
<text text-anchor="middle" x="1841" y="-136" font-family="Helvetica,sans-Serif" font-size="10.00">source/plotting/Plot.cpp</text>
</a>
</g>
</g>
<!-- Node23&#45;&gt;Node29 -->
<g id="edge33" class="edge"><title>Node23&#45;&gt;Node29</title>
<path fill="none" stroke="midnightblue" d="M1878.73,-182.669C1868.92,-171.452 1856.31,-157.016 1848.44,-148.009"/>
<polygon fill="midnightblue" stroke="midnightblue" points="1876.33,-185.249 1885.55,-190.475 1881.6,-180.642 1876.33,-185.249"/>
</g>
<!-- Node25 -->
<g id="node25" class="node"><title>Node25</title>
<g id="a_node25"><a xlink:href="../../d5/d94/PlottingBase_8cpp.html" target="_top" xlink:title="source/plotting/Plotting\lBase.cpp">
<polygon fill="white" stroke="black" points="2411,-56.5 2411,-86.5 2527,-86.5 2527,-56.5 2411,-56.5"/>
<text text-anchor="start" x="2419" y="-74.5" font-family="Helvetica,sans-Serif" font-size="10.00">source/plotting/Plotting</text>
<text text-anchor="middle" x="2469" y="-63.5" font-family="Helvetica,sans-Serif" font-size="10.00">Base.cpp</text>
</a>
</g>
</g>
<!-- Node24&#45;&gt;Node25 -->
<g id="edge27" class="edge"><title>Node24&#45;&gt;Node25</title>
<path fill="none" stroke="midnightblue" d="M2421.82,-116.311C2432.32,-106.561 2444.49,-95.259 2453.84,-86.5765"/>
<polygon fill="midnightblue" stroke="midnightblue" points="2419.14,-114.027 2414.19,-123.396 2423.9,-119.156 2419.14,-114.027"/>
</g>
<!-- Node26&#45;&gt;Node25 -->
<g id="edge29" class="edge"><title>Node26&#45;&gt;Node25</title>
<path fill="none" stroke="midnightblue" d="M2019.42,-126.747C2025.97,-125.377 2032.64,-124.08 2039,-123 2171.09,-100.571 2327.71,-84.8927 2410.66,-77.4383"/>
<polygon fill="midnightblue" stroke="midnightblue" points="2018.33,-123.402 2009.29,-128.936 2019.81,-130.244 2018.33,-123.402"/>
</g>
<!-- Node27&#45;&gt;Node25 -->
<g id="edge31" class="edge"><title>Node27&#45;&gt;Node25</title>
<path fill="none" stroke="midnightblue" d="M2154.07,-126.829C2160.43,-125.496 2166.87,-124.186 2173,-123 2255.28,-107.086 2350.94,-91.2462 2410.73,-81.6618"/>
<polygon fill="midnightblue" stroke="midnightblue" points="2153.26,-123.423 2144.21,-128.927 2154.71,-130.27 2153.26,-123.423"/>
</g>
<!-- Node28 -->
<g id="node28" class="node"><title>Node28</title>
<g id="a_node28"><a xlink:href="../../d9/dbb/Profile_8cpp.html" target="_top" xlink:title="source/plotting/Profile.cpp">
<polygon fill="white" stroke="black" points="2041,-62 2041,-81 2171,-81 2171,-62 2041,-62"/>
<text text-anchor="middle" x="2106" y="-69" font-family="Helvetica,sans-Serif" font-size="10.00">source/plotting/Profile.cpp</text>
</a>
</g>
</g>
<!-- Node27&#45;&gt;Node28 -->
<g id="edge32" class="edge"><title>Node27&#45;&gt;Node28</title>
<path fill="none" stroke="midnightblue" d="M2106,-118.537C2106,-106.17 2106,-90.6198 2106,-81.1273"/>
<polygon fill="midnightblue" stroke="midnightblue" points="2102.5,-118.734 2106,-128.734 2109.5,-118.734 2102.5,-118.734"/>
</g>
<!-- Node31&#45;&gt;Node16 -->
<g id="edge37" class="edge"><title>Node31&#45;&gt;Node16</title>
<path fill="none" stroke="midnightblue" d="M1752.06,-236.213C1751.5,-209.564 1753.4,-159.925 1772,-123 1780.86,-105.417 1798.21,-90.3018 1810.19,-81.3056"/>
<polygon fill="midnightblue" stroke="midnightblue" points="1748.57,-236.548 1752.42,-246.418 1755.56,-236.3 1748.57,-236.548"/>
</g>
<!-- Node31&#45;&gt;Node20 -->
<g id="edge36" class="edge"><title>Node31&#45;&gt;Node20</title>
<path fill="none" stroke="midnightblue" d="M1701.22,-244.41C1651.33,-234.204 1576.8,-218.96 1530.64,-209.516"/>
<polygon fill="midnightblue" stroke="midnightblue" points="1700.67,-247.869 1711.17,-246.444 1702.07,-241.01 1700.67,-247.869"/>
</g>
<!-- Node32 -->
<g id="node32" class="node"><title>Node32</title>
<g id="a_node32"><a xlink:href="../../d6/df0/Matrix2_8cpp.html" target="_top" xlink:title="source/math/Matrix2.cpp">
<polygon fill="white" stroke="black" points="1964.5,-190.5 1964.5,-209.5 2089.5,-209.5 2089.5,-190.5 1964.5,-190.5"/>
<text text-anchor="middle" x="2027" y="-197.5" font-family="Helvetica,sans-Serif" font-size="10.00">source/math/Matrix2.cpp</text>
</a>
</g>
</g>
<!-- Node31&#45;&gt;Node32 -->
<g id="edge38" class="edge"><title>Node31&#45;&gt;Node32</title>
<path fill="none" stroke="midnightblue" d="M1806.41,-244.473C1858.2,-234.268 1935.77,-218.979 1983.79,-209.516"/>
<polygon fill="midnightblue" stroke="midnightblue" points="1805.55,-241.076 1796.42,-246.444 1806.9,-247.944 1805.55,-241.076"/>
</g>
<!-- Node34 -->
<g id="node34" class="node"><title>Node34</title>
<g id="a_node34"><a xlink:href="../../db/d60/Singlet_8hh.html" target="_top" xlink:title="boca/multiplets/Singlet.hh">
<polygon fill="white" stroke="black" points="828.5,-190.5 828.5,-209.5 957.5,-209.5 957.5,-190.5 828.5,-190.5"/>
<text text-anchor="middle" x="893" y="-197.5" font-family="Helvetica,sans-Serif" font-size="10.00">boca/multiplets/Singlet.hh</text>
</a>
</g>
</g>
<!-- Node33&#45;&gt;Node34 -->
<g id="edge40" class="edge"><title>Node33&#45;&gt;Node34</title>
<path fill="none" stroke="midnightblue" d="M1109.56,-244.473C1058.72,-234.268 982.564,-218.979 935.424,-209.516"/>
<polygon fill="midnightblue" stroke="midnightblue" points="1108.88,-247.907 1119.38,-246.444 1110.26,-241.044 1108.88,-247.907"/>
</g>
<!-- Node34&#45;&gt;Node22 -->
<g id="edge41" class="edge"><title>Node34&#45;&gt;Node22</title>
<path fill="none" stroke="midnightblue" d="M968.054,-197.587C1098.89,-194.341 1357.48,-184.147 1385,-154 1408.06,-128.735 1361.64,-96.3532 1335.76,-81.1337"/>
<polygon fill="midnightblue" stroke="midnightblue" points="967.626,-194.097 957.713,-197.836 967.794,-201.095 967.626,-194.097"/>
</g>
<!-- Node35 -->
<g id="node35" class="node"><title>Node35</title>
<g id="a_node35"><a xlink:href="../../dd/d58/GlobalObservables_8hh.html" target="_top" xlink:title="boca/multiplets/GlobalObservables.hh">
<polygon fill="white" stroke="red" points="1063,-129 1063,-148 1245,-148 1245,-129 1063,-129"/>
<text text-anchor="middle" x="1154" y="-136" font-family="Helvetica,sans-Serif" font-size="10.00">boca/multiplets/GlobalObservables.hh</text>
</a>
</g>
</g>
<!-- Node34&#45;&gt;Node35 -->
<g id="edge42" class="edge"><title>Node34&#45;&gt;Node35</title>
<path fill="none" stroke="midnightblue" d="M940.436,-188.186C991.081,-176.641 1070.29,-158.584 1116.67,-148.009"/>
<polygon fill="midnightblue" stroke="midnightblue" points="939.367,-184.84 930.395,-190.475 940.923,-191.665 939.367,-184.84"/>
</g>
<!-- Node36 -->
<g id="node36" class="node"><title>Node36</title>
<g id="a_node36"><a xlink:href="../../db/d40/tagger_2Bottom_8hh.html" target="_top" xlink:title="boca/standardmodel\l/tagger/Bottom.hh">
<polygon fill="white" stroke="red" points="369,-123.5 369,-153.5 473,-153.5 473,-123.5 369,-123.5"/>
<text text-anchor="start" x="377" y="-141.5" font-family="Helvetica,sans-Serif" font-size="10.00">boca/standardmodel</text>
<text text-anchor="middle" x="421" y="-130.5" font-family="Helvetica,sans-Serif" font-size="10.00">/tagger/Bottom.hh</text>
</a>
</g>
</g>
<!-- Node34&#45;&gt;Node36 -->
<g id="edge43" class="edge"><title>Node34&#45;&gt;Node36</title>
<path fill="none" stroke="midnightblue" d="M818.172,-193.618C735.498,-187.02 598.617,-174.164 482,-154 479.104,-153.499 476.14,-152.943 473.155,-152.348"/>
<polygon fill="midnightblue" stroke="midnightblue" points="817.984,-197.114 828.228,-194.411 818.534,-190.136 817.984,-197.114"/>
</g>
<!-- Node37 -->
<g id="node37" class="node"><title>Node37</title>
<g id="a_node37"><a xlink:href="../../d9/de1/tagger_2Tau_8hh.html" target="_top" xlink:title="boca/standardmodel\l/tagger/Tau.hh">
<polygon fill="white" stroke="red" points="491,-123.5 491,-153.5 595,-153.5 595,-123.5 491,-123.5"/>
<text text-anchor="start" x="499" y="-141.5" font-family="Helvetica,sans-Serif" font-size="10.00">boca/standardmodel</text>
<text text-anchor="middle" x="543" y="-130.5" font-family="Helvetica,sans-Serif" font-size="10.00">/tagger/Tau.hh</text>
</a>
</g>
</g>
<!-- Node34&#45;&gt;Node37 -->
<g id="edge44" class="edge"><title>Node34&#45;&gt;Node37</title>
<path fill="none" stroke="midnightblue" d="M818.487,-189.046C759.957,-180.83 676.504,-168.239 604,-154 601.116,-153.434 598.162,-152.825 595.184,-152.191"/>
<polygon fill="midnightblue" stroke="midnightblue" points="818.364,-192.563 828.752,-190.478 819.332,-185.63 818.364,-192.563"/>
</g>
<!-- Node38 -->
<g id="node38" class="node"><title>Node38</title>
<g id="a_node38"><a xlink:href="../../d9/da3/examples_2cut_2include_2Observables_8hh.html" target="_top" xlink:title="examples/cut/include\l/Observables.hh">
<polygon fill="white" stroke="red" points="613.5,-123.5 613.5,-153.5 722.5,-153.5 722.5,-123.5 613.5,-123.5"/>
<text text-anchor="start" x="621.5" y="-141.5" font-family="Helvetica,sans-Serif" font-size="10.00">examples/cut/include</text>
<text text-anchor="middle" x="668" y="-130.5" font-family="Helvetica,sans-Serif" font-size="10.00">/Observables.hh</text>
</a>
</g>
</g>
<!-- Node34&#45;&gt;Node38 -->
<g id="edge45" class="edge"><title>Node34&#45;&gt;Node38</title>
<path fill="none" stroke="midnightblue" d="M850.87,-187.859C814.134,-178.144 760.668,-164.006 721.028,-153.523"/>
<polygon fill="midnightblue" stroke="midnightblue" points="850.2,-191.302 860.763,-190.475 851.99,-184.535 850.2,-191.302"/>
</g>
<!-- Node39 -->
<g id="node39" class="node"><title>Node39</title>
<g id="a_node39"><a xlink:href="../../db/d6a/JetInfo_8cpp.html" target="_top" xlink:title="source/multiplets/JetInfo.cpp">
<polygon fill="white" stroke="black" points="740.5,-129 740.5,-148 883.5,-148 883.5,-129 740.5,-129"/>
<text text-anchor="middle" x="812" y="-136" font-family="Helvetica,sans-Serif" font-size="10.00">source/multiplets/JetInfo.cpp</text>
</a>
</g>
</g>
<!-- Node34&#45;&gt;Node39 -->
<g id="edge46" class="edge"><title>Node34&#45;&gt;Node39</title>
<path fill="none" stroke="midnightblue" d="M872.98,-184.294C857.442,-172.88 836.447,-157.458 823.584,-148.009"/>
<polygon fill="midnightblue" stroke="midnightblue" points="871.263,-187.376 881.395,-190.475 875.407,-181.734 871.263,-187.376"/>
</g>
<!-- Node40 -->
<g id="node40" class="node"><title>Node40</title>
<g id="a_node40"><a xlink:href="../../d5/dd3/Singlet_8cpp.html" target="_top" xlink:title="source/multiplets/Singlet.cpp">
<polygon fill="white" stroke="black" points="901.5,-129 901.5,-148 1044.5,-148 1044.5,-129 901.5,-129"/>
<text text-anchor="middle" x="973" y="-136" font-family="Helvetica,sans-Serif" font-size="10.00">source/multiplets/Singlet.cpp</text>
</a>
</g>
</g>
<!-- Node34&#45;&gt;Node40 -->
<g id="edge47" class="edge"><title>Node34&#45;&gt;Node40</title>
<path fill="none" stroke="midnightblue" d="M912.773,-184.294C928.119,-172.88 948.855,-157.458 961.559,-148.009"/>
<polygon fill="midnightblue" stroke="midnightblue" points="910.397,-181.699 904.462,-190.475 914.575,-187.316 910.397,-181.699"/>
</g>
<!-- Node41&#45;&gt;Node27 -->
<g id="edge62" class="edge"><title>Node41&#45;&gt;Node27</title>
<path fill="none" stroke="midnightblue" d="M2228.42,-239.782C2198.51,-215.281 2140.62,-167.86 2116.72,-148.282"/>
<polygon fill="midnightblue" stroke="midnightblue" points="2226.45,-242.689 2236.4,-246.319 2230.88,-237.274 2226.45,-242.689"/>
</g>
<!-- Node42 -->
<g id="node42" class="node"><title>Node42</title>
<g id="a_node42"><a xlink:href="../../dc/d42/Canvas_8hh.html" target="_top" xlink:title="boca/plotting/Canvas.hh">
<polygon fill="white" stroke="black" points="2263,-190.5 2263,-209.5 2385,-209.5 2385,-190.5 2263,-190.5"/>
<text text-anchor="middle" x="2324" y="-197.5" font-family="Helvetica,sans-Serif" font-size="10.00">boca/plotting/Canvas.hh</text>
</a>
</g>
</g>
<!-- Node41&#45;&gt;Node42 -->
<g id="edge49" class="edge"><title>Node41&#45;&gt;Node42</title>
<path fill="none" stroke="midnightblue" d="M2267.9,-240.342C2281.91,-230.517 2299.88,-217.913 2311.66,-209.655"/>
<polygon fill="midnightblue" stroke="midnightblue" points="2265.55,-237.717 2259.37,-246.324 2269.57,-243.448 2265.55,-237.717"/>
</g>
<!-- Node46 -->
<g id="node46" class="node"><title>Node46</title>
<g id="a_node46"><a xlink:href="../../da/d1f/Legend_8hh.html" target="_top" xlink:title="boca/plotting/Legend.hh">
<polygon fill="white" stroke="black" points="2480,-190.5 2480,-209.5 2600,-209.5 2600,-190.5 2480,-190.5"/>
<text text-anchor="middle" x="2540" y="-197.5" font-family="Helvetica,sans-Serif" font-size="10.00">boca/plotting/Legend.hh</text>
</a>
</g>
</g>
<!-- Node41&#45;&gt;Node46 -->
<g id="edge57" class="edge"><title>Node41&#45;&gt;Node46</title>
<path fill="none" stroke="midnightblue" d="M2303.43,-244.601C2358.8,-234.395 2442.23,-219.019 2493.79,-209.516"/>
<polygon fill="midnightblue" stroke="midnightblue" points="2302.63,-241.189 2293.43,-246.444 2303.9,-248.073 2302.63,-241.189"/>
</g>
<!-- Node48 -->
<g id="node48" class="node"><title>Node48</title>
<g id="a_node48"><a xlink:href="../../d5/d4a/Results_8hh.html" target="_top" xlink:title="boca/plotting/Results.hh">
<polygon fill="white" stroke="black" points="2877,-190.5 2877,-209.5 2999,-209.5 2999,-190.5 2877,-190.5"/>
<text text-anchor="middle" x="2938" y="-197.5" font-family="Helvetica,sans-Serif" font-size="10.00">boca/plotting/Results.hh</text>
</a>
</g>
</g>
<!-- Node41&#45;&gt;Node48 -->
<g id="edge63" class="edge"><title>Node41&#45;&gt;Node48</title>
<path fill="none" stroke="midnightblue" d="M2324.84,-245.963C2533.88,-226.289 2768.24,-211.197 2876.92,-204.599"/>
<polygon fill="midnightblue" stroke="midnightblue" points="2324.21,-242.506 2314.59,-246.933 2324.87,-249.475 2324.21,-242.506"/>
</g>
<!-- Node42&#45;&gt;Node24 -->
<g id="edge52" class="edge"><title>Node42&#45;&gt;Node24</title>
<path fill="none" stroke="midnightblue" d="M2342.66,-184.195C2354.49,-174.813 2369.69,-162.751 2381.32,-153.523"/>
<polygon fill="midnightblue" stroke="midnightblue" points="2340.4,-181.518 2334.75,-190.475 2344.76,-187.002 2340.4,-181.518"/>
</g>
<!-- Node42&#45;&gt;Node27 -->
<g id="edge55" class="edge"><title>Node42&#45;&gt;Node27</title>
<path fill="none" stroke="midnightblue" d="M2283.05,-187.822C2240.7,-176.264 2175.52,-158.473 2137.18,-148.009"/>
<polygon fill="midnightblue" stroke="midnightblue" points="2282.2,-191.218 2292.77,-190.475 2284.04,-184.465 2282.2,-191.218"/>
</g>
<!-- Node43 -->
<g id="node43" class="node"><title>Node43</title>
<g id="a_node43"><a xlink:href="../../d0/d96/Graphs_8hh.html" target="_top" xlink:title="boca/plotting/Graphs.hh">
<polygon fill="white" stroke="red" points="2480,-129 2480,-148 2600,-148 2600,-129 2480,-129"/>
<text text-anchor="middle" x="2540" y="-136" font-family="Helvetica,sans-Serif" font-size="10.00">boca/plotting/Graphs.hh</text>
</a>
</g>
</g>
<!-- Node42&#45;&gt;Node43 -->
<g id="edge50" class="edge"><title>Node42&#45;&gt;Node43</title>
<path fill="none" stroke="midnightblue" d="M2364.84,-187.749C2406.81,-176.189 2471.2,-158.451 2509.11,-148.009"/>
<polygon fill="midnightblue" stroke="midnightblue" points="2363.66,-184.445 2354.95,-190.475 2365.52,-191.194 2363.66,-184.445"/>
</g>
<!-- Node44 -->
<g id="node44" class="node"><title>Node44</title>
<g id="a_node44"><a xlink:href="../../d8/d08/Histograms_8hh.html" target="_top" xlink:title="boca/plotting/Histograms.hh">
<polygon fill="white" stroke="red" points="2618.5,-129 2618.5,-148 2757.5,-148 2757.5,-129 2618.5,-129"/>
<text text-anchor="middle" x="2688" y="-136" font-family="Helvetica,sans-Serif" font-size="10.00">boca/plotting/Histograms.hh</text>
</a>
</g>
</g>
<!-- Node42&#45;&gt;Node44 -->
<g id="edge53" class="edge"><title>Node42&#45;&gt;Node44</title>
<path fill="none" stroke="midnightblue" d="M2390.68,-188.953C2448.48,-180.127 2534.35,-166.742 2609,-154 2619.86,-152.146 2631.54,-150.056 2642.5,-148.052"/>
<polygon fill="midnightblue" stroke="midnightblue" points="2389.93,-185.525 2380.58,-190.492 2390.99,-192.445 2389.93,-185.525"/>
</g>
<!-- Node45 -->
<g id="node45" class="node"><title>Node45</title>
<g id="a_node45"><a xlink:href="../../dc/d2f/Canvas_8cpp.html" target="_top" xlink:title="source/plotting/Canvas.cpp">
<polygon fill="white" stroke="black" points="2182,-129 2182,-148 2318,-148 2318,-129 2182,-129"/>
<text text-anchor="middle" x="2250" y="-136" font-family="Helvetica,sans-Serif" font-size="10.00">source/plotting/Canvas.cpp</text>
</a>
</g>
</g>
<!-- Node42&#45;&gt;Node45 -->
<g id="edge56" class="edge"><title>Node42&#45;&gt;Node45</title>
<path fill="none" stroke="midnightblue" d="M2305.31,-183.973C2291.16,-172.593 2272.22,-157.369 2260.58,-148.009"/>
<polygon fill="midnightblue" stroke="midnightblue" points="2303.41,-186.937 2313.4,-190.475 2307.8,-181.481 2303.41,-186.937"/>
</g>
<!-- Node43&#45;&gt;Node25 -->
<g id="edge51" class="edge"><title>Node43&#45;&gt;Node25</title>
<path fill="none" stroke="midnightblue" d="M2522.99,-121.928C2511.25,-111.179 2495.76,-97.0024 2484.39,-86.589"/>
<polygon fill="midnightblue" stroke="midnightblue" points="2520.69,-124.563 2530.42,-128.734 2525.41,-119.4 2520.69,-124.563"/>
</g>
<!-- Node44&#45;&gt;Node25 -->
<g id="edge54" class="edge"><title>Node44&#45;&gt;Node25</title>
<path fill="none" stroke="midnightblue" d="M2648.97,-125.917C2611.84,-114.895 2555.91,-98.2938 2516.26,-86.5281"/>
<polygon fill="midnightblue" stroke="midnightblue" points="2648.34,-129.378 2658.92,-128.869 2650.33,-122.668 2648.34,-129.378"/>
</g>
<!-- Node46&#45;&gt;Node24 -->
<g id="edge59" class="edge"><title>Node46&#45;&gt;Node24</title>
<path fill="none" stroke="midnightblue" d="M2510.28,-186.461C2487.45,-176.823 2455.9,-163.513 2432.23,-153.523"/>
<polygon fill="midnightblue" stroke="midnightblue" points="2509.22,-189.812 2519.8,-190.475 2511.95,-183.363 2509.22,-189.812"/>
</g>
<!-- Node46&#45;&gt;Node43 -->
<g id="edge58" class="edge"><title>Node46&#45;&gt;Node43</title>
<path fill="none" stroke="midnightblue" d="M2540,-180.317C2540,-169.496 2540,-156.398 2540,-148.009"/>
<polygon fill="midnightblue" stroke="midnightblue" points="2536.5,-180.475 2540,-190.475 2543.5,-180.475 2536.5,-180.475"/>
</g>
<!-- Node46&#45;&gt;Node44 -->
<g id="edge60" class="edge"><title>Node46&#45;&gt;Node44</title>
<path fill="none" stroke="midnightblue" d="M2570.77,-186.631C2599.52,-175.072 2641.68,-158.12 2666.83,-148.009"/>
<polygon fill="midnightblue" stroke="midnightblue" points="2569.18,-183.498 2561.2,-190.475 2571.79,-189.992 2569.18,-183.498"/>
</g>
<!-- Node47 -->
<g id="node47" class="node"><title>Node47</title>
<g id="a_node47"><a xlink:href="../../d1/dae/Legend_8cpp.html" target="_top" xlink:title="source/plotting/Legend.cpp">
<polygon fill="white" stroke="black" points="2776,-129 2776,-148 2910,-148 2910,-129 2776,-129"/>
<text text-anchor="middle" x="2843" y="-136" font-family="Helvetica,sans-Serif" font-size="10.00">source/plotting/Legend.cpp</text>
</a>
</g>
</g>
<!-- Node46&#45;&gt;Node47 -->
<g id="edge61" class="edge"><title>Node46&#45;&gt;Node47</title>
<path fill="none" stroke="midnightblue" d="M2593.24,-188.546C2651.94,-177.018 2745.26,-158.694 2799.67,-148.009"/>
<polygon fill="midnightblue" stroke="midnightblue" points="2592.55,-185.114 2583.41,-190.475 2593.9,-191.983 2592.55,-185.114"/>
</g>
<!-- Node48&#45;&gt;Node25 -->
<g id="edge64" class="edge"><title>Node48&#45;&gt;Node25</title>
<path fill="none" stroke="midnightblue" d="M2938.89,-180.169C2938.6,-162.621 2935.12,-137.105 2919,-123 2890.05,-97.667 2642.26,-81.549 2527.23,-75.3654"/>
<polygon fill="midnightblue" stroke="midnightblue" points="2935.38,-180.292 2938.72,-190.349 2942.38,-180.409 2935.38,-180.292"/>
</g>
<!-- Node49 -->
<g id="node49" class="node"><title>Node49</title>
<g id="a_node49"><a xlink:href="../../d1/d01/Results_8cpp.html" target="_top" xlink:title="source/plotting/Results.cpp">
<polygon fill="white" stroke="black" points="2966,-129 2966,-148 3102,-148 3102,-129 2966,-129"/>
<text text-anchor="middle" x="3034" y="-136" font-family="Helvetica,sans-Serif" font-size="10.00">source/plotting/Results.cpp</text>
</a>
</g>
</g>
<!-- Node48&#45;&gt;Node49 -->
<g id="edge65" class="edge"><title>Node48&#45;&gt;Node49</title>
<path fill="none" stroke="midnightblue" d="M2960.45,-185.087C2978.97,-173.604 3004.67,-157.678 3020.27,-148.009"/>
<polygon fill="midnightblue" stroke="midnightblue" points="2958.41,-182.232 2951.75,-190.475 2962.1,-188.182 2958.41,-182.232"/>
</g>
</g>
</svg>
