<?xml version="1.0" encoding="UTF-8" standalone="no"?>
<!DOCTYPE svg PUBLIC "-//W3C//DTD SVG 1.1//EN"
 "http://www.w3.org/Graphics/SVG/1.1/DTD/svg11.dtd">
<!-- Generated by graphviz version 2.38.0 (20140413.2041)
 -->
<!-- Title: StandardModel/source/BranchesSm.cpp Pages: 1 -->
<svg width="263pt" height="207pt"
 viewBox="0.00 0.00 263.00 207.00" xmlns="http://www.w3.org/2000/svg" xmlns:xlink="http://www.w3.org/1999/xlink">
<g id="graph0" class="graph" transform="scale(1 1) rotate(0) translate(4 203)">
<title>StandardModel/source/BranchesSm.cpp</title>
<polygon fill="white" stroke="none" points="-4,4 -4,-203 259,-203 259,4 -4,4"/>
<!-- Node1 -->
<g id="node1" class="node"><title>Node1</title>
<polygon fill="#bfbfbf" stroke="black" points="102,-168.5 102,-198.5 216,-198.5 216,-168.5 102,-168.5"/>
<text text-anchor="start" x="110" y="-186.5" font-family="Helvetica,sans-Serif" font-size="10.00">StandardModel/source</text>
<text text-anchor="middle" x="159" y="-175.5" font-family="Helvetica,sans-Serif" font-size="10.00">/BranchesSm.cpp</text>
</g>
<!-- Node2 -->
<g id="node2" class="node"><title>Node2</title>
<g id="a_node2"><a xlink:href="../../de/d63/BranchesSm_8hh.html" target="_top" xlink:title="BranchesSm.hh">
<polygon fill="white" stroke="black" points="74,-112.5 74,-131.5 160,-131.5 160,-112.5 74,-112.5"/>
<text text-anchor="middle" x="117" y="-119.5" font-family="Helvetica,sans-Serif" font-size="10.00">BranchesSm.hh</text>
</a>
</g>
</g>
<!-- Node1&#45;&gt;Node2 -->
<g id="edge1" class="edge"><title>Node1&#45;&gt;Node2</title>
<path fill="none" stroke="midnightblue" d="M149.047,-168.399C143.006,-159.842 135.262,-148.871 128.899,-139.857"/>
<polygon fill="midnightblue" stroke="midnightblue" points="131.738,-137.809 123.111,-131.658 126.019,-141.846 131.738,-137.809"/>
</g>
<!-- Node8 -->
<g id="node8" class="node"><title>Node8</title>
<g id="a_node8"><a xlink:href="../../da/db5/Pair_8hh.html" target="_top" xlink:title="Pair.hh">
<polygon fill="white" stroke="black" points="178.5,-112.5 178.5,-131.5 225.5,-131.5 225.5,-112.5 178.5,-112.5"/>
<text text-anchor="middle" x="202" y="-119.5" font-family="Helvetica,sans-Serif" font-size="10.00">Pair.hh</text>
</a>
</g>
</g>
<!-- Node1&#45;&gt;Node8 -->
<g id="edge7" class="edge"><title>Node1&#45;&gt;Node8</title>
<path fill="none" stroke="midnightblue" d="M169.19,-168.399C175.374,-159.842 183.303,-148.871 189.818,-139.857"/>
<polygon fill="midnightblue" stroke="midnightblue" points="192.722,-141.813 195.743,-131.658 187.049,-137.713 192.722,-141.813"/>
</g>
<!-- Node3 -->
<g id="node3" class="node"><title>Node3</title>
<g id="a_node3"><a xlink:href="../../d0/d79/Branches_8hh.html" target="_top" xlink:title="Branches.hh">
<polygon fill="white" stroke="black" points="81.5,-56.5 81.5,-75.5 152.5,-75.5 152.5,-56.5 81.5,-56.5"/>
<text text-anchor="middle" x="117" y="-63.5" font-family="Helvetica,sans-Serif" font-size="10.00">Branches.hh</text>
</a>
</g>
</g>
<!-- Node2&#45;&gt;Node3 -->
<g id="edge2" class="edge"><title>Node2&#45;&gt;Node3</title>
<path fill="none" stroke="midnightblue" d="M117,-112.083C117,-105.006 117,-94.8611 117,-85.9865"/>
<polygon fill="midnightblue" stroke="midnightblue" points="120.5,-85.751 117,-75.7511 113.5,-85.7511 120.5,-85.751"/>
</g>
<!-- Node4 -->
<g id="node4" class="node"><title>Node4</title>
<polygon fill="white" stroke="#bfbfbf" points="0,-0.5 0,-19.5 44,-19.5 44,-0.5 0,-0.5"/>
<text text-anchor="middle" x="22" y="-7.5" font-family="Helvetica,sans-Serif" font-size="10.00">vector</text>
</g>
<!-- Node3&#45;&gt;Node4 -->
<g id="edge3" class="edge"><title>Node3&#45;&gt;Node4</title>
<path fill="none" stroke="midnightblue" d="M101.737,-56.324C86.7786,-47.8215 63.7452,-34.7288 46.2733,-24.7975"/>
<polygon fill="midnightblue" stroke="midnightblue" points="47.6488,-21.5534 37.2255,-19.6545 44.1896,-27.639 47.6488,-21.5534"/>
</g>
<!-- Node5 -->
<g id="node5" class="node"><title>Node5</title>
<polygon fill="white" stroke="#bfbfbf" points="62.5,-0.5 62.5,-19.5 103.5,-19.5 103.5,-0.5 62.5,-0.5"/>
<text text-anchor="middle" x="83" y="-7.5" font-family="Helvetica,sans-Serif" font-size="10.00">string</text>
</g>
<!-- Node3&#45;&gt;Node5 -->
<g id="edge4" class="edge"><title>Node3&#45;&gt;Node5</title>
<path fill="none" stroke="midnightblue" d="M111.386,-56.083C106.633,-48.5341 99.6819,-37.4948 93.8484,-28.2298"/>
<polygon fill="midnightblue" stroke="midnightblue" points="96.7999,-26.3486 88.5099,-19.7511 90.8763,-30.0783 96.7999,-26.3486"/>
</g>
<!-- Node6 -->
<g id="node6" class="node"><title>Node6</title>
<polygon fill="white" stroke="#bfbfbf" points="121.5,-0.5 121.5,-19.5 180.5,-19.5 180.5,-0.5 121.5,-0.5"/>
<text text-anchor="middle" x="151" y="-7.5" font-family="Helvetica,sans-Serif" font-size="10.00">TObject.h</text>
</g>
<!-- Node3&#45;&gt;Node6 -->
<g id="edge5" class="edge"><title>Node3&#45;&gt;Node6</title>
<path fill="none" stroke="midnightblue" d="M122.614,-56.083C127.367,-48.5341 134.318,-37.4948 140.152,-28.2298"/>
<polygon fill="midnightblue" stroke="midnightblue" points="143.124,-30.0783 145.49,-19.7511 137.2,-26.3486 143.124,-30.0783"/>
</g>
<!-- Node7 -->
<g id="node7" class="node"><title>Node7</title>
<polygon fill="white" stroke="#bfbfbf" points="199,-0.5 199,-19.5 255,-19.5 255,-0.5 199,-0.5"/>
<text text-anchor="middle" x="227" y="-7.5" font-family="Helvetica,sans-Serif" font-size="10.00">Rtypes.h</text>
</g>
<!-- Node3&#45;&gt;Node7 -->
<g id="edge6" class="edge"><title>Node3&#45;&gt;Node7</title>
<path fill="none" stroke="midnightblue" d="M134.673,-56.324C152.394,-47.6247 179.903,-34.1202 200.288,-24.113"/>
<polygon fill="midnightblue" stroke="midnightblue" points="201.936,-27.2031 209.37,-19.6545 198.851,-20.9195 201.936,-27.2031"/>
</g>
</g>
</svg>
