<?xml version="1.0" encoding="UTF-8" standalone="no"?>
<!DOCTYPE svg PUBLIC "-//W3C//DTD SVG 1.1//EN"
 "http://www.w3.org/Graphics/SVG/1.1/DTD/svg11.dtd">
<!-- Generated by graphviz version 2.38.0 (20140413.2041)
 -->
<!-- Title: include/File.hh Pages: 1 -->
<svg width="3911pt" height="352pt"
 viewBox="0.00 0.00 3911.00 352.00" xmlns="http://www.w3.org/2000/svg" xmlns:xlink="http://www.w3.org/1999/xlink">
<g id="graph0" class="graph" transform="scale(1 1) rotate(0) translate(4 348)">
<title>include/File.hh</title>
<polygon fill="white" stroke="none" points="-4,4 -4,-348 3907,-348 3907,4 -4,4"/>
<!-- Node1 -->
<g id="node1" class="node"><title>Node1</title>
<polygon fill="#bfbfbf" stroke="black" points="3203.5,-324.5 3203.5,-343.5 3283.5,-343.5 3283.5,-324.5 3203.5,-324.5"/>
<text text-anchor="middle" x="3243.5" y="-331.5" font-family="Helvetica,sans-Serif" font-size="10.00">include/File.hh</text>
</g>
<!-- Node2 -->
<g id="node2" class="node"><title>Node2</title>
<g id="a_node2"><a xlink:href="../../d0/d02/Analysis_8hh.html" target="_top" xlink:title="include/Analysis.hh">
<polygon fill="white" stroke="black" points="2277,-207 2277,-226 2378,-226 2378,-207 2277,-207"/>
<text text-anchor="middle" x="2327.5" y="-214" font-family="Helvetica,sans-Serif" font-size="10.00">include/Analysis.hh</text>
</a>
</g>
</g>
<!-- Node1&#45;&gt;Node2 -->
<g id="edge1" class="edge"><title>Node1&#45;&gt;Node2</title>
<path fill="none" stroke="midnightblue" d="M3193.23,-326.661C3033.49,-306.52 2538.67,-244.127 2378.26,-223.901"/>
<polygon fill="midnightblue" stroke="midnightblue" points="3192.9,-330.147 3203.26,-327.926 3193.77,-323.202 3192.9,-330.147"/>
</g>
<!-- Node44 -->
<g id="node44" class="node"><title>Node44</title>
<g id="a_node44"><a xlink:href="../../d1/dcf/AnalysisBase_8hh.html" target="_top" xlink:title="include/AnalysisBase.hh">
<polygon fill="white" stroke="black" points="3041.5,-268.5 3041.5,-287.5 3165.5,-287.5 3165.5,-268.5 3041.5,-268.5"/>
<text text-anchor="middle" x="3103.5" y="-275.5" font-family="Helvetica,sans-Serif" font-size="10.00">include/AnalysisBase.hh</text>
</a>
</g>
</g>
<!-- Node1&#45;&gt;Node44 -->
<g id="edge43" class="edge"><title>Node1&#45;&gt;Node44</title>
<path fill="none" stroke="midnightblue" d="M3211.8,-320.772C3185.5,-310.629 3148.78,-296.467 3125.58,-287.516"/>
<polygon fill="midnightblue" stroke="midnightblue" points="3210.73,-324.11 3221.32,-324.444 3213.25,-317.579 3210.73,-324.11"/>
</g>
<!-- Node45 -->
<g id="node45" class="node"><title>Node45</title>
<g id="a_node45"><a xlink:href="../../d1/de1/AnalysisBase_8cpp.html" target="_top" xlink:title="source/AnalysisBase.cpp">
<polygon fill="white" stroke="black" points="3161.5,-207 3161.5,-226 3289.5,-226 3289.5,-207 3161.5,-207"/>
<text text-anchor="middle" x="3225.5" y="-214" font-family="Helvetica,sans-Serif" font-size="10.00">source/AnalysisBase.cpp</text>
</a>
</g>
</g>
<!-- Node1&#45;&gt;Node45 -->
<g id="edge51" class="edge"><title>Node1&#45;&gt;Node45</title>
<path fill="none" stroke="midnightblue" d="M3235.12,-315.134C3231.75,-307.038 3228.25,-297.23 3226.5,-288 3222.34,-266.113 3223.59,-239.714 3224.66,-226.28"/>
<polygon fill="midnightblue" stroke="midnightblue" points="3231.93,-316.572 3239.17,-324.3 3238.33,-313.739 3231.93,-316.572"/>
</g>
<!-- Node48 -->
<g id="node48" class="node"><title>Node48</title>
<g id="a_node48"><a xlink:href="../../d1/d24/Trees_8hh.html" target="_top" xlink:title="include/Trees.hh">
<polygon fill="white" stroke="black" points="3236,-268.5 3236,-287.5 3325,-287.5 3325,-268.5 3236,-268.5"/>
<text text-anchor="middle" x="3280.5" y="-275.5" font-family="Helvetica,sans-Serif" font-size="10.00">include/Trees.hh</text>
</a>
</g>
</g>
<!-- Node1&#45;&gt;Node48 -->
<g id="edge49" class="edge"><title>Node1&#45;&gt;Node48</title>
<path fill="none" stroke="midnightblue" d="M3255.45,-315.566C3261.81,-306.275 3269.37,-295.248 3274.5,-287.751"/>
<polygon fill="midnightblue" stroke="midnightblue" points="3252.37,-313.855 3249.61,-324.083 3258.15,-317.812 3252.37,-313.855"/>
</g>
<!-- Node49 -->
<g id="node49" class="node"><title>Node49</title>
<g id="a_node49"><a xlink:href="../../da/d88/Trees_8cpp.html" target="_top" xlink:title="source/Trees.cpp">
<polygon fill="white" stroke="black" points="3307.5,-207 3307.5,-226 3399.5,-226 3399.5,-207 3307.5,-207"/>
<text text-anchor="middle" x="3353.5" y="-214" font-family="Helvetica,sans-Serif" font-size="10.00">source/Trees.cpp</text>
</a>
</g>
</g>
<!-- Node1&#45;&gt;Node49 -->
<g id="edge53" class="edge"><title>Node1&#45;&gt;Node49</title>
<path fill="none" stroke="midnightblue" d="M3284.56,-320.805C3301.88,-313.763 3320.9,-303.211 3333.5,-288 3348.6,-269.776 3352.31,-240.817 3353.22,-226.343"/>
<polygon fill="midnightblue" stroke="midnightblue" points="3283.28,-317.548 3275.16,-324.364 3285.76,-324.094 3283.28,-317.548"/>
</g>
<!-- Node50 -->
<g id="node50" class="node"><title>Node50</title>
<g id="a_node50"><a xlink:href="../../d9/d63/File_8cpp.html" target="_top" xlink:title="source/File.cpp">
<polygon fill="white" stroke="black" points="3382,-268.5 3382,-287.5 3465,-287.5 3465,-268.5 3382,-268.5"/>
<text text-anchor="middle" x="3423.5" y="-275.5" font-family="Helvetica,sans-Serif" font-size="10.00">source/File.cpp</text>
</a>
</g>
</g>
<!-- Node1&#45;&gt;Node50 -->
<g id="edge52" class="edge"><title>Node1&#45;&gt;Node50</title>
<path fill="none" stroke="midnightblue" d="M3281.61,-321.568C3315.56,-311.381 3364.49,-296.703 3395.11,-287.516"/>
<polygon fill="midnightblue" stroke="midnightblue" points="3280.59,-318.218 3272.02,-324.444 3282.61,-324.922 3280.59,-318.218"/>
</g>
<!-- Node3 -->
<g id="node3" class="node"><title>Node3</title>
<g id="a_node3"><a xlink:href="../../d7/d26/AnalysisHeavyHiggs_8hh.html" target="_top" xlink:title="HeavyHiggs/include\l/AnalysisHeavyHiggs.hh">
<polygon fill="white" stroke="black" points="982,-134.5 982,-164.5 1107,-164.5 1107,-134.5 982,-134.5"/>
<text text-anchor="start" x="990" y="-152.5" font-family="Helvetica,sans-Serif" font-size="10.00">HeavyHiggs/include</text>
<text text-anchor="middle" x="1044.5" y="-141.5" font-family="Helvetica,sans-Serif" font-size="10.00">/AnalysisHeavyHiggs.hh</text>
</a>
</g>
</g>
<!-- Node2&#45;&gt;Node3 -->
<g id="edge2" class="edge"><title>Node2&#45;&gt;Node3</title>
<path fill="none" stroke="midnightblue" d="M2266.64,-212.416C2051.12,-201.498 1325.49,-164.736 1107.16,-153.675"/>
<polygon fill="midnightblue" stroke="midnightblue" points="2266.65,-215.921 2276.81,-212.932 2267,-208.93 2266.65,-215.921"/>
</g>
<!-- Node18 -->
<g id="node18" class="node"><title>Node18</title>
<g id="a_node18"><a xlink:href="../../d8/d92/AnalysisPair_8hh.html" target="_top" xlink:title="HeavyHiggs/include\l/AnalysisPair.hh">
<polygon fill="white" stroke="black" points="1562.5,-134.5 1562.5,-164.5 1666.5,-164.5 1666.5,-134.5 1562.5,-134.5"/>
<text text-anchor="start" x="1570.5" y="-152.5" font-family="Helvetica,sans-Serif" font-size="10.00">HeavyHiggs/include</text>
<text text-anchor="middle" x="1614.5" y="-141.5" font-family="Helvetica,sans-Serif" font-size="10.00">/AnalysisPair.hh</text>
</a>
</g>
</g>
<!-- Node2&#45;&gt;Node18 -->
<g id="edge17" class="edge"><title>Node2&#45;&gt;Node18</title>
<path fill="none" stroke="midnightblue" d="M2266.44,-209.933C2128.72,-197.378 1795.92,-167.039 1666.87,-155.274"/>
<polygon fill="midnightblue" stroke="midnightblue" points="2266.52,-213.455 2276.79,-210.877 2267.15,-206.484 2266.52,-213.455"/>
</g>
<!-- Node21 -->
<g id="node21" class="node"><title>Node21</title>
<g id="a_node21"><a xlink:href="../../dc/d70/AnalysisHiggsCpv_8hh.html" target="_top" xlink:title="HiggsCpv/include/Analysis\lHiggsCpv.hh">
<polygon fill="white" stroke="black" points="1911.5,-134.5 1911.5,-164.5 2045.5,-164.5 2045.5,-134.5 1911.5,-134.5"/>
<text text-anchor="start" x="1919.5" y="-152.5" font-family="Helvetica,sans-Serif" font-size="10.00">HiggsCpv/include/Analysis</text>
<text text-anchor="middle" x="1978.5" y="-141.5" font-family="Helvetica,sans-Serif" font-size="10.00">HiggsCpv.hh</text>
</a>
</g>
</g>
<!-- Node2&#45;&gt;Node21 -->
<g id="edge20" class="edge"><title>Node2&#45;&gt;Node21</title>
<path fill="none" stroke="midnightblue" d="M2271.6,-205.088C2210.06,-193.627 2111.17,-175.21 2045.52,-162.983"/>
<polygon fill="midnightblue" stroke="midnightblue" points="2271.04,-208.545 2281.52,-206.936 2272.33,-201.664 2271.04,-208.545"/>
</g>
<!-- Node23 -->
<g id="node23" class="node"><title>Node23</title>
<g id="a_node23"><a xlink:href="../../df/d04/AnalysisStandardModel_8hh.html" target="_top" xlink:title="StandardModel/include\l/AnalysisStandardModel.hh">
<polygon fill="white" stroke="black" points="2259.5,-134.5 2259.5,-164.5 2395.5,-164.5 2395.5,-134.5 2259.5,-134.5"/>
<text text-anchor="start" x="2267.5" y="-152.5" font-family="Helvetica,sans-Serif" font-size="10.00">StandardModel/include</text>
<text text-anchor="middle" x="2327.5" y="-141.5" font-family="Helvetica,sans-Serif" font-size="10.00">/AnalysisStandardModel.hh</text>
</a>
</g>
</g>
<!-- Node2&#45;&gt;Node23 -->
<g id="edge22" class="edge"><title>Node2&#45;&gt;Node23</title>
<path fill="none" stroke="midnightblue" d="M2327.5,-196.411C2327.5,-186.222 2327.5,-173.901 2327.5,-164.589"/>
<polygon fill="midnightblue" stroke="midnightblue" points="2324,-196.734 2327.5,-206.734 2331,-196.734 2324,-196.734"/>
</g>
<!-- Node37 -->
<g id="node37" class="node"><title>Node37</title>
<g id="a_node37"><a xlink:href="../../d4/df2/AnalysisTopPartner_8hh.html" target="_top" xlink:title="TopPartner/include\l/AnalysisTopPartner.hh">
<polygon fill="white" stroke="black" points="3105,-134.5 3105,-164.5 3224,-164.5 3224,-134.5 3105,-134.5"/>
<text text-anchor="start" x="3113" y="-152.5" font-family="Helvetica,sans-Serif" font-size="10.00">TopPartner/include</text>
<text text-anchor="middle" x="3164.5" y="-141.5" font-family="Helvetica,sans-Serif" font-size="10.00">/AnalysisTopPartner.hh</text>
</a>
</g>
</g>
<!-- Node2&#45;&gt;Node37 -->
<g id="edge36" class="edge"><title>Node2&#45;&gt;Node37</title>
<path fill="none" stroke="midnightblue" d="M2388.57,-210.757C2543.7,-198.71 2951.48,-167.043 3104.95,-155.125"/>
<polygon fill="midnightblue" stroke="midnightblue" points="2387.98,-207.292 2378.29,-211.556 2388.53,-214.271 2387.98,-207.292"/>
</g>
<!-- Node4 -->
<g id="node4" class="node"><title>Node4</title>
<g id="a_node4"><a xlink:href="../../d1/da2/AnalysisCharged_8hh.html" target="_top" xlink:title="HeavyHiggs/include\l/AnalysisCharged.hh">
<polygon fill="white" stroke="black" points="199,-67.5 199,-97.5 306,-97.5 306,-67.5 199,-67.5"/>
<text text-anchor="start" x="207" y="-85.5" font-family="Helvetica,sans-Serif" font-size="10.00">HeavyHiggs/include</text>
<text text-anchor="middle" x="252.5" y="-74.5" font-family="Helvetica,sans-Serif" font-size="10.00">/AnalysisCharged.hh</text>
</a>
</g>
</g>
<!-- Node3&#45;&gt;Node4 -->
<g id="edge3" class="edge"><title>Node3&#45;&gt;Node4</title>
<path fill="none" stroke="midnightblue" d="M971.618,-142.519C813.971,-129.58 444.369,-99.2469 306.026,-87.8929"/>
<polygon fill="midnightblue" stroke="midnightblue" points="971.438,-146.015 981.691,-143.345 972.011,-139.039 971.438,-146.015"/>
</g>
<!-- Node7 -->
<g id="node7" class="node"><title>Node7</title>
<g id="a_node7"><a xlink:href="../../d2/d73/AnalysisFusion_8hh.html" target="_top" xlink:title="HeavyHiggs/include\l/AnalysisFusion.hh">
<polygon fill="white" stroke="black" points="558.5,-67.5 558.5,-97.5 662.5,-97.5 662.5,-67.5 558.5,-67.5"/>
<text text-anchor="start" x="566.5" y="-85.5" font-family="Helvetica,sans-Serif" font-size="10.00">HeavyHiggs/include</text>
<text text-anchor="middle" x="610.5" y="-74.5" font-family="Helvetica,sans-Serif" font-size="10.00">/AnalysisFusion.hh</text>
</a>
</g>
</g>
<!-- Node3&#45;&gt;Node7 -->
<g id="edge6" class="edge"><title>Node3&#45;&gt;Node7</title>
<path fill="none" stroke="midnightblue" d="M971.742,-137.603C884.264,-124.501 739.626,-102.839 662.581,-91.3002"/>
<polygon fill="midnightblue" stroke="midnightblue" points="971.448,-141.098 981.856,-139.118 972.485,-134.175 971.448,-141.098"/>
</g>
<!-- Node10 -->
<g id="node10" class="node"><title>Node10</title>
<g id="a_node10"><a xlink:href="../../d4/de1/AnalysisNeutral_8hh.html" target="_top" xlink:title="HeavyHiggs/include\l/AnalysisNeutral.hh">
<polygon fill="white" stroke="black" points="913.5,-67.5 913.5,-97.5 1017.5,-97.5 1017.5,-67.5 913.5,-67.5"/>
<text text-anchor="start" x="921.5" y="-85.5" font-family="Helvetica,sans-Serif" font-size="10.00">HeavyHiggs/include</text>
<text text-anchor="middle" x="965.5" y="-74.5" font-family="Helvetica,sans-Serif" font-size="10.00">/AnalysisNeutral.hh</text>
</a>
</g>
</g>
<!-- Node3&#45;&gt;Node10 -->
<g id="edge9" class="edge"><title>Node3&#45;&gt;Node10</title>
<path fill="none" stroke="midnightblue" d="M1019.44,-127.883C1007.44,-118.005 993.368,-106.429 982.608,-97.5765"/>
<polygon fill="midnightblue" stroke="midnightblue" points="1017.41,-130.745 1027.36,-134.396 1021.86,-125.34 1017.41,-130.745"/>
</g>
<!-- Node13 -->
<g id="node13" class="node"><title>Node13</title>
<g id="a_node13"><a xlink:href="../../d6/d4e/AnalysisNeutralFourTop_8hh.html" target="_top" xlink:title="HeavyHiggs/include\l/AnalysisNeutralFourTop.hh">
<polygon fill="white" stroke="black" points="1054.5,-67.5 1054.5,-97.5 1192.5,-97.5 1192.5,-67.5 1054.5,-67.5"/>
<text text-anchor="start" x="1062.5" y="-85.5" font-family="Helvetica,sans-Serif" font-size="10.00">HeavyHiggs/include</text>
<text text-anchor="middle" x="1123.5" y="-74.5" font-family="Helvetica,sans-Serif" font-size="10.00">/AnalysisNeutralFourTop.hh</text>
</a>
</g>
</g>
<!-- Node3&#45;&gt;Node13 -->
<g id="edge12" class="edge"><title>Node3&#45;&gt;Node13</title>
<path fill="none" stroke="midnightblue" d="M1069.56,-127.883C1081.56,-118.005 1095.63,-106.429 1106.39,-97.5765"/>
<polygon fill="midnightblue" stroke="midnightblue" points="1067.14,-125.34 1061.64,-134.396 1071.59,-130.745 1067.14,-125.34"/>
</g>
<!-- Node17 -->
<g id="node17" class="node"><title>Node17</title>
<g id="a_node17"><a xlink:href="../../da/dd2/AnalysisHeavyHiggs_8cpp.html" target="_top" xlink:title="HeavyHiggs/source/Analysis\lHeavyHiggs.cpp">
<polygon fill="white" stroke="black" points="1211,-67.5 1211,-97.5 1354,-97.5 1354,-67.5 1211,-67.5"/>
<text text-anchor="start" x="1219" y="-85.5" font-family="Helvetica,sans-Serif" font-size="10.00">HeavyHiggs/source/Analysis</text>
<text text-anchor="middle" x="1282.5" y="-74.5" font-family="Helvetica,sans-Serif" font-size="10.00">HeavyHiggs.cpp</text>
</a>
</g>
</g>
<!-- Node3&#45;&gt;Node17 -->
<g id="edge16" class="edge"><title>Node3&#45;&gt;Node17</title>
<path fill="none" stroke="midnightblue" d="M1105.96,-131.715C1144.69,-121.137 1194.13,-107.635 1230.83,-97.6109"/>
<polygon fill="midnightblue" stroke="midnightblue" points="1104.57,-128.465 1095.85,-134.476 1106.42,-135.218 1104.57,-128.465"/>
</g>
<!-- Node5 -->
<g id="node5" class="node"><title>Node5</title>
<g id="a_node5"><a xlink:href="../../d7/d40/AnalysisCharged_8cpp.html" target="_top" xlink:title="HeavyHiggs/source/Analysis\lCharged.cpp">
<polygon fill="white" stroke="black" points="0,-0.5 0,-30.5 143,-30.5 143,-0.5 0,-0.5"/>
<text text-anchor="start" x="8" y="-18.5" font-family="Helvetica,sans-Serif" font-size="10.00">HeavyHiggs/source/Analysis</text>
<text text-anchor="middle" x="71.5" y="-7.5" font-family="Helvetica,sans-Serif" font-size="10.00">Charged.cpp</text>
</a>
</g>
</g>
<!-- Node4&#45;&gt;Node5 -->
<g id="edge4" class="edge"><title>Node4&#45;&gt;Node5</title>
<path fill="none" stroke="midnightblue" d="M203.645,-63.9553C174.488,-53.4847 137.957,-40.3656 110.698,-30.5765"/>
<polygon fill="midnightblue" stroke="midnightblue" points="202.631,-67.3101 213.226,-67.396 204.997,-60.722 202.631,-67.3101"/>
</g>
<!-- Node6 -->
<g id="node6" class="node"><title>Node6</title>
<g id="a_node6"><a xlink:href="../../d3/d46/MainCharged_8cpp.html" target="_top" xlink:title="HeavyHiggs/source/MainCharged.cpp">
<polygon fill="white" stroke="black" points="161.5,-6 161.5,-25 343.5,-25 343.5,-6 161.5,-6"/>
<text text-anchor="middle" x="252.5" y="-13" font-family="Helvetica,sans-Serif" font-size="10.00">HeavyHiggs/source/MainCharged.cpp</text>
</a>
</g>
</g>
<!-- Node4&#45;&gt;Node6 -->
<g id="edge5" class="edge"><title>Node4&#45;&gt;Node6</title>
<path fill="none" stroke="midnightblue" d="M252.5,-57.2495C252.5,-46.017 252.5,-33.3767 252.5,-25.1945"/>
<polygon fill="midnightblue" stroke="midnightblue" points="249,-57.3959 252.5,-67.396 256,-57.396 249,-57.3959"/>
</g>
<!-- Node8 -->
<g id="node8" class="node"><title>Node8</title>
<g id="a_node8"><a xlink:href="../../df/d01/AnalysisFusion_8cpp.html" target="_top" xlink:title="HeavyHiggs/source/Analysis\lFusion.cpp">
<polygon fill="white" stroke="black" points="362,-0.5 362,-30.5 505,-30.5 505,-0.5 362,-0.5"/>
<text text-anchor="start" x="370" y="-18.5" font-family="Helvetica,sans-Serif" font-size="10.00">HeavyHiggs/source/Analysis</text>
<text text-anchor="middle" x="433.5" y="-7.5" font-family="Helvetica,sans-Serif" font-size="10.00">Fusion.cpp</text>
</a>
</g>
</g>
<!-- Node7&#45;&gt;Node8 -->
<g id="edge7" class="edge"><title>Node7&#45;&gt;Node8</title>
<path fill="none" stroke="midnightblue" d="M562.352,-63.8185C533.902,-53.3707 498.372,-40.3231 471.831,-30.5765"/>
<polygon fill="midnightblue" stroke="midnightblue" points="561.5,-67.2342 572.094,-67.396 563.913,-60.6632 561.5,-67.2342"/>
</g>
<!-- Node9 -->
<g id="node9" class="node"><title>Node9</title>
<g id="a_node9"><a xlink:href="../../d5/d90/MainFusion_8cpp.html" target="_top" xlink:title="HeavyHiggs/source/MainFusion.cpp">
<polygon fill="white" stroke="black" points="523,-6 523,-25 698,-25 698,-6 523,-6"/>
<text text-anchor="middle" x="610.5" y="-13" font-family="Helvetica,sans-Serif" font-size="10.00">HeavyHiggs/source/MainFusion.cpp</text>
</a>
</g>
</g>
<!-- Node7&#45;&gt;Node9 -->
<g id="edge8" class="edge"><title>Node7&#45;&gt;Node9</title>
<path fill="none" stroke="midnightblue" d="M610.5,-57.2495C610.5,-46.017 610.5,-33.3767 610.5,-25.1945"/>
<polygon fill="midnightblue" stroke="midnightblue" points="607,-57.3959 610.5,-67.396 614,-57.396 607,-57.3959"/>
</g>
<!-- Node11 -->
<g id="node11" class="node"><title>Node11</title>
<g id="a_node11"><a xlink:href="../../d9/d03/AnalysisNeutral_8cpp.html" target="_top" xlink:title="HeavyHiggs/source/Analysis\lNeutral.cpp">
<polygon fill="white" stroke="black" points="716,-0.5 716,-30.5 859,-30.5 859,-0.5 716,-0.5"/>
<text text-anchor="start" x="724" y="-18.5" font-family="Helvetica,sans-Serif" font-size="10.00">HeavyHiggs/source/Analysis</text>
<text text-anchor="middle" x="787.5" y="-7.5" font-family="Helvetica,sans-Serif" font-size="10.00">Neutral.cpp</text>
</a>
</g>
</g>
<!-- Node10&#45;&gt;Node11 -->
<g id="edge10" class="edge"><title>Node10&#45;&gt;Node11</title>
<path fill="none" stroke="midnightblue" d="M917.454,-63.9553C888.781,-53.4847 852.855,-40.3656 826.048,-30.5765"/>
<polygon fill="midnightblue" stroke="midnightblue" points="916.283,-67.2534 926.877,-67.396 918.684,-60.6781 916.283,-67.2534"/>
</g>
<!-- Node12 -->
<g id="node12" class="node"><title>Node12</title>
<g id="a_node12"><a xlink:href="../../dd/d72/MainNeutral_8cpp.html" target="_top" xlink:title="HeavyHiggs/source/MainNeutral.cpp">
<polygon fill="white" stroke="black" points="877,-6 877,-25 1054,-25 1054,-6 877,-6"/>
<text text-anchor="middle" x="965.5" y="-13" font-family="Helvetica,sans-Serif" font-size="10.00">HeavyHiggs/source/MainNeutral.cpp</text>
</a>
</g>
</g>
<!-- Node10&#45;&gt;Node12 -->
<g id="edge11" class="edge"><title>Node10&#45;&gt;Node12</title>
<path fill="none" stroke="midnightblue" d="M965.5,-57.2495C965.5,-46.017 965.5,-33.3767 965.5,-25.1945"/>
<polygon fill="midnightblue" stroke="midnightblue" points="962,-57.3959 965.5,-67.396 969,-57.396 962,-57.3959"/>
</g>
<!-- Node14 -->
<g id="node14" class="node"><title>Node14</title>
<g id="a_node14"><a xlink:href="../../da/dc8/AnalysisNeutralFourTop_8cpp.html" target="_top" xlink:title="HeavyHiggs/source/Analysis\lNeutralFourTop.cpp">
<polygon fill="white" stroke="black" points="1072,-0.5 1072,-30.5 1215,-30.5 1215,-0.5 1072,-0.5"/>
<text text-anchor="start" x="1080" y="-18.5" font-family="Helvetica,sans-Serif" font-size="10.00">HeavyHiggs/source/Analysis</text>
<text text-anchor="middle" x="1143.5" y="-7.5" font-family="Helvetica,sans-Serif" font-size="10.00">NeutralFourTop.cpp</text>
</a>
</g>
</g>
<!-- Node13&#45;&gt;Node14 -->
<g id="edge13" class="edge"><title>Node13&#45;&gt;Node14</title>
<path fill="none" stroke="midnightblue" d="M1130.82,-57.6971C1133.63,-48.5871 1136.73,-38.4929 1139.17,-30.5765"/>
<polygon fill="midnightblue" stroke="midnightblue" points="1127.44,-56.8088 1127.84,-67.396 1134.13,-58.8675 1127.44,-56.8088"/>
</g>
<!-- Node15 -->
<g id="node15" class="node"><title>Node15</title>
<g id="a_node15"><a xlink:href="../../d3/d5f/MainCut_8cpp.html" target="_top" xlink:title="HeavyHiggs/source/MainCut.cpp">
<polygon fill="white" stroke="black" points="1233,-6 1233,-25 1394,-25 1394,-6 1233,-6"/>
<text text-anchor="middle" x="1313.5" y="-13" font-family="Helvetica,sans-Serif" font-size="10.00">HeavyHiggs/source/MainCut.cpp</text>
</a>
</g>
</g>
<!-- Node13&#45;&gt;Node15 -->
<g id="edge14" class="edge"><title>Node13&#45;&gt;Node15</title>
<path fill="none" stroke="midnightblue" d="M1174.34,-64.1075C1211.3,-51.4622 1259.74,-34.8923 1288.63,-25.007"/>
<polygon fill="midnightblue" stroke="midnightblue" points="1173.06,-60.8474 1164.73,-67.396 1175.32,-67.4706 1173.06,-60.8474"/>
</g>
<!-- Node16 -->
<g id="node16" class="node"><title>Node16</title>
<g id="a_node16"><a xlink:href="../../d0/d67/MainNeutralFourTop_8cpp.html" target="_top" xlink:title="HeavyHiggs/source/MainNeutral\lFourTop.cpp">
<polygon fill="white" stroke="black" points="1412.5,-0.5 1412.5,-30.5 1570.5,-30.5 1570.5,-0.5 1412.5,-0.5"/>
<text text-anchor="start" x="1420.5" y="-18.5" font-family="Helvetica,sans-Serif" font-size="10.00">HeavyHiggs/source/MainNeutral</text>
<text text-anchor="middle" x="1491.5" y="-7.5" font-family="Helvetica,sans-Serif" font-size="10.00">FourTop.cpp</text>
</a>
</g>
</g>
<!-- Node13&#45;&gt;Node16 -->
<g id="edge15" class="edge"><title>Node13&#45;&gt;Node16</title>
<path fill="none" stroke="midnightblue" d="M1202.66,-66.8013C1279.42,-53.0159 1356.44,-39.6501 1412.37,-30.0285"/>
<polygon fill="midnightblue" stroke="midnightblue" points="1202.04,-63.3572 1192.82,-68.5722 1203.28,-70.2467 1202.04,-63.3572"/>
</g>
<!-- Node19 -->
<g id="node19" class="node"><title>Node19</title>
<g id="a_node19"><a xlink:href="../../d5/d34/AnalysisPair_8cpp.html" target="_top" xlink:title="HeavyHiggs/source/Analysis\lPair.cpp">
<polygon fill="white" stroke="black" points="1372,-67.5 1372,-97.5 1515,-97.5 1515,-67.5 1372,-67.5"/>
<text text-anchor="start" x="1380" y="-85.5" font-family="Helvetica,sans-Serif" font-size="10.00">HeavyHiggs/source/Analysis</text>
<text text-anchor="middle" x="1443.5" y="-74.5" font-family="Helvetica,sans-Serif" font-size="10.00">Pair.cpp</text>
</a>
</g>
</g>
<!-- Node18&#45;&gt;Node19 -->
<g id="edge18" class="edge"><title>Node18&#45;&gt;Node19</title>
<path fill="none" stroke="midnightblue" d="M1567.98,-130.819C1540.5,-120.371 1506.17,-107.323 1480.53,-97.5765"/>
<polygon fill="midnightblue" stroke="midnightblue" points="1566.8,-134.114 1577.4,-134.396 1569.29,-127.571 1566.8,-134.114"/>
</g>
<!-- Node20 -->
<g id="node20" class="node"><title>Node20</title>
<g id="a_node20"><a xlink:href="../../d1/d87/HeavyHiggs_2source_2MainPair_8cpp.html" target="_top" xlink:title="HeavyHiggs/source/MainPair.cpp">
<polygon fill="white" stroke="black" points="1533,-73 1533,-92 1696,-92 1696,-73 1533,-73"/>
<text text-anchor="middle" x="1614.5" y="-80" font-family="Helvetica,sans-Serif" font-size="10.00">HeavyHiggs/source/MainPair.cpp</text>
</a>
</g>
</g>
<!-- Node18&#45;&gt;Node20 -->
<g id="edge19" class="edge"><title>Node18&#45;&gt;Node20</title>
<path fill="none" stroke="midnightblue" d="M1614.5,-124.25C1614.5,-113.017 1614.5,-100.377 1614.5,-92.1945"/>
<polygon fill="midnightblue" stroke="midnightblue" points="1611,-124.396 1614.5,-134.396 1618,-124.396 1611,-124.396"/>
</g>
<!-- Node22 -->
<g id="node22" class="node"><title>Node22</title>
<g id="a_node22"><a xlink:href="../../df/d0a/main_8cpp.html" target="_top" xlink:title="HiggsCpv/source/main.cpp">
<polygon fill="white" stroke="black" points="1714,-73 1714,-92 1849,-92 1849,-73 1714,-73"/>
<text text-anchor="middle" x="1781.5" y="-80" font-family="Helvetica,sans-Serif" font-size="10.00">HiggsCpv/source/main.cpp</text>
</a>
</g>
</g>
<!-- Node21&#45;&gt;Node22 -->
<g id="edge21" class="edge"><title>Node21&#45;&gt;Node22</title>
<path fill="none" stroke="midnightblue" d="M1925.79,-131.108C1887.46,-118.462 1837.24,-101.892 1807.28,-92.007"/>
<polygon fill="midnightblue" stroke="midnightblue" points="1925.16,-134.586 1935.75,-134.396 1927.35,-127.939 1925.16,-134.586"/>
</g>
<!-- Node24 -->
<g id="node24" class="node"><title>Node24</title>
<g id="a_node24"><a xlink:href="../../d4/d6b/AnalysisBoson_8hh.html" target="_top" xlink:title="StandardModel/include\l/AnalysisBoson.hh">
<polygon fill="white" stroke="black" points="1867.5,-67.5 1867.5,-97.5 1983.5,-97.5 1983.5,-67.5 1867.5,-67.5"/>
<text text-anchor="start" x="1875.5" y="-85.5" font-family="Helvetica,sans-Serif" font-size="10.00">StandardModel/include</text>
<text text-anchor="middle" x="1925.5" y="-74.5" font-family="Helvetica,sans-Serif" font-size="10.00">/AnalysisBoson.hh</text>
</a>
</g>
</g>
<!-- Node23&#45;&gt;Node24 -->
<g id="edge23" class="edge"><title>Node23&#45;&gt;Node24</title>
<path fill="none" stroke="midnightblue" d="M2249.07,-138.112C2181.03,-128.757 2079.99,-114.045 1992.5,-98 1989.57,-97.4633 1986.58,-96.8932 1983.56,-96.3012"/>
<polygon fill="midnightblue" stroke="midnightblue" points="2248.9,-141.621 2259.28,-139.509 2249.85,-134.685 2248.9,-141.621"/>
</g>
<!-- Node26 -->
<g id="node26" class="node"><title>Node26</title>
<g id="a_node26"><a xlink:href="../../d6/dbe/AnalysisBottom_8hh.html" target="_top" xlink:title="StandardModel/include\l/AnalysisBottom.hh">
<polygon fill="white" stroke="black" points="2001.5,-67.5 2001.5,-97.5 2117.5,-97.5 2117.5,-67.5 2001.5,-67.5"/>
<text text-anchor="start" x="2009.5" y="-85.5" font-family="Helvetica,sans-Serif" font-size="10.00">StandardModel/include</text>
<text text-anchor="middle" x="2059.5" y="-74.5" font-family="Helvetica,sans-Serif" font-size="10.00">/AnalysisBottom.hh</text>
</a>
</g>
</g>
<!-- Node23&#45;&gt;Node26 -->
<g id="edge25" class="edge"><title>Node23&#45;&gt;Node26</title>
<path fill="none" stroke="midnightblue" d="M2259.96,-132.119C2216.11,-121.483 2159.54,-107.763 2117.68,-97.6109"/>
<polygon fill="midnightblue" stroke="midnightblue" points="2259.13,-135.52 2269.68,-134.476 2260.78,-128.717 2259.13,-135.52"/>
</g>
<!-- Node29 -->
<g id="node29" class="node"><title>Node29</title>
<g id="a_node29"><a xlink:href="../../d7/db6/AnalysisHiggs_8hh.html" target="_top" xlink:title="StandardModel/include\l/AnalysisHiggs.hh">
<polygon fill="white" stroke="black" points="2135.5,-67.5 2135.5,-97.5 2251.5,-97.5 2251.5,-67.5 2135.5,-67.5"/>
<text text-anchor="start" x="2143.5" y="-85.5" font-family="Helvetica,sans-Serif" font-size="10.00">StandardModel/include</text>
<text text-anchor="middle" x="2193.5" y="-74.5" font-family="Helvetica,sans-Serif" font-size="10.00">/AnalysisHiggs.hh</text>
</a>
</g>
</g>
<!-- Node23&#45;&gt;Node29 -->
<g id="edge28" class="edge"><title>Node23&#45;&gt;Node29</title>
<path fill="none" stroke="midnightblue" d="M2289.35,-129.992C2268.11,-119.689 2242.09,-107.068 2222.52,-97.5765"/>
<polygon fill="midnightblue" stroke="midnightblue" points="2287.9,-133.181 2298.42,-134.396 2290.95,-126.882 2287.9,-133.181"/>
</g>
<!-- Node31 -->
<g id="node31" class="node"><title>Node31</title>
<g id="a_node31"><a xlink:href="../../d0/dda/AnalysisTop_8hh.html" target="_top" xlink:title="StandardModel/include\l/AnalysisTop.hh">
<polygon fill="white" stroke="black" points="2269.5,-67.5 2269.5,-97.5 2385.5,-97.5 2385.5,-67.5 2269.5,-67.5"/>
<text text-anchor="start" x="2277.5" y="-85.5" font-family="Helvetica,sans-Serif" font-size="10.00">StandardModel/include</text>
<text text-anchor="middle" x="2327.5" y="-74.5" font-family="Helvetica,sans-Serif" font-size="10.00">/AnalysisTop.hh</text>
</a>
</g>
</g>
<!-- Node23&#45;&gt;Node31 -->
<g id="edge30" class="edge"><title>Node23&#45;&gt;Node31</title>
<path fill="none" stroke="midnightblue" d="M2327.5,-124.108C2327.5,-115.154 2327.5,-105.323 2327.5,-97.5765"/>
<polygon fill="midnightblue" stroke="midnightblue" points="2324,-124.396 2327.5,-134.396 2331,-124.396 2324,-124.396"/>
</g>
<!-- Node33 -->
<g id="node33" class="node"><title>Node33</title>
<g id="a_node33"><a xlink:href="../../da/dd8/AnalysisW_8hh.html" target="_top" xlink:title="StandardModel/include\l/AnalysisW.hh">
<polygon fill="white" stroke="black" points="2403.5,-67.5 2403.5,-97.5 2519.5,-97.5 2519.5,-67.5 2403.5,-67.5"/>
<text text-anchor="start" x="2411.5" y="-85.5" font-family="Helvetica,sans-Serif" font-size="10.00">StandardModel/include</text>
<text text-anchor="middle" x="2461.5" y="-74.5" font-family="Helvetica,sans-Serif" font-size="10.00">/AnalysisW.hh</text>
</a>
</g>
</g>
<!-- Node23&#45;&gt;Node33 -->
<g id="edge32" class="edge"><title>Node23&#45;&gt;Node33</title>
<path fill="none" stroke="midnightblue" d="M2365.65,-129.992C2386.89,-119.689 2412.91,-107.068 2432.48,-97.5765"/>
<polygon fill="midnightblue" stroke="midnightblue" points="2364.05,-126.882 2356.58,-134.396 2367.1,-133.181 2364.05,-126.882"/>
</g>
<!-- Node35 -->
<g id="node35" class="node"><title>Node35</title>
<g id="a_node35"><a xlink:href="../../d0/d88/AnalysisZ_8hh.html" target="_top" xlink:title="StandardModel/include\l/AnalysisZ.hh">
<polygon fill="white" stroke="red" points="2537.5,-67.5 2537.5,-97.5 2653.5,-97.5 2653.5,-67.5 2537.5,-67.5"/>
<text text-anchor="start" x="2545.5" y="-85.5" font-family="Helvetica,sans-Serif" font-size="10.00">StandardModel/include</text>
<text text-anchor="middle" x="2595.5" y="-74.5" font-family="Helvetica,sans-Serif" font-size="10.00">/AnalysisZ.hh</text>
</a>
</g>
</g>
<!-- Node23&#45;&gt;Node35 -->
<g id="edge34" class="edge"><title>Node23&#45;&gt;Node35</title>
<path fill="none" stroke="midnightblue" d="M2395.04,-132.119C2438.89,-121.483 2495.46,-107.763 2537.32,-97.6109"/>
<polygon fill="midnightblue" stroke="midnightblue" points="2394.22,-128.717 2385.32,-134.476 2395.87,-135.52 2394.22,-128.717"/>
</g>
<!-- Node36 -->
<g id="node36" class="node"><title>Node36</title>
<g id="a_node36"><a xlink:href="../../df/d46/AnalysisStandardModel_8cpp.html" target="_top" xlink:title="StandardModel/source\l/AnalysisStandardModel.cpp">
<polygon fill="white" stroke="black" points="2672,-67.5 2672,-97.5 2813,-97.5 2813,-67.5 2672,-67.5"/>
<text text-anchor="start" x="2680" y="-85.5" font-family="Helvetica,sans-Serif" font-size="10.00">StandardModel/source</text>
<text text-anchor="middle" x="2742.5" y="-74.5" font-family="Helvetica,sans-Serif" font-size="10.00">/AnalysisStandardModel.cpp</text>
</a>
</g>
</g>
<!-- Node23&#45;&gt;Node36 -->
<g id="edge35" class="edge"><title>Node23&#45;&gt;Node36</title>
<path fill="none" stroke="midnightblue" d="M2405.8,-137.367C2473.76,-127.544 2574.75,-112.563 2662.5,-98 2665.56,-97.4916 2668.69,-96.9635 2671.85,-96.4228"/>
<polygon fill="midnightblue" stroke="midnightblue" points="2405,-133.946 2395.6,-138.838 2406,-140.874 2405,-133.946"/>
</g>
<!-- Node25 -->
<g id="node25" class="node"><title>Node25</title>
<g id="a_node25"><a xlink:href="../../de/d28/MainBoson_8cpp.html" target="_top" xlink:title="StandardModel/source\l/MainBoson.cpp">
<polygon fill="white" stroke="black" points="1741.5,-0.5 1741.5,-30.5 1855.5,-30.5 1855.5,-0.5 1741.5,-0.5"/>
<text text-anchor="start" x="1749.5" y="-18.5" font-family="Helvetica,sans-Serif" font-size="10.00">StandardModel/source</text>
<text text-anchor="middle" x="1798.5" y="-7.5" font-family="Helvetica,sans-Serif" font-size="10.00">/MainBoson.cpp</text>
</a>
</g>
</g>
<!-- Node24&#45;&gt;Node25 -->
<g id="edge24" class="edge"><title>Node24&#45;&gt;Node25</title>
<path fill="none" stroke="midnightblue" d="M1888.8,-62.7143C1868.77,-52.4631 1844.38,-39.9826 1826,-30.5765"/>
<polygon fill="midnightblue" stroke="midnightblue" points="1887.45,-65.9555 1897.94,-67.396 1890.64,-59.7242 1887.45,-65.9555"/>
</g>
<!-- Node27 -->
<g id="node27" class="node"><title>Node27</title>
<g id="a_node27"><a xlink:href="../../d0/dc8/AnalysisBottom_8cpp.html" target="_top" xlink:title="StandardModel/source\l/AnalysisBottom.cpp">
<polygon fill="white" stroke="black" points="1873.5,-0.5 1873.5,-30.5 1987.5,-30.5 1987.5,-0.5 1873.5,-0.5"/>
<text text-anchor="start" x="1881.5" y="-18.5" font-family="Helvetica,sans-Serif" font-size="10.00">StandardModel/source</text>
<text text-anchor="middle" x="1930.5" y="-7.5" font-family="Helvetica,sans-Serif" font-size="10.00">/AnalysisBottom.cpp</text>
</a>
</g>
</g>
<!-- Node26&#45;&gt;Node27 -->
<g id="edge26" class="edge"><title>Node26&#45;&gt;Node27</title>
<path fill="none" stroke="midnightblue" d="M2022.49,-62.8533C2002.1,-52.5761 1977.19,-40.0252 1958.44,-30.5765"/>
<polygon fill="midnightblue" stroke="midnightblue" points="2021,-66.0217 2031.51,-67.396 2024.15,-59.7705 2021,-66.0217"/>
</g>
<!-- Node28 -->
<g id="node28" class="node"><title>Node28</title>
<g id="a_node28"><a xlink:href="../../d7/d2e/MainBottom_8cpp.html" target="_top" xlink:title="StandardModel/source\l/MainBottom.cpp">
<polygon fill="white" stroke="black" points="2005.5,-0.5 2005.5,-30.5 2119.5,-30.5 2119.5,-0.5 2005.5,-0.5"/>
<text text-anchor="start" x="2013.5" y="-18.5" font-family="Helvetica,sans-Serif" font-size="10.00">StandardModel/source</text>
<text text-anchor="middle" x="2062.5" y="-7.5" font-family="Helvetica,sans-Serif" font-size="10.00">/MainBottom.cpp</text>
</a>
</g>
</g>
<!-- Node26&#45;&gt;Node28 -->
<g id="edge27" class="edge"><title>Node26&#45;&gt;Node28</title>
<path fill="none" stroke="midnightblue" d="M2060.61,-57.4029C2061.03,-48.3703 2061.49,-38.4078 2061.85,-30.5765"/>
<polygon fill="midnightblue" stroke="midnightblue" points="2057.12,-57.2452 2060.15,-67.396 2064.11,-57.568 2057.12,-57.2452"/>
</g>
<!-- Node30 -->
<g id="node30" class="node"><title>Node30</title>
<g id="a_node30"><a xlink:href="../../d6/d9f/MainHiggs_8cpp.html" target="_top" xlink:title="StandardModel/source\l/MainHiggs.cpp">
<polygon fill="white" stroke="black" points="2137.5,-0.5 2137.5,-30.5 2251.5,-30.5 2251.5,-0.5 2137.5,-0.5"/>
<text text-anchor="start" x="2145.5" y="-18.5" font-family="Helvetica,sans-Serif" font-size="10.00">StandardModel/source</text>
<text text-anchor="middle" x="2194.5" y="-7.5" font-family="Helvetica,sans-Serif" font-size="10.00">/MainHiggs.cpp</text>
</a>
</g>
</g>
<!-- Node29&#45;&gt;Node30 -->
<g id="edge29" class="edge"><title>Node29&#45;&gt;Node30</title>
<path fill="none" stroke="midnightblue" d="M2193.88,-57.1081C2194.01,-48.1539 2194.16,-38.3227 2194.28,-30.5765"/>
<polygon fill="midnightblue" stroke="midnightblue" points="2190.37,-57.3433 2193.72,-67.396 2197.37,-57.451 2190.37,-57.3433"/>
</g>
<!-- Node32 -->
<g id="node32" class="node"><title>Node32</title>
<g id="a_node32"><a xlink:href="../../da/d4b/MainTop_8cpp.html" target="_top" xlink:title="StandardModel/source\l/MainTop.cpp">
<polygon fill="white" stroke="black" points="2270.5,-0.5 2270.5,-30.5 2384.5,-30.5 2384.5,-0.5 2270.5,-0.5"/>
<text text-anchor="start" x="2278.5" y="-18.5" font-family="Helvetica,sans-Serif" font-size="10.00">StandardModel/source</text>
<text text-anchor="middle" x="2327.5" y="-7.5" font-family="Helvetica,sans-Serif" font-size="10.00">/MainTop.cpp</text>
</a>
</g>
</g>
<!-- Node31&#45;&gt;Node32 -->
<g id="edge31" class="edge"><title>Node31&#45;&gt;Node32</title>
<path fill="none" stroke="midnightblue" d="M2327.5,-57.1081C2327.5,-48.1539 2327.5,-38.3227 2327.5,-30.5765"/>
<polygon fill="midnightblue" stroke="midnightblue" points="2324,-57.3959 2327.5,-67.396 2331,-57.396 2324,-57.3959"/>
</g>
<!-- Node34 -->
<g id="node34" class="node"><title>Node34</title>
<g id="a_node34"><a xlink:href="../../d2/d01/MainW_8cpp.html" target="_top" xlink:title="StandardModel/source\l/MainW.cpp">
<polygon fill="white" stroke="black" points="2404.5,-0.5 2404.5,-30.5 2518.5,-30.5 2518.5,-0.5 2404.5,-0.5"/>
<text text-anchor="start" x="2412.5" y="-18.5" font-family="Helvetica,sans-Serif" font-size="10.00">StandardModel/source</text>
<text text-anchor="middle" x="2461.5" y="-7.5" font-family="Helvetica,sans-Serif" font-size="10.00">/MainW.cpp</text>
</a>
</g>
</g>
<!-- Node33&#45;&gt;Node34 -->
<g id="edge33" class="edge"><title>Node33&#45;&gt;Node34</title>
<path fill="none" stroke="midnightblue" d="M2461.5,-57.1081C2461.5,-48.1539 2461.5,-38.3227 2461.5,-30.5765"/>
<polygon fill="midnightblue" stroke="midnightblue" points="2458,-57.3959 2461.5,-67.396 2465,-57.396 2458,-57.3959"/>
</g>
<!-- Node38 -->
<g id="node38" class="node"><title>Node38</title>
<g id="a_node38"><a xlink:href="../../d1/dbf/AnalysisTopPartnerEffective_8hh.html" target="_top" xlink:title="TopPartner/include\l/AnalysisTopPartnerEffective.hh">
<polygon fill="white" stroke="red" points="2831.5,-67.5 2831.5,-97.5 2989.5,-97.5 2989.5,-67.5 2831.5,-67.5"/>
<text text-anchor="start" x="2839.5" y="-85.5" font-family="Helvetica,sans-Serif" font-size="10.00">TopPartner/include</text>
<text text-anchor="middle" x="2910.5" y="-74.5" font-family="Helvetica,sans-Serif" font-size="10.00">/AnalysisTopPartnerEffective.hh</text>
</a>
</g>
</g>
<!-- Node37&#45;&gt;Node38 -->
<g id="edge37" class="edge"><title>Node37&#45;&gt;Node38</title>
<path fill="none" stroke="midnightblue" d="M3099.96,-131.984C3058.47,-121.367 3005.14,-107.72 2965.64,-97.6109"/>
<polygon fill="midnightblue" stroke="midnightblue" points="3099.14,-135.387 3109.7,-134.476 3100.88,-128.606 3099.14,-135.387"/>
</g>
<!-- Node39 -->
<g id="node39" class="node"><title>Node39</title>
<g id="a_node39"><a xlink:href="../../da/dd2/AnalysisTopPartnerPair_8hh.html" target="_top" xlink:title="TopPartner/include\l/AnalysisTopPartnerPair.hh">
<polygon fill="white" stroke="black" points="3007.5,-67.5 3007.5,-97.5 3143.5,-97.5 3143.5,-67.5 3007.5,-67.5"/>
<text text-anchor="start" x="3015.5" y="-85.5" font-family="Helvetica,sans-Serif" font-size="10.00">TopPartner/include</text>
<text text-anchor="middle" x="3075.5" y="-74.5" font-family="Helvetica,sans-Serif" font-size="10.00">/AnalysisTopPartnerPair.hh</text>
</a>
</g>
</g>
<!-- Node37&#45;&gt;Node39 -->
<g id="edge38" class="edge"><title>Node37&#45;&gt;Node39</title>
<path fill="none" stroke="midnightblue" d="M3137.05,-128.451C3123.36,-118.452 3107.13,-106.6 3094.77,-97.5765"/>
<polygon fill="midnightblue" stroke="midnightblue" points="3135.05,-131.324 3145.19,-134.396 3139.18,-125.672 3135.05,-131.324"/>
</g>
<!-- Node41 -->
<g id="node41" class="node"><title>Node41</title>
<g id="a_node41"><a xlink:href="../../d9/de2/AnalysisTopPartnerSingleHadronic_8hh.html" target="_top" xlink:title="TopPartner/include\l/AnalysisTopPartnerSingleHadronic.hh">
<polygon fill="white" stroke="red" points="3162,-67.5 3162,-97.5 3347,-97.5 3347,-67.5 3162,-67.5"/>
<text text-anchor="start" x="3170" y="-85.5" font-family="Helvetica,sans-Serif" font-size="10.00">TopPartner/include</text>
<text text-anchor="middle" x="3254.5" y="-74.5" font-family="Helvetica,sans-Serif" font-size="10.00">/AnalysisTopPartnerSingleHadronic.hh</text>
</a>
</g>
</g>
<!-- Node37&#45;&gt;Node41 -->
<g id="edge40" class="edge"><title>Node37&#45;&gt;Node41</title>
<path fill="none" stroke="midnightblue" d="M3192.26,-128.451C3206.11,-118.452 3222.52,-106.6 3235.01,-97.5765"/>
<polygon fill="midnightblue" stroke="midnightblue" points="3190.09,-125.704 3184.03,-134.396 3194.18,-131.378 3190.09,-125.704"/>
</g>
<!-- Node42 -->
<g id="node42" class="node"><title>Node42</title>
<g id="a_node42"><a xlink:href="../../d7/db4/AnalysisTopPartnerSingleLeptonic_8hh.html" target="_top" xlink:title="TopPartner/include\l/AnalysisTopPartnerSingleLeptonic.hh">
<polygon fill="white" stroke="red" points="3365.5,-67.5 3365.5,-97.5 3547.5,-97.5 3547.5,-67.5 3365.5,-67.5"/>
<text text-anchor="start" x="3373.5" y="-85.5" font-family="Helvetica,sans-Serif" font-size="10.00">TopPartner/include</text>
<text text-anchor="middle" x="3456.5" y="-74.5" font-family="Helvetica,sans-Serif" font-size="10.00">/AnalysisTopPartnerSingleLeptonic.hh</text>
</a>
</g>
</g>
<!-- Node37&#45;&gt;Node42 -->
<g id="edge41" class="edge"><title>Node37&#45;&gt;Node42</title>
<path fill="none" stroke="midnightblue" d="M3234.07,-133.013C3282.51,-122.231 3346.57,-107.97 3393.5,-97.5232"/>
<polygon fill="midnightblue" stroke="midnightblue" points="3233.3,-129.6 3224.3,-135.189 3234.82,-136.433 3233.3,-129.6"/>
</g>
<!-- Node43 -->
<g id="node43" class="node"><title>Node43</title>
<g id="a_node43"><a xlink:href="../../d8/df5/AnalysisTopPartner_8cpp.html" target="_top" xlink:title="TopPartner/source/Analysis\lTopPartner.cpp">
<polygon fill="white" stroke="black" points="3566,-67.5 3566,-97.5 3703,-97.5 3703,-67.5 3566,-67.5"/>
<text text-anchor="start" x="3574" y="-85.5" font-family="Helvetica,sans-Serif" font-size="10.00">TopPartner/source/Analysis</text>
<text text-anchor="middle" x="3634.5" y="-74.5" font-family="Helvetica,sans-Serif" font-size="10.00">TopPartner.cpp</text>
</a>
</g>
</g>
<!-- Node37&#45;&gt;Node43 -->
<g id="edge42" class="edge"><title>Node37&#45;&gt;Node43</title>
<path fill="none" stroke="midnightblue" d="M3234.34,-140.692C3312.87,-131.637 3444.11,-115.672 3556.5,-98 3559.49,-97.5293 3562.55,-97.0325 3565.63,-96.5174"/>
<polygon fill="midnightblue" stroke="midnightblue" points="3233.62,-137.252 3224.08,-141.87 3234.42,-144.206 3233.62,-137.252"/>
</g>
<!-- Node40 -->
<g id="node40" class="node"><title>Node40</title>
<g id="a_node40"><a xlink:href="../../d0/d3e/TopPartner_2source_2MainPair_8cpp.html" target="_top" xlink:title="TopPartner/source/MainPair.cpp">
<polygon fill="white" stroke="black" points="3325,-6 3325,-25 3482,-25 3482,-6 3325,-6"/>
<text text-anchor="middle" x="3403.5" y="-13" font-family="Helvetica,sans-Serif" font-size="10.00">TopPartner/source/MainPair.cpp</text>
</a>
</g>
</g>
<!-- Node39&#45;&gt;Node40 -->
<g id="edge39" class="edge"><title>Node39&#45;&gt;Node40</title>
<path fill="none" stroke="midnightblue" d="M3154.02,-65.9406C3218.66,-53.1291 3307.91,-35.4429 3360.28,-25.0643"/>
<polygon fill="midnightblue" stroke="midnightblue" points="3152.99,-62.5758 3143.86,-67.953 3154.35,-69.4422 3152.99,-62.5758"/>
</g>
<!-- Node44&#45;&gt;Node2 -->
<g id="edge44" class="edge"><title>Node44&#45;&gt;Node2</title>
<path fill="none" stroke="midnightblue" d="M3030.9,-271.433C2875.06,-259.484 2511.81,-231.632 2378.09,-221.379"/>
<polygon fill="midnightblue" stroke="midnightblue" points="3031.07,-274.957 3041.31,-272.231 3031.61,-267.977 3031.07,-274.957"/>
</g>
<!-- Node44&#45;&gt;Node45 -->
<g id="edge45" class="edge"><title>Node44&#45;&gt;Node45</title>
<path fill="none" stroke="midnightblue" d="M3130.11,-264.021C3153.77,-252.482 3187.68,-235.943 3208.05,-226.009"/>
<polygon fill="midnightblue" stroke="midnightblue" points="3128.43,-260.946 3120.98,-268.475 3131.5,-267.237 3128.43,-260.946"/>
</g>
<!-- Node46 -->
<g id="node46" class="node"><title>Node46</title>
<g id="a_node46"><a xlink:href="../../de/d78/EventPairTagger_8hh.html" target="_top" xlink:title="TopPartner/include\l/EventPairTagger.hh">
<polygon fill="white" stroke="black" points="3037.5,-201.5 3037.5,-231.5 3143.5,-231.5 3143.5,-201.5 3037.5,-201.5"/>
<text text-anchor="start" x="3045.5" y="-219.5" font-family="Helvetica,sans-Serif" font-size="10.00">TopPartner/include</text>
<text text-anchor="middle" x="3090.5" y="-208.5" font-family="Helvetica,sans-Serif" font-size="10.00">/EventPairTagger.hh</text>
</a>
</g>
</g>
<!-- Node44&#45;&gt;Node46 -->
<g id="edge46" class="edge"><title>Node44&#45;&gt;Node46</title>
<path fill="none" stroke="midnightblue" d="M3099.46,-258.526C3097.56,-249.813 3095.33,-239.586 3093.56,-231.523"/>
<polygon fill="midnightblue" stroke="midnightblue" points="3096.08,-259.453 3101.64,-268.475 3102.92,-257.958 3096.08,-259.453"/>
</g>
<!-- Node46&#45;&gt;Node40 -->
<g id="edge48" class="edge"><title>Node46&#45;&gt;Node40</title>
<path fill="none" stroke="midnightblue" d="M3153.66,-200.966C3293.29,-176.068 3632.65,-192.703 3711.5,-98 3720.32,-87.4117 3720.42,-77.501 3711.5,-67 3682.65,-33.0316 3563.7,-21.8661 3482.36,-18.224"/>
<polygon fill="midnightblue" stroke="midnightblue" points="3152.72,-197.583 3143.56,-202.915 3154.05,-204.456 3152.72,-197.583"/>
</g>
<!-- Node47 -->
<g id="node47" class="node"><title>Node47</title>
<g id="a_node47"><a xlink:href="../../dc/dfe/EventPairTagger_8cpp.html" target="_top" xlink:title="TopPartner/source/EventPair\lTagger.cpp">
<polygon fill="white" stroke="black" points="3760,-134.5 3760,-164.5 3903,-164.5 3903,-134.5 3760,-134.5"/>
<text text-anchor="start" x="3768" y="-152.5" font-family="Helvetica,sans-Serif" font-size="10.00">TopPartner/source/EventPair</text>
<text text-anchor="middle" x="3831.5" y="-141.5" font-family="Helvetica,sans-Serif" font-size="10.00">Tagger.cpp</text>
</a>
</g>
</g>
<!-- Node46&#45;&gt;Node47 -->
<g id="edge47" class="edge"><title>Node46&#45;&gt;Node47</title>
<path fill="none" stroke="midnightblue" d="M3154.01,-200.951C3415.56,-163.606 3486.5,-194.611 3745.5,-165 3750.16,-164.467 3754.96,-163.85 3759.78,-163.178"/>
<polygon fill="midnightblue" stroke="midnightblue" points="3153.22,-197.528 3143.82,-202.425 3154.22,-204.456 3153.22,-197.528"/>
</g>
<!-- Node48&#45;&gt;Node49 -->
<g id="edge50" class="edge"><title>Node48&#45;&gt;Node49</title>
<path fill="none" stroke="midnightblue" d="M3298.94,-261.973C3312.9,-250.593 3331.58,-235.369 3343.06,-226.009"/>
<polygon fill="midnightblue" stroke="midnightblue" points="3296.5,-259.444 3290.96,-268.475 3300.92,-264.87 3296.5,-259.444"/>
</g>
</g>
</svg>
