<?xml version="1.0" encoding="UTF-8" standalone="no"?>
<!DOCTYPE svg PUBLIC "-//W3C//DTD SVG 1.1//EN"
 "http://www.w3.org/Graphics/SVG/1.1/DTD/svg11.dtd">
<!-- Generated by graphviz version 2.38.0 (20140413.2041)
 -->
<!-- Title: include/Types.hh Pages: 1 -->
<svg width="3394pt" height="274pt"
 viewBox="0.00 0.00 3393.50 274.00" xmlns="http://www.w3.org/2000/svg" xmlns:xlink="http://www.w3.org/1999/xlink">
<g id="graph0" class="graph" transform="scale(1 1) rotate(0) translate(4 270)">
<title>include/Types.hh</title>
<polygon fill="white" stroke="none" points="-4,4 -4,-270 3389.5,-270 3389.5,4 -4,4"/>
<!-- Node1 -->
<g id="node1" class="node"><title>Node1</title>
<polygon fill="#bfbfbf" stroke="black" points="1870.5,-246.5 1870.5,-265.5 1961.5,-265.5 1961.5,-246.5 1870.5,-246.5"/>
<text text-anchor="middle" x="1916" y="-253.5" font-family="Helvetica,sans-Serif" font-size="10.00">include/Types.hh</text>
</g>
<!-- Node2 -->
<g id="node2" class="node"><title>Node2</title>
<g id="a_node2"><a xlink:href="../../d8/dce/HeavyHiggsLeptonicTagger_8cpp.html" target="_top" xlink:title="HeavyHiggs/source/HeavyHiggs\lLeptonicTagger.cpp">
<polygon fill="white" stroke="black" points="0,-67.5 0,-97.5 160,-97.5 160,-67.5 0,-67.5"/>
<text text-anchor="start" x="8" y="-85.5" font-family="Helvetica,sans-Serif" font-size="10.00">HeavyHiggs/source/HeavyHiggs</text>
<text text-anchor="middle" x="80" y="-74.5" font-family="Helvetica,sans-Serif" font-size="10.00">LeptonicTagger.cpp</text>
</a>
</g>
</g>
<!-- Node1&#45;&gt;Node2 -->
<g id="edge1" class="edge"><title>Node1&#45;&gt;Node2</title>
<path fill="none" stroke="midnightblue" d="M1859.85,-254.389C1578.93,-251.217 336.467,-235.773 259,-210 188.59,-186.575 121.587,-125.439 93.6532,-97.6342"/>
<polygon fill="midnightblue" stroke="midnightblue" points="1860.17,-257.893 1870.2,-254.505 1860.24,-250.893 1860.17,-257.893"/>
</g>
<!-- Node3 -->
<g id="node3" class="node"><title>Node3</title>
<g id="a_node3"><a xlink:href="../../df/d0a/main_8cpp.html" target="_top" xlink:title="HiggsCpv/source/main.cpp">
<polygon fill="white" stroke="black" points="837.5,-6 837.5,-25 972.5,-25 972.5,-6 837.5,-6"/>
<text text-anchor="middle" x="905" y="-13" font-family="Helvetica,sans-Serif" font-size="10.00">HiggsCpv/source/main.cpp</text>
</a>
</g>
</g>
<!-- Node1&#45;&gt;Node3 -->
<g id="edge2" class="edge"><title>Node1&#45;&gt;Node3</title>
<path fill="none" stroke="midnightblue" d="M1860.25,-254.94C1629.17,-254.106 754.941,-244.925 677,-154 618.864,-86.1786 778.425,-42.3975 860.14,-25.0094"/>
<polygon fill="midnightblue" stroke="midnightblue" points="1860.43,-258.441 1870.45,-254.973 1860.46,-251.441 1860.43,-258.441"/>
</g>
<!-- Node4 -->
<g id="node4" class="node"><title>Node4</title>
<g id="a_node4"><a xlink:href="../../d4/db4/TopLeptonicPairTagger_8cpp.html" target="_top" xlink:title="HiggsCpv/source/TopLeptonic\lPairTagger.cpp">
<polygon fill="white" stroke="black" points="178.5,-67.5 178.5,-97.5 327.5,-97.5 327.5,-67.5 178.5,-67.5"/>
<text text-anchor="start" x="186.5" y="-85.5" font-family="Helvetica,sans-Serif" font-size="10.00">HiggsCpv/source/TopLeptonic</text>
<text text-anchor="middle" x="253" y="-74.5" font-family="Helvetica,sans-Serif" font-size="10.00">PairTagger.cpp</text>
</a>
</g>
</g>
<!-- Node1&#45;&gt;Node4 -->
<g id="edge3" class="edge"><title>Node1&#45;&gt;Node4</title>
<path fill="none" stroke="midnightblue" d="M1860.23,-254.799C1582.65,-253.628 360.368,-246.415 289,-210 261.049,-195.738 256.092,-183.713 246,-154 239.632,-135.249 244.042,-112.199 248.193,-97.6737"/>
<polygon fill="midnightblue" stroke="midnightblue" points="1860.45,-258.3 1870.47,-254.841 1860.48,-251.3 1860.45,-258.3"/>
</g>
<!-- Node5 -->
<g id="node5" class="node"><title>Node5</title>
<g id="a_node5"><a xlink:href="../../d3/d96/ExRootAnalysis_8hh.html" target="_top" xlink:title="include/exroot/ExRootAnalysis.hh">
<polygon fill="white" stroke="black" points="1434,-190.5 1434,-209.5 1598,-209.5 1598,-190.5 1434,-190.5"/>
<text text-anchor="middle" x="1516" y="-197.5" font-family="Helvetica,sans-Serif" font-size="10.00">include/exroot/ExRootAnalysis.hh</text>
</a>
</g>
</g>
<!-- Node1&#45;&gt;Node5 -->
<g id="edge4" class="edge"><title>Node1&#45;&gt;Node5</title>
<path fill="none" stroke="midnightblue" d="M1860.07,-247.449C1786.17,-237.473 1656.34,-219.947 1579.04,-209.511"/>
<polygon fill="midnightblue" stroke="midnightblue" points="1859.74,-250.936 1870.11,-248.806 1860.67,-243.999 1859.74,-250.936"/>
</g>
<!-- Node21 -->
<g id="node21" class="node"><title>Node21</title>
<g id="a_node21"><a xlink:href="../../dc/d26/Trainer_8cpp.html" target="_top" xlink:title="source/Trainer.cpp">
<polygon fill="white" stroke="black" points="968,-73 968,-92 1066,-92 1066,-73 968,-73"/>
<text text-anchor="middle" x="1017" y="-80" font-family="Helvetica,sans-Serif" font-size="10.00">source/Trainer.cpp</text>
</a>
</g>
</g>
<!-- Node1&#45;&gt;Node21 -->
<g id="edge60" class="edge"><title>Node1&#45;&gt;Node21</title>
<path fill="none" stroke="midnightblue" d="M1860.27,-253.511C1662.46,-247.655 1002.52,-223.045 941,-154 919.45,-129.813 965.778,-104.785 995.184,-92.056"/>
<polygon fill="midnightblue" stroke="midnightblue" points="1860.34,-257.014 1870.44,-253.807 1860.55,-250.017 1860.34,-257.014"/>
</g>
<!-- Node26 -->
<g id="node26" class="node"><title>Node26</title>
<g id="a_node26"><a xlink:href="../../d9/dbe/exroot_2Leptons_8cpp.html" target="_top" xlink:title="source/exroot/Leptons.cpp">
<polygon fill="white" stroke="black" points="2046,-134.5 2046,-153.5 2178,-153.5 2178,-134.5 2046,-134.5"/>
<text text-anchor="middle" x="2112" y="-141.5" font-family="Helvetica,sans-Serif" font-size="10.00">source/exroot/Leptons.cpp</text>
</a>
</g>
</g>
<!-- Node1&#45;&gt;Node26 -->
<g id="edge48" class="edge"><title>Node1&#45;&gt;Node26</title>
<path fill="none" stroke="midnightblue" d="M1860.07,-253.702C1790.13,-250.761 1676.35,-241.178 1650,-210 1644.26,-203.211 1644.01,-196.57 1650,-190 1679.09,-158.08 1994.06,-158.573 2037,-154 2039.87,-153.694 2042.8,-153.375 2045.76,-153.046"/>
<polygon fill="midnightblue" stroke="midnightblue" points="1860.35,-257.215 1870.48,-254.104 1860.62,-250.221 1860.35,-257.215"/>
</g>
<!-- Node27 -->
<g id="node27" class="node"><title>Node27</title>
<g id="a_node27"><a xlink:href="../../d4/d47/exroot_2Partons_8cpp.html" target="_top" xlink:title="source/exroot/Partons.cpp">
<polygon fill="white" stroke="black" points="2196.5,-134.5 2196.5,-153.5 2327.5,-153.5 2327.5,-134.5 2196.5,-134.5"/>
<text text-anchor="middle" x="2262" y="-141.5" font-family="Helvetica,sans-Serif" font-size="10.00">source/exroot/Partons.cpp</text>
</a>
</g>
</g>
<!-- Node1&#45;&gt;Node27 -->
<g id="edge49" class="edge"><title>Node1&#45;&gt;Node27</title>
<path fill="none" stroke="midnightblue" d="M1860.22,-255.629C1777.24,-254.799 1636.32,-245.54 1688,-190 1725.87,-149.303 2131.67,-159.313 2187,-154 2190,-153.712 2193.07,-153.403 2196.17,-153.079"/>
<polygon fill="midnightblue" stroke="midnightblue" points="1860.26,-259.13 1870.28,-255.692 1860.3,-252.13 1860.26,-259.13"/>
</g>
<!-- Node28 -->
<g id="node28" class="node"><title>Node28</title>
<g id="a_node28"><a xlink:href="../../d0/d3a/FourVector_8cpp.html" target="_top" xlink:title="source/FourVector.cpp">
<polygon fill="white" stroke="black" points="2346,-134.5 2346,-153.5 2462,-153.5 2462,-134.5 2346,-134.5"/>
<text text-anchor="middle" x="2404" y="-141.5" font-family="Helvetica,sans-Serif" font-size="10.00">source/FourVector.cpp</text>
</a>
</g>
</g>
<!-- Node1&#45;&gt;Node28 -->
<g id="edge51" class="edge"><title>Node1&#45;&gt;Node28</title>
<path fill="none" stroke="midnightblue" d="M1860.28,-253.046C1790.18,-248.715 1683.77,-234.789 1726,-190 1772.65,-140.518 2269.31,-160.532 2337,-154 2339.92,-153.718 2342.91,-153.406 2345.93,-153.071"/>
<polygon fill="midnightblue" stroke="midnightblue" points="1860.15,-256.544 1870.33,-253.618 1860.55,-249.556 1860.15,-256.544"/>
</g>
<!-- Node29 -->
<g id="node29" class="node"><title>Node29</title>
<g id="a_node29"><a xlink:href="../../d8/d1c/Plotting_8cpp.html" target="_top" xlink:title="source/Plotting.cpp">
<polygon fill="white" stroke="black" points="2480.5,-134.5 2480.5,-153.5 2581.5,-153.5 2581.5,-134.5 2480.5,-134.5"/>
<text text-anchor="middle" x="2531" y="-141.5" font-family="Helvetica,sans-Serif" font-size="10.00">source/Plotting.cpp</text>
</a>
</g>
</g>
<!-- Node1&#45;&gt;Node29 -->
<g id="edge58" class="edge"><title>Node1&#45;&gt;Node29</title>
<path fill="none" stroke="midnightblue" d="M1859.93,-249.837C1802.19,-242.482 1725.06,-225.7 1759,-190 1786.29,-161.296 2431.59,-157.942 2471,-154 2474.04,-153.696 2477.16,-153.345 2480.3,-152.962"/>
<polygon fill="midnightblue" stroke="midnightblue" points="1859.75,-253.34 1870.1,-251.062 1860.59,-246.39 1859.75,-253.34"/>
</g>
<!-- Node32 -->
<g id="node32" class="node"><title>Node32</title>
<g id="a_node32"><a xlink:href="../../dd/dee/Hadrons_8hh.html" target="_top" xlink:title="include/Hadrons.hh">
<polygon fill="white" stroke="black" points="527.5,-190.5 527.5,-209.5 628.5,-209.5 628.5,-190.5 527.5,-190.5"/>
<text text-anchor="middle" x="578" y="-197.5" font-family="Helvetica,sans-Serif" font-size="10.00">include/Hadrons.hh</text>
</a>
</g>
</g>
<!-- Node1&#45;&gt;Node32 -->
<g id="edge36" class="edge"><title>Node1&#45;&gt;Node32</title>
<path fill="none" stroke="midnightblue" d="M1860.1,-255.018C1682.15,-254.646 1112.97,-250.169 644,-210 639.045,-209.576 633.893,-209.04 628.75,-208.442"/>
<polygon fill="midnightblue" stroke="midnightblue" points="1860.26,-258.518 1870.27,-255.035 1860.27,-251.518 1860.26,-258.518"/>
</g>
<!-- Node34 -->
<g id="node34" class="node"><title>Node34</title>
<g id="a_node34"><a xlink:href="../../d7/d4a/HiggsTagger_8cpp.html" target="_top" xlink:title="StandardModel/source\l/HiggsTagger.cpp">
<polygon fill="white" stroke="black" points="346,-67.5 346,-97.5 460,-97.5 460,-67.5 346,-67.5"/>
<text text-anchor="start" x="354" y="-85.5" font-family="Helvetica,sans-Serif" font-size="10.00">StandardModel/source</text>
<text text-anchor="middle" x="403" y="-74.5" font-family="Helvetica,sans-Serif" font-size="10.00">/HiggsTagger.cpp</text>
</a>
</g>
</g>
<!-- Node1&#45;&gt;Node34 -->
<g id="edge64" class="edge"><title>Node1&#45;&gt;Node34</title>
<path fill="none" stroke="midnightblue" d="M1860.04,-254.52C1633.59,-252.374 784.522,-242.299 518,-210 398.927,-195.57 329.503,-247.198 254,-154 248.405,-147.093 248.821,-141.224 254,-134 265.14,-118.462 308.658,-104.815 345.808,-95.6384"/>
<polygon fill="midnightblue" stroke="midnightblue" points="1860.32,-258.023 1870.35,-254.616 1860.38,-251.023 1860.32,-258.023"/>
</g>
<!-- Node38 -->
<g id="node38" class="node"><title>Node38</title>
<g id="a_node38"><a xlink:href="../../dd/d98/delphes_2Leptons_8cpp.html" target="_top" xlink:title="source/delphes/Leptons.cpp">
<polygon fill="white" stroke="black" points="1768.5,-190.5 1768.5,-209.5 1907.5,-209.5 1907.5,-190.5 1768.5,-190.5"/>
<text text-anchor="middle" x="1838" y="-197.5" font-family="Helvetica,sans-Serif" font-size="10.00">source/delphes/Leptons.cpp</text>
</a>
</g>
</g>
<!-- Node1&#45;&gt;Node38 -->
<g id="edge46" class="edge"><title>Node1&#45;&gt;Node38</title>
<path fill="none" stroke="midnightblue" d="M1895.23,-240.622C1880.98,-230.757 1862.54,-217.992 1850.5,-209.655"/>
<polygon fill="midnightblue" stroke="midnightblue" points="1893.25,-243.51 1903.47,-246.324 1897.24,-237.754 1893.25,-243.51"/>
</g>
<!-- Node39 -->
<g id="node39" class="node"><title>Node39</title>
<g id="a_node39"><a xlink:href="../../d1/da0/delphes_2Partons_8cpp.html" target="_top" xlink:title="source/delphes/Partons.cpp">
<polygon fill="white" stroke="black" points="1926,-190.5 1926,-209.5 2064,-209.5 2064,-190.5 1926,-190.5"/>
<text text-anchor="middle" x="1995" y="-197.5" font-family="Helvetica,sans-Serif" font-size="10.00">source/delphes/Partons.cpp</text>
</a>
</g>
</g>
<!-- Node1&#45;&gt;Node39 -->
<g id="edge47" class="edge"><title>Node1&#45;&gt;Node39</title>
<path fill="none" stroke="midnightblue" d="M1937.03,-240.622C1951.47,-230.757 1970.14,-217.992 1982.34,-209.655"/>
<polygon fill="midnightblue" stroke="midnightblue" points="1934.97,-237.791 1928.69,-246.324 1938.92,-243.57 1934.97,-237.791"/>
</g>
<!-- Node40 -->
<g id="node40" class="node"><title>Node40</title>
<g id="a_node40"><a xlink:href="../../d9/d63/File_8cpp.html" target="_top" xlink:title="source/File.cpp">
<polygon fill="white" stroke="black" points="2082.5,-190.5 2082.5,-209.5 2165.5,-209.5 2165.5,-190.5 2082.5,-190.5"/>
<text text-anchor="middle" x="2124" y="-197.5" font-family="Helvetica,sans-Serif" font-size="10.00">source/File.cpp</text>
</a>
</g>
</g>
<!-- Node1&#45;&gt;Node40 -->
<g id="edge50" class="edge"><title>Node1&#45;&gt;Node40</title>
<path fill="none" stroke="midnightblue" d="M1958.78,-243.894C1998.06,-233.697 2055.43,-218.802 2091.2,-209.516"/>
<polygon fill="midnightblue" stroke="midnightblue" points="1957.76,-240.543 1948.96,-246.444 1959.52,-247.318 1957.76,-240.543"/>
</g>
<!-- Node41 -->
<g id="node41" class="node"><title>Node41</title>
<g id="a_node41"><a xlink:href="../../db/d6a/JetInfo_8cpp.html" target="_top" xlink:title="source/JetInfo.cpp">
<polygon fill="white" stroke="black" points="2184,-190.5 2184,-209.5 2282,-209.5 2282,-190.5 2184,-190.5"/>
<text text-anchor="middle" x="2233" y="-197.5" font-family="Helvetica,sans-Serif" font-size="10.00">source/JetInfo.cpp</text>
</a>
</g>
</g>
<!-- Node1&#45;&gt;Node41 -->
<g id="edge52" class="edge"><title>Node1&#45;&gt;Node41</title>
<path fill="none" stroke="midnightblue" d="M1971.82,-245.491C2031.9,-235.257 2126.52,-219.138 2183.87,-209.369"/>
<polygon fill="midnightblue" stroke="midnightblue" points="1971.03,-242.076 1961.76,-247.206 1972.2,-248.977 1971.03,-242.076"/>
</g>
<!-- Node42 -->
<g id="node42" class="node"><title>Node42</title>
<g id="a_node42"><a xlink:href="../../da/d15/JetInfoFamily_8cpp.html" target="_top" xlink:title="source/JetInfoFamily.cpp">
<polygon fill="white" stroke="black" points="2300.5,-190.5 2300.5,-209.5 2427.5,-209.5 2427.5,-190.5 2300.5,-190.5"/>
<text text-anchor="middle" x="2364" y="-197.5" font-family="Helvetica,sans-Serif" font-size="10.00">source/JetInfoFamily.cpp</text>
</a>
</g>
</g>
<!-- Node1&#45;&gt;Node42 -->
<g id="edge53" class="edge"><title>Node1&#45;&gt;Node42</title>
<path fill="none" stroke="midnightblue" d="M1971.98,-248.339C2045.29,-239.605 2177.78,-223.773 2291,-210 2294.04,-209.63 2297.16,-209.25 2300.3,-208.866"/>
<polygon fill="midnightblue" stroke="midnightblue" points="1971.12,-244.917 1961.61,-249.575 1971.95,-251.868 1971.12,-244.917"/>
</g>
<!-- Node43 -->
<g id="node43" class="node"><title>Node43</title>
<g id="a_node43"><a xlink:href="../../d7/d5c/JetTag_8cpp.html" target="_top" xlink:title="source/JetTag.cpp">
<polygon fill="white" stroke="black" points="2446,-190.5 2446,-209.5 2544,-209.5 2544,-190.5 2446,-190.5"/>
<text text-anchor="middle" x="2495" y="-197.5" font-family="Helvetica,sans-Serif" font-size="10.00">source/JetTag.cpp</text>
</a>
</g>
</g>
<!-- Node1&#45;&gt;Node43 -->
<g id="edge54" class="edge"><title>Node1&#45;&gt;Node43</title>
<path fill="none" stroke="midnightblue" d="M1971.77,-251.429C2067.24,-245.038 2268.07,-230.378 2437,-210 2439.93,-209.646 2442.95,-209.257 2445.98,-208.845"/>
<polygon fill="midnightblue" stroke="midnightblue" points="1971.5,-247.939 1961.75,-252.095 1971.97,-254.924 1971.5,-247.939"/>
</g>
<!-- Node44 -->
<g id="node44" class="node"><title>Node44</title>
<g id="a_node44"><a xlink:href="../../d0/d03/Particle_8cpp.html" target="_top" xlink:title="source/Particle.cpp">
<polygon fill="white" stroke="black" points="2562.5,-190.5 2562.5,-209.5 2663.5,-209.5 2663.5,-190.5 2562.5,-190.5"/>
<text text-anchor="middle" x="2613" y="-197.5" font-family="Helvetica,sans-Serif" font-size="10.00">source/Particle.cpp</text>
</a>
</g>
</g>
<!-- Node1&#45;&gt;Node44 -->
<g id="edge55" class="edge"><title>Node1&#45;&gt;Node44</title>
<path fill="none" stroke="midnightblue" d="M1971.97,-252.523C2083.01,-247.282 2338.95,-233.577 2553,-210 2556.04,-209.666 2559.15,-209.291 2562.3,-208.891"/>
<polygon fill="midnightblue" stroke="midnightblue" points="1971.51,-249.041 1961.68,-253.004 1971.84,-256.033 1971.51,-249.041"/>
</g>
<!-- Node45 -->
<g id="node45" class="node"><title>Node45</title>
<g id="a_node45"><a xlink:href="../../d7/d62/Particles_8cpp.html" target="_top" xlink:title="source/Particles.cpp">
<polygon fill="white" stroke="black" points="2682,-190.5 2682,-209.5 2788,-209.5 2788,-190.5 2682,-190.5"/>
<text text-anchor="middle" x="2735" y="-197.5" font-family="Helvetica,sans-Serif" font-size="10.00">source/Particles.cpp</text>
</a>
</g>
</g>
<!-- Node1&#45;&gt;Node45 -->
<g id="edge56" class="edge"><title>Node1&#45;&gt;Node45</title>
<path fill="none" stroke="midnightblue" d="M1971.9,-253.299C2097.5,-249.124 2411.53,-236.701 2673,-210 2675.92,-209.702 2678.92,-209.366 2681.94,-209.005"/>
<polygon fill="midnightblue" stroke="midnightblue" points="1971.64,-249.806 1961.76,-253.632 1971.87,-256.802 1971.64,-249.806"/>
</g>
<!-- Node46 -->
<g id="node46" class="node"><title>Node46</title>
<g id="a_node46"><a xlink:href="../../d5/d0f/Partons_8cpp.html" target="_top" xlink:title="source/Partons.cpp">
<polygon fill="white" stroke="black" points="2806.5,-190.5 2806.5,-209.5 2907.5,-209.5 2907.5,-190.5 2806.5,-190.5"/>
<text text-anchor="middle" x="2857" y="-197.5" font-family="Helvetica,sans-Serif" font-size="10.00">source/Partons.cpp</text>
</a>
</g>
</g>
<!-- Node1&#45;&gt;Node46 -->
<g id="edge57" class="edge"><title>Node1&#45;&gt;Node46</title>
<path fill="none" stroke="midnightblue" d="M1971.51,-254.049C2110.75,-251.256 2485.92,-241.2 2797,-210 2800.04,-209.695 2803.16,-209.344 2806.3,-208.961"/>
<polygon fill="midnightblue" stroke="midnightblue" points="1971.44,-250.55 1961.51,-254.246 1971.58,-257.549 1971.44,-250.55"/>
</g>
<!-- Node47 -->
<g id="node47" class="node"><title>Node47</title>
<g id="a_node47"><a xlink:href="../../d9/d55/Result_8cpp.html" target="_top" xlink:title="source/Result.cpp">
<polygon fill="white" stroke="black" points="2926,-190.5 2926,-209.5 3022,-209.5 3022,-190.5 2926,-190.5"/>
<text text-anchor="middle" x="2974" y="-197.5" font-family="Helvetica,sans-Serif" font-size="10.00">source/Result.cpp</text>
</a>
</g>
</g>
<!-- Node1&#45;&gt;Node47 -->
<g id="edge59" class="edge"><title>Node1&#45;&gt;Node47</title>
<path fill="none" stroke="midnightblue" d="M1971.54,-254.676C2123.35,-253.322 2557.89,-246.308 2917,-210 2919.89,-209.708 2922.86,-209.366 2925.85,-208.99"/>
<polygon fill="midnightblue" stroke="midnightblue" points="1971.5,-251.176 1961.53,-254.761 1971.56,-258.176 1971.5,-251.176"/>
</g>
<!-- Node48 -->
<g id="node48" class="node"><title>Node48</title>
<g id="a_node48"><a xlink:href="../../df/d59/Types_8cpp.html" target="_top" xlink:title="source/Types.cpp">
<polygon fill="white" stroke="black" points="3040.5,-190.5 3040.5,-209.5 3135.5,-209.5 3135.5,-190.5 3040.5,-190.5"/>
<text text-anchor="middle" x="3088" y="-197.5" font-family="Helvetica,sans-Serif" font-size="10.00">source/Types.cpp</text>
</a>
</g>
</g>
<!-- Node1&#45;&gt;Node48 -->
<g id="edge61" class="edge"><title>Node1&#45;&gt;Node48</title>
<path fill="none" stroke="midnightblue" d="M1971.81,-255.038C2135.14,-254.655 2626.1,-249.999 3031,-210 3034.09,-209.695 3037.27,-209.331 3040.47,-208.928"/>
<polygon fill="midnightblue" stroke="midnightblue" points="1971.53,-251.538 1961.54,-255.057 1971.54,-258.538 1971.53,-251.538"/>
</g>
<!-- Node49 -->
<g id="node49" class="node"><title>Node49</title>
<g id="a_node49"><a xlink:href="../../dd/d4e/Vector_8cpp.html" target="_top" xlink:title="source/Vector.cpp">
<polygon fill="white" stroke="black" points="3154,-190.5 3154,-209.5 3250,-209.5 3250,-190.5 3154,-190.5"/>
<text text-anchor="middle" x="3202" y="-197.5" font-family="Helvetica,sans-Serif" font-size="10.00">source/Vector.cpp</text>
</a>
</g>
</g>
<!-- Node1&#45;&gt;Node49 -->
<g id="edge62" class="edge"><title>Node1&#45;&gt;Node49</title>
<path fill="none" stroke="midnightblue" d="M1971.8,-255.336C2145.8,-255.874 2693.85,-253.717 3145,-210 3147.89,-209.72 3150.86,-209.388 3153.85,-209.019"/>
<polygon fill="midnightblue" stroke="midnightblue" points="1971.62,-251.835 1961.61,-255.3 1971.59,-258.835 1971.62,-251.835"/>
</g>
<!-- Node50 -->
<g id="node50" class="node"><title>Node50</title>
<g id="a_node50"><a xlink:href="../../de/de9/WimpMass_8cpp.html" target="_top" xlink:title="source/WimpMass.cpp">
<polygon fill="white" stroke="black" points="3268.5,-190.5 3268.5,-209.5 3385.5,-209.5 3385.5,-190.5 3268.5,-190.5"/>
<text text-anchor="middle" x="3327" y="-197.5" font-family="Helvetica,sans-Serif" font-size="10.00">source/WimpMass.cpp</text>
</a>
</g>
</g>
<!-- Node1&#45;&gt;Node50 -->
<g id="edge63" class="edge"><title>Node1&#45;&gt;Node50</title>
<path fill="none" stroke="midnightblue" d="M1971.85,-255.088C2156.04,-254.959 2760.95,-251.203 3259,-210 3262.09,-209.745 3265.25,-209.448 3268.43,-209.122"/>
<polygon fill="midnightblue" stroke="midnightblue" points="1971.6,-251.588 1961.6,-255.092 1971.6,-258.588 1971.6,-251.588"/>
</g>
<!-- Node6 -->
<g id="node6" class="node"><title>Node6</title>
<g id="a_node6"><a xlink:href="../../d0/d02/Analysis_8hh.html" target="_top" xlink:title="include/Analysis.hh">
<polygon fill="white" stroke="black" points="1656.5,-134.5 1656.5,-153.5 1757.5,-153.5 1757.5,-134.5 1656.5,-134.5"/>
<text text-anchor="middle" x="1707" y="-141.5" font-family="Helvetica,sans-Serif" font-size="10.00">include/Analysis.hh</text>
</a>
</g>
</g>
<!-- Node5&#45;&gt;Node6 -->
<g id="edge5" class="edge"><title>Node5&#45;&gt;Node6</title>
<path fill="none" stroke="midnightblue" d="M1555.97,-187.699C1592.02,-177.507 1644.24,-162.743 1676.88,-153.516"/>
<polygon fill="midnightblue" stroke="midnightblue" points="1554.94,-184.355 1546.26,-190.444 1556.84,-191.091 1554.94,-184.355"/>
</g>
<!-- Node12 -->
<g id="node12" class="node"><title>Node12</title>
<g id="a_node12"><a xlink:href="../../d4/d34/Selector_8hh.html" target="_top" xlink:title="include/Selector.hh">
<polygon fill="white" stroke="black" points="1776,-134.5 1776,-153.5 1876,-153.5 1876,-134.5 1776,-134.5"/>
<text text-anchor="middle" x="1826" y="-141.5" font-family="Helvetica,sans-Serif" font-size="10.00">include/Selector.hh</text>
</a>
</g>
</g>
<!-- Node5&#45;&gt;Node12 -->
<g id="edge12" class="edge"><title>Node5&#45;&gt;Node12</title>
<path fill="none" stroke="midnightblue" d="M1575.34,-188.664C1633.92,-178.459 1722.45,-163.039 1777.11,-153.516"/>
<polygon fill="midnightblue" stroke="midnightblue" points="1574.37,-185.279 1565.12,-190.444 1575.57,-192.175 1574.37,-185.279"/>
</g>
<!-- Node14 -->
<g id="node14" class="node"><title>Node14</title>
<g id="a_node14"><a xlink:href="../../db/db5/TaggerTemplate_8hh.html" target="_top" xlink:title="include/TaggerTemplate.hh">
<polygon fill="white" stroke="red" points="1894,-134.5 1894,-153.5 2028,-153.5 2028,-134.5 1894,-134.5"/>
<text text-anchor="middle" x="1961" y="-141.5" font-family="Helvetica,sans-Serif" font-size="10.00">include/TaggerTemplate.hh</text>
</a>
</g>
</g>
<!-- Node5&#45;&gt;Node14 -->
<g id="edge14" class="edge"><title>Node5&#45;&gt;Node14</title>
<path fill="none" stroke="midnightblue" d="M1596.64,-189.215C1681.67,-178.896 1814.12,-162.823 1893.73,-153.163"/>
<polygon fill="midnightblue" stroke="midnightblue" points="1596.02,-185.764 1586.51,-190.444 1596.86,-192.713 1596.02,-185.764"/>
</g>
<!-- Node20 -->
<g id="node20" class="node"><title>Node20</title>
<g id="a_node20"><a xlink:href="../../d5/d96/Trainer_8hh.html" target="_top" xlink:title="include/Trainer.hh">
<polygon fill="white" stroke="red" points="1544,-134.5 1544,-153.5 1638,-153.5 1638,-134.5 1544,-134.5"/>
<text text-anchor="middle" x="1591" y="-141.5" font-family="Helvetica,sans-Serif" font-size="10.00">include/Trainer.hh</text>
</a>
</g>
</g>
<!-- Node5&#45;&gt;Node20 -->
<g id="edge23" class="edge"><title>Node5&#45;&gt;Node20</title>
<path fill="none" stroke="midnightblue" d="M1536.31,-184.38C1549.86,-174.62 1567.24,-162.106 1578.73,-153.834"/>
<polygon fill="midnightblue" stroke="midnightblue" points="1534.12,-181.641 1528.05,-190.324 1538.21,-187.321 1534.12,-181.641"/>
</g>
<!-- Node5&#45;&gt;Node21 -->
<g id="edge34" class="edge"><title>Node5&#45;&gt;Node21</title>
<path fill="none" stroke="midnightblue" d="M1515.59,-179.979C1514.17,-165.041 1509.62,-144.988 1496,-134 1422.92,-75.0459 1167.62,-113.436 1075,-98 1065.89,-96.4814 1056.1,-94.2662 1047.21,-92.0222"/>
<polygon fill="midnightblue" stroke="midnightblue" points="1512.11,-180.383 1516.17,-190.171 1519.1,-179.99 1512.11,-180.383"/>
</g>
<!-- Node22 -->
<g id="node22" class="node"><title>Node22</title>
<g id="a_node22"><a xlink:href="../../db/d0e/TreeReaderArray_8hh.html" target="_top" xlink:title="include/TreeReaderArray.hh">
<polygon fill="white" stroke="black" points="950,-134.5 950,-153.5 1088,-153.5 1088,-134.5 950,-134.5"/>
<text text-anchor="middle" x="1019" y="-141.5" font-family="Helvetica,sans-Serif" font-size="10.00">include/TreeReaderArray.hh</text>
</a>
</g>
</g>
<!-- Node5&#45;&gt;Node22 -->
<g id="edge25" class="edge"><title>Node5&#45;&gt;Node22</title>
<path fill="none" stroke="midnightblue" d="M1424.75,-189.409C1339.85,-180.437 1209.84,-166.569 1097,-154 1094.15,-153.683 1091.25,-153.358 1088.32,-153.027"/>
<polygon fill="midnightblue" stroke="midnightblue" points="1424.56,-192.909 1434.87,-190.479 1425.29,-185.947 1424.56,-192.909"/>
</g>
<!-- Node23 -->
<g id="node23" class="node"><title>Node23</title>
<g id="a_node23"><a xlink:href="../../d1/d24/Trees_8hh.html" target="_top" xlink:title="include/Trees.hh">
<polygon fill="white" stroke="red" points="509.5,-73 509.5,-92 598.5,-92 598.5,-73 509.5,-73"/>
<text text-anchor="middle" x="554" y="-80" font-family="Helvetica,sans-Serif" font-size="10.00">include/Trees.hh</text>
</a>
</g>
</g>
<!-- Node5&#45;&gt;Node23 -->
<g id="edge26" class="edge"><title>Node5&#45;&gt;Node23</title>
<path fill="none" stroke="midnightblue" d="M1423.74,-198.859C1301.06,-197.196 1077.95,-189.022 891,-154 861.291,-148.435 855.352,-141.215 826,-134 746.711,-114.51 652.781,-98.6354 598.62,-90.1696"/>
<polygon fill="midnightblue" stroke="midnightblue" points="1423.8,-202.36 1433.84,-198.984 1423.89,-195.361 1423.8,-202.36"/>
</g>
<!-- Node24 -->
<g id="node24" class="node"><title>Node24</title>
<g id="a_node24"><a xlink:href="../../d6/da6/ClonesArrays_8cpp.html" target="_top" xlink:title="source/ClonesArrays.cpp">
<polygon fill="white" stroke="black" points="1106.5,-134.5 1106.5,-153.5 1233.5,-153.5 1233.5,-134.5 1106.5,-134.5"/>
<text text-anchor="middle" x="1170" y="-141.5" font-family="Helvetica,sans-Serif" font-size="10.00">source/ClonesArrays.cpp</text>
</a>
</g>
</g>
<!-- Node5&#45;&gt;Node24 -->
<g id="edge27" class="edge"><title>Node5&#45;&gt;Node24</title>
<path fill="none" stroke="midnightblue" d="M1450.99,-188.854C1385.62,-178.651 1285.96,-163.098 1224.57,-153.516"/>
<polygon fill="midnightblue" stroke="midnightblue" points="1450.76,-192.36 1461.18,-190.444 1451.83,-185.443 1450.76,-192.36"/>
</g>
<!-- Node25 -->
<g id="node25" class="node"><title>Node25</title>
<g id="a_node25"><a xlink:href="../../d2/deb/exroot_2Hadrons_8cpp.html" target="_top" xlink:title="source/exroot/Hadrons.cpp">
<polygon fill="white" stroke="black" points="751,-73 751,-92 885,-92 885,-73 751,-73"/>
<text text-anchor="middle" x="818" y="-80" font-family="Helvetica,sans-Serif" font-size="10.00">source/exroot/Hadrons.cpp</text>
</a>
</g>
</g>
<!-- Node5&#45;&gt;Node25 -->
<g id="edge28" class="edge"><title>Node5&#45;&gt;Node25</title>
<path fill="none" stroke="midnightblue" d="M1423.58,-196.694C1284.54,-192.391 1028.51,-181.001 941,-154 896.079,-140.14 849.72,-107.717 829.074,-92.1464"/>
<polygon fill="midnightblue" stroke="midnightblue" points="1423.69,-200.198 1433.79,-197.003 1423.9,-193.202 1423.69,-200.198"/>
</g>
<!-- Node5&#45;&gt;Node26 -->
<g id="edge29" class="edge"><title>Node5&#45;&gt;Node26</title>
<path fill="none" stroke="midnightblue" d="M1608.18,-190.342C1609.46,-190.227 1610.73,-190.113 1612,-190 1800.82,-173.153 1848.42,-173.296 2037,-154 2039.87,-153.706 2042.8,-153.397 2045.76,-153.076"/>
<polygon fill="midnightblue" stroke="midnightblue" points="1607.86,-186.857 1598.21,-191.243 1608.49,-193.828 1607.86,-186.857"/>
</g>
<!-- Node5&#45;&gt;Node27 -->
<g id="edge30" class="edge"><title>Node5&#45;&gt;Node27</title>
<path fill="none" stroke="midnightblue" d="M1608.31,-192.798C1622.28,-191.86 1636.52,-190.904 1650,-190 1888.67,-173.985 1948.84,-176.258 2187,-154 2190,-153.719 2193.07,-153.416 2196.17,-153.098"/>
<polygon fill="midnightblue" stroke="midnightblue" points="1607.95,-189.315 1598.2,-193.477 1608.42,-196.299 1607.95,-189.315"/>
</g>
<!-- Node5&#45;&gt;Node28 -->
<g id="edge31" class="edge"><title>Node5&#45;&gt;Node28</title>
<path fill="none" stroke="midnightblue" d="M1608.51,-194.125C1815.62,-183.185 2301.3,-157.371 2337,-154 2339.92,-153.724 2342.91,-153.416 2345.93,-153.086"/>
<polygon fill="midnightblue" stroke="midnightblue" points="1608.07,-190.644 1598.27,-194.666 1608.44,-197.634 1608.07,-190.644"/>
</g>
<!-- Node5&#45;&gt;Node29 -->
<g id="edge32" class="edge"><title>Node5&#45;&gt;Node29</title>
<path fill="none" stroke="midnightblue" d="M1608.47,-194.898C1839.89,-184.597 2428.6,-158.168 2471,-154 2474.04,-153.701 2477.16,-153.355 2480.31,-152.975"/>
<polygon fill="midnightblue" stroke="midnightblue" points="1608.22,-191.405 1598.39,-195.346 1608.54,-198.398 1608.22,-191.405"/>
</g>
<!-- Node30 -->
<g id="node30" class="node"><title>Node30</title>
<g id="a_node30"><a xlink:href="../../d2/d35/Tagger_8cpp.html" target="_top" xlink:title="source/Tagger.cpp">
<polygon fill="white" stroke="black" points="1252,-134.5 1252,-153.5 1350,-153.5 1350,-134.5 1252,-134.5"/>
<text text-anchor="middle" x="1301" y="-141.5" font-family="Helvetica,sans-Serif" font-size="10.00">source/Tagger.cpp</text>
</a>
</g>
</g>
<!-- Node5&#45;&gt;Node30 -->
<g id="edge33" class="edge"><title>Node5&#45;&gt;Node30</title>
<path fill="none" stroke="midnightblue" d="M1472.04,-187.959C1431.43,-177.76 1371.96,-162.822 1334.91,-153.516"/>
<polygon fill="midnightblue" stroke="midnightblue" points="1471.38,-191.402 1481.93,-190.444 1473.09,-184.613 1471.38,-191.402"/>
</g>
<!-- Node31 -->
<g id="node31" class="node"><title>Node31</title>
<g id="a_node31"><a xlink:href="../../d3/da7/TreeReader_8cpp.html" target="_top" xlink:title="source/TreeReader.cpp">
<polygon fill="white" stroke="black" points="1368.5,-134.5 1368.5,-153.5 1487.5,-153.5 1487.5,-134.5 1368.5,-134.5"/>
<text text-anchor="middle" x="1428" y="-141.5" font-family="Helvetica,sans-Serif" font-size="10.00">source/TreeReader.cpp</text>
</a>
</g>
</g>
<!-- Node5&#45;&gt;Node31 -->
<g id="edge35" class="edge"><title>Node5&#45;&gt;Node31</title>
<path fill="none" stroke="midnightblue" d="M1493.02,-184.901C1476.89,-174.999 1455.82,-162.071 1442.1,-153.655"/>
<polygon fill="midnightblue" stroke="midnightblue" points="1491.51,-188.077 1501.86,-190.324 1495.17,-182.111 1491.51,-188.077"/>
</g>
<!-- Node7 -->
<g id="node7" class="node"><title>Node7</title>
<g id="a_node7"><a xlink:href="../../d7/d26/AnalysisHeavyHiggs_8hh.html" target="_top" xlink:title="HeavyHiggs/include\l/AnalysisHeavyHiggs.hh">
<polygon fill="white" stroke="red" points="1373.5,-67.5 1373.5,-97.5 1498.5,-97.5 1498.5,-67.5 1373.5,-67.5"/>
<text text-anchor="start" x="1381.5" y="-85.5" font-family="Helvetica,sans-Serif" font-size="10.00">HeavyHiggs/include</text>
<text text-anchor="middle" x="1436" y="-74.5" font-family="Helvetica,sans-Serif" font-size="10.00">/AnalysisHeavyHiggs.hh</text>
</a>
</g>
</g>
<!-- Node6&#45;&gt;Node7 -->
<g id="edge6" class="edge"><title>Node6&#45;&gt;Node7</title>
<path fill="none" stroke="midnightblue" d="M1658.14,-132.273C1613.46,-122.462 1547.12,-107.896 1498.57,-97.2372"/>
<polygon fill="midnightblue" stroke="midnightblue" points="1657.65,-135.749 1668.17,-134.475 1659.16,-128.912 1657.65,-135.749"/>
</g>
<!-- Node8 -->
<g id="node8" class="node"><title>Node8</title>
<g id="a_node8"><a xlink:href="../../d8/d92/AnalysisPair_8hh.html" target="_top" xlink:title="HeavyHiggs/include\l/AnalysisPair.hh">
<polygon fill="white" stroke="red" points="1517,-67.5 1517,-97.5 1621,-97.5 1621,-67.5 1517,-67.5"/>
<text text-anchor="start" x="1525" y="-85.5" font-family="Helvetica,sans-Serif" font-size="10.00">HeavyHiggs/include</text>
<text text-anchor="middle" x="1569" y="-74.5" font-family="Helvetica,sans-Serif" font-size="10.00">/AnalysisPair.hh</text>
</a>
</g>
</g>
<!-- Node6&#45;&gt;Node8 -->
<g id="edge7" class="edge"><title>Node6&#45;&gt;Node8</title>
<path fill="none" stroke="midnightblue" d="M1677.92,-130.461C1655.56,-120.823 1624.69,-107.513 1601.52,-97.523"/>
<polygon fill="midnightblue" stroke="midnightblue" points="1676.66,-133.73 1687.23,-134.475 1679.43,-127.302 1676.66,-133.73"/>
</g>
<!-- Node9 -->
<g id="node9" class="node"><title>Node9</title>
<g id="a_node9"><a xlink:href="../../dc/d70/AnalysisHiggsCpv_8hh.html" target="_top" xlink:title="HiggsCpv/include/Analysis\lHiggsCpv.hh">
<polygon fill="white" stroke="black" points="1084,-67.5 1084,-97.5 1218,-97.5 1218,-67.5 1084,-67.5"/>
<text text-anchor="start" x="1092" y="-85.5" font-family="Helvetica,sans-Serif" font-size="10.00">HiggsCpv/include/Analysis</text>
<text text-anchor="middle" x="1151" y="-74.5" font-family="Helvetica,sans-Serif" font-size="10.00">HiggsCpv.hh</text>
</a>
</g>
</g>
<!-- Node6&#45;&gt;Node9 -->
<g id="edge8" class="edge"><title>Node6&#45;&gt;Node9</title>
<path fill="none" stroke="midnightblue" d="M1646.12,-133.978C1459.19,-112.486 1409.33,-123.14 1227,-98 1224.07,-97.5964 1221.09,-97.155 1218.07,-96.6854"/>
<polygon fill="midnightblue" stroke="midnightblue" points="1645.95,-137.482 1656.29,-135.163 1646.76,-130.529 1645.95,-137.482"/>
</g>
<!-- Node10 -->
<g id="node10" class="node"><title>Node10</title>
<g id="a_node10"><a xlink:href="../../df/d04/AnalysisStandardModel_8hh.html" target="_top" xlink:title="StandardModel/include\l/AnalysisStandardModel.hh">
<polygon fill="white" stroke="red" points="1639,-67.5 1639,-97.5 1775,-97.5 1775,-67.5 1639,-67.5"/>
<text text-anchor="start" x="1647" y="-85.5" font-family="Helvetica,sans-Serif" font-size="10.00">StandardModel/include</text>
<text text-anchor="middle" x="1707" y="-74.5" font-family="Helvetica,sans-Serif" font-size="10.00">/AnalysisStandardModel.hh</text>
</a>
</g>
</g>
<!-- Node6&#45;&gt;Node10 -->
<g id="edge10" class="edge"><title>Node6&#45;&gt;Node10</title>
<path fill="none" stroke="midnightblue" d="M1707,-124.235C1707,-115.586 1707,-105.497 1707,-97.523"/>
<polygon fill="midnightblue" stroke="midnightblue" points="1703.5,-124.475 1707,-134.475 1710.5,-124.475 1703.5,-124.475"/>
</g>
<!-- Node11 -->
<g id="node11" class="node"><title>Node11</title>
<g id="a_node11"><a xlink:href="../../d4/df2/AnalysisTopPartner_8hh.html" target="_top" xlink:title="TopPartner/include\l/AnalysisTopPartner.hh">
<polygon fill="white" stroke="red" points="1236.5,-67.5 1236.5,-97.5 1355.5,-97.5 1355.5,-67.5 1236.5,-67.5"/>
<text text-anchor="start" x="1244.5" y="-85.5" font-family="Helvetica,sans-Serif" font-size="10.00">TopPartner/include</text>
<text text-anchor="middle" x="1296" y="-74.5" font-family="Helvetica,sans-Serif" font-size="10.00">/AnalysisTopPartner.hh</text>
</a>
</g>
</g>
<!-- Node6&#45;&gt;Node11 -->
<g id="edge11" class="edge"><title>Node6&#45;&gt;Node11</title>
<path fill="none" stroke="midnightblue" d="M1646.19,-133.924C1519.7,-116.714 1485.83,-118.7 1364,-98 1361.26,-97.5349 1358.47,-97.0364 1355.65,-96.5141"/>
<polygon fill="midnightblue" stroke="midnightblue" points="1645.89,-137.415 1656.27,-135.309 1646.84,-130.48 1645.89,-137.415"/>
</g>
<!-- Node9&#45;&gt;Node3 -->
<g id="edge9" class="edge"><title>Node9&#45;&gt;Node3</title>
<path fill="none" stroke="midnightblue" d="M1088.21,-64.9102C1040.04,-52.1803 975.497,-35.1273 937.278,-25.0287"/>
<polygon fill="midnightblue" stroke="midnightblue" points="1087.36,-68.3052 1097.92,-67.476 1089.15,-61.5374 1087.36,-68.3052"/>
</g>
<!-- Node13 -->
<g id="node13" class="node"><title>Node13</title>
<g id="a_node13"><a xlink:href="../../de/d6d/Selector_8cpp.html" target="_top" xlink:title="source/Selector.cpp">
<polygon fill="white" stroke="black" points="1793,-73 1793,-92 1897,-92 1897,-73 1793,-73"/>
<text text-anchor="middle" x="1845" y="-80" font-family="Helvetica,sans-Serif" font-size="10.00">source/Selector.cpp</text>
</a>
</g>
</g>
<!-- Node12&#45;&gt;Node13 -->
<g id="edge13" class="edge"><title>Node12&#45;&gt;Node13</title>
<path fill="none" stroke="midnightblue" d="M1831.86,-124.657C1835.33,-113.772 1839.58,-100.486 1842.28,-92.0091"/>
<polygon fill="midnightblue" stroke="midnightblue" points="1828.43,-123.884 1828.72,-134.475 1835.1,-126.014 1828.43,-123.884"/>
</g>
<!-- Node15 -->
<g id="node15" class="node"><title>Node15</title>
<g id="a_node15"><a xlink:href="../../d7/da1/JetPairTagger_8hh.html" target="_top" xlink:title="HeavyHiggs/include\l/JetPairTagger.hh">
<polygon fill="white" stroke="red" points="2194,-0.5 2194,-30.5 2298,-30.5 2298,-0.5 2194,-0.5"/>
<text text-anchor="start" x="2202" y="-18.5" font-family="Helvetica,sans-Serif" font-size="10.00">HeavyHiggs/include</text>
<text text-anchor="middle" x="2246" y="-7.5" font-family="Helvetica,sans-Serif" font-size="10.00">/JetPairTagger.hh</text>
</a>
</g>
</g>
<!-- Node14&#45;&gt;Node15 -->
<g id="edge15" class="edge"><title>Node14&#45;&gt;Node15</title>
<path fill="none" stroke="midnightblue" d="M2037.98,-133.515C2121.23,-122.885 2243.08,-106.084 2250,-98 2265.94,-79.3849 2258.51,-48.7099 2252.02,-30.7758"/>
<polygon fill="midnightblue" stroke="midnightblue" points="2037.51,-130.046 2028.03,-134.779 2038.39,-136.99 2037.51,-130.046"/>
</g>
<!-- Node16 -->
<g id="node16" class="node"><title>Node16</title>
<g id="a_node16"><a xlink:href="../../de/dbb/BottomTagger_8hh.html" target="_top" xlink:title="StandardModel/include\l/BottomTagger.hh">
<polygon fill="white" stroke="red" points="1953,-67.5 1953,-97.5 2069,-97.5 2069,-67.5 1953,-67.5"/>
<text text-anchor="start" x="1961" y="-85.5" font-family="Helvetica,sans-Serif" font-size="10.00">StandardModel/include</text>
<text text-anchor="middle" x="2011" y="-74.5" font-family="Helvetica,sans-Serif" font-size="10.00">/BottomTagger.hh</text>
</a>
</g>
</g>
<!-- Node14&#45;&gt;Node16 -->
<g id="edge16" class="edge"><title>Node14&#45;&gt;Node16</title>
<path fill="none" stroke="midnightblue" d="M1974.6,-126.811C1982.3,-117.649 1991.84,-106.303 1999.22,-97.523"/>
<polygon fill="midnightblue" stroke="midnightblue" points="1971.92,-124.568 1968.16,-134.475 1977.28,-129.071 1971.92,-124.568"/>
</g>
<!-- Node17 -->
<g id="node17" class="node"><title>Node17</title>
<g id="a_node17"><a xlink:href="../../db/d94/WHadronicTagger_8hh.html" target="_top" xlink:title="StandardModel/include\l/WHadronicTagger.hh">
<polygon fill="white" stroke="red" points="2029,-0.5 2029,-30.5 2145,-30.5 2145,-0.5 2029,-0.5"/>
<text text-anchor="start" x="2037" y="-18.5" font-family="Helvetica,sans-Serif" font-size="10.00">StandardModel/include</text>
<text text-anchor="middle" x="2087" y="-7.5" font-family="Helvetica,sans-Serif" font-size="10.00">/WHadronicTagger.hh</text>
</a>
</g>
</g>
<!-- Node14&#45;&gt;Node17 -->
<g id="edge20" class="edge"><title>Node14&#45;&gt;Node17</title>
<path fill="none" stroke="midnightblue" d="M2026.67,-131.411C2046.03,-124.782 2065.38,-114.366 2078,-98 2092.95,-78.6093 2091.87,-48.4845 2089.56,-30.8027"/>
<polygon fill="midnightblue" stroke="midnightblue" points="2025.4,-128.141 2016.89,-134.457 2027.48,-134.825 2025.4,-128.141"/>
</g>
<!-- Node18 -->
<g id="node18" class="node"><title>Node18</title>
<g id="a_node18"><a xlink:href="../../d8/daf/ZHadronicTagger_8hh.html" target="_top" xlink:title="StandardModel/include\l/ZHadronicTagger.hh">
<polygon fill="white" stroke="red" points="1876,-0.5 1876,-30.5 1992,-30.5 1992,-0.5 1876,-0.5"/>
<text text-anchor="start" x="1884" y="-18.5" font-family="Helvetica,sans-Serif" font-size="10.00">StandardModel/include</text>
<text text-anchor="middle" x="1934" y="-7.5" font-family="Helvetica,sans-Serif" font-size="10.00">/ZHadronicTagger.hh</text>
</a>
</g>
</g>
<!-- Node14&#45;&gt;Node18 -->
<g id="edge22" class="edge"><title>Node14&#45;&gt;Node18</title>
<path fill="none" stroke="midnightblue" d="M1952.97,-124.761C1949.72,-116.7 1946.22,-107.021 1944,-98 1938.27,-74.7467 1935.75,-46.9143 1934.7,-30.5271"/>
<polygon fill="midnightblue" stroke="midnightblue" points="1949.86,-126.382 1956.97,-134.235 1956.31,-123.661 1949.86,-126.382"/>
</g>
<!-- Node19 -->
<g id="node19" class="node"><title>Node19</title>
<g id="a_node19"><a xlink:href="../../d2/dd8/WLeptonicTagger_8hh.html" target="_top" xlink:title="StandardModel/include\l/WLeptonicTagger.hh">
<polygon fill="white" stroke="red" points="2125,-67.5 2125,-97.5 2241,-97.5 2241,-67.5 2125,-67.5"/>
<text text-anchor="start" x="2133" y="-85.5" font-family="Helvetica,sans-Serif" font-size="10.00">StandardModel/include</text>
<text text-anchor="middle" x="2183" y="-74.5" font-family="Helvetica,sans-Serif" font-size="10.00">/WLeptonicTagger.hh</text>
</a>
</g>
</g>
<!-- Node14&#45;&gt;Node19 -->
<g id="edge21" class="edge"><title>Node14&#45;&gt;Node19</title>
<path fill="none" stroke="midnightblue" d="M2002.57,-131.859C2038.81,-122.144 2091.57,-108.006 2130.68,-97.523"/>
<polygon fill="midnightblue" stroke="midnightblue" points="2001.56,-128.506 1992.81,-134.475 2003.37,-135.267 2001.56,-128.506"/>
</g>
<!-- Node16&#45;&gt;Node15 -->
<g id="edge17" class="edge"><title>Node16&#45;&gt;Node15</title>
<path fill="none" stroke="midnightblue" d="M2071.68,-64.7149C2109.93,-54.1373 2158.74,-40.6348 2194.98,-30.6109"/>
<polygon fill="midnightblue" stroke="midnightblue" points="2070.41,-61.4367 2061.7,-67.476 2072.27,-68.1834 2070.41,-61.4367"/>
</g>
<!-- Node16&#45;&gt;Node17 -->
<g id="edge18" class="edge"><title>Node16&#45;&gt;Node17</title>
<path fill="none" stroke="midnightblue" d="M2035.11,-60.8832C2046.66,-51.0054 2060.19,-39.4293 2070.54,-30.5765"/>
<polygon fill="midnightblue" stroke="midnightblue" points="2032.82,-58.2364 2027.49,-67.396 2037.37,-63.5561 2032.82,-58.2364"/>
</g>
<!-- Node16&#45;&gt;Node18 -->
<g id="edge19" class="edge"><title>Node16&#45;&gt;Node18</title>
<path fill="none" stroke="midnightblue" d="M1986.58,-60.8832C1974.88,-51.0054 1961.16,-39.4293 1950.68,-30.5765"/>
<polygon fill="midnightblue" stroke="midnightblue" points="1984.39,-63.6199 1994.29,-67.396 1988.91,-58.2709 1984.39,-63.6199"/>
</g>
<!-- Node20&#45;&gt;Node21 -->
<g id="edge24" class="edge"><title>Node20&#45;&gt;Node21</title>
<path fill="none" stroke="midnightblue" d="M1533.81,-134.444C1532.53,-134.291 1531.26,-134.142 1530,-134 1328.43,-111.183 1275.2,-130.712 1075,-98 1065.88,-96.5103 1056.1,-94.3039 1047.2,-92.0592"/>
<polygon fill="midnightblue" stroke="midnightblue" points="1533.39,-137.919 1543.75,-135.707 1534.27,-130.975 1533.39,-137.919"/>
</g>
<!-- Node33 -->
<g id="node33" class="node"><title>Node33</title>
<g id="a_node33"><a xlink:href="../../d5/df2/Event_8hh.html" target="_top" xlink:title="include/Event.hh">
<polygon fill="white" stroke="red" points="263.5,-134.5 263.5,-153.5 352.5,-153.5 352.5,-134.5 263.5,-134.5"/>
<text text-anchor="middle" x="308" y="-141.5" font-family="Helvetica,sans-Serif" font-size="10.00">include/Event.hh</text>
</a>
</g>
</g>
<!-- Node32&#45;&gt;Node33 -->
<g id="edge37" class="edge"><title>Node32&#45;&gt;Node33</title>
<path fill="none" stroke="midnightblue" d="M525.367,-188.473C474.339,-178.268 397.897,-162.979 350.582,-153.516"/>
<polygon fill="midnightblue" stroke="midnightblue" points="524.725,-191.914 535.218,-190.444 526.098,-185.05 524.725,-191.914"/>
</g>
<!-- Node35 -->
<g id="node35" class="node"><title>Node35</title>
<g id="a_node35"><a xlink:href="../../df/d30/delphes_2Hadrons_8hh.html" target="_top" xlink:title="include/delphes/Hadrons.hh">
<polygon fill="white" stroke="red" points="370.5,-134.5 370.5,-153.5 507.5,-153.5 507.5,-134.5 370.5,-134.5"/>
<text text-anchor="middle" x="439" y="-141.5" font-family="Helvetica,sans-Serif" font-size="10.00">include/delphes/Hadrons.hh</text>
</a>
</g>
</g>
<!-- Node32&#45;&gt;Node35 -->
<g id="edge42" class="edge"><title>Node32&#45;&gt;Node35</title>
<path fill="none" stroke="midnightblue" d="M546.524,-186.772C520.415,-176.629 483.961,-162.467 460.922,-153.516"/>
<polygon fill="midnightblue" stroke="midnightblue" points="545.386,-190.085 555.975,-190.444 547.921,-183.56 545.386,-190.085"/>
</g>
<!-- Node36 -->
<g id="node36" class="node"><title>Node36</title>
<g id="a_node36"><a xlink:href="../../d2/d21/exroot_2Hadrons_8hh.html" target="_top" xlink:title="include/exroot/Hadrons.hh">
<polygon fill="white" stroke="red" points="686.5,-134.5 686.5,-153.5 817.5,-153.5 817.5,-134.5 686.5,-134.5"/>
<text text-anchor="middle" x="752" y="-141.5" font-family="Helvetica,sans-Serif" font-size="10.00">include/exroot/Hadrons.hh</text>
</a>
</g>
</g>
<!-- Node32&#45;&gt;Node36 -->
<g id="edge43" class="edge"><title>Node32&#45;&gt;Node36</title>
<path fill="none" stroke="midnightblue" d="M615.261,-187.436C648.067,-177.255 695.083,-162.664 724.558,-153.516"/>
<polygon fill="midnightblue" stroke="midnightblue" points="614.084,-184.137 605.571,-190.444 616.159,-190.822 614.084,-184.137"/>
</g>
<!-- Node37 -->
<g id="node37" class="node"><title>Node37</title>
<g id="a_node37"><a xlink:href="../../de/dba/Hadrons_8cpp.html" target="_top" xlink:title="source/Hadrons.cpp">
<polygon fill="white" stroke="black" points="526,-134.5 526,-153.5 630,-153.5 630,-134.5 526,-134.5"/>
<text text-anchor="middle" x="578" y="-141.5" font-family="Helvetica,sans-Serif" font-size="10.00">source/Hadrons.cpp</text>
</a>
</g>
</g>
<!-- Node32&#45;&gt;Node37 -->
<g id="edge45" class="edge"><title>Node32&#45;&gt;Node37</title>
<path fill="none" stroke="midnightblue" d="M578,-179.805C578,-170.91 578,-160.78 578,-153.751"/>
<polygon fill="midnightblue" stroke="midnightblue" points="574.5,-180.083 578,-190.083 581.5,-180.083 574.5,-180.083"/>
</g>
<!-- Node33&#45;&gt;Node2 -->
<g id="edge38" class="edge"><title>Node33&#45;&gt;Node2</title>
<path fill="none" stroke="midnightblue" d="M265.309,-131.859C228.082,-122.144 173.903,-108.006 133.735,-97.523"/>
<polygon fill="midnightblue" stroke="midnightblue" points="264.773,-135.337 275.333,-134.475 266.541,-128.563 264.773,-135.337"/>
</g>
<!-- Node33&#45;&gt;Node4 -->
<g id="edge39" class="edge"><title>Node33&#45;&gt;Node4</title>
<path fill="none" stroke="midnightblue" d="M293.294,-127.091C284.78,-117.88 274.161,-106.393 265.962,-97.523"/>
<polygon fill="midnightblue" stroke="midnightblue" points="290.762,-129.508 300.12,-134.475 295.902,-124.756 290.762,-129.508"/>
</g>
<!-- Node33&#45;&gt;Node23 -->
<g id="edge40" class="edge"><title>Node33&#45;&gt;Node23</title>
<path fill="none" stroke="midnightblue" d="M353.009,-132.114C400.755,-120.565 475.191,-102.561 518.82,-92.0091"/>
<polygon fill="midnightblue" stroke="midnightblue" points="352.143,-128.722 343.246,-134.475 353.788,-135.526 352.143,-128.722"/>
</g>
<!-- Node33&#45;&gt;Node34 -->
<g id="edge41" class="edge"><title>Node33&#45;&gt;Node34</title>
<path fill="none" stroke="midnightblue" d="M330.34,-129.008C345.492,-119.518 365.447,-107.02 380.61,-97.523"/>
<polygon fill="midnightblue" stroke="midnightblue" points="328.228,-126.201 321.611,-134.475 331.944,-132.133 328.228,-126.201"/>
</g>
<!-- Node36&#45;&gt;Node25 -->
<g id="edge44" class="edge"><title>Node36&#45;&gt;Node25</title>
<path fill="none" stroke="midnightblue" d="M769.027,-127.65C781.61,-116.306 798.276,-101.281 808.561,-92.0091"/>
<polygon fill="midnightblue" stroke="midnightblue" points="766.54,-125.18 761.456,-134.475 771.227,-130.379 766.54,-125.18"/>
</g>
</g>
</svg>
