<?xml version="1.0" encoding="UTF-8" standalone="no"?>
<!DOCTYPE svg PUBLIC "-//W3C//DTD SVG 1.1//EN"
 "http://www.w3.org/Graphics/SVG/1.1/DTD/svg11.dtd">
<!-- Generated by graphviz version 2.38.0 (20140413.2041)
 -->
<!-- Title: include/JetTag.hh Pages: 1 -->
<svg width="106pt" height="84pt"
 viewBox="0.00 0.00 106.00 84.00" xmlns="http://www.w3.org/2000/svg" xmlns:xlink="http://www.w3.org/1999/xlink">
<g id="graph0" class="graph" transform="scale(1 1) rotate(0) translate(4 80)">
<title>include/JetTag.hh</title>
<polygon fill="white" stroke="none" points="-4,4 -4,-80 102,-80 102,4 -4,4"/>
<!-- Node1 -->
<g id="node1" class="node"><title>Node1</title>
<polygon fill="#bfbfbf" stroke="black" points="2,-56.5 2,-75.5 96,-75.5 96,-56.5 2,-56.5"/>
<text text-anchor="middle" x="49" y="-63.5" font-family="Helvetica,sans-Serif" font-size="10.00">include/JetTag.hh</text>
</g>
<!-- Node2 -->
<g id="node2" class="node"><title>Node2</title>
<g id="a_node2"><a xlink:href="../../d7/d5c/JetTag_8cpp.html" target="_top" xlink:title="source/JetTag.cpp">
<polygon fill="white" stroke="black" points="-7.10543e-15,-0.5 -7.10543e-15,-19.5 98,-19.5 98,-0.5 -7.10543e-15,-0.5"/>
<text text-anchor="middle" x="49" y="-7.5" font-family="Helvetica,sans-Serif" font-size="10.00">source/JetTag.cpp</text>
</a>
</g>
</g>
<!-- Node1&#45;&gt;Node2 -->
<g id="edge1" class="edge"><title>Node1&#45;&gt;Node2</title>
<path fill="none" stroke="midnightblue" d="M49,-45.8045C49,-36.9102 49,-26.7798 49,-19.7511"/>
<polygon fill="midnightblue" stroke="midnightblue" points="45.5001,-46.083 49,-56.083 52.5001,-46.083 45.5001,-46.083"/>
</g>
</g>
</svg>
