<?xml version="1.0" encoding="UTF-8" standalone="no"?>
<!DOCTYPE svg PUBLIC "-//W3C//DTD SVG 1.1//EN"
 "http://www.w3.org/Graphics/SVG/1.1/DTD/svg11.dtd">
<!-- Generated by graphviz version 2.38.0 (20140413.2041)
 -->
<!-- Title: source/DetectorGeometry.cpp Pages: 1 -->
<svg width="1021pt" height="341pt"
 viewBox="0.00 0.00 1020.50 341.00" xmlns="http://www.w3.org/2000/svg" xmlns:xlink="http://www.w3.org/1999/xlink">
<g id="graph0" class="graph" transform="scale(1 1) rotate(0) translate(4 337)">
<title>source/DetectorGeometry.cpp</title>
<polygon fill="white" stroke="none" points="-4,4 -4,-337 1016.5,-337 1016.5,4 -4,4"/>
<!-- Node1 -->
<g id="node1" class="node"><title>Node1</title>
<polygon fill="#bfbfbf" stroke="black" points="407,-313.5 407,-332.5 555,-332.5 555,-313.5 407,-313.5"/>
<text text-anchor="middle" x="481" y="-320.5" font-family="Helvetica,sans-Serif" font-size="10.00">source/DetectorGeometry.cpp</text>
</g>
<!-- Node2 -->
<g id="node2" class="node"><title>Node2</title>
<g id="a_node2"><a xlink:href="../../db/d66/DetectorGeometry_8hh.html" target="_top" xlink:title="DetectorGeometry.hh">
<polygon fill="white" stroke="black" points="321,-257.5 321,-276.5 431,-276.5 431,-257.5 321,-257.5"/>
<text text-anchor="middle" x="376" y="-264.5" font-family="Helvetica,sans-Serif" font-size="10.00">DetectorGeometry.hh</text>
</a>
</g>
</g>
<!-- Node1&#45;&gt;Node2 -->
<g id="edge1" class="edge"><title>Node1&#45;&gt;Node2</title>
<path fill="none" stroke="midnightblue" d="M464.13,-313.324C447.291,-304.664 421.193,-291.242 401.762,-281.249"/>
<polygon fill="midnightblue" stroke="midnightblue" points="403.322,-278.116 392.828,-276.655 400.12,-284.341 403.322,-278.116"/>
</g>
<!-- Node21 -->
<g id="node21" class="node"><title>Node21</title>
<g id="a_node21"><a xlink:href="../../d8/de8/Debug_8hh.html" target="_top" xlink:title="Debug.hh">
<polygon fill="white" stroke="black" points="557.5,-257.5 557.5,-276.5 616.5,-276.5 616.5,-257.5 557.5,-257.5"/>
<text text-anchor="middle" x="587" y="-264.5" font-family="Helvetica,sans-Serif" font-size="10.00">Debug.hh</text>
</a>
</g>
</g>
<!-- Node1&#45;&gt;Node21 -->
<g id="edge24" class="edge"><title>Node1&#45;&gt;Node21</title>
<path fill="none" stroke="midnightblue" d="M498.031,-313.324C515.03,-304.664 541.376,-291.242 560.993,-281.249"/>
<polygon fill="midnightblue" stroke="midnightblue" points="562.69,-284.312 570.012,-276.655 559.512,-278.075 562.69,-284.312"/>
</g>
<!-- Node3 -->
<g id="node3" class="node"><title>Node3</title>
<g id="a_node3"><a xlink:href="../../df/de2/InfoRecombiner_8hh.html" target="_top" xlink:title="InfoRecombiner.hh">
<polygon fill="white" stroke="black" points="206.5,-196 206.5,-215 305.5,-215 305.5,-196 206.5,-196"/>
<text text-anchor="middle" x="256" y="-203" font-family="Helvetica,sans-Serif" font-size="10.00">InfoRecombiner.hh</text>
</a>
</g>
</g>
<!-- Node2&#45;&gt;Node3 -->
<g id="edge2" class="edge"><title>Node2&#45;&gt;Node3</title>
<path fill="none" stroke="midnightblue" d="M358.807,-257.475C338.757,-247.534 305.401,-230.995 282.14,-219.461"/>
<polygon fill="midnightblue" stroke="midnightblue" points="283.675,-216.316 273.161,-215.009 280.566,-222.587 283.675,-216.316"/>
</g>
<!-- Node5 -->
<g id="node5" class="node"><title>Node5</title>
<g id="a_node5"><a xlink:href="../../dc/d45/Units_8hh.html" target="_top" xlink:title="physics/Units.hh">
<polygon fill="white" stroke="black" points="331,-196 331,-215 421,-215 421,-196 331,-196"/>
<text text-anchor="middle" x="376" y="-203" font-family="Helvetica,sans-Serif" font-size="10.00">physics/Units.hh</text>
</a>
</g>
</g>
<!-- Node2&#45;&gt;Node5 -->
<g id="edge4" class="edge"><title>Node2&#45;&gt;Node5</title>
<path fill="none" stroke="midnightblue" d="M376,-257.475C376,-249.08 376,-235.981 376,-225.163"/>
<polygon fill="midnightblue" stroke="midnightblue" points="379.5,-225.009 376,-215.009 372.5,-225.009 379.5,-225.009"/>
</g>
<!-- Node4 -->
<g id="node4" class="node"><title>Node4</title>
<polygon fill="white" stroke="#bfbfbf" points="191.5,-134.5 191.5,-153.5 306.5,-153.5 306.5,-134.5 191.5,-134.5"/>
<text text-anchor="middle" x="249" y="-141.5" font-family="Helvetica,sans-Serif" font-size="10.00">fastjet/JetDefinition.hh</text>
</g>
<!-- Node3&#45;&gt;Node4 -->
<g id="edge3" class="edge"><title>Node3&#45;&gt;Node4</title>
<path fill="none" stroke="midnightblue" d="M254.997,-195.975C254.009,-187.58 252.468,-174.481 251.196,-163.663"/>
<polygon fill="midnightblue" stroke="midnightblue" points="254.646,-163.032 250.001,-153.509 247.694,-163.85 254.646,-163.032"/>
</g>
<!-- Node6 -->
<g id="node6" class="node"><title>Node6</title>
<polygon fill="white" stroke="#bfbfbf" points="445.5,-134.5 445.5,-153.5 558.5,-153.5 558.5,-134.5 445.5,-134.5"/>
<text text-anchor="middle" x="502" y="-141.5" font-family="Helvetica,sans-Serif" font-size="10.00">boost/units/cmath.hpp</text>
</g>
<!-- Node5&#45;&gt;Node6 -->
<g id="edge5" class="edge"><title>Node5&#45;&gt;Node6</title>
<path fill="none" stroke="midnightblue" d="M394.053,-195.975C415.198,-185.99 450.44,-169.348 474.878,-157.807"/>
<polygon fill="midnightblue" stroke="midnightblue" points="476.433,-160.944 483.981,-153.509 473.444,-154.614 476.433,-160.944"/>
</g>
<!-- Node7 -->
<g id="node7" class="node"><title>Node7</title>
<g id="a_node7"><a xlink:href="../../dc/d6c/Prefixes_8hh.html" target="_top" xlink:title="physics/Prefixes.hh">
<polygon fill="white" stroke="black" points="324.5,-134.5 324.5,-153.5 427.5,-153.5 427.5,-134.5 324.5,-134.5"/>
<text text-anchor="middle" x="376" y="-141.5" font-family="Helvetica,sans-Serif" font-size="10.00">physics/Prefixes.hh</text>
</a>
</g>
</g>
<!-- Node5&#45;&gt;Node7 -->
<g id="edge6" class="edge"><title>Node5&#45;&gt;Node7</title>
<path fill="none" stroke="midnightblue" d="M376,-195.975C376,-187.58 376,-174.481 376,-163.663"/>
<polygon fill="midnightblue" stroke="midnightblue" points="379.5,-163.509 376,-153.509 372.5,-163.509 379.5,-163.509"/>
</g>
<!-- Node8 -->
<g id="node8" class="node"><title>Node8</title>
<polygon fill="white" stroke="#bfbfbf" points="0,-73 0,-92 110,-92 110,-73 0,-73"/>
<text text-anchor="middle" x="55" y="-80" font-family="Helvetica,sans-Serif" font-size="10.00">boost/units/scale.hpp</text>
</g>
<!-- Node7&#45;&gt;Node8 -->
<g id="edge7" class="edge"><title>Node7&#45;&gt;Node8</title>
<path fill="none" stroke="midnightblue" d="M324.173,-134.698C272.168,-126.187 189.836,-112.217 119,-98 113.204,-96.8367 107.128,-95.5492 101.124,-94.2358"/>
<polygon fill="midnightblue" stroke="midnightblue" points="101.67,-90.7719 91.149,-92.018 100.151,-97.605 101.67,-90.7719"/>
</g>
<!-- Node9 -->
<g id="node9" class="node"><title>Node9</title>
<polygon fill="white" stroke="#bfbfbf" points="128.5,-67.5 128.5,-97.5 253.5,-97.5 253.5,-67.5 128.5,-67.5"/>
<text text-anchor="start" x="136.5" y="-85.5" font-family="Helvetica,sans-Serif" font-size="10.00">boost/units/make_scaled</text>
<text text-anchor="middle" x="191" y="-74.5" font-family="Helvetica,sans-Serif" font-size="10.00">_unit.hpp</text>
</g>
<!-- Node7&#45;&gt;Node9 -->
<g id="edge8" class="edge"><title>Node7&#45;&gt;Node9</title>
<path fill="none" stroke="midnightblue" d="M349.494,-134.475C322.214,-125.701 278.954,-111.788 244.517,-100.712"/>
<polygon fill="midnightblue" stroke="midnightblue" points="245.192,-97.2529 234.601,-97.523 243.049,-103.917 245.192,-97.2529"/>
</g>
<!-- Node10 -->
<g id="node10" class="node"><title>Node10</title>
<polygon fill="white" stroke="#bfbfbf" points="271.5,-67.5 271.5,-97.5 382.5,-97.5 382.5,-67.5 271.5,-67.5"/>
<text text-anchor="start" x="279.5" y="-85.5" font-family="Helvetica,sans-Serif" font-size="10.00">boost/units/systems</text>
<text text-anchor="middle" x="327" y="-74.5" font-family="Helvetica,sans-Serif" font-size="10.00">/si/dimensionless.hpp</text>
</g>
<!-- Node7&#45;&gt;Node10 -->
<g id="edge9" class="edge"><title>Node7&#45;&gt;Node10</title>
<path fill="none" stroke="midnightblue" d="M368.979,-134.475C362.715,-126.869 353.27,-115.399 344.924,-105.265"/>
<polygon fill="midnightblue" stroke="midnightblue" points="347.607,-103.017 338.548,-97.523 342.204,-107.467 347.607,-103.017"/>
</g>
<!-- Node11 -->
<g id="node11" class="node"><title>Node11</title>
<g id="a_node11"><a xlink:href="../../d6/d2c/Si_8hh.html" target="_top" xlink:title="Si.hh">
<polygon fill="white" stroke="black" points="752.5,-73 752.5,-92 791.5,-92 791.5,-73 752.5,-73"/>
<text text-anchor="middle" x="772" y="-80" font-family="Helvetica,sans-Serif" font-size="10.00">Si.hh</text>
</a>
</g>
</g>
<!-- Node7&#45;&gt;Node11 -->
<g id="edge10" class="edge"><title>Node7&#45;&gt;Node11</title>
<path fill="none" stroke="midnightblue" d="M427.77,-135.221C511.775,-122.599 675.125,-98.0557 742.178,-87.9808"/>
<polygon fill="midnightblue" stroke="midnightblue" points="743.082,-91.3844 752.451,-86.4373 742.042,-84.4621 743.082,-91.3844"/>
</g>
<!-- Node15 -->
<g id="node15" class="node"><title>Node15</title>
<g id="a_node15"><a xlink:href="../../d5/d2d/Barn_8hh.html" target="_top" xlink:title="Barn.hh">
<polygon fill="white" stroke="black" points="401,-73 401,-92 451,-92 451,-73 401,-73"/>
<text text-anchor="middle" x="426" y="-80" font-family="Helvetica,sans-Serif" font-size="10.00">Barn.hh</text>
</a>
</g>
</g>
<!-- Node7&#45;&gt;Node15 -->
<g id="edge14" class="edge"><title>Node7&#45;&gt;Node15</title>
<path fill="none" stroke="midnightblue" d="M383.164,-134.475C390.738,-125.462 402.87,-111.025 412.293,-99.8118"/>
<polygon fill="midnightblue" stroke="midnightblue" points="415.096,-101.917 418.85,-92.0091 409.737,-97.4132 415.096,-101.917"/>
</g>
<!-- Node19 -->
<g id="node19" class="node"><title>Node19</title>
<g id="a_node19"><a xlink:href="../../d5/d40/ElectronVolt_8hh.html" target="_top" xlink:title="ElectronVolt.hh">
<polygon fill="white" stroke="black" points="469.5,-73 469.5,-92 552.5,-92 552.5,-73 469.5,-73"/>
<text text-anchor="middle" x="511" y="-80" font-family="Helvetica,sans-Serif" font-size="10.00">ElectronVolt.hh</text>
</a>
</g>
</g>
<!-- Node7&#45;&gt;Node19 -->
<g id="edge19" class="edge"><title>Node7&#45;&gt;Node19</title>
<path fill="none" stroke="midnightblue" d="M395.342,-134.475C418.099,-124.445 456.092,-107.7 482.288,-96.1546"/>
<polygon fill="midnightblue" stroke="midnightblue" points="483.955,-99.2449 491.694,-92.0091 481.131,-92.8395 483.955,-99.2449"/>
</g>
<!-- Node12 -->
<g id="node12" class="node"><title>Node12</title>
<polygon fill="white" stroke="#bfbfbf" points="645.5,-6 645.5,-25 766.5,-25 766.5,-6 645.5,-6"/>
<text text-anchor="middle" x="706" y="-13" font-family="Helvetica,sans-Serif" font-size="10.00">boost/units/quantity.hpp</text>
</g>
<!-- Node11&#45;&gt;Node12 -->
<g id="edge11" class="edge"><title>Node11&#45;&gt;Node12</title>
<path fill="none" stroke="midnightblue" d="M763.099,-72.7338C752.609,-62.403 734.976,-45.0371 722.075,-32.3315"/>
<polygon fill="midnightblue" stroke="midnightblue" points="724.341,-29.6505 714.76,-25.1273 719.429,-34.6379 724.341,-29.6505"/>
</g>
<!-- Node13 -->
<g id="node13" class="node"><title>Node13</title>
<polygon fill="white" stroke="#bfbfbf" points="907.5,-0.5 907.5,-30.5 1012.5,-30.5 1012.5,-0.5 907.5,-0.5"/>
<text text-anchor="start" x="915.5" y="-18.5" font-family="Helvetica,sans-Serif" font-size="10.00">boost/units/systems</text>
<text text-anchor="middle" x="960" y="-7.5" font-family="Helvetica,sans-Serif" font-size="10.00">/si/plane_angle.hpp</text>
</g>
<!-- Node11&#45;&gt;Node13 -->
<g id="edge12" class="edge"><title>Node11&#45;&gt;Node13</title>
<path fill="none" stroke="midnightblue" d="M791.764,-74.6667C819.575,-65.0513 871.188,-47.2063 909.943,-33.8071"/>
<polygon fill="midnightblue" stroke="midnightblue" points="911.189,-37.0796 919.496,-30.504 908.901,-30.4639 911.189,-37.0796"/>
</g>
<!-- Node14 -->
<g id="node14" class="node"><title>Node14</title>
<polygon fill="white" stroke="#bfbfbf" points="784.5,-0.5 784.5,-30.5 889.5,-30.5 889.5,-0.5 784.5,-0.5"/>
<text text-anchor="start" x="792.5" y="-18.5" font-family="Helvetica,sans-Serif" font-size="10.00">boost/units/systems</text>
<text text-anchor="middle" x="837" y="-7.5" font-family="Helvetica,sans-Serif" font-size="10.00">/si/length.hpp</text>
</g>
<!-- Node11&#45;&gt;Node14 -->
<g id="edge13" class="edge"><title>Node11&#45;&gt;Node14</title>
<path fill="none" stroke="midnightblue" d="M780.766,-72.7338C789.635,-63.8649 803.689,-49.8111 815.528,-37.9722"/>
<polygon fill="midnightblue" stroke="midnightblue" points="818.315,-40.135 822.911,-30.589 813.365,-35.1852 818.315,-40.135"/>
</g>
<!-- Node15&#45;&gt;Node12 -->
<g id="edge17" class="edge"><title>Node15&#45;&gt;Node12</title>
<path fill="none" stroke="midnightblue" d="M444.096,-72.9804C449.165,-70.8156 454.731,-68.6408 460,-67 536.647,-43.132 558.386,-47.2547 637,-31 643.057,-29.7476 649.412,-28.4246 655.71,-27.1078"/>
<polygon fill="midnightblue" stroke="midnightblue" points="656.44,-30.5308 665.51,-25.0545 655.005,-23.6796 656.44,-30.5308"/>
</g>
<!-- Node16 -->
<g id="node16" class="node"><title>Node16</title>
<polygon fill="white" stroke="#bfbfbf" points="347.5,-6 347.5,-25 504.5,-25 504.5,-6 347.5,-6"/>
<text text-anchor="middle" x="426" y="-13" font-family="Helvetica,sans-Serif" font-size="10.00">boost/units/base_dimension.hpp</text>
</g>
<!-- Node15&#45;&gt;Node16 -->
<g id="edge15" class="edge"><title>Node15&#45;&gt;Node16</title>
<path fill="none" stroke="midnightblue" d="M426,-72.7338C426,-63.1826 426,-47.6183 426,-35.2829"/>
<polygon fill="midnightblue" stroke="midnightblue" points="429.5,-35.1273 426,-25.1273 422.5,-35.1273 429.5,-35.1273"/>
</g>
<!-- Node17 -->
<g id="node17" class="node"><title>Node17</title>
<polygon fill="white" stroke="#bfbfbf" points="201,-6 201,-25 329,-25 329,-6 201,-6"/>
<text text-anchor="middle" x="265" y="-13" font-family="Helvetica,sans-Serif" font-size="10.00">boost/units/base_unit.hpp</text>
</g>
<!-- Node15&#45;&gt;Node17 -->
<g id="edge16" class="edge"><title>Node15&#45;&gt;Node17</title>
<path fill="none" stroke="midnightblue" d="M405.288,-72.873C400.594,-70.9308 395.629,-68.8864 391,-67 358.632,-53.8094 321.478,-38.9528 295.947,-28.7878"/>
<polygon fill="midnightblue" stroke="midnightblue" points="297.018,-25.4472 286.433,-25.0027 294.431,-31.9514 297.018,-25.4472"/>
</g>
<!-- Node18 -->
<g id="node18" class="node"><title>Node18</title>
<polygon fill="white" stroke="#bfbfbf" points="67.5,-0.5 67.5,-30.5 182.5,-30.5 182.5,-0.5 67.5,-0.5"/>
<text text-anchor="start" x="75.5" y="-18.5" font-family="Helvetica,sans-Serif" font-size="10.00">boost/units/base_units</text>
<text text-anchor="middle" x="125" y="-7.5" font-family="Helvetica,sans-Serif" font-size="10.00">/metric/barn.hpp</text>
</g>
<!-- Node15&#45;&gt;Node18 -->
<g id="edge18" class="edge"><title>Node15&#45;&gt;Node18</title>
<path fill="none" stroke="midnightblue" d="M407.375,-72.9198C402.157,-70.7548 396.427,-68.595 391,-67 307.799,-42.546 281.965,-48.0662 192.73,-31.0719"/>
<polygon fill="midnightblue" stroke="midnightblue" points="193.202,-27.5982 182.718,-29.122 191.864,-34.4691 193.202,-27.5982"/>
</g>
<!-- Node19&#45;&gt;Node12 -->
<g id="edge22" class="edge"><title>Node19&#45;&gt;Node12</title>
<path fill="none" stroke="midnightblue" d="M536.894,-72.8685C571.227,-61.4245 631.958,-41.1807 670.533,-28.3223"/>
<polygon fill="midnightblue" stroke="midnightblue" points="671.929,-31.5464 680.309,-25.0637 669.715,-24.9056 671.929,-31.5464"/>
</g>
<!-- Node19&#45;&gt;Node16 -->
<g id="edge20" class="edge"><title>Node19&#45;&gt;Node16</title>
<path fill="none" stroke="midnightblue" d="M499.537,-72.7338C485.645,-62.1106 462.025,-44.0485 445.307,-31.2642"/>
<polygon fill="midnightblue" stroke="midnightblue" points="447.352,-28.4216 437.282,-25.1273 443.099,-33.9821 447.352,-28.4216"/>
</g>
<!-- Node19&#45;&gt;Node17 -->
<g id="edge21" class="edge"><title>Node19&#45;&gt;Node17</title>
<path fill="none" stroke="midnightblue" d="M481.368,-72.9475C474.37,-70.9631 466.929,-68.8819 460,-67 408.153,-52.9183 348.309,-37.5512 308.737,-27.5127"/>
<polygon fill="midnightblue" stroke="midnightblue" points="309.436,-24.0792 298.883,-25.0166 307.717,-30.8649 309.436,-24.0792"/>
</g>
<!-- Node20 -->
<g id="node20" class="node"><title>Node20</title>
<polygon fill="white" stroke="#bfbfbf" points="522.5,-0.5 522.5,-30.5 627.5,-30.5 627.5,-0.5 522.5,-0.5"/>
<text text-anchor="start" x="530.5" y="-18.5" font-family="Helvetica,sans-Serif" font-size="10.00">boost/units/systems</text>
<text text-anchor="middle" x="575" y="-7.5" font-family="Helvetica,sans-Serif" font-size="10.00">/si/energy.hpp</text>
</g>
<!-- Node19&#45;&gt;Node20 -->
<g id="edge23" class="edge"><title>Node19&#45;&gt;Node20</title>
<path fill="none" stroke="midnightblue" d="M519.631,-72.7338C528.364,-63.8649 542.201,-49.8111 553.858,-37.9722"/>
<polygon fill="midnightblue" stroke="midnightblue" points="556.606,-40.1703 561.128,-30.589 551.618,-35.2591 556.606,-40.1703"/>
</g>
<!-- Node22 -->
<g id="node22" class="node"><title>Node22</title>
<polygon fill="white" stroke="#bfbfbf" points="439.5,-196 439.5,-215 480.5,-215 480.5,-196 439.5,-196"/>
<text text-anchor="middle" x="460" y="-203" font-family="Helvetica,sans-Serif" font-size="10.00">string</text>
</g>
<!-- Node21&#45;&gt;Node22 -->
<g id="edge25" class="edge"><title>Node21&#45;&gt;Node22</title>
<path fill="none" stroke="midnightblue" d="M568.364,-257.461C548.804,-248.473 517.18,-233.872 490,-221 489.007,-220.53 487.996,-220.049 486.975,-219.563"/>
<polygon fill="midnightblue" stroke="midnightblue" points="488.275,-216.304 477.745,-215.134 485.246,-222.616 488.275,-216.304"/>
</g>
<!-- Node23 -->
<g id="node23" class="node"><title>Node23</title>
<polygon fill="white" stroke="#bfbfbf" points="499,-196 499,-215 543,-215 543,-196 499,-196"/>
<text text-anchor="middle" x="521" y="-203" font-family="Helvetica,sans-Serif" font-size="10.00">vector</text>
</g>
<!-- Node21&#45;&gt;Node23 -->
<g id="edge26" class="edge"><title>Node21&#45;&gt;Node23</title>
<path fill="none" stroke="midnightblue" d="M577.544,-257.475C567.252,-248.197 550.584,-233.171 538.006,-221.831"/>
<polygon fill="midnightblue" stroke="midnightblue" points="540.21,-219.105 530.439,-215.009 535.522,-224.305 540.21,-219.105"/>
</g>
<!-- Node24 -->
<g id="node24" class="node"><title>Node24</title>
<polygon fill="white" stroke="#bfbfbf" points="561,-196 561,-215 613,-215 613,-196 561,-196"/>
<text text-anchor="middle" x="587" y="-203" font-family="Helvetica,sans-Serif" font-size="10.00">sstream</text>
</g>
<!-- Node21&#45;&gt;Node24 -->
<g id="edge27" class="edge"><title>Node21&#45;&gt;Node24</title>
<path fill="none" stroke="midnightblue" d="M587,-257.475C587,-249.08 587,-235.981 587,-225.163"/>
<polygon fill="midnightblue" stroke="midnightblue" points="590.5,-225.009 587,-215.009 583.5,-225.009 590.5,-225.009"/>
</g>
<!-- Node25 -->
<g id="node25" class="node"><title>Node25</title>
<polygon fill="white" stroke="#bfbfbf" points="631,-196 631,-215 681,-215 681,-196 631,-196"/>
<text text-anchor="middle" x="656" y="-203" font-family="Helvetica,sans-Serif" font-size="10.00">iomanip</text>
</g>
<!-- Node21&#45;&gt;Node25 -->
<g id="edge28" class="edge"><title>Node21&#45;&gt;Node25</title>
<path fill="none" stroke="midnightblue" d="M596.886,-257.475C607.646,-248.197 625.071,-233.171 638.221,-221.831"/>
<polygon fill="midnightblue" stroke="midnightblue" points="640.845,-224.19 646.132,-215.009 636.273,-218.889 640.845,-224.19"/>
</g>
<!-- Node26 -->
<g id="node26" class="node"><title>Node26</title>
<polygon fill="white" stroke="#bfbfbf" points="699,-196 699,-215 753,-215 753,-196 699,-196"/>
<text text-anchor="middle" x="726" y="-203" font-family="Helvetica,sans-Serif" font-size="10.00">iostream</text>
</g>
<!-- Node21&#45;&gt;Node26 -->
<g id="edge29" class="edge"><title>Node21&#45;&gt;Node26</title>
<path fill="none" stroke="midnightblue" d="M606.915,-257.475C630.449,-247.401 669.81,-230.553 696.793,-219.002"/>
<polygon fill="midnightblue" stroke="midnightblue" points="698.306,-222.162 706.122,-215.009 695.551,-215.727 698.306,-222.162"/>
</g>
<!-- Node27 -->
<g id="node27" class="node"><title>Node27</title>
<polygon fill="white" stroke="#bfbfbf" points="771.5,-190.5 771.5,-220.5 876.5,-220.5 876.5,-190.5 771.5,-190.5"/>
<text text-anchor="start" x="779.5" y="-208.5" font-family="Helvetica,sans-Serif" font-size="10.00">boost/units/systems</text>
<text text-anchor="middle" x="824" y="-197.5" font-family="Helvetica,sans-Serif" font-size="10.00">/si/io.hpp</text>
</g>
<!-- Node21&#45;&gt;Node27 -->
<g id="edge30" class="edge"><title>Node21&#45;&gt;Node27</title>
<path fill="none" stroke="midnightblue" d="M616.537,-258.585C652.681,-249.51 714.847,-233.904 761.728,-222.134"/>
<polygon fill="midnightblue" stroke="midnightblue" points="762.638,-225.514 771.485,-219.684 760.933,-218.725 762.638,-225.514"/>
</g>
</g>
</svg>
