<?xml version="1.0" encoding="UTF-8" standalone="no"?>
<!DOCTYPE svg PUBLIC "-//W3C//DTD SVG 1.1//EN"
 "http://www.w3.org/Graphics/SVG/1.1/DTD/svg11.dtd">
<!-- Generated by graphviz version 2.38.0 (20140413.2041)
 -->
<!-- Title: include/ClonesArrays.hh Pages: 1 -->
<svg width="801pt" height="140pt"
 viewBox="0.00 0.00 800.50 140.00" xmlns="http://www.w3.org/2000/svg" xmlns:xlink="http://www.w3.org/1999/xlink">
<g id="graph0" class="graph" transform="scale(1 1) rotate(0) translate(4 136)">
<title>include/ClonesArrays.hh</title>
<polygon fill="white" stroke="none" points="-4,4 -4,-136 796.5,-136 796.5,4 -4,4"/>
<!-- Node1 -->
<g id="node1" class="node"><title>Node1</title>
<polygon fill="#bfbfbf" stroke="black" points="18.5,-112.5 18.5,-131.5 141.5,-131.5 141.5,-112.5 18.5,-112.5"/>
<text text-anchor="middle" x="80" y="-119.5" font-family="Helvetica,sans-Serif" font-size="10.00">include/ClonesArrays.hh</text>
</g>
<!-- Node2 -->
<g id="node2" class="node"><title>Node2</title>
<polygon fill="white" stroke="#bfbfbf" points="0,-0.5 0,-19.5 44,-19.5 44,-0.5 0,-0.5"/>
<text text-anchor="middle" x="22" y="-7.5" font-family="Helvetica,sans-Serif" font-size="10.00">vector</text>
</g>
<!-- Node1&#45;&gt;Node2 -->
<g id="edge1" class="edge"><title>Node1&#45;&gt;Node2</title>
<path fill="none" stroke="midnightblue" d="M75.4488,-112.368C65.9619,-94.376 43.9083,-52.5503 31.2941,-28.6267"/>
<polygon fill="midnightblue" stroke="midnightblue" points="34.2902,-26.8047 26.53,-19.5914 28.0982,-30.0696 34.2902,-26.8047"/>
</g>
<!-- Node3 -->
<g id="node3" class="node"><title>Node3</title>
<polygon fill="white" stroke="#bfbfbf" points="62.5,-0.5 62.5,-19.5 97.5,-19.5 97.5,-0.5 62.5,-0.5"/>
<text text-anchor="middle" x="80" y="-7.5" font-family="Helvetica,sans-Serif" font-size="10.00">map</text>
</g>
<!-- Node1&#45;&gt;Node3 -->
<g id="edge2" class="edge"><title>Node1&#45;&gt;Node3</title>
<path fill="none" stroke="midnightblue" d="M80,-112.368C80,-94.617 80,-53.6664 80,-29.5974"/>
<polygon fill="midnightblue" stroke="midnightblue" points="83.5001,-29.5914 80,-19.5914 76.5001,-29.5915 83.5001,-29.5914"/>
</g>
<!-- Node4 -->
<g id="node4" class="node"><title>Node4</title>
<g id="a_node4"><a xlink:href="../../d6/d74/TreeReader_8hh.html" target="_top" xlink:title="TreeReader.hh">
<polygon fill="white" stroke="black" points="290.5,-56.5 290.5,-75.5 371.5,-75.5 371.5,-56.5 290.5,-56.5"/>
<text text-anchor="middle" x="331" y="-63.5" font-family="Helvetica,sans-Serif" font-size="10.00">TreeReader.hh</text>
</a>
</g>
</g>
<!-- Node1&#45;&gt;Node4 -->
<g id="edge3" class="edge"><title>Node1&#45;&gt;Node4</title>
<path fill="none" stroke="midnightblue" d="M119.772,-112.444C163.558,-103.023 234.014,-87.8656 281.38,-77.6752"/>
<polygon fill="midnightblue" stroke="midnightblue" points="282.374,-81.0415 291.414,-75.5164 280.902,-74.1981 282.374,-81.0415"/>
</g>
<!-- Node4&#45;&gt;Node2 -->
<g id="edge6" class="edge"><title>Node4&#45;&gt;Node2</title>
<path fill="none" stroke="midnightblue" d="M290.187,-59.9816C237.698,-53.1795 143.585,-39.8102 54.2865,-20.0646"/>
<polygon fill="midnightblue" stroke="midnightblue" points="54.7901,-16.5907 44.2665,-17.8171 53.258,-23.421 54.7901,-16.5907"/>
</g>
<!-- Node4&#45;&gt;Node3 -->
<g id="edge7" class="edge"><title>Node4&#45;&gt;Node3</title>
<path fill="none" stroke="midnightblue" d="M290.186,-58.3623C247.049,-51.0021 176.907,-38.0559 107.422,-19.8288"/>
<polygon fill="midnightblue" stroke="midnightblue" points="108.188,-16.411 97.6243,-17.2219 106.388,-23.1756 108.188,-16.411"/>
</g>
<!-- Node5 -->
<g id="node5" class="node"><title>Node5</title>
<polygon fill="white" stroke="#bfbfbf" points="309,-0.5 309,-19.5 353,-19.5 353,-0.5 309,-0.5"/>
<text text-anchor="middle" x="331" y="-7.5" font-family="Helvetica,sans-Serif" font-size="10.00">mutex</text>
</g>
<!-- Node4&#45;&gt;Node5 -->
<g id="edge4" class="edge"><title>Node4&#45;&gt;Node5</title>
<path fill="none" stroke="midnightblue" d="M331,-56.083C331,-49.0059 331,-38.8611 331,-29.9865"/>
<polygon fill="midnightblue" stroke="midnightblue" points="334.5,-29.751 331,-19.7511 327.5,-29.7511 334.5,-29.751"/>
</g>
<!-- Node6 -->
<g id="node6" class="node"><title>Node6</title>
<polygon fill="white" stroke="#bfbfbf" points="371,-0.5 371,-19.5 423,-19.5 423,-0.5 371,-0.5"/>
<text text-anchor="middle" x="397" y="-7.5" font-family="Helvetica,sans-Serif" font-size="10.00">memory</text>
</g>
<!-- Node4&#45;&gt;Node6 -->
<g id="edge5" class="edge"><title>Node4&#45;&gt;Node6</title>
<path fill="none" stroke="midnightblue" d="M341.604,-56.324C351.456,-48.2631 366.351,-36.0765 378.215,-26.3695"/>
<polygon fill="midnightblue" stroke="midnightblue" points="380.68,-28.8752 386.203,-19.8339 376.247,-23.4575 380.68,-28.8752"/>
</g>
<!-- Node7 -->
<g id="node7" class="node"><title>Node7</title>
<polygon fill="white" stroke="#bfbfbf" points="441,-0.5 441,-19.5 495,-19.5 495,-0.5 441,-0.5"/>
<text text-anchor="middle" x="468" y="-7.5" font-family="Helvetica,sans-Serif" font-size="10.00">iostream</text>
</g>
<!-- Node4&#45;&gt;Node7 -->
<g id="edge8" class="edge"><title>Node4&#45;&gt;Node7</title>
<path fill="none" stroke="midnightblue" d="M352.708,-56.4435C375.355,-47.5171 411.072,-33.4387 436.752,-23.3168"/>
<polygon fill="midnightblue" stroke="midnightblue" points="438.374,-26.4397 446.394,-19.5164 435.807,-19.9273 438.374,-26.4397"/>
</g>
<!-- Node8 -->
<g id="node8" class="node"><title>Node8</title>
<polygon fill="white" stroke="#bfbfbf" points="513,-0.5 513,-19.5 569,-19.5 569,-0.5 513,-0.5"/>
<text text-anchor="middle" x="541" y="-7.5" font-family="Helvetica,sans-Serif" font-size="10.00">TChain.h</text>
</g>
<!-- Node4&#45;&gt;Node8 -->
<g id="edge9" class="edge"><title>Node4&#45;&gt;Node8</title>
<path fill="none" stroke="midnightblue" d="M364.275,-56.4435C402.044,-46.7315 463.53,-30.9208 503.112,-20.7426"/>
<polygon fill="midnightblue" stroke="midnightblue" points="504.108,-24.1005 512.921,-18.2203 502.364,-17.3211 504.108,-24.1005"/>
</g>
<!-- Node9 -->
<g id="node9" class="node"><title>Node9</title>
<polygon fill="white" stroke="#bfbfbf" points="587,-0.5 587,-19.5 669,-19.5 669,-0.5 587,-0.5"/>
<text text-anchor="middle" x="628" y="-7.5" font-family="Helvetica,sans-Serif" font-size="10.00">TTreeReader.h</text>
</g>
<!-- Node4&#45;&gt;Node9 -->
<g id="edge10" class="edge"><title>Node4&#45;&gt;Node9</title>
<path fill="none" stroke="midnightblue" d="M371.674,-57.6048C425.028,-47.9041 518.671,-30.8779 576.795,-20.3099"/>
<polygon fill="midnightblue" stroke="midnightblue" points="577.652,-23.7117 586.864,-18.4792 576.399,-16.8246 577.652,-23.7117"/>
</g>
<!-- Node10 -->
<g id="node10" class="node"><title>Node10</title>
<polygon fill="white" stroke="#bfbfbf" points="687.5,-0.5 687.5,-19.5 792.5,-19.5 792.5,-0.5 687.5,-0.5"/>
<text text-anchor="middle" x="740" y="-7.5" font-family="Helvetica,sans-Serif" font-size="10.00">TTreeReaderArray.h</text>
</g>
<!-- Node4&#45;&gt;Node10 -->
<g id="edge11" class="edge"><title>Node4&#45;&gt;Node10</title>
<path fill="none" stroke="midnightblue" d="M371.627,-59.9345C434.615,-52.0366 559.909,-36.1494 677.025,-20.1161"/>
<polygon fill="midnightblue" stroke="midnightblue" points="677.811,-23.541 687.243,-18.714 676.86,-16.606 677.811,-23.541"/>
</g>
<!-- Node11 -->
<g id="node11" class="node"><title>Node11</title>
<polygon fill="white" stroke="#bfbfbf" points="115.5,-0.5 115.5,-19.5 222.5,-19.5 222.5,-0.5 115.5,-0.5"/>
<text text-anchor="middle" x="169" y="-7.5" font-family="Helvetica,sans-Serif" font-size="10.00">TTreeReaderValue.h</text>
</g>
<!-- Node4&#45;&gt;Node11 -->
<g id="edge12" class="edge"><title>Node4&#45;&gt;Node11</title>
<path fill="none" stroke="midnightblue" d="M305.331,-56.4435C278.077,-47.3591 234.816,-32.9388 204.349,-22.7831"/>
<polygon fill="midnightblue" stroke="midnightblue" points="205.143,-19.3584 194.549,-19.5164 202.929,-25.9992 205.143,-19.3584"/>
</g>
<!-- Node12 -->
<g id="node12" class="node"><title>Node12</title>
<polygon fill="white" stroke="#bfbfbf" points="241,-0.5 241,-19.5 291,-19.5 291,-0.5 241,-0.5"/>
<text text-anchor="middle" x="266" y="-7.5" font-family="Helvetica,sans-Serif" font-size="10.00">TLeaf.h</text>
</g>
<!-- Node4&#45;&gt;Node12 -->
<g id="edge13" class="edge"><title>Node4&#45;&gt;Node12</title>
<path fill="none" stroke="midnightblue" d="M320.557,-56.324C310.854,-48.2631 296.185,-36.0765 284.5,-26.3695"/>
<polygon fill="midnightblue" stroke="midnightblue" points="286.562,-23.532 276.633,-19.8339 282.089,-28.9163 286.562,-23.532"/>
</g>
</g>
</svg>
