<?xml version="1.0" encoding="UTF-8" standalone="no"?>
<!DOCTYPE svg PUBLIC "-//W3C//DTD SVG 1.1//EN"
 "http://www.w3.org/Graphics/SVG/1.1/DTD/svg11.dtd">
<!-- Generated by graphviz version 2.38.0 (20140413.2041)
 -->
<!-- Title: StandardModel/source/TopHadronicTagger.cpp Pages: 1 -->
<svg width="1335pt" height="632pt"
 viewBox="0.00 0.00 1334.74 632.00" xmlns="http://www.w3.org/2000/svg" xmlns:xlink="http://www.w3.org/1999/xlink">
<g id="graph0" class="graph" transform="scale(1 1) rotate(0) translate(4 628)">
<title>StandardModel/source/TopHadronicTagger.cpp</title>
<polygon fill="white" stroke="none" points="-4,4 -4,-628 1330.74,-628 1330.74,4 -4,4"/>
<!-- Node1 -->
<g id="node1" class="node"><title>Node1</title>
<polygon fill="#bfbfbf" stroke="black" points="648,-593.5 648,-623.5 772,-623.5 772,-593.5 648,-593.5"/>
<text text-anchor="start" x="656" y="-611.5" font-family="Helvetica,sans-Serif" font-size="10.00">StandardModel/source</text>
<text text-anchor="middle" x="710" y="-600.5" font-family="Helvetica,sans-Serif" font-size="10.00">/TopHadronicTagger.cpp</text>
</g>
<!-- Node2 -->
<g id="node2" class="node"><title>Node2</title>
<polygon fill="white" stroke="#bfbfbf" points="261,-526.5 261,-556.5 371,-556.5 371,-526.5 261,-526.5"/>
<text text-anchor="start" x="269" y="-544.5" font-family="Helvetica,sans-Serif" font-size="10.00">boost/range/algorithm</text>
<text text-anchor="middle" x="316" y="-533.5" font-family="Helvetica,sans-Serif" font-size="10.00">/adjacent_find.hpp</text>
</g>
<!-- Node1&#45;&gt;Node2 -->
<g id="edge1" class="edge"><title>Node1&#45;&gt;Node2</title>
<path fill="none" stroke="midnightblue" d="M647.738,-599.314C583.368,-590.548 479.763,-575.597 380.959,-557.105"/>
<polygon fill="midnightblue" stroke="midnightblue" points="381.582,-553.661 371.106,-555.246 380.284,-560.539 381.582,-553.661"/>
</g>
<!-- Node3 -->
<g id="node3" class="node"><title>Node3</title>
<g id="a_node3"><a xlink:href="../../d4/d5c/TopHadronicTagger_8hh.html" target="_top" xlink:title="TopHadronicTagger.hh">
<polygon fill="white" stroke="black" points="389,-532 389,-551 505,-551 505,-532 389,-532"/>
<text text-anchor="middle" x="447" y="-539" font-family="Helvetica,sans-Serif" font-size="10.00">TopHadronicTagger.hh</text>
</a>
</g>
</g>
<!-- Node1&#45;&gt;Node3 -->
<g id="edge2" class="edge"><title>Node1&#45;&gt;Node3</title>
<path fill="none" stroke="midnightblue" d="M653.257,-593.476C604.785,-581.496 536.02,-564.501 491.46,-553.488"/>
<polygon fill="midnightblue" stroke="midnightblue" points="492.056,-550.03 481.508,-551.029 490.376,-556.826 492.056,-550.03"/>
</g>
<!-- Node23 -->
<g id="node23" class="node"><title>Node23</title>
<g id="a_node23"><a xlink:href="../../d5/df2/Event_8hh.html" target="_top" xlink:title="Event.hh">
<polygon fill="white" stroke="black" points="1060,-246.5 1060,-265.5 1116,-265.5 1116,-246.5 1060,-246.5"/>
<text text-anchor="middle" x="1088" y="-253.5" font-family="Helvetica,sans-Serif" font-size="10.00">Event.hh</text>
</a>
</g>
</g>
<!-- Node1&#45;&gt;Node23 -->
<g id="edge63" class="edge"><title>Node1&#45;&gt;Node23</title>
<path fill="none" stroke="midnightblue" d="M772.031,-600.755C883.688,-586.878 1107,-550.444 1107,-481 1107,-481 1107,-481 1107,-367 1107,-334.489 1098.84,-297.35 1093.22,-275.61"/>
<polygon fill="midnightblue" stroke="midnightblue" points="1096.54,-274.498 1090.56,-265.751 1089.78,-276.317 1096.54,-274.498"/>
</g>
<!-- Node30 -->
<g id="node30" class="node"><title>Node30</title>
<g id="a_node30"><a xlink:href="../../d7/dcf/Exception_8hh.html" target="_top" xlink:title="Exception.hh">
<polygon fill="white" stroke="black" points="550,-246.5 550,-265.5 624,-265.5 624,-246.5 550,-246.5"/>
<text text-anchor="middle" x="587" y="-253.5" font-family="Helvetica,sans-Serif" font-size="10.00">Exception.hh</text>
</a>
</g>
</g>
<!-- Node1&#45;&gt;Node30 -->
<g id="edge73" class="edge"><title>Node1&#45;&gt;Node30</title>
<path fill="none" stroke="midnightblue" d="M671.903,-593.491C628.942,-574.941 565,-537.792 565,-481 565,-481 565,-481 565,-423 565,-395.67 532.683,-327.308 543,-302 547.8,-290.225 557.329,-279.856 566.295,-272.049"/>
<polygon fill="midnightblue" stroke="midnightblue" points="568.65,-274.645 574.219,-265.631 564.245,-269.205 568.65,-274.645"/>
</g>
<!-- Node45 -->
<g id="node45" class="node"><title>Node45</title>
<g id="a_node45"><a xlink:href="../../df/de2/InfoRecombiner_8hh.html" target="_top" xlink:title="InfoRecombiner.hh">
<polygon fill="white" stroke="black" points="846.5,-532 846.5,-551 945.5,-551 945.5,-532 846.5,-532"/>
<text text-anchor="middle" x="896" y="-539" font-family="Helvetica,sans-Serif" font-size="10.00">InfoRecombiner.hh</text>
</a>
</g>
</g>
<!-- Node1&#45;&gt;Node45 -->
<g id="edge64" class="edge"><title>Node1&#45;&gt;Node45</title>
<path fill="none" stroke="midnightblue" d="M750.359,-593.396C783.717,-581.739 830.548,-565.373 862.016,-554.376"/>
<polygon fill="midnightblue" stroke="midnightblue" points="863.371,-557.61 871.657,-551.007 861.062,-551.002 863.371,-557.61"/>
</g>
<!-- Node47 -->
<g id="node47" class="node"><title>Node47</title>
<g id="a_node47"><a xlink:href="../../da/d36/ParticleInfo_8hh.html" target="_top" xlink:title="ParticleInfo.hh">
<polygon fill="white" stroke="black" points="670,-532 670,-551 750,-551 750,-532 670,-532"/>
<text text-anchor="middle" x="710" y="-539" font-family="Helvetica,sans-Serif" font-size="10.00">ParticleInfo.hh</text>
</a>
</g>
</g>
<!-- Node1&#45;&gt;Node47 -->
<g id="edge66" class="edge"><title>Node1&#45;&gt;Node47</title>
<path fill="none" stroke="midnightblue" d="M710,-593.396C710,-584.064 710,-571.714 710,-561.517"/>
<polygon fill="midnightblue" stroke="midnightblue" points="713.5,-561.195 710,-551.195 706.5,-561.195 713.5,-561.195"/>
</g>
<!-- Node50 -->
<g id="node50" class="node"><title>Node50</title>
<g id="a_node50"><a xlink:href="../../d8/de8/Debug_8hh.html" target="_top" xlink:title="Debug.hh">
<polygon fill="white" stroke="black" points="1216.5,-246.5 1216.5,-265.5 1275.5,-265.5 1275.5,-246.5 1216.5,-246.5"/>
<text text-anchor="middle" x="1246" y="-253.5" font-family="Helvetica,sans-Serif" font-size="10.00">Debug.hh</text>
</a>
</g>
</g>
<!-- Node1&#45;&gt;Node50 -->
<g id="edge74" class="edge"><title>Node1&#45;&gt;Node50</title>
<path fill="none" stroke="midnightblue" d="M772.121,-605.255C909.095,-598.616 1225,-573.298 1225,-481 1225,-481 1225,-481 1225,-367 1225,-334.384 1234.02,-297.278 1240.23,-275.573"/>
<polygon fill="midnightblue" stroke="midnightblue" points="1243.67,-276.315 1243.17,-265.732 1236.96,-274.316 1243.67,-276.315"/>
</g>
<!-- Node4 -->
<g id="node4" class="node"><title>Node4</title>
<polygon fill="white" stroke="#bfbfbf" points="477.5,-414.5 477.5,-433.5 536.5,-433.5 536.5,-414.5 477.5,-414.5"/>
<text text-anchor="middle" x="507" y="-421.5" font-family="Helvetica,sans-Serif" font-size="10.00">functional</text>
</g>
<!-- Node3&#45;&gt;Node4 -->
<g id="edge3" class="edge"><title>Node3&#45;&gt;Node4</title>
<path fill="none" stroke="midnightblue" d="M452.595,-531.719C458.845,-521.768 469.12,-504.982 477,-490 485.218,-474.377 493.551,-456.082 499.343,-442.888"/>
<polygon fill="midnightblue" stroke="midnightblue" points="502.625,-444.117 503.391,-433.55 496.202,-441.332 502.625,-444.117"/>
</g>
<!-- Node5 -->
<g id="node5" class="node"><title>Node5</title>
<g id="a_node5"><a xlink:href="../../db/d94/WHadronicTagger_8hh.html" target="_top" xlink:title="WHadronicTagger.hh">
<polygon fill="white" stroke="black" points="359.5,-470.5 359.5,-489.5 468.5,-489.5 468.5,-470.5 359.5,-470.5"/>
<text text-anchor="middle" x="414" y="-477.5" font-family="Helvetica,sans-Serif" font-size="10.00">WHadronicTagger.hh</text>
</a>
</g>
</g>
<!-- Node3&#45;&gt;Node5 -->
<g id="edge4" class="edge"><title>Node3&#45;&gt;Node5</title>
<path fill="none" stroke="midnightblue" d="M442.272,-531.975C437.42,-523.227 429.734,-509.369 423.6,-498.309"/>
<polygon fill="midnightblue" stroke="midnightblue" points="426.63,-496.557 418.719,-489.509 420.509,-499.952 426.63,-496.557"/>
</g>
<!-- Node42 -->
<g id="node42" class="node"><title>Node42</title>
<g id="a_node42"><a xlink:href="../../d7/db9/Triplet_8hh.html" target="_top" xlink:title="Triplet.hh">
<polygon fill="white" stroke="black" points="133.5,-470.5 133.5,-489.5 190.5,-489.5 190.5,-470.5 133.5,-470.5"/>
<text text-anchor="middle" x="162" y="-477.5" font-family="Helvetica,sans-Serif" font-size="10.00">Triplet.hh</text>
</a>
</g>
</g>
<!-- Node3&#45;&gt;Node42 -->
<g id="edge56" class="edge"><title>Node3&#45;&gt;Node42</title>
<path fill="none" stroke="midnightblue" d="M407.688,-531.926C398.6,-529.963 388.966,-527.895 380,-526 317.169,-512.717 244.05,-497.717 200.475,-488.826"/>
<polygon fill="midnightblue" stroke="midnightblue" points="201.083,-485.378 190.585,-486.81 199.684,-492.237 201.083,-485.378"/>
</g>
<!-- Node44 -->
<g id="node44" class="node"><title>Node44</title>
<g id="a_node44"><a xlink:href="../../d0/dd8/MomentumRange_8hh.html" target="_top" xlink:title="MomentumRange.hh">
<polygon fill="white" stroke="black" points="170.5,-302.5 170.5,-321.5 277.5,-321.5 277.5,-302.5 170.5,-302.5"/>
<text text-anchor="middle" x="224" y="-309.5" font-family="Helvetica,sans-Serif" font-size="10.00">MomentumRange.hh</text>
</a>
</g>
</g>
<!-- Node3&#45;&gt;Node44 -->
<g id="edge59" class="edge"><title>Node3&#45;&gt;Node44</title>
<path fill="none" stroke="midnightblue" d="M427.745,-531.938C407.682,-522.685 375.652,-506.97 350,-490 317.347,-468.398 308.885,-462.461 282,-434 260.818,-411.576 254.247,-405.857 241,-378 233.956,-363.187 229.521,-345.034 226.954,-331.681"/>
<polygon fill="midnightblue" stroke="midnightblue" points="230.392,-331.019 225.221,-321.771 223.496,-332.225 230.392,-331.019"/>
</g>
<!-- Node5&#45;&gt;Node4 -->
<g id="edge5" class="edge"><title>Node5&#45;&gt;Node4</title>
<path fill="none" stroke="midnightblue" d="M428.942,-470.324C443.585,-461.822 466.134,-448.729 483.238,-438.797"/>
<polygon fill="midnightblue" stroke="midnightblue" points="485.205,-441.703 492.095,-433.655 481.69,-435.649 485.205,-441.703"/>
</g>
<!-- Node6 -->
<g id="node6" class="node"><title>Node6</title>
<g id="a_node6"><a xlink:href="../../de/dbb/BottomTagger_8hh.html" target="_top" xlink:title="BottomTagger.hh">
<polygon fill="white" stroke="black" points="291,-414.5 291,-433.5 383,-433.5 383,-414.5 291,-414.5"/>
<text text-anchor="middle" x="337" y="-421.5" font-family="Helvetica,sans-Serif" font-size="10.00">BottomTagger.hh</text>
</a>
</g>
</g>
<!-- Node5&#45;&gt;Node6 -->
<g id="edge6" class="edge"><title>Node5&#45;&gt;Node6</title>
<path fill="none" stroke="midnightblue" d="M401.629,-470.324C389.842,-462.058 371.868,-449.453 357.864,-439.632"/>
<polygon fill="midnightblue" stroke="midnightblue" points="359.538,-436.531 349.341,-433.655 355.518,-442.262 359.538,-436.531"/>
</g>
<!-- Node8 -->
<g id="node8" class="node"><title>Node8</title>
<g id="a_node8"><a xlink:href="../../db/db5/TaggerTemplate_8hh.html" target="_top" xlink:title="TaggerTemplate.hh">
<polygon fill="white" stroke="black" points="435.5,-358.5 435.5,-377.5 536.5,-377.5 536.5,-358.5 435.5,-358.5"/>
<text text-anchor="middle" x="486" y="-365.5" font-family="Helvetica,sans-Serif" font-size="10.00">TaggerTemplate.hh</text>
</a>
</g>
</g>
<!-- Node5&#45;&gt;Node8 -->
<g id="edge42" class="edge"><title>Node5&#45;&gt;Node8</title>
<path fill="none" stroke="midnightblue" d="M415.284,-470.371C417.546,-457.289 423.169,-432.052 435,-414 442.686,-402.272 454.216,-391.742 464.369,-383.822"/>
<polygon fill="midnightblue" stroke="midnightblue" points="466.517,-386.586 472.459,-377.814 462.344,-380.966 466.517,-386.586"/>
</g>
<!-- Node34 -->
<g id="node34" class="node"><title>Node34</title>
<g id="a_node34"><a xlink:href="../../df/d3a/Doublet_8hh.html" target="_top" xlink:title="Doublet.hh">
<polygon fill="white" stroke="black" points="130,-414.5 130,-433.5 194,-433.5 194,-414.5 130,-414.5"/>
<text text-anchor="middle" x="162" y="-421.5" font-family="Helvetica,sans-Serif" font-size="10.00">Doublet.hh</text>
</a>
</g>
</g>
<!-- Node5&#45;&gt;Node34 -->
<g id="edge43" class="edge"><title>Node5&#45;&gt;Node34</title>
<path fill="none" stroke="midnightblue" d="M374.07,-470.444C327.652,-460.497 251.383,-444.154 204.071,-434.015"/>
<polygon fill="midnightblue" stroke="midnightblue" points="204.658,-430.562 194.147,-431.889 203.192,-437.406 204.658,-430.562"/>
</g>
<!-- Node36 -->
<g id="node36" class="node"><title>Node36</title>
<g id="a_node36"><a xlink:href="../../df/d2c/Reader_8hh.html" target="_top" xlink:title="Reader.hh">
<polygon fill="white" stroke="black" points="725,-358.5 725,-377.5 787,-377.5 787,-358.5 725,-358.5"/>
<text text-anchor="middle" x="756" y="-365.5" font-family="Helvetica,sans-Serif" font-size="10.00">Reader.hh</text>
</a>
</g>
</g>
<!-- Node5&#45;&gt;Node36 -->
<g id="edge48" class="edge"><title>Node5&#45;&gt;Node36</title>
<path fill="none" stroke="midnightblue" d="M418.581,-470.1C426.516,-455.68 444.269,-427.471 468,-414 509.338,-390.535 645.091,-377.276 714.432,-371.88"/>
<polygon fill="midnightblue" stroke="midnightblue" points="714.858,-375.358 724.564,-371.111 714.328,-368.378 714.858,-375.358"/>
</g>
<!-- Node7 -->
<g id="node7" class="node"><title>Node7</title>
<g id="a_node7"><a xlink:href="../../de/d63/BranchesSm_8hh.html" target="_top" xlink:title="BranchesSm.hh">
<polygon fill="white" stroke="red" points="250,-358.5 250,-377.5 336,-377.5 336,-358.5 250,-358.5"/>
<text text-anchor="middle" x="293" y="-365.5" font-family="Helvetica,sans-Serif" font-size="10.00">BranchesSm.hh</text>
</a>
</g>
</g>
<!-- Node6&#45;&gt;Node7 -->
<g id="edge7" class="edge"><title>Node6&#45;&gt;Node7</title>
<path fill="none" stroke="midnightblue" d="M329.734,-414.083C323.455,-406.377 314.212,-395.033 306.569,-385.653"/>
<polygon fill="midnightblue" stroke="midnightblue" points="309.161,-383.293 300.131,-377.751 303.734,-387.714 309.161,-383.293"/>
</g>
<!-- Node6&#45;&gt;Node8 -->
<g id="edge8" class="edge"><title>Node6&#45;&gt;Node8</title>
<path fill="none" stroke="midnightblue" d="M360.609,-414.444C385.458,-405.438 424.774,-391.189 452.754,-381.049"/>
<polygon fill="midnightblue" stroke="midnightblue" points="454.292,-384.214 462.501,-377.516 451.907,-377.633 454.292,-384.214"/>
</g>
<!-- Node9 -->
<g id="node9" class="node"><title>Node9</title>
<polygon fill="white" stroke="#bfbfbf" points="334.5,-302.5 334.5,-321.5 419.5,-321.5 419.5,-302.5 334.5,-302.5"/>
<text text-anchor="middle" x="377" y="-309.5" font-family="Helvetica,sans-Serif" font-size="10.00">TClonesArray.h</text>
</g>
<!-- Node8&#45;&gt;Node9 -->
<g id="edge9" class="edge"><title>Node8&#45;&gt;Node9</title>
<path fill="none" stroke="midnightblue" d="M468.487,-358.324C450.928,-349.625 423.669,-336.12 403.469,-326.113"/>
<polygon fill="midnightblue" stroke="midnightblue" points="404.984,-322.958 394.469,-321.655 401.876,-329.23 404.984,-322.958"/>
</g>
<!-- Node10 -->
<g id="node10" class="node"><title>Node10</title>
<g id="a_node10"><a xlink:href="../../d3/d96/ExRootAnalysis_8hh.html" target="_top" xlink:title="exroot/ExRootAnalysis.hh">
<polygon fill="white" stroke="red" points="334.5,-246.5 334.5,-265.5 465.5,-265.5 465.5,-246.5 334.5,-246.5"/>
<text text-anchor="middle" x="400" y="-253.5" font-family="Helvetica,sans-Serif" font-size="10.00">exroot/ExRootAnalysis.hh</text>
</a>
</g>
</g>
<!-- Node8&#45;&gt;Node10 -->
<g id="edge10" class="edge"><title>Node8&#45;&gt;Node10</title>
<path fill="none" stroke="midnightblue" d="M479.252,-358.368C464.996,-340.135 431.606,-297.426 413.037,-273.675"/>
<polygon fill="midnightblue" stroke="midnightblue" points="415.634,-271.314 406.717,-265.591 410.119,-275.625 415.634,-271.314"/>
</g>
<!-- Node15 -->
<g id="node15" class="node"><title>Node15</title>
<g id="a_node15"><a xlink:href="../../db/d31/Sort_8hh.html" target="_top" xlink:title="Sort.hh">
<polygon fill="white" stroke="red" points="484,-246.5 484,-265.5 532,-265.5 532,-246.5 484,-246.5"/>
<text text-anchor="middle" x="508" y="-253.5" font-family="Helvetica,sans-Serif" font-size="10.00">Sort.hh</text>
</a>
</g>
</g>
<!-- Node8&#45;&gt;Node15 -->
<g id="edge15" class="edge"><title>Node8&#45;&gt;Node15</title>
<path fill="none" stroke="midnightblue" d="M487.726,-358.368C491.277,-340.617 499.467,-299.666 504.281,-275.597"/>
<polygon fill="midnightblue" stroke="midnightblue" points="507.753,-276.084 506.282,-265.591 500.888,-274.711 507.753,-276.084"/>
</g>
<!-- Node19 -->
<g id="node19" class="node"><title>Node19</title>
<g id="a_node19"><a xlink:href="../../d1/d8c/Tagger_8hh.html" target="_top" xlink:title="Tagger.hh">
<polygon fill="white" stroke="red" points="552,-302.5 552,-321.5 612,-321.5 612,-302.5 552,-302.5"/>
<text text-anchor="middle" x="582" y="-309.5" font-family="Helvetica,sans-Serif" font-size="10.00">Tagger.hh</text>
</a>
</g>
</g>
<!-- Node8&#45;&gt;Node19 -->
<g id="edge21" class="edge"><title>Node8&#45;&gt;Node19</title>
<path fill="none" stroke="midnightblue" d="M501.424,-358.324C516.54,-349.822 539.815,-336.729 557.471,-326.797"/>
<polygon fill="midnightblue" stroke="midnightblue" points="559.614,-329.608 566.614,-321.655 556.183,-323.507 559.614,-329.608"/>
</g>
<!-- Node32 -->
<g id="node32" class="node"><title>Node32</title>
<g id="a_node32"><a xlink:href="../../db/d60/Singlet_8hh.html" target="_top" xlink:title="Singlet.hh">
<polygon fill="white" stroke="red" points="93,-302.5 93,-321.5 153,-321.5 153,-302.5 93,-302.5"/>
<text text-anchor="middle" x="123" y="-309.5" font-family="Helvetica,sans-Serif" font-size="10.00">Singlet.hh</text>
</a>
</g>
</g>
<!-- Node8&#45;&gt;Node32 -->
<g id="edge39" class="edge"><title>Node8&#45;&gt;Node32</title>
<path fill="none" stroke="midnightblue" d="M435.268,-359.34C432.133,-358.882 429.024,-358.432 426,-358 311.553,-341.644 279.59,-343.598 163.243,-322.293"/>
<polygon fill="midnightblue" stroke="midnightblue" points="163.696,-318.817 153.226,-320.44 162.423,-325.7 163.696,-318.817"/>
</g>
<!-- Node33 -->
<g id="node33" class="node"><title>Node33</title>
<g id="a_node33"><a xlink:href="../../da/d59/PreCuts_8hh.html" target="_top" xlink:title="PreCuts.hh">
<polygon fill="white" stroke="red" points="630,-302.5 630,-321.5 696,-321.5 696,-302.5 630,-302.5"/>
<text text-anchor="middle" x="663" y="-309.5" font-family="Helvetica,sans-Serif" font-size="10.00">PreCuts.hh</text>
</a>
</g>
</g>
<!-- Node8&#45;&gt;Node33 -->
<g id="edge40" class="edge"><title>Node8&#45;&gt;Node33</title>
<path fill="none" stroke="midnightblue" d="M514.046,-358.444C544.082,-349.28 591.913,-334.688 625.243,-324.519"/>
<polygon fill="midnightblue" stroke="midnightblue" points="626.542,-327.782 635.085,-321.516 624.499,-321.087 626.542,-327.782"/>
</g>
<!-- Node11 -->
<g id="node11" class="node"><title>Node11</title>
<g id="a_node11"><a xlink:href="../../d6/dd8/Types_8hh.html" target="_top" xlink:title="Types.hh">
<polygon fill="white" stroke="black" points="366.5,-123.5 366.5,-142.5 423.5,-142.5 423.5,-123.5 366.5,-123.5"/>
<text text-anchor="middle" x="395" y="-130.5" font-family="Helvetica,sans-Serif" font-size="10.00">Types.hh</text>
</a>
</g>
</g>
<!-- Node10&#45;&gt;Node11 -->
<g id="edge11" class="edge"><title>Node10&#45;&gt;Node11</title>
<path fill="none" stroke="midnightblue" d="M399.64,-246.298C398.837,-226.85 396.88,-179.49 395.781,-152.904"/>
<polygon fill="midnightblue" stroke="midnightblue" points="399.266,-152.47 395.356,-142.623 392.272,-152.759 399.266,-152.47"/>
</g>
<!-- Node12 -->
<g id="node12" class="node"><title>Node12</title>
<polygon fill="white" stroke="#bfbfbf" points="406.5,-67.5 406.5,-86.5 447.5,-86.5 447.5,-67.5 406.5,-67.5"/>
<text text-anchor="middle" x="427" y="-74.5" font-family="Helvetica,sans-Serif" font-size="10.00">string</text>
</g>
<!-- Node11&#45;&gt;Node12 -->
<g id="edge12" class="edge"><title>Node11&#45;&gt;Node12</title>
<path fill="none" stroke="midnightblue" d="M400.284,-123.083C404.711,-115.613 411.163,-104.724 416.618,-95.5199"/>
<polygon fill="midnightblue" stroke="midnightblue" points="419.727,-97.1383 421.814,-86.7511 413.705,-93.5697 419.727,-97.1383"/>
</g>
<!-- Node13 -->
<g id="node13" class="node"><title>Node13</title>
<g id="a_node13"><a xlink:href="../../dc/d45/Units_8hh.html" target="_top" xlink:title="Units.hh">
<polygon fill="white" stroke="red" points="335.5,-67.5 335.5,-86.5 388.5,-86.5 388.5,-67.5 335.5,-67.5"/>
<text text-anchor="middle" x="362" y="-74.5" font-family="Helvetica,sans-Serif" font-size="10.00">Units.hh</text>
</a>
</g>
</g>
<!-- Node11&#45;&gt;Node13 -->
<g id="edge13" class="edge"><title>Node11&#45;&gt;Node13</title>
<path fill="none" stroke="midnightblue" d="M389.551,-123.083C384.986,-115.613 378.332,-104.724 372.707,-95.5199"/>
<polygon fill="midnightblue" stroke="midnightblue" points="375.549,-93.4588 367.348,-86.7511 369.576,-97.109 375.549,-93.4588"/>
</g>
<!-- Node14 -->
<g id="node14" class="node"><title>Node14</title>
<polygon fill="white" stroke="#bfbfbf" points="795.5,-0.5 795.5,-30.5 900.5,-30.5 900.5,-0.5 795.5,-0.5"/>
<text text-anchor="start" x="803.5" y="-18.5" font-family="Helvetica,sans-Serif" font-size="10.00">boost/units/systems</text>
<text text-anchor="middle" x="848" y="-7.5" font-family="Helvetica,sans-Serif" font-size="10.00">/si/io.hpp</text>
</g>
<!-- Node13&#45;&gt;Node14 -->
<g id="edge14" class="edge"><title>Node13&#45;&gt;Node14</title>
<path fill="none" stroke="midnightblue" d="M388.667,-68.732C391.469,-68.0916 394.285,-67.4986 397,-67 534.342,-41.781 697.68,-27.2763 785.192,-20.7381"/>
<polygon fill="midnightblue" stroke="midnightblue" points="785.508,-24.2244 795.224,-19.9987 784.993,-17.2433 785.508,-24.2244"/>
</g>
<!-- Node16 -->
<g id="node16" class="node"><title>Node16</title>
<polygon fill="white" stroke="#bfbfbf" points="788,-185 788,-204 832,-204 832,-185 788,-185"/>
<text text-anchor="middle" x="810" y="-192" font-family="Helvetica,sans-Serif" font-size="10.00">vector</text>
</g>
<!-- Node15&#45;&gt;Node16 -->
<g id="edge16" class="edge"><title>Node15&#45;&gt;Node16</title>
<path fill="none" stroke="midnightblue" d="M532.094,-248.188C535.084,-247.414 538.106,-246.665 541,-246 625.956,-226.474 727.29,-209 777.902,-200.664"/>
<polygon fill="midnightblue" stroke="midnightblue" points="778.605,-204.096 787.908,-199.026 777.474,-197.188 778.605,-204.096"/>
</g>
<!-- Node17 -->
<g id="node17" class="node"><title>Node17</title>
<polygon fill="white" stroke="#bfbfbf" points="609.5,-67.5 609.5,-86.5 716.5,-86.5 716.5,-67.5 609.5,-67.5"/>
<text text-anchor="middle" x="663" y="-74.5" font-family="Helvetica,sans-Serif" font-size="10.00">fastjet/PseudoJet.hh</text>
</g>
<!-- Node15&#45;&gt;Node17 -->
<g id="edge17" class="edge"><title>Node15&#45;&gt;Node17</title>
<path fill="none" stroke="midnightblue" d="M511.436,-246.437C517.587,-231.721 531.492,-201.087 549,-179 576.941,-143.751 618.085,-110.751 642.549,-92.5751"/>
<polygon fill="midnightblue" stroke="midnightblue" points="644.748,-95.3027 650.752,-86.5728 640.614,-89.6535 644.748,-95.3027"/>
</g>
<!-- Node18 -->
<g id="node18" class="node"><title>Node18</title>
<g id="a_node18"><a xlink:href="../../db/da5/Particles_8hh.html" target="_top" xlink:title="Particles.hh">
<polygon fill="white" stroke="black" points="266,-185 266,-204 334,-204 334,-185 266,-185"/>
<text text-anchor="middle" x="300" y="-192" font-family="Helvetica,sans-Serif" font-size="10.00">Particles.hh</text>
</a>
</g>
</g>
<!-- Node15&#45;&gt;Node18 -->
<g id="edge18" class="edge"><title>Node15&#45;&gt;Node18</title>
<path fill="none" stroke="midnightblue" d="M483.733,-248.058C448.314,-237.926 382.063,-218.975 339.543,-206.812"/>
<polygon fill="midnightblue" stroke="midnightblue" points="340.379,-203.41 329.802,-204.025 338.454,-210.141 340.379,-203.41"/>
</g>
<!-- Node18&#45;&gt;Node12 -->
<g id="edge19" class="edge"><title>Node18&#45;&gt;Node12</title>
<path fill="none" stroke="midnightblue" d="M305.566,-184.954C314.992,-170.906 335.206,-142.547 357,-123 370.545,-110.851 387.703,-99.7654 401.643,-91.6364"/>
<polygon fill="midnightblue" stroke="midnightblue" points="403.722,-94.4812 410.694,-86.5044 400.269,-88.3918 403.722,-94.4812"/>
</g>
<!-- Node18&#45;&gt;Node13 -->
<g id="edge20" class="edge"><title>Node18&#45;&gt;Node13</title>
<path fill="none" stroke="midnightblue" d="M301.848,-184.821C305.014,-171.069 312.289,-143.708 324,-123 329.965,-112.453 338.55,-102.028 346.051,-93.8721"/>
<polygon fill="midnightblue" stroke="midnightblue" points="348.67,-96.1974 353.054,-86.5521 343.612,-91.3584 348.67,-96.1974"/>
</g>
<!-- Node20 -->
<g id="node20" class="node"><title>Node20</title>
<g id="a_node20"><a xlink:href="../../d3/d7e/Vector_8hh.html" target="_top" xlink:title="Vector.hh">
<polygon fill="white" stroke="red" points="142.5,-246.5 142.5,-265.5 201.5,-265.5 201.5,-246.5 142.5,-246.5"/>
<text text-anchor="middle" x="172" y="-253.5" font-family="Helvetica,sans-Serif" font-size="10.00">Vector.hh</text>
</a>
</g>
</g>
<!-- Node19&#45;&gt;Node20 -->
<g id="edge22" class="edge"><title>Node19&#45;&gt;Node20</title>
<path fill="none" stroke="midnightblue" d="M551.852,-307.029C479.037,-297.439 293.57,-273.012 211.779,-262.239"/>
<polygon fill="midnightblue" stroke="midnightblue" points="212.011,-258.74 201.64,-260.904 211.097,-265.68 212.011,-258.74"/>
</g>
<!-- Node19&#45;&gt;Node23 -->
<g id="edge26" class="edge"><title>Node19&#45;&gt;Node23</title>
<path fill="none" stroke="midnightblue" d="M612.157,-303.631C615.134,-303.027 618.119,-302.469 621,-302 779.109,-276.252 969.907,-263.507 1049.85,-258.982"/>
<polygon fill="midnightblue" stroke="midnightblue" points="1050.15,-262.471 1059.94,-258.422 1049.76,-255.482 1050.15,-262.471"/>
</g>
<!-- Node19&#45;&gt;Node30 -->
<g id="edge37" class="edge"><title>Node19&#45;&gt;Node30</title>
<path fill="none" stroke="midnightblue" d="M582.826,-302.083C583.481,-295.006 584.42,-284.861 585.242,-275.986"/>
<polygon fill="midnightblue" stroke="midnightblue" points="588.753,-276.031 586.19,-265.751 581.783,-275.386 588.753,-276.031"/>
</g>
<!-- Node20&#45;&gt;Node18 -->
<g id="edge25" class="edge"><title>Node20&#45;&gt;Node18</title>
<path fill="none" stroke="midnightblue" d="M190.339,-246.475C211.821,-236.49 247.622,-219.848 272.448,-208.307"/>
<polygon fill="midnightblue" stroke="midnightblue" points="274.102,-211.398 281.695,-204.009 271.151,-205.051 274.102,-211.398"/>
</g>
<!-- Node21 -->
<g id="node21" class="node"><title>Node21</title>
<polygon fill="white" stroke="#bfbfbf" points="0,-179.5 0,-209.5 110,-209.5 110,-179.5 0,-179.5"/>
<text text-anchor="start" x="8" y="-197.5" font-family="Helvetica,sans-Serif" font-size="10.00">boost/range/algorithm</text>
<text text-anchor="middle" x="55" y="-186.5" font-family="Helvetica,sans-Serif" font-size="10.00">_ext/erase.hpp</text>
</g>
<!-- Node20&#45;&gt;Node21 -->
<g id="edge23" class="edge"><title>Node20&#45;&gt;Node21</title>
<path fill="none" stroke="midnightblue" d="M155.237,-246.475C138.724,-238.078 112.955,-224.973 91.6797,-214.153"/>
<polygon fill="midnightblue" stroke="midnightblue" points="93.0747,-210.936 82.5746,-209.523 89.9016,-217.176 93.0747,-210.936"/>
</g>
<!-- Node22 -->
<g id="node22" class="node"><title>Node22</title>
<polygon fill="white" stroke="#bfbfbf" points="128,-179.5 128,-209.5 238,-209.5 238,-179.5 128,-179.5"/>
<text text-anchor="start" x="136" y="-197.5" font-family="Helvetica,sans-Serif" font-size="10.00">boost/range/algorithm</text>
<text text-anchor="middle" x="183" y="-186.5" font-family="Helvetica,sans-Serif" font-size="10.00">/min_element.hpp</text>
</g>
<!-- Node20&#45;&gt;Node22 -->
<g id="edge24" class="edge"><title>Node20&#45;&gt;Node22</title>
<path fill="none" stroke="midnightblue" d="M173.576,-246.475C174.885,-239.396 176.812,-228.97 178.583,-219.39"/>
<polygon fill="midnightblue" stroke="midnightblue" points="182.031,-219.993 180.408,-209.523 175.148,-218.72 182.031,-219.993"/>
</g>
<!-- Node24 -->
<g id="node24" class="node"><title>Node24</title>
<g id="a_node24"><a xlink:href="../../d0/d6b/Partons_8hh.html" target="_top" xlink:title="Partons.hh">
<polygon fill="white" stroke="black" points="974,-185 974,-204 1038,-204 1038,-185 974,-185"/>
<text text-anchor="middle" x="1006" y="-192" font-family="Helvetica,sans-Serif" font-size="10.00">Partons.hh</text>
</a>
</g>
</g>
<!-- Node23&#45;&gt;Node24 -->
<g id="edge27" class="edge"><title>Node23&#45;&gt;Node24</title>
<path fill="none" stroke="midnightblue" d="M1076.25,-246.475C1063.22,-237.02 1041.96,-221.596 1026.24,-210.187"/>
<polygon fill="midnightblue" stroke="midnightblue" points="1027.88,-207.049 1017.73,-204.009 1023.77,-212.715 1027.88,-207.049"/>
</g>
<!-- Node28 -->
<g id="node28" class="node"><title>Node28</title>
<g id="a_node28"><a xlink:href="../../d7/dac/Leptons_8hh.html" target="_top" xlink:title="Leptons.hh">
<polygon fill="white" stroke="black" points="1056.5,-185 1056.5,-204 1121.5,-204 1121.5,-185 1056.5,-185"/>
<text text-anchor="middle" x="1089" y="-192" font-family="Helvetica,sans-Serif" font-size="10.00">Leptons.hh</text>
</a>
</g>
</g>
<!-- Node23&#45;&gt;Node28 -->
<g id="edge32" class="edge"><title>Node23&#45;&gt;Node28</title>
<path fill="none" stroke="midnightblue" d="M1088.14,-246.475C1088.28,-238.08 1088.5,-224.981 1088.69,-214.163"/>
<polygon fill="midnightblue" stroke="midnightblue" points="1092.19,-214.067 1088.86,-204.009 1085.19,-213.949 1092.19,-214.067"/>
</g>
<!-- Node29 -->
<g id="node29" class="node"><title>Node29</title>
<g id="a_node29"><a xlink:href="../../dd/dee/Hadrons_8hh.html" target="_top" xlink:title="Hadrons.hh">
<polygon fill="white" stroke="black" points="888.5,-185 888.5,-204 955.5,-204 955.5,-185 888.5,-185"/>
<text text-anchor="middle" x="922" y="-192" font-family="Helvetica,sans-Serif" font-size="10.00">Hadrons.hh</text>
</a>
</g>
</g>
<!-- Node23&#45;&gt;Node29 -->
<g id="edge34" class="edge"><title>Node23&#45;&gt;Node29</title>
<path fill="none" stroke="midnightblue" d="M1064.22,-246.475C1035.62,-236.225 987.449,-218.959 955.198,-207.399"/>
<polygon fill="midnightblue" stroke="midnightblue" points="956.334,-204.089 945.74,-204.009 953.972,-210.678 956.334,-204.089"/>
</g>
<!-- Node25 -->
<g id="node25" class="node"><title>Node25</title>
<g id="a_node25"><a xlink:href="../../df/dbc/FourVector_8hh.html" target="_top" xlink:title="FourVector.hh">
<polygon fill="white" stroke="red" points="1152,-123.5 1152,-142.5 1230,-142.5 1230,-123.5 1152,-123.5"/>
<text text-anchor="middle" x="1191" y="-130.5" font-family="Helvetica,sans-Serif" font-size="10.00">FourVector.hh</text>
</a>
</g>
</g>
<!-- Node24&#45;&gt;Node25 -->
<g id="edge28" class="edge"><title>Node24&#45;&gt;Node25</title>
<path fill="none" stroke="midnightblue" d="M1030.39,-184.952C1036.15,-182.967 1042.29,-180.885 1048,-179 1083.6,-167.257 1124.4,-154.485 1153.29,-145.557"/>
<polygon fill="midnightblue" stroke="midnightblue" points="1154.45,-148.86 1162.98,-142.568 1152.39,-142.171 1154.45,-148.86"/>
</g>
<!-- Node25&#45;&gt;Node17 -->
<g id="edge31" class="edge"><title>Node25&#45;&gt;Node17</title>
<path fill="none" stroke="midnightblue" d="M1151.97,-125.038C1147.27,-124.298 1142.53,-123.599 1138,-123 991.318,-103.625 818.086,-89.3798 726.759,-82.5384"/>
<polygon fill="midnightblue" stroke="midnightblue" points="726.804,-79.0321 716.571,-81.7805 726.284,-86.0128 726.804,-79.0321"/>
</g>
<!-- Node26 -->
<g id="node26" class="node"><title>Node26</title>
<polygon fill="white" stroke="#bfbfbf" points="1170,-67.5 1170,-86.5 1220,-86.5 1220,-67.5 1170,-67.5"/>
<text text-anchor="middle" x="1195" y="-74.5" font-family="Helvetica,sans-Serif" font-size="10.00">iomanip</text>
</g>
<!-- Node25&#45;&gt;Node26 -->
<g id="edge29" class="edge"><title>Node25&#45;&gt;Node26</title>
<path fill="none" stroke="midnightblue" d="M1191.66,-123.083C1192.18,-116.006 1192.94,-105.861 1193.59,-96.9865"/>
<polygon fill="midnightblue" stroke="midnightblue" points="1197.1,-96.9823 1194.35,-86.7511 1190.12,-96.4652 1197.1,-96.9823"/>
</g>
<!-- Node27 -->
<g id="node27" class="node"><title>Node27</title>
<polygon fill="white" stroke="#bfbfbf" points="1243,-67.5 1243,-86.5 1297,-86.5 1297,-67.5 1243,-67.5"/>
<text text-anchor="middle" x="1270" y="-74.5" font-family="Helvetica,sans-Serif" font-size="10.00">iostream</text>
</g>
<!-- Node25&#45;&gt;Node27 -->
<g id="edge30" class="edge"><title>Node25&#45;&gt;Node27</title>
<path fill="none" stroke="midnightblue" d="M1203.69,-123.324C1215.9,-114.979 1234.58,-102.212 1249,-92.3524"/>
<polygon fill="midnightblue" stroke="midnightblue" points="1251.06,-95.1871 1257.34,-86.6545 1247.11,-89.4082 1251.06,-95.1871"/>
</g>
<!-- Node28&#45;&gt;Node25 -->
<g id="edge33" class="edge"><title>Node28&#45;&gt;Node25</title>
<path fill="none" stroke="midnightblue" d="M1103.61,-184.975C1120.35,-175.211 1148,-159.081 1167.72,-147.581"/>
<polygon fill="midnightblue" stroke="midnightblue" points="1169.54,-150.571 1176.41,-142.509 1166.01,-144.525 1169.54,-150.571"/>
</g>
<!-- Node29&#45;&gt;Node11 -->
<g id="edge35" class="edge"><title>Node29&#45;&gt;Node11</title>
<path fill="none" stroke="midnightblue" d="M888.2,-186.853C873.707,-184.158 856.563,-181.175 841,-179 691.015,-158.04 511.343,-142.943 433.781,-136.907"/>
<polygon fill="midnightblue" stroke="midnightblue" points="433.768,-133.396 423.528,-136.116 433.229,-140.375 433.768,-133.396"/>
</g>
<!-- Node29&#45;&gt;Node25 -->
<g id="edge36" class="edge"><title>Node29&#45;&gt;Node25</title>
<path fill="none" stroke="midnightblue" d="M945.49,-184.971C951.779,-182.855 958.606,-180.707 965,-179 1025.19,-162.931 1095.78,-149.76 1141.84,-141.908"/>
<polygon fill="midnightblue" stroke="midnightblue" points="1142.58,-145.333 1151.86,-140.218 1141.42,-138.43 1142.58,-145.333"/>
</g>
<!-- Node31 -->
<g id="node31" class="node"><title>Node31</title>
<polygon fill="white" stroke="#bfbfbf" points="557.5,-185 557.5,-204 616.5,-204 616.5,-185 557.5,-185"/>
<text text-anchor="middle" x="587" y="-192" font-family="Helvetica,sans-Serif" font-size="10.00">stdexcept</text>
</g>
<!-- Node30&#45;&gt;Node31 -->
<g id="edge38" class="edge"><title>Node30&#45;&gt;Node31</title>
<path fill="none" stroke="midnightblue" d="M587,-246.475C587,-238.08 587,-224.981 587,-214.163"/>
<polygon fill="midnightblue" stroke="midnightblue" points="590.5,-214.009 587,-204.009 583.5,-214.009 590.5,-214.009"/>
</g>
<!-- Node33&#45;&gt;Node17 -->
<g id="edge41" class="edge"><title>Node33&#45;&gt;Node17</title>
<path fill="none" stroke="midnightblue" d="M663,-302.431C663,-268.754 663,-144.994 663,-97.1018"/>
<polygon fill="midnightblue" stroke="midnightblue" points="666.5,-96.8957 663,-86.8958 659.5,-96.8958 666.5,-96.8957"/>
</g>
<!-- Node34&#45;&gt;Node32 -->
<g id="edge47" class="edge"><title>Node34&#45;&gt;Node32</title>
<path fill="none" stroke="midnightblue" d="M159.68,-414.496C156.203,-401.993 149.268,-377.971 142,-358 138.697,-348.923 134.571,-339.014 131.01,-330.811"/>
<polygon fill="midnightblue" stroke="midnightblue" points="134.148,-329.255 126.904,-321.524 127.746,-332.085 134.148,-329.255"/>
</g>
<!-- Node35 -->
<g id="node35" class="node"><title>Node35</title>
<g id="a_node35"><a xlink:href="../../d0/d32/TwoBody_8hh.html" target="_top" xlink:title="TwoBody.hh">
<polygon fill="white" stroke="red" points="62.5,-358.5 62.5,-377.5 133.5,-377.5 133.5,-358.5 62.5,-358.5"/>
<text text-anchor="middle" x="98" y="-365.5" font-family="Helvetica,sans-Serif" font-size="10.00">TwoBody.hh</text>
</a>
</g>
</g>
<!-- Node34&#45;&gt;Node35 -->
<g id="edge44" class="edge"><title>Node34&#45;&gt;Node35</title>
<path fill="none" stroke="midnightblue" d="M151.717,-414.324C142.164,-406.263 127.72,-394.077 116.216,-384.369"/>
<polygon fill="midnightblue" stroke="midnightblue" points="118.37,-381.608 108.47,-377.834 113.856,-386.958 118.37,-381.608"/>
</g>
<!-- Node35&#45;&gt;Node20 -->
<g id="edge46" class="edge"><title>Node35&#45;&gt;Node20</title>
<path fill="none" stroke="midnightblue" d="M92.4185,-358.339C84.7374,-345.214 73.0358,-319.921 84,-302 94.7031,-284.506 114.594,-273.538 132.76,-266.816"/>
<polygon fill="midnightblue" stroke="midnightblue" points="133.967,-270.102 142.324,-263.59 131.73,-263.469 133.967,-270.102"/>
</g>
<!-- Node35&#45;&gt;Node32 -->
<g id="edge45" class="edge"><title>Node35&#45;&gt;Node32</title>
<path fill="none" stroke="midnightblue" d="M102.128,-358.083C105.514,-350.77 110.416,-340.181 114.619,-331.103"/>
<polygon fill="midnightblue" stroke="midnightblue" points="117.923,-332.296 118.949,-321.751 111.571,-329.355 117.923,-332.296"/>
</g>
<!-- Node36&#45;&gt;Node19 -->
<g id="edge53" class="edge"><title>Node36&#45;&gt;Node19</title>
<path fill="none" stroke="midnightblue" d="M728.429,-358.444C698.903,-349.28 651.882,-334.688 619.117,-324.519"/>
<polygon fill="midnightblue" stroke="midnightblue" points="620.03,-321.138 609.442,-321.516 617.955,-327.823 620.03,-321.138"/>
</g>
<!-- Node36&#45;&gt;Node33 -->
<g id="edge52" class="edge"><title>Node36&#45;&gt;Node33</title>
<path fill="none" stroke="midnightblue" d="M741.058,-358.324C726.415,-349.822 703.866,-336.729 686.762,-326.797"/>
<polygon fill="midnightblue" stroke="midnightblue" points="688.31,-323.649 677.905,-321.655 684.795,-329.703 688.31,-323.649"/>
</g>
<!-- Node37 -->
<g id="node37" class="node"><title>Node37</title>
<polygon fill="white" stroke="#bfbfbf" points="816,-302.5 816,-321.5 868,-321.5 868,-302.5 816,-302.5"/>
<text text-anchor="middle" x="842" y="-309.5" font-family="Helvetica,sans-Serif" font-size="10.00">memory</text>
</g>
<!-- Node36&#45;&gt;Node37 -->
<g id="edge49" class="edge"><title>Node36&#45;&gt;Node37</title>
<path fill="none" stroke="midnightblue" d="M769.817,-358.324C783.233,-349.9 803.824,-336.971 819.586,-327.074"/>
<polygon fill="midnightblue" stroke="midnightblue" points="821.609,-329.936 828.217,-321.655 817.887,-324.008 821.609,-329.936"/>
</g>
<!-- Node38 -->
<g id="node38" class="node"><title>Node38</title>
<polygon fill="white" stroke="#bfbfbf" points="886.5,-302.5 886.5,-321.5 973.5,-321.5 973.5,-302.5 886.5,-302.5"/>
<text text-anchor="middle" x="930" y="-309.5" font-family="Helvetica,sans-Serif" font-size="10.00">TMVA/Reader.h</text>
</g>
<!-- Node36&#45;&gt;Node38 -->
<g id="edge50" class="edge"><title>Node36&#45;&gt;Node38</title>
<path fill="none" stroke="midnightblue" d="M783.571,-358.444C813.097,-349.28 860.118,-334.688 892.883,-324.519"/>
<polygon fill="midnightblue" stroke="midnightblue" points="894.045,-327.823 902.558,-321.516 891.97,-321.138 894.045,-327.823"/>
</g>
<!-- Node39 -->
<g id="node39" class="node"><title>Node39</title>
<g id="a_node39"><a xlink:href="../../d5/d85/ReaderBase_8hh.html" target="_top" xlink:title="ReaderBase.hh">
<polygon fill="white" stroke="red" points="714,-302.5 714,-321.5 798,-321.5 798,-302.5 714,-302.5"/>
<text text-anchor="middle" x="756" y="-309.5" font-family="Helvetica,sans-Serif" font-size="10.00">ReaderBase.hh</text>
</a>
</g>
</g>
<!-- Node36&#45;&gt;Node39 -->
<g id="edge51" class="edge"><title>Node36&#45;&gt;Node39</title>
<path fill="none" stroke="midnightblue" d="M756,-358.083C756,-351.006 756,-340.861 756,-331.986"/>
<polygon fill="midnightblue" stroke="midnightblue" points="759.5,-331.751 756,-321.751 752.5,-331.751 759.5,-331.751"/>
</g>
<!-- Node40 -->
<g id="node40" class="node"><title>Node40</title>
<g id="a_node40"><a xlink:href="../../dc/d76/Options_8hh.html" target="_top" xlink:title="Options.hh">
<polygon fill="white" stroke="black" points="1134,-246.5 1134,-265.5 1198,-265.5 1198,-246.5 1134,-246.5"/>
<text text-anchor="middle" x="1166" y="-253.5" font-family="Helvetica,sans-Serif" font-size="10.00">Options.hh</text>
</a>
</g>
</g>
<!-- Node36&#45;&gt;Node40 -->
<g id="edge54" class="edge"><title>Node36&#45;&gt;Node40</title>
<path fill="none" stroke="midnightblue" d="M787.175,-362.297C831.237,-355.316 914.048,-340.971 983,-322 1037.82,-306.916 1099.83,-283.498 1135.77,-269.271"/>
<polygon fill="midnightblue" stroke="midnightblue" points="1137.19,-272.472 1145.18,-265.517 1134.6,-265.969 1137.19,-272.472"/>
</g>
<!-- Node41 -->
<g id="node41" class="node"><title>Node41</title>
<polygon fill="white" stroke="#bfbfbf" points="1140,-185 1140,-204 1192,-204 1192,-185 1140,-185"/>
<text text-anchor="middle" x="1166" y="-192" font-family="Helvetica,sans-Serif" font-size="10.00">sstream</text>
</g>
<!-- Node40&#45;&gt;Node41 -->
<g id="edge55" class="edge"><title>Node40&#45;&gt;Node41</title>
<path fill="none" stroke="midnightblue" d="M1166,-246.475C1166,-238.08 1166,-224.981 1166,-214.163"/>
<polygon fill="midnightblue" stroke="midnightblue" points="1169.5,-214.009 1166,-204.009 1162.5,-214.009 1169.5,-214.009"/>
</g>
<!-- Node42&#45;&gt;Node34 -->
<g id="edge57" class="edge"><title>Node42&#45;&gt;Node34</title>
<path fill="none" stroke="midnightblue" d="M162,-470.083C162,-463.006 162,-452.861 162,-443.986"/>
<polygon fill="midnightblue" stroke="midnightblue" points="165.5,-443.751 162,-433.751 158.5,-443.751 165.5,-443.751"/>
</g>
<!-- Node43 -->
<g id="node43" class="node"><title>Node43</title>
<g id="a_node43"><a xlink:href="../../d1/dcf/SubJettiness_8hh.html" target="_top" xlink:title="SubJettiness.hh">
<polygon fill="white" stroke="black" points="24.5,-414.5 24.5,-433.5 111.5,-433.5 111.5,-414.5 24.5,-414.5"/>
<text text-anchor="middle" x="68" y="-421.5" font-family="Helvetica,sans-Serif" font-size="10.00">SubJettiness.hh</text>
</a>
</g>
</g>
<!-- Node42&#45;&gt;Node43 -->
<g id="edge58" class="edge"><title>Node42&#45;&gt;Node43</title>
<path fill="none" stroke="midnightblue" d="M146.897,-470.324C132.097,-461.822 109.306,-448.729 92.0178,-438.797"/>
<polygon fill="midnightblue" stroke="midnightblue" points="93.4798,-435.601 83.0652,-433.655 89.9929,-441.671 93.4798,-435.601"/>
</g>
<!-- Node44&#45;&gt;Node17 -->
<g id="edge61" class="edge"><title>Node44&#45;&gt;Node17</title>
<path fill="none" stroke="midnightblue" d="M236.477,-302.332C255.282,-289.415 292.182,-264.641 325,-246 436.766,-182.517 575.695,-117.686 634.544,-90.8435"/>
<polygon fill="midnightblue" stroke="midnightblue" points="636.279,-93.8996 643.933,-86.5738 633.381,-87.5275 636.279,-93.8996"/>
</g>
<!-- Node44&#45;&gt;Node18 -->
<g id="edge60" class="edge"><title>Node44&#45;&gt;Node18</title>
<path fill="none" stroke="midnightblue" d="M227.093,-302.145C231.827,-289.205 241.635,-264.644 254,-246 262.398,-233.337 273.912,-220.7 283.32,-211.234"/>
<polygon fill="midnightblue" stroke="midnightblue" points="285.913,-213.594 290.612,-204.098 281.017,-208.591 285.913,-213.594"/>
</g>
<!-- Node44&#45;&gt;Node20 -->
<g id="edge62" class="edge"><title>Node44&#45;&gt;Node20</title>
<path fill="none" stroke="midnightblue" d="M215.413,-302.083C207.841,-294.22 196.622,-282.569 187.486,-273.081"/>
<polygon fill="midnightblue" stroke="midnightblue" points="189.885,-270.527 180.427,-265.751 184.842,-275.382 189.885,-270.527"/>
</g>
<!-- Node46 -->
<g id="node46" class="node"><title>Node46</title>
<polygon fill="white" stroke="#bfbfbf" points="963.5,-470.5 963.5,-489.5 1078.5,-489.5 1078.5,-470.5 963.5,-470.5"/>
<text text-anchor="middle" x="1021" y="-477.5" font-family="Helvetica,sans-Serif" font-size="10.00">fastjet/JetDefinition.hh</text>
</g>
<!-- Node45&#45;&gt;Node46 -->
<g id="edge65" class="edge"><title>Node45&#45;&gt;Node46</title>
<path fill="none" stroke="midnightblue" d="M913.909,-531.975C934.887,-521.99 969.85,-505.348 994.093,-493.807"/>
<polygon fill="midnightblue" stroke="midnightblue" points="995.599,-496.967 1003.12,-489.509 992.59,-490.647 995.599,-496.967"/>
</g>
<!-- Node47&#45;&gt;Node17 -->
<g id="edge67" class="edge"><title>Node47&#45;&gt;Node17</title>
<path fill="none" stroke="midnightblue" d="M740.919,-531.964C825.511,-506.824 1051.02,-426.892 998,-302 983.998,-269.017 968.436,-267.803 940,-246 915.321,-227.077 905.561,-227.713 880,-210 861.801,-197.388 859.351,-191.39 841,-179 789.32,-144.107 724.842,-109.588 689.402,-91.3294"/>
<polygon fill="midnightblue" stroke="midnightblue" points="690.708,-88.0656 680.211,-86.6238 687.518,-94.2965 690.708,-88.0656"/>
</g>
<!-- Node48 -->
<g id="node48" class="node"><title>Node48</title>
<g id="a_node48"><a xlink:href="../../d0/d9c/Family_8hh.html" target="_top" xlink:title="Family.hh">
<polygon fill="white" stroke="black" points="675.5,-470.5 675.5,-489.5 734.5,-489.5 734.5,-470.5 675.5,-470.5"/>
<text text-anchor="middle" x="705" y="-477.5" font-family="Helvetica,sans-Serif" font-size="10.00">Family.hh</text>
</a>
</g>
</g>
<!-- Node47&#45;&gt;Node48 -->
<g id="edge68" class="edge"><title>Node47&#45;&gt;Node48</title>
<path fill="none" stroke="midnightblue" d="M709.284,-531.975C708.578,-523.58 707.477,-510.481 706.568,-499.663"/>
<polygon fill="midnightblue" stroke="midnightblue" points="710.04,-499.181 705.715,-489.509 703.065,-499.767 710.04,-499.181"/>
</g>
<!-- Node48&#45;&gt;Node4 -->
<g id="edge70" class="edge"><title>Node48&#45;&gt;Node4</title>
<path fill="none" stroke="midnightblue" d="M675.357,-470.916C640.993,-461.544 584.224,-446.061 546.228,-435.699"/>
<polygon fill="midnightblue" stroke="midnightblue" points="547.09,-432.306 536.521,-433.051 545.248,-439.059 547.09,-432.306"/>
</g>
<!-- Node48&#45;&gt;Node16 -->
<g id="edge69" class="edge"><title>Node48&#45;&gt;Node16</title>
<path fill="none" stroke="midnightblue" d="M734.629,-472.632C794.37,-458.012 928.233,-415.826 983,-322 987.481,-314.323 987.335,-309.76 983,-302 966.974,-273.315 882.629,-229.967 837.906,-208.497"/>
<polygon fill="midnightblue" stroke="midnightblue" points="839.278,-205.274 828.744,-204.139 836.271,-211.595 839.278,-205.274"/>
</g>
<!-- Node49 -->
<g id="node49" class="node"><title>Node49</title>
<g id="a_node49"><a xlink:href="../../dd/df5/Particle_8hh.html" target="_top" xlink:title="Particle.hh">
<polygon fill="white" stroke="red" points="354.5,-358.5 354.5,-377.5 417.5,-377.5 417.5,-358.5 354.5,-358.5"/>
<text text-anchor="middle" x="386" y="-365.5" font-family="Helvetica,sans-Serif" font-size="10.00">Particle.hh</text>
</a>
</g>
</g>
<!-- Node48&#45;&gt;Node49 -->
<g id="edge71" class="edge"><title>Node48&#45;&gt;Node49</title>
<path fill="none" stroke="midnightblue" d="M686.176,-470.486C656.683,-457.334 597.609,-431.742 546,-414 506.357,-400.372 460.181,-387.719 427.653,-379.324"/>
<polygon fill="midnightblue" stroke="midnightblue" points="428.153,-375.839 417.598,-376.752 426.418,-382.621 428.153,-375.839"/>
</g>
<!-- Node49&#45;&gt;Node18 -->
<g id="edge72" class="edge"><title>Node49&#45;&gt;Node18</title>
<path fill="none" stroke="midnightblue" d="M367.876,-358.358C353.936,-350.75 335.36,-338.337 325,-322 303.695,-288.404 299.922,-240.496 299.606,-214.333"/>
<polygon fill="midnightblue" stroke="midnightblue" points="303.107,-214.278 299.648,-204.264 296.107,-214.249 303.107,-214.278"/>
</g>
<!-- Node50&#45;&gt;Node12 -->
<g id="edge75" class="edge"><title>Node50&#45;&gt;Node12</title>
<path fill="none" stroke="midnightblue" d="M1243.58,-246.164C1238.6,-229.854 1225.58,-195.208 1201,-179 1137.73,-137.28 594.065,-91.3539 457.848,-80.4264"/>
<polygon fill="midnightblue" stroke="midnightblue" points="457.942,-76.9229 447.696,-79.6164 457.385,-83.9007 457.942,-76.9229"/>
</g>
<!-- Node50&#45;&gt;Node14 -->
<g id="edge80" class="edge"><title>Node50&#45;&gt;Node14</title>
<path fill="none" stroke="midnightblue" d="M1257.29,-246.325C1267.12,-238.104 1280.87,-224.832 1288,-210 1315.75,-152.268 1348.74,-114.713 1306,-67 1280.1,-38.0876 1030.2,-23.9876 910.853,-18.8589"/>
<polygon fill="midnightblue" stroke="midnightblue" points="910.897,-15.3578 900.759,-18.4332 910.602,-22.3516 910.897,-15.3578"/>
</g>
<!-- Node50&#45;&gt;Node16 -->
<g id="edge76" class="edge"><title>Node50&#45;&gt;Node16</title>
<path fill="none" stroke="midnightblue" d="M1216.26,-247.759C1213.14,-247.114 1210.01,-246.512 1207,-246 1062.85,-221.52 1024.41,-232.854 880,-210 867.58,-208.034 854.026,-205.353 842.181,-202.831"/>
<polygon fill="midnightblue" stroke="midnightblue" points="842.8,-199.384 832.284,-200.677 841.311,-206.224 842.8,-199.384"/>
</g>
<!-- Node50&#45;&gt;Node26 -->
<g id="edge78" class="edge"><title>Node50&#45;&gt;Node26</title>
<path fill="none" stroke="midnightblue" d="M1247.58,-246.18C1251.09,-224.237 1257.81,-165.869 1239,-123 1233.89,-111.356 1224.33,-101 1215.43,-93.1658"/>
<polygon fill="midnightblue" stroke="midnightblue" points="1217.53,-90.3613 1207.58,-86.7163 1213.08,-95.7695 1217.53,-90.3613"/>
</g>
<!-- Node50&#45;&gt;Node27 -->
<g id="edge79" class="edge"><title>Node50&#45;&gt;Node27</title>
<path fill="none" stroke="midnightblue" d="M1252.89,-246.319C1259.27,-237.684 1268.31,-223.77 1272,-210 1282.55,-170.661 1277.49,-122.333 1273.41,-96.4503"/>
<polygon fill="midnightblue" stroke="midnightblue" points="1276.85,-95.804 1271.71,-86.5364 1269.95,-96.9831 1276.85,-95.804"/>
</g>
<!-- Node50&#45;&gt;Node41 -->
<g id="edge77" class="edge"><title>Node50&#45;&gt;Node41</title>
<path fill="none" stroke="midnightblue" d="M1234.54,-246.475C1221.83,-237.02 1201.09,-221.596 1185.75,-210.187"/>
<polygon fill="midnightblue" stroke="midnightblue" points="1187.55,-207.169 1177.44,-204.009 1183.38,-212.785 1187.55,-207.169"/>
</g>
</g>
</svg>
