<?xml version="1.0" encoding="UTF-8" standalone="no"?>
<!DOCTYPE svg PUBLIC "-//W3C//DTD SVG 1.1//EN"
 "http://www.w3.org/Graphics/SVG/1.1/DTD/svg11.dtd">
<!-- Generated by graphviz version 2.38.0 (20140413.2041)
 -->
<!-- Title: boca::Matrix3&lt; Value_ &gt; Pages: 1 -->
<svg width="1227pt" height="155pt"
 viewBox="0.00 0.00 1227.00 155.00" xmlns="http://www.w3.org/2000/svg" xmlns:xlink="http://www.w3.org/1999/xlink">
<g id="graph0" class="graph" transform="scale(1 1) rotate(0) translate(4 151)">
<title>boca::Matrix3&lt; Value_ &gt;</title>
<polygon fill="white" stroke="none" points="-4,4 -4,-151 1223,-151 1223,4 -4,4"/>
<!-- Node1 -->
<g id="node1" class="node"><title>Node1</title>
<polygon fill="#bfbfbf" stroke="black" points="1095,-45.5 1095,-64.5 1219,-64.5 1219,-45.5 1095,-45.5"/>
<text text-anchor="middle" x="1157" y="-52.5" font-family="Helvetica,sans-Serif" font-size="10.00">boca::Matrix3&lt; Value_ &gt;</text>
</g>
<!-- Node2 -->
<g id="node2" class="node"><title>Node2</title>
<g id="a_node2"><a xlink:href="../../de/d99/classboca_1_1Mutable.html" target="_top" xlink:title="boca::Mutable\&lt; boca\l::Matrix3::Eigen_ \&gt;">
<polygon fill="white" stroke="black" points="910.5,-71 910.5,-101 1018.5,-101 1018.5,-71 910.5,-71"/>
<text text-anchor="start" x="918.5" y="-89" font-family="Helvetica,sans-Serif" font-size="10.00">boca::Mutable&lt; boca</text>
<text text-anchor="middle" x="964.5" y="-78" font-family="Helvetica,sans-Serif" font-size="10.00">::Matrix3::Eigen_ &gt;</text>
</a>
</g>
</g>
<!-- Node2&#45;&gt;Node1 -->
<g id="edge1" class="edge"><title>Node2&#45;&gt;Node1</title>
<path fill="none" stroke="#9a32cd" stroke-dasharray="5,2" d="M1028.57,-75.7359C1050.81,-72.1175 1075.7,-68.0678 1097.53,-64.514"/>
<polygon fill="#9a32cd" stroke="#9a32cd" points="1027.87,-72.304 1018.56,-77.3648 1029,-79.2131 1027.87,-72.304"/>
<text text-anchor="middle" x="1061" y="-76" font-family="Helvetica,sans-Serif" font-size="10.00"> eigen_</text>
</g>
<!-- Node3 -->
<g id="node3" class="node"><title>Node3</title>
<g id="a_node3"><a xlink:href="../../d5/db6/classboca_1_1Matrix3_1_1Eigen__.html" target="_top" xlink:title="boca::Matrix3\&lt; Value\l_ \&gt;::Eigen_">
<polygon fill="white" stroke="black" points="699,-71 699,-101 809,-101 809,-71 699,-71"/>
<text text-anchor="start" x="707" y="-89" font-family="Helvetica,sans-Serif" font-size="10.00">boca::Matrix3&lt; Value</text>
<text text-anchor="middle" x="754" y="-78" font-family="Helvetica,sans-Serif" font-size="10.00">_ &gt;::Eigen_</text>
</a>
</g>
</g>
<!-- Node3&#45;&gt;Node2 -->
<g id="edge2" class="edge"><title>Node3&#45;&gt;Node2</title>
<path fill="none" stroke="#9a32cd" stroke-dasharray="5,2" d="M819.328,-86C848.489,-86 882.56,-86 910.256,-86"/>
<polygon fill="#9a32cd" stroke="#9a32cd" points="819.237,-82.5001 809.237,-86 819.237,-89.5001 819.237,-82.5001"/>
<text text-anchor="middle" x="858" y="-89" font-family="Helvetica,sans-Serif" font-size="10.00"> member_</text>
</g>
<!-- Node4 -->
<g id="node4" class="node"><title>Node4</title>
<g id="a_node4"><a xlink:href="../../de/d99/classboca_1_1Mutable.html" target="_top" xlink:title="boca::Mutable\&lt; Array3\l\&lt; boca::Vector3\&lt; Value\l_ \&gt; \&gt; \&gt;">
<polygon fill="white" stroke="black" points="421,-87.5 421,-128.5 541,-128.5 541,-87.5 421,-87.5"/>
<text text-anchor="start" x="429" y="-116.5" font-family="Helvetica,sans-Serif" font-size="10.00">boca::Mutable&lt; Array3</text>
<text text-anchor="start" x="429" y="-105.5" font-family="Helvetica,sans-Serif" font-size="10.00">&lt; boca::Vector3&lt; Value</text>
<text text-anchor="middle" x="481" y="-94.5" font-family="Helvetica,sans-Serif" font-size="10.00">_ &gt; &gt; &gt;</text>
</a>
</g>
</g>
<!-- Node4&#45;&gt;Node3 -->
<g id="edge3" class="edge"><title>Node4&#45;&gt;Node3</title>
<path fill="none" stroke="#9a32cd" stroke-dasharray="5,2" d="M551.281,-102.376C597.057,-98.6596 656.204,-93.858 698.596,-90.4165"/>
<polygon fill="#9a32cd" stroke="#9a32cd" points="550.821,-98.9014 541.137,-103.199 551.388,-105.878 550.821,-98.9014"/>
<text text-anchor="middle" x="617.5" y="-105" font-family="Helvetica,sans-Serif" font-size="10.00"> vectors_</text>
</g>
<!-- Node5 -->
<g id="node5" class="node"><title>Node5</title>
<g id="a_node5"><a xlink:href="../../de/d99/classboca_1_1Mutable.html" target="_top" xlink:title="boca::Mutable\&lt; Member_ \&gt;">
<polygon fill="white" stroke="black" points="137,-98.5 137,-117.5 274,-117.5 274,-98.5 137,-98.5"/>
<text text-anchor="middle" x="205.5" y="-105.5" font-family="Helvetica,sans-Serif" font-size="10.00">boca::Mutable&lt; Member_ &gt;</text>
</a>
</g>
</g>
<!-- Node5&#45;&gt;Node2 -->
<g id="edge8" class="edge"><title>Node5&#45;&gt;Node2</title>
<path fill="none" stroke="orange" stroke-dasharray="5,2" d="M241.129,-120.806C256.49,-125.891 274.921,-131.189 292,-134 348.6,-143.314 363.646,-137.111 421,-138 474.327,-138.827 487.736,-140.724 541,-138 662.811,-131.77 692.836,-124 814,-110 845.16,-106.4 853.019,-105.91 884,-101 892.462,-99.6589 901.405,-98.1052 910.12,-96.5164"/>
<polygon fill="orange" stroke="orange" points="242.118,-117.445 231.523,-117.524 239.854,-124.069 242.118,-117.445"/>
<text text-anchor="middle" x="617.5" y="-139" font-family="Helvetica,sans-Serif" font-size="10.00"> &lt; boca::Matrix3::Eigen_ &gt;</text>
</g>
<!-- Node5&#45;&gt;Node4 -->
<g id="edge4" class="edge"><title>Node5&#45;&gt;Node4</title>
<path fill="none" stroke="orange" stroke-dasharray="5,2" d="M284.321,-108C327.621,-108 380.668,-108 420.602,-108"/>
<polygon fill="orange" stroke="orange" points="284.107,-104.5 274.107,-108 284.107,-111.5 284.107,-104.5"/>
<text text-anchor="start" x="292" y="-122" font-family="Helvetica,sans-Serif" font-size="10.00"> &lt; Array3&lt; boca::Vector3</text>
<text text-anchor="middle" x="347.5" y="-111" font-family="Helvetica,sans-Serif" font-size="10.00">&lt; Value_ &gt; &gt; &gt;</text>
</g>
<!-- Node7 -->
<g id="node7" class="node"><title>Node7</title>
<g id="a_node7"><a xlink:href="../../de/d99/classboca_1_1Mutable.html" target="_top" xlink:title="boca::Mutable\&lt; Array3\l\&lt; Value_ \&gt; \&gt;">
<polygon fill="white" stroke="black" points="423,-39 423,-69 539,-69 539,-39 423,-39"/>
<text text-anchor="start" x="431" y="-57" font-family="Helvetica,sans-Serif" font-size="10.00">boca::Mutable&lt; Array3</text>
<text text-anchor="middle" x="481" y="-46" font-family="Helvetica,sans-Serif" font-size="10.00">&lt; Value_ &gt; &gt;</text>
</a>
</g>
</g>
<!-- Node5&#45;&gt;Node7 -->
<g id="edge7" class="edge"><title>Node5&#45;&gt;Node7</title>
<path fill="none" stroke="orange" stroke-dasharray="5,2" d="M264.717,-96.5056C311.338,-87.3007 376.381,-74.4586 422.746,-65.3042"/>
<polygon fill="orange" stroke="orange" points="263.899,-93.0994 254.767,-98.4702 265.255,-99.9668 263.899,-93.0994"/>
<text text-anchor="middle" x="347.5" y="-94" font-family="Helvetica,sans-Serif" font-size="10.00"> &lt; Array3&lt; Value_ &gt; &gt;</text>
</g>
<!-- Node6 -->
<g id="node6" class="node"><title>Node6</title>
<polygon fill="white" stroke="#bfbfbf" points="0,-98.5 0,-117.5 57,-117.5 57,-98.5 0,-98.5"/>
<text text-anchor="middle" x="28.5" y="-105.5" font-family="Helvetica,sans-Serif" font-size="10.00">Member_</text>
</g>
<!-- Node6&#45;&gt;Node5 -->
<g id="edge5" class="edge"><title>Node6&#45;&gt;Node5</title>
<path fill="none" stroke="#9a32cd" stroke-dasharray="5,2" d="M67.3217,-108C87.6265,-108 113.269,-108 136.874,-108"/>
<polygon fill="#9a32cd" stroke="#9a32cd" points="67.2293,-104.5 57.2293,-108 67.2292,-111.5 67.2293,-104.5"/>
<text text-anchor="middle" x="97" y="-111" font-family="Helvetica,sans-Serif" font-size="10.00"> member_</text>
</g>
<!-- Node7&#45;&gt;Node3 -->
<g id="edge6" class="edge"><title>Node7&#45;&gt;Node3</title>
<path fill="none" stroke="#9a32cd" stroke-dasharray="5,2" d="M549.337,-61.9513C595.413,-67.3919 655.706,-74.5114 698.708,-79.5892"/>
<polygon fill="#9a32cd" stroke="#9a32cd" points="549.482,-58.4442 539.141,-60.7473 548.662,-65.3959 549.482,-58.4442"/>
<text text-anchor="middle" x="617.5" y="-80" font-family="Helvetica,sans-Serif" font-size="10.00"> values_</text>
</g>
<!-- Node8 -->
<g id="node8" class="node"><title>Node8</title>
<g id="a_node8"><a xlink:href="../../d3/da2/classboca_1_1Vector3.html" target="_top" xlink:title="boca::Vector3\&lt; Value_ \&gt;">
<polygon fill="white" stroke="black" points="902,-16.5 902,-35.5 1027,-35.5 1027,-16.5 902,-16.5"/>
<text text-anchor="middle" x="964.5" y="-23.5" font-family="Helvetica,sans-Serif" font-size="10.00">boca::Vector3&lt; Value_ &gt;</text>
</a>
</g>
</g>
<!-- Node8&#45;&gt;Node1 -->
<g id="edge9" class="edge"><title>Node8&#45;&gt;Node1</title>
<path fill="none" stroke="#9a32cd" stroke-dasharray="5,2" d="M1037.22,-24.853C1050.51,-25.51 1064.23,-26.7761 1077,-29 1096.35,-32.3691 1117.43,-39.4965 1132.95,-45.438"/>
<polygon fill="#9a32cd" stroke="#9a32cd" points="1037.29,-21.3531 1027.16,-24.4635 1037.02,-28.3479 1037.29,-21.3531"/>
<text text-anchor="middle" x="1061" y="-54" font-family="Helvetica,sans-Serif" font-size="10.00"> z_</text>
<text text-anchor="middle" x="1061" y="-43" font-family="Helvetica,sans-Serif" font-size="10.00">y_</text>
<text text-anchor="middle" x="1061" y="-32" font-family="Helvetica,sans-Serif" font-size="10.00">x_</text>
</g>
<!-- Node9 -->
<g id="node9" class="node"><title>Node9</title>
<g id="a_node9"><a xlink:href="../../d3/da2/classboca_1_1Vector3.html" target="_top" xlink:title="Copy of root::TVector3 in order to get rid of TObject. ">
<polygon fill="white" stroke="black" points="694,-1.5 694,-20.5 814,-20.5 814,-1.5 694,-1.5"/>
<text text-anchor="middle" x="754" y="-8.5" font-family="Helvetica,sans-Serif" font-size="10.00">boca::Vector3&lt; Value &gt;</text>
</a>
</g>
</g>
<!-- Node9&#45;&gt;Node8 -->
<g id="edge10" class="edge"><title>Node9&#45;&gt;Node8</title>
<path fill="none" stroke="orange" stroke-dasharray="5,2" d="M824.371,-15.9907C849.466,-17.7961 877.609,-19.8208 901.983,-21.5743"/>
<polygon fill="orange" stroke="orange" points="824.415,-12.485 814.19,-15.2583 823.913,-19.4669 824.415,-12.485"/>
<text text-anchor="middle" x="858" y="-23" font-family="Helvetica,sans-Serif" font-size="10.00"> &lt; Value_ &gt;</text>
</g>
<!-- Node10 -->
<g id="node10" class="node"><title>Node10</title>
<polygon fill="white" stroke="#bfbfbf" points="460.5,-0.5 460.5,-19.5 501.5,-19.5 501.5,-0.5 460.5,-0.5"/>
<text text-anchor="middle" x="481" y="-7.5" font-family="Helvetica,sans-Serif" font-size="10.00">Value</text>
</g>
<!-- Node10&#45;&gt;Node9 -->
<g id="edge11" class="edge"><title>Node10&#45;&gt;Node9</title>
<path fill="none" stroke="#9a32cd" stroke-dasharray="5,2" d="M512.18,-10.1114C555.888,-10.2726 637.695,-10.5745 693.726,-10.7813"/>
<polygon fill="#9a32cd" stroke="#9a32cd" points="511.94,-6.61055 501.927,-10.0735 511.914,-13.6105 511.94,-6.61055"/>
<text text-anchor="middle" x="617.5" y="-36" font-family="Helvetica,sans-Serif" font-size="10.00"> z_</text>
<text text-anchor="middle" x="617.5" y="-25" font-family="Helvetica,sans-Serif" font-size="10.00">y_</text>
<text text-anchor="middle" x="617.5" y="-14" font-family="Helvetica,sans-Serif" font-size="10.00">x_</text>
</g>
</g>
</svg>
