<?xml version="1.0" encoding="UTF-8" standalone="no"?>
<!DOCTYPE svg PUBLIC "-//W3C//DTD SVG 1.1//EN"
 "http://www.w3.org/Graphics/SVG/1.1/DTD/svg11.dtd">
<!-- Generated by graphviz version 2.38.0 (20140413.2041)
 -->
<!-- Title: boca::heavyhiggs::AnalysisHeavyHiggs&lt; Tagger &gt; Pages: 1 -->
<svg width="623pt" height="186pt"
 viewBox="0.00 0.00 623.00 186.00" xmlns="http://www.w3.org/2000/svg" xmlns:xlink="http://www.w3.org/1999/xlink">
<g id="graph0" class="graph" transform="scale(1 1) rotate(0) translate(4 182)">
<title>boca::heavyhiggs::AnalysisHeavyHiggs&lt; Tagger &gt;</title>
<polygon fill="white" stroke="none" points="-4,4 -4,-182 619,-182 619,4 -4,4"/>
<!-- Node1 -->
<g id="node1" class="node"><title>Node1</title>
<polygon fill="#bfbfbf" stroke="black" points="305,-73.5 305,-103.5 442,-103.5 442,-73.5 305,-73.5"/>
<text text-anchor="start" x="313" y="-91.5" font-family="Helvetica,sans-Serif" font-size="10.00">boca::heavyhiggs::Analysis</text>
<text text-anchor="middle" x="373.5" y="-80.5" font-family="Helvetica,sans-Serif" font-size="10.00">HeavyHiggs&lt; Tagger &gt;</text>
</g>
<!-- Node4 -->
<g id="node4" class="node"><title>Node4</title>
<g id="a_node4"><a xlink:href="../../d3/d17/classboca_1_1heavyhiggs_1_1AnalysisCharged.html" target="_top" xlink:title="HAnalysis subclass defining the HiggsCPV Analysis. ">
<polygon fill="white" stroke="black" points="478,-147.5 478,-177.5 615,-177.5 615,-147.5 478,-147.5"/>
<text text-anchor="start" x="486" y="-165.5" font-family="Helvetica,sans-Serif" font-size="10.00">boca::heavyhiggs::Analysis</text>
<text text-anchor="middle" x="546.5" y="-154.5" font-family="Helvetica,sans-Serif" font-size="10.00">Charged&lt; Tagger &gt;</text>
</a>
</g>
</g>
<!-- Node1&#45;&gt;Node4 -->
<g id="edge3" class="edge"><title>Node1&#45;&gt;Node4</title>
<path fill="none" stroke="midnightblue" d="M412.653,-108.156C432.002,-117.809 456.005,-129.309 478,-138.5 485.345,-141.569 493.236,-144.604 500.941,-147.429"/>
<polygon fill="midnightblue" stroke="midnightblue" points="414.064,-104.948 403.558,-103.583 410.92,-111.202 414.064,-104.948"/>
</g>
<!-- Node5 -->
<g id="node5" class="node"><title>Node5</title>
<g id="a_node5"><a xlink:href="../../d2/d68/classboca_1_1heavyhiggs_1_1AnalysisFusion.html" target="_top" xlink:title="HAnalysis subclass defining the HiggsCPV Analysis. ">
<polygon fill="white" stroke="black" points="478,-98.5 478,-128.5 615,-128.5 615,-98.5 478,-98.5"/>
<text text-anchor="start" x="486" y="-116.5" font-family="Helvetica,sans-Serif" font-size="10.00">boca::heavyhiggs::Analysis</text>
<text text-anchor="middle" x="546.5" y="-105.5" font-family="Helvetica,sans-Serif" font-size="10.00">Fusion&lt; Tagger &gt;</text>
</a>
</g>
</g>
<!-- Node1&#45;&gt;Node5 -->
<g id="edge4" class="edge"><title>Node1&#45;&gt;Node5</title>
<path fill="none" stroke="midnightblue" d="M452.1,-99.845C460.692,-101.101 469.391,-102.373 477.847,-103.609"/>
<polygon fill="midnightblue" stroke="midnightblue" points="452.485,-96.3642 442.084,-98.3807 451.472,-103.291 452.485,-96.3642"/>
</g>
<!-- Node6 -->
<g id="node6" class="node"><title>Node6</title>
<g id="a_node6"><a xlink:href="../../d9/df8/classboca_1_1heavyhiggs_1_1AnalysisNeutral.html" target="_top" xlink:title="HAnalysis subclass defining the HiggsCPV Analysis. ">
<polygon fill="white" stroke="black" points="478,-49.5 478,-79.5 615,-79.5 615,-49.5 478,-49.5"/>
<text text-anchor="start" x="486" y="-67.5" font-family="Helvetica,sans-Serif" font-size="10.00">boca::heavyhiggs::Analysis</text>
<text text-anchor="middle" x="546.5" y="-56.5" font-family="Helvetica,sans-Serif" font-size="10.00">Neutral&lt; Tagger &gt;</text>
</a>
</g>
</g>
<!-- Node1&#45;&gt;Node6 -->
<g id="edge5" class="edge"><title>Node1&#45;&gt;Node6</title>
<path fill="none" stroke="midnightblue" d="M452.1,-77.6088C460.692,-76.4029 469.391,-75.1819 477.847,-73.9951"/>
<polygon fill="midnightblue" stroke="midnightblue" points="451.5,-74.1586 442.084,-79.0146 452.473,-81.0906 451.5,-74.1586"/>
</g>
<!-- Node7 -->
<g id="node7" class="node"><title>Node7</title>
<g id="a_node7"><a xlink:href="../../dd/d4e/classboca_1_1heavyhiggs_1_1AnalysisNeutralFourTop.html" target="_top" xlink:title="boca::heavyhiggs::Analysis\lNeutralFourTop\&lt; Tagger \&gt;">
<polygon fill="white" stroke="black" points="478,-0.5 478,-30.5 615,-30.5 615,-0.5 478,-0.5"/>
<text text-anchor="start" x="486" y="-18.5" font-family="Helvetica,sans-Serif" font-size="10.00">boca::heavyhiggs::Analysis</text>
<text text-anchor="middle" x="546.5" y="-7.5" font-family="Helvetica,sans-Serif" font-size="10.00">NeutralFourTop&lt; Tagger &gt;</text>
</a>
</g>
</g>
<!-- Node1&#45;&gt;Node7 -->
<g id="edge6" class="edge"><title>Node1&#45;&gt;Node7</title>
<path fill="none" stroke="midnightblue" d="M413.532,-68.8824C432.742,-59.5207 456.368,-48.4398 478,-39.5 485.357,-36.4598 493.254,-33.4397 500.961,-30.6197"/>
<polygon fill="midnightblue" stroke="midnightblue" points="411.919,-65.7751 404.484,-73.3231 415.003,-72.0591 411.919,-65.7751"/>
</g>
<!-- Node2 -->
<g id="node2" class="node"><title>Node2</title>
<g id="a_node2"><a xlink:href="../../d1/d36/classboca_1_1Analysis.html" target="_top" xlink:title="provides main analysis loops and logic. ">
<polygon fill="white" stroke="black" points="140,-79 140,-98 269,-98 269,-79 140,-79"/>
<text text-anchor="middle" x="204.5" y="-86" font-family="Helvetica,sans-Serif" font-size="10.00">boca::Analysis&lt; Tagger &gt;</text>
</a>
</g>
</g>
<!-- Node2&#45;&gt;Node1 -->
<g id="edge1" class="edge"><title>Node2&#45;&gt;Node1</title>
<path fill="none" stroke="midnightblue" d="M279.378,-88.5C287.869,-88.5 296.495,-88.5 304.897,-88.5"/>
<polygon fill="midnightblue" stroke="midnightblue" points="279.112,-85.0001 269.112,-88.5 279.112,-92.0001 279.112,-85.0001"/>
</g>
<!-- Node3 -->
<g id="node3" class="node"><title>Node3</title>
<g id="a_node3"><a xlink:href="../../d7/d62/classboca_1_1AnalysisBase.html" target="_top" xlink:title="Base for all analyses. ">
<polygon fill="white" stroke="black" points="0,-79 0,-98 104,-98 104,-79 0,-79"/>
<text text-anchor="middle" x="52" y="-86" font-family="Helvetica,sans-Serif" font-size="10.00">boca::AnalysisBase</text>
</a>
</g>
</g>
<!-- Node3&#45;&gt;Node2 -->
<g id="edge2" class="edge"><title>Node3&#45;&gt;Node2</title>
<path fill="none" stroke="midnightblue" d="M114.443,-88.5C122.82,-88.5 131.432,-88.5 139.847,-88.5"/>
<polygon fill="midnightblue" stroke="midnightblue" points="114.373,-85.0001 104.373,-88.5 114.373,-92.0001 114.373,-85.0001"/>
</g>
</g>
</svg>
