<?xml version="1.0" encoding="UTF-8" standalone="no"?>
<!DOCTYPE svg PUBLIC "-//W3C//DTD SVG 1.1//EN"
 "http://www.w3.org/Graphics/SVG/1.1/DTD/svg11.dtd">
<!-- Generated by graphviz version 2.38.0 (20140413.2041)
 -->
<!-- Title: boca::TripletJetPairTagger Pages: 1 -->
<svg width="3019pt" height="550pt"
 viewBox="0.00 0.00 3019.00 550.00" xmlns="http://www.w3.org/2000/svg" xmlns:xlink="http://www.w3.org/1999/xlink">
<g id="graph0" class="graph" transform="scale(1 1) rotate(0) translate(4 546)">
<title>boca::TripletJetPairTagger</title>
<polygon fill="white" stroke="none" points="-4,4 -4,-546 3015,-546 3015,4 -4,4"/>
<!-- Node1 -->
<g id="node1" class="node"><title>Node1</title>
<polygon fill="#bfbfbf" stroke="black" points="2880,-58.5 2880,-77.5 3011,-77.5 3011,-58.5 2880,-58.5"/>
<text text-anchor="middle" x="2945.5" y="-65.5" font-family="Helvetica,sans-Serif" font-size="10.00">boca::TripletJetPairTagger</text>
</g>
<!-- Node2 -->
<g id="node2" class="node"><title>Node2</title>
<g id="a_node2"><a xlink:href="../../dd/d8a/classboca_1_1TaggerTemplate.html" target="_top" xlink:title="boca::TaggerTemplate\l\&lt; Quartet31, TripletJetPair\lBranch \&gt;">
<polygon fill="white" stroke="black" points="998,-0.5 998,-41.5 1130,-41.5 1130,-0.5 998,-0.5"/>
<text text-anchor="start" x="1006" y="-29.5" font-family="Helvetica,sans-Serif" font-size="10.00">boca::TaggerTemplate</text>
<text text-anchor="start" x="1006" y="-18.5" font-family="Helvetica,sans-Serif" font-size="10.00">&lt; Quartet31, TripletJetPair</text>
<text text-anchor="middle" x="1064" y="-7.5" font-family="Helvetica,sans-Serif" font-size="10.00">Branch &gt;</text>
</a>
</g>
</g>
<!-- Node2&#45;&gt;Node1 -->
<g id="edge1" class="edge"><title>Node2&#45;&gt;Node1</title>
<path fill="none" stroke="midnightblue" d="M1140.18,-15.609C1185.33,-12.8232 1243.93,-10 1296,-10 1296,-10 1296,-10 2674,-10 2765.26,-10 2870.06,-41.9489 2918.03,-58.4225"/>
<polygon fill="midnightblue" stroke="midnightblue" points="1139.94,-12.1174 1130.18,-16.2392 1140.38,-19.1035 1139.94,-12.1174"/>
</g>
<!-- Node3 -->
<g id="node3" class="node"><title>Node3</title>
<g id="a_node3"><a xlink:href="../../da/d42/classboca_1_1Tagger.html" target="_top" xlink:title="Prepares multivariant analysis. ">
<polygon fill="white" stroke="black" points="518,-296.5 518,-315.5 592,-315.5 592,-296.5 518,-296.5"/>
<text text-anchor="middle" x="555" y="-303.5" font-family="Helvetica,sans-Serif" font-size="10.00">boca::Tagger</text>
</a>
</g>
</g>
<!-- Node3&#45;&gt;Node2 -->
<g id="edge2" class="edge"><title>Node3&#45;&gt;Node2</title>
<path fill="none" stroke="midnightblue" d="M568.162,-287.91C578.202,-272.708 592.601,-250.278 604,-230 640.233,-165.547 625.085,-132.643 678,-81 773.199,11.9099 836.164,-3.95414 969,-11 978.341,-11.4955 988.183,-12.2661 997.839,-13.1647"/>
<polygon fill="midnightblue" stroke="midnightblue" points="565.167,-286.093 562.54,-296.357 570.994,-289.971 565.167,-286.093"/>
</g>
<!-- Node10 -->
<g id="node10" class="node"><title>Node10</title>
<g id="a_node10"><a xlink:href="../../dd/d8a/classboca_1_1TaggerTemplate.html" target="_top" xlink:title="Tagger base class using Branch template. ">
<polygon fill="white" stroke="black" points="687,-190.5 687,-231.5 801,-231.5 801,-190.5 687,-190.5"/>
<text text-anchor="start" x="695" y="-219.5" font-family="Helvetica,sans-Serif" font-size="10.00">boca::TaggerTemplate</text>
<text text-anchor="start" x="695" y="-208.5" font-family="Helvetica,sans-Serif" font-size="10.00">&lt; MultipletTemplate,</text>
<text text-anchor="middle" x="744" y="-197.5" font-family="Helvetica,sans-Serif" font-size="10.00"> BranchTemplate &gt;</text>
</a>
</g>
</g>
<!-- Node3&#45;&gt;Node10 -->
<g id="edge10" class="edge"><title>Node3&#45;&gt;Node10</title>
<path fill="none" stroke="midnightblue" d="M584.029,-291.761C615.423,-275.812 666.587,-249.82 702.366,-231.643"/>
<polygon fill="midnightblue" stroke="midnightblue" points="582.29,-288.718 574.96,-296.368 585.46,-294.959 582.29,-288.718"/>
</g>
<!-- Node15 -->
<g id="node15" class="node"><title>Node15</title>
<polygon fill="white" stroke="#bfbfbf" points="1007,-259.5 1007,-300.5 1121,-300.5 1121,-259.5 1007,-259.5"/>
<text text-anchor="start" x="1015" y="-288.5" font-family="Helvetica,sans-Serif" font-size="10.00">boca::TaggerTemplate</text>
<text text-anchor="start" x="1015" y="-277.5" font-family="Helvetica,sans-Serif" font-size="10.00">&lt; fastjet::PseudoJet,</text>
<text text-anchor="middle" x="1064" y="-266.5" font-family="Helvetica,sans-Serif" font-size="10.00"> BottomBranch &gt;</text>
</g>
<!-- Node3&#45;&gt;Node15 -->
<g id="edge16" class="edge"><title>Node3&#45;&gt;Node15</title>
<path fill="none" stroke="midnightblue" d="M602.3,-307.957C678.865,-310.579 836.565,-313.385 969,-299 981.249,-297.67 994.27,-295.521 1006.59,-293.138"/>
<polygon fill="midnightblue" stroke="midnightblue" points="602.165,-304.45 592.046,-307.59 601.914,-311.445 602.165,-304.45"/>
</g>
<!-- Node21 -->
<g id="node21" class="node"><title>Node21</title>
<g id="a_node21"><a xlink:href="../../dd/d8a/classboca_1_1TaggerTemplate.html" target="_top" xlink:title="boca::TaggerTemplate\l\&lt; Triplet, TopHadronicBranch \&gt;">
<polygon fill="white" stroke="black" points="1220,-370 1220,-400 1374,-400 1374,-370 1220,-370"/>
<text text-anchor="start" x="1228" y="-388" font-family="Helvetica,sans-Serif" font-size="10.00">boca::TaggerTemplate</text>
<text text-anchor="middle" x="1297" y="-377" font-family="Helvetica,sans-Serif" font-size="10.00">&lt; Triplet, TopHadronicBranch &gt;</text>
</a>
</g>
</g>
<!-- Node3&#45;&gt;Node21 -->
<g id="edge28" class="edge"><title>Node3&#45;&gt;Node21</title>
<path fill="none" stroke="midnightblue" d="M579.253,-320.75C591.53,-327.903 607.105,-336.006 622,-341 645.901,-349.013 652.939,-347.284 678,-350 872.445,-371.075 1102.77,-379.874 1219.68,-383.2"/>
<polygon fill="midnightblue" stroke="midnightblue" points="580.947,-317.685 570.573,-315.533 577.341,-323.685 580.947,-317.685"/>
</g>
<!-- Node27 -->
<g id="node27" class="node"><title>Node27</title>
<g id="a_node27"><a xlink:href="../../dd/d8a/classboca_1_1TaggerTemplate.html" target="_top" xlink:title="boca::TaggerTemplate\l\&lt; Doublet, WHadronicBranch \&gt;">
<polygon fill="white" stroke="black" points="987,-323 987,-353 1141,-353 1141,-323 987,-323"/>
<text text-anchor="start" x="995" y="-341" font-family="Helvetica,sans-Serif" font-size="10.00">boca::TaggerTemplate</text>
<text text-anchor="middle" x="1064" y="-330" font-family="Helvetica,sans-Serif" font-size="10.00">&lt; Doublet, WHadronicBranch &gt;</text>
</a>
</g>
</g>
<!-- Node3&#45;&gt;Node27 -->
<g id="edge42" class="edge"><title>Node3&#45;&gt;Node27</title>
<path fill="none" stroke="midnightblue" d="M594.917,-318.236C603.739,-320.554 613.125,-322.668 622,-324 748.885,-343.046 898.523,-343.162 986.82,-340.966"/>
<polygon fill="midnightblue" stroke="midnightblue" points="595.825,-314.855 585.254,-315.562 593.958,-321.602 595.825,-314.855"/>
</g>
<!-- Node4 -->
<g id="node4" class="node"><title>Node4</title>
<g id="a_node4"><a xlink:href="../../d2/d27/classboca_1_1TripletJetPairBranch.html" target="_top" xlink:title="Higgs tagger root tree structure. ">
<polygon fill="white" stroke="black" points="678,-90.5 678,-109.5 810,-109.5 810,-90.5 678,-90.5"/>
<text text-anchor="middle" x="744" y="-97.5" font-family="Helvetica,sans-Serif" font-size="10.00">boca::TripletJetPairBranch</text>
</a>
</g>
</g>
<!-- Node4&#45;&gt;Node2 -->
<g id="edge3" class="edge"><title>Node4&#45;&gt;Node2</title>
<path fill="none" stroke="#9a32cd" stroke-dasharray="5,2" d="M759.676,-82.4813C774.838,-65.814 800.158,-41.736 828,-31 882.484,-9.9903 949.426,-9.3321 997.907,-12.8446"/>
<polygon fill="#9a32cd" stroke="#9a32cd" points="756.681,-80.5879 752.713,-90.4119 761.941,-85.2063 756.681,-80.5879"/>
<text text-anchor="middle" x="898.5" y="-34" font-family="Helvetica,sans-Serif" font-size="10.00"> branch_</text>
</g>
<!-- Node5 -->
<g id="node5" class="node"><title>Node5</title>
<g id="a_node5"><a xlink:href="../../d6/d3d/classboca_1_1PairBranch.html" target="_top" xlink:title="boca::PairBranch">
<polygon fill="white" stroke="black" points="509,-450.5 509,-469.5 601,-469.5 601,-450.5 509,-450.5"/>
<text text-anchor="middle" x="555" y="-457.5" font-family="Helvetica,sans-Serif" font-size="10.00">boca::PairBranch</text>
</a>
</g>
</g>
<!-- Node5&#45;&gt;Node4 -->
<g id="edge4" class="edge"><title>Node5&#45;&gt;Node4</title>
<path fill="none" stroke="midnightblue" d="M564.753,-440.964C582.96,-401.226 626.042,-306.461 660,-226 668.376,-206.154 667.141,-199.603 678,-181 694.362,-152.971 719.85,-124.313 733.541,-109.767"/>
<polygon fill="midnightblue" stroke="midnightblue" points="561.482,-439.701 560.492,-450.249 567.844,-442.62 561.482,-439.701"/>
</g>
<!-- Node23 -->
<g id="node23" class="node"><title>Node23</title>
<g id="a_node23"><a xlink:href="../../db/df3/classboca_1_1MultiBranch.html" target="_top" xlink:title="boca::MultiBranch">
<polygon fill="white" stroke="black" points="696.5,-509.5 696.5,-528.5 791.5,-528.5 791.5,-509.5 696.5,-509.5"/>
<text text-anchor="middle" x="744" y="-516.5" font-family="Helvetica,sans-Serif" font-size="10.00">boca::MultiBranch</text>
</a>
</g>
</g>
<!-- Node5&#45;&gt;Node23 -->
<g id="edge31" class="edge"><title>Node5&#45;&gt;Node23</title>
<path fill="none" stroke="midnightblue" d="M595.319,-472.689C619.209,-480.369 650.338,-490.323 678,-499 688.928,-502.428 700.906,-506.129 711.57,-509.405"/>
<polygon fill="midnightblue" stroke="midnightblue" points="596.146,-469.279 585.554,-469.547 594.002,-475.942 596.146,-469.279"/>
</g>
<!-- Node28 -->
<g id="node28" class="node"><title>Node28</title>
<g id="a_node28"><a xlink:href="../../d8/db8/classboca_1_1standardmodel_1_1WHadronicBranch.html" target="_top" xlink:title="Higgs tagger root tree structure. ">
<polygon fill="white" stroke="black" points="690.5,-460 690.5,-490 797.5,-490 797.5,-460 690.5,-460"/>
<text text-anchor="start" x="698.5" y="-478" font-family="Helvetica,sans-Serif" font-size="10.00">boca::standardmodel</text>
<text text-anchor="middle" x="744" y="-467" font-family="Helvetica,sans-Serif" font-size="10.00">::WHadronicBranch</text>
</a>
</g>
</g>
<!-- Node5&#45;&gt;Node28 -->
<g id="edge44" class="edge"><title>Node5&#45;&gt;Node28</title>
<path fill="none" stroke="midnightblue" d="M611.303,-464.436C636.242,-466.437 665.559,-468.788 690.194,-470.764"/>
<polygon fill="midnightblue" stroke="midnightblue" points="611.515,-460.942 601.267,-463.631 610.956,-467.92 611.515,-460.942"/>
</g>
<!-- Node6 -->
<g id="node6" class="node"><title>Node6</title>
<g id="a_node6"><a xlink:href="../../d8/d91/classboca_1_1ParticleBranch.html" target="_top" xlink:title="Class for saving event informations to root. ">
<polygon fill="white" stroke="black" points="362,-427.5 362,-446.5 469,-446.5 469,-427.5 362,-427.5"/>
<text text-anchor="middle" x="415.5" y="-434.5" font-family="Helvetica,sans-Serif" font-size="10.00">boca::ParticleBranch</text>
</a>
</g>
</g>
<!-- Node6&#45;&gt;Node5 -->
<g id="edge5" class="edge"><title>Node6&#45;&gt;Node5</title>
<path fill="none" stroke="midnightblue" d="M479.158,-447.481C489.137,-449.15 499.289,-450.848 508.763,-452.433"/>
<polygon fill="midnightblue" stroke="midnightblue" points="479.708,-444.024 469.268,-445.827 478.553,-450.929 479.708,-444.024"/>
</g>
<!-- Node16 -->
<g id="node16" class="node"><title>Node16</title>
<g id="a_node16"><a xlink:href="../../db/dd1/classboca_1_1standardmodel_1_1BottomBranch.html" target="_top" xlink:title="Bottom tagger root tree structure. ">
<polygon fill="white" stroke="black" points="690.5,-411 690.5,-441 797.5,-441 797.5,-411 690.5,-411"/>
<text text-anchor="start" x="698.5" y="-429" font-family="Helvetica,sans-Serif" font-size="10.00">boca::standardmodel</text>
<text text-anchor="middle" x="744" y="-418" font-family="Helvetica,sans-Serif" font-size="10.00">::BottomBranch</text>
</a>
</g>
</g>
<!-- Node6&#45;&gt;Node16 -->
<g id="edge18" class="edge"><title>Node6&#45;&gt;Node16</title>
<path fill="none" stroke="midnightblue" d="M479.632,-434.873C540.891,-432.809 632.789,-429.713 690.255,-427.777"/>
<polygon fill="midnightblue" stroke="midnightblue" points="479.197,-431.386 469.321,-435.22 479.433,-438.382 479.197,-431.386"/>
</g>
<!-- Node7 -->
<g id="node7" class="node"><title>Node7</title>
<g id="a_node7"><a xlink:href="../../dd/dfc/classboca_1_1ResultBranch.html" target="_top" xlink:title="boca::ResultBranch">
<polygon fill="white" stroke="black" points="222,-427.5 222,-446.5 325,-446.5 325,-427.5 222,-427.5"/>
<text text-anchor="middle" x="273.5" y="-434.5" font-family="Helvetica,sans-Serif" font-size="10.00">boca::ResultBranch</text>
</a>
</g>
</g>
<!-- Node7&#45;&gt;Node6 -->
<g id="edge6" class="edge"><title>Node7&#45;&gt;Node6</title>
<path fill="none" stroke="midnightblue" d="M335.248,-437C344.047,-437 353.045,-437 361.672,-437"/>
<polygon fill="midnightblue" stroke="midnightblue" points="335.043,-433.5 325.043,-437 335.043,-440.5 335.043,-433.5"/>
</g>
<!-- Node8 -->
<g id="node8" class="node"><title>Node8</title>
<g id="a_node8"><a xlink:href="../../dc/d87/classboca_1_1BaseBranch.html" target="_top" xlink:title="Basic tree branches. ">
<polygon fill="white" stroke="black" points="88,-427.5 88,-446.5 185,-446.5 185,-427.5 88,-427.5"/>
<text text-anchor="middle" x="136.5" y="-434.5" font-family="Helvetica,sans-Serif" font-size="10.00">boca::BaseBranch</text>
</a>
</g>
</g>
<!-- Node8&#45;&gt;Node7 -->
<g id="edge7" class="edge"><title>Node8&#45;&gt;Node7</title>
<path fill="none" stroke="midnightblue" d="M195.264,-437C204.045,-437 213.051,-437 221.67,-437"/>
<polygon fill="midnightblue" stroke="midnightblue" points="195.096,-433.5 185.096,-437 195.096,-440.5 195.096,-433.5"/>
</g>
<!-- Node9 -->
<g id="node9" class="node"><title>Node9</title>
<polygon fill="white" stroke="#bfbfbf" points="0,-427.5 0,-446.5 51,-446.5 51,-427.5 0,-427.5"/>
<text text-anchor="middle" x="25.5" y="-434.5" font-family="Helvetica,sans-Serif" font-size="10.00">TObject</text>
</g>
<!-- Node9&#45;&gt;Node8 -->
<g id="edge8" class="edge"><title>Node9&#45;&gt;Node8</title>
<path fill="none" stroke="midnightblue" d="M61.3795,-437C69.7463,-437 78.825,-437 87.6662,-437"/>
<polygon fill="midnightblue" stroke="midnightblue" points="61.2338,-433.5 51.2338,-437 61.2338,-440.5 61.2338,-433.5"/>
</g>
<!-- Node10&#45;&gt;Node2 -->
<g id="edge9" class="edge"><title>Node10&#45;&gt;Node2</title>
<path fill="none" stroke="orange" stroke-dasharray="5,2" d="M768.739,-182.121C782.218,-164.662 798.618,-141.494 810,-119 821.422,-96.4268 808.739,-81.4013 828,-65 876.343,-23.8352 906.657,-54.0381 969,-42 978.359,-40.1929 988.21,-38.1495 997.87,-36.0645"/>
<polygon fill="orange" stroke="orange" points="765.814,-180.179 762.392,-190.205 771.32,-184.502 765.814,-180.179"/>
<text text-anchor="start" x="839" y="-79" font-family="Helvetica,sans-Serif" font-size="10.00"> &lt; Quartet31, TripletJetPair</text>
<text text-anchor="middle" x="898.5" y="-68" font-family="Helvetica,sans-Serif" font-size="10.00">Branch &gt;</text>
</g>
<!-- Node10&#45;&gt;Node15 -->
<g id="edge20" class="edge"><title>Node10&#45;&gt;Node15</title>
<path fill="none" stroke="orange" stroke-dasharray="5,2" d="M811.282,-218.739C866.315,-225.484 940.084,-235.356 969,-243 984.938,-247.213 1001.85,-253.321 1016.86,-259.364"/>
<polygon fill="orange" stroke="orange" points="811.589,-215.25 801.24,-217.517 810.744,-222.199 811.589,-215.25"/>
<text text-anchor="start" x="851" y="-257" font-family="Helvetica,sans-Serif" font-size="10.00"> &lt; fastjet::PseudoJet,</text>
<text text-anchor="middle" x="898.5" y="-246" font-family="Helvetica,sans-Serif" font-size="10.00"> BottomBranch &gt;</text>
</g>
<!-- Node18 -->
<g id="node18" class="node"><title>Node18</title>
<g id="a_node18"><a xlink:href="../../de/d69/classboca_1_1Reader.html" target="_top" xlink:title="read results of multivariant analysis wrapper for TMVA::Reader ">
<polygon fill="white" stroke="black" points="1215,-123.5 1215,-142.5 1379,-142.5 1379,-123.5 1215,-123.5"/>
<text text-anchor="middle" x="1297" y="-130.5" font-family="Helvetica,sans-Serif" font-size="10.00">boca::Reader&lt; TaggerTemplate &gt;</text>
</a>
</g>
</g>
<!-- Node10&#45;&gt;Node18 -->
<g id="edge23" class="edge"><title>Node10&#45;&gt;Node18</title>
<path fill="none" stroke="#9a32cd" stroke-dasharray="5,2" d="M811.13,-189.001C859.306,-174.022 926.456,-155.288 987,-146 1063.69,-134.235 1152.25,-131.61 1214.85,-131.555"/>
<polygon fill="#9a32cd" stroke="#9a32cd" points="809.945,-185.705 801.452,-192.039 812.041,-192.384 809.945,-185.705"/>
<text text-anchor="middle" x="1064" y="-149" font-family="Helvetica,sans-Serif" font-size="10.00"> tagger_</text>
</g>
<!-- Node10&#45;&gt;Node21 -->
<g id="edge33" class="edge"><title>Node10&#45;&gt;Node21</title>
<path fill="none" stroke="orange" stroke-dasharray="5,2" d="M811.281,-200.839C893.367,-191.47 1035.28,-186 1141,-239 1184.88,-261 1179.17,-287.443 1215,-321 1234.23,-339.01 1258.08,-357.439 1274.91,-369.868"/>
<polygon fill="orange" stroke="orange" points="810.843,-197.367 801.329,-202.028 811.674,-204.317 810.843,-197.367"/>
<text text-anchor="middle" x="1064" y="-242" font-family="Helvetica,sans-Serif" font-size="10.00"> &lt; Triplet, TopHadronicBranch &gt;</text>
</g>
<!-- Node10&#45;&gt;Node27 -->
<g id="edge46" class="edge"><title>Node10&#45;&gt;Node27</title>
<path fill="none" stroke="orange" stroke-dasharray="5,2" d="M780.779,-237.373C794.973,-246.996 811.763,-257.376 828,-265 883.203,-290.92 949.912,-310.632 998.13,-322.999"/>
<polygon fill="orange" stroke="orange" points="782.52,-234.321 772.304,-231.511 778.537,-240.078 782.52,-234.321"/>
<text text-anchor="middle" x="898.5" y="-318" font-family="Helvetica,sans-Serif" font-size="10.00"> &lt; Doublet, WHadronicBranch &gt;</text>
</g>
<!-- Node11 -->
<g id="node11" class="node"><title>Node11</title>
<polygon fill="white" stroke="#bfbfbf" points="511,-201.5 511,-220.5 599,-220.5 599,-201.5 511,-201.5"/>
<text text-anchor="middle" x="555" y="-208.5" font-family="Helvetica,sans-Serif" font-size="10.00">BranchTemplate</text>
</g>
<!-- Node11&#45;&gt;Node10 -->
<g id="edge11" class="edge"><title>Node11&#45;&gt;Node10</title>
<path fill="none" stroke="#9a32cd" stroke-dasharray="5,2" d="M609.442,-211C633.627,-211 662.222,-211 686.735,-211"/>
<polygon fill="#9a32cd" stroke="#9a32cd" points="609.372,-207.5 599.372,-211 609.372,-214.5 609.372,-207.5"/>
<text text-anchor="middle" x="641" y="-214" font-family="Helvetica,sans-Serif" font-size="10.00"> branch_</text>
</g>
<!-- Node12 -->
<g id="node12" class="node"><title>Node12</title>
<g id="a_node12"><a xlink:href="../../de/d69/classboca_1_1Reader.html" target="_top" xlink:title="boca::Reader\&lt; standardmodel\l::BottomTagger \&gt;">
<polygon fill="white" stroke="black" points="1575.5,-53 1575.5,-83 1723.5,-83 1723.5,-53 1575.5,-53"/>
<text text-anchor="start" x="1583.5" y="-71" font-family="Helvetica,sans-Serif" font-size="10.00">boca::Reader&lt; standardmodel</text>
<text text-anchor="middle" x="1649.5" y="-60" font-family="Helvetica,sans-Serif" font-size="10.00">::BottomTagger &gt;</text>
</a>
</g>
</g>
<!-- Node12&#45;&gt;Node1 -->
<g id="edge12" class="edge"><title>Node12&#45;&gt;Node1</title>
<path fill="none" stroke="#9a32cd" stroke-dasharray="5,2" d="M1733.7,-68C1787.55,-68 1859.17,-68 1922.5,-68 1922.5,-68 1922.5,-68 2674,-68 2744.33,-68 2824.93,-68 2879.73,-68"/>
<polygon fill="#9a32cd" stroke="#9a32cd" points="1733.52,-64.5001 1723.52,-68 1733.52,-71.5001 1733.52,-64.5001"/>
<text text-anchor="middle" x="2355.5" y="-71" font-family="Helvetica,sans-Serif" font-size="10.00"> bottom_reader_</text>
</g>
<!-- Node13 -->
<g id="node13" class="node"><title>Node13</title>
<g id="a_node13"><a xlink:href="../../d1/da0/classboca_1_1ReaderBase.html" target="_top" xlink:title="boca::ReaderBase">
<polygon fill="white" stroke="black" points="1015,-166.5 1015,-185.5 1113,-185.5 1113,-166.5 1015,-166.5"/>
<text text-anchor="middle" x="1064" y="-173.5" font-family="Helvetica,sans-Serif" font-size="10.00">boca::ReaderBase</text>
</a>
</g>
</g>
<!-- Node13&#45;&gt;Node12 -->
<g id="edge13" class="edge"><title>Node13&#45;&gt;Node12</title>
<path fill="none" stroke="midnightblue" d="M1123.09,-167.252C1129.25,-165.526 1135.33,-163.464 1141,-161 1150.05,-157.065 1150.78,-153.454 1159,-148 1183.27,-131.908 1188.71,-126.516 1215,-114 1292.55,-77.078 1312.37,-63.6595 1397,-49 1464,-37.3943 1482.31,-42.531 1550,-49 1559.62,-49.9195 1569.7,-51.3334 1579.59,-52.984"/>
<polygon fill="midnightblue" stroke="midnightblue" points="1122.23,-163.86 1113.39,-169.697 1123.94,-170.648 1122.23,-163.86"/>
</g>
<!-- Node13&#45;&gt;Node18 -->
<g id="edge22" class="edge"><title>Node13&#45;&gt;Node18</title>
<path fill="none" stroke="midnightblue" d="M1123.38,-165.132C1160.76,-158.174 1208.81,-149.231 1244.71,-142.547"/>
<polygon fill="midnightblue" stroke="midnightblue" points="1122.33,-161.767 1113.14,-167.038 1123.62,-168.649 1122.33,-161.767"/>
</g>
<!-- Node19 -->
<g id="node19" class="node"><title>Node19</title>
<g id="a_node19"><a xlink:href="../../de/d69/classboca_1_1Reader.html" target="_top" xlink:title="boca::Reader\&lt; standardmodel\l::TopHadronicTagger \&gt;">
<polygon fill="white" stroke="black" points="2599,-137 2599,-167 2747,-167 2747,-137 2599,-137"/>
<text text-anchor="start" x="2607" y="-155" font-family="Helvetica,sans-Serif" font-size="10.00">boca::Reader&lt; standardmodel</text>
<text text-anchor="middle" x="2673" y="-144" font-family="Helvetica,sans-Serif" font-size="10.00">::TopHadronicTagger &gt;</text>
</a>
</g>
</g>
<!-- Node13&#45;&gt;Node19 -->
<g id="edge25" class="edge"><title>Node13&#45;&gt;Node19</title>
<path fill="none" stroke="midnightblue" d="M1123.17,-177.862C1247.37,-181.672 1547.67,-190 1799.5,-190 1799.5,-190 1799.5,-190 2474,-190 2525.1,-190 2582.32,-177.64 2622.05,-167.019"/>
<polygon fill="midnightblue" stroke="midnightblue" points="1123.22,-174.362 1113.12,-177.552 1123.01,-181.359 1123.22,-174.362"/>
</g>
<!-- Node24 -->
<g id="node24" class="node"><title>Node24</title>
<g id="a_node24"><a xlink:href="../../de/d69/classboca_1_1Reader.html" target="_top" xlink:title="boca::Reader\&lt; boca\l::standardmodel::BottomTagger \&gt;">
<polygon fill="white" stroke="black" points="1568,-267 1568,-297 1731,-297 1731,-267 1568,-267"/>
<text text-anchor="start" x="1576" y="-285" font-family="Helvetica,sans-Serif" font-size="10.00">boca::Reader&lt; boca</text>
<text text-anchor="middle" x="1649.5" y="-274" font-family="Helvetica,sans-Serif" font-size="10.00">::standardmodel::BottomTagger &gt;</text>
</a>
</g>
</g>
<!-- Node13&#45;&gt;Node24 -->
<g id="edge35" class="edge"><title>Node13&#45;&gt;Node24</title>
<path fill="none" stroke="midnightblue" d="M1109.28,-189.113C1120.22,-193.498 1131.52,-199.079 1141,-206 1151.2,-213.448 1148.02,-221.749 1159,-228 1226.89,-266.655 1447.3,-277.64 1567.88,-280.761"/>
<polygon fill="midnightblue" stroke="midnightblue" points="1110.4,-185.795 1099.81,-185.564 1107.94,-192.35 1110.4,-185.795"/>
</g>
<!-- Node25 -->
<g id="node25" class="node"><title>Node25</title>
<g id="a_node25"><a xlink:href="../../de/d69/classboca_1_1Reader.html" target="_top" xlink:title="boca::Reader\&lt; boca\l::standardmodel::WHadronic\lTagger \&gt;">
<polygon fill="white" stroke="black" points="2151,-232.5 2151,-273.5 2292,-273.5 2292,-232.5 2151,-232.5"/>
<text text-anchor="start" x="2159" y="-261.5" font-family="Helvetica,sans-Serif" font-size="10.00">boca::Reader&lt; boca</text>
<text text-anchor="start" x="2159" y="-250.5" font-family="Helvetica,sans-Serif" font-size="10.00">::standardmodel::WHadronic</text>
<text text-anchor="middle" x="2221.5" y="-239.5" font-family="Helvetica,sans-Serif" font-size="10.00">Tagger &gt;</text>
</a>
</g>
</g>
<!-- Node13&#45;&gt;Node25 -->
<g id="edge39" class="edge"><title>Node13&#45;&gt;Node25</title>
<path fill="none" stroke="midnightblue" d="M1123.37,-185.514C1135.14,-187.201 1147.45,-188.799 1159,-190 1531.76,-228.743 1980.81,-245.656 2150.78,-250.999"/>
<polygon fill="midnightblue" stroke="midnightblue" points="1123.6,-182.01 1113.2,-184.016 1122.58,-188.935 1123.6,-182.01"/>
</g>
<!-- Node14 -->
<g id="node14" class="node"><title>Node14</title>
<g id="a_node14"><a xlink:href="../../de/d6e/classboca_1_1standardmodel_1_1BottomTagger.html" target="_top" xlink:title="Derived Tagger class for bottom jets. ">
<polygon fill="white" stroke="black" points="1243.5,-282 1243.5,-312 1350.5,-312 1350.5,-282 1243.5,-282"/>
<text text-anchor="start" x="1251.5" y="-300" font-family="Helvetica,sans-Serif" font-size="10.00">boca::standardmodel</text>
<text text-anchor="middle" x="1297" y="-289" font-family="Helvetica,sans-Serif" font-size="10.00">::BottomTagger</text>
</a>
</g>
</g>
<!-- Node14&#45;&gt;Node12 -->
<g id="edge14" class="edge"><title>Node14&#45;&gt;Node12</title>
<path fill="none" stroke="#9a32cd" stroke-dasharray="5,2" d="M1310.07,-273.063C1326.15,-243.395 1357.25,-193.083 1397,-163 1450.97,-122.159 1524.48,-97.1059 1578.09,-83.0581"/>
<polygon fill="#9a32cd" stroke="#9a32cd" points="1306.97,-271.442 1305.39,-281.918 1313.16,-274.716 1306.97,-271.442"/>
<text text-anchor="middle" x="1473.5" y="-166" font-family="Helvetica,sans-Serif" font-size="10.00"> tagger_</text>
</g>
<!-- Node14&#45;&gt;Node24 -->
<g id="edge36" class="edge"><title>Node14&#45;&gt;Node24</title>
<path fill="none" stroke="#9a32cd" stroke-dasharray="5,2" d="M1360.88,-297.662C1411.9,-297.8 1485.66,-297.094 1550,-293 1555.84,-292.628 1561.86,-292.162 1567.92,-291.631"/>
<polygon fill="#9a32cd" stroke="#9a32cd" points="1360.68,-294.162 1350.67,-297.623 1360.65,-301.162 1360.68,-294.162"/>
<text text-anchor="middle" x="1473.5" y="-301" font-family="Helvetica,sans-Serif" font-size="10.00"> tagger_</text>
</g>
<!-- Node15&#45;&gt;Node14 -->
<g id="edge15" class="edge"><title>Node15&#45;&gt;Node14</title>
<path fill="none" stroke="midnightblue" d="M1131.48,-284.892C1166.93,-287.501 1209.95,-290.667 1243.11,-293.108"/>
<polygon fill="midnightblue" stroke="midnightblue" points="1131.44,-281.38 1121.21,-284.137 1130.93,-288.362 1131.44,-281.38"/>
</g>
<!-- Node16&#45;&gt;Node15 -->
<g id="edge17" class="edge"><title>Node16&#45;&gt;Node15</title>
<path fill="none" stroke="#9a32cd" stroke-dasharray="5,2" d="M796.96,-407.223C843.532,-389.43 912.947,-360.493 969,-327 977.7,-321.801 978.283,-318.17 987,-313 994.423,-308.597 1002.54,-304.445 1010.62,-300.669"/>
<polygon fill="#9a32cd" stroke="#9a32cd" points="795.495,-404.035 787.382,-410.848 797.973,-410.582 795.495,-404.035"/>
<text text-anchor="middle" x="898.5" y="-397" font-family="Helvetica,sans-Serif" font-size="10.00"> branch_</text>
</g>
<!-- Node17 -->
<g id="node17" class="node"><title>Node17</title>
<g id="a_node17"><a xlink:href="../../db/d5f/classboca_1_1BottomBase.html" target="_top" xlink:title="Bottom tagger root tree structure base class. ">
<polygon fill="white" stroke="black" points="506,-522.5 506,-541.5 604,-541.5 604,-522.5 506,-522.5"/>
<text text-anchor="middle" x="555" y="-529.5" font-family="Helvetica,sans-Serif" font-size="10.00">boca::BottomBase</text>
</a>
</g>
</g>
<!-- Node17&#45;&gt;Node16 -->
<g id="edge19" class="edge"><title>Node17&#45;&gt;Node16</title>
<path fill="none" stroke="midnightblue" d="M576.351,-516.1C599.843,-498.285 640.123,-469.371 678,-450 684.319,-446.768 691.178,-443.752 697.992,-441.022"/>
<polygon fill="midnightblue" stroke="midnightblue" points="574.016,-513.479 568.209,-522.341 578.275,-519.035 574.016,-513.479"/>
</g>
<!-- Node22 -->
<g id="node22" class="node"><title>Node22</title>
<g id="a_node22"><a xlink:href="../../d7/de3/classboca_1_1standardmodel_1_1TopHadronicBranch.html" target="_top" xlink:title="Top tagger root tree structure. ">
<polygon fill="white" stroke="black" points="1009.5,-504 1009.5,-534 1118.5,-534 1118.5,-504 1009.5,-504"/>
<text text-anchor="start" x="1017.5" y="-522" font-family="Helvetica,sans-Serif" font-size="10.00">boca::standardmodel</text>
<text text-anchor="middle" x="1064" y="-511" font-family="Helvetica,sans-Serif" font-size="10.00">::TopHadronicBranch</text>
</a>
</g>
</g>
<!-- Node17&#45;&gt;Node22 -->
<g id="edge32" class="edge"><title>Node17&#45;&gt;Node22</title>
<path fill="none" stroke="midnightblue" d="M614.511,-535.519C694.677,-539.57 843.074,-544.319 969,-533 982.147,-531.818 996.256,-530.008 1009.44,-528.077"/>
<polygon fill="midnightblue" stroke="midnightblue" points="614.302,-532.003 604.134,-534.979 613.938,-538.994 614.302,-532.003"/>
</g>
<!-- Node17&#45;&gt;Node28 -->
<g id="edge45" class="edge"><title>Node17&#45;&gt;Node28</title>
<path fill="none" stroke="midnightblue" d="M596.937,-519.522C625.4,-510.846 663.49,-499.236 693.636,-490.047"/>
<polygon fill="midnightblue" stroke="midnightblue" points="595.845,-516.196 587.3,-522.459 597.886,-522.892 595.845,-516.196"/>
</g>
<!-- Node18&#45;&gt;Node12 -->
<g id="edge21" class="edge"><title>Node18&#45;&gt;Node12</title>
<path fill="none" stroke="orange" stroke-dasharray="5,2" d="M1328.7,-118.754C1344.45,-110.766 1363.53,-100.003 1379,-88 1388.19,-80.8703 1386.32,-73.6175 1397,-69 1453.31,-44.6479 1523.56,-46.7248 1575.5,-53.5559"/>
<polygon fill="orange" stroke="orange" points="1326.8,-115.789 1319.39,-123.356 1329.9,-122.065 1326.8,-115.789"/>
<text text-anchor="middle" x="1473.5" y="-72" font-family="Helvetica,sans-Serif" font-size="10.00"> &lt; standardmodel::BottomTagger &gt;</text>
</g>
<!-- Node18&#45;&gt;Node19 -->
<g id="edge49" class="edge"><title>Node18&#45;&gt;Node19</title>
<path fill="none" stroke="orange" stroke-dasharray="5,2" d="M1389.29,-127.463C1489.78,-121.854 1656.09,-114 1799.5,-114 1799.5,-114 1799.5,-114 2474,-114 2525.1,-114 2582.32,-126.36 2622.05,-136.981"/>
<polygon fill="orange" stroke="orange" points="1388.97,-123.976 1379.18,-128.033 1389.36,-130.965 1388.97,-123.976"/>
<text text-anchor="start" x="1995" y="-128" font-family="Helvetica,sans-Serif" font-size="10.00"> &lt; standardmodel::TopHadronic</text>
<text text-anchor="middle" x="2064" y="-117" font-family="Helvetica,sans-Serif" font-size="10.00">Tagger &gt;</text>
</g>
<!-- Node18&#45;&gt;Node24 -->
<g id="edge37" class="edge"><title>Node18&#45;&gt;Node24</title>
<path fill="none" stroke="orange" stroke-dasharray="5,2" d="M1329.86,-146.546C1395.4,-174.403 1544.84,-237.935 1613.2,-266.993"/>
<polygon fill="orange" stroke="orange" points="1331.03,-143.239 1320.46,-142.547 1328.29,-149.681 1331.03,-143.239"/>
<text text-anchor="start" x="1422" y="-252" font-family="Helvetica,sans-Serif" font-size="10.00"> &lt; boca::standardmodel</text>
<text text-anchor="middle" x="1473.5" y="-241" font-family="Helvetica,sans-Serif" font-size="10.00">::BottomTagger &gt;</text>
</g>
<!-- Node18&#45;&gt;Node25 -->
<g id="edge48" class="edge"><title>Node18&#45;&gt;Node25</title>
<path fill="none" stroke="orange" stroke-dasharray="5,2" d="M1389.23,-138.623C1391.85,-138.754 1394.44,-138.88 1397,-139 1725.45,-154.364 1820.36,-112.186 2133,-214 2148.34,-218.995 2164.62,-225.805 2178.92,-232.336"/>
<polygon fill="orange" stroke="orange" points="1389.2,-135.117 1379.03,-138.093 1388.84,-142.108 1389.2,-135.117"/>
<text text-anchor="start" x="1749" y="-164" font-family="Helvetica,sans-Serif" font-size="10.00"> &lt; boca::standardmodel</text>
<text text-anchor="middle" x="1800.5" y="-153" font-family="Helvetica,sans-Serif" font-size="10.00">::WHadronicTagger &gt;</text>
</g>
<!-- Node19&#45;&gt;Node1 -->
<g id="edge24" class="edge"><title>Node19&#45;&gt;Node1</title>
<path fill="none" stroke="#9a32cd" stroke-dasharray="5,2" d="M2732.1,-133.959C2787.8,-116.66 2869.75,-91.2128 2913.8,-77.5343"/>
<polygon fill="#9a32cd" stroke="#9a32cd" points="2730.87,-130.674 2722.36,-136.982 2732.95,-137.359 2730.87,-130.674"/>
<text text-anchor="middle" x="2813.5" y="-126" font-family="Helvetica,sans-Serif" font-size="10.00"> top_hadronic_reader_</text>
</g>
<!-- Node20 -->
<g id="node20" class="node"><title>Node20</title>
<g id="a_node20"><a xlink:href="../../d9/d48/classboca_1_1standardmodel_1_1TopHadronicTagger.html" target="_top" xlink:title="Hadronic top BDT tagger. ">
<polygon fill="white" stroke="black" points="2419,-285 2419,-315 2527,-315 2527,-285 2419,-285"/>
<text text-anchor="start" x="2427" y="-303" font-family="Helvetica,sans-Serif" font-size="10.00">boca::standardmodel</text>
<text text-anchor="middle" x="2473" y="-292" font-family="Helvetica,sans-Serif" font-size="10.00">::TopHadronicTagger</text>
</a>
</g>
</g>
<!-- Node20&#45;&gt;Node19 -->
<g id="edge26" class="edge"><title>Node20&#45;&gt;Node19</title>
<path fill="none" stroke="#9a32cd" stroke-dasharray="5,2" d="M2502.19,-278.928C2542.7,-248.646 2616.4,-193.556 2651.87,-167.045"/>
<polygon fill="#9a32cd" stroke="#9a32cd" points="2499.99,-276.204 2494.07,-284.995 2504.18,-281.811 2499.99,-276.204"/>
<text text-anchor="middle" x="2563" y="-247" font-family="Helvetica,sans-Serif" font-size="10.00"> tagger_</text>
</g>
<!-- Node21&#45;&gt;Node20 -->
<g id="edge27" class="edge"><title>Node21&#45;&gt;Node20</title>
<path fill="none" stroke="midnightblue" d="M1384.46,-383.848C1455.4,-383.002 1558.45,-382 1648.5,-382 1648.5,-382 1648.5,-382 2222.5,-382 2307.31,-382 2400.59,-338.713 2445.26,-315.04"/>
<polygon fill="midnightblue" stroke="midnightblue" points="1384.19,-380.351 1374.23,-383.972 1384.28,-387.351 1384.19,-380.351"/>
</g>
<!-- Node22&#45;&gt;Node21 -->
<g id="edge29" class="edge"><title>Node22&#45;&gt;Node21</title>
<path fill="none" stroke="#9a32cd" stroke-dasharray="5,2" d="M1099.9,-498.754C1146.62,-471.655 1228.4,-424.212 1270.05,-400.056"/>
<polygon fill="#9a32cd" stroke="#9a32cd" points="1097.94,-495.844 1091.05,-503.889 1101.46,-501.899 1097.94,-495.844"/>
<text text-anchor="middle" x="1178" y="-468" font-family="Helvetica,sans-Serif" font-size="10.00"> branch_</text>
</g>
<!-- Node23&#45;&gt;Node22 -->
<g id="edge30" class="edge"><title>Node23&#45;&gt;Node22</title>
<path fill="none" stroke="midnightblue" d="M801.809,-519C860.614,-519 951.78,-519 1009.38,-519"/>
<polygon fill="midnightblue" stroke="midnightblue" points="801.581,-515.5 791.58,-519 801.58,-522.5 801.581,-515.5"/>
</g>
<!-- Node24&#45;&gt;Node20 -->
<g id="edge34" class="edge"><title>Node24&#45;&gt;Node20</title>
<path fill="none" stroke="#9a32cd" stroke-dasharray="5,2" d="M1741.24,-293.414C1743.85,-293.627 1746.44,-293.824 1749,-294 1802.66,-297.702 1816.22,-295.189 1870,-296 2065.55,-298.949 2114.43,-300.667 2310,-302 2350.44,-302.276 2360.56,-302.569 2401,-302 2406.8,-301.918 2412.86,-301.799 2418.89,-301.659"/>
<polygon fill="#9a32cd" stroke="#9a32cd" points="1741.34,-289.909 1731.07,-292.512 1740.72,-296.882 1741.34,-289.909"/>
<text text-anchor="middle" x="2064" y="-304" font-family="Helvetica,sans-Serif" font-size="10.00"> bottom_reader_</text>
</g>
<!-- Node26 -->
<g id="node26" class="node"><title>Node26</title>
<g id="a_node26"><a xlink:href="../../d1/dc2/classboca_1_1standardmodel_1_1WHadronicTagger.html" target="_top" xlink:title="W BDT tagger. ">
<polygon fill="white" stroke="black" points="1870,-257 1870,-287 1977,-287 1977,-257 1870,-257"/>
<text text-anchor="start" x="1878" y="-275" font-family="Helvetica,sans-Serif" font-size="10.00">boca::standardmodel</text>
<text text-anchor="middle" x="1923.5" y="-264" font-family="Helvetica,sans-Serif" font-size="10.00">::WHadronicTagger</text>
</a>
</g>
</g>
<!-- Node24&#45;&gt;Node26 -->
<g id="edge47" class="edge"><title>Node24&#45;&gt;Node26</title>
<path fill="none" stroke="#9a32cd" stroke-dasharray="5,2" d="M1741.13,-278.668C1783.81,-277.099 1833.23,-275.282 1869.69,-273.941"/>
<polygon fill="#9a32cd" stroke="#9a32cd" points="1740.87,-275.175 1731,-279.04 1741.13,-282.17 1740.87,-275.175"/>
<text text-anchor="middle" x="1800.5" y="-282" font-family="Helvetica,sans-Serif" font-size="10.00"> bottom_reader_</text>
</g>
<!-- Node25&#45;&gt;Node20 -->
<g id="edge38" class="edge"><title>Node25&#45;&gt;Node20</title>
<path fill="none" stroke="#9a32cd" stroke-dasharray="5,2" d="M2302.37,-268.046C2340.45,-275.219 2384.96,-283.604 2418.83,-289.984"/>
<polygon fill="#9a32cd" stroke="#9a32cd" points="2302.81,-264.566 2292.33,-266.155 2301.51,-271.445 2302.81,-264.566"/>
<text text-anchor="middle" x="2355.5" y="-290" font-family="Helvetica,sans-Serif" font-size="10.00"> w_hadronic_reader_</text>
</g>
<!-- Node26&#45;&gt;Node25 -->
<g id="edge40" class="edge"><title>Node26&#45;&gt;Node25</title>
<path fill="none" stroke="#9a32cd" stroke-dasharray="5,2" d="M1987.33,-267.967C2035.29,-264.889 2101.33,-260.649 2150.89,-257.468"/>
<polygon fill="#9a32cd" stroke="#9a32cd" points="1986.83,-264.492 1977.08,-268.625 1987.28,-271.477 1986.83,-264.492"/>
<text text-anchor="middle" x="2064" y="-271" font-family="Helvetica,sans-Serif" font-size="10.00"> tagger_</text>
</g>
<!-- Node27&#45;&gt;Node26 -->
<g id="edge41" class="edge"><title>Node27&#45;&gt;Node26</title>
<path fill="none" stroke="midnightblue" d="M1151.3,-335.256C1278.36,-330.897 1523.2,-321.287 1731,-306 1784.9,-302.035 1799.04,-304.772 1852,-294 1860.92,-292.185 1870.32,-289.685 1879.24,-287.019"/>
<polygon fill="midnightblue" stroke="midnightblue" points="1151.11,-331.76 1141.24,-335.598 1151.35,-338.756 1151.11,-331.76"/>
</g>
<!-- Node28&#45;&gt;Node27 -->
<g id="edge43" class="edge"><title>Node28&#45;&gt;Node27</title>
<path fill="none" stroke="#9a32cd" stroke-dasharray="5,2" d="M807.787,-474.038C854.654,-470.965 918.962,-461.619 969,-435 1006.27,-415.175 1037.6,-375.274 1052.92,-353.329"/>
<polygon fill="#9a32cd" stroke="#9a32cd" points="807.546,-470.546 797.765,-474.618 807.95,-477.535 807.546,-470.546"/>
<text text-anchor="middle" x="898.5" y="-476" font-family="Helvetica,sans-Serif" font-size="10.00"> branch_</text>
</g>
</g>
</svg>
