<?xml version="1.0" encoding="UTF-8" standalone="no"?>
<!DOCTYPE svg PUBLIC "-//W3C//DTD SVG 1.1//EN"
 "http://www.w3.org/Graphics/SVG/1.1/DTD/svg11.dtd">
<!-- Generated by graphviz version 2.38.0 (20140413.2041)
 -->
<!-- Title: HeavyHiggs/include/HeavyHiggsLeptonicTagger.hh Pages: 1 -->
<svg width="1768pt" height="554pt"
 viewBox="0.00 0.00 1768.29 554.00" xmlns="http://www.w3.org/2000/svg" xmlns:xlink="http://www.w3.org/1999/xlink">
<g id="graph0" class="graph" transform="scale(1 1) rotate(0) translate(4 550)">
<title>HeavyHiggs/include/HeavyHiggsLeptonicTagger.hh</title>
<polygon fill="white" stroke="none" points="-4,4 -4,-550 1764.29,-550 1764.29,4 -4,4"/>
<!-- Node1 -->
<g id="node1" class="node"><title>Node1</title>
<polygon fill="#bfbfbf" stroke="black" points="1262.29,-515.5 1262.29,-545.5 1416.29,-545.5 1416.29,-515.5 1262.29,-515.5"/>
<text text-anchor="start" x="1270.29" y="-533.5" font-family="Helvetica,sans-Serif" font-size="10.00">HeavyHiggs/include</text>
<text text-anchor="middle" x="1339.29" y="-522.5" font-family="Helvetica,sans-Serif" font-size="10.00">/HeavyHiggsLeptonicTagger.hh</text>
</g>
<!-- Node2 -->
<g id="node2" class="node"><title>Node2</title>
<g id="a_node2"><a xlink:href="../../d5/d88/TopLeptonicTagger_8hh.html" target="_top" xlink:title="TopLeptonicTagger.hh">
<polygon fill="white" stroke="black" points="1282.79,-459.5 1282.79,-478.5 1395.79,-478.5 1395.79,-459.5 1282.79,-459.5"/>
<text text-anchor="middle" x="1339.29" y="-466.5" font-family="Helvetica,sans-Serif" font-size="10.00">TopLeptonicTagger.hh</text>
</a>
</g>
</g>
<!-- Node1&#45;&gt;Node2 -->
<g id="edge1" class="edge"><title>Node1&#45;&gt;Node2</title>
<path fill="none" stroke="midnightblue" d="M1339.29,-515.399C1339.29,-507.466 1339.29,-497.458 1339.29,-488.858"/>
<polygon fill="midnightblue" stroke="midnightblue" points="1342.79,-488.658 1339.29,-478.658 1335.79,-488.658 1342.79,-488.658"/>
</g>
<!-- Node49 -->
<g id="node49" class="node"><title>Node49</title>
<g id="a_node49"><a xlink:href="../../d2/d98/Sextet_8hh.html" target="_top" xlink:title="Sextet.hh">
<polygon fill="white" stroke="black" points="1166.79,-459.5 1166.79,-478.5 1225.79,-478.5 1225.79,-459.5 1166.79,-459.5"/>
<text text-anchor="middle" x="1196.29" y="-466.5" font-family="Helvetica,sans-Serif" font-size="10.00">Sextet.hh</text>
</a>
</g>
</g>
<!-- Node1&#45;&gt;Node49 -->
<g id="edge72" class="edge"><title>Node1&#45;&gt;Node49</title>
<path fill="none" stroke="midnightblue" d="M1305.4,-515.399C1281.41,-505.416 1249.51,-492.147 1226.41,-482.534"/>
<polygon fill="midnightblue" stroke="midnightblue" points="1227.67,-479.268 1217.1,-478.658 1224.98,-485.731 1227.67,-479.268"/>
</g>
<!-- Node50 -->
<g id="node50" class="node"><title>Node50</title>
<g id="a_node50"><a xlink:href="../../d8/d6f/Branch_8hh.html" target="_top" xlink:title="Branch.hh">
<polygon fill="white" stroke="black" points="1575.79,-403.5 1575.79,-422.5 1636.79,-422.5 1636.79,-403.5 1575.79,-403.5"/>
<text text-anchor="middle" x="1606.29" y="-410.5" font-family="Helvetica,sans-Serif" font-size="10.00">Branch.hh</text>
</a>
</g>
</g>
<!-- Node1&#45;&gt;Node50 -->
<g id="edge74" class="edge"><title>Node1&#45;&gt;Node50</title>
<path fill="none" stroke="midnightblue" d="M1371.76,-515.453C1424.27,-492.739 1526.99,-448.304 1577.22,-426.573"/>
<polygon fill="midnightblue" stroke="midnightblue" points="1578.75,-429.725 1586.54,-422.542 1575.97,-423.3 1578.75,-429.725"/>
</g>
<!-- Node3 -->
<g id="node3" class="node"><title>Node3</title>
<g id="a_node3"><a xlink:href="../../de/dbb/BottomTagger_8hh.html" target="_top" xlink:title="BottomTagger.hh">
<polygon fill="white" stroke="black" points="1534.29,-347.5 1534.29,-366.5 1626.29,-366.5 1626.29,-347.5 1534.29,-347.5"/>
<text text-anchor="middle" x="1580.29" y="-354.5" font-family="Helvetica,sans-Serif" font-size="10.00">BottomTagger.hh</text>
</a>
</g>
</g>
<!-- Node2&#45;&gt;Node3 -->
<g id="edge2" class="edge"><title>Node2&#45;&gt;Node3</title>
<path fill="none" stroke="midnightblue" d="M1358.2,-459.368C1400.43,-440.091 1502.61,-393.454 1552.27,-370.789"/>
<polygon fill="midnightblue" stroke="midnightblue" points="1553.82,-373.928 1561.46,-366.591 1550.91,-367.56 1553.82,-373.928"/>
</g>
<!-- Node40 -->
<g id="node40" class="node"><title>Node40</title>
<g id="a_node40"><a xlink:href="../../d2/dd8/WLeptonicTagger_8hh.html" target="_top" xlink:title="WLeptonicTagger.hh">
<polygon fill="white" stroke="black" points="1223.79,-403.5 1223.79,-422.5 1330.79,-422.5 1330.79,-403.5 1223.79,-403.5"/>
<text text-anchor="middle" x="1277.29" y="-410.5" font-family="Helvetica,sans-Serif" font-size="10.00">WLeptonicTagger.hh</text>
</a>
</g>
</g>
<!-- Node2&#45;&gt;Node40 -->
<g id="edge53" class="edge"><title>Node2&#45;&gt;Node40</title>
<path fill="none" stroke="midnightblue" d="M1329.33,-459.324C1320.16,-451.341 1306.35,-439.313 1295.26,-429.653"/>
<polygon fill="midnightblue" stroke="midnightblue" points="1297.27,-426.762 1287.43,-422.834 1292.67,-432.041 1297.27,-426.762"/>
</g>
<!-- Node44 -->
<g id="node44" class="node"><title>Node44</title>
<g id="a_node44"><a xlink:href="../../d7/db9/Triplet_8hh.html" target="_top" xlink:title="Triplet.hh">
<polygon fill="white" stroke="black" points="1148.79,-403.5 1148.79,-422.5 1205.79,-422.5 1205.79,-403.5 1148.79,-403.5"/>
<text text-anchor="middle" x="1177.29" y="-410.5" font-family="Helvetica,sans-Serif" font-size="10.00">Triplet.hh</text>
</a>
</g>
</g>
<!-- Node2&#45;&gt;Node44 -->
<g id="edge64" class="edge"><title>Node2&#45;&gt;Node44</title>
<path fill="none" stroke="midnightblue" d="M1313.62,-459.444C1286.37,-450.359 1243.1,-435.939 1212.64,-425.783"/>
<polygon fill="midnightblue" stroke="midnightblue" points="1213.43,-422.358 1202.84,-422.516 1211.22,-428.999 1213.43,-422.358"/>
</g>
<!-- Node45 -->
<g id="node45" class="node"><title>Node45</title>
<g id="a_node45"><a xlink:href="../../df/d2c/Reader_8hh.html" target="_top" xlink:title="Reader.hh">
<polygon fill="white" stroke="black" points="1328.29,-291.5 1328.29,-310.5 1390.29,-310.5 1390.29,-291.5 1328.29,-291.5"/>
<text text-anchor="middle" x="1359.29" y="-298.5" font-family="Helvetica,sans-Serif" font-size="10.00">Reader.hh</text>
</a>
</g>
</g>
<!-- Node2&#45;&gt;Node45 -->
<g id="edge66" class="edge"><title>Node2&#45;&gt;Node45</title>
<path fill="none" stroke="midnightblue" d="M1340.36,-459.075C1343.51,-432.945 1352.76,-356.211 1357.05,-320.577"/>
<polygon fill="midnightblue" stroke="midnightblue" points="1360.53,-320.915 1358.26,-310.568 1353.58,-320.078 1360.53,-320.915"/>
</g>
<!-- Node4 -->
<g id="node4" class="node"><title>Node4</title>
<g id="a_node4"><a xlink:href="../../d0/d79/Branches_8hh.html" target="_top" xlink:title="Branches.hh">
<polygon fill="white" stroke="black" points="1610.79,-174 1610.79,-193 1681.79,-193 1681.79,-174 1610.79,-174"/>
<text text-anchor="middle" x="1646.29" y="-181" font-family="Helvetica,sans-Serif" font-size="10.00">Branches.hh</text>
</a>
</g>
</g>
<!-- Node3&#45;&gt;Node4 -->
<g id="edge3" class="edge"><title>Node3&#45;&gt;Node4</title>
<path fill="none" stroke="midnightblue" d="M1583.65,-347.26C1593.98,-320.421 1625.38,-238.818 1639.4,-202.39"/>
<polygon fill="midnightblue" stroke="midnightblue" points="1642.68,-203.609 1643.01,-193.019 1636.15,-201.095 1642.68,-203.609"/>
</g>
<!-- Node9 -->
<g id="node9" class="node"><title>Node9</title>
<g id="a_node9"><a xlink:href="../../d2/d41/BranchTagger_8hh.html" target="_top" xlink:title="BranchTagger.hh">
<polygon fill="white" stroke="black" points="1088.79,-291.5 1088.79,-310.5 1179.79,-310.5 1179.79,-291.5 1088.79,-291.5"/>
<text text-anchor="middle" x="1134.29" y="-298.5" font-family="Helvetica,sans-Serif" font-size="10.00">BranchTagger.hh</text>
</a>
</g>
</g>
<!-- Node3&#45;&gt;Node9 -->
<g id="edge8" class="edge"><title>Node3&#45;&gt;Node9</title>
<path fill="none" stroke="midnightblue" d="M1534.24,-350.424C1451.81,-340.445 1279.38,-319.567 1190.27,-308.778"/>
<polygon fill="midnightblue" stroke="midnightblue" points="1190.44,-305.273 1180.09,-307.545 1189.59,-312.222 1190.44,-305.273"/>
</g>
<!-- Node5 -->
<g id="node5" class="node"><title>Node5</title>
<polygon fill="white" stroke="#bfbfbf" points="1488.29,-112.5 1488.29,-131.5 1532.29,-131.5 1532.29,-112.5 1488.29,-112.5"/>
<text text-anchor="middle" x="1510.29" y="-119.5" font-family="Helvetica,sans-Serif" font-size="10.00">vector</text>
</g>
<!-- Node4&#45;&gt;Node5 -->
<g id="edge4" class="edge"><title>Node4&#45;&gt;Node5</title>
<path fill="none" stroke="midnightblue" d="M1626.8,-173.975C1603.88,-163.945 1565.6,-147.2 1539.21,-135.655"/>
<polygon fill="midnightblue" stroke="midnightblue" points="1540.3,-132.311 1529.74,-131.509 1537.5,-138.724 1540.3,-132.311"/>
</g>
<!-- Node6 -->
<g id="node6" class="node"><title>Node6</title>
<polygon fill="white" stroke="#bfbfbf" points="1246.79,-0.5 1246.79,-19.5 1287.79,-19.5 1287.79,-0.5 1246.79,-0.5"/>
<text text-anchor="middle" x="1267.29" y="-7.5" font-family="Helvetica,sans-Serif" font-size="10.00">string</text>
</g>
<!-- Node4&#45;&gt;Node6 -->
<g id="edge5" class="edge"><title>Node4&#45;&gt;Node6</title>
<path fill="none" stroke="midnightblue" d="M1636.65,-173.687C1621.17,-159.751 1589.55,-132.143 1560.29,-112 1518.97,-83.5542 1509,-74.2794 1462.29,-56 1406.27,-34.0818 1336.84,-21.2284 1297.75,-15.2034"/>
<polygon fill="midnightblue" stroke="midnightblue" points="1298.21,-11.7328 1287.8,-13.7167 1297.17,-18.656 1298.21,-11.7328"/>
</g>
<!-- Node7 -->
<g id="node7" class="node"><title>Node7</title>
<polygon fill="white" stroke="#bfbfbf" points="1626.79,-112.5 1626.79,-131.5 1685.79,-131.5 1685.79,-112.5 1626.79,-112.5"/>
<text text-anchor="middle" x="1656.29" y="-119.5" font-family="Helvetica,sans-Serif" font-size="10.00">TObject.h</text>
</g>
<!-- Node4&#45;&gt;Node7 -->
<g id="edge6" class="edge"><title>Node4&#45;&gt;Node7</title>
<path fill="none" stroke="midnightblue" d="M1647.72,-173.975C1649.13,-165.58 1651.33,-152.481 1653.15,-141.663"/>
<polygon fill="midnightblue" stroke="midnightblue" points="1656.65,-141.951 1654.86,-131.509 1649.75,-140.791 1656.65,-141.951"/>
</g>
<!-- Node8 -->
<g id="node8" class="node"><title>Node8</title>
<polygon fill="white" stroke="#bfbfbf" points="1704.29,-112.5 1704.29,-131.5 1760.29,-131.5 1760.29,-112.5 1704.29,-112.5"/>
<text text-anchor="middle" x="1732.29" y="-119.5" font-family="Helvetica,sans-Serif" font-size="10.00">Rtypes.h</text>
</g>
<!-- Node4&#45;&gt;Node8 -->
<g id="edge7" class="edge"><title>Node4&#45;&gt;Node8</title>
<path fill="none" stroke="midnightblue" d="M1658.61,-173.975C1672.4,-164.431 1694.99,-148.807 1711.52,-137.368"/>
<polygon fill="midnightblue" stroke="midnightblue" points="1713.76,-140.077 1719.99,-131.509 1709.77,-134.32 1713.76,-140.077"/>
</g>
<!-- Node10 -->
<g id="node10" class="node"><title>Node10</title>
<g id="a_node10"><a xlink:href="../../d1/d8c/Tagger_8hh.html" target="_top" xlink:title="Tagger.hh">
<polygon fill="white" stroke="black" points="1248.29,-235.5 1248.29,-254.5 1308.29,-254.5 1308.29,-235.5 1248.29,-235.5"/>
<text text-anchor="middle" x="1278.29" y="-242.5" font-family="Helvetica,sans-Serif" font-size="10.00">Tagger.hh</text>
</a>
</g>
</g>
<!-- Node9&#45;&gt;Node10 -->
<g id="edge9" class="edge"><title>Node9&#45;&gt;Node10</title>
<path fill="none" stroke="midnightblue" d="M1157.1,-291.444C1181.12,-282.438 1219.12,-268.189 1246.16,-258.049"/>
<polygon fill="midnightblue" stroke="midnightblue" points="1247.44,-261.305 1255.58,-254.516 1244.98,-254.751 1247.44,-261.305"/>
</g>
<!-- Node15 -->
<g id="node15" class="node"><title>Node15</title>
<g id="a_node15"><a xlink:href="../../d3/d7e/Vector_8hh.html" target="_top" xlink:title="Vector.hh">
<polygon fill="white" stroke="black" points="1082.79,-174 1082.79,-193 1141.79,-193 1141.79,-174 1082.79,-174"/>
<text text-anchor="middle" x="1112.29" y="-181" font-family="Helvetica,sans-Serif" font-size="10.00">Vector.hh</text>
</a>
</g>
</g>
<!-- Node9&#45;&gt;Node15 -->
<g id="edge43" class="edge"><title>Node9&#45;&gt;Node15</title>
<path fill="none" stroke="midnightblue" d="M1139.43,-291.461C1146.31,-278.915 1156.92,-254.84 1150.29,-235 1145.97,-222.093 1136.92,-209.838 1128.73,-200.634"/>
<polygon fill="midnightblue" stroke="midnightblue" points="1131.03,-197.97 1121.62,-193.107 1125.94,-202.778 1131.03,-197.97"/>
</g>
<!-- Node22 -->
<g id="node22" class="node"><title>Node22</title>
<g id="a_node22"><a xlink:href="../../d6/dd8/Types_8hh.html" target="_top" xlink:title="Types.hh">
<polygon fill="white" stroke="black" points="1238.79,-56.5 1238.79,-75.5 1295.79,-75.5 1295.79,-56.5 1238.79,-56.5"/>
<text text-anchor="middle" x="1267.29" y="-63.5" font-family="Helvetica,sans-Serif" font-size="10.00">Types.hh</text>
</a>
</g>
</g>
<!-- Node9&#45;&gt;Node22 -->
<g id="edge46" class="edge"><title>Node9&#45;&gt;Node22</title>
<path fill="none" stroke="midnightblue" d="M1141.25,-291.407C1148.17,-282.614 1158.79,-268.381 1166.29,-255 1200.06,-194.719 1190.3,-170.361 1227.29,-112 1233.92,-101.538 1242.98,-91.1194 1250.8,-82.9458"/>
<polygon fill="midnightblue" stroke="midnightblue" points="1253.53,-85.1701 1258.08,-75.602 1248.55,-80.2444 1253.53,-85.1701"/>
</g>
<!-- Node23 -->
<g id="node23" class="node"><title>Node23</title>
<g id="a_node23"><a xlink:href="../../db/d60/Singlet_8hh.html" target="_top" xlink:title="Singlet.hh">
<polygon fill="white" stroke="black" points="15.2877,-174 15.2877,-193 75.2877,-193 75.2877,-174 15.2877,-174"/>
<text text-anchor="middle" x="45.2877" y="-181" font-family="Helvetica,sans-Serif" font-size="10.00">Singlet.hh</text>
</a>
</g>
</g>
<!-- Node9&#45;&gt;Node23 -->
<g id="edge27" class="edge"><title>Node9&#45;&gt;Node23</title>
<path fill="none" stroke="midnightblue" d="M1088.55,-297.33C912.641,-286.791 279.738,-246.344 84.2877,-199 81.2952,-198.275 78.218,-197.39 75.1672,-196.417"/>
<polygon fill="midnightblue" stroke="midnightblue" points="76.2435,-193.086 65.6487,-193.104 73.9425,-199.697 76.2435,-193.086"/>
</g>
<!-- Node29 -->
<g id="node29" class="node"><title>Node29</title>
<polygon fill="white" stroke="#bfbfbf" points="1056.79,-235.5 1056.79,-254.5 1141.79,-254.5 1141.79,-235.5 1056.79,-235.5"/>
<text text-anchor="middle" x="1099.29" y="-242.5" font-family="Helvetica,sans-Serif" font-size="10.00">TClonesArray.h</text>
</g>
<!-- Node9&#45;&gt;Node29 -->
<g id="edge36" class="edge"><title>Node9&#45;&gt;Node29</title>
<path fill="none" stroke="midnightblue" d="M1128.51,-291.083C1123.62,-283.534 1116.46,-272.495 1110.46,-263.23"/>
<polygon fill="midnightblue" stroke="midnightblue" points="1113.34,-261.239 1104.96,-254.751 1107.46,-265.046 1113.34,-261.239"/>
</g>
<!-- Node30 -->
<g id="node30" class="node"><title>Node30</title>
<g id="a_node30"><a xlink:href="../../db/d31/Sort_8hh.html" target="_top" xlink:title="Sort.hh">
<polygon fill="white" stroke="black" points="1016.29,-174 1016.29,-193 1064.29,-193 1064.29,-174 1016.29,-174"/>
<text text-anchor="middle" x="1040.29" y="-181" font-family="Helvetica,sans-Serif" font-size="10.00">Sort.hh</text>
</a>
</g>
</g>
<!-- Node9&#45;&gt;Node30 -->
<g id="edge37" class="edge"><title>Node9&#45;&gt;Node30</title>
<path fill="none" stroke="midnightblue" d="M1101.26,-291.475C1082.28,-284.785 1059.8,-273.433 1047.29,-255 1037.05,-239.915 1036.32,-218.665 1037.52,-203.445"/>
<polygon fill="midnightblue" stroke="midnightblue" points="1041.04,-203.516 1038.69,-193.185 1034.08,-202.724 1041.04,-203.516"/>
</g>
<!-- Node32 -->
<g id="node32" class="node"><title>Node32</title>
<g id="a_node32"><a xlink:href="../../d7/d7f/Math_8hh.html" target="_top" xlink:title="Math.hh">
<polygon fill="white" stroke="black" points="946.288,-235.5 946.288,-254.5 998.288,-254.5 998.288,-235.5 946.288,-235.5"/>
<text text-anchor="middle" x="972.288" y="-242.5" font-family="Helvetica,sans-Serif" font-size="10.00">Math.hh</text>
</a>
</g>
</g>
<!-- Node9&#45;&gt;Node32 -->
<g id="edge44" class="edge"><title>Node9&#45;&gt;Node32</title>
<path fill="none" stroke="midnightblue" d="M1108.62,-291.444C1081.37,-282.359 1038.1,-267.939 1007.64,-257.783"/>
<polygon fill="midnightblue" stroke="midnightblue" points="1008.43,-254.358 997.837,-254.516 1006.22,-260.999 1008.43,-254.358"/>
</g>
<!-- Node34 -->
<g id="node34" class="node"><title>Node34</title>
<g id="a_node34"><a xlink:href="../../d3/d96/ExRootAnalysis_8hh.html" target="_top" xlink:title="exroot/ExRootAnalysis.hh">
<polygon fill="white" stroke="black" points="560.788,-235.5 560.788,-254.5 691.788,-254.5 691.788,-235.5 560.788,-235.5"/>
<text text-anchor="middle" x="626.288" y="-242.5" font-family="Helvetica,sans-Serif" font-size="10.00">exroot/ExRootAnalysis.hh</text>
</a>
</g>
</g>
<!-- Node9&#45;&gt;Node34 -->
<g id="edge47" class="edge"><title>Node9&#45;&gt;Node34</title>
<path fill="none" stroke="midnightblue" d="M1088.76,-295.16C1001.35,-285.869 809.22,-265.446 702.148,-254.064"/>
<polygon fill="midnightblue" stroke="midnightblue" points="702.372,-250.568 692.058,-252.991 701.632,-257.529 702.372,-250.568"/>
</g>
<!-- Node10&#45;&gt;Node4 -->
<g id="edge16" class="edge"><title>Node10&#45;&gt;Node4</title>
<path fill="none" stroke="midnightblue" d="M1308.46,-236.721C1311.43,-236.099 1314.41,-235.512 1317.29,-235 1442.54,-212.667 1477.09,-226.63 1601.29,-199 1605.14,-198.142 1609.14,-197.094 1613.09,-195.959"/>
<polygon fill="midnightblue" stroke="midnightblue" points="1614.16,-199.291 1622.69,-193.011 1612.11,-192.599 1614.16,-199.291"/>
</g>
<!-- Node11 -->
<g id="node11" class="node"><title>Node11</title>
<polygon fill="white" stroke="#bfbfbf" points="1337.79,-174 1337.79,-193 1384.79,-193 1384.79,-174 1337.79,-174"/>
<text text-anchor="middle" x="1361.29" y="-181" font-family="Helvetica,sans-Serif" font-size="10.00">TCut.h</text>
</g>
<!-- Node10&#45;&gt;Node11 -->
<g id="edge10" class="edge"><title>Node10&#45;&gt;Node11</title>
<path fill="none" stroke="midnightblue" d="M1290.18,-235.475C1303.49,-225.931 1325.29,-210.307 1341.24,-198.868"/>
<polygon fill="midnightblue" stroke="midnightblue" points="1343.33,-201.68 1349.42,-193.009 1339.25,-195.991 1343.33,-201.68"/>
</g>
<!-- Node12 -->
<g id="node12" class="node"><title>Node12</title>
<polygon fill="white" stroke="#bfbfbf" points="1236.79,-174 1236.79,-193 1319.79,-193 1319.79,-174 1236.79,-174"/>
<text text-anchor="middle" x="1278.29" y="-181" font-family="Helvetica,sans-Serif" font-size="10.00">TMVA/Types.h</text>
</g>
<!-- Node10&#45;&gt;Node12 -->
<g id="edge11" class="edge"><title>Node10&#45;&gt;Node12</title>
<path fill="none" stroke="midnightblue" d="M1278.29,-235.475C1278.29,-227.08 1278.29,-213.981 1278.29,-203.163"/>
<polygon fill="midnightblue" stroke="midnightblue" points="1281.79,-203.009 1278.29,-193.009 1274.79,-203.009 1281.79,-203.009"/>
</g>
<!-- Node13 -->
<g id="node13" class="node"><title>Node13</title>
<g id="a_node13"><a xlink:href="../../de/d1f/Observable_8hh.html" target="_top" xlink:title="Observable.hh">
<polygon fill="white" stroke="black" points="1373.29,-56.5 1373.29,-75.5 1453.29,-75.5 1453.29,-56.5 1373.29,-56.5"/>
<text text-anchor="middle" x="1413.29" y="-63.5" font-family="Helvetica,sans-Serif" font-size="10.00">Observable.hh</text>
</a>
</g>
</g>
<!-- Node10&#45;&gt;Node13 -->
<g id="edge12" class="edge"><title>Node10&#45;&gt;Node13</title>
<path fill="none" stroke="midnightblue" d="M1308.5,-236.908C1311.46,-236.248 1314.43,-235.601 1317.29,-235 1400.96,-217.383 1437.64,-249.985 1506.29,-199 1539.75,-174.15 1565.38,-146.009 1541.29,-112 1523.7,-87.1779 1491.29,-75.9477 1463.48,-70.913"/>
<polygon fill="midnightblue" stroke="midnightblue" points="1463.9,-67.4366 1453.48,-69.3247 1462.8,-74.35 1463.9,-67.4366"/>
</g>
<!-- Node14 -->
<g id="node14" class="node"><title>Node14</title>
<g id="a_node14"><a xlink:href="../../d8/d85/Identification_8hh.html" target="_top" xlink:title="Identification.hh">
<polygon fill="white" stroke="black" points="760.288,-56.5 760.288,-75.5 846.288,-75.5 846.288,-56.5 760.288,-56.5"/>
<text text-anchor="middle" x="803.288" y="-63.5" font-family="Helvetica,sans-Serif" font-size="10.00">Identification.hh</text>
</a>
</g>
</g>
<!-- Node10&#45;&gt;Node14 -->
<g id="edge14" class="edge"><title>Node10&#45;&gt;Node14</title>
<path fill="none" stroke="midnightblue" d="M1267.77,-235.412C1257.2,-226.622 1240.61,-212.392 1227.29,-199 1191.07,-162.605 1196.66,-136.023 1151.29,-112 1037.02,-51.5065 988.772,-93.158 856.483,-76.031"/>
<polygon fill="midnightblue" stroke="midnightblue" points="856.777,-72.5384 846.391,-74.6322 855.816,-79.4721 856.777,-72.5384"/>
</g>
<!-- Node10&#45;&gt;Node15 -->
<g id="edge17" class="edge"><title>Node10&#45;&gt;Node15</title>
<path fill="none" stroke="midnightblue" d="M1254.5,-235.475C1225.91,-225.225 1177.74,-207.959 1145.49,-196.399"/>
<polygon fill="midnightblue" stroke="midnightblue" points="1146.62,-193.089 1136.03,-193.009 1144.26,-199.678 1146.62,-193.089"/>
</g>
<!-- Node18 -->
<g id="node18" class="node"><title>Node18</title>
<g id="a_node18"><a xlink:href="../../d5/df2/Event_8hh.html" target="_top" xlink:title="Event.hh">
<polygon fill="white" stroke="black" points="1441.29,-174 1441.29,-193 1497.29,-193 1497.29,-174 1441.29,-174"/>
<text text-anchor="middle" x="1469.29" y="-181" font-family="Helvetica,sans-Serif" font-size="10.00">Event.hh</text>
</a>
</g>
</g>
<!-- Node10&#45;&gt;Node18 -->
<g id="edge21" class="edge"><title>Node10&#45;&gt;Node18</title>
<path fill="none" stroke="midnightblue" d="M1305.65,-235.475C1338.84,-225.136 1394.94,-207.661 1432.05,-196.102"/>
<polygon fill="midnightblue" stroke="midnightblue" points="1433.47,-199.325 1441.97,-193.009 1431.38,-192.642 1433.47,-199.325"/>
</g>
<!-- Node13&#45;&gt;Node6 -->
<g id="edge13" class="edge"><title>Node13&#45;&gt;Node6</title>
<path fill="none" stroke="midnightblue" d="M1390.15,-56.4435C1365.09,-47.1732 1325,-32.3464 1297.48,-22.1652"/>
<polygon fill="midnightblue" stroke="midnightblue" points="1298.55,-18.8297 1287.95,-18.6433 1296.12,-25.395 1298.55,-18.8297"/>
</g>
<!-- Node14&#45;&gt;Node6 -->
<g id="edge15" class="edge"><title>Node14&#45;&gt;Node6</title>
<path fill="none" stroke="midnightblue" d="M846.385,-57.327C849.395,-56.857 852.385,-56.4094 855.288,-56 997.311,-35.9734 1167.96,-19.8507 1236.54,-13.6946"/>
<polygon fill="midnightblue" stroke="midnightblue" points="1237,-17.1674 1246.65,-12.7931 1236.38,-10.1951 1237,-17.1674"/>
</g>
<!-- Node16 -->
<g id="node16" class="node"><title>Node16</title>
<g id="a_node16"><a xlink:href="../../db/da5/Particles_8hh.html" target="_top" xlink:title="Particles.hh">
<polygon fill="white" stroke="black" points="946.288,-112.5 946.288,-131.5 1014.29,-131.5 1014.29,-112.5 946.288,-112.5"/>
<text text-anchor="middle" x="980.288" y="-119.5" font-family="Helvetica,sans-Serif" font-size="10.00">Particles.hh</text>
</a>
</g>
</g>
<!-- Node15&#45;&gt;Node16 -->
<g id="edge18" class="edge"><title>Node15&#45;&gt;Node16</title>
<path fill="none" stroke="midnightblue" d="M1093.38,-173.975C1071.12,-163.945 1033.98,-147.2 1008.36,-135.655"/>
<polygon fill="midnightblue" stroke="midnightblue" points="1009.72,-132.428 999.165,-131.509 1006.84,-138.809 1009.72,-132.428"/>
</g>
<!-- Node17 -->
<g id="node17" class="node"><title>Node17</title>
<g id="a_node17"><a xlink:href="../../db/d66/DetectorGeometry_8hh.html" target="_top" xlink:title="DetectorGeometry.hh">
<polygon fill="white" stroke="red" points="1032.29,-112.5 1032.29,-131.5 1142.29,-131.5 1142.29,-112.5 1032.29,-112.5"/>
<text text-anchor="middle" x="1087.29" y="-119.5" font-family="Helvetica,sans-Serif" font-size="10.00">DetectorGeometry.hh</text>
</a>
</g>
</g>
<!-- Node15&#45;&gt;Node17 -->
<g id="edge20" class="edge"><title>Node15&#45;&gt;Node17</title>
<path fill="none" stroke="midnightblue" d="M1108.71,-173.975C1105.1,-165.404 1099.44,-151.927 1094.84,-140.983"/>
<polygon fill="midnightblue" stroke="midnightblue" points="1097.96,-139.373 1090.86,-131.509 1091.51,-142.084 1097.96,-139.373"/>
</g>
<!-- Node16&#45;&gt;Node6 -->
<g id="edge19" class="edge"><title>Node16&#45;&gt;Node6</title>
<path fill="none" stroke="midnightblue" d="M1002.81,-112.368C1053.92,-92.7792 1178.74,-44.9388 1236.74,-22.7094"/>
<polygon fill="midnightblue" stroke="midnightblue" points="1238.35,-25.8411 1246.43,-18.994 1235.84,-19.3048 1238.35,-25.8411"/>
</g>
<!-- Node19 -->
<g id="node19" class="node"><title>Node19</title>
<g id="a_node19"><a xlink:href="../../d0/d6b/Partons_8hh.html" target="_top" xlink:title="Partons.hh">
<polygon fill="white" stroke="red" points="1320.29,-112.5 1320.29,-131.5 1384.29,-131.5 1384.29,-112.5 1320.29,-112.5"/>
<text text-anchor="middle" x="1352.29" y="-119.5" font-family="Helvetica,sans-Serif" font-size="10.00">Partons.hh</text>
</a>
</g>
</g>
<!-- Node18&#45;&gt;Node19 -->
<g id="edge22" class="edge"><title>Node18&#45;&gt;Node19</title>
<path fill="none" stroke="midnightblue" d="M1452.52,-173.975C1433.06,-164.078 1400.74,-147.642 1378.08,-136.115"/>
<polygon fill="midnightblue" stroke="midnightblue" points="1379.52,-132.922 1369.02,-131.509 1376.35,-139.162 1379.52,-132.922"/>
</g>
<!-- Node20 -->
<g id="node20" class="node"><title>Node20</title>
<g id="a_node20"><a xlink:href="../../d7/dac/Leptons_8hh.html" target="_top" xlink:title="Leptons.hh">
<polygon fill="white" stroke="red" points="1236.79,-112.5 1236.79,-131.5 1301.79,-131.5 1301.79,-112.5 1236.79,-112.5"/>
<text text-anchor="middle" x="1269.29" y="-119.5" font-family="Helvetica,sans-Serif" font-size="10.00">Leptons.hh</text>
</a>
</g>
</g>
<!-- Node18&#45;&gt;Node20 -->
<g id="edge23" class="edge"><title>Node18&#45;&gt;Node20</title>
<path fill="none" stroke="midnightblue" d="M1445.38,-173.99C1439.48,-171.964 1433.17,-169.853 1427.29,-168 1388.13,-155.675 1343.06,-142.985 1311.11,-134.236"/>
<polygon fill="midnightblue" stroke="midnightblue" points="1311.79,-130.793 1301.22,-131.54 1309.94,-137.547 1311.79,-130.793"/>
</g>
<!-- Node21 -->
<g id="node21" class="node"><title>Node21</title>
<g id="a_node21"><a xlink:href="../../dd/dee/Hadrons_8hh.html" target="_top" xlink:title="Hadrons.hh">
<polygon fill="white" stroke="red" points="1402.79,-112.5 1402.79,-131.5 1469.79,-131.5 1469.79,-112.5 1402.79,-112.5"/>
<text text-anchor="middle" x="1436.29" y="-119.5" font-family="Helvetica,sans-Serif" font-size="10.00">Hadrons.hh</text>
</a>
</g>
</g>
<!-- Node18&#45;&gt;Node21 -->
<g id="edge24" class="edge"><title>Node18&#45;&gt;Node21</title>
<path fill="none" stroke="midnightblue" d="M1464.56,-173.975C1459.71,-165.227 1452.02,-151.369 1445.89,-140.309"/>
<polygon fill="midnightblue" stroke="midnightblue" points="1448.92,-138.557 1441.01,-131.509 1442.8,-141.952 1448.92,-138.557"/>
</g>
<!-- Node21&#45;&gt;Node22 -->
<g id="edge25" class="edge"><title>Node21&#45;&gt;Node22</title>
<path fill="none" stroke="midnightblue" d="M1409.51,-112.444C1380.95,-103.32 1335.56,-88.8133 1303.75,-78.6509"/>
<polygon fill="midnightblue" stroke="midnightblue" points="1304.53,-75.2262 1293.94,-75.5164 1302.4,-81.8941 1304.53,-75.2262"/>
</g>
<!-- Node22&#45;&gt;Node6 -->
<g id="edge26" class="edge"><title>Node22&#45;&gt;Node6</title>
<path fill="none" stroke="midnightblue" d="M1267.29,-56.083C1267.29,-49.0059 1267.29,-38.8611 1267.29,-29.9865"/>
<polygon fill="midnightblue" stroke="midnightblue" points="1270.79,-29.751 1267.29,-19.7511 1263.79,-29.7511 1270.79,-29.751"/>
</g>
<!-- Node24 -->
<g id="node24" class="node"><title>Node24</title>
<g id="a_node24"><a xlink:href="../../d1/dce/JetInfo_8hh.html" target="_top" xlink:title="JetInfo.hh">
<polygon fill="white" stroke="black" points="758.288,-112.5 758.288,-131.5 818.288,-131.5 818.288,-112.5 758.288,-112.5"/>
<text text-anchor="middle" x="788.288" y="-119.5" font-family="Helvetica,sans-Serif" font-size="10.00">JetInfo.hh</text>
</a>
</g>
</g>
<!-- Node23&#45;&gt;Node24 -->
<g id="edge28" class="edge"><title>Node23&#45;&gt;Node24</title>
<path fill="none" stroke="midnightblue" d="M64.7947,-173.977C70.9228,-171.647 77.7878,-169.385 84.2877,-168 212.447,-140.698 618.233,-127.597 747.979,-124.032"/>
<polygon fill="midnightblue" stroke="midnightblue" points="748.353,-127.524 758.255,-123.754 748.163,-120.526 748.353,-127.524"/>
</g>
<!-- Node27 -->
<g id="node27" class="node"><title>Node27</title>
<g id="a_node27"><a xlink:href="../../da/db5/MultipletBase_8hh.html" target="_top" xlink:title="MultipletBase.hh">
<polygon fill="white" stroke="black" points="270.788,-112.5 270.788,-131.5 359.788,-131.5 359.788,-112.5 270.788,-112.5"/>
<text text-anchor="middle" x="315.288" y="-119.5" font-family="Helvetica,sans-Serif" font-size="10.00">MultipletBase.hh</text>
</a>
</g>
</g>
<!-- Node23&#45;&gt;Node27 -->
<g id="edge32" class="edge"><title>Node23&#45;&gt;Node27</title>
<path fill="none" stroke="midnightblue" d="M66.5359,-173.884C72.2396,-171.769 78.4465,-169.643 84.2877,-168 143.65,-151.304 213.307,-138.653 260.488,-131.082"/>
<polygon fill="midnightblue" stroke="midnightblue" points="261.168,-134.518 270.497,-129.497 260.073,-127.604 261.168,-134.518"/>
</g>
<!-- Node24&#45;&gt;Node14 -->
<g id="edge30" class="edge"><title>Node24&#45;&gt;Node14</title>
<path fill="none" stroke="midnightblue" d="M790.765,-112.083C792.774,-104.849 795.674,-94.4087 798.178,-85.3968"/>
<polygon fill="midnightblue" stroke="midnightblue" points="801.553,-86.323 800.857,-75.7511 794.808,-84.4495 801.553,-86.323"/>
</g>
<!-- Node25 -->
<g id="node25" class="node"><title>Node25</title>
<polygon fill="white" stroke="#bfbfbf" points="634.788,-56.5 634.788,-75.5 741.788,-75.5 741.788,-56.5 634.788,-56.5"/>
<text text-anchor="middle" x="688.288" y="-63.5" font-family="Helvetica,sans-Serif" font-size="10.00">fastjet/PseudoJet.hh</text>
</g>
<!-- Node24&#45;&gt;Node25 -->
<g id="edge29" class="edge"><title>Node24&#45;&gt;Node25</title>
<path fill="none" stroke="midnightblue" d="M772.221,-112.324C756.33,-103.743 731.78,-90.486 713.329,-80.5224"/>
<polygon fill="midnightblue" stroke="midnightblue" points="714.777,-77.3264 704.315,-75.6545 711.451,-83.4857 714.777,-77.3264"/>
</g>
<!-- Node26 -->
<g id="node26" class="node"><title>Node26</title>
<g id="a_node26"><a xlink:href="../../d3/d32/Constituent_8hh.html" target="_top" xlink:title="Constituent.hh">
<polygon fill="white" stroke="red" points="864.288,-56.5 864.288,-75.5 944.288,-75.5 944.288,-56.5 864.288,-56.5"/>
<text text-anchor="middle" x="904.288" y="-63.5" font-family="Helvetica,sans-Serif" font-size="10.00">Constituent.hh</text>
</a>
</g>
</g>
<!-- Node24&#45;&gt;Node26 -->
<g id="edge31" class="edge"><title>Node24&#45;&gt;Node26</title>
<path fill="none" stroke="midnightblue" d="M806.668,-112.444C825.504,-103.675 855.019,-89.9355 876.667,-79.8579"/>
<polygon fill="midnightblue" stroke="midnightblue" points="878.404,-82.9098 885.993,-75.5164 875.45,-76.5637 878.404,-82.9098"/>
</g>
<!-- Node27&#45;&gt;Node14 -->
<g id="edge33" class="edge"><title>Node27&#45;&gt;Node14</title>
<path fill="none" stroke="midnightblue" d="M359.863,-117.354C438.766,-110.685 608.11,-95.4048 750.288,-76 750.389,-75.9862 750.49,-75.9723 750.591,-75.9584"/>
<polygon fill="midnightblue" stroke="midnightblue" points="750.835,-79.4601 760.225,-74.5537 749.825,-72.5333 750.835,-79.4601"/>
</g>
<!-- Node27&#45;&gt;Node25 -->
<g id="edge35" class="edge"><title>Node27&#45;&gt;Node25</title>
<path fill="none" stroke="midnightblue" d="M359.91,-114.54C425.658,-105.022 548.896,-87.18 624.275,-76.2673"/>
<polygon fill="midnightblue" stroke="midnightblue" points="625.187,-79.6718 634.582,-74.7751 624.184,-72.744 625.187,-79.6718"/>
</g>
<!-- Node28 -->
<g id="node28" class="node"><title>Node28</title>
<g id="a_node28"><a xlink:href="../../db/d8e/Vector2_8hh.html" target="_top" xlink:title="Vector2.hh">
<polygon fill="white" stroke="black" points="283.288,-56.5 283.288,-75.5 347.288,-75.5 347.288,-56.5 283.288,-56.5"/>
<text text-anchor="middle" x="315.288" y="-63.5" font-family="Helvetica,sans-Serif" font-size="10.00">Vector2.hh</text>
</a>
</g>
</g>
<!-- Node27&#45;&gt;Node28 -->
<g id="edge34" class="edge"><title>Node27&#45;&gt;Node28</title>
<path fill="none" stroke="midnightblue" d="M315.288,-112.083C315.288,-105.006 315.288,-94.8611 315.288,-85.9865"/>
<polygon fill="midnightblue" stroke="midnightblue" points="318.788,-85.751 315.288,-75.7511 311.788,-85.7511 318.788,-85.751"/>
</g>
<!-- Node30&#45;&gt;Node5 -->
<g id="edge38" class="edge"><title>Node30&#45;&gt;Node5</title>
<path fill="none" stroke="midnightblue" d="M1057.04,-173.883C1062.13,-171.609 1067.83,-169.401 1073.29,-168 1245.16,-123.871 1298.62,-163.13 1478,-131.64"/>
<polygon fill="midnightblue" stroke="midnightblue" points="1478.81,-135.05 1488.03,-129.829 1477.57,-128.161 1478.81,-135.05"/>
</g>
<!-- Node30&#45;&gt;Node16 -->
<g id="edge41" class="edge"><title>Node30&#45;&gt;Node16</title>
<path fill="none" stroke="midnightblue" d="M1031.69,-173.975C1022.42,-164.785 1007.47,-149.956 996.075,-138.656"/>
<polygon fill="midnightblue" stroke="midnightblue" points="998.433,-136.065 988.868,-131.509 993.504,-141.036 998.433,-136.065"/>
</g>
<!-- Node30&#45;&gt;Node24 -->
<g id="edge42" class="edge"><title>Node30&#45;&gt;Node24</title>
<path fill="none" stroke="midnightblue" d="M1022.75,-173.952C1017.83,-171.788 1012.42,-169.62 1007.29,-168 932.525,-144.406 908.882,-148.773 828.582,-132.194"/>
<polygon fill="midnightblue" stroke="midnightblue" points="829.009,-128.707 818.502,-130.065 827.563,-135.556 829.009,-128.707"/>
</g>
<!-- Node30&#45;&gt;Node25 -->
<g id="edge39" class="edge"><title>Node30&#45;&gt;Node25</title>
<path fill="none" stroke="midnightblue" d="M1023.15,-173.903C1018.14,-171.685 1012.59,-169.502 1007.29,-168 895.902,-136.414 852.095,-185.247 749.288,-132 728.121,-121.037 710.342,-99.735 699.537,-84.5044"/>
<polygon fill="midnightblue" stroke="midnightblue" points="702.25,-82.2681 693.743,-75.9526 696.455,-86.1945 702.25,-82.2681"/>
</g>
<!-- Node31 -->
<g id="node31" class="node"><title>Node31</title>
<g id="a_node31"><a xlink:href="../../d6/dc8/LorentzVector_8hh.html" target="_top" xlink:title="LorentzVector.hh">
<polygon fill="white" stroke="red" points="836.788,-112.5 836.788,-131.5 927.788,-131.5 927.788,-112.5 836.788,-112.5"/>
<text text-anchor="middle" x="882.288" y="-119.5" font-family="Helvetica,sans-Serif" font-size="10.00">LorentzVector.hh</text>
</a>
</g>
</g>
<!-- Node30&#45;&gt;Node31 -->
<g id="edge40" class="edge"><title>Node30&#45;&gt;Node31</title>
<path fill="none" stroke="midnightblue" d="M1021.53,-173.995C1016.9,-171.968 1011.94,-169.856 1007.29,-168 977.219,-155.998 942.544,-143.629 917.354,-134.903"/>
<polygon fill="midnightblue" stroke="midnightblue" points="918.451,-131.579 907.857,-131.63 916.171,-138.198 918.451,-131.579"/>
</g>
<!-- Node33 -->
<g id="node33" class="node"><title>Node33</title>
<polygon fill="white" stroke="#bfbfbf" points="942.288,-174 942.288,-193 998.288,-193 998.288,-174 942.288,-174"/>
<text text-anchor="middle" x="970.288" y="-181" font-family="Helvetica,sans-Serif" font-size="10.00">algorithm</text>
</g>
<!-- Node32&#45;&gt;Node33 -->
<g id="edge45" class="edge"><title>Node32&#45;&gt;Node33</title>
<path fill="none" stroke="midnightblue" d="M972.001,-235.475C971.719,-227.08 971.279,-213.981 970.915,-203.163"/>
<polygon fill="midnightblue" stroke="midnightblue" points="974.408,-202.886 970.574,-193.009 967.412,-203.121 974.408,-202.886"/>
</g>
<!-- Node35 -->
<g id="node35" class="node"><title>Node35</title>
<polygon fill="white" stroke="#bfbfbf" points="93.7877,-174 93.7877,-193 260.788,-193 260.788,-174 93.7877,-174"/>
<text text-anchor="middle" x="177.288" y="-181" font-family="Helvetica,sans-Serif" font-size="10.00">ExRootAnalysis/ExRootClasses.h</text>
</g>
<!-- Node34&#45;&gt;Node35 -->
<g id="edge48" class="edge"><title>Node34&#45;&gt;Node35</title>
<path fill="none" stroke="midnightblue" d="M560.736,-236.354C489.067,-227.85 370.878,-213.405 269.288,-199 259.782,-197.652 249.737,-196.15 239.914,-194.636"/>
<polygon fill="midnightblue" stroke="midnightblue" points="240.208,-191.14 229.789,-193.062 239.133,-198.057 240.208,-191.14"/>
</g>
<!-- Node36 -->
<g id="node36" class="node"><title>Node36</title>
<polygon fill="white" stroke="#bfbfbf" points="278.788,-168.5 278.788,-198.5 421.788,-198.5 421.788,-168.5 278.788,-168.5"/>
<text text-anchor="start" x="286.788" y="-186.5" font-family="Helvetica,sans-Serif" font-size="10.00">ExRootAnalysis/ExRootTree</text>
<text text-anchor="middle" x="350.288" y="-175.5" font-family="Helvetica,sans-Serif" font-size="10.00">Writer.h</text>
</g>
<!-- Node34&#45;&gt;Node36 -->
<g id="edge49" class="edge"><title>Node34&#45;&gt;Node36</title>
<path fill="none" stroke="midnightblue" d="M586.744,-235.475C544.734,-226.419 477.326,-211.887 425.21,-200.652"/>
<polygon fill="midnightblue" stroke="midnightblue" points="425.848,-197.209 415.335,-198.523 424.373,-204.052 425.848,-197.209"/>
</g>
<!-- Node37 -->
<g id="node37" class="node"><title>Node37</title>
<polygon fill="white" stroke="#bfbfbf" points="439.788,-168.5 439.788,-198.5 582.788,-198.5 582.788,-168.5 439.788,-168.5"/>
<text text-anchor="start" x="447.788" y="-186.5" font-family="Helvetica,sans-Serif" font-size="10.00">ExRootAnalysis/ExRootTree</text>
<text text-anchor="middle" x="511.288" y="-175.5" font-family="Helvetica,sans-Serif" font-size="10.00">Reader.h</text>
</g>
<!-- Node34&#45;&gt;Node37 -->
<g id="edge50" class="edge"><title>Node34&#45;&gt;Node37</title>
<path fill="none" stroke="midnightblue" d="M609.811,-235.475C593.581,-227.078 568.252,-213.973 547.34,-203.153"/>
<polygon fill="midnightblue" stroke="midnightblue" points="548.881,-200.01 538.391,-198.523 545.664,-206.227 548.881,-200.01"/>
</g>
<!-- Node38 -->
<g id="node38" class="node"><title>Node38</title>
<polygon fill="white" stroke="#bfbfbf" points="600.788,-168.5 600.788,-198.5 743.788,-198.5 743.788,-168.5 600.788,-168.5"/>
<text text-anchor="start" x="608.788" y="-186.5" font-family="Helvetica,sans-Serif" font-size="10.00">ExRootAnalysis/ExRootTree</text>
<text text-anchor="middle" x="672.288" y="-175.5" font-family="Helvetica,sans-Serif" font-size="10.00">Branch.h</text>
</g>
<!-- Node34&#45;&gt;Node38 -->
<g id="edge51" class="edge"><title>Node34&#45;&gt;Node38</title>
<path fill="none" stroke="midnightblue" d="M632.878,-235.475C638.701,-227.944 647.451,-216.626 655.228,-206.566"/>
<polygon fill="midnightblue" stroke="midnightblue" points="658.099,-208.575 661.446,-198.523 652.561,-204.294 658.099,-208.575"/>
</g>
<!-- Node39 -->
<g id="node39" class="node"><title>Node39</title>
<polygon fill="white" stroke="#bfbfbf" points="762.288,-168.5 762.288,-198.5 924.288,-198.5 924.288,-168.5 762.288,-168.5"/>
<text text-anchor="start" x="770.288" y="-186.5" font-family="Helvetica,sans-Serif" font-size="10.00">ExRootAnalysis/ExRootProgress</text>
<text text-anchor="middle" x="843.288" y="-175.5" font-family="Helvetica,sans-Serif" font-size="10.00">Bar.h</text>
</g>
<!-- Node34&#45;&gt;Node39 -->
<g id="edge52" class="edge"><title>Node34&#45;&gt;Node39</title>
<path fill="none" stroke="midnightblue" d="M657.379,-235.475C689.858,-226.569 741.649,-212.369 782.327,-201.215"/>
<polygon fill="midnightblue" stroke="midnightblue" points="783.427,-204.543 792.145,-198.523 781.576,-197.792 783.427,-204.543"/>
</g>
<!-- Node40&#45;&gt;Node4 -->
<g id="edge62" class="edge"><title>Node40&#45;&gt;Node4</title>
<path fill="none" stroke="midnightblue" d="M1291.3,-403.36C1347.13,-368.942 1553.99,-241.405 1623.41,-198.607"/>
<polygon fill="midnightblue" stroke="midnightblue" points="1625.58,-201.376 1632.26,-193.149 1621.91,-195.418 1625.58,-201.376"/>
</g>
<!-- Node40&#45;&gt;Node9 -->
<g id="edge63" class="edge"><title>Node40&#45;&gt;Node9</title>
<path fill="none" stroke="midnightblue" d="M1266.07,-403.368C1241.74,-384.653 1183.88,-340.151 1153.57,-316.832"/>
<polygon fill="midnightblue" stroke="midnightblue" points="1155.52,-313.914 1145.46,-310.591 1151.25,-319.463 1155.52,-313.914"/>
</g>
<!-- Node41 -->
<g id="node41" class="node"><title>Node41</title>
<g id="a_node41"><a xlink:href="../../df/d3a/Doublet_8hh.html" target="_top" xlink:title="Doublet.hh">
<polygon fill="white" stroke="black" points="1015.29,-347.5 1015.29,-366.5 1079.29,-366.5 1079.29,-347.5 1015.29,-347.5"/>
<text text-anchor="middle" x="1047.29" y="-354.5" font-family="Helvetica,sans-Serif" font-size="10.00">Doublet.hh</text>
</a>
</g>
</g>
<!-- Node40&#45;&gt;Node41 -->
<g id="edge54" class="edge"><title>Node40&#45;&gt;Node41</title>
<path fill="none" stroke="midnightblue" d="M1240.84,-403.444C1199.68,-393.78 1132.8,-378.078 1089.43,-367.895"/>
<polygon fill="midnightblue" stroke="midnightblue" points="1090.01,-364.436 1079.48,-365.558 1088.41,-371.251 1090.01,-364.436"/>
</g>
<!-- Node41&#45;&gt;Node23 -->
<g id="edge61" class="edge"><title>Node41&#45;&gt;Node23</title>
<path fill="none" stroke="midnightblue" d="M1015.16,-354.834C853.991,-348.707 138.44,-318.09 64.2877,-255 49.5266,-242.441 45.6201,-219.737 44.8678,-203.486"/>
<polygon fill="midnightblue" stroke="midnightblue" points="48.3633,-202.995 44.7674,-193.03 41.3637,-203.063 48.3633,-202.995"/>
</g>
<!-- Node42 -->
<g id="node42" class="node"><title>Node42</title>
<g id="a_node42"><a xlink:href="../../d0/d32/TwoBody_8hh.html" target="_top" xlink:title="TwoBody.hh">
<polygon fill="white" stroke="black" points="619.788,-291.5 619.788,-310.5 690.788,-310.5 690.788,-291.5 619.788,-291.5"/>
<text text-anchor="middle" x="655.288" y="-298.5" font-family="Helvetica,sans-Serif" font-size="10.00">TwoBody.hh</text>
</a>
</g>
</g>
<!-- Node41&#45;&gt;Node42 -->
<g id="edge55" class="edge"><title>Node41&#45;&gt;Node42</title>
<path fill="none" stroke="midnightblue" d="M1015.21,-351.581C945.823,-342.023 781.586,-319.398 701.207,-308.326"/>
<polygon fill="midnightblue" stroke="midnightblue" points="701.288,-304.804 690.904,-306.906 700.332,-311.738 701.288,-304.804"/>
</g>
<!-- Node42&#45;&gt;Node15 -->
<g id="edge60" class="edge"><title>Node42&#45;&gt;Node15</title>
<path fill="none" stroke="midnightblue" d="M691.006,-291.945C778.267,-272.175 1000.46,-221.251 1073.29,-199 1075.85,-198.216 1078.5,-197.354 1081.14,-196.453"/>
<polygon fill="midnightblue" stroke="midnightblue" points="1082.33,-199.744 1090.58,-193.091 1079.98,-193.15 1082.33,-199.744"/>
</g>
<!-- Node42&#45;&gt;Node23 -->
<g id="edge56" class="edge"><title>Node42&#45;&gt;Node23</title>
<path fill="none" stroke="midnightblue" d="M619.711,-295.98C529.187,-285.265 283.188,-253.088 84.2877,-199 81.4777,-198.236 78.5856,-197.353 75.707,-196.407"/>
<polygon fill="midnightblue" stroke="midnightblue" points="76.7052,-193.048 66.1104,-193.034 74.3836,-199.652 76.7052,-193.048"/>
</g>
<!-- Node43 -->
<g id="node43" class="node"><title>Node43</title>
<g id="a_node43"><a xlink:href="../../d0/d7f/Multiplet_8hh.html" target="_top" xlink:title="Multiplet.hh">
<polygon fill="white" stroke="black" points="73.7877,-235.5 73.7877,-254.5 140.788,-254.5 140.788,-235.5 73.7877,-235.5"/>
<text text-anchor="middle" x="107.288" y="-242.5" font-family="Helvetica,sans-Serif" font-size="10.00">Multiplet.hh</text>
</a>
</g>
</g>
<!-- Node42&#45;&gt;Node43 -->
<g id="edge57" class="edge"><title>Node42&#45;&gt;Node43</title>
<path fill="none" stroke="midnightblue" d="M619.754,-296.499C523.236,-286.988 256.401,-260.694 150.967,-250.304"/>
<polygon fill="midnightblue" stroke="midnightblue" points="151.278,-246.818 140.983,-249.32 150.592,-253.784 151.278,-246.818"/>
</g>
<!-- Node43&#45;&gt;Node23 -->
<g id="edge59" class="edge"><title>Node43&#45;&gt;Node23</title>
<path fill="none" stroke="midnightblue" d="M98.4046,-235.475C88.8283,-226.285 73.3767,-211.456 61.6016,-200.156"/>
<polygon fill="midnightblue" stroke="midnightblue" points="63.7928,-197.408 54.1543,-193.009 58.9459,-202.458 63.7928,-197.408"/>
</g>
<!-- Node43&#45;&gt;Node27 -->
<g id="edge58" class="edge"><title>Node43&#45;&gt;Node27</title>
<path fill="none" stroke="midnightblue" d="M73.3773,-238.66C50.1689,-233.048 21.0264,-221.702 6.28772,-199 -1.21468,-187.444 -2.72536,-178.421 6.28772,-168 38.4884,-130.77 180.492,-123.715 260.316,-122.76"/>
<polygon fill="midnightblue" stroke="midnightblue" points="260.708,-126.256 270.676,-122.665 260.644,-119.257 260.708,-126.256"/>
</g>
<!-- Node44&#45;&gt;Node41 -->
<g id="edge65" class="edge"><title>Node44&#45;&gt;Node41</title>
<path fill="none" stroke="midnightblue" d="M1156.69,-403.444C1135.29,-394.557 1101.61,-380.563 1077.26,-370.451"/>
<polygon fill="midnightblue" stroke="midnightblue" points="1078.37,-367.12 1067.79,-366.516 1075.68,-373.585 1078.37,-367.12"/>
</g>
<!-- Node45&#45;&gt;Node10 -->
<g id="edge67" class="edge"><title>Node45&#45;&gt;Node10</title>
<path fill="none" stroke="midnightblue" d="M1346.27,-291.324C1333.76,-282.979 1314.61,-270.212 1299.82,-260.352"/>
<polygon fill="midnightblue" stroke="midnightblue" points="1301.53,-257.289 1291.27,-254.655 1297.65,-263.114 1301.53,-257.289"/>
</g>
<!-- Node46 -->
<g id="node46" class="node"><title>Node46</title>
<g id="a_node46"><a xlink:href="../../da/d59/PreCuts_8hh.html" target="_top" xlink:title="PreCuts.hh">
<polygon fill="white" stroke="black" points="1326.29,-235.5 1326.29,-254.5 1392.29,-254.5 1392.29,-235.5 1326.29,-235.5"/>
<text text-anchor="middle" x="1359.29" y="-242.5" font-family="Helvetica,sans-Serif" font-size="10.00">PreCuts.hh</text>
</a>
</g>
</g>
<!-- Node45&#45;&gt;Node46 -->
<g id="edge68" class="edge"><title>Node45&#45;&gt;Node46</title>
<path fill="none" stroke="midnightblue" d="M1359.29,-291.083C1359.29,-284.006 1359.29,-273.861 1359.29,-264.986"/>
<polygon fill="midnightblue" stroke="midnightblue" points="1362.79,-264.751 1359.29,-254.751 1355.79,-264.751 1362.79,-264.751"/>
</g>
<!-- Node48 -->
<g id="node48" class="node"><title>Node48</title>
<polygon fill="white" stroke="#bfbfbf" points="1410.79,-235.5 1410.79,-254.5 1497.79,-254.5 1497.79,-235.5 1410.79,-235.5"/>
<text text-anchor="middle" x="1454.29" y="-242.5" font-family="Helvetica,sans-Serif" font-size="10.00">TMVA/Reader.h</text>
</g>
<!-- Node45&#45;&gt;Node48 -->
<g id="edge71" class="edge"><title>Node45&#45;&gt;Node48</title>
<path fill="none" stroke="midnightblue" d="M1374.55,-291.324C1389.51,-282.822 1412.54,-269.729 1430.01,-259.797"/>
<polygon fill="midnightblue" stroke="midnightblue" points="1432.1,-262.639 1439.06,-254.655 1428.64,-256.553 1432.1,-262.639"/>
</g>
<!-- Node46&#45;&gt;Node16 -->
<g id="edge70" class="edge"><title>Node46&#45;&gt;Node16</title>
<path fill="none" stroke="midnightblue" d="M1369.08,-235.022C1384.65,-219.678 1411.55,-188.124 1393.29,-168 1367.05,-139.084 1096.27,-138.244 1024.81,-131.709"/>
<polygon fill="midnightblue" stroke="midnightblue" points="1024.83,-128.188 1014.49,-130.511 1024.02,-135.142 1024.83,-128.188"/>
</g>
<!-- Node47 -->
<g id="node47" class="node"><title>Node47</title>
<polygon fill="white" stroke="#bfbfbf" points="1557.79,-174 1557.79,-193 1592.79,-193 1592.79,-174 1557.79,-174"/>
<text text-anchor="middle" x="1575.29" y="-181" font-family="Helvetica,sans-Serif" font-size="10.00">map</text>
</g>
<!-- Node46&#45;&gt;Node47 -->
<g id="edge69" class="edge"><title>Node46&#45;&gt;Node47</title>
<path fill="none" stroke="midnightblue" d="M1392.42,-236.675C1437.47,-226.58 1515.62,-208.558 1543.29,-199 1544.95,-198.425 1546.65,-197.795 1548.35,-197.13"/>
<polygon fill="midnightblue" stroke="midnightblue" points="1550.08,-200.199 1557.92,-193.075 1547.35,-193.753 1550.08,-200.199"/>
</g>
<!-- Node49&#45;&gt;Node44 -->
<g id="edge73" class="edge"><title>Node49&#45;&gt;Node44</title>
<path fill="none" stroke="midnightblue" d="M1193.15,-459.083C1190.6,-451.849 1186.93,-441.409 1183.76,-432.397"/>
<polygon fill="midnightblue" stroke="midnightblue" points="1186.99,-431.023 1180.37,-422.751 1180.38,-433.346 1186.99,-431.023"/>
</g>
<!-- Node50&#45;&gt;Node4 -->
<g id="edge75" class="edge"><title>Node50&#45;&gt;Node4</title>
<path fill="none" stroke="midnightblue" d="M1613.78,-403.401C1620.74,-394.827 1630.72,-380.956 1635.29,-367 1654.01,-309.792 1651.03,-237.193 1648.23,-203.399"/>
<polygon fill="midnightblue" stroke="midnightblue" points="1651.69,-202.788 1647.28,-193.153 1644.72,-203.433 1651.69,-202.788"/>
</g>
</g>
</svg>
