<?xml version="1.0" encoding="UTF-8" standalone="no"?>
<!DOCTYPE svg PUBLIC "-//W3C//DTD SVG 1.1//EN"
 "http://www.w3.org/Graphics/SVG/1.1/DTD/svg11.dtd">
<!-- Generated by graphviz version 2.38.0 (20140413.2041)
 -->
<!-- Title: examples/higgscpv/include/tagger/TopLeptonicPair.hh Pages: 1 -->
<svg width="2142pt" height="430pt"
 viewBox="0.00 0.00 2142.00 430.00" xmlns="http://www.w3.org/2000/svg" xmlns:xlink="http://www.w3.org/1999/xlink">
<g id="graph0" class="graph" transform="scale(1 1) rotate(0) translate(4 426)">
<title>examples/higgscpv/include/tagger/TopLeptonicPair.hh</title>
<polygon fill="white" stroke="none" points="-4,4 -4,-426 2138,-426 2138,4 -4,4"/>
<!-- Node1 -->
<g id="node1" class="node"><title>Node1</title>
<polygon fill="#bfbfbf" stroke="black" points="889.5,-391.5 889.5,-421.5 1023.5,-421.5 1023.5,-391.5 889.5,-391.5"/>
<text text-anchor="start" x="897.5" y="-409.5" font-family="Helvetica,sans-Serif" font-size="10.00">examples/higgscpv/include</text>
<text text-anchor="middle" x="956.5" y="-398.5" font-family="Helvetica,sans-Serif" font-size="10.00">/tagger/TopLeptonicPair.hh</text>
</g>
<!-- Node2 -->
<g id="node2" class="node"><title>Node2</title>
<g id="a_node2"><a xlink:href="../../dc/de8/tagger_2TopLeptonic_8hh.html" target="_top" xlink:title="boca/standardmodel\l/tagger/TopLeptonic.hh">
<polygon fill="white" stroke="black" points="898.5,-324.5 898.5,-354.5 1014.5,-354.5 1014.5,-324.5 898.5,-324.5"/>
<text text-anchor="start" x="906.5" y="-342.5" font-family="Helvetica,sans-Serif" font-size="10.00">boca/standardmodel</text>
<text text-anchor="middle" x="956.5" y="-331.5" font-family="Helvetica,sans-Serif" font-size="10.00">/tagger/TopLeptonic.hh</text>
</a>
</g>
</g>
<!-- Node1&#45;&gt;Node2 -->
<g id="edge1" class="edge"><title>Node1&#45;&gt;Node2</title>
<path fill="none" stroke="midnightblue" d="M956.5,-391.396C956.5,-383.645 956.5,-373.812 956.5,-364.86"/>
<polygon fill="midnightblue" stroke="midnightblue" points="960,-364.576 956.5,-354.577 953,-364.577 960,-364.576"/>
</g>
<!-- Node48 -->
<g id="node48" class="node"><title>Node48</title>
<g id="a_node48"><a xlink:href="../../d2/d98/Sextet_8hh.html" target="_top" xlink:title="boca/multiplets/Sextet.hh">
<polygon fill="white" stroke="black" points="683.5,-330 683.5,-349 811.5,-349 811.5,-330 683.5,-330"/>
<text text-anchor="middle" x="747.5" y="-337" font-family="Helvetica,sans-Serif" font-size="10.00">boca/multiplets/Sextet.hh</text>
</a>
</g>
</g>
<!-- Node1&#45;&gt;Node48 -->
<g id="edge64" class="edge"><title>Node1&#45;&gt;Node48</title>
<path fill="none" stroke="midnightblue" d="M911.407,-391.476C873.618,-379.723 820.307,-363.143 784.864,-352.12"/>
<polygon fill="midnightblue" stroke="midnightblue" points="785.511,-348.656 774.923,-349.029 783.432,-355.341 785.511,-348.656"/>
</g>
<!-- Node49 -->
<g id="node49" class="node"><title>Node49</title>
<g id="a_node49"><a xlink:href="../../db/db1/TopLeptonicTwoBody_8hh.html" target="_top" xlink:title="include/branch/TopLeptonic\lTwoBody.hh">
<polygon fill="white" stroke="black" points="1269.5,-324.5 1269.5,-354.5 1405.5,-354.5 1405.5,-324.5 1269.5,-324.5"/>
<text text-anchor="start" x="1277.5" y="-342.5" font-family="Helvetica,sans-Serif" font-size="10.00">include/branch/TopLeptonic</text>
<text text-anchor="middle" x="1337.5" y="-331.5" font-family="Helvetica,sans-Serif" font-size="10.00">TwoBody.hh</text>
</a>
</g>
</g>
<!-- Node1&#45;&gt;Node49 -->
<g id="edge66" class="edge"><title>Node1&#45;&gt;Node49</title>
<path fill="none" stroke="midnightblue" d="M1023.74,-394.029C1089.61,-382.791 1189.93,-365.676 1259.32,-353.837"/>
<polygon fill="midnightblue" stroke="midnightblue" points="1260.06,-357.262 1269.33,-352.13 1258.88,-350.362 1260.06,-357.262"/>
</g>
<!-- Node3 -->
<g id="node3" class="node"><title>Node3</title>
<g id="a_node3"><a xlink:href="../../d7/db9/Triplet_8hh.html" target="_top" xlink:title="boca/multiplets/Triplet.hh">
<polygon fill="white" stroke="black" points="614.5,-263 614.5,-282 740.5,-282 740.5,-263 614.5,-263"/>
<text text-anchor="middle" x="677.5" y="-270" font-family="Helvetica,sans-Serif" font-size="10.00">boca/multiplets/Triplet.hh</text>
</a>
</g>
</g>
<!-- Node2&#45;&gt;Node3 -->
<g id="edge2" class="edge"><title>Node2&#45;&gt;Node3</title>
<path fill="none" stroke="midnightblue" d="M898.352,-324.953C846.616,-312.9 771.932,-295.5 724.053,-284.346"/>
<polygon fill="midnightblue" stroke="midnightblue" points="724.794,-280.925 714.261,-282.064 723.206,-287.742 724.794,-280.925"/>
</g>
<!-- Node11 -->
<g id="node11" class="node"><title>Node11</title>
<g id="a_node11"><a xlink:href="../../df/d2c/Reader_8hh.html" target="_top" xlink:title="boca/multivariant/Reader.hh">
<polygon fill="white" stroke="black" points="887,-263 887,-282 1026,-282 1026,-263 887,-263"/>
<text text-anchor="middle" x="956.5" y="-270" font-family="Helvetica,sans-Serif" font-size="10.00">boca/multivariant/Reader.hh</text>
</a>
</g>
</g>
<!-- Node2&#45;&gt;Node11 -->
<g id="edge10" class="edge"><title>Node2&#45;&gt;Node11</title>
<path fill="none" stroke="midnightblue" d="M956.5,-324.396C956.5,-315.064 956.5,-302.714 956.5,-292.517"/>
<polygon fill="midnightblue" stroke="midnightblue" points="960,-292.195 956.5,-282.195 953,-292.195 960,-292.195"/>
</g>
<!-- Node29 -->
<g id="node29" class="node"><title>Node29</title>
<g id="a_node29"><a xlink:href="../../db/d40/tagger_2Bottom_8hh.html" target="_top" xlink:title="boca/standardmodel\l/tagger/Bottom.hh">
<polygon fill="white" stroke="black" points="1363.5,-257.5 1363.5,-287.5 1467.5,-287.5 1467.5,-257.5 1363.5,-257.5"/>
<text text-anchor="start" x="1371.5" y="-275.5" font-family="Helvetica,sans-Serif" font-size="10.00">boca/standardmodel</text>
<text text-anchor="middle" x="1415.5" y="-264.5" font-family="Helvetica,sans-Serif" font-size="10.00">/tagger/Bottom.hh</text>
</a>
</g>
</g>
<!-- Node2&#45;&gt;Node29 -->
<g id="edge31" class="edge"><title>Node2&#45;&gt;Node29</title>
<path fill="none" stroke="midnightblue" d="M1014.63,-330.268C1101.51,-317.965 1264.49,-294.885 1353.54,-282.275"/>
<polygon fill="midnightblue" stroke="midnightblue" points="1354.09,-285.732 1363.5,-280.864 1353.1,-278.801 1354.09,-285.732"/>
</g>
<!-- Node44 -->
<g id="node44" class="node"><title>Node44</title>
<g id="a_node44"><a xlink:href="../../df/d67/tagger_2WLeptonic_8hh.html" target="_top" xlink:title="boca/standardmodel\l/tagger/WLeptonic.hh">
<polygon fill="white" stroke="black" points="758.5,-257.5 758.5,-287.5 868.5,-287.5 868.5,-257.5 758.5,-257.5"/>
<text text-anchor="start" x="766.5" y="-275.5" font-family="Helvetica,sans-Serif" font-size="10.00">boca/standardmodel</text>
<text text-anchor="middle" x="813.5" y="-264.5" font-family="Helvetica,sans-Serif" font-size="10.00">/tagger/WLeptonic.hh</text>
</a>
</g>
</g>
<!-- Node2&#45;&gt;Node44 -->
<g id="edge55" class="edge"><title>Node2&#45;&gt;Node44</title>
<path fill="none" stroke="midnightblue" d="M925.471,-324.396C904.483,-314.856 876.559,-302.163 853.847,-291.84"/>
<polygon fill="midnightblue" stroke="midnightblue" points="855.02,-288.528 844.468,-287.577 852.124,-294.901 855.02,-288.528"/>
</g>
<!-- Node47 -->
<g id="node47" class="node"><title>Node47</title>
<g id="a_node47"><a xlink:href="../../da/dd3/branch_2TopLeptonic_8hh.html" target="_top" xlink:title="boca/standardmodel\l/branch/TopLeptonic.hh">
<polygon fill="white" stroke="black" points="1976,-190.5 1976,-220.5 2095,-220.5 2095,-190.5 1976,-190.5"/>
<text text-anchor="start" x="1984" y="-208.5" font-family="Helvetica,sans-Serif" font-size="10.00">boca/standardmodel</text>
<text text-anchor="middle" x="2035.5" y="-197.5" font-family="Helvetica,sans-Serif" font-size="10.00">/branch/TopLeptonic.hh</text>
</a>
</g>
</g>
<!-- Node2&#45;&gt;Node47 -->
<g id="edge61" class="edge"><title>Node2&#45;&gt;Node47</title>
<path fill="none" stroke="midnightblue" d="M1014.76,-335.485C1200.19,-325.828 1766.81,-295.842 1805.5,-288 1874.16,-274.084 1950.09,-244.139 1995.24,-224.68"/>
<polygon fill="midnightblue" stroke="midnightblue" points="1996.9,-227.777 2004.67,-220.577 1994.11,-221.358 1996.9,-227.777"/>
</g>
<!-- Node4 -->
<g id="node4" class="node"><title>Node4</title>
<g id="a_node4"><a xlink:href="../../df/d3a/Doublet_8hh.html" target="_top" xlink:title="boca/multiplets/Doublet.hh">
<polygon fill="white" stroke="black" points="61,-196 61,-215 194,-215 194,-196 61,-196"/>
<text text-anchor="middle" x="127.5" y="-203" font-family="Helvetica,sans-Serif" font-size="10.00">boca/multiplets/Doublet.hh</text>
</a>
</g>
</g>
<!-- Node3&#45;&gt;Node4 -->
<g id="edge3" class="edge"><title>Node3&#45;&gt;Node4</title>
<path fill="none" stroke="midnightblue" d="M614.362,-266.114C524.133,-258.095 353.206,-241.717 208.5,-221 199.869,-219.764 190.75,-218.294 181.865,-216.77"/>
<polygon fill="midnightblue" stroke="midnightblue" points="182.427,-213.316 171.973,-215.038 181.219,-220.211 182.427,-213.316"/>
</g>
<!-- Node5 -->
<g id="node5" class="node"><title>Node5</title>
<g id="a_node5"><a xlink:href="../../d2/d91/multiplets_2TwoBody_8hh.html" target="_top" xlink:title="boca/multiplets/TwoBody.hh">
<polygon fill="white" stroke="red" points="172.5,-129 172.5,-148 312.5,-148 312.5,-129 172.5,-129"/>
<text text-anchor="middle" x="242.5" y="-136" font-family="Helvetica,sans-Serif" font-size="10.00">boca/multiplets/TwoBody.hh</text>
</a>
</g>
</g>
<!-- Node4&#45;&gt;Node5 -->
<g id="edge4" class="edge"><title>Node4&#45;&gt;Node5</title>
<path fill="none" stroke="midnightblue" d="M143.009,-195.734C162.408,-184.769 195.826,-165.881 218.528,-153.049"/>
<polygon fill="midnightblue" stroke="midnightblue" points="220.253,-156.095 227.236,-148.127 216.808,-150.001 220.253,-156.095"/>
</g>
<!-- Node6 -->
<g id="node6" class="node"><title>Node6</title>
<g id="a_node6"><a xlink:href="../../d3/d7e/Vector_8hh.html" target="_top" xlink:title="boca/generic/Vector.hh">
<polygon fill="white" stroke="red" points="198,-67.5 198,-86.5 315,-86.5 315,-67.5 198,-67.5"/>
<text text-anchor="middle" x="256.5" y="-74.5" font-family="Helvetica,sans-Serif" font-size="10.00">boca/generic/Vector.hh</text>
</a>
</g>
</g>
<!-- Node5&#45;&gt;Node6 -->
<g id="edge5" class="edge"><title>Node5&#45;&gt;Node6</title>
<path fill="none" stroke="midnightblue" d="M244.506,-128.975C246.502,-120.492 249.628,-107.204 252.189,-96.3222"/>
<polygon fill="midnightblue" stroke="midnightblue" points="255.614,-97.0449 254.498,-86.5091 248.8,-95.4416 255.614,-97.0449"/>
</g>
<!-- Node7 -->
<g id="node7" class="node"><title>Node7</title>
<g id="a_node7"><a xlink:href="../../db/d31/Sort_8hh.html" target="_top" xlink:title="boca/multiplets/Sort.hh">
<polygon fill="white" stroke="black" points="63,-67.5 63,-86.5 180,-86.5 180,-67.5 63,-67.5"/>
<text text-anchor="middle" x="121.5" y="-74.5" font-family="Helvetica,sans-Serif" font-size="10.00">boca/multiplets/Sort.hh</text>
</a>
</g>
</g>
<!-- Node5&#45;&gt;Node7 -->
<g id="edge6" class="edge"><title>Node5&#45;&gt;Node7</title>
<path fill="none" stroke="midnightblue" d="M225.164,-128.975C204.947,-119.034 171.313,-102.495 147.858,-90.961"/>
<polygon fill="midnightblue" stroke="midnightblue" points="149.322,-87.781 138.804,-86.5091 146.233,-94.0627 149.322,-87.781"/>
</g>
<!-- Node8 -->
<g id="node8" class="node"><title>Node8</title>
<polygon fill="white" stroke="#bfbfbf" points="131.5,-0.5 131.5,-30.5 241.5,-30.5 241.5,-0.5 131.5,-0.5"/>
<text text-anchor="start" x="139.5" y="-18.5" font-family="Helvetica,sans-Serif" font-size="10.00">boost/range/algorithm</text>
<text text-anchor="middle" x="186.5" y="-7.5" font-family="Helvetica,sans-Serif" font-size="10.00">/sort.hpp</text>
</g>
<!-- Node7&#45;&gt;Node8 -->
<g id="edge7" class="edge"><title>Node7&#45;&gt;Node8</title>
<path fill="none" stroke="midnightblue" d="M130.813,-67.4751C139.369,-59.6426 152.4,-47.7145 163.706,-37.3656"/>
<polygon fill="midnightblue" stroke="midnightblue" points="166.168,-39.8568 171.181,-30.523 161.441,-34.6934 166.168,-39.8568"/>
</g>
<!-- Node9 -->
<g id="node9" class="node"><title>Node9</title>
<polygon fill="white" stroke="#bfbfbf" points="0,-6 0,-25 113,-25 113,-6 0,-6"/>
<text text-anchor="middle" x="56.5" y="-13" font-family="Helvetica,sans-Serif" font-size="10.00">boost/units/cmath.hpp</text>
</g>
<!-- Node7&#45;&gt;Node9 -->
<g id="edge8" class="edge"><title>Node7&#45;&gt;Node9</title>
<path fill="none" stroke="midnightblue" d="M112.187,-67.4751C102.051,-58.1966 85.636,-43.1706 73.2482,-31.831"/>
<polygon fill="midnightblue" stroke="midnightblue" points="75.5352,-29.1795 65.7956,-25.0091 70.8087,-34.3429 75.5352,-29.1795"/>
</g>
<!-- Node10 -->
<g id="node10" class="node"><title>Node10</title>
<g id="a_node10"><a xlink:href="../../d2/d29/Id_8hh.html" target="_top" xlink:title="boca/physics/Id.hh">
<polygon fill="white" stroke="red" points="293,-6 293,-25 392,-25 392,-6 293,-6"/>
<text text-anchor="middle" x="342.5" y="-13" font-family="Helvetica,sans-Serif" font-size="10.00">boca/physics/Id.hh</text>
</a>
</g>
</g>
<!-- Node7&#45;&gt;Node10 -->
<g id="edge9" class="edge"><title>Node7&#45;&gt;Node10</title>
<path fill="none" stroke="midnightblue" d="M153.164,-67.4751C192.058,-57.0036 258.142,-39.2118 301.048,-27.6601"/>
<polygon fill="midnightblue" stroke="midnightblue" points="302.149,-30.9885 310.895,-25.0091 300.329,-24.2292 302.149,-30.9885"/>
</g>
<!-- Node11&#45;&gt;Node7 -->
<g id="edge18" class="edge"><title>Node11&#45;&gt;Node7</title>
<path fill="none" stroke="midnightblue" d="M913.976,-262.952C902.197,-260.787 889.382,-258.619 877.5,-257 794.918,-245.748 192.705,-213.654 134.5,-154 119.853,-138.988 118.265,-113.884 119.238,-96.6636"/>
<polygon fill="midnightblue" stroke="midnightblue" points="122.727,-96.9444 120.135,-86.6714 115.755,-96.3182 122.727,-96.9444"/>
</g>
<!-- Node12 -->
<g id="node12" class="node"><title>Node12</title>
<polygon fill="white" stroke="#bfbfbf" points="855,-196 855,-215 942,-215 942,-196 855,-196"/>
<text text-anchor="middle" x="898.5" y="-203" font-family="Helvetica,sans-Serif" font-size="10.00">TMVA/Reader.h</text>
</g>
<!-- Node11&#45;&gt;Node12 -->
<g id="edge11" class="edge"><title>Node11&#45;&gt;Node12</title>
<path fill="none" stroke="midnightblue" d="M948.678,-262.734C939.547,-252.5 924.256,-235.364 912.949,-222.692"/>
<polygon fill="midnightblue" stroke="midnightblue" points="915.468,-220.258 906.198,-215.127 910.245,-224.919 915.468,-220.258"/>
</g>
<!-- Node13 -->
<g id="node13" class="node"><title>Node13</title>
<g id="a_node13"><a xlink:href="../../dc/d76/Options_8hh.html" target="_top" xlink:title="boca/generic/Options.hh">
<polygon fill="white" stroke="black" points="753.5,-67.5 753.5,-86.5 875.5,-86.5 875.5,-67.5 753.5,-67.5"/>
<text text-anchor="middle" x="814.5" y="-74.5" font-family="Helvetica,sans-Serif" font-size="10.00">boca/generic/Options.hh</text>
</a>
</g>
</g>
<!-- Node11&#45;&gt;Node13 -->
<g id="edge12" class="edge"><title>Node11&#45;&gt;Node13</title>
<path fill="none" stroke="midnightblue" d="M912.22,-262.998C858.531,-250.009 770.628,-219.474 733.5,-154 726.704,-142.015 726.513,-134.875 733.5,-123 742.418,-107.844 758.489,-97.4264 773.978,-90.464"/>
<polygon fill="midnightblue" stroke="midnightblue" points="775.556,-93.5996 783.477,-86.5639 772.897,-87.124 775.556,-93.5996"/>
</g>
<!-- Node15 -->
<g id="node15" class="node"><title>Node15</title>
<g id="a_node15"><a xlink:href="../../dc/d65/TreeWriter_8hh.html" target="_top" xlink:title="boca/io/TreeWriter.hh">
<polygon fill="white" stroke="black" points="960.5,-196 960.5,-215 1070.5,-215 1070.5,-196 960.5,-196"/>
<text text-anchor="middle" x="1015.5" y="-203" font-family="Helvetica,sans-Serif" font-size="10.00">boca/io/TreeWriter.hh</text>
</a>
</g>
</g>
<!-- Node11&#45;&gt;Node15 -->
<g id="edge14" class="edge"><title>Node11&#45;&gt;Node15</title>
<path fill="none" stroke="midnightblue" d="M964.457,-262.734C973.746,-252.5 989.3,-235.364 1000.8,-222.692"/>
<polygon fill="midnightblue" stroke="midnightblue" points="1003.54,-224.884 1007.67,-215.127 998.356,-220.179 1003.54,-224.884"/>
</g>
<!-- Node19 -->
<g id="node19" class="node"><title>Node19</title>
<g id="a_node19"><a xlink:href="../../df/d31/Phase_8hh.html" target="_top" xlink:title="boca/multivariant/Phase.hh">
<polygon fill="white" stroke="black" points="1307,-67.5 1307,-86.5 1442,-86.5 1442,-67.5 1307,-67.5"/>
<text text-anchor="middle" x="1374.5" y="-74.5" font-family="Helvetica,sans-Serif" font-size="10.00">boca/multivariant/Phase.hh</text>
</a>
</g>
</g>
<!-- Node11&#45;&gt;Node19 -->
<g id="edge19" class="edge"><title>Node11&#45;&gt;Node19</title>
<path fill="none" stroke="midnightblue" d="M1026.16,-268.348C1220.45,-259.404 1755.07,-233.694 1768.5,-221 1800.26,-190.988 1805.63,-155.574 1776.5,-123 1755.3,-99.3 1562.93,-86.612 1452.16,-81.2161"/>
<polygon fill="midnightblue" stroke="midnightblue" points="1452.19,-77.7136 1442.04,-80.732 1451.86,-84.7056 1452.19,-77.7136"/>
</g>
<!-- Node22 -->
<g id="node22" class="node"><title>Node22</title>
<g id="a_node22"><a xlink:href="../../da/d59/PreCuts_8hh.html" target="_top" xlink:title="boca/PreCuts.hh">
<polygon fill="white" stroke="black" points="330.5,-129 330.5,-148 420.5,-148 420.5,-129 330.5,-129"/>
<text text-anchor="middle" x="375.5" y="-136" font-family="Helvetica,sans-Serif" font-size="10.00">boca/PreCuts.hh</text>
</a>
</g>
</g>
<!-- Node11&#45;&gt;Node22 -->
<g id="edge22" class="edge"><title>Node11&#45;&gt;Node22</title>
<path fill="none" stroke="midnightblue" d="M913.125,-262.996C901.574,-260.88 889.086,-258.725 877.5,-257 738.562,-236.309 699.19,-257.33 563.5,-221 502.25,-204.601 435.154,-171.529 400.045,-152.951"/>
<polygon fill="midnightblue" stroke="midnightblue" points="401.49,-149.754 391.022,-148.121 398.187,-155.926 401.49,-149.754"/>
</g>
<!-- Node25 -->
<g id="node25" class="node"><title>Node25</title>
<g id="a_node25"><a xlink:href="../../d1/d43/boca_2Event_8hh.html" target="_top" xlink:title="boca/Event.hh">
<polygon fill="white" stroke="black" points="1186.5,-196 1186.5,-215 1266.5,-215 1266.5,-196 1186.5,-196"/>
<text text-anchor="middle" x="1226.5" y="-203" font-family="Helvetica,sans-Serif" font-size="10.00">boca/Event.hh</text>
</a>
</g>
</g>
<!-- Node11&#45;&gt;Node25 -->
<g id="edge27" class="edge"><title>Node11&#45;&gt;Node25</title>
<path fill="none" stroke="midnightblue" d="M992.075,-262.936C1040.64,-251.244 1127.72,-230.28 1180.99,-217.457"/>
<polygon fill="midnightblue" stroke="midnightblue" points="1181.94,-220.827 1190.85,-215.083 1180.3,-214.021 1181.94,-220.827"/>
</g>
<!-- Node14 -->
<g id="node14" class="node"><title>Node14</title>
<polygon fill="white" stroke="#bfbfbf" points="719.5,-6 719.5,-25 771.5,-25 771.5,-6 719.5,-6"/>
<text text-anchor="middle" x="745.5" y="-13" font-family="Helvetica,sans-Serif" font-size="10.00">sstream</text>
</g>
<!-- Node13&#45;&gt;Node14 -->
<g id="edge13" class="edge"><title>Node13&#45;&gt;Node14</title>
<path fill="none" stroke="midnightblue" d="M804.614,-67.4751C793.854,-58.1966 776.429,-43.1706 763.279,-31.831"/>
<polygon fill="midnightblue" stroke="midnightblue" points="765.227,-28.889 755.368,-25.0091 760.655,-34.1902 765.227,-28.889"/>
</g>
<!-- Node16 -->
<g id="node16" class="node"><title>Node16</title>
<polygon fill="white" stroke="#bfbfbf" points="1001,-129 1001,-148 1030,-148 1030,-129 1001,-129"/>
<text text-anchor="middle" x="1015.5" y="-136" font-family="Helvetica,sans-Serif" font-size="10.00">list</text>
</g>
<!-- Node15&#45;&gt;Node16 -->
<g id="edge15" class="edge"><title>Node15&#45;&gt;Node16</title>
<path fill="none" stroke="midnightblue" d="M1015.5,-195.734C1015.5,-186.183 1015.5,-170.618 1015.5,-158.283"/>
<polygon fill="midnightblue" stroke="midnightblue" points="1019,-158.127 1015.5,-148.127 1012,-158.127 1019,-158.127"/>
</g>
<!-- Node17 -->
<g id="node17" class="node"><title>Node17</title>
<polygon fill="white" stroke="#bfbfbf" points="1048.5,-129 1048.5,-148 1098.5,-148 1098.5,-129 1048.5,-129"/>
<text text-anchor="middle" x="1073.5" y="-136" font-family="Helvetica,sans-Serif" font-size="10.00">TTree.h</text>
</g>
<!-- Node15&#45;&gt;Node17 -->
<g id="edge16" class="edge"><title>Node15&#45;&gt;Node17</title>
<path fill="none" stroke="midnightblue" d="M1023.32,-195.734C1032.45,-185.5 1047.74,-168.364 1059.05,-155.692"/>
<polygon fill="midnightblue" stroke="midnightblue" points="1061.76,-157.919 1065.8,-148.127 1056.53,-153.258 1061.76,-157.919"/>
</g>
<!-- Node18 -->
<g id="node18" class="node"><title>Node18</title>
<g id="a_node18"><a xlink:href="../../d8/d9e/TreeBranch_8hh.html" target="_top" xlink:title="boca/io/TreeBranch.hh">
<polygon fill="white" stroke="red" points="868,-129 868,-148 983,-148 983,-129 868,-129"/>
<text text-anchor="middle" x="925.5" y="-136" font-family="Helvetica,sans-Serif" font-size="10.00">boca/io/TreeBranch.hh</text>
</a>
</g>
</g>
<!-- Node15&#45;&gt;Node18 -->
<g id="edge17" class="edge"><title>Node15&#45;&gt;Node18</title>
<path fill="none" stroke="midnightblue" d="M1003.36,-195.734C988.653,-185.111 963.644,-167.049 945.943,-154.264"/>
<polygon fill="midnightblue" stroke="midnightblue" points="947.602,-151.145 937.445,-148.127 943.503,-156.82 947.602,-151.145"/>
</g>
<!-- Node20 -->
<g id="node20" class="node"><title>Node20</title>
<g id="a_node20"><a xlink:href="../../dd/d9c/Tag_8hh.html" target="_top" xlink:title="boca/Tag.hh">
<polygon fill="white" stroke="red" points="1399,-6 1399,-25 1470,-25 1470,-6 1399,-6"/>
<text text-anchor="middle" x="1434.5" y="-13" font-family="Helvetica,sans-Serif" font-size="10.00">boca/Tag.hh</text>
</a>
</g>
</g>
<!-- Node19&#45;&gt;Node20 -->
<g id="edge20" class="edge"><title>Node19&#45;&gt;Node20</title>
<path fill="none" stroke="midnightblue" d="M1383.1,-67.4751C1392.36,-58.285 1407.32,-43.4563 1418.71,-32.156"/>
<polygon fill="midnightblue" stroke="midnightblue" points="1421.28,-34.5358 1425.92,-25.0091 1416.35,-29.5653 1421.28,-34.5358"/>
</g>
<!-- Node21 -->
<g id="node21" class="node"><title>Node21</title>
<g id="a_node21"><a xlink:href="../../da/df8/Stage_8hh.html" target="_top" xlink:title="boca/multivariant/Stage.hh">
<polygon fill="white" stroke="red" points="1248,-6 1248,-25 1381,-25 1381,-6 1248,-6"/>
<text text-anchor="middle" x="1314.5" y="-13" font-family="Helvetica,sans-Serif" font-size="10.00">boca/multivariant/Stage.hh</text>
</a>
</g>
</g>
<!-- Node19&#45;&gt;Node21 -->
<g id="edge21" class="edge"><title>Node19&#45;&gt;Node21</title>
<path fill="none" stroke="midnightblue" d="M1365.9,-67.4751C1356.64,-58.285 1341.68,-43.4563 1330.29,-32.156"/>
<polygon fill="midnightblue" stroke="midnightblue" points="1332.65,-29.5653 1323.08,-25.0091 1327.72,-34.5358 1332.65,-29.5653"/>
</g>
<!-- Node22&#45;&gt;Node6 -->
<g id="edge26" class="edge"><title>Node22&#45;&gt;Node6</title>
<path fill="none" stroke="midnightblue" d="M358.45,-128.975C338.656,-119.078 305.783,-102.642 282.73,-91.1151"/>
<polygon fill="midnightblue" stroke="midnightblue" points="284.028,-87.8508 273.518,-86.5091 280.897,-94.1118 284.028,-87.8508"/>
</g>
<!-- Node23 -->
<g id="node23" class="node"><title>Node23</title>
<g id="a_node23"><a xlink:href="../../d6/dcd/Range_8hh.html" target="_top" xlink:title="boca/physics/Range.hh">
<polygon fill="white" stroke="red" points="436,-67.5 436,-86.5 555,-86.5 555,-67.5 436,-67.5"/>
<text text-anchor="middle" x="495.5" y="-74.5" font-family="Helvetica,sans-Serif" font-size="10.00">boca/physics/Range.hh</text>
</a>
</g>
</g>
<!-- Node22&#45;&gt;Node23 -->
<g id="edge23" class="edge"><title>Node22&#45;&gt;Node23</title>
<path fill="none" stroke="midnightblue" d="M392.693,-128.975C412.743,-119.034 446.099,-102.495 469.36,-90.961"/>
<polygon fill="midnightblue" stroke="midnightblue" points="470.934,-94.0871 478.339,-86.5091 467.825,-87.8157 470.934,-94.0871"/>
</g>
<!-- Node24 -->
<g id="node24" class="node"><title>Node24</title>
<g id="a_node24"><a xlink:href="../../d4/d5f/PreCut_8hh.html" target="_top" xlink:title="boca/PreCut.hh">
<polygon fill="white" stroke="red" points="333,-67.5 333,-86.5 418,-86.5 418,-67.5 333,-67.5"/>
<text text-anchor="middle" x="375.5" y="-74.5" font-family="Helvetica,sans-Serif" font-size="10.00">boca/PreCut.hh</text>
</a>
</g>
</g>
<!-- Node22&#45;&gt;Node24 -->
<g id="edge24" class="edge"><title>Node22&#45;&gt;Node24</title>
<path fill="none" stroke="midnightblue" d="M375.5,-128.975C375.5,-120.58 375.5,-107.481 375.5,-96.6631"/>
<polygon fill="midnightblue" stroke="midnightblue" points="379,-96.5091 375.5,-86.5091 372,-96.5091 379,-96.5091"/>
</g>
<!-- Node24&#45;&gt;Node10 -->
<g id="edge25" class="edge"><title>Node24&#45;&gt;Node10</title>
<path fill="none" stroke="midnightblue" d="M370.772,-67.4751C365.92,-58.7268 358.234,-44.8691 352.1,-33.8093"/>
<polygon fill="midnightblue" stroke="midnightblue" points="355.13,-32.0566 347.219,-25.0091 349.009,-35.4517 355.13,-32.0566"/>
</g>
<!-- Node26 -->
<g id="node26" class="node"><title>Node26</title>
<g id="a_node26"><a xlink:href="../../d0/d5f/Flag_8hh.html" target="_top" xlink:title="boca/generic/Flag.hh">
<polygon fill="white" stroke="red" points="1117,-129 1117,-148 1224,-148 1224,-129 1117,-129"/>
<text text-anchor="middle" x="1170.5" y="-136" font-family="Helvetica,sans-Serif" font-size="10.00">boca/generic/Flag.hh</text>
</a>
</g>
</g>
<!-- Node25&#45;&gt;Node26 -->
<g id="edge28" class="edge"><title>Node25&#45;&gt;Node26</title>
<path fill="none" stroke="midnightblue" d="M1218.95,-195.734C1210.22,-185.598 1195.65,-168.69 1184.76,-156.056"/>
<polygon fill="midnightblue" stroke="midnightblue" points="1187.11,-153.419 1177.93,-148.127 1181.81,-157.988 1187.11,-153.419"/>
</g>
<!-- Node27 -->
<g id="node27" class="node"><title>Node27</title>
<g id="a_node27"><a xlink:href="../../dd/df7/Jet_8hh.html" target="_top" xlink:title="boca/multiplets/Jet.hh">
<polygon fill="white" stroke="red" points="1393,-129 1393,-148 1506,-148 1506,-129 1393,-129"/>
<text text-anchor="middle" x="1449.5" y="-136" font-family="Helvetica,sans-Serif" font-size="10.00">boca/multiplets/Jet.hh</text>
</a>
</g>
</g>
<!-- Node25&#45;&gt;Node27 -->
<g id="edge29" class="edge"><title>Node25&#45;&gt;Node27</title>
<path fill="none" stroke="midnightblue" d="M1256.11,-195.869C1295.79,-184.303 1366.31,-163.749 1410.34,-150.914"/>
<polygon fill="midnightblue" stroke="midnightblue" points="1411.5,-154.222 1420.12,-148.064 1409.54,-147.502 1411.5,-154.222"/>
</g>
<!-- Node28 -->
<g id="node28" class="node"><title>Node28</title>
<g id="a_node28"><a xlink:href="../../d1/d9b/multiplets_2Particle_8hh.html" target="_top" xlink:title="boca/multiplets/Particle.hh">
<polygon fill="white" stroke="red" points="1242.5,-129 1242.5,-148 1374.5,-148 1374.5,-129 1242.5,-129"/>
<text text-anchor="middle" x="1308.5" y="-136" font-family="Helvetica,sans-Serif" font-size="10.00">boca/multiplets/Particle.hh</text>
</a>
</g>
</g>
<!-- Node25&#45;&gt;Node28 -->
<g id="edge30" class="edge"><title>Node25&#45;&gt;Node28</title>
<path fill="none" stroke="midnightblue" d="M1237.56,-195.734C1250.84,-185.208 1273.33,-167.379 1289.43,-154.617"/>
<polygon fill="midnightblue" stroke="midnightblue" points="1291.95,-157.082 1297.62,-148.127 1287.61,-151.596 1291.95,-157.082"/>
</g>
<!-- Node30 -->
<g id="node30" class="node"><title>Node30</title>
<g id="a_node30"><a xlink:href="../../db/d60/Singlet_8hh.html" target="_top" xlink:title="boca/multiplets/Singlet.hh">
<polygon fill="white" stroke="black" points="1500,-196 1500,-215 1629,-215 1629,-196 1500,-196"/>
<text text-anchor="middle" x="1564.5" y="-203" font-family="Helvetica,sans-Serif" font-size="10.00">boca/multiplets/Singlet.hh</text>
</a>
</g>
</g>
<!-- Node29&#45;&gt;Node30 -->
<g id="edge32" class="edge"><title>Node29&#45;&gt;Node30</title>
<path fill="none" stroke="midnightblue" d="M1447.83,-257.396C1473.97,-245.991 1510.45,-230.079 1535.62,-219.098"/>
<polygon fill="midnightblue" stroke="midnightblue" points="1537.23,-222.214 1545,-215.007 1534.43,-215.798 1537.23,-222.214"/>
</g>
<!-- Node34 -->
<g id="node34" class="node"><title>Node34</title>
<g id="a_node34"><a xlink:href="../../d4/dee/boca_2tagger_2Tagger_8hh.html" target="_top" xlink:title="boca/tagger/Tagger.hh">
<polygon fill="white" stroke="black" points="572.5,-196 572.5,-215 686.5,-215 686.5,-196 572.5,-196"/>
<text text-anchor="middle" x="629.5" y="-203" font-family="Helvetica,sans-Serif" font-size="10.00">boca/tagger/Tagger.hh</text>
</a>
</g>
</g>
<!-- Node29&#45;&gt;Node34 -->
<g id="edge38" class="edge"><title>Node29&#45;&gt;Node34</title>
<path fill="none" stroke="midnightblue" d="M1363.32,-267.185C1225.31,-255.772 850.783,-224.799 696.898,-212.074"/>
<polygon fill="midnightblue" stroke="midnightblue" points="696.9,-208.562 686.645,-211.226 696.323,-215.538 696.9,-208.562"/>
</g>
<!-- Node38 -->
<g id="node38" class="node"><title>Node38</title>
<g id="a_node38"><a xlink:href="../../dc/d97/branch_2Bottom_8hh.html" target="_top" xlink:title="boca/standardmodel\l/branch/Bottom.hh">
<polygon fill="white" stroke="black" points="1815.5,-190.5 1815.5,-220.5 1919.5,-220.5 1919.5,-190.5 1815.5,-190.5"/>
<text text-anchor="start" x="1823.5" y="-208.5" font-family="Helvetica,sans-Serif" font-size="10.00">boca/standardmodel</text>
<text text-anchor="middle" x="1867.5" y="-197.5" font-family="Helvetica,sans-Serif" font-size="10.00">/branch/Bottom.hh</text>
</a>
</g>
</g>
<!-- Node29&#45;&gt;Node38 -->
<g id="edge47" class="edge"><title>Node29&#45;&gt;Node38</title>
<path fill="none" stroke="midnightblue" d="M1467.54,-266.133C1541.88,-258.138 1682.67,-241.788 1801.5,-221 1802.77,-220.778 1804.05,-220.549 1805.34,-220.313"/>
<polygon fill="midnightblue" stroke="midnightblue" points="1806.18,-223.715 1815.34,-218.394 1804.86,-216.84 1806.18,-223.715"/>
</g>
<!-- Node43 -->
<g id="node43" class="node"><title>Node43</title>
<g id="a_node43"><a xlink:href="../../d1/d7d/MuXboostedBTagging_8hh.html" target="_top" xlink:title="boca/external/MuXboosted\lBTagging.hh">
<polygon fill="white" stroke="black" points="1349,-190.5 1349,-220.5 1482,-220.5 1482,-190.5 1349,-190.5"/>
<text text-anchor="start" x="1357" y="-208.5" font-family="Helvetica,sans-Serif" font-size="10.00">boca/external/MuXboosted</text>
<text text-anchor="middle" x="1415.5" y="-197.5" font-family="Helvetica,sans-Serif" font-size="10.00">BTagging.hh</text>
</a>
</g>
</g>
<!-- Node29&#45;&gt;Node43 -->
<g id="edge53" class="edge"><title>Node29&#45;&gt;Node43</title>
<path fill="none" stroke="midnightblue" d="M1415.5,-257.396C1415.5,-249.645 1415.5,-239.812 1415.5,-230.86"/>
<polygon fill="midnightblue" stroke="midnightblue" points="1419,-230.576 1415.5,-220.577 1412,-230.577 1419,-230.576"/>
</g>
<!-- Node30&#45;&gt;Node27 -->
<g id="edge37" class="edge"><title>Node30&#45;&gt;Node27</title>
<path fill="none" stroke="midnightblue" d="M1548.99,-195.734C1529.59,-184.769 1496.17,-165.881 1473.47,-153.049"/>
<polygon fill="midnightblue" stroke="midnightblue" points="1475.19,-150.001 1464.76,-148.127 1471.75,-156.095 1475.19,-150.001"/>
</g>
<!-- Node31 -->
<g id="node31" class="node"><title>Node31</title>
<g id="a_node31"><a xlink:href="../../d6/dcf/Mutable_8hh.html" target="_top" xlink:title="boca/generic/Mutable.hh">
<polygon fill="white" stroke="red" points="1524,-129 1524,-148 1647,-148 1647,-129 1524,-129"/>
<text text-anchor="middle" x="1585.5" y="-136" font-family="Helvetica,sans-Serif" font-size="10.00">boca/generic/Mutable.hh</text>
</a>
</g>
</g>
<!-- Node30&#45;&gt;Node31 -->
<g id="edge33" class="edge"><title>Node30&#45;&gt;Node31</title>
<path fill="none" stroke="midnightblue" d="M1567.33,-195.734C1570.45,-186.085 1575.55,-170.3 1579.55,-157.906"/>
<polygon fill="midnightblue" stroke="midnightblue" points="1582.97,-158.719 1582.71,-148.127 1576.31,-156.567 1582.97,-158.719"/>
</g>
<!-- Node33 -->
<g id="node33" class="node"><title>Node33</title>
<g id="a_node33"><a xlink:href="../../dc/d4e/Line2_8hh.html" target="_top" xlink:title="boca/math/Line2.hh">
<polygon fill="white" stroke="red" points="1665.5,-129 1665.5,-148 1767.5,-148 1767.5,-129 1665.5,-129"/>
<text text-anchor="middle" x="1716.5" y="-136" font-family="Helvetica,sans-Serif" font-size="10.00">boca/math/Line2.hh</text>
</a>
</g>
</g>
<!-- Node30&#45;&gt;Node33 -->
<g id="edge36" class="edge"><title>Node30&#45;&gt;Node33</title>
<path fill="none" stroke="midnightblue" d="M1584.68,-195.869C1610.8,-184.699 1656.53,-165.147 1686.66,-152.26"/>
<polygon fill="midnightblue" stroke="midnightblue" points="1688.41,-155.317 1696.23,-148.167 1685.66,-148.881 1688.41,-155.317"/>
</g>
<!-- Node32 -->
<g id="node32" class="node"><title>Node32</title>
<g id="a_node32"><a xlink:href="../../d8/de8/Debug_8hh.html" target="_top" xlink:title="boca/generic/Debug.hh">
<polygon fill="white" stroke="red" points="618,-67.5 618,-86.5 735,-86.5 735,-67.5 618,-67.5"/>
<text text-anchor="middle" x="676.5" y="-74.5" font-family="Helvetica,sans-Serif" font-size="10.00">boca/generic/Debug.hh</text>
</a>
</g>
</g>
<!-- Node31&#45;&gt;Node32 -->
<g id="edge34" class="edge"><title>Node31&#45;&gt;Node32</title>
<path fill="none" stroke="midnightblue" d="M1549.19,-128.96C1538.12,-126.659 1525.86,-124.417 1514.5,-123 1177.86,-81.0113 1087.49,-116.79 745.269,-86.9742"/>
<polygon fill="midnightblue" stroke="midnightblue" points="745.34,-83.4669 735.07,-86.0728 744.723,-90.4397 745.34,-83.4669"/>
</g>
<!-- Node32&#45;&gt;Node14 -->
<g id="edge35" class="edge"><title>Node32&#45;&gt;Node14</title>
<path fill="none" stroke="midnightblue" d="M686.386,-67.4751C697.146,-58.1966 714.571,-43.1706 727.721,-31.831"/>
<polygon fill="midnightblue" stroke="midnightblue" points="730.345,-34.1902 735.632,-25.0091 725.773,-28.889 730.345,-34.1902"/>
</g>
<!-- Node34&#45;&gt;Node7 -->
<g id="edge40" class="edge"><title>Node34&#45;&gt;Node7</title>
<path fill="none" stroke="midnightblue" d="M572.305,-204.741C462.95,-204.176 229.224,-197.716 163.5,-154 143.448,-140.663 132.067,-114.376 126.343,-96.4953"/>
<polygon fill="midnightblue" stroke="midnightblue" points="129.697,-95.4941 123.544,-86.8694 122.976,-97.449 129.697,-95.4941"/>
</g>
<!-- Node34&#45;&gt;Node18 -->
<g id="edge41" class="edge"><title>Node34&#45;&gt;Node18</title>
<path fill="none" stroke="midnightblue" d="M668.501,-195.936C721.963,-184.196 818.005,-163.105 876.332,-150.297"/>
<polygon fill="midnightblue" stroke="midnightblue" points="877.396,-153.647 886.412,-148.083 875.894,-146.81 877.396,-153.647"/>
</g>
<!-- Node34&#45;&gt;Node22 -->
<g id="edge44" class="edge"><title>Node34&#45;&gt;Node22</title>
<path fill="none" stroke="midnightblue" d="M595.132,-195.988C555.256,-186.074 487.548,-169.121 429.5,-154 425.379,-152.926 421.084,-151.795 416.796,-150.657"/>
<polygon fill="midnightblue" stroke="midnightblue" points="417.453,-147.21 406.889,-148.014 415.649,-153.973 417.453,-147.21"/>
</g>
<!-- Node34&#45;&gt;Node32 -->
<g id="edge46" class="edge"><title>Node34&#45;&gt;Node32</title>
<path fill="none" stroke="midnightblue" d="M635.185,-195.904C641.434,-186.119 651.395,-169.481 657.5,-154 664.968,-135.063 670.198,-112.291 673.254,-96.641"/>
<polygon fill="midnightblue" stroke="midnightblue" points="676.723,-97.1302 675.097,-86.661 669.839,-95.8594 676.723,-97.1302"/>
</g>
<!-- Node35 -->
<g id="node35" class="node"><title>Node35</title>
<g id="a_node35"><a xlink:href="../../d6/dd8/Types_8hh.html" target="_top" xlink:title="boca/generic/Types.hh">
<polygon fill="white" stroke="red" points="532.5,-129 532.5,-148 648.5,-148 648.5,-129 532.5,-129"/>
<text text-anchor="middle" x="590.5" y="-136" font-family="Helvetica,sans-Serif" font-size="10.00">boca/generic/Types.hh</text>
</a>
</g>
</g>
<!-- Node34&#45;&gt;Node35 -->
<g id="edge39" class="edge"><title>Node34&#45;&gt;Node35</title>
<path fill="none" stroke="midnightblue" d="M624.24,-195.734C618.276,-185.793 608.403,-169.338 600.874,-156.789"/>
<polygon fill="midnightblue" stroke="midnightblue" points="603.823,-154.901 595.676,-148.127 597.82,-158.503 603.823,-154.901"/>
</g>
<!-- Node36 -->
<g id="node36" class="node"><title>Node36</title>
<g id="a_node36"><a xlink:href="../../dd/d01/tagger_2Base_8hh.html" target="_top" xlink:title="boca/tagger/Base.hh">
<polygon fill="white" stroke="red" points="743,-129 743,-148 850,-148 850,-129 743,-129"/>
<text text-anchor="middle" x="796.5" y="-136" font-family="Helvetica,sans-Serif" font-size="10.00">boca/tagger/Base.hh</text>
</a>
</g>
</g>
<!-- Node34&#45;&gt;Node36 -->
<g id="edge42" class="edge"><title>Node34&#45;&gt;Node36</title>
<path fill="none" stroke="midnightblue" d="M651.676,-195.869C680.703,-184.571 731.765,-164.696 764.851,-151.818"/>
<polygon fill="midnightblue" stroke="midnightblue" points="766.448,-154.953 774.498,-148.064 763.909,-148.429 766.448,-154.953"/>
</g>
<!-- Node37 -->
<g id="node37" class="node"><title>Node37</title>
<g id="a_node37"><a xlink:href="../../de/df0/Filter_8hh.html" target="_top" xlink:title="boca/Filter.hh">
<polygon fill="white" stroke="red" points="438.5,-129 438.5,-148 514.5,-148 514.5,-129 438.5,-129"/>
<text text-anchor="middle" x="476.5" y="-136" font-family="Helvetica,sans-Serif" font-size="10.00">boca/Filter.hh</text>
</a>
</g>
</g>
<!-- Node34&#45;&gt;Node37 -->
<g id="edge45" class="edge"><title>Node34&#45;&gt;Node37</title>
<path fill="none" stroke="midnightblue" d="M609.183,-195.869C582.777,-184.65 536.468,-164.977 506.141,-152.092"/>
<polygon fill="midnightblue" stroke="midnightblue" points="507.474,-148.856 496.901,-148.167 504.737,-155.299 507.474,-148.856"/>
</g>
<!-- Node36&#45;&gt;Node19 -->
<g id="edge43" class="edge"><title>Node36&#45;&gt;Node19</title>
<path fill="none" stroke="midnightblue" d="M829.147,-128.944C838.566,-126.727 848.894,-124.534 858.5,-123 1012.81,-98.3555 1195.4,-86.4333 1296.77,-81.3174"/>
<polygon fill="midnightblue" stroke="midnightblue" points="1297.1,-84.805 1306.92,-80.8141 1296.76,-77.8136 1297.1,-84.805"/>
</g>
<!-- Node39 -->
<g id="node39" class="node"><title>Node39</title>
<g id="a_node39"><a xlink:href="../../dc/d3c/BottomBase_8hh.html" target="_top" xlink:title="boca/standardmodel\l/branch/BottomBase.hh">
<polygon fill="white" stroke="red" points="2015,-123.5 2015,-153.5 2134,-153.5 2134,-123.5 2015,-123.5"/>
<text text-anchor="start" x="2023" y="-141.5" font-family="Helvetica,sans-Serif" font-size="10.00">boca/standardmodel</text>
<text text-anchor="middle" x="2074.5" y="-130.5" font-family="Helvetica,sans-Serif" font-size="10.00">/branch/BottomBase.hh</text>
</a>
</g>
</g>
<!-- Node38&#45;&gt;Node39 -->
<g id="edge48" class="edge"><title>Node38&#45;&gt;Node39</title>
<path fill="none" stroke="midnightblue" d="M1912.16,-190.476C1943.75,-180.557 1986.28,-167.201 2019.89,-156.648"/>
<polygon fill="midnightblue" stroke="midnightblue" points="2021.07,-159.946 2029.56,-153.611 2018.97,-153.268 2021.07,-159.946"/>
</g>
<!-- Node42 -->
<g id="node42" class="node"><title>Node42</title>
<g id="a_node42"><a xlink:href="../../d1/d88/branch_2Particle_8hh.html" target="_top" xlink:title="boca/branch/Particle.hh">
<polygon fill="white" stroke="red" points="1861,-67.5 1861,-86.5 1980,-86.5 1980,-67.5 1861,-67.5"/>
<text text-anchor="middle" x="1920.5" y="-74.5" font-family="Helvetica,sans-Serif" font-size="10.00">boca/branch/Particle.hh</text>
</a>
</g>
</g>
<!-- Node38&#45;&gt;Node42 -->
<g id="edge51" class="edge"><title>Node38&#45;&gt;Node42</title>
<path fill="none" stroke="midnightblue" d="M1861.71,-190.391C1855.71,-173.435 1848.61,-144.575 1859.5,-123 1866.31,-109.52 1879.27,-99.083 1891.5,-91.6696"/>
<polygon fill="midnightblue" stroke="midnightblue" points="1893.57,-94.5214 1900.59,-86.5896 1890.16,-88.4099 1893.57,-94.5214"/>
</g>
<!-- Node40 -->
<g id="node40" class="node"><title>Node40</title>
<polygon fill="white" stroke="#bfbfbf" points="1998,-67.5 1998,-86.5 2057,-86.5 2057,-67.5 1998,-67.5"/>
<text text-anchor="middle" x="2027.5" y="-74.5" font-family="Helvetica,sans-Serif" font-size="10.00">TObject.h</text>
</g>
<!-- Node39&#45;&gt;Node40 -->
<g id="edge49" class="edge"><title>Node39&#45;&gt;Node40</title>
<path fill="none" stroke="midnightblue" d="M2063.36,-123.399C2056.53,-114.753 2047.76,-103.642 2040.59,-94.576"/>
<polygon fill="midnightblue" stroke="midnightblue" points="2043.28,-92.3354 2034.34,-86.6578 2037.79,-96.6745 2043.28,-92.3354"/>
</g>
<!-- Node41 -->
<g id="node41" class="node"><title>Node41</title>
<g id="a_node41"><a xlink:href="../../dc/d6c/Prefixes_8hh.html" target="_top" xlink:title="boca/physics/Prefixes.hh">
<polygon fill="white" stroke="red" points="1939,-6 1939,-25 2066,-25 2066,-6 1939,-6"/>
<text text-anchor="middle" x="2002.5" y="-13" font-family="Helvetica,sans-Serif" font-size="10.00">boca/physics/Prefixes.hh</text>
</a>
</g>
</g>
<!-- Node39&#45;&gt;Node41 -->
<g id="edge50" class="edge"><title>Node39&#45;&gt;Node41</title>
<path fill="none" stroke="midnightblue" d="M2075.97,-123.294C2076.84,-108.328 2076.26,-84.5442 2066.5,-67 2057.8,-51.3769 2042.11,-38.8755 2028.43,-30.2192"/>
<polygon fill="midnightblue" stroke="midnightblue" points="2030.22,-27.2076 2019.84,-25.092 2026.63,-33.2198 2030.22,-27.2076"/>
</g>
<!-- Node42&#45;&gt;Node41 -->
<g id="edge52" class="edge"><title>Node42&#45;&gt;Node41</title>
<path fill="none" stroke="midnightblue" d="M1932.25,-67.4751C1945.28,-58.0199 1966.54,-42.5961 1982.26,-31.1871"/>
<polygon fill="midnightblue" stroke="midnightblue" points="1984.73,-33.7149 1990.77,-25.0091 1980.62,-28.0492 1984.73,-33.7149"/>
</g>
<!-- Node43&#45;&gt;Node27 -->
<g id="edge54" class="edge"><title>Node43&#45;&gt;Node27</title>
<path fill="none" stroke="midnightblue" d="M1422.88,-190.396C1427.97,-180.662 1434.78,-167.646 1440.23,-157.214"/>
<polygon fill="midnightblue" stroke="midnightblue" points="1443.42,-158.678 1444.95,-148.195 1437.22,-155.433 1443.42,-158.678"/>
</g>
<!-- Node44&#45;&gt;Node4 -->
<g id="edge56" class="edge"><title>Node44&#45;&gt;Node4</title>
<path fill="none" stroke="midnightblue" d="M758.444,-258.452C755.427,-257.917 752.431,-257.427 749.5,-257 511.04,-222.271 447.691,-250.276 208.5,-221 199.336,-219.878 189.637,-218.399 180.257,-216.814"/>
<polygon fill="midnightblue" stroke="midnightblue" points="180.697,-213.338 170.244,-215.065 179.492,-220.234 180.697,-213.338"/>
</g>
<!-- Node44&#45;&gt;Node34 -->
<g id="edge60" class="edge"><title>Node44&#45;&gt;Node34</title>
<path fill="none" stroke="midnightblue" d="M773.575,-257.396C740.576,-245.739 694.249,-229.373 663.118,-218.376"/>
<polygon fill="midnightblue" stroke="midnightblue" points="664.176,-215.038 653.581,-215.007 661.844,-221.638 664.176,-215.038"/>
</g>
<!-- Node45 -->
<g id="node45" class="node"><title>Node45</title>
<g id="a_node45"><a xlink:href="../../da/d6d/branch_2WLeptonic_8hh.html" target="_top" xlink:title="boca/standardmodel\l/branch/WLeptonic.hh">
<polygon fill="white" stroke="black" points="1647.5,-190.5 1647.5,-220.5 1759.5,-220.5 1759.5,-190.5 1647.5,-190.5"/>
<text text-anchor="start" x="1655.5" y="-208.5" font-family="Helvetica,sans-Serif" font-size="10.00">boca/standardmodel</text>
<text text-anchor="middle" x="1703.5" y="-197.5" font-family="Helvetica,sans-Serif" font-size="10.00">/branch/WLeptonic.hh</text>
</a>
</g>
</g>
<!-- Node44&#45;&gt;Node45 -->
<g id="edge57" class="edge"><title>Node44&#45;&gt;Node45</title>
<path fill="none" stroke="midnightblue" d="M868.546,-258.384C871.566,-257.866 874.565,-257.399 877.5,-257 1212.58,-211.465 1302.28,-265.439 1637.5,-221 1637.6,-220.987 1637.7,-220.973 1637.81,-220.959"/>
<polygon fill="midnightblue" stroke="midnightblue" points="1638.09,-224.457 1647.44,-219.49 1637.03,-217.537 1638.09,-224.457"/>
</g>
<!-- Node46 -->
<g id="node46" class="node"><title>Node46</title>
<g id="a_node46"><a xlink:href="../../dc/d27/branch_2TwoBody_8hh.html" target="_top" xlink:title="boca/branch/TwoBody.hh">
<polygon fill="white" stroke="black" points="1868.5,-129 1868.5,-148 1996.5,-148 1996.5,-129 1868.5,-129"/>
<text text-anchor="middle" x="1932.5" y="-136" font-family="Helvetica,sans-Serif" font-size="10.00">boca/branch/TwoBody.hh</text>
</a>
</g>
</g>
<!-- Node45&#45;&gt;Node46 -->
<g id="edge58" class="edge"><title>Node45&#45;&gt;Node46</title>
<path fill="none" stroke="midnightblue" d="M1752.91,-190.476C1794.67,-178.622 1853.73,-161.858 1892.56,-150.838"/>
<polygon fill="midnightblue" stroke="midnightblue" points="1893.79,-154.126 1902.45,-148.029 1891.88,-147.392 1893.79,-154.126"/>
</g>
<!-- Node46&#45;&gt;Node42 -->
<g id="edge59" class="edge"><title>Node46&#45;&gt;Node42</title>
<path fill="none" stroke="midnightblue" d="M1930.78,-128.975C1929.07,-120.492 1926.39,-107.204 1924.2,-96.3222"/>
<polygon fill="midnightblue" stroke="midnightblue" points="1927.62,-95.6197 1922.22,-86.5091 1920.76,-97.0037 1927.62,-95.6197"/>
</g>
<!-- Node47&#45;&gt;Node39 -->
<g id="edge63" class="edge"><title>Node47&#45;&gt;Node39</title>
<path fill="none" stroke="midnightblue" d="M2043.96,-190.396C2048.87,-182.219 2055.16,-171.725 2060.76,-162.393"/>
<polygon fill="midnightblue" stroke="midnightblue" points="2063.91,-163.952 2066.05,-153.577 2057.91,-160.351 2063.91,-163.952"/>
</g>
<!-- Node47&#45;&gt;Node46 -->
<g id="edge62" class="edge"><title>Node47&#45;&gt;Node46</title>
<path fill="none" stroke="midnightblue" d="M2013.15,-190.396C1995.88,-179.496 1972.08,-164.479 1954.82,-153.584"/>
<polygon fill="midnightblue" stroke="midnightblue" points="1956.31,-150.384 1945.98,-148.007 1952.57,-156.304 1956.31,-150.384"/>
</g>
<!-- Node48&#45;&gt;Node3 -->
<g id="edge65" class="edge"><title>Node48&#45;&gt;Node3</title>
<path fill="none" stroke="midnightblue" d="M738.059,-329.734C726.829,-319.305 707.879,-301.709 694.163,-288.973"/>
<polygon fill="midnightblue" stroke="midnightblue" points="696.5,-286.367 686.791,-282.127 691.737,-291.497 696.5,-286.367"/>
</g>
<!-- Node50 -->
<g id="node50" class="node"><title>Node50</title>
<g id="a_node50"><a xlink:href="../../da/df0/Multi_8hh.html" target="_top" xlink:title="boca/branch/Multi.hh">
<polygon fill="white" stroke="black" points="1690,-263 1690,-282 1797,-282 1797,-263 1690,-263"/>
<text text-anchor="middle" x="1743.5" y="-270" font-family="Helvetica,sans-Serif" font-size="10.00">boca/branch/Multi.hh</text>
</a>
</g>
</g>
<!-- Node49&#45;&gt;Node50 -->
<g id="edge67" class="edge"><title>Node49&#45;&gt;Node50</title>
<path fill="none" stroke="midnightblue" d="M1405.91,-327.547C1482.54,-315.28 1605.72,-295.559 1680.19,-283.635"/>
<polygon fill="midnightblue" stroke="midnightblue" points="1681.05,-287.043 1690.37,-282.006 1679.94,-280.131 1681.05,-287.043"/>
</g>
<!-- Node50&#45;&gt;Node46 -->
<g id="edge68" class="edge"><title>Node50&#45;&gt;Node46</title>
<path fill="none" stroke="midnightblue" d="M1797.3,-263.903C1845.84,-255.845 1912.08,-241.441 1928.5,-221 1942.6,-203.439 1940.73,-176.253 1937.29,-158.172"/>
<polygon fill="midnightblue" stroke="midnightblue" points="1940.67,-157.252 1935.07,-148.258 1933.84,-158.781 1940.67,-157.252"/>
</g>
</g>
</svg>
