<?xml version="1.0" encoding="UTF-8" standalone="no"?>
<!DOCTYPE svg PUBLIC "-//W3C//DTD SVG 1.1//EN"
 "http://www.w3.org/Graphics/SVG/1.1/DTD/svg11.dtd">
<!-- Generated by graphviz version 2.38.0 (20140413.2041)
 -->
<!-- Title: TopPartner/include/TopPartnerHiggsPairTagger.hh Pages: 1 -->
<svg width="162pt" height="106pt"
 viewBox="0.00 0.00 162.00 106.00" xmlns="http://www.w3.org/2000/svg" xmlns:xlink="http://www.w3.org/1999/xlink">
<g id="graph0" class="graph" transform="scale(1 1) rotate(0) translate(4 102)">
<title>TopPartner/include/TopPartnerHiggsPairTagger.hh</title>
<polygon fill="white" stroke="none" points="-4,4 -4,-102 158,-102 158,4 -4,4"/>
<!-- Node1 -->
<g id="node1" class="node"><title>Node1</title>
<polygon fill="#bfbfbf" stroke="black" points="0,-67.5 0,-97.5 154,-97.5 154,-67.5 0,-67.5"/>
<text text-anchor="start" x="8" y="-85.5" font-family="Helvetica,sans-Serif" font-size="10.00">TopPartner/include</text>
<text text-anchor="middle" x="77" y="-74.5" font-family="Helvetica,sans-Serif" font-size="10.00">/TopPartnerHiggsPairTagger.hh</text>
</g>
<!-- Node2 -->
<g id="node2" class="node"><title>Node2</title>
<g id="a_node2"><a xlink:href="../../d9/df1/TopPartnerHiggsPairTagger_8cpp.html" target="_top" xlink:title="TopPartner/source/TopPartner\lHiggsPairTagger.cpp">
<polygon fill="white" stroke="black" points="3,-0.5 3,-30.5 151,-30.5 151,-0.5 3,-0.5"/>
<text text-anchor="start" x="11" y="-18.5" font-family="Helvetica,sans-Serif" font-size="10.00">TopPartner/source/TopPartner</text>
<text text-anchor="middle" x="77" y="-7.5" font-family="Helvetica,sans-Serif" font-size="10.00">HiggsPairTagger.cpp</text>
</a>
</g>
</g>
<!-- Node1&#45;&gt;Node2 -->
<g id="edge1" class="edge"><title>Node1&#45;&gt;Node2</title>
<path fill="none" stroke="midnightblue" d="M77,-57.1081C77,-48.1539 77,-38.3227 77,-30.5765"/>
<polygon fill="midnightblue" stroke="midnightblue" points="73.5001,-57.3959 77,-67.396 80.5001,-57.396 73.5001,-57.3959"/>
</g>
</g>
</svg>
