<?xml version="1.0" encoding="UTF-8" standalone="no"?>
<!DOCTYPE svg PUBLIC "-//W3C//DTD SVG 1.1//EN"
 "http://www.w3.org/Graphics/SVG/1.1/DTD/svg11.dtd">
<!-- Generated by graphviz version 2.38.0 (20140413.2041)
 -->
<!-- Title: toppartner::tagger::EventNewPair Pages: 1 -->
<svg width="260pt" height="264pt"
 viewBox="0.00 0.00 260.00 264.00" xmlns="http://www.w3.org/2000/svg" xmlns:xlink="http://www.w3.org/1999/xlink">
<g id="graph0" class="graph" transform="scale(1 1) rotate(0) translate(4 260)">
<title>toppartner::tagger::EventNewPair</title>
<polygon fill="white" stroke="none" points="-4,4 -4,-260 256,-260 256,4 -4,4"/>
<!-- Node1 -->
<g id="node1" class="node"><title>Node1</title>
<polygon fill="#bfbfbf" stroke="black" points="26.5,-0.5 26.5,-30.5 119.5,-30.5 119.5,-0.5 26.5,-0.5"/>
<text text-anchor="start" x="34.5" y="-18.5" font-family="Helvetica,sans-Serif" font-size="10.00">toppartner::tagger</text>
<text text-anchor="middle" x="73" y="-7.5" font-family="Helvetica,sans-Serif" font-size="10.00">::EventNewPair</text>
</g>
<!-- Node2 -->
<g id="node2" class="node"><title>Node2</title>
<g id="a_node2"><a xlink:href="../../da/d42/classboca_1_1Tagger.html" target="_top" xlink:title="boca::Tagger\&lt; EventMultiplet\l\&lt; Decuplet55 \&gt;, boca::branch\l::Event \&gt;">
<polygon fill="white" stroke="black" points="0,-68.5 0,-109.5 146,-109.5 146,-68.5 0,-68.5"/>
<text text-anchor="start" x="8" y="-97.5" font-family="Helvetica,sans-Serif" font-size="10.00">boca::Tagger&lt; EventMultiplet</text>
<text text-anchor="start" x="8" y="-86.5" font-family="Helvetica,sans-Serif" font-size="10.00">&lt; Decuplet55 &gt;, boca::branch</text>
<text text-anchor="middle" x="73" y="-75.5" font-family="Helvetica,sans-Serif" font-size="10.00">::Event &gt;</text>
</a>
</g>
</g>
<!-- Node2&#45;&gt;Node1 -->
<g id="edge1" class="edge"><title>Node2&#45;&gt;Node1</title>
<path fill="none" stroke="midnightblue" d="M73,-58.1581C73,-48.6872 73,-38.6473 73,-30.7972"/>
<polygon fill="midnightblue" stroke="midnightblue" points="69.5001,-58.4623 73,-68.4623 76.5001,-58.4623 69.5001,-58.4623"/>
</g>
<!-- Node3 -->
<g id="node3" class="node"><title>Node3</title>
<g id="a_node3"><a xlink:href="../../d8/d02/classboca_1_1tagger_1_1Base.html" target="_top" xlink:title="Prepares multivariant analysis. ">
<polygon fill="white" stroke="black" points="35.5,-236.5 35.5,-255.5 134.5,-255.5 134.5,-236.5 35.5,-236.5"/>
<text text-anchor="middle" x="85" y="-243.5" font-family="Helvetica,sans-Serif" font-size="10.00">boca::tagger::Base</text>
</a>
</g>
</g>
<!-- Node3&#45;&gt;Node2 -->
<g id="edge2" class="edge"><title>Node3&#45;&gt;Node2</title>
<path fill="none" stroke="midnightblue" d="M80.6437,-226.451C78.8731,-218.109 77.0096,-208.11 76,-199 72.5597,-167.954 72.3079,-131.648 72.5636,-109.759"/>
<polygon fill="midnightblue" stroke="midnightblue" points="77.237,-227.255 82.8381,-236.248 84.0677,-225.725 77.237,-227.255"/>
</g>
<!-- Node4 -->
<g id="node4" class="node"><title>Node4</title>
<g id="a_node4"><a xlink:href="../../da/d42/classboca_1_1Tagger.html" target="_top" xlink:title="Tagger base class using Branch template. ">
<polygon fill="white" stroke="black" points="85.5,-168.5 85.5,-198.5 204.5,-198.5 204.5,-168.5 85.5,-168.5"/>
<text text-anchor="start" x="93.5" y="-186.5" font-family="Helvetica,sans-Serif" font-size="10.00">boca::Tagger&lt; Multiplet</text>
<text text-anchor="middle" x="145" y="-175.5" font-family="Helvetica,sans-Serif" font-size="10.00">_, Branch_ &gt;</text>
</a>
</g>
</g>
<!-- Node3&#45;&gt;Node4 -->
<g id="edge4" class="edge"><title>Node3&#45;&gt;Node4</title>
<path fill="none" stroke="midnightblue" d="M100.762,-229.106C110.096,-219.694 121.824,-207.869 130.859,-198.759"/>
<polygon fill="midnightblue" stroke="midnightblue" points="98.1531,-226.767 93.5965,-236.332 103.123,-231.696 98.1531,-226.767"/>
</g>
<!-- Node4&#45;&gt;Node2 -->
<g id="edge3" class="edge"><title>Node4&#45;&gt;Node2</title>
<path fill="none" stroke="orange" stroke-dasharray="5,2" d="M127.843,-160.457C115.826,-145.02 99.9099,-124.572 88.3203,-109.682"/>
<polygon fill="orange" stroke="orange" points="125.16,-162.71 134.065,-168.451 130.684,-158.41 125.16,-162.71"/>
<text text-anchor="start" x="119" y="-142" font-family="Helvetica,sans-Serif" font-size="10.00"> &lt; EventMultiplet&lt; Decuplet55</text>
<text text-anchor="middle" x="185.5" y="-131" font-family="Helvetica,sans-Serif" font-size="10.00"> &gt;, boca::branch::Event &gt;</text>
</g>
</g>
</svg>
