<?xml version="1.0" encoding="UTF-8" standalone="no"?>
<!DOCTYPE svg PUBLIC "-//W3C//DTD SVG 1.1//EN"
 "http://www.w3.org/Graphics/SVG/1.1/DTD/svg11.dtd">
<!-- Generated by graphviz version 2.38.0 (20140413.2041)
 -->
<!-- Title: boca::naturalness::AnalysisSingleHadronic&lt; Tagger &gt; Pages: 1 -->
<svg width="137pt" height="240pt"
 viewBox="0.00 0.00 137.00 240.00" xmlns="http://www.w3.org/2000/svg" xmlns:xlink="http://www.w3.org/1999/xlink">
<g id="graph0" class="graph" transform="scale(1 1) rotate(0) translate(4 236)">
<title>boca::naturalness::AnalysisSingleHadronic&lt; Tagger &gt;</title>
<polygon fill="white" stroke="none" points="-4,4 -4,-236 133,-236 133,4 -4,4"/>
<!-- Node1 -->
<g id="node1" class="node"><title>Node1</title>
<polygon fill="#bfbfbf" stroke="black" points="4.5,-0.5 4.5,-41.5 124.5,-41.5 124.5,-0.5 4.5,-0.5"/>
<text text-anchor="start" x="12.5" y="-29.5" font-family="Helvetica,sans-Serif" font-size="10.00">boca::naturalness::</text>
<text text-anchor="start" x="12.5" y="-18.5" font-family="Helvetica,sans-Serif" font-size="10.00">AnalysisSingleHadronic</text>
<text text-anchor="middle" x="64.5" y="-7.5" font-family="Helvetica,sans-Serif" font-size="10.00">&lt; Tagger &gt;</text>
</g>
<!-- Node2 -->
<g id="node2" class="node"><title>Node2</title>
<g id="a_node2"><a xlink:href="../../d0/da0/classboca_1_1naturalness_1_1AnalysisNaturalness.html" target="_top" xlink:title="Top partner analysis. ">
<polygon fill="white" stroke="black" points="11,-78.5 11,-119.5 118,-119.5 118,-78.5 11,-78.5"/>
<text text-anchor="start" x="19" y="-107.5" font-family="Helvetica,sans-Serif" font-size="10.00">boca::naturalness::</text>
<text text-anchor="start" x="19" y="-96.5" font-family="Helvetica,sans-Serif" font-size="10.00">AnalysisNaturalness</text>
<text text-anchor="middle" x="64.5" y="-85.5" font-family="Helvetica,sans-Serif" font-size="10.00">&lt; Tagger &gt;</text>
</a>
</g>
</g>
<!-- Node2&#45;&gt;Node1 -->
<g id="edge1" class="edge"><title>Node2&#45;&gt;Node1</title>
<path fill="none" stroke="midnightblue" d="M64.5,-68.2965C64.5,-59.3009 64.5,-49.6532 64.5,-41.5056"/>
<polygon fill="midnightblue" stroke="midnightblue" points="61.0001,-68.4281 64.5,-78.4281 68.0001,-68.4281 61.0001,-68.4281"/>
</g>
<!-- Node3 -->
<g id="node3" class="node"><title>Node3</title>
<g id="a_node3"><a xlink:href="../../d1/d36/classboca_1_1Analysis.html" target="_top" xlink:title="provides main analysis loops and logic. ">
<polygon fill="white" stroke="black" points="0,-156.5 0,-175.5 129,-175.5 129,-156.5 0,-156.5"/>
<text text-anchor="middle" x="64.5" y="-163.5" font-family="Helvetica,sans-Serif" font-size="10.00">boca::Analysis&lt; Tagger &gt;</text>
</a>
</g>
</g>
<!-- Node3&#45;&gt;Node2 -->
<g id="edge2" class="edge"><title>Node3&#45;&gt;Node2</title>
<path fill="none" stroke="midnightblue" d="M64.5,-146.037C64.5,-137.708 64.5,-127.936 64.5,-119.542"/>
<polygon fill="midnightblue" stroke="midnightblue" points="61.0001,-146.234 64.5,-156.234 68.0001,-146.234 61.0001,-146.234"/>
</g>
<!-- Node4 -->
<g id="node4" class="node"><title>Node4</title>
<g id="a_node4"><a xlink:href="../../d7/d62/classboca_1_1AnalysisBase.html" target="_top" xlink:title="Base for all analyses. ">
<polygon fill="white" stroke="black" points="12.5,-212.5 12.5,-231.5 116.5,-231.5 116.5,-212.5 12.5,-212.5"/>
<text text-anchor="middle" x="64.5" y="-219.5" font-family="Helvetica,sans-Serif" font-size="10.00">boca::AnalysisBase</text>
</a>
</g>
</g>
<!-- Node4&#45;&gt;Node3 -->
<g id="edge3" class="edge"><title>Node4&#45;&gt;Node3</title>
<path fill="none" stroke="midnightblue" d="M64.5,-201.805C64.5,-192.91 64.5,-182.78 64.5,-175.751"/>
<polygon fill="midnightblue" stroke="midnightblue" points="61.0001,-202.083 64.5,-212.083 68.0001,-202.083 61.0001,-202.083"/>
</g>
</g>
</svg>
