<?xml version="1.0" encoding="UTF-8" standalone="no"?>
<!DOCTYPE svg PUBLIC "-//W3C//DTD SVG 1.1//EN"
 "http://www.w3.org/Graphics/SVG/1.1/DTD/svg11.dtd">
<!-- Generated by graphviz version 2.38.0 (20140413.2041)
 -->
<!-- Title: boca::naturalness::TopPartnerTopPairTagger Pages: 1 -->
<svg width="190pt" height="242pt"
 viewBox="0.00 0.00 190.00 242.00" xmlns="http://www.w3.org/2000/svg" xmlns:xlink="http://www.w3.org/1999/xlink">
<g id="graph0" class="graph" transform="scale(1 1) rotate(0) translate(4 238)">
<title>boca::naturalness::TopPartnerTopPairTagger</title>
<polygon fill="white" stroke="none" points="-4,4 -4,-238 186,-238 186,4 -4,4"/>
<!-- Node1 -->
<g id="node1" class="node"><title>Node1</title>
<polygon fill="#bfbfbf" stroke="black" points="0,-0.5 0,-30.5 128,-30.5 128,-0.5 0,-0.5"/>
<text text-anchor="start" x="8" y="-18.5" font-family="Helvetica,sans-Serif" font-size="10.00">boca::naturalness::</text>
<text text-anchor="middle" x="64" y="-7.5" font-family="Helvetica,sans-Serif" font-size="10.00">TopPartnerTopPairTagger</text>
</g>
<!-- Node2 -->
<g id="node2" class="node"><title>Node2</title>
<g id="a_node2"><a xlink:href="../../dd/d4b/classboca_1_1BranchTagger.html" target="_top" xlink:title="boca::BranchTagger\l\&lt; MultiBranch \&gt;">
<polygon fill="white" stroke="black" points="12,-68.5 12,-98.5 116,-98.5 116,-68.5 12,-68.5"/>
<text text-anchor="start" x="20" y="-86.5" font-family="Helvetica,sans-Serif" font-size="10.00">boca::BranchTagger</text>
<text text-anchor="middle" x="64" y="-75.5" font-family="Helvetica,sans-Serif" font-size="10.00">&lt; MultiBranch &gt;</text>
</a>
</g>
</g>
<!-- Node2&#45;&gt;Node1 -->
<g id="edge1" class="edge"><title>Node2&#45;&gt;Node1</title>
<path fill="none" stroke="midnightblue" d="M64,-58.0322C64,-48.8606 64,-38.7449 64,-30.7931"/>
<polygon fill="midnightblue" stroke="midnightblue" points="60.5001,-58.1789 64,-68.179 67.5001,-58.179 60.5001,-58.1789"/>
</g>
<!-- Node3 -->
<g id="node3" class="node"><title>Node3</title>
<g id="a_node3"><a xlink:href="../../da/d42/classboca_1_1Tagger.html" target="_top" xlink:title="Prepares multivariant analysis. ">
<polygon fill="white" stroke="black" points="37,-214.5 37,-233.5 111,-233.5 111,-214.5 37,-214.5"/>
<text text-anchor="middle" x="74" y="-221.5" font-family="Helvetica,sans-Serif" font-size="10.00">boca::Tagger</text>
</a>
</g>
</g>
<!-- Node3&#45;&gt;Node2 -->
<g id="edge2" class="edge"><title>Node3&#45;&gt;Node2</title>
<path fill="none" stroke="midnightblue" d="M70.6109,-204.122C69.256,-195.829 67.824,-185.959 67,-177 64.4541,-149.32 63.9791,-116.808 63.9387,-98.6362"/>
<polygon fill="midnightblue" stroke="midnightblue" points="67.203,-204.957 72.3465,-214.219 74.1018,-203.771 67.203,-204.957"/>
</g>
<!-- Node4 -->
<g id="node4" class="node"><title>Node4</title>
<g id="a_node4"><a xlink:href="../../dd/d4b/classboca_1_1BranchTagger.html" target="_top" xlink:title="Tagger base class using Branch template. ">
<polygon fill="white" stroke="black" points="76,-146.5 76,-176.5 182,-176.5 182,-146.5 76,-146.5"/>
<text text-anchor="start" x="84" y="-164.5" font-family="Helvetica,sans-Serif" font-size="10.00">boca::BranchTagger</text>
<text text-anchor="middle" x="129" y="-153.5" font-family="Helvetica,sans-Serif" font-size="10.00">&lt; BranchTemplate &gt;</text>
</a>
</g>
</g>
<!-- Node3&#45;&gt;Node4 -->
<g id="edge4" class="edge"><title>Node3&#45;&gt;Node4</title>
<path fill="none" stroke="midnightblue" d="M88.7062,-206.823C97.2198,-197.458 107.839,-185.778 116.038,-176.759"/>
<polygon fill="midnightblue" stroke="midnightblue" points="86.0171,-204.578 81.8802,-214.332 91.1967,-209.287 86.0171,-204.578"/>
</g>
<!-- Node4&#45;&gt;Node2 -->
<g id="edge3" class="edge"><title>Node4&#45;&gt;Node2</title>
<path fill="none" stroke="orange" stroke-dasharray="5,2" d="M110.019,-138.307C99.0939,-125.533 85.6891,-109.86 76.1712,-98.7309"/>
<polygon fill="orange" stroke="orange" points="107.614,-140.88 116.774,-146.205 112.934,-136.33 107.614,-140.88"/>
<text text-anchor="middle" x="136.5" y="-120" font-family="Helvetica,sans-Serif" font-size="10.00"> &lt; MultiBranch &gt;</text>
</g>
</g>
</svg>
