<?xml version="1.0" encoding="UTF-8" standalone="no"?>
<!DOCTYPE svg PUBLIC "-//W3C//DTD SVG 1.1//EN"
 "http://www.w3.org/Graphics/SVG/1.1/DTD/svg11.dtd">
<!-- Generated by graphviz version 2.38.0 (20140413.2041)
 -->
<!-- Title: heavyhiggs::tagger::EventCharged Pages: 1 -->
<svg width="245pt" height="264pt"
 viewBox="0.00 0.00 244.50 264.00" xmlns="http://www.w3.org/2000/svg" xmlns:xlink="http://www.w3.org/1999/xlink">
<g id="graph0" class="graph" transform="scale(1 1) rotate(0) translate(4 260)">
<title>heavyhiggs::tagger::EventCharged</title>
<polygon fill="white" stroke="none" points="-4,4 -4,-260 240.5,-260 240.5,4 -4,4"/>
<!-- Node1 -->
<g id="node1" class="node"><title>Node1</title>
<polygon fill="#bfbfbf" stroke="black" points="23,-0.5 23,-30.5 122,-30.5 122,-0.5 23,-0.5"/>
<text text-anchor="start" x="31" y="-18.5" font-family="Helvetica,sans-Serif" font-size="10.00">heavyhiggs::tagger</text>
<text text-anchor="middle" x="72.5" y="-7.5" font-family="Helvetica,sans-Serif" font-size="10.00">::EventCharged</text>
</g>
<!-- Node2 -->
<g id="node2" class="node"><title>Node2</title>
<g id="a_node2"><a xlink:href="../../da/d42/classboca_1_1Tagger.html" target="_top" xlink:title="boca::Tagger\&lt; EventMultiplet\l\&lt; Octet44 \&gt;, boca::branch\l::Event \&gt;">
<polygon fill="white" stroke="black" points="0,-68.5 0,-109.5 145,-109.5 145,-68.5 0,-68.5"/>
<text text-anchor="start" x="8" y="-97.5" font-family="Helvetica,sans-Serif" font-size="10.00">boca::Tagger&lt; EventMultiplet</text>
<text text-anchor="start" x="8" y="-86.5" font-family="Helvetica,sans-Serif" font-size="10.00">&lt; Octet44 &gt;, boca::branch</text>
<text text-anchor="middle" x="72.5" y="-75.5" font-family="Helvetica,sans-Serif" font-size="10.00">::Event &gt;</text>
</a>
</g>
</g>
<!-- Node2&#45;&gt;Node1 -->
<g id="edge1" class="edge"><title>Node2&#45;&gt;Node1</title>
<path fill="none" stroke="midnightblue" d="M72.5,-58.1581C72.5,-48.6872 72.5,-38.6473 72.5,-30.7972"/>
<polygon fill="midnightblue" stroke="midnightblue" points="69.0001,-58.4623 72.5,-68.4623 76.0001,-58.4623 69.0001,-58.4623"/>
</g>
<!-- Node3 -->
<g id="node3" class="node"><title>Node3</title>
<g id="a_node3"><a xlink:href="../../d8/d02/classboca_1_1tagger_1_1Base.html" target="_top" xlink:title="Prepares multivariant analysis. ">
<polygon fill="white" stroke="black" points="35,-236.5 35,-255.5 134,-255.5 134,-236.5 35,-236.5"/>
<text text-anchor="middle" x="84.5" y="-243.5" font-family="Helvetica,sans-Serif" font-size="10.00">boca::tagger::Base</text>
</a>
</g>
</g>
<!-- Node3&#45;&gt;Node2 -->
<g id="edge2" class="edge"><title>Node3&#45;&gt;Node2</title>
<path fill="none" stroke="midnightblue" d="M80.1437,-226.451C78.3731,-218.109 76.5096,-208.11 75.5,-199 72.0597,-167.954 71.8079,-131.648 72.0636,-109.759"/>
<polygon fill="midnightblue" stroke="midnightblue" points="76.737,-227.255 82.3381,-236.248 83.5677,-225.725 76.737,-227.255"/>
</g>
<!-- Node4 -->
<g id="node4" class="node"><title>Node4</title>
<g id="a_node4"><a xlink:href="../../da/d42/classboca_1_1Tagger.html" target="_top" xlink:title="Tagger base class using Branch template. ">
<polygon fill="white" stroke="black" points="85,-168.5 85,-198.5 204,-198.5 204,-168.5 85,-168.5"/>
<text text-anchor="start" x="93" y="-186.5" font-family="Helvetica,sans-Serif" font-size="10.00">boca::Tagger&lt; Multiplet</text>
<text text-anchor="middle" x="144.5" y="-175.5" font-family="Helvetica,sans-Serif" font-size="10.00">_, Branch_ &gt;</text>
</a>
</g>
</g>
<!-- Node3&#45;&gt;Node4 -->
<g id="edge4" class="edge"><title>Node3&#45;&gt;Node4</title>
<path fill="none" stroke="midnightblue" d="M100.262,-229.106C109.596,-219.694 121.324,-207.869 130.359,-198.759"/>
<polygon fill="midnightblue" stroke="midnightblue" points="97.6531,-226.767 93.0965,-236.332 102.623,-231.696 97.6531,-226.767"/>
</g>
<!-- Node4&#45;&gt;Node2 -->
<g id="edge3" class="edge"><title>Node4&#45;&gt;Node2</title>
<path fill="none" stroke="orange" stroke-dasharray="5,2" d="M127.343,-160.457C115.326,-145.02 99.4099,-124.572 87.8203,-109.682"/>
<polygon fill="orange" stroke="orange" points="124.66,-162.71 133.565,-168.451 130.184,-158.41 124.66,-162.71"/>
<text text-anchor="start" x="118.5" y="-142" font-family="Helvetica,sans-Serif" font-size="10.00"> &lt; EventMultiplet&lt; Octet44</text>
<text text-anchor="middle" x="177.5" y="-131" font-family="Helvetica,sans-Serif" font-size="10.00"> &gt;, boca::branch::Event &gt;</text>
</g>
</g>
</svg>
