<?xml version="1.0" encoding="UTF-8" standalone="no"?>
<!DOCTYPE svg PUBLIC "-//W3C//DTD SVG 1.1//EN"
 "http://www.w3.org/Graphics/SVG/1.1/DTD/svg11.dtd">
<!-- Generated by graphviz version 2.38.0 (20140413.2041)
 -->
<!-- Title: StandardModel/include/WLeptonicTagger.hh Pages: 1 -->
<svg width="3697pt" height="363pt"
 viewBox="0.00 0.00 3696.50 363.00" xmlns="http://www.w3.org/2000/svg" xmlns:xlink="http://www.w3.org/1999/xlink">
<g id="graph0" class="graph" transform="scale(1 1) rotate(0) translate(4 359)">
<title>StandardModel/include/WLeptonicTagger.hh</title>
<polygon fill="white" stroke="none" points="-4,4 -4,-359 3692.5,-359 3692.5,4 -4,4"/>
<!-- Node1 -->
<g id="node1" class="node"><title>Node1</title>
<polygon fill="#bfbfbf" stroke="black" points="1253.5,-324.5 1253.5,-354.5 1369.5,-354.5 1369.5,-324.5 1253.5,-324.5"/>
<text text-anchor="start" x="1261.5" y="-342.5" font-family="Helvetica,sans-Serif" font-size="10.00">StandardModel/include</text>
<text text-anchor="middle" x="1311.5" y="-331.5" font-family="Helvetica,sans-Serif" font-size="10.00">/WLeptonicTagger.hh</text>
</g>
<!-- Node2 -->
<g id="node2" class="node"><title>Node2</title>
<g id="a_node2"><a xlink:href="../../d0/dda/AnalysisTop_8hh.html" target="_top" xlink:title="StandardModel/include\l/AnalysisTop.hh">
<polygon fill="white" stroke="black" points="685.5,-257.5 685.5,-287.5 801.5,-287.5 801.5,-257.5 685.5,-257.5"/>
<text text-anchor="start" x="693.5" y="-275.5" font-family="Helvetica,sans-Serif" font-size="10.00">StandardModel/include</text>
<text text-anchor="middle" x="743.5" y="-264.5" font-family="Helvetica,sans-Serif" font-size="10.00">/AnalysisTop.hh</text>
</a>
</g>
</g>
<!-- Node1&#45;&gt;Node2 -->
<g id="edge1" class="edge"><title>Node1&#45;&gt;Node2</title>
<path fill="none" stroke="midnightblue" d="M1243.15,-330.678C1130.34,-317.768 907.171,-292.23 801.535,-280.141"/>
<polygon fill="midnightblue" stroke="midnightblue" points="1243.05,-334.19 1253.38,-331.849 1243.85,-327.235 1243.05,-334.19"/>
</g>
<!-- Node4 -->
<g id="node4" class="node"><title>Node4</title>
<g id="a_node4"><a xlink:href="../../d5/d88/TopLeptonicTagger_8hh.html" target="_top" xlink:title="StandardModel/include\l/TopLeptonicTagger.hh">
<polygon fill="white" stroke="black" points="1167.5,-257.5 1167.5,-287.5 1283.5,-287.5 1283.5,-257.5 1167.5,-257.5"/>
<text text-anchor="start" x="1175.5" y="-275.5" font-family="Helvetica,sans-Serif" font-size="10.00">StandardModel/include</text>
<text text-anchor="middle" x="1225.5" y="-264.5" font-family="Helvetica,sans-Serif" font-size="10.00">/TopLeptonicTagger.hh</text>
</a>
</g>
</g>
<!-- Node1&#45;&gt;Node4 -->
<g id="edge3" class="edge"><title>Node1&#45;&gt;Node4</title>
<path fill="none" stroke="midnightblue" d="M1284.6,-318.168C1271.45,-308.228 1255.95,-296.514 1244.12,-287.577"/>
<polygon fill="midnightblue" stroke="midnightblue" points="1282.75,-321.158 1292.84,-324.396 1286.97,-315.574 1282.75,-321.158"/>
</g>
<!-- Node37 -->
<g id="node37" class="node"><title>Node37</title>
<g id="a_node37"><a xlink:href="../../dd/db4/TopLeptonicTagger_8cpp.html" target="_top" xlink:title="StandardModel/source\l/TopLeptonicTagger.cpp">
<polygon fill="white" stroke="black" points="3060.5,-190.5 3060.5,-220.5 3182.5,-220.5 3182.5,-190.5 3060.5,-190.5"/>
<text text-anchor="start" x="3068.5" y="-208.5" font-family="Helvetica,sans-Serif" font-size="10.00">StandardModel/source</text>
<text text-anchor="middle" x="3121.5" y="-197.5" font-family="Helvetica,sans-Serif" font-size="10.00">/TopLeptonicTagger.cpp</text>
</a>
</g>
</g>
<!-- Node1&#45;&gt;Node37 -->
<g id="edge53" class="edge"><title>Node1&#45;&gt;Node37</title>
<path fill="none" stroke="midnightblue" d="M1309.88,-314.12C1310.1,-295.37 1313.9,-270.463 1330.5,-257 1367.64,-226.884 3003.99,-226.372 3051.5,-221 3054.34,-220.679 3057.23,-220.299 3060.14,-219.873"/>
<polygon fill="midnightblue" stroke="midnightblue" points="1306.38,-314.39 1310.09,-324.316 1313.38,-314.246 1306.38,-314.39"/>
</g>
<!-- Node49 -->
<g id="node49" class="node"><title>Node49</title>
<g id="a_node49"><a xlink:href="../../d2/d01/MainW_8cpp.html" target="_top" xlink:title="StandardModel/source\l/MainW.cpp">
<polygon fill="white" stroke="black" points="1339.5,-257.5 1339.5,-287.5 1453.5,-287.5 1453.5,-257.5 1339.5,-257.5"/>
<text text-anchor="start" x="1347.5" y="-275.5" font-family="Helvetica,sans-Serif" font-size="10.00">StandardModel/source</text>
<text text-anchor="middle" x="1396.5" y="-264.5" font-family="Helvetica,sans-Serif" font-size="10.00">/MainW.cpp</text>
</a>
</g>
</g>
<!-- Node1&#45;&gt;Node49 -->
<g id="edge52" class="edge"><title>Node1&#45;&gt;Node49</title>
<path fill="none" stroke="midnightblue" d="M1338.09,-318.168C1351.09,-308.228 1366.4,-296.514 1378.09,-287.577"/>
<polygon fill="midnightblue" stroke="midnightblue" points="1335.76,-315.541 1329.94,-324.396 1340.01,-321.102 1335.76,-315.541"/>
</g>
<!-- Node50 -->
<g id="node50" class="node"><title>Node50</title>
<g id="a_node50"><a xlink:href="../../d5/daa/WLeptonicTagger_8cpp.html" target="_top" xlink:title="StandardModel/source\l/WLeptonicTagger.cpp">
<polygon fill="white" stroke="black" points="1472,-257.5 1472,-287.5 1587,-287.5 1587,-257.5 1472,-257.5"/>
<text text-anchor="start" x="1480" y="-275.5" font-family="Helvetica,sans-Serif" font-size="10.00">StandardModel/source</text>
<text text-anchor="middle" x="1529.5" y="-264.5" font-family="Helvetica,sans-Serif" font-size="10.00">/WLeptonicTagger.cpp</text>
</a>
</g>
</g>
<!-- Node1&#45;&gt;Node50 -->
<g id="edge54" class="edge"><title>Node1&#45;&gt;Node50</title>
<path fill="none" stroke="midnightblue" d="M1368.25,-321.58C1403.66,-311.022 1448.7,-297.592 1482.17,-287.611"/>
<polygon fill="midnightblue" stroke="midnightblue" points="1367.12,-318.264 1358.53,-324.476 1369.12,-324.973 1367.12,-318.264"/>
</g>
<!-- Node3 -->
<g id="node3" class="node"><title>Node3</title>
<g id="a_node3"><a xlink:href="../../da/d4b/MainTop_8cpp.html" target="_top" xlink:title="StandardModel/source\l/MainTop.cpp">
<polygon fill="white" stroke="black" points="337.5,-190.5 337.5,-220.5 451.5,-220.5 451.5,-190.5 337.5,-190.5"/>
<text text-anchor="start" x="345.5" y="-208.5" font-family="Helvetica,sans-Serif" font-size="10.00">StandardModel/source</text>
<text text-anchor="middle" x="394.5" y="-197.5" font-family="Helvetica,sans-Serif" font-size="10.00">/MainTop.cpp</text>
</a>
</g>
</g>
<!-- Node2&#45;&gt;Node3 -->
<g id="edge2" class="edge"><title>Node2&#45;&gt;Node3</title>
<path fill="none" stroke="midnightblue" d="M675.336,-260.117C617.925,-250.343 533.689,-235.564 460.5,-221 457.623,-220.428 454.679,-219.829 451.708,-219.214"/>
<polygon fill="midnightblue" stroke="midnightblue" points="674.934,-263.599 685.379,-261.822 676.106,-256.697 674.934,-263.599"/>
</g>
<!-- Node4&#45;&gt;Node3 -->
<g id="edge39" class="edge"><title>Node4&#45;&gt;Node3</title>
<path fill="none" stroke="midnightblue" d="M1156.99,-270.425C1022.72,-267.558 715.761,-257.255 460.5,-221 457.596,-220.588 454.63,-220.117 451.642,-219.605"/>
<polygon fill="midnightblue" stroke="midnightblue" points="1157.06,-273.927 1167.13,-270.634 1157.21,-266.928 1157.06,-273.927"/>
</g>
<!-- Node5 -->
<g id="node5" class="node"><title>Node5</title>
<g id="a_node5"><a xlink:href="../../dd/dec/ChargedHiggsLeptonicTagger_8hh.html" target="_top" xlink:title="HeavyHiggs/include\l/ChargedHiggsLeptonicTagger.hh">
<polygon fill="white" stroke="black" points="469.5,-190.5 469.5,-220.5 631.5,-220.5 631.5,-190.5 469.5,-190.5"/>
<text text-anchor="start" x="477.5" y="-208.5" font-family="Helvetica,sans-Serif" font-size="10.00">HeavyHiggs/include</text>
<text text-anchor="middle" x="550.5" y="-197.5" font-family="Helvetica,sans-Serif" font-size="10.00">/ChargedHiggsLeptonicTagger.hh</text>
</a>
</g>
</g>
<!-- Node4&#45;&gt;Node5 -->
<g id="edge4" class="edge"><title>Node4&#45;&gt;Node5</title>
<path fill="none" stroke="midnightblue" d="M1156.99,-267.228C1047.57,-260.036 826.718,-244.007 640.5,-221 637.673,-220.651 634.798,-220.279 631.897,-219.889"/>
<polygon fill="midnightblue" stroke="midnightblue" points="1157.02,-270.737 1167.23,-267.897 1157.48,-263.752 1157.02,-270.737"/>
</g>
<!-- Node7 -->
<g id="node7" class="node"><title>Node7</title>
<g id="a_node7"><a xlink:href="../../df/d6f/ChargedHiggsSemiTagger_8hh.html" target="_top" xlink:title="HeavyHiggs/include\l/ChargedHiggsSemiTagger.hh">
<polygon fill="white" stroke="black" points="649.5,-190.5 649.5,-220.5 797.5,-220.5 797.5,-190.5 649.5,-190.5"/>
<text text-anchor="start" x="657.5" y="-208.5" font-family="Helvetica,sans-Serif" font-size="10.00">HeavyHiggs/include</text>
<text text-anchor="middle" x="723.5" y="-197.5" font-family="Helvetica,sans-Serif" font-size="10.00">/ChargedHiggsSemiTagger.hh</text>
</a>
</g>
</g>
<!-- Node4&#45;&gt;Node7 -->
<g id="edge6" class="edge"><title>Node4&#45;&gt;Node7</title>
<path fill="none" stroke="midnightblue" d="M1157.36,-264.41C1074.32,-255.511 929.836,-239.193 806.5,-221 803.606,-220.573 800.657,-220.124 797.68,-219.66"/>
<polygon fill="midnightblue" stroke="midnightblue" points="1157.1,-267.903 1167.42,-265.484 1157.85,-260.942 1157.1,-267.903"/>
</g>
<!-- Node12 -->
<g id="node12" class="node"><title>Node12</title>
<g id="a_node12"><a xlink:href="../../d5/dae/HeavyHiggsSemiTagger_8hh.html" target="_top" xlink:title="HeavyHiggs/include\l/HeavyHiggsSemiTagger.hh">
<polygon fill="white" stroke="black" points="815.5,-190.5 815.5,-220.5 955.5,-220.5 955.5,-190.5 815.5,-190.5"/>
<text text-anchor="start" x="823.5" y="-208.5" font-family="Helvetica,sans-Serif" font-size="10.00">HeavyHiggs/include</text>
<text text-anchor="middle" x="885.5" y="-197.5" font-family="Helvetica,sans-Serif" font-size="10.00">/HeavyHiggsSemiTagger.hh</text>
</a>
</g>
</g>
<!-- Node4&#45;&gt;Node12 -->
<g id="edge11" class="edge"><title>Node4&#45;&gt;Node12</title>
<path fill="none" stroke="midnightblue" d="M1157.55,-258.509C1099.01,-247.318 1014.85,-231.229 955.678,-219.916"/>
<polygon fill="midnightblue" stroke="midnightblue" points="1156.96,-261.96 1167.44,-260.4 1158.27,-255.084 1156.96,-261.96"/>
</g>
<!-- Node21 -->
<g id="node21" class="node"><title>Node21</title>
<g id="a_node21"><a xlink:href="../../d0/d0d/HeavyHiggsLeptonicTagger_8hh.html" target="_top" xlink:title="HeavyHiggs/include\l/HeavyHiggsLeptonicTagger.hh">
<polygon fill="white" stroke="black" points="986.5,-190.5 986.5,-220.5 1140.5,-220.5 1140.5,-190.5 986.5,-190.5"/>
<text text-anchor="start" x="994.5" y="-208.5" font-family="Helvetica,sans-Serif" font-size="10.00">HeavyHiggs/include</text>
<text text-anchor="middle" x="1063.5" y="-197.5" font-family="Helvetica,sans-Serif" font-size="10.00">/HeavyHiggsLeptonicTagger.hh</text>
</a>
</g>
</g>
<!-- Node4&#45;&gt;Node21 -->
<g id="edge20" class="edge"><title>Node4&#45;&gt;Node21</title>
<path fill="none" stroke="midnightblue" d="M1180.75,-253.544C1154.83,-243.143 1122.66,-230.238 1098.58,-220.577"/>
<polygon fill="midnightblue" stroke="midnightblue" points="1179.76,-256.92 1190.35,-257.396 1182.37,-250.424 1179.76,-256.92"/>
</g>
<!-- Node23 -->
<g id="node23" class="node"><title>Node23</title>
<g id="a_node23"><a xlink:href="../../dc/d70/AnalysisHiggsCpv_8hh.html" target="_top" xlink:title="HiggsCpv/include/Analysis\lHiggsCpv.hh">
<polygon fill="white" stroke="black" points="1158.5,-190.5 1158.5,-220.5 1292.5,-220.5 1292.5,-190.5 1158.5,-190.5"/>
<text text-anchor="start" x="1166.5" y="-208.5" font-family="Helvetica,sans-Serif" font-size="10.00">HiggsCpv/include/Analysis</text>
<text text-anchor="middle" x="1225.5" y="-197.5" font-family="Helvetica,sans-Serif" font-size="10.00">HiggsCpv.hh</text>
</a>
</g>
</g>
<!-- Node4&#45;&gt;Node23 -->
<g id="edge22" class="edge"><title>Node4&#45;&gt;Node23</title>
<path fill="none" stroke="midnightblue" d="M1225.5,-247.108C1225.5,-238.154 1225.5,-228.323 1225.5,-220.577"/>
<polygon fill="midnightblue" stroke="midnightblue" points="1222,-247.396 1225.5,-257.396 1229,-247.396 1222,-247.396"/>
</g>
<!-- Node25 -->
<g id="node25" class="node"><title>Node25</title>
<g id="a_node25"><a xlink:href="../../df/d70/TopLeptonicPairTagger_8hh.html" target="_top" xlink:title="HiggsCpv/include/TopLeptonic\lPairTagger.hh">
<polygon fill="white" stroke="black" points="1427.5,-190.5 1427.5,-220.5 1577.5,-220.5 1577.5,-190.5 1427.5,-190.5"/>
<text text-anchor="start" x="1435.5" y="-208.5" font-family="Helvetica,sans-Serif" font-size="10.00">HiggsCpv/include/TopLeptonic</text>
<text text-anchor="middle" x="1502.5" y="-197.5" font-family="Helvetica,sans-Serif" font-size="10.00">PairTagger.hh</text>
</a>
</g>
</g>
<!-- Node4&#45;&gt;Node25 -->
<g id="edge24" class="edge"><title>Node4&#45;&gt;Node25</title>
<path fill="none" stroke="midnightblue" d="M1293.38,-255.571C1339.05,-244.855 1398.69,-230.859 1442.6,-220.557"/>
<polygon fill="midnightblue" stroke="midnightblue" points="1292.5,-252.182 1283.57,-257.874 1294.1,-258.997 1292.5,-252.182"/>
</g>
<!-- Node35 -->
<g id="node35" class="node"><title>Node35</title>
<g id="a_node35"><a xlink:href="../../d3/d9b/TopSemiPairTagger_8hh.html" target="_top" xlink:title="HiggsCpv/include/TopSemi\lPairTagger.hh">
<polygon fill="white" stroke="black" points="1836.5,-190.5 1836.5,-220.5 1972.5,-220.5 1972.5,-190.5 1836.5,-190.5"/>
<text text-anchor="start" x="1844.5" y="-208.5" font-family="Helvetica,sans-Serif" font-size="10.00">HiggsCpv/include/TopSemi</text>
<text text-anchor="middle" x="1904.5" y="-197.5" font-family="Helvetica,sans-Serif" font-size="10.00">PairTagger.hh</text>
</a>
</g>
</g>
<!-- Node4&#45;&gt;Node35 -->
<g id="edge37" class="edge"><title>Node4&#45;&gt;Node35</title>
<path fill="none" stroke="midnightblue" d="M1293.63,-257.568C1294.93,-257.371 1296.22,-257.181 1297.5,-257 1491.98,-229.422 1723.81,-215.277 1836.39,-209.591"/>
<polygon fill="midnightblue" stroke="midnightblue" points="1292.87,-254.146 1283.56,-259.208 1293.99,-261.056 1292.87,-254.146"/>
</g>
<!-- Node4&#45;&gt;Node37 -->
<g id="edge40" class="edge"><title>Node4&#45;&gt;Node37</title>
<path fill="none" stroke="midnightblue" d="M1293.62,-257.457C1294.92,-257.294 1296.22,-257.141 1297.5,-257 2072.54,-171.693 2276.7,-308.447 3051.5,-221 3054.34,-220.68 3057.23,-220.3 3060.14,-219.874"/>
<polygon fill="midnightblue" stroke="midnightblue" points="1292.93,-254.02 1283.52,-258.892 1293.91,-260.951 1292.93,-254.02"/>
</g>
<!-- Node38 -->
<g id="node38" class="node"><title>Node38</title>
<g id="a_node38"><a xlink:href="../../de/d4f/VetoTopPartnerLeptonicTagger_8hh.html" target="_top" xlink:title="TopPartner/include\l/VetoTopPartnerLeptonicTagger.hh">
<polygon fill="white" stroke="black" points="2260.5,-190.5 2260.5,-220.5 2428.5,-220.5 2428.5,-190.5 2260.5,-190.5"/>
<text text-anchor="start" x="2268.5" y="-208.5" font-family="Helvetica,sans-Serif" font-size="10.00">TopPartner/include</text>
<text text-anchor="middle" x="2344.5" y="-197.5" font-family="Helvetica,sans-Serif" font-size="10.00">/VetoTopPartnerLeptonicTagger.hh</text>
</a>
</g>
</g>
<!-- Node4&#45;&gt;Node38 -->
<g id="edge41" class="edge"><title>Node4&#45;&gt;Node38</title>
<path fill="none" stroke="midnightblue" d="M1293.63,-257.506C1294.93,-257.328 1296.22,-257.159 1297.5,-257 1391.75,-245.304 2028.47,-219.104 2260.3,-209.831"/>
<polygon fill="midnightblue" stroke="midnightblue" points="1292.9,-254.076 1283.54,-259.032 1293.95,-260.997 1292.9,-254.076"/>
</g>
<!-- Node42 -->
<g id="node42" class="node"><title>Node42</title>
<g id="a_node42"><a xlink:href="../../d2/d88/TopPartnerLeptonicTagger_8hh.html" target="_top" xlink:title="TopPartner/include\l/TopPartnerLeptonicTagger.hh">
<polygon fill="white" stroke="black" points="2894.5,-190.5 2894.5,-220.5 3042.5,-220.5 3042.5,-190.5 2894.5,-190.5"/>
<text text-anchor="start" x="2902.5" y="-208.5" font-family="Helvetica,sans-Serif" font-size="10.00">TopPartner/include</text>
<text text-anchor="middle" x="2968.5" y="-197.5" font-family="Helvetica,sans-Serif" font-size="10.00">/TopPartnerLeptonicTagger.hh</text>
</a>
</g>
</g>
<!-- Node4&#45;&gt;Node42 -->
<g id="edge45" class="edge"><title>Node4&#45;&gt;Node42</title>
<path fill="none" stroke="midnightblue" d="M1293.62,-257.474C1294.92,-257.306 1296.22,-257.147 1297.5,-257 1337.69,-252.38 2575.82,-217.489 2894.36,-208.571"/>
<polygon fill="midnightblue" stroke="midnightblue" points="1292.92,-254.04 1283.53,-258.941 1293.92,-260.967 1292.92,-254.04"/>
</g>
<!-- Node6 -->
<g id="node6" class="node"><title>Node6</title>
<g id="a_node6"><a xlink:href="../../d5/d8c/ChargedHiggsLeptonicTagger_8cpp.html" target="_top" xlink:title="HeavyHiggs/source/Charged\lHiggsLeptonicTagger.cpp">
<polygon fill="white" stroke="black" points="9,-123.5 9,-153.5 152,-153.5 152,-123.5 9,-123.5"/>
<text text-anchor="start" x="17" y="-141.5" font-family="Helvetica,sans-Serif" font-size="10.00">HeavyHiggs/source/Charged</text>
<text text-anchor="middle" x="80.5" y="-130.5" font-family="Helvetica,sans-Serif" font-size="10.00">HiggsLeptonicTagger.cpp</text>
</a>
</g>
</g>
<!-- Node5&#45;&gt;Node6 -->
<g id="edge5" class="edge"><title>Node5&#45;&gt;Node6</title>
<path fill="none" stroke="midnightblue" d="M458.907,-189.814C325.786,-171.433 290.053,-173.496 160.5,-154 157.848,-153.601 155.149,-153.181 152.424,-152.746"/>
<polygon fill="midnightblue" stroke="midnightblue" points="458.7,-193.319 469.087,-191.233 459.666,-186.386 458.7,-193.319"/>
</g>
<!-- Node8 -->
<g id="node8" class="node"><title>Node8</title>
<g id="a_node8"><a xlink:href="../../dd/d61/SignatureChargedTagger_8hh.html" target="_top" xlink:title="HeavyHiggs/include\l/SignatureChargedTagger.hh">
<polygon fill="white" stroke="black" points="170,-123.5 170,-153.5 311,-153.5 311,-123.5 170,-123.5"/>
<text text-anchor="start" x="178" y="-141.5" font-family="Helvetica,sans-Serif" font-size="10.00">HeavyHiggs/include</text>
<text text-anchor="middle" x="240.5" y="-130.5" font-family="Helvetica,sans-Serif" font-size="10.00">/SignatureChargedTagger.hh</text>
</a>
</g>
</g>
<!-- Node7&#45;&gt;Node8 -->
<g id="edge7" class="edge"><title>Node7&#45;&gt;Node8</title>
<path fill="none" stroke="midnightblue" d="M639.259,-189.862C507.71,-170.607 472.702,-170.732 344.5,-154 333.744,-152.596 322.37,-151.062 311.246,-149.533"/>
<polygon fill="midnightblue" stroke="midnightblue" points="638.916,-193.349 649.319,-191.344 639.936,-186.424 638.916,-193.349"/>
</g>
<!-- Node11 -->
<g id="node11" class="node"><title>Node11</title>
<g id="a_node11"><a xlink:href="../../df/d31/ChargedHiggsSemiTagger_8cpp.html" target="_top" xlink:title="HeavyHiggs/source/Charged\lHiggsSemiTagger.cpp">
<polygon fill="white" stroke="black" points="354,-123.5 354,-153.5 497,-153.5 497,-123.5 354,-123.5"/>
<text text-anchor="start" x="362" y="-141.5" font-family="Helvetica,sans-Serif" font-size="10.00">HeavyHiggs/source/Charged</text>
<text text-anchor="middle" x="425.5" y="-130.5" font-family="Helvetica,sans-Serif" font-size="10.00">HiggsSemiTagger.cpp</text>
</a>
</g>
</g>
<!-- Node7&#45;&gt;Node11 -->
<g id="edge10" class="edge"><title>Node7&#45;&gt;Node11</title>
<path fill="none" stroke="midnightblue" d="M649.301,-188.316C600.325,-177.633 536.791,-163.775 489.936,-153.555"/>
<polygon fill="midnightblue" stroke="midnightblue" points="648.689,-191.764 659.205,-190.476 650.181,-184.925 648.689,-191.764"/>
</g>
<!-- Node9 -->
<g id="node9" class="node"><title>Node9</title>
<g id="a_node9"><a xlink:href="../../da/df5/EventChargedTagger_8hh.html" target="_top" xlink:title="HeavyHiggs/include\l/EventChargedTagger.hh">
<polygon fill="white" stroke="red" points="0,-56.5 0,-86.5 125,-86.5 125,-56.5 0,-56.5"/>
<text text-anchor="start" x="8" y="-74.5" font-family="Helvetica,sans-Serif" font-size="10.00">HeavyHiggs/include</text>
<text text-anchor="middle" x="62.5" y="-63.5" font-family="Helvetica,sans-Serif" font-size="10.00">/EventChargedTagger.hh</text>
</a>
</g>
</g>
<!-- Node8&#45;&gt;Node9 -->
<g id="edge8" class="edge"><title>Node8&#45;&gt;Node9</title>
<path fill="none" stroke="midnightblue" d="M192.454,-119.955C163.781,-109.485 127.855,-96.3656 101.048,-86.5765"/>
<polygon fill="midnightblue" stroke="midnightblue" points="191.283,-123.253 201.877,-123.396 193.684,-116.678 191.283,-123.253"/>
</g>
<!-- Node10 -->
<g id="node10" class="node"><title>Node10</title>
<g id="a_node10"><a xlink:href="../../da/d27/SignatureChargedTagger_8cpp.html" target="_top" xlink:title="HeavyHiggs/source/Signature\lChargedTagger.cpp">
<polygon fill="white" stroke="black" points="143,-56.5 143,-86.5 290,-86.5 290,-56.5 143,-56.5"/>
<text text-anchor="start" x="151" y="-74.5" font-family="Helvetica,sans-Serif" font-size="10.00">HeavyHiggs/source/Signature</text>
<text text-anchor="middle" x="216.5" y="-63.5" font-family="Helvetica,sans-Serif" font-size="10.00">ChargedTagger.cpp</text>
</a>
</g>
</g>
<!-- Node8&#45;&gt;Node10 -->
<g id="edge9" class="edge"><title>Node8&#45;&gt;Node10</title>
<path fill="none" stroke="midnightblue" d="M231.82,-113.991C228.428,-104.804 224.652,-94.5781 221.697,-86.5765"/>
<polygon fill="midnightblue" stroke="midnightblue" points="228.545,-115.227 235.292,-123.396 235.112,-112.803 228.545,-115.227"/>
</g>
<!-- Node13 -->
<g id="node13" class="node"><title>Node13</title>
<g id="a_node13"><a xlink:href="../../dd/d94/EventFusionTagger_8hh.html" target="_top" xlink:title="HeavyHiggs/include\l/EventFusionTagger.hh">
<polygon fill="white" stroke="black" points="515.5,-123.5 515.5,-153.5 633.5,-153.5 633.5,-123.5 515.5,-123.5"/>
<text text-anchor="start" x="523.5" y="-141.5" font-family="Helvetica,sans-Serif" font-size="10.00">HeavyHiggs/include</text>
<text text-anchor="middle" x="574.5" y="-130.5" font-family="Helvetica,sans-Serif" font-size="10.00">/EventFusionTagger.hh</text>
</a>
</g>
</g>
<!-- Node12&#45;&gt;Node13 -->
<g id="edge12" class="edge"><title>Node12&#45;&gt;Node13</title>
<path fill="none" stroke="midnightblue" d="M807.709,-188.441C760.012,-178.567 697.709,-165.623 642.5,-154 639.665,-153.403 636.764,-152.791 633.834,-152.171"/>
<polygon fill="midnightblue" stroke="midnightblue" points="807.156,-191.9 817.658,-190.499 808.574,-185.045 807.156,-191.9"/>
</g>
<!-- Node16 -->
<g id="node16" class="node"><title>Node16</title>
<g id="a_node16"><a xlink:href="../../d4/df4/SignatureNeutralTagger_8hh.html" target="_top" xlink:title="HeavyHiggs/include\l/SignatureNeutralTagger.hh">
<polygon fill="white" stroke="black" points="651.5,-123.5 651.5,-153.5 787.5,-153.5 787.5,-123.5 651.5,-123.5"/>
<text text-anchor="start" x="659.5" y="-141.5" font-family="Helvetica,sans-Serif" font-size="10.00">HeavyHiggs/include</text>
<text text-anchor="middle" x="719.5" y="-130.5" font-family="Helvetica,sans-Serif" font-size="10.00">/SignatureNeutralTagger.hh</text>
</a>
</g>
</g>
<!-- Node12&#45;&gt;Node16 -->
<g id="edge15" class="edge"><title>Node12&#45;&gt;Node16</title>
<path fill="none" stroke="midnightblue" d="M839.994,-186.682C813.371,-176.257 780.232,-163.281 755.449,-153.577"/>
<polygon fill="midnightblue" stroke="midnightblue" points="838.893,-190.009 849.48,-190.396 841.445,-183.491 838.893,-190.009"/>
</g>
<!-- Node20 -->
<g id="node20" class="node"><title>Node20</title>
<g id="a_node20"><a xlink:href="../../d7/d28/HeavyHiggsSemiTagger_8cpp.html" target="_top" xlink:title="HeavyHiggs/source/HeavyHiggs\lSemiTagger.cpp">
<polygon fill="white" stroke="black" points="805.5,-123.5 805.5,-153.5 965.5,-153.5 965.5,-123.5 805.5,-123.5"/>
<text text-anchor="start" x="813.5" y="-141.5" font-family="Helvetica,sans-Serif" font-size="10.00">HeavyHiggs/source/HeavyHiggs</text>
<text text-anchor="middle" x="885.5" y="-130.5" font-family="Helvetica,sans-Serif" font-size="10.00">SemiTagger.cpp</text>
</a>
</g>
</g>
<!-- Node12&#45;&gt;Node20 -->
<g id="edge19" class="edge"><title>Node12&#45;&gt;Node20</title>
<path fill="none" stroke="midnightblue" d="M885.5,-180.108C885.5,-171.154 885.5,-161.323 885.5,-153.577"/>
<polygon fill="midnightblue" stroke="midnightblue" points="882,-180.396 885.5,-190.396 889,-180.396 882,-180.396"/>
</g>
<!-- Node14 -->
<g id="node14" class="node"><title>Node14</title>
<g id="a_node14"><a xlink:href="../../d2/d1b/EventFusionTagger_8cpp.html" target="_top" xlink:title="HeavyHiggs/source/EventFusion\lTagger.cpp">
<polygon fill="white" stroke="black" points="308,-56.5 308,-86.5 469,-86.5 469,-56.5 308,-56.5"/>
<text text-anchor="start" x="316" y="-74.5" font-family="Helvetica,sans-Serif" font-size="10.00">HeavyHiggs/source/EventFusion</text>
<text text-anchor="middle" x="388.5" y="-63.5" font-family="Helvetica,sans-Serif" font-size="10.00">Tagger.cpp</text>
</a>
</g>
</g>
<!-- Node13&#45;&gt;Node14 -->
<g id="edge13" class="edge"><title>Node13&#45;&gt;Node14</title>
<path fill="none" stroke="midnightblue" d="M524.685,-120.092C494.66,-109.599 456.914,-96.4082 428.78,-86.5765"/>
<polygon fill="midnightblue" stroke="midnightblue" points="523.546,-123.401 534.141,-123.396 525.855,-116.793 523.546,-123.401"/>
</g>
<!-- Node15 -->
<g id="node15" class="node"><title>Node15</title>
<g id="a_node15"><a xlink:href="../../d5/d90/MainFusion_8cpp.html" target="_top" xlink:title="HeavyHiggs/source/MainFusion.cpp">
<polygon fill="white" stroke="black" points="487,-62 487,-81 662,-81 662,-62 487,-62"/>
<text text-anchor="middle" x="574.5" y="-69" font-family="Helvetica,sans-Serif" font-size="10.00">HeavyHiggs/source/MainFusion.cpp</text>
</a>
</g>
</g>
<!-- Node13&#45;&gt;Node15 -->
<g id="edge14" class="edge"><title>Node13&#45;&gt;Node15</title>
<path fill="none" stroke="midnightblue" d="M574.5,-113.25C574.5,-102.017 574.5,-89.3767 574.5,-81.1945"/>
<polygon fill="midnightblue" stroke="midnightblue" points="571,-113.396 574.5,-123.396 578,-113.396 571,-113.396"/>
</g>
<!-- Node17 -->
<g id="node17" class="node"><title>Node17</title>
<g id="a_node17"><a xlink:href="../../db/db0/EventNeutralFourTopTagger_8hh.html" target="_top" xlink:title="HeavyHiggs/include\l/EventNeutralFourTopTagger.hh">
<polygon fill="white" stroke="red" points="680.5,-56.5 680.5,-86.5 836.5,-86.5 836.5,-56.5 680.5,-56.5"/>
<text text-anchor="start" x="688.5" y="-74.5" font-family="Helvetica,sans-Serif" font-size="10.00">HeavyHiggs/include</text>
<text text-anchor="middle" x="758.5" y="-63.5" font-family="Helvetica,sans-Serif" font-size="10.00">/EventNeutralFourTopTagger.hh</text>
</a>
</g>
</g>
<!-- Node16&#45;&gt;Node17 -->
<g id="edge16" class="edge"><title>Node16&#45;&gt;Node17</title>
<path fill="none" stroke="midnightblue" d="M733.255,-114.576C738.856,-105.241 745.151,-94.7483 750.054,-86.5765"/>
<polygon fill="midnightblue" stroke="midnightblue" points="730.106,-113.02 727.962,-123.396 736.109,-116.622 730.106,-113.02"/>
</g>
<!-- Node18 -->
<g id="node18" class="node"><title>Node18</title>
<g id="a_node18"><a xlink:href="../../d0/dfb/EventNeutralTagger_8hh.html" target="_top" xlink:title="HeavyHiggs/include\l/EventNeutralTagger.hh">
<polygon fill="white" stroke="red" points="854.5,-56.5 854.5,-86.5 974.5,-86.5 974.5,-56.5 854.5,-56.5"/>
<text text-anchor="start" x="862.5" y="-74.5" font-family="Helvetica,sans-Serif" font-size="10.00">HeavyHiggs/include</text>
<text text-anchor="middle" x="914.5" y="-63.5" font-family="Helvetica,sans-Serif" font-size="10.00">/EventNeutralTagger.hh</text>
</a>
</g>
</g>
<!-- Node16&#45;&gt;Node18 -->
<g id="edge17" class="edge"><title>Node16&#45;&gt;Node18</title>
<path fill="none" stroke="midnightblue" d="M771.317,-120.228C802.861,-109.713 842.648,-96.4508 872.27,-86.5765"/>
<polygon fill="midnightblue" stroke="midnightblue" points="770.192,-116.913 761.812,-123.396 772.406,-123.554 770.192,-116.913"/>
</g>
<!-- Node19 -->
<g id="node19" class="node"><title>Node19</title>
<g id="a_node19"><a xlink:href="../../de/da6/SignatureNeutralTagger_8cpp.html" target="_top" xlink:title="HeavyHiggs/source/Signature\lNeutralTagger.cpp">
<polygon fill="white" stroke="black" points="993,-56.5 993,-86.5 1140,-86.5 1140,-56.5 993,-56.5"/>
<text text-anchor="start" x="1001" y="-74.5" font-family="Helvetica,sans-Serif" font-size="10.00">HeavyHiggs/source/Signature</text>
<text text-anchor="middle" x="1066.5" y="-63.5" font-family="Helvetica,sans-Serif" font-size="10.00">NeutralTagger.cpp</text>
</a>
</g>
</g>
<!-- Node16&#45;&gt;Node19 -->
<g id="edge18" class="edge"><title>Node16&#45;&gt;Node19</title>
<path fill="none" stroke="midnightblue" d="M797.682,-122.779C869.691,-109.269 941.02,-95.9321 992.867,-86.2468"/>
<polygon fill="midnightblue" stroke="midnightblue" points="796.702,-119.402 787.519,-124.686 797.993,-126.282 796.702,-119.402"/>
</g>
<!-- Node22 -->
<g id="node22" class="node"><title>Node22</title>
<g id="a_node22"><a xlink:href="../../d8/dce/HeavyHiggsLeptonicTagger_8cpp.html" target="_top" xlink:title="HeavyHiggs/source/HeavyHiggs\lLeptonicTagger.cpp">
<polygon fill="white" stroke="black" points="983.5,-123.5 983.5,-153.5 1143.5,-153.5 1143.5,-123.5 983.5,-123.5"/>
<text text-anchor="start" x="991.5" y="-141.5" font-family="Helvetica,sans-Serif" font-size="10.00">HeavyHiggs/source/HeavyHiggs</text>
<text text-anchor="middle" x="1063.5" y="-130.5" font-family="Helvetica,sans-Serif" font-size="10.00">LeptonicTagger.cpp</text>
</a>
</g>
</g>
<!-- Node21&#45;&gt;Node22 -->
<g id="edge21" class="edge"><title>Node21&#45;&gt;Node22</title>
<path fill="none" stroke="midnightblue" d="M1063.5,-180.108C1063.5,-171.154 1063.5,-161.323 1063.5,-153.577"/>
<polygon fill="midnightblue" stroke="midnightblue" points="1060,-180.396 1063.5,-190.396 1067,-180.396 1060,-180.396"/>
</g>
<!-- Node24 -->
<g id="node24" class="node"><title>Node24</title>
<g id="a_node24"><a xlink:href="../../df/d0a/main_8cpp.html" target="_top" xlink:title="HiggsCpv/source/main.cpp">
<polygon fill="white" stroke="black" points="1194,-0.5 1194,-19.5 1329,-19.5 1329,-0.5 1194,-0.5"/>
<text text-anchor="middle" x="1261.5" y="-7.5" font-family="Helvetica,sans-Serif" font-size="10.00">HiggsCpv/source/main.cpp</text>
</a>
</g>
</g>
<!-- Node23&#45;&gt;Node24 -->
<g id="edge23" class="edge"><title>Node23&#45;&gt;Node24</title>
<path fill="none" stroke="midnightblue" d="M1205.79,-182.302C1199.65,-174.005 1193.67,-164.125 1190.5,-154 1186.39,-140.85 1187.54,-136.456 1190.5,-123 1197.55,-90.9565 1203.52,-83.445 1221.5,-56 1230.55,-42.1855 1243.67,-28.2818 1252.38,-19.6613"/>
<polygon fill="midnightblue" stroke="midnightblue" points="1203.19,-184.648 1212.14,-190.319 1208.68,-180.305 1203.19,-184.648"/>
</g>
<!-- Node26 -->
<g id="node26" class="node"><title>Node26</title>
<g id="a_node26"><a xlink:href="../../d9/de2/SignatureLeptonTTagger_8hh.html" target="_top" xlink:title="HiggsCpv/include/Signature\lLeptonTTagger.hh">
<polygon fill="white" stroke="black" points="1199.5,-123.5 1199.5,-153.5 1337.5,-153.5 1337.5,-123.5 1199.5,-123.5"/>
<text text-anchor="start" x="1207.5" y="-141.5" font-family="Helvetica,sans-Serif" font-size="10.00">HiggsCpv/include/Signature</text>
<text text-anchor="middle" x="1268.5" y="-130.5" font-family="Helvetica,sans-Serif" font-size="10.00">LeptonTTagger.hh</text>
</a>
</g>
</g>
<!-- Node25&#45;&gt;Node26 -->
<g id="edge25" class="edge"><title>Node25&#45;&gt;Node26</title>
<path fill="none" stroke="midnightblue" d="M1442.07,-187.715C1403.99,-177.137 1355.39,-163.635 1319.3,-153.611"/>
<polygon fill="midnightblue" stroke="midnightblue" points="1441.44,-191.172 1452.01,-190.476 1443.32,-184.427 1441.44,-191.172"/>
</g>
<!-- Node29 -->
<g id="node29" class="node"><title>Node29</title>
<g id="a_node29"><a xlink:href="../../d1/d44/SignatureTagger_8hh.html" target="_top" xlink:title="HiggsCpv/include/Signature\lTagger.hh">
<polygon fill="white" stroke="black" points="1355.5,-123.5 1355.5,-153.5 1493.5,-153.5 1493.5,-123.5 1355.5,-123.5"/>
<text text-anchor="start" x="1363.5" y="-141.5" font-family="Helvetica,sans-Serif" font-size="10.00">HiggsCpv/include/Signature</text>
<text text-anchor="middle" x="1424.5" y="-130.5" font-family="Helvetica,sans-Serif" font-size="10.00">Tagger.hh</text>
</a>
</g>
</g>
<!-- Node25&#45;&gt;Node29 -->
<g id="edge30" class="edge"><title>Node25&#45;&gt;Node29</title>
<path fill="none" stroke="midnightblue" d="M1477.76,-183.883C1465.91,-174.005 1452.02,-162.429 1441.39,-153.577"/>
<polygon fill="midnightblue" stroke="midnightblue" points="1475.65,-186.683 1485.58,-190.396 1480.13,-181.305 1475.65,-186.683"/>
</g>
<!-- Node32 -->
<g id="node32" class="node"><title>Node32</title>
<g id="a_node32"><a xlink:href="../../d6/dfb/SignatureTTagger_8hh.html" target="_top" xlink:title="HiggsCpv/include/Signature\lTTagger.hh">
<polygon fill="white" stroke="red" points="1511.5,-123.5 1511.5,-153.5 1649.5,-153.5 1649.5,-123.5 1511.5,-123.5"/>
<text text-anchor="start" x="1519.5" y="-141.5" font-family="Helvetica,sans-Serif" font-size="10.00">HiggsCpv/include/Signature</text>
<text text-anchor="middle" x="1580.5" y="-130.5" font-family="Helvetica,sans-Serif" font-size="10.00">TTagger.hh</text>
</a>
</g>
</g>
<!-- Node25&#45;&gt;Node32 -->
<g id="edge34" class="edge"><title>Node25&#45;&gt;Node32</title>
<path fill="none" stroke="midnightblue" d="M1527.24,-183.883C1539.09,-174.005 1552.98,-162.429 1563.61,-153.577"/>
<polygon fill="midnightblue" stroke="midnightblue" points="1524.87,-181.305 1519.42,-190.396 1529.35,-186.683 1524.87,-181.305"/>
</g>
<!-- Node33 -->
<g id="node33" class="node"><title>Node33</title>
<g id="a_node33"><a xlink:href="../../d9/d75/SignatureLeptonTagger_8hh.html" target="_top" xlink:title="HiggsCpv/include/Signature\lLeptonTagger.hh">
<polygon fill="white" stroke="red" points="1667.5,-123.5 1667.5,-153.5 1805.5,-153.5 1805.5,-123.5 1667.5,-123.5"/>
<text text-anchor="start" x="1675.5" y="-141.5" font-family="Helvetica,sans-Serif" font-size="10.00">HiggsCpv/include/Signature</text>
<text text-anchor="middle" x="1736.5" y="-130.5" font-family="Helvetica,sans-Serif" font-size="10.00">LeptonTagger.hh</text>
</a>
</g>
</g>
<!-- Node25&#45;&gt;Node33 -->
<g id="edge35" class="edge"><title>Node25&#45;&gt;Node33</title>
<path fill="none" stroke="midnightblue" d="M1562.93,-187.715C1601.01,-177.137 1649.61,-163.635 1685.7,-153.611"/>
<polygon fill="midnightblue" stroke="midnightblue" points="1561.68,-184.427 1552.99,-190.476 1563.56,-191.172 1561.68,-184.427"/>
</g>
<!-- Node34 -->
<g id="node34" class="node"><title>Node34</title>
<g id="a_node34"><a xlink:href="../../d4/db4/TopLeptonicPairTagger_8cpp.html" target="_top" xlink:title="HiggsCpv/source/TopLeptonic\lPairTagger.cpp">
<polygon fill="white" stroke="black" points="1824,-123.5 1824,-153.5 1973,-153.5 1973,-123.5 1824,-123.5"/>
<text text-anchor="start" x="1832" y="-141.5" font-family="Helvetica,sans-Serif" font-size="10.00">HiggsCpv/source/TopLeptonic</text>
<text text-anchor="middle" x="1898.5" y="-130.5" font-family="Helvetica,sans-Serif" font-size="10.00">PairTagger.cpp</text>
</a>
</g>
</g>
<!-- Node25&#45;&gt;Node34 -->
<g id="edge36" class="edge"><title>Node25&#45;&gt;Node34</title>
<path fill="none" stroke="midnightblue" d="M1587.8,-190.94C1650.53,-180.908 1737.86,-166.817 1814.5,-154 1817.57,-153.487 1820.69,-152.961 1823.85,-152.427"/>
<polygon fill="midnightblue" stroke="midnightblue" points="1586.88,-187.543 1577.56,-192.577 1587.98,-194.455 1586.88,-187.543"/>
</g>
<!-- Node26&#45;&gt;Node24 -->
<g id="edge28" class="edge"><title>Node26&#45;&gt;Node24</title>
<path fill="none" stroke="midnightblue" d="M1245.93,-115.615C1238.95,-107.379 1232.14,-97.4573 1228.5,-87 1223.97,-73.9879 1224.21,-69.094 1228.5,-56 1233.2,-41.6367 1244.43,-28.0685 1252.48,-19.66"/>
<polygon fill="midnightblue" stroke="midnightblue" points="1243.54,-118.194 1252.85,-123.247 1248.72,-113.49 1243.54,-118.194"/>
</g>
<!-- Node27 -->
<g id="node27" class="node"><title>Node27</title>
<g id="a_node27"><a xlink:href="../../d1/d2d/EventLeptonTTagger_8hh.html" target="_top" xlink:title="HiggsCpv/include/EventLepton\lTTagger.hh">
<polygon fill="white" stroke="red" points="1237.5,-56.5 1237.5,-86.5 1389.5,-86.5 1389.5,-56.5 1237.5,-56.5"/>
<text text-anchor="start" x="1245.5" y="-74.5" font-family="Helvetica,sans-Serif" font-size="10.00">HiggsCpv/include/EventLepton</text>
<text text-anchor="middle" x="1313.5" y="-63.5" font-family="Helvetica,sans-Serif" font-size="10.00">TTagger.hh</text>
</a>
</g>
</g>
<!-- Node26&#45;&gt;Node27 -->
<g id="edge26" class="edge"><title>Node26&#45;&gt;Node27</title>
<path fill="none" stroke="midnightblue" d="M1283.97,-115.157C1290.53,-105.679 1297.98,-94.9186 1303.75,-86.5765"/>
<polygon fill="midnightblue" stroke="midnightblue" points="1281.08,-113.182 1278.26,-123.396 1286.83,-117.166 1281.08,-113.182"/>
</g>
<!-- Node28 -->
<g id="node28" class="node"><title>Node28</title>
<g id="a_node28"><a xlink:href="../../dd/d76/SignatureLeptonTTagger_8cpp.html" target="_top" xlink:title="HiggsCpv/source/Signature\lLeptonTTagger.cpp">
<polygon fill="white" stroke="black" points="1408,-56.5 1408,-86.5 1545,-86.5 1545,-56.5 1408,-56.5"/>
<text text-anchor="start" x="1416" y="-74.5" font-family="Helvetica,sans-Serif" font-size="10.00">HiggsCpv/source/Signature</text>
<text text-anchor="middle" x="1476.5" y="-63.5" font-family="Helvetica,sans-Serif" font-size="10.00">LeptonTTagger.cpp</text>
</a>
</g>
</g>
<!-- Node26&#45;&gt;Node28 -->
<g id="edge29" class="edge"><title>Node26&#45;&gt;Node28</title>
<path fill="none" stroke="midnightblue" d="M1323.08,-120.444C1356.8,-109.908 1399.54,-96.5495 1431.35,-86.6109"/>
<polygon fill="midnightblue" stroke="midnightblue" points="1321.88,-117.152 1313.38,-123.476 1323.97,-123.834 1321.88,-117.152"/>
</g>
<!-- Node27&#45;&gt;Node24 -->
<g id="edge27" class="edge"><title>Node27&#45;&gt;Node24</title>
<path fill="none" stroke="midnightblue" d="M1294.45,-48.7037C1285.65,-38.636 1275.71,-27.2567 1269.07,-19.6578"/>
<polygon fill="midnightblue" stroke="midnightblue" points="1291.96,-51.1728 1301.18,-56.3993 1297.23,-46.5664 1291.96,-51.1728"/>
</g>
<!-- Node30 -->
<g id="node30" class="node"><title>Node30</title>
<g id="a_node30"><a xlink:href="../../dd/db1/EventTagger_8hh.html" target="_top" xlink:title="HiggsCpv/include/EventTagger.hh">
<polygon fill="white" stroke="red" points="1563.5,-62 1563.5,-81 1729.5,-81 1729.5,-62 1563.5,-62"/>
<text text-anchor="middle" x="1646.5" y="-69" font-family="Helvetica,sans-Serif" font-size="10.00">HiggsCpv/include/EventTagger.hh</text>
</a>
</g>
</g>
<!-- Node29&#45;&gt;Node30 -->
<g id="edge31" class="edge"><title>Node29&#45;&gt;Node30</title>
<path fill="none" stroke="midnightblue" d="M1482.25,-120.59C1525.61,-107.896 1583.17,-91.0429 1617.37,-81.0287"/>
<polygon fill="midnightblue" stroke="midnightblue" points="1481.01,-117.307 1472.4,-123.476 1482.98,-124.025 1481.01,-117.307"/>
</g>
<!-- Node31 -->
<g id="node31" class="node"><title>Node31</title>
<g id="a_node31"><a xlink:href="../../d0/d77/SignatureTagger_8cpp.html" target="_top" xlink:title="HiggsCpv/source/Signature\lTagger.cpp">
<polygon fill="white" stroke="black" points="1748,-56.5 1748,-86.5 1885,-86.5 1885,-56.5 1748,-56.5"/>
<text text-anchor="start" x="1756" y="-74.5" font-family="Helvetica,sans-Serif" font-size="10.00">HiggsCpv/source/Signature</text>
<text text-anchor="middle" x="1816.5" y="-63.5" font-family="Helvetica,sans-Serif" font-size="10.00">Tagger.cpp</text>
</a>
</g>
</g>
<!-- Node29&#45;&gt;Node31 -->
<g id="edge33" class="edge"><title>Node29&#45;&gt;Node31</title>
<path fill="none" stroke="midnightblue" d="M1503.86,-122.803C1608.81,-105.25 1637.05,-104.162 1738.5,-87 1741.49,-86.4945 1744.54,-85.9689 1747.62,-85.4302"/>
<polygon fill="midnightblue" stroke="midnightblue" points="1503.08,-119.385 1493.8,-124.496 1504.24,-126.288 1503.08,-119.385"/>
</g>
<!-- Node30&#45;&gt;Node24 -->
<g id="edge32" class="edge"><title>Node30&#45;&gt;Node24</title>
<path fill="none" stroke="midnightblue" d="M1581.74,-60.3875C1572.27,-58.9131 1562.63,-57.4154 1553.5,-56 1471.13,-43.2321 1375.68,-28.5417 1316.94,-19.514"/>
<polygon fill="midnightblue" stroke="midnightblue" points="1581.5,-63.8923 1591.92,-61.9733 1582.57,-56.9757 1581.5,-63.8923"/>
</g>
<!-- Node36 -->
<g id="node36" class="node"><title>Node36</title>
<g id="a_node36"><a xlink:href="../../da/ddf/TopSemiPairTagger_8cpp.html" target="_top" xlink:title="HiggsCpv/source/TopSemiPair\lTagger.cpp">
<polygon fill="white" stroke="black" points="1991.5,-123.5 1991.5,-153.5 2143.5,-153.5 2143.5,-123.5 1991.5,-123.5"/>
<text text-anchor="start" x="1999.5" y="-141.5" font-family="Helvetica,sans-Serif" font-size="10.00">HiggsCpv/source/TopSemiPair</text>
<text text-anchor="middle" x="2067.5" y="-130.5" font-family="Helvetica,sans-Serif" font-size="10.00">Tagger.cpp</text>
</a>
</g>
</g>
<!-- Node35&#45;&gt;Node36 -->
<g id="edge38" class="edge"><title>Node35&#45;&gt;Node36</title>
<path fill="none" stroke="midnightblue" d="M1949.18,-186.682C1975.33,-176.257 2007.87,-163.281 2032.2,-153.577"/>
<polygon fill="midnightblue" stroke="midnightblue" points="1947.86,-183.441 1939.87,-190.396 1950.45,-189.943 1947.86,-183.441"/>
</g>
<!-- Node39 -->
<g id="node39" class="node"><title>Node39</title>
<g id="a_node39"><a xlink:href="../../d7/da8/SignatureSingleHadronicTagger_8hh.html" target="_top" xlink:title="TopPartner/include\l/SignatureSingleHadronicTagger.hh">
<polygon fill="white" stroke="red" points="2161.5,-123.5 2161.5,-153.5 2331.5,-153.5 2331.5,-123.5 2161.5,-123.5"/>
<text text-anchor="start" x="2169.5" y="-141.5" font-family="Helvetica,sans-Serif" font-size="10.00">TopPartner/include</text>
<text text-anchor="middle" x="2246.5" y="-130.5" font-family="Helvetica,sans-Serif" font-size="10.00">/SignatureSingleHadronicTagger.hh</text>
</a>
</g>
</g>
<!-- Node38&#45;&gt;Node39 -->
<g id="edge42" class="edge"><title>Node38&#45;&gt;Node39</title>
<path fill="none" stroke="midnightblue" d="M2314.7,-184.734C2299.53,-174.676 2281.46,-162.685 2267.72,-153.577"/>
<polygon fill="midnightblue" stroke="midnightblue" points="2312.97,-187.785 2323.24,-190.396 2316.84,-181.952 2312.97,-187.785"/>
</g>
<!-- Node40 -->
<g id="node40" class="node"><title>Node40</title>
<g id="a_node40"><a xlink:href="../../d9/de2/AnalysisTopPartnerSingleHadronic_8hh.html" target="_top" xlink:title="TopPartner/include\l/AnalysisTopPartnerSingleHadronic.hh">
<polygon fill="white" stroke="red" points="2350,-123.5 2350,-153.5 2535,-153.5 2535,-123.5 2350,-123.5"/>
<text text-anchor="start" x="2358" y="-141.5" font-family="Helvetica,sans-Serif" font-size="10.00">TopPartner/include</text>
<text text-anchor="middle" x="2442.5" y="-130.5" font-family="Helvetica,sans-Serif" font-size="10.00">/AnalysisTopPartnerSingleHadronic.hh</text>
</a>
</g>
</g>
<!-- Node38&#45;&gt;Node40 -->
<g id="edge43" class="edge"><title>Node38&#45;&gt;Node40</title>
<path fill="none" stroke="midnightblue" d="M2374.3,-184.734C2389.47,-174.676 2407.54,-162.685 2421.28,-153.577"/>
<polygon fill="midnightblue" stroke="midnightblue" points="2372.16,-181.952 2365.76,-190.396 2376.03,-187.785 2372.16,-181.952"/>
</g>
<!-- Node41 -->
<g id="node41" class="node"><title>Node41</title>
<g id="a_node41"><a xlink:href="../../d5/d6e/VetoTopPartnerLeptonicTagger_8cpp.html" target="_top" xlink:title="TopPartner/source/VetoTop\lPartnerLeptonicTagger.cpp">
<polygon fill="white" stroke="black" points="2553,-123.5 2553,-153.5 2690,-153.5 2690,-123.5 2553,-123.5"/>
<text text-anchor="start" x="2561" y="-141.5" font-family="Helvetica,sans-Serif" font-size="10.00">TopPartner/source/VetoTop</text>
<text text-anchor="middle" x="2621.5" y="-130.5" font-family="Helvetica,sans-Serif" font-size="10.00">PartnerLeptonicTagger.cpp</text>
</a>
</g>
</g>
<!-- Node38&#45;&gt;Node41 -->
<g id="edge44" class="edge"><title>Node38&#45;&gt;Node41</title>
<path fill="none" stroke="midnightblue" d="M2414.02,-188.186C2459.39,-177.54 2518.01,-163.784 2561.37,-153.611"/>
<polygon fill="midnightblue" stroke="midnightblue" points="2413.2,-184.784 2404.26,-190.476 2414.8,-191.599 2413.2,-184.784"/>
</g>
<!-- Node43 -->
<g id="node43" class="node"><title>Node43</title>
<g id="a_node43"><a xlink:href="../../d7/d24/VetoTopPartnerHadronicTagger_8hh.html" target="_top" xlink:title="TopPartner/include\l/VetoTopPartnerHadronicTagger.hh">
<polygon fill="white" stroke="red" points="2708.5,-123.5 2708.5,-153.5 2878.5,-153.5 2878.5,-123.5 2708.5,-123.5"/>
<text text-anchor="start" x="2716.5" y="-141.5" font-family="Helvetica,sans-Serif" font-size="10.00">TopPartner/include</text>
<text text-anchor="middle" x="2793.5" y="-130.5" font-family="Helvetica,sans-Serif" font-size="10.00">/VetoTopPartnerHadronicTagger.hh</text>
</a>
</g>
</g>
<!-- Node42&#45;&gt;Node43 -->
<g id="edge46" class="edge"><title>Node42&#45;&gt;Node43</title>
<path fill="none" stroke="midnightblue" d="M2920.9,-186.819C2892.77,-176.371 2857.64,-163.323 2831.4,-153.577"/>
<polygon fill="midnightblue" stroke="midnightblue" points="2919.93,-190.195 2930.53,-190.396 2922.37,-183.633 2919.93,-190.195"/>
</g>
<!-- Node44 -->
<g id="node44" class="node"><title>Node44</title>
<g id="a_node44"><a xlink:href="../../d2/d61/SignatureEffectiveTagger_8hh.html" target="_top" xlink:title="TopPartner/include\l/SignatureEffectiveTagger.hh">
<polygon fill="white" stroke="red" points="2897,-123.5 2897,-153.5 3040,-153.5 3040,-123.5 2897,-123.5"/>
<text text-anchor="start" x="2905" y="-141.5" font-family="Helvetica,sans-Serif" font-size="10.00">TopPartner/include</text>
<text text-anchor="middle" x="2968.5" y="-130.5" font-family="Helvetica,sans-Serif" font-size="10.00">/SignatureEffectiveTagger.hh</text>
</a>
</g>
</g>
<!-- Node42&#45;&gt;Node44 -->
<g id="edge47" class="edge"><title>Node42&#45;&gt;Node44</title>
<path fill="none" stroke="midnightblue" d="M2968.5,-180.108C2968.5,-171.154 2968.5,-161.323 2968.5,-153.577"/>
<polygon fill="midnightblue" stroke="midnightblue" points="2965,-180.396 2968.5,-190.396 2972,-180.396 2965,-180.396"/>
</g>
<!-- Node45 -->
<g id="node45" class="node"><title>Node45</title>
<g id="a_node45"><a xlink:href="../../d9/ddc/TopPartnerPairTagger_8hh.html" target="_top" xlink:title="TopPartner/include\l/TopPartnerPairTagger.hh">
<polygon fill="white" stroke="red" points="3058.5,-123.5 3058.5,-153.5 3186.5,-153.5 3186.5,-123.5 3058.5,-123.5"/>
<text text-anchor="start" x="3066.5" y="-141.5" font-family="Helvetica,sans-Serif" font-size="10.00">TopPartner/include</text>
<text text-anchor="middle" x="3122.5" y="-130.5" font-family="Helvetica,sans-Serif" font-size="10.00">/TopPartnerPairTagger.hh</text>
</a>
</g>
</g>
<!-- Node42&#45;&gt;Node45 -->
<g id="edge48" class="edge"><title>Node42&#45;&gt;Node45</title>
<path fill="none" stroke="midnightblue" d="M3011.37,-186.407C3035.95,-176.029 3066.36,-163.195 3089.15,-153.577"/>
<polygon fill="midnightblue" stroke="midnightblue" points="3009.77,-183.283 3001.92,-190.396 3012.49,-189.732 3009.77,-183.283"/>
</g>
<!-- Node46 -->
<g id="node46" class="node"><title>Node46</title>
<g id="a_node46"><a xlink:href="../../d7/dcd/TopPartnerHiggsPairTagger_8hh.html" target="_top" xlink:title="TopPartner/include\l/TopPartnerHiggsPairTagger.hh">
<polygon fill="white" stroke="red" points="3204.5,-123.5 3204.5,-153.5 3358.5,-153.5 3358.5,-123.5 3204.5,-123.5"/>
<text text-anchor="start" x="3212.5" y="-141.5" font-family="Helvetica,sans-Serif" font-size="10.00">TopPartner/include</text>
<text text-anchor="middle" x="3281.5" y="-130.5" font-family="Helvetica,sans-Serif" font-size="10.00">/TopPartnerHiggsPairTagger.hh</text>
</a>
</g>
</g>
<!-- Node42&#45;&gt;Node46 -->
<g id="edge49" class="edge"><title>Node42&#45;&gt;Node46</title>
<path fill="none" stroke="midnightblue" d="M3046.11,-188.382C3097.6,-177.691 3164.5,-163.796 3213.82,-153.555"/>
<polygon fill="midnightblue" stroke="midnightblue" points="3045.11,-185.016 3036.03,-190.476 3046.53,-191.87 3045.11,-185.016"/>
</g>
<!-- Node47 -->
<g id="node47" class="node"><title>Node47</title>
<g id="a_node47"><a xlink:href="../../d8/d38/TopPartnerTopPairTagger_8hh.html" target="_top" xlink:title="TopPartner/include\l/TopPartnerTopPairTagger.hh">
<polygon fill="white" stroke="red" points="3377,-123.5 3377,-153.5 3522,-153.5 3522,-123.5 3377,-123.5"/>
<text text-anchor="start" x="3385" y="-141.5" font-family="Helvetica,sans-Serif" font-size="10.00">TopPartner/include</text>
<text text-anchor="middle" x="3449.5" y="-130.5" font-family="Helvetica,sans-Serif" font-size="10.00">/TopPartnerTopPairTagger.hh</text>
</a>
</g>
</g>
<!-- Node42&#45;&gt;Node47 -->
<g id="edge50" class="edge"><title>Node42&#45;&gt;Node47</title>
<path fill="none" stroke="midnightblue" d="M3052.95,-189.847C3193.16,-170.025 3230.89,-173.84 3367.5,-154 3370.5,-153.564 3373.57,-153.101 3376.66,-152.62"/>
<polygon fill="midnightblue" stroke="midnightblue" points="3052.08,-186.436 3042.68,-191.316 3053.07,-193.366 3052.08,-186.436"/>
</g>
<!-- Node48 -->
<g id="node48" class="node"><title>Node48</title>
<g id="a_node48"><a xlink:href="../../d5/de0/TopPartnerLeptonicTagger_8cpp.html" target="_top" xlink:title="TopPartner/source/TopPartner\lLeptonicTagger.cpp">
<polygon fill="white" stroke="black" points="3540.5,-123.5 3540.5,-153.5 3688.5,-153.5 3688.5,-123.5 3540.5,-123.5"/>
<text text-anchor="start" x="3548.5" y="-141.5" font-family="Helvetica,sans-Serif" font-size="10.00">TopPartner/source/TopPartner</text>
<text text-anchor="middle" x="3614.5" y="-130.5" font-family="Helvetica,sans-Serif" font-size="10.00">LeptonicTagger.cpp</text>
</a>
</g>
</g>
<!-- Node42&#45;&gt;Node48 -->
<g id="edge51" class="edge"><title>Node42&#45;&gt;Node48</title>
<path fill="none" stroke="midnightblue" d="M3052.59,-189.95C3265.51,-164.061 3322.42,-180.04 3531.5,-154 3534.4,-153.638 3537.36,-153.245 3540.34,-152.826"/>
<polygon fill="midnightblue" stroke="midnightblue" points="3052.15,-186.477 3042.66,-191.174 3053.01,-193.424 3052.15,-186.477"/>
</g>
</g>
</svg>
