<?xml version="1.0" encoding="UTF-8" standalone="no"?>
<!DOCTYPE svg PUBLIC "-//W3C//DTD SVG 1.1//EN"
 "http://www.w3.org/Graphics/SVG/1.1/DTD/svg11.dtd">
<!-- Generated by graphviz version 2.38.0 (20140413.2041)
 -->
<!-- Title: boca::Constituent Pages: 1 -->
<svg width="184pt" height="329pt"
 viewBox="0.00 0.00 184.00 329.00" xmlns="http://www.w3.org/2000/svg" xmlns:xlink="http://www.w3.org/1999/xlink">
<g id="graph0" class="graph" transform="scale(1 1) rotate(0) translate(4 325)">
<title>boca::Constituent</title>
<polygon fill="white" stroke="none" points="-4,4 -4,-325 180,-325 180,4 -4,4"/>
<!-- Node1 -->
<g id="node1" class="node"><title>Node1</title>
<polygon fill="#bfbfbf" stroke="black" points="15,-0.5 15,-19.5 109,-19.5 109,-0.5 15,-0.5"/>
<text text-anchor="middle" x="62" y="-7.5" font-family="Helvetica,sans-Serif" font-size="10.00">boca::Constituent</text>
</g>
<!-- Node2 -->
<g id="node2" class="node"><title>Node2</title>
<g id="a_node2"><a xlink:href="../../d1/d78/classboca_1_1Family.html" target="_top" xlink:title="boca::Family">
<polygon fill="white" stroke="black" points="70.5,-67.5 70.5,-86.5 143.5,-86.5 143.5,-67.5 70.5,-67.5"/>
<text text-anchor="middle" x="107" y="-74.5" font-family="Helvetica,sans-Serif" font-size="10.00">boca::Family</text>
</a>
</g>
</g>
<!-- Node2&#45;&gt;Node1 -->
<g id="edge1" class="edge"><title>Node2&#45;&gt;Node1</title>
<path fill="none" stroke="#9a32cd" stroke-dasharray="5,2" d="M95.1641,-58.9037C86.4197,-46.2729 74.8798,-29.6041 67.9727,-19.6273"/>
<polygon fill="#9a32cd" stroke="#9a32cd" points="92.3613,-61.0041 100.931,-67.2338 98.1166,-57.0196 92.3613,-61.0041"/>
<text text-anchor="middle" x="105.5" y="-41" font-family="Helvetica,sans-Serif" font-size="10.00"> family_</text>
</g>
<!-- Node3 -->
<g id="node3" class="node"><title>Node3</title>
<g id="a_node3"><a xlink:href="../../db/dc7/classboca_1_1Particle.html" target="_top" xlink:title="boca::Particle">
<polygon fill="white" stroke="black" points="69.5,-167.5 69.5,-186.5 146.5,-186.5 146.5,-167.5 69.5,-167.5"/>
<text text-anchor="middle" x="108" y="-174.5" font-family="Helvetica,sans-Serif" font-size="10.00">boca::Particle</text>
</a>
</g>
</g>
<!-- Node3&#45;&gt;Node2 -->
<g id="edge2" class="edge"><title>Node3&#45;&gt;Node2</title>
<path fill="none" stroke="#9a32cd" stroke-dasharray="5,2" d="M107.808,-157.22C107.591,-135.951 107.247,-102.22 107.087,-86.5374"/>
<polygon fill="#9a32cd" stroke="#9a32cd" points="104.309,-157.339 107.911,-167.303 111.309,-157.268 104.309,-157.339"/>
<text text-anchor="middle" x="142" y="-141" font-family="Helvetica,sans-Serif" font-size="10.00"> grand_mother_</text>
<text text-anchor="middle" x="142" y="-130" font-family="Helvetica,sans-Serif" font-size="10.00">mother_2_</text>
<text text-anchor="middle" x="142" y="-119" font-family="Helvetica,sans-Serif" font-size="10.00">mother_1_</text>
<text text-anchor="middle" x="142" y="-108" font-family="Helvetica,sans-Serif" font-size="10.00">particle_</text>
</g>
<!-- Node4 -->
<g id="node4" class="node"><title>Node4</title>
<g id="a_node4"><a xlink:href="../../dd/d3e/classboca_1_1LorentzVector.html" target="_top" xlink:title="Copy of root::TLorentzVector in order to get rid of TObject which makes it unsuitable for heavy usage...">
<polygon fill="white" stroke="black" points="0,-234.5 0,-253.5 104,-253.5 104,-234.5 0,-234.5"/>
<text text-anchor="middle" x="52" y="-241.5" font-family="Helvetica,sans-Serif" font-size="10.00">boca::LorentzVector</text>
</a>
</g>
</g>
<!-- Node4&#45;&gt;Node1 -->
<g id="edge5" class="edge"><title>Node4&#45;&gt;Node1</title>
<path fill="none" stroke="#9a32cd" stroke-dasharray="5,2" d="M50.5093,-224.092C48.6571,-197.482 46.0762,-147.484 49,-105 51.1718,-73.4431 57.3984,-36.3465 60.376,-19.7706"/>
<polygon fill="#9a32cd" stroke="#9a32cd" points="47.0339,-224.555 51.2635,-234.268 54.0147,-224.037 47.0339,-224.555"/>
<text text-anchor="middle" x="76.5" y="-130" font-family="Helvetica,sans-Serif" font-size="10.00"> position_</text>
<text text-anchor="middle" x="76.5" y="-119" font-family="Helvetica,sans-Serif" font-size="10.00">momentum_</text>
</g>
<!-- Node4&#45;&gt;Node3 -->
<g id="edge3" class="edge"><title>Node4&#45;&gt;Node3</title>
<path fill="none" stroke="#9a32cd" stroke-dasharray="5,2" d="M66.0992,-226.635C77.0512,-213.923 91.805,-196.798 100.567,-186.627"/>
<polygon fill="#9a32cd" stroke="#9a32cd" points="63.4279,-224.373 59.5524,-234.234 68.7312,-228.942 63.4279,-224.373"/>
<text text-anchor="middle" x="113" y="-208" font-family="Helvetica,sans-Serif" font-size="10.00"> momentum_</text>
</g>
<!-- Node5 -->
<g id="node5" class="node"><title>Node5</title>
<g id="a_node5"><a xlink:href="../../d3/da2/classboca_1_1Vector3.html" target="_top" xlink:title="Copy of root::TVector3 in order to get rid of TObject. ">
<polygon fill="white" stroke="black" points="13.5,-301.5 13.5,-320.5 90.5,-320.5 90.5,-301.5 13.5,-301.5"/>
<text text-anchor="middle" x="52" y="-308.5" font-family="Helvetica,sans-Serif" font-size="10.00">boca::Vector3</text>
</a>
</g>
</g>
<!-- Node5&#45;&gt;Node4 -->
<g id="edge4" class="edge"><title>Node5&#45;&gt;Node4</title>
<path fill="none" stroke="#9a32cd" stroke-dasharray="5,2" d="M52,-291.037C52,-278.67 52,-263.12 52,-253.627"/>
<polygon fill="#9a32cd" stroke="#9a32cd" points="48.5001,-291.234 52,-301.234 55.5001,-291.234 48.5001,-291.234"/>
<text text-anchor="middle" x="59" y="-275" font-family="Helvetica,sans-Serif" font-size="10.00"> p_</text>
</g>
</g>
</svg>
