<?xml version="1.0" encoding="UTF-8" standalone="no"?>
<!DOCTYPE svg PUBLIC "-//W3C//DTD SVG 1.1//EN"
 "http://www.w3.org/Graphics/SVG/1.1/DTD/svg11.dtd">
<!-- Generated by graphviz version 2.38.0 (20140413.2041)
 -->
<!-- Title: boca::higgscpv::SignatureTTagger Pages: 1 -->
<svg width="2511pt" height="661pt"
 viewBox="0.00 0.00 2511.00 661.00" xmlns="http://www.w3.org/2000/svg" xmlns:xlink="http://www.w3.org/1999/xlink">
<g id="graph0" class="graph" transform="scale(1 1) rotate(0) translate(4 657)">
<title>boca::higgscpv::SignatureTTagger</title>
<polygon fill="white" stroke="none" points="-4,4 -4,-657 2507,-657 2507,4 -4,4"/>
<!-- Node1 -->
<g id="node1" class="node"><title>Node1</title>
<polygon fill="#bfbfbf" stroke="black" points="2373,-354.5 2373,-384.5 2503,-384.5 2503,-354.5 2373,-354.5"/>
<text text-anchor="start" x="2381" y="-372.5" font-family="Helvetica,sans-Serif" font-size="10.00">boca::higgscpv::Signature</text>
<text text-anchor="middle" x="2438" y="-361.5" font-family="Helvetica,sans-Serif" font-size="10.00">TTagger</text>
</g>
<!-- Node2 -->
<g id="node2" class="node"><title>Node2</title>
<g id="a_node2"><a xlink:href="../../dd/d8a/classboca_1_1TaggerTemplate.html" target="_top" xlink:title="boca::TaggerTemplate\l\&lt; MultipletSignature\l\&lt; Octet332 \&gt;, SignatureTTagger\lBranch \&gt;">
<polygon fill="white" stroke="black" points="1602.5,-96.5 1602.5,-148.5 1760.5,-148.5 1760.5,-96.5 1602.5,-96.5"/>
<text text-anchor="start" x="1610.5" y="-136.5" font-family="Helvetica,sans-Serif" font-size="10.00">boca::TaggerTemplate</text>
<text text-anchor="start" x="1610.5" y="-125.5" font-family="Helvetica,sans-Serif" font-size="10.00">&lt; MultipletSignature</text>
<text text-anchor="start" x="1610.5" y="-114.5" font-family="Helvetica,sans-Serif" font-size="10.00">&lt; Octet332 &gt;, SignatureTTagger</text>
<text text-anchor="middle" x="1681.5" y="-103.5" font-family="Helvetica,sans-Serif" font-size="10.00">Branch &gt;</text>
</a>
</g>
</g>
<!-- Node2&#45;&gt;Node1 -->
<g id="edge1" class="edge"><title>Node2&#45;&gt;Node1</title>
<path fill="none" stroke="midnightblue" d="M1770.64,-151.355C1931.77,-204.104 2268.56,-314.357 2391.13,-354.484"/>
<polygon fill="midnightblue" stroke="midnightblue" points="1771.35,-147.904 1760.76,-148.119 1769.17,-154.556 1771.35,-147.904"/>
</g>
<!-- Node3 -->
<g id="node3" class="node"><title>Node3</title>
<g id="a_node3"><a xlink:href="../../da/d42/classboca_1_1Tagger.html" target="_top" xlink:title="Prepares multivariant analysis. ">
<polygon fill="white" stroke="black" points="518,-234 518,-253 592,-253 592,-234 518,-234"/>
<text text-anchor="middle" x="555" y="-241" font-family="Helvetica,sans-Serif" font-size="10.00">boca::Tagger</text>
</a>
</g>
</g>
<!-- Node3&#45;&gt;Node2 -->
<g id="edge2" class="edge"><title>Node3&#45;&gt;Node2</title>
<path fill="none" stroke="midnightblue" d="M563.664,-224.559C579.213,-188.892 618.151,-112.315 678,-78.5 755.931,-34.4676 788.99,-59.5 878.5,-59.5 878.5,-59.5 878.5,-59.5 1380,-59.5 1456.76,-59.5 1542.24,-79.4336 1602.35,-96.8755"/>
<polygon fill="midnightblue" stroke="midnightblue" points="560.409,-223.271 559.746,-233.845 566.858,-225.993 560.409,-223.271"/>
</g>
<!-- Node12 -->
<g id="node12" class="node"><title>Node12</title>
<g id="a_node12"><a xlink:href="../../dd/d8a/classboca_1_1TaggerTemplate.html" target="_top" xlink:title="Tagger base class using Branch template. ">
<polygon fill="white" stroke="black" points="678,-288 678,-329 792,-329 792,-288 678,-288"/>
<text text-anchor="start" x="686" y="-317" font-family="Helvetica,sans-Serif" font-size="10.00">boca::TaggerTemplate</text>
<text text-anchor="start" x="686" y="-306" font-family="Helvetica,sans-Serif" font-size="10.00">&lt; MultipletTemplate,</text>
<text text-anchor="middle" x="735" y="-295" font-family="Helvetica,sans-Serif" font-size="10.00"> BranchTemplate &gt;</text>
</a>
</g>
</g>
<!-- Node3&#45;&gt;Node12 -->
<g id="edge12" class="edge"><title>Node3&#45;&gt;Node12</title>
<path fill="none" stroke="midnightblue" d="M591.921,-256.617C616.548,-265.61 649.717,-277.723 677.813,-287.982"/>
<polygon fill="midnightblue" stroke="midnightblue" points="592.858,-253.234 582.265,-253.091 590.457,-259.809 592.858,-253.234"/>
</g>
<!-- Node17 -->
<g id="node17" class="node"><title>Node17</title>
<g id="a_node17"><a xlink:href="../../dd/d8a/classboca_1_1TaggerTemplate.html" target="_top" xlink:title="boca::TaggerTemplate\l\&lt; Triplet, TopLeptonicBranch \&gt;">
<polygon fill="white" stroke="black" points="967,-193.5 967,-223.5 1119,-223.5 1119,-193.5 967,-193.5"/>
<text text-anchor="start" x="975" y="-211.5" font-family="Helvetica,sans-Serif" font-size="10.00">boca::TaggerTemplate</text>
<text text-anchor="middle" x="1043" y="-200.5" font-family="Helvetica,sans-Serif" font-size="10.00">&lt; Triplet, TopLeptonicBranch &gt;</text>
</a>
</g>
</g>
<!-- Node3&#45;&gt;Node17 -->
<g id="edge18" class="edge"><title>Node3&#45;&gt;Node17</title>
<path fill="none" stroke="midnightblue" d="M590.258,-230.402C614.428,-221.695 647.76,-210.749 678,-204.5 796.088,-180.097 828.909,-180.614 949,-191.5 954.803,-192.026 960.785,-192.733 966.785,-193.561"/>
<polygon fill="midnightblue" stroke="midnightblue" points="589.009,-227.132 580.821,-233.856 591.415,-233.706 589.009,-227.132"/>
</g>
<!-- Node22 -->
<g id="node22" class="node"><title>Node22</title>
<polygon fill="white" stroke="#bfbfbf" points="986,-436 986,-477 1100,-477 1100,-436 986,-436"/>
<text text-anchor="start" x="994" y="-465" font-family="Helvetica,sans-Serif" font-size="10.00">boca::TaggerTemplate</text>
<text text-anchor="start" x="994" y="-454" font-family="Helvetica,sans-Serif" font-size="10.00">&lt; fastjet::PseudoJet,</text>
<text text-anchor="middle" x="1043" y="-443" font-family="Helvetica,sans-Serif" font-size="10.00"> BottomBranch &gt;</text>
</g>
<!-- Node3&#45;&gt;Node22 -->
<g id="edge27" class="edge"><title>Node3&#45;&gt;Node22</title>
<path fill="none" stroke="midnightblue" d="M572.824,-260.138C595.082,-281.265 636.38,-317.492 678,-338.5 732.391,-365.955 750.762,-361.252 810,-375.5 871.271,-390.237 895.366,-370.413 949,-403.5 960.047,-410.315 956.617,-418.71 967,-426.5 972.721,-430.792 979.139,-434.565 985.75,-437.854"/>
<polygon fill="midnightblue" stroke="midnightblue" points="575.147,-257.516 565.52,-253.093 570.288,-262.555 575.147,-257.516"/>
</g>
<!-- Node27 -->
<g id="node27" class="node"><title>Node27</title>
<g id="a_node27"><a xlink:href="../../dd/d8a/classboca_1_1TaggerTemplate.html" target="_top" xlink:title="boca::TaggerTemplate\l\&lt; Doublet, WSemiBranch \&gt;">
<polygon fill="white" stroke="black" points="974.5,-134.5 974.5,-164.5 1111.5,-164.5 1111.5,-134.5 974.5,-134.5"/>
<text text-anchor="start" x="982.5" y="-152.5" font-family="Helvetica,sans-Serif" font-size="10.00">boca::TaggerTemplate</text>
<text text-anchor="middle" x="1043" y="-141.5" font-family="Helvetica,sans-Serif" font-size="10.00">&lt; Doublet, WSemiBranch &gt;</text>
</a>
</g>
</g>
<!-- Node3&#45;&gt;Node27 -->
<g id="edge39" class="edge"><title>Node3&#45;&gt;Node27</title>
<path fill="none" stroke="midnightblue" d="M578.39,-228.433C601.994,-213.505 640.84,-191.596 678,-182.5 779.234,-157.72 900.406,-151.153 974.258,-149.629"/>
<polygon fill="midnightblue" stroke="midnightblue" points="576.334,-225.594 569.835,-233.962 580.133,-231.473 576.334,-225.594"/>
</g>
<!-- Node31 -->
<g id="node31" class="node"><title>Node31</title>
<g id="a_node31"><a xlink:href="../../dd/d8a/classboca_1_1TaggerTemplate.html" target="_top" xlink:title="boca::TaggerTemplate\l\&lt; Doublet, HiggsBranch \&gt;">
<polygon fill="white" stroke="black" points="977.5,-498.5 977.5,-528.5 1108.5,-528.5 1108.5,-498.5 977.5,-498.5"/>
<text text-anchor="start" x="985.5" y="-516.5" font-family="Helvetica,sans-Serif" font-size="10.00">boca::TaggerTemplate</text>
<text text-anchor="middle" x="1043" y="-505.5" font-family="Helvetica,sans-Serif" font-size="10.00">&lt; Doublet, HiggsBranch &gt;</text>
</a>
</g>
</g>
<!-- Node3&#45;&gt;Node31 -->
<g id="edge49" class="edge"><title>Node3&#45;&gt;Node31</title>
<path fill="none" stroke="midnightblue" d="M558.219,-263.342C565.08,-313.831 591.046,-446.698 678,-496.5 771.05,-549.794 900.455,-539.968 977.281,-527.243"/>
<polygon fill="midnightblue" stroke="midnightblue" points="561.655,-262.611 556.943,-253.121 554.709,-263.478 561.655,-262.611"/>
</g>
<!-- Node4 -->
<g id="node4" class="node"><title>Node4</title>
<g id="a_node4"><a xlink:href="../../d9/df4/classboca_1_1higgscpv_1_1SignatureTTaggerBranch.html" target="_top" xlink:title="Higgs cpv tagger root tree structure. ">
<polygon fill="white" stroke="black" points="1314,-0.5 1314,-30.5 1444,-30.5 1444,-0.5 1314,-0.5"/>
<text text-anchor="start" x="1322" y="-18.5" font-family="Helvetica,sans-Serif" font-size="10.00">boca::higgscpv::Signature</text>
<text text-anchor="middle" x="1379" y="-7.5" font-family="Helvetica,sans-Serif" font-size="10.00">TTaggerBranch</text>
</a>
</g>
</g>
<!-- Node4&#45;&gt;Node2 -->
<g id="edge3" class="edge"><title>Node4&#45;&gt;Node2</title>
<path fill="none" stroke="#9a32cd" stroke-dasharray="5,2" d="M1454.5,-11.5211C1493.9,-12.0863 1542.2,-17.1335 1582,-34.5 1613.32,-48.1656 1641.55,-75.7345 1659.67,-96.393"/>
<polygon fill="#9a32cd" stroke="#9a32cd" points="1454.45,-8.02083 1444.43,-11.4701 1454.41,-15.0207 1454.45,-8.02083"/>
<text text-anchor="middle" x="1530.5" y="-37.5" font-family="Helvetica,sans-Serif" font-size="10.00"> branch_</text>
</g>
<!-- Node5 -->
<g id="node5" class="node"><title>Node5</title>
<g id="a_node5"><a xlink:href="../../d9/d7b/classboca_1_1TChannelBranch.html" target="_top" xlink:title="Higgs cpv tagger root tree structure. ">
<polygon fill="white" stroke="black" points="985,-6 985,-25 1101,-25 1101,-6 985,-6"/>
<text text-anchor="middle" x="1043" y="-13" font-family="Helvetica,sans-Serif" font-size="10.00">boca::TChannelBranch</text>
</a>
</g>
</g>
<!-- Node5&#45;&gt;Node4 -->
<g id="edge4" class="edge"><title>Node5&#45;&gt;Node4</title>
<path fill="none" stroke="midnightblue" d="M1111.38,-15.5C1170.43,-15.5 1255.68,-15.5 1313.78,-15.5"/>
<polygon fill="midnightblue" stroke="midnightblue" points="1111.04,-12.0001 1101.04,-15.5 1111.04,-19.0001 1111.04,-12.0001"/>
</g>
<!-- Node6 -->
<g id="node6" class="node"><title>Node6</title>
<g id="a_node6"><a xlink:href="../../db/df3/classboca_1_1MultiBranch.html" target="_top" xlink:title="boca::MultiBranch">
<polygon fill="white" stroke="black" points="687.5,-6 687.5,-25 782.5,-25 782.5,-6 687.5,-6"/>
<text text-anchor="middle" x="735" y="-13" font-family="Helvetica,sans-Serif" font-size="10.00">boca::MultiBranch</text>
</a>
</g>
</g>
<!-- Node6&#45;&gt;Node5 -->
<g id="edge5" class="edge"><title>Node6&#45;&gt;Node5</title>
<path fill="none" stroke="midnightblue" d="M793.033,-15.5C847.763,-15.5 929.969,-15.5 984.766,-15.5"/>
<polygon fill="midnightblue" stroke="midnightblue" points="792.808,-12.0001 782.808,-15.5 792.808,-19.0001 792.808,-12.0001"/>
</g>
<!-- Node7 -->
<g id="node7" class="node"><title>Node7</title>
<g id="a_node7"><a xlink:href="../../d6/d3d/classboca_1_1PairBranch.html" target="_top" xlink:title="boca::PairBranch">
<polygon fill="white" stroke="black" points="509,-113 509,-132 601,-132 601,-113 509,-113"/>
<text text-anchor="middle" x="555" y="-120" font-family="Helvetica,sans-Serif" font-size="10.00">boca::PairBranch</text>
</a>
</g>
</g>
<!-- Node7&#45;&gt;Node6 -->
<g id="edge6" class="edge"><title>Node7&#45;&gt;Node6</title>
<path fill="none" stroke="midnightblue" d="M578.964,-107.318C603.265,-91.4162 642.88,-65.9553 678,-45.5 690.295,-38.3391 704.418,-30.7774 715.406,-25.0372"/>
<polygon fill="midnightblue" stroke="midnightblue" points="576.879,-104.5 570.442,-112.915 580.722,-110.351 576.879,-104.5"/>
</g>
<!-- Node18 -->
<g id="node18" class="node"><title>Node18</title>
<g id="a_node18"><a xlink:href="../../d0/dbf/classboca_1_1standardmodel_1_1TopLeptonicBranch.html" target="_top" xlink:title="Top tagger root tree structure. ">
<polygon fill="white" stroke="black" points="681.5,-214.5 681.5,-244.5 788.5,-244.5 788.5,-214.5 681.5,-214.5"/>
<text text-anchor="start" x="689.5" y="-232.5" font-family="Helvetica,sans-Serif" font-size="10.00">boca::standardmodel</text>
<text text-anchor="middle" x="735" y="-221.5" font-family="Helvetica,sans-Serif" font-size="10.00">::TopLeptonicBranch</text>
</a>
</g>
</g>
<!-- Node7&#45;&gt;Node18 -->
<g id="edge20" class="edge"><title>Node7&#45;&gt;Node18</title>
<path fill="none" stroke="midnightblue" d="M580.903,-137.47C614.7,-157.786 674.761,-193.89 708.741,-214.316"/>
<polygon fill="midnightblue" stroke="midnightblue" points="582.484,-134.337 572.11,-132.184 578.878,-140.336 582.484,-134.337"/>
</g>
<!-- Node28 -->
<g id="node28" class="node"><title>Node28</title>
<g id="a_node28"><a xlink:href="../../d7/ded/classboca_1_1standardmodel_1_1WSemiBranch.html" target="_top" xlink:title="Top tagger root tree structure. ">
<polygon fill="white" stroke="black" points="681.5,-88.5 681.5,-118.5 788.5,-118.5 788.5,-88.5 681.5,-88.5"/>
<text text-anchor="start" x="689.5" y="-106.5" font-family="Helvetica,sans-Serif" font-size="10.00">boca::standardmodel</text>
<text text-anchor="middle" x="735" y="-95.5" font-family="Helvetica,sans-Serif" font-size="10.00">::WSemiBranch</text>
</a>
</g>
</g>
<!-- Node7&#45;&gt;Node28 -->
<g id="edge41" class="edge"><title>Node7&#45;&gt;Node28</title>
<path fill="none" stroke="midnightblue" d="M605.493,-111.086C611.04,-110.08 616.626,-109.185 622,-108.5 641.308,-106.038 662.621,-104.737 681.427,-104.065"/>
<polygon fill="midnightblue" stroke="midnightblue" points="604.761,-107.662 595.606,-112.995 606.089,-114.535 604.761,-107.662"/>
</g>
<!-- Node32 -->
<g id="node32" class="node"><title>Node32</title>
<g id="a_node32"><a xlink:href="../../d3/d7d/classboca_1_1standardmodel_1_1HiggsBranch.html" target="_top" xlink:title="Higgs tagger root tree structure. ">
<polygon fill="white" stroke="black" points="681.5,-457.5 681.5,-487.5 788.5,-487.5 788.5,-457.5 681.5,-457.5"/>
<text text-anchor="start" x="689.5" y="-475.5" font-family="Helvetica,sans-Serif" font-size="10.00">boca::standardmodel</text>
<text text-anchor="middle" x="735" y="-464.5" font-family="Helvetica,sans-Serif" font-size="10.00">::HiggsBranch</text>
</a>
</g>
</g>
<!-- Node7&#45;&gt;Node32 -->
<g id="edge51" class="edge"><title>Node7&#45;&gt;Node32</title>
<path fill="none" stroke="midnightblue" d="M565.555,-141.287C597.138,-203.39 697.791,-401.302 726.368,-457.493"/>
<polygon fill="midnightblue" stroke="midnightblue" points="568.599,-139.553 560.947,-132.226 562.36,-142.726 568.599,-139.553"/>
</g>
<!-- Node8 -->
<g id="node8" class="node"><title>Node8</title>
<g id="a_node8"><a xlink:href="../../d8/d91/classboca_1_1ParticleBranch.html" target="_top" xlink:title="Class for saving event informations to root. ">
<polygon fill="white" stroke="black" points="362,-440 362,-459 469,-459 469,-440 362,-440"/>
<text text-anchor="middle" x="415.5" y="-447" font-family="Helvetica,sans-Serif" font-size="10.00">boca::ParticleBranch</text>
</a>
</g>
</g>
<!-- Node8&#45;&gt;Node7 -->
<g id="edge7" class="edge"><title>Node8&#45;&gt;Node7</title>
<path fill="none" stroke="midnightblue" d="M423.629,-430.439C438.308,-391.46 473.28,-299.943 506,-224.5 520.873,-190.206 540.272,-150.306 549.165,-132.255"/>
<polygon fill="midnightblue" stroke="midnightblue" points="420.285,-429.391 420.046,-439.983 426.838,-431.852 420.285,-429.391"/>
</g>
<!-- Node23 -->
<g id="node23" class="node"><title>Node23</title>
<g id="a_node23"><a xlink:href="../../db/dd1/classboca_1_1standardmodel_1_1BottomBranch.html" target="_top" xlink:title="Bottom tagger root tree structure. ">
<polygon fill="white" stroke="black" points="681.5,-545.5 681.5,-575.5 788.5,-575.5 788.5,-545.5 681.5,-545.5"/>
<text text-anchor="start" x="689.5" y="-563.5" font-family="Helvetica,sans-Serif" font-size="10.00">boca::standardmodel</text>
<text text-anchor="middle" x="735" y="-552.5" font-family="Helvetica,sans-Serif" font-size="10.00">::BottomBranch</text>
</a>
</g>
</g>
<!-- Node8&#45;&gt;Node23 -->
<g id="edge29" class="edge"><title>Node8&#45;&gt;Node23</title>
<path fill="none" stroke="midnightblue" d="M438.776,-464.825C456.488,-476.603 482.166,-492.787 506,-504.5 555.487,-528.82 568.371,-535.68 622,-548.5 641.115,-553.069 662.483,-555.9 681.389,-557.654"/>
<polygon fill="midnightblue" stroke="midnightblue" points="440.542,-461.795 430.292,-459.115 436.633,-467.602 440.542,-461.795"/>
</g>
<!-- Node9 -->
<g id="node9" class="node"><title>Node9</title>
<g id="a_node9"><a xlink:href="../../dd/dfc/classboca_1_1ResultBranch.html" target="_top" xlink:title="boca::ResultBranch">
<polygon fill="white" stroke="black" points="222,-440 222,-459 325,-459 325,-440 222,-440"/>
<text text-anchor="middle" x="273.5" y="-447" font-family="Helvetica,sans-Serif" font-size="10.00">boca::ResultBranch</text>
</a>
</g>
</g>
<!-- Node9&#45;&gt;Node8 -->
<g id="edge8" class="edge"><title>Node9&#45;&gt;Node8</title>
<path fill="none" stroke="midnightblue" d="M335.248,-449.5C344.047,-449.5 353.045,-449.5 361.672,-449.5"/>
<polygon fill="midnightblue" stroke="midnightblue" points="335.043,-446 325.043,-449.5 335.043,-453 335.043,-446"/>
</g>
<!-- Node10 -->
<g id="node10" class="node"><title>Node10</title>
<g id="a_node10"><a xlink:href="../../dc/d87/classboca_1_1BaseBranch.html" target="_top" xlink:title="Basic tree branches. ">
<polygon fill="white" stroke="black" points="88,-440 88,-459 185,-459 185,-440 88,-440"/>
<text text-anchor="middle" x="136.5" y="-447" font-family="Helvetica,sans-Serif" font-size="10.00">boca::BaseBranch</text>
</a>
</g>
</g>
<!-- Node10&#45;&gt;Node9 -->
<g id="edge9" class="edge"><title>Node10&#45;&gt;Node9</title>
<path fill="none" stroke="midnightblue" d="M195.264,-449.5C204.045,-449.5 213.051,-449.5 221.67,-449.5"/>
<polygon fill="midnightblue" stroke="midnightblue" points="195.096,-446 185.096,-449.5 195.096,-453 195.096,-446"/>
</g>
<!-- Node11 -->
<g id="node11" class="node"><title>Node11</title>
<polygon fill="white" stroke="#bfbfbf" points="0,-440 0,-459 51,-459 51,-440 0,-440"/>
<text text-anchor="middle" x="25.5" y="-447" font-family="Helvetica,sans-Serif" font-size="10.00">TObject</text>
</g>
<!-- Node11&#45;&gt;Node10 -->
<g id="edge10" class="edge"><title>Node11&#45;&gt;Node10</title>
<path fill="none" stroke="midnightblue" d="M61.3795,-449.5C69.7463,-449.5 78.825,-449.5 87.6662,-449.5"/>
<polygon fill="midnightblue" stroke="midnightblue" points="61.2338,-446 51.2338,-449.5 61.2338,-453 61.2338,-446"/>
</g>
<!-- Node12&#45;&gt;Node2 -->
<g id="edge11" class="edge"><title>Node12&#45;&gt;Node2</title>
<path fill="none" stroke="orange" stroke-dasharray="5,2" d="M802.391,-301.232C844.525,-296.26 900.122,-289.034 949,-280.5 1104.95,-253.27 1142.26,-237.94 1297,-204.5 1402.65,-181.669 1524.74,-155.621 1602.26,-139.126"/>
<polygon fill="orange" stroke="orange" points="801.781,-297.78 792.255,-302.416 802.593,-304.732 801.781,-297.78"/>
<text text-anchor="start" x="1137" y="-266.5" font-family="Helvetica,sans-Serif" font-size="10.00"> &lt; MultipletSignature</text>
<text text-anchor="start" x="1137" y="-255.5" font-family="Helvetica,sans-Serif" font-size="10.00">&lt; Octet332 &gt;, SignatureTTagger</text>
<text text-anchor="middle" x="1208" y="-244.5" font-family="Helvetica,sans-Serif" font-size="10.00">Branch &gt;</text>
</g>
<!-- Node12&#45;&gt;Node17 -->
<g id="edge22" class="edge"><title>Node12&#45;&gt;Node17</title>
<path fill="none" stroke="orange" stroke-dasharray="5,2" d="M778.57,-283.104C788.608,-277.958 799.462,-273.045 810,-269.5 869.35,-249.535 888.751,-263.56 949,-246.5 969.977,-240.56 992.642,-231.361 1010.34,-223.502"/>
<polygon fill="orange" stroke="orange" points="776.802,-280.079 769.613,-287.862 780.087,-286.261 776.802,-280.079"/>
<text text-anchor="middle" x="879.5" y="-272.5" font-family="Helvetica,sans-Serif" font-size="10.00"> &lt; Triplet, TopLeptonicBranch &gt;</text>
</g>
<!-- Node12&#45;&gt;Node22 -->
<g id="edge31" class="edge"><title>Node12&#45;&gt;Node22</title>
<path fill="none" stroke="orange" stroke-dasharray="5,2" d="M802.081,-328.59C804.749,-329.26 807.396,-329.9 810,-330.5 871.019,-344.561 903.035,-310.977 949,-353.5 973.53,-376.192 945.066,-401.29 967,-426.5 972.155,-432.425 978.643,-437.193 985.635,-441.027"/>
<polygon fill="orange" stroke="orange" points="802.931,-325.194 792.37,-326.049 801.159,-331.966 802.931,-325.194"/>
<text text-anchor="start" x="832" y="-367.5" font-family="Helvetica,sans-Serif" font-size="10.00"> &lt; fastjet::PseudoJet,</text>
<text text-anchor="middle" x="879.5" y="-356.5" font-family="Helvetica,sans-Serif" font-size="10.00"> BottomBranch &gt;</text>
</g>
<!-- Node24 -->
<g id="node24" class="node"><title>Node24</title>
<g id="a_node24"><a xlink:href="../../de/d69/classboca_1_1Reader.html" target="_top" xlink:title="read results of multivariant analysis wrapper for TMVA::Reader ">
<polygon fill="white" stroke="black" points="1297,-422 1297,-441 1461,-441 1461,-422 1297,-422"/>
<text text-anchor="middle" x="1379" y="-429" font-family="Helvetica,sans-Serif" font-size="10.00">boca::Reader&lt; TaggerTemplate &gt;</text>
</a>
</g>
</g>
<!-- Node12&#45;&gt;Node24 -->
<g id="edge34" class="edge"><title>Node12&#45;&gt;Node24</title>
<path fill="none" stroke="#9a32cd" stroke-dasharray="5,2" d="M802.437,-314.439C844.589,-318.665 900.188,-325.085 949,-333.5 1096.37,-358.906 1269.2,-402.758 1342.39,-421.992"/>
<polygon fill="#9a32cd" stroke="#9a32cd" points="802.591,-310.937 792.296,-313.438 801.904,-317.903 802.591,-310.937"/>
<text text-anchor="middle" x="1043" y="-369.5" font-family="Helvetica,sans-Serif" font-size="10.00"> tagger_</text>
</g>
<!-- Node12&#45;&gt;Node27 -->
<g id="edge42" class="edge"><title>Node12&#45;&gt;Node27</title>
<path fill="none" stroke="orange" stroke-dasharray="5,2" d="M764.773,-280.907C773.62,-272.246 783.313,-262.574 792,-253.5 800.27,-244.862 799.471,-239.17 810,-233.5 865.01,-203.878 896.829,-246.877 949,-212.5 961.667,-204.153 955.6,-193.508 967,-183.5 975.81,-175.766 986.671,-169.498 997.365,-164.551"/>
<polygon fill="orange" stroke="orange" points="762.304,-278.426 757.581,-287.91 767.187,-283.441 762.304,-278.426"/>
<text text-anchor="middle" x="879.5" y="-236.5" font-family="Helvetica,sans-Serif" font-size="10.00"> &lt; Doublet, WSemiBranch &gt;</text>
</g>
<!-- Node12&#45;&gt;Node31 -->
<g id="edge53" class="edge"><title>Node12&#45;&gt;Node31</title>
<path fill="none" stroke="orange" stroke-dasharray="5,2" d="M759.827,-337.012C773.257,-351.509 791.103,-368.368 810,-379.5 865.717,-412.323 903.869,-376.187 949,-422.5 969.622,-443.662 946.865,-464.874 967,-486.5 971.432,-491.26 976.765,-495.183 982.518,-498.415"/>
<polygon fill="orange" stroke="orange" points="762.133,-334.343 752.841,-329.253 756.931,-339.027 762.133,-334.343"/>
<text text-anchor="middle" x="879.5" y="-425.5" font-family="Helvetica,sans-Serif" font-size="10.00"> &lt; Doublet, HiggsBranch &gt;</text>
</g>
<!-- Node13 -->
<g id="node13" class="node"><title>Node13</title>
<polygon fill="white" stroke="#bfbfbf" points="511,-438 511,-457 599,-457 599,-438 511,-438"/>
<text text-anchor="middle" x="555" y="-445" font-family="Helvetica,sans-Serif" font-size="10.00">BranchTemplate</text>
</g>
<!-- Node13&#45;&gt;Node12 -->
<g id="edge13" class="edge"><title>Node13&#45;&gt;Node12</title>
<path fill="none" stroke="#9a32cd" stroke-dasharray="5,2" d="M576.513,-431.481C608.911,-406.182 671.905,-356.99 707.622,-329.099"/>
<polygon fill="#9a32cd" stroke="#9a32cd" points="573.962,-429.033 568.235,-437.946 578.27,-434.55 573.962,-429.033"/>
<text text-anchor="middle" x="641" y="-398.5" font-family="Helvetica,sans-Serif" font-size="10.00"> branch_</text>
</g>
<!-- Node14 -->
<g id="node14" class="node"><title>Node14</title>
<g id="a_node14"><a xlink:href="../../de/d69/classboca_1_1Reader.html" target="_top" xlink:title="boca::Reader\&lt; standardmodel\l::TopLeptonicTagger \&gt;">
<polygon fill="white" stroke="black" points="2125,-354.5 2125,-384.5 2273,-384.5 2273,-354.5 2125,-354.5"/>
<text text-anchor="start" x="2133" y="-372.5" font-family="Helvetica,sans-Serif" font-size="10.00">boca::Reader&lt; standardmodel</text>
<text text-anchor="middle" x="2199" y="-361.5" font-family="Helvetica,sans-Serif" font-size="10.00">::TopLeptonicTagger &gt;</text>
</a>
</g>
</g>
<!-- Node14&#45;&gt;Node1 -->
<g id="edge14" class="edge"><title>Node14&#45;&gt;Node1</title>
<path fill="none" stroke="#9a32cd" stroke-dasharray="5,2" d="M2283.27,-369.5C2312.6,-369.5 2345.1,-369.5 2372.63,-369.5"/>
<polygon fill="#9a32cd" stroke="#9a32cd" points="2283.04,-366 2273.04,-369.5 2283.04,-373 2283.04,-366"/>
<text text-anchor="middle" x="2323" y="-372.5" font-family="Helvetica,sans-Serif" font-size="10.00"> top_reader_</text>
</g>
<!-- Node15 -->
<g id="node15" class="node"><title>Node15</title>
<g id="a_node15"><a xlink:href="../../d1/da0/classboca_1_1ReaderBase.html" target="_top" xlink:title="boca::ReaderBase">
<polygon fill="white" stroke="black" points="994,-398 994,-417 1092,-417 1092,-398 994,-398"/>
<text text-anchor="middle" x="1043" y="-405" font-family="Helvetica,sans-Serif" font-size="10.00">boca::ReaderBase</text>
</a>
</g>
</g>
<!-- Node15&#45;&gt;Node14 -->
<g id="edge15" class="edge"><title>Node15&#45;&gt;Node14</title>
<path fill="none" stroke="midnightblue" d="M1091.36,-395.416C1170.83,-375.831 1336.34,-337.988 1479,-324.5 1616,-311.546 1766.26,-313.821 2053,-344.5 2076.5,-347.014 2101.94,-350.975 2124.86,-355.009"/>
<polygon fill="midnightblue" stroke="midnightblue" points="1090.05,-392.135 1081.19,-397.94 1091.74,-398.929 1090.05,-392.135"/>
</g>
<!-- Node20 -->
<g id="node20" class="node"><title>Node20</title>
<g id="a_node20"><a xlink:href="../../de/d69/classboca_1_1Reader.html" target="_top" xlink:title="boca::Reader\&lt; boca\l::standardmodel::BottomTagger \&gt;">
<polygon fill="white" stroke="black" points="1600,-519.5 1600,-549.5 1763,-549.5 1763,-519.5 1600,-519.5"/>
<text text-anchor="start" x="1608" y="-537.5" font-family="Helvetica,sans-Serif" font-size="10.00">boca::Reader&lt; boca</text>
<text text-anchor="middle" x="1681.5" y="-526.5" font-family="Helvetica,sans-Serif" font-size="10.00">::standardmodel::BottomTagger &gt;</text>
</a>
</g>
</g>
<!-- Node15&#45;&gt;Node20 -->
<g id="edge24" class="edge"><title>Node15&#45;&gt;Node20</title>
<path fill="none" stroke="midnightblue" d="M1095.45,-419.643C1103.38,-421.771 1111.44,-424.084 1119,-426.5 1127.18,-429.114 1128.83,-430.882 1137,-433.5 1286.37,-481.345 1324.14,-495.631 1479,-520.5 1518.47,-526.839 1562.75,-530.308 1599.72,-532.207"/>
<polygon fill="midnightblue" stroke="midnightblue" points="1096.08,-416.19 1085.52,-417.051 1094.31,-422.963 1096.08,-416.19"/>
</g>
<!-- Node15&#45;&gt;Node24 -->
<g id="edge33" class="edge"><title>Node15&#45;&gt;Node24</title>
<path fill="none" stroke="midnightblue" d="M1102.28,-411.688C1156.15,-415.559 1236.72,-421.348 1296.87,-425.671"/>
<polygon fill="midnightblue" stroke="midnightblue" points="1102.43,-408.19 1092.21,-410.964 1101.93,-415.172 1102.43,-408.19"/>
</g>
<!-- Node25 -->
<g id="node25" class="node"><title>Node25</title>
<g id="a_node25"><a xlink:href="../../de/d69/classboca_1_1Reader.html" target="_top" xlink:title="boca::Reader\&lt; boca\l::standardmodel::WLeptonic\lTagger \&gt;">
<polygon fill="white" stroke="black" points="1612,-349 1612,-390 1751,-390 1751,-349 1612,-349"/>
<text text-anchor="start" x="1620" y="-378" font-family="Helvetica,sans-Serif" font-size="10.00">boca::Reader&lt; boca</text>
<text text-anchor="start" x="1620" y="-367" font-family="Helvetica,sans-Serif" font-size="10.00">::standardmodel::WLeptonic</text>
<text text-anchor="middle" x="1681.5" y="-356" font-family="Helvetica,sans-Serif" font-size="10.00">Tagger &gt;</text>
</a>
</g>
</g>
<!-- Node15&#45;&gt;Node25 -->
<g id="edge36" class="edge"><title>Node15&#45;&gt;Node25</title>
<path fill="none" stroke="midnightblue" d="M1102.36,-404.016C1220.21,-396.98 1486.07,-381.108 1611.95,-373.593"/>
<polygon fill="midnightblue" stroke="midnightblue" points="1101.88,-400.538 1092.1,-404.628 1102.29,-407.526 1101.88,-400.538"/>
</g>
<!-- Node29 -->
<g id="node29" class="node"><title>Node29</title>
<g id="a_node29"><a xlink:href="../../de/d69/classboca_1_1Reader.html" target="_top" xlink:title="boca::Reader\&lt; standardmodel\l::HiggsTagger \&gt;">
<polygon fill="white" stroke="black" points="2125,-518.5 2125,-548.5 2273,-548.5 2273,-518.5 2125,-518.5"/>
<text text-anchor="start" x="2133" y="-536.5" font-family="Helvetica,sans-Serif" font-size="10.00">boca::Reader&lt; standardmodel</text>
<text text-anchor="middle" x="2199" y="-525.5" font-family="Helvetica,sans-Serif" font-size="10.00">::HiggsTagger &gt;</text>
</a>
</g>
</g>
<!-- Node15&#45;&gt;Node29 -->
<g id="edge46" class="edge"><title>Node15&#45;&gt;Node29</title>
<path fill="none" stroke="midnightblue" d="M1101.54,-415.991C1107.89,-418.633 1113.89,-422.061 1119,-426.5 1134.95,-440.357 1123.49,-454.253 1137,-470.5 1191.07,-535.533 1216.96,-546.184 1297,-573.5 1395.16,-606.999 1425.79,-593.5 1529.5,-593.5 1529.5,-593.5 1529.5,-593.5 2000.5,-593.5 2062.14,-593.5 2130.1,-566.415 2168.07,-548.641"/>
<polygon fill="midnightblue" stroke="midnightblue" points="1102.65,-412.672 1092.05,-412.655 1100.33,-419.275 1102.65,-412.672"/>
</g>
<!-- Node16 -->
<g id="node16" class="node"><title>Node16</title>
<g id="a_node16"><a xlink:href="../../d4/da8/classboca_1_1standardmodel_1_1TopLeptonicTagger.html" target="_top" xlink:title="Top leptonic BDT tagger. ">
<polygon fill="white" stroke="black" points="1946,-354.5 1946,-384.5 2053,-384.5 2053,-354.5 1946,-354.5"/>
<text text-anchor="start" x="1954" y="-372.5" font-family="Helvetica,sans-Serif" font-size="10.00">boca::standardmodel</text>
<text text-anchor="middle" x="1999.5" y="-361.5" font-family="Helvetica,sans-Serif" font-size="10.00">::TopLeptonicTagger</text>
</a>
</g>
</g>
<!-- Node16&#45;&gt;Node14 -->
<g id="edge16" class="edge"><title>Node16&#45;&gt;Node14</title>
<path fill="none" stroke="#9a32cd" stroke-dasharray="5,2" d="M2063.18,-369.5C2082.74,-369.5 2104.48,-369.5 2124.7,-369.5"/>
<polygon fill="#9a32cd" stroke="#9a32cd" points="2063.17,-366 2053.17,-369.5 2063.17,-373 2063.17,-366"/>
<text text-anchor="middle" x="2089" y="-372.5" font-family="Helvetica,sans-Serif" font-size="10.00"> tagger_</text>
</g>
<!-- Node17&#45;&gt;Node16 -->
<g id="edge17" class="edge"><title>Node17&#45;&gt;Node16</title>
<path fill="none" stroke="midnightblue" d="M1088.35,-227.274C1103.53,-233.009 1120.78,-238.777 1137,-242.5 1330.75,-286.974 1385.37,-258.268 1582,-287.5 1713.76,-307.088 1867.09,-339.894 1945.85,-357.487"/>
<polygon fill="midnightblue" stroke="midnightblue" points="1089.29,-223.885 1078.7,-223.532 1086.76,-230.411 1089.29,-223.885"/>
</g>
<!-- Node18&#45;&gt;Node17 -->
<g id="edge19" class="edge"><title>Node18&#45;&gt;Node17</title>
<path fill="none" stroke="#9a32cd" stroke-dasharray="5,2" d="M777.677,-210.735C788.031,-206.915 799.248,-203.466 810,-201.5 861.828,-192.023 921.233,-194.052 966.956,-198.307"/>
<polygon fill="#9a32cd" stroke="#9a32cd" points="776.109,-207.589 768.057,-214.475 778.646,-214.114 776.109,-207.589"/>
<text text-anchor="middle" x="879.5" y="-204.5" font-family="Helvetica,sans-Serif" font-size="10.00"> branch_</text>
</g>
<!-- Node19 -->
<g id="node19" class="node"><title>Node19</title>
<g id="a_node19"><a xlink:href="../../db/d5f/classboca_1_1BottomBase.html" target="_top" xlink:title="Bottom tagger root tree structure base class. ">
<polygon fill="white" stroke="black" points="506,-476 506,-495 604,-495 604,-476 506,-476"/>
<text text-anchor="middle" x="555" y="-483" font-family="Helvetica,sans-Serif" font-size="10.00">boca::BottomBase</text>
</a>
</g>
</g>
<!-- Node19&#45;&gt;Node18 -->
<g id="edge21" class="edge"><title>Node19&#45;&gt;Node18</title>
<path fill="none" stroke="midnightblue" d="M600.771,-469.914C601.925,-468.85 603.006,-467.714 604,-466.5 632.605,-431.557 605.568,-408.563 622,-366.5 638.868,-323.319 647.805,-313.676 678,-278.5 688.77,-265.953 702.77,-253.703 714.078,-244.59"/>
<polygon fill="midnightblue" stroke="midnightblue" points="598.416,-467.294 592.293,-475.941 602.471,-473 598.416,-467.294"/>
</g>
<!-- Node19&#45;&gt;Node23 -->
<g id="edge30" class="edge"><title>Node19&#45;&gt;Node23</title>
<path fill="none" stroke="midnightblue" d="M577.383,-501.28C589.895,-509.947 606.28,-520.354 622,-527.5 640.731,-536.014 662.215,-542.964 681.325,-548.252"/>
<polygon fill="midnightblue" stroke="midnightblue" points="579.204,-498.28 569.022,-495.348 575.153,-503.989 579.204,-498.28"/>
</g>
<!-- Node19&#45;&gt;Node32 -->
<g id="edge52" class="edge"><title>Node19&#45;&gt;Node32</title>
<path fill="none" stroke="midnightblue" d="M614.223,-481.248C635.875,-479.666 660.297,-477.883 681.414,-476.341"/>
<polygon fill="midnightblue" stroke="midnightblue" points="613.888,-477.763 604.169,-481.982 614.398,-484.744 613.888,-477.763"/>
</g>
<!-- Node20&#45;&gt;Node16 -->
<g id="edge23" class="edge"><title>Node20&#45;&gt;Node16</title>
<path fill="none" stroke="#9a32cd" stroke-dasharray="5,2" d="M1773.16,-535.71C1822.81,-532.242 1883.16,-520.872 1928,-489.5 1965.22,-463.46 1985.79,-410.95 1994.1,-384.891"/>
<polygon fill="#9a32cd" stroke="#9a32cd" points="1772.84,-532.223 1763.07,-536.318 1773.26,-539.211 1772.84,-532.223"/>
<text text-anchor="middle" x="1854.5" y="-538.5" font-family="Helvetica,sans-Serif" font-size="10.00"> bottom_reader_</text>
</g>
<!-- Node30 -->
<g id="node30" class="node"><title>Node30</title>
<g id="a_node30"><a xlink:href="../../d6/d30/classboca_1_1standardmodel_1_1HiggsTagger.html" target="_top" xlink:title="Semi leptonic heavy higgs BDT tagger. ">
<polygon fill="white" stroke="black" points="1946,-622.5 1946,-652.5 2053,-652.5 2053,-622.5 1946,-622.5"/>
<text text-anchor="start" x="1954" y="-640.5" font-family="Helvetica,sans-Serif" font-size="10.00">boca::standardmodel</text>
<text text-anchor="middle" x="1999.5" y="-629.5" font-family="Helvetica,sans-Serif" font-size="10.00">::HiggsTagger</text>
</a>
</g>
</g>
<!-- Node20&#45;&gt;Node30 -->
<g id="edge54" class="edge"><title>Node20&#45;&gt;Node30</title>
<path fill="none" stroke="#9a32cd" stroke-dasharray="5,2" d="M1741.21,-552.553C1791.06,-568.025 1864.41,-591.131 1928,-612.5 1937.36,-615.644 1947.37,-619.125 1956.83,-622.465"/>
<polygon fill="#9a32cd" stroke="#9a32cd" points="1742.15,-549.181 1731.56,-549.564 1740.08,-555.867 1742.15,-549.181"/>
<text text-anchor="middle" x="1854.5" y="-615.5" font-family="Helvetica,sans-Serif" font-size="10.00"> bottom_reader_</text>
</g>
<!-- Node21 -->
<g id="node21" class="node"><title>Node21</title>
<g id="a_node21"><a xlink:href="../../de/d6e/classboca_1_1standardmodel_1_1BottomTagger.html" target="_top" xlink:title="Derived Tagger class for bottom jets. ">
<polygon fill="white" stroke="black" points="1325.5,-534.5 1325.5,-564.5 1432.5,-564.5 1432.5,-534.5 1325.5,-534.5"/>
<text text-anchor="start" x="1333.5" y="-552.5" font-family="Helvetica,sans-Serif" font-size="10.00">boca::standardmodel</text>
<text text-anchor="middle" x="1379" y="-541.5" font-family="Helvetica,sans-Serif" font-size="10.00">::BottomTagger</text>
</a>
</g>
</g>
<!-- Node21&#45;&gt;Node20 -->
<g id="edge25" class="edge"><title>Node21&#45;&gt;Node20</title>
<path fill="none" stroke="#9a32cd" stroke-dasharray="5,2" d="M1442.91,-549.732C1482.8,-549.513 1535.47,-548.552 1582,-545.5 1587.84,-545.117 1593.86,-544.642 1599.92,-544.105"/>
<polygon fill="#9a32cd" stroke="#9a32cd" points="1442.78,-546.232 1432.8,-549.773 1442.81,-553.232 1442.78,-546.232"/>
<text text-anchor="middle" x="1530.5" y="-552.5" font-family="Helvetica,sans-Serif" font-size="10.00"> tagger_</text>
</g>
<!-- Node22&#45;&gt;Node21 -->
<g id="edge26" class="edge"><title>Node22&#45;&gt;Node21</title>
<path fill="none" stroke="midnightblue" d="M1108.78,-480.752C1112.4,-483.126 1115.84,-485.704 1119,-488.5 1130.94,-499.053 1123.71,-510.712 1137,-519.5 1193.27,-556.712 1273.34,-559.128 1325.48,-555.707"/>
<polygon fill="midnightblue" stroke="midnightblue" points="1110.47,-477.683 1100.08,-475.578 1106.89,-483.699 1110.47,-477.683"/>
</g>
<!-- Node23&#45;&gt;Node22 -->
<g id="edge28" class="edge"><title>Node23&#45;&gt;Node22</title>
<path fill="none" stroke="#9a32cd" stroke-dasharray="5,2" d="M758.27,-537.694C769.143,-525.928 782.002,-511.025 792,-496.5 801.695,-482.416 795.467,-471.508 810,-462.5 862.739,-429.81 935.982,-434.279 985.975,-443.03"/>
<polygon fill="#9a32cd" stroke="#9a32cd" points="755.421,-535.614 751.119,-545.296 760.52,-540.41 755.421,-535.614"/>
<text text-anchor="middle" x="879.5" y="-465.5" font-family="Helvetica,sans-Serif" font-size="10.00"> branch_</text>
</g>
<!-- Node24&#45;&gt;Node14 -->
<g id="edge44" class="edge"><title>Node24&#45;&gt;Node14</title>
<path fill="none" stroke="orange" stroke-dasharray="5,2" d="M1471.35,-429.787C1601.07,-426.572 1845.89,-417.619 2053,-393.5 2076.44,-390.77 2101.88,-386.879 2124.8,-383.023"/>
<polygon fill="orange" stroke="orange" points="1470.98,-426.295 1461.07,-430.035 1471.15,-433.293 1470.98,-426.295"/>
<text text-anchor="start" x="1786.5" y="-431.5" font-family="Helvetica,sans-Serif" font-size="10.00"> &lt; standardmodel::TopLeptonic</text>
<text text-anchor="middle" x="1854.5" y="-420.5" font-family="Helvetica,sans-Serif" font-size="10.00">Tagger &gt;</text>
</g>
<!-- Node24&#45;&gt;Node20 -->
<g id="edge32" class="edge"><title>Node24&#45;&gt;Node20</title>
<path fill="none" stroke="orange" stroke-dasharray="5,2" d="M1407.75,-445.619C1427.28,-455.108 1454.25,-467.326 1479,-475.5 1523.54,-490.209 1536.99,-485.31 1582,-498.5 1602.44,-504.49 1624.77,-512.525 1643,-519.483"/>
<polygon fill="orange" stroke="orange" points="1409.06,-442.358 1398.54,-441.076 1405.96,-448.637 1409.06,-442.358"/>
<text text-anchor="start" x="1479" y="-512.5" font-family="Helvetica,sans-Serif" font-size="10.00"> &lt; boca::standardmodel</text>
<text text-anchor="middle" x="1530.5" y="-501.5" font-family="Helvetica,sans-Serif" font-size="10.00">::BottomTagger &gt;</text>
</g>
<!-- Node24&#45;&gt;Node25 -->
<g id="edge43" class="edge"><title>Node24&#45;&gt;Node25</title>
<path fill="none" stroke="orange" stroke-dasharray="5,2" d="M1420.35,-419.016C1438.21,-413.77 1459.54,-407.881 1479,-403.5 1522.78,-393.645 1572.5,-385.228 1611.59,-379.233"/>
<polygon fill="orange" stroke="orange" points="1419.14,-415.726 1410.55,-421.933 1421.13,-422.435 1419.14,-415.726"/>
<text text-anchor="start" x="1479" y="-417.5" font-family="Helvetica,sans-Serif" font-size="10.00"> &lt; boca::standardmodel</text>
<text text-anchor="middle" x="1530.5" y="-406.5" font-family="Helvetica,sans-Serif" font-size="10.00">::WLeptonicTagger &gt;</text>
</g>
<!-- Node24&#45;&gt;Node29 -->
<g id="edge55" class="edge"><title>Node24&#45;&gt;Node29</title>
<path fill="none" stroke="orange" stroke-dasharray="5,2" d="M1471.22,-441.771C1473.84,-442.023 1476.44,-442.266 1479,-442.5 1678.24,-460.661 1729.98,-445.96 1928,-474.5 2002.2,-485.195 2086.41,-504.814 2140.76,-518.479"/>
<polygon fill="orange" stroke="orange" points="1471.31,-438.264 1461.01,-440.765 1470.62,-445.23 1471.31,-438.264"/>
<text text-anchor="middle" x="1854.5" y="-477.5" font-family="Helvetica,sans-Serif" font-size="10.00"> &lt; standardmodel::HiggsTagger &gt;</text>
</g>
<!-- Node25&#45;&gt;Node16 -->
<g id="edge35" class="edge"><title>Node25&#45;&gt;Node16</title>
<path fill="none" stroke="#9a32cd" stroke-dasharray="5,2" d="M1761.22,-369.5C1818.8,-369.5 1895.34,-369.5 1945.71,-369.5"/>
<polygon fill="#9a32cd" stroke="#9a32cd" points="1761.07,-366 1751.07,-369.5 1761.07,-373 1761.07,-366"/>
<text text-anchor="middle" x="1854.5" y="-372.5" font-family="Helvetica,sans-Serif" font-size="10.00"> w_leptonic_reader_</text>
</g>
<!-- Node26 -->
<g id="node26" class="node"><title>Node26</title>
<g id="a_node26"><a xlink:href="../../d4/d9e/classboca_1_1standardmodel_1_1WLeptonicTagger.html" target="_top" xlink:title="Semi leptonic top BDT tagger. ">
<polygon fill="white" stroke="black" points="1325.5,-214.5 1325.5,-244.5 1432.5,-244.5 1432.5,-214.5 1325.5,-214.5"/>
<text text-anchor="start" x="1333.5" y="-232.5" font-family="Helvetica,sans-Serif" font-size="10.00">boca::standardmodel</text>
<text text-anchor="middle" x="1379" y="-221.5" font-family="Helvetica,sans-Serif" font-size="10.00">::WLeptonicTagger</text>
</a>
</g>
</g>
<!-- Node26&#45;&gt;Node25 -->
<g id="edge37" class="edge"><title>Node26&#45;&gt;Node25</title>
<path fill="none" stroke="#9a32cd" stroke-dasharray="5,2" d="M1421.79,-248.971C1478.3,-275.295 1578.6,-322.028 1636.31,-348.914"/>
<polygon fill="#9a32cd" stroke="#9a32cd" points="1422.99,-245.666 1412.44,-244.615 1420.03,-252.011 1422.99,-245.666"/>
<text text-anchor="middle" x="1530.5" y="-323.5" font-family="Helvetica,sans-Serif" font-size="10.00"> tagger_</text>
</g>
<!-- Node27&#45;&gt;Node26 -->
<g id="edge38" class="edge"><title>Node27&#45;&gt;Node26</title>
<path fill="none" stroke="midnightblue" d="M1121.71,-155.019C1168.09,-159.717 1227.74,-168.242 1279,-183.5 1304.43,-191.07 1331.65,-204.118 1351.1,-214.388"/>
<polygon fill="midnightblue" stroke="midnightblue" points="1122.01,-151.532 1111.72,-154.046 1121.33,-158.499 1122.01,-151.532"/>
</g>
<!-- Node28&#45;&gt;Node27 -->
<g id="edge40" class="edge"><title>Node28&#45;&gt;Node27</title>
<path fill="none" stroke="#9a32cd" stroke-dasharray="5,2" d="M798.845,-103.269C841.566,-104.173 899.158,-107.474 949,-117.5 968.083,-121.339 988.613,-128.104 1005.52,-134.429"/>
<polygon fill="#9a32cd" stroke="#9a32cd" points="798.652,-99.7648 788.593,-103.091 798.531,-106.764 798.652,-99.7648"/>
<text text-anchor="middle" x="879.5" y="-120.5" font-family="Helvetica,sans-Serif" font-size="10.00"> branch_</text>
</g>
<!-- Node29&#45;&gt;Node1 -->
<g id="edge45" class="edge"><title>Node29&#45;&gt;Node1</title>
<path fill="none" stroke="#9a32cd" stroke-dasharray="5,2" d="M2230.38,-512.477C2278.9,-478.903 2372.72,-413.981 2415.18,-384.598"/>
<polygon fill="#9a32cd" stroke="#9a32cd" points="2228.1,-509.797 2221.87,-518.365 2232.09,-515.553 2228.1,-509.797"/>
<text text-anchor="middle" x="2323" y="-469.5" font-family="Helvetica,sans-Serif" font-size="10.00"> higgs_reader_</text>
</g>
<!-- Node30&#45;&gt;Node29 -->
<g id="edge47" class="edge"><title>Node30&#45;&gt;Node29</title>
<path fill="none" stroke="#9a32cd" stroke-dasharray="5,2" d="M2062.74,-624.558C2077.69,-620.216 2093.29,-614.612 2107,-607.5 2137,-591.931 2166.36,-565.438 2183.29,-548.735"/>
<polygon fill="#9a32cd" stroke="#9a32cd" points="2061.74,-621.201 2053.03,-627.231 2063.6,-627.95 2061.74,-621.201"/>
<text text-anchor="middle" x="2089" y="-624.5" font-family="Helvetica,sans-Serif" font-size="10.00"> tagger_</text>
</g>
<!-- Node31&#45;&gt;Node30 -->
<g id="edge48" class="edge"><title>Node31&#45;&gt;Node30</title>
<path fill="none" stroke="midnightblue" d="M1083.44,-532.934C1132.21,-555.833 1218.44,-592.643 1297,-607.5 1535.95,-652.692 1828.5,-645.667 1945.99,-640.365"/>
<polygon fill="midnightblue" stroke="midnightblue" points="1084.73,-529.673 1074.19,-528.55 1081.73,-535.998 1084.73,-529.673"/>
</g>
<!-- Node32&#45;&gt;Node31 -->
<g id="edge50" class="edge"><title>Node32&#45;&gt;Node31</title>
<path fill="none" stroke="#9a32cd" stroke-dasharray="5,2" d="M798.995,-475.743C841.55,-478.515 898.892,-483.381 949,-491.5 960.465,-493.358 972.613,-495.844 984.214,-498.477"/>
<polygon fill="#9a32cd" stroke="#9a32cd" points="798.982,-472.235 788.782,-475.099 798.542,-479.221 798.982,-472.235"/>
<text text-anchor="middle" x="879.5" y="-494.5" font-family="Helvetica,sans-Serif" font-size="10.00"> branch_</text>
</g>
</g>
</svg>
