<?xml version="1.0" encoding="UTF-8" standalone="no"?>
<!DOCTYPE svg PUBLIC "-//W3C//DTD SVG 1.1//EN"
 "http://www.w3.org/Graphics/SVG/1.1/DTD/svg11.dtd">
<!-- Generated by graphviz version 2.38.0 (20140413.2041)
 -->
<!-- Title: heavyhiggs::branch::ChargedHiggsLeptonic Pages: 1 -->
<svg width="130pt" height="431pt"
 viewBox="0.00 0.00 130.00 431.00" xmlns="http://www.w3.org/2000/svg" xmlns:xlink="http://www.w3.org/1999/xlink">
<g id="graph0" class="graph" transform="scale(1 1) rotate(0) translate(4 427)">
<title>heavyhiggs::branch::ChargedHiggsLeptonic</title>
<polygon fill="white" stroke="none" points="-4,4 -4,-427 126,-427 126,4 -4,4"/>
<!-- Node1 -->
<g id="node1" class="node"><title>Node1</title>
<polygon fill="#bfbfbf" stroke="black" points="0,-0.5 0,-30.5 122,-30.5 122,-0.5 0,-0.5"/>
<text text-anchor="start" x="8" y="-18.5" font-family="Helvetica,sans-Serif" font-size="10.00">heavyhiggs::branch</text>
<text text-anchor="middle" x="61" y="-7.5" font-family="Helvetica,sans-Serif" font-size="10.00">::ChargedHiggsLeptonic</text>
</g>
<!-- Node2 -->
<g id="node2" class="node"><title>Node2</title>
<g id="a_node2"><a xlink:href="../../d2/dfe/classboca_1_1branch_1_1Multi.html" target="_top" xlink:title="boca::branch::Multi">
<polygon fill="white" stroke="black" points="11,-67.5 11,-86.5 111,-86.5 111,-67.5 11,-67.5"/>
<text text-anchor="middle" x="61" y="-74.5" font-family="Helvetica,sans-Serif" font-size="10.00">boca::branch::Multi</text>
</a>
</g>
</g>
<!-- Node2&#45;&gt;Node1 -->
<g id="edge1" class="edge"><title>Node2&#45;&gt;Node1</title>
<path fill="none" stroke="midnightblue" d="M61,-57.2349C61,-48.5864 61,-38.4969 61,-30.523"/>
<polygon fill="midnightblue" stroke="midnightblue" points="57.5001,-57.4751 61,-67.4751 64.5001,-57.4751 57.5001,-57.4751"/>
</g>
<!-- Node3 -->
<g id="node3" class="node"><title>Node3</title>
<g id="a_node3"><a xlink:href="../../d0/d51/classboca_1_1branch_1_1TwoBody.html" target="_top" xlink:title="boca::branch::TwoBody">
<polygon fill="white" stroke="black" points="1,-123.5 1,-142.5 121,-142.5 121,-123.5 1,-123.5"/>
<text text-anchor="middle" x="61" y="-130.5" font-family="Helvetica,sans-Serif" font-size="10.00">boca::branch::TwoBody</text>
</a>
</g>
</g>
<!-- Node3&#45;&gt;Node2 -->
<g id="edge2" class="edge"><title>Node3&#45;&gt;Node2</title>
<path fill="none" stroke="midnightblue" d="M61,-112.805C61,-103.91 61,-93.7798 61,-86.7511"/>
<polygon fill="midnightblue" stroke="midnightblue" points="57.5001,-113.083 61,-123.083 64.5001,-113.083 57.5001,-113.083"/>
</g>
<!-- Node4 -->
<g id="node4" class="node"><title>Node4</title>
<g id="a_node4"><a xlink:href="../../d6/d92/classboca_1_1branch_1_1Particle.html" target="_top" xlink:title="Class for saving event informations to root. ">
<polygon fill="white" stroke="black" points="5,-179.5 5,-198.5 117,-198.5 117,-179.5 5,-179.5"/>
<text text-anchor="middle" x="61" y="-186.5" font-family="Helvetica,sans-Serif" font-size="10.00">boca::branch::Particle</text>
</a>
</g>
</g>
<!-- Node4&#45;&gt;Node3 -->
<g id="edge3" class="edge"><title>Node4&#45;&gt;Node3</title>
<path fill="none" stroke="midnightblue" d="M61,-168.805C61,-159.91 61,-149.78 61,-142.751"/>
<polygon fill="midnightblue" stroke="midnightblue" points="57.5001,-169.083 61,-179.083 64.5001,-169.083 57.5001,-169.083"/>
</g>
<!-- Node5 -->
<g id="node5" class="node"><title>Node5</title>
<g id="a_node5"><a xlink:href="../../d0/d6b/classboca_1_1branch_1_1Bdt.html" target="_top" xlink:title="boca::branch::Bdt">
<polygon fill="white" stroke="black" points="14,-235.5 14,-254.5 108,-254.5 108,-235.5 14,-235.5"/>
<text text-anchor="middle" x="61" y="-242.5" font-family="Helvetica,sans-Serif" font-size="10.00">boca::branch::Bdt</text>
</a>
</g>
</g>
<!-- Node5&#45;&gt;Node4 -->
<g id="edge4" class="edge"><title>Node5&#45;&gt;Node4</title>
<path fill="none" stroke="midnightblue" d="M61,-224.805C61,-215.91 61,-205.78 61,-198.751"/>
<polygon fill="midnightblue" stroke="midnightblue" points="57.5001,-225.083 61,-235.083 64.5001,-225.083 57.5001,-225.083"/>
</g>
<!-- Node6 -->
<g id="node6" class="node"><title>Node6</title>
<g id="a_node6"><a xlink:href="../../d3/d39/classboca_1_1branch_1_1Result.html" target="_top" xlink:title="boca::branch::Result">
<polygon fill="white" stroke="black" points="7.5,-291.5 7.5,-310.5 114.5,-310.5 114.5,-291.5 7.5,-291.5"/>
<text text-anchor="middle" x="61" y="-298.5" font-family="Helvetica,sans-Serif" font-size="10.00">boca::branch::Result</text>
</a>
</g>
</g>
<!-- Node6&#45;&gt;Node5 -->
<g id="edge5" class="edge"><title>Node6&#45;&gt;Node5</title>
<path fill="none" stroke="midnightblue" d="M61,-280.805C61,-271.91 61,-261.78 61,-254.751"/>
<polygon fill="midnightblue" stroke="midnightblue" points="57.5001,-281.083 61,-291.083 64.5001,-281.083 57.5001,-281.083"/>
</g>
<!-- Node7 -->
<g id="node7" class="node"><title>Node7</title>
<g id="a_node7"><a xlink:href="../../df/d34/classboca_1_1branch_1_1Base.html" target="_top" xlink:title="Basic tree branches. ">
<polygon fill="white" stroke="black" points="10.5,-347.5 10.5,-366.5 111.5,-366.5 111.5,-347.5 10.5,-347.5"/>
<text text-anchor="middle" x="61" y="-354.5" font-family="Helvetica,sans-Serif" font-size="10.00">boca::branch::Base</text>
</a>
</g>
</g>
<!-- Node7&#45;&gt;Node6 -->
<g id="edge6" class="edge"><title>Node7&#45;&gt;Node6</title>
<path fill="none" stroke="midnightblue" d="M61,-336.805C61,-327.91 61,-317.78 61,-310.751"/>
<polygon fill="midnightblue" stroke="midnightblue" points="57.5001,-337.083 61,-347.083 64.5001,-337.083 57.5001,-337.083"/>
</g>
<!-- Node8 -->
<g id="node8" class="node"><title>Node8</title>
<polygon fill="white" stroke="#bfbfbf" points="35.5,-403.5 35.5,-422.5 86.5,-422.5 86.5,-403.5 35.5,-403.5"/>
<text text-anchor="middle" x="61" y="-410.5" font-family="Helvetica,sans-Serif" font-size="10.00">TObject</text>
</g>
<!-- Node8&#45;&gt;Node7 -->
<g id="edge7" class="edge"><title>Node8&#45;&gt;Node7</title>
<path fill="none" stroke="midnightblue" d="M61,-392.805C61,-383.91 61,-373.78 61,-366.751"/>
<polygon fill="midnightblue" stroke="midnightblue" points="57.5001,-393.083 61,-403.083 64.5001,-393.083 57.5001,-393.083"/>
</g>
</g>
</svg>
