<?xml version="1.0" encoding="UTF-8" standalone="no"?>
<!DOCTYPE svg PUBLIC "-//W3C//DTD SVG 1.1//EN"
 "http://www.w3.org/Graphics/SVG/1.1/DTD/svg11.dtd">
<!-- Generated by graphviz version 2.38.0 (20140413.2041)
 -->
<!-- Title: include/ThreeBody.hh Pages: 1 -->
<svg width="2877pt" height="419pt"
 viewBox="0.00 0.00 2877.00 419.00" xmlns="http://www.w3.org/2000/svg" xmlns:xlink="http://www.w3.org/1999/xlink">
<g id="graph0" class="graph" transform="scale(1 1) rotate(0) translate(4 415)">
<title>include/ThreeBody.hh</title>
<polygon fill="white" stroke="none" points="-4,4 -4,-415 2873,-415 2873,4 -4,4"/>
<!-- Node1 -->
<g id="node1" class="node"><title>Node1</title>
<polygon fill="#bfbfbf" stroke="black" points="1929,-391.5 1929,-410.5 2040,-410.5 2040,-391.5 1929,-391.5"/>
<text text-anchor="middle" x="1984.5" y="-398.5" font-family="Helvetica,sans-Serif" font-size="10.00">include/ThreeBody.hh</text>
</g>
<!-- Node2 -->
<g id="node2" class="node"><title>Node2</title>
<g id="a_node2"><a xlink:href="../../d5/d38/Quartet_8hh.html" target="_top" xlink:title="include/Quartet.hh">
<polygon fill="white" stroke="black" points="2111.5,-335.5 2111.5,-354.5 2207.5,-354.5 2207.5,-335.5 2111.5,-335.5"/>
<text text-anchor="middle" x="2159.5" y="-342.5" font-family="Helvetica,sans-Serif" font-size="10.00">include/Quartet.hh</text>
</a>
</g>
</g>
<!-- Node1&#45;&gt;Node2 -->
<g id="edge1" class="edge"><title>Node1&#45;&gt;Node2</title>
<path fill="none" stroke="midnightblue" d="M2021.97,-388.436C2054.97,-378.255 2102.26,-363.664 2131.9,-354.516"/>
<polygon fill="midnightblue" stroke="midnightblue" points="2020.75,-385.151 2012.23,-391.444 2022.82,-391.839 2020.75,-385.151"/>
</g>
<!-- Node12 -->
<g id="node12" class="node"><title>Node12</title>
<g id="a_node12"><a xlink:href="../../d8/dfe/Octet_8hh.html" target="_top" xlink:title="include/Octet.hh">
<polygon fill="white" stroke="black" points="1491.5,-274 1491.5,-293 1579.5,-293 1579.5,-274 1491.5,-274"/>
<text text-anchor="middle" x="1535.5" y="-281" font-family="Helvetica,sans-Serif" font-size="10.00">include/Octet.hh</text>
</a>
</g>
</g>
<!-- Node1&#45;&gt;Node12 -->
<g id="edge58" class="edge"><title>Node1&#45;&gt;Node12</title>
<path fill="none" stroke="midnightblue" d="M1940.49,-389.039C1867.32,-370.759 1716.09,-332.721 1588.5,-299 1581.31,-297.099 1573.58,-295.01 1566.3,-293.024"/>
<polygon fill="midnightblue" stroke="midnightblue" points="1939.73,-392.458 1950.28,-391.485 1941.43,-385.667 1939.73,-392.458"/>
</g>
<!-- Node3 -->
<g id="node3" class="node"><title>Node3</title>
<g id="a_node3"><a xlink:href="../../df/d6f/ChargedHiggsSemiTagger_8hh.html" target="_top" xlink:title="HeavyHiggs/include\l/ChargedHiggsSemiTagger.hh">
<polygon fill="white" stroke="black" points="1597.5,-268.5 1597.5,-298.5 1745.5,-298.5 1745.5,-268.5 1597.5,-268.5"/>
<text text-anchor="start" x="1605.5" y="-286.5" font-family="Helvetica,sans-Serif" font-size="10.00">HeavyHiggs/include</text>
<text text-anchor="middle" x="1671.5" y="-275.5" font-family="Helvetica,sans-Serif" font-size="10.00">/ChargedHiggsSemiTagger.hh</text>
</a>
</g>
</g>
<!-- Node2&#45;&gt;Node3 -->
<g id="edge2" class="edge"><title>Node2&#45;&gt;Node3</title>
<path fill="none" stroke="midnightblue" d="M2101.16,-338.669C2022.33,-331.204 1877.49,-316.559 1754.5,-299 1751.6,-298.587 1748.65,-298.149 1745.68,-297.694"/>
<polygon fill="midnightblue" stroke="midnightblue" points="2101.09,-342.178 2111.37,-339.631 2101.74,-335.209 2101.09,-342.178"/>
</g>
<!-- Node10 -->
<g id="node10" class="node"><title>Node10</title>
<g id="a_node10"><a xlink:href="../../d8/dce/HeavyHiggsLeptonicTagger_8cpp.html" target="_top" xlink:title="HeavyHiggs/source/HeavyHiggs\lLeptonicTagger.cpp">
<polygon fill="white" stroke="black" points="1763.5,-268.5 1763.5,-298.5 1923.5,-298.5 1923.5,-268.5 1763.5,-268.5"/>
<text text-anchor="start" x="1771.5" y="-286.5" font-family="Helvetica,sans-Serif" font-size="10.00">HeavyHiggs/source/HeavyHiggs</text>
<text text-anchor="middle" x="1843.5" y="-275.5" font-family="Helvetica,sans-Serif" font-size="10.00">LeptonicTagger.cpp</text>
</a>
</g>
</g>
<!-- Node2&#45;&gt;Node10 -->
<g id="edge9" class="edge"><title>Node2&#45;&gt;Node10</title>
<path fill="none" stroke="midnightblue" d="M2104.25,-333.597C2052.6,-323.872 1975.07,-309.274 1917.97,-298.523"/>
<polygon fill="midnightblue" stroke="midnightblue" points="2103.75,-337.064 2114.22,-335.475 2105.05,-330.185 2103.75,-337.064"/>
</g>
<!-- Node11 -->
<g id="node11" class="node"><title>Node11</title>
<g id="a_node11"><a xlink:href="../../d4/db4/TopLeptonicPairTagger_8cpp.html" target="_top" xlink:title="HiggsCpv/source/TopLeptonic\lPairTagger.cpp">
<polygon fill="white" stroke="black" points="1942,-268.5 1942,-298.5 2091,-298.5 2091,-268.5 1942,-268.5"/>
<text text-anchor="start" x="1950" y="-286.5" font-family="Helvetica,sans-Serif" font-size="10.00">HiggsCpv/source/TopLeptonic</text>
<text text-anchor="middle" x="2016.5" y="-275.5" font-family="Helvetica,sans-Serif" font-size="10.00">PairTagger.cpp</text>
</a>
</g>
</g>
<!-- Node2&#45;&gt;Node11 -->
<g id="edge10" class="edge"><title>Node2&#45;&gt;Node11</title>
<path fill="none" stroke="midnightblue" d="M2129.67,-331.59C2106.49,-321.942 2074.32,-308.558 2050.2,-298.523"/>
<polygon fill="midnightblue" stroke="midnightblue" points="2128.43,-334.865 2139.01,-335.475 2131.12,-328.402 2128.43,-334.865"/>
</g>
<!-- Node2&#45;&gt;Node12 -->
<g id="edge11" class="edge"><title>Node2&#45;&gt;Node12</title>
<path fill="none" stroke="midnightblue" d="M2101.1,-343.019C1997.23,-340.471 1773.89,-331.366 1588.5,-299 1580.04,-297.523 1570.98,-295.293 1562.79,-293.021"/>
<polygon fill="midnightblue" stroke="midnightblue" points="2101.29,-346.524 2111.37,-343.259 2101.45,-339.526 2101.29,-346.524"/>
</g>
<!-- Node37 -->
<g id="node37" class="node"><title>Node37</title>
<g id="a_node37"><a xlink:href="../../de/d7d/Quattuordecuplet_8hh.html" target="_top" xlink:title="TopPartner/include\l/Quattuordecuplet.hh">
<polygon fill="white" stroke="black" points="2240,-134.5 2240,-164.5 2347,-164.5 2347,-134.5 2240,-134.5"/>
<text text-anchor="start" x="2248" y="-152.5" font-family="Helvetica,sans-Serif" font-size="10.00">TopPartner/include</text>
<text text-anchor="middle" x="2293.5" y="-141.5" font-family="Helvetica,sans-Serif" font-size="10.00">/Quattuordecuplet.hh</text>
</a>
</g>
</g>
<!-- Node2&#45;&gt;Node37 -->
<g id="edge55" class="edge"><title>Node2&#45;&gt;Node37</title>
<path fill="none" stroke="midnightblue" d="M2218.11,-342.843C2340.15,-339.825 2612.55,-329.69 2640.5,-299 2651.42,-287.007 2661.57,-225.684 2639.5,-201 2597.24,-153.742 2418.91,-176.123 2356.5,-165 2353.41,-164.449 2350.24,-163.844 2347.04,-163.205"/>
<polygon fill="midnightblue" stroke="midnightblue" points="2217.75,-339.35 2207.84,-343.089 2217.92,-346.348 2217.75,-339.35"/>
</g>
<!-- Node43 -->
<g id="node43" class="node"><title>Node43</title>
<g id="a_node43"><a xlink:href="../../dc/d18/TripletJetPairTagger_8hh.html" target="_top" xlink:title="include/TripletJetPairTagger.hh">
<polygon fill="white" stroke="black" points="2363.5,-274 2363.5,-293 2515.5,-293 2515.5,-274 2363.5,-274"/>
<text text-anchor="middle" x="2439.5" y="-281" font-family="Helvetica,sans-Serif" font-size="10.00">include/TripletJetPairTagger.hh</text>
</a>
</g>
</g>
<!-- Node2&#45;&gt;Node43 -->
<g id="edge47" class="edge"><title>Node2&#45;&gt;Node43</title>
<path fill="none" stroke="midnightblue" d="M2209.71,-333.33C2264.01,-321.792 2349.49,-303.628 2399.46,-293.009"/>
<polygon fill="midnightblue" stroke="midnightblue" points="2208.67,-329.973 2199.62,-335.475 2210.13,-336.82 2208.67,-329.973"/>
</g>
<!-- Node45 -->
<g id="node45" class="node"><title>Node45</title>
<g id="a_node45"><a xlink:href="../../da/dd6/Quartet_8cpp.html" target="_top" xlink:title="source/Quartet.cpp">
<polygon fill="white" stroke="black" points="2109.5,-274 2109.5,-293 2209.5,-293 2209.5,-274 2109.5,-274"/>
<text text-anchor="middle" x="2159.5" y="-281" font-family="Helvetica,sans-Serif" font-size="10.00">source/Quartet.cpp</text>
</a>
</g>
</g>
<!-- Node2&#45;&gt;Node45 -->
<g id="edge50" class="edge"><title>Node2&#45;&gt;Node45</title>
<path fill="none" stroke="midnightblue" d="M2159.5,-325.317C2159.5,-314.496 2159.5,-301.398 2159.5,-293.009"/>
<polygon fill="midnightblue" stroke="midnightblue" points="2156,-325.475 2159.5,-335.475 2163,-325.475 2156,-325.475"/>
</g>
<!-- Node46 -->
<g id="node46" class="node"><title>Node46</title>
<g id="a_node46"><a xlink:href="../../de/de9/WimpMass_8cpp.html" target="_top" xlink:title="source/WimpMass.cpp">
<polygon fill="white" stroke="black" points="2228,-274 2228,-293 2345,-293 2345,-274 2228,-274"/>
<text text-anchor="middle" x="2286.5" y="-281" font-family="Helvetica,sans-Serif" font-size="10.00">source/WimpMass.cpp</text>
</a>
</g>
</g>
<!-- Node2&#45;&gt;Node46 -->
<g id="edge51" class="edge"><title>Node2&#45;&gt;Node46</title>
<path fill="none" stroke="midnightblue" d="M2186.88,-331.174C2211.52,-319.629 2247.04,-302.987 2268.34,-293.009"/>
<polygon fill="midnightblue" stroke="midnightblue" points="2185.27,-328.063 2177.7,-335.475 2188.24,-334.402 2185.27,-328.063"/>
</g>
<!-- Node47 -->
<g id="node47" class="node"><title>Node47</title>
<g id="a_node47"><a xlink:href="../../df/d20/HiggsPairTagger_8hh.html" target="_top" xlink:title="TopPartner/include\l/HiggsPairTagger.hh">
<polygon fill="white" stroke="black" points="2687.5,-268.5 2687.5,-298.5 2793.5,-298.5 2793.5,-268.5 2687.5,-268.5"/>
<text text-anchor="start" x="2695.5" y="-286.5" font-family="Helvetica,sans-Serif" font-size="10.00">TopPartner/include</text>
<text text-anchor="middle" x="2740.5" y="-275.5" font-family="Helvetica,sans-Serif" font-size="10.00">/HiggsPairTagger.hh</text>
</a>
</g>
</g>
<!-- Node2&#45;&gt;Node47 -->
<g id="edge52" class="edge"><title>Node2&#45;&gt;Node47</title>
<path fill="none" stroke="midnightblue" d="M2217.61,-341.299C2313.15,-336.324 2509.21,-323.868 2673.5,-299 2677.97,-298.323 2682.59,-297.528 2687.22,-296.664"/>
<polygon fill="midnightblue" stroke="midnightblue" points="2217.38,-337.806 2207.57,-341.813 2217.74,-344.797 2217.38,-337.806"/>
</g>
<!-- Node49 -->
<g id="node49" class="node"><title>Node49</title>
<g id="a_node49"><a xlink:href="../../d9/de4/Nonet_8hh.html" target="_top" xlink:title="TopPartner/include\l/Nonet.hh">
<polygon fill="white" stroke="black" points="2533.5,-268.5 2533.5,-298.5 2631.5,-298.5 2631.5,-268.5 2533.5,-268.5"/>
<text text-anchor="start" x="2541.5" y="-286.5" font-family="Helvetica,sans-Serif" font-size="10.00">TopPartner/include</text>
<text text-anchor="middle" x="2582.5" y="-275.5" font-family="Helvetica,sans-Serif" font-size="10.00">/Nonet.hh</text>
</a>
</g>
</g>
<!-- Node2&#45;&gt;Node49 -->
<g id="edge56" class="edge"><title>Node2&#45;&gt;Node49</title>
<path fill="none" stroke="midnightblue" d="M2217.89,-339.022C2290.24,-332.344 2417.11,-318.967 2524.5,-299 2527.36,-298.469 2530.28,-297.88 2533.23,-297.253"/>
<polygon fill="midnightblue" stroke="midnightblue" points="2217.26,-335.565 2207.62,-339.958 2217.89,-342.536 2217.26,-335.565"/>
</g>
<!-- Node4 -->
<g id="node4" class="node"><title>Node4</title>
<g id="a_node4"><a xlink:href="../../dd/d61/SignatureChargedTagger_8hh.html" target="_top" xlink:title="HeavyHiggs/include\l/SignatureChargedTagger.hh">
<polygon fill="white" stroke="black" points="1993,-201.5 1993,-231.5 2134,-231.5 2134,-201.5 1993,-201.5"/>
<text text-anchor="start" x="2001" y="-219.5" font-family="Helvetica,sans-Serif" font-size="10.00">HeavyHiggs/include</text>
<text text-anchor="middle" x="2063.5" y="-208.5" font-family="Helvetica,sans-Serif" font-size="10.00">/SignatureChargedTagger.hh</text>
</a>
</g>
</g>
<!-- Node3&#45;&gt;Node4 -->
<g id="edge3" class="edge"><title>Node3&#45;&gt;Node4</title>
<path fill="none" stroke="midnightblue" d="M1755.81,-267.801C1857.82,-250.998 1885.09,-248.651 1983.5,-232 1986.56,-231.482 1989.69,-230.946 1992.85,-230.399"/>
<polygon fill="midnightblue" stroke="midnightblue" points="1755,-264.388 1745.7,-269.473 1756.14,-271.294 1755,-264.388"/>
</g>
<!-- Node9 -->
<g id="node9" class="node"><title>Node9</title>
<g id="a_node9"><a xlink:href="../../df/d31/ChargedHiggsSemiTagger_8cpp.html" target="_top" xlink:title="HeavyHiggs/source/Charged\lHiggsSemiTagger.cpp">
<polygon fill="white" stroke="black" points="2152,-201.5 2152,-231.5 2295,-231.5 2295,-201.5 2152,-201.5"/>
<text text-anchor="start" x="2160" y="-219.5" font-family="Helvetica,sans-Serif" font-size="10.00">HeavyHiggs/source/Charged</text>
<text text-anchor="middle" x="2223.5" y="-208.5" font-family="Helvetica,sans-Serif" font-size="10.00">HiggsSemiTagger.cpp</text>
</a>
</g>
</g>
<!-- Node3&#45;&gt;Node9 -->
<g id="edge8" class="edge"><title>Node3&#45;&gt;Node9</title>
<path fill="none" stroke="midnightblue" d="M1755.83,-267.896C1927.91,-245.456 1974.15,-254.836 2142.5,-232 2145.61,-231.578 2148.79,-231.121 2152,-230.638"/>
<polygon fill="midnightblue" stroke="midnightblue" points="1755.12,-264.459 1745.67,-269.239 1756.04,-271.399 1755.12,-264.459"/>
</g>
<!-- Node5 -->
<g id="node5" class="node"><title>Node5</title>
<g id="a_node5"><a xlink:href="../../da/df5/EventChargedTagger_8hh.html" target="_top" xlink:title="HeavyHiggs/include\l/EventChargedTagger.hh">
<polygon fill="white" stroke="black" points="2032,-134.5 2032,-164.5 2157,-164.5 2157,-134.5 2032,-134.5"/>
<text text-anchor="start" x="2040" y="-152.5" font-family="Helvetica,sans-Serif" font-size="10.00">HeavyHiggs/include</text>
<text text-anchor="middle" x="2094.5" y="-141.5" font-family="Helvetica,sans-Serif" font-size="10.00">/EventChargedTagger.hh</text>
</a>
</g>
</g>
<!-- Node4&#45;&gt;Node5 -->
<g id="edge4" class="edge"><title>Node4&#45;&gt;Node5</title>
<path fill="none" stroke="midnightblue" d="M2074.57,-192.283C2078.99,-183.022 2083.93,-172.663 2087.79,-164.577"/>
<polygon fill="midnightblue" stroke="midnightblue" points="2071.37,-190.863 2070.23,-201.396 2077.69,-193.877 2071.37,-190.863"/>
</g>
<!-- Node8 -->
<g id="node8" class="node"><title>Node8</title>
<g id="a_node8"><a xlink:href="../../da/d27/SignatureChargedTagger_8cpp.html" target="_top" xlink:title="HeavyHiggs/source/Signature\lChargedTagger.cpp">
<polygon fill="white" stroke="black" points="2512,-134.5 2512,-164.5 2659,-164.5 2659,-134.5 2512,-134.5"/>
<text text-anchor="start" x="2520" y="-152.5" font-family="Helvetica,sans-Serif" font-size="10.00">HeavyHiggs/source/Signature</text>
<text text-anchor="middle" x="2585.5" y="-141.5" font-family="Helvetica,sans-Serif" font-size="10.00">ChargedTagger.cpp</text>
</a>
</g>
</g>
<!-- Node4&#45;&gt;Node8 -->
<g id="edge7" class="edge"><title>Node4&#45;&gt;Node8</title>
<path fill="none" stroke="midnightblue" d="M2144.24,-200.825C2303.46,-178.798 2346.46,-186.403 2502.5,-165 2505.54,-164.583 2508.65,-164.136 2511.78,-163.668"/>
<polygon fill="midnightblue" stroke="midnightblue" points="2143.51,-197.394 2134.09,-202.248 2144.48,-204.326 2143.51,-197.394"/>
</g>
<!-- Node6 -->
<g id="node6" class="node"><title>Node6</title>
<g id="a_node6"><a xlink:href="../../d8/db6/EventChargedTagger_8cpp.html" target="_top" xlink:title="HeavyHiggs/source/EventCharged\lTagger.cpp">
<polygon fill="white" stroke="black" points="2010.5,-67.5 2010.5,-97.5 2178.5,-97.5 2178.5,-67.5 2010.5,-67.5"/>
<text text-anchor="start" x="2018.5" y="-85.5" font-family="Helvetica,sans-Serif" font-size="10.00">HeavyHiggs/source/EventCharged</text>
<text text-anchor="middle" x="2094.5" y="-74.5" font-family="Helvetica,sans-Serif" font-size="10.00">Tagger.cpp</text>
</a>
</g>
</g>
<!-- Node5&#45;&gt;Node6 -->
<g id="edge5" class="edge"><title>Node5&#45;&gt;Node6</title>
<path fill="none" stroke="midnightblue" d="M2094.5,-124.108C2094.5,-115.154 2094.5,-105.323 2094.5,-97.5765"/>
<polygon fill="midnightblue" stroke="midnightblue" points="2091,-124.396 2094.5,-134.396 2098,-124.396 2091,-124.396"/>
</g>
<!-- Node7 -->
<g id="node7" class="node"><title>Node7</title>
<g id="a_node7"><a xlink:href="../../d3/d46/MainCharged_8cpp.html" target="_top" xlink:title="HeavyHiggs/source/MainCharged.cpp">
<polygon fill="white" stroke="black" points="1810.5,-73 1810.5,-92 1992.5,-92 1992.5,-73 1810.5,-73"/>
<text text-anchor="middle" x="1901.5" y="-80" font-family="Helvetica,sans-Serif" font-size="10.00">HeavyHiggs/source/MainCharged.cpp</text>
</a>
</g>
</g>
<!-- Node5&#45;&gt;Node7 -->
<g id="edge6" class="edge"><title>Node5&#45;&gt;Node7</title>
<path fill="none" stroke="midnightblue" d="M2042.86,-131.108C2005.31,-118.462 1956.11,-101.892 1926.76,-92.007"/>
<polygon fill="midnightblue" stroke="midnightblue" points="2042.03,-134.521 2052.62,-134.396 2044.26,-127.887 2042.03,-134.521"/>
</g>
<!-- Node12&#45;&gt;Node4 -->
<g id="edge12" class="edge"><title>Node12&#45;&gt;Node4</title>
<path fill="none" stroke="midnightblue" d="M1572.88,-271.393C1578.1,-270.103 1583.41,-268.921 1588.5,-268 1761.97,-236.619 1808.82,-255.743 1983.5,-232 1986.58,-231.582 1989.72,-231.128 1992.88,-230.649"/>
<polygon fill="midnightblue" stroke="midnightblue" points="1571.85,-268.045 1563.07,-273.969 1573.63,-274.815 1571.85,-268.045"/>
</g>
<!-- Node13 -->
<g id="node13" class="node"><title>Node13</title>
<g id="a_node13"><a xlink:href="../../d4/df4/SignatureNeutralTagger_8hh.html" target="_top" xlink:title="HeavyHiggs/include\l/SignatureNeutralTagger.hh">
<polygon fill="white" stroke="black" points="411.5,-201.5 411.5,-231.5 547.5,-231.5 547.5,-201.5 411.5,-201.5"/>
<text text-anchor="start" x="419.5" y="-219.5" font-family="Helvetica,sans-Serif" font-size="10.00">HeavyHiggs/include</text>
<text text-anchor="middle" x="479.5" y="-208.5" font-family="Helvetica,sans-Serif" font-size="10.00">/SignatureNeutralTagger.hh</text>
</a>
</g>
</g>
<!-- Node12&#45;&gt;Node13 -->
<g id="edge13" class="edge"><title>Node12&#45;&gt;Node13</title>
<path fill="none" stroke="midnightblue" d="M1481.36,-279.168C1304.45,-268.278 743.565,-233.754 547.753,-221.701"/>
<polygon fill="midnightblue" stroke="midnightblue" points="1481.27,-282.669 1491.47,-279.79 1481.7,-275.682 1481.27,-282.669"/>
</g>
<!-- Node21 -->
<g id="node21" class="node"><title>Node21</title>
<g id="a_node21"><a xlink:href="../../d1/d44/SignatureTagger_8hh.html" target="_top" xlink:title="HiggsCpv/include/Signature\lTagger.hh">
<polygon fill="white" stroke="black" points="830.5,-201.5 830.5,-231.5 968.5,-231.5 968.5,-201.5 830.5,-201.5"/>
<text text-anchor="start" x="838.5" y="-219.5" font-family="Helvetica,sans-Serif" font-size="10.00">HiggsCpv/include/Signature</text>
<text text-anchor="middle" x="899.5" y="-208.5" font-family="Helvetica,sans-Serif" font-size="10.00">Tagger.hh</text>
</a>
</g>
</g>
<!-- Node12&#45;&gt;Node21 -->
<g id="edge21" class="edge"><title>Node12&#45;&gt;Node21</title>
<path fill="none" stroke="midnightblue" d="M1481.26,-276.957C1365.85,-265.162 1096.1,-237.593 968.602,-224.562"/>
<polygon fill="midnightblue" stroke="midnightblue" points="1480.98,-280.446 1491.28,-277.981 1481.69,-273.482 1480.98,-280.446"/>
</g>
<!-- Node26 -->
<g id="node26" class="node"><title>Node26</title>
<g id="a_node26"><a xlink:href="../../d6/dfb/SignatureTTagger_8hh.html" target="_top" xlink:title="HiggsCpv/include/Signature\lTTagger.hh">
<polygon fill="white" stroke="black" points="1384.5,-201.5 1384.5,-231.5 1522.5,-231.5 1522.5,-201.5 1384.5,-201.5"/>
<text text-anchor="start" x="1392.5" y="-219.5" font-family="Helvetica,sans-Serif" font-size="10.00">HiggsCpv/include/Signature</text>
<text text-anchor="middle" x="1453.5" y="-208.5" font-family="Helvetica,sans-Serif" font-size="10.00">TTagger.hh</text>
</a>
</g>
</g>
<!-- Node12&#45;&gt;Node26 -->
<g id="edge26" class="edge"><title>Node12&#45;&gt;Node26</title>
<path fill="none" stroke="midnightblue" d="M1516.25,-267.237C1502.64,-256.452 1484.54,-242.102 1471.27,-231.589"/>
<polygon fill="midnightblue" stroke="midnightblue" points="1514.43,-270.265 1524.44,-273.734 1518.78,-264.779 1514.43,-270.265"/>
</g>
<!-- Node29 -->
<g id="node29" class="node"><title>Node29</title>
<g id="a_node29"><a xlink:href="../../d9/d75/SignatureLeptonTagger_8hh.html" target="_top" xlink:title="HiggsCpv/include/Signature\lLeptonTagger.hh">
<polygon fill="white" stroke="black" points="1097.5,-201.5 1097.5,-231.5 1235.5,-231.5 1235.5,-201.5 1097.5,-201.5"/>
<text text-anchor="start" x="1105.5" y="-219.5" font-family="Helvetica,sans-Serif" font-size="10.00">HiggsCpv/include/Signature</text>
<text text-anchor="middle" x="1166.5" y="-208.5" font-family="Helvetica,sans-Serif" font-size="10.00">LeptonTagger.hh</text>
</a>
</g>
</g>
<!-- Node12&#45;&gt;Node29 -->
<g id="edge30" class="edge"><title>Node12&#45;&gt;Node29</title>
<path fill="none" stroke="midnightblue" d="M1481.29,-272.951C1416.12,-261.471 1306.66,-242.189 1235.51,-229.657"/>
<polygon fill="midnightblue" stroke="midnightblue" points="1480.9,-276.436 1491.36,-274.724 1482.12,-269.542 1480.9,-276.436"/>
</g>
<!-- Node31 -->
<g id="node31" class="node"><title>Node31</title>
<g id="a_node31"><a xlink:href="../../d4/dca/Octet_8cpp.html" target="_top" xlink:title="source/Octet.cpp">
<polygon fill="white" stroke="black" points="1705.5,-207 1705.5,-226 1797.5,-226 1797.5,-207 1705.5,-207"/>
<text text-anchor="middle" x="1751.5" y="-214" font-family="Helvetica,sans-Serif" font-size="10.00">source/Octet.cpp</text>
</a>
</g>
</g>
<!-- Node12&#45;&gt;Node31 -->
<g id="edge33" class="edge"><title>Node12&#45;&gt;Node31</title>
<path fill="none" stroke="midnightblue" d="M1573.95,-270.929C1616.72,-258.059 1684.81,-237.57 1723.04,-226.064"/>
<polygon fill="midnightblue" stroke="midnightblue" points="1572.75,-267.635 1564.18,-273.869 1574.77,-274.338 1572.75,-267.635"/>
</g>
<!-- Node32 -->
<g id="node32" class="node"><title>Node32</title>
<g id="a_node32"><a xlink:href="../../dd/d9e/Decuplet_8hh.html" target="_top" xlink:title="TopPartner/include\l/Decuplet.hh">
<polygon fill="white" stroke="black" points="1876.5,-201.5 1876.5,-231.5 1974.5,-231.5 1974.5,-201.5 1876.5,-201.5"/>
<text text-anchor="start" x="1884.5" y="-219.5" font-family="Helvetica,sans-Serif" font-size="10.00">TopPartner/include</text>
<text text-anchor="middle" x="1925.5" y="-208.5" font-family="Helvetica,sans-Serif" font-size="10.00">/Decuplet.hh</text>
</a>
</g>
</g>
<!-- Node12&#45;&gt;Node32 -->
<g id="edge34" class="edge"><title>Node12&#45;&gt;Node32</title>
<path fill="none" stroke="midnightblue" d="M1574.02,-271.39C1578.88,-270.159 1583.79,-268.994 1588.5,-268 1642.48,-256.613 1796.67,-235.015 1876.41,-224.127"/>
<polygon fill="midnightblue" stroke="midnightblue" points="1573.01,-268.038 1564.23,-273.974 1574.79,-274.807 1573.01,-268.038"/>
</g>
<!-- Node41 -->
<g id="node41" class="node"><title>Node41</title>
<g id="a_node41"><a xlink:href="../../d8/d38/TopPartnerTopPairTagger_8hh.html" target="_top" xlink:title="TopPartner/include\l/TopPartnerTopPairTagger.hh">
<polygon fill="white" stroke="black" points="1542,-201.5 1542,-231.5 1687,-231.5 1687,-201.5 1542,-201.5"/>
<text text-anchor="start" x="1550" y="-219.5" font-family="Helvetica,sans-Serif" font-size="10.00">TopPartner/include</text>
<text text-anchor="middle" x="1614.5" y="-208.5" font-family="Helvetica,sans-Serif" font-size="10.00">/TopPartnerTopPairTagger.hh</text>
</a>
</g>
</g>
<!-- Node12&#45;&gt;Node41 -->
<g id="edge44" class="edge"><title>Node12&#45;&gt;Node41</title>
<path fill="none" stroke="midnightblue" d="M1554.05,-267.237C1567.16,-256.452 1584.6,-242.102 1597.38,-231.589"/>
<polygon fill="midnightblue" stroke="midnightblue" points="1551.65,-264.677 1546.15,-273.734 1556.1,-270.083 1551.65,-264.677"/>
</g>
<!-- Node14 -->
<g id="node14" class="node"><title>Node14</title>
<g id="a_node14"><a xlink:href="../../db/db0/EventNeutralFourTopTagger_8hh.html" target="_top" xlink:title="HeavyHiggs/include\l/EventNeutralFourTopTagger.hh">
<polygon fill="white" stroke="black" points="486.5,-134.5 486.5,-164.5 642.5,-164.5 642.5,-134.5 486.5,-134.5"/>
<text text-anchor="start" x="494.5" y="-152.5" font-family="Helvetica,sans-Serif" font-size="10.00">HeavyHiggs/include</text>
<text text-anchor="middle" x="564.5" y="-141.5" font-family="Helvetica,sans-Serif" font-size="10.00">/EventNeutralFourTopTagger.hh</text>
</a>
</g>
</g>
<!-- Node13&#45;&gt;Node14 -->
<g id="edge14" class="edge"><title>Node13&#45;&gt;Node14</title>
<path fill="none" stroke="midnightblue" d="M506.088,-195.168C519.086,-185.228 534.404,-173.514 546.092,-164.577"/>
<polygon fill="midnightblue" stroke="midnightblue" points="503.761,-192.541 497.944,-201.396 508.013,-198.102 503.761,-192.541"/>
</g>
<!-- Node17 -->
<g id="node17" class="node"><title>Node17</title>
<g id="a_node17"><a xlink:href="../../d0/dfb/EventNeutralTagger_8hh.html" target="_top" xlink:title="HeavyHiggs/include\l/EventNeutralTagger.hh">
<polygon fill="white" stroke="black" points="182.5,-134.5 182.5,-164.5 302.5,-164.5 302.5,-134.5 182.5,-134.5"/>
<text text-anchor="start" x="190.5" y="-152.5" font-family="Helvetica,sans-Serif" font-size="10.00">HeavyHiggs/include</text>
<text text-anchor="middle" x="242.5" y="-141.5" font-family="Helvetica,sans-Serif" font-size="10.00">/EventNeutralTagger.hh</text>
</a>
</g>
</g>
<!-- Node13&#45;&gt;Node17 -->
<g id="edge17" class="edge"><title>Node13&#45;&gt;Node17</title>
<path fill="none" stroke="midnightblue" d="M418.299,-198.715C379.732,-188.137 330.499,-174.635 293.951,-164.611"/>
<polygon fill="midnightblue" stroke="midnightblue" points="417.797,-202.206 428.366,-201.476 419.648,-195.456 417.797,-202.206"/>
</g>
<!-- Node20 -->
<g id="node20" class="node"><title>Node20</title>
<g id="a_node20"><a xlink:href="../../de/da6/SignatureNeutralTagger_8cpp.html" target="_top" xlink:title="HeavyHiggs/source/Signature\lNeutralTagger.cpp">
<polygon fill="white" stroke="black" points="321,-134.5 321,-164.5 468,-164.5 468,-134.5 321,-134.5"/>
<text text-anchor="start" x="329" y="-152.5" font-family="Helvetica,sans-Serif" font-size="10.00">HeavyHiggs/source/Signature</text>
<text text-anchor="middle" x="394.5" y="-141.5" font-family="Helvetica,sans-Serif" font-size="10.00">NeutralTagger.cpp</text>
</a>
</g>
</g>
<!-- Node13&#45;&gt;Node20 -->
<g id="edge20" class="edge"><title>Node13&#45;&gt;Node20</title>
<path fill="none" stroke="midnightblue" d="M452.912,-195.168C439.914,-185.228 424.596,-173.514 412.908,-164.577"/>
<polygon fill="midnightblue" stroke="midnightblue" points="450.987,-198.102 461.056,-201.396 455.239,-192.541 450.987,-198.102"/>
</g>
<!-- Node15 -->
<g id="node15" class="node"><title>Node15</title>
<g id="a_node15"><a xlink:href="../../d6/d0b/EventNeutralFourTopTagger_8cpp.html" target="_top" xlink:title="HeavyHiggs/source/EventNeutral\lFourTopTagger.cpp">
<polygon fill="white" stroke="black" points="428,-67.5 428,-97.5 591,-97.5 591,-67.5 428,-67.5"/>
<text text-anchor="start" x="436" y="-85.5" font-family="Helvetica,sans-Serif" font-size="10.00">HeavyHiggs/source/EventNeutral</text>
<text text-anchor="middle" x="509.5" y="-74.5" font-family="Helvetica,sans-Serif" font-size="10.00">FourTopTagger.cpp</text>
</a>
</g>
</g>
<!-- Node14&#45;&gt;Node15 -->
<g id="edge15" class="edge"><title>Node14&#45;&gt;Node15</title>
<path fill="none" stroke="midnightblue" d="M546.084,-126.736C537.947,-117.119 528.614,-106.089 521.411,-97.5765"/>
<polygon fill="midnightblue" stroke="midnightblue" points="543.435,-129.023 552.566,-134.396 548.778,-124.501 543.435,-129.023"/>
</g>
<!-- Node16 -->
<g id="node16" class="node"><title>Node16</title>
<g id="a_node16"><a xlink:href="../../d0/d67/MainNeutralFourTop_8cpp.html" target="_top" xlink:title="HeavyHiggs/source/MainNeutral\lFourTop.cpp">
<polygon fill="white" stroke="black" points="609.5,-67.5 609.5,-97.5 767.5,-97.5 767.5,-67.5 609.5,-67.5"/>
<text text-anchor="start" x="617.5" y="-85.5" font-family="Helvetica,sans-Serif" font-size="10.00">HeavyHiggs/source/MainNeutral</text>
<text text-anchor="middle" x="688.5" y="-74.5" font-family="Helvetica,sans-Serif" font-size="10.00">FourTop.cpp</text>
</a>
</g>
</g>
<!-- Node14&#45;&gt;Node16 -->
<g id="edge16" class="edge"><title>Node14&#45;&gt;Node16</title>
<path fill="none" stroke="midnightblue" d="M600.337,-129.714C619.894,-119.463 643.702,-106.983 661.646,-97.5765"/>
<polygon fill="midnightblue" stroke="midnightblue" points="598.638,-126.653 591.406,-134.396 601.888,-132.853 598.638,-126.653"/>
</g>
<!-- Node18 -->
<g id="node18" class="node"><title>Node18</title>
<g id="a_node18"><a xlink:href="../../dd/da4/EventNeutralTagger_8cpp.html" target="_top" xlink:title="HeavyHiggs/source/EventNeutral\lTagger.cpp">
<polygon fill="white" stroke="black" points="0,-67.5 0,-97.5 163,-97.5 163,-67.5 0,-67.5"/>
<text text-anchor="start" x="8" y="-85.5" font-family="Helvetica,sans-Serif" font-size="10.00">HeavyHiggs/source/EventNeutral</text>
<text text-anchor="middle" x="81.5" y="-74.5" font-family="Helvetica,sans-Serif" font-size="10.00">Tagger.cpp</text>
</a>
</g>
</g>
<!-- Node17&#45;&gt;Node18 -->
<g id="edge18" class="edge"><title>Node17&#45;&gt;Node18</title>
<path fill="none" stroke="midnightblue" d="M198.025,-130.544C172.262,-120.143 140.297,-107.238 116.366,-97.5765"/>
<polygon fill="midnightblue" stroke="midnightblue" points="196.982,-133.898 207.565,-134.396 199.603,-127.407 196.982,-133.898"/>
</g>
<!-- Node19 -->
<g id="node19" class="node"><title>Node19</title>
<g id="a_node19"><a xlink:href="../../dd/d72/MainNeutral_8cpp.html" target="_top" xlink:title="HeavyHiggs/source/MainNeutral.cpp">
<polygon fill="white" stroke="black" points="181,-73 181,-92 358,-92 358,-73 181,-73"/>
<text text-anchor="middle" x="269.5" y="-80" font-family="Helvetica,sans-Serif" font-size="10.00">HeavyHiggs/source/MainNeutral.cpp</text>
</a>
</g>
</g>
<!-- Node17&#45;&gt;Node19 -->
<g id="edge19" class="edge"><title>Node17&#45;&gt;Node19</title>
<path fill="none" stroke="midnightblue" d="M252.285,-124.942C257.022,-113.54 262.42,-100.545 265.888,-92.1945"/>
<polygon fill="midnightblue" stroke="midnightblue" points="248.962,-123.818 248.359,-134.396 255.427,-126.504 248.962,-123.818"/>
</g>
<!-- Node22 -->
<g id="node22" class="node"><title>Node22</title>
<g id="a_node22"><a xlink:href="../../dd/db1/EventTagger_8hh.html" target="_top" xlink:title="HiggsCpv/include/EventTagger.hh">
<polygon fill="white" stroke="black" points="816.5,-140 816.5,-159 982.5,-159 982.5,-140 816.5,-140"/>
<text text-anchor="middle" x="899.5" y="-147" font-family="Helvetica,sans-Serif" font-size="10.00">HiggsCpv/include/EventTagger.hh</text>
</a>
</g>
</g>
<!-- Node21&#45;&gt;Node22 -->
<g id="edge22" class="edge"><title>Node21&#45;&gt;Node22</title>
<path fill="none" stroke="midnightblue" d="M899.5,-191.25C899.5,-180.017 899.5,-167.377 899.5,-159.195"/>
<polygon fill="midnightblue" stroke="midnightblue" points="896,-191.396 899.5,-201.396 903,-191.396 896,-191.396"/>
</g>
<!-- Node25 -->
<g id="node25" class="node"><title>Node25</title>
<g id="a_node25"><a xlink:href="../../d0/d77/SignatureTagger_8cpp.html" target="_top" xlink:title="HiggsCpv/source/Signature\lTagger.cpp">
<polygon fill="white" stroke="black" points="661,-134.5 661,-164.5 798,-164.5 798,-134.5 661,-134.5"/>
<text text-anchor="start" x="669" y="-152.5" font-family="Helvetica,sans-Serif" font-size="10.00">HiggsCpv/source/Signature</text>
<text text-anchor="middle" x="729.5" y="-141.5" font-family="Helvetica,sans-Serif" font-size="10.00">Tagger.cpp</text>
</a>
</g>
</g>
<!-- Node21&#45;&gt;Node25 -->
<g id="edge25" class="edge"><title>Node21&#45;&gt;Node25</title>
<path fill="none" stroke="midnightblue" d="M853.256,-197.819C825.931,-187.371 791.807,-174.323 766.315,-164.577"/>
<polygon fill="midnightblue" stroke="midnightblue" points="852.022,-201.094 862.613,-201.396 854.522,-194.555 852.022,-201.094"/>
</g>
<!-- Node23 -->
<g id="node23" class="node"><title>Node23</title>
<g id="a_node23"><a xlink:href="../../d8/da0/EventTTagger_8cpp.html" target="_top" xlink:title="HiggsCpv/source/EventTTagger.cpp">
<polygon fill="white" stroke="black" points="811.5,-73 811.5,-92 987.5,-92 987.5,-73 811.5,-73"/>
<text text-anchor="middle" x="899.5" y="-80" font-family="Helvetica,sans-Serif" font-size="10.00">HiggsCpv/source/EventTTagger.cpp</text>
</a>
</g>
</g>
<!-- Node22&#45;&gt;Node23 -->
<g id="edge23" class="edge"><title>Node22&#45;&gt;Node23</title>
<path fill="none" stroke="midnightblue" d="M899.5,-129.537C899.5,-117.17 899.5,-101.62 899.5,-92.1273"/>
<polygon fill="midnightblue" stroke="midnightblue" points="896,-129.734 899.5,-139.734 903,-129.734 896,-129.734"/>
</g>
<!-- Node24 -->
<g id="node24" class="node"><title>Node24</title>
<g id="a_node24"><a xlink:href="../../d0/d71/HiggsCpv_2source_2main_8cpp.html" target="_top" xlink:title="HiggsCpv/source/main.cpp">
<polygon fill="white" stroke="black" points="1099,-73 1099,-92 1234,-92 1234,-73 1099,-73"/>
<text text-anchor="middle" x="1166.5" y="-80" font-family="Helvetica,sans-Serif" font-size="10.00">HiggsCpv/source/main.cpp</text>
</a>
</g>
</g>
<!-- Node22&#45;&gt;Node24 -->
<g id="edge24" class="edge"><title>Node22&#45;&gt;Node24</title>
<path fill="none" stroke="midnightblue" d="M944.421,-137.564C997.058,-124.75 1083.18,-103.785 1131.24,-92.0834"/>
<polygon fill="midnightblue" stroke="midnightblue" points="943.568,-134.169 934.68,-139.936 945.224,-140.971 943.568,-134.169"/>
</g>
<!-- Node27 -->
<g id="node27" class="node"><title>Node27</title>
<g id="a_node27"><a xlink:href="../../d2/d85/EventTTagger_8hh.html" target="_top" xlink:title="HiggsCpv/include/EventTTagger.hh">
<polygon fill="white" stroke="red" points="1194.5,-140 1194.5,-159 1366.5,-159 1366.5,-140 1194.5,-140"/>
<text text-anchor="middle" x="1280.5" y="-147" font-family="Helvetica,sans-Serif" font-size="10.00">HiggsCpv/include/EventTTagger.hh</text>
</a>
</g>
</g>
<!-- Node26&#45;&gt;Node27 -->
<g id="edge27" class="edge"><title>Node26&#45;&gt;Node27</title>
<path fill="none" stroke="midnightblue" d="M1406.35,-197.784C1372.8,-185.181 1329.23,-168.808 1303.14,-159.007"/>
<polygon fill="midnightblue" stroke="midnightblue" points="1405.37,-201.155 1415.96,-201.396 1407.83,-194.602 1405.37,-201.155"/>
</g>
<!-- Node28 -->
<g id="node28" class="node"><title>Node28</title>
<g id="a_node28"><a xlink:href="../../d8/d69/SignatureTTagger_8cpp.html" target="_top" xlink:title="HiggsCpv/source/Signature\lTTagger.cpp">
<polygon fill="white" stroke="black" points="1385,-134.5 1385,-164.5 1522,-164.5 1522,-134.5 1385,-134.5"/>
<text text-anchor="start" x="1393" y="-152.5" font-family="Helvetica,sans-Serif" font-size="10.00">HiggsCpv/source/Signature</text>
<text text-anchor="middle" x="1453.5" y="-141.5" font-family="Helvetica,sans-Serif" font-size="10.00">TTagger.cpp</text>
</a>
</g>
</g>
<!-- Node26&#45;&gt;Node28 -->
<g id="edge29" class="edge"><title>Node26&#45;&gt;Node28</title>
<path fill="none" stroke="midnightblue" d="M1453.5,-191.108C1453.5,-182.154 1453.5,-172.323 1453.5,-164.577"/>
<polygon fill="midnightblue" stroke="midnightblue" points="1450,-191.396 1453.5,-201.396 1457,-191.396 1450,-191.396"/>
</g>
<!-- Node27&#45;&gt;Node24 -->
<g id="edge28" class="edge"><title>Node27&#45;&gt;Node24</title>
<path fill="none" stroke="midnightblue" d="M1256.15,-134.615C1233.56,-121.737 1200.66,-102.976 1181.63,-92.1273"/>
<polygon fill="midnightblue" stroke="midnightblue" points="1254.7,-137.821 1265.13,-139.734 1258.17,-131.74 1254.7,-137.821"/>
</g>
<!-- Node29&#45;&gt;Node24 -->
<g id="edge31" class="edge"><title>Node29&#45;&gt;Node24</title>
<path fill="none" stroke="midnightblue" d="M1166.5,-191.317C1166.5,-161.376 1166.5,-111.911 1166.5,-92.0973"/>
<polygon fill="midnightblue" stroke="midnightblue" points="1163,-191.374 1166.5,-201.374 1170,-191.374 1163,-191.374"/>
</g>
<!-- Node30 -->
<g id="node30" class="node"><title>Node30</title>
<g id="a_node30"><a xlink:href="../../d9/d93/SignatureLeptonTagger_8cpp.html" target="_top" xlink:title="HiggsCpv/source/Signature\lLeptonTagger.cpp">
<polygon fill="white" stroke="black" points="1001,-134.5 1001,-164.5 1138,-164.5 1138,-134.5 1001,-134.5"/>
<text text-anchor="start" x="1009" y="-152.5" font-family="Helvetica,sans-Serif" font-size="10.00">HiggsCpv/source/Signature</text>
<text text-anchor="middle" x="1069.5" y="-141.5" font-family="Helvetica,sans-Serif" font-size="10.00">LeptonTagger.cpp</text>
</a>
</g>
</g>
<!-- Node29&#45;&gt;Node30 -->
<g id="edge32" class="edge"><title>Node29&#45;&gt;Node30</title>
<path fill="none" stroke="midnightblue" d="M1137,-195.734C1121.99,-185.676 1104.1,-173.685 1090.51,-164.577"/>
<polygon fill="midnightblue" stroke="midnightblue" points="1135.2,-198.737 1145.45,-201.396 1139.09,-192.922 1135.2,-198.737"/>
</g>
<!-- Node33 -->
<g id="node33" class="node"><title>Node33</title>
<g id="a_node33"><a xlink:href="../../d9/ddc/TopPartnerPairTagger_8hh.html" target="_top" xlink:title="TopPartner/include\l/TopPartnerPairTagger.hh">
<polygon fill="white" stroke="red" points="2365.5,-134.5 2365.5,-164.5 2493.5,-164.5 2493.5,-134.5 2365.5,-134.5"/>
<text text-anchor="start" x="2373.5" y="-152.5" font-family="Helvetica,sans-Serif" font-size="10.00">TopPartner/include</text>
<text text-anchor="middle" x="2429.5" y="-141.5" font-family="Helvetica,sans-Serif" font-size="10.00">/TopPartnerPairTagger.hh</text>
</a>
</g>
</g>
<!-- Node32&#45;&gt;Node33 -->
<g id="edge35" class="edge"><title>Node32&#45;&gt;Node33</title>
<path fill="none" stroke="midnightblue" d="M1984.71,-200.959C2148.95,-173.397 2194.35,-188.53 2355.5,-165 2358.74,-164.527 2362.05,-164.008 2365.39,-163.457"/>
<polygon fill="midnightblue" stroke="midnightblue" points="1984.02,-197.526 1974.76,-202.657 1985.2,-204.426 1984.02,-197.526"/>
</g>
<!-- Node32&#45;&gt;Node37 -->
<g id="edge39" class="edge"><title>Node32&#45;&gt;Node37</title>
<path fill="none" stroke="midnightblue" d="M1984.87,-200.814C2079.95,-181.513 2179.87,-166.381 2239.77,-157.863"/>
<polygon fill="midnightblue" stroke="midnightblue" points="1983.89,-197.442 1974.8,-202.878 1985.3,-204.299 1983.89,-197.442"/>
</g>
<!-- Node39 -->
<g id="node39" class="node"><title>Node39</title>
<g id="a_node39"><a xlink:href="../../da/dfa/SignatureSingleTagger_8hh.html" target="_top" xlink:title="TopPartner/include\l/SignatureSingleTagger.hh">
<polygon fill="white" stroke="red" points="1707,-134.5 1707,-164.5 1838,-164.5 1838,-134.5 1707,-134.5"/>
<text text-anchor="start" x="1715" y="-152.5" font-family="Helvetica,sans-Serif" font-size="10.00">TopPartner/include</text>
<text text-anchor="middle" x="1772.5" y="-141.5" font-family="Helvetica,sans-Serif" font-size="10.00">/SignatureSingleTagger.hh</text>
</a>
</g>
</g>
<!-- Node32&#45;&gt;Node39 -->
<g id="edge42" class="edge"><title>Node32&#45;&gt;Node39</title>
<path fill="none" stroke="midnightblue" d="M1882.91,-197.407C1858.48,-187.029 1828.28,-174.195 1805.63,-164.577"/>
<polygon fill="midnightblue" stroke="midnightblue" points="1881.73,-200.707 1892.3,-201.396 1884.47,-194.264 1881.73,-200.707"/>
</g>
<!-- Node40 -->
<g id="node40" class="node"><title>Node40</title>
<g id="a_node40"><a xlink:href="../../df/d5d/Decuplet_8cpp.html" target="_top" xlink:title="TopPartner/source/Decuplet.cpp">
<polygon fill="white" stroke="black" points="1856.5,-140 1856.5,-159 2014.5,-159 2014.5,-140 1856.5,-140"/>
<text text-anchor="middle" x="1935.5" y="-147" font-family="Helvetica,sans-Serif" font-size="10.00">TopPartner/source/Decuplet.cpp</text>
</a>
</g>
</g>
<!-- Node32&#45;&gt;Node40 -->
<g id="edge43" class="edge"><title>Node32&#45;&gt;Node40</title>
<path fill="none" stroke="midnightblue" d="M1929.23,-191.25C1930.96,-180.017 1932.9,-167.377 1934.16,-159.195"/>
<polygon fill="midnightblue" stroke="midnightblue" points="1925.73,-190.98 1927.67,-201.396 1932.65,-192.044 1925.73,-190.98"/>
</g>
<!-- Node34 -->
<g id="node34" class="node"><title>Node34</title>
<g id="a_node34"><a xlink:href="../../d2/d61/SignatureEffectiveTagger_8hh.html" target="_top" xlink:title="TopPartner/include\l/SignatureEffectiveTagger.hh">
<polygon fill="white" stroke="black" points="2408,-67.5 2408,-97.5 2551,-97.5 2551,-67.5 2408,-67.5"/>
<text text-anchor="start" x="2416" y="-85.5" font-family="Helvetica,sans-Serif" font-size="10.00">TopPartner/include</text>
<text text-anchor="middle" x="2479.5" y="-74.5" font-family="Helvetica,sans-Serif" font-size="10.00">/SignatureEffectiveTagger.hh</text>
</a>
</g>
</g>
<!-- Node33&#45;&gt;Node34 -->
<g id="edge36" class="edge"><title>Node33&#45;&gt;Node34</title>
<path fill="none" stroke="midnightblue" d="M2446.46,-126.447C2453.81,-116.899 2462.19,-106.004 2468.67,-97.5765"/>
<polygon fill="midnightblue" stroke="midnightblue" points="2443.67,-124.336 2440.35,-134.396 2449.22,-128.604 2443.67,-124.336"/>
</g>
<!-- Node35 -->
<g id="node35" class="node"><title>Node35</title>
<g id="a_node35"><a xlink:href="../../d7/d67/EventEffectiveTagger_8hh.html" target="_top" xlink:title="TopPartner/include\l/EventEffectiveTagger.hh">
<polygon fill="white" stroke="red" points="2339.5,-0.5 2339.5,-30.5 2467.5,-30.5 2467.5,-0.5 2339.5,-0.5"/>
<text text-anchor="start" x="2347.5" y="-18.5" font-family="Helvetica,sans-Serif" font-size="10.00">TopPartner/include</text>
<text text-anchor="middle" x="2403.5" y="-7.5" font-family="Helvetica,sans-Serif" font-size="10.00">/EventEffectiveTagger.hh</text>
</a>
</g>
</g>
<!-- Node34&#45;&gt;Node35 -->
<g id="edge37" class="edge"><title>Node34&#45;&gt;Node35</title>
<path fill="none" stroke="midnightblue" d="M2455.39,-60.8832C2443.84,-51.0054 2430.31,-39.4293 2419.96,-30.5765"/>
<polygon fill="midnightblue" stroke="midnightblue" points="2453.13,-63.5561 2463.01,-67.396 2457.68,-58.2364 2453.13,-63.5561"/>
</g>
<!-- Node36 -->
<g id="node36" class="node"><title>Node36</title>
<g id="a_node36"><a xlink:href="../../dc/d01/SignatureEffectiveTagger_8cpp.html" target="_top" xlink:title="TopPartner/source/Signature\lEffectiveTagger.cpp">
<polygon fill="white" stroke="black" points="2486,-0.5 2486,-30.5 2627,-30.5 2627,-0.5 2486,-0.5"/>
<text text-anchor="start" x="2494" y="-18.5" font-family="Helvetica,sans-Serif" font-size="10.00">TopPartner/source/Signature</text>
<text text-anchor="middle" x="2556.5" y="-7.5" font-family="Helvetica,sans-Serif" font-size="10.00">EffectiveTagger.cpp</text>
</a>
</g>
</g>
<!-- Node34&#45;&gt;Node36 -->
<g id="edge38" class="edge"><title>Node34&#45;&gt;Node36</title>
<path fill="none" stroke="midnightblue" d="M2503.92,-60.8832C2515.62,-51.0054 2529.34,-39.4293 2539.82,-30.5765"/>
<polygon fill="midnightblue" stroke="midnightblue" points="2501.59,-58.2709 2496.21,-67.396 2506.11,-63.6199 2501.59,-58.2709"/>
</g>
<!-- Node37&#45;&gt;Node34 -->
<g id="edge40" class="edge"><title>Node37&#45;&gt;Node34</title>
<path fill="none" stroke="midnightblue" d="M2343.31,-131.092C2373.34,-120.599 2411.09,-107.408 2439.22,-97.5765"/>
<polygon fill="midnightblue" stroke="midnightblue" points="2342.14,-127.793 2333.86,-134.396 2344.45,-134.401 2342.14,-127.793"/>
</g>
<!-- Node38 -->
<g id="node38" class="node"><title>Node38</title>
<g id="a_node38"><a xlink:href="../../d5/d0c/Quattuordecuplet_8cpp.html" target="_top" xlink:title="TopPartner/source/Quattuordecuplet.cpp">
<polygon fill="white" stroke="black" points="2197,-73 2197,-92 2390,-92 2390,-73 2197,-73"/>
<text text-anchor="middle" x="2293.5" y="-80" font-family="Helvetica,sans-Serif" font-size="10.00">TopPartner/source/Quattuordecuplet.cpp</text>
</a>
</g>
</g>
<!-- Node37&#45;&gt;Node38 -->
<g id="edge41" class="edge"><title>Node37&#45;&gt;Node38</title>
<path fill="none" stroke="midnightblue" d="M2293.5,-124.25C2293.5,-113.017 2293.5,-100.377 2293.5,-92.1945"/>
<polygon fill="midnightblue" stroke="midnightblue" points="2290,-124.396 2293.5,-134.396 2297,-124.396 2290,-124.396"/>
</g>
<!-- Node41&#45;&gt;Node39 -->
<g id="edge45" class="edge"><title>Node41&#45;&gt;Node39</title>
<path fill="none" stroke="midnightblue" d="M1658.15,-197.544C1683.43,-187.143 1714.8,-174.238 1738.28,-164.577"/>
<polygon fill="midnightblue" stroke="midnightblue" points="1656.7,-194.355 1648.78,-201.396 1659.36,-200.828 1656.7,-194.355"/>
</g>
<!-- Node42 -->
<g id="node42" class="node"><title>Node42</title>
<g id="a_node42"><a xlink:href="../../d9/d96/TopPartnerTopPairTagger_8cpp.html" target="_top" xlink:title="TopPartner/source/TopPartner\lTopPairTagger.cpp">
<polygon fill="white" stroke="black" points="1540.5,-134.5 1540.5,-164.5 1688.5,-164.5 1688.5,-134.5 1540.5,-134.5"/>
<text text-anchor="start" x="1548.5" y="-152.5" font-family="Helvetica,sans-Serif" font-size="10.00">TopPartner/source/TopPartner</text>
<text text-anchor="middle" x="1614.5" y="-141.5" font-family="Helvetica,sans-Serif" font-size="10.00">TopPairTagger.cpp</text>
</a>
</g>
</g>
<!-- Node41&#45;&gt;Node42 -->
<g id="edge46" class="edge"><title>Node41&#45;&gt;Node42</title>
<path fill="none" stroke="midnightblue" d="M1614.5,-191.108C1614.5,-182.154 1614.5,-172.323 1614.5,-164.577"/>
<polygon fill="midnightblue" stroke="midnightblue" points="1611,-191.396 1614.5,-201.396 1618,-191.396 1611,-191.396"/>
</g>
<!-- Node43&#45;&gt;Node4 -->
<g id="edge48" class="edge"><title>Node43&#45;&gt;Node4</title>
<path fill="none" stroke="midnightblue" d="M2379.18,-272.286C2299.17,-258.733 2165.34,-236.038 2142.5,-232 2139.75,-231.515 2136.95,-231.016 2134.13,-230.511"/>
<polygon fill="midnightblue" stroke="midnightblue" points="2378.69,-275.754 2389.13,-273.973 2379.86,-268.852 2378.69,-275.754"/>
</g>
<!-- Node44 -->
<g id="node44" class="node"><title>Node44</title>
<g id="a_node44"><a xlink:href="../../d5/da3/TripletJetPairTagger_8cpp.html" target="_top" xlink:title="source/TripletJetPairTagger.cpp">
<polygon fill="white" stroke="black" points="2313,-207 2313,-226 2468,-226 2468,-207 2313,-207"/>
<text text-anchor="middle" x="2390.5" y="-214" font-family="Helvetica,sans-Serif" font-size="10.00">source/TripletJetPairTagger.cpp</text>
</a>
</g>
</g>
<!-- Node43&#45;&gt;Node44 -->
<g id="edge49" class="edge"><title>Node43&#45;&gt;Node44</title>
<path fill="none" stroke="midnightblue" d="M2426.61,-265.404C2417.09,-252.773 2404.52,-236.104 2397,-226.127"/>
<polygon fill="midnightblue" stroke="midnightblue" points="2424.08,-267.855 2432.89,-273.734 2429.67,-263.642 2424.08,-267.855"/>
</g>
<!-- Node47&#45;&gt;Node34 -->
<g id="edge53" class="edge"><title>Node47&#45;&gt;Node34</title>
<path fill="none" stroke="midnightblue" d="M2729.34,-259.175C2709.55,-217.918 2670.15,-136.18 2667.5,-134 2634.87,-107.169 2589.28,-94.5004 2551.17,-88.5603"/>
<polygon fill="midnightblue" stroke="midnightblue" points="2726.21,-260.749 2733.69,-268.255 2732.52,-257.724 2726.21,-260.749"/>
</g>
<!-- Node48 -->
<g id="node48" class="node"><title>Node48</title>
<g id="a_node48"><a xlink:href="../../dd/d31/HiggsPairTagger_8cpp.html" target="_top" xlink:title="TopPartner/source/HiggsPair\lTagger.cpp">
<polygon fill="white" stroke="black" points="2726,-201.5 2726,-231.5 2869,-231.5 2869,-201.5 2726,-201.5"/>
<text text-anchor="start" x="2734" y="-219.5" font-family="Helvetica,sans-Serif" font-size="10.00">TopPartner/source/HiggsPair</text>
<text text-anchor="middle" x="2797.5" y="-208.5" font-family="Helvetica,sans-Serif" font-size="10.00">Tagger.cpp</text>
</a>
</g>
</g>
<!-- Node47&#45;&gt;Node48 -->
<g id="edge54" class="edge"><title>Node47&#45;&gt;Node48</title>
<path fill="none" stroke="midnightblue" d="M2759.59,-260.736C2768.02,-251.119 2777.69,-240.089 2785.16,-231.577"/>
<polygon fill="midnightblue" stroke="midnightblue" points="2756.83,-258.57 2752.87,-268.396 2762.09,-263.185 2756.83,-258.57"/>
</g>
<!-- Node50 -->
<g id="node50" class="node"><title>Node50</title>
<g id="a_node50"><a xlink:href="../../d3/d46/Nonet_8cpp.html" target="_top" xlink:title="TopPartner/source/Nonet.cpp">
<polygon fill="white" stroke="black" points="2486,-207 2486,-226 2631,-226 2631,-207 2486,-207"/>
<text text-anchor="middle" x="2558.5" y="-214" font-family="Helvetica,sans-Serif" font-size="10.00">TopPartner/source/Nonet.cpp</text>
</a>
</g>
</g>
<!-- Node49&#45;&gt;Node50 -->
<g id="edge57" class="edge"><title>Node49&#45;&gt;Node50</title>
<path fill="none" stroke="midnightblue" d="M2573.8,-258.942C2569.59,-247.54 2564.79,-234.545 2561.71,-226.195"/>
<polygon fill="midnightblue" stroke="midnightblue" points="2570.55,-260.227 2577.29,-268.396 2577.11,-257.803 2570.55,-260.227"/>
</g>
</g>
</svg>
