<?xml version="1.0" encoding="UTF-8" standalone="no"?>
<!DOCTYPE svg PUBLIC "-//W3C//DTD SVG 1.1//EN"
 "http://www.w3.org/Graphics/SVG/1.1/DTD/svg11.dtd">
<!-- Generated by graphviz version 2.38.0 (20140413.2041)
 -->
<!-- Title: boca/delphes/Event.hh Pages: 1 -->
<svg width="3187pt" height="542pt"
 viewBox="0.00 0.00 3187.00 542.00" xmlns="http://www.w3.org/2000/svg" xmlns:xlink="http://www.w3.org/1999/xlink">
<g id="graph0" class="graph" transform="scale(1 1) rotate(0) translate(4 538)">
<title>boca/delphes/Event.hh</title>
<polygon fill="white" stroke="none" points="-4,4 -4,-538 3183,-538 3183,4 -4,4"/>
<!-- Node1 -->
<g id="node1" class="node"><title>Node1</title>
<polygon fill="#bfbfbf" stroke="black" points="1775.5,-514.5 1775.5,-533.5 1891.5,-533.5 1891.5,-514.5 1775.5,-514.5"/>
<text text-anchor="middle" x="1833.5" y="-521.5" font-family="Helvetica,sans-Serif" font-size="10.00">boca/delphes/Event.hh</text>
</g>
<!-- Node2 -->
<g id="node2" class="node"><title>Node2</title>
<g id="a_node2"><a xlink:href="../../d6/d74/TreeReader_8hh.html" target="_top" xlink:title="boca/io/TreeReader.hh">
<polygon fill="white" stroke="black" points="1855.5,-458.5 1855.5,-477.5 1971.5,-477.5 1971.5,-458.5 1855.5,-458.5"/>
<text text-anchor="middle" x="1913.5" y="-465.5" font-family="Helvetica,sans-Serif" font-size="10.00">boca/io/TreeReader.hh</text>
</a>
</g>
</g>
<!-- Node1&#45;&gt;Node2 -->
<g id="edge1" class="edge"><title>Node1&#45;&gt;Node2</title>
<path fill="none" stroke="midnightblue" d="M1854.8,-508.622C1869.42,-498.757 1888.33,-485.992 1900.68,-477.655"/>
<polygon fill="midnightblue" stroke="midnightblue" points="1852.68,-505.828 1846.35,-514.324 1856.6,-511.63 1852.68,-505.828"/>
</g>
<!-- Node46 -->
<g id="node46" class="node"><title>Node46</title>
<g id="a_node46"><a xlink:href="../../dd/d13/source_2delphes_2Event_8cpp.html" target="_top" xlink:title="source/delphes/Event.cpp">
<polygon fill="white" stroke="black" points="1615.5,-397 1615.5,-416 1745.5,-416 1745.5,-397 1615.5,-397"/>
<text text-anchor="middle" x="1680.5" y="-404" font-family="Helvetica,sans-Serif" font-size="10.00">source/delphes/Event.cpp</text>
</a>
</g>
</g>
<!-- Node1&#45;&gt;Node46 -->
<g id="edge50" class="edge"><title>Node1&#45;&gt;Node46</title>
<path fill="none" stroke="midnightblue" d="M1813.76,-508.096C1781.42,-483.688 1718.18,-435.944 1692.13,-416.282"/>
<polygon fill="midnightblue" stroke="midnightblue" points="1811.91,-511.087 1822,-514.319 1816.13,-505.5 1811.91,-511.087"/>
</g>
<!-- Node3 -->
<g id="node3" class="node"><title>Node3</title>
<g id="a_node3"><a xlink:href="../../de/d83/File_8hh.html" target="_top" xlink:title="boca/File.hh">
<polygon fill="white" stroke="black" points="1763.5,-397 1763.5,-416 1833.5,-416 1833.5,-397 1763.5,-397"/>
<text text-anchor="middle" x="1798.5" y="-404" font-family="Helvetica,sans-Serif" font-size="10.00">boca/File.hh</text>
</a>
</g>
</g>
<!-- Node2&#45;&gt;Node3 -->
<g id="edge2" class="edge"><title>Node2&#45;&gt;Node3</title>
<path fill="none" stroke="midnightblue" d="M1888.12,-453.867C1865.83,-442.335 1834.06,-425.899 1814.95,-416.009"/>
<polygon fill="midnightblue" stroke="midnightblue" points="1886.53,-456.988 1897.02,-458.475 1889.75,-450.771 1886.53,-456.988"/>
</g>
<!-- Node2&#45;&gt;Node46 -->
<g id="edge45" class="edge"><title>Node2&#45;&gt;Node46</title>
<path fill="none" stroke="midnightblue" d="M1870.3,-455.968C1825.06,-444.415 1754.97,-426.517 1713.82,-416.009"/>
<polygon fill="midnightblue" stroke="midnightblue" points="1869.56,-459.392 1880.12,-458.475 1871.29,-452.61 1869.56,-459.392"/>
</g>
<!-- Node47 -->
<g id="node47" class="node"><title>Node47</title>
<g id="a_node47"><a xlink:href="../../d1/d75/source_2exroot_2Event_8cpp.html" target="_top" xlink:title="source/exroot/Event.cpp">
<polygon fill="white" stroke="black" points="1852,-397 1852,-416 1975,-416 1975,-397 1852,-397"/>
<text text-anchor="middle" x="1913.5" y="-404" font-family="Helvetica,sans-Serif" font-size="10.00">source/exroot/Event.cpp</text>
</a>
</g>
</g>
<!-- Node2&#45;&gt;Node47 -->
<g id="edge46" class="edge"><title>Node2&#45;&gt;Node47</title>
<path fill="none" stroke="midnightblue" d="M1913.5,-448.317C1913.5,-437.496 1913.5,-424.398 1913.5,-416.009"/>
<polygon fill="midnightblue" stroke="midnightblue" points="1910,-448.475 1913.5,-458.475 1917,-448.475 1910,-448.475"/>
</g>
<!-- Node48 -->
<g id="node48" class="node"><title>Node48</title>
<g id="a_node48"><a xlink:href="../../d3/da7/TreeReader_8cpp.html" target="_top" xlink:title="source/io/TreeReader.cpp">
<polygon fill="white" stroke="black" points="1993,-397 1993,-416 2122,-416 2122,-397 1993,-397"/>
<text text-anchor="middle" x="2057.5" y="-404" font-family="Helvetica,sans-Serif" font-size="10.00">source/io/TreeReader.cpp</text>
</a>
</g>
</g>
<!-- Node2&#45;&gt;Node48 -->
<g id="edge47" class="edge"><title>Node2&#45;&gt;Node48</title>
<path fill="none" stroke="midnightblue" d="M1943.43,-454.631C1971.41,-443.072 2012.44,-426.12 2036.91,-416.009"/>
<polygon fill="midnightblue" stroke="midnightblue" points="1942.04,-451.422 1934.13,-458.475 1944.71,-457.891 1942.04,-451.422"/>
</g>
<!-- Node49 -->
<g id="node49" class="node"><title>Node49</title>
<g id="a_node49"><a xlink:href="../../dc/d26/Trainer_8cpp.html" target="_top" xlink:title="source/multivariant\l/Trainer.cpp">
<polygon fill="white" stroke="black" points="2140,-391.5 2140,-421.5 2239,-421.5 2239,-391.5 2140,-391.5"/>
<text text-anchor="start" x="2148" y="-409.5" font-family="Helvetica,sans-Serif" font-size="10.00">source/multivariant</text>
<text text-anchor="middle" x="2189.5" y="-398.5" font-family="Helvetica,sans-Serif" font-size="10.00">/Trainer.cpp</text>
</a>
</g>
</g>
<!-- Node2&#45;&gt;Node49 -->
<g id="edge48" class="edge"><title>Node2&#45;&gt;Node49</title>
<path fill="none" stroke="midnightblue" d="M1966.73,-456.524C2010.74,-447.731 2074.8,-434.616 2130.5,-422 2133.59,-421.301 2136.76,-420.567 2139.96,-419.815"/>
<polygon fill="midnightblue" stroke="midnightblue" points="1965.95,-453.111 1956.83,-458.498 1967.32,-459.976 1965.95,-453.111"/>
</g>
<!-- Node50 -->
<g id="node50" class="node"><title>Node50</title>
<g id="a_node50"><a xlink:href="../../d5/d94/PlottingBase_8cpp.html" target="_top" xlink:title="source/plotting/Plotting\lBase.cpp">
<polygon fill="white" stroke="black" points="2257.5,-391.5 2257.5,-421.5 2373.5,-421.5 2373.5,-391.5 2257.5,-391.5"/>
<text text-anchor="start" x="2265.5" y="-409.5" font-family="Helvetica,sans-Serif" font-size="10.00">source/plotting/Plotting</text>
<text text-anchor="middle" x="2315.5" y="-398.5" font-family="Helvetica,sans-Serif" font-size="10.00">Base.cpp</text>
</a>
</g>
</g>
<!-- Node2&#45;&gt;Node50 -->
<g id="edge49" class="edge"><title>Node2&#45;&gt;Node50</title>
<path fill="none" stroke="midnightblue" d="M1981.74,-459.349C2049.4,-451.4 2155.93,-437.908 2247.5,-422 2250.71,-421.442 2254,-420.841 2257.32,-420.211"/>
<polygon fill="midnightblue" stroke="midnightblue" points="1981.16,-455.893 1971.63,-460.529 1981.97,-462.846 1981.16,-455.893"/>
</g>
<!-- Node4 -->
<g id="node4" class="node"><title>Node4</title>
<g id="a_node4"><a xlink:href="../../de/d21/BranchWriter_8hh.html" target="_top" xlink:title="boca/analysis/BranchWriter.hh">
<polygon fill="white" stroke="black" points="1499.5,-330 1499.5,-349 1649.5,-349 1649.5,-330 1499.5,-330"/>
<text text-anchor="middle" x="1574.5" y="-337" font-family="Helvetica,sans-Serif" font-size="10.00">boca/analysis/BranchWriter.hh</text>
</a>
</g>
</g>
<!-- Node3&#45;&gt;Node4 -->
<g id="edge3" class="edge"><title>Node3&#45;&gt;Node4</title>
<path fill="none" stroke="midnightblue" d="M1763.43,-393.786C1760.41,-392.827 1757.41,-391.886 1754.5,-391 1702.96,-375.288 1642.58,-358.718 1606.49,-349.01"/>
<polygon fill="midnightblue" stroke="midnightblue" points="1762.38,-397.124 1772.97,-396.872 1764.53,-390.464 1762.38,-397.124"/>
</g>
<!-- Node43 -->
<g id="node43" class="node"><title>Node43</title>
<g id="a_node43"><a xlink:href="../../d1/de1/AnalysisBase_8cpp.html" target="_top" xlink:title="source/analysis/Analysis\lBase.cpp">
<polygon fill="white" stroke="black" points="1667,-324.5 1667,-354.5 1792,-354.5 1792,-324.5 1667,-324.5"/>
<text text-anchor="start" x="1675" y="-342.5" font-family="Helvetica,sans-Serif" font-size="10.00">source/analysis/Analysis</text>
<text text-anchor="middle" x="1729.5" y="-331.5" font-family="Helvetica,sans-Serif" font-size="10.00">Base.cpp</text>
</a>
</g>
</g>
<!-- Node3&#45;&gt;Node43 -->
<g id="edge42" class="edge"><title>Node3&#45;&gt;Node43</title>
<path fill="none" stroke="midnightblue" d="M1781.64,-389.617C1770.27,-378.907 1755.4,-364.902 1744.46,-354.589"/>
<polygon fill="midnightblue" stroke="midnightblue" points="1779.52,-392.424 1789.19,-396.734 1784.32,-387.329 1779.52,-392.424"/>
</g>
<!-- Node44 -->
<g id="node44" class="node"><title>Node44</title>
<g id="a_node44"><a xlink:href="../../d0/dc4/Info_8cpp.html" target="_top" xlink:title="source/branch/Info.cpp">
<polygon fill="white" stroke="black" points="1810.5,-330 1810.5,-349 1926.5,-349 1926.5,-330 1810.5,-330"/>
<text text-anchor="middle" x="1868.5" y="-337" font-family="Helvetica,sans-Serif" font-size="10.00">source/branch/Info.cpp</text>
</a>
</g>
</g>
<!-- Node3&#45;&gt;Node44 -->
<g id="edge43" class="edge"><title>Node3&#45;&gt;Node44</title>
<path fill="none" stroke="midnightblue" d="M1815.35,-389.856C1829.11,-377.078 1848.05,-359.492 1859.21,-349.127"/>
<polygon fill="midnightblue" stroke="midnightblue" points="1812.89,-387.364 1807.94,-396.734 1817.65,-392.494 1812.89,-387.364"/>
</g>
<!-- Node45 -->
<g id="node45" class="node"><title>Node45</title>
<g id="a_node45"><a xlink:href="../../d9/d63/File_8cpp.html" target="_top" xlink:title="source/File.cpp">
<polygon fill="white" stroke="black" points="1945,-330 1945,-349 2028,-349 2028,-330 1945,-330"/>
<text text-anchor="middle" x="1986.5" y="-337" font-family="Helvetica,sans-Serif" font-size="10.00">source/File.cpp</text>
</a>
</g>
</g>
<!-- Node3&#45;&gt;Node45 -->
<g id="edge44" class="edge"><title>Node3&#45;&gt;Node45</title>
<path fill="none" stroke="midnightblue" d="M1833.39,-393.436C1870.69,-380.542 1928.87,-360.424 1961.73,-349.064"/>
<polygon fill="midnightblue" stroke="midnightblue" points="1831.77,-390.293 1823.46,-396.869 1834.06,-396.909 1831.77,-390.293"/>
</g>
<!-- Node5 -->
<g id="node5" class="node"><title>Node5</title>
<g id="a_node5"><a xlink:href="../../d2/d11/Third_8hh.html" target="_top" xlink:title="boca/analysis/Third.hh">
<polygon fill="white" stroke="black" points="1517,-268.5 1517,-287.5 1632,-287.5 1632,-268.5 1517,-268.5"/>
<text text-anchor="middle" x="1574.5" y="-275.5" font-family="Helvetica,sans-Serif" font-size="10.00">boca/analysis/Third.hh</text>
</a>
</g>
</g>
<!-- Node4&#45;&gt;Node5 -->
<g id="edge4" class="edge"><title>Node4&#45;&gt;Node5</title>
<path fill="none" stroke="midnightblue" d="M1574.5,-319.817C1574.5,-308.996 1574.5,-295.898 1574.5,-287.509"/>
<polygon fill="midnightblue" stroke="midnightblue" points="1571,-319.975 1574.5,-329.975 1578,-319.975 1571,-319.975"/>
</g>
<!-- Node6 -->
<g id="node6" class="node"><title>Node6</title>
<g id="a_node6"><a xlink:href="../../d4/d12/boca_2analysis_2Analysis_8hh.html" target="_top" xlink:title="boca/analysis/Analysis.hh">
<polygon fill="white" stroke="black" points="1509,-212.5 1509,-231.5 1640,-231.5 1640,-212.5 1509,-212.5"/>
<text text-anchor="middle" x="1574.5" y="-219.5" font-family="Helvetica,sans-Serif" font-size="10.00">boca/analysis/Analysis.hh</text>
</a>
</g>
</g>
<!-- Node5&#45;&gt;Node6 -->
<g id="edge5" class="edge"><title>Node5&#45;&gt;Node6</title>
<path fill="none" stroke="midnightblue" d="M1574.5,-257.805C1574.5,-248.91 1574.5,-238.78 1574.5,-231.751"/>
<polygon fill="midnightblue" stroke="midnightblue" points="1571,-258.083 1574.5,-268.083 1578,-258.083 1571,-258.083"/>
</g>
<!-- Node7 -->
<g id="node7" class="node"><title>Node7</title>
<g id="a_node7"><a xlink:href="../../df/d04/AnalysisStandardModel_8hh.html" target="_top" xlink:title="boca/standardmodel\l/AnalysisStandardModel.hh">
<polygon fill="white" stroke="black" points="507.5,-145.5 507.5,-175.5 643.5,-175.5 643.5,-145.5 507.5,-145.5"/>
<text text-anchor="start" x="515.5" y="-163.5" font-family="Helvetica,sans-Serif" font-size="10.00">boca/standardmodel</text>
<text text-anchor="middle" x="575.5" y="-152.5" font-family="Helvetica,sans-Serif" font-size="10.00">/AnalysisStandardModel.hh</text>
</a>
</g>
</g>
<!-- Node6&#45;&gt;Node7 -->
<g id="edge6" class="edge"><title>Node6&#45;&gt;Node7</title>
<path fill="none" stroke="midnightblue" d="M1498.87,-216.496C1310.67,-205.286 823.515,-176.272 643.588,-165.555"/>
<polygon fill="midnightblue" stroke="midnightblue" points="1498.76,-219.995 1508.95,-217.096 1499.18,-213.008 1498.76,-219.995"/>
</g>
<!-- Node23 -->
<g id="node23" class="node"><title>Node23</title>
<g id="a_node23"><a xlink:href="../../d9/dee/examples_2cut_2include_2Analysis_8hh.html" target="_top" xlink:title="examples/cut/include\l/Analysis.hh">
<polygon fill="white" stroke="black" points="1177,-145.5 1177,-175.5 1286,-175.5 1286,-145.5 1177,-145.5"/>
<text text-anchor="start" x="1185" y="-163.5" font-family="Helvetica,sans-Serif" font-size="10.00">examples/cut/include</text>
<text text-anchor="middle" x="1231.5" y="-152.5" font-family="Helvetica,sans-Serif" font-size="10.00">/Analysis.hh</text>
</a>
</g>
</g>
<!-- Node6&#45;&gt;Node23 -->
<g id="edge22" class="edge"><title>Node6&#45;&gt;Node23</title>
<path fill="none" stroke="midnightblue" d="M1515.36,-210.741C1450.96,-199.57 1348.82,-181.852 1286.22,-170.993"/>
<polygon fill="midnightblue" stroke="midnightblue" points="1514.91,-214.214 1525.36,-212.475 1516.1,-207.317 1514.91,-214.214"/>
</g>
<!-- Node25 -->
<g id="node25" class="node"><title>Node25</title>
<g id="a_node25"><a xlink:href="../../df/d4c/HeavyHiggs_8hh.html" target="_top" xlink:title="examples/heavyhiggs\l/include/analysis/HeavyHiggs.hh">
<polygon fill="white" stroke="black" points="1494.5,-145.5 1494.5,-175.5 1654.5,-175.5 1654.5,-145.5 1494.5,-145.5"/>
<text text-anchor="start" x="1502.5" y="-163.5" font-family="Helvetica,sans-Serif" font-size="10.00">examples/heavyhiggs</text>
<text text-anchor="middle" x="1574.5" y="-152.5" font-family="Helvetica,sans-Serif" font-size="10.00">/include/analysis/HeavyHiggs.hh</text>
</a>
</g>
</g>
<!-- Node6&#45;&gt;Node25 -->
<g id="edge24" class="edge"><title>Node6&#45;&gt;Node25</title>
<path fill="none" stroke="midnightblue" d="M1574.5,-202.235C1574.5,-193.586 1574.5,-183.497 1574.5,-175.523"/>
<polygon fill="midnightblue" stroke="midnightblue" points="1571,-202.475 1574.5,-212.475 1578,-202.475 1571,-202.475"/>
</g>
<!-- Node34 -->
<g id="node34" class="node"><title>Node34</title>
<g id="a_node34"><a xlink:href="../../dc/d70/AnalysisHiggsCpv_8hh.html" target="_top" xlink:title="examples/higgscpv/include\l/AnalysisHiggsCpv.hh">
<polygon fill="white" stroke="black" points="1829.5,-145.5 1829.5,-175.5 1963.5,-175.5 1963.5,-145.5 1829.5,-145.5"/>
<text text-anchor="start" x="1837.5" y="-163.5" font-family="Helvetica,sans-Serif" font-size="10.00">examples/higgscpv/include</text>
<text text-anchor="middle" x="1896.5" y="-152.5" font-family="Helvetica,sans-Serif" font-size="10.00">/AnalysisHiggsCpv.hh</text>
</a>
</g>
</g>
<!-- Node6&#45;&gt;Node34 -->
<g id="edge33" class="edge"><title>Node6&#45;&gt;Node34</title>
<path fill="none" stroke="midnightblue" d="M1630.62,-210.631C1685.96,-200.404 1770.58,-184.768 1829.44,-173.892"/>
<polygon fill="midnightblue" stroke="midnightblue" points="1629.83,-207.216 1620.63,-212.475 1631.1,-214.1 1629.83,-207.216"/>
</g>
<!-- Node36 -->
<g id="node36" class="node"><title>Node36</title>
<g id="a_node36"><a xlink:href="../../d8/d57/analysis_2TopPartner_8hh.html" target="_top" xlink:title="examples/toppartner\l/include/analysis/TopPartner.hh">
<polygon fill="white" stroke="black" points="2524.5,-145.5 2524.5,-175.5 2678.5,-175.5 2678.5,-145.5 2524.5,-145.5"/>
<text text-anchor="start" x="2532.5" y="-163.5" font-family="Helvetica,sans-Serif" font-size="10.00">examples/toppartner</text>
<text text-anchor="middle" x="2601.5" y="-152.5" font-family="Helvetica,sans-Serif" font-size="10.00">/include/analysis/TopPartner.hh</text>
</a>
</g>
</g>
<!-- Node6&#45;&gt;Node36 -->
<g id="edge35" class="edge"><title>Node6&#45;&gt;Node36</title>
<path fill="none" stroke="midnightblue" d="M1650.47,-216.599C1840.17,-205.608 2333.13,-177.048 2524.22,-165.977"/>
<polygon fill="midnightblue" stroke="midnightblue" points="1650.09,-213.115 1640.31,-217.187 1650.49,-220.103 1650.09,-213.115"/>
</g>
<!-- Node8 -->
<g id="node8" class="node"><title>Node8</title>
<g id="a_node8"><a xlink:href="../../d4/d6b/AnalysisBoson_8hh.html" target="_top" xlink:title="boca/standardmodel\l/AnalysisBoson.hh">
<polygon fill="white" stroke="black" points="20.5,-73 20.5,-103 124.5,-103 124.5,-73 20.5,-73"/>
<text text-anchor="start" x="28.5" y="-91" font-family="Helvetica,sans-Serif" font-size="10.00">boca/standardmodel</text>
<text text-anchor="middle" x="72.5" y="-80" font-family="Helvetica,sans-Serif" font-size="10.00">/AnalysisBoson.hh</text>
</a>
</g>
</g>
<!-- Node7&#45;&gt;Node8 -->
<g id="edge7" class="edge"><title>Node7&#45;&gt;Node8</title>
<path fill="none" stroke="midnightblue" d="M497,-153.419C411.155,-146.021 269.767,-131.639 149.5,-109 140.677,-107.339 131.371,-105.232 122.395,-103.013"/>
<polygon fill="midnightblue" stroke="midnightblue" points="496.927,-156.926 507.188,-154.287 497.521,-149.951 496.927,-156.926"/>
</g>
<!-- Node10 -->
<g id="node10" class="node"><title>Node10</title>
<g id="a_node10"><a xlink:href="../../d6/dbe/AnalysisBottom_8hh.html" target="_top" xlink:title="boca/standardmodel\l/AnalysisBottom.hh">
<polygon fill="white" stroke="black" points="158.5,-73 158.5,-103 262.5,-103 262.5,-73 158.5,-73"/>
<text text-anchor="start" x="166.5" y="-91" font-family="Helvetica,sans-Serif" font-size="10.00">boca/standardmodel</text>
<text text-anchor="middle" x="210.5" y="-80" font-family="Helvetica,sans-Serif" font-size="10.00">/AnalysisBottom.hh</text>
</a>
</g>
</g>
<!-- Node7&#45;&gt;Node10 -->
<g id="edge9" class="edge"><title>Node7&#45;&gt;Node10</title>
<path fill="none" stroke="midnightblue" d="M497.503,-146.687C440.984,-137.11 362.815,-123.26 294.5,-109 284.228,-106.856 273.293,-104.389 262.825,-101.936"/>
<polygon fill="midnightblue" stroke="midnightblue" points="496.999,-150.152 507.442,-148.365 498.165,-143.249 496.999,-150.152"/>
</g>
<!-- Node12 -->
<g id="node12" class="node"><title>Node12</title>
<g id="a_node12"><a xlink:href="../../d7/db6/AnalysisHiggs_8hh.html" target="_top" xlink:title="boca/standardmodel\l/AnalysisHiggs.hh">
<polygon fill="white" stroke="black" points="303.5,-73 303.5,-103 407.5,-103 407.5,-73 303.5,-73"/>
<text text-anchor="start" x="311.5" y="-91" font-family="Helvetica,sans-Serif" font-size="10.00">boca/standardmodel</text>
<text text-anchor="middle" x="355.5" y="-80" font-family="Helvetica,sans-Serif" font-size="10.00">/AnalysisHiggs.hh</text>
</a>
</g>
</g>
<!-- Node7&#45;&gt;Node12 -->
<g id="edge11" class="edge"><title>Node7&#45;&gt;Node12</title>
<path fill="none" stroke="midnightblue" d="M522.009,-142.358C484.441,-130.32 434.801,-114.412 399.521,-103.107"/>
<polygon fill="midnightblue" stroke="midnightblue" points="521.181,-145.768 531.772,-145.487 523.317,-139.102 521.181,-145.768"/>
</g>
<!-- Node14 -->
<g id="node14" class="node"><title>Node14</title>
<g id="a_node14"><a xlink:href="../../d0/dda/AnalysisTop_8hh.html" target="_top" xlink:title="boca/standardmodel\l/AnalysisTop.hh">
<polygon fill="white" stroke="black" points="462.5,-73 462.5,-103 566.5,-103 566.5,-73 462.5,-73"/>
<text text-anchor="start" x="470.5" y="-91" font-family="Helvetica,sans-Serif" font-size="10.00">boca/standardmodel</text>
<text text-anchor="middle" x="514.5" y="-80" font-family="Helvetica,sans-Serif" font-size="10.00">/AnalysisTop.hh</text>
</a>
</g>
</g>
<!-- Node7&#45;&gt;Node14 -->
<g id="edge13" class="edge"><title>Node7&#45;&gt;Node14</title>
<path fill="none" stroke="midnightblue" d="M556.498,-137.539C546.822,-126.356 535.338,-113.083 526.826,-103.246"/>
<polygon fill="midnightblue" stroke="midnightblue" points="553.966,-139.961 563.156,-145.233 559.259,-135.381 553.966,-139.961"/>
</g>
<!-- Node18 -->
<g id="node18" class="node"><title>Node18</title>
<g id="a_node18"><a xlink:href="../../da/dd8/AnalysisW_8hh.html" target="_top" xlink:title="boca/standardmodel\l/AnalysisW.hh">
<polygon fill="white" stroke="black" points="584.5,-73 584.5,-103 688.5,-103 688.5,-73 584.5,-73"/>
<text text-anchor="start" x="592.5" y="-91" font-family="Helvetica,sans-Serif" font-size="10.00">boca/standardmodel</text>
<text text-anchor="middle" x="636.5" y="-80" font-family="Helvetica,sans-Serif" font-size="10.00">/AnalysisW.hh</text>
</a>
</g>
</g>
<!-- Node7&#45;&gt;Node18 -->
<g id="edge17" class="edge"><title>Node7&#45;&gt;Node18</title>
<path fill="none" stroke="midnightblue" d="M594.502,-137.539C604.178,-126.356 615.662,-113.083 624.174,-103.246"/>
<polygon fill="midnightblue" stroke="midnightblue" points="591.741,-135.381 587.844,-145.233 597.034,-139.961 591.741,-135.381"/>
</g>
<!-- Node20 -->
<g id="node20" class="node"><title>Node20</title>
<g id="a_node20"><a xlink:href="../../d0/d88/AnalysisZ_8hh.html" target="_top" xlink:title="boca/standardmodel\l/AnalysisZ.hh">
<polygon fill="white" stroke="black" points="706.5,-73 706.5,-103 810.5,-103 810.5,-73 706.5,-73"/>
<text text-anchor="start" x="714.5" y="-91" font-family="Helvetica,sans-Serif" font-size="10.00">boca/standardmodel</text>
<text text-anchor="middle" x="758.5" y="-80" font-family="Helvetica,sans-Serif" font-size="10.00">/AnalysisZ.hh</text>
</a>
</g>
</g>
<!-- Node7&#45;&gt;Node20 -->
<g id="edge19" class="edge"><title>Node7&#45;&gt;Node20</title>
<path fill="none" stroke="midnightblue" d="M621.822,-141.655C652.872,-129.693 693.187,-114.162 721.97,-103.073"/>
<polygon fill="midnightblue" stroke="midnightblue" points="620.166,-138.542 612.093,-145.403 622.683,-145.074 620.166,-138.542"/>
</g>
<!-- Node22 -->
<g id="node22" class="node"><title>Node22</title>
<g id="a_node22"><a xlink:href="../../df/d46/AnalysisStandardModel_8cpp.html" target="_top" xlink:title="source/standardmodel\l/AnalysisStandardModel.cpp">
<polygon fill="white" stroke="black" points="829,-73 829,-103 970,-103 970,-73 829,-73"/>
<text text-anchor="start" x="837" y="-91" font-family="Helvetica,sans-Serif" font-size="10.00">source/standardmodel</text>
<text text-anchor="middle" x="899.5" y="-80" font-family="Helvetica,sans-Serif" font-size="10.00">/AnalysisStandardModel.cpp</text>
</a>
</g>
</g>
<!-- Node7&#45;&gt;Node22 -->
<g id="edge21" class="edge"><title>Node7&#45;&gt;Node22</title>
<path fill="none" stroke="midnightblue" d="M653.51,-144.2C701.493,-134.579 764.182,-121.634 819.5,-109 827.595,-107.151 836.128,-105.114 844.486,-103.068"/>
<polygon fill="midnightblue" stroke="midnightblue" points="652.621,-140.808 643.502,-146.201 653.994,-147.672 652.621,-140.808"/>
</g>
<!-- Node9 -->
<g id="node9" class="node"><title>Node9</title>
<g id="a_node9"><a xlink:href="../../de/d28/MainBoson_8cpp.html" target="_top" xlink:title="source/standardmodel\l/MainBoson.cpp">
<polygon fill="white" stroke="black" points="0,-0.5 0,-30.5 113,-30.5 113,-0.5 0,-0.5"/>
<text text-anchor="start" x="8" y="-18.5" font-family="Helvetica,sans-Serif" font-size="10.00">source/standardmodel</text>
<text text-anchor="middle" x="56.5" y="-7.5" font-family="Helvetica,sans-Serif" font-size="10.00">/MainBoson.cpp</text>
</a>
</g>
</g>
<!-- Node8&#45;&gt;Node9 -->
<g id="edge8" class="edge"><title>Node8&#45;&gt;Node9</title>
<path fill="none" stroke="midnightblue" d="M66.9923,-62.7317C64.5722,-52.0679 61.8139,-39.9145 59.733,-30.7455"/>
<polygon fill="midnightblue" stroke="midnightblue" points="63.6357,-63.7559 69.2622,-72.7333 70.4621,-62.2066 63.6357,-63.7559"/>
</g>
<!-- Node11 -->
<g id="node11" class="node"><title>Node11</title>
<g id="a_node11"><a xlink:href="../../d7/d2e/MainBottom_8cpp.html" target="_top" xlink:title="source/standardmodel\l/MainBottom.cpp">
<polygon fill="white" stroke="black" points="131,-0.5 131,-30.5 244,-30.5 244,-0.5 131,-0.5"/>
<text text-anchor="start" x="139" y="-18.5" font-family="Helvetica,sans-Serif" font-size="10.00">source/standardmodel</text>
<text text-anchor="middle" x="187.5" y="-7.5" font-family="Helvetica,sans-Serif" font-size="10.00">/MainBottom.cpp</text>
</a>
</g>
</g>
<!-- Node10&#45;&gt;Node11 -->
<g id="edge10" class="edge"><title>Node10&#45;&gt;Node11</title>
<path fill="none" stroke="midnightblue" d="M202.691,-63.0645C199.186,-52.3215 195.17,-40.01 192.147,-30.7455"/>
<polygon fill="midnightblue" stroke="midnightblue" points="199.417,-64.312 205.846,-72.7333 206.071,-62.1408 199.417,-64.312"/>
</g>
<!-- Node13 -->
<g id="node13" class="node"><title>Node13</title>
<g id="a_node13"><a xlink:href="../../d6/d9f/MainHiggs_8cpp.html" target="_top" xlink:title="source/standardmodel\l/MainHiggs.cpp">
<polygon fill="white" stroke="black" points="262,-0.5 262,-30.5 375,-30.5 375,-0.5 262,-0.5"/>
<text text-anchor="start" x="270" y="-18.5" font-family="Helvetica,sans-Serif" font-size="10.00">source/standardmodel</text>
<text text-anchor="middle" x="318.5" y="-7.5" font-family="Helvetica,sans-Serif" font-size="10.00">/MainHiggs.cpp</text>
</a>
</g>
</g>
<!-- Node12&#45;&gt;Node13 -->
<g id="edge12" class="edge"><title>Node12&#45;&gt;Node13</title>
<path fill="none" stroke="midnightblue" d="M343.286,-63.727C337.567,-52.8304 330.939,-40.201 325.976,-30.7455"/>
<polygon fill="midnightblue" stroke="midnightblue" points="340.266,-65.5051 348.012,-72.7333 346.464,-62.2521 340.266,-65.5051"/>
</g>
<!-- Node15 -->
<g id="node15" class="node"><title>Node15</title>
<g id="a_node15"><a xlink:href="../../d7/d95/AnalysisTop_8cpp.html" target="_top" xlink:title="source/standardmodel\l/AnalysisTop.cpp">
<polygon fill="white" stroke="black" points="393,-0.5 393,-30.5 506,-30.5 506,-0.5 393,-0.5"/>
<text text-anchor="start" x="401" y="-18.5" font-family="Helvetica,sans-Serif" font-size="10.00">source/standardmodel</text>
<text text-anchor="middle" x="449.5" y="-7.5" font-family="Helvetica,sans-Serif" font-size="10.00">/AnalysisTop.cpp</text>
</a>
</g>
</g>
<!-- Node14&#45;&gt;Node15 -->
<g id="edge14" class="edge"><title>Node14&#45;&gt;Node15</title>
<path fill="none" stroke="midnightblue" d="M494.552,-65.3641C484.18,-54.1142 471.792,-40.6786 462.634,-30.7455"/>
<polygon fill="midnightblue" stroke="midnightblue" points="491.995,-67.7537 501.346,-72.7333 497.141,-63.0087 491.995,-67.7537"/>
</g>
<!-- Node16 -->
<g id="node16" class="node"><title>Node16</title>
<g id="a_node16"><a xlink:href="../../da/d4b/MainTop_8cpp.html" target="_top" xlink:title="source/standardmodel\l/MainTop.cpp">
<polygon fill="white" stroke="black" points="524,-0.5 524,-30.5 637,-30.5 637,-0.5 524,-0.5"/>
<text text-anchor="start" x="532" y="-18.5" font-family="Helvetica,sans-Serif" font-size="10.00">source/standardmodel</text>
<text text-anchor="middle" x="580.5" y="-7.5" font-family="Helvetica,sans-Serif" font-size="10.00">/MainTop.cpp</text>
</a>
</g>
</g>
<!-- Node14&#45;&gt;Node16 -->
<g id="edge15" class="edge"><title>Node14&#45;&gt;Node16</title>
<path fill="none" stroke="midnightblue" d="M534.755,-65.3641C545.287,-54.1142 557.865,-40.6786 567.164,-30.7455"/>
<polygon fill="midnightblue" stroke="midnightblue" points="532.135,-63.041 527.856,-72.7333 537.245,-67.825 532.135,-63.041"/>
</g>
<!-- Node17 -->
<g id="node17" class="node"><title>Node17</title>
<g id="a_node17"><a xlink:href="../../d5/d1c/source_2standardmodel_2MainTruth_8cpp.html" target="_top" xlink:title="source/standardmodel\l/MainTruth.cpp">
<polygon fill="white" stroke="black" points="655,-0.5 655,-30.5 768,-30.5 768,-0.5 655,-0.5"/>
<text text-anchor="start" x="663" y="-18.5" font-family="Helvetica,sans-Serif" font-size="10.00">source/standardmodel</text>
<text text-anchor="middle" x="711.5" y="-7.5" font-family="Helvetica,sans-Serif" font-size="10.00">/MainTruth.cpp</text>
</a>
</g>
</g>
<!-- Node14&#45;&gt;Node17 -->
<g id="edge16" class="edge"><title>Node14&#45;&gt;Node17</title>
<path fill="none" stroke="midnightblue" d="M563.5,-69.4645C597.038,-57.4622 640.922,-41.7576 672.176,-30.5729"/>
<polygon fill="midnightblue" stroke="midnightblue" points="562.128,-66.2379 553.892,-72.9027 564.487,-72.8286 562.128,-66.2379"/>
</g>
<!-- Node19 -->
<g id="node19" class="node"><title>Node19</title>
<g id="a_node19"><a xlink:href="../../d2/d01/MainW_8cpp.html" target="_top" xlink:title="source/standardmodel\l/MainW.cpp">
<polygon fill="white" stroke="black" points="786,-0.5 786,-30.5 899,-30.5 899,-0.5 786,-0.5"/>
<text text-anchor="start" x="794" y="-18.5" font-family="Helvetica,sans-Serif" font-size="10.00">source/standardmodel</text>
<text text-anchor="middle" x="842.5" y="-7.5" font-family="Helvetica,sans-Serif" font-size="10.00">/MainW.cpp</text>
</a>
</g>
</g>
<!-- Node18&#45;&gt;Node19 -->
<g id="edge18" class="edge"><title>Node18&#45;&gt;Node19</title>
<path fill="none" stroke="midnightblue" d="M687.287,-69.6188C722.415,-57.5971 768.558,-41.8056 801.379,-30.5729"/>
<polygon fill="midnightblue" stroke="midnightblue" points="686.02,-66.3532 677.692,-72.9027 688.287,-72.9761 686.02,-66.3532"/>
</g>
<!-- Node21 -->
<g id="node21" class="node"><title>Node21</title>
<g id="a_node21"><a xlink:href="../../d2/dee/MainZ_8cpp.html" target="_top" xlink:title="source/standardmodel\l/MainZ.cpp">
<polygon fill="white" stroke="black" points="917,-0.5 917,-30.5 1030,-30.5 1030,-0.5 917,-0.5"/>
<text text-anchor="start" x="925" y="-18.5" font-family="Helvetica,sans-Serif" font-size="10.00">source/standardmodel</text>
<text text-anchor="middle" x="973.5" y="-7.5" font-family="Helvetica,sans-Serif" font-size="10.00">/MainZ.cpp</text>
</a>
</g>
</g>
<!-- Node20&#45;&gt;Node21 -->
<g id="edge20" class="edge"><title>Node20&#45;&gt;Node21</title>
<path fill="none" stroke="midnightblue" d="M810.776,-69.8585C847.49,-57.8196 896.002,-41.9123 930.479,-30.6069"/>
<polygon fill="midnightblue" stroke="midnightblue" points="809.646,-66.5455 801.234,-72.9872 811.827,-73.197 809.646,-66.5455"/>
</g>
<!-- Node24 -->
<g id="node24" class="node"><title>Node24</title>
<g id="a_node24"><a xlink:href="../../d8/d56/cut_2source_2MainCut_8cpp.html" target="_top" xlink:title="examples/cut/source\l/MainCut.cpp">
<polygon fill="white" stroke="black" points="988,-73 988,-103 1095,-103 1095,-73 988,-73"/>
<text text-anchor="start" x="996" y="-91" font-family="Helvetica,sans-Serif" font-size="10.00">examples/cut/source</text>
<text text-anchor="middle" x="1041.5" y="-80" font-family="Helvetica,sans-Serif" font-size="10.00">/MainCut.cpp</text>
</a>
</g>
</g>
<!-- Node23&#45;&gt;Node24 -->
<g id="edge23" class="edge"><title>Node23&#45;&gt;Node24</title>
<path fill="none" stroke="midnightblue" d="M1183.82,-141.81C1151.53,-129.827 1109.44,-114.21 1079.43,-103.073"/>
<polygon fill="midnightblue" stroke="midnightblue" points="1182.91,-145.205 1193.51,-145.403 1185.35,-138.642 1182.91,-145.205"/>
</g>
<!-- Node26 -->
<g id="node26" class="node"><title>Node26</title>
<g id="a_node26"><a xlink:href="../../d1/d34/Charged_8hh.html" target="_top" xlink:title="examples/heavyhiggs\l/include/analysis/Charged.hh">
<polygon fill="white" stroke="black" points="1113,-73 1113,-103 1256,-103 1256,-73 1113,-73"/>
<text text-anchor="start" x="1121" y="-91" font-family="Helvetica,sans-Serif" font-size="10.00">examples/heavyhiggs</text>
<text text-anchor="middle" x="1184.5" y="-80" font-family="Helvetica,sans-Serif" font-size="10.00">/include/analysis/Charged.hh</text>
</a>
</g>
</g>
<!-- Node25&#45;&gt;Node26 -->
<g id="edge25" class="edge"><title>Node25&#45;&gt;Node26</title>
<path fill="none" stroke="midnightblue" d="M1484.05,-146.802C1422.03,-137.596 1337.98,-124.143 1264.5,-109 1255.95,-107.237 1246.93,-105.179 1238.15,-103.066"/>
<polygon fill="midnightblue" stroke="midnightblue" points="1483.79,-150.302 1494.2,-148.299 1484.82,-143.377 1483.79,-150.302"/>
</g>
<!-- Node28 -->
<g id="node28" class="node"><title>Node28</title>
<g id="a_node28"><a xlink:href="../../d2/d66/Fusion_8hh.html" target="_top" xlink:title="examples/heavyhiggs\l/include/analysis/Fusion.hh">
<polygon fill="white" stroke="black" points="1274,-73 1274,-103 1409,-103 1409,-73 1274,-73"/>
<text text-anchor="start" x="1282" y="-91" font-family="Helvetica,sans-Serif" font-size="10.00">examples/heavyhiggs</text>
<text text-anchor="middle" x="1341.5" y="-80" font-family="Helvetica,sans-Serif" font-size="10.00">/include/analysis/Fusion.hh</text>
</a>
</g>
</g>
<!-- Node25&#45;&gt;Node28 -->
<g id="edge27" class="edge"><title>Node25&#45;&gt;Node28</title>
<path fill="none" stroke="midnightblue" d="M1518.61,-142.589C1478.73,-130.523 1425.73,-114.484 1388.12,-103.107"/>
<polygon fill="midnightblue" stroke="midnightblue" points="1517.6,-145.941 1528.19,-145.487 1519.63,-139.241 1517.6,-145.941"/>
</g>
<!-- Node30 -->
<g id="node30" class="node"><title>Node30</title>
<g id="a_node30"><a xlink:href="../../d8/dc1/Neutral_8hh.html" target="_top" xlink:title="examples/heavyhiggs\l/include/analysis/Neutral.hh">
<polygon fill="white" stroke="red" points="1427,-73 1427,-103 1564,-103 1564,-73 1427,-73"/>
<text text-anchor="start" x="1435" y="-91" font-family="Helvetica,sans-Serif" font-size="10.00">examples/heavyhiggs</text>
<text text-anchor="middle" x="1495.5" y="-80" font-family="Helvetica,sans-Serif" font-size="10.00">/include/analysis/Neutral.hh</text>
</a>
</g>
</g>
<!-- Node25&#45;&gt;Node30 -->
<g id="edge29" class="edge"><title>Node25&#45;&gt;Node30</title>
<path fill="none" stroke="midnightblue" d="M1550.93,-138.464C1538.09,-127.004 1522.55,-113.137 1511.19,-103.005"/>
<polygon fill="midnightblue" stroke="midnightblue" points="1548.72,-141.186 1558.51,-145.233 1553.38,-135.964 1548.72,-141.186"/>
</g>
<!-- Node31 -->
<g id="node31" class="node"><title>Node31</title>
<g id="a_node31"><a xlink:href="../../d7/dc4/NeutralFourTop_8hh.html" target="_top" xlink:title="examples/heavyhiggs\l/include/analysis/NeutralFour\lTop.hh">
<polygon fill="white" stroke="red" points="1582,-67.5 1582,-108.5 1725,-108.5 1725,-67.5 1582,-67.5"/>
<text text-anchor="start" x="1590" y="-96.5" font-family="Helvetica,sans-Serif" font-size="10.00">examples/heavyhiggs</text>
<text text-anchor="start" x="1590" y="-85.5" font-family="Helvetica,sans-Serif" font-size="10.00">/include/analysis/NeutralFour</text>
<text text-anchor="middle" x="1653.5" y="-74.5" font-family="Helvetica,sans-Serif" font-size="10.00">Top.hh</text>
</a>
</g>
</g>
<!-- Node25&#45;&gt;Node31 -->
<g id="edge30" class="edge"><title>Node25&#45;&gt;Node31</title>
<path fill="none" stroke="midnightblue" d="M1598.17,-138.379C1608.76,-128.928 1621.17,-117.852 1631.55,-108.588"/>
<polygon fill="midnightblue" stroke="midnightblue" points="1595.62,-135.964 1590.49,-145.233 1600.28,-141.186 1595.62,-135.964"/>
</g>
<!-- Node32 -->
<g id="node32" class="node"><title>Node32</title>
<g id="a_node32"><a xlink:href="../../d1/da4/heavyhiggs_2include_2analysis_2Pair_8hh.html" target="_top" xlink:title="examples/heavyhiggs\l/include/analysis/Pair.hh">
<polygon fill="white" stroke="black" points="1743,-73 1743,-103 1866,-103 1866,-73 1743,-73"/>
<text text-anchor="start" x="1751" y="-91" font-family="Helvetica,sans-Serif" font-size="10.00">examples/heavyhiggs</text>
<text text-anchor="middle" x="1804.5" y="-80" font-family="Helvetica,sans-Serif" font-size="10.00">/include/analysis/Pair.hh</text>
</a>
</g>
</g>
<!-- Node25&#45;&gt;Node32 -->
<g id="edge31" class="edge"><title>Node25&#45;&gt;Node32</title>
<path fill="none" stroke="midnightblue" d="M1629.92,-142.512C1669.26,-130.455 1721.44,-114.46 1758.48,-103.107"/>
<polygon fill="midnightblue" stroke="midnightblue" points="1628.75,-139.21 1620.22,-145.487 1630.8,-145.903 1628.75,-139.21"/>
</g>
<!-- Node33 -->
<g id="node33" class="node"><title>Node33</title>
<g id="a_node33"><a xlink:href="../../da/dd2/AnalysisHeavyHiggs_8cpp.html" target="_top" xlink:title="examples/heavyhiggs\l/source/AnalysisHeavyHiggs.cpp">
<polygon fill="white" stroke="black" points="1884.5,-73 1884.5,-103 2046.5,-103 2046.5,-73 1884.5,-73"/>
<text text-anchor="start" x="1892.5" y="-91" font-family="Helvetica,sans-Serif" font-size="10.00">examples/heavyhiggs</text>
<text text-anchor="middle" x="1965.5" y="-80" font-family="Helvetica,sans-Serif" font-size="10.00">/source/AnalysisHeavyHiggs.cpp</text>
</a>
</g>
</g>
<!-- Node25&#45;&gt;Node33 -->
<g id="edge32" class="edge"><title>Node25&#45;&gt;Node33</title>
<path fill="none" stroke="midnightblue" d="M1664.74,-145.505C1724.41,-135.958 1804.29,-122.617 1874.5,-109 1883.87,-107.183 1893.75,-105.141 1903.42,-103.075"/>
<polygon fill="midnightblue" stroke="midnightblue" points="1663.92,-142.092 1654.6,-147.124 1665.02,-149.005 1663.92,-142.092"/>
</g>
<!-- Node27 -->
<g id="node27" class="node"><title>Node27</title>
<g id="a_node27"><a xlink:href="../../d3/d46/MainCharged_8cpp.html" target="_top" xlink:title="examples/heavyhiggs\l/source/MainCharged.cpp">
<polygon fill="white" stroke="black" points="1120.5,-0.5 1120.5,-30.5 1248.5,-30.5 1248.5,-0.5 1120.5,-0.5"/>
<text text-anchor="start" x="1128.5" y="-18.5" font-family="Helvetica,sans-Serif" font-size="10.00">examples/heavyhiggs</text>
<text text-anchor="middle" x="1184.5" y="-7.5" font-family="Helvetica,sans-Serif" font-size="10.00">/source/MainCharged.cpp</text>
</a>
</g>
</g>
<!-- Node26&#45;&gt;Node27 -->
<g id="edge26" class="edge"><title>Node26&#45;&gt;Node27</title>
<path fill="none" stroke="midnightblue" d="M1184.5,-62.7317C1184.5,-52.0679 1184.5,-39.9145 1184.5,-30.7455"/>
<polygon fill="midnightblue" stroke="midnightblue" points="1181,-62.7332 1184.5,-72.7333 1188,-62.7333 1181,-62.7332"/>
</g>
<!-- Node29 -->
<g id="node29" class="node"><title>Node29</title>
<g id="a_node29"><a xlink:href="../../d5/d90/MainFusion_8cpp.html" target="_top" xlink:title="examples/heavyhiggs\l/source/MainFusion.cpp">
<polygon fill="white" stroke="black" points="1281,-0.5 1281,-30.5 1402,-30.5 1402,-0.5 1281,-0.5"/>
<text text-anchor="start" x="1289" y="-18.5" font-family="Helvetica,sans-Serif" font-size="10.00">examples/heavyhiggs</text>
<text text-anchor="middle" x="1341.5" y="-7.5" font-family="Helvetica,sans-Serif" font-size="10.00">/source/MainFusion.cpp</text>
</a>
</g>
</g>
<!-- Node28&#45;&gt;Node29 -->
<g id="edge28" class="edge"><title>Node28&#45;&gt;Node29</title>
<path fill="none" stroke="midnightblue" d="M1341.5,-62.7317C1341.5,-52.0679 1341.5,-39.9145 1341.5,-30.7455"/>
<polygon fill="midnightblue" stroke="midnightblue" points="1338,-62.7332 1341.5,-72.7333 1345,-62.7333 1338,-62.7332"/>
</g>
<!-- Node35 -->
<g id="node35" class="node"><title>Node35</title>
<g id="a_node35"><a xlink:href="../../df/d0a/main_8cpp.html" target="_top" xlink:title="examples/higgscpv/source\l/main.cpp">
<polygon fill="white" stroke="black" points="2065,-73 2065,-103 2198,-103 2198,-73 2065,-73"/>
<text text-anchor="start" x="2073" y="-91" font-family="Helvetica,sans-Serif" font-size="10.00">examples/higgscpv/source</text>
<text text-anchor="middle" x="2131.5" y="-80" font-family="Helvetica,sans-Serif" font-size="10.00">/main.cpp</text>
</a>
</g>
</g>
<!-- Node34&#45;&gt;Node35 -->
<g id="edge34" class="edge"><title>Node34&#45;&gt;Node35</title>
<path fill="none" stroke="midnightblue" d="M1952.87,-142.589C1993.09,-130.523 2046.55,-114.484 2084.48,-103.107"/>
<polygon fill="midnightblue" stroke="midnightblue" points="1951.78,-139.261 1943.21,-145.487 1953.79,-145.966 1951.78,-139.261"/>
</g>
<!-- Node37 -->
<g id="node37" class="node"><title>Node37</title>
<g id="a_node37"><a xlink:href="../../d4/d3c/Effective_8hh.html" target="_top" xlink:title="examples/toppartner\l/include/analysis/Effective.hh">
<polygon fill="white" stroke="red" points="2216,-73 2216,-103 2361,-103 2361,-73 2216,-73"/>
<text text-anchor="start" x="2224" y="-91" font-family="Helvetica,sans-Serif" font-size="10.00">examples/toppartner</text>
<text text-anchor="middle" x="2288.5" y="-80" font-family="Helvetica,sans-Serif" font-size="10.00">/include/analysis/Effective.hh</text>
</a>
</g>
</g>
<!-- Node36&#45;&gt;Node37 -->
<g id="edge36" class="edge"><title>Node36&#45;&gt;Node37</title>
<path fill="none" stroke="midnightblue" d="M2524.61,-143.322C2479.37,-133.666 2421.11,-120.986 2369.5,-109 2361.46,-107.132 2352.98,-105.105 2344.66,-103.081"/>
<polygon fill="midnightblue" stroke="midnightblue" points="2524.13,-146.798 2534.64,-145.459 2525.58,-139.952 2524.13,-146.798"/>
</g>
<!-- Node38 -->
<g id="node38" class="node"><title>Node38</title>
<g id="a_node38"><a xlink:href="../../d6/da4/NewPair_8hh.html" target="_top" xlink:title="examples/toppartner\l/include/analysis/NewPair.hh">
<polygon fill="white" stroke="red" points="2379,-73 2379,-103 2522,-103 2522,-73 2379,-73"/>
<text text-anchor="start" x="2387" y="-91" font-family="Helvetica,sans-Serif" font-size="10.00">examples/toppartner</text>
<text text-anchor="middle" x="2450.5" y="-80" font-family="Helvetica,sans-Serif" font-size="10.00">/include/analysis/NewPair.hh</text>
</a>
</g>
</g>
<!-- Node36&#45;&gt;Node38 -->
<g id="edge37" class="edge"><title>Node36&#45;&gt;Node38</title>
<path fill="none" stroke="midnightblue" d="M2561.94,-141.03C2536.51,-129.156 2503.98,-113.97 2480.64,-103.073"/>
<polygon fill="midnightblue" stroke="midnightblue" points="2560.76,-144.344 2571.31,-145.403 2563.73,-138.001 2560.76,-144.344"/>
</g>
<!-- Node39 -->
<g id="node39" class="node"><title>Node39</title>
<g id="a_node39"><a xlink:href="../../da/d52/toppartner_2include_2analysis_2Pair_8hh.html" target="_top" xlink:title="examples/toppartner\l/include/analysis/Pair.hh">
<polygon fill="white" stroke="red" points="2540,-73 2540,-103 2663,-103 2663,-73 2540,-73"/>
<text text-anchor="start" x="2548" y="-91" font-family="Helvetica,sans-Serif" font-size="10.00">examples/toppartner</text>
<text text-anchor="middle" x="2601.5" y="-80" font-family="Helvetica,sans-Serif" font-size="10.00">/include/analysis/Pair.hh</text>
</a>
</g>
</g>
<!-- Node36&#45;&gt;Node39 -->
<g id="edge38" class="edge"><title>Node36&#45;&gt;Node39</title>
<path fill="none" stroke="midnightblue" d="M2601.5,-135.232C2601.5,-124.568 2601.5,-112.414 2601.5,-103.246"/>
<polygon fill="midnightblue" stroke="midnightblue" points="2598,-135.233 2601.5,-145.233 2605,-135.233 2598,-135.233"/>
</g>
<!-- Node40 -->
<g id="node40" class="node"><title>Node40</title>
<g id="a_node40"><a xlink:href="../../da/d5e/SingleHadronic_8hh.html" target="_top" xlink:title="examples/toppartner\l/include/analysis/SingleHadronic.hh">
<polygon fill="white" stroke="red" points="2681.5,-73 2681.5,-103 2853.5,-103 2853.5,-73 2681.5,-73"/>
<text text-anchor="start" x="2689.5" y="-91" font-family="Helvetica,sans-Serif" font-size="10.00">examples/toppartner</text>
<text text-anchor="middle" x="2767.5" y="-80" font-family="Helvetica,sans-Serif" font-size="10.00">/include/analysis/SingleHadronic.hh</text>
</a>
</g>
</g>
<!-- Node36&#45;&gt;Node40 -->
<g id="edge39" class="edge"><title>Node36&#45;&gt;Node40</title>
<path fill="none" stroke="midnightblue" d="M2644.25,-141.343C2672.32,-129.424 2708.48,-114.066 2734.36,-103.073"/>
<polygon fill="midnightblue" stroke="midnightblue" points="2642.53,-138.272 2634.69,-145.403 2645.27,-144.715 2642.53,-138.272"/>
</g>
<!-- Node41 -->
<g id="node41" class="node"><title>Node41</title>
<g id="a_node41"><a xlink:href="../../d9/d64/SingleLeptonic_8hh.html" target="_top" xlink:title="examples/toppartner\l/include/analysis/SingleLeptonic.hh">
<polygon fill="white" stroke="red" points="2871.5,-73 2871.5,-103 3041.5,-103 3041.5,-73 2871.5,-73"/>
<text text-anchor="start" x="2879.5" y="-91" font-family="Helvetica,sans-Serif" font-size="10.00">examples/toppartner</text>
<text text-anchor="middle" x="2956.5" y="-80" font-family="Helvetica,sans-Serif" font-size="10.00">/include/analysis/SingleLeptonic.hh</text>
</a>
</g>
</g>
<!-- Node36&#45;&gt;Node41 -->
<g id="edge40" class="edge"><title>Node36&#45;&gt;Node41</title>
<path fill="none" stroke="midnightblue" d="M2685.84,-143.591C2737,-133.84 2803.56,-120.971 2862.5,-109 2871.82,-107.107 2881.65,-105.066 2891.3,-103.035"/>
<polygon fill="midnightblue" stroke="midnightblue" points="2684.99,-140.19 2675.82,-145.498 2686.3,-147.066 2684.99,-140.19"/>
</g>
<!-- Node42 -->
<g id="node42" class="node"><title>Node42</title>
<g id="a_node42"><a xlink:href="../../db/da4/TopPartner_8cpp.html" target="_top" xlink:title="examples/toppartner\l/source/TopPartner.cpp">
<polygon fill="white" stroke="black" points="3060,-73 3060,-103 3179,-103 3179,-73 3060,-73"/>
<text text-anchor="start" x="3068" y="-91" font-family="Helvetica,sans-Serif" font-size="10.00">examples/toppartner</text>
<text text-anchor="middle" x="3119.5" y="-80" font-family="Helvetica,sans-Serif" font-size="10.00">/source/TopPartner.cpp</text>
</a>
</g>
</g>
<!-- Node36&#45;&gt;Node42 -->
<g id="edge41" class="edge"><title>Node36&#45;&gt;Node42</title>
<path fill="none" stroke="midnightblue" d="M2688.77,-154.099C2779.74,-147.442 2926.12,-133.833 3050.5,-109 3058.57,-107.388 3067.07,-105.278 3075.23,-103.034"/>
<polygon fill="midnightblue" stroke="midnightblue" points="2688.5,-150.61 2678.78,-154.819 2689.01,-157.591 2688.5,-150.61"/>
</g>
</g>
</svg>
