<?xml version="1.0" encoding="UTF-8" standalone="no"?>
<!DOCTYPE svg PUBLIC "-//W3C//DTD SVG 1.1//EN"
 "http://www.w3.org/Graphics/SVG/1.1/DTD/svg11.dtd">
<!-- Generated by graphviz version 2.38.0 (20140413.2041)
 -->
<!-- Title: boca/Names.hh Pages: 1 -->
<svg width="2971pt" height="397pt"
 viewBox="0.00 0.00 2970.50 397.00" xmlns="http://www.w3.org/2000/svg" xmlns:xlink="http://www.w3.org/1999/xlink">
<g id="graph0" class="graph" transform="scale(1 1) rotate(0) translate(4 393)">
<title>boca/Names.hh</title>
<polygon fill="white" stroke="none" points="-4,4 -4,-393 2966.5,-393 2966.5,4 -4,4"/>
<!-- Node1 -->
<g id="node1" class="node"><title>Node1</title>
<polygon fill="#bfbfbf" stroke="black" points="2207.5,-369.5 2207.5,-388.5 2293.5,-388.5 2293.5,-369.5 2207.5,-369.5"/>
<text text-anchor="middle" x="2250.5" y="-376.5" font-family="Helvetica,sans-Serif" font-size="10.00">boca/Names.hh</text>
</g>
<!-- Node2 -->
<g id="node2" class="node"><title>Node2</title>
<g id="a_node2"><a xlink:href="../../d2/d1f/Info_8hh.html" target="_top" xlink:title="boca/branch/Info.hh">
<polygon fill="white" stroke="black" points="1993,-313.5 1993,-332.5 2096,-332.5 2096,-313.5 1993,-313.5"/>
<text text-anchor="middle" x="2044.5" y="-320.5" font-family="Helvetica,sans-Serif" font-size="10.00">boca/branch/Info.hh</text>
</a>
</g>
</g>
<!-- Node1&#45;&gt;Node2 -->
<g id="edge1" class="edge"><title>Node1&#45;&gt;Node2</title>
<path fill="none" stroke="midnightblue" d="M2207.88,-366.829C2168.99,-356.633 2112.34,-341.782 2076.99,-332.516"/>
<polygon fill="midnightblue" stroke="midnightblue" points="2207.3,-370.293 2217.86,-369.444 2209.07,-363.522 2207.3,-370.293"/>
</g>
<!-- Node22 -->
<g id="node22" class="node"><title>Node22</title>
<g id="a_node22"><a xlink:href="../../de/d1f/Observable_8hh.html" target="_top" xlink:title="boca/Observable.hh">
<polygon fill="white" stroke="black" points="1228.5,-313.5 1228.5,-332.5 1332.5,-332.5 1332.5,-313.5 1228.5,-313.5"/>
<text text-anchor="middle" x="1280.5" y="-320.5" font-family="Helvetica,sans-Serif" font-size="10.00">boca/Observable.hh</text>
</a>
</g>
</g>
<!-- Node1&#45;&gt;Node22 -->
<g id="edge25" class="edge"><title>Node1&#45;&gt;Node22</title>
<path fill="none" stroke="midnightblue" d="M2197.06,-375.025C2027.15,-365.566 1500.69,-336.258 1332.63,-326.902"/>
<polygon fill="midnightblue" stroke="midnightblue" points="2197.07,-378.531 2207.25,-375.592 2197.46,-371.542 2197.07,-378.531"/>
</g>
<!-- Node36 -->
<g id="node36" class="node"><title>Node36</title>
<g id="a_node36"><a xlink:href="../../de/d83/File_8hh.html" target="_top" xlink:title="boca/File.hh">
<polygon fill="white" stroke="black" points="2215.5,-313.5 2215.5,-332.5 2285.5,-332.5 2285.5,-313.5 2215.5,-313.5"/>
<text text-anchor="middle" x="2250.5" y="-320.5" font-family="Helvetica,sans-Serif" font-size="10.00">boca/File.hh</text>
</a>
</g>
</g>
<!-- Node1&#45;&gt;Node36 -->
<g id="edge43" class="edge"><title>Node1&#45;&gt;Node36</title>
<path fill="none" stroke="midnightblue" d="M2250.5,-358.805C2250.5,-349.91 2250.5,-339.78 2250.5,-332.751"/>
<polygon fill="midnightblue" stroke="midnightblue" points="2247,-359.083 2250.5,-369.083 2254,-359.083 2247,-359.083"/>
</g>
<!-- Node38 -->
<g id="node38" class="node"><title>Node38</title>
<g id="a_node38"><a xlink:href="../../d1/dcf/AnalysisBase_8hh.html" target="_top" xlink:title="boca/analysis/AnalysisBase.hh">
<polygon fill="white" stroke="black" points="2483,-257.5 2483,-276.5 2636,-276.5 2636,-257.5 2483,-257.5"/>
<text text-anchor="middle" x="2559.5" y="-264.5" font-family="Helvetica,sans-Serif" font-size="10.00">boca/analysis/AnalysisBase.hh</text>
</a>
</g>
</g>
<!-- Node1&#45;&gt;Node38 -->
<g id="edge48" class="edge"><title>Node1&#45;&gt;Node38</title>
<path fill="none" stroke="midnightblue" d="M2266.91,-362.178C2283.41,-347.185 2310.24,-325.2 2337.5,-313 2366.53,-300.007 2447.5,-285.468 2503.19,-276.524"/>
<polygon fill="midnightblue" stroke="midnightblue" points="2264.21,-359.913 2259.28,-369.291 2268.98,-365.034 2264.21,-359.913"/>
</g>
<!-- Node42 -->
<g id="node42" class="node"><title>Node42</title>
<g id="a_node42"><a xlink:href="../../df/dd3/Plot_8hh.html" target="_top" xlink:title="boca/plotting/Plot.hh">
<polygon fill="white" stroke="black" points="2654.5,-257.5 2654.5,-276.5 2760.5,-276.5 2760.5,-257.5 2654.5,-257.5"/>
<text text-anchor="middle" x="2707.5" y="-264.5" font-family="Helvetica,sans-Serif" font-size="10.00">boca/plotting/Plot.hh</text>
</a>
</g>
</g>
<!-- Node1&#45;&gt;Node42 -->
<g id="edge55" class="edge"><title>Node1&#45;&gt;Node42</title>
<path fill="none" stroke="midnightblue" d="M2276.44,-364.545C2293.33,-355.713 2315.81,-343.833 2335.5,-333 2351.2,-324.363 2353.52,-318.719 2370.5,-313 2486.9,-273.794 2522.81,-293.685 2644.5,-277 2647.67,-276.565 2650.94,-276.113 2654.23,-275.653"/>
<polygon fill="midnightblue" stroke="midnightblue" points="2274.45,-361.636 2267.2,-369.362 2277.68,-367.843 2274.45,-361.636"/>
</g>
<!-- Node48 -->
<g id="node48" class="node"><title>Node48</title>
<g id="a_node48"><a xlink:href="../../d8/d08/Histograms_8hh.html" target="_top" xlink:title="boca/plotting/Histograms.hh">
<polygon fill="white" stroke="black" points="1836,-313.5 1836,-332.5 1975,-332.5 1975,-313.5 1836,-313.5"/>
<text text-anchor="middle" x="1905.5" y="-320.5" font-family="Helvetica,sans-Serif" font-size="10.00">boca/plotting/Histograms.hh</text>
</a>
</g>
</g>
<!-- Node1&#45;&gt;Node48 -->
<g id="edge64" class="edge"><title>Node1&#45;&gt;Node48</title>
<path fill="none" stroke="midnightblue" d="M2197.2,-369.658C2132.79,-359.576 2024.98,-342.701 1960.02,-332.534"/>
<polygon fill="midnightblue" stroke="midnightblue" points="2196.73,-373.127 2207.15,-371.216 2197.82,-366.211 2196.73,-373.127"/>
</g>
<!-- Node50 -->
<g id="node50" class="node"><title>Node50</title>
<g id="a_node50"><a xlink:href="../../d2/d81/Names_8cpp.html" target="_top" xlink:title="source/Names.cpp">
<polygon fill="white" stroke="black" points="2380,-313.5 2380,-332.5 2479,-332.5 2479,-313.5 2380,-313.5"/>
<text text-anchor="middle" x="2429.5" y="-320.5" font-family="Helvetica,sans-Serif" font-size="10.00">source/Names.cpp</text>
</a>
</g>
</g>
<!-- Node1&#45;&gt;Node50 -->
<g id="edge67" class="edge"><title>Node1&#45;&gt;Node50</title>
<path fill="none" stroke="midnightblue" d="M2288.83,-366.436C2322.58,-356.255 2370.95,-341.664 2401.27,-332.516"/>
<polygon fill="midnightblue" stroke="midnightblue" points="2287.43,-363.204 2278.86,-369.444 2289.45,-369.906 2287.43,-363.204"/>
</g>
<!-- Node3 -->
<g id="node3" class="node"><title>Node3</title>
<g id="a_node3"><a xlink:href="../../d3/dc9/plotting_2Result_8hh.html" target="_top" xlink:title="boca/plotting/Result.hh">
<polygon fill="white" stroke="black" points="1360,-257.5 1360,-276.5 1477,-276.5 1477,-257.5 1360,-257.5"/>
<text text-anchor="middle" x="1418.5" y="-264.5" font-family="Helvetica,sans-Serif" font-size="10.00">boca/plotting/Result.hh</text>
</a>
</g>
</g>
<!-- Node2&#45;&gt;Node3 -->
<g id="edge2" class="edge"><title>Node2&#45;&gt;Node3</title>
<path fill="none" stroke="midnightblue" d="M1982.99,-313.022C1791.74,-291.595 1578.22,-277.468 1477.19,-271.374"/>
<polygon fill="midnightblue" stroke="midnightblue" points="1982.62,-316.501 1992.95,-314.146 1983.4,-309.546 1982.62,-316.501"/>
</g>
<!-- Node12 -->
<g id="node12" class="node"><title>Node12</title>
<g id="a_node12"><a xlink:href="../../d5/d94/PlottingBase_8cpp.html" target="_top" xlink:title="source/plotting/Plotting\lBase.cpp">
<polygon fill="white" stroke="black" points="1850.5,-123.5 1850.5,-153.5 1966.5,-153.5 1966.5,-123.5 1850.5,-123.5"/>
<text text-anchor="start" x="1858.5" y="-141.5" font-family="Helvetica,sans-Serif" font-size="10.00">source/plotting/Plotting</text>
<text text-anchor="middle" x="1908.5" y="-130.5" font-family="Helvetica,sans-Serif" font-size="10.00">Base.cpp</text>
</a>
</g>
</g>
<!-- Node2&#45;&gt;Node12 -->
<g id="edge24" class="edge"><title>Node2&#45;&gt;Node12</title>
<path fill="none" stroke="midnightblue" d="M2031.65,-304.753C2004.91,-268.869 1943.73,-186.769 1919.08,-153.695"/>
<polygon fill="midnightblue" stroke="midnightblue" points="2029.16,-307.271 2037.94,-313.198 2034.77,-303.088 2029.16,-307.271"/>
</g>
<!-- Node16 -->
<g id="node16" class="node"><title>Node16</title>
<g id="a_node16"><a xlink:href="../../de/d21/BranchWriter_8hh.html" target="_top" xlink:title="boca/analysis/BranchWriter.hh">
<polygon fill="white" stroke="black" points="2175.5,-257.5 2175.5,-276.5 2325.5,-276.5 2325.5,-257.5 2175.5,-257.5"/>
<text text-anchor="middle" x="2250.5" y="-264.5" font-family="Helvetica,sans-Serif" font-size="10.00">boca/analysis/BranchWriter.hh</text>
</a>
</g>
</g>
<!-- Node2&#45;&gt;Node16 -->
<g id="edge16" class="edge"><title>Node2&#45;&gt;Node16</title>
<path fill="none" stroke="midnightblue" d="M2087.12,-310.829C2126.01,-300.633 2182.66,-285.782 2218.01,-276.516"/>
<polygon fill="midnightblue" stroke="midnightblue" points="2085.93,-307.522 2077.14,-313.444 2087.7,-314.293 2085.93,-307.522"/>
</g>
<!-- Node18 -->
<g id="node18" class="node"><title>Node18</title>
<g id="a_node18"><a xlink:href="../../df/d88/Plots_8hh.html" target="_top" xlink:title="boca/plotting/Plots.hh">
<polygon fill="white" stroke="black" points="2185,-196 2185,-215 2296,-215 2296,-196 2185,-196"/>
<text text-anchor="middle" x="2240.5" y="-203" font-family="Helvetica,sans-Serif" font-size="10.00">boca/plotting/Plots.hh</text>
</a>
</g>
</g>
<!-- Node2&#45;&gt;Node18 -->
<g id="edge19" class="edge"><title>Node2&#45;&gt;Node18</title>
<path fill="none" stroke="midnightblue" d="M2034.3,-304.202C2027.66,-290.006 2022,-270.357 2032.5,-257 2035.17,-253.604 2143.76,-228.484 2202.95,-215.001"/>
<polygon fill="midnightblue" stroke="midnightblue" points="2031.37,-306.152 2039.09,-313.406 2037.58,-302.92 2031.37,-306.152"/>
</g>
<!-- Node20 -->
<g id="node20" class="node"><title>Node20</title>
<g id="a_node20"><a xlink:href="../../d0/dc4/Info_8cpp.html" target="_top" xlink:title="source/branch/Info.cpp">
<polygon fill="white" stroke="black" points="2041.5,-257.5 2041.5,-276.5 2157.5,-276.5 2157.5,-257.5 2041.5,-257.5"/>
<text text-anchor="middle" x="2099.5" y="-264.5" font-family="Helvetica,sans-Serif" font-size="10.00">source/branch/Info.cpp</text>
</a>
</g>
</g>
<!-- Node2&#45;&gt;Node20 -->
<g id="edge22" class="edge"><title>Node2&#45;&gt;Node20</title>
<path fill="none" stroke="midnightblue" d="M2060.79,-306.002C2070.54,-296.433 2082.55,-284.639 2090.59,-276.751"/>
<polygon fill="midnightblue" stroke="midnightblue" points="2058.27,-303.58 2053.58,-313.083 2063.17,-308.575 2058.27,-303.58"/>
</g>
<!-- Node21 -->
<g id="node21" class="node"><title>Node21</title>
<g id="a_node21"><a xlink:href="../../dc/d26/Trainer_8cpp.html" target="_top" xlink:title="source/multivariant\l/Trainer.cpp">
<polygon fill="white" stroke="black" points="1502,-190.5 1502,-220.5 1601,-220.5 1601,-190.5 1502,-190.5"/>
<text text-anchor="start" x="1510" y="-208.5" font-family="Helvetica,sans-Serif" font-size="10.00">source/multivariant</text>
<text text-anchor="middle" x="1551.5" y="-197.5" font-family="Helvetica,sans-Serif" font-size="10.00">/Trainer.cpp</text>
</a>
</g>
</g>
<!-- Node2&#45;&gt;Node21 -->
<g id="edge23" class="edge"><title>Node2&#45;&gt;Node21</title>
<path fill="none" stroke="midnightblue" d="M1982.66,-312.988C1835.98,-295.749 1790.04,-326.497 1655.5,-277 1620.7,-264.197 1586.26,-237.309 1567.04,-220.688"/>
<polygon fill="midnightblue" stroke="midnightblue" points="1982.58,-316.505 1992.93,-314.254 1983.44,-309.558 1982.58,-316.505"/>
</g>
<!-- Node4 -->
<g id="node4" class="node"><title>Node4</title>
<g id="a_node4"><a xlink:href="../../d8/d4d/PlottingBase_8hh.html" target="_top" xlink:title="boca/plotting/PlottingBase.hh">
<polygon fill="white" stroke="black" points="916.5,-196 916.5,-215 1060.5,-215 1060.5,-196 916.5,-196"/>
<text text-anchor="middle" x="988.5" y="-203" font-family="Helvetica,sans-Serif" font-size="10.00">boca/plotting/PlottingBase.hh</text>
</a>
</g>
</g>
<!-- Node3&#45;&gt;Node4 -->
<g id="edge3" class="edge"><title>Node3&#45;&gt;Node4</title>
<path fill="none" stroke="midnightblue" d="M1349.87,-256.928C1223.98,-240.695 1190.79,-239.614 1069.5,-221 1057.92,-219.223 1045.45,-217.097 1033.84,-215.027"/>
<polygon fill="midnightblue" stroke="midnightblue" points="1349.53,-260.413 1359.9,-258.228 1350.43,-253.472 1349.53,-260.413"/>
</g>
<!-- Node13 -->
<g id="node13" class="node"><title>Node13</title>
<g id="a_node13"><a xlink:href="../../d5/d4a/Results_8hh.html" target="_top" xlink:title="boca/plotting/Results.hh">
<polygon fill="white" stroke="black" points="1212.5,-196 1212.5,-215 1334.5,-215 1334.5,-196 1212.5,-196"/>
<text text-anchor="middle" x="1273.5" y="-203" font-family="Helvetica,sans-Serif" font-size="10.00">boca/plotting/Results.hh</text>
</a>
</g>
</g>
<!-- Node3&#45;&gt;Node13 -->
<g id="edge12" class="edge"><title>Node3&#45;&gt;Node13</title>
<path fill="none" stroke="midnightblue" d="M1388.36,-253.631C1360.19,-242.072 1318.88,-225.12 1294.24,-215.009"/>
<polygon fill="midnightblue" stroke="midnightblue" points="1387.14,-256.917 1397.73,-257.475 1389.8,-250.441 1387.14,-256.917"/>
</g>
<!-- Node15 -->
<g id="node15" class="node"><title>Node15</title>
<g id="a_node15"><a xlink:href="../../dd/d51/plotting_2Result_8cpp.html" target="_top" xlink:title="source/plotting/Result.cpp">
<polygon fill="white" stroke="black" points="1353,-196 1353,-215 1484,-215 1484,-196 1353,-196"/>
<text text-anchor="middle" x="1418.5" y="-203" font-family="Helvetica,sans-Serif" font-size="10.00">source/plotting/Result.cpp</text>
</a>
</g>
</g>
<!-- Node3&#45;&gt;Node15 -->
<g id="edge15" class="edge"><title>Node3&#45;&gt;Node15</title>
<path fill="none" stroke="midnightblue" d="M1418.5,-247.317C1418.5,-236.496 1418.5,-223.398 1418.5,-215.009"/>
<polygon fill="midnightblue" stroke="midnightblue" points="1415,-247.475 1418.5,-257.475 1422,-247.475 1415,-247.475"/>
</g>
<!-- Node5 -->
<g id="node5" class="node"><title>Node5</title>
<g id="a_node5"><a xlink:href="../../da/d1e/Plotting_8hh.html" target="_top" xlink:title="boca/plotting/Plotting.hh">
<polygon fill="white" stroke="black" points="927.5,-129 927.5,-148 1049.5,-148 1049.5,-129 927.5,-129"/>
<text text-anchor="middle" x="988.5" y="-136" font-family="Helvetica,sans-Serif" font-size="10.00">boca/plotting/Plotting.hh</text>
</a>
</g>
</g>
<!-- Node4&#45;&gt;Node5 -->
<g id="edge4" class="edge"><title>Node4&#45;&gt;Node5</title>
<path fill="none" stroke="midnightblue" d="M988.5,-185.537C988.5,-173.17 988.5,-157.62 988.5,-148.127"/>
<polygon fill="midnightblue" stroke="midnightblue" points="985,-185.734 988.5,-195.734 992,-185.734 985,-185.734"/>
</g>
<!-- Node4&#45;&gt;Node12 -->
<g id="edge11" class="edge"><title>Node4&#45;&gt;Node12</title>
<path fill="none" stroke="midnightblue" d="M1040.93,-194.191C1050.41,-192.591 1060.23,-191.105 1069.5,-190 1361.47,-155.201 1713.61,-143.896 1850.31,-140.66"/>
<polygon fill="midnightblue" stroke="midnightblue" points="1040.07,-190.789 1030.82,-195.96 1041.27,-197.685 1040.07,-190.789"/>
</g>
<!-- Node6 -->
<g id="node6" class="node"><title>Node6</title>
<g id="a_node6"><a xlink:href="../../d4/d12/boca_2analysis_2Analysis_8hh.html" target="_top" xlink:title="boca/analysis/Analysis.hh">
<polygon fill="white" stroke="black" points="1977,-67.5 1977,-86.5 2108,-86.5 2108,-67.5 1977,-67.5"/>
<text text-anchor="middle" x="2042.5" y="-74.5" font-family="Helvetica,sans-Serif" font-size="10.00">boca/analysis/Analysis.hh</text>
</a>
</g>
</g>
<!-- Node5&#45;&gt;Node6 -->
<g id="edge5" class="edge"><title>Node5&#45;&gt;Node6</title>
<path fill="none" stroke="midnightblue" d="M1060.13,-132.215C1100.23,-129.329 1151.13,-125.788 1196.5,-123 1487.36,-105.127 1834.73,-87.9657 1976.93,-81.1195"/>
<polygon fill="midnightblue" stroke="midnightblue" points="1059.64,-128.741 1049.92,-132.952 1060.14,-135.723 1059.64,-128.741"/>
</g>
<!-- Node7 -->
<g id="node7" class="node"><title>Node7</title>
<g id="a_node7"><a xlink:href="../../df/d04/AnalysisStandardModel_8hh.html" target="_top" xlink:title="boca/standardmodel\l/AnalysisStandardModel.hh">
<polygon fill="white" stroke="red" points="1680.5,-0.5 1680.5,-30.5 1816.5,-30.5 1816.5,-0.5 1680.5,-0.5"/>
<text text-anchor="start" x="1688.5" y="-18.5" font-family="Helvetica,sans-Serif" font-size="10.00">boca/standardmodel</text>
<text text-anchor="middle" x="1748.5" y="-7.5" font-family="Helvetica,sans-Serif" font-size="10.00">/AnalysisStandardModel.hh</text>
</a>
</g>
</g>
<!-- Node6&#45;&gt;Node7 -->
<g id="edge6" class="edge"><title>Node6&#45;&gt;Node7</title>
<path fill="none" stroke="midnightblue" d="M1990.43,-65.4618C1942.03,-55.6669 1869.64,-41.0168 1816.66,-30.2942"/>
<polygon fill="midnightblue" stroke="midnightblue" points="1989.88,-68.9219 2000.38,-67.4751 1991.27,-62.061 1989.88,-68.9219"/>
</g>
<!-- Node8 -->
<g id="node8" class="node"><title>Node8</title>
<g id="a_node8"><a xlink:href="../../d9/dee/examples_2cut_2include_2Analysis_8hh.html" target="_top" xlink:title="examples/cut/include\l/Analysis.hh">
<polygon fill="white" stroke="red" points="1835,-0.5 1835,-30.5 1944,-30.5 1944,-0.5 1835,-0.5"/>
<text text-anchor="start" x="1843" y="-18.5" font-family="Helvetica,sans-Serif" font-size="10.00">examples/cut/include</text>
<text text-anchor="middle" x="1889.5" y="-7.5" font-family="Helvetica,sans-Serif" font-size="10.00">/Analysis.hh</text>
</a>
</g>
</g>
<!-- Node6&#45;&gt;Node8 -->
<g id="edge7" class="edge"><title>Node6&#45;&gt;Node8</title>
<path fill="none" stroke="midnightblue" d="M2011.25,-63.8475C1986.4,-54.1817 1951.59,-40.6471 1925.56,-30.523"/>
<polygon fill="midnightblue" stroke="midnightblue" points="2009.99,-67.1126 2020.58,-67.4751 2012.53,-60.5886 2009.99,-67.1126"/>
</g>
<!-- Node9 -->
<g id="node9" class="node"><title>Node9</title>
<g id="a_node9"><a xlink:href="../../df/d4c/HeavyHiggs_8hh.html" target="_top" xlink:title="examples/heavyhiggs\l/include/analysis/HeavyHiggs.hh">
<polygon fill="white" stroke="red" points="1962.5,-0.5 1962.5,-30.5 2122.5,-30.5 2122.5,-0.5 1962.5,-0.5"/>
<text text-anchor="start" x="1970.5" y="-18.5" font-family="Helvetica,sans-Serif" font-size="10.00">examples/heavyhiggs</text>
<text text-anchor="middle" x="2042.5" y="-7.5" font-family="Helvetica,sans-Serif" font-size="10.00">/include/analysis/HeavyHiggs.hh</text>
</a>
</g>
</g>
<!-- Node6&#45;&gt;Node9 -->
<g id="edge8" class="edge"><title>Node6&#45;&gt;Node9</title>
<path fill="none" stroke="midnightblue" d="M2042.5,-57.2349C2042.5,-48.5864 2042.5,-38.4969 2042.5,-30.523"/>
<polygon fill="midnightblue" stroke="midnightblue" points="2039,-57.4751 2042.5,-67.4751 2046,-57.4751 2039,-57.4751"/>
</g>
<!-- Node10 -->
<g id="node10" class="node"><title>Node10</title>
<g id="a_node10"><a xlink:href="../../dc/d70/AnalysisHiggsCpv_8hh.html" target="_top" xlink:title="examples/higgscpv/include\l/AnalysisHiggsCpv.hh">
<polygon fill="white" stroke="red" points="2140.5,-0.5 2140.5,-30.5 2274.5,-30.5 2274.5,-0.5 2140.5,-0.5"/>
<text text-anchor="start" x="2148.5" y="-18.5" font-family="Helvetica,sans-Serif" font-size="10.00">examples/higgscpv/include</text>
<text text-anchor="middle" x="2207.5" y="-7.5" font-family="Helvetica,sans-Serif" font-size="10.00">/AnalysisHiggsCpv.hh</text>
</a>
</g>
</g>
<!-- Node6&#45;&gt;Node10 -->
<g id="edge9" class="edge"><title>Node6&#45;&gt;Node10</title>
<path fill="none" stroke="midnightblue" d="M2075.85,-63.9755C2102.67,-54.3016 2140.41,-40.6919 2168.61,-30.523"/>
<polygon fill="midnightblue" stroke="midnightblue" points="2074.36,-60.7903 2066.14,-67.4751 2076.73,-67.3753 2074.36,-60.7903"/>
</g>
<!-- Node11 -->
<g id="node11" class="node"><title>Node11</title>
<g id="a_node11"><a xlink:href="../../d8/d57/analysis_2TopPartner_8hh.html" target="_top" xlink:title="examples/toppartner\l/include/analysis/TopPartner.hh">
<polygon fill="white" stroke="red" points="2292.5,-0.5 2292.5,-30.5 2446.5,-30.5 2446.5,-0.5 2292.5,-0.5"/>
<text text-anchor="start" x="2300.5" y="-18.5" font-family="Helvetica,sans-Serif" font-size="10.00">examples/toppartner</text>
<text text-anchor="middle" x="2369.5" y="-7.5" font-family="Helvetica,sans-Serif" font-size="10.00">/include/analysis/TopPartner.hh</text>
</a>
</g>
</g>
<!-- Node6&#45;&gt;Node11 -->
<g id="edge10" class="edge"><title>Node6&#45;&gt;Node11</title>
<path fill="none" stroke="midnightblue" d="M2099.34,-65.6582C2152.79,-55.9325 2233.22,-41.2967 2292.43,-30.523"/>
<polygon fill="midnightblue" stroke="midnightblue" points="2098.56,-62.2414 2089.35,-67.4751 2099.82,-69.1283 2098.56,-62.2414"/>
</g>
<!-- Node13&#45;&gt;Node12 -->
<g id="edge13" class="edge"><title>Node13&#45;&gt;Node12</title>
<path fill="none" stroke="midnightblue" d="M1320.63,-193.966C1328.25,-192.486 1336.07,-191.097 1343.5,-190 1527.63,-162.793 1747.84,-148.233 1850.49,-142.476"/>
<polygon fill="midnightblue" stroke="midnightblue" points="1319.89,-190.545 1310.78,-195.949 1321.27,-197.407 1319.89,-190.545"/>
</g>
<!-- Node14 -->
<g id="node14" class="node"><title>Node14</title>
<g id="a_node14"><a xlink:href="../../d1/d01/Results_8cpp.html" target="_top" xlink:title="source/plotting/Results.cpp">
<polygon fill="white" stroke="black" points="1205.5,-129 1205.5,-148 1341.5,-148 1341.5,-129 1205.5,-129"/>
<text text-anchor="middle" x="1273.5" y="-136" font-family="Helvetica,sans-Serif" font-size="10.00">source/plotting/Results.cpp</text>
</a>
</g>
</g>
<!-- Node13&#45;&gt;Node14 -->
<g id="edge14" class="edge"><title>Node13&#45;&gt;Node14</title>
<path fill="none" stroke="midnightblue" d="M1273.5,-185.537C1273.5,-173.17 1273.5,-157.62 1273.5,-148.127"/>
<polygon fill="midnightblue" stroke="midnightblue" points="1270,-185.734 1273.5,-195.734 1277,-185.734 1270,-185.734"/>
</g>
<!-- Node17 -->
<g id="node17" class="node"><title>Node17</title>
<g id="a_node17"><a xlink:href="../../d2/d11/Third_8hh.html" target="_top" xlink:title="boca/analysis/Third.hh">
<polygon fill="white" stroke="black" points="1985,-129 1985,-148 2100,-148 2100,-129 1985,-129"/>
<text text-anchor="middle" x="2042.5" y="-136" font-family="Helvetica,sans-Serif" font-size="10.00">boca/analysis/Third.hh</text>
</a>
</g>
</g>
<!-- Node16&#45;&gt;Node17 -->
<g id="edge17" class="edge"><title>Node16&#45;&gt;Node17</title>
<path fill="none" stroke="midnightblue" d="M2179.66,-255.898C2119.67,-246.621 2041.95,-232.595 2032.5,-221 2015.21,-199.78 2029.48,-164.546 2037.7,-148.256"/>
<polygon fill="midnightblue" stroke="midnightblue" points="2179.46,-259.408 2189.87,-257.459 2180.51,-252.489 2179.46,-259.408"/>
</g>
<!-- Node17&#45;&gt;Node6 -->
<g id="edge18" class="edge"><title>Node17&#45;&gt;Node6</title>
<path fill="none" stroke="midnightblue" d="M2042.5,-118.817C2042.5,-107.996 2042.5,-94.898 2042.5,-86.5091"/>
<polygon fill="midnightblue" stroke="midnightblue" points="2039,-118.975 2042.5,-128.975 2046,-118.975 2039,-118.975"/>
</g>
<!-- Node18&#45;&gt;Node12 -->
<g id="edge21" class="edge"><title>Node18&#45;&gt;Node12</title>
<path fill="none" stroke="midnightblue" d="M2193.42,-193.756C2187.4,-192.453 2181.31,-191.17 2175.5,-190 2086.96,-172.164 2064.09,-171.555 1975.5,-154 1972.58,-153.422 1969.59,-152.818 1966.58,-152.2"/>
<polygon fill="midnightblue" stroke="midnightblue" points="2192.92,-197.229 2203.43,-195.953 2194.42,-190.392 2192.92,-197.229"/>
</g>
<!-- Node19 -->
<g id="node19" class="node"><title>Node19</title>
<g id="a_node19"><a xlink:href="../../d8/d63/Plots_8cpp.html" target="_top" xlink:title="source/plotting/Plots.cpp">
<polygon fill="white" stroke="black" points="2169,-129 2169,-148 2294,-148 2294,-129 2169,-129"/>
<text text-anchor="middle" x="2231.5" y="-136" font-family="Helvetica,sans-Serif" font-size="10.00">source/plotting/Plots.cpp</text>
</a>
</g>
</g>
<!-- Node18&#45;&gt;Node19 -->
<g id="edge20" class="edge"><title>Node18&#45;&gt;Node19</title>
<path fill="none" stroke="midnightblue" d="M2237.87,-185.537C2236.16,-173.17 2234.01,-157.62 2232.69,-148.127"/>
<polygon fill="midnightblue" stroke="midnightblue" points="2234.45,-186.308 2239.29,-195.734 2241.38,-185.348 2234.45,-186.308"/>
</g>
<!-- Node23 -->
<g id="node23" class="node"><title>Node23</title>
<g id="a_node23"><a xlink:href="../../dd/d17/boca_2Observables_8hh.html" target="_top" xlink:title="boca/Observables.hh">
<polygon fill="white" stroke="black" points="666,-257.5 666,-276.5 775,-276.5 775,-257.5 666,-257.5"/>
<text text-anchor="middle" x="720.5" y="-264.5" font-family="Helvetica,sans-Serif" font-size="10.00">boca/Observables.hh</text>
</a>
</g>
</g>
<!-- Node22&#45;&gt;Node23 -->
<g id="edge26" class="edge"><title>Node22&#45;&gt;Node23</title>
<path fill="none" stroke="midnightblue" d="M1218.34,-316.006C1108.06,-305.372 879.94,-283.375 775.221,-273.277"/>
<polygon fill="midnightblue" stroke="midnightblue" points="1218.03,-319.492 1228.32,-316.968 1218.7,-312.525 1218.03,-319.492"/>
</g>
<!-- Node31 -->
<g id="node31" class="node"><title>Node31</title>
<g id="a_node31"><a xlink:href="../../dd/d01/tagger_2Base_8hh.html" target="_top" xlink:title="boca/tagger/Base.hh">
<polygon fill="white" stroke="black" points="1665,-257.5 1665,-276.5 1772,-276.5 1772,-257.5 1665,-257.5"/>
<text text-anchor="middle" x="1718.5" y="-264.5" font-family="Helvetica,sans-Serif" font-size="10.00">boca/tagger/Base.hh</text>
</a>
</g>
</g>
<!-- Node22&#45;&gt;Node31 -->
<g id="edge36" class="edge"><title>Node22&#45;&gt;Node31</title>
<path fill="none" stroke="midnightblue" d="M1343.07,-314.286C1429.32,-303.652 1583.3,-284.669 1664.67,-274.636"/>
<polygon fill="midnightblue" stroke="midnightblue" points="1342.39,-310.843 1332.9,-315.54 1343.25,-317.79 1342.39,-310.843"/>
</g>
<!-- Node35 -->
<g id="node35" class="node"><title>Node35</title>
<g id="a_node35"><a xlink:href="../../d9/dba/Observable_8cpp.html" target="_top" xlink:title="source/Observable.cpp">
<polygon fill="white" stroke="black" points="531,-257.5 531,-276.5 648,-276.5 648,-257.5 531,-257.5"/>
<text text-anchor="middle" x="589.5" y="-264.5" font-family="Helvetica,sans-Serif" font-size="10.00">source/Observable.cpp</text>
</a>
</g>
</g>
<!-- Node22&#45;&gt;Node35 -->
<g id="edge42" class="edge"><title>Node22&#45;&gt;Node35</title>
<path fill="none" stroke="midnightblue" d="M1218.08,-318.773C1105.62,-312.676 861.589,-298.149 656.5,-277 653.815,-276.723 651.071,-276.423 648.302,-276.107"/>
<polygon fill="midnightblue" stroke="midnightblue" points="1218.05,-322.277 1228.22,-319.32 1218.42,-315.287 1218.05,-322.277"/>
</g>
<!-- Node23&#45;&gt;Node5 -->
<g id="edge27" class="edge"><title>Node23&#45;&gt;Node5</title>
<path fill="none" stroke="midnightblue" d="M773.277,-255.085C802.401,-247.818 838.614,-236.688 868.5,-221 888.105,-210.709 889.409,-202.767 907.5,-190 929.84,-174.234 957.032,-157.813 973.54,-148.13"/>
<polygon fill="midnightblue" stroke="midnightblue" points="772.192,-251.746 763.293,-257.495 773.835,-258.55 772.192,-251.746"/>
</g>
<!-- Node24 -->
<g id="node24" class="node"><title>Node24</title>
<g id="a_node24"><a xlink:href="../../dc/d11/branch_2Result_8hh.html" target="_top" xlink:title="boca/branch/Result.hh">
<polygon fill="white" stroke="red" points="1079,-196 1079,-215 1194,-215 1194,-196 1079,-196"/>
<text text-anchor="middle" x="1136.5" y="-203" font-family="Helvetica,sans-Serif" font-size="10.00">boca/branch/Result.hh</text>
</a>
</g>
</g>
<!-- Node23&#45;&gt;Node24 -->
<g id="edge28" class="edge"><title>Node23&#45;&gt;Node24</title>
<path fill="none" stroke="midnightblue" d="M785.149,-259.327C855.393,-251.689 970.803,-238.011 1069.5,-221 1079.35,-219.302 1089.95,-217.157 1099.75,-215.041"/>
<polygon fill="midnightblue" stroke="midnightblue" points="784.687,-255.856 775.121,-260.409 785.439,-262.816 784.687,-255.856"/>
</g>
<!-- Node25 -->
<g id="node25" class="node"><title>Node25</title>
<g id="a_node25"><a xlink:href="../../d5/dba/GlobalBase_8hh.html" target="_top" xlink:title="boca/branch/GlobalBase.hh">
<polygon fill="white" stroke="red" points="401,-196 401,-215 538,-215 538,-196 401,-196"/>
<text text-anchor="middle" x="469.5" y="-203" font-family="Helvetica,sans-Serif" font-size="10.00">boca/branch/GlobalBase.hh</text>
</a>
</g>
</g>
<!-- Node23&#45;&gt;Node25 -->
<g id="edge30" class="edge"><title>Node23&#45;&gt;Node25</title>
<path fill="none" stroke="midnightblue" d="M674.577,-255.114C625.859,-243.565 549.911,-225.561 505.395,-215.009"/>
<polygon fill="midnightblue" stroke="midnightblue" points="674,-258.574 684.538,-257.475 675.615,-251.763 674,-258.574"/>
</g>
<!-- Node26 -->
<g id="node26" class="node"><title>Node26</title>
<g id="a_node26"><a xlink:href="../../da/d5b/EventShapesBase_8hh.html" target="_top" xlink:title="boca/branch/EventShapesBase.hh">
<polygon fill="white" stroke="red" points="556,-196 556,-215 723,-215 723,-196 556,-196"/>
<text text-anchor="middle" x="639.5" y="-203" font-family="Helvetica,sans-Serif" font-size="10.00">boca/branch/EventShapesBase.hh</text>
</a>
</g>
</g>
<!-- Node23&#45;&gt;Node26 -->
<g id="edge31" class="edge"><title>Node23&#45;&gt;Node26</title>
<path fill="none" stroke="midnightblue" d="M700.48,-251.294C684.942,-239.88 663.947,-224.458 651.084,-215.009"/>
<polygon fill="midnightblue" stroke="midnightblue" points="698.763,-254.376 708.895,-257.475 702.907,-248.734 698.763,-254.376"/>
</g>
<!-- Node27 -->
<g id="node27" class="node"><title>Node27</title>
<g id="a_node27"><a xlink:href="../../dc/d3c/BottomBase_8hh.html" target="_top" xlink:title="boca/standardmodel\l/branch/BottomBase.hh">
<polygon fill="white" stroke="red" points="741,-190.5 741,-220.5 860,-220.5 860,-190.5 741,-190.5"/>
<text text-anchor="start" x="749" y="-208.5" font-family="Helvetica,sans-Serif" font-size="10.00">boca/standardmodel</text>
<text text-anchor="middle" x="800.5" y="-197.5" font-family="Helvetica,sans-Serif" font-size="10.00">/branch/BottomBase.hh</text>
</a>
</g>
</g>
<!-- Node23&#45;&gt;Node27 -->
<g id="edge32" class="edge"><title>Node23&#45;&gt;Node27</title>
<path fill="none" stroke="midnightblue" d="M740.039,-251.468C752.705,-242.047 769.117,-229.841 781.646,-220.523"/>
<polygon fill="midnightblue" stroke="midnightblue" points="737.897,-248.699 731.962,-257.475 742.075,-254.316 737.897,-248.699"/>
</g>
<!-- Node28 -->
<g id="node28" class="node"><title>Node28</title>
<g id="a_node28"><a xlink:href="../../d9/d1e/LeptonVeto_8hh.html" target="_top" xlink:title="boca/standardmodel\l/branch/LeptonVeto.hh">
<polygon fill="white" stroke="red" points="0,-190.5 0,-220.5 115,-220.5 115,-190.5 0,-190.5"/>
<text text-anchor="start" x="8" y="-208.5" font-family="Helvetica,sans-Serif" font-size="10.00">boca/standardmodel</text>
<text text-anchor="middle" x="57.5" y="-197.5" font-family="Helvetica,sans-Serif" font-size="10.00">/branch/LeptonVeto.hh</text>
</a>
</g>
</g>
<!-- Node23&#45;&gt;Node28 -->
<g id="edge33" class="edge"><title>Node23&#45;&gt;Node28</title>
<path fill="none" stroke="midnightblue" d="M655.757,-257.008C418.622,-233.047 355.33,-254.108 123.5,-221 120.713,-220.602 117.868,-220.151 115.001,-219.661"/>
<polygon fill="midnightblue" stroke="midnightblue" points="655.414,-260.492 665.719,-258.031 656.129,-253.528 655.414,-260.492"/>
</g>
<!-- Node29 -->
<g id="node29" class="node"><title>Node29</title>
<g id="a_node29"><a xlink:href="../../d8/d6f/Branch_8hh.html" target="_top" xlink:title="examples/cut/include\l/Branch.hh">
<polygon fill="white" stroke="red" points="133,-190.5 133,-220.5 242,-220.5 242,-190.5 133,-190.5"/>
<text text-anchor="start" x="141" y="-208.5" font-family="Helvetica,sans-Serif" font-size="10.00">examples/cut/include</text>
<text text-anchor="middle" x="187.5" y="-197.5" font-family="Helvetica,sans-Serif" font-size="10.00">/Branch.hh</text>
</a>
</g>
</g>
<!-- Node23&#45;&gt;Node29 -->
<g id="edge34" class="edge"><title>Node23&#45;&gt;Node29</title>
<path fill="none" stroke="midnightblue" d="M655.618,-256.965C475.228,-236.854 426.798,-248.522 251.5,-221 248.461,-220.523 245.351,-219.985 242.22,-219.405"/>
<polygon fill="midnightblue" stroke="midnightblue" points="655.38,-260.46 665.711,-258.108 656.168,-253.505 655.38,-260.46"/>
</g>
<!-- Node30 -->
<g id="node30" class="node"><title>Node30</title>
<g id="a_node30"><a xlink:href="../../d0/db2/source_2Observables_8cpp.html" target="_top" xlink:title="source/Observables.cpp">
<polygon fill="white" stroke="black" points="260.5,-196 260.5,-215 382.5,-215 382.5,-196 260.5,-196"/>
<text text-anchor="middle" x="321.5" y="-203" font-family="Helvetica,sans-Serif" font-size="10.00">source/Observables.cpp</text>
</a>
</g>
</g>
<!-- Node23&#45;&gt;Node30 -->
<g id="edge35" class="edge"><title>Node23&#45;&gt;Node30</title>
<path fill="none" stroke="midnightblue" d="M655.491,-256.875C537.049,-240.728 505.45,-240.518 391.5,-221 381.347,-219.261 370.419,-217.125 360.286,-215.033"/>
<polygon fill="midnightblue" stroke="midnightblue" points="655.306,-260.382 665.69,-258.275 656.259,-253.447 655.306,-260.382"/>
</g>
<!-- Node24&#45;&gt;Node12 -->
<g id="edge29" class="edge"><title>Node24&#45;&gt;Node12</title>
<path fill="none" stroke="midnightblue" d="M1181.32,-193.884C1188.7,-192.4 1196.29,-191.033 1203.5,-190 1441.88,-155.842 1729.09,-144.378 1850.17,-140.887"/>
<polygon fill="midnightblue" stroke="midnightblue" points="1180.52,-190.476 1171.45,-195.957 1181.96,-197.327 1180.52,-190.476"/>
</g>
<!-- Node31&#45;&gt;Node12 -->
<g id="edge40" class="edge"><title>Node31&#45;&gt;Node12</title>
<path fill="none" stroke="midnightblue" d="M1729.08,-248.361C1740.06,-231.369 1758.66,-205.959 1780.5,-190 1802.97,-173.578 1831.5,-161.644 1855.91,-153.515"/>
<polygon fill="midnightblue" stroke="midnightblue" points="1725.85,-246.92 1723.53,-257.257 1731.79,-250.625 1725.85,-246.92"/>
</g>
<!-- Node31&#45;&gt;Node21 -->
<g id="edge39" class="edge"><title>Node31&#45;&gt;Node21</title>
<path fill="none" stroke="midnightblue" d="M1685.11,-254.103C1657.94,-244.422 1619.53,-230.737 1590.86,-220.523"/>
<polygon fill="midnightblue" stroke="midnightblue" points="1683.98,-257.416 1694.57,-257.475 1686.33,-250.822 1683.98,-257.416"/>
</g>
<!-- Node32 -->
<g id="node32" class="node"><title>Node32</title>
<g id="a_node32"><a xlink:href="../../d4/dee/boca_2tagger_2Tagger_8hh.html" target="_top" xlink:title="boca/tagger/Tagger.hh">
<polygon fill="white" stroke="red" points="1619.5,-196 1619.5,-215 1733.5,-215 1733.5,-196 1619.5,-196"/>
<text text-anchor="middle" x="1676.5" y="-203" font-family="Helvetica,sans-Serif" font-size="10.00">boca/tagger/Tagger.hh</text>
</a>
</g>
</g>
<!-- Node31&#45;&gt;Node32 -->
<g id="edge37" class="edge"><title>Node31&#45;&gt;Node32</title>
<path fill="none" stroke="midnightblue" d="M1706.5,-249.005C1698.66,-237.888 1688.74,-223.84 1682.51,-215.009"/>
<polygon fill="midnightblue" stroke="midnightblue" points="1703.86,-251.324 1712.48,-257.475 1709.57,-247.287 1703.86,-251.324"/>
</g>
<!-- Node33 -->
<g id="node33" class="node"><title>Node33</title>
<g id="a_node33"><a xlink:href="../../d1/de1/AnalysisBase_8cpp.html" target="_top" xlink:title="source/analysis/Analysis\lBase.cpp">
<polygon fill="white" stroke="black" points="2042,-190.5 2042,-220.5 2167,-220.5 2167,-190.5 2042,-190.5"/>
<text text-anchor="start" x="2050" y="-208.5" font-family="Helvetica,sans-Serif" font-size="10.00">source/analysis/Analysis</text>
<text text-anchor="middle" x="2104.5" y="-197.5" font-family="Helvetica,sans-Serif" font-size="10.00">Base.cpp</text>
</a>
</g>
</g>
<!-- Node31&#45;&gt;Node33 -->
<g id="edge38" class="edge"><title>Node31&#45;&gt;Node33</title>
<path fill="none" stroke="midnightblue" d="M1782.45,-256.143C1854.32,-245.063 1970.28,-227.189 2041.69,-216.182"/>
<polygon fill="midnightblue" stroke="midnightblue" points="1781.52,-252.744 1772.17,-257.727 1782.59,-259.662 1781.52,-252.744"/>
</g>
<!-- Node34 -->
<g id="node34" class="node"><title>Node34</title>
<g id="a_node34"><a xlink:href="../../db/dde/tagger_2Base_8cpp.html" target="_top" xlink:title="source/tagger/Base.cpp">
<polygon fill="white" stroke="black" points="1789.5,-196 1789.5,-215 1909.5,-215 1909.5,-196 1789.5,-196"/>
<text text-anchor="middle" x="1849.5" y="-203" font-family="Helvetica,sans-Serif" font-size="10.00">source/tagger/Base.cpp</text>
</a>
</g>
</g>
<!-- Node31&#45;&gt;Node34 -->
<g id="edge41" class="edge"><title>Node31&#45;&gt;Node34</title>
<path fill="none" stroke="midnightblue" d="M1746.4,-253.327C1771.83,-241.776 1808.7,-225.032 1830.77,-215.009"/>
<polygon fill="midnightblue" stroke="midnightblue" points="1744.93,-250.153 1737.27,-257.475 1747.82,-256.526 1744.93,-250.153"/>
</g>
<!-- Node36&#45;&gt;Node16 -->
<g id="edge44" class="edge"><title>Node36&#45;&gt;Node16</title>
<path fill="none" stroke="midnightblue" d="M2250.5,-302.805C2250.5,-293.91 2250.5,-283.78 2250.5,-276.751"/>
<polygon fill="midnightblue" stroke="midnightblue" points="2247,-303.083 2250.5,-313.083 2254,-303.083 2247,-303.083"/>
</g>
<!-- Node36&#45;&gt;Node20 -->
<g id="edge46" class="edge"><title>Node36&#45;&gt;Node20</title>
<path fill="none" stroke="midnightblue" d="M2217.05,-310.039C2188.64,-299.879 2148.56,-285.546 2123.31,-276.516"/>
<polygon fill="midnightblue" stroke="midnightblue" points="2215.98,-313.372 2226.57,-313.444 2218.34,-306.781 2215.98,-313.372"/>
</g>
<!-- Node36&#45;&gt;Node33 -->
<g id="edge45" class="edge"><title>Node36&#45;&gt;Node33</title>
<path fill="none" stroke="midnightblue" d="M2287.92,-309.975C2317.95,-298.341 2352.38,-279.236 2334.5,-257 2333.16,-255.33 2234.82,-234.165 2167.17,-219.771"/>
<polygon fill="midnightblue" stroke="midnightblue" points="2286.57,-306.743 2278.39,-313.484 2288.99,-313.311 2286.57,-306.743"/>
</g>
<!-- Node37 -->
<g id="node37" class="node"><title>Node37</title>
<g id="a_node37"><a xlink:href="../../d9/d63/File_8cpp.html" target="_top" xlink:title="source/File.cpp">
<polygon fill="white" stroke="black" points="2382,-257.5 2382,-276.5 2465,-276.5 2465,-257.5 2382,-257.5"/>
<text text-anchor="middle" x="2423.5" y="-264.5" font-family="Helvetica,sans-Serif" font-size="10.00">source/File.cpp</text>
</a>
</g>
</g>
<!-- Node36&#45;&gt;Node37 -->
<g id="edge47" class="edge"><title>Node36&#45;&gt;Node37</title>
<path fill="none" stroke="midnightblue" d="M2287.55,-310.436C2320.16,-300.255 2366.91,-285.664 2396.22,-276.516"/>
<polygon fill="midnightblue" stroke="midnightblue" points="2286.42,-307.123 2277.91,-313.444 2288.5,-313.805 2286.42,-307.123"/>
</g>
<!-- Node38&#45;&gt;Node6 -->
<g id="edge49" class="edge"><title>Node38&#45;&gt;Node6</title>
<path fill="none" stroke="midnightblue" d="M2474.78,-256.037C2424.31,-248.61 2366.33,-236.984 2346.5,-221 2309.33,-191.035 2340.22,-152.276 2302.5,-123 2272.92,-100.036 2175.07,-88.0497 2108.22,-82.3854"/>
<polygon fill="midnightblue" stroke="midnightblue" points="2474.36,-259.513 2484.76,-257.466 2475.35,-252.583 2474.36,-259.513"/>
</g>
<!-- Node38&#45;&gt;Node33 -->
<g id="edge53" class="edge"><title>Node38&#45;&gt;Node33</title>
<path fill="none" stroke="midnightblue" d="M2472.46,-256.669C2377.25,-246.306 2230.81,-229.873 2175.5,-221 2172.77,-220.562 2169.98,-220.092 2167.17,-219.598"/>
<polygon fill="midnightblue" stroke="midnightblue" points="2472.34,-260.176 2482.66,-257.776 2473.09,-253.217 2472.34,-260.176"/>
</g>
<!-- Node38&#45;&gt;Node34 -->
<g id="edge54" class="edge"><title>Node38&#45;&gt;Node34</title>
<path fill="none" stroke="midnightblue" d="M2472.45,-256.945C2386.85,-249.368 2048.88,-222.378 1909.71,-211.292"/>
<polygon fill="midnightblue" stroke="midnightblue" points="2472.34,-260.449 2482.61,-257.863 2472.97,-253.477 2472.34,-260.449"/>
</g>
<!-- Node39 -->
<g id="node39" class="node"><title>Node39</title>
<g id="a_node39"><a xlink:href="../../d0/d59/EventNewPair_8hh.html" target="_top" xlink:title="examples/toppartner\l/include/tagger/EventNewPair.hh">
<polygon fill="white" stroke="black" points="2489.5,-190.5 2489.5,-220.5 2649.5,-220.5 2649.5,-190.5 2489.5,-190.5"/>
<text text-anchor="start" x="2497.5" y="-208.5" font-family="Helvetica,sans-Serif" font-size="10.00">examples/toppartner</text>
<text text-anchor="middle" x="2569.5" y="-197.5" font-family="Helvetica,sans-Serif" font-size="10.00">/include/tagger/EventNewPair.hh</text>
</a>
</g>
</g>
<!-- Node38&#45;&gt;Node39 -->
<g id="edge50" class="edge"><title>Node38&#45;&gt;Node39</title>
<path fill="none" stroke="midnightblue" d="M2562.6,-247.526C2564.07,-238.813 2565.79,-228.586 2567.14,-220.523"/>
<polygon fill="midnightblue" stroke="midnightblue" points="2559.14,-247.033 2560.93,-257.475 2566.04,-248.194 2559.14,-247.033"/>
</g>
<!-- Node40 -->
<g id="node40" class="node"><title>Node40</title>
<g id="a_node40"><a xlink:href="../../d9/dfa/MainNewPair_8cpp.html" target="_top" xlink:title="examples/toppartner\l/source/MainNewPair.cpp">
<polygon fill="white" stroke="black" points="2681,-123.5 2681,-153.5 2810,-153.5 2810,-123.5 2681,-123.5"/>
<text text-anchor="start" x="2689" y="-141.5" font-family="Helvetica,sans-Serif" font-size="10.00">examples/toppartner</text>
<text text-anchor="middle" x="2745.5" y="-130.5" font-family="Helvetica,sans-Serif" font-size="10.00">/source/MainNewPair.cpp</text>
</a>
</g>
</g>
<!-- Node39&#45;&gt;Node40 -->
<g id="edge51" class="edge"><title>Node39&#45;&gt;Node40</title>
<path fill="none" stroke="midnightblue" d="M2617.38,-186.819C2645.67,-176.371 2680.99,-163.323 2707.39,-153.577"/>
<polygon fill="midnightblue" stroke="midnightblue" points="2615.86,-183.648 2607.69,-190.396 2618.28,-190.215 2615.86,-183.648"/>
</g>
<!-- Node41 -->
<g id="node41" class="node"><title>Node41</title>
<g id="a_node41"><a xlink:href="../../d2/de0/EventNewPair_8cpp.html" target="_top" xlink:title="examples/toppartner\l/source/tagger/EventNewPair.cpp">
<polygon fill="white" stroke="black" points="2498.5,-123.5 2498.5,-153.5 2662.5,-153.5 2662.5,-123.5 2498.5,-123.5"/>
<text text-anchor="start" x="2506.5" y="-141.5" font-family="Helvetica,sans-Serif" font-size="10.00">examples/toppartner</text>
<text text-anchor="middle" x="2580.5" y="-130.5" font-family="Helvetica,sans-Serif" font-size="10.00">/source/tagger/EventNewPair.cpp</text>
</a>
</g>
</g>
<!-- Node39&#45;&gt;Node41 -->
<g id="edge52" class="edge"><title>Node39&#45;&gt;Node41</title>
<path fill="none" stroke="midnightblue" d="M2573.58,-180.403C2575.11,-171.37 2576.79,-161.408 2578.12,-153.577"/>
<polygon fill="midnightblue" stroke="midnightblue" points="2570.1,-179.952 2571.89,-190.396 2577.01,-181.12 2570.1,-179.952"/>
</g>
<!-- Node42&#45;&gt;Node18 -->
<g id="edge59" class="edge"><title>Node42&#45;&gt;Node18</title>
<path fill="none" stroke="midnightblue" d="M2644.03,-256.966C2510.55,-239.482 2475.58,-237.625 2346.5,-221 2330.1,-218.888 2312.3,-216.492 2296.04,-214.265"/>
<polygon fill="midnightblue" stroke="midnightblue" points="2643.86,-260.474 2654.24,-258.308 2644.78,-253.534 2643.86,-260.474"/>
</g>
<!-- Node43 -->
<g id="node43" class="node"><title>Node43</title>
<g id="a_node43"><a xlink:href="../../da/d5b/Histogram2Dim_8hh.html" target="_top" xlink:title="boca/plotting/Histogram2\lDim.hh">
<polygon fill="white" stroke="black" points="2668,-190.5 2668,-220.5 2793,-220.5 2793,-190.5 2668,-190.5"/>
<text text-anchor="start" x="2676" y="-208.5" font-family="Helvetica,sans-Serif" font-size="10.00">boca/plotting/Histogram2</text>
<text text-anchor="middle" x="2730.5" y="-197.5" font-family="Helvetica,sans-Serif" font-size="10.00">Dim.hh</text>
</a>
</g>
</g>
<!-- Node42&#45;&gt;Node43 -->
<g id="edge56" class="edge"><title>Node42&#45;&gt;Node43</title>
<path fill="none" stroke="midnightblue" d="M2714.42,-248.104C2717.83,-239.269 2721.89,-228.766 2725.08,-220.523"/>
<polygon fill="midnightblue" stroke="midnightblue" points="2711.14,-246.886 2710.8,-257.475 2717.67,-249.41 2711.14,-246.886"/>
</g>
<!-- Node45 -->
<g id="node45" class="node"><title>Node45</title>
<g id="a_node45"><a xlink:href="../../d8/d2e/Profile_8hh.html" target="_top" xlink:title="boca/plotting/Profile.hh">
<polygon fill="white" stroke="black" points="2355.5,-196 2355.5,-215 2471.5,-215 2471.5,-196 2355.5,-196"/>
<text text-anchor="middle" x="2413.5" y="-203" font-family="Helvetica,sans-Serif" font-size="10.00">boca/plotting/Profile.hh</text>
</a>
</g>
</g>
<!-- Node42&#45;&gt;Node45 -->
<g id="edge60" class="edge"><title>Node42&#45;&gt;Node45</title>
<path fill="none" stroke="midnightblue" d="M2653.03,-255.478C2607.01,-246.523 2539.38,-233.207 2480.5,-221 2471.41,-219.116 2461.64,-217.033 2452.45,-215.049"/>
<polygon fill="midnightblue" stroke="midnightblue" points="2652.6,-258.961 2663.09,-257.433 2653.94,-252.089 2652.6,-258.961"/>
</g>
<!-- Node47 -->
<g id="node47" class="node"><title>Node47</title>
<g id="a_node47"><a xlink:href="../../da/d2d/Plot_8cpp.html" target="_top" xlink:title="source/plotting/Plot.cpp">
<polygon fill="white" stroke="black" points="2811,-196 2811,-215 2930,-215 2930,-196 2811,-196"/>
<text text-anchor="middle" x="2870.5" y="-203" font-family="Helvetica,sans-Serif" font-size="10.00">source/plotting/Plot.cpp</text>
</a>
</g>
</g>
<!-- Node42&#45;&gt;Node47 -->
<g id="edge63" class="edge"><title>Node42&#45;&gt;Node47</title>
<path fill="none" stroke="midnightblue" d="M2740.56,-253.933C2772.24,-242.368 2819.25,-225.208 2847.19,-215.009"/>
<polygon fill="midnightblue" stroke="midnightblue" points="2739.05,-250.758 2730.85,-257.475 2741.45,-257.334 2739.05,-250.758"/>
</g>
<!-- Node43&#45;&gt;Node12 -->
<g id="edge58" class="edge"><title>Node43&#45;&gt;Node12</title>
<path fill="none" stroke="midnightblue" d="M2657.82,-190.062C2355.17,-152.793 2273.56,-193.846 1975.5,-154 1972.55,-153.606 1969.54,-153.15 1966.5,-152.649"/>
<polygon fill="midnightblue" stroke="midnightblue" points="2657.4,-193.536 2667.76,-191.304 2658.27,-186.591 2657.4,-193.536"/>
</g>
<!-- Node44 -->
<g id="node44" class="node"><title>Node44</title>
<g id="a_node44"><a xlink:href="../../d3/dd1/Histogram2Dim_8cpp.html" target="_top" xlink:title="source/plotting/Histogram2\lDim.cpp">
<polygon fill="white" stroke="black" points="2828.5,-123.5 2828.5,-153.5 2962.5,-153.5 2962.5,-123.5 2828.5,-123.5"/>
<text text-anchor="start" x="2836.5" y="-141.5" font-family="Helvetica,sans-Serif" font-size="10.00">source/plotting/Histogram2</text>
<text text-anchor="middle" x="2895.5" y="-130.5" font-family="Helvetica,sans-Serif" font-size="10.00">Dim.cpp</text>
</a>
</g>
</g>
<!-- Node43&#45;&gt;Node44 -->
<g id="edge57" class="edge"><title>Node43&#45;&gt;Node44</title>
<path fill="none" stroke="midnightblue" d="M2775.73,-186.682C2802.19,-176.257 2835.13,-163.281 2859.77,-153.577"/>
<polygon fill="midnightblue" stroke="midnightblue" points="2774.32,-183.474 2766.3,-190.396 2776.89,-189.987 2774.32,-183.474"/>
</g>
<!-- Node45&#45;&gt;Node12 -->
<g id="edge61" class="edge"><title>Node45&#45;&gt;Node12</title>
<path fill="none" stroke="midnightblue" d="M2345.11,-195.155C2331.66,-193.386 2317.64,-191.593 2304.5,-190 2158.47,-172.3 2120.69,-177.589 1975.5,-154 1972.56,-153.523 1969.56,-153.001 1966.53,-152.447"/>
<polygon fill="midnightblue" stroke="midnightblue" points="2344.89,-198.656 2355.27,-196.499 2345.81,-191.717 2344.89,-198.656"/>
</g>
<!-- Node46 -->
<g id="node46" class="node"><title>Node46</title>
<g id="a_node46"><a xlink:href="../../d9/dbb/Profile_8cpp.html" target="_top" xlink:title="source/plotting/Profile.cpp">
<polygon fill="white" stroke="black" points="2350.5,-129 2350.5,-148 2480.5,-148 2480.5,-129 2350.5,-129"/>
<text text-anchor="middle" x="2415.5" y="-136" font-family="Helvetica,sans-Serif" font-size="10.00">source/plotting/Profile.cpp</text>
</a>
</g>
</g>
<!-- Node45&#45;&gt;Node46 -->
<g id="edge62" class="edge"><title>Node45&#45;&gt;Node46</title>
<path fill="none" stroke="midnightblue" d="M2414.08,-185.537C2414.46,-173.17 2414.94,-157.62 2415.23,-148.127"/>
<polygon fill="midnightblue" stroke="midnightblue" points="2410.58,-185.631 2413.77,-195.734 2417.58,-185.846 2410.58,-185.631"/>
</g>
<!-- Node48&#45;&gt;Node12 -->
<g id="edge66" class="edge"><title>Node48&#45;&gt;Node12</title>
<path fill="none" stroke="midnightblue" d="M1909.6,-303.563C1914.76,-278.047 1922.47,-230.526 1918.5,-190 1917.28,-177.547 1914.4,-163.611 1912.05,-153.539"/>
<polygon fill="midnightblue" stroke="midnightblue" points="1906.18,-302.843 1907.53,-313.352 1913.02,-304.294 1906.18,-302.843"/>
</g>
<!-- Node49 -->
<g id="node49" class="node"><title>Node49</title>
<g id="a_node49"><a xlink:href="../../d7/dec/Histograms_8cpp.html" target="_top" xlink:title="source/plotting/Histograms.cpp">
<polygon fill="white" stroke="black" points="1189.5,-257.5 1189.5,-276.5 1341.5,-276.5 1341.5,-257.5 1189.5,-257.5"/>
<text text-anchor="middle" x="1265.5" y="-264.5" font-family="Helvetica,sans-Serif" font-size="10.00">source/plotting/Histograms.cpp</text>
</a>
</g>
</g>
<!-- Node48&#45;&gt;Node49 -->
<g id="edge65" class="edge"><title>Node48&#45;&gt;Node49</title>
<path fill="none" stroke="midnightblue" d="M1825.64,-316.145C1717.76,-308.093 1519.5,-292.796 1350.5,-277 1347.69,-276.738 1344.83,-276.465 1341.95,-276.184"/>
<polygon fill="midnightblue" stroke="midnightblue" points="1825.57,-319.649 1835.8,-316.901 1826.09,-312.668 1825.57,-319.649"/>
</g>
</g>
</svg>
