<?xml version="1.0" encoding="UTF-8" standalone="no"?>
<!DOCTYPE svg PUBLIC "-//W3C//DTD SVG 1.1//EN"
 "http://www.w3.org/Graphics/SVG/1.1/DTD/svg11.dtd">
<!-- Generated by graphviz version 2.38.0 (20140413.2041)
 -->
<!-- Title: examples/toppartner/include/multiplets/TruthVariables.hh Pages: 1 -->
<svg width="363pt" height="184pt"
 viewBox="0.00 0.00 363.00 184.00" xmlns="http://www.w3.org/2000/svg" xmlns:xlink="http://www.w3.org/1999/xlink">
<g id="graph0" class="graph" transform="scale(1 1) rotate(0) translate(4 180)">
<title>examples/toppartner/include/multiplets/TruthVariables.hh</title>
<polygon fill="white" stroke="none" points="-4,4 -4,-180 359,-180 359,4 -4,4"/>
<!-- Node1 -->
<g id="node1" class="node"><title>Node1</title>
<polygon fill="#bfbfbf" stroke="black" points="156.5,-134.5 156.5,-175.5 261.5,-175.5 261.5,-134.5 156.5,-134.5"/>
<text text-anchor="start" x="164.5" y="-163.5" font-family="Helvetica,sans-Serif" font-size="10.00">examples/toppartner</text>
<text text-anchor="start" x="164.5" y="-152.5" font-family="Helvetica,sans-Serif" font-size="10.00">/include/multiplets</text>
<text text-anchor="middle" x="209" y="-141.5" font-family="Helvetica,sans-Serif" font-size="10.00">/TruthVariables.hh</text>
</g>
<!-- Node2 -->
<g id="node2" class="node"><title>Node2</title>
<g id="a_node2"><a xlink:href="../../d8/d02/TruthLevel_8hh.html" target="_top" xlink:title="examples/toppartner\l/include/tagger/TruthLevel.hh">
<polygon fill="white" stroke="black" points="59.5,-67.5 59.5,-97.5 202.5,-97.5 202.5,-67.5 59.5,-67.5"/>
<text text-anchor="start" x="67.5" y="-85.5" font-family="Helvetica,sans-Serif" font-size="10.00">examples/toppartner</text>
<text text-anchor="middle" x="131" y="-74.5" font-family="Helvetica,sans-Serif" font-size="10.00">/include/tagger/TruthLevel.hh</text>
</a>
</g>
</g>
<!-- Node1&#45;&gt;Node2 -->
<g id="edge1" class="edge"><title>Node1&#45;&gt;Node2</title>
<path fill="none" stroke="midnightblue" d="M179.792,-127.601C168.654,-117.533 156.376,-106.436 146.923,-97.8916"/>
<polygon fill="midnightblue" stroke="midnightblue" points="177.507,-130.253 187.273,-134.362 182.201,-125.06 177.507,-130.253"/>
</g>
<!-- Node5 -->
<g id="node5" class="node"><title>Node5</title>
<g id="a_node5"><a xlink:href="../../df/dd1/TruthVariables_8cpp.html" target="_top" xlink:title="examples/toppartner\l/source/TruthVariables.cpp">
<polygon fill="white" stroke="black" points="221,-67.5 221,-97.5 355,-97.5 355,-67.5 221,-67.5"/>
<text text-anchor="start" x="229" y="-85.5" font-family="Helvetica,sans-Serif" font-size="10.00">examples/toppartner</text>
<text text-anchor="middle" x="288" y="-74.5" font-family="Helvetica,sans-Serif" font-size="10.00">/source/TruthVariables.cpp</text>
</a>
</g>
</g>
<!-- Node1&#45;&gt;Node5 -->
<g id="edge4" class="edge"><title>Node1&#45;&gt;Node5</title>
<path fill="none" stroke="midnightblue" d="M238.637,-127.551C250.002,-117.41 262.53,-106.229 272.122,-97.67"/>
<polygon fill="midnightblue" stroke="midnightblue" points="236.137,-125.092 231.006,-134.362 240.797,-130.315 236.137,-125.092"/>
</g>
<!-- Node3 -->
<g id="node3" class="node"><title>Node3</title>
<g id="a_node3"><a xlink:href="../../dd/dc8/examples_2toppartner_2source_2MainTruth_8cpp.html" target="_top" xlink:title="examples/toppartner\l/source/MainTruth.cpp">
<polygon fill="white" stroke="black" points="0,-0.5 0,-30.5 114,-30.5 114,-0.5 0,-0.5"/>
<text text-anchor="start" x="8" y="-18.5" font-family="Helvetica,sans-Serif" font-size="10.00">examples/toppartner</text>
<text text-anchor="middle" x="57" y="-7.5" font-family="Helvetica,sans-Serif" font-size="10.00">/source/MainTruth.cpp</text>
</a>
</g>
</g>
<!-- Node2&#45;&gt;Node3 -->
<g id="edge2" class="edge"><title>Node2&#45;&gt;Node3</title>
<path fill="none" stroke="midnightblue" d="M107.204,-60.5978C96.0299,-50.7831 83.0072,-39.3442 73.0256,-30.5765"/>
<polygon fill="midnightblue" stroke="midnightblue" points="105.12,-63.4261 114.943,-67.396 109.74,-58.1669 105.12,-63.4261"/>
</g>
<!-- Node4 -->
<g id="node4" class="node"><title>Node4</title>
<g id="a_node4"><a xlink:href="../../d3/d65/TruthLevel_8cpp.html" target="_top" xlink:title="examples/toppartner\l/source/tagger/TruthLevel.cpp">
<polygon fill="white" stroke="black" points="132,-0.5 132,-30.5 278,-30.5 278,-0.5 132,-0.5"/>
<text text-anchor="start" x="140" y="-18.5" font-family="Helvetica,sans-Serif" font-size="10.00">examples/toppartner</text>
<text text-anchor="middle" x="205" y="-7.5" font-family="Helvetica,sans-Serif" font-size="10.00">/source/tagger/TruthLevel.cpp</text>
</a>
</g>
</g>
<!-- Node2&#45;&gt;Node4 -->
<g id="edge3" class="edge"><title>Node2&#45;&gt;Node4</title>
<path fill="none" stroke="midnightblue" d="M154.796,-60.5978C165.97,-50.7831 178.993,-39.3442 188.974,-30.5765"/>
<polygon fill="midnightblue" stroke="midnightblue" points="152.26,-58.1669 147.057,-67.396 156.88,-63.4261 152.26,-58.1669"/>
</g>
</g>
</svg>
