<?xml version="1.0" encoding="UTF-8" standalone="no"?>
<!DOCTYPE svg PUBLIC "-//W3C//DTD SVG 1.1//EN"
 "http://www.w3.org/Graphics/SVG/1.1/DTD/svg11.dtd">
<!-- Generated by graphviz version 2.38.0 (20140413.2041)
 -->
<!-- Title: include/delphes/Delphes.hh Pages: 1 -->
<svg width="1315pt" height="140pt"
 viewBox="0.00 0.00 1314.50 140.00" xmlns="http://www.w3.org/2000/svg" xmlns:xlink="http://www.w3.org/1999/xlink">
<g id="graph0" class="graph" transform="scale(1 1) rotate(0) translate(4 136)">
<title>include/delphes/Delphes.hh</title>
<polygon fill="white" stroke="none" points="-4,4 -4,-136 1310.5,-136 1310.5,4 -4,4"/>
<!-- Node1 -->
<g id="node1" class="node"><title>Node1</title>
<polygon fill="#bfbfbf" stroke="black" points="636.5,-112.5 636.5,-131.5 773.5,-131.5 773.5,-112.5 636.5,-112.5"/>
<text text-anchor="middle" x="705" y="-119.5" font-family="Helvetica,sans-Serif" font-size="10.00">include/delphes/Delphes.hh</text>
</g>
<!-- Node2 -->
<g id="node2" class="node"><title>Node2</title>
<g id="a_node2"><a xlink:href="../../db/d0e/TreeReaderArray_8hh.html" target="_top" xlink:title="include/TreeReaderArray.hh">
<polygon fill="white" stroke="black" points="0,-56.5 0,-75.5 138,-75.5 138,-56.5 0,-56.5"/>
<text text-anchor="middle" x="69" y="-63.5" font-family="Helvetica,sans-Serif" font-size="10.00">include/TreeReaderArray.hh</text>
</a>
</g>
</g>
<!-- Node1&#45;&gt;Node2 -->
<g id="edge1" class="edge"><title>Node1&#45;&gt;Node2</title>
<path fill="none" stroke="midnightblue" d="M626.177,-115.45C518.194,-107.661 318.248,-92.5703 148,-76 144.84,-75.6924 141.61,-75.3675 138.348,-75.0308"/>
<polygon fill="midnightblue" stroke="midnightblue" points="626.11,-118.955 636.336,-116.181 626.613,-111.973 626.11,-118.955"/>
</g>
<!-- Node3 -->
<g id="node3" class="node"><title>Node3</title>
<g id="a_node3"><a xlink:href="../../d4/d9c/TreeReaderValues_8hh.html" target="_top" xlink:title="include/TreeReaderValues.hh">
<polygon fill="white" stroke="black" points="156.5,-56.5 156.5,-75.5 301.5,-75.5 301.5,-56.5 156.5,-56.5"/>
<text text-anchor="middle" x="229" y="-63.5" font-family="Helvetica,sans-Serif" font-size="10.00">include/TreeReaderValues.hh</text>
</a>
</g>
</g>
<!-- Node1&#45;&gt;Node3 -->
<g id="edge2" class="edge"><title>Node1&#45;&gt;Node3</title>
<path fill="none" stroke="midnightblue" d="M626.112,-112.051C535.82,-101.807 389.153,-85.1686 301.587,-75.2347"/>
<polygon fill="midnightblue" stroke="midnightblue" points="625.963,-115.556 636.294,-113.206 626.752,-108.601 625.963,-115.556"/>
</g>
<!-- Node5 -->
<g id="node5" class="node"><title>Node5</title>
<g id="a_node5"><a xlink:href="../../d7/db9/delphes_2Hadrons_8cpp.html" target="_top" xlink:title="source/delphes/Hadrons.cpp">
<polygon fill="white" stroke="black" points="319.5,-56.5 319.5,-75.5 460.5,-75.5 460.5,-56.5 319.5,-56.5"/>
<text text-anchor="middle" x="390" y="-63.5" font-family="Helvetica,sans-Serif" font-size="10.00">source/delphes/Hadrons.cpp</text>
</a>
</g>
</g>
<!-- Node1&#45;&gt;Node5 -->
<g id="edge4" class="edge"><title>Node1&#45;&gt;Node5</title>
<path fill="none" stroke="midnightblue" d="M645.077,-110.727C585.551,-100.523 495.34,-85.0583 439.679,-75.5164"/>
<polygon fill="midnightblue" stroke="midnightblue" points="644.64,-114.203 655.087,-112.444 645.822,-107.304 644.64,-114.203"/>
</g>
<!-- Node6 -->
<g id="node6" class="node"><title>Node6</title>
<g id="a_node6"><a xlink:href="../../dd/d98/delphes_2Leptons_8cpp.html" target="_top" xlink:title="source/delphes/Leptons.cpp">
<polygon fill="white" stroke="black" points="478.5,-56.5 478.5,-75.5 617.5,-75.5 617.5,-56.5 478.5,-56.5"/>
<text text-anchor="middle" x="548" y="-63.5" font-family="Helvetica,sans-Serif" font-size="10.00">source/delphes/Leptons.cpp</text>
</a>
</g>
</g>
<!-- Node1&#45;&gt;Node6 -->
<g id="edge5" class="edge"><title>Node1&#45;&gt;Node6</title>
<path fill="none" stroke="midnightblue" d="M670.611,-109.172C641.048,-99.0039 599.127,-84.5852 572.761,-75.5164"/>
<polygon fill="midnightblue" stroke="midnightblue" points="669.528,-112.501 680.123,-112.444 671.805,-105.881 669.528,-112.501"/>
</g>
<!-- Node7 -->
<g id="node7" class="node"><title>Node7</title>
<g id="a_node7"><a xlink:href="../../d1/da0/delphes_2Partons_8cpp.html" target="_top" xlink:title="source/delphes/Partons.cpp">
<polygon fill="white" stroke="black" points="636,-56.5 636,-75.5 774,-75.5 774,-56.5 636,-56.5"/>
<text text-anchor="middle" x="705" y="-63.5" font-family="Helvetica,sans-Serif" font-size="10.00">source/delphes/Partons.cpp</text>
</a>
</g>
</g>
<!-- Node1&#45;&gt;Node7 -->
<g id="edge6" class="edge"><title>Node1&#45;&gt;Node7</title>
<path fill="none" stroke="midnightblue" d="M705,-101.805C705,-92.9102 705,-82.7798 705,-75.7511"/>
<polygon fill="midnightblue" stroke="midnightblue" points="701.5,-102.083 705,-112.083 708.5,-102.083 701.5,-102.083"/>
</g>
<!-- Node8 -->
<g id="node8" class="node"><title>Node8</title>
<g id="a_node8"><a xlink:href="../../d0/d3a/FourVector_8cpp.html" target="_top" xlink:title="source/FourVector.cpp">
<polygon fill="white" stroke="black" points="792,-56.5 792,-75.5 908,-75.5 908,-56.5 792,-56.5"/>
<text text-anchor="middle" x="850" y="-63.5" font-family="Helvetica,sans-Serif" font-size="10.00">source/FourVector.cpp</text>
</a>
</g>
</g>
<!-- Node1&#45;&gt;Node8 -->
<g id="edge7" class="edge"><title>Node1&#45;&gt;Node8</title>
<path fill="none" stroke="midnightblue" d="M737.475,-108.906C764.736,-98.7536 802.992,-84.5063 827.132,-75.5164"/>
<polygon fill="midnightblue" stroke="midnightblue" points="736.125,-105.674 727.976,-112.444 738.568,-112.233 736.125,-105.674"/>
</g>
<!-- Node9 -->
<g id="node9" class="node"><title>Node9</title>
<g id="a_node9"><a xlink:href="../../db/d6a/JetInfo_8cpp.html" target="_top" xlink:title="source/JetInfo.cpp">
<polygon fill="white" stroke="black" points="926,-56.5 926,-75.5 1024,-75.5 1024,-56.5 926,-56.5"/>
<text text-anchor="middle" x="975" y="-63.5" font-family="Helvetica,sans-Serif" font-size="10.00">source/JetInfo.cpp</text>
</a>
</g>
</g>
<!-- Node1&#45;&gt;Node9 -->
<g id="edge8" class="edge"><title>Node1&#45;&gt;Node9</title>
<path fill="none" stroke="midnightblue" d="M757.633,-110.473C808.661,-100.268 885.103,-84.9794 932.418,-75.5164"/>
<polygon fill="midnightblue" stroke="midnightblue" points="756.902,-107.05 747.782,-112.444 758.275,-113.914 756.902,-107.05"/>
</g>
<!-- Node10 -->
<g id="node10" class="node"><title>Node10</title>
<g id="a_node10"><a xlink:href="../../da/d15/JetInfoFamily_8cpp.html" target="_top" xlink:title="source/JetInfoFamily.cpp">
<polygon fill="white" stroke="black" points="1042.5,-56.5 1042.5,-75.5 1169.5,-75.5 1169.5,-56.5 1042.5,-56.5"/>
<text text-anchor="middle" x="1106" y="-63.5" font-family="Helvetica,sans-Serif" font-size="10.00">source/JetInfoFamily.cpp</text>
</a>
</g>
</g>
<!-- Node1&#45;&gt;Node10 -->
<g id="edge9" class="edge"><title>Node1&#45;&gt;Node10</title>
<path fill="none" stroke="midnightblue" d="M778.483,-111.105C854.206,-100.907 971.022,-85.1766 1042.76,-75.5164"/>
<polygon fill="midnightblue" stroke="midnightblue" points="777.983,-107.64 768.54,-112.444 778.917,-114.578 777.983,-107.64"/>
</g>
<!-- Node11 -->
<g id="node11" class="node"><title>Node11</title>
<g id="a_node11"><a xlink:href="../../d3/da7/TreeReader_8cpp.html" target="_top" xlink:title="source/TreeReader.cpp">
<polygon fill="white" stroke="black" points="1187.5,-56.5 1187.5,-75.5 1306.5,-75.5 1306.5,-56.5 1187.5,-56.5"/>
<text text-anchor="middle" x="1247" y="-63.5" font-family="Helvetica,sans-Serif" font-size="10.00">source/TreeReader.cpp</text>
</a>
</g>
</g>
<!-- Node1&#45;&gt;Node11 -->
<g id="edge10" class="edge"><title>Node1&#45;&gt;Node11</title>
<path fill="none" stroke="midnightblue" d="M783.781,-114.417C877.913,-106.345 1040.12,-91.7774 1179,-76 1181.72,-75.6908 1184.5,-75.3646 1187.31,-75.0268"/>
<polygon fill="midnightblue" stroke="midnightblue" points="783.433,-110.934 773.767,-115.274 784.029,-117.909 783.433,-110.934"/>
</g>
<!-- Node4 -->
<g id="node4" class="node"><title>Node4</title>
<g id="a_node4"><a xlink:href="../../de/d16/TreeReaderValues_8cpp.html" target="_top" xlink:title="source/TreeReaderValues.cpp">
<polygon fill="white" stroke="black" points="154.5,-0.5 154.5,-19.5 303.5,-19.5 303.5,-0.5 154.5,-0.5"/>
<text text-anchor="middle" x="229" y="-7.5" font-family="Helvetica,sans-Serif" font-size="10.00">source/TreeReaderValues.cpp</text>
</a>
</g>
</g>
<!-- Node3&#45;&gt;Node4 -->
<g id="edge3" class="edge"><title>Node3&#45;&gt;Node4</title>
<path fill="none" stroke="midnightblue" d="M229,-45.8045C229,-36.9102 229,-26.7798 229,-19.7511"/>
<polygon fill="midnightblue" stroke="midnightblue" points="225.5,-46.083 229,-56.083 232.5,-46.083 225.5,-46.083"/>
</g>
</g>
</svg>
