<?xml version="1.0" encoding="UTF-8" standalone="no"?>
<!DOCTYPE svg PUBLIC "-//W3C//DTD SVG 1.1//EN"
 "http://www.w3.org/Graphics/SVG/1.1/DTD/svg11.dtd">
<!-- Generated by graphviz version 2.38.0 (20140413.2041)
 -->
<!-- Title: boca::naturalness::SignatureEffectiveTagger Pages: 1 -->
<svg width="218pt" height="275pt"
 viewBox="0.00 0.00 217.50 275.00" xmlns="http://www.w3.org/2000/svg" xmlns:xlink="http://www.w3.org/1999/xlink">
<g id="graph0" class="graph" transform="scale(1 1) rotate(0) translate(4 271)">
<title>boca::naturalness::SignatureEffectiveTagger</title>
<polygon fill="white" stroke="none" points="-4,4 -4,-271 213.5,-271 213.5,4 -4,4"/>
<!-- Node1 -->
<g id="node1" class="node"><title>Node1</title>
<polygon fill="#bfbfbf" stroke="black" points="0,-0.5 0,-30.5 127,-30.5 127,-0.5 0,-0.5"/>
<text text-anchor="start" x="8" y="-18.5" font-family="Helvetica,sans-Serif" font-size="10.00">boca::naturalness::</text>
<text text-anchor="middle" x="63.5" y="-7.5" font-family="Helvetica,sans-Serif" font-size="10.00">SignatureEffectiveTagger</text>
</g>
<!-- Node2 -->
<g id="node2" class="node"><title>Node2</title>
<g id="a_node2"><a xlink:href="../../dd/d8a/classboca_1_1TaggerTemplate.html" target="_top" xlink:title="boca::TaggerTemplate\l\&lt; Quattuordecuplet554,\l SignatureBranch \&gt;">
<polygon fill="white" stroke="black" points="4,-68.5 4,-109.5 123,-109.5 123,-68.5 4,-68.5"/>
<text text-anchor="start" x="12" y="-97.5" font-family="Helvetica,sans-Serif" font-size="10.00">boca::TaggerTemplate</text>
<text text-anchor="start" x="12" y="-86.5" font-family="Helvetica,sans-Serif" font-size="10.00">&lt; Quattuordecuplet554,</text>
<text text-anchor="middle" x="63.5" y="-75.5" font-family="Helvetica,sans-Serif" font-size="10.00"> SignatureBranch &gt;</text>
</a>
</g>
</g>
<!-- Node2&#45;&gt;Node1 -->
<g id="edge1" class="edge"><title>Node2&#45;&gt;Node1</title>
<path fill="none" stroke="midnightblue" d="M63.5,-58.1581C63.5,-48.6872 63.5,-38.6473 63.5,-30.7972"/>
<polygon fill="midnightblue" stroke="midnightblue" points="60.0001,-58.4623 63.5,-68.4623 67.0001,-58.4623 60.0001,-58.4623"/>
</g>
<!-- Node3 -->
<g id="node3" class="node"><title>Node3</title>
<g id="a_node3"><a xlink:href="../../da/d42/classboca_1_1Tagger.html" target="_top" xlink:title="Prepares multivariant analysis. ">
<polygon fill="white" stroke="black" points="37.5,-247.5 37.5,-266.5 111.5,-266.5 111.5,-247.5 37.5,-247.5"/>
<text text-anchor="middle" x="74.5" y="-254.5" font-family="Helvetica,sans-Serif" font-size="10.00">boca::Tagger</text>
</a>
</g>
</g>
<!-- Node3&#45;&gt;Node2 -->
<g id="edge2" class="edge"><title>Node3&#45;&gt;Node2</title>
<path fill="none" stroke="midnightblue" d="M70.576,-237.146C69.0183,-228.858 67.3887,-218.984 66.5,-210 63.0127,-174.744 62.8341,-133.395 63.1076,-109.592"/>
<polygon fill="midnightblue" stroke="midnightblue" points="67.1984,-238.107 72.5791,-247.234 74.0643,-236.744 67.1984,-238.107"/>
</g>
<!-- Node4 -->
<g id="node4" class="node"><title>Node4</title>
<g id="a_node4"><a xlink:href="../../dd/d8a/classboca_1_1TaggerTemplate.html" target="_top" xlink:title="Tagger base class using Branch template. ">
<polygon fill="white" stroke="black" points="75.5,-168.5 75.5,-209.5 189.5,-209.5 189.5,-168.5 75.5,-168.5"/>
<text text-anchor="start" x="83.5" y="-197.5" font-family="Helvetica,sans-Serif" font-size="10.00">boca::TaggerTemplate</text>
<text text-anchor="start" x="83.5" y="-186.5" font-family="Helvetica,sans-Serif" font-size="10.00">&lt; MultipletTemplate,</text>
<text text-anchor="middle" x="132.5" y="-175.5" font-family="Helvetica,sans-Serif" font-size="10.00"> BranchTemplate &gt;</text>
</a>
</g>
</g>
<!-- Node3&#45;&gt;Node4 -->
<g id="edge4" class="edge"><title>Node3&#45;&gt;Node4</title>
<path fill="none" stroke="midnightblue" d="M88.7339,-239.803C96.7119,-230.724 106.723,-219.332 115.157,-209.735"/>
<polygon fill="midnightblue" stroke="midnightblue" points="86.0546,-237.55 82.0825,-247.372 91.3128,-242.17 86.0546,-237.55"/>
</g>
<!-- Node4&#45;&gt;Node2 -->
<g id="edge3" class="edge"><title>Node4&#45;&gt;Node2</title>
<path fill="none" stroke="orange" stroke-dasharray="5,2" d="M112.585,-159.715C101.331,-143.73 87.538,-124.141 77.4424,-109.802"/>
<polygon fill="orange" stroke="orange" points="109.918,-162.007 118.537,-168.168 115.642,-157.977 109.918,-162.007"/>
<text text-anchor="start" x="103.5" y="-142" font-family="Helvetica,sans-Serif" font-size="10.00"> &lt; Quattuordecuplet554,</text>
<text text-anchor="middle" x="156.5" y="-131" font-family="Helvetica,sans-Serif" font-size="10.00"> SignatureBranch &gt;</text>
</g>
</g>
</svg>
