<?xml version="1.0" encoding="UTF-8" standalone="no"?>
<!DOCTYPE svg PUBLIC "-//W3C//DTD SVG 1.1//EN"
 "http://www.w3.org/Graphics/SVG/1.1/DTD/svg11.dtd">
<!-- Generated by graphviz version 2.38.0 (20140413.2041)
 -->
<!-- Title: boca/standardmodel/AnalysisW.hh Pages: 1 -->
<svg width="2237pt" height="542pt"
 viewBox="0.00 0.00 2236.50 542.00" xmlns="http://www.w3.org/2000/svg" xmlns:xlink="http://www.w3.org/1999/xlink">
<g id="graph0" class="graph" transform="scale(1 1) rotate(0) translate(4 538)">
<title>boca/standardmodel/AnalysisW.hh</title>
<polygon fill="white" stroke="none" points="-4,4 -4,-538 2232.5,-538 2232.5,4 -4,4"/>
<!-- Node1 -->
<g id="node1" class="node"><title>Node1</title>
<polygon fill="#bfbfbf" stroke="black" points="842.5,-503.5 842.5,-533.5 946.5,-533.5 946.5,-503.5 842.5,-503.5"/>
<text text-anchor="start" x="850.5" y="-521.5" font-family="Helvetica,sans-Serif" font-size="10.00">boca/standardmodel</text>
<text text-anchor="middle" x="894.5" y="-510.5" font-family="Helvetica,sans-Serif" font-size="10.00">/AnalysisW.hh</text>
</g>
<!-- Node2 -->
<g id="node2" class="node"><title>Node2</title>
<g id="a_node2"><a xlink:href="../../df/d04/AnalysisStandardModel_8hh.html" target="_top" xlink:title="boca/standardmodel\l/AnalysisStandardModel.hh">
<polygon fill="white" stroke="black" points="575.5,-436.5 575.5,-466.5 711.5,-466.5 711.5,-436.5 575.5,-436.5"/>
<text text-anchor="start" x="583.5" y="-454.5" font-family="Helvetica,sans-Serif" font-size="10.00">boca/standardmodel</text>
<text text-anchor="middle" x="643.5" y="-443.5" font-family="Helvetica,sans-Serif" font-size="10.00">/AnalysisStandardModel.hh</text>
</a>
</g>
</g>
<!-- Node1&#45;&gt;Node2 -->
<g id="edge1" class="edge"><title>Node1&#45;&gt;Node2</title>
<path fill="none" stroke="midnightblue" d="M842.493,-504.032C803.277,-493.876 749.279,-479.893 707.426,-469.055"/>
<polygon fill="midnightblue" stroke="midnightblue" points="708.167,-465.631 697.608,-466.512 706.412,-472.407 708.167,-465.631"/>
</g>
<!-- Node37 -->
<g id="node37" class="node"><title>Node37</title>
<g id="a_node37"><a xlink:href="../../d0/d6d/tagger_2WHadronic_8hh.html" target="_top" xlink:title="boca/standardmodel\l/tagger/WHadronic.hh">
<polygon fill="white" stroke="black" points="1497.5,-369.5 1497.5,-399.5 1609.5,-399.5 1609.5,-369.5 1497.5,-369.5"/>
<text text-anchor="start" x="1505.5" y="-387.5" font-family="Helvetica,sans-Serif" font-size="10.00">boca/standardmodel</text>
<text text-anchor="middle" x="1553.5" y="-376.5" font-family="Helvetica,sans-Serif" font-size="10.00">/tagger/WHadronic.hh</text>
</a>
</g>
</g>
<!-- Node1&#45;&gt;Node37 -->
<g id="edge48" class="edge"><title>Node1&#45;&gt;Node37</title>
<path fill="none" stroke="midnightblue" d="M946.761,-507.032C1065.59,-483.23 1355.87,-425.085 1487.13,-398.795"/>
<polygon fill="midnightblue" stroke="midnightblue" points="1487.94,-402.202 1497.06,-396.806 1486.56,-395.338 1487.94,-402.202"/>
</g>
<!-- Node3 -->
<g id="node3" class="node"><title>Node3</title>
<g id="a_node3"><a xlink:href="../../d4/d12/boca_2analysis_2Analysis_8hh.html" target="_top" xlink:title="boca/analysis/Analysis.hh">
<polygon fill="white" stroke="black" points="578,-375 578,-394 709,-394 709,-375 578,-375"/>
<text text-anchor="middle" x="643.5" y="-382" font-family="Helvetica,sans-Serif" font-size="10.00">boca/analysis/Analysis.hh</text>
</a>
</g>
</g>
<!-- Node2&#45;&gt;Node3 -->
<g id="edge2" class="edge"><title>Node2&#45;&gt;Node3</title>
<path fill="none" stroke="midnightblue" d="M643.5,-436.396C643.5,-427.064 643.5,-414.714 643.5,-404.517"/>
<polygon fill="midnightblue" stroke="midnightblue" points="647,-404.195 643.5,-394.195 640,-404.195 647,-404.195"/>
</g>
<!-- Node32 -->
<g id="node32" class="node"><title>Node32</title>
<g id="a_node32"><a xlink:href="../../d2/ddc/Settings_8hh.html" target="_top" xlink:title="boca/Settings.hh">
<polygon fill="white" stroke="black" points="218.5,-174 218.5,-193 308.5,-193 308.5,-174 218.5,-174"/>
<text text-anchor="middle" x="263.5" y="-181" font-family="Helvetica,sans-Serif" font-size="10.00">boca/Settings.hh</text>
</a>
</g>
</g>
<!-- Node2&#45;&gt;Node32 -->
<g id="edge40" class="edge"><title>Node2&#45;&gt;Node32</title>
<path fill="none" stroke="midnightblue" d="M597.273,-436.492C542.322,-418.391 449.517,-383.135 381.5,-333 331.489,-296.137 291.1,-232.949 273.315,-202.263"/>
<polygon fill="midnightblue" stroke="midnightblue" points="276.146,-200.159 268.169,-193.187 270.057,-203.612 276.146,-200.159"/>
</g>
<!-- Node4 -->
<g id="node4" class="node"><title>Node4</title>
<polygon fill="white" stroke="#bfbfbf" points="390.5,-308 390.5,-327 434.5,-327 434.5,-308 390.5,-308"/>
<text text-anchor="middle" x="412.5" y="-315" font-family="Helvetica,sans-Serif" font-size="10.00">thread</text>
</g>
<!-- Node3&#45;&gt;Node4 -->
<g id="edge3" class="edge"><title>Node3&#45;&gt;Node4</title>
<path fill="none" stroke="midnightblue" d="M599.878,-374.99C558.88,-366.407 496.123,-351.758 443.5,-333 441.884,-332.424 440.238,-331.793 438.59,-331.128"/>
<polygon fill="midnightblue" stroke="midnightblue" points="439.876,-327.87 429.311,-327.072 437.072,-334.284 439.876,-327.87"/>
</g>
<!-- Node5 -->
<g id="node5" class="node"><title>Node5</title>
<g id="a_node5"><a xlink:href="../../d6/dd8/Types_8hh.html" target="_top" xlink:title="boca/generic/Types.hh">
<polygon fill="white" stroke="black" points="496.5,-174 496.5,-193 612.5,-193 612.5,-174 496.5,-174"/>
<text text-anchor="middle" x="554.5" y="-181" font-family="Helvetica,sans-Serif" font-size="10.00">boca/generic/Types.hh</text>
</a>
</g>
</g>
<!-- Node3&#45;&gt;Node5 -->
<g id="edge4" class="edge"><title>Node3&#45;&gt;Node5</title>
<path fill="none" stroke="midnightblue" d="M637.055,-374.854C623.339,-356.048 591.077,-309.606 573.5,-266 565.203,-245.417 560.043,-220.38 557.23,-203.533"/>
<polygon fill="midnightblue" stroke="midnightblue" points="560.64,-202.679 555.648,-193.334 553.722,-203.752 560.64,-202.679"/>
</g>
<!-- Node8 -->
<g id="node8" class="node"><title>Node8</title>
<g id="a_node8"><a xlink:href="../../d5/dd5/Io_8hh.html" target="_top" xlink:title="boca/io/Io.hh">
<polygon fill="white" stroke="black" points="453,-308 453,-327 526,-327 526,-308 453,-308"/>
<text text-anchor="middle" x="489.5" y="-315" font-family="Helvetica,sans-Serif" font-size="10.00">boca/io/Io.hh</text>
</a>
</g>
</g>
<!-- Node3&#45;&gt;Node8 -->
<g id="edge7" class="edge"><title>Node3&#45;&gt;Node8</title>
<path fill="none" stroke="midnightblue" d="M623.05,-374.869C596.472,-363.65 549.86,-343.977 519.334,-331.092"/>
<polygon fill="midnightblue" stroke="midnightblue" points="520.609,-327.831 510.035,-327.167 517.887,-334.28 520.609,-327.831"/>
</g>
<!-- Node9 -->
<g id="node9" class="node"><title>Node9</title>
<g id="a_node9"><a xlink:href="../../da/d1e/Plotting_8hh.html" target="_top" xlink:title="boca/plotting/Plotting.hh">
<polygon fill="white" stroke="black" points="582.5,-241 582.5,-260 704.5,-260 704.5,-241 582.5,-241"/>
<text text-anchor="middle" x="643.5" y="-248" font-family="Helvetica,sans-Serif" font-size="10.00">boca/plotting/Plotting.hh</text>
</a>
</g>
</g>
<!-- Node3&#45;&gt;Node9 -->
<g id="edge9" class="edge"><title>Node3&#45;&gt;Node9</title>
<path fill="none" stroke="midnightblue" d="M643.5,-374.839C643.5,-353.674 643.5,-298.948 643.5,-270.033"/>
<polygon fill="midnightblue" stroke="midnightblue" points="647,-270.021 643.5,-260.021 640,-270.021 647,-270.021"/>
</g>
<!-- Node15 -->
<g id="node15" class="node"><title>Node15</title>
<g id="a_node15"><a xlink:href="../../d2/d11/Third_8hh.html" target="_top" xlink:title="boca/analysis/Third.hh">
<polygon fill="white" stroke="black" points="943,-308 943,-327 1058,-327 1058,-308 943,-308"/>
<text text-anchor="middle" x="1000.5" y="-315" font-family="Helvetica,sans-Serif" font-size="10.00">boca/analysis/Third.hh</text>
</a>
</g>
</g>
<!-- Node3&#45;&gt;Node15 -->
<g id="edge17" class="edge"><title>Node3&#45;&gt;Node15</title>
<path fill="none" stroke="midnightblue" d="M690.539,-374.936C755.776,-363.058 873.582,-341.608 943.66,-328.849"/>
<polygon fill="midnightblue" stroke="midnightblue" points="944.43,-332.266 953.641,-327.032 943.176,-325.38 944.43,-332.266"/>
</g>
<!-- Node25 -->
<g id="node25" class="node"><title>Node25</title>
<g id="a_node25"><a xlink:href="../../d1/d43/boca_2Event_8hh.html" target="_top" xlink:title="boca/Event.hh">
<polygon fill="white" stroke="black" points="1682.5,-112.5 1682.5,-131.5 1762.5,-131.5 1762.5,-112.5 1682.5,-112.5"/>
<text text-anchor="middle" x="1722.5" y="-119.5" font-family="Helvetica,sans-Serif" font-size="10.00">boca/Event.hh</text>
</a>
</g>
</g>
<!-- Node3&#45;&gt;Node25 -->
<g id="edge39" class="edge"><title>Node3&#45;&gt;Node25</title>
<path fill="none" stroke="midnightblue" d="M709.047,-380.645C841.363,-373.28 1148.48,-348.041 1391.5,-266 1486.8,-233.827 1502.63,-206.63 1595.5,-168 1625.44,-155.548 1660.18,-143.389 1685.76,-134.855"/>
<polygon fill="midnightblue" stroke="midnightblue" points="1687.03,-138.121 1695.42,-131.656 1684.83,-131.475 1687.03,-138.121"/>
</g>
<!-- Node30 -->
<g id="node30" class="node"><title>Node30</title>
<g id="a_node30"><a xlink:href="../../d1/dcf/AnalysisBase_8hh.html" target="_top" xlink:title="boca/analysis/AnalysisBase.hh">
<polygon fill="white" stroke="black" points="631,-174 631,-193 784,-193 784,-174 631,-174"/>
<text text-anchor="middle" x="707.5" y="-181" font-family="Helvetica,sans-Serif" font-size="10.00">boca/analysis/AnalysisBase.hh</text>
</a>
</g>
</g>
<!-- Node3&#45;&gt;Node30 -->
<g id="edge35" class="edge"><title>Node3&#45;&gt;Node30</title>
<path fill="none" stroke="midnightblue" d="M650.962,-374.84C666.325,-356.369 701.084,-311.1 713.5,-266 719.252,-245.106 716.004,-220.13 712.448,-203.382"/>
<polygon fill="midnightblue" stroke="midnightblue" points="715.758,-202.174 710.044,-193.253 708.948,-203.791 715.758,-202.174"/>
</g>
<!-- Node6 -->
<g id="node6" class="node"><title>Node6</title>
<polygon fill="white" stroke="#bfbfbf" points="800,-0.5 800,-19.5 841,-19.5 841,-0.5 800,-0.5"/>
<text text-anchor="middle" x="820.5" y="-7.5" font-family="Helvetica,sans-Serif" font-size="10.00">string</text>
</g>
<!-- Node5&#45;&gt;Node6 -->
<g id="edge5" class="edge"><title>Node5&#45;&gt;Node6</title>
<path fill="none" stroke="midnightblue" d="M565.908,-173.996C584.152,-160.484 621.137,-133.446 653.5,-112 693.086,-85.7673 703.845,-80.543 744.5,-56 762.111,-45.3684 782.136,-33.5216 797.208,-24.6529"/>
<polygon fill="midnightblue" stroke="midnightblue" points="799.038,-27.6371 805.886,-19.5532 795.491,-21.6019 799.038,-27.6371"/>
</g>
<!-- Node7 -->
<g id="node7" class="node"><title>Node7</title>
<polygon fill="white" stroke="#bfbfbf" points="490.5,-112.5 490.5,-131.5 606.5,-131.5 606.5,-112.5 490.5,-112.5"/>
<text text-anchor="middle" x="548.5" y="-119.5" font-family="Helvetica,sans-Serif" font-size="10.00">boost/range/irange.hpp</text>
</g>
<!-- Node5&#45;&gt;Node7 -->
<g id="edge6" class="edge"><title>Node5&#45;&gt;Node7</title>
<path fill="none" stroke="midnightblue" d="M553.64,-173.975C552.794,-165.58 551.473,-152.481 550.382,-141.663"/>
<polygon fill="midnightblue" stroke="midnightblue" points="553.844,-141.107 549.358,-131.509 546.879,-141.81 553.844,-141.107"/>
</g>
<!-- Node8&#45;&gt;Node6 -->
<g id="edge8" class="edge"><title>Node8&#45;&gt;Node6</title>
<path fill="none" stroke="midnightblue" d="M472.211,-307.775C441.824,-291.334 379.764,-252.547 355.5,-199 339.541,-163.78 331.233,-142.104 355.5,-112 410.602,-43.645 694.775,-19.1709 789.634,-12.8331"/>
<polygon fill="midnightblue" stroke="midnightblue" points="789.981,-16.3181 799.734,-12.1796 789.529,-9.33266 789.981,-16.3181"/>
</g>
<!-- Node9&#45;&gt;Node5 -->
<g id="edge10" class="edge"><title>Node9&#45;&gt;Node5</title>
<path fill="none" stroke="midnightblue" d="M631.497,-240.734C616.951,-230.111 592.22,-212.049 574.716,-199.264"/>
<polygon fill="midnightblue" stroke="midnightblue" points="576.453,-196.199 566.313,-193.127 572.324,-201.852 576.453,-196.199"/>
</g>
<!-- Node10 -->
<g id="node10" class="node"><title>Node10</title>
<g id="a_node10"><a xlink:href="../../d1/df9/Vector3_8hh.html" target="_top" xlink:title="boca/math/Vector3.hh">
<polygon fill="white" stroke="red" points="365,-174 365,-193 478,-193 478,-174 365,-174"/>
<text text-anchor="middle" x="421.5" y="-181" font-family="Helvetica,sans-Serif" font-size="10.00">boca/math/Vector3.hh</text>
</a>
</g>
</g>
<!-- Node9&#45;&gt;Node10 -->
<g id="edge11" class="edge"><title>Node9&#45;&gt;Node10</title>
<path fill="none" stroke="midnightblue" d="M614.02,-240.869C574.519,-229.303 504.319,-208.749 460.485,-195.914"/>
<polygon fill="midnightblue" stroke="midnightblue" points="461.329,-192.515 450.748,-193.064 459.362,-199.233 461.329,-192.515"/>
</g>
<!-- Node11 -->
<g id="node11" class="node"><title>Node11</title>
<g id="a_node11"><a xlink:href="../../d8/d4d/PlottingBase_8hh.html" target="_top" xlink:title="boca/plotting/PlottingBase.hh">
<polygon fill="white" stroke="red" points="840.5,-174 840.5,-193 984.5,-193 984.5,-174 840.5,-174"/>
<text text-anchor="middle" x="912.5" y="-181" font-family="Helvetica,sans-Serif" font-size="10.00">boca/plotting/PlottingBase.hh</text>
</a>
</g>
</g>
<!-- Node9&#45;&gt;Node11 -->
<g id="edge12" class="edge"><title>Node9&#45;&gt;Node11</title>
<path fill="none" stroke="midnightblue" d="M678.944,-240.936C727.328,-229.244 814.088,-208.28 867.156,-195.457"/>
<polygon fill="midnightblue" stroke="midnightblue" points="868.08,-198.834 876.978,-193.083 866.435,-192.03 868.08,-198.834"/>
</g>
<!-- Node14 -->
<g id="node14" class="node"><title>Node14</title>
<g id="a_node14"><a xlink:href="../../dd/d17/boca_2Observables_8hh.html" target="_top" xlink:title="boca/Observables.hh">
<polygon fill="white" stroke="red" points="1143,-112.5 1143,-131.5 1252,-131.5 1252,-112.5 1143,-112.5"/>
<text text-anchor="middle" x="1197.5" y="-119.5" font-family="Helvetica,sans-Serif" font-size="10.00">boca/Observables.hh</text>
</a>
</g>
</g>
<!-- Node9&#45;&gt;Node14 -->
<g id="edge16" class="edge"><title>Node9&#45;&gt;Node14</title>
<path fill="none" stroke="midnightblue" d="M704.622,-247.899C815.831,-244.186 1046.43,-232.577 1118.5,-199 1146.71,-185.859 1171.11,-158.503 1185.06,-140.45"/>
<polygon fill="midnightblue" stroke="midnightblue" points="1188.2,-142.092 1191.37,-131.982 1182.59,-137.91 1188.2,-142.092"/>
</g>
<!-- Node12 -->
<g id="node12" class="node"><title>Node12</title>
<g id="a_node12"><a xlink:href="../../df/d31/Phase_8hh.html" target="_top" xlink:title="boca/multivariant/Phase.hh">
<polygon fill="white" stroke="red" points="913,-112.5 913,-131.5 1048,-131.5 1048,-112.5 913,-112.5"/>
<text text-anchor="middle" x="980.5" y="-119.5" font-family="Helvetica,sans-Serif" font-size="10.00">boca/multivariant/Phase.hh</text>
</a>
</g>
</g>
<!-- Node11&#45;&gt;Node12 -->
<g id="edge13" class="edge"><title>Node11&#45;&gt;Node12</title>
<path fill="none" stroke="midnightblue" d="M922.243,-173.975C932.847,-164.697 950.019,-149.671 962.979,-138.331"/>
<polygon fill="midnightblue" stroke="midnightblue" points="965.554,-140.728 970.775,-131.509 960.945,-135.46 965.554,-140.728"/>
</g>
<!-- Node13 -->
<g id="node13" class="node"><title>Node13</title>
<g id="a_node13"><a xlink:href="../../da/df8/Stage_8hh.html" target="_top" xlink:title="boca/multivariant/Stage.hh">
<polygon fill="white" stroke="black" points="754,-56.5 754,-75.5 887,-75.5 887,-56.5 754,-56.5"/>
<text text-anchor="middle" x="820.5" y="-63.5" font-family="Helvetica,sans-Serif" font-size="10.00">boca/multivariant/Stage.hh</text>
</a>
</g>
</g>
<!-- Node12&#45;&gt;Node13 -->
<g id="edge14" class="edge"><title>Node12&#45;&gt;Node13</title>
<path fill="none" stroke="midnightblue" d="M955.148,-112.444C928.231,-103.359 885.504,-88.9388 855.413,-78.7831"/>
<polygon fill="midnightblue" stroke="midnightblue" points="856.328,-75.3981 845.734,-75.5164 854.09,-82.0305 856.328,-75.3981"/>
</g>
<!-- Node13&#45;&gt;Node6 -->
<g id="edge15" class="edge"><title>Node13&#45;&gt;Node6</title>
<path fill="none" stroke="midnightblue" d="M820.5,-56.083C820.5,-49.0059 820.5,-38.8611 820.5,-29.9865"/>
<polygon fill="midnightblue" stroke="midnightblue" points="824,-29.751 820.5,-19.7511 817,-29.7511 824,-29.751"/>
</g>
<!-- Node16 -->
<g id="node16" class="node"><title>Node16</title>
<g id="a_node16"><a xlink:href="../../de/d21/BranchWriter_8hh.html" target="_top" xlink:title="boca/analysis/BranchWriter.hh">
<polygon fill="white" stroke="red" points="1232.5,-241 1232.5,-260 1382.5,-260 1382.5,-241 1232.5,-241"/>
<text text-anchor="middle" x="1307.5" y="-248" font-family="Helvetica,sans-Serif" font-size="10.00">boca/analysis/BranchWriter.hh</text>
</a>
</g>
</g>
<!-- Node15&#45;&gt;Node16 -->
<g id="edge18" class="edge"><title>Node15&#45;&gt;Node16</title>
<path fill="none" stroke="midnightblue" d="M1040.95,-307.936C1096.51,-296.171 1196.42,-275.018 1256.88,-262.218"/>
<polygon fill="midnightblue" stroke="midnightblue" points="1257.9,-265.579 1266.96,-260.083 1256.45,-258.731 1257.9,-265.579"/>
</g>
<!-- Node17 -->
<g id="node17" class="node"><title>Node17</title>
<g id="a_node17"><a xlink:href="../../df/d2c/Reader_8hh.html" target="_top" xlink:title="boca/multivariant/Reader.hh">
<polygon fill="white" stroke="black" points="1378,-174 1378,-193 1517,-193 1517,-174 1378,-174"/>
<text text-anchor="middle" x="1447.5" y="-181" font-family="Helvetica,sans-Serif" font-size="10.00">boca/multivariant/Reader.hh</text>
</a>
</g>
</g>
<!-- Node16&#45;&gt;Node17 -->
<g id="edge19" class="edge"><title>Node16&#45;&gt;Node17</title>
<path fill="none" stroke="midnightblue" d="M1326.09,-240.869C1350.04,-229.748 1391.89,-210.317 1419.65,-197.429"/>
<polygon fill="midnightblue" stroke="midnightblue" points="1421.24,-200.553 1428.83,-193.167 1418.29,-194.204 1421.24,-200.553"/>
</g>
<!-- Node29 -->
<g id="node29" class="node"><title>Node29</title>
<g id="a_node29"><a xlink:href="../../d8/de8/Debug_8hh.html" target="_top" xlink:title="boca/generic/Debug.hh">
<polygon fill="white" stroke="red" points="1243,-174 1243,-193 1360,-193 1360,-174 1243,-174"/>
<text text-anchor="middle" x="1301.5" y="-181" font-family="Helvetica,sans-Serif" font-size="10.00">boca/generic/Debug.hh</text>
</a>
</g>
</g>
<!-- Node16&#45;&gt;Node29 -->
<g id="edge33" class="edge"><title>Node16&#45;&gt;Node29</title>
<path fill="none" stroke="midnightblue" d="M1306.69,-240.734C1305.81,-231.183 1304.37,-215.618 1303.23,-203.283"/>
<polygon fill="midnightblue" stroke="midnightblue" points="1306.7,-202.763 1302.3,-193.127 1299.73,-203.407 1306.7,-202.763"/>
</g>
<!-- Node17&#45;&gt;Node12 -->
<g id="edge26" class="edge"><title>Node17&#45;&gt;Node12</title>
<path fill="none" stroke="midnightblue" d="M1403.71,-173.93C1392.27,-171.839 1379.95,-169.712 1368.5,-168 1261.47,-151.989 1137.1,-138.453 1058.61,-130.528"/>
<polygon fill="midnightblue" stroke="midnightblue" points="1058.62,-127.011 1048.32,-129.495 1057.92,-133.976 1058.62,-127.011"/>
</g>
<!-- Node18 -->
<g id="node18" class="node"><title>Node18</title>
<polygon fill="white" stroke="#bfbfbf" points="1577,-112.5 1577,-131.5 1664,-131.5 1664,-112.5 1577,-112.5"/>
<text text-anchor="middle" x="1620.5" y="-119.5" font-family="Helvetica,sans-Serif" font-size="10.00">TMVA/Reader.h</text>
</g>
<!-- Node17&#45;&gt;Node18 -->
<g id="edge20" class="edge"><title>Node17&#45;&gt;Node18</title>
<path fill="none" stroke="midnightblue" d="M1472.29,-173.975C1502.09,-163.725 1552.29,-146.459 1585.9,-134.899"/>
<polygon fill="midnightblue" stroke="midnightblue" points="1587.44,-138.071 1595.76,-131.509 1585.16,-131.452 1587.44,-138.071"/>
</g>
<!-- Node19 -->
<g id="node19" class="node"><title>Node19</title>
<g id="a_node19"><a xlink:href="../../dc/d76/Options_8hh.html" target="_top" xlink:title="boca/generic/Options.hh">
<polygon fill="white" stroke="red" points="1436.5,-112.5 1436.5,-131.5 1558.5,-131.5 1558.5,-112.5 1436.5,-112.5"/>
<text text-anchor="middle" x="1497.5" y="-119.5" font-family="Helvetica,sans-Serif" font-size="10.00">boca/generic/Options.hh</text>
</a>
</g>
</g>
<!-- Node17&#45;&gt;Node19 -->
<g id="edge21" class="edge"><title>Node17&#45;&gt;Node19</title>
<path fill="none" stroke="midnightblue" d="M1454.66,-173.975C1462.24,-164.962 1474.37,-150.525 1483.79,-139.312"/>
<polygon fill="midnightblue" stroke="midnightblue" points="1486.6,-141.417 1490.35,-131.509 1481.24,-136.913 1486.6,-141.417"/>
</g>
<!-- Node20 -->
<g id="node20" class="node"><title>Node20</title>
<g id="a_node20"><a xlink:href="../../dc/d65/TreeWriter_8hh.html" target="_top" xlink:title="boca/io/TreeWriter.hh">
<polygon fill="white" stroke="red" points="1308.5,-112.5 1308.5,-131.5 1418.5,-131.5 1418.5,-112.5 1308.5,-112.5"/>
<text text-anchor="middle" x="1363.5" y="-119.5" font-family="Helvetica,sans-Serif" font-size="10.00">boca/io/TreeWriter.hh</text>
</a>
</g>
</g>
<!-- Node17&#45;&gt;Node20 -->
<g id="edge22" class="edge"><title>Node17&#45;&gt;Node20</title>
<path fill="none" stroke="midnightblue" d="M1435.46,-173.975C1421.99,-164.431 1399.93,-148.807 1383.78,-137.368"/>
<polygon fill="midnightblue" stroke="midnightblue" points="1385.7,-134.433 1375.51,-131.509 1381.65,-140.145 1385.7,-134.433"/>
</g>
<!-- Node22 -->
<g id="node22" class="node"><title>Node22</title>
<g id="a_node22"><a xlink:href="../../db/d31/Sort_8hh.html" target="_top" xlink:title="boca/multiplets/Sort.hh">
<polygon fill="white" stroke="red" points="1781,-112.5 1781,-131.5 1898,-131.5 1898,-112.5 1781,-112.5"/>
<text text-anchor="middle" x="1839.5" y="-119.5" font-family="Helvetica,sans-Serif" font-size="10.00">boca/multiplets/Sort.hh</text>
</a>
</g>
</g>
<!-- Node17&#45;&gt;Node22 -->
<g id="edge25" class="edge"><title>Node17&#45;&gt;Node22</title>
<path fill="none" stroke="midnightblue" d="M1503.66,-173.975C1574.98,-163.15 1697.84,-144.502 1773.54,-133.012"/>
<polygon fill="midnightblue" stroke="midnightblue" points="1774.08,-136.47 1783.44,-131.509 1773.03,-129.549 1774.08,-136.47"/>
</g>
<!-- Node23 -->
<g id="node23" class="node"><title>Node23</title>
<g id="a_node23"><a xlink:href="../../da/d59/PreCuts_8hh.html" target="_top" xlink:title="boca/PreCuts.hh">
<polygon fill="white" stroke="red" points="804.5,-112.5 804.5,-131.5 894.5,-131.5 894.5,-112.5 804.5,-112.5"/>
<text text-anchor="middle" x="849.5" y="-119.5" font-family="Helvetica,sans-Serif" font-size="10.00">boca/PreCuts.hh</text>
</a>
</g>
</g>
<!-- Node17&#45;&gt;Node23 -->
<g id="edge27" class="edge"><title>Node17&#45;&gt;Node23</title>
<path fill="none" stroke="midnightblue" d="M1405.4,-173.932C1393.51,-171.741 1380.53,-169.565 1368.5,-168 1166.16,-141.671 1110.98,-156.579 904.487,-132.011"/>
<polygon fill="midnightblue" stroke="midnightblue" points="904.886,-128.533 894.538,-130.81 904.047,-135.483 904.886,-128.533"/>
</g>
<!-- Node17&#45;&gt;Node25 -->
<g id="edge29" class="edge"><title>Node17&#45;&gt;Node25</title>
<path fill="none" stroke="midnightblue" d="M1486.9,-173.975C1536.01,-163.349 1619.97,-145.185 1673.27,-133.652"/>
<polygon fill="midnightblue" stroke="midnightblue" points="1674.14,-137.045 1683.17,-131.509 1672.66,-130.203 1674.14,-137.045"/>
</g>
<!-- Node21 -->
<g id="node21" class="node"><title>Node21</title>
<g id="a_node21"><a xlink:href="../../d8/d9e/TreeBranch_8hh.html" target="_top" xlink:title="boca/io/TreeBranch.hh">
<polygon fill="white" stroke="red" points="1307,-56.5 1307,-75.5 1422,-75.5 1422,-56.5 1307,-56.5"/>
<text text-anchor="middle" x="1364.5" y="-63.5" font-family="Helvetica,sans-Serif" font-size="10.00">boca/io/TreeBranch.hh</text>
</a>
</g>
</g>
<!-- Node20&#45;&gt;Node21 -->
<g id="edge23" class="edge"><title>Node20&#45;&gt;Node21</title>
<path fill="none" stroke="midnightblue" d="M1363.67,-112.083C1363.8,-105.006 1363.98,-94.8611 1364.15,-85.9865"/>
<polygon fill="midnightblue" stroke="midnightblue" points="1367.65,-85.8142 1364.34,-75.7511 1360.65,-85.6845 1367.65,-85.8142"/>
</g>
<!-- Node21&#45;&gt;Node6 -->
<g id="edge24" class="edge"><title>Node21&#45;&gt;Node6</title>
<path fill="none" stroke="midnightblue" d="M1306.75,-57.63C1301.93,-57.0611 1297.13,-56.5103 1292.5,-56 1126.39,-37.7037 926.901,-20.1261 851.441,-13.6338"/>
<polygon fill="midnightblue" stroke="midnightblue" points="851.488,-10.1251 841.226,-12.7575 850.89,-17.0995 851.488,-10.1251"/>
</g>
<!-- Node24 -->
<g id="node24" class="node"><title>Node24</title>
<g id="a_node24"><a xlink:href="../../d6/dcd/Range_8hh.html" target="_top" xlink:title="boca/physics/Range.hh">
<polygon fill="white" stroke="red" points="244,-56.5 244,-75.5 363,-75.5 363,-56.5 244,-56.5"/>
<text text-anchor="middle" x="303.5" y="-63.5" font-family="Helvetica,sans-Serif" font-size="10.00">boca/physics/Range.hh</text>
</a>
</g>
</g>
<!-- Node23&#45;&gt;Node24 -->
<g id="edge28" class="edge"><title>Node23&#45;&gt;Node24</title>
<path fill="none" stroke="midnightblue" d="M804.354,-116.535C709.117,-107.116 487.086,-85.1568 373.358,-73.909"/>
<polygon fill="midnightblue" stroke="midnightblue" points="373.659,-70.4218 363.363,-72.9205 372.97,-77.3878 373.659,-70.4218"/>
</g>
<!-- Node26 -->
<g id="node26" class="node"><title>Node26</title>
<g id="a_node26"><a xlink:href="../../d0/d5f/Flag_8hh.html" target="_top" xlink:title="boca/generic/Flag.hh">
<polygon fill="white" stroke="red" points="1095,-56.5 1095,-75.5 1202,-75.5 1202,-56.5 1095,-56.5"/>
<text text-anchor="middle" x="1148.5" y="-63.5" font-family="Helvetica,sans-Serif" font-size="10.00">boca/generic/Flag.hh</text>
</a>
</g>
</g>
<!-- Node25&#45;&gt;Node26 -->
<g id="edge30" class="edge"><title>Node25&#45;&gt;Node26</title>
<path fill="none" stroke="midnightblue" d="M1682.43,-113.452C1679.08,-112.922 1675.74,-112.429 1672.5,-112 1507.28,-90.0829 1311.26,-76.542 1212.36,-70.5755"/>
<polygon fill="midnightblue" stroke="midnightblue" points="1212.43,-67.0731 1202.24,-69.9705 1212.01,-74.0607 1212.43,-67.0731"/>
</g>
<!-- Node27 -->
<g id="node27" class="node"><title>Node27</title>
<g id="a_node27"><a xlink:href="../../dd/df7/Jet_8hh.html" target="_top" xlink:title="boca/multiplets/Jet.hh">
<polygon fill="white" stroke="red" points="1870,-56.5 1870,-75.5 1983,-75.5 1983,-56.5 1870,-56.5"/>
<text text-anchor="middle" x="1926.5" y="-63.5" font-family="Helvetica,sans-Serif" font-size="10.00">boca/multiplets/Jet.hh</text>
</a>
</g>
</g>
<!-- Node25&#45;&gt;Node27 -->
<g id="edge31" class="edge"><title>Node25&#45;&gt;Node27</title>
<path fill="none" stroke="midnightblue" d="M1754.82,-112.444C1789.89,-103.162 1846,-88.3093 1884.46,-78.127"/>
<polygon fill="midnightblue" stroke="midnightblue" points="1885.56,-81.4589 1894.33,-75.5164 1883.76,-74.692 1885.56,-81.4589"/>
</g>
<!-- Node28 -->
<g id="node28" class="node"><title>Node28</title>
<g id="a_node28"><a xlink:href="../../d1/d9b/multiplets_2Particle_8hh.html" target="_top" xlink:title="boca/multiplets/Particle.hh">
<polygon fill="white" stroke="red" points="1656.5,-56.5 1656.5,-75.5 1788.5,-75.5 1788.5,-56.5 1656.5,-56.5"/>
<text text-anchor="middle" x="1722.5" y="-63.5" font-family="Helvetica,sans-Serif" font-size="10.00">boca/multiplets/Particle.hh</text>
</a>
</g>
</g>
<!-- Node25&#45;&gt;Node28 -->
<g id="edge32" class="edge"><title>Node25&#45;&gt;Node28</title>
<path fill="none" stroke="midnightblue" d="M1722.5,-112.083C1722.5,-105.006 1722.5,-94.8611 1722.5,-85.9865"/>
<polygon fill="midnightblue" stroke="midnightblue" points="1726,-85.751 1722.5,-75.7511 1719,-85.7511 1726,-85.751"/>
</g>
<!-- Node29&#45;&gt;Node6 -->
<g id="edge34" class="edge"><title>Node29&#45;&gt;Node6</title>
<path fill="none" stroke="midnightblue" d="M1298.5,-173.906C1289.58,-149.873 1260.69,-82.0305 1210.5,-56 1147.96,-23.5684 932.123,-14.1713 851.341,-11.7552"/>
<polygon fill="midnightblue" stroke="midnightblue" points="851.398,-8.25554 841.303,-11.4706 851.2,-15.2527 851.398,-8.25554"/>
</g>
<!-- Node30&#45;&gt;Node13 -->
<g id="edge36" class="edge"><title>Node30&#45;&gt;Node13</title>
<path fill="none" stroke="midnightblue" d="M716.021,-173.949C725.995,-163.928 742.995,-146.807 757.5,-132 773.711,-115.452 792.141,-96.4097 804.86,-83.2324"/>
<polygon fill="midnightblue" stroke="midnightblue" points="807.547,-85.4878 811.97,-75.8603 802.509,-80.6283 807.547,-85.4878"/>
</g>
<!-- Node30&#45;&gt;Node23 -->
<g id="edge37" class="edge"><title>Node30&#45;&gt;Node23</title>
<path fill="none" stroke="midnightblue" d="M727.845,-173.975C751.887,-163.901 792.097,-147.053 819.663,-135.502"/>
<polygon fill="midnightblue" stroke="midnightblue" points="821.322,-138.602 829.193,-131.509 818.617,-132.146 821.322,-138.602"/>
</g>
<!-- Node31 -->
<g id="node31" class="node"><title>Node31</title>
<g id="a_node31"><a xlink:href="../../d1/d9b/Names_8hh.html" target="_top" xlink:title="boca/Names.hh">
<polygon fill="white" stroke="red" points="662.5,-112.5 662.5,-131.5 748.5,-131.5 748.5,-112.5 662.5,-112.5"/>
<text text-anchor="middle" x="705.5" y="-119.5" font-family="Helvetica,sans-Serif" font-size="10.00">boca/Names.hh</text>
</a>
</g>
</g>
<!-- Node30&#45;&gt;Node31 -->
<g id="edge38" class="edge"><title>Node30&#45;&gt;Node31</title>
<path fill="none" stroke="midnightblue" d="M707.213,-173.975C706.931,-165.58 706.491,-152.481 706.127,-141.663"/>
<polygon fill="midnightblue" stroke="midnightblue" points="709.62,-141.386 705.786,-131.509 702.624,-141.621 709.62,-141.386"/>
</g>
<!-- Node32&#45;&gt;Node24 -->
<g id="edge43" class="edge"><title>Node32&#45;&gt;Node24</title>
<path fill="none" stroke="midnightblue" d="M266.507,-173.819C272.993,-155.09 288.419,-110.546 297.165,-85.2924"/>
<polygon fill="midnightblue" stroke="midnightblue" points="300.493,-86.3768 300.459,-75.782 293.879,-84.086 300.493,-86.3768"/>
</g>
<!-- Node33 -->
<g id="node33" class="node"><title>Node33</title>
<g id="a_node33"><a xlink:href="../../df/de2/InfoRecombiner_8hh.html" target="_top" xlink:title="boca/fastjet/InfoRecombiner.hh">
<polygon fill="white" stroke="black" points="0,-112.5 0,-131.5 153,-131.5 153,-112.5 0,-112.5"/>
<text text-anchor="middle" x="76.5" y="-119.5" font-family="Helvetica,sans-Serif" font-size="10.00">boca/fastjet/InfoRecombiner.hh</text>
</a>
</g>
</g>
<!-- Node32&#45;&gt;Node33 -->
<g id="edge41" class="edge"><title>Node32&#45;&gt;Node33</title>
<path fill="none" stroke="midnightblue" d="M236.707,-173.975C204.214,-163.636 149.292,-146.161 112.962,-134.602"/>
<polygon fill="midnightblue" stroke="midnightblue" points="113.833,-131.206 103.243,-131.509 111.711,-137.876 113.833,-131.206"/>
</g>
<!-- Node35 -->
<g id="node35" class="node"><title>Node35</title>
<g id="a_node35"><a xlink:href="../../d5/d48/Souce_8hh.html" target="_top" xlink:title="boca/io/Souce.hh">
<polygon fill="white" stroke="black" points="133.5,-56.5 133.5,-75.5 225.5,-75.5 225.5,-56.5 133.5,-56.5"/>
<text text-anchor="middle" x="179.5" y="-63.5" font-family="Helvetica,sans-Serif" font-size="10.00">boca/io/Souce.hh</text>
</a>
</g>
</g>
<!-- Node32&#45;&gt;Node35 -->
<g id="edge44" class="edge"><title>Node32&#45;&gt;Node35</title>
<path fill="none" stroke="midnightblue" d="M257.186,-173.819C243.322,-154.755 210.007,-108.947 191.833,-83.9582"/>
<polygon fill="midnightblue" stroke="midnightblue" points="194.599,-81.8108 185.887,-75.782 188.938,-85.928 194.599,-81.8108"/>
</g>
<!-- Node36 -->
<g id="node36" class="node"><title>Node36</title>
<g id="a_node36"><a xlink:href="../../da/dc5/Font_8hh.html" target="_top" xlink:title="boca/plotting/Font.hh">
<polygon fill="white" stroke="black" points="364.5,-112.5 364.5,-131.5 472.5,-131.5 472.5,-112.5 364.5,-112.5"/>
<text text-anchor="middle" x="418.5" y="-119.5" font-family="Helvetica,sans-Serif" font-size="10.00">boca/plotting/Font.hh</text>
</a>
</g>
</g>
<!-- Node32&#45;&gt;Node36 -->
<g id="edge46" class="edge"><title>Node32&#45;&gt;Node36</title>
<path fill="none" stroke="midnightblue" d="M285.708,-173.975C312.181,-163.813 356.614,-146.756 386.72,-135.2"/>
<polygon fill="midnightblue" stroke="midnightblue" points="388.252,-138.36 396.333,-131.509 385.743,-131.825 388.252,-138.36"/>
</g>
<!-- Node34 -->
<g id="node34" class="node"><title>Node34</title>
<polygon fill="white" stroke="#bfbfbf" points="0,-56.5 0,-75.5 115,-75.5 115,-56.5 0,-56.5"/>
<text text-anchor="middle" x="57.5" y="-63.5" font-family="Helvetica,sans-Serif" font-size="10.00">fastjet/JetDefinition.hh</text>
</g>
<!-- Node33&#45;&gt;Node34 -->
<g id="edge42" class="edge"><title>Node33&#45;&gt;Node34</title>
<path fill="none" stroke="midnightblue" d="M73.3625,-112.083C70.8171,-104.849 67.1438,-94.4087 63.9729,-85.3968"/>
<polygon fill="midnightblue" stroke="midnightblue" points="67.1998,-84.0225 60.5791,-75.7511 60.5966,-86.3459 67.1998,-84.0225"/>
</g>
<!-- Node35&#45;&gt;Node6 -->
<g id="edge45" class="edge"><title>Node35&#45;&gt;Node6</title>
<path fill="none" stroke="midnightblue" d="M225.673,-57.1504C228.656,-56.7342 231.618,-56.3458 234.5,-56 446.268,-30.5898 702.904,-16.6735 789.946,-12.4224"/>
<polygon fill="midnightblue" stroke="midnightblue" points="790.117,-15.9184 799.937,-11.9408 789.78,-8.92648 790.117,-15.9184"/>
</g>
<!-- Node36&#45;&gt;Node26 -->
<g id="edge47" class="edge"><title>Node36&#45;&gt;Node26</title>
<path fill="none" stroke="midnightblue" d="M472.763,-112.978C475.716,-112.626 478.643,-112.296 481.5,-112 726.924,-86.5339 789.401,-93.7954 1035.5,-76 1051.36,-74.8531 1068.47,-73.5336 1084.45,-72.2648"/>
<polygon fill="midnightblue" stroke="midnightblue" points="1085.08,-75.7258 1094.77,-71.4405 1084.52,-68.748 1085.08,-75.7258"/>
</g>
<!-- Node37&#45;&gt;Node17 -->
<g id="edge63" class="edge"><title>Node37&#45;&gt;Node17</title>
<path fill="none" stroke="midnightblue" d="M1521.31,-369.453C1505.76,-361.06 1488.19,-348.908 1477.5,-333 1450.43,-292.724 1446.79,-233.365 1446.88,-203.353"/>
<polygon fill="midnightblue" stroke="midnightblue" points="1450.38,-203.126 1447.06,-193.065 1443.38,-203.001 1450.38,-203.126"/>
</g>
<!-- Node38 -->
<g id="node38" class="node"><title>Node38</title>
<polygon fill="white" stroke="#bfbfbf" points="2022,-308 2022,-327 2081,-327 2081,-308 2022,-308"/>
<text text-anchor="middle" x="2051.5" y="-315" font-family="Helvetica,sans-Serif" font-size="10.00">functional</text>
</g>
<!-- Node37&#45;&gt;Node38 -->
<g id="edge49" class="edge"><title>Node37&#45;&gt;Node38</title>
<path fill="none" stroke="midnightblue" d="M1609.72,-381.763C1697.01,-378.075 1869.94,-366.795 2012.5,-333 2015.5,-332.29 2018.58,-331.414 2021.63,-330.448"/>
<polygon fill="midnightblue" stroke="midnightblue" points="2022.85,-333.729 2031.15,-327.143 2020.55,-327.116 2022.85,-333.729"/>
</g>
<!-- Node39 -->
<g id="node39" class="node"><title>Node39</title>
<g id="a_node39"><a xlink:href="../../d4/dee/boca_2tagger_2Tagger_8hh.html" target="_top" xlink:title="boca/tagger/Tagger.hh">
<polygon fill="white" stroke="black" points="1100.5,-241 1100.5,-260 1214.5,-260 1214.5,-241 1100.5,-241"/>
<text text-anchor="middle" x="1157.5" y="-248" font-family="Helvetica,sans-Serif" font-size="10.00">boca/tagger/Tagger.hh</text>
</a>
</g>
</g>
<!-- Node37&#45;&gt;Node39 -->
<g id="edge50" class="edge"><title>Node37&#45;&gt;Node39</title>
<path fill="none" stroke="midnightblue" d="M1511.5,-369.499C1433.17,-343.39 1266.15,-287.716 1193.03,-263.342"/>
<polygon fill="midnightblue" stroke="midnightblue" points="1193.95,-259.959 1183.35,-260.117 1191.73,-266.6 1193.95,-259.959"/>
</g>
<!-- Node42 -->
<g id="node42" class="node"><title>Node42</title>
<g id="a_node42"><a xlink:href="../../df/d3a/Doublet_8hh.html" target="_top" xlink:title="boca/multiplets/Doublet.hh">
<polygon fill="white" stroke="black" points="1487,-308 1487,-327 1620,-327 1620,-308 1487,-308"/>
<text text-anchor="middle" x="1553.5" y="-315" font-family="Helvetica,sans-Serif" font-size="10.00">boca/multiplets/Doublet.hh</text>
</a>
</g>
</g>
<!-- Node37&#45;&gt;Node42 -->
<g id="edge60" class="edge"><title>Node37&#45;&gt;Node42</title>
<path fill="none" stroke="midnightblue" d="M1553.5,-369.396C1553.5,-360.064 1553.5,-347.714 1553.5,-337.517"/>
<polygon fill="midnightblue" stroke="midnightblue" points="1557,-337.195 1553.5,-327.195 1550,-337.195 1557,-337.195"/>
</g>
<!-- Node44 -->
<g id="node44" class="node"><title>Node44</title>
<g id="a_node44"><a xlink:href="../../db/d40/tagger_2Bottom_8hh.html" target="_top" xlink:title="boca/standardmodel\l/tagger/Bottom.hh">
<polygon fill="white" stroke="black" points="1641.5,-302.5 1641.5,-332.5 1745.5,-332.5 1745.5,-302.5 1641.5,-302.5"/>
<text text-anchor="start" x="1649.5" y="-320.5" font-family="Helvetica,sans-Serif" font-size="10.00">boca/standardmodel</text>
<text text-anchor="middle" x="1693.5" y="-309.5" font-family="Helvetica,sans-Serif" font-size="10.00">/tagger/Bottom.hh</text>
</a>
</g>
</g>
<!-- Node37&#45;&gt;Node44 -->
<g id="edge64" class="edge"><title>Node37&#45;&gt;Node44</title>
<path fill="none" stroke="midnightblue" d="M1583.88,-369.396C1604.43,-359.856 1631.76,-347.163 1654,-336.84"/>
<polygon fill="midnightblue" stroke="midnightblue" points="1655.59,-339.962 1663.18,-332.577 1652.64,-333.613 1655.59,-339.962"/>
</g>
<!-- Node49 -->
<g id="node49" class="node"><title>Node49</title>
<g id="a_node49"><a xlink:href="../../da/df1/branch_2WHadronic_8hh.html" target="_top" xlink:title="boca/standardmodel\l/branch/WHadronic.hh">
<polygon fill="white" stroke="black" points="1889.5,-302.5 1889.5,-332.5 2003.5,-332.5 2003.5,-302.5 1889.5,-302.5"/>
<text text-anchor="start" x="1897.5" y="-320.5" font-family="Helvetica,sans-Serif" font-size="10.00">boca/standardmodel</text>
<text text-anchor="middle" x="1946.5" y="-309.5" font-family="Helvetica,sans-Serif" font-size="10.00">/branch/WHadronic.hh</text>
</a>
</g>
</g>
<!-- Node37&#45;&gt;Node49 -->
<g id="edge73" class="edge"><title>Node37&#45;&gt;Node49</title>
<path fill="none" stroke="midnightblue" d="M1609.81,-374.187C1681,-362.412 1803.43,-342.163 1879.4,-329.598"/>
<polygon fill="midnightblue" stroke="midnightblue" points="1880.04,-333.039 1889.34,-327.954 1878.9,-326.133 1880.04,-333.039"/>
</g>
<!-- Node39&#45;&gt;Node5 -->
<g id="edge51" class="edge"><title>Node39&#45;&gt;Node5</title>
<path fill="none" stroke="midnightblue" d="M1100.11,-246.345C1001.72,-240.433 794.69,-225.802 621.5,-199 614.625,-197.936 607.397,-196.602 600.335,-195.177"/>
<polygon fill="midnightblue" stroke="midnightblue" points="600.673,-191.672 590.167,-193.044 599.236,-198.523 600.673,-191.672"/>
</g>
<!-- Node39&#45;&gt;Node21 -->
<g id="edge53" class="edge"><title>Node39&#45;&gt;Node21</title>
<path fill="none" stroke="midnightblue" d="M1156.1,-240.899C1153.63,-225.996 1148.23,-194.433 1142.5,-168 1139.01,-151.882 1135.52,-148.369 1133.5,-132 1132.41,-123.178 1127.85,-118.86 1133.5,-112 1153.89,-87.2594 1236.08,-75.9413 1296.64,-70.8864"/>
<polygon fill="midnightblue" stroke="midnightblue" points="1297.23,-74.351 1306.92,-70.0706 1296.67,-67.3729 1297.23,-74.351"/>
</g>
<!-- Node39&#45;&gt;Node22 -->
<g id="edge52" class="edge"><title>Node39&#45;&gt;Node22</title>
<path fill="none" stroke="midnightblue" d="M1193.34,-240.959C1203.09,-238.819 1213.67,-236.662 1223.5,-235 1356.78,-212.471 1394.96,-234.091 1525.5,-199 1559.15,-189.956 1564.17,-178.136 1597.5,-168 1630.06,-158.098 1715.79,-143.097 1775.92,-133.175"/>
<polygon fill="midnightblue" stroke="midnightblue" points="1776.78,-136.581 1786.08,-131.506 1775.65,-129.673 1776.78,-136.581"/>
</g>
<!-- Node39&#45;&gt;Node23 -->
<g id="edge56" class="edge"><title>Node39&#45;&gt;Node23</title>
<path fill="none" stroke="midnightblue" d="M1100.38,-249.208C1016.29,-247.427 865.462,-238.628 831.5,-199 817.486,-182.647 827.79,-157.332 837.631,-140.469"/>
<polygon fill="midnightblue" stroke="midnightblue" points="840.818,-141.976 843.185,-131.649 834.894,-138.246 840.818,-141.976"/>
</g>
<!-- Node39&#45;&gt;Node29 -->
<g id="edge59" class="edge"><title>Node39&#45;&gt;Node29</title>
<path fill="none" stroke="midnightblue" d="M1176.62,-240.869C1201.26,-229.748 1244.31,-210.317 1272.86,-197.429"/>
<polygon fill="midnightblue" stroke="midnightblue" points="1274.62,-200.471 1282.3,-193.167 1271.74,-194.091 1274.62,-200.471"/>
</g>
<!-- Node40 -->
<g id="node40" class="node"><title>Node40</title>
<g id="a_node40"><a xlink:href="../../dd/d01/tagger_2Base_8hh.html" target="_top" xlink:title="boca/tagger/Base.hh">
<polygon fill="white" stroke="red" points="1003,-174 1003,-193 1110,-193 1110,-174 1003,-174"/>
<text text-anchor="middle" x="1056.5" y="-181" font-family="Helvetica,sans-Serif" font-size="10.00">boca/tagger/Base.hh</text>
</a>
</g>
</g>
<!-- Node39&#45;&gt;Node40 -->
<g id="edge54" class="edge"><title>Node39&#45;&gt;Node40</title>
<path fill="none" stroke="midnightblue" d="M1143.88,-240.734C1127.07,-229.916 1098.27,-211.383 1078.36,-198.566"/>
<polygon fill="midnightblue" stroke="midnightblue" points="1080.21,-195.596 1069.91,-193.127 1076.42,-201.482 1080.21,-195.596"/>
</g>
<!-- Node41 -->
<g id="node41" class="node"><title>Node41</title>
<g id="a_node41"><a xlink:href="../../de/df0/Filter_8hh.html" target="_top" xlink:title="boca/Filter.hh">
<polygon fill="white" stroke="red" points="950.5,-56.5 950.5,-75.5 1026.5,-75.5 1026.5,-56.5 950.5,-56.5"/>
<text text-anchor="middle" x="988.5" y="-63.5" font-family="Helvetica,sans-Serif" font-size="10.00">boca/Filter.hh</text>
</a>
</g>
</g>
<!-- Node39&#45;&gt;Node41 -->
<g id="edge57" class="edge"><title>Node39&#45;&gt;Node41</title>
<path fill="none" stroke="midnightblue" d="M1154.61,-240.804C1149.18,-225.208 1136.33,-191.883 1118.5,-168 1089.65,-129.354 1042.35,-97.7738 1013.46,-80.7345"/>
<polygon fill="midnightblue" stroke="midnightblue" points="1015.18,-77.6883 1004.77,-75.7228 1011.69,-83.7517 1015.18,-77.6883"/>
</g>
<!-- Node40&#45;&gt;Node12 -->
<g id="edge55" class="edge"><title>Node40&#45;&gt;Node12</title>
<path fill="none" stroke="midnightblue" d="M1045.61,-173.975C1033.53,-164.52 1013.83,-149.096 999.26,-137.687"/>
<polygon fill="midnightblue" stroke="midnightblue" points="1001.4,-134.918 991.369,-131.509 997.085,-140.429 1001.4,-134.918"/>
</g>
<!-- Node41&#45;&gt;Node6 -->
<g id="edge58" class="edge"><title>Node41&#45;&gt;Node6</title>
<path fill="none" stroke="midnightblue" d="M961.88,-56.4435C931.658,-46.7292 882.453,-30.9134 850.788,-20.7354"/>
<polygon fill="midnightblue" stroke="midnightblue" points="851.761,-17.3719 841.17,-17.6439 849.619,-24.0361 851.761,-17.3719"/>
</g>
<!-- Node43 -->
<g id="node43" class="node"><title>Node43</title>
<g id="a_node43"><a xlink:href="../../d2/d91/multiplets_2TwoBody_8hh.html" target="_top" xlink:title="boca/multiplets/TwoBody.hh">
<polygon fill="white" stroke="red" points="1483.5,-241 1483.5,-260 1623.5,-260 1623.5,-241 1483.5,-241"/>
<text text-anchor="middle" x="1553.5" y="-248" font-family="Helvetica,sans-Serif" font-size="10.00">boca/multiplets/TwoBody.hh</text>
</a>
</g>
</g>
<!-- Node42&#45;&gt;Node43 -->
<g id="edge61" class="edge"><title>Node42&#45;&gt;Node43</title>
<path fill="none" stroke="midnightblue" d="M1553.5,-307.734C1553.5,-298.183 1553.5,-282.618 1553.5,-270.283"/>
<polygon fill="midnightblue" stroke="midnightblue" points="1557,-270.127 1553.5,-260.127 1550,-270.127 1557,-270.127"/>
</g>
<!-- Node43&#45;&gt;Node22 -->
<g id="edge62" class="edge"><title>Node43&#45;&gt;Node22</title>
<path fill="none" stroke="midnightblue" d="M1560.1,-240.784C1573.36,-223.915 1605.03,-186.81 1640.5,-168 1663.99,-155.541 1728.39,-142.216 1777.62,-133.327"/>
<polygon fill="midnightblue" stroke="midnightblue" points="1778.34,-136.756 1787.57,-131.555 1777.11,-129.865 1778.34,-136.756"/>
</g>
<!-- Node44&#45;&gt;Node39 -->
<g id="edge67" class="edge"><title>Node44&#45;&gt;Node39</title>
<path fill="none" stroke="midnightblue" d="M1641.46,-304.262C1637.09,-303.426 1632.73,-302.657 1628.5,-302 1449.93,-274.268 1402.11,-293.444 1223.5,-266 1216.64,-264.947 1209.43,-263.606 1202.4,-262.168"/>
<polygon fill="midnightblue" stroke="midnightblue" points="1202.79,-258.673 1192.28,-260.012 1201.33,-265.519 1202.79,-258.673"/>
</g>
<!-- Node45 -->
<g id="node45" class="node"><title>Node45</title>
<g id="a_node45"><a xlink:href="../../db/d60/Singlet_8hh.html" target="_top" xlink:title="boca/multiplets/Singlet.hh">
<polygon fill="white" stroke="red" points="1915,-241 1915,-260 2044,-260 2044,-241 1915,-241"/>
<text text-anchor="middle" x="1979.5" y="-248" font-family="Helvetica,sans-Serif" font-size="10.00">boca/multiplets/Singlet.hh</text>
</a>
</g>
</g>
<!-- Node44&#45;&gt;Node45 -->
<g id="edge65" class="edge"><title>Node44&#45;&gt;Node45</title>
<path fill="none" stroke="midnightblue" d="M1745.62,-304.654C1798.79,-292.57 1880.58,-273.982 1932.01,-262.294"/>
<polygon fill="midnightblue" stroke="midnightblue" points="1932.9,-265.681 1941.87,-260.052 1931.34,-258.855 1932.9,-265.681"/>
</g>
<!-- Node46 -->
<g id="node46" class="node"><title>Node46</title>
<g id="a_node46"><a xlink:href="../../dc/d97/branch_2Bottom_8hh.html" target="_top" xlink:title="boca/standardmodel\l/branch/Bottom.hh">
<polygon fill="white" stroke="red" points="1641.5,-235.5 1641.5,-265.5 1745.5,-265.5 1745.5,-235.5 1641.5,-235.5"/>
<text text-anchor="start" x="1649.5" y="-253.5" font-family="Helvetica,sans-Serif" font-size="10.00">boca/standardmodel</text>
<text text-anchor="middle" x="1693.5" y="-242.5" font-family="Helvetica,sans-Serif" font-size="10.00">/branch/Bottom.hh</text>
</a>
</g>
</g>
<!-- Node44&#45;&gt;Node46 -->
<g id="edge68" class="edge"><title>Node44&#45;&gt;Node46</title>
<path fill="none" stroke="midnightblue" d="M1693.5,-302.396C1693.5,-294.645 1693.5,-284.812 1693.5,-275.86"/>
<polygon fill="midnightblue" stroke="midnightblue" points="1697,-275.576 1693.5,-265.577 1690,-275.577 1697,-275.576"/>
</g>
<!-- Node48 -->
<g id="node48" class="node"><title>Node48</title>
<g id="a_node48"><a xlink:href="../../d1/d7d/MuXboostedBTagging_8hh.html" target="_top" xlink:title="boca/external/MuXboosted\lBTagging.hh">
<polygon fill="white" stroke="black" points="1764,-235.5 1764,-265.5 1897,-265.5 1897,-235.5 1764,-235.5"/>
<text text-anchor="start" x="1772" y="-253.5" font-family="Helvetica,sans-Serif" font-size="10.00">boca/external/MuXboosted</text>
<text text-anchor="middle" x="1830.5" y="-242.5" font-family="Helvetica,sans-Serif" font-size="10.00">BTagging.hh</text>
</a>
</g>
</g>
<!-- Node44&#45;&gt;Node48 -->
<g id="edge71" class="edge"><title>Node44&#45;&gt;Node48</title>
<path fill="none" stroke="midnightblue" d="M1723.23,-302.396C1743.24,-292.899 1769.85,-280.276 1791.55,-269.978"/>
<polygon fill="midnightblue" stroke="midnightblue" points="1793.3,-273.025 1800.83,-265.577 1790.3,-266.701 1793.3,-273.025"/>
</g>
<!-- Node45&#45;&gt;Node27 -->
<g id="edge66" class="edge"><title>Node45&#45;&gt;Node27</title>
<path fill="none" stroke="midnightblue" d="M1977.11,-240.791C1971.13,-219.025 1954.93,-160.52 1940.5,-112 1937.87,-103.166 1934.85,-93.394 1932.28,-85.2195"/>
<polygon fill="midnightblue" stroke="midnightblue" points="1935.6,-84.0897 1929.25,-75.6071 1928.92,-86.1969 1935.6,-84.0897"/>
</g>
<!-- Node47 -->
<g id="node47" class="node"><title>Node47</title>
<g id="a_node47"><a xlink:href="../../dc/d3c/BottomBase_8hh.html" target="_top" xlink:title="boca/standardmodel\l/branch/BottomBase.hh">
<polygon fill="white" stroke="red" points="1650,-168.5 1650,-198.5 1769,-198.5 1769,-168.5 1650,-168.5"/>
<text text-anchor="start" x="1658" y="-186.5" font-family="Helvetica,sans-Serif" font-size="10.00">boca/standardmodel</text>
<text text-anchor="middle" x="1709.5" y="-175.5" font-family="Helvetica,sans-Serif" font-size="10.00">/branch/BottomBase.hh</text>
</a>
</g>
</g>
<!-- Node46&#45;&gt;Node47 -->
<g id="edge69" class="edge"><title>Node46&#45;&gt;Node47</title>
<path fill="none" stroke="midnightblue" d="M1696.97,-235.396C1698.9,-227.56 1701.35,-217.596 1703.58,-208.565"/>
<polygon fill="midnightblue" stroke="midnightblue" points="1707.04,-209.123 1706.04,-198.577 1700.25,-207.45 1707.04,-209.123"/>
</g>
<!-- Node47&#45;&gt;Node14 -->
<g id="edge70" class="edge"><title>Node47&#45;&gt;Node14</title>
<path fill="none" stroke="midnightblue" d="M1649.77,-175.558C1552.85,-164.296 1362.16,-142.135 1262.17,-130.515"/>
<polygon fill="midnightblue" stroke="midnightblue" points="1262.53,-127.034 1252.19,-129.356 1261.72,-133.987 1262.53,-127.034"/>
</g>
<!-- Node48&#45;&gt;Node27 -->
<g id="edge72" class="edge"><title>Node48&#45;&gt;Node27</title>
<path fill="none" stroke="midnightblue" d="M1841.46,-235.416C1857.62,-214.089 1887.92,-171.854 1906.5,-132 1913.52,-116.952 1918.86,-98.8227 1922.25,-85.5379"/>
<polygon fill="midnightblue" stroke="midnightblue" points="1925.68,-86.2348 1924.63,-75.6921 1918.88,-84.5881 1925.68,-86.2348"/>
</g>
<!-- Node49&#45;&gt;Node47 -->
<g id="edge75" class="edge"><title>Node49&#45;&gt;Node47</title>
<path fill="none" stroke="midnightblue" d="M1991.4,-302.365C2030.62,-287.731 2077.77,-263.096 2053.5,-235 2018.78,-194.811 1869.26,-186.012 1779.16,-184.437"/>
<polygon fill="midnightblue" stroke="midnightblue" points="1779.07,-180.936 1769.02,-184.286 1778.96,-187.935 1779.07,-180.936"/>
</g>
<!-- Node50 -->
<g id="node50" class="node"><title>Node50</title>
<g id="a_node50"><a xlink:href="../../dc/d27/branch_2TwoBody_8hh.html" target="_top" xlink:title="boca/branch/TwoBody.hh">
<polygon fill="white" stroke="red" points="2100.5,-241 2100.5,-260 2228.5,-260 2228.5,-241 2100.5,-241"/>
<text text-anchor="middle" x="2164.5" y="-248" font-family="Helvetica,sans-Serif" font-size="10.00">boca/branch/TwoBody.hh</text>
</a>
</g>
</g>
<!-- Node49&#45;&gt;Node50 -->
<g id="edge74" class="edge"><title>Node49&#45;&gt;Node50</title>
<path fill="none" stroke="midnightblue" d="M1993.53,-302.476C2033.12,-290.673 2089.04,-274.001 2126,-262.979"/>
<polygon fill="midnightblue" stroke="midnightblue" points="2127.31,-266.24 2135.9,-260.029 2125.31,-259.532 2127.31,-266.24"/>
</g>
</g>
</svg>
