<?xml version="1.0" encoding="UTF-8" standalone="no"?>
<!DOCTYPE svg PUBLIC "-//W3C//DTD SVG 1.1//EN"
 "http://www.w3.org/Graphics/SVG/1.1/DTD/svg11.dtd">
<!-- Generated by graphviz version 2.38.0 (20140413.2041)
 -->
<!-- Title: HeavyHiggs/include/AnalysisHeavyHiggs.hh Pages: 1 -->
<svg width="1579pt" height="173pt"
 viewBox="0.00 0.00 1578.50 173.00" xmlns="http://www.w3.org/2000/svg" xmlns:xlink="http://www.w3.org/1999/xlink">
<g id="graph0" class="graph" transform="scale(1 1) rotate(0) translate(4 169)">
<title>HeavyHiggs/include/AnalysisHeavyHiggs.hh</title>
<polygon fill="white" stroke="none" points="-4,4 -4,-169 1574.5,-169 1574.5,4 -4,4"/>
<!-- Node1 -->
<g id="node1" class="node"><title>Node1</title>
<polygon fill="#bfbfbf" stroke="black" points="814,-134.5 814,-164.5 939,-164.5 939,-134.5 814,-134.5"/>
<text text-anchor="start" x="822" y="-152.5" font-family="Helvetica,sans-Serif" font-size="10.00">HeavyHiggs/include</text>
<text text-anchor="middle" x="876.5" y="-141.5" font-family="Helvetica,sans-Serif" font-size="10.00">/AnalysisHeavyHiggs.hh</text>
</g>
<!-- Node2 -->
<g id="node2" class="node"><title>Node2</title>
<g id="a_node2"><a xlink:href="../../d1/da2/AnalysisCharged_8hh.html" target="_top" xlink:title="HeavyHiggs/include\l/AnalysisCharged.hh">
<polygon fill="white" stroke="black" points="199,-67.5 199,-97.5 306,-97.5 306,-67.5 199,-67.5"/>
<text text-anchor="start" x="207" y="-85.5" font-family="Helvetica,sans-Serif" font-size="10.00">HeavyHiggs/include</text>
<text text-anchor="middle" x="252.5" y="-74.5" font-family="Helvetica,sans-Serif" font-size="10.00">/AnalysisCharged.hh</text>
</a>
</g>
</g>
<!-- Node1&#45;&gt;Node2 -->
<g id="edge1" class="edge"><title>Node1&#45;&gt;Node2</title>
<path fill="none" stroke="midnightblue" d="M803.805,-140.928C676.99,-127.718 418.183,-100.759 306.163,-89.0899"/>
<polygon fill="midnightblue" stroke="midnightblue" points="803.503,-144.415 813.811,-141.97 804.228,-137.453 803.503,-144.415"/>
</g>
<!-- Node5 -->
<g id="node5" class="node"><title>Node5</title>
<g id="a_node5"><a xlink:href="../../d2/d73/AnalysisFusion_8hh.html" target="_top" xlink:title="HeavyHiggs/include\l/AnalysisFusion.hh">
<polygon fill="white" stroke="black" points="558.5,-67.5 558.5,-97.5 662.5,-97.5 662.5,-67.5 558.5,-67.5"/>
<text text-anchor="start" x="566.5" y="-85.5" font-family="Helvetica,sans-Serif" font-size="10.00">HeavyHiggs/include</text>
<text text-anchor="middle" x="610.5" y="-74.5" font-family="Helvetica,sans-Serif" font-size="10.00">/AnalysisFusion.hh</text>
</a>
</g>
</g>
<!-- Node1&#45;&gt;Node5 -->
<g id="edge4" class="edge"><title>Node1&#45;&gt;Node5</title>
<path fill="none" stroke="midnightblue" d="M809.342,-132.089C763.908,-120.987 704.765,-106.535 662.825,-96.2861"/>
<polygon fill="midnightblue" stroke="midnightblue" points="808.564,-135.502 819.109,-134.476 810.226,-128.702 808.564,-135.502"/>
</g>
<!-- Node8 -->
<g id="node8" class="node"><title>Node8</title>
<g id="a_node8"><a xlink:href="../../d4/de1/AnalysisNeutral_8hh.html" target="_top" xlink:title="HeavyHiggs/include\l/AnalysisNeutral.hh">
<polygon fill="white" stroke="black" points="824.5,-67.5 824.5,-97.5 928.5,-97.5 928.5,-67.5 824.5,-67.5"/>
<text text-anchor="start" x="832.5" y="-85.5" font-family="Helvetica,sans-Serif" font-size="10.00">HeavyHiggs/include</text>
<text text-anchor="middle" x="876.5" y="-74.5" font-family="Helvetica,sans-Serif" font-size="10.00">/AnalysisNeutral.hh</text>
</a>
</g>
</g>
<!-- Node1&#45;&gt;Node8 -->
<g id="edge7" class="edge"><title>Node1&#45;&gt;Node8</title>
<path fill="none" stroke="midnightblue" d="M876.5,-124.108C876.5,-115.154 876.5,-105.323 876.5,-97.5765"/>
<polygon fill="midnightblue" stroke="midnightblue" points="873,-124.396 876.5,-134.396 880,-124.396 873,-124.396"/>
</g>
<!-- Node11 -->
<g id="node11" class="node"><title>Node11</title>
<g id="a_node11"><a xlink:href="../../d6/d4e/AnalysisNeutralFourTop_8hh.html" target="_top" xlink:title="HeavyHiggs/include\l/AnalysisNeutralFourTop.hh">
<polygon fill="white" stroke="black" points="1074.5,-67.5 1074.5,-97.5 1212.5,-97.5 1212.5,-67.5 1074.5,-67.5"/>
<text text-anchor="start" x="1082.5" y="-85.5" font-family="Helvetica,sans-Serif" font-size="10.00">HeavyHiggs/include</text>
<text text-anchor="middle" x="1143.5" y="-74.5" font-family="Helvetica,sans-Serif" font-size="10.00">/AnalysisNeutralFourTop.hh</text>
</a>
</g>
</g>
<!-- Node1&#45;&gt;Node11 -->
<g id="edge10" class="edge"><title>Node1&#45;&gt;Node11</title>
<path fill="none" stroke="midnightblue" d="M944.065,-132.052C987.716,-121.425 1043.92,-107.741 1085.54,-97.6109"/>
<polygon fill="midnightblue" stroke="midnightblue" points="942.995,-128.71 934.106,-134.476 944.65,-135.511 942.995,-128.71"/>
</g>
<!-- Node15 -->
<g id="node15" class="node"><title>Node15</title>
<g id="a_node15"><a xlink:href="../../da/dd2/AnalysisHeavyHiggs_8cpp.html" target="_top" xlink:title="HeavyHiggs/source/Analysis\lHeavyHiggs.cpp">
<polygon fill="white" stroke="black" points="1231,-67.5 1231,-97.5 1374,-97.5 1374,-67.5 1231,-67.5"/>
<text text-anchor="start" x="1239" y="-85.5" font-family="Helvetica,sans-Serif" font-size="10.00">HeavyHiggs/source/Analysis</text>
<text text-anchor="middle" x="1302.5" y="-74.5" font-family="Helvetica,sans-Serif" font-size="10.00">HeavyHiggs.cpp</text>
</a>
</g>
</g>
<!-- Node1&#45;&gt;Node15 -->
<g id="edge14" class="edge"><title>Node1&#45;&gt;Node15</title>
<path fill="none" stroke="midnightblue" d="M949.257,-138.535C1019.15,-128.8 1127.68,-113.26 1221.5,-98 1224.6,-97.4954 1227.77,-96.9705 1230.97,-96.4324"/>
<polygon fill="midnightblue" stroke="midnightblue" points="948.655,-135.085 939.232,-139.928 949.618,-142.018 948.655,-135.085"/>
</g>
<!-- Node3 -->
<g id="node3" class="node"><title>Node3</title>
<g id="a_node3"><a xlink:href="../../d7/d40/AnalysisCharged_8cpp.html" target="_top" xlink:title="HeavyHiggs/source/Analysis\lCharged.cpp">
<polygon fill="white" stroke="black" points="0,-0.5 0,-30.5 143,-30.5 143,-0.5 0,-0.5"/>
<text text-anchor="start" x="8" y="-18.5" font-family="Helvetica,sans-Serif" font-size="10.00">HeavyHiggs/source/Analysis</text>
<text text-anchor="middle" x="71.5" y="-7.5" font-family="Helvetica,sans-Serif" font-size="10.00">Charged.cpp</text>
</a>
</g>
</g>
<!-- Node2&#45;&gt;Node3 -->
<g id="edge2" class="edge"><title>Node2&#45;&gt;Node3</title>
<path fill="none" stroke="midnightblue" d="M203.645,-63.9553C174.488,-53.4847 137.957,-40.3656 110.698,-30.5765"/>
<polygon fill="midnightblue" stroke="midnightblue" points="202.631,-67.3101 213.226,-67.396 204.997,-60.722 202.631,-67.3101"/>
</g>
<!-- Node4 -->
<g id="node4" class="node"><title>Node4</title>
<g id="a_node4"><a xlink:href="../../d3/d46/MainCharged_8cpp.html" target="_top" xlink:title="HeavyHiggs/source/MainCharged.cpp">
<polygon fill="white" stroke="black" points="161.5,-6 161.5,-25 343.5,-25 343.5,-6 161.5,-6"/>
<text text-anchor="middle" x="252.5" y="-13" font-family="Helvetica,sans-Serif" font-size="10.00">HeavyHiggs/source/MainCharged.cpp</text>
</a>
</g>
</g>
<!-- Node2&#45;&gt;Node4 -->
<g id="edge3" class="edge"><title>Node2&#45;&gt;Node4</title>
<path fill="none" stroke="midnightblue" d="M252.5,-57.2495C252.5,-46.017 252.5,-33.3767 252.5,-25.1945"/>
<polygon fill="midnightblue" stroke="midnightblue" points="249,-57.3959 252.5,-67.396 256,-57.396 249,-57.3959"/>
</g>
<!-- Node6 -->
<g id="node6" class="node"><title>Node6</title>
<g id="a_node6"><a xlink:href="../../df/d01/AnalysisFusion_8cpp.html" target="_top" xlink:title="HeavyHiggs/source/Analysis\lFusion.cpp">
<polygon fill="white" stroke="black" points="362,-0.5 362,-30.5 505,-30.5 505,-0.5 362,-0.5"/>
<text text-anchor="start" x="370" y="-18.5" font-family="Helvetica,sans-Serif" font-size="10.00">HeavyHiggs/source/Analysis</text>
<text text-anchor="middle" x="433.5" y="-7.5" font-family="Helvetica,sans-Serif" font-size="10.00">Fusion.cpp</text>
</a>
</g>
</g>
<!-- Node5&#45;&gt;Node6 -->
<g id="edge5" class="edge"><title>Node5&#45;&gt;Node6</title>
<path fill="none" stroke="midnightblue" d="M562.352,-63.8185C533.902,-53.3707 498.372,-40.3231 471.831,-30.5765"/>
<polygon fill="midnightblue" stroke="midnightblue" points="561.5,-67.2342 572.094,-67.396 563.913,-60.6632 561.5,-67.2342"/>
</g>
<!-- Node7 -->
<g id="node7" class="node"><title>Node7</title>
<g id="a_node7"><a xlink:href="../../d5/d90/MainFusion_8cpp.html" target="_top" xlink:title="HeavyHiggs/source/MainFusion.cpp">
<polygon fill="white" stroke="black" points="523,-6 523,-25 698,-25 698,-6 523,-6"/>
<text text-anchor="middle" x="610.5" y="-13" font-family="Helvetica,sans-Serif" font-size="10.00">HeavyHiggs/source/MainFusion.cpp</text>
</a>
</g>
</g>
<!-- Node5&#45;&gt;Node7 -->
<g id="edge6" class="edge"><title>Node5&#45;&gt;Node7</title>
<path fill="none" stroke="midnightblue" d="M610.5,-57.2495C610.5,-46.017 610.5,-33.3767 610.5,-25.1945"/>
<polygon fill="midnightblue" stroke="midnightblue" points="607,-57.3959 610.5,-67.396 614,-57.396 607,-57.3959"/>
</g>
<!-- Node9 -->
<g id="node9" class="node"><title>Node9</title>
<g id="a_node9"><a xlink:href="../../d9/d03/AnalysisNeutral_8cpp.html" target="_top" xlink:title="HeavyHiggs/source/Analysis\lNeutral.cpp">
<polygon fill="white" stroke="black" points="716,-0.5 716,-30.5 859,-30.5 859,-0.5 716,-0.5"/>
<text text-anchor="start" x="724" y="-18.5" font-family="Helvetica,sans-Serif" font-size="10.00">HeavyHiggs/source/Analysis</text>
<text text-anchor="middle" x="787.5" y="-7.5" font-family="Helvetica,sans-Serif" font-size="10.00">Neutral.cpp</text>
</a>
</g>
</g>
<!-- Node8&#45;&gt;Node9 -->
<g id="edge8" class="edge"><title>Node8&#45;&gt;Node9</title>
<path fill="none" stroke="midnightblue" d="M849.048,-61.4511C835.357,-51.4517 819.129,-39.5995 806.774,-30.5765"/>
<polygon fill="midnightblue" stroke="midnightblue" points="847.048,-64.3245 857.188,-67.396 851.177,-58.6716 847.048,-64.3245"/>
</g>
<!-- Node10 -->
<g id="node10" class="node"><title>Node10</title>
<g id="a_node10"><a xlink:href="../../dd/d72/MainNeutral_8cpp.html" target="_top" xlink:title="HeavyHiggs/source/MainNeutral.cpp">
<polygon fill="white" stroke="black" points="877,-6 877,-25 1054,-25 1054,-6 877,-6"/>
<text text-anchor="middle" x="965.5" y="-13" font-family="Helvetica,sans-Serif" font-size="10.00">HeavyHiggs/source/MainNeutral.cpp</text>
</a>
</g>
</g>
<!-- Node8&#45;&gt;Node10 -->
<g id="edge9" class="edge"><title>Node8&#45;&gt;Node10</title>
<path fill="none" stroke="midnightblue" d="M904.151,-61.3056C920.863,-49.0999 941.296,-34.1772 953.852,-25.007"/>
<polygon fill="midnightblue" stroke="midnightblue" points="901.823,-58.6716 895.812,-67.396 905.952,-64.3245 901.823,-58.6716"/>
</g>
<!-- Node12 -->
<g id="node12" class="node"><title>Node12</title>
<g id="a_node12"><a xlink:href="../../da/dc8/AnalysisNeutralFourTop_8cpp.html" target="_top" xlink:title="HeavyHiggs/source/Analysis\lNeutralFourTop.cpp">
<polygon fill="white" stroke="black" points="1072,-0.5 1072,-30.5 1215,-30.5 1215,-0.5 1072,-0.5"/>
<text text-anchor="start" x="1080" y="-18.5" font-family="Helvetica,sans-Serif" font-size="10.00">HeavyHiggs/source/Analysis</text>
<text text-anchor="middle" x="1143.5" y="-7.5" font-family="Helvetica,sans-Serif" font-size="10.00">NeutralFourTop.cpp</text>
</a>
</g>
</g>
<!-- Node11&#45;&gt;Node12 -->
<g id="edge11" class="edge"><title>Node11&#45;&gt;Node12</title>
<path fill="none" stroke="midnightblue" d="M1143.5,-57.1081C1143.5,-48.1539 1143.5,-38.3227 1143.5,-30.5765"/>
<polygon fill="midnightblue" stroke="midnightblue" points="1140,-57.3959 1143.5,-67.396 1147,-57.396 1140,-57.3959"/>
</g>
<!-- Node13 -->
<g id="node13" class="node"><title>Node13</title>
<g id="a_node13"><a xlink:href="../../d3/d5f/MainCut_8cpp.html" target="_top" xlink:title="HeavyHiggs/source/MainCut.cpp">
<polygon fill="white" stroke="black" points="1233,-6 1233,-25 1394,-25 1394,-6 1233,-6"/>
<text text-anchor="middle" x="1313.5" y="-13" font-family="Helvetica,sans-Serif" font-size="10.00">HeavyHiggs/source/MainCut.cpp</text>
</a>
</g>
</g>
<!-- Node11&#45;&gt;Node13 -->
<g id="edge12" class="edge"><title>Node11&#45;&gt;Node13</title>
<path fill="none" stroke="midnightblue" d="M1189.83,-63.7838C1222.8,-51.1807 1265.62,-34.8082 1291.25,-25.007"/>
<polygon fill="midnightblue" stroke="midnightblue" points="1188.48,-60.5553 1180.39,-67.396 1190.98,-67.0937 1188.48,-60.5553"/>
</g>
<!-- Node14 -->
<g id="node14" class="node"><title>Node14</title>
<g id="a_node14"><a xlink:href="../../d0/d67/MainNeutralFourTop_8cpp.html" target="_top" xlink:title="HeavyHiggs/source/MainNeutral\lFourTop.cpp">
<polygon fill="white" stroke="black" points="1412.5,-0.5 1412.5,-30.5 1570.5,-30.5 1570.5,-0.5 1412.5,-0.5"/>
<text text-anchor="start" x="1420.5" y="-18.5" font-family="Helvetica,sans-Serif" font-size="10.00">HeavyHiggs/source/MainNeutral</text>
<text text-anchor="middle" x="1491.5" y="-7.5" font-family="Helvetica,sans-Serif" font-size="10.00">FourTop.cpp</text>
</a>
</g>
</g>
<!-- Node11&#45;&gt;Node14 -->
<g id="edge13" class="edge"><title>Node11&#45;&gt;Node14</title>
<path fill="none" stroke="midnightblue" d="M1222.55,-66.7351C1280.7,-55.8737 1359.24,-41.203 1416.43,-30.521"/>
<polygon fill="midnightblue" stroke="midnightblue" points="1221.86,-63.3037 1212.67,-68.5804 1223.14,-70.1847 1221.86,-63.3037"/>
</g>
</g>
</svg>
